<?xml version="1.0" standalone="no"?>
<!DOCTYPE svg PUBLIC "-//W3C//DTD SVG 1.1//EN" "http://www.w3.org/Graphics/SVG/1.1/DTD/svg11.dtd" >
<svg>
<metadata>
Created by FontForge 20090914 at Sat Aug  6 10:52:15 2016
 By www-data
Copyright (c) 2012, Impallari Type (www.impallari.com), with Reserved Font Name Encode Sans.
</metadata>
<defs>
<font id="EncodeSansWide-Regular" horiz-adv-x="578" >
  <font-face 
    font-family="Encode Sans Wide"
    font-weight="400"
    font-stretch="normal"
    units-per-em="1000"
    panose-1="2 0 0 0 0 0 0 0 0 0"
    ascent="800"
    descent="-200"
    x-height="540"
    cap-height="740"
    bbox="-106 -220.001 1742 1030"
    underline-thickness="55"
    underline-position="-57"
    unicode-range="U+000D-U+FB04"
  />
<missing-glyph horiz-adv-x="816" 
d="M98 1030h619v-1250h-619v1250zM637 -144v1099h-458v-1099h458z" />
    <glyph glyph-name="f_f" unicode="ff" horiz-adv-x="827" 
d="M146 460l-129.999 -0.000976562v80h131v23c0 49.333 4 89.833 12 121.5s22.167 56.834 42.5 75.501s48 32 83 40s79.167 12.667 132.5 14l5 -67c-38 -2.66699 -68.833 -6.5 -92.5 -11.5s-42.334 -13 -56.001 -24s-23 -26.333 -28 -46s-7.5 -45.167 -7.5 -76.5v-49h157
v-80h-157v-460h-92v460zM562.001 459.999l-129.999 -0.000976562v80h131v23c0 49.333 4 89.833 12 121.5s22.167 56.834 42.5 75.501s48 32 83 40s79.167 12.667 132.5 14l5 -67c-38 -2.66699 -68.833 -6.5 -92.5 -11.5s-42.334 -13 -56.001 -24s-23 -26.333 -28 -46
s-7.5 -45.167 -7.5 -76.5v-49h157v-80h-157v-460h-92v460z" />
    <glyph glyph-name="f_i" unicode="fi" horiz-adv-x="682" 
d="M555 649c-37.333 0 -56 18.333 -56 55c0 37.333 18.667 56 56 56c38 0 57 -18.667 57 -56c0 -36.667 -19 -55 -57 -55zM509 540h92v-540h-92v540zM146 460l-129.999 -0.000976562v80h131v23c0 49.333 4 89.833 12 121.5s22.167 56.834 42.5 75.501s48 32 83 40
s79.167 12.667 132.5 14l5 -67c-38 -2.66699 -68.833 -6.5 -92.5 -11.5s-42.334 -13 -56.001 -24s-23 -26.333 -28 -46s-7.5 -45.167 -7.5 -76.5v-49h157v-80h-157v-460h-92v460z" />
    <glyph glyph-name="f_l" unicode="fl" horiz-adv-x="684" 
d="M146 460l-129.999 -0.000976562v80h131v23c0 49.333 4 89.833 12 121.5s22.167 56.834 42.5 75.501s48 32 83 40s79.167 12.667 132.5 14l5 -67c-38 -2.66699 -68.833 -6.5 -92.5 -11.5s-42.334 -13 -56.001 -24s-23 -26.333 -28 -46s-7.5 -45.167 -7.5 -76.5v-49h157
v-80h-157v-460h-92v460zM508.001 807.999h92v-808h-92v808z" />
    <glyph glyph-name="f_f_i" unicode="ffi" horiz-adv-x="1097" 
d="M970 649c-37.333 0 -56 18.333 -56 55c0 37.333 18.667 56 56 56c38 0 57 -18.667 57 -56c0 -36.667 -19 -55 -57 -55zM924 540h92v-540h-92v540zM562 460l-129.999 -0.000976562v80h131v23c0 49.333 4 89.833 12 121.5s22.167 56.834 42.5 75.501s48 32 83 40
s79.167 12.667 132.5 14l5 -67c-38 -2.66699 -68.833 -6.5 -92.5 -11.5s-42.334 -13 -56.001 -24s-23 -26.333 -28 -46s-7.5 -45.167 -7.5 -76.5v-49h157v-80h-157v-460h-92v460zM146.001 459.999l-129.999 -0.000976562v80h131v23c0 49.333 4 89.833 12 121.5
s22.167 56.834 42.5 75.501s48 32 83 40s79.167 12.667 132.5 14l5 -67c-38 -2.66699 -68.833 -6.5 -92.5 -11.5s-42.334 -13 -56.001 -24s-23 -26.333 -28 -46s-7.5 -45.167 -7.5 -76.5v-49h157v-80h-157v-460h-92v460z" />
    <glyph glyph-name="f_f_l" unicode="ffl" horiz-adv-x="1098" 
d="M562 460l-129.999 -0.000976562v80h131v23c0 49.333 4 89.833 12 121.5s22.167 56.834 42.5 75.501s48 32 83 40s79.167 12.667 132.5 14l5 -67c-38 -2.66699 -68.833 -6.5 -92.5 -11.5s-42.334 -13 -56.001 -24s-23 -26.333 -28 -46s-7.5 -45.167 -7.5 -76.5v-49h157
v-80h-157v-460h-92v460zM924.001 807.999h92v-808h-92v808zM146.001 459.999l-129.999 -0.000976562v80h131v23c0 49.333 4 89.833 12 121.5s22.167 56.834 42.5 75.501s48 32 83 40s79.167 12.667 132.5 14l5 -67c-38 -2.66699 -68.833 -6.5 -92.5 -11.5
s-42.334 -13 -56.001 -24s-23 -26.333 -28 -46s-7.5 -45.167 -7.5 -76.5v-49h157v-80h-157v-460h-92v460z" />
    <glyph glyph-name="f_b" unicode="fb" horiz-adv-x="1073" 
d="M147 460l-129.999 -0.000976562v80h131v23c0 49.333 4 89.833 12 121.5s22.167 56.834 42.5 75.501s48 32 83 40s79.167 12.667 132.5 14l5 -67c-38 -2.66699 -68.833 -6.5 -92.5 -11.5s-42.334 -13 -56.001 -24s-23 -26.333 -28 -46s-7.5 -45.167 -7.5 -76.5v-49h157
v-80h-157v-460h-92v460zM743.001 -11.001c-33.333 0 -68.832 1.50293 -106.499 4.50293s-80.167 8.5 -127.5 16.5v798h92v-330c44 48 104.667 72 182 72s136.666 -22.333 177.999 -67s62 -114.334 62 -209.001c0 -48.667 -6.83301 -90.834 -20.5 -126.501
s-32.834 -65.334 -57.501 -89.001s-54.167 -41.167 -88.5 -52.5s-72.166 -17 -113.499 -17zM741.002 59.002c63.333 0 110.666 15.832 141.999 47.499s47 85.834 47 162.501c0 74.667 -13.333 127.667 -40 159s-69 47 -127 47c-21.333 0 -41.666 -2.66699 -60.999 -8
s-36.5 -13 -51.5 -23s-27 -22 -36 -36s-13.5 -29.667 -13.5 -47v-292c17.333 -2.66699 38 -5 62 -7s50 -3 78 -3z" />
    <glyph glyph-name="f_f_b" unicode="ffb" horiz-adv-x="1488" 
d="M563 460l-129.999 -0.000976562v80h131v23c0 49.333 4 89.833 12 121.5s22.167 56.834 42.5 75.501s48 32 83 40s79.167 12.667 132.5 14l5 -67c-38 -2.66699 -68.833 -6.5 -92.5 -11.5s-42.334 -13 -56.001 -24s-23 -26.333 -28 -46s-7.5 -45.167 -7.5 -76.5v-49h157
v-80h-157v-460h-92v460zM1159 -11.001c-33.333 0 -68.832 1.50293 -106.499 4.50293s-80.167 8.5 -127.5 16.5v798h92v-330c44 48 104.667 72 182 72s136.666 -22.333 177.999 -67s62 -114.334 62 -209.001c0 -48.667 -6.83301 -90.834 -20.5 -126.501
s-32.834 -65.334 -57.501 -89.001s-54.167 -41.167 -88.5 -52.5s-72.166 -17 -113.499 -17zM1157 59.002c63.333 0 110.666 15.832 141.999 47.499s47 85.834 47 162.501c0 74.667 -13.333 127.667 -40 159s-69 47 -127 47c-21.333 0 -41.666 -2.66699 -60.999 -8
s-36.5 -13 -51.5 -23s-27 -22 -36 -36s-13.5 -29.667 -13.5 -47v-292c17.333 -2.66699 38 -5 62 -7s50 -3 78 -3zM147.002 460.001l-129.999 -0.000976562v80h131v23c0 49.333 4 89.833 12 121.5s22.167 56.834 42.5 75.501s48 32 83 40s79.167 12.667 132.5 14l5 -67
c-38 -2.66699 -68.833 -6.5 -92.5 -11.5s-42.334 -13 -56.001 -24s-23 -26.333 -28 -46s-7.5 -45.167 -7.5 -76.5v-49h157v-80h-157v-460h-92v460z" />
    <glyph glyph-name="f_f_h" unicode="ffh" horiz-adv-x="1490" 
d="M925 808l91 -0.000976562v-332c28.667 12.667 54.834 23.667 78.501 33s45.167 17 64.5 23s37.5 10.5 54.5 13.5s33.5 4.5 49.5 4.5c48 0 85.333 -12.5 112 -37.5s40 -62.5 40 -112.5v-400h-92v367c0 38.667 -7.66699 66.334 -23 83.001s-39 25 -71 25
c-26.667 0 -58.334 -5.66699 -95.001 -17s-76 -26.333 -118 -45v-413h-91v808zM562 459.999l-129.999 -0.000976562v80h131v23c0 49.333 4 89.833 12 121.5s22.167 56.834 42.5 75.501s48 32 83 40s79.167 12.667 132.5 14l5 -67c-38 -2.66699 -68.833 -6.5 -92.5 -11.5
s-42.334 -13 -56.001 -24s-23 -26.333 -28 -46s-7.5 -45.167 -7.5 -76.5v-49h157v-80h-157v-460h-92v460zM146.001 459.998l-129.999 -0.000976562v80h131v23c0 49.333 4 89.833 12 121.5s22.167 56.834 42.5 75.501s48 32 83 40s79.167 12.667 132.5 14l5 -67
c-38 -2.66699 -68.833 -6.5 -92.5 -11.5s-42.334 -13 -56.001 -24s-23 -26.333 -28 -46s-7.5 -45.167 -7.5 -76.5v-49h157v-80h-157v-460h-92v460z" />
    <glyph glyph-name="f_f_j" unicode="ffj" horiz-adv-x="1100" 
d="M562 460l-129.999 -0.000976562v80h131v23c0 49.333 4 89.833 12 121.5s22.167 56.834 42.5 75.501s48 32 83 40s79.167 12.667 132.5 14l5 -67c-38 -2.66699 -68.833 -6.5 -92.5 -11.5s-42.334 -13 -56.001 -24s-23 -26.333 -28 -46s-7.5 -45.167 -7.5 -76.5v-49h157
v-80h-157v-460h-92v460zM972.001 648.999c-20 0 -34.5 4.33301 -43.5 13s-13.5 22.667 -13.5 42s4.5 33.5 13.5 42.5s23.5 13.5 43.5 13.5c37.333 0 56 -18.667 56 -56c0 -36.667 -18.667 -55 -56 -55zM863.001 -200.001c12 24.667 22.168 49.1689 30.501 73.502
s15.166 49.666 20.499 75.999s9.33301 54.5 12 84.5s4 63.333 4 100v33v68v87v90.5c0 29 -0.166992 55 -0.5 78s-0.5 39.5 -0.5 49.5h91v-454c-2 -56.667 -10.5 -110.334 -25.5 -161.001s-36.5 -99 -64.5 -145zM146.002 460.001l-129.999 -0.000976562v80h131v23
c0 49.333 4 89.833 12 121.5s22.167 56.834 42.5 75.501s48 32 83 40s79.167 12.667 132.5 14l5 -67c-38 -2.66699 -68.833 -6.5 -92.5 -11.5s-42.334 -13 -56.001 -24s-23 -26.333 -28 -46s-7.5 -45.167 -7.5 -76.5v-49h157v-80h-157v-460h-92v460z" />
    <glyph glyph-name="f_f_k" unicode="ffk" horiz-adv-x="1431" 
d="M925 808h91v-499h103l191 231h105l-213 -253l-19 -8v-4l20 -9l228 -266h-104l-210 246h-101v-246h-91v808zM562 460l-129.999 -0.000976562v80h131v23c0 49.333 4 89.833 12 121.5s22.167 56.834 42.5 75.501s48 32 83 40s79.167 12.667 132.5 14l5 -67
c-38 -2.66699 -68.833 -6.5 -92.5 -11.5s-42.334 -13 -56.001 -24s-23 -26.333 -28 -46s-7.5 -45.167 -7.5 -76.5v-49h157v-80h-157v-460h-92v460zM146.001 459.999l-129.999 -0.000976562v80h131v23c0 49.333 4 89.833 12 121.5s22.167 56.834 42.5 75.501s48 32 83 40
s79.167 12.667 132.5 14l5 -67c-38 -2.66699 -68.833 -6.5 -92.5 -11.5s-42.334 -13 -56.001 -24s-23 -26.333 -28 -46s-7.5 -45.167 -7.5 -76.5v-49h157v-80h-157v-460h-92v460z" />
    <glyph glyph-name="f_f_t" unicode="fft" horiz-adv-x="1252" 
d="M563 460l-129.999 -0.000976562v80h131v23c0 49.333 4 89.833 12 121.5s22.167 56.834 42.5 75.501s48 32 83 40s79.167 12.667 132.5 14l5 -67c-38 -2.66699 -68.833 -6.5 -92.5 -11.5s-42.334 -13 -56.001 -24s-23 -26.333 -28 -46s-7.5 -45.167 -7.5 -76.5v-49h157
v-80h-157v-460h-92v460zM1129 -10.001c-52.667 0 -92.667 13.1689 -120 39.502s-41 65.166 -41 116.499v314h-117v80h122l14 135l72 9v-144h169v-80h-168v-294c0 -34.667 7.66699 -60.334 23 -77.001s40 -25 74 -25c24 0 50 4.33301 78 13v-73
c-34 -9.33301 -69.333 -14 -106 -14zM147.001 460.001l-129.999 -0.000976562v80h131v23c0 49.333 4 89.833 12 121.5s22.167 56.834 42.5 75.501s48 32 83 40s79.167 12.667 132.5 14l5 -67c-38 -2.66699 -68.833 -6.5 -92.5 -11.5s-42.334 -13 -56.001 -24
s-23 -26.333 -28 -46s-7.5 -45.167 -7.5 -76.5v-49h157v-80h-157v-460h-92v460z" />
    <glyph glyph-name="f_h" unicode="fh" horiz-adv-x="1076" 
d="M509 808l91 -0.000976562v-332c28.667 12.667 54.834 23.667 78.501 33s45.167 17 64.5 23s37.5 10.5 54.5 13.5s33.5 4.5 49.5 4.5c48 0 85.333 -12.5 112 -37.5s40 -62.5 40 -112.5v-400h-92v367c0 38.667 -7.66699 66.334 -23 83.001s-39 25 -71 25
c-26.667 0 -58.334 -5.66699 -95.001 -17s-76 -26.333 -118 -45v-413h-91v808zM146 459.999l-129.999 -0.000976562v80h131v23c0 49.333 4 89.833 12 121.5s22.167 56.834 42.5 75.501s48 32 83 40s79.167 12.667 132.5 14l5 -67c-38 -2.66699 -68.833 -6.5 -92.5 -11.5
s-42.334 -13 -56.001 -24s-23 -26.333 -28 -46s-7.5 -45.167 -7.5 -76.5v-49h157v-80h-157v-460h-92v460z" />
    <glyph glyph-name="f_j" unicode="fj" horiz-adv-x="685" 
d="M146 460l-129.999 -0.000976562v80h131v23c0 49.333 4 89.833 12 121.5s22.167 56.834 42.5 75.501s48 32 83 40s79.167 12.667 132.5 14l5 -67c-38 -2.66699 -68.833 -6.5 -92.5 -11.5s-42.334 -13 -56.001 -24s-23 -26.333 -28 -46s-7.5 -45.167 -7.5 -76.5v-49h157
v-80h-157v-460h-92v460zM556.001 648.999c-20 0 -34.5 4.33301 -43.5 13s-13.5 22.667 -13.5 42s4.5 33.5 13.5 42.5s23.5 13.5 43.5 13.5c37.333 0 56 -18.667 56 -56c0 -36.667 -18.667 -55 -56 -55zM447.001 -200.001c12 24.667 22.168 49.1689 30.501 73.502
s15.166 49.666 20.499 75.999s9.33301 54.5 12 84.5s4 63.333 4 100v33v68v87v90.5c0 29 -0.166992 55 -0.5 78s-0.5 39.5 -0.5 49.5h91v-454c-2 -56.667 -10.5 -110.334 -25.5 -161.001s-36.5 -99 -64.5 -145z" />
    <glyph glyph-name="f_k" unicode="fk" horiz-adv-x="1016" 
d="M509 808h91v-499h103l191 231h105l-213 -253l-19 -8v-4l20 -9l228 -266h-104l-210 246h-101v-246h-91v808zM146 460l-129.999 -0.000976562v80h131v23c0 49.333 4 89.833 12 121.5s22.167 56.834 42.5 75.501s48 32 83 40s79.167 12.667 132.5 14l5 -67
c-38 -2.66699 -68.833 -6.5 -92.5 -11.5s-42.334 -13 -56.001 -24s-23 -26.333 -28 -46s-7.5 -45.167 -7.5 -76.5v-49h157v-80h-157v-460h-92v460z" />
    <glyph glyph-name="f_t" unicode="ft" horiz-adv-x="838" 
d="M147 460l-129.999 -0.000976562v80h131v23c0 49.333 4 89.833 12 121.5s22.167 56.834 42.5 75.501s48 32 83 40s79.167 12.667 132.5 14l5 -67c-38 -2.66699 -68.833 -6.5 -92.5 -11.5s-42.334 -13 -56.001 -24s-23 -26.333 -28 -46s-7.5 -45.167 -7.5 -76.5v-49h157
v-80h-157v-460h-92v460zM713.001 -10.001c-52.667 0 -92.667 13.1689 -120 39.502s-41 65.166 -41 116.499v314h-117v80h122l14 135l72 9v-144h169v-80h-168v-294c0 -34.667 7.66699 -60.334 23 -77.001s40 -25 74 -25c24 0 50 4.33301 78 13v-73
c-34 -9.33301 -69.333 -14 -106 -14z" />
    <glyph glyph-name=".notdef" horiz-adv-x="816" 
d="M98 1030h619v-1250h-619v1250zM637 -144v1099h-458v-1099h458z" />
    <glyph glyph-name="NULL" horiz-adv-x="0" 
 />
    <glyph glyph-name="NULL" horiz-adv-x="0" 
 />
    <glyph glyph-name="nonmarkingreturn" unicode="&#xd;" horiz-adv-x="298" 
 />
    <glyph glyph-name="space" unicode=" " horiz-adv-x="248" 
 />
    <glyph glyph-name="exclam" unicode="!" horiz-adv-x="267" 
d="M136 1c-16.667 0 -29.5 4.5 -38.5 13.5s-13.5 21.5 -13.5 37.5c0 33.333 17.333 50 52 50c16.667 0 29.5 -4.5 38.5 -13.5s13.5 -21.167 13.5 -36.5c0 -16 -4.5 -28.5 -13.5 -37.5s-21.833 -13.5 -38.5 -13.5zM104 198l-16 532v10h90v-10l-16 -532v-13h-58v13z" />
    <glyph glyph-name="quotedbl" unicode="&#x22;" horiz-adv-x="401" 
d="M153 808v-4l-33 -324h-48v328h81zM345 808v-4l-33 -324h-48v328h81z" />
    <glyph glyph-name="numbersign" unicode="#" horiz-adv-x="605" 
d="M358 221h-142l-18 -221h-68l18 221h-95v65h100l14 166h-114v66h119l18 222h68l-18 -222h142l19 222h68l-18 -222h100v-66h-105l-14 -166h119v-65h-124l-18 -221h-69zM221 286h142l14 166h-142z" />
    <glyph glyph-name="dollar" unicode="$" horiz-adv-x="617" 
d="M275 -11c-34 1.33301 -70.834 4.66699 -110.501 10s-78.5 12 -116.5 20v79c46 -10 90.167 -17.833 132.5 -23.5s79.5 -8.5 111.5 -8.5c62 0 109 10.5 141 31.5s48 51.167 48 90.5c0 24 -4.66699 44 -14 60s-22.166 29.167 -38.499 39.5s-35.333 18.833 -57 25.5
s-44.834 13 -69.501 19c-43.333 10 -80.333 21.5 -111 34.5s-55.667 28.167 -75 45.5s-33.333 37.5 -42 60.5s-13 49.5 -13 79.5c0 53.333 18 97.5 54 132.5s85.667 57.167 149 66.5v139h91v-135c51.333 -2 112.333 -10.333 183 -25v-79
c-32.667 9.33301 -66.834 16.333 -102.501 21s-68.167 7 -97.5 7c-56 0 -99.833 -11.333 -131.5 -34s-47.5 -53 -47.5 -91c0 -18.667 3 -35 9 -49s15.833 -26.667 29.5 -38s31.834 -21.5 54.501 -30.5s50.667 -17.5 84 -25.5c34 -8 65.667 -17.167 95 -27.5
s55 -23.5 77 -39.5s39.167 -36 51.5 -60s18.5 -53.667 18.5 -89c0 -58.667 -18.167 -105 -54.5 -139s-89.166 -55 -158.499 -63v-143h-90v139z" />
    <glyph glyph-name="percent" unicode="%" horiz-adv-x="1021" 
d="M234 277c-62.667 0 -110.167 19.833 -142.5 59.5s-48.5 98.834 -48.5 177.501s16.167 137.667 48.5 177s79.833 59 142.5 59s110 -19.667 142 -59s48 -98.333 48 -177s-16 -137.834 -48 -177.501s-79.333 -59.5 -142 -59.5zM234 342c40 0 69.833 14 89.5 42
s29.5 71.333 29.5 130s-9.83301 102 -29.5 130s-49.5 42 -89.5 42s-69.833 -14 -89.5 -42s-29.5 -71.333 -29.5 -130s9.83301 -102 29.5 -130s49.5 -42 89.5 -42zM788 -10c-62.667 0 -110.167 19.833 -142.5 59.5s-48.5 98.834 -48.5 177.501s16.167 137.667 48.5 177
s79.833 59 142.5 59c62 0 109.333 -19.667 142 -59s49 -98.333 49 -177s-16.333 -137.834 -49 -177.501s-80 -59.5 -142 -59.5zM788 54c40 0 69.833 14 89.5 42s29.5 71.667 29.5 131c0 58.667 -9.83301 102 -29.5 130s-49.5 42 -89.5 42s-69.833 -14 -89.5 -42
s-29.5 -71.333 -29.5 -130c0 -59.333 9.83301 -103 29.5 -131s49.5 -42 89.5 -42zM655 740h85l-373 -740h-85z" />
    <glyph glyph-name="ampersand" unicode="&#x26;" horiz-adv-x="774" 
d="M346 -11c-45.333 0 -86 5.00098 -122 15.001s-66.667 24.333 -92 43s-44.666 41.5 -57.999 68.5s-20 57.167 -20 90.5c0 46 12 85.667 36 119s59.333 58.666 106 75.999c-21.333 24 -36.333 48.5 -45 73.5s-13 52.5 -13 82.5c0 63.333 21.333 111.833 64 145.5
s104 50.5 184 50.5c29.333 0 59.666 -2.83301 90.999 -8.5s66 -14.5 104 -26.5l1 -6l-16 -60h-8c-32 11.333 -61.333 19.666 -88 24.999s-52 8 -76 8c-108 0 -162 -44.333 -162 -133c0 -22.667 4.16699 -44.167 12.5 -64.5s21.833 -40.166 40.5 -59.499
s42.667 -38.833 72 -58.5s65 -40.5 107 -62.5l125 -66c6 30 9 63.667 9 101v78h86v-77c0 -54 -6 -101.333 -18 -142l90 -47v-9l-37 -61h-9l-77 42c-54 -91.333 -149.667 -137 -287 -137zM419 243.001c-36 19.333 -67.8311 37.666 -95.498 54.999s-51.834 34.333 -72.501 51
c-68 -28.667 -102 -75 -102 -139c0 -47.333 18 -84.666 54 -111.999s85.333 -41 148 -41c103.333 0 173.666 35.667 210.999 107z" />
    <glyph glyph-name="quotesingle" unicode="'" horiz-adv-x="209" 
d="M153 808v-4l-33 -324h-48v328h81z" />
    <glyph glyph-name="parenleft" unicode="(" horiz-adv-x="309" 
d="M205 -160c-51.333 74 -90.333 154.834 -117 242.501s-40 178.167 -40 271.5s13.333 183.833 40 271.5s65.667 168.5 117 242.5h83v-4c-52 -72.667 -92 -152.5 -120 -239.5s-42 -177.167 -42 -270.5c0 -94 14 -184.333 42 -271s68 -166.334 120 -239.001v-4h-83v0z" />
    <glyph glyph-name="parenright" unicode=")" horiz-adv-x="308" 
d="M20 -160v3.99902c52 72.667 92 152.334 120 239.001s42 177 42 271c0 93.333 -14 183.5 -42 270.5s-68 166.833 -120 239.5v4h83c51.333 -74 90.166 -154.833 116.499 -242.5s39.5 -178.167 39.5 -271.5s-13.167 -183.833 -39.5 -271.5s-65.166 -168.5 -116.499 -242.5
h-83z" />
    <glyph glyph-name="asterisk" unicode="*" horiz-adv-x="502" 
d="M108 478l47 66l75 75l-105 16l-76 24l18 56l77 -24l94 -48l-16 106v80h59v-80l-17 -106l94 48l77 24l18 -56l-76 -24l-104 -16l74 -75l48 -66l-48 -34l-47 65l-49 97l-49 -97l-47 -65z" />
    <glyph glyph-name="plus" unicode="+" horiz-adv-x="494" 
d="M49 402h166v169h64v-169h167v-64h-167v-169h-64v169h-166v64z" />
    <glyph glyph-name="comma" unicode="," horiz-adv-x="246" 
d="M37 -145l45 251h95l-69 -261z" />
    <glyph glyph-name="hyphen" unicode="-" horiz-adv-x="501" 
d="M71 318h359v-76h-359v76z" />
    <glyph glyph-name="period" unicode="." horiz-adv-x="248" 
d="M124 -4c-18 0 -32.333 4.83301 -43 14.5s-16 23.834 -16 42.501s5.33301 32.5 16 41.5s25 13.5 43 13.5s32.333 -4.66699 43 -14s16 -23 16 -41c0 -18.667 -5.33301 -32.834 -16 -42.501s-25 -14.5 -43 -14.5z" />
    <glyph glyph-name="slash" unicode="/" horiz-adv-x="420" 
d="M306 740h82l-274 -860h-82z" />
    <glyph glyph-name="zero" unicode="0" horiz-adv-x="703" 
d="M352 -11c-95.333 0 -168.166 31.833 -218.499 95.5s-75.5 158.5 -75.5 284.5c0 126.667 25.167 221.834 75.5 285.501s123.166 95.5 218.499 95.5s168 -31.833 218 -95.5s75 -158.834 75 -285.501c0 -126 -25 -220.833 -75 -284.5s-122.667 -95.5 -218 -95.5zM352 66
c66.667 0 116.667 24.667 150 74s50 125.666 50 228.999c0 104 -16.667 180.5 -50 229.5s-83.333 73.5 -150 73.5c-68 0 -118.667 -24.5 -152 -73.5s-50 -125.5 -50 -229.5c0 -103.333 16.667 -179.666 50 -228.999s84 -74 152 -74z" />
    <glyph glyph-name="one" unicode="1" horiz-adv-x="429" 
d="M234 634h-4l-188 -85h-7l-11 58v4l232 129h71v-740h-93v634z" />
    <glyph glyph-name="two" unicode="2" horiz-adv-x="589" 
d="M49 99c0 33.333 5.00098 62.9961 15.001 88.9961s24.833 49.5 44.5 70.5s43.667 40.667 72 59s60.5 36.833 96.5 55.5c55.333 28 95.5 54.5 120.5 79.5s37.5 54.5 37.5 88.5c0 43.333 -13 75.333 -39 96s-66 31 -120 31c-30 0 -61.833 -2.5 -95.5 -7.5
s-66.5 -11.5 -98.5 -19.5l-10 81c44 9.33301 83.333 16 118 20s68 6 100 6c80.667 0 140.5 -16.667 179.5 -50s58.5 -83.666 58.5 -150.999c0 -27.333 -3.83301 -51.666 -11.5 -72.999s-19.334 -41.166 -35.001 -59.499s-35.5 -35.666 -59.5 -51.999s-52 -32.833 -84 -49.5
c-62.667 -33.333 -110.167 -64.5 -142.5 -93.5s-48.5 -61.167 -48.5 -96.5v-45h384v-76h-482v97z" />
    <glyph glyph-name="three" unicode="3" horiz-adv-x="564" 
d="M226 -11c-28.667 0 -58.335 1.3291 -89.002 3.99609s-56.667 6.33398 -78 11.001v74h4c8.66699 -2 19.334 -3.83301 32.001 -5.5s26 -3.16699 40 -4.5s27.833 -2.33301 41.5 -3s25.834 -1 36.501 -1c68 0 118 12.333 150 37s48 61.334 48 110.001
c0 44 -14.5 76.333 -43.5 97s-75.833 31 -140.5 31h-81v72h80c58 0 100 10.667 126 32s39 54 39 98c0 44.667 -13.833 78 -41.5 100s-71.5 33 -131.5 33c-18 0 -40.833 -1.33301 -68.5 -4s-56.5 -6 -86.5 -10h-4v74c12 2 25.167 4 39.5 6s29 3.83301 44 5.5
s29.833 2.83398 44.5 3.50098s28.667 1 42 1c84 0 148.167 -17.333 192.5 -52s66.5 -85 66.5 -151c0 -42 -10.333 -77.167 -31 -105.5s-50 -48.166 -88 -59.499v-6c44 -9.33301 78.167 -29 102.5 -59s36.5 -67.667 36.5 -113c0 -70.667 -24 -124.167 -72 -160.5
s-118 -54.5 -210 -54.5z" />
    <glyph glyph-name="four" unicode="4" horiz-adv-x="642" 
d="M25 227v7l249 516h4l86 -13l3 -10l-241 -475v-4h274l26 238h63v-238h123v-76h-123v-172h-91v172h-355z" />
    <glyph glyph-name="five" unicode="5" horiz-adv-x="572" 
d="M226 -11c-27.333 0 -55.499 1.33105 -84.499 3.99805s-57.833 6.33398 -86.5 11.001v74h18c25.333 -4.66699 49.666 -8.16699 72.999 -10.5s46.333 -3.5 69 -3.5c71.333 0 124.5 11.5 159.5 34.5s52.5 63.833 52.5 122.5c0 25.333 -5 46.333 -15 63
s-25.667 30.167 -47 40.5s-48.5 17.833 -81.5 22.5s-72.167 7.33398 -117.5 8.00098l-82 2l-10 10l28 373h388v-76h-316l-16 -230c62.667 -0.666992 117 -4.66699 163 -12s84 -19.333 114 -36s52.333 -38.667 67 -66s22 -61.333 22 -102
c0 -42.667 -7.33301 -78.667 -22 -108s-35 -53 -61 -71s-57.333 -30.833 -94 -38.5s-77 -11.5 -121 -11.5z" />
    <glyph glyph-name="six" unicode="6" horiz-adv-x="656" 
d="M343 -11c-94 0 -165.169 28.1699 -213.502 84.5029s-72.5 141.166 -72.5 254.499c0 67.333 8 127.333 24 180s39.5 97 70.5 133s69.167 63.333 114.5 82s97.333 28 156 28c22 0 44.333 -1.33301 67 -4s47.334 -7 74.001 -13l-8 -72c-25.333 6 -48.166 10.333 -68.499 13
s-41.166 4 -62.499 4c-82.667 0 -146.667 -25.333 -192 -76s-71.666 -124.667 -78.999 -222c29.333 23.333 62.166 41.5 98.499 54.5s72.833 19.5 109.5 19.5c38.667 0 73.667 -5 105 -15s58 -24.333 80 -43s38.833 -41.5 50.5 -68.5s17.5 -57.167 17.5 -90.5
c0 -38 -6.5 -72.333 -19.5 -103s-31.167 -56.834 -54.5 -78.501s-51.833 -38.334 -85.5 -50.001s-70.834 -17.5 -111.501 -17.5zM342.998 390.003c-33.333 0 -67.332 -7 -101.999 -21s-64.667 -32.333 -90 -55c1.33301 -87.333 17.666 -151.666 48.999 -192.999
s79 -62 143 -62c54 0 96.5 16 127.5 48s46.5 75.333 46.5 130c0 49.333 -15 87.166 -45 113.499s-73 39.5 -129 39.5z" />
    <glyph glyph-name="seven" unicode="7" horiz-adv-x="530" 
d="M204 -15l-78 15v14l283 644h-377l-7 74l6 8h461l18 -49v-23l-282 -669z" />
    <glyph glyph-name="eight" unicode="8" horiz-adv-x="656" 
d="M329 -6c-90.667 0 -158.999 16.3301 -204.999 48.9971s-69 82.334 -69 149.001c0 28.667 4.33301 53.834 13 75.501s19.667 40.334 33 56.001s28 28.667 44 39s31 18.833 45 25.5c-16 8 -30.667 17 -44 27s-24.833 22 -34.5 36s-17.334 30 -23.001 48
s-8.5 38.667 -8.5 62c0 31.333 6.33301 58.833 19 82.5s30.167 43.334 52.5 59.001s49 27.5 80 35.5s65.167 12 102.5 12c36 0 68.833 -4 98.5 -12s55 -19.833 76 -35.5s37.333 -35.334 49 -59.001s17.5 -51.5 17.5 -83.5c0 -26 -3.66699 -48.833 -11 -68.5
s-16.666 -36.834 -27.999 -51.501s-24 -27.167 -38 -37.5s-28 -19.166 -42 -26.499c20 -7.33301 38.833 -16 56.5 -26s33.167 -22.167 46.5 -36.5s23.833 -31.166 31.5 -50.499s11.5 -42 11.5 -68c0 -64.667 -23.333 -114.334 -70 -149.001s-114.334 -52 -203.001 -52z
M322.001 342.997l-28.998 8c-10 2.66699 -19.667 5.66699 -29 9c-9.33301 -4 -20.833 -9.66699 -34.5 -17s-26.834 -17.333 -39.501 -30s-23.5 -28.167 -32.5 -46.5s-13.5 -40.5 -13.5 -66.5c0 -47.333 16.833 -81.833 50.5 -103.5s78.5 -32.5 134.5 -32.5
c55.333 0 99.833 10.833 133.5 32.5s50.5 53.5 50.5 95.5c0 24.667 -5.33301 45.167 -16 61.5s-24.834 30 -42.501 41s-38 20.167 -61 27.5s-46.833 14.333 -71.5 21zM363.003 404.997c3.33301 -1.33301 6.50195 -2.33203 9.50195 -2.99902s6.16699 -1.33398 9.5 -2.00098
c9.33301 4.66699 20.166 11.167 32.499 19.5s24.166 18.666 35.499 30.999s21 27 29 44s12 36.833 12 59.5c0 21.333 -4 40 -12 56s-19.333 29.167 -34 39.5s-31.834 18 -51.501 23s-41.167 7.5 -64.5 7.5s-45 -2.5 -65 -7.5s-37.333 -12.5 -52 -22.5
s-26.167 -22.833 -34.5 -38.5s-12.5 -33.834 -12.5 -54.501c0 -24.667 5.5 -45.167 16.5 -61.5s25.833 -30.166 44.5 -41.499s39.834 -20.666 63.501 -27.999s48.167 -14.333 73.5 -21z" />
    <glyph glyph-name="nine" unicode="9" horiz-adv-x="657" 
d="M314 751c94 0 165.172 -28.1699 213.505 -84.5029s72.5 -141.166 72.5 -254.499c0 -67.333 -8 -127.333 -24 -180s-39.5 -97 -70.5 -133s-69.167 -63.333 -114.5 -82s-97.333 -28 -156 -28c-22 0 -44.333 1.33301 -67 4s-47.334 7 -74.001 13l8 72
c25.333 -6 48.166 -10.333 68.499 -13s41.166 -4 62.499 -4c82.667 0 146.667 25.333 192 76s71.666 124.667 78.999 222c-29.333 -23.333 -62.166 -41.5 -98.499 -54.5s-72.833 -19.5 -109.5 -19.5c-38.667 0 -73.667 5 -105 15s-58 24.333 -80 43s-38.833 41.5 -50.5 68.5
s-17.5 57.167 -17.5 90.5c0 38 6.5 72.333 19.5 103s31.167 56.834 54.5 78.501s51.666 38.334 84.999 50.001s70.666 17.5 111.999 17.5zM314.005 349.997c33.333 0 67.332 7 101.999 21s64.667 32.333 90 55c-1.33301 87.333 -17.666 151.666 -48.999 192.999
s-79 62 -143 62c-54 0 -96.5 -16 -127.5 -48s-46.5 -75.333 -46.5 -130c0 -49.333 15 -87.166 45 -113.499s73 -39.5 129 -39.5z" />
    <glyph glyph-name="colon" unicode=":" horiz-adv-x="256" 
d="M128 -4c-18 0 -32.333 4.83301 -43 14.5s-16 23.834 -16 42.501s5.33301 32.5 16 41.5s25 13.5 43 13.5s32.333 -4.66699 43 -14s16 -23 16 -41c0 -18.667 -5.33301 -32.834 -16 -42.501s-25 -14.5 -43 -14.5zM128 432c-18 0 -32.333 4.83301 -43 14.5
s-16 23.834 -16 42.501s5.33301 32.5 16 41.5s25 13.5 43 13.5s32.333 -4.66699 43 -14s16 -23 16 -41c0 -18.667 -5.33301 -32.834 -16 -42.501s-25 -14.5 -43 -14.5z" />
    <glyph glyph-name="semicolon" unicode=";" horiz-adv-x="283" 
d="M59 -145l45 251h95l-69 -261zM147 432c-18 0 -32.333 4.83301 -43 14.5s-16 23.834 -16 42.501s5.33301 32.5 16 41.5s25 13.5 43 13.5s32.333 -4.66699 43 -14s16 -23 16 -41c0 -18.667 -5.33301 -32.834 -16 -42.501s-25 -14.5 -43 -14.5z" />
    <glyph glyph-name="less" unicode="&#x3c;" horiz-adv-x="522" 
d="M47 336v60l401 177v-71l-313 -137l311 -136v-70z" />
    <glyph glyph-name="equal" unicode="=" horiz-adv-x="535" 
d="M74 281h388v-66h-388v66zM74 495h388v-65h-388v65z" />
    <glyph glyph-name="greater" unicode="&#x3e;" horiz-adv-x="523" 
d="M77 229l310 136l-312 137v71l401 -177v-60l-399 -177v70z" />
    <glyph glyph-name="question" unicode="?" horiz-adv-x="468" 
d="M158 199l-5.99902 188.999c21.333 4.66699 43.5 10.667 66.5 18s43.833 17 62.5 29s34 27 46 45s18 40 18 66c0 24.667 -4.16699 45.334 -12.5 62.001s-19.5 30 -33.5 40s-29.833 17.167 -47.5 21.5s-35.834 6.5 -54.501 6.5c-26.667 0 -52.834 -2.33301 -78.501 -7
s-50.5 -10 -74.5 -16l-10 71c27.333 7.33301 55.666 13.5 84.999 18.5s60 7.5 92 7.5c28.667 0 56.334 -3.5 83.001 -10.5s50 -18.167 70 -33.5s36 -35.5 48 -60.5s18 -55.5 18 -91.5c0 -34 -6.16699 -63 -18.5 -87s-28.166 -44.333 -47.499 -61s-41 -30 -65 -40
s-47.667 -18 -71 -24l-2 -143v-18h-68v18zM194.001 -2.00098c-16.667 0 -29.5 4.5 -38.5 13.5s-13.5 21.5 -13.5 37.5c0 33.333 17.333 50 52 50s52 -16.667 52 -50c0 -16 -4.5 -28.5 -13.5 -37.5s-21.833 -13.5 -38.5 -13.5z" />
    <glyph glyph-name="at" unicode="@" horiz-adv-x="920" 
d="M446 -134c-60.667 0 -115.336 9 -164.003 27s-90 44 -124 78s-60 75.333 -78 124s-27 103.667 -27 165c0 64 9.66699 121.5 29 172.5s47.166 94.333 83.499 130s80.666 63 132.999 82s111.166 28.5 176.499 28.5c60.667 0 114.834 -8.16699 162.501 -24.5
s87.834 -40.333 120.501 -72s57.667 -70.334 75 -116.001s26 -97.5 26 -155.5c0 -81.333 -16.167 -143.666 -48.5 -186.999s-78.833 -65 -139.5 -65c-19.333 0 -36 2.5 -50 7.5s-25.667 11.833 -35 20.5s-16.333 18.167 -21 28.5s-7.66699 21.166 -9 32.499h-5
c-9.33301 -12 -20.333 -23.167 -33 -33.5s-26.667 -19.333 -42 -27s-31.166 -13.5 -47.499 -17.5s-32.5 -6 -48.5 -6c-43.333 0 -77.666 14.833 -102.999 44.5s-38 72.834 -38 129.501c0 38 6.16699 72.833 18.5 104.5s29.833 59 52.5 82s49.834 41 81.501 54
s66.834 19.5 105.501 19.5c22.667 0 46.834 -2.83301 72.501 -8.5s52.167 -13.5 79.5 -23.5l-40 -210c-2 -13.333 -4 -25.666 -6 -36.999s-3 -21.666 -3 -30.999c0 -24.667 5.83301 -42.834 17.5 -54.501s30.167 -17.5 55.5 -17.5c39.333 0 69.5 16.667 90.5 50
s31.5 81.666 31.5 144.999c0 99.333 -27.5 175.333 -82.5 228s-134.167 79 -237.5 79c-55.333 0 -105.166 -8 -149.499 -24s-82 -39.167 -113 -69.5s-54.833 -67.333 -71.5 -111s-25 -92.834 -25 -147.501c0 -52 7.5 -98.5 22.5 -139.5s36.667 -75.833 65 -104.5
s63 -50.5 104 -65.5s87.167 -22.5 138.5 -22.5c59.333 0 127.666 11 204.999 33l20 -59c-42.667 -11.333 -82.834 -20.166 -120.501 -26.499s-72.5 -9.5 -104.5 -9.5zM390.998 114c19.333 0 37.833 3.66602 55.5 10.999s33.667 17.5 48 30.5s26.5 28.333 36.5 46
s17 37.167 21 58.5l30 164c-34 9.33301 -62 14 -84 14c-28.667 0 -55 -5.16699 -79 -15.5s-44.667 -24.666 -62 -42.999s-30.833 -40 -40.5 -65s-14.5 -52.5 -14.5 -82.5c0 -38 7.66699 -67.167 23 -87.5s37.333 -30.5 66 -30.5z" />
    <glyph glyph-name="A" unicode="A" horiz-adv-x="723" 
d="M7 7l283 733h143l283 -733v-7h-93l-84 217h-355l-84 -217h-93v7zM512 297l-94 243l-52 136h-9l-51 -136l-95 -243h301z" />
    <glyph glyph-name="B" unicode="B" horiz-adv-x="701" 
d="M351 -10c-40 0 -80.666 1.16602 -121.999 3.49902s-86.333 6.16602 -135 11.499v730c50 4.66699 94 8.16699 132 10.5s75 3.5 111 3.5c51.333 0 95.333 -3.83301 132 -11.5s66.667 -19.5 90 -35.5s40.333 -36.667 51 -62s16 -55.666 16 -90.999
c0 -44 -11.667 -81.167 -35 -111.5s-55.333 -49.833 -96 -58.5v-4c51.333 -10 90.166 -30.167 116.499 -60.5s39.5 -70.166 39.5 -119.499c0 -136.667 -100 -205 -300 -205zM346.001 60.999c72.667 0 126.168 11.5 160.501 34.5s51.5 58.5 51.5 106.5
c0 93.333 -63.333 140 -190 140h-184v-271c17.333 -3.33301 38.666 -5.83301 63.999 -7.5s58 -2.5 98 -2.5zM361.002 408.999c62 0 106.333 10.3311 133 30.998s40 55.334 40 104.001s-14.667 83.167 -44 103.5s-79.333 30.5 -150 30.5c-33.333 0 -62.5 -0.666992 -87.5 -2
s-47.833 -3.66602 -68.5 -6.99902v-260h177z" />
    <glyph glyph-name="C" unicode="C" horiz-adv-x="622" 
d="M400 -9c-114.667 0 -200.998 31.666 -258.998 94.999s-87 157.333 -87 282c0 126.667 29 222.167 87 286.5s144 96.5 258 96.5c24.667 0 53.167 -1.83301 85.5 -5.5s64.5 -8.5 96.5 -14.5v-79c-38.667 6.66699 -71.834 11.5 -99.501 14.5s-52.167 4.5 -73.5 4.5
c-88 0 -153.167 -24.833 -195.5 -74.5s-63.5 -125.5 -63.5 -227.5c0 -101.333 20.5 -176.5 61.5 -225.5s104.167 -73.5 189.5 -73.5c12 0 26.167 0.666992 42.5 2s33 3 50 5s33.333 4.33301 49 7s28.834 5.33398 39.501 8.00098v-78
c-12.667 -3.33301 -26.834 -6.33301 -42.501 -9s-31.667 -5 -48 -7s-32.333 -3.66699 -48 -5s-29.834 -2 -42.501 -2z" />
    <glyph glyph-name="D" unicode="D" horiz-adv-x="777" 
d="M302 -9c-22.667 0 -44.6689 0.333008 -66.002 1s-41.166 1.66699 -59.499 3s-34.666 3 -48.999 5s-25.5 4.33301 -33.5 7v732c17.333 1.33301 36.333 2.5 57 3.5l61.5 3c20.333 1 39.833 1.83301 58.5 2.5s34.667 1 48 1c138.667 0 240.5 -30.5 305.5 -91.5
s97.5 -156.833 97.5 -287.5c0 -66 -8.16699 -122.833 -24.5 -170.5s-41.5 -87 -75.5 -118s-77.5 -53.833 -130.5 -68.5s-116.167 -22 -189.5 -22zM330.998 68c103.333 0 178.502 23.999 225.502 71.999s70.5 124.667 70.5 230c0 104.667 -23.667 180.834 -71 228.501
s-123 71.5 -227 71.5c-18.667 0 -41.334 -0.666992 -68.001 -2s-51.334 -3 -74.001 -5v-584c27.333 -4 51.5 -6.83301 72.5 -8.5s44.833 -2.5 71.5 -2.5z" />
    <glyph glyph-name="E" unicode="E" horiz-adv-x="654" 
d="M94 740h497v-76h-404v-250h381v-77h-381v-261h413v-76h-506v740z" />
    <glyph glyph-name="F" unicode="F" horiz-adv-x="627" 
d="M94 740h497v-76h-404v-259h366v-77h-366v-328h-93v740z" />
    <glyph glyph-name="G" unicode="G" horiz-adv-x="698" 
d="M410 -9c-118 0 -206.833 31.666 -266.5 94.999s-89.5 157.333 -89.5 282c0 126 30.667 221.333 92 286s152.666 97 273.999 97c32.667 0 66 -2.16699 100 -6.5s68 -11.166 102 -20.499v-79c-22 4.66699 -42 8.66699 -60 12s-34.667 6 -50 8s-30 3.5 -44 4.5
s-28 1.5 -42 1.5c-94.667 0 -164.5 -24.833 -209.5 -74.5s-67.5 -125.5 -67.5 -227.5c0 -101.333 21.333 -176.5 64 -225.5s108.334 -73.5 197.001 -73.5c17.333 0 38.333 1.33301 63 4s47.667 5.66699 69 9v293h88v-348c-16 -5.33301 -33.667 -10.333 -53 -15
s-38.833 -8.66699 -58.5 -12s-39 -5.83301 -58 -7.5s-35.833 -2.5 -50.5 -2.5z" />
    <glyph glyph-name="H" unicode="H" horiz-adv-x="815" 
d="M94 740h93v-322h440v322h93v-740h-93v342h-440v-342h-93v740z" />
    <glyph glyph-name="I" unicode="I" horiz-adv-x="282" 
d="M94 740h93v-740h-93v740z" />
    <glyph glyph-name="J" unicode="J" horiz-adv-x="281" 
d="M18 -160c14.667 31.333 26.999 60.668 36.999 88.001s18 54.5 24 81.5s10.333 54.833 13 83.5s4 60 4 94v553h93v-559c0 -34 -1.66699 -65.167 -5 -93.5s-9.16602 -56.833 -17.499 -85.5s-19.333 -58.334 -33 -89.001s-30.5 -65 -50.5 -103z" />
    <glyph glyph-name="K" unicode="K" horiz-adv-x="703" 
d="M94 740h93v-325h161l226 325h106l-234 -329l-34 -25v-7l37 -25l248 -354h-106l-233 338h-171v-338h-93v740z" />
    <glyph glyph-name="L" unicode="L" horiz-adv-x="569" 
d="M94 740h93v-665h368v-75h-461v740z" />
    <glyph glyph-name="M" unicode="M" horiz-adv-x="975" 
d="M94 740h128l190 -433l72 -178h7l72 178l189 433h129v-740h-85v630h-7l-98 -242l-162 -359h-83l-161 359l-100 242h-6v-630h-85v740z" />
    <glyph glyph-name="N" unicode="N" horiz-adv-x="823" 
d="M94 740h79l402 -514l63 -90h7v604h84v-740h-79l-404 515l-62 87h-6v-602h-84v740z" />
    <glyph glyph-name="O" unicode="O" horiz-adv-x="792" 
d="M396 -10c-109.333 0 -193.666 32.167 -252.999 96.5s-89 158.5 -89 282.5s29.667 218.5 89 283.5s143.666 97.5 252.999 97.5c108.667 0 192.667 -32.5 252 -97.5s89 -159.5 89 -283.5s-29.667 -218.167 -89 -282.5s-143.333 -96.5 -252 -96.5zM396 68
c164 0 245.999 100.334 245.999 301.001c0 101.333 -20.667 177.166 -62 227.499s-102.666 75.5 -183.999 75.5c-164.667 0 -247 -101 -247 -303c0 -200.667 82.333 -301 247 -301z" />
    <glyph glyph-name="P" unicode="P" horiz-adv-x="684" 
d="M94 735c68.667 10 133.667 14.999 195 14.999c124.667 0 215.667 -20.5 273 -61.5s86 -106.5 86 -196.5c0 -89.333 -28.167 -154.666 -84.5 -195.999s-144.833 -62 -265.5 -62c-16 0 -33 0.333008 -51 1s-38 2 -60 4v-239h-93v735zM310 310.999
c44.667 0 82.3359 3.16602 113.003 9.49902s55.667 16.833 75 31.5s33.333 33.334 42 56.001s13 50.667 13 84c0 32 -4.5 59.5 -13.5 82.5s-23.333 41.833 -43 56.5s-45.167 25.5 -76.5 32.5s-69.333 10.5 -114 10.5c-20.667 0 -42 -0.833008 -64 -2.5
s-40.333 -3.5 -55 -5.5v-345c5.33301 -1.33301 12.666 -2.5 21.999 -3.5s19.666 -2 30.999 -3s23.166 -1.83301 35.499 -2.5s23.833 -1 34.5 -1z" />
    <glyph glyph-name="Q" unicode="Q" horiz-adv-x="789" 
d="M706 -124c-126 20.667 -230.999 44.335 -314.999 71.002s-151.167 59.167 -201.5 97.5s-86 83.666 -107 135.999s-31.5 115.166 -31.5 188.499c0 60 7.66699 113.667 23 161s37.666 87.333 66.999 120s65.333 57.5 108 74.5s91 25.5 145 25.5s102.333 -8.5 145 -25.5
s78.5 -41.833 107.5 -74.5s51.167 -72.667 66.5 -120s23 -101 23 -161c0 -58 -7.33301 -109.5 -22 -154.5s-36 -82.833 -64 -113.5s-62.167 -53.5 -102.5 -68.5s-86.166 -21.5 -137.499 -19.5v-7c34.667 -7.33301 65.667 -13.5 93 -18.5s52.666 -9.33301 75.999 -13
s46 -6.66699 68 -9s45.667 -4.5 71 -6.5zM394.001 68.001c80.667 0 142 25.667 184 77s63 126 63 224c0 99.333 -20.833 174.666 -62.5 225.999s-103.167 77 -184.5 77c-80.667 0 -142.167 -25.667 -184.5 -77s-63.5 -126.666 -63.5 -225.999
c0 -98 21.167 -172.667 63.5 -224s103.833 -77 184.5 -77z" />
    <glyph glyph-name="R" unicode="R" horiz-adv-x="705" 
d="M391 275c-14.667 -1.33301 -29.666 -2.33301 -44.999 -3s-31.333 -1 -48 -1c-14.667 0 -31.834 0.666992 -51.501 2s-39.5 3 -59.5 5v-278h-93v735c68 10 133 15 195 15c125.333 0 216.5 -19 273.5 -57s85.5 -98.667 85.5 -182c0 -58.667 -13.667 -106 -41 -142
s-70 -62 -128 -78l197 -291h-105zM310.001 348c44 0 81.499 2.83203 112.499 8.49902s56.167 15 75.5 28s33.333 29.833 42 50.5s13 46 13 76c0 28.667 -4.5 53.334 -13.5 74.001s-23.5 37.5 -43.5 50.5s-45.667 22.667 -77 29s-69 9.5 -113 9.5
c-20 0 -41.167 -0.833008 -63.5 -2.5s-40.833 -3.5 -55.5 -5.5v-308c8.66699 -2.66699 24.834 -5 48.501 -7s48.5 -3 74.5 -3z" />
    <glyph glyph-name="S" unicode="S" horiz-adv-x="616" 
d="M294 -11c-34.667 0 -74.167 2.66699 -118.5 8s-87.5 12.666 -129.5 21.999v79c46 -10 90.167 -17.833 132.5 -23.5s79.5 -8.5 111.5 -8.5c62 0 109 10.5 141 31.5s48 51.167 48 90.5c0 24 -4.66699 44 -14 60s-22.166 29.167 -38.499 39.5s-35.333 18.833 -57 25.5
s-44.834 13 -69.501 19c-43.333 10 -80.333 21.5 -111 34.5s-55.667 28.167 -75 45.5s-33.333 37.5 -42 60.5s-13 49.5 -13 79.5c0 30.667 6.33301 58.667 19 84s30.667 46.833 54 64.5s51.5 31.334 84.5 41.001s70.167 14.5 111.5 14.5c29.333 0 60.833 -2 94.5 -6
s71.5 -10.667 113.5 -20v-79c-32.667 9.33301 -66.834 16.333 -102.501 21s-68.167 7 -97.5 7c-56 0 -99.833 -11.333 -131.5 -34s-47.5 -53 -47.5 -91c0 -18.667 3 -35 9 -49s15.833 -26.667 29.5 -38s31.834 -21.5 54.501 -30.5s50.667 -17.5 84 -25.5
c34 -8 65.667 -17.167 95 -27.5s55 -23.5 77 -39.5s39.167 -36 51.5 -60s18.5 -53.667 18.5 -89c0 -67.333 -24 -118.5 -72 -153.5s-118 -52.5 -210 -52.5z" />
    <glyph glyph-name="T" unicode="T" horiz-adv-x="641" 
d="M273 664h-255v76h606v-76h-257v-664h-94v664z" />
    <glyph glyph-name="U" unicode="U" horiz-adv-x="797" 
d="M399 -10c-55.333 0 -102.668 6 -142.001 18s-71.666 30.667 -96.999 56s-44 57.666 -56 96.999s-18 86.666 -18 141.999v437h93v-436c0 -42.667 4.66699 -78.834 14 -108.501s23.166 -54 41.499 -73s41.333 -32.833 69 -41.5s59.5 -13 95.5 -13s67.667 4.33301 95 13
s50 22.5 68 41.5s31.667 43.333 41 73s14 65.834 14 108.501v436h94v-437c0 -55.333 -6 -102.666 -18 -141.999s-30.667 -71.666 -56 -96.999s-57.666 -44 -96.999 -56s-86.333 -18 -141 -18z" />
    <glyph glyph-name="V" unicode="V" horiz-adv-x="717" 
d="M9 740h99l193 -502l54 -147h9l54 147l193 502h98l-287 -740h-126z" />
    <glyph glyph-name="W" unicode="W" horiz-adv-x="1063" 
d="M21 740h97l137 -501l37 -146h7l39 146l145 501h97l144 -501l41 -146h7l37 146l136 501h98l-210 -740h-127l-139 478l-32 140h-6l-32 -141l-139 -477h-128z" />
    <glyph glyph-name="X" unicode="X" horiz-adv-x="707" 
d="M293 384l-272 356h107l204 -273l17 -28h10l16 28l205 273h107l-276 -362l294 -378h-107l-224 298l-15 25h-10l-14 -25l-224 -298h-108z" />
    <glyph glyph-name="Y" unicode="Y" horiz-adv-x="664" 
d="M286 247l-282 493h100l191 -338l32 -69h10l32 69l190 338h100l-280 -491v-249h-93v247z" />
    <glyph glyph-name="Z" unicode="Z" horiz-adv-x="622" 
d="M35 67l422 589v5h-408v79h525v-64l-421 -592v-5h433v-79h-551v67z" />
    <glyph glyph-name="bracketleft" unicode="[" horiz-adv-x="334" 
d="M93 868h207v-67h-131v-894h131v-67h-207v1028z" />
    <glyph glyph-name="backslash" unicode="\" horiz-adv-x="420" 
d="M32 740h81l274 -860h-81z" />
    <glyph glyph-name="bracketright" unicode="]" horiz-adv-x="333" 
d="M34 -160v67h131v894h-131v67h206v-1028h-206z" />
    <glyph glyph-name="asciicircum" unicode="^" horiz-adv-x="515" 
d="M218 789h79l170 -308h-69l-138 239h-4l-137 -239h-71z" />
    <glyph glyph-name="underscore" unicode="_" horiz-adv-x="623" 
d="M57 -59h510v-76h-510v76z" />
    <glyph glyph-name="grave" unicode="`" horiz-adv-x="269" 
d="M139 616l-101 192h101l70 -182z" />
    <glyph glyph-name="a" unicode="a" horiz-adv-x="561" 
d="M192 -5c-99.333 0 -148.997 47.334 -148.997 142.001c0 52.667 16.667 92.667 50 120s87 44 161 50l140 11v33c0 24 -2.16699 43.833 -6.5 59.5s-11.833 28.167 -22.5 37.5s-25.334 16 -44.001 20s-42.334 6 -71.001 6c-24.667 0 -50.334 -1.33301 -77.001 -4
s-57 -7.33398 -91 -14.001l-7 70c38 7.33301 72.167 12.333 102.5 15s61.5 4 93.5 4c73.333 0 127.5 -14.5 162.5 -43.5s52.5 -74.167 52.5 -135.5v-366h-75l-10 69h-6c-72 -49.333 -139.667 -74 -203 -74zM226.003 65.001c25.333 0 52.168 5.16602 80.501 15.499
s57.5 25.5 87.5 45.5v135l-112 -10c-27.333 -2.66699 -50.333 -6.33398 -69 -11.001s-33.667 -11.167 -45 -19.5s-19.5 -18.666 -24.5 -30.999s-7.5 -27.166 -7.5 -44.499c0 -28 7.16699 -48.333 21.5 -61s37.166 -19 68.499 -19z" />
    <glyph glyph-name="b" unicode="b" horiz-adv-x="643" 
d="M313 -11c-33.333 0 -68.832 1.50293 -106.499 4.50293s-80.167 8.5 -127.5 16.5v798h92v-330c44 48 104.667 72 182 72s136.666 -22.333 177.999 -67s62 -114.334 62 -209.001c0 -48.667 -6.83301 -90.834 -20.5 -126.501s-32.834 -65.334 -57.501 -89.001
s-54.167 -41.167 -88.5 -52.5s-72.166 -17 -113.499 -17zM311.001 59.0029c63.333 0 110.666 15.832 141.999 47.499s47 85.834 47 162.501c0 74.667 -13.333 127.667 -40 159s-69 47 -127 47c-21.333 0 -41.666 -2.66699 -60.999 -8s-36.5 -13 -51.5 -23s-27 -22 -36 -36
s-13.5 -29.667 -13.5 -47v-292c17.333 -2.66699 38 -5 62 -7s50 -3 78 -3z" />
    <glyph glyph-name="c" unicode="c" horiz-adv-x="506" 
d="M319 -9c-179.333 0 -269 92.6689 -269 278.002c0 186.667 89.667 280 269 280c23.333 0 47.833 -1.33301 73.5 -4s48.167 -6.33398 67.5 -11.001v-77c-43.333 9.33301 -87 14 -131 14c-124.667 0 -187 -67 -187 -201c0 -70.667 14.667 -121.834 44 -153.501
s76.333 -47.5 141 -47.5c25.333 0 48 0.833008 68 2.5s41.667 4.83398 65 9.50098v-75c-16.667 -4.66699 -38 -8.33398 -64 -11.001s-51.667 -4 -77 -4z" />
    <glyph glyph-name="d" unicode="d" horiz-adv-x="643" 
d="M290 -10c-78 0 -137.501 22.168 -178.501 66.501s-61.5 114.166 -61.5 209.499c0 48.667 6.83301 90.834 20.5 126.501s32.834 65.167 57.501 88.5s54.167 40.666 88.5 51.999s72.5 17 114.5 17c27.333 0 53 -1.33301 77 -4s45.333 -4.66699 64 -6v268h91v-808h-79l-8 70
h-7c-39.333 -53.333 -99 -80 -179 -80zM310.999 63.001c21.333 0 41.8291 2.83008 61.4961 8.49707s36.834 13.834 51.501 24.501s26.334 23.5 35.001 38.5s13 32.167 13 51.5v282c-18 2.66699 -39.333 5.33398 -64 8.00098s-51 4 -79 4
c-61.333 0 -107.666 -16 -138.999 -48s-47 -86 -47 -162c0 -37.333 3.33301 -69.166 10 -95.499s16.834 -47.833 30.501 -64.5s31 -28.667 52 -36s46.167 -11 75.5 -11z" />
    <glyph glyph-name="e" unicode="e" horiz-adv-x="577" 
d="M315 -9c-176 0 -263.999 91 -263.999 273c0 92 21.833 162.5 65.5 211.5s107.167 73.5 190.5 73.5c146.667 0 220 -81 220 -243c0 -14.667 -0.5 -27.834 -1.5 -39.501s-2.83301 -21.5 -5.5 -29.5h-378c4 -61.333 20.667 -105.333 50 -132s74.666 -40 135.999 -40
c28 0 57.333 2.33301 88 7s60 11.334 88 20.001l5 -69c-28.667 -10 -60.167 -17.833 -94.5 -23.5s-67.5 -8.5 -99.5 -8.5zM305.001 479c-100.667 0 -155.001 -59.333 -163.001 -178h301c-2 64 -13.667 109.667 -35 137s-55.666 41 -102.999 41z" />
    <glyph glyph-name="f" unicode="f" horiz-adv-x="411" 
d="M147 460l-129.999 -0.000976562v80h131v23c0 49.333 4 89.833 12 121.5s22.167 56.834 42.5 75.501s48 32 83 40s79.167 12.667 132.5 14l5 -67c-38 -2.66699 -68.833 -6.5 -92.5 -11.5s-42.334 -13 -56.001 -24s-23 -26.333 -28 -46s-7.5 -45.167 -7.5 -76.5v-49h157
v-80h-157v-460h-92v460z" />
    <glyph glyph-name="g" unicode="g" horiz-adv-x="643" 
d="M283 -219c-34 0 -68.668 2.00098 -104.001 6.00098s-66 9.66699 -92 17l6 72c25.333 -6.66699 53.5 -12.334 84.5 -17.001s61.833 -7 92.5 -7c29.333 0 56.666 3 81.999 9s47.166 16.333 65.499 31s32.833 34.334 43.5 59.001s16 55.667 16 93v40h-6
c-39.333 -55.333 -99.666 -83 -180.999 -83c-77.333 0 -136.666 21.667 -177.999 65s-62 111.333 -62 204c0 48 6.83301 89.5 20.5 124.5s32.834 64 57.501 87s54.167 40.167 88.5 51.5s72.5 17 114.5 17c32.667 0 68.667 -2.16699 108 -6.5s81 -12.5 125 -24.5v-469
c0 -54.667 -7.83301 -99.334 -23.5 -134.001s-36.5 -62 -62.5 -82s-56 -33.833 -90 -41.5s-69 -11.5 -105 -11.5zM310.999 73.001c22 0 42.8311 2.83301 62.498 8.5s36.667 14 51 25s25.833 24.167 34.5 39.5s13 33 13 53v269c-18 2.66699 -39.333 5.33398 -64 8.00098
s-51 4 -79 4c-61.333 0 -107.666 -15.667 -138.999 -47s-47 -84 -47 -158c0 -36.667 3.33301 -67.834 10 -93.501s16.834 -46.5 30.501 -62.5s31 -27.667 52 -35s46.167 -11 75.5 -11z" />
    <glyph glyph-name="h" unicode="h" horiz-adv-x="646" 
d="M80 808l91 -0.000976562v-332c28.667 12.667 54.834 23.667 78.501 33s45.167 17 64.5 23s37.5 10.5 54.5 13.5s33.5 4.5 49.5 4.5c48 0 85.333 -12.5 112 -37.5s40 -62.5 40 -112.5v-400h-92v367c0 38.667 -7.66699 66.334 -23 83.001s-39 25 -71 25
c-26.667 0 -58.334 -5.66699 -95.001 -17s-76 -26.333 -118 -45v-413h-91v808z" />
    <glyph glyph-name="i" unicode="i" horiz-adv-x="254" 
d="M127 649c-37.333 0 -56 18.333 -56 55c0 37.333 18.667 56 56 56c38 0 57 -18.667 57 -56c0 -36.667 -19 -55 -57 -55zM81 540h92v-540h-92v540z" />
    <glyph glyph-name="j" unicode="j" horiz-adv-x="251" 
d="M123 649c-20 0 -34.5 4.33301 -43.5 13s-13.5 22.667 -13.5 42s4.5 33.5 13.5 42.5s23.5 13.5 43.5 13.5c37.333 0 56 -18.667 56 -56c0 -36.667 -18.667 -55 -56 -55zM14 -200c12 24.667 22.168 49.1689 30.501 73.502s15.166 49.666 20.499 75.999
s9.33301 54.5 12 84.5s4 63.333 4 100v33v68v87v90.5c0 29 -0.166992 55 -0.5 78s-0.5 39.5 -0.5 49.5h91v-454c-2 -56.667 -10.5 -110.334 -25.5 -161.001s-36.5 -99 -64.5 -145z" />
    <glyph glyph-name="k" unicode="k" horiz-adv-x="586" 
d="M80 808h91v-499h103l191 231h105l-213 -253l-19 -8v-4l20 -9l228 -266h-104l-210 246h-101v-246h-91v808z" />
    <glyph glyph-name="l" unicode="l" horiz-adv-x="257" 
d="M82 808h92v-808h-92v808z" />
    <glyph glyph-name="m" unicode="m" horiz-adv-x="948" 
d="M80 540h75.999l6 -64h6c45.333 25.333 83.5 44 114.5 56s60.833 18 89.5 18c34 0 62.5 -6.33301 85.5 -19s40.167 -31.667 51.5 -57h4c47.333 27.333 86.833 46.833 118.5 58.5s61.167 17.5 88.5 17.5c48 0 85.333 -12.5 112 -37.5s40 -62.5 40 -112.5v-400h-92v366
c0 38.667 -7.66699 66.167 -23 82.5s-39 24.5 -71 24.5c-20.667 0 -44.667 -5 -72 -15s-57.666 -24.333 -90.999 -43v-415h-92v366c0 38.667 -7.66699 66.167 -23 82.5s-39 24.5 -71 24.5c-21.333 0 -46.333 -5.5 -75 -16.5s-58.667 -25.5 -90 -43.5v-413h-92v540z" />
    <glyph glyph-name="n" unicode="n" horiz-adv-x="646" 
d="M80 540h75.998l6 -64h6c30 13.333 57 24.666 81 33.999s45.833 17 65.5 23s38 10.333 55 13s33.5 4 49.5 4c48 0 85.167 -12.5 111.5 -37.5s39.5 -62.5 39.5 -112.5v-400h-92v367c0 38.667 -7.66699 66.334 -23 83.001s-39 25 -71 25
c-27.333 0 -59.166 -5.66699 -95.499 -17s-75.166 -26.333 -116.499 -45v-413h-92v540z" />
    <glyph glyph-name="o" unicode="o" horiz-adv-x="629" 
d="M315 -10c-86 0 -151.833 24 -197.5 72s-68.5 117.333 -68.5 208s22.833 160 68.5 208s111.5 72 197.5 72c85.333 0 150.666 -24 195.999 -72s68 -117.333 68 -208s-22.667 -160 -68 -208s-110.666 -72 -195.999 -72zM315 64c59.333 0 102.666 16.667 129.999 50
s41 85.333 41 156s-13.667 122.5 -41 155.5s-70.666 49.5 -129.999 49.5s-102.833 -16.5 -130.5 -49.5s-41.5 -84.833 -41.5 -155.5s13.833 -122.667 41.5 -156s71.167 -50 130.5 -50z" />
    <glyph glyph-name="p" unicode="p" horiz-adv-x="645" 
d="M80 540h79l8 -67h7c39.333 51.333 99 77 179 77c78.667 0 138.5 -22.167 179.5 -66.5s61.5 -114.166 61.5 -209.499c0 -48.667 -6.83301 -90.834 -20.5 -126.501s-32.834 -65.167 -57.501 -88.5s-54.167 -40.666 -88.5 -51.999s-72.166 -17 -113.499 -17
c-27.333 0 -53.333 1.16699 -78 3.5s-46 4.16602 -64 5.49902v-219h-92v760zM316 60c60.667 0 106.67 16.001 138.003 48.001s47 86 47 162c0 74.667 -13.333 127.834 -40 159.501s-69 47.5 -127 47.5c-22 0 -42.833 -2.83301 -62.5 -8.5s-36.834 -13.834 -51.501 -24.501
s-26.334 -23.5 -35.001 -38.5s-13 -31.833 -13 -50.5v-283c17.333 -2.66699 38.666 -5.33398 63.999 -8.00098s52 -4 80 -4z" />
    <glyph glyph-name="q" unicode="q" horiz-adv-x="643" 
d="M476 71c-21.333 -27.333 -47.834 -47.667 -79.501 -61s-67.167 -20 -106.5 -20c-160 0 -240 92 -240 276c0 92.667 24.5 163.167 73.5 211.5s118.167 72.5 207.5 72.5c20.667 0 41.834 -0.666992 63.501 -2s42.834 -3 63.501 -5s40.167 -4.16699 58.5 -6.5
s34.166 -4.5 47.499 -6.5v-750h-88v291zM310.999 62.999c23.333 0 44.834 3.16504 64.501 9.49805s36.667 15 51 26s25.5 24.333 33.5 40s12 32.5 12 50.5v279c-52 8 -99.667 12 -143 12c-64.667 0 -111.834 -16.667 -141.501 -50s-44.5 -86.666 -44.5 -159.999
s13 -126.166 39 -158.499s69 -48.5 129 -48.5z" />
    <glyph glyph-name="r" unicode="r" horiz-adv-x="417" 
d="M80 540l76.002 -0.000976562l6 -77h4l117 58c32 15.333 62 24.666 90 27.999h31v-84h-30c-30.667 -3.33301 -63.334 -11.166 -98.001 -23.499s-69.334 -27.166 -104.001 -44.499v-397h-92v540z" />
    <glyph glyph-name="s" unicode="s" horiz-adv-x="504" 
d="M246 -11c-25.333 0 -53.3369 1.83301 -84.0039 5.5s-68.667 9.83398 -114 18.501v74c37.333 -8 71.833 -14.5 103.5 -19.5s61.834 -7.5 90.501 -7.5c86 0 129 28.333 129 85c0 16 -3 29.333 -9 40s-14.5 19.334 -25.5 26.001s-24 12 -39 16s-31.167 7.66699 -48.5 11
c-22 4 -44.5 8.5 -67.5 13.5s-43.833 13 -62.5 24s-34 26.167 -46 45.5s-18 45 -18 77c0 48.667 18.833 86.667 56.5 114s89.834 41 156.501 41c12 0 23.5 -0.333008 34.5 -1s23 -1.83398 36 -3.50098s27.667 -3.83398 44 -6.50098s35.5 -6 57.5 -10l-5 -76
c-36 7.33301 -66.667 13.166 -92 17.499s-48.666 6.5 -69.999 6.5c-42.667 0 -74.667 -7 -96 -21s-32 -34 -32 -60c0 -16 3.5 -29 10.5 -39s16.667 -18.167 29 -24.5s26.833 -11.5 43.5 -15.5s35 -7.66699 55 -11c24.667 -4 47.834 -9.5 69.501 -16.5s40.5 -16.5 56.5 -28.5
s28.5 -27.167 37.5 -45.5s13.5 -41.166 13.5 -68.499c0 -51.333 -18.5 -91 -55.5 -119s-89.833 -42 -158.5 -42z" />
    <glyph glyph-name="t" unicode="t" horiz-adv-x="421" 
d="M296 -10c-52.667 0 -92.667 13.1689 -120 39.502s-41 65.166 -41 116.499v314h-117v80h122l14 135l72 9v-144h169v-80h-168v-294c0 -34.667 7.66699 -60.334 23 -77.001s40 -25 74 -25c24 0 50 4.33301 78 13v-73c-34 -9.33301 -69.333 -14 -106 -14z" />
    <glyph glyph-name="u" unicode="u" horiz-adv-x="646" 
d="M217 -10c-46.667 0 -81.834 12.834 -105.501 38.501s-35.5 62.834 -35.5 111.501v400h92v-369c0 -36.667 6.66699 -63.167 20 -79.5s35.666 -24.5 66.999 -24.5c18 0 36.333 2.16699 55 6.5s37.5 9.66602 56.5 15.999s37.667 13.5 56 21.5l51.5 23v406h92v-540h-76l-6 69
h-4l-81 -35.5c-22.667 -9.66699 -43.667 -17.834 -63 -24.501s-38.166 -11.5 -56.499 -14.5s-39.166 -4.5 -62.499 -4.5z" />
    <glyph glyph-name="v" unicode="v" horiz-adv-x="588" 
d="M21 526v14h95l146 -378l27 -92h12l27 92l147 378h93v-14l-214 -526h-121z" />
    <glyph glyph-name="w" unicode="w" horiz-adv-x="836" 
d="M24 533v7h90l104 -372l19 -81h6l20 81l110 372h87l116 -372l21 -81h7l18 81l97 372h90v-7l-153 -533h-104l-113 358l-18 77h-7l-18 -77l-108 -358h-104z" />
    <glyph glyph-name="x" unicode="x" horiz-adv-x="583" 
d="M14 14l215 266l-204 252v8h98l128 -159l39 -53h6l39 53l124 159h99v-8l-204 -254l215 -264v-14h-96l-135 168l-44 61h-6l-43 -61l-135 -168h-96v14z" />
    <glyph glyph-name="y" unicode="y" horiz-adv-x="598" 
d="M164 -206l-1 11l89 201l-234 522v12h99l151 -358l28 -82h6l28 82l157 358h96v-12l-337 -748z" />
    <glyph glyph-name="z" unicode="z" horiz-adv-x="524" 
d="M40 62l314 397v6h-304v75h425v-57l-311 -400v-7h321v-75h-445v61z" />
    <glyph glyph-name="braceleft" unicode="{" horiz-adv-x="367" 
d="M38 394c23.333 0 41.5 8.66992 54.5 26.0029s19.5 43 19.5 77v244c0 46 8.16699 78.667 24.5 98s44.5 29 84.5 29c6 0 14.5 -0.166992 25.5 -0.5s22.167 -0.833008 33.5 -1.5s21.5 -1.16699 30.5 -1.5s15.167 -0.833008 18.5 -1.5v-62h-94
c-16 0 -27.5 -3.33301 -34.5 -10s-10.5 -17.334 -10.5 -32.001v-282c0 -31.333 -7 -58.5 -21 -81.5s-33.667 -36.833 -59 -41.5c25.333 -3.33301 45 -16.333 59 -39s21 -49.667 21 -81v-285c0 -14.667 3.5 -25.334 10.5 -32.001s18.5 -10 34.5 -10h94v-62
c-3.33301 -0.666992 -9.5 -1.33398 -18.5 -2.00098s-19 -1.16699 -30 -1.5l-32.5 -1c-10.667 -0.333008 -19 -0.5 -25 -0.5c-40 0 -68.5 9.66699 -85.5 29s-25.5 52 -25.5 98v247c0 34 -6.5 59.5 -19.5 76.5s-31.167 25.5 -54.5 25.5v78z" />
    <glyph glyph-name="bar" unicode="|" horiz-adv-x="272" 
d="M180 808v-1028h-87v1028h87z" />
    <glyph glyph-name="braceright" unicode="}" horiz-adv-x="367" 
d="M329 316c-48.667 0 -72.999 -34.0029 -72.999 -102.003v-247c0 -46 -8.5 -78.667 -25.5 -98s-45.5 -29 -85.5 -29c-6 0 -14.5 0.166992 -25.5 0.5l-33 1c-11 0.333008 -21.167 0.833008 -30.5 1.5s-15.333 1.33398 -18 2.00098v62h96c16 0 27.5 3.33301 34.5 10
s10.5 17.334 10.5 32.001v285c0 31.333 6.66699 58.333 20 81s32.666 35.667 57.999 39c-25.333 4.66699 -44.666 18.5 -57.999 41.5s-20 50.167 -20 81.5v282c0 14.667 -3.5 25.334 -10.5 32.001s-18.5 10 -34.5 10h-96v62c2.66699 0.666992 8.66699 1.16699 18 1.5
s19.666 0.833008 30.999 1.5s22.5 1.16699 33.5 1.5s19.5 0.5 25.5 0.5c40 0 68.333 -9.66699 85 -29s25 -52 25 -98v-244c0 -68.667 24.333 -103 73 -103v-78z" />
    <glyph glyph-name="asciitilde" unicode="~" horiz-adv-x="688" 
d="M65 285c18.667 19.333 35.666 35.332 50.999 47.999s29.833 22.834 43.5 30.501s27.334 13.167 41.001 16.5s28.167 5 43.5 5c21.333 0 40.5 -4 57.5 -12s33 -16.667 48 -26s30 -18 45 -26s31.5 -12 49.5 -12c24 0 47.5 6.33301 70.5 19s40.833 29 53.5 49l54 -32
c-9.33301 -13.333 -20 -26.666 -32 -39.999s-25.333 -25.333 -40 -36s-30.334 -19.334 -47.001 -26.001s-34 -10 -52 -10c-23.333 0 -44 4 -62 12s-34.667 16.667 -50 26l-44 26c-14 8 -28.667 12 -44 12c-22.667 0 -44.167 -5.33301 -64.5 -16s-44.166 -28.667 -71.499 -54
z" />
    <glyph glyph-name="uni00A0" unicode="&#xa0;" horiz-adv-x="248" 
 />
    <glyph glyph-name="exclamdown" unicode="&#xa1;" horiz-adv-x="252" 
d="M128 539c16.667 0 29.5 -4.5 38.5 -13.5s13.5 -21.5 13.5 -37.5c0 -15.333 -4.5 -27.5 -13.5 -36.5s-21.833 -13.5 -38.5 -13.5c-34.667 0 -52 16.667 -52 50c0 16 4.5 28.5 13.5 37.5s21.833 13.5 38.5 13.5zM96 355h58v-13l16 -532v-10h-90v10l16 532v13z" />
    <glyph glyph-name="cent" unicode="&#xa2;" horiz-adv-x="526" 
d="M280 -7c-152.667 12 -229 104.001 -229 276.001c0 172.667 76.333 265.334 229 278.001v113h65v-112c20 -0.666992 40.333 -2.33398 61 -5.00098s39 -5.66699 55 -9v-77c-43.333 9.33301 -87 14 -131 14c-124.667 0 -187 -67 -187 -201
c0 -70.667 14.667 -121.834 44 -153.501s76.333 -47.5 141 -47.5c25.333 0 48 0.833008 68 2.5s41.667 4.83398 65 9.50098v-75c-14 -3.33301 -31.5 -6.33301 -52.5 -9s-42.167 -4.33398 -63.5 -5.00098v-112h-65v113z" />
    <glyph glyph-name="sterling" unicode="&#xa3;" horiz-adv-x="680" 
d="M53 407h166.999v114c0 76 18.5 132.5 55.5 169.5s96.833 55.5 179.5 55.5c26 0 52.833 -2.16699 80.5 -6.5s58.5 -11.5 92.5 -21.5l-9 -76c-61.333 16 -113.333 24 -156 24c-55.333 0 -94.166 -11.167 -116.499 -33.5s-33.5 -59.5 -33.5 -111.5v-114h227v-76h-227v-249
h301v-82h-561v82h167v249h-167v76z" />
    <glyph glyph-name="currency" unicode="&#xa4;" horiz-adv-x="645" 
d="M63 156l55.002 53l49 37c-30.667 32 -46 73.333 -46 124c0 50 15.333 91 46 123l-49 38l-55 53l45 45l54 -55l39 -53c33.333 20.667 73.666 31 120.999 31s87.666 -10.667 120.999 -32l40 54l54 55l45 -45l-55 -53l-51 -38c15.333 -15.333 27 -33.333 35 -54
s12 -43.667 12 -69s-4 -48.5 -12 -69.5s-19.333 -39.167 -34 -54.5l50 -37l55 -53l-45 -45l-54 55l-40 52c-33.333 -20.667 -73.333 -31 -120 -31c-48 0 -88.667 10.333 -122 31l-39 -52l-54 -55zM185.002 370c0 -40.667 12.5 -72.001 37.5 -94.001s58.5 -33 100.5 -33
c41.333 0 74.333 10.833 99 32.5s37 53.167 37 94.5c0 38.667 -12 69.334 -36 92.001s-57.333 34 -100 34c-42 0 -75.5 -11 -100.5 -33s-37.5 -53 -37.5 -93z" />
    <glyph glyph-name="yen" unicode="&#xa5;" horiz-adv-x="719" 
d="M96 308h187l-247 432h100l191 -338l32 -69h10l32 69l190 338h100l-247 -432h155v-61h-188v-87h188v-62h-188v-98h-93v98h-222v62h222v87h-222v61z" />
    <glyph glyph-name="brokenbar" unicode="&#xa6;" horiz-adv-x="274" 
d="M94 203h87v-423h-87v423zM94 808h87v-423h-87v423z" />
    <glyph glyph-name="section" unicode="&#xa7;" horiz-adv-x="534" 
d="M260 -11c-25.333 0 -53.3369 1.83203 -84.0039 5.49902s-68.667 9.83398 -114 18.501v69c72.667 -16.667 137.334 -25 194.001 -25c86 0 129 29.333 129 88c0 16 -3 29.333 -9 40s-14.5 19.5 -25.5 26.5s-24 12.5 -39 16.5s-31.167 7.66699 -48.5 11
c-22 4 -44.5 8.33301 -67.5 13s-43.833 12.5 -62.5 23.5s-34 26.167 -46 45.5s-18 45 -18 77c0 21.333 4 40.666 12 57.999s19 32.333 33 45c-13.333 11.333 -24.166 25.333 -32.499 42s-12.5 37.667 -12.5 63c0 48.667 18.833 86.667 56.5 114s89.834 41 156.501 41
c12 0 23.5 -0.333008 34.5 -1s23 -1.83398 36 -3.50098s27.667 -3.66699 44 -6s35.5 -5.5 57.5 -9.5l-5 -73c-36 8 -66.667 13.833 -92 17.5s-48.666 5.5 -69.999 5.5c-85.333 0 -128 -27.667 -128 -83c0 -16 3.5 -29.167 10.5 -39.5s16.667 -18.833 29 -25.5
s26.833 -12 43.5 -16s35 -7.66699 55 -11c24.667 -4 47.834 -9.5 69.501 -16.5s40.5 -16.333 56.5 -28s28.5 -26.667 37.5 -45s13.5 -41.166 13.5 -68.499c0 -44.667 -14 -80.334 -42 -107.001c13.333 -11.333 23.666 -25.166 30.999 -41.499s11 -36.166 11 -59.499
c0 -51.333 -18.5 -91 -55.5 -119s-89.833 -42 -158.5 -42zM357.996 280.999c18 16.667 27.001 38.667 27.001 66c0 18 -3 33 -9 45s-14 22 -24 30s-21.833 14.167 -35.5 18.5s-28.5 8.16602 -44.5 11.499c-11.333 2.66699 -24.833 5.5 -40.5 8.5
s-28.834 6.83301 -39.501 11.5c-22 -16 -33 -38.667 -33 -68c0 -17.333 3.33301 -31.5 10 -42.5s15.5 -20.167 26.5 -27.5s24 -13.166 39 -17.499s31.167 -8.5 48.5 -12.5l38.5 -9.5c14.333 -3.66699 26.5 -8.16699 36.5 -13.5z" />
    <glyph glyph-name="dieresis" unicode="&#xa8;" horiz-adv-x="508" 
d="M119 655c-36 0 -54 18 -54 54c0 34.667 18 52 54 52s54 -17.333 54 -52c0 -36 -18 -54 -54 -54zM376 655c-36 0 -54 18 -54 54c0 34.667 18 52 54 52c35.333 0 53 -17.333 53 -52c0 -36 -17.667 -54 -53 -54z" />
    <glyph glyph-name="copyright" unicode="&#xa9;" horiz-adv-x="851" 
d="M441 163c-57.333 0 -102.498 16.833 -135.498 50.5s-49.5 84.5 -49.5 152.5c0 69.333 16.5 121.166 49.5 155.499s78.167 51.5 135.5 51.5c15.333 0 30.166 -0.833008 44.499 -2.5s28.166 -4.16699 41.499 -7.5v-55c-13.333 2.66699 -26.833 4.83398 -40.5 6.50098
s-26.834 2.5 -39.501 2.5c-42 0 -73.833 -12.333 -95.5 -37s-32.5 -62.334 -32.5 -113.001c0 -51.333 11.167 -88.833 33.5 -112.5s53.5 -35.5 93.5 -35.5c12 0 25 0.833008 39 2.5s28.667 3.83398 44 6.50098v-54c-27.333 -7.33301 -56.666 -11 -87.999 -11zM426.002 -11
c-56 0 -106.833 9.16699 -152.5 27.5s-84.834 44.166 -117.501 77.499s-57.834 73.333 -75.501 120s-26.5 98.667 -26.5 156c0 56.667 8.83301 108.5 26.5 155.5s42.834 87.167 75.501 120.5s71.834 59.166 117.501 77.499s96.5 27.5 152.5 27.5s106.667 -9.16699 152 -27.5
s84.333 -44.166 117 -77.499s57.834 -73.5 75.501 -120.5s26.5 -98.833 26.5 -155.5c0 -57.333 -8.83301 -109.333 -26.5 -156s-42.834 -86.667 -75.501 -120s-71.667 -59.166 -117 -77.499s-96 -27.5 -152 -27.5zM426.002 43c48 0 91.333 7.83301 130 23.5
s71.834 37.667 99.501 66s48.834 62.666 63.501 102.999s22 85.166 22 134.499s-7.33301 94.166 -22 134.499s-35.834 74.833 -63.501 103.5s-60.834 50.834 -99.501 66.501s-82 23.5 -130 23.5s-91.5 -7.83301 -130.5 -23.5s-72.333 -37.834 -100 -66.501
s-48.834 -63.167 -63.501 -103.5s-22 -85.166 -22 -134.499s7.33301 -94.166 22 -134.499s35.834 -74.666 63.501 -102.999s61 -50.333 100 -66s82.5 -23.5 130.5 -23.5z" />
    <glyph glyph-name="ordfeminine" unicode="&#xaa;" horiz-adv-x="467" 
d="M173 348c-37.333 0 -67.501 10.002 -90.501 30.002s-34.5 46 -34.5 78c0 34 14.167 61.167 42.5 81.5s69.5 32.166 123.5 35.499l104 7v25c0 15.333 -1.66699 28 -5 38s-8.83301 18 -16.5 24s-18.167 10.167 -31.5 12.5s-30 3.5 -50 3.5
c-13.333 0 -29.833 -0.666992 -49.5 -2s-43.5 -4 -71.5 -8l-8 59c30 5.33301 56.833 9 80.5 11s44.834 3 63.501 3c60 0 102.667 -9.83301 128 -29.5s38 -51.167 38 -94.5v-270h-67l-6 47h-4c-28 -16.667 -53.667 -29.334 -77 -38.001s-46.333 -13 -69 -13zM195.999 408.002
c16 0 33.332 2.66602 51.999 7.99902s42 14 70 26v87l-55 -3c-51.333 -3.33301 -86.666 -9.66602 -105.999 -18.999s-29 -24.333 -29 -45c0 -36 22.667 -54 68 -54z" />
    <glyph glyph-name="guillemotleft" unicode="&#xab;" horiz-adv-x="667" 
d="M34 268v4l208 238h98l-208 -238v-4l208 -238h-98zM313 268v4l208 238h98l-208 -238v-4l208 -238h-98z" />
    <glyph glyph-name="logicalnot" unicode="&#xac;" horiz-adv-x="848" 
d="M68 429h701v-318h-90v239h-611v79z" />
    <glyph glyph-name="uni00AD" unicode="&#xad;" horiz-adv-x="501" 
d="M71 318h359v-76h-359v76z" />
    <glyph glyph-name="registered" unicode="&#xae;" horiz-adv-x="731" 
d="M254 618c17.333 2 34 3.66797 50 5.00098s30.667 2 44 2c52 0 90.167 -8.66699 114.5 -26s36.5 -44.333 36.5 -81c0 -50.667 -23.667 -83.334 -71 -98.001l-1 -3l83 -133h-53l-76 124h-79v-124h-48v334zM351 449.001c66 0 99 22.666 99 67.999
c0 23.333 -7.5 40.333 -22.5 51s-39.833 16 -74.5 16c-6.66699 0 -14.5 -0.166992 -23.5 -0.5s-18.167 -1.16602 -27.5 -2.49902v-131c5.33301 -0.666992 12.833 -1 22.5 -1h26.5zM365 140c-44.667 0 -85.834 7.66699 -123.501 23s-70 36.5 -97 63.5s-48 59.167 -63 96.5
s-22.5 78.333 -22.5 123s7.5 85.667 22.5 123s36 69.666 63 96.999s59.333 48.666 97 63.999s78.834 23 123.501 23s86 -7.66699 124 -23s70.5 -36.666 97.5 -63.999s48.167 -59.666 63.5 -96.999s23 -78.333 23 -123s-7.66699 -85.667 -23 -123s-36.5 -69.5 -63.5 -96.5
s-59.5 -48.167 -97.5 -63.5s-79.333 -23 -124 -23zM365 187c38 0 73 6.33301 105 19s59.333 30.5 82 53.5s40.334 50.333 53.001 82s19 66.5 19 104.5s-6.33301 72.833 -19 104.5s-30.334 59 -53.001 82s-50 41 -82 54s-67 19.5 -105 19.5s-72.833 -6.5 -104.5 -19.5
s-58.667 -31 -81 -54s-39.833 -50.333 -52.5 -82s-19 -66.5 -19 -104.5s6.33301 -72.833 19 -104.5s30.167 -59 52.5 -82s49.333 -40.833 81 -53.5s66.5 -19 104.5 -19z" />
    <glyph glyph-name="macron" unicode="&#xaf;" horiz-adv-x="509" 
d="M67 718h348v-68h-348v68z" />
    <glyph glyph-name="degree" unicode="&#xb0;" horiz-adv-x="490" 
d="M245 377c-28 0 -54.167 4.83301 -78.5 14.5s-45.333 22.667 -63 39s-31.667 35.666 -42 57.999s-15.5 46.5 -15.5 72.5s5.16699 50 15.5 72s24.333 41.333 42 58s38.667 29.667 63 39s50.5 14 78.5 14s54 -4.66699 78 -14s45 -22.333 63 -39s32 -36 42 -58s15 -46 15 -72
s-5 -50.167 -15 -72.5s-24 -41.666 -42 -57.999s-39 -29.333 -63 -39s-50 -14.5 -78 -14.5zM245 435c19.333 0 37.166 3.16699 53.499 9.5s30.333 15.166 42 26.499s20.667 24.666 27 39.999s9.5 32 9.5 50s-3.16699 34.667 -9.5 50s-15.333 28.666 -27 39.999
s-25.667 20.166 -42 26.499s-34.166 9.5 -53.499 9.5s-37.166 -3.16699 -53.499 -9.5s-30.333 -15.166 -42 -26.499s-20.667 -24.666 -27 -39.999s-9.5 -32 -9.5 -50s3.16699 -34.667 9.5 -50s15.333 -28.666 27 -39.999s25.667 -20.166 42 -26.499s34.166 -9.5 53.499 -9.5
z" />
    <glyph glyph-name="plusminus" unicode="&#xb1;" horiz-adv-x="545" 
d="M76 460h164v169h64v-169h163v-64h-163v-166h-64v166h-164v64zM77 153h391v-64h-391v64z" />
    <glyph glyph-name="twosuperior" unicode="&#xb2;" horiz-adv-x="462" 
d="M42 378c0 44.667 13.332 83.002 39.999 115.002s71 62.667 133 92c22.667 10.667 41.5 20.5 56.5 29.5s27 17.833 36 26.5s15.333 17.5 19 26.5s5.5 18.5 5.5 28.5c0 56.667 -38.333 85 -115 85c-20 0 -41.833 -1.5 -65.5 -4.5s-51.5 -7.83301 -83.5 -14.5l-10 69
c34 7.33301 64.667 12.666 92 15.999s53.333 5 78 5c122.667 0 184 -50.333 184 -151c0 -36.667 -11.5 -68 -34.5 -94s-61.5 -52.333 -115.5 -79c-22.667 -11.333 -41.667 -22 -57 -32s-27.666 -20 -36.999 -30s-16 -20.333 -20 -31s-6 -22.334 -6 -35.001v-29h272v-69h-372
v76z" />
    <glyph glyph-name="threesuperior" unicode="&#xb3;" horiz-adv-x="440" 
d="M186 292c-23.333 0 -47.501 1.16895 -72.501 3.50195s-46.5 5.16602 -64.5 8.49902v70h6c6.66699 -1.33301 15 -2.5 25 -3.5l30.5 -3c10.333 -1 20.666 -1.83301 30.999 -2.5s19.5 -1 27.5 -1c50 0 86.667 8.5 110 25.5s35 41.5 35 73.5c0 28 -10.667 49 -32 63
s-55.666 21 -102.999 21h-64v59h63c42 0 72.667 7.16699 92 21.5s29 36.166 29 65.499c0 30 -10 52.5 -30 67.5s-52 22.5 -96 22.5c-13.333 0 -30.5 -1 -51.5 -3s-43.167 -4.66699 -66.5 -8h-6v69c18 4 39.5 7.16699 64.5 9.5s47.833 3.5 68.5 3.5
c64.667 0 114 -13.333 148 -40s51 -65 51 -115c0 -28 -6.33301 -52.167 -19 -72.5s-30.667 -35.5 -54 -45.5c56.667 -19.333 85 -62.333 85 -129c0 -52 -17.667 -91.667 -53 -119s-86.666 -41 -153.999 -41z" />
    <glyph glyph-name="acute" unicode="&#xb4;" horiz-adv-x="260" 
d="M49 616l70 185h95l-99 -192z" />
    <glyph glyph-name="mu" unicode="&#xb5;" horiz-adv-x="676" 
d="M91 540h91.002v-381c0 -34 7.16699 -58.667 21.5 -74s35.5 -23 63.5 -23c35.333 0 70.666 6.5 105.999 19.5s74 28.167 116 45.5v413h92v-540h-76l-7 69h-4l-79.5 -36c-22.333 -10 -43.333 -18.167 -63 -24.5s-38.834 -11 -57.501 -14s-39.667 -4.5 -63 -4.5
c-18.667 0 -35 2 -49 6v-216h-91v760z" />
    <glyph glyph-name="paragraph" unicode="&#xb6;" horiz-adv-x="638" 
d="M416 0l-52 -0.00390625v266c-10.667 -0.666992 -21.667 -1 -33 -1h-31c-39.333 0 -75 4.16699 -107 12.5s-59.333 21.833 -82 40.5s-40 43.334 -52 74.001s-18 68.334 -18 113.001s6 82.334 18 113.001s29.167 55.334 51.5 74.001s49.5 32.167 81.5 40.5
s67.667 12.5 107 12.5c18.667 0 37.5 -0.833008 56.5 -2.5s39.167 -4.16699 60.5 -7.5v-735zM535 -0.00390625h-61v735h61v-735z" />
    <glyph glyph-name="periodcentered" unicode="&#xb7;" horiz-adv-x="253" 
d="M126 312c-20 0 -35 4.5 -45 13.5s-15 23.833 -15 44.5c0 39.333 20 59 60 59c39.333 0 59 -19.667 59 -59c0 -38.667 -19.667 -58 -59 -58z" />
    <glyph glyph-name="cedilla" unicode="&#xb8;" horiz-adv-x="325" 
d="M134 -220c-13.333 0 -28.668 1.16699 -46.001 3.5s-33.666 5.16602 -48.999 8.49902v62c20.667 -7.33301 45 -11 73 -11s47.667 4.33301 59 13s17 23.667 17 45c0 8 -0.833008 16 -2.5 24s-4.66699 16.833 -9 26.5s-10.166 20.167 -17.499 31.5l-27 40h68
c12 -17.333 21.667 -32.166 29 -44.499s13.166 -23.333 17.499 -33s7.33301 -18.5 9 -26.5s2.5 -16.333 2.5 -25c0 -36 -10.833 -64 -32.5 -84s-52.167 -30 -91.5 -30z" />
    <glyph glyph-name="onesuperior" unicode="&#xb9;" horiz-adv-x="344" 
d="M181 758l-141 -61h-7l-10 45v10l179 94h58v-546h-79v458z" />
    <glyph glyph-name="ordmasculine" unicode="&#xba;" horiz-adv-x="500" 
d="M250 407c18 0 34.5 2.16699 49.5 6.5s27.667 11.833 38 22.5s18.333 25 24 43s8.5 40.333 8.5 67s-2.83301 49 -8.5 67s-13.667 32.333 -24 43s-23 18.167 -38 22.5s-31.5 6.5 -49.5 6.5s-34.5 -2.16699 -49.5 -6.5s-27.833 -11.833 -38.5 -22.5s-18.834 -25 -24.501 -43
s-8.5 -40.333 -8.5 -67s2.83301 -49 8.5 -67s13.834 -32.333 24.501 -43s23.5 -18.167 38.5 -22.5s31.5 -6.5 49.5 -6.5zM250 345c-62.667 0 -111.5 16.5 -146.5 49.5s-52.5 83.5 -52.5 151.5s17.5 118.5 52.5 151.5s83.833 49.5 146.5 49.5s111.5 -16.5 146.5 -49.5
s52.5 -83.5 52.5 -151.5s-17.5 -118.5 -52.5 -151.5s-83.833 -49.5 -146.5 -49.5z" />
    <glyph glyph-name="guillemotright" unicode="&#xbb;" horiz-adv-x="667" 
d="M146 30h-97l208 238v4l-208 238h97l208 -238v-4zM425 30h-97l208 238v4l-208 238h97l208 -238v-4z" />
    <glyph glyph-name="onequarter" unicode="&#xbc;" horiz-adv-x="1046" 
d="M843 124h-261l-16 51l191 377l9 1l64 -9l5 -16l-180 -337h191l20 174h56v-174h92v-67h-92v-124h-79v124zM608 740h84l-373 -740h-85zM188 658l-141 -61h-7l-10 45v10l179 94h58v-546h-79v458z" />
    <glyph glyph-name="onehalf" unicode="&#xbd;" horiz-adv-x="1077" 
d="M650 78c0 44.667 13.333 83 40 115s71 62.667 133 92c22.667 10.667 41.5 20.5 56.5 29.5s27 17.833 36 26.5s15.333 17.5 19 26.5s5.5 18.5 5.5 28.5c0 56.667 -38.333 85 -115 85c-38.667 0 -88.334 -6.33301 -149.001 -19l-10 69c34 7.33301 64.5 12.666 91.5 15.999
s53.167 5 78.5 5c122.667 0 184 -50.333 184 -151c0 -36.667 -11.5 -68 -34.5 -94s-61.5 -52.333 -115.5 -79c-22.667 -11.333 -41.667 -22.166 -57 -32.499s-27.666 -20.5 -36.999 -30.5s-16 -20.167 -20 -30.5s-6 -21.833 -6 -34.5v-29h272v-69h-372v76zM608 740h84
l-373 -740h-85zM188 658l-141 -61h-7l-10 45v10l179 94h58v-546h-79v458z" />
    <glyph glyph-name="threequarters" unicode="&#xbe;" horiz-adv-x="1128" 
d="M199 192c-23.333 0 -47.501 1.16895 -72.501 3.50195s-46.5 5.16602 -64.5 8.49902v70h6c6.66699 -1.33301 15 -2.5 25 -3.5l30.5 -3c10.333 -1 20.666 -1.83301 30.999 -2.5s19.5 -1 27.5 -1c50 0 86.667 8.5 110 25.5s35 41.5 35 73.5c0 28 -10.667 49 -32 63
s-55.666 21 -102.999 21h-64v59h63c42 0 72.667 7.16699 92 21.5s29 36.166 29 65.499c0 30 -10 52.5 -30 67.5s-52 22.5 -96 22.5c-13.333 0 -30.5 -1 -51.5 -3s-43.167 -4.66699 -66.5 -8h-6v69c18 4 39.5 7.16699 64.5 9.5s47.833 3.5 68.5 3.5
c64.667 0 114 -13.333 148 -40s51 -65 51 -115c0 -28 -6.33301 -52.167 -19 -72.5s-30.667 -35.5 -54 -45.5c56.667 -19.333 85 -62.333 85 -129c0 -52 -17.667 -91.667 -53 -119s-86.666 -41 -153.999 -41zM924.999 124.002h-261l-16 51l191 377l9 1l64 -9l5 -16l-180 -337
h191l20 174h56v-174h92v-67h-92v-124h-79v124zM687.999 740.002h84l-373 -740h-85z" />
    <glyph glyph-name="questiondown" unicode="&#xbf;" horiz-adv-x="462" 
d="M308 345l5.99707 -189c-21.333 -5.33301 -43.5 -11.666 -66.5 -18.999s-43.833 -17 -62.5 -29s-34 -26.833 -46 -44.5s-18 -39.5 -18 -65.5c0 -24.667 4.16699 -45.334 12.5 -62.001s19.5 -30 33.5 -40s29.833 -17.167 47.5 -21.5s35.834 -6.5 54.501 -6.5
c26.667 0 52.834 2.33301 78.501 7s50.5 10 74.5 16l10 -71c-27.333 -7.33301 -55.666 -13.5 -84.999 -18.5s-60 -7.5 -92 -7.5c-29.333 0 -57.166 3.5 -83.499 10.5s-49.5 18.167 -69.5 33.5s-36 35.5 -48 60.5s-18 55.5 -18 91.5c0 34 6.16699 63 18.5 87
s28.166 44.333 47.499 61s41 30 65 40s47.667 18 71 24l2 143v18h68v-18zM271.997 546c16.667 0 29.5 -4.5 38.5 -13.5s13.5 -21.5 13.5 -37.5c0 -33.333 -17.333 -50 -52 -50s-52 16.667 -52 50c0 16 4.5 28.5 13.5 37.5s21.833 13.5 38.5 13.5z" />
    <glyph glyph-name="Agrave" unicode="&#xc0;" horiz-adv-x="723" 
d="M7 7l283 733h143l283 -733v-7h-93l-84 217h-355l-84 -217h-93v7zM512 297l-94 243l-52 136h-9l-51 -136l-95 -243h301zM323 805l-99 148h96l75 -135z" />
    <glyph glyph-name="Aacute" unicode="&#xc1;" horiz-adv-x="723" 
d="M7 7l283 733h143l283 -733v-7h-93l-84 217h-355l-84 -217h-93v7zM512 297l-94 243l-52 136h-9l-51 -136l-95 -243h301zM321 812l74 141h96l-99 -148z" />
    <glyph glyph-name="Acircumflex" unicode="&#xc2;" horiz-adv-x="723" 
d="M7 7l283 733h143l283 -733v-7h-93l-84 217h-355l-84 -217h-93v7zM512 297l-94 243l-52 136h-9l-51 -136l-95 -243h301zM187 886l176 75l176 -75v-74l-176 75l-176 -75v74z" />
    <glyph glyph-name="Atilde" unicode="&#xc3;" horiz-adv-x="723" 
d="M7 7l283 733h143l283 -733v-7h-93l-84 217h-355l-84 -217h-93v7zM512 297l-94 243l-52 136h-9l-51 -136l-95 -243h301zM153 866c20.667 26 42.668 45.332 66.001 57.999s46.333 19 69 19c16.667 0 32.667 -2.16699 48 -6.5s30.166 -9 44.499 -14
s28.833 -9.66699 43.5 -14s30 -6.5 46 -6.5c17.333 0 34 3 50 9s32.667 15.667 50 29l23 -29c-19.333 -25.333 -41.5 -44.5 -66.5 -57.5s-49.833 -19.5 -74.5 -19.5c-15.333 0 -30.5 2 -45.5 6s-30 8.5 -45 13.5s-29.833 9.66699 -44.5 14s-29.334 6.5 -44.001 6.5
c-16 0 -31.667 -2.66699 -47 -8s-31.666 -14.666 -48.999 -27.999z" />
    <glyph glyph-name="Adieresis" unicode="&#xc4;" horiz-adv-x="723" 
d="M7 7l283 733h143l283 -733v-7h-93l-84 217h-355l-84 -217h-93v7zM512 297l-94 243l-52 136h-9l-51 -136l-95 -243h301zM221 822c-39.333 0 -59 19.667 -59 59c0 20 5 34.5 15 43.5s24.667 13.5 44 13.5s34 -4.5 44 -13.5s15 -23.5 15 -43.5
c0 -39.333 -19.667 -59 -59 -59zM503 822c-39.333 0 -58.999 19.667 -58.999 59c0 20 5 34.5 15 43.5s24.667 13.5 44 13.5s34.166 -4.5 44.499 -13.5s15.5 -23.5 15.5 -43.5c0 -39.333 -20 -59 -60 -59z" />
    <glyph glyph-name="Aring" unicode="&#xc5;" horiz-adv-x="723" 
d="M7 7l283 733h143l283 -733v-7h-93l-84 217h-355l-84 -217h-93v7zM512 297l-94 243l-52 136h-9l-51 -136l-95 -243h301zM363 798c-18 0 -34.833 2.66699 -50.5 8s-29.334 12.833 -41.001 22.5s-20.667 21.167 -27 34.5s-9.5 28 -9.5 44s3.16699 30.833 9.5 44.5
s15.333 25.334 27 35.001s25.334 17.334 41.001 23.001s32.5 8.5 50.5 8.5s34.667 -2.83301 50 -8.5s28.833 -13.334 40.5 -23.001s20.667 -21.334 27 -35.001s9.5 -28.5 9.5 -44.5s-3.16699 -30.667 -9.5 -44s-15.333 -24.833 -27 -34.5s-25.167 -17.167 -40.5 -22.5
s-32 -8 -50 -8zM363 843c51.333 0 76.999 21.333 76.999 64c0 21.333 -6.5 37.666 -19.5 48.999s-32.167 17 -57.5 17s-44.666 -5.66699 -57.999 -17s-20 -27.666 -20 -48.999c0 -42.667 26 -64 78 -64z" />
    <glyph glyph-name="AE" unicode="&#xc6;" horiz-adv-x="931" 
d="M6 8l321 732h543v-76h-347l13 -251h308v-77h-304l13 -260h329v-76h-423l-9 217h-258l-96 -217h-90v8zM227 297h220l-15 372h-40z" />
    <glyph glyph-name="Ccedilla" unicode="&#xc7;" horiz-adv-x="622" 
d="M329 -220c-13.333 0 -28.6689 1.16504 -46.002 3.49805s-33.666 5.16602 -48.999 8.49902v62c20.667 -7.33301 45 -11 73 -11s47.667 4.33301 59 13s17 23.667 17 45c0 13.333 -2.66699 26.833 -8 40.5s-14.666 31.167 -27.999 52.5
c-97.333 9.33301 -170.5 45.333 -219.5 108s-73.5 151.334 -73.5 266.001c0 126.667 29 222.167 87 286.5s144 96.5 258 96.5c24.667 0 53.167 -1.83301 85.5 -5.5s64.5 -8.5 96.5 -14.5v-79c-38.667 6.66699 -71.834 11.5 -99.501 14.5s-52.167 4.5 -73.5 4.5
c-88 0 -153.167 -24.833 -195.5 -74.5s-63.5 -125.5 -63.5 -227.5c0 -101.333 20.5 -176.5 61.5 -225.5s104.167 -73.5 189.5 -73.5c12 0 26.167 0.666992 42.5 2s33 3 50 5s33.333 4.33301 49 7s28.834 5.33398 39.501 8.00098v-78c-23.333 -6 -50.333 -11 -81 -15
s-58.667 -6.66699 -84 -8c14.667 -23.333 24.5 -41.666 29.5 -54.999s7.5 -27.333 7.5 -42c0 -36 -10.833 -64 -32.5 -84s-52.167 -30 -91.5 -30z" />
    <glyph glyph-name="Egrave" unicode="&#xc8;" horiz-adv-x="654" 
d="M322 805l-99 148h96l75 -135zM94 740h497v-76h-404v-250h381v-77h-381v-261h413v-76h-506v740z" />
    <glyph glyph-name="Eacute" unicode="&#xc9;" horiz-adv-x="654" 
d="M301 812l74 141h96l-99 -148zM94 740h497v-76h-404v-250h381v-77h-381v-261h413v-76h-506v740z" />
    <glyph glyph-name="Ecircumflex" unicode="&#xca;" horiz-adv-x="654" 
d="M94 740h497v-76h-404v-250h381v-77h-381v-261h413v-76h-506v740zM175 886l176 75l176 -75v-74l-176 75l-176 -75v74z" />
    <glyph glyph-name="Edieresis" unicode="&#xcb;" horiz-adv-x="654" 
d="M207 822c-39.333 0 -59 19.667 -59 59c0 20 5 34.5 15 43.5s24.667 13.5 44 13.5s34 -4.5 44 -13.5s15 -23.5 15 -43.5c0 -39.333 -19.667 -59 -59 -59zM489 822c-39.333 0 -58.999 19.667 -58.999 59c0 20 5 34.5 15 43.5s24.667 13.5 44 13.5s34.166 -4.5 44.499 -13.5
s15.5 -23.5 15.5 -43.5c0 -39.333 -20 -59 -60 -59zM94.001 740h497v-76h-404v-250h381v-77h-381v-261h413v-76h-506v740z" />
    <glyph glyph-name="Igrave" unicode="&#xcc;" horiz-adv-x="282" 
d="M94 740h93v-740h-93v740zM115 805l-99 148h96l75 -135z" />
    <glyph glyph-name="Iacute" unicode="&#xcd;" horiz-adv-x="282" 
d="M94 740h93v-740h-93v740zM100 812l74 141h96l-99 -148z" />
    <glyph glyph-name="Icircumflex" unicode="&#xce;" horiz-adv-x="282" 
d="M94 740h93v-740h-93v740zM-34 886l176 75l176 -75v-74l-176 75l-176 -75v74z" />
    <glyph glyph-name="Idieresis" unicode="&#xcf;" horiz-adv-x="282" 
d="M94 740h93v-740h-93v740zM1 822c-39.333 0 -59 19.667 -59 59c0 20 5 34.5 15 43.5s24.667 13.5 44 13.5s34 -4.5 44 -13.5s15 -23.5 15 -43.5c0 -39.333 -19.667 -59 -59 -59zM283 822c-39.333 0 -58.999 19.667 -58.999 59c0 20 5 34.5 15 43.5s24.667 13.5 44 13.5
s34.166 -4.5 44.499 -13.5s15.5 -23.5 15.5 -43.5c0 -39.333 -20 -59 -60 -59z" />
    <glyph glyph-name="Eth" unicode="&#xd0;" horiz-adv-x="787" 
d="M6 408h98.998v331c17.333 1.33301 36.333 2.5 57 3.5l61.5 3c20.333 1 39.833 1.83301 58.5 2.5s34.667 1 48 1c138.667 0 240.5 -30.5 305.5 -91.5s97.5 -156.833 97.5 -287.5c0 -66 -8.16699 -122.833 -24.5 -170.5s-41.5 -87 -75.5 -118s-77.5 -53.833 -130.5 -68.5
s-116.167 -22 -189.5 -22c-22.667 0 -44.667 0.333008 -66 1s-41.166 1.66699 -59.499 3s-34.666 3 -48.999 5s-25.5 4.33301 -33.5 7v325h-99v76zM341.998 68c103.333 0 178.502 23.999 225.502 71.999s70.5 124.667 70.5 230c0 104.667 -23.667 180.834 -71 228.501
s-123 71.5 -227 71.5c-18.667 0 -41.334 -0.666992 -68.001 -2s-51.334 -3 -74.001 -5v-255h195v-76h-195v-253c27.333 -4 51.5 -6.83301 72.5 -8.5s44.833 -2.5 71.5 -2.5z" />
    <glyph glyph-name="Ntilde" unicode="&#xd1;" horiz-adv-x="823" 
d="M202 866c20.667 26 42.668 45.332 66.001 57.999s46.333 19 69 19c16.667 0 32.667 -2.16699 48 -6.5s30.166 -9 44.499 -14s28.833 -9.66699 43.5 -14s30 -6.5 46 -6.5c17.333 0 34 3 50 9s32.667 15.667 50 29l23 -29c-19.333 -25.333 -41.5 -44.5 -66.5 -57.5
s-49.833 -19.5 -74.5 -19.5c-15.333 0 -30.5 2 -45.5 6s-30 8.5 -45 13.5s-29.833 9.66699 -44.5 14s-29.334 6.5 -44.001 6.5c-16 0 -31.667 -2.66699 -47 -8s-31.666 -14.666 -48.999 -27.999zM94.001 739.999h79l402 -514l63 -90h7v604h84v-740h-79l-404 515l-62 87h-6
v-602h-84v740z" />
    <glyph glyph-name="Ograve" unicode="&#xd2;" horiz-adv-x="792" 
d="M357 805l-99 148h96l75 -135zM396 -10c-109.333 0 -193.666 32.167 -252.999 96.5s-89 158.5 -89 282.5s29.667 218.5 89 283.5s143.666 97.5 252.999 97.5c108.667 0 192.667 -32.5 252 -97.5s89 -159.5 89 -283.5s-29.667 -218.167 -89 -282.5
s-143.333 -96.5 -252 -96.5zM396 68c164 0 245.999 100.334 245.999 301.001c0 101.333 -20.667 177.166 -62 227.499s-102.666 75.5 -183.999 75.5c-164.667 0 -247 -101 -247 -303c0 -200.667 82.333 -301 247 -301z" />
    <glyph glyph-name="Oacute" unicode="&#xd3;" horiz-adv-x="792" 
d="M354 812l74 141h96l-99 -148zM396 -10c-109.333 0 -193.666 32.167 -252.999 96.5s-89 158.5 -89 282.5s29.667 218.5 89 283.5s143.666 97.5 252.999 97.5c108.667 0 192.667 -32.5 252 -97.5s89 -159.5 89 -283.5s-29.667 -218.167 -89 -282.5
s-143.333 -96.5 -252 -96.5zM396 68c164 0 245.999 100.334 245.999 301.001c0 101.333 -20.667 177.166 -62 227.499s-102.666 75.5 -183.999 75.5c-164.667 0 -247 -101 -247 -303c0 -200.667 82.333 -301 247 -301z" />
    <glyph glyph-name="Ocircumflex" unicode="&#xd4;" horiz-adv-x="792" 
d="M396 -10c-109.333 0 -193.666 32.167 -252.999 96.5s-89 158.5 -89 282.5s29.667 218.5 89 283.5s143.666 97.5 252.999 97.5c108.667 0 192.667 -32.5 252 -97.5s89 -159.5 89 -283.5s-29.667 -218.167 -89 -282.5s-143.333 -96.5 -252 -96.5zM396 68
c164 0 245.999 100.334 245.999 301.001c0 101.333 -20.667 177.166 -62 227.499s-102.666 75.5 -183.999 75.5c-164.667 0 -247 -101 -247 -303c0 -200.667 82.333 -301 247 -301zM218.999 886.001l176 75l176 -75v-74l-176 75l-176 -75v74z" />
    <glyph glyph-name="Otilde" unicode="&#xd5;" horiz-adv-x="792" 
d="M186 866c20.667 26 42.668 45.332 66.001 57.999s46.333 19 69 19c16.667 0 32.667 -2.16699 48 -6.5s30.166 -9 44.499 -14s28.833 -9.66699 43.5 -14s30 -6.5 46 -6.5c17.333 0 34 3 50 9s32.667 15.667 50 29l23 -29c-19.333 -25.333 -41.5 -44.5 -66.5 -57.5
s-49.833 -19.5 -74.5 -19.5c-15.333 0 -30.5 2 -45.5 6s-30 8.5 -45 13.5s-29.833 9.66699 -44.5 14s-29.334 6.5 -44.001 6.5c-16 0 -31.667 -2.66699 -47 -8s-31.666 -14.666 -48.999 -27.999zM396.001 -10.001c-109.333 0 -193.666 32.167 -252.999 96.5
s-89 158.5 -89 282.5s29.667 218.5 89 283.5s143.666 97.5 252.999 97.5c108.667 0 192.667 -32.5 252 -97.5s89 -159.5 89 -283.5s-29.667 -218.167 -89 -282.5s-143.333 -96.5 -252 -96.5zM396.001 67.999c164 0 245.999 100.334 245.999 301.001
c0 101.333 -20.667 177.166 -62 227.499s-102.666 75.5 -183.999 75.5c-164.667 0 -247 -101 -247 -303c0 -200.667 82.333 -301 247 -301z" />
    <glyph glyph-name="Odieresis" unicode="&#xd6;" horiz-adv-x="792" 
d="M251 822c-39.333 0 -59 19.667 -59 59c0 20 5 34.5 15 43.5s24.667 13.5 44 13.5s34 -4.5 44 -13.5s15 -23.5 15 -43.5c0 -39.333 -19.667 -59 -59 -59zM533 822c-39.333 0 -58.999 19.667 -58.999 59c0 20 5 34.5 15 43.5s24.667 13.5 44 13.5s34.166 -4.5 44.499 -13.5
s15.5 -23.5 15.5 -43.5c0 -39.333 -20 -59 -60 -59zM396.001 -10c-109.333 0 -193.666 32.167 -252.999 96.5s-89 158.5 -89 282.5s29.667 218.5 89 283.5s143.666 97.5 252.999 97.5c108.667 0 192.667 -32.5 252 -97.5s89 -159.5 89 -283.5s-29.667 -218.167 -89 -282.5
s-143.333 -96.5 -252 -96.5zM396.001 68c164 0 245.999 100.334 245.999 301.001c0 101.333 -20.667 177.166 -62 227.499s-102.666 75.5 -183.999 75.5c-164.667 0 -247 -101 -247 -303c0 -200.667 82.333 -301 247 -301z" />
    <glyph glyph-name="multiply" unicode="&#xd7;" horiz-adv-x="482" 
d="M62 237l133 134l-133 133l45 46l133 -134l134 134l46 -46l-134 -134l134 -133l-45 -45l-134 133l-134 -133z" />
    <glyph glyph-name="Oslash" unicode="&#xd8;" horiz-adv-x="792" 
d="M130 103c-24.667 32 -43.499 70 -56.499 114s-19.5 94.667 -19.5 152c0 124 29.667 218.5 89 283.5s143.666 97.5 252.999 97.5c90 0 163.667 -23 221 -69l49 59h78l-85 -101c52 -65.333 78 -155.333 78 -270c0 -124 -29.5 -218.167 -88.5 -282.5
s-143.167 -96.5 -252.5 -96.5c-92.667 0 -167 23 -223 69l-50 -59h-79zM396.001 68c164.667 0 247 100.334 247 301.001c0 83.333 -14.667 149.666 -44 198.999l-371 -443c40.667 -38 96.667 -57 168 -57zM149.001 369.001c0 -80.667 13.667 -145.668 41 -195.001l371 441
c-40 38 -95 57 -165 57c-81.333 0 -142.833 -25.167 -184.5 -75.5s-62.5 -126.166 -62.5 -227.499z" />
    <glyph glyph-name="Ugrave" unicode="&#xd9;" horiz-adv-x="797" 
d="M362 805l-99 148h96l75 -135zM399 -10c-55.333 0 -102.668 6 -142.001 18s-71.666 30.667 -96.999 56s-44 57.666 -56 96.999s-18 86.666 -18 141.999v437h93v-436c0 -42.667 4.66699 -78.834 14 -108.501s23.166 -54 41.499 -73s41.333 -32.833 69 -41.5
s59.5 -13 95.5 -13s67.667 4.33301 95 13s50 22.5 68 41.5s31.667 43.333 41 73s14 65.834 14 108.501v436h94v-437c0 -55.333 -6 -102.666 -18 -141.999s-30.667 -71.666 -56 -96.999s-57.666 -44 -96.999 -56s-86.333 -18 -141 -18z" />
    <glyph glyph-name="Uacute" unicode="&#xda;" horiz-adv-x="797" 
d="M348 812l74 141h96l-99 -148zM399 -10c-55.333 0 -102.668 6 -142.001 18s-71.666 30.667 -96.999 56s-44 57.666 -56 96.999s-18 86.666 -18 141.999v437h93v-436c0 -42.667 4.66699 -78.834 14 -108.501s23.166 -54 41.499 -73s41.333 -32.833 69 -41.5
s59.5 -13 95.5 -13s67.667 4.33301 95 13s50 22.5 68 41.5s31.667 43.333 41 73s14 65.834 14 108.501v436h94v-437c0 -55.333 -6 -102.666 -18 -141.999s-30.667 -71.666 -56 -96.999s-57.666 -44 -96.999 -56s-86.333 -18 -141 -18z" />
    <glyph glyph-name="Ucircumflex" unicode="&#xdb;" horiz-adv-x="797" 
d="M399 -10c-55.333 0 -102.668 6 -142.001 18s-71.666 30.667 -96.999 56s-44 57.666 -56 96.999s-18 86.666 -18 141.999v437h93v-436c0 -42.667 4.66699 -78.834 14 -108.501s23.166 -54 41.499 -73s41.333 -32.833 69 -41.5s59.5 -13 95.5 -13s67.667 4.33301 95 13
s50 22.5 68 41.5s31.667 43.333 41 73s14 65.834 14 108.501v436h94v-437c0 -55.333 -6 -102.666 -18 -141.999s-30.667 -71.666 -56 -96.999s-57.666 -44 -96.999 -56s-86.333 -18 -141 -18zM218.998 886l176 75l176 -75v-74l-176 75l-176 -75v74z" />
    <glyph glyph-name="Udieresis" unicode="&#xdc;" horiz-adv-x="797" 
d="M254 822c-39.333 0 -59 19.667 -59 59c0 20 5 34.5 15 43.5s24.667 13.5 44 13.5s34 -4.5 44 -13.5s15 -23.5 15 -43.5c0 -39.333 -19.667 -59 -59 -59zM536 822c-39.333 0 -58.999 19.667 -58.999 59c0 20 5 34.5 15 43.5s24.667 13.5 44 13.5s34.166 -4.5 44.499 -13.5
s15.5 -23.5 15.5 -43.5c0 -39.333 -20 -59 -60 -59zM399.001 -10c-55.333 0 -102.668 6 -142.001 18s-71.666 30.667 -96.999 56s-44 57.666 -56 96.999s-18 86.666 -18 141.999v437h93v-436c0 -42.667 4.66699 -78.834 14 -108.501s23.166 -54 41.499 -73
s41.333 -32.833 69 -41.5s59.5 -13 95.5 -13s67.667 4.33301 95 13s50 22.5 68 41.5s31.667 43.333 41 73s14 65.834 14 108.501v436h94v-437c0 -55.333 -6 -102.666 -18 -141.999s-30.667 -71.666 -56 -96.999s-57.666 -44 -96.999 -56s-86.333 -18 -141 -18z" />
    <glyph glyph-name="Yacute" unicode="&#xdd;" horiz-adv-x="664" 
d="M286 247l-282 493h100l191 -338l32 -69h10l32 69l190 338h100l-280 -491v-249h-93v247zM292 812l74 141h96l-99 -148z" />
    <glyph glyph-name="Thorn" unicode="&#xde;" horiz-adv-x="688" 
d="M94 741l92.999 -0.000976562v-123c18 1.33301 36 2.5 54 3.5s35.667 1.5 53 1.5c122.667 0 212.334 -20.167 269.001 -60.5s85 -104.166 85 -191.499c0 -44 -6.66699 -82 -20 -114s-34 -58.167 -62 -78.5s-64 -35.333 -108 -45s-96.333 -14.5 -157 -14.5
c-17.333 0 -35.333 0.333008 -54 1s-38.667 2 -60 4v-124h-93v741zM304.999 198.999c46.667 0 86.001 2.83105 118.001 8.49805s57.833 15.334 77.5 29.001s33.667 31.5 42 53.5s12.5 49 12.5 81c0 31.333 -4.5 57.833 -13.5 79.5s-23.667 39.334 -44 53.001
s-47 23.5 -80 29.5s-73.167 9 -120.5 9c-8 0 -17.167 -0.166992 -27.5 -0.5l-31 -1c-10.333 -0.333008 -20 -1 -29 -2s-16.5 -2.16699 -22.5 -3.5v-327c3.33301 -1.33301 9.66602 -2.5 18.999 -3.5s19.833 -2 31.5 -3s23.5 -1.66699 35.5 -2s22.667 -0.5 32 -0.5z" />
    <glyph glyph-name="germandbls" unicode="&#xdf;" horiz-adv-x="699" 
d="M80 586c0 79.333 21.334 136.663 64.001 171.996s106.334 53 191.001 53c85.333 0 149.666 -18 192.999 -54s65 -93 65 -171v-103h-116c-42 0 -73.667 -7.16699 -95 -21.5s-32 -35.166 -32 -62.499c0 -16 3.5 -29.167 10.5 -39.5s16.667 -18.666 29 -24.999
s27 -11.5 44 -15.5s35.5 -7.66699 55.5 -11c24.667 -4 47.667 -9.5 69 -16.5s40 -16.333 56 -28s28.667 -26.667 38 -45s14 -41.166 14 -68.499c0 -51.333 -18.667 -91 -56 -119s-90.333 -42 -159 -42c-26 0 -54.333 1.83301 -85 5.5s-68.334 9.83398 -113.001 18.501v69
c73.333 -16.667 138 -25 194 -25c85.333 0 128 29.333 128 88c0 16 -3 29.333 -9 40s-14.5 19.5 -25.5 26.5s-24 12.5 -39 16.5s-31.167 7.66699 -48.5 11c-22 4 -44.5 8.33301 -67.5 13s-43.667 12.5 -62 23.5s-33.5 26.167 -45.5 45.5s-18 45 -18 77
c0 48.667 18.667 86.667 56 114s89.333 41 156 41h28v33c0 52.667 -13.333 90.667 -40 114s-68 35 -124 35s-97.333 -11.5 -124 -34.5s-40 -61.167 -40 -114.5v-586h-92v586z" />
    <glyph glyph-name="agrave" unicode="&#xe0;" horiz-adv-x="561" 
d="M192 -5c-99.333 0 -148.997 47.334 -148.997 142.001c0 52.667 16.667 92.667 50 120s87 44 161 50l140 11v33c0 24 -2.16699 43.833 -6.5 59.5s-11.833 28.167 -22.5 37.5s-25.334 16 -44.001 20s-42.334 6 -71.001 6c-24.667 0 -50.334 -1.33301 -77.001 -4
s-57 -7.33398 -91 -14.001l-7 70c38 7.33301 72.167 12.333 102.5 15s61.5 4 93.5 4c73.333 0 127.5 -14.5 162.5 -43.5s52.5 -74.167 52.5 -135.5v-366h-75l-10 69h-6c-72 -49.333 -139.667 -74 -203 -74zM226.003 65.001c25.333 0 52.168 5.16602 80.501 15.499
s57.5 25.5 87.5 45.5v135l-112 -10c-27.333 -2.66699 -50.333 -6.33398 -69 -11.001s-33.667 -11.167 -45 -19.5s-19.5 -18.666 -24.5 -30.999s-7.5 -27.166 -7.5 -44.499c0 -28 7.16699 -48.333 21.5 -61s37.166 -19 68.499 -19zM247.005 616l-101 192h101l70 -182z" />
    <glyph glyph-name="aacute" unicode="&#xe1;" horiz-adv-x="561" 
d="M192 -5c-99.333 0 -148.997 47.334 -148.997 142.001c0 52.667 16.667 92.667 50 120s87 44 161 50l140 11v33c0 24 -2.16699 43.833 -6.5 59.5s-11.833 28.167 -22.5 37.5s-25.334 16 -44.001 20s-42.334 6 -71.001 6c-24.667 0 -50.334 -1.33301 -77.001 -4
s-57 -7.33398 -91 -14.001l-7 70c38 7.33301 72.167 12.333 102.5 15s61.5 4 93.5 4c73.333 0 127.5 -14.5 162.5 -43.5s52.5 -74.167 52.5 -135.5v-366h-75l-10 69h-6c-72 -49.333 -139.667 -74 -203 -74zM226.003 65.001c25.333 0 52.168 5.16602 80.501 15.499
s57.5 25.5 87.5 45.5v135l-112 -10c-27.333 -2.66699 -50.333 -6.33398 -69 -11.001s-33.667 -11.167 -45 -19.5s-19.5 -18.666 -24.5 -30.999s-7.5 -27.166 -7.5 -44.499c0 -28 7.16699 -48.333 21.5 -61s37.166 -19 68.499 -19zM248.005 616l70 185h95l-99 -192z" />
    <glyph glyph-name="acircumflex" unicode="&#xe2;" horiz-adv-x="561" 
d="M192 -5c-99.333 0 -148.997 47.334 -148.997 142.001c0 52.667 16.667 92.667 50 120s87 44 161 50l140 11v33c0 24 -2.16699 43.833 -6.5 59.5s-11.833 28.167 -22.5 37.5s-25.334 16 -44.001 20s-42.334 6 -71.001 6c-24.667 0 -50.334 -1.33301 -77.001 -4
s-57 -7.33398 -91 -14.001l-7 70c38 7.33301 72.167 12.333 102.5 15s61.5 4 93.5 4c73.333 0 127.5 -14.5 162.5 -43.5s52.5 -74.167 52.5 -135.5v-366h-75l-10 69h-6c-72 -49.333 -139.667 -74 -203 -74zM226.003 65.001c25.333 0 52.168 5.16602 80.501 15.499
s57.5 25.5 87.5 45.5v135l-112 -10c-27.333 -2.66699 -50.333 -6.33398 -69 -11.001s-33.667 -11.167 -45 -19.5s-19.5 -18.666 -24.5 -30.999s-7.5 -27.166 -7.5 -44.499c0 -28 7.16699 -48.333 21.5 -61s37.166 -19 68.499 -19zM107.005 703l175 75l176 -75v-73l-175 75
l-176 -75v73z" />
    <glyph glyph-name="atilde" unicode="&#xe3;" horiz-adv-x="561" 
d="M192 -5c-99.333 0 -148.997 47.334 -148.997 142.001c0 52.667 16.667 92.667 50 120s87 44 161 50l140 11v33c0 24 -2.16699 43.833 -6.5 59.5s-11.833 28.167 -22.5 37.5s-25.334 16 -44.001 20s-42.334 6 -71.001 6c-24.667 0 -50.334 -1.33301 -77.001 -4
s-57 -7.33398 -91 -14.001l-7 70c38 7.33301 72.167 12.333 102.5 15s61.5 4 93.5 4c73.333 0 127.5 -14.5 162.5 -43.5s52.5 -74.167 52.5 -135.5v-366h-75l-10 69h-6c-72 -49.333 -139.667 -74 -203 -74zM226.003 65.001c25.333 0 52.168 5.16602 80.501 15.499
s57.5 25.5 87.5 45.5v135l-112 -10c-27.333 -2.66699 -50.333 -6.33398 -69 -11.001s-33.667 -11.167 -45 -19.5s-19.5 -18.666 -24.5 -30.999s-7.5 -27.166 -7.5 -44.499c0 -28 7.16699 -48.333 21.5 -61s37.166 -19 68.499 -19zM64.0049 681
c20.667 26.667 42.501 46.332 65.501 58.999s45.833 19 68.5 19c17.333 0 33.5 -2.16699 48.5 -6.5s29.833 -9 44.5 -14s29.167 -9.66699 43.5 -14s29.5 -6.5 45.5 -6.5c17.333 0 34 2.83301 50 8.5s32.667 15.167 50 28.5l24 -28c-20 -25.333 -42.333 -44.666 -67 -57.999
s-49.334 -20 -74.001 -20c-15.333 0 -30.666 2.16699 -45.999 6.5s-30.5 9 -45.5 14s-29.833 9.66699 -44.5 14s-29.334 6.5 -44.001 6.5c-16 0 -31.667 -2.83301 -47 -8.5s-31.333 -15.167 -48 -28.5z" />
    <glyph glyph-name="adieresis" unicode="&#xe4;" horiz-adv-x="561" 
d="M192 -5c-99.333 0 -148.997 47.334 -148.997 142.001c0 52.667 16.667 92.667 50 120s87 44 161 50l140 11v33c0 24 -2.16699 43.833 -6.5 59.5s-11.833 28.167 -22.5 37.5s-25.334 16 -44.001 20s-42.334 6 -71.001 6c-24.667 0 -50.334 -1.33301 -77.001 -4
s-57 -7.33398 -91 -14.001l-7 70c38 7.33301 72.167 12.333 102.5 15s61.5 4 93.5 4c73.333 0 127.5 -14.5 162.5 -43.5s52.5 -74.167 52.5 -135.5v-366h-75l-10 69h-6c-72 -49.333 -139.667 -74 -203 -74zM226.003 65.001c25.333 0 52.168 5.16602 80.501 15.499
s57.5 25.5 87.5 45.5v135l-112 -10c-27.333 -2.66699 -50.333 -6.33398 -69 -11.001s-33.667 -11.167 -45 -19.5s-19.5 -18.666 -24.5 -30.999s-7.5 -27.166 -7.5 -44.499c0 -28 7.16699 -48.333 21.5 -61s37.166 -19 68.499 -19zM155.005 655c-36 0 -54 18 -54 54
c0 34.667 18 52 54 52s54 -17.333 54 -52c0 -36 -18 -54 -54 -54zM412.005 655c-36 0 -54 18 -54 54c0 34.667 18 52 54 52c35.333 0 53 -17.333 53 -52c0 -36 -17.667 -54 -53 -54z" />
    <glyph glyph-name="aring" unicode="&#xe5;" horiz-adv-x="561" 
d="M192 -5c-99.333 0 -148.997 47.334 -148.997 142.001c0 52.667 16.667 92.667 50 120s87 44 161 50l140 11v33c0 24 -2.16699 43.833 -6.5 59.5s-11.833 28.167 -22.5 37.5s-25.334 16 -44.001 20s-42.334 6 -71.001 6c-24.667 0 -50.334 -1.33301 -77.001 -4
s-57 -7.33398 -91 -14.001l-7 70c38 7.33301 72.167 12.333 102.5 15s61.5 4 93.5 4c73.333 0 127.5 -14.5 162.5 -43.5s52.5 -74.167 52.5 -135.5v-366h-75l-10 69h-6c-72 -49.333 -139.667 -74 -203 -74zM226.003 65.001c25.333 0 52.168 5.16602 80.501 15.499
s57.5 25.5 87.5 45.5v135l-112 -10c-27.333 -2.66699 -50.333 -6.33398 -69 -11.001s-33.667 -11.167 -45 -19.5s-19.5 -18.666 -24.5 -30.999s-7.5 -27.166 -7.5 -44.499c0 -28 7.16699 -48.333 21.5 -61s37.166 -19 68.499 -19zM282.005 598c-18 0 -35 2.66699 -51 8
s-29.667 12.833 -41 22.5s-20.333 21.167 -27 34.5s-10 28 -10 44s3.33301 30.833 10 44.5s15.667 25.334 27 35.001s25 17.334 41 23.001s33 8.5 51 8.5s34.667 -2.83301 50 -8.5s28.833 -13.334 40.5 -23.001s20.667 -21.334 27 -35.001s9.5 -28.5 9.5 -44.5
s-3.16699 -30.667 -9.5 -44s-15.333 -24.833 -27 -34.5s-25.167 -17.167 -40.5 -22.5s-32 -8 -50 -8zM282.005 643c50.667 0 75.999 21.333 75.999 64c0 21.333 -6.33301 37.666 -19 48.999s-31.667 17 -57 17s-44.666 -5.66699 -57.999 -17s-20 -27.666 -20 -48.999
c0 -42.667 26 -64 78 -64z" />
    <glyph glyph-name="ae" unicode="&#xe6;" horiz-adv-x="924" 
d="M662 -11c-51.333 0 -94.8379 8.16797 -130.505 24.501s-63.5 40.5 -83.5 72.5l-5 1c-55.333 -34 -102.666 -57.833 -141.999 -71.5s-75.666 -20.5 -108.999 -20.5c-98.667 0 -148 47.333 -148 142c0 52 16.667 91.5 50 118.5s86.666 43.5 159.999 49.5l141 11v41
c0 22 -2.33301 40.5 -7 55.5s-12.667 27 -24 36s-26.166 15.5 -44.499 19.5s-41.166 6 -68.499 6c-25.333 0 -51.166 -1.33301 -77.499 -4s-56.5 -7.33398 -90.5 -14.001l-8 70c38 7.33301 72.167 12.333 102.5 15s61.5 4 93.5 4c99.333 0 160.666 -31.667 183.999 -95h6
c19.333 31.333 45.333 55.333 78 72s72 25 118 25c70.667 0 124.5 -20.333 161.5 -61s55.5 -100 55.5 -178c0 -31.333 -2 -54.333 -6 -69h-380c2.66699 -60.667 18.834 -105.167 48.501 -133.5s74.834 -42.5 135.501 -42.5c28.667 0 58.334 2.33301 89.001 7
s60.667 11.667 90 21l5 -70c-29.333 -10 -61.333 -17.833 -96 -23.5s-67.334 -8.5 -98.001 -8.5zM789.995 294.001c-1.33301 66 -12.5 113.167 -33.5 141.5s-55.167 42.5 -102.5 42.5c-104.667 0 -160 -61.333 -166 -184h302zM226.995 64.001c24.667 0 51.332 5 79.999 15
s58 25 88 45v139l-113 -10c-27.333 -2.66699 -50.166 -6.5 -68.499 -11.5s-33.166 -11.667 -44.499 -20s-19.5 -18.833 -24.5 -31.5s-7.5 -27.667 -7.5 -45c0 -28 7.16699 -48.5 21.5 -61.5s37.166 -19.5 68.499 -19.5z" />
    <glyph glyph-name="ccedilla" unicode="&#xe7;" horiz-adv-x="506" 
d="M253 -220c-13.333 0 -28.6689 1.16699 -46.002 3.5s-33.666 5.16602 -48.999 8.49902v62c20.667 -7.33301 45 -11 73 -11s47.667 4.33301 59 13s17 23.667 17 45c0 13.333 -2.66699 26.833 -8 40.5s-14.666 31.167 -27.999 52.5c-147.333 15.333 -221 107 -221 275
c0 186.667 89.667 280 269 280c23.333 0 47.833 -1.33301 73.5 -4s48.167 -6.33398 67.5 -11.001v-77c-43.333 9.33301 -87 14 -131 14c-124.667 0 -187 -67 -187 -201c0 -70.667 14.667 -121.834 44 -153.501s76.333 -47.5 141 -47.5c25.333 0 48 0.833008 68 2.5
s41.667 4.83398 65 9.50098v-75c-14.667 -4 -32.667 -7.16699 -54 -9.5s-43.333 -4.16602 -66 -5.49902c14.667 -23.333 24.5 -41.666 29.5 -54.999s7.5 -27.333 7.5 -42c0 -36 -10.833 -64 -32.5 -84s-52.167 -30 -91.5 -30z" />
    <glyph glyph-name="egrave" unicode="&#xe8;" horiz-adv-x="577" 
d="M315 -9c-176 0 -263.999 91 -263.999 273c0 92 21.833 162.5 65.5 211.5s107.167 73.5 190.5 73.5c146.667 0 220 -81 220 -243c0 -14.667 -0.5 -27.834 -1.5 -39.501s-2.83301 -21.5 -5.5 -29.5h-378c4 -61.333 20.667 -105.333 50 -132s74.666 -40 135.999 -40
c28 0 57.333 2.33301 88 7s60 11.334 88 20.001l5 -69c-28.667 -10 -60.167 -17.833 -94.5 -23.5s-67.5 -8.5 -99.5 -8.5zM305.001 479c-100.667 0 -155.001 -59.333 -163.001 -178h301c-2 64 -13.667 109.667 -35 137s-55.666 41 -102.999 41zM261 616l-101 192h101
l70 -182z" />
    <glyph glyph-name="eacute" unicode="&#xe9;" horiz-adv-x="577" 
d="M276 616l70 185h95l-99 -192zM315 -9c-176 0 -263.999 91 -263.999 273c0 92 21.833 162.5 65.5 211.5s107.167 73.5 190.5 73.5c146.667 0 220 -81 220 -243c0 -14.667 -0.5 -27.834 -1.5 -39.501s-2.83301 -21.5 -5.5 -29.5h-378c4 -61.333 20.667 -105.333 50 -132
s74.666 -40 135.999 -40c28 0 57.333 2.33301 88 7s60 11.334 88 20.001l5 -69c-28.667 -10 -60.167 -17.833 -94.5 -23.5s-67.5 -8.5 -99.5 -8.5zM305.001 479c-100.667 0 -155.001 -59.333 -163.001 -178h301c-2 64 -13.667 109.667 -35 137s-55.666 41 -102.999 41z" />
    <glyph glyph-name="ecircumflex" unicode="&#xea;" horiz-adv-x="577" 
d="M127 703l175 75l176 -75v-73l-175 75l-176 -75v73zM315 -9c-176 0 -263.999 91 -263.999 273c0 92 21.833 162.5 65.5 211.5s107.167 73.5 190.5 73.5c146.667 0 220 -81 220 -243c0 -14.667 -0.5 -27.834 -1.5 -39.501s-2.83301 -21.5 -5.5 -29.5h-378
c4 -61.333 20.667 -105.333 50 -132s74.666 -40 135.999 -40c28 0 57.333 2.33301 88 7s60 11.334 88 20.001l5 -69c-28.667 -10 -60.167 -17.833 -94.5 -23.5s-67.5 -8.5 -99.5 -8.5zM305.001 479c-100.667 0 -155.001 -59.333 -163.001 -178h301
c-2 64 -13.667 109.667 -35 137s-55.666 41 -102.999 41z" />
    <glyph glyph-name="edieresis" unicode="&#xeb;" horiz-adv-x="577" 
d="M171 655c-36 0 -54 18 -54 54c0 34.667 18 52 54 52s54 -17.333 54 -52c0 -36 -18 -54 -54 -54zM428 655c-36 0 -54 18 -54 54c0 34.667 18 52 54 52c35.333 0 53 -17.333 53 -52c0 -36 -17.667 -54 -53 -54zM315 -9c-176 0 -263.999 91 -263.999 273
c0 92 21.833 162.5 65.5 211.5s107.167 73.5 190.5 73.5c146.667 0 220 -81 220 -243c0 -14.667 -0.5 -27.834 -1.5 -39.501s-2.83301 -21.5 -5.5 -29.5h-378c4 -61.333 20.667 -105.333 50 -132s74.666 -40 135.999 -40c28 0 57.333 2.33301 88 7s60 11.334 88 20.001
l5 -69c-28.667 -10 -60.167 -17.833 -94.5 -23.5s-67.5 -8.5 -99.5 -8.5zM305.001 479c-100.667 0 -155.001 -59.333 -163.001 -178h301c-2 64 -13.667 109.667 -35 137s-55.666 41 -102.999 41z" />
    <glyph glyph-name="igrave" unicode="&#xec;" horiz-adv-x="254" 
d="M81 540h92v-540h-92v540zM86 616l-101 192h101l70 -182z" />
    <glyph glyph-name="iacute" unicode="&#xed;" horiz-adv-x="254" 
d="M96 616l70 185h95l-99 -192zM81 540h92v-540h-92v540z" />
    <glyph glyph-name="icircumflex" unicode="&#xee;" horiz-adv-x="254" 
d="M-41 703l169 75l170 -75v-73l-169 75l-170 -75v73zM81 540h92v-540h-92v540z" />
    <glyph glyph-name="idieresis" unicode="&#xef;" horiz-adv-x="254" 
d="M7 655c-36 0 -54 18 -54 54c0 34.667 18 52 54 52c35.333 0 53 -17.333 53 -52c0 -36 -17.667 -54 -53 -54zM250 655c-36 0 -54 18 -54 54c0 34.667 18 52 54 52c35.333 0 53 -17.333 53 -52c0 -36 -17.667 -54 -53 -54zM81 540h92v-540h-92v540z" />
    <glyph glyph-name="eth" unicode="&#xf0;" horiz-adv-x="643" 
d="M223 685l158.003 15.9971c-24 36 -53.333 71.667 -88 107h99c11.333 -13.333 23.166 -28.166 35.499 -44.499s24.5 -34.166 36.5 -53.499l159 16v-64l-125 -13c23.333 -45.333 42.666 -96.333 57.999 -153s23 -120 23 -190c0 -103.333 -22.833 -181.833 -68.5 -235.5
s-111.167 -80.5 -196.5 -80.5s-150.833 24 -196.5 72s-68.5 117 -68.5 207s22.667 159.333 68 208s108.666 73 189.999 73c42.667 0 78 -8 106 -24s51.667 -41.333 71 -76c-13.333 68.667 -35.333 132.334 -66 191.001l-195 -20v64zM315.003 63.9971
c58.667 0 101.832 18.3301 129.499 54.9971s41.5 93.334 41.5 170.001c0 26.667 -3.66699 51.334 -11 74.001s-18.333 42.334 -33 59.001s-32.667 29.667 -54 39s-46 14 -74 14c-59.333 0 -102.666 -16.667 -129.999 -50s-41 -85 -41 -155
c0 -70.667 13.667 -122.667 41 -156s71 -50 131 -50z" />
    <glyph glyph-name="ntilde" unicode="&#xf1;" horiz-adv-x="646" 
d="M80 540h75.998l6 -64h6c30 13.333 57 24.666 81 33.999s45.833 17 65.5 23s38 10.333 55 13s33.5 4 49.5 4c48 0 85.167 -12.5 111.5 -37.5s39.5 -62.5 39.5 -112.5v-400h-92v367c0 38.667 -7.66699 66.334 -23 83.001s-39 25 -71 25
c-27.333 0 -59.166 -5.66699 -95.499 -17s-75.166 -26.333 -116.499 -45v-413h-92v540zM109.998 681c20.667 26.667 42.501 46.332 65.501 58.999s45.833 19 68.5 19c17.333 0 33.5 -2.16699 48.5 -6.5s29.833 -9 44.5 -14s29.167 -9.66699 43.5 -14s29.5 -6.5 45.5 -6.5
c17.333 0 34 2.83301 50 8.5s32.667 15.167 50 28.5l24 -28c-20 -25.333 -42.333 -44.666 -67 -57.999s-49.334 -20 -74.001 -20c-15.333 0 -30.666 2.16699 -45.999 6.5s-30.5 9 -45.5 14s-29.833 9.66699 -44.5 14s-29.334 6.5 -44.001 6.5
c-16 0 -31.667 -2.83301 -47 -8.5s-31.333 -15.167 -48 -28.5z" />
    <glyph glyph-name="ograve" unicode="&#xf2;" horiz-adv-x="629" 
d="M315 -10c-86 0 -151.833 24 -197.5 72s-68.5 117.333 -68.5 208s22.833 160 68.5 208s111.5 72 197.5 72c85.333 0 150.666 -24 195.999 -72s68 -117.333 68 -208s-22.667 -160 -68 -208s-110.666 -72 -195.999 -72zM315 64c59.333 0 102.666 16.667 129.999 50
s41 85.333 41 156s-13.667 122.5 -41 155.5s-70.666 49.5 -129.999 49.5s-102.833 -16.5 -130.5 -49.5s-41.5 -84.833 -41.5 -155.5s13.833 -122.667 41.5 -156s71.167 -50 130.5 -50zM270 616l-101 192h101l70 -182z" />
    <glyph glyph-name="oacute" unicode="&#xf3;" horiz-adv-x="629" 
d="M279 616l70 185h95l-99 -192zM315 -10c-86 0 -151.833 24 -197.5 72s-68.5 117.333 -68.5 208s22.833 160 68.5 208s111.5 72 197.5 72c85.333 0 150.666 -24 195.999 -72s68 -117.333 68 -208s-22.667 -160 -68 -208s-110.666 -72 -195.999 -72zM315 64
c59.333 0 102.666 16.667 129.999 50s41 85.333 41 156s-13.667 122.5 -41 155.5s-70.666 49.5 -129.999 49.5s-102.833 -16.5 -130.5 -49.5s-41.5 -84.833 -41.5 -155.5s13.833 -122.667 41.5 -156s71.167 -50 130.5 -50z" />
    <glyph glyph-name="ocircumflex" unicode="&#xf4;" horiz-adv-x="629" 
d="M137 703l175 75l176 -75v-73l-175 75l-176 -75v73zM315 -10c-86 0 -151.833 24 -197.5 72s-68.5 117.333 -68.5 208s22.833 160 68.5 208s111.5 72 197.5 72c85.333 0 150.666 -24 195.999 -72s68 -117.333 68 -208s-22.667 -160 -68 -208s-110.666 -72 -195.999 -72z
M315 64c59.333 0 102.666 16.667 129.999 50s41 85.333 41 156s-13.667 122.5 -41 155.5s-70.666 49.5 -129.999 49.5s-102.833 -16.5 -130.5 -49.5s-41.5 -84.833 -41.5 -155.5s13.833 -122.667 41.5 -156s71.167 -50 130.5 -50z" />
    <glyph glyph-name="otilde" unicode="&#xf5;" horiz-adv-x="629" 
d="M315 -10c-86 0 -151.833 24 -197.5 72s-68.5 117.333 -68.5 208s22.833 160 68.5 208s111.5 72 197.5 72c85.333 0 150.666 -24 195.999 -72s68 -117.333 68 -208s-22.667 -160 -68 -208s-110.666 -72 -195.999 -72zM315 64c59.333 0 102.666 16.667 129.999 50
s41 85.333 41 156s-13.667 122.5 -41 155.5s-70.666 49.5 -129.999 49.5s-102.833 -16.5 -130.5 -49.5s-41.5 -84.833 -41.5 -155.5s13.833 -122.667 41.5 -156s71.167 -50 130.5 -50zM96 681c20.667 26.667 42.501 46.332 65.501 58.999s45.833 19 68.5 19
c17.333 0 33.5 -2.16699 48.5 -6.5s29.833 -9 44.5 -14s29.167 -9.66699 43.5 -14s29.5 -6.5 45.5 -6.5c17.333 0 34 2.83301 50 8.5s32.667 15.167 50 28.5l24 -28c-20 -25.333 -42.333 -44.666 -67 -57.999s-49.334 -20 -74.001 -20
c-15.333 0 -30.666 2.16699 -45.999 6.5s-30.5 9 -45.5 14s-29.833 9.66699 -44.5 14s-29.334 6.5 -44.001 6.5c-16 0 -31.667 -2.83301 -47 -8.5s-31.333 -15.167 -48 -28.5z" />
    <glyph glyph-name="odieresis" unicode="&#xf6;" horiz-adv-x="629" 
d="M185 655c-36 0 -54 18 -54 54c0 34.667 18 52 54 52s54 -17.333 54 -52c0 -36 -18 -54 -54 -54zM442 655c-36 0 -54 18 -54 54c0 34.667 18 52 54 52c35.333 0 53 -17.333 53 -52c0 -36 -17.667 -54 -53 -54zM315 -10c-86 0 -151.833 24 -197.5 72
s-68.5 117.333 -68.5 208s22.833 160 68.5 208s111.5 72 197.5 72c85.333 0 150.666 -24 195.999 -72s68 -117.333 68 -208s-22.667 -160 -68 -208s-110.666 -72 -195.999 -72zM315 64c59.333 0 102.666 16.667 129.999 50s41 85.333 41 156s-13.667 122.5 -41 155.5
s-70.666 49.5 -129.999 49.5s-102.833 -16.5 -130.5 -49.5s-41.5 -84.833 -41.5 -155.5s13.833 -122.667 41.5 -156s71.167 -50 130.5 -50z" />
    <glyph glyph-name="divide" unicode="&#xf7;" horiz-adv-x="530" 
d="M268 160c-14 0 -25.333 4 -34 12s-13 19.667 -13 35s4.33301 27 13 35s20 12 34 12s25.333 -4 34 -12s13 -19.667 13 -35s-4.33301 -27 -13 -35s-20 -12 -34 -12zM67 402h397v-64h-397v64zM268 480c-14 0 -25.333 4 -34 12s-13 19.667 -13 35s4.33301 27.166 13 35.499
s20 12.5 34 12.5s25.333 -4.16699 34 -12.5s13 -20.166 13 -35.499s-4.33301 -27 -13 -35s-20 -12 -34 -12z" />
    <glyph glyph-name="oslash" unicode="&#xf8;" horiz-adv-x="635" 
d="M104 83c-34 46.667 -51 109 -51 187c0 88.667 22.167 157.5 66.5 206.5s110.5 73.5 198.5 73.5c71.333 0 129 -17 173 -51l39 41h80l-78 -84c34 -47.333 51 -109.333 51 -186c0 -89.333 -22.333 -158.333 -67 -207s-110.667 -73 -198 -73c-72 0 -130 17 -174 51l-38 -41
h-80zM318 64c62.667 0 107 17.167 133 51.5s39 85.833 39 154.5c0 50.667 -6.66699 90.667 -20 120l-271 -290c28 -24 67.667 -36 119 -36zM146 270c0 -50.667 6.33203 -91 18.999 -121l271 290c-27.333 24 -66.666 36 -117.999 36c-62.667 0 -107 -17 -133 -51
s-39 -85.333 -39 -154z" />
    <glyph glyph-name="ugrave" unicode="&#xf9;" horiz-adv-x="646" 
d="M217 -10c-46.667 0 -81.834 12.834 -105.501 38.501s-35.5 62.834 -35.5 111.501v400h92v-369c0 -36.667 6.66699 -63.167 20 -79.5s35.666 -24.5 66.999 -24.5c18 0 36.333 2.16699 55 6.5s37.5 9.66602 56.5 15.999s37.667 13.5 56 21.5l51.5 23v406h92v-540h-76l-6 69
h-4l-81 -35.5c-22.667 -9.66699 -43.667 -17.834 -63 -24.501s-38.166 -11.5 -56.499 -14.5s-39.166 -4.5 -62.499 -4.5zM276 616.001l-101 192h101l70 -182z" />
    <glyph glyph-name="uacute" unicode="&#xfa;" horiz-adv-x="646" 
d="M283 616l70 185h95l-99 -192zM217 -10c-46.667 0 -81.834 12.834 -105.501 38.501s-35.5 62.834 -35.5 111.501v400h92v-369c0 -36.667 6.66699 -63.167 20 -79.5s35.666 -24.5 66.999 -24.5c18 0 36.333 2.16699 55 6.5s37.5 9.66602 56.5 15.999s37.667 13.5 56 21.5
l51.5 23v406h92v-540h-76l-6 69h-4l-81 -35.5c-22.667 -9.66699 -43.667 -17.834 -63 -24.501s-38.166 -11.5 -56.499 -14.5s-39.166 -4.5 -62.499 -4.5z" />
    <glyph glyph-name="ucircumflex" unicode="&#xfb;" horiz-adv-x="646" 
d="M144 703l175 75l176 -75v-73l-175 75l-176 -75v73zM217 -10c-46.667 0 -81.834 12.834 -105.501 38.501s-35.5 62.834 -35.5 111.501v400h92v-369c0 -36.667 6.66699 -63.167 20 -79.5s35.666 -24.5 66.999 -24.5c18 0 36.333 2.16699 55 6.5s37.5 9.66602 56.5 15.999
s37.667 13.5 56 21.5l51.5 23v406h92v-540h-76l-6 69h-4l-81 -35.5c-22.667 -9.66699 -43.667 -17.834 -63 -24.501s-38.166 -11.5 -56.499 -14.5s-39.166 -4.5 -62.499 -4.5z" />
    <glyph glyph-name="udieresis" unicode="&#xfc;" horiz-adv-x="646" 
d="M190 655c-36 0 -54 18 -54 54c0 34.667 18 52 54 52s54 -17.333 54 -52c0 -36 -18 -54 -54 -54zM447 655c-36 0 -54 18 -54 54c0 34.667 18 52 54 52c35.333 0 53 -17.333 53 -52c0 -36 -17.667 -54 -53 -54zM217 -10c-46.667 0 -81.834 12.834 -105.501 38.501
s-35.5 62.834 -35.5 111.501v400h92v-369c0 -36.667 6.66699 -63.167 20 -79.5s35.666 -24.5 66.999 -24.5c18 0 36.333 2.16699 55 6.5s37.5 9.66602 56.5 15.999s37.667 13.5 56 21.5l51.5 23v406h92v-540h-76l-6 69h-4l-81 -35.5
c-22.667 -9.66699 -43.667 -17.834 -63 -24.501s-38.166 -11.5 -56.499 -14.5s-39.166 -4.5 -62.499 -4.5z" />
    <glyph glyph-name="yacute" unicode="&#xfd;" horiz-adv-x="598" 
d="M164 -206l-1 11l89 201l-234 522v12h99l151 -358l28 -82h6l28 82l157 358h96v-12l-337 -748zM268 616l70 185h95l-99 -192z" />
    <glyph glyph-name="thorn" unicode="&#xfe;" horiz-adv-x="642" 
d="M80 808l91.001 0.000976562v-330c19.333 21.333 44.166 38.666 74.499 51.999s67.833 20 112.5 20c78 0 136.5 -22.167 175.5 -66.5s58.5 -114.5 58.5 -210.5c0 -95.333 -24.5 -166.333 -73.5 -213s-120.167 -70 -213.5 -70c-22 0 -45.167 1.33301 -69.5 4
s-45.833 4.66699 -64.5 6v-220h-91v1028zM305.001 58.001c32.667 0 61.167 3.16602 85.5 9.49902s44.5 17.5 60.5 33.5s28 37.333 36 64s12 60.334 12 101.001c0 41.333 -3.33301 75.666 -10 102.999s-16.667 49.333 -30 66s-30.5 28.334 -51.5 35.001s-45.5 10 -73.5 10
c-50.667 0 -90.5 -14 -119.5 -42s-43.5 -68.667 -43.5 -122v-244c20 -4 42.167 -7.33301 66.5 -10s46.833 -4 67.5 -4z" />
    <glyph glyph-name="ydieresis" unicode="&#xff;" horiz-adv-x="598" 
d="M164 -206l-1 11l89 201l-234 522v12h99l151 -358l28 -82h6l28 82l157 358h96v-12l-337 -748zM170 655c-36 0 -54 18 -54 54c0 34.667 18 52 54 52s54 -17.333 54 -52c0 -36 -18 -54 -54 -54zM427 655c-36 0 -54 18 -54 54c0 34.667 18 52 54 52
c35.333 0 53 -17.333 53 -52c0 -36 -17.667 -54 -53 -54z" />
    <glyph glyph-name="Amacron" unicode="&#x100;" horiz-adv-x="723" 
d="M7 7l283 733h143l283 -733v-7h-93l-84 217h-355l-84 -217h-93v7zM512 297l-94 243l-52 136h-9l-51 -136l-95 -243h301zM189 911h347v-69h-347v69z" />
    <glyph glyph-name="amacron" unicode="&#x101;" horiz-adv-x="561" 
d="M192 -5c-99.333 0 -148.997 47.334 -148.997 142.001c0 52.667 16.667 92.667 50 120s87 44 161 50l140 11v33c0 24 -2.16699 43.833 -6.5 59.5s-11.833 28.167 -22.5 37.5s-25.334 16 -44.001 20s-42.334 6 -71.001 6c-24.667 0 -50.334 -1.33301 -77.001 -4
s-57 -7.33398 -91 -14.001l-7 70c38 7.33301 72.167 12.333 102.5 15s61.5 4 93.5 4c73.333 0 127.5 -14.5 162.5 -43.5s52.5 -74.167 52.5 -135.5v-366h-75l-10 69h-6c-72 -49.333 -139.667 -74 -203 -74zM226.003 65.001c25.333 0 52.168 5.16602 80.501 15.499
s57.5 25.5 87.5 45.5v135l-112 -10c-27.333 -2.66699 -50.333 -6.33398 -69 -11.001s-33.667 -11.167 -45 -19.5s-19.5 -18.666 -24.5 -30.999s-7.5 -27.166 -7.5 -44.499c0 -28 7.16699 -48.333 21.5 -61s37.166 -19 68.499 -19zM114.005 718h348v-68h-348v68z" />
    <glyph glyph-name="Abreve" unicode="&#x102;" horiz-adv-x="723" 
d="M7 7l283 733h143l283 -733v-7h-93l-84 217h-355l-84 -217h-93v7zM512 297l-94 243l-52 136h-9l-51 -136l-95 -243h301zM362 815c-66 0 -114.5 13.8311 -145.5 41.498s-46.5 63.834 -46.5 108.501h69c0 -30 10.167 -53.333 30.5 -70s51.166 -25 92.499 -25
c42 0 73.167 8.33301 93.5 25s30.5 40 30.5 70h68c0 -45.333 -15.667 -81.666 -47 -108.999s-79.666 -41 -144.999 -41z" />
    <glyph glyph-name="abreve" unicode="&#x103;" horiz-adv-x="561" 
d="M192 -5c-99.333 0 -148.997 47.334 -148.997 142.001c0 52.667 16.667 92.667 50 120s87 44 161 50l140 11v33c0 24 -2.16699 43.833 -6.5 59.5s-11.833 28.167 -22.5 37.5s-25.334 16 -44.001 20s-42.334 6 -71.001 6c-24.667 0 -50.334 -1.33301 -77.001 -4
s-57 -7.33398 -91 -14.001l-7 70c38 7.33301 72.167 12.333 102.5 15s61.5 4 93.5 4c73.333 0 127.5 -14.5 162.5 -43.5s52.5 -74.167 52.5 -135.5v-366h-75l-10 69h-6c-72 -49.333 -139.667 -74 -203 -74zM226.003 65.001c25.333 0 52.168 5.16602 80.501 15.499
s57.5 25.5 87.5 45.5v135l-112 -10c-27.333 -2.66699 -50.333 -6.33398 -69 -11.001s-33.667 -11.167 -45 -19.5s-19.5 -18.666 -24.5 -30.999s-7.5 -27.166 -7.5 -44.499c0 -28 7.16699 -48.333 21.5 -61s37.166 -19 68.499 -19zM283.005 618
c-34.667 0 -64.166 3.66699 -88.499 11s-44.333 17.833 -60 31.5s-27.167 30.167 -34.5 49.5s-11 41 -11 65h68c0 -38 10.5 -65 31.5 -81s52.5 -24 94.5 -24c41.333 0 72.5 8 93.5 24s31.5 43 31.5 81h67c0 -47.333 -14.833 -85.333 -44.5 -114s-78.834 -43 -147.501 -43z
" />
    <glyph glyph-name="Aogonek" unicode="&#x104;" horiz-adv-x="722" 
d="M637 -220c-74 0 -110.998 27.665 -110.998 82.998c0 25.333 8.5 48.333 25.5 69s46.167 43.334 87.5 68.001h-16l-84 217h-355l-84 -217h-93v7l283 733h143l283 -733v-25c-44 -21.333 -75.667 -41.166 -95 -59.499s-29 -36.5 -29 -54.5c0 -21.333 15 -32 45 -32
c10 0 22.167 1 36.5 3s28.166 4.66699 41.499 8v-55c-10 -4 -21.833 -7 -35.5 -9s-27.834 -3 -42.501 -3zM512.002 296.998l-94 243l-52 136h-9l-51 -136l-95 -243h301z" />
    <glyph glyph-name="aogonek" unicode="&#x105;" horiz-adv-x="561" 
d="M407 -220c-74 0 -110.995 27.666 -110.995 82.999c0 25.333 8.83301 48.333 26.5 69s47.167 43.334 88.5 68.001l-10 69h-6c-72 -49.333 -139.667 -74 -203 -74c-99.333 0 -149 47.333 -149 142c0 52.667 16.667 92.667 50 120s87 44 161 50l140 11v33
c0 24 -2.16699 43.833 -6.5 59.5s-11.833 28.167 -22.5 37.5s-25.334 16 -44.001 20s-42.334 6 -71.001 6c-24.667 0 -50.334 -1.33301 -77.001 -4s-57 -7.33398 -91 -14.001l-7 70c38 7.33301 72.167 12.333 102.5 15s61.5 4 93.5 4c73.333 0 127.5 -14.5 162.5 -43.5
s52.5 -74.167 52.5 -135.5v-384c-44 -21.333 -75.667 -41.166 -95 -59.499s-29 -36.5 -29 -54.5c0 -21.333 15 -32 45 -32c10 0 22.167 1 36.5 3s28.166 4.66699 41.499 8v-55c-10 -4 -21.833 -7 -35.5 -9s-27.834 -3 -42.501 -3zM226.005 64.999
c25.333 0 52.168 5.16602 80.501 15.499s57.5 25.5 87.5 45.5v135l-112 -10c-27.333 -2.66699 -50.333 -6.33398 -69 -11.001s-33.667 -11.167 -45 -19.5s-19.5 -18.666 -24.5 -30.999s-7.5 -27.166 -7.5 -44.499c0 -28 7.16699 -48.333 21.5 -61s37.166 -19 68.499 -19z
" />
    <glyph glyph-name="Cacute" unicode="&#x106;" horiz-adv-x="622" 
d="M400 -9c-114.667 0 -200.998 31.666 -258.998 94.999s-87 157.333 -87 282c0 126.667 29 222.167 87 286.5s144 96.5 258 96.5c24.667 0 53.167 -1.83301 85.5 -5.5s64.5 -8.5 96.5 -14.5v-79c-38.667 6.66699 -71.834 11.5 -99.501 14.5s-52.167 4.5 -73.5 4.5
c-88 0 -153.167 -24.833 -195.5 -74.5s-63.5 -125.5 -63.5 -227.5c0 -101.333 20.5 -176.5 61.5 -225.5s104.167 -73.5 189.5 -73.5c12 0 26.167 0.666992 42.5 2s33 3 50 5s33.333 4.33301 49 7s28.834 5.33398 39.501 8.00098v-78
c-12.667 -3.33301 -26.834 -6.33301 -42.501 -9s-31.667 -5 -48 -7s-32.333 -3.66699 -48 -5s-29.834 -2 -42.501 -2zM321.002 811.999l74 141h96l-99 -148z" />
    <glyph glyph-name="cacute" unicode="&#x107;" horiz-adv-x="506" 
d="M264 616l70 185h95l-99 -192zM319 -9c-179.333 0 -269 92.6689 -269 278.002c0 186.667 89.667 280 269 280c23.333 0 47.833 -1.33301 73.5 -4s48.167 -6.33398 67.5 -11.001v-77c-43.333 9.33301 -87 14 -131 14c-124.667 0 -187 -67 -187 -201
c0 -70.667 14.667 -121.834 44 -153.501s76.333 -47.5 141 -47.5c25.333 0 48 0.833008 68 2.5s41.667 4.83398 65 9.50098v-75c-16.667 -4.66699 -38 -8.33398 -64 -11.001s-51.667 -4 -77 -4z" />
    <glyph glyph-name="Ccircumflex" unicode="&#x108;" horiz-adv-x="622" 
d="M400 -9c-114.667 0 -200.998 31.666 -258.998 94.999s-87 157.333 -87 282c0 126.667 29 222.167 87 286.5s144 96.5 258 96.5c24.667 0 53.167 -1.83301 85.5 -5.5s64.5 -8.5 96.5 -14.5v-79c-38.667 6.66699 -71.834 11.5 -99.501 14.5s-52.167 4.5 -73.5 4.5
c-88 0 -153.167 -24.833 -195.5 -74.5s-63.5 -125.5 -63.5 -227.5c0 -101.333 20.5 -176.5 61.5 -225.5s104.167 -73.5 189.5 -73.5c12 0 26.167 0.666992 42.5 2s33 3 50 5s33.333 4.33301 49 7s28.834 5.33398 39.501 8.00098v-78
c-12.667 -3.33301 -26.834 -6.33301 -42.501 -9s-31.667 -5 -48 -7s-32.333 -3.66699 -48 -5s-29.834 -2 -42.501 -2zM186.002 885.999l176 75l176 -75v-74l-176 75l-176 -75v74z" />
    <glyph glyph-name="ccircumflex" unicode="&#x109;" horiz-adv-x="506" 
d="M117 703l175 75l176 -75v-73l-175 75l-176 -75v73zM319 -9c-179.333 0 -269 92.6689 -269 278.002c0 186.667 89.667 280 269 280c23.333 0 47.833 -1.33301 73.5 -4s48.167 -6.33398 67.5 -11.001v-77c-43.333 9.33301 -87 14 -131 14c-124.667 0 -187 -67 -187 -201
c0 -70.667 14.667 -121.834 44 -153.501s76.333 -47.5 141 -47.5c25.333 0 48 0.833008 68 2.5s41.667 4.83398 65 9.50098v-75c-16.667 -4.66699 -38 -8.33398 -64 -11.001s-51.667 -4 -77 -4z" />
    <glyph glyph-name="Cdotaccent" unicode="&#x10a;" horiz-adv-x="622" 
d="M371 818c-20 0 -34.999 4.5 -44.999 13.5s-15 23.833 -15 44.5s5 35.5 15 44.5s25 13.5 45 13.5c19.333 0 34.166 -4.5 44.499 -13.5s15.5 -23.833 15.5 -44.5c0 -38.667 -20 -58 -60 -58zM400.001 -9c-114.667 0 -200.998 31.666 -258.998 94.999s-87 157.333 -87 282
c0 126.667 29 222.167 87 286.5s144 96.5 258 96.5c24.667 0 53.167 -1.83301 85.5 -5.5s64.5 -8.5 96.5 -14.5v-79c-38.667 6.66699 -71.834 11.5 -99.501 14.5s-52.167 4.5 -73.5 4.5c-88 0 -153.167 -24.833 -195.5 -74.5s-63.5 -125.5 -63.5 -227.5
c0 -101.333 20.5 -176.5 61.5 -225.5s104.167 -73.5 189.5 -73.5c12 0 26.167 0.666992 42.5 2s33 3 50 5s33.333 4.33301 49 7s28.834 5.33398 39.501 8.00098v-78c-12.667 -3.33301 -26.834 -6.33301 -42.501 -9s-31.667 -5 -48 -7s-32.333 -3.66699 -48 -5
s-29.834 -2 -42.501 -2z" />
    <glyph glyph-name="cdotaccent" unicode="&#x10b;" horiz-adv-x="506" 
d="M319 -9c-179.333 0 -269 92.6689 -269 278.002c0 186.667 89.667 280 269 280c23.333 0 47.833 -1.33301 73.5 -4s48.167 -6.33398 67.5 -11.001v-77c-43.333 9.33301 -87 14 -131 14c-124.667 0 -187 -67 -187 -201c0 -70.667 14.667 -121.834 44 -153.501
s76.333 -47.5 141 -47.5c25.333 0 48 0.833008 68 2.5s41.667 4.83398 65 9.50098v-75c-16.667 -4.66699 -38 -8.33398 -64 -11.001s-51.667 -4 -77 -4zM291 650.002c-40 0 -60 19.667 -60 59c0 38.667 20 58 60 58c39.333 0 59 -19.333 59 -58
c0 -39.333 -19.667 -59 -59 -59z" />
    <glyph glyph-name="Ccaron" unicode="&#x10c;" horiz-adv-x="622" 
d="M400 -9c-114.667 0 -200.998 31.666 -258.998 94.999s-87 157.333 -87 282c0 126.667 29 222.167 87 286.5s144 96.5 258 96.5c24.667 0 53.167 -1.83301 85.5 -5.5s64.5 -8.5 96.5 -14.5v-79c-38.667 6.66699 -71.834 11.5 -99.501 14.5s-52.167 4.5 -73.5 4.5
c-88 0 -153.167 -24.833 -195.5 -74.5s-63.5 -125.5 -63.5 -227.5c0 -101.333 20.5 -176.5 61.5 -225.5s104.167 -73.5 189.5 -73.5c12 0 26.167 0.666992 42.5 2s33 3 50 5s33.333 4.33301 49 7s28.834 5.33398 39.501 8.00098v-78
c-12.667 -3.33301 -26.834 -6.33301 -42.501 -9s-31.667 -5 -48 -7s-32.333 -3.66699 -48 -5s-29.834 -2 -42.501 -2zM187.002 960.999l176 -75l176 75v-74l-177 -75l-175 75v74z" />
    <glyph glyph-name="ccaron" unicode="&#x10d;" horiz-adv-x="506" 
d="M114 764l176 -75l176 75v-73l-176 -75l-176 75v73zM319 -9c-179.333 0 -269 92.6689 -269 278.002c0 186.667 89.667 280 269 280c23.333 0 47.833 -1.33301 73.5 -4s48.167 -6.33398 67.5 -11.001v-77c-43.333 9.33301 -87 14 -131 14c-124.667 0 -187 -67 -187 -201
c0 -70.667 14.667 -121.834 44 -153.501s76.333 -47.5 141 -47.5c25.333 0 48 0.833008 68 2.5s41.667 4.83398 65 9.50098v-75c-16.667 -4.66699 -38 -8.33398 -64 -11.001s-51.667 -4 -77 -4z" />
    <glyph glyph-name="Dcaron" unicode="&#x10e;" horiz-adv-x="777" 
d="M187 961l176 -75l176 75v-74l-177 -75l-175 75v74zM302 -9c-22.667 0 -44.6689 0.333008 -66.002 1s-41.166 1.66699 -59.499 3s-34.666 3 -48.999 5s-25.5 4.33301 -33.5 7v732c17.333 1.33301 36.333 2.5 57 3.5l61.5 3c20.333 1 39.833 1.83301 58.5 2.5
s34.667 1 48 1c138.667 0 240.5 -30.5 305.5 -91.5s97.5 -156.833 97.5 -287.5c0 -66 -8.16699 -122.833 -24.5 -170.5s-41.5 -87 -75.5 -118s-77.5 -53.833 -130.5 -68.5s-116.167 -22 -189.5 -22zM330.998 68c103.333 0 178.502 23.999 225.502 71.999
s70.5 124.667 70.5 230c0 104.667 -23.667 180.834 -71 228.501s-123 71.5 -227 71.5c-18.667 0 -41.334 -0.666992 -68.001 -2s-51.334 -3 -74.001 -5v-584c27.333 -4 51.5 -6.83301 72.5 -8.5s44.833 -2.5 71.5 -2.5z" />
    <glyph glyph-name="dcaron" unicode="&#x10f;" horiz-adv-x="643" 
d="M636 808h77l-30 -228h-47v228zM290 -10c-78 0 -137.501 22.168 -178.501 66.501s-61.5 114.166 -61.5 209.499c0 48.667 6.83301 90.834 20.5 126.501s32.834 65.167 57.501 88.5s54.167 40.666 88.5 51.999s72.5 17 114.5 17c27.333 0 53 -1.33301 77 -4
s45.333 -4.66699 64 -6v268h91v-808h-79l-8 70h-7c-39.333 -53.333 -99 -80 -179 -80zM310.999 63.001c21.333 0 41.8291 2.83008 61.4961 8.49707s36.834 13.834 51.501 24.501s26.334 23.5 35.001 38.5s13 32.167 13 51.5v282c-18 2.66699 -39.333 5.33398 -64 8.00098
s-51 4 -79 4c-61.333 0 -107.666 -16 -138.999 -48s-47 -86 -47 -162c0 -37.333 3.33301 -69.166 10 -95.499s16.834 -47.833 30.501 -64.5s31 -28.667 52 -36s46.167 -11 75.5 -11z" />
    <glyph glyph-name="Dcroat" unicode="&#x110;" horiz-adv-x="787" 
d="M6 408h98.998v331c17.333 1.33301 36.333 2.5 57 3.5l61.5 3c20.333 1 39.833 1.83301 58.5 2.5s34.667 1 48 1c138.667 0 240.5 -30.5 305.5 -91.5s97.5 -156.833 97.5 -287.5c0 -66 -8.16699 -122.833 -24.5 -170.5s-41.5 -87 -75.5 -118s-77.5 -53.833 -130.5 -68.5
s-116.167 -22 -189.5 -22c-22.667 0 -44.667 0.333008 -66 1s-41.166 1.66699 -59.499 3s-34.666 3 -48.999 5s-25.5 4.33301 -33.5 7v325h-99v76zM341.998 68c103.333 0 178.502 23.999 225.502 71.999s70.5 124.667 70.5 230c0 104.667 -23.667 180.834 -71 228.501
s-123 71.5 -227 71.5c-18.667 0 -41.334 -0.666992 -68.001 -2s-51.334 -3 -74.001 -5v-255h195v-76h-195v-253c27.333 -4 51.5 -6.83301 72.5 -8.5s44.833 -2.5 71.5 -2.5z" />
    <glyph glyph-name="dcroat" unicode="&#x111;" horiz-adv-x="643" 
d="M271 704l200.999 0.000976562v104h91v-104h82v-60h-82v-644h-79l-8 70h-7c-39.333 -53.333 -99 -80 -179 -80c-78 0 -137.5 22.167 -178.5 66.5s-61.5 114.166 -61.5 209.499c0 48.667 6.83301 90.834 20.5 126.501s32.834 65.167 57.501 88.5s54.167 40.666 88.5 51.999
s72.5 17 114.5 17c27.333 0 53 -1.33301 77 -4s45.333 -4.66699 64 -6v104h-201v60zM310.999 63.001c21.333 0 41.8291 2.83008 61.4961 8.49707s36.834 13.834 51.501 24.501s26.334 23.5 35.001 38.5s13 32.167 13 51.5v282c-18 2.66699 -39.333 5.33398 -64 8.00098
s-51 4 -79 4c-61.333 0 -107.666 -16 -138.999 -48s-47 -86 -47 -162c0 -37.333 3.33301 -69.166 10 -95.499s16.834 -47.833 30.501 -64.5s31 -28.667 52 -36s46.167 -11 75.5 -11z" />
    <glyph glyph-name="Emacron" unicode="&#x112;" horiz-adv-x="654" 
d="M173 911h347v-69h-347v69zM94 740h497v-76h-404v-250h381v-77h-381v-261h413v-76h-506v740z" />
    <glyph glyph-name="emacron" unicode="&#x113;" horiz-adv-x="577" 
d="M315 -9c-176 0 -263.999 91 -263.999 273c0 92 21.833 162.5 65.5 211.5s107.167 73.5 190.5 73.5c146.667 0 220 -81 220 -243c0 -14.667 -0.5 -27.834 -1.5 -39.501s-2.83301 -21.5 -5.5 -29.5h-378c4 -61.333 20.667 -105.333 50 -132s74.666 -40 135.999 -40
c28 0 57.333 2.33301 88 7s60 11.334 88 20.001l5 -69c-28.667 -10 -60.167 -17.833 -94.5 -23.5s-67.5 -8.5 -99.5 -8.5zM305.001 479c-100.667 0 -155.001 -59.333 -163.001 -178h301c-2 64 -13.667 109.667 -35 137s-55.666 41 -102.999 41zM130 718h348v-68h-348v68z
" />
    <glyph glyph-name="Ebreve" unicode="&#x114;" horiz-adv-x="654" 
d="M341 815c-66 0 -114.5 13.8311 -145.5 41.498s-46.5 63.834 -46.5 108.501h69c0 -30 10.167 -53.333 30.5 -70s51.166 -25 92.499 -25c42 0 73.167 8.33301 93.5 25s30.5 40 30.5 70h68c0 -45.333 -15.667 -81.666 -47 -108.999s-79.666 -41 -144.999 -41zM94 739.998
h497v-76h-404v-250h381v-77h-381v-261h413v-76h-506v740z" />
    <glyph glyph-name="ebreve" unicode="&#x115;" horiz-adv-x="577" 
d="M315 -9c-176 0 -263.999 91 -263.999 273c0 92 21.833 162.5 65.5 211.5s107.167 73.5 190.5 73.5c146.667 0 220 -81 220 -243c0 -14.667 -0.5 -27.834 -1.5 -39.501s-2.83301 -21.5 -5.5 -29.5h-378c4 -61.333 20.667 -105.333 50 -132s74.666 -40 135.999 -40
c28 0 57.333 2.33301 88 7s60 11.334 88 20.001l5 -69c-28.667 -10 -60.167 -17.833 -94.5 -23.5s-67.5 -8.5 -99.5 -8.5zM305.001 479c-100.667 0 -155.001 -59.333 -163.001 -178h301c-2 64 -13.667 109.667 -35 137s-55.666 41 -102.999 41zM301 618
c-34.667 0 -64.166 3.66699 -88.499 11s-44.333 17.833 -60 31.5s-27.167 30.167 -34.5 49.5s-11 41 -11 65h68c0 -38 10.5 -65 31.5 -81s52.5 -24 94.5 -24c41.333 0 72.5 8 93.5 24s31.5 43 31.5 81h67c0 -47.333 -14.833 -85.333 -44.5 -114s-78.834 -43 -147.501 -43z
" />
    <glyph glyph-name="Edotaccent" unicode="&#x116;" horiz-adv-x="654" 
d="M343 818c-20 0 -34.999 4.5 -44.999 13.5s-15 23.833 -15 44.5s5 35.5 15 44.5s25 13.5 45 13.5c19.333 0 34.166 -4.5 44.499 -13.5s15.5 -23.833 15.5 -44.5c0 -38.667 -20 -58 -60 -58zM94.001 740h497v-76h-404v-250h381v-77h-381v-261h413v-76h-506v740z" />
    <glyph glyph-name="edotaccent" unicode="&#x117;" horiz-adv-x="577" 
d="M315 -9c-176 0 -263.999 91 -263.999 273c0 92 21.833 162.5 65.5 211.5s107.167 73.5 190.5 73.5c146.667 0 220 -81 220 -243c0 -14.667 -0.5 -27.834 -1.5 -39.501s-2.83301 -21.5 -5.5 -29.5h-378c4 -61.333 20.667 -105.333 50 -132s74.666 -40 135.999 -40
c28 0 57.333 2.33301 88 7s60 11.334 88 20.001l5 -69c-28.667 -10 -60.167 -17.833 -94.5 -23.5s-67.5 -8.5 -99.5 -8.5zM305.001 479c-100.667 0 -155.001 -59.333 -163.001 -178h301c-2 64 -13.667 109.667 -35 137s-55.666 41 -102.999 41zM304 650
c-40 0 -60 19.667 -60 59c0 38.667 20 58 60 58c39.333 0 59 -19.333 59 -58c0 -39.333 -19.667 -59 -59 -59z" />
    <glyph glyph-name="Eogonek" unicode="&#x118;" horiz-adv-x="654" 
d="M94 740l497.002 -0.00195312v-76h-404v-250h381v-77h-381v-261h413v-94c-44 -21.333 -75.667 -41.166 -95 -59.499s-29 -36.5 -29 -54.5c0 -21.333 15 -32 45 -32c10 0 22.167 1 36.5 3s28.166 4.66699 41.499 8v-55c-10 -4 -21.833 -7 -35.5 -9s-27.834 -3 -42.501 -3
c-74 0 -111 27.667 -111 83c0 25.333 8.5 48.333 25.5 69s46.167 43.334 87.5 68.001h-429v740z" />
    <glyph glyph-name="eogonek" unicode="&#x119;" 
d="M315 -9c-176 0 -263.998 90.999 -263.998 272.999c0 92 21.833 162.5 65.5 211.5s107.167 73.5 190.5 73.5c146.667 0 220 -81 220 -243c0 -14.667 -0.5 -27.834 -1.5 -39.501s-2.83301 -21.5 -5.5 -29.5h-378c4 -61.333 20.667 -105.333 50 -132s74.666 -40 135.999 -40
c28 0 57.333 2.33301 88 7s60 11.334 88 20.001l5 -69v-18c-44 -21.333 -75.667 -41.166 -95 -59.499s-29 -36.5 -29 -54.5c0 -21.333 15 -32 45 -32c10 0 22.167 1 36.5 3s28.166 4.66699 41.499 8v-55c-10 -4 -21.833 -7 -35.5 -9s-27.834 -3 -42.501 -3
c-74 0 -111 27.667 -111 83c0 20.667 5.5 39.5 16.5 56.5s29.167 34.833 54.5 53.5c-13.333 -1.33301 -26.166 -2.5 -38.499 -3.5s-24.5 -1.5 -36.5 -1.5zM305.002 478.999c-100.667 0 -155.001 -59.333 -163.001 -178h301c-2 64 -13.667 109.667 -35 137
s-55.666 41 -102.999 41z" />
    <glyph glyph-name="Ecaron" unicode="&#x11a;" horiz-adv-x="654" 
d="M169 961l176 -75l176 75v-74l-177 -75l-175 75v74zM94 740h497v-76h-404v-250h381v-77h-381v-261h413v-76h-506v740z" />
    <glyph glyph-name="ecaron" unicode="&#x11b;" horiz-adv-x="577" 
d="M127 764l176 -75l176 75v-73l-176 -75l-176 75v73zM315 -9c-176 0 -263.999 91 -263.999 273c0 92 21.833 162.5 65.5 211.5s107.167 73.5 190.5 73.5c146.667 0 220 -81 220 -243c0 -14.667 -0.5 -27.834 -1.5 -39.501s-2.83301 -21.5 -5.5 -29.5h-378
c4 -61.333 20.667 -105.333 50 -132s74.666 -40 135.999 -40c28 0 57.333 2.33301 88 7s60 11.334 88 20.001l5 -69c-28.667 -10 -60.167 -17.833 -94.5 -23.5s-67.5 -8.5 -99.5 -8.5zM305.001 479c-100.667 0 -155.001 -59.333 -163.001 -178h301
c-2 64 -13.667 109.667 -35 137s-55.666 41 -102.999 41z" />
    <glyph glyph-name="Gcircumflex" unicode="&#x11c;" horiz-adv-x="698" 
d="M410 -9c-118 0 -206.833 31.666 -266.5 94.999s-89.5 157.333 -89.5 282c0 126 30.667 221.333 92 286s152.666 97 273.999 97c32.667 0 66 -2.16699 100 -6.5s68 -11.166 102 -20.499v-79c-22 4.66699 -42 8.66699 -60 12s-34.667 6 -50 8s-30 3.5 -44 4.5
s-28 1.5 -42 1.5c-94.667 0 -164.5 -24.833 -209.5 -74.5s-67.5 -125.5 -67.5 -227.5c0 -101.333 21.333 -176.5 64 -225.5s108.334 -73.5 197.001 -73.5c17.333 0 38.333 1.33301 63 4s47.667 5.66699 69 9v293h88v-348c-16 -5.33301 -33.667 -10.333 -53 -15
s-38.833 -8.66699 -58.5 -12s-39 -5.83301 -58 -7.5s-35.833 -2.5 -50.5 -2.5zM196 885.999l176 75l176 -75v-74l-176 75l-176 -75v74z" />
    <glyph glyph-name="gcircumflex" unicode="&#x11d;" horiz-adv-x="643" 
d="M157 703l175 75l176 -75v-73l-175 75l-176 -75v73zM283 -219c-34 0 -68.668 2.00098 -104.001 6.00098s-66 9.66699 -92 17l6 72c25.333 -6.66699 53.5 -12.334 84.5 -17.001s61.833 -7 92.5 -7c29.333 0 56.666 3 81.999 9s47.166 16.333 65.499 31
s32.833 34.334 43.5 59.001s16 55.667 16 93v40h-6c-39.333 -55.333 -99.666 -83 -180.999 -83c-77.333 0 -136.666 21.667 -177.999 65s-62 111.333 -62 204c0 48 6.83301 89.5 20.5 124.5s32.834 64 57.501 87s54.167 40.167 88.5 51.5s72.5 17 114.5 17
c32.667 0 68.667 -2.16699 108 -6.5s81 -12.5 125 -24.5v-469c0 -54.667 -7.83301 -99.334 -23.5 -134.001s-36.5 -62 -62.5 -82s-56 -33.833 -90 -41.5s-69 -11.5 -105 -11.5zM310.999 73.001c22 0 42.8311 2.83301 62.498 8.5s36.667 14 51 25s25.833 24.167 34.5 39.5
s13 33 13 53v269c-18 2.66699 -39.333 5.33398 -64 8.00098s-51 4 -79 4c-61.333 0 -107.666 -15.667 -138.999 -47s-47 -84 -47 -158c0 -36.667 3.33301 -67.834 10 -93.501s16.834 -46.5 30.501 -62.5s31 -27.667 52 -35s46.167 -11 75.5 -11z" />
    <glyph glyph-name="Gbreve" unicode="&#x11e;" horiz-adv-x="698" 
d="M376 815c-66 0 -114.5 13.8311 -145.5 41.498s-46.5 63.834 -46.5 108.501h69c0 -30 10.167 -53.333 30.5 -70s51.166 -25 92.499 -25c42 0 73.167 8.33301 93.5 25s30.5 40 30.5 70h68c0 -45.333 -15.667 -81.666 -47 -108.999s-79.666 -41 -144.999 -41zM410 -9.00195
c-118 0 -206.833 31.666 -266.5 94.999s-89.5 157.333 -89.5 282c0 126 30.667 221.333 92 286s152.666 97 273.999 97c32.667 0 66 -2.16699 100 -6.5s68 -11.166 102 -20.499v-79c-22 4.66699 -42 8.66699 -60 12s-34.667 6 -50 8s-30 3.5 -44 4.5s-28 1.5 -42 1.5
c-94.667 0 -164.5 -24.833 -209.5 -74.5s-67.5 -125.5 -67.5 -227.5c0 -101.333 21.333 -176.5 64 -225.5s108.334 -73.5 197.001 -73.5c17.333 0 38.333 1.33301 63 4s47.667 5.66699 69 9v293h88v-348c-16 -5.33301 -33.667 -10.333 -53 -15s-38.833 -8.66699 -58.5 -12
s-39 -5.83301 -58 -7.5s-35.833 -2.5 -50.5 -2.5z" />
    <glyph glyph-name="gbreve" unicode="&#x11f;" horiz-adv-x="643" 
d="M283 -219c-34 0 -68.668 2.00098 -104.001 6.00098s-66 9.66699 -92 17l6 72c25.333 -6.66699 53.5 -12.334 84.5 -17.001s61.833 -7 92.5 -7c29.333 0 56.666 3 81.999 9s47.166 16.333 65.499 31s32.833 34.334 43.5 59.001s16 55.667 16 93v40h-6
c-39.333 -55.333 -99.666 -83 -180.999 -83c-77.333 0 -136.666 21.667 -177.999 65s-62 111.333 -62 204c0 48 6.83301 89.5 20.5 124.5s32.834 64 57.501 87s54.167 40.167 88.5 51.5s72.5 17 114.5 17c32.667 0 68.667 -2.16699 108 -6.5s81 -12.5 125 -24.5v-469
c0 -54.667 -7.83301 -99.334 -23.5 -134.001s-36.5 -62 -62.5 -82s-56 -33.833 -90 -41.5s-69 -11.5 -105 -11.5zM310.999 73.001c22 0 42.8311 2.83301 62.498 8.5s36.667 14 51 25s25.833 24.167 34.5 39.5s13 33 13 53v269c-18 2.66699 -39.333 5.33398 -64 8.00098
s-51 4 -79 4c-61.333 0 -107.666 -15.667 -138.999 -47s-47 -84 -47 -158c0 -36.667 3.33301 -67.834 10 -93.501s16.834 -46.5 30.501 -62.5s31 -27.667 52 -35s46.167 -11 75.5 -11zM328.997 618.001c-34.667 0 -64.166 3.66699 -88.499 11s-44.333 17.833 -60 31.5
s-27.167 30.167 -34.5 49.5s-11 41 -11 65h68c0 -38 10.5 -65 31.5 -81s52.5 -24 94.5 -24c41.333 0 72.5 8 93.5 24s31.5 43 31.5 81h67c0 -47.333 -14.833 -85.333 -44.5 -114s-78.834 -43 -147.501 -43z" />
    <glyph glyph-name="Gdotaccent" unicode="&#x120;" horiz-adv-x="698" 
d="M379 818c-20 0 -34.999 4.5 -44.999 13.5s-15 23.833 -15 44.5s5 35.5 15 44.5s25 13.5 45 13.5c19.333 0 34.166 -4.5 44.499 -13.5s15.5 -23.833 15.5 -44.5c0 -38.667 -20 -58 -60 -58zM410.001 -9c-118 0 -206.833 31.666 -266.5 94.999s-89.5 157.333 -89.5 282
c0 126 30.667 221.333 92 286s152.666 97 273.999 97c32.667 0 66 -2.16699 100 -6.5s68 -11.166 102 -20.499v-79c-22 4.66699 -42 8.66699 -60 12s-34.667 6 -50 8s-30 3.5 -44 4.5s-28 1.5 -42 1.5c-94.667 0 -164.5 -24.833 -209.5 -74.5s-67.5 -125.5 -67.5 -227.5
c0 -101.333 21.333 -176.5 64 -225.5s108.334 -73.5 197.001 -73.5c17.333 0 38.333 1.33301 63 4s47.667 5.66699 69 9v293h88v-348c-16 -5.33301 -33.667 -10.333 -53 -15s-38.833 -8.66699 -58.5 -12s-39 -5.83301 -58 -7.5s-35.833 -2.5 -50.5 -2.5z" />
    <glyph glyph-name="gdotaccent" unicode="&#x121;" horiz-adv-x="643" 
d="M283 -219c-34 0 -68.668 2.00098 -104.001 6.00098s-66 9.66699 -92 17l6 72c25.333 -6.66699 53.5 -12.334 84.5 -17.001s61.833 -7 92.5 -7c29.333 0 56.666 3 81.999 9s47.166 16.333 65.499 31s32.833 34.334 43.5 59.001s16 55.667 16 93v40h-6
c-39.333 -55.333 -99.666 -83 -180.999 -83c-77.333 0 -136.666 21.667 -177.999 65s-62 111.333 -62 204c0 48 6.83301 89.5 20.5 124.5s32.834 64 57.501 87s54.167 40.167 88.5 51.5s72.5 17 114.5 17c32.667 0 68.667 -2.16699 108 -6.5s81 -12.5 125 -24.5v-469
c0 -54.667 -7.83301 -99.334 -23.5 -134.001s-36.5 -62 -62.5 -82s-56 -33.833 -90 -41.5s-69 -11.5 -105 -11.5zM310.999 73.001c22 0 42.8311 2.83301 62.498 8.5s36.667 14 51 25s25.833 24.167 34.5 39.5s13 33 13 53v269c-18 2.66699 -39.333 5.33398 -64 8.00098
s-51 4 -79 4c-61.333 0 -107.666 -15.667 -138.999 -47s-47 -84 -47 -158c0 -36.667 3.33301 -67.834 10 -93.501s16.834 -46.5 30.501 -62.5s31 -27.667 52 -35s46.167 -11 75.5 -11zM329.997 650.001c-40 0 -60 19.667 -60 59c0 38.667 20 58 60 58
c39.333 0 59 -19.333 59 -58c0 -39.333 -19.667 -59 -59 -59z" />
    <glyph glyph-name="Gcommaaccent" unicode="&#x122;" horiz-adv-x="698" 
d="M334 -70h96l-68 -150h-76zM410 -9c-118 0 -206.833 31.666 -266.5 94.999s-89.5 157.333 -89.5 282c0 126 30.667 221.333 92 286s152.666 97 273.999 97c32.667 0 66 -2.16699 100 -6.5s68 -11.166 102 -20.499v-79c-22 4.66699 -42 8.66699 -60 12s-34.667 6 -50 8
s-30 3.5 -44 4.5s-28 1.5 -42 1.5c-94.667 0 -164.5 -24.833 -209.5 -74.5s-67.5 -125.5 -67.5 -227.5c0 -101.333 21.333 -176.5 64 -225.5s108.334 -73.5 197.001 -73.5c17.333 0 38.333 1.33301 63 4s47.667 5.66699 69 9v293h88v-348
c-16 -5.33301 -33.667 -10.333 -53 -15s-38.833 -8.66699 -58.5 -12s-39 -5.83301 -58 -7.5s-35.833 -2.5 -50.5 -2.5z" />
    <glyph glyph-name="gcommaaccent" unicode="&#x123;" horiz-adv-x="643" 
d="M452 790l-47 -150h-97l69 150h75zM283 -219c-34 0 -68.668 2.00098 -104.001 6.00098s-66 9.66699 -92 17l6 72c25.333 -6.66699 53.5 -12.334 84.5 -17.001s61.833 -7 92.5 -7c29.333 0 56.666 3 81.999 9s47.166 16.333 65.499 31s32.833 34.334 43.5 59.001
s16 55.667 16 93v40h-6c-39.333 -55.333 -99.666 -83 -180.999 -83c-77.333 0 -136.666 21.667 -177.999 65s-62 111.333 -62 204c0 48 6.83301 89.5 20.5 124.5s32.834 64 57.501 87s54.167 40.167 88.5 51.5s72.5 17 114.5 17c32.667 0 68.667 -2.16699 108 -6.5
s81 -12.5 125 -24.5v-469c0 -54.667 -7.83301 -99.334 -23.5 -134.001s-36.5 -62 -62.5 -82s-56 -33.833 -90 -41.5s-69 -11.5 -105 -11.5zM310.999 73.001c22 0 42.8311 2.83301 62.498 8.5s36.667 14 51 25s25.833 24.167 34.5 39.5s13 33 13 53v269
c-18 2.66699 -39.333 5.33398 -64 8.00098s-51 4 -79 4c-61.333 0 -107.666 -15.667 -138.999 -47s-47 -84 -47 -158c0 -36.667 3.33301 -67.834 10 -93.501s16.834 -46.5 30.501 -62.5s31 -27.667 52 -35s46.167 -11 75.5 -11z" />
    <glyph glyph-name="Hcircumflex" unicode="&#x124;" horiz-adv-x="815" 
d="M94 740h93v-322h440v322h93v-740h-93v342h-440v-342h-93v740zM226 886l176 75l176 -75v-74l-176 75l-176 -75v74z" />
    <glyph glyph-name="hcircumflex" unicode="&#x125;" horiz-adv-x="646" 
d="M163 910l175 75l176 -75v-73l-175 75l-176 -75v73zM80 808l91 -0.000976562v-332c28.667 12.667 54.834 23.667 78.501 33s45.167 17 64.5 23s37.5 10.5 54.5 13.5s33.5 4.5 49.5 4.5c48 0 85.333 -12.5 112 -37.5s40 -62.5 40 -112.5v-400h-92v367
c0 38.667 -7.66699 66.334 -23 83.001s-39 25 -71 25c-26.667 0 -58.334 -5.66699 -95.001 -17s-76 -26.333 -118 -45v-413h-91v808z" />
    <glyph glyph-name="Hbar" unicode="&#x126;" horiz-adv-x="825" 
d="M9 600h90v140h93v-140h440v140h93v-140h91v-55h-91v-545h-93v342h-440v-342h-93v545h-90v55zM632 418v127h-440v-127h440z" />
    <glyph glyph-name="hbar" unicode="&#x127;" horiz-adv-x="646" 
d="M-19 704l99 -0.000976562v104h91v-104h184v-60h-184v-168c28.667 12.667 54.834 23.667 78.501 33s45.167 17 64.5 23s37.5 10.5 54.5 13.5s33.5 4.5 49.5 4.5c48 0 85.333 -12.5 112 -37.5s40 -62.5 40 -112.5v-400h-92v367c0 38.667 -7.66699 66.334 -23 83.001
s-39 25 -71 25c-26.667 0 -58.334 -5.66699 -95.001 -17s-76 -26.333 -118 -45v-413h-91v644h-99v60z" />
    <glyph glyph-name="Itilde" unicode="&#x128;" horiz-adv-x="282" 
d="M94 740h93v-740h-93v740zM-68 866c20.667 26 42.668 45.332 66.001 57.999s46.333 19 69 19c16.667 0 32.667 -2.16699 48 -6.5s30.166 -9 44.499 -14s28.833 -9.66699 43.5 -14s30 -6.5 46 -6.5c17.333 0 34 3 50 9s32.667 15.667 50 29l23 -29
c-19.333 -25.333 -41.5 -44.5 -66.5 -57.5s-49.833 -19.5 -74.5 -19.5c-15.333 0 -30.5 2 -45.5 6s-30 8.5 -45 13.5s-29.833 9.66699 -44.5 14s-29.334 6.5 -44.001 6.5c-16 0 -31.667 -2.66699 -47 -8s-31.666 -14.666 -48.999 -27.999z" />
    <glyph glyph-name="itilde" unicode="&#x129;" horiz-adv-x="254" 
d="M-84 681c19.333 26.667 40.165 46.332 62.498 58.999s44.833 19 67.5 19c16 0 31.333 -2.16699 46 -6.5s29 -9 43 -14s28 -9.66699 42 -14s28.667 -6.5 44 -6.5c16 0 31.833 2.83301 47.5 8.5s31.834 15.167 48.501 28.5l24 -28c-19.333 -25.333 -41 -44.666 -65 -57.999
s-47.667 -20 -71 -20c-14.667 0 -29.334 2.16699 -44.001 6.5s-29.167 9 -43.5 14s-28.666 9.66699 -42.999 14s-28.5 6.5 -42.5 6.5c-15.333 0 -30.666 -2.83301 -45.999 -8.5s-31 -15.167 -47 -28.5zM80.999 539.998h92v-540h-92v540z" />
    <glyph glyph-name="Imacron" unicode="&#x12a;" horiz-adv-x="282" 
d="M94 740h93v-740h-93v740zM-30 911h347v-69h-347v69z" />
    <glyph glyph-name="imacron" unicode="&#x12b;" horiz-adv-x="254" 
d="M81 540h92v-540h-92v540zM-42 718h348v-68h-348v68z" />
    <glyph glyph-name="Ibreve" unicode="&#x12c;" horiz-adv-x="282" 
d="M94 740h93v-740h-93v740zM140 815c-66 0 -114.5 13.8311 -145.5 41.498s-46.5 63.834 -46.5 108.501h69c0 -30 10.167 -53.333 30.5 -70s51.166 -25 92.499 -25c42 0 73.167 8.33301 93.5 25s30.5 40 30.5 70h68c0 -45.333 -15.667 -81.666 -47 -108.999
s-79.666 -41 -144.999 -41z" />
    <glyph glyph-name="ibreve" unicode="&#x12d;" horiz-adv-x="254" 
d="M129 618c-60.667 0 -104.667 14.167 -132 42.5s-41 66.5 -41 114.5h57c0 -38 9.66699 -65 29 -81s48.333 -24 87 -24s67.667 8 87 24s29 43 29 81h56c0 -47.333 -13.5 -85.333 -40.5 -114s-70.833 -43 -131.5 -43zM81 540h92v-540h-92v540z" />
    <glyph glyph-name="Iogonek" unicode="&#x12e;" horiz-adv-x="282" 
d="M94 740l93.002 -0.00195312v-758c-44 -21.333 -75.667 -41.166 -95 -59.499s-29 -36.5 -29 -54.5c0 -21.333 15 -32 45 -32c10 0 22.167 1 36.5 3s28.166 4.66699 41.499 8v-55c-10 -4 -21.833 -7 -35.5 -9s-27.834 -3 -42.501 -3c-74 0 -111 27.667 -111 83
c0 25.333 8.5 48.333 25.5 69s46.167 43.334 87.5 68.001h-16v740z" />
    <glyph glyph-name="iogonek" unicode="&#x12f;" horiz-adv-x="254" 
d="M81 540l92.002 -0.00195312v-558c-44 -21.333 -75.667 -41.166 -95 -59.499s-29 -36.5 -29 -54.5c0 -21.333 15 -32 45 -32c10 0 22.167 1 36.5 3s28.166 4.66699 41.499 8v-55c-10 -4 -21.833 -7 -35.5 -9s-27.834 -3 -42.501 -3c-74 0 -111 27.667 -111 83
c0 25.333 8.5 48.333 25.5 69s46.167 43.334 87.5 68.001h-15v540zM127.002 648.998c-37.333 0 -56 18.333 -56 55c0 37.333 18.667 56 56 56c38 0 57 -18.667 57 -56c0 -36.667 -19 -55 -57 -55z" />
    <glyph glyph-name="Idotaccent" unicode="&#x130;" horiz-adv-x="282" 
d="M94 740h93v-740h-93v740zM142 818c-20 0 -34.999 4.5 -44.999 13.5s-15 23.833 -15 44.5s5 35.5 15 44.5s25 13.5 45 13.5c19.333 0 34.166 -4.5 44.499 -13.5s15.5 -23.833 15.5 -44.5c0 -38.667 -20 -58 -60 -58z" />
    <glyph glyph-name="dotlessi" unicode="&#x131;" horiz-adv-x="254" 
d="M81 540h92v-540h-92v540z" />
    <glyph glyph-name="IJ" unicode="&#x132;" horiz-adv-x="562" 
d="M94 740h93v-740h-93v740zM300 -160c14.667 31.333 26.999 60.668 36.999 88.001s18 54.5 24 81.5s10.333 54.833 13 83.5s4 60 4 94v553h93v-559c0 -34 -1.66699 -65.167 -5 -93.5s-9.16602 -56.833 -17.499 -85.5s-19.333 -58.334 -33 -89.001s-30.5 -65 -50.5 -103z
" />
    <glyph glyph-name="ij" unicode="&#x133;" horiz-adv-x="505" 
d="M127 649c-37.333 0 -56 18.333 -56 55c0 37.333 18.667 56 56 56c38 0 57 -18.667 57 -56c0 -36.667 -19 -55 -57 -55zM81 540h92v-540h-92v540zM377 649c-20 0 -34.5 4.33301 -43.5 13s-13.5 22.667 -13.5 42s4.5 33.5 13.5 42.5s23.5 13.5 43.5 13.5
c37.333 0 56 -18.667 56 -56c0 -36.667 -18.667 -55 -56 -55zM268 -200c12 24.667 22.168 49.1689 30.501 73.502s15.166 49.666 20.499 75.999s9.33301 54.5 12 84.5s4 63.333 4 100v33v68v87v90.5c0 29 -0.166992 55 -0.5 78s-0.5 39.5 -0.5 49.5h91v-454
c-2 -56.667 -10.5 -110.334 -25.5 -161.001s-36.5 -99 -64.5 -145z" />
    <glyph glyph-name="Jcircumflex" unicode="&#x134;" horiz-adv-x="281" 
d="M18 -160c14.667 31.333 26.999 60.668 36.999 88.001s18 54.5 24 81.5s10.333 54.833 13 83.5s4 60 4 94v553h93v-559c0 -34 -1.66699 -65.167 -5 -93.5s-9.16602 -56.833 -17.499 -85.5s-19.333 -58.334 -33 -89.001s-30.5 -65 -50.5 -103zM-31.001 886.002l176 75
l176 -75v-74l-176 75l-176 -75v74z" />
    <glyph glyph-name="jcircumflex" unicode="&#x135;" horiz-adv-x="250" 
d="M-45 707l169 75l171 -75v-73l-170 75l-170 -75v73zM14 -200c12 24.667 22.168 49.1689 30.501 73.502s15.166 49.666 20.499 75.999s9.33301 54.5 12 84.5s4 63.333 4 100v33v68v87v90.5c0 29 -0.166992 55 -0.5 78s-0.5 39.5 -0.5 49.5h91v-454
c-2 -56.667 -10.5 -110.334 -25.5 -161.001s-36.5 -99 -64.5 -145z" />
    <glyph glyph-name="Kcommaaccent" unicode="&#x136;" horiz-adv-x="703" 
d="M314 -70h96l-68 -150h-76zM94 740h93v-325h161l226 325h106l-234 -329l-34 -25v-7l37 -25l248 -354h-106l-233 338h-171v-338h-93v740z" />
    <glyph glyph-name="kcommaaccent" unicode="&#x137;" horiz-adv-x="586" 
d="M276 -70h96l-68 -150h-76zM80 808h91v-499h103l191 231h105l-213 -253l-19 -8v-4l20 -9l228 -266h-104l-210 246h-101v-246h-91v808z" />
    <glyph glyph-name="kgreenlandic" unicode="&#x138;" horiz-adv-x="592" 
d="M80 540h92v-231h139l156 231h103l-178 -253l-19 -8v-4l20 -9l194 -266h-103l-175 246h-137v-246h-92v540z" />
    <glyph glyph-name="Lacute" unicode="&#x139;" horiz-adv-x="569" 
d="M103 812l74 141h96l-99 -148zM94 740h93v-665h368v-75h-461v740z" />
    <glyph glyph-name="lacute" unicode="&#x13a;" horiz-adv-x="257" 
d="M95 844l70 185h95l-99 -192zM82 808h92v-808h-92v808z" />
    <glyph glyph-name="Lcommaaccent" unicode="&#x13b;" horiz-adv-x="569" 
d="M275 -70h96l-68 -150h-76zM94 740h93v-665h368v-75h-461v740z" />
    <glyph glyph-name="lcommaaccent" unicode="&#x13c;" horiz-adv-x="257" 
d="M90 -70h96l-68 -150h-76zM82 808h92v-808h-92v808z" />
    <glyph glyph-name="Lcaron" unicode="&#x13d;" horiz-adv-x="571" 
d="M417 760h77l-30 -228h-47v228zM94 740h93v-665h368v-75h-461v740z" />
    <glyph glyph-name="lcaron" unicode="&#x13e;" horiz-adv-x="258" 
d="M247 808h77l-30 -228h-47v228zM82 808h92v-808h-92v808z" />
    <glyph glyph-name="Ldot" unicode="&#x13f;" horiz-adv-x="577" 
d="M94 740h93v-665h368v-75h-461v740zM472 322c-20 0 -35 4.5 -45 13.5s-15 23.833 -15 44.5c0 39.333 20 59 60 59c39.333 0 59 -19.667 59 -59c0 -38.667 -19.667 -58 -59 -58z" />
    <glyph glyph-name="ldot" unicode="&#x140;" horiz-adv-x="328" 
d="M82 808h92v-808h-92v808zM292 312c-20 0 -35 4.5 -45 13.5s-15 23.833 -15 44.5c0 39.333 20 59 60 59c39.333 0 59 -19.667 59 -59c0 -38.667 -19.667 -58 -59 -58z" />
    <glyph glyph-name="Lslash" unicode="&#x141;" horiz-adv-x="590" 
d="M16 301l99 56v383h93v-330l179 103v-76l-179 -103v-259h368v-75h-461v281l-99 -56v76z" />
    <glyph glyph-name="lslash" unicode="&#x142;" horiz-adv-x="330" 
d="M26 340l96 52v416h92v-366l99 54v-75l-99 -55v-366h-92v316l-96 -53v77z" />
    <glyph glyph-name="Nacute" unicode="&#x143;" horiz-adv-x="823" 
d="M360 812l74 141h96l-99 -148zM94 740h79l402 -514l63 -90h7v604h84v-740h-79l-404 515l-62 87h-6v-602h-84v740z" />
    <glyph glyph-name="nacute" unicode="&#x144;" horiz-adv-x="646" 
d="M297 616l70 185h95l-99 -192zM80 540h75.998l6 -64h6c30 13.333 57 24.666 81 33.999s45.833 17 65.5 23s38 10.333 55 13s33.5 4 49.5 4c48 0 85.167 -12.5 111.5 -37.5s39.5 -62.5 39.5 -112.5v-400h-92v367c0 38.667 -7.66699 66.334 -23 83.001s-39 25 -71 25
c-27.333 0 -59.166 -5.66699 -95.499 -17s-75.166 -26.333 -116.499 -45v-413h-92v540z" />
    <glyph glyph-name="Ncommaaccent" unicode="&#x145;" horiz-adv-x="823" 
d="M376 -70h96l-68 -150h-76zM94 740h79l402 -514l63 -90h7v604h84v-740h-79l-404 515l-62 87h-6v-602h-84v740z" />
    <glyph glyph-name="ncommaaccent" unicode="&#x146;" horiz-adv-x="646" 
d="M284 -70h96l-68 -150h-76zM80 540h75.998l6 -64h6c30 13.333 57 24.666 81 33.999s45.833 17 65.5 23s38 10.333 55 13s33.5 4 49.5 4c48 0 85.167 -12.5 111.5 -37.5s39.5 -62.5 39.5 -112.5v-400h-92v367c0 38.667 -7.66699 66.334 -23 83.001s-39 25 -71 25
c-27.333 0 -59.166 -5.66699 -95.499 -17s-75.166 -26.333 -116.499 -45v-413h-92v540z" />
    <glyph glyph-name="Ncaron" unicode="&#x147;" horiz-adv-x="823" 
d="M236 961l176 -75l176 75v-74l-177 -75l-175 75v74zM94 740h79l402 -514l63 -90h7v604h84v-740h-79l-404 515l-62 87h-6v-602h-84v740z" />
    <glyph glyph-name="ncaron" unicode="&#x148;" horiz-adv-x="646" 
d="M146 764l176 -75l176 75v-73l-176 -75l-176 75v73zM80 540h75.998l6 -64h6c30 13.333 57 24.666 81 33.999s45.833 17 65.5 23s38 10.333 55 13s33.5 4 49.5 4c48 0 85.167 -12.5 111.5 -37.5s39.5 -62.5 39.5 -112.5v-400h-92v367c0 38.667 -7.66699 66.334 -23 83.001
s-39 25 -71 25c-27.333 0 -59.166 -5.66699 -95.499 -17s-75.166 -26.333 -116.499 -45v-413h-92v540z" />
    <glyph glyph-name="napostrophe" unicode="&#x149;" horiz-adv-x="725" 
d="M119 808v-4l-33 -224h-48v228h81zM159 540h75.998l6 -64h6c30 13.333 57 24.666 81 33.999s45.833 17 65.5 23s38 10.333 55 13s33.5 4 49.5 4c48 0 85.167 -12.5 111.5 -37.5s39.5 -62.5 39.5 -112.5v-400h-92v367c0 38.667 -7.66699 66.334 -23 83.001s-39 25 -71 25
c-27.333 0 -59.166 -5.66699 -95.499 -17s-75.166 -26.333 -116.499 -45v-413h-92v540z" />
    <glyph glyph-name="Eng" unicode="&#x14a;" horiz-adv-x="822" 
d="M562 -173c18.667 34 34.168 68.499 46.501 103.499s20.166 66.167 23.499 93.5l-383 491l-64 87h-6v-602h-85v740h76l402 -514l65 -90h7v604h85v-648c0 -20.667 -2.5 -43.5 -7.5 -68.5s-12 -50.333 -21 -76s-19.667 -50.667 -32 -75s-25.5 -46.166 -39.5 -65.499z" />
    <glyph glyph-name="eng" unicode="&#x14b;" horiz-adv-x="645" 
d="M415 -204c19.333 43.333 34.668 90.8301 46.001 142.497s17 107.5 17 167.5v244c0 42.667 -7 72.334 -21 89.001s-38 25 -72 25c-27.333 0 -58.833 -4.66699 -94.5 -14s-75.167 -23.666 -118.5 -42.999v-407h-92v540h76l6 -63h4c30 13.333 57.167 24.666 81.5 33.999
s46.5 16.833 66.5 22.5s38.5 9.83398 55.5 12.501s33.5 4 49.5 4c48.667 0 86 -12.667 112 -38s39 -62.666 39 -111.999v-334c-1.33301 -25.333 -4.16602 -51.166 -8.49902 -77.499s-10.333 -52 -18 -77s-16.334 -48.833 -26.001 -71.5s-19.834 -42.334 -30.501 -59.001z
" />
    <glyph glyph-name="Omacron" unicode="&#x14c;" horiz-adv-x="792" 
d="M222 911h347v-69h-347v69zM396 -10c-109.333 0 -193.666 32.167 -252.999 96.5s-89 158.5 -89 282.5s29.667 218.5 89 283.5s143.666 97.5 252.999 97.5c108.667 0 192.667 -32.5 252 -97.5s89 -159.5 89 -283.5s-29.667 -218.167 -89 -282.5s-143.333 -96.5 -252 -96.5z
M396 68c164 0 245.999 100.334 245.999 301.001c0 101.333 -20.667 177.166 -62 227.499s-102.666 75.5 -183.999 75.5c-164.667 0 -247 -101 -247 -303c0 -200.667 82.333 -301 247 -301z" />
    <glyph glyph-name="omacron" unicode="&#x14d;" horiz-adv-x="629" 
d="M144 718h348v-68h-348v68zM315 -10c-86 0 -151.833 24 -197.5 72s-68.5 117.333 -68.5 208s22.833 160 68.5 208s111.5 72 197.5 72c85.333 0 150.666 -24 195.999 -72s68 -117.333 68 -208s-22.667 -160 -68 -208s-110.666 -72 -195.999 -72zM315 64
c59.333 0 102.666 16.667 129.999 50s41 85.333 41 156s-13.667 122.5 -41 155.5s-70.666 49.5 -129.999 49.5s-102.833 -16.5 -130.5 -49.5s-41.5 -84.833 -41.5 -155.5s13.833 -122.667 41.5 -156s71.167 -50 130.5 -50z" />
    <glyph glyph-name="Obreve" unicode="&#x14e;" horiz-adv-x="792" 
d="M394 815c-66 0 -114.5 13.8311 -145.5 41.498s-46.5 63.834 -46.5 108.501h69c0 -30 10.167 -53.333 30.5 -70s51.166 -25 92.499 -25c42 0 73.167 8.33301 93.5 25s30.5 40 30.5 70h68c0 -45.333 -15.667 -81.666 -47 -108.999s-79.666 -41 -144.999 -41zM396 -10.002
c-109.333 0 -193.666 32.167 -252.999 96.5s-89 158.5 -89 282.5s29.667 218.5 89 283.5s143.666 97.5 252.999 97.5c108.667 0 192.667 -32.5 252 -97.5s89 -159.5 89 -283.5s-29.667 -218.167 -89 -282.5s-143.333 -96.5 -252 -96.5zM396 67.998
c164 0 245.999 100.334 245.999 301.001c0 101.333 -20.667 177.166 -62 227.499s-102.666 75.5 -183.999 75.5c-164.667 0 -247 -101 -247 -303c0 -200.667 82.333 -301 247 -301z" />
    <glyph glyph-name="obreve" unicode="&#x14f;" horiz-adv-x="629" 
d="M315 -10c-86 0 -151.833 24 -197.5 72s-68.5 117.333 -68.5 208s22.833 160 68.5 208s111.5 72 197.5 72c85.333 0 150.666 -24 195.999 -72s68 -117.333 68 -208s-22.667 -160 -68 -208s-110.666 -72 -195.999 -72zM315 64c59.333 0 102.666 16.667 129.999 50
s41 85.333 41 156s-13.667 122.5 -41 155.5s-70.666 49.5 -129.999 49.5s-102.833 -16.5 -130.5 -49.5s-41.5 -84.833 -41.5 -155.5s13.833 -122.667 41.5 -156s71.167 -50 130.5 -50zM315 618c-34.667 0 -64.166 3.66699 -88.499 11s-44.333 17.833 -60 31.5
s-27.167 30.167 -34.5 49.5s-11 41 -11 65h68c0 -38 10.5 -65 31.5 -81s52.5 -24 94.5 -24c41.333 0 72.5 8 93.5 24s31.5 43 31.5 81h67c0 -47.333 -14.833 -85.333 -44.5 -114s-78.834 -43 -147.501 -43z" />
    <glyph glyph-name="Ohungarumlaut" unicode="&#x150;" horiz-adv-x="792" 
d="M396 -10c-109.333 0 -193.666 32.167 -252.999 96.5s-89 158.5 -89 282.5s29.667 218.5 89 283.5s143.666 97.5 252.999 97.5c108.667 0 192.667 -32.5 252 -97.5s89 -159.5 89 -283.5s-29.667 -218.167 -89 -282.5s-143.333 -96.5 -252 -96.5zM396 68
c164 0 245.999 100.334 245.999 301.001c0 101.333 -20.667 177.166 -62 227.499s-102.666 75.5 -183.999 75.5c-164.667 0 -247 -101 -247 -303c0 -200.667 82.333 -301 247 -301zM267.999 811.001l73 135h95l-99 -148zM430.999 811.001l74 135h96l-99 -148z" />
    <glyph glyph-name="ohungarumlaut" unicode="&#x151;" horiz-adv-x="629" 
d="M182 626l70 182h98l-101 -192zM378 626l70 182h97l-101 -192zM315 -10c-86 0 -151.833 24 -197.5 72s-68.5 117.333 -68.5 208s22.833 160 68.5 208s111.5 72 197.5 72c85.333 0 150.666 -24 195.999 -72s68 -117.333 68 -208s-22.667 -160 -68 -208
s-110.666 -72 -195.999 -72zM315 64c59.333 0 102.666 16.667 129.999 50s41 85.333 41 156s-13.667 122.5 -41 155.5s-70.666 49.5 -129.999 49.5s-102.833 -16.5 -130.5 -49.5s-41.5 -84.833 -41.5 -155.5s13.833 -122.667 41.5 -156s71.167 -50 130.5 -50z" />
    <glyph glyph-name="OE" unicode="&#x152;" horiz-adv-x="1050" 
d="M399 -10c-110 0 -195.167 32.167 -255.5 96.5s-90.5 158.5 -90.5 282.5s30.167 218.5 90.5 283.5s145.5 97.5 255.5 97.5c21.333 0 40.833 -0.666992 58.5 -2s35.167 -4 52.5 -8h476v-76h-383v-250h359v-77h-359v-261h392v-76h-485
c-17.333 -3.33301 -35 -5.83301 -53 -7.5s-37.333 -2.5 -58 -2.5zM399 68c21.333 0 41.168 0.666016 59.501 1.99902s35.5 4.33301 51.5 9v582c-16.667 4.66699 -33.834 7.66699 -51.501 9s-37.5 2 -59.5 2c-83.333 0 -146 -25.167 -188 -75.5s-63 -126.166 -63 -227.499
c0 -100.667 21 -176 63 -226s104.667 -75 188 -75z" />
    <glyph glyph-name="oe" unicode="&#x153;" horiz-adv-x="1015" 
d="M753 -9c-56 0 -102.168 10.001 -138.501 30.001s-63.166 49 -80.499 87h-5c-18 -38 -45.167 -67.167 -81.5 -87.5s-80.5 -30.5 -132.5 -30.5c-86 0 -151.833 24 -197.5 72s-68.5 117.333 -68.5 208s22.833 160 68.5 208s111.5 72 197.5 72
c52.667 0 97.334 -10.667 134.001 -32s63.667 -51.333 81 -90h6c17.333 38.667 43.833 68.5 79.5 89.5s79.834 31.5 132.501 31.5c70.667 0 124.334 -20.333 161.001 -61s55 -100 55 -178c0 -14.667 -0.333008 -27.667 -1 -39s-2.33398 -21.333 -5.00098 -30h-379
c2.66699 -60.667 18.667 -105.167 48 -133.5s74.333 -42.5 135 -42.5c28 0 57.333 2.16699 88 6.5s61 11.166 91 20.499l5 -69c-28.667 -10 -60.334 -17.833 -95.001 -23.5s-67.334 -8.5 -98.001 -8.5zM314.999 64.001c59.333 0 102.666 16.667 129.999 50s41 85.333 41 156
s-13.667 122.5 -41 155.5s-70.666 49.5 -129.999 49.5s-102.833 -16.5 -130.5 -49.5s-41.5 -84.833 -41.5 -155.5s13.833 -122.667 41.5 -156s71.167 -50 130.5 -50zM880.999 296.001c-2 66 -13.667 113 -35 141s-55.333 42 -102 42c-104.667 0 -160 -61 -166 -183h303z" />
    <glyph glyph-name="Racute" unicode="&#x154;" horiz-adv-x="705" 
d="M391 275c-14.667 -1.33301 -29.666 -2.33301 -44.999 -3s-31.333 -1 -48 -1c-14.667 0 -31.834 0.666992 -51.501 2s-39.5 3 -59.5 5v-278h-93v735c68 10 133 15 195 15c125.333 0 216.5 -19 273.5 -57s85.5 -98.667 85.5 -182c0 -58.667 -13.667 -106 -41 -142
s-70 -62 -128 -78l197 -291h-105zM310.001 348c44 0 81.499 2.83203 112.499 8.49902s56.167 15 75.5 28s33.333 29.833 42 50.5s13 46 13 76c0 28.667 -4.5 53.334 -13.5 74.001s-23.5 37.5 -43.5 50.5s-45.667 22.667 -77 29s-69 9.5 -113 9.5
c-20 0 -41.167 -0.833008 -63.5 -2.5s-40.833 -3.5 -55.5 -5.5v-308c8.66699 -2.66699 24.834 -5 48.501 -7s48.5 -3 74.5 -3zM307 811.999l74 141h96l-99 -148z" />
    <glyph glyph-name="racute" unicode="&#x155;" horiz-adv-x="417" 
d="M203 616l70 185h95l-99 -192zM80 540l76.002 -0.000976562l6 -77h4l117 58c32 15.333 62 24.666 90 27.999h31v-84h-30c-30.667 -3.33301 -63.334 -11.166 -98.001 -23.499s-69.334 -27.166 -104.001 -44.499v-397h-92v540z" />
    <glyph glyph-name="Rcommaaccent" unicode="&#x156;" horiz-adv-x="705" 
d="M319 -70h96l-68 -150h-76zM391 275c-14.667 -1.33301 -29.666 -2.33301 -44.999 -3s-31.333 -1 -48 -1c-14.667 0 -31.834 0.666992 -51.501 2s-39.5 3 -59.5 5v-278h-93v735c68 10 133 15 195 15c125.333 0 216.5 -19 273.5 -57s85.5 -98.667 85.5 -182
c0 -58.667 -13.667 -106 -41 -142s-70 -62 -128 -78l197 -291h-105zM310.001 348c44 0 81.499 2.83203 112.499 8.49902s56.167 15 75.5 28s33.333 29.833 42 50.5s13 46 13 76c0 28.667 -4.5 53.334 -13.5 74.001s-23.5 37.5 -43.5 50.5s-45.667 22.667 -77 29
s-69 9.5 -113 9.5c-20 0 -41.167 -0.833008 -63.5 -2.5s-40.833 -3.5 -55.5 -5.5v-308c8.66699 -2.66699 24.834 -5 48.501 -7s48.5 -3 74.5 -3z" />
    <glyph glyph-name="rcommaaccent" unicode="&#x157;" horiz-adv-x="417" 
d="M85 -70h96l-68 -150h-76zM80 540l76.002 -0.000976562l6 -77h4l117 58c32 15.333 62 24.666 90 27.999h31v-84h-30c-30.667 -3.33301 -63.334 -11.166 -98.001 -23.499s-69.334 -27.166 -104.001 -44.499v-397h-92v540z" />
    <glyph glyph-name="Rcaron" unicode="&#x158;" horiz-adv-x="705" 
d="M175 961l176 -75l176 75v-74l-177 -75l-175 75v74zM391 275c-14.667 -1.33301 -29.666 -2.33301 -44.999 -3s-31.333 -1 -48 -1c-14.667 0 -31.834 0.666992 -51.501 2s-39.5 3 -59.5 5v-278h-93v735c68 10 133 15 195 15c125.333 0 216.5 -19 273.5 -57
s85.5 -98.667 85.5 -182c0 -58.667 -13.667 -106 -41 -142s-70 -62 -128 -78l197 -291h-105zM310.001 348c44 0 81.499 2.83203 112.499 8.49902s56.167 15 75.5 28s33.333 29.833 42 50.5s13 46 13 76c0 28.667 -4.5 53.334 -13.5 74.001s-23.5 37.5 -43.5 50.5
s-45.667 22.667 -77 29s-69 9.5 -113 9.5c-20 0 -41.167 -0.833008 -63.5 -2.5s-40.833 -3.5 -55.5 -5.5v-308c8.66699 -2.66699 24.834 -5 48.501 -7s48.5 -3 74.5 -3z" />
    <glyph glyph-name="rcaron" unicode="&#x159;" horiz-adv-x="417" 
d="M61 764l176 -75l176 75v-73l-176 -75l-176 75v73zM80 540l76.002 -0.000976562l6 -77h4l117 58c32 15.333 62 24.666 90 27.999h31v-84h-30c-30.667 -3.33301 -63.334 -11.166 -98.001 -23.499s-69.334 -27.166 -104.001 -44.499v-397h-92v540z" />
    <glyph glyph-name="Sacute" unicode="&#x15a;" horiz-adv-x="616" 
d="M294 -11c-34.667 0 -74.167 2.66699 -118.5 8s-87.5 12.666 -129.5 21.999v79c46 -10 90.167 -17.833 132.5 -23.5s79.5 -8.5 111.5 -8.5c62 0 109 10.5 141 31.5s48 51.167 48 90.5c0 24 -4.66699 44 -14 60s-22.166 29.167 -38.499 39.5s-35.333 18.833 -57 25.5
s-44.834 13 -69.501 19c-43.333 10 -80.333 21.5 -111 34.5s-55.667 28.167 -75 45.5s-33.333 37.5 -42 60.5s-13 49.5 -13 79.5c0 30.667 6.33301 58.667 19 84s30.667 46.833 54 64.5s51.5 31.334 84.5 41.001s70.167 14.5 111.5 14.5c29.333 0 60.833 -2 94.5 -6
s71.5 -10.667 113.5 -20v-79c-32.667 9.33301 -66.834 16.333 -102.501 21s-68.167 7 -97.5 7c-56 0 -99.833 -11.333 -131.5 -34s-47.5 -53 -47.5 -91c0 -18.667 3 -35 9 -49s15.833 -26.667 29.5 -38s31.834 -21.5 54.501 -30.5s50.667 -17.5 84 -25.5
c34 -8 65.667 -17.167 95 -27.5s55 -23.5 77 -39.5s39.167 -36 51.5 -60s18.5 -53.667 18.5 -89c0 -67.333 -24 -118.5 -72 -153.5s-118 -52.5 -210 -52.5zM268 812l74 141h96l-99 -148z" />
    <glyph glyph-name="sacute" unicode="&#x15b;" horiz-adv-x="504" 
d="M212 616l70 185h95l-99 -192zM246 -11c-25.333 0 -53.3369 1.83301 -84.0039 5.5s-68.667 9.83398 -114 18.501v74c37.333 -8 71.833 -14.5 103.5 -19.5s61.834 -7.5 90.501 -7.5c86 0 129 28.333 129 85c0 16 -3 29.333 -9 40s-14.5 19.334 -25.5 26.001s-24 12 -39 16
s-31.167 7.66699 -48.5 11c-22 4 -44.5 8.5 -67.5 13.5s-43.833 13 -62.5 24s-34 26.167 -46 45.5s-18 45 -18 77c0 48.667 18.833 86.667 56.5 114s89.834 41 156.501 41c12 0 23.5 -0.333008 34.5 -1s23 -1.83398 36 -3.50098s27.667 -3.83398 44 -6.50098
s35.5 -6 57.5 -10l-5 -76c-36 7.33301 -66.667 13.166 -92 17.499s-48.666 6.5 -69.999 6.5c-42.667 0 -74.667 -7 -96 -21s-32 -34 -32 -60c0 -16 3.5 -29 10.5 -39s16.667 -18.167 29 -24.5s26.833 -11.5 43.5 -15.5s35 -7.66699 55 -11
c24.667 -4 47.834 -9.5 69.501 -16.5s40.5 -16.5 56.5 -28.5s28.5 -27.167 37.5 -45.5s13.5 -41.166 13.5 -68.499c0 -51.333 -18.5 -91 -55.5 -119s-89.833 -42 -158.5 -42z" />
    <glyph glyph-name="Scircumflex" unicode="&#x15c;" horiz-adv-x="616" 
d="M294 -11c-34.667 0 -74.167 2.66699 -118.5 8s-87.5 12.666 -129.5 21.999v79c46 -10 90.167 -17.833 132.5 -23.5s79.5 -8.5 111.5 -8.5c62 0 109 10.5 141 31.5s48 51.167 48 90.5c0 24 -4.66699 44 -14 60s-22.166 29.167 -38.499 39.5s-35.333 18.833 -57 25.5
s-44.834 13 -69.501 19c-43.333 10 -80.333 21.5 -111 34.5s-55.667 28.167 -75 45.5s-33.333 37.5 -42 60.5s-13 49.5 -13 79.5c0 30.667 6.33301 58.667 19 84s30.667 46.833 54 64.5s51.5 31.334 84.5 41.001s70.167 14.5 111.5 14.5c29.333 0 60.833 -2 94.5 -6
s71.5 -10.667 113.5 -20v-79c-32.667 9.33301 -66.834 16.333 -102.501 21s-68.167 7 -97.5 7c-56 0 -99.833 -11.333 -131.5 -34s-47.5 -53 -47.5 -91c0 -18.667 3 -35 9 -49s15.833 -26.667 29.5 -38s31.834 -21.5 54.501 -30.5s50.667 -17.5 84 -25.5
c34 -8 65.667 -17.167 95 -27.5s55 -23.5 77 -39.5s39.167 -36 51.5 -60s18.5 -53.667 18.5 -89c0 -67.333 -24 -118.5 -72 -153.5s-118 -52.5 -210 -52.5zM140 886l176 75l176 -75v-74l-176 75l-176 -75v74z" />
    <glyph glyph-name="scircumflex" unicode="&#x15d;" horiz-adv-x="504" 
d="M74 703l175 75l176 -75v-73l-175 75l-176 -75v73zM246 -11c-25.333 0 -53.3369 1.83301 -84.0039 5.5s-68.667 9.83398 -114 18.501v74c37.333 -8 71.833 -14.5 103.5 -19.5s61.834 -7.5 90.501 -7.5c86 0 129 28.333 129 85c0 16 -3 29.333 -9 40
s-14.5 19.334 -25.5 26.001s-24 12 -39 16s-31.167 7.66699 -48.5 11c-22 4 -44.5 8.5 -67.5 13.5s-43.833 13 -62.5 24s-34 26.167 -46 45.5s-18 45 -18 77c0 48.667 18.833 86.667 56.5 114s89.834 41 156.501 41c12 0 23.5 -0.333008 34.5 -1s23 -1.83398 36 -3.50098
s27.667 -3.83398 44 -6.50098s35.5 -6 57.5 -10l-5 -76c-36 7.33301 -66.667 13.166 -92 17.499s-48.666 6.5 -69.999 6.5c-42.667 0 -74.667 -7 -96 -21s-32 -34 -32 -60c0 -16 3.5 -29 10.5 -39s16.667 -18.167 29 -24.5s26.833 -11.5 43.5 -15.5s35 -7.66699 55 -11
c24.667 -4 47.834 -9.5 69.501 -16.5s40.5 -16.5 56.5 -28.5s28.5 -27.167 37.5 -45.5s13.5 -41.166 13.5 -68.499c0 -51.333 -18.5 -91 -55.5 -119s-89.833 -42 -158.5 -42z" />
    <glyph glyph-name="uni015E" unicode="&#x15e;" horiz-adv-x="616" 
d="M272 -220c-13.333 0 -28.668 1.16797 -46.001 3.50098s-33.666 5.16602 -48.999 8.49902v62c20.667 -7.33301 45 -11 73 -11s47.667 4.33301 59 13s17 23.667 17 45c0 13.333 -2.33301 26.5 -7 39.5s-13.334 29.167 -26.001 48.5c-34.667 0 -74.167 2.66699 -118.5 8
s-87.166 12.666 -128.499 21.999v79c46 -10 90.167 -17.833 132.5 -23.5s79.5 -8.5 111.5 -8.5c62 0 109 10.5 141 31.5s48 51.167 48 90.5c0 24 -4.66699 44 -14 60s-22.166 29.167 -38.499 39.5s-35.333 18.833 -57 25.5s-44.834 13 -69.501 19
c-43.333 10 -80.333 21.5 -111 34.5s-55.667 28.167 -75 45.5s-33.333 37.5 -42 60.5s-13 49.5 -13 79.5c0 30.667 6.33301 58.667 19 84s30.667 46.833 54 64.5s51.5 31.334 84.5 41.001s70.167 14.5 111.5 14.5c29.333 0 60.833 -2 94.5 -6s71.5 -10.667 113.5 -20v-79
c-32.667 9.33301 -66.834 16.333 -102.501 21s-68.167 7 -97.5 7c-56 0 -99.833 -11.333 -131.5 -34s-47.5 -53 -47.5 -91c0 -18.667 3 -35 9 -49s15.833 -26.667 29.5 -38s31.834 -21.5 54.501 -30.5s50.667 -17.5 84 -25.5c34 -8 65.667 -17.167 95 -27.5
s55 -23.5 77 -39.5s39.167 -36 51.5 -60s18.5 -53.667 18.5 -89c0 -59.333 -18.5 -106 -55.5 -140s-91.167 -54.667 -162.5 -62c14.667 -23.333 24.667 -42 30 -56s8 -28.333 8 -43c0 -36 -10.833 -64 -32.5 -84s-52.167 -30 -91.5 -30z" />
    <glyph glyph-name="uni015F" unicode="&#x15f;" horiz-adv-x="504" 
d="M213 -220c-13.333 0 -28.6709 1.16895 -46.0039 3.50195s-33.666 5.16602 -48.999 8.49902v62c20.667 -7.33301 45 -11 73 -11s47.667 4.33301 59 13s17 23.667 17 45c0 13.333 -2.33301 26.5 -7 39.5s-13.334 29.167 -26.001 48.5c-24 0.666992 -50.5 3 -79.5 7
s-64.5 9.66699 -106.5 17v74c37.333 -8 71.833 -14.5 103.5 -19.5s61.834 -7.5 90.501 -7.5c86 0 129 28.333 129 85c0 16 -3 29.333 -9 40s-14.5 19.334 -25.5 26.001s-24 12 -39 16s-31.167 7.66699 -48.5 11c-22 4 -44.5 8.5 -67.5 13.5s-43.833 13 -62.5 24
s-34 26.167 -46 45.5s-18 45 -18 77c0 48.667 18.833 86.667 56.5 114s89.834 41 156.501 41c12 0 23.5 -0.333008 34.5 -1s23 -1.83398 36 -3.50098s27.667 -3.83398 44 -6.50098s35.5 -6 57.5 -10l-5 -76c-36 7.33301 -66.667 13.166 -92 17.499s-48.666 6.5 -69.999 6.5
c-42.667 0 -74.667 -7 -96 -21s-32 -34 -32 -60c0 -16 3.5 -29 10.5 -39s16.667 -18.167 29 -24.5s26.833 -11.5 43.5 -15.5s35 -7.66699 55 -11c24.667 -4 47.834 -9.5 69.501 -16.5s40.5 -16.5 56.5 -28.5s28.5 -27.167 37.5 -45.5s13.5 -41.166 13.5 -68.499
c0 -44 -13.833 -79.5 -41.5 -106.5s-67.5 -43.833 -119.5 -50.5c14.667 -23.333 24.667 -42 30 -56s8 -28.333 8 -43c0 -36 -10.833 -64 -32.5 -84s-52.167 -30 -91.5 -30z" />
    <glyph glyph-name="Scaron" unicode="&#x160;" horiz-adv-x="616" 
d="M294 -11c-34.667 0 -74.167 2.66699 -118.5 8s-87.5 12.666 -129.5 21.999v79c46 -10 90.167 -17.833 132.5 -23.5s79.5 -8.5 111.5 -8.5c62 0 109 10.5 141 31.5s48 51.167 48 90.5c0 24 -4.66699 44 -14 60s-22.166 29.167 -38.499 39.5s-35.333 18.833 -57 25.5
s-44.834 13 -69.501 19c-43.333 10 -80.333 21.5 -111 34.5s-55.667 28.167 -75 45.5s-33.333 37.5 -42 60.5s-13 49.5 -13 79.5c0 30.667 6.33301 58.667 19 84s30.667 46.833 54 64.5s51.5 31.334 84.5 41.001s70.167 14.5 111.5 14.5c29.333 0 60.833 -2 94.5 -6
s71.5 -10.667 113.5 -20v-79c-32.667 9.33301 -66.834 16.333 -102.501 21s-68.167 7 -97.5 7c-56 0 -99.833 -11.333 -131.5 -34s-47.5 -53 -47.5 -91c0 -18.667 3 -35 9 -49s15.833 -26.667 29.5 -38s31.834 -21.5 54.501 -30.5s50.667 -17.5 84 -25.5
c34 -8 65.667 -17.167 95 -27.5s55 -23.5 77 -39.5s39.167 -36 51.5 -60s18.5 -53.667 18.5 -89c0 -67.333 -24 -118.5 -72 -153.5s-118 -52.5 -210 -52.5zM138 961l176 -75l176 75v-74l-177 -75l-175 75v74z" />
    <glyph glyph-name="scaron" unicode="&#x161;" horiz-adv-x="504" 
d="M74 764l176 -75l176 75v-73l-176 -75l-176 75v73zM246 -11c-25.333 0 -53.3369 1.83301 -84.0039 5.5s-68.667 9.83398 -114 18.501v74c37.333 -8 71.833 -14.5 103.5 -19.5s61.834 -7.5 90.501 -7.5c86 0 129 28.333 129 85c0 16 -3 29.333 -9 40
s-14.5 19.334 -25.5 26.001s-24 12 -39 16s-31.167 7.66699 -48.5 11c-22 4 -44.5 8.5 -67.5 13.5s-43.833 13 -62.5 24s-34 26.167 -46 45.5s-18 45 -18 77c0 48.667 18.833 86.667 56.5 114s89.834 41 156.501 41c12 0 23.5 -0.333008 34.5 -1s23 -1.83398 36 -3.50098
s27.667 -3.83398 44 -6.50098s35.5 -6 57.5 -10l-5 -76c-36 7.33301 -66.667 13.166 -92 17.499s-48.666 6.5 -69.999 6.5c-42.667 0 -74.667 -7 -96 -21s-32 -34 -32 -60c0 -16 3.5 -29 10.5 -39s16.667 -18.167 29 -24.5s26.833 -11.5 43.5 -15.5s35 -7.66699 55 -11
c24.667 -4 47.834 -9.5 69.501 -16.5s40.5 -16.5 56.5 -28.5s28.5 -27.167 37.5 -45.5s13.5 -41.166 13.5 -68.499c0 -51.333 -18.5 -91 -55.5 -119s-89.833 -42 -158.5 -42z" />
    <glyph glyph-name="uni0162" unicode="&#x162;" horiz-adv-x="641" 
d="M273 664l-255.002 0.000976562v76h606v-76h-257v-664h-13c16.667 -26 28 -46.333 34 -61s9 -29.667 9 -45c0 -36 -10.833 -64 -32.5 -84s-52.167 -30 -91.5 -30c-13.333 0 -28.666 1.16699 -45.999 3.5s-33.666 5.16602 -48.999 8.49902v62
c20.667 -7.33301 45 -11 73 -11s47.667 4.33301 59 13s17 23.667 17 45c0 14.667 -2.83301 29.167 -8.5 43.5s-16.167 32.833 -31.5 55.5h-14v664z" />
    <glyph glyph-name="uni0163" unicode="&#x163;" horiz-adv-x="421" 
d="M199 -220c-13.333 0 -28.668 1.1709 -46.001 3.50391s-33.666 5.16602 -48.999 8.49902v62c20.667 -7.33301 45 -11 73 -11s47.667 4.33301 59 13s17 23.667 17 45c0 15.333 -3.33301 30.666 -10 45.999s-18.667 35.666 -36 60.999c-48 23.333 -72 69.333 -72 138v314
h-117v80h122l14 135l72 9v-144h169v-80h-168v-294c0 -34.667 7.66699 -60.334 23 -77.001s40 -25 74 -25c24 0 50 4.33301 78 13v-73c-34 -9.33301 -69.333 -14 -106 -14h-10c14.667 -22.667 24.5 -40.667 29.5 -54s7.5 -27.333 7.5 -42c0 -36 -10.833 -64 -32.5 -84
s-52.167 -30 -91.5 -30z" />
    <glyph glyph-name="Tcaron" unicode="&#x164;" horiz-adv-x="641" 
d="M145 961l176 -75l176 75v-74l-177 -75l-175 75v74zM273 664h-255v76h606v-76h-257v-664h-94v664z" />
    <glyph glyph-name="tcaron" unicode="&#x165;" horiz-adv-x="413" 
d="M296 -10c-52.667 0 -92.667 13.1689 -120 39.502s-41 65.166 -41 116.499v314h-117v80h122l14 135l72 9v-144h119v-80h-118v-294c0 -34.667 7.66699 -60.334 23 -77.001s40 -25 74 -25c24 0 50 4.33301 78 13v-73c-34 -9.33301 -69.333 -14 -106 -14zM323 808.002h77
l-30 -228h-47v228z" />
    <glyph glyph-name="Tbar" unicode="&#x166;" horiz-adv-x="652" 
d="M134 412h143v252h-255v76h606v-76h-257v-252h155v-62h-155v-350h-94v350h-143v62z" />
    <glyph glyph-name="tbar" unicode="&#x167;" horiz-adv-x="432" 
d="M29 339l115 0.00195312v121h-117v80h122l14 135l72 9v-144h169v-80h-168v-121h150v-60h-150v-113c0 -34.667 7.66699 -60.334 23 -77.001s40 -25 74 -25c24 0 50 4.33301 78 13v-73c-34 -9.33301 -69.333 -14 -106 -14c-52.667 0 -92.667 13.167 -120 39.5
s-41 65.166 -41 116.499v133h-115v60z" />
    <glyph glyph-name="Utilde" unicode="&#x168;" horiz-adv-x="797" 
d="M186 866c20.667 26 42.668 45.332 66.001 57.999s46.333 19 69 19c16.667 0 32.667 -2.16699 48 -6.5s30.166 -9 44.499 -14s28.833 -9.66699 43.5 -14s30 -6.5 46 -6.5c17.333 0 34 3 50 9s32.667 15.667 50 29l23 -29c-19.333 -25.333 -41.5 -44.5 -66.5 -57.5
s-49.833 -19.5 -74.5 -19.5c-15.333 0 -30.5 2 -45.5 6s-30 8.5 -45 13.5s-29.833 9.66699 -44.5 14s-29.334 6.5 -44.001 6.5c-16 0 -31.667 -2.66699 -47 -8s-31.666 -14.666 -48.999 -27.999zM399.001 -10.001c-55.333 0 -102.668 6 -142.001 18
s-71.666 30.667 -96.999 56s-44 57.666 -56 96.999s-18 86.666 -18 141.999v437h93v-436c0 -42.667 4.66699 -78.834 14 -108.501s23.166 -54 41.499 -73s41.333 -32.833 69 -41.5s59.5 -13 95.5 -13s67.667 4.33301 95 13s50 22.5 68 41.5s31.667 43.333 41 73
s14 65.834 14 108.501v436h94v-437c0 -55.333 -6 -102.666 -18 -141.999s-30.667 -71.666 -56 -96.999s-57.666 -44 -96.999 -56s-86.333 -18 -141 -18z" />
    <glyph glyph-name="utilde" unicode="&#x169;" horiz-adv-x="646" 
d="M217 -10c-46.667 0 -81.834 12.834 -105.501 38.501s-35.5 62.834 -35.5 111.501v400h92v-369c0 -36.667 6.66699 -63.167 20 -79.5s35.666 -24.5 66.999 -24.5c18 0 36.333 2.16699 55 6.5s37.5 9.66602 56.5 15.999s37.667 13.5 56 21.5l51.5 23v406h92v-540h-76l-6 69
h-4l-81 -35.5c-22.667 -9.66699 -43.667 -17.834 -63 -24.501s-38.166 -11.5 -56.499 -14.5s-39.166 -4.5 -62.499 -4.5zM102 681.001c20.667 26.667 42.501 46.332 65.501 58.999s45.833 19 68.5 19c17.333 0 33.5 -2.16699 48.5 -6.5s29.833 -9 44.5 -14
s29.167 -9.66699 43.5 -14s29.5 -6.5 45.5 -6.5c17.333 0 34 2.83301 50 8.5s32.667 15.167 50 28.5l24 -28c-20 -25.333 -42.333 -44.666 -67 -57.999s-49.334 -20 -74.001 -20c-15.333 0 -30.666 2.16699 -45.999 6.5s-30.5 9 -45.5 14s-29.833 9.66699 -44.5 14
s-29.334 6.5 -44.001 6.5c-16 0 -31.667 -2.83301 -47 -8.5s-31.333 -15.167 -48 -28.5z" />
    <glyph glyph-name="Umacron" unicode="&#x16a;" horiz-adv-x="797" 
d="M221 911h347v-69h-347v69zM399 -10c-55.333 0 -102.668 6 -142.001 18s-71.666 30.667 -96.999 56s-44 57.666 -56 96.999s-18 86.666 -18 141.999v437h93v-436c0 -42.667 4.66699 -78.834 14 -108.501s23.166 -54 41.499 -73s41.333 -32.833 69 -41.5s59.5 -13 95.5 -13
s67.667 4.33301 95 13s50 22.5 68 41.5s31.667 43.333 41 73s14 65.834 14 108.501v436h94v-437c0 -55.333 -6 -102.666 -18 -141.999s-30.667 -71.666 -56 -96.999s-57.666 -44 -96.999 -56s-86.333 -18 -141 -18z" />
    <glyph glyph-name="umacron" unicode="&#x16b;" horiz-adv-x="646" 
d="M217 -10c-46.667 0 -81.834 12.834 -105.501 38.501s-35.5 62.834 -35.5 111.501v400h92v-369c0 -36.667 6.66699 -63.167 20 -79.5s35.666 -24.5 66.999 -24.5c18 0 36.333 2.16699 55 6.5s37.5 9.66602 56.5 15.999s37.667 13.5 56 21.5l51.5 23v406h92v-540h-76l-6 69
h-4l-81 -35.5c-22.667 -9.66699 -43.667 -17.834 -63 -24.501s-38.166 -11.5 -56.499 -14.5s-39.166 -4.5 -62.499 -4.5zM146 718.001h348v-68h-348v68z" />
    <glyph glyph-name="Ubreve" unicode="&#x16c;" horiz-adv-x="797" 
d="M395 815c-66 0 -114.5 13.8311 -145.5 41.498s-46.5 63.834 -46.5 108.501h69c0 -30 10.167 -53.333 30.5 -70s51.166 -25 92.499 -25c42 0 73.167 8.33301 93.5 25s30.5 40 30.5 70h68c0 -45.333 -15.667 -81.666 -47 -108.999s-79.666 -41 -144.999 -41zM399 -10.002
c-55.333 0 -102.668 6 -142.001 18s-71.666 30.667 -96.999 56s-44 57.666 -56 96.999s-18 86.666 -18 141.999v437h93v-436c0 -42.667 4.66699 -78.834 14 -108.501s23.166 -54 41.499 -73s41.333 -32.833 69 -41.5s59.5 -13 95.5 -13s67.667 4.33301 95 13
s50 22.5 68 41.5s31.667 43.333 41 73s14 65.834 14 108.501v436h94v-437c0 -55.333 -6 -102.666 -18 -141.999s-30.667 -71.666 -56 -96.999s-57.666 -44 -96.999 -56s-86.333 -18 -141 -18z" />
    <glyph glyph-name="ubreve" unicode="&#x16d;" horiz-adv-x="646" 
d="M217 -10c-46.667 0 -81.834 12.834 -105.501 38.501s-35.5 62.834 -35.5 111.501v400h92v-369c0 -36.667 6.66699 -63.167 20 -79.5s35.666 -24.5 66.999 -24.5c18 0 36.333 2.16699 55 6.5s37.5 9.66602 56.5 15.999s37.667 13.5 56 21.5l51.5 23v406h92v-540h-76l-6 69
h-4l-81 -35.5c-22.667 -9.66699 -43.667 -17.834 -63 -24.501s-38.166 -11.5 -56.499 -14.5s-39.166 -4.5 -62.499 -4.5zM316 618.001c-34.667 0 -64.166 3.66699 -88.499 11s-44.333 17.833 -60 31.5s-27.167 30.167 -34.5 49.5s-11 41 -11 65h68c0 -38 10.5 -65 31.5 -81
s52.5 -24 94.5 -24c41.333 0 72.5 8 93.5 24s31.5 43 31.5 81h67c0 -47.333 -14.833 -85.333 -44.5 -114s-78.834 -43 -147.501 -43z" />
    <glyph glyph-name="Uring" unicode="&#x16e;" horiz-adv-x="797" 
d="M399 -10c-55.333 0 -102.668 6 -142.001 18s-71.666 30.667 -96.999 56s-44 57.666 -56 96.999s-18 86.666 -18 141.999v437h93v-436c0 -42.667 4.66699 -78.834 14 -108.501s23.166 -54 41.499 -73s41.333 -32.833 69 -41.5s59.5 -13 95.5 -13s67.667 4.33301 95 13
s50 22.5 68 41.5s31.667 43.333 41 73s14 65.834 14 108.501v436h94v-437c0 -55.333 -6 -102.666 -18 -141.999s-30.667 -71.666 -56 -96.999s-57.666 -44 -96.999 -56s-86.333 -18 -141 -18zM396.998 798c-18 0 -34.833 2.66699 -50.5 8s-29.334 12.833 -41.001 22.5
s-20.667 21.167 -27 34.5s-9.5 28 -9.5 44s3.16699 30.833 9.5 44.5s15.333 25.334 27 35.001s25.334 17.334 41.001 23.001s32.5 8.5 50.5 8.5s34.667 -2.83301 50 -8.5s28.833 -13.334 40.5 -23.001s20.667 -21.334 27 -35.001s9.5 -28.5 9.5 -44.5
s-3.16699 -30.667 -9.5 -44s-15.333 -24.833 -27 -34.5s-25.167 -17.167 -40.5 -22.5s-32 -8 -50 -8zM396.998 843c51.333 0 76.999 21.333 76.999 64c0 21.333 -6.5 37.666 -19.5 48.999s-32.167 17 -57.5 17s-44.666 -5.66699 -57.999 -17s-20 -27.666 -20 -48.999
c0 -42.667 26 -64 78 -64z" />
    <glyph glyph-name="uring" unicode="&#x16f;" horiz-adv-x="646" 
d="M321 598c-18 0 -35 2.66699 -51 8s-29.667 12.833 -41 22.5s-20.333 21.167 -27 34.5s-10 28 -10 44s3.33301 30.833 10 44.5s15.667 25.334 27 35.001s25 17.334 41 23.001s33 8.5 51 8.5s34.667 -2.83301 50 -8.5s28.833 -13.334 40.5 -23.001
s20.667 -21.334 27 -35.001s9.5 -28.5 9.5 -44.5s-3.16699 -30.667 -9.5 -44s-15.333 -24.833 -27 -34.5s-25.167 -17.167 -40.5 -22.5s-32 -8 -50 -8zM321 643c50.667 0 75.999 21.333 75.999 64c0 21.333 -6.33301 37.666 -19 48.999s-31.667 17 -57 17
s-44.666 -5.66699 -57.999 -17s-20 -27.666 -20 -48.999c0 -42.667 26 -64 78 -64zM216.999 -10c-46.667 0 -81.834 12.834 -105.501 38.501s-35.5 62.834 -35.5 111.501v400h92v-369c0 -36.667 6.66699 -63.167 20 -79.5s35.666 -24.5 66.999 -24.5
c18 0 36.333 2.16699 55 6.5s37.5 9.66602 56.5 15.999s37.667 13.5 56 21.5l51.5 23v406h92v-540h-76l-6 69h-4l-81 -35.5c-22.667 -9.66699 -43.667 -17.834 -63 -24.501s-38.166 -11.5 -56.499 -14.5s-39.166 -4.5 -62.499 -4.5z" />
    <glyph glyph-name="Uhungarumlaut" unicode="&#x170;" horiz-adv-x="797" 
d="M399 -10c-55.333 0 -102.668 6 -142.001 18s-71.666 30.667 -96.999 56s-44 57.666 -56 96.999s-18 86.666 -18 141.999v437h93v-436c0 -42.667 4.66699 -78.834 14 -108.501s23.166 -54 41.499 -73s41.333 -32.833 69 -41.5s59.5 -13 95.5 -13s67.667 4.33301 95 13
s50 22.5 68 41.5s31.667 43.333 41 73s14 65.834 14 108.501v436h94v-437c0 -55.333 -6 -102.666 -18 -141.999s-30.667 -71.666 -56 -96.999s-57.666 -44 -96.999 -56s-86.333 -18 -141 -18zM273.998 811l73 135h95l-99 -148zM436.998 811l74 135h96l-99 -148z" />
    <glyph glyph-name="uhungarumlaut" unicode="&#x171;" horiz-adv-x="646" 
d="M217 -10c-46.667 0 -81.834 12.834 -105.501 38.501s-35.5 62.834 -35.5 111.501v400h92v-369c0 -36.667 6.66699 -63.167 20 -79.5s35.666 -24.5 66.999 -24.5c18 0 36.333 2.16699 55 6.5s37.5 9.66602 56.5 15.999s37.667 13.5 56 21.5l51.5 23v406h92v-540h-76l-6 69
h-4l-81 -35.5c-22.667 -9.66699 -43.667 -17.834 -63 -24.501s-38.166 -11.5 -56.499 -14.5s-39.166 -4.5 -62.499 -4.5zM181 626.001l70 182h98l-101 -192zM377 626.001l70 182h97l-101 -192z" />
    <glyph glyph-name="Uogonek" unicode="&#x172;" horiz-adv-x="797" 
d="M392 -208c-74 0 -110.997 27.6689 -110.997 83.002c0 21.333 6 41.166 18 59.499s32.667 37.166 62 56.499c-48.667 2.66699 -90.334 10.667 -125.001 24s-63.167 32.666 -85.5 57.999s-38.666 57 -48.999 95s-15.5 83 -15.5 135v437h93v-436
c0 -42.667 4.66699 -78.834 14 -108.501s23.166 -54 41.499 -73s41.333 -32.833 69 -41.5s59.5 -13 95.5 -13s67.667 4.33301 95 13s50 22.5 68 41.5s31.667 43.333 41 73s14 65.834 14 108.501v436h94v-437c0 -97.333 -19 -170.833 -57 -220.5s-99 -79.167 -183 -88.5
c-44 -21.333 -75.667 -41.166 -95 -59.499s-29 -36.5 -29 -54.5c0 -21.333 15 -32 45 -32c10 0 22.167 1 36.5 3s28.166 4.66699 41.499 8v-55c-10 -4 -21.833 -7 -35.5 -9s-27.834 -3 -42.501 -3z" />
    <glyph glyph-name="uogonek" unicode="&#x173;" horiz-adv-x="646" 
d="M217 -10c-46.667 0 -81.8311 12.832 -105.498 38.499s-35.5 62.834 -35.5 111.501v400h92v-369c0 -36.667 6.66699 -63.167 20 -79.5s35.666 -24.5 66.999 -24.5c18 0 36.333 2.16699 55 6.5s37.5 9.66602 56.5 15.999s37.667 13.5 56 21.5l51.5 23v406h92v-558
c-44 -21.333 -75.667 -41.166 -95 -59.499s-29 -36.5 -29 -54.5c0 -21.333 15 -32 45 -32c10 0 22.167 1 36.5 3s28.166 4.66699 41.499 8v-55c-10 -4 -21.833 -7 -35.5 -9s-27.834 -3 -42.501 -3c-74 0 -111 27.667 -111 83c0 25.333 8.66699 48.333 26 69
s46.666 43.334 87.999 68.001l-6 69h-4l-81 -35.5c-22.667 -9.66699 -43.667 -17.834 -63 -24.501s-38.166 -11.5 -56.499 -14.5s-39.166 -4.5 -62.499 -4.5z" />
    <glyph glyph-name="Wcircumflex" unicode="&#x174;" horiz-adv-x="1063" 
d="M21 740h97l137 -501l37 -146h7l39 146l145 501h97l144 -501l41 -146h7l37 146l136 501h98l-210 -740h-127l-139 478l-32 140h-6l-32 -141l-139 -477h-128zM356 886l176 75l176 -75v-74l-176 75l-176 -75v74z" />
    <glyph glyph-name="wcircumflex" unicode="&#x175;" horiz-adv-x="836" 
d="M241 703l175 75l176 -75v-73l-175 75l-176 -75v73zM24 533v7h90l104 -372l19 -81h6l20 81l110 372h87l116 -372l21 -81h7l18 81l97 372h90v-7l-153 -533h-104l-113 358l-18 77h-7l-18 -77l-108 -358h-104z" />
    <glyph glyph-name="Ycircumflex" unicode="&#x176;" horiz-adv-x="664" 
d="M286 247l-282 493h100l191 -338l32 -69h10l32 69l190 338h100l-280 -491v-249h-93v247zM155 886l176 75l176 -75v-74l-176 75l-176 -75v74z" />
    <glyph glyph-name="ycircumflex" unicode="&#x177;" horiz-adv-x="598" 
d="M164 -206l-1 11l89 201l-234 522v12h99l151 -358l28 -82h6l28 82l157 358h96v-12l-337 -748zM123 703l175 75l176 -75v-73l-175 75l-176 -75v73z" />
    <glyph glyph-name="Ydieresis" unicode="&#x178;" horiz-adv-x="664" 
d="M286 247l-282 493h100l191 -338l32 -69h10l32 69l190 338h100l-280 -491v-249h-93v247zM190 822c-39.333 0 -59 19.667 -59 59c0 20 5 34.5 15 43.5s24.667 13.5 44 13.5s34 -4.5 44 -13.5s15 -23.5 15 -43.5c0 -39.333 -19.667 -59 -59 -59zM472 822
c-39.333 0 -58.999 19.667 -58.999 59c0 20 5 34.5 15 43.5s24.667 13.5 44 13.5s34.166 -4.5 44.499 -13.5s15.5 -23.5 15.5 -43.5c0 -39.333 -20 -59 -60 -59z" />
    <glyph glyph-name="Zacute" unicode="&#x179;" horiz-adv-x="622" 
d="M35 67l422 589v5h-408v79h525v-64l-421 -592v-5h433v-79h-551v67zM280 812l74 141h96l-99 -148z" />
    <glyph glyph-name="zacute" unicode="&#x17a;" horiz-adv-x="524" 
d="M231 616l70 185h95l-99 -192zM40 62l314 397v6h-304v75h425v-57l-311 -400v-7h321v-75h-445v61z" />
    <glyph glyph-name="Zdotaccent" unicode="&#x17b;" horiz-adv-x="622" 
d="M316 818c-20 0 -34.999 4.5 -44.999 13.5s-15 23.833 -15 44.5s5 35.5 15 44.5s25 13.5 45 13.5c19.333 0 34.166 -4.5 44.499 -13.5s15.5 -23.833 15.5 -44.5c0 -38.667 -20 -58 -60 -58zM35.001 67l422 589v5h-408v79h525v-64l-421 -592v-5h433v-79h-551v67z" />
    <glyph glyph-name="zdotaccent" unicode="&#x17c;" horiz-adv-x="524" 
d="M40 62l314 397v6h-304v75h425v-57l-311 -400v-7h321v-75h-445v61zM256 650c-40 0 -60 19.667 -60 59c0 38.667 20 58 60 58c39.333 0 59 -19.333 59 -58c0 -39.333 -19.667 -59 -59 -59z" />
    <glyph glyph-name="Zcaron" unicode="&#x17d;" horiz-adv-x="622" 
d="M139 961l176 -75l176 75v-74l-177 -75l-175 75v74zM35 67l422 589v5h-408v79h525v-64l-421 -592v-5h433v-79h-551v67z" />
    <glyph glyph-name="zcaron" unicode="&#x17e;" horiz-adv-x="524" 
d="M85 764l176 -75l176 75v-73l-176 -75l-176 75v73zM40 62l314 397v6h-304v75h425v-57l-311 -400v-7h321v-75h-445v61z" />
    <glyph glyph-name="Schwa" unicode="&#x18f;" horiz-adv-x="728" 
d="M49 329c0 30.667 2 59.6689 6 87.002h526c-2 44.667 -8.16699 83 -18.5 115s-25.166 58 -44.499 78s-43.833 34.667 -73.5 44s-64.834 14 -105.501 14c-35.333 0 -74.333 -2.83301 -117 -8.5s-89.334 -15.167 -140.001 -28.5l-5 78c16.667 6 36.167 11.667 58.5 17
s45.5 9.83301 69.5 13.5s48.167 6.5 72.5 8.5s46.5 3 66.5 3c218.667 0 328 -122.333 328 -367c0 -62.667 -7 -118.334 -21 -167.001s-34.5 -89.834 -61.5 -123.501s-60.333 -59.167 -100 -76.5s-85.5 -26 -137.5 -26c-95.333 0 -169.666 29 -222.999 87s-80 142 -80 252z
M351 67.002c76 0 132.5 22.333 169.5 67s57.167 115.334 60.5 212.001h-443c-4.66699 -88.667 10.333 -157.334 45 -206.001s90.667 -73 168 -73z" />
    <glyph glyph-name="florin" unicode="&#x192;" horiz-adv-x="442" 
d="M161 460l-130.001 -0.000976562v80h131v23c0 49.333 4 89.833 12 121.5s22.167 56.834 42.5 75.501s48 32 83 40s79.167 12.667 132.5 14l5 -67c-38 -2.66699 -68.833 -6.5 -92.5 -11.5s-42.167 -13 -55.5 -24s-22.666 -26.333 -27.999 -46s-8.33301 -45.167 -9 -76.5
v-49h158v-80h-158v-639l-91 -41v680z" />
    <glyph glyph-name="uni01C4" unicode="&#x1c4;" horiz-adv-x="1399" 
d="M915 961l176 -75l176 75v-74l-177 -75l-175 75v74zM812 67l422 589v5h-408v79h525v-64l-421 -592v-5h433v-79h-551v67zM302 -9c-22.667 0 -44.6689 0.333008 -66.002 1s-41.166 1.66699 -59.499 3s-34.666 3 -48.999 5s-25.5 4.33301 -33.5 7v732
c17.333 1.33301 36.333 2.5 57 3.5l61.5 3c20.333 1 39.833 1.83301 58.5 2.5s34.667 1 48 1c138.667 0 240.5 -30.5 305.5 -91.5s97.5 -156.833 97.5 -287.5c0 -66 -8.16699 -122.833 -24.5 -170.5s-41.5 -87 -75.5 -118s-77.5 -53.833 -130.5 -68.5
s-116.167 -22 -189.5 -22zM330.998 68c103.333 0 178.502 23.999 225.502 71.999s70.5 124.667 70.5 230c0 104.667 -23.667 180.834 -71 228.501s-123 71.5 -227 71.5c-18.667 0 -41.334 -0.666992 -68.001 -2s-51.334 -3 -74.001 -5v-584
c27.333 -4 51.5 -6.83301 72.5 -8.5s44.833 -2.5 71.5 -2.5z" />
    <glyph glyph-name="uni01C5" unicode="&#x1c5;" horiz-adv-x="1301" 
d="M861 764l176 -75l176 75v-73l-176 -75l-176 75v73zM817 62l314 397v6h-304v75h425v-57l-311 -400v-7h321v-75h-445v61zM302 -9c-22.667 0 -44.6689 0.333008 -66.002 1s-41.166 1.66699 -59.499 3s-34.666 3 -48.999 5s-25.5 4.33301 -33.5 7v732
c17.333 1.33301 36.333 2.5 57 3.5l61.5 3c20.333 1 39.833 1.83301 58.5 2.5s34.667 1 48 1c138.667 0 240.5 -30.5 305.5 -91.5s97.5 -156.833 97.5 -287.5c0 -66 -8.16699 -122.833 -24.5 -170.5s-41.5 -87 -75.5 -118s-77.5 -53.833 -130.5 -68.5
s-116.167 -22 -189.5 -22zM330.998 68c103.333 0 178.502 23.999 225.502 71.999s70.5 124.667 70.5 230c0 104.667 -23.667 180.834 -71 228.501s-123 71.5 -227 71.5c-18.667 0 -41.334 -0.666992 -68.001 -2s-51.334 -3 -74.001 -5v-584
c27.333 -4 51.5 -6.83301 72.5 -8.5s44.833 -2.5 71.5 -2.5z" />
    <glyph glyph-name="uni01C6" unicode="&#x1c6;" horiz-adv-x="1169" 
d="M728 764l176 -75l176 75v-73l-176 -75l-176 75v73zM683 62l314 397v6h-304v75h425v-57l-311 -400v-7h321v-75h-445v61zM290 -10c-78 0 -137.501 22.168 -178.501 66.501s-61.5 114.166 -61.5 209.499c0 48.667 6.83301 90.834 20.5 126.501s32.834 65.167 57.501 88.5
s54.167 40.666 88.5 51.999s72.5 17 114.5 17c27.333 0 53 -1.33301 77 -4s45.333 -4.66699 64 -6v268h91v-808h-79l-8 70h-7c-39.333 -53.333 -99 -80 -179 -80zM310.999 63.001c21.333 0 41.8291 2.83008 61.4961 8.49707s36.834 13.834 51.501 24.501
s26.334 23.5 35.001 38.5s13 32.167 13 51.5v282c-18 2.66699 -39.333 5.33398 -64 8.00098s-51 4 -79 4c-61.333 0 -107.666 -16 -138.999 -48s-47 -86 -47 -162c0 -37.333 3.33301 -69.166 10 -95.499s16.834 -47.833 30.501 -64.5s31 -28.667 52 -36s46.167 -11 75.5 -11
z" />
    <glyph glyph-name="uni01C7" unicode="&#x1c7;" horiz-adv-x="850" 
d="M587 -160c14.667 31.333 26.999 60.668 36.999 88.001s18 54.5 24 81.5s10.333 54.833 13 83.5s4 60 4 94v553h93v-559c0 -34 -1.66699 -65.167 -5 -93.5s-9.16602 -56.833 -17.499 -85.5s-19.333 -58.334 -33 -89.001s-30.5 -65 -50.5 -103zM93.999 740.002h93v-665h368
v-75h-461v740z" />
    <glyph glyph-name="uni01C8" unicode="&#x1c8;" horiz-adv-x="820" 
d="M692 649c-20 0 -34.5 4.33301 -43.5 13s-13.5 22.667 -13.5 42s4.5 33.5 13.5 42.5s23.5 13.5 43.5 13.5c37.333 0 56 -18.667 56 -56c0 -36.667 -18.667 -55 -56 -55zM583 -200c12 24.667 22.168 49.1689 30.501 73.502s15.166 49.666 20.499 75.999
s9.33301 54.5 12 84.5s4 63.333 4 100v33v68v87v90.5c0 29 -0.166992 55 -0.5 78s-0.5 39.5 -0.5 49.5h91v-454c-2 -56.667 -10.5 -110.334 -25.5 -161.001s-36.5 -99 -64.5 -145zM94.001 740.002h93v-665h368v-75h-461v740z" />
    <glyph glyph-name="uni01C9" unicode="&#x1c9;" horiz-adv-x="508" 
d="M380 649c-20 0 -34.5 4.33301 -43.5 13s-13.5 22.667 -13.5 42s4.5 33.5 13.5 42.5s23.5 13.5 43.5 13.5c37.333 0 56 -18.667 56 -56c0 -36.667 -18.667 -55 -56 -55zM271 -200c12 24.667 22.168 49.1689 30.501 73.502s15.166 49.666 20.499 75.999
s9.33301 54.5 12 84.5s4 63.333 4 100v33v68v87v90.5c0 29 -0.166992 55 -0.5 78s-0.5 39.5 -0.5 49.5h91v-454c-2 -56.667 -10.5 -110.334 -25.5 -161.001s-36.5 -99 -64.5 -145zM82.001 808.002h92v-808h-92v808z" />
    <glyph glyph-name="uni01CA" unicode="&#x1ca;" horiz-adv-x="1104" 
d="M841 -160c14.667 31.333 26.999 60.668 36.999 88.001s18 54.5 24 81.5s10.333 54.833 13 83.5s4 60 4 94v553h93v-559c0 -34 -1.66699 -65.167 -5 -93.5s-9.16602 -56.833 -17.499 -85.5s-19.333 -58.334 -33 -89.001s-30.5 -65 -50.5 -103zM93.999 740.002h79l402 -514
l63 -90h7v604h84v-740h-79l-404 515l-62 87h-6v-602h-84v740z" />
    <glyph glyph-name="uni01CB" unicode="&#x1cb;" horiz-adv-x="1074" 
d="M946 649c-20 0 -34.5 4.33301 -43.5 13s-13.5 22.667 -13.5 42s4.5 33.5 13.5 42.5s23.5 13.5 43.5 13.5c37.333 0 56 -18.667 56 -56c0 -36.667 -18.667 -55 -56 -55zM837 -200c12 24.667 22.168 49.1689 30.501 73.502s15.166 49.666 20.499 75.999
s9.33301 54.5 12 84.5s4 63.333 4 100v33v68v87v90.5c0 29 -0.166992 55 -0.5 78s-0.5 39.5 -0.5 49.5h91v-454c-2 -56.667 -10.5 -110.334 -25.5 -161.001s-36.5 -99 -64.5 -145zM94.001 740.002h79l402 -514l63 -90h7v604h84v-740h-79l-404 515l-62 87h-6v-602h-84v740z
" />
    <glyph glyph-name="uni01CC" unicode="&#x1cc;" horiz-adv-x="898" 
d="M769 649c-20 0 -34.5 4.33301 -43.5 13s-13.5 22.667 -13.5 42s4.5 33.5 13.5 42.5s23.5 13.5 43.5 13.5c37.333 0 56 -18.667 56 -56c0 -36.667 -18.667 -55 -56 -55zM660 -200c12 24.667 22.168 49.1689 30.501 73.502s15.166 49.666 20.499 75.999
s9.33301 54.5 12 84.5s4 63.333 4 100v33v68v87v90.5c0 29 -0.166992 55 -0.5 78s-0.5 39.5 -0.5 49.5h91v-454c-2 -56.667 -10.5 -110.334 -25.5 -161.001s-36.5 -99 -64.5 -145zM80.001 540.002h75.998l6 -64h6c30 13.333 57 24.666 81 33.999s45.833 17 65.5 23
s38 10.333 55 13s33.5 4 49.5 4c48 0 85.167 -12.5 111.5 -37.5s39.5 -62.5 39.5 -112.5v-400h-92v367c0 38.667 -7.66699 66.334 -23 83.001s-39 25 -71 25c-27.333 0 -59.166 -5.66699 -95.499 -17s-75.166 -26.333 -116.499 -45v-413h-92v540z" />
    <glyph glyph-name="Oogonek" unicode="&#x1ea;" horiz-adv-x="792" 
d="M388 -206c-74 0 -110.998 27.667 -110.998 83c0 21.333 6 41 18 59s32 36.667 60 56c-96.667 7.33301 -171 43 -223 107s-78 154 -78 270c0 124 29.667 218.5 89 283.5s143.666 97.5 252.999 97.5c108.667 0 192.667 -32.5 252 -97.5s89 -159.5 89 -283.5
c0 -110 -23.667 -196.5 -71 -259.5s-114.666 -101.167 -201.999 -114.5c-42.667 -21.333 -73.5 -41 -92.5 -59s-28.5 -36 -28.5 -54c0 -21.333 15 -32 45 -32c10 0 22.167 1 36.5 3s28.166 4.66699 41.499 8v-55c-10 -4 -21.833 -7 -35.5 -9s-27.834 -3 -42.501 -3z
M396.002 68c164 0 245.999 100.334 245.999 301.001c0 101.333 -20.667 177.166 -62 227.499s-102.666 75.5 -183.999 75.5c-164.667 0 -247 -101 -247 -303c0 -200.667 82.333 -301 247 -301z" />
    <glyph glyph-name="oogonek" unicode="&#x1eb;" horiz-adv-x="629" 
d="M309 -205c-74 0 -110.997 27.668 -110.997 83.001c0 21.333 5.83301 40.833 17.5 58.5s31.5 36.167 59.5 55.5c-73.333 7.33301 -129.333 34.666 -168 81.999s-58 112.666 -58 195.999c0 90.667 22.833 160 68.5 208s111.5 72 197.5 72c85.333 0 150.666 -24 195.999 -72
s68 -117.333 68 -208c0 -76.667 -16.333 -138.167 -49 -184.5s-80.334 -75.833 -143.001 -88.5c-43.333 -21.333 -74.666 -41.166 -93.999 -59.499s-29 -36.5 -29 -54.5c0 -21.333 15 -32 45 -32c10 0 22.167 1 36.5 3s28.166 4.66699 41.499 8v-55
c-10 -4 -21.833 -7 -35.5 -9s-27.834 -3 -42.501 -3zM315.003 64.001c59.333 0 102.666 16.667 129.999 50s41 85.333 41 156s-13.667 122.5 -41 155.5s-70.666 49.5 -129.999 49.5s-102.833 -16.5 -130.5 -49.5s-41.5 -84.833 -41.5 -155.5s13.833 -122.667 41.5 -156
s71.167 -50 130.5 -50z" />
    <glyph glyph-name="uni01F1" unicode="&#x1f1;" horiz-adv-x="1383" 
d="M796 67l422 589v5h-408v79h525v-64l-421 -592v-5h433v-79h-551v67zM302 -9c-22.667 0 -44.6689 0.333008 -66.002 1s-41.166 1.66699 -59.499 3s-34.666 3 -48.999 5s-25.5 4.33301 -33.5 7v732c17.333 1.33301 36.333 2.5 57 3.5l61.5 3
c20.333 1 39.833 1.83301 58.5 2.5s34.667 1 48 1c138.667 0 240.5 -30.5 305.5 -91.5s97.5 -156.833 97.5 -287.5c0 -66 -8.16699 -122.833 -24.5 -170.5s-41.5 -87 -75.5 -118s-77.5 -53.833 -130.5 -68.5s-116.167 -22 -189.5 -22zM330.998 68
c103.333 0 178.502 23.999 225.502 71.999s70.5 124.667 70.5 230c0 104.667 -23.667 180.834 -71 228.501s-123 71.5 -227 71.5c-18.667 0 -41.334 -0.666992 -68.001 -2s-51.334 -3 -74.001 -5v-584c27.333 -4 51.5 -6.83301 72.5 -8.5s44.833 -2.5 71.5 -2.5z" />
    <glyph glyph-name="uni01F2" unicode="&#x1f2;" horiz-adv-x="1298" 
d="M813 62l314 397v6h-304v75h425v-57l-311 -400v-7h321v-75h-445v61zM302 -9c-22.667 0 -44.6689 0.333008 -66.002 1s-41.166 1.66699 -59.499 3s-34.666 3 -48.999 5s-25.5 4.33301 -33.5 7v732c17.333 1.33301 36.333 2.5 57 3.5l61.5 3
c20.333 1 39.833 1.83301 58.5 2.5s34.667 1 48 1c138.667 0 240.5 -30.5 305.5 -91.5s97.5 -156.833 97.5 -287.5c0 -66 -8.16699 -122.833 -24.5 -170.5s-41.5 -87 -75.5 -118s-77.5 -53.833 -130.5 -68.5s-116.167 -22 -189.5 -22zM330.998 68
c103.333 0 178.502 23.999 225.502 71.999s70.5 124.667 70.5 230c0 104.667 -23.667 180.834 -71 228.501s-123 71.5 -227 71.5c-18.667 0 -41.334 -0.666992 -68.001 -2s-51.334 -3 -74.001 -5v-584c27.333 -4 51.5 -6.83301 72.5 -8.5s44.833 -2.5 71.5 -2.5z" />
    <glyph glyph-name="uni01F3" unicode="&#x1f3;" horiz-adv-x="1169" 
d="M683 62l314 397v6h-304v75h425v-57l-311 -400v-7h321v-75h-445v61zM290 -10c-78 0 -137.501 22.168 -178.501 66.501s-61.5 114.166 -61.5 209.499c0 48.667 6.83301 90.834 20.5 126.501s32.834 65.167 57.501 88.5s54.167 40.666 88.5 51.999s72.5 17 114.5 17
c27.333 0 53 -1.33301 77 -4s45.333 -4.66699 64 -6v268h91v-808h-79l-8 70h-7c-39.333 -53.333 -99 -80 -179 -80zM310.999 63.001c21.333 0 41.8291 2.83008 61.4961 8.49707s36.834 13.834 51.501 24.501s26.334 23.5 35.001 38.5s13 32.167 13 51.5v282
c-18 2.66699 -39.333 5.33398 -64 8.00098s-51 4 -79 4c-61.333 0 -107.666 -16 -138.999 -48s-47 -86 -47 -162c0 -37.333 3.33301 -69.166 10 -95.499s16.834 -47.833 30.501 -64.5s31 -28.667 52 -36s46.167 -11 75.5 -11z" />
    <glyph glyph-name="Gacute" unicode="&#x1f4;" horiz-adv-x="698" 
d="M329 812l74 141h96l-99 -148zM410 -9c-118 0 -206.833 31.666 -266.5 94.999s-89.5 157.333 -89.5 282c0 126 30.667 221.333 92 286s152.666 97 273.999 97c32.667 0 66 -2.16699 100 -6.5s68 -11.166 102 -20.499v-79c-22 4.66699 -42 8.66699 -60 12s-34.667 6 -50 8
s-30 3.5 -44 4.5s-28 1.5 -42 1.5c-94.667 0 -164.5 -24.833 -209.5 -74.5s-67.5 -125.5 -67.5 -227.5c0 -101.333 21.333 -176.5 64 -225.5s108.334 -73.5 197.001 -73.5c17.333 0 38.333 1.33301 63 4s47.667 5.66699 69 9v293h88v-348
c-16 -5.33301 -33.667 -10.333 -53 -15s-38.833 -8.66699 -58.5 -12s-39 -5.83301 -58 -7.5s-35.833 -2.5 -50.5 -2.5z" />
    <glyph glyph-name="gacute" unicode="&#x1f5;" horiz-adv-x="643" 
d="M299 616l70 185h95l-99 -192zM283 -219c-34 0 -68.668 2.00098 -104.001 6.00098s-66 9.66699 -92 17l6 72c25.333 -6.66699 53.5 -12.334 84.5 -17.001s61.833 -7 92.5 -7c29.333 0 56.666 3 81.999 9s47.166 16.333 65.499 31s32.833 34.334 43.5 59.001
s16 55.667 16 93v40h-6c-39.333 -55.333 -99.666 -83 -180.999 -83c-77.333 0 -136.666 21.667 -177.999 65s-62 111.333 -62 204c0 48 6.83301 89.5 20.5 124.5s32.834 64 57.501 87s54.167 40.167 88.5 51.5s72.5 17 114.5 17c32.667 0 68.667 -2.16699 108 -6.5
s81 -12.5 125 -24.5v-469c0 -54.667 -7.83301 -99.334 -23.5 -134.001s-36.5 -62 -62.5 -82s-56 -33.833 -90 -41.5s-69 -11.5 -105 -11.5zM310.999 73.001c22 0 42.8311 2.83301 62.498 8.5s36.667 14 51 25s25.833 24.167 34.5 39.5s13 33 13 53v269
c-18 2.66699 -39.333 5.33398 -64 8.00098s-51 4 -79 4c-61.333 0 -107.666 -15.667 -138.999 -47s-47 -84 -47 -158c0 -36.667 3.33301 -67.834 10 -93.501s16.834 -46.5 30.501 -62.5s31 -27.667 52 -35s46.167 -11 75.5 -11z" />
    <glyph glyph-name="Aringacute" unicode="&#x1fa;" horiz-adv-x="724" 
d="M8 7l254.001 661.001c-15.333 9.33301 -27.5 21.5 -36.5 36.5s-13.5 32.167 -13.5 51.5c0 31.333 10.833 57.666 32.5 78.999s50.167 34.666 85.5 39.999l61 106h96l-74 -111c29.333 -7.33301 52.833 -21.166 70.5 -41.499s26.5 -44.5 26.5 -72.5
c0 -18.667 -4.33301 -35.667 -13 -51s-20.334 -28 -35.001 -38l254 -660v-7h-92l-84 217h-355l-85 -217h-92v7zM362.001 689.001c25.333 0 45.833 6 61.5 18s23.5 28.333 23.5 49c0 21.333 -7.83301 38 -23.5 50s-36.167 18 -61.5 18c-26 0 -46.667 -6 -62 -18
s-23 -28.667 -23 -50c0 -20.667 7.66699 -37 23 -49s36 -18 62 -18zM512.001 297.001l-93 243l-35 91h-44l-36 -91l-93 -243h301z" />
    <glyph glyph-name="aringacute" unicode="&#x1fb;" horiz-adv-x="561" 
d="M192 -5c-99.333 0 -148.997 47.334 -148.997 142.001c0 52.667 16.667 92.667 50 120s87 44 161 50l140 11v33c0 24 -2.16699 43.833 -6.5 59.5s-11.833 28.167 -22.5 37.5s-25.334 16 -44.001 20s-42.334 6 -71.001 6c-24.667 0 -50.334 -1.33301 -77.001 -4
s-57 -7.33398 -91 -14.001l-7 70c38 7.33301 72.167 12.333 102.5 15s61.5 4 93.5 4c73.333 0 127.5 -14.5 162.5 -43.5s52.5 -74.167 52.5 -135.5v-366h-75l-10 69h-6c-72 -49.333 -139.667 -74 -203 -74zM281.003 598.001c-18 0 -35 2.66699 -51 8
s-29.667 12.833 -41 22.5s-20.333 21.167 -27 34.5s-10 28 -10 44c0 30.667 11.333 56.167 34 76.5s51 31.5 85 33.5l60 159h95l-88 -170c21.333 -8.66699 38.333 -21.667 51 -39s19 -37.333 19 -60c0 -16 -3.16699 -30.667 -9.5 -44s-15.333 -24.833 -27 -34.5
s-25.167 -17.167 -40.5 -22.5s-32 -8 -50 -8zM226.003 65.001c25.333 0 52.168 5.16602 80.501 15.499s57.5 25.5 87.5 45.5v135l-112 -10c-27.333 -2.66699 -50.333 -6.33398 -69 -11.001s-33.667 -11.167 -45 -19.5s-19.5 -18.666 -24.5 -30.999
s-7.5 -27.166 -7.5 -44.499c0 -28 7.16699 -48.333 21.5 -61s37.166 -19 68.499 -19zM281.005 643c50.667 0 75.999 21.333 75.999 64c0 21.333 -6.33301 37.666 -19 48.999s-31.667 17 -57 17s-44.666 -5.66699 -57.999 -17s-20 -27.666 -20 -48.999
c0 -42.667 26 -64 78 -64z" />
    <glyph glyph-name="AEacute" unicode="&#x1fc;" horiz-adv-x="931" 
d="M501 812l74 141h96l-99 -148zM6 8l321 732h543v-76h-347l13 -251h308v-77h-304l13 -260h329v-76h-423l-9 217h-258l-96 -217h-90v8zM227 297h220l-15 372h-40z" />
    <glyph glyph-name="aeacute" unicode="&#x1fd;" horiz-adv-x="924" 
d="M436 616l70 185h95l-99 -192zM662 -11c-51.333 0 -94.8379 8.16797 -130.505 24.501s-63.5 40.5 -83.5 72.5l-5 1c-55.333 -34 -102.666 -57.833 -141.999 -71.5s-75.666 -20.5 -108.999 -20.5c-98.667 0 -148 47.333 -148 142c0 52 16.667 91.5 50 118.5
s86.666 43.5 159.999 49.5l141 11v41c0 22 -2.33301 40.5 -7 55.5s-12.667 27 -24 36s-26.166 15.5 -44.499 19.5s-41.166 6 -68.499 6c-25.333 0 -51.166 -1.33301 -77.499 -4s-56.5 -7.33398 -90.5 -14.001l-8 70c38 7.33301 72.167 12.333 102.5 15s61.5 4 93.5 4
c99.333 0 160.666 -31.667 183.999 -95h6c19.333 31.333 45.333 55.333 78 72s72 25 118 25c70.667 0 124.5 -20.333 161.5 -61s55.5 -100 55.5 -178c0 -31.333 -2 -54.333 -6 -69h-380c2.66699 -60.667 18.834 -105.167 48.501 -133.5s74.834 -42.5 135.501 -42.5
c28.667 0 58.334 2.33301 89.001 7s60.667 11.667 90 21l5 -70c-29.333 -10 -61.333 -17.833 -96 -23.5s-67.334 -8.5 -98.001 -8.5zM789.995 294.001c-1.33301 66 -12.5 113.167 -33.5 141.5s-55.167 42.5 -102.5 42.5c-104.667 0 -160 -61.333 -166 -184h302z
M226.995 64.001c24.667 0 51.332 5 79.999 15s58 25 88 45v139l-113 -10c-27.333 -2.66699 -50.166 -6.5 -68.499 -11.5s-33.166 -11.667 -44.499 -20s-19.5 -18.833 -24.5 -31.5s-7.5 -27.667 -7.5 -45c0 -28 7.16699 -48.5 21.5 -61.5s37.166 -19.5 68.499 -19.5z" />
    <glyph glyph-name="Oslashacute" unicode="&#x1fe;" horiz-adv-x="792" 
d="M130 103c-24.667 32 -43.499 70 -56.499 114s-19.5 94.667 -19.5 152c0 124 29.667 218.5 89 283.5s143.666 97.5 252.999 97.5c90 0 163.667 -23 221 -69l49 59h78l-85 -101c52 -65.333 78 -155.333 78 -270c0 -124 -29.5 -218.167 -88.5 -282.5
s-143.167 -96.5 -252.5 -96.5c-92.667 0 -167 23 -223 69l-50 -59h-79zM396.001 68c164.667 0 247 100.334 247 301.001c0 83.333 -14.667 149.666 -44 198.999l-371 -443c40.667 -38 96.667 -57 168 -57zM149.001 369.001c0 -80.667 13.667 -145.668 41 -195.001l371 441
c-40 38 -95 57 -165 57c-81.333 0 -142.833 -25.167 -184.5 -75.5s-62.5 -126.166 -62.5 -227.499zM352.001 812l74 141h96l-99 -148z" />
    <glyph glyph-name="oslashacute" unicode="&#x1ff;" horiz-adv-x="635" 
d="M104 83c-34 46.667 -51 109 -51 187c0 88.667 22.167 157.5 66.5 206.5s110.5 73.5 198.5 73.5c71.333 0 129 -17 173 -51l39 41h80l-78 -84c34 -47.333 51 -109.333 51 -186c0 -89.333 -22.333 -158.333 -67 -207s-110.667 -73 -198 -73c-72 0 -130 17 -174 51l-38 -41
h-80zM318 64c62.667 0 107 17.167 133 51.5s39 85.833 39 154.5c0 50.667 -6.66699 90.667 -20 120l-271 -290c28 -24 67.667 -36 119 -36zM146 270c0 -50.667 6.33203 -91 18.999 -121l271 290c-27.333 24 -66.666 36 -117.999 36c-62.667 0 -107 -17 -133 -51
s-39 -85.333 -39 -154zM289.999 616l70 185h95l-99 -192z" />
    <glyph glyph-name="Adblgrave" unicode="&#x200;" horiz-adv-x="723" 
d="M7 7l283 733h143l283 -733v-7h-93l-84 217h-355l-84 -217h-93v7zM512 297l-94 243l-52 136h-9l-51 -136l-95 -243h301zM241 798l-99 148h96l73 -135zM406 798l-100 148h95l74 -135z" />
    <glyph glyph-name="adblgrave" unicode="&#x201;" horiz-adv-x="561" 
d="M192 -5c-99.333 0 -148.997 47.334 -148.997 142.001c0 52.667 16.667 92.667 50 120s87 44 161 50l140 11v33c0 24 -2.16699 43.833 -6.5 59.5s-11.833 28.167 -22.5 37.5s-25.334 16 -44.001 20s-42.334 6 -71.001 6c-24.667 0 -50.334 -1.33301 -77.001 -4
s-57 -7.33398 -91 -14.001l-7 70c38 7.33301 72.167 12.333 102.5 15s61.5 4 93.5 4c73.333 0 127.5 -14.5 162.5 -43.5s52.5 -74.167 52.5 -135.5v-366h-75l-10 69h-6c-72 -49.333 -139.667 -74 -203 -74zM226.003 65.001c25.333 0 52.168 5.16602 80.501 15.499
s57.5 25.5 87.5 45.5v135l-112 -10c-27.333 -2.66699 -50.333 -6.33398 -69 -11.001s-33.667 -11.167 -45 -19.5s-19.5 -18.666 -24.5 -30.999s-7.5 -27.166 -7.5 -44.499c0 -28 7.16699 -48.333 21.5 -61s37.166 -19 68.499 -19zM158.005 616l-102 192h98l70 -182z
M354.005 616l-102 192h98l70 -182z" />
    <glyph glyph-name="Ainvertedbreve" unicode="&#x202;" horiz-adv-x="723" 
d="M7 7l283 733h143l283 -733v-7h-93l-84 217h-355l-84 -217h-93v7zM512 297l-94 243l-52 136h-9l-51 -136l-95 -243h301zM486 818c0 30 -10.166 53.3311 -30.499 69.998s-51.5 25 -93.5 25c-41.333 0 -72.333 -8.33301 -93 -25s-31 -40 -31 -70h-68
c0 44.667 15.5 80.834 46.5 108.501s79.5 41.5 145.5 41.5c65.333 0 113.666 -13.667 144.999 -41s47 -63.666 47 -108.999h-68z" />
    <glyph glyph-name="ainvertedbreve" unicode="&#x203;" horiz-adv-x="561" 
d="M192 -5c-99.333 0 -148.997 47.334 -148.997 142.001c0 52.667 16.667 92.667 50 120s87 44 161 50l140 11v33c0 24 -2.16699 43.833 -6.5 59.5s-11.833 28.167 -22.5 37.5s-25.334 16 -44.001 20s-42.334 6 -71.001 6c-24.667 0 -50.334 -1.33301 -77.001 -4
s-57 -7.33398 -91 -14.001l-7 70c38 7.33301 72.167 12.333 102.5 15s61.5 4 93.5 4c73.333 0 127.5 -14.5 162.5 -43.5s52.5 -74.167 52.5 -135.5v-366h-75l-10 69h-6c-72 -49.333 -139.667 -74 -203 -74zM226.003 65.001c25.333 0 52.168 5.16602 80.501 15.499
s57.5 25.5 87.5 45.5v135l-112 -10c-27.333 -2.66699 -50.333 -6.33398 -69 -11.001s-33.667 -11.167 -45 -19.5s-19.5 -18.666 -24.5 -30.999s-7.5 -27.166 -7.5 -44.499c0 -28 7.16699 -48.333 21.5 -61s37.166 -19 68.499 -19zM89.0049 628c0 24 3.66699 45.667 11 65
s18.833 35.833 34.5 49.5s35.667 24.167 60 31.5s53.833 11 88.5 11c68.667 0 118 -14.333 148 -43s45 -66.667 45 -114h-68c0 38 -10.333 65 -31 81s-52 24 -94 24s-73.333 -8 -94 -24s-31 -43 -31 -81h-69z" />
    <glyph glyph-name="Edblgrave" unicode="&#x204;" horiz-adv-x="654" 
d="M94 740h497v-76h-404v-250h381v-77h-381v-261h413v-76h-506v740zM226 798l-99 148h96l73 -135zM391 798l-100 148h95l74 -135z" />
    <glyph glyph-name="edblgrave" unicode="&#x205;" horiz-adv-x="577" 
d="M168 616l-102 192h98l70 -182zM364 616l-102 192h98l70 -182zM315 -9c-176 0 -263.999 91 -263.999 273c0 92 21.833 162.5 65.5 211.5s107.167 73.5 190.5 73.5c146.667 0 220 -81 220 -243c0 -14.667 -0.5 -27.834 -1.5 -39.501s-2.83301 -21.5 -5.5 -29.5h-378
c4 -61.333 20.667 -105.333 50 -132s74.666 -40 135.999 -40c28 0 57.333 2.33301 88 7s60 11.334 88 20.001l5 -69c-28.667 -10 -60.167 -17.833 -94.5 -23.5s-67.5 -8.5 -99.5 -8.5zM305.001 479c-100.667 0 -155.001 -59.333 -163.001 -178h301
c-2 64 -13.667 109.667 -35 137s-55.666 41 -102.999 41z" />
    <glyph glyph-name="Einvertedbreve" unicode="&#x206;" horiz-adv-x="654" 
d="M94 740h497v-76h-404v-250h381v-77h-381v-261h413v-76h-506v740zM469 818c0 30 -10.166 53.3311 -30.499 69.998s-51.5 25 -93.5 25c-41.333 0 -72.333 -8.33301 -93 -25s-31 -40 -31 -70h-68c0 44.667 15.5 80.834 46.5 108.501s79.5 41.5 145.5 41.5
c65.333 0 113.666 -13.667 144.999 -41s47 -63.666 47 -108.999h-68z" />
    <glyph glyph-name="einvertedbreve" unicode="&#x207;" horiz-adv-x="577" 
d="M107 628c0 24 3.66699 45.667 11 65s18.833 35.833 34.5 49.5s35.667 24.167 60 31.5s53.833 11 88.5 11c68.667 0 118 -14.333 148 -43s45 -66.667 45 -114h-68c0 38 -10.333 65 -31 81s-52 24 -94 24s-73.333 -8 -94 -24s-31 -43 -31 -81h-69zM315 -9
c-176 0 -263.999 91 -263.999 273c0 92 21.833 162.5 65.5 211.5s107.167 73.5 190.5 73.5c146.667 0 220 -81 220 -243c0 -14.667 -0.5 -27.834 -1.5 -39.501s-2.83301 -21.5 -5.5 -29.5h-378c4 -61.333 20.667 -105.333 50 -132s74.666 -40 135.999 -40
c28 0 57.333 2.33301 88 7s60 11.334 88 20.001l5 -69c-28.667 -10 -60.167 -17.833 -94.5 -23.5s-67.5 -8.5 -99.5 -8.5zM305.001 479c-100.667 0 -155.001 -59.333 -163.001 -178h301c-2 64 -13.667 109.667 -35 137s-55.666 41 -102.999 41z" />
    <glyph glyph-name="Idblgrave" unicode="&#x208;" horiz-adv-x="282" 
d="M94 740h93v-740h-93v740zM30 798l-99 148h96l73 -135zM195 798l-100 148h95l74 -135z" />
    <glyph glyph-name="idblgrave" unicode="&#x209;" horiz-adv-x="254" 
d="M-4 616l-102 192h98l70 -182zM192 616l-102 192h98l70 -182zM81 540h92v-540h-92v540z" />
    <glyph glyph-name="Iinvertedbreve" unicode="&#x20a;" horiz-adv-x="282" 
d="M94 740h93v-740h-93v740zM266 818c0 30 -10.166 53.3311 -30.499 69.998s-51.5 25 -93.5 25c-41.333 0 -72.333 -8.33301 -93 -25s-31 -40 -31 -70h-68c0 44.667 15.5 80.834 46.5 108.501s79.5 41.5 145.5 41.5c65.333 0 113.666 -13.667 144.999 -41
s47 -63.666 47 -108.999h-68z" />
    <glyph glyph-name="iinvertedbreve" unicode="&#x20b;" horiz-adv-x="254" 
d="M-44 628c0 48 13.667 86.167 41 114.5s71.333 42.5 132 42.5s104.667 -14.333 132 -43s41 -66.667 41 -114h-57c0 38 -9.66699 65 -29 81s-48.333 24 -87 24s-67.667 -8 -87 -24s-29 -43 -29 -81h-57zM81 540h92v-540h-92v540z" />
    <glyph glyph-name="Odblgrave" unicode="&#x20c;" horiz-adv-x="792" 
d="M396 -10c-109.333 0 -193.666 32.167 -252.999 96.5s-89 158.5 -89 282.5s29.667 218.5 89 283.5s143.666 97.5 252.999 97.5c108.667 0 192.667 -32.5 252 -97.5s89 -159.5 89 -283.5s-29.667 -218.167 -89 -282.5s-143.333 -96.5 -252 -96.5zM396 68
c164 0 245.999 100.334 245.999 301.001c0 101.333 -20.667 177.166 -62 227.499s-102.666 75.5 -183.999 75.5c-164.667 0 -247 -101 -247 -303c0 -200.667 82.333 -301 247 -301zM276.999 798.001l-99 148h96l73 -135zM441.999 798.001l-100 148h95l74 -135z" />
    <glyph glyph-name="odblgrave" unicode="&#x20d;" horiz-adv-x="629" 
d="M180 616l-102 192h98l70 -182zM376 616l-102 192h98l70 -182zM315 -10c-86 0 -151.833 24 -197.5 72s-68.5 117.333 -68.5 208s22.833 160 68.5 208s111.5 72 197.5 72c85.333 0 150.666 -24 195.999 -72s68 -117.333 68 -208s-22.667 -160 -68 -208
s-110.666 -72 -195.999 -72zM315 64c59.333 0 102.666 16.667 129.999 50s41 85.333 41 156s-13.667 122.5 -41 155.5s-70.666 49.5 -129.999 49.5s-102.833 -16.5 -130.5 -49.5s-41.5 -84.833 -41.5 -155.5s13.833 -122.667 41.5 -156s71.167 -50 130.5 -50z" />
    <glyph glyph-name="Oinvertedbreve" unicode="&#x20e;" horiz-adv-x="792" 
d="M396 -10c-109.333 0 -193.666 32.167 -252.999 96.5s-89 158.5 -89 282.5s29.667 218.5 89 283.5s143.666 97.5 252.999 97.5c108.667 0 192.667 -32.5 252 -97.5s89 -159.5 89 -283.5s-29.667 -218.167 -89 -282.5s-143.333 -96.5 -252 -96.5zM396 68
c164 0 245.999 100.334 245.999 301.001c0 101.333 -20.667 177.166 -62 227.499s-102.666 75.5 -183.999 75.5c-164.667 0 -247 -101 -247 -303c0 -200.667 82.333 -301 247 -301zM517.999 818.001c0 30 -10.166 53.3311 -30.499 69.998s-51.5 25 -93.5 25
c-41.333 0 -72.333 -8.33301 -93 -25s-31 -40 -31 -70h-68c0 44.667 15.5 80.834 46.5 108.501s79.5 41.5 145.5 41.5c65.333 0 113.666 -13.667 144.999 -41s47 -63.666 47 -108.999h-68z" />
    <glyph glyph-name="oinvertedbreve" unicode="&#x20f;" horiz-adv-x="629" 
d="M121 628c0 24 3.66699 45.667 11 65s18.833 35.833 34.5 49.5s35.667 24.167 60 31.5s53.833 11 88.5 11c68.667 0 118 -14.333 148 -43s45 -66.667 45 -114h-68c0 38 -10.333 65 -31 81s-52 24 -94 24s-73.333 -8 -94 -24s-31 -43 -31 -81h-69zM315 -10
c-86 0 -151.833 24 -197.5 72s-68.5 117.333 -68.5 208s22.833 160 68.5 208s111.5 72 197.5 72c85.333 0 150.666 -24 195.999 -72s68 -117.333 68 -208s-22.667 -160 -68 -208s-110.666 -72 -195.999 -72zM315 64c59.333 0 102.666 16.667 129.999 50s41 85.333 41 156
s-13.667 122.5 -41 155.5s-70.666 49.5 -129.999 49.5s-102.833 -16.5 -130.5 -49.5s-41.5 -84.833 -41.5 -155.5s13.833 -122.667 41.5 -156s71.167 -50 130.5 -50z" />
    <glyph glyph-name="Rdblgrave" unicode="&#x210;" horiz-adv-x="705" 
d="M391 275c-14.667 -1.33301 -29.666 -2.33301 -44.999 -3s-31.333 -1 -48 -1c-14.667 0 -31.834 0.666992 -51.501 2s-39.5 3 -59.5 5v-278h-93v735c68 10 133 15 195 15c125.333 0 216.5 -19 273.5 -57s85.5 -98.667 85.5 -182c0 -58.667 -13.667 -106 -41 -142
s-70 -62 -128 -78l197 -291h-105zM310.001 348c44 0 81.499 2.83203 112.499 8.49902s56.167 15 75.5 28s33.333 29.833 42 50.5s13 46 13 76c0 28.667 -4.5 53.334 -13.5 74.001s-23.5 37.5 -43.5 50.5s-45.667 22.667 -77 29s-69 9.5 -113 9.5
c-20 0 -41.167 -0.833008 -63.5 -2.5s-40.833 -3.5 -55.5 -5.5v-308c8.66699 -2.66699 24.834 -5 48.501 -7s48.5 -3 74.5 -3zM236 797.999l-99 148h96l73 -135zM401 797.999l-100 148h95l74 -135z" />
    <glyph glyph-name="rdblgrave" unicode="&#x211;" horiz-adv-x="417" 
d="M107 616l-102 192h98l70 -182zM303 616l-102 192h98l70 -182zM80 540l76.002 -0.000976562l6 -77h4l117 58c32 15.333 62 24.666 90 27.999h31v-84h-30c-30.667 -3.33301 -63.334 -11.166 -98.001 -23.499s-69.334 -27.166 -104.001 -44.499v-397h-92v540z" />
    <glyph glyph-name="Rinvertedbreve" unicode="&#x212;" horiz-adv-x="705" 
d="M391 275c-14.667 -1.33301 -29.666 -2.33301 -44.999 -3s-31.333 -1 -48 -1c-14.667 0 -31.834 0.666992 -51.501 2s-39.5 3 -59.5 5v-278h-93v735c68 10 133 15 195 15c125.333 0 216.5 -19 273.5 -57s85.5 -98.667 85.5 -182c0 -58.667 -13.667 -106 -41 -142
s-70 -62 -128 -78l197 -291h-105zM310.001 348c44 0 81.499 2.83203 112.499 8.49902s56.167 15 75.5 28s33.333 29.833 42 50.5s13 46 13 76c0 28.667 -4.5 53.334 -13.5 74.001s-23.5 37.5 -43.5 50.5s-45.667 22.667 -77 29s-69 9.5 -113 9.5
c-20 0 -41.167 -0.833008 -63.5 -2.5s-40.833 -3.5 -55.5 -5.5v-308c8.66699 -2.66699 24.834 -5 48.501 -7s48.5 -3 74.5 -3zM475 817.999c0 30 -10.166 53.3311 -30.499 69.998s-51.5 25 -93.5 25c-41.333 0 -72.333 -8.33301 -93 -25s-31 -40 -31 -70h-68
c0 44.667 15.5 80.834 46.5 108.501s79.5 41.5 145.5 41.5c65.333 0 113.666 -13.667 144.999 -41s47 -63.666 47 -108.999h-68z" />
    <glyph glyph-name="rinvertedbreve" unicode="&#x213;" horiz-adv-x="417" 
d="M44 628c0 24 3.66699 45.667 11 65s18.833 35.833 34.5 49.5s35.667 24.167 60 31.5s53.833 11 88.5 11c68.667 0 118 -14.333 148 -43s45 -66.667 45 -114h-68c0 38 -10.333 65 -31 81s-52 24 -94 24s-73.333 -8 -94 -24s-31 -43 -31 -81h-69zM80 540
l76.002 -0.000976562l6 -77h4l117 58c32 15.333 62 24.666 90 27.999h31v-84h-30c-30.667 -3.33301 -63.334 -11.166 -98.001 -23.499s-69.334 -27.166 -104.001 -44.499v-397h-92v540z" />
    <glyph glyph-name="Udblgrave" unicode="&#x214;" horiz-adv-x="797" 
d="M399 -10c-55.333 0 -102.668 6 -142.001 18s-71.666 30.667 -96.999 56s-44 57.666 -56 96.999s-18 86.666 -18 141.999v437h93v-436c0 -42.667 4.66699 -78.834 14 -108.501s23.166 -54 41.499 -73s41.333 -32.833 69 -41.5s59.5 -13 95.5 -13s67.667 4.33301 95 13
s50 22.5 68 41.5s31.667 43.333 41 73s14 65.834 14 108.501v436h94v-437c0 -55.333 -6 -102.666 -18 -141.999s-30.667 -71.666 -56 -96.999s-57.666 -44 -96.999 -56s-86.333 -18 -141 -18zM277.998 798l-99 148h96l73 -135zM442.998 798l-100 148h95l74 -135z" />
    <glyph glyph-name="udblgrave" unicode="&#x215;" horiz-adv-x="646" 
d="M190 616l-102 192h98l70 -182zM386 616l-102 192h98l70 -182zM217 -10c-46.667 0 -81.834 12.834 -105.501 38.501s-35.5 62.834 -35.5 111.501v400h92v-369c0 -36.667 6.66699 -63.167 20 -79.5s35.666 -24.5 66.999 -24.5c18 0 36.333 2.16699 55 6.5
s37.5 9.66602 56.5 15.999s37.667 13.5 56 21.5l51.5 23v406h92v-540h-76l-6 69h-4l-81 -35.5c-22.667 -9.66699 -43.667 -17.834 -63 -24.501s-38.166 -11.5 -56.499 -14.5s-39.166 -4.5 -62.499 -4.5z" />
    <glyph glyph-name="Uinvertedbreve" unicode="&#x216;" horiz-adv-x="797" 
d="M399 -10c-55.333 0 -102.668 6 -142.001 18s-71.666 30.667 -96.999 56s-44 57.666 -56 96.999s-18 86.666 -18 141.999v437h93v-436c0 -42.667 4.66699 -78.834 14 -108.501s23.166 -54 41.499 -73s41.333 -32.833 69 -41.5s59.5 -13 95.5 -13s67.667 4.33301 95 13
s50 22.5 68 41.5s31.667 43.333 41 73s14 65.834 14 108.501v436h94v-437c0 -55.333 -6 -102.666 -18 -141.999s-30.667 -71.666 -56 -96.999s-57.666 -44 -96.999 -56s-86.333 -18 -141 -18zM516.998 818c0 30 -10.166 53.3311 -30.499 69.998s-51.5 25 -93.5 25
c-41.333 0 -72.333 -8.33301 -93 -25s-31 -40 -31 -70h-68c0 44.667 15.5 80.834 46.5 108.501s79.5 41.5 145.5 41.5c65.333 0 113.666 -13.667 144.999 -41s47 -63.666 47 -108.999h-68z" />
    <glyph glyph-name="uinvertedbreve" unicode="&#x217;" horiz-adv-x="646" 
d="M124 628c0 24 3.66699 45.667 11 65s18.833 35.833 34.5 49.5s35.667 24.167 60 31.5s53.833 11 88.5 11c68.667 0 118 -14.333 148 -43s45 -66.667 45 -114h-68c0 38 -10.333 65 -31 81s-52 24 -94 24s-73.333 -8 -94 -24s-31 -43 -31 -81h-69zM217 -10
c-46.667 0 -81.834 12.834 -105.501 38.501s-35.5 62.834 -35.5 111.501v400h92v-369c0 -36.667 6.66699 -63.167 20 -79.5s35.666 -24.5 66.999 -24.5c18 0 36.333 2.16699 55 6.5s37.5 9.66602 56.5 15.999s37.667 13.5 56 21.5l51.5 23v406h92v-540h-76l-6 69h-4
l-81 -35.5c-22.667 -9.66699 -43.667 -17.834 -63 -24.501s-38.166 -11.5 -56.499 -14.5s-39.166 -4.5 -62.499 -4.5z" />
    <glyph glyph-name="uni0218" unicode="&#x218;" horiz-adv-x="616" 
d="M255 -70h96l-68 -150h-76zM294 -11c-34.667 0 -74.167 2.66699 -118.5 8s-87.5 12.666 -129.5 21.999v79c46 -10 90.167 -17.833 132.5 -23.5s79.5 -8.5 111.5 -8.5c62 0 109 10.5 141 31.5s48 51.167 48 90.5c0 24 -4.66699 44 -14 60s-22.166 29.167 -38.499 39.5
s-35.333 18.833 -57 25.5s-44.834 13 -69.501 19c-43.333 10 -80.333 21.5 -111 34.5s-55.667 28.167 -75 45.5s-33.333 37.5 -42 60.5s-13 49.5 -13 79.5c0 30.667 6.33301 58.667 19 84s30.667 46.833 54 64.5s51.5 31.334 84.5 41.001s70.167 14.5 111.5 14.5
c29.333 0 60.833 -2 94.5 -6s71.5 -10.667 113.5 -20v-79c-32.667 9.33301 -66.834 16.333 -102.501 21s-68.167 7 -97.5 7c-56 0 -99.833 -11.333 -131.5 -34s-47.5 -53 -47.5 -91c0 -18.667 3 -35 9 -49s15.833 -26.667 29.5 -38s31.834 -21.5 54.501 -30.5
s50.667 -17.5 84 -25.5c34 -8 65.667 -17.167 95 -27.5s55 -23.5 77 -39.5s39.167 -36 51.5 -60s18.5 -53.667 18.5 -89c0 -67.333 -24 -118.5 -72 -153.5s-118 -52.5 -210 -52.5z" />
    <glyph glyph-name="uni0219" unicode="&#x219;" horiz-adv-x="504" 
d="M215 -70h96l-68 -150h-76zM246 -11c-25.333 0 -53.3369 1.83301 -84.0039 5.5s-68.667 9.83398 -114 18.501v74c37.333 -8 71.833 -14.5 103.5 -19.5s61.834 -7.5 90.501 -7.5c86 0 129 28.333 129 85c0 16 -3 29.333 -9 40s-14.5 19.334 -25.5 26.001s-24 12 -39 16
s-31.167 7.66699 -48.5 11c-22 4 -44.5 8.5 -67.5 13.5s-43.833 13 -62.5 24s-34 26.167 -46 45.5s-18 45 -18 77c0 48.667 18.833 86.667 56.5 114s89.834 41 156.501 41c12 0 23.5 -0.333008 34.5 -1s23 -1.83398 36 -3.50098s27.667 -3.83398 44 -6.50098
s35.5 -6 57.5 -10l-5 -76c-36 7.33301 -66.667 13.166 -92 17.499s-48.666 6.5 -69.999 6.5c-42.667 0 -74.667 -7 -96 -21s-32 -34 -32 -60c0 -16 3.5 -29 10.5 -39s16.667 -18.167 29 -24.5s26.833 -11.5 43.5 -15.5s35 -7.66699 55 -11
c24.667 -4 47.834 -9.5 69.501 -16.5s40.5 -16.5 56.5 -28.5s28.5 -27.167 37.5 -45.5s13.5 -41.166 13.5 -68.499c0 -51.333 -18.5 -91 -55.5 -119s-89.833 -42 -158.5 -42z" />
    <glyph glyph-name="uni021A" unicode="&#x21a;" horiz-adv-x="641" 
d="M272 -70h96l-68 -150h-76zM273 664h-255v76h606v-76h-257v-664h-94v664z" />
    <glyph glyph-name="uni021B" unicode="&#x21b;" horiz-adv-x="421" 
d="M232 -70h96l-68 -150h-76zM296 -10c-52.667 0 -92.667 13.1689 -120 39.502s-41 65.166 -41 116.499v314h-117v80h122l14 135l72 9v-144h169v-80h-168v-294c0 -34.667 7.66699 -60.334 23 -77.001s40 -25 74 -25c24 0 50 4.33301 78 13v-73
c-34 -9.33301 -69.333 -14 -106 -14z" />
    </font>
</defs>
</svg>
