<?xml version="1.0" standalone="no"?>
<!DOCTYPE svg PUBLIC "-//W3C//DTD SVG 1.1//EN" "http://www.w3.org/Graphics/SVG/1.1/DTD/svg11.dtd" >
<svg>
<metadata>
Created by FontForge 20090914 at Sat Aug  6 10:51:14 2016
 By www-data
Copyright (c) 2012, Impallari Type (www.impallari.com), with Reserved Font Name Encode Sans.
</metadata>
<defs>
<font id="EncodeSansWide-ExtraLight" horiz-adv-x="553" >
  <font-face 
    font-family="Encode Sans Wide"
    font-weight="200"
    font-stretch="normal"
    units-per-em="1000"
    panose-1="2 0 0 0 0 0 0 0 0 0"
    ascent="800"
    descent="-200"
    x-height="539.999"
    cap-height="740"
    bbox="-97 -220.001 1649 1030"
    underline-thickness="55"
    underline-position="-57"
    unicode-range="U+000D-U+FB04"
  />
<missing-glyph horiz-adv-x="793" 
d="M105 1030h581v-1250h-581v1250zM634 -169v1149h-476v-1149h476z" />
    <glyph glyph-name="f_f" unicode="ff" horiz-adv-x="756" 
d="M146 490l-128.999 0.00195312v50h130v23c0 50 3.16699 90.833 9.5 122.5s18.166 56.667 35.499 75s41.333 31.166 72 38.499s70.667 12 120 14l4 -41c-40 -2.66699 -72.333 -6.66699 -97 -12s-43.667 -14.333 -57 -27s-22.333 -29.834 -27 -51.501s-7 -50.167 -7 -85.5
v-56h158v-50h-158v-490h-54v490zM529.001 490.002l-128.999 0.00195312v50h130v23c0 50 3.16699 90.833 9.5 122.5s18.166 56.667 35.499 75s41.333 31.166 72 38.499s70.667 12 120 14l4 -41c-40 -2.66699 -72.333 -6.66699 -97 -12s-43.667 -14.333 -57 -27
s-22.333 -29.834 -27 -51.501s-7 -50.167 -7 -85.5v-56h158v-50h-158v-490h-54v490z" />
    <glyph glyph-name="f_i" unicode="fi" horiz-adv-x="622" 
d="M507 664c-25.333 0 -38 12.667 -38 38s12.667 38 38 38c26.667 0 40 -12.667 40 -38s-13.333 -38 -40 -38zM480 540h54v-540h-54v540zM146 490l-128.999 0.00195312v50h130v23c0 50 3.16699 90.833 9.5 122.5s18.166 56.667 35.499 75s41.333 31.166 72 38.499
s70.667 12 120 14l4 -41c-40 -2.66699 -72.333 -6.66699 -97 -12s-43.667 -14.333 -57 -27s-22.333 -29.834 -27 -51.501s-7 -50.167 -7 -85.5v-56h158v-50h-158v-490h-54v490z" />
    <glyph glyph-name="f_l" unicode="fl" horiz-adv-x="624" 
d="M146 490l-128.999 0.00195312v50h130v23c0 50 3.16699 90.833 9.5 122.5s18.166 56.667 35.499 75s41.333 31.166 72 38.499s70.667 12 120 14l4 -41c-40 -2.66699 -72.333 -6.66699 -97 -12s-43.667 -14.333 -57 -27s-22.333 -29.834 -27 -51.501s-7 -50.167 -7 -85.5
v-56h158v-50h-158v-490h-54v490zM480.001 808.002h54v-808h-54v808z" />
    <glyph glyph-name="f_f_i" unicode="ffi" horiz-adv-x="1006" 
d="M890 664c-25.333 0 -38 12.667 -38 38s12.667 38 38 38c26.667 0 40 -12.667 40 -38s-13.333 -38 -40 -38zM863 540h54v-540h-54v540zM531 490l-128.999 0.00195312v50h130v23c0 50 3.16699 90.833 9.5 122.5s18.166 56.667 35.499 75s41.333 31.166 72 38.499
s70.667 12 120 14l4 -41c-40 -2.66699 -72.333 -6.66699 -97 -12s-43.667 -14.333 -57 -27s-22.333 -29.834 -27 -51.501s-7 -50.167 -7 -85.5v-56h158v-50h-158v-490h-54v490zM146.001 490.002l-128.999 0.00195312v50h130v23c0 50 3.16699 90.833 9.5 122.5
s18.166 56.667 35.499 75s41.333 31.166 72 38.499s70.667 12 120 14l4 -41c-40 -2.66699 -72.333 -6.66699 -97 -12s-43.667 -14.333 -57 -27s-22.333 -29.834 -27 -51.501s-7 -50.167 -7 -85.5v-56h158v-50h-158v-490h-54v490z" />
    <glyph glyph-name="f_f_l" unicode="ffl" horiz-adv-x="1008" 
d="M531 490l-128.999 0.00195312v50h130v23c0 50 3.16699 90.833 9.5 122.5s18.166 56.667 35.499 75s41.333 31.166 72 38.499s70.667 12 120 14l4 -41c-40 -2.66699 -72.333 -6.66699 -97 -12s-43.667 -14.333 -57 -27s-22.333 -29.834 -27 -51.501s-7 -50.167 -7 -85.5
v-56h158v-50h-158v-490h-54v490zM864.001 808.002h54v-808h-54v808zM146.001 490.002l-128.999 0.00195312v50h130v23c0 50 3.16699 90.833 9.5 122.5s18.166 56.667 35.499 75s41.333 31.166 72 38.499s70.667 12 120 14l4 -41c-40 -2.66699 -72.333 -6.66699 -97 -12
s-43.667 -14.333 -57 -27s-22.333 -29.834 -27 -51.501s-7 -50.167 -7 -85.5v-56h158v-50h-158v-490h-54v490z" />
    <glyph glyph-name="f_b" unicode="fb" horiz-adv-x="1013" 
d="M148 490l-128.999 0.00195312v50h130v23c0 50 3.16699 90.833 9.5 122.5s18.166 56.667 35.499 75s41.333 31.166 72 38.499s70.667 12 120 14l4 -41c-40 -2.66699 -72.333 -6.66699 -97 -12s-43.667 -14.333 -57 -27s-22.333 -29.834 -27 -51.501s-7 -50.167 -7 -85.5
v-56h158v-50h-158v-490h-54v490zM693.001 -9.99805c-33.333 0 -68.3311 1.50098 -104.998 4.50098s-72.334 7.16699 -107.001 12.5v801h54v-332c22.667 24 49.167 42.333 79.5 55s65.5 19 105.5 19c76 0 134.5 -22.333 175.5 -67s61.5 -115.334 61.5 -212.001
c0 -48.667 -6.5 -90.667 -19.5 -126s-31 -64.5 -54 -87.5s-50.833 -40 -83.5 -51s-68.334 -16.5 -107.001 -16.5zM692.003 36.0029c33.333 0 63.001 4.33496 89.001 13.002s48 22.5 66 41.5s31.667 43.333 41 73s14 65.167 14 106.5c0 83.333 -15.5 142.833 -46.5 178.5
s-78.5 53.5 -142.5 53.5c-22 0 -43.667 -3 -65 -9s-40.333 -14.333 -57 -25s-30.167 -23.834 -40.5 -39.501s-15.5 -32.834 -15.5 -51.501v-330c19.333 -2.66699 42.666 -5.16699 69.999 -7.5s56.333 -3.5 87 -3.5z" />
    <glyph glyph-name="f_f_b" unicode="ffb" horiz-adv-x="1396" 
d="M532 490l-128.999 0.00195312v50h130v23c0 50 3.16699 90.833 9.5 122.5s18.166 56.667 35.499 75s41.333 31.166 72 38.499s70.667 12 120 14l4 -41c-40 -2.66699 -72.333 -6.66699 -97 -12s-43.667 -14.333 -57 -27s-22.333 -29.834 -27 -51.501s-7 -50.167 -7 -85.5
v-56h158v-50h-158v-490h-54v490zM1077 -9.99805c-33.333 0 -68.3311 1.50098 -104.998 4.50098s-72.334 7.16699 -107.001 12.5v801h54v-332c22.667 24 49.167 42.333 79.5 55s65.5 19 105.5 19c76 0 134.5 -22.333 175.5 -67s61.5 -115.334 61.5 -212.001
c0 -48.667 -6.5 -90.667 -19.5 -126s-31 -64.5 -54 -87.5s-50.833 -40 -83.5 -51s-68.334 -16.5 -107.001 -16.5zM1076 36.0029c33.333 0 63.001 4.33496 89.001 13.002s48 22.5 66 41.5s31.667 43.333 41 73s14 65.167 14 106.5c0 83.333 -15.5 142.833 -46.5 178.5
s-78.5 53.5 -142.5 53.5c-22 0 -43.667 -3 -65 -9s-40.333 -14.333 -57 -25s-30.167 -23.834 -40.5 -39.501s-15.5 -32.834 -15.5 -51.501v-330c19.333 -2.66699 42.666 -5.16699 69.999 -7.5s56.333 -3.5 87 -3.5zM148.004 490.005l-128.999 0.00195312v50h130v23
c0 50 3.16699 90.833 9.5 122.5s18.166 56.667 35.499 75s41.333 31.166 72 38.499s70.667 12 120 14l4 -41c-40 -2.66699 -72.333 -6.66699 -97 -12s-43.667 -14.333 -57 -27s-22.333 -29.834 -27 -51.501s-7 -50.167 -7 -85.5v-56h158v-50h-158v-490h-54v490z" />
    <glyph glyph-name="f_f_h" unicode="ffh" horiz-adv-x="1398" 
d="M864 808h53v-334c30.667 14 58 25.833 82 35.5s45.833 17.5 65.5 23.5s38 10.333 55 13s33.5 4 49.5 4c46.667 0 82.667 -12 108 -36s38 -61.667 38 -113v-401h-54v380c0 44 -8.83301 75.167 -26.5 93.5s-44.5 27.5 -80.5 27.5c-30.667 0 -66.167 -6.5 -106.5 -19.5
s-83.833 -30.5 -130.5 -52.5v-429h-53v808zM531 490l-128.999 0.00195312v50h130v23c0 50 3.16699 90.833 9.5 122.5s18.166 56.667 35.499 75s41.333 31.166 72 38.499s70.667 12 120 14l4 -41c-40 -2.66699 -72.333 -6.66699 -97 -12s-43.667 -14.333 -57 -27
s-22.333 -29.834 -27 -51.501s-7 -50.167 -7 -85.5v-56h158v-50h-158v-490h-54v490zM146.001 490.002l-128.999 0.00195312v50h130v23c0 50 3.16699 90.833 9.5 122.5s18.166 56.667 35.499 75s41.333 31.166 72 38.499s70.667 12 120 14l4 -41
c-40 -2.66699 -72.333 -6.66699 -97 -12s-43.667 -14.333 -57 -27s-22.333 -29.834 -27 -51.501s-7 -50.167 -7 -85.5v-56h158v-50h-158v-490h-54v490z" />
    <glyph glyph-name="f_f_j" unicode="ffj" horiz-adv-x="1009" 
d="M531 490l-128.999 0.00195312v50h130v23c0 50 3.16699 90.833 9.5 122.5s18.166 56.667 35.499 75s41.333 31.166 72 38.499s70.667 12 120 14l4 -41c-40 -2.66699 -72.333 -6.66699 -97 -12s-43.667 -14.333 -57 -27s-22.333 -29.834 -27 -51.501s-7 -50.167 -7 -85.5
v-56h158v-50h-158v-490h-54v490zM891.001 664.002c-26 0 -39 12.667 -39 38s13 38 39 38s39 -12.667 39 -38s-13 -38 -39 -38zM793.001 -200.998c26 46.667 45 95 57 145s18 108 18 174v422h54v-449c-2.66699 -56.667 -11.167 -111.167 -25.5 -163.5
s-35.833 -101.5 -64.5 -147.5zM146.001 490.002l-128.999 0.00195312v50h130v23c0 50 3.16699 90.833 9.5 122.5s18.166 56.667 35.499 75s41.333 31.166 72 38.499s70.667 12 120 14l4 -41c-40 -2.66699 -72.333 -6.66699 -97 -12s-43.667 -14.333 -57 -27
s-22.333 -29.834 -27 -51.501s-7 -50.167 -7 -85.5v-56h158v-50h-158v-490h-54v490z" />
    <glyph glyph-name="f_f_k" unicode="ffk" horiz-adv-x="1335" 
d="M864 808h53v-510h119l214 242h64l-224 -253l-16 -9v-4l17 -9l239 -265h-64l-232 256h-117v-256h-53v808zM531 490l-128.999 0.00195312v50h130v23c0 50 3.16699 90.833 9.5 122.5s18.166 56.667 35.499 75s41.333 31.166 72 38.499s70.667 12 120 14l4 -41
c-40 -2.66699 -72.333 -6.66699 -97 -12s-43.667 -14.333 -57 -27s-22.333 -29.834 -27 -51.501s-7 -50.167 -7 -85.5v-56h158v-50h-158v-490h-54v490zM146.001 490.002l-128.999 0.00195312v50h130v23c0 50 3.16699 90.833 9.5 122.5s18.166 56.667 35.499 75
s41.333 31.166 72 38.499s70.667 12 120 14l4 -41c-40 -2.66699 -72.333 -6.66699 -97 -12s-43.667 -14.333 -57 -27s-22.333 -29.834 -27 -51.501s-7 -50.167 -7 -85.5v-56h158v-50h-158v-490h-54v490z" />
    <glyph glyph-name="f_f_t" unicode="fft" horiz-adv-x="1164" 
d="M532 490l-128.999 0.00195312v50h130v23c0 50 3.16699 90.833 9.5 122.5s18.166 56.667 35.499 75s41.333 31.166 72 38.499s70.667 12 120 14l4 -41c-40 -2.66699 -72.333 -6.66699 -97 -12s-43.667 -14.333 -57 -27s-22.333 -29.834 -27 -51.501s-7 -50.167 -7 -85.5
v-56h158v-50h-158v-490h-54v490zM1055 -7.99805c-96.667 0 -145 48.333 -145 145v353h-125v50h127l8 124l44 7v-131h177v-50h-177v-342c0 -72.667 34.667 -109 104 -109c24.667 0 52 4.33301 82 13v-47c-16.667 -4.66699 -33 -8 -49 -10s-31.333 -3 -46 -3zM148.001 490.002
l-128.999 0.00195312v50h130v23c0 50 3.16699 90.833 9.5 122.5s18.166 56.667 35.499 75s41.333 31.166 72 38.499s70.667 12 120 14l4 -41c-40 -2.66699 -72.333 -6.66699 -97 -12s-43.667 -14.333 -57 -27s-22.333 -29.834 -27 -51.501s-7 -50.167 -7 -85.5v-56h158v-50
h-158v-490h-54v490z" />
    <glyph glyph-name="f_h" unicode="fh" horiz-adv-x="1014" 
d="M481 808h53v-334c30.667 14 58 25.833 82 35.5s45.833 17.5 65.5 23.5s38 10.333 55 13s33.5 4 49.5 4c46.667 0 82.667 -12 108 -36s38 -61.667 38 -113v-401h-54v380c0 44 -8.83301 75.167 -26.5 93.5s-44.5 27.5 -80.5 27.5c-30.667 0 -66.167 -6.5 -106.5 -19.5
s-83.833 -30.5 -130.5 -52.5v-429h-53v808zM146 490l-128.999 0.00195312v50h130v23c0 50 3.16699 90.833 9.5 122.5s18.166 56.667 35.499 75s41.333 31.166 72 38.499s70.667 12 120 14l4 -41c-40 -2.66699 -72.333 -6.66699 -97 -12s-43.667 -14.333 -57 -27
s-22.333 -29.834 -27 -51.501s-7 -50.167 -7 -85.5v-56h158v-50h-158v-490h-54v490z" />
    <glyph glyph-name="f_j" unicode="fj" horiz-adv-x="625" 
d="M146 490l-128.999 0.00195312v50h130v23c0 50 3.16699 90.833 9.5 122.5s18.166 56.667 35.499 75s41.333 31.166 72 38.499s70.667 12 120 14l4 -41c-40 -2.66699 -72.333 -6.66699 -97 -12s-43.667 -14.333 -57 -27s-22.333 -29.834 -27 -51.501s-7 -50.167 -7 -85.5
v-56h158v-50h-158v-490h-54v490zM508.001 664.002c-26 0 -39 12.667 -39 38s13 38 39 38s39 -12.667 39 -38s-13 -38 -39 -38zM410.001 -200.998c26 46.667 45 95 57 145s18 108 18 174v422h54v-449c-2.66699 -56.667 -11.167 -111.167 -25.5 -163.5
s-35.833 -101.5 -64.5 -147.5z" />
    <glyph glyph-name="f_k" unicode="fk" horiz-adv-x="951" 
d="M481 808h53v-510h119l214 242h64l-224 -253l-16 -9v-4l17 -9l239 -265h-64l-232 256h-117v-256h-53v808zM146 490l-128.999 0.00195312v50h130v23c0 50 3.16699 90.833 9.5 122.5s18.166 56.667 35.499 75s41.333 31.166 72 38.499s70.667 12 120 14l4 -41
c-40 -2.66699 -72.333 -6.66699 -97 -12s-43.667 -14.333 -57 -27s-22.333 -29.834 -27 -51.501s-7 -50.167 -7 -85.5v-56h158v-50h-158v-490h-54v490z" />
    <glyph glyph-name="f_t" unicode="ft" horiz-adv-x="781" 
d="M148 490l-128.999 0.00195312v50h130v23c0 50 3.16699 90.833 9.5 122.5s18.166 56.667 35.499 75s41.333 31.166 72 38.499s70.667 12 120 14l4 -41c-40 -2.66699 -72.333 -6.66699 -97 -12s-43.667 -14.333 -57 -27s-22.333 -29.834 -27 -51.501s-7 -50.167 -7 -85.5
v-56h158v-50h-158v-490h-54v490zM671.001 -7.99805c-96.667 0 -145 48.333 -145 145v353h-125v50h127l8 124l44 7v-131h177v-50h-177v-342c0 -72.667 34.667 -109 104 -109c24.667 0 52 4.33301 82 13v-47c-16.667 -4.66699 -33 -8 -49 -10s-31.333 -3 -46 -3z" />
    <glyph glyph-name=".notdef" horiz-adv-x="793" 
d="M105 1030h581v-1250h-581v1250zM634 -169v1149h-476v-1149h476z" />
    <glyph glyph-name="NULL" horiz-adv-x="0" 
 />
    <glyph glyph-name="NULL" horiz-adv-x="0" 
 />
    <glyph glyph-name="nonmarkingreturn" unicode="&#xd;" horiz-adv-x="287" 
 />
    <glyph glyph-name="space" unicode=" " horiz-adv-x="259" 
 />
    <glyph glyph-name="exclam" unicode="!" horiz-adv-x="247" 
d="M127 4c-24.667 0 -37 12.333 -37 37s12.333 37 37 37c11.333 0 20.5 -3.33301 27.5 -10s10.5 -15.667 10.5 -27s-3.5 -20.333 -10.5 -27s-16.167 -10 -27.5 -10zM105 174l-8 556v10h53v-10l-9 -556v-14h-36v14z" />
    <glyph glyph-name="quotedbl" unicode="&#x22;" horiz-adv-x="371" 
d="M131 808v-4l-27 -324h-26v328h53zM306 808v-4l-27 -324h-26v328h53z" />
    <glyph glyph-name="numbersign" unicode="#" horiz-adv-x="568" 
d="M341 237h-148l-19 -237h-47l19 237h-90v45h94l14 175h-108v45h112l20 238h46l-20 -238h149l20 238h46l-20 -238h102v-45h-105l-15 -175h119v-45h-122l-19 -237h-47zM196 282h149l14 175h-148z" />
    <glyph glyph-name="dollar" unicode="$" horiz-adv-x="588" 
d="M279 -10c-32 0 -68.165 2.66699 -108.498 8s-80.5 12.666 -120.5 21.999v49c40.667 -9.33301 81.334 -16.666 122.001 -21.999s76.667 -8 108 -8c66 0 117 12.5 153 37.5s54 60.5 54 106.5c0 28 -5.5 51.333 -16.5 70s-25.5 34 -43.5 46s-38.833 21.833 -62.5 29.5
s-48.167 14.834 -73.5 21.501c-42 10.667 -77.333 22.5 -106 35.5s-51.834 28 -69.501 45s-30.5 36.167 -38.5 57.5s-12 46 -12 74c0 52.667 18.5 96 55.5 130s86.833 54.667 149.5 62v136h57v-133c25.333 -0.666992 53.166 -3 83.499 -7s62.166 -9.66699 95.499 -17v-51
c-32 8.66699 -64.5 15.167 -97.5 19.5s-63.5 6.5 -91.5 6.5c-60 0 -107.5 -13.167 -142.5 -39.5s-52.5 -61.5 -52.5 -105.5c0 -21.333 3.16699 -40 9.5 -56s17 -30.5 32 -43.5s34.5 -24.667 58.5 -35s54 -20.5 90 -30.5c30 -8 59 -16.833 87 -26.5s52.667 -22.167 74 -37.5
s38.5 -34.833 51.5 -58.5s19.5 -53.834 19.5 -90.501c0 -55.333 -17.833 -99.333 -53.5 -132s-87.167 -52.667 -154.5 -60v-143h-56v140h-1v0z" />
    <glyph glyph-name="percent" unicode="%" horiz-adv-x="959" 
d="M222 277c-58 0 -101.667 19.833 -131 59.5s-44 98.834 -44 177.501c0 78 14.667 136.833 44 176.5s73 59.5 131 59.5s101.667 -19.833 131 -59.5s44 -98.5 44 -176.5c0 -78.667 -14.667 -137.834 -44 -177.501s-73 -59.5 -131 -59.5zM222 322c85.333 0 128 64 128 192
s-42.667 192 -128 192s-128 -64 -128 -192s42.667 -192 128 -192zM737 -10c-58 0 -101.667 19.833 -131 59.5s-44 98.834 -44 177.501c0 78 14.667 136.833 44 176.5s73 59.5 131 59.5c57.333 0 100.833 -19.833 130.5 -59.5s44.5 -98.5 44.5 -176.5
c0 -78.667 -14.833 -137.834 -44.5 -177.501s-73.167 -59.5 -130.5 -59.5zM737 34c85.333 0 128 64.333 128 193c0 128 -42.667 192 -128 192s-128 -64 -128 -192c0 -128.667 42.667 -193 128 -193zM640 740h54l-373 -740h-55z" />
    <glyph glyph-name="ampersand" unicode="&#x26;" horiz-adv-x="747" 
d="M333 -12c-86 0 -153.169 19.333 -201.502 58s-72.5 92 -72.5 160c0 93.333 45.667 158.666 137 195.999c-17.333 23.333 -29.833 47.333 -37.5 72s-11.5 52.667 -11.5 84c0 64.667 19.333 113.5 58 146.5s95.334 49.5 170.001 49.5c27.333 0 55.833 -3 85.5 -9
s62.834 -15.667 99.501 -29v-6l-14 -36h-7c-32.667 12 -61.667 20.667 -87 26s-50 8 -74 8c-118 0 -177 -50.667 -177 -152c0 -26 4.33301 -50.333 13 -73s22.5 -44.5 41.5 -65.5s43.833 -42.167 74.5 -63.5s68 -43.666 112 -66.999l145 -77c10.667 36.667 16 80.667 16 132
v70h52v-70c0 -60.667 -7 -113 -21 -157l88 -46v-7l-25 -34h-9l-73 39c-48.667 -99.333 -142.667 -149 -282 -149zM409.998 247c-40.667 21.333 -75.667 41.5 -105 60.5s-54.333 38.167 -75 57.5c-77.333 -33.333 -116 -86 -116 -158c0 -54 19.667 -96.333 59 -127
s93.333 -46 162 -46c116 0 194 42.333 234 127z" />
    <glyph glyph-name="quotesingle" unicode="'" horiz-adv-x="196" 
d="M131 808v-4l-27 -324h-26v328h53z" />
    <glyph glyph-name="parenleft" unicode="(" horiz-adv-x="288" 
d="M211 -160c-51.333 73.333 -90.5 154 -117.5 242s-40.5 178.667 -40.5 272c0 94 13.5 184.833 40.5 272.5s66.167 168.167 117.5 241.5h51v-4c-52 -72.667 -91.667 -152.167 -119 -238.5s-41 -176.833 -41 -271.5c0 -95.333 13.667 -186 41 -272s67 -165.333 119 -238v-4
h-51v0z" />
    <glyph glyph-name="parenright" unicode=")" horiz-adv-x="288" 
d="M26 -160v4c52 72.667 91.5 152 118.5 238s40.5 176.667 40.5 272c0 94.667 -13.5 185.167 -40.5 271.5s-66.5 165.833 -118.5 238.5v4h51c51.333 -73.333 90.333 -153.833 117 -241.5s40 -178.5 40 -272.5c0 -93.333 -13.333 -184 -40 -272s-65.667 -168.667 -117 -242
h-51z" />
    <glyph glyph-name="asterisk" unicode="*" horiz-adv-x="501" 
d="M117 478l48 68l70 77l-101 20l-79 25l13 40l79 -25l93 -42l-11 103v82h43v-82l-13 -104l94 43l80 25l13 -40l-79 -25l-101 -20l70 -77l48 -68l-34 -24l-48 67l-52 93l-51 -93l-49 -67z" />
    <glyph glyph-name="plus" unicode="+" horiz-adv-x="483" 
d="M54 392h166v173h44v-173h166v-44h-166v-173h-44v173h-166v44z" />
    <glyph glyph-name="comma" unicode="," horiz-adv-x="223" 
d="M41 -145l46 221h58l-61 -231z" />
    <glyph glyph-name="hyphen" unicode="-" horiz-adv-x="476" 
d="M76 305h323v-50h-323v50z" />
    <glyph glyph-name="period" unicode="." horiz-adv-x="228" 
d="M114 -2c-26.667 0 -40 13.333 -40 40s13.333 40 40 40c12.667 0 22.834 -3.5 30.501 -10.5s11.5 -16.833 11.5 -29.5s-3.83301 -22.5 -11.5 -29.5s-17.834 -10.5 -30.501 -10.5z" />
    <glyph glyph-name="slash" unicode="/" horiz-adv-x="395" 
d="M309 740h51l-274 -860h-51z" />
    <glyph glyph-name="zero" unicode="0" horiz-adv-x="678" 
d="M339 -12c-90.667 0 -159.334 32 -206.001 96s-70 159 -70 285s23.333 221 70 285s115.334 96 206.001 96s159.167 -32 205.5 -96s69.5 -159 69.5 -285s-23.167 -221 -69.5 -285s-114.833 -96 -205.5 -96zM339 37c72.667 0 127.667 27.833 165 83.5s56 138.5 56 248.5
c0 110.667 -18.667 193.667 -56 249s-92.333 83 -165 83c-73.333 0 -128.666 -27.667 -165.999 -83s-56 -138.333 -56 -249c0 -110 18.667 -192.833 56 -248.5s92.666 -83.5 165.999 -83.5z" />
    <glyph glyph-name="one" unicode="1" horiz-adv-x="400" 
d="M239 672h-4l-192 -99h-7l-7 34v4l222 129h42v-740h-54v672z" />
    <glyph glyph-name="two" unicode="2" horiz-adv-x="560" 
d="M54 97c0 30 4.16406 57.1689 12.4971 81.502s21.5 47.166 39.5 68.499s40.833 41.833 68.5 61.5s60.834 39.834 99.501 60.501c30 16 55.5 31.333 76.5 46s38.167 29.167 51.5 43.5s23 29.333 29 45s9 32.5 9 50.5c0 95.333 -55.667 143 -167 143
c-56 0 -118.667 -8.66699 -188 -26l-9 50c38 9.33301 73.333 16 106 20s64.334 6 95.001 6c145.333 0 218 -63.667 218 -191c0 -24 -3.33301 -46 -10 -66s-17.5 -38.833 -32.5 -56.5s-34.667 -34.834 -59 -51.501s-53.833 -34.334 -88.5 -53.001
c-35.333 -18.667 -65.333 -36.667 -90 -54s-44.667 -34.833 -60 -52.5s-26.666 -36 -33.999 -55s-11 -39.833 -11 -62.5v-54h389v-48h-445v94z" />
    <glyph glyph-name="three" unicode="3" horiz-adv-x="535" 
d="M209 -10c-23.333 0 -47.833 1.16699 -73.5 3.5s-50.167 5.83301 -73.5 10.5v47h4c8 -2 18 -3.66699 30 -5l37 -4c12.667 -1.33301 25.167 -2.33301 37.5 -3s23.5 -1 33.5 -1c69.333 0 122 14.5 158 43.5s54 70.833 54 125.5c0 96.667 -62.333 145 -187 145h-82v46h81
c56.667 0 98.834 12.667 126.501 38s41.5 62.666 41.5 111.999c0 102 -61.667 153 -185 153c-16 0 -36.667 -1.16699 -62 -3.5s-53 -5.5 -83 -9.5h-4v47c22.667 4.66699 47.167 8.33398 73.5 11.001s52.5 4 78.5 4c78.667 0 138.167 -17.333 178.5 -52
s60.5 -84.667 60.5 -150c0 -42.667 -9.83301 -78.334 -29.5 -107.001s-48.167 -48.667 -85.5 -60v-5c43.333 -8.66699 76.666 -28.167 99.999 -58.5s35 -68.5 35 -114.5c0 -69.333 -22.5 -122.166 -67.5 -158.499s-110.5 -54.5 -196.5 -54.5z" />
    <glyph glyph-name="four" unicode="4" horiz-adv-x="612" 
d="M28 216v5l249 529h4l44 -11l1 -6l-233 -495v-4h310l18 262h35v-262h123v-48h-123v-186h-53v186h-357z" />
    <glyph glyph-name="five" unicode="5" horiz-adv-x="548" 
d="M214 -10c-24.667 0 -50.498 1.16797 -77.498 3.50098s-53.167 5.83301 -78.5 10.5v49h8c50 -10 98 -15 144 -15c76.667 0 134 13.333 172 40s57 72.667 57 138c0 57.333 -22 97.833 -66 121.5s-112 36.5 -204 38.5l-83 2l-6 6l27 356h357v-49h-313l-17 -266
c62.667 -0.666992 116.667 -4.66699 162 -12s82.666 -19.166 111.999 -35.499s51.166 -37.833 65.499 -64.5s21.5 -59.334 21.5 -98.001c0 -40.667 -6.33301 -75.334 -19 -104.001s-31 -52 -55 -70s-53.5 -31 -88.5 -39s-74.5 -12 -118.5 -12z" />
    <glyph glyph-name="six" unicode="6" horiz-adv-x="630" 
d="M331 -12c-89.333 0 -156.502 28.166 -201.502 84.499s-67.5 140.5 -67.5 252.5c0 67.333 7.5 127.5 22.5 180.5s37 97.667 66 134s64.667 64.166 107 83.499s90.5 29 144.5 29c20.667 0 41.334 -1.33301 62.001 -4s43.334 -7 68.001 -13l-3 -48
c-24.667 6 -46.667 10.333 -66 13s-39.666 4 -60.999 4c-85.333 0 -152.5 -29.667 -201.5 -89s-76.5 -142.666 -82.5 -249.999c32 26 67 46.333 105 61s78 22 120 22c34.667 0 66.667 -4.66699 96 -14s54.666 -23.166 75.999 -41.499s38 -41 50 -68s18 -58.167 18 -93.5
c0 -36 -6 -68.833 -18 -98.5s-29 -55.167 -51 -76.5s-48.5 -38 -79.5 -50s-65.5 -18 -103.5 -18zM329.998 403.999c-17.333 0 -35.498 -1.99902 -54.498 -5.99902s-37.667 -9.83301 -56 -17.5s-36.333 -16.667 -54 -27s-33.834 -21.833 -48.501 -34.5
c0.666992 -96.667 18.667 -168.167 54 -214.5s88.666 -69.5 159.999 -69.5c30 0 57 4.66699 81 14s44.5 22.666 61.5 39.999s30 38.333 39 63s13.5 52 13.5 82c0 54 -17.167 95.833 -51.5 125.5s-82.5 44.5 -144.5 44.5z" />
    <glyph glyph-name="seven" unicode="7" horiz-adv-x="505" 
d="M181 -11l-45 11v12l288 677h-391l-5 46l2 5h437l14 -29v-27l-285 -686z" />
    <glyph glyph-name="eight" unicode="8" horiz-adv-x="629" 
d="M314 -5c-79.333 0 -141.495 15.8262 -186.495 47.4932s-67.5 81.5 -67.5 149.5c0 30.667 4.66699 57.334 14 80.001s21 42.167 35 58.5s29.167 29.5 45.5 39.5s31.166 18 44.499 24c-16 8 -31 16.833 -45 26.5s-26.167 21.334 -36.5 35.001s-18.333 29.334 -24 47.001
s-8.5 38.167 -8.5 61.5c0 32 5.83301 59.667 17.5 83s27.667 42.666 48 57.999s44.666 26.666 72.999 33.999s59.166 11 92.499 11c32.667 0 62.834 -3.66699 90.501 -11s51.5 -18.666 71.5 -33.999s35.5 -34.833 46.5 -58.5s16.5 -51.5 16.5 -83.5
c0 -28 -4.16699 -52.667 -12.5 -74s-18.833 -39.666 -31.5 -54.999s-26.334 -28.333 -41.001 -39s-28.334 -19 -41.001 -25c20.667 -7.33301 40.5 -16 59.5 -26s35.5 -22.167 49.5 -36.5s25.167 -31.166 33.5 -50.499s12.5 -42 12.5 -68c0 -31.333 -6 -59.166 -18 -83.499
s-29.167 -44.666 -51.5 -60.999s-49.333 -28.666 -81 -36.999s-66.834 -12.5 -105.501 -12.5zM319.005 351.993l-34.0049 9.99707c-11.333 3.33301 -22.666 7 -33.999 11c-8 -2.66699 -19.667 -7.66699 -35 -15s-30.666 -17.833 -45.999 -31.5
s-28.666 -31.167 -39.999 -52.5s-17 -47.666 -17 -78.999c0 -53.333 18.333 -92.166 55 -116.499s85.334 -36.5 146.001 -36.5c30 0 57.5 3.16699 82.5 9.5s46.333 15.5 64 27.5s31.5 27.167 41.5 45.5s15 39.5 15 63.5c0 26.667 -5.66699 48.834 -17 66.501
s-26.166 32.5 -44.499 44.5s-39.5 22 -63.5 30s-48.333 15.667 -73 23zM136 562.99c0 -27.333 5.83301 -50.1689 17.5 -68.502s27 -33.666 46 -45.999s40.667 -22.666 65 -30.999s49.166 -16.166 74.499 -23.499c3.33301 -1.33301 6.83301 -2.5 10.5 -3.5
s7.5 -2.16699 11.5 -3.5c8 3.33301 19.167 8.83301 33.5 16.5s28.5 18.5 42.5 32.5s26.333 31.167 37 51.5s16 44.833 16 73.5c0 24.667 -4.5 46 -13.5 64s-21.333 32.833 -37 44.5s-34.167 20.334 -55.5 26.001s-44.666 8.5 -69.999 8.5s-48.833 -2.83301 -70.5 -8.5
s-40.5 -14.334 -56.5 -26.001s-28.5 -26.334 -37.5 -44.001s-13.5 -38.5 -13.5 -62.5z" />
    <glyph glyph-name="nine" unicode="9" horiz-adv-x="631" 
d="M300 752c89.333 0 156.502 -28.165 201.502 -84.498s67.5 -140.5 67.5 -252.5c0 -67.333 -7.66699 -127.5 -23 -180.5s-37.5 -97.833 -66.5 -134.5s-64.5 -64.5 -106.5 -83.5s-90 -28.5 -144 -28.5c-20.667 0 -41.334 1.33301 -62.001 4s-43.334 7 -68.001 13l3 48
c24.667 -6 46.667 -10.333 66 -13s39.666 -4 60.999 -4c85.333 0 152.5 29.667 201.5 89s76.5 142.666 82.5 249.999c-32 -26 -67 -46.333 -105 -61s-78 -22 -120 -22c-34.667 0 -66.667 4.66699 -96 14s-54.666 23.166 -75.999 41.499s-38 41 -50 68s-18 58.167 -18 93.5
c0 36 6 68.833 18 98.5s29 55.167 51 76.5s48.5 38 79.5 50s65.5 18 103.5 18zM301.002 336.002c17.333 0 35.332 1.99902 53.999 5.99902s37.334 9.83301 56.001 17.5s36.667 16.667 54 27s33.666 21.833 48.999 34.5c-0.666992 96.667 -18.667 168.167 -54 214.5
s-88.666 69.5 -159.999 69.5c-30 0 -57 -4.66699 -81 -14s-44.5 -22.666 -61.5 -39.999s-30 -38.333 -39 -63s-13.5 -52 -13.5 -82c0 -54 17.167 -95.833 51.5 -125.5s82.5 -44.5 144.5 -44.5z" />
    <glyph glyph-name="colon" unicode=":" horiz-adv-x="233" 
d="M116 -2c-26.667 0 -40 13.333 -40 40s13.333 40 40 40c12.667 0 22.834 -3.5 30.501 -10.5s11.5 -16.833 11.5 -29.5s-3.83301 -22.5 -11.5 -29.5s-17.834 -10.5 -30.501 -10.5zM116 463c-26.667 0 -40 13.333 -40 40s13.333 40 40 40c12.667 0 22.834 -3.5 30.501 -10.5
s11.5 -16.833 11.5 -29.5s-3.83301 -22.5 -11.5 -29.5s-17.834 -10.5 -30.501 -10.5z" />
    <glyph glyph-name="semicolon" unicode=";" horiz-adv-x="267" 
d="M69 -145l46 221h58l-61 -231zM139 463c-26.667 0 -40 13.333 -40 40s13.333 40 40 40c12.667 0 22.834 -3.5 30.501 -10.5s11.5 -16.833 11.5 -29.5s-3.83301 -22.5 -11.5 -29.5s-17.834 -10.5 -30.501 -10.5z" />
    <glyph glyph-name="less" unicode="&#x3c;" horiz-adv-x="507" 
d="M52 347v40l378 168v-49l-319 -140l316 -139v-49z" />
    <glyph glyph-name="equal" unicode="=" horiz-adv-x="529" 
d="M79 274h372v-45h-372v45zM79 486h372v-45h-372v45z" />
    <glyph glyph-name="greater" unicode="&#x3e;" horiz-adv-x="508" 
d="M82 227l314 139l-317 140v49l378 -168v-40l-375 -169v49z" />
    <glyph glyph-name="question" unicode="?" horiz-adv-x="453" 
d="M159 182l-2.00098 192.998c20.667 4.66699 42.834 10.834 66.501 18.501s45.667 18.167 66 31.5s37.166 30.333 50.499 51s20 46.334 20 77.001c0 28.667 -4.83301 52.667 -14.5 72s-22 34.666 -37 45.999s-32.167 19.5 -51.5 24.5s-38.333 7.5 -57 7.5
c-26.667 0 -52.5 -2.33301 -77.5 -7s-50.167 -10.667 -75.5 -18l-12 45c24 8 50.667 14.667 80 20s59.333 8 90 8c25.333 0 50.333 -3.16699 75 -9.5s46.667 -17 66 -32s35 -35.167 47 -60.5s18 -56.666 18 -93.999c0 -36 -6.5 -66.333 -19.5 -91s-29.667 -45 -50 -61
s-42.666 -28.833 -66.999 -38.5s-47.5 -17.5 -69.5 -23.5v-178h-46v19zM182.999 0.998047c-24 0 -36 12 -36 36c0 24.667 12 37 36 37c25.333 0 38 -12.333 38 -37c0 -24 -12.667 -36 -38 -36z" />
    <glyph glyph-name="at" unicode="@" horiz-adv-x="921" 
d="M447 -135c-60 0 -114.172 9.00098 -162.505 27.001s-89.166 44 -122.499 78s-59 75.5 -77 124.5s-27 104.5 -27 166.5c0 64 9.5 121.5 28.5 172.5s46.5 94.333 82.5 130s79.833 63 131.5 82s110.167 28.5 175.5 28.5c60 0 113.333 -8.16699 160 -24.5
s86.334 -40.333 119.001 -72s57.5 -70.334 74.5 -116.001s25.5 -97.5 25.5 -155.5c0 -82 -15.333 -144.667 -46 -188s-75.334 -65 -134.001 -65c-36.667 0 -64 8 -82 24s-28.667 38.333 -32 67h-6c-18.667 -25.333 -44 -45.833 -76 -61.5s-64 -23.5 -96 -23.5
c-44 0 -78.5 14.833 -103.5 44.5s-37.5 72.167 -37.5 127.5c0 38.667 6.33301 74 19 106s30.334 59.5 53.001 82.5s49.834 41 81.501 54s66.834 19.5 105.501 19.5c21.333 0 44.166 -2.66699 68.499 -8s50.5 -12.666 78.5 -21.999l-40 -212
c-3.33301 -15.333 -6 -29.5 -8 -42.5s-3 -24.833 -3 -35.5c0 -28 6.16699 -48.167 18.5 -60.5s32.5 -18.5 60.5 -18.5c43.333 0 76.5 18.167 99.5 54.5s34.5 88.833 34.5 157.5c0 105.333 -28.667 185.833 -86 241.5s-140 83.5 -248 83.5c-58 0 -110.167 -8.5 -156.5 -25.5
s-85.5 -41.5 -117.5 -73.5s-56.667 -70.833 -74 -116.5s-26 -97.167 -26 -154.5c0 -55.333 7.83301 -104.833 23.5 -148.5s38.334 -80.667 68.001 -111s65.834 -53.5 108.501 -69.5s91 -24 145 -24c30 0 62 2.66699 96 8s69.667 13.666 107 24.999l17 -42
c-40.667 -11.333 -79.5 -19.833 -116.5 -25.5s-71.5 -8.5 -103.5 -8.5zM386.995 99.001c21.333 0 41.832 4.00098 61.499 12.001s37.5 19.167 53.5 33.5s29.5 31.166 40.5 50.499s18.5 40.333 22.5 63l32 178c-39.333 11.333 -71.333 17 -96 17
c-31.333 0 -60.166 -5.5 -86.499 -16.5s-49 -26.333 -68 -46s-33.833 -43.167 -44.5 -70.5s-16 -57 -16 -89c0 -42 8.83301 -74.5 26.5 -97.5s42.5 -34.5 74.5 -34.5z" />
    <glyph glyph-name="A" unicode="A" horiz-adv-x="695" 
d="M10 6l294 734h87l294 -734v-6h-56l-95 238h-373l-95 -238h-56v6zM515 288l-115 287l-50 126h-6l-49 -126l-115 -287h335z" />
    <glyph glyph-name="B" unicode="B" horiz-adv-x="676" 
d="M328 -10c-34 0 -69.1689 1.16895 -105.502 3.50195s-76.5 6.16602 -120.5 11.499v730c48 4.66699 89.167 8 123.5 10s66.833 3 97.5 3c48.667 0 90.334 -3.66699 125.001 -11s62.834 -18.833 84.501 -34.5s37.5 -35.834 47.5 -60.501s15 -54.667 15 -90
c0 -44.667 -12 -83 -36 -115s-56 -51.667 -96 -59v-4c104.667 -20 157 -80.667 157 -182c0 -134.667 -97.333 -202 -292 -202zM325.998 37.002c82 0 142.333 12.667 181 38s58 65 58 119c0 106 -70 159 -210 159h-200v-305c20 -4 44 -6.83301 72 -8.5s61 -2.5 99 -2.5z
M351.998 398.002c67.333 0 115.666 11.8311 144.999 35.498s44 62.834 44 117.501c0 27.333 -3.83301 50.5 -11.5 69.5s-20.167 34.5 -37.5 46.5s-39.666 20.667 -66.999 26s-61 8 -101 8c-36 0 -67.5 -0.666992 -94.5 -2s-51.833 -3.66602 -74.5 -6.99902v-294h197z" />
    <glyph glyph-name="C" unicode="C" horiz-adv-x="613" 
d="M384 -8c-106 0 -186.501 31.999 -241.501 95.999s-82.5 157.333 -82.5 280c0 125.333 28 220.333 84 285s138 97 246 97c24.667 0 53.667 -2.16699 87 -6.5s64.333 -9.5 93 -15.5v-51c-34.667 7.33301 -67.334 13 -98.001 17s-57 6 -79 6
c-90.667 0 -159.667 -28.333 -207 -85s-71 -138.667 -71 -246c0 -106.667 22.667 -187.834 68 -243.501s112 -83.5 200 -83.5c12 0 26.5 0.666992 43.5 2s34.333 3.16602 52 5.49902s34.5 5 50.5 8s29.667 6.16699 41 9.5v-49c-12 -3.33301 -26.167 -6.66602 -42.5 -9.99902
s-33.166 -6.16602 -50.499 -8.49902s-34.166 -4.16602 -50.499 -5.49902s-30.5 -2 -42.5 -2z" />
    <glyph glyph-name="D" unicode="D" horiz-adv-x="756" 
d="M299 -9c-45.333 0 -86 1.5 -122 4.5s-61 7.16699 -75 12.5v731c12.667 0.666992 28.167 1.66699 46.5 3s37 2.33301 56 3l55 2c17.667 0.666992 32.5 1 44.5 1c134.667 0 233.667 -30.5 297 -91.5s95 -156.167 95 -285.5c0 -130.667 -32 -226.667 -96 -288
s-164.333 -92 -301 -92zM309 40c114 0 197.834 26.667 251.501 80s80.5 137 80.5 251c0 112.667 -26.833 195.334 -80.5 248.001s-137.834 79 -252.501 79c-10 0 -21.5 -0.166992 -34.5 -0.5s-26.333 -1 -40 -2l-41 -3c-13.667 -1 -25.834 -1.83301 -36.501 -2.5v-639
l42 -5.5c12.667 -1.66699 24.834 -2.83398 36.501 -3.50098s23.5 -1.16699 35.5 -1.5s25 -0.5 39 -0.5z" />
    <glyph glyph-name="E" unicode="E" horiz-adv-x="634" 
d="M102 740h465v-49h-411v-290h392v-48h-392v-304h419v-49h-473v740z" />
    <glyph glyph-name="F" unicode="F" horiz-adv-x="605" 
d="M102 740h465v-49h-411v-293h374v-48h-374v-350h-54v740z" />
    <glyph glyph-name="G" unicode="G" horiz-adv-x="677" 
d="M397 -8c-110 0 -193.67 32.001 -251.003 96.001s-86 157.333 -86 280c0 124.667 29.333 219.5 88 284.5s145 97.5 259 97.5c58.667 0 122.334 -9.33301 191.001 -28v-50c-22 5.33301 -41.5 9.83301 -58.5 13.5s-32.667 6.5 -47 8.5s-28.166 3.5 -41.499 4.5
s-27.333 1.5 -42 1.5c-95.333 0 -168.166 -28.333 -218.499 -85s-75.5 -138.667 -75.5 -246c0 -106.667 24 -187.834 72 -243.501s117.667 -83.5 209 -83.5c10 0 21.667 0.5 35 1.5s27 2.5 41 4.5s28 4.16699 42 6.5s26.667 4.83301 38 7.5v314h53v-349
c-15.333 -5.33301 -32.166 -10 -50.499 -14s-36.833 -7.66699 -55.5 -11s-36.834 -5.83301 -54.501 -7.5s-33.5 -2.5 -47.5 -2.5z" />
    <glyph glyph-name="H" unicode="H" horiz-adv-x="791" 
d="M102 740h54v-336h479v336h54v-740h-54v356h-479v-356h-54v740z" />
    <glyph glyph-name="I" unicode="I" horiz-adv-x="258" 
d="M102 740h54v-740h-54v740z" />
    <glyph glyph-name="J" unicode="J" horiz-adv-x="258" 
d="M25 -161c14.667 30.667 27.167 59.5 37.5 86.5s18.5 53.833 24.5 80.5s10.333 54.167 13 82.5s4 59.5 4 93.5v558h54v-560c0 -33.333 -1.33301 -63.833 -4 -91.5s-7.5 -55.167 -14.5 -82.5s-16.333 -56 -28 -86s-26.5 -63.667 -44.5 -101z" />
    <glyph glyph-name="K" unicode="K" horiz-adv-x="674" 
d="M102 740h54v-338h179l246 338h64l-242 -332l-27 -25v-6l30 -24l256 -353h-64l-256 354h-186v-354h-54v740z" />
    <glyph glyph-name="L" unicode="L" horiz-adv-x="548" 
d="M102 740h54v-692h377v-48h-431v740z" />
    <glyph glyph-name="M" unicode="M" horiz-adv-x="945" 
d="M102 740h77l212 -471l78 -184h6l79 184l212 471h77v-740h-52v668h-5l-107 -248l-179 -393h-55l-179 393l-108 248h-4v-668h-52v740z" />
    <glyph glyph-name="N" unicode="N" horiz-adv-x="807" 
d="M102 740h49l433 -565l65 -91h5v656h51v-740h-50l-438 571l-59 83h-5v-654h-51v740z" />
    <glyph glyph-name="O" unicode="O" horiz-adv-x="771" 
d="M385 -10c-102 0 -181.667 32.333 -239 97s-86 158.667 -86 282c0 62 7.33301 116.667 22 164s36 87 64 119s62 56.333 102 73s85.667 25 137 25s97.166 -8.33301 137.499 -25s74.5 -41 102.5 -73s49.333 -71.667 64 -119s22 -102 22 -164s-7.33301 -116.5 -22 -163.5
s-36 -86.5 -64 -118.5s-62.167 -56.167 -102.5 -72.5s-86.166 -24.5 -137.499 -24.5zM385 39c87.333 0 154.331 28.668 200.998 86.001s70 138.666 70 243.999c0 107.333 -23.333 189.5 -70 246.5s-113.667 85.5 -201 85.5s-154.166 -28.5 -200.499 -85.5
s-69.5 -139.167 -69.5 -246.5c0 -106 23.333 -187.5 70 -244.5s113.334 -85.5 200.001 -85.5z" />
    <glyph glyph-name="P" unicode="P" horiz-adv-x="660" 
d="M102 735c62 10 121 15 177 15c118 0 204 -20.167 258 -60.5s81 -104.166 81 -191.499c0 -88 -26.167 -152 -78.5 -192s-135.833 -60 -250.5 -60c-18 0 -37.667 0.666992 -59 2s-46 3.66602 -74 6.99902v-255h-54v735zM293 295c48.667 0 90.165 3.66602 124.498 10.999
s62.333 19.166 84 35.499s37.334 37.333 47.001 63s14.5 56.834 14.5 93.501c0 36 -5.33301 66.667 -16 92s-27.167 46.333 -49.5 63s-51.166 28.834 -86.499 36.501s-77.666 11.5 -126.999 11.5c-22 0 -44.833 -0.833008 -68.5 -2.5s-43.5 -3.83398 -59.5 -6.50098v-386
c5.33301 -1.33301 13.166 -2.66602 23.499 -3.99902s22 -2.5 35 -3.5s26.333 -1.83301 40 -2.5s26.5 -1 38.5 -1z" />
    <glyph glyph-name="Q" unicode="Q" horiz-adv-x="767" 
d="M686 -104c-120 16 -220.168 35.8311 -300.501 59.498s-144.833 53.834 -193.5 90.501s-83.334 81.167 -104.001 133.5s-31 115.5 -31 189.5c0 60.667 7.33301 114.5 22 161.5s35.834 86.833 63.501 119.5s61.667 57.5 102 74.5s86.5 25.5 138.5 25.5
s98.167 -8.5 138.5 -25.5s74.333 -41.833 102 -74.5s48.834 -72.5 63.501 -119.5s22 -100.833 22 -161.5c0 -119.333 -28.333 -210.666 -85 -273.999s-137.334 -94.333 -242.001 -93v-5c30 -7.33301 58.167 -13.666 84.5 -18.999s51.833 -9.83301 76.5 -13.5
s49.334 -6.83398 74.001 -9.50098s50.667 -4.66699 78 -6zM382.999 38.998c42.667 0 80.833 7.49902 114.5 22.499s62 36.5 85 64.5s40.667 62.5 53 103.5s18.5 87.5 18.5 139.5c0 107.333 -23.333 189.5 -70 246.5s-113.667 85.5 -201 85.5s-154.333 -28.667 -201 -86
s-70 -139.333 -70 -246c0 -105.333 23.5 -186.666 70.5 -243.999s113.833 -86 200.5 -86z" />
    <glyph glyph-name="R" unicode="R" horiz-adv-x="682" 
d="M386 291c-14.667 -2 -30.1699 -3.33203 -46.5029 -3.99902s-33.166 -1 -50.499 -1c-18.667 0 -39.167 0.666992 -61.5 2s-46.166 3.33301 -71.499 6v-294h-54v735c60.667 10 119.667 15 177 15c59.333 0 110.333 -4.5 153 -13.5s77.834 -23 105.501 -42s48 -43 61 -72
s19.5 -63.833 19.5 -104.5c0 -60.667 -14.167 -108.834 -42.5 -144.501s-73.5 -60.167 -135.5 -73.5l203 -300h-63zM292.997 333.001c48.667 0 90.168 3.33496 124.501 10.002s62.166 17.5 83.499 32.5s37 34.167 47 57.5s15 51.666 15 84.999c0 64 -22 110.5 -66 139.5
s-115 43.5 -213 43.5c-21.333 0 -44 -0.833008 -68 -2.5s-44 -3.83398 -60 -6.50098v-347c4.66699 -1.33301 11.667 -2.83301 21 -4.5s20.333 -3 33 -4s26.167 -1.83301 40.5 -2.5s28.5 -1 42.5 -1z" />
    <glyph glyph-name="S" unicode="S" horiz-adv-x="588" 
d="M278 -10c-32 0 -68.167 2.66797 -108.5 8.00098s-80.5 12.666 -120.5 21.999v49c40.667 -9.33301 81.334 -16.666 122.001 -21.999s76.667 -8 108 -8c66 0 117 12.5 153 37.5s54 60.5 54 106.5c0 28 -5.5 51.333 -16.5 70s-25.5 34 -43.5 46s-38.833 21.833 -62.5 29.5
s-48.167 14.834 -73.5 21.501c-42 10.667 -77.333 22.5 -106 35.5s-51.834 28 -69.501 45s-30.5 36.167 -38.5 57.5s-12 46 -12 74c0 29.333 6 56 18 80s28.833 44.5 50.5 61.5s47.834 30.167 78.501 39.5s64.667 14 102 14c27.333 0 57.166 -2 89.499 -6
s66.5 -10 102.5 -18v-51c-32 8.66699 -64.5 15.167 -97.5 19.5s-63.5 6.5 -91.5 6.5c-60 0 -107.5 -13.167 -142.5 -39.5s-52.5 -61.5 -52.5 -105.5c0 -21.333 3.16699 -40 9.5 -56s17 -30.5 32 -43.5s34.5 -24.667 58.5 -35s54 -20.5 90 -30.5c30 -8 59 -16.833 87 -26.5
s52.667 -22.167 74 -37.5s38.5 -34.833 51.5 -58.5s19.5 -53.834 19.5 -90.501c0 -62.667 -22.833 -110.834 -68.5 -144.501s-111.167 -50.5 -196.5 -50.5z" />
    <glyph glyph-name="T" unicode="T" horiz-adv-x="623" 
d="M284 691h-267v49h590v-49h-268v-691h-55v691z" />
    <glyph glyph-name="U" unicode="U" horiz-adv-x="774" 
d="M387 -10c-50 0 -93.333 5.66699 -130 17s-67.167 29.5 -91.5 54.5s-42.333 57 -54 96s-17.5 86.167 -17.5 141.5v440h54v-434c0 -49.333 5.16699 -90.833 15.5 -124.5s25.5 -61 45.5 -82s44.833 -36.167 74.5 -45.5s64.167 -14 103.5 -14c38.667 0 73 4.66699 103 14
s55 24.5 75 45.5s35.167 48.333 45.5 82s15.5 75.167 15.5 124.5v434h54v-440c0 -55.333 -5.83301 -102.5 -17.5 -141.5s-29.667 -71 -54 -96s-54.833 -43.167 -91.5 -54.5s-80 -17 -130 -17z" />
    <glyph glyph-name="V" unicode="V" horiz-adv-x="691" 
d="M13 740h58l215 -542l57 -143h5l56 143l216 542h58l-295 -740h-75z" />
    <glyph glyph-name="W" unicode="W" horiz-adv-x="1027" 
d="M24 740h57l155 -531l42 -148h5l43 148l159 531h57l158 -531l43 -148h5l43 148l155 531h57l-219 -740h-75l-160 537l-33 121h-5l-33 -123l-160 -535h-75z" />
    <glyph glyph-name="X" unicode="X" horiz-adv-x="679" 
d="M304 382l-277 358h65l235 -306l10 -17h6l10 17l235 306h65l-279 -361l296 -379h-65l-254 328l-9 15h-6l-9 -15l-251 -328h-66z" />
    <glyph glyph-name="Y" unicode="Y" horiz-adv-x="629" 
d="M287 254l-278 486h60l211 -370l31 -62h6l32 62l211 370h60l-278 -486v-254h-55v254z" />
    <glyph glyph-name="Z" unicode="Z" horiz-adv-x="592" 
d="M36 43l439 643v4h-425v50h495v-41l-438 -645v-4h447v-50h-518v43z" />
    <glyph glyph-name="bracketleft" unicode="[" horiz-adv-x="313" 
d="M98 868h178v-45h-130v-938h130v-45h-178v1028z" />
    <glyph glyph-name="backslash" unicode="\" horiz-adv-x="395" 
d="M35 740h50l274 -860h-50z" />
    <glyph glyph-name="bracketright" unicode="]" horiz-adv-x="312" 
d="M37 -160v45h129v938h-129v45h178v-1028h-178z" />
    <glyph glyph-name="asciicircum" unicode="^" horiz-adv-x="491" 
d="M224 789h43l170 -308h-45l-145 255h-4l-144 -255h-45z" />
    <glyph glyph-name="underscore" unicode="_" horiz-adv-x="596" 
d="M62 -60h473v-51h-473v51z" />
    <glyph glyph-name="grave" unicode="`" horiz-adv-x="248" 
d="M140 619l-93 189h64l73 -179z" />
    <glyph glyph-name="a" unicode="a" horiz-adv-x="536" 
d="M192 -5c-96 0 -143.999 44.999 -143.999 134.999c0 52 16.5 91.333 49.5 118s86.833 43.334 161.5 50.001l142 12v48c0 26 -2.5 48 -7.5 66s-13.167 32.5 -24.5 43.5s-26.5 18.833 -45.5 23.5s-42.833 7 -71.5 7c-25.333 0 -50.833 -1.33301 -76.5 -4
s-55.834 -7.33398 -90.501 -14.001l-5 46c36.667 6.66699 68.667 11.334 96 14.001s55 4 83 4c67.333 0 116.833 -14 148.5 -42s47.5 -72.333 47.5 -133v-369h-45l-7 70h-5c-79.333 -50 -148 -75 -206 -75zM204.001 41.999c57.333 0 123 23.667 197 71v158l-129 -12
c-32 -3.33301 -58.833 -7.83301 -80.5 -13.5s-39.167 -13.5 -52.5 -23.5s-22.833 -22.167 -28.5 -36.5s-8.5 -31.833 -8.5 -52.5c0 -60.667 34 -91 102 -91z" />
    <glyph glyph-name="b" unicode="b" horiz-adv-x="618" 
d="M298 -10c-33.333 0 -68.3311 1.50098 -104.998 4.50098s-72.334 7.16699 -107.001 12.5v801h54v-332c22.667 24 49.167 42.333 79.5 55s65.5 19 105.5 19c76 0 134.5 -22.333 175.5 -67s61.5 -115.334 61.5 -212.001c0 -48.667 -6.5 -90.667 -19.5 -126
s-31 -64.5 -54 -87.5s-50.833 -40 -83.5 -51s-68.334 -16.5 -107.001 -16.5zM297.002 36.001c33.333 0 63.001 4.33496 89.001 13.002s48 22.5 66 41.5s31.667 43.333 41 73s14 65.167 14 106.5c0 83.333 -15.5 142.833 -46.5 178.5s-78.5 53.5 -142.5 53.5
c-22 0 -43.667 -3 -65 -9s-40.333 -14.333 -57 -25s-30.167 -23.834 -40.5 -39.501s-15.5 -32.834 -15.5 -51.501v-330c19.333 -2.66699 42.666 -5.16699 69.999 -7.5s56.333 -3.5 87 -3.5z" />
    <glyph glyph-name="c" unicode="c" horiz-adv-x="485" 
d="M318 -9c-175.333 0 -262.997 92.666 -262.997 277.999c0 186.667 87.667 280 263 280c18 0 38.167 -1.16699 60.5 -3.5s42.166 -5.83301 59.499 -10.5v-50c-35.333 10 -73.333 15 -114 15c-142 0 -213 -77 -213 -231c0 -80 16.667 -138.167 50 -174.5s87 -54.5 161 -54.5
c21.333 0 40.666 0.833008 57.999 2.5s36.666 4.83398 57.999 9.50098v-47c-13.333 -4.66699 -31.333 -8.16699 -54 -10.5s-44.667 -3.5 -66 -3.5z" />
    <glyph glyph-name="d" unicode="d" horiz-adv-x="618" 
d="M293 -10c-76.667 0 -135.497 22.168 -176.497 66.501s-61.5 115.166 -61.5 212.499c0 48.667 6.5 90.667 19.5 126s31.167 64.5 54.5 87.5s51.166 40 83.499 51s68.166 16.5 107.499 16.5c30.667 0 59.667 -1.5 87 -4.5s50.666 -5.16699 69.999 -6.5v269h54v-808h-46
l-6 70h-5c-42 -53.333 -102.333 -80 -181 -80zM300.003 38.001c22.667 0 44.501 3.16699 65.501 9.5s39.833 15.333 56.5 27s30 25.667 40 42s15 34.833 15 55.5v320c-19.333 2.66699 -42.833 5.16699 -70.5 7.5s-56.834 3.5 -87.501 3.5
c-66 0 -117.167 -18.167 -153.5 -54.5s-54.5 -95.833 -54.5 -178.5c0 -83.333 15.5 -142.833 46.5 -178.5s78.5 -53.5 142.5 -53.5z" />
    <glyph glyph-name="e" unicode="e" horiz-adv-x="555" 
d="M307 -9c-82.667 0 -145.166 22.6699 -187.499 68.0029s-63.5 112.666 -63.5 201.999c0 93.333 20.667 164.666 62 213.999s101.333 74 180 74c66.667 0 117.167 -20.667 151.5 -62s51.5 -101.333 51.5 -180c0 -14 -0.333008 -26.167 -1 -36.5s-1.66699 -18.5 -3 -24.5
h-387c3.33301 -70.667 21.666 -122.834 54.999 -156.501s83.333 -50.5 150 -50.5c25.333 0 51.5 2.33301 78.5 7s55.5 12 85.5 22l5 -45c-26.667 -9.33301 -56 -17 -88 -23s-61.667 -9 -89 -9zM298.001 503.003c-119.333 0 -182 -71.667 -188 -215h340
c-2 76.667 -15 131.667 -39 165s-61.667 50 -113 50z" />
    <glyph glyph-name="f" unicode="f" horiz-adv-x="374" 
d="M147 490l-128.999 0.00195312v50h130v23c0 50 3.16699 90.833 9.5 122.5s18.166 56.667 35.499 75s41.333 31.166 72 38.499s70.667 12 120 14l4 -41c-40 -2.66699 -72.333 -6.66699 -97 -12s-43.667 -14.333 -57 -27s-22.333 -29.834 -27 -51.501s-7 -50.167 -7 -85.5
v-56h158v-50h-158v-490h-54v490z" />
    <glyph glyph-name="g" unicode="g" horiz-adv-x="618" 
d="M269 -219c-30.667 0 -61.3369 2.16797 -92.0039 6.50098s-59 10.166 -85 17.499l4 47c26.667 -6.66699 54.834 -12.334 84.501 -17.001s58.834 -7 87.501 -7c30.667 0 58.834 3.33301 84.501 10s47.834 18.334 66.501 35.001s33.334 38.667 44.001 66s16 62 16 104v32h-5
c-40.667 -54 -101 -81 -181 -81c-76.667 0 -135.5 22 -176.5 66s-61.5 114 -61.5 210c0 48.667 6.5 90.5 19.5 125.5s31.167 64 54.5 87s51.166 40 83.499 51s68.166 16.5 107.499 16.5c16 0 33.167 -0.5 51.5 -1.5s36.833 -2.5 55.5 -4.5s36.834 -4.33301 54.501 -7
s34.167 -5.66699 49.5 -9v-484c0 -54.667 -7.33301 -99 -22 -133s-34 -60.667 -58 -80s-51.833 -32.5 -83.5 -39.5s-64.5 -10.5 -98.5 -10.5zM299.997 41.001c22.667 0 44.667 3.16504 66 9.49805s40.166 15.5 56.499 27.5s29.5 26.333 39.5 43s15 35.334 15 56.001v315
c-19.333 2.66699 -42.833 5.16699 -70.5 7.5s-56.834 3.5 -87.501 3.5c-66 0 -117.167 -18 -153.5 -54s-54.5 -95 -54.5 -177c0 -41.333 3.83301 -76.666 11.5 -105.999s19.334 -53.333 35.001 -72s35.334 -32.167 59.001 -40.5s51.5 -12.5 83.5 -12.5z" />
    <glyph glyph-name="h" unicode="h" horiz-adv-x="621" 
d="M87 808h53v-334c30.667 14 58 25.833 82 35.5s45.833 17.5 65.5 23.5s38 10.333 55 13s33.5 4 49.5 4c46.667 0 82.667 -12 108 -36s38 -61.667 38 -113v-401h-54v380c0 44 -8.83301 75.167 -26.5 93.5s-44.5 27.5 -80.5 27.5c-30.667 0 -66.167 -6.5 -106.5 -19.5
s-83.833 -30.5 -130.5 -52.5v-429h-53v808z" />
    <glyph glyph-name="i" unicode="i" horiz-adv-x="231" 
d="M115 664c-25.333 0 -38 12.667 -38 38s12.667 38 38 38c26.667 0 40 -12.667 40 -38s-13.333 -38 -40 -38zM88 540h54v-540h-54v540z" />
    <glyph glyph-name="j" unicode="j" horiz-adv-x="228" 
d="M110 664c-26 0 -39 12.667 -39 38s13 38 39 38s39 -12.667 39 -38s-13 -38 -39 -38zM12 -201c26 46.667 45 95 57 145s18 108 18 174v422h54v-449c-2.66699 -56.667 -11.167 -111.167 -25.5 -163.5s-35.833 -101.5 -64.5 -147.5z" />
    <glyph glyph-name="k" unicode="k" horiz-adv-x="557" 
d="M87 808h53v-510h119l214 242h64l-224 -253l-16 -9v-4l17 -9l239 -265h-64l-232 256h-117v-256h-53v808z" />
    <glyph glyph-name="l" unicode="l" horiz-adv-x="234" 
d="M90 808h54v-808h-54v808z" />
    <glyph glyph-name="m" unicode="m" horiz-adv-x="917" 
d="M87 540l43.999 0.00195312l5 -65h5c24 14 45.5 25.667 64.5 35s36.333 17 52 23s30.334 10.333 44.001 13s27.5 4 41.5 4c68.667 0 113.334 -25.667 134.001 -77h4c26 14.667 49 27 69 37s38 18 54 24s30.667 10.167 44 12.5s26.666 3.5 39.999 3.5
c46.667 0 82.667 -12 108 -36s38 -61.667 38 -113v-401h-54v380c0 43.333 -8.83301 74.166 -26.5 92.499s-44.5 27.5 -80.5 27.5c-24 0 -51 -6 -81 -18s-64.333 -29 -103 -51v-431h-54v380c0 43.333 -8.83301 74.166 -26.5 92.499s-44.5 27.5 -80.5 27.5
c-25.333 0 -53.833 -6.5 -85.5 -19.5s-65.5 -30.167 -101.5 -51.5v-429h-54v540z" />
    <glyph glyph-name="n" unicode="n" horiz-adv-x="621" 
d="M87 540h44.001l5 -65h5c30.667 14 58.167 25.667 82.5 35s46.166 17 65.499 23s37.333 10.333 54 13s33 4 49 4c46.667 0 82.667 -12 108 -36s38 -61.667 38 -113v-401h-54v380c0 44 -8.83301 75.167 -26.5 93.5s-44.5 27.5 -80.5 27.5
c-30.667 0 -66.167 -6.5 -106.5 -19.5s-83.5 -30.5 -129.5 -52.5v-429h-54v540z" />
    <glyph glyph-name="o" unicode="o" horiz-adv-x="602" 
d="M301 -10c-79.333 0 -140.166 24.167 -182.499 72.5s-63.5 117.5 -63.5 207.5s21.167 159.167 63.5 207.5s103.166 72.5 182.499 72.5s140.166 -24.167 182.499 -72.5s63.5 -117.5 63.5 -207.5s-21.167 -159.167 -63.5 -207.5s-103.166 -72.5 -182.499 -72.5zM301 38
c64.667 0 112.5 19 143.5 57s46.5 96.333 46.5 175s-15.5 137 -46.5 175s-78.833 57 -143.5 57c-126.667 0 -190 -77.333 -190 -232s63.333 -232 190 -232z" />
    <glyph glyph-name="p" unicode="p" horiz-adv-x="619" 
d="M87 540l45.9971 -0.000976562l5 -66h6c20 24.667 45.167 43.5 75.5 56.5s65.5 19.5 105.5 19.5c76.667 0 135.5 -22.167 176.5 -66.5s61.5 -115.166 61.5 -212.499c0 -48.667 -6.5 -90.667 -19.5 -126s-31.167 -64.5 -54.5 -87.5s-51.166 -40 -83.499 -51
s-68.166 -16.5 -107.499 -16.5c-30.667 0 -59.667 1.5 -87 4.5s-50.666 5.16699 -69.999 6.5v-221h-54v760zM298.997 36.999c66 0 117.165 18.167 153.498 54.5s54.5 95.833 54.5 178.5c0 83.333 -15.5 142.833 -46.5 178.5s-78.5 53.5 -142.5 53.5
c-22.667 0 -44.667 -3 -66 -9s-40.166 -14.833 -56.499 -26.5s-29.5 -25.5 -39.5 -41.5s-15 -34 -15 -54v-323c19.333 -2.66699 42.833 -5.16699 70.5 -7.5s56.834 -3.5 87.501 -3.5z" />
    <glyph glyph-name="q" unicode="q" horiz-adv-x="618" 
d="M479 70c-21.333 -26 -47.833 -45.833 -79.5 -59.5s-67.167 -20.5 -106.5 -20.5c-158.667 0 -238 93 -238 279c0 91.333 22.833 161 68.5 209s111.167 72 196.5 72c17.333 0 35.833 -0.5 55.5 -1.5s39 -2.33301 58 -4s37 -3.66699 54 -6s31.5 -4.83301 43.5 -7.5v-751h-52
v290zM300 38c24.667 0 47.832 3.50098 69.499 10.501s40.5 16.5 56.5 28.5s28.5 26.167 37.5 42.5s13.5 34.166 13.5 53.499v319c-30 3.33301 -58 6 -84 8s-50.667 3 -74 3c-138.667 0 -208 -77.667 -208 -233c0 -81.333 14.833 -140.333 44.5 -177s77.834 -55 144.501 -55z
" />
    <glyph glyph-name="r" unicode="r" horiz-adv-x="388" 
d="M87 540h44.002l5 -76h4l68.5 32.5c20.333 9.66699 39.166 18.167 56.499 25.5s33.333 13.333 48 18s29 7.66699 43 9h19v-53h-18c-30.667 -3.33301 -64.334 -12.5 -101.001 -27.5s-75 -32.167 -115 -51.5v-417h-54v540z" />
    <glyph glyph-name="s" unicode="s" horiz-adv-x="474" 
d="M231 -10c-11.333 0 -22.667 0.333984 -34 1.00098s-24 2 -38 4s-29.667 4.5 -47 7.5s-37.666 6.83301 -60.999 11.5v48c33.333 -8 64.833 -14.333 94.5 -19s57.834 -7 84.501 -7c46 0 81.167 9.16699 105.5 27.5s36.5 44.5 36.5 78.5c0 19.333 -3.5 35.333 -10.5 48
s-16.5 23.167 -28.5 31.5s-25.833 14.833 -41.5 19.5s-32.5 8.66699 -50.5 12c-21.333 4 -42.833 8.66699 -64.5 14s-41.167 13.333 -58.5 24s-31.5 25.167 -42.5 43.5s-16.5 42.5 -16.5 72.5c0 46 17.167 81.833 51.5 107.5s81.833 38.5 142.5 38.5
c10.667 0 20.834 -0.333008 30.501 -1s20.167 -1.66699 31.5 -3s24.333 -3.33301 39 -6s32 -6 52 -10l-4 -49c-34.667 7.33301 -62.834 12.666 -84.501 15.999s-42.5 5 -62.5 5c-46 0 -81.167 -8.33301 -105.5 -25s-36.5 -41 -36.5 -73c0 -19.333 3.83301 -35 11.5 -47
s18.167 -21.833 31.5 -29.5s28.666 -13.834 45.999 -18.501s35.666 -9 54.999 -13c22 -4.66699 43.167 -10.167 63.5 -16.5s38.333 -15.166 54 -26.499s28.167 -26 37.5 -44s14 -41 14 -69c0 -48 -17 -85.5 -51 -112.5s-82 -40.5 -144 -40.5z" />
    <glyph glyph-name="t" unicode="t" horiz-adv-x="397" 
d="M287 -8c-96.667 0 -145 48.333 -145 145v353h-125v50h127l8 124l44 7v-131h177v-50h-177v-342c0 -72.667 34.667 -109 104 -109c24.667 0 52 4.33301 82 13v-47c-16.667 -4.66699 -33 -8 -49 -10s-31.333 -3 -46 -3z" />
    <glyph glyph-name="u" unicode="u" horiz-adv-x="621" 
d="M215 -10c-88 0 -132 49.666 -132 148.999v401h54v-381c0 -42 7.33301 -72.333 22 -91s39 -28 73 -28c40 0 80 7.66699 120 23s82.667 33 128 53v424h54v-540h-44l-5 70h-4l-85.5 -36c-23.667 -10 -45.167 -18.167 -64.5 -24.5s-38 -11.166 -56 -14.499s-38 -5 -60 -5z
" />
    <glyph glyph-name="v" unicode="v" horiz-adv-x="555" 
d="M26 529v11h54l171 -429l23 -70h7l24 70l171 429h54v-11l-214 -529h-77z" />
    <glyph glyph-name="w" unicode="w" horiz-adv-x="809" 
d="M30 532v8h53l117 -401l21 -83h5l23 83l125 401h58l131 -401l25 -83h5l20 83l110 401h53v-8l-151 -532h-65l-132 399l-22 81h-5l-21 -81l-125 -399h-65z" />
    <glyph glyph-name="x" unicode="x" horiz-adv-x="552" 
d="M18 13l221 268l-209 252v7h59l146 -175l40 -53h5l40 53l142 175h60v-7l-209 -255l221 -265v-13h-56l-154 186l-47 60h-5l-45 -60l-154 -186h-55v13z" />
    <glyph glyph-name="y" unicode="y" horiz-adv-x="570" 
d="M165 -209l-1 9l91 204l-232 527v9h57l177 -410l24 -66h5l26 66l184 410h55v-9l-340 -751z" />
    <glyph glyph-name="z" unicode="z" horiz-adv-x="490" 
d="M41 40l321 447v5h-311v48h389v-34l-323 -452v-5h333v-48h-409v39z" />
    <glyph glyph-name="braceleft" unicode="{" horiz-adv-x="371" 
d="M41 381c23.333 0 42.3301 9.1709 56.9971 27.5039s22 45.833 22 82.5v250c0 46 8 78.667 24 98s44 29 84 29c6 0 14.333 -0.166992 25 -0.5s21.5 -0.833008 32.5 -1.5s20.833 -1.16699 29.5 -1.5s14.667 -0.833008 18 -1.5v-40h-119c-16 0 -27.5 -3.33301 -34.5 -10
s-10.5 -17.334 -10.5 -32.001v-302c0 -31.333 -6.66699 -58.833 -20 -82.5s-32.666 -37.834 -57.999 -42.501c12.667 -2 23.834 -6.5 33.501 -13.5s17.834 -16 24.501 -27s11.667 -23.5 15 -37.5s5 -28.667 5 -44v-305c0 -14.667 3.5 -25.334 10.5 -32.001
s18.5 -10 34.5 -10h119v-40c-3.33301 -0.666992 -9.33301 -1.33398 -18 -2.00098s-18.167 -1.16699 -28.5 -1.5l-31.5 -1c-10.667 -0.333008 -19 -0.5 -25 -0.5c-40 0 -68.333 9.66699 -85 29s-25 52 -25 98v253c0 36.667 -7.33301 64 -22 82s-33.667 27 -57 27v52z" />
    <glyph glyph-name="bar" unicode="|" horiz-adv-x="247" 
d="M150 808v-1028h-52v1028h52z" />
    <glyph glyph-name="braceright" unicode="}" horiz-adv-x="371" 
d="M330 329c-23.333 0 -42.3359 -9.00391 -57.0029 -27.0039s-22 -45.333 -22 -82v-253c0 -46 -8.16699 -78.667 -24.5 -98s-44.5 -29 -84.5 -29c-6 0 -14.333 0.166992 -25 0.5l-32 1c-10.667 0.333008 -20.5 0.833008 -29.5 1.5s-14.833 1.33398 -17.5 2.00098v40h119
c16 0 27.5 3.33301 34.5 10s10.5 17.334 10.5 32.001v305c0 15.333 1.66699 30 5 44s8.33301 26.5 15 37.5s14.834 20 24.501 27s20.834 11.5 33.501 13.5c-25.333 4.66699 -44.666 18.834 -57.999 42.501s-20 51.167 -20 82.5v302c0 14.667 -3.5 25.334 -10.5 32.001
s-18.5 10 -34.5 10h-119v40c2.66699 0.666992 8.5 1.16699 17.5 1.5s19 0.833008 30 1.5s21.833 1.16699 32.5 1.5s19 0.5 25 0.5c40 0 68 -9.66699 84 -29s24 -52 24 -98v-250c0 -36.667 7.33301 -64.167 22 -82.5s33.667 -27.5 57 -27.5v-52z" />
    <glyph glyph-name="asciitilde" unicode="~" horiz-adv-x="668" 
d="M76 293c16.667 16 31.998 29.333 45.998 40s27.5 19.334 40.5 26.001s26 11.334 39 14.001s26.833 4 41.5 4c20.667 0 38.834 -3.83301 54.501 -11.5s30.667 -16.334 45 -26.001s28.666 -18.334 42.999 -26.001s30.166 -11.5 47.499 -11.5c24 0 47.833 6.16699 71.5 18.5
s40.5 27.5 50.5 45.5l38 -22c-8 -12 -17.833 -23.5 -29.5 -34.5s-24.5 -20.667 -38.5 -29s-28.667 -15 -44 -20s-30.666 -7.5 -45.999 -7.5c-23.333 0 -43.666 4 -60.999 12s-33.166 16.667 -47.499 26l-41 26c-13 8 -26.5 12 -40.5 12c-22 0 -43.5 -5.16699 -64.5 -15.5
s-45.833 -27.833 -74.5 -52.5z" />
    <glyph glyph-name="uni00A0" unicode="&#xa0;" horiz-adv-x="259" 
 />
    <glyph glyph-name="exclamdown" unicode="&#xa1;" horiz-adv-x="233" 
d="M120 536c11.333 0 20.5 -3.33301 27.5 -10s10.5 -15.667 10.5 -27s-3.5 -20.333 -10.5 -27s-16.167 -10 -27.5 -10c-24.667 0 -37 12.333 -37 37s12.333 37 37 37zM98 380h36v-14l9 -556v-10h-53v10l8 556v14z" />
    <glyph glyph-name="cent" unicode="&#xa2;" horiz-adv-x="508" 
d="M279 -7c-148 14 -221.998 105.999 -221.998 275.999c0 171.333 74 264 222 278v113h45v-111c17.333 -0.666992 36.666 -2.16699 57.999 -4.5s40.666 -5.5 57.999 -9.5v-50c-35.333 10 -73.333 15 -114 15c-142 0 -213 -77 -213 -231c0 -80 16.667 -138.167 50 -174.5
s87 -54.5 161 -54.5c21.333 0 40.666 0.833008 57.999 2.5s36.666 4.83398 57.999 9.50098v-47c-13.333 -4 -30.666 -7.16699 -51.999 -9.5s-42.666 -3.83301 -63.999 -4.5v-111h-45v113z" />
    <glyph glyph-name="sterling" unicode="&#xa3;" horiz-adv-x="650" 
d="M56 391h168.003v135c0 74 15.667 129 47 165s83.666 54 156.999 54c23.333 0 48.666 -2.33301 75.999 -7s57.666 -12 90.999 -22l-10 -47c-61.333 17.333 -112.333 26 -153 26c-56.667 0 -96.5 -13.167 -119.5 -39.5s-34.5 -69.5 -34.5 -129.5v-135h229v-48h-229v-292
h303v-51h-525v51h168v292h-168v48z" />
    <glyph glyph-name="currency" unicode="&#xa4;" horiz-adv-x="639" 
d="M68 154l54.999 52.998l54 41c-26.667 32 -40 72.667 -40 122c0 48.667 13.333 89 40 121l-54 42l-55 53l35 36l54 -56l40 -54c15.333 12.667 33.333 22.5 54 29.5s43.334 10.5 68.001 10.5c24 0 46.167 -3.5 66.5 -10.5s38.166 -17.167 53.499 -30.5l43 55l54 56l35 -36
l-55 -53l-56 -43c13.333 -15.333 23.5 -33.166 30.5 -53.499s10.5 -42.5 10.5 -66.5c0 -24.667 -3.5 -47.167 -10.5 -67.5s-16.833 -38.166 -29.5 -53.499l55 -42l55 -53l-35 -36l-54 56l-41 54c-31.333 -27.333 -71.666 -41 -120.999 -41s-90 13.333 -122 40l-41 -53
l-54 -56zM180.999 369.998c0 -45.333 12.667 -80.332 38 -104.999s59 -37 101 -37c41.333 0 74.5 12.167 99.5 36.5s37.5 59.5 37.5 105.5c0 42 -11.833 76 -35.5 102s-57.5 39 -101.5 39c-42 0 -75.667 -12.333 -101 -37s-38 -59.334 -38 -104.001z" />
    <glyph glyph-name="yen" unicode="&#xa5;" horiz-adv-x="679" 
d="M93 289h205l-258 451h60l211 -370l31 -62h6l32 62l211 370h60l-258 -451h165v-42h-185v-94h185v-42h-185v-111h-55v111h-225v42h225v94h-225v42z" />
    <glyph glyph-name="brokenbar" unicode="&#xa6;" horiz-adv-x="249" 
d="M99 202h52v-422h-52v422zM99 808h52v-422h-52v422z" />
    <glyph glyph-name="section" unicode="&#xa7;" horiz-adv-x="505" 
d="M246 -10c-11.333 0 -22.833 0.333984 -34.5 1.00098s-24.334 2 -38.001 4s-29.167 4.5 -46.5 7.5s-37.666 6.83301 -60.999 11.5v46c64.667 -16.667 124.334 -25 179.001 -25c46 0 81.167 9.16699 105.5 27.5s36.5 44.833 36.5 79.5c0 19.333 -3.5 35.5 -10.5 48.5
s-16.5 23.5 -28.5 31.5s-26 14.5 -42 19.5s-32.667 9.16699 -50 12.5c-21.333 4 -42.833 8.66699 -64.5 14s-41.167 13.166 -58.5 23.499s-31.5 24.666 -42.5 42.999s-16.5 42.5 -16.5 72.5c0 21.333 4 40.666 12 57.999s19.333 32.333 34 45
c-14 10.667 -25.167 24.334 -33.5 41.001s-12.5 38 -12.5 64c0 46 17.167 81.833 51.5 107.5s81.833 38.5 142.5 38.5c10.667 0 20.834 -0.333008 30.501 -1s20.167 -1.66699 31.5 -3s24.333 -3.33301 39 -6s32 -6 52 -10l-5 -48c-34 8 -62 13.5 -84 16.5
s-42.667 4.5 -62 4.5c-94.667 0 -142 -33 -142 -99c0 -19.333 3.83301 -35 11.5 -47s18.167 -21.833 31.5 -29.5s28.666 -13.834 45.999 -18.501s35.666 -9 54.999 -13c22 -4.66699 43.167 -10.167 63.5 -16.5s38.333 -15.166 54 -26.499s28.167 -26 37.5 -44s14 -41 14 -69
c0 -42 -14 -77 -42 -105c13.333 -11.333 23.666 -25.166 30.999 -41.499s11 -36.833 11 -61.5c0 -48 -17.167 -85.5 -51.5 -112.5s-82.166 -40.5 -143.499 -40.5zM353 270.001c22.667 18.667 34.001 44.667 34.001 78c0 20 -3.5 36.667 -10.5 50s-16.333 24.166 -28 32.499
s-25.334 15 -41.001 20s-31.834 9.16699 -48.501 12.5l-46.5 10.5c-15.667 3.66699 -30.167 8.16699 -43.5 13.5c-27.333 -16.667 -41 -42.667 -41 -78c0 -20 3.83301 -36.167 11.5 -48.5s17.834 -22.5 30.501 -30.5s27.5 -14.5 44.5 -19.5s34.5 -9.5 52.5 -13.5
c14 -3.33301 28.667 -7.16602 44 -11.499s29.333 -9.5 42 -15.5z" />
    <glyph glyph-name="dieresis" unicode="&#xa8;" horiz-adv-x="484" 
d="M110 669c-25.333 0 -38 12.999 -38 38.999c0 24.667 12.667 37 38 37c11.333 0 20.666 -3 27.999 -9s11 -15.333 11 -28c0 -13.333 -3.66699 -23.166 -11 -29.499s-16.666 -9.5 -27.999 -9.5zM356 668.999c-25.333 0 -38 12.999 -38 38.999c0 24.667 12.667 37 38 37
c11.333 0 20.666 -3 27.999 -9s11 -15.333 11 -28c0 -13.333 -3.66699 -23.166 -11 -29.499s-16.666 -9.5 -27.999 -9.5z" />
    <glyph glyph-name="copyright" unicode="&#xa9;" horiz-adv-x="862" 
d="M447 163c-56 0 -100.666 16.667 -133.999 50s-50 84 -50 152c0 69.333 16.833 121.166 50.5 155.499s78.167 51.5 133.5 51.5c14.667 0 29 -0.833008 43 -2.5s27.667 -3.83398 41 -6.50098v-42c-12.667 2.66699 -26 4.83398 -40 6.50098s-27.667 2.5 -41 2.5
c-44 0 -78.667 -13.5 -104 -40.5s-38 -68.167 -38 -123.5s13 -96.166 39 -122.499s60 -39.5 102 -39.5c13.333 0 27.166 1 41.499 3s28.5 4.33301 42.5 7v-40c-27.333 -7.33301 -56 -11 -86 -11zM431.001 -11c-56 0 -106.833 9.16699 -152.5 27.5
s-84.667 44.166 -117 77.499s-57.5 73.333 -75.5 120s-27 98.667 -27 156s9 109.333 27 156s43.167 86.667 75.5 120s71.333 59.166 117 77.499s96.5 27.5 152.5 27.5s106.833 -9.16699 152.5 -27.5s84.667 -44.166 117 -77.499s57.5 -73.333 75.5 -120s27 -98.667 27 -156
s-9 -109.333 -27 -156s-43.167 -86.667 -75.5 -120s-71.333 -59.166 -117 -77.499s-96.5 -27.5 -152.5 -27.5zM431.001 30c50 0 95.333 8.16699 136 24.5s75.334 39.333 104.001 69s50.834 65.334 66.501 107.001s23.5 88.167 23.5 139.5s-7.83301 98 -23.5 140
s-37.834 77.833 -66.501 107.5s-63.334 52.667 -104.001 69s-86 24.5 -136 24.5s-95.167 -8.16699 -135.5 -24.5s-75 -39.333 -104 -69s-51.333 -65.5 -67 -107.5s-23.5 -88.667 -23.5 -140s7.83301 -97.833 23.5 -139.5s38 -77.334 67 -107.001s63.667 -52.667 104 -69
s85.5 -24.5 135.5 -24.5z" />
    <glyph glyph-name="ordfeminine" unicode="&#xaa;" horiz-adv-x="449" 
d="M174 348c-22.667 0 -41.6641 2.49805 -56.9971 7.49805s-27.833 12 -37.5 21s-16.5 19.667 -20.5 32s-6 26.166 -6 41.499c0 32.667 14.167 58.834 42.5 78.501s69.833 32.167 124.5 37.5l104 9v39c0 30.667 -8.33301 52.334 -25 65.001s-46.667 19 -90 19
c-10.667 0 -24.334 -0.666992 -41.001 -2s-39.334 -4 -68.001 -8l-8 45c30 5.33301 55.5 8.83301 76.5 10.5s39.167 2.5 54.5 2.5c54 0 92.333 -9.83301 115 -29.5s34 -51.167 34 -94.5v-270h-42l-6 47h-4c-30.667 -17.333 -57.334 -30.166 -80.001 -38.499
s-44.667 -12.5 -66 -12.5zM181.003 390.998c18.667 0 39.166 3.99902 61.499 11.999s49.5 20.333 81.5 37v95l-56 -3c-31.333 -2 -57.333 -5.5 -78 -10.5s-37.167 -11.167 -49.5 -18.5s-21.166 -16.166 -26.499 -26.499s-8 -21.5 -8 -33.5c0 -21.333 6.5 -35.333 19.5 -42
s31.5 -10 55.5 -10z" />
    <glyph glyph-name="guillemotleft" unicode="&#xab;" horiz-adv-x="617" 
d="M37 268v4l208 238h61l-208 -238v-4l208 -238h-61zM294 268v4l208 238h61l-208 -238v-4l208 -238h-61z" />
    <glyph glyph-name="logicalnot" unicode="&#xac;" horiz-adv-x="823" 
d="M75 423h665v-305h-53v256h-612v49z" />
    <glyph glyph-name="uni00AD" unicode="&#xad;" horiz-adv-x="476" 
d="M76 305h323v-50h-323v50z" />
    <glyph glyph-name="registered" unicode="&#xae;" horiz-adv-x="742" 
d="M258 621c18 2 34.668 3.66699 50.001 5s29.666 2 42.999 2c54 0 93.5 -8.66699 118.5 -26s37.5 -45 37.5 -83c0 -52 -25.333 -85.333 -76 -100l-1 -4l90 -136h-46l-84 131h-93v-131h-39v342zM355.001 445c75.333 0 112.998 24.667 112.998 74
c0 25.333 -8.83301 43.833 -26.5 55.5s-46.5 17.5 -86.5 17.5c-8 0 -16.667 -0.333008 -26 -1s-20 -1.66699 -32 -3v-141c6.66699 -0.666992 15.334 -1.16699 26.001 -1.5s21.334 -0.5 32.001 -0.5zM369.999 139c-44 0 -84.833 7.66699 -122.5 23s-70 36.5 -97 63.5
s-48.167 59.333 -63.5 97s-23 78.5 -23 122.5c0 44.667 7.66699 85.834 23 123.501s36.5 70.167 63.5 97.5s59.333 48.666 97 63.999s78.5 23 122.5 23c44.667 0 85.834 -7.66699 123.501 -23s70.167 -36.666 97.5 -63.999s48.666 -59.833 63.999 -97.5
s23 -78.834 23 -123.501c0 -44 -7.66699 -84.833 -23 -122.5s-36.666 -70 -63.999 -97s-59.833 -48.167 -97.5 -63.5s-78.834 -23 -123.501 -23zM369.999 177c39.333 0 75.5 6.66699 108.5 20s61.333 31.833 85 55.5s42.167 51.834 55.5 84.501s20 68.667 20 108
c0 38.667 -6.66699 74.5 -20 107.5s-31.833 61.5 -55.5 85.5s-52 42.833 -85 56.5s-69.167 20.5 -108.5 20.5s-75.333 -6.83301 -108 -20.5s-60.667 -32.5 -84 -56.5s-41.666 -52.5 -54.999 -85.5s-20 -68.833 -20 -107.5c0 -39.333 6.66699 -75.333 20 -108
s31.666 -60.834 54.999 -84.501s51.333 -42.167 84 -55.5s68.667 -20 108 -20z" />
    <glyph glyph-name="macron" unicode="&#xaf;" horiz-adv-x="490" 
d="M72 698h316v-46h-316v46z" />
    <glyph glyph-name="degree" unicode="&#xb0;" horiz-adv-x="479" 
d="M240 379c-26 0 -50.333 4.66699 -73 14s-42.5 22.333 -59.5 39s-30.333 36 -40 58s-14.5 45.667 -14.5 71s4.83301 49 14.5 71s23 41.333 40 58s36.833 29.667 59.5 39s47 14 73 14s50.333 -4.66699 73 -14s42.5 -22.333 59.5 -39s30.333 -36 40 -58
s14.5 -45.667 14.5 -71s-4.83301 -49 -14.5 -71s-23 -41.333 -40 -58s-36.833 -29.667 -59.5 -39s-47 -14 -73 -14zM240 421c20 0 38.667 3.66699 56 11s32.333 17.166 45 29.499s22.667 27 30 44s11 35.5 11 55.5s-3.66699 38.5 -11 55.5s-17.333 31.667 -30 44
s-27.667 22.166 -45 29.499s-36 11 -56 11s-38.667 -3.66699 -56 -11s-32.333 -17.166 -45 -29.499s-22.667 -27 -30 -44s-11 -35.5 -11 -55.5s3.66699 -38.5 11 -55.5s17.333 -31.667 30 -44s27.667 -22.166 45 -29.499s36 -11 56 -11z" />
    <glyph glyph-name="plusminus" unicode="&#xb1;" horiz-adv-x="542" 
d="M84 451h165v173h44v-173h164v-44h-164v-172h-44v172h-165v44zM84 149h373v-44h-373v44z" />
    <glyph glyph-name="twosuperior" unicode="&#xb2;" horiz-adv-x="435" 
d="M47 376c0 21.333 2.83105 41 8.49805 59s15 35 28 51s29.833 31.5 50.5 46.5s46 30.167 76 45.5c22.667 12 41.667 23.167 57 33.5s27.833 20.5 37.5 30.5s16.5 20.167 20.5 30.5s6 21.5 6 33.5c0 65.333 -39.667 98 -119 98c-38.667 0 -85.667 -6.33301 -141 -19l-8 46
c29.333 7.33301 56.333 12.5 81 15.5s48.667 4.5 72 4.5c110 0 165 -47.667 165 -143c0 -17.333 -2.5 -33.333 -7.5 -48s-13 -28.5 -24 -41.5s-25.667 -26 -44 -39s-40.833 -26.5 -67.5 -40.5c-25.333 -13.333 -46.666 -26 -63.999 -38s-31.166 -24 -41.499 -36
s-17.833 -24.5 -22.5 -37.5s-7 -27.5 -7 -43.5v-36h281v-45h-337v73z" />
    <glyph glyph-name="threesuperior" unicode="&#xb3;" horiz-adv-x="415" 
d="M167 293c-18 0 -36.833 1.00098 -56.5 3.00098s-39.167 4.66699 -58.5 8v45h8c6 -1.33301 13.333 -2.5 22 -3.5l27 -3c9.33301 -1 18.5 -1.66699 27.5 -2s17.167 -0.5 24.5 -0.5c50 0 87.833 10 113.5 30s38.5 49 38.5 87c0 66 -44.667 99 -134 99h-64v42h63
c80 0 120 34.333 120 103c0 70.667 -44 106 -132 106c-11.333 0 -26.333 -0.833008 -45 -2.5s-39 -4.16699 -61 -7.5h-8v45c17.333 4 36.333 7 57 9s40.667 3 60 3c58 0 102.5 -13.333 133.5 -40s46.5 -64.334 46.5 -113.001c0 -30 -6.5 -55.167 -19.5 -75.5
s-31.167 -35.5 -54.5 -45.5c58.667 -17.333 88 -60.333 88 -129c0 -51.333 -16.667 -90.5 -50 -117.5s-82 -40.5 -146 -40.5z" />
    <glyph glyph-name="acute" unicode="&#xb4;" horiz-adv-x="239" 
d="M54 616l73 183h56l-91 -189z" />
    <glyph glyph-name="mu" unicode="&#xb5;" horiz-adv-x="647" 
d="M96 540l53.001 -0.000976562v-393c0 -38 7.83301 -65.667 23.5 -83s39.167 -26 70.5 -26c20 0 39.833 2 59.5 6s39.5 9.33301 59.5 16s40.667 14.667 62 24l69 29v427h54v-540h-44l-6 70h-4l-85 -36c-23.333 -10 -44.833 -18.167 -64.5 -24.5
s-38.334 -11.166 -56.001 -14.499s-37.5 -5 -59.5 -5c-32 0 -58.333 6.66699 -79 20v-230h-53v760z" />
    <glyph glyph-name="paragraph" unicode="&#xb6;" horiz-adv-x="607" 
d="M397 0l-39.998 -0.00390625v266c-7.33301 -0.666992 -15.833 -1 -25.5 -1h-24.5c-40 0 -76.167 4.16699 -108.5 12.5s-60 21.833 -83 40.5s-40.667 43.334 -53 74.001s-18.5 68.334 -18.5 113.001s6.16699 82.334 18.5 113.001s29.833 55.334 52.5 74.001
s50 32.167 82 40.5s68 12.5 108 12.5c15.333 0 30.166 -0.833008 44.499 -2.5s30.166 -4.16699 47.499 -7.5v-735zM500.002 -0.00390625h-44v735h44v-735z" />
    <glyph glyph-name="periodcentered" unicode="&#xb7;" horiz-adv-x="235" 
d="M117 328c-13.333 0 -23.666 3.33105 -30.999 9.99805s-11 17.334 -11 32.001s3.66699 25.334 11 32.001s17.666 10 30.999 10c12 0 22.167 -3.16699 30.5 -9.5s12.5 -17.166 12.5 -32.499c0 -14.667 -4.16699 -25.334 -12.5 -32.001s-18.5 -10 -30.5 -10z" />
    <glyph glyph-name="cedilla" unicode="&#xb8;" horiz-adv-x="322" 
d="M125 -220c-12.667 0 -26.498 1 -41.498 3s-29.833 5 -44.5 9v44c14.667 -4 27.334 -6.83301 38.001 -8.5s21.667 -2.5 33 -2.5c32 0 54.5 5.5 67.5 16.5s19.5 29.5 19.5 55.5c0 8 -0.666992 15.833 -2 23.5s-3.83301 15.834 -7.5 24.501s-8.33398 18.5 -14.001 29.5
s-12.834 23.833 -21.501 38.5h49c9.33301 -16.667 16.833 -30.834 22.5 -42.501s10.167 -21.667 13.5 -30s5.5 -16 6.5 -23s1.5 -14.5 1.5 -22.5c0 -37.333 -10.333 -65.833 -31 -85.5s-50.334 -29.5 -89.001 -29.5z" />
    <glyph glyph-name="onesuperior" unicode="&#xb9;" horiz-adv-x="320" 
d="M182 786l-139 -71h-9l-6 29v7l167 95h36v-546h-49v486z" />
    <glyph glyph-name="ordmasculine" unicode="&#xba;" horiz-adv-x="487" 
d="M243 389c18.667 0 36.334 2.66699 53.001 8s31.167 14.166 43.5 26.499s22 28.5 29 48.5s10.5 44.667 10.5 74c0 30 -3.5 55 -10.5 75s-16.667 36 -29 48s-26.833 20.5 -43.5 25.5s-34.334 7.5 -53.001 7.5s-36.167 -2.5 -52.5 -7.5s-30.666 -13.5 -42.999 -25.5
s-22.166 -28 -29.499 -48s-11 -45 -11 -75c0 -29.333 3.66699 -54 11 -74s17.166 -36.167 29.499 -48.5s26.666 -21.166 42.999 -26.499s33.833 -8 52.5 -8zM243 345c-57.333 0 -102.5 16.5 -135.5 49.5s-49.5 83.5 -49.5 151.5s16.5 118.5 49.5 151.5
s78.167 49.5 135.5 49.5c58 0 103.667 -16.5 137 -49.5s50 -83.5 50 -151.5s-16.667 -118.5 -50 -151.5s-79 -49.5 -137 -49.5z" />
    <glyph glyph-name="guillemotright" unicode="&#xbb;" horiz-adv-x="617" 
d="M115 30h-61l208 238v4l-208 238h61l208 -238v-4zM372 30h-61l208 238v4l-208 238h61l208 -238v-4z" />
    <glyph glyph-name="onequarter" unicode="&#xbc;" horiz-adv-x="966" 
d="M794 135h-259l-15 31l186 387l7 1l35 -9l2 -10l-170 -355h215l13 190h35v-190h90v-45h-90v-135h-49v135zM587 740h54l-373 -740h-55zM186 686l-139 -71h-9l-6 29v7l167 95h36v-546h-49v486z" />
    <glyph glyph-name="onehalf" unicode="&#xbd;" horiz-adv-x="1004" 
d="M610 76c0 21.333 2.83105 41 8.49805 59s15 35 28 51s29.833 31.5 50.5 46.5s46 30.167 76 45.5c22.667 12 41.667 23.167 57 33.5s27.833 20.5 37.5 30.5s16.5 20.167 20.5 30.5s6 21.5 6 33.5c0 65.333 -39.667 98 -119 98c-39.333 0 -86.333 -6.33301 -141 -19l-8 46
c28.667 6.66699 55.5 11.667 80.5 15s49.167 5 72.5 5c110 0 165 -47.667 165 -143c0 -17.333 -2.5 -33.333 -7.5 -48s-13 -28.5 -24 -41.5s-25.667 -26 -44 -39s-40.833 -26.5 -67.5 -40.5c-25.333 -13.333 -46.666 -26 -63.999 -38s-31.166 -24 -41.499 -36
s-17.833 -24.5 -22.5 -37.5s-7 -27.5 -7 -43.5v-36h281v-45h-337v73zM586.998 740h54l-373 -740h-55zM185.998 686l-139 -71h-9l-6 29v7l167 95h36v-546h-49v486z" />
    <glyph glyph-name="threequarters" unicode="&#xbe;" horiz-adv-x="1046" 
d="M180 193c-18 0 -36.833 1.00098 -56.5 3.00098s-39.167 4.66699 -58.5 8v45h8c6 -1.33301 13.333 -2.5 22 -3.5l27 -3c9.33301 -1 18.5 -1.66699 27.5 -2s17.167 -0.5 24.5 -0.5c50 0 87.833 10 113.5 30s38.5 49 38.5 87c0 66 -44.667 99 -134 99h-64v42h63
c80 0 120 34.333 120 103c0 70.667 -44 106 -132 106c-11.333 0 -26.333 -0.833008 -45 -2.5s-39 -4.16699 -61 -7.5h-8v45c17.333 4 36.333 7 57 9s40.667 3 60 3c58 0 102.5 -13.333 133.5 -40s46.5 -64.334 46.5 -113.001c0 -30 -6.5 -55.167 -19.5 -75.5
s-31.167 -35.5 -54.5 -45.5c58.667 -17.333 88 -60.333 88 -129c0 -51.333 -16.667 -90.5 -50 -117.5s-82 -40.5 -146 -40.5zM873 135.001h-259l-15 31l186 387l7 1l35 -9l2 -10l-170 -355h215l13 190h35v-190h90v-45h-90v-135h-49v135zM665 740.001h54l-373 -740h-55z" />
    <glyph glyph-name="questiondown" unicode="&#xbf;" horiz-adv-x="446" 
d="M291 364l2.00098 -193.001c-20.667 -5.33301 -42.834 -11.666 -66.501 -18.999s-45.667 -17.666 -66 -30.999s-37.166 -30.333 -50.499 -51s-20 -46.334 -20 -77.001c0 -28.667 4.83301 -52.667 14.5 -72s22 -34.666 37 -45.999s32 -19.5 51 -24.5s38.167 -7.5 57.5 -7.5
c26.667 0 52.5 2.33301 77.5 7s50.167 10.667 75.5 18l12 -45c-24 -8 -50.667 -14.667 -80 -20s-59.333 -8 -90 -8c-25.333 0 -50.333 3.16699 -75 9.5s-46.667 17 -66 32s-35 35.167 -47 60.5s-18 56.666 -18 93.999c0 36 6.5 66.333 19.5 91s29.667 45 50 61
s42.666 28.833 66.999 38.5s47.5 17.5 69.5 23.5v178h46v-19zM267.001 544.999c24 0 36 -12 36 -36c0 -24.667 -12 -37 -36 -37c-25.333 0 -38 12.333 -38 37c0 24 12.667 36 38 36z" />
    <glyph glyph-name="Agrave" unicode="&#xc0;" horiz-adv-x="695" 
d="M10 6l294 734h87l294 -734v-6h-56l-95 238h-373l-95 -238h-56v6zM515 288l-115 287l-50 126h-6l-49 -126l-115 -287h335zM328 804l-90 134h58l77 -120z" />
    <glyph glyph-name="Aacute" unicode="&#xc1;" horiz-adv-x="695" 
d="M10 6l294 734h87l294 -734v-6h-56l-95 238h-373l-95 -238h-56v6zM515 288l-115 287l-50 126h-6l-49 -126l-115 -287h335zM319 811l78 127h58l-90 -134z" />
    <glyph glyph-name="Acircumflex" unicode="&#xc2;" horiz-adv-x="695" 
d="M10 6l294 734h87l294 -734v-6h-56l-95 238h-373l-95 -238h-56v6zM515 288l-115 287l-50 126h-6l-49 -126l-115 -287h335zM189 869l160 73l160 -73v-52l-160 73l-160 -73v52z" />
    <glyph glyph-name="Atilde" unicode="&#xc3;" horiz-adv-x="695" 
d="M10 6l294 734h87l294 -734v-6h-56l-95 238h-373l-95 -238h-56v6zM515 288l-115 287l-50 126h-6l-49 -126l-115 -287h335zM156 867c38 38 78.3311 57 120.998 57c16 0 31 -2.16699 45 -6.5s27.667 -9.16602 41 -14.499s26.5 -10.166 39.5 -14.499s27.167 -6.5 42.5 -6.5
c34 0 66.667 12.667 98 38l24 -26c-18 -18 -38.167 -32 -60.5 -42s-45.166 -15 -68.499 -15c-14 0 -28 2.16699 -42 6.5s-27.833 9.16602 -41.5 14.499s-27.167 10.166 -40.5 14.499s-26.666 6.5 -39.999 6.5c-16 0 -31.667 -2.83301 -47 -8.5s-31 -15.167 -47 -28.5z" />
    <glyph glyph-name="Adieresis" unicode="&#xc4;" horiz-adv-x="695" 
d="M10 6l294 734h87l294 -734v-6h-56l-95 238h-373l-95 -238h-56v6zM515 288l-115 287l-50 126h-6l-49 -126l-115 -287h335zM213 830c-13.333 0 -23.666 3.33105 -30.999 9.99805s-11 17.334 -11 32.001s3.66699 25.167 11 31.5s17.666 9.5 30.999 9.5
c12 0 22 -3.16699 30 -9.5s12 -16.833 12 -31.5c0 -15.333 -4 -26.166 -12 -32.499s-18 -9.5 -30 -9.5zM484 829.998c-13.333 0 -23.666 3.33105 -30.999 9.99805s-11 17.334 -11 32.001s3.66699 25.167 11 31.5s17.666 9.5 30.999 9.5c12.667 0 23 -3.16699 31 -9.5
s12 -16.833 12 -31.5c0 -15.333 -4 -26.166 -12 -32.499s-18.333 -9.5 -31 -9.5z" />
    <glyph glyph-name="Aring" unicode="&#xc5;" horiz-adv-x="695" 
d="M10 6l294 734h87l294 -734v-6h-56l-95 238h-373l-95 -238h-56v6zM515 288l-115 287l-50 126h-6l-49 -126l-115 -287h335zM350 803c-17.333 0 -33.5 2.66699 -48.5 8s-28 12.833 -39 22.5s-19.667 21 -26 34s-9.5 27.167 -9.5 42.5s3.16699 29.666 9.5 42.999
s15 24.833 26 34.5s24 17.167 39 22.5s31.167 8 48.5 8c34.667 0 63.5 -10.167 86.5 -30.5s34.5 -46.166 34.5 -77.499c0 -30.667 -11.5 -56.167 -34.5 -76.5s-51.833 -30.5 -86.5 -30.5zM350 841c25.333 0 45.166 6.16699 59.499 18.5s21.5 29.166 21.5 50.499
c0 22 -7.16699 39.167 -21.5 51.5s-34.166 18.5 -59.499 18.5s-45.333 -6.16699 -60 -18.5s-22 -29.5 -22 -51.5c0 -21.333 7.33301 -38.166 22 -50.499s34.667 -18.5 60 -18.5z" />
    <glyph glyph-name="AE" unicode="&#xc6;" horiz-adv-x="880" 
d="M11 7l320 733h486v-49h-352l13 -291h308v-49h-305l14 -302h332v-49h-386l-10 238h-262l-105 -238h-53v7zM191 288h238l-16 404h-44z" />
    <glyph glyph-name="Ccedilla" unicode="&#xc7;" horiz-adv-x="613" 
d="M313 -220c-12.667 0 -26.498 0.998047 -41.498 2.99805s-29.833 5 -44.5 9v44c14.667 -4 27.334 -6.83301 38.001 -8.5s21.667 -2.5 33 -2.5c32 0 54.5 5.5 67.5 16.5s19.5 29.5 19.5 55.5c0 14.667 -2.33301 28.834 -7 42.501s-13.334 31.5 -26.001 53.5
c-96 6.66699 -168.667 41.667 -218 105s-74 153.333 -74 270c0 125.333 28 220.333 84 285s138 97 246 97c24.667 0 53.667 -2.16699 87 -6.5s64.333 -9.5 93 -15.5v-51c-34.667 7.33301 -67.334 13 -98.001 17s-57 6 -79 6c-90.667 0 -159.667 -28.333 -207 -85
s-71 -138.667 -71 -246c0 -106.667 22.667 -187.834 68 -243.501s112 -83.5 200 -83.5c12 0 26.5 0.666992 43.5 2s34.333 3.16602 52 5.49902s34.5 5 50.5 8s29.667 6.16699 41 9.5v-49c-11.333 -3.33301 -24 -6.33301 -38 -9s-28.667 -5.16699 -44 -7.5
s-30.666 -4.16602 -45.999 -5.49902s-29.333 -2.33301 -42 -3c6.66699 -12.667 12.167 -23.667 16.5 -33s7.66602 -17.666 9.99902 -24.999s4 -14.166 5 -20.499s1.5 -12.833 1.5 -19.5c0 -37.333 -10.333 -65.833 -31 -85.5s-50.334 -29.5 -89.001 -29.5z" />
    <glyph glyph-name="Egrave" unicode="&#xc8;" horiz-adv-x="634" 
d="M322 804l-90 134h58l77 -120zM102 740h465v-49h-411v-290h392v-48h-392v-304h419v-49h-473v740z" />
    <glyph glyph-name="Eacute" unicode="&#xc9;" horiz-adv-x="634" 
d="M307 811l78 127h58l-90 -134zM102 740h465v-49h-411v-290h392v-48h-392v-304h419v-49h-473v740z" />
    <glyph glyph-name="Ecircumflex" unicode="&#xca;" horiz-adv-x="634" 
d="M102 740h465v-49h-411v-290h392v-48h-392v-304h419v-49h-473v740zM180 869l160 73l160 -73v-52l-160 73l-160 -73v52z" />
    <glyph glyph-name="Edieresis" unicode="&#xcb;" horiz-adv-x="634" 
d="M203 830c-13.333 0 -23.666 3.33105 -30.999 9.99805s-11 17.334 -11 32.001s3.66699 25.167 11 31.5s17.666 9.5 30.999 9.5c12 0 22 -3.16699 30 -9.5s12 -16.833 12 -31.5c0 -15.333 -4 -26.166 -12 -32.499s-18 -9.5 -30 -9.5zM474 829.998
c-13.333 0 -23.666 3.33105 -30.999 9.99805s-11 17.334 -11 32.001s3.66699 25.167 11 31.5s17.666 9.5 30.999 9.5c12.667 0 23 -3.16699 31 -9.5s12 -16.833 12 -31.5c0 -15.333 -4 -26.166 -12 -32.499s-18.333 -9.5 -31 -9.5zM102 739.996h465v-49h-411v-290h392v-48
h-392v-304h419v-49h-473v740z" />
    <glyph glyph-name="Igrave" unicode="&#xcc;" horiz-adv-x="258" 
d="M102 740h54v-740h-54v740zM113 804l-90 134h58l77 -120z" />
    <glyph glyph-name="Iacute" unicode="&#xcd;" horiz-adv-x="258" 
d="M102 740h54v-740h-54v740zM100 811l78 127h58l-90 -134z" />
    <glyph glyph-name="Icircumflex" unicode="&#xce;" horiz-adv-x="258" 
d="M102 740h54v-740h-54v740zM-30 869l160 73l160 -73v-52l-160 73l-160 -73v52z" />
    <glyph glyph-name="Idieresis" unicode="&#xcf;" horiz-adv-x="258" 
d="M102 740h54v-740h-54v740zM-6 830c-13.333 0 -23.666 3.33105 -30.999 9.99805s-11 17.334 -11 32.001s3.66699 25.167 11 31.5s17.666 9.5 30.999 9.5c12 0 22 -3.16699 30 -9.5s12 -16.833 12 -31.5c0 -15.333 -4 -26.166 -12 -32.499s-18 -9.5 -30 -9.5zM265 829.998
c-13.333 0 -23.666 3.33105 -30.999 9.99805s-11 17.334 -11 32.001s3.66699 25.167 11 31.5s17.666 9.5 30.999 9.5c12.667 0 23 -3.16699 31 -9.5s12 -16.833 12 -31.5c0 -15.333 -4 -26.166 -12 -32.499s-18.333 -9.5 -31 -9.5z" />
    <glyph glyph-name="Eth" unicode="&#xd0;" horiz-adv-x="762" 
d="M7 393h101v346c12.667 0.666992 28.167 1.66699 46.5 3s37 2.33301 56 3l55 2c17.667 0.666992 32.5 1 44.5 1c134.667 0 233.667 -30.5 297 -91.5s95 -156.167 95 -285.5c0 -130.667 -32 -226.667 -96 -288s-164.333 -92 -301 -92c-45.333 0 -86 1.5 -122 4.5
s-61 7.16699 -75 12.5v337h-101v48zM315 40c114 0 197.834 26.667 251.501 80s80.5 137 80.5 251c0 112.667 -26.833 195.334 -80.5 248.001s-137.834 79 -252.501 79c-10 0 -21.5 -0.166992 -34.5 -0.5s-26.333 -1 -40 -2l-41 -3c-13.667 -1 -25.834 -1.83301 -36.501 -2.5
v-297h222v-48h-222v-294l42 -5.5c12.667 -1.66699 24.834 -2.83398 36.501 -3.50098s23.5 -1.16699 35.5 -1.5s25 -0.5 39 -0.5z" />
    <glyph glyph-name="Ntilde" unicode="&#xd1;" horiz-adv-x="807" 
d="M210 867c38 38 78.3311 57 120.998 57c16 0 31 -2.16699 45 -6.5s27.667 -9.16602 41 -14.499s26.5 -10.166 39.5 -14.499s27.167 -6.5 42.5 -6.5c34 0 66.667 12.667 98 38l24 -26c-18 -18 -38.167 -32 -60.5 -42s-45.166 -15 -68.499 -15c-14 0 -28 2.16699 -42 6.5
s-27.833 9.16602 -41.5 14.499s-27.167 10.166 -40.5 14.499s-26.666 6.5 -39.999 6.5c-16 0 -31.667 -2.83301 -47 -8.5s-31 -15.167 -47 -28.5zM101.998 740h49l433 -565l65 -91h5v656h51v-740h-50l-438 571l-59 83h-5v-654h-51v740z" />
    <glyph glyph-name="Ograve" unicode="&#xd2;" horiz-adv-x="771" 
d="M365 804l-90 134h58l77 -120zM385 -10c-102 0 -181.667 32.333 -239 97s-86 158.667 -86 282c0 62 7.33301 116.667 22 164s36 87 64 119s62 56.333 102 73s85.667 25 137 25s97.166 -8.33301 137.499 -25s74.5 -41 102.5 -73s49.333 -71.667 64 -119s22 -102 22 -164
s-7.33301 -116.5 -22 -163.5s-36 -86.5 -64 -118.5s-62.167 -56.167 -102.5 -72.5s-86.166 -24.5 -137.499 -24.5zM385 39c87.333 0 154.331 28.668 200.998 86.001s70 138.666 70 243.999c0 107.333 -23.333 189.5 -70 246.5s-113.667 85.5 -201 85.5
s-154.166 -28.5 -200.499 -85.5s-69.5 -139.167 -69.5 -246.5c0 -106 23.333 -187.5 70 -244.5s113.334 -85.5 200.001 -85.5z" />
    <glyph glyph-name="Oacute" unicode="&#xd3;" horiz-adv-x="771" 
d="M356 811l78 127h58l-90 -134zM385 -10c-102 0 -181.667 32.333 -239 97s-86 158.667 -86 282c0 62 7.33301 116.667 22 164s36 87 64 119s62 56.333 102 73s85.667 25 137 25s97.166 -8.33301 137.499 -25s74.5 -41 102.5 -73s49.333 -71.667 64 -119s22 -102 22 -164
s-7.33301 -116.5 -22 -163.5s-36 -86.5 -64 -118.5s-62.167 -56.167 -102.5 -72.5s-86.166 -24.5 -137.499 -24.5zM385 39c87.333 0 154.331 28.668 200.998 86.001s70 138.666 70 243.999c0 107.333 -23.333 189.5 -70 246.5s-113.667 85.5 -201 85.5
s-154.166 -28.5 -200.499 -85.5s-69.5 -139.167 -69.5 -246.5c0 -106 23.333 -187.5 70 -244.5s113.334 -85.5 200.001 -85.5z" />
    <glyph glyph-name="Ocircumflex" unicode="&#xd4;" horiz-adv-x="771" 
d="M385 -10c-102 0 -181.667 32.333 -239 97s-86 158.667 -86 282c0 62 7.33301 116.667 22 164s36 87 64 119s62 56.333 102 73s85.667 25 137 25s97.166 -8.33301 137.499 -25s74.5 -41 102.5 -73s49.333 -71.667 64 -119s22 -102 22 -164s-7.33301 -116.5 -22 -163.5
s-36 -86.5 -64 -118.5s-62.167 -56.167 -102.5 -72.5s-86.166 -24.5 -137.499 -24.5zM385 39c87.333 0 154.331 28.668 200.998 86.001s70 138.666 70 243.999c0 107.333 -23.333 189.5 -70 246.5s-113.667 85.5 -201 85.5s-154.166 -28.5 -200.499 -85.5
s-69.5 -139.167 -69.5 -246.5c0 -106 23.333 -187.5 70 -244.5s113.334 -85.5 200.001 -85.5zM224.998 869.001l160 73l160 -73v-52l-160 73l-160 -73v52z" />
    <glyph glyph-name="Otilde" unicode="&#xd5;" horiz-adv-x="771" 
d="M192 867c38 38 78.3311 57 120.998 57c16 0 31 -2.16699 45 -6.5s27.667 -9.16602 41 -14.499s26.5 -10.166 39.5 -14.499s27.167 -6.5 42.5 -6.5c34 0 66.667 12.667 98 38l24 -26c-18 -18 -38.167 -32 -60.5 -42s-45.166 -15 -68.499 -15c-14 0 -28 2.16699 -42 6.5
s-27.833 9.16602 -41.5 14.499s-27.167 10.166 -40.5 14.499s-26.666 6.5 -39.999 6.5c-16 0 -31.667 -2.83301 -47 -8.5s-31 -15.167 -47 -28.5zM384.998 -10c-102 0 -181.667 32.333 -239 97s-86 158.667 -86 282c0 62 7.33301 116.667 22 164s36 87 64 119
s62 56.333 102 73s85.667 25 137 25s97.166 -8.33301 137.499 -25s74.5 -41 102.5 -73s49.333 -71.667 64 -119s22 -102 22 -164s-7.33301 -116.5 -22 -163.5s-36 -86.5 -64 -118.5s-62.167 -56.167 -102.5 -72.5s-86.166 -24.5 -137.499 -24.5zM384.998 39
c87.333 0 154.331 28.668 200.998 86.001s70 138.666 70 243.999c0 107.333 -23.333 189.5 -70 246.5s-113.667 85.5 -201 85.5s-154.166 -28.5 -200.499 -85.5s-69.5 -139.167 -69.5 -246.5c0 -106 23.333 -187.5 70 -244.5s113.334 -85.5 200.001 -85.5z" />
    <glyph glyph-name="Odieresis" unicode="&#xd6;" horiz-adv-x="771" 
d="M248 830c-13.333 0 -23.666 3.33105 -30.999 9.99805s-11 17.334 -11 32.001s3.66699 25.167 11 31.5s17.666 9.5 30.999 9.5c12 0 22 -3.16699 30 -9.5s12 -16.833 12 -31.5c0 -15.333 -4 -26.166 -12 -32.499s-18 -9.5 -30 -9.5zM519 829.998
c-13.333 0 -23.666 3.33105 -30.999 9.99805s-11 17.334 -11 32.001s3.66699 25.167 11 31.5s17.666 9.5 30.999 9.5c12.667 0 23 -3.16699 31 -9.5s12 -16.833 12 -31.5c0 -15.333 -4 -26.166 -12 -32.499s-18.333 -9.5 -31 -9.5zM385 -10.0039
c-102 0 -181.667 32.333 -239 97s-86 158.667 -86 282c0 62 7.33301 116.667 22 164s36 87 64 119s62 56.333 102 73s85.667 25 137 25s97.166 -8.33301 137.499 -25s74.5 -41 102.5 -73s49.333 -71.667 64 -119s22 -102 22 -164s-7.33301 -116.5 -22 -163.5
s-36 -86.5 -64 -118.5s-62.167 -56.167 -102.5 -72.5s-86.166 -24.5 -137.499 -24.5zM385 38.9961c87.333 0 154.331 28.668 200.998 86.001s70 138.666 70 243.999c0 107.333 -23.333 189.5 -70 246.5s-113.667 85.5 -201 85.5s-154.166 -28.5 -200.499 -85.5
s-69.5 -139.167 -69.5 -246.5c0 -106 23.333 -187.5 70 -244.5s113.334 -85.5 200.001 -85.5z" />
    <glyph glyph-name="multiply" unicode="&#xd7;" horiz-adv-x="470" 
d="M71 238l133 133l-133 133l31 31l133 -133l133 133l32 -31l-134 -133l134 -133l-32 -31l-133 133l-133 -133z" />
    <glyph glyph-name="Oslash" unicode="&#xd8;" horiz-adv-x="770" 
d="M135 99c-50 65.333 -75 155.333 -75 270c0 62 7.33301 116.667 22 164s36 87 64 119s62 56.333 102 73s85.667 25 137 25c89.333 0 161.666 -25 216.999 -75l53 65h56l-79 -97c25.333 -32 44.833 -70.833 58.5 -116.5s20.5 -98.167 20.5 -157.5
c0 -62 -7.33301 -116.5 -22 -163.5s-36 -86.5 -64 -118.5s-62.167 -56.167 -102.5 -72.5s-86.166 -24.5 -137.499 -24.5c-92 0 -165.667 25.667 -221 77l-54 -67h-55zM385 39c87.333 0 154.333 28.6689 201 86.002s70 138.666 70 243.999c0 49.333 -5 93.166 -15 131.499
s-24.667 71.5 -44 99.5l-398 -490c45.333 -47.333 107.333 -71 186 -71zM115 369.002c0 -94.667 18.666 -169.667 55.999 -225l398 490c-46 44.667 -107.333 67 -184 67c-87.333 0 -154.166 -28.5 -200.499 -85.5s-69.5 -139.167 -69.5 -246.5z" />
    <glyph glyph-name="Ugrave" unicode="&#xd9;" horiz-adv-x="774" 
d="M365 804l-90 134h58l77 -120zM387 -10c-50 0 -93.333 5.66699 -130 17s-67.167 29.5 -91.5 54.5s-42.333 57 -54 96s-17.5 86.167 -17.5 141.5v440h54v-434c0 -49.333 5.16699 -90.833 15.5 -124.5s25.5 -61 45.5 -82s44.833 -36.167 74.5 -45.5s64.167 -14 103.5 -14
c38.667 0 73 4.66699 103 14s55 24.5 75 45.5s35.167 48.333 45.5 82s15.5 75.167 15.5 124.5v434h54v-440c0 -55.333 -5.83301 -102.5 -17.5 -141.5s-29.667 -71 -54 -96s-54.833 -43.167 -91.5 -54.5s-80 -17 -130 -17z" />
    <glyph glyph-name="Uacute" unicode="&#xda;" horiz-adv-x="774" 
d="M352 811l78 127h58l-90 -134zM387 -10c-50 0 -93.333 5.66699 -130 17s-67.167 29.5 -91.5 54.5s-42.333 57 -54 96s-17.5 86.167 -17.5 141.5v440h54v-434c0 -49.333 5.16699 -90.833 15.5 -124.5s25.5 -61 45.5 -82s44.833 -36.167 74.5 -45.5s64.167 -14 103.5 -14
c38.667 0 73 4.66699 103 14s55 24.5 75 45.5s35.167 48.333 45.5 82s15.5 75.167 15.5 124.5v434h54v-440c0 -55.333 -5.83301 -102.5 -17.5 -141.5s-29.667 -71 -54 -96s-54.833 -43.167 -91.5 -54.5s-80 -17 -130 -17z" />
    <glyph glyph-name="Ucircumflex" unicode="&#xdb;" horiz-adv-x="774" 
d="M387 -10c-50 0 -93.333 5.66699 -130 17s-67.167 29.5 -91.5 54.5s-42.333 57 -54 96s-17.5 86.167 -17.5 141.5v440h54v-434c0 -49.333 5.16699 -90.833 15.5 -124.5s25.5 -61 45.5 -82s44.833 -36.167 74.5 -45.5s64.167 -14 103.5 -14c38.667 0 73 4.66699 103 14
s55 24.5 75 45.5s35.167 48.333 45.5 82s15.5 75.167 15.5 124.5v434h54v-440c0 -55.333 -5.83301 -102.5 -17.5 -141.5s-29.667 -71 -54 -96s-54.833 -43.167 -91.5 -54.5s-80 -17 -130 -17zM224 869l160 73l160 -73v-52l-160 73l-160 -73v52z" />
    <glyph glyph-name="Udieresis" unicode="&#xdc;" horiz-adv-x="774" 
d="M248 830c-13.333 0 -23.666 3.33105 -30.999 9.99805s-11 17.334 -11 32.001s3.66699 25.167 11 31.5s17.666 9.5 30.999 9.5c12 0 22 -3.16699 30 -9.5s12 -16.833 12 -31.5c0 -15.333 -4 -26.166 -12 -32.499s-18 -9.5 -30 -9.5zM519 829.998
c-13.333 0 -23.666 3.33105 -30.999 9.99805s-11 17.334 -11 32.001s3.66699 25.167 11 31.5s17.666 9.5 30.999 9.5c12.667 0 23 -3.16699 31 -9.5s12 -16.833 12 -31.5c0 -15.333 -4 -26.166 -12 -32.499s-18.333 -9.5 -31 -9.5zM387 -10.0039
c-50 0 -93.333 5.66699 -130 17s-67.167 29.5 -91.5 54.5s-42.333 57 -54 96s-17.5 86.167 -17.5 141.5v440h54v-434c0 -49.333 5.16699 -90.833 15.5 -124.5s25.5 -61 45.5 -82s44.833 -36.167 74.5 -45.5s64.167 -14 103.5 -14c38.667 0 73 4.66699 103 14
s55 24.5 75 45.5s35.167 48.333 45.5 82s15.5 75.167 15.5 124.5v434h54v-440c0 -55.333 -5.83301 -102.5 -17.5 -141.5s-29.667 -71 -54 -96s-54.833 -43.167 -91.5 -54.5s-80 -17 -130 -17z" />
    <glyph glyph-name="Yacute" unicode="&#xdd;" horiz-adv-x="629" 
d="M287 254l-278 486h60l211 -370l31 -62h6l32 62l211 370h60l-278 -486v-254h-55v254zM285 811l78 127h58l-90 -134z" />
    <glyph glyph-name="Thorn" unicode="&#xde;" horiz-adv-x="664" 
d="M102 741l53.9971 0.000976562v-127c21.333 2.66699 42.5 4.66699 63.5 6s41.5 2 61.5 2c116.667 0 202 -20 256 -60s81 -103.333 81 -190c0 -44 -6.33301 -81.833 -19 -113.5s-32.167 -57.5 -58.5 -77.5s-60.166 -34.833 -101.499 -44.5s-91 -14.5 -149 -14.5
c-19.333 0 -39.666 0.666992 -60.999 2s-45.666 3.66602 -72.999 6.99902v-131h-54v741zM290.997 172.001c50 0 92.333 3.49902 127 10.499s62.834 18.5 84.501 34.5s37.334 36.667 47.001 62s14.5 56.333 14.5 93c0 35.333 -5.33301 65.666 -16 90.999
s-27.334 46 -50.001 62s-52 27.667 -88 35s-79 11 -129 11c-20.667 0 -42.834 -0.666992 -66.501 -2s-43.167 -3.66602 -58.5 -6.99902v-379c4.66699 -1.33301 12.167 -2.66602 22.5 -3.99902s21.833 -2.5 34.5 -3.5s26 -1.83301 40 -2.5s26.667 -1 38 -1z" />
    <glyph glyph-name="germandbls" unicode="&#xdf;" horiz-adv-x="639" 
d="M87 594c0 77.333 18.835 132.669 56.502 166.002s93.167 50 166.5 50c74 0 129.667 -17 167 -51s56 -89 56 -165v-88h-104c-46 0 -81.167 -8.5 -105.5 -25.5s-36.5 -41.5 -36.5 -73.5c0 -19.333 3.83301 -35 11.5 -47s18.167 -21.833 31.5 -29.5
s28.666 -13.834 45.999 -18.501s35.666 -9 54.999 -13c22 -4.66699 43.167 -10.167 63.5 -16.5s38.333 -15.166 54 -26.499s28.167 -26 37.5 -44s14 -41 14 -69c0 -48 -17 -85.5 -51 -112.5s-81.667 -40.5 -143 -40.5c-11.333 0 -22.833 0.333008 -34.5 1s-24.5 2 -38.5 4
s-29.667 4.5 -47 7.5s-37.333 6.83301 -60 11.5v46c64.667 -16.667 124 -25 178 -25c46.667 0 82 9.16699 106 27.5s36 44.833 36 79.5c0 19.333 -3.5 35.5 -10.5 48.5s-16.5 23.5 -28.5 31.5s-25.833 14.5 -41.5 19.5s-32.5 9.16699 -50.5 12.5
c-21.333 4 -42.833 8.66699 -64.5 14s-41.167 13.166 -58.5 23.499s-31.5 24.666 -42.5 42.999s-16.5 42.5 -16.5 72.5c0 46 17.167 81.833 51.5 107.5s81.833 38.5 142.5 38.5h52v41c0 60 -13.833 102.667 -41.5 128s-70.167 38 -127.5 38s-99.833 -12.667 -127.5 -38
s-41.5 -68 -41.5 -128v-594h-54v594z" />
    <glyph glyph-name="agrave" unicode="&#xe0;" horiz-adv-x="536" 
d="M192 -5c-96 0 -143.999 44.999 -143.999 134.999c0 52 16.5 91.333 49.5 118s86.833 43.334 161.5 50.001l142 12v48c0 26 -2.5 48 -7.5 66s-13.167 32.5 -24.5 43.5s-26.5 18.833 -45.5 23.5s-42.833 7 -71.5 7c-25.333 0 -50.833 -1.33301 -76.5 -4
s-55.834 -7.33398 -90.501 -14.001l-5 46c36.667 6.66699 68.667 11.334 96 14.001s55 4 83 4c67.333 0 116.833 -14 148.5 -42s47.5 -72.333 47.5 -133v-369h-45l-7 70h-5c-79.333 -50 -148 -75 -206 -75zM204.001 41.999c57.333 0 123 23.667 197 71v158l-129 -12
c-32 -3.33301 -58.833 -7.83301 -80.5 -13.5s-39.167 -13.5 -52.5 -23.5s-22.833 -22.167 -28.5 -36.5s-8.5 -31.833 -8.5 -52.5c0 -60.667 34 -91 102 -91zM244.001 618.999l-93 189h64l73 -179z" />
    <glyph glyph-name="aacute" unicode="&#xe1;" horiz-adv-x="536" 
d="M192 -5c-96 0 -143.999 44.999 -143.999 134.999c0 52 16.5 91.333 49.5 118s86.833 43.334 161.5 50.001l142 12v48c0 26 -2.5 48 -7.5 66s-13.167 32.5 -24.5 43.5s-26.5 18.833 -45.5 23.5s-42.833 7 -71.5 7c-25.333 0 -50.833 -1.33301 -76.5 -4
s-55.834 -7.33398 -90.501 -14.001l-5 46c36.667 6.66699 68.667 11.334 96 14.001s55 4 83 4c67.333 0 116.833 -14 148.5 -42s47.5 -72.333 47.5 -133v-369h-45l-7 70h-5c-79.333 -50 -148 -75 -206 -75zM204.001 41.999c57.333 0 123 23.667 197 71v158l-129 -12
c-32 -3.33301 -58.833 -7.83301 -80.5 -13.5s-39.167 -13.5 -52.5 -23.5s-22.833 -22.167 -28.5 -36.5s-8.5 -31.833 -8.5 -52.5c0 -60.667 34 -91 102 -91zM252.001 615.999l73 183h56l-91 -189z" />
    <glyph glyph-name="acircumflex" unicode="&#xe2;" horiz-adv-x="536" 
d="M192 -5c-96 0 -143.999 44.999 -143.999 134.999c0 52 16.5 91.333 49.5 118s86.833 43.334 161.5 50.001l142 12v48c0 26 -2.5 48 -7.5 66s-13.167 32.5 -24.5 43.5s-26.5 18.833 -45.5 23.5s-42.833 7 -71.5 7c-25.333 0 -50.833 -1.33301 -76.5 -4
s-55.834 -7.33398 -90.501 -14.001l-5 46c36.667 6.66699 68.667 11.334 96 14.001s55 4 83 4c67.333 0 116.833 -14 148.5 -42s47.5 -72.333 47.5 -133v-369h-45l-7 70h-5c-79.333 -50 -148 -75 -206 -75zM204.001 41.999c57.333 0 123 23.667 197 71v158l-129 -12
c-32 -3.33301 -58.833 -7.83301 -80.5 -13.5s-39.167 -13.5 -52.5 -23.5s-22.833 -22.167 -28.5 -36.5s-8.5 -31.833 -8.5 -52.5c0 -60.667 34 -91 102 -91zM110.001 690.999l159 73l160 -73v-52l-160 73l-159 -73v52z" />
    <glyph glyph-name="atilde" unicode="&#xe3;" horiz-adv-x="536" 
d="M192 -5c-96 0 -143.999 44.999 -143.999 134.999c0 52 16.5 91.333 49.5 118s86.833 43.334 161.5 50.001l142 12v48c0 26 -2.5 48 -7.5 66s-13.167 32.5 -24.5 43.5s-26.5 18.833 -45.5 23.5s-42.833 7 -71.5 7c-25.333 0 -50.833 -1.33301 -76.5 -4
s-55.834 -7.33398 -90.501 -14.001l-5 46c36.667 6.66699 68.667 11.334 96 14.001s55 4 83 4c67.333 0 116.833 -14 148.5 -42s47.5 -72.333 47.5 -133v-369h-45l-7 70h-5c-79.333 -50 -148 -75 -206 -75zM204.001 41.999c57.333 0 123 23.667 197 71v158l-129 -12
c-32 -3.33301 -58.833 -7.83301 -80.5 -13.5s-39.167 -13.5 -52.5 -23.5s-22.833 -22.167 -28.5 -36.5s-8.5 -31.833 -8.5 -52.5c0 -60.667 34 -91 102 -91zM64.001 686.999c37.333 38 77.3301 56.998 119.997 56.998c16 0 31 -2.16699 45 -6.5s27.667 -9.16602 41 -14.499
s26.5 -10.166 39.5 -14.499s27.167 -6.5 42.5 -6.5c34 0 66.667 12.333 98 37l24 -25c-18 -18 -38.167 -32.167 -60.5 -42.5s-45.166 -15.5 -68.499 -15.5c-14 0 -28 2.16699 -42 6.5s-27.833 9.33301 -41.5 15s-27.167 10.667 -40.5 15s-26.666 6.5 -39.999 6.5
c-16 0 -31.667 -2.83301 -47 -8.5s-30.666 -15.167 -45.999 -28.5z" />
    <glyph glyph-name="adieresis" unicode="&#xe4;" horiz-adv-x="536" 
d="M192 -5c-96 0 -143.999 44.999 -143.999 134.999c0 52 16.5 91.333 49.5 118s86.833 43.334 161.5 50.001l142 12v48c0 26 -2.5 48 -7.5 66s-13.167 32.5 -24.5 43.5s-26.5 18.833 -45.5 23.5s-42.833 7 -71.5 7c-25.333 0 -50.833 -1.33301 -76.5 -4
s-55.834 -7.33398 -90.501 -14.001l-5 46c36.667 6.66699 68.667 11.334 96 14.001s55 4 83 4c67.333 0 116.833 -14 148.5 -42s47.5 -72.333 47.5 -133v-369h-45l-7 70h-5c-79.333 -50 -148 -75 -206 -75zM204.001 41.999c57.333 0 123 23.667 197 71v158l-129 -12
c-32 -3.33301 -58.833 -7.83301 -80.5 -13.5s-39.167 -13.5 -52.5 -23.5s-22.833 -22.167 -28.5 -36.5s-8.5 -31.833 -8.5 -52.5c0 -60.667 34 -91 102 -91zM146.001 668.999c-25.333 0 -38 12.999 -38 38.999c0 24.667 12.667 37 38 37c11.333 0 20.666 -3 27.999 -9
s11 -15.333 11 -28c0 -13.333 -3.66699 -23.166 -11 -29.499s-16.666 -9.5 -27.999 -9.5zM392.001 668.998c-25.333 0 -38 12.999 -38 38.999c0 24.667 12.667 37 38 37c11.333 0 20.666 -3 27.999 -9s11 -15.333 11 -28c0 -13.333 -3.66699 -23.166 -11 -29.499
s-16.666 -9.5 -27.999 -9.5z" />
    <glyph glyph-name="aring" unicode="&#xe5;" horiz-adv-x="536" 
d="M192 -5c-96 0 -143.999 44.999 -143.999 134.999c0 52 16.5 91.333 49.5 118s86.833 43.334 161.5 50.001l142 12v48c0 26 -2.5 48 -7.5 66s-13.167 32.5 -24.5 43.5s-26.5 18.833 -45.5 23.5s-42.833 7 -71.5 7c-25.333 0 -50.833 -1.33301 -76.5 -4
s-55.834 -7.33398 -90.501 -14.001l-5 46c36.667 6.66699 68.667 11.334 96 14.001s55 4 83 4c67.333 0 116.833 -14 148.5 -42s47.5 -72.333 47.5 -133v-369h-45l-7 70h-5c-79.333 -50 -148 -75 -206 -75zM204.001 41.999c57.333 0 123 23.667 197 71v158l-129 -12
c-32 -3.33301 -58.833 -7.83301 -80.5 -13.5s-39.167 -13.5 -52.5 -23.5s-22.833 -22.167 -28.5 -36.5s-8.5 -31.833 -8.5 -52.5c0 -60.667 34 -91 102 -91zM269.001 602.999c-17.333 0 -33.499 2.66699 -48.499 8s-28 12.833 -39 22.5s-19.667 21 -26 34
s-9.5 27.167 -9.5 42.5c0 31.333 11.667 57.166 35 77.499s52.666 30.5 87.999 30.5c34.667 0 63.5 -10.167 86.5 -30.5s34.5 -46.166 34.5 -77.499c0 -30.667 -11.5 -56.167 -34.5 -76.5s-51.833 -30.5 -86.5 -30.5zM269.002 640.999c25.333 0 45.166 6.16699 59.499 18.5
s21.5 29.166 21.5 50.499c0 22 -7.16699 39.167 -21.5 51.5s-34.166 18.5 -59.499 18.5c-26 0 -46.333 -6.16699 -61 -18.5s-22 -29.5 -22 -51.5c0 -21.333 7.33301 -38.166 22 -50.499s35 -18.5 61 -18.5z" />
    <glyph glyph-name="ae" unicode="&#xe6;" horiz-adv-x="901" 
d="M653 -10c-50 0 -92.4961 8.66504 -127.496 25.998s-62.167 42.333 -81.5 75l-4 1c-29.333 -18 -56 -33.333 -80 -46s-46 -22.667 -66 -30s-38.333 -12.666 -55 -15.999s-32.334 -5 -47.001 -5c-96 0 -144 45 -144 135c0 51.333 16.667 90.333 50 117
s87 43.334 161 50.001l142 12v51c0 26 -2.5 47.667 -7.5 65s-13.333 31.5 -25 42.5s-27 18.833 -46 23.5s-42.5 7 -70.5 7c-25.333 0 -50.833 -1.33301 -76.5 -4s-55.834 -7.33398 -90.501 -14.001l-5 46c36.667 6.66699 68.667 11.334 96 14.001s55 4 83 4
c53.333 0 94.666 -9 123.999 -27s48.333 -45.333 57 -82h5c17.333 36 43 63.833 77 83.5s75.333 29.5 124 29.5c65.333 0 115.166 -20.5 149.499 -61.5s51.5 -100.5 51.5 -178.5c0 -30 -1.33301 -50.333 -4 -61h-387c4 -139.333 72 -209 204 -209
c25.333 0 51.5 2.33301 78.5 7s56.167 12 87.5 22l5 -45c-27.333 -9.33301 -57 -17 -89 -23s-61.667 -9 -89 -9zM795.004 287.998c-1.33301 76.667 -13.833 131.5 -37.5 164.5s-61.167 49.5 -112.5 49.5c-120 0 -183 -71.333 -189 -214h339zM204.004 40.998
c28 0 58.5 5.83398 91.5 17.501s68.167 29.5 105.5 53.5v160l-129 -12c-32 -3.33301 -58.833 -7.83301 -80.5 -13.5s-39.167 -13.5 -52.5 -23.5s-22.833 -22.333 -28.5 -37s-8.5 -32.334 -8.5 -53.001c0 -61.333 34 -92 102 -92z" />
    <glyph glyph-name="ccedilla" unicode="&#xe7;" horiz-adv-x="485" 
d="M235 -220c-12.667 0 -26.4961 0.99707 -41.4961 2.99707s-29.833 5 -44.5 9v44c14.667 -4 27.334 -6.83301 38.001 -8.5s21.667 -2.5 33 -2.5c32 0 54.5 5.5 67.5 16.5s19.5 29.5 19.5 55.5c0 14.667 -2.33301 28.834 -7 42.501s-13.334 31.834 -26.001 54.501
c-146 14 -219 105.667 -219 275c0 186.667 87.667 280 263 280c18 0 38.167 -1.16699 60.5 -3.5s42.166 -5.83301 59.499 -10.5v-50c-35.333 10 -73.333 15 -114 15c-142 0 -213 -77 -213 -231c0 -80 16.667 -138.167 50 -174.5s87 -54.5 161 -54.5
c21.333 0 40.666 0.833008 57.999 2.5s36.666 4.83398 57.999 9.50098v-47c-13.333 -4 -30.5 -7.16699 -51.5 -9.5s-42.167 -3.83301 -63.5 -4.5c12.667 -24.667 21.167 -43.5 25.5 -56.5s6.5 -26.167 6.5 -39.5c0 -37.333 -10.333 -65.833 -31 -85.5
s-50.334 -29.5 -89.001 -29.5z" />
    <glyph glyph-name="egrave" unicode="&#xe8;" horiz-adv-x="555" 
d="M307 -9c-82.667 0 -145.166 22.6699 -187.499 68.0029s-63.5 112.666 -63.5 201.999c0 93.333 20.667 164.666 62 213.999s101.333 74 180 74c66.667 0 117.167 -20.667 151.5 -62s51.5 -101.333 51.5 -180c0 -14 -0.333008 -26.167 -1 -36.5s-1.66699 -18.5 -3 -24.5
h-387c3.33301 -70.667 21.666 -122.834 54.999 -156.501s83.333 -50.5 150 -50.5c25.333 0 51.5 2.33301 78.5 7s55.5 12 85.5 22l5 -45c-26.667 -9.33301 -56 -17 -88 -23s-61.667 -9 -89 -9zM298.001 503.003c-119.333 0 -182 -71.667 -188 -215h340
c-2 76.667 -15 131.667 -39 165s-61.667 50 -113 50zM264.001 619.003l-93 189h64l73 -179z" />
    <glyph glyph-name="eacute" unicode="&#xe9;" horiz-adv-x="555" 
d="M276 616l73 183h56l-91 -189zM307 -9c-82.667 0 -145.166 22.6699 -187.499 68.0029s-63.5 112.666 -63.5 201.999c0 93.333 20.667 164.666 62 213.999s101.333 74 180 74c66.667 0 117.167 -20.667 151.5 -62s51.5 -101.333 51.5 -180
c0 -14 -0.333008 -26.167 -1 -36.5s-1.66699 -18.5 -3 -24.5h-387c3.33301 -70.667 21.666 -122.834 54.999 -156.501s83.333 -50.5 150 -50.5c25.333 0 51.5 2.33301 78.5 7s55.5 12 85.5 22l5 -45c-26.667 -9.33301 -56 -17 -88 -23s-61.667 -9 -89 -9zM298.001 503.003
c-119.333 0 -182 -71.667 -188 -215h340c-2 76.667 -15 131.667 -39 165s-61.667 50 -113 50z" />
    <glyph glyph-name="ecircumflex" unicode="&#xea;" horiz-adv-x="555" 
d="M132 691l159 73l160 -73v-52l-160 73l-159 -73v52zM307 -9c-82.667 0 -145.166 22.6699 -187.499 68.0029s-63.5 112.666 -63.5 201.999c0 93.333 20.667 164.666 62 213.999s101.333 74 180 74c66.667 0 117.167 -20.667 151.5 -62s51.5 -101.333 51.5 -180
c0 -14 -0.333008 -26.167 -1 -36.5s-1.66699 -18.5 -3 -24.5h-387c3.33301 -70.667 21.666 -122.834 54.999 -156.501s83.333 -50.5 150 -50.5c25.333 0 51.5 2.33301 78.5 7s55.5 12 85.5 22l5 -45c-26.667 -9.33301 -56 -17 -88 -23s-61.667 -9 -89 -9zM298.001 503.003
c-119.333 0 -182 -71.667 -188 -215h340c-2 76.667 -15 131.667 -39 165s-61.667 50 -113 50z" />
    <glyph glyph-name="edieresis" unicode="&#xeb;" horiz-adv-x="555" 
d="M167 669c-25.333 0 -38 12.999 -38 38.999c0 24.667 12.667 37 38 37c11.333 0 20.666 -3 27.999 -9s11 -15.333 11 -28c0 -13.333 -3.66699 -23.166 -11 -29.499s-16.666 -9.5 -27.999 -9.5zM413 668.999c-25.333 0 -38 12.999 -38 38.999c0 24.667 12.667 37 38 37
c11.333 0 20.666 -3 27.999 -9s11 -15.333 11 -28c0 -13.333 -3.66699 -23.166 -11 -29.499s-16.666 -9.5 -27.999 -9.5zM307 -9.00195c-82.667 0 -145.166 22.6699 -187.499 68.0029s-63.5 112.666 -63.5 201.999c0 93.333 20.667 164.666 62 213.999s101.333 74 180 74
c66.667 0 117.167 -20.667 151.5 -62s51.5 -101.333 51.5 -180c0 -14 -0.333008 -26.167 -1 -36.5s-1.66699 -18.5 -3 -24.5h-387c3.33301 -70.667 21.666 -122.834 54.999 -156.501s83.333 -50.5 150 -50.5c25.333 0 51.5 2.33301 78.5 7s55.5 12 85.5 22l5 -45
c-26.667 -9.33301 -56 -17 -88 -23s-61.667 -9 -89 -9zM298.001 503.001c-119.333 0 -182 -71.667 -188 -215h340c-2 76.667 -15 131.667 -39 165s-61.667 50 -113 50z" />
    <glyph glyph-name="igrave" unicode="&#xec;" horiz-adv-x="231" 
d="M88 540h54v-540h-54v540zM88 619l-93 189h64l73 -179z" />
    <glyph glyph-name="iacute" unicode="&#xed;" horiz-adv-x="231" 
d="M99 616l73 183h56l-91 -189zM88 540h54v-540h-54v540z" />
    <glyph glyph-name="icircumflex" unicode="&#xee;" horiz-adv-x="231" 
d="M-41 691l157 73l158 -73v-52l-158 73l-157 -73v52zM88 540h54v-540h-54v540z" />
    <glyph glyph-name="idieresis" unicode="&#xef;" horiz-adv-x="231" 
d="M-5 669c-12 0 -21.5 3.16699 -28.5 9.5s-10.5 16.166 -10.5 29.499c0 12.667 3.5 22 10.5 28s16.5 9 28.5 9c11.333 0 20.666 -3 27.999 -9s11 -15.333 11 -28c0 -13.333 -3.66699 -23.166 -11 -29.499s-16.666 -9.5 -27.999 -9.5zM236 669
c-25.333 0 -38 12.999 -38 38.999c0 24.667 12.667 37 38 37c11.333 0 20.666 -3 27.999 -9s11 -15.333 11 -28c0 -13.333 -3.66699 -23.166 -11 -29.499s-16.666 -9.5 -27.999 -9.5zM88 539.999h54v-540h-54v540z" />
    <glyph glyph-name="eth" unicode="&#xf0;" horiz-adv-x="618" 
d="M229 676l168.004 18.001c-24 40 -53 78 -87 114h63c14 -16 27.333 -33 40 -51s24.667 -37 36 -57l152 17v-44l-130 -15c23.333 -48.667 41.833 -102.5 55.5 -161.5s20.5 -123.833 20.5 -194.5c0 -100.667 -21.333 -177.834 -64 -231.501s-103.334 -80.5 -182.001 -80.5
s-139.334 24.167 -182.001 72.5s-64 117.5 -64 207.5s21.167 159.167 63.5 207.5s102.166 72.5 179.499 72.5c47.333 0 86.166 -9.5 116.499 -28.5s55.166 -48.833 74.499 -89.5c-6 40 -14.667 78.167 -26 114.5s-25.666 71.5 -42.999 105.5l-191 -21v45zM301.004 38.001
c126.667 0 189.999 86 189.999 258c0 28 -4.16699 54.5 -12.5 79.5s-20.666 46.833 -36.999 65.5s-36.333 33.5 -60 44.5s-50.5 16.5 -80.5 16.5c-126.667 0 -190 -77.333 -190 -232s63.333 -232 190 -232z" />
    <glyph glyph-name="ntilde" unicode="&#xf1;" horiz-adv-x="621" 
d="M87 540h44.001l5 -65h5c30.667 14 58.167 25.667 82.5 35s46.166 17 65.499 23s37.333 10.333 54 13s33 4 49 4c46.667 0 82.667 -12 108 -36s38 -61.667 38 -113v-401h-54v380c0 44 -8.83301 75.167 -26.5 93.5s-44.5 27.5 -80.5 27.5
c-30.667 0 -66.167 -6.5 -106.5 -19.5s-83.5 -30.5 -129.5 -52.5v-429h-54v540zM110.001 687c37.333 38 77.3301 56.998 119.997 56.998c16 0 31 -2.16699 45 -6.5s27.667 -9.16602 41 -14.499s26.5 -10.166 39.5 -14.499s27.167 -6.5 42.5 -6.5c34 0 66.667 12.333 98 37
l24 -25c-18 -18 -38.167 -32.167 -60.5 -42.5s-45.166 -15.5 -68.499 -15.5c-14 0 -28 2.16699 -42 6.5s-27.833 9.33301 -41.5 15s-27.167 10.667 -40.5 15s-26.666 6.5 -39.999 6.5c-16 0 -31.667 -2.83301 -47 -8.5s-30.666 -15.167 -45.999 -28.5z" />
    <glyph glyph-name="ograve" unicode="&#xf2;" horiz-adv-x="602" 
d="M301 -10c-79.333 0 -140.166 24.167 -182.499 72.5s-63.5 117.5 -63.5 207.5s21.167 159.167 63.5 207.5s103.166 72.5 182.499 72.5s140.166 -24.167 182.499 -72.5s63.5 -117.5 63.5 -207.5s-21.167 -159.167 -63.5 -207.5s-103.166 -72.5 -182.499 -72.5zM301 38
c64.667 0 112.5 19 143.5 57s46.5 96.333 46.5 175s-15.5 137 -46.5 175s-78.833 57 -143.5 57c-126.667 0 -190 -77.333 -190 -232s63.333 -232 190 -232zM272 619l-93 189h64l73 -179z" />
    <glyph glyph-name="oacute" unicode="&#xf3;" horiz-adv-x="602" 
d="M283 616l73 183h56l-91 -189zM301 -10c-79.333 0 -140.166 24.167 -182.499 72.5s-63.5 117.5 -63.5 207.5s21.167 159.167 63.5 207.5s103.166 72.5 182.499 72.5s140.166 -24.167 182.499 -72.5s63.5 -117.5 63.5 -207.5s-21.167 -159.167 -63.5 -207.5
s-103.166 -72.5 -182.499 -72.5zM301 38c64.667 0 112.5 19 143.5 57s46.5 96.333 46.5 175s-15.5 137 -46.5 175s-78.833 57 -143.5 57c-126.667 0 -190 -77.333 -190 -232s63.333 -232 190 -232z" />
    <glyph glyph-name="ocircumflex" unicode="&#xf4;" horiz-adv-x="602" 
d="M141 691l159 73l160 -73v-52l-160 73l-159 -73v52zM301 -10c-79.333 0 -140.166 24.167 -182.499 72.5s-63.5 117.5 -63.5 207.5s21.167 159.167 63.5 207.5s103.166 72.5 182.499 72.5s140.166 -24.167 182.499 -72.5s63.5 -117.5 63.5 -207.5
s-21.167 -159.167 -63.5 -207.5s-103.166 -72.5 -182.499 -72.5zM301 38c64.667 0 112.5 19 143.5 57s46.5 96.333 46.5 175s-15.5 137 -46.5 175s-78.833 57 -143.5 57c-126.667 0 -190 -77.333 -190 -232s63.333 -232 190 -232z" />
    <glyph glyph-name="otilde" unicode="&#xf5;" horiz-adv-x="602" 
d="M301 -10c-79.333 0 -140.166 24.167 -182.499 72.5s-63.5 117.5 -63.5 207.5s21.167 159.167 63.5 207.5s103.166 72.5 182.499 72.5s140.166 -24.167 182.499 -72.5s63.5 -117.5 63.5 -207.5s-21.167 -159.167 -63.5 -207.5s-103.166 -72.5 -182.499 -72.5zM301 38
c64.667 0 112.5 19 143.5 57s46.5 96.333 46.5 175s-15.5 137 -46.5 175s-78.833 57 -143.5 57c-126.667 0 -190 -77.333 -190 -232s63.333 -232 190 -232zM96 687c37.333 38 77.3301 56.998 119.997 56.998c16 0 31 -2.16699 45 -6.5s27.667 -9.16602 41 -14.499
s26.5 -10.166 39.5 -14.499s27.167 -6.5 42.5 -6.5c34 0 66.667 12.333 98 37l24 -25c-18 -18 -38.167 -32.167 -60.5 -42.5s-45.166 -15.5 -68.499 -15.5c-14 0 -28 2.16699 -42 6.5s-27.833 9.33301 -41.5 15s-27.167 10.667 -40.5 15s-26.666 6.5 -39.999 6.5
c-16 0 -31.667 -2.83301 -47 -8.5s-30.666 -15.167 -45.999 -28.5z" />
    <glyph glyph-name="odieresis" unicode="&#xf6;" horiz-adv-x="602" 
d="M177 669c-25.333 0 -38 12.999 -38 38.999c0 24.667 12.667 37 38 37c11.333 0 20.666 -3 27.999 -9s11 -15.333 11 -28c0 -13.333 -3.66699 -23.166 -11 -29.499s-16.666 -9.5 -27.999 -9.5zM423 668.999c-25.333 0 -38 12.999 -38 38.999c0 24.667 12.667 37 38 37
c11.333 0 20.666 -3 27.999 -9s11 -15.333 11 -28c0 -13.333 -3.66699 -23.166 -11 -29.499s-16.666 -9.5 -27.999 -9.5zM301 -10.002c-79.333 0 -140.166 24.167 -182.499 72.5s-63.5 117.5 -63.5 207.5s21.167 159.167 63.5 207.5s103.166 72.5 182.499 72.5
s140.166 -24.167 182.499 -72.5s63.5 -117.5 63.5 -207.5s-21.167 -159.167 -63.5 -207.5s-103.166 -72.5 -182.499 -72.5zM301 37.998c64.667 0 112.5 19 143.5 57s46.5 96.333 46.5 175s-15.5 137 -46.5 175s-78.833 57 -143.5 57c-126.667 0 -190 -77.333 -190 -232
s63.333 -232 190 -232z" />
    <glyph glyph-name="divide" unicode="&#xf7;" horiz-adv-x="528" 
d="M267 179c-11.333 0 -20.166 3.16699 -26.499 9.5s-9.5 15.5 -9.5 27.5c0 11.333 3.16699 20.333 9.5 27s15.166 10 26.499 10s20.333 -3.33301 27 -10s10 -15.667 10 -27c0 -12 -3.33301 -21.167 -10 -27.5s-15.667 -9.5 -27 -9.5zM77 392h375v-44h-375v44zM267 480
c-11.333 0 -20.166 3.16699 -26.499 9.5s-9.5 15.166 -9.5 26.499c0 12 3.16699 21.333 9.5 28s15.166 10 26.499 10s20.333 -3.5 27 -10.5s10 -16.167 10 -27.5s-3.33301 -20.166 -10 -26.499s-15.667 -9.5 -27 -9.5z" />
    <glyph glyph-name="oslash" unicode="&#xf8;" horiz-adv-x="608" 
d="M107 81c-32.667 46.667 -49.001 109.668 -49.001 189.001c0 89.333 21 158.333 63 207s103 73 183 73c36 0 67.833 -5 95.5 -15s51.834 -24.667 72.501 -44l43 49h58l-72 -82c32.667 -46.667 49 -109.334 49 -188.001c0 -89.333 -21 -158.333 -63 -207s-103 -73 -183 -73
c-70 0 -126 19.333 -168 58l-43 -48h-58zM303.999 38.001c66 0 114.333 19.167 145 57.5s46 96.5 46 174.5c0 62 -10 111.667 -30 149l-296 -334c31.333 -31.333 76.333 -47 135 -47zM113.999 270.001c0 -62.667 9.66699 -112 29 -148l296 332
c-31.333 32 -76.333 48 -135 48c-66 0 -114.167 -19.167 -144.5 -57.5s-45.5 -96.5 -45.5 -174.5z" />
    <glyph glyph-name="ugrave" unicode="&#xf9;" horiz-adv-x="621" 
d="M215 -10c-88 0 -132 49.666 -132 148.999v401h54v-381c0 -42 7.33301 -72.333 22 -91s39 -28 73 -28c40 0 80 7.66699 120 23s82.667 33 128 53v424h54v-540h-44l-5 70h-4l-85.5 -36c-23.667 -10 -45.167 -18.167 -64.5 -24.5s-38 -11.166 -56 -14.499s-38 -5 -60 -5z
M276 618.999l-93 189h64l73 -179z" />
    <glyph glyph-name="uacute" unicode="&#xfa;" horiz-adv-x="621" 
d="M286 616l73 183h56l-91 -189zM215 -10c-88 0 -132 49.666 -132 148.999v401h54v-381c0 -42 7.33301 -72.333 22 -91s39 -28 73 -28c40 0 80 7.66699 120 23s82.667 33 128 53v424h54v-540h-44l-5 70h-4l-85.5 -36c-23.667 -10 -45.167 -18.167 -64.5 -24.5
s-38 -11.166 -56 -14.499s-38 -5 -60 -5z" />
    <glyph glyph-name="ucircumflex" unicode="&#xfb;" horiz-adv-x="621" 
d="M145 691l159 73l160 -73v-52l-160 73l-159 -73v52zM215 -10c-88 0 -132 49.666 -132 148.999v401h54v-381c0 -42 7.33301 -72.333 22 -91s39 -28 73 -28c40 0 80 7.66699 120 23s82.667 33 128 53v424h54v-540h-44l-5 70h-4l-85.5 -36
c-23.667 -10 -45.167 -18.167 -64.5 -24.5s-38 -11.166 -56 -14.499s-38 -5 -60 -5z" />
    <glyph glyph-name="udieresis" unicode="&#xfc;" horiz-adv-x="621" 
d="M180 669c-25.333 0 -38 12.999 -38 38.999c0 24.667 12.667 37 38 37c11.333 0 20.666 -3 27.999 -9s11 -15.333 11 -28c0 -13.333 -3.66699 -23.166 -11 -29.499s-16.666 -9.5 -27.999 -9.5zM426 668.999c-25.333 0 -38 12.999 -38 38.999c0 24.667 12.667 37 38 37
c11.333 0 20.666 -3 27.999 -9s11 -15.333 11 -28c0 -13.333 -3.66699 -23.166 -11 -29.499s-16.666 -9.5 -27.999 -9.5zM215 -10.002c-88 0 -132 49.666 -132 148.999v401h54v-381c0 -42 7.33301 -72.333 22 -91s39 -28 73 -28c40 0 80 7.66699 120 23s82.667 33 128 53
v424h54v-540h-44l-5 70h-4l-85.5 -36c-23.667 -10 -45.167 -18.167 -64.5 -24.5s-38 -11.166 -56 -14.499s-38 -5 -60 -5z" />
    <glyph glyph-name="yacute" unicode="&#xfd;" horiz-adv-x="570" 
d="M165 -209l-1 9l91 204l-232 527v9h57l177 -410l24 -66h5l26 66l184 410h55v-9l-340 -751zM267 616l73 183h56l-91 -189z" />
    <glyph glyph-name="thorn" unicode="&#xfe;" horiz-adv-x="617" 
d="M87 808l53 -0.000976562v-332c20 22.667 45.667 40.667 77 54s68 20 110 20c76.667 0 135 -22.167 175 -66.5s60 -115.166 60 -212.499c0 -48 -6.33301 -89.667 -19 -125s-30.5 -64.5 -53.5 -87.5s-51 -40.167 -84 -51.5s-69.833 -17 -110.5 -17
c-28.667 0 -56.667 1.5 -84 4.5s-51 5.16699 -71 6.5v-221h-53v1028zM295 35.999c34 0 64.001 4.16895 90.001 12.502s48 21.833 66 40.5s31.667 42.834 41 72.501s14 65.5 14 107.5c0 42.667 -3.83301 79 -11.5 109s-19.334 54.167 -35.001 72.5
s-35.167 31.666 -58.5 39.999s-51 12.5 -83 12.5c-24 0 -46.833 -3.33301 -68.5 -10s-40.5 -16.334 -56.5 -29.001s-28.833 -27.834 -38.5 -45.501s-14.5 -37.834 -14.5 -60.501v-310c20 -3.33301 43.833 -6.16602 71.5 -8.49902s55.5 -3.5 83.5 -3.5z" />
    <glyph glyph-name="ydieresis" unicode="&#xff;" horiz-adv-x="570" 
d="M165 -209l-1 9l91 204l-232 527v9h57l177 -410l24 -66h5l26 66l184 410h55v-9l-340 -751zM160 669c-25.333 0 -38 12.999 -38 38.999c0 24.667 12.667 37 38 37c11.333 0 20.666 -3 27.999 -9s11 -15.333 11 -28c0 -13.333 -3.66699 -23.166 -11 -29.499
s-16.666 -9.5 -27.999 -9.5zM406 668.999c-25.333 0 -38 12.999 -38 38.999c0 24.667 12.667 37 38 37c11.333 0 20.666 -3 27.999 -9s11 -15.333 11 -28c0 -13.333 -3.66699 -23.166 -11 -29.499s-16.666 -9.5 -27.999 -9.5z" />
    <glyph glyph-name="Amacron" unicode="&#x100;" horiz-adv-x="695" 
d="M10 6l294 734h87l294 -734v-6h-56l-95 238h-373l-95 -238h-56v6zM515 288l-115 287l-50 126h-6l-49 -126l-115 -287h335zM191 888h315v-46h-315v46z" />
    <glyph glyph-name="amacron" unicode="&#x101;" horiz-adv-x="536" 
d="M192 -5c-96 0 -143.999 44.999 -143.999 134.999c0 52 16.5 91.333 49.5 118s86.833 43.334 161.5 50.001l142 12v48c0 26 -2.5 48 -7.5 66s-13.167 32.5 -24.5 43.5s-26.5 18.833 -45.5 23.5s-42.833 7 -71.5 7c-25.333 0 -50.833 -1.33301 -76.5 -4
s-55.834 -7.33398 -90.501 -14.001l-5 46c36.667 6.66699 68.667 11.334 96 14.001s55 4 83 4c67.333 0 116.833 -14 148.5 -42s47.5 -72.333 47.5 -133v-369h-45l-7 70h-5c-79.333 -50 -148 -75 -206 -75zM204.001 41.999c57.333 0 123 23.667 197 71v158l-129 -12
c-32 -3.33301 -58.833 -7.83301 -80.5 -13.5s-39.167 -13.5 -52.5 -23.5s-22.833 -22.167 -28.5 -36.5s-8.5 -31.833 -8.5 -52.5c0 -60.667 34 -91 102 -91zM118.001 697.999h316v-46h-316v46z" />
    <glyph glyph-name="Abreve" unicode="&#x102;" horiz-adv-x="695" 
d="M10 6l294 734h87l294 -734v-6h-56l-95 238h-373l-95 -238h-56v6zM515 288l-115 287l-50 126h-6l-49 -126l-115 -287h335zM348 816c-56.667 0 -99.832 12.333 -129.499 37s-44.5 58.334 -44.5 101.001h46c0 -30.667 11 -54.5 33 -71.5s53.667 -25.5 95 -25.5
c40.667 0 72.167 8.5 94.5 25.5s33.5 40.833 33.5 71.5h46c0 -42.667 -14.833 -76.334 -44.5 -101.001s-72.834 -37 -129.501 -37z" />
    <glyph glyph-name="abreve" unicode="&#x103;" horiz-adv-x="536" 
d="M192 -5c-96 0 -143.999 44.999 -143.999 134.999c0 52 16.5 91.333 49.5 118s86.833 43.334 161.5 50.001l142 12v48c0 26 -2.5 48 -7.5 66s-13.167 32.5 -24.5 43.5s-26.5 18.833 -45.5 23.5s-42.833 7 -71.5 7c-25.333 0 -50.833 -1.33301 -76.5 -4
s-55.834 -7.33398 -90.501 -14.001l-5 46c36.667 6.66699 68.667 11.334 96 14.001s55 4 83 4c67.333 0 116.833 -14 148.5 -42s47.5 -72.333 47.5 -133v-369h-45l-7 70h-5c-79.333 -50 -148 -75 -206 -75zM204.001 41.999c57.333 0 123 23.667 197 71v158l-129 -12
c-32 -3.33301 -58.833 -7.83301 -80.5 -13.5s-39.167 -13.5 -52.5 -23.5s-22.833 -22.167 -28.5 -36.5s-8.5 -31.833 -8.5 -52.5c0 -60.667 34 -91 102 -91zM270.001 619.999c-60.667 0 -105.167 12.833 -133.5 38.5s-42.5 61.5 -42.5 107.5h45
c0 -41.333 11.333 -69.833 34 -85.5s55 -23.5 97 -23.5c40.667 0 72.5 7.83301 95.5 23.5s34.5 44.167 34.5 85.5h46c0 -46 -14.167 -81.833 -42.5 -107.5s-72.833 -38.5 -133.5 -38.5z" />
    <glyph glyph-name="Aogonek" unicode="&#x104;" horiz-adv-x="695" 
d="M609 -220c-32 0 -55.168 6.16602 -69.501 18.499s-21.5 31.5 -21.5 57.5c0 13.333 2 25.833 6 37.5s10.667 23 20 34s21.833 22.333 37.5 34s35.167 24.5 58.5 38.5h-11l-95 238h-373l-95 -238h-56v6l294 734h87l294 -734v-28c-44 -21.333 -75.5 -41.333 -94.5 -60
s-28.5 -38.667 -28.5 -60c0 -26.667 17.667 -40 53 -40c20 0 43 3.66699 69 11v-37c-10 -3.33301 -21.667 -6.16602 -35 -8.49902s-26.666 -3.5 -39.999 -3.5zM514.999 287.999l-115 287l-50 126h-6l-49 -126l-115 -287h335z" />
    <glyph glyph-name="aogonek" unicode="&#x105;" horiz-adv-x="536" 
d="M379 -220c-32 0 -55.167 6.16504 -69.5 18.498s-21.5 31.5 -21.5 57.5c0 13.333 2 25.833 6 37.5s10.667 23 20 34s21.833 22.333 37.5 34s35.167 24.5 58.5 38.5l-7 70h-5c-79.333 -50 -148 -75 -206 -75c-96 0 -144 45 -144 135c0 52 16.5 91.333 49.5 118
s86.833 43.334 161.5 50.001l142 12v48c0 26 -2.5 48 -7.5 66s-13.167 32.5 -24.5 43.5s-26.5 18.833 -45.5 23.5s-42.833 7 -71.5 7c-25.333 0 -50.833 -1.33301 -76.5 -4s-55.834 -7.33398 -90.501 -14.001l-5 46c36.667 6.66699 68.667 11.334 96 14.001s55 4 83 4
c67.333 0 116.833 -14 148.5 -42s47.5 -72.333 47.5 -133v-391c-44 -21.333 -75.5 -41.333 -94.5 -60s-28.5 -38.667 -28.5 -60c0 -26.667 17.667 -40 53 -40c20 0 43 3.66699 69 11v-37c-10 -3.33301 -21.667 -6.16602 -35 -8.49902s-26.666 -3.5 -39.999 -3.5zM204 41.998
c57.333 0 123 23.667 197 71v158l-129 -12c-32 -3.33301 -58.833 -7.83301 -80.5 -13.5s-39.167 -13.5 -52.5 -23.5s-22.833 -22.167 -28.5 -36.5s-8.5 -31.833 -8.5 -52.5c0 -60.667 34 -91 102 -91z" />
    <glyph glyph-name="Cacute" unicode="&#x106;" horiz-adv-x="613" 
d="M384 -8c-106 0 -186.501 31.999 -241.501 95.999s-82.5 157.333 -82.5 280c0 125.333 28 220.333 84 285s138 97 246 97c24.667 0 53.667 -2.16699 87 -6.5s64.333 -9.5 93 -15.5v-51c-34.667 7.33301 -67.334 13 -98.001 17s-57 6 -79 6
c-90.667 0 -159.667 -28.333 -207 -85s-71 -138.667 -71 -246c0 -106.667 22.667 -187.834 68 -243.501s112 -83.5 200 -83.5c12 0 26.5 0.666992 43.5 2s34.333 3.16602 52 5.49902s34.5 5 50.5 8s29.667 6.16699 41 9.5v-49c-12 -3.33301 -26.167 -6.66602 -42.5 -9.99902
s-33.166 -6.16602 -50.499 -8.49902s-34.166 -4.16602 -50.499 -5.49902s-30.5 -2 -42.5 -2zM331.999 810.999l78 127h58l-90 -134z" />
    <glyph glyph-name="cacute" unicode="&#x107;" horiz-adv-x="485" 
d="M268 616l73 183h56l-91 -189zM318 -9c-175.333 0 -262.997 92.666 -262.997 277.999c0 186.667 87.667 280 263 280c18 0 38.167 -1.16699 60.5 -3.5s42.166 -5.83301 59.499 -10.5v-50c-35.333 10 -73.333 15 -114 15c-142 0 -213 -77 -213 -231
c0 -80 16.667 -138.167 50 -174.5s87 -54.5 161 -54.5c21.333 0 40.666 0.833008 57.999 2.5s36.666 4.83398 57.999 9.50098v-47c-13.333 -4.66699 -31.333 -8.16699 -54 -10.5s-44.667 -3.5 -66 -3.5z" />
    <glyph glyph-name="Ccircumflex" unicode="&#x108;" horiz-adv-x="613" 
d="M384 -8c-106 0 -186.501 31.999 -241.501 95.999s-82.5 157.333 -82.5 280c0 125.333 28 220.333 84 285s138 97 246 97c24.667 0 53.667 -2.16699 87 -6.5s64.333 -9.5 93 -15.5v-51c-34.667 7.33301 -67.334 13 -98.001 17s-57 6 -79 6
c-90.667 0 -159.667 -28.333 -207 -85s-71 -138.667 -71 -246c0 -106.667 22.667 -187.834 68 -243.501s112 -83.5 200 -83.5c12 0 26.5 0.666992 43.5 2s34.333 3.16602 52 5.49902s34.5 5 50.5 8s29.667 6.16699 41 9.5v-49c-12 -3.33301 -26.167 -6.66602 -42.5 -9.99902
s-33.166 -6.16602 -50.499 -8.49902s-34.166 -4.16602 -50.499 -5.49902s-30.5 -2 -42.5 -2zM201.999 868.999l160 73l160 -73v-52l-160 73l-160 -73v52z" />
    <glyph glyph-name="ccircumflex" unicode="&#x109;" horiz-adv-x="485" 
d="M125 691l159 73l160 -73v-52l-160 73l-159 -73v52zM318 -9c-175.333 0 -262.997 92.666 -262.997 277.999c0 186.667 87.667 280 263 280c18 0 38.167 -1.16699 60.5 -3.5s42.166 -5.83301 59.499 -10.5v-50c-35.333 10 -73.333 15 -114 15c-142 0 -213 -77 -213 -231
c0 -80 16.667 -138.167 50 -174.5s87 -54.5 161 -54.5c21.333 0 40.666 0.833008 57.999 2.5s36.666 4.83398 57.999 9.50098v-47c-13.333 -4.66699 -31.333 -8.16699 -54 -10.5s-44.667 -3.5 -66 -3.5z" />
    <glyph glyph-name="Cdotaccent" unicode="&#x10a;" horiz-adv-x="613" 
d="M365 825c-13.333 0 -23.666 3.16504 -30.999 9.49805s-11 16.833 -11 31.5s3.66699 25.334 11 32.001s17.666 10 30.999 10c12 0 22.167 -3.16699 30.5 -9.5s12.5 -17.166 12.5 -32.499c0 -14.667 -4.16699 -25.167 -12.5 -31.5s-18.5 -9.5 -30.5 -9.5zM384 -8.00195
c-106 0 -186.501 31.999 -241.501 95.999s-82.5 157.333 -82.5 280c0 125.333 28 220.333 84 285s138 97 246 97c24.667 0 53.667 -2.16699 87 -6.5s64.333 -9.5 93 -15.5v-51c-34.667 7.33301 -67.334 13 -98.001 17s-57 6 -79 6c-90.667 0 -159.667 -28.333 -207 -85
s-71 -138.667 -71 -246c0 -106.667 22.667 -187.834 68 -243.501s112 -83.5 200 -83.5c12 0 26.5 0.666992 43.5 2s34.333 3.16602 52 5.49902s34.5 5 50.5 8s29.667 6.16699 41 9.5v-49c-12 -3.33301 -26.167 -6.66602 -42.5 -9.99902s-33.166 -6.16602 -50.499 -8.49902
s-34.166 -4.16602 -50.499 -5.49902s-30.5 -2 -42.5 -2z" />
    <glyph glyph-name="cdotaccent" unicode="&#x10b;" horiz-adv-x="485" 
d="M318 -9c-175.333 0 -262.997 92.666 -262.997 277.999c0 186.667 87.667 280 263 280c18 0 38.167 -1.16699 60.5 -3.5s42.166 -5.83301 59.499 -10.5v-50c-35.333 10 -73.333 15 -114 15c-142 0 -213 -77 -213 -231c0 -80 16.667 -138.167 50 -174.5s87 -54.5 161 -54.5
c21.333 0 40.666 0.833008 57.999 2.5s36.666 4.83398 57.999 9.50098v-47c-13.333 -4.66699 -31.333 -8.16699 -54 -10.5s-44.667 -3.5 -66 -3.5zM284.003 665.999c-13.333 0 -23.666 3.33105 -30.999 9.99805s-11 17.334 -11 32.001c0 14 3.66699 24.333 11 31
s17.666 10 30.999 10c12 0 22.167 -3.16699 30.5 -9.5s12.5 -16.833 12.5 -31.5c0 -15.333 -4.16699 -26.166 -12.5 -32.499s-18.5 -9.5 -30.5 -9.5z" />
    <glyph glyph-name="Ccaron" unicode="&#x10c;" horiz-adv-x="613" 
d="M384 -8c-106 0 -186.501 31.999 -241.501 95.999s-82.5 157.333 -82.5 280c0 125.333 28 220.333 84 285s138 97 246 97c24.667 0 53.667 -2.16699 87 -6.5s64.333 -9.5 93 -15.5v-51c-34.667 7.33301 -67.334 13 -98.001 17s-57 6 -79 6
c-90.667 0 -159.667 -28.333 -207 -85s-71 -138.667 -71 -246c0 -106.667 22.667 -187.834 68 -243.501s112 -83.5 200 -83.5c12 0 26.5 0.666992 43.5 2s34.333 3.16602 52 5.49902s34.5 5 50.5 8s29.667 6.16699 41 9.5v-49c-12 -3.33301 -26.167 -6.66602 -42.5 -9.99902
s-33.166 -6.16602 -50.499 -8.49902s-34.166 -4.16602 -50.499 -5.49902s-30.5 -2 -42.5 -2zM202.999 941.999l160 -73l159 73v-52l-160 -73l-159 73v52z" />
    <glyph glyph-name="ccaron" unicode="&#x10d;" horiz-adv-x="485" 
d="M124 746l160 -73l160 73v-52l-160 -73l-160 73v52zM318 -9c-175.333 0 -262.997 92.666 -262.997 277.999c0 186.667 87.667 280 263 280c18 0 38.167 -1.16699 60.5 -3.5s42.166 -5.83301 59.499 -10.5v-50c-35.333 10 -73.333 15 -114 15c-142 0 -213 -77 -213 -231
c0 -80 16.667 -138.167 50 -174.5s87 -54.5 161 -54.5c21.333 0 40.666 0.833008 57.999 2.5s36.666 4.83398 57.999 9.50098v-47c-13.333 -4.66699 -31.333 -8.16699 -54 -10.5s-44.667 -3.5 -66 -3.5z" />
    <glyph glyph-name="Dcaron" unicode="&#x10e;" horiz-adv-x="756" 
d="M185 942l160 -73l159 73v-52l-160 -73l-159 73v52zM299 -9c-45.333 0 -86 1.5 -122 4.5s-61 7.16699 -75 12.5v731c12.667 0.666992 28.167 1.66699 46.5 3s37 2.33301 56 3l55 2c17.667 0.666992 32.5 1 44.5 1c134.667 0 233.667 -30.5 297 -91.5
s95 -156.167 95 -285.5c0 -130.667 -32 -226.667 -96 -288s-164.333 -92 -301 -92zM309 40c114 0 197.834 26.667 251.501 80s80.5 137 80.5 251c0 112.667 -26.833 195.334 -80.5 248.001s-137.834 79 -252.501 79c-10 0 -21.5 -0.166992 -34.5 -0.5s-26.333 -1 -40 -2
l-41 -3c-13.667 -1 -25.834 -1.83301 -36.501 -2.5v-639l42 -5.5c12.667 -1.66699 24.834 -2.83398 36.501 -3.50098s23.5 -1.16699 35.5 -1.5s25 -0.5 39 -0.5z" />
    <glyph glyph-name="dcaron" unicode="&#x10f;" horiz-adv-x="618" 
d="M612 808h48l-23 -228h-25v228zM293 -10c-76.667 0 -135.497 22.168 -176.497 66.501s-61.5 115.166 -61.5 212.499c0 48.667 6.5 90.667 19.5 126s31.167 64.5 54.5 87.5s51.166 40 83.499 51s68.166 16.5 107.499 16.5c30.667 0 59.667 -1.5 87 -4.5
s50.666 -5.16699 69.999 -6.5v269h54v-808h-46l-6 70h-5c-42 -53.333 -102.333 -80 -181 -80zM300.003 38.001c22.667 0 44.501 3.16699 65.501 9.5s39.833 15.333 56.5 27s30 25.667 40 42s15 34.833 15 55.5v320c-19.333 2.66699 -42.833 5.16699 -70.5 7.5
s-56.834 3.5 -87.501 3.5c-66 0 -117.167 -18.167 -153.5 -54.5s-54.5 -95.833 -54.5 -178.5c0 -83.333 15.5 -142.833 46.5 -178.5s78.5 -53.5 142.5 -53.5z" />
    <glyph glyph-name="Dcroat" unicode="&#x110;" horiz-adv-x="762" 
d="M7 393h101v346c12.667 0.666992 28.167 1.66699 46.5 3s37 2.33301 56 3l55 2c17.667 0.666992 32.5 1 44.5 1c134.667 0 233.667 -30.5 297 -91.5s95 -156.167 95 -285.5c0 -130.667 -32 -226.667 -96 -288s-164.333 -92 -301 -92c-45.333 0 -86 1.5 -122 4.5
s-61 7.16699 -75 12.5v337h-101v48zM315 40c114 0 197.834 26.667 251.501 80s80.5 137 80.5 251c0 112.667 -26.833 195.334 -80.5 248.001s-137.834 79 -252.501 79c-10 0 -21.5 -0.166992 -34.5 -0.5s-26.333 -1 -40 -2l-41 -3c-13.667 -1 -25.834 -1.83301 -36.501 -2.5
v-297h222v-48h-222v-294l42 -5.5c12.667 -1.66699 24.834 -2.83398 36.501 -3.50098s23.5 -1.16699 35.5 -1.5s25 -0.5 39 -0.5z" />
    <glyph glyph-name="dcroat" unicode="&#x111;" horiz-adv-x="618" 
d="M268 695l209.003 0.000976562v113h54v-113h84v-42h-84v-653h-46l-6 70h-5c-42 -53.333 -102.333 -80 -181 -80c-76.667 0 -135.5 22.167 -176.5 66.5s-61.5 115.166 -61.5 212.499c0 48.667 6.5 90.667 19.5 126s31.167 64.5 54.5 87.5s51.166 40 83.499 51
s68.166 16.5 107.499 16.5c30.667 0 59.667 -1.5 87 -4.5s50.666 -5.16699 69.999 -6.5v114h-209v42zM300.003 38.001c22.667 0 44.501 3.16699 65.501 9.5s39.833 15.333 56.5 27s30 25.667 40 42s15 34.833 15 55.5v320c-19.333 2.66699 -42.833 5.16699 -70.5 7.5
s-56.834 3.5 -87.501 3.5c-66 0 -117.167 -18.167 -153.5 -54.5s-54.5 -95.833 -54.5 -178.5c0 -83.333 15.5 -142.833 46.5 -178.5s78.5 -53.5 142.5 -53.5z" />
    <glyph glyph-name="Emacron" unicode="&#x112;" horiz-adv-x="634" 
d="M181 888h315v-46h-315v46zM102 740h465v-49h-411v-290h392v-48h-392v-304h419v-49h-473v740z" />
    <glyph glyph-name="emacron" unicode="&#x113;" horiz-adv-x="555" 
d="M307 -9c-82.667 0 -145.166 22.6699 -187.499 68.0029s-63.5 112.666 -63.5 201.999c0 93.333 20.667 164.666 62 213.999s101.333 74 180 74c66.667 0 117.167 -20.667 151.5 -62s51.5 -101.333 51.5 -180c0 -14 -0.333008 -26.167 -1 -36.5s-1.66699 -18.5 -3 -24.5
h-387c3.33301 -70.667 21.666 -122.834 54.999 -156.501s83.333 -50.5 150 -50.5c25.333 0 51.5 2.33301 78.5 7s55.5 12 85.5 22l5 -45c-26.667 -9.33301 -56 -17 -88 -23s-61.667 -9 -89 -9zM298.001 503.003c-119.333 0 -182 -71.667 -188 -215h340
c-2 76.667 -15 131.667 -39 165s-61.667 50 -113 50zM139.001 698.003h316v-46h-316v46z" />
    <glyph glyph-name="Ebreve" unicode="&#x114;" horiz-adv-x="634" 
d="M336 816c-56.667 0 -99.832 12.333 -129.499 37s-44.5 58.334 -44.5 101.001h46c0 -30.667 11 -54.5 33 -71.5s53.667 -25.5 95 -25.5c40.667 0 72.167 8.5 94.5 25.5s33.5 40.833 33.5 71.5h46c0 -42.667 -14.833 -76.334 -44.5 -101.001s-72.834 -37 -129.501 -37z
M102.002 740h465v-49h-411v-290h392v-48h-392v-304h419v-49h-473v740z" />
    <glyph glyph-name="ebreve" unicode="&#x115;" horiz-adv-x="555" 
d="M307 -9c-82.667 0 -145.166 22.6699 -187.499 68.0029s-63.5 112.666 -63.5 201.999c0 93.333 20.667 164.666 62 213.999s101.333 74 180 74c66.667 0 117.167 -20.667 151.5 -62s51.5 -101.333 51.5 -180c0 -14 -0.333008 -26.167 -1 -36.5s-1.66699 -18.5 -3 -24.5
h-387c3.33301 -70.667 21.666 -122.834 54.999 -156.501s83.333 -50.5 150 -50.5c25.333 0 51.5 2.33301 78.5 7s55.5 12 85.5 22l5 -45c-26.667 -9.33301 -56 -17 -88 -23s-61.667 -9 -89 -9zM298.001 503.003c-119.333 0 -182 -71.667 -188 -215h340
c-2 76.667 -15 131.667 -39 165s-61.667 50 -113 50zM291.001 620.003c-60.667 0 -105.167 12.833 -133.5 38.5s-42.5 61.5 -42.5 107.5h45c0 -41.333 11.333 -69.833 34 -85.5s55 -23.5 97 -23.5c40.667 0 72.5 7.83301 95.5 23.5s34.5 44.167 34.5 85.5h46
c0 -46 -14.167 -81.833 -42.5 -107.5s-72.833 -38.5 -133.5 -38.5z" />
    <glyph glyph-name="Edotaccent" unicode="&#x116;" horiz-adv-x="634" 
d="M337 825c-13.333 0 -23.666 3.16504 -30.999 9.49805s-11 16.833 -11 31.5s3.66699 25.334 11 32.001s17.666 10 30.999 10c12 0 22.167 -3.16699 30.5 -9.5s12.5 -17.166 12.5 -32.499c0 -14.667 -4.16699 -25.167 -12.5 -31.5s-18.5 -9.5 -30.5 -9.5zM102 739.998h465
v-49h-411v-290h392v-48h-392v-304h419v-49h-473v740z" />
    <glyph glyph-name="edotaccent" unicode="&#x117;" horiz-adv-x="555" 
d="M307 -9c-82.667 0 -145.166 22.6699 -187.499 68.0029s-63.5 112.666 -63.5 201.999c0 93.333 20.667 164.666 62 213.999s101.333 74 180 74c66.667 0 117.167 -20.667 151.5 -62s51.5 -101.333 51.5 -180c0 -14 -0.333008 -26.167 -1 -36.5s-1.66699 -18.5 -3 -24.5
h-387c3.33301 -70.667 21.666 -122.834 54.999 -156.501s83.333 -50.5 150 -50.5c25.333 0 51.5 2.33301 78.5 7s55.5 12 85.5 22l5 -45c-26.667 -9.33301 -56 -17 -88 -23s-61.667 -9 -89 -9zM298.001 503.003c-119.333 0 -182 -71.667 -188 -215h340
c-2 76.667 -15 131.667 -39 165s-61.667 50 -113 50zM292.001 666.003c-13.333 0 -23.666 3.33105 -30.999 9.99805s-11 17.334 -11 32.001c0 14 3.66699 24.333 11 31s17.666 10 30.999 10c12 0 22.167 -3.16699 30.5 -9.5s12.5 -16.833 12.5 -31.5
c0 -15.333 -4.16699 -26.166 -12.5 -32.499s-18.5 -9.5 -30.5 -9.5z" />
    <glyph glyph-name="Eogonek" unicode="&#x118;" horiz-adv-x="634" 
d="M102 740l464.999 -0.000976562v-49h-411v-290h392v-48h-392v-304h419v-71c-44 -21.333 -75.5 -41.333 -94.5 -60s-28.5 -38.667 -28.5 -60c0 -26.667 17.667 -40 53 -40c20 0 43 3.66699 69 11v-37c-10 -3.33301 -21.667 -6.16602 -35 -8.49902
s-26.666 -3.5 -39.999 -3.5c-32 0 -55.167 6.16699 -69.5 18.5s-21.5 31.5 -21.5 57.5c0 13.333 2 25.833 6 37.5s10.667 23 20 34s21.833 22.333 37.5 34s35.167 24.5 58.5 38.5h-428v740z" />
    <glyph glyph-name="eogonek" unicode="&#x119;" horiz-adv-x="556" 
d="M307 -9c-82.667 0 -145.164 22.6709 -187.497 68.0039s-63.5 112.666 -63.5 201.999c0 93.333 20.667 164.666 62 213.999s101.333 74 180 74c66.667 0 117.167 -20.667 151.5 -62s51.5 -101.333 51.5 -180c0 -14 -0.333008 -26.167 -1 -36.5s-1.66699 -18.5 -3 -24.5
h-387c3.33301 -70.667 21.666 -122.834 54.999 -156.501s83.333 -50.5 150 -50.5c25.333 0 51.5 2.33301 78.5 7s55.5 12 85.5 22l5 -45v-22c-44 -21.333 -75.5 -41.333 -94.5 -60s-28.5 -38.667 -28.5 -60c0 -26.667 17.667 -40 53 -40c20 0 43 3.66699 69 11v-37
c-10 -3.33301 -21.667 -6.16602 -35 -8.49902s-26.666 -3.5 -39.999 -3.5c-32 0 -55.167 6.16699 -69.5 18.5s-21.5 31.5 -21.5 57.5c0 23.333 6.16699 44.166 18.5 62.499s35.166 38.166 68.499 59.499c-16.667 -3.33301 -33.334 -5.83301 -50.001 -7.5
s-32.334 -2.5 -47.001 -2.5zM298.003 503.004c-119.333 0 -182 -71.667 -188 -215h340c-2 76.667 -15 131.667 -39 165s-61.667 50 -113 50z" />
    <glyph glyph-name="Ecaron" unicode="&#x11a;" horiz-adv-x="634" 
d="M178 942l160 -73l159 73v-52l-160 -73l-159 73v52zM102 740h465v-49h-411v-290h392v-48h-392v-304h419v-49h-473v740z" />
    <glyph glyph-name="ecaron" unicode="&#x11b;" horiz-adv-x="555" 
d="M132 746l160 -73l160 73v-52l-160 -73l-160 73v52zM307 -9c-82.667 0 -145.166 22.6699 -187.499 68.0029s-63.5 112.666 -63.5 201.999c0 93.333 20.667 164.666 62 213.999s101.333 74 180 74c66.667 0 117.167 -20.667 151.5 -62s51.5 -101.333 51.5 -180
c0 -14 -0.333008 -26.167 -1 -36.5s-1.66699 -18.5 -3 -24.5h-387c3.33301 -70.667 21.666 -122.834 54.999 -156.501s83.333 -50.5 150 -50.5c25.333 0 51.5 2.33301 78.5 7s55.5 12 85.5 22l5 -45c-26.667 -9.33301 -56 -17 -88 -23s-61.667 -9 -89 -9zM298.001 503.003
c-119.333 0 -182 -71.667 -188 -215h340c-2 76.667 -15 131.667 -39 165s-61.667 50 -113 50z" />
    <glyph glyph-name="Gcircumflex" unicode="&#x11c;" horiz-adv-x="677" 
d="M397 -8c-110 0 -193.67 32.001 -251.003 96.001s-86 157.333 -86 280c0 124.667 29.333 219.5 88 284.5s145 97.5 259 97.5c58.667 0 122.334 -9.33301 191.001 -28v-50c-22 5.33301 -41.5 9.83301 -58.5 13.5s-32.667 6.5 -47 8.5s-28.166 3.5 -41.499 4.5
s-27.333 1.5 -42 1.5c-95.333 0 -168.166 -28.333 -218.499 -85s-75.5 -138.667 -75.5 -246c0 -106.667 24 -187.834 72 -243.501s117.667 -83.5 209 -83.5c10 0 21.667 0.5 35 1.5s27 2.5 41 4.5s28 4.16699 42 6.5s26.667 4.83301 38 7.5v314h53v-349
c-15.333 -5.33301 -32.166 -10 -50.499 -14s-36.833 -7.66699 -55.5 -11s-36.834 -5.83301 -54.501 -7.5s-33.5 -2.5 -47.5 -2.5zM203.997 869.001l160 73l160 -73v-52l-160 73l-160 -73v52z" />
    <glyph glyph-name="gcircumflex" unicode="&#x11d;" horiz-adv-x="618" 
d="M160 691l159 73l160 -73v-52l-160 73l-159 -73v52zM269 -219c-30.667 0 -61.3369 2.16797 -92.0039 6.50098s-59 10.166 -85 17.499l4 47c26.667 -6.66699 54.834 -12.334 84.501 -17.001s58.834 -7 87.501 -7c30.667 0 58.834 3.33301 84.501 10
s47.834 18.334 66.501 35.001s33.334 38.667 44.001 66s16 62 16 104v32h-5c-40.667 -54 -101 -81 -181 -81c-76.667 0 -135.5 22 -176.5 66s-61.5 114 -61.5 210c0 48.667 6.5 90.5 19.5 125.5s31.167 64 54.5 87s51.166 40 83.499 51s68.166 16.5 107.499 16.5
c16 0 33.167 -0.5 51.5 -1.5s36.833 -2.5 55.5 -4.5s36.834 -4.33301 54.501 -7s34.167 -5.66699 49.5 -9v-484c0 -54.667 -7.33301 -99 -22 -133s-34 -60.667 -58 -80s-51.833 -32.5 -83.5 -39.5s-64.5 -10.5 -98.5 -10.5zM299.997 41.001
c22.667 0 44.667 3.16504 66 9.49805s40.166 15.5 56.499 27.5s29.5 26.333 39.5 43s15 35.334 15 56.001v315c-19.333 2.66699 -42.833 5.16699 -70.5 7.5s-56.834 3.5 -87.501 3.5c-66 0 -117.167 -18 -153.5 -54s-54.5 -95 -54.5 -177
c0 -41.333 3.83301 -76.666 11.5 -105.999s19.334 -53.333 35.001 -72s35.334 -32.167 59.001 -40.5s51.5 -12.5 83.5 -12.5z" />
    <glyph glyph-name="Gbreve" unicode="&#x11e;" horiz-adv-x="677" 
d="M365 816c-56.667 0 -99.832 12.333 -129.499 37s-44.5 58.334 -44.5 101.001h46c0 -30.667 11 -54.5 33 -71.5s53.667 -25.5 95 -25.5c40.667 0 72.167 8.5 94.5 25.5s33.5 40.833 33.5 71.5h46c0 -42.667 -14.833 -76.334 -44.5 -101.001s-72.834 -37 -129.501 -37z
M397.002 -8c-110 0 -193.67 32.001 -251.003 96.001s-86 157.333 -86 280c0 124.667 29.333 219.5 88 284.5s145 97.5 259 97.5c58.667 0 122.334 -9.33301 191.001 -28v-50c-22 5.33301 -41.5 9.83301 -58.5 13.5s-32.667 6.5 -47 8.5s-28.166 3.5 -41.499 4.5
s-27.333 1.5 -42 1.5c-95.333 0 -168.166 -28.333 -218.499 -85s-75.5 -138.667 -75.5 -246c0 -106.667 24 -187.834 72 -243.501s117.667 -83.5 209 -83.5c10 0 21.667 0.5 35 1.5s27 2.5 41 4.5s28 4.16699 42 6.5s26.667 4.83301 38 7.5v314h53v-349
c-15.333 -5.33301 -32.166 -10 -50.499 -14s-36.833 -7.66699 -55.5 -11s-36.834 -5.83301 -54.501 -7.5s-33.5 -2.5 -47.5 -2.5z" />
    <glyph glyph-name="gbreve" unicode="&#x11f;" horiz-adv-x="618" 
d="M269 -219c-30.667 0 -61.3369 2.16797 -92.0039 6.50098s-59 10.166 -85 17.499l4 47c26.667 -6.66699 54.834 -12.334 84.501 -17.001s58.834 -7 87.501 -7c30.667 0 58.834 3.33301 84.501 10s47.834 18.334 66.501 35.001s33.334 38.667 44.001 66s16 62 16 104v32h-5
c-40.667 -54 -101 -81 -181 -81c-76.667 0 -135.5 22 -176.5 66s-61.5 114 -61.5 210c0 48.667 6.5 90.5 19.5 125.5s31.167 64 54.5 87s51.166 40 83.499 51s68.166 16.5 107.499 16.5c16 0 33.167 -0.5 51.5 -1.5s36.833 -2.5 55.5 -4.5s36.834 -4.33301 54.501 -7
s34.167 -5.66699 49.5 -9v-484c0 -54.667 -7.33301 -99 -22 -133s-34 -60.667 -58 -80s-51.833 -32.5 -83.5 -39.5s-64.5 -10.5 -98.5 -10.5zM299.997 41.001c22.667 0 44.667 3.16504 66 9.49805s40.166 15.5 56.499 27.5s29.5 26.333 39.5 43s15 35.334 15 56.001v315
c-19.333 2.66699 -42.833 5.16699 -70.5 7.5s-56.834 3.5 -87.501 3.5c-66 0 -117.167 -18 -153.5 -54s-54.5 -95 -54.5 -177c0 -41.333 3.83301 -76.666 11.5 -105.999s19.334 -53.333 35.001 -72s35.334 -32.167 59.001 -40.5s51.5 -12.5 83.5 -12.5zM318.997 619.999
c-60.667 0 -105.167 12.833 -133.5 38.5s-42.5 61.5 -42.5 107.5h45c0 -41.333 11.333 -69.833 34 -85.5s55 -23.5 97 -23.5c40.667 0 72.5 7.83301 95.5 23.5s34.5 44.167 34.5 85.5h46c0 -46 -14.167 -81.833 -42.5 -107.5s-72.833 -38.5 -133.5 -38.5z" />
    <glyph glyph-name="Gdotaccent" unicode="&#x120;" horiz-adv-x="677" 
d="M367 825c-13.333 0 -23.666 3.16504 -30.999 9.49805s-11 16.833 -11 31.5s3.66699 25.334 11 32.001s17.666 10 30.999 10c12 0 22.167 -3.16699 30.5 -9.5s12.5 -17.166 12.5 -32.499c0 -14.667 -4.16699 -25.167 -12.5 -31.5s-18.5 -9.5 -30.5 -9.5zM397 -8.00195
c-110 0 -193.67 32.001 -251.003 96.001s-86 157.333 -86 280c0 124.667 29.333 219.5 88 284.5s145 97.5 259 97.5c58.667 0 122.334 -9.33301 191.001 -28v-50c-22 5.33301 -41.5 9.83301 -58.5 13.5s-32.667 6.5 -47 8.5s-28.166 3.5 -41.499 4.5s-27.333 1.5 -42 1.5
c-95.333 0 -168.166 -28.333 -218.499 -85s-75.5 -138.667 -75.5 -246c0 -106.667 24 -187.834 72 -243.501s117.667 -83.5 209 -83.5c10 0 21.667 0.5 35 1.5s27 2.5 41 4.5s28 4.16699 42 6.5s26.667 4.83301 38 7.5v314h53v-349
c-15.333 -5.33301 -32.166 -10 -50.499 -14s-36.833 -7.66699 -55.5 -11s-36.834 -5.83301 -54.501 -7.5s-33.5 -2.5 -47.5 -2.5z" />
    <glyph glyph-name="gdotaccent" unicode="&#x121;" horiz-adv-x="618" 
d="M269 -219c-30.667 0 -61.3369 2.16797 -92.0039 6.50098s-59 10.166 -85 17.499l4 47c26.667 -6.66699 54.834 -12.334 84.501 -17.001s58.834 -7 87.501 -7c30.667 0 58.834 3.33301 84.501 10s47.834 18.334 66.501 35.001s33.334 38.667 44.001 66s16 62 16 104v32h-5
c-40.667 -54 -101 -81 -181 -81c-76.667 0 -135.5 22 -176.5 66s-61.5 114 -61.5 210c0 48.667 6.5 90.5 19.5 125.5s31.167 64 54.5 87s51.166 40 83.499 51s68.166 16.5 107.499 16.5c16 0 33.167 -0.5 51.5 -1.5s36.833 -2.5 55.5 -4.5s36.834 -4.33301 54.501 -7
s34.167 -5.66699 49.5 -9v-484c0 -54.667 -7.33301 -99 -22 -133s-34 -60.667 -58 -80s-51.833 -32.5 -83.5 -39.5s-64.5 -10.5 -98.5 -10.5zM299.997 41.001c22.667 0 44.667 3.16504 66 9.49805s40.166 15.5 56.499 27.5s29.5 26.333 39.5 43s15 35.334 15 56.001v315
c-19.333 2.66699 -42.833 5.16699 -70.5 7.5s-56.834 3.5 -87.501 3.5c-66 0 -117.167 -18 -153.5 -54s-54.5 -95 -54.5 -177c0 -41.333 3.83301 -76.666 11.5 -105.999s19.334 -53.333 35.001 -72s35.334 -32.167 59.001 -40.5s51.5 -12.5 83.5 -12.5zM318.997 665.999
c-13.333 0 -23.666 3.33105 -30.999 9.99805s-11 17.334 -11 32.001c0 14 3.66699 24.333 11 31s17.666 10 30.999 10c12 0 22.167 -3.16699 30.5 -9.5s12.5 -16.833 12.5 -31.5c0 -15.333 -4.16699 -26.166 -12.5 -32.499s-18.5 -9.5 -30.5 -9.5z" />
    <glyph glyph-name="Gcommaaccent" unicode="&#x122;" horiz-adv-x="677" 
d="M347 -70h58l-59 -150h-49zM397 -8c-110 0 -193.67 32.001 -251.003 96.001s-86 157.333 -86 280c0 124.667 29.333 219.5 88 284.5s145 97.5 259 97.5c58.667 0 122.334 -9.33301 191.001 -28v-50c-22 5.33301 -41.5 9.83301 -58.5 13.5s-32.667 6.5 -47 8.5
s-28.166 3.5 -41.499 4.5s-27.333 1.5 -42 1.5c-95.333 0 -168.166 -28.333 -218.499 -85s-75.5 -138.667 -75.5 -246c0 -106.667 24 -187.834 72 -243.501s117.667 -83.5 209 -83.5c10 0 21.667 0.5 35 1.5s27 2.5 41 4.5s28 4.16699 42 6.5s26.667 4.83301 38 7.5v314h53
v-349c-15.333 -5.33301 -32.166 -10 -50.499 -14s-36.833 -7.66699 -55.5 -11s-36.834 -5.83301 -54.501 -7.5s-33.5 -2.5 -47.5 -2.5z" />
    <glyph glyph-name="gcommaaccent" unicode="&#x123;" horiz-adv-x="618" 
d="M426 795l-50 -150h-59l59 150h50zM269 -219c-30.667 0 -61.3369 2.16797 -92.0039 6.50098s-59 10.166 -85 17.499l4 47c26.667 -6.66699 54.834 -12.334 84.501 -17.001s58.834 -7 87.501 -7c30.667 0 58.834 3.33301 84.501 10s47.834 18.334 66.501 35.001
s33.334 38.667 44.001 66s16 62 16 104v32h-5c-40.667 -54 -101 -81 -181 -81c-76.667 0 -135.5 22 -176.5 66s-61.5 114 -61.5 210c0 48.667 6.5 90.5 19.5 125.5s31.167 64 54.5 87s51.166 40 83.499 51s68.166 16.5 107.499 16.5c16 0 33.167 -0.5 51.5 -1.5
s36.833 -2.5 55.5 -4.5s36.834 -4.33301 54.501 -7s34.167 -5.66699 49.5 -9v-484c0 -54.667 -7.33301 -99 -22 -133s-34 -60.667 -58 -80s-51.833 -32.5 -83.5 -39.5s-64.5 -10.5 -98.5 -10.5zM299.997 41.001c22.667 0 44.667 3.16504 66 9.49805s40.166 15.5 56.499 27.5
s29.5 26.333 39.5 43s15 35.334 15 56.001v315c-19.333 2.66699 -42.833 5.16699 -70.5 7.5s-56.834 3.5 -87.501 3.5c-66 0 -117.167 -18 -153.5 -54s-54.5 -95 -54.5 -177c0 -41.333 3.83301 -76.666 11.5 -105.999s19.334 -53.333 35.001 -72
s35.334 -32.167 59.001 -40.5s51.5 -12.5 83.5 -12.5z" />
    <glyph glyph-name="Hcircumflex" unicode="&#x124;" horiz-adv-x="791" 
d="M102 740h54v-336h479v336h54v-740h-54v356h-479v-356h-54v740zM229 869l160 73l160 -73v-52l-160 73l-160 -73v52z" />
    <glyph glyph-name="hcircumflex" unicode="&#x125;" horiz-adv-x="621" 
d="M168 899l159 73l160 -73v-52l-160 73l-159 -73v52zM87 808h53v-334c30.667 14 58 25.833 82 35.5s45.833 17.5 65.5 23.5s38 10.333 55 13s33.5 4 49.5 4c46.667 0 82.667 -12 108 -36s38 -61.667 38 -113v-401h-54v380c0 44 -8.83301 75.167 -26.5 93.5
s-44.5 27.5 -80.5 27.5c-30.667 0 -66.167 -6.5 -106.5 -19.5s-83.833 -30.5 -130.5 -52.5v-429h-53v808z" />
    <glyph glyph-name="Hbar" unicode="&#x126;" horiz-adv-x="801" 
d="M9 589h97v151h54v-151h479v151h54v-151h99v-41h-99v-548h-54v356h-479v-356h-54v548h-97v41zM639 404v144h-479v-144h479z" />
    <glyph glyph-name="hbar" unicode="&#x127;" horiz-adv-x="621" 
d="M-16 695h103v113h53v-113h191v-42h-191v-179c30.667 14 58 25.833 82 35.5s45.833 17.5 65.5 23.5s38 10.333 55 13s33.5 4 49.5 4c46.667 0 82.667 -12 108 -36s38 -61.667 38 -113v-401h-54v380c0 44 -8.83301 75.167 -26.5 93.5s-44.5 27.5 -80.5 27.5
c-30.667 0 -66.167 -6.5 -106.5 -19.5s-83.833 -30.5 -130.5 -52.5v-429h-53v653h-103v42z" />
    <glyph glyph-name="Itilde" unicode="&#x128;" horiz-adv-x="258" 
d="M102 740h54v-740h-54v740zM-63 867c38 38 78.3311 57 120.998 57c16 0 31 -2.16699 45 -6.5s27.667 -9.16602 41 -14.499s26.5 -10.166 39.5 -14.499s27.167 -6.5 42.5 -6.5c34 0 66.667 12.667 98 38l24 -26c-18 -18 -38.167 -32 -60.5 -42s-45.166 -15 -68.499 -15
c-14 0 -28 2.16699 -42 6.5s-27.833 9.16602 -41.5 14.499s-27.167 10.166 -40.5 14.499s-26.666 6.5 -39.999 6.5c-16 0 -31.667 -2.83301 -47 -8.5s-31 -15.167 -47 -28.5z" />
    <glyph glyph-name="itilde" unicode="&#x129;" horiz-adv-x="231" 
d="M-87 687c36 38 75.334 56.998 118.001 56.998c16 0 31 -2.16699 45 -6.5s27.5 -9.16602 40.5 -14.499s26 -10.166 39 -14.499s27.167 -6.5 42.5 -6.5c33.333 0 65.333 12.333 96 37l24 -25c-18 -18 -37.833 -32.167 -59.5 -42.5s-44.167 -15.5 -67.5 -15.5
c-14 0 -27.833 2.16699 -41.5 6.5s-27.334 9.33301 -41.001 15s-27.167 10.667 -40.5 15s-26.333 6.5 -39 6.5c-15.333 0 -30.833 -2.83301 -46.5 -8.5s-31.167 -15.167 -46.5 -28.5zM88.001 539.998h54v-540h-54v540z" />
    <glyph glyph-name="Imacron" unicode="&#x12a;" horiz-adv-x="258" 
d="M102 740h54v-740h-54v740zM-27 888h315v-46h-315v46z" />
    <glyph glyph-name="imacron" unicode="&#x12b;" horiz-adv-x="231" 
d="M88 540h54v-540h-54v540zM-36 698h316v-46h-316v46z" />
    <glyph glyph-name="Ibreve" unicode="&#x12c;" horiz-adv-x="258" 
d="M102 740h54v-740h-54v740zM129 816c-56.667 0 -99.832 12.333 -129.499 37s-44.5 58.334 -44.5 101.001h46c0 -30.667 11 -54.5 33 -71.5s53.667 -25.5 95 -25.5c40.667 0 72.167 8.5 94.5 25.5s33.5 40.833 33.5 71.5h46c0 -42.667 -14.833 -76.334 -44.5 -101.001
s-72.834 -37 -129.501 -37z" />
    <glyph glyph-name="ibreve" unicode="&#x12d;" horiz-adv-x="231" 
d="M116 620c-57.333 0 -99.833 12.833 -127.5 38.5s-41.5 61.5 -41.5 107.5h42c0 -41.333 11.167 -69.833 33.5 -85.5s53.5 -23.5 93.5 -23.5s71.333 7.83301 94 23.5s34 44.167 34 85.5h41c0 -46 -13.5 -81.833 -40.5 -107.5s-69.833 -38.5 -128.5 -38.5zM88 540h54v-540
h-54v540z" />
    <glyph glyph-name="Iogonek" unicode="&#x12e;" horiz-adv-x="258" 
d="M102 740l53.999 -0.000976562v-762c-44 -21.333 -75.5 -41.333 -94.5 -60s-28.5 -38.667 -28.5 -60c0 -26.667 17.667 -40 53 -40c20 0 43 3.66699 69 11v-37c-10 -3.33301 -21.667 -6.16602 -35 -8.49902s-26.666 -3.5 -39.999 -3.5c-32 0 -55.167 6.16699 -69.5 18.5
s-21.5 31.5 -21.5 57.5c0 13.333 2 25.833 6 37.5s10.667 23 20 34s21.833 22.333 37.5 34s35.167 24.5 58.5 38.5h-9v740z" />
    <glyph glyph-name="iogonek" unicode="&#x12f;" horiz-adv-x="231" 
d="M88 540l53.999 -0.000976562v-562c-44 -21.333 -75.5 -41.333 -94.5 -60s-28.5 -38.667 -28.5 -60c0 -26.667 17.667 -40 53 -40c20 0 43 3.66699 69 11v-37c-10 -3.33301 -21.667 -6.16602 -35 -8.49902s-26.666 -3.5 -39.999 -3.5c-32 0 -55.167 6.16699 -69.5 18.5
s-21.5 31.5 -21.5 57.5c0 13.333 2 25.833 6 37.5s10.667 23 20 34s21.833 22.333 37.5 34s35.167 24.5 58.5 38.5h-9v540zM114.999 663.999c-25.333 0 -38 12.667 -38 38s12.667 38 38 38c26.667 0 40 -12.667 40 -38s-13.333 -38 -40 -38z" />
    <glyph glyph-name="Idotaccent" unicode="&#x130;" horiz-adv-x="258" 
d="M102 740h54v-740h-54v740zM130 825c-13.333 0 -23.666 3.16504 -30.999 9.49805s-11 16.833 -11 31.5s3.66699 25.334 11 32.001s17.666 10 30.999 10c12 0 22.167 -3.16699 30.5 -9.5s12.5 -17.166 12.5 -32.499c0 -14.667 -4.16699 -25.167 -12.5 -31.5
s-18.5 -9.5 -30.5 -9.5z" />
    <glyph glyph-name="dotlessi" unicode="&#x131;" horiz-adv-x="231" 
d="M88 540h54v-540h-54v540z" />
    <glyph glyph-name="IJ" unicode="&#x132;" horiz-adv-x="516" 
d="M102 740h54v-740h-54v740zM283 -161c14.667 30.667 27.167 59.5 37.5 86.5s18.5 53.833 24.5 80.5s10.333 54.167 13 82.5s4 59.5 4 93.5v558h54v-560c0 -33.333 -1.33301 -63.833 -4 -91.5s-7.5 -55.167 -14.5 -82.5s-16.333 -56 -28 -86s-26.5 -63.667 -44.5 -101z" />
    <glyph glyph-name="ij" unicode="&#x133;" horiz-adv-x="458" 
d="M115 664c-25.333 0 -38 12.667 -38 38s12.667 38 38 38c26.667 0 40 -12.667 40 -38s-13.333 -38 -40 -38zM88 540h54v-540h-54v540zM341 664c-26 0 -39 12.667 -39 38s13 38 39 38s39 -12.667 39 -38s-13 -38 -39 -38zM243 -201c26 46.667 45 95 57 145s18 108 18 174
v422h54v-449c-2.66699 -56.667 -11.167 -111.167 -25.5 -163.5s-35.833 -101.5 -64.5 -147.5z" />
    <glyph glyph-name="Jcircumflex" unicode="&#x134;" horiz-adv-x="258" 
d="M25 -161c14.667 30.667 27.167 59.5 37.5 86.5s18.5 53.833 24.5 80.5s10.333 54.167 13 82.5s4 59.5 4 93.5v558h54v-560c0 -33.333 -1.33301 -63.833 -4 -91.5s-7.5 -55.167 -14.5 -82.5s-16.333 -56 -28 -86s-26.5 -63.667 -44.5 -101zM-26 869l160 73l160 -73v-52
l-160 73l-160 -73v52z" />
    <glyph glyph-name="jcircumflex" unicode="&#x135;" horiz-adv-x="227" 
d="M-44 696l157 73l158 -73v-51l-157 73l-158 -73v51zM12 -201c26 46.667 45.167 95 57.5 145s18.5 108 18.5 174v32.5v75.5v98v99c0 30.667 -0.166992 57 -0.5 79s-0.5 34.667 -0.5 38h54v-449c-0.666992 -56.667 -8.66699 -111.167 -24 -163.5s-37.333 -101.5 -66 -147.5z
" />
    <glyph glyph-name="Kcommaaccent" unicode="&#x136;" horiz-adv-x="674" 
d="M332 -70h58l-59 -150h-49zM102 740h54v-338h179l246 338h64l-242 -332l-27 -25v-6l30 -24l256 -353h-64l-256 354h-186v-354h-54v740z" />
    <glyph glyph-name="kcommaaccent" unicode="&#x137;" horiz-adv-x="557" 
d="M290 -70h58l-59 -150h-49zM87 808h53v-510h119l214 242h64l-224 -253l-16 -9v-4l17 -9l239 -265h-64l-232 256h-117v-256h-53v808z" />
    <glyph glyph-name="kgreenlandic" unicode="&#x138;" horiz-adv-x="565" 
d="M87 540h54v-242h165l170 242h61l-179 -253l-16 -9v-4l17 -9l195 -265h-62l-188 256h-163v-256h-54v540z" />
    <glyph glyph-name="Lacute" unicode="&#x139;" horiz-adv-x="548" 
d="M103 811l78 127h58l-90 -134zM102 740h54v-692h377v-48h-431v740z" />
    <glyph glyph-name="lacute" unicode="&#x13a;" horiz-adv-x="234" 
d="M99 846l73 183h56l-91 -189zM90 808h54v-808h-54v808z" />
    <glyph glyph-name="Lcommaaccent" unicode="&#x13b;" horiz-adv-x="548" 
d="M298 -70h58l-59 -150h-49zM102 740h54v-692h377v-48h-431v740z" />
    <glyph glyph-name="lcommaaccent" unicode="&#x13c;" horiz-adv-x="234" 
d="M100 -70h58l-59 -150h-49zM90 808h54v-808h-54v808z" />
    <glyph glyph-name="Lcaron" unicode="&#x13d;" horiz-adv-x="551" 
d="M415 747h48l-23 -228h-25v228zM102 740h54v-692h377v-48h-431v740z" />
    <glyph glyph-name="lcaron" unicode="&#x13e;" horiz-adv-x="234" 
d="M225 808h48l-23 -228h-25v228zM90 808h54v-808h-54v808z" />
    <glyph glyph-name="Ldot" unicode="&#x13f;" horiz-adv-x="555" 
d="M102 740h54v-692h377v-48h-431v740zM456 331c-13.333 0 -23.666 3.33105 -30.999 9.99805s-11 17.334 -11 32.001s3.66699 25.334 11 32.001s17.666 10 30.999 10c12 0 22.167 -3.16699 30.5 -9.5s12.5 -17.166 12.5 -32.499c0 -14.667 -4.16699 -25.334 -12.5 -32.001
s-18.5 -10 -30.5 -10z" />
    <glyph glyph-name="ldot" unicode="&#x140;" horiz-adv-x="258" 
d="M90 808h54v-808h-54v808zM246 328c-13.333 0 -23.666 3.33105 -30.999 9.99805s-11 17.334 -11 32.001s3.66699 25.334 11 32.001s17.666 10 30.999 10c12 0 22.167 -3.16699 30.5 -9.5s12.5 -17.166 12.5 -32.499c0 -14.667 -4.16699 -25.334 -12.5 -32.001
s-18.5 -10 -30.5 -10z" />
    <glyph glyph-name="Lslash" unicode="&#x141;" horiz-adv-x="570" 
d="M17 277l107 66v397h54v-364l192 119v-51l-192 -119v-277h377v-48h-431v291l-107 -66v52z" />
    <glyph glyph-name="lslash" unicode="&#x142;" horiz-adv-x="290" 
d="M27 323l95 58v427h54v-394l96 58v-52l-96 -58v-362h-54v329l-95 -58v52z" />
    <glyph glyph-name="Nacute" unicode="&#x143;" horiz-adv-x="807" 
d="M369 811l78 127h58l-90 -134zM102 740h49l433 -565l65 -91h5v656h51v-740h-50l-438 571l-59 83h-5v-654h-51v740z" />
    <glyph glyph-name="nacute" unicode="&#x144;" horiz-adv-x="621" 
d="M299 616l73 183h56l-91 -189zM87 540h44.001l5 -65h5c30.667 14 58.167 25.667 82.5 35s46.166 17 65.499 23s37.333 10.333 54 13s33 4 49 4c46.667 0 82.667 -12 108 -36s38 -61.667 38 -113v-401h-54v380c0 44 -8.83301 75.167 -26.5 93.5s-44.5 27.5 -80.5 27.5
c-30.667 0 -66.167 -6.5 -106.5 -19.5s-83.5 -30.5 -129.5 -52.5v-429h-54v540z" />
    <glyph glyph-name="Ncommaaccent" unicode="&#x145;" horiz-adv-x="807" 
d="M390 -70h58l-59 -150h-49zM102 740h49l433 -565l65 -91h5v656h51v-740h-50l-438 571l-59 83h-5v-654h-51v740z" />
    <glyph glyph-name="ncommaaccent" unicode="&#x146;" horiz-adv-x="621" 
d="M292 -70h58l-59 -150h-49zM87 540h44.001l5 -65h5c30.667 14 58.167 25.667 82.5 35s46.166 17 65.499 23s37.333 10.333 54 13s33 4 49 4c46.667 0 82.667 -12 108 -36s38 -61.667 38 -113v-401h-54v380c0 44 -8.83301 75.167 -26.5 93.5s-44.5 27.5 -80.5 27.5
c-30.667 0 -66.167 -6.5 -106.5 -19.5s-83.5 -30.5 -129.5 -52.5v-429h-54v540z" />
    <glyph glyph-name="Ncaron" unicode="&#x147;" horiz-adv-x="807" 
d="M243 942l160 -73l159 73v-52l-160 -73l-159 73v52zM102 740h49l433 -565l65 -91h5v656h51v-740h-50l-438 571l-59 83h-5v-654h-51v740z" />
    <glyph glyph-name="ncaron" unicode="&#x148;" horiz-adv-x="621" 
d="M154 746l160 -73l160 73v-52l-160 -73l-160 73v52zM87 540h44.001l5 -65h5c30.667 14 58.167 25.667 82.5 35s46.166 17 65.499 23s37.333 10.333 54 13s33 4 49 4c46.667 0 82.667 -12 108 -36s38 -61.667 38 -113v-401h-54v380c0 44 -8.83301 75.167 -26.5 93.5
s-44.5 27.5 -80.5 27.5c-30.667 0 -66.167 -6.5 -106.5 -19.5s-83.5 -30.5 -129.5 -52.5v-429h-54v540z" />
    <glyph glyph-name="napostrophe" unicode="&#x149;" horiz-adv-x="686" 
d="M98 808v-4l-28 -224h-26v228h54zM152 540h44.001l5 -65h5c30.667 14 58.167 25.667 82.5 35s46.166 17 65.499 23s37.333 10.333 54 13s33 4 49 4c46.667 0 82.667 -12 108 -36s38 -61.667 38 -113v-401h-54v380c0 44 -8.83301 75.167 -26.5 93.5s-44.5 27.5 -80.5 27.5
c-30.667 0 -66.167 -6.5 -106.5 -19.5s-83.5 -30.5 -129.5 -52.5v-429h-54v540z" />
    <glyph glyph-name="Eng" unicode="&#x14a;" horiz-adv-x="806" 
d="M575 -174c8 14.667 15.835 30.5 23.502 47.5s14.5 34 20.5 51s11.167 33.5 15.5 49.5s7.16602 30.333 8.49902 43l-425 554l-59 83h-5v-654h-52v740h48l433 -565l65 -91h5v656h52v-661c0 -20 -2.16699 -41.833 -6.5 -65.5s-10.5 -47.5 -18.5 -71.5s-17.333 -47 -28 -69
s-22.334 -41.667 -35.001 -59z" />
    <glyph glyph-name="eng" unicode="&#x14b;" horiz-adv-x="620" 
d="M413 -205c10 18.667 19.334 39.667 28.001 63s16.167 47.5 22.5 72.5s11.333 50.5 15 76.5s5.5 51 5.5 75v292c0 44 -8.33301 75.5 -25 94.5s-44 28.5 -82 28.5c-28.667 0 -62.667 -5.83301 -102 -17.5s-84 -29.167 -134 -52.5v-427h-54v540h44l5 -64h4
c32 14 60.167 25.667 84.5 35s46.166 17 65.499 23s37.166 10.167 53.499 12.5s32.5 3.5 48.5 3.5c97.333 0 146 -49.667 146 -149v-332c0 -24.667 -2.16699 -50.5 -6.5 -77.5s-10.166 -53.5 -17.499 -79.5s-16 -50.333 -26 -73s-20.333 -42 -31 -58z" />
    <glyph glyph-name="Omacron" unicode="&#x14c;" horiz-adv-x="771" 
d="M228 888h315v-46h-315v46zM385 -10c-102 0 -181.667 32.333 -239 97s-86 158.667 -86 282c0 62 7.33301 116.667 22 164s36 87 64 119s62 56.333 102 73s85.667 25 137 25s97.166 -8.33301 137.499 -25s74.5 -41 102.5 -73s49.333 -71.667 64 -119s22 -102 22 -164
s-7.33301 -116.5 -22 -163.5s-36 -86.5 -64 -118.5s-62.167 -56.167 -102.5 -72.5s-86.166 -24.5 -137.499 -24.5zM385 39c87.333 0 154.331 28.668 200.998 86.001s70 138.666 70 243.999c0 107.333 -23.333 189.5 -70 246.5s-113.667 85.5 -201 85.5
s-154.166 -28.5 -200.499 -85.5s-69.5 -139.167 -69.5 -246.5c0 -106 23.333 -187.5 70 -244.5s113.334 -85.5 200.001 -85.5z" />
    <glyph glyph-name="omacron" unicode="&#x14d;" horiz-adv-x="602" 
d="M149 698h316v-46h-316v46zM301 -10c-79.333 0 -140.166 24.167 -182.499 72.5s-63.5 117.5 -63.5 207.5s21.167 159.167 63.5 207.5s103.166 72.5 182.499 72.5s140.166 -24.167 182.499 -72.5s63.5 -117.5 63.5 -207.5s-21.167 -159.167 -63.5 -207.5
s-103.166 -72.5 -182.499 -72.5zM301 38c64.667 0 112.5 19 143.5 57s46.5 96.333 46.5 175s-15.5 137 -46.5 175s-78.833 57 -143.5 57c-126.667 0 -190 -77.333 -190 -232s63.333 -232 190 -232z" />
    <glyph glyph-name="Obreve" unicode="&#x14e;" horiz-adv-x="771" 
d="M384 816c-56.667 0 -99.832 12.333 -129.499 37s-44.5 58.334 -44.5 101.001h46c0 -30.667 11 -54.5 33 -71.5s53.667 -25.5 95 -25.5c40.667 0 72.167 8.5 94.5 25.5s33.5 40.833 33.5 71.5h46c0 -42.667 -14.833 -76.334 -44.5 -101.001s-72.834 -37 -129.501 -37z
M385.002 -10c-102 0 -181.667 32.333 -239 97s-86 158.667 -86 282c0 62 7.33301 116.667 22 164s36 87 64 119s62 56.333 102 73s85.667 25 137 25s97.166 -8.33301 137.499 -25s74.5 -41 102.5 -73s49.333 -71.667 64 -119s22 -102 22 -164s-7.33301 -116.5 -22 -163.5
s-36 -86.5 -64 -118.5s-62.167 -56.167 -102.5 -72.5s-86.166 -24.5 -137.499 -24.5zM385.002 39c87.333 0 154.331 28.668 200.998 86.001s70 138.666 70 243.999c0 107.333 -23.333 189.5 -70 246.5s-113.667 85.5 -201 85.5s-154.166 -28.5 -200.499 -85.5
s-69.5 -139.167 -69.5 -246.5c0 -106 23.333 -187.5 70 -244.5s113.334 -85.5 200.001 -85.5z" />
    <glyph glyph-name="obreve" unicode="&#x14f;" horiz-adv-x="602" 
d="M301 -10c-79.333 0 -140.166 24.167 -182.499 72.5s-63.5 117.5 -63.5 207.5s21.167 159.167 63.5 207.5s103.166 72.5 182.499 72.5s140.166 -24.167 182.499 -72.5s63.5 -117.5 63.5 -207.5s-21.167 -159.167 -63.5 -207.5s-103.166 -72.5 -182.499 -72.5zM301 38
c64.667 0 112.5 19 143.5 57s46.5 96.333 46.5 175s-15.5 137 -46.5 175s-78.833 57 -143.5 57c-126.667 0 -190 -77.333 -190 -232s63.333 -232 190 -232zM301 620c-60.667 0 -105.167 12.833 -133.5 38.5s-42.5 61.5 -42.5 107.5h45c0 -41.333 11.333 -69.833 34 -85.5
s55 -23.5 97 -23.5c40.667 0 72.5 7.83301 95.5 23.5s34.5 44.167 34.5 85.5h46c0 -46 -14.167 -81.833 -42.5 -107.5s-72.833 -38.5 -133.5 -38.5z" />
    <glyph glyph-name="Ohungarumlaut" unicode="&#x150;" horiz-adv-x="771" 
d="M385 -10c-102 0 -181.667 32.333 -239 97s-86 158.667 -86 282c0 62 7.33301 116.667 22 164s36 87 64 119s62 56.333 102 73s85.667 25 137 25s97.166 -8.33301 137.499 -25s74.5 -41 102.5 -73s49.333 -71.667 64 -119s22 -102 22 -164s-7.33301 -116.5 -22 -163.5
s-36 -86.5 -64 -118.5s-62.167 -56.167 -102.5 -72.5s-86.166 -24.5 -137.499 -24.5zM385 39c87.333 0 154.331 28.668 200.998 86.001s70 138.666 70 243.999c0 107.333 -23.333 189.5 -70 246.5s-113.667 85.5 -201 85.5s-154.166 -28.5 -200.499 -85.5
s-69.5 -139.167 -69.5 -246.5c0 -106 23.333 -187.5 70 -244.5s113.334 -85.5 200.001 -85.5zM285.998 809.001l77 120h57l-89 -134zM424.998 809.001l78 120h57l-90 -134z" />
    <glyph glyph-name="ohungarumlaut" unicode="&#x151;" horiz-adv-x="602" 
d="M190 629l73 179h62l-93 -189zM370 629l73 179h61l-93 -189zM301 -10c-79.333 0 -140.166 24.167 -182.499 72.5s-63.5 117.5 -63.5 207.5s21.167 159.167 63.5 207.5s103.166 72.5 182.499 72.5s140.166 -24.167 182.499 -72.5s63.5 -117.5 63.5 -207.5
s-21.167 -159.167 -63.5 -207.5s-103.166 -72.5 -182.499 -72.5zM301 38c64.667 0 112.5 19 143.5 57s46.5 96.333 46.5 175s-15.5 137 -46.5 175s-78.833 57 -143.5 57c-126.667 0 -190 -77.333 -190 -232s63.333 -232 190 -232z" />
    <glyph glyph-name="OE" unicode="&#x152;" horiz-adv-x="998" 
d="M389 -10c-104 0 -184.999 32.167 -242.999 96.5s-87 158.5 -87 282.5s29 218.5 87 283.5s139 97.5 243 97.5c19.333 0 37.166 -0.5 53.499 -1.5s32.833 -3.83301 49.5 -8.5h438v-49h-384v-290h364v-48h-364v-304h392v-49h-446
c-15.333 -3.33301 -31.5 -5.83301 -48.5 -7.5s-35.167 -2.5 -54.5 -2.5zM389.001 39c19.333 0 37.5 0.833008 54.5 2.5s33.167 5.16699 48.5 10.5v636c-16 5.33301 -32.333 8.83301 -49 10.5s-34.667 2.5 -54 2.5c-88.667 0 -156.667 -28.5 -204 -85.5
s-71 -139.167 -71 -246.5c0 -106 23.833 -187.5 71.5 -244.5s115.5 -85.5 203.5 -85.5z" />
    <glyph glyph-name="oe" unicode="&#x153;" horiz-adv-x="993" 
d="M744 -9c-58.667 0 -106.667 11.668 -144 35.001s-63.666 57 -78.999 101h-5c-16 -44 -42.333 -77.833 -79 -101.5s-82 -35.5 -136 -35.5c-79.333 0 -140.166 24.167 -182.499 72.5s-63.5 117.5 -63.5 207.5s21.167 159.167 63.5 207.5s103.166 72.5 182.499 72.5
c55.333 0 101.333 -12.333 138 -37s62.667 -59.667 78 -105h5c16 45.333 42 80.166 78 104.499s81.667 36.5 137 36.5c65.333 0 115.166 -20.5 149.499 -61.5s51.5 -100.5 51.5 -178.5c0 -30 -1.33301 -50.333 -4 -61h-387c4 -139.333 72 -209 204 -209
c25.333 0 51.5 2.33301 78.5 7s55.833 12 86.5 22l5 -45c-26.667 -9.33301 -56 -17 -88 -23s-61.667 -9 -89 -9zM301 38.001c64.667 0 112.5 19 143.5 57s46.5 96.333 46.5 175s-15.5 137 -46.5 175s-78.833 57 -143.5 57c-126.667 0 -190 -77.333 -190 -232
s63.333 -232 190 -232zM886 289.001c-2 76.667 -14.667 131.5 -38 164.5s-61 49.5 -113 49.5c-119.333 0 -182 -71.333 -188 -214h339z" />
    <glyph glyph-name="Racute" unicode="&#x154;" horiz-adv-x="682" 
d="M386 291c-14.667 -2 -30.1699 -3.33203 -46.5029 -3.99902s-33.166 -1 -50.499 -1c-18.667 0 -39.167 0.666992 -61.5 2s-46.166 3.33301 -71.499 6v-294h-54v735c60.667 10 119.667 15 177 15c59.333 0 110.333 -4.5 153 -13.5s77.834 -23 105.501 -42s48 -43 61 -72
s19.5 -63.833 19.5 -104.5c0 -60.667 -14.167 -108.834 -42.5 -144.501s-73.5 -60.167 -135.5 -73.5l203 -300h-63zM292.997 333.001c48.667 0 90.168 3.33496 124.501 10.002s62.166 17.5 83.499 32.5s37 34.167 47 57.5s15 51.666 15 84.999c0 64 -22 110.5 -66 139.5
s-115 43.5 -213 43.5c-21.333 0 -44 -0.833008 -68 -2.5s-44 -3.83398 -60 -6.50098v-347c4.66699 -1.33301 11.667 -2.83301 21 -4.5s20.333 -3 33 -4s26.167 -1.83301 40.5 -2.5s28.5 -1 42.5 -1zM310.998 811.003l78 127h58l-90 -134z" />
    <glyph glyph-name="racute" unicode="&#x155;" horiz-adv-x="388" 
d="M208 616l73 183h56l-91 -189zM87 540h44.002l5 -76h4l68.5 32.5c20.333 9.66699 39.166 18.167 56.499 25.5s33.333 13.333 48 18s29 7.66699 43 9h19v-53h-18c-30.667 -3.33301 -64.334 -12.5 -101.001 -27.5s-75 -32.167 -115 -51.5v-417h-54v540z" />
    <glyph glyph-name="Rcommaaccent" unicode="&#x156;" horiz-adv-x="682" 
d="M330 -70h58l-59 -150h-49zM386 291c-14.667 -2 -30.1699 -3.33203 -46.5029 -3.99902s-33.166 -1 -50.499 -1c-18.667 0 -39.167 0.666992 -61.5 2s-46.166 3.33301 -71.499 6v-294h-54v735c60.667 10 119.667 15 177 15c59.333 0 110.333 -4.5 153 -13.5
s77.834 -23 105.501 -42s48 -43 61 -72s19.5 -63.833 19.5 -104.5c0 -60.667 -14.167 -108.834 -42.5 -144.501s-73.5 -60.167 -135.5 -73.5l203 -300h-63zM292.997 333.001c48.667 0 90.168 3.33496 124.501 10.002s62.166 17.5 83.499 32.5s37 34.167 47 57.5
s15 51.666 15 84.999c0 64 -22 110.5 -66 139.5s-115 43.5 -213 43.5c-21.333 0 -44 -0.833008 -68 -2.5s-44 -3.83398 -60 -6.50098v-347c4.66699 -1.33301 11.667 -2.83301 21 -4.5s20.333 -3 33 -4s26.167 -1.83301 40.5 -2.5s28.5 -1 42.5 -1z" />
    <glyph glyph-name="rcommaaccent" unicode="&#x157;" horiz-adv-x="388" 
d="M95 -70h58l-59 -150h-49zM87 540h44.002l5 -76h4l68.5 32.5c20.333 9.66699 39.166 18.167 56.499 25.5s33.333 13.333 48 18s29 7.66699 43 9h19v-53h-18c-30.667 -3.33301 -64.334 -12.5 -101.001 -27.5s-75 -32.167 -115 -51.5v-417h-54v540z" />
    <glyph glyph-name="Rcaron" unicode="&#x158;" horiz-adv-x="682" 
d="M182 942l160 -73l159 73v-52l-160 -73l-159 73v52zM386 291c-14.667 -2 -30.1699 -3.33203 -46.5029 -3.99902s-33.166 -1 -50.499 -1c-18.667 0 -39.167 0.666992 -61.5 2s-46.166 3.33301 -71.499 6v-294h-54v735c60.667 10 119.667 15 177 15
c59.333 0 110.333 -4.5 153 -13.5s77.834 -23 105.501 -42s48 -43 61 -72s19.5 -63.833 19.5 -104.5c0 -60.667 -14.167 -108.834 -42.5 -144.501s-73.5 -60.167 -135.5 -73.5l203 -300h-63zM292.997 333.001c48.667 0 90.168 3.33496 124.501 10.002
s62.166 17.5 83.499 32.5s37 34.167 47 57.5s15 51.666 15 84.999c0 64 -22 110.5 -66 139.5s-115 43.5 -213 43.5c-21.333 0 -44 -0.833008 -68 -2.5s-44 -3.83398 -60 -6.50098v-347c4.66699 -1.33301 11.667 -2.83301 21 -4.5s20.333 -3 33 -4s26.167 -1.83301 40.5 -2.5
s28.5 -1 42.5 -1z" />
    <glyph glyph-name="rcaron" unicode="&#x159;" horiz-adv-x="388" 
d="M66 746l160 -73l160 73v-52l-160 -73l-160 73v52zM87 540h44.002l5 -76h4l68.5 32.5c20.333 9.66699 39.166 18.167 56.499 25.5s33.333 13.333 48 18s29 7.66699 43 9h19v-53h-18c-30.667 -3.33301 -64.334 -12.5 -101.001 -27.5s-75 -32.167 -115 -51.5v-417h-54v540z
" />
    <glyph glyph-name="Sacute" unicode="&#x15a;" horiz-adv-x="588" 
d="M278 -10c-32 0 -68.167 2.66797 -108.5 8.00098s-80.5 12.666 -120.5 21.999v49c40.667 -9.33301 81.334 -16.666 122.001 -21.999s76.667 -8 108 -8c66 0 117 12.5 153 37.5s54 60.5 54 106.5c0 28 -5.5 51.333 -16.5 70s-25.5 34 -43.5 46s-38.833 21.833 -62.5 29.5
s-48.167 14.834 -73.5 21.501c-42 10.667 -77.333 22.5 -106 35.5s-51.834 28 -69.501 45s-30.5 36.167 -38.5 57.5s-12 46 -12 74c0 29.333 6 56 18 80s28.833 44.5 50.5 61.5s47.834 30.167 78.501 39.5s64.667 14 102 14c27.333 0 57.166 -2 89.499 -6
s66.5 -10 102.5 -18v-51c-32 8.66699 -64.5 15.167 -97.5 19.5s-63.5 6.5 -91.5 6.5c-60 0 -107.5 -13.167 -142.5 -39.5s-52.5 -61.5 -52.5 -105.5c0 -21.333 3.16699 -40 9.5 -56s17 -30.5 32 -43.5s34.5 -24.667 58.5 -35s54 -20.5 90 -30.5c30 -8 59 -16.833 87 -26.5
s52.667 -22.167 74 -37.5s38.5 -34.833 51.5 -58.5s19.5 -53.834 19.5 -90.501c0 -62.667 -22.833 -110.834 -68.5 -144.501s-111.167 -50.5 -196.5 -50.5zM269 811.001l78 127h58l-90 -134z" />
    <glyph glyph-name="sacute" unicode="&#x15b;" horiz-adv-x="474" 
d="M215 616l73 183h56l-91 -189zM231 -10c-11.333 0 -22.667 0.333984 -34 1.00098s-24 2 -38 4s-29.667 4.5 -47 7.5s-37.666 6.83301 -60.999 11.5v48c33.333 -8 64.833 -14.333 94.5 -19s57.834 -7 84.501 -7c46 0 81.167 9.16699 105.5 27.5s36.5 44.5 36.5 78.5
c0 19.333 -3.5 35.333 -10.5 48s-16.5 23.167 -28.5 31.5s-25.833 14.833 -41.5 19.5s-32.5 8.66699 -50.5 12c-21.333 4 -42.833 8.66699 -64.5 14s-41.167 13.333 -58.5 24s-31.5 25.167 -42.5 43.5s-16.5 42.5 -16.5 72.5c0 46 17.167 81.833 51.5 107.5
s81.833 38.5 142.5 38.5c10.667 0 20.834 -0.333008 30.501 -1s20.167 -1.66699 31.5 -3s24.333 -3.33301 39 -6s32 -6 52 -10l-4 -49c-34.667 7.33301 -62.834 12.666 -84.501 15.999s-42.5 5 -62.5 5c-46 0 -81.167 -8.33301 -105.5 -25s-36.5 -41 -36.5 -73
c0 -19.333 3.83301 -35 11.5 -47s18.167 -21.833 31.5 -29.5s28.666 -13.834 45.999 -18.501s35.666 -9 54.999 -13c22 -4.66699 43.167 -10.167 63.5 -16.5s38.333 -15.166 54 -26.499s28.167 -26 37.5 -44s14 -41 14 -69c0 -48 -17 -85.5 -51 -112.5s-82 -40.5 -144 -40.5
z" />
    <glyph glyph-name="Scircumflex" unicode="&#x15c;" horiz-adv-x="588" 
d="M278 -10c-32 0 -68.167 2.66797 -108.5 8.00098s-80.5 12.666 -120.5 21.999v49c40.667 -9.33301 81.334 -16.666 122.001 -21.999s76.667 -8 108 -8c66 0 117 12.5 153 37.5s54 60.5 54 106.5c0 28 -5.5 51.333 -16.5 70s-25.5 34 -43.5 46s-38.833 21.833 -62.5 29.5
s-48.167 14.834 -73.5 21.501c-42 10.667 -77.333 22.5 -106 35.5s-51.834 28 -69.501 45s-30.5 36.167 -38.5 57.5s-12 46 -12 74c0 29.333 6 56 18 80s28.833 44.5 50.5 61.5s47.834 30.167 78.501 39.5s64.667 14 102 14c27.333 0 57.166 -2 89.499 -6
s66.5 -10 102.5 -18v-51c-32 8.66699 -64.5 15.167 -97.5 19.5s-63.5 6.5 -91.5 6.5c-60 0 -107.5 -13.167 -142.5 -39.5s-52.5 -61.5 -52.5 -105.5c0 -21.333 3.16699 -40 9.5 -56s17 -30.5 32 -43.5s34.5 -24.667 58.5 -35s54 -20.5 90 -30.5c30 -8 59 -16.833 87 -26.5
s52.667 -22.167 74 -37.5s38.5 -34.833 51.5 -58.5s19.5 -53.834 19.5 -90.501c0 -62.667 -22.833 -110.834 -68.5 -144.501s-111.167 -50.5 -196.5 -50.5zM141 869.001l160 73l160 -73v-52l-160 73l-160 -73v52z" />
    <glyph glyph-name="scircumflex" unicode="&#x15d;" horiz-adv-x="474" 
d="M75 691l159 73l160 -73v-52l-160 73l-159 -73v52zM231 -10c-11.333 0 -22.667 0.333984 -34 1.00098s-24 2 -38 4s-29.667 4.5 -47 7.5s-37.666 6.83301 -60.999 11.5v48c33.333 -8 64.833 -14.333 94.5 -19s57.834 -7 84.501 -7c46 0 81.167 9.16699 105.5 27.5
s36.5 44.5 36.5 78.5c0 19.333 -3.5 35.333 -10.5 48s-16.5 23.167 -28.5 31.5s-25.833 14.833 -41.5 19.5s-32.5 8.66699 -50.5 12c-21.333 4 -42.833 8.66699 -64.5 14s-41.167 13.333 -58.5 24s-31.5 25.167 -42.5 43.5s-16.5 42.5 -16.5 72.5
c0 46 17.167 81.833 51.5 107.5s81.833 38.5 142.5 38.5c10.667 0 20.834 -0.333008 30.501 -1s20.167 -1.66699 31.5 -3s24.333 -3.33301 39 -6s32 -6 52 -10l-4 -49c-34.667 7.33301 -62.834 12.666 -84.501 15.999s-42.5 5 -62.5 5c-46 0 -81.167 -8.33301 -105.5 -25
s-36.5 -41 -36.5 -73c0 -19.333 3.83301 -35 11.5 -47s18.167 -21.833 31.5 -29.5s28.666 -13.834 45.999 -18.501s35.666 -9 54.999 -13c22 -4.66699 43.167 -10.167 63.5 -16.5s38.333 -15.166 54 -26.499s28.167 -26 37.5 -44s14 -41 14 -69c0 -48 -17 -85.5 -51 -112.5
s-82 -40.5 -144 -40.5z" />
    <glyph glyph-name="uni015E" unicode="&#x15e;" horiz-adv-x="588" 
d="M266 -220c-12.667 0 -26.499 1.00098 -41.499 3.00098s-29.833 5 -44.5 9v44c14.667 -4 27.334 -6.83301 38.001 -8.5s21.667 -2.5 33 -2.5c32 0 54.5 5.5 67.5 16.5s19.5 29.5 19.5 55.5c0 14.667 -2.33301 28.667 -7 42s-13 30.666 -25 51.999
c-4.66699 -0.666992 -9.33398 -1 -14.001 -1h-14c-32 0 -68.167 2.66699 -108.5 8s-80.5 12.666 -120.5 21.999v49c40.667 -9.33301 81.334 -16.666 122.001 -21.999s76.667 -8 108 -8c66 0 117 12.5 153 37.5s54 60.5 54 106.5c0 28 -5.5 51.333 -16.5 70
s-25.5 34 -43.5 46s-38.833 21.833 -62.5 29.5s-48.167 14.834 -73.5 21.501c-42 10.667 -77.333 22.5 -106 35.5s-51.834 28 -69.501 45s-30.5 36.167 -38.5 57.5s-12 46 -12 74c0 29.333 6 56 18 80s28.833 44.5 50.5 61.5s47.834 30.167 78.501 39.5s64.667 14 102 14
c27.333 0 57.166 -2 89.499 -6s66.5 -10 102.5 -18v-51c-32 8.66699 -64.5 15.167 -97.5 19.5s-63.5 6.5 -91.5 6.5c-60 0 -107.5 -13.167 -142.5 -39.5s-52.5 -61.5 -52.5 -105.5c0 -21.333 3.16699 -40 9.5 -56s17 -30.5 32 -43.5s34.5 -24.667 58.5 -35
s54 -20.5 90 -30.5c30 -8 59 -16.833 87 -26.5s52.667 -22.167 74 -37.5s38.5 -34.833 51.5 -58.5s19.5 -53.834 19.5 -90.501c0 -53.333 -16.333 -96 -49 -128s-80 -52.667 -142 -62c14 -26 23.167 -45.667 27.5 -59s6.5 -27 6.5 -41c0 -37.333 -10.333 -65.833 -31 -85.5
s-50.334 -29.5 -89.001 -29.5z" />
    <glyph glyph-name="uni015F" unicode="&#x15f;" horiz-adv-x="474" 
d="M200 -220c-12.667 0 -26.501 1.00098 -41.501 3.00098s-29.833 5 -44.5 9v44c14.667 -4 27.334 -6.83301 38.001 -8.5s21.667 -2.5 33 -2.5c32 0 54.5 5.5 67.5 16.5s19.5 29.5 19.5 55.5c0 14 -2.33301 27.667 -7 41s-13 30.666 -25 51.999h-9
c-11.333 0 -22.666 0.333008 -33.999 1s-24 2 -38 4s-29.667 4.5 -47 7.5s-37.666 6.83301 -60.999 11.5v48c33.333 -8 64.833 -14.333 94.5 -19s57.834 -7 84.501 -7c46 0 81.167 9.16699 105.5 27.5s36.5 44.5 36.5 78.5c0 19.333 -3.5 35.333 -10.5 48
s-16.5 23.167 -28.5 31.5s-25.833 14.833 -41.5 19.5s-32.5 8.66699 -50.5 12c-21.333 4 -42.833 8.66699 -64.5 14s-41.167 13.333 -58.5 24s-31.5 25.167 -42.5 43.5s-16.5 42.5 -16.5 72.5c0 46 17.167 81.833 51.5 107.5s81.833 38.5 142.5 38.5
c10.667 0 20.834 -0.333008 30.501 -1s20.167 -1.66699 31.5 -3s24.333 -3.33301 39 -6s32 -6 52 -10l-4 -49c-34.667 7.33301 -62.834 12.666 -84.501 15.999s-42.5 5 -62.5 5c-46 0 -81.167 -8.33301 -105.5 -25s-36.5 -41 -36.5 -73c0 -19.333 3.83301 -35 11.5 -47
s18.167 -21.833 31.5 -29.5s28.666 -13.834 45.999 -18.501s35.666 -9 54.999 -13c22 -4.66699 43.167 -10.167 63.5 -16.5s38.333 -15.166 54 -26.499s28.167 -26 37.5 -44s14 -41 14 -69c0 -40.667 -12.167 -73.667 -36.5 -99s-58.833 -41.666 -103.5 -48.999
c14 -26 23.167 -45.667 27.5 -59s6.5 -27 6.5 -41c0 -37.333 -10.333 -65.833 -31 -85.5s-50.334 -29.5 -89.001 -29.5z" />
    <glyph glyph-name="Scaron" unicode="&#x160;" horiz-adv-x="588" 
d="M278 -10c-32 0 -68.167 2.66797 -108.5 8.00098s-80.5 12.666 -120.5 21.999v49c40.667 -9.33301 81.334 -16.666 122.001 -21.999s76.667 -8 108 -8c66 0 117 12.5 153 37.5s54 60.5 54 106.5c0 28 -5.5 51.333 -16.5 70s-25.5 34 -43.5 46s-38.833 21.833 -62.5 29.5
s-48.167 14.834 -73.5 21.501c-42 10.667 -77.333 22.5 -106 35.5s-51.834 28 -69.501 45s-30.5 36.167 -38.5 57.5s-12 46 -12 74c0 29.333 6 56 18 80s28.833 44.5 50.5 61.5s47.834 30.167 78.501 39.5s64.667 14 102 14c27.333 0 57.166 -2 89.499 -6
s66.5 -10 102.5 -18v-51c-32 8.66699 -64.5 15.167 -97.5 19.5s-63.5 6.5 -91.5 6.5c-60 0 -107.5 -13.167 -142.5 -39.5s-52.5 -61.5 -52.5 -105.5c0 -21.333 3.16699 -40 9.5 -56s17 -30.5 32 -43.5s34.5 -24.667 58.5 -35s54 -20.5 90 -30.5c30 -8 59 -16.833 87 -26.5
s52.667 -22.167 74 -37.5s38.5 -34.833 51.5 -58.5s19.5 -53.834 19.5 -90.501c0 -62.667 -22.833 -110.834 -68.5 -144.501s-111.167 -50.5 -196.5 -50.5zM140 942.001l160 -73l159 73v-52l-160 -73l-159 73v52z" />
    <glyph glyph-name="scaron" unicode="&#x161;" horiz-adv-x="474" 
d="M74 746l160 -73l160 73v-52l-160 -73l-160 73v52zM231 -10c-11.333 0 -22.667 0.333984 -34 1.00098s-24 2 -38 4s-29.667 4.5 -47 7.5s-37.666 6.83301 -60.999 11.5v48c33.333 -8 64.833 -14.333 94.5 -19s57.834 -7 84.501 -7c46 0 81.167 9.16699 105.5 27.5
s36.5 44.5 36.5 78.5c0 19.333 -3.5 35.333 -10.5 48s-16.5 23.167 -28.5 31.5s-25.833 14.833 -41.5 19.5s-32.5 8.66699 -50.5 12c-21.333 4 -42.833 8.66699 -64.5 14s-41.167 13.333 -58.5 24s-31.5 25.167 -42.5 43.5s-16.5 42.5 -16.5 72.5
c0 46 17.167 81.833 51.5 107.5s81.833 38.5 142.5 38.5c10.667 0 20.834 -0.333008 30.501 -1s20.167 -1.66699 31.5 -3s24.333 -3.33301 39 -6s32 -6 52 -10l-4 -49c-34.667 7.33301 -62.834 12.666 -84.501 15.999s-42.5 5 -62.5 5c-46 0 -81.167 -8.33301 -105.5 -25
s-36.5 -41 -36.5 -73c0 -19.333 3.83301 -35 11.5 -47s18.167 -21.833 31.5 -29.5s28.666 -13.834 45.999 -18.501s35.666 -9 54.999 -13c22 -4.66699 43.167 -10.167 63.5 -16.5s38.333 -15.166 54 -26.499s28.167 -26 37.5 -44s14 -41 14 -69c0 -48 -17 -85.5 -51 -112.5
s-82 -40.5 -144 -40.5z" />
    <glyph glyph-name="uni0162" unicode="&#x162;" horiz-adv-x="623" 
d="M254 -220c-12.667 0 -26.499 1.00098 -41.499 3.00098s-29.833 5 -44.5 9v44c14.667 -4 27.334 -6.83301 38.001 -8.5s21.667 -2.5 33 -2.5c32 0 54.5 5.5 67.5 16.5s19.5 29.5 19.5 55.5c0 14.667 -2.83301 29 -8.5 43s-16.834 34 -33.501 60v691h-267v49h590v-49h-268
v-691c7.33301 -14 13.333 -26 18 -36s8.16699 -18.833 10.5 -26.5s4 -14.834 5 -21.501s1.5 -13.667 1.5 -21c0 -37.333 -10.333 -65.833 -31 -85.5s-50.334 -29.5 -89.001 -29.5z" />
    <glyph glyph-name="uni0163" unicode="&#x163;" horiz-adv-x="397" 
d="M200 -220c-12.667 0 -26.499 1 -41.499 3s-29.833 5 -44.5 9v44c14.667 -4 27.334 -6.83301 38.001 -8.5s21.667 -2.5 33 -2.5c32 0 54.5 5.5 67.5 16.5s19.5 29.5 19.5 55.5c0 14.667 -2.5 29.167 -7.5 43.5s-14.5 33.5 -28.5 57.5
c-62.667 15.333 -94 61.666 -94 138.999v353h-125v50h127l8 124l44 7v-131h177v-50h-177v-342c0 -72.667 34.667 -109 104 -109c24.667 0 52 4.33301 82 13v-47c-16.667 -4.66699 -33 -8 -49 -10s-31.333 -3 -46 -3c6.66699 -12.667 12.167 -23.5 16.5 -32.5
s7.66602 -17.167 9.99902 -24.5s4 -14.166 5 -20.499s1.5 -12.833 1.5 -19.5c0 -37.333 -10.333 -65.833 -31 -85.5s-50.334 -29.5 -89.001 -29.5z" />
    <glyph glyph-name="Tcaron" unicode="&#x164;" horiz-adv-x="623" 
d="M153 942l160 -73l159 73v-52l-160 -73l-159 73v52zM284 691h-267v49h590v-49h-268v-691h-55v691z" />
    <glyph glyph-name="tcaron" unicode="&#x165;" horiz-adv-x="386" 
d="M287 -8c-96.667 0 -145 48.333 -145 145v353h-125v50h127l8 124l44 7v-131h114v-50h-114v-342c0 -72.667 34.667 -109 104 -109c24.667 0 52 4.33301 82 13v-47c-16.667 -4.66699 -33 -8 -49 -10s-31.333 -3 -46 -3zM305 808h48l-23 -228h-25v228z" />
    <glyph glyph-name="Tbar" unicode="&#x166;" horiz-adv-x="634" 
d="M149 408h139v283h-267v49h590v-49h-268v-283h147v-43h-147v-365h-55v365h-139v43z" />
    <glyph glyph-name="tbar" unicode="&#x167;" horiz-adv-x="410" 
d="M30 346h124v144h-125v50h127l8 124l44 7v-131h177v-50h-177v-144h163v-44h-163v-154c0 -72.667 34.667 -109 104 -109c24.667 0 52 4.33301 82 13v-47c-16.667 -4.66699 -33 -8 -49 -10s-31.333 -3 -46 -3c-96.667 0 -145 48.333 -145 145v165h-124v44z" />
    <glyph glyph-name="Utilde" unicode="&#x168;" horiz-adv-x="774" 
d="M191 867c38 38 78.3311 57 120.998 57c16 0 31 -2.16699 45 -6.5s27.667 -9.16602 41 -14.499s26.5 -10.166 39.5 -14.499s27.167 -6.5 42.5 -6.5c34 0 66.667 12.667 98 38l24 -26c-18 -18 -38.167 -32 -60.5 -42s-45.166 -15 -68.499 -15c-14 0 -28 2.16699 -42 6.5
s-27.833 9.16602 -41.5 14.499s-27.167 10.166 -40.5 14.499s-26.666 6.5 -39.999 6.5c-16 0 -31.667 -2.83301 -47 -8.5s-31 -15.167 -47 -28.5zM386.998 -10c-50 0 -93.333 5.66699 -130 17s-67.167 29.5 -91.5 54.5s-42.333 57 -54 96s-17.5 86.167 -17.5 141.5v440h54
v-434c0 -49.333 5.16699 -90.833 15.5 -124.5s25.5 -61 45.5 -82s44.833 -36.167 74.5 -45.5s64.167 -14 103.5 -14c38.667 0 73 4.66699 103 14s55 24.5 75 45.5s35.167 48.333 45.5 82s15.5 75.167 15.5 124.5v434h54v-440c0 -55.333 -5.83301 -102.5 -17.5 -141.5
s-29.667 -71 -54 -96s-54.833 -43.167 -91.5 -54.5s-80 -17 -130 -17z" />
    <glyph glyph-name="utilde" unicode="&#x169;" horiz-adv-x="621" 
d="M215 -10c-88 0 -132 49.666 -132 148.999v401h54v-381c0 -42 7.33301 -72.333 22 -91s39 -28 73 -28c40 0 80 7.66699 120 23s82.667 33 128 53v424h54v-540h-44l-5 70h-4l-85.5 -36c-23.667 -10 -45.167 -18.167 -64.5 -24.5s-38 -11.166 -56 -14.499s-38 -5 -60 -5z
M100 686.999c37.333 38 77.3301 56.998 119.997 56.998c16 0 31 -2.16699 45 -6.5s27.667 -9.16602 41 -14.499s26.5 -10.166 39.5 -14.499s27.167 -6.5 42.5 -6.5c34 0 66.667 12.333 98 37l24 -25c-18 -18 -38.167 -32.167 -60.5 -42.5s-45.166 -15.5 -68.499 -15.5
c-14 0 -28 2.16699 -42 6.5s-27.833 9.33301 -41.5 15s-27.167 10.667 -40.5 15s-26.666 6.5 -39.999 6.5c-16 0 -31.667 -2.83301 -47 -8.5s-30.666 -15.167 -45.999 -28.5z" />
    <glyph glyph-name="Umacron" unicode="&#x16a;" horiz-adv-x="774" 
d="M226 888h315v-46h-315v46zM387 -10c-50 0 -93.333 5.66699 -130 17s-67.167 29.5 -91.5 54.5s-42.333 57 -54 96s-17.5 86.167 -17.5 141.5v440h54v-434c0 -49.333 5.16699 -90.833 15.5 -124.5s25.5 -61 45.5 -82s44.833 -36.167 74.5 -45.5s64.167 -14 103.5 -14
c38.667 0 73 4.66699 103 14s55 24.5 75 45.5s35.167 48.333 45.5 82s15.5 75.167 15.5 124.5v434h54v-440c0 -55.333 -5.83301 -102.5 -17.5 -141.5s-29.667 -71 -54 -96s-54.833 -43.167 -91.5 -54.5s-80 -17 -130 -17z" />
    <glyph glyph-name="umacron" unicode="&#x16b;" horiz-adv-x="621" 
d="M215 -10c-88 0 -132 49.666 -132 148.999v401h54v-381c0 -42 7.33301 -72.333 22 -91s39 -28 73 -28c40 0 80 7.66699 120 23s82.667 33 128 53v424h54v-540h-44l-5 70h-4l-85.5 -36c-23.667 -10 -45.167 -18.167 -64.5 -24.5s-38 -11.166 -56 -14.499s-38 -5 -60 -5z
M152 697.999h316v-46h-316v46z" />
    <glyph glyph-name="Ubreve" unicode="&#x16c;" horiz-adv-x="774" 
d="M383 816c-56.667 0 -99.832 12.333 -129.499 37s-44.5 58.334 -44.5 101.001h46c0 -30.667 11 -54.5 33 -71.5s53.667 -25.5 95 -25.5c40.667 0 72.167 8.5 94.5 25.5s33.5 40.833 33.5 71.5h46c0 -42.667 -14.833 -76.334 -44.5 -101.001s-72.834 -37 -129.501 -37z
M387.002 -10c-50 0 -93.333 5.66699 -130 17s-67.167 29.5 -91.5 54.5s-42.333 57 -54 96s-17.5 86.167 -17.5 141.5v440h54v-434c0 -49.333 5.16699 -90.833 15.5 -124.5s25.5 -61 45.5 -82s44.833 -36.167 74.5 -45.5s64.167 -14 103.5 -14c38.667 0 73 4.66699 103 14
s55 24.5 75 45.5s35.167 48.333 45.5 82s15.5 75.167 15.5 124.5v434h54v-440c0 -55.333 -5.83301 -102.5 -17.5 -141.5s-29.667 -71 -54 -96s-54.833 -43.167 -91.5 -54.5s-80 -17 -130 -17z" />
    <glyph glyph-name="ubreve" unicode="&#x16d;" horiz-adv-x="621" 
d="M215 -10c-88 0 -132 49.666 -132 148.999v401h54v-381c0 -42 7.33301 -72.333 22 -91s39 -28 73 -28c40 0 80 7.66699 120 23s82.667 33 128 53v424h54v-540h-44l-5 70h-4l-85.5 -36c-23.667 -10 -45.167 -18.167 -64.5 -24.5s-38 -11.166 -56 -14.499s-38 -5 -60 -5z
M304 619.999c-60.667 0 -105.167 12.833 -133.5 38.5s-42.5 61.5 -42.5 107.5h45c0 -41.333 11.333 -69.833 34 -85.5s55 -23.5 97 -23.5c40.667 0 72.5 7.83301 95.5 23.5s34.5 44.167 34.5 85.5h46c0 -46 -14.167 -81.833 -42.5 -107.5s-72.833 -38.5 -133.5 -38.5z" />
    <glyph glyph-name="Uring" unicode="&#x16e;" horiz-adv-x="774" 
d="M387 -10c-50 0 -93.333 5.66699 -130 17s-67.167 29.5 -91.5 54.5s-42.333 57 -54 96s-17.5 86.167 -17.5 141.5v440h54v-434c0 -49.333 5.16699 -90.833 15.5 -124.5s25.5 -61 45.5 -82s44.833 -36.167 74.5 -45.5s64.167 -14 103.5 -14c38.667 0 73 4.66699 103 14
s55 24.5 75 45.5s35.167 48.333 45.5 82s15.5 75.167 15.5 124.5v434h54v-440c0 -55.333 -5.83301 -102.5 -17.5 -141.5s-29.667 -71 -54 -96s-54.833 -43.167 -91.5 -54.5s-80 -17 -130 -17zM385 803c-17.333 0 -33.5 2.66699 -48.5 8s-28 12.833 -39 22.5
s-19.667 21 -26 34s-9.5 27.167 -9.5 42.5s3.16699 29.666 9.5 42.999s15 24.833 26 34.5s24 17.167 39 22.5s31.167 8 48.5 8c34.667 0 63.5 -10.167 86.5 -30.5s34.5 -46.166 34.5 -77.499c0 -30.667 -11.5 -56.167 -34.5 -76.5s-51.833 -30.5 -86.5 -30.5zM385 841
c25.333 0 45.166 6.16699 59.499 18.5s21.5 29.166 21.5 50.499c0 22 -7.16699 39.167 -21.5 51.5s-34.166 18.5 -59.499 18.5s-45.333 -6.16699 -60 -18.5s-22 -29.5 -22 -51.5c0 -21.333 7.33301 -38.166 22 -50.499s34.667 -18.5 60 -18.5z" />
    <glyph glyph-name="uring" unicode="&#x16f;" horiz-adv-x="621" 
d="M305 603c-17.333 0 -33.499 2.66699 -48.499 8s-28 12.833 -39 22.5s-19.667 21 -26 34s-9.5 27.167 -9.5 42.5c0 31.333 11.667 57.166 35 77.499s52.666 30.5 87.999 30.5c34.667 0 63.5 -10.167 86.5 -30.5s34.5 -46.166 34.5 -77.499
c0 -30.667 -11.5 -56.167 -34.5 -76.5s-51.833 -30.5 -86.5 -30.5zM305.001 641c25.333 0 45.166 6.16699 59.499 18.5s21.5 29.166 21.5 50.499c0 22 -7.16699 39.167 -21.5 51.5s-34.166 18.5 -59.499 18.5c-26 0 -46.333 -6.16699 -61 -18.5s-22 -29.5 -22 -51.5
c0 -21.333 7.33301 -38.166 22 -50.499s35 -18.5 61 -18.5zM215.001 -10c-88 0 -132 49.666 -132 148.999v401h54v-381c0 -42 7.33301 -72.333 22 -91s39 -28 73 -28c40 0 80 7.66699 120 23s82.667 33 128 53v424h54v-540h-44l-5 70h-4l-85.5 -36
c-23.667 -10 -45.167 -18.167 -64.5 -24.5s-38 -11.166 -56 -14.499s-38 -5 -60 -5z" />
    <glyph glyph-name="Uhungarumlaut" unicode="&#x170;" horiz-adv-x="774" 
d="M387 -10c-50 0 -93.333 5.66699 -130 17s-67.167 29.5 -91.5 54.5s-42.333 57 -54 96s-17.5 86.167 -17.5 141.5v440h54v-434c0 -49.333 5.16699 -90.833 15.5 -124.5s25.5 -61 45.5 -82s44.833 -36.167 74.5 -45.5s64.167 -14 103.5 -14c38.667 0 73 4.66699 103 14
s55 24.5 75 45.5s35.167 48.333 45.5 82s15.5 75.167 15.5 124.5v434h54v-440c0 -55.333 -5.83301 -102.5 -17.5 -141.5s-29.667 -71 -54 -96s-54.833 -43.167 -91.5 -54.5s-80 -17 -130 -17zM287 809l77 120h57l-89 -134zM426 809l78 120h57l-90 -134z" />
    <glyph glyph-name="uhungarumlaut" unicode="&#x171;" horiz-adv-x="621" 
d="M215 -10c-88 0 -132 49.666 -132 148.999v401h54v-381c0 -42 7.33301 -72.333 22 -91s39 -28 73 -28c40 0 80 7.66699 120 23s82.667 33 128 53v424h54v-540h-44l-5 70h-4l-85.5 -36c-23.667 -10 -45.167 -18.167 -64.5 -24.5s-38 -11.166 -56 -14.499s-38 -5 -60 -5z
M192 628.999l73 179h62l-93 -189zM372 628.999l73 179h61l-93 -189z" />
    <glyph glyph-name="Uogonek" unicode="&#x172;" horiz-adv-x="774" 
d="M366 -206c-32 0 -55.1689 6.16406 -69.502 18.4971s-21.5 31.5 -21.5 57.5c0 23.333 6.16699 44 18.5 62s34.5 37.667 66.5 59c-45.333 2 -84.666 9.33301 -117.999 22s-61 31.334 -83 56.001s-38.333 56 -49 94s-16 83.333 -16 136v440h54v-434
c0 -49.333 5.16699 -90.833 15.5 -124.5s25.5 -61 45.5 -82s44.833 -36.167 74.5 -45.5s64.167 -14 103.5 -14c38.667 0 73 4.66699 103 14s55 24.5 75 45.5s35.167 48.333 45.5 82s15.5 75.167 15.5 124.5v434h54v-440c0 -100 -19.5 -174.167 -58.5 -222.5
s-98.833 -76.166 -179.5 -83.499v-1c-44 -21.333 -75.5 -41.333 -94.5 -60s-28.5 -38.667 -28.5 -60c0 -26.667 17.667 -40 53 -40c20 0 43 3.66699 69 11v-37c-10 -3.33301 -21.667 -6.16602 -35 -8.49902s-26.666 -3.5 -39.999 -3.5z" />
    <glyph glyph-name="uogonek" unicode="&#x173;" horiz-adv-x="621" 
d="M215 -10c-88 0 -132.001 49.665 -132.001 148.998v401h54v-381c0 -42 7.33301 -72.333 22 -91s39 -28 73 -28c40 0 80 7.66699 120 23s82.667 33 128 53v424h54v-562c-44 -21.333 -75.5 -41.333 -94.5 -60s-28.5 -38.667 -28.5 -60c0 -26.667 17.667 -40 53 -40
c20 0 43 3.66699 69 11v-37c-10 -3.33301 -21.667 -6.16602 -35 -8.49902s-26.666 -3.5 -39.999 -3.5c-32 0 -55.167 6.16699 -69.5 18.5s-21.5 31.5 -21.5 57.5c0 13.333 2 25.833 6 37.5s10.667 23 20 34s22 22.333 38 34s35.667 24.5 59 38.5l-5 70h-4l-85.5 -36
c-23.667 -10 -45.167 -18.167 -64.5 -24.5s-38 -11.166 -56 -14.499s-38 -5 -60 -5z" />
    <glyph glyph-name="Wcircumflex" unicode="&#x174;" horiz-adv-x="1027" 
d="M24 740h57l155 -531l42 -148h5l43 148l159 531h57l158 -531l43 -148h5l43 148l155 531h57l-219 -740h-75l-160 537l-33 121h-5l-33 -123l-160 -535h-75zM354 869l160 73l160 -73v-52l-160 73l-160 -73v52z" />
    <glyph glyph-name="wcircumflex" unicode="&#x175;" horiz-adv-x="809" 
d="M244 691l159 73l160 -73v-52l-160 73l-159 -73v52zM30 532v8h53l117 -401l21 -83h5l23 83l125 401h58l131 -401l25 -83h5l20 83l110 401h53v-8l-151 -532h-65l-132 399l-22 81h-5l-21 -81l-125 -399h-65z" />
    <glyph glyph-name="Ycircumflex" unicode="&#x176;" horiz-adv-x="629" 
d="M287 254l-278 486h60l211 -370l31 -62h6l32 62l211 370h60l-278 -486v-254h-55v254zM154 869l160 73l160 -73v-52l-160 73l-160 -73v52z" />
    <glyph glyph-name="ycircumflex" unicode="&#x177;" horiz-adv-x="570" 
d="M165 -209l-1 9l91 204l-232 527v9h57l177 -410l24 -66h5l26 66l184 410h55v-9l-340 -751zM124 691l159 73l160 -73v-52l-160 73l-159 -73v52z" />
    <glyph glyph-name="Ydieresis" unicode="&#x178;" horiz-adv-x="629" 
d="M287 254l-278 486h60l211 -370l31 -62h6l32 62l211 370h60l-278 -486v-254h-55v254zM178 830c-13.333 0 -23.666 3.33105 -30.999 9.99805s-11 17.334 -11 32.001s3.66699 25.167 11 31.5s17.666 9.5 30.999 9.5c12 0 22 -3.16699 30 -9.5s12 -16.833 12 -31.5
c0 -15.333 -4 -26.166 -12 -32.499s-18 -9.5 -30 -9.5zM449 829.998c-13.333 0 -23.666 3.33105 -30.999 9.99805s-11 17.334 -11 32.001s3.66699 25.167 11 31.5s17.666 9.5 30.999 9.5c12.667 0 23 -3.16699 31 -9.5s12 -16.833 12 -31.5
c0 -15.333 -4 -26.166 -12 -32.499s-18.333 -9.5 -31 -9.5z" />
    <glyph glyph-name="Zacute" unicode="&#x179;" horiz-adv-x="592" 
d="M36 43l439 643v4h-425v50h495v-41l-438 -645v-4h447v-50h-518v43zM275 811l78 127h58l-90 -134z" />
    <glyph glyph-name="zacute" unicode="&#x17a;" horiz-adv-x="490" 
d="M223 616l73 183h56l-91 -189zM41 40l321 447v5h-311v48h389v-34l-323 -452v-5h333v-48h-409v39z" />
    <glyph glyph-name="Zdotaccent" unicode="&#x17b;" horiz-adv-x="592" 
d="M303 825c-13.333 0 -23.666 3.16504 -30.999 9.49805s-11 16.833 -11 31.5s3.66699 25.334 11 32.001s17.666 10 30.999 10c12 0 22.167 -3.16699 30.5 -9.5s12.5 -17.166 12.5 -32.499c0 -14.667 -4.16699 -25.167 -12.5 -31.5s-18.5 -9.5 -30.5 -9.5zM36 42.998
l439 643v4h-425v50h495v-41l-438 -645v-4h447v-50h-518v43z" />
    <glyph glyph-name="zdotaccent" unicode="&#x17c;" horiz-adv-x="490" 
d="M41 40l321 447v5h-311v48h389v-34l-323 -452v-5h333v-48h-409v39zM238 666c-13.333 0 -23.666 3.33105 -30.999 9.99805s-11 17.334 -11 32.001c0 14 3.66699 24.333 11 31s17.666 10 30.999 10c12 0 22.167 -3.16699 30.5 -9.5s12.5 -16.833 12.5 -31.5
c0 -15.333 -4.16699 -26.166 -12.5 -32.499s-18.5 -9.5 -30.5 -9.5z" />
    <glyph glyph-name="Zcaron" unicode="&#x17d;" horiz-adv-x="592" 
d="M143 942l160 -73l159 73v-52l-160 -73l-159 73v52zM36 43l439 643v4h-425v50h495v-41l-438 -645v-4h447v-50h-518v43z" />
    <glyph glyph-name="zcaron" unicode="&#x17e;" horiz-adv-x="490" 
d="M80 746l160 -73l160 73v-52l-160 -73l-160 73v52zM41 40l321 447v5h-311v48h389v-34l-323 -452v-5h333v-48h-409v39z" />
    <glyph glyph-name="Schwa" unicode="&#x18f;" horiz-adv-x="706" 
d="M54 330c0 15.333 0.501953 30.001 1.50195 44.001s2.5 25.667 4.5 35h531c-4 100 -27.167 173.167 -69.5 219.5s-106.833 69.5 -193.5 69.5c-71.333 0 -152.333 -13 -243 -39l-5 49c14 6 31 11.5 51 16.5s41.167 9.33301 63.5 13s45 6.5 68 8.5s44.5 3 64.5 3
c212 0 318 -121.667 318 -365c0 -62 -6.66699 -117.5 -20 -166.5s-32.833 -90.333 -58.5 -124s-57.334 -59.334 -95.001 -77.001s-80.5 -26.5 -128.5 -26.5c-44.667 0 -84.834 7.83301 -120.501 23.5s-66 38 -91 67s-44.167 64.5 -57.5 106.5s-20 89.667 -20 143z
M340.002 39.001c164 0 247.999 107.667 251.999 323h-484c-3.33301 -49.333 -0.666016 -94 8.00098 -134s23 -74 43 -102s45.167 -49.5 75.5 -64.5s65.5 -22.5 105.5 -22.5z" />
    <glyph glyph-name="florin" unicode="&#x192;" horiz-adv-x="403" 
d="M160 490l-128.999 0.00195312v50h130v23c0 50 3.16699 90.833 9.5 122.5s18.166 56.667 35.499 75s41.5 31.166 72.5 38.499s71.167 12 120.5 14l3 -41c-40 -2.66699 -72.333 -6.66699 -97 -12s-43.667 -14.333 -57 -27s-22.333 -29.834 -27 -51.501s-7 -50.167 -7 -85.5
v-56h158v-50h-158v-674l-54 -36v710z" />
    <glyph glyph-name="uni01C4" unicode="&#x1c4;" horiz-adv-x="1348" 
d="M899 942l160 -73l159 73v-52l-160 -73l-159 73v52zM792 43l439 643v4h-425v50h495v-41l-438 -645v-4h447v-50h-518v43zM299 -9c-45.333 0 -86 1.5 -122 4.5s-61 7.16699 -75 12.5v731c12.667 0.666992 28.167 1.66699 46.5 3s37 2.33301 56 3l55 2
c17.667 0.666992 32.5 1 44.5 1c134.667 0 233.667 -30.5 297 -91.5s95 -156.167 95 -285.5c0 -130.667 -32 -226.667 -96 -288s-164.333 -92 -301 -92zM309 40c114 0 197.834 26.667 251.501 80s80.5 137 80.5 251c0 112.667 -26.833 195.334 -80.5 248.001
s-137.834 79 -252.501 79c-10 0 -21.5 -0.166992 -34.5 -0.5s-26.333 -1 -40 -2l-41 -3c-13.667 -1 -25.834 -1.83301 -36.501 -2.5v-639l42 -5.5c12.667 -1.66699 24.834 -2.83398 36.501 -3.50098s23.5 -1.16699 35.5 -1.5s25 -0.5 39 -0.5z" />
    <glyph glyph-name="uni01C5" unicode="&#x1c5;" horiz-adv-x="1246" 
d="M836 746l160 -73l160 73v-52l-160 -73l-160 73v52zM797 40l321 447v5h-311v48h389v-34l-323 -452v-5h333v-48h-409v39zM299 -9c-45.333 0 -86 1.5 -122 4.5s-61 7.16699 -75 12.5v731c12.667 0.666992 28.167 1.66699 46.5 3s37 2.33301 56 3l55 2
c17.667 0.666992 32.5 1 44.5 1c134.667 0 233.667 -30.5 297 -91.5s95 -156.167 95 -285.5c0 -130.667 -32 -226.667 -96 -288s-164.333 -92 -301 -92zM309 40c114 0 197.834 26.667 251.501 80s80.5 137 80.5 251c0 112.667 -26.833 195.334 -80.5 248.001
s-137.834 79 -252.501 79c-10 0 -21.5 -0.166992 -34.5 -0.5s-26.333 -1 -40 -2l-41 -3c-13.667 -1 -25.834 -1.83301 -36.501 -2.5v-639l42 -5.5c12.667 -1.66699 24.834 -2.83398 36.501 -3.50098s23.5 -1.16699 35.5 -1.5s25 -0.5 39 -0.5z" />
    <glyph glyph-name="uni01C6" unicode="&#x1c6;" horiz-adv-x="1108" 
d="M698 746l160 -73l160 73v-52l-160 -73l-160 73v52zM659 40l321 447v5h-311v48h389v-34l-323 -452v-5h333v-48h-409v39zM293 -10c-76.667 0 -135.497 22.168 -176.497 66.501s-61.5 115.166 -61.5 212.499c0 48.667 6.5 90.667 19.5 126s31.167 64.5 54.5 87.5
s51.166 40 83.499 51s68.166 16.5 107.499 16.5c30.667 0 59.667 -1.5 87 -4.5s50.666 -5.16699 69.999 -6.5v269h54v-808h-46l-6 70h-5c-42 -53.333 -102.333 -80 -181 -80zM300.003 38.001c22.667 0 44.501 3.16699 65.501 9.5s39.833 15.333 56.5 27s30 25.667 40 42
s15 34.833 15 55.5v320c-19.333 2.66699 -42.833 5.16699 -70.5 7.5s-56.834 3.5 -87.501 3.5c-66 0 -117.167 -18.167 -153.5 -54.5s-54.5 -95.833 -54.5 -178.5c0 -83.333 15.5 -142.833 46.5 -178.5s78.5 -53.5 142.5 -53.5z" />
    <glyph glyph-name="uni01C7" unicode="&#x1c7;" horiz-adv-x="806" 
d="M573 -161c14.667 30.667 27.167 59.5 37.5 86.5s18.5 53.833 24.5 80.5s10.333 54.167 13 82.5s4 59.5 4 93.5v558h54v-560c0 -33.333 -1.33301 -63.833 -4 -91.5s-7.5 -55.167 -14.5 -82.5s-16.333 -56 -28 -86s-26.5 -63.667 -44.5 -101zM102 740h54v-692h377v-48h-431
v740z" />
    <glyph glyph-name="uni01C8" unicode="&#x1c8;" horiz-adv-x="775" 
d="M658 664c-26 0 -39 12.667 -39 38s13 38 39 38s39 -12.667 39 -38s-13 -38 -39 -38zM560 -201c26 46.667 45 95 57 145s18 108 18 174v422h54v-449c-2.66699 -56.667 -11.167 -111.167 -25.5 -163.5s-35.833 -101.5 -64.5 -147.5zM102 740h54v-692h377v-48h-431v740z" />
    <glyph glyph-name="uni01C9" unicode="&#x1c9;" horiz-adv-x="461" 
d="M344 664c-26 0 -39 12.667 -39 38s13 38 39 38s39 -12.667 39 -38s-13 -38 -39 -38zM246 -201c26 46.667 45 95 57 145s18 108 18 174v422h54v-449c-2.66699 -56.667 -11.167 -111.167 -25.5 -163.5s-35.833 -101.5 -64.5 -147.5zM90 808h54v-808h-54v808z" />
    <glyph glyph-name="uni01CA" unicode="&#x1ca;" horiz-adv-x="1065" 
d="M832 -161c14.667 30.667 27.167 59.5 37.5 86.5s18.5 53.833 24.5 80.5s10.333 54.167 13 82.5s4 59.5 4 93.5v558h54v-560c0 -33.333 -1.33301 -63.833 -4 -91.5s-7.5 -55.167 -14.5 -82.5s-16.333 -56 -28 -86s-26.5 -63.667 -44.5 -101zM102 740h49l433 -565l65 -91h5
v656h51v-740h-50l-438 571l-59 83h-5v-654h-51v740z" />
    <glyph glyph-name="uni01CB" unicode="&#x1cb;" horiz-adv-x="1034" 
d="M917 664c-26 0 -39 12.667 -39 38s13 38 39 38s39 -12.667 39 -38s-13 -38 -39 -38zM819 -201c26 46.667 45 95 57 145s18 108 18 174v422h54v-449c-2.66699 -56.667 -11.167 -111.167 -25.5 -163.5s-35.833 -101.5 -64.5 -147.5zM102 740h49l433 -565l65 -91h5v656h51
v-740h-50l-438 571l-59 83h-5v-654h-51v740z" />
    <glyph glyph-name="uni01CC" unicode="&#x1cc;" horiz-adv-x="848" 
d="M731 664c-26 0 -39 12.667 -39 38s13 38 39 38s39 -12.667 39 -38s-13 -38 -39 -38zM633 -201c26 46.667 45 95 57 145s18 108 18 174v422h54v-449c-2.66699 -56.667 -11.167 -111.167 -25.5 -163.5s-35.833 -101.5 -64.5 -147.5zM87 540h44.001l5 -65h5
c30.667 14 58.167 25.667 82.5 35s46.166 17 65.499 23s37.333 10.333 54 13s33 4 49 4c46.667 0 82.667 -12 108 -36s38 -61.667 38 -113v-401h-54v380c0 44 -8.83301 75.167 -26.5 93.5s-44.5 27.5 -80.5 27.5c-30.667 0 -66.167 -6.5 -106.5 -19.5
s-83.5 -30.5 -129.5 -52.5v-429h-54v540z" />
    <glyph glyph-name="Oogonek" unicode="&#x1ea;" horiz-adv-x="771" 
d="M357 -203c-32 0 -55.167 6.16504 -69.5 18.498s-21.5 31.5 -21.5 57.5c0 11.333 1.33301 22 4 32s7.16699 19.667 13.5 29s14.833 18.666 25.5 27.999s23.667 19.333 39 30c-91.333 7.33301 -162.166 42.833 -212.499 106.5s-75.5 153.834 -75.5 270.501
c0 62 7.33301 116.667 22 164s36 87 64 119s62 56.333 102 73s85.667 25 137 25s97.166 -8.33301 137.499 -25s74.5 -41 102.5 -73s49.333 -71.667 64 -119s22 -102 22 -164c0 -116 -24.833 -205.667 -74.5 -269s-119.834 -99.333 -210.501 -108
c-41.333 -20 -71 -39.167 -89 -57.5s-27 -38.166 -27 -59.499c0 -26.667 17.667 -40 53 -40c20 0 43 3.66699 69 11v-37c-10 -3.33301 -21.667 -6.16602 -35 -8.49902s-26.666 -3.5 -39.999 -3.5zM385 38.998c87.333 0 154.331 28.668 200.998 86.001s70 138.666 70 243.999
c0 107.333 -23.333 189.5 -70 246.5s-113.667 85.5 -201 85.5s-154.166 -28.5 -200.499 -85.5s-69.5 -139.167 -69.5 -246.5c0 -106 23.333 -187.5 70 -244.5s113.334 -85.5 200.001 -85.5z" />
    <glyph glyph-name="oogonek" unicode="&#x1eb;" horiz-adv-x="602" 
d="M296 -200c-32 0 -55.167 6.16602 -69.5 18.499s-21.5 31.5 -21.5 57.5c0 22 5.5 41.667 16.5 59s30.833 36 59.5 56c-73.333 4 -129.333 30 -168 78s-58 115 -58 201c0 90 21.167 159.167 63.5 207.5s103.166 72.5 182.499 72.5s140.166 -24.167 182.499 -72.5
s63.5 -117.5 63.5 -207.5c0 -76 -15.167 -137.167 -45.5 -183.5s-74.166 -76.166 -131.499 -89.499c-43.333 -20.667 -74.333 -40.334 -93 -59.001s-28 -38.667 -28 -60c0 -26.667 17.667 -40 53 -40c20 0 43 3.66699 69 11v-37c-10 -3.33301 -21.667 -6.16602 -35 -8.49902
s-26.666 -3.5 -39.999 -3.5zM301 37.999c64.667 0 112.5 19 143.5 57s46.5 96.333 46.5 175s-15.5 137 -46.5 175s-78.833 57 -143.5 57c-126.667 0 -190 -77.333 -190 -232s63.333 -232 190 -232z" />
    <glyph glyph-name="uni01F1" unicode="&#x1f1;" horiz-adv-x="1331" 
d="M775 43l439 643v4h-425v50h495v-41l-438 -645v-4h447v-50h-518v43zM299 -9c-45.333 0 -86 1.5 -122 4.5s-61 7.16699 -75 12.5v731c12.667 0.666992 28.167 1.66699 46.5 3s37 2.33301 56 3l55 2c17.667 0.666992 32.5 1 44.5 1c134.667 0 233.667 -30.5 297 -91.5
s95 -156.167 95 -285.5c0 -130.667 -32 -226.667 -96 -288s-164.333 -92 -301 -92zM309 40c114 0 197.834 26.667 251.501 80s80.5 137 80.5 251c0 112.667 -26.833 195.334 -80.5 248.001s-137.834 79 -252.501 79c-10 0 -21.5 -0.166992 -34.5 -0.5s-26.333 -1 -40 -2
l-41 -3c-13.667 -1 -25.834 -1.83301 -36.501 -2.5v-639l42 -5.5c12.667 -1.66699 24.834 -2.83398 36.501 -3.50098s23.5 -1.16699 35.5 -1.5s25 -0.5 39 -0.5z" />
    <glyph glyph-name="uni01F2" unicode="&#x1f2;" horiz-adv-x="1242" 
d="M792 40l321 447v5h-311v48h389v-34l-323 -452v-5h333v-48h-409v39zM299 -9c-45.333 0 -86 1.5 -122 4.5s-61 7.16699 -75 12.5v731c12.667 0.666992 28.167 1.66699 46.5 3s37 2.33301 56 3l55 2c17.667 0.666992 32.5 1 44.5 1c134.667 0 233.667 -30.5 297 -91.5
s95 -156.167 95 -285.5c0 -130.667 -32 -226.667 -96 -288s-164.333 -92 -301 -92zM309 40c114 0 197.834 26.667 251.501 80s80.5 137 80.5 251c0 112.667 -26.833 195.334 -80.5 248.001s-137.834 79 -252.501 79c-10 0 -21.5 -0.166992 -34.5 -0.5s-26.333 -1 -40 -2
l-41 -3c-13.667 -1 -25.834 -1.83301 -36.501 -2.5v-639l42 -5.5c12.667 -1.66699 24.834 -2.83398 36.501 -3.50098s23.5 -1.16699 35.5 -1.5s25 -0.5 39 -0.5z" />
    <glyph glyph-name="uni01F3" unicode="&#x1f3;" horiz-adv-x="1108" 
d="M659 40l321 447v5h-311v48h389v-34l-323 -452v-5h333v-48h-409v39zM293 -10c-76.667 0 -135.497 22.168 -176.497 66.501s-61.5 115.166 -61.5 212.499c0 48.667 6.5 90.667 19.5 126s31.167 64.5 54.5 87.5s51.166 40 83.499 51s68.166 16.5 107.499 16.5
c30.667 0 59.667 -1.5 87 -4.5s50.666 -5.16699 69.999 -6.5v269h54v-808h-46l-6 70h-5c-42 -53.333 -102.333 -80 -181 -80zM300.003 38.001c22.667 0 44.501 3.16699 65.501 9.5s39.833 15.333 56.5 27s30 25.667 40 42s15 34.833 15 55.5v320
c-19.333 2.66699 -42.833 5.16699 -70.5 7.5s-56.834 3.5 -87.501 3.5c-66 0 -117.167 -18.167 -153.5 -54.5s-54.5 -95.833 -54.5 -178.5c0 -83.333 15.5 -142.833 46.5 -178.5s78.5 -53.5 142.5 -53.5z" />
    <glyph glyph-name="Gacute" unicode="&#x1f4;" horiz-adv-x="677" 
d="M334 811l78 127h58l-90 -134zM397 -8c-110 0 -193.67 32.001 -251.003 96.001s-86 157.333 -86 280c0 124.667 29.333 219.5 88 284.5s145 97.5 259 97.5c58.667 0 122.334 -9.33301 191.001 -28v-50c-22 5.33301 -41.5 9.83301 -58.5 13.5s-32.667 6.5 -47 8.5
s-28.166 3.5 -41.499 4.5s-27.333 1.5 -42 1.5c-95.333 0 -168.166 -28.333 -218.499 -85s-75.5 -138.667 -75.5 -246c0 -106.667 24 -187.834 72 -243.501s117.667 -83.5 209 -83.5c10 0 21.667 0.5 35 1.5s27 2.5 41 4.5s28 4.16699 42 6.5s26.667 4.83301 38 7.5v314h53
v-349c-15.333 -5.33301 -32.166 -10 -50.499 -14s-36.833 -7.66699 -55.5 -11s-36.834 -5.83301 -54.501 -7.5s-33.5 -2.5 -47.5 -2.5z" />
    <glyph glyph-name="gacute" unicode="&#x1f5;" horiz-adv-x="618" 
d="M302 616l73 183h56l-91 -189zM269 -219c-30.667 0 -61.3369 2.16797 -92.0039 6.50098s-59 10.166 -85 17.499l4 47c26.667 -6.66699 54.834 -12.334 84.501 -17.001s58.834 -7 87.501 -7c30.667 0 58.834 3.33301 84.501 10s47.834 18.334 66.501 35.001
s33.334 38.667 44.001 66s16 62 16 104v32h-5c-40.667 -54 -101 -81 -181 -81c-76.667 0 -135.5 22 -176.5 66s-61.5 114 -61.5 210c0 48.667 6.5 90.5 19.5 125.5s31.167 64 54.5 87s51.166 40 83.499 51s68.166 16.5 107.499 16.5c16 0 33.167 -0.5 51.5 -1.5
s36.833 -2.5 55.5 -4.5s36.834 -4.33301 54.501 -7s34.167 -5.66699 49.5 -9v-484c0 -54.667 -7.33301 -99 -22 -133s-34 -60.667 -58 -80s-51.833 -32.5 -83.5 -39.5s-64.5 -10.5 -98.5 -10.5zM299.997 41.001c22.667 0 44.667 3.16504 66 9.49805s40.166 15.5 56.499 27.5
s29.5 26.333 39.5 43s15 35.334 15 56.001v315c-19.333 2.66699 -42.833 5.16699 -70.5 7.5s-56.834 3.5 -87.501 3.5c-66 0 -117.167 -18 -153.5 -54s-54.5 -95 -54.5 -177c0 -41.333 3.83301 -76.666 11.5 -105.999s19.334 -53.333 35.001 -72
s35.334 -32.167 59.001 -40.5s51.5 -12.5 83.5 -12.5z" />
    <glyph glyph-name="Aringacute" unicode="&#x1fa;" horiz-adv-x="697" 
d="M11 6l262.999 657.001c-17.333 9.33301 -31.166 22 -41.499 38s-15.5 34 -15.5 54c0 29.333 10 54 30 74s46 32 78 36l67 102h58l-70 -104c28 -6 50.833 -18.833 68.5 -38.5s26.5 -42.834 26.5 -69.501c0 -19.333 -4.83301 -36.833 -14.5 -52.5
s-22.5 -28.167 -38.5 -37.5l263 -659v-6h-55l-95 238h-373l-95 -238h-56v6zM346.999 685.001c25.333 0 45.666 6.33301 60.999 19s23 29.667 23 51c0 22 -7.66699 39.333 -23 52s-35.666 19 -60.999 19c-26 0 -46.667 -6.33301 -62 -19s-23 -30 -23 -52
c0 -21.333 7.66699 -38.333 23 -51s36 -19 62 -19zM515.999 288.001l-115 287l-28 70l-51 -1l-27 -69l-115 -287h336z" />
    <glyph glyph-name="aringacute" unicode="&#x1fb;" horiz-adv-x="536" 
d="M192 -5c-96 0 -143.999 44.999 -143.999 134.999c0 52 16.5 91.333 49.5 118s86.833 43.334 161.5 50.001l142 12v48c0 26 -2.5 48 -7.5 66s-13.167 32.5 -24.5 43.5s-26.5 18.833 -45.5 23.5s-42.833 7 -71.5 7c-25.333 0 -50.833 -1.33301 -76.5 -4
s-55.834 -7.33398 -90.501 -14.001l-5 46c36.667 6.66699 68.667 11.334 96 14.001s55 4 83 4c67.333 0 116.833 -14 148.5 -42s47.5 -72.333 47.5 -133v-369h-45l-7 70h-5c-79.333 -50 -148 -75 -206 -75zM204.001 41.999c57.333 0 123 23.667 197 71v158l-129 -12
c-32 -3.33301 -58.833 -7.83301 -80.5 -13.5s-39.167 -13.5 -52.5 -23.5s-22.833 -22.167 -28.5 -36.5s-8.5 -31.833 -8.5 -52.5c0 -60.667 34 -91 102 -91zM268.001 602.999c-17.333 0 -33.5 2.66797 -48.5 8.00098s-28 12.833 -39 22.5s-19.667 21 -26 34
s-9.5 27.167 -9.5 42.5s3.16699 29.666 9.5 42.999s15 24.833 26 34.5s23.833 17.167 38.5 22.5s30.667 8 48 8l63 157h56l-78 -163c24 -7.33301 43.5 -20 58.5 -38s22.5 -39.333 22.5 -64c0 -30.667 -11.5 -56.167 -34.5 -76.5s-51.833 -30.5 -86.5 -30.5zM268.001 641
c25.333 0 45.166 6.16699 59.499 18.5s21.5 29.166 21.5 50.499c0 22 -7.16699 39.167 -21.5 51.5s-34.166 18.5 -59.499 18.5c-26 0 -46.333 -6.16699 -61 -18.5s-22 -29.5 -22 -51.5c0 -21.333 7.33301 -38.166 22 -50.499s35 -18.5 61 -18.5z" />
    <glyph glyph-name="AEacute" unicode="&#x1fc;" horiz-adv-x="880" 
d="M501 811l78 127h58l-90 -134zM11 7l320 733h486v-49h-352l13 -291h308v-49h-305l14 -302h332v-49h-386l-10 238h-262l-105 -238h-53v7zM191 288h238l-16 404h-44z" />
    <glyph glyph-name="aeacute" unicode="&#x1fd;" horiz-adv-x="901" 
d="M440 616l73 183h56l-91 -189zM653 -10c-50 0 -92.4961 8.66504 -127.496 25.998s-62.167 42.333 -81.5 75l-4 1c-29.333 -18 -56 -33.333 -80 -46s-46 -22.667 -66 -30s-38.333 -12.666 -55 -15.999s-32.334 -5 -47.001 -5c-96 0 -144 45 -144 135
c0 51.333 16.667 90.333 50 117s87 43.334 161 50.001l142 12v51c0 26 -2.5 47.667 -7.5 65s-13.333 31.5 -25 42.5s-27 18.833 -46 23.5s-42.5 7 -70.5 7c-25.333 0 -50.833 -1.33301 -76.5 -4s-55.834 -7.33398 -90.501 -14.001l-5 46
c36.667 6.66699 68.667 11.334 96 14.001s55 4 83 4c53.333 0 94.666 -9 123.999 -27s48.333 -45.333 57 -82h5c17.333 36 43 63.833 77 83.5s75.333 29.5 124 29.5c65.333 0 115.166 -20.5 149.499 -61.5s51.5 -100.5 51.5 -178.5c0 -30 -1.33301 -50.333 -4 -61h-387
c4 -139.333 72 -209 204 -209c25.333 0 51.5 2.33301 78.5 7s56.167 12 87.5 22l5 -45c-27.333 -9.33301 -57 -17 -89 -23s-61.667 -9 -89 -9zM795.004 287.998c-1.33301 76.667 -13.833 131.5 -37.5 164.5s-61.167 49.5 -112.5 49.5c-120 0 -183 -71.333 -189 -214h339z
M204.004 40.998c28 0 58.5 5.83398 91.5 17.501s68.167 29.5 105.5 53.5v160l-129 -12c-32 -3.33301 -58.833 -7.83301 -80.5 -13.5s-39.167 -13.5 -52.5 -23.5s-22.833 -22.333 -28.5 -37s-8.5 -32.334 -8.5 -53.001c0 -61.333 34 -92 102 -92z" />
    <glyph glyph-name="Oslashacute" unicode="&#x1fe;" horiz-adv-x="770" 
d="M135 99c-50 65.333 -75 155.333 -75 270c0 62 7.33301 116.667 22 164s36 87 64 119s62 56.333 102 73s85.667 25 137 25c89.333 0 161.666 -25 216.999 -75l53 65h56l-79 -97c25.333 -32 44.833 -70.833 58.5 -116.5s20.5 -98.167 20.5 -157.5
c0 -62 -7.33301 -116.5 -22 -163.5s-36 -86.5 -64 -118.5s-62.167 -56.167 -102.5 -72.5s-86.166 -24.5 -137.499 -24.5c-92 0 -165.667 25.667 -221 77l-54 -67h-55zM385 39c87.333 0 154.333 28.6689 201 86.002s70 138.666 70 243.999c0 49.333 -5 93.166 -15 131.499
s-24.667 71.5 -44 99.5l-398 -490c45.333 -47.333 107.333 -71 186 -71zM115 369.002c0 -94.667 18.666 -169.667 55.999 -225l398 490c-46 44.667 -107.333 67 -184 67c-87.333 0 -154.166 -28.5 -200.499 -85.5s-69.5 -139.167 -69.5 -246.5zM353.999 811.002l78 127h58
l-90 -134z" />
    <glyph glyph-name="oslashacute" unicode="&#x1ff;" horiz-adv-x="608" 
d="M107 81c-32.667 46.667 -49.001 109.668 -49.001 189.001c0 89.333 21 158.333 63 207s103 73 183 73c36 0 67.833 -5 95.5 -15s51.834 -24.667 72.501 -44l43 49h58l-72 -82c32.667 -46.667 49 -109.334 49 -188.001c0 -89.333 -21 -158.333 -63 -207s-103 -73 -183 -73
c-70 0 -126 19.333 -168 58l-43 -48h-58zM303.999 38.001c66 0 114.333 19.167 145 57.5s46 96.5 46 174.5c0 62 -10 111.667 -30 149l-296 -334c31.333 -31.333 76.333 -47 135 -47zM113.999 270.001c0 -62.667 9.66699 -112 29 -148l296 332
c-31.333 32 -76.333 48 -135 48c-66 0 -114.167 -19.167 -144.5 -57.5s-45.5 -96.5 -45.5 -174.5zM293.999 616.001l73 183h56l-91 -189z" />
    <glyph glyph-name="Adblgrave" unicode="&#x200;" horiz-adv-x="695" 
d="M10 6l294 734h87l294 -734v-6h-56l-95 238h-373l-95 -238h-56v6zM515 288l-115 287l-50 126h-6l-49 -126l-115 -287h335zM256 795l-90 134h58l77 -120zM396 795l-90 134h58l77 -120z" />
    <glyph glyph-name="adblgrave" unicode="&#x201;" horiz-adv-x="536" 
d="M192 -5c-96 0 -143.999 44.999 -143.999 134.999c0 52 16.5 91.333 49.5 118s86.833 43.334 161.5 50.001l142 12v48c0 26 -2.5 48 -7.5 66s-13.167 32.5 -24.5 43.5s-26.5 18.833 -45.5 23.5s-42.833 7 -71.5 7c-25.333 0 -50.833 -1.33301 -76.5 -4
s-55.834 -7.33398 -90.501 -14.001l-5 46c36.667 6.66699 68.667 11.334 96 14.001s55 4 83 4c67.333 0 116.833 -14 148.5 -42s47.5 -72.333 47.5 -133v-369h-45l-7 70h-5c-79.333 -50 -148 -75 -206 -75zM204.001 41.999c57.333 0 123 23.667 197 71v158l-129 -12
c-32 -3.33301 -58.833 -7.83301 -80.5 -13.5s-39.167 -13.5 -52.5 -23.5s-22.833 -22.167 -28.5 -36.5s-8.5 -31.833 -8.5 -52.5c0 -60.667 34 -91 102 -91zM164.001 618.999l-94 189h62l72 -179zM343.001 618.999l-93 189h62l72 -179z" />
    <glyph glyph-name="Ainvertedbreve" unicode="&#x202;" horiz-adv-x="695" 
d="M10 6l294 734h87l294 -734v-6h-56l-95 238h-373l-95 -238h-56v6zM515 288l-115 287l-50 126h-6l-49 -126l-115 -287h335zM477 817c0 30 -11.168 53.667 -33.501 71s-54.166 26 -95.499 26c-40.667 0 -72.167 -8.66699 -94.5 -26s-33.5 -41 -33.5 -71h-46
c0 42 15 75.5 45 100.5s73 37.5 129 37.5c56.667 0 100 -12.5 130 -37.5s45 -58.5 45 -100.5h-46z" />
    <glyph glyph-name="ainvertedbreve" unicode="&#x203;" horiz-adv-x="536" 
d="M192 -5c-96 0 -143.999 44.999 -143.999 134.999c0 52 16.5 91.333 49.5 118s86.833 43.334 161.5 50.001l142 12v48c0 26 -2.5 48 -7.5 66s-13.167 32.5 -24.5 43.5s-26.5 18.833 -45.5 23.5s-42.833 7 -71.5 7c-25.333 0 -50.833 -1.33301 -76.5 -4
s-55.834 -7.33398 -90.501 -14.001l-5 46c36.667 6.66699 68.667 11.334 96 14.001s55 4 83 4c67.333 0 116.833 -14 148.5 -42s47.5 -72.333 47.5 -133v-369h-45l-7 70h-5c-79.333 -50 -148 -75 -206 -75zM204.001 41.999c57.333 0 123 23.667 197 71v158l-129 -12
c-32 -3.33301 -58.833 -7.83301 -80.5 -13.5s-39.167 -13.5 -52.5 -23.5s-22.833 -22.167 -28.5 -36.5s-8.5 -31.833 -8.5 -52.5c0 -60.667 34 -91 102 -91zM94.001 629.999c0 46 14.167 81.833 42.5 107.5s72.833 38.5 133.5 38.5s105.167 -12.833 133.5 -38.5
s42.5 -61.5 42.5 -107.5h-46c0 40.667 -11.5 69.167 -34.5 85.5s-54.833 24.5 -95.5 24.5c-42 0 -74.333 -8.16699 -97 -24.5s-34 -44.833 -34 -85.5h-45z" />
    <glyph glyph-name="Edblgrave" unicode="&#x204;" horiz-adv-x="634" 
d="M102 740h465v-49h-411v-290h392v-48h-392v-304h419v-49h-473v740zM246 795l-90 134h58l77 -120zM386 795l-90 134h58l77 -120z" />
    <glyph glyph-name="edblgrave" unicode="&#x205;" horiz-adv-x="555" 
d="M182 619l-94 189h62l72 -179zM361 619l-93 189h62l72 -179zM307 -9c-82.667 0 -145.166 22.6699 -187.499 68.0029s-63.5 112.666 -63.5 201.999c0 93.333 20.667 164.666 62 213.999s101.333 74 180 74c66.667 0 117.167 -20.667 151.5 -62s51.5 -101.333 51.5 -180
c0 -14 -0.333008 -26.167 -1 -36.5s-1.66699 -18.5 -3 -24.5h-387c3.33301 -70.667 21.666 -122.834 54.999 -156.501s83.333 -50.5 150 -50.5c25.333 0 51.5 2.33301 78.5 7s55.5 12 85.5 22l5 -45c-26.667 -9.33301 -56 -17 -88 -23s-61.667 -9 -89 -9zM298.001 503.003
c-119.333 0 -182 -71.667 -188 -215h340c-2 76.667 -15 131.667 -39 165s-61.667 50 -113 50z" />
    <glyph glyph-name="Einvertedbreve" unicode="&#x206;" horiz-adv-x="634" 
d="M102 740h465v-49h-411v-290h392v-48h-392v-304h419v-49h-473v740zM466 817c0 30 -11.168 53.667 -33.501 71s-54.166 26 -95.499 26c-40.667 0 -72.167 -8.66699 -94.5 -26s-33.5 -41 -33.5 -71h-46c0 42 15 75.5 45 100.5s73 37.5 129 37.5
c56.667 0 100 -12.5 130 -37.5s45 -58.5 45 -100.5h-46z" />
    <glyph glyph-name="einvertedbreve" unicode="&#x207;" horiz-adv-x="555" 
d="M115 630c0 46 14.167 81.833 42.5 107.5s72.833 38.5 133.5 38.5s105.167 -12.833 133.5 -38.5s42.5 -61.5 42.5 -107.5h-46c0 40.667 -11.5 69.167 -34.5 85.5s-54.833 24.5 -95.5 24.5c-42 0 -74.333 -8.16699 -97 -24.5s-34 -44.833 -34 -85.5h-45zM307 -9
c-82.667 0 -145.166 22.6699 -187.499 68.0029s-63.5 112.666 -63.5 201.999c0 93.333 20.667 164.666 62 213.999s101.333 74 180 74c66.667 0 117.167 -20.667 151.5 -62s51.5 -101.333 51.5 -180c0 -14 -0.333008 -26.167 -1 -36.5s-1.66699 -18.5 -3 -24.5h-387
c3.33301 -70.667 21.666 -122.834 54.999 -156.501s83.333 -50.5 150 -50.5c25.333 0 51.5 2.33301 78.5 7s55.5 12 85.5 22l5 -45c-26.667 -9.33301 -56 -17 -88 -23s-61.667 -9 -89 -9zM298.001 503.003c-119.333 0 -182 -71.667 -188 -215h340
c-2 76.667 -15 131.667 -39 165s-61.667 50 -113 50z" />
    <glyph glyph-name="Idblgrave" unicode="&#x208;" horiz-adv-x="258" 
d="M102 740h54v-740h-54v740zM40 795l-90 134h58l77 -120zM180 795l-90 134h58l77 -120z" />
    <glyph glyph-name="idblgrave" unicode="&#x209;" horiz-adv-x="231" 
d="M8 619l-94 189h62l72 -179zM187 619l-93 189h62l72 -179zM88 540h54v-540h-54v540z" />
    <glyph glyph-name="Iinvertedbreve" unicode="&#x20a;" horiz-adv-x="258" 
d="M102 740h54v-740h-54v740zM258 817c0 30 -11.168 53.667 -33.501 71s-54.166 26 -95.499 26c-40.667 0 -72.167 -8.66699 -94.5 -26s-33.5 -41 -33.5 -71h-46c0 42 15 75.5 45 100.5s73 37.5 129 37.5c56.667 0 100 -12.5 130 -37.5s45 -58.5 45 -100.5h-46z" />
    <glyph glyph-name="iinvertedbreve" unicode="&#x20b;" horiz-adv-x="231" 
d="M-53 630c0 46 13.833 81.833 41.5 107.5s70.167 38.5 127.5 38.5c58.667 0 101.667 -12.833 129 -38.5s41 -61.5 41 -107.5h-42c0 40.667 -11.333 69.167 -34 85.5s-54 24.5 -94 24.5s-71.167 -8.16699 -93.5 -24.5s-33.5 -44.833 -33.5 -85.5h-42zM88 540h54v-540h-54
v540z" />
    <glyph glyph-name="Odblgrave" unicode="&#x20c;" horiz-adv-x="771" 
d="M385 -10c-102 0 -181.667 32.333 -239 97s-86 158.667 -86 282c0 62 7.33301 116.667 22 164s36 87 64 119s62 56.333 102 73s85.667 25 137 25s97.166 -8.33301 137.499 -25s74.5 -41 102.5 -73s49.333 -71.667 64 -119s22 -102 22 -164s-7.33301 -116.5 -22 -163.5
s-36 -86.5 -64 -118.5s-62.167 -56.167 -102.5 -72.5s-86.166 -24.5 -137.499 -24.5zM385 39c87.333 0 154.331 28.668 200.998 86.001s70 138.666 70 243.999c0 107.333 -23.333 189.5 -70 246.5s-113.667 85.5 -201 85.5s-154.166 -28.5 -200.499 -85.5
s-69.5 -139.167 -69.5 -246.5c0 -106 23.333 -187.5 70 -244.5s113.334 -85.5 200.001 -85.5zM292.998 795.001l-90 134h58l77 -120zM432.998 795.001l-90 134h58l77 -120z" />
    <glyph glyph-name="odblgrave" unicode="&#x20d;" horiz-adv-x="602" 
d="M192 619l-94 189h62l72 -179zM371 619l-93 189h62l72 -179zM301 -10c-79.333 0 -140.166 24.167 -182.499 72.5s-63.5 117.5 -63.5 207.5s21.167 159.167 63.5 207.5s103.166 72.5 182.499 72.5s140.166 -24.167 182.499 -72.5s63.5 -117.5 63.5 -207.5
s-21.167 -159.167 -63.5 -207.5s-103.166 -72.5 -182.499 -72.5zM301 38c64.667 0 112.5 19 143.5 57s46.5 96.333 46.5 175s-15.5 137 -46.5 175s-78.833 57 -143.5 57c-126.667 0 -190 -77.333 -190 -232s63.333 -232 190 -232z" />
    <glyph glyph-name="Oinvertedbreve" unicode="&#x20e;" horiz-adv-x="771" 
d="M385 -10c-102 0 -181.667 32.333 -239 97s-86 158.667 -86 282c0 62 7.33301 116.667 22 164s36 87 64 119s62 56.333 102 73s85.667 25 137 25s97.166 -8.33301 137.499 -25s74.5 -41 102.5 -73s49.333 -71.667 64 -119s22 -102 22 -164s-7.33301 -116.5 -22 -163.5
s-36 -86.5 -64 -118.5s-62.167 -56.167 -102.5 -72.5s-86.166 -24.5 -137.499 -24.5zM385 39c87.333 0 154.331 28.668 200.998 86.001s70 138.666 70 243.999c0 107.333 -23.333 189.5 -70 246.5s-113.667 85.5 -201 85.5s-154.166 -28.5 -200.499 -85.5
s-69.5 -139.167 -69.5 -246.5c0 -106 23.333 -187.5 70 -244.5s113.334 -85.5 200.001 -85.5zM512.998 817.001c0 30 -11.168 53.667 -33.501 71s-54.166 26 -95.499 26c-40.667 0 -72.167 -8.66699 -94.5 -26s-33.5 -41 -33.5 -71h-46c0 42 15 75.5 45 100.5
s73 37.5 129 37.5c56.667 0 100 -12.5 130 -37.5s45 -58.5 45 -100.5h-46z" />
    <glyph glyph-name="oinvertedbreve" unicode="&#x20f;" horiz-adv-x="602" 
d="M125 630c0 46 14.167 81.833 42.5 107.5s72.833 38.5 133.5 38.5s105.167 -12.833 133.5 -38.5s42.5 -61.5 42.5 -107.5h-46c0 40.667 -11.5 69.167 -34.5 85.5s-54.833 24.5 -95.5 24.5c-42 0 -74.333 -8.16699 -97 -24.5s-34 -44.833 -34 -85.5h-45zM301 -10
c-79.333 0 -140.166 24.167 -182.499 72.5s-63.5 117.5 -63.5 207.5s21.167 159.167 63.5 207.5s103.166 72.5 182.499 72.5s140.166 -24.167 182.499 -72.5s63.5 -117.5 63.5 -207.5s-21.167 -159.167 -63.5 -207.5s-103.166 -72.5 -182.499 -72.5zM301 38
c64.667 0 112.5 19 143.5 57s46.5 96.333 46.5 175s-15.5 137 -46.5 175s-78.833 57 -143.5 57c-126.667 0 -190 -77.333 -190 -232s63.333 -232 190 -232z" />
    <glyph glyph-name="Rdblgrave" unicode="&#x210;" horiz-adv-x="682" 
d="M386 291c-14.667 -2 -30.1699 -3.33203 -46.5029 -3.99902s-33.166 -1 -50.499 -1c-18.667 0 -39.167 0.666992 -61.5 2s-46.166 3.33301 -71.499 6v-294h-54v735c60.667 10 119.667 15 177 15c59.333 0 110.333 -4.5 153 -13.5s77.834 -23 105.501 -42s48 -43 61 -72
s19.5 -63.833 19.5 -104.5c0 -60.667 -14.167 -108.834 -42.5 -144.501s-73.5 -60.167 -135.5 -73.5l203 -300h-63zM292.997 333.001c48.667 0 90.168 3.33496 124.501 10.002s62.166 17.5 83.499 32.5s37 34.167 47 57.5s15 51.666 15 84.999c0 64 -22 110.5 -66 139.5
s-115 43.5 -213 43.5c-21.333 0 -44 -0.833008 -68 -2.5s-44 -3.83398 -60 -6.50098v-347c4.66699 -1.33301 11.667 -2.83301 21 -4.5s20.333 -3 33 -4s26.167 -1.83301 40.5 -2.5s28.5 -1 42.5 -1zM250.998 795.003l-90 134h58l77 -120zM390.998 795.003l-90 134h58
l77 -120z" />
    <glyph glyph-name="rdblgrave" unicode="&#x211;" horiz-adv-x="388" 
d="M118 619l-94 189h62l72 -179zM297 619l-93 189h62l72 -179zM87 540h44.002l5 -76h4l68.5 32.5c20.333 9.66699 39.166 18.167 56.499 25.5s33.333 13.333 48 18s29 7.66699 43 9h19v-53h-18c-30.667 -3.33301 -64.334 -12.5 -101.001 -27.5s-75 -32.167 -115 -51.5v-417
h-54v540z" />
    <glyph glyph-name="Rinvertedbreve" unicode="&#x212;" horiz-adv-x="682" 
d="M386 291c-14.667 -2 -30.1699 -3.33203 -46.5029 -3.99902s-33.166 -1 -50.499 -1c-18.667 0 -39.167 0.666992 -61.5 2s-46.166 3.33301 -71.499 6v-294h-54v735c60.667 10 119.667 15 177 15c59.333 0 110.333 -4.5 153 -13.5s77.834 -23 105.501 -42s48 -43 61 -72
s19.5 -63.833 19.5 -104.5c0 -60.667 -14.167 -108.834 -42.5 -144.501s-73.5 -60.167 -135.5 -73.5l203 -300h-63zM292.997 333.001c48.667 0 90.168 3.33496 124.501 10.002s62.166 17.5 83.499 32.5s37 34.167 47 57.5s15 51.666 15 84.999c0 64 -22 110.5 -66 139.5
s-115 43.5 -213 43.5c-21.333 0 -44 -0.833008 -68 -2.5s-44 -3.83398 -60 -6.50098v-347c4.66699 -1.33301 11.667 -2.83301 21 -4.5s20.333 -3 33 -4s26.167 -1.83301 40.5 -2.5s28.5 -1 42.5 -1zM469.998 817.003c0 30 -11.168 53.667 -33.501 71s-54.166 26 -95.499 26
c-40.667 0 -72.167 -8.66699 -94.5 -26s-33.5 -41 -33.5 -71h-46c0 42 15 75.5 45 100.5s73 37.5 129 37.5c56.667 0 100 -12.5 130 -37.5s45 -58.5 45 -100.5h-46z" />
    <glyph glyph-name="rinvertedbreve" unicode="&#x213;" horiz-adv-x="388" 
d="M50 630c0 46 14.167 81.833 42.5 107.5s72.833 38.5 133.5 38.5s105.167 -12.833 133.5 -38.5s42.5 -61.5 42.5 -107.5h-46c0 40.667 -11.5 69.167 -34.5 85.5s-54.833 24.5 -95.5 24.5c-42 0 -74.333 -8.16699 -97 -24.5s-34 -44.833 -34 -85.5h-45zM87 540h44.002
l5 -76h4l68.5 32.5c20.333 9.66699 39.166 18.167 56.499 25.5s33.333 13.333 48 18s29 7.66699 43 9h19v-53h-18c-30.667 -3.33301 -64.334 -12.5 -101.001 -27.5s-75 -32.167 -115 -51.5v-417h-54v540z" />
    <glyph glyph-name="Udblgrave" unicode="&#x214;" horiz-adv-x="774" 
d="M387 -10c-50 0 -93.333 5.66699 -130 17s-67.167 29.5 -91.5 54.5s-42.333 57 -54 96s-17.5 86.167 -17.5 141.5v440h54v-434c0 -49.333 5.16699 -90.833 15.5 -124.5s25.5 -61 45.5 -82s44.833 -36.167 74.5 -45.5s64.167 -14 103.5 -14c38.667 0 73 4.66699 103 14
s55 24.5 75 45.5s35.167 48.333 45.5 82s15.5 75.167 15.5 124.5v434h54v-440c0 -55.333 -5.83301 -102.5 -17.5 -141.5s-29.667 -71 -54 -96s-54.833 -43.167 -91.5 -54.5s-80 -17 -130 -17zM292 795l-90 134h58l77 -120zM432 795l-90 134h58l77 -120z" />
    </font>
</defs>
</svg>
