<?xml version="1.0" standalone="no"?>
<!DOCTYPE svg PUBLIC "-//W3C//DTD SVG 1.1//EN" "http://www.w3.org/Graphics/SVG/1.1/DTD/svg11.dtd" >
<svg>
<metadata>
Created by FontForge 20090914 at Sat Aug  6 10:44:43 2016
 By www-data
Copyright (c) 2012, Impallari Type (www.impallari.com), with Reserved Font Name Encode Sans.
</metadata>
<defs>
<font id="EncodeSansCondensed-Black" horiz-adv-x="618" >
  <font-face 
    font-family="Encode Sans Condensed"
    font-weight="900"
    font-stretch="normal"
    units-per-em="1000"
    panose-1="2 0 0 0 0 0 0 0 0 0"
    ascent="800"
    descent="-200"
    x-height="539.999"
    cap-height="740"
    bbox="-130 -220.001 1710 1030"
    underline-thickness="55"
    underline-position="-57"
    unicode-range="U+000D-U+FB04"
  />
<missing-glyph horiz-adv-x="740" 
d="M62 1030h615v-1250h-615v1250zM517 -72v954h-295v-954h295z" />
    <glyph glyph-name="f_f" unicode="ff" horiz-adv-x="837" 
d="M506 374h-207v-374h-200v374h-87v166h88v23c0 46.667 5.66699 85.834 17 117.501s30 57.5 56 77.5s60.167 34.5 102.5 43.5s94.166 14.167 155.499 15.5l11 -147c-27.333 -1.33301 -50.166 -3.83301 -68.499 -7.5s-33 -9 -44 -16s-18.833 -16.333 -23.5 -28
s-7 -25.834 -7 -42.501v-36h208v23c0 46.667 5.66699 85.834 17 117.501s30 57.5 56 77.5s60.167 34.5 102.5 43.5s94.166 14.167 155.499 15.5l11 -147c-27.333 -1.33301 -50.166 -3.83301 -68.499 -7.5s-33 -9 -44 -16s-18.833 -16.333 -23.5 -28s-7 -25.834 -7 -42.501
v-36h122v-166h-122v-374h-200v374z" />
    <glyph glyph-name="f_i" unicode="fi" horiz-adv-x="720" 
d="M574 597c-38 0 -65.1689 8.16895 -81.502 24.502s-24.5 43.166 -24.5 80.499c0 36.667 8.16699 63 24.5 79s43.5 24 81.5 24c38.667 0 66.334 -8.16699 83.001 -24.5s25 -42.5 25 -78.5c0 -36.667 -8.16699 -63.334 -24.5 -80.001s-44.166 -25 -83.499 -25z
M473.998 540.002h200v-540h-200v540zM98.998 374.002h-87v166h88v23c0 46.667 5.66699 85.834 17 117.501s30 57.5 56 77.5s60.167 34.5 102.5 43.5s94.166 14.167 155.499 15.5l11 -147c-27.333 -1.33301 -50.166 -3.83301 -68.499 -7.5s-33 -9 -44 -16
s-18.833 -16.333 -23.5 -28s-7 -25.834 -7 -42.501v-36h122v-166h-122v-374h-200v374z" />
    <glyph glyph-name="f_l" unicode="fl" horiz-adv-x="720" 
d="M99 374h-87v166h88v23c0 46.667 5.66699 85.834 17 117.501s30 57.5 56 77.5s60.167 34.5 102.5 43.5s94.166 14.167 155.499 15.5l11 -147c-27.333 -1.33301 -50.166 -3.83301 -68.499 -7.5s-33 -9 -44 -16s-18.833 -16.333 -23.5 -28s-7 -25.834 -7 -42.501v-36h122
v-166h-122v-374h-200v374zM474 808h200v-808h-200v808z" />
    <glyph glyph-name="f_f_i" unicode="ffi" horiz-adv-x="1121" 
d="M99 374h-87v166h88v23c0 46.667 5.66699 85.834 17 117.501s30 57.5 56 77.5s60.167 34.5 102.5 43.5s94.166 14.167 155.499 15.5l11 -147c-27.333 -1.33301 -50.166 -3.83301 -68.499 -7.5s-33 -9 -44 -16s-18.833 -16.333 -23.5 -28s-7 -25.834 -7 -42.501v-36h202v23
c0 46.667 5.66699 85.834 17 117.501s30 57.5 56 77.5s60.167 34.5 102.5 43.5s94.166 14.167 155.499 15.5l11 -147c-27.333 -1.33301 -50.166 -3.83301 -68.499 -7.5s-33 -9 -44 -16s-18.833 -16.333 -23.5 -28s-7 -25.834 -7 -42.501v-36h122v-166h-122v-374h-200v374
h-201v-374h-200v374zM875 540h200v-540h-200v540zM975 597c-38 0 -65.1689 8.16895 -81.502 24.502s-24.5 43.166 -24.5 80.499c0 36.667 8.16699 63 24.5 79s43.5 24 81.5 24c38.667 0 66.334 -8.16699 83.001 -24.5s25 -42.5 25 -78.5
c0 -36.667 -8.16699 -63.334 -24.5 -80.001s-44.166 -25 -83.499 -25z" />
    <glyph glyph-name="f_f_l" unicode="ffl" horiz-adv-x="1121" 
d="M99 374h-87v166h88v23c0 46.667 5.66699 85.834 17 117.501s30 57.5 56 77.5s60.167 34.5 102.5 43.5s94.166 14.167 155.499 15.5l11 -147c-27.333 -1.33301 -50.166 -3.83301 -68.499 -7.5s-33 -9 -44 -16s-18.833 -16.333 -23.5 -28s-7 -25.834 -7 -42.501v-36h202v23
c0 46.667 5.66699 85.834 17 117.501s30 57.5 56 77.5s60.167 34.5 102.5 43.5s94.166 14.167 155.499 15.5l11 -147c-27.333 -1.33301 -50.166 -3.83301 -68.499 -7.5s-33 -9 -44 -16s-18.833 -16.333 -23.5 -28s-7 -25.834 -7 -42.501v-36h122v-166h-122v-374h-200v374
h-201v-374h-200v374zM875 808h200v-808h-200v808z" />
    <glyph glyph-name="f_b" unicode="fb" horiz-adv-x="1031" 
d="M100 374h-87v166h88v23c0 46.667 5.66699 85.834 17 117.501s30 57.5 56 77.5s60.167 34.5 102.5 43.5s94.166 14.167 155.499 15.5l11 -147c-27.333 -1.33301 -50.166 -3.83301 -68.499 -7.5s-33 -9 -44 -16s-18.833 -16.333 -23.5 -28s-7 -25.834 -7 -42.501v-36h122
v-166h-122v-374h-200v374zM721 -10c-33.333 0 -69.667 3.33398 -109 10.001s-86 17.667 -140 33v775h200v-322c16 21.333 36.167 37.166 60.5 47.499s51.5 15.5 81.5 15.5c128 0 192 -86.667 192 -260c0 -93.333 -23 -166 -69 -218s-118 -79 -216 -81zM723.999 121.001
c16.667 0 30.165 1.83398 40.498 5.50098s18.333 10.834 24 21.501s9.5 25.5 11.5 44.5s3 43.833 3 74.5c0 29.333 -0.833008 53.166 -2.5 71.499s-4.66699 32.5 -9 42.5s-10.666 16.833 -18.999 20.5s-18.833 5.5 -31.5 5.5c-13.333 0 -24.333 -2.5 -33 -7.5
s-15.667 -13.833 -21 -26.5s-9.16602 -29.834 -11.499 -51.501s-3.5 -49.167 -3.5 -82.5v-108c5.33301 -3.33301 12.5 -5.83301 21.5 -7.5s19.167 -2.5 30.5 -2.5z" />
    <glyph glyph-name="f_f_b" unicode="ffb" horiz-adv-x="1432" 
d="M100 374h-87v166h88v23c0 46.667 5.66699 85.834 17 117.501s30 57.5 56 77.5s60.167 34.5 102.5 43.5s94.166 14.167 155.499 15.5l11 -147c-27.333 -1.33301 -50.166 -3.83301 -68.499 -7.5s-33 -9 -44 -16s-18.833 -16.333 -23.5 -28s-7 -25.834 -7 -42.501v-36h201
v23c0 46.667 5.66699 85.834 17 117.501s30 57.5 56 77.5s60.167 34.5 102.5 43.5s94.166 14.167 155.499 15.5l11 -147c-27.333 -1.33301 -50.166 -3.83301 -68.499 -7.5s-33 -9 -44 -16s-18.833 -16.333 -23.5 -28s-7 -25.834 -7 -42.501v-36h122v-166h-122v-374h-200v374
h-200v-374h-200v374zM1122 -10c-33.333 0 -69.667 3.33398 -109 10.001s-86 17.667 -140 33v775h200v-322c16 21.333 36.167 37.166 60.5 47.499s51.5 15.5 81.5 15.5c128 0 192 -86.667 192 -260c0 -93.333 -23 -166 -69 -218s-118 -79 -216 -81zM1125 121.001
c16.667 0 30.165 1.83398 40.498 5.50098s18.333 10.834 24 21.501s9.5 25.5 11.5 44.5s3 43.833 3 74.5c0 29.333 -0.833008 53.166 -2.5 71.499s-4.66699 32.5 -9 42.5s-10.666 16.833 -18.999 20.5s-18.833 5.5 -31.5 5.5c-13.333 0 -24.333 -2.5 -33 -7.5
s-15.667 -13.833 -21 -26.5s-9.16602 -29.834 -11.499 -51.501s-3.5 -49.167 -3.5 -82.5v-108c5.33301 -3.33301 12.5 -5.83301 21.5 -7.5s19.167 -2.5 30.5 -2.5z" />
    <glyph glyph-name="f_f_h" unicode="ffh" horiz-adv-x="1432" 
d="M99 374h-87v166h88v23c0 46.667 5.66699 85.834 17 117.501s30 57.5 56 77.5s60.167 34.5 102.5 43.5s94.166 14.167 155.499 15.5l11 -147c-27.333 -1.33301 -50.166 -3.83301 -68.499 -7.5s-33 -9 -44 -16s-18.833 -16.333 -23.5 -28s-7 -25.834 -7 -42.501v-36h202v23
c0 46.667 5.66699 85.834 17 117.501s30 57.5 56 77.5s60.167 34.5 102.5 43.5s94.166 14.167 155.499 15.5l11 -147c-27.333 -1.33301 -50.166 -3.83301 -68.499 -7.5s-33 -9 -44 -16s-18.833 -16.333 -23.5 -28s-7 -25.834 -7 -42.501v-36h122v-166h-122v-374h-200v374
h-201v-374h-200v374zM875 808h200v-318c20 11.333 38 20.833 54 28.5s30.833 13.834 44.5 18.501s26.834 8 39.501 10s25.667 3 39 3c41.333 0 74.5 -13.5 99.5 -40.5s37.5 -62.5 37.5 -106.5v-403h-200v332c0 34.667 -13.333 52 -40 52
c-8.66699 0 -19.334 -1.83301 -32.001 -5.5s-26.667 -8.83398 -42 -15.501v-363h-200v808z" />
    <glyph glyph-name="f_f_j" unicode="ffj" horiz-adv-x="1125" 
d="M100 374h-87v166h88v23c0 46.667 5.66699 85.834 17 117.501s30 57.5 56 77.5s60.167 34.5 102.5 43.5s94.166 14.167 155.499 15.5l11 -147c-27.333 -1.33301 -50.166 -3.83301 -68.499 -7.5s-33 -9 -44 -16s-18.833 -16.333 -23.5 -28s-7 -25.834 -7 -42.501v-36h202
v23c0 46.667 5.66699 85.834 17 117.501s30 57.5 56 77.5s60.167 34.5 102.5 43.5s94.166 14.167 155.499 15.5l11 -147c-27.333 -1.33301 -50.166 -3.83301 -68.499 -7.5s-33 -9 -44 -16s-18.833 -16.333 -23.5 -28s-7 -25.834 -7 -42.501v-36h122v-166h-122v-374h-200v374
h-201v-374h-200v374zM846 -188c11.333 43.333 20 91.332 26 143.999s9 111.334 9 176.001v33v70v89v92c0 29.333 -0.166992 55.166 -0.5 77.499s-0.5 37.833 -0.5 46.5h200v-470c-1.33301 -23.333 -4.5 -47.666 -9.5 -72.999s-11.667 -50.833 -20 -76.5s-18 -50.5 -29 -74.5
s-22.833 -46 -35.5 -66zM980 596.999c-38 0 -65.333 8.16895 -82 24.502s-25 43.166 -25 80.499c0 36.667 8.16699 63 24.5 79s43.833 24 82.5 24c38 0 65.333 -8.16699 82 -24.5s25 -42.5 25 -78.5c0 -36.667 -8.16699 -63.334 -24.5 -80.001s-43.833 -25 -82.5 -25z" />
    <glyph glyph-name="f_f_k" unicode="ffk" horiz-adv-x="1416" 
d="M99 374h-87v166h88v23c0 46.667 5.66699 85.834 17 117.501s30 57.5 56 77.5s60.167 34.5 102.5 43.5s94.166 14.167 155.499 15.5l11 -147c-27.333 -1.33301 -50.166 -3.83301 -68.499 -7.5s-33 -9 -44 -16s-18.833 -16.333 -23.5 -28s-7 -25.834 -7 -42.501v-36h202v23
c0 46.667 5.66699 85.834 17 117.501s30 57.5 56 77.5s60.167 34.5 102.5 43.5s94.166 14.167 155.499 15.5l11 -147c-27.333 -1.33301 -50.166 -3.83301 -68.499 -7.5s-33 -9 -44 -16s-18.833 -16.333 -23.5 -28s-7 -25.834 -7 -42.501v-36h122v-166h-122v-374h-200v374
h-201v-374h-200v374zM875 808h200v-461h29l95 193h216l-150 -250l-28 -9v-4l28 -9l168 -268h-217l-112 210h-29v-210h-200v808z" />
    <glyph glyph-name="f_f_t" unicode="fft" horiz-adv-x="1229" 
d="M1097 -10c-64 0 -112.5 14.332 -145.5 42.999s-49.5 70.334 -49.5 125.001v216h-202v-374h-200v374h-200v-374h-200v374h-87v166h88v23c0 46.667 5.66699 85.834 17 117.501s30 57.5 56 77.5s60.167 34.5 102.5 43.5s94.166 14.167 155.499 15.5l11 -147
c-27.333 -1.33301 -50.166 -3.83301 -68.499 -7.5s-33 -9 -44 -16s-18.833 -16.333 -23.5 -28s-7 -25.834 -7 -42.501v-36h201v23c0 46.667 5.66699 85.834 17 117.501s30 57.5 56 77.5s60.167 34.5 102.5 43.5s94.166 14.167 155.499 15.5l11 -147
c-27.333 -1.33301 -50.166 -3.83301 -68.499 -7.5s-33 -9 -44 -16s-18.833 -16.333 -23.5 -28s-7 -25.834 -7 -42.501v-36h214l28 165l159 18v-183h103v-166h-102v-166c0 -27.333 4.16699 -45.833 12.5 -55.5s21.833 -14.5 40.5 -14.5c14 0 31 3 51 9v-144
c-14 -4 -30.833 -7.16699 -50.5 -9.5s-39.167 -3.5 -58.5 -3.5z" />
    <glyph glyph-name="f_h" unicode="fh" horiz-adv-x="1031" 
d="M474 808h200v-318c20 11.333 38 20.833 54 28.5s30.833 13.834 44.5 18.501s26.834 8 39.501 10s25.667 3 39 3c41.333 0 74.5 -13.5 99.5 -40.5s37.5 -62.5 37.5 -106.5v-403h-200v332c0 34.667 -13.333 52 -40 52c-8.66699 0 -19.334 -1.83301 -32.001 -5.5
s-26.667 -8.83398 -42 -15.501v-363h-200v808zM99 374h-87v166h88v23c0 46.667 5.66699 85.834 17 117.501s30 57.5 56 77.5s60.167 34.5 102.5 43.5s94.166 14.167 155.499 15.5l11 -147c-27.333 -1.33301 -50.166 -3.83301 -68.499 -7.5s-33 -9 -44 -16
s-18.833 -16.333 -23.5 -28s-7 -25.834 -7 -42.501v-36h122v-166h-122v-374h-200v374z" />
    <glyph glyph-name="f_j" unicode="fj" horiz-adv-x="724" 
d="M100 374h-87v166h88v23c0 46.667 5.66699 85.834 17 117.501s30 57.5 56 77.5s60.167 34.5 102.5 43.5s94.166 14.167 155.499 15.5l11 -147c-27.333 -1.33301 -50.166 -3.83301 -68.499 -7.5s-33 -9 -44 -16s-18.833 -16.333 -23.5 -28s-7 -25.834 -7 -42.501v-36h122
v-166h-122v-374h-200v374zM579 597c-38 0 -65.333 8.16895 -82 24.502s-25 43.166 -25 80.499c0 36.667 8.16699 63 24.5 79s43.833 24 82.5 24c38 0 65.333 -8.16699 82 -24.5s25 -42.5 25 -78.5c0 -36.667 -8.16699 -63.334 -24.5 -80.001s-43.833 -25 -82.5 -25z
M445 -187.998c11.333 43.333 20 91.332 26 143.999s9 111.334 9 176.001v33v70v89v92c0 29.333 -0.166992 55.166 -0.5 77.499s-0.5 37.833 -0.5 46.5h200v-470c-1.33301 -23.333 -4.5 -47.666 -9.5 -72.999s-11.667 -50.833 -20 -76.5s-18 -50.5 -29 -74.5
s-22.833 -46 -35.5 -66z" />
    <glyph glyph-name="f_k" unicode="fk" horiz-adv-x="1015" 
d="M474 808h200v-461h29l95 193h216l-150 -250l-28 -9v-4l28 -9l168 -268h-217l-112 210h-29v-210h-200v808zM99 374h-87v166h88v23c0 46.667 5.66699 85.834 17 117.501s30 57.5 56 77.5s60.167 34.5 102.5 43.5s94.166 14.167 155.499 15.5l11 -147
c-27.333 -1.33301 -50.166 -3.83301 -68.499 -7.5s-33 -9 -44 -16s-18.833 -16.333 -23.5 -28s-7 -25.834 -7 -42.501v-36h122v-166h-122v-374h-200v374z" />
    <glyph glyph-name="f_t" unicode="ft" horiz-adv-x="828" 
d="M696 -10c-64 0 -112.5 14.332 -145.5 42.999s-49.5 70.334 -49.5 125.001v216h-201v-374h-200v374h-87v166h88v23c0 46.667 5.66699 85.834 17 117.501s30 57.5 56 77.5s60.167 34.5 102.5 43.5s94.166 14.167 155.499 15.5l11 -147
c-27.333 -1.33301 -50.166 -3.83301 -68.499 -7.5s-33 -9 -44 -16s-18.833 -16.333 -23.5 -28s-7 -25.834 -7 -42.501v-36h213l28 165l159 18v-183h103v-166h-102v-166c0 -27.333 4.16699 -45.833 12.5 -55.5s21.833 -14.5 40.5 -14.5c14 0 31 3 51 9v-144
c-14 -4 -30.833 -7.16699 -50.5 -9.5s-39.167 -3.5 -58.5 -3.5z" />
    <glyph glyph-name=".notdef" horiz-adv-x="740" 
d="M62 1030h615v-1250h-615v1250zM517 -72v954h-295v-954h295z" />
    <glyph glyph-name="NULL" horiz-adv-x="0" 
 />
    <glyph glyph-name="NULL" horiz-adv-x="0" 
 />
    <glyph glyph-name="nonmarkingreturn" unicode="&#xd;" horiz-adv-x="278" 
 />
    <glyph glyph-name="space" unicode=" " horiz-adv-x="176" 
 />
    <glyph glyph-name="exclam" unicode="!" horiz-adv-x="299" 
d="M149 -10c-34 0 -60.167 8.66699 -78.5 26s-27.5 42 -27.5 74s9.16699 56.667 27.5 74s44.5 26 78.5 26s60.167 -8.66699 78.5 -26s27.5 -42 27.5 -74s-9.16699 -56.667 -27.5 -74s-44.5 -26 -78.5 -26zM89 287l-43 443v10h208v-10l-42 -443v-10h-123v10z" />
    <glyph glyph-name="quotedbl" unicode="&#x22;" horiz-adv-x="447" 
d="M198 808v-4l-48 -324h-107v328h155zM426 808v-4l-48 -324h-107v328h155z" />
    <glyph glyph-name="numbersign" unicode="#" horiz-adv-x="581" 
d="M319 186h-83l-15 -186h-132l15 186h-69v121h79l10 126h-89v121h99l15 186h132l-15 -186h83l15 186h132l-15 -186h66v-121h-76l-10 -126h86v-121h-96l-15 -186h-132zM246 307h83l10 126h-83z" />
    <glyph glyph-name="dollar" unicode="$" horiz-adv-x="581" 
d="M213 -9c-28.667 2.66699 -58.165 6.6709 -88.498 12.0039s-61.166 12.666 -92.499 21.999v169c34.667 -11.333 71.334 -20.833 110.001 -28.5s73.667 -11.5 105 -11.5c36 0 62 5 78 15s24 25.667 24 47c0 12 -2.83301 21.833 -8.5 29.5s-13.5 14.167 -23.5 19.5
s-22 9.66602 -36 12.999s-29.333 6.66602 -46 9.99902c-27.333 5.33301 -53 13 -77 23s-45 24.167 -63 42.5s-32.167 41.833 -42.5 70.5s-15.5 64.334 -15.5 107.001c0 53.333 14.833 97.666 44.5 132.999s72.167 59.666 127.5 72.999v138h171v-130
c21.333 -2 43.166 -5.16699 65.499 -9.5s47.166 -9.83301 74.499 -16.5v-162c-14 4 -29.333 7.83301 -46 11.5s-33.334 6.83398 -50.001 9.50098s-32.834 4.83398 -48.501 6.50098s-29.5 2.5 -41.5 2.5c-59.333 0 -89 -18.333 -89 -55c0 -13.333 3.33301 -24.5 10 -33.5
s16 -16.667 28 -23s26 -12 42 -17l52 -15.5c25.333 -7.33301 49 -16.333 71 -27s41 -24.334 57 -41.001s28.667 -37 38 -61s14 -53 14 -87c0 -59.333 -15 -108.333 -45 -147s-72.667 -65.334 -128 -80.001v-135h-171v126z" />
    <glyph glyph-name="percent" unicode="%" horiz-adv-x="1051" 
d="M229 274c-66.667 0 -117.5 20.001 -152.5 60.001s-52.5 99 -52.5 177c0 78.667 17.667 138.167 53 178.5s86 60.5 152 60.5c66.667 0 117.667 -20.167 153 -60.5s53 -99.833 53 -178.5s-17.667 -137.834 -53 -177.501s-86.333 -59.5 -153 -59.5zM229 397.001
c22.667 0 38.5 8.16895 47.5 24.502s13.5 46.166 13.5 89.499c0 44 -4.5 74.167 -13.5 90.5s-24.833 24.5 -47.5 24.5c-22 0 -37.5 -8.33301 -46.5 -25s-13.5 -46.667 -13.5 -90c0 -42.667 4.5 -72.334 13.5 -89.001s24.5 -25 46.5 -25zM821 -9.99707
c-66.667 0 -117.5 20 -152.5 60s-52.5 99.333 -52.5 178s17.667 138 53 178s86 60 152 60c66.667 0 117.667 -20 153 -60s53 -99.333 53 -178s-17.667 -138 -53 -178s-86.333 -60 -153 -60zM821 114.003c22.667 0 38.5 8.16699 47.5 24.5s13.5 46.166 13.5 89.499
s-4.5 73.166 -13.5 89.499s-24.833 24.5 -47.5 24.5c-22 0 -37.5 -8.16699 -46.5 -24.5s-13.5 -46.166 -13.5 -89.499s4.5 -73.166 13.5 -89.499s24.5 -24.5 46.5 -24.5zM589 740.003h162l-288 -740h-163z" />
    <glyph glyph-name="ampersand" unicode="&#x26;" horiz-adv-x="727" 
d="M324 -9c-44.667 0 -85.001 5 -121.001 15s-66.833 24.333 -92.5 43s-45.334 41.167 -59.001 67.5s-20.5 55.833 -20.5 88.5c0 48 12.667 88.667 38 122s60 55.333 104 66c-30 31.333 -51.5 60.5 -64.5 87.5s-19.5 54.5 -19.5 82.5c0 60 23.167 106.333 69.5 139
s111.5 49 195.5 49c63.333 0 128.333 -9.33301 195 -28l1 -5l-19 -147h-6c-23.333 8.66699 -49.166 15.5 -77.499 20.5s-53.166 7.5 -74.499 7.5c-30 0 -51.667 -4.83301 -65 -14.5s-20 -25.5 -20 -47.5c0 -40 54 -93.667 162 -161l34 -21v67l174 9v-88
c0 -16 -0.666992 -31.5 -2 -46.5s-3.33301 -29.5 -6 -43.5l86 -52v-7l-72 -160h-6l-84 58c-29.333 -32.667 -64.833 -57.667 -106.5 -75s-89.5 -26 -143.5 -26zM379.999 227l-50.998 36l-46 34c-33.333 -12 -50 -38.333 -50 -79c0 -23.333 9.66699 -42.5 29 -57.5
s44.666 -22.5 75.999 -22.5c47.333 0 82.666 14.667 105.999 44z" />
    <glyph glyph-name="quotesingle" unicode="'" horiz-adv-x="219" 
d="M198 808v-4l-48 -324h-107v328h155z" />
    <glyph glyph-name="parenleft" unicode="(" horiz-adv-x="347" 
d="M176 -160c-51.333 75.333 -89.666 157 -114.999 245s-38 177.667 -38 269s12.667 181 38 269s63.666 169.667 114.999 245h174v-4c-51.333 -75.333 -92.166 -156.5 -122.499 -243.5s-45.5 -175.833 -45.5 -266.5s15.167 -179.5 45.5 -266.5
s71.166 -168.167 122.499 -243.5v-4h-174v0z" />
    <glyph glyph-name="parenright" unicode=")" horiz-adv-x="347" 
d="M-3 -160v4c51.333 75.333 92 156.5 122 243.5s45 175.833 45 266.5s-15 179.5 -45 266.5s-70.667 168.167 -122 243.5v4h173c51.333 -75.333 89.666 -157 114.999 -245s38 -177.667 38 -269s-12.667 -181 -38 -269s-63.666 -169.667 -114.999 -245h-173z" />
    <glyph glyph-name="asterisk" unicode="*" horiz-adv-x="497" 
d="M71 477l43 59l86 67l-109 4l-68 23l36 112l69 -22l92 -62l-30 108v72h118v-72l-31 -107l92 61l69 22l36 -112l-68 -23l-109 -4l86 -67l43 -59l-96 -69l-43 58l-39 106l-38 -106l-43 -58z" />
    <glyph glyph-name="plus" unicode="+" horiz-adv-x="522" 
d="M25 437h170v155h134v-155h170v-134h-170v-155h-134v155h-170v134z" />
    <glyph glyph-name="comma" unicode="," horiz-adv-x="283" 
d="M12 -145l42 338h201l-94 -348z" />
    <glyph glyph-name="hyphen" unicode="-" horiz-adv-x="463" 
d="M43 352h377v-144h-377v144z" />
    <glyph glyph-name="period" unicode="." horiz-adv-x="272" 
d="M136 -9c-36.667 0 -63.8311 8.16699 -81.498 24.5s-26.5 42.833 -26.5 79.5c0 36 8.66699 62.167 26 78.5s44.666 24.5 81.999 24.5c36 0 63 -8.16699 81 -24.5s27 -42.5 27 -78.5c0 -36.667 -8.83301 -63.167 -26.5 -79.5s-44.834 -24.5 -81.501 -24.5z" />
    <glyph glyph-name="slash" unicode="/" horiz-adv-x="397" 
d="M207 740h171l-188 -860h-171z" />
    <glyph glyph-name="zero" unicode="0" horiz-adv-x="667" 
d="M334 -10c-98 0 -173 32.001 -225 96.001s-78 158.333 -78 283c0 125.333 26 220.166 78 284.499s127 96.5 225 96.5c97.333 0 172 -32 224 -96s78 -159 78 -285c0 -125.333 -26 -219.833 -78 -283.5s-126.667 -95.5 -224 -95.5zM334 155.001
c18 0 33.167 3.50098 45.5 10.501s22.333 18.833 30 35.5s13.167 38.667 16.5 66s5 61.333 5 102s-1.66699 74.834 -5 102.501s-8.83301 50 -16.5 67s-17.667 29 -30 36s-27.5 10.5 -45.5 10.5s-33.333 -3.66699 -46 -11s-22.834 -19.333 -30.501 -36
s-13.167 -38.834 -16.5 -66.501s-5 -61.834 -5 -102.501c0 -40 1.66699 -73.667 5 -101s8.83301 -49.333 16.5 -66s17.834 -28.667 30.501 -36s28 -11 46 -11z" />
    <glyph glyph-name="one" unicode="1" horiz-adv-x="454" 
d="M180 525h-4l-128 -37h-20l-26 100l4 21l225 131h154v-740h-205v525z" />
    <glyph glyph-name="two" unicode="2" horiz-adv-x="569" 
d="M29 131c0 33.333 4.16797 62.6689 12.501 88.002s20.833 48 37.5 68s37 38 61 54s51.667 32 83 48c36.667 18.667 63.667 36.834 81 54.501s26 39.5 26 65.5c0 28 -9 47.667 -27 59s-48 17 -90 17c-24.667 0 -50.834 -2.16699 -78.501 -6.5s-52.5 -9.16602 -74.5 -14.499
l-15 160c45.333 9.33301 86.833 16 124.5 20s72.5 6 104.5 6c88.667 0 154.334 -17.667 197.001 -53s64 -89.333 64 -162c0 -58.667 -14.833 -107.834 -44.5 -147.501s-70.834 -74.834 -123.501 -105.501l-59.5 -34.5c-15.667 -9 -28.167 -16.833 -37.5 -23.5
s-15.833 -12.834 -19.5 -18.501s-5.5 -11.834 -5.5 -18.501v-21h284v-166h-500v131z" />
    <glyph glyph-name="three" unicode="3" horiz-adv-x="538" 
d="M205 -11c-29.333 0 -58.834 1.16504 -88.501 3.49805s-56.5 6.16602 -80.5 11.499v151h4c14 -4.66699 33.333 -8.5 58 -11.5s48.667 -4.5 72 -4.5c25.333 0 46.5 1.33301 63.5 4s30.5 7.33398 40.5 14.001s17 15.167 21 25.5s6 23.5 6 39.5s-2 29.333 -6 40
s-11.167 19.334 -21.5 26.001s-24.333 11.334 -42 14.001s-40.5 4 -68.5 4h-47v138h46c24.667 0 44.834 1 60.501 3s27.834 6 36.501 12s14.5 14 17.5 24s4.5 23 4.5 39c0 28.667 -7.33301 48.5 -22 59.5s-41.334 16.5 -80.001 16.5c-17.333 0 -37.833 -1.33301 -61.5 -4
s-49.5 -6.66699 -77.5 -12h-4v152c23.333 5.33301 50 9.5 80 12.5s58.667 4.5 86 4.5c98.667 0 171 -15.333 217 -46s69 -78.334 69 -143.001c0 -96 -42.667 -155.333 -128 -178v-6c46.667 -9.33301 83 -29.166 109 -59.499s39 -67.833 39 -112.5
c0 -69.333 -26 -122.5 -78 -159.5s-127 -56.167 -225 -57.5z" />
    <glyph glyph-name="four" unicode="4" horiz-adv-x="621" 
d="M7 262v6l236 482h4l202 -12l9 -9l-248 -438v-4h123l40 168h149v-168h84v-149h-84v-138h-203v138h-294z" />
    <glyph glyph-name="five" unicode="5" horiz-adv-x="539" 
d="M205 -12c-23.333 0 -48.4971 1.33105 -75.4971 3.99805s-57.5 6.66699 -91.5 12v160h42c38 -8 73 -12 105 -12c43.333 0 75.166 5.83301 95.499 17.5s30.5 32.167 30.5 61.5c0 16.667 -2.83301 30.5 -8.5 41.5s-15.667 19.667 -30 26s-33.5 10.833 -57.5 13.5
s-54 4 -90 4h-73l-10 9l28 415h397v-164h-244l-7 -118c103.333 -1.33301 179.666 -19.666 228.999 -54.999s74 -93.666 74 -174.999c0 -40.667 -7.83301 -76 -23.5 -106s-37.334 -55 -65.001 -75s-60.667 -34.833 -99 -44.5s-80.5 -14.5 -126.5 -14.5z" />
    <glyph glyph-name="six" unicode="6" horiz-adv-x="630" 
d="M323 -10c-93.333 0 -165.328 29.6699 -215.995 89.0029s-76 145 -76 257c0 276 127.333 414 382 414c23.333 0 47.833 -1.66699 73.5 -5s53.167 -8.33301 82.5 -15l-25 -151c-26 5.33301 -48.833 9.16602 -68.5 11.499s-38.167 3.5 -55.5 3.5
c-57.333 0 -100.5 -12 -129.5 -36s-47.5 -65.333 -55.5 -124c35.333 29.333 81.666 44 138.999 44c36 0 68.667 -5.33301 98 -16s54.166 -25.667 74.499 -45s36.166 -43 47.499 -71s17 -59 17 -93c0 -40.667 -6.66699 -77.334 -20 -110.001s-32.333 -60.334 -57 -83.001
s-54.834 -40 -90.501 -52s-75.834 -18 -120.501 -18zM323.005 340.003c-18 0 -35.6689 -3.49902 -53.002 -10.499s-31 -15.5 -41 -25.5c2.66699 -55.333 11.334 -95 26.001 -119s37.334 -36 68.001 -36c30 0 51.667 7.83301 65 23.5s20 40.5 20 74.5
c0 33.333 -6.66699 57.166 -20 71.499s-35 21.5 -65 21.5z" />
    <glyph glyph-name="seven" unicode="7" horiz-adv-x="513" 
d="M253 -23l-171 23v21l214 550h-280l-3 147l26 22h443l25 -114v-22l-215 -602z" />
    <glyph glyph-name="eight" unicode="8" 
d="M310 -5c-93.333 0 -163.333 16.666 -210 49.999s-70 80 -70 140c0 42 8.66699 78 26 108s44.666 55.667 81.999 77c-25.333 17.333 -46.166 39.833 -62.499 67.5s-24.5 64.834 -24.5 111.501c0 30 6.33301 57.333 19 82s30.5 45.667 53.5 63s50.667 30.833 83 40.5
s68.166 14.5 107.499 14.5c38.667 0 73.834 -4.83301 105.501 -14.5s58.667 -23.167 81 -40.5s39.5 -38.333 51.5 -63s18 -52 18 -82c0 -18 -1.33301 -34.167 -4 -48.5s-7.16699 -27.5 -13.5 -39.5s-14.833 -23.333 -25.5 -34s-24 -21 -40 -31
c28.667 -15.333 52.667 -37 72 -65s29 -66.333 29 -115c0 -69.333 -23.167 -123.5 -69.5 -162.5s-115.833 -58.5 -208.5 -58.5zM400 198.999c0 16.667 -3.33203 30.6689 -9.99902 42.002s-15.5 21.333 -26.5 30s-24 16 -39 22s-30.833 12 -47.5 18
c-17.333 -13.333 -31.5 -27.833 -42.5 -43.5s-16.5 -33.834 -16.5 -54.501c0 -30 8 -52.333 24 -67s38.667 -22 68 -22s51.666 6.16699 66.999 18.5s23 31.166 23 56.499zM230.001 536.001c0 -13.333 3 -24.833 9 -34.5s14.167 -18 24.5 -25s22.5 -13 36.5 -18
s29 -9.5 45 -13.5c30.667 26 46 58.667 46 98c0 24 -7 42.333 -21 55s-34 19 -60 19c-25.333 0 -45 -7 -59 -21s-21 -34 -21 -60z" />
    <glyph glyph-name="nine" unicode="9" horiz-adv-x="630" 
d="M307 750c93.333 0 165.328 -29.6699 215.995 -89.0029s76 -145 76 -257c0 -276 -127.333 -414 -382 -414c-23.333 0 -47.833 1.66699 -73.5 5s-53.167 8.33301 -82.5 15l25 151c26 -5.33301 48.833 -9.16602 68.5 -11.499s38.167 -3.5 55.5 -3.5
c57.333 0 100.5 12 129.5 36s47.5 65.333 55.5 124c-17.333 -14 -37.666 -24.833 -60.999 -32.5s-49.333 -11.5 -78 -11.5c-36 0 -68.667 5.33301 -98 16s-54.166 25.667 -74.499 45s-36.166 43 -47.499 71s-17 59 -17 93c0 40.667 6.66699 77.334 20 110.001
s32.333 60.334 57 83.001s54.834 40 90.501 52s75.834 18 120.501 18zM306.995 399.997c18 0 35.6689 3.49902 53.002 10.499s31 15.5 41 25.5c-2.66699 55.333 -11.334 95 -26.001 119s-37.334 36 -68.001 36c-30 0 -51.667 -7.83301 -65 -23.5s-20 -40.5 -20 -74.5
c0 -33.333 6.66699 -57.166 20 -71.499s35 -21.5 65 -21.5z" />
    <glyph glyph-name="colon" unicode=":" horiz-adv-x="292" 
d="M146 -9c-36.667 0 -63.8311 8.16699 -81.498 24.5s-26.5 42.833 -26.5 79.5c0 36 8.66699 62.167 26 78.5s44.666 24.5 81.999 24.5c36 0 63 -8.16699 81 -24.5s27 -42.5 27 -78.5c0 -36.667 -8.83301 -63.167 -26.5 -79.5s-44.834 -24.5 -81.501 -24.5zM146.003 344
c-36.667 0 -63.8311 8.16699 -81.498 24.5s-26.5 42.833 -26.5 79.5c0 36 8.66699 62.167 26 78.5s44.666 24.5 81.999 24.5c36 0 63 -8.16699 81 -24.5s27 -42.5 27 -78.5c0 -36.667 -8.83301 -63.167 -26.5 -79.5s-44.834 -24.5 -81.501 -24.5z" />
    <glyph glyph-name="semicolon" unicode=";" horiz-adv-x="296" 
d="M14 -145l42 338h201l-94 -348zM153 344c-36.667 0 -63.8311 8.16699 -81.498 24.5s-26.5 42.833 -26.5 79.5c0 36 8.66699 62.167 26 78.5s44.666 24.5 81.999 24.5c36 0 63 -8.16699 81 -24.5s27 -42.5 27 -78.5c0 -36.667 -8.83301 -63.167 -26.5 -79.5
s-44.834 -24.5 -81.501 -24.5z" />
    <glyph glyph-name="less" unicode="&#x3c;" horiz-adv-x="558" 
d="M25 297v132l483 207v-147l-294 -126l294 -126v-147z" />
    <glyph glyph-name="equal" unicode="=" horiz-adv-x="537" 
d="M46 305h444v-138h-444v138zM46 528h444v-138h-444v138z" />
    <glyph glyph-name="greater" unicode="&#x3e;" horiz-adv-x="558" 
d="M51 237l294 126l-294 126v147l483 -207v-132l-483 -207v147z" />
    <glyph glyph-name="question" unicode="?" horiz-adv-x="455" 
d="M123 260l-17.999 174.999c48 9.33301 82.5 21.333 103.5 36s31.5 34 31.5 58c0 42.667 -29.667 64 -89 64c-9.33301 0 -19.5 -0.5 -30.5 -1.5s-21.833 -2.16699 -32.5 -3.5s-21 -2.83301 -31 -4.5s-18.333 -3.5 -25 -5.5l-5 149c52.667 12.667 107.667 19 165 19
c77.333 0 136.666 -17 177.999 -51s62 -82.667 62 -146c0 -53.333 -15.167 -97.166 -45.5 -131.499s-73.833 -56.5 -130.5 -66.5l-9 -90v-14h-124v13zM188.001 -10.001c-34 0 -60.167 8.66699 -78.5 26s-27.5 42 -27.5 74s9.16699 56.667 27.5 74s44.5 26 78.5 26
s60.167 -8.66699 78.5 -26s27.5 -42 27.5 -74s-9.16699 -56.667 -27.5 -74s-44.5 -26 -78.5 -26z" />
    <glyph glyph-name="at" unicode="@" horiz-adv-x="844" 
d="M414 -136c-50.667 0 -99.167 7.16699 -145.5 21.5s-87.333 37.333 -123 69s-64.167 72.667 -85.5 123s-32 111.5 -32 183.5c0 67.333 10 126.666 30 177.999s48 94.5 84 129.5s79.167 61.5 129.5 79.5s105.833 27 166.5 27c64.667 0 120.5 -8.66699 167.5 -26
s85.667 -42 116 -74s52.666 -70.667 66.999 -116s21.5 -96.333 21.5 -153c0 -39.333 -4.16699 -75 -12.5 -107s-20.833 -59.167 -37.5 -81.5s-37.167 -39.5 -61.5 -51.5s-52.833 -18 -85.5 -18c-30 0 -54.167 7 -72.5 21s-29.5 34.333 -33.5 61h-4
c-17.333 -28 -38.666 -47.833 -63.999 -59.5s-52.666 -17.5 -81.999 -17.5c-24 0 -45 4.5 -63 13.5s-33 21.5 -45 37.5s-21 34.833 -27 56.5s-9 45.5 -9 71.5c0 38 5.5 72.833 16.5 104.5s27 59 48 82s46.333 41 76 54s63.167 19.5 100.5 19.5
c23.333 0 49.166 -3.66699 77.499 -11s59.166 -17.666 92.499 -30.999l-37 -204c-1.33301 -8.66699 -2.83301 -17.667 -4.5 -27s-2.5 -18.333 -2.5 -27c0 -13.333 2.66699 -24.333 8 -33s15.666 -13 30.999 -13c22.667 0 40.167 14.167 52.5 42.5s18.5 67.5 18.5 117.5
c0 40 -4.83301 75.833 -14.5 107.5s-24.667 58.667 -45 81s-46.5 39.5 -78.5 51.5s-70 18 -114 18c-43.333 0 -82.666 -6.5 -117.999 -19.5s-65.666 -32.333 -90.999 -58s-45 -57.334 -59 -95.001s-21 -81.167 -21 -130.5c0 -53.333 7.33301 -98.5 22 -135.5
s34.167 -67 58.5 -90s52.5 -39.833 84.5 -50.5s65.333 -16 100 -16c26 0 56.167 3.83301 90.5 11.5s70.5 17.834 108.5 30.501l35 -101c-42 -13.333 -83 -24.333 -123 -33s-77 -13 -111 -13zM384 154c19.333 0 37.999 7.99805 55.999 23.998s30.667 44.667 38 86l22 123
c-8 2.66699 -15.667 4.33398 -23 5.00098s-14.666 1 -21.999 1c-19.333 0 -36.5 -4 -51.5 -12s-28 -19.167 -39 -33.5s-19.333 -31.333 -25 -51s-8.5 -41.167 -8.5 -64.5c0 -21.333 3.83301 -39.666 11.5 -54.999s21.5 -23 41.5 -23z" />
    <glyph glyph-name="A" unicode="A" horiz-adv-x="689" 
d="M-4 8l194 732h310l194 -732v-8h-195l-40 156h-230l-39 -156h-194v8zM419 317l-37 154l-30 123h-14l-31 -124l-37 -153h149z" />
    <glyph glyph-name="B" unicode="B" horiz-adv-x="652" 
d="M292 -10c-78.667 0 -158 5 -238 15v730c46 5.33301 88.5 9.16602 127.5 11.499s75.833 3.5 110.5 3.5c110.667 0 191.167 -17 241.5 -51s75.5 -88 75.5 -162c0 -82 -37.667 -133.333 -113 -154v-4c43.333 -9.33301 76.333 -28.666 99 -57.999s34 -68 34 -116
c0 -143.333 -112.333 -215 -337 -215zM313 141c72 0 107.999 26.333 107.999 79c0 30 -8 51 -24 63s-44.333 18 -85 18h-68v-156c6.66699 -1.33301 14.334 -2.33301 23.001 -3s24 -1 46 -1zM305.999 442c36 0 60.833 5.83203 74.5 17.499s20.5 32.834 20.5 63.501
c0 26.667 -7 46.167 -21 58.5s-37 18.5 -69 18.5c-20.667 0 -43 -2 -67 -6v-152h62z" />
    <glyph glyph-name="C" unicode="C" horiz-adv-x="544" 
d="M362 -11c-112 0 -195.664 31 -250.997 93s-83 158 -83 288s27.667 226 83 288s136.666 93 243.999 93c24 0 49.167 -1.5 75.5 -4.5s55.5 -7.16699 87.5 -12.5v-161c-30 4 -55.333 6.83301 -76 8.5s-39.667 2.5 -57 2.5c-28 0 -51.5 -2.83301 -70.5 -8.5
s-34.167 -16.167 -45.5 -31.5s-19.333 -37.166 -24 -65.499s-7 -64.833 -7 -109.5s2.33301 -80.834 7 -108.501s12.667 -49.334 24 -65.001s26.333 -26.167 45 -31.5s42 -8 70 -8c23.333 0 46.666 1.33301 69.999 4s44.666 6.33398 63.999 11.001v-159
c-17.333 -6.66699 -40.333 -12.167 -69 -16.5s-57.667 -6.5 -87 -6.5z" />
    <glyph glyph-name="D" unicode="D" horiz-adv-x="703" 
d="M262 -12c-30.667 0 -63.001 1.16309 -97.001 3.49609s-71 5.5 -111 9.5v739c51.333 2.66699 94.5 4.83398 129.5 6.50098s66.5 2.5 94.5 2.5c72 0 133.167 -6.83301 183.5 -20.5s91.333 -35.667 123 -66s54.834 -69.666 69.501 -117.999s22 -106.833 22 -175.5
c0 -69.333 -7.33301 -128.166 -22 -176.499s-38.5 -87.666 -71.5 -117.999s-75.833 -52.333 -128.5 -66s-116.667 -20.5 -192 -20.5zM337.999 150.996c26 0 47.166 3.00391 63.499 9.00391s29.333 17.167 39 33.5s16.334 38.666 20.001 66.999s5.5 64.833 5.5 109.5
c0 43.333 -2.16699 79.166 -6.5 107.499s-12.333 50.666 -24 66.999s-27.167 27.666 -46.5 33.999s-44 9.5 -74 9.5c-11.333 0 -21.5 -0.333008 -30.5 -1s-18.5 -1.66699 -28.5 -3v-427c17.333 -2 32.333 -3.5 45 -4.5s25 -1.5 37 -1.5z" />
    <glyph glyph-name="E" unicode="E" horiz-adv-x="599" 
d="M54 740h507v-165h-302v-122h269v-166h-269v-121h311v-166h-516v740z" />
    <glyph glyph-name="F" unicode="F" horiz-adv-x="575" 
d="M54 740h500v-165h-295v-145h261v-165h-261v-265h-205v740z" />
    <glyph glyph-name="G" unicode="G" horiz-adv-x="640" 
d="M361 -11c-113.333 0 -197.331 31.502 -251.998 94.502s-82 158.5 -82 286.5c0 126.667 31 221.834 93 285.501s155.333 95.5 280 95.5c30.667 0 62.167 -2 94.5 -6s63.833 -10 94.5 -18v-161c-37.333 6.66699 -69.833 11.5 -97.5 14.5s-51.834 4.5 -72.501 4.5
c-36 0 -65.667 -3.33301 -89 -10s-41.833 -18.334 -55.5 -35.001s-23.334 -38.834 -29.001 -66.501s-8.5 -62.5 -8.5 -104.5c0 -42.667 2.16699 -77.834 6.5 -105.501s12 -49.5 23 -65.5s25.833 -27 44.5 -33s42.667 -9 72 -9h16.5c5.66699 0 11.5 0.333008 17.5 1v219h185
v-361c-50 -8.66699 -94.667 -15.167 -134 -19.5s-75 -6.5 -107 -6.5z" />
    <glyph glyph-name="H" unicode="H" horiz-adv-x="742" 
d="M54 740h205v-279h224v279h205v-740h-205v296h-224v-296h-205v740z" />
    <glyph glyph-name="I" unicode="I" horiz-adv-x="313" 
d="M54 740h205v-740h-205v740z" />
    <glyph glyph-name="J" unicode="J" horiz-adv-x="313" 
d="M-19 -159c14.667 33.333 26.832 64.1699 36.499 92.5029s17.334 56.166 23.001 83.499s9.66699 55.666 12 84.999s3.5 61.666 3.5 96.999v541h206v-559c0 -35.333 -2.66699 -68.5 -8 -99.5s-14 -62.167 -26 -93.5s-27.667 -63.5 -47 -96.5s-43 -68.833 -71 -107.5z" />
    <glyph glyph-name="K" unicode="K" horiz-adv-x="683" 
d="M54 740h205v-281h73l117 281h226l-153 -329l-62 -27v-8l63 -28l172 -348h-227l-137 293h-72v-293h-205v740z" />
    <glyph glyph-name="L" unicode="L" horiz-adv-x="521" 
d="M54 740h205v-575h250v-165h-455v740z" />
    <glyph glyph-name="M" unicode="M" horiz-adv-x="947" 
d="M54 740h289l100 -314l26 -137h8l27 137l100 314h289v-740h-187v506h-7l-42 -154l-102 -315h-166l-101 315l-43 154h-7v-506h-184v740z" />
    <glyph glyph-name="N" unicode="N" horiz-adv-x="737" 
d="M54 740h165l231 -323l44 -79h11v402h179v-740h-165l-229 323l-47 82h-11v-405h-178v740z" />
    <glyph glyph-name="O" unicode="O" horiz-adv-x="733" 
d="M366 -10c-225.333 0 -338 126.334 -338 379.001c0 254 112.667 381 338 381c114 0 199 -31.333 255 -94s84 -158.334 84 -287.001c0 -128 -28 -223.167 -84 -285.5s-141 -93.5 -255 -93.5zM366 155.001c24.667 0 45.334 3.33008 62.001 9.99707s30 18.167 40 34.5
s17 38.333 21 66s6 62.167 6 103.5c0 42 -2 76.833 -6 104.5s-11 49.834 -21 66.501s-23.333 28.334 -40 35.001s-37.334 10 -62.001 10c-24 0 -44.167 -3.5 -60.5 -10.5s-29.5 -18.833 -39.5 -35.5s-17.167 -38.834 -21.5 -66.501s-6.5 -62.167 -6.5 -103.5
s2 -75.666 6 -102.999s11 -49.166 21 -65.499s23.167 -28 39.5 -35s36.833 -10.5 61.5 -10.5z" />
    <glyph glyph-name="P" unicode="P" horiz-adv-x="651" 
d="M54 735c36 5.33301 71.999 9.16797 107.999 11.501s71.667 3.5 107 3.5c64.667 0 120.334 -5.16699 167.001 -15.5s84.667 -26.5 114 -48.5s51 -50 65 -84s21 -74.667 21 -122c0 -92.667 -28.5 -160.334 -85.5 -203.001s-146.833 -64 -269.5 -64h-22v-213h-205v735z
M306.999 373.002c23.333 0 42.834 1.66699 58.501 5s28 9.16602 37 17.499s15.333 19.333 19 33s5.5 30.834 5.5 51.501s-1.83301 37.834 -5.5 51.501s-10 24.667 -19 33s-21.333 14.166 -37 17.499s-35.5 5 -59.5 5c-7.33301 0 -16 -0.333008 -26 -1
s-17 -1.33398 -21 -2.00098v-208c6 -1.33301 13.667 -2.16602 23 -2.49902s17.666 -0.5 24.999 -0.5z" />
    <glyph glyph-name="Q" unicode="Q" horiz-adv-x="731" 
d="M618 -160c-113.333 32 -207.999 64.3301 -283.999 96.9971s-136.667 69.334 -182 110.001s-77.5 87 -96.5 139s-28.5 113 -28.5 183c0 254 112.667 381 338 381c226 0 339 -127 339 -381c0 -179.333 -83.333 -284.666 -250 -315.999v-14
c27.333 -7.33301 51.166 -13.166 71.499 -17.499s40 -8 59 -11s38.833 -5.33301 59.5 -7s45 -3.16699 73 -4.5zM365.001 151.997c26 0 47.499 3.33301 64.499 10s30.5 18.334 40.5 35.001s17.167 39 21.5 67s6.5 63 6.5 105c0 42.667 -2.16699 78 -6.5 106
s-11.666 50.5 -21.999 67.5s-24 29 -41 36s-38.167 10.5 -63.5 10.5s-46.5 -3.5 -63.5 -10.5s-30.5 -19 -40.5 -36s-17.167 -39.667 -21.5 -68s-6.5 -63.5 -6.5 -105.5s2.16699 -76.833 6.5 -104.5s11.5 -49.834 21.5 -66.501s23.5 -28.5 40.5 -35.5
s38.167 -10.5 63.5 -10.5z" />
    <glyph glyph-name="R" unicode="R" horiz-adv-x="664" 
d="M54 735c33.333 5.33301 67.999 9.16699 103.999 11.5s73 3.5 111 3.5c64.667 0 120.167 -4.83301 166.5 -14.5s84.333 -25 114 -46s51.5 -47.833 65.5 -80.5s21 -72 21 -118c0 -103.333 -41.667 -175 -125 -215l155 -276h-218l-115 240
c-9.33301 -0.666992 -21.666 -1 -36.999 -1h-37v-239h-205v735zM306.999 395.001c23.333 0 42.8301 1.50195 58.4971 4.50195s28 8.16699 37 15.5s15.333 17.166 19 29.499s5.5 27.833 5.5 46.5s-1.83301 34.167 -5.5 46.5s-10.167 22.166 -19.5 29.499
s-21.666 12.5 -36.999 15.5s-35 4.5 -59 4.5c-5.33301 0 -13.166 -0.333008 -23.499 -1s-18.166 -1.33398 -23.499 -2.00098v-186c5.33301 -1.33301 12.333 -2.16602 21 -2.49902s17.667 -0.5 27 -0.5z" />
    <glyph glyph-name="S" unicode="S" horiz-adv-x="573" 
d="M278 -12c-38 0 -77.832 3.00098 -119.499 9.00098s-84.5 15.333 -128.5 28v169c34.667 -11.333 71.334 -20.833 110.001 -28.5s73.667 -11.5 105 -11.5c36 0 62 5 78 15s24 25.667 24 47c0 12 -2.83301 21.833 -8.5 29.5s-13.5 14.167 -23.5 19.5s-22 9.66602 -36 12.999
s-29.333 6.66602 -46 9.99902c-27.333 5.33301 -53 13 -77 23s-45 24.167 -63 42.5s-32.167 41.833 -42.5 70.5s-15.5 64.334 -15.5 107.001c0 68.667 24.333 122.167 73 160.5s116.667 57.5 204 57.5c32 0 64 -2.33301 96 -7s68.667 -12.334 110 -23.001v-162
c-14 4 -29.333 7.83301 -46 11.5s-33.334 6.83398 -50.001 9.50098s-32.834 4.83398 -48.501 6.50098s-29.5 2.5 -41.5 2.5c-59.333 0 -89 -18.333 -89 -55c0 -13.333 3.33301 -24.5 10 -33.5s16 -16.667 28 -23s26 -12 42 -17l52 -15.5c25.333 -7.33301 49 -16.333 71 -27
s41 -24.334 57 -41.001s28.667 -37 38 -61s14 -53 14 -87c0 -76 -24.167 -134.833 -72.5 -176.5s-116.5 -62.5 -204.5 -62.5z" />
    <glyph glyph-name="T" unicode="T" horiz-adv-x="593" 
d="M194 572h-176v168h557v-168h-176v-572h-205v572z" />
    <glyph glyph-name="U" unicode="U" horiz-adv-x="725" 
d="M363 -10c-58.667 0 -108.165 6.33398 -148.498 19.001s-72.833 31.5 -97.5 56.5s-42.334 56.333 -53.001 94s-16 81.5 -16 131.5v449h205v-443c0 -49.333 8.33301 -84.833 25 -106.5s45 -32.5 85 -32.5c40.667 0 69 10.667 85 32s24 57 24 107v443h205v-449
c0 -50.667 -5.33301 -94.834 -16 -132.501s-28.334 -69 -53.001 -94s-57 -43.667 -97 -56s-89.333 -18.5 -148 -18.5z" />
    <glyph glyph-name="V" unicode="V" horiz-adv-x="682" 
d="M-5 740h206l105 -398l29 -161h15l31 161l103 398h202l-204 -740h-280z" />
    <glyph glyph-name="W" unicode="W" horiz-adv-x="1015" 
d="M2 740h224l62 -414l9 -97h13l14 97l87 414h198l87 -414l14 -97h13l9 97l62 414h219l-166 -740h-249l-71 315l-13 151h-12l-13 -151l-71 -315h-250z" />
    <glyph glyph-name="X" unicode="X" horiz-adv-x="690" 
d="M214 385l-209 355h230l100 -193l13 -30h5l12 30l99 193h221l-214 -348l238 -392h-227l-129 229l-11 28h-6l-11 -28l-121 -229h-222z" />
    <glyph glyph-name="Y" unicode="Y" horiz-adv-x="708" 
d="M252 246l-265 494h229l115 -248l19 -60h10l19 60l116 248h225l-263 -492v-248h-205v246z" />
    <glyph glyph-name="Z" unicode="Z" horiz-adv-x="605" 
d="M25 175l305 388v11h-288v166h520v-174l-304 -390v-10h323v-166h-556v175z" />
    <glyph glyph-name="bracketleft" unicode="[" horiz-adv-x="368" 
d="M62 868h288v-127h-135v-774h135v-127h-288v1028z" />
    <glyph glyph-name="backslash" unicode="\" horiz-adv-x="397" 
d="M19 740h171l188 -860h-171z" />
    <glyph glyph-name="bracketright" unicode="]" horiz-adv-x="368" 
d="M18 -160v127h135v774h-135v127h288v-1028h-288z" />
    <glyph glyph-name="asciicircum" unicode="^" horiz-adv-x="483" 
d="M151 789h182l127 -308h-140l-76 193h-4l-77 -193h-140z" />
    <glyph glyph-name="underscore" unicode="_" horiz-adv-x="593" 
d="M34 -59h526v-144h-526v144z" />
    <glyph glyph-name="grave" unicode="`" horiz-adv-x="301" 
d="M129 609l-126 199h205l63 -189z" />
    <glyph glyph-name="a" unicode="a" horiz-adv-x="559" 
d="M177 -5c-24 0 -45.833 4 -65.5 12s-36.5 19.333 -50.5 34s-24.667 32.167 -32 52.5s-11 42.833 -11 67.5c0 106.667 66.333 164 199 172l100 6c-0.666992 14 -2.16699 25.167 -4.5 33.5s-6.5 15 -12.5 20s-14.5 8.33301 -25.5 10s-24.833 2.5 -41.5 2.5
c-9.33301 0 -21 -0.5 -35 -1.5s-28.833 -2.16699 -44.5 -3.5s-30.834 -3 -45.501 -5s-27 -4 -37 -6l-12 140c34.667 5.33301 69.334 9.83301 104.001 13.5s68 5.5 100 5.5c88.667 0 153.167 -14.167 193.5 -42.5s60.5 -73.5 60.5 -135.5v-370h-164l-15 65h-10
c-18 -22.667 -40.333 -40 -67 -52s-54.667 -18 -84 -18zM258 134c9.33301 0 19.6689 2.16699 31.002 6.5s20.666 9.5 27.999 15.5v74l-49 -5c-18.667 -2 -31.834 -6.33301 -39.501 -13s-11.5 -17 -11.5 -31c0 -31.333 13.667 -47 41 -47z" />
    <glyph glyph-name="b" unicode="b" horiz-adv-x="603" 
d="M293 -10c-33.333 0 -69.667 3.33398 -109 10.001s-86 17.667 -140 33v775h200v-322c16 21.333 36.167 37.166 60.5 47.499s51.5 15.5 81.5 15.5c128 0 192 -86.667 192 -260c0 -93.333 -23 -166 -69 -218s-118 -79 -216 -81zM295.999 121.001
c16.667 0 30.165 1.83398 40.498 5.50098s18.333 10.834 24 21.501s9.5 25.5 11.5 44.5s3 43.833 3 74.5c0 29.333 -0.833008 53.166 -2.5 71.499s-4.66699 32.5 -9 42.5s-10.666 16.833 -18.999 20.5s-18.833 5.5 -31.5 5.5c-13.333 0 -24.333 -2.5 -33 -7.5
s-15.667 -13.833 -21 -26.5s-9.16602 -29.834 -11.499 -51.501s-3.5 -49.167 -3.5 -82.5v-108c5.33301 -3.33301 12.5 -5.83301 21.5 -7.5s19.167 -2.5 30.5 -2.5z" />
    <glyph glyph-name="c" unicode="c" horiz-adv-x="472" 
d="M307 -9c-94.667 0 -165.335 22.3301 -212.002 66.9971s-70 115.334 -70 212.001s23.333 167.334 70 212.001s117.334 67 212.001 67c25.333 0 49.666 -1.5 72.999 -4.5s43.333 -7.16699 60 -12.5v-154c-42.667 7.33301 -79.667 11 -111 11
c-38 0 -64.5 -8.66699 -79.5 -26s-22.5 -47.666 -22.5 -90.999c0 -44 7.5 -75.167 22.5 -93.5s40.833 -27.5 77.5 -27.5c22.667 0 42.834 0.833008 60.501 2.5s35.167 4.5 52.5 8.5v-153c-16.667 -6 -36.667 -10.5 -60 -13.5s-47.666 -4.5 -72.999 -4.5z" />
    <glyph glyph-name="d" unicode="d" horiz-adv-x="605" 
d="M217 -10c-127.333 0 -190.999 87 -190.999 261c0 100 24 174.667 72 224s118.667 74 212 74c7.33301 0 14.666 -0.166992 21.999 -0.5s16.333 -0.833008 27 -1.5v261h200v-808h-181l-12 58h-6c-33.333 -45.333 -81 -68 -143 -68zM290.001 131
c13.333 0 24.334 2.5 33.001 7.5s15.667 14 21 27s9.16602 30.333 11.499 52s3.5 49.5 3.5 83.5v106c-12.667 7.33301 -30.667 11 -54 11c-16 0 -29 -1.83301 -39 -5.5s-17.667 -10.834 -23 -21.501s-9 -25.5 -11 -44.5s-3 -43.833 -3 -74.5
c0 -28.667 0.833008 -52.167 2.5 -70.5s4.66699 -32.666 9 -42.999s10.5 -17.5 18.5 -21.5s18.333 -6 31 -6z" />
    <glyph glyph-name="e" unicode="e" horiz-adv-x="550" 
d="M294 -9c-179.333 0 -268.998 92 -268.998 276c0 93.333 22.5 163.666 67.5 210.999s112.833 71 203.5 71c78 0 135.5 -20.667 172.5 -62s55.5 -106 55.5 -194c0 -19.333 -0.5 -35 -1.5 -47s-2.83301 -24 -5.5 -36h-292c1.33301 -15.333 3.66602 -27.666 6.99902 -36.999
s8.16602 -16.5 14.499 -21.5s14.5 -8.33301 24.5 -10s22.333 -2.5 37 -2.5c23.333 0 52.666 2.5 87.999 7.5s70 11.167 104 18.5l5 -143c-29.333 -9.33301 -63.166 -16.833 -101.499 -22.5s-74.833 -8.5 -109.5 -8.5zM289.002 407c-21.333 0 -36.832 -6 -46.499 -18
s-15.834 -34.667 -18.501 -68h125c-1.33301 32 -6.33301 54.333 -15 67s-23.667 19 -45 19z" />
    <glyph glyph-name="f" unicode="f" horiz-adv-x="430" 
d="M99 374h-87v166h88v23c0 46.667 5.66699 85.834 17 117.501s30 57.5 56 77.5s60.167 34.5 102.5 43.5s94.166 14.167 155.499 15.5l11 -147c-27.333 -1.33301 -50.166 -3.83301 -68.499 -7.5s-33 -9 -44 -16s-18.833 -16.333 -23.5 -28s-7 -25.834 -7 -42.501v-36h122
v-166h-122v-374h-200v374z" />
    <glyph glyph-name="g" unicode="g" horiz-adv-x="604" 
d="M258 -220c-32 0 -65.168 1.83105 -99.501 5.49805s-66.5 9.16699 -96.5 16.5l12 143c28 -5.33301 55.333 -9.66602 82 -12.999s51.667 -5 75 -5c45.333 0 79.5 8.83301 102.5 26.5s34.5 48.834 34.5 93.501v41h-6c-15.333 -22.667 -35 -39.334 -59 -50.001
s-51 -16 -81 -16c-65.333 0 -114.166 19 -146.499 57s-48.5 96.333 -48.5 175c0 98.667 24.167 172.5 72.5 221.5s118.833 73.5 211.5 73.5c16 0 32.667 -0.666992 50 -2s35.833 -3.5 55.5 -6.5s41.167 -7.16699 64.5 -12.5s49.666 -12 78.999 -20v-431
c0 -50.667 -7 -94.667 -21 -132s-34.167 -68.166 -60.5 -92.499s-58.166 -42.5 -95.499 -54.5s-79 -18 -125 -18zM290.999 154.998c13.333 0 24.499 2.5 33.499 7.5s16.167 13.5 21.5 25.5s9 28 11 48s3 45.333 3 76v95c-12.667 7.33301 -30.667 11 -54 11
c-16 0 -29 -1.83301 -39 -5.5s-17.667 -10.667 -23 -21s-9 -24.666 -11 -42.999s-3 -42.5 -3 -72.5c0 -24.667 0.666992 -44.834 2 -60.501s4.33301 -28 9 -37s10.834 -15.167 18.501 -18.5s18.167 -5 31.5 -5z" />
    <glyph glyph-name="h" unicode="h" horiz-adv-x="602" 
d="M45 808h200v-318c20 11.333 38 20.833 54 28.5s30.833 13.834 44.5 18.501s26.834 8 39.501 10s25.667 3 39 3c41.333 0 74.5 -13.5 99.5 -40.5s37.5 -62.5 37.5 -106.5v-403h-200v332c0 34.667 -13.333 52 -40 52c-8.66699 0 -19.334 -1.83301 -32.001 -5.5
s-26.667 -8.83398 -42 -15.501v-363h-200v808z" />
    <glyph glyph-name="i" unicode="i" horiz-adv-x="291" 
d="M145 597c-38 0 -65.1689 8.16895 -81.502 24.502s-24.5 43.166 -24.5 80.499c0 36.667 8.16699 63 24.5 79s43.5 24 81.5 24c38.667 0 66.334 -8.16699 83.001 -24.5s25 -42.5 25 -78.5c0 -36.667 -8.16699 -63.334 -24.5 -80.001s-44.166 -25 -83.499 -25z
M44.998 540.002h200v-540h-200v540z" />
    <glyph glyph-name="j" unicode="j" horiz-adv-x="291" 
d="M146 597c-38 0 -65.333 8.16895 -82 24.502s-25 43.166 -25 80.499c0 36.667 8.16699 63 24.5 79s43.833 24 82.5 24c38 0 65.333 -8.16699 82 -24.5s25 -42.5 25 -78.5c0 -36.667 -8.16699 -63.334 -24.5 -80.001s-43.833 -25 -82.5 -25zM12 -187.998
c11.333 43.333 20 91.332 26 143.999s9 111.334 9 176.001v33v70v89v92c0 29.333 -0.166992 55.166 -0.5 77.499s-0.5 37.833 -0.5 46.5h200v-470c-1.33301 -23.333 -4.5 -47.666 -9.5 -72.999s-11.667 -50.833 -20 -76.5s-18 -50.5 -29 -74.5s-22.833 -46 -35.5 -66z" />
    <glyph glyph-name="k" unicode="k" horiz-adv-x="586" 
d="M45 808h200v-461h29l95 193h216l-150 -250l-28 -9v-4l28 -9l168 -268h-217l-112 210h-29v-210h-200v808z" />
    <glyph glyph-name="l" unicode="l" horiz-adv-x="291" 
d="M45 808h200v-808h-200v808z" />
    <glyph glyph-name="m" unicode="m" horiz-adv-x="884" 
d="M46 540l164 -0.000976562l10 -59h6c20 13.333 37.833 24.333 53.5 33s30.5 15.667 44.5 21s27.5 9.16602 40.5 11.499s26.5 3.5 40.5 3.5c26.667 0 50.167 -6 70.5 -18s36.5 -29 48.5 -51h6c18 12.667 34.667 23.334 50 32.001s29.833 15.834 43.5 21.501
s27 9.66699 40 12s26.833 3.5 41.5 3.5c41.333 0 74.333 -13.5 99 -40.5s37 -62.5 37 -106.5v-403h-196v330c0 35.333 -14.333 53 -43 53c-7.33301 0 -16.5 -1.83301 -27.5 -5.5s-21.833 -8.5 -32.5 -14.5v-363h-197v330c0 35.333 -14.333 53 -43 53
c-7.33301 0 -16.5 -1.83301 -27.5 -5.5s-21.833 -8.5 -32.5 -14.5v-363h-196v540z" />
    <glyph glyph-name="n" unicode="n" horiz-adv-x="602" 
d="M46 540h167.998l10 -59h6c22.667 13.333 42.834 24.5 60.501 33.5s33.834 16.167 48.501 21.5s28.667 9 42 11s27.333 3 42 3c40.667 0 73.5 -13.5 98.5 -40.5s37.5 -62.5 37.5 -106.5v-403h-200v332c0 18.667 -3.5 32 -10.5 40s-16.833 12 -29.5 12
c-10 0 -21.5 -2 -34.5 -6s-25.833 -9 -38.5 -15v-363h-200v540z" />
    <glyph glyph-name="o" unicode="o" horiz-adv-x="593" 
d="M297 -11c-89.333 0 -157 23.833 -203 71.5s-69 117.5 -69 209.5s23 161.667 69 209s113.667 71 203 71s156.833 -23.5 202.5 -70.5s68.5 -116.833 68.5 -209.5c0 -92 -22.833 -161.833 -68.5 -209.5s-113.167 -71.5 -202.5 -71.5zM297 139c14.667 0 26.667 1.5 36 4.5
s16.5 9.33301 21.5 19s8.5 23 10.5 40s3 39.5 3 67.5s-1 50.5 -3 67.5s-5.5 30.167 -10.5 39.5s-12.167 15.5 -21.5 18.5s-21.333 4.5 -36 4.5c-15.333 0 -27.666 -1.5 -36.999 -4.5s-16.666 -9.16699 -21.999 -18.5s-8.83301 -22.5 -10.5 -39.5s-2.5 -39.5 -2.5 -67.5
s0.833008 -50.5 2.5 -67.5s5.16699 -30.333 10.5 -40s12.666 -16 21.999 -19s21.666 -4.5 36.999 -4.5z" />
    <glyph glyph-name="p" unicode="p" horiz-adv-x="605" 
d="M46 540h179.001l11 -59h5c16 22.667 36.5 39.667 61.5 51s53.5 17 85.5 17c127.333 0 191 -86.667 191 -260c0 -99.333 -23.833 -174 -71.5 -224s-117.167 -75 -208.5 -75c-14.667 0 -32.334 1 -53.001 3v-213h-200v760zM300.001 122c16 0 29 1.83398 39 5.50098
s17.667 10.834 23 21.501s9 25.5 11 44.5s3 43.833 3 74.5c0 29.333 -0.666992 53.166 -2 71.499s-4.33301 32.666 -9 42.999s-11 17.333 -19 21s-18.333 5.5 -31 5.5c-13.333 0 -24.5 -2.66699 -33.5 -8s-16.167 -14.5 -21.5 -27.5s-9 -30.5 -11 -52.5s-3 -50 -3 -84v-104
c11.333 -7.33301 29.333 -11 54 -11z" />
    <glyph glyph-name="q" unicode="q" horiz-adv-x="604" 
d="M362 57c-17.333 -23.333 -37.833 -40.1689 -61.5 -50.502s-51.167 -15.5 -82.5 -15.5c-128 0 -192 86.333 -192 259c0 102.667 24.333 178.334 73 227.001s122 73 220 73c37.333 0 76.833 -2.66699 118.5 -8s82.167 -11.666 121.5 -18.999v-743h-197v277zM292 130.997
c14 0 25.3301 2.66797 33.9971 8.00098s15.5 14.5 20.5 27.5s8.33301 30.667 10 53s2.5 50.166 2.5 83.499v105c-9.33301 6.66699 -27.333 10 -54 10c-18 0 -32.333 -1.66699 -43 -5s-18.667 -9.83301 -24 -19.5s-8.83301 -23.667 -10.5 -42s-2.5 -42.5 -2.5 -72.5
c0 -31.333 0.833008 -56.5 2.5 -75.5s4.83398 -34 9.50098 -45s11.334 -18.333 20.001 -22s20.334 -5.5 35.001 -5.5z" />
    <glyph glyph-name="r" unicode="r" horiz-adv-x="428" 
d="M46 540h167.997l10 -84h7c4 6 11.333 13.333 22 22s22.834 17.5 36.501 26.5s27.834 17.5 42.501 25.5s28.334 14.333 41.001 19h46v-176h-77c-8.66699 -0.666992 -17.834 -2.5 -27.501 -5.5s-19 -6.5 -28 -10.5s-17.167 -8.33301 -24.5 -13s-12.666 -9 -15.999 -13v-331
h-200v540z" />
    <glyph glyph-name="s" unicode="s" horiz-adv-x="490" 
d="M224 -10c-30 0 -62.0029 2.50098 -96.0029 7.50098s-65.667 11.833 -95 20.5v141c28.667 -9.33301 59.334 -16.666 92.001 -21.999s63.667 -8 93 -8c21.333 0 36.666 2.16699 45.999 6.5s14 11.5 14 21.5c0 9.33301 -4.66699 16.666 -14 21.999s-24.666 9 -45.999 11
c-18 2 -37.833 4.66699 -59.5 8s-41.667 10.666 -60 21.999s-33.666 28.333 -45.999 51s-18.5 54 -18.5 94c0 59.333 18.667 105 56 137s90.333 48 159 48c28 0 58.833 -1.83301 92.5 -5.5s67.5 -9.16699 101.5 -16.5l-5 -144c-36 8 -65.667 13.667 -89 17
s-44.666 5 -63.999 5c-43.333 0 -65 -10.667 -65 -32c0 -10 4.66699 -17.667 14 -23s25.333 -9 48 -11c21.333 -2 43 -5.5 65 -10.5s42 -13.5 60 -25.5s32.667 -28.5 44 -49.5s17 -48.5 17 -82.5c0 -59.333 -20.667 -104.5 -62 -135.5s-102 -46.5 -182 -46.5z" />
    <glyph glyph-name="t" unicode="t" horiz-adv-x="417" 
d="M284 -10c-64 0 -112.5 14.332 -145.5 42.999s-49.5 70.334 -49.5 125.001v216h-77v166h89l28 165l159 18v-183h103v-166h-102v-166c0 -27.333 4.16699 -45.833 12.5 -55.5s21.833 -14.5 40.5 -14.5c14 0 31 3 51 9v-144c-14 -4 -30.833 -7.16699 -50.5 -9.5
s-39.167 -3.5 -58.5 -3.5z" />
    <glyph glyph-name="u" unicode="u" horiz-adv-x="601" 
d="M194 -10c-46 0 -82.833 13.499 -110.5 40.499s-41.5 62.5 -41.5 106.5v403h200v-337c0 -35.333 14.667 -53 44 -53c18.667 0 42 7 70 21v369h200v-540h-168l-11 56h-4c-21.333 -13.333 -39.5 -24.166 -54.5 -32.499s-29.167 -15 -42.5 -20s-26.333 -8.5 -39 -10.5
s-27 -3 -43 -3z" />
    <glyph glyph-name="v" unicode="v" horiz-adv-x="587" 
d="M1 527v13h210l61 -272l17 -101h10l17 101l63 272h208v-13l-177 -527h-233z" />
    <glyph glyph-name="w" unicode="w" horiz-adv-x="804" 
d="M12 536v4h186l37 -288l6 -59h13l7 59l50 288h182l50 -288l8 -59h12l7 59l37 288h186v-4l-112 -536h-222l-45 259l-5 57h-13l-6 -57l-44 -259h-222z" />
    <glyph glyph-name="x" unicode="x" horiz-adv-x="584" 
d="M2 16l149 265l-145 249v10h211l55 -123l16 -39h10l16 39l53 123h211v-10l-145 -261l148 -253v-16h-208l-62 139l-15 44h-11l-16 -44l-58 -139h-209v16z" />
    <glyph glyph-name="y" unicode="y" horiz-adv-x="595" 
d="M134 -185v11l61 177l-198 521v16h208l67 -252l19 -90h11l20 90l67 252h206v-16l-265 -744z" />
    <glyph glyph-name="z" unicode="z" horiz-adv-x="501" 
d="M29 134l202 248v8h-195v150h427v-135l-196 -246v-9h206v-150h-444v134z" />
    <glyph glyph-name="braceleft" unicode="{" horiz-adv-x="332" 
d="M20 428c23.333 0 39.166 7.1709 47.499 21.5039s12.5 35.833 12.5 64.5v227c0 46 9.16699 78.667 27.5 98s47.5 29 87.5 29c6 0 14.833 -0.166992 26.5 -0.5s23.5 -0.833008 35.5 -1.5s22.833 -1.16699 32.5 -1.5s16.167 -0.833008 19.5 -1.5v-122h-26
c-16 0 -27.5 -3.33301 -34.5 -10s-10.5 -17.334 -10.5 -32.001v-226c0 -31.333 -7.66699 -57.833 -23 -79.5s-35.666 -34.834 -60.999 -39.501c25.333 -3.33301 45.666 -15.5 60.999 -36.5s23 -47.167 23 -78.5v-230c0 -14.667 3.5 -25.334 10.5 -32.001s18.5 -10 34.5 -10
h26v-122c-3.33301 -0.666992 -9.83301 -1.33398 -19.5 -2.00098s-20.5 -1.16699 -32.5 -1.5l-35.5 -1c-11.667 -0.333008 -20.5 -0.5 -26.5 -0.5c-40 0 -69.167 9.66699 -87.5 29s-27.5 52 -27.5 98v230c0 28.667 -4.16699 50 -12.5 64s-24.166 21 -47.499 21v146z" />
    <glyph glyph-name="bar" unicode="|" horiz-adv-x="311" 
d="M249 808v-1028h-187v1028h187z" />
    <glyph glyph-name="braceright" unicode="}" horiz-adv-x="332" 
d="M312 282c-23.333 0 -39.166 -7.00391 -47.499 -21.0039s-12.5 -35.333 -12.5 -64v-230c0 -46 -9 -78.667 -27 -98s-47 -29 -87 -29c-6 0 -14.833 0.166992 -26.5 0.5l-35.5 1c-12 0.333008 -23.167 0.833008 -33.5 1.5s-16.833 1.33398 -19.5 2.00098v122h27
c16 0 27.5 3.33301 34.5 10s10.5 17.334 10.5 32.001v230c0 31.333 7.66699 57.5 23 78.5s35.666 33.167 60.999 36.5c-25.333 4.66699 -45.666 17.834 -60.999 39.501s-23 48.167 -23 79.5v226c0 14.667 -3.5 25.334 -10.5 32.001s-18.5 10 -34.5 10h-27v122
c2.66699 0.666992 9.16699 1.16699 19.5 1.5s21.5 0.833008 33.5 1.5s23.833 1.16699 35.5 1.5s20.5 0.5 26.5 0.5c40 0 69 -9.66699 87 -29s27 -52 27 -98v-227c0 -28.667 4.16699 -50.167 12.5 -64.5s24.166 -21.5 47.499 -21.5v-146z" />
    <glyph glyph-name="asciitilde" unicode="~" horiz-adv-x="644" 
d="M23 263c22 29.333 41.3369 53.667 58.0039 73s32.167 34.666 46.5 45.999s28.166 19.166 41.499 23.499s27.666 6.5 42.999 6.5c20.667 0 39.667 -3.83301 57 -11.5s34 -16.167 50 -25.5s31.5 -17.833 46.5 -25.5s30.5 -11.5 46.5 -11.5c18 0 35 6.5 51 19.5
s31.667 32.5 47 58.5l112 -68l-35 -50.5c-12.667 -18.333 -26.834 -35.5 -42.501 -51.5s-32.667 -29.333 -51 -40s-38.833 -16 -61.5 -16c-20.667 0 -39.667 3.83301 -57 11.5s-34 16.334 -50 26.001s-31.333 18.334 -46 26.001s-30 11.5 -46 11.5
c-34.667 0 -67.334 -26 -98.001 -78z" />
    <glyph glyph-name="uni00A0" unicode="&#xa0;" horiz-adv-x="176" 
 />
    <glyph glyph-name="exclamdown" unicode="&#xa1;" horiz-adv-x="285" 
d="M141 550c34 0 60.167 -8.66699 78.5 -26s27.5 -42 27.5 -74s-9.16699 -56.667 -27.5 -74s-44.5 -26 -78.5 -26s-60.167 8.66699 -78.5 26s-27.5 42 -27.5 74s9.16699 56.667 27.5 74s44.5 26 78.5 26zM81 263h123v-10l42 -443v-10h-208v10l43 443v10z" />
    <glyph glyph-name="cent" unicode="&#xa2;" horiz-adv-x="480" 
d="M239 -5c-72.667 9.33301 -126.668 36.3311 -162.001 80.998s-53 109.334 -53 194.001c0 84 17.667 148.333 53 193s89.333 72 162 82v115h121v-113c15.333 -1.33301 29.666 -3.33301 42.999 -6s25.333 -5.66699 36 -9v-154c-42.667 7.33301 -79.667 11 -111 11
c-38 0 -64.5 -8.66699 -79.5 -26s-22.5 -47.666 -22.5 -90.999c0 -44 7.5 -75.167 22.5 -93.5s40.833 -27.5 77.5 -27.5c22.667 0 42.834 0.833008 60.501 2.5s35.167 4.5 52.5 8.5v-153c-10.667 -4 -22.667 -7.33301 -36 -10s-27.666 -4.66699 -42.999 -6v-113h-121v115z
" />
    <glyph glyph-name="sterling" unicode="&#xa3;" horiz-adv-x="655" 
d="M33 450l121.003 0.000976562v76c0 76.667 21.333 133.167 64 169.5s109.667 54.5 201 54.5c31.333 0 62.333 -1.83301 93 -5.5s66.667 -9.83398 108 -18.501v-160c-12.667 2.66699 -26.334 5 -41.001 7s-29.334 3.66699 -44.001 5s-28.834 2.5 -42.501 3.5
s-26.167 1.5 -37.5 1.5c-36 0 -61 -4.33301 -75 -13s-21 -24.667 -21 -48v-72h178v-152h-178v-127h252v-171h-578v173h121v125h-121v152z" />
    <glyph glyph-name="currency" unicode="&#xa4;" horiz-adv-x="613" 
d="M30 163l55.999 53l51 38c-26.667 32 -40 70.667 -40 116c0 44.667 13.333 83 40 115l-51 39l-56 53l69 69l53 -55l46 -61c31.333 14.667 67 22 107 22c40.667 0 77 -7.66699 109 -23l46 62l54 55l68 -69l-55 -53l-53 -40c12.667 -15.333 22.5 -32.5 29.5 -51.5
s10.5 -39.833 10.5 -62.5c0 -44.667 -13.333 -83 -40 -115l53 -39l55 -53l-68 -69l-54 55l-45 61c-32 -15.333 -68.333 -23 -109 -23c-41.333 0 -77.666 7.33301 -108.999 22l-45 -60l-53 -55zM214.999 370c0 -28 8.16699 -49.501 24.5 -64.501s38.5 -22.5 66.5 -22.5
s50 7.33301 66 22s24 36.334 24 65.001c0 28 -8 49.333 -24 64s-38 22 -66 22s-50.167 -7.33301 -66.5 -22s-24.5 -36 -24.5 -64z" />
    <glyph glyph-name="yen" unicode="&#xa5;" horiz-adv-x="771" 
d="M99 378h115l-194 362h229l115 -248l19 -60h10l19 60l116 248h225l-194 -362h107v-132h-176v-64h176v-132h-176v-50h-205v50h-186v132h186v64h-186v132z" />
    <glyph glyph-name="brokenbar" unicode="&#xa6;" horiz-adv-x="312" 
d="M63 205h186v-425h-186v425zM63 808h186v-425h-186v425z" />
    <glyph glyph-name="section" unicode="&#xa7;" horiz-adv-x="513" 
d="M233 -10c-30 0 -62.0029 2.50098 -96.0029 7.50098s-65.667 11.833 -95 20.5v141c28.667 -9.33301 59.334 -16.666 92.001 -21.999s63.667 -8 93 -8c21.333 0 36.666 2.16699 45.999 6.5s14 11.5 14 21.5c0 9.33301 -4.66699 16.666 -14 21.999s-24.666 9 -45.999 11
c-18 2 -37.833 4.66699 -59.5 8s-41.667 10.666 -60 21.999s-33.666 28.333 -45.999 51s-18.5 54 -18.5 94c0 42.667 10 78.667 30 108c-9.33301 11.333 -16.666 25.5 -21.999 42.5s-8 37.5 -8 61.5c0 59.333 18.667 105 56 137s90.333 48 159 48
c28 0 58.167 -1.83301 90.5 -5.5s65.5 -9.16699 99.5 -16.5l-1 -144c-36 8 -65.667 13.667 -89 17s-44.666 5 -63.999 5c-43.333 0 -65 -10.667 -65 -32c0 -10 4.66699 -17.667 14 -23s25.333 -9 48 -11c21.333 -2 43 -5.5 65 -10.5s42 -13.5 60 -25.5
s32.667 -28.5 44 -49.5s17 -48.5 17 -82.5c0 -45.333 -12 -82 -36 -110c11.333 -11.333 20.166 -25.333 26.499 -42s9.5 -36.667 9.5 -60c0 -59.333 -20.667 -104.5 -62 -135.5s-102 -46.5 -182 -46.5zM285.997 328.001c2.66699 4.66699 4.83203 9.83105 6.49902 15.498
s2.5 12.167 2.5 19.5c0 20.667 -8.66699 34 -26 40c-2.66699 1.33301 -7.16699 2.83301 -13.5 4.5s-11.166 2.83398 -14.499 3.50098c-12.667 -10 -19 -21 -19 -33s2 -21.333 6 -28s11.667 -11.667 23 -15c3.33301 -1.33301 8.5 -2.66602 15.5 -3.99902
s13.5 -2.33301 19.5 -3z" />
    <glyph glyph-name="dieresis" unicode="&#xa8;" horiz-adv-x="526" 
d="M133 608c-34 0 -58.5 7.33203 -73.5 21.999s-22.5 38.667 -22.5 72c0 32.667 7.5 56.334 22.5 71.001s39.5 22 73.5 22s58.667 -7.5 74 -22.5s23 -38.5 23 -70.5c0 -33.333 -7.66699 -57.333 -23 -72s-40 -22 -74 -22zM391 607.999c-34.667 0 -59.5 7.33203 -74.5 21.999
s-22.5 38.667 -22.5 72c0 32.667 7.5 56.334 22.5 71.001s39.833 22 74.5 22c34 0 58.5 -7.5 73.5 -22.5s22.5 -38.5 22.5 -70.5c0 -33.333 -7.5 -57.333 -22.5 -72s-39.5 -22 -73.5 -22z" />
    <glyph glyph-name="copyright" unicode="&#xa9;" horiz-adv-x="799" 
d="M414 164c-126.667 0 -190 68.335 -190 205.002s63.333 205 190 205c16 0 32.5 -1 49.5 -3s31.5 -4.66699 43.5 -8v-103c-18 3.33301 -33.5 5.66602 -46.5 6.99902s-23.5 2 -31.5 2c-16.667 0 -30.167 -1.83301 -40.5 -5.5s-18.333 -9.5 -24 -17.5s-9.5 -18.333 -11.5 -31
s-3 -27.667 -3 -45c0 -35.333 4.83301 -61 14.5 -77s30.5 -24 62.5 -24c7.33301 0 18 0.666992 32 2s30 3.66602 48 6.99902v-103c-12 -3.33301 -26.5 -6 -43.5 -8s-33.5 -3 -49.5 -3zM399 -9.99805c-56 0 -106.833 9.16699 -152.5 27.5s-84.5 44.166 -116.5 77.499
s-56.833 73.333 -74.5 120s-26.5 98.334 -26.5 155.001s8.83301 108.334 26.5 155.001s42.5 86.667 74.5 120s70.833 59.166 116.5 77.499s96.5 27.5 152.5 27.5s106.833 -9.16699 152.5 -27.5s84.5 -44.166 116.5 -77.499s56.833 -73.333 74.5 -120
s26.5 -98.334 26.5 -155.001s-8.83301 -108.334 -26.5 -155.001s-42.5 -86.667 -74.5 -120s-70.833 -59.166 -116.5 -77.499s-96.5 -27.5 -152.5 -27.5zM399 88.002c42 0 79.333 6.66699 112 20s60.167 32.333 82.5 57s39.5 54.334 51.5 89.001s18 73.334 18 116.001
s-6 81.334 -18 116.001s-29.167 64.334 -51.5 89.001s-49.833 43.667 -82.5 57s-70 20 -112 20s-79.5 -6.66699 -112.5 -20s-60.667 -32.333 -83 -57s-39.5 -54.334 -51.5 -89.001s-18 -73.334 -18 -116.001s6 -81.334 18 -116.001s29.167 -64.334 51.5 -89.001
s50 -43.667 83 -57s70.5 -20 112.5 -20z" />
    <glyph glyph-name="ordfeminine" unicode="&#xaa;" horiz-adv-x="449" 
d="M144 348c-38 0 -67.8359 11.168 -89.5029 33.501s-32.5 52.5 -32.5 90.5c0 74 47 112.667 141 116l88 3c0 11.333 -0.666992 20.166 -2 26.499s-3.66602 11.166 -6.99902 14.499s-8.33301 5.33301 -15 6s-15.334 1 -26.001 1c-20 0 -42.667 -0.833008 -68 -2.5
s-48.666 -4.16699 -69.999 -7.5l-8 101c25.333 5.33301 51.5 9.33301 78.5 12s54.5 4 82.5 4c68 0 117 -9.83301 147 -29.5s45 -51.167 45 -94.5v-270h-134l-7 47h-4c-11.333 -15.333 -28.166 -27.666 -50.499 -36.999s-45.166 -14 -68.499 -14zM209.997 452.001
c6.66699 0 14 1.49805 22 4.49805s14.333 6.83301 19 11.5v45l-46 -4c-9.33301 -1.33301 -16 -3.66602 -20 -6.99902s-6 -9.66602 -6 -18.999c0 -20.667 10.333 -31 31 -31z" />
    <glyph glyph-name="guillemotleft" unicode="&#xab;" horiz-adv-x="668" 
d="M21 268v4l123 238h200l-123 -238v-4l123 -238h-200zM322 268v4l123 238h200l-123 -238v-4l123 -238h-200z" />
    <glyph glyph-name="logicalnot" unicode="&#xac;" horiz-adv-x="801" 
d="M33 445h719v-353h-196v193h-523v160z" />
    <glyph glyph-name="uni00AD" unicode="&#xad;" horiz-adv-x="463" 
d="M43 352h377v-144h-377v144z" />
    <glyph glyph-name="registered" unicode="&#xae;" horiz-adv-x="678" 
d="M231 608c17.333 1.33301 34.167 2.5 50.5 3.5s32.5 1.5 48.5 1.5c88 0 132 -33.333 132 -100c0 -22 -4.5 -40.667 -13.5 -56s-22.5 -26 -40.5 -32v-2l60 -120h-81l-45 99h-31v-99h-80v305zM330.001 462c20.667 0 34.168 3.83398 40.501 11.501s9.5 20.167 9.5 37.5
c0 13.333 -2.83301 24.166 -8.5 32.499s-16.834 12.5 -33.501 12.5h-27v-94h19zM339.002 144.001c-46 0 -87.833 7.33301 -125.5 22s-69.834 35.334 -96.501 62.001s-47.334 58.667 -62.001 96s-22 78.666 -22 123.999s7.33301 86.666 22 123.999s35.334 69.333 62.001 96
s58.834 47.334 96.501 62.001s79.5 22 125.5 22s87.833 -7.33301 125.5 -22s69.834 -35.334 96.501 -62.001s47.334 -58.667 62.001 -96s22 -78.666 22 -123.999s-7.33301 -86.666 -22 -123.999s-35.334 -69.333 -62.001 -96s-58.834 -47.334 -96.501 -62.001
s-79.5 -22 -125.5 -22zM339.002 222.001c34.667 0 65.834 5.33301 93.501 16s51 25.834 70 45.501s33.5 43.5 43.5 71.5s15 59 15 93s-5 65 -15 93s-24.5 51.833 -43.5 71.5s-42.333 34.834 -70 45.501s-58.834 16 -93.501 16c-35.333 0 -66.666 -5.33301 -93.999 -16
s-50.5 -25.834 -69.5 -45.501s-33.5 -43.5 -43.5 -71.5s-15 -59 -15 -93s5 -65 15 -93s24.5 -51.833 43.5 -71.5s42.167 -34.834 69.5 -45.501s58.666 -16 93.999 -16z" />
    <glyph glyph-name="macron" unicode="&#xaf;" horiz-adv-x="474" 
d="M45 746h374v-122h-374v122z" />
    <glyph glyph-name="degree" unicode="&#xb0;" horiz-adv-x="444" 
d="M222 371c-30 0 -57.333 4.66699 -82 14s-45.834 22.333 -63.501 39s-31.5 36.667 -41.5 60s-15 48.666 -15 75.999s5 52.666 15 75.999s23.833 43.5 41.5 60.5s38.834 30.167 63.501 39.5s52 14 82 14s57.333 -4.66699 82 -14s46 -22.5 64 -39.5
s31.833 -37.167 41.5 -60.5s14.5 -48.666 14.5 -75.999s-4.83301 -52.666 -14.5 -75.999s-23.5 -43.333 -41.5 -60s-39.333 -29.667 -64 -39s-52 -14 -82 -14zM222 472c31.333 0 54.333 7.66699 69 23s22 37 22 65s-7.33301 49.833 -22 65.5s-37.667 23.5 -69 23.5
s-54.5 -7.83301 -69.5 -23.5s-22.5 -37.5 -22.5 -65.5s7.5 -49.667 22.5 -65s38.167 -23 69.5 -23z" />
    <glyph glyph-name="plusminus" unicode="&#xb1;" horiz-adv-x="537" 
d="M41 491h160v155h134v-155h160v-134h-160v-145h-134v145h-160v134zM42 168h454v-134h-454v134z" />
    <glyph glyph-name="twosuperior" unicode="&#xb2;" horiz-adv-x="453" 
d="M22 402c0 22 2.83301 41.999 8.5 59.999s14.667 34.833 27 50.5s28.5 30.667 48.5 45s44 28.5 72 42.5c30.667 14.667 51.334 27.167 62.001 37.5s16 22.166 16 35.499c0 26.667 -27.667 40 -83 40c-18.667 0 -38.667 -1.5 -60 -4.5l-65 -9.5l-14 134
c35.333 6.66699 68.333 11.834 99 15.501s58.667 5.5 84 5.5c140 0 210 -54.667 210 -164c0 -40.667 -10.333 -75.167 -31 -103.5s-50.334 -52.166 -89.001 -71.499c-62 -34 -93 -56.667 -93 -68v-9h209v-138h-401v102z" />
    <glyph glyph-name="threesuperior" unicode="&#xb3;" horiz-adv-x="425" 
d="M171 293c-27.333 0 -52.9971 0.830078 -76.9971 2.49707s-45.333 4.5 -64 8.5v143h8c12 -3.33301 27.833 -6.16602 47.5 -8.49902s37.5 -3.5 53.5 -3.5c37.333 0 62.666 2.83301 75.999 8.5s20 15.834 20 30.501c0 8 -1.5 14.667 -4.5 20s-8.33301 9.5 -16 12.5
s-18.167 5.16699 -31.5 6.5s-30 2 -50 2h-41v120h41c33.333 0 56.166 2.83301 68.499 8.5s18.5 15.834 18.5 30.501c0 14 -5.5 24 -16.5 30s-30.5 9 -58.5 9c-13.333 0 -29.333 -1 -48 -3s-38.667 -4.66699 -60 -8h-7v139c18.667 4 40 7.16699 64 9.5s47.333 3.5 70 3.5
c78.667 0 136 -11.5 172 -34.5s54 -59.5 54 -109.5c0 -64 -25.667 -106.667 -77 -128c28.667 -10 50.667 -26 66 -48s23 -48.333 23 -79c0 -52 -19.833 -92 -59.5 -120s-96.834 -42 -171.501 -42z" />
    <glyph glyph-name="acute" unicode="&#xb4;" horiz-adv-x="293" 
d="M22 619l63 189h205l-125 -199z" />
    <glyph glyph-name="mu" unicode="&#xb5;" horiz-adv-x="639" 
d="M61 540l200 0.000976562v-338c0 -34.667 14.667 -52 44 -52c18.667 0 42 7 70 21v369h200v-540h-169l-10 56h-4c-30 -18.667 -54.667 -32.834 -74 -42.501s-38.333 -16.167 -57 -19.5v-214h-200v760z" />
    <glyph glyph-name="paragraph" unicode="&#xb6;" horiz-adv-x="616" 
d="M374 0l-83.001 -0.00390625v266c-10 -0.666992 -17.833 -1 -23.5 -1h-21.5c-34 0 -64.833 4.16699 -92.5 12.5s-51 21.833 -70 40.5s-33.667 43.334 -44 74.001s-15.5 68.334 -15.5 113.001s5 82.334 15 113.001s24.5 55.334 43.5 74.001s42 32.167 69 40.5
s57.5 12.5 91.5 12.5c18.667 0 39.834 -0.833008 63.501 -2.5s46.167 -4.16699 67.5 -7.5v-735zM542.999 -0.00390625h-114v735h114v-735z" />
    <glyph glyph-name="periodcentered" unicode="&#xb7;" horiz-adv-x="275" 
d="M137 266c-38 0 -65.333 8.16699 -82 24.5s-25 42.833 -25 79.5s8.33301 63.334 25 80.001s44 25 82 25s65.5 -8.33301 82.5 -25s25.5 -43.334 25.5 -80.001s-8.5 -63.167 -25.5 -79.5s-44.5 -24.5 -82.5 -24.5z" />
    <glyph glyph-name="cedilla" unicode="&#xb8;" horiz-adv-x="280" 
d="M125 -220c-12 0 -26.3301 1 -42.9971 3s-34.667 5 -54 9v113c14 -3.33301 27.5 -5.5 40.5 -6.5s22.167 -1.5 27.5 -1.5c11.333 0 19 2.5 23 7.5s6 10.167 6 15.5c0 13.333 -6.33301 31.5 -19 54.5s-30.334 48.5 -53.001 76.5h118c15.333 -18 28.166 -34.167 38.499 -48.5
s18.666 -27.833 24.999 -40.5s10.833 -24.834 13.5 -36.501s4 -24.167 4 -37.5c0 -33.333 -10.833 -59.666 -32.5 -78.999s-53.167 -29 -94.5 -29z" />
    <glyph glyph-name="onesuperior" unicode="&#xb9;" horiz-adv-x="365" 
d="M141 672l-98 -22h-18l-22 78l3 23l179 95h127v-546h-171v372z" />
    <glyph glyph-name="ordmasculine" unicode="&#xba;" horiz-adv-x="463" 
d="M231 456c12.667 0 22.5 1 29.5 3s12.167 6.33301 15.5 13s5.33301 15.834 6 27.501s1 27.167 1 46.5c0 18.667 -0.333008 34 -1 46s-2.66699 21.167 -6 27.5s-8.5 10.666 -15.5 12.999s-16.833 3.5 -29.5 3.5c-12 0 -21.5 -1.16699 -28.5 -3.5
s-12.167 -6.66602 -15.5 -12.999s-5.33301 -15.5 -6 -27.5s-1 -27.333 -1 -46c0 -19.333 0.333008 -34.833 1 -46.5s2.66699 -20.834 6 -27.501s8.5 -11 15.5 -13s16.5 -3 28.5 -3zM231 345c-66.667 0 -118 16.5 -154 49.5s-54 83.5 -54 151.5s18 118.5 54 151.5
s87.333 49.5 154 49.5c68 0 119.833 -16.5 155.5 -49.5s53.5 -83.5 53.5 -151.5s-17.833 -118.5 -53.5 -151.5s-87.5 -49.5 -155.5 -49.5z" />
    <glyph glyph-name="guillemotright" unicode="&#xbb;" horiz-adv-x="668" 
d="M224 30h-200l122 238v4l-122 238h200l122 -238v-4zM525 30h-200l122 238v4l-122 238h200l122 -238v-4z" />
    <glyph glyph-name="onequarter" unicode="&#xbc;" horiz-adv-x="1137" 
d="M876 99h-213l-15 103l171 334l13 9l150 -9l12 -21l-182 -293h80l46 122h109v-122h63v-123h-63v-99h-171v99zM588 740h163l-289 -740h-162zM158 572l-98 -22h-18l-22 78l3 23l179 95h127v-546h-171v372z" />
    <glyph glyph-name="onehalf" unicode="&#xbd;" horiz-adv-x="1142" 
d="M699 102c0 22 2.83105 41.833 8.49805 59.5s14.667 34.334 27 50.001s28.333 30.667 48 45s43.834 28.833 72.501 43.5c30.667 14.667 51.334 27.167 62.001 37.5s16 22.166 16 35.499c0 26.667 -27.667 40 -83 40c-20 0 -41.167 -1.16699 -63.5 -3.5
s-42.833 -5.83301 -61.5 -10.5l-14 134c74.667 14 135.667 21 183 21c140 0 210 -54.667 210 -164c0 -78 -40 -136.333 -120 -175c-62 -34 -93 -56.667 -93 -68v-9h209v-138h-401v102zM587.998 740h163l-289 -740h-162zM157.998 572l-98 -22h-18l-22 78l3 23l179 95h127
v-546h-171v372z" />
    <glyph glyph-name="threequarters" unicode="&#xbe;" horiz-adv-x="1127" 
d="M182 193c-27.333 0 -52.9971 0.830078 -76.9971 2.49707s-45.333 4.5 -64 8.5v143h8c12 -3.33301 27.833 -6.16602 47.5 -8.49902s37.5 -3.5 53.5 -3.5c37.333 0 62.666 2.83301 75.999 8.5s20 15.834 20 30.501c0 8 -1.5 14.667 -4.5 20s-8.33301 9.5 -16 12.5
s-18.167 5.16699 -31.5 6.5s-30 2 -50 2h-41v120h41c33.333 0 56.166 2.83301 68.499 8.5s18.5 15.834 18.5 30.501c0 14 -5.5 24 -16.5 30s-30.5 9 -58.5 9c-13.333 0 -29.333 -1 -48 -3s-38.667 -4.66699 -60 -8h-7v139c18.667 4 40 7.16699 64 9.5s47.333 3.5 70 3.5
c78.667 0 136 -11.5 172 -34.5s54 -59.5 54 -109.5c0 -64 -25.667 -106.667 -77 -128c28.667 -10 50.667 -26 66 -48s23 -48.333 23 -79c0 -52 -19.833 -92 -59.5 -120s-96.834 -42 -171.501 -42zM870.003 98.9971h-213l-15 103l171 334l13 9l150 -9l12 -21l-182 -293h80
l46 122h109v-122h63v-123h-63v-99h-171v99zM622.003 739.997h163l-289 -740h-162z" />
    <glyph glyph-name="questiondown" unicode="&#xbf;" horiz-adv-x="451" 
d="M330 279l17.998 -174.999c-48 -9.33301 -82.5 -21.333 -103.5 -36s-31.5 -34 -31.5 -58c0 -42.667 29.667 -64 89 -64c9.33301 0 19.5 0.5 30.5 1.5s21.833 2.16699 32.5 3.5s20.834 2.83301 30.501 4.5s18.167 3.5 25.5 5.5l5 -149
c-52.667 -12.667 -107.667 -19 -165 -19c-77.333 0 -136.666 17 -177.999 51s-62 82.667 -62 146c0 53.333 15.167 97.166 45.5 131.499s73.833 56.5 130.5 66.5l9 90v14h124v-13zM264.998 549.001c34 0 60.167 -8.66699 78.5 -26s27.5 -42 27.5 -74
s-9.16699 -56.667 -27.5 -74s-44.5 -26 -78.5 -26s-60.167 8.66699 -78.5 26s-27.5 42 -27.5 74s9.16699 56.667 27.5 74s44.5 26 78.5 26z" />
    <glyph glyph-name="Agrave" unicode="&#xc0;" horiz-adv-x="689" 
d="M-4 8l194 732h310l194 -732v-8h-195l-40 156h-230l-39 -156h-194v8zM419 317l-37 154l-30 123h-14l-31 -124l-37 -153h149zM266 794l-125 199h204l64 -189z" />
    <glyph glyph-name="Aacute" unicode="&#xc1;" horiz-adv-x="689" 
d="M-4 8l194 732h310l194 -732v-8h-195l-40 156h-230l-39 -156h-194v8zM419 317l-37 154l-30 123h-14l-31 -124l-37 -153h149zM268 804l64 189h204l-125 -199z" />
    <glyph glyph-name="Acircumflex" unicode="&#xc2;" horiz-adv-x="689" 
d="M-4 8l194 732h310l194 -732v-8h-195l-40 156h-230l-39 -156h-194v8zM419 317l-37 154l-30 123h-14l-31 -124l-37 -153h149zM160 919l187 74l187 -74v-130l-187 73l-187 -73v130z" />
    <glyph glyph-name="Atilde" unicode="&#xc3;" horiz-adv-x="689" 
d="M-4 8l194 732h310l194 -732v-8h-195l-40 156h-230l-39 -156h-194v8zM419 317l-37 154l-30 123h-14l-31 -124l-37 -153h149zM136 840c22.667 46 48.001 80.333 76.001 103s55.667 34 83 34c14.667 0 29.167 -2 43.5 -6s28.666 -8.33301 42.999 -13s28.833 -9 43.5 -13
s29.334 -6 44.001 -6c14 0 27.5 2.5 40.5 7.5s28.167 15.167 45.5 30.5l23 -26c-22.667 -46 -48 -80.167 -76 -102.5s-55.333 -33.5 -82 -33.5c-14.667 0 -29.334 2 -44.001 6l-44 12.5l-43.5 12.5c-14.333 4 -28.833 6 -43.5 6s-28.5 -2.5 -41.5 -7.5
s-27.833 -14.833 -44.5 -29.5z" />
    <glyph glyph-name="Adieresis" unicode="&#xc4;" horiz-adv-x="689" 
d="M-4 8l194 732h310l194 -732v-8h-195l-40 156h-230l-39 -156h-194v8zM419 317l-37 154l-30 123h-14l-31 -124l-37 -153h149zM206 797c-38 0 -65.333 8.16895 -82 24.502s-25 43.166 -25 80.499c0 36.667 8.33301 63 25 79s44 24 82 24s65.5 -8.16699 82.5 -24.5
s25.5 -42.5 25.5 -78.5c0 -36.667 -8.5 -63.334 -25.5 -80.001s-44.5 -25 -82.5 -25zM485 797.002c-38.667 0 -66.167 8.16895 -82.5 24.502s-24.5 43.166 -24.5 80.499c0 36.667 8.16699 63 24.5 79s43.833 24 82.5 24c38 0 65.333 -8.16699 82 -24.5s25 -42.5 25 -78.5
c0 -36.667 -8.33301 -63.334 -25 -80.001s-44 -25 -82 -25z" />
    <glyph glyph-name="Aring" unicode="&#xc5;" horiz-adv-x="689" 
d="M-4 8l194 732h310l194 -732v-8h-195l-40 156h-230l-39 -156h-194v8zM419 317l-37 154l-30 123h-14l-31 -124l-37 -153h149zM343 770c-37.333 0 -68.1689 10.8311 -92.502 32.498s-36.5 49.5 -36.5 83.5c0 16.667 3.16699 32.167 9.5 46.5s15.333 26.833 27 37.5
s25.334 18.834 41.001 24.501s32.834 8.5 51.501 8.5c38 0 69.167 -11 93.5 -33s36.5 -50 36.5 -84c0 -16.667 -3.16699 -32.167 -9.5 -46.5s-15.333 -26.666 -27 -36.999s-25.5 -18.333 -41.5 -24s-33.333 -8.5 -52 -8.5zM342.997 833.998c21.333 0 36.166 4 44.499 12
s12.5 21.333 12.5 40c0 19.333 -4.16699 33.166 -12.5 41.499s-23.166 12.5 -44.499 12.5s-36 -4.16699 -44 -12.5s-12 -22.166 -12 -41.499c0 -18.667 4 -32 12 -40s22.667 -12 44 -12z" />
    <glyph glyph-name="AE" unicode="&#xc6;" horiz-adv-x="918" 
d="M-7 8l239 732h642v-165h-259l9 -122h241v-166h-229l9 -121h240v-166h-440l-6 153h-191l-48 -153h-207v8zM301 321h131l-11 270h-35z" />
    <glyph glyph-name="Ccedilla" unicode="&#xc7;" horiz-adv-x="544" 
d="M296 -220c-12 0 -26.3291 0.999023 -42.9961 2.99902s-34.667 5 -54 9v113c14 -3.33301 27.5 -5.5 40.5 -6.5s22.167 -1.5 27.5 -1.5c11.333 0 19 2.5 23 7.5s6 10.167 6 15.5c0 18.667 -11.333 45 -34 79c-78.667 16.667 -137.334 55.334 -176.001 116.001
s-58 145.667 -58 255c0 130 27.667 226 83 288s136.666 93 243.999 93c24 0 49.167 -1.5 75.5 -4.5s55.5 -7.16699 87.5 -12.5v-161c-30 4 -55.333 6.83301 -76 8.5s-39.667 2.5 -57 2.5c-28 0 -51.5 -2.83301 -70.5 -8.5s-34.167 -16.167 -45.5 -31.5
s-19.333 -37.166 -24 -65.499s-7 -64.833 -7 -109.5s2.33301 -80.834 7 -108.501s12.667 -49.334 24 -65.001s26.333 -26.167 45 -31.5s42 -8 70 -8c23.333 0 46.666 1.33301 69.999 4s44.666 6.33398 63.999 11.001v-159c-15.333 -5.33301 -34.333 -10 -57 -14
s-46.667 -6.66699 -72 -8c12 -18.667 20.667 -35.834 26 -51.501s8 -32.5 8 -50.5c0 -33.333 -10.833 -59.666 -32.5 -78.999s-53.167 -29 -94.5 -29z" />
    <glyph glyph-name="Egrave" unicode="&#xc8;" horiz-adv-x="599" 
d="M246 794l-125 199h204l64 -189zM54 740h507v-165h-302v-122h269v-166h-269v-121h311v-166h-516v740z" />
    <glyph glyph-name="Eacute" unicode="&#xc9;" horiz-adv-x="599" 
d="M232 804l64 189h204l-125 -199zM54 740h507v-165h-302v-122h269v-166h-269v-121h311v-166h-516v740z" />
    <glyph glyph-name="Ecircumflex" unicode="&#xca;" horiz-adv-x="599" 
d="M54 740h507v-165h-302v-122h269v-166h-269v-121h311v-166h-516v740zM130 919l187 74l187 -74v-130l-187 73l-187 -73v130z" />
    <glyph glyph-name="Edieresis" unicode="&#xcb;" horiz-adv-x="599" 
d="M175 797c-38 0 -65.333 8.16895 -82 24.502s-25 43.166 -25 80.499c0 36.667 8.33301 63 25 79s44 24 82 24s65.5 -8.16699 82.5 -24.5s25.5 -42.5 25.5 -78.5c0 -36.667 -8.5 -63.334 -25.5 -80.001s-44.5 -25 -82.5 -25zM454 797.002
c-38.667 0 -66.167 8.16895 -82.5 24.502s-24.5 43.166 -24.5 80.499c0 36.667 8.16699 63 24.5 79s43.833 24 82.5 24c38 0 65.333 -8.16699 82 -24.5s25 -42.5 25 -78.5c0 -36.667 -8.33301 -63.334 -25 -80.001s-44 -25 -82 -25zM54 740.004h507v-165h-302v-122h269v-166
h-269v-121h311v-166h-516v740z" />
    <glyph glyph-name="Igrave" unicode="&#xcc;" horiz-adv-x="313" 
d="M54 740h205v-740h-205v740zM88 794l-125 199h204l64 -189z" />
    <glyph glyph-name="Iacute" unicode="&#xcd;" horiz-adv-x="313" 
d="M54 740h205v-740h-205v740zM79 804l64 189h204l-125 -199z" />
    <glyph glyph-name="Icircumflex" unicode="&#xce;" horiz-adv-x="313" 
d="M54 740h205v-740h-205v740zM-29 919l187 74l187 -74v-130l-187 73l-187 -73v130z" />
    <glyph glyph-name="Idieresis" unicode="&#xcf;" horiz-adv-x="313" 
d="M54 740h205v-740h-205v740zM18 797c-38 0 -65.333 8.16895 -82 24.502s-25 43.166 -25 80.499c0 36.667 8.33301 63 25 79s44 24 82 24s65.5 -8.16699 82.5 -24.5s25.5 -42.5 25.5 -78.5c0 -36.667 -8.5 -63.334 -25.5 -80.001s-44.5 -25 -82.5 -25zM297 797.002
c-38.667 0 -66.167 8.16895 -82.5 24.502s-24.5 43.166 -24.5 80.499c0 36.667 8.16699 63 24.5 79s43.833 24 82.5 24c38 0 65.333 -8.16699 82 -24.5s25 -42.5 25 -78.5c0 -36.667 -8.33301 -63.334 -25 -80.001s-44 -25 -82 -25z" />
    <glyph glyph-name="Eth" unicode="&#xd0;" horiz-adv-x="731" 
d="M0 450l80.999 -0.00390625v290c51.333 2.66699 94.5 4.83398 129.5 6.50098s66.5 2.5 94.5 2.5c72 0 133.167 -6.83301 183.5 -20.5s91.333 -35.667 123 -66s54.834 -69.666 69.501 -117.999s22 -106.833 22 -175.5c0 -69.333 -7.33301 -128.166 -22 -176.499
s-38.5 -87.666 -71.5 -117.999s-75.833 -52.333 -128.5 -66s-116.667 -20.5 -192 -20.5c-30.667 0 -63 1.16699 -97 3.5s-71 5.5 -111 9.5v297h-81v152zM364.999 150.996c26 0 47.166 3.00391 63.499 9.00391s29.333 17.167 39 33.5s16.334 38.666 20.001 66.999
s5.5 64.833 5.5 109.5c0 43.333 -2.16699 79.166 -6.5 107.499s-12.333 50.666 -24 66.999s-27.167 27.666 -46.5 33.999s-44 9.5 -74 9.5c-11.333 0 -21.5 -0.333008 -30.5 -1s-18.5 -1.66699 -28.5 -3v-134h78v-152h-78v-141c17.333 -2 32.333 -3.5 45 -4.5
s25 -1.5 37 -1.5z" />
    <glyph glyph-name="Ntilde" unicode="&#xd1;" horiz-adv-x="737" 
d="M150 840c22.667 46 48.001 80.333 76.001 103s55.667 34 83 34c14.667 0 29.167 -2 43.5 -6s28.666 -8.33301 42.999 -13s28.833 -9 43.5 -13s29.334 -6 44.001 -6c14 0 27.5 2.5 40.5 7.5s28.167 15.167 45.5 30.5l23 -26c-22.667 -46 -48 -80.167 -76 -102.5
s-55.333 -33.5 -82 -33.5c-14.667 0 -29.334 2 -44.001 6l-44 12.5l-43.5 12.5c-14.333 4 -28.833 6 -43.5 6s-28.5 -2.5 -41.5 -7.5s-27.833 -14.833 -44.5 -29.5zM54.001 740h165l231 -323l44 -79h11v402h179v-740h-165l-229 323l-47 82h-11v-405h-178v740z" />
    <glyph glyph-name="Ograve" unicode="&#xd2;" horiz-adv-x="733" 
d="M288 794l-125 199h204l64 -189zM366 -10c-225.333 0 -338 126.334 -338 379.001c0 254 112.667 381 338 381c114 0 199 -31.333 255 -94s84 -158.334 84 -287.001c0 -128 -28 -223.167 -84 -285.5s-141 -93.5 -255 -93.5zM366 155.001
c24.667 0 45.334 3.33008 62.001 9.99707s30 18.167 40 34.5s17 38.333 21 66s6 62.167 6 103.5c0 42 -2 76.833 -6 104.5s-11 49.834 -21 66.501s-23.333 28.334 -40 35.001s-37.334 10 -62.001 10c-24 0 -44.167 -3.5 -60.5 -10.5s-29.5 -18.833 -39.5 -35.5
s-17.167 -38.834 -21.5 -66.501s-6.5 -62.167 -6.5 -103.5s2 -75.666 6 -102.999s11 -49.166 21 -65.499s23.167 -28 39.5 -35s36.833 -10.5 61.5 -10.5z" />
    <glyph glyph-name="Oacute" unicode="&#xd3;" horiz-adv-x="733" 
d="M289 804l64 189h204l-125 -199zM366 -10c-225.333 0 -338 126.334 -338 379.001c0 254 112.667 381 338 381c114 0 199 -31.333 255 -94s84 -158.334 84 -287.001c0 -128 -28 -223.167 -84 -285.5s-141 -93.5 -255 -93.5zM366 155.001
c24.667 0 45.334 3.33008 62.001 9.99707s30 18.167 40 34.5s17 38.333 21 66s6 62.167 6 103.5c0 42 -2 76.833 -6 104.5s-11 49.834 -21 66.501s-23.333 28.334 -40 35.001s-37.334 10 -62.001 10c-24 0 -44.167 -3.5 -60.5 -10.5s-29.5 -18.833 -39.5 -35.5
s-17.167 -38.834 -21.5 -66.501s-6.5 -62.167 -6.5 -103.5s2 -75.666 6 -102.999s11 -49.166 21 -65.499s23.167 -28 39.5 -35s36.833 -10.5 61.5 -10.5z" />
    <glyph glyph-name="Ocircumflex" unicode="&#xd4;" horiz-adv-x="733" 
d="M366 -10c-225.333 0 -338 126.334 -338 379.001c0 254 112.667 381 338 381c114 0 199 -31.333 255 -94s84 -158.334 84 -287.001c0 -128 -28 -223.167 -84 -285.5s-141 -93.5 -255 -93.5zM366 155.001c24.667 0 45.334 3.33008 62.001 9.99707s30 18.167 40 34.5
s17 38.333 21 66s6 62.167 6 103.5c0 42 -2 76.833 -6 104.5s-11 49.834 -21 66.501s-23.333 28.334 -40 35.001s-37.334 10 -62.001 10c-24 0 -44.167 -3.5 -60.5 -10.5s-29.5 -18.833 -39.5 -35.5s-17.167 -38.834 -21.5 -66.501s-6.5 -62.167 -6.5 -103.5
s2 -75.666 6 -102.999s11 -49.166 21 -65.499s23.167 -28 39.5 -35s36.833 -10.5 61.5 -10.5zM179 918.998l187 74l187 -74v-130l-187 73l-187 -73v130z" />
    <glyph glyph-name="Otilde" unicode="&#xd5;" horiz-adv-x="733" 
d="M157 840c22.667 46 48.001 80.333 76.001 103s55.667 34 83 34c14.667 0 29.167 -2 43.5 -6s28.666 -8.33301 42.999 -13s28.833 -9 43.5 -13s29.334 -6 44.001 -6c14 0 27.5 2.5 40.5 7.5s28.167 15.167 45.5 30.5l23 -26c-22.667 -46 -48 -80.167 -76 -102.5
s-55.333 -33.5 -82 -33.5c-14.667 0 -29.334 2 -44.001 6l-44 12.5l-43.5 12.5c-14.333 4 -28.833 6 -43.5 6s-28.5 -2.5 -41.5 -7.5s-27.833 -14.833 -44.5 -29.5zM366.001 -10c-225.333 0 -338 126.334 -338 379.001c0 254 112.667 381 338 381c114 0 199 -31.333 255 -94
s84 -158.334 84 -287.001c0 -128 -28 -223.167 -84 -285.5s-141 -93.5 -255 -93.5zM366.001 155.001c24.667 0 45.334 3.33008 62.001 9.99707s30 18.167 40 34.5s17 38.333 21 66s6 62.167 6 103.5c0 42 -2 76.833 -6 104.5s-11 49.834 -21 66.501
s-23.333 28.334 -40 35.001s-37.334 10 -62.001 10c-24 0 -44.167 -3.5 -60.5 -10.5s-29.5 -18.833 -39.5 -35.5s-17.167 -38.834 -21.5 -66.501s-6.5 -62.167 -6.5 -103.5s2 -75.666 6 -102.999s11 -49.166 21 -65.499s23.167 -28 39.5 -35s36.833 -10.5 61.5 -10.5z" />
    <glyph glyph-name="Odieresis" unicode="&#xd6;" horiz-adv-x="733" 
d="M224 797c-38 0 -65.333 8.16895 -82 24.502s-25 43.166 -25 80.499c0 36.667 8.33301 63 25 79s44 24 82 24s65.5 -8.16699 82.5 -24.5s25.5 -42.5 25.5 -78.5c0 -36.667 -8.5 -63.334 -25.5 -80.001s-44.5 -25 -82.5 -25zM503 797.002
c-38.667 0 -66.167 8.16895 -82.5 24.502s-24.5 43.166 -24.5 80.499c0 36.667 8.16699 63 24.5 79s43.833 24 82.5 24c38 0 65.333 -8.16699 82 -24.5s25 -42.5 25 -78.5c0 -36.667 -8.33301 -63.334 -25 -80.001s-44 -25 -82 -25zM366 -9.99609
c-225.333 0 -338 126.334 -338 379.001c0 254 112.667 381 338 381c114 0 199 -31.333 255 -94s84 -158.334 84 -287.001c0 -128 -28 -223.167 -84 -285.5s-141 -93.5 -255 -93.5zM366 155.005c24.667 0 45.334 3.33008 62.001 9.99707s30 18.167 40 34.5s17 38.333 21 66
s6 62.167 6 103.5c0 42 -2 76.833 -6 104.5s-11 49.834 -21 66.501s-23.333 28.334 -40 35.001s-37.334 10 -62.001 10c-24 0 -44.167 -3.5 -60.5 -10.5s-29.5 -18.833 -39.5 -35.5s-17.167 -38.834 -21.5 -66.501s-6.5 -62.167 -6.5 -103.5s2 -75.666 6 -102.999
s11 -49.166 21 -65.499s23.167 -28 39.5 -35s36.833 -10.5 61.5 -10.5z" />
    <glyph glyph-name="multiply" unicode="&#xd7;" horiz-adv-x="511" 
d="M25 235l135 135l-135 135l95 95l135 -135l134 135l96 -95l-135 -135l135 -135l-95 -95l-135 135l-135 -135z" />
    <glyph glyph-name="Oslash" unicode="&#xd8;" horiz-adv-x="735" 
d="M91 113c-41.333 61.333 -62 146.667 -62 256c0 254 112.667 381 338 381c78.667 0 143.667 -15.333 195 -46l28 36h146l-92 -115c41.333 -62.667 62 -148 62 -256c0 -128 -28 -223.167 -84 -285.5s-141 -93.5 -255 -93.5c-78 0 -142.333 15 -193 45l-28 -35h-145z
M239 369.001v-35.499c0 -11 0.666992 -21.5 2 -31.5l208 261c-10 8 -21.833 13.667 -35.5 17s-29.167 5 -46.5 5c-24 0 -44.167 -3.5 -60.5 -10.5s-29.5 -18.833 -39.5 -35.5s-17.167 -38.834 -21.5 -66.501s-6.5 -62.167 -6.5 -103.5zM367 155.002
c24.667 0 45.333 3.33301 62 10s30 18.167 40 34.5s17 38.333 21 66s6 62.167 6 103.5c0 12.667 -0.166992 24.5 -0.5 35.5s-0.833008 21.5 -1.5 31.5l-208 -260c18.667 -14 45.667 -21 81 -21z" />
    <glyph glyph-name="Ugrave" unicode="&#xd9;" horiz-adv-x="725" 
d="M281 794l-125 199h204l64 -189zM363 -10c-58.667 0 -108.165 6.33398 -148.498 19.001s-72.833 31.5 -97.5 56.5s-42.334 56.333 -53.001 94s-16 81.5 -16 131.5v449h205v-443c0 -49.333 8.33301 -84.833 25 -106.5s45 -32.5 85 -32.5c40.667 0 69 10.667 85 32
s24 57 24 107v443h205v-449c0 -50.667 -5.33301 -94.834 -16 -132.501s-28.334 -69 -53.001 -94s-57 -43.667 -97 -56s-89.333 -18.5 -148 -18.5z" />
    <glyph glyph-name="Uacute" unicode="&#xda;" horiz-adv-x="725" 
d="M273 804l64 189h204l-125 -199zM363 -10c-58.667 0 -108.165 6.33398 -148.498 19.001s-72.833 31.5 -97.5 56.5s-42.334 56.333 -53.001 94s-16 81.5 -16 131.5v449h205v-443c0 -49.333 8.33301 -84.833 25 -106.5s45 -32.5 85 -32.5c40.667 0 69 10.667 85 32
s24 57 24 107v443h205v-449c0 -50.667 -5.33301 -94.834 -16 -132.501s-28.334 -69 -53.001 -94s-57 -43.667 -97 -56s-89.333 -18.5 -148 -18.5z" />
    <glyph glyph-name="Ucircumflex" unicode="&#xdb;" horiz-adv-x="725" 
d="M363 -10c-58.667 0 -108.165 6.33398 -148.498 19.001s-72.833 31.5 -97.5 56.5s-42.334 56.333 -53.001 94s-16 81.5 -16 131.5v449h205v-443c0 -49.333 8.33301 -84.833 25 -106.5s45 -32.5 85 -32.5c40.667 0 69 10.667 85 32s24 57 24 107v443h205v-449
c0 -50.667 -5.33301 -94.834 -16 -132.501s-28.334 -69 -53.001 -94s-57 -43.667 -97 -56s-89.333 -18.5 -148 -18.5zM169.002 919.001l187 74l187 -74v-130l-187 73l-187 -73v130z" />
    <glyph glyph-name="Udieresis" unicode="&#xdc;" horiz-adv-x="725" 
d="M216 797c-38 0 -65.333 8.16895 -82 24.502s-25 43.166 -25 80.499c0 36.667 8.33301 63 25 79s44 24 82 24s65.5 -8.16699 82.5 -24.5s25.5 -42.5 25.5 -78.5c0 -36.667 -8.5 -63.334 -25.5 -80.001s-44.5 -25 -82.5 -25zM495 797.002
c-38.667 0 -66.167 8.16895 -82.5 24.502s-24.5 43.166 -24.5 80.499c0 36.667 8.16699 63 24.5 79s43.833 24 82.5 24c38 0 65.333 -8.16699 82 -24.5s25 -42.5 25 -78.5c0 -36.667 -8.33301 -63.334 -25 -80.001s-44 -25 -82 -25zM363 -9.99609
c-58.667 0 -108.165 6.33398 -148.498 19.001s-72.833 31.5 -97.5 56.5s-42.334 56.333 -53.001 94s-16 81.5 -16 131.5v449h205v-443c0 -49.333 8.33301 -84.833 25 -106.5s45 -32.5 85 -32.5c40.667 0 69 10.667 85 32s24 57 24 107v443h205v-449
c0 -50.667 -5.33301 -94.834 -16 -132.501s-28.334 -69 -53.001 -94s-57 -43.667 -97 -56s-89.333 -18.5 -148 -18.5z" />
    <glyph glyph-name="Yacute" unicode="&#xdd;" horiz-adv-x="708" 
d="M252 246l-265 494h229l115 -248l19 -60h10l19 60l116 248h225l-263 -492v-248h-205v246zM278 804l64 189h204l-125 -199z" />
    <glyph glyph-name="Thorn" unicode="&#xde;" horiz-adv-x="653" 
d="M54 740h204.999v-109h14c64 0 119 -5.16699 165 -15.5s83.833 -26.166 113.5 -47.499s51.334 -48.833 65.001 -82.5s20.5 -73.834 20.5 -120.501c0 -46 -6.83301 -85.333 -20.5 -118s-34.667 -59.667 -63 -81s-64.833 -37 -109.5 -47s-98 -15 -160 -15h-25v-104h-205v740
zM302.999 267c25.333 0 46.1709 1.33105 62.5039 3.99805s29.166 7.66699 38.499 15s15.666 17.333 18.999 30s5 29 5 49s-1.66699 36.333 -5 49s-9.83301 22.834 -19.5 30.501s-22.834 12.834 -39.501 15.501s-38.334 4 -65.001 4h-40v-197h44z" />
    <glyph glyph-name="germandbls" unicode="&#xdf;" horiz-adv-x="746" 
d="M46 559c0 86.667 24.498 150.667 73.498 192s125.833 62 230.5 62c105.333 0 182.833 -20.5 232.5 -61.5s74.5 -105.167 74.5 -192.5v-153h-90c-53.333 0 -80 -10.667 -80 -32c0 -10 4.66699 -17.667 14 -23s25.333 -9 48 -11c21.333 -2 43 -5.5 65 -10.5
s42 -13.5 60 -25.5s32.667 -28.5 44 -49.5s17 -48.5 17 -82.5c0 -59.333 -20.667 -104.5 -62 -135.5s-102 -46.5 -182 -46.5c-30 0 -62 2.5 -96 7.5s-65.667 11.833 -95 20.5v141c29.333 -9.33301 60.333 -16.666 93 -21.999s63.667 -8 93 -8
c21.333 0 36.5 2.16699 45.5 6.5s13.5 11.5 13.5 21.5c0 9.33301 -4.66699 16.666 -14 21.999s-24.666 9 -45.999 11c-18 2 -37.833 4.66699 -59.5 8s-41.667 10.666 -60 21.999s-33.666 28.333 -45.999 51s-18.5 54 -18.5 94c0 46 13.833 84.167 41.5 114.5
s65.5 51.166 113.5 62.499v17c0 36.667 -8 62.834 -24 78.501s-43 23.5 -81 23.5s-65 -7.66699 -81 -23s-24 -41.666 -24 -78.999v-559h-200v559z" />
    <glyph glyph-name="agrave" unicode="&#xe0;" horiz-adv-x="559" 
d="M177 -5c-24 0 -45.833 4 -65.5 12s-36.5 19.333 -50.5 34s-24.667 32.167 -32 52.5s-11 42.833 -11 67.5c0 106.667 66.333 164 199 172l100 6c-0.666992 14 -2.16699 25.167 -4.5 33.5s-6.5 15 -12.5 20s-14.5 8.33301 -25.5 10s-24.833 2.5 -41.5 2.5
c-9.33301 0 -21 -0.5 -35 -1.5s-28.833 -2.16699 -44.5 -3.5s-30.834 -3 -45.501 -5s-27 -4 -37 -6l-12 140c34.667 5.33301 69.334 9.83301 104.001 13.5s68 5.5 100 5.5c88.667 0 153.167 -14.167 193.5 -42.5s60.5 -73.5 60.5 -135.5v-370h-164l-15 65h-10
c-18 -22.667 -40.333 -40 -67 -52s-54.667 -18 -84 -18zM258 134c9.33301 0 19.6689 2.16699 31.002 6.5s20.666 9.5 27.999 15.5v74l-49 -5c-18.667 -2 -31.834 -6.33301 -39.501 -13s-11.5 -17 -11.5 -31c0 -31.333 13.667 -47 41 -47zM209.003 609l-126 199h205l63 -189z
" />
    <glyph glyph-name="aacute" unicode="&#xe1;" horiz-adv-x="559" 
d="M177 -5c-24 0 -45.833 4 -65.5 12s-36.5 19.333 -50.5 34s-24.667 32.167 -32 52.5s-11 42.833 -11 67.5c0 106.667 66.333 164 199 172l100 6c-0.666992 14 -2.16699 25.167 -4.5 33.5s-6.5 15 -12.5 20s-14.5 8.33301 -25.5 10s-24.833 2.5 -41.5 2.5
c-9.33301 0 -21 -0.5 -35 -1.5s-28.833 -2.16699 -44.5 -3.5s-30.834 -3 -45.501 -5s-27 -4 -37 -6l-12 140c34.667 5.33301 69.334 9.83301 104.001 13.5s68 5.5 100 5.5c88.667 0 153.167 -14.167 193.5 -42.5s60.5 -73.5 60.5 -135.5v-370h-164l-15 65h-10
c-18 -22.667 -40.333 -40 -67 -52s-54.667 -18 -84 -18zM258 134c9.33301 0 19.6689 2.16699 31.002 6.5s20.666 9.5 27.999 15.5v74l-49 -5c-18.667 -2 -31.834 -6.33301 -39.501 -13s-11.5 -17 -11.5 -31c0 -31.333 13.667 -47 41 -47zM207.003 619l63 189h205l-125 -199z
" />
    <glyph glyph-name="acircumflex" unicode="&#xe2;" horiz-adv-x="559" 
d="M177 -5c-24 0 -45.833 4 -65.5 12s-36.5 19.333 -50.5 34s-24.667 32.167 -32 52.5s-11 42.833 -11 67.5c0 106.667 66.333 164 199 172l100 6c-0.666992 14 -2.16699 25.167 -4.5 33.5s-6.5 15 -12.5 20s-14.5 8.33301 -25.5 10s-24.833 2.5 -41.5 2.5
c-9.33301 0 -21 -0.5 -35 -1.5s-28.833 -2.16699 -44.5 -3.5s-30.834 -3 -45.501 -5s-27 -4 -37 -6l-12 140c34.667 5.33301 69.334 9.83301 104.001 13.5s68 5.5 100 5.5c88.667 0 153.167 -14.167 193.5 -42.5s60.5 -73.5 60.5 -135.5v-370h-164l-15 65h-10
c-18 -22.667 -40.333 -40 -67 -52s-54.667 -18 -84 -18zM258 134c9.33301 0 19.6689 2.16699 31.002 6.5s20.666 9.5 27.999 15.5v74l-49 -5c-18.667 -2 -31.834 -6.33301 -39.501 -13s-11.5 -17 -11.5 -31c0 -31.333 13.667 -47 41 -47zM104.003 734l187 74l187 -74v-130
l-187 73l-187 -73v130z" />
    <glyph glyph-name="atilde" unicode="&#xe3;" horiz-adv-x="559" 
d="M177 -5c-24 0 -45.833 4 -65.5 12s-36.5 19.333 -50.5 34s-24.667 32.167 -32 52.5s-11 42.833 -11 67.5c0 106.667 66.333 164 199 172l100 6c-0.666992 14 -2.16699 25.167 -4.5 33.5s-6.5 15 -12.5 20s-14.5 8.33301 -25.5 10s-24.833 2.5 -41.5 2.5
c-9.33301 0 -21 -0.5 -35 -1.5s-28.833 -2.16699 -44.5 -3.5s-30.834 -3 -45.501 -5s-27 -4 -37 -6l-12 140c34.667 5.33301 69.334 9.83301 104.001 13.5s68 5.5 100 5.5c88.667 0 153.167 -14.167 193.5 -42.5s60.5 -73.5 60.5 -135.5v-370h-164l-15 65h-10
c-18 -22.667 -40.333 -40 -67 -52s-54.667 -18 -84 -18zM258 134c9.33301 0 19.6689 2.16699 31.002 6.5s20.666 9.5 27.999 15.5v74l-49 -5c-18.667 -2 -31.834 -6.33301 -39.501 -13s-11.5 -17 -11.5 -31c0 -31.333 13.667 -47 41 -47zM72.0029 659
c22 42.667 47.0039 74.167 75.0039 94.5s55.667 30.5 83 30.5c14.667 0 29.167 -2.66699 43.5 -8s28.666 -11.333 42.999 -18s28.833 -12.667 43.5 -18s29.667 -8 45 -8c12.667 0 24.834 2.83301 36.501 8.5s25.167 16.5 40.5 32.5l31 -40
c-22.667 -44 -47.834 -76 -75.501 -96s-55.167 -30 -82.5 -30c-14.667 0 -29.167 2.66699 -43.5 8s-28.833 11.333 -43.5 18s-29.334 12.667 -44.001 18s-29.334 8 -44.001 8c-13.333 0 -25.833 -2.66699 -37.5 -8s-24.834 -16 -39.501 -32z" />
    <glyph glyph-name="adieresis" unicode="&#xe4;" horiz-adv-x="559" 
d="M177 -5c-24 0 -45.833 4 -65.5 12s-36.5 19.333 -50.5 34s-24.667 32.167 -32 52.5s-11 42.833 -11 67.5c0 106.667 66.333 164 199 172l100 6c-0.666992 14 -2.16699 25.167 -4.5 33.5s-6.5 15 -12.5 20s-14.5 8.33301 -25.5 10s-24.833 2.5 -41.5 2.5
c-9.33301 0 -21 -0.5 -35 -1.5s-28.833 -2.16699 -44.5 -3.5s-30.834 -3 -45.501 -5s-27 -4 -37 -6l-12 140c34.667 5.33301 69.334 9.83301 104.001 13.5s68 5.5 100 5.5c88.667 0 153.167 -14.167 193.5 -42.5s60.5 -73.5 60.5 -135.5v-370h-164l-15 65h-10
c-18 -22.667 -40.333 -40 -67 -52s-54.667 -18 -84 -18zM258 134c9.33301 0 19.6689 2.16699 31.002 6.5s20.666 9.5 27.999 15.5v74l-49 -5c-18.667 -2 -31.834 -6.33301 -39.501 -13s-11.5 -17 -11.5 -31c0 -31.333 13.667 -47 41 -47zM155.003 608
c-34 0 -58.5 7.33203 -73.5 21.999s-22.5 38.667 -22.5 72c0 32.667 7.5 56.334 22.5 71.001s39.5 22 73.5 22s58.667 -7.5 74 -22.5s23 -38.5 23 -70.5c0 -33.333 -7.66699 -57.333 -23 -72s-40 -22 -74 -22zM413.003 607.999c-34.667 0 -59.5 7.33203 -74.5 21.999
s-22.5 38.667 -22.5 72c0 32.667 7.5 56.334 22.5 71.001s39.833 22 74.5 22c34 0 58.5 -7.5 73.5 -22.5s22.5 -38.5 22.5 -70.5c0 -33.333 -7.5 -57.333 -22.5 -72s-39.5 -22 -73.5 -22z" />
    <glyph glyph-name="aring" unicode="&#xe5;" horiz-adv-x="559" 
d="M177 -5c-24 0 -45.833 4 -65.5 12s-36.5 19.333 -50.5 34s-24.667 32.167 -32 52.5s-11 42.833 -11 67.5c0 106.667 66.333 164 199 172l100 6c-0.666992 14 -2.16699 25.167 -4.5 33.5s-6.5 15 -12.5 20s-14.5 8.33301 -25.5 10s-24.833 2.5 -41.5 2.5
c-9.33301 0 -21 -0.5 -35 -1.5s-28.833 -2.16699 -44.5 -3.5s-30.834 -3 -45.501 -5s-27 -4 -37 -6l-12 140c34.667 5.33301 69.334 9.83301 104.001 13.5s68 5.5 100 5.5c88.667 0 153.167 -14.167 193.5 -42.5s60.5 -73.5 60.5 -135.5v-370h-164l-15 65h-10
c-18 -22.667 -40.333 -40 -67 -52s-54.667 -18 -84 -18zM258 134c9.33301 0 19.6689 2.16699 31.002 6.5s20.666 9.5 27.999 15.5v74l-49 -5c-18.667 -2 -31.834 -6.33301 -39.501 -13s-11.5 -17 -11.5 -31c0 -31.333 13.667 -47 41 -47zM279.003 586
c-39.333 0 -71.333 10.667 -96 32s-37 49.333 -37 84s12.333 62.667 37 84s56.667 32 96 32c40 0 72.333 -10.667 97 -32s37 -49.333 37 -84s-12.333 -62.667 -37 -84s-57 -32 -97 -32zM279.003 652c17.333 0 30.5 4.5 39.5 13.5s13.5 21.167 13.5 36.5
c0 33.333 -17.667 50 -53 50c-34.667 0 -52 -16.667 -52 -50s17.333 -50 52 -50z" />
    <glyph glyph-name="ae" unicode="&#xe6;" horiz-adv-x="845" 
d="M590 -11c-46 0 -84.4961 6.83691 -115.496 20.5039s-56.833 35.167 -77.5 64.5h-10c-34 -26 -68.833 -45.667 -104.5 -59s-71.167 -20 -106.5 -20c-48 0 -86.333 15.333 -115 46s-43 71 -43 121c0 106 66.333 163 199 171l101 6v11
c-0.666992 11.333 -2.5 20.666 -5.5 27.999s-7.83301 13 -14.5 17s-15.667 6.66699 -27 8s-26 2 -44 2c-9.33301 0 -21 -0.5 -35 -1.5s-28.5 -2.16699 -43.5 -3.5s-29.5 -3 -43.5 -5s-25.333 -4 -34 -6l-12 140c40 6.66699 76.833 11.5 110.5 14.5s66.167 4.5 97.5 4.5
c70 0 120.333 -16.333 151 -49h10c40 32 94.667 48 164 48c78 0 135.333 -20.5 172 -61.5s55 -105.833 55 -194.5c0 -20 -0.333008 -36 -1 -48s-2.66699 -23.667 -6 -35h-292c1.33301 -14.667 3.5 -26.5 6.5 -35.5s7.66699 -16 14 -21s14.666 -8.5 24.999 -10.5
s23.166 -3 38.499 -3c22.667 0 51.5 2.16699 86.5 6.5s70.167 10.5 105.5 18.5l5 -143c-14.667 -4.66699 -30.667 -8.83398 -48 -12.501s-35.333 -6.83398 -54 -9.50098s-37.334 -4.83398 -56.001 -6.50098s-36.334 -2.5 -53.001 -2.5zM259.004 134.004
c9.33301 0 19.501 2.16699 30.501 6.5s20.5 9.5 28.5 15.5v74l-50 -5c-18.667 -2 -31.834 -6.5 -39.501 -13.5s-11.5 -17.167 -11.5 -30.5c0 -31.333 14 -47 42 -47zM645.005 319.004c-1.33301 32 -6.5 54.333 -15.5 67s-24.167 19 -45.5 19c-22 0 -37.667 -6.33301 -47 -19
s-15 -35 -17 -67h125z" />
    <glyph glyph-name="ccedilla" unicode="&#xe7;" horiz-adv-x="472" 
d="M240 -220c-12 0 -26.333 0.999023 -43 2.99902s-34.667 5 -54 9v113c14 -3.33301 27.5 -5.5 40.5 -6.5s22.167 -1.5 27.5 -1.5c11.333 0 19 2.5 23 7.5s6 10.167 6 15.5c0 18.667 -12 45.667 -36 81c-60 14.667 -104.833 44 -134.5 88s-44.5 104.333 -44.5 181
c0 96.667 23.333 167.334 70 212.001s117.334 67 212.001 67c25.333 0 49.666 -1.5 72.999 -4.5s43.333 -7.16699 60 -12.5v-154c-42.667 7.33301 -79.667 11 -111 11c-38 0 -64.5 -8.66699 -79.5 -26s-22.5 -47.666 -22.5 -90.999c0 -44 7.5 -75.167 22.5 -93.5
s40.833 -27.5 77.5 -27.5c22.667 0 42.834 0.833008 60.501 2.5s35.167 4.5 52.5 8.5v-153c-14 -5.33301 -30.333 -9.33301 -49 -12s-38.334 -4.33398 -59.001 -5.00098c12.667 -19.333 21.667 -36.833 27 -52.5s8 -32.834 8 -51.501
c0 -33.333 -10.833 -59.666 -32.5 -78.999s-53.167 -29 -94.5 -29z" />
    <glyph glyph-name="egrave" unicode="&#xe8;" horiz-adv-x="550" 
d="M294 -9c-179.333 0 -268.998 92 -268.998 276c0 93.333 22.5 163.666 67.5 210.999s112.833 71 203.5 71c78 0 135.5 -20.667 172.5 -62s55.5 -106 55.5 -194c0 -19.333 -0.5 -35 -1.5 -47s-2.83301 -24 -5.5 -36h-292c1.33301 -15.333 3.66602 -27.666 6.99902 -36.999
s8.16602 -16.5 14.499 -21.5s14.5 -8.33301 24.5 -10s22.333 -2.5 37 -2.5c23.333 0 52.666 2.5 87.999 7.5s70 11.167 104 18.5l5 -143c-29.333 -9.33301 -63.166 -16.833 -101.499 -22.5s-74.833 -8.5 -109.5 -8.5zM289.002 407c-21.333 0 -36.832 -6 -46.499 -18
s-15.834 -34.667 -18.501 -68h125c-1.33301 32 -6.33301 54.333 -15 67s-23.667 19 -45 19zM203.003 609l-126 199h205l63 -189z" />
    <glyph glyph-name="eacute" unicode="&#xe9;" horiz-adv-x="550" 
d="M214 619l63 189h205l-125 -199zM294 -9c-179.333 0 -268.998 92 -268.998 276c0 93.333 22.5 163.666 67.5 210.999s112.833 71 203.5 71c78 0 135.5 -20.667 172.5 -62s55.5 -106 55.5 -194c0 -19.333 -0.5 -35 -1.5 -47s-2.83301 -24 -5.5 -36h-292
c1.33301 -15.333 3.66602 -27.666 6.99902 -36.999s8.16602 -16.5 14.499 -21.5s14.5 -8.33301 24.5 -10s22.333 -2.5 37 -2.5c23.333 0 52.666 2.5 87.999 7.5s70 11.167 104 18.5l5 -143c-29.333 -9.33301 -63.166 -16.833 -101.499 -22.5s-74.833 -8.5 -109.5 -8.5z
M289.002 407c-21.333 0 -36.832 -6 -46.499 -18s-15.834 -34.667 -18.501 -68h125c-1.33301 32 -6.33301 54.333 -15 67s-23.667 19 -45 19z" />
    <glyph glyph-name="ecircumflex" unicode="&#xea;" horiz-adv-x="550" 
d="M104 734l187 74l187 -74v-130l-187 73l-187 -73v130zM294 -9c-179.333 0 -268.998 92 -268.998 276c0 93.333 22.5 163.666 67.5 210.999s112.833 71 203.5 71c78 0 135.5 -20.667 172.5 -62s55.5 -106 55.5 -194c0 -19.333 -0.5 -35 -1.5 -47s-2.83301 -24 -5.5 -36
h-292c1.33301 -15.333 3.66602 -27.666 6.99902 -36.999s8.16602 -16.5 14.499 -21.5s14.5 -8.33301 24.5 -10s22.333 -2.5 37 -2.5c23.333 0 52.666 2.5 87.999 7.5s70 11.167 104 18.5l5 -143c-29.333 -9.33301 -63.166 -16.833 -101.499 -22.5s-74.833 -8.5 -109.5 -8.5z
M289.002 407c-21.333 0 -36.832 -6 -46.499 -18s-15.834 -34.667 -18.501 -68h125c-1.33301 32 -6.33301 54.333 -15 67s-23.667 19 -45 19z" />
    <glyph glyph-name="edieresis" unicode="&#xeb;" horiz-adv-x="550" 
d="M151 608c-34 0 -58.5 7.33203 -73.5 21.999s-22.5 38.667 -22.5 72c0 32.667 7.5 56.334 22.5 71.001s39.5 22 73.5 22s58.667 -7.5 74 -22.5s23 -38.5 23 -70.5c0 -33.333 -7.66699 -57.333 -23 -72s-40 -22 -74 -22zM409 607.999c-34.667 0 -59.5 7.33203 -74.5 21.999
s-22.5 38.667 -22.5 72c0 32.667 7.5 56.334 22.5 71.001s39.833 22 74.5 22c34 0 58.5 -7.5 73.5 -22.5s22.5 -38.5 22.5 -70.5c0 -33.333 -7.5 -57.333 -22.5 -72s-39.5 -22 -73.5 -22zM294 -9.00195c-179.333 0 -268.998 92 -268.998 276
c0 93.333 22.5 163.666 67.5 210.999s112.833 71 203.5 71c78 0 135.5 -20.667 172.5 -62s55.5 -106 55.5 -194c0 -19.333 -0.5 -35 -1.5 -47s-2.83301 -24 -5.5 -36h-292c1.33301 -15.333 3.66602 -27.666 6.99902 -36.999s8.16602 -16.5 14.499 -21.5
s14.5 -8.33301 24.5 -10s22.333 -2.5 37 -2.5c23.333 0 52.666 2.5 87.999 7.5s70 11.167 104 18.5l5 -143c-29.333 -9.33301 -63.166 -16.833 -101.499 -22.5s-74.833 -8.5 -109.5 -8.5zM289.002 406.998c-21.333 0 -36.832 -6 -46.499 -18s-15.834 -34.667 -18.501 -68
h125c-1.33301 32 -6.33301 54.333 -15 67s-23.667 19 -45 19z" />
    <glyph glyph-name="igrave" unicode="&#xec;" horiz-adv-x="292" 
d="M46 540h200v-540h-200v540zM71 609l-126 199h205l63 -189z" />
    <glyph glyph-name="iacute" unicode="&#xed;" horiz-adv-x="292" 
d="M77 619l63 189h205l-125 -199zM45 540h200v-540h-200v540z" />
    <glyph glyph-name="icircumflex" unicode="&#xee;" horiz-adv-x="293" 
d="M-23 734l182 74l182 -74v-130l-182 73l-182 -73v130zM46 540h200v-540h-200v540z" />
    <glyph glyph-name="idieresis" unicode="&#xef;" horiz-adv-x="293" 
d="M29 608c-34.667 0 -59.5 7.33203 -74.5 21.999s-22.5 38.667 -22.5 72c0 32.667 7.5 56.334 22.5 71.001s39.833 22 74.5 22c34 0 58.667 -7.5 74 -22.5s23 -38.5 23 -70.5c0 -33.333 -7.66699 -57.333 -23 -72s-40 -22 -74 -22zM274 607.999
c-34 0 -58.5 7.33203 -73.5 21.999s-22.5 38.667 -22.5 72c0 32.667 7.5 56.334 22.5 71.001s39.5 22 73.5 22s58.5 -7.5 73.5 -22.5s22.5 -38.5 22.5 -70.5c0 -33.333 -7.5 -57.333 -22.5 -72s-39.5 -22 -73.5 -22zM46 539.998h200v-540h-200v540z" />
    <glyph glyph-name="eth" unicode="&#xf0;" horiz-adv-x="601" 
d="M173 711l87 7.99902c-11.333 16 -23.666 31.333 -36.999 46s-27.333 29 -42 43h204l27.5 -34.5l27.5 -37.5l150 15v-118l-88 -9c19.333 -44 35.166 -94 47.499 -150s18.5 -119.667 18.5 -191c0 -97.333 -22.833 -170.666 -68.5 -219.999s-113.5 -74 -203.5 -74
c-88.667 0 -156 23.833 -202 71.5s-69 117.167 -69 208.5c0 92 22.667 161.833 68 209.5s111 71.5 197 71.5c13.333 0 25.833 -1.16699 37.5 -3.5s22.5 -6.83301 32.5 -13.5c-4.66699 12.667 -9.66699 25.167 -15 37.5l-17 37.5l-155 -15v118zM297 138.999
c14.667 0 26.501 1.66797 35.501 5.00098s16.167 9.66602 21.5 18.999s9 22.5 11 39.5s3 39.167 3 66.5c0 28 -1.16699 50.5 -3.5 67.5s-6.16602 30.333 -11.499 40s-12.833 16 -22.5 19s-21.5 4.5 -35.5 4.5c-14.667 0 -26.667 -1.5 -36 -4.5s-16.5 -9.16699 -21.5 -18.5
s-8.33301 -22.5 -10 -39.5s-2.5 -39.5 -2.5 -67.5s0.833008 -50.5 2.5 -67.5s5.16699 -30.333 10.5 -40s12.666 -16 21.999 -19s21.666 -4.5 36.999 -4.5z" />
    <glyph glyph-name="ntilde" unicode="&#xf1;" horiz-adv-x="602" 
d="M46 540h167.998l10 -59h6c22.667 13.333 42.834 24.5 60.501 33.5s33.834 16.167 48.501 21.5s28.667 9 42 11s27.333 3 42 3c40.667 0 73.5 -13.5 98.5 -40.5s37.5 -62.5 37.5 -106.5v-403h-200v332c0 18.667 -3.5 32 -10.5 40s-16.833 12 -29.5 12
c-10 0 -21.5 -2 -34.5 -6s-25.833 -9 -38.5 -15v-363h-200v540zM94.998 659c22 42.667 47.0039 74.167 75.0039 94.5s55.667 30.5 83 30.5c14.667 0 29.167 -2.66699 43.5 -8s28.666 -11.333 42.999 -18s28.833 -12.667 43.5 -18s29.667 -8 45 -8
c12.667 0 24.834 2.83301 36.501 8.5s25.167 16.5 40.5 32.5l31 -40c-22.667 -44 -47.834 -76 -75.501 -96s-55.167 -30 -82.5 -30c-14.667 0 -29.167 2.66699 -43.5 8s-28.833 11.333 -43.5 18s-29.334 12.667 -44.001 18s-29.334 8 -44.001 8
c-13.333 0 -25.833 -2.66699 -37.5 -8s-24.834 -16 -39.501 -32z" />
    <glyph glyph-name="ograve" unicode="&#xf2;" horiz-adv-x="593" 
d="M297 -11c-89.333 0 -157 23.833 -203 71.5s-69 117.5 -69 209.5s23 161.667 69 209s113.667 71 203 71s156.833 -23.5 202.5 -70.5s68.5 -116.833 68.5 -209.5c0 -92 -22.833 -161.833 -68.5 -209.5s-113.167 -71.5 -202.5 -71.5zM297 139c14.667 0 26.667 1.5 36 4.5
s16.5 9.33301 21.5 19s8.5 23 10.5 40s3 39.5 3 67.5s-1 50.5 -3 67.5s-5.5 30.167 -10.5 39.5s-12.167 15.5 -21.5 18.5s-21.333 4.5 -36 4.5c-15.333 0 -27.666 -1.5 -36.999 -4.5s-16.666 -9.16699 -21.999 -18.5s-8.83301 -22.5 -10.5 -39.5s-2.5 -39.5 -2.5 -67.5
s0.833008 -50.5 2.5 -67.5s5.16699 -30.333 10.5 -40s12.666 -16 21.999 -19s21.666 -4.5 36.999 -4.5zM219 609l-126 199h205l63 -189z" />
    <glyph glyph-name="oacute" unicode="&#xf3;" horiz-adv-x="593" 
d="M224 619l63 189h205l-125 -199zM297 -11c-89.333 0 -157 23.833 -203 71.5s-69 117.5 -69 209.5s23 161.667 69 209s113.667 71 203 71s156.833 -23.5 202.5 -70.5s68.5 -116.833 68.5 -209.5c0 -92 -22.833 -161.833 -68.5 -209.5s-113.167 -71.5 -202.5 -71.5zM297 139
c14.667 0 26.667 1.5 36 4.5s16.5 9.33301 21.5 19s8.5 23 10.5 40s3 39.5 3 67.5s-1 50.5 -3 67.5s-5.5 30.167 -10.5 39.5s-12.167 15.5 -21.5 18.5s-21.333 4.5 -36 4.5c-15.333 0 -27.666 -1.5 -36.999 -4.5s-16.666 -9.16699 -21.999 -18.5s-8.83301 -22.5 -10.5 -39.5
s-2.5 -39.5 -2.5 -67.5s0.833008 -50.5 2.5 -67.5s5.16699 -30.333 10.5 -40s12.666 -16 21.999 -19s21.666 -4.5 36.999 -4.5z" />
    <glyph glyph-name="ocircumflex" unicode="&#xf4;" horiz-adv-x="593" 
d="M120 734l187 74l187 -74v-130l-187 73l-187 -73v130zM297 -11c-89.333 0 -157 23.833 -203 71.5s-69 117.5 -69 209.5s23 161.667 69 209s113.667 71 203 71s156.833 -23.5 202.5 -70.5s68.5 -116.833 68.5 -209.5c0 -92 -22.833 -161.833 -68.5 -209.5
s-113.167 -71.5 -202.5 -71.5zM297 139c14.667 0 26.667 1.5 36 4.5s16.5 9.33301 21.5 19s8.5 23 10.5 40s3 39.5 3 67.5s-1 50.5 -3 67.5s-5.5 30.167 -10.5 39.5s-12.167 15.5 -21.5 18.5s-21.333 4.5 -36 4.5c-15.333 0 -27.666 -1.5 -36.999 -4.5
s-16.666 -9.16699 -21.999 -18.5s-8.83301 -22.5 -10.5 -39.5s-2.5 -39.5 -2.5 -67.5s0.833008 -50.5 2.5 -67.5s5.16699 -30.333 10.5 -40s12.666 -16 21.999 -19s21.666 -4.5 36.999 -4.5z" />
    <glyph glyph-name="otilde" unicode="&#xf5;" horiz-adv-x="593" 
d="M297 -11c-89.333 0 -157 23.833 -203 71.5s-69 117.5 -69 209.5s23 161.667 69 209s113.667 71 203 71s156.833 -23.5 202.5 -70.5s68.5 -116.833 68.5 -209.5c0 -92 -22.833 -161.833 -68.5 -209.5s-113.167 -71.5 -202.5 -71.5zM297 139c14.667 0 26.667 1.5 36 4.5
s16.5 9.33301 21.5 19s8.5 23 10.5 40s3 39.5 3 67.5s-1 50.5 -3 67.5s-5.5 30.167 -10.5 39.5s-12.167 15.5 -21.5 18.5s-21.333 4.5 -36 4.5c-15.333 0 -27.666 -1.5 -36.999 -4.5s-16.666 -9.16699 -21.999 -18.5s-8.83301 -22.5 -10.5 -39.5s-2.5 -39.5 -2.5 -67.5
s0.833008 -50.5 2.5 -67.5s5.16699 -30.333 10.5 -40s12.666 -16 21.999 -19s21.666 -4.5 36.999 -4.5zM89 659c22 42.667 47.0039 74.167 75.0039 94.5s55.667 30.5 83 30.5c14.667 0 29.167 -2.66699 43.5 -8s28.666 -11.333 42.999 -18s28.833 -12.667 43.5 -18
s29.667 -8 45 -8c12.667 0 24.834 2.83301 36.501 8.5s25.167 16.5 40.5 32.5l31 -40c-22.667 -44 -47.834 -76 -75.501 -96s-55.167 -30 -82.5 -30c-14.667 0 -29.167 2.66699 -43.5 8s-28.833 11.333 -43.5 18s-29.334 12.667 -44.001 18s-29.334 8 -44.001 8
c-13.333 0 -25.833 -2.66699 -37.5 -8s-24.834 -16 -39.501 -32z" />
    <glyph glyph-name="odieresis" unicode="&#xf6;" horiz-adv-x="593" 
d="M171 608c-34 0 -58.5 7.33203 -73.5 21.999s-22.5 38.667 -22.5 72c0 32.667 7.5 56.334 22.5 71.001s39.5 22 73.5 22s58.667 -7.5 74 -22.5s23 -38.5 23 -70.5c0 -33.333 -7.66699 -57.333 -23 -72s-40 -22 -74 -22zM429 607.999c-34.667 0 -59.5 7.33203 -74.5 21.999
s-22.5 38.667 -22.5 72c0 32.667 7.5 56.334 22.5 71.001s39.833 22 74.5 22c34 0 58.5 -7.5 73.5 -22.5s22.5 -38.5 22.5 -70.5c0 -33.333 -7.5 -57.333 -22.5 -72s-39.5 -22 -73.5 -22zM297 -11.002c-89.333 0 -157 23.833 -203 71.5s-69 117.5 -69 209.5
s23 161.667 69 209s113.667 71 203 71s156.833 -23.5 202.5 -70.5s68.5 -116.833 68.5 -209.5c0 -92 -22.833 -161.833 -68.5 -209.5s-113.167 -71.5 -202.5 -71.5zM297 138.998c14.667 0 26.667 1.5 36 4.5s16.5 9.33301 21.5 19s8.5 23 10.5 40s3 39.5 3 67.5
s-1 50.5 -3 67.5s-5.5 30.167 -10.5 39.5s-12.167 15.5 -21.5 18.5s-21.333 4.5 -36 4.5c-15.333 0 -27.666 -1.5 -36.999 -4.5s-16.666 -9.16699 -21.999 -18.5s-8.83301 -22.5 -10.5 -39.5s-2.5 -39.5 -2.5 -67.5s0.833008 -50.5 2.5 -67.5s5.16699 -30.333 10.5 -40
s12.666 -16 21.999 -19s21.666 -4.5 36.999 -4.5z" />
    <glyph glyph-name="divide" unicode="&#xf7;" horiz-adv-x="526" 
d="M265 91c-24.667 0 -44.834 7 -60.501 21s-23.5 35.667 -23.5 65c0 28 7.83301 48.667 23.5 62s35.834 20 60.501 20c24 0 43.833 -6.66699 59.5 -20s23.5 -34 23.5 -62c0 -29.333 -7.83301 -51 -23.5 -65s-35.5 -21 -59.5 -21zM26 437h474v-134h-474v134zM265 481
c-24.667 0 -44.834 6.66699 -60.501 20s-23.5 34 -23.5 62c0 29.333 7.83301 51 23.5 65s35.834 21 60.501 21c24 0 43.833 -7 59.5 -21s23.5 -35.667 23.5 -65c0 -28 -7.83301 -48.667 -23.5 -62s-35.5 -20 -59.5 -20z" />
    <glyph glyph-name="oslash" unicode="&#xf8;" horiz-adv-x="600" 
d="M74 90c-30 46 -44.999 106 -44.999 180c0 90.667 22.5 160 67.5 208s113.167 72 204.5 72c65.333 0 118.666 -12.667 159.999 -38l26 28h121l-82 -90c30.667 -46 46 -106 46 -180c0 -91.333 -22.333 -161 -67 -209s-112.667 -72 -204 -72
c-65.333 0 -119.333 12.667 -162 38l-25 -27h-123zM301.001 139c16 0 28.834 1.66699 38.501 5s16.834 9.83301 21.501 19.5s7.66699 23 9 40s2 39.167 2 66.5v11l-121 -132c5.33301 -4 12.166 -6.66699 20.499 -8s18.166 -2 29.499 -2zM229.002 259l120.002 130.999
c-10.667 6.66699 -26.667 10 -48 10c-16.667 0 -29.834 -1.66699 -39.501 -5s-16.834 -9.66602 -21.501 -18.999s-7.66699 -22.5 -9 -39.5s-2 -39.167 -2 -66.5v-11z" />
    <glyph glyph-name="ugrave" unicode="&#xf9;" horiz-adv-x="601" 
d="M194 -10c-46 0 -82.833 13.499 -110.5 40.499s-41.5 62.5 -41.5 106.5v403h200v-337c0 -35.333 14.667 -53 44 -53c18.667 0 42 7 70 21v369h200v-540h-168l-11 56h-4c-21.333 -13.333 -39.5 -24.166 -54.5 -32.499s-29.167 -15 -42.5 -20s-26.333 -8.5 -39 -10.5
s-27 -3 -43 -3zM222 608.999l-126 199h205l63 -189z" />
    <glyph glyph-name="uacute" unicode="&#xfa;" horiz-adv-x="601" 
d="M225 619l63 189h205l-125 -199zM194 -10c-46 0 -82.833 13.499 -110.5 40.499s-41.5 62.5 -41.5 106.5v403h200v-337c0 -35.333 14.667 -53 44 -53c18.667 0 42 7 70 21v369h200v-540h-168l-11 56h-4c-21.333 -13.333 -39.5 -24.166 -54.5 -32.499s-29.167 -15 -42.5 -20
s-26.333 -8.5 -39 -10.5s-27 -3 -43 -3z" />
    <glyph glyph-name="ucircumflex" unicode="&#xfb;" horiz-adv-x="601" 
d="M123 734l187 74l187 -74v-130l-187 73l-187 -73v130zM194 -10c-46 0 -82.833 13.499 -110.5 40.499s-41.5 62.5 -41.5 106.5v403h200v-337c0 -35.333 14.667 -53 44 -53c18.667 0 42 7 70 21v369h200v-540h-168l-11 56h-4c-21.333 -13.333 -39.5 -24.166 -54.5 -32.499
s-29.167 -15 -42.5 -20s-26.333 -8.5 -39 -10.5s-27 -3 -43 -3z" />
    <glyph glyph-name="udieresis" unicode="&#xfc;" horiz-adv-x="601" 
d="M173 608c-34 0 -58.5 7.33203 -73.5 21.999s-22.5 38.667 -22.5 72c0 32.667 7.5 56.334 22.5 71.001s39.5 22 73.5 22s58.667 -7.5 74 -22.5s23 -38.5 23 -70.5c0 -33.333 -7.66699 -57.333 -23 -72s-40 -22 -74 -22zM431 607.999c-34.667 0 -59.5 7.33203 -74.5 21.999
s-22.5 38.667 -22.5 72c0 32.667 7.5 56.334 22.5 71.001s39.833 22 74.5 22c34 0 58.5 -7.5 73.5 -22.5s22.5 -38.5 22.5 -70.5c0 -33.333 -7.5 -57.333 -22.5 -72s-39.5 -22 -73.5 -22zM194 -10.002c-46 0 -82.833 13.499 -110.5 40.499s-41.5 62.5 -41.5 106.5v403h200
v-337c0 -35.333 14.667 -53 44 -53c18.667 0 42 7 70 21v369h200v-540h-168l-11 56h-4c-21.333 -13.333 -39.5 -24.166 -54.5 -32.499s-29.167 -15 -42.5 -20s-26.333 -8.5 -39 -10.5s-27 -3 -43 -3z" />
    <glyph glyph-name="yacute" unicode="&#xfd;" horiz-adv-x="595" 
d="M134 -185v11l61 177l-198 521v16h208l67 -252l19 -90h11l20 90l67 252h206v-16l-265 -744zM227 619l63 189h205l-125 -199z" />
    <glyph glyph-name="thorn" unicode="&#xfe;" horiz-adv-x="604" 
d="M45 808l200 0.000976562v-315c18 18.667 39.5 32.667 64.5 42s52.5 14 82.5 14c64 0 110.833 -21.333 140.5 -64s44.5 -108.334 44.5 -197.001c0 -97.333 -22.833 -171.166 -68.5 -221.499s-118.167 -75.5 -217.5 -75.5c-3.33301 0 -9 0.166992 -17 0.5
s-17.667 1.16602 -29 2.49902v-214h-200v1028zM291 120.001c18 0 32.5 1.33398 43.5 4.00098s19.5 9 25.5 19s10 24.5 12 43.5s3 45.167 3 78.5c0 32.667 -0.833008 58.667 -2.5 78s-4.66699 34 -9 44s-10.5 16.5 -18.5 19.5s-18 4.5 -30 4.5
c-16 0 -28.667 -3.16699 -38 -9.5s-16.333 -17.5 -21 -33.5s-7.66699 -37.333 -9 -64s-2 -60.334 -2 -101.001v-70c7.33301 -4.66699 15.5 -8 24.5 -10s16.167 -3 21.5 -3z" />
    <glyph glyph-name="ydieresis" unicode="&#xff;" horiz-adv-x="595" 
d="M134 -185v11l61 177l-198 521v16h208l67 -252l19 -90h11l20 90l67 252h206v-16l-265 -744zM170 608c-34 0 -58.5 7.33203 -73.5 21.999s-22.5 38.667 -22.5 72c0 32.667 7.5 56.334 22.5 71.001s39.5 22 73.5 22s58.667 -7.5 74 -22.5s23 -38.5 23 -70.5
c0 -33.333 -7.66699 -57.333 -23 -72s-40 -22 -74 -22zM428 607.999c-34.667 0 -59.5 7.33203 -74.5 21.999s-22.5 38.667 -22.5 72c0 32.667 7.5 56.334 22.5 71.001s39.833 22 74.5 22c34 0 58.5 -7.5 73.5 -22.5s22.5 -38.5 22.5 -70.5c0 -33.333 -7.5 -57.333 -22.5 -72
s-39.5 -22 -73.5 -22z" />
    <glyph glyph-name="Amacron" unicode="&#x100;" horiz-adv-x="689" 
d="M-4 8l194 732h310l194 -732v-8h-195l-40 156h-230l-39 -156h-194v8zM419 317l-37 154l-30 123h-14l-31 -124l-37 -153h149zM159 968h374v-130h-374v130z" />
    <glyph glyph-name="amacron" unicode="&#x101;" horiz-adv-x="559" 
d="M177 -5c-24 0 -45.833 4 -65.5 12s-36.5 19.333 -50.5 34s-24.667 32.167 -32 52.5s-11 42.833 -11 67.5c0 106.667 66.333 164 199 172l100 6c-0.666992 14 -2.16699 25.167 -4.5 33.5s-6.5 15 -12.5 20s-14.5 8.33301 -25.5 10s-24.833 2.5 -41.5 2.5
c-9.33301 0 -21 -0.5 -35 -1.5s-28.833 -2.16699 -44.5 -3.5s-30.834 -3 -45.501 -5s-27 -4 -37 -6l-12 140c34.667 5.33301 69.334 9.83301 104.001 13.5s68 5.5 100 5.5c88.667 0 153.167 -14.167 193.5 -42.5s60.5 -73.5 60.5 -135.5v-370h-164l-15 65h-10
c-18 -22.667 -40.333 -40 -67 -52s-54.667 -18 -84 -18zM258 134c9.33301 0 19.6689 2.16699 31.002 6.5s20.666 9.5 27.999 15.5v74l-49 -5c-18.667 -2 -31.834 -6.33301 -39.501 -13s-11.5 -17 -11.5 -31c0 -31.333 13.667 -47 41 -47zM97.0029 746h374v-122h-374v122z
" />
    <glyph glyph-name="Abreve" unicode="&#x102;" horiz-adv-x="689" 
d="M-4 8l194 732h310l194 -732v-8h-195l-40 156h-230l-39 -156h-194v8zM419 317l-37 154l-30 123h-14l-31 -124l-37 -153h149zM346 795c-35.333 0 -66 4.5 -92 13.5s-47.333 21.667 -64 38s-29 36.166 -37 59.499s-12 49.333 -12 78h132c0 -36 4.83301 -61.333 14.5 -76
s29.167 -22 58.5 -22s48.833 7.33301 58.5 22s14.5 40 14.5 76h133c0 -57.333 -16.667 -103.166 -50 -137.499s-85.333 -51.5 -156 -51.5z" />
    <glyph glyph-name="abreve" unicode="&#x103;" horiz-adv-x="559" 
d="M177 -5c-24 0 -45.833 4 -65.5 12s-36.5 19.333 -50.5 34s-24.667 32.167 -32 52.5s-11 42.833 -11 67.5c0 106.667 66.333 164 199 172l100 6c-0.666992 14 -2.16699 25.167 -4.5 33.5s-6.5 15 -12.5 20s-14.5 8.33301 -25.5 10s-24.833 2.5 -41.5 2.5
c-9.33301 0 -21 -0.5 -35 -1.5s-28.833 -2.16699 -44.5 -3.5s-30.834 -3 -45.501 -5s-27 -4 -37 -6l-12 140c34.667 5.33301 69.334 9.83301 104.001 13.5s68 5.5 100 5.5c88.667 0 153.167 -14.167 193.5 -42.5s60.5 -73.5 60.5 -135.5v-370h-164l-15 65h-10
c-18 -22.667 -40.333 -40 -67 -52s-54.667 -18 -84 -18zM258 134c9.33301 0 19.6689 2.16699 31.002 6.5s20.666 9.5 27.999 15.5v74l-49 -5c-18.667 -2 -31.834 -6.33301 -39.501 -13s-11.5 -17 -11.5 -31c0 -31.333 13.667 -47 41 -47zM283.003 610
c-68.667 0 -119.333 15.168 -152 45.501s-50.334 73.166 -53.001 128.499h132c0.666992 -25.333 6.5 -44.166 17.5 -56.499s29.5 -18.5 55.5 -18.5s44.333 6.16699 55 18.5s16.667 31.166 18 56.499h132c-3.33301 -56 -21.166 -99 -53.499 -129s-82.833 -45 -151.5 -45z" />
    <glyph glyph-name="Aogonek" unicode="&#x104;" horiz-adv-x="689" 
d="M599 -220c-96 0 -143.998 34.002 -143.998 102.002c0 21.333 5.83301 41.5 17.5 60.5s30.5 38.167 56.5 57.5h-30l-40 156h-230l-39 -156h-194v8l194 732h310l194 -732v-13c-22 -8.66699 -40.167 -17.167 -54.5 -25.5s-25.833 -16.333 -34.5 -24
s-14.834 -14.834 -18.501 -21.501s-5.5 -12.334 -5.5 -17.001c0 -6.66699 3 -11.334 9 -14.001s14 -4 24 -4c11.333 0 24.666 1.5 39.999 4.5s29 6.16699 41 9.5v-111c-17.333 -3.33301 -33.333 -6.16602 -48 -8.49902s-30.667 -3.5 -48 -3.5zM419.002 317.002l-37 154
l-30 123h-14l-31 -124l-37 -153h149z" />
    <glyph glyph-name="aogonek" unicode="&#x105;" horiz-adv-x="559" 
d="M422 -220c-96 0 -143.999 34.002 -143.999 102.002c0 21.333 5.83301 41.5 17.5 60.5s30.834 38.167 57.501 57.5l-15 65h-10c-18 -22.667 -40.333 -40 -67 -52s-54.667 -18 -84 -18c-24 0 -45.833 4 -65.5 12s-36.5 19.333 -50.5 34s-24.667 32.167 -32 52.5
s-11 42.833 -11 67.5c0 106.667 66.333 164 199 172l100 6c-0.666992 14 -2.16699 25.167 -4.5 33.5s-6.5 15 -12.5 20s-14.5 8.33301 -25.5 10s-24.833 2.5 -41.5 2.5c-9.33301 0 -21 -0.5 -35 -1.5s-28.833 -2.16699 -44.5 -3.5s-30.834 -3 -45.501 -5s-27 -4 -37 -6
l-12 140c34.667 5.33301 69.334 9.83301 104.001 13.5s68 5.5 100 5.5c88.667 0 153.167 -14.167 193.5 -42.5s60.5 -73.5 60.5 -135.5v-375c-22 -8.66699 -40.167 -17.167 -54.5 -25.5s-25.833 -16.333 -34.5 -24s-14.834 -14.834 -18.501 -21.501
s-5.5 -12.334 -5.5 -17.001c0 -6.66699 3 -11.334 9 -14.001s14 -4 24 -4c11.333 0 24.666 1.5 39.999 4.5s29 6.16699 41 9.5v-111c-17.333 -3.33301 -33.333 -6.16602 -48 -8.49902s-30.667 -3.5 -48 -3.5zM258.001 134.002c9.33301 0 19.6689 2.16699 31.002 6.5
s20.666 9.5 27.999 15.5v74l-49 -5c-18.667 -2 -31.834 -6.33301 -39.501 -13s-11.5 -17 -11.5 -31c0 -31.333 13.667 -47 41 -47z" />
    <glyph glyph-name="Cacute" unicode="&#x106;" horiz-adv-x="544" 
d="M362 -11c-112 0 -195.664 31 -250.997 93s-83 158 -83 288s27.667 226 83 288s136.666 93 243.999 93c24 0 49.167 -1.5 75.5 -4.5s55.5 -7.16699 87.5 -12.5v-161c-30 4 -55.333 6.83301 -76 8.5s-39.667 2.5 -57 2.5c-28 0 -51.5 -2.83301 -70.5 -8.5
s-34.167 -16.167 -45.5 -31.5s-19.333 -37.166 -24 -65.499s-7 -64.833 -7 -109.5s2.33301 -80.834 7 -108.501s12.667 -49.334 24 -65.001s26.333 -26.167 45 -31.5s42 -8 70 -8c23.333 0 46.666 1.33301 69.999 4s44.666 6.33398 63.999 11.001v-159
c-17.333 -6.66699 -40.333 -12.167 -69 -16.5s-57.667 -6.5 -87 -6.5zM225.003 804l64 189h204l-125 -199z" />
    <glyph glyph-name="cacute" unicode="&#x107;" horiz-adv-x="472" 
d="M191 619l63 189h205l-125 -199zM307 -9c-94.667 0 -165.335 22.3301 -212.002 66.9971s-70 115.334 -70 212.001s23.333 167.334 70 212.001s117.334 67 212.001 67c25.333 0 49.666 -1.5 72.999 -4.5s43.333 -7.16699 60 -12.5v-154c-42.667 7.33301 -79.667 11 -111 11
c-38 0 -64.5 -8.66699 -79.5 -26s-22.5 -47.666 -22.5 -90.999c0 -44 7.5 -75.167 22.5 -93.5s40.833 -27.5 77.5 -27.5c22.667 0 42.834 0.833008 60.501 2.5s35.167 4.5 52.5 8.5v-153c-16.667 -6 -36.667 -10.5 -60 -13.5s-47.666 -4.5 -72.999 -4.5z" />
    <glyph glyph-name="Ccircumflex" unicode="&#x108;" horiz-adv-x="544" 
d="M362 -11c-112 0 -195.664 31 -250.997 93s-83 158 -83 288s27.667 226 83 288s136.666 93 243.999 93c24 0 49.167 -1.5 75.5 -4.5s55.5 -7.16699 87.5 -12.5v-161c-30 4 -55.333 6.83301 -76 8.5s-39.667 2.5 -57 2.5c-28 0 -51.5 -2.83301 -70.5 -8.5
s-34.167 -16.167 -45.5 -31.5s-19.333 -37.166 -24 -65.499s-7 -64.833 -7 -109.5s2.33301 -80.834 7 -108.501s12.667 -49.334 24 -65.001s26.333 -26.167 45 -31.5s42 -8 70 -8c23.333 0 46.666 1.33301 69.999 4s44.666 6.33398 63.999 11.001v-159
c-17.333 -6.66699 -40.333 -12.167 -69 -16.5s-57.667 -6.5 -87 -6.5zM116.003 919l187 74l187 -74v-130l-187 73l-187 -73v130z" />
    <glyph glyph-name="ccircumflex" unicode="&#x109;" horiz-adv-x="472" 
d="M83 734l187 74l187 -74v-130l-187 73l-187 -73v130zM307 -9c-94.667 0 -165.335 22.3301 -212.002 66.9971s-70 115.334 -70 212.001s23.333 167.334 70 212.001s117.334 67 212.001 67c25.333 0 49.666 -1.5 72.999 -4.5s43.333 -7.16699 60 -12.5v-154
c-42.667 7.33301 -79.667 11 -111 11c-38 0 -64.5 -8.66699 -79.5 -26s-22.5 -47.666 -22.5 -90.999c0 -44 7.5 -75.167 22.5 -93.5s40.833 -27.5 77.5 -27.5c22.667 0 42.834 0.833008 60.501 2.5s35.167 4.5 52.5 8.5v-153c-16.667 -6 -36.667 -10.5 -60 -13.5
s-47.666 -4.5 -72.999 -4.5z" />
    <glyph glyph-name="Cdotaccent" unicode="&#x10a;" horiz-adv-x="544" 
d="M310 797c-38 0 -65.333 8.16895 -82 24.502s-25 43.166 -25 80.499c0 36.667 8.33301 63 25 79s44 24 82 24s65.5 -8.16699 82.5 -24.5s25.5 -42.5 25.5 -78.5c0 -36.667 -8.5 -63.334 -25.5 -80.001s-44.5 -25 -82.5 -25zM362 -10.998c-112 0 -195.664 31 -250.997 93
s-83 158 -83 288s27.667 226 83 288s136.666 93 243.999 93c24 0 49.167 -1.5 75.5 -4.5s55.5 -7.16699 87.5 -12.5v-161c-30 4 -55.333 6.83301 -76 8.5s-39.667 2.5 -57 2.5c-28 0 -51.5 -2.83301 -70.5 -8.5s-34.167 -16.167 -45.5 -31.5s-19.333 -37.166 -24 -65.499
s-7 -64.833 -7 -109.5s2.33301 -80.834 7 -108.501s12.667 -49.334 24 -65.001s26.333 -26.167 45 -31.5s42 -8 70 -8c23.333 0 46.666 1.33301 69.999 4s44.666 6.33398 63.999 11.001v-159c-17.333 -6.66699 -40.333 -12.167 -69 -16.5s-57.667 -6.5 -87 -6.5z" />
    <glyph glyph-name="cdotaccent" unicode="&#x10b;" horiz-adv-x="472" 
d="M307 -9c-94.667 0 -165.335 22.3301 -212.002 66.9971s-70 115.334 -70 212.001s23.333 167.334 70 212.001s117.334 67 212.001 67c25.333 0 49.666 -1.5 72.999 -4.5s43.333 -7.16699 60 -12.5v-154c-42.667 7.33301 -79.667 11 -111 11
c-38 0 -64.5 -8.66699 -79.5 -26s-22.5 -47.666 -22.5 -90.999c0 -44 7.5 -75.167 22.5 -93.5s40.833 -27.5 77.5 -27.5c22.667 0 42.834 0.833008 60.501 2.5s35.167 4.5 52.5 8.5v-153c-16.667 -6 -36.667 -10.5 -60 -13.5s-47.666 -4.5 -72.999 -4.5zM260.999 596.997
c-38.667 0 -66.167 8.16895 -82.5 24.502s-24.5 43.166 -24.5 80.499c0 36.667 8.16699 63 24.5 79s43.833 24 82.5 24c38 0 65.5 -8.16699 82.5 -24.5s25.5 -42.5 25.5 -78.5c0 -36.667 -8.5 -63.334 -25.5 -80.001s-44.5 -25 -82.5 -25z" />
    <glyph glyph-name="Ccaron" unicode="&#x10c;" horiz-adv-x="544" 
d="M362 -11c-112 0 -195.664 31 -250.997 93s-83 158 -83 288s27.667 226 83 288s136.666 93 243.999 93c24 0 49.167 -1.5 75.5 -4.5s55.5 -7.16699 87.5 -12.5v-161c-30 4 -55.333 6.83301 -76 8.5s-39.667 2.5 -57 2.5c-28 0 -51.5 -2.83301 -70.5 -8.5
s-34.167 -16.167 -45.5 -31.5s-19.333 -37.166 -24 -65.499s-7 -64.833 -7 -109.5s2.33301 -80.834 7 -108.501s12.667 -49.334 24 -65.001s26.333 -26.167 45 -31.5s42 -8 70 -8c23.333 0 46.666 1.33301 69.999 4s44.666 6.33398 63.999 11.001v-159
c-17.333 -6.66699 -40.333 -12.167 -69 -16.5s-57.667 -6.5 -87 -6.5zM124.003 993l187 -74l187 74v-131l-187 -73l-187 73v131z" />
    <glyph glyph-name="ccaron" unicode="&#x10d;" horiz-adv-x="472" 
d="M73 808l187 -74l187 74v-131l-187 -73l-187 73v131zM307 -9c-94.667 0 -165.335 22.3301 -212.002 66.9971s-70 115.334 -70 212.001s23.333 167.334 70 212.001s117.334 67 212.001 67c25.333 0 49.666 -1.5 72.999 -4.5s43.333 -7.16699 60 -12.5v-154
c-42.667 7.33301 -79.667 11 -111 11c-38 0 -64.5 -8.66699 -79.5 -26s-22.5 -47.666 -22.5 -90.999c0 -44 7.5 -75.167 22.5 -93.5s40.833 -27.5 77.5 -27.5c22.667 0 42.834 0.833008 60.501 2.5s35.167 4.5 52.5 8.5v-153c-16.667 -6 -36.667 -10.5 -60 -13.5
s-47.666 -4.5 -72.999 -4.5z" />
    <glyph glyph-name="Dcaron" unicode="&#x10e;" horiz-adv-x="703" 
d="M159 993l187 -74l187 74v-131l-187 -73l-187 73v131zM262 -12c-30.667 0 -63.001 1.16309 -97.001 3.49609s-71 5.5 -111 9.5v739c51.333 2.66699 94.5 4.83398 129.5 6.50098s66.5 2.5 94.5 2.5c72 0 133.167 -6.83301 183.5 -20.5s91.333 -35.667 123 -66
s54.834 -69.666 69.501 -117.999s22 -106.833 22 -175.5c0 -69.333 -7.33301 -128.166 -22 -176.499s-38.5 -87.666 -71.5 -117.999s-75.833 -52.333 -128.5 -66s-116.667 -20.5 -192 -20.5zM337.999 150.996c26 0 47.166 3.00391 63.499 9.00391s29.333 17.167 39 33.5
s16.334 38.666 20.001 66.999s5.5 64.833 5.5 109.5c0 43.333 -2.16699 79.166 -6.5 107.499s-12.333 50.666 -24 66.999s-27.167 27.666 -46.5 33.999s-44 9.5 -74 9.5c-11.333 0 -21.5 -0.333008 -30.5 -1s-18.5 -1.66699 -28.5 -3v-427c17.333 -2 32.333 -3.5 45 -4.5
s25 -1.5 37 -1.5z" />
    <glyph glyph-name="dcaron" unicode="&#x10f;" horiz-adv-x="605" 
d="M597 808h156l-49 -228h-107v228zM217 -10c-127.333 0 -190.999 87 -190.999 261c0 100 24 174.667 72 224s118.667 74 212 74c7.33301 0 14.666 -0.166992 21.999 -0.5s16.333 -0.833008 27 -1.5v261h200v-808h-181l-12 58h-6c-33.333 -45.333 -81 -68 -143 -68z
M290.001 131c13.333 0 24.334 2.5 33.001 7.5s15.667 14 21 27s9.16602 30.333 11.499 52s3.5 49.5 3.5 83.5v106c-12.667 7.33301 -30.667 11 -54 11c-16 0 -29 -1.83301 -39 -5.5s-17.667 -10.834 -23 -21.501s-9 -25.5 -11 -44.5s-3 -43.833 -3 -74.5
c0 -28.667 0.833008 -52.167 2.5 -70.5s4.66699 -32.666 9 -42.999s10.5 -17.5 18.5 -21.5s18.333 -6 31 -6z" />
    <glyph glyph-name="Dcroat" unicode="&#x110;" horiz-adv-x="731" 
d="M0 450l80.999 -0.00390625v290c51.333 2.66699 94.5 4.83398 129.5 6.50098s66.5 2.5 94.5 2.5c72 0 133.167 -6.83301 183.5 -20.5s91.333 -35.667 123 -66s54.834 -69.666 69.501 -117.999s22 -106.833 22 -175.5c0 -69.333 -7.33301 -128.166 -22 -176.499
s-38.5 -87.666 -71.5 -117.999s-75.833 -52.333 -128.5 -66s-116.667 -20.5 -192 -20.5c-30.667 0 -63 1.16699 -97 3.5s-71 5.5 -111 9.5v297h-81v152zM364.999 150.996c26 0 47.166 3.00391 63.499 9.00391s29.333 17.167 39 33.5s16.334 38.666 20.001 66.999
s5.5 64.833 5.5 109.5c0 43.333 -2.16699 79.166 -6.5 107.499s-12.333 50.666 -24 66.999s-27.167 27.666 -46.5 33.999s-44 9.5 -74 9.5c-11.333 0 -21.5 -0.333008 -30.5 -1s-18.5 -1.66699 -28.5 -3v-134h78v-152h-78v-141c17.333 -2 32.333 -3.5 45 -4.5
s25 -1.5 37 -1.5z" />
    <glyph glyph-name="dcroat" unicode="&#x111;" horiz-adv-x="605" 
d="M225 734h134.001v74h200v-74h65v-118h-65v-616h-181l-12 58h-6c-33.333 -45.333 -81 -68 -143 -68c-127.333 0 -191 87 -191 261c0 100 24 174.667 72 224s118.667 74 212 74c7.33301 0 14.666 -0.166992 21.999 -0.5s16.333 -0.833008 27 -1.5v69h-134v118zM290.001 131
c13.333 0 24.334 2.5 33.001 7.5s15.667 14 21 27s9.16602 30.333 11.499 52s3.5 49.5 3.5 83.5v106c-12.667 7.33301 -30.667 11 -54 11c-16 0 -29 -1.83301 -39 -5.5s-17.667 -10.834 -23 -21.501s-9 -25.5 -11 -44.5s-3 -43.833 -3 -74.5
c0 -28.667 0.833008 -52.167 2.5 -70.5s4.66699 -32.666 9 -42.999s10.5 -17.5 18.5 -21.5s18.333 -6 31 -6z" />
    <glyph glyph-name="Emacron" unicode="&#x112;" horiz-adv-x="599" 
d="M126 968h374v-130h-374v130zM54 740h507v-165h-302v-122h269v-166h-269v-121h311v-166h-516v740z" />
    <glyph glyph-name="emacron" unicode="&#x113;" horiz-adv-x="550" 
d="M294 -9c-179.333 0 -268.998 92 -268.998 276c0 93.333 22.5 163.666 67.5 210.999s112.833 71 203.5 71c78 0 135.5 -20.667 172.5 -62s55.5 -106 55.5 -194c0 -19.333 -0.5 -35 -1.5 -47s-2.83301 -24 -5.5 -36h-292c1.33301 -15.333 3.66602 -27.666 6.99902 -36.999
s8.16602 -16.5 14.499 -21.5s14.5 -8.33301 24.5 -10s22.333 -2.5 37 -2.5c23.333 0 52.666 2.5 87.999 7.5s70 11.167 104 18.5l5 -143c-29.333 -9.33301 -63.166 -16.833 -101.499 -22.5s-74.833 -8.5 -109.5 -8.5zM289.002 407c-21.333 0 -36.832 -6 -46.499 -18
s-15.834 -34.667 -18.501 -68h125c-1.33301 32 -6.33301 54.333 -15 67s-23.667 19 -45 19zM93.0029 746h374v-122h-374v122z" />
    <glyph glyph-name="Ebreve" unicode="&#x114;" horiz-adv-x="599" 
d="M309 795c-35.333 0 -66 4.5 -92 13.5s-47.333 21.667 -64 38s-29 36.166 -37 59.499s-12 49.333 -12 78h132c0 -36 4.83301 -61.333 14.5 -76s29.167 -22 58.5 -22s48.833 7.33301 58.5 22s14.5 40 14.5 76h133c0 -57.333 -16.667 -103.166 -50 -137.499
s-85.333 -51.5 -156 -51.5zM54 740h507v-165h-302v-122h269v-166h-269v-121h311v-166h-516v740z" />
    <glyph glyph-name="ebreve" unicode="&#x115;" horiz-adv-x="550" 
d="M294 -9c-179.333 0 -268.998 92 -268.998 276c0 93.333 22.5 163.666 67.5 210.999s112.833 71 203.5 71c78 0 135.5 -20.667 172.5 -62s55.5 -106 55.5 -194c0 -19.333 -0.5 -35 -1.5 -47s-2.83301 -24 -5.5 -36h-292c1.33301 -15.333 3.66602 -27.666 6.99902 -36.999
s8.16602 -16.5 14.499 -21.5s14.5 -8.33301 24.5 -10s22.333 -2.5 37 -2.5c23.333 0 52.666 2.5 87.999 7.5s70 11.167 104 18.5l5 -143c-29.333 -9.33301 -63.166 -16.833 -101.499 -22.5s-74.833 -8.5 -109.5 -8.5zM289.002 407c-21.333 0 -36.832 -6 -46.499 -18
s-15.834 -34.667 -18.501 -68h125c-1.33301 32 -6.33301 54.333 -15 67s-23.667 19 -45 19zM281.003 610c-68.667 0 -119.333 15.168 -152 45.501s-50.334 73.166 -53.001 128.499h132c0.666992 -25.333 6.5 -44.166 17.5 -56.499s29.5 -18.5 55.5 -18.5
s44.333 6.16699 55 18.5s16.667 31.166 18 56.499h132c-3.33301 -56 -21.166 -99 -53.499 -129s-82.833 -45 -151.5 -45z" />
    <glyph glyph-name="Edotaccent" unicode="&#x116;" horiz-adv-x="599" 
d="M309 797c-38 0 -65.333 8.16895 -82 24.502s-25 43.166 -25 80.499c0 36.667 8.33301 63 25 79s44 24 82 24s65.5 -8.16699 82.5 -24.5s25.5 -42.5 25.5 -78.5c0 -36.667 -8.5 -63.334 -25.5 -80.001s-44.5 -25 -82.5 -25zM54 740.002h507v-165h-302v-122h269v-166h-269
v-121h311v-166h-516v740z" />
    <glyph glyph-name="edotaccent" unicode="&#x117;" horiz-adv-x="550" 
d="M294 -9c-179.333 0 -268.998 92 -268.998 276c0 93.333 22.5 163.666 67.5 210.999s112.833 71 203.5 71c78 0 135.5 -20.667 172.5 -62s55.5 -106 55.5 -194c0 -19.333 -0.5 -35 -1.5 -47s-2.83301 -24 -5.5 -36h-292c1.33301 -15.333 3.66602 -27.666 6.99902 -36.999
s8.16602 -16.5 14.499 -21.5s14.5 -8.33301 24.5 -10s22.333 -2.5 37 -2.5c23.333 0 52.666 2.5 87.999 7.5s70 11.167 104 18.5l5 -143c-29.333 -9.33301 -63.166 -16.833 -101.499 -22.5s-74.833 -8.5 -109.5 -8.5zM289.002 407c-21.333 0 -36.832 -6 -46.499 -18
s-15.834 -34.667 -18.501 -68h125c-1.33301 32 -6.33301 54.333 -15 67s-23.667 19 -45 19zM284.003 597c-38.667 0 -66.167 8.16895 -82.5 24.502s-24.5 43.166 -24.5 80.499c0 36.667 8.16699 63 24.5 79s43.833 24 82.5 24c38 0 65.5 -8.16699 82.5 -24.5
s25.5 -42.5 25.5 -78.5c0 -36.667 -8.5 -63.334 -25.5 -80.001s-44.5 -25 -82.5 -25z" />
    <glyph glyph-name="Eogonek" unicode="&#x118;" horiz-adv-x="599" 
d="M54 740l507.002 0.00195312v-165h-302v-122h269v-166h-269v-121h311v-171c-22 -8.66699 -40.167 -17.167 -54.5 -25.5s-25.833 -16.333 -34.5 -24s-14.834 -14.834 -18.501 -21.501s-5.5 -12.334 -5.5 -17.001c0 -6.66699 3 -11.334 9 -14.001s14 -4 24 -4
c11.333 0 24.666 1.5 39.999 4.5s29 6.16699 41 9.5v-111c-17.333 -3.33301 -33.333 -6.16602 -48 -8.49902s-30.667 -3.5 -48 -3.5c-96 0 -144 34 -144 102c0 21.333 5.83301 41.5 17.5 60.5s30.5 38.167 56.5 57.5h-351v740z" />
    <glyph glyph-name="eogonek" unicode="&#x119;" horiz-adv-x="550" 
d="M294 -9c-179.333 0 -268.995 92.002 -268.995 276.002c0 93.333 22.5 163.666 67.5 210.999s112.833 71 203.5 71c78 0 135.5 -20.667 172.5 -62s55.5 -106 55.5 -194c0 -19.333 -0.5 -35 -1.5 -47s-2.83301 -24 -5.5 -36h-292
c1.33301 -15.333 3.66602 -27.666 6.99902 -36.999s8.16602 -16.5 14.499 -21.5s14.5 -8.33301 24.5 -10s22.333 -2.5 37 -2.5c23.333 0 52.666 2.5 87.999 7.5s70 11.167 104 18.5l5 -143v-5c-22 -8.66699 -40.167 -17.167 -54.5 -25.5s-25.833 -16.333 -34.5 -24
s-14.834 -14.834 -18.501 -21.501s-5.5 -12.334 -5.5 -17.001c0 -6.66699 3 -11.334 9 -14.001s14 -4 24 -4c11.333 0 24.666 1.5 39.999 4.5s29 6.16699 41 9.5v-111c-17.333 -3.33301 -33.333 -6.16602 -48 -8.49902s-30.667 -3.5 -48 -3.5c-96 0 -144 34 -144 102
c0 16 3 31 9 45s15.667 28 29 42h-10zM289.005 407.002c-21.333 0 -36.832 -6 -46.499 -18s-15.834 -34.667 -18.501 -68h125c-1.33301 32 -6.33301 54.333 -15 67s-23.667 19 -45 19z" />
    <glyph glyph-name="Ecaron" unicode="&#x11a;" horiz-adv-x="599" 
d="M132 993l187 -74l187 74v-131l-187 -73l-187 73v131zM54 740h507v-165h-302v-122h269v-166h-269v-121h311v-166h-516v740z" />
    <glyph glyph-name="ecaron" unicode="&#x11b;" horiz-adv-x="550" 
d="M96 808l187 -74l187 74v-131l-187 -73l-187 73v131zM294 -9c-179.333 0 -268.998 92 -268.998 276c0 93.333 22.5 163.666 67.5 210.999s112.833 71 203.5 71c78 0 135.5 -20.667 172.5 -62s55.5 -106 55.5 -194c0 -19.333 -0.5 -35 -1.5 -47s-2.83301 -24 -5.5 -36h-292
c1.33301 -15.333 3.66602 -27.666 6.99902 -36.999s8.16602 -16.5 14.499 -21.5s14.5 -8.33301 24.5 -10s22.333 -2.5 37 -2.5c23.333 0 52.666 2.5 87.999 7.5s70 11.167 104 18.5l5 -143c-29.333 -9.33301 -63.166 -16.833 -101.499 -22.5s-74.833 -8.5 -109.5 -8.5z
M289.002 407c-21.333 0 -36.832 -6 -46.499 -18s-15.834 -34.667 -18.501 -68h125c-1.33301 32 -6.33301 54.333 -15 67s-23.667 19 -45 19z" />
    <glyph glyph-name="Gcircumflex" unicode="&#x11c;" horiz-adv-x="640" 
d="M361 -11c-113.333 0 -197.331 31.502 -251.998 94.502s-82 158.5 -82 286.5c0 126.667 31 221.834 93 285.501s155.333 95.5 280 95.5c30.667 0 62.167 -2 94.5 -6s63.833 -10 94.5 -18v-161c-37.333 6.66699 -69.833 11.5 -97.5 14.5s-51.834 4.5 -72.501 4.5
c-36 0 -65.667 -3.33301 -89 -10s-41.833 -18.334 -55.5 -35.001s-23.334 -38.834 -29.001 -66.501s-8.5 -62.5 -8.5 -104.5c0 -42.667 2.16699 -77.834 6.5 -105.501s12 -49.5 23 -65.5s25.833 -27 44.5 -33s42.667 -9 72 -9h16.5c5.66699 0 11.5 0.333008 17.5 1v219h185
v-361c-50 -8.66699 -94.667 -15.167 -134 -19.5s-75 -6.5 -107 -6.5zM162.002 919.002l187 74l187 -74v-130l-187 73l-187 -73v130z" />
    <glyph glyph-name="gcircumflex" unicode="&#x11d;" horiz-adv-x="604" 
d="M137 734l187 74l187 -74v-130l-187 73l-187 -73v130zM258 -220c-32 0 -65.168 1.83105 -99.501 5.49805s-66.5 9.16699 -96.5 16.5l12 143c28 -5.33301 55.333 -9.66602 82 -12.999s51.667 -5 75 -5c45.333 0 79.5 8.83301 102.5 26.5s34.5 48.834 34.5 93.501v41h-6
c-15.333 -22.667 -35 -39.334 -59 -50.001s-51 -16 -81 -16c-65.333 0 -114.166 19 -146.499 57s-48.5 96.333 -48.5 175c0 98.667 24.167 172.5 72.5 221.5s118.833 73.5 211.5 73.5c16 0 32.667 -0.666992 50 -2s35.833 -3.5 55.5 -6.5s41.167 -7.16699 64.5 -12.5
s49.666 -12 78.999 -20v-431c0 -50.667 -7 -94.667 -21 -132s-34.167 -68.166 -60.5 -92.499s-58.166 -42.5 -95.499 -54.5s-79 -18 -125 -18zM290.999 154.998c13.333 0 24.499 2.5 33.499 7.5s16.167 13.5 21.5 25.5s9 28 11 48s3 45.333 3 76v95
c-12.667 7.33301 -30.667 11 -54 11c-16 0 -29 -1.83301 -39 -5.5s-17.667 -10.667 -23 -21s-9 -24.666 -11 -42.999s-3 -42.5 -3 -72.5c0 -24.667 0.666992 -44.834 2 -60.501s4.33301 -28 9 -37s10.834 -15.167 18.501 -18.5s18.167 -5 31.5 -5z" />
    <glyph glyph-name="Gbreve" unicode="&#x11e;" horiz-adv-x="640" 
d="M353 795c-35.333 0 -66 4.5 -92 13.5s-47.333 21.667 -64 38s-29 36.166 -37 59.499s-12 49.333 -12 78h132c0 -36 4.83301 -61.333 14.5 -76s29.167 -22 58.5 -22s48.833 7.33301 58.5 22s14.5 40 14.5 76h133c0 -57.333 -16.667 -103.166 -50 -137.499
s-85.333 -51.5 -156 -51.5zM361 -11c-113.333 0 -197.331 31.502 -251.998 94.502s-82 158.5 -82 286.5c0 126.667 31 221.834 93 285.501s155.333 95.5 280 95.5c30.667 0 62.167 -2 94.5 -6s63.833 -10 94.5 -18v-161c-37.333 6.66699 -69.833 11.5 -97.5 14.5
s-51.834 4.5 -72.501 4.5c-36 0 -65.667 -3.33301 -89 -10s-41.833 -18.334 -55.5 -35.001s-23.334 -38.834 -29.001 -66.501s-8.5 -62.5 -8.5 -104.5c0 -42.667 2.16699 -77.834 6.5 -105.501s12 -49.5 23 -65.5s25.833 -27 44.5 -33s42.667 -9 72 -9h16.5
c5.66699 0 11.5 0.333008 17.5 1v219h185v-361c-50 -8.66699 -94.667 -15.167 -134 -19.5s-75 -6.5 -107 -6.5z" />
    <glyph glyph-name="gbreve" unicode="&#x11f;" horiz-adv-x="604" 
d="M258 -220c-32 0 -65.168 1.83105 -99.501 5.49805s-66.5 9.16699 -96.5 16.5l12 143c28 -5.33301 55.333 -9.66602 82 -12.999s51.667 -5 75 -5c45.333 0 79.5 8.83301 102.5 26.5s34.5 48.834 34.5 93.501v41h-6c-15.333 -22.667 -35 -39.334 -59 -50.001
s-51 -16 -81 -16c-65.333 0 -114.166 19 -146.499 57s-48.5 96.333 -48.5 175c0 98.667 24.167 172.5 72.5 221.5s118.833 73.5 211.5 73.5c16 0 32.667 -0.666992 50 -2s35.833 -3.5 55.5 -6.5s41.167 -7.16699 64.5 -12.5s49.666 -12 78.999 -20v-431
c0 -50.667 -7 -94.667 -21 -132s-34.167 -68.166 -60.5 -92.499s-58.166 -42.5 -95.499 -54.5s-79 -18 -125 -18zM290.999 154.998c13.333 0 24.499 2.5 33.499 7.5s16.167 13.5 21.5 25.5s9 28 11 48s3 45.333 3 76v95c-12.667 7.33301 -30.667 11 -54 11
c-16 0 -29 -1.83301 -39 -5.5s-17.667 -10.667 -23 -21s-9 -24.666 -11 -42.999s-3 -42.5 -3 -72.5c0 -24.667 0.666992 -44.834 2 -60.501s4.33301 -28 9 -37s10.834 -15.167 18.501 -18.5s18.167 -5 31.5 -5zM312.998 609.998c-68.667 0 -119.333 15.168 -152 45.501
s-50.334 73.166 -53.001 128.499h132c0.666992 -25.333 6.5 -44.166 17.5 -56.499s29.5 -18.5 55.5 -18.5s44.333 6.16699 55 18.5s16.667 31.166 18 56.499h132c-3.33301 -56 -21.166 -99 -53.499 -129s-82.833 -45 -151.5 -45z" />
    <glyph glyph-name="Gdotaccent" unicode="&#x120;" horiz-adv-x="640" 
d="M354 797c-38 0 -65.333 8.16895 -82 24.502s-25 43.166 -25 80.499c0 36.667 8.33301 63 25 79s44 24 82 24s65.5 -8.16699 82.5 -24.5s25.5 -42.5 25.5 -78.5c0 -36.667 -8.5 -63.334 -25.5 -80.001s-44.5 -25 -82.5 -25zM361 -10.998
c-113.333 0 -197.331 31.502 -251.998 94.502s-82 158.5 -82 286.5c0 126.667 31 221.834 93 285.501s155.333 95.5 280 95.5c30.667 0 62.167 -2 94.5 -6s63.833 -10 94.5 -18v-161c-37.333 6.66699 -69.833 11.5 -97.5 14.5s-51.834 4.5 -72.501 4.5
c-36 0 -65.667 -3.33301 -89 -10s-41.833 -18.334 -55.5 -35.001s-23.334 -38.834 -29.001 -66.501s-8.5 -62.5 -8.5 -104.5c0 -42.667 2.16699 -77.834 6.5 -105.501s12 -49.5 23 -65.5s25.833 -27 44.5 -33s42.667 -9 72 -9h16.5c5.66699 0 11.5 0.333008 17.5 1v219h185
v-361c-50 -8.66699 -94.667 -15.167 -134 -19.5s-75 -6.5 -107 -6.5z" />
    <glyph glyph-name="gdotaccent" unicode="&#x121;" horiz-adv-x="604" 
d="M258 -220c-32 0 -65.168 1.83105 -99.501 5.49805s-66.5 9.16699 -96.5 16.5l12 143c28 -5.33301 55.333 -9.66602 82 -12.999s51.667 -5 75 -5c45.333 0 79.5 8.83301 102.5 26.5s34.5 48.834 34.5 93.501v41h-6c-15.333 -22.667 -35 -39.334 -59 -50.001
s-51 -16 -81 -16c-65.333 0 -114.166 19 -146.499 57s-48.5 96.333 -48.5 175c0 98.667 24.167 172.5 72.5 221.5s118.833 73.5 211.5 73.5c16 0 32.667 -0.666992 50 -2s35.833 -3.5 55.5 -6.5s41.167 -7.16699 64.5 -12.5s49.666 -12 78.999 -20v-431
c0 -50.667 -7 -94.667 -21 -132s-34.167 -68.166 -60.5 -92.499s-58.166 -42.5 -95.499 -54.5s-79 -18 -125 -18zM290.999 154.998c13.333 0 24.499 2.5 33.499 7.5s16.167 13.5 21.5 25.5s9 28 11 48s3 45.333 3 76v95c-12.667 7.33301 -30.667 11 -54 11
c-16 0 -29 -1.83301 -39 -5.5s-17.667 -10.667 -23 -21s-9 -24.666 -11 -42.999s-3 -42.5 -3 -72.5c0 -24.667 0.666992 -44.834 2 -60.501s4.33301 -28 9 -37s10.834 -15.167 18.501 -18.5s18.167 -5 31.5 -5zM313.998 596.998c-38.667 0 -66.167 8.16895 -82.5 24.502
s-24.5 43.166 -24.5 80.499c0 36.667 8.16699 63 24.5 79s43.833 24 82.5 24c38 0 65.5 -8.16699 82.5 -24.5s25.5 -42.5 25.5 -78.5c0 -36.667 -8.5 -63.334 -25.5 -80.001s-44.5 -25 -82.5 -25z" />
    <glyph glyph-name="Gcommaaccent" unicode="&#x122;" horiz-adv-x="640" 
d="M256 -70h205l-97 -150h-148zM361 -11c-113.333 0 -197.331 31.502 -251.998 94.502s-82 158.5 -82 286.5c0 126.667 31 221.834 93 285.501s155.333 95.5 280 95.5c30.667 0 62.167 -2 94.5 -6s63.833 -10 94.5 -18v-161c-37.333 6.66699 -69.833 11.5 -97.5 14.5
s-51.834 4.5 -72.501 4.5c-36 0 -65.667 -3.33301 -89 -10s-41.833 -18.334 -55.5 -35.001s-23.334 -38.834 -29.001 -66.501s-8.5 -62.5 -8.5 -104.5c0 -42.667 2.16699 -77.834 6.5 -105.501s12 -49.5 23 -65.5s25.833 -27 44.5 -33s42.667 -9 72 -9h16.5
c5.66699 0 11.5 0.333008 17.5 1v219h185v-361c-50 -8.66699 -94.667 -15.167 -134 -19.5s-75 -6.5 -107 -6.5z" />
    <glyph glyph-name="gcommaaccent" unicode="&#x123;" horiz-adv-x="604" 
d="M467 770l-40 -150h-205l97 150h148zM258 -220c-32 0 -65.168 1.83105 -99.501 5.49805s-66.5 9.16699 -96.5 16.5l12 143c28 -5.33301 55.333 -9.66602 82 -12.999s51.667 -5 75 -5c45.333 0 79.5 8.83301 102.5 26.5s34.5 48.834 34.5 93.501v41h-6
c-15.333 -22.667 -35 -39.334 -59 -50.001s-51 -16 -81 -16c-65.333 0 -114.166 19 -146.499 57s-48.5 96.333 -48.5 175c0 98.667 24.167 172.5 72.5 221.5s118.833 73.5 211.5 73.5c16 0 32.667 -0.666992 50 -2s35.833 -3.5 55.5 -6.5s41.167 -7.16699 64.5 -12.5
s49.666 -12 78.999 -20v-431c0 -50.667 -7 -94.667 -21 -132s-34.167 -68.166 -60.5 -92.499s-58.166 -42.5 -95.499 -54.5s-79 -18 -125 -18zM290.999 154.998c13.333 0 24.499 2.5 33.499 7.5s16.167 13.5 21.5 25.5s9 28 11 48s3 45.333 3 76v95
c-12.667 7.33301 -30.667 11 -54 11c-16 0 -29 -1.83301 -39 -5.5s-17.667 -10.667 -23 -21s-9 -24.666 -11 -42.999s-3 -42.5 -3 -72.5c0 -24.667 0.666992 -44.834 2 -60.501s4.33301 -28 9 -37s10.834 -15.167 18.501 -18.5s18.167 -5 31.5 -5z" />
    <glyph glyph-name="Hcircumflex" unicode="&#x124;" horiz-adv-x="742" 
d="M54 740h205v-279h224v279h205v-740h-205v296h-224v-296h-205v740zM185 919l187 74l187 -74v-130l-187 73l-187 -73v130z" />
    <glyph glyph-name="hcircumflex" unicode="&#x125;" horiz-adv-x="602" 
d="M126 947l187 74l187 -74v-130l-187 73l-187 -73v130zM45 808h200v-318c20 11.333 38 20.833 54 28.5s30.833 13.834 44.5 18.501s26.834 8 39.501 10s25.667 3 39 3c41.333 0 74.5 -13.5 99.5 -40.5s37.5 -62.5 37.5 -106.5v-403h-200v332c0 34.667 -13.333 52 -40 52
c-8.66699 0 -19.334 -1.83301 -32.001 -5.5s-26.667 -8.83398 -42 -15.501v-363h-200v808z" />
    <glyph glyph-name="Hbar" unicode="&#x126;" horiz-adv-x="765" 
d="M0 627h63v113h205v-113h224v113h205v-113h74v-91h-74v-536h-205v296h-224v-296h-205v536h-63v91zM492 461v75h-224v-75h224z" />
    <glyph glyph-name="hbar" unicode="&#x127;" horiz-adv-x="603" 
d="M-27 734h73v74h200v-74h126v-118h-126v-126c20 11.333 38 20.833 54 28.5s30.833 13.834 44.5 18.501s26.834 8 39.501 10s25.667 3 39 3c41.333 0 74.5 -13.5 99.5 -40.5s37.5 -62.5 37.5 -106.5v-403h-200v332c0 34.667 -13.333 52 -40 52
c-8.66699 0 -19.334 -1.83301 -32.001 -5.5s-26.667 -8.83398 -42 -15.501v-363h-200v616h-73v118z" />
    <glyph glyph-name="Itilde" unicode="&#x128;" horiz-adv-x="313" 
d="M54 740h205v-740h-205v740zM-53 840c22.667 46 48.001 80.333 76.001 103s55.667 34 83 34c14.667 0 29.167 -2 43.5 -6s28.666 -8.33301 42.999 -13s28.833 -9 43.5 -13s29.334 -6 44.001 -6c14 0 27.5 2.5 40.5 7.5s28.167 15.167 45.5 30.5l23 -26
c-22.667 -46 -48 -80.167 -76 -102.5s-55.333 -33.5 -82 -33.5c-14.667 0 -29.334 2 -44.001 6l-44 12.5l-43.5 12.5c-14.333 4 -28.833 6 -43.5 6s-28.5 -2.5 -41.5 -7.5s-27.833 -14.833 -44.5 -29.5z" />
    <glyph glyph-name="itilde" unicode="&#x129;" horiz-adv-x="293" 
d="M-55 659c21.333 42.667 45.832 74.167 73.499 94.5s54.5 30.5 80.5 30.5c14 0 28.167 -2.66699 42.5 -8s28.5 -11.333 42.5 -18s28 -12.667 42 -18s28.333 -8 43 -8c11.333 0 22.833 2.83301 34.5 8.5s24.834 16.5 39.501 32.5l31 -40c-22 -44 -46.667 -76 -74 -96
s-54 -30 -80 -30c-14 0 -28.167 2.66699 -42.5 8s-28.5 11.333 -42.5 18s-28.167 12.667 -42.5 18s-28.5 8 -42.5 8c-12 0 -23.833 -2.66699 -35.5 -8s-24.5 -16 -38.5 -32zM45.999 540h200v-540h-200v540z" />
    <glyph glyph-name="Imacron" unicode="&#x12a;" horiz-adv-x="313" 
d="M54 740h205v-740h-205v740zM-29 968h374v-130h-374v130z" />
    <glyph glyph-name="imacron" unicode="&#x12b;" horiz-adv-x="293" 
d="M46 540h200v-540h-200v540zM-36 746h374v-122h-374v122z" />
    <glyph glyph-name="Ibreve" unicode="&#x12c;" horiz-adv-x="313" 
d="M54 740h205v-740h-205v740zM156 795c-35.333 0 -66 4.5 -92 13.5s-47.333 21.667 -64 38s-29 36.166 -37 59.499s-12 49.333 -12 78h132c0 -36 4.83301 -61.333 14.5 -76s29.167 -22 58.5 -22s48.833 7.33301 58.5 22s14.5 40 14.5 76h133
c0 -57.333 -16.667 -103.166 -50 -137.499s-85.333 -51.5 -156 -51.5z" />
    <glyph glyph-name="ibreve" unicode="&#x12d;" horiz-adv-x="293" 
d="M152 610c-62 0 -108.001 15.168 -138.001 45.501s-46.667 73.166 -50 128.499h123c0 -25.333 5 -44.166 15 -56.499s26.667 -18.5 50 -18.5s39.833 6.16699 49.5 18.5s14.834 31.166 15.501 56.499h122c-3.33301 -56 -19.833 -99 -49.5 -129s-75.5 -45 -137.5 -45z
M45.999 540.001h200v-540h-200v540z" />
    <glyph glyph-name="Iogonek" unicode="&#x12e;" horiz-adv-x="313" 
d="M54 740l205.002 0.00195312v-745c-22 -8.66699 -40.167 -17.167 -54.5 -25.5s-25.833 -16.333 -34.5 -24s-14.834 -14.834 -18.501 -21.501s-5.5 -12.334 -5.5 -17.001c0 -6.66699 3 -11.334 9 -14.001s14 -4 24 -4c11.333 0 24.666 1.5 39.999 4.5s29 6.16699 41 9.5
v-111c-17.333 -3.33301 -33.333 -6.16602 -48 -8.49902s-30.667 -3.5 -48 -3.5c-96 0 -144 34 -144 102c0 21.333 5.83301 41.5 17.5 60.5s30.5 38.167 56.5 57.5h-40v740z" />
    <glyph glyph-name="iogonek" unicode="&#x12f;" horiz-adv-x="291" 
d="M45 540l200.002 0.00195312v-545c-22 -8.66699 -40.167 -17.167 -54.5 -25.5s-25.833 -16.333 -34.5 -24s-14.834 -14.834 -18.501 -21.501s-5.5 -12.334 -5.5 -17.001c0 -6.66699 3 -11.334 9 -14.001s14 -4 24 -4c11.333 0 24.666 1.5 39.999 4.5s29 6.16699 41 9.5
v-111c-17.333 -3.33301 -33.333 -6.16602 -48 -8.49902s-30.667 -3.5 -48 -3.5c-96 0 -144 34 -144 102c0 21.333 5.83301 41.5 17.5 60.5s30.5 38.167 56.5 57.5h-35v540zM145.002 597.002c-38 0 -65.1689 8.16895 -81.502 24.502s-24.5 43.166 -24.5 80.499
c0 36.667 8.16699 63 24.5 79s43.5 24 81.5 24c38.667 0 66.334 -8.16699 83.001 -24.5s25 -42.5 25 -78.5c0 -36.667 -8.16699 -63.334 -24.5 -80.001s-44.166 -25 -83.499 -25z" />
    <glyph glyph-name="Idotaccent" unicode="&#x130;" horiz-adv-x="313" 
d="M54 740h205v-740h-205v740zM157 797c-38 0 -65.333 8.16895 -82 24.502s-25 43.166 -25 80.499c0 36.667 8.33301 63 25 79s44 24 82 24s65.5 -8.16699 82.5 -24.5s25.5 -42.5 25.5 -78.5c0 -36.667 -8.5 -63.334 -25.5 -80.001s-44.5 -25 -82.5 -25z" />
    <glyph glyph-name="dotlessi" unicode="&#x131;" horiz-adv-x="291" 
d="M45 540h200v-540h-200v540z" />
    <glyph glyph-name="IJ" unicode="&#x132;" horiz-adv-x="626" 
d="M54 740h205v-740h-205v740zM294 -159c14.667 33.333 26.832 64.1699 36.499 92.5029s17.334 56.166 23.001 83.499s9.66699 55.666 12 84.999s3.5 61.666 3.5 96.999v541h206v-559c0 -35.333 -2.66699 -68.5 -8 -99.5s-14 -62.167 -26 -93.5s-27.667 -63.5 -47 -96.5
s-43 -68.833 -71 -107.5z" />
    <glyph glyph-name="ij" unicode="&#x133;" horiz-adv-x="581" 
d="M145 597c-38 0 -65.1689 8.16895 -81.502 24.502s-24.5 43.166 -24.5 80.499c0 36.667 8.16699 63 24.5 79s43.5 24 81.5 24c38.667 0 66.334 -8.16699 83.001 -24.5s25 -42.5 25 -78.5c0 -36.667 -8.16699 -63.334 -24.5 -80.001s-44.166 -25 -83.499 -25z
M44.998 540.002h200v-540h-200v540zM436.998 597.002c-38 0 -65.333 8.16895 -82 24.502s-25 43.166 -25 80.499c0 36.667 8.16699 63 24.5 79s43.833 24 82.5 24c38 0 65.333 -8.16699 82 -24.5s25 -42.5 25 -78.5c0 -36.667 -8.16699 -63.334 -24.5 -80.001
s-43.833 -25 -82.5 -25zM302.998 -187.996c11.333 43.333 20 91.332 26 143.999s9 111.334 9 176.001v33v70v89v92c0 29.333 -0.166992 55.166 -0.5 77.499s-0.5 37.833 -0.5 46.5h200v-470c-1.33301 -23.333 -4.5 -47.666 -9.5 -72.999s-11.667 -50.833 -20 -76.5
s-18 -50.5 -29 -74.5s-22.833 -46 -35.5 -66z" />
    <glyph glyph-name="Jcircumflex" unicode="&#x134;" horiz-adv-x="313" 
d="M-19 -159c14.667 33.333 26.832 64.1699 36.499 92.5029s17.334 56.166 23.001 83.499s9.66699 55.666 12 84.999s3.5 61.666 3.5 96.999v541h206v-559c0 -35.333 -2.66699 -68.5 -8 -99.5s-14 -62.167 -26 -93.5s-27.667 -63.5 -47 -96.5s-43 -68.833 -71 -107.5z
M-25.002 919.004l187 74l187 -74v-130l-187 73l-187 -73v130z" />
    <glyph glyph-name="jcircumflex" unicode="&#x135;" horiz-adv-x="289" 
d="M-33 734l182 74l182 -74v-130l-182 73l-182 -73v130zM7 -199c8 32 14.668 61.168 20.001 87.501s9.5 53.666 12.5 81.999s5.16699 59.833 6.5 94.5s2 76.334 2 125.001v53c0 18.667 -0.333008 41.167 -1 67.5s-1.33398 57.833 -2.00098 94.5
s-1.33398 81.667 -2.00098 135h200v-472c-5.33301 -50 -15.166 -98.333 -29.499 -145s-34.5 -94.334 -60.5 -143.001z" />
    <glyph glyph-name="Kcommaaccent" unicode="&#x136;" horiz-adv-x="683" 
d="M241 -70h205l-97 -150h-148zM54 740h205v-281h73l117 281h226l-153 -329l-62 -27v-8l63 -28l172 -348h-227l-137 293h-72v-293h-205v740z" />
    <glyph glyph-name="kcommaaccent" unicode="&#x137;" horiz-adv-x="586" 
d="M206 -70h205l-97 -150h-148zM45 808h200v-461h29l95 193h216l-150 -250l-28 -9v-4l28 -9l168 -268h-217l-112 210h-29v-210h-200v808z" />
    <glyph glyph-name="kgreenlandic" unicode="&#x138;" horiz-adv-x="576" 
d="M46 540h200v-193h17l95 193h216l-151 -253l-27 -6v-4l27 -6l169 -271h-217l-112 210h-17v-210h-200v540z" />
    <glyph glyph-name="Lacute" unicode="&#x139;" horiz-adv-x="521" 
d="M84 804l64 189h204l-125 -199zM54 740h205v-575h250v-165h-455v740z" />
    <glyph glyph-name="lacute" unicode="&#x13a;" horiz-adv-x="291" 
d="M70 841l63 189h205l-125 -199zM45 808h200v-808h-200v808z" />
    <glyph glyph-name="Lcommaaccent" unicode="&#x13b;" horiz-adv-x="521" 
d="M175 -70h205l-97 -150h-148zM54 740h205v-575h250v-165h-455v740z" />
    <glyph glyph-name="lcommaaccent" unicode="&#x13c;" horiz-adv-x="291" 
d="M45 -70h205l-97 -150h-148zM45 808h200v-808h-200v808z" />
    <glyph glyph-name="Lcaron" unicode="&#x13d;" horiz-adv-x="559" 
d="M406 808h156l-49 -228h-107v228zM54 740h205v-575h250v-165h-455v740z" />
    <glyph glyph-name="lcaron" unicode="&#x13e;" horiz-adv-x="292" 
d="M284 808h156l-49 -228h-107v228zM45 808h200v-808h-200v808z" />
    <glyph glyph-name="Ldot" unicode="&#x13f;" horiz-adv-x="542" 
d="M54 740h205v-575h250v-165h-455v740zM432 275c-38 0 -65.333 8.16699 -82 24.5s-25 42.833 -25 79.5s8.33301 63.334 25 80.001s44 25 82 25s65.5 -8.33301 82.5 -25s25.5 -43.334 25.5 -80.001s-8.5 -63.167 -25.5 -79.5s-44.5 -24.5 -82.5 -24.5z" />
    <glyph glyph-name="ldot" unicode="&#x140;" horiz-adv-x="477" 
d="M45 808h200v-808h-200v808zM384 266c-38 0 -65.333 8.16699 -82 24.5s-25 42.833 -25 79.5s8.33301 63.334 25 80.001s44 25 82 25s65.5 -8.33301 82.5 -25s25.5 -43.334 25.5 -80.001s-8.5 -63.167 -25.5 -79.5s-44.5 -24.5 -82.5 -24.5z" />
    <glyph glyph-name="Lslash" unicode="&#x141;" horiz-adv-x="537" 
d="M7 370l63 32v338h205v-234l109 55v-144l-109 -55v-197h250v-165h-455v258l-63 -32v144z" />
    <glyph glyph-name="lslash" unicode="&#x142;" horiz-adv-x="398" 
d="M15 380l84 43v385h200v-283l90 46v-144l-90 -46v-381h-200v279l-84 -43v144z" />
    <glyph glyph-name="Nacute" unicode="&#x143;" horiz-adv-x="737" 
d="M273 804l64 189h204l-125 -199zM54 740h165l231 -323l44 -79h11v402h179v-740h-165l-229 323l-47 82h-11v-405h-178v740z" />
    <glyph glyph-name="nacute" unicode="&#x144;" horiz-adv-x="602" 
d="M233 619l63 189h205l-125 -199zM46 540h167.998l10 -59h6c22.667 13.333 42.834 24.5 60.501 33.5s33.834 16.167 48.501 21.5s28.667 9 42 11s27.333 3 42 3c40.667 0 73.5 -13.5 98.5 -40.5s37.5 -62.5 37.5 -106.5v-403h-200v332c0 18.667 -3.5 32 -10.5 40
s-16.833 12 -29.5 12c-10 0 -21.5 -2 -34.5 -6s-25.833 -9 -38.5 -15v-363h-200v540z" />
    <glyph glyph-name="Ncommaaccent" unicode="&#x145;" horiz-adv-x="737" 
d="M274 -70h205l-97 -150h-148zM54 740h165l231 -323l44 -79h11v402h179v-740h-165l-229 323l-47 82h-11v-405h-178v740z" />
    <glyph glyph-name="ncommaaccent" unicode="&#x146;" horiz-adv-x="602" 
d="M205 -70h205l-97 -150h-148zM46 540h167.998l10 -59h6c22.667 13.333 42.834 24.5 60.501 33.5s33.834 16.167 48.501 21.5s28.667 9 42 11s27.333 3 42 3c40.667 0 73.5 -13.5 98.5 -40.5s37.5 -62.5 37.5 -106.5v-403h-200v332c0 18.667 -3.5 32 -10.5 40
s-16.833 12 -29.5 12c-10 0 -21.5 -2 -34.5 -6s-25.833 -9 -38.5 -15v-363h-200v540z" />
    <glyph glyph-name="Ncaron" unicode="&#x147;" horiz-adv-x="737" 
d="M180 993l187 -74l187 74v-131l-187 -73l-187 73v131zM54 740h165l231 -323l44 -79h11v402h179v-740h-165l-229 323l-47 82h-11v-405h-178v740z" />
    <glyph glyph-name="ncaron" unicode="&#x148;" horiz-adv-x="602" 
d="M114 808l187 -74l187 74v-131l-187 -73l-187 73v131zM46 540h167.998l10 -59h6c22.667 13.333 42.834 24.5 60.501 33.5s33.834 16.167 48.501 21.5s28.667 9 42 11s27.333 3 42 3c40.667 0 73.5 -13.5 98.5 -40.5s37.5 -62.5 37.5 -106.5v-403h-200v332
c0 18.667 -3.5 32 -10.5 40s-16.833 12 -29.5 12c-10 0 -21.5 -2 -34.5 -6s-25.833 -9 -38.5 -15v-363h-200v540z" />
    <glyph glyph-name="napostrophe" unicode="&#x149;" horiz-adv-x="693" 
d="M168 808v-4l-49 -224h-107v228h156zM137 540h167.998l10 -59h6c22.667 13.333 42.834 24.5 60.501 33.5s33.834 16.167 48.501 21.5s28.667 9 42 11s27.333 3 42 3c40.667 0 73.5 -13.5 98.5 -40.5s37.5 -62.5 37.5 -106.5v-403h-200v332c0 18.667 -3.5 32 -10.5 40
s-16.833 12 -29.5 12c-10 0 -21.5 -2 -34.5 -6s-25.833 -9 -38.5 -15v-363h-200v540z" />
    <glyph glyph-name="Eng" unicode="&#x14a;" horiz-adv-x="735" 
d="M416 -171c16.667 44 29.668 85.168 39.001 123.501s16 76.5 20 114.5l-184 256l-45 84h-11v-407h-181v740h163l231 -323l43 -82h11v405h182v-607c0 -20 -3.5 -43.833 -10.5 -71.5s-16.667 -57 -29 -88s-26.833 -62.833 -43.5 -95.5s-34.334 -63.334 -53.001 -92.001z" />
    <glyph glyph-name="eng" unicode="&#x14b;" horiz-adv-x="601" 
d="M318 -199c12.667 44.667 22.668 93.001 30.001 145.001s11 106 11 162v209c0 21.333 -2.83301 36.333 -8.5 45s-15.834 13 -30.501 13c-22.667 0 -47.334 -5.66699 -74.001 -17v-358h-200v540h168l10 -58h4c22.667 13.333 42.834 24.333 60.501 33s34 15.667 49 21
s29.333 9 43 11s27.834 3 42.501 3c40.667 0 73.5 -13.5 98.5 -40.5s37.5 -62.5 37.5 -106.5v-334c-1.33301 -22.667 -4.33301 -46.834 -9 -72.501s-10.834 -51.167 -18.501 -76.5s-16.667 -50 -27 -74s-21.5 -46 -33.5 -66z" />
    <glyph glyph-name="Omacron" unicode="&#x14c;" horiz-adv-x="733" 
d="M179 968h374v-130h-374v130zM366 -10c-225.333 0 -338 126.334 -338 379.001c0 254 112.667 381 338 381c114 0 199 -31.333 255 -94s84 -158.334 84 -287.001c0 -128 -28 -223.167 -84 -285.5s-141 -93.5 -255 -93.5zM366 155.001
c24.667 0 45.334 3.33008 62.001 9.99707s30 18.167 40 34.5s17 38.333 21 66s6 62.167 6 103.5c0 42 -2 76.833 -6 104.5s-11 49.834 -21 66.501s-23.333 28.334 -40 35.001s-37.334 10 -62.001 10c-24 0 -44.167 -3.5 -60.5 -10.5s-29.5 -18.833 -39.5 -35.5
s-17.167 -38.834 -21.5 -66.501s-6.5 -62.167 -6.5 -103.5s2 -75.666 6 -102.999s11 -49.166 21 -65.499s23.167 -28 39.5 -35s36.833 -10.5 61.5 -10.5z" />
    <glyph glyph-name="omacron" unicode="&#x14d;" horiz-adv-x="593" 
d="M113 746h374v-122h-374v122zM297 -11c-89.333 0 -157 23.833 -203 71.5s-69 117.5 -69 209.5s23 161.667 69 209s113.667 71 203 71s156.833 -23.5 202.5 -70.5s68.5 -116.833 68.5 -209.5c0 -92 -22.833 -161.833 -68.5 -209.5s-113.167 -71.5 -202.5 -71.5zM297 139
c14.667 0 26.667 1.5 36 4.5s16.5 9.33301 21.5 19s8.5 23 10.5 40s3 39.5 3 67.5s-1 50.5 -3 67.5s-5.5 30.167 -10.5 39.5s-12.167 15.5 -21.5 18.5s-21.333 4.5 -36 4.5c-15.333 0 -27.666 -1.5 -36.999 -4.5s-16.666 -9.16699 -21.999 -18.5s-8.83301 -22.5 -10.5 -39.5
s-2.5 -39.5 -2.5 -67.5s0.833008 -50.5 2.5 -67.5s5.16699 -30.333 10.5 -40s12.666 -16 21.999 -19s21.666 -4.5 36.999 -4.5z" />
    <glyph glyph-name="Obreve" unicode="&#x14e;" horiz-adv-x="733" 
d="M365 795c-35.333 0 -66 4.5 -92 13.5s-47.333 21.667 -64 38s-29 36.166 -37 59.499s-12 49.333 -12 78h132c0 -36 4.83301 -61.333 14.5 -76s29.167 -22 58.5 -22s48.833 7.33301 58.5 22s14.5 40 14.5 76h133c0 -57.333 -16.667 -103.166 -50 -137.499
s-85.333 -51.5 -156 -51.5zM366 -10c-225.333 0 -338 126.334 -338 379.001c0 254 112.667 381 338 381c114 0 199 -31.333 255 -94s84 -158.334 84 -287.001c0 -128 -28 -223.167 -84 -285.5s-141 -93.5 -255 -93.5zM366 155.001c24.667 0 45.334 3.33008 62.001 9.99707
s30 18.167 40 34.5s17 38.333 21 66s6 62.167 6 103.5c0 42 -2 76.833 -6 104.5s-11 49.834 -21 66.501s-23.333 28.334 -40 35.001s-37.334 10 -62.001 10c-24 0 -44.167 -3.5 -60.5 -10.5s-29.5 -18.833 -39.5 -35.5s-17.167 -38.834 -21.5 -66.501
s-6.5 -62.167 -6.5 -103.5s2 -75.666 6 -102.999s11 -49.166 21 -65.499s23.167 -28 39.5 -35s36.833 -10.5 61.5 -10.5z" />
    <glyph glyph-name="obreve" unicode="&#x14f;" horiz-adv-x="593" 
d="M297 -11c-89.333 0 -157 23.833 -203 71.5s-69 117.5 -69 209.5s23 161.667 69 209s113.667 71 203 71s156.833 -23.5 202.5 -70.5s68.5 -116.833 68.5 -209.5c0 -92 -22.833 -161.833 -68.5 -209.5s-113.167 -71.5 -202.5 -71.5zM297 139c14.667 0 26.667 1.5 36 4.5
s16.5 9.33301 21.5 19s8.5 23 10.5 40s3 39.5 3 67.5s-1 50.5 -3 67.5s-5.5 30.167 -10.5 39.5s-12.167 15.5 -21.5 18.5s-21.333 4.5 -36 4.5c-15.333 0 -27.666 -1.5 -36.999 -4.5s-16.666 -9.16699 -21.999 -18.5s-8.83301 -22.5 -10.5 -39.5s-2.5 -39.5 -2.5 -67.5
s0.833008 -50.5 2.5 -67.5s5.16699 -30.333 10.5 -40s12.666 -16 21.999 -19s21.666 -4.5 36.999 -4.5zM301 610c-68.667 0 -119.333 15.168 -152 45.501s-50.334 73.166 -53.001 128.499h132c0.666992 -25.333 6.5 -44.166 17.5 -56.499s29.5 -18.5 55.5 -18.5
s44.333 6.16699 55 18.5s16.667 31.166 18 56.499h132c-3.33301 -56 -21.166 -99 -53.499 -129s-82.833 -45 -151.5 -45z" />
    <glyph glyph-name="Ohungarumlaut" unicode="&#x150;" horiz-adv-x="733" 
d="M366 -10c-225.333 0 -338 126.334 -338 379.001c0 254 112.667 381 338 381c114 0 199 -31.333 255 -94s84 -158.334 84 -287.001c0 -128 -28 -223.167 -84 -285.5s-141 -93.5 -255 -93.5zM366 155.001c24.667 0 45.334 3.33008 62.001 9.99707s30 18.167 40 34.5
s17 38.333 21 66s6 62.167 6 103.5c0 42 -2 76.833 -6 104.5s-11 49.834 -21 66.501s-23.333 28.334 -40 35.001s-37.334 10 -62.001 10c-24 0 -44.167 -3.5 -60.5 -10.5s-29.5 -18.833 -39.5 -35.5s-17.167 -38.834 -21.5 -66.501s-6.5 -62.167 -6.5 -103.5
s2 -75.666 6 -102.999s11 -49.166 21 -65.499s23.167 -28 39.5 -35s36.833 -10.5 61.5 -10.5zM189 803.998l63 189h176l-126 -199zM401 803.998l63 189h175l-125 -199z" />
    <glyph glyph-name="ohungarumlaut" unicode="&#x151;" horiz-adv-x="593" 
d="M128 619l63 189h176l-126 -199zM340 619l63 189h175l-125 -199zM297 -11c-89.333 0 -157 23.833 -203 71.5s-69 117.5 -69 209.5s23 161.667 69 209s113.667 71 203 71s156.833 -23.5 202.5 -70.5s68.5 -116.833 68.5 -209.5c0 -92 -22.833 -161.833 -68.5 -209.5
s-113.167 -71.5 -202.5 -71.5zM297 139c14.667 0 26.667 1.5 36 4.5s16.5 9.33301 21.5 19s8.5 23 10.5 40s3 39.5 3 67.5s-1 50.5 -3 67.5s-5.5 30.167 -10.5 39.5s-12.167 15.5 -21.5 18.5s-21.333 4.5 -36 4.5c-15.333 0 -27.666 -1.5 -36.999 -4.5
s-16.666 -9.16699 -21.999 -18.5s-8.83301 -22.5 -10.5 -39.5s-2.5 -39.5 -2.5 -67.5s0.833008 -50.5 2.5 -67.5s5.16699 -30.333 10.5 -40s12.666 -16 21.999 -19s21.666 -4.5 36.999 -4.5z" />
    <glyph glyph-name="OE" unicode="&#x152;" horiz-adv-x="1025" 
d="M378 -10c-112.667 0 -199.5 31.833 -260.5 95.5s-91.5 158.5 -91.5 284.5s30.667 220.833 92 284.5s148 95.5 260 95.5c22.667 0 43.334 -1 62.001 -3s37 -4.33301 55 -7h489v-165h-284v-120h267v-157h-267v-133h293v-165h-498c-18.667 -4 -37.334 -6.66699 -56.001 -8
s-39 -2 -61 -2zM399 158c17.333 0 33.666 0.333984 48.999 1.00098s31 2.66699 47 6v409c-17.333 3.33301 -33.666 5.5 -48.999 6.5s-31.666 1.5 -48.999 1.5c-32 0 -58.667 -3.33301 -80 -10s-38.166 -18.334 -50.499 -35.001s-21 -38.667 -26 -66s-7.5 -61.333 -7.5 -102
c0 -41.333 2.5 -75.5 7.5 -102.5s13.667 -48.5 26 -64.5s29.166 -27.333 50.499 -34s48.666 -10 81.999 -10z" />
    <glyph glyph-name="oe" unicode="&#x153;" horiz-adv-x="894" 
d="M638 -9c-70.667 0 -125.666 15.666 -164.999 46.999h-10c-42 -32.667 -97.333 -49 -166 -49c-89.333 0 -157 23.833 -203 71.5s-69 117.5 -69 209.5s23 161.667 69 209s113.667 71 203 71c70 0 125.333 -16.667 166 -50l10 1c40.667 32 96.334 48 167.001 48
c78 0 135.5 -20.667 172.5 -62s55.5 -106 55.5 -194c0 -19.333 -0.5 -35 -1.5 -47s-2.83301 -24 -5.5 -36h-292c1.33301 -15.333 3.66602 -27.666 6.99902 -36.999s8.16602 -16.5 14.499 -21.5s14.5 -8.33301 24.5 -10s22.333 -2.5 37 -2.5c23.333 0 52.666 2.5 87.999 7.5
s70 11.167 104 18.5l5 -143c-29.333 -9.33301 -63.166 -16.833 -101.499 -22.5s-74.833 -8.5 -109.5 -8.5zM297.001 138.999c14.667 0 26.667 1.5 36 4.5s16.5 9.33301 21.5 19s8.5 23 10.5 40s3 39.5 3 67.5s-1 50.5 -3 67.5s-5.5 30.167 -10.5 39.5
s-12.167 15.5 -21.5 18.5s-21.333 4.5 -36 4.5c-15.333 0 -27.666 -1.5 -36.999 -4.5s-16.666 -9.16699 -21.999 -18.5s-8.83301 -22.5 -10.5 -39.5s-2.5 -39.5 -2.5 -67.5s0.833008 -50.5 2.5 -67.5s5.16699 -30.333 10.5 -40s12.666 -16 21.999 -19
s21.666 -4.5 36.999 -4.5zM693.001 320.999c-1.33301 31.333 -6.33301 53.5 -15 66.5s-23.667 19.5 -45 19.5s-37 -6 -47 -18s-16 -34.667 -18 -68h125z" />
    <glyph glyph-name="Racute" unicode="&#x154;" horiz-adv-x="664" 
d="M54 735c33.333 5.33301 67.999 9.16699 103.999 11.5s73 3.5 111 3.5c64.667 0 120.167 -4.83301 166.5 -14.5s84.333 -25 114 -46s51.5 -47.833 65.5 -80.5s21 -72 21 -118c0 -103.333 -41.667 -175 -125 -215l155 -276h-218l-115 240
c-9.33301 -0.666992 -21.666 -1 -36.999 -1h-37v-239h-205v735zM306.999 395.001c23.333 0 42.8301 1.50195 58.4971 4.50195s28 8.16699 37 15.5s15.333 17.166 19 29.499s5.5 27.833 5.5 46.5s-1.83301 34.167 -5.5 46.5s-10.167 22.166 -19.5 29.499
s-21.666 12.5 -36.999 15.5s-35 4.5 -59 4.5c-5.33301 0 -13.166 -0.333008 -23.499 -1s-18.166 -1.33398 -23.499 -2.00098v-186c5.33301 -1.33301 12.333 -2.16602 21 -2.49902s17.667 -0.5 27 -0.5zM253.996 804.003l64 189h204l-125 -199z" />
    <glyph glyph-name="racute" unicode="&#x155;" horiz-adv-x="428" 
d="M155 619l63 189h205l-125 -199zM46 540h167.997l10 -84h7c4 6 11.333 13.333 22 22s22.834 17.5 36.501 26.5s27.834 17.5 42.501 25.5s28.334 14.333 41.001 19h46v-176h-77c-8.66699 -0.666992 -17.834 -2.5 -27.501 -5.5s-19 -6.5 -28 -10.5
s-17.167 -8.33301 -24.5 -13s-12.666 -9 -15.999 -13v-331h-200v540z" />
    <glyph glyph-name="Rcommaaccent" unicode="&#x156;" horiz-adv-x="664" 
d="M247 -70h205l-97 -150h-148zM54 735c33.333 5.33301 67.999 9.16699 103.999 11.5s73 3.5 111 3.5c64.667 0 120.167 -4.83301 166.5 -14.5s84.333 -25 114 -46s51.5 -47.833 65.5 -80.5s21 -72 21 -118c0 -103.333 -41.667 -175 -125 -215l155 -276h-218l-115 240
c-9.33301 -0.666992 -21.666 -1 -36.999 -1h-37v-239h-205v735zM306.999 395.001c23.333 0 42.8301 1.50195 58.4971 4.50195s28 8.16699 37 15.5s15.333 17.166 19 29.499s5.5 27.833 5.5 46.5s-1.83301 34.167 -5.5 46.5s-10.167 22.166 -19.5 29.499
s-21.666 12.5 -36.999 15.5s-35 4.5 -59 4.5c-5.33301 0 -13.166 -0.333008 -23.499 -1s-18.166 -1.33398 -23.499 -2.00098v-186c5.33301 -1.33301 12.333 -2.16602 21 -2.49902s17.667 -0.5 27 -0.5z" />
    <glyph glyph-name="rcommaaccent" unicode="&#x157;" horiz-adv-x="428" 
d="M43 -70h205l-97 -150h-148zM46 540h167.997l10 -84h7c4 6 11.333 13.333 22 22s22.834 17.5 36.501 26.5s27.834 17.5 42.501 25.5s28.334 14.333 41.001 19h46v-176h-77c-8.66699 -0.666992 -17.834 -2.5 -27.501 -5.5s-19 -6.5 -28 -10.5s-17.167 -8.33301 -24.5 -13
s-12.666 -9 -15.999 -13v-331h-200v540z" />
    <glyph glyph-name="Rcaron" unicode="&#x158;" horiz-adv-x="664" 
d="M154 993l187 -74l187 74v-131l-187 -73l-187 73v131zM54 735c33.333 5.33301 67.999 9.16699 103.999 11.5s73 3.5 111 3.5c64.667 0 120.167 -4.83301 166.5 -14.5s84.333 -25 114 -46s51.5 -47.833 65.5 -80.5s21 -72 21 -118c0 -103.333 -41.667 -175 -125 -215
l155 -276h-218l-115 240c-9.33301 -0.666992 -21.666 -1 -36.999 -1h-37v-239h-205v735zM306.999 395.001c23.333 0 42.8301 1.50195 58.4971 4.50195s28 8.16699 37 15.5s15.333 17.166 19 29.499s5.5 27.833 5.5 46.5s-1.83301 34.167 -5.5 46.5
s-10.167 22.166 -19.5 29.499s-21.666 12.5 -36.999 15.5s-35 4.5 -59 4.5c-5.33301 0 -13.166 -0.333008 -23.499 -1s-18.166 -1.33398 -23.499 -2.00098v-186c5.33301 -1.33301 12.333 -2.16602 21 -2.49902s17.667 -0.5 27 -0.5z" />
    <glyph glyph-name="rcaron" unicode="&#x159;" horiz-adv-x="428" 
d="M44 808l187 -74l187 74v-131l-187 -73l-187 73v131zM46 540h167.997l10 -84h7c4 6 11.333 13.333 22 22s22.834 17.5 36.501 26.5s27.834 17.5 42.501 25.5s28.334 14.333 41.001 19h46v-176h-77c-8.66699 -0.666992 -17.834 -2.5 -27.501 -5.5s-19 -6.5 -28 -10.5
s-17.167 -8.33301 -24.5 -13s-12.666 -9 -15.999 -13v-331h-200v540z" />
    <glyph glyph-name="Sacute" unicode="&#x15a;" horiz-adv-x="573" 
d="M278 -12c-38 0 -77.832 3.00098 -119.499 9.00098s-84.5 15.333 -128.5 28v169c34.667 -11.333 71.334 -20.833 110.001 -28.5s73.667 -11.5 105 -11.5c36 0 62 5 78 15s24 25.667 24 47c0 12 -2.83301 21.833 -8.5 29.5s-13.5 14.167 -23.5 19.5s-22 9.66602 -36 12.999
s-29.333 6.66602 -46 9.99902c-27.333 5.33301 -53 13 -77 23s-45 24.167 -63 42.5s-32.167 41.833 -42.5 70.5s-15.5 64.334 -15.5 107.001c0 68.667 24.333 122.167 73 160.5s116.667 57.5 204 57.5c32 0 64 -2.33301 96 -7s68.667 -12.334 110 -23.001v-162
c-14 4 -29.333 7.83301 -46 11.5s-33.334 6.83398 -50.001 9.50098s-32.834 4.83398 -48.501 6.50098s-29.5 2.5 -41.5 2.5c-59.333 0 -89 -18.333 -89 -55c0 -13.333 3.33301 -24.5 10 -33.5s16 -16.667 28 -23s26 -12 42 -17l52 -15.5c25.333 -7.33301 49 -16.333 71 -27
s41 -24.334 57 -41.001s28.667 -37 38 -61s14 -53 14 -87c0 -76 -24.167 -134.833 -72.5 -176.5s-116.5 -62.5 -204.5 -62.5zM206.001 804.001l64 189h204l-125 -199z" />
    <glyph glyph-name="sacute" unicode="&#x15b;" horiz-adv-x="490" 
d="M171 619l63 189h205l-125 -199zM224 -10c-30 0 -62.0029 2.50098 -96.0029 7.50098s-65.667 11.833 -95 20.5v141c28.667 -9.33301 59.334 -16.666 92.001 -21.999s63.667 -8 93 -8c21.333 0 36.666 2.16699 45.999 6.5s14 11.5 14 21.5
c0 9.33301 -4.66699 16.666 -14 21.999s-24.666 9 -45.999 11c-18 2 -37.833 4.66699 -59.5 8s-41.667 10.666 -60 21.999s-33.666 28.333 -45.999 51s-18.5 54 -18.5 94c0 59.333 18.667 105 56 137s90.333 48 159 48c28 0 58.833 -1.83301 92.5 -5.5
s67.5 -9.16699 101.5 -16.5l-5 -144c-36 8 -65.667 13.667 -89 17s-44.666 5 -63.999 5c-43.333 0 -65 -10.667 -65 -32c0 -10 4.66699 -17.667 14 -23s25.333 -9 48 -11c21.333 -2 43 -5.5 65 -10.5s42 -13.5 60 -25.5s32.667 -28.5 44 -49.5s17 -48.5 17 -82.5
c0 -59.333 -20.667 -104.5 -62 -135.5s-102 -46.5 -182 -46.5z" />
    <glyph glyph-name="Scircumflex" unicode="&#x15c;" horiz-adv-x="573" 
d="M278 -12c-38 0 -77.832 3.00098 -119.499 9.00098s-84.5 15.333 -128.5 28v169c34.667 -11.333 71.334 -20.833 110.001 -28.5s73.667 -11.5 105 -11.5c36 0 62 5 78 15s24 25.667 24 47c0 12 -2.83301 21.833 -8.5 29.5s-13.5 14.167 -23.5 19.5s-22 9.66602 -36 12.999
s-29.333 6.66602 -46 9.99902c-27.333 5.33301 -53 13 -77 23s-45 24.167 -63 42.5s-32.167 41.833 -42.5 70.5s-15.5 64.334 -15.5 107.001c0 68.667 24.333 122.167 73 160.5s116.667 57.5 204 57.5c32 0 64 -2.33301 96 -7s68.667 -12.334 110 -23.001v-162
c-14 4 -29.333 7.83301 -46 11.5s-33.334 6.83398 -50.001 9.50098s-32.834 4.83398 -48.501 6.50098s-29.5 2.5 -41.5 2.5c-59.333 0 -89 -18.333 -89 -55c0 -13.333 3.33301 -24.5 10 -33.5s16 -16.667 28 -23s26 -12 42 -17l52 -15.5c25.333 -7.33301 49 -16.333 71 -27
s41 -24.334 57 -41.001s28.667 -37 38 -61s14 -53 14 -87c0 -76 -24.167 -134.833 -72.5 -176.5s-116.5 -62.5 -204.5 -62.5zM102.001 919.001l187 74l187 -74v-130l-187 73l-187 -73v130z" />
    <glyph glyph-name="scircumflex" unicode="&#x15d;" horiz-adv-x="490" 
d="M71 734l187 74l187 -74v-130l-187 73l-187 -73v130zM224 -10c-30 0 -62.0029 2.50098 -96.0029 7.50098s-65.667 11.833 -95 20.5v141c28.667 -9.33301 59.334 -16.666 92.001 -21.999s63.667 -8 93 -8c21.333 0 36.666 2.16699 45.999 6.5s14 11.5 14 21.5
c0 9.33301 -4.66699 16.666 -14 21.999s-24.666 9 -45.999 11c-18 2 -37.833 4.66699 -59.5 8s-41.667 10.666 -60 21.999s-33.666 28.333 -45.999 51s-18.5 54 -18.5 94c0 59.333 18.667 105 56 137s90.333 48 159 48c28 0 58.833 -1.83301 92.5 -5.5
s67.5 -9.16699 101.5 -16.5l-5 -144c-36 8 -65.667 13.667 -89 17s-44.666 5 -63.999 5c-43.333 0 -65 -10.667 -65 -32c0 -10 4.66699 -17.667 14 -23s25.333 -9 48 -11c21.333 -2 43 -5.5 65 -10.5s42 -13.5 60 -25.5s32.667 -28.5 44 -49.5s17 -48.5 17 -82.5
c0 -59.333 -20.667 -104.5 -62 -135.5s-102 -46.5 -182 -46.5z" />
    <glyph glyph-name="uni015E" unicode="&#x15e;" horiz-adv-x="574" 
d="M271 -220c-12 0 -26.3301 0.998047 -42.9971 2.99805s-34.667 5 -54 9v113c14 -3.33301 27.5 -5.5 40.5 -6.5s22.167 -1.5 27.5 -1.5c11.333 0 19 2.5 23 7.5s6 10.167 6 15.5c0 8 -2.33301 17.833 -7 29.5s-11.334 24.834 -20.001 39.501
c-34 1.33301 -68.667 4.83301 -104 10.5s-72 14.167 -110 25.5v169c34.667 -11.333 71.334 -20.833 110.001 -28.5s73.667 -11.5 105 -11.5c36 0 62 5 78 15s24 25.667 24 47c0 12 -2.83301 21.833 -8.5 29.5s-13.5 14.167 -23.5 19.5s-22 9.66602 -36 12.999
s-29.333 6.66602 -46 9.99902c-27.333 5.33301 -53 13 -77 23s-45 24.167 -63 42.5s-32.167 41.833 -42.5 70.5s-15.5 64.334 -15.5 107.001c0 68.667 24.333 122.167 73 160.5s116.667 57.5 204 57.5c32 0 64 -2.33301 96 -7s68.667 -12.334 110 -23.001v-162
c-14 4 -29.333 7.83301 -46 11.5s-33.334 6.83398 -50.001 9.50098s-32.834 4.83398 -48.501 6.50098s-29.5 2.5 -41.5 2.5c-59.333 0 -89 -18.333 -89 -55c0 -13.333 3.33301 -24.5 10 -33.5s16 -16.667 28 -23s26 -12 42 -17l52 -15.5c25.333 -7.33301 49 -16.333 71 -27
s41 -24.334 57 -41.001s28.667 -37 38 -61s14 -53 14 -87c0 -63.333 -16.833 -114.833 -50.5 -154.5s-81.834 -65.167 -144.501 -76.5c13.333 -20 23 -38.167 29 -54.5s9 -34.166 9 -53.499c0 -33.333 -10.833 -59.666 -32.5 -78.999s-53.167 -29 -94.5 -29z" />
    <glyph glyph-name="uni015F" unicode="&#x15f;" horiz-adv-x="490" 
d="M222 -220c-12 0 -26.3359 0.999023 -43.0029 2.99902s-34.667 5 -54 9v113c14 -3.33301 27.5 -5.5 40.5 -6.5s22.167 -1.5 27.5 -1.5c11.333 0 19 2.5 23 7.5s6 10.167 6 15.5c0 16.667 -9.66699 40.334 -29 71.001c-26.667 1.33301 -54 4.33301 -82 9s-54 10.667 -78 18
v141c28.667 -9.33301 59.334 -16.666 92.001 -21.999s63.667 -8 93 -8c21.333 0 36.666 2.16699 45.999 6.5s14 11.5 14 21.5c0 9.33301 -4.66699 16.666 -14 21.999s-24.666 9 -45.999 11c-18 2 -37.833 4.66699 -59.5 8s-41.667 10.666 -60 21.999
s-33.666 28.333 -45.999 51s-18.5 54 -18.5 94c0 59.333 18.667 105 56 137s90.333 48 159 48c28 0 58.833 -1.83301 92.5 -5.5s67.5 -9.16699 101.5 -16.5l-5 -144c-36 8 -65.667 13.667 -89 17s-44.666 5 -63.999 5c-43.333 0 -65 -10.667 -65 -32
c0 -10 4.66699 -17.667 14 -23s25.333 -9 48 -11c21.333 -2 43 -5.5 65 -10.5s42 -13.5 60 -25.5s32.667 -28.5 44 -49.5s17 -48.5 17 -82.5c0 -48 -13.333 -86.667 -40 -116s-66 -48.666 -118 -57.999c14 -20.667 24 -39.334 30 -56.001s9 -34.667 9 -54
c0 -33.333 -10.833 -59.666 -32.5 -78.999s-53.167 -29 -94.5 -29z" />
    <glyph glyph-name="Scaron" unicode="&#x160;" horiz-adv-x="573" 
d="M278 -12c-38 0 -77.832 3.00098 -119.499 9.00098s-84.5 15.333 -128.5 28v169c34.667 -11.333 71.334 -20.833 110.001 -28.5s73.667 -11.5 105 -11.5c36 0 62 5 78 15s24 25.667 24 47c0 12 -2.83301 21.833 -8.5 29.5s-13.5 14.167 -23.5 19.5s-22 9.66602 -36 12.999
s-29.333 6.66602 -46 9.99902c-27.333 5.33301 -53 13 -77 23s-45 24.167 -63 42.5s-32.167 41.833 -42.5 70.5s-15.5 64.334 -15.5 107.001c0 68.667 24.333 122.167 73 160.5s116.667 57.5 204 57.5c32 0 64 -2.33301 96 -7s68.667 -12.334 110 -23.001v-162
c-14 4 -29.333 7.83301 -46 11.5s-33.334 6.83398 -50.001 9.50098s-32.834 4.83398 -48.501 6.50098s-29.5 2.5 -41.5 2.5c-59.333 0 -89 -18.333 -89 -55c0 -13.333 3.33301 -24.5 10 -33.5s16 -16.667 28 -23s26 -12 42 -17l52 -15.5c25.333 -7.33301 49 -16.333 71 -27
s41 -24.334 57 -41.001s28.667 -37 38 -61s14 -53 14 -87c0 -76 -24.167 -134.833 -72.5 -176.5s-116.5 -62.5 -204.5 -62.5zM108.001 993.001l187 -74l187 74v-131l-187 -73l-187 73v131z" />
    <glyph glyph-name="scaron" unicode="&#x161;" horiz-adv-x="490" 
d="M63 808l187 -74l187 74v-131l-187 -73l-187 73v131zM224 -10c-30 0 -62.0029 2.50098 -96.0029 7.50098s-65.667 11.833 -95 20.5v141c28.667 -9.33301 59.334 -16.666 92.001 -21.999s63.667 -8 93 -8c21.333 0 36.666 2.16699 45.999 6.5s14 11.5 14 21.5
c0 9.33301 -4.66699 16.666 -14 21.999s-24.666 9 -45.999 11c-18 2 -37.833 4.66699 -59.5 8s-41.667 10.666 -60 21.999s-33.666 28.333 -45.999 51s-18.5 54 -18.5 94c0 59.333 18.667 105 56 137s90.333 48 159 48c28 0 58.833 -1.83301 92.5 -5.5
s67.5 -9.16699 101.5 -16.5l-5 -144c-36 8 -65.667 13.667 -89 17s-44.666 5 -63.999 5c-43.333 0 -65 -10.667 -65 -32c0 -10 4.66699 -17.667 14 -23s25.333 -9 48 -11c21.333 -2 43 -5.5 65 -10.5s42 -13.5 60 -25.5s32.667 -28.5 44 -49.5s17 -48.5 17 -82.5
c0 -59.333 -20.667 -104.5 -62 -135.5s-102 -46.5 -182 -46.5z" />
    <glyph glyph-name="uni0162" unicode="&#x162;" horiz-adv-x="593" 
d="M194 572l-176 0.000976562v168h557v-168h-176v-572h-35c15.333 -21.333 26 -40.5 32 -57.5s9 -35.167 9 -54.5c0 -33.333 -10.833 -59.666 -32.5 -78.999s-53.167 -29 -94.5 -29c-12 0 -26.333 1 -43 3s-34.667 5 -54 9v113c14 -3.33301 27.5 -5.5 40.5 -6.5
s22.167 -1.5 27.5 -1.5c11.333 0 19 2.5 23 7.5s6 10.167 6 15.5c0 9.33301 -3 20.666 -9 33.999s-14.667 28.666 -26 45.999h-49v572z" />
    <glyph glyph-name="uni0163" unicode="&#x163;" horiz-adv-x="417" 
d="M202 -220c-12 0 -26.335 0.999023 -43.002 2.99902s-34.667 5 -54 9v113c14 -3.33301 27.5 -5.5 40.5 -6.5s22.167 -1.5 27.5 -1.5c11.333 0 19 2.5 23 7.5s6 10.167 6 15.5c0 11.333 -4.5 26 -13.5 44s-21.167 37.667 -36.5 59c-42 28 -63 73 -63 135v216h-77v166h89
l28 165l159 18v-183h103v-166h-102v-166c0 -27.333 4.16699 -45.833 12.5 -55.5s21.833 -14.5 40.5 -14.5c14 0 31 3 51 9v-144c-13.333 -3.33301 -28.666 -6.16602 -45.999 -8.49902s-34.666 -3.83301 -51.999 -4.5c12.667 -18.667 21.5 -35.834 26.5 -51.501
s7.5 -32.5 7.5 -50.5c0 -33.333 -10.833 -59.666 -32.5 -78.999s-53.167 -29 -94.5 -29z" />
    <glyph glyph-name="Tcaron" unicode="&#x164;" horiz-adv-x="593" 
d="M112 993l187 -74l187 74v-131l-187 -73l-187 73v131zM194 572h-176v168h557v-168h-176v-572h-205v572z" />
    <glyph glyph-name="tcaron" unicode="&#x165;" horiz-adv-x="417" 
d="M284 -10c-64 0 -112.5 14.332 -145.5 42.999s-49.5 70.334 -49.5 125.001v216h-77v166h89l28 165l159 18v-183h103v-166h-102v-166c0 -27.333 4.16699 -45.833 12.5 -55.5s21.833 -14.5 40.5 -14.5c14 0 31 3 51 9v-144c-14 -4 -30.833 -7.16699 -50.5 -9.5
s-39.167 -3.5 -58.5 -3.5zM337 807.999h156l-49 -228h-107v228z" />
    <glyph glyph-name="Tbar" unicode="&#x166;" horiz-adv-x="600" 
d="M74 423h124v149h-176v168h557v-168h-176v-149h112v-112h-112v-311h-205v311h-124v112z" />
    <glyph glyph-name="tbar" unicode="&#x167;" horiz-adv-x="418" 
d="M21 313l69 -0.000976562v61h-77v166h89l28 165l159 18v-183h103v-166h-102v-61h81v-111h-81c0.666992 -25.333 5.16699 -42.333 13.5 -51s21.5 -13 39.5 -13c14 0 31 3 51 9v-144c-14 -4 -30.833 -7.16699 -50.5 -9.5s-39.167 -3.5 -58.5 -3.5
c-64 0 -112.5 14.333 -145.5 43s-49.5 70.334 -49.5 125.001v44h-69v111z" />
    <glyph glyph-name="Utilde" unicode="&#x168;" horiz-adv-x="725" 
d="M147 840c22.667 46 48.001 80.333 76.001 103s55.667 34 83 34c14.667 0 29.167 -2 43.5 -6s28.666 -8.33301 42.999 -13s28.833 -9 43.5 -13s29.334 -6 44.001 -6c14 0 27.5 2.5 40.5 7.5s28.167 15.167 45.5 30.5l23 -26c-22.667 -46 -48 -80.167 -76 -102.5
s-55.333 -33.5 -82 -33.5c-14.667 0 -29.334 2 -44.001 6l-44 12.5l-43.5 12.5c-14.333 4 -28.833 6 -43.5 6s-28.5 -2.5 -41.5 -7.5s-27.833 -14.833 -44.5 -29.5zM363.001 -10c-58.667 0 -108.165 6.33398 -148.498 19.001s-72.833 31.5 -97.5 56.5
s-42.334 56.333 -53.001 94s-16 81.5 -16 131.5v449h205v-443c0 -49.333 8.33301 -84.833 25 -106.5s45 -32.5 85 -32.5c40.667 0 69 10.667 85 32s24 57 24 107v443h205v-449c0 -50.667 -5.33301 -94.834 -16 -132.501s-28.334 -69 -53.001 -94s-57 -43.667 -97 -56
s-89.333 -18.5 -148 -18.5z" />
    <glyph glyph-name="utilde" unicode="&#x169;" horiz-adv-x="601" 
d="M194 -10c-46 0 -82.833 13.499 -110.5 40.499s-41.5 62.5 -41.5 106.5v403h200v-337c0 -35.333 14.667 -53 44 -53c18.667 0 42 7 70 21v369h200v-540h-168l-11 56h-4c-21.333 -13.333 -39.5 -24.166 -54.5 -32.499s-29.167 -15 -42.5 -20s-26.333 -8.5 -39 -10.5
s-27 -3 -43 -3zM92 658.999c22 42.667 47.0039 74.167 75.0039 94.5s55.667 30.5 83 30.5c14.667 0 29.167 -2.66699 43.5 -8s28.666 -11.333 42.999 -18s28.833 -12.667 43.5 -18s29.667 -8 45 -8c12.667 0 24.834 2.83301 36.501 8.5s25.167 16.5 40.5 32.5l31 -40
c-22.667 -44 -47.834 -76 -75.501 -96s-55.167 -30 -82.5 -30c-14.667 0 -29.167 2.66699 -43.5 8s-28.833 11.333 -43.5 18s-29.334 12.667 -44.001 18s-29.334 8 -44.001 8c-13.333 0 -25.833 -2.66699 -37.5 -8s-24.834 -16 -39.501 -32z" />
    <glyph glyph-name="Umacron" unicode="&#x16a;" horiz-adv-x="725" 
d="M168 968h374v-130h-374v130zM363 -10c-58.667 0 -108.165 6.33398 -148.498 19.001s-72.833 31.5 -97.5 56.5s-42.334 56.333 -53.001 94s-16 81.5 -16 131.5v449h205v-443c0 -49.333 8.33301 -84.833 25 -106.5s45 -32.5 85 -32.5c40.667 0 69 10.667 85 32
s24 57 24 107v443h205v-449c0 -50.667 -5.33301 -94.834 -16 -132.501s-28.334 -69 -53.001 -94s-57 -43.667 -97 -56s-89.333 -18.5 -148 -18.5z" />
    <glyph glyph-name="umacron" unicode="&#x16b;" horiz-adv-x="601" 
d="M194 -10c-46 0 -82.833 13.499 -110.5 40.499s-41.5 62.5 -41.5 106.5v403h200v-337c0 -35.333 14.667 -53 44 -53c18.667 0 42 7 70 21v369h200v-540h-168l-11 56h-4c-21.333 -13.333 -39.5 -24.166 -54.5 -32.499s-29.167 -15 -42.5 -20s-26.333 -8.5 -39 -10.5
s-27 -3 -43 -3zM112 745.999h374v-122h-374v122z" />
    <glyph glyph-name="Ubreve" unicode="&#x16c;" horiz-adv-x="725" 
d="M356 795c-35.333 0 -66 4.5 -92 13.5s-47.333 21.667 -64 38s-29 36.166 -37 59.499s-12 49.333 -12 78h132c0 -36 4.83301 -61.333 14.5 -76s29.167 -22 58.5 -22s48.833 7.33301 58.5 22s14.5 40 14.5 76h133c0 -57.333 -16.667 -103.166 -50 -137.499
s-85.333 -51.5 -156 -51.5zM363 -10c-58.667 0 -108.165 6.33398 -148.498 19.001s-72.833 31.5 -97.5 56.5s-42.334 56.333 -53.001 94s-16 81.5 -16 131.5v449h205v-443c0 -49.333 8.33301 -84.833 25 -106.5s45 -32.5 85 -32.5c40.667 0 69 10.667 85 32s24 57 24 107
v443h205v-449c0 -50.667 -5.33301 -94.834 -16 -132.501s-28.334 -69 -53.001 -94s-57 -43.667 -97 -56s-89.333 -18.5 -148 -18.5z" />
    <glyph glyph-name="ubreve" unicode="&#x16d;" horiz-adv-x="601" 
d="M194 -10c-46 0 -82.833 13.499 -110.5 40.499s-41.5 62.5 -41.5 106.5v403h200v-337c0 -35.333 14.667 -53 44 -53c18.667 0 42 7 70 21v369h200v-540h-168l-11 56h-4c-21.333 -13.333 -39.5 -24.166 -54.5 -32.499s-29.167 -15 -42.5 -20s-26.333 -8.5 -39 -10.5
s-27 -3 -43 -3zM299 609.999c-68.667 0 -119.333 15.168 -152 45.501s-50.334 73.166 -53.001 128.499h132c0.666992 -25.333 6.5 -44.166 17.5 -56.499s29.5 -18.5 55.5 -18.5s44.333 6.16699 55 18.5s16.667 31.166 18 56.499h132c-3.33301 -56 -21.166 -99 -53.499 -129
s-82.833 -45 -151.5 -45z" />
    <glyph glyph-name="Uring" unicode="&#x16e;" horiz-adv-x="725" 
d="M363 -10c-58.667 0 -108.165 6.33398 -148.498 19.001s-72.833 31.5 -97.5 56.5s-42.334 56.333 -53.001 94s-16 81.5 -16 131.5v449h205v-443c0 -49.333 8.33301 -84.833 25 -106.5s45 -32.5 85 -32.5c40.667 0 69 10.667 85 32s24 57 24 107v443h205v-449
c0 -50.667 -5.33301 -94.834 -16 -132.501s-28.334 -69 -53.001 -94s-57 -43.667 -97 -56s-89.333 -18.5 -148 -18.5zM353.002 770.001c-37.333 0 -68.1689 10.8311 -92.502 32.498s-36.5 49.5 -36.5 83.5c0 16.667 3.16699 32.167 9.5 46.5s15.333 26.833 27 37.5
s25.334 18.834 41.001 24.501s32.834 8.5 51.501 8.5c38 0 69.167 -11 93.5 -33s36.5 -50 36.5 -84c0 -16.667 -3.16699 -32.167 -9.5 -46.5s-15.333 -26.666 -27 -36.999s-25.5 -18.333 -41.5 -24s-33.333 -8.5 -52 -8.5zM352.999 833.999c21.333 0 36.166 4 44.499 12
s12.5 21.333 12.5 40c0 19.333 -4.16699 33.166 -12.5 41.499s-23.166 12.5 -44.499 12.5s-36 -4.16699 -44 -12.5s-12 -22.166 -12 -41.499c0 -18.667 4 -32 12 -40s22.667 -12 44 -12z" />
    <glyph glyph-name="uring" unicode="&#x16f;" horiz-adv-x="601" 
d="M300 586c-39.333 0 -71.333 10.667 -96 32s-37 49.333 -37 84s12.333 62.667 37 84s56.667 32 96 32c40 0 72.333 -10.667 97 -32s37 -49.333 37 -84s-12.333 -62.667 -37 -84s-57 -32 -97 -32zM300 652c17.333 0 30.5 4.5 39.5 13.5s13.5 21.167 13.5 36.5
c0 33.333 -17.667 50 -53 50c-34.667 0 -52 -16.667 -52 -50s17.333 -50 52 -50zM194 -10c-46 0 -82.833 13.499 -110.5 40.499s-41.5 62.5 -41.5 106.5v403h200v-337c0 -35.333 14.667 -53 44 -53c18.667 0 42 7 70 21v369h200v-540h-168l-11 56h-4
c-21.333 -13.333 -39.5 -24.166 -54.5 -32.499s-29.167 -15 -42.5 -20s-26.333 -8.5 -39 -10.5s-27 -3 -43 -3z" />
    <glyph glyph-name="Uhungarumlaut" unicode="&#x170;" horiz-adv-x="725" 
d="M363 -10c-58.667 0 -108.165 6.33398 -148.498 19.001s-72.833 31.5 -97.5 56.5s-42.334 56.333 -53.001 94s-16 81.5 -16 131.5v449h205v-443c0 -49.333 8.33301 -84.833 25 -106.5s45 -32.5 85 -32.5c40.667 0 69 10.667 85 32s24 57 24 107v443h205v-449
c0 -50.667 -5.33301 -94.834 -16 -132.501s-28.334 -69 -53.001 -94s-57 -43.667 -97 -56s-89.333 -18.5 -148 -18.5zM184.002 804.001l63 189h176l-126 -199zM396.002 804.001l63 189h175l-125 -199z" />
    <glyph glyph-name="uhungarumlaut" unicode="&#x171;" horiz-adv-x="601" 
d="M194 -10c-46 0 -82.833 13.499 -110.5 40.499s-41.5 62.5 -41.5 106.5v403h200v-337c0 -35.333 14.667 -53 44 -53c18.667 0 42 7 70 21v369h200v-540h-168l-11 56h-4c-21.333 -13.333 -39.5 -24.166 -54.5 -32.499s-29.167 -15 -42.5 -20s-26.333 -8.5 -39 -10.5
s-27 -3 -43 -3zM125 618.999l63 189h176l-126 -199zM337 618.999l63 189h175l-125 -199z" />
    <glyph glyph-name="Uogonek" unicode="&#x172;" horiz-adv-x="725" 
d="M364 -218c-96 0 -144 34.001 -144 102.001c0 20 5 39 15 57s26.333 36 49 54c-43.333 5.33301 -80 15.5 -110 30.5s-54.333 34.833 -73 59.5s-32.167 54.167 -40.5 88.5s-12.5 73.5 -12.5 117.5v449h205v-443c0 -49.333 8.33301 -84.833 25 -106.5s45 -32.5 85 -32.5
c40.667 0 69 10.667 85 32s24 57 24 107v443h205v-449c0 -43.333 -3.83301 -81.833 -11.5 -115.5s-20.167 -62.667 -37.5 -87s-40 -44.166 -68 -59.499s-62.333 -26 -103 -32c-21.333 -8.66699 -39.166 -17.167 -53.499 -25.5s-25.833 -16.333 -34.5 -24
s-14.667 -14.834 -18 -21.501s-5 -12.334 -5 -17.001c0 -6.66699 3 -11.334 9 -14.001s14 -4 24 -4c11.333 0 24.666 1.5 39.999 4.5s29 6.16699 41 9.5v-111c-17.333 -3.33301 -33.333 -6.16602 -48 -8.49902s-30.667 -3.5 -48 -3.5z" />
    <glyph glyph-name="uogonek" unicode="&#x173;" horiz-adv-x="602" 
d="M195 -10c-46 0 -82.8311 13.501 -110.498 40.501s-41.5 62.5 -41.5 106.5v403h200v-337c0 -35.333 14.667 -53 44 -53c18.667 0 42 7 70 21v369h200v-545c-22 -8.66699 -40.167 -17.167 -54.5 -25.5s-25.833 -16.333 -34.5 -24s-14.834 -14.834 -18.501 -21.501
s-5.5 -12.334 -5.5 -17.001c0 -6.66699 3 -11.334 9 -14.001s14 -4 24 -4c11.333 0 24.666 1.5 39.999 4.5s29 6.16699 41 9.5v-111c-17.333 -3.33301 -33.333 -6.16602 -48 -8.49902s-30.667 -3.5 -48 -3.5c-96 0 -144 34 -144 102c0 21.333 5.66699 41.5 17 60.5
s29.333 38.167 54 57.5l-11 56h-4c-21.333 -13.333 -39.5 -24.166 -54.5 -32.499s-29.167 -15 -42.5 -20s-26.333 -8.5 -39 -10.5s-27 -3 -43 -3z" />
    <glyph glyph-name="Wcircumflex" unicode="&#x174;" horiz-adv-x="1015" 
d="M2 740h224l62 -414l9 -97h13l14 97l87 414h198l87 -414l14 -97h13l9 97l62 414h219l-166 -740h-249l-71 315l-13 151h-12l-13 -151l-71 -315h-250zM318 919l187 74l187 -74v-130l-187 73l-187 -73v130z" />
    <glyph glyph-name="wcircumflex" unicode="&#x175;" horiz-adv-x="804" 
d="M220 734l187 74l187 -74v-130l-187 73l-187 -73v130zM12 536v4h186l37 -288l6 -59h13l7 59l50 288h182l50 -288l8 -59h12l7 59l37 288h186v-4l-112 -536h-222l-45 259l-5 57h-13l-6 -57l-44 -259h-222z" />
    <glyph glyph-name="Ycircumflex" unicode="&#x176;" horiz-adv-x="708" 
d="M252 246l-265 494h229l115 -248l19 -60h10l19 60l116 248h225l-263 -492v-248h-205v246zM167 919l187 74l187 -74v-130l-187 73l-187 -73v130z" />
    <glyph glyph-name="ycircumflex" unicode="&#x177;" horiz-adv-x="595" 
d="M134 -185v11l61 177l-198 521v16h208l67 -252l19 -90h11l20 90l67 252h206v-16l-265 -744zM121 734l187 74l187 -74v-130l-187 73l-187 -73v130z" />
    <glyph glyph-name="Ydieresis" unicode="&#x178;" horiz-adv-x="708" 
d="M252 246l-265 494h229l115 -248l19 -60h10l19 60l116 248h225l-263 -492v-248h-205v246zM214 797c-38 0 -65.333 8.16895 -82 24.502s-25 43.166 -25 80.499c0 36.667 8.33301 63 25 79s44 24 82 24s65.5 -8.16699 82.5 -24.5s25.5 -42.5 25.5 -78.5
c0 -36.667 -8.5 -63.334 -25.5 -80.001s-44.5 -25 -82.5 -25zM493 797.002c-38.667 0 -66.167 8.16895 -82.5 24.502s-24.5 43.166 -24.5 80.499c0 36.667 8.16699 63 24.5 79s43.833 24 82.5 24c38 0 65.333 -8.16699 82 -24.5s25 -42.5 25 -78.5
c0 -36.667 -8.33301 -63.334 -25 -80.001s-44 -25 -82 -25z" />
    <glyph glyph-name="Zacute" unicode="&#x179;" horiz-adv-x="605" 
d="M25 175l305 388v11h-288v166h520v-174l-304 -390v-10h323v-166h-556v175zM232 804l64 189h204l-125 -199z" />
    <glyph glyph-name="zacute" unicode="&#x17a;" horiz-adv-x="501" 
d="M179 619l63 189h205l-125 -199zM29 134l202 248v8h-195v150h427v-135l-196 -246v-9h206v-150h-444v134z" />
    <glyph glyph-name="Zdotaccent" unicode="&#x17b;" horiz-adv-x="605" 
d="M304 797c-38 0 -65.333 8.16895 -82 24.502s-25 43.166 -25 80.499c0 36.667 8.33301 63 25 79s44 24 82 24s65.5 -8.16699 82.5 -24.5s25.5 -42.5 25.5 -78.5c0 -36.667 -8.5 -63.334 -25.5 -80.001s-44.5 -25 -82.5 -25zM25 175.002l305 388v11h-288v166h520v-174
l-304 -390v-10h323v-166h-556v175z" />
    <glyph glyph-name="zdotaccent" unicode="&#x17c;" horiz-adv-x="501" 
d="M29 134l202 248v8h-195v150h427v-135l-196 -246v-9h206v-150h-444v134zM247 597c-38.667 0 -66.167 8.16895 -82.5 24.502s-24.5 43.166 -24.5 80.499c0 36.667 8.16699 63 24.5 79s43.833 24 82.5 24c38 0 65.5 -8.16699 82.5 -24.5s25.5 -42.5 25.5 -78.5
c0 -36.667 -8.5 -63.334 -25.5 -80.001s-44.5 -25 -82.5 -25z" />
    <glyph glyph-name="Zcaron" unicode="&#x17d;" horiz-adv-x="605" 
d="M125 993l187 -74l187 74v-131l-187 -73l-187 73v131zM25 175l305 388v11h-288v166h520v-174l-304 -390v-10h323v-166h-556v175z" />
    <glyph glyph-name="zcaron" unicode="&#x17e;" horiz-adv-x="501" 
d="M64 808l187 -74l187 74v-131l-187 -73l-187 73v131zM29 134l202 248v8h-195v150h427v-135l-196 -246v-9h206v-150h-444v134z" />
    <glyph glyph-name="Schwa" unicode="&#x18f;" horiz-adv-x="691" 
d="M24 329c0 17.333 0.499023 34.3359 1.49902 51.0029s2.83301 35 5.5 55h427c-2 30 -6.33301 54.167 -13 72.5s-16.667 32.666 -30 42.999s-30.5 17.166 -51.5 20.499s-46.833 5 -77.5 5c-34 0 -69.667 -2 -107 -6s-77 -11.667 -119 -23l-8 161
c38 13.333 79.5 23.5 124.5 30.5s88.5 10.5 130.5 10.5c238.667 0 358 -125.667 358 -377c0 -120.667 -28.667 -214.5 -86 -281.5s-143.666 -100.5 -258.999 -100.5c-98 0 -171.833 26.667 -221.5 80s-74.5 139.666 -74.5 258.999zM329.999 148.003
c23.333 0 42.833 2.33301 58.5 7s28.5 12.667 38.5 24s17.5 26.833 22.5 46.5s8.16699 44.5 9.5 74.5h-238c0 -30.667 1.5 -55.834 4.5 -75.501s8.33301 -35.167 16 -46.5s18.5 -19.166 32.5 -23.499s32.667 -6.5 56 -6.5z" />
    <glyph glyph-name="florin" unicode="&#x192;" horiz-adv-x="473" 
d="M116 374h-87.001v166h88v23c0 46.667 5.66699 85.834 17 117.501s30 57.5 56 77.5s60 34.5 102 43.5s93.667 14.167 155 15.5l12 -147c-27.333 -1.33301 -50.166 -3.83301 -68.499 -7.5s-33 -9 -44 -16s-18.833 -16.333 -23.5 -28s-7 -25.834 -7 -42.501v-36h122v-166
h-122v-532l-200 -62v594z" />
    <glyph glyph-name="uni01C4" unicode="&#x1c4;" horiz-adv-x="1308" 
d="M828 993l187 -74l187 74v-131l-187 -73l-187 73v131zM728 175l305 388v11h-288v166h520v-174l-304 -390v-10h323v-166h-556v175zM262 -12c-30.667 0 -63.001 1.16309 -97.001 3.49609s-71 5.5 -111 9.5v739c51.333 2.66699 94.5 4.83398 129.5 6.50098s66.5 2.5 94.5 2.5
c72 0 133.167 -6.83301 183.5 -20.5s91.333 -35.667 123 -66s54.834 -69.666 69.501 -117.999s22 -106.833 22 -175.5c0 -69.333 -7.33301 -128.166 -22 -176.499s-38.5 -87.666 -71.5 -117.999s-75.833 -52.333 -128.5 -66s-116.667 -20.5 -192 -20.5zM337.999 150.996
c26 0 47.166 3.00391 63.499 9.00391s29.333 17.167 39 33.5s16.334 38.666 20.001 66.999s5.5 64.833 5.5 109.5c0 43.333 -2.16699 79.166 -6.5 107.499s-12.333 50.666 -24 66.999s-27.167 27.666 -46.5 33.999s-44 9.5 -74 9.5c-11.333 0 -21.5 -0.333008 -30.5 -1
s-18.5 -1.66699 -28.5 -3v-427c17.333 -2 32.333 -3.5 45 -4.5s25 -1.5 37 -1.5z" />
    <glyph glyph-name="uni01C5" unicode="&#x1c5;" horiz-adv-x="1204" 
d="M767 808l187 -74l187 74v-131l-187 -73l-187 73v131zM732 134l202 248v8h-195v150h427v-135l-196 -246v-9h206v-150h-444v134zM262 -12c-30.667 0 -63.001 1.16309 -97.001 3.49609s-71 5.5 -111 9.5v739c51.333 2.66699 94.5 4.83398 129.5 6.50098s66.5 2.5 94.5 2.5
c72 0 133.167 -6.83301 183.5 -20.5s91.333 -35.667 123 -66s54.834 -69.666 69.501 -117.999s22 -106.833 22 -175.5c0 -69.333 -7.33301 -128.166 -22 -176.499s-38.5 -87.666 -71.5 -117.999s-75.833 -52.333 -128.5 -66s-116.667 -20.5 -192 -20.5zM337.999 150.996
c26 0 47.166 3.00391 63.499 9.00391s29.333 17.167 39 33.5s16.334 38.666 20.001 66.999s5.5 64.833 5.5 109.5c0 43.333 -2.16699 79.166 -6.5 107.499s-12.333 50.666 -24 66.999s-27.167 27.666 -46.5 33.999s-44 9.5 -74 9.5c-11.333 0 -21.5 -0.333008 -30.5 -1
s-18.5 -1.66699 -28.5 -3v-427c17.333 -2 32.333 -3.5 45 -4.5s25 -1.5 37 -1.5z" />
    <glyph glyph-name="uni01C6" unicode="&#x1c6;" horiz-adv-x="1105" 
d="M669 808l187 -74l187 74v-131l-187 -73l-187 73v131zM634 134l202 248v8h-195v150h427v-135l-196 -246v-9h206v-150h-444v134zM217 -10c-127.333 0 -190.999 87 -190.999 261c0 100 24 174.667 72 224s118.667 74 212 74c7.33301 0 14.666 -0.166992 21.999 -0.5
s16.333 -0.833008 27 -1.5v261h200v-808h-181l-12 58h-6c-33.333 -45.333 -81 -68 -143 -68zM290.001 131c13.333 0 24.334 2.5 33.001 7.5s15.667 14 21 27s9.16602 30.333 11.499 52s3.5 49.5 3.5 83.5v106c-12.667 7.33301 -30.667 11 -54 11
c-16 0 -29 -1.83301 -39 -5.5s-17.667 -10.834 -23 -21.501s-9 -25.5 -11 -44.5s-3 -43.833 -3 -74.5c0 -28.667 0.833008 -52.167 2.5 -70.5s4.66699 -32.666 9 -42.999s10.5 -17.5 18.5 -21.5s18.333 -6 31 -6z" />
    <glyph glyph-name="uni01C7" unicode="&#x1c7;" horiz-adv-x="834" 
d="M502 -159c14.667 33.333 26.832 64.1699 36.499 92.5029s17.334 56.166 23.001 83.499s9.66699 55.666 12 84.999s3.5 61.666 3.5 96.999v541h206v-559c0 -35.333 -2.66699 -68.5 -8 -99.5s-14 -62.167 -26 -93.5s-27.667 -63.5 -47 -96.5s-43 -68.833 -71 -107.5z
M53.998 740.004h205v-575h250v-165h-455v740z" />
    <glyph glyph-name="uni01C8" unicode="&#x1c8;" horiz-adv-x="812" 
d="M667 597c-38 0 -65.333 8.16895 -82 24.502s-25 43.166 -25 80.499c0 36.667 8.16699 63 24.5 79s43.833 24 82.5 24c38 0 65.333 -8.16699 82 -24.5s25 -42.5 25 -78.5c0 -36.667 -8.16699 -63.334 -24.5 -80.001s-43.833 -25 -82.5 -25zM533 -187.998
c11.333 43.333 20 91.332 26 143.999s9 111.334 9 176.001v33v70v89v92c0 29.333 -0.166992 55.166 -0.5 77.499s-0.5 37.833 -0.5 46.5h200v-470c-1.33301 -23.333 -4.5 -47.666 -9.5 -72.999s-11.667 -50.833 -20 -76.5s-18 -50.5 -29 -74.5s-22.833 -46 -35.5 -66z
M54 740.001h205v-575h250v-165h-455v740z" />
    <glyph glyph-name="uni01C9" unicode="&#x1c9;" horiz-adv-x="581" 
d="M437 597c-38 0 -65.333 8.16895 -82 24.502s-25 43.166 -25 80.499c0 36.667 8.16699 63 24.5 79s43.833 24 82.5 24c38 0 65.333 -8.16699 82 -24.5s25 -42.5 25 -78.5c0 -36.667 -8.16699 -63.334 -24.5 -80.001s-43.833 -25 -82.5 -25zM303 -187.998
c11.333 43.333 20 91.332 26 143.999s9 111.334 9 176.001v33v70v89v92c0 29.333 -0.166992 55.166 -0.5 77.499s-0.5 37.833 -0.5 46.5h200v-470c-1.33301 -23.333 -4.5 -47.666 -9.5 -72.999s-11.667 -50.833 -20 -76.5s-18 -50.5 -29 -74.5s-22.833 -46 -35.5 -66z
M45 808.001h200v-808h-200v808z" />
    <glyph glyph-name="uni01CA" unicode="&#x1ca;" horiz-adv-x="1050" 
d="M718 -159c14.667 33.333 26.832 64.1699 36.499 92.5029s17.334 56.166 23.001 83.499s9.66699 55.666 12 84.999s3.5 61.666 3.5 96.999v541h206v-559c0 -35.333 -2.66699 -68.5 -8 -99.5s-14 -62.167 -26 -93.5s-27.667 -63.5 -47 -96.5s-43 -68.833 -71 -107.5z
M53.998 740.004h165l231 -323l44 -79h11v402h179v-740h-165l-229 323l-47 82h-11v-405h-178v740z" />
    <glyph glyph-name="uni01CB" unicode="&#x1cb;" horiz-adv-x="1028" 
d="M883 597c-38 0 -65.333 8.16895 -82 24.502s-25 43.166 -25 80.499c0 36.667 8.16699 63 24.5 79s43.833 24 82.5 24c38 0 65.333 -8.16699 82 -24.5s25 -42.5 25 -78.5c0 -36.667 -8.16699 -63.334 -24.5 -80.001s-43.833 -25 -82.5 -25zM749 -187.998
c11.333 43.333 20 91.332 26 143.999s9 111.334 9 176.001v33v70v89v92c0 29.333 -0.166992 55.166 -0.5 77.499s-0.5 37.833 -0.5 46.5h200v-470c-1.33301 -23.333 -4.5 -47.666 -9.5 -72.999s-11.667 -50.833 -20 -76.5s-18 -50.5 -29 -74.5s-22.833 -46 -35.5 -66z
M54 740.001h165l231 -323l44 -79h11v402h179v-740h-165l-229 323l-47 82h-11v-405h-178v740z" />
    <glyph glyph-name="uni01CC" unicode="&#x1cc;" horiz-adv-x="893" 
d="M748 597c-38 0 -65.333 8.16895 -82 24.502s-25 43.166 -25 80.499c0 36.667 8.16699 63 24.5 79s43.833 24 82.5 24c38 0 65.333 -8.16699 82 -24.5s25 -42.5 25 -78.5c0 -36.667 -8.16699 -63.334 -24.5 -80.001s-43.833 -25 -82.5 -25zM614 -187.998
c11.333 43.333 20 91.332 26 143.999s9 111.334 9 176.001v33v70v89v92c0 29.333 -0.166992 55.166 -0.5 77.499s-0.5 37.833 -0.5 46.5h200v-470c-1.33301 -23.333 -4.5 -47.666 -9.5 -72.999s-11.667 -50.833 -20 -76.5s-18 -50.5 -29 -74.5s-22.833 -46 -35.5 -66z
M46 540.001h167.998l10 -59h6c22.667 13.333 42.834 24.5 60.501 33.5s33.834 16.167 48.501 21.5s28.667 9 42 11s27.333 3 42 3c40.667 0 73.5 -13.5 98.5 -40.5s37.5 -62.5 37.5 -106.5v-403h-200v332c0 18.667 -3.5 32 -10.5 40s-16.833 12 -29.5 12
c-10 0 -21.5 -2 -34.5 -6s-25.833 -9 -38.5 -15v-363h-200v540z" />
    <glyph glyph-name="Oogonek" unicode="&#x1ea;" horiz-adv-x="732" 
d="M372 -214c-96 0 -144 34.002 -144 102.002c0 19.333 4.83301 37.833 14.5 55.5s25.167 35.167 46.5 52.5c-174.667 26 -262 150.333 -262 373c0 254 112.667 381 338 381c114 0 199 -31.333 255 -94s84 -158.334 84 -287.001c0 -214.667 -80.667 -338 -242 -370
c-41.333 -16.667 -69.666 -32.834 -84.999 -48.501s-23 -28.167 -23 -37.5c0 -6.66699 3 -11.334 9 -14.001s14 -4 24 -4c11.333 0 24.666 1.5 39.999 4.5s29 6.16699 41 9.5v-111c-17.333 -3.33301 -33.333 -6.16602 -48 -8.49902s-30.667 -3.5 -48 -3.5zM365 155.002
c24.667 0 45.334 3.33008 62.001 9.99707s30 18.167 40 34.5s17 38.333 21 66s6 62.167 6 103.5c0 42 -2 76.833 -6 104.5s-11 49.834 -21 66.501s-23.333 28.334 -40 35.001s-37.334 10 -62.001 10c-24 0 -44.167 -3.5 -60.5 -10.5s-29.5 -18.833 -39.5 -35.5
s-17.167 -38.834 -21.5 -66.501s-6.5 -62.167 -6.5 -103.5s2 -75.666 6 -102.999s11 -49.166 21 -65.499s23.167 -28 39.5 -35s36.833 -10.5 61.5 -10.5z" />
    <glyph glyph-name="oogonek" unicode="&#x1eb;" horiz-adv-x="593" 
d="M319 -206c-96 0 -143.998 33.999 -143.998 101.999c0 18 4 35 12 51s21 32 39 48c-66.667 11.333 -116.834 40.333 -150.501 87s-50.5 109.334 -50.5 188.001c0 92 23 161.667 69 209s113.667 71 203 71s156.833 -23.5 202.5 -70.5s68.5 -116.833 68.5 -209.5
c0 -148.667 -58.667 -238.667 -176 -270c-35.333 -15.333 -59.333 -30 -72 -44s-19 -25.667 -19 -35c0 -6.66699 3 -11.334 9 -14.001s14 -4 24 -4c11.333 0 24.666 1.5 39.999 4.5s29 6.16699 41 9.5v-111c-17.333 -3.33301 -33.333 -6.16602 -48 -8.49902
s-30.667 -3.5 -48 -3.5zM297.002 138.999c14.667 0 26.667 1.5 36 4.5s16.5 9.33301 21.5 19s8.5 23 10.5 40s3 39.5 3 67.5s-1 50.5 -3 67.5s-5.5 30.167 -10.5 39.5s-12.167 15.5 -21.5 18.5s-21.333 4.5 -36 4.5c-15.333 0 -27.666 -1.5 -36.999 -4.5
s-16.666 -9.16699 -21.999 -18.5s-8.83301 -22.5 -10.5 -39.5s-2.5 -39.5 -2.5 -67.5s0.833008 -50.5 2.5 -67.5s5.16699 -30.333 10.5 -40s12.666 -16 21.999 -19s21.666 -4.5 36.999 -4.5z" />
    <glyph glyph-name="uni01F1" unicode="&#x1f1;" horiz-adv-x="1300" 
d="M720 175l305 388v11h-288v166h520v-174l-304 -390v-10h323v-166h-556v175zM262 -12c-30.667 0 -63.001 1.16309 -97.001 3.49609s-71 5.5 -111 9.5v739c51.333 2.66699 94.5 4.83398 129.5 6.50098s66.5 2.5 94.5 2.5c72 0 133.167 -6.83301 183.5 -20.5
s91.333 -35.667 123 -66s54.834 -69.666 69.501 -117.999s22 -106.833 22 -175.5c0 -69.333 -7.33301 -128.166 -22 -176.499s-38.5 -87.666 -71.5 -117.999s-75.833 -52.333 -128.5 -66s-116.667 -20.5 -192 -20.5zM337.999 150.996c26 0 47.166 3.00391 63.499 9.00391
s29.333 17.167 39 33.5s16.334 38.666 20.001 66.999s5.5 64.833 5.5 109.5c0 43.333 -2.16699 79.166 -6.5 107.499s-12.333 50.666 -24 66.999s-27.167 27.666 -46.5 33.999s-44 9.5 -74 9.5c-11.333 0 -21.5 -0.333008 -30.5 -1s-18.5 -1.66699 -28.5 -3v-427
c17.333 -2 32.333 -3.5 45 -4.5s25 -1.5 37 -1.5z" />
    <glyph glyph-name="uni01F2" unicode="&#x1f2;" horiz-adv-x="1204" 
d="M732 134l202 248v8h-195v150h427v-135l-196 -246v-9h206v-150h-444v134zM262 -12c-30.667 0 -63.001 1.16309 -97.001 3.49609s-71 5.5 -111 9.5v739c51.333 2.66699 94.5 4.83398 129.5 6.50098s66.5 2.5 94.5 2.5c72 0 133.167 -6.83301 183.5 -20.5
s91.333 -35.667 123 -66s54.834 -69.666 69.501 -117.999s22 -106.833 22 -175.5c0 -69.333 -7.33301 -128.166 -22 -176.499s-38.5 -87.666 -71.5 -117.999s-75.833 -52.333 -128.5 -66s-116.667 -20.5 -192 -20.5zM337.999 150.996c26 0 47.166 3.00391 63.499 9.00391
s29.333 17.167 39 33.5s16.334 38.666 20.001 66.999s5.5 64.833 5.5 109.5c0 43.333 -2.16699 79.166 -6.5 107.499s-12.333 50.666 -24 66.999s-27.167 27.666 -46.5 33.999s-44 9.5 -74 9.5c-11.333 0 -21.5 -0.333008 -30.5 -1s-18.5 -1.66699 -28.5 -3v-427
c17.333 -2 32.333 -3.5 45 -4.5s25 -1.5 37 -1.5z" />
    <glyph glyph-name="uni01F3" unicode="&#x1f3;" horiz-adv-x="1105" 
d="M634 134l202 248v8h-195v150h427v-135l-196 -246v-9h206v-150h-444v134zM217 -10c-127.333 0 -190.999 87 -190.999 261c0 100 24 174.667 72 224s118.667 74 212 74c7.33301 0 14.666 -0.166992 21.999 -0.5s16.333 -0.833008 27 -1.5v261h200v-808h-181l-12 58h-6
c-33.333 -45.333 -81 -68 -143 -68zM290.001 131c13.333 0 24.334 2.5 33.001 7.5s15.667 14 21 27s9.16602 30.333 11.499 52s3.5 49.5 3.5 83.5v106c-12.667 7.33301 -30.667 11 -54 11c-16 0 -29 -1.83301 -39 -5.5s-17.667 -10.834 -23 -21.501s-9 -25.5 -11 -44.5
s-3 -43.833 -3 -74.5c0 -28.667 0.833008 -52.167 2.5 -70.5s4.66699 -32.666 9 -42.999s10.5 -17.5 18.5 -21.5s18.333 -6 31 -6z" />
    <glyph glyph-name="Gacute" unicode="&#x1f4;" horiz-adv-x="640" 
d="M270 804l64 189h204l-125 -199zM361 -11c-113.333 0 -197.331 31.502 -251.998 94.502s-82 158.5 -82 286.5c0 126.667 31 221.834 93 285.501s155.333 95.5 280 95.5c30.667 0 62.167 -2 94.5 -6s63.833 -10 94.5 -18v-161c-37.333 6.66699 -69.833 11.5 -97.5 14.5
s-51.834 4.5 -72.501 4.5c-36 0 -65.667 -3.33301 -89 -10s-41.833 -18.334 -55.5 -35.001s-23.334 -38.834 -29.001 -66.501s-8.5 -62.5 -8.5 -104.5c0 -42.667 2.16699 -77.834 6.5 -105.501s12 -49.5 23 -65.5s25.833 -27 44.5 -33s42.667 -9 72 -9h16.5
c5.66699 0 11.5 0.333008 17.5 1v219h185v-361c-50 -8.66699 -94.667 -15.167 -134 -19.5s-75 -6.5 -107 -6.5z" />
    <glyph glyph-name="gacute" unicode="&#x1f5;" horiz-adv-x="604" 
d="M241 619l63 189h205l-125 -199zM258 -220c-32 0 -65.168 1.83105 -99.501 5.49805s-66.5 9.16699 -96.5 16.5l12 143c28 -5.33301 55.333 -9.66602 82 -12.999s51.667 -5 75 -5c45.333 0 79.5 8.83301 102.5 26.5s34.5 48.834 34.5 93.501v41h-6
c-15.333 -22.667 -35 -39.334 -59 -50.001s-51 -16 -81 -16c-65.333 0 -114.166 19 -146.499 57s-48.5 96.333 -48.5 175c0 98.667 24.167 172.5 72.5 221.5s118.833 73.5 211.5 73.5c16 0 32.667 -0.666992 50 -2s35.833 -3.5 55.5 -6.5s41.167 -7.16699 64.5 -12.5
s49.666 -12 78.999 -20v-431c0 -50.667 -7 -94.667 -21 -132s-34.167 -68.166 -60.5 -92.499s-58.166 -42.5 -95.499 -54.5s-79 -18 -125 -18zM290.999 154.998c13.333 0 24.499 2.5 33.499 7.5s16.167 13.5 21.5 25.5s9 28 11 48s3 45.333 3 76v95
c-12.667 7.33301 -30.667 11 -54 11c-16 0 -29 -1.83301 -39 -5.5s-17.667 -10.667 -23 -21s-9 -24.666 -11 -42.999s-3 -42.5 -3 -72.5c0 -24.667 0.666992 -44.834 2 -60.501s4.33301 -28 9 -37s10.834 -15.167 18.501 -18.5s18.167 -5 31.5 -5z" />
    <glyph glyph-name="Aringacute" unicode="&#x1fa;" horiz-adv-x="688" 
d="M-5 8l187 670.999c-15.333 23.333 -23 50.333 -23 81c0 39.333 11.833 72.333 35.5 99s56.5 44 98.5 52l40 119h204l-88 -139c25.333 -13.333 45 -31.166 59 -53.499s21 -48.166 21 -77.499c0 -30.667 -7.66699 -57.334 -23 -80.001l187 -672v-8h-194l-39 153h-233
l-38 -153h-194v8zM343 696.999c22.667 0 40.834 5.83105 54.501 17.498s20.5 26.834 20.5 45.501c0 19.333 -6.83301 34.833 -20.5 46.5s-31.834 17.5 -54.501 17.5c-22 0 -39.667 -5.83301 -53 -17.5s-20 -27.167 -20 -46.5s6.83301 -34.666 20.5 -45.999
s31.167 -17 52.5 -17zM417 320.997l-35 150l-30 123h-17l-29 -124l-36 -149h147z" />
    <glyph glyph-name="aringacute" unicode="&#x1fb;" horiz-adv-x="559" 
d="M177 -5c-24 0 -45.833 4 -65.5 12s-36.5 19.333 -50.5 34s-24.667 32.167 -32 52.5s-11 42.833 -11 67.5c0 106.667 66.333 164 199 172l100 6c-0.666992 14 -2.16699 25.167 -4.5 33.5s-6.5 15 -12.5 20s-14.5 8.33301 -25.5 10s-24.833 2.5 -41.5 2.5
c-9.33301 0 -21 -0.5 -35 -1.5s-28.833 -2.16699 -44.5 -3.5s-30.834 -3 -45.501 -5s-27 -4 -37 -6l-12 140c34.667 5.33301 69.334 9.83301 104.001 13.5s68 5.5 100 5.5c88.667 0 153.167 -14.167 193.5 -42.5s60.5 -73.5 60.5 -135.5v-370h-164l-15 65h-10
c-18 -22.667 -40.333 -40 -67 -52s-54.667 -18 -84 -18zM284 586c-39.333 0 -71.332 10.667 -95.999 32s-37 49.333 -37 84c0 26.667 7.66699 49.5 23 68.5s35.666 32.5 60.999 40.5l57 169h205l-120 -191c27.333 -22 41 -51 41 -87c0 -34.667 -12.333 -62.667 -37 -84
s-57 -32 -97 -32zM284.001 652c17.333 0 30.5 4.5 39.5 13.5s13.5 21.167 13.5 36.5c0 33.333 -17.667 50 -53 50c-34.667 0 -52 -16.667 -52 -50s17.333 -50 52 -50zM258.001 134c9.33301 0 19.6689 2.16699 31.002 6.5s20.666 9.5 27.999 15.5v74l-49 -5
c-18.667 -2 -31.834 -6.33301 -39.501 -13s-11.5 -17 -11.5 -31c0 -31.333 13.667 -47 41 -47z" />
    <glyph glyph-name="AEacute" unicode="&#x1fc;" horiz-adv-x="918" 
d="M435 804l64 189h204l-125 -199zM-7 8l239 732h642v-165h-259l9 -122h241v-166h-229l9 -121h240v-166h-440l-6 153h-191l-48 -153h-207v8zM301 321h131l-11 270h-35z" />
    <glyph glyph-name="aeacute" unicode="&#x1fd;" horiz-adv-x="845" 
d="M361 619l63 189h205l-125 -199zM590 -11c-46 0 -84.4961 6.83691 -115.496 20.5039s-56.833 35.167 -77.5 64.5h-10c-34 -26 -68.833 -45.667 -104.5 -59s-71.167 -20 -106.5 -20c-48 0 -86.333 15.333 -115 46s-43 71 -43 121c0 106 66.333 163 199 171l101 6v11
c-0.666992 11.333 -2.5 20.666 -5.5 27.999s-7.83301 13 -14.5 17s-15.667 6.66699 -27 8s-26 2 -44 2c-9.33301 0 -21 -0.5 -35 -1.5s-28.5 -2.16699 -43.5 -3.5s-29.5 -3 -43.5 -5s-25.333 -4 -34 -6l-12 140c40 6.66699 76.833 11.5 110.5 14.5s66.167 4.5 97.5 4.5
c70 0 120.333 -16.333 151 -49h10c40 32 94.667 48 164 48c78 0 135.333 -20.5 172 -61.5s55 -105.833 55 -194.5c0 -20 -0.333008 -36 -1 -48s-2.66699 -23.667 -6 -35h-292c1.33301 -14.667 3.5 -26.5 6.5 -35.5s7.66699 -16 14 -21s14.666 -8.5 24.999 -10.5
s23.166 -3 38.499 -3c22.667 0 51.5 2.16699 86.5 6.5s70.167 10.5 105.5 18.5l5 -143c-14.667 -4.66699 -30.667 -8.83398 -48 -12.501s-35.333 -6.83398 -54 -9.50098s-37.334 -4.83398 -56.001 -6.50098s-36.334 -2.5 -53.001 -2.5zM259.004 134.004
c9.33301 0 19.501 2.16699 30.501 6.5s20.5 9.5 28.5 15.5v74l-50 -5c-18.667 -2 -31.834 -6.5 -39.501 -13.5s-11.5 -17.167 -11.5 -30.5c0 -31.333 14 -47 42 -47zM645.005 319.004c-1.33301 32 -6.5 54.333 -15.5 67s-24.167 19 -45.5 19c-22 0 -37.667 -6.33301 -47 -19
s-15 -35 -17 -67h125z" />
    <glyph glyph-name="Oslashacute" unicode="&#x1fe;" horiz-adv-x="735" 
d="M91 113c-41.333 61.333 -62 146.667 -62 256c0 254 112.667 381 338 381c78.667 0 143.667 -15.333 195 -46l28 36h146l-92 -115c41.333 -62.667 62 -148 62 -256c0 -128 -28 -223.167 -84 -285.5s-141 -93.5 -255 -93.5c-78 0 -142.333 15 -193 45l-28 -35h-145z
M239 369.001v-35.499c0 -11 0.666992 -21.5 2 -31.5l208 261c-10 8 -21.833 13.667 -35.5 17s-29.167 5 -46.5 5c-24 0 -44.167 -3.5 -60.5 -10.5s-29.5 -18.833 -39.5 -35.5s-17.167 -38.834 -21.5 -66.501s-6.5 -62.167 -6.5 -103.5zM367 155.002
c24.667 0 45.333 3.33301 62 10s30 18.167 40 34.5s17 38.333 21 66s6 62.167 6 103.5c0 12.667 -0.166992 24.5 -0.5 35.5s-0.833008 21.5 -1.5 31.5l-208 -260c18.667 -14 45.667 -21 81 -21zM287.999 804.002l64 189h204l-125 -199z" />
    <glyph glyph-name="oslashacute" unicode="&#x1ff;" horiz-adv-x="600" 
d="M74 90c-30 46 -44.999 106 -44.999 180c0 90.667 22.5 160 67.5 208s113.167 72 204.5 72c65.333 0 118.666 -12.667 159.999 -38l26 28h121l-82 -90c30.667 -46 46 -106 46 -180c0 -91.333 -22.333 -161 -67 -209s-112.667 -72 -204 -72
c-65.333 0 -119.333 12.667 -162 38l-25 -27h-123zM301.001 139c16 0 28.834 1.66699 38.501 5s16.834 9.83301 21.501 19.5s7.66699 23 9 40s2 39.167 2 66.5v11l-121 -132c5.33301 -4 12.166 -6.66699 20.499 -8s18.166 -2 29.499 -2zM229.002 259l120.002 130.999
c-10.667 6.66699 -26.667 10 -48 10c-16.667 0 -29.834 -1.66699 -39.501 -5s-16.834 -9.66602 -21.501 -18.999s-7.66699 -22.5 -9 -39.5s-2 -39.167 -2 -66.5v-11zM228.004 618.999l63 189h205l-125 -199z" />
    <glyph glyph-name="Adblgrave" unicode="&#x200;" horiz-adv-x="689" 
d="M-4 8l194 732h310l194 -732v-8h-195l-40 156h-230l-39 -156h-194v8zM419 317l-37 154l-30 123h-14l-31 -124l-37 -153h149zM188 794l-126 199h175l64 -189zM400 794l-127 199h176l63 -189z" />
    <glyph glyph-name="adblgrave" unicode="&#x201;" horiz-adv-x="559" 
d="M177 -5c-24 0 -45.833 4 -65.5 12s-36.5 19.333 -50.5 34s-24.667 32.167 -32 52.5s-11 42.833 -11 67.5c0 106.667 66.333 164 199 172l100 6c-0.666992 14 -2.16699 25.167 -4.5 33.5s-6.5 15 -12.5 20s-14.5 8.33301 -25.5 10s-24.833 2.5 -41.5 2.5
c-9.33301 0 -21 -0.5 -35 -1.5s-28.833 -2.16699 -44.5 -3.5s-30.834 -3 -45.501 -5s-27 -4 -37 -6l-12 140c34.667 5.33301 69.334 9.83301 104.001 13.5s68 5.5 100 5.5c88.667 0 153.167 -14.167 193.5 -42.5s60.5 -73.5 60.5 -135.5v-370h-164l-15 65h-10
c-18 -22.667 -40.333 -40 -67 -52s-54.667 -18 -84 -18zM258 134c9.33301 0 19.6689 2.16699 31.002 6.5s20.666 9.5 27.999 15.5v74l-49 -5c-18.667 -2 -31.834 -6.33301 -39.501 -13s-11.5 -17 -11.5 -31c0 -31.333 13.667 -47 41 -47zM134.003 609l-126 199h175l64 -189z
M346.003 609l-127 199h176l63 -189z" />
    <glyph glyph-name="Ainvertedbreve" unicode="&#x202;" horiz-adv-x="689" 
d="M-4 8l194 732h310l194 -732v-8h-195l-40 156h-230l-39 -156h-194v8zM419 317l-37 154l-30 123h-14l-31 -124l-37 -153h149zM420 805c0 36 -4.83301 61.333 -14.5 76s-29.167 22 -58.5 22s-48.833 -7.5 -58.5 -22.5s-14.5 -40.167 -14.5 -75.5h-132
c0 28.667 4 54.5 12 77.5s20.333 42.833 37 59.5s38 29.5 64 38.5s56.667 13.5 92 13.5c70.667 0 122.667 -17 156 -51s50 -80 50 -138h-133z" />
    <glyph glyph-name="ainvertedbreve" unicode="&#x203;" horiz-adv-x="559" 
d="M177 -5c-24 0 -45.833 4 -65.5 12s-36.5 19.333 -50.5 34s-24.667 32.167 -32 52.5s-11 42.833 -11 67.5c0 106.667 66.333 164 199 172l100 6c-0.666992 14 -2.16699 25.167 -4.5 33.5s-6.5 15 -12.5 20s-14.5 8.33301 -25.5 10s-24.833 2.5 -41.5 2.5
c-9.33301 0 -21 -0.5 -35 -1.5s-28.833 -2.16699 -44.5 -3.5s-30.834 -3 -45.501 -5s-27 -4 -37 -6l-12 140c34.667 5.33301 69.334 9.83301 104.001 13.5s68 5.5 100 5.5c88.667 0 153.167 -14.167 193.5 -42.5s60.5 -73.5 60.5 -135.5v-370h-164l-15 65h-10
c-18 -22.667 -40.333 -40 -67 -52s-54.667 -18 -84 -18zM258 134c9.33301 0 19.6689 2.16699 31.002 6.5s20.666 9.5 27.999 15.5v74l-49 -5c-18.667 -2 -31.834 -6.33301 -39.501 -13s-11.5 -17 -11.5 -31c0 -31.333 13.667 -47 41 -47zM82.0029 620
c3.33301 54.667 21.166 97.3301 53.499 127.997s82.833 46 151.5 46c69.333 0 120 -15.167 152 -45.5s49.667 -73.166 53 -128.499h-132c-1.33301 26.667 -7.66602 45.834 -18.999 57.501s-29.333 17.5 -54 17.5c-24 0 -41.833 -5.66699 -53.5 -17
s-18.167 -30.666 -19.5 -57.999h-132z" />
    <glyph glyph-name="Edblgrave" unicode="&#x204;" horiz-adv-x="599" 
d="M54 740h507v-165h-302v-122h269v-166h-269v-121h311v-166h-516v740zM156 794l-126 199h175l64 -189zM368 794l-127 199h176l63 -189z" />
    <glyph glyph-name="edblgrave" unicode="&#x205;" horiz-adv-x="550" 
d="M125 609l-126 199h175l64 -189zM337 609l-127 199h176l63 -189zM294 -9c-179.333 0 -268.998 92 -268.998 276c0 93.333 22.5 163.666 67.5 210.999s112.833 71 203.5 71c78 0 135.5 -20.667 172.5 -62s55.5 -106 55.5 -194c0 -19.333 -0.5 -35 -1.5 -47
s-2.83301 -24 -5.5 -36h-292c1.33301 -15.333 3.66602 -27.666 6.99902 -36.999s8.16602 -16.5 14.499 -21.5s14.5 -8.33301 24.5 -10s22.333 -2.5 37 -2.5c23.333 0 52.666 2.5 87.999 7.5s70 11.167 104 18.5l5 -143c-29.333 -9.33301 -63.166 -16.833 -101.499 -22.5
s-74.833 -8.5 -109.5 -8.5zM289.002 407c-21.333 0 -36.832 -6 -46.499 -18s-15.834 -34.667 -18.501 -68h125c-1.33301 32 -6.33301 54.333 -15 67s-23.667 19 -45 19z" />
    <glyph glyph-name="Einvertedbreve" unicode="&#x206;" horiz-adv-x="599" 
d="M54 740h507v-165h-302v-122h269v-166h-269v-121h311v-166h-516v740zM386 805c0 36 -4.83301 61.333 -14.5 76s-29.167 22 -58.5 22s-48.833 -7.5 -58.5 -22.5s-14.5 -40.167 -14.5 -75.5h-132c0 28.667 4 54.5 12 77.5s20.333 42.833 37 59.5s38 29.5 64 38.5
s56.667 13.5 92 13.5c70.667 0 122.667 -17 156 -51s50 -80 50 -138h-133z" />
    <glyph glyph-name="einvertedbreve" unicode="&#x207;" horiz-adv-x="550" 
d="M80 620c3.33301 54.667 21.166 97.3301 53.499 127.997s82.833 46 151.5 46c69.333 0 120 -15.167 152 -45.5s49.667 -73.166 53 -128.499h-132c-1.33301 26.667 -7.66602 45.834 -18.999 57.501s-29.333 17.5 -54 17.5c-24 0 -41.833 -5.66699 -53.5 -17
s-18.167 -30.666 -19.5 -57.999h-132zM294 -9.00391c-179.333 0 -268.998 92 -268.998 276c0 93.333 22.5 163.666 67.5 210.999s112.833 71 203.5 71c78 0 135.5 -20.667 172.5 -62s55.5 -106 55.5 -194c0 -19.333 -0.5 -35 -1.5 -47s-2.83301 -24 -5.5 -36h-292
c1.33301 -15.333 3.66602 -27.666 6.99902 -36.999s8.16602 -16.5 14.499 -21.5s14.5 -8.33301 24.5 -10s22.333 -2.5 37 -2.5c23.333 0 52.666 2.5 87.999 7.5s70 11.167 104 18.5l5 -143c-29.333 -9.33301 -63.166 -16.833 -101.499 -22.5s-74.833 -8.5 -109.5 -8.5z
M289.002 406.996c-21.333 0 -36.832 -6 -46.499 -18s-15.834 -34.667 -18.501 -68h125c-1.33301 32 -6.33301 54.333 -15 67s-23.667 19 -45 19z" />
    <glyph glyph-name="Idblgrave" unicode="&#x208;" horiz-adv-x="313" 
d="M54 740h205v-740h-205v740zM8 794l-126 199h175l64 -189zM220 794l-127 199h176l63 -189z" />
    <glyph glyph-name="idblgrave" unicode="&#x209;" horiz-adv-x="293" 
d="M-4 609l-126 199h175l64 -189zM208 609l-127 199h176l63 -189zM46 540h200v-540h-200v540z" />
    <glyph glyph-name="Iinvertedbreve" unicode="&#x20a;" horiz-adv-x="313" 
d="M54 740h205v-740h-205v740zM231 805c0 36 -4.83301 61.333 -14.5 76s-29.167 22 -58.5 22s-48.833 -7.5 -58.5 -22.5s-14.5 -40.167 -14.5 -75.5h-132c0 28.667 4 54.5 12 77.5s20.333 42.833 37 59.5s38 29.5 64 38.5s56.667 13.5 92 13.5c70.667 0 122.667 -17 156 -51
s50 -80 50 -138h-133z" />
    <glyph glyph-name="iinvertedbreve" unicode="&#x20b;" horiz-adv-x="293" 
d="M-32 620c3.33301 54.667 19.832 97.3301 49.499 127.997s75.834 46 138.501 46s108.667 -15.167 138 -45.5s45.666 -73.166 48.999 -128.499h-122c-1.33301 26.667 -7 45.834 -17 57.501s-26 17.5 -48 17.5s-38.167 -5.66699 -48.5 -17s-16.166 -30.666 -17.499 -57.999
h-122zM45.999 539.996h200v-540h-200v540z" />
    <glyph glyph-name="Odblgrave" unicode="&#x20c;" horiz-adv-x="733" 
d="M366 -10c-225.333 0 -338 126.334 -338 379.001c0 254 112.667 381 338 381c114 0 199 -31.333 255 -94s84 -158.334 84 -287.001c0 -128 -28 -223.167 -84 -285.5s-141 -93.5 -255 -93.5zM366 155.001c24.667 0 45.334 3.33008 62.001 9.99707s30 18.167 40 34.5
s17 38.333 21 66s6 62.167 6 103.5c0 42 -2 76.833 -6 104.5s-11 49.834 -21 66.501s-23.333 28.334 -40 35.001s-37.334 10 -62.001 10c-24 0 -44.167 -3.5 -60.5 -10.5s-29.5 -18.833 -39.5 -35.5s-17.167 -38.834 -21.5 -66.501s-6.5 -62.167 -6.5 -103.5
s2 -75.666 6 -102.999s11 -49.166 21 -65.499s23.167 -28 39.5 -35s36.833 -10.5 61.5 -10.5zM211 793.998l-126 199h175l64 -189zM423 793.998l-127 199h176l63 -189z" />
    <glyph glyph-name="odblgrave" unicode="&#x20d;" horiz-adv-x="593" 
d="M143 609l-126 199h175l64 -189zM355 609l-127 199h176l63 -189zM297 -11c-89.333 0 -157 23.833 -203 71.5s-69 117.5 -69 209.5s23 161.667 69 209s113.667 71 203 71s156.833 -23.5 202.5 -70.5s68.5 -116.833 68.5 -209.5c0 -92 -22.833 -161.833 -68.5 -209.5
s-113.167 -71.5 -202.5 -71.5zM297 139c14.667 0 26.667 1.5 36 4.5s16.5 9.33301 21.5 19s8.5 23 10.5 40s3 39.5 3 67.5s-1 50.5 -3 67.5s-5.5 30.167 -10.5 39.5s-12.167 15.5 -21.5 18.5s-21.333 4.5 -36 4.5c-15.333 0 -27.666 -1.5 -36.999 -4.5
s-16.666 -9.16699 -21.999 -18.5s-8.83301 -22.5 -10.5 -39.5s-2.5 -39.5 -2.5 -67.5s0.833008 -50.5 2.5 -67.5s5.16699 -30.333 10.5 -40s12.666 -16 21.999 -19s21.666 -4.5 36.999 -4.5z" />
    </font>
</defs>
</svg>
