<?xml version="1.0" standalone="no"?>
<!DOCTYPE svg PUBLIC "-//W3C//DTD SVG 1.1//EN" "http://www.w3.org/Graphics/SVG/1.1/DTD/svg11.dtd" >
<svg>
<metadata>
Created by FontForge 20090914 at Sat Aug  6 10:44:59 2016
 By www-data
Copyright (c) 2012, Impallari Type (www.impallari.com), with Reserved Font Name Encode Sans.
</metadata>
<defs>
<font id="EncodeSansCondensed-Bold" horiz-adv-x="581" >
  <font-face 
    font-family="Encode Sans Condensed"
    font-weight="700"
    font-stretch="normal"
    units-per-em="1000"
    panose-1="2 0 0 0 0 0 0 0 0 0"
    ascent="800"
    descent="-200"
    x-height="540"
    cap-height="740"
    bbox="-114 -220.002 1599 1030"
    underline-thickness="55"
    underline-position="-57"
    unicode-range="U+000D-U+FB04"
  />
<missing-glyph horiz-adv-x="713" 
d="M73 1030h566v-1250h-566v1250zM515 -104v1019h-318v-1019h318z" />
    <glyph glyph-name="f_f" unicode="ff" horiz-adv-x="747" 
d="M467 414l-215.002 -0.00195312v-414h-151v414h-88v126h89v28c0 45.333 4.83301 83.333 14.5 114s25.5 55.5 47.5 74.5s51 33 87 42s80.667 14.5 134 16.5l8 -113c-27.333 -2 -50.166 -5.16699 -68.499 -9.5s-32.833 -11.166 -43.5 -20.499s-18.167 -21.5 -22.5 -36.5
s-6.5 -33.833 -6.5 -56.5v-39h216v28c0 45.333 4.83301 83.333 14.5 114s25.5 55.5 47.5 74.5s51 33 87 42s80.667 14.5 134 16.5l8 -113c-27.333 -2 -50.166 -5.16699 -68.499 -9.5s-32.833 -11.166 -43.5 -20.499s-18.167 -21.5 -22.5 -36.5s-6.5 -33.833 -6.5 -56.5v-39
h119v-126h-119v-414h-151v414z" />
    <glyph glyph-name="f_i" unicode="fi" horiz-adv-x="645" 
d="M516 622c-30 0 -51.5 6.5 -64.5 19.5s-19.5 33.833 -19.5 62.5s6.5 49.5 19.5 62.5s34.5 19.5 64.5 19.5s51.5 -6.66699 64.5 -20s19.5 -34 19.5 -62s-6.5 -48.667 -19.5 -62s-34.5 -20 -64.5 -20zM440 540h151v-540h-151v540zM101 414l-88.001 -0.000976562v126h89v28
c0 45.333 4.83301 83.333 14.5 114s25.5 55.5 47.5 74.5s51 33 87 42s80.667 14.5 134 16.5l8 -113c-27.333 -2 -50.166 -5.16699 -68.499 -9.5s-32.833 -11.166 -43.5 -20.499s-18.167 -21.5 -22.5 -36.5s-6.5 -33.833 -6.5 -56.5v-39h119v-126h-119v-414h-151v414z" />
    <glyph glyph-name="f_l" unicode="fl" horiz-adv-x="645" 
d="M101 414l-88.001 -0.000976562v126h89v28c0 45.333 4.83301 83.333 14.5 114s25.5 55.5 47.5 74.5s51 33 87 42s80.667 14.5 134 16.5l8 -113c-27.333 -2 -50.166 -5.16699 -68.499 -9.5s-32.833 -11.166 -43.5 -20.499s-18.167 -21.5 -22.5 -36.5
s-6.5 -33.833 -6.5 -56.5v-39h119v-126h-119v-414h-151v414zM439.999 807.999h151v-808h-151v808z" />
    <glyph glyph-name="f_f_i" unicode="ffi" horiz-adv-x="1007" 
d="M101 414l-88.002 -0.00195312v126h89v28c0 45.333 4.83301 83.333 14.5 114s25.5 55.5 47.5 74.5s51 33 87 42s80.667 14.5 134 16.5l8 -113c-27.333 -2 -50.166 -5.16699 -68.499 -9.5s-32.833 -11.166 -43.5 -20.499s-18.167 -21.5 -22.5 -36.5
s-6.5 -33.833 -6.5 -56.5v-39h212v28c0 45.333 4.83301 83.333 14.5 114s25.5 55.5 47.5 74.5s51 33 87 42s80.667 14.5 134 16.5l8 -113c-27.333 -2 -50.166 -5.16699 -68.499 -9.5s-32.833 -11.166 -43.5 -20.499s-18.167 -21.5 -22.5 -36.5s-6.5 -33.833 -6.5 -56.5v-39
h119v-126h-119v-414h-151v414h-211v-414h-151v414zM801.998 539.998h151v-540h-151v540zM877.998 621.998c-30 0 -51.5 6.5 -64.5 19.5s-19.5 33.833 -19.5 62.5s6.5 49.5 19.5 62.5s34.5 19.5 64.5 19.5s51.5 -6.66699 64.5 -20s19.5 -34 19.5 -62s-6.5 -48.667 -19.5 -62
s-34.5 -20 -64.5 -20z" />
    <glyph glyph-name="f_f_l" unicode="ffl" horiz-adv-x="1007" 
d="M101 414l-88.002 -0.00195312v126h89v28c0 45.333 4.83301 83.333 14.5 114s25.5 55.5 47.5 74.5s51 33 87 42s80.667 14.5 134 16.5l8 -113c-27.333 -2 -50.166 -5.16699 -68.499 -9.5s-32.833 -11.166 -43.5 -20.499s-18.167 -21.5 -22.5 -36.5
s-6.5 -33.833 -6.5 -56.5v-39h212v28c0 45.333 4.83301 83.333 14.5 114s25.5 55.5 47.5 74.5s51 33 87 42s80.667 14.5 134 16.5l8 -113c-27.333 -2 -50.166 -5.16699 -68.499 -9.5s-32.833 -11.166 -43.5 -20.499s-18.167 -21.5 -22.5 -36.5s-6.5 -33.833 -6.5 -56.5v-39
h119v-126h-119v-414h-151v414h-211v-414h-151v414zM801.998 807.998h151v-808h-151v808z" />
    <glyph glyph-name="f_b" unicode="fb" horiz-adv-x="956" 
d="M101 414l-88.001 -0.000976562v126h89v28c0 45.333 4.83301 83.333 14.5 114s25.5 55.5 47.5 74.5s51 33 87 42s80.667 14.5 134 16.5l8 -113c-27.333 -2 -50.166 -5.16699 -68.499 -9.5s-32.833 -11.166 -43.5 -20.499s-18.167 -21.5 -22.5 -36.5
s-6.5 -33.833 -6.5 -56.5v-39h119v-126h-119v-414h-151v414zM655.999 -10.001c-30.667 0 -63.332 2.83203 -97.999 8.49902s-74.667 14.834 -120 27.501v782h151v-323c33.333 42.667 81.333 64 144 64c127.333 0 191 -87.667 191 -263c0 -44.667 -5.16699 -85 -15.5 -121
s-26.5 -66.833 -48.5 -92.5s-49.833 -45.667 -83.5 -60s-73.834 -21.833 -120.501 -22.5zM658.001 91.998c20.667 0 38.332 2.83301 52.999 8.5s26.334 15.5 35.001 29.5s15 32.333 19 55s6 51 6 85c0 32.667 -1.5 59.834 -4.5 81.501s-8 39 -15 52
s-16.167 22.167 -27.5 27.5s-25.333 8 -42 8c-30 0 -53 -10.833 -69 -32.5s-24 -59.834 -24 -114.501v-190c9.33301 -3.33301 19.833 -5.83301 31.5 -7.5s24.167 -2.5 37.5 -2.5z" />
    <glyph glyph-name="f_f_b" unicode="ffb" horiz-adv-x="1318" 
d="M101 414l-88.002 -0.00195312v126h89v28c0 45.333 4.83301 83.333 14.5 114s25.5 55.5 47.5 74.5s51 33 87 42s80.667 14.5 134 16.5l8 -113c-27.333 -2 -50.166 -5.16699 -68.499 -9.5s-32.833 -11.166 -43.5 -20.499s-18.167 -21.5 -22.5 -36.5
s-6.5 -33.833 -6.5 -56.5v-39h212v28c0 45.333 4.83301 83.333 14.5 114s25.5 55.5 47.5 74.5s51 33 87 42s80.667 14.5 134 16.5l8 -113c-27.333 -2 -50.166 -5.16699 -68.499 -9.5s-32.833 -11.166 -43.5 -20.499s-18.167 -21.5 -22.5 -36.5s-6.5 -33.833 -6.5 -56.5v-39
h119v-126h-119v-414h-151v414h-211v-414h-151v414zM1018 -10.002c-30.667 0 -63.332 2.83203 -97.999 8.49902s-74.667 14.834 -120 27.501v782h151v-323c33.333 42.667 81.333 64 144 64c127.333 0 191 -87.667 191 -263c0 -44.667 -5.16699 -85 -15.5 -121
s-26.5 -66.833 -48.5 -92.5s-49.833 -45.667 -83.5 -60s-73.834 -21.833 -120.501 -22.5zM1020 91.9971c20.667 0 38.332 2.83301 52.999 8.5s26.334 15.5 35.001 29.5s15 32.333 19 55s6 51 6 85c0 32.667 -1.5 59.834 -4.5 81.501s-8 39 -15 52s-16.167 22.167 -27.5 27.5
s-25.333 8 -42 8c-30 0 -53 -10.833 -69 -32.5s-24 -59.834 -24 -114.501v-190c9.33301 -3.33301 19.833 -5.83301 31.5 -7.5s24.167 -2.5 37.5 -2.5z" />
    <glyph glyph-name="f_f_h" unicode="ffh" horiz-adv-x="1317" 
d="M101 414l-88.002 -0.00195312v126h89v28c0 45.333 4.83301 83.333 14.5 114s25.5 55.5 47.5 74.5s51 33 87 42s80.667 14.5 134 16.5l8 -113c-27.333 -2 -50.166 -5.16699 -68.499 -9.5s-32.833 -11.166 -43.5 -20.499s-18.167 -21.5 -22.5 -36.5
s-6.5 -33.833 -6.5 -56.5v-39h212v28c0 45.333 4.83301 83.333 14.5 114s25.5 55.5 47.5 74.5s51 33 87 42s80.667 14.5 134 16.5l8 -113c-27.333 -2 -50.166 -5.16699 -68.499 -9.5s-32.833 -11.166 -43.5 -20.499s-18.167 -21.5 -22.5 -36.5s-6.5 -33.833 -6.5 -56.5v-39
h119v-126h-119v-414h-151v414h-211v-414h-151v414zM801.998 807.998l151 0.000976562v-321c40 23.333 73.667 39.666 101 48.999s54.333 14 81 14c42 0 74.333 -12.667 97 -38s34 -61.333 34 -108v-404h-151v353c0 46.667 -17.667 70 -53 70c-14 0 -30.333 -3 -49 -9
s-38.667 -14.667 -60 -26v-388h-151v808z" />
    <glyph glyph-name="f_f_j" unicode="ffj" horiz-adv-x="1011" 
d="M101 414l-88.002 -0.00195312v126h89v28c0 45.333 4.83301 83.333 14.5 114s25.5 55.5 47.5 74.5s51 33 87 42s80.667 14.5 134 16.5l8 -113c-27.333 -2 -50.166 -5.16699 -68.499 -9.5s-32.833 -11.166 -43.5 -20.499s-18.167 -21.5 -22.5 -36.5
s-6.5 -33.833 -6.5 -56.5v-39h213v28c0 45.333 4.83301 83.333 14.5 114s25.5 55.5 47.5 74.5s51 33 87 42s80.667 14.5 134 16.5l8 -113c-27.333 -2 -50.166 -5.16699 -68.499 -9.5s-32.833 -11.166 -43.5 -20.499s-18.167 -21.5 -22.5 -36.5s-6.5 -33.833 -6.5 -56.5v-39
h119v-126h-119v-414h-151v414h-212v-414h-151v414zM758.998 -192.002c16 44 28 92 36 144s12 110 12 174v32.5v72.5v93v95c0 30 -0.166992 56.167 -0.5 78.5s-0.5 36.5 -0.5 42.5h151v-464c-0.666992 -24 -3.33398 -49.167 -8.00098 -75.5s-11 -52.333 -19 -78
s-17.667 -50.667 -29 -75s-23.666 -46.833 -36.999 -67.5zM880.998 621.998c-29.333 0 -50.5 6.5 -63.5 19.5s-19.5 33.833 -19.5 62.5s6.33301 49.5 19 62.5s34 19.5 64 19.5s51.667 -6.66699 65 -20s20 -34 20 -62s-6.66699 -48.667 -20 -62s-35 -20 -65 -20z" />
    <glyph glyph-name="f_f_k" unicode="ffk" horiz-adv-x="1292" 
d="M101 414l-88.002 -0.00195312v126h89v28c0 45.333 4.83301 83.333 14.5 114s25.5 55.5 47.5 74.5s51 33 87 42s80.667 14.5 134 16.5l8 -113c-27.333 -2 -50.166 -5.16699 -68.499 -9.5s-32.833 -11.166 -43.5 -20.499s-18.167 -21.5 -22.5 -36.5
s-6.5 -33.833 -6.5 -56.5v-39h212v28c0 45.333 4.83301 83.333 14.5 114s25.5 55.5 47.5 74.5s51 33 87 42s80.667 14.5 134 16.5l8 -113c-27.333 -2 -50.166 -5.16699 -68.499 -9.5s-32.833 -11.166 -43.5 -20.499s-18.167 -21.5 -22.5 -36.5s-6.5 -33.833 -6.5 -56.5v-39
h119v-126h-119v-414h-151v414h-211v-414h-151v414zM801.998 807.998h151v-477h48l120 209h164l-161 -251l-23 -9v-4l24 -9l177 -267h-164l-138 225h-47v-225h-151v808z" />
    <glyph glyph-name="f_f_t" unicode="fft" horiz-adv-x="1120" 
d="M1002 -8c-58 0 -101.503 13.498 -130.503 40.498s-43.5 66.5 -43.5 118.5v263h-214v-414h-151v414h-211v-414h-151v414h-88v126h89v28c0 45.333 4.83301 83.333 14.5 114s25.5 55.5 47.5 74.5s51 33 87 42s80.667 14.5 134 16.5l8 -113
c-27.333 -2 -50.166 -5.16699 -68.499 -9.5s-32.833 -11.166 -43.5 -20.499s-18.167 -21.5 -22.5 -36.5s-6.5 -33.833 -6.5 -56.5v-39h212v28c0 45.333 4.83301 83.333 14.5 114s25.5 55.5 47.5 74.5s51 33 87 42s80.667 14.5 134 16.5l8 -113
c-27.333 -2 -50.166 -5.16699 -68.499 -9.5s-32.833 -11.166 -43.5 -20.499s-18.167 -21.5 -22.5 -36.5s-6.5 -33.833 -6.5 -56.5v-39h222l21 153l120 14v-167h120v-127h-119v-227c0 -29.333 5.33301 -50 16 -62s27.334 -18 50.001 -18c16.667 0 34.667 3 54 9v-112
c-29.333 -7.33301 -61.333 -11 -96 -11z" />
    <glyph glyph-name="f_h" unicode="fh" horiz-adv-x="955" 
d="M440 808l151 0.000976562v-321c40 23.333 73.667 39.666 101 48.999s54.333 14 81 14c42 0 74.333 -12.667 97 -38s34 -61.333 34 -108v-404h-151v353c0 46.667 -17.667 70 -53 70c-14 0 -30.333 -3 -49 -9s-38.667 -14.667 -60 -26v-388h-151v808zM101 414.001
l-88.001 -0.000976562v126h89v28c0 45.333 4.83301 83.333 14.5 114s25.5 55.5 47.5 74.5s51 33 87 42s80.667 14.5 134 16.5l8 -113c-27.333 -2 -50.166 -5.16699 -68.499 -9.5s-32.833 -11.166 -43.5 -20.499s-18.167 -21.5 -22.5 -36.5s-6.5 -33.833 -6.5 -56.5v-39h119
v-126h-119v-414h-151v414z" />
    <glyph glyph-name="f_j" unicode="fj" horiz-adv-x="649" 
d="M101 414l-88.001 -0.000976562v126h89v28c0 45.333 4.83301 83.333 14.5 114s25.5 55.5 47.5 74.5s51 33 87 42s80.667 14.5 134 16.5l8 -113c-27.333 -2 -50.166 -5.16699 -68.499 -9.5s-32.833 -11.166 -43.5 -20.499s-18.167 -21.5 -22.5 -36.5
s-6.5 -33.833 -6.5 -56.5v-39h119v-126h-119v-414h-151v414zM518.999 621.999c-29.333 0 -50.5 6.5 -63.5 19.5s-19.5 33.833 -19.5 62.5s6.33301 49.5 19 62.5s34 19.5 64 19.5s51.667 -6.66699 65 -20s20 -34 20 -62s-6.66699 -48.667 -20 -62s-35 -20 -65 -20z
M396.999 -192.001c16 44 28 92 36 144s12 110 12 174v32.5v72.5v93v95c0 30 -0.166992 56.167 -0.5 78.5s-0.5 36.5 -0.5 42.5h151v-464c-0.666992 -24 -3.33398 -49.167 -8.00098 -75.5s-11 -52.333 -19 -78s-17.667 -50.667 -29 -75s-23.666 -46.833 -36.999 -67.5z" />
    <glyph glyph-name="f_k" unicode="fk" horiz-adv-x="930" 
d="M440 808h151v-477h48l120 209h164l-161 -251l-23 -9v-4l24 -9l177 -267h-164l-138 225h-47v-225h-151v808zM101 414l-88.001 -0.000976562v126h89v28c0 45.333 4.83301 83.333 14.5 114s25.5 55.5 47.5 74.5s51 33 87 42s80.667 14.5 134 16.5l8 -113
c-27.333 -2 -50.166 -5.16699 -68.499 -9.5s-32.833 -11.166 -43.5 -20.499s-18.167 -21.5 -22.5 -36.5s-6.5 -33.833 -6.5 -56.5v-39h119v-126h-119v-414h-151v414z" />
    <glyph glyph-name="f_t" unicode="ft" horiz-adv-x="757" 
d="M640 -8c-58 0 -101.502 13.499 -130.502 40.499s-43.5 66.5 -43.5 118.5v263h-214v-414h-151v414h-88v126h89v28c0 45.333 4.83301 83.333 14.5 114s25.5 55.5 47.5 74.5s51 33 87 42s80.667 14.5 134 16.5l8 -113c-27.333 -2 -50.166 -5.16699 -68.499 -9.5
s-32.833 -11.166 -43.5 -20.499s-18.167 -21.5 -22.5 -36.5s-6.5 -33.833 -6.5 -56.5v-39h222l21 153l120 14v-167h120v-127h-119v-227c0 -29.333 5.33301 -50 16 -62s27.334 -18 50.001 -18c16.667 0 34.667 3 54 9v-112c-29.333 -7.33301 -61.333 -11 -96 -11z" />
    <glyph glyph-name=".notdef" horiz-adv-x="713" 
d="M73 1030h566v-1250h-566v1250zM515 -104v1019h-318v-1019h318z" />
    <glyph glyph-name="NULL" horiz-adv-x="0" 
 />
    <glyph glyph-name="NULL" horiz-adv-x="0" 
 />
    <glyph glyph-name="nonmarkingreturn" unicode="&#xd;" horiz-adv-x="280" 
 />
    <glyph glyph-name="space" unicode=" " horiz-adv-x="189" 
 />
    <glyph glyph-name="exclam" unicode="!" horiz-adv-x="270" 
d="M136 -5c-26 0 -46.333 6.83301 -61 20.5s-22 33.167 -22 58.5s7.33301 44.833 22 58.5s35 20.5 61 20.5c26.667 0 47.334 -6.83301 62.001 -20.5s22 -33.167 22 -58.5s-7.33301 -44.833 -22 -58.5s-35.334 -20.5 -62.001 -20.5zM89 250l-32 480v10h157v-10l-31 -480v-11
h-94v11z" />
    <glyph glyph-name="quotedbl" unicode="&#x22;" horiz-adv-x="402" 
d="M170 808v-4l-40 -324h-80v328h120zM370 808v-4l-40 -324h-80v328h120z" />
    <glyph glyph-name="numbersign" unicode="#" horiz-adv-x="552" 
d="M309 204h-95l-16 -204h-103l16 204h-72v95h80l11 142h-91v95h99l17 204h103l-17 -204h95l17 204h103l-17 -204h75v-95h-83l-11 -142h93v-95h-101l-16 -204h-104zM222 299h95l11 142h-95z" />
    <glyph glyph-name="dollar" unicode="$" horiz-adv-x="552" 
d="M223 -10c-30 2 -61.165 5.66211 -93.498 10.9951s-63.833 13 -94.5 23l2 128c15.333 -5.33301 31.833 -10.166 49.5 -14.499s35.667 -8.16602 54 -11.499s36.166 -6 53.499 -8s33.666 -3 48.999 -3c82.667 0 124 29.667 124 89c0 15.333 -3 28.333 -9 39
s-14.833 19.834 -26.5 27.501s-25.5 14.5 -41.5 20.5s-34 12 -54 18c-29.333 8 -55.833 17.333 -79.5 28s-44 24.834 -61 42.501s-30.167 39.167 -39.5 64.5s-14 56.666 -14 93.999c0 54 15.167 98.667 45.5 134s73.833 59 130.5 71v136h130v-130
c21.333 -1.33301 43.5 -4.16602 66.5 -8.49902s48.167 -9.83301 75.5 -16.5l-1 -125c-29.333 8 -60.166 14.5 -92.499 19.5s-60.166 7.5 -83.499 7.5c-36.667 0 -64.834 -7.33301 -84.501 -22s-29.5 -36 -29.5 -64c0 -15.333 3.16699 -28.333 9.5 -39
s15.5 -20.167 27.5 -28.5s26.667 -16 44 -23s37 -14.167 59 -21.5c28 -9.33301 53.333 -19.666 76 -30.999s42.167 -25.333 58.5 -42s28.833 -36.5 37.5 -59.5s13 -50.833 13 -83.5c0 -57.333 -14.833 -104.333 -44.5 -141s-71.834 -61 -126.501 -73v-137h-130v129z" />
    <glyph glyph-name="percent" unicode="%" horiz-adv-x="973" 
d="M217 277c-61.333 0 -108 19.833 -140 59.5s-48 98.5 -48 176.5s16 137 48 177s78.667 60 140 60s108 -20 140 -60s48 -99 48 -177s-16 -136.833 -48 -176.5s-78.667 -59.5 -140 -59.5zM217 374c26.667 0 45.833 10.667 57.5 32s17.5 57 17.5 107s-6 85.667 -18 107
s-31 32 -57 32c-26.667 0 -46 -10.667 -58 -32s-18 -57 -18 -107s5.83301 -85.667 17.5 -107s31.167 -32 58.5 -32zM756.999 -11c-61.333 0 -108 19.833 -140 59.5s-48 98.5 -48 176.5s16.167 137 48.5 177s78.833 60 139.5 60c61.333 0 108 -20 140 -60s48 -99 48 -177
s-16 -136.833 -48 -176.5s-78.667 -59.5 -140 -59.5zM756.999 86c26.667 0 46 10.667 58 32s18 57 18 107s-6 85.833 -18 107.5s-31.333 32.5 -58 32.5s-46 -10.833 -58 -32.5s-18 -57.5 -18 -107.5s6 -85.667 18 -107s31.333 -32 58 -32zM566.999 740h126l-289 -740h-125z
" />
    <glyph glyph-name="ampersand" unicode="&#x26;" horiz-adv-x="692" 
d="M308 -10c-41.333 0 -78.8311 5 -112.498 15s-62.167 24.333 -85.5 43s-41.333 41.334 -54 68.001s-19 56.667 -19 90c0 46 11.5 85.667 34.5 119s55.5 57 97.5 71c-25.333 28 -43.333 55.167 -54 81.5s-16 54.166 -16 83.499c0 61.333 21 108.5 63 141.5
s101.333 49.5 178 49.5c29.333 0 58.666 -2.5 87.999 -7.5s60.666 -13.167 93.999 -24.5l1 -5l-17 -110h-6c-24.667 9.33301 -50 16.666 -76 21.999s-49.333 8 -70 8c-70 0 -105 -30.667 -105 -92c0 -32 13.833 -63.333 41.5 -94s71.834 -64.667 132.501 -102l64 -40
c0 5.33301 0.166992 11 0.5 17s0.5 12 0.5 18v76l133 6v-81c0 -39.333 -3.66699 -76.666 -11 -111.999l82 -50v-7l-55 -119h-7l-74 50c-26.667 -38 -60.834 -66.667 -102.501 -86s-90.167 -29 -145.5 -29zM368.002 234c-23.333 15.333 -44.666 30 -63.999 44
s-37 27.667 -53 41c-41.333 -19.333 -62 -54 -62 -104c0 -34 11.667 -61 35 -81s54.666 -30 93.999 -30c64 0 109.333 23.667 136 71z" />
    <glyph glyph-name="quotesingle" unicode="'" horiz-adv-x="202" 
d="M170 808v-4l-40 -324h-80v328h120z" />
    <glyph glyph-name="parenleft" unicode="(" horiz-adv-x="320" 
d="M183 -160c-50.667 74.667 -88.834 156 -114.501 244s-38.5 178 -38.5 270c0 92.667 12.833 182.834 38.5 270.501s63.834 168.834 114.501 243.501h132v-4c-50.667 -74.667 -90.5 -155.334 -119.5 -242.001s-43.5 -176 -43.5 -268s14.5 -181.333 43.5 -268
s68.833 -167.334 119.5 -242.001v-4h-132v0z" />
    <glyph glyph-name="parenright" unicode=")" horiz-adv-x="319" 
d="M5 -160v4c50.667 74.667 90.334 155.334 119.001 242.001s43 176 43 268s-14.333 181.333 -43 268s-68.334 167.334 -119.001 242.001v4h131c51.333 -74.667 89.833 -155.834 115.5 -243.501s38.5 -177.834 38.5 -270.501c0 -92 -12.833 -182 -38.5 -270
s-64.167 -169.333 -115.5 -244h-131z" />
    <glyph glyph-name="asterisk" unicode="*" horiz-adv-x="491" 
d="M82 480l45 62l82 71l-108 9l-71 23l28 89l72 -23l94 -57l-25 108v75h93v-75l-25 -108l93 57l72 23l29 -89l-72 -23l-109 -9l84 -71l44 -62l-75 -54l-45 61l-43 103l-43 -103l-44 -61z" />
    <glyph glyph-name="plus" unicode="+" horiz-adv-x="505" 
d="M32 422h169v161h104v-161h169v-104h-169v-161h-104v161h-169v104z" />
    <glyph glyph-name="comma" unicode="," horiz-adv-x="253" 
d="M17 -145l43 299h153l-83 -309z" />
    <glyph glyph-name="hyphen" unicode="-" horiz-adv-x="427" 
d="M49 336h328v-112h-328v112z" />
    <glyph glyph-name="period" unicode="." horiz-adv-x="248" 
d="M123 -7c-56.667 0 -85.001 27.333 -85.001 82c0 28.667 7 49.5 21 62.5s35.333 19.5 64 19.5s50.334 -6.5 65.001 -19.5s22 -33.833 22 -62.5c0 -54.667 -29 -82 -87 -82z" />
    <glyph glyph-name="slash" unicode="/" horiz-adv-x="365" 
d="M212 740h130l-188 -860h-131z" />
    <glyph glyph-name="zero" unicode="0" horiz-adv-x="633" 
d="M316 -10c-90.667 0 -159.667 31.834 -207 95.501s-71 158.167 -71 283.5s23.667 220.166 71 284.499s116.333 96.5 207 96.5s159.667 -32 207 -96s71 -159 71 -285c0 -125.333 -23.667 -219.833 -71 -283.5s-116.333 -95.5 -207 -95.5zM316 116.001
c22 0 40.833 4.66895 56.5 14.002s28.5 24.166 38.5 44.499s17.333 46.5 22 78.5s7 70.667 7 116c0 91.333 -9.83301 156.666 -29.5 195.999s-51.167 59 -94.5 59s-74.833 -19.833 -94.5 -59.5s-29.5 -104.834 -29.5 -195.501c0 -45.333 2.33301 -84 7 -116
s12 -58.167 22 -78.5s22.833 -35.166 38.5 -44.499s34.5 -14 56.5 -14z" />
    <glyph glyph-name="one" unicode="1" horiz-adv-x="414" 
d="M184 573h-4l-133 -57h-16l-23 77l3 16l212 131h116v-740h-155v573z" />
    <glyph glyph-name="two" unicode="2" horiz-adv-x="530" 
d="M34 118c0 32 3.83203 60.668 11.499 86.001s19.334 48.5 35.001 69.5s35 40.333 58 58s50.167 35.5 81.5 53.5c41.333 24 71.166 46.667 89.499 68s27.5 46.666 27.5 75.999c0 32.667 -9.83301 56.5 -29.5 71.5s-51.167 22.5 -94.5 22.5c-23.333 0 -48 -2 -74 -6
s-51 -9.66699 -75 -17l-13 123c40 9.33301 76.833 16 110.5 20s65.167 6 94.5 6c156.667 0 235 -67.333 235 -202c0 -54 -13.667 -100 -41 -138s-68 -73.667 -122 -107c-25.333 -16.667 -46.5 -31.167 -63.5 -43.5s-30.667 -23.833 -41 -34.5s-17.666 -21.167 -21.999 -31.5
s-6.5 -21.833 -6.5 -34.5v-31h293v-127h-454v118z" />
    <glyph glyph-name="three" unicode="3" horiz-adv-x="503" 
d="M192 -10c-25.333 0 -51.165 1.16895 -77.498 3.50195s-50.833 5.83301 -73.5 10.5v116h5c14 -4.66699 32.333 -8.33398 55 -11.001s44.667 -4 66 -4c52 0 89 8.33301 111 25s33 44 33 82c0 39.333 -11.333 67.666 -34 84.999s-62.667 26 -120 26h-43v108h42
c25.333 0 46.666 1.83301 63.999 5.5s31.166 9.5 41.499 17.5s17.833 18.5 22.5 31.5s7 29.167 7 48.5c0 34.667 -9 59.834 -27 75.501s-48 23.5 -90 23.5c-16 0 -34.833 -1.33301 -56.5 -4s-45.167 -6.33398 -70.5 -11.001h-5l-2 116c22 5.33301 46.5 9.33301 73.5 12
s52.833 4 77.5 4c170.667 0 256 -63 256 -189c0 -46.667 -10.667 -85 -32 -115s-52.333 -50.667 -93 -62v-4c46 -10 81.667 -30.5 107 -61.5s38 -70.5 38 -118.5c0 -66.667 -23.667 -118 -71 -154s-115.333 -54.667 -204 -56z" />
    <glyph glyph-name="four" unicode="4" horiz-adv-x="583" 
d="M12 246v6l240 498h4l149 -12l7 -8l-244 -457v-5h164l36 206h112v-206h84v-114h-84v-154h-154v154h-296z" />
    <glyph glyph-name="five" unicode="5" horiz-adv-x="503" 
d="M192 -12c-22 0 -45.166 1.33301 -69.499 4s-51.5 6.66699 -81.5 12v122h33c36.667 -8.66699 71 -13 103 -13c48 0 83.667 8.83301 107 26.5s35 46.167 35 85.5c0 20.667 -3.33301 38.167 -10 52.5s-17.5 25.833 -32.5 34.5s-34.833 15 -59.5 19s-55.334 6 -92.001 6h-69
l-7 7l27 396h356v-126h-239l-11 -167c50.667 -0.666992 94.5 -5.16699 131.5 -13.5s67.5 -21.5 91.5 -39.5s41.833 -41 53.5 -69s17.5 -62 17.5 -102c0 -39.333 -6.83301 -73.833 -20.5 -103.5s-33 -54.167 -58 -73.5s-55 -33.833 -90 -43.5s-73.5 -14.5 -115.5 -14.5z" />
    <glyph glyph-name="six" unicode="6" horiz-adv-x="594" 
d="M307 -10c-87.333 0 -154.001 29.167 -200.001 87.5s-69 143.5 -69 255.5c0 137.333 29.167 241.166 87.5 311.499s145.166 105.5 260.499 105.5c41.333 0 88 -6 140 -18l-17 -118c-24.667 5.33301 -46.167 9.33301 -64.5 12s-36.166 4 -53.499 4
c-62.667 0 -110 -17.333 -142 -52s-51.667 -89.667 -59 -165c19.333 17.333 42.166 30.833 68.499 40.5s54.5 14.5 84.5 14.5c34 0 65 -5.16699 93 -15.5s51.667 -25.166 71 -44.499s34.333 -42.5 45 -69.5s16 -57.5 16 -91.5c0 -39.333 -6.16699 -74.833 -18.5 -106.5
s-29.666 -58.667 -51.999 -81s-49.666 -39.5 -81.999 -51.5s-68.5 -18 -108.5 -18zM305.999 361c-22 0 -43.832 -4.83105 -65.499 -14.498s-39.5 -22.167 -53.5 -37.5c2 -68.667 12.5 -118.834 31.5 -150.501s48.5 -47.5 88.5 -47.5c35.333 0 62.166 11.167 80.499 33.5
s27.5 55.166 27.5 98.499c0 78.667 -36.333 118 -109 118z" />
    <glyph glyph-name="seven" unicode="7" horiz-adv-x="472" 
d="M210 -19l-128 19v18l221 593h-283l-3 112l18 17h406l20 -86v-24l-221 -629z" />
    <glyph glyph-name="eight" unicode="8" horiz-adv-x="585" 
d="M293 -4c-84 0 -147.669 16.499 -191.002 49.499s-65 79.5 -65 139.5c0 46 9.83301 84.333 29.5 115s47.5 55.667 83.5 75c-27.333 17.333 -49.666 39.833 -66.999 67.5s-26 64.834 -26 111.501c0 30 5.66699 57 17 81s27.5 44.5 48.5 61.5s46.167 30 75.5 39
s62 13.5 98 13.5c72 0 128.833 -17.333 170.5 -52s62.5 -82.334 62.5 -143.001c0 -40.667 -7.16699 -73.667 -21.5 -99s-37.833 -47.666 -70.5 -66.999c32 -16 58.5 -37.833 79.5 -65.5s31.5 -66.5 31.5 -116.5c0 -66 -21.667 -117.5 -65 -154.5
s-106.666 -55.5 -189.999 -55.5zM404.998 193.999c0 20 -3.66602 37.1709 -10.999 51.5039s-17.5 26.666 -30.5 36.999s-28.5 19.166 -46.5 26.499s-37.667 14.333 -59 21c-23.333 -14.667 -42.333 -31.834 -57 -51.501s-22 -44.5 -22 -74.5
c0 -34.667 10.167 -61.334 30.5 -80.001s48.166 -28 83.499 -28s62.833 8.5 82.5 25.5s29.5 41.167 29.5 72.5zM192.999 545.003c0 -17.333 3.33496 -32.167 10.002 -44.5s16 -23 28 -32s26.167 -16.667 42.5 -23s34.166 -12.5 53.499 -18.5
c21.333 14 37.666 30.833 48.999 50.5s17 43.834 17 72.501c0 31.333 -8.66699 55.166 -26 71.499s-42 24.5 -74 24.5c-31.333 0 -55.833 -8.66699 -73.5 -26s-26.5 -42.333 -26.5 -75z" />
    <glyph glyph-name="nine" unicode="9" horiz-adv-x="594" 
d="M287 750c87.333 0 154.001 -29.167 200.001 -87.5s69 -143.5 69 -255.5c0 -137.333 -29.167 -241.166 -87.5 -311.499s-145.166 -105.5 -260.499 -105.5c-41.333 0 -88 6 -140 18l17 118c24.667 -5.33301 46.167 -9.33301 64.5 -12s36.166 -4 53.499 -4
c62.667 0 110 17.333 142 52s51.667 89.667 59 165c-19.333 -17.333 -42.166 -30.833 -68.499 -40.5s-54.5 -14.5 -84.5 -14.5c-34 0 -65 5.16699 -93 15.5s-51.667 25.166 -71 44.499s-34.333 42.5 -45 69.5s-16 57.5 -16 91.5c0 39.333 6.16699 74.833 18.5 106.5
s29.666 58.667 51.999 81s49.666 39.5 81.999 51.5s68.5 18 108.5 18zM288.001 379c22 0 43.832 4.83105 65.499 14.498s39.5 22.167 53.5 37.5c-2 68.667 -12.5 118.834 -31.5 150.501s-48.5 47.5 -88.5 47.5c-35.333 0 -62.166 -11.167 -80.499 -33.5
s-27.5 -55.166 -27.5 -98.499c0 -78.667 36.333 -118 109 -118z" />
    <glyph glyph-name="colon" unicode=":" horiz-adv-x="263" 
d="M130 -7c-56.667 0 -85.001 27.333 -85.001 82c0 28.667 7 49.5 21 62.5s35.333 19.5 64 19.5s50.334 -6.5 65.001 -19.5s22 -33.833 22 -62.5c0 -54.667 -29 -82 -87 -82zM129.999 383c-56.667 0 -85.001 27.333 -85.001 82c0 28.667 7 49.5 21 62.5s35.333 19.5 64 19.5
s50.334 -6.5 65.001 -19.5s22 -33.833 22 -62.5c0 -54.667 -29 -82 -87 -82z" />
    <glyph glyph-name="semicolon" unicode=";" horiz-adv-x="274" 
d="M26 -145l43 299h153l-83 -309zM142 383c-56.667 0 -85.001 27.333 -85.001 82c0 28.667 7 49.5 21 62.5s35.333 19.5 64 19.5s50.334 -6.5 65.001 -19.5s22 -33.833 22 -62.5c0 -54.667 -29 -82 -87 -82z" />
    <glyph glyph-name="less" unicode="&#x3c;" horiz-adv-x="534" 
d="M31 313v102l449 194v-115l-302 -130l301 -130v-115z" />
    <glyph glyph-name="equal" unicode="=" horiz-adv-x="526" 
d="M53 295h420v-108h-420v108zM53 514h420v-107h-420v107z" />
    <glyph glyph-name="greater" unicode="&#x3e;" horiz-adv-x="535" 
d="M56 234l301 130l-302 130v115l449 -194v-102l-448 -194v115z" />
    <glyph glyph-name="question" unicode="?" horiz-adv-x="438" 
d="M125 234l-12.0039 181.002c22 4.66699 42.5 10.334 61.5 17.001s35.333 14.667 49 24s24.334 20.666 32.001 33.999s11.5 29 11.5 47c0 34 -10.333 58 -31 72s-47 21 -79 21c-19.333 0 -40.5 -1.83301 -63.5 -5.5s-42.5 -7.83398 -58.5 -12.501l-7 114
c25.333 7.33301 51 12.833 77 16.5s53 5.5 81 5.5c34 0 64.833 -4 92.5 -12s51.334 -20.167 71.001 -36.5s35 -36.833 46 -61.5s16.5 -53.667 16.5 -87c0 -29.333 -4.66699 -55.5 -14 -78.5s-22.166 -42.833 -38.499 -59.5s-35.666 -30.334 -57.999 -41.001
s-46.5 -18.667 -72.5 -24l-6 -113v-16h-98v15zM175.996 -6.99805c-26 0 -46.333 7 -61 21s-22 33.667 -22 59s7.33301 44.833 22 58.5s35 20.5 61 20.5c26.667 0 47.334 -6.83301 62.001 -20.5s22 -33.167 22 -58.5s-7.33301 -45 -22 -59s-35.334 -21 -62.001 -21z" />
    <glyph glyph-name="at" unicode="@" horiz-adv-x="832" 
d="M406 -136c-48.667 0 -95.3379 7.17188 -140.005 21.5049s-84.167 37.333 -118.5 69s-61.666 72.667 -81.999 123s-30.5 111.5 -30.5 183.5c0 67.333 9.66699 126.666 29 177.999s46.333 94.5 81 129.5s76.334 61.5 125.001 79.5s102.334 27 161.001 27
c62.667 0 116.667 -8.66699 162 -26s82.666 -42 111.999 -74s51 -70.667 65 -116s21 -96.333 21 -153c0 -39.333 -3.83301 -74.833 -11.5 -106.5s-19.167 -58.667 -34.5 -81s-34.5 -39.5 -57.5 -51.5s-49.833 -18 -80.5 -18c-29.333 0 -53.166 6.83301 -71.499 20.5
s-29.5 35.5 -33.5 65.5h-4c-18 -28.667 -40.333 -49.167 -67 -61.5s-53.667 -18.5 -81 -18.5c-23.333 0 -43.666 4.5 -60.999 13.5s-31.666 21.5 -42.999 37.5s-19.833 34.833 -25.5 56.5s-8.5 44.834 -8.5 69.501c0 38 5.5 72.833 16.5 104.5s26.667 59.167 47 82.5
s45.166 41.5 74.499 54.5s62.333 19.5 99 19.5c22 0 46.333 -3.33301 73 -10s55.334 -16.334 86.001 -29.001l-37 -206c-2 -11.333 -3.83301 -22.333 -5.5 -33s-2.5 -21 -2.5 -31c0 -16 3.33301 -29.333 10 -40s19.334 -16 38.001 -16c28 0 49.167 15.833 63.5 47.5
s21.5 75.167 21.5 130.5c0 43.333 -5 82.333 -15 117s-25.833 64.167 -47.5 88.5s-49.167 43 -82.5 56s-73.333 19.5 -120 19.5c-45.333 0 -86.5 -7 -123.5 -21s-68.667 -34.833 -95 -62.5s-46.833 -61.834 -61.5 -102.501s-22 -87.334 -22 -140.001
c0 -56.667 7.66699 -104.834 23 -144.501s35.666 -72 60.999 -97s54.833 -43.167 88.5 -54.5s68.5 -17 104.5 -17c28 0 58.5 3.66699 91.5 11s67.167 16.666 102.5 27.999l29 -80c-39.333 -12.667 -77.833 -23 -115.5 -31s-73.5 -12 -107.5 -12zM368.996 136.005
c10.667 0 22 2.16699 34 6.5s23.5 11.5 34.5 21.5s20.667 23 29 39s14.5 35.667 18.5 59l24 142c-22 6 -41.667 9 -59 9c-22 0 -42 -4.5 -60 -13.5s-33.167 -21.667 -45.5 -38s-22 -35.5 -29 -57.5s-10.5 -46 -10.5 -72s4.83301 -48.5 14.5 -67.5s26.167 -28.5 49.5 -28.5z
" />
    <glyph glyph-name="A" unicode="A" horiz-adv-x="651" 
d="M0 7l210 733h231l210 -733v-7h-147l-53 184h-252l-52 -184h-147v7zM419 307l-56 198l-32 121h-12l-32 -121l-56 -198h188z" />
    <glyph glyph-name="B" unicode="B" horiz-adv-x="628" 
d="M289 -10c-36.667 0 -74.332 1.16797 -112.999 3.50098s-76 6.16602 -112 11.499v730c46 5.33301 86.333 9.16602 121 11.499s68 3.5 100 3.5c101.333 0 175.166 -16.5 221.499 -49.5s69.5 -85.833 69.5 -158.5c0 -87.333 -38.333 -140.666 -115 -159.999v-4
c44 -8.66699 77.667 -28.167 101 -58.5s35 -69.833 35 -118.5c0 -140.667 -102.667 -211 -308 -211zM304.002 105.001c90.667 1.33301 136 36.667 136 106c0 38.667 -10.667 66.167 -32 82.5s-57.333 24.5 -108 24.5h-93v-207c18 -4 50.333 -6 97 -6zM295.002 427.002
c22.667 0 42 1.83496 58 5.50195s28.833 9.66699 38.5 18s16.667 19.166 21 32.499s6.5 29.666 6.5 48.999c0 36 -9.66699 62 -29 78s-50 24 -92 24c-16 0 -31.333 -0.5 -46 -1.5s-29.667 -2.5 -45 -4.5v-201h88z" />
    <glyph glyph-name="C" unicode="C" horiz-adv-x="535" 
d="M361 -10c-110 0 -191.831 30.665 -245.498 91.998s-80.5 157 -80.5 287c0 130.667 26.667 226.834 80 288.501s133.666 92.5 240.999 92.5c44 0 94 -5 150 -15v-124c-25.333 4 -48.5 7 -69.5 9s-40.5 3 -58.5 3c-34 0 -62.667 -4 -86 -12s-42.333 -21.667 -57 -41
s-25.167 -45.333 -31.5 -78s-9.5 -73.667 -9.5 -123c0 -48.667 3.16699 -89.167 9.5 -121.5s16.833 -58.166 31.5 -77.499s33.5 -33 56.5 -41s51.167 -12 84.5 -12c19.333 0 41.166 1.33301 65.499 4s45.833 6 64.5 10v-122c-17.333 -5.33301 -39 -9.83301 -65 -13.5
s-52.667 -5.5 -80 -5.5z" />
    <glyph glyph-name="D" unicode="D" horiz-adv-x="675" 
d="M247 -13c-57.333 0 -118.332 4 -182.999 12v739c44 3.33301 82.333 6 115 8s62 3 88 3c66.667 0 123.5 -7.16699 170.5 -21.5s85.5 -36.833 115.5 -67.5s52 -70 66 -118s21 -105.667 21 -173c0 -68 -7.33301 -126.167 -22 -174.5s-37.667 -87.833 -69 -118.5
s-71.833 -53.167 -121.5 -67.5s-109.834 -21.5 -180.501 -21.5zM301.001 112c33.333 0 61.501 4.33301 84.501 13s41.5 23 55.5 43s24.167 46.5 30.5 79.5s9.5 73.833 9.5 122.5c0 48 -3.16699 88.333 -9.5 121s-16.833 59 -31.5 79s-34 34.333 -58 43s-53.667 13 -89 13
c-25.333 0 -51 -2 -77 -6v-502c17.333 -2 32.666 -3.5 45.999 -4.5s26.333 -1.5 39 -1.5z" />
    <glyph glyph-name="E" unicode="E" horiz-adv-x="576" 
d="M64 740h470v-127h-316v-178h283v-126h-283v-182h325v-127h-479v740z" />
    <glyph glyph-name="F" unicode="F" horiz-adv-x="549" 
d="M64 740h460v-127h-306v-194h276v-126h-276v-293h-154v740z" />
    <glyph glyph-name="G" unicode="G" horiz-adv-x="620" 
d="M362 -10c-111.333 0 -193.833 31.166 -247.5 93.499s-80.5 157.5 -80.5 285.5c0 129.333 29.167 225.166 87.5 287.499s147.833 93.5 268.5 93.5c26.667 0 55.334 -1.83301 86.001 -5.5s60.334 -9.16699 89.001 -16.5v-123c-68 12 -121.667 18 -161 18
c-40 0 -73.333 -4.33301 -100 -13s-48.334 -23 -65.001 -43s-28.5 -46.167 -35.5 -78.5s-10.5 -72.166 -10.5 -119.499s3.16699 -87.166 9.5 -119.499s16.666 -58.333 30.999 -78s33.166 -33.667 56.499 -42s52 -12.5 86 -12.5c17.333 0 36.666 1 57.999 3v256h140v-363
c-43.333 -7.33301 -82.166 -13 -116.499 -17s-66.166 -6 -95.499 -6z" />
    <glyph glyph-name="H" unicode="H" horiz-adv-x="714" 
d="M64 740h154v-298h277v298h155v-740h-155v315h-277v-315h-154v740z" />
    <glyph glyph-name="I" unicode="I" horiz-adv-x="282" 
d="M64 740h154v-740h-154v740z" />
    <glyph glyph-name="J" unicode="J" horiz-adv-x="282" 
d="M-11 -159c14.667 34 27.001 64.8359 37.001 92.5029s18 55 24 82s10.167 54.667 12.5 83s3.5 59.833 3.5 94.5v547h155v-559c0 -34 -2.33301 -66.333 -7 -97s-12.334 -61.334 -23.001 -92.001s-24.5 -61.834 -41.5 -93.501s-37.833 -65.834 -62.5 -102.501z" />
    <glyph glyph-name="K" unicode="K" horiz-adv-x="649" 
d="M64 740h154v-300h86l159 300h172l-183 -330l-50 -27v-7l52 -26l200 -350h-172l-177 313h-87v-313h-154v740z" />
    <glyph glyph-name="L" unicode="L" horiz-adv-x="492" 
d="M64 740h154v-614h262v-126h-416v740z" />
    <glyph glyph-name="M" unicode="M" horiz-adv-x="904" 
d="M64 740h216l136 -387l32 -130h7l32 130l136 387h217v-740h-143v552h-6l-45 -148l-130 -369h-130l-130 369l-46 148h-6v-552h-140v740z" />
    <glyph glyph-name="N" unicode="N" horiz-adv-x="720" 
d="M64 740h128l274 -403l46 -82h8v485h137v-740h-128l-273 402l-47 84h-9v-486h-136v740z" />
    <glyph glyph-name="O" unicode="O" horiz-adv-x="702" 
d="M351 -10c-210.667 0 -316 126.333 -316 379c0 254 105.333 381 316 381s316 -127 316 -381c0 -252.667 -105.333 -379 -316 -379zM351 117c28.667 0 53 4.33301 73 13s36.333 23 49 43s21.834 46 27.501 78s8.5 71.333 8.5 118s-2.83301 86.167 -8.5 118.5
s-14.834 58.666 -27.501 78.999s-29 35 -49 44s-44.333 13.5 -73 13.5s-53 -4.5 -73 -13.5s-36.333 -23.667 -49 -44s-21.834 -46.666 -27.501 -78.999s-8.5 -71.833 -8.5 -118.5c0 -46 2.83301 -85 8.5 -117s14.834 -58 27.501 -78s29 -34.5 49 -43.5
s44.333 -13.5 73 -13.5z" />
    <glyph glyph-name="P" unicode="P" horiz-adv-x="617" 
d="M64 735c66 10 130.999 15 194.999 15c58.667 0 109.334 -5 152.001 -15s77.667 -25.833 105 -47.5s47.5 -49.167 60.5 -82.5s19.5 -73 19.5 -119c0 -90.667 -26.667 -157 -80 -199s-137.333 -63 -252 -63h-46v-224h-154v735zM284.999 347
c28 0 51.834 2.33203 71.501 6.99902s35.5 12.5 47.5 23.5s20.667 25.333 26 43s8 39.5 8 65.5c0 50.667 -11.167 86.667 -33.5 108s-61.833 32 -118.5 32c-10.667 0 -22.5 -0.666992 -35.5 -2s-23.833 -2.66602 -32.5 -3.99902v-268
c9.33301 -1.33301 20.166 -2.5 32.499 -3.5s23.833 -1.5 34.5 -1.5z" />
    <glyph glyph-name="Q" unicode="Q" horiz-adv-x="700" 
d="M604 -140c-108 26 -198.5 53.3311 -271.5 81.998s-131.667 62.334 -176 101.001s-76 84.167 -95 136.5s-28.5 115.5 -28.5 189.5c0 254 105.333 381 316 381c211.333 0 317 -127 317 -381c0 -100 -21.333 -178 -64 -234s-106 -89.333 -190 -100v-11
c24 -6.66699 45.833 -12.167 65.5 -16.5s39.5 -8.16602 59.5 -11.499s41 -6 63 -8s46.667 -4 74 -6zM349 113.998c29.333 0 54.166 4.5 74.499 13.5s37 23.667 50 44s22.5 46.666 28.5 78.999s9 71.833 9 118.5s-3 86.334 -9 119.001s-15.5 59.334 -28.5 80.001
s-29.667 35.5 -50 44.5s-45.166 13.5 -74.499 13.5s-54 -4.5 -74 -13.5s-36.5 -23.833 -49.5 -44.5s-22.333 -47.334 -28 -80.001s-8.5 -72.334 -8.5 -119.001s2.83301 -86.167 8.5 -118.5s14.834 -58.666 27.501 -78.999s29.167 -35 49.5 -44s45.166 -13.5 74.499 -13.5z
" />
    <glyph glyph-name="R" unicode="R" horiz-adv-x="631" 
d="M328 255c-8.66699 -0.666992 -17.333 -1.16602 -26 -1.49902s-17.667 -0.5 -27 -0.5h-11.5h-16.5c-6 0 -11.667 0.166992 -17 0.5s-9.33301 0.5 -12 0.5v-254h-154v735c31.333 5.33301 63.333 9.16602 96 11.499s65.667 3.5 99 3.5c118 0 203.667 -19.833 257 -59.5
s80 -103.5 80 -191.5c0 -108 -44 -180.333 -132 -217l155 -282h-165zM285.001 372.001c28.667 0 52.667 2.33301 72 7s35 12 47 22s20.667 23 26 39s8 35.667 8 59s-2.66699 43.166 -8 59.499s-14 29.5 -26 39.5s-27.667 17.167 -47 21.5s-43 6.5 -71 6.5
c-9.33301 0 -20.5 -0.666992 -33.5 -2s-24.5 -2.66602 -34.5 -3.99902v-243c9.33301 -1.33301 20 -2.5 32 -3.5s23.667 -1.5 35 -1.5z" />
    <glyph glyph-name="S" unicode="S" horiz-adv-x="546" 
d="M264 -12c-35.333 0 -73.165 2.99414 -113.498 8.99414s-79.5 15 -117.5 27l2 128c15.333 -5.33301 31.833 -10.166 49.5 -14.499s35.667 -8.16602 54 -11.499s36.166 -6 53.499 -8s33.666 -3 48.999 -3c82.667 0 124 29.667 124 89c0 15.333 -3 28.333 -9 39
s-14.833 19.834 -26.5 27.501s-25.5 14.5 -41.5 20.5s-34 12 -54 18c-29.333 8 -55.833 17.333 -79.5 28s-44 24.834 -61 42.501s-30.167 39.167 -39.5 64.5s-14 56.666 -14 93.999c0 32.667 5.83301 62.167 17.5 88.5s28.667 48.833 51 67.5s49.5 32.834 81.5 42.501
s68 14.5 108 14.5c28.667 0 58.167 -2.16699 88.5 -6.5s64.166 -11.166 101.499 -20.499l-1 -125c-29.333 8 -60.166 14.5 -92.499 19.5s-60.166 7.5 -83.499 7.5c-36.667 0 -64.834 -7.33301 -84.501 -22s-29.5 -36 -29.5 -64c0 -15.333 3.16699 -28.333 9.5 -39
s15.5 -20.167 27.5 -28.5s26.667 -16 44 -23s37 -14.167 59 -21.5c28 -9.33301 53.333 -19.666 76 -30.999s42.167 -25.333 58.5 -42s28.833 -36.5 37.5 -59.5s13 -50.833 13 -83.5c0 -70.667 -22.5 -125.667 -67.5 -165s-108.5 -59 -190.5 -59z" />
    <glyph glyph-name="T" unicode="T" horiz-adv-x="562" 
d="M203 611h-186v129h529v-129h-188v-611h-155v611z" />
    <glyph glyph-name="U" unicode="U" horiz-adv-x="704" 
d="M352 -10c-54 0 -99.6709 6.16797 -137.004 18.501s-67.666 30.833 -90.999 55.5s-40.166 55.834 -50.499 93.501s-15.5 82.167 -15.5 133.5v449h154v-444c0 -62.667 10.833 -107.834 32.5 -135.501s57.5 -41.5 107.5 -41.5s85.833 13.667 107.5 41
s32.5 72.666 32.5 135.999v444h154v-449c0 -51.333 -5.16699 -95.833 -15.5 -133.5s-27.166 -69 -50.499 -94s-53.666 -43.5 -90.999 -55.5s-83 -18 -137 -18z" />
    <glyph glyph-name="V" unicode="V" horiz-adv-x="650" 
d="M-1 740h156l132 -450l33 -150h11l35 150l131 450h152l-219 -740h-210z" />
    <glyph glyph-name="W" unicode="W" horiz-adv-x="976" 
d="M7 740h169l85 -453l16 -110h11l20 110l106 453h153l103 -453l20 -110h10l17 110l88 453h165l-176 -740h-190l-93 392l-17 139h-10l-17 -139l-96 -392h-190z" />
    <glyph glyph-name="X" unicode="X" horiz-adv-x="652" 
d="M227 382l-218 358h174l133 -232l12 -26h4l12 26l131 232h168l-221 -354l240 -386h-172l-155 259l-11 24h-5l-10 -24l-149 -259h-169z" />
    <glyph glyph-name="Y" unicode="Y" horiz-adv-x="653" 
d="M250 247l-257 493h171l138 -290l20 -60h9l21 60l138 290h169l-255 -491v-249h-154v247z" />
    <glyph glyph-name="Z" unicode="Z" horiz-adv-x="567" 
d="M27 130l322 474v8h-308v128h485v-129l-322 -476v-8h337v-127h-514v130z" />
    <glyph glyph-name="bracketleft" unicode="[" horiz-adv-x="341" 
d="M68 868h251v-99h-133v-830h133v-99h-251v1028z" />
    <glyph glyph-name="backslash" unicode="\" horiz-adv-x="364" 
d="M23 740h129l188 -860h-128z" />
    <glyph glyph-name="bracketright" unicode="]" horiz-adv-x="341" 
d="M22 -160v99h133v830h-133v99h251v-1028h-251z" />
    <glyph glyph-name="asciicircum" unicode="^" horiz-adv-x="449" 
d="M157 789h134l127 -308h-107l-85 214h-4l-85 -214h-107z" />
    <glyph glyph-name="underscore" unicode="_" horiz-adv-x="565" 
d="M38 -59h489v-112h-489v112z" />
    <glyph glyph-name="grave" unicode="`" horiz-adv-x="275" 
d="M129 610l-115 196h156l67 -186z" />
    <glyph glyph-name="a" unicode="a" horiz-adv-x="525" 
d="M173 -5c-46 0 -82.334 13.999 -109.001 41.999s-40 66 -40 114c0 104 65.667 160.333 197 169l103 7v11c0 19.333 -1.33301 35.333 -4 48s-7.66699 22.834 -15 30.501s-17.333 13 -30 16s-29 4.5 -49 4.5c-9.33301 0 -20.5 -0.5 -33.5 -1.5s-26.5 -2.16699 -40.5 -3.5
s-28 -3 -42 -5s-26.333 -4 -37 -6l-10 108c32 5.33301 63.833 9.83301 95.5 13.5s61.834 5.5 90.501 5.5c78.667 0 135.834 -14.167 171.501 -42.5s53.5 -72.833 53.5 -133.5v-372h-124l-12 65h-9c-20.667 -21.333 -44.334 -38.333 -71.001 -51s-55 -19 -85 -19z
M231.999 103.999c15.333 0 31.332 3.83105 47.999 11.498s31.334 16.167 44.001 25.5v99l-66 -6c-30.667 -3.33301 -52.167 -10.166 -64.5 -20.499s-18.5 -26.166 -18.5 -47.499c0 -41.333 19 -62 57 -62z" />
    <glyph glyph-name="b" unicode="b" horiz-adv-x="571" 
d="M271 -10c-30.667 0 -63.332 2.83203 -97.999 8.49902s-74.667 14.834 -120 27.501v782h151v-323c33.333 42.667 81.333 64 144 64c127.333 0 191 -87.667 191 -263c0 -44.667 -5.16699 -85 -15.5 -121s-26.5 -66.833 -48.5 -92.5s-49.833 -45.667 -83.5 -60
s-73.834 -21.833 -120.501 -22.5zM273.002 91.999c20.667 0 38.332 2.83301 52.999 8.5s26.334 15.5 35.001 29.5s15 32.333 19 55s6 51 6 85c0 32.667 -1.5 59.834 -4.5 81.501s-8 39 -15 52s-16.167 22.167 -27.5 27.5s-25.333 8 -42 8c-30 0 -53 -10.833 -69 -32.5
s-24 -59.834 -24 -114.501v-190c9.33301 -3.33301 19.833 -5.83301 31.5 -7.5s24.167 -2.5 37.5 -2.5z" />
    <glyph glyph-name="c" unicode="c" horiz-adv-x="448" 
d="M293 -9c-87.333 0 -152.666 22.5 -195.999 67.5s-65 115.5 -65 211.5c0 95.333 21.667 165.666 65 210.999s108.666 68 195.999 68c21.333 0 42.5 -1.16699 63.5 -3.5s40.167 -6.16602 57.5 -11.499v-119c-19.333 3.33301 -37.833 6 -55.5 8s-34.167 3 -49.5 3
c-44.667 0 -76.5 -11.833 -95.5 -35.5s-28.5 -63.5 -28.5 -119.5s9.5 -96.333 28.5 -121s50.5 -37 94.5 -37c19.333 0 37.333 0.833008 54 2.5s34 4.5 52 8.5v-117c-15.333 -5.33301 -33.833 -9.33301 -55.5 -12s-43.5 -4 -65.5 -4z" />
    <glyph glyph-name="d" unicode="d" horiz-adv-x="572" 
d="M224 -9c-128 0 -192.001 88.333 -192.001 265c0 97.333 22.833 170.5 68.5 219.5s111.834 73.5 198.501 73.5c10.667 0 21.334 -0.5 32.001 -1.5l36 -3.5v264h151v-808h-136l-10 58h-5c-32.667 -44.667 -80.334 -67 -143.001 -67zM273.999 100
c14.667 0 27.833 2.49902 39.5 7.49902s21.5 13.333 29.5 25s14 27 18 46s6 42.167 6 69.5v188c-20.667 6.66699 -44.667 10 -72 10c-20 0 -37 -2.83301 -51 -8.5s-25.167 -15.167 -33.5 -28.5s-14.5 -31.166 -18.5 -53.499s-6 -50.166 -6 -83.499c0 -32 1.5 -59 4.5 -81
s8 -39.833 15 -53.5s16.167 -23.334 27.5 -29.001s25 -8.5 41 -8.5z" />
    <glyph glyph-name="e" unicode="e" horiz-adv-x="521" 
d="M282 -9c-83.333 0 -145.835 23 -187.502 69s-62.5 114 -62.5 204c0 94 20.833 165 62.5 213s104.167 72 187.5 72c138.667 0 208 -82.667 208 -248c0 -18 -0.333008 -32.833 -1 -44.5s-2.33398 -23.167 -5.00098 -34.5h-301c2 -22.667 5.33301 -41.5 10 -56.5
s11.334 -27 20.001 -36s19.5 -15.333 32.5 -19s28.833 -5.5 47.5 -5.5c23.333 0 50.333 2.5 81 7.5s61.334 11.833 92.001 20.5l5 -111c-26 -9.33301 -56.167 -16.833 -90.5 -22.5s-67.166 -8.5 -98.499 -8.5zM275.998 439c-30 0 -52.168 -9.66699 -66.501 -29
s-23.166 -52 -26.499 -98h173c-1.33301 46 -8 78.667 -20 98s-32 29 -60 29z" />
    <glyph glyph-name="f" unicode="f" horiz-adv-x="381" 
d="M101 414l-88.001 -0.000976562v126h89v28c0 45.333 4.83301 83.333 14.5 114s25.5 55.5 47.5 74.5s51 33 87 42s80.667 14.5 134 16.5l8 -113c-27.333 -2 -50.166 -5.16699 -68.499 -9.5s-32.833 -11.166 -43.5 -20.499s-18.167 -21.5 -22.5 -36.5
s-6.5 -33.833 -6.5 -56.5v-39h119v-126h-119v-414h-151v414z" />
    <glyph glyph-name="g" unicode="g" horiz-adv-x="572" 
d="M247 -220c-29.333 0 -59.165 2.00098 -89.498 6.00098s-59.5 9.66699 -87.5 17l10 111c53.333 -13.333 102.666 -20 147.999 -20c48 0 84.167 11.167 108.5 33.5s36.833 61.166 37.5 116.499v35h-6c-32 -44 -79 -66 -141 -66c-64.667 0 -113.167 20 -145.5 60
s-48.5 102 -48.5 186c0 96 23 168.333 69 217s111.667 73 197 73c30.667 0 63 -2.5 97 -7.5s75 -13.833 123 -26.5v-445c0 -50.667 -6.16699 -94.167 -18.5 -130.5s-30.333 -66.333 -54 -90s-52.334 -41.167 -86.001 -52.5s-71.5 -17 -113.5 -17zM275.001 116.001
c30 0 53 10.667 69 32s24 57.333 24 108v180c-20.667 6.66699 -45 10 -73 10c-20 0 -37 -2.83301 -51 -8.5s-25.167 -15 -33.5 -28s-14.5 -30.667 -18.5 -53s-6 -49.833 -6 -82.5c0 -29.333 1.5 -54 4.5 -74s8 -36.333 15 -49s16.167 -21.667 27.5 -27s25.333 -8 42 -8z" />
    <glyph glyph-name="h" unicode="h" horiz-adv-x="570" 
d="M54 808l151 0.000976562v-321c40 23.333 73.667 39.666 101 48.999s54.333 14 81 14c42 0 74.333 -12.667 97 -38s34 -61.333 34 -108v-404h-151v353c0 46.667 -17.667 70 -53 70c-14 0 -30.333 -3 -49 -9s-38.667 -14.667 -60 -26v-388h-151v808z" />
    <glyph glyph-name="i" unicode="i" horiz-adv-x="259" 
d="M130 622c-30 0 -51.5 6.5 -64.5 19.5s-19.5 33.833 -19.5 62.5s6.5 49.5 19.5 62.5s34.5 19.5 64.5 19.5s51.5 -6.66699 64.5 -20s19.5 -34 19.5 -62s-6.5 -48.667 -19.5 -62s-34.5 -20 -64.5 -20zM54 540h151v-540h-151v540z" />
    <glyph glyph-name="j" unicode="j" horiz-adv-x="259" 
d="M129 622c-29.333 0 -50.5 6.5 -63.5 19.5s-19.5 33.833 -19.5 62.5s6.33301 49.5 19 62.5s34 19.5 64 19.5s51.667 -6.66699 65 -20s20 -34 20 -62s-6.66699 -48.667 -20 -62s-35 -20 -65 -20zM7 -192c16 44 28 92 36 144s12 110 12 174v32.5v72.5v93v95
c0 30 -0.166992 56.167 -0.5 78.5s-0.5 36.5 -0.5 42.5h151v-464c-0.666992 -24 -3.33398 -49.167 -8.00098 -75.5s-11 -52.333 -19 -78s-17.667 -50.667 -29 -75s-23.666 -46.833 -36.999 -67.5z" />
    <glyph glyph-name="k" unicode="k" horiz-adv-x="544" 
d="M54 808h151v-477h48l120 209h164l-161 -251l-23 -9v-4l24 -9l177 -267h-164l-138 225h-47v-225h-151v808z" />
    <glyph glyph-name="l" unicode="l" horiz-adv-x="261" 
d="M55 808h151v-808h-151v808z" />
    <glyph glyph-name="m" unicode="m" horiz-adv-x="852" 
d="M54 540h124l9 -59h4c38.667 24.667 71.334 42.334 98.001 53.001s53.667 16 81 16c57.333 0 96 -23.333 116 -70h6c36.667 25.333 68.334 43.333 95.001 54s54 16 82 16c42 0 74.333 -12.667 97 -38s34 -61.333 34 -108v-404h-148v352c0 46.667 -18.667 70 -56 70
c-12.667 0 -27.334 -2.83301 -44.001 -8.5s-33.667 -13.834 -51 -24.501v-389h-148v352c0 46.667 -18.667 70 -56 70c-12.667 0 -27.334 -2.83301 -44.001 -8.5s-33.667 -14.167 -51 -25.5v-388h-148v540z" />
    <glyph glyph-name="n" unicode="n" horiz-adv-x="570" 
d="M54 540l127 0.000976562l9 -59h5c22 12.667 41.667 23.5 59 32.5s33.5 16.167 48.5 21.5s29.333 9.16602 43 11.499s27.5 3.5 41.5 3.5c42 0 74.333 -12.667 97 -38s34 -61.333 34 -108v-404h-151v353c0 25.333 -4.5 43.333 -13.5 54s-22.167 16 -39.5 16
c-15.333 0 -32.5 -3.16699 -51.5 -9.5s-38.167 -14.833 -57.5 -25.5v-388h-151v540z" />
    <glyph glyph-name="o" unicode="o" horiz-adv-x="565" 
d="M282 -10c-82 0 -144.333 23.667 -187 71s-64 117 -64 209s21.333 161.667 64 209s105 71 187 71c82.667 0 145.167 -23.667 187.5 -71s63.5 -117 63.5 -209s-21.167 -161.667 -63.5 -209s-104.833 -71 -187.5 -71zM282 106c18.667 0 34.334 2.66699 47.001 8
s23 14.166 31 26.499s13.667 29 17 50s5 47.5 5 79.5s-1.66699 58.5 -5 79.5s-9 37.667 -17 50s-18.333 21.166 -31 26.499s-28.334 8 -47.001 8s-34.334 -2.66699 -47.001 -8s-22.834 -14.166 -30.501 -26.499s-13.167 -29 -16.5 -50s-5 -47.5 -5 -79.5
s1.66699 -58.5 5 -79.5s8.83301 -37.667 16.5 -50s17.834 -21.166 30.501 -26.499s28.334 -8 47.001 -8z" />
    <glyph glyph-name="p" unicode="p" horiz-adv-x="573" 
d="M54 540h134.999l9 -58h5c16.667 21.333 37.334 37.833 62.001 49.5s53 17.5 85 17.5c126.667 0 190 -87.667 190 -263c0 -93.333 -22 -166 -66 -218s-110.333 -78 -199 -78c-22 0 -45.333 2 -70 6v-216h-151v760zM275.999 93c20.667 0 37.998 2.8291 51.998 8.49609
s25.333 15.334 34 29.001s15 31.834 19 54.501s6 51 6 85c0 32.667 -1.5 59.834 -4.5 81.501s-8 39 -15 52s-16.167 22.333 -27.5 28s-25.333 8.5 -42 8.5c-29.333 0 -52.166 -11.167 -68.499 -33.5s-24.5 -61.166 -24.5 -116.499v-186
c20.667 -7.33301 44.334 -11 71.001 -11z" />
    <glyph glyph-name="q" unicode="q" horiz-adv-x="571" 
d="M369 57c-34 -44 -82.334 -66.001 -145.001 -66.001c-128 0 -192 88.333 -192 265c0 98.667 22.833 172.167 68.5 220.5s113.834 72.5 204.501 72.5c34 0 69.5 -2.16699 106.5 -6.5s72.5 -10.166 106.5 -17.499v-745h-149v277zM274.999 98.999
c31.333 0 54.5 11.502 69.5 34.502s22.5 61.833 22.5 116.5v187c-11.333 3.33301 -22.833 5.66602 -34.5 6.99902s-24.167 2 -37.5 2c-21.333 0 -39.166 -2.66699 -53.499 -8s-25.833 -14.5 -34.5 -27.5s-14.834 -30.5 -18.501 -52.5s-5.5 -49.333 -5.5 -82
c0 -33.333 1.5 -61.333 4.5 -84s8 -40.834 15 -54.501s16.5 -23.5 28.5 -29.5s26.667 -9 44 -9z" />
    <glyph glyph-name="r" unicode="r" horiz-adv-x="392" 
d="M54 540l127 -0.000976562l9 -77h6c6.66699 6.66699 15.667 14 27 22s24 16 38 24s28.333 15.667 43 23s28.667 13 42 17h36v-137h-58c-21.333 -3.33301 -43.5 -9.66602 -66.5 -18.999s-40.5 -19 -52.5 -29v-364h-151v540z" />
    <glyph glyph-name="s" unicode="s" horiz-adv-x="455" 
d="M211 -10c-26.667 0 -54.8359 2.16797 -84.5029 6.50098s-59.834 10.5 -90.501 18.5v110c27.333 -8 55.833 -14.5 85.5 -19.5s57.834 -7.5 84.501 -7.5c52 0 78 17.667 78 53c0 17.333 -6 30.5 -18 39.5s-30.667 15.833 -56 20.5c-18 2.66699 -37 6 -57 10
s-38.5 11.5 -55.5 22.5s-31.167 27.167 -42.5 48.5s-17 50.333 -17 87c0 54 17.333 96.167 52 126.5s83.334 45.5 146.001 45.5c24 0 49.5 -1.66699 76.5 -5s57.167 -8.33301 90.5 -15l-1 -112c-33.333 7.33301 -60.666 12.5 -81.999 15.5s-40.666 4.5 -57.999 4.5
c-27.333 0 -47.833 -4.66699 -61.5 -14s-20.5 -22.666 -20.5 -39.999c0 -19.333 6.83301 -32.833 20.5 -40.5s32.834 -13.834 57.501 -18.501c21.333 -3.33301 42.166 -8 62.499 -14s38.5 -15 54.5 -27s28.833 -27.833 38.5 -47.5s14.5 -44.834 14.5 -75.501
c0 -55.333 -18.667 -97.833 -56 -127.5s-91 -44.5 -161 -44.5z" />
    <glyph glyph-name="t" unicode="t" horiz-adv-x="391" 
d="M274 -8c-58 0 -101.501 13.5 -130.501 40.5s-43.5 66.5 -43.5 118.5v262h-87v127h95l21 153l120 14v-167h120v-127h-119v-227c0 -29.333 5.33301 -50 16 -62s27.334 -18 50.001 -18c16.667 0 34.667 3 54 9v-112c-29.333 -7.33301 -61.333 -11 -96 -11z" />
    <glyph glyph-name="u" unicode="u" horiz-adv-x="569" 
d="M193 -10c-45.333 0 -80.498 12.833 -105.498 38.5s-37.5 61.5 -37.5 107.5v404h151v-357c0 -24.667 4.5 -42.334 13.5 -53.001s23.5 -16 43.5 -16c15.333 0 31.666 3.16699 48.999 9.5s36.333 15.5 57 27.5v389h151v-540h-127l-9 58h-4l-55.5 -32
c-15.667 -8.66699 -30.334 -15.667 -44.001 -21s-27 -9.16602 -40 -11.499s-27.167 -3.5 -42.5 -3.5z" />
    <glyph glyph-name="v" unicode="v" horiz-adv-x="549" 
d="M6 529v11h158l89 -327l17 -85h10l17 85l90 327h156v-11l-179 -529h-180z" />
    <glyph glyph-name="w" unicode="w" horiz-adv-x="767" 
d="M16 536v4h141l56 -322l10 -66h11l11 66l69 322h140l69 -322l12 -66h10l10 66l56 322h141v-4l-120 -536h-168l-67 305l-8 59h-11l-8 -59l-66 -305h-169z" />
    <glyph glyph-name="x" unicode="x" horiz-adv-x="546" 
d="M5 13l163 268l-156 250v9h160l80 -146l19 -38h8l18 38l78 146h160v-9l-156 -260l162 -258v-13h-158l-88 161l-19 43h-9l-18 -43l-85 -161h-159v13z" />
    <glyph glyph-name="y" unicode="y" horiz-adv-x="555" 
d="M135 -193v9l65 187l-196 524v13h156l95 -307l18 -80h9l18 80l96 307h155v-13l-269 -747z" />
    <glyph glyph-name="z" unicode="z" horiz-adv-x="471" 
d="M30 101l226 316v7h-218v116h394v-101l-221 -315v-8h231v-116h-412v101z" />
    <glyph glyph-name="braceleft" unicode="{" horiz-adv-x="336" 
d="M22 412c24 0 40.999 8 50.999 24s15 39.333 15 70v241c0 44.667 8.5 76 25.5 94s45.5 27 85.5 27c6.66699 0 15.5 -0.166992 26.5 -0.5s22.333 -0.833008 34 -1.5s22.167 -1.16699 31.5 -1.5s15.666 -0.833008 18.999 -1.5v-94h-52c-17.333 0 -29.833 -3.5 -37.5 -10.5
s-11.5 -18.833 -11.5 -35.5v-248c0 -30.667 -7 -57 -21 -79s-32.333 -35.667 -55 -41c22.667 -4.66699 41 -17.667 55 -39s21 -47.333 21 -78v-250c0 -16.667 3.83301 -28.5 11.5 -35.5s20.167 -10.5 37.5 -10.5h52v-94
c-3.33301 -0.666992 -9.66602 -1.33398 -18.999 -2.00098s-19.666 -1.16699 -30.999 -1.5l-34 -1c-11.333 -0.333008 -20 -0.5 -26 -0.5c-40 0 -68.667 9 -86 27s-26 49.333 -26 94v243c0 30.667 -5 53.834 -15 69.501s-27 23.5 -51 23.5v112z" />
    <glyph glyph-name="bar" unicode="|" horiz-adv-x="278" 
d="M210 808v-1028h-142v1028h142z" />
    <glyph glyph-name="braceright" unicode="}" horiz-adv-x="336" 
d="M314 300c-24 0 -41.167 -7.83301 -51.5 -23.5s-15.5 -38.834 -15.5 -69.501v-243c0 -44.667 -8.5 -76 -25.5 -94s-45.5 -27 -85.5 -27c-6 0 -14.667 0.166992 -26 0.5l-34.5 1c-11.667 0.333008 -22.167 0.833008 -31.5 1.5s-15.333 1.33398 -18 2.00098v94h52
c17.333 0 29.666 3.5 36.999 10.5s11 18.833 11 35.5v250c0 30.667 7 56.667 21 78s32.667 34.333 56 39c-23.333 5.33301 -42 19 -56 41s-21 48.333 -21 79v248c0 16.667 -3.66699 28.5 -11 35.5s-19.666 10.5 -36.999 10.5h-52v94
c2.66699 0.666992 8.66699 1.16699 18 1.5s19.833 0.833008 31.5 1.5s23.167 1.16699 34.5 1.5s20 0.5 26 0.5c40 0 68.5 -9 85.5 -27s25.5 -49.333 25.5 -94v-241c0 -30.667 5.16699 -54 15.5 -70s27.5 -24 51.5 -24v-112z" />
    <glyph glyph-name="asciitilde" unicode="~" horiz-adv-x="609" 
d="M36 271c19.333 25.333 36.4971 46.3311 51.4971 62.998s29 29.834 42 39.501s25.667 16.5 38 20.5s25.5 6 39.5 6c19.333 0 36.833 -3.83301 52.5 -11.5s30.667 -16.167 45 -25.5s28.333 -17.833 42 -25.5s28.167 -11.5 43.5 -11.5c36.667 0 68.334 24.667 95.001 74
l88 -52c-9.33301 -14.667 -19.666 -30 -30.999 -46s-24 -30.833 -38 -44.5s-29.333 -24.834 -46 -33.501s-34.667 -13 -54 -13c-20 0 -38 3.83301 -54 11.5s-31.167 16.334 -45.5 26.001s-28.166 18.334 -41.499 26.001s-27.333 11.5 -42 11.5
c-17.333 0 -33.833 -6 -49.5 -18s-32.167 -30.667 -49.5 -56z" />
    <glyph glyph-name="uni00A0" unicode="&#xa0;" horiz-adv-x="189" 
 />
    <glyph glyph-name="exclamdown" unicode="&#xa1;" horiz-adv-x="256" 
d="M129 545c26.667 0 47.334 -6.83301 62.001 -20.5s22 -33.167 22 -58.5s-7.33301 -44.833 -22 -58.5s-35.334 -20.5 -62.001 -20.5c-26 0 -46.333 6.83301 -61 20.5s-22 33.167 -22 58.5s7.33301 44.833 22 58.5s35 20.5 61 20.5zM82 301h94v-11l31 -480v-10h-157v10
l32 480v11z" />
    <glyph glyph-name="cent" unicode="&#xa2;" horiz-adv-x="460" 
d="M237 -5c-68.667 8.66699 -120 35.332 -154 79.999s-51 109.667 -51 195c0 84.667 17 149.334 51 194.001s85.333 71.667 154 81v115h95v-113c14.667 -1.33301 29 -3 43 -5s27 -4.66699 39 -8v-119c-19.333 3.33301 -37.833 6 -55.5 8s-34.167 3 -49.5 3
c-44.667 0 -76.5 -11.833 -95.5 -35.5s-28.5 -63.5 -28.5 -119.5s9.5 -96.333 28.5 -121s50.5 -37 94.5 -37c19.333 0 37.333 0.833008 54 2.5s34 4.5 52 8.5v-117c-22.667 -7.33301 -50 -12 -82 -14v-113h-95v115z" />
    <glyph glyph-name="sterling" unicode="&#xa3;" horiz-adv-x="615" 
d="M37 430h120.999v96c0 76 18.833 132 56.5 168s97.5 54 179.5 54c28 0 56.667 -2 86 -6s63 -10.667 101 -20l-7 -122c-25.333 6.66699 -52.166 11.667 -80.499 15s-52.833 5 -73.5 5c-40 0 -67.833 -7 -83.5 -21s-23.5 -39 -23.5 -75v-94h180v-117h-180v-183h254v-130
h-530v132h121v181h-121v117z" />
    <glyph glyph-name="currency" unicode="&#xa4;" horiz-adv-x="593" 
d="M38 169l55.0029 54l50 37c-21.333 29.333 -32 66 -32 110c0 42.667 10.667 79.334 32 110.001l-50 37l-55 54l57 58l54 -55l38 -52c31.333 20 67.666 30 108.999 30s77.666 -10 108.999 -30l38 52l55 55l57 -58l-55 -54l-52 -38c21.333 -30.667 32 -67 32 -109
c0 -42.667 -10.333 -79 -31 -109l51 -38l55 -54l-57 -58l-55 55l-38 52c-30 -20.667 -66.333 -31 -109 -31c-21.333 0 -41.333 2.66699 -60 8s-35.334 12.666 -50.001 21.999l-37 -51l-54 -55zM204.003 370c0 -33.333 8.33301 -58.834 25 -76.501s39 -26.5 67 -26.5
s50.167 8.66699 66.5 26s24.5 43 24.5 77s-8.16699 59.5 -24.5 76.5s-38.5 25.5 -66.5 25.5s-50.333 -8.66699 -67 -26s-25 -42.666 -25 -75.999z" />
    <glyph glyph-name="yen" unicode="&#xa5;" horiz-adv-x="709" 
d="M99 349h127l-204 391h171l138 -290l20 -60h9l21 60l138 290h169l-203 -391h119v-103h-171v-73h171v-103h-171v-70h-154v70h-180v103h180v73h-180v103z" />
    <glyph glyph-name="brokenbar" unicode="&#xa6;" horiz-adv-x="275" 
d="M67 204h141v-424h-141v424zM67 808h141v-424h-141v424z" />
    <glyph glyph-name="section" unicode="&#xa7;" horiz-adv-x="480" 
d="M221 -10c-26 0 -53.834 2.16602 -83.501 6.49902s-60.167 10.5 -91.5 18.5v109c27.333 -8 55.833 -14.333 85.5 -19s57.834 -7 84.501 -7c52 0 78 17.667 78 53c0 17.333 -6 30.666 -18 39.999s-30.667 16 -56 20c-18 2.66699 -37 6.16699 -57 10.5s-38.5 12 -55.5 23
s-31.167 27 -42.5 48s-17 49.833 -17 86.5c0 21.333 2.83301 40.5 8.5 57.5s13.5 32.5 23.5 46.5c-9.33301 11.333 -17 25.333 -23 42s-9 37.334 -9 62.001c0 54 17.5 96.167 52.5 126.5s83.833 45.5 146.5 45.5c24 0 50 -1.66699 78 -5s58.333 -8.33301 91 -15l-4 -112
c-33.333 7.33301 -60.5 12.5 -81.5 15.5s-40.5 4.5 -58.5 4.5c-54.667 0 -82 -18.333 -82 -55c0 -19.333 6.83301 -32.833 20.5 -40.5s32.834 -13.5 57.501 -17.5c21.333 -4 42.166 -8.83301 62.499 -14.5s38.5 -14.5 54.5 -26.5s28.833 -27.833 38.5 -47.5
s14.5 -44.834 14.5 -75.501c0 -43.333 -11.667 -78.666 -35 -105.999c11.333 -12 20 -26.167 26 -42.5s9 -36.166 9 -59.499c0 -55.333 -18.667 -97.833 -56 -127.5s-91 -44.5 -161 -44.5zM286.999 307.999c8 12 12 27.668 12 47.001c0 18.667 -4.16699 32.5 -12.5 41.5
s-20.5 16.5 -36.5 22.5c-5.33301 2 -12.333 4.16699 -21 6.5s-16 4.83301 -22 7.5c-14.667 -12.667 -22 -28 -22 -46c0 -20.667 4.83301 -35.334 14.5 -44.001s23.167 -15.667 40.5 -21z" />
    <glyph glyph-name="dieresis" unicode="&#xa8;" horiz-adv-x="484" 
d="M121 619c-26.667 0 -46 6 -58 18s-18 31 -18 57c0 25.333 6 43.833 18 55.5s31.333 17.5 58 17.5c51.333 0 77 -24.333 77 -73c0 -26 -6.33301 -45 -19 -57s-32 -18 -58 -18zM356 619c-26.667 0 -46 6 -58 18s-18 31 -18 57c0 25.333 6 43.833 18 55.5
s31.333 17.5 58 17.5c50.667 0 76 -24.333 76 -73c0 -26 -6.16699 -45 -18.5 -57s-31.5 -18 -57.5 -18z" />
    <glyph glyph-name="copyright" unicode="&#xa9;" horiz-adv-x="812" 
d="M421 164c-61.333 0 -107.999 16.833 -139.999 50.5s-48 84.834 -48 153.501s16 120.167 48 154.5s78.667 51.5 140 51.5c15.333 0 31 -1 47 -3s30.333 -4.66699 43 -8v-83c-32 6 -58.333 9 -79 9c-36.667 0 -62.334 -9.5 -77.001 -28.5s-22 -49.5 -22 -91.5
s7.33301 -72.667 22 -92s40 -29 76 -29c9.33301 0 21 0.666992 35 2s29.333 3.66602 46 6.99902v-82c-12.667 -3.33301 -27 -6 -43 -8s-32 -3 -48 -3zM406.001 -10c-56 0 -106.833 9.16699 -152.5 27.5s-84.667 44.166 -117 77.499s-57.333 73.333 -75 120
s-26.5 98.334 -26.5 155.001s8.83301 108.334 26.5 155.001s42.667 86.667 75 120s71.333 59.166 117 77.499s96.5 27.5 152.5 27.5s106.833 -9.16699 152.5 -27.5s84.667 -44.166 117 -77.499s57.333 -73.333 75 -120s26.5 -98.334 26.5 -155.001
s-8.83301 -108.334 -26.5 -155.001s-42.667 -86.667 -75 -120s-71.333 -59.166 -117 -77.499s-96.5 -27.5 -152.5 -27.5zM406.001 69c44.667 0 84.667 7.16699 120 21.5s65.333 34.666 90 60.999s43.5 58 56.5 95s19.5 78.167 19.5 123.5s-6.5 86.5 -19.5 123.5
s-31.833 68.667 -56.5 95s-54.667 46.666 -90 60.999s-75.333 21.5 -120 21.5s-84.667 -7.16699 -120 -21.5s-65.333 -34.666 -90 -60.999s-43.5 -58 -56.5 -95s-19.5 -78.167 -19.5 -123.5s6.5 -86.5 19.5 -123.5s31.833 -68.667 56.5 -95s54.667 -46.666 90 -60.999
s75.333 -21.5 120 -21.5z" />
    <glyph glyph-name="ordfeminine" unicode="&#xaa;" horiz-adv-x="427" 
d="M144 348c-34.667 0 -62.5 10.4961 -83.5 31.4961s-31.5 49.167 -31.5 84.5c0 36 12 63.833 36 83.5s59 30.834 105 33.501l88 5v7c0 14.667 -0.833008 26.334 -2.5 35.001s-4.83398 15.334 -9.50098 20.001s-11.167 7.83398 -19.5 9.50098s-19.5 2.5 -33.5 2.5
c-16.667 0 -35.834 -0.833008 -57.501 -2.5s-43.834 -4.16699 -66.501 -7.5l-8 81c52 10 100.667 15 146 15c60.667 0 104.334 -9.83301 131.001 -29.5s40 -51.167 40 -94.5v-270h-102l-6 47h-4c-17.333 -16 -36.666 -28.5 -57.999 -37.5s-42.666 -13.5 -63.999 -13.5z
M192 430.996c18.667 0 40.667 8 66 24v66l-47 -4c-23.333 -2 -39.333 -6.16699 -48 -12.5s-13 -16.833 -13 -31.5c0 -28 14 -42 42 -42z" />
    <glyph glyph-name="guillemotleft" unicode="&#xab;" horiz-adv-x="601" 
d="M27 268v4l123 238h152l-123 -238v-4l123 -238h-152zM297 268v4l123 238h152l-123 -238v-4l123 -238h-152z" />
    <glyph glyph-name="logicalnot" unicode="&#xac;" horiz-adv-x="777" 
d="M42 437h679v-336h-148v214h-531v122z" />
    <glyph glyph-name="uni00AD" unicode="&#xad;" horiz-adv-x="427" 
d="M49 336h328v-112h-328v112z" />
    <glyph glyph-name="registered" unicode="&#xae;" horiz-adv-x="689" 
d="M235 612c34 4 66.333 6.00098 97 6.00098c93.333 0 140 -34.333 140 -103c0 -23.333 -5.16699 -42.833 -15.5 -58.5s-25.5 -26.834 -45.5 -33.501l-1 -3l70 -125h-69l-58 110h-52v-110h-66v317zM333 457.001c26 0 44.334 4.33301 55.001 13s16 23.334 16 44.001
c0 17.333 -4.83301 30.666 -14.5 39.999s-26.834 14 -51.501 14c-2.66699 0 -8.5 -0.166992 -17.5 -0.5s-15.5 -0.5 -19.5 -0.5v-110h32zM344.001 142.001c-45.333 0 -86.833 7.5 -124.5 22.5s-70 35.833 -97 62.5s-47.833 58.667 -62.5 96s-22 78.666 -22 123.999
c0 44.667 7.33301 85.834 22 123.501s35.5 69.834 62.5 96.501s59.333 47.5 97 62.5s79.167 22.5 124.5 22.5c46 0 87.833 -7.5 125.5 -22.5s70 -35.833 97 -62.5s47.833 -58.834 62.5 -96.501s22 -78.834 22 -123.501c0 -45.333 -7.33301 -86.666 -22 -123.999
s-35.5 -69.333 -62.5 -96s-59.333 -47.5 -97 -62.5s-79.5 -22.5 -125.5 -22.5zM344.001 207.001c36 0 68.667 5.83301 98 17.5s54.333 28 75 49s36.667 46.167 48 75.5s17 62 17 98s-5.66699 68.667 -17 98s-27.333 54.666 -48 75.999s-45.667 37.833 -75 49.5
s-62 17.5 -98 17.5s-68.667 -5.83301 -98 -17.5s-54.333 -28.167 -75 -49.5s-36.5 -46.666 -47.5 -75.999s-16.5 -62 -16.5 -98s5.5 -68.667 16.5 -98s26.833 -54.5 47.5 -75.5s45.667 -37.333 75 -49s62 -17.5 98 -17.5z" />
    <glyph glyph-name="macron" unicode="&#xaf;" horiz-adv-x="442" 
d="M49 728h336v-96h-336v96z" />
    <glyph glyph-name="degree" unicode="&#xb0;" horiz-adv-x="430" 
d="M215 372c-27.333 0 -52.5 4.66699 -75.5 14s-42.833 22.333 -59.5 39s-29.5 36.5 -38.5 59.5s-13.5 48.167 -13.5 75.5s4.5 52.5 13.5 75.5s21.833 43 38.5 60s36.5 30.167 59.5 39.5s48.167 14 75.5 14s52.5 -4.66699 75.5 -14s42.667 -22.5 59 -39.5
s29.166 -37 38.499 -60s14 -48.167 14 -75.5s-4.66699 -52.5 -14 -75.5s-22.166 -42.833 -38.499 -59.5s-36 -29.667 -59 -39s-48.167 -14 -75.5 -14zM215 453c33.333 0 58.166 9.66699 74.499 29s24.5 45.333 24.5 78s-8.16699 58.834 -24.5 78.501
s-41.166 29.5 -74.499 29.5s-58.333 -9.83301 -75 -29.5s-25 -45.834 -25 -78.501s8.33301 -58.667 25 -78s41.667 -29 75 -29z" />
    <glyph glyph-name="plusminus" unicode="&#xb1;" horiz-adv-x="528" 
d="M50 478h161v161h105v-161h161v-105h-161v-153h-105v153h-161v105zM51 162h427v-105h-427v105z" />
    <glyph glyph-name="twosuperior" unicode="&#xb2;" horiz-adv-x="420" 
d="M27 392c0 22 2.66504 41.9961 7.99805 59.9961s13.833 35.167 25.5 51.5s26.834 31.833 45.501 46.5s41.334 29.334 68.001 44.001c32 18 54 33.833 66 47.5s18 28.834 18 45.501c0 38 -29 57 -87 57c-17.333 0 -35.833 -1.33301 -55.5 -4s-40.834 -6.66699 -63.501 -12
l-12 104c62 14 115.667 21 161 21c124.667 0 187 -51 187 -153c0 -38.667 -9.66699 -71.667 -29 -99s-48.666 -52 -87.999 -74c-34 -21.333 -58.833 -40.166 -74.5 -56.499s-23.5 -32.166 -23.5 -47.499v-16h213v-107h-359v92z" />
    <glyph glyph-name="threesuperior" unicode="&#xb3;" horiz-adv-x="396" 
d="M158 293c-46 0 -87.335 3.66699 -124.002 11v110h9c11.333 -3.33301 25.833 -6 43.5 -8s33.834 -3 48.501 -3c38 0 64.833 5 80.5 15s23.5 25.667 23.5 47c0 23.333 -8.16699 40 -24.5 50s-45.5 15 -87.5 15h-37v94h37c34.667 0 59.5 5 74.5 15s22.5 25.333 22.5 46
c0 20 -6.5 34.833 -19.5 44.5s-34.5 14.5 -64.5 14.5c-12.667 0 -27.167 -0.833008 -43.5 -2.5s-34.166 -4.16699 -53.499 -7.5h-8l-2 107c18 4 37.667 7.16699 59 9.5s42 3.5 62 3.5c133.333 0 200 -48 200 -144c0 -32 -7 -58.667 -21 -80s-34 -37 -60 -47
c62.667 -21.333 94 -65.333 94 -132c0 -50.667 -18.167 -89.667 -54.5 -117s-87.833 -41 -154.5 -41z" />
    <glyph glyph-name="acute" unicode="&#xb4;" horiz-adv-x="267" 
d="M30 618l67 187h154l-113 -196z" />
    <glyph glyph-name="mu" unicode="&#xb5;" horiz-adv-x="602" 
d="M67 540l151 -0.00292969v-364c0 -21.333 5 -37.166 15 -47.499s24 -15.5 42 -15.5c15.333 0 31.333 3 48 9s35.667 14.667 57 26v392h151v-540h-127l-9 58h-4c-20 -12.667 -37.667 -23.167 -53 -31.5s-29.5 -15.166 -42.5 -20.499s-25.667 -9.16602 -38 -11.499
s-25.5 -3.83301 -39.5 -4.5v-210h-151v760z" />
    <glyph glyph-name="paragraph" unicode="&#xb6;" horiz-adv-x="577" 
d="M350 0l-71 -0.00390625v266c-7.33301 -0.666992 -14 -1 -20 -1h-20c-32 0 -61 4.16699 -87 12.5s-48.167 21.833 -66.5 40.5s-32.5 43.334 -42.5 74.001s-15 68.334 -15 113.001s5 82.334 15 113.001s24.167 55.334 42.5 74.001s40.5 32.167 66.5 40.5s55 12.5 87 12.5
c16.667 0 34.5 -0.833008 53.5 -2.5s38.167 -4.16699 57.5 -7.5v-735zM498 -0.00390625h-92v735h92v-735z" />
    <glyph glyph-name="periodcentered" unicode="&#xb7;" horiz-adv-x="250" 
d="M125 287c-30 0 -51.667 6.5 -65 19.5s-20 34.167 -20 63.5s6.66699 50.5 20 63.5s35 19.5 65 19.5c29.333 0 50.666 -6.5 63.999 -19.5s20 -34.167 20 -63.5c0 -28.667 -6.66699 -49.667 -20 -63s-34.666 -20 -63.999 -20z" />
    <glyph glyph-name="cedilla" unicode="&#xb8;" horiz-adv-x="278" 
d="M116 -220c-12 0 -25.5 0.999023 -40.5 2.99902s-30.833 5 -47.5 9v90c12 -3.33301 24 -5.66602 36 -6.99902s21.667 -2 29 -2c29.333 0 44 12.667 44 38c0 14.667 -5.33301 33 -16 55s-26 45.667 -46 71h95c24.667 -32 42 -58.833 52 -80.5s15 -44.5 15 -68.5
c0 -34 -10.5 -60.5 -31.5 -79.5s-50.833 -28.5 -89.5 -28.5z" />
    <glyph glyph-name="onesuperior" unicode="&#xb9;" horiz-adv-x="333" 
d="M143 709l-100 -38h-14l-20 61l2 18l166 96h96v-546h-130v409z" />
    <glyph glyph-name="ordmasculine" unicode="&#xba;" horiz-adv-x="446" 
d="M223 433c14 0 25.667 1.5 35 4.5s16.833 8.83301 22.5 17.5s9.5 20.167 11.5 34.5s3 33.166 3 56.499c0 22.667 -1 41.334 -3 56.001s-5.83301 26.334 -11.5 35.001s-13.167 14.667 -22.5 18s-21 5 -35 5c-14.667 0 -26.667 -1.66699 -36 -5
s-16.666 -9.33301 -21.999 -18s-9 -20.334 -11 -35.001s-3 -33.334 -3 -56.001c0 -23.333 1 -42.166 3 -56.499s5.66699 -25.833 11 -34.5s12.666 -14.5 21.999 -17.5s21.333 -4.5 36 -4.5zM223 345c-61.333 0 -108.666 16.5 -141.999 49.5s-50 83.5 -50 151.5
s16.667 118.5 50 151.5s80.666 49.5 141.999 49.5c62 0 109.5 -16.5 142.5 -49.5s49.5 -83.5 49.5 -151.5s-16.5 -118.5 -49.5 -151.5s-80.5 -49.5 -142.5 -49.5z" />
    <glyph glyph-name="guillemotright" unicode="&#xbb;" horiz-adv-x="601" 
d="M182 30h-152l123 238v4l-123 238h152l123 -238v-4zM452 30h-152l123 238v4l-123 238h152l123 -238v-4z" />
    <glyph glyph-name="onequarter" unicode="&#xbc;" horiz-adv-x="1026" 
d="M805 111h-213l-16 78l174 352l12 7l112 -9l8 -17l-178 -315h112l36 150h84v-150h63v-96h-63v-111h-131v111zM555 740h125l-288 -740h-125zM156 609l-100 -38h-14l-20 61l2 18l166 96h96v-546h-130v409z" />
    <glyph glyph-name="onehalf" unicode="&#xbd;" horiz-adv-x="1042" 
d="M639 92c0 22 2.66602 41.833 7.99902 59.5s13.666 34.5 24.999 50.5s26.333 31.5 45 46.5s41.667 30.167 69 45.5c16.667 9.33301 30.334 17.833 41.001 25.5s19.167 15.167 25.5 22.5s10.833 14.5 13.5 21.5s4 14.833 4 23.5c0 38 -29 57 -87 57
c-18.667 0 -38.667 -1.33301 -60 -4s-41 -6.66699 -59 -12l-12 104c64.667 14 118.334 21 161.001 21c124.667 0 187 -51 187 -153c0 -38 -9 -70.333 -27 -97s-48 -52 -90 -76c-34.667 -22 -59.667 -41 -75 -57s-23 -31.667 -23 -47v-16h213v-107h-359v92zM554.999 740h125
l-288 -740h-125zM155.999 609l-100 -38h-14l-20 61l2 18l166 96h96v-546h-130v409z" />
    <glyph glyph-name="threequarters" unicode="&#xbe;" horiz-adv-x="1045" 
d="M169 193c-46 0 -87.335 3.66699 -124.002 11v110h9c11.333 -3.33301 25.833 -6 43.5 -8s33.834 -3 48.501 -3c38 0 64.833 5 80.5 15s23.5 25.667 23.5 47c0 23.333 -8.16699 40 -24.5 50s-45.5 15 -87.5 15h-37v94h37c34.667 0 59.5 5 74.5 15s22.5 25.333 22.5 46
c0 20 -6.5 34.833 -19.5 44.5s-34.5 14.5 -64.5 14.5c-12.667 0 -27.167 -0.833008 -43.5 -2.5s-34.166 -4.16699 -53.499 -7.5h-8l-2 107c18 4 37.667 7.16699 59 9.5s42 3.5 62 3.5c133.333 0 200 -48 200 -144c0 -32 -7 -58.667 -21 -80s-34 -37 -60 -47
c62.667 -21.333 94 -65.333 94 -132c0 -50.667 -18.167 -89.667 -54.5 -117s-87.833 -41 -154.5 -41zM825.998 111h-213l-16 78l174 352l12 7l112 -9l8 -17l-178 -315h112l36 150h84v-150h63v-96h-63v-111h-131v111zM597.998 740h125l-288 -740h-125z" />
    <glyph glyph-name="questiondown" unicode="&#xbf;" horiz-adv-x="433" 
d="M311 307l12.0039 -181.005c-22 -5.33301 -42.5 -11.166 -61.5 -17.499s-35.333 -14.166 -49 -23.499s-24.334 -20.666 -32.001 -33.999s-11.5 -29 -11.5 -47c0 -34 10.333 -58 31 -72s47 -21 79 -21c19.333 0 40.5 1.83301 63.5 5.5s42.5 7.83398 58.5 12.501l7 -114
c-25.333 -7.33301 -51 -12.833 -77 -16.5s-53 -5.5 -81 -5.5c-34 0 -64.833 4 -92.5 12s-51.334 20.167 -71.001 36.5s-35 36.833 -46 61.5s-16.5 53.667 -16.5 87c0 29.333 4.66699 55.5 14 78.5s22.166 42.833 38.499 59.5s35.666 30.334 57.999 41.001
s46.5 18.667 72.5 24l6 113v16h98v-15zM260.004 547.995c26 0 46.333 -7 61 -21s22 -33.667 22 -59s-7.33301 -44.833 -22 -58.5s-35 -20.5 -61 -20.5c-26.667 0 -47.334 6.83301 -62.001 20.5s-22 33.167 -22 58.5s7.33301 45 22 59s35.334 21 62.001 21z" />
    <glyph glyph-name="Agrave" unicode="&#xc0;" horiz-adv-x="651" 
d="M0 7l210 733h231l210 -733v-7h-147l-53 184h-252l-52 -184h-147v7zM419 307l-56 198l-32 121h-12l-32 -121l-56 -198h188zM265 793l-114 177h156l67 -166z" />
    <glyph glyph-name="Aacute" unicode="&#xc1;" horiz-adv-x="651" 
d="M0 7l210 733h231l210 -733v-7h-147l-53 184h-252l-52 -184h-147v7zM419 307l-56 198l-32 121h-12l-32 -121l-56 -198h188zM265 801l68 169h155l-113 -177z" />
    <glyph glyph-name="Acircumflex" unicode="&#xc2;" horiz-adv-x="651" 
d="M0 7l210 733h231l210 -733v-7h-147l-53 184h-252l-52 -184h-147v7zM419 307l-56 198l-32 121h-12l-32 -121l-56 -198h188zM157 901l170 74l169 -74v-103l-169 73l-170 -73v103z" />
    <glyph glyph-name="Atilde" unicode="&#xc3;" horiz-adv-x="651" 
d="M0 7l210 733h231l210 -733v-7h-147l-53 184h-252l-52 -184h-147v7zM419 307l-56 198l-32 121h-12l-32 -121l-56 -198h188zM134 844c19.333 36 41.334 63.501 66.001 82.501s48.667 28.5 72 28.5c14 0 27.833 -2.16699 41.5 -6.5s27 -9 40 -14s26.167 -9.5 39.5 -13.5
s27 -6 41 -6c13.333 0 26.166 3 38.499 9s25.5 16 39.5 30l24 -25c-18 -36.667 -39.333 -64.334 -64 -83.001s-49.334 -28 -74.001 -28c-14 0 -27.667 2 -41 6s-26.666 8.5 -39.999 13.5s-26.5 9.5 -39.5 13.5s-26.5 6 -40.5 6c-13.333 0 -26.5 -2.83301 -39.5 -8.5
s-26.5 -15.167 -40.5 -28.5z" />
    <glyph glyph-name="Adieresis" unicode="&#xc4;" horiz-adv-x="651" 
d="M0 7l210 733h231l210 -733v-7h-147l-53 184h-252l-52 -184h-147v7zM419 307l-56 198l-32 121h-12l-32 -121l-56 -198h188zM199 803c-30 0 -51.5 6.5 -64.5 19.5s-19.5 34.167 -19.5 63.5s6.5 50.333 19.5 63s34.5 19 64.5 19c29.333 0 50.833 -6.5 64.5 -19.5
s20.5 -33.833 20.5 -62.5c0 -29.333 -6.83301 -50.5 -20.5 -63.5s-35.167 -19.5 -64.5 -19.5zM452 803c-30 0 -51.5 6.5 -64.5 19.5s-19.5 34.167 -19.5 63.5s6.5 50.333 19.5 63s34.5 19 64.5 19c29.333 0 50.833 -6.5 64.5 -19.5s20.5 -33.833 20.5 -62.5
c0 -29.333 -6.83301 -50.5 -20.5 -63.5s-35.167 -19.5 -64.5 -19.5z" />
    <glyph glyph-name="Aring" unicode="&#xc5;" horiz-adv-x="651" 
d="M0 7l210 733h231l210 -733v-7h-147l-53 184h-252l-52 -184h-147v7zM419 307l-56 198l-32 121h-12l-32 -121l-56 -198h188zM324 759c-35.333 0 -64.002 10.667 -86.002 32s-33 48 -33 80c0 16 2.83301 30.833 8.5 44.5s13.834 25.5 24.501 35.5s23.334 17.833 38.001 23.5
s30.667 8.5 48 8.5c18 0 34.333 -2.83301 49 -8.5s27.167 -13.5 37.5 -23.5s18.5 -21.833 24.5 -35.5s9 -28.5 9 -44.5s-3 -30.833 -9 -44.5s-14.167 -25.5 -24.5 -35.5s-22.833 -17.833 -37.5 -23.5s-31 -8.5 -49 -8.5zM323.998 814c21.333 0 36.5 4.66699 45.5 14
s13.5 23.666 13.5 42.999s-4.5 33.666 -13.5 42.999s-24.167 14 -45.5 14s-36.333 -4.66699 -45 -14s-13 -23.666 -13 -42.999s4.33301 -33.666 13 -42.999s23.667 -14 45 -14z" />
    <glyph glyph-name="AE" unicode="&#xc6;" horiz-adv-x="869" 
d="M-2 7l247 733h578v-127h-276l11 -178h249v-127h-241l11 -181h257v-127h-408l-8 181h-205l-60 -181h-155v7zM256 310h157l-13 314h-39z" />
    <glyph glyph-name="Ccedilla" unicode="&#xc7;" horiz-adv-x="535" 
d="M289 -220c-12 0 -25.4971 0.99707 -40.4971 2.99707s-30.833 5 -47.5 9v90c12 -3.33301 24 -5.66602 36 -6.99902s21.667 -2 29 -2c29.333 0 44 12.667 44 38c0 22 -11 50.667 -33 86c-82 14.667 -142.833 52.167 -182.5 112.5s-59.5 146.833 -59.5 259.5
c0 130.667 26.667 226.834 80 288.501s133.666 92.5 240.999 92.5c44 0 94 -5 150 -15v-124c-25.333 4 -48.5 7 -69.5 9s-40.5 3 -58.5 3c-34 0 -62.667 -4 -86 -12s-42.333 -21.667 -57 -41s-25.167 -45.333 -31.5 -78s-9.5 -73.667 -9.5 -123
c0 -48.667 3.16699 -89.167 9.5 -121.5s16.833 -58.166 31.5 -77.499s33.5 -33 56.5 -41s51.167 -12 84.5 -12c19.333 0 41.166 1.33301 65.499 4s45.833 6 64.5 10v-122c-16 -5.33301 -35.333 -9.5 -58 -12.5s-46.334 -5.16699 -71.001 -6.5
c12 -19.333 20.5 -36.833 25.5 -52.5s7.5 -32.167 7.5 -49.5c0 -34 -10.5 -60.5 -31.5 -79.5s-50.833 -28.5 -89.5 -28.5z" />
    <glyph glyph-name="Egrave" unicode="&#xc8;" horiz-adv-x="576" 
d="M250 793l-114 177h156l67 -166zM64 740h470v-127h-316v-178h283v-126h-283v-182h325v-127h-479v740z" />
    <glyph glyph-name="Eacute" unicode="&#xc9;" horiz-adv-x="576" 
d="M239 801l68 169h155l-113 -177zM64 740h470v-127h-316v-178h283v-126h-283v-182h325v-127h-479v740z" />
    <glyph glyph-name="Ecircumflex" unicode="&#xca;" horiz-adv-x="576" 
d="M64 740h470v-127h-316v-178h283v-126h-283v-182h325v-127h-479v740zM136 901l170 74l169 -74v-103l-169 73l-170 -73v103z" />
    <glyph glyph-name="Edieresis" unicode="&#xcb;" horiz-adv-x="576" 
d="M177 803c-30 0 -51.5 6.5 -64.5 19.5s-19.5 34.167 -19.5 63.5s6.5 50.333 19.5 63s34.5 19 64.5 19c29.333 0 50.833 -6.5 64.5 -19.5s20.5 -33.833 20.5 -62.5c0 -29.333 -6.83301 -50.5 -20.5 -63.5s-35.167 -19.5 -64.5 -19.5zM430 803c-30 0 -51.5 6.5 -64.5 19.5
s-19.5 34.167 -19.5 63.5s6.5 50.333 19.5 63s34.5 19 64.5 19c29.333 0 50.833 -6.5 64.5 -19.5s20.5 -33.833 20.5 -62.5c0 -29.333 -6.83301 -50.5 -20.5 -63.5s-35.167 -19.5 -64.5 -19.5zM64 740h470v-127h-316v-178h283v-126h-283v-182h325v-127h-479v740z" />
    <glyph glyph-name="Igrave" unicode="&#xcc;" horiz-adv-x="282" 
d="M64 740h154v-740h-154v740zM89 793l-114 177h156l67 -166z" />
    <glyph glyph-name="Iacute" unicode="&#xcd;" horiz-adv-x="282" 
d="M64 740h154v-740h-154v740zM81 801l68 169h155l-113 -177z" />
    <glyph glyph-name="Icircumflex" unicode="&#xce;" horiz-adv-x="282" 
d="M64 740h154v-740h-154v740zM-27 901l170 74l169 -74v-103l-169 73l-170 -73v103z" />
    <glyph glyph-name="Idieresis" unicode="&#xcf;" horiz-adv-x="282" 
d="M64 740h154v-740h-154v740zM16 803c-30 0 -51.5 6.5 -64.5 19.5s-19.5 34.167 -19.5 63.5s6.5 50.333 19.5 63s34.5 19 64.5 19c29.333 0 50.833 -6.5 64.5 -19.5s20.5 -33.833 20.5 -62.5c0 -29.333 -6.83301 -50.5 -20.5 -63.5s-35.167 -19.5 -64.5 -19.5zM269 803
c-30 0 -51.5 6.5 -64.5 19.5s-19.5 34.167 -19.5 63.5s6.5 50.333 19.5 63s34.5 19 64.5 19c29.333 0 50.833 -6.5 64.5 -19.5s20.5 -33.833 20.5 -62.5c0 -29.333 -6.83301 -50.5 -20.5 -63.5s-35.167 -19.5 -64.5 -19.5z" />
    <glyph glyph-name="Eth" unicode="&#xd0;" horiz-adv-x="696" 
d="M0 431h85.001v307c44 3.33301 82.333 6 115 8s62 3 88 3c66.667 0 123.5 -7.16699 170.5 -21.5s85.5 -36.833 115.5 -67.5s52 -70 66 -118s21 -105.667 21 -173c0 -68 -7.33301 -126.167 -22 -174.5s-37.667 -87.833 -69 -118.5s-71.833 -53.167 -121.5 -67.5
s-109.834 -21.5 -180.501 -21.5c-57.333 0 -118.333 4 -183 12v314h-85v118zM322.001 112c33.333 0 61.501 4.33301 84.501 13s41.5 23 55.5 43s24.167 46.5 30.5 79.5s9.5 73.833 9.5 122.5c0 48 -3.16699 88.333 -9.5 121s-16.833 59 -31.5 79s-34 34.333 -58 43
s-53.667 13 -89 13c-25.333 0 -51 -2 -77 -6v-189h109v-118h-109v-195c17.333 -2 32.666 -3.5 45.999 -4.5s26.333 -1.5 39 -1.5z" />
    <glyph glyph-name="Ntilde" unicode="&#xd1;" horiz-adv-x="720" 
d="M163 844c19.333 36 41.334 63.501 66.001 82.501s48.667 28.5 72 28.5c14 0 27.833 -2.16699 41.5 -6.5s27 -9 40 -14s26.167 -9.5 39.5 -13.5s27 -6 41 -6c13.333 0 26.166 3 38.499 9s25.5 16 39.5 30l24 -25c-18 -36.667 -39.333 -64.334 -64 -83.001
s-49.334 -28 -74.001 -28c-14 0 -27.667 2 -41 6s-26.666 8.5 -39.999 13.5s-26.5 9.5 -39.5 13.5s-26.5 6 -40.5 6c-13.333 0 -26.5 -2.83301 -39.5 -8.5s-26.5 -15.167 -40.5 -28.5zM64.001 740.001h128l274 -403l46 -82h8v485h137v-740h-128l-273 402l-47 84h-9v-486
h-136v740z" />
    <glyph glyph-name="Ograve" unicode="&#xd2;" horiz-adv-x="702" 
d="M291 793l-114 177h156l67 -166zM351 -10c-210.667 0 -316 126.333 -316 379c0 254 105.333 381 316 381s316 -127 316 -381c0 -252.667 -105.333 -379 -316 -379zM351 117c28.667 0 53 4.33301 73 13s36.333 23 49 43s21.834 46 27.501 78s8.5 71.333 8.5 118
s-2.83301 86.167 -8.5 118.5s-14.834 58.666 -27.501 78.999s-29 35 -49 44s-44.333 13.5 -73 13.5s-53 -4.5 -73 -13.5s-36.333 -23.667 -49 -44s-21.834 -46.666 -27.501 -78.999s-8.5 -71.833 -8.5 -118.5c0 -46 2.83301 -85 8.5 -117s14.834 -58 27.501 -78
s29 -34.5 49 -43.5s44.333 -13.5 73 -13.5z" />
    <glyph glyph-name="Oacute" unicode="&#xd3;" horiz-adv-x="702" 
d="M290 801l68 169h155l-113 -177zM351 -10c-210.667 0 -316 126.333 -316 379c0 254 105.333 381 316 381s316 -127 316 -381c0 -252.667 -105.333 -379 -316 -379zM351 117c28.667 0 53 4.33301 73 13s36.333 23 49 43s21.834 46 27.501 78s8.5 71.333 8.5 118
s-2.83301 86.167 -8.5 118.5s-14.834 58.666 -27.501 78.999s-29 35 -49 44s-44.333 13.5 -73 13.5s-53 -4.5 -73 -13.5s-36.333 -23.667 -49 -44s-21.834 -46.666 -27.501 -78.999s-8.5 -71.833 -8.5 -118.5c0 -46 2.83301 -85 8.5 -117s14.834 -58 27.501 -78
s29 -34.5 49 -43.5s44.333 -13.5 73 -13.5z" />
    <glyph glyph-name="Ocircumflex" unicode="&#xd4;" horiz-adv-x="702" 
d="M351 -10c-210.667 0 -316 126.333 -316 379c0 254 105.333 381 316 381s316 -127 316 -381c0 -252.667 -105.333 -379 -316 -379zM351 117c28.667 0 53 4.33301 73 13s36.333 23 49 43s21.834 46 27.501 78s8.5 71.333 8.5 118s-2.83301 86.167 -8.5 118.5
s-14.834 58.666 -27.501 78.999s-29 35 -49 44s-44.333 13.5 -73 13.5s-53 -4.5 -73 -13.5s-36.333 -23.667 -49 -44s-21.834 -46.666 -27.501 -78.999s-8.5 -71.833 -8.5 -118.5c0 -46 2.83301 -85 8.5 -117s14.834 -58 27.501 -78s29 -34.5 49 -43.5
s44.333 -13.5 73 -13.5zM181 901l170 74l169 -74v-103l-169 73l-170 -73v103z" />
    <glyph glyph-name="Otilde" unicode="&#xd5;" horiz-adv-x="702" 
d="M159 844c19.333 36 41.334 63.501 66.001 82.501s48.667 28.5 72 28.5c14 0 27.833 -2.16699 41.5 -6.5s27 -9 40 -14s26.167 -9.5 39.5 -13.5s27 -6 41 -6c13.333 0 26.166 3 38.499 9s25.5 16 39.5 30l24 -25c-18 -36.667 -39.333 -64.334 -64 -83.001
s-49.334 -28 -74.001 -28c-14 0 -27.667 2 -41 6s-26.666 8.5 -39.999 13.5s-26.5 9.5 -39.5 13.5s-26.5 6 -40.5 6c-13.333 0 -26.5 -2.83301 -39.5 -8.5s-26.5 -15.167 -40.5 -28.5zM351.001 -9.99902c-210.667 0 -316 126.333 -316 379c0 254 105.333 381 316 381
s316 -127 316 -381c0 -252.667 -105.333 -379 -316 -379zM351.001 117.001c28.667 0 53 4.33301 73 13s36.333 23 49 43s21.834 46 27.501 78s8.5 71.333 8.5 118s-2.83301 86.167 -8.5 118.5s-14.834 58.666 -27.501 78.999s-29 35 -49 44s-44.333 13.5 -73 13.5
s-53 -4.5 -73 -13.5s-36.333 -23.667 -49 -44s-21.834 -46.666 -27.501 -78.999s-8.5 -71.833 -8.5 -118.5c0 -46 2.83301 -85 8.5 -117s14.834 -58 27.501 -78s29 -34.5 49 -43.5s44.333 -13.5 73 -13.5z" />
    <glyph glyph-name="Odieresis" unicode="&#xd6;" horiz-adv-x="702" 
d="M222 803c-30 0 -51.5 6.5 -64.5 19.5s-19.5 34.167 -19.5 63.5s6.5 50.333 19.5 63s34.5 19 64.5 19c29.333 0 50.833 -6.5 64.5 -19.5s20.5 -33.833 20.5 -62.5c0 -29.333 -6.83301 -50.5 -20.5 -63.5s-35.167 -19.5 -64.5 -19.5zM475 803c-30 0 -51.5 6.5 -64.5 19.5
s-19.5 34.167 -19.5 63.5s6.5 50.333 19.5 63s34.5 19 64.5 19c29.333 0 50.833 -6.5 64.5 -19.5s20.5 -33.833 20.5 -62.5c0 -29.333 -6.83301 -50.5 -20.5 -63.5s-35.167 -19.5 -64.5 -19.5zM351 -10c-210.667 0 -316 126.333 -316 379c0 254 105.333 381 316 381
s316 -127 316 -381c0 -252.667 -105.333 -379 -316 -379zM351 117c28.667 0 53 4.33301 73 13s36.333 23 49 43s21.834 46 27.501 78s8.5 71.333 8.5 118s-2.83301 86.167 -8.5 118.5s-14.834 58.666 -27.501 78.999s-29 35 -49 44s-44.333 13.5 -73 13.5
s-53 -4.5 -73 -13.5s-36.333 -23.667 -49 -44s-21.834 -46.666 -27.501 -78.999s-8.5 -71.833 -8.5 -118.5c0 -46 2.83301 -85 8.5 -117s14.834 -58 27.501 -78s29 -34.5 49 -43.5s44.333 -13.5 73 -13.5z" />
    <glyph glyph-name="multiply" unicode="&#xd7;" horiz-adv-x="488" 
d="M36 236l134 134l-134 135l74 74l134 -135l134 135l75 -74l-135 -135l135 -134l-74 -74l-135 134l-134 -134z" />
    <glyph glyph-name="Oslash" unicode="&#xd8;" horiz-adv-x="706" 
d="M96 112c-39.333 62.667 -59 148.333 -59 257c0 254 105.333 381 316 381c79.333 0 144.333 -18.333 195 -55l35 45h114l-87 -113c39.333 -62.667 59 -148.667 59 -258c0 -252.667 -105.333 -379 -316 -379c-79.333 0 -144 18 -194 54l-34 -44h-115zM195 368.999
c0 -23.333 0.500977 -44.833 1.50098 -64.5s3.16699 -37.834 6.5 -54.501l259 334c-24 26.667 -60.333 40 -109 40c-28.667 0 -53 -4.5 -73 -13.5s-36.333 -23.667 -49 -44s-21.834 -46.666 -27.501 -78.999s-8.5 -71.833 -8.5 -118.5zM353.001 116.999
c28.667 0 53.165 4.33301 73.498 13s36.833 23 49.5 43s21.834 46 27.501 78s8.5 71.333 8.5 118s-3 86.667 -9 120l-258 -334c12.667 -13.333 27.834 -23 45.501 -29s38.5 -9 62.5 -9z" />
    <glyph glyph-name="Ugrave" unicode="&#xd9;" horiz-adv-x="704" 
d="M290 793l-114 177h156l67 -166zM352 -10c-54 0 -99.6709 6.16797 -137.004 18.501s-67.666 30.833 -90.999 55.5s-40.166 55.834 -50.499 93.501s-15.5 82.167 -15.5 133.5v449h154v-444c0 -62.667 10.833 -107.834 32.5 -135.501s57.5 -41.5 107.5 -41.5
s85.833 13.667 107.5 41s32.5 72.666 32.5 135.999v444h154v-449c0 -51.333 -5.16699 -95.833 -15.5 -133.5s-27.166 -69 -50.499 -94s-53.666 -43.5 -90.999 -55.5s-83 -18 -137 -18z" />
    <glyph glyph-name="Uacute" unicode="&#xda;" horiz-adv-x="704" 
d="M283 801l68 169h155l-113 -177zM352 -10c-54 0 -99.6709 6.16797 -137.004 18.501s-67.666 30.833 -90.999 55.5s-40.166 55.834 -50.499 93.501s-15.5 82.167 -15.5 133.5v449h154v-444c0 -62.667 10.833 -107.834 32.5 -135.501s57.5 -41.5 107.5 -41.5
s85.833 13.667 107.5 41s32.5 72.666 32.5 135.999v444h154v-449c0 -51.333 -5.16699 -95.833 -15.5 -133.5s-27.166 -69 -50.499 -94s-53.666 -43.5 -90.999 -55.5s-83 -18 -137 -18z" />
    <glyph glyph-name="Ucircumflex" unicode="&#xdb;" horiz-adv-x="704" 
d="M352 -10c-54 0 -99.6709 6.16797 -137.004 18.501s-67.666 30.833 -90.999 55.5s-40.166 55.834 -50.499 93.501s-15.5 82.167 -15.5 133.5v449h154v-444c0 -62.667 10.833 -107.834 32.5 -135.501s57.5 -41.5 107.5 -41.5s85.833 13.667 107.5 41
s32.5 72.666 32.5 135.999v444h154v-449c0 -51.333 -5.16699 -95.833 -15.5 -133.5s-27.166 -69 -50.499 -94s-53.666 -43.5 -90.999 -55.5s-83 -18 -137 -18zM176.996 901.001l170 74l169 -74v-103l-169 73l-170 -73v103z" />
    <glyph glyph-name="Udieresis" unicode="&#xdc;" horiz-adv-x="704" 
d="M220 803c-30 0 -51.5 6.5 -64.5 19.5s-19.5 34.167 -19.5 63.5s6.5 50.333 19.5 63s34.5 19 64.5 19c29.333 0 50.833 -6.5 64.5 -19.5s20.5 -33.833 20.5 -62.5c0 -29.333 -6.83301 -50.5 -20.5 -63.5s-35.167 -19.5 -64.5 -19.5zM473 803c-30 0 -51.5 6.5 -64.5 19.5
s-19.5 34.167 -19.5 63.5s6.5 50.333 19.5 63s34.5 19 64.5 19c29.333 0 50.833 -6.5 64.5 -19.5s20.5 -33.833 20.5 -62.5c0 -29.333 -6.83301 -50.5 -20.5 -63.5s-35.167 -19.5 -64.5 -19.5zM352 -10c-54 0 -99.6709 6.16797 -137.004 18.501s-67.666 30.833 -90.999 55.5
s-40.166 55.834 -50.499 93.501s-15.5 82.167 -15.5 133.5v449h154v-444c0 -62.667 10.833 -107.834 32.5 -135.501s57.5 -41.5 107.5 -41.5s85.833 13.667 107.5 41s32.5 72.666 32.5 135.999v444h154v-449c0 -51.333 -5.16699 -95.833 -15.5 -133.5
s-27.166 -69 -50.499 -94s-53.666 -43.5 -90.999 -55.5s-83 -18 -137 -18z" />
    <glyph glyph-name="Yacute" unicode="&#xdd;" horiz-adv-x="653" 
d="M250 247l-257 493h171l138 -290l20 -60h9l21 60l138 290h169l-255 -491v-249h-154v247zM268 801l68 169h155l-113 -177z" />
    <glyph glyph-name="Thorn" unicode="&#xde;" horiz-adv-x="619" 
d="M64 740l153.999 -0.000976562v-113c7.33301 0.666992 14.5 1 21.5 1h21.5c117.333 0 202.5 -20.667 255.5 -62s79.5 -107.666 79.5 -198.999c0 -90 -26.167 -155.5 -78.5 -196.5s-136.166 -61.5 -251.499 -61.5h-48v-109h-154v740zM281.999 233.999
c30 0 55 2.16504 75 6.49805s36 11.833 48 22.5s20.667 24.334 26 41.001s8 37.667 8 63c0 24.667 -2.5 45.667 -7.5 63s-13.667 31.166 -26 41.499s-28.666 17.833 -48.999 22.5s-45.5 7 -75.5 7h-12.5c-5.66699 0 -11.834 -0.166992 -18.501 -0.5
s-13 -0.666016 -19 -0.999023s-10.333 -0.833008 -13 -1.5v-261c2 -0.666992 6 -1.16699 12 -1.5s12.5 -0.666016 19.5 -0.999023s13.5 -0.5 19.5 -0.5h13z" />
    <glyph glyph-name="germandbls" unicode="&#xdf;" horiz-adv-x="677" 
d="M54 575c0 82 21.6689 142.003 65.002 180.003s110.666 57 201.999 57c92 0 159.667 -19 203 -57s65 -98 65 -180v-136h-85c-30 0 -53.167 -4.66699 -69.5 -14s-24.5 -22.666 -24.5 -39.999c0 -19.333 6.83301 -32.833 20.5 -40.5s33.167 -13.834 58.5 -18.501
c21.333 -3.33301 42.166 -8 62.499 -14s38.5 -15 54.5 -27s28.833 -27.833 38.5 -47.5s14.5 -44.834 14.5 -75.501c0 -55.333 -18.667 -97.833 -56 -127.5s-91 -44.5 -161 -44.5c-26.667 0 -54.834 2.16699 -84.501 6.5s-60.167 10.5 -91.5 18.5v109
c28 -8 56.833 -14.333 86.5 -19s57.834 -7 84.501 -7c52 0 78 17.667 78 53c0 17.333 -6 30.666 -18 39.999s-30.667 16 -56 20c-18 2.66699 -37 6.16699 -57 10.5s-38.5 12 -55.5 23s-31.167 27 -42.5 48s-17 49.833 -17 86.5c0 46.667 15 85 45 115s71.333 48 124 54v27
c0 43.333 -8.83301 74.166 -26.5 92.499s-47.5 27.5 -89.5 27.5s-72 -9 -90 -27s-27 -49 -27 -93v-575h-151v575z" />
    <glyph glyph-name="agrave" unicode="&#xe0;" horiz-adv-x="525" 
d="M173 -5c-46 0 -82.334 13.999 -109.001 41.999s-40 66 -40 114c0 104 65.667 160.333 197 169l103 7v11c0 19.333 -1.33301 35.333 -4 48s-7.66699 22.834 -15 30.501s-17.333 13 -30 16s-29 4.5 -49 4.5c-9.33301 0 -20.5 -0.5 -33.5 -1.5s-26.5 -2.16699 -40.5 -3.5
s-28 -3 -42 -5s-26.333 -4 -37 -6l-10 108c32 5.33301 63.833 9.83301 95.5 13.5s61.834 5.5 90.501 5.5c78.667 0 135.834 -14.167 171.501 -42.5s53.5 -72.833 53.5 -133.5v-372h-124l-12 65h-9c-20.667 -21.333 -44.334 -38.333 -71.001 -51s-55 -19 -85 -19z
M231.999 103.999c15.333 0 31.332 3.83105 47.999 11.498s31.334 16.167 44.001 25.5v99l-66 -6c-30.667 -3.33301 -52.167 -10.166 -64.5 -20.499s-18.5 -26.166 -18.5 -47.499c0 -41.333 19 -62 57 -62zM211.998 609.997l-115 196h156l67 -186z" />
    <glyph glyph-name="aacute" unicode="&#xe1;" horiz-adv-x="525" 
d="M173 -5c-46 0 -82.334 13.999 -109.001 41.999s-40 66 -40 114c0 104 65.667 160.333 197 169l103 7v11c0 19.333 -1.33301 35.333 -4 48s-7.66699 22.834 -15 30.501s-17.333 13 -30 16s-29 4.5 -49 4.5c-9.33301 0 -20.5 -0.5 -33.5 -1.5s-26.5 -2.16699 -40.5 -3.5
s-28 -3 -42 -5s-26.333 -4 -37 -6l-10 108c32 5.33301 63.833 9.83301 95.5 13.5s61.834 5.5 90.501 5.5c78.667 0 135.834 -14.167 171.501 -42.5s53.5 -72.833 53.5 -133.5v-372h-124l-12 65h-9c-20.667 -21.333 -44.334 -38.333 -71.001 -51s-55 -19 -85 -19z
M231.999 103.999c15.333 0 31.332 3.83105 47.999 11.498s31.334 16.167 44.001 25.5v99l-66 -6c-30.667 -3.33301 -52.167 -10.166 -64.5 -20.499s-18.5 -26.166 -18.5 -47.499c0 -41.333 19 -62 57 -62zM209.998 617.997l67 187h154l-113 -196z" />
    <glyph glyph-name="acircumflex" unicode="&#xe2;" horiz-adv-x="525" 
d="M173 -5c-46 0 -82.334 13.999 -109.001 41.999s-40 66 -40 114c0 104 65.667 160.333 197 169l103 7v11c0 19.333 -1.33301 35.333 -4 48s-7.66699 22.834 -15 30.501s-17.333 13 -30 16s-29 4.5 -49 4.5c-9.33301 0 -20.5 -0.5 -33.5 -1.5s-26.5 -2.16699 -40.5 -3.5
s-28 -3 -42 -5s-26.333 -4 -37 -6l-10 108c32 5.33301 63.833 9.83301 95.5 13.5s61.834 5.5 90.501 5.5c78.667 0 135.834 -14.167 171.501 -42.5s53.5 -72.833 53.5 -133.5v-372h-124l-12 65h-9c-20.667 -21.333 -44.334 -38.333 -71.001 -51s-55 -19 -85 -19z
M231.999 103.999c15.333 0 31.332 3.83105 47.999 11.498s31.334 16.167 44.001 25.5v99l-66 -6c-30.667 -3.33301 -52.167 -10.166 -64.5 -20.499s-18.5 -26.166 -18.5 -47.499c0 -41.333 19 -62 57 -62zM101.998 718.997l170 73l170 -73v-104l-170 73l-170 -73v104z" />
    <glyph glyph-name="atilde" unicode="&#xe3;" horiz-adv-x="525" 
d="M173 -5c-46 0 -82.334 13.999 -109.001 41.999s-40 66 -40 114c0 104 65.667 160.333 197 169l103 7v11c0 19.333 -1.33301 35.333 -4 48s-7.66699 22.834 -15 30.501s-17.333 13 -30 16s-29 4.5 -49 4.5c-9.33301 0 -20.5 -0.5 -33.5 -1.5s-26.5 -2.16699 -40.5 -3.5
s-28 -3 -42 -5s-26.333 -4 -37 -6l-10 108c32 5.33301 63.833 9.83301 95.5 13.5s61.834 5.5 90.501 5.5c78.667 0 135.834 -14.167 171.501 -42.5s53.5 -72.833 53.5 -133.5v-372h-124l-12 65h-9c-20.667 -21.333 -44.334 -38.333 -71.001 -51s-55 -19 -85 -19z
M231.999 103.999c15.333 0 31.332 3.83105 47.999 11.498s31.334 16.167 44.001 25.5v99l-66 -6c-30.667 -3.33301 -52.167 -10.166 -64.5 -20.499s-18.5 -26.166 -18.5 -47.499c0 -41.333 19 -62 57 -62zM70.998 660.997c19.333 34 41.332 59.667 65.999 77
s48.667 26 72 26c14.667 0 28.667 -2.66699 42 -8s26.5 -11 39.5 -17s26.167 -11.667 39.5 -17s27 -8 41 -8c12.667 0 24.667 3 36 9s23.666 16.667 36.999 32l30 -35c-18.667 -35.333 -40.334 -61.333 -65.001 -78s-49 -25 -73 -25c-14 0 -27.667 2.5 -41 7.5
s-26.666 10.667 -39.999 17s-26.666 12 -39.999 17s-26.666 7.5 -39.999 7.5s-25.833 -3 -37.5 -9s-24.167 -16 -37.5 -30z" />
    <glyph glyph-name="adieresis" unicode="&#xe4;" horiz-adv-x="525" 
d="M173 -5c-46 0 -82.334 13.999 -109.001 41.999s-40 66 -40 114c0 104 65.667 160.333 197 169l103 7v11c0 19.333 -1.33301 35.333 -4 48s-7.66699 22.834 -15 30.501s-17.333 13 -30 16s-29 4.5 -49 4.5c-9.33301 0 -20.5 -0.5 -33.5 -1.5s-26.5 -2.16699 -40.5 -3.5
s-28 -3 -42 -5s-26.333 -4 -37 -6l-10 108c32 5.33301 63.833 9.83301 95.5 13.5s61.834 5.5 90.501 5.5c78.667 0 135.834 -14.167 171.501 -42.5s53.5 -72.833 53.5 -133.5v-372h-124l-12 65h-9c-20.667 -21.333 -44.334 -38.333 -71.001 -51s-55 -19 -85 -19z
M231.999 103.999c15.333 0 31.332 3.83105 47.999 11.498s31.334 16.167 44.001 25.5v99l-66 -6c-30.667 -3.33301 -52.167 -10.166 -64.5 -20.499s-18.5 -26.166 -18.5 -47.499c0 -41.333 19 -62 57 -62zM148.998 618.997c-26.667 0 -46 6 -58 18s-18 31 -18 57
c0 25.333 6 43.833 18 55.5s31.333 17.5 58 17.5c51.333 0 77 -24.333 77 -73c0 -26 -6.33301 -45 -19 -57s-32 -18 -58 -18zM383.998 618.997c-26.667 0 -46 6 -58 18s-18 31 -18 57c0 25.333 6 43.833 18 55.5s31.333 17.5 58 17.5c50.667 0 76 -24.333 76 -73
c0 -26 -6.16699 -45 -18.5 -57s-31.5 -18 -57.5 -18z" />
    <glyph glyph-name="aring" unicode="&#xe5;" horiz-adv-x="525" 
d="M173 -5c-46 0 -82.334 13.999 -109.001 41.999s-40 66 -40 114c0 104 65.667 160.333 197 169l103 7v11c0 19.333 -1.33301 35.333 -4 48s-7.66699 22.834 -15 30.501s-17.333 13 -30 16s-29 4.5 -49 4.5c-9.33301 0 -20.5 -0.5 -33.5 -1.5s-26.5 -2.16699 -40.5 -3.5
s-28 -3 -42 -5s-26.333 -4 -37 -6l-10 108c32 5.33301 63.833 9.83301 95.5 13.5s61.834 5.5 90.501 5.5c78.667 0 135.834 -14.167 171.501 -42.5s53.5 -72.833 53.5 -133.5v-372h-124l-12 65h-9c-20.667 -21.333 -44.334 -38.333 -71.001 -51s-55 -19 -85 -19z
M231.999 103.999c15.333 0 31.332 3.83105 47.999 11.498s31.334 16.167 44.001 25.5v99l-66 -6c-30.667 -3.33301 -52.167 -10.166 -64.5 -20.499s-18.5 -26.166 -18.5 -47.499c0 -41.333 19 -62 57 -62zM262.998 594.997c-36 0 -65.3311 10.333 -87.998 31
s-34 47.334 -34 80.001c0 33.333 11.167 60.333 33.5 81s51.833 31 88.5 31c37.333 0 67.166 -10.333 89.499 -31s33.5 -47.667 33.5 -81c0 -32.667 -11.333 -59.334 -34 -80.001s-52.334 -31 -89.001 -31zM263 650.997c18 0 31.833 5 41.5 15s14.5 23.333 14.5 40
c0 17.333 -4.83301 31 -14.5 41s-23.5 15 -41.5 15s-31.667 -5 -41 -15s-14 -23.667 -14 -41s4.83301 -30.833 14.5 -40.5s23.167 -14.5 40.5 -14.5z" />
    <glyph glyph-name="ae" unicode="&#xe6;" horiz-adv-x="816" 
d="M577 -10c-44 0 -81.332 7.16504 -111.999 21.498s-55.667 36.5 -75 66.5l-8 1c-40 -29.333 -76.833 -50.666 -110.5 -63.999s-66.834 -20 -99.501 -20c-46 0 -82.167 14 -108.5 42s-39.5 66 -39.5 114c0 104 65.667 160.333 197 169l103 7v30
c0 31.333 -7.5 52.5 -22.5 63.5s-41.5 16.5 -79.5 16.5c-9.33301 0 -20.5 -0.5 -33.5 -1.5s-26.333 -2.16699 -40 -3.5s-27.167 -3 -40.5 -5s-25 -4 -35 -6l-10 108c36 6 69.333 10.667 100 14s60 5 88 5c38 0 69.5 -5.66699 94.5 -17s44.167 -28.333 57.5 -51h8
c37.333 45.333 92.333 68 165 68c138.667 0 208 -82.667 208 -248c0 -18.667 -0.333008 -33.5 -1 -44.5s-2.33398 -22.167 -5.00098 -33.5h-302c2.66699 -42.667 12.334 -73 29.001 -91s44 -27 82 -27c22.667 0 49.167 2.33301 79.5 7s61.5 11.334 93.5 20.001l5 -110
c-26 -9.33301 -56.167 -16.833 -90.5 -22.5s-66.833 -8.5 -97.5 -8.5zM232.001 102.998c14 0 29.168 3.83203 45.501 11.499s33.166 17.5 50.499 29.5c-0.666992 2 -1.16699 7.66699 -1.5 17s-0.666016 19.166 -0.999023 29.499l-1 30
c-0.333008 9.66699 -0.5 16.167 -0.5 19.5l-65 -6c-30.667 -3.33301 -52.334 -10.166 -65.001 -20.499s-19 -26.166 -19 -47.499c0 -42 19 -63 57 -63zM651.002 309.997c-1.33301 46 -8 78.667 -20 98s-32 29 -60 29c-30.667 0 -53.5 -10.167 -68.5 -30.5
s-23.833 -52.5 -26.5 -96.5h175z" />
    <glyph glyph-name="ccedilla" unicode="&#xe7;" horiz-adv-x="448" 
d="M223 -220c-12 0 -25.502 1 -40.502 3s-30.833 5 -47.5 9v90c12 -3.33301 24 -5.66602 36 -6.99902s21.667 -2 29 -2c29.333 0 44 12.667 44 38c0 23.333 -11.667 52.666 -35 87.999c-59.333 13.333 -103.666 42 -132.999 86s-44 105.667 -44 185
c0 95.333 21.667 165.666 65 210.999s108.666 68 195.999 68c21.333 0 42.5 -1.16699 63.5 -3.5s40.167 -6.16602 57.5 -11.499v-119c-19.333 3.33301 -37.833 6 -55.5 8s-34.167 3 -49.5 3c-44.667 0 -76.5 -11.833 -95.5 -35.5s-28.5 -63.5 -28.5 -119.5
s9.5 -96.333 28.5 -121s50.5 -37 94.5 -37c19.333 0 37.333 0.833008 54 2.5s34 4.5 52 8.5v-117c-13.333 -4 -29.166 -7.33301 -47.499 -10s-37.166 -4.66699 -56.499 -6c12 -19.333 20.667 -37 26 -53s8 -32.667 8 -50c0 -34 -10.5 -60.5 -31.5 -79.5
s-50.833 -28.5 -89.5 -28.5z" />
    <glyph glyph-name="egrave" unicode="&#xe8;" horiz-adv-x="521" 
d="M282 -9c-83.333 0 -145.835 23 -187.502 69s-62.5 114 -62.5 204c0 94 20.833 165 62.5 213s104.167 72 187.5 72c138.667 0 208 -82.667 208 -248c0 -18 -0.333008 -32.833 -1 -44.5s-2.33398 -23.167 -5.00098 -34.5h-301c2 -22.667 5.33301 -41.5 10 -56.5
s11.334 -27 20.001 -36s19.5 -15.333 32.5 -19s28.833 -5.5 47.5 -5.5c23.333 0 50.333 2.5 81 7.5s61.334 11.833 92.001 20.5l5 -111c-26 -9.33301 -56.167 -16.833 -90.5 -22.5s-67.166 -8.5 -98.499 -8.5zM275.998 439c-30 0 -52.168 -9.66699 -66.501 -29
s-23.166 -52 -26.499 -98h173c-1.33301 46 -8 78.667 -20 98s-32 29 -60 29zM208.997 610l-115 196h156l67 -186z" />
    <glyph glyph-name="eacute" unicode="&#xe9;" horiz-adv-x="521" 
d="M218 618l67 187h154l-113 -196zM282 -9c-83.333 0 -145.835 23 -187.502 69s-62.5 114 -62.5 204c0 94 20.833 165 62.5 213s104.167 72 187.5 72c138.667 0 208 -82.667 208 -248c0 -18 -0.333008 -32.833 -1 -44.5s-2.33398 -23.167 -5.00098 -34.5h-301
c2 -22.667 5.33301 -41.5 10 -56.5s11.334 -27 20.001 -36s19.5 -15.333 32.5 -19s28.833 -5.5 47.5 -5.5c23.333 0 50.333 2.5 81 7.5s61.334 11.833 92.001 20.5l5 -111c-26 -9.33301 -56.167 -16.833 -90.5 -22.5s-67.166 -8.5 -98.499 -8.5zM275.998 439
c-30 0 -52.168 -9.66699 -66.501 -29s-23.166 -52 -26.499 -98h173c-1.33301 46 -8 78.667 -20 98s-32 29 -60 29z" />
    <glyph glyph-name="ecircumflex" unicode="&#xea;" horiz-adv-x="521" 
d="M104 719l170 73l170 -73v-104l-170 73l-170 -73v104zM282 -9c-83.333 0 -145.835 23 -187.502 69s-62.5 114 -62.5 204c0 94 20.833 165 62.5 213s104.167 72 187.5 72c138.667 0 208 -82.667 208 -248c0 -18 -0.333008 -32.833 -1 -44.5
s-2.33398 -23.167 -5.00098 -34.5h-301c2 -22.667 5.33301 -41.5 10 -56.5s11.334 -27 20.001 -36s19.5 -15.333 32.5 -19s28.833 -5.5 47.5 -5.5c23.333 0 50.333 2.5 81 7.5s61.334 11.833 92.001 20.5l5 -111c-26 -9.33301 -56.167 -16.833 -90.5 -22.5
s-67.166 -8.5 -98.499 -8.5zM275.998 439c-30 0 -52.168 -9.66699 -66.501 -29s-23.166 -52 -26.499 -98h173c-1.33301 46 -8 78.667 -20 98s-32 29 -60 29z" />
    <glyph glyph-name="edieresis" unicode="&#xeb;" horiz-adv-x="521" 
d="M150 619c-26.667 0 -46 6 -58 18s-18 31 -18 57c0 25.333 6 43.833 18 55.5s31.333 17.5 58 17.5c51.333 0 77 -24.333 77 -73c0 -26 -6.33301 -45 -19 -57s-32 -18 -58 -18zM385 619c-26.667 0 -46 6 -58 18s-18 31 -18 57c0 25.333 6 43.833 18 55.5
s31.333 17.5 58 17.5c50.667 0 76 -24.333 76 -73c0 -26 -6.16699 -45 -18.5 -57s-31.5 -18 -57.5 -18zM282 -9c-83.333 0 -145.835 23 -187.502 69s-62.5 114 -62.5 204c0 94 20.833 165 62.5 213s104.167 72 187.5 72c138.667 0 208 -82.667 208 -248
c0 -18 -0.333008 -32.833 -1 -44.5s-2.33398 -23.167 -5.00098 -34.5h-301c2 -22.667 5.33301 -41.5 10 -56.5s11.334 -27 20.001 -36s19.5 -15.333 32.5 -19s28.833 -5.5 47.5 -5.5c23.333 0 50.333 2.5 81 7.5s61.334 11.833 92.001 20.5l5 -111
c-26 -9.33301 -56.167 -16.833 -90.5 -22.5s-67.166 -8.5 -98.499 -8.5zM275.998 439c-30 0 -52.168 -9.66699 -66.501 -29s-23.166 -52 -26.499 -98h173c-1.33301 46 -8 78.667 -20 98s-32 29 -60 29z" />
    <glyph glyph-name="igrave" unicode="&#xec;" horiz-adv-x="260" 
d="M55 540h151v-540h-151v540zM76 610l-115 196h156l67 -186z" />
    <glyph glyph-name="iacute" unicode="&#xed;" horiz-adv-x="260" 
d="M79 618l67 187h154l-113 -196zM54 540h151v-540h-151v540z" />
    <glyph glyph-name="icircumflex" unicode="&#xee;" horiz-adv-x="261" 
d="M-26 719l166 73l166 -73v-104l-166 73l-166 -73v104zM55 540h151v-540h-151v540z" />
    <glyph glyph-name="idieresis" unicode="&#xef;" horiz-adv-x="261" 
d="M21 619c-26.667 0 -46 6 -58 18s-18 31 -18 57c0 25.333 6 43.833 18 55.5s31.333 17.5 58 17.5c51.333 0 77 -24.333 77 -73c0 -26 -6.33301 -45 -19 -57s-32 -18 -58 -18zM248 619c-26.667 0 -46 6 -58 18s-18 31 -18 57c0 25.333 6 43.833 18 55.5
s31.333 17.5 58 17.5c50.667 0 76 -24.333 76 -73c0 -26 -6.33301 -45 -19 -57s-31.667 -18 -57 -18zM55 540h151v-540h-151v540z" />
    <glyph glyph-name="eth" unicode="&#xf0;" horiz-adv-x="572" 
d="M185 698l95.0029 10.001c-11.333 17.333 -23.333 34.5 -36 51.5s-26.334 33.167 -41.001 48.5h154c19.333 -25.333 38.666 -53.666 57.999 -84.999l138 16v-94l-92 -10c21.333 -48.667 38.666 -102.167 51.999 -160.5s20 -122.833 20 -193.5
c0 -96 -21.167 -168.5 -63.5 -217.5s-104.833 -73.5 -187.5 -73.5c-82 0 -144.333 23.667 -187 71s-64 116.666 -64 207.999c0 92 21.167 161.833 63.5 209.5s103.5 71.5 183.5 71.5c18.667 0 35.5 -2.66699 50.5 -8s28.5 -14.333 40.5 -27
c-5.33301 18 -11.5 35.667 -18.5 53s-14.5 34.666 -22.5 51.999l-143 -15v93zM282.003 106.001c18.667 0 34.333 2.66699 47 8s23 14.333 31 27s13.667 29.667 17 51s5 47.666 5 78.999c0 55.333 -7 96.333 -21 123s-40.333 40 -79 40
c-18.667 0 -34.334 -2.66699 -47.001 -8s-22.834 -14.333 -30.501 -27s-13.167 -29.5 -16.5 -50.5s-5 -47.167 -5 -78.5c0 -32 1.66699 -58.5 5 -79.5s8.83301 -37.667 16.5 -50s17.834 -21.166 30.501 -26.499s28.334 -8 47.001 -8z" />
    <glyph glyph-name="ntilde" unicode="&#xf1;" horiz-adv-x="570" 
d="M54 540l127 0.000976562l9 -59h5c22 12.667 41.667 23.5 59 32.5s33.5 16.167 48.5 21.5s29.333 9.16602 43 11.499s27.5 3.5 41.5 3.5c42 0 74.333 -12.667 97 -38s34 -61.333 34 -108v-404h-151v353c0 25.333 -4.5 43.333 -13.5 54s-22.167 16 -39.5 16
c-15.333 0 -32.5 -3.16699 -51.5 -9.5s-38.167 -14.833 -57.5 -25.5v-388h-151v540zM95 661.001c19.333 34 41.332 59.667 65.999 77s48.667 26 72 26c14.667 0 28.667 -2.66699 42 -8s26.5 -11 39.5 -17s26.167 -11.667 39.5 -17s27 -8 41 -8c12.667 0 24.667 3 36 9
s23.666 16.667 36.999 32l30 -35c-18.667 -35.333 -40.334 -61.333 -65.001 -78s-49 -25 -73 -25c-14 0 -27.667 2.5 -41 7.5s-26.666 10.667 -39.999 17s-26.666 12 -39.999 17s-26.666 7.5 -39.999 7.5s-25.833 -3 -37.5 -9s-24.167 -16 -37.5 -30z" />
    <glyph glyph-name="ograve" unicode="&#xf2;" horiz-adv-x="565" 
d="M282 -10c-82 0 -144.333 23.667 -187 71s-64 117 -64 209s21.333 161.667 64 209s105 71 187 71c82.667 0 145.167 -23.667 187.5 -71s63.5 -117 63.5 -209s-21.167 -161.667 -63.5 -209s-104.833 -71 -187.5 -71zM282 106c18.667 0 34.334 2.66699 47.001 8
s23 14.166 31 26.499s13.667 29 17 50s5 47.5 5 79.5s-1.66699 58.5 -5 79.5s-9 37.667 -17 50s-18.333 21.166 -31 26.499s-28.334 8 -47.001 8s-34.334 -2.66699 -47.001 -8s-22.834 -14.166 -30.501 -26.499s-13.167 -29 -16.5 -50s-5 -47.5 -5 -79.5
s1.66699 -58.5 5 -79.5s8.83301 -37.667 16.5 -50s17.834 -21.166 30.501 -26.499s28.334 -8 47.001 -8zM223 610l-115 196h156l67 -186z" />
    <glyph glyph-name="oacute" unicode="&#xf3;" horiz-adv-x="565" 
d="M225 618l67 187h154l-113 -196zM282 -10c-82 0 -144.333 23.667 -187 71s-64 117 -64 209s21.333 161.667 64 209s105 71 187 71c82.667 0 145.167 -23.667 187.5 -71s63.5 -117 63.5 -209s-21.167 -161.667 -63.5 -209s-104.833 -71 -187.5 -71zM282 106
c18.667 0 34.334 2.66699 47.001 8s23 14.166 31 26.499s13.667 29 17 50s5 47.5 5 79.5s-1.66699 58.5 -5 79.5s-9 37.667 -17 50s-18.333 21.166 -31 26.499s-28.334 8 -47.001 8s-34.334 -2.66699 -47.001 -8s-22.834 -14.166 -30.501 -26.499s-13.167 -29 -16.5 -50
s-5 -47.5 -5 -79.5s1.66699 -58.5 5 -79.5s8.83301 -37.667 16.5 -50s17.834 -21.166 30.501 -26.499s28.334 -8 47.001 -8z" />
    <glyph glyph-name="ocircumflex" unicode="&#xf4;" horiz-adv-x="565" 
d="M117 719l170 73l170 -73v-104l-170 73l-170 -73v104zM282 -10c-82 0 -144.333 23.667 -187 71s-64 117 -64 209s21.333 161.667 64 209s105 71 187 71c82.667 0 145.167 -23.667 187.5 -71s63.5 -117 63.5 -209s-21.167 -161.667 -63.5 -209s-104.833 -71 -187.5 -71z
M282 106c18.667 0 34.334 2.66699 47.001 8s23 14.166 31 26.499s13.667 29 17 50s5 47.5 5 79.5s-1.66699 58.5 -5 79.5s-9 37.667 -17 50s-18.333 21.166 -31 26.499s-28.334 8 -47.001 8s-34.334 -2.66699 -47.001 -8s-22.834 -14.166 -30.501 -26.499
s-13.167 -29 -16.5 -50s-5 -47.5 -5 -79.5s1.66699 -58.5 5 -79.5s8.83301 -37.667 16.5 -50s17.834 -21.166 30.501 -26.499s28.334 -8 47.001 -8z" />
    <glyph glyph-name="otilde" unicode="&#xf5;" horiz-adv-x="565" 
d="M282 -10c-82 0 -144.333 23.667 -187 71s-64 117 -64 209s21.333 161.667 64 209s105 71 187 71c82.667 0 145.167 -23.667 187.5 -71s63.5 -117 63.5 -209s-21.167 -161.667 -63.5 -209s-104.833 -71 -187.5 -71zM282 106c18.667 0 34.334 2.66699 47.001 8
s23 14.166 31 26.499s13.667 29 17 50s5 47.5 5 79.5s-1.66699 58.5 -5 79.5s-9 37.667 -17 50s-18.333 21.166 -31 26.499s-28.334 8 -47.001 8s-34.334 -2.66699 -47.001 -8s-22.834 -14.166 -30.501 -26.499s-13.167 -29 -16.5 -50s-5 -47.5 -5 -79.5
s1.66699 -58.5 5 -79.5s8.83301 -37.667 16.5 -50s17.834 -21.166 30.501 -26.499s28.334 -8 47.001 -8zM86 661c19.333 34 41.332 59.667 65.999 77s48.667 26 72 26c14.667 0 28.667 -2.66699 42 -8s26.5 -11 39.5 -17s26.167 -11.667 39.5 -17s27 -8 41 -8
c12.667 0 24.667 3 36 9s23.666 16.667 36.999 32l30 -35c-18.667 -35.333 -40.334 -61.333 -65.001 -78s-49 -25 -73 -25c-14 0 -27.667 2.5 -41 7.5s-26.666 10.667 -39.999 17s-26.666 12 -39.999 17s-26.666 7.5 -39.999 7.5s-25.833 -3 -37.5 -9s-24.167 -16 -37.5 -30
z" />
    <glyph glyph-name="odieresis" unicode="&#xf6;" horiz-adv-x="565" 
d="M164 619c-26.667 0 -46 6 -58 18s-18 31 -18 57c0 25.333 6 43.833 18 55.5s31.333 17.5 58 17.5c51.333 0 77 -24.333 77 -73c0 -26 -6.33301 -45 -19 -57s-32 -18 -58 -18zM399 619c-26.667 0 -46 6 -58 18s-18 31 -18 57c0 25.333 6 43.833 18 55.5
s31.333 17.5 58 17.5c50.667 0 76 -24.333 76 -73c0 -26 -6.16699 -45 -18.5 -57s-31.5 -18 -57.5 -18zM282 -10c-82 0 -144.333 23.667 -187 71s-64 117 -64 209s21.333 161.667 64 209s105 71 187 71c82.667 0 145.167 -23.667 187.5 -71s63.5 -117 63.5 -209
s-21.167 -161.667 -63.5 -209s-104.833 -71 -187.5 -71zM282 106c18.667 0 34.334 2.66699 47.001 8s23 14.166 31 26.499s13.667 29 17 50s5 47.5 5 79.5s-1.66699 58.5 -5 79.5s-9 37.667 -17 50s-18.333 21.166 -31 26.499s-28.334 8 -47.001 8
s-34.334 -2.66699 -47.001 -8s-22.834 -14.166 -30.501 -26.499s-13.167 -29 -16.5 -50s-5 -47.5 -5 -79.5s1.66699 -58.5 5 -79.5s8.83301 -37.667 16.5 -50s17.834 -21.166 30.501 -26.499s28.334 -8 47.001 -8z" />
    <glyph glyph-name="divide" unicode="&#xf7;" horiz-adv-x="517" 
d="M261 120c-20 0 -36.333 5.83301 -49 17.5s-19 29.167 -19 52.5c0 22.667 6.33301 39.5 19 50.5s29 16.5 49 16.5s36.333 -5.5 49 -16.5s19 -27.833 19 -50.5c0 -23.333 -6.33301 -40.833 -19 -52.5s-29 -17.5 -49 -17.5zM38 422h442v-104h-442v104zM261 481
c-20 0 -36.333 5.5 -49 16.5s-19 27.833 -19 50.5c0 23.333 6.33301 40.833 19 52.5s29 17.5 49 17.5s36.333 -5.83301 49 -17.5s19 -29.167 19 -52.5c0 -22.667 -6.33301 -39.5 -19 -50.5s-29 -16.5 -49 -16.5z" />
    <glyph glyph-name="oslash" unicode="&#xf8;" horiz-adv-x="571" 
d="M79 87c-29.333 46.667 -43.998 107.666 -43.998 182.999c0 91.333 20.833 160.833 62.5 208.5s104.5 71.5 188.5 71.5c61.333 0 112.666 -14 153.999 -42l27 32h98l-74 -86c30.667 -47.333 46 -108.666 46 -183.999c0 -91.333 -21 -160.833 -63 -208.5
s-104.667 -71.5 -188 -71.5c-64.667 0 -116.334 14 -155.001 42l-28 -32h-98zM286.002 105.999c20 0 36.333 2.66699 49 8s22.667 14.333 30 27s12.5 29.5 15.5 50.5s4.5 47.167 4.5 78.5c0 10.667 -0.166992 20.667 -0.5 30s-0.833008 18.333 -1.5 27l-169 -197
c15.333 -16 39.333 -24 72 -24zM186.002 269.999v-30.5c0 -9 0.666992 -17.833 2 -26.5l168 197c-14 16 -37.333 24 -70 24c-20 0 -36.5 -2.66699 -49.5 -8s-23.167 -14.333 -30.5 -27s-12.5 -29.5 -15.5 -50.5s-4.5 -47.167 -4.5 -78.5z" />
    <glyph glyph-name="ugrave" unicode="&#xf9;" horiz-adv-x="569" 
d="M193 -10c-45.333 0 -80.498 12.833 -105.498 38.5s-37.5 61.5 -37.5 107.5v404h151v-357c0 -24.667 4.5 -42.334 13.5 -53.001s23.5 -16 43.5 -16c15.333 0 31.666 3.16699 48.999 9.5s36.333 15.5 57 27.5v389h151v-540h-127l-9 58h-4l-55.5 -32
c-15.667 -8.66699 -30.334 -15.667 -44.001 -21s-27 -9.16602 -40 -11.499s-27.167 -3.5 -42.5 -3.5zM225.002 610l-115 196h156l67 -186z" />
    <glyph glyph-name="uacute" unicode="&#xfa;" horiz-adv-x="569" 
d="M227 618l67 187h154l-113 -196zM193 -10c-45.333 0 -80.498 12.833 -105.498 38.5s-37.5 61.5 -37.5 107.5v404h151v-357c0 -24.667 4.5 -42.334 13.5 -53.001s23.5 -16 43.5 -16c15.333 0 31.666 3.16699 48.999 9.5s36.333 15.5 57 27.5v389h151v-540h-127l-9 58h-4
l-55.5 -32c-15.667 -8.66699 -30.334 -15.667 -44.001 -21s-27 -9.16602 -40 -11.499s-27.167 -3.5 -42.5 -3.5z" />
    <glyph glyph-name="ucircumflex" unicode="&#xfb;" horiz-adv-x="569" 
d="M120 719l170 73l170 -73v-104l-170 73l-170 -73v104zM193 -10c-45.333 0 -80.498 12.833 -105.498 38.5s-37.5 61.5 -37.5 107.5v404h151v-357c0 -24.667 4.5 -42.334 13.5 -53.001s23.5 -16 43.5 -16c15.333 0 31.666 3.16699 48.999 9.5s36.333 15.5 57 27.5v389h151
v-540h-127l-9 58h-4l-55.5 -32c-15.667 -8.66699 -30.334 -15.667 -44.001 -21s-27 -9.16602 -40 -11.499s-27.167 -3.5 -42.5 -3.5z" />
    <glyph glyph-name="udieresis" unicode="&#xfc;" horiz-adv-x="569" 
d="M166 619c-26.667 0 -46 6 -58 18s-18 31 -18 57c0 25.333 6 43.833 18 55.5s31.333 17.5 58 17.5c51.333 0 77 -24.333 77 -73c0 -26 -6.33301 -45 -19 -57s-32 -18 -58 -18zM401 619c-26.667 0 -46 6 -58 18s-18 31 -18 57c0 25.333 6 43.833 18 55.5
s31.333 17.5 58 17.5c50.667 0 76 -24.333 76 -73c0 -26 -6.16699 -45 -18.5 -57s-31.5 -18 -57.5 -18zM193 -10c-45.333 0 -80.498 12.833 -105.498 38.5s-37.5 61.5 -37.5 107.5v404h151v-357c0 -24.667 4.5 -42.334 13.5 -53.001s23.5 -16 43.5 -16
c15.333 0 31.666 3.16699 48.999 9.5s36.333 15.5 57 27.5v389h151v-540h-127l-9 58h-4l-55.5 -32c-15.667 -8.66699 -30.334 -15.667 -44.001 -21s-27 -9.16602 -40 -11.499s-27.167 -3.5 -42.5 -3.5z" />
    <glyph glyph-name="yacute" unicode="&#xfd;" horiz-adv-x="555" 
d="M135 -193v9l65 187l-196 524v13h156l95 -307l18 -80h9l18 80l96 307h155v-13l-269 -747zM226 618l67 187h154l-113 -196z" />
    <glyph glyph-name="thorn" unicode="&#xfe;" horiz-adv-x="571" 
d="M54 808l150.999 -0.000976562v-318c37.333 39.333 86.333 59 147 59c124.667 0 187 -88 187 -264c0 -97.333 -22 -170.666 -66 -219.999s-112 -74 -204 -74c-7.33301 0 -16.666 0.5 -27.999 1.5s-23.333 2.16699 -36 3.5v-216h-151v1028zM269.999 90.999
c22 0 40.3369 2.49902 55.0039 7.49902s26.5 14.167 35.5 27.5s15.5 31.5 19.5 54.5s6 52.167 6 87.5c0 34.667 -1.5 63.334 -4.5 86.001s-8 40.5 -15 53.5s-16.167 22 -27.5 27s-25 7.5 -41 7.5c-16.667 0 -30.834 -3 -42.501 -9s-21.334 -16 -29.001 -30
s-13.167 -32.167 -16.5 -54.5s-5 -49.5 -5 -81.5v-163c11.333 -4 22.666 -7.16699 33.999 -9.5s21.666 -3.5 30.999 -3.5z" />
    <glyph glyph-name="ydieresis" unicode="&#xff;" horiz-adv-x="555" 
d="M135 -193v9l65 187l-196 524v13h156l95 -307l18 -80h9l18 80l96 307h155v-13l-269 -747zM163 619c-26.667 0 -46 6 -58 18s-18 31 -18 57c0 25.333 6 43.833 18 55.5s31.333 17.5 58 17.5c51.333 0 77 -24.333 77 -73c0 -26 -6.33301 -45 -19 -57s-32 -18 -58 -18z
M398 619c-26.667 0 -46 6 -58 18s-18 31 -18 57c0 25.333 6 43.833 18 55.5s31.333 17.5 58 17.5c50.667 0 76 -24.333 76 -73c0 -26 -6.16699 -45 -18.5 -57s-31.5 -18 -57.5 -18z" />
    <glyph glyph-name="Amacron" unicode="&#x100;" horiz-adv-x="651" 
d="M0 7l210 733h231l210 -733v-7h-147l-53 184h-252l-52 -184h-147v7zM419 307l-56 198l-32 121h-12l-32 -121l-56 -198h188zM158 941h332v-102h-332v102z" />
    <glyph glyph-name="amacron" unicode="&#x101;" horiz-adv-x="525" 
d="M173 -5c-46 0 -82.334 13.999 -109.001 41.999s-40 66 -40 114c0 104 65.667 160.333 197 169l103 7v11c0 19.333 -1.33301 35.333 -4 48s-7.66699 22.834 -15 30.501s-17.333 13 -30 16s-29 4.5 -49 4.5c-9.33301 0 -20.5 -0.5 -33.5 -1.5s-26.5 -2.16699 -40.5 -3.5
s-28 -3 -42 -5s-26.333 -4 -37 -6l-10 108c32 5.33301 63.833 9.83301 95.5 13.5s61.834 5.5 90.501 5.5c78.667 0 135.834 -14.167 171.501 -42.5s53.5 -72.833 53.5 -133.5v-372h-124l-12 65h-9c-20.667 -21.333 -44.334 -38.333 -71.001 -51s-55 -19 -85 -19z
M231.999 103.999c15.333 0 31.332 3.83105 47.999 11.498s31.334 16.167 44.001 25.5v99l-66 -6c-30.667 -3.33301 -52.167 -10.166 -64.5 -20.499s-18.5 -26.166 -18.5 -47.499c0 -41.333 19 -62 57 -62zM99.998 727.997h336v-96h-336v96z" />
    <glyph glyph-name="Abreve" unicode="&#x102;" horiz-adv-x="651" 
d="M0 7l210 733h231l210 -733v-7h-147l-53 184h-252l-52 -184h-147v7zM419 307l-56 198l-32 121h-12l-32 -121l-56 -198h188zM327 801c-64 0 -111.332 15.667 -141.999 47s-46 73 -46 125h104c0 -34 6.16699 -58.833 18.5 -74.5s34.166 -23.5 65.499 -23.5
c30 0 51.333 7.83301 64 23.5s19 40.5 19 74.5h104c0 -52 -15.5 -93.667 -46.5 -125s-77.833 -47 -140.5 -47z" />
    <glyph glyph-name="abreve" unicode="&#x103;" horiz-adv-x="525" 
d="M173 -5c-46 0 -82.334 13.999 -109.001 41.999s-40 66 -40 114c0 104 65.667 160.333 197 169l103 7v11c0 19.333 -1.33301 35.333 -4 48s-7.66699 22.834 -15 30.501s-17.333 13 -30 16s-29 4.5 -49 4.5c-9.33301 0 -20.5 -0.5 -33.5 -1.5s-26.5 -2.16699 -40.5 -3.5
s-28 -3 -42 -5s-26.333 -4 -37 -6l-10 108c32 5.33301 63.833 9.83301 95.5 13.5s61.834 5.5 90.501 5.5c78.667 0 135.834 -14.167 171.501 -42.5s53.5 -72.833 53.5 -133.5v-372h-124l-12 65h-9c-20.667 -21.333 -44.334 -38.333 -71.001 -51s-55 -19 -85 -19z
M231.999 103.999c15.333 0 31.332 3.83105 47.999 11.498s31.334 16.167 44.001 25.5v99l-66 -6c-30.667 -3.33301 -52.167 -10.166 -64.5 -20.499s-18.5 -26.166 -18.5 -47.499c0 -41.333 19 -62 57 -62zM265.998 613.997c-62.667 0 -109.001 14.167 -139.001 42.5
s-46 67.833 -48 118.5h103c0.666992 -54.667 28.667 -82 84 -82c54.667 0 82.334 27.333 83.001 82h104c-2.66699 -51.333 -19 -91 -49 -119s-76 -42 -138 -42z" />
    <glyph glyph-name="Aogonek" unicode="&#x104;" horiz-adv-x="651" 
d="M569 -220c-83.333 0 -125.001 32.001 -125.001 96.001c0 23.333 6.5 44.833 19.5 64.5s34.167 39.5 63.5 59.5h-23l-53 184h-252l-52 -184h-147v7l210 733h231l210 -733v-17c-39.333 -15.333 -67.166 -31.833 -83.499 -49.5s-24.5 -33.5 -24.5 -47.5
c0 -17.333 12.333 -26 37 -26c10.667 0 22.5 1.16699 35.5 3.5s25.167 5.16602 36.5 8.49902v-87c-14 -4 -27.5 -7 -40.5 -9s-27.167 -3 -42.5 -3zM418.999 307.001l-56 198l-32 121h-12l-32 -121l-56 -198h188z" />
    <glyph glyph-name="aogonek" unicode="&#x105;" horiz-adv-x="525" 
d="M392 -220c-83.333 0 -125.002 32 -125.002 96c0 23.333 6.5 44.833 19.5 64.5s34.167 39.5 63.5 59.5l-12 65h-9c-20.667 -21.333 -44.334 -38.333 -71.001 -51s-55 -19 -85 -19c-46 0 -82.333 14 -109 42s-40 66 -40 114c0 104 65.667 160.333 197 169l103 7v11
c0 19.333 -1.33301 35.333 -4 48s-7.66699 22.834 -15 30.501s-17.333 13 -30 16s-29 4.5 -49 4.5c-9.33301 0 -20.5 -0.5 -33.5 -1.5s-26.5 -2.16699 -40.5 -3.5s-28 -3 -42 -5s-26.333 -4 -37 -6l-10 108c32 5.33301 63.833 9.83301 95.5 13.5s61.834 5.5 90.501 5.5
c78.667 0 135.834 -14.167 171.501 -42.5s53.5 -72.833 53.5 -133.5v-382c-39.333 -15.333 -67.166 -31.833 -83.499 -49.5s-24.5 -33.5 -24.5 -47.5c0 -17.333 12.333 -26 37 -26c10.667 0 22.5 1.16699 35.5 3.5s25.167 5.16602 36.5 8.49902v-87
c-14 -4 -27.5 -7 -40.5 -9s-27.167 -3 -42.5 -3zM231.998 104c15.333 0 31.332 3.83105 47.999 11.498s31.334 16.167 44.001 25.5v99l-66 -6c-30.667 -3.33301 -52.167 -10.166 -64.5 -20.499s-18.5 -26.166 -18.5 -47.499c0 -41.333 19 -62 57 -62z" />
    <glyph glyph-name="Cacute" unicode="&#x106;" horiz-adv-x="535" 
d="M361 -10c-110 0 -191.831 30.665 -245.498 91.998s-80.5 157 -80.5 287c0 130.667 26.667 226.834 80 288.501s133.666 92.5 240.999 92.5c44 0 94 -5 150 -15v-124c-25.333 4 -48.5 7 -69.5 9s-40.5 3 -58.5 3c-34 0 -62.667 -4 -86 -12s-42.333 -21.667 -57 -41
s-25.167 -45.333 -31.5 -78s-9.5 -73.667 -9.5 -123c0 -48.667 3.16699 -89.167 9.5 -121.5s16.833 -58.166 31.5 -77.499s33.5 -33 56.5 -41s51.167 -12 84.5 -12c19.333 0 41.166 1.33301 65.499 4s45.833 6 64.5 10v-122c-17.333 -5.33301 -39 -9.83301 -65 -13.5
s-52.667 -5.5 -80 -5.5zM246.002 800.998l68 169h155l-113 -177z" />
    <glyph glyph-name="cacute" unicode="&#x107;" horiz-adv-x="448" 
d="M197 618l67 187h154l-113 -196zM293 -9c-87.333 0 -152.666 22.5 -195.999 67.5s-65 115.5 -65 211.5c0 95.333 21.667 165.666 65 210.999s108.666 68 195.999 68c21.333 0 42.5 -1.16699 63.5 -3.5s40.167 -6.16602 57.5 -11.499v-119
c-19.333 3.33301 -37.833 6 -55.5 8s-34.167 3 -49.5 3c-44.667 0 -76.5 -11.833 -95.5 -35.5s-28.5 -63.5 -28.5 -119.5s9.5 -96.333 28.5 -121s50.5 -37 94.5 -37c19.333 0 37.333 0.833008 54 2.5s34 4.5 52 8.5v-117c-15.333 -5.33301 -33.833 -9.33301 -55.5 -12
s-43.5 -4 -65.5 -4z" />
    <glyph glyph-name="Ccircumflex" unicode="&#x108;" horiz-adv-x="535" 
d="M361 -10c-110 0 -191.831 30.665 -245.498 91.998s-80.5 157 -80.5 287c0 130.667 26.667 226.834 80 288.501s133.666 92.5 240.999 92.5c44 0 94 -5 150 -15v-124c-25.333 4 -48.5 7 -69.5 9s-40.5 3 -58.5 3c-34 0 -62.667 -4 -86 -12s-42.333 -21.667 -57 -41
s-25.167 -45.333 -31.5 -78s-9.5 -73.667 -9.5 -123c0 -48.667 3.16699 -89.167 9.5 -121.5s16.833 -58.166 31.5 -77.499s33.5 -33 56.5 -41s51.167 -12 84.5 -12c19.333 0 41.166 1.33301 65.499 4s45.833 6 64.5 10v-122c-17.333 -5.33301 -39 -9.83301 -65 -13.5
s-52.667 -5.5 -80 -5.5zM138.002 900.998l170 74l169 -74v-103l-169 73l-170 -73v103z" />
    <glyph glyph-name="ccircumflex" unicode="&#x109;" horiz-adv-x="448" 
d="M87 719l170 73l170 -73v-104l-170 73l-170 -73v104zM293 -9c-87.333 0 -152.666 22.5 -195.999 67.5s-65 115.5 -65 211.5c0 95.333 21.667 165.666 65 210.999s108.666 68 195.999 68c21.333 0 42.5 -1.16699 63.5 -3.5s40.167 -6.16602 57.5 -11.499v-119
c-19.333 3.33301 -37.833 6 -55.5 8s-34.167 3 -49.5 3c-44.667 0 -76.5 -11.833 -95.5 -35.5s-28.5 -63.5 -28.5 -119.5s9.5 -96.333 28.5 -121s50.5 -37 94.5 -37c19.333 0 37.333 0.833008 54 2.5s34 4.5 52 8.5v-117c-15.333 -5.33301 -33.833 -9.33301 -55.5 -12
s-43.5 -4 -65.5 -4z" />
    <glyph glyph-name="Cdotaccent" unicode="&#x10a;" horiz-adv-x="535" 
d="M312 800c-30 0 -51.5 6.33301 -64.5 19s-19.5 33.667 -19.5 63s6.5 50.333 19.5 63s34.5 19 64.5 19c29.333 0 50.833 -6.5 64.5 -19.5s20.5 -33.833 20.5 -62.5s-6.83301 -49.5 -20.5 -62.5s-35.167 -19.5 -64.5 -19.5zM361 -10c-110 0 -191.831 30.665 -245.498 91.998
s-80.5 157 -80.5 287c0 130.667 26.667 226.834 80 288.501s133.666 92.5 240.999 92.5c44 0 94 -5 150 -15v-124c-25.333 4 -48.5 7 -69.5 9s-40.5 3 -58.5 3c-34 0 -62.667 -4 -86 -12s-42.333 -21.667 -57 -41s-25.167 -45.333 -31.5 -78s-9.5 -73.667 -9.5 -123
c0 -48.667 3.16699 -89.167 9.5 -121.5s16.833 -58.166 31.5 -77.499s33.5 -33 56.5 -41s51.167 -12 84.5 -12c19.333 0 41.166 1.33301 65.499 4s45.833 6 64.5 10v-122c-17.333 -5.33301 -39 -9.83301 -65 -13.5s-52.667 -5.5 -80 -5.5z" />
    <glyph glyph-name="cdotaccent" unicode="&#x10b;" horiz-adv-x="448" 
d="M293 -9c-87.333 0 -152.666 22.5 -195.999 67.5s-65 115.5 -65 211.5c0 95.333 21.667 165.666 65 210.999s108.666 68 195.999 68c21.333 0 42.5 -1.16699 63.5 -3.5s40.167 -6.16602 57.5 -11.499v-119c-19.333 3.33301 -37.833 6 -55.5 8s-34.167 3 -49.5 3
c-44.667 0 -76.5 -11.833 -95.5 -35.5s-28.5 -63.5 -28.5 -119.5s9.5 -96.333 28.5 -121s50.5 -37 94.5 -37c19.333 0 37.333 0.833008 54 2.5s34 4.5 52 8.5v-117c-15.333 -5.33301 -33.833 -9.33301 -55.5 -12s-43.5 -4 -65.5 -4zM250 611c-30 0 -51.667 6.5 -65 19.5
s-20 34.167 -20 63.5c0 28.667 6.66699 49.334 20 62.001s35 19 65 19c29.333 0 50.833 -6.33301 64.5 -19s20.5 -33.334 20.5 -62.001c0 -29.333 -6.83301 -50.5 -20.5 -63.5s-35.167 -19.5 -64.5 -19.5z" />
    <glyph glyph-name="Ccaron" unicode="&#x10c;" horiz-adv-x="535" 
d="M361 -10c-110 0 -191.831 30.665 -245.498 91.998s-80.5 157 -80.5 287c0 130.667 26.667 226.834 80 288.501s133.666 92.5 240.999 92.5c44 0 94 -5 150 -15v-124c-25.333 4 -48.5 7 -69.5 9s-40.5 3 -58.5 3c-34 0 -62.667 -4 -86 -12s-42.333 -21.667 -57 -41
s-25.167 -45.333 -31.5 -78s-9.5 -73.667 -9.5 -123c0 -48.667 3.16699 -89.167 9.5 -121.5s16.833 -58.166 31.5 -77.499s33.5 -33 56.5 -41s51.167 -12 84.5 -12c19.333 0 41.166 1.33301 65.499 4s45.833 6 64.5 10v-122c-17.333 -5.33301 -39 -9.83301 -65 -13.5
s-52.667 -5.5 -80 -5.5zM144.002 969.998l170 -73l170 73v-104l-170 -73l-170 73v104z" />
    <glyph glyph-name="ccaron" unicode="&#x10d;" horiz-adv-x="448" 
d="M81 794l170 -74l170 74v-104l-170 -73l-170 73v104zM293 -9c-87.333 0 -152.666 22.5 -195.999 67.5s-65 115.5 -65 211.5c0 95.333 21.667 165.666 65 210.999s108.666 68 195.999 68c21.333 0 42.5 -1.16699 63.5 -3.5s40.167 -6.16602 57.5 -11.499v-119
c-19.333 3.33301 -37.833 6 -55.5 8s-34.167 3 -49.5 3c-44.667 0 -76.5 -11.833 -95.5 -35.5s-28.5 -63.5 -28.5 -119.5s9.5 -96.333 28.5 -121s50.5 -37 94.5 -37c19.333 0 37.333 0.833008 54 2.5s34 4.5 52 8.5v-117c-15.333 -5.33301 -33.833 -9.33301 -55.5 -12
s-43.5 -4 -65.5 -4z" />
    <glyph glyph-name="Dcaron" unicode="&#x10e;" horiz-adv-x="675" 
d="M155 970l170 -73l170 73v-104l-170 -73l-170 73v104zM247 -13c-57.333 0 -118.332 4 -182.999 12v739c44 3.33301 82.333 6 115 8s62 3 88 3c66.667 0 123.5 -7.16699 170.5 -21.5s85.5 -36.833 115.5 -67.5s52 -70 66 -118s21 -105.667 21 -173
c0 -68 -7.33301 -126.167 -22 -174.5s-37.667 -87.833 -69 -118.5s-71.833 -53.167 -121.5 -67.5s-109.834 -21.5 -180.501 -21.5zM301.001 112c33.333 0 61.501 4.33301 84.501 13s41.5 23 55.5 43s24.167 46.5 30.5 79.5s9.5 73.833 9.5 122.5
c0 48 -3.16699 88.333 -9.5 121s-16.833 59 -31.5 79s-34 34.333 -58 43s-53.667 13 -89 13c-25.333 0 -51 -2 -77 -6v-502c17.333 -2 32.666 -3.5 45.999 -4.5s26.333 -1.5 39 -1.5z" />
    <glyph glyph-name="dcaron" unicode="&#x10f;" horiz-adv-x="573" 
d="M566 808h120l-40 -228h-80v228zM224 -9c-128 0 -192.001 88.333 -192.001 265c0 97.333 22.833 170.5 68.5 219.5s111.834 73.5 198.501 73.5c10.667 0 21.334 -0.5 32.001 -1.5l36 -3.5v264h151v-808h-136l-10 58h-5c-32.667 -44.667 -80.334 -67 -143.001 -67z
M273.999 100c14.667 0 27.833 2.49902 39.5 7.49902s21.5 13.333 29.5 25s14 27 18 46s6 42.167 6 69.5v188c-20.667 6.66699 -44.667 10 -72 10c-20 0 -37 -2.83301 -51 -8.5s-25.167 -15.167 -33.5 -28.5s-14.5 -31.166 -18.5 -53.499s-6 -50.166 -6 -83.499
c0 -32 1.5 -59 4.5 -81s8 -39.833 15 -53.5s16.167 -23.334 27.5 -29.001s25 -8.5 41 -8.5z" />
    <glyph glyph-name="Dcroat" unicode="&#x110;" horiz-adv-x="696" 
d="M0 431h85.001v307c44 3.33301 82.333 6 115 8s62 3 88 3c66.667 0 123.5 -7.16699 170.5 -21.5s85.5 -36.833 115.5 -67.5s52 -70 66 -118s21 -105.667 21 -173c0 -68 -7.33301 -126.167 -22 -174.5s-37.667 -87.833 -69 -118.5s-71.833 -53.167 -121.5 -67.5
s-109.834 -21.5 -180.501 -21.5c-57.333 0 -118.333 4 -183 12v314h-85v118zM322.001 112c33.333 0 61.501 4.33301 84.501 13s41.5 23 55.5 43s24.167 46.5 30.5 79.5s9.5 73.833 9.5 122.5c0 48 -3.16699 88.333 -9.5 121s-16.833 59 -31.5 79s-34 34.333 -58 43
s-53.667 13 -89 13c-25.333 0 -51 -2 -77 -6v-189h109v-118h-109v-195c17.333 -2 32.666 -3.5 45.999 -4.5s26.333 -1.5 39 -1.5z" />
    <glyph glyph-name="dcroat" unicode="&#x111;" horiz-adv-x="573" 
d="M222 719h144.999v89h151v-89h67v-90h-67v-629h-136l-10 58h-5c-32.667 -44.667 -80.334 -67 -143.001 -67c-128 0 -192 88.333 -192 265c0 97.333 22.833 170.5 68.5 219.5s111.834 73.5 198.501 73.5c10.667 0 21.334 -0.5 32.001 -1.5l36 -3.5v85h-145v90zM273.999 100
c14.667 0 27.833 2.49902 39.5 7.49902s21.5 13.333 29.5 25s14 27 18 46s6 42.167 6 69.5v188c-20.667 6.66699 -44.667 10 -72 10c-20 0 -37 -2.83301 -51 -8.5s-25.167 -15.167 -33.5 -28.5s-14.5 -31.166 -18.5 -53.499s-6 -50.166 -6 -83.499c0 -32 1.5 -59 4.5 -81
s8 -39.833 15 -53.5s16.167 -23.334 27.5 -29.001s25 -8.5 41 -8.5z" />
    <glyph glyph-name="Emacron" unicode="&#x112;" horiz-adv-x="576" 
d="M134 941h332v-102h-332v102zM64 740h470v-127h-316v-178h283v-126h-283v-182h325v-127h-479v740z" />
    <glyph glyph-name="emacron" unicode="&#x113;" horiz-adv-x="521" 
d="M282 -9c-83.333 0 -145.835 23 -187.502 69s-62.5 114 -62.5 204c0 94 20.833 165 62.5 213s104.167 72 187.5 72c138.667 0 208 -82.667 208 -248c0 -18 -0.333008 -32.833 -1 -44.5s-2.33398 -23.167 -5.00098 -34.5h-301c2 -22.667 5.33301 -41.5 10 -56.5
s11.334 -27 20.001 -36s19.5 -15.333 32.5 -19s28.833 -5.5 47.5 -5.5c23.333 0 50.333 2.5 81 7.5s61.334 11.833 92.001 20.5l5 -111c-26 -9.33301 -56.167 -16.833 -90.5 -22.5s-67.166 -8.5 -98.499 -8.5zM275.998 439c-30 0 -52.168 -9.66699 -66.501 -29
s-23.166 -52 -26.499 -98h173c-1.33301 46 -8 78.667 -20 98s-32 29 -60 29zM97.9971 728h336v-96h-336v96z" />
    <glyph glyph-name="Ebreve" unicode="&#x114;" horiz-adv-x="576" 
d="M300 801c-64 0 -111.332 15.667 -141.999 47s-46 73 -46 125h104c0 -34 6.16699 -58.833 18.5 -74.5s34.166 -23.5 65.499 -23.5c30 0 51.333 7.83301 64 23.5s19 40.5 19 74.5h104c0 -52 -15.5 -93.667 -46.5 -125s-77.833 -47 -140.5 -47zM64.001 740h470v-127h-316
v-178h283v-126h-283v-182h325v-127h-479v740z" />
    <glyph glyph-name="ebreve" unicode="&#x115;" horiz-adv-x="521" 
d="M282 -9c-83.333 0 -145.835 23 -187.502 69s-62.5 114 -62.5 204c0 94 20.833 165 62.5 213s104.167 72 187.5 72c138.667 0 208 -82.667 208 -248c0 -18 -0.333008 -32.833 -1 -44.5s-2.33398 -23.167 -5.00098 -34.5h-301c2 -22.667 5.33301 -41.5 10 -56.5
s11.334 -27 20.001 -36s19.5 -15.333 32.5 -19s28.833 -5.5 47.5 -5.5c23.333 0 50.333 2.5 81 7.5s61.334 11.833 92.001 20.5l5 -111c-26 -9.33301 -56.167 -16.833 -90.5 -22.5s-67.166 -8.5 -98.499 -8.5zM275.998 439c-30 0 -52.168 -9.66699 -66.501 -29
s-23.166 -52 -26.499 -98h173c-1.33301 46 -8 78.667 -20 98s-32 29 -60 29zM266.997 614c-62.667 0 -109.001 14.167 -139.001 42.5s-46 67.833 -48 118.5h103c0.666992 -54.667 28.667 -82 84 -82c54.667 0 82.334 27.333 83.001 82h104
c-2.66699 -51.333 -19 -91 -49 -119s-76 -42 -138 -42z" />
    <glyph glyph-name="Edotaccent" unicode="&#x116;" horiz-adv-x="576" 
d="M299 800c-30 0 -51.5 6.33301 -64.5 19s-19.5 33.667 -19.5 63s6.5 50.333 19.5 63s34.5 19 64.5 19c29.333 0 50.833 -6.5 64.5 -19.5s20.5 -33.833 20.5 -62.5s-6.83301 -49.5 -20.5 -62.5s-35.167 -19.5 -64.5 -19.5zM64 740h470v-127h-316v-178h283v-126h-283v-182
h325v-127h-479v740z" />
    <glyph glyph-name="edotaccent" unicode="&#x117;" horiz-adv-x="521" 
d="M282 -9c-83.333 0 -145.835 23 -187.502 69s-62.5 114 -62.5 204c0 94 20.833 165 62.5 213s104.167 72 187.5 72c138.667 0 208 -82.667 208 -248c0 -18 -0.333008 -32.833 -1 -44.5s-2.33398 -23.167 -5.00098 -34.5h-301c2 -22.667 5.33301 -41.5 10 -56.5
s11.334 -27 20.001 -36s19.5 -15.333 32.5 -19s28.833 -5.5 47.5 -5.5c23.333 0 50.333 2.5 81 7.5s61.334 11.833 92.001 20.5l5 -111c-26 -9.33301 -56.167 -16.833 -90.5 -22.5s-67.166 -8.5 -98.499 -8.5zM275.998 439c-30 0 -52.168 -9.66699 -66.501 -29
s-23.166 -52 -26.499 -98h173c-1.33301 46 -8 78.667 -20 98s-32 29 -60 29zM267.997 611c-30 0 -51.667 6.5 -65 19.5s-20 34.167 -20 63.5c0 28.667 6.66699 49.334 20 62.001s35 19 65 19c29.333 0 50.833 -6.33301 64.5 -19s20.5 -33.334 20.5 -62.001
c0 -29.333 -6.83301 -50.5 -20.5 -63.5s-35.167 -19.5 -64.5 -19.5z" />
    <glyph glyph-name="Eogonek" unicode="&#x118;" horiz-adv-x="576" 
d="M64 740l469.999 0.000976562v-127h-316v-178h283v-126h-283v-182h325v-137c-39.333 -15.333 -67.166 -31.833 -83.499 -49.5s-24.5 -33.5 -24.5 -47.5c0 -17.333 12.333 -26 37 -26c10.667 0 22.5 1.16699 35.5 3.5s25.167 5.16602 36.5 8.49902v-87
c-14 -4 -27.5 -7 -40.5 -9s-27.167 -3 -42.5 -3c-83.333 0 -125 32 -125 96c0 23.333 6.5 44.833 19.5 64.5s34.167 39.5 63.5 59.5h-355v740z" />
    <glyph glyph-name="eogonek" unicode="&#x119;" horiz-adv-x="521" 
d="M282 -9c-83.333 0 -145.834 23.002 -187.501 69.002s-62.5 114 -62.5 204c0 94 20.833 165 62.5 213s104.167 72 187.5 72c138.667 0 208 -82.667 208 -248c0 -18 -0.333008 -32.833 -1 -44.5s-2.33398 -23.167 -5.00098 -34.5h-301c2 -22.667 5.33301 -41.5 10 -56.5
s11.334 -27 20.001 -36s19.5 -15.333 32.5 -19s28.833 -5.5 47.5 -5.5c23.333 0 50.333 2.5 81 7.5s61.334 11.833 92.001 20.5l5 -111v-10c-40 -15.333 -68.167 -31.833 -84.5 -49.5s-24.5 -33.5 -24.5 -47.5c0 -17.333 12.333 -26 37 -26c10.667 0 22.5 1.16699 35.5 3.5
s25.167 5.16602 36.5 8.49902v-87c-14 -4 -27.5 -7 -40.5 -9s-27.167 -3 -42.5 -3c-83.333 0 -125 32 -125 96c0 33.333 15 64.666 45 93.999c-4.66699 -0.666992 -9.16699 -1 -13.5 -1h-12.5zM275.999 439.002c-30 0 -52.168 -9.66699 -66.501 -29s-23.166 -52 -26.499 -98
h173c-1.33301 46 -8 78.667 -20 98s-32 29 -60 29z" />
    <glyph glyph-name="Ecaron" unicode="&#x11a;" horiz-adv-x="576" 
d="M137 970l170 -73l170 73v-104l-170 -73l-170 73v104zM64 740h470v-127h-316v-178h283v-126h-283v-182h325v-127h-479v740z" />
    <glyph glyph-name="ecaron" unicode="&#x11b;" horiz-adv-x="521" 
d="M99 794l170 -74l170 74v-104l-170 -73l-170 73v104zM282 -9c-83.333 0 -145.835 23 -187.502 69s-62.5 114 -62.5 204c0 94 20.833 165 62.5 213s104.167 72 187.5 72c138.667 0 208 -82.667 208 -248c0 -18 -0.333008 -32.833 -1 -44.5s-2.33398 -23.167 -5.00098 -34.5
h-301c2 -22.667 5.33301 -41.5 10 -56.5s11.334 -27 20.001 -36s19.5 -15.333 32.5 -19s28.833 -5.5 47.5 -5.5c23.333 0 50.333 2.5 81 7.5s61.334 11.833 92.001 20.5l5 -111c-26 -9.33301 -56.167 -16.833 -90.5 -22.5s-67.166 -8.5 -98.499 -8.5zM275.998 439
c-30 0 -52.168 -9.66699 -66.501 -29s-23.166 -52 -26.499 -98h173c-1.33301 46 -8 78.667 -20 98s-32 29 -60 29z" />
    <glyph glyph-name="Gcircumflex" unicode="&#x11c;" horiz-adv-x="620" 
d="M362 -10c-111.333 0 -193.833 31.166 -247.5 93.499s-80.5 157.5 -80.5 285.5c0 129.333 29.167 225.166 87.5 287.499s147.833 93.5 268.5 93.5c26.667 0 55.334 -1.83301 86.001 -5.5s60.334 -9.16699 89.001 -16.5v-123c-68 12 -121.667 18 -161 18
c-40 0 -73.333 -4.33301 -100 -13s-48.334 -23 -65.001 -43s-28.5 -46.167 -35.5 -78.5s-10.5 -72.166 -10.5 -119.499s3.16699 -87.166 9.5 -119.499s16.666 -58.333 30.999 -78s33.166 -33.667 56.499 -42s52 -12.5 86 -12.5c17.333 0 36.666 1 57.999 3v256h140v-363
c-43.333 -7.33301 -82.166 -13 -116.499 -17s-66.166 -6 -95.499 -6zM176 900.999l170 74l169 -74v-103l-169 73l-170 -73v103z" />
    <glyph glyph-name="gcircumflex" unicode="&#x11d;" horiz-adv-x="572" 
d="M135 719l170 73l170 -73v-104l-170 73l-170 -73v104zM247 -220c-29.333 0 -59.165 2.00098 -89.498 6.00098s-59.5 9.66699 -87.5 17l10 111c53.333 -13.333 102.666 -20 147.999 -20c48 0 84.167 11.167 108.5 33.5s36.833 61.166 37.5 116.499v35h-6
c-32 -44 -79 -66 -141 -66c-64.667 0 -113.167 20 -145.5 60s-48.5 102 -48.5 186c0 96 23 168.333 69 217s111.667 73 197 73c30.667 0 63 -2.5 97 -7.5s75 -13.833 123 -26.5v-445c0 -50.667 -6.16699 -94.167 -18.5 -130.5s-30.333 -66.333 -54 -90
s-52.334 -41.167 -86.001 -52.5s-71.5 -17 -113.5 -17zM275.001 116.001c30 0 53 10.667 69 32s24 57.333 24 108v180c-20.667 6.66699 -45 10 -73 10c-20 0 -37 -2.83301 -51 -8.5s-25.167 -15 -33.5 -28s-14.5 -30.667 -18.5 -53s-6 -49.833 -6 -82.5
c0 -29.333 1.5 -54 4.5 -74s8 -36.333 15 -49s16.167 -21.667 27.5 -27s25.333 -8 42 -8z" />
    <glyph glyph-name="Gbreve" unicode="&#x11e;" horiz-adv-x="620" 
d="M349 801c-64 0 -111.332 15.667 -141.999 47s-46 73 -46 125h104c0 -34 6.16699 -58.833 18.5 -74.5s34.166 -23.5 65.499 -23.5c30 0 51.333 7.83301 64 23.5s19 40.5 19 74.5h104c0 -52 -15.5 -93.667 -46.5 -125s-77.833 -47 -140.5 -47zM362.001 -10
c-111.333 0 -193.833 31.166 -247.5 93.499s-80.5 157.5 -80.5 285.5c0 129.333 29.167 225.166 87.5 287.499s147.833 93.5 268.5 93.5c26.667 0 55.334 -1.83301 86.001 -5.5s60.334 -9.16699 89.001 -16.5v-123c-68 12 -121.667 18 -161 18
c-40 0 -73.333 -4.33301 -100 -13s-48.334 -23 -65.001 -43s-28.5 -46.167 -35.5 -78.5s-10.5 -72.166 -10.5 -119.499s3.16699 -87.166 9.5 -119.499s16.666 -58.333 30.999 -78s33.166 -33.667 56.499 -42s52 -12.5 86 -12.5c17.333 0 36.666 1 57.999 3v256h140v-363
c-43.333 -7.33301 -82.166 -13 -116.499 -17s-66.166 -6 -95.499 -6z" />
    <glyph glyph-name="gbreve" unicode="&#x11f;" horiz-adv-x="572" 
d="M247 -220c-29.333 0 -59.165 2.00098 -89.498 6.00098s-59.5 9.66699 -87.5 17l10 111c53.333 -13.333 102.666 -20 147.999 -20c48 0 84.167 11.167 108.5 33.5s36.833 61.166 37.5 116.499v35h-6c-32 -44 -79 -66 -141 -66c-64.667 0 -113.167 20 -145.5 60
s-48.5 102 -48.5 186c0 96 23 168.333 69 217s111.667 73 197 73c30.667 0 63 -2.5 97 -7.5s75 -13.833 123 -26.5v-445c0 -50.667 -6.16699 -94.167 -18.5 -130.5s-30.333 -66.333 -54 -90s-52.334 -41.167 -86.001 -52.5s-71.5 -17 -113.5 -17zM275.001 116.001
c30 0 53 10.667 69 32s24 57.333 24 108v180c-20.667 6.66699 -45 10 -73 10c-20 0 -37 -2.83301 -51 -8.5s-25.167 -15 -33.5 -28s-14.5 -30.667 -18.5 -53s-6 -49.833 -6 -82.5c0 -29.333 1.5 -54 4.5 -74s8 -36.333 15 -49s16.167 -21.667 27.5 -27s25.333 -8 42 -8z
M297.001 614.001c-62.667 0 -109.001 14.167 -139.001 42.5s-46 67.833 -48 118.5h103c0.666992 -54.667 28.667 -82 84 -82c54.667 0 82.334 27.333 83.001 82h104c-2.66699 -51.333 -19 -91 -49 -119s-76 -42 -138 -42z" />
    <glyph glyph-name="Gdotaccent" unicode="&#x120;" horiz-adv-x="620" 
d="M349 800c-30 0 -51.5 6.33301 -64.5 19s-19.5 33.667 -19.5 63s6.5 50.333 19.5 63s34.5 19 64.5 19c29.333 0 50.833 -6.5 64.5 -19.5s20.5 -33.833 20.5 -62.5s-6.83301 -49.5 -20.5 -62.5s-35.167 -19.5 -64.5 -19.5zM362 -10
c-111.333 0 -193.833 31.166 -247.5 93.499s-80.5 157.5 -80.5 285.5c0 129.333 29.167 225.166 87.5 287.499s147.833 93.5 268.5 93.5c26.667 0 55.334 -1.83301 86.001 -5.5s60.334 -9.16699 89.001 -16.5v-123c-68 12 -121.667 18 -161 18
c-40 0 -73.333 -4.33301 -100 -13s-48.334 -23 -65.001 -43s-28.5 -46.167 -35.5 -78.5s-10.5 -72.166 -10.5 -119.499s3.16699 -87.166 9.5 -119.499s16.666 -58.333 30.999 -78s33.166 -33.667 56.499 -42s52 -12.5 86 -12.5c17.333 0 36.666 1 57.999 3v256h140v-363
c-43.333 -7.33301 -82.166 -13 -116.499 -17s-66.166 -6 -95.499 -6z" />
    <glyph glyph-name="gdotaccent" unicode="&#x121;" horiz-adv-x="572" 
d="M247 -220c-29.333 0 -59.165 2.00098 -89.498 6.00098s-59.5 9.66699 -87.5 17l10 111c53.333 -13.333 102.666 -20 147.999 -20c48 0 84.167 11.167 108.5 33.5s36.833 61.166 37.5 116.499v35h-6c-32 -44 -79 -66 -141 -66c-64.667 0 -113.167 20 -145.5 60
s-48.5 102 -48.5 186c0 96 23 168.333 69 217s111.667 73 197 73c30.667 0 63 -2.5 97 -7.5s75 -13.833 123 -26.5v-445c0 -50.667 -6.16699 -94.167 -18.5 -130.5s-30.333 -66.333 -54 -90s-52.334 -41.167 -86.001 -52.5s-71.5 -17 -113.5 -17zM275.001 116.001
c30 0 53 10.667 69 32s24 57.333 24 108v180c-20.667 6.66699 -45 10 -73 10c-20 0 -37 -2.83301 -51 -8.5s-25.167 -15 -33.5 -28s-14.5 -30.667 -18.5 -53s-6 -49.833 -6 -82.5c0 -29.333 1.5 -54 4.5 -74s8 -36.333 15 -49s16.167 -21.667 27.5 -27s25.333 -8 42 -8z
M298.001 611.001c-30 0 -51.667 6.5 -65 19.5s-20 34.167 -20 63.5c0 28.667 6.66699 49.334 20 62.001s35 19 65 19c29.333 0 50.833 -6.33301 64.5 -19s20.5 -33.334 20.5 -62.001c0 -29.333 -6.83301 -50.5 -20.5 -63.5s-35.167 -19.5 -64.5 -19.5z" />
    <glyph glyph-name="Gcommaaccent" unicode="&#x122;" horiz-adv-x="620" 
d="M279 -69h155l-84 -151h-115zM362 -10c-111.333 0 -193.833 31.166 -247.5 93.499s-80.5 157.5 -80.5 285.5c0 129.333 29.167 225.166 87.5 287.499s147.833 93.5 268.5 93.5c26.667 0 55.334 -1.83301 86.001 -5.5s60.334 -9.16699 89.001 -16.5v-123
c-68 12 -121.667 18 -161 18c-40 0 -73.333 -4.33301 -100 -13s-48.334 -23 -65.001 -43s-28.5 -46.167 -35.5 -78.5s-10.5 -72.166 -10.5 -119.499s3.16699 -87.166 9.5 -119.499s16.666 -58.333 30.999 -78s33.166 -33.667 56.499 -42s52 -12.5 86 -12.5
c17.333 0 36.666 1 57.999 3v256h140v-363c-43.333 -7.33301 -82.166 -13 -116.499 -17s-66.166 -6 -95.499 -6z" />
    <glyph glyph-name="gcommaaccent" unicode="&#x123;" horiz-adv-x="572" 
d="M438 783l-44 -150h-153l84 150h113zM247 -220c-29.333 0 -59.165 2.00098 -89.498 6.00098s-59.5 9.66699 -87.5 17l10 111c53.333 -13.333 102.666 -20 147.999 -20c48 0 84.167 11.167 108.5 33.5s36.833 61.166 37.5 116.499v35h-6c-32 -44 -79 -66 -141 -66
c-64.667 0 -113.167 20 -145.5 60s-48.5 102 -48.5 186c0 96 23 168.333 69 217s111.667 73 197 73c30.667 0 63 -2.5 97 -7.5s75 -13.833 123 -26.5v-445c0 -50.667 -6.16699 -94.167 -18.5 -130.5s-30.333 -66.333 -54 -90s-52.334 -41.167 -86.001 -52.5
s-71.5 -17 -113.5 -17zM275.001 116.001c30 0 53 10.667 69 32s24 57.333 24 108v180c-20.667 6.66699 -45 10 -73 10c-20 0 -37 -2.83301 -51 -8.5s-25.167 -15 -33.5 -28s-14.5 -30.667 -18.5 -53s-6 -49.833 -6 -82.5c0 -29.333 1.5 -54 4.5 -74s8 -36.333 15 -49
s16.167 -21.667 27.5 -27s25.333 -8 42 -8z" />
    <glyph glyph-name="Hcircumflex" unicode="&#x124;" horiz-adv-x="714" 
d="M64 740h154v-298h277v298h155v-740h-155v315h-277v-315h-154v740zM184 901l170 74l169 -74v-103l-169 73l-170 -73v103z" />
    <glyph glyph-name="hcircumflex" unicode="&#x125;" horiz-adv-x="570" 
d="M128 923l170 73l170 -73v-104l-170 73l-170 -73v104zM54 808l151 0.000976562v-321c40 23.333 73.667 39.666 101 48.999s54.333 14 81 14c42 0 74.333 -12.667 97 -38s34 -61.333 34 -108v-404h-151v353c0 46.667 -17.667 70 -53 70c-14 0 -30.333 -3 -49 -9
s-38.667 -14.667 -60 -26v-388h-151v808z" />
    <glyph glyph-name="Hbar" unicode="&#x126;" horiz-adv-x="738" 
d="M1 613h74v127h154v-127h277v127h155v-127h81v-73h-81v-540h-155v315h-277v-315h-154v540h-74v73zM506 442v98h-277v-98h277z" />
    <glyph glyph-name="hbar" unicode="&#x127;" horiz-adv-x="570" 
d="M-25 719l80 0.000976562v89h151v-89h132v-90h-132v-142c40 23.333 73.667 39.666 101 48.999s54.333 14 81 14c42 0 74.333 -12.667 97 -38s34 -61.333 34 -108v-404h-151v353c0 46.667 -17.667 70 -53 70c-14 0 -30.333 -3 -49 -9s-38.667 -14.667 -60 -26v-388h-151
v629h-80v90z" />
    <glyph glyph-name="Itilde" unicode="&#x128;" horiz-adv-x="282" 
d="M64 740h154v-740h-154v740zM-50 844c19.333 36 41.334 63.501 66.001 82.501s48.667 28.5 72 28.5c14 0 27.833 -2.16699 41.5 -6.5s27 -9 40 -14s26.167 -9.5 39.5 -13.5s27 -6 41 -6c13.333 0 26.166 3 38.499 9s25.5 16 39.5 30l24 -25
c-18 -36.667 -39.333 -64.334 -64 -83.001s-49.334 -28 -74.001 -28c-14 0 -27.667 2 -41 6s-26.666 8.5 -39.999 13.5s-26.5 9.5 -39.5 13.5s-26.5 6 -40.5 6c-13.333 0 -26.5 -2.83301 -39.5 -8.5s-26.5 -15.167 -40.5 -28.5z" />
    <glyph glyph-name="itilde" unicode="&#x129;" horiz-adv-x="261" 
d="M-57 661c18 34 39.1689 59.667 63.502 77s48.166 26 71.499 26c14 0 27.5 -2.66699 40.5 -8s26 -11 39 -17l38.5 -17c12.667 -5.33301 26 -8 40 -8c12 0 23.5 3 34.5 9s23.167 16.667 36.5 32l29 -35c-18 -35.333 -39.167 -61.333 -63.5 -78s-48.166 -25 -71.499 -25
c-14 0 -27.5 2.5 -40.5 7.5s-26 10.667 -39 17s-25.833 12 -38.5 17s-25.667 7.5 -39 7.5c-12.667 0 -24.834 -3 -36.501 -9s-23.834 -16 -36.501 -30zM55.002 540h151v-540h-151v540z" />
    <glyph glyph-name="Imacron" unicode="&#x12a;" horiz-adv-x="282" 
d="M64 740h154v-740h-154v740zM-25 941h332v-102h-332v102z" />
    <glyph glyph-name="imacron" unicode="&#x12b;" horiz-adv-x="261" 
d="M55 540h151v-540h-151v540zM-33 728h336v-96h-336v96z" />
    <glyph glyph-name="Ibreve" unicode="&#x12c;" horiz-adv-x="282" 
d="M64 740h154v-740h-154v740zM143 801c-64 0 -111.332 15.667 -141.999 47s-46 73 -46 125h104c0 -34 6.16699 -58.833 18.5 -74.5s34.166 -23.5 65.499 -23.5c30 0 51.333 7.83301 64 23.5s19 40.5 19 74.5h104c0 -52 -15.5 -93.667 -46.5 -125s-77.833 -47 -140.5 -47z
" />
    <glyph glyph-name="ibreve" unicode="&#x12d;" horiz-adv-x="261" 
d="M135 614c-57.333 0 -100.333 14.167 -129 42.5s-44 67.833 -46 118.5h96c0.666992 -54.667 27 -82 79 -82c51.333 0 77.333 27.333 78 82h96c-2.66699 -51.333 -18.167 -91 -46.5 -119s-70.833 -42 -127.5 -42zM55 540h151v-540h-151v540z" />
    <glyph glyph-name="Iogonek" unicode="&#x12e;" horiz-adv-x="282" 
d="M64 740l153.999 0.000976562v-750c-39.333 -15.333 -67.166 -31.833 -83.499 -49.5s-24.5 -33.5 -24.5 -47.5c0 -17.333 12.333 -26 37 -26c10.667 0 22.5 1.16699 35.5 3.5s25.167 5.16602 36.5 8.49902v-87c-14 -4 -27.5 -7 -40.5 -9s-27.167 -3 -42.5 -3
c-83.333 0 -125 32 -125 96c0 23.333 6.5 44.833 19.5 64.5s34.167 39.5 63.5 59.5h-30v740z" />
    <glyph glyph-name="iogonek" unicode="&#x12f;" horiz-adv-x="259" 
d="M54 540l150.999 0.000976562v-550c-39.333 -15.333 -67.166 -31.833 -83.499 -49.5s-24.5 -33.5 -24.5 -47.5c0 -17.333 12.333 -26 37 -26c10.667 0 22.5 1.16699 35.5 3.5s25.167 5.16602 36.5 8.49902v-87c-14 -4 -27.5 -7 -40.5 -9s-27.167 -3 -42.5 -3
c-83.333 0 -125 32 -125 96c0 23.333 6.5 44.833 19.5 64.5s34.167 39.5 63.5 59.5h-27v540zM129.999 622.001c-30 0 -51.5 6.5 -64.5 19.5s-19.5 33.833 -19.5 62.5s6.5 49.5 19.5 62.5s34.5 19.5 64.5 19.5s51.5 -6.66699 64.5 -20s19.5 -34 19.5 -62
s-6.5 -48.667 -19.5 -62s-34.5 -20 -64.5 -20z" />
    <glyph glyph-name="Idotaccent" unicode="&#x130;" horiz-adv-x="282" 
d="M64 740h154v-740h-154v740zM142 800c-30 0 -51.5 6.33301 -64.5 19s-19.5 33.667 -19.5 63s6.5 50.333 19.5 63s34.5 19 64.5 19c29.333 0 50.833 -6.5 64.5 -19.5s20.5 -33.833 20.5 -62.5s-6.83301 -49.5 -20.5 -62.5s-35.167 -19.5 -64.5 -19.5z" />
    <glyph glyph-name="dotlessi" unicode="&#x131;" horiz-adv-x="259" 
d="M54 540h151v-540h-151v540z" />
    <glyph glyph-name="IJ" unicode="&#x132;" horiz-adv-x="564" 
d="M64 740h154v-740h-154v740zM271 -159c14.667 34 27.001 64.8359 37.001 92.5029s18 55 24 82s10.167 54.667 12.5 83s3.5 59.833 3.5 94.5v547h155v-559c0 -34 -2.33301 -66.333 -7 -97s-12.334 -61.334 -23.001 -92.001s-24.5 -61.834 -41.5 -93.501
s-37.833 -65.834 -62.5 -102.501z" />
    <glyph glyph-name="ij" unicode="&#x133;" horiz-adv-x="518" 
d="M130 622c-30 0 -51.5 6.5 -64.5 19.5s-19.5 33.833 -19.5 62.5s6.5 49.5 19.5 62.5s34.5 19.5 64.5 19.5s51.5 -6.66699 64.5 -20s19.5 -34 19.5 -62s-6.5 -48.667 -19.5 -62s-34.5 -20 -64.5 -20zM54 540h151v-540h-151v540zM388 622c-29.333 0 -50.5 6.5 -63.5 19.5
s-19.5 33.833 -19.5 62.5s6.33301 49.5 19 62.5s34 19.5 64 19.5s51.667 -6.66699 65 -20s20 -34 20 -62s-6.66699 -48.667 -20 -62s-35 -20 -65 -20zM266 -192c16 44 28 92 36 144s12 110 12 174v32.5v72.5v93v95c0 30 -0.166992 56.167 -0.5 78.5s-0.5 36.5 -0.5 42.5h151
v-464c-0.666992 -24 -3.33398 -49.167 -8.00098 -75.5s-11 -52.333 -19 -78s-17.667 -50.667 -29 -75s-23.666 -46.833 -36.999 -67.5z" />
    <glyph glyph-name="Jcircumflex" unicode="&#x134;" horiz-adv-x="282" 
d="M-11 -159c14.667 34 27.001 64.8359 37.001 92.5029s18 55 24 82s10.167 54.667 12.5 83s3.5 59.833 3.5 94.5v547h155v-559c0 -34 -2.33301 -66.333 -7 -97s-12.334 -61.334 -23.001 -92.001s-24.5 -61.834 -41.5 -93.501s-37.833 -65.834 -62.5 -102.501z
M-24.999 901.003l170 74l169 -74v-103l-169 73l-170 -73v103z" />
    <glyph glyph-name="jcircumflex" unicode="&#x135;" horiz-adv-x="257" 
d="M-35 719l166 73l166 -73v-103l-166 72l-166 -72v103zM4 -199c10 28.667 18.3311 55.8359 24.998 81.5029s12 52.167 16 79.5s6.83301 57.333 8.5 90s2.5 70.667 2.5 114v57.5c0 26.333 -0.166992 56.666 -0.5 90.999s-0.666016 71.166 -0.999023 110.499
s-0.833008 77.666 -1.5 114.999h151v-464c-4 -52 -13.167 -102.333 -27.5 -151s-35.166 -97 -62.499 -145z" />
    <glyph glyph-name="Kcommaaccent" unicode="&#x136;" horiz-adv-x="649" 
d="M253 -69h155l-84 -151h-115zM64 740h154v-300h86l159 300h172l-183 -330l-50 -27v-7l52 -26l200 -350h-172l-177 313h-87v-313h-154v740z" />
    <glyph glyph-name="kcommaaccent" unicode="&#x137;" horiz-adv-x="544" 
d="M216 -69h155l-84 -151h-115zM54 808h151v-477h48l120 209h164l-161 -251l-23 -9v-4l24 -9l177 -267h-164l-138 225h-47v-225h-151v808z" />
    <glyph glyph-name="kgreenlandic" unicode="&#x138;" horiz-adv-x="537" 
d="M54 540h151v-209h49l111 209h164l-152 -253l-23 -7v-4l23 -7l169 -269h-164l-129 225h-48v-225h-151v540z" />
    <glyph glyph-name="Lacute" unicode="&#x139;" horiz-adv-x="492" 
d="M88 801l68 169h155l-113 -177zM64 740h154v-614h262v-126h-416v740z" />
    <glyph glyph-name="lacute" unicode="&#x13a;" horiz-adv-x="261" 
d="M75 843l67 187h154l-113 -196zM55 808h151v-808h-151v808z" />
    <glyph glyph-name="Lcommaaccent" unicode="&#x13b;" horiz-adv-x="492" 
d="M196 -69h155l-84 -151h-115zM64 740h154v-614h262v-126h-416v740z" />
    <glyph glyph-name="lcommaaccent" unicode="&#x13c;" horiz-adv-x="261" 
d="M59 -69h155l-84 -151h-115zM55 808h151v-808h-151v808z" />
    <glyph glyph-name="Lcaron" unicode="&#x13d;" horiz-adv-x="519" 
d="M382 788h120l-40 -228h-80v228zM64 740h154v-614h262v-126h-416v740z" />
    <glyph glyph-name="lcaron" unicode="&#x13e;" horiz-adv-x="261" 
d="M254 808h120l-40 -228h-80v228zM55 808h151v-808h-151v808z" />
    <glyph glyph-name="Ldot" unicode="&#x13f;" horiz-adv-x="508" 
d="M64 740h154v-614h262v-126h-416v740zM401 293c-30 0 -51.667 6.5 -65 19.5s-20 34.167 -20 63.5s6.66699 50.5 20 63.5s35 19.5 65 19.5c29.333 0 50.666 -6.5 63.999 -19.5s20 -34.167 20 -63.5c0 -28.667 -6.66699 -49.667 -20 -63s-34.666 -20 -63.999 -20z" />
    <glyph glyph-name="ldot" unicode="&#x140;" horiz-adv-x="402" 
d="M55 808h151v-808h-151v808zM332 287c-30 0 -51.667 6.5 -65 19.5s-20 34.167 -20 63.5s6.66699 50.5 20 63.5s35 19.5 65 19.5c29.333 0 50.666 -6.5 63.999 -19.5s20 -34.167 20 -63.5c0 -28.667 -6.66699 -49.667 -20 -63s-34.666 -20 -63.999 -20z" />
    <glyph glyph-name="Lslash" unicode="&#x141;" horiz-adv-x="510" 
d="M9 339l73 43v358h154v-268l114 67v-114l-114 -67v-232h262v-126h-416v268l-73 -43v114z" />
    <glyph glyph-name="lslash" unicode="&#x142;" horiz-adv-x="360" 
d="M17 350l87 51v407h151v-319l93 55v-111l-93 -55v-378h-151v290l-87 -51v111z" />
    <glyph glyph-name="Nacute" unicode="&#x143;" horiz-adv-x="720" 
d="M288 801l68 169h155l-113 -177zM64 740h128l274 -403l46 -82h8v485h137v-740h-128l-273 402l-47 84h-9v-486h-136v740z" />
    <glyph glyph-name="nacute" unicode="&#x144;" horiz-adv-x="570" 
d="M236 618l67 187h154l-113 -196zM54 540l127 0.000976562l9 -59h5c22 12.667 41.667 23.5 59 32.5s33.5 16.167 48.5 21.5s29.333 9.16602 43 11.499s27.5 3.5 41.5 3.5c42 0 74.333 -12.667 97 -38s34 -61.333 34 -108v-404h-151v353c0 25.333 -4.5 43.333 -13.5 54
s-22.167 16 -39.5 16c-15.333 0 -32.5 -3.16699 -51.5 -9.5s-38.167 -14.833 -57.5 -25.5v-388h-151v540z" />
    <glyph glyph-name="Ncommaaccent" unicode="&#x145;" horiz-adv-x="720" 
d="M297 -69h155l-84 -151h-115zM64 740h128l274 -403l46 -82h8v485h137v-740h-128l-273 402l-47 84h-9v-486h-136v740z" />
    <glyph glyph-name="ncommaaccent" unicode="&#x146;" horiz-adv-x="570" 
d="M216 -69h155l-84 -151h-115zM54 540l127 0.000976562l9 -59h5c22 12.667 41.667 23.5 59 32.5s33.5 16.167 48.5 21.5s29.333 9.16602 43 11.499s27.5 3.5 41.5 3.5c42 0 74.333 -12.667 97 -38s34 -61.333 34 -108v-404h-151v353c0 25.333 -4.5 43.333 -13.5 54
s-22.167 16 -39.5 16c-15.333 0 -32.5 -3.16699 -51.5 -9.5s-38.167 -14.833 -57.5 -25.5v-388h-151v540z" />
    <glyph glyph-name="Ncaron" unicode="&#x147;" horiz-adv-x="720" 
d="M192 970l170 -73l170 73v-104l-170 -73l-170 73v104zM64 740h128l274 -403l46 -82h8v485h137v-740h-128l-273 402l-47 84h-9v-486h-136v740z" />
    <glyph glyph-name="ncaron" unicode="&#x148;" horiz-adv-x="570" 
d="M118 794l170 -74l170 74v-104l-170 -73l-170 73v104zM54 540l127 0.000976562l9 -59h5c22 12.667 41.667 23.5 59 32.5s33.5 16.167 48.5 21.5s29.333 9.16602 43 11.499s27.5 3.5 41.5 3.5c42 0 74.333 -12.667 97 -38s34 -61.333 34 -108v-404h-151v353
c0 25.333 -4.5 43.333 -13.5 54s-22.167 16 -39.5 16c-15.333 0 -32.5 -3.16699 -51.5 -9.5s-38.167 -14.833 -57.5 -25.5v-388h-151v540z" />
    <glyph glyph-name="napostrophe" unicode="&#x149;" horiz-adv-x="648" 
d="M140 808v-4l-41 -224h-79v228h120zM133 540l127 0.000976562l9 -59h5c22 12.667 41.667 23.5 59 32.5s33.5 16.167 48.5 21.5s29.333 9.16602 43 11.499s27.5 3.5 41.5 3.5c42 0 74.333 -12.667 97 -38s34 -61.333 34 -108v-404h-151v353c0 25.333 -4.5 43.333 -13.5 54
s-22.167 16 -39.5 16c-15.333 0 -32.5 -3.16699 -51.5 -9.5s-38.167 -14.833 -57.5 -25.5v-388h-151v540z" />
    <glyph glyph-name="Eng" unicode="&#x14a;" horiz-adv-x="719" 
d="M435 -170c16 39.333 29.1689 76.999 39.502 112.999s17.833 71 22.5 105l-240 355l-46 85h-10v-488h-137v740h126l274 -404l46 -83h9v487h138v-631c0 -18 -3.16699 -39.667 -9.5 -65s-14.833 -52.166 -25.5 -80.499s-23.334 -56.833 -38.001 -85.5
s-30.334 -55.667 -47.001 -81z" />
    <glyph glyph-name="eng" unicode="&#x14b;" horiz-adv-x="569" 
d="M318 -200c15.333 44 27.333 92.334 36 145.001s13 105 13 157v240c0 28 -4 47.5 -12 58.5s-21.667 16.5 -41 16.5c-30.667 0 -67 -11 -109 -33v-384h-151v540h127l9 -59h4c22 12.667 41.667 23.5 59 32.5s33.5 16.167 48.5 21.5s29.5 9.16602 43.5 11.499s28 3.5 42 3.5
c42 0 74.333 -12.667 97 -38s34 -61.333 34 -108v-329c-0.666992 -23.333 -3.16699 -48.333 -7.5 -75s-10.333 -53 -18 -79s-16.5 -51.167 -26.5 -75.5s-21 -45.833 -33 -64.5z" />
    <glyph glyph-name="Omacron" unicode="&#x14c;" horiz-adv-x="702" 
d="M183 941h332v-102h-332v102zM351 -10c-210.667 0 -316 126.333 -316 379c0 254 105.333 381 316 381s316 -127 316 -381c0 -252.667 -105.333 -379 -316 -379zM351 117c28.667 0 53 4.33301 73 13s36.333 23 49 43s21.834 46 27.501 78s8.5 71.333 8.5 118
s-2.83301 86.167 -8.5 118.5s-14.834 58.666 -27.501 78.999s-29 35 -49 44s-44.333 13.5 -73 13.5s-53 -4.5 -73 -13.5s-36.333 -23.667 -49 -44s-21.834 -46.666 -27.501 -78.999s-8.5 -71.833 -8.5 -118.5c0 -46 2.83301 -85 8.5 -117s14.834 -58 27.501 -78
s29 -34.5 49 -43.5s44.333 -13.5 73 -13.5z" />
    <glyph glyph-name="omacron" unicode="&#x14d;" horiz-adv-x="565" 
d="M115 728h336v-96h-336v96zM282 -10c-82 0 -144.333 23.667 -187 71s-64 117 -64 209s21.333 161.667 64 209s105 71 187 71c82.667 0 145.167 -23.667 187.5 -71s63.5 -117 63.5 -209s-21.167 -161.667 -63.5 -209s-104.833 -71 -187.5 -71zM282 106
c18.667 0 34.334 2.66699 47.001 8s23 14.166 31 26.499s13.667 29 17 50s5 47.5 5 79.5s-1.66699 58.5 -5 79.5s-9 37.667 -17 50s-18.333 21.166 -31 26.499s-28.334 8 -47.001 8s-34.334 -2.66699 -47.001 -8s-22.834 -14.166 -30.501 -26.499s-13.167 -29 -16.5 -50
s-5 -47.5 -5 -79.5s1.66699 -58.5 5 -79.5s8.83301 -37.667 16.5 -50s17.834 -21.166 30.501 -26.499s28.334 -8 47.001 -8z" />
    <glyph glyph-name="Obreve" unicode="&#x14e;" horiz-adv-x="702" 
d="M351 801c-64 0 -111.332 15.667 -141.999 47s-46 73 -46 125h104c0 -34 6.16699 -58.833 18.5 -74.5s34.166 -23.5 65.499 -23.5c30 0 51.333 7.83301 64 23.5s19 40.5 19 74.5h104c0 -52 -15.5 -93.667 -46.5 -125s-77.833 -47 -140.5 -47zM351.001 -10
c-210.667 0 -316 126.333 -316 379c0 254 105.333 381 316 381s316 -127 316 -381c0 -252.667 -105.333 -379 -316 -379zM351.001 117c28.667 0 53 4.33301 73 13s36.333 23 49 43s21.834 46 27.501 78s8.5 71.333 8.5 118s-2.83301 86.167 -8.5 118.5
s-14.834 58.666 -27.501 78.999s-29 35 -49 44s-44.333 13.5 -73 13.5s-53 -4.5 -73 -13.5s-36.333 -23.667 -49 -44s-21.834 -46.666 -27.501 -78.999s-8.5 -71.833 -8.5 -118.5c0 -46 2.83301 -85 8.5 -117s14.834 -58 27.501 -78s29 -34.5 49 -43.5
s44.333 -13.5 73 -13.5z" />
    <glyph glyph-name="obreve" unicode="&#x14f;" horiz-adv-x="565" 
d="M282 -10c-82 0 -144.333 23.667 -187 71s-64 117 -64 209s21.333 161.667 64 209s105 71 187 71c82.667 0 145.167 -23.667 187.5 -71s63.5 -117 63.5 -209s-21.167 -161.667 -63.5 -209s-104.833 -71 -187.5 -71zM282 106c18.667 0 34.334 2.66699 47.001 8
s23 14.166 31 26.499s13.667 29 17 50s5 47.5 5 79.5s-1.66699 58.5 -5 79.5s-9 37.667 -17 50s-18.333 21.166 -31 26.499s-28.334 8 -47.001 8s-34.334 -2.66699 -47.001 -8s-22.834 -14.166 -30.501 -26.499s-13.167 -29 -16.5 -50s-5 -47.5 -5 -79.5
s1.66699 -58.5 5 -79.5s8.83301 -37.667 16.5 -50s17.834 -21.166 30.501 -26.499s28.334 -8 47.001 -8zM282 614c-62.667 0 -109.001 14.167 -139.001 42.5s-46 67.833 -48 118.5h103c0.666992 -54.667 28.667 -82 84 -82c54.667 0 82.334 27.333 83.001 82h104
c-2.66699 -51.333 -19 -91 -49 -119s-76 -42 -138 -42z" />
    <glyph glyph-name="Ohungarumlaut" unicode="&#x150;" horiz-adv-x="702" 
d="M351 -10c-210.667 0 -316 126.333 -316 379c0 254 105.333 381 316 381s316 -127 316 -381c0 -252.667 -105.333 -379 -316 -379zM351 117c28.667 0 53 4.33301 73 13s36.333 23 49 43s21.834 46 27.501 78s8.5 71.333 8.5 118s-2.83301 86.167 -8.5 118.5
s-14.834 58.666 -27.501 78.999s-29 35 -49 44s-44.333 13.5 -73 13.5s-53 -4.5 -73 -13.5s-36.333 -23.667 -49 -44s-21.834 -46.666 -27.501 -78.999s-8.5 -71.833 -8.5 -118.5c0 -46 2.83301 -85 8.5 -117s14.834 -58 27.501 -78s29 -34.5 49 -43.5
s44.333 -13.5 73 -13.5zM198 803l68 166h135l-114 -177zM385 803l67 166h135l-113 -177z" />
    <glyph glyph-name="ohungarumlaut" unicode="&#x151;" horiz-adv-x="565" 
d="M134 620l67 186h135l-114 -196zM327 620l67 186h135l-114 -196zM282 -10c-82 0 -144.333 23.667 -187 71s-64 117 -64 209s21.333 161.667 64 209s105 71 187 71c82.667 0 145.167 -23.667 187.5 -71s63.5 -117 63.5 -209s-21.167 -161.667 -63.5 -209
s-104.833 -71 -187.5 -71zM282 106c18.667 0 34.334 2.66699 47.001 8s23 14.166 31 26.499s13.667 29 17 50s5 47.5 5 79.5s-1.66699 58.5 -5 79.5s-9 37.667 -17 50s-18.333 21.166 -31 26.499s-28.334 8 -47.001 8s-34.334 -2.66699 -47.001 -8
s-22.834 -14.166 -30.501 -26.499s-13.167 -29 -16.5 -50s-5 -47.5 -5 -79.5s1.66699 -58.5 5 -79.5s8.83301 -37.667 16.5 -50s17.834 -21.166 30.501 -26.499s28.334 -8 47.001 -8z" />
    <glyph glyph-name="OE" unicode="&#x152;" horiz-adv-x="957" 
d="M360 -8c-104.667 0 -185.165 31.5 -241.498 94.5s-84.5 157.167 -84.5 282.5c0 126 28 220.667 84 284s136.667 95 242 95c19.333 0 38.166 -0.833008 56.499 -2.5s35.166 -3.5 50.499 -5.5h445v-126h-291v-177h271v-121h-271v-190h300v-126h-454
c-16 -3.33301 -33 -5.5 -51 -6.5s-36.667 -1.5 -56 -1.5zM374.002 120c16 0 31.666 0.334961 46.999 1.00195s30.333 2.66699 45 6v486c-15.333 2.66699 -30.666 4.5 -45.999 5.5s-31 1.5 -47 1.5c-34 0 -62.667 -4.5 -86 -13.5s-42.166 -23.5 -56.499 -43.5
s-24.666 -45.833 -30.999 -77.5s-9.5 -70.5 -9.5 -116.5s3.16699 -84.833 9.5 -116.5s16.666 -57.334 30.999 -77.001s33.166 -33.834 56.499 -42.501s52.333 -13 87 -13z" />
    <glyph glyph-name="oe" unicode="&#x153;" horiz-adv-x="872" 
d="M634 -9c-40 0 -74.332 6.83203 -102.999 20.499s-52 33.167 -70 58.5h-8c-36 -53.333 -93 -80 -171 -80c-82 0 -144.333 23.667 -187 71s-64 117 -64 209s21.333 161.667 64 209s105 71 187 71c40 0 74.167 -7 102.5 -21s51.5 -34.333 69.5 -61h8
c36.667 54 93.667 81 171 81c138.667 0 208 -82.667 208 -248c0 -18 -0.333008 -32.667 -1 -44s-2.33398 -22.666 -5.00098 -33.999h-301c2 -44 11.5 -74.667 28.5 -92s44.167 -26 81.5 -26c22.667 0 49.5 2.5 80.5 7.5s61.833 11.833 92.5 20.5l5 -111
c-26.667 -9.33301 -57 -16.833 -91 -22.5s-66.333 -8.5 -97 -8.5zM282.001 105.999c18.667 0 34.334 2.66699 47.001 8s23 14.166 31 26.499s13.667 29 17 50s5 47.5 5 79.5s-1.66699 58.5 -5 79.5s-9 37.667 -17 50s-18.333 21.166 -31 26.499s-28.334 8 -47.001 8
s-34.334 -2.66699 -47.001 -8s-22.834 -14.166 -30.501 -26.499s-13.167 -29 -16.5 -50s-5 -47.5 -5 -79.5s1.66699 -58.5 5 -79.5s8.83301 -37.667 16.5 -50s17.834 -21.166 30.501 -26.499s28.334 -8 47.001 -8zM707.001 310.999c-1.33301 46 -7.83301 78.833 -19.5 98.5
s-31.5 29.5 -59.5 29.5c-30 0 -52.667 -10 -68 -30s-24.333 -52.667 -27 -98h174z" />
    <glyph glyph-name="Racute" unicode="&#x154;" horiz-adv-x="631" 
d="M328 255c-8.66699 -0.666992 -17.333 -1.16602 -26 -1.49902s-17.667 -0.5 -27 -0.5h-11.5h-16.5c-6 0 -11.667 0.166992 -17 0.5s-9.33301 0.5 -12 0.5v-254h-154v735c31.333 5.33301 63.333 9.16602 96 11.499s65.667 3.5 99 3.5c118 0 203.667 -19.833 257 -59.5
s80 -103.5 80 -191.5c0 -108 -44 -180.333 -132 -217l155 -282h-165zM285.001 372.001c28.667 0 52.667 2.33301 72 7s35 12 47 22s20.667 23 26 39s8 35.667 8 59s-2.66699 43.166 -8 59.499s-14 29.5 -26 39.5s-27.667 17.167 -47 21.5s-43 6.5 -71 6.5
c-9.33301 0 -20.5 -0.666992 -33.5 -2s-24.5 -2.66602 -34.5 -3.99902v-243c9.33301 -1.33301 20 -2.5 32 -3.5s23.667 -1.5 35 -1.5zM256.001 801.001l68 169h155l-113 -177z" />
    <glyph glyph-name="racute" unicode="&#x155;" horiz-adv-x="392" 
d="M158 618l67 187h154l-113 -196zM54 540l127 -0.000976562l9 -77h6c6.66699 6.66699 15.667 14 27 22s24 16 38 24s28.333 15.667 43 23s28.667 13 42 17h36v-137h-58c-21.333 -3.33301 -43.5 -9.66602 -66.5 -18.999s-40.5 -19 -52.5 -29v-364h-151v540z" />
    <glyph glyph-name="Rcommaaccent" unicode="&#x156;" horiz-adv-x="631" 
d="M257 -69h155l-84 -151h-115zM328 255c-8.66699 -0.666992 -17.333 -1.16602 -26 -1.49902s-17.667 -0.5 -27 -0.5h-11.5h-16.5c-6 0 -11.667 0.166992 -17 0.5s-9.33301 0.5 -12 0.5v-254h-154v735c31.333 5.33301 63.333 9.16602 96 11.499s65.667 3.5 99 3.5
c118 0 203.667 -19.833 257 -59.5s80 -103.5 80 -191.5c0 -108 -44 -180.333 -132 -217l155 -282h-165zM285.001 372.001c28.667 0 52.667 2.33301 72 7s35 12 47 22s20.667 23 26 39s8 35.667 8 59s-2.66699 43.166 -8 59.499s-14 29.5 -26 39.5s-27.667 17.167 -47 21.5
s-43 6.5 -71 6.5c-9.33301 0 -20.5 -0.666992 -33.5 -2s-24.5 -2.66602 -34.5 -3.99902v-243c9.33301 -1.33301 20 -2.5 32 -3.5s23.667 -1.5 35 -1.5z" />
    <glyph glyph-name="rcommaaccent" unicode="&#x157;" horiz-adv-x="392" 
d="M56 -69h155l-84 -151h-115zM54 540l127 -0.000976562l9 -77h6c6.66699 6.66699 15.667 14 27 22s24 16 38 24s28.333 15.667 43 23s28.667 13 42 17h36v-137h-58c-21.333 -3.33301 -43.5 -9.66602 -66.5 -18.999s-40.5 -19 -52.5 -29v-364h-151v540z" />
    <glyph glyph-name="Rcaron" unicode="&#x158;" horiz-adv-x="631" 
d="M154 970l170 -73l170 73v-104l-170 -73l-170 73v104zM328 255c-8.66699 -0.666992 -17.333 -1.16602 -26 -1.49902s-17.667 -0.5 -27 -0.5h-11.5h-16.5c-6 0 -11.667 0.166992 -17 0.5s-9.33301 0.5 -12 0.5v-254h-154v735c31.333 5.33301 63.333 9.16602 96 11.499
s65.667 3.5 99 3.5c118 0 203.667 -19.833 257 -59.5s80 -103.5 80 -191.5c0 -108 -44 -180.333 -132 -217l155 -282h-165zM285.001 372.001c28.667 0 52.667 2.33301 72 7s35 12 47 22s20.667 23 26 39s8 35.667 8 59s-2.66699 43.166 -8 59.499s-14 29.5 -26 39.5
s-27.667 17.167 -47 21.5s-43 6.5 -71 6.5c-9.33301 0 -20.5 -0.666992 -33.5 -2s-24.5 -2.66602 -34.5 -3.99902v-243c9.33301 -1.33301 20 -2.5 32 -3.5s23.667 -1.5 35 -1.5z" />
    <glyph glyph-name="rcaron" unicode="&#x159;" horiz-adv-x="392" 
d="M46 794l170 -74l170 74v-104l-170 -73l-170 73v104zM54 540l127 -0.000976562l9 -77h6c6.66699 6.66699 15.667 14 27 22s24 16 38 24s28.333 15.667 43 23s28.667 13 42 17h36v-137h-58c-21.333 -3.33301 -43.5 -9.66602 -66.5 -18.999s-40.5 -19 -52.5 -29v-364h-151
v540z" />
    <glyph glyph-name="Sacute" unicode="&#x15a;" horiz-adv-x="546" 
d="M264 -12c-35.333 0 -73.165 2.99414 -113.498 8.99414s-79.5 15 -117.5 27l2 128c15.333 -5.33301 31.833 -10.166 49.5 -14.499s35.667 -8.16602 54 -11.499s36.166 -6 53.499 -8s33.666 -3 48.999 -3c82.667 0 124 29.667 124 89c0 15.333 -3 28.333 -9 39
s-14.833 19.834 -26.5 27.501s-25.5 14.5 -41.5 20.5s-34 12 -54 18c-29.333 8 -55.833 17.333 -79.5 28s-44 24.834 -61 42.501s-30.167 39.167 -39.5 64.5s-14 56.666 -14 93.999c0 32.667 5.83301 62.167 17.5 88.5s28.667 48.833 51 67.5s49.5 32.834 81.5 42.501
s68 14.5 108 14.5c28.667 0 58.167 -2.16699 88.5 -6.5s64.166 -11.166 101.499 -20.499l-1 -125c-29.333 8 -60.166 14.5 -92.499 19.5s-60.166 7.5 -83.499 7.5c-36.667 0 -64.834 -7.33301 -84.501 -22s-29.5 -36 -29.5 -64c0 -15.333 3.16699 -28.333 9.5 -39
s15.5 -20.167 27.5 -28.5s26.667 -16 44 -23s37 -14.167 59 -21.5c28 -9.33301 53.333 -19.666 76 -30.999s42.167 -25.333 58.5 -42s28.833 -36.5 37.5 -59.5s13 -50.833 13 -83.5c0 -70.667 -22.5 -125.667 -67.5 -165s-108.5 -59 -190.5 -59zM214.001 800.994l68 169h155
l-113 -177z" />
    <glyph glyph-name="sacute" unicode="&#x15b;" horiz-adv-x="455" 
d="M173 618l67 187h154l-113 -196zM211 -10c-26.667 0 -54.8359 2.16797 -84.5029 6.50098s-59.834 10.5 -90.501 18.5v110c27.333 -8 55.833 -14.5 85.5 -19.5s57.834 -7.5 84.501 -7.5c52 0 78 17.667 78 53c0 17.333 -6 30.5 -18 39.5s-30.667 15.833 -56 20.5
c-18 2.66699 -37 6 -57 10s-38.5 11.5 -55.5 22.5s-31.167 27.167 -42.5 48.5s-17 50.333 -17 87c0 54 17.333 96.167 52 126.5s83.334 45.5 146.001 45.5c24 0 49.5 -1.66699 76.5 -5s57.167 -8.33301 90.5 -15l-1 -112c-33.333 7.33301 -60.666 12.5 -81.999 15.5
s-40.666 4.5 -57.999 4.5c-27.333 0 -47.833 -4.66699 -61.5 -14s-20.5 -22.666 -20.5 -39.999c0 -19.333 6.83301 -32.833 20.5 -40.5s32.834 -13.834 57.501 -18.501c21.333 -3.33301 42.166 -8 62.499 -14s38.5 -15 54.5 -27s28.833 -27.833 38.5 -47.5
s14.5 -44.834 14.5 -75.501c0 -55.333 -18.667 -97.833 -56 -127.5s-91 -44.5 -161 -44.5z" />
    <glyph glyph-name="Scircumflex" unicode="&#x15c;" horiz-adv-x="546" 
d="M264 -12c-35.333 0 -73.165 2.99414 -113.498 8.99414s-79.5 15 -117.5 27l2 128c15.333 -5.33301 31.833 -10.166 49.5 -14.499s35.667 -8.16602 54 -11.499s36.166 -6 53.499 -8s33.666 -3 48.999 -3c82.667 0 124 29.667 124 89c0 15.333 -3 28.333 -9 39
s-14.833 19.834 -26.5 27.501s-25.5 14.5 -41.5 20.5s-34 12 -54 18c-29.333 8 -55.833 17.333 -79.5 28s-44 24.834 -61 42.501s-30.167 39.167 -39.5 64.5s-14 56.666 -14 93.999c0 32.667 5.83301 62.167 17.5 88.5s28.667 48.833 51 67.5s49.5 32.834 81.5 42.501
s68 14.5 108 14.5c28.667 0 58.167 -2.16699 88.5 -6.5s64.166 -11.166 101.499 -20.499l-1 -125c-29.333 8 -60.166 14.5 -92.499 19.5s-60.166 7.5 -83.499 7.5c-36.667 0 -64.834 -7.33301 -84.501 -22s-29.5 -36 -29.5 -64c0 -15.333 3.16699 -28.333 9.5 -39
s15.5 -20.167 27.5 -28.5s26.667 -16 44 -23s37 -14.167 59 -21.5c28 -9.33301 53.333 -19.666 76 -30.999s42.167 -25.333 58.5 -42s28.833 -36.5 37.5 -59.5s13 -50.833 13 -83.5c0 -70.667 -22.5 -125.667 -67.5 -165s-108.5 -59 -190.5 -59zM109.001 900.994l170 74
l169 -74v-103l-169 73l-170 -73v103z" />
    <glyph glyph-name="scircumflex" unicode="&#x15d;" horiz-adv-x="455" 
d="M67 719l170 73l170 -73v-104l-170 73l-170 -73v104zM211 -10c-26.667 0 -54.8359 2.16797 -84.5029 6.50098s-59.834 10.5 -90.501 18.5v110c27.333 -8 55.833 -14.5 85.5 -19.5s57.834 -7.5 84.501 -7.5c52 0 78 17.667 78 53c0 17.333 -6 30.5 -18 39.5
s-30.667 15.833 -56 20.5c-18 2.66699 -37 6 -57 10s-38.5 11.5 -55.5 22.5s-31.167 27.167 -42.5 48.5s-17 50.333 -17 87c0 54 17.333 96.167 52 126.5s83.334 45.5 146.001 45.5c24 0 49.5 -1.66699 76.5 -5s57.167 -8.33301 90.5 -15l-1 -112
c-33.333 7.33301 -60.666 12.5 -81.999 15.5s-40.666 4.5 -57.999 4.5c-27.333 0 -47.833 -4.66699 -61.5 -14s-20.5 -22.666 -20.5 -39.999c0 -19.333 6.83301 -32.833 20.5 -40.5s32.834 -13.834 57.501 -18.501c21.333 -3.33301 42.166 -8 62.499 -14s38.5 -15 54.5 -27
s28.833 -27.833 38.5 -47.5s14.5 -44.834 14.5 -75.501c0 -55.333 -18.667 -97.833 -56 -127.5s-91 -44.5 -161 -44.5z" />
    <glyph glyph-name="uni015E" unicode="&#x15e;" horiz-adv-x="547" 
d="M251 -220c-12 0 -25.4971 0.998047 -40.4971 2.99805s-30.833 5 -47.5 9v90c12 -3.33301 24 -5.66602 36 -6.99902s21.667 -2 29 -2c29.333 0 44 12.667 44 38c0 20 -9.66699 45.667 -29 77c-32.667 1.33301 -67.334 4.83301 -104.001 10.5s-72 14.167 -106 25.5l2 128
c15.333 -5.33301 31.833 -10.166 49.5 -14.499s35.667 -8.16602 54 -11.499s36.166 -6 53.499 -8s33.666 -3 48.999 -3c82.667 0 124 29.667 124 89c0 15.333 -3 28.333 -9 39s-14.833 20 -26.5 28s-25.5 14.833 -41.5 20.5s-34 11.5 -54 17.5
c-29.333 8 -55.833 17.5 -79.5 28.5s-44 25.167 -61 42.5s-30.167 38.666 -39.5 63.999s-14 56.666 -14 93.999c0 32.667 5.83301 62.167 17.5 88.5s28.667 48.833 51 67.5s49.5 32.834 81.5 42.501s68 14.5 108 14.5c28.667 0 58.167 -2.16699 88.5 -6.5
s64.166 -11.166 101.499 -20.499l-1 -125c-29.333 8 -60.166 14.5 -92.499 19.5s-60.166 7.5 -83.499 7.5c-36.667 0 -64.834 -7.33301 -84.501 -22s-29.5 -36 -29.5 -64c0 -15.333 3.16699 -28.333 9.5 -39s15.5 -20.334 27.5 -29.001s26.667 -16.334 44 -23.001
s37 -13.667 59 -21c28 -9.33301 53.333 -19.666 76 -30.999s42.167 -25.333 58.5 -42s28.833 -36.5 37.5 -59.5s13 -50.833 13 -83.5c0 -60 -16.167 -108.667 -48.5 -146s-78.166 -61.333 -137.499 -72c13.333 -20 22.666 -38.167 27.999 -54.5s8 -33.5 8 -51.5
c0 -34 -10.5 -60.5 -31.5 -79.5s-50.833 -28.5 -89.5 -28.5z" />
    <glyph glyph-name="uni015F" unicode="&#x15f;" horiz-adv-x="455" 
d="M205 -220c-12 0 -25.5049 1.00098 -40.5049 3.00098s-30.833 5 -47.5 9v90c12 -3.33301 24 -5.66602 36 -6.99902s21.667 -2 29 -2c29.333 0 44 12.667 44 38c0 10 -2.66699 21.833 -8 35.5s-12.666 28.167 -21.999 43.5c-24.667 1.33301 -50.5 4 -77.5 8
s-54.5 9.66699 -82.5 17v110c27.333 -8 55.833 -14.5 85.5 -19.5s57.834 -7.5 84.501 -7.5c52 0 78 17.667 78 53c0 17.333 -6 30.5 -18 39.5s-30.667 15.833 -56 20.5c-18 2.66699 -37 6 -57 10s-38.5 11.5 -55.5 22.5s-31.167 27.167 -42.5 48.5s-17 50.333 -17 87
c0 54 17.333 96.167 52 126.5s83.334 45.5 146.001 45.5c24 0 49.5 -1.66699 76.5 -5s57.167 -8.33301 90.5 -15l-1 -112c-33.333 7.33301 -60.666 12.5 -81.999 15.5s-40.666 4.5 -57.999 4.5c-27.333 0 -47.833 -4.66699 -61.5 -14s-20.5 -22.666 -20.5 -39.999
c0 -19.333 6.83301 -32.833 20.5 -40.5s32.834 -13.834 57.501 -18.501c21.333 -3.33301 42.166 -8 62.499 -14s38.5 -15 54.5 -27s28.833 -27.833 38.5 -47.5s14.5 -44.834 14.5 -75.501c0 -44 -12 -80 -36 -108s-58.667 -46.667 -104 -56
c14 -21.333 23.833 -40.333 29.5 -57s8.5 -34.334 8.5 -53.001c0 -34 -10.5 -60.5 -31.5 -79.5s-50.833 -28.5 -89.5 -28.5z" />
    <glyph glyph-name="Scaron" unicode="&#x160;" horiz-adv-x="546" 
d="M264 -12c-35.333 0 -73.165 2.99414 -113.498 8.99414s-79.5 15 -117.5 27l2 128c15.333 -5.33301 31.833 -10.166 49.5 -14.499s35.667 -8.16602 54 -11.499s36.166 -6 53.499 -8s33.666 -3 48.999 -3c82.667 0 124 29.667 124 89c0 15.333 -3 28.333 -9 39
s-14.833 19.834 -26.5 27.501s-25.5 14.5 -41.5 20.5s-34 12 -54 18c-29.333 8 -55.833 17.333 -79.5 28s-44 24.834 -61 42.501s-30.167 39.167 -39.5 64.5s-14 56.666 -14 93.999c0 32.667 5.83301 62.167 17.5 88.5s28.667 48.833 51 67.5s49.5 32.834 81.5 42.501
s68 14.5 108 14.5c28.667 0 58.167 -2.16699 88.5 -6.5s64.166 -11.166 101.499 -20.499l-1 -125c-29.333 8 -60.166 14.5 -92.499 19.5s-60.166 7.5 -83.499 7.5c-36.667 0 -64.834 -7.33301 -84.501 -22s-29.5 -36 -29.5 -64c0 -15.333 3.16699 -28.333 9.5 -39
s15.5 -20.167 27.5 -28.5s26.667 -16 44 -23s37 -14.167 59 -21.5c28 -9.33301 53.333 -19.666 76 -30.999s42.167 -25.333 58.5 -42s28.833 -36.5 37.5 -59.5s13 -50.833 13 -83.5c0 -70.667 -22.5 -125.667 -67.5 -165s-108.5 -59 -190.5 -59zM114.001 969.994l170 -73
l170 73v-104l-170 -73l-170 73v104z" />
    <glyph glyph-name="scaron" unicode="&#x161;" horiz-adv-x="455" 
d="M63 794l170 -74l170 74v-104l-170 -73l-170 73v104zM211 -10c-26.667 0 -54.8359 2.16797 -84.5029 6.50098s-59.834 10.5 -90.501 18.5v110c27.333 -8 55.833 -14.5 85.5 -19.5s57.834 -7.5 84.501 -7.5c52 0 78 17.667 78 53c0 17.333 -6 30.5 -18 39.5
s-30.667 15.833 -56 20.5c-18 2.66699 -37 6 -57 10s-38.5 11.5 -55.5 22.5s-31.167 27.167 -42.5 48.5s-17 50.333 -17 87c0 54 17.333 96.167 52 126.5s83.334 45.5 146.001 45.5c24 0 49.5 -1.66699 76.5 -5s57.167 -8.33301 90.5 -15l-1 -112
c-33.333 7.33301 -60.666 12.5 -81.999 15.5s-40.666 4.5 -57.999 4.5c-27.333 0 -47.833 -4.66699 -61.5 -14s-20.5 -22.666 -20.5 -39.999c0 -19.333 6.83301 -32.833 20.5 -40.5s32.834 -13.834 57.501 -18.501c21.333 -3.33301 42.166 -8 62.499 -14s38.5 -15 54.5 -27
s28.833 -27.833 38.5 -47.5s14.5 -44.834 14.5 -75.501c0 -55.333 -18.667 -97.833 -56 -127.5s-91 -44.5 -161 -44.5z" />
    <glyph glyph-name="uni0162" unicode="&#x162;" horiz-adv-x="562" 
d="M203 611l-186 -0.000976562v129h529v-129h-188v-611h-25c14.667 -21.333 25 -40.5 31 -57.5s9 -35.167 9 -54.5c0 -34 -10.5 -60.5 -31.5 -79.5s-50.833 -28.5 -89.5 -28.5c-12 0 -25.5 1 -40.5 3s-30.833 5 -47.5 9v90c12 -3.33301 24 -5.66602 36 -6.99902
s21.667 -2 29 -2c29.333 0 44 12.667 44 38c0 22 -12 51.667 -36 89h-34v611z" />
    <glyph glyph-name="uni0163" unicode="&#x163;" horiz-adv-x="391" 
d="M188 -220c-12 0 -25.501 0.999023 -40.501 2.99902s-30.833 5 -47.5 9v90c12 -3.33301 24 -5.66602 36 -6.99902s21.667 -2 29 -2c29.333 0 44 12.667 44 38c0 13.333 -4.16699 29.5 -12.5 48.5s-20.5 39.167 -36.5 60.5c-40 26 -60 69.667 -60 131v262h-87v127h95
l21 153l120 14v-167h120v-127h-119v-227c0 -29.333 5.33301 -50 16 -62s27.334 -18 50.001 -18c16.667 0 34.667 3 54 9v-112c-29.333 -7.33301 -61.333 -11 -96 -11c12.667 -19.333 21.667 -37 27 -53s8 -33 8 -51c0 -34 -10.5 -60.5 -31.5 -79.5
s-50.833 -28.5 -89.5 -28.5z" />
    <glyph glyph-name="Tcaron" unicode="&#x164;" horiz-adv-x="562" 
d="M115 970l170 -73l170 73v-104l-170 -73l-170 73v104zM203 611h-186v129h529v-129h-188v-611h-155v611z" />
    <glyph glyph-name="tcaron" unicode="&#x165;" horiz-adv-x="387" 
d="M274 -8c-58 0 -101.501 13.5 -130.501 40.5s-43.5 66.5 -43.5 118.5v262h-87v127h95l21 153l120 14v-167h100v-127h-99v-227c0 -29.333 5.33301 -50 16 -62s27.334 -18 50.001 -18c16.667 0 34.667 3 54 9v-112c-29.333 -7.33301 -61.333 -11 -96 -11zM311.999 808h120
l-40 -228h-80v228z" />
    <glyph glyph-name="Tbar" unicode="&#x166;" horiz-adv-x="570" 
d="M86 417h121v194h-186v129h529v-129h-188v-194h117v-87h-117v-330h-155v330h-121v87z" />
    <glyph glyph-name="tbar" unicode="&#x167;" horiz-adv-x="396" 
d="M22 325h81.999v88h-87v127h95l21 153l120 14v-167h120v-127h-119v-88h97v-88h-97v-51c0 -29.333 5.33301 -50 16 -62s27.334 -18 50.001 -18c16.667 0 34.667 3 54 9v-112c-29.333 -7.33301 -61.333 -11 -96 -11c-58 0 -101.5 13.5 -130.5 40.5s-43.5 66.5 -43.5 118.5
v86h-82v88z" />
    <glyph glyph-name="Utilde" unicode="&#x168;" horiz-adv-x="704" 
d="M155 844c19.333 36 41.334 63.501 66.001 82.501s48.667 28.5 72 28.5c14 0 27.833 -2.16699 41.5 -6.5s27 -9 40 -14s26.167 -9.5 39.5 -13.5s27 -6 41 -6c13.333 0 26.166 3 38.499 9s25.5 16 39.5 30l24 -25c-18 -36.667 -39.333 -64.334 -64 -83.001
s-49.334 -28 -74.001 -28c-14 0 -27.667 2 -41 6s-26.666 8.5 -39.999 13.5s-26.5 9.5 -39.5 13.5s-26.5 6 -40.5 6c-13.333 0 -26.5 -2.83301 -39.5 -8.5s-26.5 -15.167 -40.5 -28.5zM352.001 -9.99902c-54 0 -99.6709 6.16797 -137.004 18.501
s-67.666 30.833 -90.999 55.5s-40.166 55.834 -50.499 93.501s-15.5 82.167 -15.5 133.5v449h154v-444c0 -62.667 10.833 -107.834 32.5 -135.501s57.5 -41.5 107.5 -41.5s85.833 13.667 107.5 41s32.5 72.666 32.5 135.999v444h154v-449
c0 -51.333 -5.16699 -95.833 -15.5 -133.5s-27.166 -69 -50.499 -94s-53.666 -43.5 -90.999 -55.5s-83 -18 -137 -18z" />
    <glyph glyph-name="utilde" unicode="&#x169;" horiz-adv-x="569" 
d="M193 -10c-45.333 0 -80.498 12.833 -105.498 38.5s-37.5 61.5 -37.5 107.5v404h151v-357c0 -24.667 4.5 -42.334 13.5 -53.001s23.5 -16 43.5 -16c15.333 0 31.666 3.16699 48.999 9.5s36.333 15.5 57 27.5v389h151v-540h-127l-9 58h-4l-55.5 -32
c-15.667 -8.66699 -30.334 -15.667 -44.001 -21s-27 -9.16602 -40 -11.499s-27.167 -3.5 -42.5 -3.5zM89.002 661c19.333 34 41.332 59.667 65.999 77s48.667 26 72 26c14.667 0 28.667 -2.66699 42 -8s26.5 -11 39.5 -17s26.167 -11.667 39.5 -17s27 -8 41 -8
c12.667 0 24.667 3 36 9s23.666 16.667 36.999 32l30 -35c-18.667 -35.333 -40.334 -61.333 -65.001 -78s-49 -25 -73 -25c-14 0 -27.667 2.5 -41 7.5s-26.666 10.667 -39.999 17s-26.666 12 -39.999 17s-26.666 7.5 -39.999 7.5s-25.833 -3 -37.5 -9s-24.167 -16 -37.5 -30
z" />
    <glyph glyph-name="Umacron" unicode="&#x16a;" horiz-adv-x="704" 
d="M178 941h332v-102h-332v102zM352 -10c-54 0 -99.6709 6.16797 -137.004 18.501s-67.666 30.833 -90.999 55.5s-40.166 55.834 -50.499 93.501s-15.5 82.167 -15.5 133.5v449h154v-444c0 -62.667 10.833 -107.834 32.5 -135.501s57.5 -41.5 107.5 -41.5
s85.833 13.667 107.5 41s32.5 72.666 32.5 135.999v444h154v-449c0 -51.333 -5.16699 -95.833 -15.5 -133.5s-27.166 -69 -50.499 -94s-53.666 -43.5 -90.999 -55.5s-83 -18 -137 -18z" />
    <glyph glyph-name="umacron" unicode="&#x16b;" horiz-adv-x="569" 
d="M193 -10c-45.333 0 -80.498 12.833 -105.498 38.5s-37.5 61.5 -37.5 107.5v404h151v-357c0 -24.667 4.5 -42.334 13.5 -53.001s23.5 -16 43.5 -16c15.333 0 31.666 3.16699 48.999 9.5s36.333 15.5 57 27.5v389h151v-540h-127l-9 58h-4l-55.5 -32
c-15.667 -8.66699 -30.334 -15.667 -44.001 -21s-27 -9.16602 -40 -11.499s-27.167 -3.5 -42.5 -3.5zM115.002 728h336v-96h-336v96z" />
    <glyph glyph-name="Ubreve" unicode="&#x16c;" horiz-adv-x="704" 
d="M349 801c-64 0 -111.332 15.667 -141.999 47s-46 73 -46 125h104c0 -34 6.16699 -58.833 18.5 -74.5s34.166 -23.5 65.499 -23.5c30 0 51.333 7.83301 64 23.5s19 40.5 19 74.5h104c0 -52 -15.5 -93.667 -46.5 -125s-77.833 -47 -140.5 -47zM352.001 -10
c-54 0 -99.6709 6.16797 -137.004 18.501s-67.666 30.833 -90.999 55.5s-40.166 55.834 -50.499 93.501s-15.5 82.167 -15.5 133.5v449h154v-444c0 -62.667 10.833 -107.834 32.5 -135.501s57.5 -41.5 107.5 -41.5s85.833 13.667 107.5 41s32.5 72.666 32.5 135.999v444h154
v-449c0 -51.333 -5.16699 -95.833 -15.5 -133.5s-27.166 -69 -50.499 -94s-53.666 -43.5 -90.999 -55.5s-83 -18 -137 -18z" />
    <glyph glyph-name="ubreve" unicode="&#x16d;" horiz-adv-x="569" 
d="M193 -10c-45.333 0 -80.498 12.833 -105.498 38.5s-37.5 61.5 -37.5 107.5v404h151v-357c0 -24.667 4.5 -42.334 13.5 -53.001s23.5 -16 43.5 -16c15.333 0 31.666 3.16699 48.999 9.5s36.333 15.5 57 27.5v389h151v-540h-127l-9 58h-4l-55.5 -32
c-15.667 -8.66699 -30.334 -15.667 -44.001 -21s-27 -9.16602 -40 -11.499s-27.167 -3.5 -42.5 -3.5zM282.002 614c-62.667 0 -109.001 14.167 -139.001 42.5s-46 67.833 -48 118.5h103c0.666992 -54.667 28.667 -82 84 -82c54.667 0 82.334 27.333 83.001 82h104
c-2.66699 -51.333 -19 -91 -49 -119s-76 -42 -138 -42z" />
    <glyph glyph-name="Uring" unicode="&#x16e;" horiz-adv-x="704" 
d="M352 -10c-54 0 -99.6709 6.16797 -137.004 18.501s-67.666 30.833 -90.999 55.5s-40.166 55.834 -50.499 93.501s-15.5 82.167 -15.5 133.5v449h154v-444c0 -62.667 10.833 -107.834 32.5 -135.501s57.5 -41.5 107.5 -41.5s85.833 13.667 107.5 41
s32.5 72.666 32.5 135.999v444h154v-449c0 -51.333 -5.16699 -95.833 -15.5 -133.5s-27.166 -69 -50.499 -94s-53.666 -43.5 -90.999 -55.5s-83 -18 -137 -18zM344.996 776.001c-35.333 0 -64.002 10.667 -86.002 32s-33 48 -33 80c0 16 2.83301 30.833 8.5 44.5
s13.834 25.5 24.501 35.5s23.334 17.833 38.001 23.5s30.667 8.5 48 8.5c18 0 34.333 -2.83301 49 -8.5s27.167 -13.5 37.5 -23.5s18.5 -21.833 24.5 -35.5s9 -28.5 9 -44.5s-3 -30.833 -9 -44.5s-14.167 -25.5 -24.5 -35.5s-22.833 -17.833 -37.5 -23.5s-31 -8.5 -49 -8.5z
M344.994 831.001c21.333 0 36.5 4.66699 45.5 14s13.5 23.666 13.5 42.999s-4.5 33.666 -13.5 42.999s-24.167 14 -45.5 14s-36.333 -4.66699 -45 -14s-13 -23.666 -13 -42.999s4.33301 -33.666 13 -42.999s23.667 -14 45 -14z" />
    <glyph glyph-name="uring" unicode="&#x16f;" horiz-adv-x="569" 
d="M283 595c-36 0 -65.3311 10.333 -87.998 31s-34 47.334 -34 80.001c0 33.333 11.167 60.333 33.5 81s51.833 31 88.5 31c37.333 0 67.166 -10.333 89.499 -31s33.5 -47.667 33.5 -81c0 -32.667 -11.333 -59.334 -34 -80.001s-52.334 -31 -89.001 -31zM283.002 651
c18 0 31.833 5 41.5 15s14.5 23.333 14.5 40c0 17.333 -4.83301 31 -14.5 41s-23.5 15 -41.5 15s-31.667 -5 -41 -15s-14 -23.667 -14 -41s4.83301 -30.833 14.5 -40.5s23.167 -14.5 40.5 -14.5zM193.002 -10c-45.333 0 -80.498 12.833 -105.498 38.5
s-37.5 61.5 -37.5 107.5v404h151v-357c0 -24.667 4.5 -42.334 13.5 -53.001s23.5 -16 43.5 -16c15.333 0 31.666 3.16699 48.999 9.5s36.333 15.5 57 27.5v389h151v-540h-127l-9 58h-4l-55.5 -32c-15.667 -8.66699 -30.334 -15.667 -44.001 -21s-27 -9.16602 -40 -11.499
s-27.167 -3.5 -42.5 -3.5z" />
    <glyph glyph-name="Uhungarumlaut" unicode="&#x170;" horiz-adv-x="704" 
d="M352 -10c-54 0 -99.6709 6.16797 -137.004 18.501s-67.666 30.833 -90.999 55.5s-40.166 55.834 -50.499 93.501s-15.5 82.167 -15.5 133.5v449h154v-444c0 -62.667 10.833 -107.834 32.5 -135.501s57.5 -41.5 107.5 -41.5s85.833 13.667 107.5 41
s32.5 72.666 32.5 135.999v444h154v-449c0 -51.333 -5.16699 -95.833 -15.5 -133.5s-27.166 -69 -50.499 -94s-53.666 -43.5 -90.999 -55.5s-83 -18 -137 -18zM197.996 803.001l68 166h135l-114 -177zM384.996 803.001l67 166h135l-113 -177z" />
    <glyph glyph-name="uhungarumlaut" unicode="&#x171;" horiz-adv-x="569" 
d="M193 -10c-45.333 0 -80.498 12.833 -105.498 38.5s-37.5 61.5 -37.5 107.5v404h151v-357c0 -24.667 4.5 -42.334 13.5 -53.001s23.5 -16 43.5 -16c15.333 0 31.666 3.16699 48.999 9.5s36.333 15.5 57 27.5v389h151v-540h-127l-9 58h-4l-55.5 -32
c-15.667 -8.66699 -30.334 -15.667 -44.001 -21s-27 -9.16602 -40 -11.499s-27.167 -3.5 -42.5 -3.5zM132.002 620l67 186h135l-114 -196zM325.002 620l67 186h135l-114 -196z" />
    <glyph glyph-name="Uogonek" unicode="&#x172;" horiz-adv-x="704" 
d="M350 -215c-83.333 0 -124.999 32.0039 -124.999 96.0039c0 21.333 5.16699 41 15.5 59s27.166 35.667 50.499 53c-42.667 4 -78.834 13.167 -108.501 27.5s-53.667 33.833 -72 58.5s-31.666 54.667 -39.999 90s-12.5 76 -12.5 122v449h154v-444
c0 -62.667 10.833 -107.834 32.5 -135.501s57.5 -41.5 107.5 -41.5s85.833 13.667 107.5 41s32.5 72.666 32.5 135.999v444h154v-449c0 -44.667 -3.83301 -84 -11.5 -118s-20 -63.333 -37 -88s-39.167 -44.334 -66.5 -59.001s-60.333 -24.667 -99 -30
c-40 -16 -68 -32.833 -84 -50.5s-24 -33.5 -24 -47.5c0 -17.333 12.333 -26 37 -26c10.667 0 22.5 1.16699 35.5 3.5s25.167 5.16602 36.5 8.49902v-87c-14 -4 -27.5 -7 -40.5 -9s-27.167 -3 -42.5 -3z" />
    <glyph glyph-name="uogonek" unicode="&#x173;" horiz-adv-x="570" 
d="M194 -10c-45.333 0 -80.499 12.834 -105.499 38.501s-37.5 61.5 -37.5 107.5v404h151v-357c0 -24.667 4.5 -42.334 13.5 -53.001s23.5 -16 43.5 -16c15.333 0 31.666 3.16699 48.999 9.5s36.333 15.5 57 27.5v389h151v-550
c-39.333 -15.333 -67.166 -31.833 -83.499 -49.5s-24.5 -33.5 -24.5 -47.5c0 -17.333 12.333 -26 37 -26c10.667 0 22.5 1.16699 35.5 3.5s25.167 5.16602 36.5 8.49902v-87c-14 -4 -27.5 -7 -40.5 -9s-27.167 -3 -42.5 -3c-83.333 0 -125 32 -125 96
c0 23.333 6 44.833 18 64.5s32.667 39.5 62 59.5l-9 58h-4l-55.5 -32c-15.667 -8.66699 -30.334 -15.667 -44.001 -21s-27 -9.16602 -40 -11.499s-27.167 -3.5 -42.5 -3.5z" />
    <glyph glyph-name="Wcircumflex" unicode="&#x174;" horiz-adv-x="976" 
d="M7 740h169l85 -453l16 -110h11l20 110l106 453h153l103 -453l20 -110h10l17 110l88 453h165l-176 -740h-190l-93 392l-17 139h-10l-17 -139l-96 -392h-190zM317 901l170 74l169 -74v-103l-169 73l-170 -73v103z" />
    <glyph glyph-name="wcircumflex" unicode="&#x175;" horiz-adv-x="767" 
d="M217 719l170 73l170 -73v-104l-170 73l-170 -73v104zM16 536v4h141l56 -322l10 -66h11l11 66l69 322h140l69 -322l12 -66h10l10 66l56 322h141v-4l-120 -536h-168l-67 305l-8 59h-11l-8 -59l-66 -305h-169z" />
    <glyph glyph-name="Ycircumflex" unicode="&#x176;" horiz-adv-x="653" 
d="M250 247l-257 493h171l138 -290l20 -60h9l21 60l138 290h169l-255 -491v-249h-154v247zM158 901l170 74l169 -74v-103l-169 73l-170 -73v103z" />
    <glyph glyph-name="ycircumflex" unicode="&#x177;" horiz-adv-x="555" 
d="M135 -193v9l65 187l-196 524v13h156l95 -307l18 -80h9l18 80l96 307h155v-13l-269 -747zM117 719l170 73l170 -73v-104l-170 73l-170 -73v104z" />
    <glyph glyph-name="Ydieresis" unicode="&#x178;" horiz-adv-x="653" 
d="M250 247l-257 493h171l138 -290l20 -60h9l21 60l138 290h169l-255 -491v-249h-154v247zM201 803c-30 0 -51.5 6.5 -64.5 19.5s-19.5 34.167 -19.5 63.5s6.5 50.333 19.5 63s34.5 19 64.5 19c29.333 0 50.833 -6.5 64.5 -19.5s20.5 -33.833 20.5 -62.5
c0 -29.333 -6.83301 -50.5 -20.5 -63.5s-35.167 -19.5 -64.5 -19.5zM454 803c-30 0 -51.5 6.5 -64.5 19.5s-19.5 34.167 -19.5 63.5s6.5 50.333 19.5 63s34.5 19 64.5 19c29.333 0 50.833 -6.5 64.5 -19.5s20.5 -33.833 20.5 -62.5c0 -29.333 -6.83301 -50.5 -20.5 -63.5
s-35.167 -19.5 -64.5 -19.5z" />
    <glyph glyph-name="Zacute" unicode="&#x179;" horiz-adv-x="567" 
d="M27 130l322 474v8h-308v128h485v-129l-322 -476v-8h337v-127h-514v130zM230 801l68 169h155l-113 -177z" />
    <glyph glyph-name="zacute" unicode="&#x17a;" horiz-adv-x="471" 
d="M184 618l67 187h154l-113 -196zM30 101l226 316v7h-218v116h394v-101l-221 -315v-8h231v-116h-412v101z" />
    <glyph glyph-name="Zdotaccent" unicode="&#x17b;" horiz-adv-x="567" 
d="M287 800c-30 0 -51.5 6.33301 -64.5 19s-19.5 33.667 -19.5 63s6.5 50.333 19.5 63s34.5 19 64.5 19c29.333 0 50.833 -6.5 64.5 -19.5s20.5 -33.833 20.5 -62.5s-6.83301 -49.5 -20.5 -62.5s-35.167 -19.5 -64.5 -19.5zM27 130l322 474v8h-308v128h485v-129l-322 -476
v-8h337v-127h-514v130z" />
    <glyph glyph-name="zdotaccent" unicode="&#x17c;" horiz-adv-x="471" 
d="M30 101l226 316v7h-218v116h394v-101l-221 -315v-8h231v-116h-412v101zM235 611c-30 0 -51.667 6.5 -65 19.5s-20 34.167 -20 63.5c0 28.667 6.66699 49.334 20 62.001s35 19 65 19c29.333 0 50.833 -6.33301 64.5 -19s20.5 -33.334 20.5 -62.001
c0 -29.333 -6.83301 -50.5 -20.5 -63.5s-35.167 -19.5 -64.5 -19.5z" />
    <glyph glyph-name="Zcaron" unicode="&#x17d;" horiz-adv-x="567" 
d="M124 970l170 -73l170 73v-104l-170 -73l-170 73v104zM27 130l322 474v8h-308v128h485v-129l-322 -476v-8h337v-127h-514v130z" />
    <glyph glyph-name="zcaron" unicode="&#x17e;" horiz-adv-x="471" 
d="M69 794l170 -74l170 74v-104l-170 -73l-170 73v104zM30 101l226 316v7h-218v116h394v-101l-221 -315v-8h231v-116h-412v101z" />
    <glyph glyph-name="Schwa" unicode="&#x18f;" horiz-adv-x="657" 
d="M31 322c0 18 0.333008 34.998 1 50.998s2 32.667 4 50h431c-2 38 -7 69.667 -15 95s-19.5 45.5 -34.5 60.5s-34.167 25.667 -57.5 32s-51.333 9.5 -84 9.5c-32 0 -65.333 -2.5 -100 -7.5s-71.334 -13.167 -110.001 -24.5c0 0.666992 -0.5 7.33398 -1.5 20.001
s-1.83301 26.5 -2.5 41.5s-1.5 28.833 -2.5 41.5s-1.5 19.334 -1.5 20.001c34.667 12.667 72.667 22.667 114 30s81 11 119 11c110 0 192.833 -31.333 248.5 -94s83.5 -156 83.5 -280c0 -123.333 -26.833 -218.833 -80.5 -286.5s-133.167 -101.5 -238.5 -101.5
c-89.333 0 -157.166 26.833 -203.499 80.5s-69.5 137.5 -69.5 251.5zM310 111.998c26.667 0 49.498 3.66797 68.498 11.001s34.833 19.166 47.5 35.499s22.334 37.5 29.001 63.5s11 57.667 13 95h-288c0 -38 2.16699 -70.167 6.5 -96.5s11.333 -47.5 21 -63.5
s22.834 -27.5 39.501 -34.5s37.667 -10.5 63 -10.5z" />
    <glyph glyph-name="florin" unicode="&#x192;" horiz-adv-x="419" 
d="M116 414l-86.999 -0.000976562v126h88v28c0 45.333 4.83301 83.333 14.5 114s25.5 55.5 47.5 74.5s51 33 87 42s80.667 14.5 134 16.5l9 -113c-28 -2 -51 -5.16699 -69 -9.5s-32.333 -11.166 -43 -20.499s-18.334 -21.5 -23.001 -36.5s-7 -33.833 -7 -56.5v-39h120v-126
h-120v-583l-151 -51v634z" />
    <glyph glyph-name="uni01C4" unicode="&#x1c4;" horiz-adv-x="1242" 
d="M798 970l170 -73l170 73v-104l-170 -73l-170 73v104zM702 130l322 474v8h-308v128h485v-129l-322 -476v-8h337v-127h-514v130zM247 -13c-57.333 0 -118.332 4 -182.999 12v739c44 3.33301 82.333 6 115 8s62 3 88 3c66.667 0 123.5 -7.16699 170.5 -21.5
s85.5 -36.833 115.5 -67.5s52 -70 66 -118s21 -105.667 21 -173c0 -68 -7.33301 -126.167 -22 -174.5s-37.667 -87.833 -69 -118.5s-71.833 -53.167 -121.5 -67.5s-109.834 -21.5 -180.501 -21.5zM301.001 112c33.333 0 61.501 4.33301 84.501 13s41.5 23 55.5 43
s24.167 46.5 30.5 79.5s9.5 73.833 9.5 122.5c0 48 -3.16699 88.333 -9.5 121s-16.833 59 -31.5 79s-34 34.333 -58 43s-53.667 13 -89 13c-25.333 0 -51 -2 -77 -6v-502c17.333 -2 32.666 -3.5 45.999 -4.5s26.333 -1.5 39 -1.5z" />
    <glyph glyph-name="uni01C5" unicode="&#x1c5;" horiz-adv-x="1146" 
d="M744 794l170 -74l170 74v-104l-170 -73l-170 73v104zM705 101l226 316v7h-218v116h394v-101l-221 -315v-8h231v-116h-412v101zM247 -13c-57.333 0 -118.332 4 -182.999 12v739c44 3.33301 82.333 6 115 8s62 3 88 3c66.667 0 123.5 -7.16699 170.5 -21.5
s85.5 -36.833 115.5 -67.5s52 -70 66 -118s21 -105.667 21 -173c0 -68 -7.33301 -126.167 -22 -174.5s-37.667 -87.833 -69 -118.5s-71.833 -53.167 -121.5 -67.5s-109.834 -21.5 -180.501 -21.5zM301.001 112c33.333 0 61.501 4.33301 84.501 13s41.5 23 55.5 43
s24.167 46.5 30.5 79.5s9.5 73.833 9.5 122.5c0 48 -3.16699 88.333 -9.5 121s-16.833 59 -31.5 79s-34 34.333 -58 43s-53.667 13 -89 13c-25.333 0 -51 -2 -77 -6v-502c17.333 -2 32.666 -3.5 45.999 -4.5s26.333 -1.5 39 -1.5z" />
    <glyph glyph-name="uni01C6" unicode="&#x1c6;" horiz-adv-x="1044" 
d="M642 794l170 -74l170 74v-104l-170 -73l-170 73v104zM602 101l226 316v7h-218v116h394v-101l-221 -315v-8h231v-116h-412v101zM224 -9c-128 0 -192.001 88.333 -192.001 265c0 97.333 22.833 170.5 68.5 219.5s111.834 73.5 198.501 73.5
c10.667 0 21.334 -0.5 32.001 -1.5l36 -3.5v264h151v-808h-136l-10 58h-5c-32.667 -44.667 -80.334 -67 -143.001 -67zM273.999 100c14.667 0 27.833 2.49902 39.5 7.49902s21.5 13.333 29.5 25s14 27 18 46s6 42.167 6 69.5v188c-20.667 6.66699 -44.667 10 -72 10
c-20 0 -37 -2.83301 -51 -8.5s-25.167 -15.167 -33.5 -28.5s-14.5 -31.166 -18.5 -53.499s-6 -50.166 -6 -83.499c0 -32 1.5 -59 4.5 -81s8 -39.833 15 -53.5s16.167 -23.334 27.5 -29.001s25 -8.5 41 -8.5z" />
    <glyph glyph-name="uni01C7" unicode="&#x1c7;" horiz-adv-x="774" 
d="M481 -159c14.667 34 27.001 64.8359 37.001 92.5029s18 55 24 82s10.167 54.667 12.5 83s3.5 59.833 3.5 94.5v547h155v-559c0 -34 -2.33301 -66.333 -7 -97s-12.334 -61.334 -23.001 -92.001s-24.5 -61.834 -41.5 -93.501s-37.833 -65.834 -62.5 -102.501z
M64.001 740.003h154v-614h262v-126h-416v740z" />
    <glyph glyph-name="uni01C8" unicode="&#x1c8;" horiz-adv-x="751" 
d="M621 622c-29.333 0 -50.5 6.5 -63.5 19.5s-19.5 33.833 -19.5 62.5s6.33301 49.5 19 62.5s34 19.5 64 19.5s51.667 -6.66699 65 -20s20 -34 20 -62s-6.66699 -48.667 -20 -62s-35 -20 -65 -20zM499 -192c16 44 28 92 36 144s12 110 12 174v32.5v72.5v93v95
c0 30 -0.166992 56.167 -0.5 78.5s-0.5 36.5 -0.5 42.5h151v-464c-0.666992 -24 -3.33398 -49.167 -8.00098 -75.5s-11 -52.333 -19 -78s-17.667 -50.667 -29 -75s-23.666 -46.833 -36.999 -67.5zM64 740h154v-614h262v-126h-416v740z" />
    <glyph glyph-name="uni01C9" unicode="&#x1c9;" horiz-adv-x="519" 
d="M390 622c-29.333 0 -50.5 6.5 -63.5 19.5s-19.5 33.833 -19.5 62.5s6.33301 49.5 19 62.5s34 19.5 64 19.5s51.667 -6.66699 65 -20s20 -34 20 -62s-6.66699 -48.667 -20 -62s-35 -20 -65 -20zM268 -192c16 44 28 92 36 144s12 110 12 174v32.5v72.5v93v95
c0 30 -0.166992 56.167 -0.5 78.5s-0.5 36.5 -0.5 42.5h151v-464c-0.666992 -24 -3.33398 -49.167 -8.00098 -75.5s-11 -52.333 -19 -78s-17.667 -50.667 -29 -75s-23.666 -46.833 -36.999 -67.5zM55 808h151v-808h-151v808z" />
    <glyph glyph-name="uni01CA" unicode="&#x1ca;" horiz-adv-x="1002" 
d="M709 -159c14.667 34 27.001 64.8359 37.001 92.5029s18 55 24 82s10.167 54.667 12.5 83s3.5 59.833 3.5 94.5v547h155v-559c0 -34 -2.33301 -66.333 -7 -97s-12.334 -61.334 -23.001 -92.001s-24.5 -61.834 -41.5 -93.501s-37.833 -65.834 -62.5 -102.501z
M64.001 740.003h128l274 -403l46 -82h8v485h137v-740h-128l-273 402l-47 84h-9v-486h-136v740z" />
    <glyph glyph-name="uni01CB" unicode="&#x1cb;" horiz-adv-x="979" 
d="M849 622c-29.333 0 -50.5 6.5 -63.5 19.5s-19.5 33.833 -19.5 62.5s6.33301 49.5 19 62.5s34 19.5 64 19.5s51.667 -6.66699 65 -20s20 -34 20 -62s-6.66699 -48.667 -20 -62s-35 -20 -65 -20zM727 -192c16 44 28 92 36 144s12 110 12 174v32.5v72.5v93v95
c0 30 -0.166992 56.167 -0.5 78.5s-0.5 36.5 -0.5 42.5h151v-464c-0.666992 -24 -3.33398 -49.167 -8.00098 -75.5s-11 -52.333 -19 -78s-17.667 -50.667 -29 -75s-23.666 -46.833 -36.999 -67.5zM64 740h128l274 -403l46 -82h8v485h137v-740h-128l-273 402l-47 84h-9v-486
h-136v740z" />
    <glyph glyph-name="uni01CC" unicode="&#x1cc;" horiz-adv-x="828" 
d="M699 622c-29.333 0 -50.5 6.5 -63.5 19.5s-19.5 33.833 -19.5 62.5s6.33301 49.5 19 62.5s34 19.5 64 19.5s51.667 -6.66699 65 -20s20 -34 20 -62s-6.66699 -48.667 -20 -62s-35 -20 -65 -20zM577 -192c16 44 28 92 36 144s12 110 12 174v32.5v72.5v93v95
c0 30 -0.166992 56.167 -0.5 78.5s-0.5 36.5 -0.5 42.5h151v-464c-0.666992 -24 -3.33398 -49.167 -8.00098 -75.5s-11 -52.333 -19 -78s-17.667 -50.667 -29 -75s-23.666 -46.833 -36.999 -67.5zM54 540l127 0.000976562l9 -59h5c22 12.667 41.667 23.5 59 32.5
s33.5 16.167 48.5 21.5s29.333 9.16602 43 11.499s27.5 3.5 41.5 3.5c42 0 74.333 -12.667 97 -38s34 -61.333 34 -108v-404h-151v353c0 25.333 -4.5 43.333 -13.5 54s-22.167 16 -39.5 16c-15.333 0 -32.5 -3.16699 -51.5 -9.5s-38.167 -14.833 -57.5 -25.5v-388h-151v540z
" />
    <glyph glyph-name="Oogonek" unicode="&#x1ea;" horiz-adv-x="701" 
d="M349 -212c-83.333 0 -125 32 -125 96c0 20.667 5 40 15 58s26.333 35.667 49 53c-168.667 23.333 -253 148 -253 374c0 254 105.333 381 316 381s316 -127 316 -381c0 -220.667 -80.333 -344.667 -241 -372c-38 -15.333 -64.667 -31.666 -80 -48.999s-23 -33 -23 -47
c0 -17.333 12.333 -26 37 -26c10.667 0 22.5 1.16699 35.5 3.5s25.167 5.16602 36.5 8.49902v-87c-14 -4 -27.5 -7 -40.5 -9s-27.167 -3 -42.5 -3zM351 117c28.667 0 53 4.33301 73 13s36.333 23 49 43s21.834 46 27.501 78s8.5 71.333 8.5 118s-2.83301 86.167 -8.5 118.5
s-14.834 58.666 -27.501 78.999s-29 35 -49 44s-44.333 13.5 -73 13.5s-53 -4.5 -73 -13.5s-36.333 -23.667 -49 -44s-21.834 -46.666 -27.501 -78.999s-8.5 -71.833 -8.5 -118.5c0 -46 2.83301 -85 8.5 -117s14.834 -58 27.501 -78s29 -34.5 49 -43.5
s44.333 -13.5 73 -13.5z" />
    <glyph glyph-name="oogonek" unicode="&#x1eb;" horiz-adv-x="565" 
d="M303 -204c-83.333 0 -124.999 32.002 -124.999 96.002c0 19.333 4.16699 37.166 12.5 53.499s22.166 32.5 41.499 48.5c-66 9.33301 -116 37.166 -150 83.499s-51 110.5 -51 192.5c0 92 21.333 161.667 64 209s105 71 187 71c82.667 0 145.167 -23.667 187.5 -71
s63.5 -117 63.5 -209c0 -142 -49.667 -230.333 -149 -265c-39.333 -15.333 -67 -31.666 -83 -48.999s-24 -33 -24 -47c0 -17.333 12.333 -26 37 -26c10.667 0 22.5 1.16699 35.5 3.5s25.167 5.16602 36.5 8.49902v-87c-14 -4 -27.5 -7 -40.5 -9s-27.167 -3 -42.5 -3z
M282.001 106.002c18.667 0 34.334 2.66699 47.001 8s23 14.166 31 26.499s13.667 29 17 50s5 47.5 5 79.5s-1.66699 58.5 -5 79.5s-9 37.667 -17 50s-18.333 21.166 -31 26.499s-28.334 8 -47.001 8s-34.334 -2.66699 -47.001 -8s-22.834 -14.166 -30.501 -26.499
s-13.167 -29 -16.5 -50s-5 -47.5 -5 -79.5s1.66699 -58.5 5 -79.5s8.83301 -37.667 16.5 -50s17.834 -21.166 30.501 -26.499s28.334 -8 47.001 -8z" />
    <glyph glyph-name="uni01F1" unicode="&#x1f1;" horiz-adv-x="1232" 
d="M691 130l322 474v8h-308v128h485v-129l-322 -476v-8h337v-127h-514v130zM247 -13c-57.333 0 -118.332 4 -182.999 12v739c44 3.33301 82.333 6 115 8s62 3 88 3c66.667 0 123.5 -7.16699 170.5 -21.5s85.5 -36.833 115.5 -67.5s52 -70 66 -118s21 -105.667 21 -173
c0 -68 -7.33301 -126.167 -22 -174.5s-37.667 -87.833 -69 -118.5s-71.833 -53.167 -121.5 -67.5s-109.834 -21.5 -180.501 -21.5zM301.001 112c33.333 0 61.501 4.33301 84.501 13s41.5 23 55.5 43s24.167 46.5 30.5 79.5s9.5 73.833 9.5 122.5
c0 48 -3.16699 88.333 -9.5 121s-16.833 59 -31.5 79s-34 34.333 -58 43s-53.667 13 -89 13c-25.333 0 -51 -2 -77 -6v-502c17.333 -2 32.666 -3.5 45.999 -4.5s26.333 -1.5 39 -1.5z" />
    <glyph glyph-name="uni01F2" unicode="&#x1f2;" horiz-adv-x="1145" 
d="M703 101l226 316v7h-218v116h394v-101l-221 -315v-8h231v-116h-412v101zM247 -13c-57.333 0 -118.332 4 -182.999 12v739c44 3.33301 82.333 6 115 8s62 3 88 3c66.667 0 123.5 -7.16699 170.5 -21.5s85.5 -36.833 115.5 -67.5s52 -70 66 -118s21 -105.667 21 -173
c0 -68 -7.33301 -126.167 -22 -174.5s-37.667 -87.833 -69 -118.5s-71.833 -53.167 -121.5 -67.5s-109.834 -21.5 -180.501 -21.5zM301.001 112c33.333 0 61.501 4.33301 84.501 13s41.5 23 55.5 43s24.167 46.5 30.5 79.5s9.5 73.833 9.5 122.5
c0 48 -3.16699 88.333 -9.5 121s-16.833 59 -31.5 79s-34 34.333 -58 43s-53.667 13 -89 13c-25.333 0 -51 -2 -77 -6v-502c17.333 -2 32.666 -3.5 45.999 -4.5s26.333 -1.5 39 -1.5z" />
    <glyph glyph-name="uni01F3" unicode="&#x1f3;" horiz-adv-x="1044" 
d="M602 101l226 316v7h-218v116h394v-101l-221 -315v-8h231v-116h-412v101zM224 -9c-128 0 -192.001 88.333 -192.001 265c0 97.333 22.833 170.5 68.5 219.5s111.834 73.5 198.501 73.5c10.667 0 21.334 -0.5 32.001 -1.5l36 -3.5v264h151v-808h-136l-10 58h-5
c-32.667 -44.667 -80.334 -67 -143.001 -67zM273.999 100c14.667 0 27.833 2.49902 39.5 7.49902s21.5 13.333 29.5 25s14 27 18 46s6 42.167 6 69.5v188c-20.667 6.66699 -44.667 10 -72 10c-20 0 -37 -2.83301 -51 -8.5s-25.167 -15.167 -33.5 -28.5
s-14.5 -31.166 -18.5 -53.499s-6 -50.166 -6 -83.499c0 -32 1.5 -59 4.5 -81s8 -39.833 15 -53.5s16.167 -23.334 27.5 -29.001s25 -8.5 41 -8.5z" />
    <glyph glyph-name="Gacute" unicode="&#x1f4;" horiz-adv-x="620" 
d="M283 801l68 169h155l-113 -177zM362 -10c-111.333 0 -193.833 31.166 -247.5 93.499s-80.5 157.5 -80.5 285.5c0 129.333 29.167 225.166 87.5 287.499s147.833 93.5 268.5 93.5c26.667 0 55.334 -1.83301 86.001 -5.5s60.334 -9.16699 89.001 -16.5v-123
c-68 12 -121.667 18 -161 18c-40 0 -73.333 -4.33301 -100 -13s-48.334 -23 -65.001 -43s-28.5 -46.167 -35.5 -78.5s-10.5 -72.166 -10.5 -119.499s3.16699 -87.166 9.5 -119.499s16.666 -58.333 30.999 -78s33.166 -33.667 56.499 -42s52 -12.5 86 -12.5
c17.333 0 36.666 1 57.999 3v256h140v-363c-43.333 -7.33301 -82.166 -13 -116.499 -17s-66.166 -6 -95.499 -6z" />
    <glyph glyph-name="gacute" unicode="&#x1f5;" horiz-adv-x="572" 
d="M244 618l67 187h154l-113 -196zM247 -220c-29.333 0 -59.165 2.00098 -89.498 6.00098s-59.5 9.66699 -87.5 17l10 111c53.333 -13.333 102.666 -20 147.999 -20c48 0 84.167 11.167 108.5 33.5s36.833 61.166 37.5 116.499v35h-6c-32 -44 -79 -66 -141 -66
c-64.667 0 -113.167 20 -145.5 60s-48.5 102 -48.5 186c0 96 23 168.333 69 217s111.667 73 197 73c30.667 0 63 -2.5 97 -7.5s75 -13.833 123 -26.5v-445c0 -50.667 -6.16699 -94.167 -18.5 -130.5s-30.333 -66.333 -54 -90s-52.334 -41.167 -86.001 -52.5
s-71.5 -17 -113.5 -17zM275.001 116.001c30 0 53 10.667 69 32s24 57.333 24 108v180c-20.667 6.66699 -45 10 -73 10c-20 0 -37 -2.83301 -51 -8.5s-25.167 -15 -33.5 -28s-14.5 -30.667 -18.5 -53s-6 -49.833 -6 -82.5c0 -29.333 1.5 -54 4.5 -74s8 -36.333 15 -49
s16.167 -21.667 27.5 -27s25.333 -8 42 -8z" />
    <glyph glyph-name="Aringacute" unicode="&#x1fa;" horiz-adv-x="650" 
d="M0 7l194.999 659.999c-19.333 22.667 -29 50.334 -29 83.001c0 36 10.5 66 31.5 90s49.833 39.333 86.5 46l48 112h156l-82 -127c24.667 -10.667 43.834 -26.5 57.501 -47.5s20.5 -45.5 20.5 -73.5c0 -32.667 -9.66699 -59.667 -29 -81l195 -662v-7h-146l-53 181h-253
l-51 -181h-147v7zM323.999 685.999c21.333 0 38.5 5.83301 51.5 17.5s19.5 27.167 19.5 46.5s-6.5 35 -19.5 47s-30.167 18 -51.5 18s-38.166 -6 -50.499 -18s-18.5 -27.667 -18.5 -47s6.16699 -34.833 18.5 -46.5s29.166 -17.5 50.499 -17.5zM417.999 309.999l-54 195
l-26 99h-26l-26 -99l-54 -195h186z" />
    <glyph glyph-name="aringacute" unicode="&#x1fb;" horiz-adv-x="525" 
d="M173 -5c-46 0 -82.334 13.999 -109.001 41.999s-40 66 -40 114c0 104 65.667 160.333 197 169l103 7v11c0 19.333 -1.33301 35.333 -4 48s-7.66699 22.834 -15 30.501s-17.333 13 -30 16s-29 4.5 -49 4.5c-9.33301 0 -20.5 -0.5 -33.5 -1.5s-26.5 -2.16699 -40.5 -3.5
s-28 -3 -42 -5s-26.333 -4 -37 -6l-10 108c32 5.33301 63.833 9.83301 95.5 13.5s61.834 5.5 90.501 5.5c78.667 0 135.834 -14.167 171.501 -42.5s53.5 -72.833 53.5 -133.5v-372h-124l-12 65h-9c-20.667 -21.333 -44.334 -38.333 -71.001 -51s-55 -19 -85 -19z
M266.999 594.999c-36 0 -65.332 10.333 -87.999 31s-34 47.334 -34 80.001c0 28 8.16699 51.833 24.5 71.5s38.5 32.167 66.5 37.5l59 165h154l-106 -183c31.333 -20.667 47 -51 47 -91c0 -32.667 -11.333 -59.334 -34 -80.001s-52.334 -31 -89.001 -31zM232 103.999
c15.333 0 31.332 3.83105 47.999 11.498s31.334 16.167 44.001 25.5v99l-66 -6c-30.667 -3.33301 -52.167 -10.166 -64.5 -20.499s-18.5 -26.166 -18.5 -47.499c0 -41.333 19 -62 57 -62zM266.999 650.997c18 0 31.833 5 41.5 15s14.5 23.333 14.5 40
c0 17.333 -4.83301 31 -14.5 41s-23.5 15 -41.5 15s-31.667 -5 -41 -15s-14 -23.667 -14 -41s4.83301 -30.833 14.5 -40.5s23.167 -14.5 40.5 -14.5z" />
    <glyph glyph-name="AEacute" unicode="&#x1fc;" horiz-adv-x="869" 
d="M437 801l68 169h155l-113 -177zM-2 7l247 733h578v-127h-276l11 -178h249v-127h-241l11 -181h257v-127h-408l-8 181h-205l-60 -181h-155v7zM256 310h157l-13 314h-39z" />
    <glyph glyph-name="aeacute" unicode="&#x1fd;" horiz-adv-x="816" 
d="M363 618l67 187h154l-113 -196zM577 -10c-44 0 -81.332 7.16504 -111.999 21.498s-55.667 36.5 -75 66.5l-8 1c-40 -29.333 -76.833 -50.666 -110.5 -63.999s-66.834 -20 -99.501 -20c-46 0 -82.167 14 -108.5 42s-39.5 66 -39.5 114c0 104 65.667 160.333 197 169l103 7
v30c0 31.333 -7.5 52.5 -22.5 63.5s-41.5 16.5 -79.5 16.5c-9.33301 0 -20.5 -0.5 -33.5 -1.5s-26.333 -2.16699 -40 -3.5s-27.167 -3 -40.5 -5s-25 -4 -35 -6l-10 108c36 6 69.333 10.667 100 14s60 5 88 5c38 0 69.5 -5.66699 94.5 -17s44.167 -28.333 57.5 -51h8
c37.333 45.333 92.333 68 165 68c138.667 0 208 -82.667 208 -248c0 -18.667 -0.333008 -33.5 -1 -44.5s-2.33398 -22.167 -5.00098 -33.5h-302c2.66699 -42.667 12.334 -73 29.001 -91s44 -27 82 -27c22.667 0 49.167 2.33301 79.5 7s61.5 11.334 93.5 20.001l5 -110
c-26 -9.33301 -56.167 -16.833 -90.5 -22.5s-66.833 -8.5 -97.5 -8.5zM232.001 102.998c14 0 29.168 3.83203 45.501 11.499s33.166 17.5 50.499 29.5c-0.666992 2 -1.16699 7.66699 -1.5 17s-0.666016 19.166 -0.999023 29.499l-1 30
c-0.333008 9.66699 -0.5 16.167 -0.5 19.5l-65 -6c-30.667 -3.33301 -52.334 -10.166 -65.001 -20.499s-19 -26.166 -19 -47.499c0 -42 19 -63 57 -63zM651.002 309.997c-1.33301 46 -8 78.667 -20 98s-32 29 -60 29c-30.667 0 -53.5 -10.167 -68.5 -30.5
s-23.833 -52.5 -26.5 -96.5h175z" />
    <glyph glyph-name="Oslashacute" unicode="&#x1fe;" horiz-adv-x="706" 
d="M96 112c-39.333 62.667 -59 148.333 -59 257c0 254 105.333 381 316 381c79.333 0 144.333 -18.333 195 -55l35 45h114l-87 -113c39.333 -62.667 59 -148.667 59 -258c0 -252.667 -105.333 -379 -316 -379c-79.333 0 -144 18 -194 54l-34 -44h-115zM195 368.999
c0 -23.333 0.500977 -44.833 1.50098 -64.5s3.16699 -37.834 6.5 -54.501l259 334c-24 26.667 -60.333 40 -109 40c-28.667 0 -53 -4.5 -73 -13.5s-36.333 -23.667 -49 -44s-21.834 -46.666 -27.501 -78.999s-8.5 -71.833 -8.5 -118.5zM353.001 116.999
c28.667 0 53.165 4.33301 73.498 13s36.833 23 49.5 43s21.834 46 27.501 78s8.5 71.333 8.5 118s-3 86.667 -9 120l-258 -334c12.667 -13.333 27.834 -23 45.501 -29s38.5 -9 62.5 -9zM290.999 800.999l68 169h155l-113 -177z" />
    <glyph glyph-name="oslashacute" unicode="&#x1ff;" horiz-adv-x="571" 
d="M79 87c-29.333 46.667 -43.998 107.666 -43.998 182.999c0 91.333 20.833 160.833 62.5 208.5s104.5 71.5 188.5 71.5c61.333 0 112.666 -14 153.999 -42l27 32h98l-74 -86c30.667 -47.333 46 -108.666 46 -183.999c0 -91.333 -21 -160.833 -63 -208.5
s-104.667 -71.5 -188 -71.5c-64.667 0 -116.334 14 -155.001 42l-28 -32h-98zM286.002 105.999c20 0 36.333 2.66699 49 8s22.667 14.333 30 27s12.5 29.5 15.5 50.5s4.5 47.167 4.5 78.5c0 10.667 -0.166992 20.667 -0.5 30s-0.833008 18.333 -1.5 27l-169 -197
c15.333 -16 39.333 -24 72 -24zM186.002 269.999v-30.5c0 -9 0.666992 -17.833 2 -26.5l168 197c-14 16 -37.333 24 -70 24c-20 0 -36.5 -2.66699 -49.5 -8s-23.167 -14.333 -30.5 -27s-12.5 -29.5 -15.5 -50.5s-4.5 -47.167 -4.5 -78.5zM227.002 617.999l67 187h154
l-113 -196z" />
    <glyph glyph-name="Adblgrave" unicode="&#x200;" horiz-adv-x="651" 
d="M0 7l210 733h231l210 -733v-7h-147l-53 184h-252l-52 -184h-147v7zM419 307l-56 198l-32 121h-12l-32 -121l-56 -198h188zM192 792l-113 177h134l68 -166zM379 792l-114 177h135l68 -166z" />
    <glyph glyph-name="adblgrave" unicode="&#x201;" horiz-adv-x="525" 
d="M173 -5c-46 0 -82.334 13.999 -109.001 41.999s-40 66 -40 114c0 104 65.667 160.333 197 169l103 7v11c0 19.333 -1.33301 35.333 -4 48s-7.66699 22.834 -15 30.501s-17.333 13 -30 16s-29 4.5 -49 4.5c-9.33301 0 -20.5 -0.5 -33.5 -1.5s-26.5 -2.16699 -40.5 -3.5
s-28 -3 -42 -5s-26.333 -4 -37 -6l-10 108c32 5.33301 63.833 9.83301 95.5 13.5s61.834 5.5 90.501 5.5c78.667 0 135.834 -14.167 171.501 -42.5s53.5 -72.833 53.5 -133.5v-372h-124l-12 65h-9c-20.667 -21.333 -44.334 -38.333 -71.001 -51s-55 -19 -85 -19z
M231.999 103.999c15.333 0 31.332 3.83105 47.999 11.498s31.334 16.167 44.001 25.5v99l-66 -6c-30.667 -3.33301 -52.167 -10.166 -64.5 -20.499s-18.5 -26.166 -18.5 -47.499c0 -41.333 19 -62 57 -62zM136.998 609.997l-115 196h136l66 -186zM329.998 609.997l-115 196
h136l66 -186z" />
    <glyph glyph-name="Ainvertedbreve" unicode="&#x202;" horiz-adv-x="651" 
d="M0 7l210 733h231l210 -733v-7h-147l-53 184h-252l-52 -184h-147v7zM419 307l-56 198l-32 121h-12l-32 -121l-56 -198h188zM410 811c0 34 -6.33398 58.667 -19.001 74s-34 23 -64 23c-31.333 0 -53.166 -7.66699 -65.499 -23s-18.5 -40 -18.5 -74h-103
c0 52 15.167 93.5 45.5 124.5s77.5 46.5 141.5 46.5c62.667 0 109.5 -15.5 140.5 -46.5s46.5 -72.5 46.5 -124.5h-104z" />
    <glyph glyph-name="ainvertedbreve" unicode="&#x203;" horiz-adv-x="525" 
d="M173 -5c-46 0 -82.334 13.999 -109.001 41.999s-40 66 -40 114c0 104 65.667 160.333 197 169l103 7v11c0 19.333 -1.33301 35.333 -4 48s-7.66699 22.834 -15 30.501s-17.333 13 -30 16s-29 4.5 -49 4.5c-9.33301 0 -20.5 -0.5 -33.5 -1.5s-26.5 -2.16699 -40.5 -3.5
s-28 -3 -42 -5s-26.333 -4 -37 -6l-10 108c32 5.33301 63.833 9.83301 95.5 13.5s61.834 5.5 90.501 5.5c78.667 0 135.834 -14.167 171.501 -42.5s53.5 -72.833 53.5 -133.5v-372h-124l-12 65h-9c-20.667 -21.333 -44.334 -38.333 -71.001 -51s-55 -19 -85 -19z
M231.999 103.999c15.333 0 31.332 3.83105 47.999 11.498s31.334 16.167 44.001 25.5v99l-66 -6c-30.667 -3.33301 -52.167 -10.166 -64.5 -20.499s-18.5 -26.166 -18.5 -47.499c0 -41.333 19 -62 57 -62zM83.998 621.997c2 50.667 18 90.167 48 118.5s76.333 42.5 139 42.5
s109 -14 139 -42s46 -67.667 48 -119h-104c0 28.667 -7 49.5 -21 62.5s-34.667 19.5 -62 19.5s-47.833 -6.5 -61.5 -19.5s-21.167 -33.833 -22.5 -62.5h-103z" />
    <glyph glyph-name="Edblgrave" unicode="&#x204;" horiz-adv-x="576" 
d="M64 740h470v-127h-316v-178h283v-126h-283v-182h325v-127h-479v740zM168 792l-113 177h134l68 -166zM355 792l-114 177h135l68 -166z" />
    <glyph glyph-name="edblgrave" unicode="&#x205;" horiz-adv-x="521" 
d="M132 610l-115 196h136l66 -186zM325 610l-115 196h136l66 -186zM282 -9c-83.333 0 -145.835 23 -187.502 69s-62.5 114 -62.5 204c0 94 20.833 165 62.5 213s104.167 72 187.5 72c138.667 0 208 -82.667 208 -248c0 -18 -0.333008 -32.833 -1 -44.5
s-2.33398 -23.167 -5.00098 -34.5h-301c2 -22.667 5.33301 -41.5 10 -56.5s11.334 -27 20.001 -36s19.5 -15.333 32.5 -19s28.833 -5.5 47.5 -5.5c23.333 0 50.333 2.5 81 7.5s61.334 11.833 92.001 20.5l5 -111c-26 -9.33301 -56.167 -16.833 -90.5 -22.5
s-67.166 -8.5 -98.499 -8.5zM275.998 439c-30 0 -52.168 -9.66699 -66.501 -29s-23.166 -52 -26.499 -98h173c-1.33301 46 -8 78.667 -20 98s-32 29 -60 29z" />
    <glyph glyph-name="Einvertedbreve" unicode="&#x206;" horiz-adv-x="576" 
d="M64 740h470v-127h-316v-178h283v-126h-283v-182h325v-127h-479v740zM385 811c0 34 -6.33398 58.667 -19.001 74s-34 23 -64 23c-31.333 0 -53.166 -7.66699 -65.499 -23s-18.5 -40 -18.5 -74h-103c0 52 15.167 93.5 45.5 124.5s77.5 46.5 141.5 46.5
c62.667 0 109.5 -15.5 140.5 -46.5s46.5 -72.5 46.5 -124.5h-104z" />
    <glyph glyph-name="einvertedbreve" unicode="&#x207;" horiz-adv-x="521" 
d="M83 622c2 50.667 18 90.167 48 118.5s76.333 42.5 139 42.5s109 -14 139 -42s46 -67.667 48 -119h-104c0 28.667 -7 49.5 -21 62.5s-34.667 19.5 -62 19.5s-47.833 -6.5 -61.5 -19.5s-21.167 -33.833 -22.5 -62.5h-103zM282 -9c-83.333 0 -145.835 23 -187.502 69
s-62.5 114 -62.5 204c0 94 20.833 165 62.5 213s104.167 72 187.5 72c138.667 0 208 -82.667 208 -248c0 -18 -0.333008 -32.833 -1 -44.5s-2.33398 -23.167 -5.00098 -34.5h-301c2 -22.667 5.33301 -41.5 10 -56.5s11.334 -27 20.001 -36s19.5 -15.333 32.5 -19
s28.833 -5.5 47.5 -5.5c23.333 0 50.333 2.5 81 7.5s61.334 11.833 92.001 20.5l5 -111c-26 -9.33301 -56.167 -16.833 -90.5 -22.5s-67.166 -8.5 -98.499 -8.5zM275.998 439c-30 0 -52.168 -9.66699 -66.501 -29s-23.166 -52 -26.499 -98h173c-1.33301 46 -8 78.667 -20 98
s-32 29 -60 29z" />
    <glyph glyph-name="Idblgrave" unicode="&#x208;" horiz-adv-x="282" 
d="M64 740h154v-740h-154v740zM13 792l-113 177h134l68 -166zM200 792l-114 177h135l68 -166z" />
    <glyph glyph-name="idblgrave" unicode="&#x209;" horiz-adv-x="261" 
d="M1 610l-115 196h136l66 -186zM194 610l-115 196h136l66 -186zM55 540h151v-540h-151v540z" />
    <glyph glyph-name="Iinvertedbreve" unicode="&#x20a;" horiz-adv-x="282" 
d="M64 740h154v-740h-154v740zM226 811c0 34 -6.33398 58.667 -19.001 74s-34 23 -64 23c-31.333 0 -53.166 -7.66699 -65.499 -23s-18.5 -40 -18.5 -74h-103c0 52 15.167 93.5 45.5 124.5s77.5 46.5 141.5 46.5c62.667 0 109.5 -15.5 140.5 -46.5s46.5 -72.5 46.5 -124.5
h-104z" />
    <glyph glyph-name="iinvertedbreve" unicode="&#x20b;" horiz-adv-x="261" 
d="M-35 622c2 50.667 17.168 90.167 45.501 118.5s71.166 42.5 128.499 42.5c58 0 101 -14 129 -42s43.333 -67.667 46 -119h-97c-0.666992 28.667 -7.5 49.5 -20.5 62.5s-32.167 19.5 -57.5 19.5s-44.5 -6.5 -57.5 -19.5s-19.833 -33.833 -20.5 -62.5h-96zM55.001 540h151
v-540h-151v540z" />
    <glyph glyph-name="Odblgrave" unicode="&#x20c;" horiz-adv-x="702" 
d="M351 -10c-210.667 0 -316 126.333 -316 379c0 254 105.333 381 316 381s316 -127 316 -381c0 -252.667 -105.333 -379 -316 -379zM351 117c28.667 0 53 4.33301 73 13s36.333 23 49 43s21.834 46 27.501 78s8.5 71.333 8.5 118s-2.83301 86.167 -8.5 118.5
s-14.834 58.666 -27.501 78.999s-29 35 -49 44s-44.333 13.5 -73 13.5s-53 -4.5 -73 -13.5s-36.333 -23.667 -49 -44s-21.834 -46.666 -27.501 -78.999s-8.5 -71.833 -8.5 -118.5c0 -46 2.83301 -85 8.5 -117s14.834 -58 27.501 -78s29 -34.5 49 -43.5
s44.333 -13.5 73 -13.5zM218 792l-113 177h134l68 -166zM405 792l-114 177h135l68 -166z" />
    <glyph glyph-name="odblgrave" unicode="&#x20d;" horiz-adv-x="565" 
d="M148 610l-115 196h136l66 -186zM341 610l-115 196h136l66 -186zM282 -10c-82 0 -144.333 23.667 -187 71s-64 117 -64 209s21.333 161.667 64 209s105 71 187 71c82.667 0 145.167 -23.667 187.5 -71s63.5 -117 63.5 -209s-21.167 -161.667 -63.5 -209
s-104.833 -71 -187.5 -71zM282 106c18.667 0 34.334 2.66699 47.001 8s23 14.166 31 26.499s13.667 29 17 50s5 47.5 5 79.5s-1.66699 58.5 -5 79.5s-9 37.667 -17 50s-18.333 21.166 -31 26.499s-28.334 8 -47.001 8s-34.334 -2.66699 -47.001 -8
s-22.834 -14.166 -30.501 -26.499s-13.167 -29 -16.5 -50s-5 -47.5 -5 -79.5s1.66699 -58.5 5 -79.5s8.83301 -37.667 16.5 -50s17.834 -21.166 30.501 -26.499s28.334 -8 47.001 -8z" />
    <glyph glyph-name="Oinvertedbreve" unicode="&#x20e;" horiz-adv-x="702" 
d="M351 -10c-210.667 0 -316 126.333 -316 379c0 254 105.333 381 316 381s316 -127 316 -381c0 -252.667 -105.333 -379 -316 -379zM351 117c28.667 0 53 4.33301 73 13s36.333 23 49 43s21.834 46 27.501 78s8.5 71.333 8.5 118s-2.83301 86.167 -8.5 118.5
s-14.834 58.666 -27.501 78.999s-29 35 -49 44s-44.333 13.5 -73 13.5s-53 -4.5 -73 -13.5s-36.333 -23.667 -49 -44s-21.834 -46.666 -27.501 -78.999s-8.5 -71.833 -8.5 -118.5c0 -46 2.83301 -85 8.5 -117s14.834 -58 27.501 -78s29 -34.5 49 -43.5
s44.333 -13.5 73 -13.5zM434 811c0 34 -6.33398 58.667 -19.001 74s-34 23 -64 23c-31.333 0 -53.166 -7.66699 -65.499 -23s-18.5 -40 -18.5 -74h-103c0 52 15.167 93.5 45.5 124.5s77.5 46.5 141.5 46.5c62.667 0 109.5 -15.5 140.5 -46.5s46.5 -72.5 46.5 -124.5h-104z
" />
    <glyph glyph-name="oinvertedbreve" unicode="&#x20f;" horiz-adv-x="565" 
d="M100 622c2 50.667 18 90.167 48 118.5s76.333 42.5 139 42.5s109 -14 139 -42s46 -67.667 48 -119h-104c0 28.667 -7 49.5 -21 62.5s-34.667 19.5 -62 19.5s-47.833 -6.5 -61.5 -19.5s-21.167 -33.833 -22.5 -62.5h-103zM282 -10c-82 0 -144.333 23.667 -187 71
s-64 117 -64 209s21.333 161.667 64 209s105 71 187 71c82.667 0 145.167 -23.667 187.5 -71s63.5 -117 63.5 -209s-21.167 -161.667 -63.5 -209s-104.833 -71 -187.5 -71zM282 106c18.667 0 34.334 2.66699 47.001 8s23 14.166 31 26.499s13.667 29 17 50s5 47.5 5 79.5
s-1.66699 58.5 -5 79.5s-9 37.667 -17 50s-18.333 21.166 -31 26.499s-28.334 8 -47.001 8s-34.334 -2.66699 -47.001 -8s-22.834 -14.166 -30.501 -26.499s-13.167 -29 -16.5 -50s-5 -47.5 -5 -79.5s1.66699 -58.5 5 -79.5s8.83301 -37.667 16.5 -50
s17.834 -21.166 30.501 -26.499s28.334 -8 47.001 -8z" />
    <glyph glyph-name="Rdblgrave" unicode="&#x210;" horiz-adv-x="631" 
d="M328 255c-8.66699 -0.666992 -17.333 -1.16602 -26 -1.49902s-17.667 -0.5 -27 -0.5h-11.5h-16.5c-6 0 -11.667 0.166992 -17 0.5s-9.33301 0.5 -12 0.5v-254h-154v735c31.333 5.33301 63.333 9.16602 96 11.499s65.667 3.5 99 3.5c118 0 203.667 -19.833 257 -59.5
s80 -103.5 80 -191.5c0 -108 -44 -180.333 -132 -217l155 -282h-165zM285.001 372.001c28.667 0 52.667 2.33301 72 7s35 12 47 22s20.667 23 26 39s8 35.667 8 59s-2.66699 43.166 -8 59.499s-14 29.5 -26 39.5s-27.667 17.167 -47 21.5s-43 6.5 -71 6.5
c-9.33301 0 -20.5 -0.666992 -33.5 -2s-24.5 -2.66602 -34.5 -3.99902v-243c9.33301 -1.33301 20 -2.5 32 -3.5s23.667 -1.5 35 -1.5zM187.001 792.001l-113 177h134l68 -166zM374.001 792.001l-114 177h135l68 -166z" />
    <glyph glyph-name="rdblgrave" unicode="&#x211;" horiz-adv-x="393" 
d="M82 610l-115 196h136l66 -186zM275 610l-115 196h136l66 -186zM54 540l127 -0.000976562l9 -77h6c6.66699 6.66699 15.667 14 27 22s24 16 38 24s28.333 15.667 43 23s28.667 13 42 17h36v-137h-58c-21.333 -3.33301 -43.5 -9.66602 -66.5 -18.999s-40.5 -19 -52.5 -29
v-364h-151v540z" />
    <glyph glyph-name="Rinvertedbreve" unicode="&#x212;" horiz-adv-x="631" 
d="M328 255c-8.66699 -0.666992 -17.333 -1.16602 -26 -1.49902s-17.667 -0.5 -27 -0.5h-11.5h-16.5c-6 0 -11.667 0.166992 -17 0.5s-9.33301 0.5 -12 0.5v-254h-154v735c31.333 5.33301 63.333 9.16602 96 11.499s65.667 3.5 99 3.5c118 0 203.667 -19.833 257 -59.5
s80 -103.5 80 -191.5c0 -108 -44 -180.333 -132 -217l155 -282h-165zM285.001 372.001c28.667 0 52.667 2.33301 72 7s35 12 47 22s20.667 23 26 39s8 35.667 8 59s-2.66699 43.166 -8 59.499s-14 29.5 -26 39.5s-27.667 17.167 -47 21.5s-43 6.5 -71 6.5
c-9.33301 0 -20.5 -0.666992 -33.5 -2s-24.5 -2.66602 -34.5 -3.99902v-243c9.33301 -1.33301 20 -2.5 32 -3.5s23.667 -1.5 35 -1.5zM402.001 811.001c0 34 -6.33398 58.667 -19.001 74s-34 23 -64 23c-31.333 0 -53.166 -7.66699 -65.499 -23s-18.5 -40 -18.5 -74h-103
c0 52 15.167 93.5 45.5 124.5s77.5 46.5 141.5 46.5c62.667 0 109.5 -15.5 140.5 -46.5s46.5 -72.5 46.5 -124.5h-104z" />
    <glyph glyph-name="rinvertedbreve" unicode="&#x213;" horiz-adv-x="392" 
d="M32 622c2 50.667 18 90.167 48 118.5s76.333 42.5 139 42.5s109 -14 139 -42s46 -67.667 48 -119h-104c0 28.667 -7 49.5 -21 62.5s-34.667 19.5 -62 19.5s-47.833 -6.5 -61.5 -19.5s-21.167 -33.833 -22.5 -62.5h-103zM54 540l127 -0.000976562l9 -77h6
c6.66699 6.66699 15.667 14 27 22s24 16 38 24s28.333 15.667 43 23s28.667 13 42 17h36v-137h-58c-21.333 -3.33301 -43.5 -9.66602 -66.5 -18.999s-40.5 -19 -52.5 -29v-364h-151v540z" />
    <glyph glyph-name="Udblgrave" unicode="&#x214;" horiz-adv-x="704" 
d="M352 -10c-54 0 -99.6709 6.16797 -137.004 18.501s-67.666 30.833 -90.999 55.5s-40.166 55.834 -50.499 93.501s-15.5 82.167 -15.5 133.5v449h154v-444c0 -62.667 10.833 -107.834 32.5 -135.501s57.5 -41.5 107.5 -41.5s85.833 13.667 107.5 41
s32.5 72.666 32.5 135.999v444h154v-449c0 -51.333 -5.16699 -95.833 -15.5 -133.5s-27.166 -69 -50.499 -94s-53.666 -43.5 -90.999 -55.5s-83 -18 -137 -18zM214.996 792.001l-113 177h134l68 -166zM401.996 792.001l-114 177h135l68 -166z" />
    <glyph glyph-name="udblgrave" unicode="&#x215;" horiz-adv-x="569" 
d="M152 610l-115 196h136l66 -186zM345 610l-115 196h136l66 -186zM193 -10c-45.333 0 -80.498 12.833 -105.498 38.5s-37.5 61.5 -37.5 107.5v404h151v-357c0 -24.667 4.5 -42.334 13.5 -53.001s23.5 -16 43.5 -16c15.333 0 31.666 3.16699 48.999 9.5s36.333 15.5 57 27.5
v389h151v-540h-127l-9 58h-4l-55.5 -32c-15.667 -8.66699 -30.334 -15.667 -44.001 -21s-27 -9.16602 -40 -11.499s-27.167 -3.5 -42.5 -3.5z" />
    <glyph glyph-name="Uinvertedbreve" unicode="&#x216;" horiz-adv-x="704" 
d="M352 -10c-54 0 -99.6709 6.16797 -137.004 18.501s-67.666 30.833 -90.999 55.5s-40.166 55.834 -50.499 93.501s-15.5 82.167 -15.5 133.5v449h154v-444c0 -62.667 10.833 -107.834 32.5 -135.501s57.5 -41.5 107.5 -41.5s85.833 13.667 107.5 41
s32.5 72.666 32.5 135.999v444h154v-449c0 -51.333 -5.16699 -95.833 -15.5 -133.5s-27.166 -69 -50.499 -94s-53.666 -43.5 -90.999 -55.5s-83 -18 -137 -18zM429.996 811.001c0 34 -6.33398 58.667 -19.001 74s-34 23 -64 23c-31.333 0 -53.166 -7.66699 -65.499 -23
s-18.5 -40 -18.5 -74h-103c0 52 15.167 93.5 45.5 124.5s77.5 46.5 141.5 46.5c62.667 0 109.5 -15.5 140.5 -46.5s46.5 -72.5 46.5 -124.5h-104z" />
    <glyph glyph-name="uinvertedbreve" unicode="&#x217;" horiz-adv-x="569" 
d="M101 622c2 50.667 18 90.167 48 118.5s76.333 42.5 139 42.5s109 -14 139 -42s46 -67.667 48 -119h-104c0 28.667 -7 49.5 -21 62.5s-34.667 19.5 -62 19.5s-47.833 -6.5 -61.5 -19.5s-21.167 -33.833 -22.5 -62.5h-103zM193 -10c-45.333 0 -80.498 12.833 -105.498 38.5
s-37.5 61.5 -37.5 107.5v404h151v-357c0 -24.667 4.5 -42.334 13.5 -53.001s23.5 -16 43.5 -16c15.333 0 31.666 3.16699 48.999 9.5s36.333 15.5 57 27.5v389h151v-540h-127l-9 58h-4l-55.5 -32c-15.667 -8.66699 -30.334 -15.667 -44.001 -21s-27 -9.16602 -40 -11.499
s-27.167 -3.5 -42.5 -3.5z" />
    </font>
</defs>
</svg>
