<?xml version="1.0" standalone="no"?>
<!DOCTYPE svg PUBLIC "-//W3C//DTD SVG 1.1//EN" "http://www.w3.org/Graphics/SVG/1.1/DTD/svg11.dtd" >
<svg>
<metadata>
Created by FontForge 20090914 at Sat Aug  6 10:46:13 2016
 By www-data
Copyright (c) 2012, Impallari Type (www.impallari.com), with Reserved Font Name Encode Sans.
</metadata>
<defs>
<font id="EncodeSansCondensed-Regular" horiz-adv-x="528" >
  <font-face 
    font-family="Encode Sans Condensed"
    font-weight="400"
    font-stretch="normal"
    units-per-em="1000"
    panose-1="2 0 0 0 0 0 0 0 0 0"
    ascent="800"
    descent="-200"
    x-height="540"
    cap-height="740"
    bbox="-90 -220 1435 1030"
    underline-thickness="55"
    underline-position="-57"
    unicode-range="U+000D-U+FB04"
  />
<missing-glyph horiz-adv-x="673" 
d="M89 1030h494v-1250h-494v1250zM512 -152v1115h-352v-1115h352z" />
    <glyph glyph-name="f_f" unicode="ff" horiz-adv-x="616" 
d="M104 472h-87.998v68h89v35c0 44 3.33301 80.5 10 109.5s18.167 52.5 34.5 70.5s38.166 31.333 65.499 40s61.666 14.334 102.999 17.001l4 -63c-28 -2.66699 -51 -6.83398 -69 -12.501s-32.167 -14.5 -42.5 -26.5s-17.5 -28.167 -21.5 -48.5s-6 -45.833 -6 -76.5v-45h114
v-68h-114v-472h-79v472zM411.002 472h-87.998v68h89v35c0 44 3.33301 80.5 10 109.5s18.167 52.5 34.5 70.5s38.166 31.333 65.499 40s61.666 14.334 102.999 17.001l4 -63c-28 -2.66699 -51 -6.83398 -69 -12.501s-32.167 -14.5 -42.5 -26.5s-17.5 -28.167 -21.5 -48.5
s-6 -45.833 -6 -76.5v-45h114v-68h-114v-472h-79v472z" />
    <glyph glyph-name="f_i" unicode="fi" horiz-adv-x="535" 
d="M429 658c-33.333 0 -50 16.667 -50 50c0 32.667 16.667 49 50 49c34 0 51 -16.333 51 -49c0 -33.333 -17 -50 -51 -50zM390 540h78v-540h-78v540zM104 472h-87.998v68h89v35c0 44 3.33301 80.5 10 109.5s18.167 52.5 34.5 70.5s38.166 31.333 65.499 40
s61.666 14.334 102.999 17.001l4 -63c-28 -2.66699 -51 -6.83398 -69 -12.501s-32.167 -14.5 -42.5 -26.5s-17.5 -28.167 -21.5 -48.5s-6 -45.833 -6 -76.5v-45h114v-68h-114v-472h-79v472z" />
    <glyph glyph-name="f_l" unicode="fl" horiz-adv-x="536" 
d="M104 472h-87.998v68h89v35c0 44 3.33301 80.5 10 109.5s18.167 52.5 34.5 70.5s38.166 31.333 65.499 40s61.666 14.334 102.999 17.001l4 -63c-28 -2.66699 -51 -6.83398 -69 -12.501s-32.167 -14.5 -42.5 -26.5s-17.5 -28.167 -21.5 -48.5s-6 -45.833 -6 -76.5v-45h114
v-68h-114v-472h-79v472zM389.002 808h79v-808h-79v808z" />
    <glyph glyph-name="f_f_i" unicode="ffi" horiz-adv-x="840" 
d="M733 658c-33.333 0 -50 16.667 -50 50c0 32.667 16.667 49 50 49c34 0 51 -16.333 51 -49c0 -33.333 -17 -50 -51 -50zM694 540h78v-540h-78v540zM409 472h-87.998v68h89v35c0 44 3.33301 80.5 10 109.5s18.167 52.5 34.5 70.5s38.166 31.333 65.499 40
s61.666 14.334 102.999 17.001l4 -63c-28 -2.66699 -51 -6.83398 -69 -12.501s-32.167 -14.5 -42.5 -26.5s-17.5 -28.167 -21.5 -48.5s-6 -45.833 -6 -76.5v-45h114v-68h-114v-472h-79v472zM104.002 472h-87.998v68h89v35c0 44 3.33301 80.5 10 109.5s18.167 52.5 34.5 70.5
s38.166 31.333 65.499 40s61.666 14.334 102.999 17.001l4 -63c-28 -2.66699 -51 -6.83398 -69 -12.501s-32.167 -14.5 -42.5 -26.5s-17.5 -28.167 -21.5 -48.5s-6 -45.833 -6 -76.5v-45h114v-68h-114v-472h-79v472z" />
    <glyph glyph-name="f_f_l" unicode="ffl" horiz-adv-x="841" 
d="M409 472h-87.998v68h89v35c0 44 3.33301 80.5 10 109.5s18.167 52.5 34.5 70.5s38.166 31.333 65.499 40s61.666 14.334 102.999 17.001l4 -63c-28 -2.66699 -51 -6.83398 -69 -12.501s-32.167 -14.5 -42.5 -26.5s-17.5 -28.167 -21.5 -48.5s-6 -45.833 -6 -76.5v-45h114
v-68h-114v-472h-79v472zM694.002 808h79v-808h-79v808zM104.002 472h-87.998v68h89v35c0 44 3.33301 80.5 10 109.5s18.167 52.5 34.5 70.5s38.166 31.333 65.499 40s61.666 14.334 102.999 17.001l4 -63c-28 -2.66699 -51 -6.83398 -69 -12.501s-32.167 -14.5 -42.5 -26.5
s-17.5 -28.167 -21.5 -48.5s-6 -45.833 -6 -76.5v-45h114v-68h-114v-472h-79v472z" />
    <glyph glyph-name="f_b" unicode="fb" horiz-adv-x="847" 
d="M104 472h-87.998v68h89v35c0 44 3.33301 80.5 10 109.5s18.167 52.5 34.5 70.5s38.166 31.333 65.499 40s61.666 14.334 102.999 17.001l4 -63c-28 -2.66699 -51 -6.83398 -69 -12.501s-32.167 -14.5 -42.5 -26.5s-17.5 -28.167 -21.5 -48.5s-6 -45.833 -6 -76.5v-45h114
v-68h-114v-472h-79v472zM560.002 -10c-52 0 -109 8.33398 -171 25.001v793h79v-324c35.333 43.333 84.666 65 147.999 65c62.667 0 109.834 -22.333 141.501 -67s47.5 -112 47.5 -202c0 -41.333 -4.66699 -79.666 -14 -114.999s-23.833 -65.833 -43.5 -91.5
s-45 -45.834 -76 -60.501s-68.167 -22.334 -111.5 -23.001zM563.002 50.001c54 0 94.332 17.833 120.999 53.5s40 92.5 40 170.5c0 74.667 -10.5 128.667 -31.5 162s-53.5 50 -97.5 50c-16.667 0 -32.667 -2.66699 -48 -8s-28.833 -13 -40.5 -23s-21 -22.167 -28 -36.5
s-10.5 -30.5 -10.5 -48.5v-309c32.667 -7.33301 64.334 -11 95.001 -11z" />
    <glyph glyph-name="f_f_b" unicode="ffb" horiz-adv-x="1152" 
d="M409 472h-87.998v68h89v35c0 44 3.33301 80.5 10 109.5s18.167 52.5 34.5 70.5s38.166 31.333 65.499 40s61.666 14.334 102.999 17.001l4 -63c-28 -2.66699 -51 -6.83398 -69 -12.501s-32.167 -14.5 -42.5 -26.5s-17.5 -28.167 -21.5 -48.5s-6 -45.833 -6 -76.5v-45h114
v-68h-114v-472h-79v472zM865.002 -10c-52 0 -109 8.33398 -171 25.001v793h79v-324c35.333 43.333 84.666 65 147.999 65c62.667 0 109.834 -22.333 141.501 -67s47.5 -112 47.5 -202c0 -41.333 -4.66699 -79.666 -14 -114.999s-23.833 -65.833 -43.5 -91.5
s-45 -45.834 -76 -60.501s-68.167 -22.334 -111.5 -23.001zM868.002 50.001c54 0 94.332 17.833 120.999 53.5s40 92.5 40 170.5c0 74.667 -10.5 128.667 -31.5 162s-53.5 50 -97.5 50c-16.667 0 -32.667 -2.66699 -48 -8s-28.833 -13 -40.5 -23s-21 -22.167 -28 -36.5
s-10.5 -30.5 -10.5 -48.5v-309c32.667 -7.33301 64.334 -11 95.001 -11zM104.001 472.001h-87.998v68h89v35c0 44 3.33301 80.5 10 109.5s18.167 52.5 34.5 70.5s38.166 31.333 65.499 40s61.666 14.334 102.999 17.001l4 -63c-28 -2.66699 -51 -6.83398 -69 -12.501
s-32.167 -14.5 -42.5 -26.5s-17.5 -28.167 -21.5 -48.5s-6 -45.833 -6 -76.5v-45h114v-68h-114v-472h-79v472z" />
    <glyph glyph-name="f_f_h" unicode="ffh" horiz-adv-x="1149" 
d="M695 808l78.001 0.000976562v-327c40 23.333 74.667 40.666 104 51.999s57.666 17 84.999 17c42.667 0 74 -11.333 94 -34s30 -59.334 30 -110.001v-406h-78v384c0 34.667 -6 59.334 -18 74.001s-30.667 22 -56 22c-22.667 0 -47.5 -4.83301 -74.5 -14.5
s-55.833 -23.5 -86.5 -41.5v-424h-78v808zM409.001 472.001h-87.998v68h89v35c0 44 3.33301 80.5 10 109.5s18.167 52.5 34.5 70.5s38.166 31.333 65.499 40s61.666 14.334 102.999 17.001l4 -63c-28 -2.66699 -51 -6.83398 -69 -12.501s-32.167 -14.5 -42.5 -26.5
s-17.5 -28.167 -21.5 -48.5s-6 -45.833 -6 -76.5v-45h114v-68h-114v-472h-79v472zM104.003 472.001h-87.998v68h89v35c0 44 3.33301 80.5 10 109.5s18.167 52.5 34.5 70.5s38.166 31.333 65.499 40s61.666 14.334 102.999 17.001l4 -63
c-28 -2.66699 -51 -6.83398 -69 -12.501s-32.167 -14.5 -42.5 -26.5s-17.5 -28.167 -21.5 -48.5s-6 -45.833 -6 -76.5v-45h114v-68h-114v-472h-79v472z" />
    <glyph glyph-name="f_f_j" unicode="ffj" horiz-adv-x="843" 
d="M410 472h-87.998v68h89v35c0 44 3.33301 80.5 10 109.5s18.167 52.5 34.5 70.5s38.166 31.333 65.499 40s61.666 14.334 102.999 17.001l4 -63c-28 -2.66699 -51 -6.83398 -69 -12.501s-32.167 -14.5 -42.5 -26.5s-17.5 -28.167 -21.5 -48.5s-6 -45.833 -6 -76.5v-45h114
v-68h-114v-472h-79v472zM738.002 658c-34 0 -51 16.667 -51 50c0 32.667 17 49 51 49s51 -16.333 51 -49c0 -33.333 -17 -50 -51 -50zM632.002 -197c23.333 44.667 40.5 92.1689 51.5 142.502s16.5 107.166 16.5 170.499v32v77v99.5v100.5
c0 31.333 -0.166992 57.666 -0.5 78.999s-0.5 33.333 -0.5 36h79v-453c-0.666992 -53.333 -9 -106.833 -25 -160.5s-38 -102.5 -66 -146.5zM104.002 472.002h-87.998v68h89v35c0 44 3.33301 80.5 10 109.5s18.167 52.5 34.5 70.5s38.166 31.333 65.499 40
s61.666 14.334 102.999 17.001l4 -63c-28 -2.66699 -51 -6.83398 -69 -12.501s-32.167 -14.5 -42.5 -26.5s-17.5 -28.167 -21.5 -48.5s-6 -45.833 -6 -76.5v-45h114v-68h-114v-472h-79v472z" />
    <glyph glyph-name="f_f_k" unicode="ffk" horiz-adv-x="1109" 
d="M695 808h78v-501h76l158 233h87l-176 -253l-16 -9v-2l17 -10l192 -266h-88l-176 248h-74v-248h-78v808zM409 472h-87.998v68h89v35c0 44 3.33301 80.5 10 109.5s18.167 52.5 34.5 70.5s38.166 31.333 65.499 40s61.666 14.334 102.999 17.001l4 -63
c-28 -2.66699 -51 -6.83398 -69 -12.501s-32.167 -14.5 -42.5 -26.5s-17.5 -28.167 -21.5 -48.5s-6 -45.833 -6 -76.5v-45h114v-68h-114v-472h-79v472zM104.002 472h-87.998v68h89v35c0 44 3.33301 80.5 10 109.5s18.167 52.5 34.5 70.5s38.166 31.333 65.499 40
s61.666 14.334 102.999 17.001l4 -63c-28 -2.66699 -51 -6.83398 -69 -12.501s-32.167 -14.5 -42.5 -26.5s-17.5 -28.167 -21.5 -48.5s-6 -45.833 -6 -76.5v-45h114v-68h-114v-472h-79v472z" />
    <glyph glyph-name="f_f_t" unicode="fft" horiz-adv-x="959" 
d="M409 472h-87.998v68h89v35c0 44 3.33301 80.5 10 109.5s18.167 52.5 34.5 70.5s38.166 31.333 65.499 40s61.666 14.334 102.999 17.001l4 -63c-28 -2.66699 -51 -6.83398 -69 -12.501s-32.167 -14.5 -42.5 -26.5s-17.5 -28.167 -21.5 -48.5s-6 -45.833 -6 -76.5v-45h114
v-68h-114v-472h-79v472zM864.002 -6c-96 0 -144 49 -144 147v329h-101v70h105l11 135l63 10v-145h144v-70h-144v-314c0 -64.667 28.333 -97 85 -97c8 0 17.333 0.5 28 1.5s21 3.16699 31 6.5v-64c-27.333 -6 -53.333 -9 -78 -9zM104.002 472h-87.998v68h89v35
c0 44 3.33301 80.5 10 109.5s18.167 52.5 34.5 70.5s38.166 31.333 65.499 40s61.666 14.334 102.999 17.001l4 -63c-28 -2.66699 -51 -6.83398 -69 -12.501s-32.167 -14.5 -42.5 -26.5s-17.5 -28.167 -21.5 -48.5s-6 -45.833 -6 -76.5v-45h114v-68h-114v-472h-79v472z" />
    <glyph glyph-name="f_h" unicode="fh" horiz-adv-x="844" 
d="M389 808l78.001 0.000976562v-327c40 23.333 74.667 40.666 104 51.999s57.666 17 84.999 17c42.667 0 74 -11.333 94 -34s30 -59.334 30 -110.001v-406h-78v384c0 34.667 -6 59.334 -18 74.001s-30.667 22 -56 22c-22.667 0 -47.5 -4.83301 -74.5 -14.5
s-55.833 -23.5 -86.5 -41.5v-424h-78v808zM104.001 472.001h-87.998v68h89v35c0 44 3.33301 80.5 10 109.5s18.167 52.5 34.5 70.5s38.166 31.333 65.499 40s61.666 14.334 102.999 17.001l4 -63c-28 -2.66699 -51 -6.83398 -69 -12.501s-32.167 -14.5 -42.5 -26.5
s-17.5 -28.167 -21.5 -48.5s-6 -45.833 -6 -76.5v-45h114v-68h-114v-472h-79v472z" />
    <glyph glyph-name="f_j" unicode="fj" horiz-adv-x="538" 
d="M104 472h-87.998v68h89v35c0 44 3.33301 80.5 10 109.5s18.167 52.5 34.5 70.5s38.166 31.333 65.499 40s61.666 14.334 102.999 17.001l4 -63c-28 -2.66699 -51 -6.83398 -69 -12.501s-32.167 -14.5 -42.5 -26.5s-17.5 -28.167 -21.5 -48.5s-6 -45.833 -6 -76.5v-45h114
v-68h-114v-472h-79v472zM432.002 658c-34 0 -51 16.667 -51 50c0 32.667 17 49 51 49s51 -16.333 51 -49c0 -33.333 -17 -50 -51 -50zM326.002 -197c23.333 44.667 40.5 92.1689 51.5 142.502s16.5 107.166 16.5 170.499v32v77v99.5v100.5
c0 31.333 -0.166992 57.666 -0.5 78.999s-0.5 33.333 -0.5 36h79v-453c-0.666992 -53.333 -9 -106.833 -25 -160.5s-38 -102.5 -66 -146.5z" />
    <glyph glyph-name="f_k" unicode="fk" horiz-adv-x="804" 
d="M389 808h78v-501h76l158 233h87l-176 -253l-16 -9v-2l17 -10l192 -266h-88l-176 248h-74v-248h-78v808zM104 472h-87.998v68h89v35c0 44 3.33301 80.5 10 109.5s18.167 52.5 34.5 70.5s38.166 31.333 65.499 40s61.666 14.334 102.999 17.001l4 -63
c-28 -2.66699 -51 -6.83398 -69 -12.501s-32.167 -14.5 -42.5 -26.5s-17.5 -28.167 -21.5 -48.5s-6 -45.833 -6 -76.5v-45h114v-68h-114v-472h-79v472z" />
    <glyph glyph-name="f_t" unicode="ft" horiz-adv-x="653" 
d="M104 472h-87.998v68h89v35c0 44 3.33301 80.5 10 109.5s18.167 52.5 34.5 70.5s38.166 31.333 65.499 40s61.666 14.334 102.999 17.001l4 -63c-28 -2.66699 -51 -6.83398 -69 -12.501s-32.167 -14.5 -42.5 -26.5s-17.5 -28.167 -21.5 -48.5s-6 -45.833 -6 -76.5v-45h114
v-68h-114v-472h-79v472zM559.002 -6c-96 0 -144 49 -144 147v329h-101v70h105l11 135l63 10v-145h144v-70h-144v-314c0 -64.667 28.333 -97 85 -97c8 0 17.333 0.5 28 1.5s21 3.16699 31 6.5v-64c-27.333 -6 -53.333 -9 -78 -9z" />
    <glyph glyph-name=".notdef" horiz-adv-x="673" 
d="M89 1030h494v-1250h-494v1250zM512 -152v1115h-352v-1115h352z" />
    <glyph glyph-name="NULL" horiz-adv-x="0" 
 />
    <glyph glyph-name="NULL" horiz-adv-x="0" 
 />
    <glyph glyph-name="nonmarkingreturn" unicode="&#xd;" horiz-adv-x="282" 
 />
    <glyph glyph-name="space" unicode=" " horiz-adv-x="207" 
 />
    <glyph glyph-name="exclam" unicode="!" horiz-adv-x="229" 
d="M117 2c-15.333 0 -27.5 4.16699 -36.5 12.5s-13.5 20.166 -13.5 35.499s4.5 27.333 13.5 36s21.167 13 36.5 13s27.5 -4.33301 36.5 -13s13.5 -20.667 13.5 -36s-4.5 -27.166 -13.5 -35.499s-21.167 -12.5 -36.5 -12.5zM89 195l-16 535v10h82v-10l-15 -535v-13h-51v13z
" />
    <glyph glyph-name="quotedbl" unicode="&#x22;" horiz-adv-x="335" 
d="M128 808v-4l-26 -324h-41v328h67zM286 808v-4l-26 -324h-41v328h67z" />
    <glyph glyph-name="numbersign" unicode="#" horiz-adv-x="510" 
d="M295 230h-113l-18 -230h-60l18 230h-78v57h83l13 166h-96v57h101l19 230h60l-19 -230h113l19 230h61l-19 -230h86v-57h-91l-13 -166h104v-57h-109l-18 -230h-62zM187 287h112l14 166h-113z" />
    <glyph glyph-name="dollar" unicode="$" horiz-adv-x="509" 
d="M237 -13c-30.667 0.666992 -64.333 4.16895 -101 10.502s-69.334 14.166 -98.001 23.499l4 69c12.667 -4.66699 27.334 -9 44.001 -13s33.667 -7.5 51 -10.5s34.666 -5.33301 51.999 -7s33.333 -2.5 48 -2.5c50.667 0 89.5 11.333 116.5 34s40.5 55 40.5 97
c0 20 -3.5 37.5 -10.5 52.5s-17.167 28.333 -30.5 40s-29.833 22.167 -49.5 31.5s-42.167 18.666 -67.5 27.999c-32 11.333 -59.667 23.166 -83 35.499s-42.833 26.666 -58.5 42.999s-27.167 35.166 -34.5 56.499s-11 46.333 -11 75c0 54 16 98.833 48 134.5
s76.333 57.5 133 65.5v136h71v-134c44 -2 92.333 -9.33301 145 -22l-4 -68c-30 7.33301 -58.833 12.833 -86.5 16.5s-52.167 5.5 -73.5 5.5c-46.667 0 -83.667 -12 -111 -36s-41 -56.667 -41 -98c0 -18 2.83301 -33.667 8.5 -47s14.834 -25.666 27.501 -36.999
s28.667 -21.666 48 -30.999s42.666 -19 69.999 -29c30.667 -11.333 58 -23.333 82 -36s44 -27.167 60 -43.5s28.167 -35.5 36.5 -57.5s12.5 -48 12.5 -78c0 -54.667 -14.667 -99.167 -44 -133.5s-70.666 -56.166 -123.999 -65.499v-138h-70v133z" />
    <glyph glyph-name="percent" unicode="%" horiz-adv-x="860" 
d="M198 282c-53.333 0 -93.668 19.667 -121.001 59s-41 97.666 -41 174.999c0 76.667 13.833 134.834 41.5 174.501s67.834 59.5 120.501 59.5c54 0 94.5 -19.833 121.5 -59.5s40.5 -97.834 40.5 -174.501c0 -77.333 -13.5 -135.666 -40.5 -174.999s-67.5 -59 -121.5 -59z
M197.998 340c65.333 0 98 58.667 98 176s-32.667 176 -98 176c-66 0 -99 -58.667 -99 -176s33 -176 99 -176zM662.998 -12c-53.333 0 -93.833 19.667 -121.5 59s-41.5 97.666 -41.5 174.999c0 76.667 13.833 134.834 41.5 174.501s68.167 59.5 121.5 59.5
s93.666 -19.833 120.999 -59.5s41 -97.834 41 -174.501c0 -77.333 -13.667 -135.666 -41 -174.999s-67.666 -59 -120.999 -59zM662.998 46c65.333 0 98 58.667 98 176s-32.667 176 -98 176c-66 0 -99 -58.667 -99 -176s33 -176 99 -176zM536.998 740h70l-288 -740h-71z" />
    <glyph glyph-name="ampersand" unicode="&#x26;" horiz-adv-x="642" 
d="M286 -11c-37.333 0 -70.8311 5 -100.498 15s-55 24.333 -76 43s-37 41.334 -48 68.001s-16.5 57 -16.5 91c0 46 10.167 85.333 30.5 118s50.166 57.667 89.499 75c-18 24 -30.833 48.833 -38.5 74.5s-11.5 54.167 -11.5 85.5c0 63.333 17.5 111.333 52.5 144
s85.833 49 152.5 49c24.667 0 50 -2.83301 76 -8.5s54.667 -14.834 86 -27.501v-5l-13 -57h-6c-52 22 -98 33 -138 33c-88 0 -132 -45 -132 -135c0 -24 3.5 -46.333 10.5 -67s18.167 -40.667 33.5 -60s35.166 -38.833 59.499 -58.5s53.5 -40.5 87.5 -62.5l102 -65
c2.66699 15.333 4.66699 31.5 6 48.5s2 35.167 2 54.5v69l72 3v-72c0 -27.333 -1.33301 -52.833 -4 -76.5s-6.66699 -46.167 -12 -67.5l77 -48v-6l-31 -59h-7l-64 42c-44 -92 -123.667 -138 -239 -138zM349.002 243c-30.667 20 -57.6689 38.833 -81.002 56.5
s-43.666 35.167 -60.999 52.5c-55.333 -30 -83 -77.333 -83 -142c0 -48 14.833 -86 44.5 -114s70.167 -42 121.5 -42c86.667 0 145.334 37.333 176.001 112z" />
    <glyph glyph-name="quotesingle" unicode="'" horiz-adv-x="176" 
d="M128 808v-4l-26 -324h-41v328h67z" />
    <glyph glyph-name="parenleft" unicode="(" horiz-adv-x="280" 
d="M194 -160c-50.667 74 -89 154.834 -115 242.501s-39 178.167 -39 271.5s13 183.833 39 271.5s64.333 168.5 115 242.5h70v-4c-50 -72.667 -88.5 -152.5 -115.5 -239.5s-40.5 -177.167 -40.5 -270.5c0 -94 13.5 -184.333 40.5 -271s65.5 -166.334 115.5 -239.001v-4h-70v0
z" />
    <glyph glyph-name="parenright" unicode=")" horiz-adv-x="280" 
d="M16 -160v3.99902c50 72.667 88.5 152.334 115.5 239.001s40.5 177 40.5 271c0 93.333 -13.5 183.5 -40.5 270.5s-65.5 166.833 -115.5 239.5v4h70c50.667 -74 89 -154.833 115 -242.5s39 -178.167 39 -271.5s-13 -183.833 -39 -271.5s-64.333 -168.5 -115 -242.5h-70z
" />
    <glyph glyph-name="asterisk" unicode="*" horiz-adv-x="482" 
d="M99 485l47 66l74 76l-104 16l-76 25l17 54l78 -25l93 -47l-16 105v81h58v-81l-17 -105l94 47l78 25l17 -54l-77 -25l-104 -16l74 -76l48 -66l-45 -32l-48 65l-50 95l-48 -95l-48 -65z" />
    <glyph glyph-name="plus" unicode="+" horiz-adv-x="480" 
d="M44 401h166v169h61v-169h166v-61h-166v-170h-61v170h-166v61z" />
    <glyph glyph-name="comma" unicode="," horiz-adv-x="208" 
d="M24 -145l45 241h82l-66 -251z" />
    <glyph glyph-name="hyphen" unicode="-" horiz-adv-x="375" 
d="M59 313h257v-66h-257v66z" />
    <glyph glyph-name="period" unicode="." horiz-adv-x="212" 
d="M106 -3c-34.667 0 -52 16.666 -52 49.999c0 34 17.333 51 52 51c16.667 0 29.667 -4.16699 39 -12.5s14 -21.166 14 -38.499c0 -33.333 -17.667 -50 -53 -50z" />
    <glyph glyph-name="slash" unicode="/" horiz-adv-x="320" 
d="M219 740h71l-188 -861h-72z" />
    <glyph glyph-name="zero" unicode="0" horiz-adv-x="582" 
d="M291 -10c-80 0 -140.5 31.667 -181.5 95s-61.5 158 -61.5 284s20.5 221 61.5 285s101.5 96 181.5 96c79.333 0 139.5 -32 180.5 -96s61.5 -159 61.5 -285c0 -125.333 -20.5 -219.833 -61.5 -283.5s-101.167 -95.5 -180.5 -95.5zM291 59
c54.667 0 95.334 25.334 122.001 76.001s40 128.667 40 234s-13.5 183.666 -40.5 234.999s-67.5 77 -121.5 77c-108 0 -162 -104 -162 -312c0 -105.333 13.167 -183.333 39.5 -234s67.166 -76 122.499 -76z" />
    <glyph glyph-name="one" unicode="1" horiz-adv-x="355" 
d="M189 643h-3l-140 -85h-10l-18 43l1 9l194 130h57v-740h-81v643z" />
    <glyph glyph-name="two" unicode="2" horiz-adv-x="474" 
d="M41 99c0 30.667 3.33203 58.501 9.99902 83.501s17.334 48.667 32.001 71s33 43.666 55 63.999s48.667 40.833 80 61.5c46.667 31.333 79.667 60.5 99 87.5s29 57.5 29 91.5c0 80.667 -44.667 121 -134 121c-40.667 0 -88 -8.33301 -142 -25l-11 69
c32.667 9.33301 62.834 16 90.501 20s54.167 6 79.5 6c131.333 0 197 -61.333 197 -184c0 -24 -2.83301 -46 -8.5 -66s-14.834 -39.333 -27.501 -58s-28.667 -37 -48 -55s-43 -36.333 -71 -55c-27.333 -20 -50.5 -38.667 -69.5 -56s-34.333 -34.333 -46 -51
s-20.167 -34 -25.5 -52s-8 -37.333 -8 -58v-44h305v-69h-386v98z" />
    <glyph glyph-name="three" unicode="3" horiz-adv-x="453" 
d="M172 -9c-41.333 0 -82.333 4.66797 -123 14.001v64h6c14 -4 31 -7.16699 51 -9.5s39 -3.5 57 -3.5c53.333 0 93.833 12.167 121.5 36.5s41.5 59.5 41.5 105.5c0 50.667 -14.5 88.5 -43.5 113.5s-73.833 37.5 -134.5 37.5h-35v63h34c52.667 0 92.334 11.667 119.001 35
s40 57.666 40 102.999c0 89.333 -46.333 134 -139 134c-14 0 -30.167 -1 -48.5 -3s-38.5 -5.33301 -60.5 -10h-7l-5 63c21.333 5.33301 43 9.33301 65 12s43.333 4 64 4c68.667 0 121.167 -16.167 157.5 -48.5s54.5 -79.5 54.5 -141.5c0 -46 -10.333 -83.833 -31 -113.5
s-50.334 -50.167 -89.001 -61.5v-4c46 -10 80.833 -31 104.5 -63s35.5 -73.667 35.5 -125c0 -64 -20.5 -113.5 -61.5 -148.5s-98.833 -52.833 -173.5 -53.5z" />
    <glyph glyph-name="four" unicode="4" horiz-adv-x="529" 
d="M20 222v5l245 523h6l70 -11l3 -6l-238 -487v-4h231l23 262h57v-262h87v-65h-87v-177h-80v177h-299z" />
    <glyph glyph-name="five" unicode="5" horiz-adv-x="451" 
d="M173 -12c-38 0 -79.999 5 -125.999 15v66h18c38.667 -8 72.667 -12 102 -12c108.667 0 163 53 163 159c0 27.333 -3.83301 50.5 -11.5 69.5s-19.667 34.5 -36 46.5s-37.5 20.833 -63.5 26.5s-57.333 8.5 -94 8.5l-61 1l-6 5l27 367h296v-69h-233l-16 -240
c50 -0.666992 92.667 -5 128 -13s64.166 -20.5 86.499 -37.5s38.833 -39.167 49.5 -66.5s16 -60.333 16 -99c0 -75.333 -21.167 -132 -63.5 -170s-100.833 -57 -175.5 -57z" />
    <glyph glyph-name="six" unicode="6" horiz-adv-x="541" 
d="M283 -11c-77.333 0 -135.834 28.333 -175.501 85s-59.5 141.334 -59.5 254.001c0 67.333 6.5 127.333 19.5 180s32.333 97 58 133s57 63.333 94 82s79.5 28 127.5 28c18 0 36.5 -1.33301 55.5 -4s39.167 -7 60.5 -13l-6 -67c-21.333 6 -40.5 10.333 -57.5 13
s-34.167 4 -51.5 4c-66.667 0 -118.5 -25.667 -155.5 -77s-58.5 -125.666 -64.5 -222.999c23.333 22 49.666 39.167 78.999 51.5s59 18.5 89 18.5c32 0 60.833 -5 86.5 -15s47.667 -24.333 66 -43s32.333 -41.5 42 -68.5s14.5 -57.167 14.5 -90.5
c0 -37.333 -5.16699 -71.333 -15.5 -102s-25.166 -56.834 -44.499 -78.501s-42.666 -38.334 -69.999 -50.001s-58 -17.5 -92 -17.5zM281.999 392c-26 0 -53.1699 -6.66699 -81.5029 -20s-53.166 -31 -74.499 -53c0.666992 -90 13.834 -156.333 39.501 -199
s64.834 -64 117.501 -64c44 0 78.667 16.167 104 48.5s38 76.5 38 132.5c0 50 -12.333 88.333 -37 115s-60 40 -106 40z" />
    <glyph glyph-name="seven" unicode="7" horiz-adv-x="411" 
d="M147 -13l-64 13v14l231 655h-287l-4 62l7 9h349l14 -44v-27l-229 -670z" />
    <glyph glyph-name="eight" unicode="8" horiz-adv-x="536" 
d="M268 -4c-69.333 0 -123.499 16.499 -162.499 49.499s-58.5 79.5 -58.5 139.5c0 26 3.16699 49.333 9.5 70s15 39 26 55s23.833 30 38.5 42s30.667 22.333 48 31c-32 17.333 -57.167 39.833 -75.5 67.5s-27.5 64.5 -27.5 110.5c0 60 18.333 106.333 55 139s86 49 148 49
c62.667 0 111.667 -16.167 147 -48.5s53 -78.833 53 -139.5c0 -48 -9.33301 -86.167 -28 -114.5s-43.667 -51.166 -75 -68.499c37.333 -17.333 67.166 -40.333 89.499 -69s33.5 -67.667 33.5 -117c0 -61.333 -19.5 -109.333 -58.5 -144s-93.167 -52 -162.5 -52z
M231.001 355.999c-30.667 -15.333 -56.501 -35.332 -77.501 -59.999s-31.5 -59.334 -31.5 -104.001c0 -43.333 13.333 -76.833 40 -100.5s62 -35.5 106 -35.5s79.333 11.5 106 34.5s40 55.167 40 96.5c0 23.333 -3.33301 43.5 -10 60.5s-16.667 31.667 -30 44
s-29.666 22.833 -48.999 31.5s-41.333 16.667 -66 24zM140 557c0 -22 3.50098 -40.998 10.501 -56.998s17.167 -30 30.5 -42s29.666 -22.333 48.999 -31s41 -16.334 65 -23.001l3 -1c28.667 13.333 52.167 32.166 70.5 56.499s27.5 57.5 27.5 99.5s-11.333 74 -34 96
s-54 33 -94 33c-39.333 0 -70.5 -11.167 -93.5 -33.5s-34.5 -54.833 -34.5 -97.5z" />
    <glyph glyph-name="nine" unicode="9" horiz-adv-x="541" 
d="M258 751c77.333 0 135.834 -28.333 175.501 -85s59.5 -141.334 59.5 -254.001c0 -67.333 -6.5 -127.333 -19.5 -180s-32.333 -97 -58 -133s-57 -63.333 -94 -82s-79.5 -28 -127.5 -28c-18 0 -36.5 1.33301 -55.5 4s-39.167 7 -60.5 13l6 67
c21.333 -6 40.5 -10.333 57.5 -13s34.167 -4 51.5 -4c66.667 0 118.5 25.667 155.5 77s58.5 125.666 64.5 222.999c-23.333 -22 -49.666 -39.167 -78.999 -51.5s-59 -18.5 -89 -18.5c-32 0 -60.833 5 -86.5 15s-47.667 24.333 -66 43s-32.333 41.5 -42 68.5
s-14.5 57.167 -14.5 90.5c0 37.333 5.16699 71.333 15.5 102s25.166 56.834 44.499 78.501s42.666 38.334 69.999 50.001s58 17.5 92 17.5zM259.001 348c26 0 53.1699 6.66699 81.5029 20s53.166 31 74.499 53c-0.666992 90 -13.834 156.333 -39.501 199
s-64.834 64 -117.501 64c-44 0 -78.667 -16.167 -104 -48.5s-38 -76.5 -38 -132.5c0 -50 12.333 -88.333 37 -115s60 -40 106 -40z" />
    <glyph glyph-name="colon" unicode=":" horiz-adv-x="219" 
d="M110 -3c-34.667 0 -52 16.666 -52 49.999c0 34 17.333 51 52 51c16.667 0 29.667 -4.16699 39 -12.5s14 -21.166 14 -38.499c0 -33.333 -17.667 -50 -53 -50zM110 442.999c-34.667 0 -52 16.666 -52 49.999c0 34 17.333 51 52 51c16.667 0 29.667 -4.16699 39 -12.5
s14 -21.166 14 -38.499c0 -33.333 -17.667 -50 -53 -50z" />
    <glyph glyph-name="semicolon" unicode=";" horiz-adv-x="243" 
d="M43 -145l45 241h82l-66 -251zM127 443c-34.667 0 -52 16.666 -52 49.999c0 34 17.333 51 52 51c16.667 0 29.667 -4.16699 39 -12.5s14 -21.166 14 -38.499c0 -33.333 -17.667 -50 -53 -50z" />
    <glyph glyph-name="less" unicode="&#x3c;" horiz-adv-x="500" 
d="M41 338v57l397 175v-67l-313 -138l311 -136v-67z" />
    <glyph glyph-name="equal" unicode="=" horiz-adv-x="509" 
d="M62 280h385v-63h-385v63zM62 494h385v-62h-385v62z" />
    <glyph glyph-name="greater" unicode="&#x3e;" horiz-adv-x="500" 
d="M64 229l310 136l-312 138v67l397 -175v-57l-395 -176v67z" />
    <glyph glyph-name="question" unicode="?" horiz-adv-x="415" 
d="M129 196l-5.00098 190.007c20.667 5.33301 41.667 11.666 63 18.999s40.833 17.166 58.5 29.499s32.167 27.666 43.5 45.999s17 41.166 17 68.499c0 25.333 -4 46.666 -12 63.999s-18.5 31.166 -31.5 41.499s-27.833 17.833 -44.5 22.5s-33.667 7 -51 7
c-21.333 0 -43.166 -2.16699 -65.499 -6.5s-43.166 -9.83301 -62.499 -16.5l-10 63c22 7.33301 45.667 13.5 71 18.5s51.333 7.5 78 7.5s52.5 -3.33301 77.5 -10s46.833 -17.834 65.5 -33.501s33.667 -36 45 -61s17 -55.5 17 -91.5c0 -34 -5.83301 -63 -17.5 -87
s-26.834 -44.167 -45.501 -60.5s-39.5 -29.5 -62.5 -39.5s-45.833 -18 -68.5 -24l-1 -147v-18h-59v18zM159.999 -1.99316c-16 0 -28.333 4.33301 -37 13s-13 20.667 -13 36c0 32.667 16.667 49 50 49c15.333 0 27.666 -4.33301 36.999 -13s14 -20.667 14 -36
s-4.66699 -27.333 -14 -36s-21.666 -13 -36.999 -13z" />
    <glyph glyph-name="at" unicode="@" horiz-adv-x="815" 
d="M396 -136c-46.667 0 -91.1689 7.16895 -133.502 21.502s-79.666 37.5 -111.999 69.5s-58.166 73.167 -77.499 123.5s-29 111.5 -29 183.5c0 66.667 9.16699 125.834 27.5 177.501s44 95 77 130s72.667 61.5 119 79.5s97.5 27 153.5 27c60 0 111.667 -8.66699 155 -26
s78.833 -42 106.5 -74s48.167 -70.833 61.5 -116.5s20 -96.5 20 -152.5c0 -78 -13.833 -140 -41.5 -186s-69.167 -69 -124.5 -69c-27.333 0 -50.166 6.5 -68.499 19.5s-29.5 36.5 -33.5 70.5h-5c-9.33301 -14.667 -20.166 -27.334 -32.499 -38.001s-25.333 -19.5 -39 -26.5
s-27.167 -12.167 -40.5 -15.5s-26 -5 -38 -5c-23.333 0 -43.333 4.66699 -60 14s-30.167 22 -40.5 38s-18 34.5 -23 55.5s-7.5 43.167 -7.5 66.5c0 38 5.5 73 16.5 105s26.667 59.667 47 83s44.833 41.666 73.5 54.999s60.667 20 96 20c37.333 0 84.333 -11.333 141 -34
l-36 -210c-2.66699 -13.333 -5 -26.5 -7 -39.5s-3 -25.5 -3 -37.5c0 -20.667 4.5 -37.5 13.5 -50.5s25.167 -19.5 48.5 -19.5c35.333 0 61.833 18.167 79.5 54.5s26.5 86.166 26.5 149.499c0 48 -5.5 91.5 -16.5 130.5s-28 72 -51 99s-52.5 47.833 -88.5 62.5
s-79 22 -129 22c-47.333 0 -90.666 -7.83301 -129.999 -23.5s-73 -38.667 -101 -69s-49.833 -67.833 -65.5 -112.5s-23.5 -96 -23.5 -154c0 -62.667 8 -115.834 24 -159.501s37.667 -79.167 65 -106.5s58.666 -47.166 93.999 -59.499s72.666 -18.5 111.999 -18.5
c28.667 0 58.667 3 90 9s63 14.333 95 25l19 -50c-34 -11.333 -68.333 -20.5 -103 -27.5s-68.334 -10.5 -101.001 -10.5zM347.998 109.002c12.667 0 26.667 2.66797 42 8.00098s30 13.833 44 25.5s26.333 27.167 37 46.5s18.334 43 23.001 71l28 168
c-30 9.33301 -56.333 14 -79 14c-26.667 0 -50.834 -5.33301 -72.501 -16s-40.167 -25.334 -55.5 -44.001s-27.166 -41 -35.499 -67s-12.5 -54 -12.5 -84c0 -16 1.5 -31.333 4.5 -46s7.66699 -27.667 14 -39s14.666 -20.333 24.999 -27s22.833 -10 37.5 -10z" />
    <glyph glyph-name="A" unicode="A" horiz-adv-x="595" 
d="M7 6l232 734h116l233 -734v-6h-77l-73 224h-283l-71 -224h-77v6zM420 292l-84 264l-35 116h-8l-35 -116l-84 -264h246z" />
    <glyph glyph-name="B" unicode="B" horiz-adv-x="592" 
d="M285 -10c-16 0 -33 0.333008 -51 1s-36.167 1.66699 -54.5 3s-36.166 3 -53.499 5s-33.333 4 -48 6v731c44.667 4.66699 81.667 8.16699 111 10.5s57.666 3.5 84.999 3.5c88 0 152.333 -16.167 193 -48.5s61 -82.833 61 -151.5c0 -46 -10.333 -83.833 -31 -113.5
s-50 -48.5 -88 -56.5v-4c44.667 -7.33301 79.5 -26.833 104.5 -58.5s37.5 -72.5 37.5 -122.5c0 -68.667 -22.333 -120 -67 -154s-111 -51 -199 -51zM290 53c118.667 0.666992 178.001 49.332 178.001 145.999c0 50.667 -14.5 87.334 -43.5 110.001s-76.5 34 -142.5 34h-128
v-281c6 -1.33301 14 -2.5 24 -3.5s21.167 -1.83301 33.5 -2.5l38.5 -2c13.333 -0.666992 26.666 -1 39.999 -1zM280.001 404.998c30 0 55.501 2.5 76.501 7.5s38 13.167 51 24.5s22.5 25.833 28.5 43.5s9 39.5 9 65.5c0 48 -13.167 83.167 -39.5 105.5
s-68.5 33.5 -126.5 33.5c-23.333 0 -44.833 -0.5 -64.5 -1.5s-39.834 -3.16699 -60.501 -6.5v-272h126z" />
    <glyph glyph-name="C" unicode="C" horiz-adv-x="522" 
d="M360 -10c-107.333 0.666992 -186.499 31.668 -237.499 93.001s-76.5 156.666 -76.5 285.999c0 66 6.16699 123 18.5 171s31.333 87.5 57 118.5s58.167 53.833 97.5 68.5s86 22 140 22c18.667 0 39 -1.16699 61 -3.5s44.667 -5.5 68 -9.5v-68
c-19.333 3.33301 -39.333 6 -60 8s-40.334 3 -59.001 3c-42.667 0 -79.167 -5.5 -109.5 -16.5s-55.333 -28.833 -75 -53.5s-34 -56.667 -43 -96s-13.5 -87.333 -13.5 -144c0 -54.667 4.66699 -101.5 14 -140.5s23.5 -71 42.5 -96s43.333 -43.333 73 -55
s65.167 -17.5 106.5 -17.5c7.33301 0 16.333 0.333008 27 1s21.667 1.5 33 2.5s22.5 2.33301 33.5 4s21.167 3.5 30.5 5.5v-67c-17.333 -5.33301 -37 -9.33301 -59 -12s-45 -4 -69 -4z" />
    <glyph glyph-name="D" unicode="D" horiz-adv-x="633" 
d="M225 -14c-26 0 -51.3311 0.833008 -75.998 2.5s-48.334 4.16699 -71.001 7.5v739c34 5.33301 65.833 9.16602 95.5 11.499s56.167 3.5 79.5 3.5c116 0 200.833 -30.667 254.5 -92s80.5 -157.666 80.5 -288.999c0 -67.333 -7 -125 -21 -173s-35.833 -87.667 -65.5 -119
s-67.334 -54.333 -113.001 -69s-100.167 -22 -163.5 -22zM247.002 55c88.667 0 153.834 25.002 195.501 75.002s62.5 129.667 62.5 239c0 55.333 -4.66699 102.666 -14 141.999s-23.833 71.666 -43.5 96.999s-45 43.833 -76 55.5s-68.167 17.5 -111.5 17.5
c-16.667 0 -33.834 -0.666992 -51.501 -2s-34.5 -3.33301 -50.5 -6v-612c18 -2 33.833 -3.5 47.5 -4.5s27.5 -1.5 41.5 -1.5z" />
    <glyph glyph-name="E" unicode="E" horiz-adv-x="542" 
d="M78 740h415v-69h-335v-262h305v-69h-305v-271h344v-69h-424v740z" />
    <glyph glyph-name="F" unicode="F" horiz-adv-x="511" 
d="M78 740h402v-69h-322v-268h297v-69h-297v-334h-80v740z" />
    <glyph glyph-name="G" unicode="G" horiz-adv-x="591" 
d="M363 -10c-109.333 0.666992 -189.498 31.667 -240.498 93s-76.5 156.666 -76.5 285.999c0 131.333 26.333 227.5 79 288.5s135.667 91.5 249 91.5c21.333 0 46 -1.66699 74 -5s55.667 -8 83 -14v-69c-30.667 6.66699 -58 11.334 -82 14.001s-46.667 4 -68 4
c-45.333 0 -84 -5.66699 -116 -17s-58.167 -29.5 -78.5 -54.5s-35.166 -57 -44.499 -96s-14 -86.5 -14 -142.5c0 -54 4.66699 -100.5 14 -139.5s23.666 -71 42.999 -96s44 -43.5 74 -55.5s66 -18 108 -18c11.333 0 25.166 0.666992 41.499 2s33.166 3.33301 50.499 6v308h75
v-366c-33.333 -6.66699 -63.833 -11.667 -91.5 -15s-54.167 -5 -79.5 -5z" />
    <glyph glyph-name="H" unicode="H" horiz-adv-x="672" 
d="M78 740h80v-327h355v327h80v-740h-80v343h-355v-343h-80v740z" />
    <glyph glyph-name="I" unicode="I" horiz-adv-x="237" 
d="M78 740h80v-740h-80v740z" />
    <glyph glyph-name="J" unicode="J" horiz-adv-x="237" 
d="M-1 -159c16 34.667 29.1699 65.667 39.5029 93s18.666 54 24.999 80s10.666 52.667 12.999 80s3.5 57.666 3.5 90.999v555h80v-560c0 -32 -2 -62.833 -6 -92.5s-10.333 -59.167 -19 -88.5s-19.834 -59.166 -33.501 -89.499s-30.167 -62.5 -49.5 -96.5z" />
    <glyph glyph-name="K" unicode="K" horiz-adv-x="598" 
d="M78 740h80v-328h104l221 328h93l-226 -333l-32 -26v-5l34 -24l243 -352h-92l-236 342h-109v-342h-80v740z" />
    <glyph glyph-name="L" unicode="L" horiz-adv-x="450" 
d="M78 740h80v-671h279v-69h-359v740z" />
    <glyph glyph-name="M" unicode="M" horiz-adv-x="840" 
d="M78 740h110l188 -493l41 -121h6l41 121l188 493h110v-740h-76v620h-6l-50 -140l-172 -448h-77l-172 448l-51 140h-5v-620h-75v740z" />
    <glyph glyph-name="N" unicode="N" horiz-adv-x="695" 
d="M78 740h73l338 -521l48 -84h6v605h74v-740h-74l-336 518l-49 88l-6 -1v-605h-74v740z" />
    <glyph glyph-name="O" unicode="O" horiz-adv-x="658" 
d="M328 -10c-93.333 0 -163.666 31.5 -210.999 94.5s-71 157.833 -71 284.5c0 128 23.667 223.5 71 286.5s117.666 94.5 210.999 94.5c94 0 164.833 -31.5 212.5 -94.5s71.5 -158.5 71.5 -286.5c0 -126.667 -23.833 -221.5 -71.5 -284.5s-118.5 -94.5 -212.5 -94.5zM328 60
c70.667 0 122 24.668 154 74.001s48 127.666 48 234.999s-16.333 186.166 -49 236.499s-83.667 75.5 -153 75.5s-120.166 -25 -152.499 -75s-48.5 -129 -48.5 -237c0 -107.333 16.167 -185.666 48.5 -234.999s83.166 -74 152.499 -74z" />
    <glyph glyph-name="P" unicode="P" horiz-adv-x="567" 
d="M78 735c57.333 10.667 112.667 16.002 166 16.002c100.667 0 174.5 -20.333 221.5 -61s70.5 -105.334 70.5 -194.001s-23.667 -153.334 -71 -194.001s-122.333 -61 -225 -61c-26 0 -53.333 1 -82 3v-244h-80v735zM253.001 309.002c71.333 0 122.667 14.667 154 44
s47 77 47 143s-15.333 113.5 -46 142.5s-81 43.5 -151 43.5c-15.333 0 -31.666 -0.666992 -48.999 -2s-34 -3.33301 -50 -6v-358l46 -4.5c17.333 -1.66699 33.666 -2.5 48.999 -2.5z" />
    <glyph glyph-name="Q" unicode="Q" horiz-adv-x="655" 
d="M583 -111c-100 18 -184.332 38.1689 -252.999 60.502s-124.167 51.5 -166.5 87.5s-72.833 80.5 -91.5 133.5s-28 119.167 -28 198.5c0 254 94 381 282 381c94.667 0 165.667 -31.833 213 -95.5s71 -158.834 71 -285.501c0 -116 -22 -204.167 -66 -264.5
s-109 -92.5 -195 -96.5v-7c38 -11.333 77.667 -20.333 119 -27s88.666 -12.334 141.999 -17.001zM326.001 59.002c68.667 0 119.667 25 153 75s50 128.333 50 235c0 108 -16.333 187.167 -49 237.5s-84 75.5 -154 75.5c-69.333 0 -120.166 -25 -152.499 -75
s-48.5 -129.333 -48.5 -238c0 -108 16.167 -186.667 48.5 -236s83.166 -74 152.499 -74z" />
    <glyph glyph-name="R" unicode="R" horiz-adv-x="582" 
d="M321 276c-12 -1.33301 -24.3311 -2.33301 -36.998 -3s-25.667 -1 -39 -1c-12.667 0 -26.834 0.5 -42.501 1.5s-30.5 2.16699 -44.5 3.5v-277h-80v735c55.333 10.667 110.666 16 165.999 16c101.333 0 175.333 -19.167 222 -57.5s70 -99.166 70 -182.499
c0 -58.667 -11.5 -105.834 -34.5 -141.501s-58.833 -61.5 -107.5 -77.5l157 -292h-87zM253.002 339c71.333 0 122.667 13.332 154 39.999s47 70.667 47 132c0 60.667 -15.333 104.334 -46 131.001s-81 40 -151 40c-13.333 0 -28.833 -0.666992 -46.5 -2
s-35.167 -3.33301 -52.5 -6v-328c14 -2 29.5 -3.66699 46.5 -5s33.167 -2 48.5 -2z" />
    <glyph glyph-name="S" unicode="S" horiz-adv-x="507" 
d="M244 -13c-15.333 0 -31.999 0.834961 -49.999 2.50195s-36.167 4 -54.5 7s-36.333 6.5 -54 10.5s-33.834 8.66699 -48.501 14l4 69c12.667 -4.66699 27.334 -9 44.001 -13s33.667 -7.5 51 -10.5s34.666 -5.33301 51.999 -7s33.333 -2.5 48 -2.5
c50.667 0 89.5 11.333 116.5 34s40.5 55 40.5 97c0 20 -3.5 37.5 -10.5 52.5s-17.167 28.333 -30.5 40s-29.833 22.167 -49.5 31.5s-42.167 18.666 -67.5 27.999c-32 11.333 -59.667 23.166 -83 35.499s-42.833 26.666 -58.5 42.999s-27.167 35.166 -34.5 56.499
s-11 46.333 -11 75c0 30.667 5.33301 58.5 16 83.5s26 46.333 46 64s44 31.334 72 41.001s59.333 14.5 94 14.5c25.333 0 51.833 -1.83301 79.5 -5.5s57.5 -9.5 89.5 -17.5l-4 -68c-30 7.33301 -58.833 12.833 -86.5 16.5s-52.167 5.5 -73.5 5.5
c-46.667 0 -83.667 -12 -111 -36s-41 -56.667 -41 -98c0 -18 2.83301 -33.667 8.5 -47s14.834 -25.666 27.501 -36.999s28.667 -21.666 48 -30.999s42.666 -19 69.999 -29c30.667 -11.333 58 -23.333 82 -36s44 -27.167 60 -43.5s28.167 -35.5 36.5 -57.5s12.5 -48 12.5 -78
c0 -64.667 -20.167 -114.834 -60.5 -150.501s-96.833 -53.5 -169.5 -53.5z" />
    <glyph glyph-name="T" unicode="T" horiz-adv-x="517" 
d="M218 669h-203v71h487v-71h-203v-669h-81v669z" />
    <glyph glyph-name="U" unicode="U" horiz-adv-x="673" 
d="M336 -10c-47.333 0 -87.667 5.83301 -121 17.5s-60.5 29.834 -81.5 54.501s-36.5 56.167 -46.5 94.5s-15 83.833 -15 136.5v447h80v-445c0 -83.333 14.833 -143.333 44.5 -180s76.167 -55 139.5 -55c64 0 110.833 18.333 140.5 55s44.5 96.667 44.5 180v445h81v-447
c0 -52.667 -5 -98.167 -15 -136.5s-25.667 -69.833 -47 -94.5s-48.833 -42.834 -82.5 -54.501s-74.167 -17.5 -121.5 -17.5z" />
    <glyph glyph-name="V" unicode="V" horiz-adv-x="601" 
d="M6 740h81l172 -525l38 -135h7l40 135l171 525h80l-240 -740h-108z" />
    <glyph glyph-name="W" unicode="W" horiz-adv-x="918" 
d="M16 740h86l119 -512l28 -130h7l30 130l133 512h86l126 -512l29 -130h7l30 130l125 512h86l-193 -740h-101l-127 507l-23 120h-6l-24 -121l-133 -506h-102z" />
    <glyph glyph-name="X" unicode="X" horiz-adv-x="596" 
d="M246 377l-231 363h92l181 -289l10 -20h4l10 20l180 289h89l-233 -363l244 -377h-92l-192 303l-10 18h-4l-9 -18l-189 -303h-90z" />
    <glyph glyph-name="Y" unicode="Y" horiz-adv-x="572" 
d="M247 248l-246 492h88l169 -352l24 -59h8l24 59l170 352h87l-244 -489v-251h-80v248z" />
    <glyph glyph-name="Z" unicode="Z" horiz-adv-x="513" 
d="M30 64l348 600v5h-339v71h435v-63l-349 -601v-6h357v-70h-452v64z" />
    <glyph glyph-name="bracketleft" unicode="[" horiz-adv-x="302" 
d="M77 868h197v-59h-130v-910h130v-59h-197v1028z" />
    <glyph glyph-name="backslash" unicode="\" horiz-adv-x="316" 
d="M30 740h67l188 -860h-66z" />
    <glyph glyph-name="bracketright" unicode="]" horiz-adv-x="302" 
d="M28 -160v59h130v910h-130v59h196v-1028h-196z" />
    <glyph glyph-name="asciicircum" unicode="^" horiz-adv-x="399" 
d="M168 789h62l127 -308h-58l-98 246h-4l-98 -246h-58z" />
    <glyph glyph-name="underscore" unicode="_" horiz-adv-x="524" 
d="M45 -60h434v-64h-434v64z" />
    <glyph glyph-name="grave" unicode="`" horiz-adv-x="236" 
d="M129 612l-97 191h83l71 -181z" />
    <glyph glyph-name="a" unicode="a" horiz-adv-x="474" 
d="M166 -5c-42 0 -74.833 12.502 -98.5 37.502s-35.5 59.833 -35.5 104.5c0 50.667 15.667 89.5 47 116.5s80.333 43.167 147 48.5l107 8v51c0 45.333 -8.66699 77.166 -26 95.499s-48 27.5 -92 27.5c-18 0 -39.833 -1.5 -65.5 -4.5s-50.167 -7.16699 -73.5 -12.5l-7 63
c58.667 11.333 112 17 160 17c62.667 0 108.667 -13.833 138 -41.5s44 -70.834 44 -129.501v-376h-65l-8 66h-6c-24.667 -19.333 -51 -36 -79 -50s-57 -21 -87 -21zM193 58.002c11.333 0 23.1689 2.00098 35.502 6.00098s24.666 9 36.999 15s24.166 12.5 35.499 19.5
l32 19.5v138l-89 -8c-48 -4.66699 -82 -14.834 -102 -30.501s-30 -40.5 -30 -74.5c0 -56.667 27 -85 81 -85z" />
    <glyph glyph-name="b" unicode="b" horiz-adv-x="524" 
d="M237 -10c-52 0 -109 8.33398 -171 25.001v793h79v-324c35.333 43.333 84.666 65 147.999 65c62.667 0 109.834 -22.333 141.501 -67s47.5 -112 47.5 -202c0 -41.333 -4.66699 -79.666 -14 -114.999s-23.833 -65.833 -43.5 -91.5s-45 -45.834 -76 -60.501
s-68.167 -22.334 -111.5 -23.001zM240 50.001c54 0 94.332 17.833 120.999 53.5s40 92.5 40 170.5c0 74.667 -10.5 128.667 -31.5 162s-53.5 50 -97.5 50c-16.667 0 -32.667 -2.66699 -48 -8s-28.833 -13 -40.5 -23s-21 -22.167 -28 -36.5s-10.5 -30.5 -10.5 -48.5v-309
c32.667 -7.33301 64.334 -11 95.001 -11z" />
    <glyph glyph-name="c" unicode="c" horiz-adv-x="413" 
d="M273 -10c-78 0 -136 22.833 -174 68.5s-57 116.167 -57 211.5c0 186.667 77 280 231 280c29.333 0 63.666 -4.66699 102.999 -14v-66c-17.333 4 -33.833 6.83301 -49.5 8.5s-31.167 2.5 -46.5 2.5c-54 0 -93.667 -16.833 -119 -50.5s-38 -87.167 -38 -160.5
c0 -72.667 12.5 -126.167 37.5 -160.5s64.5 -51.5 118.5 -51.5c15.333 0 30.5 1 45.5 3s32.167 5 51.5 9v-66c-14.667 -4 -31.167 -7.33301 -49.5 -10s-36.166 -4 -53.499 -4z" />
    <glyph glyph-name="d" unicode="d" horiz-adv-x="525" 
d="M233 -9c-64 0 -111.833 22.333 -143.5 67s-47.5 113.667 -47.5 207s21 164 63 212s101 72 177 72c16 0 31.667 -0.666992 47 -2s32.333 -3.33301 51 -6v267h78v-808h-70l-7 58h-4c-33.333 -44.667 -81.333 -67 -144 -67zM252 53c16.667 0 32.667 2.66699 48 8
s29 13.166 41 23.499s21.5 22.833 28.5 37.5s10.5 31.334 10.5 50.001v306c-18 3.33301 -34.833 6 -50.5 8s-32.167 3 -49.5 3c-52 0 -91.333 -17.5 -118 -52.5s-40 -90.167 -40 -165.5c0 -74.667 10.833 -129.667 32.5 -165s54.167 -53 97.5 -53z" />
    <glyph glyph-name="e" unicode="e" horiz-adv-x="480" 
d="M265 -9c-72.667 0 -127.999 23.168 -165.999 69.501s-57 113.166 -57 200.499c0 94 18.5 165.5 55.5 214.5s91.5 73.5 163.5 73.5c60 0 105 -19.833 135 -59.5s45 -98.5 45 -176.5c0 -16.667 -0.5 -30.5 -1.5 -41.5s-2.16699 -21.5 -3.5 -31.5h-315
c3.33301 -63.333 17.166 -109.833 41.499 -139.5s60.5 -44.5 108.5 -44.5c44.667 0 92.667 10 144 30l5 -64c-22 -9.33301 -46.667 -16.833 -74 -22.5s-54.333 -8.5 -81 -8.5zM259.001 486.001c-84 0 -129.668 -62 -137.001 -186h246
c-1.33301 66 -10.666 113.5 -27.999 142.5s-44.333 43.5 -81 43.5z" />
    <glyph glyph-name="f" unicode="f" horiz-adv-x="310" 
d="M104 472h-87.998v68h89v35c0 44 3.33301 80.5 10 109.5s18.167 52.5 34.5 70.5s38.166 31.333 65.499 40s61.666 14.334 102.999 17.001l4 -63c-28 -2.66699 -51 -6.83398 -69 -12.501s-32.167 -14.5 -42.5 -26.5s-17.5 -28.167 -21.5 -48.5s-6 -45.833 -6 -76.5v-45h114
v-68h-114v-472h-79v472z" />
    <glyph glyph-name="g" unicode="g" horiz-adv-x="524" 
d="M232 -220c-25.333 0 -50.666 1.99902 -75.999 5.99902s-49.666 9.66699 -72.999 17l7 65c46.667 -16 91.667 -24 135 -24c51.333 0 90.166 14.833 116.499 44.5s39.833 80.167 40.5 151.5v26h-4c-33.333 -44.667 -81.333 -67 -144 -67
c-64.667 0 -112.834 21.667 -144.501 65s-47.5 110.666 -47.5 201.999c0 92.667 21 163 63 211s101 72 177 72c29.333 0 58 -1.83301 86 -5.5s58.333 -10.167 91 -19.5v-464c0 -50.667 -5 -93.667 -15 -129s-24.833 -64.166 -44.5 -86.499s-43.5 -38.666 -71.5 -48.999
s-60 -15.5 -96 -15.5zM252 59.999c16.667 0 32.668 2.66699 48.001 8s29 13 41 23s21.5 22 28.5 36s10.5 30 10.5 48v303c-18.667 3.33301 -35.667 6 -51 8s-31.333 3 -48 3c-52 0 -91.333 -17.5 -118 -52.5s-40 -89.833 -40 -164.5c0 -72.667 10.667 -126.167 32 -160.5
s53.666 -51.5 96.999 -51.5z" />
    <glyph glyph-name="h" unicode="h" horiz-adv-x="522" 
d="M67 808l78.001 0.000976562v-327c40 23.333 74.667 40.666 104 51.999s57.666 17 84.999 17c42.667 0 74 -11.333 94 -34s30 -59.334 30 -110.001v-406h-78v384c0 34.667 -6 59.334 -18 74.001s-30.667 22 -56 22c-22.667 0 -47.5 -4.83301 -74.5 -14.5
s-55.833 -23.5 -86.5 -41.5v-424h-78v808z" />
    <glyph glyph-name="i" unicode="i" horiz-adv-x="214" 
d="M107 658c-33.333 0 -50 16.667 -50 50c0 32.667 16.667 49 50 49c34 0 51 -16.333 51 -49c0 -33.333 -17 -50 -51 -50zM68 540h78v-540h-78v540z" />
    <glyph glyph-name="j" unicode="j" horiz-adv-x="212" 
d="M106 658c-34 0 -51 16.667 -51 50c0 32.667 17 49 51 49s51 -16.333 51 -49c0 -33.333 -17 -50 -51 -50zM0 -197c23.333 44.667 40.5 92.1689 51.5 142.502s16.5 107.166 16.5 170.499v32v77v99.5v100.5c0 31.333 -0.166992 57.666 -0.5 78.999s-0.5 33.333 -0.5 36h79
v-453c-0.666992 -53.333 -9 -106.833 -25 -160.5s-38 -102.5 -66 -146.5z" />
    <glyph glyph-name="k" unicode="k" horiz-adv-x="481" 
d="M67 808h78v-501h76l158 233h87l-176 -253l-16 -9v-2l17 -10l192 -266h-88l-176 248h-74v-248h-78v808z" />
    <glyph glyph-name="l" unicode="l" horiz-adv-x="216" 
d="M69 808h79v-808h-79v808z" />
    <glyph glyph-name="m" unicode="m" horiz-adv-x="805" 
d="M67 540h63.9971l6 -60h4c36 24 68.167 41.667 96.5 53s55.5 17 81.5 17c60 0 97.667 -23.667 113 -71h5c36 25.333 68.333 43.5 97 54.5s56.334 16.5 83.001 16.5c42.667 0 74 -11.333 94 -34s30 -59.334 30 -110.001v-406h-78v384c0 34 -6 58.5 -18 73.5
s-30.667 22.5 -56 22.5c-21.333 0 -44.166 -4.66699 -68.499 -14s-50.166 -22.666 -77.499 -39.999v-426h-78v384c0 34 -6 58.5 -18 73.5s-30.667 22.5 -56 22.5c-21.333 0 -44.333 -4.83301 -69 -14.5s-50.667 -23.167 -78 -40.5v-425h-77v540z" />
    <glyph glyph-name="n" unicode="n" horiz-adv-x="522" 
d="M67 540h66l6 -60h5c40 24.667 74.833 42.5 104.5 53.5s58.5 16.5 86.5 16.5c42 0 73 -11.333 93 -34s30 -59.334 30 -110.001v-406h-78v384c0 34.667 -6 59.334 -18 74.001s-30.667 22 -56 22c-23.333 0 -48.333 -4.83301 -75 -14.5s-55 -23.5 -85 -41.5v-424h-79v540z
" />
    <glyph glyph-name="o" unicode="o" horiz-adv-x="524" 
d="M262 -9c-72.667 0 -127.667 23.667 -165 71s-56 116.666 -56 207.999s18.833 160.833 56.5 208.5s92.5 71.5 164.5 71.5s126.667 -23.833 164 -71.5s56 -117.167 56 -208.5s-18.667 -160.666 -56 -207.999s-92 -71 -164 -71zM262 56c48.667 0 84.167 17 106.5 51
s33.5 88.333 33.5 163s-11.333 129 -34 163s-58 51 -106 51c-48.667 0 -84.167 -17 -106.5 -51s-33.5 -88.333 -33.5 -163s11.167 -129 33.5 -163s57.833 -51 106.5 -51z" />
    <glyph glyph-name="p" unicode="p" horiz-adv-x="525" 
d="M67 540l69.999 0.000976562l5 -57h5c17.333 21.333 38.333 37.666 63 48.999s52.667 17 84 17c62.667 0 109.834 -22.333 141.501 -67s47.5 -112 47.5 -202c0 -42 -4.66699 -80.667 -14 -116s-24 -65.833 -44 -91.5s-45.333 -45.834 -76 -60.501s-67 -22 -109 -22
c-16 0 -32 0.833008 -48 2.5s-31.333 3.83398 -46 6.50098v-219h-79v760zM241.999 51.001c54 0 94.167 17.667 120.5 53s39.5 92 39.5 170c0 74.667 -10.5 128.834 -31.5 162.501s-53.5 50.5 -97.5 50.5c-16.667 0 -32.667 -2.66699 -48 -8s-28.833 -13 -40.5 -23
s-21 -22.333 -28 -37s-10.5 -31.334 -10.5 -50.001v-307c32.667 -7.33301 64.667 -11 96 -11z" />
    <glyph glyph-name="q" unicode="q" horiz-adv-x="524" 
d="M381 58c-36.667 -44.667 -86.001 -67.001 -148.001 -67.001c-127.333 0 -191 91.333 -191 274c0 92 20.833 162.333 62.5 211s101.834 73 180.501 73c30 0 59.667 -1.66699 89 -5s57.333 -8.66602 84 -15.999v-748h-77v278zM251.999 52.999
c17.333 0 33.667 2.83398 49 8.50098s28.833 13.667 40.5 24s20.834 22.833 27.501 37.5s10 31 10 49v306c-21.333 4 -39.333 6.83301 -54 8.5s-29.334 2.5 -44.001 2.5c-54 0 -94 -17.5 -120 -52.5s-39 -89.833 -39 -164.5s10.5 -129.834 31.5 -165.501
s53.833 -53.5 98.5 -53.5z" />
    <glyph glyph-name="r" unicode="r" horiz-adv-x="339" 
d="M67 540h65.998l6 -68h5c20.667 14.667 45.5 29.334 74.5 44.001s58.5 25.667 88.5 33h21v-80h-30c-29.333 -4.66699 -57.166 -11.834 -83.499 -21.501s-49.166 -21.167 -68.499 -34.5v-413h-79v540z" />
    <glyph glyph-name="s" unicode="s" horiz-adv-x="405" 
d="M192 -11c-21.333 0 -43.665 1.83105 -66.998 5.49805s-51.666 9.16699 -84.999 16.5v65c25.333 -7.33301 50.5 -13.166 75.5 -17.499s49.167 -6.5 72.5 -6.5c34 0 60 8 78 24s27 38.667 27 68c0 28 -8 49.333 -24 64s-39.333 25.667 -70 33c-17.333 4 -35 8.5 -53 13.5
s-34.5 12.833 -49.5 23.5s-27.333 25.5 -37 44.5s-14.5 44.5 -14.5 76.5c0 48 15.167 85.5 45.5 112.5s72.5 40.5 126.5 40.5c19.333 0 38.5 -1.16699 57.5 -3.5s44.167 -6.83301 75.5 -13.5l-2 -65c-28.667 6.66699 -51.834 11.334 -69.501 14.001s-34.5 4 -50.5 4
c-34 0 -60.5 -7.66699 -79.5 -23s-28.5 -36.666 -28.5 -63.999c0 -16.667 2.66699 -30.334 8 -41.001s12.666 -19.334 21.999 -26.001s20.333 -12 33 -16s26 -8 40 -12c21.333 -5.33301 41 -11.833 59 -19.5s33.5 -17.5 46.5 -29.5s23 -26.667 30 -44s10.5 -39 10.5 -65
c0 -49.333 -15.833 -88.166 -47.5 -116.499s-74.834 -42.5 -129.501 -42.5z" />
    <glyph glyph-name="t" unicode="t" horiz-adv-x="353" 
d="M259 -6c-96 0 -144 49 -144 147v329h-101v70h105l11 135l63 10v-145h144v-70h-144v-314c0 -64.667 28.333 -97 85 -97c8 0 17.333 0.5 28 1.5s21 3.16699 31 6.5v-64c-27.333 -6 -53.333 -9 -78 -9z" />
    <glyph glyph-name="u" unicode="u" horiz-adv-x="521" 
d="M193 -10c-44 0 -76.667 11.6719 -98 35.0049s-32 59.666 -32 108.999v406h79v-385c0 -35.333 5.5 -59.833 16.5 -73.5s30.5 -20.5 58.5 -20.5c25.333 0 50.5 5.16699 75.5 15.5s52.833 25.166 83.5 44.499v419h79v-540h-67l-6 60h-4
c-20.667 -12.667 -39.334 -23.334 -56.001 -32.001s-32.167 -15.834 -46.5 -21.501s-28.166 -9.83398 -41.499 -12.501s-27 -4 -41 -4z" />
    <glyph glyph-name="v" unicode="v" horiz-adv-x="493" 
d="M14 533v7h82l130 -407l17 -63h8l17 63l131 407h80v-7l-182 -533h-101z" />
    <glyph glyph-name="w" unicode="w" horiz-adv-x="713" 
d="M21 535v5h76l84 -372l16 -78h7l18 78l95 372h79l96 -372l19 -78h7l16 78l83 372h74v-5l-130 -535h-89l-100 374l-12 61h-7l-12 -61l-98 -374h-90z" />
    <glyph glyph-name="x" unicode="x" horiz-adv-x="492" 
d="M11 8l181 272l-171 254v6h84l116 -179l24 -39h5l22 39l115 179h84v-6l-171 -260l181 -266v-8h-84l-125 195l-25 40h-5l-24 -40l-123 -195h-84v8z" />
    <glyph glyph-name="y" unicode="y" horiz-adv-x="497" 
d="M136 -205l-1 7l73 200l-195 531v7h81l135 -387l17 -66h5l18 66l136 387h81v-7l-274 -753z" />
    <glyph glyph-name="z" unicode="z" horiz-adv-x="428" 
d="M32 53l259 416v5h-250v66h346v-51l-259 -417v-5h269v-67h-365v53z" />
    <glyph glyph-name="braceleft" unicode="{" horiz-adv-x="340" 
d="M24 389c24.667 0 43.499 9.00098 56.499 27.001s19.5 44 19.5 78v261c0 42.667 7.66699 72.167 23 88.5s43.333 24.5 84 24.5c6.66699 0 15.334 -0.166992 26.001 -0.5s21.167 -0.833008 31.5 -1.5s19.833 -1.16699 28.5 -1.5s14.334 -0.833008 17.001 -1.5v-54h-90
c-19.333 0 -32.833 -3.66699 -40.5 -11s-11.5 -20.666 -11.5 -39.999v-279c0 -30.667 -6 -56.834 -18 -78.501s-28 -36.167 -48 -43.5c20 -6 36 -19.833 48 -41.5s18 -47.5 18 -77.5v-281c0 -19.333 3.83301 -32.833 11.5 -40.5s21.167 -11.5 40.5 -11.5h90v-54
c-2.66699 -0.666992 -8.16699 -1.33398 -16.5 -2.00098s-17.833 -1.16699 -28.5 -1.5l-32 -1c-10.667 -0.333008 -19.334 -0.5 -26.001 -0.5c-20 0 -36.833 1.83301 -50.5 5.5s-24.667 10 -33 19s-14.333 20.833 -18 35.5s-5.5 32.667 -5.5 54v262c0 34 -6.5 60 -19.5 78
s-31.833 27 -56.5 27v62z" />
    <glyph glyph-name="bar" unicode="|" horiz-adv-x="230" 
d="M152 808v-1028h-75v1028h75z" />
    <glyph glyph-name="braceright" unicode="}" horiz-adv-x="340" 
d="M316 327c-24.667 0 -43.335 -9.00098 -56.002 -27.001s-19 -44 -19 -78v-262c0 -21.333 -1.83301 -39.333 -5.5 -54s-9.66699 -26.5 -18 -35.5s-19.333 -15.333 -33 -19s-30.5 -5.5 -50.5 -5.5c-6.66699 0 -15.334 0.166992 -26.001 0.5l-32 1
c-10.667 0.333008 -20.334 0.833008 -29.001 1.5s-14.334 1.33398 -17.001 2.00098v54h90c20 0 33.833 3.83301 41.5 11.5s11.5 21.167 11.5 40.5v281c0 30 6 55.833 18 77.5s28 35.5 48 41.5c-20 7.33301 -36 21.833 -48 43.5s-18 47.834 -18 78.501v279
c0 19.333 -3.83301 32.666 -11.5 39.999s-21.5 11 -41.5 11h-90v54c2.66699 0.666992 8.33398 1.16699 17.001 1.5s18.334 0.833008 29.001 1.5s21.334 1.16699 32.001 1.5s19.334 0.5 26.001 0.5c40.667 0 68.667 -8.16699 84 -24.5s23 -45.833 23 -88.5v-261
c0 -34 6.33301 -60 19 -78s31.334 -27 56.001 -27v-62z" />
    <glyph glyph-name="asciitilde" unicode="~" horiz-adv-x="557" 
d="M55 284c15.333 18.667 29.334 34.3291 42.001 46.9961s24.5 22.834 35.5 30.501s21.833 13 32.5 16s22 4.5 34 4.5c17.333 0 32.666 -3.83301 45.999 -11.5s26 -16.167 38 -25.5s24 -17.833 36 -25.5s25.333 -11.5 40 -11.5c17.333 0 34.333 6.33301 51 19
s29.667 29 39 49l53 -28c-6.66699 -13.333 -15 -26.166 -25 -38.499s-21 -23.5 -33 -33.5s-24.833 -18 -38.5 -24s-27.834 -9 -42.501 -9c-18 0 -34.167 3.83301 -48.5 11.5s-27.666 16.334 -39.999 26.001s-24 18.334 -35 26.001s-22.5 11.5 -34.5 11.5
c-16.667 0 -32.667 -5.5 -48 -16.5s-33.333 -29.167 -54 -54.5z" />
    <glyph glyph-name="uni00A0" unicode="&#xa0;" horiz-adv-x="207" 
 />
    <glyph glyph-name="exclamdown" unicode="&#xa1;" horiz-adv-x="215" 
d="M110 538c15.333 0 27.5 -4.16699 36.5 -12.5s13.5 -20.166 13.5 -35.499s-4.5 -27.333 -13.5 -36s-21.167 -13 -36.5 -13s-27.5 4.33301 -36.5 13s-13.5 20.667 -13.5 36s4.5 27.166 13.5 35.499s21.167 12.5 36.5 12.5zM82 358h51v-13l15 -535v-10h-82v10l16 535v13z
" />
    <glyph glyph-name="cent" unicode="&#xa2;" horiz-adv-x="430" 
d="M233 -8c-127.333 14.667 -190.998 107.332 -190.998 277.999c0 169.333 63.667 261.666 191 276.999v114h57v-112c13.333 -0.666992 27.166 -2.16699 41.499 -4.5s29.166 -5.16602 44.499 -8.49902v-66c-17.333 4 -33.833 6.83301 -49.5 8.5s-31.167 2.5 -46.5 2.5
c-54 0 -93.667 -16.833 -119 -50.5s-38 -87.167 -38 -160.5c0 -72.667 12.5 -126.167 37.5 -160.5s64.5 -51.5 118.5 -51.5c15.333 0 30.5 1 45.5 3s32.167 5 51.5 9v-66c-12.667 -3.33301 -26.5 -6.16602 -41.5 -8.49902s-29.833 -3.83301 -44.5 -4.5v-110h-57v111z" />
    <glyph glyph-name="sterling" unicode="&#xa3;" horiz-adv-x="556" 
d="M43 401h121.998v127c0 74 15 128.833 45 164.5s79 53.5 147 53.5c43.333 0 96.333 -9.33301 159 -28l-9 -67c-25.333 8 -50.166 14.167 -74.499 18.5s-45.833 6.5 -64.5 6.5c-45.333 0 -77.166 -11.5 -95.499 -34.5s-27.5 -61.5 -27.5 -115.5v-125h183v-65h-183v-265h257
v-71h-459v71h122v265h-122v65z" />
    <glyph glyph-name="currency" unicode="&#xa4;" horiz-adv-x="563" 
d="M49 178l52.998 56l51 35c-14 28 -21 61.667 -21 101s7 73 21 101l-51 36l-53 55l41 40l55 -53l31 -45c26.667 32 62.334 48 107.001 48c42 0 76.667 -15.667 104 -47l31 44l56 53l40 -40l-53 -55l-52 -36c6.66699 -14 11.834 -29.5 15.501 -46.5s5.5 -35.167 5.5 -54.5
s-1.83301 -37.5 -5.5 -54.5s-8.83398 -32.5 -15.501 -46.5l52 -35l53 -56l-40 -40l-56 53l-31 44c-26.667 -32 -62 -48 -106 -48c-43.333 0 -78.666 15.667 -105.999 47l-30 -43l-55 -53zM188.998 370c0 -40.667 8.33301 -72.167 25 -94.5s39 -33.5 67 -33.5
s50.333 11 67 33s25 53.667 25 95c0 42 -8.33301 73.667 -25 95s-39 32 -67 32s-50.333 -10.667 -67 -32s-25 -53 -25 -95z" />
    <glyph glyph-name="yen" unicode="&#xa5;" horiz-adv-x="618" 
d="M99 306h143l-217 434h88l169 -352l24 -59h8l24 59l170 352h87l-217 -434h136v-59h-163v-88h163v-59h-163v-100h-80v100h-172v59h172v88h-172v59z" />
    <glyph glyph-name="brokenbar" unicode="&#xa6;" horiz-adv-x="223" 
d="M73 204h76v-424h-76v424zM73 808h76v-424h-76v424z" />
    <glyph glyph-name="section" unicode="&#xa7;" horiz-adv-x="431" 
d="M204 -11c-20.667 0 -42.6641 1.83398 -65.9971 5.50098s-52 9.16699 -86 16.5v63c25.333 -7.33301 50.666 -12.833 75.999 -16.5s49.333 -5.5 72 -5.5c34 0 60 8 78 24s27 38.667 27 68c0 28 -8 49.333 -24 64s-39.333 25.667 -70 33c-17.333 4 -35 8.5 -53 13.5
s-34.5 12.833 -49.5 23.5s-27.333 25.5 -37 44.5s-14.5 44.5 -14.5 76.5c0 40 11.333 73 34 99c-10.667 10.667 -19 24.167 -25 40.5s-9 37.166 -9 62.499c0 48 15.333 85.5 46 112.5s73 40.5 127 40.5c18.667 0 37.667 -1.33301 57 -4s44 -7.33398 74 -14.001l-1 -64
c-29.333 6.66699 -52.666 11.334 -69.999 14.001s-33.666 4 -48.999 4c-34.667 0 -61.334 -7.66699 -80.001 -23s-28 -36.666 -28 -63.999c0 -16.667 2.66699 -30.334 8 -41.001s12.666 -19.334 21.999 -26.001s20.166 -12.167 32.499 -16.5s25.5 -8.16602 39.5 -11.499
c21.333 -6 41 -12.667 59 -20s33.5 -17 46.5 -29s23 -26.833 30 -44.5s10.5 -39.5 10.5 -65.5c0 -39.333 -11 -72.666 -33 -99.999c22 -24 33 -57.667 33 -101c0 -48.667 -15.833 -87.334 -47.5 -116.001s-74.834 -43 -129.501 -43zM288.003 280.001
c12.667 16.667 19 38 19 64c0 28.667 -7.16699 50.5 -21.5 65.5s-35.5 26.5 -63.5 34.5c-10.667 3.33301 -21.667 6.33301 -33 9s-22 6.66699 -32 12c-17.333 -16 -26 -37 -26 -63c0 -17.333 2.5 -31.333 7.5 -42s11.833 -19.5 20.5 -26.5s18.667 -12.667 30 -17
s23 -8.5 35 -12.5c11.333 -3.33301 22.5 -7 33.5 -11s21.167 -8.33301 30.5 -13z" />
    <glyph glyph-name="dieresis" unicode="&#xa8;" horiz-adv-x="422" 
d="M103 636c-31.333 0 -47 15.333 -47 46c0 30 15.667 45 47 45c30.667 0 46 -15 46 -45c0 -30.667 -15.333 -46 -46 -46zM305 636c-31.333 0 -47 15.333 -47 46c0 30 15.667 45 47 45c30.667 0 46 -15 46 -45c0 -30.667 -15.333 -46 -46 -46z" />
    <glyph glyph-name="copyright" unicode="&#xa9;" horiz-adv-x="831" 
d="M431 163c-56.667 0 -101.665 16.832 -134.998 50.499s-50 84.5 -50 152.5c0 69.333 16.667 121.166 50 155.499s78.333 51.5 135 51.5c15.333 0 30.166 -0.833008 44.499 -2.5s28.166 -4.16699 41.499 -7.5v-53c-13.333 2.66699 -26.833 4.83398 -40.5 6.50098
s-26.834 2.5 -39.501 2.5c-42 0 -74.167 -12.5 -96.5 -37.5s-33.5 -63.167 -33.5 -114.5c0 -52 11.5 -90 34.5 -114s54.5 -36 94.5 -36c12 0 25 0.833008 39 2.5s28.667 3.83398 44 6.50098v-52c-27.333 -7.33301 -56.666 -11 -87.999 -11zM416.002 -11.001
c-56 0 -106.833 9.16699 -152.5 27.5s-84.834 44.166 -117.501 77.499s-57.834 73.333 -75.501 120s-26.5 98.667 -26.5 156c0 56.667 8.83301 108.5 26.5 155.5s42.834 87.167 75.501 120.5s71.834 59.166 117.501 77.499s96.5 27.5 152.5 27.5s106.667 -9.16699 152 -27.5
s84.333 -44.166 117 -77.499s57.834 -73.5 75.501 -120.5s26.5 -98.833 26.5 -155.5c0 -57.333 -8.83301 -109.333 -26.5 -156s-42.834 -86.667 -75.501 -120s-71.667 -59.166 -117 -77.499s-96 -27.5 -152 -27.5zM416.002 40.999c48 0 91.667 7.83301 131 23.5
s72.833 37.834 100.5 66.501s49 63.334 64 104.001s22.5 85.667 22.5 135s-7.5 94.333 -22.5 135s-36.333 75.5 -64 104.5s-61.167 51.333 -100.5 67s-83 23.5 -131 23.5c-48.667 0 -92.5 -7.83301 -131.5 -23.5s-72.333 -38 -100 -67s-49 -63.833 -64 -104.5
s-22.5 -85.667 -22.5 -135s7.5 -94.333 22.5 -135s36.333 -75.334 64 -104.001s61 -50.834 100 -66.501s82.833 -23.5 131.5 -23.5z" />
    <glyph glyph-name="ordfeminine" unicode="&#xaa;" horiz-adv-x="394" 
d="M145 348c-32 0 -57.502 9.50098 -76.502 28.501s-28.5 44.5 -28.5 76.5c0 34 11.833 61.167 35.5 81.5s58.5 32.5 104.5 36.5l88 7v31c0 15.333 -1.33301 28.166 -4 38.499s-7.33398 18.666 -14.001 24.999s-15.667 10.833 -27 13.5s-25.666 4 -42.999 4
c-11.333 0 -25.166 -0.666992 -41.499 -2s-36.5 -4 -60.5 -8l-6 54c50.667 8 91.334 12 122.001 12c50 0 86 -9.83301 108 -29.5s33 -51.167 33 -94.5v-270h-57l-4 47h-4c-24.667 -17.333 -47 -30.166 -67 -38.499s-39.333 -12.5 -58 -12.5zM164.998 400.001
c13.333 0 27.833 2.99902 43.5 8.99902s35.5 15.667 59.5 29v94l-47 -3c-43.333 -3.33301 -73.333 -10.166 -90 -20.499s-25 -26.833 -25 -49.5c0 -39.333 19.667 -59 59 -59z" />
    <glyph glyph-name="guillemotleft" unicode="&#xab;" horiz-adv-x="504" 
d="M35 268v4l122 238h82l-122 -238v-4l122 -238h-82zM260 268v4l122 238h82l-122 -238v-4l122 -238h-82z" />
    <glyph glyph-name="logicalnot" unicode="&#xac;" horiz-adv-x="741" 
d="M55 426h621v-312h-77v244h-544v68z" />
    <glyph glyph-name="uni00AD" unicode="&#xad;" horiz-adv-x="375" 
d="M59 313h257v-66h-257v66z" />
    <glyph glyph-name="registered" unicode="&#xae;" horiz-adv-x="705" 
d="M241 618c17.333 2.66699 34 4.66699 50 6s30.667 2 44 2c52 0 90.167 -8.66699 114.5 -26s36.5 -44.666 36.5 -81.999c0 -50.667 -23.667 -83.334 -71 -98.001l-1 -3l84 -134h-52l-77 124l-82 1v-125h-46v335zM338 448c67.333 0 100.997 22.999 100.997 68.999
c0 23.333 -7.66699 40.5 -23 51.5s-40.666 16.5 -75.999 16.5c-7.33301 0 -15.666 -0.166992 -24.999 -0.5s-18.666 -1.16602 -27.999 -2.49902v-132c5.33301 -0.666992 13 -1.16699 23 -1.5s19.333 -0.5 28 -0.5zM351.997 139.999c-44.667 0 -85.834 7.66699 -123.501 23
s-70 36.5 -97 63.5s-48 59.167 -63 96.5s-22.5 78.333 -22.5 123s7.5 85.667 22.5 123s36 69.666 63 96.999s59.333 48.666 97 63.999s78.834 23 123.501 23s86 -7.66699 124 -23s70.5 -36.666 97.5 -63.999s48.167 -59.666 63.5 -96.999s23 -78.333 23 -123
s-7.66699 -85.667 -23 -123s-36.5 -69.5 -63.5 -96.5s-59.5 -48.167 -97.5 -63.5s-79.333 -23 -124 -23zM351.997 185.999c38.667 0 74 6.33301 106 19s59.5 30.5 82.5 53.5s40.833 50.5 53.5 82.5s19 67 19 105s-6.33301 73 -19 105s-30.5 59.5 -53.5 82.5
s-50.5 41 -82.5 54s-67.333 19.5 -106 19.5c-38 0 -73 -6.5 -105 -19.5s-59.333 -31 -82 -54s-40.334 -50.5 -53.001 -82.5s-19 -67 -19 -105s6.33301 -73 19 -105s30.334 -59.5 53.001 -82.5s50 -40.833 82 -53.5s67 -19 105 -19z" />
    <glyph glyph-name="macron" unicode="&#xaf;" horiz-adv-x="396" 
d="M54 703h281v-58h-281v58z" />
    <glyph glyph-name="degree" unicode="&#xb0;" horiz-adv-x="410" 
d="M205 373c-24 0 -46.167 4.66699 -66.5 14s-37.666 22.333 -51.999 39s-25.666 36.334 -33.999 59.001s-12.5 47.667 -12.5 75c0 26.667 4.16699 51.5 12.5 74.5s19.666 43 33.999 60s31.666 30.167 51.999 39.5s42.5 14 66.5 14s46 -4.66699 66 -14
s37.333 -22.5 52 -39.5s26 -37 34 -60s12 -47.833 12 -74.5c0 -27.333 -4 -52.333 -12 -75s-19.333 -42.334 -34 -59.001s-32 -29.667 -52 -39s-42 -14 -66 -14zM205 425c36 0 63.5 12.5 82.5 37.5s28.5 57.5 28.5 97.5s-9.5 72.667 -28.5 98s-46.5 38 -82.5 38
s-63.667 -12.667 -83 -38s-29 -58 -29 -98s9.66699 -72.5 29 -97.5s47 -37.5 83 -37.5z" />
    <glyph glyph-name="plusminus" unicode="&#xb1;" horiz-adv-x="516" 
d="M63 459h164v169h61v-169h164v-61h-164v-167h-61v167h-164v61zM64 152h388v-61h-388v61z" />
    <glyph glyph-name="twosuperior" unicode="&#xb2;" horiz-adv-x="372" 
d="M35 378c0 42.667 10.3311 80.168 30.998 112.501s55 64.166 103 95.499c34 22.667 57.833 43.334 71.5 62.001s20.5 39 20.5 61c0 54 -31.333 81 -94 81c-14.667 0 -30.667 -1.5 -48 -4.5s-37.666 -7.5 -60.999 -13.5l-10 60c25.333 7.33301 48.833 12.666 70.5 15.999
s41.834 5 60.501 5c102 0 153 -46.333 153 -139c0 -34.667 -8.83301 -65 -26.5 -91s-46.5 -52.667 -86.5 -80c-38 -27.333 -65.333 -52.5 -82 -75.5s-25 -49.167 -25 -78.5v-27h220v-61h-297v77z" />
    <glyph glyph-name="threesuperior" unicode="&#xb3;" horiz-adv-x="353" 
d="M138 294c-32 0 -64.3281 3.66895 -96.9951 11.002v61h9c11.333 -2.66699 24.166 -4.83398 38.499 -6.50098s28.166 -2.5 41.499 -2.5c38 0 66.667 8.16699 86 24.5s29 39.5 29 69.5c0 67.333 -42.333 101 -127 101h-29v57h30c36 0 63.5 8 82.5 24s28.5 39 28.5 69
c0 59.333 -32.333 89 -97 89c-10.667 0 -22.834 -0.833008 -36.501 -2.5s-28.167 -4.16699 -43.5 -7.5h-10l-5 60c17.333 4 34.666 7.16699 51.999 9.5s33.666 3.5 48.999 3.5c52.667 0 92.834 -12.333 120.501 -37s41.5 -60.334 41.5 -107.001
c0 -31.333 -7.33301 -57.833 -22 -79.5s-35.667 -37.5 -63 -47.5c66 -19.333 99 -65.333 99 -138c0 -48 -15.333 -85.167 -46 -111.5s-74.334 -39.5 -131.001 -39.5z" />
    <glyph glyph-name="acute" unicode="&#xb4;" horiz-adv-x="228" 
d="M42 617l71 184h82l-97 -191z" />
    <glyph glyph-name="mu" unicode="&#xb5;" horiz-adv-x="547" 
d="M76 540l77.998 0.00195312v-385c0 -64.667 26 -97 78 -97c23.333 0 47.333 4.83301 72 14.5s52.667 23.834 84 42.501v425h79v-540h-66l-7 60h-4c-20.667 -12.667 -39.167 -23.334 -55.5 -32.001s-31.666 -15.834 -45.999 -21.501s-28.166 -9.83398 -41.499 -12.501
s-27 -4 -41 -4c-10 0 -19.333 0.666992 -28 2s-16.667 3 -24 5v-217h-78v760z" />
    <glyph glyph-name="paragraph" unicode="&#xb6;" horiz-adv-x="519" 
d="M314 0l-50.9971 -0.00390625v266c-4.66699 -0.666992 -10.167 -1 -16.5 -1h-17.5c-29.333 0 -56 4.16699 -80 12.5s-44.5 21.833 -61.5 40.5s-30 43.334 -39 74.001s-13.5 68.334 -13.5 113.001s4.66699 82.334 14 113.001s22.666 55.334 39.999 74.001
s38.166 32.167 62.499 40.5s51.5 12.5 81.5 12.5c14 0 27.167 -0.833008 39.5 -2.5s26.166 -4.16699 41.499 -7.5v-735zM432.003 -0.00390625h-60v735h60v-735z" />
    <glyph glyph-name="periodcentered" unicode="&#xb7;" horiz-adv-x="214" 
d="M106 319c-16.667 0 -29.334 4 -38.001 12s-13 21 -13 39s4.33301 31 13 39s21.334 12 38.001 12c34.667 0 52 -17 52 -51s-17.333 -51 -52 -51z" />
    <glyph glyph-name="cedilla" unicode="&#xb8;" horiz-adv-x="275" 
d="M103 -220c-24 0 -48.667 3.66699 -74 11v56c9.33301 -3.33301 19.5 -5.83301 30.5 -7.5s21.167 -2.5 30.5 -2.5c43.333 0 65 20 65 60c0 33.333 -15.333 73.333 -46 120h59c17.333 -26 29.333 -49 36 -69s10 -39.667 10 -59c0 -34.667 -9.5 -61.5 -28.5 -80.5
s-46.5 -28.5 -82.5 -28.5z" />
    <glyph glyph-name="onesuperior" unicode="&#xb9;" horiz-adv-x="285" 
d="M145 762l-101 -58h-11l-15 35l1 11l147 96h50v-546h-71v462z" />
    <glyph glyph-name="ordmasculine" unicode="&#xba;" horiz-adv-x="422" 
d="M212 399c14.667 0 28.334 2.33301 41.001 7s23.334 12.667 32.001 24s15.5 26.5 20.5 45.5s7.5 42.5 7.5 70.5s-2.5 51.5 -7.5 70.5s-11.833 34.333 -20.5 46s-19.334 19.834 -32.001 24.501s-26.334 7 -41.001 7c-16 0 -30.333 -2.33301 -43 -7
s-23.5 -12.834 -32.5 -24.501s-15.833 -27 -20.5 -46s-7 -42.5 -7 -70.5s2.33301 -51.5 7 -70.5s11.5 -34.167 20.5 -45.5s19.833 -19.333 32.5 -24s27 -7 43 -7zM212 345c-53.333 0 -94.833 16.5 -124.5 49.5s-44.5 83.5 -44.5 151.5s14.833 118.5 44.5 151.5
s71.167 49.5 124.5 49.5c52 0 92.833 -16.5 122.5 -49.5s44.5 -83.5 44.5 -151.5s-14.833 -118.5 -44.5 -151.5s-70.5 -49.5 -122.5 -49.5z" />
    <glyph glyph-name="guillemotright" unicode="&#xbb;" horiz-adv-x="504" 
d="M122 30h-82l123 238v4l-123 238h82l122 -238v-4zM347 30h-82l123 238v4l-123 238h82l122 -238v-4z" />
    <glyph glyph-name="onequarter" unicode="&#xbc;" horiz-adv-x="864" 
d="M701 129h-216l-16 42l180 378l9 3l55 -9l3 -11l-172 -346h161l19 190h47v-190h64v-57h-64v-129h-70v129zM507 740h69l-288 -740h-70zM152 662l-101 -58h-11l-15 35l1 11l147 96h50v-546h-71v462z" />
    <glyph glyph-name="onehalf" unicode="&#xbd;" horiz-adv-x="896" 
d="M552 77c0 21.333 2.33398 41.001 7.00098 59.001s12.334 35.167 23.001 51.5s24.5 32.333 41.5 48s37.833 32.167 62.5 49.5c18 12.667 32.833 24 44.5 34s21 19.667 28 29s12 18.666 15 27.999s4.5 19.666 4.5 30.999c0 54.667 -30.667 82 -92 82
c-17.333 0 -35.833 -1.66699 -55.5 -5s-38.167 -7.66602 -55.5 -12.999l-10 60c52 14 95.667 21 131 21c102 0 153 -46.333 153 -139c0 -17.333 -1.83301 -33 -5.5 -47s-9.83398 -27.5 -18.501 -40.5s-20.334 -26.167 -35.001 -39.5s-32.667 -28 -54 -44
c-20 -14.667 -36.833 -28.167 -50.5 -40.5s-24.667 -24.5 -33 -36.5s-14.333 -24.167 -18 -36.5s-5.5 -25.833 -5.5 -40.5v-27h220v-61h-297v77zM507.001 740.001h69l-288 -740h-70zM152.001 662.001l-101 -58h-11l-15 35l1 11l147 96h50v-546h-71v462z" />
    <glyph glyph-name="threequarters" unicode="&#xbe;" horiz-adv-x="924" 
d="M149 194c-32 0 -64.3281 3.66895 -96.9951 11.002v61h9c11.333 -2.66699 24.166 -4.83398 38.499 -6.50098s28.166 -2.5 41.499 -2.5c38 0 66.667 8.16699 86 24.5s29 39.5 29 69.5c0 67.333 -42.333 101 -127 101h-29v57h30c36 0 63.5 8 82.5 24s28.5 39 28.5 69
c0 59.333 -32.333 89 -97 89c-10.667 0 -22.834 -0.833008 -36.501 -2.5s-28.167 -4.16699 -43.5 -7.5h-10l-5 60c17.333 4 34.666 7.16699 51.999 9.5s33.666 3.5 48.999 3.5c52.667 0 92.834 -12.333 120.501 -37s41.5 -60.334 41.5 -107.001
c0 -31.333 -7.33301 -57.833 -22 -79.5s-35.667 -37.5 -63 -47.5c66 -19.333 99 -65.333 99 -138c0 -48 -15.333 -85.167 -46 -111.5s-74.334 -39.5 -131.001 -39.5zM764.005 129.002h-216l-16 42l180 378l9 3l55 -9l3 -11l-172 -346h161l19 190h47v-190h64v-57h-64v-129
h-70v129zM565.005 740.002h69l-288 -740h-70z" />
    <glyph glyph-name="questiondown" unicode="&#xbf;" horiz-adv-x="408" 
d="M283 348l5.00195 -190.006c-20.667 -5.33301 -41.667 -11.666 -63 -18.999s-40.833 -17.166 -58.5 -29.499s-32.167 -27.666 -43.5 -45.999s-17 -41.166 -17 -68.499c0 -25.333 4 -46.666 12 -63.999s18.5 -31.333 31.5 -42s27.833 -18.167 44.5 -22.5
s33.667 -6.5 51 -6.5c21.333 0 43.166 2.16699 65.499 6.5s43.166 9.83301 62.499 16.5l10 -63c-22 -7.33301 -45.667 -13.5 -71 -18.5s-51.333 -7.5 -78 -7.5c-27.333 0 -53.333 3.33301 -78 10s-46.334 17.834 -65.001 33.501s-33.667 36 -45 61s-17 55.5 -17 91.5
c0 34 5.83301 63 17.5 87s26.834 44.167 45.501 60.5s39.5 29.5 62.5 39.5s45.833 18 68.5 24l1 147v18h59v-18zM252.002 545.994c16 0 28.333 -4.33301 37 -13s13 -20.667 13 -36c0 -32.667 -16.667 -49 -50 -49c-15.333 0 -27.666 4.33301 -36.999 13s-14 20.667 -14 36
s4.66699 27.333 14 36s21.666 13 36.999 13z" />
    <glyph glyph-name="Agrave" unicode="&#xc0;" horiz-adv-x="595" 
d="M7 6l232 734h116l233 -734v-6h-77l-73 224h-283l-71 -224h-77v6zM420 292l-84 264l-35 116h-8l-35 -116l-84 -264h246zM263 791l-96 145h83l75 -132z" />
    <glyph glyph-name="Aacute" unicode="&#xc1;" horiz-adv-x="595" 
d="M7 6l232 734h116l233 -734v-6h-77l-73 224h-283l-71 -224h-77v6zM420 292l-84 264l-35 116h-8l-35 -116l-84 -264h246zM262 796l75 140h83l-96 -145z" />
    <glyph glyph-name="Acircumflex" unicode="&#xc2;" horiz-adv-x="595" 
d="M7 6l232 734h116l233 -734v-6h-77l-73 224h-283l-71 -224h-77v6zM420 292l-84 264l-35 116h-8l-35 -116l-84 -264h246zM154 876l144 73l145 -73v-65l-145 72l-144 -72v65z" />
    <glyph glyph-name="Atilde" unicode="&#xc3;" horiz-adv-x="595" 
d="M7 6l232 734h116l233 -734v-6h-77l-73 224h-283l-71 -224h-77v6zM420 292l-84 264l-35 116h-8l-35 -116l-84 -264h246zM130 851c14.667 21.333 31.668 38.6641 51.001 51.9971s38.666 20 57.999 20c14 0 26.833 -2.16699 38.5 -6.5s23.167 -9.16602 34.5 -14.499
s22.666 -10.166 33.999 -14.499s23.333 -6.5 36 -6.5c24 0 46.667 13 68 39l26 -22c-12.667 -23.333 -29 -41.666 -49 -54.999s-40 -20 -60 -20c-13.333 0 -25.833 2.16699 -37.5 6.5s-23.167 9 -34.5 14s-22.666 9.66699 -33.999 14s-23 6.5 -35 6.5
c-24.667 0 -49 -12.667 -73 -38z" />
    <glyph glyph-name="Adieresis" unicode="&#xc4;" horiz-adv-x="595" 
d="M7 6l232 734h116l233 -734v-6h-77l-73 224h-283l-71 -224h-77v6zM420 292l-84 264l-35 116h-8l-35 -116l-84 -264h246zM190 813c-34 0 -51 17 -51 51c0 33.333 17 50 51 50c34.667 0 52 -16.667 52 -50c0 -18 -4.5 -31 -13.5 -39s-21.833 -12 -38.5 -12zM405 813
c-34 0 -51 17 -51 51c0 33.333 17 50 51 50c16 0 28.667 -4 38 -12s14 -20.667 14 -38c0 -18 -4.66699 -31 -14 -39s-22 -12 -38 -12z" />
    <glyph glyph-name="Aring" unicode="&#xc5;" horiz-adv-x="595" 
d="M7 6l232 734h116l233 -734v-6h-77l-73 224h-283l-71 -224h-77v6zM420 292l-84 264l-35 116h-8l-35 -116l-84 -264h246zM298 742c-32 0 -57.501 10 -76.501 30s-28.5 45 -28.5 75s9.33301 55.167 28 75.5s44.334 30.5 77.001 30.5c32 0 57.5 -10.167 76.5 -30.5
s28.5 -45.5 28.5 -75.5s-9.5 -55 -28.5 -75s-44.5 -30 -76.5 -30zM297.999 784c19.333 0 34.167 5.66699 44.5 17s15.5 26.666 15.5 45.999s-5 34.833 -15 46.5s-25 17.5 -45 17.5c-20.667 0 -36 -5.83301 -46 -17.5s-15 -27.167 -15 -46.5s5 -34.666 15 -45.999
s25.333 -17 46 -17z" />
    <glyph glyph-name="AE" unicode="&#xc6;" horiz-adv-x="799" 
d="M5 6l259 734h484v-69h-301l13 -262h262v-69h-259l14 -271h281v-69h-359l-9 223h-227l-78 -223h-80v6zM188 294h199l-16 380h-48z" />
    <glyph glyph-name="Ccedilla" unicode="&#xc7;" horiz-adv-x="522" 
d="M280 -220c-24 0 -48.665 3.66699 -73.998 11v56c9.33301 -3.33301 19.5 -5.83301 30.5 -7.5s21.167 -2.5 30.5 -2.5c43.333 0 65 20 65 60c0 28.667 -10.667 61 -32 97c-87.333 10.667 -151.5 46.5 -192.5 107.5s-61.5 150.167 -61.5 267.5c0 66 6.16699 123 18.5 171
s31.333 87.5 57 118.5s58.167 53.833 97.5 68.5s86 22 140 22c18.667 0 39 -1.16699 61 -3.5s44.667 -5.5 68 -9.5v-68c-19.333 3.33301 -39.333 6 -60 8s-40.334 3 -59.001 3c-42.667 0 -79.167 -5.5 -109.5 -16.5s-55.333 -28.833 -75 -53.5s-34 -56.667 -43 -96
s-13.5 -87.333 -13.5 -144c0 -54.667 4.66699 -101.5 14 -140.5s23.5 -71 42.5 -96s43.333 -43.333 73 -55s65.167 -17.5 106.5 -17.5c7.33301 0 16.333 0.333008 27 1s21.667 1.5 33 2.5s22.5 2.33301 33.5 4s21.167 3.5 30.5 5.5v-67
c-17.333 -5.33301 -36.833 -9.33301 -58.5 -12s-44.5 -4 -68.5 -4c11.333 -19.333 19.166 -37 23.499 -53s6.5 -32 6.5 -48c0 -34.667 -9.5 -61.5 -28.5 -80.5s-46.5 -28.5 -82.5 -28.5z" />
    <glyph glyph-name="Egrave" unicode="&#xc8;" horiz-adv-x="542" 
d="M255 791l-96 145h83l75 -132zM78 740h415v-69h-335v-262h305v-69h-305v-271h344v-69h-424v740z" />
    <glyph glyph-name="Eacute" unicode="&#xc9;" horiz-adv-x="542" 
d="M250 796l75 140h83l-96 -145zM78 740h415v-69h-335v-262h305v-69h-305v-271h344v-69h-424v740z" />
    <glyph glyph-name="Ecircumflex" unicode="&#xca;" horiz-adv-x="542" 
d="M78 740h415v-69h-335v-262h305v-69h-305v-271h344v-69h-424v740zM143 876l144 73l145 -73v-65l-145 72l-144 -72v65z" />
    <glyph glyph-name="Edieresis" unicode="&#xcb;" horiz-adv-x="542" 
d="M179 813c-34 0 -51 17 -51 51c0 33.333 17 50 51 50c34.667 0 52 -16.667 52 -50c0 -18 -4.5 -31 -13.5 -39s-21.833 -12 -38.5 -12zM394 813c-34 0 -51 17 -51 51c0 33.333 17 50 51 50c16 0 28.667 -4 38 -12s14 -20.667 14 -38c0 -18 -4.66699 -31 -14 -39
s-22 -12 -38 -12zM78 740h415v-69h-335v-262h305v-69h-305v-271h344v-69h-424v740z" />
    <glyph glyph-name="Igrave" unicode="&#xcc;" horiz-adv-x="237" 
d="M78 740h80v-740h-80v740zM89 791l-96 145h83l75 -132z" />
    <glyph glyph-name="Iacute" unicode="&#xcd;" horiz-adv-x="237" 
d="M78 740h80v-740h-80v740zM85 796l75 140h83l-96 -145z" />
    <glyph glyph-name="Icircumflex" unicode="&#xce;" horiz-adv-x="237" 
d="M78 740h80v-740h-80v740zM-24 876l144 73l145 -73v-65l-145 72l-144 -72v65z" />
    <glyph glyph-name="Idieresis" unicode="&#xcf;" horiz-adv-x="237" 
d="M78 740h80v-740h-80v740zM13 813c-34 0 -51 17 -51 51c0 33.333 17 50 51 50c34.667 0 52 -16.667 52 -50c0 -18 -4.5 -31 -13.5 -39s-21.833 -12 -38.5 -12zM228 813c-34 0 -51 17 -51 51c0 33.333 17 50 51 50c16 0 28.667 -4 38 -12s14 -20.667 14 -38
c0 -18 -4.66699 -31 -14 -39s-22 -12 -38 -12z" />
    <glyph glyph-name="Eth" unicode="&#xd0;" horiz-adv-x="646" 
d="M1 402h90.002v333c34 5.33301 65.833 9.16602 95.5 11.499s56.167 3.5 79.5 3.5c116 0 200.833 -30.667 254.5 -92s80.5 -157.666 80.5 -288.999c0 -67.333 -7 -125 -21 -173s-35.833 -87.667 -65.5 -119s-67.334 -54.333 -113.001 -69s-100.167 -22 -163.5 -22
c-26 0 -51.333 0.833008 -76 2.5s-48.334 4.16699 -71.001 7.5v341h-90v65zM260.002 55c88.667 0 153.834 25.002 195.501 75.002s62.5 129.667 62.5 239c0 55.333 -4.66699 102.666 -14 141.999s-23.833 71.666 -43.5 96.999s-45 43.833 -76 55.5s-68.167 17.5 -111.5 17.5
c-16.667 0 -33.834 -0.666992 -51.501 -2s-34.5 -3.33301 -50.5 -6v-271h153v-65h-153v-276c18 -2 33.833 -3.5 47.5 -4.5s27.5 -1.5 41.5 -1.5z" />
    <glyph glyph-name="Ntilde" unicode="&#xd1;" horiz-adv-x="695" 
d="M181 851c14.667 21.333 31.668 38.6641 51.001 51.9971s38.666 20 57.999 20c14 0 26.833 -2.16699 38.5 -6.5s23.167 -9.16602 34.5 -14.499s22.666 -10.166 33.999 -14.499s23.333 -6.5 36 -6.5c24 0 46.667 13 68 39l26 -22c-12.667 -23.333 -29 -41.666 -49 -54.999
s-40 -20 -60 -20c-13.333 0 -25.833 2.16699 -37.5 6.5s-23.167 9 -34.5 14s-22.666 9.66699 -33.999 14s-23 6.5 -35 6.5c-24.667 0 -49 -12.667 -73 -38zM78.001 739.998h73l338 -521l48 -84h6v605h74v-740h-74l-336 518l-49 88l-6 -1v-605h-74v740z" />
    <glyph glyph-name="Ograve" unicode="&#xd2;" horiz-adv-x="658" 
d="M294 791l-96 145h83l75 -132zM328 -10c-93.333 0 -163.666 31.5 -210.999 94.5s-71 157.833 -71 284.5c0 128 23.667 223.5 71 286.5s117.666 94.5 210.999 94.5c94 0 164.833 -31.5 212.5 -94.5s71.5 -158.5 71.5 -286.5c0 -126.667 -23.833 -221.5 -71.5 -284.5
s-118.5 -94.5 -212.5 -94.5zM328 60c70.667 0 122 24.668 154 74.001s48 127.666 48 234.999s-16.333 186.166 -49 236.499s-83.667 75.5 -153 75.5s-120.166 -25 -152.499 -75s-48.5 -129 -48.5 -237c0 -107.333 16.167 -185.666 48.5 -234.999s83.166 -74 152.499 -74z
" />
    <glyph glyph-name="Oacute" unicode="&#xd3;" horiz-adv-x="658" 
d="M293 796l75 140h83l-96 -145zM328 -10c-93.333 0 -163.666 31.5 -210.999 94.5s-71 157.833 -71 284.5c0 128 23.667 223.5 71 286.5s117.666 94.5 210.999 94.5c94 0 164.833 -31.5 212.5 -94.5s71.5 -158.5 71.5 -286.5c0 -126.667 -23.833 -221.5 -71.5 -284.5
s-118.5 -94.5 -212.5 -94.5zM328 60c70.667 0 122 24.668 154 74.001s48 127.666 48 234.999s-16.333 186.166 -49 236.499s-83.667 75.5 -153 75.5s-120.166 -25 -152.499 -75s-48.5 -129 -48.5 -237c0 -107.333 16.167 -185.666 48.5 -234.999s83.166 -74 152.499 -74z
" />
    <glyph glyph-name="Ocircumflex" unicode="&#xd4;" horiz-adv-x="658" 
d="M328 -10c-93.333 0 -163.666 31.5 -210.999 94.5s-71 157.833 -71 284.5c0 128 23.667 223.5 71 286.5s117.666 94.5 210.999 94.5c94 0 164.833 -31.5 212.5 -94.5s71.5 -158.5 71.5 -286.5c0 -126.667 -23.833 -221.5 -71.5 -284.5s-118.5 -94.5 -212.5 -94.5zM328 60
c70.667 0 122 24.668 154 74.001s48 127.666 48 234.999s-16.333 186.166 -49 236.499s-83.667 75.5 -153 75.5s-120.166 -25 -152.499 -75s-48.5 -129 -48.5 -237c0 -107.333 16.167 -185.666 48.5 -234.999s83.166 -74 152.499 -74zM185 876.001l144 73l145 -73v-65
l-145 72l-144 -72v65z" />
    <glyph glyph-name="Otilde" unicode="&#xd5;" horiz-adv-x="658" 
d="M161 851c14.667 21.333 31.668 38.6641 51.001 51.9971s38.666 20 57.999 20c14 0 26.833 -2.16699 38.5 -6.5s23.167 -9.16602 34.5 -14.499s22.666 -10.166 33.999 -14.499s23.333 -6.5 36 -6.5c24 0 46.667 13 68 39l26 -22c-12.667 -23.333 -29 -41.666 -49 -54.999
s-40 -20 -60 -20c-13.333 0 -25.833 2.16699 -37.5 6.5s-23.167 9 -34.5 14s-22.666 9.66699 -33.999 14s-23 6.5 -35 6.5c-24.667 0 -49 -12.667 -73 -38zM328.001 -10.002c-93.333 0 -163.666 31.5 -210.999 94.5s-71 157.833 -71 284.5c0 128 23.667 223.5 71 286.5
s117.666 94.5 210.999 94.5c94 0 164.833 -31.5 212.5 -94.5s71.5 -158.5 71.5 -286.5c0 -126.667 -23.833 -221.5 -71.5 -284.5s-118.5 -94.5 -212.5 -94.5zM328.001 59.998c70.667 0 122 24.668 154 74.001s48 127.666 48 234.999s-16.333 186.166 -49 236.499
s-83.667 75.5 -153 75.5s-120.166 -25 -152.499 -75s-48.5 -129 -48.5 -237c0 -107.333 16.167 -185.666 48.5 -234.999s83.166 -74 152.499 -74z" />
    <glyph glyph-name="Odieresis" unicode="&#xd6;" horiz-adv-x="658" 
d="M220 813c-34 0 -51 17 -51 51c0 33.333 17 50 51 50c34.667 0 52 -16.667 52 -50c0 -18 -4.5 -31 -13.5 -39s-21.833 -12 -38.5 -12zM435 813c-34 0 -51 17 -51 51c0 33.333 17 50 51 50c16 0 28.667 -4 38 -12s14 -20.667 14 -38c0 -18 -4.66699 -31 -14 -39
s-22 -12 -38 -12zM328 -10c-93.333 0 -163.666 31.5 -210.999 94.5s-71 157.833 -71 284.5c0 128 23.667 223.5 71 286.5s117.666 94.5 210.999 94.5c94 0 164.833 -31.5 212.5 -94.5s71.5 -158.5 71.5 -286.5c0 -126.667 -23.833 -221.5 -71.5 -284.5
s-118.5 -94.5 -212.5 -94.5zM328 60c70.667 0 122 24.668 154 74.001s48 127.666 48 234.999s-16.333 186.166 -49 236.499s-83.667 75.5 -153 75.5s-120.166 -25 -152.499 -75s-48.5 -129 -48.5 -237c0 -107.333 16.167 -185.666 48.5 -234.999s83.166 -74 152.499 -74z
" />
    <glyph glyph-name="multiply" unicode="&#xd7;" horiz-adv-x="456" 
d="M51 237l133 134l-133 133l43 44l133 -134l134 134l44 -44l-134 -134l134 -133l-43 -43l-134 133l-134 -133z" />
    <glyph glyph-name="Oslash" unicode="&#xd8;" horiz-adv-x="665" 
d="M105 109c-36.667 63.333 -54.999 149.999 -54.999 259.999c0 128 23.667 223.5 71 286.5s117.666 94.5 210.999 94.5c80.667 0 144.667 -24.333 192 -73l47 63h69l-81 -109c38 -63.333 57 -150.666 57 -261.999c0 -126.667 -23.833 -221.5 -71.5 -284.5
s-118.5 -94.5 -212.5 -94.5c-82 0 -146 24 -192 72l-46 -62h-69zM131.001 368.999c0 -81.333 8.66699 -144.667 26 -190l321 435c-32.667 44.667 -81.334 67 -146.001 67c-69.333 0 -120.166 -25 -152.499 -75s-48.5 -129 -48.5 -237zM332.001 59.998
c70 0 121.167 24.668 153.5 74.001s48.5 127.666 48.5 234.999c0 78 -9 141.667 -27 191l-321 -435c16.667 -22.667 37 -39.167 61 -49.5s52.333 -15.5 85 -15.5z" />
    <glyph glyph-name="Ugrave" unicode="&#xd9;" horiz-adv-x="673" 
d="M301 791l-96 145h83l75 -132zM336 -10c-47.333 0 -87.667 5.83301 -121 17.5s-60.5 29.834 -81.5 54.501s-36.5 56.167 -46.5 94.5s-15 83.833 -15 136.5v447h80v-445c0 -83.333 14.833 -143.333 44.5 -180s76.167 -55 139.5 -55c64 0 110.833 18.333 140.5 55
s44.5 96.667 44.5 180v445h81v-447c0 -52.667 -5 -98.167 -15 -136.5s-25.667 -69.833 -47 -94.5s-48.833 -42.834 -82.5 -54.501s-74.167 -17.5 -121.5 -17.5z" />
    <glyph glyph-name="Uacute" unicode="&#xda;" horiz-adv-x="673" 
d="M298 796l75 140h83l-96 -145zM336 -10c-47.333 0 -87.667 5.83301 -121 17.5s-60.5 29.834 -81.5 54.501s-36.5 56.167 -46.5 94.5s-15 83.833 -15 136.5v447h80v-445c0 -83.333 14.833 -143.333 44.5 -180s76.167 -55 139.5 -55c64 0 110.833 18.333 140.5 55
s44.5 96.667 44.5 180v445h81v-447c0 -52.667 -5 -98.167 -15 -136.5s-25.667 -69.833 -47 -94.5s-48.833 -42.834 -82.5 -54.501s-74.167 -17.5 -121.5 -17.5z" />
    <glyph glyph-name="Ucircumflex" unicode="&#xdb;" horiz-adv-x="673" 
d="M336 -10c-47.333 0 -87.667 5.83301 -121 17.5s-60.5 29.834 -81.5 54.501s-36.5 56.167 -46.5 94.5s-15 83.833 -15 136.5v447h80v-445c0 -83.333 14.833 -143.333 44.5 -180s76.167 -55 139.5 -55c64 0 110.833 18.333 140.5 55s44.5 96.667 44.5 180v445h81v-447
c0 -52.667 -5 -98.167 -15 -136.5s-25.667 -69.833 -47 -94.5s-48.833 -42.834 -82.5 -54.501s-74.167 -17.5 -121.5 -17.5zM189.999 876l144 73l145 -73v-65l-145 72l-144 -72v65z" />
    <glyph glyph-name="Udieresis" unicode="&#xdc;" horiz-adv-x="673" 
d="M227 813c-34 0 -51 17 -51 51c0 33.333 17 50 51 50c34.667 0 52 -16.667 52 -50c0 -18 -4.5 -31 -13.5 -39s-21.833 -12 -38.5 -12zM442 813c-34 0 -51 17 -51 51c0 33.333 17 50 51 50c16 0 28.667 -4 38 -12s14 -20.667 14 -38c0 -18 -4.66699 -31 -14 -39
s-22 -12 -38 -12zM336 -10c-47.333 0 -87.667 5.83301 -121 17.5s-60.5 29.834 -81.5 54.501s-36.5 56.167 -46.5 94.5s-15 83.833 -15 136.5v447h80v-445c0 -83.333 14.833 -143.333 44.5 -180s76.167 -55 139.5 -55c64 0 110.833 18.333 140.5 55s44.5 96.667 44.5 180
v445h81v-447c0 -52.667 -5 -98.167 -15 -136.5s-25.667 -69.833 -47 -94.5s-48.833 -42.834 -82.5 -54.501s-74.167 -17.5 -121.5 -17.5z" />
    <glyph glyph-name="Yacute" unicode="&#xdd;" horiz-adv-x="572" 
d="M247 248l-246 492h88l169 -352l24 -59h8l24 59l170 352h87l-244 -489v-251h-80v248zM253 796l75 140h83l-96 -145z" />
    <glyph glyph-name="Thorn" unicode="&#xde;" horiz-adv-x="569" 
d="M78 740h80v-121c14.667 1.33301 29.167 2.5 43.5 3.5s28.833 1.5 43.5 1.5c100.667 0 174.334 -20.167 221.001 -60.5s70 -104.5 70 -192.5c0 -88.667 -23.5 -153.167 -70.5 -193.5s-121.833 -60.5 -224.5 -60.5c-26.667 0 -54.334 1 -83.001 3v-120h-80v740zM252 186
c72.667 0 124.666 14.3311 155.999 42.998s47 76 47 142c0 64.667 -15.5 111.334 -46.5 140.001s-82.167 43 -153.5 43c-13.333 0 -29.166 -0.5 -47.499 -1.5s-34.833 -3.16699 -49.5 -6.5v-354c12 -1.33301 27.333 -2.66602 46 -3.99902s34.667 -2 48 -2z" />
    <glyph glyph-name="germandbls" unicode="&#xdf;" horiz-adv-x="574" 
d="M67 599c0 74 17.001 127.836 51.001 161.503s87.333 50.5 160 50.5s126.167 -17 160.5 -51s51.5 -87.667 51.5 -161v-111h-80c-35.333 0 -62.833 -7.5 -82.5 -22.5s-29.5 -36.5 -29.5 -64.5c0 -16.667 2.66699 -30.334 8 -41.001s12.833 -19.5 22.5 -26.5
s20.667 -12.5 33 -16.5s25.5 -7.66699 39.5 -11c21.333 -5.33301 41 -11.833 59 -19.5s33.5 -17.5 46.5 -29.5s23 -26.667 30 -44s10.5 -39 10.5 -65c0 -48.667 -16 -87.334 -48 -116.001s-75 -43 -129 -43c-21.333 0 -43.5 1.83301 -66.5 5.5s-51.5 9.16699 -85.5 16.5v63
c25.333 -7.33301 50.666 -12.833 75.999 -16.5s49.333 -5.5 72 -5.5c33.333 0 59 8 77 24s27 38.667 27 68c0 28 -7.83301 49.333 -23.5 64s-39.167 25.667 -70.5 33c-17.333 4 -35 8.5 -53 13.5s-34.5 12.833 -49.5 23.5s-27.167 25.5 -36.5 44.5s-14 44.5 -14 76.5
c0 47.333 15.833 84.666 47.5 111.999s74.5 41 128.5 41h13v47c0 53.333 -10.167 91 -30.5 113s-54.5 33 -102.5 33s-82.167 -11 -102.5 -33s-30.5 -59.667 -30.5 -113v-599h-79v599z" />
    <glyph glyph-name="agrave" unicode="&#xe0;" horiz-adv-x="474" 
d="M166 -5c-42 0 -74.833 12.502 -98.5 37.502s-35.5 59.833 -35.5 104.5c0 50.667 15.667 89.5 47 116.5s80.333 43.167 147 48.5l107 8v51c0 45.333 -8.66699 77.166 -26 95.499s-48 27.5 -92 27.5c-18 0 -39.833 -1.5 -65.5 -4.5s-50.167 -7.16699 -73.5 -12.5l-7 63
c58.667 11.333 112 17 160 17c62.667 0 108.667 -13.833 138 -41.5s44 -70.834 44 -129.501v-376h-65l-8 66h-6c-24.667 -19.333 -51 -36 -79 -50s-57 -21 -87 -21zM193 58.002c11.333 0 23.1689 2.00098 35.502 6.00098s24.666 9 36.999 15s24.166 12.5 35.499 19.5
l32 19.5v138l-89 -8c-48 -4.66699 -82 -14.834 -102 -30.501s-30 -40.5 -30 -74.5c0 -56.667 27 -85 81 -85zM216.003 612.003l-97 191h83l71 -181z" />
    <glyph glyph-name="aacute" unicode="&#xe1;" horiz-adv-x="474" 
d="M166 -5c-42 0 -74.833 12.502 -98.5 37.502s-35.5 59.833 -35.5 104.5c0 50.667 15.667 89.5 47 116.5s80.333 43.167 147 48.5l107 8v51c0 45.333 -8.66699 77.166 -26 95.499s-48 27.5 -92 27.5c-18 0 -39.833 -1.5 -65.5 -4.5s-50.167 -7.16699 -73.5 -12.5l-7 63
c58.667 11.333 112 17 160 17c62.667 0 108.667 -13.833 138 -41.5s44 -70.834 44 -129.501v-376h-65l-8 66h-6c-24.667 -19.333 -51 -36 -79 -50s-57 -21 -87 -21zM193 58.002c11.333 0 23.1689 2.00098 35.502 6.00098s24.666 9 36.999 15s24.166 12.5 35.499 19.5
l32 19.5v138l-89 -8c-48 -4.66699 -82 -14.834 -102 -30.501s-30 -40.5 -30 -74.5c0 -56.667 27 -85 81 -85zM213.003 617.003l71 184h82l-97 -191z" />
    <glyph glyph-name="acircumflex" unicode="&#xe2;" horiz-adv-x="474" 
d="M166 -5c-42 0 -74.833 12.502 -98.5 37.502s-35.5 59.833 -35.5 104.5c0 50.667 15.667 89.5 47 116.5s80.333 43.167 147 48.5l107 8v51c0 45.333 -8.66699 77.166 -26 95.499s-48 27.5 -92 27.5c-18 0 -39.833 -1.5 -65.5 -4.5s-50.167 -7.16699 -73.5 -12.5l-7 63
c58.667 11.333 112 17 160 17c62.667 0 108.667 -13.833 138 -41.5s44 -70.834 44 -129.501v-376h-65l-8 66h-6c-24.667 -19.333 -51 -36 -79 -50s-57 -21 -87 -21zM193 58.002c11.333 0 23.1689 2.00098 35.502 6.00098s24.666 9 36.999 15s24.166 12.5 35.499 19.5
l32 19.5v138l-89 -8c-48 -4.66699 -82 -14.834 -102 -30.501s-30 -40.5 -30 -74.5c0 -56.667 27 -85 81 -85zM99.0029 696.003l144 73l145 -73v-64l-144 72l-145 -72v64z" />
    <glyph glyph-name="atilde" unicode="&#xe3;" horiz-adv-x="474" 
d="M166 -5c-42 0 -74.833 12.502 -98.5 37.502s-35.5 59.833 -35.5 104.5c0 50.667 15.667 89.5 47 116.5s80.333 43.167 147 48.5l107 8v51c0 45.333 -8.66699 77.166 -26 95.499s-48 27.5 -92 27.5c-18 0 -39.833 -1.5 -65.5 -4.5s-50.167 -7.16699 -73.5 -12.5l-7 63
c58.667 11.333 112 17 160 17c62.667 0 108.667 -13.833 138 -41.5s44 -70.834 44 -129.501v-376h-65l-8 66h-6c-24.667 -19.333 -51 -36 -79 -50s-57 -21 -87 -21zM193 58.002c11.333 0 23.1689 2.00098 35.502 6.00098s24.666 9 36.999 15s24.166 12.5 35.499 19.5
l32 19.5v138l-89 -8c-48 -4.66699 -82 -14.834 -102 -30.501s-30 -40.5 -30 -74.5c0 -56.667 27 -85 81 -85zM70.0029 665.003c14.667 21.333 31.667 38.1689 51 50.502s38.666 18.5 57.999 18.5c14 0 26.833 -2.33301 38.5 -7s23.167 -9.83398 34.5 -15.501
s22.5 -10.834 33.5 -15.501s22.833 -7 35.5 -7c24 0 46 13 66 39l29 -25c-12.667 -23.333 -29 -41.333 -49 -54s-40 -19 -60 -19c-13.333 0 -25.833 2.33301 -37.5 7s-23.167 10 -34.5 16s-22.666 11.333 -33.999 16s-23 7 -35 7s-24 -3.5 -36 -10.5
s-23.333 -16.5 -34 -28.5z" />
    <glyph glyph-name="adieresis" unicode="&#xe4;" horiz-adv-x="474" 
d="M166 -5c-42 0 -74.833 12.502 -98.5 37.502s-35.5 59.833 -35.5 104.5c0 50.667 15.667 89.5 47 116.5s80.333 43.167 147 48.5l107 8v51c0 45.333 -8.66699 77.166 -26 95.499s-48 27.5 -92 27.5c-18 0 -39.833 -1.5 -65.5 -4.5s-50.167 -7.16699 -73.5 -12.5l-7 63
c58.667 11.333 112 17 160 17c62.667 0 108.667 -13.833 138 -41.5s44 -70.834 44 -129.501v-376h-65l-8 66h-6c-24.667 -19.333 -51 -36 -79 -50s-57 -21 -87 -21zM193 58.002c11.333 0 23.1689 2.00098 35.502 6.00098s24.666 9 36.999 15s24.166 12.5 35.499 19.5
l32 19.5v138l-89 -8c-48 -4.66699 -82 -14.834 -102 -30.501s-30 -40.5 -30 -74.5c0 -56.667 27 -85 81 -85zM140.003 636.003c-31.333 0 -47 15.333 -47 46c0 30 15.667 45 47 45c30.667 0 46 -15 46 -45c0 -30.667 -15.333 -46 -46 -46zM342.003 636.003
c-31.333 0 -47 15.333 -47 46c0 30 15.667 45 47 45c30.667 0 46 -15 46 -45c0 -30.667 -15.333 -46 -46 -46z" />
    <glyph glyph-name="aring" unicode="&#xe5;" horiz-adv-x="474" 
d="M166 -5c-42 0 -74.833 12.502 -98.5 37.502s-35.5 59.833 -35.5 104.5c0 50.667 15.667 89.5 47 116.5s80.333 43.167 147 48.5l107 8v51c0 45.333 -8.66699 77.166 -26 95.499s-48 27.5 -92 27.5c-18 0 -39.833 -1.5 -65.5 -4.5s-50.167 -7.16699 -73.5 -12.5l-7 63
c58.667 11.333 112 17 160 17c62.667 0 108.667 -13.833 138 -41.5s44 -70.834 44 -129.501v-376h-65l-8 66h-6c-24.667 -19.333 -51 -36 -79 -50s-57 -21 -87 -21zM193 58.002c11.333 0 23.1689 2.00098 35.502 6.00098s24.666 9 36.999 15s24.166 12.5 35.499 19.5
l32 19.5v138l-89 -8c-48 -4.66699 -82 -14.834 -102 -30.501s-30 -40.5 -30 -74.5c0 -56.667 27 -85 81 -85zM241.003 607.003c-32.667 0 -58.667 10.167 -78 30.5s-29 45.5 -29 75.5s9.5 55 28.5 75s45.167 30 78.5 30c32.667 0 58.5 -10 77.5 -30s28.5 -45 28.5 -75
s-9.66699 -55.167 -29 -75.5s-45 -30.5 -77 -30.5zM241.003 650.003c19.333 0 34 5.83105 44 17.498s15 26.834 15 45.501s-5 33.667 -15 45s-24.667 17 -44 17s-34 -5.66699 -44 -17s-15 -26.333 -15 -45c0 -19.333 5 -34.666 15 -45.999s24.667 -17 44 -17z" />
    <glyph glyph-name="ae" unicode="&#xe6;" horiz-adv-x="772" 
d="M558 -9c-82.667 0 -141.668 30.999 -177.001 92.999l-6 1l-66 -41.5c-19.333 -11.667 -37.166 -21 -53.499 -28s-31.666 -12.167 -45.999 -15.5s-28.833 -5 -43.5 -5c-42 0 -74.667 12.5 -98 37.5s-35 59.833 -35 104.5c0 50.667 15.667 89.334 47 116.001
s80 42.667 146 48l107 9v58c0 42 -9 71.833 -27 89.5s-48.333 26.5 -91 26.5c-19.333 0 -41.666 -1.5 -66.999 -4.5s-49.333 -7.16699 -72 -12.5l-7 63c30 5.33301 58.5 9.5 85.5 12.5s51.833 4.5 74.5 4.5c81.333 0 131.666 -31.667 150.999 -95h6
c16.667 32 38.834 56.167 66.501 72.5s61.167 24.5 100.5 24.5c59.333 0 104.166 -19.833 134.499 -59.5s45.5 -98.5 45.5 -176.5c0 -16.667 -0.333008 -30.167 -1 -40.5s-2 -20.5 -4 -30.5h-315c3.33301 -124.667 53.333 -187 150 -187c22 0 45 2.33301 69 7
s49.333 12.667 76 24l5 -64c-22.667 -9.33301 -47.834 -16.833 -75.501 -22.5s-54.167 -8.5 -79.5 -8.5zM193.999 57.999c20.667 0 42.833 6.16797 66.5 18.501s51.5 29.166 83.5 50.499c-2 5.33301 -3.66699 13.5 -5 24.5s-2.5 23 -3.5 36s-1.66699 25.833 -2 38.5
s-0.5 23 -0.5 31l-89 -8c-48 -4 -81.833 -14.167 -101.5 -30.5s-29.5 -41.5 -29.5 -75.5c0 -56.667 27 -85 81 -85zM658.998 297c-1.33301 67.333 -10.333 115.667 -27 145s-43.667 44 -81 44c-42.667 0 -75.667 -16 -99 -48s-36.333 -79 -39 -141h246z" />
    <glyph glyph-name="ccedilla" unicode="&#xe7;" horiz-adv-x="413" 
d="M200 -220c-24 0 -48.665 3.66797 -73.998 11.001v56c9.33301 -3.33301 19.5 -5.83301 30.5 -7.5s21.167 -2.5 30.5 -2.5c43.333 0 65 20 65 60c0 28.667 -10.667 61 -32 97c-119.333 18.667 -179 110.667 -179 276c0 186.667 77 280 231 280
c29.333 0 63.666 -4.66699 102.999 -14v-66c-17.333 4 -33.833 6.83301 -49.5 8.5s-31.167 2.5 -46.5 2.5c-54 0 -93.667 -16.833 -119 -50.5s-38 -87.167 -38 -160.5c0 -72.667 12.5 -126.167 37.5 -160.5s64.5 -51.5 118.5 -51.5c15.333 0 30.5 1 45.5 3s32.167 5 51.5 9
v-66c-13.333 -3.33301 -28.333 -6.33301 -45 -9s-33 -4.33398 -49 -5.00098c11.333 -19.333 19.166 -37 23.499 -53s6.5 -32 6.5 -48c0 -34.667 -9.5 -61.5 -28.5 -80.5s-46.5 -28.5 -82.5 -28.5z" />
    <glyph glyph-name="egrave" unicode="&#xe8;" horiz-adv-x="480" 
d="M265 -9c-72.667 0 -127.999 23.168 -165.999 69.501s-57 113.166 -57 200.499c0 94 18.5 165.5 55.5 214.5s91.5 73.5 163.5 73.5c60 0 105 -19.833 135 -59.5s45 -98.5 45 -176.5c0 -16.667 -0.5 -30.5 -1.5 -41.5s-2.16699 -21.5 -3.5 -31.5h-315
c3.33301 -63.333 17.166 -109.833 41.499 -139.5s60.5 -44.5 108.5 -44.5c44.667 0 92.667 10 144 30l5 -64c-22 -9.33301 -46.667 -16.833 -74 -22.5s-54.333 -8.5 -81 -8.5zM259.001 486.001c-84 0 -129.668 -62 -137.001 -186h246
c-1.33301 66 -10.666 113.5 -27.999 142.5s-44.333 43.5 -81 43.5zM217 612.001l-97 191h83l71 -181z" />
    <glyph glyph-name="eacute" unicode="&#xe9;" horiz-adv-x="480" 
d="M225 617l71 184h82l-97 -191zM265 -9c-72.667 0 -127.999 23.168 -165.999 69.501s-57 113.166 -57 200.499c0 94 18.5 165.5 55.5 214.5s91.5 73.5 163.5 73.5c60 0 105 -19.833 135 -59.5s45 -98.5 45 -176.5c0 -16.667 -0.5 -30.5 -1.5 -41.5
s-2.16699 -21.5 -3.5 -31.5h-315c3.33301 -63.333 17.166 -109.833 41.499 -139.5s60.5 -44.5 108.5 -44.5c44.667 0 92.667 10 144 30l5 -64c-22 -9.33301 -46.667 -16.833 -74 -22.5s-54.333 -8.5 -81 -8.5zM259.001 486.001c-84 0 -129.668 -62 -137.001 -186h246
c-1.33301 66 -10.666 113.5 -27.999 142.5s-44.333 43.5 -81 43.5z" />
    <glyph glyph-name="ecircumflex" unicode="&#xea;" horiz-adv-x="480" 
d="M105 696l144 73l145 -73v-64l-144 72l-145 -72v64zM265 -9c-72.667 0 -127.999 23.168 -165.999 69.501s-57 113.166 -57 200.499c0 94 18.5 165.5 55.5 214.5s91.5 73.5 163.5 73.5c60 0 105 -19.833 135 -59.5s45 -98.5 45 -176.5c0 -16.667 -0.5 -30.5 -1.5 -41.5
s-2.16699 -21.5 -3.5 -31.5h-315c3.33301 -63.333 17.166 -109.833 41.499 -139.5s60.5 -44.5 108.5 -44.5c44.667 0 92.667 10 144 30l5 -64c-22 -9.33301 -46.667 -16.833 -74 -22.5s-54.333 -8.5 -81 -8.5zM259.001 486.001c-84 0 -129.668 -62 -137.001 -186h246
c-1.33301 66 -10.666 113.5 -27.999 142.5s-44.333 43.5 -81 43.5z" />
    <glyph glyph-name="edieresis" unicode="&#xeb;" horiz-adv-x="480" 
d="M148 636c-31.333 0 -47 15.333 -47 46c0 30 15.667 45 47 45c30.667 0 46 -15 46 -45c0 -30.667 -15.333 -46 -46 -46zM350 636c-31.333 0 -47 15.333 -47 46c0 30 15.667 45 47 45c30.667 0 46 -15 46 -45c0 -30.667 -15.333 -46 -46 -46zM265 -9
c-72.667 0 -127.999 23.168 -165.999 69.501s-57 113.166 -57 200.499c0 94 18.5 165.5 55.5 214.5s91.5 73.5 163.5 73.5c60 0 105 -19.833 135 -59.5s45 -98.5 45 -176.5c0 -16.667 -0.5 -30.5 -1.5 -41.5s-2.16699 -21.5 -3.5 -31.5h-315
c3.33301 -63.333 17.166 -109.833 41.499 -139.5s60.5 -44.5 108.5 -44.5c44.667 0 92.667 10 144 30l5 -64c-22 -9.33301 -46.667 -16.833 -74 -22.5s-54.333 -8.5 -81 -8.5zM259.001 486.001c-84 0 -129.668 -62 -137.001 -186h246
c-1.33301 66 -10.666 113.5 -27.999 142.5s-44.333 43.5 -81 43.5z" />
    <glyph glyph-name="igrave" unicode="&#xec;" horiz-adv-x="214" 
d="M68 540h78v-540h-78v540zM82 612l-97 191h83l71 -181z" />
    <glyph glyph-name="iacute" unicode="&#xed;" horiz-adv-x="214" 
d="M82 617l71 184h82l-97 -191zM68 540h78v-540h-78v540z" />
    <glyph glyph-name="icircumflex" unicode="&#xee;" horiz-adv-x="215" 
d="M-32 696l143 73l143 -73v-64l-143 72l-143 -72v64zM69 540h78v-540h-78v540z" />
    <glyph glyph-name="idieresis" unicode="&#xef;" horiz-adv-x="215" 
d="M10 636c-31.333 0 -47 15.333 -47 46c0 30 15.667 45 47 45s47 -15 47 -45c0 -30.667 -15.667 -46 -47 -46zM209 636c-31.333 0 -47 15.333 -47 46c0 30 15.667 45 47 45c30.667 0 46 -15 46 -45c0 -30.667 -15.333 -46 -46 -46zM69 540h78v-540h-78v540z" />
    <glyph glyph-name="eth" unicode="&#xf0;" horiz-adv-x="529" 
d="M203 681l100.998 13.0029c-10 20 -20.833 39.5 -32.5 58.5s-24.167 37.5 -37.5 55.5h83c11.333 -16 22 -32.667 32 -50s19.667 -35.333 29 -54l121 17v-57l-96 -13c24 -56.667 43.167 -116.5 57.5 -179.5s21.5 -127.167 21.5 -192.5
c0 -94.667 -18.667 -166.334 -56 -215.001s-92 -73 -164 -73s-126.833 23.667 -164.5 71s-56.5 116.666 -56.5 207.999s18.833 160.833 56.5 208.5s91.834 71.5 162.501 71.5c52 0 92.667 -20.667 122 -62c-6.66699 26 -14.167 51.667 -22.5 77
s-18.166 50.666 -29.499 75.999l-127 -17v57zM261.998 56.0029c48.667 0 84.167 17.333 106.5 52s33.5 90.334 33.5 167.001c0 26.667 -2.16699 52.667 -6.5 78s-11.833 47.666 -22.5 66.999s-25 34.833 -43 46.5s-40.667 17.5 -68 17.5c-48.667 0 -84.167 -17 -106.5 -51
s-33.5 -88.333 -33.5 -163s11.167 -129 33.5 -163s57.833 -51 106.5 -51z" />
    <glyph glyph-name="ntilde" unicode="&#xf1;" horiz-adv-x="522" 
d="M67 540h66l6 -60h5c40 24.667 74.833 42.5 104.5 53.5s58.5 16.5 86.5 16.5c42 0 73 -11.333 93 -34s30 -59.334 30 -110.001v-406h-78v384c0 34.667 -6 59.334 -18 74.001s-30.667 22 -56 22c-23.333 0 -48.333 -4.83301 -75 -14.5s-55 -23.5 -85 -41.5v-424h-79v540z
M95 665c14.667 21.333 31.667 38.1689 51 50.502s38.666 18.5 57.999 18.5c14 0 26.833 -2.33301 38.5 -7s23.167 -9.83398 34.5 -15.501s22.5 -10.834 33.5 -15.501s22.833 -7 35.5 -7c24 0 46 13 66 39l29 -25c-12.667 -23.333 -29 -41.333 -49 -54s-40 -19 -60 -19
c-13.333 0 -25.833 2.33301 -37.5 7s-23.167 10 -34.5 16s-22.666 11.333 -33.999 16s-23 7 -35 7s-24 -3.5 -36 -10.5s-23.333 -16.5 -34 -28.5z" />
    <glyph glyph-name="ograve" unicode="&#xf2;" horiz-adv-x="524" 
d="M262 -9c-72.667 0 -127.667 23.667 -165 71s-56 116.666 -56 207.999s18.833 160.833 56.5 208.5s92.5 71.5 164.5 71.5s126.667 -23.833 164 -71.5s56 -117.167 56 -208.5s-18.667 -160.666 -56 -207.999s-92 -71 -164 -71zM262 56c48.667 0 84.167 17 106.5 51
s33.5 88.333 33.5 163s-11.333 129 -34 163s-58 51 -106 51c-48.667 0 -84.167 -17 -106.5 -51s-33.5 -88.333 -33.5 -163s11.167 -129 33.5 -163s57.833 -51 106.5 -51zM228 612l-97 191h83l71 -181z" />
    <glyph glyph-name="oacute" unicode="&#xf3;" horiz-adv-x="524" 
d="M227 617l71 184h82l-97 -191zM262 -9c-72.667 0 -127.667 23.667 -165 71s-56 116.666 -56 207.999s18.833 160.833 56.5 208.5s92.5 71.5 164.5 71.5s126.667 -23.833 164 -71.5s56 -117.167 56 -208.5s-18.667 -160.666 -56 -207.999s-92 -71 -164 -71zM262 56
c48.667 0 84.167 17 106.5 51s33.5 88.333 33.5 163s-11.333 129 -34 163s-58 51 -106 51c-48.667 0 -84.167 -17 -106.5 -51s-33.5 -88.333 -33.5 -163s11.167 -129 33.5 -163s57.833 -51 106.5 -51z" />
    <glyph glyph-name="ocircumflex" unicode="&#xf4;" horiz-adv-x="524" 
d="M113 696l144 73l145 -73v-64l-144 72l-145 -72v64zM262 -9c-72.667 0 -127.667 23.667 -165 71s-56 116.666 -56 207.999s18.833 160.833 56.5 208.5s92.5 71.5 164.5 71.5s126.667 -23.833 164 -71.5s56 -117.167 56 -208.5s-18.667 -160.666 -56 -207.999
s-92 -71 -164 -71zM262 56c48.667 0 84.167 17 106.5 51s33.5 88.333 33.5 163s-11.333 129 -34 163s-58 51 -106 51c-48.667 0 -84.167 -17 -106.5 -51s-33.5 -88.333 -33.5 -163s11.167 -129 33.5 -163s57.833 -51 106.5 -51z" />
    <glyph glyph-name="otilde" unicode="&#xf5;" horiz-adv-x="524" 
d="M262 -9c-72.667 0 -127.667 23.667 -165 71s-56 116.666 -56 207.999s18.833 160.833 56.5 208.5s92.5 71.5 164.5 71.5s126.667 -23.833 164 -71.5s56 -117.167 56 -208.5s-18.667 -160.666 -56 -207.999s-92 -71 -164 -71zM262 56c48.667 0 84.167 17 106.5 51
s33.5 88.333 33.5 163s-11.333 129 -34 163s-58 51 -106 51c-48.667 0 -84.167 -17 -106.5 -51s-33.5 -88.333 -33.5 -163s11.167 -129 33.5 -163s57.833 -51 106.5 -51zM84 665c14.667 21.333 31.667 38.1689 51 50.502s38.666 18.5 57.999 18.5
c14 0 26.833 -2.33301 38.5 -7s23.167 -9.83398 34.5 -15.501s22.5 -10.834 33.5 -15.501s22.833 -7 35.5 -7c24 0 46 13 66 39l29 -25c-12.667 -23.333 -29 -41.333 -49 -54s-40 -19 -60 -19c-13.333 0 -25.833 2.33301 -37.5 7s-23.167 10 -34.5 16
s-22.666 11.333 -33.999 16s-23 7 -35 7s-24 -3.5 -36 -10.5s-23.333 -16.5 -34 -28.5z" />
    <glyph glyph-name="odieresis" unicode="&#xf6;" horiz-adv-x="524" 
d="M155 636c-31.333 0 -47 15.333 -47 46c0 30 15.667 45 47 45c30.667 0 46 -15 46 -45c0 -30.667 -15.333 -46 -46 -46zM357 636c-31.333 0 -47 15.333 -47 46c0 30 15.667 45 47 45c30.667 0 46 -15 46 -45c0 -30.667 -15.333 -46 -46 -46zM262 -9
c-72.667 0 -127.667 23.667 -165 71s-56 116.666 -56 207.999s18.833 160.833 56.5 208.5s92.5 71.5 164.5 71.5s126.667 -23.833 164 -71.5s56 -117.167 56 -208.5s-18.667 -160.666 -56 -207.999s-92 -71 -164 -71zM262 56c48.667 0 84.167 17 106.5 51
s33.5 88.333 33.5 163s-11.333 129 -34 163s-58 51 -106 51c-48.667 0 -84.167 -17 -106.5 -51s-33.5 -88.333 -33.5 -163s11.167 -129 33.5 -163s57.833 -51 106.5 -51z" />
    <glyph glyph-name="divide" unicode="&#xf7;" horiz-adv-x="505" 
d="M256 163c-13.333 0 -24.333 3.83301 -33 11.5s-13 18.834 -13 33.501c0 15.333 4.33301 26.833 13 34.5s19.667 11.5 33 11.5s24.166 -4 32.499 -12s12.5 -19.333 12.5 -34s-4.16699 -25.834 -12.5 -33.501s-19.166 -11.5 -32.499 -11.5zM56 401h394v-61h-394v61z
M256 480c-13.333 0 -24.333 4 -33 12s-13 19 -13 33c0 15.333 4.33301 27 13 35s19.667 12 33 12s24.166 -4.16699 32.499 -12.5s12.5 -19.833 12.5 -34.5c0 -14 -4.16699 -25 -12.5 -33s-19.166 -12 -32.499 -12z" />
    <glyph glyph-name="oslash" unicode="&#xf8;" 
d="M87 82c-28.667 45.333 -43 107.998 -43 187.998c0 91.333 18.5 160.833 55.5 208.5s91.833 71.5 164.5 71.5c58.667 0 106.667 -17 144 -51l31 41h63l-62 -80c29.333 -47.333 44 -110.666 44 -189.999c0 -91.333 -18.5 -160.666 -55.5 -207.999s-91.833 -71 -164.5 -71
c-59.333 0 -107.333 16.667 -144 50l-32 -41h-64zM264 55.998c50 0 85.833 17 107.5 51s32.5 88.333 32.5 163c0 49.333 -5 90 -15 122l-226 -294c22 -28 55.667 -42 101 -42zM124 269.998c0 -25.333 0.999023 -48 2.99902 -68s5.66699 -38 11 -54l226 294
c-23.333 28 -56.666 42 -99.999 42c-50 0 -85.833 -17 -107.5 -51s-32.5 -88.333 -32.5 -163z" />
    <glyph glyph-name="ugrave" unicode="&#xf9;" horiz-adv-x="521" 
d="M193 -10c-44 0 -76.667 11.6719 -98 35.0049s-32 59.666 -32 108.999v406h79v-385c0 -35.333 5.5 -59.833 16.5 -73.5s30.5 -20.5 58.5 -20.5c25.333 0 50.5 5.16699 75.5 15.5s52.833 25.166 83.5 44.499v419h79v-540h-67l-6 60h-4
c-20.667 -12.667 -39.334 -23.334 -56.001 -32.001s-32.167 -15.834 -46.5 -21.501s-28.166 -9.83398 -41.499 -12.501s-27 -4 -41 -4zM230 612.005l-97 191h83l71 -181z" />
    <glyph glyph-name="uacute" unicode="&#xfa;" horiz-adv-x="521" 
d="M230 617l71 184h82l-97 -191zM193 -10c-44 0 -76.667 11.6719 -98 35.0049s-32 59.666 -32 108.999v406h79v-385c0 -35.333 5.5 -59.833 16.5 -73.5s30.5 -20.5 58.5 -20.5c25.333 0 50.5 5.16699 75.5 15.5s52.833 25.166 83.5 44.499v419h79v-540h-67l-6 60h-4
c-20.667 -12.667 -39.334 -23.334 -56.001 -32.001s-32.167 -15.834 -46.5 -21.501s-28.166 -9.83398 -41.499 -12.501s-27 -4 -41 -4z" />
    <glyph glyph-name="ucircumflex" unicode="&#xfb;" horiz-adv-x="521" 
d="M115 696l144 73l145 -73v-64l-144 72l-145 -72v64zM193 -10c-44 0 -76.667 11.6719 -98 35.0049s-32 59.666 -32 108.999v406h79v-385c0 -35.333 5.5 -59.833 16.5 -73.5s30.5 -20.5 58.5 -20.5c25.333 0 50.5 5.16699 75.5 15.5s52.833 25.166 83.5 44.499v419h79v-540
h-67l-6 60h-4c-20.667 -12.667 -39.334 -23.334 -56.001 -32.001s-32.167 -15.834 -46.5 -21.501s-28.166 -9.83398 -41.499 -12.501s-27 -4 -41 -4z" />
    <glyph glyph-name="udieresis" unicode="&#xfc;" horiz-adv-x="521" 
d="M157 636c-31.333 0 -47 15.333 -47 46c0 30 15.667 45 47 45c30.667 0 46 -15 46 -45c0 -30.667 -15.333 -46 -46 -46zM359 636c-31.333 0 -47 15.333 -47 46c0 30 15.667 45 47 45c30.667 0 46 -15 46 -45c0 -30.667 -15.333 -46 -46 -46zM193 -10
c-44 0 -76.667 11.6719 -98 35.0049s-32 59.666 -32 108.999v406h79v-385c0 -35.333 5.5 -59.833 16.5 -73.5s30.5 -20.5 58.5 -20.5c25.333 0 50.5 5.16699 75.5 15.5s52.833 25.166 83.5 44.499v419h79v-540h-67l-6 60h-4
c-20.667 -12.667 -39.334 -23.334 -56.001 -32.001s-32.167 -15.834 -46.5 -21.501s-28.166 -9.83398 -41.499 -12.501s-27 -4 -41 -4z" />
    <glyph glyph-name="yacute" unicode="&#xfd;" horiz-adv-x="497" 
d="M136 -205l-1 7l73 200l-195 531v7h81l135 -387l17 -66h5l18 66l136 387h81v-7l-274 -753zM226 617l71 184h82l-97 -191z" />
    <glyph glyph-name="thorn" unicode="&#xfe;" horiz-adv-x="524" 
d="M67 808l78.001 -0.000976562v-323c18 20.667 39.667 36.5 65 47.5s53.666 16.5 84.999 16.5c125.333 0 188 -89.667 188 -269c0 -95.333 -21 -167.5 -63 -216.5s-102.667 -73.5 -182 -73.5c-14.667 0 -30 0.833008 -46 2.5s-31.667 3.83398 -47 6.50098v-219h-78v1028z
M239.001 49.999c54.667 0 95.502 17.501 122.502 52.501s40.5 91.833 40.5 170.5c0 76 -10.5 130.667 -31.5 164s-53.5 50 -97.5 50c-17.333 0 -33.833 -2.83301 -49.5 -8.5s-29.334 -13.834 -41.001 -24.501s-20.834 -24 -27.501 -40s-10 -34 -10 -54v-298
c16.667 -4 33 -7 49 -9s31 -3 45 -3z" />
    <glyph glyph-name="ydieresis" unicode="&#xff;" horiz-adv-x="497" 
d="M136 -205l-1 7l73 200l-195 531v7h81l135 -387l17 -66h5l18 66l136 387h81v-7l-274 -753zM152 636c-31.333 0 -47 15.333 -47 46c0 30 15.667 45 47 45c30.667 0 46 -15 46 -45c0 -30.667 -15.333 -46 -46 -46zM354 636c-31.333 0 -47 15.333 -47 46
c0 30 15.667 45 47 45c30.667 0 46 -15 46 -45c0 -30.667 -15.333 -46 -46 -46z" />
    <glyph glyph-name="Amacron" unicode="&#x100;" horiz-adv-x="595" 
d="M7 6l232 734h116l233 -734v-6h-77l-73 224h-283l-71 -224h-77v6zM420 292l-84 264l-35 116h-8l-35 -116l-84 -264h246zM157 901h270v-60h-270v60z" />
    <glyph glyph-name="amacron" unicode="&#x101;" horiz-adv-x="474" 
d="M166 -5c-42 0 -74.833 12.502 -98.5 37.502s-35.5 59.833 -35.5 104.5c0 50.667 15.667 89.5 47 116.5s80.333 43.167 147 48.5l107 8v51c0 45.333 -8.66699 77.166 -26 95.499s-48 27.5 -92 27.5c-18 0 -39.833 -1.5 -65.5 -4.5s-50.167 -7.16699 -73.5 -12.5l-7 63
c58.667 11.333 112 17 160 17c62.667 0 108.667 -13.833 138 -41.5s44 -70.834 44 -129.501v-376h-65l-8 66h-6c-24.667 -19.333 -51 -36 -79 -50s-57 -21 -87 -21zM193 58.002c11.333 0 23.1689 2.00098 35.502 6.00098s24.666 9 36.999 15s24.166 12.5 35.499 19.5
l32 19.5v138l-89 -8c-48 -4.66699 -82 -14.834 -102 -30.501s-30 -40.5 -30 -74.5c0 -56.667 27 -85 81 -85zM103.003 703.003h281v-58h-281v58z" />
    <glyph glyph-name="Abreve" unicode="&#x102;" horiz-adv-x="595" 
d="M7 6l232 734h116l233 -734v-6h-77l-73 224h-283l-71 -224h-77v6zM420 292l-84 264l-35 116h-8l-35 -116l-84 -264h246zM298 810c-52 0 -91.667 13.167 -119 39.5s-41 62.166 -41 107.499h61c0 -64.667 33 -97 99 -97s99 32.333 99 97h61
c0 -45.333 -13.667 -81.166 -41 -107.499s-67 -39.5 -119 -39.5z" />
    <glyph glyph-name="abreve" unicode="&#x103;" horiz-adv-x="474" 
d="M166 -5c-42 0 -74.833 12.502 -98.5 37.502s-35.5 59.833 -35.5 104.5c0 50.667 15.667 89.5 47 116.5s80.333 43.167 147 48.5l107 8v51c0 45.333 -8.66699 77.166 -26 95.499s-48 27.5 -92 27.5c-18 0 -39.833 -1.5 -65.5 -4.5s-50.167 -7.16699 -73.5 -12.5l-7 63
c58.667 11.333 112 17 160 17c62.667 0 108.667 -13.833 138 -41.5s44 -70.834 44 -129.501v-376h-65l-8 66h-6c-24.667 -19.333 -51 -36 -79 -50s-57 -21 -87 -21zM193 58.002c11.333 0 23.1689 2.00098 35.502 6.00098s24.666 9 36.999 15s24.166 12.5 35.499 19.5
l32 19.5v138l-89 -8c-48 -4.66699 -82 -14.834 -102 -30.501s-30 -40.5 -30 -74.5c0 -56.667 27 -85 81 -85zM241.003 618.003c-52 0 -91.333 12.833 -118 38.5s-40.667 61.5 -42 107.5h61c0 -32 8.5 -55.833 25.5 -71.5s41.5 -23.5 73.5 -23.5s56.5 7.83301 73.5 23.5
s25.5 39.5 25.5 71.5h61c-0.666992 -46 -14.5 -81.833 -41.5 -107.5s-66.5 -38.5 -118.5 -38.5z" />
    <glyph glyph-name="Aogonek" unicode="&#x104;" horiz-adv-x="595" 
d="M525 -220c-65.333 0 -97.999 29 -97.999 87c0 25.333 7.66699 48.666 23 69.999s39.333 42.333 72 63h-11l-73 224h-283l-71 -224h-77v6l232 734h116l233 -734v-22c-34.667 -15.333 -60.334 -32.666 -77.001 -51.999s-25 -39.333 -25 -60c0 -25.333 15 -38 45 -38
c19.333 0 38 3.66699 56 11v-53c-19.333 -8 -40 -12 -62 -12zM420.001 292l-84 264l-35 116h-8l-35 -116l-84 -264h246z" />
    <glyph glyph-name="aogonek" unicode="&#x105;" horiz-adv-x="474" 
d="M348 -220c-65.333 0 -97.998 29.002 -97.998 87.002c0 25.333 7.66699 48.666 23 69.999s39.666 42.333 72.999 63l-8 66h-6c-24.667 -19.333 -51 -36 -79 -50s-57 -21 -87 -21c-42 0 -74.833 12.5 -98.5 37.5s-35.5 59.833 -35.5 104.5c0 50.667 15.667 89.5 47 116.5
s80.333 43.167 147 48.5l107 8v51c0 45.333 -8.66699 77.166 -26 95.499s-48 27.5 -92 27.5c-18 0 -39.833 -1.5 -65.5 -4.5s-50.167 -7.16699 -73.5 -12.5l-7 63c58.667 11.333 112 17 160 17c62.667 0 108.667 -13.833 138 -41.5s44 -70.834 44 -129.501v-392
c-34.667 -15.333 -60.334 -32.666 -77.001 -51.999s-25 -39.333 -25 -60c0 -25.333 15 -38 45 -38c19.333 0 38 3.66699 56 11v-53c-19.333 -8 -40 -12 -62 -12zM193.002 58.002c11.333 0 23.1689 2.00098 35.502 6.00098s24.666 9 36.999 15s24.166 12.5 35.499 19.5
l32 19.5v138l-89 -8c-48 -4.66699 -82 -14.834 -102 -30.501s-30 -40.5 -30 -74.5c0 -56.667 27 -85 81 -85z" />
    <glyph glyph-name="Cacute" unicode="&#x106;" horiz-adv-x="522" 
d="M360 -10c-107.333 0.666992 -186.499 31.668 -237.499 93.001s-76.5 156.666 -76.5 285.999c0 66 6.16699 123 18.5 171s31.333 87.5 57 118.5s58.167 53.833 97.5 68.5s86 22 140 22c18.667 0 39 -1.16699 61 -3.5s44.667 -5.5 68 -9.5v-68
c-19.333 3.33301 -39.333 6 -60 8s-40.334 3 -59.001 3c-42.667 0 -79.167 -5.5 -109.5 -16.5s-55.333 -28.833 -75 -53.5s-34 -56.667 -43 -96s-13.5 -87.333 -13.5 -144c0 -54.667 4.66699 -101.5 14 -140.5s23.5 -71 42.5 -96s43.333 -43.333 73 -55
s65.167 -17.5 106.5 -17.5c7.33301 0 16.333 0.333008 27 1s21.667 1.5 33 2.5s22.5 2.33301 33.5 4s21.167 3.5 30.5 5.5v-67c-17.333 -5.33301 -37 -9.33301 -59 -12s-45 -4 -69 -4zM278.001 796.001l75 140h83l-96 -145z" />
    <glyph glyph-name="cacute" unicode="&#x107;" horiz-adv-x="413" 
d="M207 617l71 184h82l-97 -191zM273 -10c-78 0 -136 22.833 -174 68.5s-57 116.167 -57 211.5c0 186.667 77 280 231 280c29.333 0 63.666 -4.66699 102.999 -14v-66c-17.333 4 -33.833 6.83301 -49.5 8.5s-31.167 2.5 -46.5 2.5c-54 0 -93.667 -16.833 -119 -50.5
s-38 -87.167 -38 -160.5c0 -72.667 12.5 -126.167 37.5 -160.5s64.5 -51.5 118.5 -51.5c15.333 0 30.5 1 45.5 3s32.167 5 51.5 9v-66c-14.667 -4 -31.167 -7.33301 -49.5 -10s-36.166 -4 -53.499 -4z" />
    <glyph glyph-name="Ccircumflex" unicode="&#x108;" horiz-adv-x="522" 
d="M360 -10c-107.333 0.666992 -186.499 31.668 -237.499 93.001s-76.5 156.666 -76.5 285.999c0 66 6.16699 123 18.5 171s31.333 87.5 57 118.5s58.167 53.833 97.5 68.5s86 22 140 22c18.667 0 39 -1.16699 61 -3.5s44.667 -5.5 68 -9.5v-68
c-19.333 3.33301 -39.333 6 -60 8s-40.334 3 -59.001 3c-42.667 0 -79.167 -5.5 -109.5 -16.5s-55.333 -28.833 -75 -53.5s-34 -56.667 -43 -96s-13.5 -87.333 -13.5 -144c0 -54.667 4.66699 -101.5 14 -140.5s23.5 -71 42.5 -96s43.333 -43.333 73 -55
s65.167 -17.5 106.5 -17.5c7.33301 0 16.333 0.333008 27 1s21.667 1.5 33 2.5s22.5 2.33301 33.5 4s21.167 3.5 30.5 5.5v-67c-17.333 -5.33301 -37 -9.33301 -59 -12s-45 -4 -69 -4zM169.001 876.001l144 73l145 -73v-65l-145 72l-144 -72v65z" />
    <glyph glyph-name="ccircumflex" unicode="&#x109;" horiz-adv-x="413" 
d="M91 696l144 73l145 -73v-64l-144 72l-145 -72v64zM273 -10c-78 0 -136 22.833 -174 68.5s-57 116.167 -57 211.5c0 186.667 77 280 231 280c29.333 0 63.666 -4.66699 102.999 -14v-66c-17.333 4 -33.833 6.83301 -49.5 8.5s-31.167 2.5 -46.5 2.5
c-54 0 -93.667 -16.833 -119 -50.5s-38 -87.167 -38 -160.5c0 -72.667 12.5 -126.167 37.5 -160.5s64.5 -51.5 118.5 -51.5c15.333 0 30.5 1 45.5 3s32.167 5 51.5 9v-66c-14.667 -4 -31.167 -7.33301 -49.5 -10s-36.166 -4 -53.499 -4z" />
    <glyph glyph-name="Cdotaccent" unicode="&#x10a;" horiz-adv-x="522" 
d="M315 804c-34 0 -51 16.667 -51 50c0 34 17 51 51 51c34.667 0 52 -17 52 -51c0 -33.333 -17.333 -50 -52 -50zM360 -10c-107.333 0.666992 -186.499 31.668 -237.499 93.001s-76.5 156.666 -76.5 285.999c0 66 6.16699 123 18.5 171s31.333 87.5 57 118.5
s58.167 53.833 97.5 68.5s86 22 140 22c18.667 0 39 -1.16699 61 -3.5s44.667 -5.5 68 -9.5v-68c-19.333 3.33301 -39.333 6 -60 8s-40.334 3 -59.001 3c-42.667 0 -79.167 -5.5 -109.5 -16.5s-55.333 -28.833 -75 -53.5s-34 -56.667 -43 -96s-13.5 -87.333 -13.5 -144
c0 -54.667 4.66699 -101.5 14 -140.5s23.5 -71 42.5 -96s43.333 -43.333 73 -55s65.167 -17.5 106.5 -17.5c7.33301 0 16.333 0.333008 27 1s21.667 1.5 33 2.5s22.5 2.33301 33.5 4s21.167 3.5 30.5 5.5v-67c-17.333 -5.33301 -37 -9.33301 -59 -12s-45 -4 -69 -4z" />
    <glyph glyph-name="cdotaccent" unicode="&#x10b;" horiz-adv-x="413" 
d="M273 -10c-78 0 -136 22.833 -174 68.5s-57 116.167 -57 211.5c0 186.667 77 280 231 280c29.333 0 63.666 -4.66699 102.999 -14v-66c-17.333 4 -33.833 6.83301 -49.5 8.5s-31.167 2.5 -46.5 2.5c-54 0 -93.667 -16.833 -119 -50.5s-38 -87.167 -38 -160.5
c0 -72.667 12.5 -126.167 37.5 -160.5s64.5 -51.5 118.5 -51.5c15.333 0 30.5 1 45.5 3s32.167 5 51.5 9v-66c-14.667 -4 -31.167 -7.33301 -49.5 -10s-36.166 -4 -53.499 -4zM234 631c-34 0 -51 17 -51 51c0 33.333 17 50 51 50c16 0 28.5 -4 37.5 -12
s13.5 -20.667 13.5 -38c0 -18 -4.5 -31 -13.5 -39s-21.5 -12 -37.5 -12z" />
    <glyph glyph-name="Ccaron" unicode="&#x10c;" horiz-adv-x="522" 
d="M360 -10c-107.333 0.666992 -186.499 31.668 -237.499 93.001s-76.5 156.666 -76.5 285.999c0 66 6.16699 123 18.5 171s31.333 87.5 57 118.5s58.167 53.833 97.5 68.5s86 22 140 22c18.667 0 39 -1.16699 61 -3.5s44.667 -5.5 68 -9.5v-68
c-19.333 3.33301 -39.333 6 -60 8s-40.334 3 -59.001 3c-42.667 0 -79.167 -5.5 -109.5 -16.5s-55.333 -28.833 -75 -53.5s-34 -56.667 -43 -96s-13.5 -87.333 -13.5 -144c0 -54.667 4.66699 -101.5 14 -140.5s23.5 -71 42.5 -96s43.333 -43.333 73 -55
s65.167 -17.5 106.5 -17.5c7.33301 0 16.333 0.333008 27 1s21.667 1.5 33 2.5s22.5 2.33301 33.5 4s21.167 3.5 30.5 5.5v-67c-17.333 -5.33301 -37 -9.33301 -59 -12s-45 -4 -69 -4zM173.001 938.001l144 -73l144 73v-66l-144 -72l-144 72v66z" />
    <glyph glyph-name="ccaron" unicode="&#x10d;" horiz-adv-x="413" 
d="M92 773l144 -73l145 73v-65l-145 -73l-144 73v65zM273 -10c-78 0 -136 22.833 -174 68.5s-57 116.167 -57 211.5c0 186.667 77 280 231 280c29.333 0 63.666 -4.66699 102.999 -14v-66c-17.333 4 -33.833 6.83301 -49.5 8.5s-31.167 2.5 -46.5 2.5
c-54 0 -93.667 -16.833 -119 -50.5s-38 -87.167 -38 -160.5c0 -72.667 12.5 -126.167 37.5 -160.5s64.5 -51.5 118.5 -51.5c15.333 0 30.5 1 45.5 3s32.167 5 51.5 9v-66c-14.667 -4 -31.167 -7.33301 -49.5 -10s-36.166 -4 -53.499 -4z" />
    <glyph glyph-name="Dcaron" unicode="&#x10e;" horiz-adv-x="633" 
d="M149 938l144 -73l144 73v-66l-144 -72l-144 72v66zM225 -14c-26 0 -51.3311 0.833008 -75.998 2.5s-48.334 4.16699 -71.001 7.5v739c34 5.33301 65.833 9.16602 95.5 11.499s56.167 3.5 79.5 3.5c116 0 200.833 -30.667 254.5 -92s80.5 -157.666 80.5 -288.999
c0 -67.333 -7 -125 -21 -173s-35.833 -87.667 -65.5 -119s-67.334 -54.333 -113.001 -69s-100.167 -22 -163.5 -22zM247.002 55c88.667 0 153.834 25.002 195.501 75.002s62.5 129.667 62.5 239c0 55.333 -4.66699 102.666 -14 141.999s-23.833 71.666 -43.5 96.999
s-45 43.833 -76 55.5s-68.167 17.5 -111.5 17.5c-16.667 0 -33.834 -0.666992 -51.501 -2s-34.5 -3.33301 -50.5 -6v-612c18 -2 33.833 -3.5 47.5 -4.5s27.5 -1.5 41.5 -1.5z" />
    <glyph glyph-name="dcaron" unicode="&#x10f;" horiz-adv-x="525" 
d="M519 808h67l-28 -228h-39v228zM233 -9c-64 0 -111.833 22.333 -143.5 67s-47.5 113.667 -47.5 207s21 164 63 212s101 72 177 72c16 0 31.667 -0.666992 47 -2s32.333 -3.33301 51 -6v267h78v-808h-70l-7 58h-4c-33.333 -44.667 -81.333 -67 -144 -67zM252 53
c16.667 0 32.667 2.66699 48 8s29 13.166 41 23.499s21.5 22.833 28.5 37.5s10.5 31.334 10.5 50.001v306c-18 3.33301 -34.833 6 -50.5 8s-32.167 3 -49.5 3c-52 0 -91.333 -17.5 -118 -52.5s-40 -90.167 -40 -165.5c0 -74.667 10.833 -129.667 32.5 -165
s54.167 -53 97.5 -53z" />
    <glyph glyph-name="Dcroat" unicode="&#x110;" horiz-adv-x="646" 
d="M1 402h90.002v333c34 5.33301 65.833 9.16602 95.5 11.499s56.167 3.5 79.5 3.5c116 0 200.833 -30.667 254.5 -92s80.5 -157.666 80.5 -288.999c0 -67.333 -7 -125 -21 -173s-35.833 -87.667 -65.5 -119s-67.334 -54.333 -113.001 -69s-100.167 -22 -163.5 -22
c-26 0 -51.333 0.833008 -76 2.5s-48.334 4.16699 -71.001 7.5v341h-90v65zM260.002 55c88.667 0 153.834 25.002 195.501 75.002s62.5 129.667 62.5 239c0 55.333 -4.66699 102.666 -14 141.999s-23.833 71.666 -43.5 96.999s-45 43.833 -76 55.5s-68.167 17.5 -111.5 17.5
c-16.667 0 -33.834 -0.666992 -51.501 -2s-34.5 -3.33301 -50.5 -6v-271h153v-65h-153v-276c18 -2 33.833 -3.5 47.5 -4.5s27.5 -1.5 41.5 -1.5z" />
    <glyph glyph-name="dcroat" unicode="&#x111;" horiz-adv-x="525" 
d="M218 698h162v110h78v-110h71v-50h-71v-648h-70l-7 58h-4c-33.333 -44.667 -81.333 -67 -144 -67c-64 0 -111.833 22.333 -143.5 67s-47.5 113.667 -47.5 207s21 164 63 212s101 72 177 72c16 0 31.667 -0.666992 47 -2s32.333 -3.33301 51 -6v107h-162v50zM252 53
c16.667 0 32.667 2.66699 48 8s29 13.166 41 23.499s21.5 22.833 28.5 37.5s10.5 31.334 10.5 50.001v306c-18 3.33301 -34.833 6 -50.5 8s-32.167 3 -49.5 3c-52 0 -91.333 -17.5 -118 -52.5s-40 -90.167 -40 -165.5c0 -74.667 10.833 -129.667 32.5 -165
s54.167 -53 97.5 -53z" />
    <glyph glyph-name="Emacron" unicode="&#x112;" horiz-adv-x="542" 
d="M146 901h270v-60h-270v60zM78 740h415v-69h-335v-262h305v-69h-305v-271h344v-69h-424v740z" />
    <glyph glyph-name="emacron" unicode="&#x113;" horiz-adv-x="480" 
d="M265 -9c-72.667 0 -127.999 23.168 -165.999 69.501s-57 113.166 -57 200.499c0 94 18.5 165.5 55.5 214.5s91.5 73.5 163.5 73.5c60 0 105 -19.833 135 -59.5s45 -98.5 45 -176.5c0 -16.667 -0.5 -30.5 -1.5 -41.5s-2.16699 -21.5 -3.5 -31.5h-315
c3.33301 -63.333 17.166 -109.833 41.499 -139.5s60.5 -44.5 108.5 -44.5c44.667 0 92.667 10 144 30l5 -64c-22 -9.33301 -46.667 -16.833 -74 -22.5s-54.333 -8.5 -81 -8.5zM259.001 486.001c-84 0 -129.668 -62 -137.001 -186h246
c-1.33301 66 -10.666 113.5 -27.999 142.5s-44.333 43.5 -81 43.5zM104 703.001h281v-58h-281v58z" />
    <glyph glyph-name="Ebreve" unicode="&#x114;" horiz-adv-x="542" 
d="M286 810c-52 0 -91.667 13.167 -119 39.5s-41 62.166 -41 107.499h61c0 -64.667 33 -97 99 -97s99 32.333 99 97h61c0 -45.333 -13.667 -81.166 -41 -107.499s-67 -39.5 -119 -39.5zM78 740h415v-69h-335v-262h305v-69h-305v-271h344v-69h-424v740z" />
    <glyph glyph-name="ebreve" unicode="&#x115;" horiz-adv-x="480" 
d="M265 -9c-72.667 0 -127.999 23.168 -165.999 69.501s-57 113.166 -57 200.499c0 94 18.5 165.5 55.5 214.5s91.5 73.5 163.5 73.5c60 0 105 -19.833 135 -59.5s45 -98.5 45 -176.5c0 -16.667 -0.5 -30.5 -1.5 -41.5s-2.16699 -21.5 -3.5 -31.5h-315
c3.33301 -63.333 17.166 -109.833 41.499 -139.5s60.5 -44.5 108.5 -44.5c44.667 0 92.667 10 144 30l5 -64c-22 -9.33301 -46.667 -16.833 -74 -22.5s-54.333 -8.5 -81 -8.5zM259.001 486.001c-84 0 -129.668 -62 -137.001 -186h246
c-1.33301 66 -10.666 113.5 -27.999 142.5s-44.333 43.5 -81 43.5zM246 618.001c-52 0 -91.333 12.833 -118 38.5s-40.667 61.5 -42 107.5h61c0 -32 8.5 -55.833 25.5 -71.5s41.5 -23.5 73.5 -23.5s56.5 7.83301 73.5 23.5s25.5 39.5 25.5 71.5h61
c-0.666992 -46 -14.5 -81.833 -41.5 -107.5s-66.5 -38.5 -118.5 -38.5z" />
    <glyph glyph-name="Edotaccent" unicode="&#x116;" horiz-adv-x="542" 
d="M285 804c-34 0 -51 16.667 -51 50c0 34 17 51 51 51c34.667 0 52 -17 52 -51c0 -33.333 -17.333 -50 -52 -50zM78 740h415v-69h-335v-262h305v-69h-305v-271h344v-69h-424v740z" />
    <glyph glyph-name="edotaccent" unicode="&#x117;" horiz-adv-x="480" 
d="M265 -9c-72.667 0 -127.999 23.168 -165.999 69.501s-57 113.166 -57 200.499c0 94 18.5 165.5 55.5 214.5s91.5 73.5 163.5 73.5c60 0 105 -19.833 135 -59.5s45 -98.5 45 -176.5c0 -16.667 -0.5 -30.5 -1.5 -41.5s-2.16699 -21.5 -3.5 -31.5h-315
c3.33301 -63.333 17.166 -109.833 41.499 -139.5s60.5 -44.5 108.5 -44.5c44.667 0 92.667 10 144 30l5 -64c-22 -9.33301 -46.667 -16.833 -74 -22.5s-54.333 -8.5 -81 -8.5zM259.001 486.001c-84 0 -129.668 -62 -137.001 -186h246
c-1.33301 66 -10.666 113.5 -27.999 142.5s-44.333 43.5 -81 43.5zM246 631.001c-34 0 -51 17 -51 51c0 33.333 17 50 51 50c16 0 28.5 -4 37.5 -12s13.5 -20.667 13.5 -38c0 -18 -4.5 -31 -13.5 -39s-21.5 -12 -37.5 -12z" />
    <glyph glyph-name="Eogonek" unicode="&#x118;" horiz-adv-x="542" 
d="M78 740h415.001v-69h-335v-262h305v-69h-305v-271h344v-85c-34.667 -15.333 -60.334 -32.666 -77.001 -51.999s-25 -39.333 -25 -60c0 -25.333 15 -38 45 -38c19.333 0 38 3.66699 56 11v-53c-19.333 -8 -40 -12 -62 -12c-65.333 0 -98 29 -98 87
c0 25.333 7.66699 48.666 23 69.999s39.333 42.333 72 63h-358v740z" />
    <glyph glyph-name="eogonek" unicode="&#x119;" horiz-adv-x="480" 
d="M265 -9c-72.667 0 -127.998 23.167 -165.998 69.5s-57 113.166 -57 200.499c0 94 18.5 165.5 55.5 214.5s91.5 73.5 163.5 73.5c60 0 105 -19.833 135 -59.5s45 -98.5 45 -176.5c0 -16.667 -0.5 -30.5 -1.5 -41.5s-2.16699 -21.5 -3.5 -31.5h-315
c3.33301 -63.333 17.166 -109.833 41.499 -139.5s60.5 -44.5 108.5 -44.5c44.667 0 92.667 10 144 30l6 -64v-16c-34.667 -15.333 -60.334 -32.666 -77.001 -51.999s-25 -39.333 -25 -60c0 -25.333 15 -38 45 -38c19.333 0 38 3.66699 56 11v-53c-19.333 -8 -40 -12 -62 -12
c-65.333 0 -98 29 -98 87c0 38 18.667 73.333 56 106c-15.333 -2.66699 -32.333 -4 -51 -4zM259.002 486c-84 0 -129.668 -62 -137.001 -186h246c-1.33301 66 -10.666 113.5 -27.999 142.5s-44.333 43.5 -81 43.5z" />
    <glyph glyph-name="Ecaron" unicode="&#x11a;" horiz-adv-x="542" 
d="M146 938l144 -73l144 73v-66l-144 -72l-144 72v66zM78 740h415v-69h-335v-262h305v-69h-305v-271h344v-69h-424v740z" />
    <glyph glyph-name="ecaron" unicode="&#x11b;" horiz-adv-x="480" 
d="M103 773l144 -73l145 73v-65l-145 -73l-144 73v65zM265 -9c-72.667 0 -127.999 23.168 -165.999 69.501s-57 113.166 -57 200.499c0 94 18.5 165.5 55.5 214.5s91.5 73.5 163.5 73.5c60 0 105 -19.833 135 -59.5s45 -98.5 45 -176.5c0 -16.667 -0.5 -30.5 -1.5 -41.5
s-2.16699 -21.5 -3.5 -31.5h-315c3.33301 -63.333 17.166 -109.833 41.499 -139.5s60.5 -44.5 108.5 -44.5c44.667 0 92.667 10 144 30l5 -64c-22 -9.33301 -46.667 -16.833 -74 -22.5s-54.333 -8.5 -81 -8.5zM259.001 486.001c-84 0 -129.668 -62 -137.001 -186h246
c-1.33301 66 -10.666 113.5 -27.999 142.5s-44.333 43.5 -81 43.5z" />
    <glyph glyph-name="Gcircumflex" unicode="&#x11c;" horiz-adv-x="591" 
d="M363 -10c-109.333 0.666992 -189.498 31.667 -240.498 93s-76.5 156.666 -76.5 285.999c0 131.333 26.333 227.5 79 288.5s135.667 91.5 249 91.5c21.333 0 46 -1.66699 74 -5s55.667 -8 83 -14v-69c-30.667 6.66699 -58 11.334 -82 14.001s-46.667 4 -68 4
c-45.333 0 -84 -5.66699 -116 -17s-58.167 -29.5 -78.5 -54.5s-35.166 -57 -44.499 -96s-14 -86.5 -14 -142.5c0 -54 4.66699 -100.5 14 -139.5s23.666 -71 42.999 -96s44 -43.5 74 -55.5s66 -18 108 -18c11.333 0 25.166 0.666992 41.499 2s33.166 3.33301 50.499 6v308h75
v-366c-33.333 -6.66699 -63.833 -11.667 -91.5 -15s-54.167 -5 -79.5 -5zM196.002 876l144 73l145 -73v-65l-145 72l-144 -72v65z" />
    <glyph glyph-name="gcircumflex" unicode="&#x11d;" horiz-adv-x="524" 
d="M133 696l144 73l145 -73v-64l-144 72l-145 -72v64zM232 -220c-25.333 0 -50.666 1.99902 -75.999 5.99902s-49.666 9.66699 -72.999 17l7 65c46.667 -16 91.667 -24 135 -24c51.333 0 90.166 14.833 116.499 44.5s39.833 80.167 40.5 151.5v26h-4
c-33.333 -44.667 -81.333 -67 -144 -67c-64.667 0 -112.834 21.667 -144.501 65s-47.5 110.666 -47.5 201.999c0 92.667 21 163 63 211s101 72 177 72c29.333 0 58 -1.83301 86 -5.5s58.333 -10.167 91 -19.5v-464c0 -50.667 -5 -93.667 -15 -129
s-24.833 -64.166 -44.5 -86.499s-43.5 -38.666 -71.5 -48.999s-60 -15.5 -96 -15.5zM252 59.999c16.667 0 32.668 2.66699 48.001 8s29 13 41 23s21.5 22 28.5 36s10.5 30 10.5 48v303c-18.667 3.33301 -35.667 6 -51 8s-31.333 3 -48 3c-52 0 -91.333 -17.5 -118 -52.5
s-40 -89.833 -40 -164.5c0 -72.667 10.667 -126.167 32 -160.5s53.666 -51.5 96.999 -51.5z" />
    <glyph glyph-name="Gbreve" unicode="&#x11e;" horiz-adv-x="591" 
d="M342 810c-52 0 -91.667 13.167 -119 39.5s-41 62.166 -41 107.499h61c0 -64.667 33 -97 99 -97s99 32.333 99 97h61c0 -45.333 -13.667 -81.166 -41 -107.499s-67 -39.5 -119 -39.5zM363 -10c-109.333 0.666992 -189.498 31.667 -240.498 93s-76.5 156.666 -76.5 285.999
c0 131.333 26.333 227.5 79 288.5s135.667 91.5 249 91.5c21.333 0 46 -1.66699 74 -5s55.667 -8 83 -14v-69c-30.667 6.66699 -58 11.334 -82 14.001s-46.667 4 -68 4c-45.333 0 -84 -5.66699 -116 -17s-58.167 -29.5 -78.5 -54.5s-35.166 -57 -44.499 -96
s-14 -86.5 -14 -142.5c0 -54 4.66699 -100.5 14 -139.5s23.666 -71 42.999 -96s44 -43.5 74 -55.5s66 -18 108 -18c11.333 0 25.166 0.666992 41.499 2s33.166 3.33301 50.499 6v308h75v-366c-33.333 -6.66699 -63.833 -11.667 -91.5 -15s-54.167 -5 -79.5 -5z" />
    <glyph glyph-name="gbreve" unicode="&#x11f;" horiz-adv-x="524" 
d="M232 -220c-25.333 0 -50.666 1.99902 -75.999 5.99902s-49.666 9.66699 -72.999 17l7 65c46.667 -16 91.667 -24 135 -24c51.333 0 90.166 14.833 116.499 44.5s39.833 80.167 40.5 151.5v26h-4c-33.333 -44.667 -81.333 -67 -144 -67
c-64.667 0 -112.834 21.667 -144.501 65s-47.5 110.666 -47.5 201.999c0 92.667 21 163 63 211s101 72 177 72c29.333 0 58 -1.83301 86 -5.5s58.333 -10.167 91 -19.5v-464c0 -50.667 -5 -93.667 -15 -129s-24.833 -64.166 -44.5 -86.499s-43.5 -38.666 -71.5 -48.999
s-60 -15.5 -96 -15.5zM252 59.999c16.667 0 32.668 2.66699 48.001 8s29 13 41 23s21.5 22 28.5 36s10.5 30 10.5 48v303c-18.667 3.33301 -35.667 6 -51 8s-31.333 3 -48 3c-52 0 -91.333 -17.5 -118 -52.5s-40 -89.833 -40 -164.5c0 -72.667 10.667 -126.167 32 -160.5
s53.666 -51.5 96.999 -51.5zM274.001 617.999c-52 0 -91.333 12.833 -118 38.5s-40.667 61.5 -42 107.5h61c0 -32 8.5 -55.833 25.5 -71.5s41.5 -23.5 73.5 -23.5s56.5 7.83301 73.5 23.5s25.5 39.5 25.5 71.5h61c-0.666992 -46 -14.5 -81.833 -41.5 -107.5
s-66.5 -38.5 -118.5 -38.5z" />
    <glyph glyph-name="Gdotaccent" unicode="&#x120;" horiz-adv-x="591" 
d="M341 804c-34 0 -51 16.667 -51 50c0 34 17 51 51 51c34.667 0 52 -17 52 -51c0 -33.333 -17.333 -50 -52 -50zM363 -10c-109.333 0.666992 -189.498 31.667 -240.498 93s-76.5 156.666 -76.5 285.999c0 131.333 26.333 227.5 79 288.5s135.667 91.5 249 91.5
c21.333 0 46 -1.66699 74 -5s55.667 -8 83 -14v-69c-30.667 6.66699 -58 11.334 -82 14.001s-46.667 4 -68 4c-45.333 0 -84 -5.66699 -116 -17s-58.167 -29.5 -78.5 -54.5s-35.166 -57 -44.499 -96s-14 -86.5 -14 -142.5c0 -54 4.66699 -100.5 14 -139.5
s23.666 -71 42.999 -96s44 -43.5 74 -55.5s66 -18 108 -18c11.333 0 25.166 0.666992 41.499 2s33.166 3.33301 50.499 6v308h75v-366c-33.333 -6.66699 -63.833 -11.667 -91.5 -15s-54.167 -5 -79.5 -5z" />
    <glyph glyph-name="gdotaccent" unicode="&#x121;" horiz-adv-x="524" 
d="M232 -220c-25.333 0 -50.666 1.99902 -75.999 5.99902s-49.666 9.66699 -72.999 17l7 65c46.667 -16 91.667 -24 135 -24c51.333 0 90.166 14.833 116.499 44.5s39.833 80.167 40.5 151.5v26h-4c-33.333 -44.667 -81.333 -67 -144 -67
c-64.667 0 -112.834 21.667 -144.501 65s-47.5 110.666 -47.5 201.999c0 92.667 21 163 63 211s101 72 177 72c29.333 0 58 -1.83301 86 -5.5s58.333 -10.167 91 -19.5v-464c0 -50.667 -5 -93.667 -15 -129s-24.833 -64.166 -44.5 -86.499s-43.5 -38.666 -71.5 -48.999
s-60 -15.5 -96 -15.5zM252 59.999c16.667 0 32.668 2.66699 48.001 8s29 13 41 23s21.5 22 28.5 36s10.5 30 10.5 48v303c-18.667 3.33301 -35.667 6 -51 8s-31.333 3 -48 3c-52 0 -91.333 -17.5 -118 -52.5s-40 -89.833 -40 -164.5c0 -72.667 10.667 -126.167 32 -160.5
s53.666 -51.5 96.999 -51.5zM275.001 630.999c-34 0 -51 17 -51 51c0 33.333 17 50 51 50c16 0 28.5 -4 37.5 -12s13.5 -20.667 13.5 -38c0 -18 -4.5 -31 -13.5 -39s-21.5 -12 -37.5 -12z" />
    <glyph glyph-name="Gcommaaccent" unicode="&#x122;" horiz-adv-x="591" 
d="M311 -68h82l-65 -152h-65zM363 -10c-109.333 0.666992 -189.498 31.667 -240.498 93s-76.5 156.666 -76.5 285.999c0 131.333 26.333 227.5 79 288.5s135.667 91.5 249 91.5c21.333 0 46 -1.66699 74 -5s55.667 -8 83 -14v-69c-30.667 6.66699 -58 11.334 -82 14.001
s-46.667 4 -68 4c-45.333 0 -84 -5.66699 -116 -17s-58.167 -29.5 -78.5 -54.5s-35.166 -57 -44.499 -96s-14 -86.5 -14 -142.5c0 -54 4.66699 -100.5 14 -139.5s23.666 -71 42.999 -96s44 -43.5 74 -55.5s66 -18 108 -18c11.333 0 25.166 0.666992 41.499 2
s33.166 3.33301 50.499 6v308h75v-366c-33.333 -6.66699 -63.833 -11.667 -91.5 -15s-54.167 -5 -79.5 -5z" />
    <glyph glyph-name="gcommaaccent" unicode="&#x123;" horiz-adv-x="524" 
d="M395 802l-48 -150h-78l64 150h62zM232 -220c-25.333 0 -50.666 1.99902 -75.999 5.99902s-49.666 9.66699 -72.999 17l7 65c46.667 -16 91.667 -24 135 -24c51.333 0 90.166 14.833 116.499 44.5s39.833 80.167 40.5 151.5v26h-4c-33.333 -44.667 -81.333 -67 -144 -67
c-64.667 0 -112.834 21.667 -144.501 65s-47.5 110.666 -47.5 201.999c0 92.667 21 163 63 211s101 72 177 72c29.333 0 58 -1.83301 86 -5.5s58.333 -10.167 91 -19.5v-464c0 -50.667 -5 -93.667 -15 -129s-24.833 -64.166 -44.5 -86.499s-43.5 -38.666 -71.5 -48.999
s-60 -15.5 -96 -15.5zM252 59.999c16.667 0 32.668 2.66699 48.001 8s29 13 41 23s21.5 22 28.5 36s10.5 30 10.5 48v303c-18.667 3.33301 -35.667 6 -51 8s-31.333 3 -48 3c-52 0 -91.333 -17.5 -118 -52.5s-40 -89.833 -40 -164.5c0 -72.667 10.667 -126.167 32 -160.5
s53.666 -51.5 96.999 -51.5z" />
    <glyph glyph-name="Hcircumflex" unicode="&#x124;" horiz-adv-x="672" 
d="M78 740h80v-327h355v327h80v-740h-80v343h-355v-343h-80v740zM183 876l144 73l145 -73v-65l-145 72l-144 -72v65z" />
    <glyph glyph-name="hcircumflex" unicode="&#x125;" horiz-adv-x="522" 
d="M131 888l144 73l145 -73v-64l-144 72l-145 -72v64zM67 808l78.001 0.000976562v-327c40 23.333 74.667 40.666 104 51.999s57.666 17 84.999 17c42.667 0 74 -11.333 94 -34s30 -59.334 30 -110.001v-406h-78v384c0 34.667 -6 59.334 -18 74.001s-30.667 22 -56 22
c-22.667 0 -47.5 -4.83301 -74.5 -14.5s-55.833 -23.5 -86.5 -41.5v-424h-78v808z" />
    <glyph glyph-name="Hbar" unicode="&#x126;" horiz-adv-x="699" 
d="M2 591h89v149h80v-149h355v149h80v-149h93v-45h-93v-546h-80v343h-355v-343h-80v546h-89v45zM526 413v133h-355v-133h355z" />
    <glyph glyph-name="hbar" unicode="&#x127;" horiz-adv-x="522" 
d="M-22 698l89.001 0.000976562v110h78v-110h145v-50h-145v-167c40 23.333 74.667 40.666 104 51.999s57.666 17 84.999 17c42.667 0 74 -11.333 94 -34s30 -59.334 30 -110.001v-406h-78v384c0 34.667 -6 59.334 -18 74.001s-30.667 22 -56 22
c-22.667 0 -47.5 -4.83301 -74.5 -14.5s-55.833 -23.5 -86.5 -41.5v-424h-78v648h-89v50z" />
    <glyph glyph-name="Itilde" unicode="&#x128;" horiz-adv-x="237" 
d="M78 740h80v-740h-80v740zM-47 851c14.667 21.333 31.668 38.6641 51.001 51.9971s38.666 20 57.999 20c14 0 26.833 -2.16699 38.5 -6.5s23.167 -9.16602 34.5 -14.499s22.666 -10.166 33.999 -14.499s23.333 -6.5 36 -6.5c24 0 46.667 13 68 39l26 -22
c-12.667 -23.333 -29 -41.666 -49 -54.999s-40 -20 -60 -20c-13.333 0 -25.833 2.16699 -37.5 6.5s-23.167 9 -34.5 14s-22.666 9.66699 -33.999 14s-23 6.5 -35 6.5c-24.667 0 -49 -12.667 -73 -38z" />
    <glyph glyph-name="itilde" unicode="&#x129;" horiz-adv-x="215" 
d="M-61 665c14 21.333 30.665 38.1689 49.998 50.502s38.666 18.5 57.999 18.5c13.333 0 25.833 -2.33301 37.5 -7s23 -9.83398 34 -15.501s22.167 -10.834 33.5 -15.501s23 -7 35 -7c23.333 0 45.333 13 66 39l28 -25c-12.667 -23.333 -28.667 -41.333 -48 -54
s-39 -19 -59 -19c-13.333 0 -25.666 2.33301 -36.999 7s-22.666 10 -33.999 16s-22.666 11.333 -33.999 16s-23 7 -35 7s-24 -3.5 -36 -10.5s-23 -16.5 -33 -28.5zM68.998 540.003h78v-540h-78v540z" />
    <glyph glyph-name="Imacron" unicode="&#x12a;" horiz-adv-x="237" 
d="M78 740h80v-740h-80v740zM-19 901h270v-60h-270v60z" />
    <glyph glyph-name="imacron" unicode="&#x12b;" horiz-adv-x="215" 
d="M69 540h78v-540h-78v540zM-30 703h281v-58h-281v58z" />
    <glyph glyph-name="Ibreve" unicode="&#x12c;" horiz-adv-x="237" 
d="M78 740h80v-740h-80v740zM121 810c-52 0 -91.667 13.167 -119 39.5s-41 62.166 -41 107.499h61c0 -64.667 33 -97 99 -97s99 32.333 99 97h61c0 -45.333 -13.667 -81.166 -41 -107.499s-67 -39.5 -119 -39.5z" />
    <glyph glyph-name="ibreve" unicode="&#x12d;" horiz-adv-x="215" 
d="M109 618c-50 0 -88.167 12.833 -114.5 38.5s-39.833 61.5 -40.5 107.5h58c0 -32 8.33301 -55.833 25 -71.5s40.667 -23.5 72 -23.5s55.333 7.83301 72 23.5s25 39.5 25 71.5h58c-1.33301 -46 -15 -81.833 -41 -107.5s-64 -38.5 -114 -38.5zM69 540h78v-540h-78v540z" />
    <glyph glyph-name="Iogonek" unicode="&#x12e;" horiz-adv-x="237" 
d="M78 740h80.001v-756c-34.667 -15.333 -60.334 -32.666 -77.001 -51.999s-25 -39.333 -25 -60c0 -25.333 15 -38 45 -38c19.333 0 38 3.66699 56 11v-53c-19.333 -8 -40 -12 -62 -12c-65.333 0 -98 29 -98 87c0 25.333 7.66699 48.666 23 69.999s39.333 42.333 72 63h-14
v740z" />
    <glyph glyph-name="iogonek" unicode="&#x12f;" horiz-adv-x="214" 
d="M68 540h78.001v-556c-34.667 -15.333 -60.334 -32.666 -77.001 -51.999s-25 -39.333 -25 -60c0 -25.333 15 -38 45 -38c19.333 0 38 3.66699 56 11v-53c-19.333 -8 -40 -12 -62 -12c-65.333 0 -98 29 -98 87c0 25.333 7.66699 48.666 23 69.999s39.333 42.333 72 63h-12
v540zM107.001 658c-33.333 0 -50 16.667 -50 50c0 32.667 16.667 49 50 49c34 0 51 -16.333 51 -49c0 -33.333 -17 -50 -51 -50z" />
    <glyph glyph-name="Idotaccent" unicode="&#x130;" horiz-adv-x="237" 
d="M78 740h80v-740h-80v740zM120 804c-34 0 -51 16.667 -51 50c0 34 17 51 51 51c34.667 0 52 -17 52 -51c0 -33.333 -17.333 -50 -52 -50z" />
    <glyph glyph-name="dotlessi" unicode="&#x131;" horiz-adv-x="214" 
d="M68 540h78v-540h-78v540z" />
    <glyph glyph-name="IJ" unicode="&#x132;" horiz-adv-x="473" 
d="M78 740h80v-740h-80v740zM236 -159c16 34.667 29.1699 65.667 39.5029 93s18.666 54 24.999 80s10.666 52.667 12.999 80s3.5 57.666 3.5 90.999v555h80v-560c0 -32 -2 -62.833 -6 -92.5s-10.333 -59.167 -19 -88.5s-19.834 -59.166 -33.501 -89.499
s-30.167 -62.5 -49.5 -96.5z" />
    <glyph glyph-name="ij" unicode="&#x133;" horiz-adv-x="425" 
d="M107 658c-33.333 0 -50 16.667 -50 50c0 32.667 16.667 49 50 49c34 0 51 -16.333 51 -49c0 -33.333 -17 -50 -51 -50zM68 540h78v-540h-78v540zM320 658c-34 0 -51 16.667 -51 50c0 32.667 17 49 51 49s51 -16.333 51 -49c0 -33.333 -17 -50 -51 -50zM214 -197
c23.333 44.667 40.5 92.1689 51.5 142.502s16.5 107.166 16.5 170.499v32v77v99.5v100.5c0 31.333 -0.166992 57.666 -0.5 78.999s-0.5 33.333 -0.5 36h79v-453c-0.666992 -53.333 -9 -106.833 -25 -160.5s-38 -102.5 -66 -146.5z" />
    <glyph glyph-name="Jcircumflex" unicode="&#x134;" horiz-adv-x="237" 
d="M-1 -159c16 34.667 29.1699 65.667 39.5029 93s18.666 54 24.999 80s10.666 52.667 12.999 80s3.5 57.666 3.5 90.999v555h80v-560c0 -32 -2 -62.833 -6 -92.5s-10.333 -59.167 -19 -88.5s-19.834 -59.166 -33.501 -89.499s-30.167 -62.5 -49.5 -96.5zM-24.9971 876
l144 73l145 -73v-65l-145 72l-144 -72v65z" />
    <glyph glyph-name="jcircumflex" unicode="&#x135;" horiz-adv-x="212" 
d="M-38 697l143 73l143 -73v-64l-143 72l-143 -72v64zM-1 -200c12 24.667 22.3311 49.1699 30.998 73.5029s15.834 49.666 21.501 75.999s9.83398 54.333 12.501 84s4 62.5 4 98.5v32.5v69v88v91.5c0 29.333 -0.166992 55.5 -0.5 78.5s-0.5 39.167 -0.5 48.5h78v-453
c-1.33301 -54.667 -9.5 -107.834 -24.5 -159.501s-36.833 -100.834 -65.5 -147.501z" />
    <glyph glyph-name="Kcommaaccent" unicode="&#x136;" horiz-adv-x="598" 
d="M270 -68h82l-65 -152h-65zM78 740h80v-328h104l221 328h93l-226 -333l-32 -26v-5l34 -24l243 -352h-92l-236 342h-109v-342h-80v740z" />
    <glyph glyph-name="kcommaaccent" unicode="&#x137;" horiz-adv-x="481" 
d="M232 -68h82l-65 -152h-65zM67 808h78v-501h76l158 233h87l-176 -253l-16 -9v-2l17 -10l192 -266h-88l-176 248h-74v-248h-78v808z" />
    <glyph glyph-name="kgreenlandic" unicode="&#x138;" horiz-adv-x="481" 
d="M67 540h79v-233h95l135 233h88l-154 -253l-17 -9v-2l18 -10l169 -266h-87l-153 248h-94v-248h-79v540z" />
    <glyph glyph-name="Lacute" unicode="&#x139;" horiz-adv-x="450" 
d="M94 796l75 140h83l-96 -145zM78 740h80v-671h279v-69h-359v740z" />
    <glyph glyph-name="lacute" unicode="&#x13a;" horiz-adv-x="216" 
d="M82 846l71 184h82l-97 -191zM69 808h79v-808h-79v808z" />
    <glyph glyph-name="Lcommaaccent" unicode="&#x13b;" horiz-adv-x="450" 
d="M226 -68h82l-65 -152h-65zM78 740h80v-671h279v-69h-359v740z" />
    <glyph glyph-name="lcommaaccent" unicode="&#x13c;" horiz-adv-x="216" 
d="M78 -68h82l-65 -152h-65zM69 808h79v-808h-79v808z" />
    <glyph glyph-name="Lcaron" unicode="&#x13d;" horiz-adv-x="462" 
d="M348 758h67l-28 -228h-39v228zM78 740h80v-671h279v-69h-359v740z" />
    <glyph glyph-name="lcaron" unicode="&#x13e;" horiz-adv-x="217" 
d="M209 808h67l-28 -228h-39v228zM69 808h79v-808h-79v808z" />
    <glyph glyph-name="Ldot" unicode="&#x13f;" horiz-adv-x="457" 
d="M78 740h80v-671h279v-69h-359v740zM353 321c-16.667 0 -29.334 4 -38.001 12s-13 21 -13 39s4.33301 31 13 39s21.334 12 38.001 12c34.667 0 52 -17 52 -51s-17.333 -51 -52 -51z" />
    <glyph glyph-name="ldot" unicode="&#x140;" horiz-adv-x="292" 
d="M69 808h79v-808h-79v808zM254 319c-16.667 0 -29.334 4 -38.001 12s-13 21 -13 39s4.33301 31 13 39s21.334 12 38.001 12c34.667 0 52 -17 52 -51s-17.333 -51 -52 -51z" />
    <glyph glyph-name="Lslash" unicode="&#x141;" horiz-adv-x="472" 
d="M12 294l88 65v381h80v-322l120 89v-72l-120 -88v-278h279v-69h-359v288l-88 -65v71z" />
    <glyph glyph-name="lslash" unicode="&#x142;" horiz-adv-x="305" 
d="M21 307l88 65v436h79v-377l100 74v-64l-100 -74v-367h-79v308l-88 -65v64z" />
    <glyph glyph-name="Nacute" unicode="&#x143;" horiz-adv-x="695" 
d="M311 796l75 140h83l-96 -145zM78 740h73l338 -521l48 -84h6v605h74v-740h-74l-336 518l-49 88l-6 -1v-605h-74v740z" />
    <glyph glyph-name="nacute" unicode="&#x144;" horiz-adv-x="522" 
d="M239 617l71 184h82l-97 -191zM67 540h66l6 -60h5c40 24.667 74.833 42.5 104.5 53.5s58.5 16.5 86.5 16.5c42 0 73 -11.333 93 -34s30 -59.334 30 -110.001v-406h-78v384c0 34.667 -6 59.334 -18 74.001s-30.667 22 -56 22c-23.333 0 -48.333 -4.83301 -75 -14.5
s-55 -23.5 -85 -41.5v-424h-79v540z" />
    <glyph glyph-name="Ncommaaccent" unicode="&#x145;" horiz-adv-x="695" 
d="M331 -68h82l-65 -152h-65zM78 740h73l338 -521l48 -84h6v605h74v-740h-74l-336 518l-49 88l-6 -1v-605h-74v740z" />
    <glyph glyph-name="ncommaaccent" unicode="&#x146;" horiz-adv-x="522" 
d="M231 -68h82l-65 -152h-65zM67 540h66l6 -60h5c40 24.667 74.833 42.5 104.5 53.5s58.5 16.5 86.5 16.5c42 0 73 -11.333 93 -34s30 -59.334 30 -110.001v-406h-78v384c0 34.667 -6 59.334 -18 74.001s-30.667 22 -56 22c-23.333 0 -48.333 -4.83301 -75 -14.5
s-55 -23.5 -85 -41.5v-424h-79v540z" />
    <glyph glyph-name="Ncaron" unicode="&#x147;" horiz-adv-x="695" 
d="M209 938l144 -73l144 73v-66l-144 -72l-144 72v66zM78 740h73l338 -521l48 -84h6v605h74v-740h-74l-336 518l-49 88l-6 -1v-605h-74v740z" />
    <glyph glyph-name="ncaron" unicode="&#x148;" horiz-adv-x="522" 
d="M124 773l144 -73l145 73v-65l-145 -73l-144 73v65zM67 540h66l6 -60h5c40 24.667 74.833 42.5 104.5 53.5s58.5 16.5 86.5 16.5c42 0 73 -11.333 93 -34s30 -59.334 30 -110.001v-406h-78v384c0 34.667 -6 59.334 -18 74.001s-30.667 22 -56 22
c-23.333 0 -48.333 -4.83301 -75 -14.5s-55 -23.5 -85 -41.5v-424h-79v540z" />
    <glyph glyph-name="napostrophe" unicode="&#x149;" horiz-adv-x="583" 
d="M100 808v-4l-31 -224h-37v228h68zM127 540h66l6 -60h5c40 24.667 74.833 42.5 104.5 53.5s58.5 16.5 86.5 16.5c42 0 73 -11.333 93 -34s30 -59.334 30 -110.001v-406h-78v384c0 34.667 -6 59.334 -18 74.001s-30.667 22 -56 22c-23.333 0 -48.333 -4.83301 -75 -14.5
s-55 -23.5 -85 -41.5v-424h-79v540z" />
    <glyph glyph-name="Eng" unicode="&#x14a;" horiz-adv-x="694" 
d="M463 -170c15.333 32.667 29.001 65.5029 41.001 98.5029s20.667 63.833 26 92.5l-322 499l-50 87l-6 -1v-606h-74v740h72l338 -522l49 -85h6v607h74v-665c0 -16.667 -2.5 -35.834 -7.5 -57.501s-11.833 -44.334 -20.5 -68.001s-18.834 -47.334 -30.501 -71.001
s-24.167 -45.5 -37.5 -65.5z" />
    <glyph glyph-name="eng" unicode="&#x14b;" horiz-adv-x="521" 
d="M317 -201c9.33301 20.667 17.8291 43.332 25.4961 67.999s14.334 49.834 20.001 75.501s10 51.5 13 77.5s4.5 50.667 4.5 74v286c0 35.333 -5.83301 60.5 -17.5 75.5s-30.5 22.5 -56.5 22.5c-45.333 0 -98.666 -18.667 -159.999 -56v-422h-79v540h66l6 -59h4
c40.667 24 75.834 41.5 105.501 52.5s58.5 16.5 86.5 16.5c42.667 0 73.834 -11.5 93.501 -34.5s29.5 -59.5 29.5 -109.5v-322c0 -24.667 -2.16699 -51 -6.5 -79s-10 -55.5 -17 -82.5s-15.333 -52.5 -25 -76.5s-20.167 -45 -31.5 -63z" />
    <glyph glyph-name="Omacron" unicode="&#x14c;" horiz-adv-x="658" 
d="M188 901h270v-60h-270v60zM328 -10c-93.333 0 -163.666 31.5 -210.999 94.5s-71 157.833 -71 284.5c0 128 23.667 223.5 71 286.5s117.666 94.5 210.999 94.5c94 0 164.833 -31.5 212.5 -94.5s71.5 -158.5 71.5 -286.5c0 -126.667 -23.833 -221.5 -71.5 -284.5
s-118.5 -94.5 -212.5 -94.5zM328 60c70.667 0 122 24.668 154 74.001s48 127.666 48 234.999s-16.333 186.166 -49 236.499s-83.667 75.5 -153 75.5s-120.166 -25 -152.499 -75s-48.5 -129 -48.5 -237c0 -107.333 16.167 -185.666 48.5 -234.999s83.166 -74 152.499 -74z
" />
    <glyph glyph-name="omacron" unicode="&#x14d;" horiz-adv-x="524" 
d="M117 703h281v-58h-281v58zM262 -9c-72.667 0 -127.667 23.667 -165 71s-56 116.666 -56 207.999s18.833 160.833 56.5 208.5s92.5 71.5 164.5 71.5s126.667 -23.833 164 -71.5s56 -117.167 56 -208.5s-18.667 -160.666 -56 -207.999s-92 -71 -164 -71zM262 56
c48.667 0 84.167 17 106.5 51s33.5 88.333 33.5 163s-11.333 129 -34 163s-58 51 -106 51c-48.667 0 -84.167 -17 -106.5 -51s-33.5 -88.333 -33.5 -163s11.167 -129 33.5 -163s57.833 -51 106.5 -51z" />
    <glyph glyph-name="Obreve" unicode="&#x14e;" horiz-adv-x="658" 
d="M329 810c-52 0 -91.667 13.167 -119 39.5s-41 62.166 -41 107.499h61c0 -64.667 33 -97 99 -97s99 32.333 99 97h61c0 -45.333 -13.667 -81.166 -41 -107.499s-67 -39.5 -119 -39.5zM328 -10c-93.333 0 -163.666 31.5 -210.999 94.5s-71 157.833 -71 284.5
c0 128 23.667 223.5 71 286.5s117.666 94.5 210.999 94.5c94 0 164.833 -31.5 212.5 -94.5s71.5 -158.5 71.5 -286.5c0 -126.667 -23.833 -221.5 -71.5 -284.5s-118.5 -94.5 -212.5 -94.5zM328 60c70.667 0 122 24.668 154 74.001s48 127.666 48 234.999
s-16.333 186.166 -49 236.499s-83.667 75.5 -153 75.5s-120.166 -25 -152.499 -75s-48.5 -129 -48.5 -237c0 -107.333 16.167 -185.666 48.5 -234.999s83.166 -74 152.499 -74z" />
    <glyph glyph-name="obreve" unicode="&#x14f;" horiz-adv-x="524" 
d="M262 -9c-72.667 0 -127.667 23.667 -165 71s-56 116.666 -56 207.999s18.833 160.833 56.5 208.5s92.5 71.5 164.5 71.5s126.667 -23.833 164 -71.5s56 -117.167 56 -208.5s-18.667 -160.666 -56 -207.999s-92 -71 -164 -71zM262 56c48.667 0 84.167 17 106.5 51
s33.5 88.333 33.5 163s-11.333 129 -34 163s-58 51 -106 51c-48.667 0 -84.167 -17 -106.5 -51s-33.5 -88.333 -33.5 -163s11.167 -129 33.5 -163s57.833 -51 106.5 -51zM255 618c-52 0 -91.333 12.833 -118 38.5s-40.667 61.5 -42 107.5h61c0 -32 8.5 -55.833 25.5 -71.5
s41.5 -23.5 73.5 -23.5s56.5 7.83301 73.5 23.5s25.5 39.5 25.5 71.5h61c-0.666992 -46 -14.5 -81.833 -41.5 -107.5s-66.5 -38.5 -118.5 -38.5z" />
    <glyph glyph-name="Ohungarumlaut" unicode="&#x150;" horiz-adv-x="658" 
d="M328 -10c-93.333 0 -163.666 31.5 -210.999 94.5s-71 157.833 -71 284.5c0 128 23.667 223.5 71 286.5s117.666 94.5 210.999 94.5c94 0 164.833 -31.5 212.5 -94.5s71.5 -158.5 71.5 -286.5c0 -126.667 -23.833 -221.5 -71.5 -284.5s-118.5 -94.5 -212.5 -94.5zM328 60
c70.667 0 122 24.668 154 74.001s48 127.666 48 234.999s-16.333 186.166 -49 236.499s-83.667 75.5 -153 75.5s-120.166 -25 -152.499 -75s-48.5 -129 -48.5 -237c0 -107.333 16.167 -185.666 48.5 -234.999s83.166 -74 152.499 -74zM213 802.001l74 132h75l-96 -145z
M362 802.001l75 132h75l-95 -145z" />
    <glyph glyph-name="ohungarumlaut" unicode="&#x151;" horiz-adv-x="524" 
d="M142 622l72 181h77l-98 -191zM308 622l72 181h76l-97 -191zM262 -9c-72.667 0 -127.667 23.667 -165 71s-56 116.666 -56 207.999s18.833 160.833 56.5 208.5s92.5 71.5 164.5 71.5s126.667 -23.833 164 -71.5s56 -117.167 56 -208.5s-18.667 -160.666 -56 -207.999
s-92 -71 -164 -71zM262 56c48.667 0 84.167 17 106.5 51s33.5 88.333 33.5 163s-11.333 129 -34 163s-58 51 -106 51c-48.667 0 -84.167 -17 -106.5 -51s-33.5 -88.333 -33.5 -163s11.167 -129 33.5 -163s57.833 -51 106.5 -51z" />
    <glyph glyph-name="OE" unicode="&#x152;" horiz-adv-x="859" 
d="M333 -5c-94 0 -165.334 31.167 -214.001 93.5s-73 155.833 -73 280.5c0 126 24.5 220.167 73.5 282.5s120.167 93.5 213.5 93.5c16 0 32.333 -0.5 49 -1.5s31.667 -2.16699 45 -3.5h380v-69h-302v-261h276v-67h-276v-274h311v-69h-389
c-12.667 -2 -27.667 -3.33301 -45 -4s-33.666 -1 -48.999 -1zM338.999 64c13.333 0 27.8311 0.5 43.498 1.5s29.834 2.5 42.501 4.5v599c-13.333 2.66699 -27.666 4.5 -42.999 5.5s-30 1.5 -44 1.5c-73.333 0 -126.833 -24.667 -160.5 -74s-50.5 -127 -50.5 -233
s16.667 -183.333 50 -232s87.333 -73 162 -73z" />
    <glyph glyph-name="oe" unicode="&#x153;" horiz-adv-x="841" 
d="M627 -9c-46 0 -84.1699 10.834 -114.503 32.501s-53.166 52.5 -68.499 92.5h-4c-31.333 -83.333 -90.666 -125 -177.999 -125c-72.667 0 -127.667 23.667 -165 71s-56 116.666 -56 207.999s18.833 160.833 56.5 208.5s92.5 71.5 164.5 71.5c44.667 0 82 -11 112 -33
s52 -54 66 -96h6c14.667 42 36.834 73.833 66.501 95.5s66.5 32.5 110.5 32.5c58.667 0 103.167 -19.833 133.5 -59.5s45.5 -98.167 45.5 -175.5c0 -16.667 -0.333008 -30.167 -1 -40.5s-2 -20.833 -4 -31.5h-314c2.66699 -124 52 -186 148 -186c44 0 92.667 10 146 30
l5 -64c-22 -9.33301 -46.833 -16.833 -74.5 -22.5s-54.5 -8.5 -80.5 -8.5zM261.997 56.001c48.667 0 84.167 17 106.5 51s33.5 88.333 33.5 163s-11.333 129 -34 163s-58 51 -106 51c-48.667 0 -84.167 -17 -106.5 -51s-33.5 -88.333 -33.5 -163s11.167 -129 33.5 -163
s57.833 -51 106.5 -51zM728.997 297.001c-2 67.333 -11.5 115.668 -28.5 145.001s-43.5 44 -79.5 44c-42.667 0 -75.5 -15.833 -98.5 -47.5s-36.167 -78.834 -39.5 -141.501h246z" />
    <glyph glyph-name="Racute" unicode="&#x154;" horiz-adv-x="582" 
d="M321 276c-12 -1.33301 -24.3311 -2.33301 -36.998 -3s-25.667 -1 -39 -1c-12.667 0 -26.834 0.5 -42.501 1.5s-30.5 2.16699 -44.5 3.5v-277h-80v735c55.333 10.667 110.666 16 165.999 16c101.333 0 175.333 -19.167 222 -57.5s70 -99.166 70 -182.499
c0 -58.667 -11.5 -105.834 -34.5 -141.501s-58.833 -61.5 -107.5 -77.5l157 -292h-87zM253.002 339c71.333 0 122.667 13.332 154 39.999s47 70.667 47 132c0 60.667 -15.333 104.334 -46 131.001s-81 40 -151 40c-13.333 0 -28.833 -0.666992 -46.5 -2
s-35.167 -3.33301 -52.5 -6v-328c14 -2 29.5 -3.66699 46.5 -5s33.167 -2 48.5 -2zM259.003 795.999l75 140h83l-96 -145z" />
    <glyph glyph-name="racute" unicode="&#x155;" horiz-adv-x="339" 
d="M162 617l71 184h82l-97 -191zM67 540h65.998l6 -68h5c20.667 14.667 45.5 29.334 74.5 44.001s58.5 25.667 88.5 33h21v-80h-30c-29.333 -4.66699 -57.166 -11.834 -83.499 -21.501s-49.166 -21.167 -68.499 -34.5v-413h-79v540z" />
    <glyph glyph-name="Rcommaaccent" unicode="&#x156;" horiz-adv-x="582" 
d="M272 -68h82l-65 -152h-65zM321 276c-12 -1.33301 -24.3311 -2.33301 -36.998 -3s-25.667 -1 -39 -1c-12.667 0 -26.834 0.5 -42.501 1.5s-30.5 2.16699 -44.5 3.5v-277h-80v735c55.333 10.667 110.666 16 165.999 16c101.333 0 175.333 -19.167 222 -57.5
s70 -99.166 70 -182.499c0 -58.667 -11.5 -105.834 -34.5 -141.501s-58.833 -61.5 -107.5 -77.5l157 -292h-87zM253.002 339c71.333 0 122.667 13.332 154 39.999s47 70.667 47 132c0 60.667 -15.333 104.334 -46 131.001s-81 40 -151 40
c-13.333 0 -28.833 -0.666992 -46.5 -2s-35.167 -3.33301 -52.5 -6v-328c14 -2 29.5 -3.66699 46.5 -5s33.167 -2 48.5 -2z" />
    <glyph glyph-name="rcommaaccent" unicode="&#x157;" horiz-adv-x="339" 
d="M74 -68h82l-65 -152h-65zM67 540h65.998l6 -68h5c20.667 14.667 45.5 29.334 74.5 44.001s58.5 25.667 88.5 33h21v-80h-30c-29.333 -4.66699 -57.166 -11.834 -83.499 -21.501s-49.166 -21.167 -68.499 -34.5v-413h-79v540z" />
    <glyph glyph-name="Rcaron" unicode="&#x158;" horiz-adv-x="582" 
d="M155 938l144 -73l144 73v-66l-144 -72l-144 72v66zM321 276c-12 -1.33301 -24.3311 -2.33301 -36.998 -3s-25.667 -1 -39 -1c-12.667 0 -26.834 0.5 -42.501 1.5s-30.5 2.16699 -44.5 3.5v-277h-80v735c55.333 10.667 110.666 16 165.999 16
c101.333 0 175.333 -19.167 222 -57.5s70 -99.166 70 -182.499c0 -58.667 -11.5 -105.834 -34.5 -141.501s-58.833 -61.5 -107.5 -77.5l157 -292h-87zM253.002 339c71.333 0 122.667 13.332 154 39.999s47 70.667 47 132c0 60.667 -15.333 104.334 -46 131.001
s-81 40 -151 40c-13.333 0 -28.833 -0.666992 -46.5 -2s-35.167 -3.33301 -52.5 -6v-328c14 -2 29.5 -3.66699 46.5 -5s33.167 -2 48.5 -2z" />
    <glyph glyph-name="rcaron" unicode="&#x159;" horiz-adv-x="339" 
d="M49 773l144 -73l145 73v-65l-145 -73l-144 73v65zM67 540h65.998l6 -68h5c20.667 14.667 45.5 29.334 74.5 44.001s58.5 25.667 88.5 33h21v-80h-30c-29.333 -4.66699 -57.166 -11.834 -83.499 -21.501s-49.166 -21.167 -68.499 -34.5v-413h-79v540z" />
    <glyph glyph-name="Sacute" unicode="&#x15a;" horiz-adv-x="507" 
d="M244 -13c-15.333 0 -31.999 0.834961 -49.999 2.50195s-36.167 4 -54.5 7s-36.333 6.5 -54 10.5s-33.834 8.66699 -48.501 14l4 69c12.667 -4.66699 27.334 -9 44.001 -13s33.667 -7.5 51 -10.5s34.666 -5.33301 51.999 -7s33.333 -2.5 48 -2.5
c50.667 0 89.5 11.333 116.5 34s40.5 55 40.5 97c0 20 -3.5 37.5 -10.5 52.5s-17.167 28.333 -30.5 40s-29.833 22.167 -49.5 31.5s-42.167 18.666 -67.5 27.999c-32 11.333 -59.667 23.166 -83 35.499s-42.833 26.666 -58.5 42.999s-27.167 35.166 -34.5 56.499
s-11 46.333 -11 75c0 30.667 5.33301 58.5 16 83.5s26 46.333 46 64s44 31.334 72 41.001s59.333 14.5 94 14.5c25.333 0 51.833 -1.83301 79.5 -5.5s57.5 -9.5 89.5 -17.5l-4 -68c-30 7.33301 -58.833 12.833 -86.5 16.5s-52.167 5.5 -73.5 5.5
c-46.667 0 -83.667 -12 -111 -36s-41 -56.667 -41 -98c0 -18 2.83301 -33.667 8.5 -47s14.834 -25.666 27.501 -36.999s28.667 -21.666 48 -30.999s42.666 -19 69.999 -29c30.667 -11.333 58 -23.333 82 -36s44 -27.167 60 -43.5s28.167 -35.5 36.5 -57.5s12.5 -48 12.5 -78
c0 -64.667 -20.167 -114.834 -60.5 -150.501s-96.833 -53.5 -169.5 -53.5zM226.001 796.002l75 140h83l-96 -145z" />
    <glyph glyph-name="sacute" unicode="&#x15b;" horiz-adv-x="405" 
d="M175 617l71 184h82l-97 -191zM192 -11c-21.333 0 -43.665 1.83105 -66.998 5.49805s-51.666 9.16699 -84.999 16.5v65c25.333 -7.33301 50.5 -13.166 75.5 -17.499s49.167 -6.5 72.5 -6.5c34 0 60 8 78 24s27 38.667 27 68c0 28 -8 49.333 -24 64s-39.333 25.667 -70 33
c-17.333 4 -35 8.5 -53 13.5s-34.5 12.833 -49.5 23.5s-27.333 25.5 -37 44.5s-14.5 44.5 -14.5 76.5c0 48 15.167 85.5 45.5 112.5s72.5 40.5 126.5 40.5c19.333 0 38.5 -1.16699 57.5 -3.5s44.167 -6.83301 75.5 -13.5l-2 -65
c-28.667 6.66699 -51.834 11.334 -69.501 14.001s-34.5 4 -50.5 4c-34 0 -60.5 -7.66699 -79.5 -23s-28.5 -36.666 -28.5 -63.999c0 -16.667 2.66699 -30.334 8 -41.001s12.666 -19.334 21.999 -26.001s20.333 -12 33 -16s26 -8 40 -12c21.333 -5.33301 41 -11.833 59 -19.5
s33.5 -17.5 46.5 -29.5s23 -26.667 30 -44s10.5 -39 10.5 -65c0 -49.333 -15.833 -88.166 -47.5 -116.499s-74.834 -42.5 -129.501 -42.5z" />
    <glyph glyph-name="Scircumflex" unicode="&#x15c;" horiz-adv-x="507" 
d="M244 -13c-15.333 0 -31.999 0.834961 -49.999 2.50195s-36.167 4 -54.5 7s-36.333 6.5 -54 10.5s-33.834 8.66699 -48.501 14l4 69c12.667 -4.66699 27.334 -9 44.001 -13s33.667 -7.5 51 -10.5s34.666 -5.33301 51.999 -7s33.333 -2.5 48 -2.5
c50.667 0 89.5 11.333 116.5 34s40.5 55 40.5 97c0 20 -3.5 37.5 -10.5 52.5s-17.167 28.333 -30.5 40s-29.833 22.167 -49.5 31.5s-42.167 18.666 -67.5 27.999c-32 11.333 -59.667 23.166 -83 35.499s-42.833 26.666 -58.5 42.999s-27.167 35.166 -34.5 56.499
s-11 46.333 -11 75c0 30.667 5.33301 58.5 16 83.5s26 46.333 46 64s44 31.334 72 41.001s59.333 14.5 94 14.5c25.333 0 51.833 -1.83301 79.5 -5.5s57.5 -9.5 89.5 -17.5l-4 -68c-30 7.33301 -58.833 12.833 -86.5 16.5s-52.167 5.5 -73.5 5.5
c-46.667 0 -83.667 -12 -111 -36s-41 -56.667 -41 -98c0 -18 2.83301 -33.667 8.5 -47s14.834 -25.666 27.501 -36.999s28.667 -21.666 48 -30.999s42.666 -19 69.999 -29c30.667 -11.333 58 -23.333 82 -36s44 -27.167 60 -43.5s28.167 -35.5 36.5 -57.5s12.5 -48 12.5 -78
c0 -64.667 -20.167 -114.834 -60.5 -150.501s-96.833 -53.5 -169.5 -53.5zM119.001 876.002l144 73l145 -73v-65l-145 72l-144 -72v65z" />
    <glyph glyph-name="scircumflex" unicode="&#x15d;" horiz-adv-x="405" 
d="M61 696l144 73l145 -73v-64l-144 72l-145 -72v64zM192 -11c-21.333 0 -43.665 1.83105 -66.998 5.49805s-51.666 9.16699 -84.999 16.5v65c25.333 -7.33301 50.5 -13.166 75.5 -17.499s49.167 -6.5 72.5 -6.5c34 0 60 8 78 24s27 38.667 27 68c0 28 -8 49.333 -24 64
s-39.333 25.667 -70 33c-17.333 4 -35 8.5 -53 13.5s-34.5 12.833 -49.5 23.5s-27.333 25.5 -37 44.5s-14.5 44.5 -14.5 76.5c0 48 15.167 85.5 45.5 112.5s72.5 40.5 126.5 40.5c19.333 0 38.5 -1.16699 57.5 -3.5s44.167 -6.83301 75.5 -13.5l-2 -65
c-28.667 6.66699 -51.834 11.334 -69.501 14.001s-34.5 4 -50.5 4c-34 0 -60.5 -7.66699 -79.5 -23s-28.5 -36.666 -28.5 -63.999c0 -16.667 2.66699 -30.334 8 -41.001s12.666 -19.334 21.999 -26.001s20.333 -12 33 -16s26 -8 40 -12c21.333 -5.33301 41 -11.833 59 -19.5
s33.5 -17.5 46.5 -29.5s23 -26.667 30 -44s10.5 -39 10.5 -65c0 -49.333 -15.833 -88.166 -47.5 -116.499s-74.834 -42.5 -129.501 -42.5z" />
    <glyph glyph-name="uni015E" unicode="&#x15e;" horiz-adv-x="508" 
d="M219 -220c-24 0 -48.666 3.66699 -73.999 11v56c9.33301 -3.33301 19.5 -5.83301 30.5 -7.5s21.167 -2.5 30.5 -2.5c43.333 0 65 20 65 60c0 26.667 -9.33301 56.667 -28 90c-15.333 0 -32 0.833008 -50 2.5s-36 4 -54 7s-35.833 6.5 -53.5 10.5
s-33.834 8.66699 -48.501 14l4 69c12.667 -4.66699 27.334 -9 44.001 -13s33.667 -7.5 51 -10.5s34.666 -5.33301 51.999 -7s33.333 -2.5 48 -2.5c50.667 0 89.5 11.333 116.5 34s40.5 55 40.5 97c0 20 -3.5 37.5 -10.5 52.5s-17.167 28.333 -30.5 40
s-29.833 22.167 -49.5 31.5s-42.167 18.666 -67.5 27.999c-32 11.333 -59.667 23.166 -83 35.499s-42.833 26.666 -58.5 42.999s-27.167 35.166 -34.5 56.499s-11 46.333 -11 75c0 30.667 5.33301 58.5 16 83.5s26 46.333 46 64s44 31.334 72 41.001s59.333 14.5 94 14.5
c25.333 0 51.833 -1.83301 79.5 -5.5s57.5 -9.5 89.5 -17.5l-4 -68c-30 7.33301 -58.833 12.833 -86.5 16.5s-52.167 5.5 -73.5 5.5c-46.667 0 -83.667 -12 -111 -36s-41 -56.667 -41 -98c0 -18 2.83301 -33.667 8.5 -47s14.834 -25.666 27.501 -36.999
s28.667 -21.666 48 -30.999s42.666 -19 69.999 -29c30.667 -11.333 58 -23.333 82 -36s44 -27.167 60 -43.5s28.167 -35.5 36.5 -57.5s12.5 -48 12.5 -78c0 -56 -15.167 -101.167 -45.5 -135.5s-73.166 -55.833 -128.499 -64.5
c11.333 -19.333 19.166 -37.166 23.499 -53.499s6.5 -32.5 6.5 -48.5c0 -34.667 -9.5 -61.5 -28.5 -80.5s-46.5 -28.5 -82.5 -28.5z" />
    <glyph glyph-name="uni015F" unicode="&#x15f;" horiz-adv-x="405" 
d="M166 -220c-24 0 -48.665 3.66992 -73.998 11.0029v56c9.33301 -3.33301 19.5 -5.83301 30.5 -7.5s21.167 -2.5 30.5 -2.5c43.333 0 65 20 65 60c0 26 -9.66699 56.667 -29 92c-20.667 0.666992 -42.667 2.66699 -66 6s-51 8.66602 -83 15.999v65
c25.333 -7.33301 50.5 -13.166 75.5 -17.499s49.167 -6.5 72.5 -6.5c34 0 60 8 78 24s27 38.667 27 68c0 28 -8 49.333 -24 64s-39.333 25.667 -70 33c-17.333 4 -35 8.5 -53 13.5s-34.5 12.833 -49.5 23.5s-27.333 25.5 -37 44.5s-14.5 44.5 -14.5 76.5
c0 48 15.167 85.5 45.5 112.5s72.5 40.5 126.5 40.5c19.333 0 38.5 -1.16699 57.5 -3.5s44.167 -6.83301 75.5 -13.5l-2 -65c-28.667 6.66699 -51.834 11.334 -69.501 14.001s-34.5 4 -50.5 4c-34 0 -60.5 -7.66699 -79.5 -23s-28.5 -36.666 -28.5 -63.999
c0 -16.667 2.66699 -30.334 8 -41.001s12.666 -19.334 21.999 -26.001s20.333 -12 33 -16s26 -8 40 -12c21.333 -5.33301 41 -11.833 59 -19.5s33.5 -17.5 46.5 -29.5s23 -26.667 30 -44s10.5 -39 10.5 -65c0 -40.667 -11 -74.334 -33 -101.001s-52.333 -44 -91 -52
c11.333 -20.667 19.5 -39.334 24.5 -56.001s7.5 -33.334 7.5 -50.001c0 -34.667 -9.5 -61.5 -28.5 -80.5s-46.5 -28.5 -82.5 -28.5z" />
    <glyph glyph-name="Scaron" unicode="&#x160;" horiz-adv-x="507" 
d="M244 -13c-15.333 0 -31.999 0.834961 -49.999 2.50195s-36.167 4 -54.5 7s-36.333 6.5 -54 10.5s-33.834 8.66699 -48.501 14l4 69c12.667 -4.66699 27.334 -9 44.001 -13s33.667 -7.5 51 -10.5s34.666 -5.33301 51.999 -7s33.333 -2.5 48 -2.5
c50.667 0 89.5 11.333 116.5 34s40.5 55 40.5 97c0 20 -3.5 37.5 -10.5 52.5s-17.167 28.333 -30.5 40s-29.833 22.167 -49.5 31.5s-42.167 18.666 -67.5 27.999c-32 11.333 -59.667 23.166 -83 35.499s-42.833 26.666 -58.5 42.999s-27.167 35.166 -34.5 56.499
s-11 46.333 -11 75c0 30.667 5.33301 58.5 16 83.5s26 46.333 46 64s44 31.334 72 41.001s59.333 14.5 94 14.5c25.333 0 51.833 -1.83301 79.5 -5.5s57.5 -9.5 89.5 -17.5l-4 -68c-30 7.33301 -58.833 12.833 -86.5 16.5s-52.167 5.5 -73.5 5.5
c-46.667 0 -83.667 -12 -111 -36s-41 -56.667 -41 -98c0 -18 2.83301 -33.667 8.5 -47s14.834 -25.666 27.501 -36.999s28.667 -21.666 48 -30.999s42.666 -19 69.999 -29c30.667 -11.333 58 -23.333 82 -36s44 -27.167 60 -43.5s28.167 -35.5 36.5 -57.5s12.5 -48 12.5 -78
c0 -64.667 -20.167 -114.834 -60.5 -150.501s-96.833 -53.5 -169.5 -53.5zM122.001 938.002l144 -73l144 73v-66l-144 -72l-144 72v66z" />
    <glyph glyph-name="scaron" unicode="&#x161;" horiz-adv-x="405" 
d="M63 773l144 -73l145 73v-65l-145 -73l-144 73v65zM192 -11c-21.333 0 -43.665 1.83105 -66.998 5.49805s-51.666 9.16699 -84.999 16.5v65c25.333 -7.33301 50.5 -13.166 75.5 -17.499s49.167 -6.5 72.5 -6.5c34 0 60 8 78 24s27 38.667 27 68c0 28 -8 49.333 -24 64
s-39.333 25.667 -70 33c-17.333 4 -35 8.5 -53 13.5s-34.5 12.833 -49.5 23.5s-27.333 25.5 -37 44.5s-14.5 44.5 -14.5 76.5c0 48 15.167 85.5 45.5 112.5s72.5 40.5 126.5 40.5c19.333 0 38.5 -1.16699 57.5 -3.5s44.167 -6.83301 75.5 -13.5l-2 -65
c-28.667 6.66699 -51.834 11.334 -69.501 14.001s-34.5 4 -50.5 4c-34 0 -60.5 -7.66699 -79.5 -23s-28.5 -36.666 -28.5 -63.999c0 -16.667 2.66699 -30.334 8 -41.001s12.666 -19.334 21.999 -26.001s20.333 -12 33 -16s26 -8 40 -12c21.333 -5.33301 41 -11.833 59 -19.5
s33.5 -17.5 46.5 -29.5s23 -26.667 30 -44s10.5 -39 10.5 -65c0 -49.333 -15.833 -88.166 -47.5 -116.499s-74.834 -42.5 -129.501 -42.5z" />
    <glyph glyph-name="uni0162" unicode="&#x162;" horiz-adv-x="517" 
d="M218 669l-202.999 0.000976562v71h487v-71h-203v-669h-10c13.333 -21.333 22.666 -40.833 27.999 -58.5s8 -35.167 8 -52.5c0 -34.667 -9.5 -61.5 -28.5 -80.5s-46.5 -28.5 -82.5 -28.5c-24 0 -48.667 3.66699 -74 11v56c9.33301 -3.33301 19.5 -5.83301 30.5 -7.5
s21.167 -2.5 30.5 -2.5c43.333 0 65 20 65 60c0 29.333 -11.667 63.666 -35 102.999h-13v669z" />
    <glyph glyph-name="uni0163" unicode="&#x163;" horiz-adv-x="353" 
d="M170 -220c-24 0 -48.667 3.66895 -74 11.002v56c9.33301 -3.33301 19.5 -5.83301 30.5 -7.5s21.167 -2.5 30.5 -2.5c43.333 0 65 20 65 60c0 31.333 -13.667 68.666 -41 111.999c-44 22 -66 66 -66 132v329h-101v70h105l11 135l63 10v-145h144v-70h-144v-314
c0 -64.667 28.333 -97 85 -97c8 0 17.333 0.5 28 1.5s21 3.16699 31 6.5v-64c-27.333 -6 -53.333 -9 -78 -9h-10c11.333 -20 19.5 -38.333 24.5 -55s7.5 -33.334 7.5 -50.001c0 -34.667 -9.5 -61.5 -28.5 -80.5s-46.5 -28.5 -82.5 -28.5z" />
    <glyph glyph-name="Tcaron" unicode="&#x164;" horiz-adv-x="517" 
d="M118 938l144 -73l144 73v-66l-144 -72l-144 72v66zM218 669h-203v71h487v-71h-203v-669h-81v669z" />
    <glyph glyph-name="tcaron" unicode="&#x165;" horiz-adv-x="343" 
d="M259 -6c-96 0 -144 49 -144 147v329h-101v70h105l11 135l63 10v-145h93v-70h-93v-314c0 -64.667 28.333 -97 85 -97c8 0 17.333 0.5 28 1.5s21 3.16699 31 6.5v-64c-27.333 -6 -53.333 -9 -78 -9zM274 808h67l-28 -228h-39v228z" />
    <glyph glyph-name="Tbar" unicode="&#x166;" horiz-adv-x="526" 
d="M105 408h117v261h-203v71h487v-71h-203v-261h122v-51h-122v-357h-81v357h-117v51z" />
    <glyph glyph-name="tbar" unicode="&#x167;" horiz-adv-x="362" 
d="M23 344h100v126h-101v70h105l11 135l63 10v-145h144v-70h-144v-126h120v-55h-120v-133c0 -64.667 28.333 -97 85 -97c8 0 17.333 0.5 28 1.5s21 3.16699 31 6.5v-64c-27.333 -6 -53.333 -9 -78 -9c-96 0 -144 49 -144 147v148h-100v55z" />
    <glyph glyph-name="Utilde" unicode="&#x168;" horiz-adv-x="673" 
d="M167 851c14.667 21.333 31.668 38.6641 51.001 51.9971s38.666 20 57.999 20c14 0 26.833 -2.16699 38.5 -6.5s23.167 -9.16602 34.5 -14.499s22.666 -10.166 33.999 -14.499s23.333 -6.5 36 -6.5c24 0 46.667 13 68 39l26 -22c-12.667 -23.333 -29 -41.666 -49 -54.999
s-40 -20 -60 -20c-13.333 0 -25.833 2.16699 -37.5 6.5s-23.167 9 -34.5 14s-22.666 9.66699 -33.999 14s-23 6.5 -35 6.5c-24.667 0 -49 -12.667 -73 -38zM336.001 -10.002c-47.333 0 -87.667 5.83301 -121 17.5s-60.5 29.834 -81.5 54.501s-36.5 56.167 -46.5 94.5
s-15 83.833 -15 136.5v447h80v-445c0 -83.333 14.833 -143.333 44.5 -180s76.167 -55 139.5 -55c64 0 110.833 18.333 140.5 55s44.5 96.667 44.5 180v445h81v-447c0 -52.667 -5 -98.167 -15 -136.5s-25.667 -69.833 -47 -94.5s-48.833 -42.834 -82.5 -54.501
s-74.167 -17.5 -121.5 -17.5z" />
    <glyph glyph-name="utilde" unicode="&#x169;" horiz-adv-x="521" 
d="M193 -10c-44 0 -76.667 11.6719 -98 35.0049s-32 59.666 -32 108.999v406h79v-385c0 -35.333 5.5 -59.833 16.5 -73.5s30.5 -20.5 58.5 -20.5c25.333 0 50.5 5.16699 75.5 15.5s52.833 25.166 83.5 44.499v419h79v-540h-67l-6 60h-4
c-20.667 -12.667 -39.334 -23.334 -56.001 -32.001s-32.167 -15.834 -46.5 -21.501s-28.166 -9.83398 -41.499 -12.501s-27 -4 -41 -4zM86 665.005c14.667 21.333 31.667 38.1689 51 50.502s38.666 18.5 57.999 18.5c14 0 26.833 -2.33301 38.5 -7
s23.167 -9.83398 34.5 -15.501s22.5 -10.834 33.5 -15.501s22.833 -7 35.5 -7c24 0 46 13 66 39l29 -25c-12.667 -23.333 -29 -41.333 -49 -54s-40 -19 -60 -19c-13.333 0 -25.833 2.33301 -37.5 7s-23.167 10 -34.5 16s-22.666 11.333 -33.999 16s-23 7 -35 7
s-24 -3.5 -36 -10.5s-23.333 -16.5 -34 -28.5z" />
    <glyph glyph-name="Umacron" unicode="&#x16a;" horiz-adv-x="673" 
d="M194 901h270v-60h-270v60zM336 -10c-47.333 0 -87.667 5.83301 -121 17.5s-60.5 29.834 -81.5 54.501s-36.5 56.167 -46.5 94.5s-15 83.833 -15 136.5v447h80v-445c0 -83.333 14.833 -143.333 44.5 -180s76.167 -55 139.5 -55c64 0 110.833 18.333 140.5 55
s44.5 96.667 44.5 180v445h81v-447c0 -52.667 -5 -98.167 -15 -136.5s-25.667 -69.833 -47 -94.5s-48.833 -42.834 -82.5 -54.501s-74.167 -17.5 -121.5 -17.5z" />
    <glyph glyph-name="umacron" unicode="&#x16b;" horiz-adv-x="521" 
d="M193 -10c-44 0 -76.667 11.6719 -98 35.0049s-32 59.666 -32 108.999v406h79v-385c0 -35.333 5.5 -59.833 16.5 -73.5s30.5 -20.5 58.5 -20.5c25.333 0 50.5 5.16699 75.5 15.5s52.833 25.166 83.5 44.499v419h79v-540h-67l-6 60h-4
c-20.667 -12.667 -39.334 -23.334 -56.001 -32.001s-32.167 -15.834 -46.5 -21.501s-28.166 -9.83398 -41.499 -12.501s-27 -4 -41 -4zM118 703.005h281v-58h-281v58z" />
    <glyph glyph-name="Ubreve" unicode="&#x16c;" horiz-adv-x="673" 
d="M335 810c-52 0 -91.667 13.167 -119 39.5s-41 62.166 -41 107.499h61c0 -64.667 33 -97 99 -97s99 32.333 99 97h61c0 -45.333 -13.667 -81.166 -41 -107.499s-67 -39.5 -119 -39.5zM336 -10c-47.333 0 -87.667 5.83301 -121 17.5s-60.5 29.834 -81.5 54.501
s-36.5 56.167 -46.5 94.5s-15 83.833 -15 136.5v447h80v-445c0 -83.333 14.833 -143.333 44.5 -180s76.167 -55 139.5 -55c64 0 110.833 18.333 140.5 55s44.5 96.667 44.5 180v445h81v-447c0 -52.667 -5 -98.167 -15 -136.5s-25.667 -69.833 -47 -94.5
s-48.833 -42.834 -82.5 -54.501s-74.167 -17.5 -121.5 -17.5z" />
    <glyph glyph-name="ubreve" unicode="&#x16d;" horiz-adv-x="521" 
d="M193 -10c-44 0 -76.667 11.6719 -98 35.0049s-32 59.666 -32 108.999v406h79v-385c0 -35.333 5.5 -59.833 16.5 -73.5s30.5 -20.5 58.5 -20.5c25.333 0 50.5 5.16699 75.5 15.5s52.833 25.166 83.5 44.499v419h79v-540h-67l-6 60h-4
c-20.667 -12.667 -39.334 -23.334 -56.001 -32.001s-32.167 -15.834 -46.5 -21.501s-28.166 -9.83398 -41.499 -12.501s-27 -4 -41 -4zM256 618.005c-52 0 -91.333 12.833 -118 38.5s-40.667 61.5 -42 107.5h61c0 -32 8.5 -55.833 25.5 -71.5s41.5 -23.5 73.5 -23.5
s56.5 7.83301 73.5 23.5s25.5 39.5 25.5 71.5h61c-0.666992 -46 -14.5 -81.833 -41.5 -107.5s-66.5 -38.5 -118.5 -38.5z" />
    <glyph glyph-name="Uring" unicode="&#x16e;" horiz-adv-x="673" 
d="M336 -10c-47.333 0 -87.667 5.83301 -121 17.5s-60.5 29.834 -81.5 54.501s-36.5 56.167 -46.5 94.5s-15 83.833 -15 136.5v447h80v-445c0 -83.333 14.833 -143.333 44.5 -180s76.167 -55 139.5 -55c64 0 110.833 18.333 140.5 55s44.5 96.667 44.5 180v445h81v-447
c0 -52.667 -5 -98.167 -15 -136.5s-25.667 -69.833 -47 -94.5s-48.833 -42.834 -82.5 -54.501s-74.167 -17.5 -121.5 -17.5zM333.999 785c-32 0 -57.501 10 -76.501 30s-28.5 45 -28.5 75s9.33301 55.167 28 75.5s44.334 30.5 77.001 30.5c32 0 57.5 -10.167 76.5 -30.5
s28.5 -45.5 28.5 -75.5s-9.5 -55 -28.5 -75s-44.5 -30 -76.5 -30zM333.998 827c19.333 0 34.167 5.66699 44.5 17s15.5 26.666 15.5 45.999s-5 34.833 -15 46.5s-25 17.5 -45 17.5c-20.667 0 -36 -5.83301 -46 -17.5s-15 -27.167 -15 -46.5s5 -34.666 15 -45.999
s25.333 -17 46 -17z" />
    <glyph glyph-name="uring" unicode="&#x16f;" horiz-adv-x="521" 
d="M258 607c-32.667 0 -58.667 10.167 -78 30.5s-29 45.5 -29 75.5s9.5 55 28.5 75s45.167 30 78.5 30c32.667 0 58.5 -10 77.5 -30s28.5 -45 28.5 -75s-9.66699 -55.167 -29 -75.5s-45 -30.5 -77 -30.5zM258 650c19.333 0 34 5.83105 44 17.498s15 26.834 15 45.501
s-5 33.667 -15 45s-24.667 17 -44 17s-34 -5.66699 -44 -17s-15 -26.333 -15 -45c0 -19.333 5 -34.666 15 -45.999s24.667 -17 44 -17zM193 -10.002c-44 0 -76.667 11.6719 -98 35.0049s-32 59.666 -32 108.999v406h79v-385c0 -35.333 5.5 -59.833 16.5 -73.5
s30.5 -20.5 58.5 -20.5c25.333 0 50.5 5.16699 75.5 15.5s52.833 25.166 83.5 44.499v419h79v-540h-67l-6 60h-4c-20.667 -12.667 -39.334 -23.334 -56.001 -32.001s-32.167 -15.834 -46.5 -21.501s-28.166 -9.83398 -41.499 -12.501s-27 -4 -41 -4z" />
    <glyph glyph-name="Uhungarumlaut" unicode="&#x170;" horiz-adv-x="673" 
d="M336 -10c-47.333 0 -87.667 5.83301 -121 17.5s-60.5 29.834 -81.5 54.501s-36.5 56.167 -46.5 94.5s-15 83.833 -15 136.5v447h80v-445c0 -83.333 14.833 -143.333 44.5 -180s76.167 -55 139.5 -55c64 0 110.833 18.333 140.5 55s44.5 96.667 44.5 180v445h81v-447
c0 -52.667 -5 -98.167 -15 -136.5s-25.667 -69.833 -47 -94.5s-48.833 -42.834 -82.5 -54.501s-74.167 -17.5 -121.5 -17.5zM218.999 802l74 132h75l-96 -145zM367.999 802l75 132h75l-95 -145z" />
    <glyph glyph-name="uhungarumlaut" unicode="&#x171;" horiz-adv-x="521" 
d="M193 -10c-44 0 -76.667 11.6719 -98 35.0049s-32 59.666 -32 108.999v406h79v-385c0 -35.333 5.5 -59.833 16.5 -73.5s30.5 -20.5 58.5 -20.5c25.333 0 50.5 5.16699 75.5 15.5s52.833 25.166 83.5 44.499v419h79v-540h-67l-6 60h-4
c-20.667 -12.667 -39.334 -23.334 -56.001 -32.001s-32.167 -15.834 -46.5 -21.501s-28.166 -9.83398 -41.499 -12.501s-27 -4 -41 -4zM143 622.005l72 181h77l-98 -191zM309 622.005l72 181h76l-97 -191z" />
    <glyph glyph-name="Uogonek" unicode="&#x172;" horiz-adv-x="673" 
d="M330 -210c-65.333 0 -98 28.999 -98 86.999c0 42 22.333 80 67 114c-80.667 5.33301 -138.667 32.333 -174 81s-53 122.334 -53 221.001v447h80v-445c0 -83.333 14.833 -143.333 44.5 -180s76.167 -55 139.5 -55c64 0 110.833 18.333 140.5 55s44.5 96.667 44.5 180v445
h81v-447c0 -94.667 -16.5 -166.167 -49.5 -214.5s-86.833 -76.833 -161.5 -85.5c-34 -15.333 -59.167 -32.5 -75.5 -51.5s-24.5 -38.833 -24.5 -59.5c0 -25.333 15 -38 45 -38c19.333 0 38 3.66699 56 11v-53c-19.333 -8 -40 -12 -62 -12z" />
    <glyph glyph-name="uogonek" unicode="&#x173;" horiz-adv-x="522" 
d="M194 -10c-44 0 -76.666 11.6709 -97.999 35.0039s-32 59.666 -32 108.999v406h79v-385c0 -35.333 5.5 -59.833 16.5 -73.5s30.5 -20.5 58.5 -20.5c25.333 0 50.5 5.16699 75.5 15.5s52.833 25.166 83.5 44.499v419h79v-556
c-34.667 -15.333 -60.334 -32.666 -77.001 -51.999s-25 -39.333 -25 -60c0 -25.333 15 -38 45 -38c19.333 0 38 3.66699 56 11v-53c-19.333 -8 -40 -12 -62 -12c-65.333 0 -98 29 -98 87c0 48.667 31.333 93 94 133l-6 60h-4
c-20.667 -12.667 -39.334 -23.334 -56.001 -32.001s-32.167 -15.834 -46.5 -21.501s-28.166 -9.83398 -41.499 -12.501s-27 -4 -41 -4z" />
    <glyph glyph-name="Wcircumflex" unicode="&#x174;" horiz-adv-x="918" 
d="M16 740h86l119 -512l28 -130h7l30 130l133 512h86l126 -512l29 -130h7l30 130l125 512h86l-193 -740h-101l-127 507l-23 120h-6l-24 -121l-133 -506h-102zM316 876l144 73l145 -73v-65l-145 72l-144 -72v65z" />
    <glyph glyph-name="wcircumflex" unicode="&#x175;" horiz-adv-x="713" 
d="M213 696l144 73l145 -73v-64l-144 72l-145 -72v64zM21 535v5h76l84 -372l16 -78h7l18 78l95 372h79l96 -372l19 -78h7l16 78l83 372h74v-5l-130 -535h-89l-100 374l-12 61h-7l-12 -61l-98 -374h-90z" />
    <glyph glyph-name="Ycircumflex" unicode="&#x176;" horiz-adv-x="572" 
d="M247 248l-246 492h88l169 -352l24 -59h8l24 59l170 352h87l-244 -489v-251h-80v248zM144 876l144 73l145 -73v-65l-145 72l-144 -72v65z" />
    <glyph glyph-name="ycircumflex" unicode="&#x177;" horiz-adv-x="497" 
d="M136 -205l-1 7l73 200l-195 531v7h81l135 -387l17 -66h5l18 66l136 387h81v-7l-274 -753zM111 696l144 73l145 -73v-64l-144 72l-145 -72v64z" />
    <glyph glyph-name="Ydieresis" unicode="&#x178;" horiz-adv-x="572" 
d="M247 248l-246 492h88l169 -352l24 -59h8l24 59l170 352h87l-244 -489v-251h-80v248zM180 813c-34 0 -51 17 -51 51c0 33.333 17 50 51 50c34.667 0 52 -16.667 52 -50c0 -18 -4.5 -31 -13.5 -39s-21.833 -12 -38.5 -12zM395 813c-34 0 -51 17 -51 51
c0 33.333 17 50 51 50c16 0 28.667 -4 38 -12s14 -20.667 14 -38c0 -18 -4.66699 -31 -14 -39s-22 -12 -38 -12z" />
    <glyph glyph-name="Zacute" unicode="&#x179;" horiz-adv-x="513" 
d="M30 64l348 600v5h-339v71h435v-63l-349 -601v-6h357v-70h-452v64zM228 796l75 140h83l-96 -145z" />
    <glyph glyph-name="zacute" unicode="&#x17a;" horiz-adv-x="428" 
d="M192 617l71 184h82l-97 -191zM32 53l259 416v5h-250v66h346v-51l-259 -417v-5h269v-67h-365v53z" />
    <glyph glyph-name="Zdotaccent" unicode="&#x17b;" horiz-adv-x="513" 
d="M263 804c-34 0 -51 16.667 -51 50c0 34 17 51 51 51c34.667 0 52 -17 52 -51c0 -33.333 -17.333 -50 -52 -50zM30 64l348 600v5h-339v71h435v-63l-349 -601v-6h357v-70h-452v64z" />
    <glyph glyph-name="zdotaccent" unicode="&#x17c;" horiz-adv-x="428" 
d="M32 53l259 416v5h-250v66h346v-51l-259 -417v-5h269v-67h-365v53zM218 631c-34 0 -51 17 -51 51c0 33.333 17 50 51 50c16 0 28.5 -4 37.5 -12s13.5 -20.667 13.5 -38c0 -18 -4.5 -31 -13.5 -39s-21.5 -12 -37.5 -12z" />
    <glyph glyph-name="Zcaron" unicode="&#x17d;" horiz-adv-x="513" 
d="M122 938l144 -73l144 73v-66l-144 -72l-144 72v66zM30 64l348 600v5h-339v71h435v-63l-349 -601v-6h357v-70h-452v64z" />
    <glyph glyph-name="zcaron" unicode="&#x17e;" horiz-adv-x="428" 
d="M78 773l144 -73l145 73v-65l-145 -73l-144 73v65zM32 53l259 416v5h-250v66h346v-51l-259 -417v-5h269v-67h-365v53z" />
    <glyph glyph-name="Schwa" unicode="&#x18f;" horiz-adv-x="607" 
d="M41 313c0 18 0.334961 34.5 1.00195 49.5s1.66699 29.5 3 43.5h435c-3.33301 97.333 -22.833 168.166 -58.5 212.499s-88.834 66.5 -159.501 66.5c-28 0 -57.833 -3 -89.5 -9s-64.5 -15.667 -98.5 -29c0 2 -0.333008 6.5 -1 13.5s-1.16699 14.333 -1.5 22
s-0.833008 14.834 -1.5 21.501s-1 11 -1 13c28 12 59.667 21.667 95 29s69.666 11 102.999 11c96 0 169 -31.667 219 -95s75 -155 75 -275c0 -128 -23.833 -226 -71.5 -294s-117.5 -102 -209.5 -102c-78 0 -137.333 27 -178 81s-61 134.333 -61 241zM282.002 58
c62 0 109.668 23.667 143.001 71s51.666 118.666 54.999 213.999h-361c-0.666992 -99.333 11.833 -171.666 37.5 -216.999s67.5 -68 125.5 -68z" />
    <glyph glyph-name="florin" unicode="&#x192;" horiz-adv-x="341" 
d="M118 472h-89v68h89v35c0 44 3.33301 80.5 10 109.5s18.167 52.5 34.5 70.5s38.333 31.333 66 40s62.167 14.334 103.5 17.001l3 -63c-28 -2.66699 -51 -6.83398 -69 -12.501s-32.167 -14.5 -42.5 -26.5s-17.5 -28.167 -21.5 -48.5s-6 -45.833 -6 -76.5v-45h115v-68h-115
v-658l-78 -34v692z" />
    <glyph glyph-name="uni01C4" unicode="&#x1c4;" horiz-adv-x="1146" 
d="M755 938l144 -73l144 73v-66l-144 -72l-144 72v66zM663 64l348 600v5h-339v71h435v-63l-349 -601v-6h357v-70h-452v64zM225 -14c-26 0 -51.3311 0.833008 -75.998 2.5s-48.334 4.16699 -71.001 7.5v739c34 5.33301 65.833 9.16602 95.5 11.499s56.167 3.5 79.5 3.5
c116 0 200.833 -30.667 254.5 -92s80.5 -157.666 80.5 -288.999c0 -67.333 -7 -125 -21 -173s-35.833 -87.667 -65.5 -119s-67.334 -54.333 -113.001 -69s-100.167 -22 -163.5 -22zM247.002 55c88.667 0 153.834 25.002 195.501 75.002s62.5 129.667 62.5 239
c0 55.333 -4.66699 102.666 -14 141.999s-23.833 71.666 -43.5 96.999s-45 43.833 -76 55.5s-68.167 17.5 -111.5 17.5c-16.667 0 -33.834 -0.666992 -51.501 -2s-34.5 -3.33301 -50.5 -6v-612c18 -2 33.833 -3.5 47.5 -4.5s27.5 -1.5 41.5 -1.5z" />
    <glyph glyph-name="uni01C5" unicode="&#x1c5;" horiz-adv-x="1061" 
d="M711 773l144 -73l145 73v-65l-145 -73l-144 73v65zM665 53l259 416v5h-250v66h346v-51l-259 -417v-5h269v-67h-365v53zM225 -14c-26 0 -51.3311 0.833008 -75.998 2.5s-48.334 4.16699 -71.001 7.5v739c34 5.33301 65.833 9.16602 95.5 11.499s56.167 3.5 79.5 3.5
c116 0 200.833 -30.667 254.5 -92s80.5 -157.666 80.5 -288.999c0 -67.333 -7 -125 -21 -173s-35.833 -87.667 -65.5 -119s-67.334 -54.333 -113.001 -69s-100.167 -22 -163.5 -22zM247.002 55c88.667 0 153.834 25.002 195.501 75.002s62.5 129.667 62.5 239
c0 55.333 -4.66699 102.666 -14 141.999s-23.833 71.666 -43.5 96.999s-45 43.833 -76 55.5s-68.167 17.5 -111.5 17.5c-16.667 0 -33.834 -0.666992 -51.501 -2s-34.5 -3.33301 -50.5 -6v-612c18 -2 33.833 -3.5 47.5 -4.5s27.5 -1.5 41.5 -1.5z" />
    <glyph glyph-name="uni01C6" unicode="&#x1c6;" horiz-adv-x="953" 
d="M602 773l144 -73l145 73v-65l-145 -73l-144 73v65zM557 53l259 416v5h-250v66h346v-51l-259 -417v-5h269v-67h-365v53zM233 -9c-64 0 -111.833 22.333 -143.5 67s-47.5 113.667 -47.5 207s21 164 63 212s101 72 177 72c16 0 31.667 -0.666992 47 -2
s32.333 -3.33301 51 -6v267h78v-808h-70l-7 58h-4c-33.333 -44.667 -81.333 -67 -144 -67zM252 53c16.667 0 32.667 2.66699 48 8s29 13.166 41 23.499s21.5 22.833 28.5 37.5s10.5 31.334 10.5 50.001v306c-18 3.33301 -34.833 6 -50.5 8s-32.167 3 -49.5 3
c-52 0 -91.333 -17.5 -118 -52.5s-40 -90.167 -40 -165.5c0 -74.667 10.833 -129.667 32.5 -165s54.167 -53 97.5 -53z" />
    <glyph glyph-name="uni01C7" unicode="&#x1c7;" horiz-adv-x="687" 
d="M449 -159c16 34.667 29.1699 65.667 39.5029 93s18.666 54 24.999 80s10.666 52.667 12.999 80s3.5 57.666 3.5 90.999v555h80v-560c0 -32 -2 -62.833 -6 -92.5s-10.333 -59.167 -19 -88.5s-19.834 -59.166 -33.501 -89.499s-30.167 -62.5 -49.5 -96.5zM78.0029 740h80
v-671h279v-69h-359v740z" />
    <glyph glyph-name="uni01C8" unicode="&#x1c8;" horiz-adv-x="662" 
d="M556 658c-34 0 -51 16.667 -51 50c0 32.667 17 49 51 49s51 -16.333 51 -49c0 -33.333 -17 -50 -51 -50zM450 -197c23.333 44.667 40.5 92.1689 51.5 142.502s16.5 107.166 16.5 170.499v32v77v99.5v100.5c0 31.333 -0.166992 57.666 -0.5 78.999s-0.5 33.333 -0.5 36h79
v-453c-0.666992 -53.333 -9 -106.833 -25 -160.5s-38 -102.5 -66 -146.5zM78 740.002h80v-671h279v-69h-359v740z" />
    <glyph glyph-name="uni01C9" unicode="&#x1c9;" horiz-adv-x="428" 
d="M322 658c-34 0 -51 16.667 -51 50c0 32.667 17 49 51 49s51 -16.333 51 -49c0 -33.333 -17 -50 -51 -50zM216 -197c23.333 44.667 40.5 92.1689 51.5 142.502s16.5 107.166 16.5 170.499v32v77v99.5v100.5c0 31.333 -0.166992 57.666 -0.5 78.999s-0.5 33.333 -0.5 36h79
v-453c-0.666992 -53.333 -9 -106.833 -25 -160.5s-38 -102.5 -66 -146.5zM69 808.002h79v-808h-79v808z" />
    <glyph glyph-name="uni01CA" unicode="&#x1ca;" horiz-adv-x="932" 
d="M694 -159c16 34.667 29.1699 65.667 39.5029 93s18.666 54 24.999 80s10.666 52.667 12.999 80s3.5 57.666 3.5 90.999v555h80v-560c0 -32 -2 -62.833 -6 -92.5s-10.333 -59.167 -19 -88.5s-19.834 -59.166 -33.501 -89.499s-30.167 -62.5 -49.5 -96.5zM78.0029 740h73
l338 -521l48 -84h6v605h74v-740h-74l-336 518l-49 88l-6 -1v-605h-74v740z" />
    <glyph glyph-name="uni01CB" unicode="&#x1cb;" horiz-adv-x="907" 
d="M801 658c-34 0 -51 16.667 -51 50c0 32.667 17 49 51 49s51 -16.333 51 -49c0 -33.333 -17 -50 -51 -50zM695 -197c23.333 44.667 40.5 92.1689 51.5 142.502s16.5 107.166 16.5 170.499v32v77v99.5v100.5c0 31.333 -0.166992 57.666 -0.5 78.999s-0.5 33.333 -0.5 36h79
v-453c-0.666992 -53.333 -9 -106.833 -25 -160.5s-38 -102.5 -66 -146.5zM78 740.002h73l338 -521l48 -84h6v605h74v-740h-74l-336 518l-49 88l-6 -1v-605h-74v740z" />
    <glyph glyph-name="uni01CC" unicode="&#x1cc;" horiz-adv-x="734" 
d="M628 658c-34 0 -51 16.667 -51 50c0 32.667 17 49 51 49s51 -16.333 51 -49c0 -33.333 -17 -50 -51 -50zM522 -197c23.333 44.667 40.5 92.1689 51.5 142.502s16.5 107.166 16.5 170.499v32v77v99.5v100.5c0 31.333 -0.166992 57.666 -0.5 78.999s-0.5 33.333 -0.5 36h79
v-453c-0.666992 -53.333 -9 -106.833 -25 -160.5s-38 -102.5 -66 -146.5zM67 540.002h66l6 -60h5c40 24.667 74.833 42.5 104.5 53.5s58.5 16.5 86.5 16.5c42 0 73 -11.333 93 -34s30 -59.334 30 -110.001v-406h-78v384c0 34.667 -6 59.334 -18 74.001s-30.667 22 -56 22
c-23.333 0 -48.333 -4.83301 -75 -14.5s-55 -23.5 -85 -41.5v-424h-79v540z" />
    <glyph glyph-name="Oogonek" unicode="&#x1ea;" horiz-adv-x="657" 
d="M318 -210c-65.333 0 -97.9971 28.998 -97.9971 86.998c0 21.333 5.5 41.5 16.5 60.5s28.167 37.167 51.5 54.5c-161.333 17.333 -242 143 -242 377c0 128 23.667 223.5 71 286.5s117.666 94.5 210.999 94.5c94 0 164.833 -31.5 212.5 -94.5s71.5 -158.5 71.5 -286.5
c0 -114 -19.333 -202.167 -58 -264.5s-96.334 -99.166 -173.001 -110.499c-34.667 -15.333 -60.334 -32.666 -77.001 -51.999s-25 -39.333 -25 -60c0 -25.333 15 -38 45 -38c19.333 0 38 3.66699 56 11v-53c-19.333 -8 -40 -12 -62 -12zM328.003 59.998
c70.667 0 122 24.668 154 74.001s48 127.666 48 234.999s-16.333 186.166 -49 236.499s-83.667 75.5 -153 75.5s-120.166 -25 -152.499 -75s-48.5 -129 -48.5 -237c0 -107.333 16.167 -185.666 48.5 -234.999s83.166 -74 152.499 -74z" />
    <glyph glyph-name="oogonek" unicode="&#x1eb;" horiz-adv-x="524" 
d="M281 -201c-65.333 0 -98 28.999 -98 86.999c0 38.667 19 74 57 106c-65.333 4.66699 -114.833 30.5 -148.5 77.5s-50.5 113.833 -50.5 200.5c0 91.333 18.833 160.833 56.5 208.5s92.5 71.5 164.5 71.5s126.667 -23.833 164 -71.5s56 -117.167 56 -208.5
c0 -72.667 -11.667 -131.167 -35 -175.5s-57.666 -74.5 -102.999 -90.5v-1c-34.667 -15.333 -60.334 -32.666 -77.001 -51.999s-25 -39.333 -25 -60c0 -25.333 15 -38 45 -38c19.333 0 38 3.66699 56 11v-53c-19.333 -8 -40 -12 -62 -12zM262 55.999
c48.667 0 84.167 17 106.5 51s33.5 88.333 33.5 163s-11.333 129 -34 163s-58 51 -106 51c-48.667 0 -84.167 -17 -106.5 -51s-33.5 -88.333 -33.5 -163s11.167 -129 33.5 -163s57.833 -51 106.5 -51z" />
    <glyph glyph-name="uni01F1" unicode="&#x1f1;" horiz-adv-x="1132" 
d="M649 64l348 600v5h-339v71h435v-63l-349 -601v-6h357v-70h-452v64zM225 -14c-26 0 -51.3311 0.833008 -75.998 2.5s-48.334 4.16699 -71.001 7.5v739c34 5.33301 65.833 9.16602 95.5 11.499s56.167 3.5 79.5 3.5c116 0 200.833 -30.667 254.5 -92
s80.5 -157.666 80.5 -288.999c0 -67.333 -7 -125 -21 -173s-35.833 -87.667 -65.5 -119s-67.334 -54.333 -113.001 -69s-100.167 -22 -163.5 -22zM247.002 55c88.667 0 153.834 25.002 195.501 75.002s62.5 129.667 62.5 239c0 55.333 -4.66699 102.666 -14 141.999
s-23.833 71.666 -43.5 96.999s-45 43.833 -76 55.5s-68.167 17.5 -111.5 17.5c-16.667 0 -33.834 -0.666992 -51.501 -2s-34.5 -3.33301 -50.5 -6v-612c18 -2 33.833 -3.5 47.5 -4.5s27.5 -1.5 41.5 -1.5z" />
    <glyph glyph-name="uni01F2" unicode="&#x1f2;" horiz-adv-x="1058" 
d="M662 53l259 416v5h-250v66h346v-51l-259 -417v-5h269v-67h-365v53zM225 -14c-26 0 -51.3311 0.833008 -75.998 2.5s-48.334 4.16699 -71.001 7.5v739c34 5.33301 65.833 9.16602 95.5 11.499s56.167 3.5 79.5 3.5c116 0 200.833 -30.667 254.5 -92
s80.5 -157.666 80.5 -288.999c0 -67.333 -7 -125 -21 -173s-35.833 -87.667 -65.5 -119s-67.334 -54.333 -113.001 -69s-100.167 -22 -163.5 -22zM247.002 55c88.667 0 153.834 25.002 195.501 75.002s62.5 129.667 62.5 239c0 55.333 -4.66699 102.666 -14 141.999
s-23.833 71.666 -43.5 96.999s-45 43.833 -76 55.5s-68.167 17.5 -111.5 17.5c-16.667 0 -33.834 -0.666992 -51.501 -2s-34.5 -3.33301 -50.5 -6v-612c18 -2 33.833 -3.5 47.5 -4.5s27.5 -1.5 41.5 -1.5z" />
    <glyph glyph-name="uni01F3" unicode="&#x1f3;" horiz-adv-x="953" 
d="M557 53l259 416v5h-250v66h346v-51l-259 -417v-5h269v-67h-365v53zM233 -9c-64 0 -111.833 22.333 -143.5 67s-47.5 113.667 -47.5 207s21 164 63 212s101 72 177 72c16 0 31.667 -0.666992 47 -2s32.333 -3.33301 51 -6v267h78v-808h-70l-7 58h-4
c-33.333 -44.667 -81.333 -67 -144 -67zM252 53c16.667 0 32.667 2.66699 48 8s29 13.166 41 23.499s21.5 22.833 28.5 37.5s10.5 31.334 10.5 50.001v306c-18 3.33301 -34.833 6 -50.5 8s-32.167 3 -49.5 3c-52 0 -91.333 -17.5 -118 -52.5s-40 -90.167 -40 -165.5
c0 -74.667 10.833 -129.667 32.5 -165s54.167 -53 97.5 -53z" />
    <glyph glyph-name="Gacute" unicode="&#x1f4;" horiz-adv-x="591" 
d="M304 796l75 140h83l-96 -145zM363 -10c-109.333 0.666992 -189.498 31.667 -240.498 93s-76.5 156.666 -76.5 285.999c0 131.333 26.333 227.5 79 288.5s135.667 91.5 249 91.5c21.333 0 46 -1.66699 74 -5s55.667 -8 83 -14v-69c-30.667 6.66699 -58 11.334 -82 14.001
s-46.667 4 -68 4c-45.333 0 -84 -5.66699 -116 -17s-58.167 -29.5 -78.5 -54.5s-35.166 -57 -44.499 -96s-14 -86.5 -14 -142.5c0 -54 4.66699 -100.5 14 -139.5s23.666 -71 42.999 -96s44 -43.5 74 -55.5s66 -18 108 -18c11.333 0 25.166 0.666992 41.499 2
s33.166 3.33301 50.499 6v308h75v-366c-33.333 -6.66699 -63.833 -11.667 -91.5 -15s-54.167 -5 -79.5 -5z" />
    <glyph glyph-name="gacute" unicode="&#x1f5;" horiz-adv-x="524" 
d="M248 617l71 184h82l-97 -191zM232 -220c-25.333 0 -50.666 1.99902 -75.999 5.99902s-49.666 9.66699 -72.999 17l7 65c46.667 -16 91.667 -24 135 -24c51.333 0 90.166 14.833 116.499 44.5s39.833 80.167 40.5 151.5v26h-4c-33.333 -44.667 -81.333 -67 -144 -67
c-64.667 0 -112.834 21.667 -144.501 65s-47.5 110.666 -47.5 201.999c0 92.667 21 163 63 211s101 72 177 72c29.333 0 58 -1.83301 86 -5.5s58.333 -10.167 91 -19.5v-464c0 -50.667 -5 -93.667 -15 -129s-24.833 -64.166 -44.5 -86.499s-43.5 -38.666 -71.5 -48.999
s-60 -15.5 -96 -15.5zM252 59.999c16.667 0 32.668 2.66699 48.001 8s29 13 41 23s21.5 22 28.5 36s10.5 30 10.5 48v303c-18.667 3.33301 -35.667 6 -51 8s-31.333 3 -48 3c-52 0 -91.333 -17.5 -118 -52.5s-40 -89.833 -40 -164.5c0 -72.667 10.667 -126.167 32 -160.5
s53.666 -51.5 96.999 -51.5z" />
    <glyph glyph-name="Aringacute" unicode="&#x1fa;" horiz-adv-x="595" 
d="M7 6l207 644.999c-24.667 20 -37 48.333 -37 85c0 29.333 8.33301 54.666 25 75.999s40 34 70 38l60 102h83l-72 -109c23.333 -7.33301 41.5 -20.666 54.5 -39.999s19.5 -41.666 19.5 -66.999c0 -35.333 -12 -63 -36 -83l207 -647v-6h-77l-72 223h-283l-72 -223h-77v6z
M296 669.999c20.667 0 36.834 6.16699 48.501 18.5s17.5 28.166 17.5 47.499s-5.83301 35.333 -17.5 48s-27.834 19 -48.501 19s-36.5 -6.33301 -47.5 -19s-16.5 -28.667 -16.5 -48s5.66699 -35.166 17 -47.499s27 -18.5 47 -18.5zM419 293.999l-82 262l-19 63h-40l-20 -63
l-83 -262h244z" />
    <glyph glyph-name="aringacute" unicode="&#x1fb;" horiz-adv-x="474" 
d="M166 -5c-42 0 -74.833 12.502 -98.5 37.502s-35.5 59.833 -35.5 104.5c0 50.667 15.667 89.5 47 116.5s80.333 43.167 147 48.5l107 8v51c0 45.333 -8.66699 77.166 -26 95.499s-48 27.5 -92 27.5c-18 0 -39.833 -1.5 -65.5 -4.5s-50.167 -7.16699 -73.5 -12.5l-7 63
c58.667 11.333 112 17 160 17c62.667 0 108.667 -13.833 138 -41.5s44 -70.834 44 -129.501v-376h-65l-8 66h-6c-24.667 -19.333 -51 -36 -79 -50s-57 -21 -87 -21zM245 607.002c-32.667 0 -58.666 10.167 -77.999 30.5s-29 45.5 -29 75.5
c0 28.667 8.66699 52.834 26 72.501s41.666 30.5 72.999 32.5l62 161h82l-87 -171c18 -8.66699 32 -21.334 42 -38.001s15 -35.667 15 -57c0 -30 -9.66699 -55.167 -29 -75.5s-45 -30.5 -77 -30.5zM193.001 58.002c11.333 0 23.1689 2.00098 35.502 6.00098
s24.666 9 36.999 15s24.166 12.5 35.499 19.5l32 19.5v138l-89 -8c-48 -4.66699 -82 -14.834 -102 -30.501s-30 -40.5 -30 -74.5c0 -56.667 27 -85 81 -85zM245.004 650.003c19.333 0 34 5.83105 44 17.498s15 26.834 15 45.501s-5 33.667 -15 45s-24.667 17 -44 17
s-34 -5.66699 -44 -17s-15 -26.333 -15 -45c0 -19.333 5 -34.666 15 -45.999s24.667 -17 44 -17z" />
    <glyph glyph-name="AEacute" unicode="&#x1fc;" horiz-adv-x="799" 
d="M440 796l75 140h83l-96 -145zM5 6l259 734h484v-69h-301l13 -262h262v-69h-259l14 -271h281v-69h-359l-9 223h-227l-78 -223h-80v6zM188 294h199l-16 380h-48z" />
    <glyph glyph-name="aeacute" unicode="&#x1fd;" horiz-adv-x="772" 
d="M366 617l71 184h82l-97 -191zM558 -9c-82.667 0 -141.668 30.999 -177.001 92.999l-6 1l-66 -41.5c-19.333 -11.667 -37.166 -21 -53.499 -28s-31.666 -12.167 -45.999 -15.5s-28.833 -5 -43.5 -5c-42 0 -74.667 12.5 -98 37.5s-35 59.833 -35 104.5
c0 50.667 15.667 89.334 47 116.001s80 42.667 146 48l107 9v58c0 42 -9 71.833 -27 89.5s-48.333 26.5 -91 26.5c-19.333 0 -41.666 -1.5 -66.999 -4.5s-49.333 -7.16699 -72 -12.5l-7 63c30 5.33301 58.5 9.5 85.5 12.5s51.833 4.5 74.5 4.5
c81.333 0 131.666 -31.667 150.999 -95h6c16.667 32 38.834 56.167 66.501 72.5s61.167 24.5 100.5 24.5c59.333 0 104.166 -19.833 134.499 -59.5s45.5 -98.5 45.5 -176.5c0 -16.667 -0.333008 -30.167 -1 -40.5s-2 -20.5 -4 -30.5h-315
c3.33301 -124.667 53.333 -187 150 -187c22 0 45 2.33301 69 7s49.333 12.667 76 24l5 -64c-22.667 -9.33301 -47.834 -16.833 -75.501 -22.5s-54.167 -8.5 -79.5 -8.5zM193.999 57.999c20.667 0 42.833 6.16797 66.5 18.501s51.5 29.166 83.5 50.499
c-2 5.33301 -3.66699 13.5 -5 24.5s-2.5 23 -3.5 36s-1.66699 25.833 -2 38.5s-0.5 23 -0.5 31l-89 -8c-48 -4 -81.833 -14.167 -101.5 -30.5s-29.5 -41.5 -29.5 -75.5c0 -56.667 27 -85 81 -85zM658.998 297c-1.33301 67.333 -10.333 115.667 -27 145s-43.667 44 -81 44
c-42.667 0 -75.667 -16 -99 -48s-36.333 -79 -39 -141h246z" />
    <glyph glyph-name="Oslashacute" unicode="&#x1fe;" horiz-adv-x="665" 
d="M105 109c-36.667 63.333 -54.999 149.999 -54.999 259.999c0 128 23.667 223.5 71 286.5s117.666 94.5 210.999 94.5c80.667 0 144.667 -24.333 192 -73l47 63h69l-81 -109c38 -63.333 57 -150.666 57 -261.999c0 -126.667 -23.833 -221.5 -71.5 -284.5
s-118.5 -94.5 -212.5 -94.5c-82 0 -146 24 -192 72l-46 -62h-69zM131.001 368.999c0 -81.333 8.66699 -144.667 26 -190l321 435c-32.667 44.667 -81.334 67 -146.001 67c-69.333 0 -120.166 -25 -152.499 -75s-48.5 -129 -48.5 -237zM332.001 59.998
c70 0 121.167 24.668 153.5 74.001s48.5 127.666 48.5 234.999c0 78 -9 141.667 -27 191l-321 -435c16.667 -22.667 37 -39.167 61 -49.5s52.333 -15.5 85 -15.5zM295.001 795.999l75 140h83l-96 -145z" />
    <glyph glyph-name="oslashacute" unicode="&#x1ff;" 
d="M87 82c-28.667 45.333 -43 107.998 -43 187.998c0 91.333 18.5 160.833 55.5 208.5s91.833 71.5 164.5 71.5c58.667 0 106.667 -17 144 -51l31 41h63l-62 -80c29.333 -47.333 44 -110.666 44 -189.999c0 -91.333 -18.5 -160.666 -55.5 -207.999s-91.833 -71 -164.5 -71
c-59.333 0 -107.333 16.667 -144 50l-32 -41h-64zM264 55.998c50 0 85.833 17 107.5 51s32.5 88.333 32.5 163c0 49.333 -5 90 -15 122l-226 -294c22 -28 55.667 -42 101 -42zM124 269.998c0 -25.333 0.999023 -48 2.99902 -68s5.66699 -38 11 -54l226 294
c-23.333 28 -56.666 42 -99.999 42c-50 0 -85.833 -17 -107.5 -51s-32.5 -88.333 -32.5 -163zM226.999 616.998l71 184h82l-97 -191z" />
    <glyph glyph-name="Adblgrave" unicode="&#x200;" horiz-adv-x="595" 
d="M7 6l232 734h116l233 -734v-6h-77l-73 224h-283l-71 -224h-77v6zM420 292l-84 264l-35 116h-8l-35 -116l-84 -264h246zM198 789l-95 145h74l75 -132zM349 789l-97 145h76l74 -132z" />
    <glyph glyph-name="adblgrave" unicode="&#x201;" horiz-adv-x="474" 
d="M166 -5c-42 0 -74.833 12.502 -98.5 37.502s-35.5 59.833 -35.5 104.5c0 50.667 15.667 89.5 47 116.5s80.333 43.167 147 48.5l107 8v51c0 45.333 -8.66699 77.166 -26 95.499s-48 27.5 -92 27.5c-18 0 -39.833 -1.5 -65.5 -4.5s-50.167 -7.16699 -73.5 -12.5l-7 63
c58.667 11.333 112 17 160 17c62.667 0 108.667 -13.833 138 -41.5s44 -70.834 44 -129.501v-376h-65l-8 66h-6c-24.667 -19.333 -51 -36 -79 -50s-57 -21 -87 -21zM193 58.002c11.333 0 23.1689 2.00098 35.502 6.00098s24.666 9 36.999 15s24.166 12.5 35.499 19.5
l32 19.5v138l-89 -8c-48 -4.66699 -82 -14.834 -102 -30.501s-30 -40.5 -30 -74.5c0 -56.667 27 -85 81 -85zM142.003 612.003l-98 191h77l71 -181zM308.003 612.003l-98 191h77l71 -181z" />
    <glyph glyph-name="Ainvertedbreve" unicode="&#x202;" horiz-adv-x="595" 
d="M7 6l232 734h116l233 -734v-6h-77l-73 224h-283l-71 -224h-77v6zM420 292l-84 264l-35 116h-8l-35 -116l-84 -264h246zM397 819c0 32 -8.33301 56.333 -25 73s-41.334 25 -74.001 25c-33.333 0 -58.166 -8.33301 -74.499 -25s-24.5 -41 -24.5 -73h-61
c0 45.333 13.667 81 41 107s67 39 119 39c51.333 0 90.833 -13 118.5 -39s41.5 -61.667 41.5 -107h-61z" />
    <glyph glyph-name="ainvertedbreve" unicode="&#x203;" horiz-adv-x="474" 
d="M166 -5c-42 0 -74.833 12.502 -98.5 37.502s-35.5 59.833 -35.5 104.5c0 50.667 15.667 89.5 47 116.5s80.333 43.167 147 48.5l107 8v51c0 45.333 -8.66699 77.166 -26 95.499s-48 27.5 -92 27.5c-18 0 -39.833 -1.5 -65.5 -4.5s-50.167 -7.16699 -73.5 -12.5l-7 63
c58.667 11.333 112 17 160 17c62.667 0 108.667 -13.833 138 -41.5s44 -70.834 44 -129.501v-376h-65l-8 66h-6c-24.667 -19.333 -51 -36 -79 -50s-57 -21 -87 -21zM193 58.002c11.333 0 23.1689 2.00098 35.502 6.00098s24.666 9 36.999 15s24.166 12.5 35.499 19.5
l32 19.5v138l-89 -8c-48 -4.66699 -82 -14.834 -102 -30.501s-30 -40.5 -30 -74.5c0 -56.667 27 -85 81 -85zM87.0029 624.003c1.33301 46 15.333 81.5 42 106.5s66 37.5 118 37.5s91.5 -12.5 118.5 -37.5s40.833 -60.5 41.5 -106.5h-61c0 32 -8.5 55.667 -25.5 71
s-41.5 23 -73.5 23c-31.333 0 -55.5 -7.66699 -72.5 -23s-25.833 -39 -26.5 -71h-61z" />
    <glyph glyph-name="Edblgrave" unicode="&#x204;" horiz-adv-x="542" 
d="M78 740h415v-69h-335v-262h305v-69h-305v-271h344v-69h-424v740zM186 789l-95 145h74l75 -132zM337 789l-97 145h76l74 -132z" />
    <glyph glyph-name="edblgrave" unicode="&#x205;" horiz-adv-x="480" 
d="M142 612l-98 191h77l71 -181zM308 612l-98 191h77l71 -181zM265 -9c-72.667 0 -127.999 23.168 -165.999 69.501s-57 113.166 -57 200.499c0 94 18.5 165.5 55.5 214.5s91.5 73.5 163.5 73.5c60 0 105 -19.833 135 -59.5s45 -98.5 45 -176.5
c0 -16.667 -0.5 -30.5 -1.5 -41.5s-2.16699 -21.5 -3.5 -31.5h-315c3.33301 -63.333 17.166 -109.833 41.499 -139.5s60.5 -44.5 108.5 -44.5c44.667 0 92.667 10 144 30l5 -64c-22 -9.33301 -46.667 -16.833 -74 -22.5s-54.333 -8.5 -81 -8.5zM259.001 486.001
c-84 0 -129.668 -62 -137.001 -186h246c-1.33301 66 -10.666 113.5 -27.999 142.5s-44.333 43.5 -81 43.5z" />
    <glyph glyph-name="Einvertedbreve" unicode="&#x206;" horiz-adv-x="542" 
d="M78 740h415v-69h-335v-262h305v-69h-305v-271h344v-69h-424v740zM385 819c0 32 -8.33301 56.333 -25 73s-41.334 25 -74.001 25c-33.333 0 -58.166 -8.33301 -74.499 -25s-24.5 -41 -24.5 -73h-61c0 45.333 13.667 81 41 107s67 39 119 39c51.333 0 90.833 -13 118.5 -39
s41.5 -61.667 41.5 -107h-61z" />
    <glyph glyph-name="einvertedbreve" unicode="&#x207;" horiz-adv-x="480" 
d="M88 624c1.33301 46 15.333 81.5 42 106.5s66 37.5 118 37.5s91.5 -12.5 118.5 -37.5s40.833 -60.5 41.5 -106.5h-61c0 32 -8.5 55.667 -25.5 71s-41.5 23 -73.5 23c-31.333 0 -55.5 -7.66699 -72.5 -23s-25.833 -39 -26.5 -71h-61zM265 -9
c-72.667 0 -127.999 23.168 -165.999 69.501s-57 113.166 -57 200.499c0 94 18.5 165.5 55.5 214.5s91.5 73.5 163.5 73.5c60 0 105 -19.833 135 -59.5s45 -98.5 45 -176.5c0 -16.667 -0.5 -30.5 -1.5 -41.5s-2.16699 -21.5 -3.5 -31.5h-315
c3.33301 -63.333 17.166 -109.833 41.499 -139.5s60.5 -44.5 108.5 -44.5c44.667 0 92.667 10 144 30l5 -64c-22 -9.33301 -46.667 -16.833 -74 -22.5s-54.333 -8.5 -81 -8.5zM259.001 486.001c-84 0 -129.668 -62 -137.001 -186h246
c-1.33301 66 -10.666 113.5 -27.999 142.5s-44.333 43.5 -81 43.5z" />
    <glyph glyph-name="Idblgrave" unicode="&#x208;" horiz-adv-x="237" 
d="M78 740h80v-740h-80v740zM22 789l-95 145h74l75 -132zM173 789l-97 145h76l74 -132z" />
    <glyph glyph-name="idblgrave" unicode="&#x209;" horiz-adv-x="215" 
d="M8 612l-98 191h77l71 -181zM174 612l-98 191h77l71 -181zM69 540h78v-540h-78v540z" />
    <glyph glyph-name="Iinvertedbreve" unicode="&#x20a;" horiz-adv-x="237" 
d="M78 740h80v-740h-80v740zM220 819c0 32 -8.33301 56.333 -25 73s-41.334 25 -74.001 25c-33.333 0 -58.166 -8.33301 -74.499 -25s-24.5 -41 -24.5 -73h-61c0 45.333 13.667 81 41 107s67 39 119 39c51.333 0 90.833 -13 118.5 -39s41.5 -61.667 41.5 -107h-61z" />
    <glyph glyph-name="iinvertedbreve" unicode="&#x20b;" horiz-adv-x="215" 
d="M-40 624c1.33301 46 15 81.5 41 106.5s64 37.5 114 37.5s88 -12.5 114 -37.5s39.667 -60.5 41 -106.5h-58c0 32 -8.33301 55.667 -25 71s-40.667 23 -72 23c-30.667 0 -54.5 -7.66699 -71.5 -23s-25.5 -39 -25.5 -71h-58zM69 540h78v-540h-78v540z" />
    <glyph glyph-name="Odblgrave" unicode="&#x20c;" horiz-adv-x="658" 
d="M328 -10c-93.333 0 -163.666 31.5 -210.999 94.5s-71 157.833 -71 284.5c0 128 23.667 223.5 71 286.5s117.666 94.5 210.999 94.5c94 0 164.833 -31.5 212.5 -94.5s71.5 -158.5 71.5 -286.5c0 -126.667 -23.833 -221.5 -71.5 -284.5s-118.5 -94.5 -212.5 -94.5zM328 60
c70.667 0 122 24.668 154 74.001s48 127.666 48 234.999s-16.333 186.166 -49 236.499s-83.667 75.5 -153 75.5s-120.166 -25 -152.499 -75s-48.5 -129 -48.5 -237c0 -107.333 16.167 -185.666 48.5 -234.999s83.166 -74 152.499 -74zM229 789.001l-95 145h74l75 -132z
M380 789.001l-97 145h76l74 -132z" />
    <glyph glyph-name="odblgrave" unicode="&#x20d;" horiz-adv-x="524" 
d="M154 612l-98 191h77l71 -181zM320 612l-98 191h77l71 -181zM262 -9c-72.667 0 -127.667 23.667 -165 71s-56 116.666 -56 207.999s18.833 160.833 56.5 208.5s92.5 71.5 164.5 71.5s126.667 -23.833 164 -71.5s56 -117.167 56 -208.5s-18.667 -160.666 -56 -207.999
s-92 -71 -164 -71zM262 56c48.667 0 84.167 17 106.5 51s33.5 88.333 33.5 163s-11.333 129 -34 163s-58 51 -106 51c-48.667 0 -84.167 -17 -106.5 -51s-33.5 -88.333 -33.5 -163s11.167 -129 33.5 -163s57.833 -51 106.5 -51z" />
    <glyph glyph-name="Oinvertedbreve" unicode="&#x20e;" horiz-adv-x="658" 
d="M328 -10c-93.333 0 -163.666 31.5 -210.999 94.5s-71 157.833 -71 284.5c0 128 23.667 223.5 71 286.5s117.666 94.5 210.999 94.5c94 0 164.833 -31.5 212.5 -94.5s71.5 -158.5 71.5 -286.5c0 -126.667 -23.833 -221.5 -71.5 -284.5s-118.5 -94.5 -212.5 -94.5zM328 60
c70.667 0 122 24.668 154 74.001s48 127.666 48 234.999s-16.333 186.166 -49 236.499s-83.667 75.5 -153 75.5s-120.166 -25 -152.499 -75s-48.5 -129 -48.5 -237c0 -107.333 16.167 -185.666 48.5 -234.999s83.166 -74 152.499 -74zM428 819.001
c0 32 -8.33301 56.333 -25 73s-41.334 25 -74.001 25c-33.333 0 -58.166 -8.33301 -74.499 -25s-24.5 -41 -24.5 -73h-61c0 45.333 13.667 81 41 107s67 39 119 39c51.333 0 90.833 -13 118.5 -39s41.5 -61.667 41.5 -107h-61z" />
    <glyph glyph-name="oinvertedbreve" unicode="&#x20f;" horiz-adv-x="524" 
d="M101 624c1.33301 46 15.333 81.5 42 106.5s66 37.5 118 37.5s91.5 -12.5 118.5 -37.5s40.833 -60.5 41.5 -106.5h-61c0 32 -8.5 55.667 -25.5 71s-41.5 23 -73.5 23c-31.333 0 -55.5 -7.66699 -72.5 -23s-25.833 -39 -26.5 -71h-61zM262 -9
c-72.667 0 -127.667 23.667 -165 71s-56 116.666 -56 207.999s18.833 160.833 56.5 208.5s92.5 71.5 164.5 71.5s126.667 -23.833 164 -71.5s56 -117.167 56 -208.5s-18.667 -160.666 -56 -207.999s-92 -71 -164 -71zM262 56c48.667 0 84.167 17 106.5 51
s33.5 88.333 33.5 163s-11.333 129 -34 163s-58 51 -106 51c-48.667 0 -84.167 -17 -106.5 -51s-33.5 -88.333 -33.5 -163s11.167 -129 33.5 -163s57.833 -51 106.5 -51z" />
    <glyph glyph-name="Rdblgrave" unicode="&#x210;" horiz-adv-x="582" 
d="M321 276c-12 -1.33301 -24.3311 -2.33301 -36.998 -3s-25.667 -1 -39 -1c-12.667 0 -26.834 0.5 -42.501 1.5s-30.5 2.16699 -44.5 3.5v-277h-80v735c55.333 10.667 110.666 16 165.999 16c101.333 0 175.333 -19.167 222 -57.5s70 -99.166 70 -182.499
c0 -58.667 -11.5 -105.834 -34.5 -141.501s-58.833 -61.5 -107.5 -77.5l157 -292h-87zM253.002 339c71.333 0 122.667 13.332 154 39.999s47 70.667 47 132c0 60.667 -15.333 104.334 -46 131.001s-81 40 -151 40c-13.333 0 -28.833 -0.666992 -46.5 -2
s-35.167 -3.33301 -52.5 -6v-328c14 -2 29.5 -3.66699 46.5 -5s33.167 -2 48.5 -2zM197.003 788.999l-95 145h74l75 -132zM348.003 788.999l-97 145h76l74 -132z" />
    <glyph glyph-name="rdblgrave" unicode="&#x211;" horiz-adv-x="340" 
d="M89 612l-98 191h77l71 -181zM255 612l-98 191h77l71 -181zM67 540h65.998l6 -68h5c20.667 14.667 45.5 29.334 74.5 44.001s58.5 25.667 88.5 33h21v-80h-30c-29.333 -4.66699 -57.166 -11.834 -83.499 -21.501s-49.166 -21.167 -68.499 -34.5v-413h-79v540z" />
    <glyph glyph-name="Rinvertedbreve" unicode="&#x212;" horiz-adv-x="582" 
d="M321 276c-12 -1.33301 -24.3311 -2.33301 -36.998 -3s-25.667 -1 -39 -1c-12.667 0 -26.834 0.5 -42.501 1.5s-30.5 2.16699 -44.5 3.5v-277h-80v735c55.333 10.667 110.666 16 165.999 16c101.333 0 175.333 -19.167 222 -57.5s70 -99.166 70 -182.499
c0 -58.667 -11.5 -105.834 -34.5 -141.501s-58.833 -61.5 -107.5 -77.5l157 -292h-87zM253.002 339c71.333 0 122.667 13.332 154 39.999s47 70.667 47 132c0 60.667 -15.333 104.334 -46 131.001s-81 40 -151 40c-13.333 0 -28.833 -0.666992 -46.5 -2
s-35.167 -3.33301 -52.5 -6v-328c14 -2 29.5 -3.66699 46.5 -5s33.167 -2 48.5 -2zM394.003 818.999c0 32 -8.33301 56.333 -25 73s-41.334 25 -74.001 25c-33.333 0 -58.166 -8.33301 -74.499 -25s-24.5 -41 -24.5 -73h-61c0 45.333 13.667 81 41 107s67 39 119 39
c51.333 0 90.833 -13 118.5 -39s41.5 -61.667 41.5 -107h-61z" />
    <glyph glyph-name="rinvertedbreve" unicode="&#x213;" horiz-adv-x="339" 
d="M35 624c1.33301 46 15.333 81.5 42 106.5s66 37.5 118 37.5s91.5 -12.5 118.5 -37.5s40.833 -60.5 41.5 -106.5h-61c0 32 -8.5 55.667 -25.5 71s-41.5 23 -73.5 23c-31.333 0 -55.5 -7.66699 -72.5 -23s-25.833 -39 -26.5 -71h-61zM67 540h65.998l6 -68h5
c20.667 14.667 45.5 29.334 74.5 44.001s58.5 25.667 88.5 33h21v-80h-30c-29.333 -4.66699 -57.166 -11.834 -83.499 -21.501s-49.166 -21.167 -68.499 -34.5v-413h-79v540z" />
    <glyph glyph-name="Udblgrave" unicode="&#x214;" horiz-adv-x="673" 
d="M336 -10c-47.333 0 -87.667 5.83301 -121 17.5s-60.5 29.834 -81.5 54.501s-36.5 56.167 -46.5 94.5s-15 83.833 -15 136.5v447h80v-445c0 -83.333 14.833 -143.333 44.5 -180s76.167 -55 139.5 -55c64 0 110.833 18.333 140.5 55s44.5 96.667 44.5 180v445h81v-447
c0 -52.667 -5 -98.167 -15 -136.5s-25.667 -69.833 -47 -94.5s-48.833 -42.834 -82.5 -54.501s-74.167 -17.5 -121.5 -17.5zM234.999 789l-95 145h74l75 -132zM385.999 789l-97 145h76l74 -132z" />
    <glyph glyph-name="udblgrave" unicode="&#x215;" horiz-adv-x="521" 
d="M157 612l-98 191h77l71 -181zM323 612l-98 191h77l71 -181zM193 -10c-44 0 -76.667 11.6719 -98 35.0049s-32 59.666 -32 108.999v406h79v-385c0 -35.333 5.5 -59.833 16.5 -73.5s30.5 -20.5 58.5 -20.5c25.333 0 50.5 5.16699 75.5 15.5s52.833 25.166 83.5 44.499v419
h79v-540h-67l-6 60h-4c-20.667 -12.667 -39.334 -23.334 -56.001 -32.001s-32.167 -15.834 -46.5 -21.501s-28.166 -9.83398 -41.499 -12.501s-27 -4 -41 -4z" />
    <glyph glyph-name="Uinvertedbreve" unicode="&#x216;" horiz-adv-x="673" 
d="M336 -10c-47.333 0 -87.667 5.83301 -121 17.5s-60.5 29.834 -81.5 54.501s-36.5 56.167 -46.5 94.5s-15 83.833 -15 136.5v447h80v-445c0 -83.333 14.833 -143.333 44.5 -180s76.167 -55 139.5 -55c64 0 110.833 18.333 140.5 55s44.5 96.667 44.5 180v445h81v-447
c0 -52.667 -5 -98.167 -15 -136.5s-25.667 -69.833 -47 -94.5s-48.833 -42.834 -82.5 -54.501s-74.167 -17.5 -121.5 -17.5zM432.999 819c0 32 -8.33301 56.333 -25 73s-41.334 25 -74.001 25c-33.333 0 -58.166 -8.33301 -74.499 -25s-24.5 -41 -24.5 -73h-61
c0 45.333 13.667 81 41 107s67 39 119 39c51.333 0 90.833 -13 118.5 -39s41.5 -61.667 41.5 -107h-61z" />
    <glyph glyph-name="uinvertedbreve" unicode="&#x217;" horiz-adv-x="521" 
d="M103 624c1.33301 46 15.333 81.5 42 106.5s66 37.5 118 37.5s91.5 -12.5 118.5 -37.5s40.833 -60.5 41.5 -106.5h-61c0 32 -8.5 55.667 -25.5 71s-41.5 23 -73.5 23c-31.333 0 -55.5 -7.66699 -72.5 -23s-25.833 -39 -26.5 -71h-61zM193 -10
c-44 0 -76.667 11.6719 -98 35.0049s-32 59.666 -32 108.999v406h79v-385c0 -35.333 5.5 -59.833 16.5 -73.5s30.5 -20.5 58.5 -20.5c25.333 0 50.5 5.16699 75.5 15.5s52.833 25.166 83.5 44.499v419h79v-540h-67l-6 60h-4
c-20.667 -12.667 -39.334 -23.334 -56.001 -32.001s-32.167 -15.834 -46.5 -21.501s-28.166 -9.83398 -41.499 -12.501s-27 -4 -41 -4z" />
    <glyph glyph-name="uni0218" unicode="&#x218;" horiz-adv-x="507" 
d="M220 -68h82l-65 -152h-65zM244 -13c-15.333 0 -31.999 0.834961 -49.999 2.50195s-36.167 4 -54.5 7s-36.333 6.5 -54 10.5s-33.834 8.66699 -48.501 14l4 69c12.667 -4.66699 27.334 -9 44.001 -13s33.667 -7.5 51 -10.5s34.666 -5.33301 51.999 -7s33.333 -2.5 48 -2.5
c50.667 0 89.5 11.333 116.5 34s40.5 55 40.5 97c0 20 -3.5 37.5 -10.5 52.5s-17.167 28.333 -30.5 40s-29.833 22.167 -49.5 31.5s-42.167 18.666 -67.5 27.999c-32 11.333 -59.667 23.166 -83 35.499s-42.833 26.666 -58.5 42.999s-27.167 35.166 -34.5 56.499
s-11 46.333 -11 75c0 30.667 5.33301 58.5 16 83.5s26 46.333 46 64s44 31.334 72 41.001s59.333 14.5 94 14.5c25.333 0 51.833 -1.83301 79.5 -5.5s57.5 -9.5 89.5 -17.5l-4 -68c-30 7.33301 -58.833 12.833 -86.5 16.5s-52.167 5.5 -73.5 5.5
c-46.667 0 -83.667 -12 -111 -36s-41 -56.667 -41 -98c0 -18 2.83301 -33.667 8.5 -47s14.834 -25.666 27.501 -36.999s28.667 -21.666 48 -30.999s42.666 -19 69.999 -29c30.667 -11.333 58 -23.333 82 -36s44 -27.167 60 -43.5s28.167 -35.5 36.5 -57.5s12.5 -48 12.5 -78
c0 -64.667 -20.167 -114.834 -60.5 -150.501s-96.833 -53.5 -169.5 -53.5z" />
    <glyph glyph-name="uni0219" unicode="&#x219;" horiz-adv-x="405" 
d="M172 -68h82l-65 -152h-65zM192 -11c-21.333 0 -43.665 1.83105 -66.998 5.49805s-51.666 9.16699 -84.999 16.5v65c25.333 -7.33301 50.5 -13.166 75.5 -17.499s49.167 -6.5 72.5 -6.5c34 0 60 8 78 24s27 38.667 27 68c0 28 -8 49.333 -24 64s-39.333 25.667 -70 33
c-17.333 4 -35 8.5 -53 13.5s-34.5 12.833 -49.5 23.5s-27.333 25.5 -37 44.5s-14.5 44.5 -14.5 76.5c0 48 15.167 85.5 45.5 112.5s72.5 40.5 126.5 40.5c19.333 0 38.5 -1.16699 57.5 -3.5s44.167 -6.83301 75.5 -13.5l-2 -65
c-28.667 6.66699 -51.834 11.334 -69.501 14.001s-34.5 4 -50.5 4c-34 0 -60.5 -7.66699 -79.5 -23s-28.5 -36.666 -28.5 -63.999c0 -16.667 2.66699 -30.334 8 -41.001s12.666 -19.334 21.999 -26.001s20.333 -12 33 -16s26 -8 40 -12c21.333 -5.33301 41 -11.833 59 -19.5
s33.5 -17.5 46.5 -29.5s23 -26.667 30 -44s10.5 -39 10.5 -65c0 -49.333 -15.833 -88.166 -47.5 -116.499s-74.834 -42.5 -129.501 -42.5z" />
    <glyph glyph-name="uni021A" unicode="&#x21a;" horiz-adv-x="517" 
d="M230 -68h82l-65 -152h-65zM218 669h-203v71h487v-71h-203v-669h-81v669z" />
    <glyph glyph-name="uni021B" unicode="&#x21b;" horiz-adv-x="353" 
d="M189 -68h82l-65 -152h-65zM259 -6c-96 0 -144 49 -144 147v329h-101v70h105l11 135l63 10v-145h144v-70h-144v-314c0 -64.667 28.333 -97 85 -97c8 0 17.333 0.5 28 1.5s21 3.16699 31 6.5v-64c-27.333 -6 -53.333 -9 -78 -9z" />
    <glyph glyph-name="dotlessj" unicode="&#x237;" horiz-adv-x="211" 
d="M-1 -200c12 24.667 22.3311 49.1699 30.998 73.5029s15.834 49.666 21.501 75.999s9.83398 54.333 12.501 84s4 62.5 4 98.5v32.5v69v88v91.5c0 29.333 -0.166992 55.5 -0.5 78.5s-0.5 39.167 -0.5 48.5h78v-453c-1.33301 -54.667 -9.5 -107.834 -24.5 -159.501
s-36.833 -100.834 -65.5 -147.501z" />
    <glyph glyph-name="schwa" unicode="&#x259;" horiz-adv-x="485" 
d="M215 549c74 0 130.503 -23.001 169.503 -69.001s58.5 -112.667 58.5 -200c0 -94 -18.833 -165.667 -56.5 -215s-92.834 -74 -165.501 -74c-121.333 0 -182 79 -182 237c0 15.333 0.333008 28.333 1 39s2 21.334 4 32.001h321c-2.66699 62.667 -16.334 109 -41.001 139
s-62.667 45 -114 45c-23.333 0 -46.833 -2.16699 -70.5 -6.5s-48.834 -11.833 -75.501 -22.5l-5 64c22.667 10 48 17.667 76 23s54.667 8 80 8zM224.003 54.999c87.333 0 134.335 62.333 141.002 187h-254c1.33301 -66.667 10.666 -114.5 27.999 -143.5
s45.666 -43.5 84.999 -43.5z" />
    <glyph glyph-name="apostrophe" unicode="&#x2bc;" horiz-adv-x="199" 
d="M137 808v-4l-31 -224h-37v228h68z" />
    <glyph glyph-name="circumflex" unicode="&#x2c6;" horiz-adv-x="381" 
d="M41 696l144 73l145 -73v-64l-144 72l-145 -72v64z" />
    <glyph glyph-name="caron" unicode="&#x2c7;" horiz-adv-x="368" 
d="M37 773l144 -73l145 73v-65l-145 -73l-144 73v65z" />
    <glyph glyph-name="uni02C9" unicode="&#x2c9;" horiz-adv-x="400" 
d="M61 703h281v-58h-281v58z" />
    <glyph glyph-name="breve" unicode="&#x2d8;" horiz-adv-x="425" 
d="M210 618c-52 0 -91.333 12.833 -118 38.5s-40.667 61.5 -42 107.5h61c0 -32 8.5 -55.833 25.5 -71.5s41.5 -23.5 73.5 -23.5s56.5 7.83301 73.5 23.5s25.5 39.5 25.5 71.5h61c-0.666992 -46 -14.5 -81.833 -41.5 -107.5s-66.5 -38.5 -118.5 -38.5z" />
    <glyph glyph-name="dotaccent" unicode="&#x2d9;" horiz-adv-x="231" 
d="M108 631c-34 0 -51 17 -51 51c0 33.333 17 50 51 50c16 0 28.5 -4 37.5 -12s13.5 -20.667 13.5 -38c0 -18 -4.5 -31 -13.5 -39s-21.5 -12 -37.5 -12z" />
    <glyph glyph-name="ring" unicode="&#x2da;" horiz-adv-x="312" 
d="M154 607c-32.667 0 -58.667 10.167 -78 30.5s-29 45.5 -29 75.5s9.5 55 28.5 75s45.167 30 78.5 30c32.667 0 58.5 -10 77.5 -30s28.5 -45 28.5 -75s-9.66699 -55.167 -29 -75.5s-45 -30.5 -77 -30.5zM154 650c19.333 0 34 5.83105 44 17.498s15 26.834 15 45.501
s-5 33.667 -15 45s-24.667 17 -44 17s-34 -5.66699 -44 -17s-15 -26.333 -15 -45c0 -19.333 5 -34.666 15 -45.999s24.667 -17 44 -17z" />
    <glyph glyph-name="ogonek" unicode="&#x2db;" horiz-adv-x="267" 
d="M149 -220c-65.333 0 -97.999 29 -97.999 87c0 25.333 7.66699 48.666 23 69.999s39.333 42.333 72 63h66v-16c-34.667 -15.333 -60.334 -32.666 -77.001 -51.999s-25 -39.333 -25 -60c0 -25.333 15 -38 45 -38c19.333 0 38 3.66699 56 11v-53c-19.333 -8 -40 -12 -62 -12
z" />
    <glyph glyph-name="tilde" unicode="&#x2dc;" horiz-adv-x="434" 
d="M35 665c14.667 21.333 31.667 38.1689 51 50.502s38.666 18.5 57.999 18.5c14 0 26.833 -2.33301 38.5 -7s23.167 -9.83398 34.5 -15.501s22.5 -10.834 33.5 -15.501s22.833 -7 35.5 -7c24 0 46 13 66 39l29 -25c-12.667 -23.333 -29 -41.333 -49 -54s-40 -19 -60 -19
c-13.333 0 -25.833 2.33301 -37.5 7s-23.167 10 -34.5 16s-22.666 11.333 -33.999 16s-23 7 -35 7s-24 -3.5 -36 -10.5s-23.333 -16.5 -34 -28.5z" />
    <glyph glyph-name="hungarumlaut" unicode="&#x2dd;" horiz-adv-x="388" 
d="M42 622l72 181h77l-98 -191zM208 622l72 181h76l-97 -191z" />
    <glyph glyph-name="uni030F" unicode="&#x30f;" horiz-adv-x="395" 
d="M129 612l-98 191h77l71 -181zM295 612l-98 191h77l71 -181z" />
    <glyph glyph-name="uni0311" unicode="&#x311;" horiz-adv-x="423" 
d="M49 624c1.33301 46 15.333 81.5 42 106.5s66 37.5 118 37.5s91.5 -12.5 118.5 -37.5s40.833 -60.5 41.5 -106.5h-61c0 32 -8.5 55.667 -25.5 71s-41.5 23 -73.5 23c-31.333 0 -55.5 -7.66699 -72.5 -23s-25.833 -39 -26.5 -71h-61v0z" />
    <glyph glyph-name="uni0394" unicode="&#x394;" horiz-adv-x="610" 
d="M254 740h102l251 -740h-604zM507 69l-202 596l-202 -596h404z" />
    <glyph glyph-name="uni03A9" unicode="&#x3a9;" horiz-adv-x="728" 
d="M41 68l201 -2.99902c-23.333 14 -46.333 31.167 -69 51.5s-43 44.5 -61 72.5s-32.5 60.167 -43.5 96.5s-16.5 77.5 -16.5 123.5c0 51.333 7.5 98 22.5 140s36 77.833 63 107.5s59.667 52.667 98 69s81.166 24.5 128.499 24.5c46.667 0 89.334 -8.16699 128.001 -24.5
s71.5 -39.333 98.5 -69s48 -65.5 63 -107.5s22.5 -88.667 22.5 -140c0 -46 -5.66699 -87.167 -17 -123.5s-26 -68.5 -44 -96.5s-38.333 -52.333 -61 -73s-45.334 -38 -68.001 -52l201 4v-68h-277v59c18 12 38 27 60 45s42.5 40.5 61.5 67.5s35 59.667 48 98
s19.5 84.166 19.5 137.499c0 41.333 -5.66699 79 -17 113s-27.166 63.167 -47.499 87.5s-45 43.166 -74 56.499s-61.167 20 -96.5 20s-67.333 -6.66699 -96 -20s-53.167 -32.166 -73.5 -56.499s-36 -53.5 -47 -87.5s-16.5 -71.667 -16.5 -113
c0 -57.333 7.16699 -105.833 21.5 -145.5s31.5 -73 51.5 -100s40.667 -48.5 62 -64.5s39 -28.667 53 -38v-59h-278v68z" />
    <glyph glyph-name="uni03BC" unicode="&#x3bc;" horiz-adv-x="525" 
d="M67 540l77.998 0.00195312v-385c0 -64.667 26 -97 78 -97c23.333 0 47.333 4.83301 72 14.5s52.667 23.834 84 42.501v425h79v-540h-66l-7 60h-4c-20.667 -12.667 -39.167 -23.334 -55.5 -32.001s-31.666 -15.834 -45.999 -21.501s-28.166 -9.83398 -41.499 -12.501
s-27 -4 -41 -4c-10 0 -19.333 0.666992 -28 2s-16.667 3 -24 5v-217h-78v760z" />
    <glyph glyph-name="pi" unicode="&#x3c0;" horiz-adv-x="663" 
d="M189 471l-16.002 0.000976562c-30 0 -52.833 -6 -68.5 -18s-26.5 -31.333 -32.5 -58l-61 20c16.667 83.333 69 125 157 125h447l25 -23v-46h-128v-335c0 -24.667 6.33301 -43.334 19 -56.001s28.667 -19 48 -19h12.5c5.66699 0 10.167 0.666992 13.5 2v-64
c-4 -1.33301 -10.667 -2.16602 -20 -2.49902s-16.666 -0.5 -21.999 -0.5c-39.333 0 -70.166 10.667 -92.499 32s-33.5 52.666 -33.5 93.999v349h-173v-573h-75v573z" />
    <glyph glyph-name="Ddotbelow" unicode="&#x1e0c;" horiz-adv-x="633" 
d="M297 -178c-16 0 -28.001 3.66699 -36.001 11s-12 19.666 -12 36.999s4 29.5 12 36.5s20 10.5 36 10.5c32 0 48 -15.667 48 -47c0 -17.333 -4.16699 -29.666 -12.5 -36.999s-20.166 -11 -35.499 -11zM224.999 -14c-26 0 -51.3311 0.833008 -75.998 2.5
s-48.334 4.16699 -71.001 7.5v739c34 5.33301 65.833 9.16602 95.5 11.499s56.167 3.5 79.5 3.5c116 0 200.833 -30.667 254.5 -92s80.5 -157.666 80.5 -288.999c0 -67.333 -7 -125 -21 -173s-35.833 -87.667 -65.5 -119s-67.334 -54.333 -113.001 -69
s-100.167 -22 -163.5 -22zM247.001 55c88.667 0 153.834 25.002 195.501 75.002s62.5 129.667 62.5 239c0 55.333 -4.66699 102.666 -14 141.999s-23.833 71.666 -43.5 96.999s-45 43.833 -76 55.5s-68.167 17.5 -111.5 17.5c-16.667 0 -33.834 -0.666992 -51.501 -2
s-34.5 -3.33301 -50.5 -6v-612c18 -2 33.833 -3.5 47.5 -4.5s27.5 -1.5 41.5 -1.5z" />
    <glyph glyph-name="ddotbelow" unicode="&#x1e0d;" horiz-adv-x="525" 
d="M259 -178c-16 0 -28.001 3.66699 -36.001 11s-12 19.666 -12 36.999s4 29.5 12 36.5s20 10.5 36 10.5c32 0 48 -15.667 48 -47c0 -17.333 -4.16699 -29.666 -12.5 -36.999s-20.166 -11 -35.499 -11zM232.999 -9c-64 0 -111.833 22.333 -143.5 67s-47.5 113.667 -47.5 207
s21 164 63 212s101 72 177 72c16 0 31.667 -0.666992 47 -2s32.333 -3.33301 51 -6v267h78v-808h-70l-7 58h-4c-33.333 -44.667 -81.333 -67 -144 -67zM251.999 53c16.667 0 32.667 2.66699 48 8s29 13.166 41 23.499s21.5 22.833 28.5 37.5s10.5 31.334 10.5 50.001v306
c-18 3.33301 -34.833 6 -50.5 8s-32.167 3 -49.5 3c-52 0 -91.333 -17.5 -118 -52.5s-40 -90.167 -40 -165.5c0 -74.667 10.833 -129.667 32.5 -165s54.167 -53 97.5 -53z" />
    <glyph glyph-name="Hdotbelow" unicode="&#x1e24;" horiz-adv-x="672" 
d="M78 740h80v-327h355v327h80v-740h-80v343h-355v-343h-80v740zM342 -178c-16 0 -28.001 3.66699 -36.001 11s-12 19.666 -12 36.999s4 29.5 12 36.5s20 10.5 36 10.5c32 0 48 -15.667 48 -47c0 -17.333 -4.16699 -29.666 -12.5 -36.999s-20.166 -11 -35.499 -11z" />
    <glyph glyph-name="hdotbelow" unicode="&#x1e25;" horiz-adv-x="522" 
d="M67 808l78.001 0.000976562v-327c40 23.333 74.667 40.666 104 51.999s57.666 17 84.999 17c42.667 0 74 -11.333 94 -34s30 -59.334 30 -110.001v-406h-78v384c0 34.667 -6 59.334 -18 74.001s-30.667 22 -56 22c-22.667 0 -47.5 -4.83301 -74.5 -14.5
s-55.833 -23.5 -86.5 -41.5v-424h-78v808zM265.001 -177.999c-16 0 -28.001 3.66699 -36.001 11s-12 19.666 -12 36.999s4 29.5 12 36.5s20 10.5 36 10.5c32 0 48 -15.667 48 -47c0 -17.333 -4.16699 -29.666 -12.5 -36.999s-20.166 -11 -35.499 -11z" />
    <glyph glyph-name="Ndotaccent" unicode="&#x1e44;" horiz-adv-x="695" 
d="M349 804c-34 0 -51 16.667 -51 50c0 34 17 51 51 51c34.667 0 52 -17 52 -51c0 -33.333 -17.333 -50 -52 -50zM78 740h73l338 -521l48 -84h6v605h74v-740h-74l-336 518l-49 88l-6 -1v-605h-74v740z" />
    </font>
</defs>
</svg>
