<?xml version="1.0" standalone="no"?>
<!DOCTYPE svg PUBLIC "-//W3C//DTD SVG 1.1//EN" "http://www.w3.org/Graphics/SVG/1.1/DTD/svg11.dtd" >
<svg>
<metadata>
Created by FontForge 20090914 at Sat Aug  6 10:46:04 2016
 By www-data
Copyright (c) 2012, Impallari Type (www.impallari.com), with Reserved Font Name Encode Sans.
</metadata>
<defs>
<font id="EncodeSansCondensed-Medium" horiz-adv-x="544" >
  <font-face 
    font-family="Encode Sans Condensed"
    font-weight="500"
    font-stretch="normal"
    units-per-em="1000"
    panose-1="2 0 0 0 0 0 0 0 0 0"
    ascent="800"
    descent="-200"
    x-height="540"
    cap-height="740"
    bbox="-97 -220.001 1485 1030"
    underline-thickness="55"
    underline-position="-57"
    unicode-range="U+000D-U+FB04"
  />
<missing-glyph horiz-adv-x="685" 
d="M84 1030h516v-1250h-516v1250zM513 -138v1087h-342v-1087h342z" />
    <glyph glyph-name="f_f" unicode="ff" horiz-adv-x="656" 
d="M103 454l-87.999 -0.000976562v86h89v33c0 44 3.83301 80.833 11.5 110.5s20.5 53.667 38.5 72s42 31.833 72 40.5s67.667 14 113 16l4 -77c-28 -2 -50.833 -5.83301 -68.5 -11.5s-31.834 -14.167 -42.501 -25.5s-18 -26.166 -22 -44.499s-6 -41.833 -6 -70.5v-43h116
v-86h-116v-454h-101v454zM428.001 453.999l-87.999 -0.000976562v86h89v33c0 44 3.83301 80.833 11.5 110.5s20.5 53.667 38.5 72s42 31.833 72 40.5s67.667 14 113 16l4 -77c-28 -2 -50.833 -5.83301 -68.5 -11.5s-31.834 -14.167 -42.501 -25.5s-18 -26.166 -22 -44.499
s-6 -41.833 -6 -70.5v-43h116v-86h-116v-454h-101v454z" />
    <glyph glyph-name="f_i" unicode="fi" horiz-adv-x="569" 
d="M455 647c-40.667 0 -61 20 -61 60c0 39.333 20.333 59 61 59s61 -19.667 61 -59c0 -40 -20.333 -60 -61 -60zM405 540h100v-540h-100v540zM103 454l-87.999 -0.000976562v86h89v33c0 44 3.83301 80.833 11.5 110.5s20.5 53.667 38.5 72s42 31.833 72 40.5
s67.667 14 113 16l4 -77c-28 -2 -50.833 -5.83301 -68.5 -11.5s-31.834 -14.167 -42.501 -25.5s-18 -26.166 -22 -44.499s-6 -41.833 -6 -70.5v-43h116v-86h-116v-454h-101v454z" />
    <glyph glyph-name="f_l" unicode="fl" horiz-adv-x="570" 
d="M103 454l-87.999 -0.000976562v86h89v33c0 44 3.83301 80.833 11.5 110.5s20.5 53.667 38.5 72s42 31.833 72 40.5s67.667 14 113 16l4 -77c-28 -2 -50.833 -5.83301 -68.5 -11.5s-31.834 -14.167 -42.501 -25.5s-18 -26.166 -22 -44.499s-6 -41.833 -6 -70.5v-43h116
v-86h-116v-454h-101v454zM404.001 807.999h101v-808h-101v808z" />
    <glyph glyph-name="f_f_i" unicode="ffi" horiz-adv-x="891" 
d="M777 647c-40.667 0 -61 20 -61 60c0 39.333 20.333 59 61 59s61 -19.667 61 -59c0 -40 -20.333 -60 -61 -60zM727 540h100v-540h-100v540zM425 454l-87.999 -0.000976562v86h89v33c0 44 3.83301 80.833 11.5 110.5s20.5 53.667 38.5 72s42 31.833 72 40.5
s67.667 14 113 16l4 -77c-28 -2 -50.833 -5.83301 -68.5 -11.5s-31.834 -14.167 -42.501 -25.5s-18 -26.166 -22 -44.499s-6 -41.833 -6 -70.5v-43h116v-86h-116v-454h-101v454zM103.001 453.999l-87.999 -0.000976562v86h89v33c0 44 3.83301 80.833 11.5 110.5
s20.5 53.667 38.5 72s42 31.833 72 40.5s67.667 14 113 16l4 -77c-28 -2 -50.833 -5.83301 -68.5 -11.5s-31.834 -14.167 -42.501 -25.5s-18 -26.166 -22 -44.499s-6 -41.833 -6 -70.5v-43h116v-86h-116v-454h-101v454z" />
    <glyph glyph-name="f_f_l" unicode="ffl" horiz-adv-x="892" 
d="M425 454l-87.999 -0.000976562v86h89v33c0 44 3.83301 80.833 11.5 110.5s20.5 53.667 38.5 72s42 31.833 72 40.5s67.667 14 113 16l4 -77c-28 -2 -50.833 -5.83301 -68.5 -11.5s-31.834 -14.167 -42.501 -25.5s-18 -26.166 -22 -44.499s-6 -41.833 -6 -70.5v-43h116
v-86h-116v-454h-101v454zM726.001 807.999h101v-808h-101v808zM103.001 453.999l-87.999 -0.000976562v86h89v33c0 44 3.83301 80.833 11.5 110.5s20.5 53.667 38.5 72s42 31.833 72 40.5s67.667 14 113 16l4 -77c-28 -2 -50.833 -5.83301 -68.5 -11.5
s-31.834 -14.167 -42.501 -25.5s-18 -26.166 -22 -44.499s-6 -41.833 -6 -70.5v-43h116v-86h-116v-454h-101v454z" />
    <glyph glyph-name="f_b" unicode="fb" horiz-adv-x="880" 
d="M103 454l-87.999 -0.000976562v86h89v33c0 44 3.83301 80.833 11.5 110.5s20.5 53.667 38.5 72s42 31.833 72 40.5s67.667 14 113 16l4 -77c-28 -2 -50.833 -5.83301 -68.5 -11.5s-31.834 -14.167 -42.501 -25.5s-18 -26.166 -22 -44.499s-6 -41.833 -6 -70.5v-43h116
v-86h-116v-454h-101v454zM589.001 -10.001c-53.333 0 -114.999 9.33496 -184.999 28.002v790h101v-324c16.667 21.333 37.5 37.5 62.5 48.5s53.167 16.5 84.5 16.5c126 0 189 -89 189 -267c0 -42.667 -4.83301 -81.667 -14.5 -117s-24.667 -65.833 -45 -91.5
s-46.333 -45.834 -78 -60.501s-69.834 -22.334 -114.501 -23.001zM592.002 63.001c50.667 0 87.834 16.168 111.501 48.501s35.5 86.166 35.5 161.499c0 71.333 -9.33301 122.333 -28 153s-48.334 46 -89.001 46c-32 0 -59.5 -10.5 -82.5 -31.5s-34.5 -52.5 -34.5 -94.5
v-272c28 -7.33301 57 -11 87 -11z" />
    <glyph glyph-name="f_f_b" unicode="ffb" horiz-adv-x="1202" 
d="M426 454l-87.999 -0.000976562v86h89v33c0 44 3.83301 80.833 11.5 110.5s20.5 53.667 38.5 72s42 31.833 72 40.5s67.667 14 113 16l4 -77c-28 -2 -50.833 -5.83301 -68.5 -11.5s-31.834 -14.167 -42.501 -25.5s-18 -26.166 -22 -44.499s-6 -41.833 -6 -70.5v-43h116
v-86h-116v-454h-101v454zM911.001 -10.001c-53.333 0 -114.999 9.33496 -184.999 28.002v790h101v-324c16.667 21.333 37.5 37.5 62.5 48.5s53.167 16.5 84.5 16.5c126 0 189 -89 189 -267c0 -42.667 -4.83301 -81.667 -14.5 -117s-24.667 -65.833 -45 -91.5
s-46.333 -45.834 -78 -60.501s-69.834 -22.334 -114.501 -23.001zM914.002 63.001c50.667 0 87.834 16.168 111.501 48.501s35.5 86.166 35.5 161.499c0 71.333 -9.33301 122.333 -28 153s-48.334 46 -89.001 46c-32 0 -59.5 -10.5 -82.5 -31.5s-34.5 -52.5 -34.5 -94.5
v-272c28 -7.33301 57 -11 87 -11zM103.002 454.002l-87.999 -0.000976562v86h89v33c0 44 3.83301 80.833 11.5 110.5s20.5 53.667 38.5 72s42 31.833 72 40.5s67.667 14 113 16l4 -77c-28 -2 -50.833 -5.83301 -68.5 -11.5s-31.834 -14.167 -42.501 -25.5
s-18 -26.166 -22 -44.499s-6 -41.833 -6 -70.5v-43h116v-86h-116v-454h-101v454z" />
    <glyph glyph-name="f_f_h" unicode="ffh" horiz-adv-x="1200" 
d="M727 808l101 -0.000976562v-325c40 23.333 74.167 40.333 102.5 51s56.166 16 83.499 16c42.667 0 74.334 -11.667 95.001 -35s31 -59.666 31 -108.999v-406h-100v375c0 31.333 -5.33301 53.833 -16 67.5s-27.667 20.5 -51 20.5c-20 0 -42.333 -4.33301 -67 -13
s-50.667 -21 -78 -37v-413h-101v808zM425 453.999l-87.999 -0.000976562v86h89v33c0 44 3.83301 80.833 11.5 110.5s20.5 53.667 38.5 72s42 31.833 72 40.5s67.667 14 113 16l4 -77c-28 -2 -50.833 -5.83301 -68.5 -11.5s-31.834 -14.167 -42.501 -25.5
s-18 -26.166 -22 -44.499s-6 -41.833 -6 -70.5v-43h116v-86h-116v-454h-101v454zM103.001 453.998l-87.999 -0.000976562v86h89v33c0 44 3.83301 80.833 11.5 110.5s20.5 53.667 38.5 72s42 31.833 72 40.5s67.667 14 113 16l4 -77c-28 -2 -50.833 -5.83301 -68.5 -11.5
s-31.834 -14.167 -42.501 -25.5s-18 -26.166 -22 -44.499s-6 -41.833 -6 -70.5v-43h116v-86h-116v-454h-101v454z" />
    <glyph glyph-name="f_f_j" unicode="ffj" horiz-adv-x="894" 
d="M426 454l-87.999 -0.000976562v86h89v33c0 44 3.83301 80.833 11.5 110.5s20.5 53.667 38.5 72s42 31.833 72 40.5s67.667 14 113 16l4 -77c-28 -2 -50.833 -5.83301 -68.5 -11.5s-31.834 -14.167 -42.501 -25.5s-18 -26.166 -22 -44.499s-6 -41.833 -6 -70.5v-43h116
v-86h-116v-454h-101v454zM781.001 646.999c-40.667 0 -61 20 -61 60c0 39.333 20.333 59 61 59s61 -19.667 61 -59c0 -40 -20.333 -60 -61 -60zM670.001 -196.001c21.333 44.667 37 92.5 47 143.5s15 108.167 15 171.5v32.5v75.5v97.5v99c0 31 -0.166992 57.333 -0.5 79
s-0.5 34.167 -0.5 37.5h101v-456c-0.666992 -52 -9.16699 -104.667 -25.5 -158s-38.5 -102 -66.5 -146zM103.001 453.999l-87.999 -0.000976562v86h89v33c0 44 3.83301 80.833 11.5 110.5s20.5 53.667 38.5 72s42 31.833 72 40.5s67.667 14 113 16l4 -77
c-28 -2 -50.833 -5.83301 -68.5 -11.5s-31.834 -14.167 -42.501 -25.5s-18 -26.166 -22 -44.499s-6 -41.833 -6 -70.5v-43h116v-86h-116v-454h-101v454z" />
    <glyph glyph-name="f_f_k" unicode="ffk" horiz-adv-x="1165" 
d="M727 808h101v-493h67l146 225h111l-172 -253l-18 -8v-3l19 -10l188 -266h-111l-165 241h-65v-241h-101v808zM425 454l-87.999 -0.000976562v86h89v33c0 44 3.83301 80.833 11.5 110.5s20.5 53.667 38.5 72s42 31.833 72 40.5s67.667 14 113 16l4 -77
c-28 -2 -50.833 -5.83301 -68.5 -11.5s-31.834 -14.167 -42.501 -25.5s-18 -26.166 -22 -44.499s-6 -41.833 -6 -70.5v-43h116v-86h-116v-454h-101v454zM103.001 453.999l-87.999 -0.000976562v86h89v33c0 44 3.83301 80.833 11.5 110.5s20.5 53.667 38.5 72
s42 31.833 72 40.5s67.667 14 113 16l4 -77c-28 -2 -50.833 -5.83301 -68.5 -11.5s-31.834 -14.167 -42.501 -25.5s-18 -26.166 -22 -44.499s-6 -41.833 -6 -70.5v-43h116v-86h-116v-454h-101v454z" />
    <glyph glyph-name="f_f_t" unicode="fft" horiz-adv-x="1008" 
d="M426 454l-87.999 -0.000976562v86h89v33c0 44 3.83301 80.833 11.5 110.5s20.5 53.667 38.5 72s42 31.833 72 40.5s67.667 14 113 16l4 -77c-28 -2 -50.833 -5.83301 -68.5 -11.5s-31.834 -14.167 -42.501 -25.5s-18 -26.166 -22 -44.499s-6 -41.833 -6 -70.5v-43h116
v-86h-116v-454h-101v454zM906.001 -7.00098c-102 0 -152.999 50.334 -152.999 151.001v309h-97v87h103l14 140l80 12v-152h137v-87h-136v-288c0 -61.333 26.333 -92 79 -92c8 0 17.167 0.666992 27.5 2s20.166 3.66602 29.499 6.99902v-79
c-13.333 -3.33301 -27.333 -5.83301 -42 -7.5s-28.667 -2.5 -42 -2.5zM103.002 454l-87.999 -0.000976562v86h89v33c0 44 3.83301 80.833 11.5 110.5s20.5 53.667 38.5 72s42 31.833 72 40.5s67.667 14 113 16l4 -77c-28 -2 -50.833 -5.83301 -68.5 -11.5
s-31.834 -14.167 -42.501 -25.5s-18 -26.166 -22 -44.499s-6 -41.833 -6 -70.5v-43h116v-86h-116v-454h-101v454z" />
    <glyph glyph-name="f_h" unicode="fh" horiz-adv-x="878" 
d="M405 808l101 -0.000976562v-325c40 23.333 74.167 40.333 102.5 51s56.166 16 83.499 16c42.667 0 74.334 -11.667 95.001 -35s31 -59.666 31 -108.999v-406h-100v375c0 31.333 -5.33301 53.833 -16 67.5s-27.667 20.5 -51 20.5c-20 0 -42.333 -4.33301 -67 -13
s-50.667 -21 -78 -37v-413h-101v808zM103 453.999l-87.999 -0.000976562v86h89v33c0 44 3.83301 80.833 11.5 110.5s20.5 53.667 38.5 72s42 31.833 72 40.5s67.667 14 113 16l4 -77c-28 -2 -50.833 -5.83301 -68.5 -11.5s-31.834 -14.167 -42.501 -25.5
s-18 -26.166 -22 -44.499s-6 -41.833 -6 -70.5v-43h116v-86h-116v-454h-101v454z" />
    <glyph glyph-name="f_j" unicode="fj" horiz-adv-x="572" 
d="M103 454l-87.999 -0.000976562v86h89v33c0 44 3.83301 80.833 11.5 110.5s20.5 53.667 38.5 72s42 31.833 72 40.5s67.667 14 113 16l4 -77c-28 -2 -50.833 -5.83301 -68.5 -11.5s-31.834 -14.167 -42.501 -25.5s-18 -26.166 -22 -44.499s-6 -41.833 -6 -70.5v-43h116
v-86h-116v-454h-101v454zM459.001 646.999c-40.667 0 -61 20 -61 60c0 39.333 20.333 59 61 59s61 -19.667 61 -59c0 -40 -20.333 -60 -61 -60zM348.001 -196.001c21.333 44.667 37 92.5 47 143.5s15 108.167 15 171.5v32.5v75.5v97.5v99c0 31 -0.166992 57.333 -0.5 79
s-0.5 34.167 -0.5 37.5h101v-456c-0.666992 -52 -9.16699 -104.667 -25.5 -158s-38.5 -102 -66.5 -146z" />
    <glyph glyph-name="f_k" unicode="fk" horiz-adv-x="843" 
d="M405 808h101v-493h67l146 225h111l-172 -253l-18 -8v-3l19 -10l188 -266h-111l-165 241h-65v-241h-101v808zM103 454l-87.999 -0.000976562v86h89v33c0 44 3.83301 80.833 11.5 110.5s20.5 53.667 38.5 72s42 31.833 72 40.5s67.667 14 113 16l4 -77
c-28 -2 -50.833 -5.83301 -68.5 -11.5s-31.834 -14.167 -42.501 -25.5s-18 -26.166 -22 -44.499s-6 -41.833 -6 -70.5v-43h116v-86h-116v-454h-101v454z" />
    <glyph glyph-name="f_t" unicode="ft" horiz-adv-x="685" 
d="M103 454l-87.999 -0.000976562v86h89v33c0 44 3.83301 80.833 11.5 110.5s20.5 53.667 38.5 72s42 31.833 72 40.5s67.667 14 113 16l4 -77c-28 -2 -50.833 -5.83301 -68.5 -11.5s-31.834 -14.167 -42.501 -25.5s-18 -26.166 -22 -44.499s-6 -41.833 -6 -70.5v-43h116
v-86h-116v-454h-101v454zM583.001 -7.00098c-102 0 -152.999 50.334 -152.999 151.001v309h-97v87h103l14 140l80 12v-152h137v-87h-136v-288c0 -61.333 26.333 -92 79 -92c8 0 17.167 0.666992 27.5 2s20.166 3.66602 29.499 6.99902v-79
c-13.333 -3.33301 -27.333 -5.83301 -42 -7.5s-28.667 -2.5 -42 -2.5z" />
    <glyph glyph-name=".notdef" horiz-adv-x="685" 
d="M84 1030h516v-1250h-516v1250zM513 -138v1087h-342v-1087h342z" />
    <glyph glyph-name="NULL" horiz-adv-x="0" 
 />
    <glyph glyph-name="NULL" horiz-adv-x="0" 
 />
    <glyph glyph-name="nonmarkingreturn" unicode="&#xd;" horiz-adv-x="281" 
 />
    <glyph glyph-name="space" unicode=" " horiz-adv-x="202" 
 />
    <glyph glyph-name="exclam" unicode="!" horiz-adv-x="242" 
d="M123 -1c-19.333 0 -34.166 5.16699 -44.499 15.5s-15.5 24.833 -15.5 43.5c0 18 5.16699 32.167 15.5 42.5s25.166 15.5 44.499 15.5s34.166 -5.33301 44.499 -16s15.5 -24.667 15.5 -42c0 -18.667 -5.16699 -33.167 -15.5 -43.5s-25.166 -15.5 -44.499 -15.5zM89 212
l-21 518v10h105v-10l-20 -518v-13h-64v13z" />
    <glyph glyph-name="quotedbl" unicode="&#x22;" horiz-adv-x="355" 
d="M141 808v-4l-31 -324h-53v328h84zM312 808v-4l-31 -324h-53v328h84z" />
    <glyph glyph-name="numbersign" unicode="#" horiz-adv-x="523" 
d="M299 222h-106l-18 -222h-74l18 222h-76v69h81l13 158h-94v69h100l18 222h74l-18 -222h106l19 222h74l-18 -222h82v-69h-88l-13 -158h101v-69h-106l-18 -222h-75zM198 291h107l13 158h-107z" />
    <glyph glyph-name="dollar" unicode="$" horiz-adv-x="522" 
d="M233 -12c-31.333 1.33301 -64.501 5.00293 -99.501 11.0029s-67.5 13.667 -97.5 23l4 87c14 -4.66699 29.333 -9.16699 46 -13.5s33.834 -8 51.501 -11s35.167 -5.33301 52.5 -7s33.333 -2.5 48 -2.5c48 0 84.667 10.167 110 30.5s38 49.5 38 87.5
c0 18.667 -3.33301 34.834 -10 48.501s-16.5 25.667 -29.5 36s-28.833 19.833 -47.5 28.5s-40 17 -64 25c-31.333 10 -58.666 21 -81.999 33s-43 26.167 -59 42.5s-28 35.833 -36 58.5s-12 49.667 -12 81c0 54 15.833 98.667 47.5 134s75.834 57.666 132.501 66.999v137h89
v-133c21.333 -1.33301 43.833 -3.83301 67.5 -7.5s49.167 -8.83398 76.5 -15.501l-3 -85c-30 7.33301 -59.5 13.166 -88.5 17.499s-54.167 6.5 -75.5 6.5c-44 0 -78.5 -10.833 -103.5 -32.5s-37.5 -50.834 -37.5 -87.501c0 -17.333 3 -32.333 9 -45
s15.167 -24.167 27.5 -34.5s27.833 -19.833 46.5 -28.5s41 -17.667 67 -27c30 -10 56.667 -21.167 80 -33.5s43.166 -26.833 59.499 -43.5s28.666 -36.167 36.999 -58.5s12.5 -48.833 12.5 -79.5c0 -55.333 -14.667 -100.333 -44 -135s-71 -57 -125 -67v-139h-88v132z" />
    <glyph glyph-name="percent" unicode="%" horiz-adv-x="894" 
d="M204 280c-56 0 -98.333 19.833 -127 59.5s-43 98.167 -43 175.5s14.333 135.833 43 175.5s71 59.5 127 59.5s98.333 -19.833 127 -59.5s43 -98.167 43 -175.5s-14.333 -135.833 -43 -175.5s-71 -59.5 -127 -59.5zM204 351c31.333 0 54.333 13.167 69 39.5
s22 67.833 22 124.5s-7.5 98.334 -22.5 125.001s-37.833 40 -68.5 40c-31.333 0 -54.5 -13.333 -69.5 -40s-22.5 -68.334 -22.5 -125.001s7.33301 -98.167 22 -124.5s38 -39.5 70 -39.5zM692 -12c-56 0 -98.5 19.667 -127.5 59s-43.5 98 -43.5 176
c0 77.333 14.5 135.833 43.5 175.5s71.5 59.5 127.5 59.5s98.333 -19.833 127 -59.5s43 -98.167 43 -175.5c0 -78 -14.333 -136.667 -43 -176s-71 -59 -127 -59zM692 58c31.333 0 54.333 13.333 69 40s22 68.334 22 125.001s-7.5 98.167 -22.5 124.5
s-37.833 39.5 -68.5 39.5c-62 0 -93 -54.667 -93 -164c0 -56.667 7.5 -98.334 22.5 -125.001s38.5 -40 70.5 -40zM546 740h87l-288 -740h-87z" />
    <glyph glyph-name="ampersand" unicode="&#x26;" horiz-adv-x="657" 
d="M293 -11c-38.667 0 -73.498 5.00098 -104.498 15.001s-57.333 24.333 -79 43s-38.334 41.5 -50.001 68.5s-17.5 57.167 -17.5 90.5c0 46 10.667 85.333 32 118s52 57.334 92 74.001c-20 25.333 -34.333 51 -43 77s-13 54.333 -13 85c0 62.667 18.5 110.334 55.5 143.001
s90.5 49 160.5 49c50.667 0 106.667 -11.667 168 -35l1 -5l-15 -73h-6c-52 21.333 -98.667 32 -140 32c-82.667 0 -124 -40.667 -124 -122c0 -21.333 3.5 -41.5 10.5 -60.5s18 -37.833 33 -56.5s34.167 -37.334 57.5 -56.001s51.666 -38.334 84.999 -59.001l91 -57
c2 12.667 3.33301 25.667 4 39s1 27.666 1 42.999v71l91 4v-75c0 -25.333 -1.16699 -49 -3.5 -71s-5.83301 -42.667 -10.5 -62l78 -49v-7l-38 -77h-7l-66 44c-48 -87.333 -129 -131 -243 -131zM355.002 240.001c-55.333 36.667 -100.333 70.333 -135 101
c-50.667 -26 -76 -69.333 -76 -130c0 -44 13.833 -78.667 41.5 -104s65.167 -38 112.5 -38c79.333 0 134.333 33 165 99z" />
    <glyph glyph-name="quotesingle" unicode="'" horiz-adv-x="184" 
d="M141 808v-4l-31 -324h-53v328h84z" />
    <glyph glyph-name="parenleft" unicode="(" horiz-adv-x="292" 
d="M191 -160c-50.667 74 -89 154.833 -115 242.5s-39 178.167 -39 271.5s13 183.833 39 271.5s64.333 168.5 115 242.5h89v-4c-50 -73.333 -89 -153.333 -117 -240s-42 -176.667 -42 -270s14 -183.333 42 -270s67 -166.667 117 -240v-4h-89v0z" />
    <glyph glyph-name="parenright" unicode=")" horiz-adv-x="292" 
d="M13 -160v4c50 73.333 88.667 153.333 116 240s41 176.667 41 270s-13.667 183.333 -41 270s-66 166.667 -116 240v4h89c50 -74 88 -154.833 114 -242.5s39 -178.167 39 -271.5s-13 -183.833 -39 -271.5s-64 -168.5 -114 -242.5h-89z" />
    <glyph glyph-name="asterisk" unicode="*" horiz-adv-x="485" 
d="M94 484l46 65l78 74l-106 14l-75 24l20 64l76 -24l94 -50l-19 106v79h69v-79l-20 -106l94 50l76 24l21 -64l-76 -24l-106 -14l78 -74l47 -65l-55 -40l-47 64l-47 100l-47 -100l-47 -64z" />
    <glyph glyph-name="plus" unicode="+" horiz-adv-x="488" 
d="M40 407h167v167h74v-167h168v-74h-168v-167h-74v167h-167v74z" />
    <glyph glyph-name="comma" unicode="," horiz-adv-x="222" 
d="M22 -145l44 259h104l-72 -269z" />
    <glyph glyph-name="hyphen" unicode="-" horiz-adv-x="391" 
d="M56 320h279v-80h-279v80z" />
    <glyph glyph-name="period" unicode="." horiz-adv-x="223" 
d="M111 -4c-41.333 0 -62 20 -62 60s20.667 60 62 60c42 0 63 -20 63 -60s-21 -60 -63 -60z" />
    <glyph glyph-name="slash" unicode="/" horiz-adv-x="334" 
d="M217 740h89l-188 -861h-90z" />
    <glyph glyph-name="zero" unicode="0" horiz-adv-x="597" 
d="M299 -10c-83.333 0 -146.5 31.833 -189.5 95.5s-64.5 158.167 -64.5 283.5c0 126 21.5 221 64.5 285s106.167 96 189.5 96s146.333 -32 189 -96s64 -159 64 -285c0 -125.333 -21.333 -219.833 -64 -283.5s-105.667 -95.5 -189 -95.5zM299 77
c50.667 0 88.334 23.5 113.001 70.5s37 120.833 37 221.5c0 101.333 -12.333 175.833 -37 223.5s-62.334 71.5 -113.001 71.5c-51.333 0 -89.333 -23.833 -114 -71.5s-37 -122.167 -37 -223.5c0 -100.667 12.333 -174.5 37 -221.5s62.667 -70.5 114 -70.5z" />
    <glyph glyph-name="one" unicode="1" horiz-adv-x="373" 
d="M188 622h-4l-138 -77h-11l-20 53l2 11l199 131h75v-740h-103v622z" />
    <glyph glyph-name="two" unicode="2" horiz-adv-x="491" 
d="M39 105c0 30.667 3.49805 58.6699 10.498 84.0029s17.833 49 32.5 71s33.167 42.667 55.5 62s49.166 39 80.499 59c22.667 14.667 42 28.667 58 42s29 26.666 39 39.999s17.167 27 21.5 41s6.5 29 6.5 45c0 75.333 -43.667 113 -131 113c-20.667 0 -43.167 -2 -67.5 -6
s-49.833 -10 -76.5 -18l-11 85c34.667 9.33301 66.834 16 96.501 20s57.5 6 83.5 6c139.333 0 209 -63.333 209 -190c0 -24.667 -3 -47.5 -9 -68.5s-15.333 -40.833 -28 -59.5s-29 -36.834 -49 -54.501s-43.667 -35.834 -71 -54.501
c-27.333 -19.333 -50.166 -36.833 -68.499 -52.5s-33.166 -31 -44.499 -46s-19.5 -30.167 -24.5 -45.5s-7.5 -32.333 -7.5 -51v-40h301v-87h-406v105z" />
    <glyph glyph-name="three" unicode="3" horiz-adv-x="468" 
d="M178 -9c-21.333 0 -43.499 1.16797 -66.499 3.50098s-44.5 5.83301 -64.5 10.5v79h6c14 -4 31.167 -7.16699 51.5 -9.5s40.166 -3.5 59.499 -3.5c104.667 0 157 43.667 157 131c0 47.333 -13.333 82.333 -40 105s-70.334 34 -131.001 34h-37v77h37
c52 0 90.167 10.333 114.5 31s36.5 52.667 36.5 96c0 42 -10.667 73 -32 93s-54.666 30 -99.999 30c-14.667 0 -31.667 -1 -51 -3s-40.333 -5.33301 -63 -10h-7l-4 79c21.333 5.33301 43.833 9.33301 67.5 12s46.5 4 68.5 4c74 0 130 -15.833 168 -47.5
s57 -78.834 57 -141.501c0 -46 -10.333 -84.167 -31 -114.5s-50.667 -50.833 -90 -61.5v-4c46 -10 81 -31 105 -63s36 -73 36 -123c0 -64.667 -21.333 -114.667 -64 -150s-103.667 -53.333 -183 -54z" />
    <glyph glyph-name="four" unicode="4" horiz-adv-x="546" 
d="M17 230v5l244 515h5l95 -11l4 -7l-240 -478v-4h210l27 245h74v-245h86v-80h-86v-170h-102v170h-299z" />
    <glyph glyph-name="five" unicode="5" horiz-adv-x="467" 
d="M179 -12c-20 0 -41 1.33008 -63 3.99707s-45.667 6.33398 -71 11.001v83h23c38 -8 72 -12 102 -12c104 0 156 48.333 156 145c0 25.333 -3.66699 46.833 -11 64.5s-19 32 -35 43s-36.667 19 -62 24s-56.333 7.5 -93 7.5h-64l-6 6l27 376h315v-87h-235l-15 -217
c50 -0.666992 92.833 -5.16699 128.5 -13.5s65 -21.166 88 -38.499s40 -39.666 51 -66.999s16.5 -60.333 16.5 -99c0 -38 -5.83301 -71.5 -17.5 -100.5s-28.5 -53 -50.5 -72s-48.5 -33.333 -79.5 -43s-65.833 -14.5 -104.5 -14.5z" />
    <glyph glyph-name="six" unicode="6" horiz-adv-x="557" 
d="M290 -11c-80.667 0 -141.668 28.668 -183.001 86.001s-62 142 -62 254c0 136 26.667 240.333 80 313s131.333 109 234 109c19.333 0 39 -1.33301 59 -4s41.333 -7.33398 64 -14.001l-9 -82c-22 6 -41.833 10.333 -59.5 13s-35.167 4 -52.5 4
c-65.333 0 -115.666 -23 -150.999 -69s-56.333 -114.667 -63 -206c22 20.667 47.167 36.667 75.5 48s57.5 17 87.5 17c66.667 0 119 -19.333 157 -58s57 -92 57 -160c0 -38 -5.5 -72.5 -16.5 -103.5s-26.667 -57.5 -47 -79.5s-44.833 -38.833 -73.5 -50.5
s-61 -17.5 -97 -17.5zM289.999 383.001c-25.333 0 -51.1641 -6.16797 -77.4971 -18.501s-48.833 -28.166 -67.5 -47.499c1.33301 -84 13.666 -145.667 36.999 -185s59.333 -59 108 -59c41.333 0 73.666 14.5 96.999 43.5s35 69.5 35 121.5c0 47.333 -11.333 83.333 -34 108
s-55.334 37 -98.001 37z" />
    <glyph glyph-name="seven" unicode="7" horiz-adv-x="430" 
d="M166 -15l-84 15v15l228 636h-285l-4 78l11 11h366l16 -57v-26l-227 -658z" />
    <glyph glyph-name="eight" unicode="8" horiz-adv-x="551" 
d="M276 -4c-74 0 -131.169 16.5 -171.502 49.5s-60.5 79.5 -60.5 139.5c0 50 10.833 90.5 32.5 121.5s50.5 55.833 86.5 74.5c-30 17.333 -54 39.666 -72 66.999s-27 64.333 -27 111c0 60 19.333 106.667 58 140s90.334 50 155.001 50c65.333 0 116.666 -16.667 153.999 -50
s56 -80.333 56 -141c0 -45.333 -8.66699 -81.666 -26 -108.999s-41.666 -50 -72.999 -68c36 -17.333 64.833 -40 86.5 -68s32.5 -67 32.5 -117c0 -62.667 -20.167 -111.667 -60.5 -147s-97.166 -53 -170.499 -53zM238.998 348
c-28.667 -15.333 -52.332 -34.666 -70.999 -57.999s-28 -55 -28 -95s12.167 -71.167 36.5 -93.5s57.5 -33.5 99.5 -33.5c41.333 0 74.166 10.667 98.499 32s36.5 51 36.5 89c0 22.667 -3.5 42 -10.5 58s-17 29.833 -30 41.5s-28.833 21.667 -47.5 30s-40 16.166 -64 23.499z
M156 553c0 -20.667 3.49902 -38.5 10.499 -53.5s17.167 -28 30.5 -39s29.333 -20.5 48 -28.5s39.667 -15.333 63 -22c26 14 47 32.333 63 55s24 53 24 91c0 38.667 -10.5 68.167 -31.5 88.5s-50.167 30.5 -87.5 30.5s-66.666 -10.333 -87.999 -31s-32 -51 -32 -91z" />
    <glyph glyph-name="nine" unicode="9" horiz-adv-x="557" 
d="M267 751c80.667 0 141.668 -28.668 183.001 -86.001s62 -142 62 -254c0 -136 -26.667 -240.333 -80 -313s-131.333 -109 -234 -109c-19.333 0 -39 1.33301 -59 4s-41.333 7.33398 -64 14.001l9 82c22 -6 41.833 -10.333 59.5 -13s35.167 -4 52.5 -4
c65.333 0 115.666 23 150.999 69s56.333 114.667 63 206c-22 -20.667 -47.167 -36.667 -75.5 -48s-57.5 -17 -87.5 -17c-66.667 0 -119 19.333 -157 58s-57 92 -57 160c0 38 5.5 72.5 16.5 103.5s26.667 57.5 47 79.5s44.833 38.833 73.5 50.5s61 17.5 97 17.5z
M267.001 356.999c25.333 0 51.1641 6.16797 77.4971 18.501s48.833 28.166 67.5 47.499c-1.33301 84 -13.666 145.667 -36.999 185s-59.333 59 -108 59c-41.333 0 -73.666 -14.5 -96.999 -43.5s-35 -69.5 -35 -121.5c0 -47.333 11.333 -83.333 34 -108
s55.334 -37 98.001 -37z" />
    <glyph glyph-name="colon" unicode=":" horiz-adv-x="232" 
d="M116 -4c-41.333 0 -62 20 -62 60s20.667 60 62 60c42 0 63 -20 63 -60s-21 -60 -63 -60zM116 425c-41.333 0 -62 20 -62 60s20.667 60 62 60c42 0 63 -20 63 -60s-21 -60 -63 -60z" />
    <glyph glyph-name="semicolon" unicode=";" horiz-adv-x="252" 
d="M38 -145l44 259h104l-72 -269zM131 425c-41.333 0 -62 20 -62 60s20.667 60 62 60c42 0 63 -20 63 -60s-21 -60 -63 -60z" />
    <glyph glyph-name="less" unicode="&#x3c;" horiz-adv-x="511" 
d="M38 330v71l413 181v-82l-309 -135l307 -135v-81z" />
    <glyph glyph-name="equal" unicode="=" horiz-adv-x="514" 
d="M59 285h396v-77h-396v77zM59 500h396v-76h-396v76z" />
    <glyph glyph-name="greater" unicode="&#x3e;" horiz-adv-x="511" 
d="M62 230l307 135l-309 135v82l413 -181v-71l-411 -181v81z" />
    <glyph glyph-name="question" unicode="?" horiz-adv-x="422" 
d="M128 208l-7.99902 187c21.333 4.66699 42.333 10.667 63 18s39.334 16.666 56.001 27.999s30 25.333 40 42s15 37.334 15 62.001c0 22.667 -3.66699 41.834 -11 57.501s-17 28.334 -29 38.001s-25.833 16.5 -41.5 20.5s-31.834 6 -48.501 6c-21.333 0 -43 -2 -65 -6
s-42.333 -9 -61 -15l-9 78c23.333 7.33301 47.666 13.333 72.999 18s51.666 7 78.999 7c28.667 0 55.834 -3.5 81.501 -10.5s48 -18.333 67 -34s34.167 -36 45.5 -61s17 -55.167 17 -90.5c0 -32.667 -5.5 -60.834 -16.5 -84.501s-25.5 -43.834 -43.5 -60.501
s-38.333 -30 -61 -40s-46 -17.667 -70 -23l-3 -137v-17h-70v17zM165.001 -3c-19.333 0 -34.166 5 -44.499 15s-15.5 24.333 -15.5 43s5.16699 33 15.5 43s25.166 15 44.499 15s34.333 -5 45 -15s16 -24.333 16 -43s-5.33301 -33 -16 -43s-25.667 -15 -45 -15z" />
    <glyph glyph-name="at" unicode="@" horiz-adv-x="821" 
d="M399 -136c-47.333 0 -92.5039 7.16406 -135.504 21.4971s-81 37.333 -114 69s-59.333 72.667 -79 123s-29.5 111.5 -29.5 183.5c0 67.333 9.33301 126.833 28 178.5s44.667 95 78 130s73.5 61.5 120.5 79.5s99.167 27 156.5 27c60.667 0 113 -8.66699 157 -26
s80.167 -42 108.5 -74s49.166 -70.833 62.499 -116.5s20 -96.834 20 -153.501c0 -78 -14.333 -140 -43 -186s-71.334 -69 -128.001 -69c-28 0 -51.167 6.5 -69.5 19.5s-29.5 36.167 -33.5 69.5h-5c-18.667 -29.333 -42 -50.5 -70 -63.5s-54.333 -19.5 -79 -19.5
c-23.333 0 -43.333 4.66699 -60 14s-30.5 22 -41.5 38s-19 34.5 -24 55.5s-7.5 43.167 -7.5 66.5c0 38 5.5 73 16.5 105s26.667 59.667 47 83s44.833 41.5 73.5 54.5s61 19.5 97 19.5c40.667 0 89.334 -11.667 146.001 -35l-36 -209l-6 -37c-2 -12.667 -3 -24.667 -3 -36
c0 -19.333 4 -35 12 -47s23.333 -18 46 -18c32.667 0 57.334 17.333 74.001 52s25 82.334 25 143.001c0 46.667 -5.33301 88.834 -16 126.501s-27.167 69.834 -49.5 96.501s-51.166 47 -86.499 61s-77.666 21 -126.999 21c-46.667 0 -89.334 -7.66699 -128.001 -23
s-71.667 -37.666 -99 -66.999s-48.666 -65.833 -63.999 -109.5s-23 -93.834 -23 -150.501c0 -60.667 7.83301 -112.167 23.5 -154.5s36.834 -76.833 63.501 -103.5s57.5 -46 92.5 -58s71.5 -18 109.5 -18c28.667 0 59 3.16699 91 9.5s64.333 14.833 97 25.5l22 -59
c-36 -11.333 -71.667 -20.666 -107 -27.999s-69.666 -11 -102.999 -11zM354.996 116.997c12 0 25 2.50098 39 7.50098s27.5 13.167 40.5 24.5s24.5 26.166 34.5 44.499s17.333 40.833 22 67.5l27 159c-26 8.66699 -50.333 13 -73 13
c-25.333 0 -48.166 -5.16699 -68.499 -15.5s-37.833 -24.5 -52.5 -42.5s-25.834 -39.333 -33.501 -64s-11.5 -51.334 -11.5 -80.001c0 -15.333 1.33301 -29.833 4 -43.5s7 -25.667 13 -36s13.833 -18.666 23.5 -24.999s21.5 -9.5 35.5 -9.5z" />
    <glyph glyph-name="A" unicode="A" horiz-adv-x="612" 
d="M5 7l225 733h152l225 -733v-7h-98l-67 212h-273l-66 -212h-98v7zM420 297l-76 243l-34 118h-9l-34 -118l-75 -243h228z" />
    <glyph glyph-name="B" unicode="B" horiz-adv-x="603" 
d="M286 -10c-34 0 -69.998 1.33105 -107.998 3.99805s-72.667 6.33398 -104 11.001v731c22.667 2 43.167 4 61.5 6s35.666 3.5 51.999 4.5s31.666 1.83301 45.999 2.5s28.833 1 43.5 1c92 0 159.167 -16.333 201.5 -49s63.5 -84 63.5 -154
c0 -45.333 -10 -82.166 -30 -110.499s-48.667 -46.833 -86 -55.5v-4c44 -8 78.167 -27.667 102.5 -59s36.5 -72 36.5 -122c0 -137.333 -93 -206 -279 -206zM294.002 68.998c110.667 0.666992 166.001 45.332 166.001 133.999c0 46.667 -13.333 80.334 -40 101.001
s-71 31 -133 31h-116v-258c10 -2 26.667 -3.83301 50 -5.5s47.666 -2.5 72.999 -2.5zM284.003 411.996c28 0 51.833 2.33398 71.5 7.00098s35.5 12.167 47.5 22.5s20.667 23.666 26 39.999s8 36.5 8 60.5c0 44 -12 76.167 -36 96.5s-62.667 30.5 -116 30.5
c-21.333 0 -41 -0.5 -59 -1.5s-36.333 -2.83301 -55 -5.5v-250h113z" />
    <glyph glyph-name="C" unicode="C" horiz-adv-x="526" 
d="M360 -10c-108.667 0.666992 -188.832 31.499 -240.499 92.499s-77.5 156.5 -77.5 286.5c0 132 25.833 228.333 77.5 289s131.167 91 238.5 91c19.333 0 40.5 -1 63.5 -3s47.167 -5.33301 72.5 -10v-86c-21.333 4 -42.5 7 -63.5 9s-40.5 3 -58.5 3
c-40 0 -74.167 -5 -102.5 -15s-51.5 -26.5 -69.5 -49.5s-31.167 -53.167 -39.5 -90.5s-12.5 -83.333 -12.5 -138c0 -53.333 4.16699 -98.333 12.5 -135s21.5 -66.667 39.5 -90s40.833 -40.166 68.5 -50.499s60.834 -15.5 99.501 -15.5c8 0 17.333 0.333008 28 1
s21.667 1.5 33 2.5s22.666 2.16699 33.999 3.5s21.666 3 30.999 5v-83c-18 -5.33301 -38.5 -9.5 -61.5 -12.5s-47.167 -4.5 -72.5 -4.5z" />
    <glyph glyph-name="D" unicode="D" horiz-adv-x="646" 
d="M231 -14c-26.667 0 -53.167 0.832031 -79.5 2.49902s-52.166 4.16699 -77.499 7.5v740c37.333 4.66699 71.166 8.16699 101.499 10.5s57.5 3.5 81.5 3.5c60.667 0 112.834 -7.5 156.501 -22.5s79.667 -38 108 -69s49.166 -70.5 62.499 -118.5s20 -105 20 -171
c0 -67.333 -7 -125.166 -21 -173.499s-36.167 -88 -66.5 -119s-69 -53.833 -116 -68.5s-103.5 -22 -169.5 -22zM264 71.999c40.667 0 75.832 5.49902 105.499 16.499s54 28.5 73 52.5s33 54.833 42 92.5s13.5 82.834 13.5 135.501c0 53.333 -4.16699 98.666 -12.5 135.999
s-21.666 67.833 -39.999 91.5s-42 40.834 -71 51.501s-63.833 16 -104.5 16c-15.333 0 -31 -0.666992 -47 -2s-31.667 -3 -47 -5v-579c17.333 -2 32.833 -3.5 46.5 -4.5s27.5 -1.5 41.5 -1.5z" />
    <glyph glyph-name="E" unicode="E" horiz-adv-x="552" 
d="M74 740h432v-87h-329v-236h297v-87h-297v-243h338v-87h-441v740z" />
    <glyph glyph-name="F" unicode="F" horiz-adv-x="523" 
d="M74 740h420v-87h-317v-245h290v-87h-290v-321h-103v740z" />
    <glyph glyph-name="G" unicode="G" horiz-adv-x="600" 
d="M362 -10c-109.333 0.666992 -190.001 31.8301 -242.001 93.4971s-78 156.834 -78 285.501c0 130.667 27.333 226.667 82 288s139.667 92 255 92c22.667 0 48.5 -1.66699 77.5 -5s57.167 -8 84.5 -14v-86c-32 6.66699 -60.167 11.334 -84.5 14.001s-47.166 4 -68.499 4
c-43.333 0 -80.333 -5.33301 -111 -16s-55.5 -27.667 -74.5 -51s-32.833 -53.5 -41.5 -90.5s-13 -82.167 -13 -135.5c0 -52 4.16699 -96.5 12.5 -133.5s21.5 -67.167 39.5 -90.5s41 -40.333 69 -51s61.667 -16 101 -16c10.667 0 23 0.5 37 1.5s28.667 2.5 44 4.5v292h95
v-365c-36 -7.33301 -69 -12.666 -99 -15.999s-58.333 -5 -85 -5z" />
    <glyph glyph-name="H" unicode="H" horiz-adv-x="685" 
d="M74 740h103v-318h331v318h103v-740h-103v335h-331v-335h-103v740z" />
    <glyph glyph-name="I" unicode="I" horiz-adv-x="251" 
d="M74 740h103v-740h-103v740z" />
    <glyph glyph-name="J" unicode="J" horiz-adv-x="250" 
d="M-4 -159c16 34 29.167 64.834 39.5 92.501s18.5 54.667 24.5 81s10.167 53.166 12.5 80.499s3.5 58 3.5 92v553h103v-560c0 -32.667 -2.16699 -64 -6.5 -94s-11 -59.667 -20 -89s-21 -59.5 -36 -90.5s-32.833 -63.833 -53.5 -98.5z" />
    <glyph glyph-name="K" unicode="K" horiz-adv-x="613" 
d="M74 740h103v-320h98l202 320h117l-213 -332l-37 -26v-6l39 -25l230 -351h-116l-219 333h-101v-333h-103v740z" />
    <glyph glyph-name="L" unicode="L" horiz-adv-x="463" 
d="M74 740h103v-653h273v-87h-376v740z" />
    <glyph glyph-name="M" unicode="M" horiz-adv-x="860" 
d="M74 740h142l172 -461l38 -124h7l38 124l172 461h143v-740h-97v599h-5l-49 -142l-160 -424h-92l-160 424l-49 142h-5v-599h-95v740z" />
    <glyph glyph-name="N" unicode="N" horiz-adv-x="703" 
d="M74 740h90l318 -485l47 -83h7v568h93v-740h-90l-317 483l-48 86l-8 -1v-568h-92v740z" />
    <glyph glyph-name="O" unicode="O" horiz-adv-x="671" 
d="M335 -10c-195.333 0 -293 126.333 -293 379c0 254 97.667 381 293 381c97.333 0 170.666 -31.5 219.999 -94.5s74 -158.5 74 -286.5c0 -126.667 -24.667 -221.5 -74 -284.5s-122.666 -94.5 -219.999 -94.5zM335 77c32.667 0 61.001 5.5 85.001 16.5s43.667 28.333 59 52
s26.666 54 33.999 91s11 81.167 11 132.5c0 103.333 -15 178.166 -45 224.499s-78 69.5 -144 69.5c-65.333 0 -113 -23.167 -143 -69.5s-45 -121.166 -45 -224.499c0 -51.333 3.66699 -95.5 11 -132.5s18.666 -67.333 33.999 -91s34.833 -41 58.5 -52
s51.834 -16.5 84.501 -16.5z" />
    <glyph glyph-name="P" unicode="P" horiz-adv-x="582" 
d="M74 735c59.333 10.667 117.332 15.999 173.999 15.999c106.667 0 184.334 -20.667 233.001 -62s73 -106.666 73 -195.999s-24.5 -154.5 -73.5 -195.5s-126.5 -61.5 -232.5 -61.5h-35.5c-11.667 0 -23.5 0.666992 -35.5 2v-238h-103v735zM262.999 320.999
c66.667 0 114.332 13.332 142.999 39.999s43 70.667 43 132c0 60.667 -14.167 104.5 -42.5 131.5s-75.166 40.5 -140.499 40.5c-14 0 -29 -0.666992 -45 -2s-30.667 -3 -44 -5v-331c11.333 -1.33301 25 -2.66602 41 -3.99902s31 -2 45 -2z" />
    <glyph glyph-name="Q" unicode="Q" horiz-adv-x="668" 
d="M589 -120c-102 20 -188.001 42.332 -258.001 66.999s-126.5 55.334 -169.5 92.001s-74 81.5 -93 134.5s-28.5 118.167 -28.5 195.5c0 127.333 24.5 222.666 73.5 285.999s122.167 95 219.5 95c196 0 294 -127 294 -381c0 -110.667 -21.833 -195.5 -65.5 -254.5
s-108.167 -91.833 -193.5 -98.5v-8c20.667 -6 40.834 -11.167 60.501 -15.5s40 -8.16602 61 -11.499s42.833 -6.33301 65.5 -9s47.667 -5 75 -7zM332.999 75.999c65.333 0 113.333 23.167 144 69.5s46 120.833 46 223.5c0 103.333 -15 178.5 -45 225.5
s-78.333 70.5 -145 70.5c-66 0 -114 -23.333 -144 -70s-45 -122 -45 -226c0 -103.333 15 -178 45 -224s78 -69 144 -69z" />
    <glyph glyph-name="R" unicode="R" horiz-adv-x="597" 
d="M323 269c-21.333 -2 -44.334 -3 -69.001 -3c-10 0 -22.5 0.333008 -37.5 1s-28.167 1.66699 -39.5 3v-270h-103v735c29.333 5.33301 58.5 9.33301 87.5 12s57.833 4 86.5 4c106.667 0 184.334 -19.5 233.001 -58.5s73 -100.833 73 -185.5
c0 -112.667 -46.333 -185.667 -139 -219l157 -288h-111zM262.999 349c66.667 0 114.332 12.167 142.999 36.5s43 64.833 43 121.5s-14.167 97.167 -42.5 121.5s-75.166 36.5 -140.499 36.5c-12 0 -26 -0.666992 -42 -2s-31.667 -3 -47 -5v-302c12 -2 25.667 -3.66699 41 -5
s30.333 -2 45 -2z" />
    <glyph glyph-name="S" unicode="S" horiz-adv-x="519" 
d="M250 -12c-32 0 -67.5 3.00293 -106.5 9.00293s-75.167 14.333 -108.5 25l4 87c14 -4.66699 29.333 -9.16699 46 -13.5s33.834 -8 51.501 -11s35.167 -5.33301 52.5 -7s33.333 -2.5 48 -2.5c48 0 84.667 10.167 110 30.5s38 49.5 38 87.5
c0 18.667 -3.33301 34.834 -10 48.501s-16.5 25.667 -29.5 36s-28.833 19.833 -47.5 28.5s-40 17 -64 25c-31.333 10 -58.666 21 -81.999 33s-43 26.167 -59 42.5s-28 35.833 -36 58.5s-12 49.667 -12 81s5.5 59.666 16.5 84.999s26.833 47 47.5 65s45.667 31.833 75 41.5
s62.333 14.5 99 14.5c26.667 0 54 -1.83301 82 -5.5s59 -9.83398 93 -18.501l-3 -85c-30 7.33301 -59.5 13.166 -88.5 17.499s-54.167 6.5 -75.5 6.5c-44 0 -78.5 -10.833 -103.5 -32.5s-37.5 -50.834 -37.5 -87.501c0 -17.333 3 -32.333 9 -45s15.167 -24.167 27.5 -34.5
s27.833 -19.833 46.5 -28.5s41 -17.667 67 -27c30 -10 56.667 -21.167 80 -33.5s43.166 -26.833 59.499 -43.5s28.666 -36.167 36.999 -58.5s12.5 -48.833 12.5 -79.5c0 -66.667 -21 -118.167 -63 -154.5s-100.667 -54.5 -176 -54.5z" />
    <glyph glyph-name="T" unicode="T" horiz-adv-x="531" 
d="M213 652h-198v88h501v-88h-199v-652h-104v652z" />
    <glyph glyph-name="U" unicode="U" horiz-adv-x="683" 
d="M341 -10c-49.333 0 -91.3311 6 -125.998 18s-62.834 30.333 -84.501 55s-37.5 56 -47.5 94s-15 83 -15 135v448h102v-445c0 -76.667 13.667 -132 41 -166s70.666 -51 129.999 -51c60 0 103.5 16.833 130.5 50.5s40.5 89.167 40.5 166.5v445h103v-448
c0 -52 -5 -97 -15 -135s-26 -69.333 -48 -94s-50.333 -43 -85 -55s-76.667 -18 -126 -18z" />
    <glyph glyph-name="V" unicode="V" horiz-adv-x="616" 
d="M4 740h104l159 -502l37 -140h9l37 140l160 502h102l-234 -740h-139z" />
    <glyph glyph-name="W" unicode="W" horiz-adv-x="936" 
d="M13 740h111l109 -494l24 -123h8l28 123l124 494h107l119 -494l26 -123h8l26 123l114 494h110l-188 -740h-128l-117 472l-21 125h-7l-22 -125l-122 -472h-129z" />
    <glyph glyph-name="X" unicode="X" horiz-adv-x="613" 
d="M240 378l-226 362h116l167 -272l10 -21h4l11 21l165 272h113l-229 -361l242 -379h-116l-181 290l-10 19h-4l-10 -19l-177 -290h-114z" />
    <glyph glyph-name="Y" unicode="Y" horiz-adv-x="597" 
d="M248 247l-250 493h114l159 -333l23 -59h9l23 59l160 333h112l-248 -490v-250h-102v247z" />
    <glyph glyph-name="Z" unicode="Z" horiz-adv-x="529" 
d="M29 84l340 561v7h-329v88h450v-84l-341 -562v-6h351v-88h-471v84z" />
    <glyph glyph-name="bracketleft" unicode="[" horiz-adv-x="314" 
d="M74 868h213v-71h-130v-886h130v-71h-213v1028z" />
    <glyph glyph-name="backslash" unicode="\" horiz-adv-x="330" 
d="M28 740h86l188 -860h-85z" />
    <glyph glyph-name="bracketright" unicode="]" horiz-adv-x="314" 
d="M26 -160v71h131v886h-131v71h213v-1028h-213z" />
    <glyph glyph-name="asciicircum" unicode="^" horiz-adv-x="414" 
d="M165 789h84l127 -308h-73l-94 237h-4l-94 -237h-74z" />
    <glyph glyph-name="underscore" unicode="_" horiz-adv-x="536" 
d="M43 -60h451v-78h-451v78z" />
    <glyph glyph-name="grave" unicode="`" horiz-adv-x="248" 
d="M129 611l-103 193h106l70 -183z" />
    <glyph glyph-name="a" unicode="a" horiz-adv-x="490" 
d="M168 -5c-43.333 0 -77.165 12.832 -101.498 38.499s-36.5 61.5 -36.5 107.5c0 102.667 64.667 158.334 194 167.001l106 7v39c0 22 -1.83301 40.333 -5.5 55s-9.83398 26.5 -18.501 35.5s-20.167 15.5 -34.5 19.5s-32.166 6 -53.499 6c-18 0 -40.5 -1.5 -67.5 -4.5
s-52.167 -7.16699 -75.5 -12.5l-7 77c29.333 5.33301 58.166 9.5 86.499 12.5s55.166 4.5 80.499 4.5c67.333 0 116.833 -13.833 148.5 -41.5s47.5 -71.167 47.5 -130.5v-375h-84l-9 66h-7c-23.333 -20 -48.833 -36.833 -76.5 -50.5s-56.5 -20.5 -86.5 -20.5z
M205.001 71.999c10 0 20.667 1.66895 32 5.00195s22.5 7.66602 33.5 12.999s21.5 11.166 31.5 17.499l28 17.5v126l-81 -7c-42.667 -3.33301 -73 -12.5 -91 -27.5s-27 -37.167 -27 -66.5c0 -52 24.667 -78 74 -78z" />
    <glyph glyph-name="b" unicode="b" horiz-adv-x="538" 
d="M247 -10c-53.333 0 -114.999 9.33496 -184.999 28.002v790h101v-324c16.667 21.333 37.5 37.5 62.5 48.5s53.167 16.5 84.5 16.5c126 0 189 -89 189 -267c0 -42.667 -4.83301 -81.667 -14.5 -117s-24.667 -65.833 -45 -91.5s-46.333 -45.834 -78 -60.501
s-69.834 -22.334 -114.501 -23.001zM250.001 63.002c50.667 0 87.834 16.168 111.501 48.501s35.5 86.166 35.5 161.499c0 71.333 -9.33301 122.333 -28 153s-48.334 46 -89.001 46c-32 0 -59.5 -10.5 -82.5 -31.5s-34.5 -52.5 -34.5 -94.5v-272c28 -7.33301 57 -11 87 -11z
" />
    <glyph glyph-name="c" unicode="c" horiz-adv-x="424" 
d="M279 -10c-80.667 0 -140.837 22.833 -180.504 68.5s-59.5 116.167 -59.5 211.5c0 186.667 80 280 240 280c33.333 0 69.333 -4.66699 108 -14v-83c-17.333 4 -34.166 6.83301 -50.499 8.5s-32.166 2.5 -47.499 2.5c-51.333 0 -88.666 -15.333 -111.999 -46
s-35 -80 -35 -148s11.5 -117.5 34.5 -148.5s60.167 -46.5 111.5 -46.5c16 0 31.833 0.833008 47.5 2.5s32.834 4.83398 51.501 9.50098v-82c-14.667 -4.66699 -31.667 -8.33398 -51 -11.001s-38.333 -4 -57 -4z" />
    <glyph glyph-name="d" unicode="d" horiz-adv-x="539" 
d="M230 -9c-64 0 -111.834 22.167 -143.501 66.5s-47.5 112.5 -47.5 204.5c0 94.667 21.5 166.167 64.5 214.5s104.167 72.5 183.5 72.5c14.667 0 28.834 -0.666992 42.501 -2s29.167 -3 46.5 -5v266h100v-808h-89l-8 58h-5c-33.333 -44.667 -81.333 -67 -144 -67z
M258.999 67c32 0 59.5 10.666 82.5 31.999s34.5 53.333 34.5 96v270c-16 3.33301 -31.333 6 -46 8s-30 3 -46 3c-48 0 -83.667 -16 -107 -48s-35 -84.333 -35 -157c0 -71.333 9.5 -123.166 28.5 -155.499s48.5 -48.5 88.5 -48.5z" />
    <glyph glyph-name="e" unicode="e" horiz-adv-x="492" 
d="M270 -9c-75.333 0 -132.668 23 -172.001 69s-59 113.333 -59 202c0 94 19.333 165.333 58 214s95.334 73 170.001 73c126 0 189 -80 189 -240c0 -16.667 -0.5 -30.667 -1.5 -42s-2.16699 -22.333 -3.5 -33h-311c3.33301 -58 15.833 -99.667 37.5 -125
s55.167 -38 100.5 -38c22 0 46 2.5 72 7.5s53 12.167 81 21.5l5 -78c-23.333 -9.33301 -49.833 -16.833 -79.5 -22.5s-58.5 -8.5 -86.5 -8.5zM263.998 472c-75.333 0 -116.333 -56 -123 -168h223c-1.33301 60 -9.83301 103 -25.5 129s-40.5 39 -74.5 39z" />
    <glyph glyph-name="f" unicode="f" horiz-adv-x="332" 
d="M103 454l-87.999 -0.000976562v86h89v33c0 44 3.83301 80.833 11.5 110.5s20.5 53.667 38.5 72s42 31.833 72 40.5s67.667 14 113 16l4 -77c-28 -2 -50.833 -5.83301 -68.5 -11.5s-31.834 -14.167 -42.501 -25.5s-18 -26.166 -22 -44.499s-6 -41.833 -6 -70.5v-43h116
v-86h-116v-454h-101v454z" />
    <glyph glyph-name="g" unicode="g" horiz-adv-x="539" 
d="M236 -220c-54.667 0 -106.998 7.67188 -156.998 23.0049l8 79c49.333 -15.333 95.666 -23 138.999 -23c50.667 0 88.667 13.667 114 41s38.666 74.333 39.999 141v29h-5c-33.333 -44.667 -81 -67 -143 -67c-64.667 0 -113 21.167 -145 63.5s-48 108.166 -48 197.499
c0 93.333 21.667 164.166 65 212.499s104.333 72.5 183 72.5c30 0 59.833 -2 89.5 -6s63.167 -11.333 100.5 -22v-458c0 -50.667 -5.5 -93.834 -16.5 -129.501s-26.667 -64.834 -47 -87.501s-45.5 -39.334 -75.5 -50.001s-64 -16 -102 -16zM259.002 77.0049
c32 0 59.5 10.5 82.5 31.5s34.5 51.5 34.5 91.5v265c-16 3.33301 -31.333 6 -46 8s-29.667 3 -45 3c-48.667 0 -84.667 -15.833 -108 -47.5s-35 -83.5 -35 -155.5c0 -68.667 9.5 -118.5 28.5 -149.5s48.5 -46.5 88.5 -46.5z" />
    <glyph glyph-name="h" unicode="h" horiz-adv-x="537" 
d="M63 808l101 -0.000976562v-325c40 23.333 74.167 40.333 102.5 51s56.166 16 83.499 16c42.667 0 74.334 -11.667 95.001 -35s31 -59.666 31 -108.999v-406h-100v375c0 31.333 -5.33301 53.833 -16 67.5s-27.667 20.5 -51 20.5c-20 0 -42.333 -4.33301 -67 -13
s-50.667 -21 -78 -37v-413h-101v808z" />
    <glyph glyph-name="i" unicode="i" horiz-adv-x="228" 
d="M114 647c-40.667 0 -61 20 -61 60c0 39.333 20.333 59 61 59s61 -19.667 61 -59c0 -40 -20.333 -60 -61 -60zM64 540h100v-540h-100v540z" />
    <glyph glyph-name="j" unicode="j" horiz-adv-x="226" 
d="M113 647c-40.667 0 -61 20 -61 60c0 39.333 20.333 59 61 59s61 -19.667 61 -59c0 -40 -20.333 -60 -61 -60zM2 -196c21.333 44.667 37 92.5 47 143.5s15 108.167 15 171.5v32.5v75.5v97.5v99c0 31 -0.166992 57.333 -0.5 79s-0.5 34.167 -0.5 37.5h101v-456
c-0.666992 -52 -9.16699 -104.667 -25.5 -158s-38.5 -102 -66.5 -146z" />
    <glyph glyph-name="k" unicode="k" horiz-adv-x="500" 
d="M63 808h101v-493h67l146 225h111l-172 -253l-18 -8v-3l19 -10l188 -266h-111l-165 241h-65v-241h-101v808z" />
    <glyph glyph-name="l" unicode="l" horiz-adv-x="230" 
d="M64 808h101v-808h-101v808z" />
    <glyph glyph-name="m" unicode="m" horiz-adv-x="819" 
d="M63 540l82.9951 -0.00195312l6 -59h4c37.333 24 69.833 41.5 97.5 52.5s54.834 16.5 81.501 16.5c58 0 96 -23.667 114 -71h5c36 25.333 68 43.5 96 54.5s55.667 16.5 83 16.5c42 0 73.5 -11.667 94.5 -35s31.5 -59.666 31.5 -108.999v-406h-99v374
c0 31.333 -5.66699 53.833 -17 67.5s-28.666 20.5 -51.999 20.5c-37.333 0 -80.666 -16 -129.999 -48v-414h-100v374c0 31.333 -5.5 53.833 -16.5 67.5s-28.167 20.5 -51.5 20.5c-19.333 0 -40.166 -4.16699 -62.499 -12.5s-45.166 -20.166 -68.499 -35.499v-414h-99v540z
" />
    <glyph glyph-name="n" unicode="n" horiz-adv-x="537" 
d="M63 540l85 -0.00195312l7 -59h4c41.333 24.667 76.666 42.334 105.999 53.001s58 16 86 16c42 0 73.333 -11.667 94 -35s31 -59.666 31 -108.999v-406h-100v375c0 32 -5.5 54.667 -16.5 68s-27.833 20 -50.5 20c-21.333 0 -44.166 -4.5 -68.499 -13.5
s-49.833 -21.167 -76.5 -36.5v-413h-101v540z" />
    <glyph glyph-name="o" unicode="o" horiz-adv-x="536" 
d="M268 -10c-74.667 0 -131.667 23.833 -171 71.5s-59 117.167 -59 208.5s19.667 160.833 59 208.5s96.333 71.5 171 71.5c75.333 0 132.5 -23.833 171.5 -71.5s58.5 -117.167 58.5 -208.5s-19.5 -160.833 -58.5 -208.5s-96.167 -71.5 -171.5 -71.5zM268 71
c44.667 0 77.167 15.333 97.5 46s30.5 81.667 30.5 153s-10 122.333 -30 153s-52.667 46 -98 46s-78 -15.333 -98 -46s-30 -81.667 -30 -153s10 -122.333 30 -153s52.667 -46 98 -46z" />
    <glyph glyph-name="p" unicode="p" horiz-adv-x="539" 
d="M63 540l90.002 0.00195312l6 -57h5c17.333 21.333 38.333 37.666 63 48.999s52.667 17 84 17c126.667 0 190 -89 190 -267c0 -43.333 -5 -82.833 -15 -118.5s-25.333 -66.334 -46 -92.001s-46.834 -45.667 -78.501 -60s-68.834 -21.5 -111.501 -21.5
c-14 0 -28.333 0.666992 -43 2s-29 3.33301 -43 6v-218h-101v760zM252.002 64.002c50 0 86.8359 16.167 110.503 48.5s35.5 85.833 35.5 160.5c0 71.333 -9.33301 122.5 -28 153.5s-48.334 46.5 -89.001 46.5c-32.667 0 -60.334 -10.667 -83.001 -32s-34 -53.333 -34 -96
v-271c13.333 -3.33301 27.666 -5.83301 42.999 -7.5s30.333 -2.5 45 -2.5z" />
    <glyph glyph-name="q" unicode="q" horiz-adv-x="538" 
d="M377 57c-36 -44 -85.001 -66 -147.001 -66c-127.333 0 -191 90.333 -191 271c0 94 21.333 165.333 64 214s105.334 73 188.001 73c32 0 63.667 -1.83301 95 -5.5s61.333 -9.16699 90 -16.5v-747h-99v277zM258.999 67c34 0 61.833 11 83.5 33s32.5 54 32.5 96v270
c-18 3.33301 -34 5.83301 -48 7.5s-28 2.5 -42 2.5c-50.667 0 -87.5 -15.833 -110.5 -47.5s-34.5 -83.5 -34.5 -155.5c0 -72.667 9.33301 -125.167 28 -157.5s49 -48.5 91 -48.5z" />
    <glyph glyph-name="r" unicode="r" horiz-adv-x="355" 
d="M63 540h84.999l7 -71h5c18.667 14 42.667 28.833 72 44.5s58.333 27.5 87 35.5h25v-98h-38c-26.667 -3.33301 -52.667 -10 -78 -20s-46.666 -21 -63.999 -33v-398h-101v540z" />
    <glyph glyph-name="s" unicode="s" horiz-adv-x="420" 
d="M198 -11c-22.667 0 -46.668 1.99902 -72.001 5.99902s-54.333 9.66699 -87 17v79c25.333 -7.33301 51.333 -13.333 78 -18s52.334 -7 77.001 -7c31.333 0 55.166 7 71.499 21s24.5 33.667 24.5 59c0 24.667 -7.16699 43.5 -21.5 56.5s-36.5 22.833 -66.5 29.5
c-17.333 3.33301 -35.5 7.33301 -54.5 12s-36.167 12.5 -51.5 23.5s-28 26.333 -38 46s-15 46.167 -15 79.5c0 50 15.833 89 47.5 117s75.834 42 132.501 42c20.667 0 41.667 -1.5 63 -4.5s48 -7.83301 80 -14.5l-1 -79c-30.667 7.33301 -55.334 12.333 -74.001 15
s-36.334 4 -53.001 4c-32 0 -56.667 -6.83301 -74 -20.5s-26 -32.5 -26 -56.5c0 -14.667 2.5 -26.667 7.5 -36s11.667 -17 20 -23s18.333 -10.833 30 -14.5s24.5 -7.16699 38.5 -10.5c21.333 -4.66699 41.333 -10.5 60 -17.5s34.834 -16.5 48.501 -28.5
s24.5 -27.167 32.5 -45.5s12 -41.166 12 -68.499c0 -50.667 -16.667 -90.5 -50 -119.5s-79.666 -43.5 -138.999 -43.5z" />
    <glyph glyph-name="t" unicode="t" horiz-adv-x="365" 
d="M263 -7c-102 0 -152.999 50.334 -152.999 151.001v309h-97v87h103l14 140l80 12v-152h137v-87h-136v-288c0 -61.333 26.333 -92 79 -92c8 0 17.167 0.666992 27.5 2s20.166 3.66602 29.499 6.99902v-79c-13.333 -3.33301 -27.333 -5.83301 -42 -7.5
s-28.667 -2.5 -42 -2.5z" />
    <glyph glyph-name="u" unicode="u" horiz-adv-x="536" 
d="M193 -10c-89.333 0 -134 48.002 -134 144.002v406h101v-377c0 -32 5.16699 -54.333 15.5 -67s28.166 -19 53.499 -19c22.667 0 45.334 4.5 68.001 13.5s47.667 22.167 75 39.5v410h101v-540h-85l-7 59h-4c-20.667 -12.667 -39.167 -23.334 -55.5 -32.001
s-31.5 -15.834 -45.5 -21.501s-27.667 -9.66699 -41 -12s-27.333 -3.5 -42 -3.5z" />
    <glyph glyph-name="v" unicode="v" horiz-adv-x="510" 
d="M12 532v8h105l117 -383l17 -69h9l17 69l118 383h104v-8l-181 -532h-126z" />
    <glyph glyph-name="w" unicode="w" horiz-adv-x="729" 
d="M20 535v5h96l75 -356l14 -75h8l16 75l87 356h98l87 -356l17 -75h8l15 75l74 356h95v-5l-127 -535h-114l-89 353l-11 60h-8l-11 -60l-89 -353h-113z" />
    <glyph glyph-name="x" unicode="x" horiz-adv-x="508" 
d="M9 10l176 270l-167 253v7h107l105 -169l23 -38h6l21 38l103 169h108v-7l-167 -259l175 -264v-10h-106l-114 185l-23 40h-6l-23 -40l-111 -185h-107v10z" />
    <glyph glyph-name="y" unicode="y" horiz-adv-x="515" 
d="M135 -201v7l71 196l-196 529v9h104l123 -363l17 -70h6l18 70l124 363h104v-9l-272 -751z" />
    <glyph glyph-name="z" unicode="z" horiz-adv-x="441" 
d="M31 67l249 386v5h-240v82h360v-66l-247 -386v-6h257v-82h-379v67z" />
    <glyph glyph-name="braceleft" unicode="{" horiz-adv-x="339" 
d="M23 396c24.667 0 43.001 8.66895 55.001 26.002s18 42.666 18 75.999v255c0 42.667 8 72.5 24 89.5s44 25.5 84 25.5c6.66699 0 15.5 -0.166992 26.5 -0.5s21.833 -0.833008 32.5 -1.5s20.5 -1.16699 29.5 -1.5s14.833 -0.833008 17.5 -1.5v-66h-78
c-19.333 0 -32.833 -3.66699 -40.5 -11s-11.5 -20 -11.5 -38v-270c0 -30.667 -6.16699 -57 -18.5 -79s-29.166 -36 -50.499 -42c21.333 -6 38.166 -19.833 50.499 -41.5s18.5 -47.5 18.5 -77.5v-272c0 -18.667 3.83301 -31.667 11.5 -39s21.167 -11 40.5 -11h78v-66
c-2.66699 -0.666992 -8.5 -1.33398 -17.5 -2.00098s-18.833 -1.16699 -29.5 -1.5l-32 -1c-10.667 -0.333008 -19.334 -0.5 -26.001 -0.5c-40 0 -68.167 8.5 -84.5 25.5s-24.5 47.167 -24.5 90.5v257c0 32.667 -6 57.667 -18 75s-30.333 26 -55 26v77z" />
    <glyph glyph-name="bar" unicode="|" horiz-adv-x="245" 
d="M170 808v-1028h-96v1028h96z" />
    <glyph glyph-name="braceright" unicode="}" horiz-adv-x="339" 
d="M316 319c-24.667 0 -43 -8.66895 -55 -26.002s-18 -42.333 -18 -75v-257c0 -43.333 -8 -73.5 -24 -90.5s-44.333 -25.5 -85 -25.5c-6 0 -14.5 0.166992 -25.5 0.5l-33 1c-11 0.333008 -20.833 0.833008 -29.5 1.5s-14.334 1.33398 -17.001 2.00098v66h78
c19.333 0 32.833 3.66699 40.5 11s11.5 20.333 11.5 39v272c0 30 6.16699 55.833 18.5 77.5s29.166 35.5 50.499 41.5c-21.333 6 -38.166 20 -50.499 42s-18.5 48.333 -18.5 79v270c0 18 -3.83301 30.667 -11.5 38s-21.167 11 -40.5 11h-78v66
c2.66699 0.666992 8.33398 1.16699 17.001 1.5s18.5 0.833008 29.5 1.5s22 1.16699 33 1.5s19.833 0.5 26.5 0.5c40 0 68 -8.5 84 -25.5s24 -46.833 24 -89.5v-255c0 -33.333 6 -58.666 18 -75.999s30.333 -26 55 -26v-77z" />
    <glyph glyph-name="asciitilde" unicode="~" horiz-adv-x="573" 
d="M49 280c16.667 20.667 31.668 38.001 45.001 52.001s25.833 25.167 37.5 33.5s23.167 14.166 34.5 17.499s23.333 5 36 5c18 0 34 -3.83301 48 -11.5s27.333 -16.334 40 -26.001s25.167 -18.334 37.5 -26.001s25.833 -11.5 40.5 -11.5c17.333 0 34.333 6.33301 51 19
s30.334 29.667 41.001 51l64 -35c-7.33301 -13.333 -16.166 -26.833 -26.499 -40.5s-21.833 -26 -34.5 -37s-26.334 -20 -41.001 -27s-30 -10.5 -46 -10.5c-19.333 0 -36.333 3.83301 -51 11.5s-28.5 16.334 -41.5 26.001s-25.333 18.334 -37 26.001
s-23.834 11.5 -36.501 11.5c-16.667 0 -32.834 -5.5 -48.501 -16.5s-33.167 -29.167 -52.5 -54.5z" />
    <glyph glyph-name="uni00A0" unicode="&#xa0;" horiz-adv-x="202" 
 />
    <glyph glyph-name="exclamdown" unicode="&#xa1;" horiz-adv-x="227" 
d="M116 541c19.333 0 34.166 -5.16699 44.499 -15.5s15.5 -24.833 15.5 -43.5c0 -17.333 -5.16699 -31.333 -15.5 -42s-25.166 -16 -44.499 -16s-34.166 5.16699 -44.499 15.5s-15.5 24.5 -15.5 42.5c0 18.667 5.16699 33.167 15.5 43.5s25.166 15.5 44.499 15.5zM82 341h64
v-13l20 -518v-10h-105v10l21 518v13z" />
    <glyph glyph-name="cent" unicode="&#xa2;" horiz-adv-x="439" 
d="M234 -7c-130 14.667 -195.004 106.997 -195.004 276.997c0 167.333 65 259.666 195 276.999v114h69v-112c13.333 -0.666992 27 -2.16699 41 -4.5s28.333 -5.16602 43 -8.49902v-83c-17.333 4 -34.166 6.83301 -50.499 8.5s-32.166 2.5 -47.499 2.5
c-51.333 0 -88.666 -15.333 -111.999 -46s-35 -80 -35 -148s11.5 -117.5 34.5 -148.5s60.167 -46.5 111.5 -46.5c16 0 31.833 0.833008 47.5 2.5s32.834 4.83398 51.501 9.50098v-82c-11.333 -3.33301 -24.333 -6.16602 -39 -8.49902s-29.667 -4.16602 -45 -5.49902v-110
h-69v112z" />
    <glyph glyph-name="sterling" unicode="&#xa3;" horiz-adv-x="574" 
d="M41 410h121.998v117c0 74.667 16.167 130 48.5 166s84.833 54 157.5 54c45.333 0 101 -9.33301 167 -28l-9 -83c-25.333 7.33301 -50.666 13 -75.999 17s-47.666 6 -66.999 6c-43.333 0 -73.833 -10.167 -91.5 -30.5s-26.5 -54.5 -26.5 -102.5v-116h182v-81h-182v-240
h256v-89h-481v90h122v239h-122v81z" />
    <glyph glyph-name="currency" unicode="&#xa4;" horiz-adv-x="572" 
d="M45 176l54.002 55.001l50 35c-15.333 29.333 -23 64 -23 104c0 40.667 8 75 24 103l-51 37l-54 54l46 46l55 -53l33 -46c13.333 13.333 29.166 23.5 47.499 30.5s38.5 10.5 60.5 10.5c21.333 0 41 -3.5 59 -10.5s33.667 -17.167 47 -30.5l33 46l55 53l45 -46l-53 -54
l-52 -37c7.33301 -14 13.166 -29.667 17.499 -47s6.5 -36 6.5 -56c0 -40.667 -8 -75.334 -24 -104.001l52 -35l53 -55l-45 -46l-55 53l-33 46c-28 -28 -63.667 -42 -107 -42c-44 0 -80 14 -108 42l-32 -46l-55 -53zM194.002 370.001c0 -38.667 8.33301 -68.332 25 -88.999
s39 -31 67 -31s50.167 10.167 66.5 30.5s24.5 50.166 24.5 89.499s-8.16699 69 -24.5 89s-38.5 30 -66.5 30s-50.333 -10 -67 -30s-25 -49.667 -25 -89z" />
    <glyph glyph-name="yen" unicode="&#xa5;" horiz-adv-x="646" 
d="M99 319h138l-213 421h114l159 -333l23 -59h9l23 59l160 333h112l-213 -421h130v-72h-165v-84h165v-72h-165v-91h-102v91h-175v72h175v84h-175v72z" />
    <glyph glyph-name="brokenbar" unicode="&#xa6;" horiz-adv-x="239" 
d="M71 204h96v-424h-96v424zM71 808h96v-424h-96v424z" />
    <glyph glyph-name="section" unicode="&#xa7;" horiz-adv-x="446" 
d="M209 -11c-22 0 -45.6689 2.00293 -71.002 6.00293s-54.666 9.66699 -87.999 17v77c25.333 -7.33301 51.5 -13 78.5 -17s52.5 -6 76.5 -6c31.333 0 55.333 7 72 21s25 33.667 25 59c0 24.667 -7.33301 43.5 -22 56.5s-37 22.833 -67 29.5
c-17.333 3.33301 -35.333 7.33301 -54 12s-35.834 12.5 -51.501 23.5s-28.5 26.333 -38.5 46s-15 46.167 -15 79.5c0 39.333 11 72.666 33 99.999c-9.33301 11.333 -17.166 25.166 -23.499 41.499s-9.5 37.166 -9.5 62.499c0 49.333 16 88 48 116s76.333 42 133 42
c20.667 0 41.667 -1.33301 63 -4s47.666 -7.33398 78.999 -14.001l-1 -78c-30 7.33301 -54.333 12.166 -73 14.499s-36.334 3.5 -53.001 3.5c-32 0 -56.667 -6.83301 -74 -20.5s-26 -32.5 -26 -56.5c0 -14.667 2.33301 -26.667 7 -36s11.334 -17 20.001 -23
s18.834 -11 30.501 -15s24.167 -7.33301 37.5 -10c21.333 -5.33301 41.333 -11.333 60 -18s34.834 -16 48.501 -28s24.5 -27.167 32.5 -45.5s12 -41.5 12 -69.5c0 -41.333 -11 -75.333 -33 -102c11.333 -11.333 19.666 -25.166 24.999 -41.499s8 -36.166 8 -59.499
c0 -50.667 -16.667 -90.5 -50 -119.5s-79.666 -43.5 -138.999 -43.5zM286.998 289.003c5.33301 7.33301 9.66602 15.832 12.999 25.499s5 20.5 5 32.5c0 25.333 -6.33301 44.833 -19 58.5s-31 23.834 -55 30.501c-9.33301 3.33301 -19.166 6.33301 -29.499 9
s-20.166 6 -29.499 10c-16.667 -15.333 -25 -34.333 -25 -57c0 -15.333 2.16699 -27.833 6.5 -37.5s10.166 -17.667 17.499 -24s16 -11.5 26 -15.5s20.667 -7.66699 32 -11l30 -10.5z" />
    <glyph glyph-name="dieresis" unicode="&#xa8;" horiz-adv-x="441" 
d="M108 631c-18.667 0 -32.5 4.16797 -41.5 12.501s-13.5 22.166 -13.5 41.499s4.5 33.166 13.5 41.499s22.833 12.5 41.5 12.5c37.333 0 56 -18 56 -54c0 -19.333 -4.66699 -33.166 -14 -41.499s-23.333 -12.5 -42 -12.5zM321 631.001
c-19.333 0 -33.5 4.16797 -42.5 12.501s-13.5 22.166 -13.5 41.499s4.5 33.166 13.5 41.499s23.167 12.5 42.5 12.5c36.667 0 55 -18 55 -54c0 -19.333 -4.83301 -33.166 -14.5 -41.499s-23.167 -12.5 -40.5 -12.5z" />
    <glyph glyph-name="copyright" unicode="&#xa9;" horiz-adv-x="825" 
d="M428 163c-58.667 0 -104.332 16.833 -136.999 50.5s-49 84.5 -49 152.5c0 69.333 16.333 121.166 49 155.499s78.334 51.5 137.001 51.5c15.333 0 30.333 -0.833008 45 -2.5s28.667 -4.16699 42 -7.5v-62c-14 2.66699 -27.833 4.83398 -41.5 6.50098s-26.5 2.5 -38.5 2.5
c-80 0 -120 -47.667 -120 -143c0 -48.667 10.167 -84.334 30.5 -107.001s49.833 -34 88.5 -34c11.333 0 24.166 0.833008 38.499 2.5s29.166 3.83398 44.499 6.50098v-61c-27.333 -7.33301 -57 -11 -89 -11zM413.002 -11c-56 0 -106.833 9.16699 -152.5 27.5
s-84.834 44.166 -117.501 77.499s-57.834 73.333 -75.501 120s-26.5 98.667 -26.5 156c0 56.667 8.83301 108.5 26.5 155.5s42.834 87.167 75.501 120.5s71.834 59.166 117.501 77.499s96.5 27.5 152.5 27.5s106.667 -9.16699 152 -27.5s84.333 -44.166 117 -77.499
s57.834 -73.5 75.501 -120.5s26.5 -98.833 26.5 -155.5c0 -57.333 -8.83301 -109.333 -26.5 -156s-42.834 -86.667 -75.501 -120s-71.667 -59.166 -117 -77.499s-96 -27.5 -152 -27.5zM413.002 50c46.667 0 89 7.66699 127 23s70.5 37 97.5 65s47.667 61.667 62 101
s21.5 83 21.5 131s-7.16699 91.833 -21.5 131.5s-35 73.5 -62 101.5s-59.5 49.667 -97.5 65s-80.333 23 -127 23c-47.333 0 -90 -7.66699 -128 -23s-70.333 -37 -97 -65s-47.167 -61.833 -61.5 -101.5s-21.5 -83.5 -21.5 -131.5s7.16699 -91.667 21.5 -131
s34.833 -73 61.5 -101s59 -49.667 97 -65s80.667 -23 128 -23z" />
    <glyph glyph-name="ordfeminine" unicode="&#xaa;" horiz-adv-x="404" 
d="M144 348c-32 0 -57.834 9.83301 -77.501 29.5s-29.5 45.834 -29.5 78.501c0 34 11.833 61.333 35.5 82s58.5 32.667 104.5 36l88 6v24c0 15.333 -1.16699 28 -3.5 38s-6.66602 17.833 -12.999 23.5s-14.666 9.66699 -24.999 12s-23.5 3.5 -39.5 3.5
c-13.333 0 -29 -0.666992 -47 -2s-38.667 -4 -62 -8l-6 62c49.333 8.66699 92.333 13 129 13c53.333 0 91.666 -9.83301 114.999 -29.5s35 -51.167 35 -94.5v-270h-71l-4 47h-4c-22 -16.667 -43.333 -29.334 -64 -38.001s-41 -13 -61 -13zM172.999 409
c12 0 25.166 2.83398 39.499 8.50098s31.833 14.167 52.5 25.5v86l-47 -4c-37.333 -3.33301 -63.166 -9.33301 -77.499 -18s-21.5 -23.334 -21.5 -44.001c0 -36 18 -54 54 -54z" />
    <glyph glyph-name="guillemotleft" unicode="&#xab;" horiz-adv-x="534" 
d="M32 268v4l123 238h103l-122 -238v-4l122 -238h-103zM271 268v4l123 238h103l-122 -238v-4l122 -238h-103z" />
    <glyph glyph-name="logicalnot" unicode="&#xac;" horiz-adv-x="752" 
d="M51 429h639v-319h-99v235h-540v84z" />
    <glyph glyph-name="uni00AD" unicode="&#xad;" horiz-adv-x="391" 
d="M56 320h279v-80h-279v80z" />
    <glyph glyph-name="registered" unicode="&#xae;" horiz-adv-x="700" 
d="M239 617c34.667 4 66.333 6 95 6c50.667 0 88 -8.66699 112 -26s36 -44 36 -80c0 -50.667 -22.667 -82.667 -68 -96l-1 -3l79 -131h-57l-71 119h-72v-119h-53v330zM335.999 451c32 0 55.3311 5.16602 69.998 15.499s22 26.833 22 49.5c0 21.333 -6.83301 37.333 -20.5 48
s-36.5 16 -68.5 16c-5.33301 0 -12.666 -0.166992 -21.999 -0.5s-17.666 -1.16602 -24.999 -2.49902v-125c4 -0.666992 10.667 -1 20 -1h24zM349.997 140.999c-45.333 0 -86.666 7.5 -123.999 22.5s-69.5 36 -96.5 63s-48 59.167 -63 96.5s-22.5 78.333 -22.5 123
s7.5 85.834 22.5 123.501s36 70 63 97s59.167 48.167 96.5 63.5s78.666 23 123.999 23c44.667 0 85.834 -7.66699 123.501 -23s70.167 -36.5 97.5 -63.5s48.5 -59.333 63.5 -97s22.5 -78.834 22.5 -123.501s-7.5 -85.667 -22.5 -123s-36.167 -69.5 -63.5 -96.5
s-59.833 -48 -97.5 -63s-78.834 -22.5 -123.501 -22.5zM349.997 191.999c38 0 72.5 6.16699 103.5 18.5s57.5 29.666 79.5 51.999s39.167 49.166 51.5 80.499s18.5 65.666 18.5 102.999s-6.16699 71.666 -18.5 102.999s-29.5 58.166 -51.5 80.499s-48.5 39.833 -79.5 52.5
s-65.5 19 -103.5 19s-72.5 -6.33301 -103.5 -19s-57.5 -30.167 -79.5 -52.5s-39 -49.166 -51 -80.499s-18 -65.666 -18 -102.999s6 -71.666 18 -102.999s29 -58.166 51 -80.499s48.5 -39.666 79.5 -51.999s65.5 -18.5 103.5 -18.5z" />
    <glyph glyph-name="macron" unicode="&#xaf;" horiz-adv-x="410" 
d="M52 711h298v-70h-298v70z" />
    <glyph glyph-name="degree" unicode="&#xb0;" horiz-adv-x="416" 
d="M208 372c-25.333 0 -48.5 4.66699 -69.5 14s-39.167 22.5 -54.5 39.5s-27.166 36.833 -35.499 59.5s-12.5 47.667 -12.5 75s4.16699 52.5 12.5 75.5s20.166 43 35.499 60s33.5 30.167 54.5 39.5s44.167 14 69.5 14s48.5 -4.66699 69.5 -14s39 -22.5 54 -39.5
s26.667 -37 35 -60s12.5 -48.167 12.5 -75.5s-4.16699 -52.333 -12.5 -75s-20 -42.5 -35 -59.5s-33 -30.167 -54 -39.5s-44.167 -14 -69.5 -14zM208 433c35.333 0 62.166 11.667 80.499 35s27.5 54 27.5 92s-9.16699 68.833 -27.5 92.5s-45.166 35.5 -80.499 35.5
s-62.333 -11.833 -81 -35.5s-28 -54.5 -28 -92.5s9.33301 -68.667 28 -92s45.667 -35 81 -35z" />
    <glyph glyph-name="plusminus" unicode="&#xb1;" horiz-adv-x="519" 
d="M59 465h163v166h74v-166h164v-75h-164v-163h-74v163h-163v75zM60 155h400v-74h-400v74z" />
    <glyph glyph-name="twosuperior" unicode="&#xb2;" horiz-adv-x="387" 
d="M33 382c0 22 2.49902 42.1709 7.49902 60.5039s13 35.666 24 51.999s25.167 32.166 42.5 47.499s38.333 30.666 63 45.999c34 21.333 57.5 40.5 70.5 57.5s19.5 35.833 19.5 56.5c0 49.333 -30.667 74 -92 74c-28.667 0 -66 -6 -112 -18l-10 74
c27.333 7.33301 52.5 12.666 75.5 15.999s44.5 5 64.5 5c108.667 0 163 -47.667 163 -143c0 -36 -9 -67.167 -27 -93.5s-47 -52.5 -87 -78.5c-37.333 -25.333 -64.166 -48.5 -80.499 -69.5s-24.5 -43.833 -24.5 -68.5v-24h218v-76h-315v82z" />
    <glyph glyph-name="threesuperior" unicode="&#xb3;" horiz-adv-x="366" 
d="M144 293c-18 0 -35.999 1.16895 -53.999 3.50195s-35 5.16602 -51 8.49902v75h9c11.333 -2.66699 24.666 -4.83398 39.999 -6.50098s29.666 -2.5 42.999 -2.5c38 0 66.167 7.16699 84.5 21.5s27.5 35.166 27.5 62.499c0 30.667 -9.66699 53.334 -29 68.001
s-50.333 22 -93 22h-32v68h32c36 0 63 7.16699 81 21.5s27 35.166 27 62.499c0 53.333 -31.333 80 -94 80c-11.333 0 -24.166 -0.833008 -38.499 -2.5s-29.833 -4.16699 -46.5 -7.5h-10l-3 74c17.333 4 35.166 7.16699 53.499 9.5s35.833 3.5 52.5 3.5
c58 0 101.5 -12.167 130.5 -36.5s43.5 -60.166 43.5 -107.499c0 -31.333 -7.16699 -57.833 -21.5 -79.5s-35.166 -37.5 -62.499 -47.5c65.333 -20.667 98 -66 98 -136c0 -48.667 -16.333 -86.5 -49 -113.5s-78.667 -40.5 -138 -40.5z" />
    <glyph glyph-name="acute" unicode="&#xb4;" horiz-adv-x="240" 
d="M38 617l70 185h104l-102 -192z" />
    <glyph glyph-name="mu" unicode="&#xb5;" horiz-adv-x="563" 
d="M73 540l100.001 0.00195312v-377c0 -58.667 24 -88 72 -88c21.333 0 43.166 4.16699 65.499 12.5s47.5 20.833 75.5 37.5v415h101v-540h-85l-7 59h-4c-20.667 -12.667 -39.167 -23.334 -55.5 -32.001s-31.5 -15.834 -45.5 -21.501s-27.667 -9.66699 -41 -12
s-27.333 -3.5 -42 -3.5c-12.667 0 -24 1 -34 3v-213h-100v760z" />
    <glyph glyph-name="paragraph" unicode="&#xb6;" horiz-adv-x="536" 
d="M325 0l-57.0029 -0.00390625v266c-5.33301 -0.666992 -11.166 -1 -17.499 -1h-18.5c-30 0 -57.333 4.16699 -82 12.5s-45.667 21.833 -63 40.5s-30.666 43.334 -39.999 74.001s-14 68.334 -14 113.001s4.83301 82.334 14.5 113.001s23.167 55.334 40.5 74.001
s38.5 32.167 63.5 40.5s52.833 12.5 83.5 12.5c14.667 0 29.334 -0.833008 44.001 -2.5s30 -4.16699 46 -7.5v-735zM452.997 -0.00390625h-71v735h71v-735z" />
    <glyph glyph-name="periodcentered" unicode="&#xb7;" horiz-adv-x="225" 
d="M112 310c-20.667 0 -36 4.66699 -46 14s-15 24.666 -15 45.999s5 36.833 15 46.5s25.333 14.5 46 14.5c40.667 0 61 -20.333 61 -61c0 -21.333 -5.16699 -36.666 -15.5 -45.999s-25.5 -14 -45.5 -14z" />
    <glyph glyph-name="cedilla" unicode="&#xb8;" horiz-adv-x="276" 
d="M107 -220c-24.667 0 -50.998 3.66602 -78.998 10.999v67c10 -3.33301 20.667 -5.83301 32 -7.5s21.666 -2.5 30.999 -2.5c38.667 0 58 17.667 58 53c0 32.667 -16.667 73.334 -50 122.001h70c19.333 -28 32.833 -52.167 40.5 -72.5s11.5 -40.833 11.5 -61.5
c0 -34.667 -9.83301 -61.5 -29.5 -80.5s-47.834 -28.5 -84.501 -28.5z" />
    <glyph glyph-name="onesuperior" unicode="&#xb9;" horiz-adv-x="300" 
d="M144 746l-100 -52h-12l-17 43l2 13l152 96h64v-546h-89v446z" />
    <glyph glyph-name="ordmasculine" unicode="&#xba;" horiz-adv-x="429" 
d="M215 409c14.667 0 27.834 2.16699 39.501 6.5s21.5 11.666 29.5 21.999s14 24.333 18 42s6 39.834 6 66.501s-2 48.834 -6 66.501s-10 31.834 -18 42.501s-17.833 18.167 -29.5 22.5s-24.834 6.5 -39.501 6.5c-15.333 0 -28.833 -2.16699 -40.5 -6.5
s-21.334 -11.833 -29.001 -22.5s-13.5 -24.834 -17.5 -42.501s-6 -39.834 -6 -66.501s2 -48.834 6 -66.501s9.83301 -31.667 17.5 -42s17.334 -17.666 29.001 -21.999s25.167 -6.5 40.5 -6.5zM215 345c-55.333 0 -98.5 16.5 -129.5 49.5s-46.5 83.5 -46.5 151.5
s15.5 118.5 46.5 151.5s74.167 49.5 129.5 49.5s98.333 -16.5 129 -49.5s46 -83.5 46 -151.5s-15.333 -118.5 -46 -151.5s-73.667 -49.5 -129 -49.5z" />
    <glyph glyph-name="guillemotright" unicode="&#xbb;" horiz-adv-x="534" 
d="M140 30h-103l123 238v4l-123 238h103l123 -238v-4zM379 30h-103l123 238v4l-123 238h103l123 -238v-4z" />
    <glyph glyph-name="onequarter" unicode="&#xbc;" horiz-adv-x="913" 
d="M733 123h-215l-16 53l178 370l10 5l72 -9l5 -13l-174 -337h146l24 178h59v-178h63v-69h-63v-123h-89v123zM522 740h86l-288 -740h-87zM153 646l-100 -52h-12l-17 43l2 13l152 96h64v-546h-89v446z" />
    <glyph glyph-name="onehalf" unicode="&#xbd;" horiz-adv-x="940" 
d="M579 81c0 21.333 2.33398 41.002 7.00098 59.002s12.5 35.167 23.5 51.5s25.167 32.166 42.5 47.499s38.666 31.333 63.999 48c17.333 12 31.833 22.667 43.5 32s21 18.333 28 27s11.833 17.5 14.5 26.5s4 18.5 4 28.5c0 49.333 -30 74 -90 74
c-17.333 0 -36.333 -1.66699 -57 -5s-39.667 -7.66602 -57 -12.999l-10 74c56 14 102.667 21 140 21c108.667 0 163 -47.667 163 -143c0 -17.333 -2 -33.333 -6 -48s-10.5 -28.834 -19.5 -42.501s-20.667 -27 -35 -40s-32.166 -26.833 -53.499 -41.5
c-19.333 -13.333 -35.5 -25.833 -48.5 -37.5s-23.833 -22.834 -32.5 -33.501s-14.834 -21.5 -18.501 -32.5s-5.5 -22.5 -5.5 -34.5v-24h218v-76h-315v82zM522.001 740.002h86l-288 -740h-87zM153.001 646.002l-100 -52h-12l-17 43l2 13l152 96h64v-546h-89v446z" />
    <glyph glyph-name="threequarters" unicode="&#xbe;" horiz-adv-x="961" 
d="M155 193c-18 0 -35.999 1.16895 -53.999 3.50195s-35 5.16602 -51 8.49902v75h9c11.333 -2.66699 24.666 -4.83398 39.999 -6.50098s29.666 -2.5 42.999 -2.5c38 0 66.167 7.16699 84.5 21.5s27.5 35.166 27.5 62.499c0 30.667 -9.66699 53.334 -29 68.001
s-50.333 22 -93 22h-32v68h32c36 0 63 7.16699 81 21.5s27 35.166 27 62.499c0 53.333 -31.333 80 -94 80c-11.333 0 -24.166 -0.833008 -38.499 -2.5s-29.833 -4.16699 -46.5 -7.5h-10l-3 74c17.333 4 35.166 7.16699 53.499 9.5s35.833 3.5 52.5 3.5
c58 0 101.5 -12.167 130.5 -36.5s43.5 -60.166 43.5 -107.499c0 -31.333 -7.16699 -57.833 -21.5 -79.5s-35.166 -37.5 -62.499 -47.5c65.333 -20.667 98 -66 98 -136c0 -48.667 -16.333 -86.5 -49 -113.5s-78.667 -40.5 -138 -40.5zM783.001 123.002h-215l-16 53l178 370
l10 5l72 -9l5 -13l-174 -337h146l24 178h59v-178h63v-69h-63v-123h-89v123zM575.001 740.002h86l-288 -740h-87z" />
    <glyph glyph-name="questiondown" unicode="&#xbf;" horiz-adv-x="416" 
d="M291 335l8 -187.002c-21.333 -5.33301 -42.333 -11.5 -63 -18.5s-39.334 -16.167 -56.001 -27.5s-30 -25.333 -40 -42s-15 -37.334 -15 -62.001c0 -23.333 3.5 -42.666 10.5 -57.999s16.5 -27.833 28.5 -37.5s25.833 -16.5 41.5 -20.5s32.167 -6 49.5 -6
c21.333 0 43 2 65 6s42.333 9 61 15l9 -78c-23.333 -7.33301 -47.666 -13.333 -72.999 -18s-51.666 -7 -78.999 -7c-28.667 0 -55.834 3.5 -81.501 10.5s-48 18.333 -67 34s-34.167 36 -45.5 61s-17 55.167 -17 90.5c0 32.667 5.5 60.834 16.5 84.501
s25.5 43.834 43.5 60.501s38.333 30 61 40s46 17.667 70 23l3 137v17h70v-17zM254 545.998c19.333 0 34.166 -5 44.499 -15s15.5 -24.333 15.5 -43s-5.16699 -33 -15.5 -43s-25.166 -15 -44.499 -15s-34.333 5 -45 15s-16 24.333 -16 43s5.33301 33 16 43s25.667 15 45 15z
" />
    <glyph glyph-name="Agrave" unicode="&#xc0;" horiz-adv-x="612" 
d="M5 7l225 733h152l225 -733v-7h-98l-67 212h-273l-66 -212h-98v7zM420 297l-76 243l-34 118h-9l-34 -118l-75 -243h228zM264 791l-101 155h105l72 -142z" />
    <glyph glyph-name="Aacute" unicode="&#xc1;" horiz-adv-x="612" 
d="M5 7l225 733h152l225 -733v-7h-98l-67 212h-273l-66 -212h-98v7zM420 297l-76 243l-34 118h-9l-34 -118l-75 -243h228zM263 797l72 149h105l-101 -155z" />
    <glyph glyph-name="Acircumflex" unicode="&#xc2;" horiz-adv-x="612" 
d="M5 7l225 733h152l225 -733v-7h-98l-67 212h-273l-66 -212h-98v7zM420 297l-76 243l-34 118h-9l-34 -118l-75 -243h228zM155 884l152 73l152 -73v-77l-152 73l-152 -73v77z" />
    <glyph glyph-name="Atilde" unicode="&#xc3;" horiz-adv-x="612" 
d="M5 7l225 733h152l225 -733v-7h-98l-67 212h-273l-66 -212h-98v7zM420 297l-76 243l-34 118h-9l-34 -118l-75 -243h228zM131 849c16 26 34.4971 46.498 55.4971 61.498s41.833 22.5 62.5 22.5c14 0 27.167 -2.16699 39.5 -6.5s24.5 -9.16602 36.5 -14.499
s23.833 -10.166 35.5 -14.499s23.834 -6.5 36.501 -6.5c25.333 0 49.333 13.333 72 40l25 -24c-14 -28 -31.667 -49.167 -53 -63.5s-42.666 -21.5 -63.999 -21.5c-13.333 0 -26.166 2 -38.499 6s-24.5 8.5 -36.5 13.5s-23.833 9.66699 -35.5 14s-23.834 6.5 -36.501 6.5
c-25.333 0 -50.666 -12.667 -75.999 -38z" />
    <glyph glyph-name="Adieresis" unicode="&#xc4;" horiz-adv-x="612" 
d="M5 7l225 733h152l225 -733v-7h-98l-67 212h-273l-66 -212h-98v7zM420 297l-76 243l-34 118h-9l-34 -118l-75 -243h228zM193 810c-40.667 0 -61 20.333 -61 61c0 39.333 20.333 59 61 59s61 -19.667 61 -59c0 -21.333 -5.16699 -36.833 -15.5 -46.5
s-25.5 -14.5 -45.5 -14.5zM419 810c-40.667 0 -61 20.333 -61 61c0 39.333 20.333 59 61 59c41.333 0 62 -19.667 62 -59c0 -21.333 -5.33301 -36.833 -16 -46.5s-26 -14.5 -46 -14.5z" />
    <glyph glyph-name="Aring" unicode="&#xc5;" horiz-adv-x="612" 
d="M5 7l225 733h152l225 -733v-7h-98l-67 212h-273l-66 -212h-98v7zM420 297l-76 243l-34 118h-9l-34 -118l-75 -243h228zM306 747c-33.333 0 -59.833 10.333 -79.5 31s-29.5 46 -29.5 76c0 31.333 9.83301 57.166 29.5 77.499s46.167 30.5 79.5 30.5s60 -10.167 80 -30.5
s30 -46.166 30 -77.499c0 -30 -10 -55.333 -30 -76s-46.667 -31 -80 -31zM306 793c20 0 35.001 5.33301 45.001 16s15 25.667 15 45s-4.83301 34.5 -14.5 45.5s-24.834 16.5 -45.501 16.5s-35.834 -5.5 -45.501 -16.5s-14.5 -26.167 -14.5 -45.5s4.83301 -34.333 14.5 -45
s24.834 -16 45.501 -16z" />
    <glyph glyph-name="AE" unicode="&#xc6;" horiz-adv-x="820" 
d="M3 7l255 733h513v-87h-293l12 -236h258v-87h-253l13 -243h273v-87h-374l-9 210h-219l-73 -210h-103v7zM210 299h185l-15 360h-45z" />
    <glyph glyph-name="Ccedilla" unicode="&#xc7;" horiz-adv-x="526" 
d="M283 -220c-24.667 0 -50.9971 3.66602 -78.9971 10.999v67c10 -3.33301 20.667 -5.83301 32 -7.5s21.666 -2.5 30.999 -2.5c38.667 0 58 17.667 58 53c0 26 -10.667 57.333 -32 94c-85.333 12 -148.5 48.333 -189.5 109s-61.5 149 -61.5 265
c0 132 25.833 228.333 77.5 289s131.167 91 238.5 91c19.333 0 40.5 -1 63.5 -3s47.167 -5.33301 72.5 -10v-86c-21.333 4 -42.5 7 -63.5 9s-40.5 3 -58.5 3c-40 0 -74.167 -5 -102.5 -15s-51.5 -26.5 -69.5 -49.5s-31.167 -53.167 -39.5 -90.5s-12.5 -83.333 -12.5 -138
c0 -53.333 4.16699 -98.333 12.5 -135s21.5 -66.667 39.5 -90s40.833 -40.166 68.5 -50.499s60.834 -15.5 99.501 -15.5c8 0 17.333 0.333008 28 1s21.667 1.5 33 2.5s22.666 2.16699 33.999 3.5s21.666 3 30.999 5v-83c-17.333 -4.66699 -37 -8.5 -59 -11.5
s-45 -4.83301 -69 -5.5c11.333 -19.333 19.333 -37 24 -53s7 -32 7 -48c0 -34.667 -9.83301 -61.5 -29.5 -80.5s-47.834 -28.5 -84.501 -28.5z" />
    <glyph glyph-name="Egrave" unicode="&#xc8;" horiz-adv-x="552" 
d="M253 791l-101 155h105l72 -142zM74 740h432v-87h-329v-236h297v-87h-297v-243h338v-87h-441v740z" />
    <glyph glyph-name="Eacute" unicode="&#xc9;" horiz-adv-x="552" 
d="M247 797l72 149h105l-101 -155zM74 740h432v-87h-329v-236h297v-87h-297v-243h338v-87h-441v740z" />
    <glyph glyph-name="Ecircumflex" unicode="&#xca;" horiz-adv-x="552" 
d="M74 740h432v-87h-329v-236h297v-87h-297v-243h338v-87h-441v740zM141 884l152 73l152 -73v-77l-152 73l-152 -73v77z" />
    <glyph glyph-name="Edieresis" unicode="&#xcb;" horiz-adv-x="552" 
d="M178 810c-40.667 0 -61 20.333 -61 61c0 39.333 20.333 59 61 59s61 -19.667 61 -59c0 -21.333 -5.16699 -36.833 -15.5 -46.5s-25.5 -14.5 -45.5 -14.5zM404 810c-40.667 0 -61 20.333 -61 61c0 39.333 20.333 59 61 59c41.333 0 62 -19.667 62 -59
c0 -21.333 -5.33301 -36.833 -16 -46.5s-26 -14.5 -46 -14.5zM74 740h432v-87h-329v-236h297v-87h-297v-243h338v-87h-441v740z" />
    <glyph glyph-name="Igrave" unicode="&#xcc;" horiz-adv-x="251" 
d="M74 740h103v-740h-103v740zM89 791l-101 155h105l72 -142z" />
    <glyph glyph-name="Iacute" unicode="&#xcd;" horiz-adv-x="251" 
d="M74 740h103v-740h-103v740zM84 797l72 149h105l-101 -155z" />
    <glyph glyph-name="Icircumflex" unicode="&#xce;" horiz-adv-x="251" 
d="M74 740h103v-740h-103v740zM-25 884l152 73l152 -73v-77l-152 73l-152 -73v77z" />
    <glyph glyph-name="Idieresis" unicode="&#xcf;" horiz-adv-x="251" 
d="M74 740h103v-740h-103v740zM14 810c-40.667 0 -61 20.333 -61 61c0 39.333 20.333 59 61 59s61 -19.667 61 -59c0 -21.333 -5.16699 -36.833 -15.5 -46.5s-25.5 -14.5 -45.5 -14.5zM240 810c-40.667 0 -61 20.333 -61 61c0 39.333 20.333 59 61 59
c41.333 0 62 -19.667 62 -59c0 -21.333 -5.33301 -36.833 -16 -46.5s-26 -14.5 -46 -14.5z" />
    <glyph glyph-name="Eth" unicode="&#xd0;" horiz-adv-x="661" 
d="M1 411l88 -0.000976562v325c37.333 4.66699 71.166 8.16699 101.499 10.5s57.5 3.5 81.5 3.5c60.667 0 112.834 -7.5 156.501 -22.5s79.667 -38 108 -69s49.166 -70.5 62.499 -118.5s20 -105 20 -171c0 -67.333 -7 -125.166 -21 -173.499s-36.167 -88 -66.5 -119
s-69 -53.833 -116 -68.5s-103.5 -22 -169.5 -22c-26.667 0 -53.167 0.833008 -79.5 2.5s-52.166 4.16699 -77.499 7.5v334h-88v81zM279 71.999c40.667 0 75.832 5.49902 105.499 16.499s54 28.5 73 52.5s33 54.833 42 92.5s13.5 82.834 13.5 135.501
c0 53.333 -4.16699 98.666 -12.5 135.999s-21.666 67.833 -39.999 91.5s-42 40.834 -71 51.501s-63.833 16 -104.5 16c-15.333 0 -31 -0.666992 -47 -2s-31.667 -3 -47 -5v-246h140v-81h-140v-252c17.333 -2 32.833 -3.5 46.5 -4.5s27.5 -1.5 41.5 -1.5z" />
    <glyph glyph-name="Ntilde" unicode="&#xd1;" horiz-adv-x="703" 
d="M176 849c16 26 34.4971 46.498 55.4971 61.498s41.833 22.5 62.5 22.5c14 0 27.167 -2.16699 39.5 -6.5s24.5 -9.16602 36.5 -14.499s23.833 -10.166 35.5 -14.499s23.834 -6.5 36.501 -6.5c25.333 0 49.333 13.333 72 40l25 -24c-14 -28 -31.667 -49.167 -53 -63.5
s-42.666 -21.5 -63.999 -21.5c-13.333 0 -26.166 2 -38.499 6s-24.5 8.5 -36.5 13.5s-23.833 9.66699 -35.5 14s-23.834 6.5 -36.501 6.5c-25.333 0 -50.666 -12.667 -75.999 -38zM73.9971 739.998h90l318 -485l47 -83h7v568h93v-740h-90l-317 483l-48 86l-8 -1v-568h-92
v740z" />
    <glyph glyph-name="Ograve" unicode="&#xd2;" horiz-adv-x="671" 
d="M293 791l-101 155h105l72 -142zM335 -10c-195.333 0 -293 126.333 -293 379c0 254 97.667 381 293 381c97.333 0 170.666 -31.5 219.999 -94.5s74 -158.5 74 -286.5c0 -126.667 -24.667 -221.5 -74 -284.5s-122.666 -94.5 -219.999 -94.5zM335 77
c32.667 0 61.001 5.5 85.001 16.5s43.667 28.333 59 52s26.666 54 33.999 91s11 81.167 11 132.5c0 103.333 -15 178.166 -45 224.499s-78 69.5 -144 69.5c-65.333 0 -113 -23.167 -143 -69.5s-45 -121.166 -45 -224.499c0 -51.333 3.66699 -95.5 11 -132.5
s18.666 -67.333 33.999 -91s34.833 -41 58.5 -52s51.834 -16.5 84.501 -16.5z" />
    <glyph glyph-name="Oacute" unicode="&#xd3;" horiz-adv-x="671" 
d="M293 797l72 149h105l-101 -155zM335 -10c-195.333 0 -293 126.333 -293 379c0 254 97.667 381 293 381c97.333 0 170.666 -31.5 219.999 -94.5s74 -158.5 74 -286.5c0 -126.667 -24.667 -221.5 -74 -284.5s-122.666 -94.5 -219.999 -94.5zM335 77
c32.667 0 61.001 5.5 85.001 16.5s43.667 28.333 59 52s26.666 54 33.999 91s11 81.167 11 132.5c0 103.333 -15 178.166 -45 224.499s-78 69.5 -144 69.5c-65.333 0 -113 -23.167 -143 -69.5s-45 -121.166 -45 -224.499c0 -51.333 3.66699 -95.5 11 -132.5
s18.666 -67.333 33.999 -91s34.833 -41 58.5 -52s51.834 -16.5 84.501 -16.5z" />
    <glyph glyph-name="Ocircumflex" unicode="&#xd4;" horiz-adv-x="671" 
d="M335 -10c-195.333 0 -293 126.333 -293 379c0 254 97.667 381 293 381c97.333 0 170.666 -31.5 219.999 -94.5s74 -158.5 74 -286.5c0 -126.667 -24.667 -221.5 -74 -284.5s-122.666 -94.5 -219.999 -94.5zM335 77c32.667 0 61.001 5.5 85.001 16.5s43.667 28.333 59 52
s26.666 54 33.999 91s11 81.167 11 132.5c0 103.333 -15 178.166 -45 224.499s-78 69.5 -144 69.5c-65.333 0 -113 -23.167 -143 -69.5s-45 -121.166 -45 -224.499c0 -51.333 3.66699 -95.5 11 -132.5s18.666 -67.333 33.999 -91s34.833 -41 58.5 -52
s51.834 -16.5 84.501 -16.5zM184.001 884l152 73l152 -73v-77l-152 73l-152 -73v77z" />
    <glyph glyph-name="Otilde" unicode="&#xd5;" horiz-adv-x="671" 
d="M160 849c16 26 34.4971 46.498 55.4971 61.498s41.833 22.5 62.5 22.5c14 0 27.167 -2.16699 39.5 -6.5s24.5 -9.16602 36.5 -14.499s23.833 -10.166 35.5 -14.499s23.834 -6.5 36.501 -6.5c25.333 0 49.333 13.333 72 40l25 -24c-14 -28 -31.667 -49.167 -53 -63.5
s-42.666 -21.5 -63.999 -21.5c-13.333 0 -26.166 2 -38.499 6s-24.5 8.5 -36.5 13.5s-23.833 9.66699 -35.5 14s-23.834 6.5 -36.501 6.5c-25.333 0 -50.666 -12.667 -75.999 -38zM334.997 -10.002c-195.333 0 -293 126.333 -293 379c0 254 97.667 381 293 381
c97.333 0 170.666 -31.5 219.999 -94.5s74 -158.5 74 -286.5c0 -126.667 -24.667 -221.5 -74 -284.5s-122.666 -94.5 -219.999 -94.5zM334.997 76.998c32.667 0 61.001 5.5 85.001 16.5s43.667 28.333 59 52s26.666 54 33.999 91s11 81.167 11 132.5
c0 103.333 -15 178.166 -45 224.499s-78 69.5 -144 69.5c-65.333 0 -113 -23.167 -143 -69.5s-45 -121.166 -45 -224.499c0 -51.333 3.66699 -95.5 11 -132.5s18.666 -67.333 33.999 -91s34.833 -41 58.5 -52s51.834 -16.5 84.501 -16.5z" />
    <glyph glyph-name="Odieresis" unicode="&#xd6;" horiz-adv-x="671" 
d="M221 810c-40.667 0 -61 20.333 -61 61c0 39.333 20.333 59 61 59s61 -19.667 61 -59c0 -21.333 -5.16699 -36.833 -15.5 -46.5s-25.5 -14.5 -45.5 -14.5zM447 810c-40.667 0 -61 20.333 -61 61c0 39.333 20.333 59 61 59c41.333 0 62 -19.667 62 -59
c0 -21.333 -5.33301 -36.833 -16 -46.5s-26 -14.5 -46 -14.5zM335 -10c-195.333 0 -293 126.333 -293 379c0 254 97.667 381 293 381c97.333 0 170.666 -31.5 219.999 -94.5s74 -158.5 74 -286.5c0 -126.667 -24.667 -221.5 -74 -284.5s-122.666 -94.5 -219.999 -94.5z
M335 77c32.667 0 61.001 5.5 85.001 16.5s43.667 28.333 59 52s26.666 54 33.999 91s11 81.167 11 132.5c0 103.333 -15 178.166 -45 224.499s-78 69.5 -144 69.5c-65.333 0 -113 -23.167 -143 -69.5s-45 -121.166 -45 -224.499c0 -51.333 3.66699 -95.5 11 -132.5
s18.666 -67.333 33.999 -91s34.833 -41 58.5 -52s51.834 -16.5 84.501 -16.5z" />
    <glyph glyph-name="multiply" unicode="&#xd7;" horiz-adv-x="466" 
d="M46 237l133 133l-133 134l53 53l133 -134l134 134l53 -53l-134 -134l134 -133l-52 -53l-135 133l-133 -133z" />
    <glyph glyph-name="Oslash" unicode="&#xd8;" horiz-adv-x="677" 
d="M102 110c-37.333 62.667 -56 149 -56 259c0 254 97.667 381 293 381c80 0 144.333 -22.333 193 -67l43 57h82l-83 -110c38.667 -64 58 -151 58 -261c0 -252.667 -97.667 -379 -293 -379c-82 0 -146.667 22.333 -194 67l-42 -57h-83zM339 77c32.667 0 61 5.5 85 16.5
s43.5 28.333 58.5 52s26.167 54 33.5 91s11 81.167 11 132.5c0 69.333 -7 126 -21 170l-303 -404c30 -38.667 75.333 -58 136 -58zM151 369c0 -69.333 6.33301 -125.334 19 -168.001l303 404c-30 38.667 -74.667 58 -134 58c-65.333 0 -113 -23.167 -143 -69.5
s-45 -121.166 -45 -224.499z" />
    <glyph glyph-name="Ugrave" unicode="&#xd9;" horiz-adv-x="683" 
d="M298 791l-101 155h105l72 -142zM341 -10c-49.333 0 -91.3311 6 -125.998 18s-62.834 30.333 -84.501 55s-37.5 56 -47.5 94s-15 83 -15 135v448h102v-445c0 -76.667 13.667 -132 41 -166s70.666 -51 129.999 -51c60 0 103.5 16.833 130.5 50.5s40.5 89.167 40.5 166.5
v445h103v-448c0 -52 -5 -97 -15 -135s-26 -69.333 -48 -94s-50.333 -43 -85 -55s-76.667 -18 -126 -18z" />
    <glyph glyph-name="Uacute" unicode="&#xda;" horiz-adv-x="683" 
d="M294 797l72 149h105l-101 -155zM341 -10c-49.333 0 -91.3311 6 -125.998 18s-62.834 30.333 -84.501 55s-37.5 56 -47.5 94s-15 83 -15 135v448h102v-445c0 -76.667 13.667 -132 41 -166s70.666 -51 129.999 -51c60 0 103.5 16.833 130.5 50.5s40.5 89.167 40.5 166.5
v445h103v-448c0 -52 -5 -97 -15 -135s-26 -69.333 -48 -94s-50.333 -43 -85 -55s-76.667 -18 -126 -18z" />
    <glyph glyph-name="Ucircumflex" unicode="&#xdb;" horiz-adv-x="683" 
d="M341 -10c-49.333 0 -91.3311 6 -125.998 18s-62.834 30.333 -84.501 55s-37.5 56 -47.5 94s-15 83 -15 135v448h102v-445c0 -76.667 13.667 -132 41 -166s70.666 -51 129.999 -51c60 0 103.5 16.833 130.5 50.5s40.5 89.167 40.5 166.5v445h103v-448
c0 -52 -5 -97 -15 -135s-26 -69.333 -48 -94s-50.333 -43 -85 -55s-76.667 -18 -126 -18zM186.002 884l152 73l152 -73v-77l-152 73l-152 -73v77z" />
    <glyph glyph-name="Udieresis" unicode="&#xdc;" horiz-adv-x="683" 
d="M225 810c-40.667 0 -61 20.333 -61 61c0 39.333 20.333 59 61 59s61 -19.667 61 -59c0 -21.333 -5.16699 -36.833 -15.5 -46.5s-25.5 -14.5 -45.5 -14.5zM451 810c-40.667 0 -61 20.333 -61 61c0 39.333 20.333 59 61 59c41.333 0 62 -19.667 62 -59
c0 -21.333 -5.33301 -36.833 -16 -46.5s-26 -14.5 -46 -14.5zM341 -10c-49.333 0 -91.3311 6 -125.998 18s-62.834 30.333 -84.501 55s-37.5 56 -47.5 94s-15 83 -15 135v448h102v-445c0 -76.667 13.667 -132 41 -166s70.666 -51 129.999 -51c60 0 103.5 16.833 130.5 50.5
s40.5 89.167 40.5 166.5v445h103v-448c0 -52 -5 -97 -15 -135s-26 -69.333 -48 -94s-50.333 -43 -85 -55s-76.667 -18 -126 -18z" />
    <glyph glyph-name="Yacute" unicode="&#xdd;" horiz-adv-x="597" 
d="M248 247l-250 493h114l159 -333l23 -59h9l23 59l160 333h112l-248 -490v-250h-102v247zM258 797l72 149h105l-101 -155z" />
    <glyph glyph-name="Thorn" unicode="&#xde;" horiz-adv-x="584" 
d="M74 740h103v-118c24.667 2 49 3 73 3c105.333 0 182.333 -20.333 231 -61s73 -105.667 73 -195c0 -88.667 -24.167 -153.167 -72.5 -193.5s-125.833 -60.5 -232.5 -60.5h-36c-12 0 -24 0.333008 -36 1v-116h-103v740zM261 201c34 0 62.999 3.00195 86.999 9.00195
s43.5 15.833 58.5 29.5s26 31.167 33 52.5s10.5 47 10.5 77s-3.33301 55.833 -10 77.5s-17.5 39.167 -32.5 52.5s-34.333 23.166 -58 29.499s-52.5 9.5 -86.5 9.5c-5.33301 0 -11.666 -0.166992 -18.999 -0.5l-23 -1c-8 -0.333008 -15.833 -1 -23.5 -2
s-14.5 -2.16699 -20.5 -3.5v-325c4.66699 -0.666992 10.667 -1.33398 18 -2.00098s15 -1.16699 23 -1.5l23.5 -1c7.66699 -0.333008 14.167 -0.5 19.5 -0.5z" />
    <glyph glyph-name="germandbls" unicode="&#xdf;" horiz-adv-x="606" 
d="M63 592c0 76.667 18.4971 132.33 55.4971 166.997s94.5 52 172.5 52c78.667 0 136.667 -17.5 174 -52.5s56 -90.5 56 -166.5v-119h-92c-30.667 0 -54.5 -7.16699 -71.5 -21.5s-25.5 -32.833 -25.5 -55.5c0 -14.667 2.5 -26.667 7.5 -36s11.833 -17 20.5 -23
s18.834 -10.833 30.501 -14.5s24.167 -7.16699 37.5 -10.5c21.333 -5.33301 41.333 -11.333 60 -18s34.834 -16 48.501 -28s24.5 -27.167 32.5 -45.5s12 -41.166 12 -68.499c0 -50.667 -16.667 -90.5 -50 -119.5s-79.666 -43.5 -138.999 -43.5c-22.667 0 -46.667 2 -72 6
s-54.333 9.66699 -87 17v77c26 -7.33301 52.333 -13 79 -17s52 -6 76 -6c31.333 0 55.166 7 71.499 21s24.5 33.667 24.5 59c0 24.667 -7.33301 43.667 -22 57s-36.667 23 -66 29c-18 4 -36.333 8.33301 -55 13s-35.667 12.5 -51 23.5s-28 26.333 -38 46
s-15 45.834 -15 78.501c0 48 16.333 86.333 49 115s77.334 43.334 134.001 44.001v40c0 50 -9.83301 85.5 -29.5 106.5s-52.5 31.5 -98.5 31.5s-78.833 -10.5 -98.5 -31.5s-29.5 -56.5 -29.5 -106.5v-592h-101v592z" />
    <glyph glyph-name="agrave" unicode="&#xe0;" horiz-adv-x="490" 
d="M168 -5c-43.333 0 -77.165 12.832 -101.498 38.499s-36.5 61.5 -36.5 107.5c0 102.667 64.667 158.334 194 167.001l106 7v39c0 22 -1.83301 40.333 -5.5 55s-9.83398 26.5 -18.501 35.5s-20.167 15.5 -34.5 19.5s-32.166 6 -53.499 6c-18 0 -40.5 -1.5 -67.5 -4.5
s-52.167 -7.16699 -75.5 -12.5l-7 77c29.333 5.33301 58.166 9.5 86.499 12.5s55.166 4.5 80.499 4.5c67.333 0 116.833 -13.833 148.5 -41.5s47.5 -71.167 47.5 -130.5v-375h-84l-9 66h-7c-23.333 -20 -48.833 -36.833 -76.5 -50.5s-56.5 -20.5 -86.5 -20.5z
M205.001 71.999c10 0 20.667 1.66895 32 5.00195s22.5 7.66602 33.5 12.999s21.5 11.166 31.5 17.499l28 17.5v126l-81 -7c-42.667 -3.33301 -73 -12.5 -91 -27.5s-27 -37.167 -27 -66.5c0 -52 24.667 -78 74 -78zM214.001 611.001l-103 193h106l70 -183z" />
    <glyph glyph-name="aacute" unicode="&#xe1;" horiz-adv-x="490" 
d="M168 -5c-43.333 0 -77.165 12.832 -101.498 38.499s-36.5 61.5 -36.5 107.5c0 102.667 64.667 158.334 194 167.001l106 7v39c0 22 -1.83301 40.333 -5.5 55s-9.83398 26.5 -18.501 35.5s-20.167 15.5 -34.5 19.5s-32.166 6 -53.499 6c-18 0 -40.5 -1.5 -67.5 -4.5
s-52.167 -7.16699 -75.5 -12.5l-7 77c29.333 5.33301 58.166 9.5 86.499 12.5s55.166 4.5 80.499 4.5c67.333 0 116.833 -13.833 148.5 -41.5s47.5 -71.167 47.5 -130.5v-375h-84l-9 66h-7c-23.333 -20 -48.833 -36.833 -76.5 -50.5s-56.5 -20.5 -86.5 -20.5z
M205.001 71.999c10 0 20.667 1.66895 32 5.00195s22.5 7.66602 33.5 12.999s21.5 11.166 31.5 17.499l28 17.5v126l-81 -7c-42.667 -3.33301 -73 -12.5 -91 -27.5s-27 -37.167 -27 -66.5c0 -52 24.667 -78 74 -78zM212.001 617.001l70 185h104l-102 -192z" />
    <glyph glyph-name="acircumflex" unicode="&#xe2;" horiz-adv-x="490" 
d="M168 -5c-43.333 0 -77.165 12.832 -101.498 38.499s-36.5 61.5 -36.5 107.5c0 102.667 64.667 158.334 194 167.001l106 7v39c0 22 -1.83301 40.333 -5.5 55s-9.83398 26.5 -18.501 35.5s-20.167 15.5 -34.5 19.5s-32.166 6 -53.499 6c-18 0 -40.5 -1.5 -67.5 -4.5
s-52.167 -7.16699 -75.5 -12.5l-7 77c29.333 5.33301 58.166 9.5 86.499 12.5s55.166 4.5 80.499 4.5c67.333 0 116.833 -13.833 148.5 -41.5s47.5 -71.167 47.5 -130.5v-375h-84l-9 66h-7c-23.333 -20 -48.833 -36.833 -76.5 -50.5s-56.5 -20.5 -86.5 -20.5z
M205.001 71.999c10 0 20.667 1.66895 32 5.00195s22.5 7.66602 33.5 12.999s21.5 11.166 31.5 17.499l28 17.5v126l-81 -7c-42.667 -3.33301 -73 -12.5 -91 -27.5s-27 -37.167 -27 -66.5c0 -52 24.667 -78 74 -78zM101.001 703.001l151 73l153 -73v-76l-152 72l-152 -72v76z
" />
    <glyph glyph-name="atilde" unicode="&#xe3;" horiz-adv-x="490" 
d="M168 -5c-43.333 0 -77.165 12.832 -101.498 38.499s-36.5 61.5 -36.5 107.5c0 102.667 64.667 158.334 194 167.001l106 7v39c0 22 -1.83301 40.333 -5.5 55s-9.83398 26.5 -18.501 35.5s-20.167 15.5 -34.5 19.5s-32.166 6 -53.499 6c-18 0 -40.5 -1.5 -67.5 -4.5
s-52.167 -7.16699 -75.5 -12.5l-7 77c29.333 5.33301 58.166 9.5 86.499 12.5s55.166 4.5 80.499 4.5c67.333 0 116.833 -13.833 148.5 -41.5s47.5 -71.167 47.5 -130.5v-375h-84l-9 66h-7c-23.333 -20 -48.833 -36.833 -76.5 -50.5s-56.5 -20.5 -86.5 -20.5z
M205.001 71.999c10 0 20.667 1.66895 32 5.00195s22.5 7.66602 33.5 12.999s21.5 11.166 31.5 17.499l28 17.5v126l-81 -7c-42.667 -3.33301 -73 -12.5 -91 -27.5s-27 -37.167 -27 -66.5c0 -52 24.667 -78 74 -78zM70.001 664.001c15.333 25.333 33.668 44.833 55.001 58.5
s42.333 20.5 63 20.5c14 0 27.167 -2.5 39.5 -7.5s24.166 -10.333 35.499 -16s22.833 -11 34.5 -16s24.167 -7.5 37.5 -7.5c23.333 0 46.333 13.333 69 40l29 -28c-14.667 -27.333 -32.667 -47.833 -54 -61.5s-42.666 -20.5 -63.999 -20.5c-13.333 0 -26 2.5 -38 7.5
s-24 10.333 -36 16s-24 11 -36 16s-24.333 7.5 -37 7.5c-24.667 0 -48.334 -13 -71.001 -39z" />
    <glyph glyph-name="adieresis" unicode="&#xe4;" horiz-adv-x="490" 
d="M168 -5c-43.333 0 -77.165 12.832 -101.498 38.499s-36.5 61.5 -36.5 107.5c0 102.667 64.667 158.334 194 167.001l106 7v39c0 22 -1.83301 40.333 -5.5 55s-9.83398 26.5 -18.501 35.5s-20.167 15.5 -34.5 19.5s-32.166 6 -53.499 6c-18 0 -40.5 -1.5 -67.5 -4.5
s-52.167 -7.16699 -75.5 -12.5l-7 77c29.333 5.33301 58.166 9.5 86.499 12.5s55.166 4.5 80.499 4.5c67.333 0 116.833 -13.833 148.5 -41.5s47.5 -71.167 47.5 -130.5v-375h-84l-9 66h-7c-23.333 -20 -48.833 -36.833 -76.5 -50.5s-56.5 -20.5 -86.5 -20.5z
M205.001 71.999c10 0 20.667 1.66895 32 5.00195s22.5 7.66602 33.5 12.999s21.5 11.166 31.5 17.499l28 17.5v126l-81 -7c-42.667 -3.33301 -73 -12.5 -91 -27.5s-27 -37.167 -27 -66.5c0 -52 24.667 -78 74 -78zM143.001 631.001c-18.667 0 -32.5 4.16797 -41.5 12.501
s-13.5 22.166 -13.5 41.499s4.5 33.166 13.5 41.499s22.833 12.5 41.5 12.5c37.333 0 56 -18 56 -54c0 -19.333 -4.66699 -33.166 -14 -41.499s-23.333 -12.5 -42 -12.5zM356.001 631.002c-19.333 0 -33.5 4.16797 -42.5 12.501s-13.5 22.166 -13.5 41.499
s4.5 33.166 13.5 41.499s23.167 12.5 42.5 12.5c36.667 0 55 -18 55 -54c0 -19.333 -4.83301 -33.166 -14.5 -41.499s-23.167 -12.5 -40.5 -12.5z" />
    <glyph glyph-name="aring" unicode="&#xe5;" horiz-adv-x="490" 
d="M168 -5c-43.333 0 -77.165 12.832 -101.498 38.499s-36.5 61.5 -36.5 107.5c0 102.667 64.667 158.334 194 167.001l106 7v39c0 22 -1.83301 40.333 -5.5 55s-9.83398 26.5 -18.501 35.5s-20.167 15.5 -34.5 19.5s-32.166 6 -53.499 6c-18 0 -40.5 -1.5 -67.5 -4.5
s-52.167 -7.16699 -75.5 -12.5l-7 77c29.333 5.33301 58.166 9.5 86.499 12.5s55.166 4.5 80.499 4.5c67.333 0 116.833 -13.833 148.5 -41.5s47.5 -71.167 47.5 -130.5v-375h-84l-9 66h-7c-23.333 -20 -48.833 -36.833 -76.5 -50.5s-56.5 -20.5 -86.5 -20.5z
M205.001 71.999c10 0 20.667 1.66895 32 5.00195s22.5 7.66602 33.5 12.999s21.5 11.166 31.5 17.499l28 17.5v126l-81 -7c-42.667 -3.33301 -73 -12.5 -91 -27.5s-27 -37.167 -27 -66.5c0 -52 24.667 -78 74 -78zM247.001 603.001c-34 0 -61 10.167 -81 30.5
s-30 46.166 -30 77.499c0 30.667 10 56.167 30 76.5s47 30.5 81 30.5s61.167 -10.167 81.5 -30.5s30.5 -45.833 30.5 -76.5c0 -31.333 -10.167 -57.166 -30.5 -77.499s-47.5 -30.5 -81.5 -30.5zM247.001 650.001c19.333 0 34.001 5.66699 44.001 17s15 26 15 44
s-5 32.5 -15 43.5s-24.667 16.5 -44 16.5c-18.667 0 -32.834 -5.5 -42.501 -16.5s-14.5 -25.5 -14.5 -43.5c0 -18.667 5 -33.5 15 -44.5s24 -16.5 42 -16.5z" />
    <glyph glyph-name="ae" unicode="&#xe6;" horiz-adv-x="786" 
d="M564 -10c-83.333 0 -143.33 30.665 -179.997 91.998l-7 1c-46 -31.333 -84.833 -53.833 -116.5 -67.5s-62.5 -20.5 -92.5 -20.5c-43.333 0 -77.166 12.833 -101.499 38.5s-36.5 61.5 -36.5 107.5c0 52 15.833 91.333 47.5 118s80.5 42.667 146.5 48l107 8v50
c0 38.667 -8.66699 65.834 -26 81.501s-46.666 23.5 -87.999 23.5c-9.33301 0 -19.833 -0.5 -31.5 -1.5s-23.834 -2.16699 -36.501 -3.5s-25.334 -3 -38.001 -5s-24.334 -4.33301 -35.001 -7l-8 77c31.333 5.33301 61.166 9.5 89.499 12.5s54.5 4.5 78.5 4.5
c79.333 0 129.666 -29 150.999 -87h6c35.333 58.667 91 88 167 88c125.333 0 188 -79.667 188 -239c0 -17.333 -0.333008 -31.333 -1 -42s-1.66699 -21 -3 -31h-312c2 -56.667 14 -98.5 36 -125.5s56 -40.5 102 -40.5c22 0 46 2.33301 72 7s53.333 12.334 82 23.001l5 -78
c-23.333 -10 -49.833 -17.833 -79.5 -23.5s-58.167 -8.5 -85.5 -8.5zM205.003 71.998c19.333 0 39.501 5.33203 60.501 15.999s45.5 25.667 73.5 45c-1.33301 4 -2.5 11.333 -3.5 22s-1.83301 22 -2.5 34s-1.16699 23.833 -1.5 35.5s-0.5 20.834 -0.5 27.501l-82 -8
c-42.667 -4 -72.834 -13.167 -90.501 -27.5s-26.5 -36.5 -26.5 -66.5c0 -52 24.333 -78 73 -78zM657.004 300.997c-2 60.667 -10.667 104.167 -26 130.5s-40 39.5 -74 39.5c-78 0 -119.667 -56.667 -125 -170h225z" />
    <glyph glyph-name="ccedilla" unicode="&#xe7;" horiz-adv-x="424" 
d="M207 -220c-24.667 0 -51.002 3.66602 -79.002 10.999v67c10 -3.33301 20.667 -5.83301 32 -7.5s21.666 -2.5 30.999 -2.5c38.667 0 58 17.667 58 53c0 26 -10.667 57.333 -32 94c-119.333 20.667 -179 112.334 -179 275.001c0 186.667 80 280 240 280
c33.333 0 69.333 -4.66699 108 -14v-83c-17.333 4 -34.166 6.83301 -50.499 8.5s-32.166 2.5 -47.499 2.5c-51.333 0 -88.666 -15.333 -111.999 -46s-35 -80 -35 -148s11.5 -117.5 34.5 -148.5s60.167 -46.5 111.5 -46.5c16 0 31.833 0.833008 47.5 2.5
s32.834 4.83398 51.501 9.50098v-82c-13.333 -4 -28.333 -7.33301 -45 -10s-33.667 -4.33398 -51 -5.00098c11.333 -19.333 19.333 -37 24 -53s7 -32 7 -48c0 -34.667 -9.83301 -61.5 -29.5 -80.5s-47.834 -28.5 -84.501 -28.5z" />
    <glyph glyph-name="egrave" unicode="&#xe8;" horiz-adv-x="492" 
d="M270 -9c-75.333 0 -132.668 23 -172.001 69s-59 113.333 -59 202c0 94 19.333 165.333 58 214s95.334 73 170.001 73c126 0 189 -80 189 -240c0 -16.667 -0.5 -30.667 -1.5 -42s-2.16699 -22.333 -3.5 -33h-311c3.33301 -58 15.833 -99.667 37.5 -125
s55.167 -38 100.5 -38c22 0 46 2.5 72 7.5s53 12.167 81 21.5l5 -78c-23.333 -9.33301 -49.833 -16.833 -79.5 -22.5s-58.5 -8.5 -86.5 -8.5zM263.998 472c-75.333 0 -116.333 -56 -123 -168h223c-1.33301 60 -9.83301 103 -25.5 129s-40.5 39 -74.5 39zM214.998 611
l-103 193h106l70 -183z" />
    <glyph glyph-name="eacute" unicode="&#xe9;" horiz-adv-x="492" 
d="M223 617l70 185h104l-102 -192zM270 -9c-75.333 0 -132.668 23 -172.001 69s-59 113.333 -59 202c0 94 19.333 165.333 58 214s95.334 73 170.001 73c126 0 189 -80 189 -240c0 -16.667 -0.5 -30.667 -1.5 -42s-2.16699 -22.333 -3.5 -33h-311
c3.33301 -58 15.833 -99.667 37.5 -125s55.167 -38 100.5 -38c22 0 46 2.5 72 7.5s53 12.167 81 21.5l5 -78c-23.333 -9.33301 -49.833 -16.833 -79.5 -22.5s-58.5 -8.5 -86.5 -8.5zM263.998 472c-75.333 0 -116.333 -56 -123 -168h223c-1.33301 60 -9.83301 103 -25.5 129
s-40.5 39 -74.5 39z" />
    <glyph glyph-name="ecircumflex" unicode="&#xea;" horiz-adv-x="492" 
d="M105 703l151 73l153 -73v-76l-152 72l-152 -72v76zM270 -9c-75.333 0 -132.668 23 -172.001 69s-59 113.333 -59 202c0 94 19.333 165.333 58 214s95.334 73 170.001 73c126 0 189 -80 189 -240c0 -16.667 -0.5 -30.667 -1.5 -42s-2.16699 -22.333 -3.5 -33h-311
c3.33301 -58 15.833 -99.667 37.5 -125s55.167 -38 100.5 -38c22 0 46 2.5 72 7.5s53 12.167 81 21.5l5 -78c-23.333 -9.33301 -49.833 -16.833 -79.5 -22.5s-58.5 -8.5 -86.5 -8.5zM263.998 472c-75.333 0 -116.333 -56 -123 -168h223c-1.33301 60 -9.83301 103 -25.5 129
s-40.5 39 -74.5 39z" />
    <glyph glyph-name="edieresis" unicode="&#xeb;" horiz-adv-x="492" 
d="M148 631c-18.667 0 -32.5 4.16797 -41.5 12.501s-13.5 22.166 -13.5 41.499s4.5 33.166 13.5 41.499s22.833 12.5 41.5 12.5c37.333 0 56 -18 56 -54c0 -19.333 -4.66699 -33.166 -14 -41.499s-23.333 -12.5 -42 -12.5zM361 631.001
c-19.333 0 -33.5 4.16797 -42.5 12.501s-13.5 22.166 -13.5 41.499s4.5 33.166 13.5 41.499s23.167 12.5 42.5 12.5c36.667 0 55 -18 55 -54c0 -19.333 -4.83301 -33.166 -14.5 -41.499s-23.167 -12.5 -40.5 -12.5zM270 -8.99805c-75.333 0 -132.668 23 -172.001 69
s-59 113.333 -59 202c0 94 19.333 165.333 58 214s95.334 73 170.001 73c126 0 189 -80 189 -240c0 -16.667 -0.5 -30.667 -1.5 -42s-2.16699 -22.333 -3.5 -33h-311c3.33301 -58 15.833 -99.667 37.5 -125s55.167 -38 100.5 -38c22 0 46 2.5 72 7.5s53 12.167 81 21.5
l5 -78c-23.333 -9.33301 -49.833 -16.833 -79.5 -22.5s-58.5 -8.5 -86.5 -8.5zM263.998 472.002c-75.333 0 -116.333 -56 -123 -168h223c-1.33301 60 -9.83301 103 -25.5 129s-40.5 39 -74.5 39z" />
    <glyph glyph-name="igrave" unicode="&#xec;" horiz-adv-x="228" 
d="M64 540h100v-540h-100v540zM80 611l-103 193h106l70 -183z" />
    <glyph glyph-name="iacute" unicode="&#xed;" horiz-adv-x="228" 
d="M80 617l70 185h104l-102 -192zM64 540h100v-540h-100v540z" />
    <glyph glyph-name="icircumflex" unicode="&#xee;" horiz-adv-x="229" 
d="M-30 703l150 73l150 -73v-76l-150 72l-150 -72v76zM65 540h100v-540h-100v540z" />
    <glyph glyph-name="idieresis" unicode="&#xef;" horiz-adv-x="229" 
d="M13 631c-18.667 0 -32.5 4.16797 -41.5 12.501s-13.5 22.166 -13.5 41.499s4.5 33.166 13.5 41.499s22.833 12.5 41.5 12.5c37.333 0 56 -18 56 -54c0 -19.333 -4.66699 -33.166 -14 -41.499s-23.333 -12.5 -42 -12.5zM221 631.001c-19.333 0 -33.5 4.16797 -42.5 12.501
s-13.5 22.166 -13.5 41.499s4.5 33.166 13.5 41.499s23.167 12.5 42.5 12.5c36.667 0 55 -18 55 -54c0 -19.333 -4.66699 -33.166 -14 -41.499s-23 -12.5 -41 -12.5zM65 540.002h100v-540h-100v540z" />
    <glyph glyph-name="eth" unicode="&#xf0;" horiz-adv-x="542" 
d="M198 686l99.001 11.999c-10.667 19.333 -22 38.166 -34 56.499s-24.667 36.166 -38 53.499h104c10.667 -15.333 21 -31.166 31 -47.499s19.667 -33.166 29 -50.499l126 16v-68l-95 -12c23.333 -54 42.166 -111.667 56.499 -173s21.5 -125.666 21.5 -192.999
c0 -95.333 -19.5 -167.5 -58.5 -216.5s-96.167 -73.5 -171.5 -73.5c-74.667 0 -131.667 23.833 -171 71.5s-59 117.167 -59 208.5s19.5 160.833 58.5 208.5s95.167 71.5 168.5 71.5c48 0 85.667 -18 113 -54c-6 23.333 -13.167 46.5 -21.5 69.5s-17.5 45.833 -27.5 68.5
l-131 -16v68zM268.001 70.999c44.667 0 77.1689 15.832 97.502 47.499s30.5 83.5 30.5 155.5c0 27.333 -2 52.833 -6 76.5s-10.833 44.334 -20.5 62.001s-22.834 31.5 -39.501 41.5s-37.334 15 -62.001 15c-45.333 0 -78 -15.333 -98 -46s-30 -81.667 -30 -153
s10 -122.333 30 -153s52.667 -46 98 -46z" />
    <glyph glyph-name="ntilde" unicode="&#xf1;" horiz-adv-x="537" 
d="M63 540l85 -0.00195312l7 -59h4c41.333 24.667 76.666 42.334 105.999 53.001s58 16 86 16c42 0 73.333 -11.667 94 -35s31 -59.666 31 -108.999v-406h-100v375c0 32 -5.5 54.667 -16.5 68s-27.833 20 -50.5 20c-21.333 0 -44.166 -4.5 -68.499 -13.5
s-49.833 -21.167 -76.5 -36.5v-413h-101v540zM95 663.998c15.333 25.333 33.668 44.833 55.001 58.5s42.333 20.5 63 20.5c14 0 27.167 -2.5 39.5 -7.5s24.166 -10.333 35.499 -16s22.833 -11 34.5 -16s24.167 -7.5 37.5 -7.5c23.333 0 46.333 13.333 69 40l29 -28
c-14.667 -27.333 -32.667 -47.833 -54 -61.5s-42.666 -20.5 -63.999 -20.5c-13.333 0 -26 2.5 -38 7.5s-24 10.333 -36 16s-24 11 -36 16s-24.333 7.5 -37 7.5c-24.667 0 -48.334 -13 -71.001 -39z" />
    <glyph glyph-name="ograve" unicode="&#xf2;" horiz-adv-x="536" 
d="M268 -10c-74.667 0 -131.667 23.833 -171 71.5s-59 117.167 -59 208.5s19.667 160.833 59 208.5s96.333 71.5 171 71.5c75.333 0 132.5 -23.833 171.5 -71.5s58.5 -117.167 58.5 -208.5s-19.5 -160.833 -58.5 -208.5s-96.167 -71.5 -171.5 -71.5zM268 71
c44.667 0 77.167 15.333 97.5 46s30.5 81.667 30.5 153s-10 122.333 -30 153s-52.667 46 -98 46s-78 -15.333 -98 -46s-30 -81.667 -30 -153s10 -122.333 30 -153s52.667 -46 98 -46zM226 611l-103 193h106l70 -183z" />
    <glyph glyph-name="oacute" unicode="&#xf3;" horiz-adv-x="536" 
d="M226 617l70 185h104l-102 -192zM268 -10c-74.667 0 -131.667 23.833 -171 71.5s-59 117.167 -59 208.5s19.667 160.833 59 208.5s96.333 71.5 171 71.5c75.333 0 132.5 -23.833 171.5 -71.5s58.5 -117.167 58.5 -208.5s-19.5 -160.833 -58.5 -208.5
s-96.167 -71.5 -171.5 -71.5zM268 71c44.667 0 77.167 15.333 97.5 46s30.5 81.667 30.5 153s-10 122.333 -30 153s-52.667 46 -98 46s-78 -15.333 -98 -46s-30 -81.667 -30 -153s10 -122.333 30 -153s52.667 -46 98 -46z" />
    <glyph glyph-name="ocircumflex" unicode="&#xf4;" horiz-adv-x="536" 
d="M115 703l151 73l153 -73v-76l-152 72l-152 -72v76zM268 -10c-74.667 0 -131.667 23.833 -171 71.5s-59 117.167 -59 208.5s19.667 160.833 59 208.5s96.333 71.5 171 71.5c75.333 0 132.5 -23.833 171.5 -71.5s58.5 -117.167 58.5 -208.5s-19.5 -160.833 -58.5 -208.5
s-96.167 -71.5 -171.5 -71.5zM268 71c44.667 0 77.167 15.333 97.5 46s30.5 81.667 30.5 153s-10 122.333 -30 153s-52.667 46 -98 46s-78 -15.333 -98 -46s-30 -81.667 -30 -153s10 -122.333 30 -153s52.667 -46 98 -46z" />
    <glyph glyph-name="otilde" unicode="&#xf5;" horiz-adv-x="536" 
d="M268 -10c-74.667 0 -131.667 23.833 -171 71.5s-59 117.167 -59 208.5s19.667 160.833 59 208.5s96.333 71.5 171 71.5c75.333 0 132.5 -23.833 171.5 -71.5s58.5 -117.167 58.5 -208.5s-19.5 -160.833 -58.5 -208.5s-96.167 -71.5 -171.5 -71.5zM268 71
c44.667 0 77.167 15.333 97.5 46s30.5 81.667 30.5 153s-10 122.333 -30 153s-52.667 46 -98 46s-78 -15.333 -98 -46s-30 -81.667 -30 -153s10 -122.333 30 -153s52.667 -46 98 -46zM85 664c15.333 25.333 33.668 44.833 55.001 58.5s42.333 20.5 63 20.5
c14 0 27.167 -2.5 39.5 -7.5s24.166 -10.333 35.499 -16s22.833 -11 34.5 -16s24.167 -7.5 37.5 -7.5c23.333 0 46.333 13.333 69 40l29 -28c-14.667 -27.333 -32.667 -47.833 -54 -61.5s-42.666 -20.5 -63.999 -20.5c-13.333 0 -26 2.5 -38 7.5s-24 10.333 -36 16
s-24 11 -36 16s-24.333 7.5 -37 7.5c-24.667 0 -48.334 -13 -71.001 -39z" />
    <glyph glyph-name="odieresis" unicode="&#xf6;" horiz-adv-x="536" 
d="M157 631c-18.667 0 -32.5 4.16797 -41.5 12.501s-13.5 22.166 -13.5 41.499s4.5 33.166 13.5 41.499s22.833 12.5 41.5 12.5c37.333 0 56 -18 56 -54c0 -19.333 -4.66699 -33.166 -14 -41.499s-23.333 -12.5 -42 -12.5zM370 631.001
c-19.333 0 -33.5 4.16797 -42.5 12.501s-13.5 22.166 -13.5 41.499s4.5 33.166 13.5 41.499s23.167 12.5 42.5 12.5c36.667 0 55 -18 55 -54c0 -19.333 -4.83301 -33.166 -14.5 -41.499s-23.167 -12.5 -40.5 -12.5zM268 -9.99805c-74.667 0 -131.667 23.833 -171 71.5
s-59 117.167 -59 208.5s19.667 160.833 59 208.5s96.333 71.5 171 71.5c75.333 0 132.5 -23.833 171.5 -71.5s58.5 -117.167 58.5 -208.5s-19.5 -160.833 -58.5 -208.5s-96.167 -71.5 -171.5 -71.5zM268 71.002c44.667 0 77.167 15.333 97.5 46s30.5 81.667 30.5 153
s-10 122.333 -30 153s-52.667 46 -98 46s-78 -15.333 -98 -46s-30 -81.667 -30 -153s10 -122.333 30 -153s52.667 -46 98 -46z" />
    <glyph glyph-name="divide" unicode="&#xf7;" horiz-adv-x="509" 
d="M257 150c-15.333 0 -27.833 4.5 -37.5 13.5s-14.5 22.167 -14.5 39.5s4.83301 30.333 14.5 39s22.167 13 37.5 13s28 -4.5 38 -13.5s15 -21.833 15 -38.5c0 -17.333 -5 -30.5 -15 -39.5s-22.667 -13.5 -38 -13.5zM51 407h408v-74h-408v74zM257 480
c-15.333 0 -27.833 4.33301 -37.5 13s-14.5 21.667 -14.5 39s4.83301 30.666 14.5 39.999s22.167 14 37.5 14s28 -4.66699 38 -14s15 -22.666 15 -39.999s-5 -30.333 -15 -39s-22.667 -13 -38 -13z" />
    <glyph glyph-name="oslash" unicode="&#xf8;" horiz-adv-x="541" 
d="M84 84c-28.667 47.333 -42.999 109.333 -42.999 186c0 91.333 19.333 160.833 58 208.5s96 71.5 172 71.5c60 0 108.667 -15.667 146 -47l30 37h74l-65 -82c29.333 -47.333 44 -110 44 -188c0 -91.333 -19.167 -160.833 -57.5 -208.5s-95.5 -71.5 -171.5 -71.5
c-62.667 0 -112.334 16 -149.001 48l-30 -38h-74zM271.001 71c46 0 78.667 15.5 98 46.5s29 81.833 29 152.5c0 42 -3.33301 76.333 -10 103l-210 -265c20 -24.667 51 -37 93 -37zM143.001 270c0 -40.667 3 -74.333 9 -101l209 263c-20 24.667 -50 37 -90 37
c-46.667 0 -79.667 -15.5 -99 -46.5s-29 -81.833 -29 -152.5z" />
    <glyph glyph-name="ugrave" unicode="&#xf9;" horiz-adv-x="536" 
d="M193 -10c-89.333 0 -134 48.002 -134 144.002v406h101v-377c0 -32 5.16699 -54.333 15.5 -67s28.166 -19 53.499 -19c22.667 0 45.334 4.5 68.001 13.5s47.667 22.167 75 39.5v410h101v-540h-85l-7 59h-4c-20.667 -12.667 -39.167 -23.334 -55.5 -32.001
s-31.5 -15.834 -45.5 -21.501s-27.667 -9.66699 -41 -12s-27.333 -3.5 -42 -3.5zM229 611.002l-103 193h106l70 -183z" />
    <glyph glyph-name="uacute" unicode="&#xfa;" horiz-adv-x="536" 
d="M228 617l70 185h104l-102 -192zM193 -10c-89.333 0 -134 48.002 -134 144.002v406h101v-377c0 -32 5.16699 -54.333 15.5 -67s28.166 -19 53.499 -19c22.667 0 45.334 4.5 68.001 13.5s47.667 22.167 75 39.5v410h101v-540h-85l-7 59h-4
c-20.667 -12.667 -39.167 -23.334 -55.5 -32.001s-31.5 -15.834 -45.5 -21.501s-27.667 -9.66699 -41 -12s-27.333 -3.5 -42 -3.5z" />
    <glyph glyph-name="ucircumflex" unicode="&#xfb;" horiz-adv-x="536" 
d="M118 703l151 73l153 -73v-76l-152 72l-152 -72v76zM193 -10c-89.333 0 -134 48.002 -134 144.002v406h101v-377c0 -32 5.16699 -54.333 15.5 -67s28.166 -19 53.499 -19c22.667 0 45.334 4.5 68.001 13.5s47.667 22.167 75 39.5v410h101v-540h-85l-7 59h-4
c-20.667 -12.667 -39.167 -23.334 -55.5 -32.001s-31.5 -15.834 -45.5 -21.501s-27.667 -9.66699 -41 -12s-27.333 -3.5 -42 -3.5z" />
    <glyph glyph-name="udieresis" unicode="&#xfc;" horiz-adv-x="536" 
d="M159 631c-18.667 0 -32.5 4.16797 -41.5 12.501s-13.5 22.166 -13.5 41.499s4.5 33.166 13.5 41.499s22.833 12.5 41.5 12.5c37.333 0 56 -18 56 -54c0 -19.333 -4.66699 -33.166 -14 -41.499s-23.333 -12.5 -42 -12.5zM372 631.001
c-19.333 0 -33.5 4.16797 -42.5 12.501s-13.5 22.166 -13.5 41.499s4.5 33.166 13.5 41.499s23.167 12.5 42.5 12.5c36.667 0 55 -18 55 -54c0 -19.333 -4.83301 -33.166 -14.5 -41.499s-23.167 -12.5 -40.5 -12.5zM193 -9.99805c-89.333 0 -134 48.002 -134 144.002v406
h101v-377c0 -32 5.16699 -54.333 15.5 -67s28.166 -19 53.499 -19c22.667 0 45.334 4.5 68.001 13.5s47.667 22.167 75 39.5v410h101v-540h-85l-7 59h-4c-20.667 -12.667 -39.167 -23.334 -55.5 -32.001s-31.5 -15.834 -45.5 -21.501s-27.667 -9.66699 -41 -12
s-27.333 -3.5 -42 -3.5z" />
    <glyph glyph-name="yacute" unicode="&#xfd;" horiz-adv-x="515" 
d="M135 -201v7l71 196l-196 529v9h104l123 -363l17 -70h6l18 70l124 363h104v-9l-272 -751zM225 617l70 185h104l-102 -192z" />
    <glyph glyph-name="thorn" unicode="&#xfe;" horiz-adv-x="539" 
d="M63 808h100.999v-321c17.333 20 38.833 35.333 64.5 46s53.834 16 84.501 16c124.667 0 187 -89 187 -267c0 -96 -21.333 -168.667 -64 -218s-105.667 -74 -189 -74c-12.667 0 -26.167 0.833008 -40.5 2.5s-28.5 3.5 -42.5 5.5v-218h-101v1028zM248.999 63
c25.333 0 47.334 3.66699 66.001 11s34 19.333 46 36s21 38.334 27 65.001s9 59 9 97c0 73.333 -9.33301 125.166 -28 155.499s-48 45.5 -88 45.5c-34.667 0 -62.834 -11.667 -84.501 -35s-32.5 -59 -32.5 -107v-257c30.667 -7.33301 59 -11 85 -11z" />
    <glyph glyph-name="ydieresis" unicode="&#xff;" horiz-adv-x="515" 
d="M135 -201v7l71 196l-196 529v9h104l123 -363l17 -70h6l18 70l124 363h104v-9l-272 -751zM155 631c-18.667 0 -32.5 4.16797 -41.5 12.501s-13.5 22.166 -13.5 41.499s4.5 33.166 13.5 41.499s22.833 12.5 41.5 12.5c37.333 0 56 -18 56 -54
c0 -19.333 -4.66699 -33.166 -14 -41.499s-23.333 -12.5 -42 -12.5zM368 631.001c-19.333 0 -33.5 4.16797 -42.5 12.501s-13.5 22.166 -13.5 41.499s4.5 33.166 13.5 41.499s23.167 12.5 42.5 12.5c36.667 0 55 -18 55 -54c0 -19.333 -4.83301 -33.166 -14.5 -41.499
s-23.167 -12.5 -40.5 -12.5z" />
    <glyph glyph-name="Amacron" unicode="&#x100;" horiz-adv-x="612" 
d="M5 7l225 733h152l225 -733v-7h-98l-67 212h-273l-66 -212h-98v7zM420 297l-76 243l-34 118h-9l-34 -118l-75 -243h228zM158 913h288v-73h-288v73z" />
    <glyph glyph-name="amacron" unicode="&#x101;" horiz-adv-x="490" 
d="M168 -5c-43.333 0 -77.165 12.832 -101.498 38.499s-36.5 61.5 -36.5 107.5c0 102.667 64.667 158.334 194 167.001l106 7v39c0 22 -1.83301 40.333 -5.5 55s-9.83398 26.5 -18.501 35.5s-20.167 15.5 -34.5 19.5s-32.166 6 -53.499 6c-18 0 -40.5 -1.5 -67.5 -4.5
s-52.167 -7.16699 -75.5 -12.5l-7 77c29.333 5.33301 58.166 9.5 86.499 12.5s55.166 4.5 80.499 4.5c67.333 0 116.833 -13.833 148.5 -41.5s47.5 -71.167 47.5 -130.5v-375h-84l-9 66h-7c-23.333 -20 -48.833 -36.833 -76.5 -50.5s-56.5 -20.5 -86.5 -20.5z
M205.001 71.999c10 0 20.667 1.66895 32 5.00195s22.5 7.66602 33.5 12.999s21.5 11.166 31.5 17.499l28 17.5v126l-81 -7c-42.667 -3.33301 -73 -12.5 -91 -27.5s-27 -37.167 -27 -66.5c0 -52 24.667 -78 74 -78zM102.001 711.001h298v-70h-298v70z" />
    <glyph glyph-name="Abreve" unicode="&#x102;" horiz-adv-x="612" 
d="M5 7l225 733h152l225 -733v-7h-98l-67 212h-273l-66 -212h-98v7zM420 297l-76 243l-34 118h-9l-34 -118l-75 -243h228zM308 808c-56 0 -98.166 13.667 -126.499 41s-42.5 65 -42.5 113h74c0 -64.667 31.667 -97 95 -97c62.667 0 94 32.333 94 97h74
c0 -47.333 -14.333 -84.833 -43 -112.5s-70.334 -41.5 -125.001 -41.5z" />
    <glyph glyph-name="abreve" unicode="&#x103;" horiz-adv-x="490" 
d="M168 -5c-43.333 0 -77.165 12.832 -101.498 38.499s-36.5 61.5 -36.5 107.5c0 102.667 64.667 158.334 194 167.001l106 7v39c0 22 -1.83301 40.333 -5.5 55s-9.83398 26.5 -18.501 35.5s-20.167 15.5 -34.5 19.5s-32.166 6 -53.499 6c-18 0 -40.5 -1.5 -67.5 -4.5
s-52.167 -7.16699 -75.5 -12.5l-7 77c29.333 5.33301 58.166 9.5 86.499 12.5s55.166 4.5 80.499 4.5c67.333 0 116.833 -13.833 148.5 -41.5s47.5 -71.167 47.5 -130.5v-375h-84l-9 66h-7c-23.333 -20 -48.833 -36.833 -76.5 -50.5s-56.5 -20.5 -86.5 -20.5z
M205.001 71.999c10 0 20.667 1.66895 32 5.00195s22.5 7.66602 33.5 12.999s21.5 11.166 31.5 17.499l28 17.5v126l-81 -7c-42.667 -3.33301 -73 -12.5 -91 -27.5s-27 -37.167 -27 -66.5c0 -52 24.667 -78 74 -78zM249.001 617.001c-55.333 0 -96.833 13.167 -124.5 39.5
s-42.167 63.166 -43.5 110.499h73c0 -60.667 31.667 -91 95 -91c62.667 0 94 30.333 94 91h74c-1.33301 -47.333 -16 -84.166 -44 -110.499s-69.333 -39.5 -124 -39.5z" />
    <glyph glyph-name="Aogonek" unicode="&#x104;" horiz-adv-x="612" 
d="M539 -220c-71.333 0 -107 30 -107 90c0 24.667 7.33301 47.5 22 68.5s38 41.5 70 61.5h-15l-67 212h-273l-66 -212h-98v7l225 733h152l225 -733v-21c-36 -15.333 -62.333 -32.5 -79 -51.5s-25 -37.833 -25 -56.5c0 -22.667 14.333 -34 43 -34c20.667 0 41 3.66699 61 11
v-63c-22 -8 -44.667 -12 -68 -12zM420 297l-76 243l-34 118h-9l-34 -118l-75 -243h228z" />
    <glyph glyph-name="aogonek" unicode="&#x105;" horiz-adv-x="490" 
d="M363 -220c-71.333 0 -106.999 30 -106.999 90c0 47.333 30.333 90.666 91 129.999l-9 66h-7c-23.333 -20 -48.833 -36.833 -76.5 -50.5s-56.5 -20.5 -86.5 -20.5c-43.333 0 -77.166 12.833 -101.499 38.5s-36.5 61.5 -36.5 107.5c0 102.667 64.667 158.334 194 167.001
l106 7v39c0 22 -1.83301 40.333 -5.5 55s-9.83398 26.5 -18.501 35.5s-20.167 15.5 -34.5 19.5s-32.166 6 -53.499 6c-18 0 -40.5 -1.5 -67.5 -4.5s-52.167 -7.16699 -75.5 -12.5l-7 77c29.333 5.33301 58.166 9.5 86.499 12.5s55.166 4.5 80.499 4.5
c67.333 0 116.833 -13.833 148.5 -41.5s47.5 -71.167 47.5 -130.5v-389c-36 -15.333 -62.333 -32.5 -79 -51.5s-25 -37.833 -25 -56.5c0 -22.667 14.333 -34 43 -34c20.667 0 41 3.66699 61 11v-63c-22 -8 -44.667 -12 -68 -12zM205.001 72c10 0 20.667 1.66895 32 5.00195
s22.5 7.66602 33.5 12.999s21.5 11.166 31.5 17.499l28 17.5v126l-81 -7c-42.667 -3.33301 -73 -12.5 -91 -27.5s-27 -37.167 -27 -66.5c0 -52 24.667 -78 74 -78z" />
    <glyph glyph-name="Cacute" unicode="&#x106;" horiz-adv-x="526" 
d="M360 -10c-108.667 0.666992 -188.832 31.499 -240.499 92.499s-77.5 156.5 -77.5 286.5c0 132 25.833 228.333 77.5 289s131.167 91 238.5 91c19.333 0 40.5 -1 63.5 -3s47.167 -5.33301 72.5 -10v-86c-21.333 4 -42.5 7 -63.5 9s-40.5 3 -58.5 3
c-40 0 -74.167 -5 -102.5 -15s-51.5 -26.5 -69.5 -49.5s-31.167 -53.167 -39.5 -90.5s-12.5 -83.333 -12.5 -138c0 -53.333 4.16699 -98.333 12.5 -135s21.5 -66.667 39.5 -90s40.833 -40.166 68.5 -50.499s60.834 -15.5 99.501 -15.5c8 0 17.333 0.333008 28 1
s21.667 1.5 33 2.5s22.666 2.16699 33.999 3.5s21.666 3 30.999 5v-83c-18 -5.33301 -38.5 -9.5 -61.5 -12.5s-47.167 -4.5 -72.5 -4.5zM268.002 796.999l72 149h105l-101 -155z" />
    <glyph glyph-name="cacute" unicode="&#x107;" horiz-adv-x="424" 
d="M204 617l70 185h104l-102 -192zM279 -10c-80.667 0 -140.837 22.833 -180.504 68.5s-59.5 116.167 -59.5 211.5c0 186.667 80 280 240 280c33.333 0 69.333 -4.66699 108 -14v-83c-17.333 4 -34.166 6.83301 -50.499 8.5s-32.166 2.5 -47.499 2.5
c-51.333 0 -88.666 -15.333 -111.999 -46s-35 -80 -35 -148s11.5 -117.5 34.5 -148.5s60.167 -46.5 111.5 -46.5c16 0 31.833 0.833008 47.5 2.5s32.834 4.83398 51.501 9.50098v-82c-14.667 -4.66699 -31.667 -8.33398 -51 -11.001s-38.333 -4 -57 -4z" />
    <glyph glyph-name="Ccircumflex" unicode="&#x108;" horiz-adv-x="526" 
d="M360 -10c-108.667 0.666992 -188.832 31.499 -240.499 92.499s-77.5 156.5 -77.5 286.5c0 132 25.833 228.333 77.5 289s131.167 91 238.5 91c19.333 0 40.5 -1 63.5 -3s47.167 -5.33301 72.5 -10v-86c-21.333 4 -42.5 7 -63.5 9s-40.5 3 -58.5 3
c-40 0 -74.167 -5 -102.5 -15s-51.5 -26.5 -69.5 -49.5s-31.167 -53.167 -39.5 -90.5s-12.5 -83.333 -12.5 -138c0 -53.333 4.16699 -98.333 12.5 -135s21.5 -66.667 39.5 -90s40.833 -40.166 68.5 -50.499s60.834 -15.5 99.501 -15.5c8 0 17.333 0.333008 28 1
s21.667 1.5 33 2.5s22.666 2.16699 33.999 3.5s21.666 3 30.999 5v-83c-18 -5.33301 -38.5 -9.5 -61.5 -12.5s-47.167 -4.5 -72.5 -4.5zM160.002 883.999l152 73l152 -73v-77l-152 73l-152 -73v77z" />
    <glyph glyph-name="ccircumflex" unicode="&#x109;" horiz-adv-x="424" 
d="M91 703l151 73l153 -73v-76l-152 72l-152 -72v76zM279 -10c-80.667 0 -140.837 22.833 -180.504 68.5s-59.5 116.167 -59.5 211.5c0 186.667 80 280 240 280c33.333 0 69.333 -4.66699 108 -14v-83c-17.333 4 -34.166 6.83301 -50.499 8.5s-32.166 2.5 -47.499 2.5
c-51.333 0 -88.666 -15.333 -111.999 -46s-35 -80 -35 -148s11.5 -117.5 34.5 -148.5s60.167 -46.5 111.5 -46.5c16 0 31.833 0.833008 47.5 2.5s32.834 4.83398 51.501 9.50098v-82c-14.667 -4.66699 -31.667 -8.33398 -51 -11.001s-38.333 -4 -57 -4z" />
    <glyph glyph-name="Cdotaccent" unicode="&#x10a;" horiz-adv-x="526" 
d="M314 803c-40.667 0 -61 19.667 -61 59c0 21.333 5 36.833 15 46.5s25.333 14.5 46 14.5c41.333 0 62 -20.333 62 -61c0 -39.333 -20.667 -59 -62 -59zM360 -10c-108.667 0.666992 -188.832 31.499 -240.499 92.499s-77.5 156.5 -77.5 286.5
c0 132 25.833 228.333 77.5 289s131.167 91 238.5 91c19.333 0 40.5 -1 63.5 -3s47.167 -5.33301 72.5 -10v-86c-21.333 4 -42.5 7 -63.5 9s-40.5 3 -58.5 3c-40 0 -74.167 -5 -102.5 -15s-51.5 -26.5 -69.5 -49.5s-31.167 -53.167 -39.5 -90.5s-12.5 -83.333 -12.5 -138
c0 -53.333 4.16699 -98.333 12.5 -135s21.5 -66.667 39.5 -90s40.833 -40.166 68.5 -50.499s60.834 -15.5 99.501 -15.5c8 0 17.333 0.333008 28 1s21.667 1.5 33 2.5s22.666 2.16699 33.999 3.5s21.666 3 30.999 5v-83c-18 -5.33301 -38.5 -9.5 -61.5 -12.5
s-47.167 -4.5 -72.5 -4.5z" />
    <glyph glyph-name="cdotaccent" unicode="&#x10b;" horiz-adv-x="424" 
d="M279 -10c-80.667 0 -140.837 22.833 -180.504 68.5s-59.5 116.167 -59.5 211.5c0 186.667 80 280 240 280c33.333 0 69.333 -4.66699 108 -14v-83c-17.333 4 -34.166 6.83301 -50.499 8.5s-32.166 2.5 -47.499 2.5c-51.333 0 -88.666 -15.333 -111.999 -46
s-35 -80 -35 -148s11.5 -117.5 34.5 -148.5s60.167 -46.5 111.5 -46.5c16 0 31.833 0.833008 47.5 2.5s32.834 4.83398 51.501 9.50098v-82c-14.667 -4.66699 -31.667 -8.33398 -51 -11.001s-38.333 -4 -57 -4zM237.997 625c-40.667 0 -61 19.999 -61 59.999
c0 21.333 5 36.666 15 45.999s25.333 14 46 14c20 0 35.333 -4.66699 46 -14s16 -24.666 16 -45.999s-5.33301 -36.666 -16 -45.999s-26 -14 -46 -14z" />
    <glyph glyph-name="Ccaron" unicode="&#x10c;" horiz-adv-x="526" 
d="M360 -10c-108.667 0.666992 -188.832 31.499 -240.499 92.499s-77.5 156.5 -77.5 286.5c0 132 25.833 228.333 77.5 289s131.167 91 238.5 91c19.333 0 40.5 -1 63.5 -3s47.167 -5.33301 72.5 -10v-86c-21.333 4 -42.5 7 -63.5 9s-40.5 3 -58.5 3
c-40 0 -74.167 -5 -102.5 -15s-51.5 -26.5 -69.5 -49.5s-31.167 -53.167 -39.5 -90.5s-12.5 -83.333 -12.5 -138c0 -53.333 4.16699 -98.333 12.5 -135s21.5 -66.667 39.5 -90s40.833 -40.166 68.5 -50.499s60.834 -15.5 99.501 -15.5c8 0 17.333 0.333008 28 1
s21.667 1.5 33 2.5s22.666 2.16699 33.999 3.5s21.666 3 30.999 5v-83c-18 -5.33301 -38.5 -9.5 -61.5 -12.5s-47.167 -4.5 -72.5 -4.5zM164.002 947.999l152 -73l152 73v-77l-152 -73l-152 73v77z" />
    <glyph glyph-name="ccaron" unicode="&#x10d;" horiz-adv-x="424" 
d="M89 779l152 -73l152 73v-77l-152 -72l-152 72v77zM279 -10c-80.667 0 -140.837 22.833 -180.504 68.5s-59.5 116.167 -59.5 211.5c0 186.667 80 280 240 280c33.333 0 69.333 -4.66699 108 -14v-83c-17.333 4 -34.166 6.83301 -50.499 8.5s-32.166 2.5 -47.499 2.5
c-51.333 0 -88.666 -15.333 -111.999 -46s-35 -80 -35 -148s11.5 -117.5 34.5 -148.5s60.167 -46.5 111.5 -46.5c16 0 31.833 0.833008 47.5 2.5s32.834 4.83398 51.501 9.50098v-82c-14.667 -4.66699 -31.667 -8.33398 -51 -11.001s-38.333 -4 -57 -4z" />
    <glyph glyph-name="Dcaron" unicode="&#x10e;" horiz-adv-x="646" 
d="M151 948l152 -73l152 73v-77l-152 -73l-152 73v77zM231 -14c-26.667 0 -53.167 0.832031 -79.5 2.49902s-52.166 4.16699 -77.499 7.5v740c37.333 4.66699 71.166 8.16699 101.499 10.5s57.5 3.5 81.5 3.5c60.667 0 112.834 -7.5 156.501 -22.5s79.667 -38 108 -69
s49.166 -70.5 62.499 -118.5s20 -105 20 -171c0 -67.333 -7 -125.166 -21 -173.499s-36.167 -88 -66.5 -119s-69 -53.833 -116 -68.5s-103.5 -22 -169.5 -22zM264 71.999c40.667 0 75.832 5.49902 105.499 16.499s54 28.5 73 52.5s33 54.833 42 92.5
s13.5 82.834 13.5 135.501c0 53.333 -4.16699 98.666 -12.5 135.999s-21.666 67.833 -39.999 91.5s-42 40.834 -71 51.501s-63.833 16 -104.5 16c-15.333 0 -31 -0.666992 -47 -2s-31.667 -3 -47 -5v-579c17.333 -2 32.833 -3.5 46.5 -4.5s27.5 -1.5 41.5 -1.5z" />
    <glyph glyph-name="dcaron" unicode="&#x10f;" horiz-adv-x="540" 
d="M534 808h83l-31 -228h-52v228zM230 -9c-64 0 -111.834 22.167 -143.501 66.5s-47.5 112.5 -47.5 204.5c0 94.667 21.5 166.167 64.5 214.5s104.167 72.5 183.5 72.5c14.667 0 28.834 -0.666992 42.501 -2s29.167 -3 46.5 -5v266h100v-808h-89l-8 58h-5
c-33.333 -44.667 -81.333 -67 -144 -67zM258.999 67c32 0 59.5 10.666 82.5 31.999s34.5 53.333 34.5 96v270c-16 3.33301 -31.333 6 -46 8s-30 3 -46 3c-48 0 -83.667 -16 -107 -48s-35 -84.333 -35 -157c0 -71.333 9.5 -123.166 28.5 -155.499s48.5 -48.5 88.5 -48.5z" />
    <glyph glyph-name="Dcroat" unicode="&#x110;" horiz-adv-x="661" 
d="M1 411l88 -0.000976562v325c37.333 4.66699 71.166 8.16699 101.499 10.5s57.5 3.5 81.5 3.5c60.667 0 112.834 -7.5 156.501 -22.5s79.667 -38 108 -69s49.166 -70.5 62.499 -118.5s20 -105 20 -171c0 -67.333 -7 -125.166 -21 -173.499s-36.167 -88 -66.5 -119
s-69 -53.833 -116 -68.5s-103.5 -22 -169.5 -22c-26.667 0 -53.167 0.833008 -79.5 2.5s-52.166 4.16699 -77.499 7.5v334h-88v81zM279 71.999c40.667 0 75.832 5.49902 105.499 16.499s54 28.5 73 52.5s33 54.833 42 92.5s13.5 82.834 13.5 135.501
c0 53.333 -4.16699 98.666 -12.5 135.999s-21.666 67.833 -39.999 91.5s-42 40.834 -71 51.501s-63.833 16 -104.5 16c-15.333 0 -31 -0.666992 -47 -2s-31.667 -3 -47 -5v-246h140v-81h-140v-252c17.333 -2 32.833 -3.5 46.5 -4.5s27.5 -1.5 41.5 -1.5z" />
    <glyph glyph-name="dcroat" unicode="&#x111;" horiz-adv-x="540" 
d="M219 704h156.999v104h100v-104h70v-62h-70v-642h-89l-8 58h-5c-33.333 -44.667 -81.333 -67 -144 -67c-64 0 -111.833 22.167 -143.5 66.5s-47.5 112.5 -47.5 204.5c0 94.667 21.5 166.167 64.5 214.5s104.167 72.5 183.5 72.5c14.667 0 28.834 -0.666992 42.501 -2
s29.167 -3 46.5 -5v100h-157v62zM258.999 67c32 0 59.5 10.666 82.5 31.999s34.5 53.333 34.5 96v270c-16 3.33301 -31.333 6 -46 8s-30 3 -46 3c-48 0 -83.667 -16 -107 -48s-35 -84.333 -35 -157c0 -71.333 9.5 -123.166 28.5 -155.499s48.5 -48.5 88.5 -48.5z" />
    <glyph glyph-name="Emacron" unicode="&#x112;" horiz-adv-x="552" 
d="M143 913h288v-73h-288v73zM74 740h432v-87h-329v-236h297v-87h-297v-243h338v-87h-441v740z" />
    <glyph glyph-name="emacron" unicode="&#x113;" horiz-adv-x="492" 
d="M270 -9c-75.333 0 -132.668 23 -172.001 69s-59 113.333 -59 202c0 94 19.333 165.333 58 214s95.334 73 170.001 73c126 0 189 -80 189 -240c0 -16.667 -0.5 -30.667 -1.5 -42s-2.16699 -22.333 -3.5 -33h-311c3.33301 -58 15.833 -99.667 37.5 -125
s55.167 -38 100.5 -38c22 0 46 2.5 72 7.5s53 12.167 81 21.5l5 -78c-23.333 -9.33301 -49.833 -16.833 -79.5 -22.5s-58.5 -8.5 -86.5 -8.5zM263.998 472c-75.333 0 -116.333 -56 -123 -168h223c-1.33301 60 -9.83301 103 -25.5 129s-40.5 39 -74.5 39zM101.998 711h298
v-70h-298v70z" />
    <glyph glyph-name="Ebreve" unicode="&#x114;" horiz-adv-x="552" 
d="M291 808c-56 0 -98.166 13.667 -126.499 41s-42.5 65 -42.5 113h74c0 -64.667 31.667 -97 95 -97c62.667 0 94 32.333 94 97h74c0 -47.333 -14.333 -84.833 -43 -112.5s-70.334 -41.5 -125.001 -41.5zM74.001 740h432v-87h-329v-236h297v-87h-297v-243h338v-87h-441v740z
" />
    <glyph glyph-name="ebreve" unicode="&#x115;" horiz-adv-x="492" 
d="M270 -9c-75.333 0 -132.668 23 -172.001 69s-59 113.333 -59 202c0 94 19.333 165.333 58 214s95.334 73 170.001 73c126 0 189 -80 189 -240c0 -16.667 -0.5 -30.667 -1.5 -42s-2.16699 -22.333 -3.5 -33h-311c3.33301 -58 15.833 -99.667 37.5 -125
s55.167 -38 100.5 -38c22 0 46 2.5 72 7.5s53 12.167 81 21.5l5 -78c-23.333 -9.33301 -49.833 -16.833 -79.5 -22.5s-58.5 -8.5 -86.5 -8.5zM263.998 472c-75.333 0 -116.333 -56 -123 -168h223c-1.33301 60 -9.83301 103 -25.5 129s-40.5 39 -74.5 39zM252.998 617
c-55.333 0 -96.833 13.167 -124.5 39.5s-42.167 63.166 -43.5 110.499h73c0 -60.667 31.667 -91 95 -91c62.667 0 94 30.333 94 91h74c-1.33301 -47.333 -16 -84.166 -44 -110.499s-69.333 -39.5 -124 -39.5z" />
    <glyph glyph-name="Edotaccent" unicode="&#x116;" horiz-adv-x="552" 
d="M290 803c-40.667 0 -61 19.667 -61 59c0 21.333 5 36.833 15 46.5s25.333 14.5 46 14.5c41.333 0 62 -20.333 62 -61c0 -39.333 -20.667 -59 -62 -59zM74 740h432v-87h-329v-236h297v-87h-297v-243h338v-87h-441v740z" />
    <glyph glyph-name="edotaccent" unicode="&#x117;" horiz-adv-x="492" 
d="M270 -9c-75.333 0 -132.668 23 -172.001 69s-59 113.333 -59 202c0 94 19.333 165.333 58 214s95.334 73 170.001 73c126 0 189 -80 189 -240c0 -16.667 -0.5 -30.667 -1.5 -42s-2.16699 -22.333 -3.5 -33h-311c3.33301 -58 15.833 -99.667 37.5 -125
s55.167 -38 100.5 -38c22 0 46 2.5 72 7.5s53 12.167 81 21.5l5 -78c-23.333 -9.33301 -49.833 -16.833 -79.5 -22.5s-58.5 -8.5 -86.5 -8.5zM263.998 472c-75.333 0 -116.333 -56 -123 -168h223c-1.33301 60 -9.83301 103 -25.5 129s-40.5 39 -74.5 39zM251.998 625
c-40.667 0 -61 19.999 -61 59.999c0 21.333 5 36.666 15 45.999s25.333 14 46 14c20 0 35.333 -4.66699 46 -14s16 -24.666 16 -45.999s-5.33301 -36.666 -16 -45.999s-26 -14 -46 -14z" />
    <glyph glyph-name="Eogonek" unicode="&#x118;" horiz-adv-x="552" 
d="M74 740h432v-87h-329v-236h297v-87h-297v-243h338v-101c-36 -15.333 -62.333 -32.5 -79 -51.5s-25 -37.833 -25 -56.5c0 -22.667 14.333 -34 43 -34c20.667 0 41 3.66699 61 11v-63c-22 -8 -44.667 -12 -68 -12c-71.333 0 -107 30 -107 90c0 24.667 7.33301 47.5 22 68.5
s38 41.5 70 61.5h-358v740z" />
    <glyph glyph-name="eogonek" unicode="&#x119;" horiz-adv-x="493" 
d="M270 -9c-75.333 0 -132.668 22.999 -172.001 68.999s-59 113.333 -59 202c0 94 19.333 165.333 58 214s95.334 73 170.001 73c126 0 189 -80 189 -240c0 -16.667 -0.5 -30.667 -1.5 -42s-2.16699 -22.333 -3.5 -33h-311c3.33301 -58 15.833 -99.667 37.5 -125
s55.167 -38 100.5 -38c22 0 46 2.5 72 7.5s53 12.167 81 21.5l4 -79v-13c-36 -15.333 -62.333 -32.5 -79 -51.5s-25 -37.833 -25 -56.5c0 -22.667 14.333 -34 43 -34c20.667 0 41 3.66699 61 11v-63c-22 -8 -44.667 -12 -68 -12c-71.333 0 -107 30 -107 90
c0 36.667 17.333 70.334 52 101.001c-7.33301 -0.666992 -14.333 -1.16699 -21 -1.5s-13.667 -0.5 -21 -0.5zM263.998 471.999c-75.333 0 -116.333 -56 -123 -168h223c-1.33301 60 -9.83301 103 -25.5 129s-40.5 39 -74.5 39z" />
    <glyph glyph-name="Ecaron" unicode="&#x11a;" horiz-adv-x="552" 
d="M143 948l152 -73l152 73v-77l-152 -73l-152 73v77zM74 740h432v-87h-329v-236h297v-87h-297v-243h338v-87h-441v740z" />
    <glyph glyph-name="ecaron" unicode="&#x11b;" horiz-adv-x="492" 
d="M102 779l152 -73l152 73v-77l-152 -72l-152 72v77zM270 -9c-75.333 0 -132.668 23 -172.001 69s-59 113.333 -59 202c0 94 19.333 165.333 58 214s95.334 73 170.001 73c126 0 189 -80 189 -240c0 -16.667 -0.5 -30.667 -1.5 -42s-2.16699 -22.333 -3.5 -33h-311
c3.33301 -58 15.833 -99.667 37.5 -125s55.167 -38 100.5 -38c22 0 46 2.5 72 7.5s53 12.167 81 21.5l5 -78c-23.333 -9.33301 -49.833 -16.833 -79.5 -22.5s-58.5 -8.5 -86.5 -8.5zM263.998 472c-75.333 0 -116.333 -56 -123 -168h223c-1.33301 60 -9.83301 103 -25.5 129
s-40.5 39 -74.5 39z" />
    <glyph glyph-name="Gcircumflex" unicode="&#x11c;" horiz-adv-x="600" 
d="M362 -10c-109.333 0.666992 -190.001 31.8301 -242.001 93.4971s-78 156.834 -78 285.501c0 130.667 27.333 226.667 82 288s139.667 92 255 92c22.667 0 48.5 -1.66699 77.5 -5s57.167 -8 84.5 -14v-86c-32 6.66699 -60.167 11.334 -84.5 14.001s-47.166 4 -68.499 4
c-43.333 0 -80.333 -5.33301 -111 -16s-55.5 -27.667 -74.5 -51s-32.833 -53.5 -41.5 -90.5s-13 -82.167 -13 -135.5c0 -52 4.16699 -96.5 12.5 -133.5s21.5 -67.167 39.5 -90.5s41 -40.333 69 -51s61.667 -16 101 -16c10.667 0 23 0.5 37 1.5s28.667 2.5 44 4.5v292h95
v-365c-36 -7.33301 -69 -12.666 -99 -15.999s-58.333 -5 -85 -5zM189.999 883.996l152 73l152 -73v-77l-152 73l-152 -73v77z" />
    <glyph glyph-name="gcircumflex" unicode="&#x11d;" horiz-adv-x="539" 
d="M135 703l151 73l153 -73v-76l-152 72l-152 -72v76zM236 -220c-54.667 0 -106.998 7.67188 -156.998 23.0049l8 79c49.333 -15.333 95.666 -23 138.999 -23c50.667 0 88.667 13.667 114 41s38.666 74.333 39.999 141v29h-5c-33.333 -44.667 -81 -67 -143 -67
c-64.667 0 -113 21.167 -145 63.5s-48 108.166 -48 197.499c0 93.333 21.667 164.166 65 212.499s104.333 72.5 183 72.5c30 0 59.833 -2 89.5 -6s63.167 -11.333 100.5 -22v-458c0 -50.667 -5.5 -93.834 -16.5 -129.501s-26.667 -64.834 -47 -87.501
s-45.5 -39.334 -75.5 -50.001s-64 -16 -102 -16zM259.002 77.0049c32 0 59.5 10.5 82.5 31.5s34.5 51.5 34.5 91.5v265c-16 3.33301 -31.333 6 -46 8s-29.667 3 -45 3c-48.667 0 -84.667 -15.833 -108 -47.5s-35 -83.5 -35 -155.5c0 -68.667 9.5 -118.5 28.5 -149.5
s48.5 -46.5 88.5 -46.5z" />
    <glyph glyph-name="Gbreve" unicode="&#x11e;" horiz-adv-x="600" 
d="M345 808c-56 0 -98.166 13.667 -126.499 41s-42.5 65 -42.5 113h74c0 -64.667 31.667 -97 95 -97c62.667 0 94 32.333 94 97h74c0 -47.333 -14.333 -84.833 -43 -112.5s-70.334 -41.5 -125.001 -41.5zM362.001 -10c-109.333 0.666992 -190.001 31.8301 -242.001 93.4971
s-78 156.834 -78 285.501c0 130.667 27.333 226.667 82 288s139.667 92 255 92c22.667 0 48.5 -1.66699 77.5 -5s57.167 -8 84.5 -14v-86c-32 6.66699 -60.167 11.334 -84.5 14.001s-47.166 4 -68.499 4c-43.333 0 -80.333 -5.33301 -111 -16s-55.5 -27.667 -74.5 -51
s-32.833 -53.5 -41.5 -90.5s-13 -82.167 -13 -135.5c0 -52 4.16699 -96.5 12.5 -133.5s21.5 -67.167 39.5 -90.5s41 -40.333 69 -51s61.667 -16 101 -16c10.667 0 23 0.5 37 1.5s28.667 2.5 44 4.5v292h95v-365c-36 -7.33301 -69 -12.666 -99 -15.999s-58.333 -5 -85 -5z
" />
    <glyph glyph-name="gbreve" unicode="&#x11f;" horiz-adv-x="539" 
d="M236 -220c-54.667 0 -106.998 7.67188 -156.998 23.0049l8 79c49.333 -15.333 95.666 -23 138.999 -23c50.667 0 88.667 13.667 114 41s38.666 74.333 39.999 141v29h-5c-33.333 -44.667 -81 -67 -143 -67c-64.667 0 -113 21.167 -145 63.5s-48 108.166 -48 197.499
c0 93.333 21.667 164.166 65 212.499s104.333 72.5 183 72.5c30 0 59.833 -2 89.5 -6s63.167 -11.333 100.5 -22v-458c0 -50.667 -5.5 -93.834 -16.5 -129.501s-26.667 -64.834 -47 -87.501s-45.5 -39.334 -75.5 -50.001s-64 -16 -102 -16zM259.002 77.0049
c32 0 59.5 10.5 82.5 31.5s34.5 51.5 34.5 91.5v265c-16 3.33301 -31.333 6 -46 8s-29.667 3 -45 3c-48.667 0 -84.667 -15.833 -108 -47.5s-35 -83.5 -35 -155.5c0 -68.667 9.5 -118.5 28.5 -149.5s48.5 -46.5 88.5 -46.5zM281.002 617.005
c-55.333 0 -96.833 13.167 -124.5 39.5s-42.167 63.166 -43.5 110.499h73c0 -60.667 31.667 -91 95 -91c62.667 0 94 30.333 94 91h74c-1.33301 -47.333 -16 -84.166 -44 -110.499s-69.333 -39.5 -124 -39.5z" />
    <glyph glyph-name="Gdotaccent" unicode="&#x120;" horiz-adv-x="600" 
d="M343 803c-40.667 0 -61 19.667 -61 59c0 21.333 5 36.833 15 46.5s25.333 14.5 46 14.5c41.333 0 62 -20.333 62 -61c0 -39.333 -20.667 -59 -62 -59zM362 -10c-109.333 0.666992 -190.001 31.8301 -242.001 93.4971s-78 156.834 -78 285.501
c0 130.667 27.333 226.667 82 288s139.667 92 255 92c22.667 0 48.5 -1.66699 77.5 -5s57.167 -8 84.5 -14v-86c-32 6.66699 -60.167 11.334 -84.5 14.001s-47.166 4 -68.499 4c-43.333 0 -80.333 -5.33301 -111 -16s-55.5 -27.667 -74.5 -51s-32.833 -53.5 -41.5 -90.5
s-13 -82.167 -13 -135.5c0 -52 4.16699 -96.5 12.5 -133.5s21.5 -67.167 39.5 -90.5s41 -40.333 69 -51s61.667 -16 101 -16c10.667 0 23 0.5 37 1.5s28.667 2.5 44 4.5v292h95v-365c-36 -7.33301 -69 -12.666 -99 -15.999s-58.333 -5 -85 -5z" />
    <glyph glyph-name="gdotaccent" unicode="&#x121;" horiz-adv-x="539" 
d="M236 -220c-54.667 0 -106.998 7.67188 -156.998 23.0049l8 79c49.333 -15.333 95.666 -23 138.999 -23c50.667 0 88.667 13.667 114 41s38.666 74.333 39.999 141v29h-5c-33.333 -44.667 -81 -67 -143 -67c-64.667 0 -113 21.167 -145 63.5s-48 108.166 -48 197.499
c0 93.333 21.667 164.166 65 212.499s104.333 72.5 183 72.5c30 0 59.833 -2 89.5 -6s63.167 -11.333 100.5 -22v-458c0 -50.667 -5.5 -93.834 -16.5 -129.501s-26.667 -64.834 -47 -87.501s-45.5 -39.334 -75.5 -50.001s-64 -16 -102 -16zM259.002 77.0049
c32 0 59.5 10.5 82.5 31.5s34.5 51.5 34.5 91.5v265c-16 3.33301 -31.333 6 -46 8s-29.667 3 -45 3c-48.667 0 -84.667 -15.833 -108 -47.5s-35 -83.5 -35 -155.5c0 -68.667 9.5 -118.5 28.5 -149.5s48.5 -46.5 88.5 -46.5zM282.002 625.005
c-40.667 0 -61 19.999 -61 59.999c0 21.333 5 36.666 15 45.999s25.333 14 46 14c20 0 35.333 -4.66699 46 -14s16 -24.666 16 -45.999s-5.33301 -36.666 -16 -45.999s-26 -14 -46 -14z" />
    <glyph glyph-name="Gcommaaccent" unicode="&#x122;" horiz-adv-x="600" 
d="M301 -68h104l-71 -152h-80zM362 -10c-109.333 0.666992 -190.001 31.8301 -242.001 93.4971s-78 156.834 -78 285.501c0 130.667 27.333 226.667 82 288s139.667 92 255 92c22.667 0 48.5 -1.66699 77.5 -5s57.167 -8 84.5 -14v-86
c-32 6.66699 -60.167 11.334 -84.5 14.001s-47.166 4 -68.499 4c-43.333 0 -80.333 -5.33301 -111 -16s-55.5 -27.667 -74.5 -51s-32.833 -53.5 -41.5 -90.5s-13 -82.167 -13 -135.5c0 -52 4.16699 -96.5 12.5 -133.5s21.5 -67.167 39.5 -90.5s41 -40.333 69 -51
s61.667 -16 101 -16c10.667 0 23 0.5 37 1.5s28.667 2.5 44 4.5v292h95v-365c-36 -7.33301 -69 -12.666 -99 -15.999s-58.333 -5 -85 -5z" />
    <glyph glyph-name="gcommaaccent" unicode="&#x123;" horiz-adv-x="539" 
d="M408 796l-46 -150h-102l71 150h77zM236 -220c-54.667 0 -106.998 7.67188 -156.998 23.0049l8 79c49.333 -15.333 95.666 -23 138.999 -23c50.667 0 88.667 13.667 114 41s38.666 74.333 39.999 141v29h-5c-33.333 -44.667 -81 -67 -143 -67
c-64.667 0 -113 21.167 -145 63.5s-48 108.166 -48 197.499c0 93.333 21.667 164.166 65 212.499s104.333 72.5 183 72.5c30 0 59.833 -2 89.5 -6s63.167 -11.333 100.5 -22v-458c0 -50.667 -5.5 -93.834 -16.5 -129.501s-26.667 -64.834 -47 -87.501
s-45.5 -39.334 -75.5 -50.001s-64 -16 -102 -16zM259.002 77.0049c32 0 59.5 10.5 82.5 31.5s34.5 51.5 34.5 91.5v265c-16 3.33301 -31.333 6 -46 8s-29.667 3 -45 3c-48.667 0 -84.667 -15.833 -108 -47.5s-35 -83.5 -35 -155.5c0 -68.667 9.5 -118.5 28.5 -149.5
s48.5 -46.5 88.5 -46.5z" />
    <glyph glyph-name="Hcircumflex" unicode="&#x124;" horiz-adv-x="685" 
d="M74 740h103v-318h331v318h103v-740h-103v335h-331v-335h-103v740zM183 884l152 73l152 -73v-77l-152 73l-152 -73v77z" />
    <glyph glyph-name="hcircumflex" unicode="&#x125;" horiz-adv-x="537" 
d="M131 899l151 73l153 -73v-76l-152 72l-152 -72v76zM63 808l101 -0.000976562v-325c40 23.333 74.167 40.333 102.5 51s56.166 16 83.499 16c42.667 0 74.334 -11.667 95.001 -35s31 -59.666 31 -108.999v-406h-100v375c0 31.333 -5.33301 53.833 -16 67.5
s-27.667 20.5 -51 20.5c-20 0 -42.333 -4.33301 -67 -13s-50.667 -21 -78 -37v-413h-101v808z" />
    <glyph glyph-name="Hbar" unicode="&#x126;" horiz-adv-x="711" 
d="M2 598h85v142h103v-142h331v142h103v-142h88v-54h-88v-544h-103v335h-331v-335h-103v544h-85v54zM521 422v122h-331v-122h331z" />
    <glyph glyph-name="hbar" unicode="&#x127;" horiz-adv-x="537" 
d="M-23 704l86 -0.000976562v104h101v-104h141v-62h-141v-159c40 23.333 74.167 40.333 102.5 51s56.166 16 83.499 16c42.667 0 74.334 -11.667 95.001 -35s31 -59.666 31 -108.999v-406h-100v375c0 31.333 -5.33301 53.833 -16 67.5s-27.667 20.5 -51 20.5
c-20 0 -42.333 -4.33301 -67 -13s-50.667 -21 -78 -37v-413h-101v642h-86v62z" />
    <glyph glyph-name="Itilde" unicode="&#x128;" horiz-adv-x="251" 
d="M74 740h103v-740h-103v740zM-48 849c16 26 34.4971 46.498 55.4971 61.498s41.833 22.5 62.5 22.5c14 0 27.167 -2.16699 39.5 -6.5s24.5 -9.16602 36.5 -14.499s23.833 -10.166 35.5 -14.499s23.834 -6.5 36.501 -6.5c25.333 0 49.333 13.333 72 40l25 -24
c-14 -28 -31.667 -49.167 -53 -63.5s-42.666 -21.5 -63.999 -21.5c-13.333 0 -26.166 2 -38.499 6s-24.5 8.5 -36.5 13.5s-23.833 9.66699 -35.5 14s-23.834 6.5 -36.501 6.5c-25.333 0 -50.666 -12.667 -75.999 -38z" />
    <glyph glyph-name="itilde" unicode="&#x129;" horiz-adv-x="229" 
d="M-60 664c15.333 25.333 33.3311 44.833 53.998 58.5s41.334 20.5 62.001 20.5c14 0 27 -2.5 39 -7.5s23.833 -10.333 35.5 -16s23.334 -11 35.001 -16s23.834 -7.5 36.501 -7.5c22.667 0 45.334 13.333 68.001 40l28 -28c-14 -27.333 -31.5 -47.833 -52.5 -61.5
s-42.167 -20.5 -63.5 -20.5c-13.333 0 -26 2.5 -38 7.5s-23.833 10.333 -35.5 16s-23.334 11 -35.001 16s-23.834 7.5 -36.501 7.5c-24 0 -47.333 -13 -70 -39zM64.998 540h100v-540h-100v540z" />
    <glyph glyph-name="Imacron" unicode="&#x12a;" horiz-adv-x="251" 
d="M74 740h103v-740h-103v740zM-20 913h288v-73h-288v73z" />
    <glyph glyph-name="imacron" unicode="&#x12b;" horiz-adv-x="229" 
d="M65 540h100v-540h-100v540zM-31 711h298v-70h-298v70z" />
    <glyph glyph-name="Ibreve" unicode="&#x12c;" horiz-adv-x="251" 
d="M74 740h103v-740h-103v740zM128 808c-56 0 -98.166 13.667 -126.499 41s-42.5 65 -42.5 113h74c0 -64.667 31.667 -97 95 -97c62.667 0 94 32.333 94 97h74c0 -47.333 -14.333 -84.833 -43 -112.5s-70.334 -41.5 -125.001 -41.5z" />
    <glyph glyph-name="ibreve" unicode="&#x12d;" horiz-adv-x="229" 
d="M117 617c-52 0 -91.5 13.167 -118.5 39.5s-41.167 63.166 -42.5 110.499h70c0 -60.667 30.333 -91 91 -91s91 30.333 91 91h70c-1.33301 -47.333 -15.5 -84.166 -42.5 -110.499s-66.5 -39.5 -118.5 -39.5zM65 540h100v-540h-100v540z" />
    <glyph glyph-name="Iogonek" unicode="&#x12e;" horiz-adv-x="251" 
d="M74 740h103v-754c-36 -15.333 -62.333 -32.5 -79 -51.5s-25 -37.833 -25 -56.5c0 -22.667 14.333 -34 43 -34c20.667 0 41 3.66699 61 11v-63c-22 -8 -44.667 -12 -68 -12c-71.333 0 -107 30 -107 90c0 24.667 7.33301 47.5 22 68.5s38 41.5 70 61.5h-20v740z" />
    <glyph glyph-name="iogonek" unicode="&#x12f;" horiz-adv-x="228" 
d="M64 540h100v-554c-36 -15.333 -62.333 -32.5 -79 -51.5s-25 -37.833 -25 -56.5c0 -22.667 14.333 -34 43 -34c20.667 0 41 3.66699 61 11v-63c-22 -8 -44.667 -12 -68 -12c-71.333 0 -107 30 -107 90c0 24.667 7.33301 47.5 22 68.5s38 41.5 70 61.5h-17v540zM114 647
c-40.667 0 -61 20 -61 60c0 39.333 20.333 59 61 59s61 -19.667 61 -59c0 -40 -20.333 -60 -61 -60z" />
    <glyph glyph-name="Idotaccent" unicode="&#x130;" horiz-adv-x="251" 
d="M74 740h103v-740h-103v740zM127 803c-40.667 0 -61 19.667 -61 59c0 21.333 5 36.833 15 46.5s25.333 14.5 46 14.5c41.333 0 62 -20.333 62 -61c0 -39.333 -20.667 -59 -62 -59z" />
    <glyph glyph-name="dotlessi" unicode="&#x131;" horiz-adv-x="228" 
d="M64 540h100v-540h-100v540z" />
    <glyph glyph-name="IJ" unicode="&#x132;" horiz-adv-x="501" 
d="M74 740h103v-740h-103v740zM247 -159c16 34 29.167 64.834 39.5 92.501s18.5 54.667 24.5 81s10.167 53.166 12.5 80.499s3.5 58 3.5 92v553h103v-560c0 -32.667 -2.16699 -64 -6.5 -94s-11 -59.667 -20 -89s-21 -59.5 -36 -90.5s-32.833 -63.833 -53.5 -98.5z" />
    <glyph glyph-name="ij" unicode="&#x133;" horiz-adv-x="454" 
d="M114 647c-40.667 0 -61 20 -61 60c0 39.333 20.333 59 61 59s61 -19.667 61 -59c0 -40 -20.333 -60 -61 -60zM64 540h100v-540h-100v540zM341 647c-40.667 0 -61 20 -61 60c0 39.333 20.333 59 61 59s61 -19.667 61 -59c0 -40 -20.333 -60 -61 -60zM230 -196
c21.333 44.667 37 92.5 47 143.5s15 108.167 15 171.5v32.5v75.5v97.5v99c0 31 -0.166992 57.333 -0.5 79s-0.5 34.167 -0.5 37.5h101v-456c-0.666992 -52 -9.16699 -104.667 -25.5 -158s-38.5 -102 -66.5 -146z" />
    <glyph glyph-name="Jcircumflex" unicode="&#x134;" horiz-adv-x="250" 
d="M-4 -159c16 34 29.167 64.834 39.5 92.501s18.5 54.667 24.5 81s10.167 53.166 12.5 80.499s3.5 58 3.5 92v553h103v-560c0 -32.667 -2.16699 -64 -6.5 -94s-11 -59.667 -20 -89s-21 -59.5 -36 -90.5s-32.833 -63.833 -53.5 -98.5zM-25 884.001l152 73l152 -73v-77
l-152 73l-152 -73v77z" />
    <glyph glyph-name="jcircumflex" unicode="&#x135;" horiz-adv-x="226" 
d="M-37 704l150 73l150 -73v-76l-150 72l-150 -72v76zM0 -200c11.333 26 21.168 51.3311 29.501 75.998s15.166 50.334 20.499 77.001s9.16602 55.334 11.499 86.001s3.5 65 3.5 103v33c0 17.333 -0.166992 38.333 -0.5 63s-0.5 51.667 -0.5 81s-0.166992 58 -0.5 86
s-0.666016 54 -0.999023 78s-0.5 43 -0.5 57h101v-457c-4 -108 -34 -209 -90 -303z" />
    <glyph glyph-name="Kcommaaccent" unicode="&#x136;" horiz-adv-x="613" 
d="M265 -68h104l-71 -152h-80zM74 740h103v-320h98l202 320h117l-213 -332l-37 -26v-6l39 -25l230 -351h-116l-219 333h-101v-333h-103v740z" />
    <glyph glyph-name="kcommaaccent" unicode="&#x137;" horiz-adv-x="500" 
d="M227 -68h104l-71 -152h-80zM63 808h101v-493h67l146 225h111l-172 -253l-18 -8v-3l19 -10l188 -266h-111l-165 241h-65v-241h-101v808z" />
    <glyph glyph-name="kgreenlandic" unicode="&#x138;" horiz-adv-x="498" 
d="M63 540h101v-225h81l128 225h111l-154 -253l-18 -8v-3l19 -9l169 -267h-111l-145 241h-80v-241h-101v540z" />
    <glyph glyph-name="Lacute" unicode="&#x139;" horiz-adv-x="463" 
d="M92 797l72 149h105l-101 -155zM74 740h103v-653h273v-87h-376v740z" />
    <glyph glyph-name="lacute" unicode="&#x13a;" horiz-adv-x="230" 
d="M79 845l70 185h104l-102 -192zM64 808h101v-808h-101v808z" />
    <glyph glyph-name="Lcommaaccent" unicode="&#x13b;" horiz-adv-x="463" 
d="M217 -68h104l-71 -152h-80zM74 740h103v-653h273v-87h-376v740z" />
    <glyph glyph-name="lcommaaccent" unicode="&#x13c;" horiz-adv-x="230" 
d="M72 -68h104l-71 -152h-80zM64 808h101v-808h-101v808z" />
    <glyph glyph-name="Lcaron" unicode="&#x13d;" horiz-adv-x="480" 
d="M359 767h83l-31 -228h-52v228zM74 740h103v-653h273v-87h-376v740z" />
    <glyph glyph-name="lcaron" unicode="&#x13e;" horiz-adv-x="230" 
d="M223 808h83l-31 -228h-52v228zM64 808h101v-808h-101v808z" />
    <glyph glyph-name="Ldot" unicode="&#x13f;" horiz-adv-x="473" 
d="M74 740h103v-653h273v-87h-376v740zM368 313c-20.667 0 -36 4.66699 -46 14s-15 24.666 -15 45.999s5 36.833 15 46.5s25.333 14.5 46 14.5c40.667 0 61 -20.333 61 -61c0 -21.333 -5.16699 -36.666 -15.5 -45.999s-25.5 -14 -45.5 -14z" />
    <glyph glyph-name="ldot" unicode="&#x140;" horiz-adv-x="326" 
d="M64 808h101v-808h-101v808zM278 310c-20.667 0 -36 4.66699 -46 14s-15 24.666 -15 45.999s5 36.833 15 46.5s25.333 14.5 46 14.5c40.667 0 61 -20.333 61 -61c0 -21.333 -5.16699 -36.666 -15.5 -45.999s-25.5 -14 -45.5 -14z" />
    <glyph glyph-name="Lslash" unicode="&#x141;" horiz-adv-x="484" 
d="M12 308l83 57v375h103v-304l117 81v-85l-117 -81v-264h273v-87h-376v280l-83 -57v85z" />
    <glyph glyph-name="lslash" unicode="&#x142;" horiz-adv-x="322" 
d="M20 320l87 60v428h101v-359l98 68v-78l-98 -68v-371h-101v302l-87 -60v78z" />
    <glyph glyph-name="Nacute" unicode="&#x143;" horiz-adv-x="703" 
d="M304 797l72 149h105l-101 -155zM74 740h90l318 -485l47 -83h7v568h93v-740h-90l-317 483l-48 86l-8 -1v-568h-92v740z" />
    <glyph glyph-name="nacute" unicode="&#x144;" horiz-adv-x="537" 
d="M238 617l70 185h104l-102 -192zM63 540l85 -0.00195312l7 -59h4c41.333 24.667 76.666 42.334 105.999 53.001s58 16 86 16c42 0 73.333 -11.667 94 -35s31 -59.666 31 -108.999v-406h-100v375c0 32 -5.5 54.667 -16.5 68s-27.833 20 -50.5 20
c-21.333 0 -44.166 -4.5 -68.499 -13.5s-49.833 -21.167 -76.5 -36.5v-413h-101v540z" />
    <glyph glyph-name="Ncommaaccent" unicode="&#x145;" horiz-adv-x="703" 
d="M321 -68h104l-71 -152h-80zM74 740h90l318 -485l47 -83h7v568h93v-740h-90l-317 483l-48 86l-8 -1v-568h-92v740z" />
    <glyph glyph-name="ncommaaccent" unicode="&#x146;" horiz-adv-x="537" 
d="M227 -68h104l-71 -152h-80zM63 540l85 -0.00195312l7 -59h4c41.333 24.667 76.666 42.334 105.999 53.001s58 16 86 16c42 0 73.333 -11.667 94 -35s31 -59.666 31 -108.999v-406h-100v375c0 32 -5.5 54.667 -16.5 68s-27.833 20 -50.5 20
c-21.333 0 -44.166 -4.5 -68.499 -13.5s-49.833 -21.167 -76.5 -36.5v-413h-101v540z" />
    <glyph glyph-name="Ncaron" unicode="&#x147;" horiz-adv-x="703" 
d="M203 948l152 -73l152 73v-77l-152 -73l-152 73v77zM74 740h90l318 -485l47 -83h7v568h93v-740h-90l-317 483l-48 86l-8 -1v-568h-92v740z" />
    <glyph glyph-name="ncaron" unicode="&#x148;" horiz-adv-x="537" 
d="M123 779l152 -73l152 73v-77l-152 -72l-152 72v77zM63 540l85 -0.00195312l7 -59h4c41.333 24.667 76.666 42.334 105.999 53.001s58 16 86 16c42 0 73.333 -11.667 94 -35s31 -59.666 31 -108.999v-406h-100v375c0 32 -5.5 54.667 -16.5 68s-27.833 20 -50.5 20
c-21.333 0 -44.166 -4.5 -68.499 -13.5s-49.833 -21.167 -76.5 -36.5v-413h-101v540z" />
    <glyph glyph-name="napostrophe" unicode="&#x149;" horiz-adv-x="603" 
d="M112 808v-4l-34 -224h-49v228h83zM129 540l85 -0.00195312l7 -59h4c41.333 24.667 76.666 42.334 105.999 53.001s58 16 86 16c42 0 73.333 -11.667 94 -35s31 -59.666 31 -108.999v-406h-100v375c0 32 -5.5 54.667 -16.5 68s-27.833 20 -50.5 20
c-21.333 0 -44.166 -4.5 -68.499 -13.5s-49.833 -21.167 -76.5 -36.5v-413h-101v540z" />
    <glyph glyph-name="Eng" unicode="&#x14a;" horiz-adv-x="702" 
d="M455 -170c15.333 34.667 28.667 69 40 103s19.666 66 24.999 96l-297 455l-49 87l-7 -1v-570h-93v740h88l319 -486l48 -84h6v570h94v-655c0 -17.333 -2.66699 -37.333 -8 -60s-12.666 -46.5 -21.999 -71.5s-20.333 -50 -33 -75s-26 -48.5 -40 -70.5z" />
    <glyph glyph-name="eng" unicode="&#x14b;" horiz-adv-x="536" 
d="M318 -201c17.333 43.333 31.333 91.498 42 144.498s16 104.167 16 153.5v272c0 32.667 -5.33301 55.834 -16 69.501s-27.667 20.5 -51 20.5c-42 0 -90.333 -16 -145 -48v-411h-101v540h85l7 -59h4c41.333 24.667 76.666 42.334 105.999 53.001s58 16 86 16
c83.333 0 125 -48 125 -144v-325c0 -24 -2.16699 -49.667 -6.5 -77s-10.166 -54.333 -17.499 -81s-15.833 -52.167 -25.5 -76.5s-20.167 -45.5 -31.5 -63.5z" />
    <glyph glyph-name="Omacron" unicode="&#x14c;" horiz-adv-x="671" 
d="M187 913h288v-73h-288v73zM335 -10c-195.333 0 -293 126.333 -293 379c0 254 97.667 381 293 381c97.333 0 170.666 -31.5 219.999 -94.5s74 -158.5 74 -286.5c0 -126.667 -24.667 -221.5 -74 -284.5s-122.666 -94.5 -219.999 -94.5zM335 77
c32.667 0 61.001 5.5 85.001 16.5s43.667 28.333 59 52s26.666 54 33.999 91s11 81.167 11 132.5c0 103.333 -15 178.166 -45 224.499s-78 69.5 -144 69.5c-65.333 0 -113 -23.167 -143 -69.5s-45 -121.166 -45 -224.499c0 -51.333 3.66699 -95.5 11 -132.5
s18.666 -67.333 33.999 -91s34.833 -41 58.5 -52s51.834 -16.5 84.501 -16.5z" />
    <glyph glyph-name="omacron" unicode="&#x14d;" horiz-adv-x="536" 
d="M116 711h298v-70h-298v70zM268 -10c-74.667 0 -131.667 23.833 -171 71.5s-59 117.167 -59 208.5s19.667 160.833 59 208.5s96.333 71.5 171 71.5c75.333 0 132.5 -23.833 171.5 -71.5s58.5 -117.167 58.5 -208.5s-19.5 -160.833 -58.5 -208.5
s-96.167 -71.5 -171.5 -71.5zM268 71c44.667 0 77.167 15.333 97.5 46s30.5 81.667 30.5 153s-10 122.333 -30 153s-52.667 46 -98 46s-78 -15.333 -98 -46s-30 -81.667 -30 -153s10 -122.333 30 -153s52.667 -46 98 -46z" />
    <glyph glyph-name="Obreve" unicode="&#x14e;" horiz-adv-x="671" 
d="M336 808c-56 0 -98.166 13.667 -126.499 41s-42.5 65 -42.5 113h74c0 -64.667 31.667 -97 95 -97c62.667 0 94 32.333 94 97h74c0 -47.333 -14.333 -84.833 -43 -112.5s-70.334 -41.5 -125.001 -41.5zM335.001 -10c-195.333 0 -293 126.333 -293 379
c0 254 97.667 381 293 381c97.333 0 170.666 -31.5 219.999 -94.5s74 -158.5 74 -286.5c0 -126.667 -24.667 -221.5 -74 -284.5s-122.666 -94.5 -219.999 -94.5zM335.001 77c32.667 0 61.001 5.5 85.001 16.5s43.667 28.333 59 52s26.666 54 33.999 91s11 81.167 11 132.5
c0 103.333 -15 178.166 -45 224.499s-78 69.5 -144 69.5c-65.333 0 -113 -23.167 -143 -69.5s-45 -121.166 -45 -224.499c0 -51.333 3.66699 -95.5 11 -132.5s18.666 -67.333 33.999 -91s34.833 -41 58.5 -52s51.834 -16.5 84.501 -16.5z" />
    <glyph glyph-name="obreve" unicode="&#x14f;" horiz-adv-x="536" 
d="M268 -10c-74.667 0 -131.667 23.833 -171 71.5s-59 117.167 -59 208.5s19.667 160.833 59 208.5s96.333 71.5 171 71.5c75.333 0 132.5 -23.833 171.5 -71.5s58.5 -117.167 58.5 -208.5s-19.5 -160.833 -58.5 -208.5s-96.167 -71.5 -171.5 -71.5zM268 71
c44.667 0 77.167 15.333 97.5 46s30.5 81.667 30.5 153s-10 122.333 -30 153s-52.667 46 -98 46s-78 -15.333 -98 -46s-30 -81.667 -30 -153s10 -122.333 30 -153s52.667 -46 98 -46zM264 617c-55.333 0 -96.833 13.167 -124.5 39.5s-42.167 63.166 -43.5 110.499h73
c0 -60.667 31.667 -91 95 -91c62.667 0 94 30.333 94 91h74c-1.33301 -47.333 -16 -84.166 -44 -110.499s-69.333 -39.5 -124 -39.5z" />
    <glyph glyph-name="Ohungarumlaut" unicode="&#x150;" horiz-adv-x="671" 
d="M335 -10c-195.333 0 -293 126.333 -293 379c0 254 97.667 381 293 381c97.333 0 170.666 -31.5 219.999 -94.5s74 -158.5 74 -286.5c0 -126.667 -24.667 -221.5 -74 -284.5s-122.666 -94.5 -219.999 -94.5zM335 77c32.667 0 61.001 5.5 85.001 16.5s43.667 28.333 59 52
s26.666 54 33.999 91s11 81.167 11 132.5c0 103.333 -15 178.166 -45 224.499s-78 69.5 -144 69.5c-65.333 0 -113 -23.167 -143 -69.5s-45 -121.166 -45 -224.499c0 -51.333 3.66699 -95.5 11 -132.5s18.666 -67.333 33.999 -91s34.833 -41 58.5 -52
s51.834 -16.5 84.501 -16.5zM208.001 802l73 143h93l-102 -155zM369.001 802l72 143h94l-101 -155z" />
    <glyph glyph-name="ohungarumlaut" unicode="&#x151;" horiz-adv-x="536" 
d="M139 621l71 183h95l-103 -193zM313 621l71 183h94l-102 -193zM268 -10c-74.667 0 -131.667 23.833 -171 71.5s-59 117.167 -59 208.5s19.667 160.833 59 208.5s96.333 71.5 171 71.5c75.333 0 132.5 -23.833 171.5 -71.5s58.5 -117.167 58.5 -208.5
s-19.5 -160.833 -58.5 -208.5s-96.167 -71.5 -171.5 -71.5zM268 71c44.667 0 77.167 15.333 97.5 46s30.5 81.667 30.5 153s-10 122.333 -30 153s-52.667 46 -98 46s-78 -15.333 -98 -46s-30 -81.667 -30 -153s10 -122.333 30 -153s52.667 -46 98 -46z" />
    <glyph glyph-name="OE" unicode="&#x152;" horiz-adv-x="889" 
d="M342 -6c-98 0 -172.499 31.168 -223.499 93.501s-76.5 156.166 -76.5 281.499c0 126 25.667 220.333 77 283s125.666 94 222.999 94c16.667 0 33.667 -0.5 51 -1.5s32.666 -2.5 45.999 -4.5h400v-87h-299v-235h275v-84h-275v-247h308v-87h-409
c-13.333 -2 -28.666 -3.5 -45.999 -4.5s-34.333 -1.5 -51 -1.5zM350.001 81.001c14 0 28.8301 0.499023 44.4971 1.49902s29.834 2.5 42.501 4.5v565c-13.333 2.66699 -27.666 4.5 -42.999 5.5s-30.333 1.5 -45 1.5c-72 0 -123.833 -23 -155.5 -69
s-47.5 -119.667 -47.5 -221c0 -51.333 3.83301 -95.166 11.5 -131.499s19.667 -66 36 -89s37.333 -40 63 -51s56.834 -16.5 93.501 -16.5z" />
    <glyph glyph-name="oe" unicode="&#x153;" horiz-adv-x="851" 
d="M629 -9c-44 0 -81 9.5 -111 28.5s-53 46.5 -69 82.5h-5c-32.667 -74.667 -91.334 -112 -176.001 -112c-74.667 0 -131.667 23.833 -171 71.5s-59 117.167 -59 208.5s19.667 160.833 59 208.5s96.333 71.5 171 71.5c86.667 0 145.334 -38.333 176.001 -115h7
c15.333 37.333 37.666 65.666 66.999 84.999s65.333 29 108 29c125.333 0 188 -79.667 188 -239c0 -17.333 -0.333008 -31.166 -1 -41.499s-2 -21.166 -4 -32.499h-311c2 -56.667 14.167 -98.334 36.5 -125.001s55.833 -40 100.5 -40c46.667 0 98 9.66699 154 29l5 -78
c-23.333 -9.33301 -49.666 -16.833 -78.999 -22.5s-58 -8.5 -86 -8.5zM268 71c44.667 0 77.167 15.333 97.5 46s30.5 81.667 30.5 153s-10 122.333 -30 153s-52.667 46 -98 46s-78 -15.333 -98 -46s-30 -81.667 -30 -153s10 -122.333 30 -153s52.667 -46 98 -46zM722 302
c-1.33301 60.667 -9.66699 104.167 -25 130.5s-40 39.5 -74 39.5c-77.333 0 -119 -56.667 -125 -170h224z" />
    <glyph glyph-name="Racute" unicode="&#x154;" horiz-adv-x="597" 
d="M323 269c-21.333 -2 -44.334 -3 -69.001 -3c-10 0 -22.5 0.333008 -37.5 1s-28.167 1.66699 -39.5 3v-270h-103v735c29.333 5.33301 58.5 9.33301 87.5 12s57.833 4 86.5 4c106.667 0 184.334 -19.5 233.001 -58.5s73 -100.833 73 -185.5
c0 -112.667 -46.333 -185.667 -139 -219l157 -288h-111zM262.999 349c66.667 0 114.332 12.167 142.999 36.5s43 64.833 43 121.5s-14.167 97.167 -42.5 121.5s-75.166 36.5 -140.499 36.5c-12 0 -26 -0.666992 -42 -2s-31.667 -3 -47 -5v-302c12 -2 25.667 -3.66699 41 -5
s30.333 -2 45 -2zM257.997 797l72 149h105l-101 -155z" />
    <glyph glyph-name="racute" unicode="&#x155;" horiz-adv-x="355" 
d="M160 617l70 185h104l-102 -192zM63 540h84.999l7 -71h5c18.667 14 42.667 28.833 72 44.5s58.333 27.5 87 35.5h25v-98h-38c-26.667 -3.33301 -52.667 -10 -78 -20s-46.666 -21 -63.999 -33v-398h-101v540z" />
    <glyph glyph-name="Rcommaaccent" unicode="&#x156;" horiz-adv-x="597" 
d="M267 -68h104l-71 -152h-80zM323 269c-21.333 -2 -44.334 -3 -69.001 -3c-10 0 -22.5 0.333008 -37.5 1s-28.167 1.66699 -39.5 3v-270h-103v735c29.333 5.33301 58.5 9.33301 87.5 12s57.833 4 86.5 4c106.667 0 184.334 -19.5 233.001 -58.5s73 -100.833 73 -185.5
c0 -112.667 -46.333 -185.667 -139 -219l157 -288h-111zM262.999 349c66.667 0 114.332 12.167 142.999 36.5s43 64.833 43 121.5s-14.167 97.167 -42.5 121.5s-75.166 36.5 -140.499 36.5c-12 0 -26 -0.666992 -42 -2s-31.667 -3 -47 -5v-302c12 -2 25.667 -3.66699 41 -5
s30.333 -2 45 -2z" />
    <glyph glyph-name="rcommaaccent" unicode="&#x157;" horiz-adv-x="355" 
d="M69 -68h104l-71 -152h-80zM63 540h84.999l7 -71h5c18.667 14 42.667 28.833 72 44.5s58.333 27.5 87 35.5h25v-98h-38c-26.667 -3.33301 -52.667 -10 -78 -20s-46.666 -21 -63.999 -33v-398h-101v540z" />
    <glyph glyph-name="Rcaron" unicode="&#x158;" horiz-adv-x="597" 
d="M155 948l152 -73l152 73v-77l-152 -73l-152 73v77zM323 269c-21.333 -2 -44.334 -3 -69.001 -3c-10 0 -22.5 0.333008 -37.5 1s-28.167 1.66699 -39.5 3v-270h-103v735c29.333 5.33301 58.5 9.33301 87.5 12s57.833 4 86.5 4c106.667 0 184.334 -19.5 233.001 -58.5
s73 -100.833 73 -185.5c0 -112.667 -46.333 -185.667 -139 -219l157 -288h-111zM262.999 349c66.667 0 114.332 12.167 142.999 36.5s43 64.833 43 121.5s-14.167 97.167 -42.5 121.5s-75.166 36.5 -140.499 36.5c-12 0 -26 -0.666992 -42 -2s-31.667 -3 -47 -5v-302
c12 -2 25.667 -3.66699 41 -5s30.333 -2 45 -2z" />
    <glyph glyph-name="rcaron" unicode="&#x159;" horiz-adv-x="355" 
d="M49 779l152 -73l152 73v-77l-152 -72l-152 72v77zM63 540h84.999l7 -71h5c18.667 14 42.667 28.833 72 44.5s58.333 27.5 87 35.5h25v-98h-38c-26.667 -3.33301 -52.667 -10 -78 -20s-46.666 -21 -63.999 -33v-398h-101v540z" />
    <glyph glyph-name="Sacute" unicode="&#x15a;" horiz-adv-x="519" 
d="M250 -12c-32 0 -67.5 3.00293 -106.5 9.00293s-75.167 14.333 -108.5 25l4 87c14 -4.66699 29.333 -9.16699 46 -13.5s33.834 -8 51.501 -11s35.167 -5.33301 52.5 -7s33.333 -2.5 48 -2.5c48 0 84.667 10.167 110 30.5s38 49.5 38 87.5
c0 18.667 -3.33301 34.834 -10 48.501s-16.5 25.667 -29.5 36s-28.833 19.833 -47.5 28.5s-40 17 -64 25c-31.333 10 -58.666 21 -81.999 33s-43 26.167 -59 42.5s-28 35.833 -36 58.5s-12 49.667 -12 81s5.5 59.666 16.5 84.999s26.833 47 47.5 65s45.667 31.833 75 41.5
s62.333 14.5 99 14.5c26.667 0 54 -1.83301 82 -5.5s59 -9.83398 93 -18.501l-3 -85c-30 7.33301 -59.5 13.166 -88.5 17.499s-54.167 6.5 -75.5 6.5c-44 0 -78.5 -10.833 -103.5 -32.5s-37.5 -50.834 -37.5 -87.501c0 -17.333 3 -32.333 9 -45s15.167 -24.167 27.5 -34.5
s27.833 -19.833 46.5 -28.5s41 -17.667 67 -27c30 -10 56.667 -21.167 80 -33.5s43.166 -26.833 59.499 -43.5s28.666 -36.167 36.999 -58.5s12.5 -48.833 12.5 -79.5c0 -66.667 -21 -118.167 -63 -154.5s-100.667 -54.5 -176 -54.5zM223 797.003l72 149h105l-101 -155z" />
    <glyph glyph-name="sacute" unicode="&#x15b;" horiz-adv-x="420" 
d="M174 617l70 185h104l-102 -192zM198 -11c-22.667 0 -46.668 1.99902 -72.001 5.99902s-54.333 9.66699 -87 17v79c25.333 -7.33301 51.333 -13.333 78 -18s52.334 -7 77.001 -7c31.333 0 55.166 7 71.499 21s24.5 33.667 24.5 59c0 24.667 -7.16699 43.5 -21.5 56.5
s-36.5 22.833 -66.5 29.5c-17.333 3.33301 -35.5 7.33301 -54.5 12s-36.167 12.5 -51.5 23.5s-28 26.333 -38 46s-15 46.167 -15 79.5c0 50 15.833 89 47.5 117s75.834 42 132.501 42c20.667 0 41.667 -1.5 63 -4.5s48 -7.83301 80 -14.5l-1 -79
c-30.667 7.33301 -55.334 12.333 -74.001 15s-36.334 4 -53.001 4c-32 0 -56.667 -6.83301 -74 -20.5s-26 -32.5 -26 -56.5c0 -14.667 2.5 -26.667 7.5 -36s11.667 -17 20 -23s18.333 -10.833 30 -14.5s24.5 -7.16699 38.5 -10.5c21.333 -4.66699 41.333 -10.5 60 -17.5
s34.834 -16.5 48.501 -28.5s24.5 -27.167 32.5 -45.5s12 -41.166 12 -68.499c0 -50.667 -16.667 -90.5 -50 -119.5s-79.666 -43.5 -138.999 -43.5z" />
    <glyph glyph-name="Scircumflex" unicode="&#x15c;" horiz-adv-x="519" 
d="M250 -12c-32 0 -67.5 3.00293 -106.5 9.00293s-75.167 14.333 -108.5 25l4 87c14 -4.66699 29.333 -9.16699 46 -13.5s33.834 -8 51.501 -11s35.167 -5.33301 52.5 -7s33.333 -2.5 48 -2.5c48 0 84.667 10.167 110 30.5s38 49.5 38 87.5
c0 18.667 -3.33301 34.834 -10 48.501s-16.5 25.667 -29.5 36s-28.833 19.833 -47.5 28.5s-40 17 -64 25c-31.333 10 -58.666 21 -81.999 33s-43 26.167 -59 42.5s-28 35.833 -36 58.5s-12 49.667 -12 81s5.5 59.666 16.5 84.999s26.833 47 47.5 65s45.667 31.833 75 41.5
s62.333 14.5 99 14.5c26.667 0 54 -1.83301 82 -5.5s59 -9.83398 93 -18.501l-3 -85c-30 7.33301 -59.5 13.166 -88.5 17.499s-54.167 6.5 -75.5 6.5c-44 0 -78.5 -10.833 -103.5 -32.5s-37.5 -50.834 -37.5 -87.501c0 -17.333 3 -32.333 9 -45s15.167 -24.167 27.5 -34.5
s27.833 -19.833 46.5 -28.5s41 -17.667 67 -27c30 -10 56.667 -21.167 80 -33.5s43.166 -26.833 59.499 -43.5s28.666 -36.167 36.999 -58.5s12.5 -48.833 12.5 -79.5c0 -66.667 -21 -118.167 -63 -154.5s-100.667 -54.5 -176 -54.5zM116 884.003l152 73l152 -73v-77
l-152 73l-152 -73v77z" />
    <glyph glyph-name="scircumflex" unicode="&#x15d;" horiz-adv-x="420" 
d="M64 703l151 73l153 -73v-76l-152 72l-152 -72v76zM198 -11c-22.667 0 -46.668 1.99902 -72.001 5.99902s-54.333 9.66699 -87 17v79c25.333 -7.33301 51.333 -13.333 78 -18s52.334 -7 77.001 -7c31.333 0 55.166 7 71.499 21s24.5 33.667 24.5 59
c0 24.667 -7.16699 43.5 -21.5 56.5s-36.5 22.833 -66.5 29.5c-17.333 3.33301 -35.5 7.33301 -54.5 12s-36.167 12.5 -51.5 23.5s-28 26.333 -38 46s-15 46.167 -15 79.5c0 50 15.833 89 47.5 117s75.834 42 132.501 42c20.667 0 41.667 -1.5 63 -4.5s48 -7.83301 80 -14.5
l-1 -79c-30.667 7.33301 -55.334 12.333 -74.001 15s-36.334 4 -53.001 4c-32 0 -56.667 -6.83301 -74 -20.5s-26 -32.5 -26 -56.5c0 -14.667 2.5 -26.667 7.5 -36s11.667 -17 20 -23s18.333 -10.833 30 -14.5s24.5 -7.16699 38.5 -10.5
c21.333 -4.66699 41.333 -10.5 60 -17.5s34.834 -16.5 48.501 -28.5s24.5 -27.167 32.5 -45.5s12 -41.166 12 -68.499c0 -50.667 -16.667 -90.5 -50 -119.5s-79.666 -43.5 -138.999 -43.5z" />
    <glyph glyph-name="uni015E" unicode="&#x15e;" horiz-adv-x="520" 
d="M232 -220c-24.667 0 -50.998 3.66895 -78.998 11.002v67c10 -3.33301 20.667 -5.83301 32 -7.5s21.666 -2.5 30.999 -2.5c38.667 0 58 17.667 58 53c0 24 -9.33301 53 -28 87c-32 0.666992 -67.167 3.83398 -105.5 9.50098s-73.5 13.834 -105.5 24.501l4 87
c14 -4.66699 29.333 -9.16699 46 -13.5s33.834 -8 51.501 -11s35.167 -5.33301 52.5 -7s33.333 -2.5 48 -2.5c48 0 84.667 10.167 110 30.5s38 49.5 38 87.5c0 18.667 -3.33301 34.834 -10 48.501s-16.5 25.667 -29.5 36s-28.833 19.833 -47.5 28.5s-40 17 -64 25
c-31.333 10 -58.666 21 -81.999 33s-43 26.167 -59 42.5s-28 35.833 -36 58.5s-12 49.667 -12 81s5.5 59.666 16.5 84.999s26.833 47 47.5 65s45.667 31.833 75 41.5s62.333 14.5 99 14.5c26.667 0 54 -1.83301 82 -5.5s59 -9.83398 93 -18.501l-3 -85
c-30 7.33301 -59.5 13.166 -88.5 17.499s-54.167 6.5 -75.5 6.5c-44 0 -78.5 -10.833 -103.5 -32.5s-37.5 -50.834 -37.5 -87.501c0 -17.333 3 -32.333 9 -45s15.167 -24.167 27.5 -34.5s27.833 -19.833 46.5 -28.5s41 -17.667 67 -27c30 -10 56.667 -21.167 80 -33.5
s43.166 -26.833 59.499 -43.5s28.666 -36.167 36.999 -58.5s12.5 -48.833 12.5 -79.5c0 -56.667 -15.167 -102.5 -45.5 -137.5s-73.833 -57.167 -130.5 -66.5c12 -19.333 20.5 -37.333 25.5 -54s7.5 -33.334 7.5 -50.001c0 -34.667 -9.83301 -61.5 -29.5 -80.5
s-47.834 -28.5 -84.501 -28.5z" />
    <glyph glyph-name="uni015F" unicode="&#x15f;" horiz-adv-x="420" 
d="M175 -220c-24.667 0 -50.998 3.66406 -78.998 10.9971v67c10 -3.33301 20.667 -5.83301 32 -7.5s21.666 -2.5 30.999 -2.5c38.667 0 58 17.667 58 53c0 24 -9.66699 53.333 -29 88c-21.333 0.666992 -44 2.83398 -68 6.50098s-51 9.16699 -81 16.5v79
c25.333 -7.33301 51.333 -13.333 78 -18s52.334 -7 77.001 -7c31.333 0 55.166 7 71.499 21s24.5 33.667 24.5 59c0 24.667 -7.16699 43.5 -21.5 56.5s-36.5 22.833 -66.5 29.5c-17.333 3.33301 -35.5 7.33301 -54.5 12s-36.167 12.5 -51.5 23.5s-28 26.333 -38 46
s-15 46.167 -15 79.5c0 50 15.833 89 47.5 117s75.834 42 132.501 42c20.667 0 41.667 -1.5 63 -4.5s48 -7.83301 80 -14.5l-1 -79c-30.667 7.33301 -55.334 12.333 -74.001 15s-36.334 4 -53.001 4c-32 0 -56.667 -6.83301 -74 -20.5s-26 -32.5 -26 -56.5
c0 -14.667 2.5 -26.667 7.5 -36s11.667 -17 20 -23s18.333 -10.833 30 -14.5s24.5 -7.16699 38.5 -10.5c21.333 -4.66699 41.333 -10.5 60 -17.5s34.834 -16.5 48.501 -28.5s24.5 -27.167 32.5 -45.5s12 -41.166 12 -68.499c0 -42 -11.5 -76.5 -34.5 -103.5
s-55.5 -44.833 -97.5 -53.5c12 -20.667 20.667 -39.167 26 -55.5s8 -33.166 8 -50.499c0 -34.667 -9.83301 -61.5 -29.5 -80.5s-47.834 -28.5 -84.501 -28.5z" />
    <glyph glyph-name="Scaron" unicode="&#x160;" horiz-adv-x="519" 
d="M250 -12c-32 0 -67.5 3.00293 -106.5 9.00293s-75.167 14.333 -108.5 25l4 87c14 -4.66699 29.333 -9.16699 46 -13.5s33.834 -8 51.501 -11s35.167 -5.33301 52.5 -7s33.333 -2.5 48 -2.5c48 0 84.667 10.167 110 30.5s38 49.5 38 87.5
c0 18.667 -3.33301 34.834 -10 48.501s-16.5 25.667 -29.5 36s-28.833 19.833 -47.5 28.5s-40 17 -64 25c-31.333 10 -58.666 21 -81.999 33s-43 26.167 -59 42.5s-28 35.833 -36 58.5s-12 49.667 -12 81s5.5 59.666 16.5 84.999s26.833 47 47.5 65s45.667 31.833 75 41.5
s62.333 14.5 99 14.5c26.667 0 54 -1.83301 82 -5.5s59 -9.83398 93 -18.501l-3 -85c-30 7.33301 -59.5 13.166 -88.5 17.499s-54.167 6.5 -75.5 6.5c-44 0 -78.5 -10.833 -103.5 -32.5s-37.5 -50.834 -37.5 -87.501c0 -17.333 3 -32.333 9 -45s15.167 -24.167 27.5 -34.5
s27.833 -19.833 46.5 -28.5s41 -17.667 67 -27c30 -10 56.667 -21.167 80 -33.5s43.166 -26.833 59.499 -43.5s28.666 -36.167 36.999 -58.5s12.5 -48.833 12.5 -79.5c0 -66.667 -21 -118.167 -63 -154.5s-100.667 -54.5 -176 -54.5zM119 948.003l152 -73l152 73v-77
l-152 -73l-152 73v77z" />
    <glyph glyph-name="scaron" unicode="&#x161;" horiz-adv-x="420" 
d="M63 779l152 -73l152 73v-77l-152 -72l-152 72v77zM198 -11c-22.667 0 -46.668 1.99902 -72.001 5.99902s-54.333 9.66699 -87 17v79c25.333 -7.33301 51.333 -13.333 78 -18s52.334 -7 77.001 -7c31.333 0 55.166 7 71.499 21s24.5 33.667 24.5 59
c0 24.667 -7.16699 43.5 -21.5 56.5s-36.5 22.833 -66.5 29.5c-17.333 3.33301 -35.5 7.33301 -54.5 12s-36.167 12.5 -51.5 23.5s-28 26.333 -38 46s-15 46.167 -15 79.5c0 50 15.833 89 47.5 117s75.834 42 132.501 42c20.667 0 41.667 -1.5 63 -4.5s48 -7.83301 80 -14.5
l-1 -79c-30.667 7.33301 -55.334 12.333 -74.001 15s-36.334 4 -53.001 4c-32 0 -56.667 -6.83301 -74 -20.5s-26 -32.5 -26 -56.5c0 -14.667 2.5 -26.667 7.5 -36s11.667 -17 20 -23s18.333 -10.833 30 -14.5s24.5 -7.16699 38.5 -10.5
c21.333 -4.66699 41.333 -10.5 60 -17.5s34.834 -16.5 48.501 -28.5s24.5 -27.167 32.5 -45.5s12 -41.166 12 -68.499c0 -50.667 -16.667 -90.5 -50 -119.5s-79.666 -43.5 -138.999 -43.5z" />
    <glyph glyph-name="uni0162" unicode="&#x162;" horiz-adv-x="531" 
d="M213 652h-197.998v88h501v-88h-199v-652h-15c13.333 -21.333 22.833 -40.833 28.5 -58.5s8.5 -35.167 8.5 -52.5c0 -34.667 -9.83301 -61.5 -29.5 -80.5s-47.834 -28.5 -84.501 -28.5c-24.667 0 -51 3.66699 -79 11v67c10 -3.33301 20.667 -5.83301 32 -7.5
s21.666 -2.5 30.999 -2.5c38.667 0 58 17.667 58 53c0 27.333 -11.667 60.333 -35 99h-19v652z" />
    <glyph glyph-name="uni0163" unicode="&#x163;" horiz-adv-x="365" 
d="M174 -220c-24.667 0 -50.9971 3.66797 -78.9971 11.001v67c10 -3.33301 20.667 -5.83301 32 -7.5s21.666 -2.5 30.999 -2.5c38.667 0 58 17.667 58 53c0 30.667 -14.333 68 -43 112c-42 22.667 -63 66.334 -63 131.001v309h-97v87h103l14 140l80 12v-152h137v-87h-136
v-288c0 -61.333 26.333 -92 79 -92c8 0 17.167 0.666992 27.5 2s20.166 3.66602 29.499 6.99902v-79c-13.333 -3.33301 -27.333 -5.83301 -42 -7.5s-28.667 -2.5 -42 -2.5h-8c12 -19.333 20.5 -37.333 25.5 -54s7.5 -33.334 7.5 -50.001
c0 -34.667 -9.83301 -61.5 -29.5 -80.5s-47.834 -28.5 -84.501 -28.5z" />
    <glyph glyph-name="Tcaron" unicode="&#x164;" horiz-adv-x="531" 
d="M117 948l152 -73l152 73v-77l-152 -73l-152 73v77zM213 652h-198v88h501v-88h-199v-652h-104v652z" />
    <glyph glyph-name="tcaron" unicode="&#x165;" horiz-adv-x="356" 
d="M263 -7c-102 0 -152.999 50.334 -152.999 151.001v309h-97v87h103l14 140l80 12v-152h95v-87h-94v-288c0 -61.333 26.333 -92 79 -92c8 0 17.167 0.666992 27.5 2s20.166 3.66602 29.499 6.99902v-79c-13.333 -3.33301 -27.333 -5.83301 -42 -7.5s-28.667 -2.5 -42 -2.5z
M286.001 808.001h83l-31 -228h-52v228z" />
    <glyph glyph-name="Tbar" unicode="&#x166;" horiz-adv-x="539" 
d="M99 410h118v242h-198v88h501v-88h-199v-242h120v-61h-120v-349h-104v349h-118v61z" />
    <glyph glyph-name="tbar" unicode="&#x167;" horiz-adv-x="372" 
d="M23 338l94.001 0.000976562v115h-97v87h103l14 140l80 12v-152h137v-87h-136v-115h112v-65h-112v-108c0 -61.333 26.333 -92 79 -92c8 0 17.167 0.666992 27.5 2s20.166 3.66602 29.499 6.99902v-79c-13.333 -3.33301 -27.333 -5.83301 -42 -7.5s-28.667 -2.5 -42 -2.5
c-102 0 -153 50.333 -153 151v129h-94v65z" />
    <glyph glyph-name="Utilde" unicode="&#x168;" horiz-adv-x="683" 
d="M163 849c16 26 34.4971 46.498 55.4971 61.498s41.833 22.5 62.5 22.5c14 0 27.167 -2.16699 39.5 -6.5s24.5 -9.16602 36.5 -14.499s23.833 -10.166 35.5 -14.499s23.834 -6.5 36.501 -6.5c25.333 0 49.333 13.333 72 40l25 -24c-14 -28 -31.667 -49.167 -53 -63.5
s-42.666 -21.5 -63.999 -21.5c-13.333 0 -26.166 2 -38.499 6s-24.5 8.5 -36.5 13.5s-23.833 9.66699 -35.5 14s-23.834 6.5 -36.501 6.5c-25.333 0 -50.666 -12.667 -75.999 -38zM340.997 -10.002c-49.333 0 -91.3311 6 -125.998 18s-62.834 30.333 -84.501 55
s-37.5 56 -47.5 94s-15 83 -15 135v448h102v-445c0 -76.667 13.667 -132 41 -166s70.666 -51 129.999 -51c60 0 103.5 16.833 130.5 50.5s40.5 89.167 40.5 166.5v445h103v-448c0 -52 -5 -97 -15 -135s-26 -69.333 -48 -94s-50.333 -43 -85 -55s-76.667 -18 -126 -18z" />
    <glyph glyph-name="utilde" unicode="&#x169;" horiz-adv-x="536" 
d="M193 -10c-89.333 0 -134 48.002 -134 144.002v406h101v-377c0 -32 5.16699 -54.333 15.5 -67s28.166 -19 53.499 -19c22.667 0 45.334 4.5 68.001 13.5s47.667 22.167 75 39.5v410h101v-540h-85l-7 59h-4c-20.667 -12.667 -39.167 -23.334 -55.5 -32.001
s-31.5 -15.834 -45.5 -21.501s-27.667 -9.66699 -41 -12s-27.333 -3.5 -42 -3.5zM87 664.002c15.333 25.333 33.668 44.833 55.001 58.5s42.333 20.5 63 20.5c14 0 27.167 -2.5 39.5 -7.5s24.166 -10.333 35.499 -16s22.833 -11 34.5 -16s24.167 -7.5 37.5 -7.5
c23.333 0 46.333 13.333 69 40l29 -28c-14.667 -27.333 -32.667 -47.833 -54 -61.5s-42.666 -20.5 -63.999 -20.5c-13.333 0 -26 2.5 -38 7.5s-24 10.333 -36 16s-24 11 -36 16s-24.333 7.5 -37 7.5c-24.667 0 -48.334 -13 -71.001 -39z" />
    <glyph glyph-name="Umacron" unicode="&#x16a;" horiz-adv-x="683" 
d="M190 913h288v-73h-288v73zM341 -10c-49.333 0 -91.3311 6 -125.998 18s-62.834 30.333 -84.501 55s-37.5 56 -47.5 94s-15 83 -15 135v448h102v-445c0 -76.667 13.667 -132 41 -166s70.666 -51 129.999 -51c60 0 103.5 16.833 130.5 50.5s40.5 89.167 40.5 166.5v445h103
v-448c0 -52 -5 -97 -15 -135s-26 -69.333 -48 -94s-50.333 -43 -85 -55s-76.667 -18 -126 -18z" />
    <glyph glyph-name="umacron" unicode="&#x16b;" horiz-adv-x="536" 
d="M193 -10c-89.333 0 -134 48.002 -134 144.002v406h101v-377c0 -32 5.16699 -54.333 15.5 -67s28.166 -19 53.499 -19c22.667 0 45.334 4.5 68.001 13.5s47.667 22.167 75 39.5v410h101v-540h-85l-7 59h-4c-20.667 -12.667 -39.167 -23.334 -55.5 -32.001
s-31.5 -15.834 -45.5 -21.501s-27.667 -9.66699 -41 -12s-27.333 -3.5 -42 -3.5zM116 711.002h298v-70h-298v70z" />
    <glyph glyph-name="Ubreve" unicode="&#x16c;" horiz-adv-x="683" 
d="M340 808c-56 0 -98.166 13.667 -126.499 41s-42.5 65 -42.5 113h74c0 -64.667 31.667 -97 95 -97c62.667 0 94 32.333 94 97h74c0 -47.333 -14.333 -84.833 -43 -112.5s-70.334 -41.5 -125.001 -41.5zM341.001 -10c-49.333 0 -91.3311 6 -125.998 18
s-62.834 30.333 -84.501 55s-37.5 56 -47.5 94s-15 83 -15 135v448h102v-445c0 -76.667 13.667 -132 41 -166s70.666 -51 129.999 -51c60 0 103.5 16.833 130.5 50.5s40.5 89.167 40.5 166.5v445h103v-448c0 -52 -5 -97 -15 -135s-26 -69.333 -48 -94s-50.333 -43 -85 -55
s-76.667 -18 -126 -18z" />
    <glyph glyph-name="ubreve" unicode="&#x16d;" horiz-adv-x="536" 
d="M193 -10c-89.333 0 -134 48.002 -134 144.002v406h101v-377c0 -32 5.16699 -54.333 15.5 -67s28.166 -19 53.499 -19c22.667 0 45.334 4.5 68.001 13.5s47.667 22.167 75 39.5v410h101v-540h-85l-7 59h-4c-20.667 -12.667 -39.167 -23.334 -55.5 -32.001
s-31.5 -15.834 -45.5 -21.501s-27.667 -9.66699 -41 -12s-27.333 -3.5 -42 -3.5zM264 617.002c-55.333 0 -96.833 13.167 -124.5 39.5s-42.167 63.166 -43.5 110.499h73c0 -60.667 31.667 -91 95 -91c62.667 0 94 30.333 94 91h74
c-1.33301 -47.333 -16 -84.166 -44 -110.499s-69.333 -39.5 -124 -39.5z" />
    <glyph glyph-name="Uring" unicode="&#x16e;" horiz-adv-x="683" 
d="M341 -10c-49.333 0 -91.3311 6 -125.998 18s-62.834 30.333 -84.501 55s-37.5 56 -47.5 94s-15 83 -15 135v448h102v-445c0 -76.667 13.667 -132 41 -166s70.666 -51 129.999 -51c60 0 103.5 16.833 130.5 50.5s40.5 89.167 40.5 166.5v445h103v-448
c0 -52 -5 -97 -15 -135s-26 -69.333 -48 -94s-50.333 -43 -85 -55s-76.667 -18 -126 -18zM337.002 782c-33.333 0 -59.833 10.333 -79.5 31s-29.5 46 -29.5 76c0 31.333 9.83301 57.166 29.5 77.499s46.167 30.5 79.5 30.5s60 -10.167 80 -30.5s30 -46.166 30 -77.499
c0 -30 -10 -55.333 -30 -76s-46.667 -31 -80 -31zM337.002 828c20 0 35.001 5.33301 45.001 16s15 25.667 15 45s-4.83301 34.5 -14.5 45.5s-24.834 16.5 -45.501 16.5s-35.834 -5.5 -45.501 -16.5s-14.5 -26.167 -14.5 -45.5s4.83301 -34.333 14.5 -45
s24.834 -16 45.501 -16z" />
    <glyph glyph-name="uring" unicode="&#x16f;" horiz-adv-x="536" 
d="M265 603c-34 0 -61 10.167 -81 30.5s-30 46.166 -30 77.499c0 30.667 10 56.167 30 76.5s47 30.5 81 30.5s61.167 -10.167 81.5 -30.5s30.5 -45.833 30.5 -76.5c0 -31.333 -10.167 -57.166 -30.5 -77.499s-47.5 -30.5 -81.5 -30.5zM265 650
c19.333 0 34.001 5.66699 44.001 17s15 26 15 44s-5 32.5 -15 43.5s-24.667 16.5 -44 16.5c-18.667 0 -32.834 -5.5 -42.501 -16.5s-14.5 -25.5 -14.5 -43.5c0 -18.667 5 -33.5 15 -44.5s24 -16.5 42 -16.5zM193.001 -10c-89.333 0 -134 48.002 -134 144.002v406h101v-377
c0 -32 5.16699 -54.333 15.5 -67s28.166 -19 53.499 -19c22.667 0 45.334 4.5 68.001 13.5s47.667 22.167 75 39.5v410h101v-540h-85l-7 59h-4c-20.667 -12.667 -39.167 -23.334 -55.5 -32.001s-31.5 -15.834 -45.5 -21.501s-27.667 -9.66699 -41 -12s-27.333 -3.5 -42 -3.5
z" />
    <glyph glyph-name="Uhungarumlaut" unicode="&#x170;" horiz-adv-x="683" 
d="M341 -10c-49.333 0 -91.3311 6 -125.998 18s-62.834 30.333 -84.501 55s-37.5 56 -47.5 94s-15 83 -15 135v448h102v-445c0 -76.667 13.667 -132 41 -166s70.666 -51 129.999 -51c60 0 103.5 16.833 130.5 50.5s40.5 89.167 40.5 166.5v445h103v-448
c0 -52 -5 -97 -15 -135s-26 -69.333 -48 -94s-50.333 -43 -85 -55s-76.667 -18 -126 -18zM212.002 802l73 143h93l-102 -155zM373.002 802l72 143h94l-101 -155z" />
    <glyph glyph-name="uhungarumlaut" unicode="&#x171;" horiz-adv-x="536" 
d="M193 -10c-89.333 0 -134 48.002 -134 144.002v406h101v-377c0 -32 5.16699 -54.333 15.5 -67s28.166 -19 53.499 -19c22.667 0 45.334 4.5 68.001 13.5s47.667 22.167 75 39.5v410h101v-540h-85l-7 59h-4c-20.667 -12.667 -39.167 -23.334 -55.5 -32.001
s-31.5 -15.834 -45.5 -21.501s-27.667 -9.66699 -41 -12s-27.333 -3.5 -42 -3.5zM139 621.002l71 183h95l-103 -193zM313 621.002l71 183h94l-102 -193z" />
    <glyph glyph-name="Uogonek" unicode="&#x172;" horiz-adv-x="683" 
d="M337 -212c-71.333 0 -107.001 29.9971 -107.001 89.9971c0 21.333 5.5 41.333 16.5 60s28.167 36.667 51.5 54c-41.333 2.66699 -76.666 10.834 -105.999 24.501s-53.166 32.834 -71.499 57.501s-31.666 55.167 -39.999 91.5s-12.5 78.5 -12.5 126.5v448h102v-445
c0 -76.667 13.667 -132 41 -166s70.666 -51 129.999 -51c60 0 103.5 16.833 130.5 50.5s40.5 89.167 40.5 166.5v445h103v-448c0 -92.667 -16.333 -163.167 -49 -211.5s-86.334 -77.166 -161.001 -86.499c-36 -15.333 -62.333 -32.5 -79 -51.5s-25 -37.833 -25 -56.5
c0 -22.667 14.333 -34 43 -34c20.667 0 41 3.66699 61 11v-63c-22 -8 -44.667 -12 -68 -12z" />
    <glyph glyph-name="uogonek" unicode="&#x173;" horiz-adv-x="537" 
d="M194 -10c-89.333 0 -134 48.0029 -134 144.003v406h101v-377c0 -32 5.16699 -54.333 15.5 -67s28.166 -19 53.499 -19c22.667 0 45.334 4.5 68.001 13.5s47.667 22.167 75 39.5v410h101v-554c-36 -15.333 -62.333 -32.5 -79 -51.5s-25 -37.833 -25 -56.5
c0 -22.667 14.333 -34 43 -34c20.667 0 41 3.66699 61 11v-63c-22 -8 -44.667 -12 -68 -12c-71.333 0 -107 30 -107 90c0 47.333 30 90.666 90 129.999l-7 59h-4c-20.667 -12.667 -39.167 -23.334 -55.5 -32.001s-31.5 -15.834 -45.5 -21.501s-27.667 -9.66699 -41 -12
s-27.333 -3.5 -42 -3.5z" />
    <glyph glyph-name="Wcircumflex" unicode="&#x174;" horiz-adv-x="936" 
d="M13 740h111l109 -494l24 -123h8l28 123l124 494h107l119 -494l26 -123h8l26 123l114 494h110l-188 -740h-128l-117 472l-21 125h-7l-22 -125l-122 -472h-129zM316 884l152 73l152 -73v-77l-152 73l-152 -73v77z" />
    <glyph glyph-name="wcircumflex" unicode="&#x175;" horiz-adv-x="729" 
d="M215 703l151 73l153 -73v-76l-152 72l-152 -72v76zM20 535v5h96l75 -356l14 -75h8l16 75l87 356h98l87 -356l17 -75h8l15 75l74 356h95v-5l-127 -535h-114l-89 353l-11 60h-8l-11 -60l-89 -353h-113z" />
    <glyph glyph-name="Ycircumflex" unicode="&#x176;" horiz-adv-x="597" 
d="M248 247l-250 493h114l159 -333l23 -59h9l23 59l160 333h112l-248 -490v-250h-102v247zM148 884l152 73l152 -73v-77l-152 73l-152 -73v77z" />
    <glyph glyph-name="ycircumflex" unicode="&#x177;" horiz-adv-x="515" 
d="M135 -201v7l71 196l-196 529v9h104l123 -363l17 -70h6l18 70l124 363h104v-9l-272 -751zM113 703l151 73l153 -73v-76l-152 72l-152 -72v76z" />
    <glyph glyph-name="Ydieresis" unicode="&#x178;" horiz-adv-x="597" 
d="M248 247l-250 493h114l159 -333l23 -59h9l23 59l160 333h112l-248 -490v-250h-102v247zM187 810c-40.667 0 -61 20.333 -61 61c0 39.333 20.333 59 61 59s61 -19.667 61 -59c0 -21.333 -5.16699 -36.833 -15.5 -46.5s-25.5 -14.5 -45.5 -14.5zM413 810
c-40.667 0 -61 20.333 -61 61c0 39.333 20.333 59 61 59c41.333 0 62 -19.667 62 -59c0 -21.333 -5.33301 -36.833 -16 -46.5s-26 -14.5 -46 -14.5z" />
    <glyph glyph-name="Zacute" unicode="&#x179;" horiz-adv-x="529" 
d="M29 84l340 561v7h-329v88h450v-84l-341 -562v-6h351v-88h-471v84zM229 797l72 149h105l-101 -155z" />
    <glyph glyph-name="zacute" unicode="&#x17a;" horiz-adv-x="441" 
d="M189 617l70 185h104l-102 -192zM31 67l249 386v5h-240v82h360v-66l-247 -386v-6h257v-82h-379v67z" />
    <glyph glyph-name="Zdotaccent" unicode="&#x17b;" horiz-adv-x="529" 
d="M270 803c-40.667 0 -61 19.667 -61 59c0 21.333 5 36.833 15 46.5s25.333 14.5 46 14.5c41.333 0 62 -20.333 62 -61c0 -39.333 -20.667 -59 -62 -59zM29 84l340 561v7h-329v88h450v-84l-341 -562v-6h351v-88h-471v84z" />
    <glyph glyph-name="zdotaccent" unicode="&#x17c;" horiz-adv-x="441" 
d="M31 67l249 386v5h-240v82h360v-66l-247 -386v-6h257v-82h-379v67zM222 625c-40.667 0 -61 19.999 -61 59.999c0 21.333 5 36.666 15 45.999s25.333 14 46 14c20 0 35.333 -4.66699 46 -14s16 -24.666 16 -45.999s-5.33301 -36.666 -16 -45.999s-26 -14 -46 -14z" />
    <glyph glyph-name="Zcaron" unicode="&#x17d;" horiz-adv-x="529" 
d="M123 948l152 -73l152 73v-77l-152 -73l-152 73v77zM29 84l340 561v7h-329v88h450v-84l-341 -562v-6h351v-88h-471v84z" />
    <glyph glyph-name="zcaron" unicode="&#x17e;" horiz-adv-x="441" 
d="M76 779l152 -73l152 73v-77l-152 -72l-152 72v77zM31 67l249 386v5h-240v82h360v-66l-247 -386v-6h257v-82h-379v67z" />
    <glyph glyph-name="Schwa" unicode="&#x18f;" horiz-adv-x="622" 
d="M38 316c0 18 0.333008 34.5 1 49.5s1.66699 30.167 3 45.5h434c-4 90.667 -22.667 155.834 -56 195.501s-84.333 59.5 -153 59.5c-29.333 0 -60.166 -3 -92.499 -9s-66.5 -15.333 -102.5 -28c0 2 -0.333008 7.33301 -1 16s-1.33398 18 -2.00098 28
s-1.33398 19.167 -2.00098 27.5s-1 13.166 -1 14.499c30 12 63.5 21.833 100.5 29.5s73.167 11.5 108.5 11.5c100 0 175.833 -31.5 227.5 -94.5s77.5 -155.5 77.5 -277.5c0 -126 -24.667 -223 -74 -291s-122.333 -102 -219 -102c-81.333 0 -143.166 26.833 -185.499 80.5
s-63.5 135.167 -63.5 244.5zM290 75c59.333 0 104.333 21 135 63s47.667 107.667 51 197h-339c0 -46 2.83301 -85.5 8.5 -118.5s14.5 -60 26.5 -81s27.667 -36.333 47 -46s43 -14.5 71 -14.5z" />
    <glyph glyph-name="florin" unicode="&#x192;" horiz-adv-x="365" 
d="M117 454l-88.001 -0.000976562v86h89v33c0 44 3.83301 80.833 11.5 110.5s20.5 53.667 38.5 72s42 31.833 72 40.5s67.667 14 113 16l5 -77c-28 -2 -51 -5.83301 -69 -11.5s-32.167 -14.167 -42.5 -25.5s-17.666 -26.166 -21.999 -44.499s-6.5 -41.833 -6.5 -70.5v-43
h116v-86h-116v-635l-101 -39v674z" />
    <glyph glyph-name="uni01C4" unicode="&#x1c4;" horiz-adv-x="1175" 
d="M768 948l152 -73l152 73v-77l-152 -73l-152 73v77zM675 84l340 561v7h-329v88h450v-84l-341 -562v-6h351v-88h-471v84zM231 -14c-26.667 0 -53.167 0.832031 -79.5 2.49902s-52.166 4.16699 -77.499 7.5v740c37.333 4.66699 71.166 8.16699 101.499 10.5
s57.5 3.5 81.5 3.5c60.667 0 112.834 -7.5 156.501 -22.5s79.667 -38 108 -69s49.166 -70.5 62.499 -118.5s20 -105 20 -171c0 -67.333 -7 -125.166 -21 -173.499s-36.167 -88 -66.5 -119s-69 -53.833 -116 -68.5s-103.5 -22 -169.5 -22zM264 71.999
c40.667 0 75.832 5.49902 105.499 16.499s54 28.5 73 52.5s33 54.833 42 92.5s13.5 82.834 13.5 135.501c0 53.333 -4.16699 98.666 -12.5 135.999s-21.666 67.833 -39.999 91.5s-42 40.834 -71 51.501s-63.833 16 -104.5 16c-15.333 0 -31 -0.666992 -47 -2
s-31.667 -3 -47 -5v-579c17.333 -2 32.833 -3.5 46.5 -4.5s27.5 -1.5 41.5 -1.5z" />
    <glyph glyph-name="uni01C5" unicode="&#x1c5;" horiz-adv-x="1087" 
d="M722 779l152 -73l152 73v-77l-152 -72l-152 72v77zM677 67l249 386v5h-240v82h360v-66l-247 -386v-6h257v-82h-379v67zM231 -14c-26.667 0 -53.167 0.832031 -79.5 2.49902s-52.166 4.16699 -77.499 7.5v740c37.333 4.66699 71.166 8.16699 101.499 10.5
s57.5 3.5 81.5 3.5c60.667 0 112.834 -7.5 156.501 -22.5s79.667 -38 108 -69s49.166 -70.5 62.499 -118.5s20 -105 20 -171c0 -67.333 -7 -125.166 -21 -173.499s-36.167 -88 -66.5 -119s-69 -53.833 -116 -68.5s-103.5 -22 -169.5 -22zM264 71.999
c40.667 0 75.832 5.49902 105.499 16.499s54 28.5 73 52.5s33 54.833 42 92.5s13.5 82.834 13.5 135.501c0 53.333 -4.16699 98.666 -12.5 135.999s-21.666 67.833 -39.999 91.5s-42 40.834 -71 51.501s-63.833 16 -104.5 16c-15.333 0 -31 -0.666992 -47 -2
s-31.667 -3 -47 -5v-579c17.333 -2 32.833 -3.5 46.5 -4.5s27.5 -1.5 41.5 -1.5z" />
    <glyph glyph-name="uni01C6" unicode="&#x1c6;" horiz-adv-x="981" 
d="M615 779l152 -73l152 73v-77l-152 -72l-152 72v77zM570 67l249 386v5h-240v82h360v-66l-247 -386v-6h257v-82h-379v67zM230 -9c-64 0 -111.834 22.167 -143.501 66.5s-47.5 112.5 -47.5 204.5c0 94.667 21.5 166.167 64.5 214.5s104.167 72.5 183.5 72.5
c14.667 0 28.834 -0.666992 42.501 -2s29.167 -3 46.5 -5v266h100v-808h-89l-8 58h-5c-33.333 -44.667 -81.333 -67 -144 -67zM258.999 67c32 0 59.5 10.666 82.5 31.999s34.5 53.333 34.5 96v270c-16 3.33301 -31.333 6 -46 8s-30 3 -46 3c-48 0 -83.667 -16 -107 -48
s-35 -84.333 -35 -157c0 -71.333 9.5 -123.166 28.5 -155.499s48.5 -48.5 88.5 -48.5z" />
    <glyph glyph-name="uni01C7" unicode="&#x1c7;" horiz-adv-x="713" 
d="M459 -159c16 34 29.167 64.834 39.5 92.501s18.5 54.667 24.5 81s10.167 53.166 12.5 80.499s3.5 58 3.5 92v553h103v-560c0 -32.667 -2.16699 -64 -6.5 -94s-11 -59.667 -20 -89s-21 -59.5 -36 -90.5s-32.833 -63.833 -53.5 -98.5zM74 740.001h103v-653h273v-87h-376
v740z" />
    <glyph glyph-name="uni01C8" unicode="&#x1c8;" horiz-adv-x="689" 
d="M576 647c-40.667 0 -61 20 -61 60c0 39.333 20.333 59 61 59s61 -19.667 61 -59c0 -40 -20.333 -60 -61 -60zM465 -196c21.333 44.667 37 92.5 47 143.5s15 108.167 15 171.5v32.5v75.5v97.5v99c0 31 -0.166992 57.333 -0.5 79s-0.5 34.167 -0.5 37.5h101v-456
c-0.666992 -52 -9.16699 -104.667 -25.5 -158s-38.5 -102 -66.5 -146zM74 740h103v-653h273v-87h-376v740z" />
    <glyph glyph-name="uni01C9" unicode="&#x1c9;" horiz-adv-x="456" 
d="M343 647c-40.667 0 -61 20 -61 60c0 39.333 20.333 59 61 59s61 -19.667 61 -59c0 -40 -20.333 -60 -61 -60zM232 -196c21.333 44.667 37 92.5 47 143.5s15 108.167 15 171.5v32.5v75.5v97.5v99c0 31 -0.166992 57.333 -0.5 79s-0.5 34.167 -0.5 37.5h101v-456
c-0.666992 -52 -9.16699 -104.667 -25.5 -158s-38.5 -102 -66.5 -146zM64 808h101v-808h-101v808z" />
    <glyph glyph-name="uni01CA" unicode="&#x1ca;" horiz-adv-x="954" 
d="M699 -159c16 34 29.167 64.834 39.5 92.501s18.5 54.667 24.5 81s10.167 53.166 12.5 80.499s3.5 58 3.5 92v553h103v-560c0 -32.667 -2.16699 -64 -6.5 -94s-11 -59.667 -20 -89s-21 -59.5 -36 -90.5s-32.833 -63.833 -53.5 -98.5zM74 740.001h90l318 -485l47 -83h7v568
h93v-740h-90l-317 483l-48 86l-8 -1v-568h-92v740z" />
    <glyph glyph-name="uni01CB" unicode="&#x1cb;" horiz-adv-x="929" 
d="M816 647c-40.667 0 -61 20 -61 60c0 39.333 20.333 59 61 59s61 -19.667 61 -59c0 -40 -20.333 -60 -61 -60zM705 -196c21.333 44.667 37 92.5 47 143.5s15 108.167 15 171.5v32.5v75.5v97.5v99c0 31 -0.166992 57.333 -0.5 79s-0.5 34.167 -0.5 37.5h101v-456
c-0.666992 -52 -9.16699 -104.667 -25.5 -158s-38.5 -102 -66.5 -146zM74 740h90l318 -485l47 -83h7v568h93v-740h-90l-317 483l-48 86l-8 -1v-568h-92v740z" />
    <glyph glyph-name="uni01CC" unicode="&#x1cc;" horiz-adv-x="763" 
d="M650 647c-40.667 0 -61 20 -61 60c0 39.333 20.333 59 61 59s61 -19.667 61 -59c0 -40 -20.333 -60 -61 -60zM539 -196c21.333 44.667 37 92.5 47 143.5s15 108.167 15 171.5v32.5v75.5v97.5v99c0 31 -0.166992 57.333 -0.5 79s-0.5 34.167 -0.5 37.5h101v-456
c-0.666992 -52 -9.16699 -104.667 -25.5 -158s-38.5 -102 -66.5 -146zM63 540l85 -0.00195312l7 -59h4c41.333 24.667 76.666 42.334 105.999 53.001s58 16 86 16c42 0 73.333 -11.667 94 -35s31 -59.666 31 -108.999v-406h-100v375c0 32 -5.5 54.667 -16.5 68
s-27.833 20 -50.5 20c-21.333 0 -44.166 -4.5 -68.499 -13.5s-49.833 -21.167 -76.5 -36.5v-413h-101v540z" />
    <glyph glyph-name="Oogonek" unicode="&#x1ea;" horiz-adv-x="671" 
d="M328 -210c-71.333 0 -106.998 29.999 -106.998 89.999c0 41.333 22.333 79 67 113c-164 19.333 -246 144.666 -246 375.999c0 254 97.667 381 293 381c97.333 0 170.666 -31.5 219.999 -94.5s74 -158.5 74 -286.5c0 -114 -19.833 -202.167 -59.5 -264.5
s-98.834 -99.166 -177.501 -110.499c-34 -15.333 -59.167 -32.166 -75.5 -50.499s-24.5 -36.833 -24.5 -55.5c0 -22.667 14.333 -34 43 -34c20.667 0 41 3.66699 61 11v-63c-22 -8 -44.667 -12 -68 -12zM335.002 76.999c32.667 0 61.001 5.5 85.001 16.5
s43.667 28.333 59 52s26.666 54 33.999 91s11 81.167 11 132.5c0 103.333 -15 178.166 -45 224.499s-78 69.5 -144 69.5c-65.333 0 -113 -23.167 -143 -69.5s-45 -121.166 -45 -224.499c0 -51.333 3.66699 -95.5 11 -132.5s18.666 -67.333 33.999 -91s34.833 -41 58.5 -52
s51.834 -16.5 84.501 -16.5z" />
    <glyph glyph-name="oogonek" unicode="&#x1eb;" horiz-adv-x="536" 
d="M270 -207c-71.333 0 -107 29.999 -107 89.999c0 41.333 21 78 63 110c-61.333 8.66699 -108 36.334 -140 83.001s-48 111.334 -48 194.001c0 91.333 19.667 160.833 59 208.5s96.333 71.5 171 71.5c75.333 0 132.5 -23.833 171.5 -71.5s58.5 -117.167 58.5 -208.5
c0 -76.667 -13.833 -138 -41.5 -184s-68.5 -75.333 -122.5 -88c-34 -15.333 -59.167 -32.333 -75.5 -51s-24.5 -37.334 -24.5 -56.001c0 -22.667 14.333 -34 43 -34c20.667 0 41 3.66699 61 11v-63c-22 -8 -44.667 -12 -68 -12zM268 70.999c44.667 0 77.167 15.333 97.5 46
s30.5 81.667 30.5 153s-10 122.333 -30 153s-52.667 46 -98 46s-78 -15.333 -98 -46s-30 -81.667 -30 -153s10 -122.333 30 -153s52.667 -46 98 -46z" />
    <glyph glyph-name="uni01F1" unicode="&#x1f1;" horiz-adv-x="1162" 
d="M662 84l340 561v7h-329v88h450v-84l-341 -562v-6h351v-88h-471v84zM231 -14c-26.667 0 -53.167 0.832031 -79.5 2.49902s-52.166 4.16699 -77.499 7.5v740c37.333 4.66699 71.166 8.16699 101.499 10.5s57.5 3.5 81.5 3.5c60.667 0 112.834 -7.5 156.501 -22.5
s79.667 -38 108 -69s49.166 -70.5 62.499 -118.5s20 -105 20 -171c0 -67.333 -7 -125.166 -21 -173.499s-36.167 -88 -66.5 -119s-69 -53.833 -116 -68.5s-103.5 -22 -169.5 -22zM264 71.999c40.667 0 75.832 5.49902 105.499 16.499s54 28.5 73 52.5s33 54.833 42 92.5
s13.5 82.834 13.5 135.501c0 53.333 -4.16699 98.666 -12.5 135.999s-21.666 67.833 -39.999 91.5s-42 40.834 -71 51.501s-63.833 16 -104.5 16c-15.333 0 -31 -0.666992 -47 -2s-31.667 -3 -47 -5v-579c17.333 -2 32.833 -3.5 46.5 -4.5s27.5 -1.5 41.5 -1.5z" />
    <glyph glyph-name="uni01F2" unicode="&#x1f2;" horiz-adv-x="1085" 
d="M674 67l249 386v5h-240v82h360v-66l-247 -386v-6h257v-82h-379v67zM231 -14c-26.667 0 -53.167 0.832031 -79.5 2.49902s-52.166 4.16699 -77.499 7.5v740c37.333 4.66699 71.166 8.16699 101.499 10.5s57.5 3.5 81.5 3.5c60.667 0 112.834 -7.5 156.501 -22.5
s79.667 -38 108 -69s49.166 -70.5 62.499 -118.5s20 -105 20 -171c0 -67.333 -7 -125.166 -21 -173.499s-36.167 -88 -66.5 -119s-69 -53.833 -116 -68.5s-103.5 -22 -169.5 -22zM264 71.999c40.667 0 75.832 5.49902 105.499 16.499s54 28.5 73 52.5s33 54.833 42 92.5
s13.5 82.834 13.5 135.501c0 53.333 -4.16699 98.666 -12.5 135.999s-21.666 67.833 -39.999 91.5s-42 40.834 -71 51.501s-63.833 16 -104.5 16c-15.333 0 -31 -0.666992 -47 -2s-31.667 -3 -47 -5v-579c17.333 -2 32.833 -3.5 46.5 -4.5s27.5 -1.5 41.5 -1.5z" />
    <glyph glyph-name="uni01F3" unicode="&#x1f3;" horiz-adv-x="981" 
d="M570 67l249 386v5h-240v82h360v-66l-247 -386v-6h257v-82h-379v67zM230 -9c-64 0 -111.834 22.167 -143.501 66.5s-47.5 112.5 -47.5 204.5c0 94.667 21.5 166.167 64.5 214.5s104.167 72.5 183.5 72.5c14.667 0 28.834 -0.666992 42.501 -2s29.167 -3 46.5 -5v266h100
v-808h-89l-8 58h-5c-33.333 -44.667 -81.333 -67 -144 -67zM258.999 67c32 0 59.5 10.666 82.5 31.999s34.5 53.333 34.5 96v270c-16 3.33301 -31.333 6 -46 8s-30 3 -46 3c-48 0 -83.667 -16 -107 -48s-35 -84.333 -35 -157c0 -71.333 9.5 -123.166 28.5 -155.499
s48.5 -48.5 88.5 -48.5z" />
    <glyph glyph-name="Gacute" unicode="&#x1f4;" horiz-adv-x="600" 
d="M298 797l72 149h105l-101 -155zM362 -10c-109.333 0.666992 -190.001 31.8301 -242.001 93.4971s-78 156.834 -78 285.501c0 130.667 27.333 226.667 82 288s139.667 92 255 92c22.667 0 48.5 -1.66699 77.5 -5s57.167 -8 84.5 -14v-86
c-32 6.66699 -60.167 11.334 -84.5 14.001s-47.166 4 -68.499 4c-43.333 0 -80.333 -5.33301 -111 -16s-55.5 -27.667 -74.5 -51s-32.833 -53.5 -41.5 -90.5s-13 -82.167 -13 -135.5c0 -52 4.16699 -96.5 12.5 -133.5s21.5 -67.167 39.5 -90.5s41 -40.333 69 -51
s61.667 -16 101 -16c10.667 0 23 0.5 37 1.5s28.667 2.5 44 4.5v292h95v-365c-36 -7.33301 -69 -12.666 -99 -15.999s-58.333 -5 -85 -5z" />
    <glyph glyph-name="gacute" unicode="&#x1f5;" horiz-adv-x="539" 
d="M246 617l70 185h104l-102 -192zM236 -220c-54.667 0 -106.998 7.67188 -156.998 23.0049l8 79c49.333 -15.333 95.666 -23 138.999 -23c50.667 0 88.667 13.667 114 41s38.666 74.333 39.999 141v29h-5c-33.333 -44.667 -81 -67 -143 -67
c-64.667 0 -113 21.167 -145 63.5s-48 108.166 -48 197.499c0 93.333 21.667 164.166 65 212.499s104.333 72.5 183 72.5c30 0 59.833 -2 89.5 -6s63.167 -11.333 100.5 -22v-458c0 -50.667 -5.5 -93.834 -16.5 -129.501s-26.667 -64.834 -47 -87.501
s-45.5 -39.334 -75.5 -50.001s-64 -16 -102 -16zM259.002 77.0049c32 0 59.5 10.5 82.5 31.5s34.5 51.5 34.5 91.5v265c-16 3.33301 -31.333 6 -46 8s-29.667 3 -45 3c-48.667 0 -84.667 -15.833 -108 -47.5s-35 -83.5 -35 -155.5c0 -68.667 9.5 -118.5 28.5 -149.5
s48.5 -46.5 88.5 -46.5z" />
    <glyph glyph-name="Aringacute" unicode="&#x1fa;" horiz-adv-x="612" 
d="M5 7l203 649c-23.333 20 -35 48.333 -35 85c0 30.667 9.16699 57 27.5 79s43.5 35.667 75.5 41l56 105h105l-75 -114c23.333 -8.66699 41.833 -23 55.5 -43s20.5 -42.667 20.5 -68c0 -17.333 -3 -33 -9 -47s-14.333 -26 -25 -36l203 -651v-7h-98l-66 210h-274l-66 -210
h-98v7zM305 675c20.667 0 36.998 6.16699 48.998 18.5s18 28.166 18 47.499s-5.83301 35.166 -17.5 47.499s-28.167 18.5 -49.5 18.5s-37.666 -6.16699 -48.999 -18.5s-17 -28.166 -17 -47.499s5.83301 -35.166 17.5 -47.499s27.834 -18.5 48.501 -18.5zM418.998 299
l-73 241l-22 75h-36l-21 -75l-75 -241h227z" />
    <glyph glyph-name="aringacute" unicode="&#x1fb;" horiz-adv-x="490" 
d="M168 -5c-43.333 0 -77.165 12.832 -101.498 38.499s-36.5 61.5 -36.5 107.5c0 102.667 64.667 158.334 194 167.001l106 7v39c0 22 -1.83301 40.333 -5.5 55s-9.83398 26.5 -18.501 35.5s-20.167 15.5 -34.5 19.5s-32.166 6 -53.499 6c-18 0 -40.5 -1.5 -67.5 -4.5
s-52.167 -7.16699 -75.5 -12.5l-7 77c29.333 5.33301 58.166 9.5 86.499 12.5s55.166 4.5 80.499 4.5c67.333 0 116.833 -13.833 148.5 -41.5s47.5 -71.167 47.5 -130.5v-375h-84l-9 66h-7c-23.333 -20 -48.833 -36.833 -76.5 -50.5s-56.5 -20.5 -86.5 -20.5z
M251.001 602.999c-34 0 -60.999 10.167 -80.999 30.5s-30 46.166 -30 77.499c0 28 8.5 51.833 25.5 71.5s40.5 31.167 70.5 34.5l62 162h104l-93 -175c17.333 -9.33301 30.666 -22 39.999 -38s14 -34.333 14 -55c0 -31.333 -10.167 -57.166 -30.5 -77.499
s-47.5 -30.5 -81.5 -30.5zM205.002 71.999c10 0 20.667 1.66895 32 5.00195s22.5 7.66602 33.5 12.999s21.5 11.166 31.5 17.499l28 17.5v126l-81 -7c-42.667 -3.33301 -73 -12.5 -91 -27.5s-27 -37.167 -27 -66.5c0 -52 24.667 -78 74 -78zM251.002 650.001
c19.333 0 34.001 5.66699 44.001 17s15 26 15 44s-5 32.5 -15 43.5s-24.667 16.5 -44 16.5c-18.667 0 -32.834 -5.5 -42.501 -16.5s-14.5 -25.5 -14.5 -43.5c0 -18.667 5 -33.5 15 -44.5s24 -16.5 42 -16.5z" />
    <glyph glyph-name="AEacute" unicode="&#x1fc;" horiz-adv-x="820" 
d="M439 797l72 149h105l-101 -155zM3 7l255 733h513v-87h-293l12 -236h258v-87h-253l13 -243h273v-87h-374l-9 210h-219l-73 -210h-103v7zM210 299h185l-15 360h-45z" />
    <glyph glyph-name="aeacute" unicode="&#x1fd;" horiz-adv-x="786" 
d="M365 617l70 185h104l-102 -192zM564 -10c-83.333 0 -143.33 30.665 -179.997 91.998l-7 1c-46 -31.333 -84.833 -53.833 -116.5 -67.5s-62.5 -20.5 -92.5 -20.5c-43.333 0 -77.166 12.833 -101.499 38.5s-36.5 61.5 -36.5 107.5c0 52 15.833 91.333 47.5 118
s80.5 42.667 146.5 48l107 8v50c0 38.667 -8.66699 65.834 -26 81.501s-46.666 23.5 -87.999 23.5c-9.33301 0 -19.833 -0.5 -31.5 -1.5s-23.834 -2.16699 -36.501 -3.5s-25.334 -3 -38.001 -5s-24.334 -4.33301 -35.001 -7l-8 77c31.333 5.33301 61.166 9.5 89.499 12.5
s54.5 4.5 78.5 4.5c79.333 0 129.666 -29 150.999 -87h6c35.333 58.667 91 88 167 88c125.333 0 188 -79.667 188 -239c0 -17.333 -0.333008 -31.333 -1 -42s-1.66699 -21 -3 -31h-312c2 -56.667 14 -98.5 36 -125.5s56 -40.5 102 -40.5c22 0 46 2.33301 72 7
s53.333 12.334 82 23.001l5 -78c-23.333 -10 -49.833 -17.833 -79.5 -23.5s-58.167 -8.5 -85.5 -8.5zM205.003 71.998c19.333 0 39.501 5.33203 60.501 15.999s45.5 25.667 73.5 45c-1.33301 4 -2.5 11.333 -3.5 22s-1.83301 22 -2.5 34s-1.16699 23.833 -1.5 35.5
s-0.5 20.834 -0.5 27.501l-82 -8c-42.667 -4 -72.834 -13.167 -90.501 -27.5s-26.5 -36.5 -26.5 -66.5c0 -52 24.333 -78 73 -78zM657.004 300.997c-2 60.667 -10.667 104.167 -26 130.5s-40 39.5 -74 39.5c-78 0 -119.667 -56.667 -125 -170h225z" />
    <glyph glyph-name="Oslashacute" unicode="&#x1fe;" horiz-adv-x="677" 
d="M102 110c-37.333 62.667 -56 149 -56 259c0 254 97.667 381 293 381c80 0 144.333 -22.333 193 -67l43 57h82l-83 -110c38.667 -64 58 -151 58 -261c0 -252.667 -97.667 -379 -293 -379c-82 0 -146.667 22.333 -194 67l-42 -57h-83zM339 77c32.667 0 61 5.5 85 16.5
s43.5 28.333 58.5 52s26.167 54 33.5 91s11 81.167 11 132.5c0 69.333 -7 126 -21 170l-303 -404c30 -38.667 75.333 -58 136 -58zM151 369c0 -69.333 6.33301 -125.334 19 -168.001l303 404c-30 38.667 -74.667 58 -134 58c-65.333 0 -113 -23.167 -143 -69.5
s-45 -121.166 -45 -224.499zM294 796.999l72 149h105l-101 -155z" />
    <glyph glyph-name="oslashacute" unicode="&#x1ff;" horiz-adv-x="541" 
d="M84 84c-28.667 47.333 -42.999 109.333 -42.999 186c0 91.333 19.333 160.833 58 208.5s96 71.5 172 71.5c60 0 108.667 -15.667 146 -47l30 37h74l-65 -82c29.333 -47.333 44 -110 44 -188c0 -91.333 -19.167 -160.833 -57.5 -208.5s-95.5 -71.5 -171.5 -71.5
c-62.667 0 -112.334 16 -149.001 48l-30 -38h-74zM271.001 71c46 0 78.667 15.5 98 46.5s29 81.833 29 152.5c0 42 -3.33301 76.333 -10 103l-210 -265c20 -24.667 51 -37 93 -37zM143.001 270c0 -40.667 3 -74.333 9 -101l209 263c-20 24.667 -50 37 -90 37
c-46.667 0 -79.667 -15.5 -99 -46.5s-29 -81.833 -29 -152.5zM226.001 617.001l70 185h104l-102 -192z" />
    <glyph glyph-name="Adblgrave" unicode="&#x200;" horiz-adv-x="612" 
d="M5 7l225 733h152l225 -733v-7h-98l-67 212h-273l-66 -212h-98v7zM420 297l-76 243l-34 118h-9l-34 -118l-75 -243h228zM196 790l-101 155h93l73 -143zM358 790l-102 155h93l73 -143z" />
    <glyph glyph-name="adblgrave" unicode="&#x201;" horiz-adv-x="490" 
d="M168 -5c-43.333 0 -77.165 12.832 -101.498 38.499s-36.5 61.5 -36.5 107.5c0 102.667 64.667 158.334 194 167.001l106 7v39c0 22 -1.83301 40.333 -5.5 55s-9.83398 26.5 -18.501 35.5s-20.167 15.5 -34.5 19.5s-32.166 6 -53.499 6c-18 0 -40.5 -1.5 -67.5 -4.5
s-52.167 -7.16699 -75.5 -12.5l-7 77c29.333 5.33301 58.166 9.5 86.499 12.5s55.166 4.5 80.499 4.5c67.333 0 116.833 -13.833 148.5 -41.5s47.5 -71.167 47.5 -130.5v-375h-84l-9 66h-7c-23.333 -20 -48.833 -36.833 -76.5 -50.5s-56.5 -20.5 -86.5 -20.5z
M205.001 71.999c10 0 20.667 1.66895 32 5.00195s22.5 7.66602 33.5 12.999s21.5 11.166 31.5 17.499l28 17.5v126l-81 -7c-42.667 -3.33301 -73 -12.5 -91 -27.5s-27 -37.167 -27 -66.5c0 -52 24.667 -78 74 -78zM140.001 611.001l-103 193h95l70 -183zM314.001 611.001
l-103 193h95l70 -183z" />
    <glyph glyph-name="Ainvertedbreve" unicode="&#x202;" horiz-adv-x="612" 
d="M5 7l225 733h152l225 -733v-7h-98l-67 212h-273l-66 -212h-98v7zM420 297l-76 243l-34 118h-9l-34 -118l-75 -243h228zM400 816c0 65.333 -31.3311 98 -93.998 98c-63.333 0 -95 -32.667 -95 -98h-73c0 48 14.167 85.667 42.5 113s70.166 41 125.499 41
s97.166 -13.667 125.499 -41s42.5 -65 42.5 -113h-74z" />
    <glyph glyph-name="ainvertedbreve" unicode="&#x203;" horiz-adv-x="490" 
d="M168 -5c-43.333 0 -77.165 12.832 -101.498 38.499s-36.5 61.5 -36.5 107.5c0 102.667 64.667 158.334 194 167.001l106 7v39c0 22 -1.83301 40.333 -5.5 55s-9.83398 26.5 -18.501 35.5s-20.167 15.5 -34.5 19.5s-32.166 6 -53.499 6c-18 0 -40.5 -1.5 -67.5 -4.5
s-52.167 -7.16699 -75.5 -12.5l-7 77c29.333 5.33301 58.166 9.5 86.499 12.5s55.166 4.5 80.499 4.5c67.333 0 116.833 -13.833 148.5 -41.5s47.5 -71.167 47.5 -130.5v-375h-84l-9 66h-7c-23.333 -20 -48.833 -36.833 -76.5 -50.5s-56.5 -20.5 -86.5 -20.5z
M205.001 71.999c10 0 20.667 1.66895 32 5.00195s22.5 7.66602 33.5 12.999s21.5 11.166 31.5 17.499l28 17.5v126l-81 -7c-42.667 -3.33301 -73 -12.5 -91 -27.5s-27 -37.167 -27 -66.5c0 -52 24.667 -78 74 -78zM86.001 623.001c1.33301 48 15.833 85 43.5 111
s69.167 39 124.5 39s96.833 -13 124.5 -39s42.167 -63 43.5 -111h-74c0 30.667 -8.16699 53.5 -24.5 68.5s-39.5 22.5 -69.5 22.5s-53.167 -7.33301 -69.5 -22s-24.833 -37.667 -25.5 -69h-73z" />
    <glyph glyph-name="Edblgrave" unicode="&#x204;" horiz-adv-x="552" 
d="M74 740h432v-87h-329v-236h297v-87h-297v-243h338v-87h-441v740zM181 790l-101 155h93l73 -143zM343 790l-102 155h93l73 -143z" />
    <glyph glyph-name="edblgrave" unicode="&#x205;" horiz-adv-x="492" 
d="M139 611l-103 193h95l70 -183zM313 611l-103 193h95l70 -183zM270 -9c-75.333 0 -132.668 23 -172.001 69s-59 113.333 -59 202c0 94 19.333 165.333 58 214s95.334 73 170.001 73c126 0 189 -80 189 -240c0 -16.667 -0.5 -30.667 -1.5 -42s-2.16699 -22.333 -3.5 -33
h-311c3.33301 -58 15.833 -99.667 37.5 -125s55.167 -38 100.5 -38c22 0 46 2.5 72 7.5s53 12.167 81 21.5l5 -78c-23.333 -9.33301 -49.833 -16.833 -79.5 -22.5s-58.5 -8.5 -86.5 -8.5zM263.998 472c-75.333 0 -116.333 -56 -123 -168h223
c-1.33301 60 -9.83301 103 -25.5 129s-40.5 39 -74.5 39z" />
    <glyph glyph-name="Einvertedbreve" unicode="&#x206;" horiz-adv-x="552" 
d="M74 740h432v-87h-329v-236h297v-87h-297v-243h338v-87h-441v740zM385 816c0 65.333 -31.3311 98 -93.998 98c-63.333 0 -95 -32.667 -95 -98h-73c0 48 14.167 85.667 42.5 113s70.166 41 125.499 41s97.166 -13.667 125.499 -41s42.5 -65 42.5 -113h-74z" />
    <glyph glyph-name="einvertedbreve" unicode="&#x207;" horiz-adv-x="492" 
d="M87 623c1.33301 48 15.833 85 43.5 111s69.167 39 124.5 39s96.833 -13 124.5 -39s42.167 -63 43.5 -111h-74c0 30.667 -8.16699 53.5 -24.5 68.5s-39.5 22.5 -69.5 22.5s-53.167 -7.33301 -69.5 -22s-24.833 -37.667 -25.5 -69h-73zM270 -9
c-75.333 0 -132.668 23 -172.001 69s-59 113.333 -59 202c0 94 19.333 165.333 58 214s95.334 73 170.001 73c126 0 189 -80 189 -240c0 -16.667 -0.5 -30.667 -1.5 -42s-2.16699 -22.333 -3.5 -33h-311c3.33301 -58 15.833 -99.667 37.5 -125s55.167 -38 100.5 -38
c22 0 46 2.5 72 7.5s53 12.167 81 21.5l5 -78c-23.333 -9.33301 -49.833 -16.833 -79.5 -22.5s-58.5 -8.5 -86.5 -8.5zM263.998 472c-75.333 0 -116.333 -56 -123 -168h223c-1.33301 60 -9.83301 103 -25.5 129s-40.5 39 -74.5 39z" />
    <glyph glyph-name="Idblgrave" unicode="&#x208;" horiz-adv-x="251" 
d="M74 740h103v-740h-103v740zM20 790l-101 155h93l73 -143zM182 790l-102 155h93l73 -143z" />
    <glyph glyph-name="idblgrave" unicode="&#x209;" horiz-adv-x="229" 
d="M6 611l-103 193h95l70 -183zM180 611l-103 193h95l70 -183zM65 540h100v-540h-100v540z" />
    <glyph glyph-name="Iinvertedbreve" unicode="&#x20a;" horiz-adv-x="251" 
d="M74 740h103v-740h-103v740zM222 816c0 65.333 -31.3311 98 -93.998 98c-63.333 0 -95 -32.667 -95 -98h-73c0 48 14.167 85.667 42.5 113s70.166 41 125.499 41s97.166 -13.667 125.499 -41s42.5 -65 42.5 -113h-74z" />
    <glyph glyph-name="iinvertedbreve" unicode="&#x20b;" horiz-adv-x="229" 
d="M-38 623c1.33301 48 15.5 85 42.5 111s66.5 39 118.5 39s91.5 -13 118.5 -39s41.167 -63 42.5 -111h-70c-0.666992 30.667 -8.66699 53.5 -24 68.5s-37.666 22.5 -66.999 22.5s-51.833 -7.33301 -67.5 -22s-23.834 -37.667 -24.501 -69h-69zM65 540h100v-540h-100v540z
" />
    <glyph glyph-name="Odblgrave" unicode="&#x20c;" horiz-adv-x="671" 
d="M335 -10c-195.333 0 -293 126.333 -293 379c0 254 97.667 381 293 381c97.333 0 170.666 -31.5 219.999 -94.5s74 -158.5 74 -286.5c0 -126.667 -24.667 -221.5 -74 -284.5s-122.666 -94.5 -219.999 -94.5zM335 77c32.667 0 61.001 5.5 85.001 16.5s43.667 28.333 59 52
s26.666 54 33.999 91s11 81.167 11 132.5c0 103.333 -15 178.166 -45 224.499s-78 69.5 -144 69.5c-65.333 0 -113 -23.167 -143 -69.5s-45 -121.166 -45 -224.499c0 -51.333 3.66699 -95.5 11 -132.5s18.666 -67.333 33.999 -91s34.833 -41 58.5 -52
s51.834 -16.5 84.501 -16.5zM226.001 790l-101 155h93l73 -143zM388.001 790l-102 155h93l73 -143z" />
    <glyph glyph-name="odblgrave" unicode="&#x20d;" horiz-adv-x="536" 
d="M152 611l-103 193h95l70 -183zM326 611l-103 193h95l70 -183zM268 -10c-74.667 0 -131.667 23.833 -171 71.5s-59 117.167 -59 208.5s19.667 160.833 59 208.5s96.333 71.5 171 71.5c75.333 0 132.5 -23.833 171.5 -71.5s58.5 -117.167 58.5 -208.5
s-19.5 -160.833 -58.5 -208.5s-96.167 -71.5 -171.5 -71.5zM268 71c44.667 0 77.167 15.333 97.5 46s30.5 81.667 30.5 153s-10 122.333 -30 153s-52.667 46 -98 46s-78 -15.333 -98 -46s-30 -81.667 -30 -153s10 -122.333 30 -153s52.667 -46 98 -46z" />
    <glyph glyph-name="Oinvertedbreve" unicode="&#x20e;" horiz-adv-x="671" 
d="M335 -10c-195.333 0 -293 126.333 -293 379c0 254 97.667 381 293 381c97.333 0 170.666 -31.5 219.999 -94.5s74 -158.5 74 -286.5c0 -126.667 -24.667 -221.5 -74 -284.5s-122.666 -94.5 -219.999 -94.5zM335 77c32.667 0 61.001 5.5 85.001 16.5s43.667 28.333 59 52
s26.666 54 33.999 91s11 81.167 11 132.5c0 103.333 -15 178.166 -45 224.499s-78 69.5 -144 69.5c-65.333 0 -113 -23.167 -143 -69.5s-45 -121.166 -45 -224.499c0 -51.333 3.66699 -95.5 11 -132.5s18.666 -67.333 33.999 -91s34.833 -41 58.5 -52
s51.834 -16.5 84.501 -16.5zM429.001 816c0 65.333 -31.3311 98 -93.998 98c-63.333 0 -95 -32.667 -95 -98h-73c0 48 14.167 85.667 42.5 113s70.166 41 125.499 41s97.166 -13.667 125.499 -41s42.5 -65 42.5 -113h-74z" />
    <glyph glyph-name="oinvertedbreve" unicode="&#x20f;" horiz-adv-x="536" 
d="M101 623c1.33301 48 15.833 85 43.5 111s69.167 39 124.5 39s96.833 -13 124.5 -39s42.167 -63 43.5 -111h-74c0 30.667 -8.16699 53.5 -24.5 68.5s-39.5 22.5 -69.5 22.5s-53.167 -7.33301 -69.5 -22s-24.833 -37.667 -25.5 -69h-73zM268 -10
c-74.667 0 -131.667 23.833 -171 71.5s-59 117.167 -59 208.5s19.667 160.833 59 208.5s96.333 71.5 171 71.5c75.333 0 132.5 -23.833 171.5 -71.5s58.5 -117.167 58.5 -208.5s-19.5 -160.833 -58.5 -208.5s-96.167 -71.5 -171.5 -71.5zM268 71
c44.667 0 77.167 15.333 97.5 46s30.5 81.667 30.5 153s-10 122.333 -30 153s-52.667 46 -98 46s-78 -15.333 -98 -46s-30 -81.667 -30 -153s10 -122.333 30 -153s52.667 -46 98 -46z" />
    <glyph glyph-name="Rdblgrave" unicode="&#x210;" horiz-adv-x="597" 
d="M323 269c-21.333 -2 -44.334 -3 -69.001 -3c-10 0 -22.5 0.333008 -37.5 1s-28.167 1.66699 -39.5 3v-270h-103v735c29.333 5.33301 58.5 9.33301 87.5 12s57.833 4 86.5 4c106.667 0 184.334 -19.5 233.001 -58.5s73 -100.833 73 -185.5
c0 -112.667 -46.333 -185.667 -139 -219l157 -288h-111zM262.999 349c66.667 0 114.332 12.167 142.999 36.5s43 64.833 43 121.5s-14.167 97.167 -42.5 121.5s-75.166 36.5 -140.499 36.5c-12 0 -26 -0.666992 -42 -2s-31.667 -3 -47 -5v-302c12 -2 25.667 -3.66699 41 -5
s30.333 -2 45 -2zM193.997 790l-101 155h93l73 -143zM355.997 790l-102 155h93l73 -143z" />
    <glyph glyph-name="rdblgrave" unicode="&#x211;" horiz-adv-x="356" 
d="M87 611l-103 193h95l70 -183zM261 611l-103 193h95l70 -183zM63 540h84.999l7 -71h5c18.667 14 42.667 28.833 72 44.5s58.333 27.5 87 35.5h25v-98h-38c-26.667 -3.33301 -52.667 -10 -78 -20s-46.666 -21 -63.999 -33v-398h-101v540z" />
    <glyph glyph-name="Rinvertedbreve" unicode="&#x212;" horiz-adv-x="597" 
d="M323 269c-21.333 -2 -44.334 -3 -69.001 -3c-10 0 -22.5 0.333008 -37.5 1s-28.167 1.66699 -39.5 3v-270h-103v735c29.333 5.33301 58.5 9.33301 87.5 12s57.833 4 86.5 4c106.667 0 184.334 -19.5 233.001 -58.5s73 -100.833 73 -185.5
c0 -112.667 -46.333 -185.667 -139 -219l157 -288h-111zM262.999 349c66.667 0 114.332 12.167 142.999 36.5s43 64.833 43 121.5s-14.167 97.167 -42.5 121.5s-75.166 36.5 -140.499 36.5c-12 0 -26 -0.666992 -42 -2s-31.667 -3 -47 -5v-302c12 -2 25.667 -3.66699 41 -5
s30.333 -2 45 -2zM395.997 816c0 65.333 -31.3311 98 -93.998 98c-63.333 0 -95 -32.667 -95 -98h-73c0 48 14.167 85.667 42.5 113s70.166 41 125.499 41s97.166 -13.667 125.499 -41s42.5 -65 42.5 -113h-74z" />
    <glyph glyph-name="rinvertedbreve" unicode="&#x213;" horiz-adv-x="355" 
d="M35 623c1.33301 48 15.833 85 43.5 111s69.167 39 124.5 39s96.833 -13 124.5 -39s42.167 -63 43.5 -111h-74c0 30.667 -8.16699 53.5 -24.5 68.5s-39.5 22.5 -69.5 22.5s-53.167 -7.33301 -69.5 -22s-24.833 -37.667 -25.5 -69h-73zM63 540h84.999l7 -71h5
c18.667 14 42.667 28.833 72 44.5s58.333 27.5 87 35.5h25v-98h-38c-26.667 -3.33301 -52.667 -10 -78 -20s-46.666 -21 -63.999 -33v-398h-101v540z" />
    <glyph glyph-name="Udblgrave" unicode="&#x214;" horiz-adv-x="683" 
d="M341 -10c-49.333 0 -91.3311 6 -125.998 18s-62.834 30.333 -84.501 55s-37.5 56 -47.5 94s-15 83 -15 135v448h102v-445c0 -76.667 13.667 -132 41 -166s70.666 -51 129.999 -51c60 0 103.5 16.833 130.5 50.5s40.5 89.167 40.5 166.5v445h103v-448
c0 -52 -5 -97 -15 -135s-26 -69.333 -48 -94s-50.333 -43 -85 -55s-76.667 -18 -126 -18zM229.002 790l-101 155h93l73 -143zM391.002 790l-102 155h93l73 -143z" />
    <glyph glyph-name="udblgrave" unicode="&#x215;" horiz-adv-x="536" 
d="M156 611l-103 193h95l70 -183zM330 611l-103 193h95l70 -183zM193 -10c-89.333 0 -134 48.002 -134 144.002v406h101v-377c0 -32 5.16699 -54.333 15.5 -67s28.166 -19 53.499 -19c22.667 0 45.334 4.5 68.001 13.5s47.667 22.167 75 39.5v410h101v-540h-85l-7 59h-4
c-20.667 -12.667 -39.167 -23.334 -55.5 -32.001s-31.5 -15.834 -45.5 -21.501s-27.667 -9.66699 -41 -12s-27.333 -3.5 -42 -3.5z" />
    <glyph glyph-name="Uinvertedbreve" unicode="&#x216;" horiz-adv-x="683" 
d="M341 -10c-49.333 0 -91.3311 6 -125.998 18s-62.834 30.333 -84.501 55s-37.5 56 -47.5 94s-15 83 -15 135v448h102v-445c0 -76.667 13.667 -132 41 -166s70.666 -51 129.999 -51c60 0 103.5 16.833 130.5 50.5s40.5 89.167 40.5 166.5v445h103v-448
c0 -52 -5 -97 -15 -135s-26 -69.333 -48 -94s-50.333 -43 -85 -55s-76.667 -18 -126 -18zM432.002 816c0 65.333 -31.3311 98 -93.998 98c-63.333 0 -95 -32.667 -95 -98h-73c0 48 14.167 85.667 42.5 113s70.166 41 125.499 41s97.166 -13.667 125.499 -41
s42.5 -65 42.5 -113h-74z" />
    <glyph glyph-name="uinvertedbreve" unicode="&#x217;" horiz-adv-x="536" 
d="M103 623c1.33301 48 15.833 85 43.5 111s69.167 39 124.5 39s96.833 -13 124.5 -39s42.167 -63 43.5 -111h-74c0 30.667 -8.16699 53.5 -24.5 68.5s-39.5 22.5 -69.5 22.5s-53.167 -7.33301 -69.5 -22s-24.833 -37.667 -25.5 -69h-73zM193 -10
c-89.333 0 -134 48.002 -134 144.002v406h101v-377c0 -32 5.16699 -54.333 15.5 -67s28.166 -19 53.499 -19c22.667 0 45.334 4.5 68.001 13.5s47.667 22.167 75 39.5v410h101v-540h-85l-7 59h-4c-20.667 -12.667 -39.167 -23.334 -55.5 -32.001
s-31.5 -15.834 -45.5 -21.501s-27.667 -9.66699 -41 -12s-27.333 -3.5 -42 -3.5z" />
    <glyph glyph-name="uni0218" unicode="&#x218;" horiz-adv-x="519" 
d="M216 -68h104l-71 -152h-80zM250 -12c-32 0 -67.5 3.00293 -106.5 9.00293s-75.167 14.333 -108.5 25l4 87c14 -4.66699 29.333 -9.16699 46 -13.5s33.834 -8 51.501 -11s35.167 -5.33301 52.5 -7s33.333 -2.5 48 -2.5c48 0 84.667 10.167 110 30.5s38 49.5 38 87.5
c0 18.667 -3.33301 34.834 -10 48.501s-16.5 25.667 -29.5 36s-28.833 19.833 -47.5 28.5s-40 17 -64 25c-31.333 10 -58.666 21 -81.999 33s-43 26.167 -59 42.5s-28 35.833 -36 58.5s-12 49.667 -12 81s5.5 59.666 16.5 84.999s26.833 47 47.5 65s45.667 31.833 75 41.5
s62.333 14.5 99 14.5c26.667 0 54 -1.83301 82 -5.5s59 -9.83398 93 -18.501l-3 -85c-30 7.33301 -59.5 13.166 -88.5 17.499s-54.167 6.5 -75.5 6.5c-44 0 -78.5 -10.833 -103.5 -32.5s-37.5 -50.834 -37.5 -87.501c0 -17.333 3 -32.333 9 -45s15.167 -24.167 27.5 -34.5
s27.833 -19.833 46.5 -28.5s41 -17.667 67 -27c30 -10 56.667 -21.167 80 -33.5s43.166 -26.833 59.499 -43.5s28.666 -36.167 36.999 -58.5s12.5 -48.833 12.5 -79.5c0 -66.667 -21 -118.167 -63 -154.5s-100.667 -54.5 -176 -54.5z" />
    <glyph glyph-name="uni0219" unicode="&#x219;" horiz-adv-x="420" 
d="M166 -68h104l-71 -152h-80zM198 -11c-22.667 0 -46.668 1.99902 -72.001 5.99902s-54.333 9.66699 -87 17v79c25.333 -7.33301 51.333 -13.333 78 -18s52.334 -7 77.001 -7c31.333 0 55.166 7 71.499 21s24.5 33.667 24.5 59c0 24.667 -7.16699 43.5 -21.5 56.5
s-36.5 22.833 -66.5 29.5c-17.333 3.33301 -35.5 7.33301 -54.5 12s-36.167 12.5 -51.5 23.5s-28 26.333 -38 46s-15 46.167 -15 79.5c0 50 15.833 89 47.5 117s75.834 42 132.501 42c20.667 0 41.667 -1.5 63 -4.5s48 -7.83301 80 -14.5l-1 -79
c-30.667 7.33301 -55.334 12.333 -74.001 15s-36.334 4 -53.001 4c-32 0 -56.667 -6.83301 -74 -20.5s-26 -32.5 -26 -56.5c0 -14.667 2.5 -26.667 7.5 -36s11.667 -17 20 -23s18.333 -10.833 30 -14.5s24.5 -7.16699 38.5 -10.5c21.333 -4.66699 41.333 -10.5 60 -17.5
s34.834 -16.5 48.501 -28.5s24.5 -27.167 32.5 -45.5s12 -41.166 12 -68.499c0 -50.667 -16.667 -90.5 -50 -119.5s-79.666 -43.5 -138.999 -43.5z" />
    <glyph glyph-name="uni021A" unicode="&#x21a;" horiz-adv-x="531" 
d="M225 -68h104l-71 -152h-80zM213 652h-198v88h501v-88h-199v-652h-104v652z" />
    <glyph glyph-name="uni021B" unicode="&#x21b;" horiz-adv-x="365" 
d="M179 -68h104l-71 -152h-80zM263 -7c-102 0 -152.999 50.334 -152.999 151.001v309h-97v87h103l14 140l80 12v-152h137v-87h-136v-288c0 -61.333 26.333 -92 79 -92c8 0 17.167 0.666992 27.5 2s20.166 3.66602 29.499 6.99902v-79
c-13.333 -3.33301 -27.333 -5.83301 -42 -7.5s-28.667 -2.5 -42 -2.5z" />
    <glyph glyph-name="dotlessj" unicode="&#x237;" horiz-adv-x="225" 
d="M0 -200c11.333 26 21.168 51.3311 29.501 75.998s15.166 50.334 20.499 77.001s9.16602 55.334 11.499 86.001s3.5 65 3.5 103v33c0 17.333 -0.166992 38.333 -0.5 63s-0.5 51.667 -0.5 81s-0.166992 58 -0.5 86s-0.666016 54 -0.999023 78s-0.5 43 -0.5 57h101v-457
c-4 -108 -34 -209 -90 -303z" />
    <glyph glyph-name="schwa" unicode="&#x259;" horiz-adv-x="500" 
d="M224 549c77.333 0 136.168 -23.1689 176.501 -69.502s60.5 -113.166 60.5 -200.499c0 -94 -19.833 -165.5 -59.5 -214.5s-97.5 -73.5 -173.5 -73.5c-65.333 0 -113.5 20 -144.5 60s-46.5 100.667 -46.5 182c0 15.333 0.333008 28.5 1 39.5s2 22.167 4 33.5h320
c-3.33301 56.667 -16.333 97.834 -39 123.501s-58.334 38.5 -107.001 38.5c-47.333 0 -99 -9.33301 -155 -28l-5 78c24 9.33301 51 16.833 81 22.5s59 8.5 87 8.5zM232.002 68.998c80 0 123.333 56.333 130 169h-236c1.33301 -60.667 10 -104 26 -130s42.667 -39 80 -39z
" />
    <glyph glyph-name="apostrophe" unicode="&#x2bc;" horiz-adv-x="204" 
d="M148 808v-4l-34 -224h-49v228h83z" />
    <glyph glyph-name="circumflex" unicode="&#x2c6;" horiz-adv-x="393" 
d="M40 703l151 73l153 -73v-76l-152 72l-152 -72v76z" />
    <glyph glyph-name="caron" unicode="&#x2c7;" horiz-adv-x="381" 
d="M36 779l152 -73l152 73v-77l-152 -72l-152 72v77z" />
    <glyph glyph-name="uni02C9" unicode="&#x2c9;" horiz-adv-x="412" 
d="M57 711h298v-70h-298v70z" />
    <glyph glyph-name="breve" unicode="&#x2d8;" horiz-adv-x="431" 
d="M214 617c-55.333 0 -96.833 13.167 -124.5 39.5s-42.167 63.166 -43.5 110.499h73c0 -60.667 31.667 -91 95 -91c62.667 0 94 30.333 94 91h74c-1.33301 -47.333 -16 -84.166 -44 -110.499s-69.333 -39.5 -124 -39.5z" />
    <glyph glyph-name="dotaccent" unicode="&#x2d9;" horiz-adv-x="242" 
d="M114 625c-40.667 0 -61 19.999 -61 59.999c0 21.333 5 36.666 15 45.999s25.333 14 46 14c20 0 35.333 -4.66699 46 -14s16 -24.666 16 -45.999s-5.33301 -36.666 -16 -45.999s-26 -14 -46 -14z" />
    <glyph glyph-name="ring" unicode="&#x2da;" horiz-adv-x="313" 
d="M153 603c-34 0 -61 10.167 -81 30.5s-30 46.166 -30 77.499c0 30.667 10 56.167 30 76.5s47 30.5 81 30.5s61.167 -10.167 81.5 -30.5s30.5 -45.833 30.5 -76.5c0 -31.333 -10.167 -57.166 -30.5 -77.499s-47.5 -30.5 -81.5 -30.5zM153 650
c19.333 0 34.001 5.66699 44.001 17s15 26 15 44s-5 32.5 -15 43.5s-24.667 16.5 -44 16.5c-18.667 0 -32.834 -5.5 -42.501 -16.5s-14.5 -25.5 -14.5 -43.5c0 -18.667 5 -33.5 15 -44.5s24 -16.5 42 -16.5z" />
    <glyph glyph-name="ogonek" unicode="&#x2db;" horiz-adv-x="275" 
d="M154 -220c-71.333 0 -107 30 -107 90c0 24.667 7.33301 47.5 22 68.5s38 41.5 70 61.5h83v-14c-36 -15.333 -62.333 -32.5 -79 -51.5s-25 -37.833 -25 -56.5c0 -22.667 14.333 -34 43 -34c20.667 0 41 3.66699 61 11v-63c-22 -8 -44.667 -12 -68 -12z" />
    <glyph glyph-name="tilde" unicode="&#x2dc;" horiz-adv-x="440" 
d="M31 664c15.333 25.333 33.668 44.833 55.001 58.5s42.333 20.5 63 20.5c14 0 27.167 -2.5 39.5 -7.5s24.166 -10.333 35.499 -16s22.833 -11 34.5 -16s24.167 -7.5 37.5 -7.5c23.333 0 46.333 13.333 69 40l29 -28c-14.667 -27.333 -32.667 -47.833 -54 -61.5
s-42.666 -20.5 -63.999 -20.5c-13.333 0 -26 2.5 -38 7.5s-24 10.333 -36 16s-24 11 -36 16s-24.333 7.5 -37 7.5c-24.667 0 -48.334 -13 -71.001 -39z" />
    <glyph glyph-name="hungarumlaut" unicode="&#x2dd;" horiz-adv-x="404" 
d="M38 621l71 183h95l-103 -193zM212 621l71 183h94l-102 -193z" />
    <glyph glyph-name="uni030F" unicode="&#x30f;" horiz-adv-x="411" 
d="M129 611l-103 193h95l70 -183zM303 611l-103 193h95l70 -183z" />
    <glyph glyph-name="uni0311" unicode="&#x311;" horiz-adv-x="429" 
d="M45 623c1.33301 48 15.833 85 43.5 111s69.167 39 124.5 39s96.833 -13 124.5 -39s42.167 -63 43.5 -111h-74c0 30.667 -8.16699 53.5 -24.5 68.5s-39.5 22.5 -69.5 22.5s-53.167 -7.33301 -69.5 -22s-24.833 -37.667 -25.5 -69h-73v0z" />
    <glyph glyph-name="uni0394" unicode="&#x394;" horiz-adv-x="631" 
d="M251 740h129l251 -740h-631zM506 87l-191 561l-190 -561h381z" />
    <glyph glyph-name="uni03A9" unicode="&#x3a9;" horiz-adv-x="735" 
d="M39 85l198 -6.00098c-23.333 14 -46.166 31 -68.499 51s-42.166 43.833 -59.499 71.5s-31.5 59 -42.5 94s-16.5 74.5 -16.5 118.5c0 50.667 7.5 96.667 22.5 138s36.5 76.666 64.5 105.999s61.5 52 100.5 68s82.5 24 130.5 24s91.5 -8 130.5 -24s72.333 -38.667 100 -68
s49 -64.666 64 -105.999s22.5 -87.333 22.5 -138c0 -44 -5.5 -83.667 -16.5 -119s-25.333 -66.666 -43 -93.999s-37.667 -51 -60 -71s-44.833 -37 -67.5 -51l198 6v-85h-284v72c17.333 12 36.166 26.5 56.499 43.5s39.333 38.833 57 65.5s32.334 58.667 44.001 96
s17.5 82 17.5 134c0 38.667 -5.16699 73.834 -15.5 105.501s-25.166 58.667 -44.499 81s-42.5 39.666 -69.5 51.999s-56.833 18.5 -89.5 18.5s-62.334 -6.16699 -89.001 -18.5s-49.5 -29.666 -68.5 -51.999s-33.667 -49.333 -44 -81s-15.5 -66.834 -15.5 -105.501
c0 -55.333 6.66699 -102.333 20 -141s29.166 -71.167 47.499 -97.5s37.166 -47.5 56.499 -63.5s35.333 -28.333 48 -37v-72h-284v85z" />
    <glyph glyph-name="uni03BC" unicode="&#x3bc;" horiz-adv-x="539" 
d="M63 540l100.001 0.00195312v-377c0 -58.667 24 -88 72 -88c21.333 0 43.166 4.16699 65.499 12.5s47.5 20.833 75.5 37.5v415h101v-540h-85l-7 59h-4c-20.667 -12.667 -39.167 -23.334 -55.5 -32.001s-31.5 -15.834 -45.5 -21.501s-27.667 -9.66699 -41 -12
s-27.333 -3.5 -42 -3.5c-12.667 0 -24 1 -34 3v-213h-100v760z" />
    <glyph glyph-name="pi" unicode="&#x3c0;" horiz-adv-x="695" 
d="M196 454h-16.999c-28 0 -49.5 -5.66699 -64.5 -17s-25.167 -29.333 -30.5 -54l-75 23c14 89.333 68.667 134 164 134h470l31 -28v-58h-131v-306c0 -24.667 6 -43.167 18 -55.5s28 -18.5 48 -18.5c3.33301 0 8.16602 0.333008 14.499 1s11.5 1.66699 15.5 3v-79
c-6 -1.33301 -14.5 -2.5 -25.5 -3.5s-20.5 -1.5 -28.5 -1.5c-43.333 0 -77 11.333 -101 34s-36 56 -36 100v326h-157v-557h-95v557z" />
    <glyph glyph-name="Ddotbelow" unicode="&#x1e0c;" horiz-adv-x="646" 
d="M305 -186c-18.667 0 -32.334 4.16699 -41.001 12.5s-13 22.166 -13 41.499s4.33301 33 13 41s22.334 12 41.001 12c18 0 31.5 -4 40.5 -12s13.5 -21.667 13.5 -41s-4.5 -33.166 -13.5 -41.499s-22.5 -12.5 -40.5 -12.5zM231 -14
c-26.667 0 -53.167 0.832031 -79.5 2.49902s-52.166 4.16699 -77.499 7.5v740c37.333 4.66699 71.166 8.16699 101.499 10.5s57.5 3.5 81.5 3.5c60.667 0 112.834 -7.5 156.501 -22.5s79.667 -38 108 -69s49.166 -70.5 62.499 -118.5s20 -105 20 -171
c0 -67.333 -7 -125.166 -21 -173.499s-36.167 -88 -66.5 -119s-69 -53.833 -116 -68.5s-103.5 -22 -169.5 -22zM264 71.999c40.667 0 75.832 5.49902 105.499 16.499s54 28.5 73 52.5s33 54.833 42 92.5s13.5 82.834 13.5 135.501c0 53.333 -4.16699 98.666 -12.5 135.999
s-21.666 67.833 -39.999 91.5s-42 40.834 -71 51.501s-63.833 16 -104.5 16c-15.333 0 -31 -0.666992 -47 -2s-31.667 -3 -47 -5v-579c17.333 -2 32.833 -3.5 46.5 -4.5s27.5 -1.5 41.5 -1.5z" />
    </font>
</defs>
</svg>
