<?xml version="1.0" standalone="no"?>
<!DOCTYPE svg PUBLIC "-//W3C//DTD SVG 1.1//EN" "http://www.w3.org/Graphics/SVG/1.1/DTD/svg11.dtd" >
<svg>
<metadata>
Created by FontForge 20090914 at Sat Aug  6 09:08:53 2016
 By www-data
Copyright (c) 2012, Impallari Type (www.impallari.com), with Reserved Font Name Encode Sans.
</metadata>
<defs>
<font id="EncodeSans-Thin" horiz-adv-x="529" >
  <font-face 
    font-family="Encode Sans"
    font-weight="100"
    font-stretch="normal"
    units-per-em="1000"
    panose-1="2 0 0 0 0 0 0 0 0 0"
    ascent="800"
    descent="-200"
    x-height="540"
    cap-height="740"
    bbox="-89 -220 1526 1030"
    underline-thickness="55"
    underline-position="-57"
    unicode-range="U+000D-U+FB04"
  />
<missing-glyph horiz-adv-x="740" 
d="M105 1030h529v-1250h-529v1250zM592 -178v1167h-445v-1167h445z" />
    <glyph glyph-name="f_f" unicode="ff" horiz-adv-x="669" 
d="M132 502h-115.996v38h117v28c0 48 2.66699 87.167 8 117.5s15.666 54.5 30.999 72.5s36.666 30.833 63.999 38.5s62.666 12.834 105.999 15.501l2 -33c-36.667 -3.33301 -66.334 -7.83301 -89.001 -13.5s-40.167 -15 -52.5 -28s-20.5 -30.833 -24.5 -53.5
s-6 -52.334 -6 -89.001v-55h143v-38h-143v-502h-40v502zM471.004 502h-115.996v38h117v28c0 48 2.66699 87.167 8 117.5s15.666 54.5 30.999 72.5s36.666 30.833 63.999 38.5s62.666 12.834 105.999 15.501l2 -33c-36.667 -3.33301 -66.334 -7.83301 -89.001 -13.5
s-40.167 -15 -52.5 -28s-20.5 -30.833 -24.5 -53.5s-6 -52.334 -6 -89.001v-55h143v-38h-143v-502h-40v502z" />
    <glyph glyph-name="f_i" unicode="fi" horiz-adv-x="559" 
d="M453 672c-20.667 0 -31 10.667 -31 32s10.333 32 31 32c22 0 33 -10.667 33 -32s-11 -32 -33 -32zM433 540h40v-540h-40v540zM132 502h-115.996v38h117v28c0 48 2.66699 87.167 8 117.5s15.666 54.5 30.999 72.5s36.666 30.833 63.999 38.5s62.666 12.834 105.999 15.501
l2 -33c-36.667 -3.33301 -66.334 -7.83301 -89.001 -13.5s-40.167 -15 -52.5 -28s-20.5 -30.833 -24.5 -53.5s-6 -52.334 -6 -89.001v-55h143v-38h-143v-502h-40v502z" />
    <glyph glyph-name="f_l" unicode="fl" horiz-adv-x="561" 
d="M132 502h-115.996v38h117v28c0 48 2.66699 87.167 8 117.5s15.666 54.5 30.999 72.5s36.666 30.833 63.999 38.5s62.666 12.834 105.999 15.501l2 -33c-36.667 -3.33301 -66.334 -7.83301 -89.001 -13.5s-40.167 -15 -52.5 -28s-20.5 -30.833 -24.5 -53.5
s-6 -52.334 -6 -89.001v-55h143v-38h-143v-502h-40v502zM433.004 808h40v-808h-40v808z" />
    <glyph glyph-name="f_f_i" unicode="ffi" horiz-adv-x="898" 
d="M792 672c-20.667 0 -31 10.667 -31 32s10.333 32 31 32c22 0 33 -10.667 33 -32s-11 -32 -33 -32zM772 540h40v-540h-40v540zM472 502h-115.996v38h117v28c0 48 2.66699 87.167 8 117.5s15.666 54.5 30.999 72.5s36.666 30.833 63.999 38.5s62.666 12.834 105.999 15.501
l2 -33c-36.667 -3.33301 -66.334 -7.83301 -89.001 -13.5s-40.167 -15 -52.5 -28s-20.5 -30.833 -24.5 -53.5s-6 -52.334 -6 -89.001v-55h143v-38h-143v-502h-40v502zM132.004 502h-115.996v38h117v28c0 48 2.66699 87.167 8 117.5s15.666 54.5 30.999 72.5
s36.666 30.833 63.999 38.5s62.666 12.834 105.999 15.501l2 -33c-36.667 -3.33301 -66.334 -7.83301 -89.001 -13.5s-40.167 -15 -52.5 -28s-20.5 -30.833 -24.5 -53.5s-6 -52.334 -6 -89.001v-55h143v-38h-143v-502h-40v502z" />
    <glyph glyph-name="f_f_l" unicode="ffl" horiz-adv-x="900" 
d="M472 502h-115.996v38h117v28c0 48 2.66699 87.167 8 117.5s15.666 54.5 30.999 72.5s36.666 30.833 63.999 38.5s62.666 12.834 105.999 15.501l2 -33c-36.667 -3.33301 -66.334 -7.83301 -89.001 -13.5s-40.167 -15 -52.5 -28s-20.5 -30.833 -24.5 -53.5
s-6 -52.334 -6 -89.001v-55h143v-38h-143v-502h-40v502zM773.004 808h40v-808h-40v808zM132.004 502h-115.996v38h117v28c0 48 2.66699 87.167 8 117.5s15.666 54.5 30.999 72.5s36.666 30.833 63.999 38.5s62.666 12.834 105.999 15.501l2 -33
c-36.667 -3.33301 -66.334 -7.83301 -89.001 -13.5s-40.167 -15 -52.5 -28s-20.5 -30.833 -24.5 -53.5s-6 -52.334 -6 -89.001v-55h143v-38h-143v-502h-40v502z" />
    <glyph glyph-name="f_b" unicode="fb" horiz-adv-x="923" 
d="M133 502h-115.996v38h117v28c0 48 2.66699 87.167 8 117.5s15.666 54.5 30.999 72.5s36.666 30.833 63.999 38.5s62.666 12.834 105.999 15.501l2 -33c-36.667 -3.33301 -66.334 -7.83301 -89.001 -13.5s-40.167 -15 -52.5 -28s-20.5 -30.833 -24.5 -53.5
s-6 -52.334 -6 -89.001v-55h143v-38h-143v-502h-40v502zM619.004 -10c-30 0 -61.333 1.50098 -94 4.50098s-63 7.16699 -91 12.5v801h40v-330c21.333 23.333 46.5 41.166 75.5 53.499s61.833 18.5 98.5 18.5c71.333 0 126 -22.333 164 -67s57 -114.667 57 -210
c0 -92 -22 -162 -66 -210s-105.333 -72.333 -184 -73zM620.004 28.001c65.333 0 116.164 19.5 152.497 58.5s54.5 100.833 54.5 185.5c0 84 -15 145 -45 183s-75.333 57 -136 57c-21.333 0 -42.166 -3 -62.499 -9s-38.666 -14.167 -54.999 -24.5s-29.5 -22.833 -39.5 -37.5
s-15 -30.667 -15 -48v-355c19.333 -2.66699 41.833 -5 67.5 -7s51.834 -3 78.501 -3z" />
    <glyph glyph-name="f_f_b" unicode="ffb" horiz-adv-x="1262" 
d="M474 502h-115.996v38h117v28c0 48 2.66699 87.167 8 117.5s15.666 54.5 30.999 72.5s36.666 30.833 63.999 38.5s62.666 12.834 105.999 15.501l2 -33c-36.667 -3.33301 -66.334 -7.83301 -89.001 -13.5s-40.167 -15 -52.5 -28s-20.5 -30.833 -24.5 -53.5
s-6 -52.334 -6 -89.001v-55h143v-38h-143v-502h-40v502zM959.004 -10c-30 0 -61.333 1.50098 -94 4.50098s-63 7.16699 -91 12.5v801h40v-330c21.333 23.333 46.5 41.166 75.5 53.499s61.833 18.5 98.5 18.5c71.333 0 126 -22.333 164 -67s57 -114.667 57 -210
c0 -92 -22 -162 -66 -210s-105.333 -72.333 -184 -73zM960.004 28.001c65.333 0 116.164 19.5 152.497 58.5s54.5 100.833 54.5 185.5c0 84 -15 145 -45 183s-75.333 57 -136 57c-21.333 0 -42.166 -3 -62.499 -9s-38.666 -14.167 -54.999 -24.5s-29.5 -22.833 -39.5 -37.5
s-15 -30.667 -15 -48v-355c19.333 -2.66699 41.833 -5 67.5 -7s51.834 -3 78.501 -3zM133.002 502.001h-115.996v38h117v28c0 48 2.66699 87.167 8 117.5s15.666 54.5 30.999 72.5s36.666 30.833 63.999 38.5s62.666 12.834 105.999 15.501l2 -33
c-36.667 -3.33301 -66.334 -7.83301 -89.001 -13.5s-40.167 -15 -52.5 -28s-20.5 -30.833 -24.5 -53.5s-6 -52.334 -6 -89.001v-55h143v-38h-143v-502h-40v502z" />
    <glyph glyph-name="f_f_h" unicode="ffh" horiz-adv-x="1262" 
d="M773 808h40v-332l3 1l73.5 33c21.667 9.33301 41.5 17 59.5 23s34.833 10.333 50.5 13s31.167 4 46.5 4c45.333 0 79.333 -11.5 102 -34.5s34 -60.167 34 -111.5v-404h-40v390c0 44 -8.5 75.167 -25.5 93.5s-42.833 27.5 -77.5 27.5c-30 0 -64.167 -6.5 -102.5 -19.5
s-79.5 -30.833 -123.5 -53.5v-438h-40v808zM472 502h-115.996v38h117v28c0 48 2.66699 87.167 8 117.5s15.666 54.5 30.999 72.5s36.666 30.833 63.999 38.5s62.666 12.834 105.999 15.501l2 -33c-36.667 -3.33301 -66.334 -7.83301 -89.001 -13.5s-40.167 -15 -52.5 -28
s-20.5 -30.833 -24.5 -53.5s-6 -52.334 -6 -89.001v-55h143v-38h-143v-502h-40v502zM132.004 502h-115.996v38h117v28c0 48 2.66699 87.167 8 117.5s15.666 54.5 30.999 72.5s36.666 30.833 63.999 38.5s62.666 12.834 105.999 15.501l2 -33
c-36.667 -3.33301 -66.334 -7.83301 -89.001 -13.5s-40.167 -15 -52.5 -28s-20.5 -30.833 -24.5 -53.5s-6 -52.334 -6 -89.001v-55h143v-38h-143v-502h-40v502z" />
    <glyph glyph-name="f_f_j" unicode="ffj" horiz-adv-x="901" 
d="M472 502h-115.996v38h117v28c0 48 2.66699 87.167 8 117.5s15.666 54.5 30.999 72.5s36.666 30.833 63.999 38.5s62.666 12.834 105.999 15.501l2 -33c-36.667 -3.33301 -66.334 -7.83301 -89.001 -13.5s-40.167 -15 -52.5 -28s-20.5 -30.833 -24.5 -53.5
s-6 -52.334 -6 -89.001v-55h143v-38h-143v-502h-40v502zM699.004 -201c26.667 46 46.501 93.833 59.501 143.5s19.5 106.167 19.5 169.5v428h40v-448c0 -56 -7.83301 -110.5 -23.5 -163.5s-37.834 -102.5 -66.501 -148.5zM794.005 672c-21.333 0 -32 10.667 -32 32
s10.667 32 32 32c10 0 18 -2.83301 24 -8.5s9 -13.5 9 -23.5s-3 -17.833 -9 -23.5s-14 -8.5 -24 -8.5zM132.005 502h-115.996v38h117v28c0 48 2.66699 87.167 8 117.5s15.666 54.5 30.999 72.5s36.666 30.833 63.999 38.5s62.666 12.834 105.999 15.501l2 -33
c-36.667 -3.33301 -66.334 -7.83301 -89.001 -13.5s-40.167 -15 -52.5 -28s-20.5 -30.833 -24.5 -53.5s-6 -52.334 -6 -89.001v-55h143v-38h-143v-502h-40v502z" />
    <glyph glyph-name="f_f_k" unicode="ffk" horiz-adv-x="1203" 
d="M773 808h40v-513h113l208 245h48l-214 -253l-14 -9v-4l15 -10l229 -264h-48l-226 259h-111v-259h-40v808zM472 502h-115.996v38h117v28c0 48 2.66699 87.167 8 117.5s15.666 54.5 30.999 72.5s36.666 30.833 63.999 38.5s62.666 12.834 105.999 15.501l2 -33
c-36.667 -3.33301 -66.334 -7.83301 -89.001 -13.5s-40.167 -15 -52.5 -28s-20.5 -30.833 -24.5 -53.5s-6 -52.334 -6 -89.001v-55h143v-38h-143v-502h-40v502zM132.004 502h-115.996v38h117v28c0 48 2.66699 87.167 8 117.5s15.666 54.5 30.999 72.5
s36.666 30.833 63.999 38.5s62.666 12.834 105.999 15.501l2 -33c-36.667 -3.33301 -66.334 -7.83301 -89.001 -13.5s-40.167 -15 -52.5 -28s-20.5 -30.833 -24.5 -53.5s-6 -52.334 -6 -89.001v-55h143v-38h-143v-502h-40v502z" />
    <glyph glyph-name="f_f_t" unicode="fft" horiz-adv-x="1045" 
d="M474 502h-115.996v38h117v28c0 48 2.66699 87.167 8 117.5s15.666 54.5 30.999 72.5s36.666 30.833 63.999 38.5s62.666 12.834 105.999 15.501l2 -33c-36.667 -3.33301 -66.334 -7.83301 -89.001 -13.5s-40.167 -15 -52.5 -28s-20.5 -30.833 -24.5 -53.5
s-6 -52.334 -6 -89.001v-55h143v-38h-143v-502h-40v502zM949.004 -7c-90 0 -134.998 47.333 -134.998 142v366h-123v39h123l6 122l33 6v-128h173v-39h-172v-360c0 -73.333 34 -110 102 -110c21.333 0 46.666 3.66699 75.999 11v-38
c-32.667 -7.33301 -60.334 -11 -83.001 -11zM133.006 502h-115.996v38h117v28c0 48 2.66699 87.167 8 117.5s15.666 54.5 30.999 72.5s36.666 30.833 63.999 38.5s62.666 12.834 105.999 15.501l2 -33c-36.667 -3.33301 -66.334 -7.83301 -89.001 -13.5
s-40.167 -15 -52.5 -28s-20.5 -30.833 -24.5 -53.5s-6 -52.334 -6 -89.001v-55h143v-38h-143v-502h-40v502z" />
    <glyph glyph-name="f_h" unicode="fh" horiz-adv-x="923" 
d="M434 808h40v-332l3 1l73.5 33c21.667 9.33301 41.5 17 59.5 23s34.833 10.333 50.5 13s31.167 4 46.5 4c45.333 0 79.333 -11.5 102 -34.5s34 -60.167 34 -111.5v-404h-40v390c0 44 -8.5 75.167 -25.5 93.5s-42.833 27.5 -77.5 27.5c-30 0 -64.167 -6.5 -102.5 -19.5
s-79.5 -30.833 -123.5 -53.5v-438h-40v808zM132 502h-115.996v38h117v28c0 48 2.66699 87.167 8 117.5s15.666 54.5 30.999 72.5s36.666 30.833 63.999 38.5s62.666 12.834 105.999 15.501l2 -33c-36.667 -3.33301 -66.334 -7.83301 -89.001 -13.5s-40.167 -15 -52.5 -28
s-20.5 -30.833 -24.5 -53.5s-6 -52.334 -6 -89.001v-55h143v-38h-143v-502h-40v502z" />
    <glyph glyph-name="f_j" unicode="fj" horiz-adv-x="562" 
d="M132 502h-115.996v38h117v28c0 48 2.66699 87.167 8 117.5s15.666 54.5 30.999 72.5s36.666 30.833 63.999 38.5s62.666 12.834 105.999 15.501l2 -33c-36.667 -3.33301 -66.334 -7.83301 -89.001 -13.5s-40.167 -15 -52.5 -28s-20.5 -30.833 -24.5 -53.5
s-6 -52.334 -6 -89.001v-55h143v-38h-143v-502h-40v502zM360.004 -201c26.667 46 46.501 93.833 59.501 143.5s19.5 106.167 19.5 169.5v428h40v-448c0 -56 -7.83301 -110.5 -23.5 -163.5s-37.834 -102.5 -66.501 -148.5zM455.005 672c-21.333 0 -32 10.667 -32 32
s10.667 32 32 32c10 0 18 -2.83301 24 -8.5s9 -13.5 9 -23.5s-3 -17.833 -9 -23.5s-14 -8.5 -24 -8.5z" />
    <glyph glyph-name="f_k" unicode="fk" horiz-adv-x="864" 
d="M434 808h40v-513h113l208 245h48l-214 -253l-14 -9v-4l15 -10l229 -264h-48l-226 259h-111v-259h-40v808zM132 502h-115.996v38h117v28c0 48 2.66699 87.167 8 117.5s15.666 54.5 30.999 72.5s36.666 30.833 63.999 38.5s62.666 12.834 105.999 15.501l2 -33
c-36.667 -3.33301 -66.334 -7.83301 -89.001 -13.5s-40.167 -15 -52.5 -28s-20.5 -30.833 -24.5 -53.5s-6 -52.334 -6 -89.001v-55h143v-38h-143v-502h-40v502z" />
    <glyph glyph-name="f_t" unicode="ft" horiz-adv-x="706" 
d="M133 502h-115.996v38h117v28c0 48 2.66699 87.167 8 117.5s15.666 54.5 30.999 72.5s36.666 30.833 63.999 38.5s62.666 12.834 105.999 15.501l2 -33c-36.667 -3.33301 -66.334 -7.83301 -89.001 -13.5s-40.167 -15 -52.5 -28s-20.5 -30.833 -24.5 -53.5
s-6 -52.334 -6 -89.001v-55h143v-38h-143v-502h-40v502zM609.004 -7c-90 0 -134.998 47.333 -134.998 142v366h-123v39h123l6 122l33 6v-128h173v-39h-172v-360c0 -73.333 34 -110 102 -110c21.333 0 46.666 3.66699 75.999 11v-38
c-32.667 -7.33301 -60.334 -11 -83.001 -11z" />
    <glyph glyph-name=".notdef" horiz-adv-x="740" 
d="M105 1030h529v-1250h-529v1250zM592 -178v1167h-445v-1167h445z" />
    <glyph glyph-name="NULL" horiz-adv-x="0" 
 />
    <glyph glyph-name="NULL" horiz-adv-x="0" 
 />
    <glyph glyph-name="nonmarkingreturn" unicode="&#xd;" horiz-adv-x="283" 
 />
    <glyph glyph-name="space" unicode=" " horiz-adv-x="247" 
 />
    <glyph glyph-name="exclam" unicode="!" horiz-adv-x="229" 
d="M118 5c-21.333 0 -32 10.667 -32 32s10.667 32 32 32c9.33301 0 17 -3 23 -9s9 -13.667 9 -23c0 -10 -3 -17.833 -9 -23.5s-13.667 -8.5 -23 -8.5zM100 165l-6 565v10h40v-10l-6 -565v-14h-28v14z" />
    <glyph glyph-name="quotedbl" unicode="&#x22;" horiz-adv-x="340" 
d="M118 808v-4l-24 -324h-18v328h42zM276 808v-4l-24 -324h-18v328h42z" />
    <glyph glyph-name="numbersign" unicode="#" horiz-adv-x="532" 
d="M320 244h-141l-20 -244h-39l20 244h-86v37h89l14 178h-103v37h106l21 244h38l-20 -244h141l21 244h37l-20 -244h99v-37h-102l-14 -178h115v-37h-118l-20 -244h-38zM182 281h141l14 178h-141z" />
    <glyph glyph-name="dollar" unicode="$" horiz-adv-x="547" 
d="M260 -11c-30 0 -64.168 2.83398 -102.501 8.50098s-75.166 13.167 -110.499 22.5l2 38c34 -9.33301 70.5 -16.666 109.5 -21.999s73.833 -8 104.5 -8c62.667 0 111.667 13.167 147 39.5s53 63.833 53 112.5c0 27.333 -5 50.333 -15 69s-23.667 34.5 -41 47.5
s-37.666 24.167 -60.999 33.5s-48.333 18.333 -75 27c-38.667 12.667 -71.334 25.5 -98.001 38.5s-48.167 27.5 -64.5 43.5s-28.166 34 -35.499 54s-11 43 -11 69c0 26.667 4.66699 51.167 14 73.5s22.666 41.833 39.999 58.5s38.333 30.167 63 40.5s52 17.166 82 20.499
v135h42v-133c24.667 -0.666992 51.167 -3 79.5 -7s57.5 -9.33301 87.5 -16l-2 -40c-31.333 8 -61.833 14 -91.5 18s-56.834 6 -81.501 6c-29.333 0 -55.666 -3.66699 -78.999 -11s-43.333 -17.833 -60 -31.5s-29.5 -30.167 -38.5 -49.5s-13.5 -40.666 -13.5 -63.999
c0 -21.333 3 -40 9 -56s16.167 -30.5 30.5 -43.5s33.166 -25 56.499 -36s52.333 -21.833 87 -32.5c30 -9.33301 58.167 -19.333 84.5 -30s49.333 -23.834 69 -39.501s35.334 -35 47.001 -58s17.5 -51.5 17.5 -85.5c0 -54 -16.833 -97.333 -50.5 -130
s-81.5 -52.334 -143.5 -59.001v-142h-42v139h-9v0z" />
    <glyph glyph-name="percent" unicode="%" horiz-adv-x="890" 
d="M208 280c-108.667 0 -163 78.333 -163 235c0 77.333 13.667 135.833 41 175.5s68 59.5 122 59.5s94.5 -19.833 121.5 -59.5s40.5 -98.167 40.5 -175.5c0 -156.667 -54 -235 -162 -235zM208 317c41.333 0 72.333 16.667 93 50s31 82.666 31 147.999
s-10.5 114.666 -31.5 147.999s-51.833 50 -92.5 50c-41.333 0 -72.5 -16.667 -93.5 -50s-31.5 -82.666 -31.5 -147.999s10.5 -114.666 31.5 -147.999s52.167 -50 93.5 -50zM683 -11c-108.667 0 -163 78.667 -163 236c0 77.333 13.667 135.666 41 174.999s68 59 122 59
s94.5 -19.667 121.5 -59s40.5 -97.666 40.5 -174.999c0 -157.333 -54 -236 -162 -236zM683 26c41.333 0 72.333 16.833 93 50.5s31 83.167 31 148.5c0 64.667 -10.5 113.667 -31.5 147s-51.833 50 -92.5 50c-41.333 0 -72.5 -16.667 -93.5 -50s-31.5 -82.333 -31.5 -147
c0 -132.667 41.667 -199 125 -199zM596 740h42l-344 -740h-43z" />
    <glyph glyph-name="ampersand" unicode="&#x26;" horiz-adv-x="696" 
d="M311 -12c-80 0 -142.33 19.1699 -186.997 57.5029s-67 91.833 -67 160.5c0 91.333 43 156.666 129 195.999c-16.667 22.667 -28.334 46.5 -35.001 71.5s-10 53.167 -10 84.5c0 64.667 17.667 113.5 53 146.5s87.666 49.5 156.999 49.5c25.333 0 51.5 -3.16699 78.5 -9.5
s57.833 -16.166 92.5 -29.499v-6l-14 -28h-6c-30.667 12.667 -57.834 21.667 -81.501 27s-46.5 8 -68.5 8c-114 0 -171 -53 -171 -159c0 -27.333 4 -52.833 12 -76.5s21 -46.334 39 -68.001s41.667 -43.334 71 -65.001s65 -44.167 107 -67.5l142 -80
c11.333 41.333 17 88.666 17 141.999v67h39v-67c0 -62 -7 -116 -21 -162l83 -46v-6l-20 -25h-7l-69 39c-44 -102.667 -131.667 -154 -263 -154zM385.003 248.003c-40 22.667 -74.168 43.999 -102.501 63.999s-52.166 40 -71.499 60c-76 -35.333 -114 -90.666 -114 -165.999
c0 -56 19 -100 57 -132s90.333 -48 157 -48c114.667 0 190.667 45 228 135z" />
    <glyph glyph-name="quotesingle" unicode="'" horiz-adv-x="182" 
d="M118 808v-4l-24 -324h-18v328h42z" />
    <glyph glyph-name="parenleft" unicode="(" horiz-adv-x="273" 
d="M208 -160c-50.667 73.333 -89.334 153.831 -116.001 241.498s-40 178.5 -40 272.5s13.333 184.833 40 272.5s65.334 168.167 116.001 241.5h39v-4c-51.333 -72 -90.166 -151.167 -116.499 -237.5s-39.5 -177.166 -39.5 -272.499s13.167 -186.166 39.5 -272.499
s65.166 -165.5 116.499 -237.5v-4h-39v0z" />
    <glyph glyph-name="parenright" unicode=")" horiz-adv-x="273" 
d="M26 -160v4.00195c51.333 72 90.166 151.167 116.499 237.5s39.5 177.166 39.5 272.499s-13.167 186.166 -39.5 272.499s-65.166 165.5 -116.499 237.5v4h39c50.667 -73.333 89.334 -153.833 116.001 -241.5s40 -178.5 40 -272.5s-13.333 -184.833 -40 -272.5
s-65.334 -168.167 -116.001 -241.5h-39z" />
    <glyph glyph-name="asterisk" unicode="*" horiz-adv-x="492" 
d="M116 481l48 69l68 77l-99 22l-80 25l11 34l81 -25l93 -40l-10 102v84h37v-84l-10 -102l93 40l80 25l11 -34l-79 -25l-100 -22l68 -77l49 -69l-29 -20l-49 67l-53 91l-52 -91l-49 -67z" />
    <glyph glyph-name="plus" unicode="+" horiz-adv-x="475" 
d="M54 389h165v174h37v-174h165v-38h-165v-174h-37v174h-165v38z" />
    <glyph glyph-name="comma" unicode="," horiz-adv-x="205" 
d="M37 -145l47 210h44l-57 -220z" />
    <glyph glyph-name="hyphen" unicode="-" horiz-adv-x="426" 
d="M73 300h280v-40h-280v40z" />
    <glyph glyph-name="period" unicode="." horiz-adv-x="212" 
d="M106 -1c-22.667 0 -34 11.001 -34 33.001c0 23.333 11.333 35 34 35c10.667 0 19.167 -3.16699 25.5 -9.5s9.5 -14.833 9.5 -25.5s-3.16699 -18.834 -9.5 -24.501s-14.833 -8.5 -25.5 -8.5z" />
    <glyph glyph-name="slash" unicode="/" horiz-adv-x="356" 
d="M281 740h39l-245 -860h-40z" />
    <glyph glyph-name="zero" unicode="0" horiz-adv-x="630" 
d="M315 -11c-84 0 -147.333 31.833 -190 95.5s-64 158.5 -64 284.5s21.333 221 64 285s106 96 190 96s147.333 -32 190 -96s64 -159 64 -285s-21.333 -220.833 -64 -284.5s-106 -95.5 -190 -95.5zM315 27c70.667 0 124 28.8311 160 86.498s54 142.834 54 255.501
s-18 197.834 -54 255.501s-89.333 86.5 -160 86.5s-124 -28.833 -160 -86.5s-54 -142.834 -54 -255.501c0 -113.333 18 -198.666 54 -255.999s89.333 -86 160 -86z" />
    <glyph glyph-name="one" unicode="1" horiz-adv-x="367" 
d="M224 684h-3l-178 -103h-6l-9 25v5l207 129h29v-740h-40v684z" />
    <glyph glyph-name="two" unicode="2" horiz-adv-x="514" 
d="M52 94c0 28.667 3.66992 55.1699 11.0029 79.5029s19 47.5 35 69.5s36.833 43.333 62.5 64s56.834 41.667 93.501 63c28.667 17.333 53.167 33.666 73.5 48.999s36.666 30.666 48.999 45.999s21.333 31 27 47s8.5 33 8.5 51c0 97.333 -53.333 146 -160 146
c-24.667 0 -50.834 -2 -78.501 -6s-58.5 -10.667 -92.5 -20l-8 39c34 9.33301 65.5 16 94.5 20s57.5 6 85.5 6c132.667 0 199 -61.333 199 -184c0 -22.667 -3 -43.5 -9 -62.5s-15.833 -37.333 -29.5 -55s-31.834 -35.167 -54.501 -52.5s-50.334 -36 -83.001 -56
c-34 -20 -62.667 -39.333 -86 -58s-42.333 -37.5 -57 -56.5s-25.167 -38.833 -31.5 -59.5s-9.5 -43.334 -9.5 -68.001v-55h364v-39h-404v92z" />
    <glyph glyph-name="three" unicode="3" horiz-adv-x="491" 
d="M189 -9c-20 0 -41 1.00098 -63 3.00098s-44 5.33301 -66 10v37h5c8 -2 17.167 -3.66699 27.5 -5l32 -4c11 -1.33301 22 -2.33301 33 -3s21.167 -1 30.5 -1c64.667 0 114.5 15 149.5 45s52.5 72.667 52.5 128c0 52 -15.833 91.167 -47.5 117.5s-78.834 39.5 -141.501 39.5
h-65v38h64c54.667 0 96.5 13.667 125.5 41s43.5 66 43.5 116c0 52 -14.667 91.5 -44 118.5s-73 40.5 -131 40.5c-15.333 0 -33.666 -1.16699 -54.999 -3.5s-45.666 -5.5 -72.999 -9.5h-5l-2 36c42 10 87.333 15 136 15c70.667 0 124.5 -17 161.5 -51s55.5 -83 55.5 -147
c0 -44 -10 -80.5 -30 -109.5s-48.333 -49.167 -85 -60.5v-4c44 -9.33301 77.5 -29.333 100.5 -60s34.5 -70.667 34.5 -120c0 -66.667 -20.833 -117.834 -62.5 -153.501s-101.834 -53.5 -180.501 -53.5z" />
    <glyph glyph-name="four" unicode="4" horiz-adv-x="567" 
d="M27 212v4l249 534h5l29 -10v-5l-232 -502v-5h306v4l14 274h26v-278h111v-37h-111v-191h-40v191h-339z" />
    <glyph glyph-name="five" unicode="5" horiz-adv-x="500" 
d="M194 -11c-21.333 0 -43.8359 1.16797 -67.5029 3.50098s-47.167 6.16602 -70.5 11.499v38h7c22.667 -5.33301 44.834 -9 66.501 -11s42.5 -3 62.5 -3c72 0 125.833 14.333 161.5 43s53.5 76 53.5 142c0 60.667 -20.5 104 -61.5 130s-104.5 39.667 -190.5 41l-75 2l-4 4
l26 350h318v-38h-283l-19 -279c58 -0.666992 107.833 -4.66699 149.5 -12s75.834 -19.333 102.501 -36s46.334 -38.167 59.001 -64.5s19 -58.833 19 -97.5c0 -78 -21.667 -134.833 -65 -170.5s-106.333 -53.5 -189 -53.5z" />
    <glyph glyph-name="six" unicode="6" horiz-adv-x="584" 
d="M308 -12c-165.333 0 -248 111.998 -248 335.998c0 67.333 7 127.5 21 180.5s34.167 97.833 60.5 134.5s58.833 64.667 97.5 84s82.667 29 132 29c36.667 0 76.334 -5.33301 119.001 -16l-1 -40c-22.667 6.66699 -43 11.334 -61 14.001s-37 4 -57 4c-40 0 -76 -8 -108 -24
s-59.5 -39 -82.5 -69s-41.167 -66.833 -54.5 -110.5s-21.333 -93.167 -24 -148.5c31.333 26 65.166 46.5 101.499 61.5s73.5 22.5 111.5 22.5c32 0 61.5 -4.66699 88.5 -14s50.5 -23.166 70.5 -41.499s35.667 -41 47 -68s17 -57.833 17 -92.5
c0 -36 -5.5 -68.833 -16.5 -98.5s-26.5 -55.167 -46.5 -76.5s-44.167 -37.833 -72.5 -49.5s-59.833 -17.5 -94.5 -17.5zM307 408.998c-33.333 0 -68.501 -7.83105 -105.501 -23.498s-70.5 -36.834 -100.5 -63.501c0 -100.667 17 -175.167 51 -223.5s86 -72.5 156 -72.5
c28.667 0 54.5 5 77.5 15s42.667 24 59 42s29 39.667 38 65s13.5 53.666 13.5 84.999c0 55.333 -16.667 98.5 -50 129.5s-79.666 46.5 -138.999 46.5z" />
    <glyph glyph-name="seven" unicode="7" horiz-adv-x="457" 
d="M152 -10l-32 10v11l273 690h-360l-5 35l1 4h391l12 -21v-29l-269 -692z" />
    <glyph glyph-name="eight" unicode="8" horiz-adv-x="582" 
d="M291 -4c-70.667 0 -127.002 16 -169.002 48s-63 80.667 -63 146c0 31.333 4.66699 58.5 14 81.5s21 42.5 35 58.5s29 29 45 39s30.667 18 44 24c-17.333 8 -33 17.167 -47 27.5s-26.167 22.333 -36.5 36s-18.333 29.334 -24 47.001s-8.5 38.167 -8.5 61.5
c0 30.667 5.16699 57.667 15.5 81s24.833 42.666 43.5 57.999s40.834 26.833 66.501 34.5s53.834 11.5 84.501 11.5s58.667 -3.66699 84 -11s47.166 -18.666 65.499 -33.999s32.5 -34.666 42.5 -57.999s15 -51 15 -83c0 -28.667 -4.16699 -53.667 -12.5 -75
s-18.666 -39.833 -30.999 -55.5s-25.666 -28.834 -39.999 -39.501s-27.5 -19 -39.5 -25c21.333 -8 41.166 -17.167 59.499 -27.5s34.166 -22.833 47.499 -37.5s23.833 -31.5 31.5 -50.5s11.5 -41.5 11.5 -67.5c0 -30.667 -5.66699 -57.834 -17 -81.501
s-27.166 -43.5 -47.499 -59.5s-45 -28.167 -74 -36.5s-60.833 -12.5 -95.5 -12.5zM297.998 356l-29 9.49805c-9.33301 3 -18.666 6.16699 -27.999 9.5c-8.66699 -3.33301 -21 -8.66602 -37 -15.999s-31.833 -18 -47.5 -32s-29.334 -32.167 -41.001 -54.5
s-17.5 -49.833 -17.5 -82.5c0 -52.667 17.667 -91.834 53 -117.501s82 -38.5 140 -38.5c28.667 0 55 3.33301 79 10s44.5 16.5 61.5 29.5s30.167 28.833 39.5 47.5s14 40.334 14 65.001c0 26.667 -4.83301 49.167 -14.5 67.5s-23 33.833 -40 46.5
s-36.833 23.334 -59.5 32.001s-47 16.667 -73 24zM328.998 384.998c8 3.33301 19.334 8.83105 34.001 16.498s29.167 18.5 43.5 32.5s26.666 31.667 36.999 53s15.5 47 15.5 77c0 25.333 -4.16699 47.333 -12.5 66s-20 34 -35 46s-32.667 21 -53 27s-42.833 9 -67.5 9
s-47.5 -3 -68.5 -9s-39 -15.167 -54 -27.5s-26.667 -27.666 -35 -45.999s-12.5 -39.833 -12.5 -64.5c0 -27.333 5 -50.166 15 -68.499s23.667 -34 41 -47s37.5 -24 60.5 -33s47.5 -17.5 73.5 -25.5z" />
    <glyph glyph-name="nine" unicode="9" horiz-adv-x="585" 
d="M277 752c165.333 0 248 -111.998 248 -335.998c0 -67.333 -7 -127.5 -21 -180.5s-34.167 -97.833 -60.5 -134.5s-58.833 -64.667 -97.5 -84s-82.667 -29 -132 -29c-36.667 0 -76.334 5.33301 -119.001 16l1 40c22.667 -6.66699 43 -11.334 61 -14.001s37 -4 57 -4
c40 0 76 8 108 24s59.5 39 82.5 69s41.167 66.833 54.5 110.5s21.333 93.167 24 148.5c-31.333 -26 -65.166 -46.5 -101.499 -61.5s-73.5 -22.5 -111.5 -22.5c-32 0 -61.5 4.66699 -88.5 14s-50.5 23.166 -70.5 41.499s-35.667 40.833 -47 67.5s-17 57.667 -17 93
c0 36 5.5 68.833 16.5 98.5s26.5 55.167 46.5 76.5s44.167 37.833 72.5 49.5s59.833 17.5 94.5 17.5zM278 331.002c33.333 0 68.501 7.83105 105.501 23.498s70.5 36.834 100.5 63.501c0 100.667 -17 175.167 -51 223.5s-86 72.5 -156 72.5c-28.667 0 -54.5 -5 -77.5 -15
s-42.667 -24 -59 -42s-29 -39.667 -38 -65s-13.5 -53.666 -13.5 -84.999c0 -55.333 16.667 -98.5 50 -129.5s79.666 -46.5 138.999 -46.5z" />
    <glyph glyph-name="colon" unicode=":" horiz-adv-x="215" 
d="M107 -1c-22.667 0 -34 11.001 -34 33.001c0 23.333 11.333 35 34 35c10.667 0 19.167 -3.16699 25.5 -9.5s9.5 -14.833 9.5 -25.5s-3.16699 -18.834 -9.5 -24.501s-14.833 -8.5 -25.5 -8.5zM107 474.001c-22.667 0 -34 11.001 -34 33.001c0 23.333 11.333 35 34 35
c10.667 0 19.167 -3.16699 25.5 -9.5s9.5 -14.833 9.5 -25.5s-3.16699 -18.834 -9.5 -24.501s-14.833 -8.5 -25.5 -8.5z" />
    <glyph glyph-name="semicolon" unicode=";" horiz-adv-x="249" 
d="M65 -145l47 210h44l-57 -220zM130 474c-22.667 0 -34 11.001 -34 33.001c0 23.333 11.333 35 34 35c10.667 0 19.167 -3.16699 25.5 -9.5s9.5 -14.833 9.5 -25.5s-3.16699 -18.834 -9.5 -24.501s-14.833 -8.5 -25.5 -8.5z" />
    <glyph glyph-name="less" unicode="&#x3c;" horiz-adv-x="495" 
d="M51 350v34l370 165v-42l-321 -140l318 -141v-41z" />
    <glyph glyph-name="equal" unicode="=" horiz-adv-x="518" 
d="M76 271h366v-37h-366v37zM76 483h366v-38h-366v38z" />
    <glyph glyph-name="greater" unicode="&#x3e;" horiz-adv-x="496" 
d="M78 226l316 141l-319 140v42l370 -165v-34l-367 -165v41z" />
    <glyph glyph-name="question" unicode="?" horiz-adv-x="432" 
d="M150 176l-1.00391 194.002c20 5.33301 41.833 11.833 65.5 19.5s45.667 18.5 66 32.5s37.333 31.667 51 53s20.5 48 20.5 80c0 30 -4.83301 55.167 -14.5 75.5s-22.167 36.666 -37.5 48.999s-32.666 21.166 -51.999 26.499s-38.333 8 -57 8
c-25.333 0 -49.833 -2.5 -73.5 -7.5s-47.5 -11.167 -71.5 -18.5l-13 34c22.667 8.66699 47.834 15.834 75.501 21.501s55.834 8.5 84.501 8.5c24 0 47.833 -3.16699 71.5 -9.5s45 -17 64 -32s34.333 -35 46 -60s17.5 -56.5 17.5 -94.5
c0 -36.667 -6.66699 -67.334 -20 -92.001s-30.166 -45.167 -50.499 -61.5s-42.5 -29.333 -66.5 -39s-46.667 -17.5 -68 -23.5l1 -164v-20h-38v20zM169.996 2.00195c-20.667 0 -31 10.333 -31 31c0 21.333 10.333 32 31 32c10 0 18 -3 24 -9s9 -13.667 9 -23
c0 -10 -3 -17.667 -9 -23s-14 -8 -24 -8z" />
    <glyph glyph-name="at" unicode="@" horiz-adv-x="883" 
d="M428 -136c-55.333 0 -105.835 8.50684 -151.502 25.5068s-84.834 42.167 -117.501 75.5s-58 74.666 -76 123.999s-27 106.666 -27 171.999s9.33301 123.666 28 174.999s45.334 94.666 80.001 129.999s76.667 62.333 126 81s104.666 28 165.999 28
c59.333 0 111.666 -8.33301 156.999 -25s83.166 -40.834 113.499 -72.501s53.333 -70.334 69 -116.001s23.5 -97.5 23.5 -155.5c0 -80.667 -14.5 -143 -43.5 -187s-71.167 -66 -126.5 -66c-33.333 0 -59.166 7.16699 -77.499 21.5s-29.166 37.833 -32.499 70.5h-6
c-9.33301 -13.333 -20.666 -25.333 -33.999 -36s-27.333 -19.667 -42 -27s-29.667 -13 -45 -17s-30 -6 -44 -6c-44.667 0 -78.5 15.667 -101.5 47s-34.5 72.666 -34.5 123.999c0 38.667 6 74 18 106s28.833 59.667 50.5 83s47.834 41.5 78.501 54.5s64.667 19.5 102 19.5
c39.333 0 86.333 -9.66699 141 -29l-39 -213c-3.33301 -16 -5.83301 -30.833 -7.5 -44.5s-2.5 -26.167 -2.5 -37.5c0 -27.333 5.83301 -47.5 17.5 -60.5s31.167 -19.5 58.5 -19.5c42.667 0 75.167 19 97.5 57s33.5 91.333 33.5 160c0 106 -27 188 -81 246s-135 87 -243 87
c-55.333 0 -105.5 -8.5 -150.5 -25.5s-83.167 -41.667 -114.5 -74s-55.5 -72 -72.5 -119s-25.5 -100.167 -25.5 -159.5s8 -111.5 24 -156.5s38.833 -82.5 68.5 -112.5s65 -52.667 106 -68s86.5 -23 136.5 -23c30 0 61.5 2.83301 94.5 8.5s66.833 13.5 101.5 23.5l14 -35
c-37.333 -10.667 -73.666 -19 -108.999 -25s-69 -9 -101 -9zM368.998 94.0068c19.333 0 38.498 3.66699 57.498 11s36.667 18 53 32s30.333 31.167 42 51.5s19.834 43.5 24.501 69.5l32 182c-37.333 12 -69.666 18 -96.999 18c-31.333 0 -60 -5.66699 -86 -17
s-48.333 -27 -67 -47s-33.167 -44 -43.5 -72s-15.5 -58.667 -15.5 -92c0 -40 8.33301 -72.667 25 -98s41.667 -38 75 -38z" />
    <glyph glyph-name="A" unicode="A" horiz-adv-x="644" 
d="M11 5l280 735h63l279 -735v-5h-41l-93 246h-353l-94 -246h-41v5zM484 284l-115 303l-45 119h-4l-45 -119l-115 -303h324z" />
    <glyph glyph-name="B" unicode="B" horiz-adv-x="635" 
d="M307 -10c-30.667 0 -63.999 1.16992 -99.999 3.50293s-72 6.16602 -108 11.499v730c46 5.33301 84.333 9 115 11s60 3 88 3c45.333 0 84 -3.66699 116 -11s58.333 -19 79 -35s35.667 -36.333 45 -61s14 -54.334 14 -89.001c0 -23.333 -3 -44.833 -9 -64.5
s-14.667 -37.167 -26 -52.5s-25 -28 -41 -38s-33.667 -16.667 -53 -20v-4c50 -9.33301 88 -29.5 114 -60.5s39 -71.833 39 -122.5c0 -66.667 -22.833 -116.834 -68.5 -150.501s-113.834 -50.5 -204.501 -50.5zM307.001 27.0029c79.333 0 137.833 13.333 175.5 40
s56.5 68 56.5 124s-17.5 97.5 -52.5 124.5s-89.167 40.5 -162.5 40.5h-186v-318c18 -3.33301 42.167 -6 72.5 -8s62.5 -3 96.5 -3zM323.001 394.003c34.667 0 64.168 2.99902 88.501 8.99902s44.166 15.333 59.499 28s26.5 29 33.5 49s10.5 44.333 10.5 73
c0 28 -3.83301 52 -11.5 72s-20 36.333 -37 49s-39 22 -66 28s-59.833 9 -98.5 9c-34 0 -64 -0.666992 -90 -2s-50.667 -3.66602 -74 -6.99902v-308h185z" />
    <glyph glyph-name="C" unicode="C" horiz-adv-x="579" 
d="M372 -8c-208.667 1.33301 -313.004 126.666 -313.004 375.999c0 254 106.333 381 319 381c10.667 0 22.667 -0.5 36 -1.5s27 -2.33301 41 -4s28 -3.66699 42 -6s27.333 -4.83301 40 -7.5v-39c-28 6 -55.833 10.667 -83.5 14s-52.167 5 -73.5 5
c-93.333 0 -163.5 -28.5 -210.5 -85.5s-70.5 -142.167 -70.5 -255.5c0 -112 22.833 -196.333 68.5 -253s113.167 -85 202.5 -85c10.667 0 23.334 0.5 38.001 1.5s29.834 2.5 45.501 4.5s30.834 4.33301 45.501 7s27.334 5.33398 38.001 8.00098v-38
c-11.333 -3.33301 -24 -6.33301 -38 -9s-28.5 -5 -43.5 -7s-29.667 -3.5 -44 -4.5s-27.5 -1.5 -39.5 -1.5z" />
    <glyph glyph-name="D" unicode="D" horiz-adv-x="702" 
d="M269 -11c-38 0 -72.333 1.16895 -103 3.50195s-53 6.16602 -67 11.499v733l42 4.5c16 1.66699 32.5 3 49.5 4s33.5 1.83301 49.5 2.5s29.667 1 41 1c124.667 0 216.334 -30.833 275.001 -92.5s88 -157.167 88 -286.5c0 -130.667 -30.333 -226.834 -91 -288.501
s-155.334 -92.5 -284.001 -92.5zM273 28.002c112.667 0 195.833 27.8301 249.5 83.4971s80.5 141.834 80.5 258.501s-26 202.334 -78 257.001s-133.333 82 -244 82c-10 0 -21 -0.166992 -33 -0.5s-24.5 -0.833008 -37.5 -1.5s-25.667 -1.5 -38 -2.5
s-23.5 -2.16699 -33.5 -3.5v-664c26.667 -3.33301 49.667 -5.66602 69 -6.99902s41 -2 65 -2z" />
    <glyph glyph-name="E" unicode="E" horiz-adv-x="592" 
d="M99 740h430v-38h-390v-306h368v-38h-368v-320h398v-38h-438v740z" />
    <glyph glyph-name="F" unicode="F" horiz-adv-x="561" 
d="M99 740h425v-38h-385v-306h353v-39h-353v-357h-40v740z" />
    <glyph glyph-name="G" unicode="G" horiz-adv-x="638" 
d="M382 -8c-215.333 1.33301 -323.002 126.667 -323.002 376c0 254 110.333 381 331 381c52.667 0 110.334 -8.33301 173.001 -25v-39c-19.333 4.66699 -36.666 8.66699 -51.999 12s-29.666 6 -42.999 8s-26.166 3.33301 -38.499 4s-25.166 1 -38.499 1
c-96 0 -168.667 -28.5 -218 -85.5s-74 -142.167 -74 -255.5c0 -112 23.833 -196.333 71.5 -253s117.834 -85 210.501 -85c8.66699 0 19.167 0.5 31.5 1.5s25.166 2.33301 38.499 4s26.666 3.5 39.999 5.5s25.666 4.33301 36.999 7v327h39v-356
c-29.333 -8.66699 -60.833 -15.5 -94.5 -20.5s-63.834 -7.5 -90.501 -7.5z" />
    <glyph glyph-name="H" unicode="H" horiz-adv-x="738" 
d="M99 740h40v-342h460v342h41v-740h-41v360h-460v-360h-40v740z" />
    <glyph glyph-name="I" unicode="I" horiz-adv-x="237" 
d="M99 740h40v-740h-40v740z" />
    <glyph glyph-name="J" unicode="J" horiz-adv-x="237" 
d="M20 -160c15.333 32 28.168 61.333 38.501 88s18.666 53.167 24.999 79.5s10.833 53.333 13.5 81s4 58.5 4 92.5v559h40v-560c0 -32.667 -1.5 -63 -4.5 -91s-8 -55.833 -15 -83.5s-16.167 -56.167 -27.5 -85.5s-25.333 -62 -42 -98z" />
    <glyph glyph-name="K" unicode="K" horiz-adv-x="632" 
d="M99 740h40v-343h161l253 343h50l-247 -334l-24 -24v-6l27 -24l262 -352h-49l-266 359h-167v-359h-40v740z" />
    <glyph glyph-name="L" unicode="L" horiz-adv-x="503" 
d="M99 740h40v-702h349v-38h-389v740z" />
    <glyph glyph-name="M" unicode="M" horiz-adv-x="891" 
d="M99 740h55l220 -507l69 -162h4l70 162l220 507h56v-740h-40v674h-4l-92 -212l-189 -434h-45l-189 434l-92 212h-4v-674h-39v740z" />
    <glyph glyph-name="N" unicode="N" horiz-adv-x="761" 
d="M99 740h40l419 -584l61 -90h4v674h39v-740h-41l-423 588l-56 84h-4v-672h-39v740z" />
    <glyph glyph-name="O" unicode="O" horiz-adv-x="720" 
d="M360 -10c-96 0 -170.167 31.833 -222.5 95.5s-78.5 158.167 -78.5 283.5s26.167 220.166 78.5 284.499s126.5 96.5 222.5 96.5s170.167 -32.167 222.5 -96.5s78.5 -159.166 78.5 -284.499c0 -124.667 -26.167 -219 -78.5 -283s-126.5 -96 -222.5 -96zM360 29
c84 0 148.499 29.167 193.499 87.5s67.5 142.5 67.5 252.5c0 112 -22.333 197 -67 255s-109.334 87 -194.001 87c-85.333 0 -150.166 -29 -194.499 -87s-66.5 -143 -66.5 -255c0 -111.333 22.333 -195.833 67 -253.5s109.334 -86.5 194.001 -86.5z" />
    <glyph glyph-name="P" unicode="P" horiz-adv-x="614" 
d="M99 735c56.667 10 111.001 15.002 163.001 15.002c107.333 0 185.833 -19.833 235.5 -59.5s74.5 -102.834 74.5 -189.501c0 -87.333 -24.333 -151 -73 -191s-126.334 -60 -233.001 -60c-18 0 -37.333 0.666992 -58 2s-43.667 3.66602 -69 6.99902v-259h-40v735z
M270.001 289.002c46.667 0 86.666 3.83301 119.999 11.5s60.5 20 81.5 37s36.333 39 46 66s14.5 59.5 14.5 97.5c0 73.333 -21.167 126.833 -63.5 160.5s-110.166 50.5 -203.499 50.5c-21.333 0 -43.333 -0.833008 -66 -2.5s-42.667 -4.16699 -60 -7.5v-403
c6 -1.33301 14 -2.5 24 -3.5s21 -2 33 -3s24.5 -1.83301 37.5 -2.5s25.167 -1 36.5 -1z" />
    <glyph glyph-name="Q" unicode="Q" horiz-adv-x="716" 
d="M643 -97c-110 14 -202.501 31.8301 -277.501 53.4971s-135.333 50.334 -181 86.001s-78.5 79.834 -98.5 132.501s-30 117.334 -30 194.001c0 123.333 25.833 217.666 77.5 282.999s126.167 98 223.5 98s172 -32.667 224 -98s78 -159.666 78 -282.999
c0 -121.333 -26.167 -213.833 -78.5 -277.5s-128.166 -95.5 -227.499 -95.5v-4c48.667 -13.333 96.5 -23.5 143.5 -30.5s97.833 -12.5 152.5 -16.5zM356.999 28.9971c84.667 0 149.334 29.167 194.001 87.5s67 142.5 67 252.5c0 112 -22.333 197 -67 255
s-109.334 87 -194.001 87s-149.334 -29 -194.001 -87s-67 -143 -67 -255c0 -110.667 22.333 -195 67 -253s109.334 -87 194.001 -87z" />
    <glyph glyph-name="R" unicode="R" horiz-adv-x="634" 
d="M362 294c-14.667 -2 -30 -3.33398 -46 -4.00098s-32.667 -1 -50 -1c-18.667 0 -38.5 0.5 -59.5 1.5s-43.5 3.16699 -67.5 6.5v-297h-40v735c56 10 110.333 15 163 15c108 0 186.667 -18.333 236 -55s74 -95.334 74 -176.001c0 -61.333 -13.667 -109.666 -41 -144.999
s-70.333 -59.666 -129 -72.999l189 -301h-45zM270 325.999c46.667 0 86.666 3.66797 119.999 11.001s60.5 18.666 81.5 33.999s36.333 35.333 46 60s14.5 54 14.5 88c0 67.333 -21.167 116.333 -63.5 147s-110.166 46 -203.499 46c-20.667 0 -42.334 -0.833008 -65.001 -2.5
s-43 -4.16699 -61 -7.5v-366c6 -1.33301 13.833 -2.5 23.5 -3.5s20.334 -2 32.001 -3s24 -1.83301 37 -2.5s25.833 -1 38.5 -1z" />
    <glyph glyph-name="S" unicode="S" horiz-adv-x="547" 
d="M259 -11c-30 0 -64.1699 2.83105 -102.503 8.49805s-75.166 13.167 -110.499 22.5l2 38c34 -9.33301 70.5 -16.666 109.5 -21.999s73.833 -8 104.5 -8c62.667 0 111.667 13.167 147 39.5s53 63.833 53 112.5c0 27.333 -5 50.333 -15 69s-23.667 34.5 -41 47.5
s-37.666 24.167 -60.999 33.5s-48.333 18.333 -75 27c-38.667 12.667 -71.334 25.5 -98.001 38.5s-48.167 27.5 -64.5 43.5s-28.166 34 -35.499 54s-11 43 -11 69c0 29.333 5.5 56 16.5 80s26.667 44.5 47 61.5s44.833 30.167 73.5 39.5s60.334 14 95.001 14
c25.333 0 53 -2 83 -6s61 -9.66699 93 -17l-2 -40c-31.333 8 -61.833 14 -91.5 18s-56.834 6 -81.501 6c-29.333 0 -55.666 -3.66699 -78.999 -11s-43.333 -17.833 -60 -31.5s-29.5 -30.167 -38.5 -49.5s-13.5 -40.666 -13.5 -63.999c0 -21.333 3 -40 9 -56
s16.167 -30.5 30.5 -43.5s33.166 -25 56.499 -36s52.333 -21.833 87 -32.5c30 -9.33301 58.167 -19.333 84.5 -30s49.333 -23.834 69 -39.501s35.334 -35 47.001 -58s17.5 -51.5 17.5 -85.5c0 -61.333 -21.333 -108.666 -64 -141.999s-103 -50 -181 -50z" />
    <glyph glyph-name="T" unicode="T" horiz-adv-x="575" 
d="M267 701h-252v39h545v-39h-252v-701h-41v701z" />
    <glyph glyph-name="U" unicode="U" horiz-adv-x="729" 
d="M365 -10c-46.667 0 -87.166 5.66699 -121.499 17s-62.833 29.333 -85.5 54s-39.5 56.334 -50.5 95.001s-16.5 85.334 -16.5 140.001v443h40v-438c0 -50 5 -92.333 15 -127s24.667 -62.667 44 -84s43.666 -36.833 72.999 -46.5s63.333 -14.5 102 -14.5
s72.5 4.83301 101.5 14.5s53.167 25.167 72.5 46.5s34 49.333 44 84s15 77 15 127v438h40v-443c0 -54.667 -5.5 -101.334 -16.5 -140.001s-27.833 -70.334 -50.5 -95.001s-51 -42.667 -85 -54s-74.333 -17 -121 -17z" />
    <glyph glyph-name="V" unicode="V" horiz-adv-x="646" 
d="M13 740h42l214 -560l52 -137h3l53 137l214 560h42l-282 -740h-56z" />
    <glyph glyph-name="W" unicode="W" horiz-adv-x="972" 
d="M24 740h41l155 -544l40 -146h5l42 146l158 544h44l155 -544l41 -146h4l42 146l158 544h41l-215 -740h-55l-160 562l-31 112h-4l-32 -113l-163 -561h-55z" />
    <glyph glyph-name="X" unicode="X" horiz-adv-x="635" 
d="M291 379l-265 361h49l233 -318l8 -15h4l8 15l233 318h49l-266 -364l279 -376h-50l-247 334l-8 14h-4l-8 -14l-244 -334h-50z" />
    <glyph glyph-name="Y" unicode="Y" horiz-adv-x="587" 
d="M273 253l-264 487h44l208 -382l30 -62h4l30 62l208 382h45l-264 -485v-255h-41v253z" />
    <glyph glyph-name="Z" unicode="Z" horiz-adv-x="548" 
d="M34 32l418 665v4h-406v39h458v-31l-416 -666v-5h424v-38h-478v32z" />
    <glyph glyph-name="bracketleft" unicode="[" horiz-adv-x="297" 
d="M94 868h168v-37h-130v-954h130v-37h-168v1028z" />
    <glyph glyph-name="backslash" unicode="\" horiz-adv-x="353" 
d="M35 740h37l246 -860h-38z" />
    <glyph glyph-name="bracketright" unicode="]" horiz-adv-x="296" 
d="M35 -160v37h130v954h-130v37h168v-1028h-168z" />
    <glyph glyph-name="asciicircum" unicode="^" horiz-adv-x="445" 
d="M209 789h27l156 -308h-35l-133 262h-4l-133 -262h-34z" />
    <glyph glyph-name="underscore" unicode="_" horiz-adv-x="557" 
d="M58 -60h442v-41h-442v41z" />
    <glyph glyph-name="grave" unicode="`" horiz-adv-x="232" 
d="M136 617l-89 189h48l74 -179z" />
    <glyph glyph-name="a" unicode="a" horiz-adv-x="500" 
d="M182 -5c-91.333 0 -137.003 44.332 -137.003 132.999c0 51.333 16.167 90 48.5 116s84.5 42.333 156.5 49l131 12v60c0 26 -2.5 48.167 -7.5 66.5s-13 33 -24 44s-25.667 19 -44 24s-40.5 7.5 -66.5 7.5c-23.333 0 -47.166 -1.33301 -71.499 -4s-52.5 -7 -84.5 -13l-5 37
c33.333 6.66699 62.833 11.334 88.5 14.001s50.834 4 75.501 4c62 0 107.333 -13.833 136 -41.5s43 -71.5 43 -131.5v-372h-33l-6 69h-4c-36.667 -23.333 -71.167 -41.5 -103.5 -54.5s-63.166 -19.5 -92.499 -19.5zM187.997 32.999c28.667 0 59.5 7 92.5 21
s66.5 31.667 100.5 53v164l-123 -11c-32 -3.33301 -59 -8 -81 -14s-39.667 -14.167 -53 -24.5s-23 -23 -29 -38s-9 -32.833 -9 -53.5c0 -64.667 34 -97 102 -97z" />
    <glyph glyph-name="b" unicode="b" horiz-adv-x="572" 
d="M268 -10c-30 0 -61.333 1.50098 -94 4.50098s-63 7.16699 -91 12.5v801h40v-330c21.333 23.333 46.5 41.166 75.5 53.499s61.833 18.5 98.5 18.5c71.333 0 126 -22.333 164 -67s57 -114.667 57 -210c0 -92 -22 -162 -66 -210s-105.333 -72.333 -184 -73zM269 28.001
c65.333 0 116.164 19.5 152.497 58.5s54.5 100.833 54.5 185.5c0 84 -15 145 -45 183s-75.333 57 -136 57c-21.333 0 -42.166 -3 -62.499 -9s-38.666 -14.167 -54.999 -24.5s-29.5 -22.833 -39.5 -37.5s-15 -30.667 -15 -48v-355c19.333 -2.66699 41.833 -5 67.5 -7
s51.834 -3 78.501 -3z" />
    <glyph glyph-name="c" unicode="c" horiz-adv-x="450" 
d="M299 -9c-163.333 0 -245 92.668 -245 278.001c0 186.667 81.667 280 245 280c15.333 0 32.5 -1 51.5 -3s37.167 -5 54.5 -9v-40c-33.333 9.33301 -67.333 14 -102 14c-138 0 -207 -80.667 -207 -242c0 -82.667 16.333 -143.334 49 -182.001s84.667 -58 156 -58
c17.333 0 34 1 50 3s34 5 54 9v-37c-13.333 -4 -29.833 -7.16699 -49.5 -9.5s-38.5 -3.5 -56.5 -3.5z" />
    <glyph glyph-name="d" unicode="d" horiz-adv-x="572" 
d="M275 -10c-71.333 0 -125.999 22.501 -163.999 67.501s-57 115.833 -57 212.5c0 47.333 6 88.666 18 123.999s28.667 64.5 50 87.5s47.166 40.167 77.499 51.5s64.166 17 101.499 17c28 0 54.333 -1.5 79 -4.5s47.334 -5.5 68.001 -7.5v270h40v-808h-34l-5 66h-5
c-19.333 -24.667 -43 -43.5 -71 -56.5s-60.667 -19.5 -98 -19.5zM277.001 28.001c21.333 0 42.168 3.16992 62.501 9.50293s38.5 15.166 54.5 26.499s29 24.666 39 39.999s15 32.333 15 51v345c-20.667 3.33301 -43.334 6.16602 -68.001 8.49902s-51 3.5 -79 3.5
c-64.667 0 -115 -19.5 -151 -58.5s-54 -100.167 -54 -183.5c0 -84.667 15 -146.167 45 -184.5s75.333 -57.5 136 -57.5z" />
    <glyph glyph-name="e" unicode="e" horiz-adv-x="517" 
d="M288 -9c-76 0 -134 22.833 -174 68.5s-60 112.167 -60 199.5c0 94.667 19.333 166.667 58 216s94.667 74 168 74c61.333 0 107.5 -20.333 138.5 -61s46.5 -99.334 46.5 -176.001c0 -28 -1 -48.333 -3 -61h-367c3.33301 -148 69.333 -222 198 -222
c23.333 0 46.833 2.33301 70.5 7s50.167 12.334 79.5 23.001l5 -36c-24 -10 -50.5 -17.833 -79.5 -23.5s-55.833 -8.5 -80.5 -8.5zM280 511c-60 0 -105 -19.001 -135 -57.001s-46.667 -94 -50 -168h331c0 80.667 -11.167 138.334 -33.5 173.001s-59.833 52 -112.5 52z" />
    <glyph glyph-name="f" unicode="f" horiz-adv-x="330" 
d="M133 502h-115.996v38h117v28c0 48 2.66699 87.167 8 117.5s15.666 54.5 30.999 72.5s36.666 30.833 63.999 38.5s62.666 12.834 105.999 15.501l2 -33c-36.667 -3.33301 -66.334 -7.83301 -89.001 -13.5s-40.167 -15 -52.5 -28s-20.5 -30.833 -24.5 -53.5
s-6 -52.334 -6 -89.001v-55h143v-38h-143v-502h-40v502z" />
    <glyph glyph-name="g" unicode="g" horiz-adv-x="572" 
d="M250 -219c-27.333 0 -54.499 2 -81.499 6s-52.5 9.66699 -76.5 17l4 39c25.333 -7.33301 51.333 -13.166 78 -17.499s53 -6.5 79 -6.5c29.333 0 56 3.66699 80 11s44.5 19.5 61.5 36.5s30.333 39.833 40 68.5s14.5 64 14.5 106v26h-4
c-19.333 -24 -43.166 -42.667 -71.499 -56s-61.166 -20 -98.499 -20c-71.333 0 -126 22.5 -164 67.5s-57 115.5 -57 211.5c0 47.333 6 88.666 18 123.999s28.667 64.5 50 87.5s47.166 40.167 77.499 51.5s64.166 17 101.499 17c31.333 0 64.166 -1.66699 98.499 -5
s63.833 -8.33301 88.5 -15v-484c0 -53.333 -6.16699 -97 -18.5 -131s-29.333 -61 -51 -81s-47 -33.833 -76 -41.5s-59.833 -11.5 -92.5 -11.5zM277.001 29c21.333 0 42.167 3.16992 62.5 9.50293s38.5 15.166 54.5 26.499s29 24.666 39 39.999s15 32.333 15 51v344
c-20.667 3.33301 -43.5 6.16602 -68.5 8.49902s-51.167 3.5 -78.5 3.5c-64.667 0 -115 -19.5 -151 -58.5s-54 -100.167 -54 -183.5c0 -84 15 -145.167 45 -183.5s75.333 -57.5 136 -57.5z" />
    <glyph glyph-name="h" unicode="h" horiz-adv-x="573" 
d="M84 808h40v-332l3 1l73.5 33c21.667 9.33301 41.5 17 59.5 23s34.833 10.333 50.5 13s31.167 4 46.5 4c45.333 0 79.333 -11.5 102 -34.5s34 -60.167 34 -111.5v-404h-40v390c0 44 -8.5 75.167 -25.5 93.5s-42.833 27.5 -77.5 27.5c-30 0 -64.167 -6.5 -102.5 -19.5
s-79.5 -30.833 -123.5 -53.5v-438h-40v808z" />
    <glyph glyph-name="i" unicode="i" horiz-adv-x="211" 
d="M105 672c-20.667 0 -31 10.667 -31 32s10.333 32 31 32c22 0 33 -10.667 33 -32s-11 -32 -33 -32zM85 540h40v-540h-40v540z" />
    <glyph glyph-name="j" unicode="j" horiz-adv-x="208" 
d="M6 -201c26.667 46 46.501 93.833 59.501 143.5s19.5 106.167 19.5 169.5v428h40v-448c0 -56 -7.83301 -110.5 -23.5 -163.5s-37.834 -102.5 -66.501 -148.5zM101.001 672c-21.333 0 -32 10.667 -32 32s10.667 32 32 32c10 0 18 -2.83301 24 -8.5s9 -13.5 9 -23.5
s-3 -17.833 -9 -23.5s-14 -8.5 -24 -8.5z" />
    <glyph glyph-name="k" unicode="k" horiz-adv-x="514" 
d="M84 808h40v-513h113l208 245h48l-214 -253l-14 -9v-4l15 -10l229 -264h-48l-226 259h-111v-259h-40v808z" />
    <glyph glyph-name="l" unicode="l" horiz-adv-x="215" 
d="M87 808h40v-808h-40v808z" />
    <glyph glyph-name="m" unicode="m" horiz-adv-x="863" 
d="M84 540h32l5 -63h4c22 12.667 42 23.667 60 33s34.667 17 50 23s29.833 10.333 43.5 13s27.167 4 40.5 4c66 0 107.667 -25.333 125 -76h4c24 14 45.333 25.833 64 35.5s35.834 17.5 51.501 23.5s30.167 10.333 43.5 13s26.666 4 39.999 4
c45.333 0 79.333 -11.5 102 -34.5s34 -60.167 34 -111.5v-404h-40v390c0 44 -8.33301 75.167 -25 93.5s-42.667 27.5 -78 27.5c-25.333 0 -53 -6.16699 -83 -18.5s-64 -29.833 -102 -52.5v-440h-40v390c0 44 -8.5 75.167 -25.5 93.5s-42.833 27.5 -77.5 27.5
c-26 0 -54.833 -6.5 -86.5 -19.5s-65.5 -30.5 -101.5 -52.5v-439h-40v540z" />
    <glyph glyph-name="n" unicode="n" horiz-adv-x="573" 
d="M84 540h33l4 -63h5l73.5 33c21.667 9.33301 41.667 17 60 23s35.333 10.333 51 13s31.167 4 46.5 4c45.333 0 79.333 -11.5 102 -34.5s34 -60.167 34 -111.5v-404h-40v390c0 44 -8.5 75.167 -25.5 93.5s-42.833 27.5 -77.5 27.5c-30 0 -64.167 -6.5 -102.5 -19.5
s-79.5 -30.833 -123.5 -53.5v-438h-40v540z" />
    <glyph glyph-name="o" unicode="o" horiz-adv-x="562" 
d="M281 -10c-73.333 0 -129.5 24 -168.5 72s-58.5 117.333 -58.5 208s19.5 160 58.5 208s95.167 72 168.5 72s129.5 -24 168.5 -72s58.5 -117.333 58.5 -208s-19.5 -160 -58.5 -208s-95.167 -72 -168.5 -72zM281 29c123.333 0 185 80.333 185 241
c0 161.333 -61.667 242 -185 242s-185 -80.667 -185 -242c0 -160.667 61.667 -241 185 -241z" />
    <glyph glyph-name="p" unicode="p" horiz-adv-x="573" 
d="M84 540l34 0.000976562l5 -62h4c19.333 23.333 43.333 41.166 72 53.499s61.667 18.5 99 18.5c71.333 0 125.833 -22.333 163.5 -67s56.5 -114.667 56.5 -210c0 -92 -22 -162.167 -66 -210.5s-105.333 -72.5 -184 -72.5c-27.333 0 -53.333 1.33301 -78 4l-66 7v-221h-40
v760zM269 28.001c65.333 0 116.167 19.667 152.5 59s54.5 101 54.5 185s-15 145 -45 183s-75.333 57 -136 57c-21.333 0 -42.166 -3 -62.499 -9s-38.5 -14.5 -54.5 -25.5s-29 -24 -39 -39s-15 -31.5 -15 -49.5v-350c19.333 -2.66699 41.666 -5.16699 66.999 -7.5
s51.333 -3.5 78 -3.5z" />
    <glyph glyph-name="q" unicode="q" horiz-adv-x="572" 
d="M449 66c-20.667 -24.667 -45.833 -43.5 -75.5 -56.5s-62.5 -19.5 -98.5 -19.5c-147.333 0 -221 93.333 -221 280c0 90 21.333 159.167 64 207.5s103.667 72.5 183 72.5c32 0 65.333 -1.83301 100 -5.5s63.667 -8.16699 87 -13.5v-751h-39v286zM277.001 28
c22.667 0 44.5 3.33203 65.5 9.99902s39.167 15.834 54.5 27.501s27.666 25.167 36.999 40.5s14 31.666 14 48.999v345c-30 4.66699 -56.667 7.83398 -80 9.50098s-45.666 2.5 -66.999 2.5c-136.667 0 -205 -80.667 -205 -242c0 -82.667 14.5 -143.667 43.5 -183
s74.833 -59 137.5 -59z" />
    <glyph glyph-name="r" unicode="r" horiz-adv-x="355" 
d="M84 540h32.999l4 -71h4c42.667 20.667 80 38 112 52s62.667 23.333 92 28h13v-43h-14c-31.333 -4 -64.166 -13.167 -98.499 -27.5s-69.5 -30.5 -105.5 -48.5v-430h-40v540z" />
    <glyph glyph-name="s" unicode="s" horiz-adv-x="434" 
d="M212 -11c-10.667 0 -21.001 0.333008 -31.001 1s-21.333 2 -34 4s-26.834 4.5 -42.501 7.5l-55.5 10.5v39c29.333 -7.33301 57.5 -13.166 84.5 -17.499s52.167 -6.5 75.5 -6.5c44.667 0 78.834 9.83301 102.501 29.5s35.5 47.5 35.5 83.5
c0 19.333 -3.16699 35.666 -9.5 48.999s-15 24.5 -26 33.5s-24.167 16.167 -39.5 21.5s-31.666 10 -48.999 14c-20 4.66699 -39.833 9.66699 -59.5 15s-37.5 13.333 -53.5 24s-29 24.834 -39 42.501s-15 41.167 -15 70.5c0 44.667 15.833 79.667 47.5 105s75.5 38 131.5 38
c9.33301 0 18.166 -0.333008 26.499 -1s17.5 -1.66699 27.5 -3s21.333 -3.16602 34 -5.49902s28 -5.5 46 -9.5l-3 -39c-30.667 7.33301 -55.667 12.5 -75 15.5s-37.666 4.5 -54.999 4.5c-44.667 0 -79 -9 -103 -27s-36 -44 -36 -78c0 -20.667 3.66699 -37.334 11 -50.001
s17.333 -23 30 -31s27.167 -14.5 43.5 -19.5s33.5 -9.5 51.5 -13.5c20.667 -5.33301 40.5 -11.333 59.5 -18s35.5 -15.834 49.5 -27.501s25.167 -26.167 33.5 -43.5s12.5 -39.333 12.5 -66c0 -47.333 -15.833 -84.5 -47.5 -111.5s-74.5 -40.5 -128.5 -40.5z" />
    <glyph glyph-name="t" unicode="t" horiz-adv-x="370" 
d="M273 -7c-90 0 -134.998 47.333 -134.998 142v366h-123v39h123l6 122l33 6v-128h173v-39h-172v-360c0 -73.333 34 -110 102 -110c21.333 0 46.666 3.66699 75.999 11v-38c-32.667 -7.33301 -60.334 -11 -83.001 -11z" />
    <glyph glyph-name="u" unicode="u" horiz-adv-x="573" 
d="M207 -10c-84.667 0 -127 48.667 -127 146v404h40v-390c0 -42 7.5 -72.667 22.5 -92s38.833 -29 71.5 -29c18.667 0 37.334 2 56.001 6s37.5 9.5 56.5 16.5s38.5 15.167 58.5 24.5l64 30v434h40v-540h-33l-5 68h-4l-75.5 -35c-21.667 -10 -41.5 -18.167 -59.5 -24.5
s-35.333 -11 -52 -14s-34.334 -4.5 -53.001 -4.5z" />
    <glyph glyph-name="v" unicode="v" horiz-adv-x="516" 
d="M24 531v9h40l171 -449l21 -59h5l20 59l172 449h39v-9l-204 -531h-60z" />
    <glyph glyph-name="w" unicode="w" horiz-adv-x="761" 
d="M29 533v7h39l116 -408l21 -85h4l24 85l123 408h45l129 -408l25 -85h4l21 85l109 408h39v-7l-145 -533h-49l-132 414l-21 76h-4l-20 -76l-126 -414h-49z" />
    <glyph glyph-name="x" unicode="x" horiz-adv-x="514" 
d="M17 10l213 270l-201 253v7h45l147 -186l36 -47h3l36 47l144 186h45v-7l-201 -256l213 -267v-10h-42l-156 198l-41 53h-4l-40 -53l-155 -198h-42v10z" />
    <glyph glyph-name="y" unicode="y" horiz-adv-x="528" 
d="M155 -210v7l87 206l-219 531v6h41l176 -430l21 -59h4l22 59l183 430h39v-6l-319 -754z" />
    <glyph glyph-name="z" unicode="z" horiz-adv-x="453" 
d="M39 30l306 468v4h-297v38h357v-25l-309 -472v-4h319v-38h-376v29z" />
    <glyph glyph-name="braceleft" unicode="{" horiz-adv-x="363" 
d="M37 376c24 0 43.3311 9.50098 57.998 28.501s22 46.833 22 83.5v259c0 44.667 7.66699 76 23 94s43.333 27 84 27c6 0 14.333 -0.166992 25 -0.5s21.167 -0.833008 31.5 -1.5s19.833 -1.16699 28.5 -1.5s14.667 -0.833008 18 -1.5v-32h-123
c-17.333 0 -29.666 -3.5 -36.999 -10.5s-11 -18.833 -11 -35.5v-305c0 -30.667 -6.16699 -57.834 -18.5 -81.501s-30.166 -38.167 -53.499 -43.5c23.333 -4.66699 41.166 -18.5 53.499 -41.5s18.5 -49.833 18.5 -80.5v-307c0 -16.667 3.66699 -28.5 11 -35.5
s19.666 -10.5 36.999 -10.5h123v-32c-3.33301 -0.666992 -9.16602 -1.33398 -17.499 -2.00098s-17.666 -1.16699 -27.999 -1.5l-31 -1c-10.333 -0.333008 -18.833 -0.5 -25.5 -0.5c-40 0 -68 9 -84 27s-24 49.333 -24 94v261c0 36.667 -7.33301 64.334 -22 83.001
s-34 28 -58 28v40z" />
    <glyph glyph-name="bar" unicode="|" horiz-adv-x="226" 
d="M133 808v-1028h-39v1028h39z" />
    <glyph glyph-name="braceright" unicode="}" horiz-adv-x="362" 
d="M326 336c-24 0 -43.502 -9.33398 -58.502 -28.001s-22.5 -46.334 -22.5 -83.001v-261c0 -44.667 -7.83301 -76 -23.5 -94s-43.5 -27 -83.5 -27c-6.66699 0 -15.167 0.166992 -25.5 0.5l-31 1c-10.333 0.333008 -19.833 0.833008 -28.5 1.5
s-14.334 1.33398 -17.001 2.00098v32h122c18 0 30.667 3.5 38 10.5s11 18.833 11 35.5v307c0 30.667 6.16699 57.5 18.5 80.5s29.833 36.833 52.5 41.5c-22.667 5.33301 -40.167 19.833 -52.5 43.5s-18.5 50.834 -18.5 81.501v305c0 16.667 -3.66699 28.5 -11 35.5
s-20 10.5 -38 10.5h-122v32c2.66699 0.666992 8.33398 1.16699 17.001 1.5s18.334 0.833008 29.001 1.5s21.334 1.16699 32.001 1.5s19 0.5 25 0.5c40 0 67.667 -9 83 -27s23 -49.333 23 -94v-259c0 -36.667 7.5 -64.5 22.5 -83.5s34.5 -28.5 58.5 -28.5v-40z" />
    <glyph glyph-name="asciitilde" unicode="~" horiz-adv-x="617" 
d="M75 294c15.333 14.667 29.335 27.168 42.002 37.501s25 18.666 37 24.999s23.833 10.833 35.5 13.5s24.167 4 37.5 4c18.667 0 35.167 -3.83301 49.5 -11.5s28 -16.334 41 -26.001s26 -18.334 39 -26.001s27.5 -11.5 43.5 -11.5c10.667 0 21.667 1.66699 33 5
s22 7.83301 32 13.5s19 12.334 27 20.001s14 15.834 18 24.501l32 -17c-6.66699 -12 -15.334 -23.167 -26.001 -33.5s-22.167 -19.333 -34.5 -27s-25.5 -13.667 -39.5 -18s-28 -6.5 -42 -6.5c-21.333 0 -39.833 4 -55.5 12s-30.167 16.667 -43.5 26l-37.5 26
c-11.667 8 -23.834 12 -36.501 12c-20 0 -39.5 -5 -58.5 -15s-41.833 -27.667 -68.5 -53z" />
    <glyph glyph-name="uni00A0" unicode="&#xa0;" horiz-adv-x="247" 
 />
    <glyph glyph-name="exclamdown" unicode="&#xa1;" horiz-adv-x="215" 
d="M111 535c9.33301 0 17 -2.83301 23 -8.5s9 -13.5 9 -23.5c0 -9.33301 -3 -17 -9 -23s-13.667 -9 -23 -9c-21.333 0 -32 10.667 -32 32s10.667 32 32 32zM93 389h28v-14l6 -565v-10h-40v10l6 565v14z" />
    <glyph glyph-name="cent" unicode="&#xa2;" horiz-adv-x="472" 
d="M300 -9l0.000976562 -110.999h-37v113c-138 12.667 -207 104.667 -207 276s69 264 207 278v113h37v-111h1c15.333 0 32.5 -1 51.5 -3s37.167 -5 54.5 -9v-40c-33.333 9.33301 -67.333 14 -102 14c-138 0 -207 -80.667 -207 -242c0 -82.667 16.333 -143.334 49 -182.001
s84.667 -58 156 -58c17.333 0 33.666 1 48.999 3s33 5 53 9l2 -37c-13.333 -4 -29.833 -7.16699 -49.5 -9.5s-38.5 -3.5 -56.5 -3.5h-1z" />
    <glyph glyph-name="sterling" unicode="&#xa3;" horiz-adv-x="601" 
d="M54 385h151.999v142c0 74.667 14 129.5 42 164.5s75.667 52.5 143 52.5c21.333 0 45 -2.33301 71 -7s54.667 -12 86 -22l-10 -36c-28.667 9.33301 -55.167 16 -79.5 20s-46.166 6 -65.499 6c-53.333 0 -91 -13.667 -113 -41s-33 -73 -33 -137v-142h214v-38h-214v-308h288
v-39h-481v39h152v308h-152v38z" />
    <glyph glyph-name="currency" unicode="&#xa4;" horiz-adv-x="607" 
d="M64 163l55 53.999l53 39c-19.333 30.667 -29 68.667 -29 114c0 44.667 9.66699 82.334 29 113.001l-53 40l-55 54l32 32l55 -55l37 -51c14 15.333 30.667 27.333 50 36s41 13 65 13c23.333 0 44.833 -4.33301 64.5 -13s36.5 -20.667 50.5 -36l38 51l54 55l32 -32l-55 -54
l-54 -40c20 -31.333 30 -69 30 -113s-10 -81.667 -30 -113l54 -40l55 -54l-32 -32l-54 55l-38 51c-14 -16 -30.833 -28.333 -50.5 -37s-41.167 -13 -64.5 -13c-24 0 -45.667 4.33301 -65 13s-36 20.667 -50 36l-37 -50l-55 -55zM180 369.999c0 -46 11.167 -81.667 33.5 -107
s52.166 -38 89.499 -38s67.166 12.667 89.499 38s33.5 61 33.5 107c0 44 -10.667 79 -32 105s-51.666 39 -90.999 39c-37.333 0 -67.166 -12.5 -89.499 -37.5s-33.5 -60.5 -33.5 -106.5z" />
    <glyph glyph-name="yen" unicode="&#xa5;" horiz-adv-x="632" 
d="M94 282h190l-248 458h44l208 -382l30 -62h4l30 62l208 382h45l-250 -458h162v-35h-176v-96h176v-35h-176v-116h-41v116h-206v35h206v96h-206v35z" />
    <glyph glyph-name="brokenbar" unicode="&#xa6;" horiz-adv-x="225" 
d="M93 202h39v-422h-39v422zM93 808h39v-422h-39v422z" />
    <glyph glyph-name="section" unicode="&#xa7;" horiz-adv-x="464" 
d="M226 -11c-10 0 -20.1689 0.334961 -30.502 1.00195s-21.666 2 -33.999 4s-26.5 4.5 -42.5 7.5l-56 10.5v38c59.333 -15.333 113 -23 161 -23c44 0 78 9.83301 102 29.5s36 47.5 36 83.5c0 19.333 -3.16699 35.666 -9.5 48.999s-15.166 24.5 -26.499 33.5
s-24.666 16.167 -39.999 21.5s-31.666 10 -48.999 14c-20 4.66699 -39.833 9.66699 -59.5 15s-37.334 13.333 -53.001 24s-28.5 24.834 -38.5 42.501s-15 41.167 -15 70.5c0 42 14.333 75.333 43 100c-13.333 11.333 -23.833 25.166 -31.5 41.499s-11.5 37.166 -11.5 62.499
c0 45.333 15.833 80.666 47.5 105.999s75.167 38 130.5 38c9.33301 0 18.166 -0.333008 26.499 -1s17.5 -1.66699 27.5 -3s21.333 -3.16602 34 -5.49902s28 -5.5 46 -9.5l-3 -38c-31.333 6.66699 -56.333 11.5 -75 14.5s-37 4.5 -55 4.5c-44.667 0 -79 -9 -103 -27
s-36 -44 -36 -78c0 -20.667 3.83301 -37.5 11.5 -50.5s17.834 -23.5 30.501 -31.5s27.167 -14.5 43.5 -19.5s33.166 -9.5 50.499 -13.5c20.667 -5.33301 40.5 -11.333 59.5 -18s35.5 -15.667 49.5 -27s25.167 -25.833 33.5 -43.5s12.5 -39.834 12.5 -66.501
c0 -40.667 -12.667 -74.667 -38 -102c12 -11.333 21.333 -25.166 28 -41.499s10 -36.5 10 -60.5c0 -46.667 -15.833 -83.667 -47.5 -111s-74.5 -41 -128.5 -41zM329.998 265.002c21.333 19.333 32 45.667 32 79c0 20 -3.16699 36.667 -9.5 50s-15 24.5 -26 33.5
s-24.167 16.333 -39.5 22s-31.666 10.5 -48.999 14.5c-15.333 3.33301 -30.5 6.83301 -45.5 10.5s-29.167 8.5 -42.5 14.5c-26 -17.333 -39 -43.666 -39 -78.999c0 -20.667 3.83301 -37.5 11.5 -50.5s17.667 -23.5 30 -31.5s26.666 -14.5 42.999 -19.5
s33.166 -9.5 50.499 -13.5c14.667 -4 29.334 -8.33301 44.001 -13s28 -10.334 40 -17.001z" />
    <glyph glyph-name="dieresis" unicode="&#xa8;" horiz-adv-x="446" 
d="M103 664c-10 0 -18 2.66699 -24 8s-9 13.333 -9 24c0 11.333 3 19.5 9 24.5s14 7.5 24 7.5c8.66699 0 16.167 -2.5 22.5 -7.5s9.5 -13.167 9.5 -24.5c0 -10.667 -3.16699 -18.667 -9.5 -24s-13.833 -8 -22.5 -8zM325 664c-9.33301 0 -17 2.66699 -23 8s-9 13.333 -9 24
c0 11.333 3 19.5 9 24.5s13.667 7.5 23 7.5s17.166 -2.5 23.499 -7.5s9.5 -13.167 9.5 -24.5c0 -10.667 -3.16699 -18.667 -9.5 -24s-14.166 -8 -23.499 -8z" />
    <glyph glyph-name="copyright" unicode="&#xa9;" horiz-adv-x="858" 
d="M445 163c-54.667 0 -98.834 16.668 -132.501 50.001s-50.5 84 -50.5 152c0 69.333 16.833 121.166 50.5 155.499s77.834 51.5 132.501 51.5c14 0 28 -0.833008 42 -2.5s27.667 -3.83398 41 -6.50098v-37c-12 2.66699 -25 4.83398 -39 6.50098s-27.667 2.5 -41 2.5
c-45.333 0 -81.166 -14 -107.499 -42s-39.5 -70.667 -39.5 -128c0 -56 13.5 -97.667 40.5 -125s62.167 -41 105.5 -41c13.333 0 27.166 1 41.499 3s28.166 4.33301 41.499 7v-35c-27.333 -7.33301 -55.666 -11 -84.999 -11zM429 -10.999c-56 0 -106.833 9.16699 -152.5 27.5
s-84.667 44.166 -117 77.499s-57.5 73.333 -75.5 120s-27 98.667 -27 156s9 109.333 27 156s43.167 86.667 75.5 120s71.333 59.166 117 77.499s96.5 27.5 152.5 27.5s106.833 -9.16699 152.5 -27.5s84.667 -44.166 117 -77.499s57.5 -73.333 75.5 -120s27 -98.667 27 -156
s-9 -109.333 -27 -156s-43.167 -86.667 -75.5 -120s-71.333 -59.166 -117 -77.499s-96.5 -27.5 -152.5 -27.5zM429 25.001c50.667 0 96.667 8.16699 138 24.5s76.666 39.666 105.999 69.999s52 66.666 68 108.999s24 89.5 24 141.5s-8 99.167 -24 141.5
s-38.667 78.666 -68 108.999s-64.666 53.666 -105.999 69.999s-87.333 24.5 -138 24.5s-96.5 -8.16699 -137.5 -24.5s-76.167 -39.666 -105.5 -69.999s-52 -66.666 -68 -108.999s-24 -89.5 -24 -141.5s8 -99.167 24 -141.5s38.667 -78.666 68 -108.999
s64.5 -53.666 105.5 -69.999s86.833 -24.5 137.5 -24.5z" />
    <glyph glyph-name="ordfeminine" unicode="&#xaa;" horiz-adv-x="421" 
d="M164 348c-32.667 0 -59.498 9.16504 -80.498 27.498s-31.5 42.5 -31.5 72.5c0 32 13.333 58 40 78s66 32.667 118 38l98 9v44c0 32 -8.16699 54.5 -24.5 67.5s-45.5 19.5 -87.5 19.5c-9.33301 0 -21.333 -0.5 -36 -1.5s-36 -3.83301 -64 -8.5l-8 40
c29.333 4.66699 53.666 7.83398 72.999 9.50098s35.666 2.5 48.999 2.5c49.333 0 84.333 -9.83301 105 -29.5s31 -51.167 31 -94.5v-270h-33l-5 47h-4c-30 -17.333 -55.833 -30.166 -77.5 -38.499s-42.5 -12.5 -62.5 -12.5zM168.002 383.998
c18 0 37.332 3.50195 57.999 10.502s48 18.5 82 34.5v109l-53 -3c-31.333 -2 -57.333 -4.83301 -78 -8.5s-37.167 -8.83398 -49.5 -15.501s-21.166 -14.834 -26.499 -24.501s-8 -21.167 -8 -34.5c0 -45.333 25 -68 75 -68z" />
    <glyph glyph-name="guillemotleft" unicode="&#xab;" horiz-adv-x="550" 
d="M38 268v4l180 238h46l-180 -238v-4l180 -238h-46zM271 268v4l180 238h46l-180 -238v-4l180 -238h-46z" />
    <glyph glyph-name="logicalnot" unicode="&#xac;" horiz-adv-x="783" 
d="M73 421h631v-301h-40v262h-591v39z" />
    <glyph glyph-name="uni00AD" unicode="&#xad;" horiz-adv-x="426" 
d="M73 300h280v-40h-280v40z" />
    <glyph glyph-name="registered" unicode="&#xae;" horiz-adv-x="735" 
d="M254 622c18 2 34.665 3.66602 49.998 4.99902s29.333 2 42 2c54.667 0 94.834 -8.66699 120.501 -26s38.5 -45 38.5 -83c0 -26 -6.66699 -47.667 -20 -65s-32.666 -29.666 -57.999 -36.999l-1 -4l92 -137h-43l-88 134h-97v-134h-36v345zM350.998 443.999
c78.667 0 118 25.332 118 75.999c0 26.667 -9.16699 45.834 -27.5 57.501s-48.5 17.5 -90.5 17.5c-9.33301 0 -18.5 -0.5 -27.5 -1.5s-20.167 -2.16699 -33.5 -3.5v-144c7.33301 -0.666992 16.5 -1.16699 27.5 -1.5s22.167 -0.5 33.5 -0.5zM366.998 137.998
c-44 0 -84.833 7.66699 -122.5 23s-70.167 36.666 -97.5 63.999s-48.666 59.833 -63.999 97.5s-23 78.5 -23 122.5s7.66699 84.833 23 122.5s36.666 70.334 63.999 98.001s59.833 49.167 97.5 64.5s78.5 23 122.5 23s84.833 -7.66699 122.5 -23s70.334 -36.833 98.001 -64.5
s49.167 -60.334 64.5 -98.001s23 -78.5 23 -122.5s-7.66699 -84.833 -23 -122.5s-36.833 -70.167 -64.5 -97.5s-60.334 -48.666 -98.001 -63.999s-78.5 -23 -122.5 -23zM366.998 173.998c39.333 0 75.666 6.83301 108.999 20.5s62 32.5 86 56.5s42.833 52.5 56.5 85.5
s20.5 69.167 20.5 108.5s-6.83301 75.666 -20.5 108.999s-32.5 62.166 -56.5 86.499s-52.667 43.333 -86 57s-69.666 20.5 -108.999 20.5s-75.5 -6.83301 -108.5 -20.5s-61.5 -32.667 -85.5 -57s-42.833 -53.166 -56.5 -86.499s-20.5 -69.666 -20.5 -108.999
s6.83301 -75.5 20.5 -108.5s32.5 -61.5 56.5 -85.5s52.5 -42.833 85.5 -56.5s69.167 -20.5 108.5 -20.5z" />
    <glyph glyph-name="macron" unicode="&#xaf;" horiz-adv-x="446" 
d="M68 690h286v-38h-286v38z" />
    <glyph glyph-name="degree" unicode="&#xb0;" horiz-adv-x="450" 
d="M225 378c-24 0 -46.667 4.66699 -68 14s-39.666 22.333 -54.999 39s-27.5 36 -36.5 58s-13.5 46 -13.5 72c0 25.333 4.5 49.166 13.5 71.499s21.167 41.666 36.5 57.999s33.666 29.333 54.999 39s44 14.5 68 14.5s46.667 -4.83301 68 -14.5s39.666 -22.667 54.999 -39
s27.5 -35.666 36.5 -57.999s13.5 -46.166 13.5 -71.499c0 -26 -4.5 -50 -13.5 -72s-21.167 -41.333 -36.5 -58s-33.666 -29.667 -54.999 -39s-44 -14 -68 -14zM225 414c20 0 38.333 3.83301 55 11.5s31 18 43 31s21.333 28.5 28 46.5s10 37.333 10 58s-3.33301 40 -10 58
s-16 33.5 -28 46.5s-26.333 23.333 -43 31s-35 11.5 -55 11.5s-38.333 -3.83301 -55 -11.5s-31 -18 -43 -31s-21.5 -28.5 -28.5 -46.5s-10.5 -37.333 -10.5 -58s3.5 -40 10.5 -58s16.5 -33.5 28.5 -46.5s26.333 -23.333 43 -31s35 -11.5 55 -11.5z" />
    <glyph glyph-name="plusminus" unicode="&#xb1;" horiz-adv-x="530" 
d="M81 448h165v175h37v-175h165v-37h-165v-174h-37v174h-165v37zM81 148h367v-38h-367v38z" />
    <glyph glyph-name="twosuperior" unicode="&#xb2;" horiz-adv-x="398" 
d="M45 373c0 21.333 2.66797 41.0029 8.00098 59.0029s14 35.167 26 51.5s27.333 32.166 46 47.499s41.667 31 69 47c42 24.667 71.5 47 88.5 67s25.5 42.667 25.5 68c0 67.333 -37.333 101 -112 101c-34 0 -76.667 -6.33301 -128 -19l-8 36
c26 7.33301 50.167 12.666 72.5 15.999s43.833 5 64.5 5c99.333 0 149 -46 149 -138c0 -17.333 -2.16699 -33 -6.5 -47s-11.5 -27.5 -21.5 -40.5s-23.333 -26 -40 -39s-37.334 -26.833 -62.001 -41.5c-24 -14 -44.333 -27.5 -61 -40.5s-30 -26.333 -40 -40
s-17.333 -27.834 -22 -42.501s-7 -30.667 -7 -48v-36h263v-37h-304v71z" />
    <glyph glyph-name="threesuperior" unicode="&#xb3;" horiz-adv-x="380" 
d="M149 293c-29.333 0 -62.3301 3.66895 -98.9971 11.002v36h9c11.333 -2.66699 25.666 -4.83398 42.999 -6.50098s32.666 -2.5 45.999 -2.5c46 0 81.333 10.5 106 31.5s37 50.5 37 88.5c0 36 -11.333 63.167 -34 81.5s-56 27.5 -100 27.5h-51v37h51
c38 0 67.333 9.33301 88 28s31 45.667 31 81c0 73.333 -41.333 110 -124 110c-10.667 0 -23.834 -0.833008 -39.501 -2.5s-33.167 -4.16699 -52.5 -7.5h-9l-2 36c34 8 68.667 12 104 12c52 0 92.167 -13 120.5 -39s42.5 -62.667 42.5 -110c0 -30.667 -7 -56.667 -21 -78
s-33.667 -36.666 -59 -45.999c30.667 -8.66699 54 -24.334 70 -47.001s24 -51.334 24 -86.001c0 -50 -15.5 -88.333 -46.5 -115s-75.833 -40 -134.5 -40z" />
    <glyph glyph-name="acute" unicode="&#xb4;" horiz-adv-x="223" 
d="M53 616l74 182h42l-88 -188z" />
    <glyph glyph-name="mu" unicode="&#xb5;" horiz-adv-x="597" 
d="M92 540h39.001v-391c0 -42 7.66699 -72.5 23 -91.5s39.333 -28.5 72 -28.5c18.667 0 37 1.83301 55 5.5s36.5 9 55.5 16s38.667 15 59 24l65.5 30.5v435h40v-540h-33l-5 68h-4l-75.5 -35c-21.667 -10 -41.5 -18.167 -59.5 -24.5s-35.333 -11 -52 -14
s-34.334 -4.5 -53.001 -4.5c-36.667 0 -66 9.33301 -88 28v-238h-39v760z" />
    <glyph glyph-name="paragraph" unicode="&#xb6;" horiz-adv-x="560" 
d="M358 0l-37.002 -0.00390625v266c-5.33301 -0.666992 -12.166 -1 -20.499 -1h-19.5c-36 0 -68.667 4.16699 -98 12.5s-54.333 21.833 -75 40.5s-36.667 43.334 -48 74.001s-17 68.334 -17 113.001s5.66699 82.334 17 113.001s27.333 55.334 48 74.001
s45.667 32.167 75 40.5s62 12.5 98 12.5c13.333 0 25.833 -0.833008 37.5 -2.5s24.834 -4.16699 39.501 -7.5v-735zM456.998 -0.00390625h-39v735h39v-735z" />
    <glyph glyph-name="periodcentered" unicode="&#xb7;" horiz-adv-x="216" 
d="M108 335c-10.667 0 -19.167 2.83301 -25.5 8.5s-9.5 14.5 -9.5 26.5s3.16699 20.833 9.5 26.5s14.833 8.5 25.5 8.5c9.33301 0 17.5 -2.66699 24.5 -8s10.5 -14.333 10.5 -27s-3.5 -21.667 -10.5 -27s-15.167 -8 -24.5 -8z" />
    <glyph glyph-name="cedilla" unicode="&#xb8;" horiz-adv-x="305" 
d="M113 -220c-11.333 0 -23.8311 1 -37.498 3s-26.834 5 -39.501 9v37c14.667 -4 27 -6.83301 37 -8.5s20 -2.5 30 -2.5c30.667 0 52.5 5.83301 65.5 17.5s19.5 31.167 19.5 58.5c0 17.333 -2.83301 34.166 -8.5 50.499s-15.834 37.833 -30.501 64.5h41
c14.667 -30 24.667 -53 30 -69s8 -31.333 8 -46c0 -37.333 -9.83301 -65.666 -29.5 -84.999s-48.167 -29 -85.5 -29z" />
    <glyph glyph-name="onesuperior" unicode="&#xb9;" horiz-adv-x="294" 
d="M170 795l-126 -73h-9l-8 22v7l154 95h28v-546h-39v495z" />
    <glyph glyph-name="ordmasculine" unicode="&#xba;" horiz-adv-x="458" 
d="M229 382c18 0 35 2.83301 51 8.5s30 14.834 42 27.501s21.667 29.5 29 50.5s11 46.833 11 77.5c0 31.333 -3.66699 57.5 -11 78.5s-17 37.833 -29 50.5s-26 21.667 -42 27s-33 8 -51 8s-35 -2.66699 -51 -8s-30.333 -14.333 -43 -27s-22.667 -29.5 -30 -50.5
s-11 -47.167 -11 -78.5c0 -30.667 3.66699 -56.5 11 -77.5s17.333 -37.833 30 -50.5s27 -21.834 43 -27.501s33 -8.5 51 -8.5zM229 345c-53.333 0 -95.5 16.5 -126.5 49.5s-46.5 83.5 -46.5 151.5s15.5 118.5 46.5 151.5s73.167 49.5 126.5 49.5s95.5 -16.5 126.5 -49.5
s46.5 -83.5 46.5 -151.5s-15.5 -118.5 -46.5 -151.5s-73.167 -49.5 -126.5 -49.5z" />
    <glyph glyph-name="guillemotright" unicode="&#xbb;" horiz-adv-x="550" 
d="M99 30h-46l179 238v4l-179 238h46l180 -238v-4zM332 30h-46l179 238v4l-179 238h46l180 -238v-4z" />
    <glyph glyph-name="onequarter" unicode="&#xbc;" horiz-adv-x="883" 
d="M732 138h-243l-16 25l184 391h7l24 -9l1 -8l-168 -362h213l9 202h28v-202h81v-37h-81v-138h-39v138zM546 740h42l-344 -740h-43zM173 695l-126 -73h-9l-8 22v7l154 95h28v-546h-39v495z" />
    <glyph glyph-name="onehalf" unicode="&#xbd;" horiz-adv-x="924" 
d="M565 73c0 21.333 2.66895 40.832 8.00195 58.499s13.833 34.667 25.5 51s27 32.166 46 47.499s42.167 31.333 69.5 48c21.333 12.667 39.166 24.5 53.499 35.5s26 21.667 35 32s15.5 21 19.5 32s6 22.833 6 35.5c0 67.333 -37.333 101 -112 101
c-18 0 -37.833 -1.66699 -59.5 -5s-44.5 -8 -68.5 -14l-8 36c50.667 14 96.334 21 137.001 21c99.333 0 149 -46 149 -138c0 -17.333 -2.16699 -32.833 -6.5 -46.5s-11.5 -27 -21.5 -40s-23.333 -26 -40 -39s-37.334 -27.167 -62.001 -42.5s-45.334 -29.5 -62.001 -42.5
s-30 -26.167 -40 -39.5s-17.167 -27.166 -21.5 -41.499s-6.5 -30.166 -6.5 -47.499v-36h263v-37h-304v71zM546.002 739.999h42l-344 -740h-43zM173.002 694.999l-126 -73h-9l-8 22v7l154 95h28v-546h-39v495z" />
    <glyph glyph-name="threequarters" unicode="&#xbe;" horiz-adv-x="963" 
d="M161 193c-29.333 0 -62.3301 3.66895 -98.9971 11.002v36h9c11.333 -2.66699 25.666 -4.83398 42.999 -6.50098s32.666 -2.5 45.999 -2.5c46 0 81.333 10.5 106 31.5s37 50.5 37 88.5c0 36 -11.333 63.167 -34 81.5s-56 27.5 -100 27.5h-51v37h51
c38 0 67.333 9.33301 88 28s31 45.667 31 81c0 73.333 -41.333 110 -124 110c-10.667 0 -23.834 -0.833008 -39.501 -2.5s-33.167 -4.16699 -52.5 -7.5h-9l-2 36c34 8 68.667 12 104 12c52 0 92.167 -13 120.5 -39s42.5 -62.667 42.5 -110c0 -30.667 -7 -56.667 -21 -78
s-33.667 -36.666 -59 -45.999c30.667 -8.66699 54 -24.334 70 -47.001s24 -51.334 24 -86.001c0 -50 -15.5 -88.333 -46.5 -115s-75.833 -40 -134.5 -40zM811.003 138.002h-243l-16 25l184 391h7l24 -9l1 -8l-168 -362h213l9 202h28v-202h81v-37h-81v-138h-39v138z
M619.003 740.002h42l-344 -740h-43z" />
    <glyph glyph-name="questiondown" unicode="&#xbf;" horiz-adv-x="425" 
d="M279 370l1.00293 -194.002c-20 -5.33301 -41.833 -11.833 -65.5 -19.5s-45.667 -18.5 -66 -32.5s-37.333 -31.667 -51 -53s-20.5 -48 -20.5 -80c0 -30 4.83301 -55.167 14.5 -75.5s22.167 -36.666 37.5 -48.999s32.5 -21.166 51.5 -26.499s38.167 -8 57.5 -8
c25.333 0 49.833 2.5 73.5 7.5s47.5 11.167 71.5 18.5l13 -34c-22.667 -8.66699 -47.834 -15.834 -75.501 -21.501s-55.834 -8.5 -84.501 -8.5c-24 0 -47.833 3.16699 -71.5 9.5s-45 17 -64 32s-34.333 35 -46 60s-17.5 56.5 -17.5 94.5c0 36.667 6.66699 67.334 20 92.001
s30.166 45.167 50.499 61.5s42.5 29.333 66.5 39s46.667 17.5 68 23.5l-1 164v20h38v-20zM259.003 543.998c20.667 0 31 -10.333 31 -31c0 -21.333 -10.333 -32 -31 -32c-10 0 -18 3 -24 9s-9 13.667 -9 23c0 10 3 17.667 9 23s14 8 24 8z" />
    <glyph glyph-name="Agrave" unicode="&#xc0;" horiz-adv-x="644" 
d="M11 5l280 735h63l279 -735v-5h-41l-93 246h-353l-94 -246h-41v5zM484 284l-115 303l-45 119h-4l-45 -119l-115 -303h324zM307 799l-86 128h44l78 -114z" />
    <glyph glyph-name="Aacute" unicode="&#xc1;" horiz-adv-x="644" 
d="M11 5l280 735h63l279 -735v-5h-41l-93 246h-353l-94 -246h-41v5zM484 284l-115 303l-45 119h-4l-45 -119l-115 -303h324zM299 805l79 122h44l-87 -128z" />
    <glyph glyph-name="Acircumflex" unicode="&#xc2;" horiz-adv-x="644" 
d="M11 5l280 735h63l279 -735v-5h-41l-93 246h-353l-94 -246h-41v5zM484 284l-115 303l-45 119h-4l-45 -119l-115 -303h324zM177 862l146 73l146 -73v-44l-146 72l-146 -72v44z" />
    <glyph glyph-name="Atilde" unicode="&#xc3;" horiz-adv-x="644" 
d="M11 5l280 735h63l279 -735v-5h-41l-93 246h-353l-94 -246h-41v5zM484 284l-115 303l-45 119h-4l-45 -119l-115 -303h324zM148 863c16.667 16 34 28.334 52 37.001s36.667 13 56 13c15.333 0 29.333 -2.16699 42 -6.5s25 -9.33301 37 -15s23.833 -10.667 35.5 -15
s24.5 -6.5 38.5 -6.5c30.667 0 59 13 85 39l25 -24c-14.667 -15.333 -31.834 -27.666 -51.501 -36.999s-40.167 -14 -61.5 -14c-13.333 0 -26.333 2.16699 -39 6.5s-25.167 9.16602 -37.5 14.499s-24.5 10.166 -36.5 14.499s-24.333 6.5 -37 6.5c-14 0 -28.167 -3 -42.5 -9
s-28.166 -15.333 -41.499 -28z" />
    <glyph glyph-name="Adieresis" unicode="&#xc4;" horiz-adv-x="644" 
d="M11 5l280 735h63l279 -735v-5h-41l-93 246h-353l-94 -246h-41v5zM484 284l-115 303l-45 119h-4l-45 -119l-115 -303h324zM201 828c-10 0 -18.333 2.66699 -25 8s-10 14.333 -10 27c0 12 3.33301 20.667 10 26s15 8 25 8c9.33301 0 17.666 -2.66699 24.999 -8
s11 -14 11 -26c0 -12.667 -3.66699 -21.667 -11 -27s-15.666 -8 -24.999 -8zM444 828c-10 0 -18.333 2.66699 -25 8s-10 14.333 -10 27c0 12 3.33301 20.667 10 26s15 8 25 8c9.33301 0 17.666 -2.66699 24.999 -8s11 -14 11 -26c0 -12.667 -3.66699 -21.667 -11 -27
s-15.666 -8 -24.999 -8z" />
    <glyph glyph-name="Aring" unicode="&#xc5;" horiz-adv-x="644" 
d="M11 5l280 735h63l279 -735v-5h-41l-93 246h-353l-94 -246h-41v5zM484 284l-115 303l-45 119h-4l-45 -119l-115 -303h324zM325 781c-33.333 0 -60.501 9.83301 -81.501 29.5s-31.5 44.5 -31.5 74.5c0 14.667 2.83301 28.5 8.5 41.5s13.5 24.333 23.5 34
s21.833 17.167 35.5 22.5s28.834 8 45.501 8c32.667 0 59.334 -10.167 80.001 -30.5s31 -45.5 31 -75.5s-10.333 -54.833 -31 -74.5s-47.334 -29.5 -80.001 -29.5zM324.999 816c23.333 0 41.666 6.16699 54.999 18.5s20 29.166 20 50.499s-6.66699 38.5 -20 51.5
s-31.666 19.5 -54.999 19.5c-24 0 -42.833 -6.5 -56.5 -19.5s-20.5 -30.167 -20.5 -51.5s6.83301 -38.166 20.5 -50.499s32.5 -18.5 56.5 -18.5z" />
    <glyph glyph-name="AE" unicode="&#xc6;" horiz-adv-x="828" 
d="M12 6l301 734h455v-38h-341l14 -307h294v-38h-293l15 -319h320v-38h-360l-10 246h-254l-102 -246h-39v6zM168 284h237l-17 417h-47z" />
    <glyph glyph-name="Ccedilla" unicode="&#xc7;" horiz-adv-x="579" 
d="M297 -220c-11.333 0 -23.835 0.998047 -37.502 2.99805s-26.834 5 -39.501 9v37c14.667 -4 27 -6.83301 37 -8.5s20 -2.5 30 -2.5c30.667 0 52.5 5.83301 65.5 17.5s19.5 31.167 19.5 58.5c0 15.333 -2.33301 30.333 -7 45s-12.667 32.667 -24 54
c-188 12.667 -282 137.667 -282 375c0 254 106.333 381 319 381c10.667 0 22.667 -0.5 36 -1.5s27 -2.33301 41 -4s28 -3.66699 42 -6s27.333 -4.83301 40 -7.5v-39c-28 6 -55.833 10.667 -83.5 14s-52.167 5 -73.5 5c-93.333 0 -163.5 -28.5 -210.5 -85.5
s-70.5 -142.167 -70.5 -255.5c0 -112 22.833 -196.333 68.5 -253s113.167 -85 202.5 -85c10.667 0 23.334 0.5 38.001 1.5s29.834 2.5 45.501 4.5s30.834 4.33301 45.501 7s27.334 5.33398 38.001 8.00098v-38c-10 -2.66699 -21.5 -5.16699 -34.5 -7.5
s-26.5 -4.5 -40.5 -6.5s-27.833 -3.66699 -41.5 -5s-26.5 -2.33301 -38.5 -3c11.333 -24 19.166 -43 23.499 -57s6.5 -27.667 6.5 -41c0 -37.333 -9.83301 -65.666 -29.5 -84.999s-48.167 -29 -85.5 -29z" />
    <glyph glyph-name="Egrave" unicode="&#xc8;" horiz-adv-x="592" 
d="M300 799l-86 128h44l78 -114zM99 740h430v-38h-390v-306h368v-38h-368v-320h398v-38h-438v740z" />
    <glyph glyph-name="Eacute" unicode="&#xc9;" horiz-adv-x="592" 
d="M291 805l79 122h44l-87 -128zM99 740h430v-38h-390v-306h368v-38h-368v-320h398v-38h-438v740z" />
    <glyph glyph-name="Ecircumflex" unicode="&#xca;" horiz-adv-x="592" 
d="M99 740h430v-38h-390v-306h368v-38h-368v-320h398v-38h-438v740zM170 862l146 73l146 -73v-44l-146 72l-146 -72v44z" />
    <glyph glyph-name="Edieresis" unicode="&#xcb;" horiz-adv-x="592" 
d="M194 828c-10 0 -18.333 2.66699 -25 8s-10 14.333 -10 27c0 12 3.33301 20.667 10 26s15 8 25 8c9.33301 0 17.666 -2.66699 24.999 -8s11 -14 11 -26c0 -12.667 -3.66699 -21.667 -11 -27s-15.666 -8 -24.999 -8zM437 828c-10 0 -18.333 2.66699 -25 8
s-10 14.333 -10 27c0 12 3.33301 20.667 10 26s15 8 25 8c9.33301 0 17.666 -2.66699 24.999 -8s11 -14 11 -26c0 -12.667 -3.66699 -21.667 -11 -27s-15.666 -8 -24.999 -8zM99 740h430v-38h-390v-306h368v-38h-368v-320h398v-38h-438v740z" />
    <glyph glyph-name="Igrave" unicode="&#xcc;" horiz-adv-x="237" 
d="M99 740h40v-740h-40v740zM104 799l-86 128h44l78 -114z" />
    <glyph glyph-name="Iacute" unicode="&#xcd;" horiz-adv-x="237" 
d="M99 740h40v-740h-40v740zM96 805l79 122h44l-87 -128z" />
    <glyph glyph-name="Icircumflex" unicode="&#xce;" horiz-adv-x="237" 
d="M99 740h40v-740h-40v740zM-26 862l146 73l146 -73v-44l-146 72l-146 -72v44z" />
    <glyph glyph-name="Idieresis" unicode="&#xcf;" horiz-adv-x="237" 
d="M99 740h40v-740h-40v740zM-2 828c-10 0 -18.333 2.66699 -25 8s-10 14.333 -10 27c0 12 3.33301 20.667 10 26s15 8 25 8c9.33301 0 17.666 -2.66699 24.999 -8s11 -14 11 -26c0 -12.667 -3.66699 -21.667 -11 -27s-15.666 -8 -24.999 -8zM241 828
c-10 0 -18.333 2.66699 -25 8s-10 14.333 -10 27c0 12 3.33301 20.667 10 26s15 8 25 8c9.33301 0 17.666 -2.66699 24.999 -8s11 -14 11 -26c0 -12.667 -3.66699 -21.667 -11 -27s-15.666 -8 -24.999 -8z" />
    <glyph glyph-name="Eth" unicode="&#xd0;" horiz-adv-x="708" 
d="M5 387l100 0.00195312v350l42 4.5c16 1.66699 32.5 3 49.5 4s33.5 1.83301 49.5 2.5s29.667 1 41 1c124.667 0 216.334 -30.833 275.001 -92.5s88 -157.167 88 -286.5c0 -130.667 -30.333 -226.834 -91 -288.501s-155.334 -92.5 -284.001 -92.5
c-38 0 -72.333 1.16699 -103 3.5s-53 6.16602 -67 11.499v345h-100v38zM279 28.002c112.667 0 195.833 27.8301 249.5 83.4971s80.5 141.834 80.5 258.501s-26 202.334 -78 257.001s-133.333 82 -244 82c-10 0 -21 -0.166992 -33 -0.5s-24.5 -0.833008 -37.5 -1.5
s-25.667 -1.5 -38 -2.5s-23.5 -2.16699 -33.5 -3.5v-314h213v-38h-213v-312c26.667 -3.33301 49.667 -5.66602 69 -6.99902s41 -2 65 -2z" />
    <glyph glyph-name="Ntilde" unicode="&#xd1;" horiz-adv-x="761" 
d="M206 863c16.667 16 34 28.334 52 37.001s36.667 13 56 13c15.333 0 29.333 -2.16699 42 -6.5s25 -9.33301 37 -15s23.833 -10.667 35.5 -15s24.5 -6.5 38.5 -6.5c30.667 0 59 13 85 39l25 -24c-14.667 -15.333 -31.834 -27.666 -51.501 -36.999s-40.167 -14 -61.5 -14
c-13.333 0 -26.333 2.16699 -39 6.5s-25.167 9.16602 -37.5 14.499s-24.5 10.166 -36.5 14.499s-24.333 6.5 -37 6.5c-14 0 -28.167 -3 -42.5 -9s-28.166 -15.333 -41.499 -28zM99 740.001h40l419 -584l61 -90h4v674h39v-740h-41l-423 588l-56 84h-4v-672h-39v740z" />
    <glyph glyph-name="Ograve" unicode="&#xd2;" horiz-adv-x="720" 
d="M343 799l-86 128h44l78 -114zM360 -10c-96 0 -170.167 31.833 -222.5 95.5s-78.5 158.167 -78.5 283.5s26.167 220.166 78.5 284.499s126.5 96.5 222.5 96.5s170.167 -32.167 222.5 -96.5s78.5 -159.166 78.5 -284.499c0 -124.667 -26.167 -219 -78.5 -283
s-126.5 -96 -222.5 -96zM360 29c84 0 148.499 29.167 193.499 87.5s67.5 142.5 67.5 252.5c0 112 -22.333 197 -67 255s-109.334 87 -194.001 87c-85.333 0 -150.166 -29 -194.499 -87s-66.5 -143 -66.5 -255c0 -111.333 22.333 -195.833 67 -253.5
s109.334 -86.5 194.001 -86.5z" />
    <glyph glyph-name="Oacute" unicode="&#xd3;" horiz-adv-x="720" 
d="M336 805l79 122h44l-87 -128zM360 -10c-96 0 -170.167 31.833 -222.5 95.5s-78.5 158.167 -78.5 283.5s26.167 220.166 78.5 284.499s126.5 96.5 222.5 96.5s170.167 -32.167 222.5 -96.5s78.5 -159.166 78.5 -284.499c0 -124.667 -26.167 -219 -78.5 -283
s-126.5 -96 -222.5 -96zM360 29c84 0 148.499 29.167 193.499 87.5s67.5 142.5 67.5 252.5c0 112 -22.333 197 -67 255s-109.334 87 -194.001 87c-85.333 0 -150.166 -29 -194.499 -87s-66.5 -143 -66.5 -255c0 -111.333 22.333 -195.833 67 -253.5
s109.334 -86.5 194.001 -86.5z" />
    <glyph glyph-name="Ocircumflex" unicode="&#xd4;" horiz-adv-x="720" 
d="M360 -10c-96 0 -170.167 31.833 -222.5 95.5s-78.5 158.167 -78.5 283.5s26.167 220.166 78.5 284.499s126.5 96.5 222.5 96.5s170.167 -32.167 222.5 -96.5s78.5 -159.166 78.5 -284.499c0 -124.667 -26.167 -219 -78.5 -283s-126.5 -96 -222.5 -96zM360 29
c84 0 148.499 29.167 193.499 87.5s67.5 142.5 67.5 252.5c0 112 -22.333 197 -67 255s-109.334 87 -194.001 87c-85.333 0 -150.166 -29 -194.499 -87s-66.5 -143 -66.5 -255c0 -111.333 22.333 -195.833 67 -253.5s109.334 -86.5 194.001 -86.5zM213.999 862l146 73
l146 -73v-44l-146 72l-146 -72v44z" />
    <glyph glyph-name="Otilde" unicode="&#xd5;" horiz-adv-x="720" 
d="M184 863c16.667 16 34 28.334 52 37.001s36.667 13 56 13c15.333 0 29.333 -2.16699 42 -6.5s25 -9.33301 37 -15s23.833 -10.667 35.5 -15s24.5 -6.5 38.5 -6.5c30.667 0 59 13 85 39l25 -24c-14.667 -15.333 -31.834 -27.666 -51.501 -36.999s-40.167 -14 -61.5 -14
c-13.333 0 -26.333 2.16699 -39 6.5s-25.167 9.16602 -37.5 14.499s-24.5 10.166 -36.5 14.499s-24.333 6.5 -37 6.5c-14 0 -28.167 -3 -42.5 -9s-28.166 -15.333 -41.499 -28zM360 -9.99902c-96 0 -170.167 31.833 -222.5 95.5s-78.5 158.167 -78.5 283.5
s26.167 220.166 78.5 284.499s126.5 96.5 222.5 96.5s170.167 -32.167 222.5 -96.5s78.5 -159.166 78.5 -284.499c0 -124.667 -26.167 -219 -78.5 -283s-126.5 -96 -222.5 -96zM360 29.001c84 0 148.499 29.167 193.499 87.5s67.5 142.5 67.5 252.5
c0 112 -22.333 197 -67 255s-109.334 87 -194.001 87c-85.333 0 -150.166 -29 -194.499 -87s-66.5 -143 -66.5 -255c0 -111.333 22.333 -195.833 67 -253.5s109.334 -86.5 194.001 -86.5z" />
    <glyph glyph-name="Odieresis" unicode="&#xd6;" horiz-adv-x="720" 
d="M238 828c-10 0 -18.333 2.66699 -25 8s-10 14.333 -10 27c0 12 3.33301 20.667 10 26s15 8 25 8c9.33301 0 17.666 -2.66699 24.999 -8s11 -14 11 -26c0 -12.667 -3.66699 -21.667 -11 -27s-15.666 -8 -24.999 -8zM481 828c-10 0 -18.333 2.66699 -25 8
s-10 14.333 -10 27c0 12 3.33301 20.667 10 26s15 8 25 8c9.33301 0 17.666 -2.66699 24.999 -8s11 -14 11 -26c0 -12.667 -3.66699 -21.667 -11 -27s-15.666 -8 -24.999 -8zM360 -10c-96 0 -170.167 31.833 -222.5 95.5s-78.5 158.167 -78.5 283.5
s26.167 220.166 78.5 284.499s126.5 96.5 222.5 96.5s170.167 -32.167 222.5 -96.5s78.5 -159.166 78.5 -284.499c0 -124.667 -26.167 -219 -78.5 -283s-126.5 -96 -222.5 -96zM360 29c84 0 148.499 29.167 193.499 87.5s67.5 142.5 67.5 252.5c0 112 -22.333 197 -67 255
s-109.334 87 -194.001 87c-85.333 0 -150.166 -29 -194.499 -87s-66.5 -143 -66.5 -255c0 -111.333 22.333 -195.833 67 -253.5s109.334 -86.5 194.001 -86.5z" />
    <glyph glyph-name="multiply" unicode="&#xd7;" horiz-adv-x="457" 
d="M69 238l133 133l-133 133l26 26l133 -133l133 133l27 -26l-134 -133l134 -133l-27 -26l-133 133l-133 -133z" />
    <glyph glyph-name="Oslash" unicode="&#xd8;" horiz-adv-x="722" 
d="M128 101c-45.333 63.333 -68.001 152.668 -68.001 268.001c0 125.333 26.167 220.166 78.5 284.499s126.833 96.5 223.5 96.5c86.667 0 155.667 -26.667 207 -80l54 70h46l-77 -99c23.333 -32 41 -70.667 53 -116s18 -97.333 18 -156c0 -124.667 -26.167 -219 -78.5 -283
s-126.5 -96 -222.5 -96c-89.333 0 -159.666 27.333 -210.999 82l-55 -72h-46zM361.999 29.002c84 0 148.501 29.165 193.501 87.498s67.5 142.5 67.5 252.5c0 50.667 -4.83301 95.834 -14.5 135.501s-23.834 73.834 -42.501 102.501l-389 -502
c44 -50.667 105.667 -76 185 -76zM101 369c0 -98.667 17.665 -176.667 52.998 -234l389 502c-43.333 49.333 -103.666 74 -180.999 74c-85.333 0 -150.166 -29 -194.499 -87s-66.5 -143 -66.5 -255z" />
    <glyph glyph-name="Ugrave" unicode="&#xd9;" horiz-adv-x="729" 
d="M346 799l-86 128h44l78 -114zM365 -10c-46.667 0 -87.166 5.66699 -121.499 17s-62.833 29.333 -85.5 54s-39.5 56.334 -50.5 95.001s-16.5 85.334 -16.5 140.001v443h40v-438c0 -50 5 -92.333 15 -127s24.667 -62.667 44 -84s43.666 -36.833 72.999 -46.5
s63.333 -14.5 102 -14.5s72.5 4.83301 101.5 14.5s53.167 25.167 72.5 46.5s34 49.333 44 84s15 77 15 127v438h40v-443c0 -54.667 -5.5 -101.334 -16.5 -140.001s-27.833 -70.334 -50.5 -95.001s-51 -42.667 -85 -54s-74.333 -17 -121 -17z" />
    <glyph glyph-name="Uacute" unicode="&#xda;" horiz-adv-x="729" 
d="M337 805l79 122h44l-87 -128zM365 -10c-46.667 0 -87.166 5.66699 -121.499 17s-62.833 29.333 -85.5 54s-39.5 56.334 -50.5 95.001s-16.5 85.334 -16.5 140.001v443h40v-438c0 -50 5 -92.333 15 -127s24.667 -62.667 44 -84s43.666 -36.833 72.999 -46.5
s63.333 -14.5 102 -14.5s72.5 4.83301 101.5 14.5s53.167 25.167 72.5 46.5s34 49.333 44 84s15 77 15 127v438h40v-443c0 -54.667 -5.5 -101.334 -16.5 -140.001s-27.833 -70.334 -50.5 -95.001s-51 -42.667 -85 -54s-74.333 -17 -121 -17z" />
    <glyph glyph-name="Ucircumflex" unicode="&#xdb;" horiz-adv-x="729" 
d="M365 -10c-46.667 0 -87.166 5.66699 -121.499 17s-62.833 29.333 -85.5 54s-39.5 56.334 -50.5 95.001s-16.5 85.334 -16.5 140.001v443h40v-438c0 -50 5 -92.333 15 -127s24.667 -62.667 44 -84s43.666 -36.833 72.999 -46.5s63.333 -14.5 102 -14.5
s72.5 4.83301 101.5 14.5s53.167 25.167 72.5 46.5s34 49.333 44 84s15 77 15 127v438h40v-443c0 -54.667 -5.5 -101.334 -16.5 -140.001s-27.833 -70.334 -50.5 -95.001s-51 -42.667 -85 -54s-74.333 -17 -121 -17zM216.001 862l146 73l146 -73v-44l-146 72l-146 -72v44z
" />
    <glyph glyph-name="Udieresis" unicode="&#xdc;" horiz-adv-x="729" 
d="M240 828c-10 0 -18.333 2.66699 -25 8s-10 14.333 -10 27c0 12 3.33301 20.667 10 26s15 8 25 8c9.33301 0 17.666 -2.66699 24.999 -8s11 -14 11 -26c0 -12.667 -3.66699 -21.667 -11 -27s-15.666 -8 -24.999 -8zM483 828c-10 0 -18.333 2.66699 -25 8
s-10 14.333 -10 27c0 12 3.33301 20.667 10 26s15 8 25 8c9.33301 0 17.666 -2.66699 24.999 -8s11 -14 11 -26c0 -12.667 -3.66699 -21.667 -11 -27s-15.666 -8 -24.999 -8zM365 -10c-46.667 0 -87.166 5.66699 -121.499 17s-62.833 29.333 -85.5 54
s-39.5 56.334 -50.5 95.001s-16.5 85.334 -16.5 140.001v443h40v-438c0 -50 5 -92.333 15 -127s24.667 -62.667 44 -84s43.666 -36.833 72.999 -46.5s63.333 -14.5 102 -14.5s72.5 4.83301 101.5 14.5s53.167 25.167 72.5 46.5s34 49.333 44 84s15 77 15 127v438h40v-443
c0 -54.667 -5.5 -101.334 -16.5 -140.001s-27.833 -70.334 -50.5 -95.001s-51 -42.667 -85 -54s-74.333 -17 -121 -17z" />
    <glyph glyph-name="Yacute" unicode="&#xdd;" horiz-adv-x="587" 
d="M273 253l-264 487h44l208 -382l30 -62h4l30 62l208 382h45l-264 -485v-255h-41v253zM270 805l79 122h44l-87 -128z" />
    <glyph glyph-name="Thorn" unicode="&#xde;" horiz-adv-x="617" 
d="M99 741l39.998 0.00195312v-129c42 6 83.333 9 124 9c106.667 0 184.834 -19.833 234.501 -59.5s74.5 -102.834 74.5 -189.501c0 -87.333 -24.167 -150.833 -72.5 -190.5s-126.166 -59.5 -233.499 -59.5c-18 0 -37.333 0.666992 -58 2s-43.667 3.66602 -69 6.99902v-131
h-40v741zM268.998 161.002c47.333 0 87.668 3.83301 121.001 11.5s60.5 20 81.5 37s36.333 38.833 46 65.5s14.5 59 14.5 97c0 74 -21.167 127.667 -63.5 161s-110.5 50 -204.5 50c-20.667 0 -42.334 -0.833008 -65.001 -2.5s-42.667 -4.16699 -60 -7.5v-402
c6 -1.33301 14 -2.5 24 -3.5s21 -2 33 -3s24.333 -1.83301 37 -2.5s24.667 -1 36 -1z" />
    <glyph glyph-name="germandbls" unicode="&#xdf;" horiz-adv-x="585" 
d="M84 602c0 74 16.8291 127.166 50.4961 159.499s83.834 48.5 150.501 48.5s117 -16.5 151 -49.5s51 -85.833 51 -158.5v-87h-93c-44.667 0 -79 -9 -103 -27s-36 -44 -36 -78c0 -20.667 3.83301 -37.5 11.5 -50.5s17.834 -23.5 30.501 -31.5s27.167 -14.5 43.5 -19.5
s33.166 -9.5 50.499 -13.5c20.667 -5.33301 40.5 -11.333 59.5 -18s35.5 -15.667 49.5 -27s25.167 -25.666 33.5 -42.999s12.5 -39.333 12.5 -66c0 -46.667 -15.833 -83.667 -47.5 -111s-74.5 -41 -128.5 -41c-10 0 -20.167 0.333008 -30.5 1s-21.666 2 -33.999 4
s-26.5 4.5 -42.5 7.5l-56 10.5v38c60 -15.333 113.667 -23 161 -23c44 0 78 9.83301 102 29.5s36 47.5 36 83.5c0 19.333 -3.16699 35.666 -9.5 48.999s-15.166 24.5 -26.499 33.5s-24.666 16.167 -39.999 21.5s-31.666 10 -48.999 14c-20 4.66699 -39.833 9.66699 -59.5 15
s-37.334 13.333 -53.001 24s-28.5 24.834 -38.5 42.501s-15 41.167 -15 70.5c0 44.667 15.833 79.667 47.5 105s75.167 38 130.5 38h54v49c0 60.667 -13 104 -39 130s-67 39 -123 39s-96.833 -12.833 -122.5 -38.5s-38.5 -69.167 -38.5 -130.5v-602h-40v602z" />
    <glyph glyph-name="agrave" unicode="&#xe0;" horiz-adv-x="500" 
d="M182 -5c-91.333 0 -137.003 44.332 -137.003 132.999c0 51.333 16.167 90 48.5 116s84.5 42.333 156.5 49l131 12v60c0 26 -2.5 48.167 -7.5 66.5s-13 33 -24 44s-25.667 19 -44 24s-40.5 7.5 -66.5 7.5c-23.333 0 -47.166 -1.33301 -71.499 -4s-52.5 -7 -84.5 -13l-5 37
c33.333 6.66699 62.833 11.334 88.5 14.001s50.834 4 75.501 4c62 0 107.333 -13.833 136 -41.5s43 -71.5 43 -131.5v-372h-33l-6 69h-4c-36.667 -23.333 -71.167 -41.5 -103.5 -54.5s-63.166 -19.5 -92.499 -19.5zM187.997 32.999c28.667 0 59.5 7 92.5 21
s66.5 31.667 100.5 53v164l-123 -11c-32 -3.33301 -59 -8 -81 -14s-39.667 -14.167 -53 -24.5s-23 -23 -29 -38s-9 -32.833 -9 -53.5c0 -64.667 34 -97 102 -97zM233.997 616.999l-89 189h48l74 -179z" />
    <glyph glyph-name="aacute" unicode="&#xe1;" horiz-adv-x="500" 
d="M182 -5c-91.333 0 -137.003 44.332 -137.003 132.999c0 51.333 16.167 90 48.5 116s84.5 42.333 156.5 49l131 12v60c0 26 -2.5 48.167 -7.5 66.5s-13 33 -24 44s-25.667 19 -44 24s-40.5 7.5 -66.5 7.5c-23.333 0 -47.166 -1.33301 -71.499 -4s-52.5 -7 -84.5 -13l-5 37
c33.333 6.66699 62.833 11.334 88.5 14.001s50.834 4 75.501 4c62 0 107.333 -13.833 136 -41.5s43 -71.5 43 -131.5v-372h-33l-6 69h-4c-36.667 -23.333 -71.167 -41.5 -103.5 -54.5s-63.166 -19.5 -92.499 -19.5zM187.997 32.999c28.667 0 59.5 7 92.5 21
s66.5 31.667 100.5 53v164l-123 -11c-32 -3.33301 -59 -8 -81 -14s-39.667 -14.167 -53 -24.5s-23 -23 -29 -38s-9 -32.833 -9 -53.5c0 -64.667 34 -97 102 -97zM239.997 615.999l74 182h42l-88 -188z" />
    <glyph glyph-name="acircumflex" unicode="&#xe2;" horiz-adv-x="500" 
d="M182 -5c-91.333 0 -137.003 44.332 -137.003 132.999c0 51.333 16.167 90 48.5 116s84.5 42.333 156.5 49l131 12v60c0 26 -2.5 48.167 -7.5 66.5s-13 33 -24 44s-25.667 19 -44 24s-40.5 7.5 -66.5 7.5c-23.333 0 -47.166 -1.33301 -71.499 -4s-52.5 -7 -84.5 -13l-5 37
c33.333 6.66699 62.833 11.334 88.5 14.001s50.834 4 75.501 4c62 0 107.333 -13.833 136 -41.5s43 -71.5 43 -131.5v-372h-33l-6 69h-4c-36.667 -23.333 -71.167 -41.5 -103.5 -54.5s-63.166 -19.5 -92.499 -19.5zM187.997 32.999c28.667 0 59.5 7 92.5 21
s66.5 31.667 100.5 53v164l-123 -11c-32 -3.33301 -59 -8 -81 -14s-39.667 -14.167 -53 -24.5s-23 -23 -29 -38s-9 -32.833 -9 -53.5c0 -64.667 34 -97 102 -97zM105.997 685.999l146 72l146 -72v-44l-146 72l-146 -72v44z" />
    <glyph glyph-name="atilde" unicode="&#xe3;" horiz-adv-x="500" 
d="M182 -5c-91.333 0 -137.003 44.332 -137.003 132.999c0 51.333 16.167 90 48.5 116s84.5 42.333 156.5 49l131 12v60c0 26 -2.5 48.167 -7.5 66.5s-13 33 -24 44s-25.667 19 -44 24s-40.5 7.5 -66.5 7.5c-23.333 0 -47.166 -1.33301 -71.499 -4s-52.5 -7 -84.5 -13l-5 37
c33.333 6.66699 62.833 11.334 88.5 14.001s50.834 4 75.501 4c62 0 107.333 -13.833 136 -41.5s43 -71.5 43 -131.5v-372h-33l-6 69h-4c-36.667 -23.333 -71.167 -41.5 -103.5 -54.5s-63.166 -19.5 -92.499 -19.5zM187.997 32.999c28.667 0 59.5 7 92.5 21
s66.5 31.667 100.5 53v164l-123 -11c-32 -3.33301 -59 -8 -81 -14s-39.667 -14.167 -53 -24.5s-23 -23 -29 -38s-9 -32.833 -9 -53.5c0 -64.667 34 -97 102 -97zM64.9971 681.999c16.667 16 34.1641 28.333 52.4971 37s36.833 13 55.5 13c15.333 0 29.333 -2.16699 42 -6.5
s25 -9.33301 37 -15s23.833 -10.667 35.5 -15s24.5 -6.5 38.5 -6.5c30.667 0 59.334 12.667 86.001 38l25 -23c-15.333 -16 -32.833 -28.667 -52.5 -38s-40.167 -14 -61.5 -14c-13.333 0 -26.166 2.16699 -38.499 6.5s-24.666 9.33301 -36.999 15s-24.5 10.667 -36.5 15
s-24.333 6.5 -37 6.5c-29.333 0 -57.333 -12.667 -84 -38z" />
    <glyph glyph-name="adieresis" unicode="&#xe4;" horiz-adv-x="500" 
d="M182 -5c-91.333 0 -137.003 44.332 -137.003 132.999c0 51.333 16.167 90 48.5 116s84.5 42.333 156.5 49l131 12v60c0 26 -2.5 48.167 -7.5 66.5s-13 33 -24 44s-25.667 19 -44 24s-40.5 7.5 -66.5 7.5c-23.333 0 -47.166 -1.33301 -71.499 -4s-52.5 -7 -84.5 -13l-5 37
c33.333 6.66699 62.833 11.334 88.5 14.001s50.834 4 75.501 4c62 0 107.333 -13.833 136 -41.5s43 -71.5 43 -131.5v-372h-33l-6 69h-4c-36.667 -23.333 -71.167 -41.5 -103.5 -54.5s-63.166 -19.5 -92.499 -19.5zM187.997 32.999c28.667 0 59.5 7 92.5 21
s66.5 31.667 100.5 53v164l-123 -11c-32 -3.33301 -59 -8 -81 -14s-39.667 -14.167 -53 -24.5s-23 -23 -29 -38s-9 -32.833 -9 -53.5c0 -64.667 34 -97 102 -97zM140.997 663.999c-10 0 -18 2.66699 -24 8s-9 13.333 -9 24c0 11.333 3 19.5 9 24.5s14 7.5 24 7.5
c8.66699 0 16.167 -2.5 22.5 -7.5s9.5 -13.167 9.5 -24.5c0 -10.667 -3.16699 -18.667 -9.5 -24s-13.833 -8 -22.5 -8zM362.997 663.999c-9.33301 0 -17 2.66699 -23 8s-9 13.333 -9 24c0 11.333 3 19.5 9 24.5s13.667 7.5 23 7.5s17.166 -2.5 23.499 -7.5
s9.5 -13.167 9.5 -24.5c0 -10.667 -3.16699 -18.667 -9.5 -24s-14.166 -8 -23.499 -8z" />
    <glyph glyph-name="aring" unicode="&#xe5;" horiz-adv-x="500" 
d="M182 -5c-91.333 0 -137.003 44.332 -137.003 132.999c0 51.333 16.167 90 48.5 116s84.5 42.333 156.5 49l131 12v60c0 26 -2.5 48.167 -7.5 66.5s-13 33 -24 44s-25.667 19 -44 24s-40.5 7.5 -66.5 7.5c-23.333 0 -47.166 -1.33301 -71.499 -4s-52.5 -7 -84.5 -13l-5 37
c33.333 6.66699 62.833 11.334 88.5 14.001s50.834 4 75.501 4c62 0 107.333 -13.833 136 -41.5s43 -71.5 43 -131.5v-372h-33l-6 69h-4c-36.667 -23.333 -71.167 -41.5 -103.5 -54.5s-63.166 -19.5 -92.499 -19.5zM187.997 32.999c28.667 0 59.5 7 92.5 21
s66.5 31.667 100.5 53v164l-123 -11c-32 -3.33301 -59 -8 -81 -14s-39.667 -14.167 -53 -24.5s-23 -23 -29 -38s-9 -32.833 -9 -53.5c0 -64.667 34 -97 102 -97zM252.997 607.999c-33.333 0 -60.667 9.83301 -82 29.5s-32 44.5 -32 74.5c0 14.667 2.83301 28.5 8.5 41.5
s13.5 24.333 23.5 34s22 17.167 36 22.5s29.333 8 46 8c32.667 0 59.334 -10.167 80.001 -30.5s31 -45.5 31 -75.5s-10.333 -54.833 -31 -74.5s-47.334 -29.5 -80.001 -29.5zM252.996 642.999c23.333 0 41.666 6.16699 54.999 18.5s20 29.166 20 50.499
s-6.66699 38.5 -20 51.5s-31.666 19.5 -54.999 19.5c-24 0 -42.833 -6.5 -56.5 -19.5s-20.5 -30.167 -20.5 -51.5s6.83301 -38.166 20.5 -50.499s32.5 -18.5 56.5 -18.5z" />
    <glyph glyph-name="ae" unicode="&#xe6;" horiz-adv-x="845" 
d="M616 -9c-46.667 0 -86.334 8.49805 -119.001 25.498s-58.334 41.833 -77.001 74.5l-3 1c-29.333 -18 -55.333 -33.333 -78 -46s-43.334 -22.667 -62.001 -30s-35.667 -12.666 -51 -15.999s-30 -5 -44 -5c-91.333 0 -137 44.333 -137 133c0 51.333 16.167 90 48.5 116
s84.5 42.333 156.5 49l131 12v61c0 26 -2.5 48 -7.5 66s-13 32.5 -24 43.5s-25.667 19 -44 24s-40.5 7.5 -66.5 7.5c-23.333 0 -47.166 -1.33301 -71.499 -4s-52.5 -7 -84.5 -13l-5 37c33.333 6.66699 62.833 11.334 88.5 14.001s50.834 4 75.501 4
c50.667 0 89.834 -9.33301 117.501 -28s45.167 -47 52.5 -85h4c17.333 38 42 67 74 87s71.333 30 118 30c60 0 105.833 -20.333 137.5 -61s47.5 -99.334 47.5 -176.001c0 -28 -1 -48.333 -3 -61h-368c4 -148 70 -222 198 -222c24 0 47.833 2.33301 71.5 7
s50.167 12.334 79.5 23.001l5 -36c-24 -10 -50.5 -17.833 -79.5 -23.5s-55.833 -8.5 -80.5 -8.5zM188 32.998c28 0 58 6.66797 90 20.001s68 32.666 108 57.999c-0.666992 2 -1.33398 10.833 -2.00098 26.5s-1.16699 32.834 -1.5 51.501s-0.666016 36.167 -0.999023 52.5
s-0.5 26.166 -0.5 29.499l-123 -11c-32 -3.33301 -59 -8 -81 -14s-39.667 -14.167 -53 -24.5s-23 -23 -29 -38s-9 -32.833 -9 -53.5c0 -64.667 34 -97 102 -97zM753 286.999c-2 80 -14.334 137.333 -37.001 172s-58.667 52 -108 52c-58 0 -102.667 -19 -134 -57
s-48.666 -93.667 -51.999 -167h331z" />
    <glyph glyph-name="ccedilla" unicode="&#xe7;" horiz-adv-x="449" 
d="M207 -220c-11.333 0 -23.832 1 -37.499 3s-26.834 5 -39.501 9v37c14.667 -4 27 -6.83301 37 -8.5s20 -2.5 30 -2.5c30.667 0 52.5 5.83301 65.5 17.5s19.5 31.167 19.5 58.5c0 15.333 -2.33301 30.5 -7 45.5s-12.667 33.167 -24 54.5c-131.333 17.333 -197 109 -197 275
c0 186.667 81.667 280 245 280c15.333 0 32.5 -1 51.5 -3s37.167 -5 54.5 -9v-40c-33.333 9.33301 -67.333 14 -102 14c-138 0 -207 -80.667 -207 -242c0 -82.667 16.333 -143.334 49 -182.001s84.667 -58 156 -58c17.333 0 34 1 50 3s34 5 54 9v-37
c-13.333 -4 -29.833 -7.16699 -49.5 -9.5s-38.5 -3.5 -56.5 -3.5h-6c11.333 -23.333 19 -42 23 -56s6 -27.667 6 -41c0 -37.333 -9.83301 -65.666 -29.5 -84.999s-48.167 -29 -85.5 -29z" />
    <glyph glyph-name="egrave" unicode="&#xe8;" horiz-adv-x="517" 
d="M288 -9c-76 0 -134 22.833 -174 68.5s-60 112.167 -60 199.5c0 94.667 19.333 166.667 58 216s94.667 74 168 74c61.333 0 107.5 -20.333 138.5 -61s46.5 -99.334 46.5 -176.001c0 -28 -1 -48.333 -3 -61h-367c3.33301 -148 69.333 -222 198 -222
c23.333 0 46.833 2.33301 70.5 7s50.167 12.334 79.5 23.001l5 -36c-24 -10 -50.5 -17.833 -79.5 -23.5s-55.833 -8.5 -80.5 -8.5zM280 511c-60 0 -105 -19.001 -135 -57.001s-46.667 -94 -50 -168h331c0 80.667 -11.167 138.334 -33.5 173.001s-59.833 52 -112.5 52z
M250 616.999l-89 189h48l74 -179z" />
    <glyph glyph-name="eacute" unicode="&#xe9;" horiz-adv-x="517" 
d="M260 616l74 182h42l-88 -188zM288 -9c-76 0 -134 22.833 -174 68.5s-60 112.167 -60 199.5c0 94.667 19.333 166.667 58 216s94.667 74 168 74c61.333 0 107.5 -20.333 138.5 -61s46.5 -99.334 46.5 -176.001c0 -28 -1 -48.333 -3 -61h-367
c3.33301 -148 69.333 -222 198 -222c23.333 0 46.833 2.33301 70.5 7s50.167 12.334 79.5 23.001l5 -36c-24 -10 -50.5 -17.833 -79.5 -23.5s-55.833 -8.5 -80.5 -8.5zM280 511c-60 0 -105 -19.001 -135 -57.001s-46.667 -94 -50 -168h331
c0 80.667 -11.167 138.334 -33.5 173.001s-59.833 52 -112.5 52z" />
    <glyph glyph-name="ecircumflex" unicode="&#xea;" horiz-adv-x="517" 
d="M124 686l146 72l146 -72v-44l-146 72l-146 -72v44zM288 -9c-76 0 -134 22.833 -174 68.5s-60 112.167 -60 199.5c0 94.667 19.333 166.667 58 216s94.667 74 168 74c61.333 0 107.5 -20.333 138.5 -61s46.5 -99.334 46.5 -176.001c0 -28 -1 -48.333 -3 -61h-367
c3.33301 -148 69.333 -222 198 -222c23.333 0 46.833 2.33301 70.5 7s50.167 12.334 79.5 23.001l5 -36c-24 -10 -50.5 -17.833 -79.5 -23.5s-55.833 -8.5 -80.5 -8.5zM280 511c-60 0 -105 -19.001 -135 -57.001s-46.667 -94 -50 -168h331
c0 80.667 -11.167 138.334 -33.5 173.001s-59.833 52 -112.5 52z" />
    <glyph glyph-name="edieresis" unicode="&#xeb;" horiz-adv-x="517" 
d="M160 664c-10 0 -18 2.66699 -24 8s-9 13.333 -9 24c0 11.333 3 19.5 9 24.5s14 7.5 24 7.5c8.66699 0 16.167 -2.5 22.5 -7.5s9.5 -13.167 9.5 -24.5c0 -10.667 -3.16699 -18.667 -9.5 -24s-13.833 -8 -22.5 -8zM382 664c-9.33301 0 -17 2.66699 -23 8s-9 13.333 -9 24
c0 11.333 3 19.5 9 24.5s13.667 7.5 23 7.5s17.166 -2.5 23.499 -7.5s9.5 -13.167 9.5 -24.5c0 -10.667 -3.16699 -18.667 -9.5 -24s-14.166 -8 -23.499 -8zM288 -9c-76 0 -134 22.833 -174 68.5s-60 112.167 -60 199.5c0 94.667 19.333 166.667 58 216s94.667 74 168 74
c61.333 0 107.5 -20.333 138.5 -61s46.5 -99.334 46.5 -176.001c0 -28 -1 -48.333 -3 -61h-367c3.33301 -148 69.333 -222 198 -222c23.333 0 46.833 2.33301 70.5 7s50.167 12.334 79.5 23.001l5 -36c-24 -10 -50.5 -17.833 -79.5 -23.5s-55.833 -8.5 -80.5 -8.5zM280 511
c-60 0 -105 -19.001 -135 -57.001s-46.667 -94 -50 -168h331c0 80.667 -11.167 138.334 -33.5 173.001s-59.833 52 -112.5 52z" />
    <glyph glyph-name="igrave" unicode="&#xec;" horiz-adv-x="211" 
d="M85 540h40v-540h-40v540zM87 617l-89 189h48l74 -179z" />
    <glyph glyph-name="iacute" unicode="&#xed;" horiz-adv-x="211" 
d="M94 616l74 182h42l-88 -188zM85 540h40v-540h-40v540z" />
    <glyph glyph-name="icircumflex" unicode="&#xee;" horiz-adv-x="211" 
d="M-39 686l145 72l146 -72v-44l-145 72l-146 -72v44zM85 540h40v-540h-40v540z" />
    <glyph glyph-name="idieresis" unicode="&#xef;" horiz-adv-x="211" 
d="M-5 664c-9.33301 0 -17 2.66699 -23 8s-9 13.333 -9 24c0 11.333 3 19.5 9 24.5s13.667 7.5 23 7.5s17.166 -2.5 23.499 -7.5s9.5 -13.167 9.5 -24.5c0 -10.667 -3.16699 -18.667 -9.5 -24s-14.166 -8 -23.499 -8zM217 664c-21.333 0 -32 10.667 -32 32s10.667 32 32 32
c8.66699 0 16.167 -2.5 22.5 -7.5s9.5 -13.167 9.5 -24.5c0 -10.667 -3.16699 -18.667 -9.5 -24s-13.833 -8 -22.5 -8zM85 540h40v-540h-40v540z" />
    <glyph glyph-name="eth" unicode="&#xf0;" horiz-adv-x="575" 
d="M225 672l149 18.002c-22 40.667 -48.333 80 -79 118h47c13.333 -17.333 26 -35.333 38 -54s23.333 -38.334 34 -59.001l138 18v-37l-120 -16c24.667 -54 43.5 -111.833 56.5 -173.5s19.5 -126.167 19.5 -193.5c0 -98 -19.667 -173 -59 -225s-95.333 -78 -168 -78
c-73.333 0 -129.5 24 -168.5 72s-58.5 117.333 -58.5 208s19.5 160 58.5 208s94.833 72 167.5 72c42.667 0 78.167 -8.66699 106.5 -26s51.833 -45 70.5 -83c-6 38.667 -14.333 75.667 -25 111s-24 69.666 -40 102.999l-167 -21v38zM281 29.002
c123.333 0 185 87.668 185 263.001c0 28 -3.83301 55.167 -11.5 81.5s-19.167 49.666 -34.5 69.999s-34.5 36.833 -57.5 49.5s-50.167 19 -81.5 19c-123.333 0 -185 -80.667 -185 -242c0 -160.667 61.667 -241 185 -241z" />
    <glyph glyph-name="ntilde" unicode="&#xf1;" horiz-adv-x="573" 
d="M84 540h33l4 -63h5l73.5 33c21.667 9.33301 41.667 17 60 23s35.333 10.333 51 13s31.167 4 46.5 4c45.333 0 79.333 -11.5 102 -34.5s34 -60.167 34 -111.5v-404h-40v390c0 44 -8.5 75.167 -25.5 93.5s-42.833 27.5 -77.5 27.5c-30 0 -64.167 -6.5 -102.5 -19.5
s-79.5 -30.833 -123.5 -53.5v-438h-40v540zM104 682c16.667 16 34.1641 28.333 52.4971 37s36.833 13 55.5 13c15.333 0 29.333 -2.16699 42 -6.5s25 -9.33301 37 -15s23.833 -10.667 35.5 -15s24.5 -6.5 38.5 -6.5c30.667 0 59.334 12.667 86.001 38l25 -23
c-15.333 -16 -32.833 -28.667 -52.5 -38s-40.167 -14 -61.5 -14c-13.333 0 -26.166 2.16699 -38.499 6.5s-24.666 9.33301 -36.999 15s-24.5 10.667 -36.5 15s-24.333 6.5 -37 6.5c-29.333 0 -57.333 -12.667 -84 -38z" />
    <glyph glyph-name="ograve" unicode="&#xf2;" horiz-adv-x="562" 
d="M281 -10c-73.333 0 -129.5 24 -168.5 72s-58.5 117.333 -58.5 208s19.5 160 58.5 208s95.167 72 168.5 72s129.5 -24 168.5 -72s58.5 -117.333 58.5 -208s-19.5 -160 -58.5 -208s-95.167 -72 -168.5 -72zM281 29c123.333 0 185 80.333 185 241
c0 161.333 -61.667 242 -185 242s-185 -80.667 -185 -242c0 -160.667 61.667 -241 185 -241zM258 617l-89 189h48l74 -179z" />
    <glyph glyph-name="oacute" unicode="&#xf3;" horiz-adv-x="562" 
d="M265 616l74 182h42l-88 -188zM281 -10c-73.333 0 -129.5 24 -168.5 72s-58.5 117.333 -58.5 208s19.5 160 58.5 208s95.167 72 168.5 72s129.5 -24 168.5 -72s58.5 -117.333 58.5 -208s-19.5 -160 -58.5 -208s-95.167 -72 -168.5 -72zM281 29
c123.333 0 185 80.333 185 241c0 161.333 -61.667 242 -185 242s-185 -80.667 -185 -242c0 -160.667 61.667 -241 185 -241z" />
    <glyph glyph-name="ocircumflex" unicode="&#xf4;" horiz-adv-x="562" 
d="M131 686l146 72l146 -72v-44l-146 72l-146 -72v44zM281 -10c-73.333 0 -129.5 24 -168.5 72s-58.5 117.333 -58.5 208s19.5 160 58.5 208s95.167 72 168.5 72s129.5 -24 168.5 -72s58.5 -117.333 58.5 -208s-19.5 -160 -58.5 -208s-95.167 -72 -168.5 -72zM281 29
c123.333 0 185 80.333 185 241c0 161.333 -61.667 242 -185 242s-185 -80.667 -185 -242c0 -160.667 61.667 -241 185 -241z" />
    <glyph glyph-name="otilde" unicode="&#xf5;" horiz-adv-x="562" 
d="M281 -10c-73.333 0 -129.5 24 -168.5 72s-58.5 117.333 -58.5 208s19.5 160 58.5 208s95.167 72 168.5 72s129.5 -24 168.5 -72s58.5 -117.333 58.5 -208s-19.5 -160 -58.5 -208s-95.167 -72 -168.5 -72zM281 29c123.333 0 185 80.333 185 241
c0 161.333 -61.667 242 -185 242s-185 -80.667 -185 -242c0 -160.667 61.667 -241 185 -241zM90 682c16.667 16 34.1641 28.333 52.4971 37s36.833 13 55.5 13c15.333 0 29.333 -2.16699 42 -6.5s25 -9.33301 37 -15s23.833 -10.667 35.5 -15s24.5 -6.5 38.5 -6.5
c30.667 0 59.334 12.667 86.001 38l25 -23c-15.333 -16 -32.833 -28.667 -52.5 -38s-40.167 -14 -61.5 -14c-13.333 0 -26.166 2.16699 -38.499 6.5s-24.666 9.33301 -36.999 15s-24.5 10.667 -36.5 15s-24.333 6.5 -37 6.5c-29.333 0 -57.333 -12.667 -84 -38z" />
    <glyph glyph-name="odieresis" unicode="&#xf6;" horiz-adv-x="562" 
d="M166 664c-10 0 -18 2.66699 -24 8s-9 13.333 -9 24c0 11.333 3 19.5 9 24.5s14 7.5 24 7.5c8.66699 0 16.167 -2.5 22.5 -7.5s9.5 -13.167 9.5 -24.5c0 -10.667 -3.16699 -18.667 -9.5 -24s-13.833 -8 -22.5 -8zM388 664c-9.33301 0 -17 2.66699 -23 8s-9 13.333 -9 24
c0 11.333 3 19.5 9 24.5s13.667 7.5 23 7.5s17.166 -2.5 23.499 -7.5s9.5 -13.167 9.5 -24.5c0 -10.667 -3.16699 -18.667 -9.5 -24s-14.166 -8 -23.499 -8zM281 -10c-73.333 0 -129.5 24 -168.5 72s-58.5 117.333 -58.5 208s19.5 160 58.5 208s95.167 72 168.5 72
s129.5 -24 168.5 -72s58.5 -117.333 58.5 -208s-19.5 -160 -58.5 -208s-95.167 -72 -168.5 -72zM281 29c123.333 0 185 80.333 185 241c0 161.333 -61.667 242 -185 242s-185 -80.667 -185 -242c0 -160.667 61.667 -241 185 -241z" />
    <glyph glyph-name="divide" unicode="&#xf7;" horiz-adv-x="518" 
d="M262 186c-10 0 -18 2.83203 -24 8.49902s-9 13.834 -9 24.501s3 18.834 9 24.501s14 8.5 24 8.5s18.167 -3 24.5 -9s9.5 -14 9.5 -24c0 -10.667 -3.16699 -18.834 -9.5 -24.501s-14.5 -8.5 -24.5 -8.5zM75 388.999h368v-38h-368v38zM262 479.999
c-10 0 -18 2.99902 -24 8.99902s-9 14 -9 24c0 10.667 3 18.834 9 24.501s14 8.5 24 8.5s18.167 -3 24.5 -9s9.5 -14 9.5 -24s-3.16699 -18 -9.5 -24s-14.5 -9 -24.5 -9z" />
    <glyph glyph-name="oslash" unicode="&#xf8;" horiz-adv-x="567" 
d="M102 80c-30.667 47.333 -46 110.667 -46 190c0 90.667 19.5 160 58.5 208s95.5 72 169.5 72c65.333 0 117.333 -20 156 -60l41 50h48l-65 -79c31.333 -47.333 47 -111 47 -191c0 -90.667 -19.5 -160 -58.5 -208s-95.167 -72 -168.5 -72c-66.667 0 -119 19.667 -157 59
l-41 -49h-49zM284 29.001c123.333 0 185 80.333 185 241c0 66 -10.667 118.667 -32 158l-285 -348c30 -34 74 -51 132 -51zM98 270.001c0 -66.667 10.333 -119.333 31 -158l286 348c-30 34.667 -73.667 52 -131 52c-124 0 -186 -80.667 -186 -242z" />
    <glyph glyph-name="ugrave" unicode="&#xf9;" horiz-adv-x="573" 
d="M207 -10c-84.667 0 -127 48.667 -127 146v404h40v-390c0 -42 7.5 -72.667 22.5 -92s38.833 -29 71.5 -29c18.667 0 37.334 2 56.001 6s37.5 9.5 56.5 16.5s38.5 15.167 58.5 24.5l64 30v434h40v-540h-33l-5 68h-4l-75.5 -35c-21.667 -10 -41.5 -18.167 -59.5 -24.5
s-35.333 -11 -52 -14s-34.334 -4.5 -53.001 -4.5zM261 617l-89 189h48l74 -179z" />
    <glyph glyph-name="uacute" unicode="&#xfa;" horiz-adv-x="573" 
d="M268 616l74 182h42l-88 -188zM207 -10c-84.667 0 -127 48.667 -127 146v404h40v-390c0 -42 7.5 -72.667 22.5 -92s38.833 -29 71.5 -29c18.667 0 37.334 2 56.001 6s37.5 9.5 56.5 16.5s38.5 15.167 58.5 24.5l64 30v434h40v-540h-33l-5 68h-4l-75.5 -35
c-21.667 -10 -41.5 -18.167 -59.5 -24.5s-35.333 -11 -52 -14s-34.334 -4.5 -53.001 -4.5z" />
    <glyph glyph-name="ucircumflex" unicode="&#xfb;" horiz-adv-x="573" 
d="M134 686l146 72l146 -72v-44l-146 72l-146 -72v44zM207 -10c-84.667 0 -127 48.667 -127 146v404h40v-390c0 -42 7.5 -72.667 22.5 -92s38.833 -29 71.5 -29c18.667 0 37.334 2 56.001 6s37.5 9.5 56.5 16.5s38.5 15.167 58.5 24.5l64 30v434h40v-540h-33l-5 68h-4
l-75.5 -35c-21.667 -10 -41.5 -18.167 -59.5 -24.5s-35.333 -11 -52 -14s-34.334 -4.5 -53.001 -4.5z" />
    <glyph glyph-name="udieresis" unicode="&#xfc;" horiz-adv-x="573" 
d="M169 664c-10 0 -18 2.66699 -24 8s-9 13.333 -9 24c0 11.333 3 19.5 9 24.5s14 7.5 24 7.5c8.66699 0 16.167 -2.5 22.5 -7.5s9.5 -13.167 9.5 -24.5c0 -10.667 -3.16699 -18.667 -9.5 -24s-13.833 -8 -22.5 -8zM391 664c-9.33301 0 -17 2.66699 -23 8s-9 13.333 -9 24
c0 11.333 3 19.5 9 24.5s13.667 7.5 23 7.5s17.166 -2.5 23.499 -7.5s9.5 -13.167 9.5 -24.5c0 -10.667 -3.16699 -18.667 -9.5 -24s-14.166 -8 -23.499 -8zM207 -10c-84.667 0 -127 48.667 -127 146v404h40v-390c0 -42 7.5 -72.667 22.5 -92s38.833 -29 71.5 -29
c18.667 0 37.334 2 56.001 6s37.5 9.5 56.5 16.5s38.5 15.167 58.5 24.5l64 30v434h40v-540h-33l-5 68h-4l-75.5 -35c-21.667 -10 -41.5 -18.167 -59.5 -24.5s-35.333 -11 -52 -14s-34.334 -4.5 -53.001 -4.5z" />
    <glyph glyph-name="yacute" unicode="&#xfd;" horiz-adv-x="528" 
d="M155 -210v7l87 206l-219 531v6h41l176 -430l21 -59h4l22 59l183 430h39v-6l-319 -754zM253 616l74 182h42l-88 -188z" />
    <glyph glyph-name="thorn" unicode="&#xfe;" horiz-adv-x="572" 
d="M84 808l40.001 -0.000976562v-332c19.333 23.333 43.666 41.5 72.999 54.5s63 19.5 101 19.5c71.333 0 125.833 -22.333 163.5 -67s56.5 -114.667 56.5 -210c0 -48 -5.83301 -89.833 -17.5 -125.5s-28.5 -65.167 -50.5 -88.5s-48.333 -40.666 -79 -51.999
s-65 -17 -103 -17c-27.333 0 -53.333 1.5 -78 4.5s-46.667 5.5 -66 7.5v-222h-40v1028zM269.001 26.999c66 0 117.001 19.5 153.001 58.5s54 101.167 54 186.5c0 84.667 -15 145.834 -45 183.501s-75.333 56.5 -136 56.5c-21.333 0 -42.333 -3.16699 -63 -9.5
s-39 -15 -55 -26s-28.833 -24.167 -38.5 -39.5s-14.5 -32.333 -14.5 -51v-347c19.333 -2.66699 41.666 -5.33398 66.999 -8.00098s51.333 -4 78 -4z" />
    <glyph glyph-name="ydieresis" unicode="&#xff;" horiz-adv-x="528" 
d="M155 -210v7l87 206l-219 531v6h41l176 -430l21 -59h4l22 59l183 430h39v-6l-319 -754zM153 664c-10 0 -18 2.66699 -24 8s-9 13.333 -9 24c0 11.333 3 19.5 9 24.5s14 7.5 24 7.5c8.66699 0 16.167 -2.5 22.5 -7.5s9.5 -13.167 9.5 -24.5
c0 -10.667 -3.16699 -18.667 -9.5 -24s-13.833 -8 -22.5 -8zM375 664c-9.33301 0 -17 2.66699 -23 8s-9 13.333 -9 24c0 11.333 3 19.5 9 24.5s13.667 7.5 23 7.5s17.166 -2.5 23.499 -7.5s9.5 -13.167 9.5 -24.5c0 -10.667 -3.16699 -18.667 -9.5 -24
s-14.166 -8 -23.499 -8z" />
    <glyph glyph-name="Amacron" unicode="&#x100;" horiz-adv-x="644" 
d="M11 5l280 735h63l279 -735v-5h-41l-93 246h-353l-94 -246h-41v5zM484 284l-115 303l-45 119h-4l-45 -119l-115 -303h324zM181 879h281v-37h-281v37z" />
    <glyph glyph-name="amacron" unicode="&#x101;" horiz-adv-x="500" 
d="M182 -5c-91.333 0 -137.003 44.332 -137.003 132.999c0 51.333 16.167 90 48.5 116s84.5 42.333 156.5 49l131 12v60c0 26 -2.5 48.167 -7.5 66.5s-13 33 -24 44s-25.667 19 -44 24s-40.5 7.5 -66.5 7.5c-23.333 0 -47.166 -1.33301 -71.499 -4s-52.5 -7 -84.5 -13l-5 37
c33.333 6.66699 62.833 11.334 88.5 14.001s50.834 4 75.501 4c62 0 107.333 -13.833 136 -41.5s43 -71.5 43 -131.5v-372h-33l-6 69h-4c-36.667 -23.333 -71.167 -41.5 -103.5 -54.5s-63.166 -19.5 -92.499 -19.5zM187.997 32.999c28.667 0 59.5 7 92.5 21
s66.5 31.667 100.5 53v164l-123 -11c-32 -3.33301 -59 -8 -81 -14s-39.667 -14.167 -53 -24.5s-23 -23 -29 -38s-9 -32.833 -9 -53.5c0 -64.667 34 -97 102 -97zM114.997 689.999h286v-38h-286v38z" />
    <glyph glyph-name="Abreve" unicode="&#x102;" horiz-adv-x="644" 
d="M11 5l280 735h63l279 -735v-5h-41l-93 246h-353l-94 -246h-41v5zM484 284l-115 303l-45 119h-4l-45 -119l-115 -303h324zM324 816c-50.667 0 -90.168 11.833 -118.501 35.5s-42.5 56.5 -42.5 98.5h38c0 -30.667 10.833 -54.667 32.5 -72s51.834 -26 90.501 -26
c38 0 67.833 8.66699 89.5 26s32.5 41.333 32.5 72h38c0 -42 -14.167 -74.833 -42.5 -98.5s-67.5 -35.5 -117.5 -35.5z" />
    <glyph glyph-name="abreve" unicode="&#x103;" horiz-adv-x="500" 
d="M182 -5c-91.333 0 -137.003 44.332 -137.003 132.999c0 51.333 16.167 90 48.5 116s84.5 42.333 156.5 49l131 12v60c0 26 -2.5 48.167 -7.5 66.5s-13 33 -24 44s-25.667 19 -44 24s-40.5 7.5 -66.5 7.5c-23.333 0 -47.166 -1.33301 -71.499 -4s-52.5 -7 -84.5 -13l-5 37
c33.333 6.66699 62.833 11.334 88.5 14.001s50.834 4 75.501 4c62 0 107.333 -13.833 136 -41.5s43 -71.5 43 -131.5v-372h-33l-6 69h-4c-36.667 -23.333 -71.167 -41.5 -103.5 -54.5s-63.166 -19.5 -92.499 -19.5zM187.997 32.999c28.667 0 59.5 7 92.5 21
s66.5 31.667 100.5 53v164l-123 -11c-32 -3.33301 -59 -8 -81 -14s-39.667 -14.167 -53 -24.5s-23 -23 -29 -38s-9 -32.833 -9 -53.5c0 -64.667 34 -97 102 -97zM251.997 620.999c-53.333 0 -93.5 12.333 -120.5 37s-40.5 59 -40.5 103h37c0 -39.333 11 -67 33 -83
s52.333 -24 91 -24s69 8 91 24s33 43.667 33 83h38c0 -44 -13.5 -78.333 -40.5 -103s-67.5 -37 -121.5 -37z" />
    <glyph glyph-name="Aogonek" unicode="&#x104;" horiz-adv-x="644" 
d="M564 -220c-55.333 0 -82.999 25.332 -82.999 75.999c0 13.333 2 25.833 6 37.5s10.5 23.167 19.5 34.5s21.167 22.833 36.5 34.5s34 24.167 56 37.5h-7l-93 246h-353l-94 -246h-41v5l280 735h63l279 -735v-27c-41.333 -20 -70.833 -39.333 -88.5 -58
s-26.5 -39.667 -26.5 -63c0 -15.333 4.16699 -26.5 12.5 -33.5s22.166 -10.5 41.499 -10.5s39 3.33301 59 10v-31c-9.33301 -3.33301 -19.833 -6.16602 -31.5 -8.49902s-23.5 -3.5 -35.5 -3.5zM484.001 283.999l-115 303l-45 119h-4l-45 -119l-115 -303h324z" />
    <glyph glyph-name="aogonek" unicode="&#x105;" horiz-adv-x="500" 
d="M352 -220c-55.333 0 -83.001 25.3311 -83.001 75.998c0 13.333 2 25.833 6 37.5s10.667 23.167 20 34.5s21.666 22.833 36.999 34.5s34 24.167 56 37.5l-6 69h-4c-36.667 -23.333 -71.167 -41.5 -103.5 -54.5s-63.166 -19.5 -92.499 -19.5
c-91.333 0 -137 44.333 -137 133c0 51.333 16.167 90 48.5 116s84.5 42.333 156.5 49l131 12v60c0 26 -2.5 48.167 -7.5 66.5s-13 33 -24 44s-25.667 19 -44 24s-40.5 7.5 -66.5 7.5c-23.333 0 -47.166 -1.33301 -71.499 -4s-52.5 -7 -84.5 -13l-5 37
c33.333 6.66699 62.833 11.334 88.5 14.001s50.834 4 75.501 4c62 0 107.333 -13.833 136 -41.5s43 -71.5 43 -131.5v-394c-41.333 -20 -70.833 -39.333 -88.5 -58s-26.5 -39.667 -26.5 -63c0 -15.333 4.16699 -26.5 12.5 -33.5s22.166 -10.5 41.499 -10.5s39 3.33301 59 10
v-31c-9.33301 -3.33301 -19.833 -6.16602 -31.5 -8.49902s-23.5 -3.5 -35.5 -3.5zM187.999 32.998c28.667 0 59.5 7 92.5 21s66.5 31.667 100.5 53v164l-123 -11c-32 -3.33301 -59 -8 -81 -14s-39.667 -14.167 -53 -24.5s-23 -23 -29 -38s-9 -32.833 -9 -53.5
c0 -64.667 34 -97 102 -97z" />
    <glyph glyph-name="Cacute" unicode="&#x106;" horiz-adv-x="579" 
d="M372 -8c-208.667 1.33301 -313.004 126.666 -313.004 375.999c0 254 106.333 381 319 381c10.667 0 22.667 -0.5 36 -1.5s27 -2.33301 41 -4s28 -3.66699 42 -6s27.333 -4.83301 40 -7.5v-39c-28 6 -55.833 10.667 -83.5 14s-52.167 5 -73.5 5
c-93.333 0 -163.5 -28.5 -210.5 -85.5s-70.5 -142.167 -70.5 -255.5c0 -112 22.833 -196.333 68.5 -253s113.167 -85 202.5 -85c10.667 0 23.334 0.5 38.001 1.5s29.834 2.5 45.501 4.5s30.834 4.33301 45.501 7s27.334 5.33398 38.001 8.00098v-38
c-11.333 -3.33301 -24 -6.33301 -38 -9s-28.5 -5 -43.5 -7s-29.667 -3.5 -44 -4.5s-27.5 -1.5 -39.5 -1.5zM321.996 805l79 122h44l-87 -128z" />
    <glyph glyph-name="cacute" unicode="&#x107;" horiz-adv-x="450" 
d="M250 616l74 182h42l-88 -188zM299 -9c-163.333 0 -245 92.668 -245 278.001c0 186.667 81.667 280 245 280c15.333 0 32.5 -1 51.5 -3s37.167 -5 54.5 -9v-40c-33.333 9.33301 -67.333 14 -102 14c-138 0 -207 -80.667 -207 -242c0 -82.667 16.333 -143.334 49 -182.001
s84.667 -58 156 -58c17.333 0 34 1 50 3s34 5 54 9v-37c-13.333 -4 -29.833 -7.16699 -49.5 -9.5s-38.5 -3.5 -56.5 -3.5z" />
    <glyph glyph-name="Ccircumflex" unicode="&#x108;" horiz-adv-x="579" 
d="M372 -8c-208.667 1.33301 -313.004 126.666 -313.004 375.999c0 254 106.333 381 319 381c10.667 0 22.667 -0.5 36 -1.5s27 -2.33301 41 -4s28 -3.66699 42 -6s27.333 -4.83301 40 -7.5v-39c-28 6 -55.833 10.667 -83.5 14s-52.167 5 -73.5 5
c-93.333 0 -163.5 -28.5 -210.5 -85.5s-70.5 -142.167 -70.5 -255.5c0 -112 22.833 -196.333 68.5 -253s113.167 -85 202.5 -85c10.667 0 23.334 0.5 38.001 1.5s29.834 2.5 45.501 4.5s30.834 4.33301 45.501 7s27.334 5.33398 38.001 8.00098v-38
c-11.333 -3.33301 -24 -6.33301 -38 -9s-28.5 -5 -43.5 -7s-29.667 -3.5 -44 -4.5s-27.5 -1.5 -39.5 -1.5zM200.996 862l146 73l146 -73v-44l-146 72l-146 -72v44z" />
    <glyph glyph-name="ccircumflex" unicode="&#x109;" horiz-adv-x="450" 
d="M116 686l146 72l146 -72v-44l-146 72l-146 -72v44zM299 -9c-163.333 0 -245 92.668 -245 278.001c0 186.667 81.667 280 245 280c15.333 0 32.5 -1 51.5 -3s37.167 -5 54.5 -9v-40c-33.333 9.33301 -67.333 14 -102 14c-138 0 -207 -80.667 -207 -242
c0 -82.667 16.333 -143.334 49 -182.001s84.667 -58 156 -58c17.333 0 34 1 50 3s34 5 54 9v-37c-13.333 -4 -29.833 -7.16699 -49.5 -9.5s-38.5 -3.5 -56.5 -3.5z" />
    <glyph glyph-name="Cdotaccent" unicode="&#x10a;" horiz-adv-x="579" 
d="M348 820c-10 0 -18.333 2.66699 -25 8s-10 14.333 -10 27c0 12 3.33301 20.667 10 26s15 8 25 8c9.33301 0 17.666 -2.66699 24.999 -8s11 -14 11 -26c0 -12.667 -3.66699 -21.667 -11 -27s-15.666 -8 -24.999 -8zM372 -8
c-208.667 1.33301 -313.004 126.666 -313.004 375.999c0 254 106.333 381 319 381c10.667 0 22.667 -0.5 36 -1.5s27 -2.33301 41 -4s28 -3.66699 42 -6s27.333 -4.83301 40 -7.5v-39c-28 6 -55.833 10.667 -83.5 14s-52.167 5 -73.5 5c-93.333 0 -163.5 -28.5 -210.5 -85.5
s-70.5 -142.167 -70.5 -255.5c0 -112 22.833 -196.333 68.5 -253s113.167 -85 202.5 -85c10.667 0 23.334 0.5 38.001 1.5s29.834 2.5 45.501 4.5s30.834 4.33301 45.501 7s27.334 5.33398 38.001 8.00098v-38c-11.333 -3.33301 -24 -6.33301 -38 -9s-28.5 -5 -43.5 -7
s-29.667 -3.5 -44 -4.5s-27.5 -1.5 -39.5 -1.5z" />
    <glyph glyph-name="cdotaccent" unicode="&#x10b;" horiz-adv-x="450" 
d="M299 -9c-163.333 0 -245 92.668 -245 278.001c0 186.667 81.667 280 245 280c15.333 0 32.5 -1 51.5 -3s37.167 -5 54.5 -9v-40c-33.333 9.33301 -67.333 14 -102 14c-138 0 -207 -80.667 -207 -242c0 -82.667 16.333 -143.334 49 -182.001s84.667 -58 156 -58
c17.333 0 34 1 50 3s34 5 54 9v-37c-13.333 -4 -29.833 -7.16699 -49.5 -9.5s-38.5 -3.5 -56.5 -3.5zM262 662.001c-10 0 -18.333 2.66699 -25 8s-10 14 -10 26c0 12.667 3.33301 21.667 10 27s15 8 25 8c9.33301 0 17.666 -2.66699 24.999 -8s11 -14.333 11 -27
c0 -12 -3.66699 -20.667 -11 -26s-15.666 -8 -24.999 -8z" />
    <glyph glyph-name="Ccaron" unicode="&#x10c;" horiz-adv-x="579" 
d="M372 -8c-208.667 1.33301 -313.004 126.666 -313.004 375.999c0 254 106.333 381 319 381c10.667 0 22.667 -0.5 36 -1.5s27 -2.33301 41 -4s28 -3.66699 42 -6s27.333 -4.83301 40 -7.5v-39c-28 6 -55.833 10.667 -83.5 14s-52.167 5 -73.5 5
c-93.333 0 -163.5 -28.5 -210.5 -85.5s-70.5 -142.167 -70.5 -255.5c0 -112 22.833 -196.333 68.5 -253s113.167 -85 202.5 -85c10.667 0 23.334 0.5 38.001 1.5s29.834 2.5 45.501 4.5s30.834 4.33301 45.501 7s27.334 5.33398 38.001 8.00098v-38
c-11.333 -3.33301 -24 -6.33301 -38 -9s-28.5 -5 -43.5 -7s-29.667 -3.5 -44 -4.5s-27.5 -1.5 -39.5 -1.5zM201.996 930l146 -72l146 72v-44l-146 -73l-146 73v44z" />
    <glyph glyph-name="ccaron" unicode="&#x10d;" horiz-adv-x="450" 
d="M118 747l146 -72l146 72v-44l-146 -72l-146 72v44zM299 -9c-163.333 0 -245 92.668 -245 278.001c0 186.667 81.667 280 245 280c15.333 0 32.5 -1 51.5 -3s37.167 -5 54.5 -9v-40c-33.333 9.33301 -67.333 14 -102 14c-138 0 -207 -80.667 -207 -242
c0 -82.667 16.333 -143.334 49 -182.001s84.667 -58 156 -58c17.333 0 34 1 50 3s34 5 54 9v-37c-13.333 -4 -29.833 -7.16699 -49.5 -9.5s-38.5 -3.5 -56.5 -3.5z" />
    <glyph glyph-name="Dcaron" unicode="&#x10e;" horiz-adv-x="702" 
d="M172 930l146 -72l146 72v-44l-146 -73l-146 73v44zM269 -11c-38 0 -72.333 1.16895 -103 3.50195s-53 6.16602 -67 11.499v733l42 4.5c16 1.66699 32.5 3 49.5 4s33.5 1.83301 49.5 2.5s29.667 1 41 1c124.667 0 216.334 -30.833 275.001 -92.5s88 -157.167 88 -286.5
c0 -130.667 -30.333 -226.834 -91 -288.501s-155.334 -92.5 -284.001 -92.5zM273 28.002c112.667 0 195.833 27.8301 249.5 83.4971s80.5 141.834 80.5 258.501s-26 202.334 -78 257.001s-133.333 82 -244 82c-10 0 -21 -0.166992 -33 -0.5s-24.5 -0.833008 -37.5 -1.5
s-25.667 -1.5 -38 -2.5s-23.5 -2.16699 -33.5 -3.5v-664c26.667 -3.33301 49.667 -5.66602 69 -6.99902s41 -2 65 -2z" />
    <glyph glyph-name="dcaron" unicode="&#x10f;" horiz-adv-x="572" 
d="M566 808h39l-21 -228h-18v228zM275 -10c-71.333 0 -125.999 22.501 -163.999 67.501s-57 115.833 -57 212.5c0 47.333 6 88.666 18 123.999s28.667 64.5 50 87.5s47.166 40.167 77.499 51.5s64.166 17 101.499 17c28 0 54.333 -1.5 79 -4.5s47.334 -5.5 68.001 -7.5v270
h40v-808h-34l-5 66h-5c-19.333 -24.667 -43 -43.5 -71 -56.5s-60.667 -19.5 -98 -19.5zM277.001 28.001c21.333 0 42.168 3.16992 62.501 9.50293s38.5 15.166 54.5 26.499s29 24.666 39 39.999s15 32.333 15 51v345c-20.667 3.33301 -43.334 6.16602 -68.001 8.49902
s-51 3.5 -79 3.5c-64.667 0 -115 -19.5 -151 -58.5s-54 -100.167 -54 -183.5c0 -84.667 15 -146.167 45 -184.5s75.333 -57.5 136 -57.5z" />
    <glyph glyph-name="Dcroat" unicode="&#x110;" horiz-adv-x="708" 
d="M5 387l100 0.00195312v350l42 4.5c16 1.66699 32.5 3 49.5 4s33.5 1.83301 49.5 2.5s29.667 1 41 1c124.667 0 216.334 -30.833 275.001 -92.5s88 -157.167 88 -286.5c0 -130.667 -30.333 -226.834 -91 -288.501s-155.334 -92.5 -284.001 -92.5
c-38 0 -72.333 1.16699 -103 3.5s-53 6.16602 -67 11.499v345h-100v38zM279 28.002c112.667 0 195.833 27.8301 249.5 83.4971s80.5 141.834 80.5 258.501s-26 202.334 -78 257.001s-133.333 82 -244 82c-10 0 -21 -0.166992 -33 -0.5s-24.5 -0.833008 -37.5 -1.5
s-25.667 -1.5 -38 -2.5s-23.5 -2.16699 -33.5 -3.5v-314h213v-38h-213v-312c26.667 -3.33301 49.667 -5.66602 69 -6.99902s41 -2 65 -2z" />
    <glyph glyph-name="dcroat" unicode="&#x111;" horiz-adv-x="572" 
d="M250 690l198.001 0.000976562v118h40v-118h81v-34h-81v-656h-34l-5 66h-5c-19.333 -24.667 -43 -43.5 -71 -56.5s-60.667 -19.5 -98 -19.5c-71.333 0 -126 22.5 -164 67.5s-57 115.833 -57 212.5c0 47.333 6 88.666 18 123.999s28.667 64.5 50 87.5
s47.166 40.167 77.499 51.5s64.166 17 101.499 17c28 0 54.333 -1.5 79 -4.5s47.334 -5.5 68.001 -7.5v118h-198v34zM277.001 28.001c21.333 0 42.168 3.16992 62.501 9.50293s38.5 15.166 54.5 26.499s29 24.666 39 39.999s15 32.333 15 51v345
c-20.667 3.33301 -43.334 6.16602 -68.001 8.49902s-51 3.5 -79 3.5c-64.667 0 -115 -19.5 -151 -58.5s-54 -100.167 -54 -183.5c0 -84.667 15 -146.167 45 -184.5s75.333 -57.5 136 -57.5z" />
    <glyph glyph-name="Emacron" unicode="&#x112;" horiz-adv-x="592" 
d="M173 879h281v-37h-281v37zM99 740h430v-38h-390v-306h368v-38h-368v-320h398v-38h-438v740z" />
    <glyph glyph-name="emacron" unicode="&#x113;" horiz-adv-x="517" 
d="M288 -9c-76 0 -134 22.833 -174 68.5s-60 112.167 -60 199.5c0 94.667 19.333 166.667 58 216s94.667 74 168 74c61.333 0 107.5 -20.333 138.5 -61s46.5 -99.334 46.5 -176.001c0 -28 -1 -48.333 -3 -61h-367c3.33301 -148 69.333 -222 198 -222
c23.333 0 46.833 2.33301 70.5 7s50.167 12.334 79.5 23.001l5 -36c-24 -10 -50.5 -17.833 -79.5 -23.5s-55.833 -8.5 -80.5 -8.5zM280 511c-60 0 -105 -19.001 -135 -57.001s-46.667 -94 -50 -168h331c0 80.667 -11.167 138.334 -33.5 173.001s-59.833 52 -112.5 52z
M131 689.999h286v-38h-286v38z" />
    <glyph glyph-name="Ebreve" unicode="&#x114;" horiz-adv-x="592" 
d="M316 816c-50.667 0 -90.168 11.833 -118.501 35.5s-42.5 56.5 -42.5 98.5h38c0 -30.667 10.833 -54.667 32.5 -72s51.834 -26 90.501 -26c38 0 67.833 8.66699 89.5 26s32.5 41.333 32.5 72h38c0 -42 -14.167 -74.833 -42.5 -98.5s-67.5 -35.5 -117.5 -35.5zM98.999 740
h430v-38h-390v-306h368v-38h-368v-320h398v-38h-438v740z" />
    <glyph glyph-name="ebreve" unicode="&#x115;" horiz-adv-x="517" 
d="M288 -9c-76 0 -134 22.833 -174 68.5s-60 112.167 -60 199.5c0 94.667 19.333 166.667 58 216s94.667 74 168 74c61.333 0 107.5 -20.333 138.5 -61s46.5 -99.334 46.5 -176.001c0 -28 -1 -48.333 -3 -61h-367c3.33301 -148 69.333 -222 198 -222
c23.333 0 46.833 2.33301 70.5 7s50.167 12.334 79.5 23.001l5 -36c-24 -10 -50.5 -17.833 -79.5 -23.5s-55.833 -8.5 -80.5 -8.5zM280 511c-60 0 -105 -19.001 -135 -57.001s-46.667 -94 -50 -168h331c0 80.667 -11.167 138.334 -33.5 173.001s-59.833 52 -112.5 52z
M270 620.999c-53.333 0 -93.5 12.333 -120.5 37s-40.5 59 -40.5 103h37c0 -39.333 11 -67 33 -83s52.333 -24 91 -24s69 8 91 24s33 43.667 33 83h38c0 -44 -13.5 -78.333 -40.5 -103s-67.5 -37 -121.5 -37z" />
    <glyph glyph-name="Edotaccent" unicode="&#x116;" horiz-adv-x="592" 
d="M316 820c-10 0 -18.333 2.66699 -25 8s-10 14.333 -10 27c0 12 3.33301 20.667 10 26s15 8 25 8c9.33301 0 17.666 -2.66699 24.999 -8s11 -14 11 -26c0 -12.667 -3.66699 -21.667 -11 -27s-15.666 -8 -24.999 -8zM99 740h430v-38h-390v-306h368v-38h-368v-320h398v-38
h-438v740z" />
    <glyph glyph-name="edotaccent" unicode="&#x117;" horiz-adv-x="517" 
d="M288 -9c-76 0 -134 22.833 -174 68.5s-60 112.167 -60 199.5c0 94.667 19.333 166.667 58 216s94.667 74 168 74c61.333 0 107.5 -20.333 138.5 -61s46.5 -99.334 46.5 -176.001c0 -28 -1 -48.333 -3 -61h-367c3.33301 -148 69.333 -222 198 -222
c23.333 0 46.833 2.33301 70.5 7s50.167 12.334 79.5 23.001l5 -36c-24 -10 -50.5 -17.833 -79.5 -23.5s-55.833 -8.5 -80.5 -8.5zM280 511c-60 0 -105 -19.001 -135 -57.001s-46.667 -94 -50 -168h331c0 80.667 -11.167 138.334 -33.5 173.001s-59.833 52 -112.5 52z
M269 661.999c-10 0 -18.333 2.66699 -25 8s-10 14 -10 26c0 12.667 3.33301 21.667 10 27s15 8 25 8c9.33301 0 17.666 -2.66699 24.999 -8s11 -14.333 11 -27c0 -12 -3.66699 -20.667 -11 -26s-15.666 -8 -24.999 -8z" />
    <glyph glyph-name="Eogonek" unicode="&#x118;" horiz-adv-x="592" 
d="M99 740l430.001 -0.000976562v-38h-390v-306h368v-38h-368v-320h398v-60c-41.333 -20 -70.833 -39.333 -88.5 -58s-26.5 -39.667 -26.5 -63c0 -15.333 4.16699 -26.5 12.5 -33.5s22.166 -10.5 41.499 -10.5s39 3.33301 59 10v-31
c-9.33301 -3.33301 -19.833 -6.16602 -31.5 -8.49902s-23.5 -3.5 -35.5 -3.5c-55.333 0 -83 25.333 -83 76c0 13.333 2 25.833 6 37.5s10.5 23.167 19.5 34.5s21.167 22.833 36.5 34.5s34 24.167 56 37.5h-404v740z" />
    <glyph glyph-name="eogonek" unicode="&#x119;" horiz-adv-x="517" 
d="M288 -9c-76 0 -133.998 22.832 -173.998 68.499s-60 112.167 -60 199.5c0 94.667 19.333 166.667 58 216s94.667 74 168 74c61.333 0 107.5 -20.333 138.5 -61s46.5 -99.334 46.5 -176.001c0 -28 -1 -48.333 -3 -61h-367c3.33301 -148 69.333 -222 198 -222
c23.333 0 46.833 2.33301 70.5 7s50.167 12.334 79.5 23.001l5 -36v-22c-41.333 -20 -70.833 -39.333 -88.5 -58s-26.5 -39.667 -26.5 -63c0 -15.333 4.16699 -26.5 12.5 -33.5s22.166 -10.5 41.499 -10.5s39 3.33301 59 10v-31
c-9.33301 -3.33301 -19.833 -6.16602 -31.5 -8.49902s-23.5 -3.5 -35.5 -3.5c-55.333 0 -83 25.333 -83 76c0 23.333 6.16699 44.333 18.5 63s34.166 38.667 65.499 60c-33.333 -7.33301 -64 -11 -92 -11zM280.002 510.999c-60 0 -105 -19.001 -135 -57.001
s-46.667 -94 -50 -168h331c0 80.667 -11.167 138.334 -33.5 173.001s-59.833 52 -112.5 52z" />
    <glyph glyph-name="Ecaron" unicode="&#x11a;" horiz-adv-x="592" 
d="M171 930l146 -72l146 72v-44l-146 -73l-146 73v44zM99 740h430v-38h-390v-306h368v-38h-368v-320h398v-38h-438v740z" />
    <glyph glyph-name="ecaron" unicode="&#x11b;" horiz-adv-x="517" 
d="M125 747l146 -72l146 72v-44l-146 -72l-146 72v44zM288 -9c-76 0 -134 22.833 -174 68.5s-60 112.167 -60 199.5c0 94.667 19.333 166.667 58 216s94.667 74 168 74c61.333 0 107.5 -20.333 138.5 -61s46.5 -99.334 46.5 -176.001c0 -28 -1 -48.333 -3 -61h-367
c3.33301 -148 69.333 -222 198 -222c23.333 0 46.833 2.33301 70.5 7s50.167 12.334 79.5 23.001l5 -36c-24 -10 -50.5 -17.833 -79.5 -23.5s-55.833 -8.5 -80.5 -8.5zM280 511c-60 0 -105 -19.001 -135 -57.001s-46.667 -94 -50 -168h331
c0 80.667 -11.167 138.334 -33.5 173.001s-59.833 52 -112.5 52z" />
    <glyph glyph-name="Gcircumflex" unicode="&#x11c;" horiz-adv-x="638" 
d="M382 -8c-215.333 1.33301 -323.002 126.667 -323.002 376c0 254 110.333 381 331 381c52.667 0 110.334 -8.33301 173.001 -25v-39c-19.333 4.66699 -36.666 8.66699 -51.999 12s-29.666 6 -42.999 8s-26.166 3.33301 -38.499 4s-25.166 1 -38.499 1
c-96 0 -168.667 -28.5 -218 -85.5s-74 -142.167 -74 -255.5c0 -112 23.833 -196.333 71.5 -253s117.834 -85 210.501 -85c8.66699 0 19.167 0.5 31.5 1.5s25.166 2.33301 38.499 4s26.666 3.5 39.999 5.5s25.666 4.33301 36.999 7v327h39v-356
c-29.333 -8.66699 -60.833 -15.5 -94.5 -20.5s-63.834 -7.5 -90.501 -7.5zM206.998 862.001l146 73l146 -73v-44l-146 72l-146 -72v44z" />
    <glyph glyph-name="gcircumflex" unicode="&#x11d;" horiz-adv-x="572" 
d="M151 686l146 72l146 -72v-44l-146 72l-146 -72v44zM250 -219c-27.333 0 -54.499 2 -81.499 6s-52.5 9.66699 -76.5 17l4 39c25.333 -7.33301 51.333 -13.166 78 -17.499s53 -6.5 79 -6.5c29.333 0 56 3.66699 80 11s44.5 19.5 61.5 36.5s30.333 39.833 40 68.5
s14.5 64 14.5 106v26h-4c-19.333 -24 -43.166 -42.667 -71.499 -56s-61.166 -20 -98.499 -20c-71.333 0 -126 22.5 -164 67.5s-57 115.5 -57 211.5c0 47.333 6 88.666 18 123.999s28.667 64.5 50 87.5s47.166 40.167 77.499 51.5s64.166 17 101.499 17
c31.333 0 64.166 -1.66699 98.499 -5s63.833 -8.33301 88.5 -15v-484c0 -53.333 -6.16699 -97 -18.5 -131s-29.333 -61 -51 -81s-47 -33.833 -76 -41.5s-59.833 -11.5 -92.5 -11.5zM277.001 29c21.333 0 42.167 3.16992 62.5 9.50293s38.5 15.166 54.5 26.499
s29 24.666 39 39.999s15 32.333 15 51v344c-20.667 3.33301 -43.5 6.16602 -68.5 8.49902s-51.167 3.5 -78.5 3.5c-64.667 0 -115 -19.5 -151 -58.5s-54 -100.167 -54 -183.5c0 -84 15 -145.167 45 -183.5s75.333 -57.5 136 -57.5z" />
    <glyph glyph-name="Gbreve" unicode="&#x11e;" horiz-adv-x="638" 
d="M354 816c-50.667 0 -90.168 11.833 -118.501 35.5s-42.5 56.5 -42.5 98.5h38c0 -30.667 10.833 -54.667 32.5 -72s51.834 -26 90.501 -26c38 0 67.833 8.66699 89.5 26s32.5 41.333 32.5 72h38c0 -42 -14.167 -74.833 -42.5 -98.5s-67.5 -35.5 -117.5 -35.5zM381.999 -8
c-215.333 1.33301 -323.002 126.667 -323.002 376c0 254 110.333 381 331 381c52.667 0 110.334 -8.33301 173.001 -25v-39c-19.333 4.66699 -36.666 8.66699 -51.999 12s-29.666 6 -42.999 8s-26.166 3.33301 -38.499 4s-25.166 1 -38.499 1
c-96 0 -168.667 -28.5 -218 -85.5s-74 -142.167 -74 -255.5c0 -112 23.833 -196.333 71.5 -253s117.834 -85 210.501 -85c8.66699 0 19.167 0.5 31.5 1.5s25.166 2.33301 38.499 4s26.666 3.5 39.999 5.5s25.666 4.33301 36.999 7v327h39v-356
c-29.333 -8.66699 -60.833 -15.5 -94.5 -20.5s-63.834 -7.5 -90.501 -7.5z" />
    <glyph glyph-name="gbreve" unicode="&#x11f;" horiz-adv-x="572" 
d="M250 -219c-27.333 0 -54.499 2 -81.499 6s-52.5 9.66699 -76.5 17l4 39c25.333 -7.33301 51.333 -13.166 78 -17.499s53 -6.5 79 -6.5c29.333 0 56 3.66699 80 11s44.5 19.5 61.5 36.5s30.333 39.833 40 68.5s14.5 64 14.5 106v26h-4
c-19.333 -24 -43.166 -42.667 -71.499 -56s-61.166 -20 -98.499 -20c-71.333 0 -126 22.5 -164 67.5s-57 115.5 -57 211.5c0 47.333 6 88.666 18 123.999s28.667 64.5 50 87.5s47.166 40.167 77.499 51.5s64.166 17 101.499 17c31.333 0 64.166 -1.66699 98.499 -5
s63.833 -8.33301 88.5 -15v-484c0 -53.333 -6.16699 -97 -18.5 -131s-29.333 -61 -51 -81s-47 -33.833 -76 -41.5s-59.833 -11.5 -92.5 -11.5zM277.001 29c21.333 0 42.167 3.16992 62.5 9.50293s38.5 15.166 54.5 26.499s29 24.666 39 39.999s15 32.333 15 51v344
c-20.667 3.33301 -43.5 6.16602 -68.5 8.49902s-51.167 3.5 -78.5 3.5c-64.667 0 -115 -19.5 -151 -58.5s-54 -100.167 -54 -183.5c0 -84 15 -145.167 45 -183.5s75.333 -57.5 136 -57.5zM297.002 621.003c-53.333 0 -93.5 12.333 -120.5 37s-40.5 59 -40.5 103h37
c0 -39.333 11 -67 33 -83s52.333 -24 91 -24s69 8 91 24s33 43.667 33 83h38c0 -44 -13.5 -78.333 -40.5 -103s-67.5 -37 -121.5 -37z" />
    <glyph glyph-name="Gdotaccent" unicode="&#x120;" horiz-adv-x="638" 
d="M354 820c-10 0 -18.333 2.66699 -25 8s-10 14.333 -10 27c0 12 3.33301 20.667 10 26s15 8 25 8c9.33301 0 17.666 -2.66699 24.999 -8s11 -14 11 -26c0 -12.667 -3.66699 -21.667 -11 -27s-15.666 -8 -24.999 -8zM382 -8
c-215.333 1.33301 -323.002 126.667 -323.002 376c0 254 110.333 381 331 381c52.667 0 110.334 -8.33301 173.001 -25v-39c-19.333 4.66699 -36.666 8.66699 -51.999 12s-29.666 6 -42.999 8s-26.166 3.33301 -38.499 4s-25.166 1 -38.499 1
c-96 0 -168.667 -28.5 -218 -85.5s-74 -142.167 -74 -255.5c0 -112 23.833 -196.333 71.5 -253s117.834 -85 210.501 -85c8.66699 0 19.167 0.5 31.5 1.5s25.166 2.33301 38.499 4s26.666 3.5 39.999 5.5s25.666 4.33301 36.999 7v327h39v-356
c-29.333 -8.66699 -60.833 -15.5 -94.5 -20.5s-63.834 -7.5 -90.501 -7.5z" />
    <glyph glyph-name="gdotaccent" unicode="&#x121;" horiz-adv-x="572" 
d="M250 -219c-27.333 0 -54.499 2 -81.499 6s-52.5 9.66699 -76.5 17l4 39c25.333 -7.33301 51.333 -13.166 78 -17.499s53 -6.5 79 -6.5c29.333 0 56 3.66699 80 11s44.5 19.5 61.5 36.5s30.333 39.833 40 68.5s14.5 64 14.5 106v26h-4
c-19.333 -24 -43.166 -42.667 -71.499 -56s-61.166 -20 -98.499 -20c-71.333 0 -126 22.5 -164 67.5s-57 115.5 -57 211.5c0 47.333 6 88.666 18 123.999s28.667 64.5 50 87.5s47.166 40.167 77.499 51.5s64.166 17 101.499 17c31.333 0 64.166 -1.66699 98.499 -5
s63.833 -8.33301 88.5 -15v-484c0 -53.333 -6.16699 -97 -18.5 -131s-29.333 -61 -51 -81s-47 -33.833 -76 -41.5s-59.833 -11.5 -92.5 -11.5zM277.001 29c21.333 0 42.167 3.16992 62.5 9.50293s38.5 15.166 54.5 26.499s29 24.666 39 39.999s15 32.333 15 51v344
c-20.667 3.33301 -43.5 6.16602 -68.5 8.49902s-51.167 3.5 -78.5 3.5c-64.667 0 -115 -19.5 -151 -58.5s-54 -100.167 -54 -183.5c0 -84 15 -145.167 45 -183.5s75.333 -57.5 136 -57.5zM297.002 662.003c-10 0 -18.333 2.66699 -25 8s-10 14 -10 26
c0 12.667 3.33301 21.667 10 27s15 8 25 8c9.33301 0 17.666 -2.66699 24.999 -8s11 -14.333 11 -27c0 -12 -3.66699 -20.667 -11 -26s-15.666 -8 -24.999 -8z" />
    <glyph glyph-name="Gcommaaccent" unicode="&#x122;" horiz-adv-x="638" 
d="M344 -69h43l-55 -151h-39zM382 -8c-215.333 1.33301 -323.002 126.667 -323.002 376c0 254 110.333 381 331 381c52.667 0 110.334 -8.33301 173.001 -25v-39c-19.333 4.66699 -36.666 8.66699 -51.999 12s-29.666 6 -42.999 8s-26.166 3.33301 -38.499 4
s-25.166 1 -38.499 1c-96 0 -168.667 -28.5 -218 -85.5s-74 -142.167 -74 -255.5c0 -112 23.833 -196.333 71.5 -253s117.834 -85 210.501 -85c8.66699 0 19.167 0.5 31.5 1.5s25.166 2.33301 38.499 4s26.666 3.5 39.999 5.5s25.666 4.33301 36.999 7v327h39v-356
c-29.333 -8.66699 -60.833 -15.5 -94.5 -20.5s-63.834 -7.5 -90.501 -7.5z" />
    <glyph glyph-name="gcommaaccent" unicode="&#x123;" horiz-adv-x="572" 
d="M402 802l-51 -150h-43l55 150h39zM250 -219c-27.333 0 -54.499 2 -81.499 6s-52.5 9.66699 -76.5 17l4 39c25.333 -7.33301 51.333 -13.166 78 -17.499s53 -6.5 79 -6.5c29.333 0 56 3.66699 80 11s44.5 19.5 61.5 36.5s30.333 39.833 40 68.5s14.5 64 14.5 106v26h-4
c-19.333 -24 -43.166 -42.667 -71.499 -56s-61.166 -20 -98.499 -20c-71.333 0 -126 22.5 -164 67.5s-57 115.5 -57 211.5c0 47.333 6 88.666 18 123.999s28.667 64.5 50 87.5s47.166 40.167 77.499 51.5s64.166 17 101.499 17c31.333 0 64.166 -1.66699 98.499 -5
s63.833 -8.33301 88.5 -15v-484c0 -53.333 -6.16699 -97 -18.5 -131s-29.333 -61 -51 -81s-47 -33.833 -76 -41.5s-59.833 -11.5 -92.5 -11.5zM277.001 29c21.333 0 42.167 3.16992 62.5 9.50293s38.5 15.166 54.5 26.499s29 24.666 39 39.999s15 32.333 15 51v344
c-20.667 3.33301 -43.5 6.16602 -68.5 8.49902s-51.167 3.5 -78.5 3.5c-64.667 0 -115 -19.5 -151 -58.5s-54 -100.167 -54 -183.5c0 -84 15 -145.167 45 -183.5s75.333 -57.5 136 -57.5z" />
    <glyph glyph-name="Hcircumflex" unicode="&#x124;" horiz-adv-x="738" 
d="M99 740h40v-342h460v342h41v-740h-41v360h-460v-360h-40v740zM214 862l146 73l146 -73v-44l-146 72l-146 -72v44z" />
    <glyph glyph-name="hcircumflex" unicode="&#x125;" horiz-adv-x="573" 
d="M157 886l146 72l146 -72v-44l-146 72l-146 -72v44zM84 808h40v-332l3 1l73.5 33c21.667 9.33301 41.5 17 59.5 23s34.833 10.333 50.5 13s31.167 4 46.5 4c45.333 0 79.333 -11.5 102 -34.5s34 -60.167 34 -111.5v-404h-40v390c0 44 -8.5 75.167 -25.5 93.5
s-42.833 27.5 -77.5 27.5c-30 0 -64.167 -6.5 -102.5 -19.5s-79.5 -30.833 -123.5 -53.5v-438h-40v808z" />
    <glyph glyph-name="Hbar" unicode="&#x126;" horiz-adv-x="754" 
d="M7 583h100v157h40v-157h460v157h41v-157h99v-34h-99v-549h-41v360h-460v-360h-40v549h-100v34zM607 398v151h-460v-151h460z" />
    <glyph glyph-name="hbar" unicode="&#x127;" horiz-adv-x="573" 
d="M-16 690h100v118h40v-118h178v-34h-178v-180l3 1l73.5 33c21.667 9.33301 41.5 17 59.5 23s34.833 10.333 50.5 13s31.167 4 46.5 4c45.333 0 79.333 -11.5 102 -34.5s34 -60.167 34 -111.5v-404h-40v390c0 44 -8.5 75.167 -25.5 93.5s-42.833 27.5 -77.5 27.5
c-30 0 -64.167 -6.5 -102.5 -19.5s-79.5 -30.833 -123.5 -53.5v-438h-40v656h-100v34z" />
    <glyph glyph-name="Itilde" unicode="&#x128;" horiz-adv-x="237" 
d="M99 740h40v-740h-40v740zM-56 863c16.667 16 34 28.334 52 37.001s36.667 13 56 13c15.333 0 29.333 -2.16699 42 -6.5s25 -9.33301 37 -15s23.833 -10.667 35.5 -15s24.5 -6.5 38.5 -6.5c30.667 0 59 13 85 39l25 -24c-14.667 -15.333 -31.834 -27.666 -51.501 -36.999
s-40.167 -14 -61.5 -14c-13.333 0 -26.333 2.16699 -39 6.5s-25.167 9.16602 -37.5 14.499s-24.5 10.166 -36.5 14.499s-24.333 6.5 -37 6.5c-14 0 -28.167 -3 -42.5 -9s-28.166 -15.333 -41.499 -28z" />
    <glyph glyph-name="itilde" unicode="&#x129;" horiz-adv-x="211" 
d="M-80 682c16.667 16 33.998 28.333 51.998 37s36.667 13 56 13c14.667 0 28.334 -2.16699 41.001 -6.5s25 -9.33301 37 -15s23.833 -10.667 35.5 -15s24.5 -6.5 38.5 -6.5c30 0 58.333 12.667 85 38l25 -23c-14.667 -16 -31.834 -28.667 -51.501 -38
s-40.167 -14 -61.5 -14c-13.333 0 -26.166 2.16699 -38.499 6.5s-24.666 9.33301 -36.999 15s-24.5 10.667 -36.5 15s-24.333 6.5 -37 6.5c-29.333 0 -57.333 -12.667 -84 -38zM84.998 540h40v-540h-40v540z" />
    <glyph glyph-name="Imacron" unicode="&#x12a;" horiz-adv-x="237" 
d="M99 740h40v-740h-40v740zM-22 879h281v-37h-281v37z" />
    <glyph glyph-name="imacron" unicode="&#x12b;" horiz-adv-x="211" 
d="M85 540h40v-540h-40v540zM-32 690h286v-38h-286v38z" />
    <glyph glyph-name="Ibreve" unicode="&#x12c;" horiz-adv-x="237" 
d="M99 740h40v-740h-40v740zM120 816c-50.667 0 -90.168 11.833 -118.501 35.5s-42.5 56.5 -42.5 98.5h38c0 -30.667 10.833 -54.667 32.5 -72s51.834 -26 90.501 -26c38 0 67.833 8.66699 89.5 26s32.5 41.333 32.5 72h38c0 -42 -14.167 -74.833 -42.5 -98.5
s-67.5 -35.5 -117.5 -35.5z" />
    <glyph glyph-name="ibreve" unicode="&#x12d;" horiz-adv-x="211" 
d="M106 621c-52.667 0 -92.333 12.333 -119 37s-40 59 -40 103h36c0 -39.333 11 -67 33 -83s52 -24 90 -24s68.167 8 90.5 24s33.5 43.667 33.5 83h36c0 -44 -13.167 -78.333 -39.5 -103s-66.5 -37 -120.5 -37zM85.001 540h40v-540h-40v540z" />
    <glyph glyph-name="Iogonek" unicode="&#x12e;" horiz-adv-x="237" 
d="M99 740l40.001 -0.000976562v-762c-41.333 -20 -70.833 -39.333 -88.5 -58s-26.5 -39.667 -26.5 -63c0 -15.333 4.16699 -26.5 12.5 -33.5s22.166 -10.5 41.499 -10.5s39 3.33301 59 10v-31c-9.33301 -3.33301 -19.833 -6.16602 -31.5 -8.49902s-23.5 -3.5 -35.5 -3.5
c-55.333 0 -83 25.333 -83 76c0 13.333 2 25.833 6 37.5s10.5 23.167 19.5 34.5s21.167 22.833 36.5 34.5s34 24.167 56 37.5h-6v740z" />
    <glyph glyph-name="iogonek" unicode="&#x12f;" horiz-adv-x="211" 
d="M85 540l40.001 -0.000976562v-562c-41.333 -20 -70.833 -39.333 -88.5 -58s-26.5 -39.667 -26.5 -63c0 -15.333 4.16699 -26.5 12.5 -33.5s22.166 -10.5 41.499 -10.5s39 3.33301 59 10v-31c-9.33301 -3.33301 -19.833 -6.16602 -31.5 -8.49902s-23.5 -3.5 -35.5 -3.5
c-55.333 0 -83 25.333 -83 76c0 13.333 2 25.833 6 37.5s10.5 23.167 19.5 34.5s21.167 22.833 36.5 34.5s34 24.167 56 37.5h-6v540zM105.001 671.999c-20.667 0 -31 10.667 -31 32s10.333 32 31 32c22 0 33 -10.667 33 -32s-11 -32 -33 -32z" />
    <glyph glyph-name="Idotaccent" unicode="&#x130;" horiz-adv-x="237" 
d="M99 740h40v-740h-40v740zM120 820c-10 0 -18.333 2.66699 -25 8s-10 14.333 -10 27c0 12 3.33301 20.667 10 26s15 8 25 8c9.33301 0 17.666 -2.66699 24.999 -8s11 -14 11 -26c0 -12.667 -3.66699 -21.667 -11 -27s-15.666 -8 -24.999 -8z" />
    <glyph glyph-name="dotlessi" unicode="&#x131;" horiz-adv-x="211" 
d="M85 540h40v-540h-40v540z" />
    <glyph glyph-name="IJ" unicode="&#x132;" horiz-adv-x="474" 
d="M99 740h40v-740h-40v740zM257 -160c15.333 32 28.168 61.333 38.501 88s18.666 53.167 24.999 79.5s10.833 53.333 13.5 81s4 58.5 4 92.5v559h40v-560c0 -32.667 -1.5 -63 -4.5 -91s-8 -55.833 -15 -83.5s-16.167 -56.167 -27.5 -85.5s-25.333 -62 -42 -98z" />
    <glyph glyph-name="ij" unicode="&#x133;" horiz-adv-x="419" 
d="M105 672c-20.667 0 -31 10.667 -31 32s10.333 32 31 32c22 0 33 -10.667 33 -32s-11 -32 -33 -32zM85 540h40v-540h-40v540zM217 -201c26.667 46 46.501 93.833 59.501 143.5s19.5 106.167 19.5 169.5v428h40v-448c0 -56 -7.83301 -110.5 -23.5 -163.5
s-37.834 -102.5 -66.501 -148.5zM312.001 672c-21.333 0 -32 10.667 -32 32s10.667 32 32 32c10 0 18 -2.83301 24 -8.5s9 -13.5 9 -23.5s-3 -17.833 -9 -23.5s-14 -8.5 -24 -8.5z" />
    <glyph glyph-name="Jcircumflex" unicode="&#x134;" horiz-adv-x="237" 
d="M20 -160c15.333 32 28.168 61.333 38.501 88s18.666 53.167 24.999 79.5s10.833 53.333 13.5 81s4 58.5 4 92.5v559h40v-560c0 -32.667 -1.5 -63 -4.5 -91s-8 -55.833 -15 -83.5s-16.167 -56.167 -27.5 -85.5s-25.333 -62 -42 -98zM-23.998 862l146 73l146 -73v-44
l-146 72l-146 -72v44z" />
    <glyph glyph-name="jcircumflex" unicode="&#x135;" horiz-adv-x="208" 
d="M-42 690l145 73l146 -73v-44l-146 72l-145 -72v44zM6 -201c26.667 46 46.501 93.833 59.501 143.5s19.5 106.5 19.5 170.5v427h40v-448c0 -56 -7.83301 -110.5 -23.5 -163.5s-37.834 -102.5 -66.501 -148.5z" />
    <glyph glyph-name="Kcommaaccent" unicode="&#x136;" horiz-adv-x="632" 
d="M318 -69h43l-55 -151h-39zM99 740h40v-343h161l253 343h50l-247 -334l-24 -24v-6l27 -24l262 -352h-49l-266 359h-167v-359h-40v740z" />
    <glyph glyph-name="kcommaaccent" unicode="&#x137;" horiz-adv-x="514" 
d="M276 -69h43l-55 -151h-39zM84 808h40v-513h113l208 245h48l-214 -253l-14 -9v-4l15 -10l229 -264h-48l-226 259h-111v-259h-40v808z" />
    <glyph glyph-name="kgreenlandic" unicode="&#x138;" horiz-adv-x="520" 
d="M84 540h40v-245h157l166 245h46l-172 -253l-14 -9v-4l15 -10l187 -264h-46l-184 259h-155v-259h-40v540z" />
    <glyph glyph-name="Lacute" unicode="&#x139;" horiz-adv-x="503" 
d="M100 805l79 122h44l-87 -128zM99 740h40v-702h349v-38h-389v740z" />
    <glyph glyph-name="lacute" unicode="&#x13a;" horiz-adv-x="215" 
d="M95 847l74 182h42l-88 -188zM87 808h40v-808h-40v808z" />
    <glyph glyph-name="Lcommaaccent" unicode="&#x13b;" horiz-adv-x="503" 
d="M284 -69h43l-55 -151h-39zM99 740h40v-702h349v-38h-389v740z" />
    <glyph glyph-name="lcommaaccent" unicode="&#x13c;" horiz-adv-x="215" 
d="M98 -69h43l-55 -151h-39zM87 808h40v-808h-40v808z" />
    <glyph glyph-name="Lcaron" unicode="&#x13d;" horiz-adv-x="506" 
d="M385 742h39l-21 -228h-18v228zM99 740h40v-702h349v-38h-389v740z" />
    <glyph glyph-name="lcaron" unicode="&#x13e;" horiz-adv-x="215" 
d="M205 808h39l-21 -228h-18v228zM87 808h40v-808h-40v808z" />
    <glyph glyph-name="Ldot" unicode="&#x13f;" horiz-adv-x="508" 
d="M99 740h40v-702h349v-38h-389v740zM409 336c-10.667 0 -19.167 2.83301 -25.5 8.5s-9.5 14.5 -9.5 26.5s3.16699 20.833 9.5 26.5s14.833 8.5 25.5 8.5c9.33301 0 17.5 -2.66699 24.5 -8s10.5 -14.333 10.5 -27s-3.5 -21.667 -10.5 -27s-15.167 -8 -24.5 -8z" />
    <glyph glyph-name="ldot" unicode="&#x140;" horiz-adv-x="232" 
d="M87 808h40v-808h-40v808zM223 335c-10.667 0 -19.167 2.83301 -25.5 8.5s-9.5 14.5 -9.5 26.5s3.16699 20.833 9.5 26.5s14.833 8.5 25.5 8.5c9.33301 0 17.5 -2.66699 24.5 -8s10.5 -14.333 10.5 -27s-3.5 -21.667 -10.5 -27s-15.167 -8 -24.5 -8z" />
    <glyph glyph-name="Lslash" unicode="&#x141;" horiz-adv-x="525" 
d="M17 269l105 73v398h40v-370l171 119v-45l-171 -119v-287h349v-38h-389v297l-105 -73v45z" />
    <glyph glyph-name="lslash" unicode="&#x142;" horiz-adv-x="275" 
d="M26 306l92 65v437h40v-408l99 70v-41l-99 -71v-358h-40v329l-92 -65v42z" />
    <glyph glyph-name="Nacute" unicode="&#x143;" horiz-adv-x="761" 
d="M356 805l79 122h44l-87 -128zM99 740h40l419 -584l61 -90h4v674h39v-740h-41l-423 588l-56 84h-4v-672h-39v740z" />
    <glyph glyph-name="nacute" unicode="&#x144;" horiz-adv-x="573" 
d="M280 616l74 182h42l-88 -188zM84 540h33l4 -63h5l73.5 33c21.667 9.33301 41.667 17 60 23s35.333 10.333 51 13s31.167 4 46.5 4c45.333 0 79.333 -11.5 102 -34.5s34 -60.167 34 -111.5v-404h-40v390c0 44 -8.5 75.167 -25.5 93.5s-42.833 27.5 -77.5 27.5
c-30 0 -64.167 -6.5 -102.5 -19.5s-79.5 -30.833 -123.5 -53.5v-438h-40v540z" />
    <glyph glyph-name="Ncommaaccent" unicode="&#x145;" horiz-adv-x="761" 
d="M379 -69h43l-55 -151h-39zM99 740h40l419 -584l61 -90h4v674h39v-740h-41l-423 588l-56 84h-4v-672h-39v740z" />
    <glyph glyph-name="ncommaaccent" unicode="&#x146;" horiz-adv-x="573" 
d="M276 -69h43l-55 -151h-39zM84 540h33l4 -63h5l73.5 33c21.667 9.33301 41.667 17 60 23s35.333 10.333 51 13s31.167 4 46.5 4c45.333 0 79.333 -11.5 102 -34.5s34 -60.167 34 -111.5v-404h-40v390c0 44 -8.5 75.167 -25.5 93.5s-42.833 27.5 -77.5 27.5
c-30 0 -64.167 -6.5 -102.5 -19.5s-79.5 -30.833 -123.5 -53.5v-438h-40v540z" />
    <glyph glyph-name="Ncaron" unicode="&#x147;" horiz-adv-x="761" 
d="M236 930l146 -72l146 72v-44l-146 -73l-146 73v44zM99 740h40l419 -584l61 -90h4v674h39v-740h-41l-423 588l-56 84h-4v-672h-39v740z" />
    <glyph glyph-name="ncaron" unicode="&#x148;" horiz-adv-x="573" 
d="M147 747l146 -72l146 72v-44l-146 -72l-146 72v44zM84 540h33l4 -63h5l73.5 33c21.667 9.33301 41.667 17 60 23s35.333 10.333 51 13s31.167 4 46.5 4c45.333 0 79.333 -11.5 102 -34.5s34 -60.167 34 -111.5v-404h-40v390c0 44 -8.5 75.167 -25.5 93.5
s-42.833 27.5 -77.5 27.5c-30 0 -64.167 -6.5 -102.5 -19.5s-79.5 -30.833 -123.5 -53.5v-438h-40v540z" />
    <glyph glyph-name="napostrophe" unicode="&#x149;" horiz-adv-x="630" 
d="M87 808v-4l-25 -224h-17v228h42zM141 540h33l4 -63h5l73.5 33c21.667 9.33301 41.667 17 60 23s35.333 10.333 51 13s31.167 4 46.5 4c45.333 0 79.333 -11.5 102 -34.5s34 -60.167 34 -111.5v-404h-40v390c0 44 -8.5 75.167 -25.5 93.5s-42.833 27.5 -77.5 27.5
c-30 0 -64.167 -6.5 -102.5 -19.5s-79.5 -30.833 -123.5 -53.5v-438h-40v540z" />
    <glyph glyph-name="Eng" unicode="&#x14a;" horiz-adv-x="760" 
d="M546 -173c8 14 15.666 29.167 22.999 45.5s14 32.666 20 48.999s11.167 32.333 15.5 48s7.5 29.5 9.5 41.5l-416 577l-55 85h-5v-673h-39v740h39l420 -584l60 -90h5v674h39v-672c0 -18.667 -2.16699 -39 -6.5 -61s-10.166 -44.167 -17.499 -66.5s-16 -44.166 -26 -65.499
s-21 -40.333 -33 -57z" />
    <glyph glyph-name="eng" unicode="&#x14b;" horiz-adv-x="572" 
d="M380 -204c10.667 18.667 20.332 39.834 28.999 63.501s16.334 48 23.001 73s11.834 50.167 15.501 75.5s5.5 49 5.5 71v310c0 42.667 -8.16699 73.5 -24.5 92.5s-42.5 28.5 -78.5 28.5c-28 0 -61 -6.16699 -99 -18.5s-80.333 -30.166 -127 -53.499v-438h-40v540h33l4 -63
h4c28 13.333 53.167 24.666 75.5 33.999s42.5 16.833 60.5 22.5s34.667 9.83398 50 12.501s30.666 4 45.999 4c90.667 0 136 -48.667 136 -146v-328c0 -24.667 -2.16699 -50.834 -6.5 -78.501s-10.166 -54.834 -17.499 -81.501s-15.833 -51.667 -25.5 -75
s-19.834 -43 -30.501 -59z" />
    <glyph glyph-name="Omacron" unicode="&#x14c;" horiz-adv-x="720" 
d="M217 879h281v-37h-281v37zM360 -10c-96 0 -170.167 31.833 -222.5 95.5s-78.5 158.167 -78.5 283.5s26.167 220.166 78.5 284.499s126.5 96.5 222.5 96.5s170.167 -32.167 222.5 -96.5s78.5 -159.166 78.5 -284.499c0 -124.667 -26.167 -219 -78.5 -283
s-126.5 -96 -222.5 -96zM360 29c84 0 148.499 29.167 193.499 87.5s67.5 142.5 67.5 252.5c0 112 -22.333 197 -67 255s-109.334 87 -194.001 87c-85.333 0 -150.166 -29 -194.499 -87s-66.5 -143 -66.5 -255c0 -111.333 22.333 -195.833 67 -253.5
s109.334 -86.5 194.001 -86.5z" />
    <glyph glyph-name="omacron" unicode="&#x14d;" horiz-adv-x="562" 
d="M140 690h286v-38h-286v38zM281 -10c-73.333 0 -129.5 24 -168.5 72s-58.5 117.333 -58.5 208s19.5 160 58.5 208s95.167 72 168.5 72s129.5 -24 168.5 -72s58.5 -117.333 58.5 -208s-19.5 -160 -58.5 -208s-95.167 -72 -168.5 -72zM281 29c123.333 0 185 80.333 185 241
c0 161.333 -61.667 242 -185 242s-185 -80.667 -185 -242c0 -160.667 61.667 -241 185 -241z" />
    <glyph glyph-name="Obreve" unicode="&#x14e;" horiz-adv-x="720" 
d="M360 816c-50.667 0 -90.168 11.833 -118.501 35.5s-42.5 56.5 -42.5 98.5h38c0 -30.667 10.833 -54.667 32.5 -72s51.834 -26 90.501 -26c38 0 67.833 8.66699 89.5 26s32.5 41.333 32.5 72h38c0 -42 -14.167 -74.833 -42.5 -98.5s-67.5 -35.5 -117.5 -35.5zM359.999 -10
c-96 0 -170.167 31.833 -222.5 95.5s-78.5 158.167 -78.5 283.5s26.167 220.166 78.5 284.499s126.5 96.5 222.5 96.5s170.167 -32.167 222.5 -96.5s78.5 -159.166 78.5 -284.499c0 -124.667 -26.167 -219 -78.5 -283s-126.5 -96 -222.5 -96zM359.999 29
c84 0 148.499 29.167 193.499 87.5s67.5 142.5 67.5 252.5c0 112 -22.333 197 -67 255s-109.334 87 -194.001 87c-85.333 0 -150.166 -29 -194.499 -87s-66.5 -143 -66.5 -255c0 -111.333 22.333 -195.833 67 -253.5s109.334 -86.5 194.001 -86.5z" />
    <glyph glyph-name="obreve" unicode="&#x14f;" horiz-adv-x="562" 
d="M281 -10c-73.333 0 -129.5 24 -168.5 72s-58.5 117.333 -58.5 208s19.5 160 58.5 208s95.167 72 168.5 72s129.5 -24 168.5 -72s58.5 -117.333 58.5 -208s-19.5 -160 -58.5 -208s-95.167 -72 -168.5 -72zM281 29c123.333 0 185 80.333 185 241
c0 161.333 -61.667 242 -185 242s-185 -80.667 -185 -242c0 -160.667 61.667 -241 185 -241zM277 621c-53.333 0 -93.5 12.333 -120.5 37s-40.5 59 -40.5 103h37c0 -39.333 11 -67 33 -83s52.333 -24 91 -24s69 8 91 24s33 43.667 33 83h38c0 -44 -13.5 -78.333 -40.5 -103
s-67.5 -37 -121.5 -37z" />
    <glyph glyph-name="Ohungarumlaut" unicode="&#x150;" horiz-adv-x="720" 
d="M360 -10c-96 0 -170.167 31.833 -222.5 95.5s-78.5 158.167 -78.5 283.5s26.167 220.166 78.5 284.499s126.5 96.5 222.5 96.5s170.167 -32.167 222.5 -96.5s78.5 -159.166 78.5 -284.499c0 -124.667 -26.167 -219 -78.5 -283s-126.5 -96 -222.5 -96zM360 29
c84 0 148.499 29.167 193.499 87.5s67.5 142.5 67.5 252.5c0 112 -22.333 197 -67 255s-109.334 87 -194.001 87c-85.333 0 -150.166 -29 -194.499 -87s-66.5 -143 -66.5 -255c0 -111.333 22.333 -195.833 67 -253.5s109.334 -86.5 194.001 -86.5zM267.999 806l78 114h44
l-87 -128zM397.999 806l79 114h43l-86 -128z" />
    <glyph glyph-name="ohungarumlaut" unicode="&#x151;" horiz-adv-x="562" 
d="M178 627l74 179h47l-89 -189zM345 627l73 179h47l-89 -189zM281 -10c-73.333 0 -129.5 24 -168.5 72s-58.5 117.333 -58.5 208s19.5 160 58.5 208s95.167 72 168.5 72s129.5 -24 168.5 -72s58.5 -117.333 58.5 -208s-19.5 -160 -58.5 -208s-95.167 -72 -168.5 -72z
M281 29c123.333 0 185 80.333 185 241c0 161.333 -61.667 242 -185 242s-185 -80.667 -185 -242c0 -160.667 61.667 -241 185 -241z" />
    <glyph glyph-name="OE" unicode="&#x152;" horiz-adv-x="921" 
d="M363 -8c-97.333 0 -172.5 31.833 -225.5 95.5s-79.5 157.5 -79.5 281.5c0 124.667 26.5 219 79.5 283s128.167 96 225.5 96c17.333 0 33.833 -0.5 49.5 -1.5s30.834 -3.16699 45.501 -6.5h398v-38h-359v-305h338v-39h-338v-320h367v-38h-406
c-13.333 -2.66699 -28.333 -4.66699 -45 -6s-33.334 -2 -50.001 -2zM363 31c16.667 0 33.168 0.5 49.501 1.5s31.166 3.83301 44.499 8.5v658c-14 4.66699 -28.833 7.5 -44.5 8.5s-32.167 1.5 -49.5 1.5c-86 0 -151.667 -28.833 -197 -86.5s-68 -142.167 -68 -253.5
c0 -110 22.833 -193.833 68.5 -251.5s111.167 -86.5 196.5 -86.5z" />
    <glyph glyph-name="oe" unicode="&#x153;" horiz-adv-x="931" 
d="M702 -9c-56.667 0 -102.668 12.5 -138.001 37.5s-60.333 60.833 -75 107.5h-4c-15.333 -46.667 -40.166 -82.667 -74.499 -108s-77.5 -38 -129.5 -38c-73.333 0 -129.5 24 -168.5 72s-58.5 117.333 -58.5 208s19.5 160 58.5 208s95.167 72 168.5 72
c53.333 0 97.333 -13.167 132 -39.5s59 -63.5 73 -111.5h4c15.333 48 40 85 74 111s77.333 39 130 39c60 0 105.833 -20.167 137.5 -60.5s47.5 -98.833 47.5 -175.5c0 -28.667 -1 -49.334 -3 -62.001h-367c3.33301 -148 69 -222 197 -222c23.333 0 47 2.33301 71 7
s50.667 12.334 80 23.001l5 -36c-24 -10 -50.5 -17.833 -79.5 -23.5s-55.833 -8.5 -80.5 -8.5zM280.999 29c123.333 0 185 80.333 185 241c0 161.333 -61.667 242 -185 242s-185 -80.667 -185 -242c0 -160.667 61.667 -241 185 -241zM838.999 287
c-2 80 -14.501 137.333 -37.501 172s-58.833 52 -107.5 52c-58 0 -102.667 -18.833 -134 -56.5s-48.666 -93.5 -51.999 -167.5h331z" />
    <glyph glyph-name="Racute" unicode="&#x154;" horiz-adv-x="634" 
d="M362 294c-14.667 -2 -30 -3.33398 -46 -4.00098s-32.667 -1 -50 -1c-18.667 0 -38.5 0.5 -59.5 1.5s-43.5 3.16699 -67.5 6.5v-297h-40v735c56 10 110.333 15 163 15c108 0 186.667 -18.333 236 -55s74 -95.334 74 -176.001c0 -61.333 -13.667 -109.666 -41 -144.999
s-70.333 -59.666 -129 -72.999l189 -301h-45zM270 325.999c46.667 0 86.666 3.66797 119.999 11.001s60.5 18.666 81.5 33.999s36.333 35.333 46 60s14.5 54 14.5 88c0 67.333 -21.167 116.333 -63.5 147s-110.166 46 -203.499 46c-20.667 0 -42.334 -0.833008 -65.001 -2.5
s-43 -4.16699 -61 -7.5v-366c6 -1.33301 13.833 -2.5 23.5 -3.5s20.334 -2 32.001 -3s24 -1.83301 37 -2.5s25.833 -1 38.5 -1zM294.999 805l79 122h44l-87 -128z" />
    <glyph glyph-name="racute" unicode="&#x155;" horiz-adv-x="355" 
d="M194 616l74 182h42l-88 -188zM84 540h32.999l4 -71h4c42.667 20.667 80 38 112 52s62.667 23.333 92 28h13v-43h-14c-31.333 -4 -64.166 -13.167 -98.499 -27.5s-69.5 -30.5 -105.5 -48.5v-430h-40v540z" />
    <glyph glyph-name="Rcommaaccent" unicode="&#x156;" horiz-adv-x="634" 
d="M315 -69h43l-55 -151h-39zM362 294c-14.667 -2 -30 -3.33398 -46 -4.00098s-32.667 -1 -50 -1c-18.667 0 -38.5 0.5 -59.5 1.5s-43.5 3.16699 -67.5 6.5v-297h-40v735c56 10 110.333 15 163 15c108 0 186.667 -18.333 236 -55s74 -95.334 74 -176.001
c0 -61.333 -13.667 -109.666 -41 -144.999s-70.333 -59.666 -129 -72.999l189 -301h-45zM270 325.999c46.667 0 86.666 3.66797 119.999 11.001s60.5 18.666 81.5 33.999s36.333 35.333 46 60s14.5 54 14.5 88c0 67.333 -21.167 116.333 -63.5 147s-110.166 46 -203.499 46
c-20.667 0 -42.334 -0.833008 -65.001 -2.5s-43 -4.16699 -61 -7.5v-366c6 -1.33301 13.833 -2.5 23.5 -3.5s20.334 -2 32.001 -3s24 -1.83301 37 -2.5s25.833 -1 38.5 -1z" />
    <glyph glyph-name="rcommaaccent" unicode="&#x157;" horiz-adv-x="355" 
d="M94 -69h43l-55 -151h-39zM84 540h32.999l4 -71h4c42.667 20.667 80 38 112 52s62.667 23.333 92 28h13v-43h-14c-31.333 -4 -64.166 -13.167 -98.499 -27.5s-69.5 -30.5 -105.5 -48.5v-430h-40v540z" />
    <glyph glyph-name="Rcaron" unicode="&#x158;" horiz-adv-x="634" 
d="M175 930l146 -72l146 72v-44l-146 -73l-146 73v44zM362 294c-14.667 -2 -30 -3.33398 -46 -4.00098s-32.667 -1 -50 -1c-18.667 0 -38.5 0.5 -59.5 1.5s-43.5 3.16699 -67.5 6.5v-297h-40v735c56 10 110.333 15 163 15c108 0 186.667 -18.333 236 -55
s74 -95.334 74 -176.001c0 -61.333 -13.667 -109.666 -41 -144.999s-70.333 -59.666 -129 -72.999l189 -301h-45zM270 325.999c46.667 0 86.666 3.66797 119.999 11.001s60.5 18.666 81.5 33.999s36.333 35.333 46 60s14.5 54 14.5 88c0 67.333 -21.167 116.333 -63.5 147
s-110.166 46 -203.499 46c-20.667 0 -42.334 -0.833008 -65.001 -2.5s-43 -4.16699 -61 -7.5v-366c6 -1.33301 13.833 -2.5 23.5 -3.5s20.334 -2 32.001 -3s24 -1.83301 37 -2.5s25.833 -1 38.5 -1z" />
    <glyph glyph-name="rcaron" unicode="&#x159;" horiz-adv-x="355" 
d="M62 747l146 -72l146 72v-44l-146 -72l-146 72v44zM84 540h32.999l4 -71h4c42.667 20.667 80 38 112 52s62.667 23.333 92 28h13v-43h-14c-31.333 -4 -64.166 -13.167 -98.499 -27.5s-69.5 -30.5 -105.5 -48.5v-430h-40v540z" />
    <glyph glyph-name="Sacute" unicode="&#x15a;" horiz-adv-x="547" 
d="M259 -11c-30 0 -64.1699 2.83105 -102.503 8.49805s-75.166 13.167 -110.499 22.5l2 38c34 -9.33301 70.5 -16.666 109.5 -21.999s73.833 -8 104.5 -8c62.667 0 111.667 13.167 147 39.5s53 63.833 53 112.5c0 27.333 -5 50.333 -15 69s-23.667 34.5 -41 47.5
s-37.666 24.167 -60.999 33.5s-48.333 18.333 -75 27c-38.667 12.667 -71.334 25.5 -98.001 38.5s-48.167 27.5 -64.5 43.5s-28.166 34 -35.499 54s-11 43 -11 69c0 29.333 5.5 56 16.5 80s26.667 44.5 47 61.5s44.833 30.167 73.5 39.5s60.334 14 95.001 14
c25.333 0 53 -2 83 -6s61 -9.66699 93 -17l-2 -40c-31.333 8 -61.833 14 -91.5 18s-56.834 6 -81.501 6c-29.333 0 -55.666 -3.66699 -78.999 -11s-43.333 -17.833 -60 -31.5s-29.5 -30.167 -38.5 -49.5s-13.5 -40.666 -13.5 -63.999c0 -21.333 3 -40 9 -56
s16.167 -30.5 30.5 -43.5s33.166 -25 56.499 -36s52.333 -21.833 87 -32.5c30 -9.33301 58.167 -19.333 84.5 -30s49.333 -23.834 69 -39.501s35.334 -35 47.001 -58s17.5 -51.5 17.5 -85.5c0 -61.333 -21.333 -108.666 -64 -141.999s-103 -50 -181 -50zM256.997 804.998
l79 122h44l-87 -128z" />
    <glyph glyph-name="sacute" unicode="&#x15b;" horiz-adv-x="434" 
d="M202 616l74 182h42l-88 -188zM212 -11c-10.667 0 -21.001 0.333008 -31.001 1s-21.333 2 -34 4s-26.834 4.5 -42.501 7.5l-55.5 10.5v39c29.333 -7.33301 57.5 -13.166 84.5 -17.499s52.167 -6.5 75.5 -6.5c44.667 0 78.834 9.83301 102.501 29.5s35.5 47.5 35.5 83.5
c0 19.333 -3.16699 35.666 -9.5 48.999s-15 24.5 -26 33.5s-24.167 16.167 -39.5 21.5s-31.666 10 -48.999 14c-20 4.66699 -39.833 9.66699 -59.5 15s-37.5 13.333 -53.5 24s-29 24.834 -39 42.501s-15 41.167 -15 70.5c0 44.667 15.833 79.667 47.5 105s75.5 38 131.5 38
c9.33301 0 18.166 -0.333008 26.499 -1s17.5 -1.66699 27.5 -3s21.333 -3.16602 34 -5.49902s28 -5.5 46 -9.5l-3 -39c-30.667 7.33301 -55.667 12.5 -75 15.5s-37.666 4.5 -54.999 4.5c-44.667 0 -79 -9 -103 -27s-36 -44 -36 -78c0 -20.667 3.66699 -37.334 11 -50.001
s17.333 -23 30 -31s27.167 -14.5 43.5 -19.5s33.5 -9.5 51.5 -13.5c20.667 -5.33301 40.5 -11.333 59.5 -18s35.5 -15.834 49.5 -27.501s25.167 -26.167 33.5 -43.5s12.5 -39.333 12.5 -66c0 -47.333 -15.833 -84.5 -47.5 -111.5s-74.5 -40.5 -128.5 -40.5z" />
    <glyph glyph-name="Scircumflex" unicode="&#x15c;" horiz-adv-x="547" 
d="M259 -11c-30 0 -64.1699 2.83105 -102.503 8.49805s-75.166 13.167 -110.499 22.5l2 38c34 -9.33301 70.5 -16.666 109.5 -21.999s73.833 -8 104.5 -8c62.667 0 111.667 13.167 147 39.5s53 63.833 53 112.5c0 27.333 -5 50.333 -15 69s-23.667 34.5 -41 47.5
s-37.666 24.167 -60.999 33.5s-48.333 18.333 -75 27c-38.667 12.667 -71.334 25.5 -98.001 38.5s-48.167 27.5 -64.5 43.5s-28.166 34 -35.499 54s-11 43 -11 69c0 29.333 5.5 56 16.5 80s26.667 44.5 47 61.5s44.833 30.167 73.5 39.5s60.334 14 95.001 14
c25.333 0 53 -2 83 -6s61 -9.66699 93 -17l-2 -40c-31.333 8 -61.833 14 -91.5 18s-56.834 6 -81.501 6c-29.333 0 -55.666 -3.66699 -78.999 -11s-43.333 -17.833 -60 -31.5s-29.5 -30.167 -38.5 -49.5s-13.5 -40.666 -13.5 -63.999c0 -21.333 3 -40 9 -56
s16.167 -30.5 30.5 -43.5s33.166 -25 56.499 -36s52.333 -21.833 87 -32.5c30 -9.33301 58.167 -19.333 84.5 -30s49.333 -23.834 69 -39.501s35.334 -35 47.001 -58s17.5 -51.5 17.5 -85.5c0 -61.333 -21.333 -108.666 -64 -141.999s-103 -50 -181 -50zM135.997 861.998
l146 73l146 -73v-44l-146 72l-146 -72v44z" />
    <glyph glyph-name="scircumflex" unicode="&#x15d;" horiz-adv-x="434" 
d="M69 686l146 72l146 -72v-44l-146 72l-146 -72v44zM212 -11c-10.667 0 -21.001 0.333008 -31.001 1s-21.333 2 -34 4s-26.834 4.5 -42.501 7.5l-55.5 10.5v39c29.333 -7.33301 57.5 -13.166 84.5 -17.499s52.167 -6.5 75.5 -6.5c44.667 0 78.834 9.83301 102.501 29.5
s35.5 47.5 35.5 83.5c0 19.333 -3.16699 35.666 -9.5 48.999s-15 24.5 -26 33.5s-24.167 16.167 -39.5 21.5s-31.666 10 -48.999 14c-20 4.66699 -39.833 9.66699 -59.5 15s-37.5 13.333 -53.5 24s-29 24.834 -39 42.501s-15 41.167 -15 70.5
c0 44.667 15.833 79.667 47.5 105s75.5 38 131.5 38c9.33301 0 18.166 -0.333008 26.499 -1s17.5 -1.66699 27.5 -3s21.333 -3.16602 34 -5.49902s28 -5.5 46 -9.5l-3 -39c-30.667 7.33301 -55.667 12.5 -75 15.5s-37.666 4.5 -54.999 4.5c-44.667 0 -79 -9 -103 -27
s-36 -44 -36 -78c0 -20.667 3.66699 -37.334 11 -50.001s17.333 -23 30 -31s27.167 -14.5 43.5 -19.5s33.5 -9.5 51.5 -13.5c20.667 -5.33301 40.5 -11.333 59.5 -18s35.5 -15.834 49.5 -27.501s25.167 -26.167 33.5 -43.5s12.5 -39.333 12.5 -66
c0 -47.333 -15.833 -84.5 -47.5 -111.5s-74.5 -40.5 -128.5 -40.5z" />
    <glyph glyph-name="uni015E" unicode="&#x15e;" horiz-adv-x="547" 
d="M251 -220c-11.333 0 -23.835 0.998047 -37.502 2.99805s-26.834 5 -39.501 9v37c14.667 -4 27 -6.83301 37 -8.5s20 -2.5 30 -2.5c30.667 0 52.5 5.83301 65.5 17.5s19.5 31.167 19.5 58.5c0 15.333 -2.16699 30 -6.5 44s-11.833 31.667 -22.5 53
c-6 -0.666992 -12.167 -1.16699 -18.5 -1.5s-12.833 -0.5 -19.5 -0.5c-30 0 -64.167 2.83301 -102.5 8.5s-75.166 13.167 -110.499 22.5l2 38c34 -9.33301 70.5 -16.666 109.5 -21.999s73.833 -8 104.5 -8c62.667 0 111.667 13.167 147 39.5s53 63.833 53 112.5
c0 27.333 -5 50.333 -15 69s-23.667 34.5 -41 47.5s-37.666 24.167 -60.999 33.5s-48.333 18.333 -75 27c-38.667 12.667 -71.334 25.5 -98.001 38.5s-48.167 27.5 -64.5 43.5s-28.166 34 -35.499 54s-11 43 -11 69c0 29.333 5.5 56 16.5 80s26.667 44.5 47 61.5
s44.833 30.167 73.5 39.5s60.334 14 95.001 14c25.333 0 53 -2 83 -6s61 -9.66699 93 -17l-2 -40c-31.333 8 -61.833 14 -91.5 18s-56.834 6 -81.501 6c-29.333 0 -55.666 -3.66699 -78.999 -11s-43.333 -17.833 -60 -31.5s-29.5 -30.167 -38.5 -49.5
s-13.5 -40.666 -13.5 -63.999c0 -21.333 3 -40 9 -56s16.167 -30.5 30.5 -43.5s33.166 -25 56.499 -36s52.333 -21.833 87 -32.5c30 -9.33301 58.167 -19.333 84.5 -30s49.333 -23.834 69 -39.501s35.334 -35 47.001 -58s17.5 -51.5 17.5 -85.5
c0 -50.667 -14.667 -91.834 -44 -123.501s-71 -52.167 -125 -61.5c12 -25.333 20.167 -45.166 24.5 -59.499s6.5 -28.5 6.5 -42.5c0 -37.333 -9.83301 -65.666 -29.5 -84.999s-48.167 -29 -85.5 -29z" />
    <glyph glyph-name="uni015F" unicode="&#x15f;" horiz-adv-x="434" 
d="M164 -220c-11.333 0 -23.833 0.999023 -37.5 2.99902s-26.834 5 -39.501 9v37c14.667 -4 27 -6.83301 37 -8.5s20 -2.5 30 -2.5c30.667 0 52.5 5.83301 65.5 17.5s19.5 31.167 19.5 58.5c0 15.333 -2.16699 30 -6.5 44s-11.833 31 -22.5 51
c-10 0 -20.167 0.333008 -30.5 1s-21.5 2 -33.5 4s-25.833 4.5 -41.5 7.5l-55.5 10.5v39c29.333 -7.33301 57.5 -13.166 84.5 -17.499s52.167 -6.5 75.5 -6.5c44.667 0 78.834 9.83301 102.501 29.5s35.5 47.5 35.5 83.5c0 19.333 -3.16699 35.666 -9.5 48.999
s-15 24.5 -26 33.5s-24.167 16.167 -39.5 21.5s-31.666 10 -48.999 14c-20 4.66699 -39.833 9.66699 -59.5 15s-37.5 13.333 -53.5 24s-29 24.834 -39 42.501s-15 41.167 -15 70.5c0 44.667 15.833 79.667 47.5 105s75.5 38 131.5 38c9.33301 0 18.166 -0.333008 26.499 -1
s17.5 -1.66699 27.5 -3s21.333 -3.16602 34 -5.49902s28 -5.5 46 -9.5l-3 -39c-30.667 7.33301 -55.667 12.5 -75 15.5s-37.666 4.5 -54.999 4.5c-44.667 0 -79 -9 -103 -27s-36 -44 -36 -78c0 -20.667 3.66699 -37.334 11 -50.001s17.333 -23 30 -31
s27.167 -14.5 43.5 -19.5s33.5 -9.5 51.5 -13.5c20.667 -5.33301 40.5 -11.333 59.5 -18s35.5 -15.834 49.5 -27.501s25.167 -26.167 33.5 -43.5s12.5 -39.333 12.5 -66c0 -42 -12.333 -75.833 -37 -101.5s-58.334 -41.5 -101.001 -47.5c11.333 -24 19 -43 23 -57
s6 -27.667 6 -41c0 -37.333 -9.83301 -65.666 -29.5 -84.999s-48.167 -29 -85.5 -29z" />
    <glyph glyph-name="Scaron" unicode="&#x160;" horiz-adv-x="547" 
d="M259 -11c-30 0 -64.1699 2.83105 -102.503 8.49805s-75.166 13.167 -110.499 22.5l2 38c34 -9.33301 70.5 -16.666 109.5 -21.999s73.833 -8 104.5 -8c62.667 0 111.667 13.167 147 39.5s53 63.833 53 112.5c0 27.333 -5 50.333 -15 69s-23.667 34.5 -41 47.5
s-37.666 24.167 -60.999 33.5s-48.333 18.333 -75 27c-38.667 12.667 -71.334 25.5 -98.001 38.5s-48.167 27.5 -64.5 43.5s-28.166 34 -35.499 54s-11 43 -11 69c0 29.333 5.5 56 16.5 80s26.667 44.5 47 61.5s44.833 30.167 73.5 39.5s60.334 14 95.001 14
c25.333 0 53 -2 83 -6s61 -9.66699 93 -17l-2 -40c-31.333 8 -61.833 14 -91.5 18s-56.834 6 -81.501 6c-29.333 0 -55.666 -3.66699 -78.999 -11s-43.333 -17.833 -60 -31.5s-29.5 -30.167 -38.5 -49.5s-13.5 -40.666 -13.5 -63.999c0 -21.333 3 -40 9 -56
s16.167 -30.5 30.5 -43.5s33.166 -25 56.499 -36s52.333 -21.833 87 -32.5c30 -9.33301 58.167 -19.333 84.5 -30s49.333 -23.834 69 -39.501s35.334 -35 47.001 -58s17.5 -51.5 17.5 -85.5c0 -61.333 -21.333 -108.666 -64 -141.999s-103 -50 -181 -50zM136.997 929.998
l146 -72l146 72v-44l-146 -73l-146 73v44z" />
    <glyph glyph-name="scaron" unicode="&#x161;" horiz-adv-x="434" 
d="M71 747l146 -72l146 72v-44l-146 -72l-146 72v44zM212 -11c-10.667 0 -21.001 0.333008 -31.001 1s-21.333 2 -34 4s-26.834 4.5 -42.501 7.5l-55.5 10.5v39c29.333 -7.33301 57.5 -13.166 84.5 -17.499s52.167 -6.5 75.5 -6.5c44.667 0 78.834 9.83301 102.501 29.5
s35.5 47.5 35.5 83.5c0 19.333 -3.16699 35.666 -9.5 48.999s-15 24.5 -26 33.5s-24.167 16.167 -39.5 21.5s-31.666 10 -48.999 14c-20 4.66699 -39.833 9.66699 -59.5 15s-37.5 13.333 -53.5 24s-29 24.834 -39 42.501s-15 41.167 -15 70.5
c0 44.667 15.833 79.667 47.5 105s75.5 38 131.5 38c9.33301 0 18.166 -0.333008 26.499 -1s17.5 -1.66699 27.5 -3s21.333 -3.16602 34 -5.49902s28 -5.5 46 -9.5l-3 -39c-30.667 7.33301 -55.667 12.5 -75 15.5s-37.666 4.5 -54.999 4.5c-44.667 0 -79 -9 -103 -27
s-36 -44 -36 -78c0 -20.667 3.66699 -37.334 11 -50.001s17.333 -23 30 -31s27.167 -14.5 43.5 -19.5s33.5 -9.5 51.5 -13.5c20.667 -5.33301 40.5 -11.333 59.5 -18s35.5 -15.834 49.5 -27.501s25.167 -26.167 33.5 -43.5s12.5 -39.333 12.5 -66
c0 -47.333 -15.833 -84.5 -47.5 -111.5s-74.5 -40.5 -128.5 -40.5z" />
    <glyph glyph-name="uni0162" unicode="&#x162;" horiz-adv-x="575" 
d="M228 -220c-11.333 0 -23.833 0.999023 -37.5 2.99902s-26.834 5 -39.501 9v37c14.667 -4 27 -6.83301 37 -8.5s20 -2.5 30 -2.5c30.667 0 52.5 5.83301 65.5 17.5s19.5 31.167 19.5 58.5c0 15.333 -2.66699 30.666 -8 45.999s-14.666 35.333 -27.999 60v701h-252v39h545
v-39h-252v-698c13.333 -27.333 22.5 -48.666 27.5 -63.999s7.5 -30.333 7.5 -45c0 -37.333 -9.83301 -65.666 -29.5 -84.999s-48.167 -29 -85.5 -29z" />
    <glyph glyph-name="uni0163" unicode="&#x163;" horiz-adv-x="370" 
d="M188 -220c-11.333 0 -23.8291 0.998047 -37.4961 2.99805s-26.834 5 -39.501 9v37c14.667 -4 27 -6.83301 37 -8.5s20 -2.5 30 -2.5c30.667 0 52.5 5.83301 65.5 17.5s19.5 31.167 19.5 58.5c0 16 -2.5 31.5 -7.5 46.5s-13.5 34.167 -25.5 57.5
c-61.333 13.333 -92 59 -92 137v366h-123v39h123l6 122l33 6v-128h173v-39h-172v-360c0 -73.333 34 -110 102 -110c21.333 0 46.666 3.66699 75.999 11v-38c-32.667 -7.33301 -60.334 -11 -83.001 -11c11.333 -24 19.166 -43.167 23.499 -57.5s6.5 -28.166 6.5 -41.499
c0 -37.333 -9.83301 -65.666 -29.5 -84.999s-48.167 -29 -85.5 -29z" />
    <glyph glyph-name="Tcaron" unicode="&#x164;" horiz-adv-x="575" 
d="M144 930l146 -72l146 72v-44l-146 -73l-146 73v44zM267 701h-252v39h545v-39h-252v-701h-41v701z" />
    <glyph glyph-name="tcaron" unicode="&#x165;" horiz-adv-x="357" 
d="M273 -7c-90 0 -134.998 47.333 -134.998 142v366h-123v39h123l6 122l33 6v-128h105v-39h-104v-360c0 -73.333 34 -110 102 -110c21.333 0 46.666 3.66699 75.999 11v-38c-32.667 -7.33301 -60.334 -11 -83.001 -11zM282.002 808h39l-21 -228h-18v228z" />
    <glyph glyph-name="Tbar" unicode="&#x166;" horiz-adv-x="585" 
d="M141 405h130v296h-252v39h545v-39h-252v-296h138v-35h-138v-370h-41v370h-130v35z" />
    <glyph glyph-name="tbar" unicode="&#x167;" horiz-adv-x="382" 
d="M28 350h122.002v151h-123v39h123l6 122l33 6v-128h173v-39h-172v-151h156v-37h-156v-172c0 -73.333 34 -110 102 -110c21.333 0 46.666 3.66699 75.999 11v-38c-32.667 -7.33301 -60.334 -11 -83.001 -11c-90 0 -135 47.333 -135 142v178h-122v37z" />
    <glyph glyph-name="Utilde" unicode="&#x168;" horiz-adv-x="729" 
d="M187 863c16.667 16 34 28.334 52 37.001s36.667 13 56 13c15.333 0 29.333 -2.16699 42 -6.5s25 -9.33301 37 -15s23.833 -10.667 35.5 -15s24.5 -6.5 38.5 -6.5c30.667 0 59 13 85 39l25 -24c-14.667 -15.333 -31.834 -27.666 -51.501 -36.999s-40.167 -14 -61.5 -14
c-13.333 0 -26.333 2.16699 -39 6.5s-25.167 9.16602 -37.5 14.499s-24.5 10.166 -36.5 14.499s-24.333 6.5 -37 6.5c-14 0 -28.167 -3 -42.5 -9s-28.166 -15.333 -41.499 -28zM365 -9.99902c-46.667 0 -87.166 5.66699 -121.499 17s-62.833 29.333 -85.5 54
s-39.5 56.334 -50.5 95.001s-16.5 85.334 -16.5 140.001v443h40v-438c0 -50 5 -92.333 15 -127s24.667 -62.667 44 -84s43.666 -36.833 72.999 -46.5s63.333 -14.5 102 -14.5s72.5 4.83301 101.5 14.5s53.167 25.167 72.5 46.5s34 49.333 44 84s15 77 15 127v438h40v-443
c0 -54.667 -5.5 -101.334 -16.5 -140.001s-27.833 -70.334 -50.5 -95.001s-51 -42.667 -85 -54s-74.333 -17 -121 -17z" />
    <glyph glyph-name="utilde" unicode="&#x169;" horiz-adv-x="573" 
d="M207 -10c-84.667 0 -127 48.667 -127 146v404h40v-390c0 -42 7.5 -72.667 22.5 -92s38.833 -29 71.5 -29c18.667 0 37.334 2 56.001 6s37.5 9.5 56.5 16.5s38.5 15.167 58.5 24.5l64 30v434h40v-540h-33l-5 68h-4l-75.5 -35c-21.667 -10 -41.5 -18.167 -59.5 -24.5
s-35.333 -11 -52 -14s-34.334 -4.5 -53.001 -4.5zM93 682c16.667 16 34.1641 28.333 52.4971 37s36.833 13 55.5 13c15.333 0 29.333 -2.16699 42 -6.5s25 -9.33301 37 -15s23.833 -10.667 35.5 -15s24.5 -6.5 38.5 -6.5c30.667 0 59.334 12.667 86.001 38l25 -23
c-15.333 -16 -32.833 -28.667 -52.5 -38s-40.167 -14 -61.5 -14c-13.333 0 -26.166 2.16699 -38.499 6.5s-24.666 9.33301 -36.999 15s-24.5 10.667 -36.5 15s-24.333 6.5 -37 6.5c-29.333 0 -57.333 -12.667 -84 -38z" />
    <glyph glyph-name="Umacron" unicode="&#x16a;" horiz-adv-x="729" 
d="M220 879h281v-37h-281v37zM365 -10c-46.667 0 -87.166 5.66699 -121.499 17s-62.833 29.333 -85.5 54s-39.5 56.334 -50.5 95.001s-16.5 85.334 -16.5 140.001v443h40v-438c0 -50 5 -92.333 15 -127s24.667 -62.667 44 -84s43.666 -36.833 72.999 -46.5
s63.333 -14.5 102 -14.5s72.5 4.83301 101.5 14.5s53.167 25.167 72.5 46.5s34 49.333 44 84s15 77 15 127v438h40v-443c0 -54.667 -5.5 -101.334 -16.5 -140.001s-27.833 -70.334 -50.5 -95.001s-51 -42.667 -85 -54s-74.333 -17 -121 -17z" />
    <glyph glyph-name="umacron" unicode="&#x16b;" horiz-adv-x="573" 
d="M207 -10c-84.667 0 -127 48.667 -127 146v404h40v-390c0 -42 7.5 -72.667 22.5 -92s38.833 -29 71.5 -29c18.667 0 37.334 2 56.001 6s37.5 9.5 56.5 16.5s38.5 15.167 58.5 24.5l64 30v434h40v-540h-33l-5 68h-4l-75.5 -35c-21.667 -10 -41.5 -18.167 -59.5 -24.5
s-35.333 -11 -52 -14s-34.334 -4.5 -53.001 -4.5zM142 690h286v-38h-286v38z" />
    <glyph glyph-name="Ubreve" unicode="&#x16c;" horiz-adv-x="729" 
d="M363 816c-50.667 0 -90.168 11.833 -118.501 35.5s-42.5 56.5 -42.5 98.5h38c0 -30.667 10.833 -54.667 32.5 -72s51.834 -26 90.501 -26c38 0 67.833 8.66699 89.5 26s32.5 41.333 32.5 72h38c0 -42 -14.167 -74.833 -42.5 -98.5s-67.5 -35.5 -117.5 -35.5zM364.999 -10
c-46.667 0 -87.166 5.66699 -121.499 17s-62.833 29.333 -85.5 54s-39.5 56.334 -50.5 95.001s-16.5 85.334 -16.5 140.001v443h40v-438c0 -50 5 -92.333 15 -127s24.667 -62.667 44 -84s43.666 -36.833 72.999 -46.5s63.333 -14.5 102 -14.5s72.5 4.83301 101.5 14.5
s53.167 25.167 72.5 46.5s34 49.333 44 84s15 77 15 127v438h40v-443c0 -54.667 -5.5 -101.334 -16.5 -140.001s-27.833 -70.334 -50.5 -95.001s-51 -42.667 -85 -54s-74.333 -17 -121 -17z" />
    <glyph glyph-name="ubreve" unicode="&#x16d;" horiz-adv-x="573" 
d="M207 -10c-84.667 0 -127 48.667 -127 146v404h40v-390c0 -42 7.5 -72.667 22.5 -92s38.833 -29 71.5 -29c18.667 0 37.334 2 56.001 6s37.5 9.5 56.5 16.5s38.5 15.167 58.5 24.5l64 30v434h40v-540h-33l-5 68h-4l-75.5 -35c-21.667 -10 -41.5 -18.167 -59.5 -24.5
s-35.333 -11 -52 -14s-34.334 -4.5 -53.001 -4.5zM280 621c-53.333 0 -93.5 12.333 -120.5 37s-40.5 59 -40.5 103h37c0 -39.333 11 -67 33 -83s52.333 -24 91 -24s69 8 91 24s33 43.667 33 83h38c0 -44 -13.5 -78.333 -40.5 -103s-67.5 -37 -121.5 -37z" />
    <glyph glyph-name="Uring" unicode="&#x16e;" horiz-adv-x="729" 
d="M365 -10c-46.667 0 -87.166 5.66699 -121.499 17s-62.833 29.333 -85.5 54s-39.5 56.334 -50.5 95.001s-16.5 85.334 -16.5 140.001v443h40v-438c0 -50 5 -92.333 15 -127s24.667 -62.667 44 -84s43.666 -36.833 72.999 -46.5s63.333 -14.5 102 -14.5
s72.5 4.83301 101.5 14.5s53.167 25.167 72.5 46.5s34 49.333 44 84s15 77 15 127v438h40v-443c0 -54.667 -5.5 -101.334 -16.5 -140.001s-27.833 -70.334 -50.5 -95.001s-51 -42.667 -85 -54s-74.333 -17 -121 -17zM364.001 800c-33.333 0 -60.501 9.83301 -81.501 29.5
s-31.5 44.5 -31.5 74.5c0 14.667 2.83301 28.5 8.5 41.5s13.5 24.333 23.5 34s21.833 17.167 35.5 22.5s28.834 8 45.501 8c32.667 0 59.334 -10.167 80.001 -30.5s31 -45.5 31 -75.5s-10.333 -54.833 -31 -74.5s-47.334 -29.5 -80.001 -29.5zM364 835
c23.333 0 41.666 6.16699 54.999 18.5s20 29.166 20 50.499s-6.66699 38.5 -20 51.5s-31.666 19.5 -54.999 19.5c-24 0 -42.833 -6.5 -56.5 -19.5s-20.5 -30.167 -20.5 -51.5s6.83301 -38.166 20.5 -50.499s32.5 -18.5 56.5 -18.5z" />
    <glyph glyph-name="uring" unicode="&#x16f;" horiz-adv-x="573" 
d="M281 608c-33.333 0 -60.667 9.83301 -82 29.5s-32 44.5 -32 74.5c0 14.667 2.83301 28.5 8.5 41.5s13.5 24.333 23.5 34s22 17.167 36 22.5s29.333 8 46 8c32.667 0 59.334 -10.167 80.001 -30.5s31 -45.5 31 -75.5s-10.333 -54.833 -31 -74.5
s-47.334 -29.5 -80.001 -29.5zM280.999 643c23.333 0 41.666 6.16699 54.999 18.5s20 29.166 20 50.499s-6.66699 38.5 -20 51.5s-31.666 19.5 -54.999 19.5c-24 0 -42.833 -6.5 -56.5 -19.5s-20.5 -30.167 -20.5 -51.5s6.83301 -38.166 20.5 -50.499s32.5 -18.5 56.5 -18.5
zM206.999 -10c-84.667 0 -127 48.667 -127 146v404h40v-390c0 -42 7.5 -72.667 22.5 -92s38.833 -29 71.5 -29c18.667 0 37.334 2 56.001 6s37.5 9.5 56.5 16.5s38.5 15.167 58.5 24.5l64 30v434h40v-540h-33l-5 68h-4l-75.5 -35c-21.667 -10 -41.5 -18.167 -59.5 -24.5
s-35.333 -11 -52 -14s-34.334 -4.5 -53.001 -4.5z" />
    <glyph glyph-name="Uhungarumlaut" unicode="&#x170;" horiz-adv-x="729" 
d="M365 -10c-46.667 0 -87.166 5.66699 -121.499 17s-62.833 29.333 -85.5 54s-39.5 56.334 -50.5 95.001s-16.5 85.334 -16.5 140.001v443h40v-438c0 -50 5 -92.333 15 -127s24.667 -62.667 44 -84s43.666 -36.833 72.999 -46.5s63.333 -14.5 102 -14.5
s72.5 4.83301 101.5 14.5s53.167 25.167 72.5 46.5s34 49.333 44 84s15 77 15 127v438h40v-443c0 -54.667 -5.5 -101.334 -16.5 -140.001s-27.833 -70.334 -50.5 -95.001s-51 -42.667 -85 -54s-74.333 -17 -121 -17zM271.001 806l78 114h44l-87 -128zM401.001 806l79 114h43
l-86 -128z" />
    <glyph glyph-name="uhungarumlaut" unicode="&#x171;" horiz-adv-x="573" 
d="M207 -10c-84.667 0 -127 48.667 -127 146v404h40v-390c0 -42 7.5 -72.667 22.5 -92s38.833 -29 71.5 -29c18.667 0 37.334 2 56.001 6s37.5 9.5 56.5 16.5s38.5 15.167 58.5 24.5l64 30v434h40v-540h-33l-5 68h-4l-75.5 -35c-21.667 -10 -41.5 -18.167 -59.5 -24.5
s-35.333 -11 -52 -14s-34.334 -4.5 -53.001 -4.5zM180 627l74 179h47l-89 -189zM347 627l73 179h47l-89 -189z" />
    <glyph glyph-name="Uogonek" unicode="&#x172;" horiz-adv-x="729" 
d="M344 -207c-55.333 0 -82.998 25.335 -82.998 76.002c0 23.333 6 44.166 18 62.499s33.333 38.166 64 59.499c-43.333 2 -80.666 9.16699 -111.999 21.5s-57.5 30.666 -78.5 54.999s-36.5 55.333 -46.5 93s-15 82.834 -15 135.501v443h40v-438c0 -50 5 -92.333 15 -127
s24.667 -62.667 44 -84s43.666 -36.833 72.999 -46.5s63.333 -14.5 102 -14.5s72.5 4.83301 101.5 14.5s53.167 25.167 72.5 46.5s34 49.333 44 84s15 77 15 127v438h40v-443c0 -99.333 -18.333 -173 -55 -221s-93.334 -75.667 -170.001 -83
c-41.333 -20.667 -70.833 -40.334 -88.5 -59.001s-26.5 -39.667 -26.5 -63c0 -15.333 4.16699 -26.5 12.5 -33.5s22.166 -10.5 41.499 -10.5s39 3.33301 59 10v-31c-9.33301 -3.33301 -19.833 -6.16602 -31.5 -8.49902s-23.5 -3.5 -35.5 -3.5z" />
    <glyph glyph-name="uogonek" unicode="&#x173;" horiz-adv-x="573" 
d="M207 -10c-84.667 0 -126.998 48.666 -126.998 145.999v404h40v-390c0 -42 7.5 -72.667 22.5 -92s38.833 -29 71.5 -29c18.667 0 37.334 2 56.001 6s37.5 9.5 56.5 16.5s38.5 15.167 58.5 24.5l64 30v434h40v-562c-41.333 -20 -70.833 -39.333 -88.5 -58
s-26.5 -39.667 -26.5 -63c0 -15.333 4.16699 -26.5 12.5 -33.5s22.166 -10.5 41.499 -10.5s39 3.33301 59 10v-31c-9.33301 -3.33301 -19.833 -6.16602 -31.5 -8.49902s-23.5 -3.5 -35.5 -3.5c-55.333 0 -83 25.333 -83 76c0 13.333 2 25.833 6 37.5s10.667 23.167 20 34.5
s21.666 22.833 36.999 34.5s34 24.167 56 37.5l-5 68h-4l-75.5 -35c-21.667 -10 -41.5 -18.167 -59.5 -24.5s-35.333 -11 -52 -14s-34.334 -4.5 -53.001 -4.5z" />
    <glyph glyph-name="Wcircumflex" unicode="&#x174;" horiz-adv-x="972" 
d="M24 740h41l155 -544l40 -146h5l42 146l158 544h44l155 -544l41 -146h4l42 146l158 544h41l-215 -740h-55l-160 562l-31 112h-4l-32 -113l-163 -561h-55zM341 862l146 73l146 -73v-44l-146 72l-146 -72v44z" />
    <glyph glyph-name="wcircumflex" unicode="&#x175;" horiz-adv-x="761" 
d="M233 686l146 72l146 -72v-44l-146 72l-146 -72v44zM29 533v7h39l116 -408l21 -85h4l24 85l123 408h45l129 -408l25 -85h4l21 85l109 408h39v-7l-145 -533h-49l-132 414l-21 76h-4l-20 -76l-126 -414h-49z" />
    <glyph glyph-name="Ycircumflex" unicode="&#x176;" horiz-adv-x="587" 
d="M273 253l-264 487h44l208 -382l30 -62h4l30 62l208 382h45l-264 -485v-255h-41v253zM148 862l146 73l146 -73v-44l-146 72l-146 -72v44z" />
    <glyph glyph-name="ycircumflex" unicode="&#x177;" horiz-adv-x="528" 
d="M155 -210v7l87 206l-219 531v6h41l176 -430l21 -59h4l22 59l183 430h39v-6l-319 -754zM119 686l146 72l146 -72v-44l-146 72l-146 -72v44z" />
    <glyph glyph-name="Ydieresis" unicode="&#x178;" horiz-adv-x="587" 
d="M273 253l-264 487h44l208 -382l30 -62h4l30 62l208 382h45l-264 -485v-255h-41v253zM172 828c-10 0 -18.333 2.66699 -25 8s-10 14.333 -10 27c0 12 3.33301 20.667 10 26s15 8 25 8c9.33301 0 17.666 -2.66699 24.999 -8s11 -14 11 -26
c0 -12.667 -3.66699 -21.667 -11 -27s-15.666 -8 -24.999 -8zM415 828c-10 0 -18.333 2.66699 -25 8s-10 14.333 -10 27c0 12 3.33301 20.667 10 26s15 8 25 8c9.33301 0 17.666 -2.66699 24.999 -8s11 -14 11 -26c0 -12.667 -3.66699 -21.667 -11 -27
s-15.666 -8 -24.999 -8z" />
    <glyph glyph-name="Zacute" unicode="&#x179;" horiz-adv-x="548" 
d="M34 32l418 665v4h-406v39h458v-31l-416 -666v-5h424v-38h-478v32zM258 805l79 122h44l-87 -128z" />
    <glyph glyph-name="zacute" unicode="&#x17a;" horiz-adv-x="453" 
d="M212 616l74 182h42l-88 -188zM39 30l306 468v4h-297v38h357v-25l-309 -472v-4h319v-38h-376v29z" />
    <glyph glyph-name="Zdotaccent" unicode="&#x17b;" horiz-adv-x="548" 
d="M282 820c-10 0 -18.333 2.66699 -25 8s-10 14.333 -10 27c0 12 3.33301 20.667 10 26s15 8 25 8c9.33301 0 17.666 -2.66699 24.999 -8s11 -14 11 -26c0 -12.667 -3.66699 -21.667 -11 -27s-15.666 -8 -24.999 -8zM34 32l418 665v4h-406v39h458v-31l-416 -666v-5h424v-38
h-478v32z" />
    <glyph glyph-name="zdotaccent" unicode="&#x17c;" horiz-adv-x="453" 
d="M39 30l306 468v4h-297v38h357v-25l-309 -472v-4h319v-38h-376v29zM224 662c-10 0 -18.333 2.66699 -25 8s-10 14 -10 26c0 12.667 3.33301 21.667 10 27s15 8 25 8c9.33301 0 17.666 -2.66699 24.999 -8s11 -14.333 11 -27c0 -12 -3.66699 -20.667 -11 -26
s-15.666 -8 -24.999 -8z" />
    <glyph glyph-name="Zcaron" unicode="&#x17d;" horiz-adv-x="548" 
d="M136 930l146 -72l146 72v-44l-146 -73l-146 73v44zM34 32l418 665v4h-406v39h458v-31l-416 -666v-5h424v-38h-478v32z" />
    <glyph glyph-name="zcaron" unicode="&#x17e;" horiz-adv-x="453" 
d="M80 747l146 -72l146 72v-44l-146 -72l-146 72v44zM39 30l306 468v4h-297v38h357v-25l-309 -472v-4h319v-38h-376v29z" />
    <glyph glyph-name="Schwa" unicode="&#x18f;" horiz-adv-x="659" 
d="M53 322c0 16.667 0.329102 31.9971 0.996094 45.9971s2 25.667 4 35h500c-3.33301 105.333 -26 183.333 -68 234s-105 76 -189 76c-32 0 -66.333 -3.33301 -103 -10s-75 -16.667 -115 -30c0 0.666992 -0.166992 3 -0.5 7s-0.833008 8.33301 -1.5 13
s-1.16699 8.83398 -1.5 12.501s-0.5 5.83398 -0.5 6.50098c12.667 6 27.834 11.333 45.501 16s36.334 8.83398 56.001 12.501s39.667 6.5 60 8.5s39.833 3 58.5 3c99.333 0 174.333 -30.5 225 -91.5s76 -152.167 76 -273.5c0 -63.333 -6.33301 -119.5 -19 -168.5
s-31.167 -90.5 -55.5 -124.5s-54.166 -59.833 -89.499 -77.5s-75.333 -26.5 -120 -26.5c-41.333 0 -78.166 7.66699 -110.499 23s-59.833 37.333 -82.5 66s-40 63.5 -52 104.5s-18 87.167 -18 138.5zM312.996 28.9971c78 0 138.169 28.5 180.502 85.5
s64.166 140.5 65.499 250.5h-466c-5.33301 -106 11.167 -188.5 49.5 -247.5s95.166 -88.5 170.499 -88.5z" />
    <glyph glyph-name="florin" unicode="&#x192;" horiz-adv-x="358" 
d="M146 502h-115.996v38h117v28c0 48 2.66699 87.167 8 117.5s15.666 54.5 30.999 72.5s36.666 30.833 63.999 38.5s62.666 12.834 105.999 15.501l2 -33c-36.667 -3.33301 -66.334 -7.83301 -89.001 -13.5s-40.167 -15 -52.5 -28s-20.5 -30.833 -24.5 -53.5
s-6 -52.334 -6 -89.001v-55h143v-38h-143v-691l-40 -31v722z" />
    <glyph glyph-name="uni01C4" unicode="&#x1c4;" horiz-adv-x="1251" 
d="M839 930l146 -72l146 72v-44l-146 -73l-146 73v44zM736 32l418 665v4h-406v39h458v-31l-416 -666v-5h424v-38h-478v32zM269 -11c-38 0 -72.333 1.16895 -103 3.50195s-53 6.16602 -67 11.499v733l42 4.5c16 1.66699 32.5 3 49.5 4s33.5 1.83301 49.5 2.5s29.667 1 41 1
c124.667 0 216.334 -30.833 275.001 -92.5s88 -157.167 88 -286.5c0 -130.667 -30.333 -226.834 -91 -288.501s-155.334 -92.5 -284.001 -92.5zM273 28.002c112.667 0 195.833 27.8301 249.5 83.4971s80.5 141.834 80.5 258.501s-26 202.334 -78 257.001
s-133.333 82 -244 82c-10 0 -21 -0.166992 -33 -0.5s-24.5 -0.833008 -37.5 -1.5s-25.667 -1.5 -38 -2.5s-23.5 -2.16699 -33.5 -3.5v-664c26.667 -3.33301 49.667 -5.66602 69 -6.99902s41 -2 65 -2z" />
    <glyph glyph-name="uni01C5" unicode="&#x1c5;" horiz-adv-x="1156" 
d="M782 747l146 -72l146 72v-44l-146 -72l-146 72v44zM741 30l306 468v4h-297v38h357v-25l-309 -472v-4h319v-38h-376v29zM269 -11c-38 0 -72.333 1.16895 -103 3.50195s-53 6.16602 -67 11.499v733l42 4.5c16 1.66699 32.5 3 49.5 4s33.5 1.83301 49.5 2.5s29.667 1 41 1
c124.667 0 216.334 -30.833 275.001 -92.5s88 -157.167 88 -286.5c0 -130.667 -30.333 -226.834 -91 -288.501s-155.334 -92.5 -284.001 -92.5zM273 28.002c112.667 0 195.833 27.8301 249.5 83.4971s80.5 141.834 80.5 258.501s-26 202.334 -78 257.001
s-133.333 82 -244 82c-10 0 -21 -0.166992 -33 -0.5s-24.5 -0.833008 -37.5 -1.5s-25.667 -1.5 -38 -2.5s-23.5 -2.16699 -33.5 -3.5v-664c26.667 -3.33301 49.667 -5.66602 69 -6.99902s41 -2 65 -2z" />
    <glyph glyph-name="uni01C6" unicode="&#x1c6;" horiz-adv-x="1025" 
d="M652 747l146 -72l146 72v-44l-146 -72l-146 72v44zM611 30l306 468v4h-297v38h357v-25l-309 -472v-4h319v-38h-376v29zM275 -10c-71.333 0 -125.999 22.501 -163.999 67.501s-57 115.833 -57 212.5c0 47.333 6 88.666 18 123.999s28.667 64.5 50 87.5
s47.166 40.167 77.499 51.5s64.166 17 101.499 17c28 0 54.333 -1.5 79 -4.5s47.334 -5.5 68.001 -7.5v270h40v-808h-34l-5 66h-5c-19.333 -24.667 -43 -43.5 -71 -56.5s-60.667 -19.5 -98 -19.5zM277.001 28.001c21.333 0 42.168 3.16992 62.501 9.50293
s38.5 15.166 54.5 26.499s29 24.666 39 39.999s15 32.333 15 51v345c-20.667 3.33301 -43.334 6.16602 -68.001 8.49902s-51 3.5 -79 3.5c-64.667 0 -115 -19.5 -151 -58.5s-54 -100.167 -54 -183.5c0 -84.667 15 -146.167 45 -184.5s75.333 -57.5 136 -57.5z" />
    <glyph glyph-name="uni01C7" unicode="&#x1c7;" horiz-adv-x="740" 
d="M523 -160c15.333 32 28.168 61.333 38.501 88s18.666 53.167 24.999 79.5s10.833 53.333 13.5 81s4 58.5 4 92.5v559h40v-560c0 -32.667 -1.5 -63 -4.5 -91s-8 -55.833 -15 -83.5s-16.167 -56.167 -27.5 -85.5s-25.333 -62 -42 -98zM99.002 740h40v-702h349v-38h-389v740
z" />
    <glyph glyph-name="uni01C8" unicode="&#x1c8;" horiz-adv-x="711" 
d="M509 -201c26.667 46 46.501 93.833 59.501 143.5s19.5 106.167 19.5 169.5v428h40v-448c0 -56 -7.83301 -110.5 -23.5 -163.5s-37.834 -102.5 -66.501 -148.5zM604.001 672c-21.333 0 -32 10.667 -32 32s10.667 32 32 32c10 0 18 -2.83301 24 -8.5s9 -13.5 9 -23.5
s-3 -17.833 -9 -23.5s-14 -8.5 -24 -8.5zM99.001 740h40v-702h349v-38h-389v740z" />
    <glyph glyph-name="uni01C9" unicode="&#x1c9;" horiz-adv-x="423" 
d="M221 -201c26.667 46 46.501 93.833 59.501 143.5s19.5 106.167 19.5 169.5v428h40v-448c0 -56 -7.83301 -110.5 -23.5 -163.5s-37.834 -102.5 -66.501 -148.5zM316.001 672c-21.333 0 -32 10.667 -32 32s10.667 32 32 32c10 0 18 -2.83301 24 -8.5s9 -13.5 9 -23.5
s-3 -17.833 -9 -23.5s-14 -8.5 -24 -8.5zM87.001 808h40v-808h-40v808z" />
    <glyph glyph-name="uni01CA" unicode="&#x1ca;" horiz-adv-x="998" 
d="M781 -160c15.333 32 28.168 61.333 38.501 88s18.666 53.167 24.999 79.5s10.833 53.333 13.5 81s4 58.5 4 92.5v559h40v-560c0 -32.667 -1.5 -63 -4.5 -91s-8 -55.833 -15 -83.5s-16.167 -56.167 -27.5 -85.5s-25.333 -62 -42 -98zM99.002 740h40l419 -584l61 -90h4v674
h39v-740h-41l-423 588l-56 84h-4v-672h-39v740z" />
    <glyph glyph-name="uni01CB" unicode="&#x1cb;" horiz-adv-x="969" 
d="M767 -201c26.667 46 46.501 93.833 59.501 143.5s19.5 106.167 19.5 169.5v428h40v-448c0 -56 -7.83301 -110.5 -23.5 -163.5s-37.834 -102.5 -66.501 -148.5zM862.001 672c-21.333 0 -32 10.667 -32 32s10.667 32 32 32c10 0 18 -2.83301 24 -8.5s9 -13.5 9 -23.5
s-3 -17.833 -9 -23.5s-14 -8.5 -24 -8.5zM99.001 740h40l419 -584l61 -90h4v674h39v-740h-41l-423 588l-56 84h-4v-672h-39v740z" />
    <glyph glyph-name="uni01CC" unicode="&#x1cc;" horiz-adv-x="781" 
d="M579 -201c26.667 46 46.501 93.833 59.501 143.5s19.5 106.167 19.5 169.5v428h40v-448c0 -56 -7.83301 -110.5 -23.5 -163.5s-37.834 -102.5 -66.501 -148.5zM674.001 672c-21.333 0 -32 10.667 -32 32s10.667 32 32 32c10 0 18 -2.83301 24 -8.5s9 -13.5 9 -23.5
s-3 -17.833 -9 -23.5s-14 -8.5 -24 -8.5zM84.001 540h33l4 -63h5l73.5 33c21.667 9.33301 41.667 17 60 23s35.333 10.333 51 13s31.167 4 46.5 4c45.333 0 79.333 -11.5 102 -34.5s34 -60.167 34 -111.5v-404h-40v390c0 44 -8.5 75.167 -25.5 93.5s-42.833 27.5 -77.5 27.5
c-30 0 -64.167 -6.5 -102.5 -19.5s-79.5 -30.833 -123.5 -53.5v-438h-40v540z" />
    <glyph glyph-name="Oogonek" unicode="&#x1ea;" horiz-adv-x="720" 
d="M340 -204c-55.333 0 -82.998 25.332 -82.998 75.999c0 22.667 5.66699 43.167 17 61.5s31.666 37.5 60.999 57.5c-88.667 5.33301 -156.834 39.666 -204.501 102.999s-71.5 155 -71.5 275c0 125.333 26.167 220.166 78.5 284.499s126.5 96.5 222.5 96.5
s170.167 -32.167 222.5 -96.5s78.5 -159.166 78.5 -284.499c0 -114 -22.167 -202.833 -66.5 -266.5s-107.166 -100.167 -188.499 -109.5c-40 -20 -68.667 -39.167 -86 -57.5s-26 -39.166 -26 -62.499c0 -15.333 4.16699 -26.5 12.5 -33.5s22.166 -10.5 41.499 -10.5
s39 3.33301 59 10v-31c-9.33301 -3.33301 -19.833 -6.16602 -31.5 -8.49902s-23.5 -3.5 -35.5 -3.5zM360.002 28.999c84 0 148.499 29.167 193.499 87.5s67.5 142.5 67.5 252.5c0 112 -22.333 197 -67 255s-109.334 87 -194.001 87c-85.333 0 -150.166 -29 -194.499 -87
s-66.5 -143 -66.5 -255c0 -111.333 22.333 -195.833 67 -253.5s109.334 -86.5 194.001 -86.5z" />
    <glyph glyph-name="oogonek" unicode="&#x1eb;" horiz-adv-x="562" 
d="M289 -197c-55.333 0 -82.9971 25.3301 -82.9971 75.9971c0 21.333 4.83301 40.5 14.5 57.5s27.167 34.833 52.5 53.5c-70.667 2 -124.834 26.833 -162.501 74.5s-56.5 116.167 -56.5 205.5c0 90.667 19.5 160 58.5 208s95.167 72 168.5 72s129.5 -24 168.5 -72
s58.5 -117.333 58.5 -208c0 -73.333 -12.833 -132.666 -38.5 -177.999s-62.834 -75.666 -111.501 -90.999c-41.333 -20 -70.833 -39.333 -88.5 -58s-26.5 -39.667 -26.5 -63c0 -15.333 4.16699 -26.5 12.5 -33.5s22.166 -10.5 41.499 -10.5s39 3.33301 59 10v-31
c-9.33301 -3.33301 -19.833 -6.16602 -31.5 -8.49902s-23.5 -3.5 -35.5 -3.5zM281.003 28.9971c123.333 0 185 80.333 185 241c0 161.333 -61.667 242 -185 242s-185 -80.667 -185 -242c0 -160.667 61.667 -241 185 -241z" />
    <glyph glyph-name="uni01F1" unicode="&#x1f1;" horiz-adv-x="1234" 
d="M719 32l418 665v4h-406v39h458v-31l-416 -666v-5h424v-38h-478v32zM269 -11c-38 0 -72.333 1.16895 -103 3.50195s-53 6.16602 -67 11.499v733l42 4.5c16 1.66699 32.5 3 49.5 4s33.5 1.83301 49.5 2.5s29.667 1 41 1c124.667 0 216.334 -30.833 275.001 -92.5
s88 -157.167 88 -286.5c0 -130.667 -30.333 -226.834 -91 -288.501s-155.334 -92.5 -284.001 -92.5zM273 28.002c112.667 0 195.833 27.8301 249.5 83.4971s80.5 141.834 80.5 258.501s-26 202.334 -78 257.001s-133.333 82 -244 82c-10 0 -21 -0.166992 -33 -0.5
s-24.5 -0.833008 -37.5 -1.5s-25.667 -1.5 -38 -2.5s-23.5 -2.16699 -33.5 -3.5v-664c26.667 -3.33301 49.667 -5.66602 69 -6.99902s41 -2 65 -2z" />
    <glyph glyph-name="uni01F2" unicode="&#x1f2;" horiz-adv-x="1151" 
d="M737 30l306 468v4h-297v38h357v-25l-309 -472v-4h319v-38h-376v29zM269 -11c-38 0 -72.333 1.16895 -103 3.50195s-53 6.16602 -67 11.499v733l42 4.5c16 1.66699 32.5 3 49.5 4s33.5 1.83301 49.5 2.5s29.667 1 41 1c124.667 0 216.334 -30.833 275.001 -92.5
s88 -157.167 88 -286.5c0 -130.667 -30.333 -226.834 -91 -288.501s-155.334 -92.5 -284.001 -92.5zM273 28.002c112.667 0 195.833 27.8301 249.5 83.4971s80.5 141.834 80.5 258.501s-26 202.334 -78 257.001s-133.333 82 -244 82c-10 0 -21 -0.166992 -33 -0.5
s-24.5 -0.833008 -37.5 -1.5s-25.667 -1.5 -38 -2.5s-23.5 -2.16699 -33.5 -3.5v-664c26.667 -3.33301 49.667 -5.66602 69 -6.99902s41 -2 65 -2z" />
    <glyph glyph-name="uni01F3" unicode="&#x1f3;" horiz-adv-x="1025" 
d="M611 30l306 468v4h-297v38h357v-25l-309 -472v-4h319v-38h-376v29zM275 -10c-71.333 0 -125.999 22.501 -163.999 67.501s-57 115.833 -57 212.5c0 47.333 6 88.666 18 123.999s28.667 64.5 50 87.5s47.166 40.167 77.499 51.5s64.166 17 101.499 17
c28 0 54.333 -1.5 79 -4.5s47.334 -5.5 68.001 -7.5v270h40v-808h-34l-5 66h-5c-19.333 -24.667 -43 -43.5 -71 -56.5s-60.667 -19.5 -98 -19.5zM277.001 28.001c21.333 0 42.168 3.16992 62.501 9.50293s38.5 15.166 54.5 26.499s29 24.666 39 39.999s15 32.333 15 51v345
c-20.667 3.33301 -43.334 6.16602 -68.001 8.49902s-51 3.5 -79 3.5c-64.667 0 -115 -19.5 -151 -58.5s-54 -100.167 -54 -183.5c0 -84.667 15 -146.167 45 -184.5s75.333 -57.5 136 -57.5z" />
    <glyph glyph-name="Gacute" unicode="&#x1f4;" horiz-adv-x="638" 
d="M329 805l79 122h44l-87 -128zM382 -8c-215.333 1.33301 -323.002 126.667 -323.002 376c0 254 110.333 381 331 381c52.667 0 110.334 -8.33301 173.001 -25v-39c-19.333 4.66699 -36.666 8.66699 -51.999 12s-29.666 6 -42.999 8s-26.166 3.33301 -38.499 4
s-25.166 1 -38.499 1c-96 0 -168.667 -28.5 -218 -85.5s-74 -142.167 -74 -255.5c0 -112 23.833 -196.333 71.5 -253s117.834 -85 210.501 -85c8.66699 0 19.167 0.5 31.5 1.5s25.166 2.33301 38.499 4s26.666 3.5 39.999 5.5s25.666 4.33301 36.999 7v327h39v-356
c-29.333 -8.66699 -60.833 -15.5 -94.5 -20.5s-63.834 -7.5 -90.501 -7.5z" />
    <glyph glyph-name="gacute" unicode="&#x1f5;" horiz-adv-x="572" 
d="M285 616l74 182h42l-88 -188zM250 -219c-27.333 0 -54.499 2 -81.499 6s-52.5 9.66699 -76.5 17l4 39c25.333 -7.33301 51.333 -13.166 78 -17.499s53 -6.5 79 -6.5c29.333 0 56 3.66699 80 11s44.5 19.5 61.5 36.5s30.333 39.833 40 68.5s14.5 64 14.5 106v26h-4
c-19.333 -24 -43.166 -42.667 -71.499 -56s-61.166 -20 -98.499 -20c-71.333 0 -126 22.5 -164 67.5s-57 115.5 -57 211.5c0 47.333 6 88.666 18 123.999s28.667 64.5 50 87.5s47.166 40.167 77.499 51.5s64.166 17 101.499 17c31.333 0 64.166 -1.66699 98.499 -5
s63.833 -8.33301 88.5 -15v-484c0 -53.333 -6.16699 -97 -18.5 -131s-29.333 -61 -51 -81s-47 -33.833 -76 -41.5s-59.833 -11.5 -92.5 -11.5zM277.001 29c21.333 0 42.167 3.16992 62.5 9.50293s38.5 15.166 54.5 26.499s29 24.666 39 39.999s15 32.333 15 51v344
c-20.667 3.33301 -43.5 6.16602 -68.5 8.49902s-51.167 3.5 -78.5 3.5c-64.667 0 -115 -19.5 -151 -58.5s-54 -100.167 -54 -183.5c0 -84 15 -145.167 45 -183.5s75.333 -57.5 136 -57.5z" />
    <glyph glyph-name="Aringacute" unicode="&#x1fa;" horiz-adv-x="646" 
d="M12 5l248.001 650.001c-16.667 9.33301 -29.834 21.833 -39.501 37.5s-14.5 33.5 -14.5 53.5c0 28 8.83301 51.667 26.5 71s41.5 30.666 71.5 33.999l68 99h44l-68 -101c26 -5.33301 47 -17.5 63 -36.5s24 -41.167 24 -66.5c0 -19.333 -4.5 -36.5 -13.5 -51.5
s-21.167 -27.167 -36.5 -36.5l249 -653v-5h-41l-93 246h-353l-94 -246h-41v5zM321.001 676.001c23.333 0 42 6.33301 56 19s21 29.667 21 51s-6.83301 38.333 -20.5 51s-32.5 19 -56.5 19s-42.833 -6.33301 -56.5 -19s-20.5 -29.667 -20.5 -51s7 -38.333 21 -51
s32.667 -19 56 -19zM485.001 284.001l-115 303l-21 55h-52l-21 -55l-115 -303h324z" />
    <glyph glyph-name="aringacute" unicode="&#x1fb;" horiz-adv-x="500" 
d="M182 -5c-91.333 0 -137.003 44.332 -137.003 132.999c0 51.333 16.167 90 48.5 116s84.5 42.333 156.5 49l131 12v60c0 26 -2.5 48.167 -7.5 66.5s-13 33 -24 44s-25.667 19 -44 24s-40.5 7.5 -66.5 7.5c-23.333 0 -47.166 -1.33301 -71.499 -4s-52.5 -7 -84.5 -13l-5 37
c33.333 6.66699 62.833 11.334 88.5 14.001s50.834 4 75.501 4c62 0 107.333 -13.833 136 -41.5s43 -71.5 43 -131.5v-372h-33l-6 69h-4c-36.667 -23.333 -71.167 -41.5 -103.5 -54.5s-63.166 -19.5 -92.499 -19.5zM187.997 32.999c28.667 0 59.5 7 92.5 21
s66.5 31.667 100.5 53v164l-123 -11c-32 -3.33301 -59 -8 -81 -14s-39.667 -14.167 -53 -24.5s-23 -23 -29 -38s-9 -32.833 -9 -53.5c0 -64.667 34 -97 102 -97zM252.997 607.999c-33.333 0 -60.6641 9.83301 -81.9971 29.5s-32 44.5 -32 74.5s10.667 55.167 32 75.5
s49.666 30.5 84.999 30.5l64 157h42l-76 -162c23.333 -6.66699 42.166 -19 56.499 -37s21.5 -39.333 21.5 -64c0 -30 -10.333 -54.833 -31 -74.5s-47.334 -29.5 -80.001 -29.5zM252.999 642.999c23.333 0 41.666 6.16699 54.999 18.5s20 29.166 20 50.499
s-6.66699 38.5 -20 51.5s-31.666 19.5 -54.999 19.5c-24 0 -42.833 -6.5 -56.5 -19.5s-20.5 -30.167 -20.5 -51.5s6.83301 -38.166 20.5 -50.499s32.5 -18.5 56.5 -18.5z" />
    <glyph glyph-name="AEacute" unicode="&#x1fc;" horiz-adv-x="828" 
d="M481 805l79 122h44l-87 -128zM12 6l301 734h455v-38h-341l14 -307h294v-38h-293l15 -319h320v-38h-360l-10 246h-254l-102 -246h-39v6zM168 284h237l-17 417h-47z" />
    <glyph glyph-name="aeacute" unicode="&#x1fd;" horiz-adv-x="845" 
d="M417 616l74 182h42l-88 -188zM616 -9c-46.667 0 -86.334 8.49805 -119.001 25.498s-58.334 41.833 -77.001 74.5l-3 1c-29.333 -18 -55.333 -33.333 -78 -46s-43.334 -22.667 -62.001 -30s-35.667 -12.666 -51 -15.999s-30 -5 -44 -5c-91.333 0 -137 44.333 -137 133
c0 51.333 16.167 90 48.5 116s84.5 42.333 156.5 49l131 12v61c0 26 -2.5 48 -7.5 66s-13 32.5 -24 43.5s-25.667 19 -44 24s-40.5 7.5 -66.5 7.5c-23.333 0 -47.166 -1.33301 -71.499 -4s-52.5 -7 -84.5 -13l-5 37c33.333 6.66699 62.833 11.334 88.5 14.001
s50.834 4 75.501 4c50.667 0 89.834 -9.33301 117.501 -28s45.167 -47 52.5 -85h4c17.333 38 42 67 74 87s71.333 30 118 30c60 0 105.833 -20.333 137.5 -61s47.5 -99.334 47.5 -176.001c0 -28 -1 -48.333 -3 -61h-368c4 -148 70 -222 198 -222c24 0 47.833 2.33301 71.5 7
s50.167 12.334 79.5 23.001l5 -36c-24 -10 -50.5 -17.833 -79.5 -23.5s-55.833 -8.5 -80.5 -8.5zM188 32.998c28 0 58 6.66797 90 20.001s68 32.666 108 57.999c-0.666992 2 -1.33398 10.833 -2.00098 26.5s-1.16699 32.834 -1.5 51.501s-0.666016 36.167 -0.999023 52.5
s-0.5 26.166 -0.5 29.499l-123 -11c-32 -3.33301 -59 -8 -81 -14s-39.667 -14.167 -53 -24.5s-23 -23 -29 -38s-9 -32.833 -9 -53.5c0 -64.667 34 -97 102 -97zM753 286.999c-2 80 -14.334 137.333 -37.001 172s-58.667 52 -108 52c-58 0 -102.667 -19 -134 -57
s-48.666 -93.667 -51.999 -167h331z" />
    <glyph glyph-name="Oslashacute" unicode="&#x1fe;" horiz-adv-x="722" 
d="M128 101c-45.333 63.333 -68.001 152.668 -68.001 268.001c0 125.333 26.167 220.166 78.5 284.499s126.833 96.5 223.5 96.5c86.667 0 155.667 -26.667 207 -80l54 70h46l-77 -99c23.333 -32 41 -70.667 53 -116s18 -97.333 18 -156c0 -124.667 -26.167 -219 -78.5 -283
s-126.5 -96 -222.5 -96c-89.333 0 -159.666 27.333 -210.999 82l-55 -72h-46zM361.999 29.002c84 0 148.501 29.165 193.501 87.498s67.5 142.5 67.5 252.5c0 50.667 -4.83301 95.834 -14.5 135.501s-23.834 73.834 -42.501 102.501l-389 -502
c44 -50.667 105.667 -76 185 -76zM101 369c0 -98.667 17.665 -176.667 52.998 -234l389 502c-43.333 49.333 -103.666 74 -180.999 74c-85.333 0 -150.166 -29 -194.499 -87s-66.5 -143 -66.5 -255zM335.998 805l79 122h44l-87 -128z" />
    <glyph glyph-name="oslashacute" unicode="&#x1ff;" horiz-adv-x="567" 
d="M102 80c-30.667 47.333 -46 110.667 -46 190c0 90.667 19.5 160 58.5 208s95.5 72 169.5 72c65.333 0 117.333 -20 156 -60l41 50h48l-65 -79c31.333 -47.333 47 -111 47 -191c0 -90.667 -19.5 -160 -58.5 -208s-95.167 -72 -168.5 -72c-66.667 0 -119 19.667 -157 59
l-41 -49h-49zM284 29.001c123.333 0 185 80.333 185 241c0 66 -10.667 118.667 -32 158l-285 -348c30 -34 74 -51 132 -51zM98 270.001c0 -66.667 10.333 -119.333 31 -158l286 348c-30 34.667 -73.667 52 -131 52c-124 0 -186 -80.667 -186 -242zM272 616.002l74 182h42
l-88 -188z" />
    <glyph glyph-name="Adblgrave" unicode="&#x200;" horiz-adv-x="644" 
d="M11 5l280 735h63l279 -735v-5h-41l-93 246h-353l-94 -246h-41v5zM484 284l-115 303l-45 119h-4l-45 -119l-115 -303h324zM242 792l-87 128h44l78 -114zM372 792l-86 128h44l78 -114z" />
    <glyph glyph-name="adblgrave" unicode="&#x201;" horiz-adv-x="500" 
d="M182 -5c-91.333 0 -137.003 44.332 -137.003 132.999c0 51.333 16.167 90 48.5 116s84.5 42.333 156.5 49l131 12v60c0 26 -2.5 48.167 -7.5 66.5s-13 33 -24 44s-25.667 19 -44 24s-40.5 7.5 -66.5 7.5c-23.333 0 -47.166 -1.33301 -71.499 -4s-52.5 -7 -84.5 -13l-5 37
c33.333 6.66699 62.833 11.334 88.5 14.001s50.834 4 75.501 4c62 0 107.333 -13.833 136 -41.5s43 -71.5 43 -131.5v-372h-33l-6 69h-4c-36.667 -23.333 -71.167 -41.5 -103.5 -54.5s-63.166 -19.5 -92.499 -19.5zM187.997 32.999c28.667 0 59.5 7 92.5 21
s66.5 31.667 100.5 53v164l-123 -11c-32 -3.33301 -59 -8 -81 -14s-39.667 -14.167 -53 -24.5s-23 -23 -29 -38s-9 -32.833 -9 -53.5c0 -64.667 34 -97 102 -97zM157.997 616.999l-89 189h47l73 -179zM323.997 616.999l-89 189h47l74 -179z" />
    <glyph glyph-name="Ainvertedbreve" unicode="&#x202;" horiz-adv-x="644" 
d="M11 5l280 735h63l279 -735v-5h-41l-93 246h-353l-94 -246h-41v5zM484 284l-115 303l-45 119h-4l-45 -119l-115 -303h324zM445 818c0 30.667 -10.832 54.667 -32.499 72s-51.5 26 -89.5 26c-38.667 0 -68.834 -8.66699 -90.501 -26s-32.5 -41.333 -32.5 -72h-38
c0 42 14.167 74.833 42.5 98.5s67.833 35.5 118.5 35.5c50 0 89.167 -11.833 117.5 -35.5s42.5 -56.5 42.5 -98.5h-38z" />
    <glyph glyph-name="ainvertedbreve" unicode="&#x203;" horiz-adv-x="500" 
d="M182 -5c-91.333 0 -137.003 44.332 -137.003 132.999c0 51.333 16.167 90 48.5 116s84.5 42.333 156.5 49l131 12v60c0 26 -2.5 48.167 -7.5 66.5s-13 33 -24 44s-25.667 19 -44 24s-40.5 7.5 -66.5 7.5c-23.333 0 -47.166 -1.33301 -71.499 -4s-52.5 -7 -84.5 -13l-5 37
c33.333 6.66699 62.833 11.334 88.5 14.001s50.834 4 75.501 4c62 0 107.333 -13.833 136 -41.5s43 -71.5 43 -131.5v-372h-33l-6 69h-4c-36.667 -23.333 -71.167 -41.5 -103.5 -54.5s-63.166 -19.5 -92.499 -19.5zM187.997 32.999c28.667 0 59.5 7 92.5 21
s66.5 31.667 100.5 53v164l-123 -11c-32 -3.33301 -59 -8 -81 -14s-39.667 -14.167 -53 -24.5s-23 -23 -29 -38s-9 -32.833 -9 -53.5c0 -64.667 34 -97 102 -97zM92.9971 628.999c0 44 13.5 78.333 40.5 103s67.167 37 120.5 37c54 0 94.5 -12.333 121.5 -37
s40.5 -59 40.5 -103h-38c0 38.667 -11 66.167 -33 82.5s-52.333 24.5 -91 24.5s-69 -8.16699 -91 -24.5s-33 -43.833 -33 -82.5h-37z" />
    <glyph glyph-name="Edblgrave" unicode="&#x204;" horiz-adv-x="592" 
d="M99 740h430v-38h-390v-306h368v-38h-368v-320h398v-38h-438v740zM234 792l-87 128h44l78 -114zM364 792l-86 128h44l78 -114z" />
    <glyph glyph-name="edblgrave" unicode="&#x205;" horiz-adv-x="517" 
d="M173 617l-89 189h47l73 -179zM339 617l-89 189h47l74 -179zM288 -9c-76 0 -134 22.833 -174 68.5s-60 112.167 -60 199.5c0 94.667 19.333 166.667 58 216s94.667 74 168 74c61.333 0 107.5 -20.333 138.5 -61s46.5 -99.334 46.5 -176.001c0 -28 -1 -48.333 -3 -61h-367
c3.33301 -148 69.333 -222 198 -222c23.333 0 46.833 2.33301 70.5 7s50.167 12.334 79.5 23.001l5 -36c-24 -10 -50.5 -17.833 -79.5 -23.5s-55.833 -8.5 -80.5 -8.5zM280 511c-60 0 -105 -19.001 -135 -57.001s-46.667 -94 -50 -168h331
c0 80.667 -11.167 138.334 -33.5 173.001s-59.833 52 -112.5 52z" />
    <glyph glyph-name="Einvertedbreve" unicode="&#x206;" horiz-adv-x="592" 
d="M99 740h430v-38h-390v-306h368v-38h-368v-320h398v-38h-438v740zM438 818c0 30.667 -10.832 54.667 -32.499 72s-51.5 26 -89.5 26c-38.667 0 -68.834 -8.66699 -90.501 -26s-32.5 -41.333 -32.5 -72h-38c0 42 14.167 74.833 42.5 98.5s67.833 35.5 118.5 35.5
c50 0 89.167 -11.833 117.5 -35.5s42.5 -56.5 42.5 -98.5h-38z" />
    <glyph glyph-name="einvertedbreve" unicode="&#x207;" horiz-adv-x="517" 
d="M110 629c0 44 13.5 78.333 40.5 103s67.167 37 120.5 37c54 0 94.5 -12.333 121.5 -37s40.5 -59 40.5 -103h-38c0 38.667 -11 66.167 -33 82.5s-52.333 24.5 -91 24.5s-69 -8.16699 -91 -24.5s-33 -43.833 -33 -82.5h-37zM288 -9c-76 0 -134 22.833 -174 68.5
s-60 112.167 -60 199.5c0 94.667 19.333 166.667 58 216s94.667 74 168 74c61.333 0 107.5 -20.333 138.5 -61s46.5 -99.334 46.5 -176.001c0 -28 -1 -48.333 -3 -61h-367c3.33301 -148 69.333 -222 198 -222c23.333 0 46.833 2.33301 70.5 7s50.167 12.334 79.5 23.001
l5 -36c-24 -10 -50.5 -17.833 -79.5 -23.5s-55.833 -8.5 -80.5 -8.5zM280 511c-60 0 -105 -19.001 -135 -57.001s-46.667 -94 -50 -168h331c0 80.667 -11.167 138.334 -33.5 173.001s-59.833 52 -112.5 52z" />
    <glyph glyph-name="Idblgrave" unicode="&#x208;" horiz-adv-x="237" 
d="M99 740h40v-740h-40v740zM39 792l-87 128h44l78 -114zM169 792l-86 128h44l78 -114z" />
    <glyph glyph-name="idblgrave" unicode="&#x209;" horiz-adv-x="211" 
d="M11 617l-89 189h47l73 -179zM177 617l-89 189h47l74 -179zM85 540h40v-540h-40v540z" />
    <glyph glyph-name="Iinvertedbreve" unicode="&#x20a;" horiz-adv-x="237" 
d="M99 740h40v-740h-40v740zM242 818c0 30.667 -10.832 54.667 -32.499 72s-51.5 26 -89.5 26c-38.667 0 -68.834 -8.66699 -90.501 -26s-32.5 -41.333 -32.5 -72h-38c0 42 14.167 74.833 42.5 98.5s67.833 35.5 118.5 35.5c50 0 89.167 -11.833 117.5 -35.5
s42.5 -56.5 42.5 -98.5h-38z" />
    <glyph glyph-name="iinvertedbreve" unicode="&#x20b;" horiz-adv-x="211" 
d="M-51 629c0 44 13.333 78.333 40 103s66.667 37 120 37s93.333 -12.333 120 -37s40 -59 40 -103h-37c0 38.667 -11 66.167 -33 82.5s-52 24.5 -90 24.5c-38.667 0 -69 -8.16699 -91 -24.5s-33 -43.833 -33 -82.5h-36zM85 540h40v-540h-40v540z" />
    <glyph glyph-name="Odblgrave" unicode="&#x20c;" horiz-adv-x="720" 
d="M360 -10c-96 0 -170.167 31.833 -222.5 95.5s-78.5 158.167 -78.5 283.5s26.167 220.166 78.5 284.499s126.5 96.5 222.5 96.5s170.167 -32.167 222.5 -96.5s78.5 -159.166 78.5 -284.499c0 -124.667 -26.167 -219 -78.5 -283s-126.5 -96 -222.5 -96zM360 29
c84 0 148.499 29.167 193.499 87.5s67.5 142.5 67.5 252.5c0 112 -22.333 197 -67 255s-109.334 87 -194.001 87c-85.333 0 -150.166 -29 -194.499 -87s-66.5 -143 -66.5 -255c0 -111.333 22.333 -195.833 67 -253.5s109.334 -86.5 194.001 -86.5zM277.999 792l-87 128h44
l78 -114zM407.999 792l-86 128h44l78 -114z" />
    <glyph glyph-name="odblgrave" unicode="&#x20d;" horiz-adv-x="562" 
d="M182 617l-89 189h47l73 -179zM348 617l-89 189h47l74 -179zM281 -10c-73.333 0 -129.5 24 -168.5 72s-58.5 117.333 -58.5 208s19.5 160 58.5 208s95.167 72 168.5 72s129.5 -24 168.5 -72s58.5 -117.333 58.5 -208s-19.5 -160 -58.5 -208s-95.167 -72 -168.5 -72z
M281 29c123.333 0 185 80.333 185 241c0 161.333 -61.667 242 -185 242s-185 -80.667 -185 -242c0 -160.667 61.667 -241 185 -241z" />
    <glyph glyph-name="Oinvertedbreve" unicode="&#x20e;" horiz-adv-x="720" 
d="M360 -10c-96 0 -170.167 31.833 -222.5 95.5s-78.5 158.167 -78.5 283.5s26.167 220.166 78.5 284.499s126.5 96.5 222.5 96.5s170.167 -32.167 222.5 -96.5s78.5 -159.166 78.5 -284.499c0 -124.667 -26.167 -219 -78.5 -283s-126.5 -96 -222.5 -96zM360 29
c84 0 148.499 29.167 193.499 87.5s67.5 142.5 67.5 252.5c0 112 -22.333 197 -67 255s-109.334 87 -194.001 87c-85.333 0 -150.166 -29 -194.499 -87s-66.5 -143 -66.5 -255c0 -111.333 22.333 -195.833 67 -253.5s109.334 -86.5 194.001 -86.5zM481.999 818
c0 30.667 -10.832 54.667 -32.499 72s-51.5 26 -89.5 26c-38.667 0 -68.834 -8.66699 -90.501 -26s-32.5 -41.333 -32.5 -72h-38c0 42 14.167 74.833 42.5 98.5s67.833 35.5 118.5 35.5c50 0 89.167 -11.833 117.5 -35.5s42.5 -56.5 42.5 -98.5h-38z" />
    <glyph glyph-name="oinvertedbreve" unicode="&#x20f;" horiz-adv-x="562" 
d="M119 629c0 44 13.5 78.333 40.5 103s67.167 37 120.5 37c54 0 94.5 -12.333 121.5 -37s40.5 -59 40.5 -103h-38c0 38.667 -11 66.167 -33 82.5s-52.333 24.5 -91 24.5s-69 -8.16699 -91 -24.5s-33 -43.833 -33 -82.5h-37zM281 -10c-73.333 0 -129.5 24 -168.5 72
s-58.5 117.333 -58.5 208s19.5 160 58.5 208s95.167 72 168.5 72s129.5 -24 168.5 -72s58.5 -117.333 58.5 -208s-19.5 -160 -58.5 -208s-95.167 -72 -168.5 -72zM281 29c123.333 0 185 80.333 185 241c0 161.333 -61.667 242 -185 242s-185 -80.667 -185 -242
c0 -160.667 61.667 -241 185 -241z" />
    <glyph glyph-name="Rdblgrave" unicode="&#x210;" horiz-adv-x="634" 
d="M362 294c-14.667 -2 -30 -3.33398 -46 -4.00098s-32.667 -1 -50 -1c-18.667 0 -38.5 0.5 -59.5 1.5s-43.5 3.16699 -67.5 6.5v-297h-40v735c56 10 110.333 15 163 15c108 0 186.667 -18.333 236 -55s74 -95.334 74 -176.001c0 -61.333 -13.667 -109.666 -41 -144.999
s-70.333 -59.666 -129 -72.999l189 -301h-45zM270 325.999c46.667 0 86.666 3.66797 119.999 11.001s60.5 18.666 81.5 33.999s36.333 35.333 46 60s14.5 54 14.5 88c0 67.333 -21.167 116.333 -63.5 147s-110.166 46 -203.499 46c-20.667 0 -42.334 -0.833008 -65.001 -2.5
s-43 -4.16699 -61 -7.5v-366c6 -1.33301 13.833 -2.5 23.5 -3.5s20.334 -2 32.001 -3s24 -1.83301 37 -2.5s25.833 -1 38.5 -1zM238.999 792l-87 128h44l78 -114zM368.999 792l-86 128h44l78 -114z" />
    <glyph glyph-name="rdblgrave" unicode="&#x211;" horiz-adv-x="355" 
d="M112 617l-89 189h47l73 -179zM278 617l-89 189h47l74 -179zM84 540h32.999l4 -71h4c42.667 20.667 80 38 112 52s62.667 23.333 92 28h13v-43h-14c-31.333 -4 -64.166 -13.167 -98.499 -27.5s-69.5 -30.5 -105.5 -48.5v-430h-40v540z" />
    <glyph glyph-name="Rinvertedbreve" unicode="&#x212;" horiz-adv-x="634" 
d="M362 294c-14.667 -2 -30 -3.33398 -46 -4.00098s-32.667 -1 -50 -1c-18.667 0 -38.5 0.5 -59.5 1.5s-43.5 3.16699 -67.5 6.5v-297h-40v735c56 10 110.333 15 163 15c108 0 186.667 -18.333 236 -55s74 -95.334 74 -176.001c0 -61.333 -13.667 -109.666 -41 -144.999
s-70.333 -59.666 -129 -72.999l189 -301h-45zM270 325.999c46.667 0 86.666 3.66797 119.999 11.001s60.5 18.666 81.5 33.999s36.333 35.333 46 60s14.5 54 14.5 88c0 67.333 -21.167 116.333 -63.5 147s-110.166 46 -203.499 46c-20.667 0 -42.334 -0.833008 -65.001 -2.5
s-43 -4.16699 -61 -7.5v-366c6 -1.33301 13.833 -2.5 23.5 -3.5s20.334 -2 32.001 -3s24 -1.83301 37 -2.5s25.833 -1 38.5 -1zM441.999 818c0 30.667 -10.832 54.667 -32.499 72s-51.5 26 -89.5 26c-38.667 0 -68.834 -8.66699 -90.501 -26s-32.5 -41.333 -32.5 -72h-38
c0 42 14.167 74.833 42.5 98.5s67.833 35.5 118.5 35.5c50 0 89.167 -11.833 117.5 -35.5s42.5 -56.5 42.5 -98.5h-38z" />
    <glyph glyph-name="rinvertedbreve" unicode="&#x213;" horiz-adv-x="356" 
d="M48 629c0 44 13.5 78.333 40.5 103s67.167 37 120.5 37c54 0 94.5 -12.333 121.5 -37s40.5 -59 40.5 -103h-38c0 38.667 -11 66.167 -33 82.5s-52.333 24.5 -91 24.5s-69 -8.16699 -91 -24.5s-33 -43.833 -33 -82.5h-37zM84 540h32.999l4 -71h4
c42.667 20.667 80 38 112 52s62.667 23.333 92 28h13v-43h-14c-31.333 -4 -64.166 -13.167 -98.499 -27.5s-69.5 -30.5 -105.5 -48.5v-430h-40v540z" />
    <glyph glyph-name="Udblgrave" unicode="&#x214;" horiz-adv-x="729" 
d="M365 -10c-46.667 0 -87.166 5.66699 -121.499 17s-62.833 29.333 -85.5 54s-39.5 56.334 -50.5 95.001s-16.5 85.334 -16.5 140.001v443h40v-438c0 -50 5 -92.333 15 -127s24.667 -62.667 44 -84s43.666 -36.833 72.999 -46.5s63.333 -14.5 102 -14.5
s72.5 4.83301 101.5 14.5s53.167 25.167 72.5 46.5s34 49.333 44 84s15 77 15 127v438h40v-443c0 -54.667 -5.5 -101.334 -16.5 -140.001s-27.833 -70.334 -50.5 -95.001s-51 -42.667 -85 -54s-74.333 -17 -121 -17zM281.001 792l-87 128h44l78 -114zM411.001 792l-86 128
h44l78 -114z" />
    <glyph glyph-name="udblgrave" unicode="&#x215;" horiz-adv-x="573" 
d="M185 617l-89 189h47l73 -179zM351 617l-89 189h47l74 -179zM207 -10c-84.667 0 -127 48.667 -127 146v404h40v-390c0 -42 7.5 -72.667 22.5 -92s38.833 -29 71.5 -29c18.667 0 37.334 2 56.001 6s37.5 9.5 56.5 16.5s38.5 15.167 58.5 24.5l64 30v434h40v-540h-33l-5 68
h-4l-75.5 -35c-21.667 -10 -41.5 -18.167 -59.5 -24.5s-35.333 -11 -52 -14s-34.334 -4.5 -53.001 -4.5z" />
    <glyph glyph-name="Uinvertedbreve" unicode="&#x216;" horiz-adv-x="729" 
d="M365 -10c-46.667 0 -87.166 5.66699 -121.499 17s-62.833 29.333 -85.5 54s-39.5 56.334 -50.5 95.001s-16.5 85.334 -16.5 140.001v443h40v-438c0 -50 5 -92.333 15 -127s24.667 -62.667 44 -84s43.666 -36.833 72.999 -46.5s63.333 -14.5 102 -14.5
s72.5 4.83301 101.5 14.5s53.167 25.167 72.5 46.5s34 49.333 44 84s15 77 15 127v438h40v-443c0 -54.667 -5.5 -101.334 -16.5 -140.001s-27.833 -70.334 -50.5 -95.001s-51 -42.667 -85 -54s-74.333 -17 -121 -17zM484.001 818c0 30.667 -10.832 54.667 -32.499 72
s-51.5 26 -89.5 26c-38.667 0 -68.834 -8.66699 -90.501 -26s-32.5 -41.333 -32.5 -72h-38c0 42 14.167 74.833 42.5 98.5s67.833 35.5 118.5 35.5c50 0 89.167 -11.833 117.5 -35.5s42.5 -56.5 42.5 -98.5h-38z" />
    <glyph glyph-name="uinvertedbreve" unicode="&#x217;" horiz-adv-x="573" 
d="M121 629c0 44 13.5 78.333 40.5 103s67.167 37 120.5 37c54 0 94.5 -12.333 121.5 -37s40.5 -59 40.5 -103h-38c0 38.667 -11 66.167 -33 82.5s-52.333 24.5 -91 24.5s-69 -8.16699 -91 -24.5s-33 -43.833 -33 -82.5h-37zM207 -10c-84.667 0 -127 48.667 -127 146v404h40
v-390c0 -42 7.5 -72.667 22.5 -92s38.833 -29 71.5 -29c18.667 0 37.334 2 56.001 6s37.5 9.5 56.5 16.5s38.5 15.167 58.5 24.5l64 30v434h40v-540h-33l-5 68h-4l-75.5 -35c-21.667 -10 -41.5 -18.167 -59.5 -24.5s-35.333 -11 -52 -14s-34.334 -4.5 -53.001 -4.5z" />
    <glyph glyph-name="uni0218" unicode="&#x218;" horiz-adv-x="547" 
d="M250 -69h43l-55 -151h-39zM259 -11c-30 0 -64.1699 2.83105 -102.503 8.49805s-75.166 13.167 -110.499 22.5l2 38c34 -9.33301 70.5 -16.666 109.5 -21.999s73.833 -8 104.5 -8c62.667 0 111.667 13.167 147 39.5s53 63.833 53 112.5c0 27.333 -5 50.333 -15 69
s-23.667 34.5 -41 47.5s-37.666 24.167 -60.999 33.5s-48.333 18.333 -75 27c-38.667 12.667 -71.334 25.5 -98.001 38.5s-48.167 27.5 -64.5 43.5s-28.166 34 -35.499 54s-11 43 -11 69c0 29.333 5.5 56 16.5 80s26.667 44.5 47 61.5s44.833 30.167 73.5 39.5
s60.334 14 95.001 14c25.333 0 53 -2 83 -6s61 -9.66699 93 -17l-2 -40c-31.333 8 -61.833 14 -91.5 18s-56.834 6 -81.501 6c-29.333 0 -55.666 -3.66699 -78.999 -11s-43.333 -17.833 -60 -31.5s-29.5 -30.167 -38.5 -49.5s-13.5 -40.666 -13.5 -63.999
c0 -21.333 3 -40 9 -56s16.167 -30.5 30.5 -43.5s33.166 -25 56.499 -36s52.333 -21.833 87 -32.5c30 -9.33301 58.167 -19.333 84.5 -30s49.333 -23.834 69 -39.501s35.334 -35 47.001 -58s17.5 -51.5 17.5 -85.5c0 -61.333 -21.333 -108.666 -64 -141.999
s-103 -50 -181 -50z" />
    <glyph glyph-name="uni0219" unicode="&#x219;" horiz-adv-x="434" 
d="M210 -69h43l-55 -151h-39zM212 -11c-10.667 0 -21.001 0.333008 -31.001 1s-21.333 2 -34 4s-26.834 4.5 -42.501 7.5l-55.5 10.5v39c29.333 -7.33301 57.5 -13.166 84.5 -17.499s52.167 -6.5 75.5 -6.5c44.667 0 78.834 9.83301 102.501 29.5s35.5 47.5 35.5 83.5
c0 19.333 -3.16699 35.666 -9.5 48.999s-15 24.5 -26 33.5s-24.167 16.167 -39.5 21.5s-31.666 10 -48.999 14c-20 4.66699 -39.833 9.66699 -59.5 15s-37.5 13.333 -53.5 24s-29 24.834 -39 42.501s-15 41.167 -15 70.5c0 44.667 15.833 79.667 47.5 105s75.5 38 131.5 38
c9.33301 0 18.166 -0.333008 26.499 -1s17.5 -1.66699 27.5 -3s21.333 -3.16602 34 -5.49902s28 -5.5 46 -9.5l-3 -39c-30.667 7.33301 -55.667 12.5 -75 15.5s-37.666 4.5 -54.999 4.5c-44.667 0 -79 -9 -103 -27s-36 -44 -36 -78c0 -20.667 3.66699 -37.334 11 -50.001
s17.333 -23 30 -31s27.167 -14.5 43.5 -19.5s33.5 -9.5 51.5 -13.5c20.667 -5.33301 40.5 -11.333 59.5 -18s35.5 -15.834 49.5 -27.501s25.167 -26.167 33.5 -43.5s12.5 -39.333 12.5 -66c0 -47.333 -15.833 -84.5 -47.5 -111.5s-74.5 -40.5 -128.5 -40.5z" />
    <glyph glyph-name="uni021A" unicode="&#x21a;" horiz-adv-x="575" 
d="M266 -69h43l-55 -151h-39zM267 701h-252v39h545v-39h-252v-701h-41v701z" />
    <glyph glyph-name="uni021B" unicode="&#x21b;" horiz-adv-x="370" 
d="M239 -69h43l-55 -151h-39zM273 -7c-90 0 -134.998 47.333 -134.998 142v366h-123v39h123l6 122l33 6v-128h173v-39h-172v-360c0 -73.333 34 -110 102 -110c21.333 0 46.666 3.66699 75.999 11v-38c-32.667 -7.33301 -60.334 -11 -83.001 -11z" />
    <glyph glyph-name="dotlessj" unicode="&#x237;" horiz-adv-x="208" 
d="M6 -201c26.667 46 46.501 93.833 59.501 143.5s19.5 106.5 19.5 170.5v427h40v-448c0 -56 -7.83301 -110.5 -23.5 -163.5s-37.834 -102.5 -66.501 -148.5z" />
    <glyph glyph-name="schwa" unicode="&#x259;" horiz-adv-x="517" 
d="M228 549c76.667 0 134.833 -22.8311 174.5 -68.498s59.5 -112.167 59.5 -199.5c0 -94.667 -19.167 -166.667 -57.5 -216s-94.5 -74 -168.5 -74c-60 0 -105.833 20.333 -137.5 61s-47.5 99.334 -47.5 176.001c0 29.333 1.33301 49.666 4 60.999h367
c-2 73.333 -19.333 128.666 -52 165.999s-81.334 56 -146.001 56c-23.333 0 -46.833 -2.33301 -70.5 -7s-50.167 -12.334 -79.5 -23.001l-5 36c24 10 50.333 17.833 79 23.5s55.334 8.5 80.001 8.5zM236.999 29.002c58 0 102.333 18.833 133 56.5s47.667 93.167 51 166.5
h-330c2 -80 14.333 -137.167 37 -171.5s59 -51.5 109 -51.5z" />
    <glyph glyph-name="apostrophe" unicode="&#x2bc;" horiz-adv-x="206" 
d="M126 808v-4l-25 -224h-17v228h42z" />
    </font>
</defs>
</svg>
