<?xml version="1.0" standalone="no"?>
<!DOCTYPE svg PUBLIC "-//W3C//DTD SVG 1.1//EN" "http://www.w3.org/Graphics/SVG/1.1/DTD/svg11.dtd" >
<svg>
<metadata>
Created by FontForge 20090914 at Sat Aug  6 09:08:06 2016
 By www-data
Copyright (c) 2012, Impallari Type (www.impallari.com), with Reserved Font Name Encode Sans.
</metadata>
<defs>
<font id="EncodeSans-SemiBold" horiz-adv-x="597" >
  <font-face 
    font-family="Encode Sans"
    font-weight="600"
    font-stretch="normal"
    units-per-em="1000"
    panose-1="2 0 0 0 0 0 0 0 0 0"
    ascent="800"
    descent="-200"
    x-height="540"
    cap-height="740"
    bbox="-123 -220 1762 1030"
    underline-thickness="55"
    underline-position="-57"
    unicode-range="U+000D-U+FB04"
  />
<missing-glyph horiz-adv-x="800" 
d="M85 1030h629v-1250h-629v1250zM599 -112v1035h-399v-1035h399z" />
    <glyph glyph-name="f_f" unicode="ff" horiz-adv-x="851" 
d="M132 423h-116.002v117h117v25c0 46.667 4.83301 85.834 14.5 117.501s26 57 49 76s53.5 32.667 91.5 41s85.333 13.166 142 14.499l7 -101c-32.667 -1.33301 -59.667 -4.33301 -81 -9s-38.166 -11.834 -50.499 -21.501s-21.166 -22.667 -26.499 -39
s-8 -37.166 -8 -62.499v-41h143v-117h-143v-423h-139v423zM554.998 423h-116.002v117h117v25c0 46.667 4.83301 85.834 14.5 117.501s26 57 49 76s53.5 32.667 91.5 41s85.333 13.166 142 14.499l7 -101c-32.667 -1.33301 -59.667 -4.33301 -81 -9
s-38.166 -11.834 -50.499 -21.501s-21.166 -22.667 -26.499 -39s-8 -37.166 -8 -62.499v-41h143v-117h-143v-423h-139v423z" />
    <glyph glyph-name="f_i" unicode="fi" horiz-adv-x="713" 
d="M576 630c-28 0 -48 6 -60 18s-18 31.333 -18 58s6 46.167 18 58.5s32 18.5 60 18.5s48.333 -6.33301 61 -19s19 -32 19 -58c0 -25.333 -6.16699 -44.333 -18.5 -57s-32.833 -19 -61.5 -19zM507 540h139v-540h-139v540zM132 423h-116.002v117h117v25
c0 46.667 4.83301 85.834 14.5 117.501s26 57 49 76s53.5 32.667 91.5 41s85.333 13.166 142 14.499l7 -101c-32.667 -1.33301 -59.667 -4.33301 -81 -9s-38.166 -11.834 -50.499 -21.501s-21.166 -22.667 -26.499 -39s-8 -37.166 -8 -62.499v-41h143v-117h-143v-423h-139
v423z" />
    <glyph glyph-name="f_l" unicode="fl" horiz-adv-x="714" 
d="M132 423h-116.002v117h117v25c0 46.667 4.83301 85.834 14.5 117.501s26 57 49 76s53.5 32.667 91.5 41s85.333 13.166 142 14.499l7 -101c-32.667 -1.33301 -59.667 -4.33301 -81 -9s-38.166 -11.834 -50.499 -21.501s-21.166 -22.667 -26.499 -39
s-8 -37.166 -8 -62.499v-41h143v-117h-143v-423h-139v423zM506.998 808h139v-808h-139v808z" />
    <glyph glyph-name="f_f_i" unicode="ffi" horiz-adv-x="1133" 
d="M996 630c-28 0 -48 6 -60 18s-18 31.333 -18 58s6 46.167 18 58.5s32 18.5 60 18.5s48.333 -6.33301 61 -19s19 -32 19 -58c0 -25.333 -6.16699 -44.333 -18.5 -57s-32.833 -19 -61.5 -19zM927 540h139v-540h-139v540zM552 423h-116.002v117h117v25
c0 46.667 4.83301 85.834 14.5 117.501s26 57 49 76s53.5 32.667 91.5 41s85.333 13.166 142 14.499l7 -101c-32.667 -1.33301 -59.667 -4.33301 -81 -9s-38.166 -11.834 -50.499 -21.501s-21.166 -22.667 -26.499 -39s-8 -37.166 -8 -62.499v-41h143v-117h-143v-423h-139
v423zM131.998 423h-116.002v117h117v25c0 46.667 4.83301 85.834 14.5 117.501s26 57 49 76s53.5 32.667 91.5 41s85.333 13.166 142 14.499l7 -101c-32.667 -1.33301 -59.667 -4.33301 -81 -9s-38.166 -11.834 -50.499 -21.501s-21.166 -22.667 -26.499 -39
s-8 -37.166 -8 -62.499v-41h143v-117h-143v-423h-139v423z" />
    <glyph glyph-name="f_f_l" unicode="ffl" horiz-adv-x="1134" 
d="M552 423h-116.002v117h117v25c0 46.667 4.83301 85.834 14.5 117.501s26 57 49 76s53.5 32.667 91.5 41s85.333 13.166 142 14.499l7 -101c-32.667 -1.33301 -59.667 -4.33301 -81 -9s-38.166 -11.834 -50.499 -21.501s-21.166 -22.667 -26.499 -39
s-8 -37.166 -8 -62.499v-41h143v-117h-143v-423h-139v423zM926.998 808h139v-808h-139v808zM131.998 423h-116.002v117h117v25c0 46.667 4.83301 85.834 14.5 117.501s26 57 49 76s53.5 32.667 91.5 41s85.333 13.166 142 14.499l7 -101
c-32.667 -1.33301 -59.667 -4.33301 -81 -9s-38.166 -11.834 -50.499 -21.501s-21.166 -22.667 -26.499 -39s-8 -37.166 -8 -62.499v-41h143v-117h-143v-423h-139v423z" />
    <glyph glyph-name="f_b" unicode="fb" horiz-adv-x="1078" 
d="M132 423h-116.002v117h117v25c0 46.667 4.83301 85.834 14.5 117.501s26 57 49 76s53.5 32.667 91.5 41s85.333 13.166 142 14.499l7 -101c-32.667 -1.33301 -59.667 -4.33301 -81 -9s-38.166 -11.834 -50.499 -21.501s-21.166 -22.667 -26.499 -39
s-8 -37.166 -8 -62.499v-41h143v-117h-143v-423h-139v423zM749.998 -11c-16 0 -32.332 0.333984 -48.999 1.00098s-34.834 2 -54.501 4s-41 4.83301 -64 8.5s-48.5 8.5 -76.5 14.5v791h139v-326c38.667 44.667 94.667 67 168 67c74 0 130.167 -22 168.5 -66
s57.5 -111.667 57.5 -203c0 -94 -25.5 -165.833 -76.5 -215.5s-121.833 -74.834 -212.5 -75.501zM747.999 86.001c26.667 0 49.667 3.00098 69 9.00098s35 16.167 47 30.5s20.833 33.166 26.5 56.499s8.5 52.333 8.5 87c0 32.667 -2.33301 60 -7 82s-12 39.833 -22 53.5
s-23 23.5 -39 29.5s-35.333 9 -58 9c-37.333 0 -68 -9.16699 -92 -27.5s-36 -46.166 -36 -83.499v-237c13.333 -2.66699 28.833 -4.83398 46.5 -6.50098s36.5 -2.5 56.5 -2.5z" />
    <glyph glyph-name="f_f_b" unicode="ffb" horiz-adv-x="1498" 
d="M552 423h-116.002v117h117v25c0 46.667 4.83301 85.834 14.5 117.501s26 57 49 76s53.5 32.667 91.5 41s85.333 13.166 142 14.499l7 -101c-32.667 -1.33301 -59.667 -4.33301 -81 -9s-38.166 -11.834 -50.499 -21.501s-21.166 -22.667 -26.499 -39
s-8 -37.166 -8 -62.499v-41h143v-117h-143v-423h-139v423zM1170 -11c-16 0 -32.332 0.333984 -48.999 1.00098s-34.834 2 -54.501 4s-41 4.83301 -64 8.5s-48.5 8.5 -76.5 14.5v791h139v-326c38.667 44.667 94.667 67 168 67c74 0 130.167 -22 168.5 -66
s57.5 -111.667 57.5 -203c0 -94 -25.5 -165.833 -76.5 -215.5s-121.833 -74.834 -212.5 -75.501zM1168 86.001c26.667 0 49.667 3.00098 69 9.00098s35 16.167 47 30.5s20.833 33.166 26.5 56.499s8.5 52.333 8.5 87c0 32.667 -2.33301 60 -7 82s-12 39.833 -22 53.5
s-23 23.5 -39 29.5s-35.333 9 -58 9c-37.333 0 -68 -9.16699 -92 -27.5s-36 -46.166 -36 -83.499v-237c13.333 -2.66699 28.833 -4.83398 46.5 -6.50098s36.5 -2.5 56.5 -2.5zM131.999 423.002h-116.002v117h117v25c0 46.667 4.83301 85.834 14.5 117.501s26 57 49 76
s53.5 32.667 91.5 41s85.333 13.166 142 14.499l7 -101c-32.667 -1.33301 -59.667 -4.33301 -81 -9s-38.166 -11.834 -50.499 -21.501s-21.166 -22.667 -26.499 -39s-8 -37.166 -8 -62.499v-41h143v-117h-143v-423h-139v423z" />
    <glyph glyph-name="f_f_h" unicode="ffh" horiz-adv-x="1500" 
d="M927 808l139 0.000976562v-327c48 23.333 89.5 40.666 124.5 51.999s67.5 17 97.5 17c47.333 0 84 -12.667 110 -38s39 -62.333 39 -111v-401h-139v354c0 30 -5.83301 51.667 -17.5 65s-29.5 20 -53.5 20c-20 0 -44 -4 -72 -12s-57.667 -19 -89 -33v-394h-139v808z
M552 423.001h-116.002v117h117v25c0 46.667 4.83301 85.834 14.5 117.501s26 57 49 76s53.5 32.667 91.5 41s85.333 13.166 142 14.499l7 -101c-32.667 -1.33301 -59.667 -4.33301 -81 -9s-38.166 -11.834 -50.499 -21.501s-21.166 -22.667 -26.499 -39
s-8 -37.166 -8 -62.499v-41h143v-117h-143v-423h-139v423zM131.998 423.001h-116.002v117h117v25c0 46.667 4.83301 85.834 14.5 117.501s26 57 49 76s53.5 32.667 91.5 41s85.333 13.166 142 14.499l7 -101c-32.667 -1.33301 -59.667 -4.33301 -81 -9
s-38.166 -11.834 -50.499 -21.501s-21.166 -22.667 -26.499 -39s-8 -37.166 -8 -62.499v-41h143v-117h-143v-423h-139v423z" />
    <glyph glyph-name="f_f_j" unicode="ffj" horiz-adv-x="1136" 
d="M552 423h-116.002v117h117v25c0 46.667 4.83301 85.834 14.5 117.501s26 57 49 76s53.5 32.667 91.5 41s85.333 13.166 142 14.499l7 -101c-32.667 -1.33301 -59.667 -4.33301 -81 -9s-38.166 -11.834 -50.499 -21.501s-21.166 -22.667 -26.499 -39
s-8 -37.166 -8 -62.499v-41h143v-117h-143v-423h-139v423zM998.998 630c-28 0 -48.167 6 -60.5 18s-18.5 31.333 -18.5 58s6.16699 46.167 18.5 58.5s32.5 18.5 60.5 18.5s48.167 -6.33301 60.5 -19s18.5 -32 18.5 -58c0 -25.333 -6.16699 -44.333 -18.5 -57
s-32.5 -19 -60.5 -19zM877.998 -198c10 25.333 18.3311 50.3291 24.998 74.9961s12.334 50.334 17.001 77.001s8 55.5 10 86.5s3 65.5 3 103.5v33.5v63.5v80c0 28.667 -0.166992 56.834 -0.5 84.501s-0.666016 53.334 -0.999023 77.001s-0.5 42.834 -0.5 57.501h139v-461
c-3.33301 -54 -12.833 -106.333 -28.5 -157s-36.5 -98 -62.5 -142zM131.996 422.996h-116.002v117h117v25c0 46.667 4.83301 85.834 14.5 117.501s26 57 49 76s53.5 32.667 91.5 41s85.333 13.166 142 14.499l7 -101c-32.667 -1.33301 -59.667 -4.33301 -81 -9
s-38.166 -11.834 -50.499 -21.501s-21.166 -22.667 -26.499 -39s-8 -37.166 -8 -62.499v-41h143v-117h-143v-423h-139v423z" />
    <glyph glyph-name="f_f_k" unicode="ffk" horiz-adv-x="1453" 
d="M927 808h139v-485h72l151 217h154l-188 -253l-22 -7v-4l23 -8l204 -268h-154l-170 233h-70v-233h-139v808zM552 423h-116.002v117h117v25c0 46.667 4.83301 85.834 14.5 117.501s26 57 49 76s53.5 32.667 91.5 41s85.333 13.166 142 14.499l7 -101
c-32.667 -1.33301 -59.667 -4.33301 -81 -9s-38.166 -11.834 -50.499 -21.501s-21.166 -22.667 -26.499 -39s-8 -37.166 -8 -62.499v-41h143v-117h-143v-423h-139v423zM131.998 423h-116.002v117h117v25c0 46.667 4.83301 85.834 14.5 117.501s26 57 49 76
s53.5 32.667 91.5 41s85.333 13.166 142 14.499l7 -101c-32.667 -1.33301 -59.667 -4.33301 -81 -9s-38.166 -11.834 -50.499 -21.501s-21.166 -22.667 -26.499 -39s-8 -37.166 -8 -62.499v-41h143v-117h-143v-423h-139v423z" />
    <glyph glyph-name="f_f_t" unicode="fft" horiz-adv-x="1273" 
d="M552 423h-116.002v117h117v25c0 46.667 4.83301 85.834 14.5 117.501s26 57 49 76s53.5 32.667 91.5 41s85.333 13.166 142 14.499l7 -101c-32.667 -1.33301 -59.667 -4.33301 -81 -9s-38.166 -11.834 -50.499 -21.501s-21.166 -22.667 -26.499 -39
s-8 -37.166 -8 -62.499v-41h143v-117h-143v-423h-139v423zM1139 -11c-58.667 0 -102.667 14 -132 42s-44 69 -44 123v268h-102v118h110l21 148l108 13v-161h147v-118h-146v-236c0 -32 6.5 -55 19.5 -69s34.167 -21 63.5 -21c20 0 42 4 66 12v-105
c-15.333 -4 -32.833 -7.33301 -52.5 -10s-39.167 -4 -58.5 -4zM131.998 423h-116.002v117h117v25c0 46.667 4.83301 85.834 14.5 117.501s26 57 49 76s53.5 32.667 91.5 41s85.333 13.166 142 14.499l7 -101c-32.667 -1.33301 -59.667 -4.33301 -81 -9
s-38.166 -11.834 -50.499 -21.501s-21.166 -22.667 -26.499 -39s-8 -37.166 -8 -62.499v-41h143v-117h-143v-423h-139v423z" />
    <glyph glyph-name="f_h" unicode="fh" horiz-adv-x="1080" 
d="M507 808l139 0.000976562v-327c48 23.333 89.5 40.666 124.5 51.999s67.5 17 97.5 17c47.333 0 84 -12.667 110 -38s39 -62.333 39 -111v-401h-139v354c0 30 -5.83301 51.667 -17.5 65s-29.5 20 -53.5 20c-20 0 -44 -4 -72 -12s-57.667 -19 -89 -33v-394h-139v808z
M132 423.001h-116.002v117h117v25c0 46.667 4.83301 85.834 14.5 117.501s26 57 49 76s53.5 32.667 91.5 41s85.333 13.166 142 14.499l7 -101c-32.667 -1.33301 -59.667 -4.33301 -81 -9s-38.166 -11.834 -50.499 -21.501s-21.166 -22.667 -26.499 -39
s-8 -37.166 -8 -62.499v-41h143v-117h-143v-423h-139v423z" />
    <glyph glyph-name="f_j" unicode="fj" horiz-adv-x="715" 
d="M132 423h-116.002v117h117v25c0 46.667 4.83301 85.834 14.5 117.501s26 57 49 76s53.5 32.667 91.5 41s85.333 13.166 142 14.499l7 -101c-32.667 -1.33301 -59.667 -4.33301 -81 -9s-38.166 -11.834 -50.499 -21.501s-21.166 -22.667 -26.499 -39
s-8 -37.166 -8 -62.499v-41h143v-117h-143v-423h-139v423zM578.998 630c-28 0 -48.167 6 -60.5 18s-18.5 31.333 -18.5 58s6.16699 46.167 18.5 58.5s32.5 18.5 60.5 18.5s48.167 -6.33301 60.5 -19s18.5 -32 18.5 -58c0 -25.333 -6.16699 -44.333 -18.5 -57
s-32.5 -19 -60.5 -19zM457.998 -198c10 25.333 18.3311 50.3291 24.998 74.9961s12.334 50.334 17.001 77.001s8 55.5 10 86.5s3 65.5 3 103.5v33.5v63.5v80c0 28.667 -0.166992 56.834 -0.5 84.501s-0.666016 53.334 -0.999023 77.001s-0.5 42.834 -0.5 57.501h139v-461
c-3.33301 -54 -12.833 -106.333 -28.5 -157s-36.5 -98 -62.5 -142z" />
    <glyph glyph-name="f_k" unicode="fk" horiz-adv-x="1033" 
d="M507 808h139v-485h72l151 217h154l-188 -253l-22 -7v-4l23 -8l204 -268h-154l-170 233h-70v-233h-139v808zM132 423h-116.002v117h117v25c0 46.667 4.83301 85.834 14.5 117.501s26 57 49 76s53.5 32.667 91.5 41s85.333 13.166 142 14.499l7 -101
c-32.667 -1.33301 -59.667 -4.33301 -81 -9s-38.166 -11.834 -50.499 -21.501s-21.166 -22.667 -26.499 -39s-8 -37.166 -8 -62.499v-41h143v-117h-143v-423h-139v423z" />
    <glyph glyph-name="f_t" unicode="ft" horiz-adv-x="852" 
d="M132 423h-116.002v117h117v25c0 46.667 4.83301 85.834 14.5 117.501s26 57 49 76s53.5 32.667 91.5 41s85.333 13.166 142 14.499l7 -101c-32.667 -1.33301 -59.667 -4.33301 -81 -9s-38.166 -11.834 -50.499 -21.501s-21.166 -22.667 -26.499 -39
s-8 -37.166 -8 -62.499v-41h143v-117h-143v-423h-139v423zM717.998 -11c-58.667 0 -102.667 14 -132 42s-44 69 -44 123v268h-102v118h110l21 148l108 13v-161h147v-118h-146v-236c0 -32 6.5 -55 19.5 -69s34.167 -21 63.5 -21c20 0 42 4 66 12v-105
c-15.333 -4 -32.833 -7.33301 -52.5 -10s-39.167 -4 -58.5 -4z" />
    <glyph glyph-name=".notdef" horiz-adv-x="800" 
d="M85 1030h629v-1250h-629v1250zM599 -112v1035h-399v-1035h399z" />
    <glyph glyph-name="NULL" horiz-adv-x="0" 
 />
    <glyph glyph-name="NULL" horiz-adv-x="0" 
 />
    <glyph glyph-name="nonmarkingreturn" unicode="&#xd;" horiz-adv-x="302" 
 />
    <glyph glyph-name="space" unicode=" " horiz-adv-x="221" 
 />
    <glyph glyph-name="exclam" unicode="!" horiz-adv-x="281" 
d="M142 -3c-23.333 0 -41.166 6 -53.499 18s-18.5 29 -18.5 51s6.16699 39.167 18.5 51.5s30.166 18.5 53.499 18.5s41.333 -6.16699 54 -18.5s19 -29.5 19 -51.5s-6.33301 -39 -19 -51s-30.667 -18 -54 -18zM98 232l-26 498v10h138v-10l-27 -498v-12h-85v12z" />
    <glyph glyph-name="quotedbl" unicode="&#x22;" horiz-adv-x="422" 
d="M173 808v-4l-39 -324h-73v328h112zM379 808v-4l-39 -324h-73v328h112z" />
    <glyph glyph-name="numbersign" unicode="#" horiz-adv-x="617" 
d="M354 203h-121l-16 -203h-96l16 203h-91v90h99l12 152h-111v90h118l17 205h96l-17 -205h122l17 205h96l-17 -205h93v-90h-100l-12 -152h112v-90h-120l-16 -203h-97zM241 293h121l12 152h-121z" />
    <glyph glyph-name="dollar" unicode="$" horiz-adv-x="618" 
d="M255 -11c-34 2 -69.4971 5.66895 -106.497 11.002s-72.5 12 -106.5 20v116c45.333 -10.667 89 -19 131 -25s79.667 -9 113 -9c101.333 0 152 31.667 152 95c0 18 -3.5 33 -10.5 45s-16.833 22.333 -29.5 31s-28.334 16 -47.001 22s-39.334 11.667 -62.001 17
c-40.667 9.33301 -75.834 20.166 -105.501 32.499s-54.334 27.5 -74.001 45.5s-34.167 39.167 -43.5 63.5s-14 53.166 -14 86.499c0 54 17 98.667 51 134s81.333 59 142 71v142h129v-135c24 -1.33301 49.667 -4.16602 77 -8.49902s59 -10.166 95 -17.499v-115
c-32.667 9.33301 -67 16.5 -103 21.5s-68.667 7.5 -98 7.5c-46 0 -81.833 -8.5 -107.5 -25.5s-38.5 -40.833 -38.5 -71.5c0 -15.333 2.83301 -29 8.5 -41s14.5 -22.5 26.5 -31.5s27.667 -17.167 47 -24.5s43 -14.333 71 -21c36.667 -8.66699 69.334 -18.667 98.001 -30
s53 -25.333 73 -42s35.333 -36.834 46 -60.501s16 -52.167 16 -85.5c0 -60 -17 -107.833 -51 -143.5s-84.333 -58.834 -151 -69.501v-141h-128v136z" />
    <glyph glyph-name="percent" unicode="%" horiz-adv-x="1050" 
d="M237 278c-65.333 0 -115.333 19.667 -150 59s-52 98.333 -52 177s17.333 137.667 52 177s84.667 59 150 59c64.667 0 114.334 -19.667 149.001 -59s52 -98.333 52 -177s-17.333 -137.667 -52 -177s-84.334 -59 -149.001 -59zM237 367c34 0 58.833 11.332 74.5 33.999
s23.5 60.334 23.5 113.001s-8 90.334 -24 113.001s-40.667 34 -74 34c-34 0 -59 -11.5 -75 -34.5s-24 -60.5 -24 -112.5c0 -52.667 8 -90.334 24 -113.001s41 -34 75 -34zM814 -10.001c-64.667 0 -114.334 19.667 -149.001 59s-52 98.333 -52 177s17.333 137.667 52 177
s84.334 59 149.001 59c65.333 0 115.333 -19.667 150 -59s52 -98.333 52 -177s-17.333 -137.667 -52 -177s-84.667 -59 -150 -59zM814 77.999c34 0 59 11.5 75 34.5s24 60.833 24 113.5c0 52 -8 89.5 -24 112.5s-41 34.5 -75 34.5s-59 -11.5 -75 -34.5s-24 -60.5 -24 -112.5
c0 -52.667 8 -90.5 24 -113.5s41 -34.5 75 -34.5zM636 739.999h121l-344 -740h-121z" />
    <glyph glyph-name="ampersand" unicode="&#x26;" horiz-adv-x="767" 
d="M342 -10c-46 0 -87.3311 4.99902 -123.998 14.999s-67.834 24.333 -93.501 43s-45.334 41.334 -59.001 68.001s-20.5 56.667 -20.5 90c0 46 12.167 85.833 36.5 119.5s59.166 58.167 104.499 73.5c-24 25.333 -41.167 50.666 -51.5 75.999s-15.5 52.666 -15.5 81.999
c0 62.667 22.667 110.834 68 144.501s109 50.5 191 50.5c30 0 61.333 -2.5 94 -7.5s67.334 -13.167 104.001 -24.5l1 -6l-17 -92h-8c-28.667 10 -56.667 17.667 -84 23s-52.666 8 -75.999 8c-87.333 0 -131 -35.667 -131 -107c0 -36 16 -70.667 48 -104
s84.333 -69.666 157 -108.999l89 -49c2 18 3 37.333 3 58v80l126 5v-84c0 -44 -4.66699 -84.667 -14 -122l90 -49v-10l-53 -97h-9l-78 46c-28.667 -40 -66.334 -70.167 -113.001 -90.5s-101.667 -30.5 -165 -30.5zM408.002 236.999
c-28.667 16.667 -54.668 32.5 -78.001 47.5s-44.666 29.833 -63.999 44.5c-52 -23.333 -78 -62 -78 -116c0 -38 14.667 -68.333 44 -91s69 -34 119 -34c79.333 0 136 27.333 170 82z" />
    <glyph glyph-name="quotesingle" unicode="'" horiz-adv-x="216" 
d="M173 808v-4l-39 -324h-73v328h112z" />
    <glyph glyph-name="parenleft" unicode="(" horiz-adv-x="327" 
d="M193 -160c-50.667 74.667 -89.167 155.832 -115.5 243.499s-39.5 177.834 -39.5 270.501s13.167 182.834 39.5 270.501s64.833 168.834 115.5 243.501h123v-4c-51.333 -74 -91.666 -154.333 -120.999 -241s-44 -176.334 -44 -269.001s14.667 -182.334 44 -269.001
s69.666 -167 120.999 -241v-4h-123v0z" />
    <glyph glyph-name="parenright" unicode=")" horiz-adv-x="326" 
d="M11 -160v4.00195c51.333 74 91.5 154.333 120.5 241s43.5 176.334 43.5 269.001s-14.5 182.334 -43.5 269.001s-69.167 167 -120.5 241v4h122c51.333 -74.667 89.833 -155.834 115.5 -243.501s38.5 -177.834 38.5 -270.501s-12.833 -182.834 -38.5 -270.501
s-64.167 -168.834 -115.5 -243.501h-122z" />
    <glyph glyph-name="asterisk" unicode="*" horiz-adv-x="499" 
d="M93 479l46 63l80 73l-108 11l-73 24l25 77l74 -24l94 -54l-22 108v77h81v-77l-23 -108l94 54l74 24l25 -77l-73 -24l-107 -11l80 -73l46 -63l-66 -47l-46 62l-45 102l-45 -102l-45 -62z" />
    <glyph glyph-name="plus" unicode="+" horiz-adv-x="505" 
d="M40 415h167v164h91v-164h168v-90h-168v-164h-91v164h-167v90z" />
    <glyph glyph-name="comma" unicode="," horiz-adv-x="264" 
d="M27 -145l44 289h141l-80 -299z" />
    <glyph glyph-name="hyphen" unicode="-" horiz-adv-x="495" 
d="M60 333h375v-106h-375v106z" />
    <glyph glyph-name="period" unicode="." horiz-adv-x="261" 
d="M130 -6c-24.667 0 -44.167 6.33301 -58.5 19s-21.5 32 -21.5 58s7 45.167 21 57.5s33.667 18.5 59 18.5s45.333 -6.33301 60 -19s22 -31.667 22 -57c0 -26 -7.33301 -45.333 -22 -58s-34.667 -19 -60 -19z" />
    <glyph glyph-name="slash" unicode="/" horiz-adv-x="421" 
d="M273 740h121l-246 -860h-121z" />
    <glyph glyph-name="zero" unicode="0" horiz-adv-x="698" 
d="M349 -10c-97.333 0 -172 31.667 -224 95s-78 158 -78 284c0 126.667 26 221.834 78 285.501s126.667 95.5 224 95.5s171.833 -31.833 223.5 -95.5s77.5 -158.834 77.5 -285.501c0 -126 -25.833 -220.667 -77.5 -284s-126.167 -95 -223.5 -95zM349 104
c54.667 0 94.9971 20.5 120.997 61.5s39 108.833 39 203.5s-13 162.667 -39 204s-66.333 62 -121 62c-27.333 0 -51.166 -5 -71.499 -15s-37.166 -25.667 -50.499 -47s-23.166 -48.833 -29.499 -82.5s-9.5 -74.167 -9.5 -121.5c0 -94.667 13 -162.5 39 -203.5
s66.667 -61.5 122 -61.5z" />
    <glyph glyph-name="one" unicode="1" horiz-adv-x="445" 
d="M214 586h-4l-168 -64h-9l-17 81v7l232 130h107v-740h-141v586z" />
    <glyph glyph-name="two" unicode="2" horiz-adv-x="591" 
d="M41 105c0 36 5.33301 67.4951 16 94.4951s25.667 51 45 72s42.5 40.167 69.5 57.5s56.833 34.333 89.5 51c46 24 80.5 47 103.5 69s34.5 48.667 34.5 80c0 36 -11.5 62.333 -34.5 79s-58.833 25 -107.5 25c-29.333 0 -60.166 -2.5 -92.499 -7.5
s-62.5 -10.833 -90.5 -17.5l-12 115c46.667 9.33301 87.834 16 123.501 20s69.5 6 101.5 6c86.667 0 150.5 -17.167 191.5 -51.5s61.5 -86.166 61.5 -155.499c0 -29.333 -4.16699 -55.666 -12.5 -78.999s-20.333 -44.666 -36 -63.999s-34.667 -37.166 -57 -53.499
s-47.5 -32.166 -75.5 -47.499l-71.5 -41.5c-21.667 -13 -40.334 -25.833 -56.001 -38.5s-27.834 -25.5 -36.501 -38.5s-13 -26.5 -13 -40.5v-26h358v-112h-499v104z" />
    <glyph glyph-name="three" unicode="3" horiz-adv-x="566" 
d="M227 -11c-15.333 0 -31.3291 0.336914 -47.9961 1.00391s-32.834 1.66699 -48.501 3s-30.334 3 -44.001 5s-25.5 4 -35.5 6v108h4c8 -2 18.333 -3.83301 31 -5.5s26 -3.33398 40 -5.00098s27.833 -2.83398 41.5 -3.50098s26.167 -1 37.5 -1
c61.333 0 104.833 9.16699 130.5 27.5s38.5 47.833 38.5 88.5c0 40 -12.833 68.833 -38.5 86.5s-70.5 26.5 -134.5 26.5h-67v100h66c56.667 0 96.667 8.5 120 25.5s35 44.5 35 82.5c0 37.333 -11.333 64.333 -34 81s-60.334 25 -113.001 25c-18 0 -40.833 -1.33301 -68.5 -4
s-55.5 -6.33398 -83.5 -11.001h-5v108c12 2 25.667 4.16699 41 6.5s31 4.16602 47 5.49902s31.667 2.5 47 3.5s29.333 1.5 42 1.5c90 0 157.833 -16.667 203.5 -50s68.5 -83 68.5 -149c0 -42 -10.667 -77.5 -32 -106.5s-52 -49.167 -92 -60.5v-7
c45.333 -9.33301 80.666 -29.333 105.999 -60s38 -68.667 38 -114c0 -70 -25 -123.167 -75 -159.5s-122.667 -54.5 -218 -54.5z" />
    <glyph glyph-name="four" unicode="4" horiz-adv-x="645" 
d="M18 240v8l247 502h4l138 -14l5 -13l-248 -454v-5h212l34 212h100v-212h110v-108h-110v-156h-139v156h-334z" />
    <glyph glyph-name="five" unicode="5" horiz-adv-x="566" 
d="M223 -12c-28 0 -56.502 1.50098 -85.502 4.50098s-58.5 6.83301 -88.5 11.5v108h29c23.333 -4.66699 45.5 -8 66.5 -10s41.5 -3 61.5 -3c58.667 0 102.5 9.33301 131.5 28s43.5 51.667 43.5 99c0 21.333 -4.16699 39.166 -12.5 53.499s-21.666 26 -39.999 35
s-42.166 15.333 -71.499 19s-65 5.5 -107 5.5h-76l-13 13l29 388h399v-112h-293l-11 -184c58 -0.666992 108.5 -4.83398 151.5 -12.501s78.667 -20.167 107 -37.5s49.5 -40 63.5 -68s21 -63 21 -105c0 -43.333 -8 -79.666 -24 -108.999s-37.667 -53.333 -65 -72
s-59.5 -32 -96.5 -40s-76.833 -12 -119.5 -12z" />
    <glyph glyph-name="six" unicode="6" horiz-adv-x="654" 
d="M339 -11c-95.333 0 -167.834 28.665 -217.501 85.998s-74.5 142.666 -74.5 255.999c0 136.667 31.833 240.834 95.5 312.501s157.5 107.5 281.5 107.5c46 0 95.667 -6.33301 149 -19l-15 -104c-26.667 6 -50.167 10.333 -70.5 13s-40.166 4 -59.499 4
c-72.667 0 -128.334 -19.667 -167.001 -59s-62 -100.666 -70 -183.999c23.333 19.333 50.833 34.5 82.5 45.5s64.5 16.5 98.5 16.5c38 0 72.333 -5.16699 103 -15.5s56.834 -25 78.501 -44s38.334 -42 50.001 -69s17.5 -57.5 17.5 -91.5
c0 -39.333 -6.5 -74.666 -19.5 -105.999s-31.833 -58 -56.5 -80s-54.334 -39 -89.001 -51s-73.667 -18 -117 -18zM338.999 370.998c-27.333 0 -54.668 -5.66699 -82.001 -17s-50.333 -25.666 -69 -42.999c2 -75.333 15.167 -130.333 39.5 -165s61.5 -52 111.5 -52
c44 0 78 12.667 102 38s36 61.666 36 108.999c0 43.333 -11.667 75.833 -35 97.5s-57.666 32.5 -102.999 32.5z" />
    <glyph glyph-name="seven" unicode="7" horiz-adv-x="528" 
d="M222 -19l-119 19v17l257 602h-332l-7 108l12 13h459l22 -75v-20l-260 -645z" />
    <glyph glyph-name="eight" unicode="8" horiz-adv-x="653" 
d="M328 -6c-96.667 0 -167.997 16.6641 -213.997 49.9971s-69 82 -69 146c0 25.333 3.5 47.833 10.5 67.5s16.333 37.167 28 52.5s25.167 28.666 40.5 39.999s31.333 21 48 29c-30 16.667 -54.667 38.5 -74 65.5s-29 64.167 -29 111.5c0 30.667 6.5 57.834 19.5 81.501
s31.167 43.834 54.5 60.501s51.166 29.334 83.499 38.001s68.166 13 107.499 13c77.333 0 138.5 -16.667 183.5 -50s67.5 -81 67.5 -143c0 -22.667 -2.66699 -42.667 -8 -60s-12.666 -32.833 -21.999 -46.5s-20.333 -25.667 -33 -36s-26.667 -19.833 -42 -28.5
c18 -8 34.667 -17.167 50 -27.5s28.666 -22.833 39.999 -37.5s20.333 -31.667 27 -51s10 -41.666 10 -66.999c0 -66 -22.833 -117.167 -68.5 -153.5s-115.834 -54.5 -210.501 -54.5zM272.003 340.997c-10.667 -6 -21.498 -12.833 -32.498 -20.5s-21 -17 -30 -28
s-16.5 -23.667 -22.5 -38s-9 -30.833 -9 -49.5c0 -38 13.667 -66.667 41 -86s63.666 -29 108.999 -29c44.667 0 80.167 9 106.5 27s39.5 44 39.5 78c0 22 -4.5 40.333 -13.5 55s-21.167 27 -36.5 37s-33.333 18.5 -54 25.5s-42.334 13.5 -65.001 19.5zM195.005 548.997
c0 -20.667 4.66602 -37.834 13.999 -51.501s22 -25.334 38 -35.001s34.167 -17.667 54.5 -24s41.5 -12.166 63.5 -17.499l12 -3c10 6 20 13.167 30 21.5s19 17.833 27 28.5s14.333 22.5 19 35.5s7 27.5 7 43.5c0 34.667 -12.167 60.834 -36.5 78.501
s-56.166 26.5 -95.499 26.5s-71.333 -8.66699 -96 -26s-37 -43 -37 -77z" />
    <glyph glyph-name="nine" unicode="9" horiz-adv-x="655" 
d="M316 751c95.333 0 167.834 -28.667 217.501 -86s74.5 -142.666 74.5 -255.999c0 -136.667 -31.833 -240.834 -95.5 -312.501s-157.5 -107.5 -281.5 -107.5c-46 0 -95.667 6.33301 -149 19l15 104c26.667 -6 50.167 -10.333 70.5 -13s40.166 -4 59.499 -4
c72.667 0 128.334 19.667 167.001 59s62 100.666 70 183.999c-23.333 -19.333 -50.833 -34.5 -82.5 -45.5s-64.5 -16.5 -98.5 -16.5c-38 0 -72.333 5.16699 -103 15.5s-56.834 25 -78.501 44s-38.334 42 -50.001 69s-17.5 57.5 -17.5 91.5c0 38.667 6.5 73.834 19.5 105.501
s31.833 58.5 56.5 80.5s54.334 39 89.001 51s73.667 18 117 18zM316.001 369c27.333 0 54.668 5.66699 82.001 17s50.333 25.666 69 42.999c-2 75.333 -15.167 130.333 -39.5 165s-61.5 52 -111.5 52c-44 0 -78 -12.667 -102 -38s-36 -61.666 -36 -108.999
c0 -43.333 11.667 -75.833 35 -97.5s57.666 -32.5 102.999 -32.5z" />
    <glyph glyph-name="colon" unicode=":" horiz-adv-x="274" 
d="M136 -6c-24.667 0 -44.167 6.33301 -58.5 19s-21.5 32 -21.5 58s7 45.167 21 57.5s33.667 18.5 59 18.5s45.333 -6.33301 60 -19s22 -31.667 22 -57c0 -26 -7.33301 -45.333 -22 -58s-34.667 -19 -60 -19zM136 394c-24.667 0 -44.167 6.33301 -58.5 19s-21.5 32 -21.5 58
s7 45.167 21 57.5s33.667 18.5 59 18.5s45.333 -6.33301 60 -19s22 -31.667 22 -57c0 -26 -7.33301 -45.333 -22 -58s-34.667 -19 -60 -19z" />
    <glyph glyph-name="semicolon" unicode=";" horiz-adv-x="291" 
d="M40 -145l44 289h141l-80 -299zM150 394c-24.667 0 -44.167 6.33301 -58.5 19s-21.5 32 -21.5 58s7 45.167 21 57.5s33.667 18.5 59 18.5s45.333 -6.33301 60 -19s22 -31.667 22 -57c0 -26 -7.33301 -45.333 -22 -58s-34.667 -19 -60 -19z" />
    <glyph glyph-name="less" unicode="&#x3c;" horiz-adv-x="535" 
d="M38 321v87l432 189v-100l-305 -133l304 -132v-99z" />
    <glyph glyph-name="equal" unicode="=" horiz-adv-x="535" 
d="M63 290h409v-93h-409v93zM63 507h409v-92h-409v92z" />
    <glyph glyph-name="greater" unicode="&#x3e;" horiz-adv-x="536" 
d="M67 232l304 132l-305 133v100l432 -189v-87l-431 -188v99z" />
    <glyph glyph-name="question" unicode="?" horiz-adv-x="469" 
d="M146 222l-9.99805 184.001c22 4.66699 43.5 10.5 64.5 17.5s39.667 15.667 56 26s29.333 22.666 39 36.999s14.5 31.5 14.5 51.5c0 19.333 -3.33301 35.5 -10 48.5s-15.834 23.5 -27.501 31.5s-25.167 13.667 -40.5 17s-31.666 5 -48.999 5
c-24.667 0 -49.667 -1.83301 -75 -5.5s-48.333 -8.16699 -69 -13.5l-8 104c28.667 7.33301 57.334 13 86.001 17s58.667 6 90 6c33.333 0 64.166 -3.83301 92.499 -11.5s52.666 -19.5 72.999 -35.5s36.333 -36.333 48 -61s17.5 -54 17.5 -88
c0 -31.333 -5.33301 -58.666 -16 -81.999s-24.834 -43.333 -42.501 -60s-38.167 -30.334 -61.5 -41.001s-48 -18.667 -74 -24l-5 -123v-16h-93v16zM196.002 -4.99902c-23.333 0 -41.333 6 -54 18s-19 29 -19 51c0 22.667 6.33301 40 19 52s30.667 18 54 18
c22.667 0 40.5 -6 53.5 -18s19.5 -29.333 19.5 -52c0 -22 -6.5 -39 -19.5 -51s-30.833 -18 -53.5 -18z" />
    <glyph glyph-name="at" unicode="@" horiz-adv-x="888" 
d="M431 -133c-57.333 0 -109.67 8.33496 -157.003 25.002s-88.166 41.5 -122.499 74.5s-61 74 -80 123s-28.5 105.833 -28.5 170.5s9.83301 122.5 29.5 173.5s47.5 94.333 83.5 130s79.5 62.834 130.5 81.501s108.167 28 171.5 28c62 0 116.667 -8.33301 164 -25
s86.833 -40.834 118.5 -72.501s55.667 -70.334 72 -116.001s24.5 -97.167 24.5 -154.5c0 -80.667 -16.333 -143 -49 -187s-80.334 -66 -143.001 -66c-18.667 0 -34.834 2.66699 -48.501 8s-25 12.333 -34 21s-15.833 18 -20.5 28s-7.33398 20 -8.00098 30h-5
c-8.66699 -13.333 -19.167 -25 -31.5 -35s-25.666 -18.5 -39.999 -25.5s-29.333 -12.333 -45 -16s-31.167 -5.5 -46.5 -5.5c-44 0 -78 15.667 -102 47s-36 74.333 -36 129c0 37.333 5.83301 71.833 17.5 103.5s28.334 59 50.001 82s47.834 41 78.501 54s65 19.5 103 19.5
c23.333 0 48.333 -3.16699 75 -9.5s54 -15.166 82 -26.499l-39 -208l-5.5 -31.5c-1.66699 -9.66699 -2.5 -18.5 -2.5 -26.5c0 -20 4.66699 -35.5 14 -46.5s25.333 -16.5 48 -16.5c32.667 0 57.834 15.5 75.501 46.5s26.5 74.833 26.5 131.5
c0 91.333 -24.5 161.666 -73.5 210.999s-122.167 74 -219.5 74c-50 0 -95.333 -7.33301 -136 -22s-75.167 -36.167 -103.5 -64.5s-50.166 -63 -65.499 -104s-23 -87.5 -23 -139.5c0 -51.333 7.33301 -96.5 22 -135.5s35.167 -71.5 61.5 -97.5s58 -45.5 95 -58.5
s77.833 -19.5 122.5 -19.5c56.667 0 123.667 11.667 201 35l25 -78c-42 -12.667 -82.167 -22.334 -120.5 -29.001s-73.5 -10 -105.5 -10zM384.996 131.002c14.667 0 29.332 3 43.999 9s28 14.5 40 25.5s22.333 24.667 31 41s15 34.833 19 55.5l26 147
c-25.333 7.33301 -47.666 11 -66.999 11c-24 0 -46 -4.66699 -66 -14s-37.333 -22.333 -52 -39s-26 -36.5 -34 -59.5s-12 -47.833 -12 -74.5c0 -32 5.83301 -57 17.5 -75s29.5 -27 53.5 -27z" />
    <glyph glyph-name="A" unicode="A" horiz-adv-x="719" 
d="M2 8l252 732h211l252 -732v-8h-138l-67 193h-306l-66 -193h-138v8zM478 305l-67 196l-46 139h-12l-45 -139l-68 -196h238z" />
    <glyph glyph-name="B" unicode="B" horiz-adv-x="696" 
d="M350 -10c-85.333 0 -176.001 4.99902 -272.001 14.999v730c50 5.33301 95 9.16602 135 11.499s79 3.5 117 3.5c106.667 0 183.834 -16.333 231.501 -49s71.5 -85 71.5 -157c0 -42.667 -10.833 -78.167 -32.5 -106.5s-53.167 -47.166 -94.5 -56.499v-4
c49.333 -9.33301 86.833 -29.166 112.5 -59.499s38.5 -69.833 38.5 -118.5c0 -70.667 -25.167 -123.167 -75.5 -157.5s-127.5 -51.5 -231.5 -51.5zM347.999 92.999c57.333 0 99.667 9.50098 127 28.501s41 48.833 41 89.5c0 40 -12.667 69.333 -38 88s-66.333 28 -123 28
h-142v-228c13.333 -2.66699 29.833 -4.33398 49.5 -5.00098s48.167 -1 85.5 -1zM346 422c53.333 0 90.998 8.5 112.998 25.5s33 46.167 33 87.5c0 40.667 -11.833 69.5 -35.5 86.5s-63.167 25.5 -118.5 25.5c-25.333 0 -48.166 -0.5 -68.499 -1.5
s-39.166 -2.83301 -56.499 -5.5v-218h133z" />
    <glyph glyph-name="C" unicode="C" horiz-adv-x="599" 
d="M401 -11c-120.667 0 -210.335 31.168 -269.002 93.501s-88 157.833 -88 286.5s29 224.5 87 287.5s145.667 94.5 263 94.5c22.667 0 48.167 -1.33301 76.5 -4s59.5 -6.66699 93.5 -12v-115c-18.667 2.66699 -35.334 4.83398 -50.001 6.50098s-28 3 -40 4
s-23.167 1.83301 -33.5 2.5s-20.5 1 -30.5 1c-40 0 -74.167 -4.66699 -102.5 -14s-51.166 -24.5 -68.499 -45.5s-30 -48.333 -38 -82s-12 -74.834 -12 -123.501c0 -48 4 -88.667 12 -122s20.5 -60.5 37.5 -81.5s39.167 -36.167 66.5 -45.5s60.666 -14 99.999 -14
c10.667 0 23.334 0.5 38.001 1.5s29.334 2.16699 44.001 3.5s28.834 3.16602 42.501 5.49902s25.167 4.5 34.5 6.5v-114c-23.333 -6 -50 -10.833 -80 -14.5s-57.667 -5.5 -83 -5.5z" />
    <glyph glyph-name="D" unicode="D" horiz-adv-x="757" 
d="M284 -11c-39.333 0 -77.6699 1.16699 -115.003 3.5s-67.666 5.83301 -90.999 10.5v735c46 3.33301 89.5 6 130.5 8s75.833 3 104.5 3c69.333 0 129.333 -7.5 180 -22.5s92.334 -38 125.001 -69s56.834 -70.333 72.501 -118s23.5 -104.5 23.5 -170.5
c0 -67.333 -8.16699 -124.833 -24.5 -172.5s-41.833 -87 -76.5 -118s-79.167 -53.667 -133.5 -68s-119.5 -21.5 -195.5 -21.5zM334.996 103c42 0 77.668 4.83301 107.001 14.5s53.5 25.167 72.5 46.5s32.833 49 41.5 83s13 75 13 123s-4.33301 88.667 -13 122
s-22.5 60.666 -41.5 81.999s-43.5 36.833 -73.5 46.5s-66.333 14.5 -109 14.5c-15.333 0 -32.833 -0.666992 -52.5 -2s-39.834 -3 -60.501 -5v-516c21.333 -3.33301 41 -5.66602 59 -6.99902s37 -2 57 -2z" />
    <glyph glyph-name="E" unicode="E" horiz-adv-x="643" 
d="M78 740h513v-112h-371v-199h340v-112h-340v-205h380v-112h-522v740z" />
    <glyph glyph-name="F" unicode="F" horiz-adv-x="617" 
d="M78 740h509v-112h-367v-214h332v-112h-332v-302h-142v740z" />
    <glyph glyph-name="G" unicode="G" horiz-adv-x="687" 
d="M406 -11c-122.667 0 -213.832 31.332 -273.499 93.999s-89.5 158 -89.5 286c0 254.667 125.667 382 377 382c32 0 66.167 -2 102.5 -6s69.833 -10 100.5 -18v-115c-42 8 -78.167 13.667 -108.5 17s-58.166 5 -83.499 5c-44.667 0 -82.334 -4.83301 -113.001 -14.5
s-55.5 -25 -74.5 -46s-32.833 -48.333 -41.5 -82s-13 -74.5 -13 -122.5c0 -47.333 4 -87.666 12 -120.999s20.667 -60.5 38 -81.5s40.166 -36.333 68.499 -46s62.5 -14.5 102.5 -14.5c12 0 26 0.5 42 1.5s32 2.5 48 4.5v264h131v-353
c-37.333 -10 -76.5 -18.167 -117.5 -24.5s-76.833 -9.5 -107.5 -9.5z" />
    <glyph glyph-name="H" unicode="H" horiz-adv-x="798" 
d="M78 740h142v-305h358v305h141v-740h-141v323h-358v-323h-142v740z" />
    <glyph glyph-name="I" unicode="I" horiz-adv-x="298" 
d="M78 740h142v-740h-142v740z" />
    <glyph glyph-name="J" unicode="J" horiz-adv-x="297" 
d="M3 -159c14.667 32.667 27 63 37 91s18 55.5 24 82.5s10.167 54.833 12.5 83.5s3.5 60 3.5 94v548h142v-558c0 -34 -2.16699 -66 -6.5 -96s-11.5 -60 -21.5 -90s-23 -60.833 -39 -92.5s-36 -66.167 -60 -103.5z" />
    <glyph glyph-name="K" unicode="K" horiz-adv-x="707" 
d="M78 740h142v-309h119l193 309h159l-214 -327l-42 -26v-7l45 -26l228 -354h-158l-201 319h-129v-319h-142v740z" />
    <glyph glyph-name="L" unicode="L" horiz-adv-x="558" 
d="M78 740h142v-629h324v-111h-466v740z" />
    <glyph glyph-name="M" unicode="M" horiz-adv-x="972" 
d="M78 740h194l158 -394l52 -155h7l53 155l158 394h194v-740h-127v576h-8l-74 -205l-140 -341h-119l-140 341l-74 205h-7v-576h-127v740z" />
    <glyph glyph-name="N" unicode="N" horiz-adv-x="801" 
d="M78 740h116l337 -443l59 -86h8v529h125v-740h-116l-334 438l-62 90h-8v-528h-125v740z" />
    <glyph glyph-name="O" unicode="O" horiz-adv-x="776" 
d="M388 -10c-112 0 -197.5 31.832 -256.5 95.499s-88.5 158.167 -88.5 283.5c0 126 29.5 221 88.5 285s144.5 96 256.5 96s197.5 -32.167 256.5 -96.5s88.5 -159.166 88.5 -284.499c0 -124.667 -29.5 -219 -88.5 -283s-144.5 -96 -256.5 -96zM388 104.999
c35.333 0 65.668 4.83301 91.001 14.5s46 25.167 62 46.5s27.833 48.666 35.5 81.999s11.5 73.666 11.5 120.999c0 94 -16 161.833 -48 203.5s-82.667 62.5 -152 62.5c-35.333 0 -65.5 -5 -90.5 -15s-45.667 -25.667 -62 -47s-28.333 -48.833 -36 -82.5
s-11.5 -74.167 -11.5 -121.5s3.83301 -87.666 11.5 -120.999s19.5 -60.666 35.5 -81.999s36.667 -36.833 62 -46.5s55.666 -14.5 90.999 -14.5z" />
    <glyph glyph-name="P" unicode="P" horiz-adv-x="679" 
d="M78 735c74 10 143.332 15.001 207.999 15.001c64 0 119 -5 165 -15s84 -25.833 114 -47.5s52 -49.167 66 -82.5s21 -73 21 -119c0 -90.667 -29.167 -157.334 -87.5 -200.001s-149.166 -64 -272.499 -64h-34.5c-11.667 0 -24.167 0.666992 -37.5 2v-224h-142v735z
M313.999 334.001c36 0 66.3301 2.66699 90.9971 8s44.667 14 60 26s26.333 27.667 33 47s10 43 10 71c0 27.333 -3.33301 50.666 -10 69.999s-17.5 35 -32.5 47s-34.833 20.833 -59.5 26.5s-54.667 8.5 -90 8.5c-15.333 0 -32.166 -0.666992 -50.499 -2
s-33.5 -2.66602 -45.5 -3.99902v-291c10.667 -2 24.834 -3.66699 42.501 -5s34.834 -2 51.501 -2z" />
    <glyph glyph-name="Q" unicode="Q" horiz-adv-x="774" 
d="M688 -144c-124 26.667 -227.497 54.666 -310.497 83.999s-149.5 63.5 -199.5 102.5s-85.333 84.833 -106 137.5s-31 115.667 -31 189c0 122.667 29.833 216.834 89.5 282.501s145.167 98.5 256.5 98.5s196.666 -32.833 255.999 -98.5s89 -159.834 89 -282.501
c0 -110.667 -25.833 -195.167 -77.5 -253.5s-126.5 -87.5 -224.5 -87.5v-10c35.333 -7.33301 65.666 -13.333 90.999 -18s48.666 -8.66699 69.999 -12s42 -6.16602 62 -8.49902s42 -4.5 66 -6.5zM387.003 104.999c69.333 0 120.166 21 152.499 63s48.5 109 48.5 201
c0 92.667 -16.167 160.334 -48.5 203.001s-83.166 64 -152.499 64c-70 0 -121.167 -21.333 -153.5 -64s-48.5 -110.334 -48.5 -203.001c0 -92 16 -159 48 -201s83.333 -63 154 -63z" />
    <glyph glyph-name="R" unicode="R" horiz-adv-x="698" 
d="M373 257c-24 -2 -50 -3.00098 -78 -3.00098c-8.66699 0 -20.667 0.333008 -36 1s-28.333 1.66699 -39 3v-258h-142v735c72 10 141.333 15 208 15c64 0 119 -4.83301 165 -14.5s84 -24.5 114 -44.5s52 -45.667 66 -77s21 -68.666 21 -111.999
c0 -110 -51 -183.333 -153 -220l182 -282h-158zM314 364.999c36 0 66.332 2.33301 90.999 7s44.667 12.5 60 23.5s26.333 25.167 33 42.5s10 38.666 10 63.999c0 24.667 -3.33301 45.667 -10 63s-17.667 31.333 -33 42s-35.166 18.5 -59.499 23.5s-54.166 7.5 -89.499 7.5
c-14.667 0 -31.167 -0.666992 -49.5 -2s-33.833 -2.66602 -46.5 -3.99902v-259c9.33301 -2.66699 22.166 -4.66699 38.499 -6s34.833 -2 55.5 -2z" />
    <glyph glyph-name="S" unicode="S" horiz-adv-x="615" 
d="M296 -12c-18 0 -37.665 0.834961 -58.998 2.50195s-43.166 3.83398 -65.499 6.50098s-44.666 6 -66.999 10s-43.833 8.33301 -64.5 13v116c45.333 -10.667 89 -19 131 -25s79.667 -9 113 -9c101.333 0 152 31.667 152 95c0 18 -3.5 33 -10.5 45s-16.833 22.333 -29.5 31
s-28.334 16 -47.001 22s-39.334 11.667 -62.001 17c-40.667 9.33301 -75.834 20.166 -105.501 32.499s-54.334 27.5 -74.001 45.5s-34.167 39.167 -43.5 63.5s-14 53.166 -14 86.499c0 32.667 6.5 62.167 19.5 88.5s31.5 48.666 55.5 66.999s53.167 32.5 87.5 42.5
s73.166 15 116.499 15c30.667 0 62.5 -2 95.5 -6s72.833 -11 119.5 -21v-115c-32.667 9.33301 -67 16.5 -103 21.5s-68.667 7.5 -98 7.5c-46 0 -81.833 -8.5 -107.5 -25.5s-38.5 -40.833 -38.5 -71.5c0 -15.333 2.83301 -29 8.5 -41s14.5 -22.5 26.5 -31.5
s27.667 -17.167 47 -24.5s43 -14.333 71 -21c36.667 -8.66699 69.334 -18.667 98.001 -30s53 -25.333 73 -42s35.333 -36.834 46 -60.501s16 -52.167 16 -85.5c0 -71.333 -24.333 -125.666 -73 -162.999s-120 -56 -214 -56z" />
    <glyph glyph-name="T" unicode="T" horiz-adv-x="626" 
d="M242 627h-224v113h590v-113h-224v-627h-142v627z" />
    <glyph glyph-name="U" unicode="U" horiz-adv-x="784" 
d="M392 -10c-58.667 0 -108.33 6.16602 -148.997 18.499s-73.834 31.333 -99.501 57s-44.167 58.167 -55.5 97.5s-17 86 -17 140v438h141v-440c0 -68 14.667 -117.5 44 -148.5s74.666 -46.5 135.999 -46.5s106.5 15.333 135.5 46s43.5 80.334 43.5 149.001v440h142v-438
c0 -54 -5.83301 -100.667 -17.5 -140s-30.167 -71.833 -55.5 -97.5s-58.333 -44.667 -99 -57s-90.334 -18.5 -149.001 -18.5z" />
    <glyph glyph-name="V" unicode="V" horiz-adv-x="714" 
d="M3 740h149l158 -457l43 -149h10l44 149l158 457h147l-260 -740h-189z" />
    <glyph glyph-name="W" unicode="W" horiz-adv-x="1061" 
d="M14 740h151l106 -463l26 -134h10l31 134l122 463h143l121 -463l30 -134h10l27 134l107 463h151l-192 -740h-187l-109 408l-26 154h-8l-26 -155l-110 -407h-187z" />
    <glyph glyph-name="X" unicode="X" horiz-adv-x="709" 
d="M264 384l-252 356h161l157 -231l21 -39h8l21 39l158 231h159l-257 -361l276 -379h-161l-178 259l-19 34h-8l-18 -34l-177 -259h-160z" />
    <glyph glyph-name="Y" unicode="Y" horiz-adv-x="684" 
d="M272 241l-275 499h154l156 -298l30 -72h9l31 72l156 298h153l-272 -495v-245h-142v241z" />
    <glyph glyph-name="Z" unicode="Z" horiz-adv-x="626" 
d="M32 105l376 514v7h-362v114h534v-102l-376 -517v-7h391v-114h-563v105z" />
    <glyph glyph-name="bracketleft" unicode="[" horiz-adv-x="351" 
d="M81 868h242v-93h-133v-842h133v-93h-242v1028z" />
    <glyph glyph-name="backslash" unicode="\" horiz-adv-x="420" 
d="M27 740h120l245 -860h-119z" />
    <glyph glyph-name="bracketright" unicode="]" horiz-adv-x="351" 
d="M28 -160v93h133v842h-133v93h242v-1028h-242z" />
    <glyph glyph-name="asciicircum" unicode="^" horiz-adv-x="511" 
d="M194 789h123l156 -308h-100l-116 219h-4l-115 -219h-100z" />
    <glyph glyph-name="underscore" unicode="_" horiz-adv-x="625" 
d="M47 -58h531v-105h-531v105z" />
    <glyph glyph-name="grave" unicode="`" horiz-adv-x="285" 
d="M135 612l-111 195h146l67 -185z" />
    <glyph glyph-name="a" unicode="a" horiz-adv-x="567" 
d="M186 -5c-50 0 -87.833 13 -113.5 39s-38.5 63 -38.5 111c0 53.333 16.5 93.833 49.5 121.5s84.833 44.167 155.5 49.5l127 9v18c0 20 -1.66699 36.5 -5 49.5s-9.5 23.5 -18.5 31.5s-21.333 13.667 -37 17s-35.834 5 -60.501 5c-23.333 0 -49.666 -1.5 -78.999 -4.5
s-59 -7.5 -89 -13.5l-9 99c74.667 13.333 141.667 20 201 20c80.667 0 140.167 -14.667 178.5 -44s57.5 -75 57.5 -137v-366h-114l-13 67h-8c-58 -48 -119.333 -72 -184 -72zM243 93c20 0 41 4.33203 63 12.999s42 19.334 60 32.001v111l-85 -8
c-40 -3.33301 -67.833 -11 -83.5 -23s-23.5 -31.333 -23.5 -58c0 -44.667 23 -67 69 -67z" />
    <glyph glyph-name="b" unicode="b" horiz-adv-x="638" 
d="M309 -11c-16 0 -32.332 0.333984 -48.999 1.00098s-34.834 2 -54.501 4s-41 4.83301 -64 8.5s-48.5 8.5 -76.5 14.5v791h139v-326c38.667 44.667 94.667 67 168 67c74 0 130.167 -22 168.5 -66s57.5 -111.667 57.5 -203c0 -94 -25.5 -165.833 -76.5 -215.5
s-121.833 -74.834 -212.5 -75.501zM307.001 86.001c26.667 0 49.667 3.00098 69 9.00098s35 16.167 47 30.5s20.833 33.166 26.5 56.499s8.5 52.333 8.5 87c0 32.667 -2.33301 60 -7 82s-12 39.833 -22 53.5s-23 23.5 -39 29.5s-35.333 9 -58 9
c-37.333 0 -68 -9.16699 -92 -27.5s-36 -46.166 -36 -83.499v-237c13.333 -2.66699 28.833 -4.83398 46.5 -6.50098s36.5 -2.5 56.5 -2.5z" />
    <glyph glyph-name="c" unicode="c" horiz-adv-x="502" 
d="M310 -9c-180 0 -270 92.999 -270 278.999s90 279 270 279c25.333 0 51.5 -1.33301 78.5 -4s51.167 -6.66699 72.5 -12v-111c-24 4 -47.667 7.16699 -71 9.5s-45.666 3.5 -66.999 3.5c-50.667 0 -87.334 -13 -110.001 -39s-34 -67.667 -34 -125c0 -58.667 11 -101 33 -127
s58.667 -39 110 -39c27.333 0 51.5 0.833008 72.5 2.5s43.167 4.83398 66.5 9.50098v-110c-19.333 -5.33301 -42.5 -9.33301 -69.5 -12s-54.167 -4 -81.5 -4z" />
    <glyph glyph-name="d" unicode="d" horiz-adv-x="639" 
d="M267 -10c-74.667 0 -131.166 22 -169.499 66s-57.5 112.333 -57.5 205c0 48 6.66699 90.167 20 126.5s32.5 66.5 57.5 90.5s55.333 42 91 54s75.5 18 119.5 18c19.333 0 37.666 -0.833008 54.999 -2.5s34 -3.16699 50 -4.5v265h139v-808h-122l-11 66h-7
c-36 -50.667 -91 -76 -165 -76zM306.001 94c37.333 0 67.832 9.66797 91.499 29.001s35.5 48.666 35.5 87.999v230c-15.333 2.66699 -32 5 -50 7s-37.667 3 -59 3c-25.333 0 -47.166 -3 -65.499 -9s-33.333 -16.167 -45 -30.5s-20.167 -33 -25.5 -56s-8 -51.5 -8 -85.5
c0 -32.667 2.33301 -60.167 7 -82.5s12 -40.5 22 -54.5s23 -24 39 -30s35.333 -9 58 -9z" />
    <glyph glyph-name="e" unicode="e" horiz-adv-x="574" 
d="M310 -9c-179.333 0 -269 91.333 -269 274c0 93.333 22.5 164 67.5 212s111.167 72 198.5 72c151.333 0 227 -80.333 227 -241c0 -16 -0.5 -30.333 -1.5 -43s-3.16699 -24.667 -6.5 -36h-348c2 -24.667 6.16699 -45.334 12.5 -62.001s15.333 -30.167 27 -40.5
s26.167 -17.666 43.5 -21.999s38.333 -6.5 63 -6.5c28 0 58.833 2.16699 92.5 6.5s64.5 10.5 92.5 18.5l5 -101c-30 -9.33301 -63 -16.833 -99 -22.5s-71 -8.5 -105 -8.5zM302 450c-39.333 0 -69 -11.1689 -89 -33.502s-31.667 -58.166 -35 -107.499h233
c-1.33301 50.667 -10.5 86.834 -27.5 108.501s-44.167 32.5 -81.5 32.5z" />
    <glyph glyph-name="f" unicode="f" horiz-adv-x="428" 
d="M132 423h-116.002v117h117v25c0 46.667 4.83301 85.834 14.5 117.501s26 57 49 76s53.5 32.667 91.5 41s85.333 13.166 142 14.499l7 -101c-32.667 -1.33301 -59.667 -4.33301 -81 -9s-38.166 -11.834 -50.499 -21.501s-21.166 -22.667 -26.499 -39
s-8 -37.166 -8 -62.499v-41h143v-117h-143v-423h-139v423z" />
    <glyph glyph-name="g" unicode="g" horiz-adv-x="638" 
d="M282 -220c-36 0 -72.3301 1.99805 -108.997 5.99805s-68.334 9.66699 -95.001 17l9 102c24 -5.33301 51 -10.166 81 -14.499s60 -6.5 90 -6.5c26.667 0 51.167 2.5 73.5 7.5s41.666 13.667 57.999 26s29.166 28.833 38.499 49.5s14 46.334 14 77.001v45h-7
c-18 -27.333 -41 -47.333 -69 -60s-60.667 -19 -98 -19c-74.667 0 -131.334 20.833 -170.001 62.5s-58 106.5 -58 194.5c0 47.333 6.83301 88.666 20.5 123.999s33 64.833 58 88.5s55.333 41.334 91 53.001s75.5 17.5 119.5 17.5c16 0 32.333 -0.5 49 -1.5s34.667 -3 54 -6
s40.666 -7 63.999 -12s49 -11.5 77 -19.5v-450c0 -53.333 -7.83301 -98 -23.5 -134s-36.667 -64.833 -63 -86.5s-57.166 -37.167 -92.499 -46.5s-72.666 -14 -111.999 -14zM307.003 110.998c38 0 68.665 9.83203 91.998 29.499s35 49.167 35 88.5v212
c-15.333 2.66699 -32.166 5 -50.499 7s-37.833 3 -58.5 3c-25.333 0 -47.166 -3 -65.499 -9s-33.333 -15.667 -45 -29s-20.167 -31.166 -25.5 -53.499s-8 -49.833 -8 -82.5c0 -60.667 9.5 -103.5 28.5 -128.5s51.5 -37.5 97.5 -37.5z" />
    <glyph glyph-name="h" unicode="h" horiz-adv-x="639" 
d="M66 808l139 0.000976562v-327c48 23.333 89.5 40.666 124.5 51.999s67.5 17 97.5 17c47.333 0 84 -12.667 110 -38s39 -62.333 39 -111v-401h-139v354c0 30 -5.83301 51.667 -17.5 65s-29.5 20 -53.5 20c-20 0 -44 -4 -72 -12s-57.667 -19 -89 -33v-394h-139v808z" />
    <glyph glyph-name="i" unicode="i" horiz-adv-x="273" 
d="M136 630c-28 0 -48 6 -60 18s-18 31.333 -18 58s6 46.167 18 58.5s32 18.5 60 18.5s48.333 -6.33301 61 -19s19 -32 19 -58c0 -25.333 -6.16699 -44.333 -18.5 -57s-32.833 -19 -61.5 -19zM67 540h139v-540h-139v540z" />
    <glyph glyph-name="j" unicode="j" horiz-adv-x="271" 
d="M134 630c-28 0 -48.167 6 -60.5 18s-18.5 31.333 -18.5 58s6.16699 46.167 18.5 58.5s32.5 18.5 60.5 18.5s48.167 -6.33301 60.5 -19s18.5 -32 18.5 -58c0 -25.333 -6.16699 -44.333 -18.5 -57s-32.5 -19 -60.5 -19zM13 -198c10 25.333 18.3311 50.3291 24.998 74.9961
s12.334 50.334 17.001 77.001s8 55.5 10 86.5s3 65.5 3 103.5v33.5v63.5v80c0 28.667 -0.166992 56.834 -0.5 84.501s-0.666016 53.334 -0.999023 77.001s-0.5 42.834 -0.5 57.501h139v-461c-3.33301 -54 -12.833 -106.333 -28.5 -157s-36.5 -98 -62.5 -142z" />
    <glyph glyph-name="k" unicode="k" horiz-adv-x="592" 
d="M66 808h139v-485h72l151 217h154l-188 -253l-22 -7v-4l23 -8l204 -268h-154l-170 233h-70v-233h-139v808z" />
    <glyph glyph-name="l" unicode="l" horiz-adv-x="274" 
d="M68 808h139v-808h-139v808z" />
    <glyph glyph-name="m" unicode="m" horiz-adv-x="940" 
d="M67 540l115 0.000976562l8 -62h6c40 24 75.5 42 106.5 54s61.167 18 90.5 18c65.333 0 109.666 -24.333 132.999 -73h4c40 24.667 75.833 43 107.5 55s61.834 18 90.501 18c47.333 0 84 -12.667 110 -38s39 -62.333 39 -111v-401h-138v352c0 30 -5.83301 51.5 -17.5 64.5
s-29.834 19.5 -54.501 19.5c-16 0 -35.167 -3.5 -57.5 -10.5s-45.166 -17.167 -68.499 -30.5v-395h-138v352c0 30 -5.66699 51.5 -17 64.5s-29.666 19.5 -54.999 19.5c-16 0 -35.333 -3.83301 -58 -11.5s-45.334 -17.834 -68.001 -30.501v-394h-138v540z" />
    <glyph glyph-name="n" unicode="n" horiz-adv-x="639" 
d="M67 540h116l8 -62h6c51.333 25.333 95 43.666 131 54.999s69.333 17 100 17c46.667 0 83 -12.667 109 -38s39 -62.333 39 -111v-401h-139v354c0 30.667 -5.66699 52.5 -17 65.5s-29.333 19.5 -54 19.5c-21.333 0 -45.833 -4.16699 -73.5 -12.5
s-56.5 -19.166 -86.5 -32.499v-394h-139v540z" />
    <glyph glyph-name="o" unicode="o" horiz-adv-x="628" 
d="M314 -10c-89.333 0 -157.5 23.833 -204.5 71.5s-70.5 117.167 -70.5 208.5s23.5 160.833 70.5 208.5s115.167 71.5 204.5 71.5s157.5 -23.833 204.5 -71.5s70.5 -117.167 70.5 -208.5s-23.5 -160.833 -70.5 -208.5s-115.167 -71.5 -204.5 -71.5zM314 97
c48 0 82.5 13.167 103.5 39.5s31.5 70.833 31.5 133.5s-10.5 107 -31.5 133s-55.5 39 -103.5 39s-82.5 -13 -103.5 -39s-31.5 -70.333 -31.5 -133s10.5 -107.167 31.5 -133.5s55.5 -39.5 103.5 -39.5z" />
    <glyph glyph-name="p" unicode="p" horiz-adv-x="640" 
d="M67 540l121.002 -0.000976562l11 -65h7c36 50 91.667 75 167 75c74.667 0 131 -22.167 169 -66.5s57 -112.166 57 -203.499c0 -47.333 -6.66699 -89 -20 -125s-32.333 -66.333 -57 -91s-54.834 -43.167 -90.501 -55.5s-75.834 -18.5 -120.501 -18.5
c-19.333 0 -37.833 0.666992 -55.5 2s-34.167 3 -49.5 5v-217h-139v760zM314.002 88.999c26 0 48.166 3 66.499 9s33.333 16 45 30s20.167 32.667 25.5 56s8 52 8 86c0 32.667 -2.33301 60.167 -7 82.5s-12 40.5 -22 54.5s-23 24 -39 30s-35.333 9 -58 9
c-38 0 -68.667 -9.83301 -92 -29.5s-35 -49.5 -35 -89.5v-228c14 -3.33301 30.333 -5.83301 49 -7.5s38.334 -2.5 59.001 -2.5z" />
    <glyph glyph-name="q" unicode="q" horiz-adv-x="638" 
d="M439 67c-20.667 -26 -45.5 -45.333 -74.5 -58s-61.5 -19 -97.5 -19c-151.333 0 -227 90.333 -227 271c0 95.333 25.5 167.333 76.5 216s122.167 73 213.5 73c44 0 87.667 -2.5 131 -7.5s80.333 -10.167 111 -15.5v-747h-133v287zM306 94c40 0 71.167 10.334 93.5 31.001
s33.5 50.667 33.5 90v226c-35.333 6.66699 -71.333 10 -108 10c-26.667 0 -49.167 -3.16699 -67.5 -9.5s-33.333 -16.5 -45 -30.5s-20 -32.5 -25 -55.5s-7.5 -50.833 -7.5 -83.5s2.16699 -60.334 6.5 -83.001s11.5 -41 21.5 -55s23 -24.167 39 -30.5s35.667 -9.5 59 -9.5z
" />
    <glyph glyph-name="r" unicode="r" horiz-adv-x="430" 
d="M67 540h115.999l8 -78h4c30.667 20.667 61.334 39 92.001 55s60 26.667 88 32h44v-120h-49c-28.667 -3.33301 -57.5 -10 -86.5 -20s-54.833 -21.667 -77.5 -35v-374h-139v540z" />
    <glyph glyph-name="s" unicode="s" horiz-adv-x="511" 
d="M245 -11c-28 0 -58.999 2.00195 -92.999 6.00195s-70.667 10 -110 18v100c36.667 -8 71.167 -14.333 103.5 -19s63.5 -7 93.5 -7c68 0 102 20.667 102 62c0 22.667 -8.5 38.667 -25.5 48s-41.5 16.666 -73.5 21.999c-21.333 3.33301 -43.5 7.33301 -66.5 12
s-44 12.5 -63 23.5s-34.667 26.833 -47 47.5s-18.5 48.667 -18.5 84c0 52 19.5 92.667 58.5 122s93.167 44 162.5 44c12.667 0 25.5 -0.333008 38.5 -1s26.667 -1.83398 41 -3.50098s30.166 -3.66699 47.499 -6s36.666 -5.5 57.999 -9.5l-4 -106c-36 8 -67.667 14 -95 18
s-51.666 6 -72.999 6c-67.333 0 -101 -20.333 -101 -61c0 -23.333 10 -39.166 30 -47.499s48.667 -15.5 86 -21.5c26 -4 50 -9.5 72 -16.5s41 -16.833 57 -29.5s28.333 -28.334 37 -47.001s13 -41.667 13 -69c0 -54 -19.667 -95.667 -59 -125s-96.333 -44 -171 -44z" />
    <glyph glyph-name="t" unicode="t" horiz-adv-x="430" 
d="M295 -11c-58.667 0 -102.667 14 -132 42s-44 69 -44 123v268h-102v118h110l21 148l108 13v-161h147v-118h-146v-236c0 -32 6.5 -55 19.5 -69s34.167 -21 63.5 -21c20 0 42 4 66 12v-105c-15.333 -4 -32.833 -7.33301 -52.5 -10s-39.167 -4 -58.5 -4z" />
    <glyph glyph-name="u" unicode="u" horiz-adv-x="639" 
d="M211 -10c-48.667 0 -85.499 12.833 -110.499 38.5s-37.5 62.5 -37.5 110.5v401h139v-358c0 -30 5.16699 -51.333 15.5 -64s28.166 -19 53.499 -19c24.667 0 51.167 5 79.5 15s56.166 21 83.499 33v393h139v-540h-117l-8 64h-4l-68.5 -34
c-19.667 -9.33301 -38 -17 -55 -23s-34.167 -10.333 -51.5 -13s-36.666 -4 -57.999 -4z" />
    <glyph glyph-name="v" unicode="v" horiz-adv-x="599" 
d="M13 525v15h148l107 -322l27 -107h11l27 107l110 322h145v-15l-203 -525h-172z" />
    <glyph glyph-name="w" unicode="w" horiz-adv-x="832" 
d="M17 535v5h136l78 -334l14 -74h9l14 74l87 334h121l89 -334l15 -74h9l14 74l76 334h135v-5l-144 -535h-154l-83 309l-13 68h-9l-12 -68l-81 -309h-153z" />
    <glyph glyph-name="x" unicode="x" horiz-adv-x="594" 
d="M8 15l194 265l-185 251v9h147l99 -140l31 -48h7l31 48l98 140h147v-9l-185 -255l194 -261v-15h-146l-107 150l-33 54h-8l-32 -54l-106 -150h-146v15z" />
    <glyph glyph-name="y" unicode="y" horiz-adv-x="604" 
d="M154 -200l-1 12l79 195l-223 518v15h149l112 -302l28 -92h8l28 92l116 302h145v-15l-311 -745z" />
    <glyph glyph-name="z" unicode="z" horiz-adv-x="534" 
d="M36 89l277 338v7h-268v106h444v-87l-271 -339v-8h281v-106h-463v89z" />
    <glyph glyph-name="braceleft" unicode="{" horiz-adv-x="354" 
d="M30 409c24 0 41.332 8.00098 51.999 24.001s16 39.667 16 71v240c0 45.333 8.5 77.333 25.5 96s45.5 28 85.5 28c6 0 14.667 -0.166992 26 -0.5s22.666 -0.833008 33.999 -1.5s21.833 -1.16699 31.5 -1.5s15.834 -0.833008 18.501 -1.5v-88h-62
c-16.667 0 -28.5 -3.33301 -35.5 -10s-10.5 -17.667 -10.5 -33v-257c0 -30.667 -7.16699 -57 -21.5 -79s-33.5 -35.667 -57.5 -41c24 -4 43.167 -17 57.5 -39s21.5 -48.333 21.5 -79v-259c0 -15.333 3.5 -26.5 10.5 -33.5s18.833 -10.5 35.5 -10.5h62v-88
c-2.66699 -0.666992 -8.66699 -1.33398 -18 -2.00098s-19.666 -1.16699 -30.999 -1.5l-34 -1c-11.333 -0.333008 -20 -0.5 -26 -0.5c-40 0 -68.667 9.33301 -86 28s-26 51 -26 97v242c0 31.333 -5.33301 55 -16 71s-28 24 -52 24v106z" />
    <glyph glyph-name="bar" unicode="|" horiz-adv-x="293" 
d="M212 808v-1028h-131v1028h131z" />
    <glyph glyph-name="braceright" unicode="}" horiz-adv-x="354" 
d="M324 303c-24 0 -41.334 -8.00098 -52.001 -24.001s-16 -39.667 -16 -71v-242c0 -46 -8.66699 -78.333 -26 -97s-46 -28 -86 -28c-6 0 -14.667 0.166992 -26 0.5l-34 1c-11.333 0.333008 -21.833 0.833008 -31.5 1.5s-15.834 1.33398 -18.501 2.00098v88h63
c17.333 0 29.5 3.5 36.5 10.5s10.5 18.167 10.5 33.5v259c0 30.667 7 57 21 79s33 35 57 39c-24 5.33301 -43 19 -57 41s-21 48.333 -21 79v257c0 15.333 -3.5 26.333 -10.5 33s-19.167 10 -36.5 10h-63v88c2.66699 0.666992 8.83398 1.16699 18.501 1.5
s20.334 0.833008 32.001 1.5s23.167 1.16699 34.5 1.5s20 0.5 26 0.5c40 0 68.5 -9.33301 85.5 -28s25.5 -50.667 25.5 -96v-240c0 -31.333 5.33301 -55 16 -71s28 -24 52 -24v-106z" />
    <glyph glyph-name="asciitilde" unicode="~" horiz-adv-x="673" 
d="M48 275c20 23.333 38.001 42.833 54.001 58.5s31 28 45 37s27.833 15.333 41.5 19s28.167 5.5 43.5 5.5c21.333 0 40.5 -4 57.5 -12s33.333 -16.667 49 -26s31 -18 46 -26s31.167 -12 48.5 -12c21.333 0 42.166 6.5 62.499 19.5s37.833 30.833 52.5 53.5l78 -46
c-10 -14.667 -21.167 -30 -33.5 -46s-26.166 -30.5 -41.499 -43.5s-31.833 -23.833 -49.5 -32.5s-36.5 -13 -56.5 -13c-22 0 -42 4 -60 12s-34.667 16.667 -50 26s-30.333 18 -45 26s-29.667 12 -45 12c-21.333 0 -41.333 -6 -60 -18s-39.334 -30.667 -62.001 -56z" />
    <glyph glyph-name="uni00A0" unicode="&#xa0;" horiz-adv-x="221" 
 />
    <glyph glyph-name="exclamdown" unicode="&#xa1;" horiz-adv-x="266" 
d="M134 543c23.333 0 41.333 -6 54 -18s19 -29 19 -51s-6.33301 -39.167 -19 -51.5s-30.667 -18.5 -54 -18.5s-41.166 6.16699 -53.499 18.5s-18.5 29.5 -18.5 51.5s6.16699 39 18.5 51s30.166 18 53.499 18zM90 320h85v-12l27 -498v-10h-138v10l26 498v12z" />
    <glyph glyph-name="cent" unicode="&#xa2;" horiz-adv-x="517" 
d="M266 -7c-150.667 14 -226 106.332 -226 276.999c0 170 75.333 262.333 226 277v113h89v-113c38.667 -2 74 -6.66699 106 -14v-111c-24 4 -47.667 7.16699 -71 9.5s-45.666 3.5 -66.999 3.5c-50.667 0 -87.334 -13 -110.001 -39s-34 -67.667 -34 -125
c0 -58.667 11 -101 33 -127s58.667 -39 110 -39c27.333 0 51.5 0.833008 72.5 2.5s43.167 4.83398 66.5 9.50098v-110c-14 -3.33301 -30.333 -6.33301 -49 -9s-37.667 -4.66699 -57 -6v-112h-89v113z" />
    <glyph glyph-name="sterling" unicode="&#xa3;" horiz-adv-x="680" 
d="M45 425h150.998v93c0 78 21 135.833 63 173.5s107.667 56.5 197 56.5c28.667 0 57 -2.16699 85 -6.5s59.667 -11.166 95 -20.499l-7 -113c-30 7.33301 -58.167 12.666 -84.5 15.999s-50.166 5 -71.499 5c-49.333 0 -84.166 -8.5 -104.499 -25.5s-30.5 -45.5 -30.5 -85.5
v-93h210v-108h-210v-196h284v-121h-577v122h151v195h-151v108z" />
    <glyph glyph-name="currency" unicode="&#xa4;" horiz-adv-x="629" 
d="M51 163l55 54l45 32c-30 32 -45 72.333 -45 121c0 48 15 88 45 120l-45 33l-55 54l56 56l55 -55l37 -52c32.667 17.333 71.334 26 116.001 26c44 0 82.333 -8.66699 115 -26l38 52l54 55l56 -56l-55 -54l-46 -33c30 -32 45 -72 45 -120s-15 -88 -45 -120l46 -33l55 -54
l-56 -56l-54 55l-38 51c-32.667 -17.333 -71 -26 -115 -26c-44.667 0 -83.334 8.66699 -116.001 26l-37 -51l-55 -55zM193 370c0 -35.333 11 -62.333 33 -81s51.667 -28 89 -28c36.667 0 65.834 9.16699 87.501 27.5s32.5 45.5 32.5 81.5
c0 35.333 -10.833 62.166 -32.5 80.499s-50.834 27.5 -87.501 27.5c-37.333 0 -67 -9.16699 -89 -27.5s-33 -45.166 -33 -80.499z" />
    <glyph glyph-name="yen" unicode="&#xa5;" horiz-adv-x="743" 
d="M99 334h153l-223 406h154l156 -298l30 -72h9l31 72l156 298h153l-223 -406h134v-87h-183v-79h183v-88h-183v-80h-142v80h-205v88h205v79h-205v87z" />
    <glyph glyph-name="brokenbar" unicode="&#xa6;" horiz-adv-x="293" 
d="M81 204h131v-424h-131v424zM81 808h131v-424h-131v424z" />
    <glyph glyph-name="section" unicode="&#xa7;" horiz-adv-x="538" 
d="M258 -11c-28 0 -58.998 1.99805 -92.998 5.99805s-71 10 -111 18v97c37.333 -8 72.166 -14.167 104.499 -18.5s63.166 -6.5 92.499 -6.5c68.667 0 103 21.333 103 64c0 22.667 -8.66699 38.834 -26 48.501s-42 17.167 -74 22.5
c-21.333 2.66699 -43.5 6.33398 -66.5 11.001s-44 12.5 -63 23.5s-34.667 26.833 -47 47.5s-18.5 48.667 -18.5 84c0 21.333 3.5 40.5 10.5 57.5s16.833 32.167 29.5 45.5c-12 11.333 -21.667 25.333 -29 42s-11 37.334 -11 62.001c0 52 19.667 92.833 59 122.5
s93.333 44.5 162 44.5c13.333 0 26.5 -0.333008 39.5 -1s26.667 -1.83398 41 -3.50098s30.166 -3.83398 47.499 -6.50098l58 -9l-4 -105c-72 16 -128 24 -168 24c-68 0 -102 -20.667 -102 -62c0 -23.333 10.167 -39.333 30.5 -48s48.833 -16 85.5 -22
c26 -4 50 -9.5 72 -16.5s41 -16.667 57 -29s28.333 -27.833 37 -46.5s13 -41.667 13 -69c0 -45.333 -13 -81.333 -39 -108c12.667 -11.333 22.334 -25.166 29.001 -41.499s10 -35.833 10 -58.5c0 -54 -19.5 -95.667 -58.5 -125s-95.833 -44 -170.5 -44zM338.002 296.998
c11.333 13.333 17.001 30.333 17.001 51c0 28 -7.33301 47.833 -22 59.5s-34.667 20.167 -60 25.5c-7.33301 2 -17.333 4.33301 -30 7s-22.334 5.66699 -29.001 9c-15.333 -14 -23 -31.667 -23 -53c0 -13.333 2.16699 -24.5 6.5 -33.5s10.5 -16.5 18.5 -22.5
s17.5 -11 28.5 -15s23.167 -7.66699 36.5 -11c7.33301 -2 17 -4.5 29 -7.5s21.333 -6.16699 28 -9.5z" />
    <glyph glyph-name="dieresis" unicode="&#xa8;" horiz-adv-x="517" 
d="M125 633c-24.667 0 -42.834 5.5 -54.501 16.5s-17.5 28.833 -17.5 53.5s5.83301 42.5 17.5 53.5s29.834 16.5 54.501 16.5c25.333 0 43.666 -5.83301 54.999 -17.5s17 -29.167 17 -52.5c0 -24.667 -5.66699 -42.5 -17 -53.5s-29.666 -16.5 -54.999 -16.5zM381 633
c-24.667 0 -42.834 5.5 -54.501 16.5s-17.5 28.833 -17.5 53.5s5.83301 42.5 17.5 53.5s29.834 16.5 54.501 16.5c25.333 0 43.666 -5.83301 54.999 -17.5s17 -29.167 17 -52.5c0 -24.667 -5.66699 -42.5 -17 -53.5s-29.666 -16.5 -54.999 -16.5z" />
    <glyph glyph-name="copyright" unicode="&#xa9;" horiz-adv-x="830" 
d="M430 163c-60 0 -106.001 17 -138.001 51s-48 85 -48 153c0 68.667 16 120.167 48 154.5s78 51.5 138 51.5c15.333 0 30.833 -0.833008 46.5 -2.5s29.834 -4.16699 42.501 -7.5v-73c-30 6 -56.333 9 -79 9c-38.667 0 -66.667 -10.667 -84 -32s-26 -54.333 -26 -99
c0 -45.333 8.83301 -78.333 26.5 -99s44.834 -31 81.501 -31c22.667 0 50 3 82 9v-73c-12.667 -3.33301 -26.834 -6 -42.501 -8s-31.5 -3 -47.5 -3zM414.999 -11c-56 0 -106.833 9.16699 -152.5 27.5s-84.667 44.333 -117 78s-57.333 73.834 -75 120.501
s-26.5 98.334 -26.5 155.001s8.83301 108.334 26.5 155.001s42.667 86.834 75 120.501s71.333 59.667 117 78s96.5 27.5 152.5 27.5s106.833 -9.16699 152.5 -27.5s84.667 -44.333 117 -78s57.333 -73.834 75 -120.501s26.5 -98.334 26.5 -155.001
s-8.83301 -108.334 -26.5 -155.001s-42.667 -86.834 -75 -120.501s-71.333 -59.667 -117 -78s-96.5 -27.5 -152.5 -27.5zM414.999 60c46 0 87.167 7.33301 123.5 22s67.333 35.5 93 62.5s45.334 59.667 59.001 98s20.5 80.833 20.5 127.5s-6.83301 89.167 -20.5 127.5
s-33.334 71 -59.001 98s-56.667 48 -93 63s-77.5 22.5 -123.5 22.5s-87.167 -7.5 -123.5 -22.5s-67.333 -36 -93 -63s-45.334 -59.667 -59.001 -98s-20.5 -80.833 -20.5 -127.5s6.83301 -89.167 20.5 -127.5s33.334 -71 59.001 -98s56.667 -47.833 93 -62.5
s77.5 -22 123.5 -22z" />
    <glyph glyph-name="ordfeminine" unicode="&#xaa;" horiz-adv-x="466" 
d="M162 348c-38 0 -68.168 10.501 -90.501 31.501s-33.5 48.833 -33.5 83.5c0 35.333 13.333 62.833 40 82.5s65.667 31.167 117 34.5l99 6v9c0 14.667 -1.16699 26.667 -3.5 36s-6.5 16.666 -12.5 21.999s-14.5 8.83301 -25.5 10.5s-24.833 2.5 -41.5 2.5
c-16 0 -35.167 -0.833008 -57.5 -2.5s-46.5 -4.16699 -72.5 -7.5l-7 75c56.667 10 107.667 15 153 15c64 0 109.833 -9.83301 137.5 -29.5s41.5 -51.167 41.5 -94.5v-270h-95l-6 47h-4c-22.667 -16 -45.667 -28.5 -69 -37.5s-46.666 -13.5 -69.999 -13.5zM203.999 427.001
c24.667 0 54.667 8.66602 90 25.999v69l-52 -3c-34.667 -2 -58.667 -6.66699 -72 -14s-20 -18.666 -20 -33.999c0 -29.333 18 -44 54 -44z" />
    <glyph glyph-name="guillemotleft" unicode="&#xab;" horiz-adv-x="681" 
d="M30 268v4l180 238h142l-180 -238v-4l180 -238h-142zM321 268v4l180 238h142l-180 -238v-4l180 -238h-142z" />
    <glyph glyph-name="logicalnot" unicode="&#xac;" horiz-adv-x="844" 
d="M54 436h721v-333h-135v219h-586v114z" />
    <glyph glyph-name="uni00AD" unicode="&#xad;" horiz-adv-x="495" 
d="M60 333h375v-106h-375v106z" />
    <glyph glyph-name="registered" unicode="&#xae;" horiz-adv-x="709" 
d="M245 614c34 4 65.668 5.99902 95.001 5.99902c49.333 0 85.666 -8.5 108.999 -25.5s35 -43.167 35 -78.5c0 -49.333 -21.333 -80.666 -64 -93.999l-1 -3l74 -128h-63l-65 115h-60v-115h-60v323zM342.001 453.999c28.667 0 49.333 4.83301 62 14.5s19 25.167 19 46.5
c0 19.333 -5.66699 33.833 -17 43.5s-31 14.5 -59 14.5h-20.5c-9 0 -16.167 -0.333008 -21.5 -1v-117c3.33301 -0.666992 9 -1 17 -1h20zM354 141.999c-45.333 0 -86.666 7.5 -123.999 22.5s-69.5 36 -96.5 63s-48 59.167 -63 96.5s-22.5 78.333 -22.5 123
s7.5 85.834 22.5 123.501s36 70 63 97s59.167 48 96.5 63s78.666 22.5 123.999 22.5s87 -7.5 125 -22.5s70.5 -36 97.5 -63s48 -59.333 63 -97s22.5 -78.834 22.5 -123.501s-7.5 -85.667 -22.5 -123s-36 -69.5 -63 -96.5s-59.5 -48 -97.5 -63s-79.667 -22.5 -125 -22.5z
M354 199.999c36.667 0 70.167 6 100.5 18s56.166 28.833 77.499 50.5s37.833 47.667 49.5 78s17.5 63.833 17.5 100.5s-5.83301 70.167 -17.5 100.5s-28.167 56.333 -49.5 78s-47.166 38.5 -77.499 50.5s-63.833 18 -100.5 18s-70 -6 -100 -18s-55.5 -28.833 -76.5 -50.5
s-37.333 -47.667 -49 -78s-17.5 -63.833 -17.5 -100.5s5.83301 -70.167 17.5 -100.5s28 -56.333 49 -78s46.5 -38.5 76.5 -50.5s63.333 -18 100 -18z" />
    <glyph glyph-name="macron" unicode="&#xaf;" horiz-adv-x="499" 
d="M57 737h369v-93h-369v93z" />
    <glyph glyph-name="degree" unicode="&#xb0;" horiz-adv-x="477" 
d="M239 374c-29.333 0 -56.333 4.66699 -81 14s-46 22.333 -64 39s-32.167 36.334 -42.5 59.001s-15.5 47.334 -15.5 74.001s5.16699 51.5 15.5 74.5s24.5 42.833 42.5 59.5s39.333 29.667 64 39s51.667 14 81 14s56.333 -4.66699 81 -14s46 -22.333 64 -39
s32 -36.5 42 -59.5s15 -47.833 15 -74.5s-5 -51.334 -15 -74.001s-24 -42.334 -42 -59.001s-39.333 -29.667 -64 -39s-51.667 -14 -81 -14zM239 450c36 0 63.833 10.167 83.5 30.5s29.5 46.833 29.5 79.5c0 33.333 -9.83301 60.166 -29.5 80.499s-47.5 30.5 -83.5 30.5
s-64.167 -10.167 -84.5 -30.5s-30.5 -47.166 -30.5 -80.499c0 -32.667 10.167 -59.167 30.5 -79.5s48.5 -30.5 84.5 -30.5z" />
    <glyph glyph-name="plusminus" unicode="&#xb1;" horiz-adv-x="540" 
d="M62 472h162v163h91v-163h162v-91h-162v-158h-91v158h-162v91zM63 159h415v-91h-415v91z" />
    <glyph glyph-name="twosuperior" unicode="&#xb2;" horiz-adv-x="468" 
d="M34 383c0 46.667 13.333 86.166 40 118.499s70.334 62.833 131.001 91.5c20.667 9.33301 37.667 18 51 26s24 15.5 32 22.5s13.5 14.167 16.5 21.5s4.5 15 4.5 23c0 43.333 -34.667 65 -104 65c-19.333 0 -40.333 -1.5 -63 -4.5s-49.667 -7.5 -81 -13.5l-12 98
c36.667 7.33301 69.167 12.833 97.5 16.5s55.166 5.5 80.499 5.5c133.333 0 200 -52.333 200 -157c0 -38 -11.667 -71 -35 -99s-60 -53.667 -110 -77c-37.333 -19.333 -63.333 -36.666 -78 -51.999s-22 -32 -22 -50v-19h245v-98h-393v82z" />
    <glyph glyph-name="threesuperior" unicode="&#xb3;" horiz-adv-x="445" 
d="M191 292c-27.333 0 -54.6719 1.16504 -82.0049 3.49805s-49.666 5.16602 -66.999 8.49902v102h6c6.66699 -1.33301 15 -2.66602 25 -3.99902s20.333 -2.5 31 -3.5s21.334 -1.83301 32.001 -2.5s20 -1 28 -1c46.667 0 79.334 5.83301 98.001 17.5s28 29.834 28 54.501
c0 24 -9.66699 41.5 -29 52.5s-52.666 16.5 -99.999 16.5h-54v81h53c41.333 0 71 5.5 89 16.5s27 28.167 27 51.5s-8.16699 40.333 -24.5 51s-44.5 16 -84.5 16c-13.333 0 -30.666 -1 -51.999 -3s-43.666 -4.66699 -66.999 -8h-6l-1 99c18.667 4 41.667 7.33301 69 10
s51.666 4 72.999 4c70.667 0 123.834 -13 159.501 -39s53.5 -64 53.5 -114c0 -28 -6.5 -52.167 -19.5 -72.5s-31.5 -35.833 -55.5 -46.5c57.333 -21.333 86 -65 86 -131c0 -51.333 -18.333 -90.666 -55 -117.999s-90.334 -41 -161.001 -41z" />
    <glyph glyph-name="acute" unicode="&#xb4;" horiz-adv-x="276" 
d="M39 617l68 187h142l-111 -195z" />
    <glyph glyph-name="mu" unicode="&#xb5;" horiz-adv-x="673" 
d="M79 540h138.996v-359c0 -56.667 22.667 -85 68 -85c24.667 0 50.334 4.5 77.001 13.5s55.667 20.167 87 33.5v397h139v-540h-116l-9 64h-4l-68 -34c-19.333 -9.33301 -37.666 -17 -54.999 -23s-34.666 -10.333 -51.999 -13s-36.666 -4 -57.999 -4h-9v-210h-139v760z" />
    <glyph glyph-name="paragraph" unicode="&#xb6;" horiz-adv-x="640" 
d="M407 0l-66.001 -0.00390625v266c-12.667 -0.666992 -24.5 -1 -35.5 -1h-33.5c-36.667 0 -69.667 4.16699 -99 12.5s-54.333 21.833 -75 40.5s-36.5 43.334 -47.5 74.001s-16.5 68.334 -16.5 113.001s5.66699 82.334 17 113.001s27.333 55.334 48 74.001
s45.667 32.167 75 40.5s62.333 12.5 99 12.5c20.667 0 42.334 -0.833008 65.001 -2.5s45.667 -4.16699 69 -7.5v-735zM547.999 -0.00390625h-85v735h85v-735z" />
    <glyph glyph-name="periodcentered" unicode="&#xb7;" horiz-adv-x="264" 
d="M132 292c-28 0 -48.333 5.99902 -61 17.999s-19 32 -19 60s6.33301 48 19 60s33 18 61 18s48.333 -6.16699 61 -18.5s19 -32.166 19 -59.499c0 -52 -26.667 -78 -80 -78z" />
    <glyph glyph-name="cedilla" unicode="&#xb8;" horiz-adv-x="312" 
d="M134 -220c-14 0 -29.667 1.16797 -47 3.50098s-34.333 5.16602 -51 8.49902v84c11.333 -3.33301 23.666 -6 36.999 -8s26 -3 38 -3c20 0 34.167 3.5 42.5 10.5s12.5 17.833 12.5 32.5s-5.16699 32 -15.5 52s-27.5 44.667 -51.5 74h89
c14 -17.333 25.667 -32.666 35 -45.999s16.833 -25.333 22.5 -36s9.5 -20.834 11.5 -30.501s3 -19.5 3 -29.5c0 -36 -11.167 -63.667 -33.5 -83s-53.166 -29 -92.499 -29z" />
    <glyph glyph-name="onesuperior" unicode="&#xb9;" horiz-adv-x="358" 
d="M167 721l-128 -45h-8l-16 62l1 14l183 94h87v-546h-119v421z" />
    <glyph glyph-name="ordmasculine" unicode="&#xba;" horiz-adv-x="491" 
d="M246 428c16.667 0 30.834 1.66699 42.501 5s21.167 9.5 28.5 18.5s12.833 21.167 16.5 36.5s5.5 34.666 5.5 57.999s-1.83301 42.666 -5.5 57.999s-9.16699 27.5 -16.5 36.5s-16.833 15.333 -28.5 19s-25.834 5.5 -42.501 5.5s-31 -1.83301 -43 -5.5s-21.667 -10 -29 -19
s-12.833 -21.167 -16.5 -36.5s-5.5 -34.666 -5.5 -57.999s1.83301 -42.666 5.5 -57.999s9.16699 -27.5 16.5 -36.5s17 -15.167 29 -18.5s26.333 -5 43 -5zM246 345c-66 0 -116.833 16.5 -152.5 49.5s-53.5 83.5 -53.5 151.5s17.833 118.5 53.5 151.5s86.5 49.5 152.5 49.5
c65.333 0 115.833 -16.5 151.5 -49.5s53.5 -83.5 53.5 -151.5s-17.833 -118.5 -53.5 -151.5s-86.167 -49.5 -151.5 -49.5z" />
    <glyph glyph-name="guillemotright" unicode="&#xbb;" horiz-adv-x="681" 
d="M180 30h-142l180 238v4l-180 238h142l179 -238v-4zM471 30h-142l180 238v4l-180 238h142l179 -238v-4z" />
    <glyph glyph-name="onequarter" unicode="&#xbc;" horiz-adv-x="1096" 
d="M863 112h-247l-17 73l191 363l12 3l100 -9l9 -21l-188 -317h147l29 155h82v-155h84v-92h-84v-112h-118v112zM604 740h120l-345 -740h-121zM178 621l-128 -45h-8l-16 62l1 14l183 94h87v-546h-119v421z" />
    <glyph glyph-name="onehalf" unicode="&#xbd;" horiz-adv-x="1117" 
d="M675 83c0 22.667 3.16504 43.667 9.49805 63s16.333 37.5 30 54.5s31.334 33 53.001 48s47.834 29.833 78.501 44.5c20.667 10 37.834 18.833 51.501 26.5s24.334 15 32.001 22s13 14.167 16 21.5s4.5 15 4.5 23c0 43.333 -34.333 65 -103 65c-38.667 0 -87 -6 -145 -18
l-12 98c71.333 14.667 130.666 22 177.999 22c133.333 0 200 -52.333 200 -157c0 -38 -11.333 -70.667 -34 -98s-59.667 -53.333 -111 -78c-18.667 -10 -34.334 -19.333 -47.001 -28s-23 -17 -31 -25s-13.667 -16 -17 -24s-5 -16.333 -5 -25v-19h245v-98h-393v82z
M603.998 740h120l-345 -740h-121zM177.998 621l-128 -45h-8l-16 62l1 14l183 94h87v-546h-119v421z" />
    <glyph glyph-name="threequarters" unicode="&#xbe;" horiz-adv-x="1163" 
d="M203 192c-27.333 0 -54.6719 1.16504 -82.0049 3.49805s-49.666 5.16602 -66.999 8.49902v102h6c6.66699 -1.33301 15 -2.66602 25 -3.99902s20.333 -2.5 31 -3.5s21.334 -1.83301 32.001 -2.5s20 -1 28 -1c46.667 0 79.334 5.83301 98.001 17.5s28 29.834 28 54.501
c0 24 -9.66699 41.5 -29 52.5s-52.666 16.5 -99.999 16.5h-54v81h53c41.333 0 71 5.5 89 16.5s27 28.167 27 51.5s-8.16699 40.333 -24.5 51s-44.5 16 -84.5 16c-13.333 0 -30.666 -1 -51.999 -3s-43.666 -4.66699 -66.999 -8h-6l-1 99c18.667 4 41.667 7.33301 69 10
s51.666 4 72.999 4c70.667 0 123.834 -13 159.501 -39s53.5 -64 53.5 -114c0 -28 -6.5 -52.167 -19.5 -72.5s-31.5 -35.833 -55.5 -46.5c57.333 -21.333 86 -65 86 -131c0 -51.333 -18.333 -90.666 -55 -117.999s-90.334 -41 -161.001 -41zM932.994 111.998h-247l-17 73
l191 363l12 3l100 -9l9 -21l-188 -317h147l29 155h82v-155h84v-92h-84v-112h-118v112zM675.994 739.998h120l-345 -740h-121z" />
    <glyph glyph-name="questiondown" unicode="&#xbf;" horiz-adv-x="464" 
d="M321 320l9.99805 -184.001c-22 -4.66699 -43.5 -10.5 -64.5 -17.5s-39.667 -15.667 -56 -26s-29.333 -22.666 -39 -36.999s-14.5 -31.5 -14.5 -51.5c0 -19.333 3.33301 -35.5 10 -48.5s15.667 -23.5 27 -31.5s24.833 -13.667 40.5 -17s32.167 -5 49.5 -5
c24.667 0 49.667 1.83301 75 5.5s48.333 8.16699 69 13.5l8 -104c-28.667 -7.33301 -57.334 -13 -86.001 -17s-58.667 -6 -90 -6c-33.333 0 -64.166 3.83301 -92.499 11.5s-52.666 19.5 -72.999 35.5s-36.333 36.333 -48 61s-17.5 54 -17.5 88
c0 31.333 5.33301 58.666 16 81.999s24.834 43.333 42.501 60s38.167 30.334 61.5 41.001s48 18.667 74 24l5 123v16h93v-16zM270.998 546.999c23.333 0 41.333 -6 54 -18s19 -29 19 -51c0 -22.667 -6.33301 -40 -19 -52s-30.667 -18 -54 -18c-22.667 0 -40.5 6 -53.5 18
s-19.5 29.333 -19.5 52c0 22 6.5 39 19.5 51s30.833 18 53.5 18z" />
    <glyph glyph-name="Agrave" unicode="&#xc0;" horiz-adv-x="719" 
d="M2 8l252 732h211l252 -732v-8h-138l-67 193h-306l-66 -193h-138v8zM478 305l-67 196l-46 139h-12l-45 -139l-68 -196h238zM300 801l-111 168h144l69 -156z" />
    <glyph glyph-name="Aacute" unicode="&#xc1;" horiz-adv-x="719" 
d="M2 8l252 732h211l252 -732v-8h-138l-67 193h-306l-66 -193h-138v8zM478 305l-67 196l-46 139h-12l-45 -139l-68 -196h238zM303 809l69 160h144l-110 -168z" />
    <glyph glyph-name="Acircumflex" unicode="&#xc2;" horiz-adv-x="719" 
d="M2 8l252 732h211l252 -732v-8h-138l-67 193h-306l-66 -193h-138v8zM478 305l-67 196l-46 139h-12l-45 -139l-68 -196h238zM175 903l185 76l187 -76v-98l-186 76l-186 -76v98z" />
    <glyph glyph-name="Atilde" unicode="&#xc3;" horiz-adv-x="719" 
d="M2 8l252 732h211l252 -732v-8h-138l-67 193h-306l-66 -193h-138v8zM478 305l-67 196l-46 139h-12l-45 -139l-68 -196h238zM143 858c21.333 34 44.832 59.666 70.499 76.999s50.834 26 75.501 26c16.667 0 32.667 -2.16699 48 -6.5s30.5 -9 45.5 -14
s30.167 -9.5 45.5 -13.5s31 -6 47 -6c15.333 0 30.333 2.83301 45 8.5s30.667 15.5 48 29.5l23 -30c-20 -34 -43.333 -59.667 -70 -77s-52.667 -26 -78 -26c-16 0 -31.667 2 -47 6s-30.5 8.5 -45.5 13.5s-30.167 9.5 -45.5 13.5s-30.666 6 -45.999 6
s-30.333 -2.66699 -45 -8s-30.334 -14.666 -47.001 -27.999z" />
    <glyph glyph-name="Adieresis" unicode="&#xc4;" horiz-adv-x="719" 
d="M2 8l252 732h211l252 -732v-8h-138l-67 193h-306l-66 -193h-138v8zM478 305l-67 196l-46 139h-12l-45 -139l-68 -196h238zM220 810c-28 0 -48.333 6.00098 -61 18.001s-19 32 -19 60c0 27.333 6.33301 47.166 19 59.499s33 18.5 61 18.5s48.333 -6.33301 61 -19
s19 -32.334 19 -59.001c0 -27.333 -6.33301 -47.166 -19 -59.499s-33 -18.5 -61 -18.5zM498 810.001c-28 0 -48.167 6.00098 -60.5 18.001s-18.5 32 -18.5 60c0 27.333 6.16699 47.166 18.5 59.499s32.5 18.5 60.5 18.5s48.333 -6.33301 61 -19s19 -32.334 19 -59.001
c0 -27.333 -6.33301 -47.166 -19 -59.499s-33 -18.5 -61 -18.5z" />
    <glyph glyph-name="Aring" unicode="&#xc5;" horiz-adv-x="719" 
d="M2 8l252 732h211l252 -732v-8h-138l-67 193h-306l-66 -193h-138v8zM478 305l-67 196l-46 139h-12l-45 -139l-68 -196h238zM360 778c-18.667 0 -35.834 2.83301 -51.501 8.5s-29.334 13.5 -41.001 23.5s-20.667 21.833 -27 35.5s-9.5 28.5 -9.5 44.5s3.16699 31 9.5 45
s15.333 26 27 36s25.334 17.833 41.001 23.5s32.834 8.5 51.501 8.5s35.834 -2.83301 51.501 -8.5s29.167 -13.5 40.5 -23.5s20.166 -22 26.499 -36s9.5 -29 9.5 -45c0 -32.667 -12 -59.5 -36 -80.5s-54.667 -31.5 -92 -31.5zM360 831c23.333 0 40.333 5 51 15
s16 24.667 16 44s-5.33301 34 -16 44s-27.667 15 -51 15c-45.333 0 -68 -19.667 -68 -59s22.667 -59 68 -59z" />
    <glyph glyph-name="AE" unicode="&#xc6;" horiz-adv-x="950" 
d="M-1 9l299 731h597v-112h-322l11 -199h291v-112h-284l12 -205h305v-112h-446l-8 191h-238l-78 -191h-139v9zM263 307h186l-13 330h-38z" />
    <glyph glyph-name="Ccedilla" unicode="&#xc7;" horiz-adv-x="599" 
d="M328 -220c-14 0 -29.6699 1.16699 -47.0029 3.5s-34.333 5.16602 -51 8.49902v84c11.333 -3.33301 23.666 -6 36.999 -8s26 -3 38 -3c20 0 34.167 3.5 42.5 10.5s12.5 17.833 12.5 32.5c0 11.333 -2.83301 24 -8.5 38s-15.167 30 -28.5 48
c-186 24.667 -279 149.667 -279 375c0 128.667 29 224.5 87 287.5s145.667 94.5 263 94.5c22.667 0 48.167 -1.33301 76.5 -4s59.5 -6.66699 93.5 -12v-115c-18.667 2.66699 -35.334 4.83398 -50.001 6.50098s-28 3 -40 4s-23.167 1.83301 -33.5 2.5s-20.5 1 -30.5 1
c-40 0 -74.167 -4.66699 -102.5 -14s-51.166 -24.5 -68.499 -45.5s-30 -48.333 -38 -82s-12 -74.834 -12 -123.501c0 -48 4 -88.667 12 -122s20.5 -60.5 37.5 -81.5s39.167 -36.167 66.5 -45.5s60.666 -14 99.999 -14c10.667 0 23.334 0.5 38.001 1.5
s29.334 2.16699 44.001 3.5s28.834 3.16602 42.501 5.49902s25.167 4.5 34.5 6.5v-114c-21.333 -5.33301 -45.166 -9.66602 -71.499 -12.999s-51.5 -5.66602 -75.5 -6.99902c14 -20 23.667 -37.333 29 -52s8 -29.667 8 -45c0 -36 -11.167 -63.667 -33.5 -83
s-53.166 -29 -92.499 -29z" />
    <glyph glyph-name="Egrave" unicode="&#xc8;" horiz-adv-x="643" 
d="M299 801l-111 168h144l69 -156zM78 740h513v-112h-371v-199h340v-112h-340v-205h380v-112h-522v740z" />
    <glyph glyph-name="Eacute" unicode="&#xc9;" horiz-adv-x="643" 
d="M276 809l69 160h144l-110 -168zM78 740h513v-112h-371v-199h340v-112h-340v-205h380v-112h-522v740z" />
    <glyph glyph-name="Ecircumflex" unicode="&#xca;" horiz-adv-x="643" 
d="M78 740h513v-112h-371v-199h340v-112h-340v-205h380v-112h-522v740zM159 903l185 76l187 -76v-98l-186 76l-186 -76v98z" />
    <glyph glyph-name="Edieresis" unicode="&#xcb;" horiz-adv-x="643" 
d="M202 810c-28 0 -48.333 6.00098 -61 18.001s-19 32 -19 60c0 27.333 6.33301 47.166 19 59.499s33 18.5 61 18.5s48.333 -6.33301 61 -19s19 -32.334 19 -59.001c0 -27.333 -6.33301 -47.166 -19 -59.499s-33 -18.5 -61 -18.5zM480 810.001
c-28 0 -48.167 6.00098 -60.5 18.001s-18.5 32 -18.5 60c0 27.333 6.16699 47.166 18.5 59.499s32.5 18.5 60.5 18.5s48.333 -6.33301 61 -19s19 -32.334 19 -59.001c0 -27.333 -6.33301 -47.166 -19 -59.499s-33 -18.5 -61 -18.5zM78 740.002h513v-112h-371v-199h340v-112
h-340v-205h380v-112h-522v740z" />
    <glyph glyph-name="Igrave" unicode="&#xcc;" horiz-adv-x="298" 
d="M78 740h142v-740h-142v740zM108 801l-111 168h144l69 -156z" />
    <glyph glyph-name="Iacute" unicode="&#xcd;" horiz-adv-x="298" 
d="M78 740h142v-740h-142v740zM93 809l69 160h144l-110 -168z" />
    <glyph glyph-name="Icircumflex" unicode="&#xce;" horiz-adv-x="298" 
d="M78 740h142v-740h-142v740zM-35 903l185 76l187 -76v-98l-186 76l-186 -76v98z" />
    <glyph glyph-name="Idieresis" unicode="&#xcf;" horiz-adv-x="298" 
d="M78 740h142v-740h-142v740zM12 810c-28 0 -48.333 6.00098 -61 18.001s-19 32 -19 60c0 27.333 6.33301 47.166 19 59.499s33 18.5 61 18.5s48.333 -6.33301 61 -19s19 -32.334 19 -59.001c0 -27.333 -6.33301 -47.166 -19 -59.499s-33 -18.5 -61 -18.5zM290 810.001
c-28 0 -48.167 6.00098 -60.5 18.001s-18.5 32 -18.5 60c0 27.333 6.16699 47.166 18.5 59.499s32.5 18.5 60.5 18.5s48.333 -6.33301 61 -19s19 -32.334 19 -59.001c0 -27.333 -6.33301 -47.166 -19 -59.499s-33 -18.5 -61 -18.5z" />
    <glyph glyph-name="Eth" unicode="&#xd0;" horiz-adv-x="775" 
d="M4 426h91.9961v312c46 3.33301 89.5 6 130.5 8s75.833 3 104.5 3c69.333 0 129.333 -7.5 180 -22.5s92.334 -38 125.001 -69s56.834 -70.333 72.501 -118s23.5 -104.5 23.5 -170.5c0 -67.333 -8.16699 -124.833 -24.5 -172.5s-41.833 -87 -76.5 -118
s-79.167 -53.667 -133.5 -68s-119.5 -21.5 -195.5 -21.5c-39.333 0 -77.666 1.16699 -114.999 3.5s-67.666 5.83301 -90.999 10.5v314h-92v109zM352.996 103c42 0 77.668 4.83301 107.001 14.5s53.5 25.167 72.5 46.5s32.833 49 41.5 83s13 75 13 123
s-4.33301 88.667 -13 122s-22.5 60.666 -41.5 81.999s-43.5 36.833 -73.5 46.5s-66.333 14.5 -109 14.5c-15.333 0 -32.833 -0.666992 -52.5 -2s-39.834 -3 -60.501 -5v-202h146v-109h-146v-205c21.333 -3.33301 41 -5.66602 59 -6.99902s37 -2 57 -2z" />
    <glyph glyph-name="Ntilde" unicode="&#xd1;" horiz-adv-x="801" 
d="M183 858c21.333 34 44.832 59.666 70.499 76.999s50.834 26 75.501 26c16.667 0 32.667 -2.16699 48 -6.5s30.5 -9 45.5 -14s30.167 -9.5 45.5 -13.5s31 -6 47 -6c15.333 0 30.333 2.83301 45 8.5s30.667 15.5 48 29.5l23 -30c-20 -34 -43.333 -59.667 -70 -77
s-52.667 -26 -78 -26c-16 0 -31.667 2 -47 6s-30.5 8.5 -45.5 13.5s-30.167 9.5 -45.5 13.5s-30.666 6 -45.999 6s-30.333 -2.66699 -45 -8s-30.334 -14.666 -47.001 -27.999zM77.999 739.999h116l337 -443l59 -86h8v529h125v-740h-116l-334 438l-62 90h-8v-528h-125v740z
" />
    <glyph glyph-name="Ograve" unicode="&#xd2;" horiz-adv-x="776" 
d="M330 801l-111 168h144l69 -156zM388 -10c-112 0 -197.5 31.832 -256.5 95.499s-88.5 158.167 -88.5 283.5c0 126 29.5 221 88.5 285s144.5 96 256.5 96s197.5 -32.167 256.5 -96.5s88.5 -159.166 88.5 -284.499c0 -124.667 -29.5 -219 -88.5 -283s-144.5 -96 -256.5 -96z
M388 104.999c35.333 0 65.668 4.83301 91.001 14.5s46 25.167 62 46.5s27.833 48.666 35.5 81.999s11.5 73.666 11.5 120.999c0 94 -16 161.833 -48 203.5s-82.667 62.5 -152 62.5c-35.333 0 -65.5 -5 -90.5 -15s-45.667 -25.667 -62 -47s-28.333 -48.833 -36 -82.5
s-11.5 -74.167 -11.5 -121.5s3.83301 -87.666 11.5 -120.999s19.5 -60.666 35.5 -81.999s36.667 -36.833 62 -46.5s55.666 -14.5 90.999 -14.5z" />
    <glyph glyph-name="Oacute" unicode="&#xd3;" horiz-adv-x="776" 
d="M332 809l69 160h144l-110 -168zM388 -10c-112 0 -197.5 31.832 -256.5 95.499s-88.5 158.167 -88.5 283.5c0 126 29.5 221 88.5 285s144.5 96 256.5 96s197.5 -32.167 256.5 -96.5s88.5 -159.166 88.5 -284.499c0 -124.667 -29.5 -219 -88.5 -283s-144.5 -96 -256.5 -96z
M388 104.999c35.333 0 65.668 4.83301 91.001 14.5s46 25.167 62 46.5s27.833 48.666 35.5 81.999s11.5 73.666 11.5 120.999c0 94 -16 161.833 -48 203.5s-82.667 62.5 -152 62.5c-35.333 0 -65.5 -5 -90.5 -15s-45.667 -25.667 -62 -47s-28.333 -48.833 -36 -82.5
s-11.5 -74.167 -11.5 -121.5s3.83301 -87.666 11.5 -120.999s19.5 -60.666 35.5 -81.999s36.667 -36.833 62 -46.5s55.666 -14.5 90.999 -14.5z" />
    <glyph glyph-name="Ocircumflex" unicode="&#xd4;" horiz-adv-x="776" 
d="M388 -10c-112 0 -197.5 31.832 -256.5 95.499s-88.5 158.167 -88.5 283.5c0 126 29.5 221 88.5 285s144.5 96 256.5 96s197.5 -32.167 256.5 -96.5s88.5 -159.166 88.5 -284.499c0 -124.667 -29.5 -219 -88.5 -283s-144.5 -96 -256.5 -96zM388 104.999
c35.333 0 65.668 4.83301 91.001 14.5s46 25.167 62 46.5s27.833 48.666 35.5 81.999s11.5 73.666 11.5 120.999c0 94 -16 161.833 -48 203.5s-82.667 62.5 -152 62.5c-35.333 0 -65.5 -5 -90.5 -15s-45.667 -25.667 -62 -47s-28.333 -48.833 -36 -82.5
s-11.5 -74.167 -11.5 -121.5s3.83301 -87.666 11.5 -120.999s19.5 -60.666 35.5 -81.999s36.667 -36.833 62 -46.5s55.666 -14.5 90.999 -14.5zM201.002 902.999l185 76l187 -76v-98l-186 76l-186 -76v98z" />
    <glyph glyph-name="Otilde" unicode="&#xd5;" horiz-adv-x="776" 
d="M171 858c21.333 34 44.832 59.666 70.499 76.999s50.834 26 75.501 26c16.667 0 32.667 -2.16699 48 -6.5s30.5 -9 45.5 -14s30.167 -9.5 45.5 -13.5s31 -6 47 -6c15.333 0 30.333 2.83301 45 8.5s30.667 15.5 48 29.5l23 -30c-20 -34 -43.333 -59.667 -70 -77
s-52.667 -26 -78 -26c-16 0 -31.667 2 -47 6s-30.5 8.5 -45.5 13.5s-30.167 9.5 -45.5 13.5s-30.666 6 -45.999 6s-30.333 -2.66699 -45 -8s-30.334 -14.666 -47.001 -27.999zM387.999 -10.001c-112 0 -197.5 31.832 -256.5 95.499s-88.5 158.167 -88.5 283.5
c0 126 29.5 221 88.5 285s144.5 96 256.5 96s197.5 -32.167 256.5 -96.5s88.5 -159.166 88.5 -284.499c0 -124.667 -29.5 -219 -88.5 -283s-144.5 -96 -256.5 -96zM387.999 104.998c35.333 0 65.668 4.83301 91.001 14.5s46 25.167 62 46.5s27.833 48.666 35.5 81.999
s11.5 73.666 11.5 120.999c0 94 -16 161.833 -48 203.5s-82.667 62.5 -152 62.5c-35.333 0 -65.5 -5 -90.5 -15s-45.667 -25.667 -62 -47s-28.333 -48.833 -36 -82.5s-11.5 -74.167 -11.5 -121.5s3.83301 -87.666 11.5 -120.999s19.5 -60.666 35.5 -81.999
s36.667 -36.833 62 -46.5s55.666 -14.5 90.999 -14.5z" />
    <glyph glyph-name="Odieresis" unicode="&#xd6;" horiz-adv-x="776" 
d="M244 810c-28 0 -48.333 6.00098 -61 18.001s-19 32 -19 60c0 27.333 6.33301 47.166 19 59.499s33 18.5 61 18.5s48.333 -6.33301 61 -19s19 -32.334 19 -59.001c0 -27.333 -6.33301 -47.166 -19 -59.499s-33 -18.5 -61 -18.5zM522 810.001
c-28 0 -48.167 6.00098 -60.5 18.001s-18.5 32 -18.5 60c0 27.333 6.16699 47.166 18.5 59.499s32.5 18.5 60.5 18.5s48.333 -6.33301 61 -19s19 -32.334 19 -59.001c0 -27.333 -6.33301 -47.166 -19 -59.499s-33 -18.5 -61 -18.5zM388 -9.99805
c-112 0 -197.5 31.832 -256.5 95.499s-88.5 158.167 -88.5 283.5c0 126 29.5 221 88.5 285s144.5 96 256.5 96s197.5 -32.167 256.5 -96.5s88.5 -159.166 88.5 -284.499c0 -124.667 -29.5 -219 -88.5 -283s-144.5 -96 -256.5 -96zM388 105.001
c35.333 0 65.668 4.83301 91.001 14.5s46 25.167 62 46.5s27.833 48.666 35.5 81.999s11.5 73.666 11.5 120.999c0 94 -16 161.833 -48 203.5s-82.667 62.5 -152 62.5c-35.333 0 -65.5 -5 -90.5 -15s-45.667 -25.667 -62 -47s-28.333 -48.833 -36 -82.5
s-11.5 -74.167 -11.5 -121.5s3.83301 -87.666 11.5 -120.999s19.5 -60.666 35.5 -81.999s36.667 -36.833 62 -46.5s55.666 -14.5 90.999 -14.5z" />
    <glyph glyph-name="multiply" unicode="&#xd7;" horiz-adv-x="491" 
d="M47 236l134 134l-134 134l64 65l134 -134l134 134l65 -65l-134 -134l134 -134l-64 -64l-135 134l-134 -134z" />
    <glyph glyph-name="Oslash" unicode="&#xd8;" horiz-adv-x="778" 
d="M115 107c-47.333 63.333 -70.999 150.667 -70.999 262c0 126 29.5 221 88.5 285s144.5 96 256.5 96c87.333 0 159 -20.333 215 -61l42 51h106l-90 -108c23.333 -32 41.166 -69.667 53.499 -113s18.5 -93.333 18.5 -150c0 -124.667 -29.5 -219 -88.5 -283
s-144.5 -96 -256.5 -96c-88 0 -160 20 -216 60l-42 -50h-106zM389.001 105.001c35.333 0 65.668 4.83496 91.001 14.502s46.166 25.167 62.499 46.5s28.333 48.666 36 81.999s11.5 73.666 11.5 120.999c0 62 -7 112.667 -21 152l-315 -374c30.667 -28 75.667 -42 135 -42z
M189.003 369.003c0 -63.333 6.66797 -113.667 20.001 -151l314 375c-30.667 28 -75.334 42 -134.001 42c-69.333 0 -120 -20.667 -152 -62s-48 -109.333 -48 -204z" />
    <glyph glyph-name="Ugrave" unicode="&#xd9;" horiz-adv-x="784" 
d="M337 801l-111 168h144l69 -156zM392 -10c-58.667 0 -108.33 6.16602 -148.997 18.499s-73.834 31.333 -99.501 57s-44.167 58.167 -55.5 97.5s-17 86 -17 140v438h141v-440c0 -68 14.667 -117.5 44 -148.5s74.666 -46.5 135.999 -46.5s106.5 15.333 135.5 46
s43.5 80.334 43.5 149.001v440h142v-438c0 -54 -5.83301 -100.667 -17.5 -140s-30.167 -71.833 -55.5 -97.5s-58.333 -44.667 -99 -57s-90.334 -18.5 -149.001 -18.5z" />
    <glyph glyph-name="Uacute" unicode="&#xda;" horiz-adv-x="784" 
d="M324 809l69 160h144l-110 -168zM392 -10c-58.667 0 -108.33 6.16602 -148.997 18.499s-73.834 31.333 -99.501 57s-44.167 58.167 -55.5 97.5s-17 86 -17 140v438h141v-440c0 -68 14.667 -117.5 44 -148.5s74.666 -46.5 135.999 -46.5s106.5 15.333 135.5 46
s43.5 80.334 43.5 149.001v440h142v-438c0 -54 -5.83301 -100.667 -17.5 -140s-30.167 -71.833 -55.5 -97.5s-58.333 -44.667 -99 -57s-90.334 -18.5 -149.001 -18.5z" />
    <glyph glyph-name="Ucircumflex" unicode="&#xdb;" horiz-adv-x="784" 
d="M392 -10c-58.667 0 -108.33 6.16602 -148.997 18.499s-73.834 31.333 -99.501 57s-44.167 58.167 -55.5 97.5s-17 86 -17 140v438h141v-440c0 -68 14.667 -117.5 44 -148.5s74.666 -46.5 135.999 -46.5s106.5 15.333 135.5 46s43.5 80.334 43.5 149.001v440h142v-438
c0 -54 -5.83301 -100.667 -17.5 -140s-30.167 -71.833 -55.5 -97.5s-58.333 -44.667 -99 -57s-90.334 -18.5 -149.001 -18.5zM202.004 902.999l185 76l187 -76v-98l-186 76l-186 -76v98z" />
    <glyph glyph-name="Udieresis" unicode="&#xdc;" horiz-adv-x="784" 
d="M249 810c-28 0 -48.333 6.00098 -61 18.001s-19 32 -19 60c0 27.333 6.33301 47.166 19 59.499s33 18.5 61 18.5s48.333 -6.33301 61 -19s19 -32.334 19 -59.001c0 -27.333 -6.33301 -47.166 -19 -59.499s-33 -18.5 -61 -18.5zM527 810.001
c-28 0 -48.167 6.00098 -60.5 18.001s-18.5 32 -18.5 60c0 27.333 6.16699 47.166 18.5 59.499s32.5 18.5 60.5 18.5s48.333 -6.33301 61 -19s19 -32.334 19 -59.001c0 -27.333 -6.33301 -47.166 -19 -59.499s-33 -18.5 -61 -18.5zM392 -9.99805
c-58.667 0 -108.33 6.16602 -148.997 18.499s-73.834 31.333 -99.501 57s-44.167 58.167 -55.5 97.5s-17 86 -17 140v438h141v-440c0 -68 14.667 -117.5 44 -148.5s74.666 -46.5 135.999 -46.5s106.5 15.333 135.5 46s43.5 80.334 43.5 149.001v440h142v-438
c0 -54 -5.83301 -100.667 -17.5 -140s-30.167 -71.833 -55.5 -97.5s-58.333 -44.667 -99 -57s-90.334 -18.5 -149.001 -18.5z" />
    <glyph glyph-name="Yacute" unicode="&#xdd;" horiz-adv-x="684" 
d="M272 241l-275 499h154l156 -298l30 -72h9l31 72l156 298h153l-272 -495v-245h-142v241zM288 809l69 160h144l-110 -168z" />
    <glyph glyph-name="Thorn" unicode="&#xde;" horiz-adv-x="683" 
d="M78 740h142v-117c12 0.666992 24.167 1.16699 36.5 1.5s24.5 0.5 36.5 0.5c125.333 0 216.666 -20.333 273.999 -61s86 -105.667 86 -195c0 -44.667 -6.83301 -83 -20.5 -115s-35 -58.333 -64 -79s-66 -36 -111 -46s-98.833 -15 -161.5 -15h-37.5
c-12.333 0 -25.166 0.666992 -38.499 2v-116h-142v740zM306 232c39.333 0 72.168 2.16699 98.501 6.5s47.333 11.666 63 21.999s26.667 24.333 33 42s9.5 39.834 9.5 66.501s-3.33301 48.834 -10 66.501s-18 31.834 -34 42.501s-37.167 18.167 -63.5 22.5
s-59.5 6.5 -99.5 6.5c-4.66699 0 -10.834 -0.166992 -18.501 -0.5l-24 -1c-8.33301 -0.333008 -16.166 -0.833008 -23.499 -1.5s-13 -1.33398 -17 -2.00098v-265c2.66699 -0.666992 7.66699 -1.33398 15 -2.00098s15.5 -1.16699 24.5 -1.5l26 -1
c8.33301 -0.333008 15.166 -0.5 20.499 -0.5z" />
    <glyph glyph-name="germandbls" unicode="&#xdf;" horiz-adv-x="735" 
d="M67 578c0 80.667 23.3311 139.832 69.998 177.499s117.667 56.5 213 56.5s166.833 -18.833 214.5 -56.5s71.5 -96.834 71.5 -177.501v-127h-116c-69.333 0 -104 -20.667 -104 -62c0 -23.333 9.83301 -39.333 29.5 -48s48.5 -15.667 86.5 -21c26 -4 50 -9.5 72 -16.5
s40.833 -16.667 56.5 -29s28 -28 37 -47s13.5 -42.167 13.5 -69.5c0 -54 -19.5 -95.667 -58.5 -125s-95.833 -44 -170.5 -44c-28 0 -59.167 2 -93.5 6s-71.166 10 -110.499 18v97c73.333 -16.667 139 -25 197 -25c68 0 102 21.333 102 64
c0 22.667 -8.66699 38.834 -26 48.501s-42 17.167 -74 22.5c-21.333 2.66699 -43.333 6.33398 -66 11.001s-43.5 12.5 -62.5 23.5s-34.667 26.833 -47 47.5s-18.5 48.667 -18.5 84c0 50 18.833 89.833 56.5 119.5s89.834 45.167 156.501 46.5v26
c0 44 -11.667 75.833 -35 95.5s-60 29.5 -110 29.5s-86.667 -9.66699 -110 -29s-35 -51.333 -35 -96v-578h-139v578z" />
    <glyph glyph-name="agrave" unicode="&#xe0;" horiz-adv-x="567" 
d="M186 -5c-50 0 -87.833 13 -113.5 39s-38.5 63 -38.5 111c0 53.333 16.5 93.833 49.5 121.5s84.833 44.167 155.5 49.5l127 9v18c0 20 -1.66699 36.5 -5 49.5s-9.5 23.5 -18.5 31.5s-21.333 13.667 -37 17s-35.834 5 -60.501 5c-23.333 0 -49.666 -1.5 -78.999 -4.5
s-59 -7.5 -89 -13.5l-9 99c74.667 13.333 141.667 20 201 20c80.667 0 140.167 -14.667 178.5 -44s57.5 -75 57.5 -137v-366h-114l-13 67h-8c-58 -48 -119.333 -72 -184 -72zM243 93c20 0 41 4.33203 63 12.999s42 19.334 60 32.001v111l-85 -8
c-40 -3.33301 -67.833 -11 -83.5 -23s-23.5 -31.333 -23.5 -58c0 -44.667 23 -67 69 -67zM239 611.999l-111 195h146l67 -185z" />
    <glyph glyph-name="aacute" unicode="&#xe1;" horiz-adv-x="567" 
d="M186 -5c-50 0 -87.833 13 -113.5 39s-38.5 63 -38.5 111c0 53.333 16.5 93.833 49.5 121.5s84.833 44.167 155.5 49.5l127 9v18c0 20 -1.66699 36.5 -5 49.5s-9.5 23.5 -18.5 31.5s-21.333 13.667 -37 17s-35.834 5 -60.501 5c-23.333 0 -49.666 -1.5 -78.999 -4.5
s-59 -7.5 -89 -13.5l-9 99c74.667 13.333 141.667 20 201 20c80.667 0 140.167 -14.667 178.5 -44s57.5 -75 57.5 -137v-366h-114l-13 67h-8c-58 -48 -119.333 -72 -184 -72zM243 93c20 0 41 4.33203 63 12.999s42 19.334 60 32.001v111l-85 -8
c-40 -3.33301 -67.833 -11 -83.5 -23s-23.5 -31.333 -23.5 -58c0 -44.667 23 -67 69 -67zM232 616.999l68 187h142l-111 -195z" />
    <glyph glyph-name="acircumflex" unicode="&#xe2;" horiz-adv-x="567" 
d="M186 -5c-50 0 -87.833 13 -113.5 39s-38.5 63 -38.5 111c0 53.333 16.5 93.833 49.5 121.5s84.833 44.167 155.5 49.5l127 9v18c0 20 -1.66699 36.5 -5 49.5s-9.5 23.5 -18.5 31.5s-21.333 13.667 -37 17s-35.834 5 -60.501 5c-23.333 0 -49.666 -1.5 -78.999 -4.5
s-59 -7.5 -89 -13.5l-9 99c74.667 13.333 141.667 20 201 20c80.667 0 140.167 -14.667 178.5 -44s57.5 -75 57.5 -137v-366h-114l-13 67h-8c-58 -48 -119.333 -72 -184 -72zM243 93c20 0 41 4.33203 63 12.999s42 19.334 60 32.001v111l-85 -8
c-40 -3.33301 -67.833 -11 -83.5 -23s-23.5 -31.333 -23.5 -58c0 -44.667 23 -67 69 -67zM103 715.999l184 76l188 -76v-97l-186 75l-186 -75v97z" />
    <glyph glyph-name="atilde" unicode="&#xe3;" horiz-adv-x="567" 
d="M186 -5c-50 0 -87.833 13 -113.5 39s-38.5 63 -38.5 111c0 53.333 16.5 93.833 49.5 121.5s84.833 44.167 155.5 49.5l127 9v18c0 20 -1.66699 36.5 -5 49.5s-9.5 23.5 -18.5 31.5s-21.333 13.667 -37 17s-35.834 5 -60.501 5c-23.333 0 -49.666 -1.5 -78.999 -4.5
s-59 -7.5 -89 -13.5l-9 99c74.667 13.333 141.667 20 201 20c80.667 0 140.167 -14.667 178.5 -44s57.5 -75 57.5 -137v-366h-114l-13 67h-8c-58 -48 -119.333 -72 -184 -72zM243 93c20 0 41 4.33203 63 12.999s42 19.334 60 32.001v111l-85 -8
c-40 -3.33301 -67.833 -11 -83.5 -23s-23.5 -31.333 -23.5 -58c0 -44.667 23 -67 69 -67zM66 669.999c20.667 34 43.8301 59.335 69.4971 76.002s50.834 25 75.501 25c16.667 0 32.667 -2.16699 48 -6.5s30.5 -9.33301 45.5 -15s30 -10.667 45 -15s30.5 -6.5 46.5 -6.5
c15.333 0 30.166 2.83301 44.499 8.5s30.166 15.5 47.499 29.5l25 -32c-20.667 -33.333 -44 -58.5 -70 -75.5s-51.667 -25.5 -77 -25.5c-16 0 -31.667 2.16699 -47 6.5s-30.666 9.16602 -45.999 14.499s-30.666 10.166 -45.999 14.499s-30.666 6.5 -45.999 6.5
s-30.166 -2.83301 -44.499 -8.5s-29.5 -15.167 -45.5 -28.5z" />
    <glyph glyph-name="adieresis" unicode="&#xe4;" horiz-adv-x="567" 
d="M186 -5c-50 0 -87.833 13 -113.5 39s-38.5 63 -38.5 111c0 53.333 16.5 93.833 49.5 121.5s84.833 44.167 155.5 49.5l127 9v18c0 20 -1.66699 36.5 -5 49.5s-9.5 23.5 -18.5 31.5s-21.333 13.667 -37 17s-35.834 5 -60.501 5c-23.333 0 -49.666 -1.5 -78.999 -4.5
s-59 -7.5 -89 -13.5l-9 99c74.667 13.333 141.667 20 201 20c80.667 0 140.167 -14.667 178.5 -44s57.5 -75 57.5 -137v-366h-114l-13 67h-8c-58 -48 -119.333 -72 -184 -72zM243 93c20 0 41 4.33203 63 12.999s42 19.334 60 32.001v111l-85 -8
c-40 -3.33301 -67.833 -11 -83.5 -23s-23.5 -31.333 -23.5 -58c0 -44.667 23 -67 69 -67zM159 632.999c-24.667 0 -42.834 5.5 -54.501 16.5s-17.5 28.833 -17.5 53.5s5.83301 42.5 17.5 53.5s29.834 16.5 54.501 16.5c25.333 0 43.666 -5.83301 54.999 -17.5
s17 -29.167 17 -52.5c0 -24.667 -5.66699 -42.5 -17 -53.5s-29.666 -16.5 -54.999 -16.5zM415 632.999c-24.667 0 -42.834 5.5 -54.501 16.5s-17.5 28.833 -17.5 53.5s5.83301 42.5 17.5 53.5s29.834 16.5 54.501 16.5c25.333 0 43.666 -5.83301 54.999 -17.5
s17 -29.167 17 -52.5c0 -24.667 -5.66699 -42.5 -17 -53.5s-29.666 -16.5 -54.999 -16.5z" />
    <glyph glyph-name="aring" unicode="&#xe5;" horiz-adv-x="567" 
d="M186 -5c-50 0 -87.833 13 -113.5 39s-38.5 63 -38.5 111c0 53.333 16.5 93.833 49.5 121.5s84.833 44.167 155.5 49.5l127 9v18c0 20 -1.66699 36.5 -5 49.5s-9.5 23.5 -18.5 31.5s-21.333 13.667 -37 17s-35.834 5 -60.501 5c-23.333 0 -49.666 -1.5 -78.999 -4.5
s-59 -7.5 -89 -13.5l-9 99c74.667 13.333 141.667 20 201 20c80.667 0 140.167 -14.667 178.5 -44s57.5 -75 57.5 -137v-366h-114l-13 67h-8c-58 -48 -119.333 -72 -184 -72zM243 93c20 0 41 4.33203 63 12.999s42 19.334 60 32.001v111l-85 -8
c-40 -3.33301 -67.833 -11 -83.5 -23s-23.5 -31.333 -23.5 -58c0 -44.667 23 -67 69 -67zM284 593.999c-18.667 0 -36 2.66797 -52 8.00098s-29.667 13 -41 23s-20.333 21.833 -27 35.5s-10 28.5 -10 44.5c0 33.333 12.167 60.5 36.5 81.5s55.5 31.5 93.5 31.5
s69 -10.5 93 -31.5s36 -48.167 36 -81.5c0 -32.667 -12 -59.334 -36 -80.001s-55 -31 -93 -31zM284 647c23.333 0 40.166 5 50.499 15s15.5 24.333 15.5 43c0 19.333 -5.16699 34 -15.5 44s-27.166 15 -50.499 15c-44 0 -66 -19.667 -66 -59c0 -38.667 22 -58 66 -58z" />
    <glyph glyph-name="ae" unicode="&#xe6;" horiz-adv-x="904" 
d="M639 -12c-97.333 0 -166.667 30.667 -208 92h-7c-48 -30 -90.833 -51.667 -128.5 -65s-74.5 -20 -110.5 -20c-48.667 0 -86 13.167 -112 39.5s-39 63.5 -39 111.5c0 52.667 16.667 92.667 50 120s85.333 43.666 156 48.999l127 9v31c0 17.333 -2.16699 31.833 -6.5 43.5
s-11.333 21 -21 28s-22.667 12 -39 15s-36.833 4.5 -61.5 4.5c-22 0 -47.167 -1.5 -75.5 -4.5s-56.833 -7.5 -85.5 -13.5l-10 99c38 7.33301 73.333 12.5 106 15.5s65.667 4.5 99 4.5c88.667 0 147 -25.667 175 -77h8c20 24.667 45 43.5 75 56.5s65.667 19.5 107 19.5
c74.667 0 131 -20.167 169 -60.5s57 -99.833 57 -178.5c0 -17.333 -0.666992 -32.166 -2 -44.499s-3.33301 -23.5 -6 -33.5h-348c2.66699 -48 15.167 -82.333 37.5 -103s57.833 -31 106.5 -31c28.667 0 60 2.16699 94 6.5s65 10.5 93 18.5l5 -100
c-30 -10 -63.167 -17.833 -99.5 -23.5s-71.5 -8.5 -105.5 -8.5zM244.999 92c18.667 0 38.8311 4.16797 60.498 12.501s42.834 19.833 63.501 34.5c0 0.666992 -0.166992 6.66699 -0.5 18s-0.666016 23.666 -0.999023 36.999s-0.5 25.666 -0.5 36.999v19l-86 -8
c-40 -3.33301 -67.667 -11.166 -83 -23.499s-23 -31.833 -23 -58.5c0 -45.333 23.333 -68 70 -68zM739.996 303.001c-1.33301 52 -10.167 89 -26.5 111s-43.5 33 -81.5 33c-40 0 -70.167 -11.5 -90.5 -34.5s-31.833 -59.5 -34.5 -109.5h233z" />
    <glyph glyph-name="ccedilla" unicode="&#xe7;" horiz-adv-x="502" 
d="M253 -220c-14 0 -29.667 1.16797 -47 3.50098s-34.333 5.16602 -51 8.49902v84c11.333 -3.33301 23.666 -6 36.999 -8s26 -3 38 -3c20 0 34.167 3.5 42.5 10.5s12.5 17.833 12.5 32.5c0 11.333 -3 24 -9 38s-15.667 30.667 -29 50c-138 18.667 -207 110 -207 274
c0 186 90 279 270 279c25.333 0 51.5 -1.33301 78.5 -4s51.167 -6.66699 72.5 -12v-111c-24 4 -47.667 7.16699 -71 9.5s-45.666 3.5 -66.999 3.5c-50.667 0 -87.334 -13 -110.001 -39s-34 -67.667 -34 -125c0 -58.667 11 -101 33 -127s58.667 -39 110 -39
c27.333 0 51.5 0.833008 72.5 2.5s43.167 4.83398 66.5 9.50098v-110c-15.333 -4 -33.666 -7.33301 -54.999 -10s-43.333 -4.33398 -66 -5.00098c15.333 -21.333 25.666 -39.333 30.999 -54s8 -30 8 -46c0 -36 -11.167 -63.667 -33.5 -83s-53.166 -29 -92.499 -29z" />
    <glyph glyph-name="egrave" unicode="&#xe8;" horiz-adv-x="574" 
d="M310 -9c-179.333 0 -269 91.333 -269 274c0 93.333 22.5 164 67.5 212s111.167 72 198.5 72c151.333 0 227 -80.333 227 -241c0 -16 -0.5 -30.333 -1.5 -43s-3.16699 -24.667 -6.5 -36h-348c2 -24.667 6.16699 -45.334 12.5 -62.001s15.333 -30.167 27 -40.5
s26.167 -17.666 43.5 -21.999s38.333 -6.5 63 -6.5c28 0 58.833 2.16699 92.5 6.5s64.5 10.5 92.5 18.5l5 -101c-30 -9.33301 -63 -16.833 -99 -22.5s-71 -8.5 -105 -8.5zM302 450c-39.333 0 -69 -11.1689 -89 -33.502s-31.667 -58.166 -35 -107.499h233
c-1.33301 50.667 -10.5 86.834 -27.5 108.501s-44.167 32.5 -81.5 32.5zM242 611.998l-111 195h146l67 -185z" />
    <glyph glyph-name="eacute" unicode="&#xe9;" horiz-adv-x="574" 
d="M257 617l68 187h142l-111 -195zM310 -9c-179.333 0 -269 91.333 -269 274c0 93.333 22.5 164 67.5 212s111.167 72 198.5 72c151.333 0 227 -80.333 227 -241c0 -16 -0.5 -30.333 -1.5 -43s-3.16699 -24.667 -6.5 -36h-348c2 -24.667 6.16699 -45.334 12.5 -62.001
s15.333 -30.167 27 -40.5s26.167 -17.666 43.5 -21.999s38.333 -6.5 63 -6.5c28 0 58.833 2.16699 92.5 6.5s64.5 10.5 92.5 18.5l5 -101c-30 -9.33301 -63 -16.833 -99 -22.5s-71 -8.5 -105 -8.5zM302 450c-39.333 0 -69 -11.1689 -89 -33.502
s-31.667 -58.166 -35 -107.499h233c-1.33301 50.667 -10.5 86.834 -27.5 108.501s-44.167 32.5 -81.5 32.5z" />
    <glyph glyph-name="ecircumflex" unicode="&#xea;" horiz-adv-x="574" 
d="M115 716l184 76l188 -76v-97l-186 75l-186 -75v97zM310 -9c-179.333 0 -269 91.333 -269 274c0 93.333 22.5 164 67.5 212s111.167 72 198.5 72c151.333 0 227 -80.333 227 -241c0 -16 -0.5 -30.333 -1.5 -43s-3.16699 -24.667 -6.5 -36h-348
c2 -24.667 6.16699 -45.334 12.5 -62.001s15.333 -30.167 27 -40.5s26.167 -17.666 43.5 -21.999s38.333 -6.5 63 -6.5c28 0 58.833 2.16699 92.5 6.5s64.5 10.5 92.5 18.5l5 -101c-30 -9.33301 -63 -16.833 -99 -22.5s-71 -8.5 -105 -8.5zM302 450
c-39.333 0 -69 -11.1689 -89 -33.502s-31.667 -58.166 -35 -107.499h233c-1.33301 50.667 -10.5 86.834 -27.5 108.501s-44.167 32.5 -81.5 32.5z" />
    <glyph glyph-name="edieresis" unicode="&#xeb;" horiz-adv-x="574" 
d="M166 633c-24.667 0 -42.834 5.5 -54.501 16.5s-17.5 28.833 -17.5 53.5s5.83301 42.5 17.5 53.5s29.834 16.5 54.501 16.5c25.333 0 43.666 -5.83301 54.999 -17.5s17 -29.167 17 -52.5c0 -24.667 -5.66699 -42.5 -17 -53.5s-29.666 -16.5 -54.999 -16.5zM422 633
c-24.667 0 -42.834 5.5 -54.501 16.5s-17.5 28.833 -17.5 53.5s5.83301 42.5 17.5 53.5s29.834 16.5 54.501 16.5c25.333 0 43.666 -5.83301 54.999 -17.5s17 -29.167 17 -52.5c0 -24.667 -5.66699 -42.5 -17 -53.5s-29.666 -16.5 -54.999 -16.5zM310 -9
c-179.333 0 -269 91.333 -269 274c0 93.333 22.5 164 67.5 212s111.167 72 198.5 72c151.333 0 227 -80.333 227 -241c0 -16 -0.5 -30.333 -1.5 -43s-3.16699 -24.667 -6.5 -36h-348c2 -24.667 6.16699 -45.334 12.5 -62.001s15.333 -30.167 27 -40.5
s26.167 -17.666 43.5 -21.999s38.333 -6.5 63 -6.5c28 0 58.833 2.16699 92.5 6.5s64.5 10.5 92.5 18.5l5 -101c-30 -9.33301 -63 -16.833 -99 -22.5s-71 -8.5 -105 -8.5zM302 450c-39.333 0 -69 -11.1689 -89 -33.502s-31.667 -58.166 -35 -107.499h233
c-1.33301 50.667 -10.5 86.834 -27.5 108.501s-44.167 32.5 -81.5 32.5z" />
    <glyph glyph-name="igrave" unicode="&#xec;" horiz-adv-x="273" 
d="M67 540h139v-540h-139v540zM81 612l-111 195h146l67 -185z" />
    <glyph glyph-name="iacute" unicode="&#xed;" horiz-adv-x="273" 
d="M88 617l68 187h142l-111 -195zM67 540h139v-540h-139v540z" />
    <glyph glyph-name="icircumflex" unicode="&#xee;" horiz-adv-x="274" 
d="M-37 716l176 76l179 -76v-97l-178 75l-177 -75v97zM68 540h139v-540h-139v540z" />
    <glyph glyph-name="idieresis" unicode="&#xef;" horiz-adv-x="274" 
d="M21 633c-25.333 0 -43.666 5.5 -54.999 16.5s-17 28.833 -17 53.5s5.66699 42.5 17 53.5s29.666 16.5 54.999 16.5s43.666 -5.83301 54.999 -17.5s17 -29.167 17 -52.5c0 -24.667 -5.66699 -42.5 -17 -53.5s-29.666 -16.5 -54.999 -16.5zM257 633
c-25.333 0 -43.666 5.5 -54.999 16.5s-17 28.833 -17 53.5s5.66699 42.5 17 53.5s29.666 16.5 54.999 16.5s43.666 -5.83301 54.999 -17.5s17 -29.167 17 -52.5c0 -24.667 -5.66699 -42.5 -17 -53.5s-29.666 -16.5 -54.999 -16.5zM68 540h139v-540h-139v540z" />
    <glyph glyph-name="eth" unicode="&#xf0;" horiz-adv-x="638" 
d="M207 696l129 12c-25.333 34 -53.666 67.333 -84.999 100h142c9.33301 -11.333 19.5 -24.333 30.5 -39s22.5 -31 34.5 -49l156 16v-87l-108 -11c22.667 -44 42.167 -94 58.5 -150s24.5 -118.333 24.5 -187c0 -102.667 -23.5 -180.167 -70.5 -232.5
s-115.5 -78.5 -205.5 -78.5c-88 0 -155.667 23.833 -203 71.5s-71 116.834 -71 207.501c0 90 23.167 159.333 69.5 208s111.166 73 194.499 73c32 0 59.167 -5.16699 81.5 -15.5s41.833 -26.833 58.5 -49.5c-13.333 49.333 -32 96.666 -56 141.999l-180 -18v87zM314 97
c48 0 82.499 14.001 103.499 42.001s31.5 74 31.5 138c0 51.333 -10.833 91.666 -32.5 120.999s-56.5 44 -104.5 44s-82.167 -13.167 -102.5 -39.5s-30.5 -70.5 -30.5 -132.5s10.333 -106.333 31 -133s55.334 -40 104.001 -40z" />
    <glyph glyph-name="ntilde" unicode="&#xf1;" horiz-adv-x="639" 
d="M67 540h116l8 -62h6c51.333 25.333 95 43.666 131 54.999s69.333 17 100 17c46.667 0 83 -12.667 109 -38s39 -62.333 39 -111v-401h-139v354c0 30.667 -5.66699 52.5 -17 65.5s-29.333 19.5 -54 19.5c-21.333 0 -45.833 -4.16699 -73.5 -12.5
s-56.5 -19.166 -86.5 -32.499v-394h-139v540zM105 670c20.667 34 43.8301 59.335 69.4971 76.002s50.834 25 75.501 25c16.667 0 32.667 -2.16699 48 -6.5s30.5 -9.33301 45.5 -15s30 -10.667 45 -15s30.5 -6.5 46.5 -6.5c15.333 0 30.166 2.83301 44.499 8.5
s30.166 15.5 47.499 29.5l25 -32c-20.667 -33.333 -44 -58.5 -70 -75.5s-51.667 -25.5 -77 -25.5c-16 0 -31.667 2.16699 -47 6.5s-30.666 9.16602 -45.999 14.499s-30.666 10.166 -45.999 14.499s-30.666 6.5 -45.999 6.5s-30.166 -2.83301 -44.499 -8.5
s-29.5 -15.167 -45.5 -28.5z" />
    <glyph glyph-name="ograve" unicode="&#xf2;" horiz-adv-x="628" 
d="M314 -10c-89.333 0 -157.5 23.833 -204.5 71.5s-70.5 117.167 -70.5 208.5s23.5 160.833 70.5 208.5s115.167 71.5 204.5 71.5s157.5 -23.833 204.5 -71.5s70.5 -117.167 70.5 -208.5s-23.5 -160.833 -70.5 -208.5s-115.167 -71.5 -204.5 -71.5zM314 97
c48 0 82.5 13.167 103.5 39.5s31.5 70.833 31.5 133.5s-10.5 107 -31.5 133s-55.5 39 -103.5 39s-82.5 -13 -103.5 -39s-31.5 -70.333 -31.5 -133s10.5 -107.167 31.5 -133.5s55.5 -39.5 103.5 -39.5zM253 612l-111 195h146l67 -185z" />
    <glyph glyph-name="oacute" unicode="&#xf3;" horiz-adv-x="628" 
d="M257 617l68 187h142l-111 -195zM314 -10c-89.333 0 -157.5 23.833 -204.5 71.5s-70.5 117.167 -70.5 208.5s23.5 160.833 70.5 208.5s115.167 71.5 204.5 71.5s157.5 -23.833 204.5 -71.5s70.5 -117.167 70.5 -208.5s-23.5 -160.833 -70.5 -208.5
s-115.167 -71.5 -204.5 -71.5zM314 97c48 0 82.5 13.167 103.5 39.5s31.5 70.833 31.5 133.5s-10.5 107 -31.5 133s-55.5 39 -103.5 39s-82.5 -13 -103.5 -39s-31.5 -70.333 -31.5 -133s10.5 -107.167 31.5 -133.5s55.5 -39.5 103.5 -39.5z" />
    <glyph glyph-name="ocircumflex" unicode="&#xf4;" horiz-adv-x="628" 
d="M127 716l184 76l188 -76v-97l-186 75l-186 -75v97zM314 -10c-89.333 0 -157.5 23.833 -204.5 71.5s-70.5 117.167 -70.5 208.5s23.5 160.833 70.5 208.5s115.167 71.5 204.5 71.5s157.5 -23.833 204.5 -71.5s70.5 -117.167 70.5 -208.5s-23.5 -160.833 -70.5 -208.5
s-115.167 -71.5 -204.5 -71.5zM314 97c48 0 82.5 13.167 103.5 39.5s31.5 70.833 31.5 133.5s-10.5 107 -31.5 133s-55.5 39 -103.5 39s-82.5 -13 -103.5 -39s-31.5 -70.333 -31.5 -133s10.5 -107.167 31.5 -133.5s55.5 -39.5 103.5 -39.5z" />
    <glyph glyph-name="otilde" unicode="&#xf5;" horiz-adv-x="628" 
d="M314 -10c-89.333 0 -157.5 23.833 -204.5 71.5s-70.5 117.167 -70.5 208.5s23.5 160.833 70.5 208.5s115.167 71.5 204.5 71.5s157.5 -23.833 204.5 -71.5s70.5 -117.167 70.5 -208.5s-23.5 -160.833 -70.5 -208.5s-115.167 -71.5 -204.5 -71.5zM314 97
c48 0 82.5 13.167 103.5 39.5s31.5 70.833 31.5 133.5s-10.5 107 -31.5 133s-55.5 39 -103.5 39s-82.5 -13 -103.5 -39s-31.5 -70.333 -31.5 -133s10.5 -107.167 31.5 -133.5s55.5 -39.5 103.5 -39.5zM93 670c20.667 34 43.8301 59.335 69.4971 76.002s50.834 25 75.501 25
c16.667 0 32.667 -2.16699 48 -6.5s30.5 -9.33301 45.5 -15s30 -10.667 45 -15s30.5 -6.5 46.5 -6.5c15.333 0 30.166 2.83301 44.499 8.5s30.166 15.5 47.499 29.5l25 -32c-20.667 -33.333 -44 -58.5 -70 -75.5s-51.667 -25.5 -77 -25.5c-16 0 -31.667 2.16699 -47 6.5
s-30.666 9.16602 -45.999 14.499s-30.666 10.166 -45.999 14.499s-30.666 6.5 -45.999 6.5s-30.166 -2.83301 -44.499 -8.5s-29.5 -15.167 -45.5 -28.5z" />
    <glyph glyph-name="odieresis" unicode="&#xf6;" horiz-adv-x="628" 
d="M184 633c-24.667 0 -42.834 5.5 -54.501 16.5s-17.5 28.833 -17.5 53.5s5.83301 42.5 17.5 53.5s29.834 16.5 54.501 16.5c25.333 0 43.666 -5.83301 54.999 -17.5s17 -29.167 17 -52.5c0 -24.667 -5.66699 -42.5 -17 -53.5s-29.666 -16.5 -54.999 -16.5zM440 633
c-24.667 0 -42.834 5.5 -54.501 16.5s-17.5 28.833 -17.5 53.5s5.83301 42.5 17.5 53.5s29.834 16.5 54.501 16.5c25.333 0 43.666 -5.83301 54.999 -17.5s17 -29.167 17 -52.5c0 -24.667 -5.66699 -42.5 -17 -53.5s-29.666 -16.5 -54.999 -16.5zM314 -10
c-89.333 0 -157.5 23.833 -204.5 71.5s-70.5 117.167 -70.5 208.5s23.5 160.833 70.5 208.5s115.167 71.5 204.5 71.5s157.5 -23.833 204.5 -71.5s70.5 -117.167 70.5 -208.5s-23.5 -160.833 -70.5 -208.5s-115.167 -71.5 -204.5 -71.5zM314 97c48 0 82.5 13.167 103.5 39.5
s31.5 70.833 31.5 133.5s-10.5 107 -31.5 133s-55.5 39 -103.5 39s-82.5 -13 -103.5 -39s-31.5 -70.333 -31.5 -133s10.5 -107.167 31.5 -133.5s55.5 -39.5 103.5 -39.5z" />
    <glyph glyph-name="divide" unicode="&#xf7;" horiz-adv-x="526" 
d="M266 134c-18 0 -32.667 5.16602 -44 15.499s-17 25.833 -17 46.5c0 20 5.66699 35 17 45s26 15 44 15c17.333 0 31.666 -5.16699 42.999 -15.5s17 -25.166 17 -44.499c0 -20.667 -5.66699 -36.167 -17 -46.5s-25.666 -15.5 -42.999 -15.5zM50 414.999h426v-90h-426v90z
M266 479.999c-18 0 -32.667 5.16699 -44 15.5s-17 25.5 -17 45.5c0 20.667 5.66699 36.167 17 46.5s26 15.5 44 15.5c17.333 0 31.666 -5.33301 42.999 -16s17 -26 17 -46s-5.66699 -35.167 -17 -45.5s-25.666 -15.5 -42.999 -15.5z" />
    <glyph glyph-name="oslash" unicode="&#xf8;" horiz-adv-x="634" 
d="M93 85c-33.333 46 -49.999 107.667 -49.999 185c0 88 22.667 156.667 68 206s114 74 206 74c35.333 0 67.166 -3.83301 95.499 -11.5s53.5 -18.5 75.5 -32.5l32 34h102l-81 -86c34 -46 51 -107.333 51 -184c0 -88.667 -22.833 -157.5 -68.5 -206.5
s-114.5 -73.5 -206.5 -73.5c-70 0 -126.667 14.667 -170 44l-32 -34h-102zM317.001 97c26.667 0 48.833 3.33398 66.5 10.001s31.667 17.167 42 31.5s17.5 32.333 21.5 54s6 47.5 6 77.5c0 33.333 -2.33301 60.666 -7 81.999l-219 -232c20 -15.333 50 -23 90 -23z
M183 270.001c0 -16 0.333008 -30.833 1 -44.5s2.33398 -26.167 5.00098 -37.5l217 231c-20.667 15.333 -50.334 23 -89.001 23c-26.667 0 -48.667 -3.33301 -66 -10s-31 -17 -41 -31s-17 -31.833 -21 -53.5s-6 -47.5 -6 -77.5z" />
    <glyph glyph-name="ugrave" unicode="&#xf9;" horiz-adv-x="639" 
d="M211 -10c-48.667 0 -85.499 12.833 -110.499 38.5s-37.5 62.5 -37.5 110.5v401h139v-358c0 -30 5.16699 -51.333 15.5 -64s28.166 -19 53.499 -19c24.667 0 51.167 5 79.5 15s56.166 21 83.499 33v393h139v-540h-117l-8 64h-4l-68.5 -34
c-19.667 -9.33301 -38 -17 -55 -23s-34.167 -10.333 -51.5 -13s-36.666 -4 -57.999 -4zM259.001 612l-111 195h146l67 -185z" />
    <glyph glyph-name="uacute" unicode="&#xfa;" horiz-adv-x="639" 
d="M261 617l68 187h142l-111 -195zM211 -10c-48.667 0 -85.499 12.833 -110.499 38.5s-37.5 62.5 -37.5 110.5v401h139v-358c0 -30 5.16699 -51.333 15.5 -64s28.166 -19 53.499 -19c24.667 0 51.167 5 79.5 15s56.166 21 83.499 33v393h139v-540h-117l-8 64h-4l-68.5 -34
c-19.667 -9.33301 -38 -17 -55 -23s-34.167 -10.333 -51.5 -13s-36.666 -4 -57.999 -4z" />
    <glyph glyph-name="ucircumflex" unicode="&#xfb;" horiz-adv-x="639" 
d="M134 716l184 76l188 -76v-97l-186 75l-186 -75v97zM211 -10c-48.667 0 -85.499 12.833 -110.499 38.5s-37.5 62.5 -37.5 110.5v401h139v-358c0 -30 5.16699 -51.333 15.5 -64s28.166 -19 53.499 -19c24.667 0 51.167 5 79.5 15s56.166 21 83.499 33v393h139v-540h-117
l-8 64h-4l-68.5 -34c-19.667 -9.33301 -38 -17 -55 -23s-34.167 -10.333 -51.5 -13s-36.666 -4 -57.999 -4z" />
    <glyph glyph-name="udieresis" unicode="&#xfc;" horiz-adv-x="639" 
d="M189 633c-24.667 0 -42.834 5.5 -54.501 16.5s-17.5 28.833 -17.5 53.5s5.83301 42.5 17.5 53.5s29.834 16.5 54.501 16.5c25.333 0 43.666 -5.83301 54.999 -17.5s17 -29.167 17 -52.5c0 -24.667 -5.66699 -42.5 -17 -53.5s-29.666 -16.5 -54.999 -16.5zM445 633
c-24.667 0 -42.834 5.5 -54.501 16.5s-17.5 28.833 -17.5 53.5s5.83301 42.5 17.5 53.5s29.834 16.5 54.501 16.5c25.333 0 43.666 -5.83301 54.999 -17.5s17 -29.167 17 -52.5c0 -24.667 -5.66699 -42.5 -17 -53.5s-29.666 -16.5 -54.999 -16.5zM211 -10
c-48.667 0 -85.499 12.833 -110.499 38.5s-37.5 62.5 -37.5 110.5v401h139v-358c0 -30 5.16699 -51.333 15.5 -64s28.166 -19 53.499 -19c24.667 0 51.167 5 79.5 15s56.166 21 83.499 33v393h139v-540h-117l-8 64h-4l-68.5 -34c-19.667 -9.33301 -38 -17 -55 -23
s-34.167 -10.333 -51.5 -13s-36.666 -4 -57.999 -4z" />
    <glyph glyph-name="yacute" unicode="&#xfd;" horiz-adv-x="604" 
d="M154 -200l-1 12l79 195l-223 518v15h149l112 -302l28 -92h8l28 92l116 302h145v-15l-311 -745zM254 617l68 187h142l-111 -195z" />
    <glyph glyph-name="thorn" unicode="&#xfe;" horiz-adv-x="637" 
d="M66 808l139 0.000976562v-322c18 18 41.167 33 69.5 45s63.5 18 105.5 18c74 0 128.5 -21.833 163.5 -65.5s52.5 -112.167 52.5 -205.5c0 -94.667 -24 -166.334 -72 -215.001s-123 -73 -225 -73c-11.333 0 -26 1 -44 3s-34.667 3.66699 -50 5v-218h-139v1028zM299 84.001
c28.667 0 53.002 2.33203 73.002 6.99902s36.167 13.5 48.5 26.5s21.333 31.333 27 55s8.5 54.5 8.5 92.5s-2.33301 69 -7 93s-11.834 42.833 -21.501 56.5s-22.334 23 -38.001 28s-34.5 7.5 -56.5 7.5c-47.333 0 -80.5 -14.5 -99.5 -43.5s-28.5 -74.5 -28.5 -136.5v-171
c17.333 -5.33301 34.833 -9.16602 52.5 -11.499s31.5 -3.5 41.5 -3.5z" />
    <glyph glyph-name="ydieresis" unicode="&#xff;" horiz-adv-x="604" 
d="M154 -200l-1 12l79 195l-223 518v15h149l112 -302l28 -92h8l28 92l116 302h145v-15l-311 -745zM174 633c-24.667 0 -42.834 5.5 -54.501 16.5s-17.5 28.833 -17.5 53.5s5.83301 42.5 17.5 53.5s29.834 16.5 54.501 16.5c25.333 0 43.666 -5.83301 54.999 -17.5
s17 -29.167 17 -52.5c0 -24.667 -5.66699 -42.5 -17 -53.5s-29.666 -16.5 -54.999 -16.5zM430 633c-24.667 0 -42.834 5.5 -54.501 16.5s-17.5 28.833 -17.5 53.5s5.83301 42.5 17.5 53.5s29.834 16.5 54.501 16.5c25.333 0 43.666 -5.83301 54.999 -17.5
s17 -29.167 17 -52.5c0 -24.667 -5.66699 -42.5 -17 -53.5s-29.666 -16.5 -54.999 -16.5z" />
    <glyph glyph-name="Amacron" unicode="&#x100;" horiz-adv-x="719" 
d="M2 8l252 732h211l252 -732v-8h-138l-67 193h-306l-66 -193h-138v8zM478 305l-67 196l-46 139h-12l-45 -139l-68 -196h238zM176 937h366v-96h-366v96z" />
    <glyph glyph-name="amacron" unicode="&#x101;" horiz-adv-x="567" 
d="M186 -5c-50 0 -87.833 13 -113.5 39s-38.5 63 -38.5 111c0 53.333 16.5 93.833 49.5 121.5s84.833 44.167 155.5 49.5l127 9v18c0 20 -1.66699 36.5 -5 49.5s-9.5 23.5 -18.5 31.5s-21.333 13.667 -37 17s-35.834 5 -60.501 5c-23.333 0 -49.666 -1.5 -78.999 -4.5
s-59 -7.5 -89 -13.5l-9 99c74.667 13.333 141.667 20 201 20c80.667 0 140.167 -14.667 178.5 -44s57.5 -75 57.5 -137v-366h-114l-13 67h-8c-58 -48 -119.333 -72 -184 -72zM243 93c20 0 41 4.33203 63 12.999s42 19.334 60 32.001v111l-85 -8
c-40 -3.33301 -67.833 -11 -83.5 -23s-23.5 -31.333 -23.5 -58c0 -44.667 23 -67 69 -67zM105 736.999h369v-93h-369v93z" />
    <glyph glyph-name="Abreve" unicode="&#x102;" horiz-adv-x="719" 
d="M2 8l252 732h211l252 -732v-8h-138l-67 193h-306l-66 -193h-138v8zM478 305l-67 196l-46 139h-12l-45 -139l-68 -196h238zM360 810c-36 0 -66.834 4.16699 -92.501 12.5s-46.834 19.833 -63.501 34.5s-28.834 32.167 -36.501 52.5s-11.5 42.5 -11.5 66.5h96
c0 -30.667 8.33301 -54 25 -70s44.334 -24 83.001 -24s66.334 8 83.001 24s25 39.333 25 70h96c0 -49.333 -16.167 -89.333 -48.5 -120s-84.166 -46 -155.499 -46z" />
    <glyph glyph-name="abreve" unicode="&#x103;" horiz-adv-x="567" 
d="M186 -5c-50 0 -87.833 13 -113.5 39s-38.5 63 -38.5 111c0 53.333 16.5 93.833 49.5 121.5s84.833 44.167 155.5 49.5l127 9v18c0 20 -1.66699 36.5 -5 49.5s-9.5 23.5 -18.5 31.5s-21.333 13.667 -37 17s-35.834 5 -60.501 5c-23.333 0 -49.666 -1.5 -78.999 -4.5
s-59 -7.5 -89 -13.5l-9 99c74.667 13.333 141.667 20 201 20c80.667 0 140.167 -14.667 178.5 -44s57.5 -75 57.5 -137v-366h-114l-13 67h-8c-58 -48 -119.333 -72 -184 -72zM243 93c20 0 41 4.33203 63 12.999s42 19.334 60 32.001v111l-85 -8
c-40 -3.33301 -67.833 -11 -83.5 -23s-23.5 -31.333 -23.5 -58c0 -44.667 23 -67 69 -67zM286 614.999c-36.667 0 -67.832 4.00098 -93.499 12.001s-46.667 19.333 -63 34s-28.333 32.167 -36 52.5s-11.5 43.166 -11.5 68.499h95c0 -32.667 8.66699 -56.667 26 -72
s45 -23 83 -23s65.5 7.66699 82.5 23s25.5 39.333 25.5 72h96c0 -25.333 -3.83301 -48.333 -11.5 -69s-19.667 -38.167 -36 -52.5s-37.333 -25.5 -63 -33.5s-56.834 -12 -93.501 -12z" />
    <glyph glyph-name="Aogonek" unicode="&#x104;" horiz-adv-x="718" 
d="M635 -220c-42 0 -73.998 7.50098 -95.998 22.501s-33 37.5 -33 67.5c0 47.333 32.333 90.666 97 129.999h-24l-67 193h-306l-66 -193h-138v8l252 732h211l252 -732v-21c-43.333 -18.667 -74 -36.167 -92 -52.5s-27 -32.5 -27 -48.5c0 -19.333 13 -29 39 -29
c9.33301 0 21.666 1.33301 36.999 4s29.666 5.66699 42.999 9v-78c-24 -8 -51.333 -12 -82 -12zM478.002 305.001l-67 196l-46 139h-12l-45 -139l-68 -196h238z" />
    <glyph glyph-name="aogonek" unicode="&#x105;" horiz-adv-x="567" 
d="M423 -220c-42 0 -73.998 7.50098 -95.998 22.501s-33 37.5 -33 67.5c0 47.333 32.333 90.666 97 129.999l-13 67h-8c-58 -48 -119.333 -72 -184 -72c-50 0 -87.833 13 -113.5 39s-38.5 63 -38.5 111c0 53.333 16.5 93.833 49.5 121.5s84.833 44.167 155.5 49.5l127 9v18
c0 20 -1.66699 36.5 -5 49.5s-9.5 23.5 -18.5 31.5s-21.333 13.667 -37 17s-35.834 5 -60.501 5c-23.333 0 -49.666 -1.5 -78.999 -4.5s-59 -7.5 -89 -13.5l-9 99c74.667 13.333 141.667 20 201 20c80.667 0 140.167 -14.667 178.5 -44s57.5 -75 57.5 -137v-379
c-43.333 -18.667 -74 -36.167 -92 -52.5s-27 -32.5 -27 -48.5c0 -19.333 13 -29 39 -29c9.33301 0 21.666 1.33301 36.999 4s29.666 5.66699 42.999 9v-78c-24 -8 -51.333 -12 -82 -12zM243.002 93.001c20 0 41 4.33203 63 12.999s42 19.334 60 32.001v111l-85 -8
c-40 -3.33301 -67.833 -11 -83.5 -23s-23.5 -31.333 -23.5 -58c0 -44.667 23 -67 69 -67z" />
    <glyph glyph-name="Cacute" unicode="&#x106;" horiz-adv-x="599" 
d="M401 -11c-120.667 0 -210.335 31.168 -269.002 93.501s-88 157.833 -88 286.5s29 224.5 87 287.5s145.667 94.5 263 94.5c22.667 0 48.167 -1.33301 76.5 -4s59.5 -6.66699 93.5 -12v-115c-18.667 2.66699 -35.334 4.83398 -50.001 6.50098s-28 3 -40 4
s-23.167 1.83301 -33.5 2.5s-20.5 1 -30.5 1c-40 0 -74.167 -4.66699 -102.5 -14s-51.166 -24.5 -68.499 -45.5s-30 -48.333 -38 -82s-12 -74.834 -12 -123.501c0 -48 4 -88.667 12 -122s20.5 -60.5 37.5 -81.5s39.167 -36.167 66.5 -45.5s60.666 -14 99.999 -14
c10.667 0 23.334 0.5 38.001 1.5s29.334 2.16699 44.001 3.5s28.834 3.16602 42.501 5.49902s25.167 4.5 34.5 6.5v-114c-23.333 -6 -50 -10.833 -80 -14.5s-57.667 -5.5 -83 -5.5zM287.999 809.001l69 160h144l-110 -168z" />
    <glyph glyph-name="cacute" unicode="&#x107;" horiz-adv-x="502" 
d="M238 617l68 187h142l-111 -195zM310 -9c-180 0 -270 92.999 -270 278.999s90 279 270 279c25.333 0 51.5 -1.33301 78.5 -4s51.167 -6.66699 72.5 -12v-111c-24 4 -47.667 7.16699 -71 9.5s-45.666 3.5 -66.999 3.5c-50.667 0 -87.334 -13 -110.001 -39
s-34 -67.667 -34 -125c0 -58.667 11 -101 33 -127s58.667 -39 110 -39c27.333 0 51.5 0.833008 72.5 2.5s43.167 4.83398 66.5 9.50098v-110c-19.333 -5.33301 -42.5 -9.33301 -69.5 -12s-54.167 -4 -81.5 -4z" />
    <glyph glyph-name="Ccircumflex" unicode="&#x108;" horiz-adv-x="599" 
d="M401 -11c-120.667 0 -210.335 31.168 -269.002 93.501s-88 157.833 -88 286.5s29 224.5 87 287.5s145.667 94.5 263 94.5c22.667 0 48.167 -1.33301 76.5 -4s59.5 -6.66699 93.5 -12v-115c-18.667 2.66699 -35.334 4.83398 -50.001 6.50098s-28 3 -40 4
s-23.167 1.83301 -33.5 2.5s-20.5 1 -30.5 1c-40 0 -74.167 -4.66699 -102.5 -14s-51.166 -24.5 -68.499 -45.5s-30 -48.333 -38 -82s-12 -74.834 -12 -123.501c0 -48 4 -88.667 12 -122s20.5 -60.5 37.5 -81.5s39.167 -36.167 66.5 -45.5s60.666 -14 99.999 -14
c10.667 0 23.334 0.5 38.001 1.5s29.334 2.16699 44.001 3.5s28.834 3.16602 42.501 5.49902s25.167 4.5 34.5 6.5v-114c-23.333 -6 -50 -10.833 -80 -14.5s-57.667 -5.5 -83 -5.5zM158.999 903.001l185 76l187 -76v-98l-186 76l-186 -76v98z" />
    <glyph glyph-name="ccircumflex" unicode="&#x109;" horiz-adv-x="502" 
d="M101 716l184 76l188 -76v-97l-186 75l-186 -75v97zM310 -9c-180 0 -270 92.999 -270 278.999s90 279 270 279c25.333 0 51.5 -1.33301 78.5 -4s51.167 -6.66699 72.5 -12v-111c-24 4 -47.667 7.16699 -71 9.5s-45.666 3.5 -66.999 3.5
c-50.667 0 -87.334 -13 -110.001 -39s-34 -67.667 -34 -125c0 -58.667 11 -101 33 -127s58.667 -39 110 -39c27.333 0 51.5 0.833008 72.5 2.5s43.167 4.83398 66.5 9.50098v-110c-19.333 -5.33301 -42.5 -9.33301 -69.5 -12s-54.167 -4 -81.5 -4z" />
    <glyph glyph-name="Cdotaccent" unicode="&#x10a;" horiz-adv-x="599" 
d="M357 806c-28 0 -48.333 6 -61 18s-19 32 -19 60s6.33301 48 19 60s33 18 61 18s48.333 -6.16699 61 -18.5s19 -32.166 19 -59.499c0 -26.667 -6.33301 -46.334 -19 -59.001s-33 -19 -61 -19zM401 -11c-120.667 0 -210.335 31.168 -269.002 93.501s-88 157.833 -88 286.5
s29 224.5 87 287.5s145.667 94.5 263 94.5c22.667 0 48.167 -1.33301 76.5 -4s59.5 -6.66699 93.5 -12v-115c-18.667 2.66699 -35.334 4.83398 -50.001 6.50098s-28 3 -40 4s-23.167 1.83301 -33.5 2.5s-20.5 1 -30.5 1c-40 0 -74.167 -4.66699 -102.5 -14
s-51.166 -24.5 -68.499 -45.5s-30 -48.333 -38 -82s-12 -74.834 -12 -123.501c0 -48 4 -88.667 12 -122s20.5 -60.5 37.5 -81.5s39.167 -36.167 66.5 -45.5s60.666 -14 99.999 -14c10.667 0 23.334 0.5 38.001 1.5s29.334 2.16699 44.001 3.5s28.834 3.16602 42.501 5.49902
s25.167 4.5 34.5 6.5v-114c-23.333 -6 -50 -10.833 -80 -14.5s-57.667 -5.5 -83 -5.5z" />
    <glyph glyph-name="cdotaccent" unicode="&#x10b;" horiz-adv-x="502" 
d="M310 -9c-180 0 -270 92.999 -270 278.999s90 279 270 279c25.333 0 51.5 -1.33301 78.5 -4s51.167 -6.66699 72.5 -12v-111c-24 4 -47.667 7.16699 -71 9.5s-45.666 3.5 -66.999 3.5c-50.667 0 -87.334 -13 -110.001 -39s-34 -67.667 -34 -125c0 -58.667 11 -101 33 -127
s58.667 -39 110 -39c27.333 0 51.5 0.833008 72.5 2.5s43.167 4.83398 66.5 9.50098v-110c-19.333 -5.33301 -42.5 -9.33301 -69.5 -12s-54.167 -4 -81.5 -4zM282 624.999c-28 0 -48.333 6.16895 -61 18.502s-19 32.166 -19 59.499s6.33301 47.166 19 59.499
s33 18.5 61 18.5c53.333 0 80 -26 80 -78s-26.667 -78 -80 -78z" />
    <glyph glyph-name="Ccaron" unicode="&#x10c;" horiz-adv-x="599" 
d="M401 -11c-120.667 0 -210.335 31.168 -269.002 93.501s-88 157.833 -88 286.5s29 224.5 87 287.5s145.667 94.5 263 94.5c22.667 0 48.167 -1.33301 76.5 -4s59.5 -6.66699 93.5 -12v-115c-18.667 2.66699 -35.334 4.83398 -50.001 6.50098s-28 3 -40 4
s-23.167 1.83301 -33.5 2.5s-20.5 1 -30.5 1c-40 0 -74.167 -4.66699 -102.5 -14s-51.166 -24.5 -68.499 -45.5s-30 -48.333 -38 -82s-12 -74.834 -12 -123.501c0 -48 4 -88.667 12 -122s20.5 -60.5 37.5 -81.5s39.167 -36.167 66.5 -45.5s60.666 -14 99.999 -14
c10.667 0 23.334 0.5 38.001 1.5s29.334 2.16699 44.001 3.5s28.834 3.16602 42.501 5.49902s25.167 4.5 34.5 6.5v-114c-23.333 -6 -50 -10.833 -80 -14.5s-57.667 -5.5 -83 -5.5zM160.999 977.001l186 -76l186 76v-98l-187 -76l-185 76v98z" />
    <glyph glyph-name="ccaron" unicode="&#x10d;" horiz-adv-x="502" 
d="M96 787l186 -76l186 76v-98l-187 -76l-185 76v98zM310 -9c-180 0 -270 92.999 -270 278.999s90 279 270 279c25.333 0 51.5 -1.33301 78.5 -4s51.167 -6.66699 72.5 -12v-111c-24 4 -47.667 7.16699 -71 9.5s-45.666 3.5 -66.999 3.5c-50.667 0 -87.334 -13 -110.001 -39
s-34 -67.667 -34 -125c0 -58.667 11 -101 33 -127s58.667 -39 110 -39c27.333 0 51.5 0.833008 72.5 2.5s43.167 4.83398 66.5 9.50098v-110c-19.333 -5.33301 -42.5 -9.33301 -69.5 -12s-54.167 -4 -81.5 -4z" />
    <glyph glyph-name="Dcaron" unicode="&#x10e;" horiz-adv-x="757" 
d="M176 977l186 -76l186 76v-98l-187 -76l-185 76v98zM284 -11c-39.333 0 -77.6699 1.16699 -115.003 3.5s-67.666 5.83301 -90.999 10.5v735c46 3.33301 89.5 6 130.5 8s75.833 3 104.5 3c69.333 0 129.333 -7.5 180 -22.5s92.334 -38 125.001 -69
s56.834 -70.333 72.501 -118s23.5 -104.5 23.5 -170.5c0 -67.333 -8.16699 -124.833 -24.5 -172.5s-41.833 -87 -76.5 -118s-79.167 -53.667 -133.5 -68s-119.5 -21.5 -195.5 -21.5zM334.996 103c42 0 77.668 4.83301 107.001 14.5s53.5 25.167 72.5 46.5s32.833 49 41.5 83
s13 75 13 123s-4.33301 88.667 -13 122s-22.5 60.666 -41.5 81.999s-43.5 36.833 -73.5 46.5s-66.333 14.5 -109 14.5c-15.333 0 -32.833 -0.666992 -52.5 -2s-39.834 -3 -60.501 -5v-516c21.333 -3.33301 41 -5.66602 59 -6.99902s37 -2 57 -2z" />
    <glyph glyph-name="dcaron" unicode="&#x10f;" horiz-adv-x="639" 
d="M631 808h111l-38 -228h-73v228zM267 -10c-74.667 0 -131.166 22 -169.499 66s-57.5 112.333 -57.5 205c0 48 6.66699 90.167 20 126.5s32.5 66.5 57.5 90.5s55.333 42 91 54s75.5 18 119.5 18c19.333 0 37.666 -0.833008 54.999 -2.5s34 -3.16699 50 -4.5v265h139v-808
h-122l-11 66h-7c-36 -50.667 -91 -76 -165 -76zM306.001 94c37.333 0 67.832 9.66797 91.499 29.001s35.5 48.666 35.5 87.999v230c-15.333 2.66699 -32 5 -50 7s-37.667 3 -59 3c-25.333 0 -47.166 -3 -65.499 -9s-33.333 -16.167 -45 -30.5s-20.167 -33 -25.5 -56
s-8 -51.5 -8 -85.5c0 -32.667 2.33301 -60.167 7 -82.5s12 -40.5 22 -54.5s23 -24 39 -30s35.333 -9 58 -9z" />
    <glyph glyph-name="Dcroat" unicode="&#x110;" horiz-adv-x="775" 
d="M4 426h91.9961v312c46 3.33301 89.5 6 130.5 8s75.833 3 104.5 3c69.333 0 129.333 -7.5 180 -22.5s92.334 -38 125.001 -69s56.834 -70.333 72.501 -118s23.5 -104.5 23.5 -170.5c0 -67.333 -8.16699 -124.833 -24.5 -172.5s-41.833 -87 -76.5 -118
s-79.167 -53.667 -133.5 -68s-119.5 -21.5 -195.5 -21.5c-39.333 0 -77.666 1.16699 -114.999 3.5s-67.666 5.83301 -90.999 10.5v314h-92v109zM352.996 103c42 0 77.668 4.83301 107.001 14.5s53.5 25.167 72.5 46.5s32.833 49 41.5 83s13 75 13 123
s-4.33301 88.667 -13 122s-22.5 60.666 -41.5 81.999s-43.5 36.833 -73.5 46.5s-66.333 14.5 -109 14.5c-15.333 0 -32.833 -0.666992 -52.5 -2s-39.834 -3 -60.501 -5v-202h146v-109h-146v-205c21.333 -3.33301 41 -5.66602 59 -6.99902s37 -2 57 -2z" />
    <glyph glyph-name="dcroat" unicode="&#x111;" horiz-adv-x="639" 
d="M256 715h177.001v93h139v-93h75v-82h-75v-633h-122l-11 66h-7c-36 -50.667 -91 -76 -165 -76c-74.667 0 -131.167 22 -169.5 66s-57.5 112.333 -57.5 205c0 48 6.66699 90.167 20 126.5s32.5 66.5 57.5 90.5s55.333 42 91 54s75.5 18 119.5 18
c19.333 0 37.666 -0.833008 54.999 -2.5s34 -3.16699 50 -4.5v90h-177v82zM306.001 94c37.333 0 67.832 9.66797 91.499 29.001s35.5 48.666 35.5 87.999v230c-15.333 2.66699 -32 5 -50 7s-37.667 3 -59 3c-25.333 0 -47.166 -3 -65.499 -9s-33.333 -16.167 -45 -30.5
s-20.167 -33 -25.5 -56s-8 -51.5 -8 -85.5c0 -32.667 2.33301 -60.167 7 -82.5s12 -40.5 22 -54.5s23 -24 39 -30s35.333 -9 58 -9z" />
    <glyph glyph-name="Emacron" unicode="&#x112;" horiz-adv-x="643" 
d="M154 937h366v-96h-366v96zM78 740h513v-112h-371v-199h340v-112h-340v-205h380v-112h-522v740z" />
    <glyph glyph-name="emacron" unicode="&#x113;" horiz-adv-x="574" 
d="M310 -9c-179.333 0 -269 91.333 -269 274c0 93.333 22.5 164 67.5 212s111.167 72 198.5 72c151.333 0 227 -80.333 227 -241c0 -16 -0.5 -30.333 -1.5 -43s-3.16699 -24.667 -6.5 -36h-348c2 -24.667 6.16699 -45.334 12.5 -62.001s15.333 -30.167 27 -40.5
s26.167 -17.666 43.5 -21.999s38.333 -6.5 63 -6.5c28 0 58.833 2.16699 92.5 6.5s64.5 10.5 92.5 18.5l5 -101c-30 -9.33301 -63 -16.833 -99 -22.5s-71 -8.5 -105 -8.5zM302 450c-39.333 0 -69 -11.1689 -89 -33.502s-31.667 -58.166 -35 -107.499h233
c-1.33301 50.667 -10.5 86.834 -27.5 108.501s-44.167 32.5 -81.5 32.5zM112 736.998h369v-93h-369v93z" />
    <glyph glyph-name="Ebreve" unicode="&#x114;" horiz-adv-x="643" 
d="M331 810c-36 0 -66.834 4.16699 -92.501 12.5s-46.834 19.833 -63.501 34.5s-28.834 32.167 -36.501 52.5s-11.5 42.5 -11.5 66.5h96c0 -30.667 8.33301 -54 25 -70s44.334 -24 83.001 -24s66.334 8 83.001 24s25 39.333 25 70h96c0 -49.333 -16.167 -89.333 -48.5 -120
s-84.166 -46 -155.499 -46zM77.999 740h513v-112h-371v-199h340v-112h-340v-205h380v-112h-522v740z" />
    <glyph glyph-name="ebreve" unicode="&#x115;" horiz-adv-x="574" 
d="M310 -9c-179.333 0 -269 91.333 -269 274c0 93.333 22.5 164 67.5 212s111.167 72 198.5 72c151.333 0 227 -80.333 227 -241c0 -16 -0.5 -30.333 -1.5 -43s-3.16699 -24.667 -6.5 -36h-348c2 -24.667 6.16699 -45.334 12.5 -62.001s15.333 -30.167 27 -40.5
s26.167 -17.666 43.5 -21.999s38.333 -6.5 63 -6.5c28 0 58.833 2.16699 92.5 6.5s64.5 10.5 92.5 18.5l5 -101c-30 -9.33301 -63 -16.833 -99 -22.5s-71 -8.5 -105 -8.5zM302 450c-39.333 0 -69 -11.1689 -89 -33.502s-31.667 -58.166 -35 -107.499h233
c-1.33301 50.667 -10.5 86.834 -27.5 108.501s-44.167 32.5 -81.5 32.5zM296 614.998c-36.667 0 -67.832 4.00098 -93.499 12.001s-46.667 19.333 -63 34s-28.333 32.167 -36 52.5s-11.5 43.166 -11.5 68.499h95c0 -32.667 8.66699 -56.667 26 -72s45 -23 83 -23
s65.5 7.66699 82.5 23s25.5 39.333 25.5 72h96c0 -25.333 -3.83301 -48.333 -11.5 -69s-19.667 -38.167 -36 -52.5s-37.333 -25.5 -63 -33.5s-56.834 -12 -93.501 -12z" />
    <glyph glyph-name="Edotaccent" unicode="&#x116;" horiz-adv-x="643" 
d="M331 806c-28 0 -48.333 6 -61 18s-19 32 -19 60s6.33301 48 19 60s33 18 61 18s48.333 -6.16699 61 -18.5s19 -32.166 19 -59.499c0 -26.667 -6.33301 -46.334 -19 -59.001s-33 -19 -61 -19zM78 740h513v-112h-371v-199h340v-112h-340v-205h380v-112h-522v740z" />
    <glyph glyph-name="edotaccent" unicode="&#x117;" horiz-adv-x="574" 
d="M310 -9c-179.333 0 -269 91.333 -269 274c0 93.333 22.5 164 67.5 212s111.167 72 198.5 72c151.333 0 227 -80.333 227 -241c0 -16 -0.5 -30.333 -1.5 -43s-3.16699 -24.667 -6.5 -36h-348c2 -24.667 6.16699 -45.334 12.5 -62.001s15.333 -30.167 27 -40.5
s26.167 -17.666 43.5 -21.999s38.333 -6.5 63 -6.5c28 0 58.833 2.16699 92.5 6.5s64.5 10.5 92.5 18.5l5 -101c-30 -9.33301 -63 -16.833 -99 -22.5s-71 -8.5 -105 -8.5zM302 450c-39.333 0 -69 -11.1689 -89 -33.502s-31.667 -58.166 -35 -107.499h233
c-1.33301 50.667 -10.5 86.834 -27.5 108.501s-44.167 32.5 -81.5 32.5zM300 624.998c-28 0 -48.333 6.16895 -61 18.502s-19 32.166 -19 59.499s6.33301 47.166 19 59.499s33 18.5 61 18.5c53.333 0 80 -26 80 -78s-26.667 -78 -80 -78z" />
    <glyph glyph-name="Eogonek" unicode="&#x118;" horiz-adv-x="643" 
d="M78 740l513.002 0.000976562v-112h-371v-199h340v-112h-340v-205h380v-125c-43.333 -18.667 -74 -36.167 -92 -52.5s-27 -32.5 -27 -48.5c0 -19.333 13 -29 39 -29c9.33301 0 21.666 1.33301 36.999 4s29.666 5.66699 42.999 9v-78c-24 -8 -51.333 -12 -82 -12
c-42 0 -74 7.5 -96 22.5s-33 37.5 -33 67.5c0 47.333 32.333 90.666 97 129.999h-408v740z" />
    <glyph glyph-name="eogonek" unicode="&#x119;" horiz-adv-x="575" 
d="M310 -9c-179.333 0 -268.998 91.333 -268.998 274c0 93.333 22.5 164 67.5 212s111.167 72 198.5 72c151.333 0 227 -80.333 227 -241c0 -16 -0.5 -30.333 -1.5 -43s-3.16699 -24.667 -6.5 -36h-348c2 -24.667 6.16699 -45.334 12.5 -62.001s15.333 -30.167 27 -40.5
s26.167 -17.666 43.5 -21.999s38.333 -6.5 63 -6.5c28 0 58.833 2.16699 92.5 6.5s64.5 10.5 92.5 18.5l5 -100v-13c-43.333 -18.667 -74 -36.167 -92 -52.5s-27 -32.5 -27 -48.5c0 -19.333 13 -29 39 -29c9.33301 0 21.666 1.33301 36.999 4s29.666 5.66699 42.999 9v-78
c-24 -8 -51.333 -12 -82 -12c-42 0 -74 7.5 -96 22.5s-33 37.5 -33 67.5c0 36.667 18 70 54 100c-8 -0.666992 -16 -1.16699 -24 -1.5s-15.667 -0.5 -23 -0.5zM302.002 450c-39.333 0 -69 -11.1689 -89 -33.502s-31.667 -58.166 -35 -107.499h233
c-1.33301 50.667 -10.5 86.834 -27.5 108.501s-44.167 32.5 -81.5 32.5z" />
    <glyph glyph-name="Ecaron" unicode="&#x11a;" horiz-adv-x="643" 
d="M151 977l186 -76l186 76v-98l-187 -76l-185 76v98zM78 740h513v-112h-371v-199h340v-112h-340v-205h380v-112h-522v740z" />
    <glyph glyph-name="ecaron" unicode="&#x11b;" horiz-adv-x="574" 
d="M114 787l186 -76l186 76v-98l-187 -76l-185 76v98zM310 -9c-179.333 0 -269 91.333 -269 274c0 93.333 22.5 164 67.5 212s111.167 72 198.5 72c151.333 0 227 -80.333 227 -241c0 -16 -0.5 -30.333 -1.5 -43s-3.16699 -24.667 -6.5 -36h-348
c2 -24.667 6.16699 -45.334 12.5 -62.001s15.333 -30.167 27 -40.5s26.167 -17.666 43.5 -21.999s38.333 -6.5 63 -6.5c28 0 58.833 2.16699 92.5 6.5s64.5 10.5 92.5 18.5l5 -101c-30 -9.33301 -63 -16.833 -99 -22.5s-71 -8.5 -105 -8.5zM302 450
c-39.333 0 -69 -11.1689 -89 -33.502s-31.667 -58.166 -35 -107.499h233c-1.33301 50.667 -10.5 86.834 -27.5 108.501s-44.167 32.5 -81.5 32.5z" />
    <glyph glyph-name="Gcircumflex" unicode="&#x11c;" horiz-adv-x="687" 
d="M406 -11c-122.667 0 -213.832 31.332 -273.499 93.999s-89.5 158 -89.5 286c0 254.667 125.667 382 377 382c32 0 66.167 -2 102.5 -6s69.833 -10 100.5 -18v-115c-42 8 -78.167 13.667 -108.5 17s-58.166 5 -83.499 5c-44.667 0 -82.334 -4.83301 -113.001 -14.5
s-55.5 -25 -74.5 -46s-32.833 -48.333 -41.5 -82s-13 -74.5 -13 -122.5c0 -47.333 4 -87.666 12 -120.999s20.667 -60.5 38 -81.5s40.166 -36.333 68.499 -46s62.5 -14.5 102.5 -14.5c12 0 26 0.5 42 1.5s32 2.5 48 4.5v264h131v-353
c-37.333 -10 -76.5 -18.167 -117.5 -24.5s-76.833 -9.5 -107.5 -9.5zM184.002 902.999l185 76l187 -76v-98l-186 76l-186 -76v98z" />
    <glyph glyph-name="gcircumflex" unicode="&#x11d;" horiz-adv-x="638" 
d="M147 716l184 76l188 -76v-97l-186 75l-186 -75v97zM282 -220c-36 0 -72.3301 1.99805 -108.997 5.99805s-68.334 9.66699 -95.001 17l9 102c24 -5.33301 51 -10.166 81 -14.499s60 -6.5 90 -6.5c26.667 0 51.167 2.5 73.5 7.5s41.666 13.667 57.999 26
s29.166 28.833 38.499 49.5s14 46.334 14 77.001v45h-7c-18 -27.333 -41 -47.333 -69 -60s-60.667 -19 -98 -19c-74.667 0 -131.334 20.833 -170.001 62.5s-58 106.5 -58 194.5c0 47.333 6.83301 88.666 20.5 123.999s33 64.833 58 88.5s55.333 41.334 91 53.001
s75.5 17.5 119.5 17.5c16 0 32.333 -0.5 49 -1.5s34.667 -3 54 -6s40.666 -7 63.999 -12s49 -11.5 77 -19.5v-450c0 -53.333 -7.83301 -98 -23.5 -134s-36.667 -64.833 -63 -86.5s-57.166 -37.167 -92.499 -46.5s-72.666 -14 -111.999 -14zM307.003 110.998
c38 0 68.665 9.83203 91.998 29.499s35 49.167 35 88.5v212c-15.333 2.66699 -32.166 5 -50.499 7s-37.833 3 -58.5 3c-25.333 0 -47.166 -3 -65.499 -9s-33.333 -15.667 -45 -29s-20.167 -31.166 -25.5 -53.499s-8 -49.833 -8 -82.5c0 -60.667 9.5 -103.5 28.5 -128.5
s51.5 -37.5 97.5 -37.5z" />
    <glyph glyph-name="Gbreve" unicode="&#x11e;" horiz-adv-x="687" 
d="M377 810c-36 0 -66.834 4.16699 -92.501 12.5s-46.834 19.833 -63.501 34.5s-28.834 32.167 -36.501 52.5s-11.5 42.5 -11.5 66.5h96c0 -30.667 8.33301 -54 25 -70s44.334 -24 83.001 -24s66.334 8 83.001 24s25 39.333 25 70h96c0 -49.333 -16.167 -89.333 -48.5 -120
s-84.166 -46 -155.499 -46zM405.999 -11c-122.667 0 -213.832 31.332 -273.499 93.999s-89.5 158 -89.5 286c0 254.667 125.667 382 377 382c32 0 66.167 -2 102.5 -6s69.833 -10 100.5 -18v-115c-42 8 -78.167 13.667 -108.5 17s-58.166 5 -83.499 5
c-44.667 0 -82.334 -4.83301 -113.001 -14.5s-55.5 -25 -74.5 -46s-32.833 -48.333 -41.5 -82s-13 -74.5 -13 -122.5c0 -47.333 4 -87.666 12 -120.999s20.667 -60.5 38 -81.5s40.166 -36.333 68.499 -46s62.5 -14.5 102.5 -14.5c12 0 26 0.5 42 1.5s32 2.5 48 4.5v264h131
v-353c-37.333 -10 -76.5 -18.167 -117.5 -24.5s-76.833 -9.5 -107.5 -9.5z" />
    <glyph glyph-name="gbreve" unicode="&#x11f;" horiz-adv-x="638" 
d="M282 -220c-36 0 -72.3301 1.99805 -108.997 5.99805s-68.334 9.66699 -95.001 17l9 102c24 -5.33301 51 -10.166 81 -14.499s60 -6.5 90 -6.5c26.667 0 51.167 2.5 73.5 7.5s41.666 13.667 57.999 26s29.166 28.833 38.499 49.5s14 46.334 14 77.001v45h-7
c-18 -27.333 -41 -47.333 -69 -60s-60.667 -19 -98 -19c-74.667 0 -131.334 20.833 -170.001 62.5s-58 106.5 -58 194.5c0 47.333 6.83301 88.666 20.5 123.999s33 64.833 58 88.5s55.333 41.334 91 53.001s75.5 17.5 119.5 17.5c16 0 32.333 -0.5 49 -1.5s34.667 -3 54 -6
s40.666 -7 63.999 -12s49 -11.5 77 -19.5v-450c0 -53.333 -7.83301 -98 -23.5 -134s-36.667 -64.833 -63 -86.5s-57.166 -37.167 -92.499 -46.5s-72.666 -14 -111.999 -14zM307.003 110.998c38 0 68.665 9.83203 91.998 29.499s35 49.167 35 88.5v212
c-15.333 2.66699 -32.166 5 -50.499 7s-37.833 3 -58.5 3c-25.333 0 -47.166 -3 -65.499 -9s-33.333 -15.667 -45 -29s-20.167 -31.166 -25.5 -53.499s-8 -49.833 -8 -82.5c0 -60.667 9.5 -103.5 28.5 -128.5s51.5 -37.5 97.5 -37.5zM325.001 614.997
c-36.667 0 -67.832 4.00098 -93.499 12.001s-46.667 19.333 -63 34s-28.333 32.167 -36 52.5s-11.5 43.166 -11.5 68.499h95c0 -32.667 8.66699 -56.667 26 -72s45 -23 83 -23s65.5 7.66699 82.5 23s25.5 39.333 25.5 72h96c0 -25.333 -3.83301 -48.333 -11.5 -69
s-19.667 -38.167 -36 -52.5s-37.333 -25.5 -63 -33.5s-56.834 -12 -93.501 -12z" />
    <glyph glyph-name="Gdotaccent" unicode="&#x120;" horiz-adv-x="687" 
d="M379 806c-28 0 -48.333 6 -61 18s-19 32 -19 60s6.33301 48 19 60s33 18 61 18s48.333 -6.16699 61 -18.5s19 -32.166 19 -59.499c0 -26.667 -6.33301 -46.334 -19 -59.001s-33 -19 -61 -19zM406 -11c-122.667 0 -213.832 31.332 -273.499 93.999s-89.5 158 -89.5 286
c0 254.667 125.667 382 377 382c32 0 66.167 -2 102.5 -6s69.833 -10 100.5 -18v-115c-42 8 -78.167 13.667 -108.5 17s-58.166 5 -83.499 5c-44.667 0 -82.334 -4.83301 -113.001 -14.5s-55.5 -25 -74.5 -46s-32.833 -48.333 -41.5 -82s-13 -74.5 -13 -122.5
c0 -47.333 4 -87.666 12 -120.999s20.667 -60.5 38 -81.5s40.166 -36.333 68.499 -46s62.5 -14.5 102.5 -14.5c12 0 26 0.5 42 1.5s32 2.5 48 4.5v264h131v-353c-37.333 -10 -76.5 -18.167 -117.5 -24.5s-76.833 -9.5 -107.5 -9.5z" />
    <glyph glyph-name="gdotaccent" unicode="&#x121;" horiz-adv-x="638" 
d="M282 -220c-36 0 -72.3301 1.99805 -108.997 5.99805s-68.334 9.66699 -95.001 17l9 102c24 -5.33301 51 -10.166 81 -14.499s60 -6.5 90 -6.5c26.667 0 51.167 2.5 73.5 7.5s41.666 13.667 57.999 26s29.166 28.833 38.499 49.5s14 46.334 14 77.001v45h-7
c-18 -27.333 -41 -47.333 -69 -60s-60.667 -19 -98 -19c-74.667 0 -131.334 20.833 -170.001 62.5s-58 106.5 -58 194.5c0 47.333 6.83301 88.666 20.5 123.999s33 64.833 58 88.5s55.333 41.334 91 53.001s75.5 17.5 119.5 17.5c16 0 32.333 -0.5 49 -1.5s34.667 -3 54 -6
s40.666 -7 63.999 -12s49 -11.5 77 -19.5v-450c0 -53.333 -7.83301 -98 -23.5 -134s-36.667 -64.833 -63 -86.5s-57.166 -37.167 -92.499 -46.5s-72.666 -14 -111.999 -14zM307.003 110.998c38 0 68.665 9.83203 91.998 29.499s35 49.167 35 88.5v212
c-15.333 2.66699 -32.166 5 -50.499 7s-37.833 3 -58.5 3c-25.333 0 -47.166 -3 -65.499 -9s-33.333 -15.667 -45 -29s-20.167 -31.166 -25.5 -53.499s-8 -49.833 -8 -82.5c0 -60.667 9.5 -103.5 28.5 -128.5s51.5 -37.5 97.5 -37.5zM327.001 624.997
c-28 0 -48.333 6.16895 -61 18.502s-19 32.166 -19 59.499s6.33301 47.166 19 59.499s33 18.5 61 18.5c53.333 0 80 -26 80 -78s-26.667 -78 -80 -78z" />
    <glyph glyph-name="Gcommaaccent" unicode="&#x122;" horiz-adv-x="687" 
d="M308 -70h144l-81 -150h-107zM406 -11c-122.667 0 -213.832 31.332 -273.499 93.999s-89.5 158 -89.5 286c0 254.667 125.667 382 377 382c32 0 66.167 -2 102.5 -6s69.833 -10 100.5 -18v-115c-42 8 -78.167 13.667 -108.5 17s-58.166 5 -83.499 5
c-44.667 0 -82.334 -4.83301 -113.001 -14.5s-55.5 -25 -74.5 -46s-32.833 -48.333 -41.5 -82s-13 -74.5 -13 -122.5c0 -47.333 4 -87.666 12 -120.999s20.667 -60.5 38 -81.5s40.166 -36.333 68.499 -46s62.5 -14.5 102.5 -14.5c12 0 26 0.5 42 1.5s32 2.5 48 4.5v264h131
v-353c-37.333 -10 -76.5 -18.167 -117.5 -24.5s-76.833 -9.5 -107.5 -9.5z" />
    <glyph glyph-name="gcommaaccent" unicode="&#x123;" horiz-adv-x="638" 
d="M468 785l-44 -150h-143l80 150h107zM282 -220c-36 0 -72.3301 1.99805 -108.997 5.99805s-68.334 9.66699 -95.001 17l9 102c24 -5.33301 51 -10.166 81 -14.499s60 -6.5 90 -6.5c26.667 0 51.167 2.5 73.5 7.5s41.666 13.667 57.999 26s29.166 28.833 38.499 49.5
s14 46.334 14 77.001v45h-7c-18 -27.333 -41 -47.333 -69 -60s-60.667 -19 -98 -19c-74.667 0 -131.334 20.833 -170.001 62.5s-58 106.5 -58 194.5c0 47.333 6.83301 88.666 20.5 123.999s33 64.833 58 88.5s55.333 41.334 91 53.001s75.5 17.5 119.5 17.5
c16 0 32.333 -0.5 49 -1.5s34.667 -3 54 -6s40.666 -7 63.999 -12s49 -11.5 77 -19.5v-450c0 -53.333 -7.83301 -98 -23.5 -134s-36.667 -64.833 -63 -86.5s-57.166 -37.167 -92.499 -46.5s-72.666 -14 -111.999 -14zM307.003 110.998c38 0 68.665 9.83203 91.998 29.499
s35 49.167 35 88.5v212c-15.333 2.66699 -32.166 5 -50.499 7s-37.833 3 -58.5 3c-25.333 0 -47.166 -3 -65.499 -9s-33.333 -15.667 -45 -29s-20.167 -31.166 -25.5 -53.499s-8 -49.833 -8 -82.5c0 -60.667 9.5 -103.5 28.5 -128.5s51.5 -37.5 97.5 -37.5z" />
    <glyph glyph-name="Hcircumflex" unicode="&#x124;" horiz-adv-x="798" 
d="M78 740h142v-305h358v305h141v-740h-141v323h-358v-323h-142v740zM210 903l185 76l187 -76v-98l-186 76l-186 -76v98z" />
    <glyph glyph-name="hcircumflex" unicode="&#x125;" horiz-adv-x="639" 
d="M148 920l184 76l188 -76v-97l-186 75l-186 -75v97zM66 808l139 0.000976562v-327c48 23.333 89.5 40.666 124.5 51.999s67.5 17 97.5 17c47.333 0 84 -12.667 110 -38s39 -62.333 39 -111v-401h-139v354c0 30 -5.83301 51.667 -17.5 65s-29.5 20 -53.5 20
c-20 0 -44 -4 -72 -12s-57.667 -19 -89 -33v-394h-139v808z" />
    <glyph glyph-name="Hbar" unicode="&#x126;" horiz-adv-x="815" 
d="M6 611h80v129h142v-129h358v129h141v-129h83v-70h-83v-541h-141v323h-358v-323h-142v541h-80v70zM586 435v106h-358v-106h358z" />
    <glyph glyph-name="hbar" unicode="&#x127;" horiz-adv-x="640" 
d="M-23 715l89 0.000976562v93h139v-93h162v-82h-162v-152c48 23.333 89.5 40.666 124.5 51.999s67.5 17 97.5 17c47.333 0 84 -12.667 110 -38s39 -62.333 39 -111v-401h-139v354c0 30 -5.83301 51.667 -17.5 65s-29.5 20 -53.5 20c-20 0 -44 -4 -72 -12
s-57.667 -19 -89 -33v-394h-139v633h-89v82z" />
    <glyph glyph-name="Itilde" unicode="&#x128;" horiz-adv-x="298" 
d="M78 740h142v-740h-142v740zM-67 858c21.333 34 44.832 59.666 70.499 76.999s50.834 26 75.501 26c16.667 0 32.667 -2.16699 48 -6.5s30.5 -9 45.5 -14s30.167 -9.5 45.5 -13.5s31 -6 47 -6c15.333 0 30.333 2.83301 45 8.5s30.667 15.5 48 29.5l23 -30
c-20 -34 -43.333 -59.667 -70 -77s-52.667 -26 -78 -26c-16 0 -31.667 2 -47 6s-30.5 8.5 -45.5 13.5s-30.167 9.5 -45.5 13.5s-30.666 6 -45.999 6s-30.333 -2.66699 -45 -8s-30.334 -14.666 -47.001 -27.999z" />
    <glyph glyph-name="itilde" unicode="&#x129;" horiz-adv-x="274" 
d="M-73 670c19.333 34 41.334 59.335 66.001 76.002s49 25 73 25c16 0 31.167 -2.16699 45.5 -6.5s28.666 -9.33301 42.999 -15s28.833 -10.667 43.5 -15s29.667 -6.5 45 -6.5c13.333 0 27 2.83301 41 8.5s29 15.5 45 29.5l25 -32c-20 -33.333 -42.667 -58.5 -68 -75.5
s-49.666 -25.5 -72.999 -25.5c-15.333 0 -30.333 2.16699 -45 6.5s-29.334 9.16602 -44.001 14.499s-29.167 10.166 -43.5 14.499s-28.833 6.5 -43.5 6.5c-14 0 -28 -2.83301 -42 -8.5s-28.667 -15.167 -44 -28.5zM68.001 540.002h139v-540h-139v540z" />
    <glyph glyph-name="Imacron" unicode="&#x12a;" horiz-adv-x="298" 
d="M78 740h142v-740h-142v740zM-31 937h366v-96h-366v96z" />
    <glyph glyph-name="imacron" unicode="&#x12b;" horiz-adv-x="274" 
d="M68 540h139v-540h-139v540zM-44 737h369v-93h-369v93z" />
    <glyph glyph-name="Ibreve" unicode="&#x12c;" horiz-adv-x="298" 
d="M78 740h142v-740h-142v740zM149 810c-36 0 -66.834 4.16699 -92.501 12.5s-46.834 19.833 -63.501 34.5s-28.834 32.167 -36.501 52.5s-11.5 42.5 -11.5 66.5h96c0 -30.667 8.33301 -54 25 -70s44.334 -24 83.001 -24s66.334 8 83.001 24s25 39.333 25 70h96
c0 -49.333 -16.167 -89.333 -48.5 -120s-84.166 -46 -155.499 -46z" />
    <glyph glyph-name="ibreve" unicode="&#x12d;" horiz-adv-x="274" 
d="M139 615c-30.667 0 -56.833 4.00098 -78.5 12.001s-39.5 19.333 -53.5 34s-24.5 32.167 -31.5 52.5s-10.5 43.166 -10.5 68.499h79c0 -32.667 7.33301 -56.667 22 -72s39 -23 73 -23s58.5 7.66699 73.5 23s22.5 39.333 22.5 72h78
c-0.666992 -50.667 -14.5 -91.167 -41.5 -121.5s-71.167 -45.5 -132.5 -45.5zM68.001 540.001h139v-540h-139v540z" />
    <glyph glyph-name="Iogonek" unicode="&#x12e;" horiz-adv-x="298" 
d="M78 740l142.002 0.000976562v-753c-43.333 -18.667 -74 -36.167 -92 -52.5s-27 -32.5 -27 -48.5c0 -19.333 13 -29 39 -29c9.33301 0 21.666 1.33301 36.999 4s29.666 5.66699 42.999 9v-78c-24 -8 -51.333 -12 -82 -12c-42 0 -74 7.5 -96 22.5s-33 37.5 -33 67.5
c0 47.333 32.333 90.666 97 129.999h-28v740z" />
    <glyph glyph-name="iogonek" unicode="&#x12f;" horiz-adv-x="273" 
d="M67 540l139.002 0.000976562v-553c-43.333 -18.667 -74 -36.167 -92 -52.5s-27 -32.5 -27 -48.5c0 -19.333 13 -29 39 -29c9.33301 0 21.666 1.33301 36.999 4s29.666 5.66699 42.999 9v-78c-24 -8 -51.333 -12 -82 -12c-42 0 -74 7.5 -96 22.5s-33 37.5 -33 67.5
c0 47.333 32.333 90.666 97 129.999h-25v540zM136.002 630.001c-28 0 -48 6 -60 18s-18 31.333 -18 58s6 46.167 18 58.5s32 18.5 60 18.5s48.333 -6.33301 61 -19s19 -32 19 -58c0 -25.333 -6.16699 -44.333 -18.5 -57s-32.833 -19 -61.5 -19z" />
    <glyph glyph-name="Idotaccent" unicode="&#x130;" horiz-adv-x="298" 
d="M78 740h142v-740h-142v740zM150 806c-28 0 -48.333 6 -61 18s-19 32 -19 60s6.33301 48 19 60s33 18 61 18s48.333 -6.16699 61 -18.5s19 -32.166 19 -59.499c0 -26.667 -6.33301 -46.334 -19 -59.001s-33 -19 -61 -19z" />
    <glyph glyph-name="dotlessi" unicode="&#x131;" horiz-adv-x="273" 
d="M67 540h139v-540h-139v540z" />
    <glyph glyph-name="IJ" unicode="&#x132;" horiz-adv-x="595" 
d="M78 740h142v-740h-142v740zM301 -159c14.667 32.667 27 63 37 91s18 55.5 24 82.5s10.167 54.833 12.5 83.5s3.5 60 3.5 94v548h142v-558c0 -34 -2.16699 -66 -6.5 -96s-11.5 -60 -21.5 -90s-23 -60.833 -39 -92.5s-36 -66.167 -60 -103.5z" />
    <glyph glyph-name="ij" unicode="&#x133;" horiz-adv-x="543" 
d="M136 630c-28 0 -48 6 -60 18s-18 31.333 -18 58s6 46.167 18 58.5s32 18.5 60 18.5s48.333 -6.33301 61 -19s19 -32 19 -58c0 -25.333 -6.16699 -44.333 -18.5 -57s-32.833 -19 -61.5 -19zM67 540h139v-540h-139v540zM407 630c-28 0 -48.167 6 -60.5 18
s-18.5 31.333 -18.5 58s6.16699 46.167 18.5 58.5s32.5 18.5 60.5 18.5s48.167 -6.33301 60.5 -19s18.5 -32 18.5 -58c0 -25.333 -6.16699 -44.333 -18.5 -57s-32.5 -19 -60.5 -19zM286 -198c10 25.333 18.3311 50.3291 24.998 74.9961s12.334 50.334 17.001 77.001
s8 55.5 10 86.5s3 65.5 3 103.5v33.5v63.5v80c0 28.667 -0.166992 56.834 -0.5 84.501s-0.666016 53.334 -0.999023 77.001s-0.5 42.834 -0.5 57.501h139v-461c-3.33301 -54 -12.833 -106.333 -28.5 -157s-36.5 -98 -62.5 -142z" />
    <glyph glyph-name="Jcircumflex" unicode="&#x134;" horiz-adv-x="297" 
d="M3 -159c14.667 32.667 27 63 37 91s18 55.5 24 82.5s10.167 54.833 12.5 83.5s3.5 60 3.5 94v548h142v-558c0 -34 -2.16699 -66 -6.5 -96s-11.5 -60 -21.5 -90s-23 -60.833 -39 -92.5s-36 -66.167 -60 -103.5zM-33 903l185 76l187 -76v-98l-186 76l-186 -76v98z" />
    <glyph glyph-name="jcircumflex" unicode="&#x135;" horiz-adv-x="270" 
d="M-43 718l176 76l178 -76v-98l-177 76l-177 -76v98zM12 -200c10 27.333 18.668 53.501 26.001 78.501s13.166 51.167 17.499 78.5s7.5 56.833 9.5 88.5s3 68.167 3 109.5v34v57v72.5c0 26.333 -0.166992 52.666 -0.5 78.999l-1 76.5c-0.333008 24.667 -0.5 46.667 -0.5 66
h138v-461c-6.66699 -108 -36.667 -207.667 -90 -299z" />
    <glyph glyph-name="Kcommaaccent" unicode="&#x136;" horiz-adv-x="707" 
d="M279 -70h144l-81 -150h-107zM78 740h142v-309h119l193 309h159l-214 -327l-42 -26v-7l45 -26l228 -354h-158l-201 319h-129v-319h-142v740z" />
    <glyph glyph-name="kcommaaccent" unicode="&#x137;" horiz-adv-x="592" 
d="M246 -70h144l-81 -150h-107zM66 808h139v-485h72l151 217h154l-188 -253l-22 -7v-4l23 -8l204 -268h-154l-170 233h-70v-233h-139v808z" />
    <glyph glyph-name="kgreenlandic" unicode="&#x138;" horiz-adv-x="594" 
d="M67 540h139v-217h89l132 217h153l-168 -253l-23 -7v-4l23 -8l185 -268h-153l-151 233h-87v-233h-139v540z" />
    <glyph glyph-name="Lacute" unicode="&#x139;" horiz-adv-x="557" 
d="M99 809l69 160h144l-110 -168zM78 740h142v-629h324v-111h-466v740z" />
    <glyph glyph-name="lacute" unicode="&#x13a;" horiz-adv-x="274" 
d="M85 843l68 187h142l-111 -195zM68 808h139v-808h-139v808z" />
    <glyph glyph-name="Lcommaaccent" unicode="&#x13b;" horiz-adv-x="557" 
d="M232 -70h144l-81 -150h-107zM78 740h142v-629h324v-111h-466v740z" />
    <glyph glyph-name="lcommaaccent" unicode="&#x13c;" horiz-adv-x="274" 
d="M73 -70h144l-81 -150h-107zM68 808h139v-808h-139v808z" />
    <glyph glyph-name="Lcaron" unicode="&#x13d;" horiz-adv-x="566" 
d="M404 778h111l-38 -228h-73v228zM78 740h142v-629h324v-111h-466v740z" />
    <glyph glyph-name="lcaron" unicode="&#x13e;" horiz-adv-x="275" 
d="M266 808h111l-38 -228h-73v228zM68 808h139v-808h-139v808z" />
    <glyph glyph-name="Ldot" unicode="&#x13f;" horiz-adv-x="568" 
d="M78 740h142v-629h324v-111h-466v740zM458 306c-28 0 -48.333 5.99902 -61 17.999s-19 32 -19 60s6.33301 48 19 60s33 18 61 18s48.333 -6.16699 61 -18.5s19 -32.166 19 -59.499c0 -52 -26.667 -78 -80 -78z" />
    <glyph glyph-name="ldot" unicode="&#x140;" horiz-adv-x="405" 
d="M68 808h139v-808h-139v808zM340 292c-28 0 -48.333 5.99902 -61 17.999s-19 32 -19 60s6.33301 48 19 60s33 18 61 18s48.333 -6.16699 61 -18.5s19 -32.166 19 -59.499c0 -52 -26.667 -78 -80 -78z" />
    <glyph glyph-name="Lslash" unicode="&#x141;" horiz-adv-x="577" 
d="M13 332l85 46v362h142v-285l145 79v-106l-145 -79v-238h324v-111h-466v271l-85 -46v107z" />
    <glyph glyph-name="lslash" unicode="&#x142;" horiz-adv-x="371" 
d="M23 354l94 50v404h139v-330l100 53v-105l-100 -53v-373h-139v299l-94 -50v105z" />
    <glyph glyph-name="Nacute" unicode="&#x143;" horiz-adv-x="801" 
d="M329 809l69 160h144l-110 -168zM78 740h116l337 -443l59 -86h8v529h125v-740h-116l-334 438l-62 90h-8v-528h-125v740z" />
    <glyph glyph-name="nacute" unicode="&#x144;" horiz-adv-x="639" 
d="M275 617l68 187h142l-111 -195zM67 540h116l8 -62h6c51.333 25.333 95 43.666 131 54.999s69.333 17 100 17c46.667 0 83 -12.667 109 -38s39 -62.333 39 -111v-401h-139v354c0 30.667 -5.66699 52.5 -17 65.5s-29.333 19.5 -54 19.5
c-21.333 0 -45.833 -4.16699 -73.5 -12.5s-56.5 -19.166 -86.5 -32.499v-394h-139v540z" />
    <glyph glyph-name="Ncommaaccent" unicode="&#x145;" horiz-adv-x="801" 
d="M341 -70h144l-81 -150h-107zM78 740h116l337 -443l59 -86h8v529h125v-740h-116l-334 438l-62 90h-8v-528h-125v740z" />
    <glyph glyph-name="ncommaaccent" unicode="&#x146;" horiz-adv-x="639" 
d="M256 -70h144l-81 -150h-107zM67 540h116l8 -62h6c51.333 25.333 95 43.666 131 54.999s69.333 17 100 17c46.667 0 83 -12.667 109 -38s39 -62.333 39 -111v-401h-139v354c0 30.667 -5.66699 52.5 -17 65.5s-29.333 19.5 -54 19.5
c-21.333 0 -45.833 -4.16699 -73.5 -12.5s-56.5 -19.166 -86.5 -32.499v-394h-139v540z" />
    <glyph glyph-name="Ncaron" unicode="&#x147;" horiz-adv-x="801" 
d="M216 977l186 -76l186 76v-98l-187 -76l-185 76v98zM78 740h116l337 -443l59 -86h8v529h125v-740h-116l-334 438l-62 90h-8v-528h-125v740z" />
    <glyph glyph-name="ncaron" unicode="&#x148;" horiz-adv-x="639" 
d="M131 787l186 -76l186 76v-98l-187 -76l-185 76v98zM67 540h116l8 -62h6c51.333 25.333 95 43.666 131 54.999s69.333 17 100 17c46.667 0 83 -12.667 109 -38s39 -62.333 39 -111v-401h-139v354c0 30.667 -5.66699 52.5 -17 65.5s-29.333 19.5 -54 19.5
c-21.333 0 -45.833 -4.16699 -73.5 -12.5s-56.5 -19.166 -86.5 -32.499v-394h-139v540z" />
    <glyph glyph-name="napostrophe" unicode="&#x149;" horiz-adv-x="728" 
d="M140 808v-4l-39 -224h-74v228h113zM156 540h116l8 -62h6c51.333 25.333 95 43.666 131 54.999s69.333 17 100 17c46.667 0 83 -12.667 109 -38s39 -62.333 39 -111v-401h-139v354c0 30.667 -5.66699 52.5 -17 65.5s-29.333 19.5 -54 19.5
c-21.333 0 -45.833 -4.16699 -73.5 -12.5s-56.5 -19.166 -86.5 -32.499v-394h-139v540z" />
    <glyph glyph-name="Eng" unicode="&#x14a;" horiz-adv-x="799" 
d="M512 -171c19.333 38.667 34.832 75.168 46.499 109.501s19.167 66.833 22.5 97.5l-306 403l-62 90h-8v-529h-127v740h112l339 -443l59 -86h8v529h127v-635c0 -20 -3 -42.833 -9 -68.5s-14.167 -52.334 -24.5 -80.001s-22.666 -55.167 -36.999 -82.5
s-29.5 -52.333 -45.5 -75z" />
    <glyph glyph-name="eng" unicode="&#x14b;" horiz-adv-x="638" 
d="M384 -201c16.667 47.333 29.667 96.832 39 148.499s14 110.834 14 177.501v204c0 36.667 -5 61.667 -15 75s-28.333 20 -55 20c-22 0 -46.833 -3.16699 -74.5 -9.5s-56.5 -16.166 -86.5 -29.499v-385h-139v540h116l8 -60h4c51.333 24.667 95 42.5 131 53.5
s70 16.5 102 16.5c47.333 0 83.833 -12.833 109.5 -38.5s38.5 -62.5 38.5 -110.5v-333c-1.33301 -25.333 -4.5 -51 -9.5 -77s-11.167 -51.5 -18.5 -76.5s-15.833 -48.833 -25.5 -71.5s-20.167 -43.334 -31.5 -62.001z" />
    <glyph glyph-name="Omacron" unicode="&#x14c;" horiz-adv-x="776" 
d="M203 937h366v-96h-366v96zM388 -10c-112 0 -197.5 31.832 -256.5 95.499s-88.5 158.167 -88.5 283.5c0 126 29.5 221 88.5 285s144.5 96 256.5 96s197.5 -32.167 256.5 -96.5s88.5 -159.166 88.5 -284.499c0 -124.667 -29.5 -219 -88.5 -283s-144.5 -96 -256.5 -96z
M388 104.999c35.333 0 65.668 4.83301 91.001 14.5s46 25.167 62 46.5s27.833 48.666 35.5 81.999s11.5 73.666 11.5 120.999c0 94 -16 161.833 -48 203.5s-82.667 62.5 -152 62.5c-35.333 0 -65.5 -5 -90.5 -15s-45.667 -25.667 -62 -47s-28.333 -48.833 -36 -82.5
s-11.5 -74.167 -11.5 -121.5s3.83301 -87.666 11.5 -120.999s19.5 -60.666 35.5 -81.999s36.667 -36.833 62 -46.5s55.666 -14.5 90.999 -14.5z" />
    <glyph glyph-name="omacron" unicode="&#x14d;" horiz-adv-x="628" 
d="M130 737h369v-93h-369v93zM314 -10c-89.333 0 -157.5 23.833 -204.5 71.5s-70.5 117.167 -70.5 208.5s23.5 160.833 70.5 208.5s115.167 71.5 204.5 71.5s157.5 -23.833 204.5 -71.5s70.5 -117.167 70.5 -208.5s-23.5 -160.833 -70.5 -208.5s-115.167 -71.5 -204.5 -71.5
zM314 97c48 0 82.5 13.167 103.5 39.5s31.5 70.833 31.5 133.5s-10.5 107 -31.5 133s-55.5 39 -103.5 39s-82.5 -13 -103.5 -39s-31.5 -70.333 -31.5 -133s10.5 -107.167 31.5 -133.5s55.5 -39.5 103.5 -39.5z" />
    <glyph glyph-name="Obreve" unicode="&#x14e;" horiz-adv-x="776" 
d="M386 810c-36 0 -66.834 4.16699 -92.501 12.5s-46.834 19.833 -63.501 34.5s-28.834 32.167 -36.501 52.5s-11.5 42.5 -11.5 66.5h96c0 -30.667 8.33301 -54 25 -70s44.334 -24 83.001 -24s66.334 8 83.001 24s25 39.333 25 70h96c0 -49.333 -16.167 -89.333 -48.5 -120
s-84.166 -46 -155.499 -46zM387.999 -10c-112 0 -197.5 31.832 -256.5 95.499s-88.5 158.167 -88.5 283.5c0 126 29.5 221 88.5 285s144.5 96 256.5 96s197.5 -32.167 256.5 -96.5s88.5 -159.166 88.5 -284.499c0 -124.667 -29.5 -219 -88.5 -283s-144.5 -96 -256.5 -96z
M387.999 104.999c35.333 0 65.668 4.83301 91.001 14.5s46 25.167 62 46.5s27.833 48.666 35.5 81.999s11.5 73.666 11.5 120.999c0 94 -16 161.833 -48 203.5s-82.667 62.5 -152 62.5c-35.333 0 -65.5 -5 -90.5 -15s-45.667 -25.667 -62 -47s-28.333 -48.833 -36 -82.5
s-11.5 -74.167 -11.5 -121.5s3.83301 -87.666 11.5 -120.999s19.5 -60.666 35.5 -81.999s36.667 -36.833 62 -46.5s55.666 -14.5 90.999 -14.5z" />
    <glyph glyph-name="obreve" unicode="&#x14f;" horiz-adv-x="628" 
d="M314 -10c-89.333 0 -157.5 23.833 -204.5 71.5s-70.5 117.167 -70.5 208.5s23.5 160.833 70.5 208.5s115.167 71.5 204.5 71.5s157.5 -23.833 204.5 -71.5s70.5 -117.167 70.5 -208.5s-23.5 -160.833 -70.5 -208.5s-115.167 -71.5 -204.5 -71.5zM314 97
c48 0 82.5 13.167 103.5 39.5s31.5 70.833 31.5 133.5s-10.5 107 -31.5 133s-55.5 39 -103.5 39s-82.5 -13 -103.5 -39s-31.5 -70.333 -31.5 -133s10.5 -107.167 31.5 -133.5s55.5 -39.5 103.5 -39.5zM313 615c-36.667 0 -67.832 4.00098 -93.499 12.001
s-46.667 19.333 -63 34s-28.333 32.167 -36 52.5s-11.5 43.166 -11.5 68.499h95c0 -32.667 8.66699 -56.667 26 -72s45 -23 83 -23s65.5 7.66699 82.5 23s25.5 39.333 25.5 72h96c0 -25.333 -3.83301 -48.333 -11.5 -69s-19.667 -38.167 -36 -52.5s-37.333 -25.5 -63 -33.5
s-56.834 -12 -93.501 -12z" />
    <glyph glyph-name="Ohungarumlaut" unicode="&#x150;" horiz-adv-x="776" 
d="M388 -10c-112 0 -197.5 31.832 -256.5 95.499s-88.5 158.167 -88.5 283.5c0 126 29.5 221 88.5 285s144.5 96 256.5 96s197.5 -32.167 256.5 -96.5s88.5 -159.166 88.5 -284.499c0 -124.667 -29.5 -219 -88.5 -283s-144.5 -96 -256.5 -96zM388 104.999
c35.333 0 65.668 4.83301 91.001 14.5s46 25.167 62 46.5s27.833 48.666 35.5 81.999s11.5 73.666 11.5 120.999c0 94 -16 161.833 -48 203.5s-82.667 62.5 -152 62.5c-35.333 0 -65.5 -5 -90.5 -15s-45.667 -25.667 -62 -47s-28.333 -48.833 -36 -82.5
s-11.5 -74.167 -11.5 -121.5s3.83301 -87.666 11.5 -120.999s19.5 -60.666 35.5 -81.999s36.667 -36.833 62 -46.5s55.666 -14.5 90.999 -14.5zM228.002 809.999l69 155h137l-111 -167zM418.002 809.999l69 155h137l-110 -167z" />
    <glyph glyph-name="ohungarumlaut" unicode="&#x151;" horiz-adv-x="628" 
d="M158 622l68 185h138l-113 -195zM364 622l68 185h137l-111 -195zM314 -10c-89.333 0 -157.5 23.833 -204.5 71.5s-70.5 117.167 -70.5 208.5s23.5 160.833 70.5 208.5s115.167 71.5 204.5 71.5s157.5 -23.833 204.5 -71.5s70.5 -117.167 70.5 -208.5
s-23.5 -160.833 -70.5 -208.5s-115.167 -71.5 -204.5 -71.5zM314 97c48 0 82.5 13.167 103.5 39.5s31.5 70.833 31.5 133.5s-10.5 107 -31.5 133s-55.5 39 -103.5 39s-82.5 -13 -103.5 -39s-31.5 -70.333 -31.5 -133s10.5 -107.167 31.5 -133.5s55.5 -39.5 103.5 -39.5z" />
    <glyph glyph-name="OE" unicode="&#x152;" horiz-adv-x="1056" 
d="M392 -9c-112.667 0 -199.001 32 -259.001 96s-90 158 -90 282c0 124.667 30 219.167 90 283.5s146.333 96.5 259 96.5c42.667 0 81 -3 115 -9h495v-112h-353v-198h325v-111h-325v-207h362v-112h-504c-35.333 -6 -73.666 -9 -114.999 -9zM394.999 106
c21.333 0 41.5 0.668945 60.5 2.00195s36.167 3.66602 51.5 6.99902v510c-32 6 -69.333 9 -112 9c-36.667 0 -68 -5 -94 -15s-47.5 -25.667 -64.5 -47s-29.5 -48.833 -37.5 -82.5s-12 -73.834 -12 -120.501c0 -47.333 4 -87.5 12 -120.5s20.333 -60.167 37 -81.5
s38.167 -36.833 64.5 -46.5s57.833 -14.5 94.5 -14.5z" />
    <glyph glyph-name="oe" unicode="&#x153;" horiz-adv-x="984" 
d="M720 -9c-48 0 -88.8359 7.83301 -122.503 23.5s-59.5 38.5 -77.5 68.5h-7c-19.333 -30 -45.666 -53 -78.999 -69s-73.333 -24 -120 -24c-89.333 0 -157.5 23.833 -204.5 71.5s-70.5 117.167 -70.5 208.5s23.5 160.833 70.5 208.5s115.167 71.5 204.5 71.5
c47.333 0 87.833 -8.33301 121.5 -25s59.834 -40.334 78.501 -71.001h8c18 30.667 43.5 54.167 76.5 70.5s72.833 24.5 119.5 24.5c74.667 0 131 -20.167 169 -60.5s57 -99.833 57 -178.5c0 -16 -0.5 -30.167 -1.5 -42.5s-3.16699 -24.166 -6.5 -35.499h-348
c2.66699 -48.667 15.334 -83.167 38.001 -103.5s58 -30.5 106 -30.5c28 0 59.167 2.16699 93.5 6.5s65.5 10.5 93.5 18.5l5 -101c-30 -9.33301 -63 -16.833 -99 -22.5s-71 -8.5 -105 -8.5zM313.997 97c48 0 82.5 13.167 103.5 39.5s31.5 70.833 31.5 133.5
s-10.5 107 -31.5 133s-55.5 39 -103.5 39s-82.5 -13 -103.5 -39s-31.5 -70.333 -31.5 -133s10.5 -107.167 31.5 -133.5s55.5 -39.5 103.5 -39.5zM819.997 306c-1.33301 52 -10.167 89 -26.5 111s-43.5 33 -81.5 33c-40 0 -70 -11.5 -90 -34.5s-31.667 -59.5 -35 -109.5h233z
" />
    <glyph glyph-name="Racute" unicode="&#x154;" horiz-adv-x="698" 
d="M373 257c-24 -2 -50 -3.00098 -78 -3.00098c-8.66699 0 -20.667 0.333008 -36 1s-28.333 1.66699 -39 3v-258h-142v735c72 10 141.333 15 208 15c64 0 119 -4.83301 165 -14.5s84 -24.5 114 -44.5s52 -45.667 66 -77s21 -68.666 21 -111.999
c0 -110 -51 -183.333 -153 -220l182 -282h-158zM314 364.999c36 0 66.332 2.33301 90.999 7s44.667 12.5 60 23.5s26.333 25.167 33 42.5s10 38.666 10 63.999c0 24.667 -3.33301 45.667 -10 63s-17.667 31.333 -33 42s-35.166 18.5 -59.499 23.5s-54.166 7.5 -89.499 7.5
c-14.667 0 -31.167 -0.666992 -49.5 -2s-33.833 -2.66602 -46.5 -3.99902v-259c9.33301 -2.66699 22.166 -4.66699 38.499 -6s34.833 -2 55.5 -2zM285.999 808.999l69 160h144l-110 -168z" />
    <glyph glyph-name="racute" unicode="&#x155;" horiz-adv-x="430" 
d="M184 617l68 187h142l-111 -195zM67 540h115.999l8 -78h4c30.667 20.667 61.334 39 92.001 55s60 26.667 88 32h44v-120h-49c-28.667 -3.33301 -57.5 -10 -86.5 -20s-54.833 -21.667 -77.5 -35v-374h-139v540z" />
    <glyph glyph-name="Rcommaaccent" unicode="&#x156;" horiz-adv-x="698" 
d="M290 -70h144l-81 -150h-107zM373 257c-24 -2 -50 -3.00098 -78 -3.00098c-8.66699 0 -20.667 0.333008 -36 1s-28.333 1.66699 -39 3v-258h-142v735c72 10 141.333 15 208 15c64 0 119 -4.83301 165 -14.5s84 -24.5 114 -44.5s52 -45.667 66 -77s21 -68.666 21 -111.999
c0 -110 -51 -183.333 -153 -220l182 -282h-158zM314 364.999c36 0 66.332 2.33301 90.999 7s44.667 12.5 60 23.5s26.333 25.167 33 42.5s10 38.666 10 63.999c0 24.667 -3.33301 45.667 -10 63s-17.667 31.333 -33 42s-35.166 18.5 -59.499 23.5s-54.166 7.5 -89.499 7.5
c-14.667 0 -31.167 -0.666992 -49.5 -2s-33.833 -2.66602 -46.5 -3.99902v-259c9.33301 -2.66699 22.166 -4.66699 38.499 -6s34.833 -2 55.5 -2z" />
    <glyph glyph-name="rcommaaccent" unicode="&#x157;" horiz-adv-x="430" 
d="M68 -70h144l-81 -150h-107zM67 540h115.999l8 -78h4c30.667 20.667 61.334 39 92.001 55s60 26.667 88 32h44v-120h-49c-28.667 -3.33301 -57.5 -10 -86.5 -20s-54.833 -21.667 -77.5 -35v-374h-139v540z" />
    <glyph glyph-name="Rcaron" unicode="&#x158;" horiz-adv-x="698" 
d="M161 977l186 -76l186 76v-98l-187 -76l-185 76v98zM373 257c-24 -2 -50 -3.00098 -78 -3.00098c-8.66699 0 -20.667 0.333008 -36 1s-28.333 1.66699 -39 3v-258h-142v735c72 10 141.333 15 208 15c64 0 119 -4.83301 165 -14.5s84 -24.5 114 -44.5s52 -45.667 66 -77
s21 -68.666 21 -111.999c0 -110 -51 -183.333 -153 -220l182 -282h-158zM314 364.999c36 0 66.332 2.33301 90.999 7s44.667 12.5 60 23.5s26.333 25.167 33 42.5s10 38.666 10 63.999c0 24.667 -3.33301 45.667 -10 63s-17.667 31.333 -33 42s-35.166 18.5 -59.499 23.5
s-54.166 7.5 -89.499 7.5c-14.667 0 -31.167 -0.666992 -49.5 -2s-33.833 -2.66602 -46.5 -3.99902v-259c9.33301 -2.66699 22.166 -4.66699 38.499 -6s34.833 -2 55.5 -2z" />
    <glyph glyph-name="rcaron" unicode="&#x159;" horiz-adv-x="430" 
d="M52 787l186 -76l186 76v-98l-187 -76l-185 76v98zM67 540h115.999l8 -78h4c30.667 20.667 61.334 39 92.001 55s60 26.667 88 32h44v-120h-49c-28.667 -3.33301 -57.5 -10 -86.5 -20s-54.833 -21.667 -77.5 -35v-374h-139v540z" />
    <glyph glyph-name="Sacute" unicode="&#x15a;" horiz-adv-x="615" 
d="M296 -12c-18 0 -37.665 0.834961 -58.998 2.50195s-43.166 3.83398 -65.499 6.50098s-44.666 6 -66.999 10s-43.833 8.33301 -64.5 13v116c45.333 -10.667 89 -19 131 -25s79.667 -9 113 -9c101.333 0 152 31.667 152 95c0 18 -3.5 33 -10.5 45s-16.833 22.333 -29.5 31
s-28.334 16 -47.001 22s-39.334 11.667 -62.001 17c-40.667 9.33301 -75.834 20.166 -105.501 32.499s-54.334 27.5 -74.001 45.5s-34.167 39.167 -43.5 63.5s-14 53.166 -14 86.499c0 32.667 6.5 62.167 19.5 88.5s31.5 48.666 55.5 66.999s53.167 32.5 87.5 42.5
s73.166 15 116.499 15c30.667 0 62.5 -2 95.5 -6s72.833 -11 119.5 -21v-115c-32.667 9.33301 -67 16.5 -103 21.5s-68.667 7.5 -98 7.5c-46 0 -81.833 -8.5 -107.5 -25.5s-38.5 -40.833 -38.5 -71.5c0 -15.333 2.83301 -29 8.5 -41s14.5 -22.5 26.5 -31.5
s27.667 -17.167 47 -24.5s43 -14.333 71 -21c36.667 -8.66699 69.334 -18.667 98.001 -30s53 -25.333 73 -42s35.333 -36.834 46 -60.501s16 -52.167 16 -85.5c0 -71.333 -24.333 -125.666 -73 -162.999s-120 -56 -214 -56zM251.002 809.002l69 160h144l-110 -168z" />
    <glyph glyph-name="sacute" unicode="&#x15b;" horiz-adv-x="511" 
d="M196 617l68 187h142l-111 -195zM245 -11c-28 0 -58.999 2.00195 -92.999 6.00195s-70.667 10 -110 18v100c36.667 -8 71.167 -14.333 103.5 -19s63.5 -7 93.5 -7c68 0 102 20.667 102 62c0 22.667 -8.5 38.667 -25.5 48s-41.5 16.666 -73.5 21.999
c-21.333 3.33301 -43.5 7.33301 -66.5 12s-44 12.5 -63 23.5s-34.667 26.833 -47 47.5s-18.5 48.667 -18.5 84c0 52 19.5 92.667 58.5 122s93.167 44 162.5 44c12.667 0 25.5 -0.333008 38.5 -1s26.667 -1.83398 41 -3.50098s30.166 -3.66699 47.499 -6
s36.666 -5.5 57.999 -9.5l-4 -106c-36 8 -67.667 14 -95 18s-51.666 6 -72.999 6c-67.333 0 -101 -20.333 -101 -61c0 -23.333 10 -39.166 30 -47.499s48.667 -15.5 86 -21.5c26 -4 50 -9.5 72 -16.5s41 -16.833 57 -29.5s28.333 -28.334 37 -47.001s13 -41.667 13 -69
c0 -54 -19.667 -95.667 -59 -125s-96.333 -44 -171 -44z" />
    <glyph glyph-name="Scircumflex" unicode="&#x15c;" horiz-adv-x="615" 
d="M296 -12c-18 0 -37.665 0.834961 -58.998 2.50195s-43.166 3.83398 -65.499 6.50098s-44.666 6 -66.999 10s-43.833 8.33301 -64.5 13v116c45.333 -10.667 89 -19 131 -25s79.667 -9 113 -9c101.333 0 152 31.667 152 95c0 18 -3.5 33 -10.5 45s-16.833 22.333 -29.5 31
s-28.334 16 -47.001 22s-39.334 11.667 -62.001 17c-40.667 9.33301 -75.834 20.166 -105.501 32.499s-54.334 27.5 -74.001 45.5s-34.167 39.167 -43.5 63.5s-14 53.166 -14 86.499c0 32.667 6.5 62.167 19.5 88.5s31.5 48.666 55.5 66.999s53.167 32.5 87.5 42.5
s73.166 15 116.499 15c30.667 0 62.5 -2 95.5 -6s72.833 -11 119.5 -21v-115c-32.667 9.33301 -67 16.5 -103 21.5s-68.667 7.5 -98 7.5c-46 0 -81.833 -8.5 -107.5 -25.5s-38.5 -40.833 -38.5 -71.5c0 -15.333 2.83301 -29 8.5 -41s14.5 -22.5 26.5 -31.5
s27.667 -17.167 47 -24.5s43 -14.333 71 -21c36.667 -8.66699 69.334 -18.667 98.001 -30s53 -25.333 73 -42s35.333 -36.834 46 -60.501s16 -52.167 16 -85.5c0 -71.333 -24.333 -125.666 -73 -162.999s-120 -56 -214 -56zM130.002 903.002l185 76l187 -76v-98l-186 76
l-186 -76v98z" />
    <glyph glyph-name="scircumflex" unicode="&#x15d;" horiz-adv-x="511" 
d="M71 716l184 76l188 -76v-97l-186 75l-186 -75v97zM245 -11c-28 0 -58.999 2.00195 -92.999 6.00195s-70.667 10 -110 18v100c36.667 -8 71.167 -14.333 103.5 -19s63.5 -7 93.5 -7c68 0 102 20.667 102 62c0 22.667 -8.5 38.667 -25.5 48s-41.5 16.666 -73.5 21.999
c-21.333 3.33301 -43.5 7.33301 -66.5 12s-44 12.5 -63 23.5s-34.667 26.833 -47 47.5s-18.5 48.667 -18.5 84c0 52 19.5 92.667 58.5 122s93.167 44 162.5 44c12.667 0 25.5 -0.333008 38.5 -1s26.667 -1.83398 41 -3.50098s30.166 -3.66699 47.499 -6
s36.666 -5.5 57.999 -9.5l-4 -106c-36 8 -67.667 14 -95 18s-51.666 6 -72.999 6c-67.333 0 -101 -20.333 -101 -61c0 -23.333 10 -39.166 30 -47.499s48.667 -15.5 86 -21.5c26 -4 50 -9.5 72 -16.5s41 -16.833 57 -29.5s28.333 -28.334 37 -47.001s13 -41.667 13 -69
c0 -54 -19.667 -95.667 -59 -125s-96.333 -44 -171 -44z" />
    <glyph glyph-name="uni015E" unicode="&#x15e;" horiz-adv-x="615" 
d="M287 -220c-14 0 -29.6641 1.16895 -46.9971 3.50195s-34.333 5.16602 -51 8.49902v84c11.333 -3.33301 23.666 -6 36.999 -8s26 -3 38 -3c20 0 34.167 3.5 42.5 10.5s12.5 17.833 12.5 32.5c0 20.667 -11 47.334 -33 80.001c-18 0 -37.333 0.833008 -58 2.5
s-41.667 4 -63 7s-42.666 6.33301 -63.999 10s-41.666 7.83398 -60.999 12.501v116c45.333 -10.667 89 -19 131 -25s79.667 -9 113 -9c101.333 0 152 31.667 152 95c0 18 -3.5 33 -10.5 45s-16.833 22.333 -29.5 31s-28.334 16 -47.001 22s-39.334 11.667 -62.001 17
c-40.667 9.33301 -75.834 20.166 -105.501 32.499s-54.334 27.5 -74.001 45.5s-34.167 39.167 -43.5 63.5s-14 53.166 -14 86.499c0 32.667 6.5 62.167 19.5 88.5s31.5 48.666 55.5 66.999s53.167 32.5 87.5 42.5s73.166 15 116.499 15c30.667 0 62.5 -2 95.5 -6
s72.833 -11 119.5 -21v-115c-32.667 9.33301 -67 16.5 -103 21.5s-68.667 7.5 -98 7.5c-46 0 -81.833 -8.5 -107.5 -25.5s-38.5 -40.833 -38.5 -71.5c0 -15.333 2.83301 -29 8.5 -41s14.5 -22.5 26.5 -31.5s27.667 -17.167 47 -24.5s43 -14.333 71 -21
c36.667 -8.66699 69.334 -18.667 98.001 -30s53 -25.333 73 -42s35.333 -36.834 46 -60.501s16 -52.167 16 -85.5c0 -60.667 -17.833 -109.167 -53.5 -145.5s-87.834 -59.166 -156.501 -68.499c15.333 -21.333 25.833 -39.5 31.5 -54.5s8.5 -30.5 8.5 -46.5
c0 -36 -11.167 -63.667 -33.5 -83s-53.166 -29 -92.499 -29z" />
    <glyph glyph-name="uni015F" unicode="&#x15f;" horiz-adv-x="511" 
d="M226 -220c-14 0 -29.666 1.16992 -46.999 3.50293s-34.333 5.16602 -51 8.49902v84c11.333 -3.33301 23.666 -6 36.999 -8s26 -3 38 -3c20 0 34.167 3.5 42.5 10.5s12.5 17.833 12.5 32.5c0 21.333 -11 48.333 -33 81c-53.333 2 -114.333 10 -183 24v100
c36.667 -8 71.167 -14.333 103.5 -19s63.5 -7 93.5 -7c68 0 102 20.667 102 62c0 22.667 -8.5 38.667 -25.5 48s-41.5 16.666 -73.5 21.999c-21.333 3.33301 -43.5 7.33301 -66.5 12s-44 12.5 -63 23.5s-34.667 26.833 -47 47.5s-18.5 48.667 -18.5 84
c0 52 19.5 92.667 58.5 122s93.167 44 162.5 44c12.667 0 25.5 -0.333008 38.5 -1s26.667 -1.83398 41 -3.50098s30.166 -3.66699 47.499 -6s36.666 -5.5 57.999 -9.5l-4 -106c-36 8 -67.667 14 -95 18s-51.666 6 -72.999 6c-67.333 0 -101 -20.333 -101 -61
c0 -23.333 10 -39.166 30 -47.499s48.667 -15.5 86 -21.5c26 -4 50 -9.5 72 -16.5s41 -16.833 57 -29.5s28.333 -28.334 37 -47.001s13 -41.667 13 -69c0 -46 -13.833 -83 -41.5 -111s-68.5 -45.667 -122.5 -53c16 -22 26.833 -40.5 32.5 -55.5s8.5 -30.5 8.5 -46.5
c0 -36 -11.167 -63.667 -33.5 -83s-53.166 -29 -92.499 -29z" />
    <glyph glyph-name="Scaron" unicode="&#x160;" horiz-adv-x="615" 
d="M296 -12c-18 0 -37.665 0.834961 -58.998 2.50195s-43.166 3.83398 -65.499 6.50098s-44.666 6 -66.999 10s-43.833 8.33301 -64.5 13v116c45.333 -10.667 89 -19 131 -25s79.667 -9 113 -9c101.333 0 152 31.667 152 95c0 18 -3.5 33 -10.5 45s-16.833 22.333 -29.5 31
s-28.334 16 -47.001 22s-39.334 11.667 -62.001 17c-40.667 9.33301 -75.834 20.166 -105.501 32.499s-54.334 27.5 -74.001 45.5s-34.167 39.167 -43.5 63.5s-14 53.166 -14 86.499c0 32.667 6.5 62.167 19.5 88.5s31.5 48.666 55.5 66.999s53.167 32.5 87.5 42.5
s73.166 15 116.499 15c30.667 0 62.5 -2 95.5 -6s72.833 -11 119.5 -21v-115c-32.667 9.33301 -67 16.5 -103 21.5s-68.667 7.5 -98 7.5c-46 0 -81.833 -8.5 -107.5 -25.5s-38.5 -40.833 -38.5 -71.5c0 -15.333 2.83301 -29 8.5 -41s14.5 -22.5 26.5 -31.5
s27.667 -17.167 47 -24.5s43 -14.333 71 -21c36.667 -8.66699 69.334 -18.667 98.001 -30s53 -25.333 73 -42s35.333 -36.834 46 -60.501s16 -52.167 16 -85.5c0 -71.333 -24.333 -125.666 -73 -162.999s-120 -56 -214 -56zM128.002 977.002l186 -76l186 76v-98l-187 -76
l-185 76v98z" />
    <glyph glyph-name="scaron" unicode="&#x161;" horiz-adv-x="511" 
d="M70 787l186 -76l186 76v-98l-187 -76l-185 76v98zM245 -11c-28 0 -58.999 2.00195 -92.999 6.00195s-70.667 10 -110 18v100c36.667 -8 71.167 -14.333 103.5 -19s63.5 -7 93.5 -7c68 0 102 20.667 102 62c0 22.667 -8.5 38.667 -25.5 48s-41.5 16.666 -73.5 21.999
c-21.333 3.33301 -43.5 7.33301 -66.5 12s-44 12.5 -63 23.5s-34.667 26.833 -47 47.5s-18.5 48.667 -18.5 84c0 52 19.5 92.667 58.5 122s93.167 44 162.5 44c12.667 0 25.5 -0.333008 38.5 -1s26.667 -1.83398 41 -3.50098s30.166 -3.66699 47.499 -6
s36.666 -5.5 57.999 -9.5l-4 -106c-36 8 -67.667 14 -95 18s-51.666 6 -72.999 6c-67.333 0 -101 -20.333 -101 -61c0 -23.333 10 -39.166 30 -47.499s48.667 -15.5 86 -21.5c26 -4 50 -9.5 72 -16.5s41 -16.833 57 -29.5s28.333 -28.334 37 -47.001s13 -41.667 13 -69
c0 -54 -19.667 -95.667 -59 -125s-96.333 -44 -171 -44z" />
    <glyph glyph-name="uni0162" unicode="&#x162;" horiz-adv-x="626" 
d="M242 627l-223.999 0.000976562v113h590v-113h-224v-627h-32c17.333 -23.333 29.166 -42.833 35.499 -58.5s9.5 -32.167 9.5 -49.5c0 -36 -11.167 -63.667 -33.5 -83s-53.166 -29 -92.499 -29c-14 0 -29.667 1.16699 -47 3.5s-34.333 5.16602 -51 8.49902v84
c11.333 -3.33301 23.666 -6 36.999 -8s26 -3 38 -3c20 0 34.167 3.5 42.5 10.5s12.5 17.833 12.5 32.5c0 11.333 -3.16699 24.5 -9.5 39.5s-16.833 32.5 -31.5 52.5h-20v627z" />
    <glyph glyph-name="uni0163" unicode="&#x163;" horiz-adv-x="430" 
d="M206 -220c-14 0 -29.667 1.16797 -47 3.50098s-34.333 5.16602 -51 8.49902v84c11.333 -3.33301 23.666 -6 36.999 -8s26 -3 38 -3c20 0 34.167 3.5 42.5 10.5s12.5 17.833 12.5 32.5c0 13.333 -4 28.333 -12 45s-20.667 36.667 -38 60c-46 26 -69 73 -69 141v268h-102
v118h110l21 148l108 13v-161h147v-118h-146v-236c0 -32 6.5 -55 19.5 -69s34.167 -21 63.5 -21c20 0 42 4 66 12v-105c-15.333 -4 -32.833 -7.33301 -52.5 -10s-39.167 -4 -58.5 -4c14 -20 23.667 -37.333 29 -52s8 -29.667 8 -45c0 -36 -11.167 -63.667 -33.5 -83
s-53.166 -29 -92.499 -29z" />
    <glyph glyph-name="Tcaron" unicode="&#x164;" horiz-adv-x="626" 
d="M128 977l186 -76l186 76v-98l-187 -76l-185 76v98zM242 627h-224v113h590v-113h-224v-627h-142v627z" />
    <glyph glyph-name="tcaron" unicode="&#x165;" horiz-adv-x="425" 
d="M295 -11c-58.667 0 -102.667 14 -132 42s-44 69 -44 123v268h-102v118h110l21 148l108 13v-161h116v-118h-115v-236c0 -32 6.5 -55 19.5 -69s34.167 -21 63.5 -21c20 0 42 4 66 12v-105c-15.333 -4 -32.833 -7.33301 -52.5 -10s-39.167 -4 -58.5 -4zM334 808h111
l-38 -228h-73v228z" />
    <glyph glyph-name="Tbar" unicode="&#x166;" horiz-adv-x="636" 
d="M107 416h139v211h-224v113h590v-113h-224v-211h150v-82h-150v-334h-142v334h-139v82z" />
    <glyph glyph-name="tbar" unicode="&#x167;" horiz-adv-x="436" 
d="M26 331h99v91h-102v118h110l21 148l108 13v-161h147v-118h-146v-91h121v-83h-121v-62c0 -32 6.5 -55 19.5 -69s34.167 -21 63.5 -21c20 0 42 4 66 12v-105c-15.333 -4 -32.833 -7.33301 -52.5 -10s-39.167 -4 -58.5 -4c-58.667 0 -102.667 14 -132 42s-44 69 -44 123v94
h-99v83z" />
    <glyph glyph-name="Utilde" unicode="&#x168;" horiz-adv-x="784" 
d="M172 858c21.333 34 44.832 59.666 70.499 76.999s50.834 26 75.501 26c16.667 0 32.667 -2.16699 48 -6.5s30.5 -9 45.5 -14s30.167 -9.5 45.5 -13.5s31 -6 47 -6c15.333 0 30.333 2.83301 45 8.5s30.667 15.5 48 29.5l23 -30c-20 -34 -43.333 -59.667 -70 -77
s-52.667 -26 -78 -26c-16 0 -31.667 2 -47 6s-30.5 8.5 -45.5 13.5s-30.167 9.5 -45.5 13.5s-30.666 6 -45.999 6s-30.333 -2.66699 -45 -8s-30.334 -14.666 -47.001 -27.999zM391.999 -10.001c-58.667 0 -108.33 6.16602 -148.997 18.499s-73.834 31.333 -99.501 57
s-44.167 58.167 -55.5 97.5s-17 86 -17 140v438h141v-440c0 -68 14.667 -117.5 44 -148.5s74.666 -46.5 135.999 -46.5s106.5 15.333 135.5 46s43.5 80.334 43.5 149.001v440h142v-438c0 -54 -5.83301 -100.667 -17.5 -140s-30.167 -71.833 -55.5 -97.5
s-58.333 -44.667 -99 -57s-90.334 -18.5 -149.001 -18.5z" />
    <glyph glyph-name="utilde" unicode="&#x169;" horiz-adv-x="639" 
d="M211 -10c-48.667 0 -85.499 12.833 -110.499 38.5s-37.5 62.5 -37.5 110.5v401h139v-358c0 -30 5.16699 -51.333 15.5 -64s28.166 -19 53.499 -19c24.667 0 51.167 5 79.5 15s56.166 21 83.499 33v393h139v-540h-117l-8 64h-4l-68.5 -34
c-19.667 -9.33301 -38 -17 -55 -23s-34.167 -10.333 -51.5 -13s-36.666 -4 -57.999 -4zM100.001 670c20.667 34 43.8301 59.335 69.4971 76.002s50.834 25 75.501 25c16.667 0 32.667 -2.16699 48 -6.5s30.5 -9.33301 45.5 -15s30 -10.667 45 -15s30.5 -6.5 46.5 -6.5
c15.333 0 30.166 2.83301 44.499 8.5s30.166 15.5 47.499 29.5l25 -32c-20.667 -33.333 -44 -58.5 -70 -75.5s-51.667 -25.5 -77 -25.5c-16 0 -31.667 2.16699 -47 6.5s-30.666 9.16602 -45.999 14.499s-30.666 10.166 -45.999 14.499s-30.666 6.5 -45.999 6.5
s-30.166 -2.83301 -44.499 -8.5s-29.5 -15.167 -45.5 -28.5z" />
    <glyph glyph-name="Umacron" unicode="&#x16a;" horiz-adv-x="784" 
d="M203 937h366v-96h-366v96zM392 -10c-58.667 0 -108.33 6.16602 -148.997 18.499s-73.834 31.333 -99.501 57s-44.167 58.167 -55.5 97.5s-17 86 -17 140v438h141v-440c0 -68 14.667 -117.5 44 -148.5s74.666 -46.5 135.999 -46.5s106.5 15.333 135.5 46
s43.5 80.334 43.5 149.001v440h142v-438c0 -54 -5.83301 -100.667 -17.5 -140s-30.167 -71.833 -55.5 -97.5s-58.333 -44.667 -99 -57s-90.334 -18.5 -149.001 -18.5z" />
    <glyph glyph-name="umacron" unicode="&#x16b;" horiz-adv-x="639" 
d="M211 -10c-48.667 0 -85.499 12.833 -110.499 38.5s-37.5 62.5 -37.5 110.5v401h139v-358c0 -30 5.16699 -51.333 15.5 -64s28.166 -19 53.499 -19c24.667 0 51.167 5 79.5 15s56.166 21 83.499 33v393h139v-540h-117l-8 64h-4l-68.5 -34
c-19.667 -9.33301 -38 -17 -55 -23s-34.167 -10.333 -51.5 -13s-36.666 -4 -57.999 -4zM131.001 737h369v-93h-369v93z" />
    <glyph glyph-name="Ubreve" unicode="&#x16c;" horiz-adv-x="784" 
d="M389 810c-36 0 -66.834 4.16699 -92.501 12.5s-46.834 19.833 -63.501 34.5s-28.834 32.167 -36.501 52.5s-11.5 42.5 -11.5 66.5h96c0 -30.667 8.33301 -54 25 -70s44.334 -24 83.001 -24s66.334 8 83.001 24s25 39.333 25 70h96c0 -49.333 -16.167 -89.333 -48.5 -120
s-84.166 -46 -155.499 -46zM391.999 -10c-58.667 0 -108.33 6.16602 -148.997 18.499s-73.834 31.333 -99.501 57s-44.167 58.167 -55.5 97.5s-17 86 -17 140v438h141v-440c0 -68 14.667 -117.5 44 -148.5s74.666 -46.5 135.999 -46.5s106.5 15.333 135.5 46
s43.5 80.334 43.5 149.001v440h142v-438c0 -54 -5.83301 -100.667 -17.5 -140s-30.167 -71.833 -55.5 -97.5s-58.333 -44.667 -99 -57s-90.334 -18.5 -149.001 -18.5z" />
    <glyph glyph-name="ubreve" unicode="&#x16d;" horiz-adv-x="639" 
d="M211 -10c-48.667 0 -85.499 12.833 -110.499 38.5s-37.5 62.5 -37.5 110.5v401h139v-358c0 -30 5.16699 -51.333 15.5 -64s28.166 -19 53.499 -19c24.667 0 51.167 5 79.5 15s56.166 21 83.499 33v393h139v-540h-117l-8 64h-4l-68.5 -34
c-19.667 -9.33301 -38 -17 -55 -23s-34.167 -10.333 -51.5 -13s-36.666 -4 -57.999 -4zM312.001 615c-36.667 0 -67.832 4.00098 -93.499 12.001s-46.667 19.333 -63 34s-28.333 32.167 -36 52.5s-11.5 43.166 -11.5 68.499h95c0 -32.667 8.66699 -56.667 26 -72
s45 -23 83 -23s65.5 7.66699 82.5 23s25.5 39.333 25.5 72h96c0 -25.333 -3.83301 -48.333 -11.5 -69s-19.667 -38.167 -36 -52.5s-37.333 -25.5 -63 -33.5s-56.834 -12 -93.501 -12z" />
    <glyph glyph-name="Uring" unicode="&#x16e;" horiz-adv-x="784" 
d="M392 -10c-58.667 0 -108.33 6.16602 -148.997 18.499s-73.834 31.333 -99.501 57s-44.167 58.167 -55.5 97.5s-17 86 -17 140v438h141v-440c0 -68 14.667 -117.5 44 -148.5s74.666 -46.5 135.999 -46.5s106.5 15.333 135.5 46s43.5 80.334 43.5 149.001v440h142v-438
c0 -54 -5.83301 -100.667 -17.5 -140s-30.167 -71.833 -55.5 -97.5s-58.333 -44.667 -99 -57s-90.334 -18.5 -149.001 -18.5zM389.004 786.999c-18.667 0 -35.834 2.83301 -51.501 8.5s-29.334 13.5 -41.001 23.5s-20.667 21.833 -27 35.5s-9.5 28.5 -9.5 44.5
s3.16699 31 9.5 45s15.333 26 27 36s25.334 17.833 41.001 23.5s32.834 8.5 51.501 8.5s35.834 -2.83301 51.501 -8.5s29.167 -13.5 40.5 -23.5s20.166 -22 26.499 -36s9.5 -29 9.5 -45c0 -32.667 -12 -59.5 -36 -80.5s-54.667 -31.5 -92 -31.5zM389.004 839.999
c23.333 0 40.333 5 51 15s16 24.667 16 44s-5.33301 34 -16 44s-27.667 15 -51 15c-45.333 0 -68 -19.667 -68 -59s22.667 -59 68 -59z" />
    <glyph glyph-name="uring" unicode="&#x16f;" horiz-adv-x="639" 
d="M319 594c-18.667 0 -36 2.66797 -52 8.00098s-29.667 13 -41 23s-20.333 21.833 -27 35.5s-10 28.5 -10 44.5c0 33.333 12.167 60.5 36.5 81.5s55.5 31.5 93.5 31.5s69 -10.5 93 -31.5s36 -48.167 36 -81.5c0 -32.667 -12 -59.334 -36 -80.001s-55 -31 -93 -31z
M319 647.001c23.333 0 40.166 5 50.499 15s15.5 24.333 15.5 43c0 19.333 -5.16699 34 -15.5 44s-27.166 15 -50.499 15c-44 0 -66 -19.667 -66 -59c0 -38.667 22 -58 66 -58zM211 -9.99902c-48.667 0 -85.499 12.833 -110.499 38.5s-37.5 62.5 -37.5 110.5v401h139v-358
c0 -30 5.16699 -51.333 15.5 -64s28.166 -19 53.499 -19c24.667 0 51.167 5 79.5 15s56.166 21 83.499 33v393h139v-540h-117l-8 64h-4l-68.5 -34c-19.667 -9.33301 -38 -17 -55 -23s-34.167 -10.333 -51.5 -13s-36.666 -4 -57.999 -4z" />
    <glyph glyph-name="Uhungarumlaut" unicode="&#x170;" horiz-adv-x="784" 
d="M392 -10c-58.667 0 -108.33 6.16602 -148.997 18.499s-73.834 31.333 -99.501 57s-44.167 58.167 -55.5 97.5s-17 86 -17 140v438h141v-440c0 -68 14.667 -117.5 44 -148.5s74.666 -46.5 135.999 -46.5s106.5 15.333 135.5 46s43.5 80.334 43.5 149.001v440h142v-438
c0 -54 -5.83301 -100.667 -17.5 -140s-30.167 -71.833 -55.5 -97.5s-58.333 -44.667 -99 -57s-90.334 -18.5 -149.001 -18.5zM238.004 809.999l69 155h137l-111 -167zM428.004 809.999l69 155h137l-110 -167z" />
    <glyph glyph-name="uhungarumlaut" unicode="&#x171;" horiz-adv-x="639" 
d="M211 -10c-48.667 0 -85.499 12.833 -110.499 38.5s-37.5 62.5 -37.5 110.5v401h139v-358c0 -30 5.16699 -51.333 15.5 -64s28.166 -19 53.499 -19c24.667 0 51.167 5 79.5 15s56.166 21 83.499 33v393h139v-540h-117l-8 64h-4l-68.5 -34
c-19.667 -9.33301 -38 -17 -55 -23s-34.167 -10.333 -51.5 -13s-36.666 -4 -57.999 -4zM156.001 622l68 185h138l-113 -195zM362.001 622l68 185h137l-111 -195z" />
    <glyph glyph-name="Uogonek" unicode="&#x172;" horiz-adv-x="784" 
d="M388 -213c-42 0 -73.9971 7.49805 -95.9971 22.498s-33 37.5 -33 67.5c0 20.667 6 40.667 18 60s30.667 38 56 56c-48 4 -88.5 13.167 -121.5 27.5s-60 34.166 -81 59.499s-36.167 56.5 -45.5 93.5s-14 80.167 -14 129.5v438h141v-440c0 -68 14.667 -117.5 44 -148.5
s74.666 -46.5 135.999 -46.5s106.5 15.333 135.5 46s43.5 80.334 43.5 149.001v440h142v-438c0 -47.333 -4.5 -89.166 -13.5 -125.499s-23.167 -67.166 -42.5 -92.499s-44.333 -45.5 -75 -60.5s-68 -25.167 -112 -30.5c-43.333 -18.667 -74 -36.167 -92 -52.5
s-27 -32.5 -27 -48.5c0 -19.333 13 -29 39 -29c9.33301 0 21.666 1.33301 36.999 4s29.666 5.66699 42.999 9v-78c-24 -8 -51.333 -12 -82 -12z" />
    <glyph glyph-name="uogonek" unicode="&#x173;" horiz-adv-x="639" 
d="M211 -10c-48.667 0 -85.4971 12.833 -110.497 38.5s-37.5 62.5 -37.5 110.5v401h139v-358c0 -30 5.16699 -51.333 15.5 -64s28.166 -19 53.499 -19c24.667 0 51.167 5 79.5 15s56.166 21 83.499 33v393h139v-553c-43.333 -18.667 -74 -36.167 -92 -52.5
s-27 -32.5 -27 -48.5c0 -19.333 13 -29 39 -29c9.33301 0 21.666 1.33301 36.999 4s29.666 5.66699 42.999 9v-78c-24 -8 -51.333 -12 -82 -12c-42 0 -74 7.5 -96 22.5s-33 37.5 -33 67.5c0 23.333 7.33301 45.833 22 67.5s38.667 42.5 72 62.5l-8 64h-4l-68.5 -34
c-19.667 -9.33301 -38 -17 -55 -23s-34.167 -10.333 -51.5 -13s-36.666 -4 -57.999 -4z" />
    <glyph glyph-name="Wcircumflex" unicode="&#x174;" horiz-adv-x="1061" 
d="M14 740h151l106 -463l26 -134h10l31 134l122 463h143l121 -463l30 -134h10l27 134l107 463h151l-192 -740h-187l-109 408l-26 154h-8l-26 -155l-110 -407h-187zM345 903l185 76l187 -76v-98l-186 76l-186 -76v98z" />
    <glyph glyph-name="wcircumflex" unicode="&#x175;" horiz-adv-x="832" 
d="M231 716l184 76l188 -76v-97l-186 75l-186 -75v97zM17 535v5h136l78 -334l14 -74h9l14 74l87 334h121l89 -334l15 -74h9l14 74l76 334h135v-5l-144 -535h-154l-83 309l-13 68h-9l-12 -68l-81 -309h-153z" />
    <glyph glyph-name="Ycircumflex" unicode="&#x176;" horiz-adv-x="684" 
d="M272 241l-275 499h154l156 -298l30 -72h9l31 72l156 298h153l-272 -495v-245h-142v241zM156 903l185 76l187 -76v-98l-186 76l-186 -76v98z" />
    <glyph glyph-name="ycircumflex" unicode="&#x177;" horiz-adv-x="604" 
d="M154 -200l-1 12l79 195l-223 518v15h149l112 -302l28 -92h8l28 92l116 302h145v-15l-311 -745zM120 716l184 76l188 -76v-97l-186 75l-186 -75v97z" />
    <glyph glyph-name="Ydieresis" unicode="&#x178;" horiz-adv-x="684" 
d="M272 241l-275 499h154l156 -298l30 -72h9l31 72l156 298h153l-272 -495v-245h-142v241zM202 810c-28 0 -48.333 6.00098 -61 18.001s-19 32 -19 60c0 27.333 6.33301 47.166 19 59.499s33 18.5 61 18.5s48.333 -6.33301 61 -19s19 -32.334 19 -59.001
c0 -27.333 -6.33301 -47.166 -19 -59.499s-33 -18.5 -61 -18.5zM480 810.001c-28 0 -48.167 6.00098 -60.5 18.001s-18.5 32 -18.5 60c0 27.333 6.16699 47.166 18.5 59.499s32.5 18.5 60.5 18.5s48.333 -6.33301 61 -19s19 -32.334 19 -59.001
c0 -27.333 -6.33301 -47.166 -19 -59.499s-33 -18.5 -61 -18.5z" />
    <glyph glyph-name="Zacute" unicode="&#x179;" horiz-adv-x="626" 
d="M32 105l376 514v7h-362v114h534v-102l-376 -517v-7h391v-114h-563v105zM267 809l69 160h144l-110 -168z" />
    <glyph glyph-name="zacute" unicode="&#x17a;" horiz-adv-x="534" 
d="M222 617l68 187h142l-111 -195zM36 89l277 338v7h-268v106h444v-87l-271 -339v-8h281v-106h-463v89z" />
    <glyph glyph-name="Zdotaccent" unicode="&#x17b;" horiz-adv-x="626" 
d="M314 806c-28 0 -48.333 6 -61 18s-19 32 -19 60s6.33301 48 19 60s33 18 61 18s48.333 -6.16699 61 -18.5s19 -32.166 19 -59.499c0 -26.667 -6.33301 -46.334 -19 -59.001s-33 -19 -61 -19zM32 105l376 514v7h-362v114h534v-102l-376 -517v-7h391v-114h-563v105z" />
    <glyph glyph-name="zdotaccent" unicode="&#x17c;" horiz-adv-x="534" 
d="M36 89l277 338v7h-268v106h444v-87l-271 -339v-8h281v-106h-463v89zM263 625c-28 0 -48.333 6.16895 -61 18.502s-19 32.166 -19 59.499s6.33301 47.166 19 59.499s33 18.5 61 18.5c53.333 0 80 -26 80 -78s-26.667 -78 -80 -78z" />
    <glyph glyph-name="Zcaron" unicode="&#x17d;" horiz-adv-x="626" 
d="M130 977l186 -76l186 76v-98l-187 -76l-185 76v98zM32 105l376 514v7h-362v114h534v-102l-376 -517v-7h391v-114h-563v105z" />
    <glyph glyph-name="zcaron" unicode="&#x17e;" horiz-adv-x="534" 
d="M85 787l186 -76l186 76v-98l-187 -76l-185 76v98zM36 89l277 338v7h-268v106h444v-87l-271 -339v-8h281v-106h-463v89z" />
    <glyph glyph-name="Schwa" unicode="&#x18f;" horiz-adv-x="718" 
d="M39 325c0 16.667 0.503906 32.498 1.50391 47.498s2.5 31.833 4.5 50.5h490c-2 38.667 -7.33301 71.167 -16 97.5s-21.334 47.5 -38.001 63.5s-37.667 27.5 -63 34.5s-56 10.5 -92 10.5c-34 0 -71.667 -2.5 -113 -7.5s-87.333 -13.833 -138 -26.5
c0 0.666992 -0.333008 6.83398 -1 18.501s-1.33398 24.667 -2.00098 39s-1.33398 27.333 -2.00098 39s-1 17.834 -1 18.501c18.667 6.66699 39.5 12.5 62.5 17.5s46.667 9.16699 71 12.5s48.166 6 71.499 8s45 3 65 3c223.333 0 335 -123.333 335 -370
c0 -125.333 -28 -221.833 -84 -289.5s-139 -101.5 -249 -101.5c-96.667 0 -171.167 27.667 -223.5 83s-78.5 139.333 -78.5 252zM343.004 102.998c32.667 0 60.6689 4.00098 84.002 12.001s42.666 20.667 57.999 38s27.166 40.166 35.499 68.499s13.5 62.5 15.5 102.5h-362
c-0.666992 -38 1.5 -70.833 6.5 -98.5s14 -50.667 27 -69s30.5 -31.833 52.5 -40.5s49.667 -13 83 -13z" />
    <glyph glyph-name="florin" unicode="&#x192;" horiz-adv-x="462" 
d="M147 423h-117v117h117v25c0 46.667 5 85.834 15 117.501s26.5 57 49.5 76s53.5 32.667 91.5 41s85.333 13.166 142 14.499l7 -101c-32.667 -1.33301 -59.667 -4.33301 -81 -9s-38.333 -11.834 -51 -21.501s-21.667 -22.667 -27 -39s-8 -37.166 -8 -62.499v-41h144v-117
h-144v-596l-138 -47v643z" />
    <glyph glyph-name="uni01C4" unicode="&#x1c4;" horiz-adv-x="1383" 
d="M887 977l186 -76l186 76v-98l-187 -76l-185 76v98zM789 105l376 514v7h-362v114h534v-102l-376 -517v-7h391v-114h-563v105zM284 -11c-39.333 0 -77.6699 1.16699 -115.003 3.5s-67.666 5.83301 -90.999 10.5v735c46 3.33301 89.5 6 130.5 8s75.833 3 104.5 3
c69.333 0 129.333 -7.5 180 -22.5s92.334 -38 125.001 -69s56.834 -70.333 72.501 -118s23.5 -104.5 23.5 -170.5c0 -67.333 -8.16699 -124.833 -24.5 -172.5s-41.833 -87 -76.5 -118s-79.167 -53.667 -133.5 -68s-119.5 -21.5 -195.5 -21.5zM334.996 103
c42 0 77.668 4.83301 107.001 14.5s53.5 25.167 72.5 46.5s32.833 49 41.5 83s13 75 13 123s-4.33301 88.667 -13 122s-22.5 60.666 -41.5 81.999s-43.5 36.833 -73.5 46.5s-66.333 14.5 -109 14.5c-15.333 0 -32.833 -0.666992 -52.5 -2s-39.834 -3 -60.501 -5v-516
c21.333 -3.33301 41 -5.66602 59 -6.99902s37 -2 57 -2z" />
    <glyph glyph-name="uni01C5" unicode="&#x1c5;" horiz-adv-x="1291" 
d="M842 787l186 -76l186 76v-98l-187 -76l-185 76v98zM793 89l277 338v7h-268v106h444v-87l-271 -339v-8h281v-106h-463v89zM284 -11c-39.333 0 -77.6699 1.16699 -115.003 3.5s-67.666 5.83301 -90.999 10.5v735c46 3.33301 89.5 6 130.5 8s75.833 3 104.5 3
c69.333 0 129.333 -7.5 180 -22.5s92.334 -38 125.001 -69s56.834 -70.333 72.501 -118s23.5 -104.5 23.5 -170.5c0 -67.333 -8.16699 -124.833 -24.5 -172.5s-41.833 -87 -76.5 -118s-79.167 -53.667 -133.5 -68s-119.5 -21.5 -195.5 -21.5zM334.996 103
c42 0 77.668 4.83301 107.001 14.5s53.5 25.167 72.5 46.5s32.833 49 41.5 83s13 75 13 123s-4.33301 88.667 -13 122s-22.5 60.666 -41.5 81.999s-43.5 36.833 -73.5 46.5s-66.333 14.5 -109 14.5c-15.333 0 -32.833 -0.666992 -52.5 -2s-39.834 -3 -60.501 -5v-516
c21.333 -3.33301 41 -5.66602 59 -6.99902s37 -2 57 -2z" />
    <glyph glyph-name="uni01C6" unicode="&#x1c6;" horiz-adv-x="1173" 
d="M724 787l186 -76l186 76v-98l-187 -76l-185 76v98zM675 89l277 338v7h-268v106h444v-87l-271 -339v-8h281v-106h-463v89zM267 -10c-74.667 0 -131.166 22 -169.499 66s-57.5 112.333 -57.5 205c0 48 6.66699 90.167 20 126.5s32.5 66.5 57.5 90.5s55.333 42 91 54
s75.5 18 119.5 18c19.333 0 37.666 -0.833008 54.999 -2.5s34 -3.16699 50 -4.5v265h139v-808h-122l-11 66h-7c-36 -50.667 -91 -76 -165 -76zM306.001 94c37.333 0 67.832 9.66797 91.499 29.001s35.5 48.666 35.5 87.999v230c-15.333 2.66699 -32 5 -50 7s-37.667 3 -59 3
c-25.333 0 -47.166 -3 -65.499 -9s-33.333 -16.167 -45 -30.5s-20.167 -33 -25.5 -56s-8 -51.5 -8 -85.5c0 -32.667 2.33301 -60.167 7 -82.5s12 -40.5 22 -54.5s23 -24 39 -30s35.333 -9 58 -9z" />
    <glyph glyph-name="uni01C7" unicode="&#x1c7;" horiz-adv-x="855" 
d="M561 -159c14.667 32.667 27 63 37 91s18 55.5 24 82.5s10.167 54.833 12.5 83.5s3.5 60 3.5 94v548h142v-558c0 -34 -2.16699 -66 -6.5 -96s-11.5 -60 -21.5 -90s-23 -60.833 -39 -92.5s-36 -66.167 -60 -103.5zM78 740h142v-629h324v-111h-466v740z" />
    <glyph glyph-name="uni01C8" unicode="&#x1c8;" horiz-adv-x="828" 
d="M692 630c-28 0 -48.167 6 -60.5 18s-18.5 31.333 -18.5 58s6.16699 46.167 18.5 58.5s32.5 18.5 60.5 18.5s48.167 -6.33301 60.5 -19s18.5 -32 18.5 -58c0 -25.333 -6.16699 -44.333 -18.5 -57s-32.5 -19 -60.5 -19zM571 -198c10 25.333 18.3311 50.3291 24.998 74.9961
s12.334 50.334 17.001 77.001s8 55.5 10 86.5s3 65.5 3 103.5v33.5v63.5v80c0 28.667 -0.166992 56.834 -0.5 84.501s-0.666016 53.334 -0.999023 77.001s-0.5 42.834 -0.5 57.501h139v-461c-3.33301 -54 -12.833 -106.333 -28.5 -157s-36.5 -98 -62.5 -142zM77.998 739.996
h142v-629h324v-111h-466v740z" />
    <glyph glyph-name="uni01C9" unicode="&#x1c9;" horiz-adv-x="545" 
d="M408 630c-28 0 -48.167 6 -60.5 18s-18.5 31.333 -18.5 58s6.16699 46.167 18.5 58.5s32.5 18.5 60.5 18.5s48.167 -6.33301 60.5 -19s18.5 -32 18.5 -58c0 -25.333 -6.16699 -44.333 -18.5 -57s-32.5 -19 -60.5 -19zM287 -198c10 25.333 18.3311 50.3291 24.998 74.9961
s12.334 50.334 17.001 77.001s8 55.5 10 86.5s3 65.5 3 103.5v33.5v63.5v80c0 28.667 -0.166992 56.834 -0.5 84.501s-0.666016 53.334 -0.999023 77.001s-0.5 42.834 -0.5 57.501h139v-461c-3.33301 -54 -12.833 -106.333 -28.5 -157s-36.5 -98 -62.5 -142zM67.998 807.996
h139v-808h-139v808z" />
    <glyph glyph-name="uni01CA" unicode="&#x1ca;" horiz-adv-x="1099" 
d="M804 -159c14.667 32.667 27 63 37 91s18 55.5 24 82.5s10.167 54.833 12.5 83.5s3.5 60 3.5 94v548h142v-558c0 -34 -2.16699 -66 -6.5 -96s-11.5 -60 -21.5 -90s-23 -60.833 -39 -92.5s-36 -66.167 -60 -103.5zM78 740h116l337 -443l59 -86h8v529h125v-740h-116
l-334 438l-62 90h-8v-528h-125v740z" />
    <glyph glyph-name="uni01CB" unicode="&#x1cb;" horiz-adv-x="1071" 
d="M935 630c-28 0 -48.167 6 -60.5 18s-18.5 31.333 -18.5 58s6.16699 46.167 18.5 58.5s32.5 18.5 60.5 18.5s48.167 -6.33301 60.5 -19s18.5 -32 18.5 -58c0 -25.333 -6.16699 -44.333 -18.5 -57s-32.5 -19 -60.5 -19zM814 -198c10 25.333 18.3311 50.3291 24.998 74.9961
s12.334 50.334 17.001 77.001s8 55.5 10 86.5s3 65.5 3 103.5v33.5v63.5v80c0 28.667 -0.166992 56.834 -0.5 84.501s-0.666016 53.334 -0.999023 77.001s-0.5 42.834 -0.5 57.501h139v-461c-3.33301 -54 -12.833 -106.333 -28.5 -157s-36.5 -98 -62.5 -142zM77.998 739.996
h116l337 -443l59 -86h8v529h125v-740h-116l-334 438l-62 90h-8v-528h-125v740z" />
    <glyph glyph-name="uni01CC" unicode="&#x1cc;" horiz-adv-x="910" 
d="M773 630c-28 0 -48.167 6 -60.5 18s-18.5 31.333 -18.5 58s6.16699 46.167 18.5 58.5s32.5 18.5 60.5 18.5s48.167 -6.33301 60.5 -19s18.5 -32 18.5 -58c0 -25.333 -6.16699 -44.333 -18.5 -57s-32.5 -19 -60.5 -19zM652 -198c10 25.333 18.3311 50.3291 24.998 74.9961
s12.334 50.334 17.001 77.001s8 55.5 10 86.5s3 65.5 3 103.5v33.5v63.5v80c0 28.667 -0.166992 56.834 -0.5 84.501s-0.666016 53.334 -0.999023 77.001s-0.5 42.834 -0.5 57.501h139v-461c-3.33301 -54 -12.833 -106.333 -28.5 -157s-36.5 -98 -62.5 -142zM66.998 539.996
h116l8 -62h6c51.333 25.333 95 43.666 131 54.999s69.333 17 100 17c46.667 0 83 -12.667 109 -38s39 -62.333 39 -111v-401h-139v354c0 30.667 -5.66699 52.5 -17 65.5s-29.333 19.5 -54 19.5c-21.333 0 -45.833 -4.16699 -73.5 -12.5s-56.5 -19.166 -86.5 -32.499v-394
h-139v540z" />
    <glyph glyph-name="Oogonek" unicode="&#x1ea;" horiz-adv-x="776" 
d="M387 -210c-42 0 -73.9971 7.49805 -95.9971 22.498s-33 37.5 -33 67.5c0 41.333 23.667 79.333 71 114c-93.333 10.667 -164.333 47.334 -213 110.001s-73 151 -73 265c0 126 29.5 221 88.5 285s144.5 96 256.5 96s197.5 -32.167 256.5 -96.5
s88.5 -159.166 88.5 -284.499c0 -109.333 -22.667 -195.333 -68 -258s-111.333 -101 -198 -115c-42.667 -18 -72.834 -35.167 -90.501 -51.5s-26.5 -32.5 -26.5 -48.5c0 -19.333 13 -29 39 -29c9.33301 0 21.666 1.33301 36.999 4s29.666 5.66699 42.999 9v-78
c-24 -8 -51.333 -12 -82 -12zM388.003 104.998c35.333 0 65.668 4.83301 91.001 14.5s46 25.167 62 46.5s27.833 48.666 35.5 81.999s11.5 73.666 11.5 120.999c0 94 -16 161.833 -48 203.5s-82.667 62.5 -152 62.5c-35.333 0 -65.5 -5 -90.5 -15s-45.667 -25.667 -62 -47
s-28.333 -48.833 -36 -82.5s-11.5 -74.167 -11.5 -121.5s3.83301 -87.666 11.5 -120.999s19.5 -60.666 35.5 -81.999s36.667 -36.833 62 -46.5s55.666 -14.5 90.999 -14.5z" />
    <glyph glyph-name="oogonek" unicode="&#x1eb;" horiz-adv-x="628" 
d="M322 -207c-42 0 -73.9971 7.5 -95.9971 22.5s-33 37.5 -33 67.5c0 40 22.333 77 67 111c-72.667 9.33301 -127.667 37.333 -165 84s-56 110.667 -56 192c0 91.333 23.5 160.833 70.5 208.5s115.167 71.5 204.5 71.5s157.5 -23.833 204.5 -71.5s70.5 -117.167 70.5 -208.5
c0 -74.667 -15.833 -134.667 -47.5 -180s-77.834 -75.333 -138.501 -90c-42.667 -18.667 -73 -36.167 -91 -52.5s-27 -32.5 -27 -48.5c0 -19.333 13 -29 39 -29c9.33301 0 21.666 1.33301 36.999 4s29.666 5.66699 42.999 9v-78c-24 -8 -51.333 -12 -82 -12zM314.003 97
c48 0 82.5 13.167 103.5 39.5s31.5 70.833 31.5 133.5s-10.5 107 -31.5 133s-55.5 39 -103.5 39s-82.5 -13 -103.5 -39s-31.5 -70.333 -31.5 -133s10.5 -107.167 31.5 -133.5s55.5 -39.5 103.5 -39.5z" />
    <glyph glyph-name="uni01F1" unicode="&#x1f1;" horiz-adv-x="1370" 
d="M776 105l376 514v7h-362v114h534v-102l-376 -517v-7h391v-114h-563v105zM284 -11c-39.333 0 -77.6699 1.16699 -115.003 3.5s-67.666 5.83301 -90.999 10.5v735c46 3.33301 89.5 6 130.5 8s75.833 3 104.5 3c69.333 0 129.333 -7.5 180 -22.5s92.334 -38 125.001 -69
s56.834 -70.333 72.501 -118s23.5 -104.5 23.5 -170.5c0 -67.333 -8.16699 -124.833 -24.5 -172.5s-41.833 -87 -76.5 -118s-79.167 -53.667 -133.5 -68s-119.5 -21.5 -195.5 -21.5zM334.996 103c42 0 77.668 4.83301 107.001 14.5s53.5 25.167 72.5 46.5s32.833 49 41.5 83
s13 75 13 123s-4.33301 88.667 -13 122s-22.5 60.666 -41.5 81.999s-43.5 36.833 -73.5 46.5s-66.333 14.5 -109 14.5c-15.333 0 -32.833 -0.666992 -52.5 -2s-39.834 -3 -60.501 -5v-516c21.333 -3.33301 41 -5.66602 59 -6.99902s37 -2 57 -2z" />
    <glyph glyph-name="uni01F2" unicode="&#x1f2;" horiz-adv-x="1289" 
d="M791 89l277 338v7h-268v106h444v-87l-271 -339v-8h281v-106h-463v89zM284 -11c-39.333 0 -77.6699 1.16699 -115.003 3.5s-67.666 5.83301 -90.999 10.5v735c46 3.33301 89.5 6 130.5 8s75.833 3 104.5 3c69.333 0 129.333 -7.5 180 -22.5s92.334 -38 125.001 -69
s56.834 -70.333 72.501 -118s23.5 -104.5 23.5 -170.5c0 -67.333 -8.16699 -124.833 -24.5 -172.5s-41.833 -87 -76.5 -118s-79.167 -53.667 -133.5 -68s-119.5 -21.5 -195.5 -21.5zM334.996 103c42 0 77.668 4.83301 107.001 14.5s53.5 25.167 72.5 46.5s32.833 49 41.5 83
s13 75 13 123s-4.33301 88.667 -13 122s-22.5 60.666 -41.5 81.999s-43.5 36.833 -73.5 46.5s-66.333 14.5 -109 14.5c-15.333 0 -32.833 -0.666992 -52.5 -2s-39.834 -3 -60.501 -5v-516c21.333 -3.33301 41 -5.66602 59 -6.99902s37 -2 57 -2z" />
    <glyph glyph-name="uni01F3" unicode="&#x1f3;" horiz-adv-x="1173" 
d="M675 89l277 338v7h-268v106h444v-87l-271 -339v-8h281v-106h-463v89zM267 -10c-74.667 0 -131.166 22 -169.499 66s-57.5 112.333 -57.5 205c0 48 6.66699 90.167 20 126.5s32.5 66.5 57.5 90.5s55.333 42 91 54s75.5 18 119.5 18c19.333 0 37.666 -0.833008 54.999 -2.5
s34 -3.16699 50 -4.5v265h139v-808h-122l-11 66h-7c-36 -50.667 -91 -76 -165 -76zM306.001 94c37.333 0 67.832 9.66797 91.499 29.001s35.5 48.666 35.5 87.999v230c-15.333 2.66699 -32 5 -50 7s-37.667 3 -59 3c-25.333 0 -47.166 -3 -65.499 -9
s-33.333 -16.167 -45 -30.5s-20.167 -33 -25.5 -56s-8 -51.5 -8 -85.5c0 -32.667 2.33301 -60.167 7 -82.5s12 -40.5 22 -54.5s23 -24 39 -30s35.333 -9 58 -9z" />
    <glyph glyph-name="Gacute" unicode="&#x1f4;" horiz-adv-x="687" 
d="M312 809l69 160h144l-110 -168zM406 -11c-122.667 0 -213.832 31.332 -273.499 93.999s-89.5 158 -89.5 286c0 254.667 125.667 382 377 382c32 0 66.167 -2 102.5 -6s69.833 -10 100.5 -18v-115c-42 8 -78.167 13.667 -108.5 17s-58.166 5 -83.499 5
c-44.667 0 -82.334 -4.83301 -113.001 -14.5s-55.5 -25 -74.5 -46s-32.833 -48.333 -41.5 -82s-13 -74.5 -13 -122.5c0 -47.333 4 -87.666 12 -120.999s20.667 -60.5 38 -81.5s40.166 -36.333 68.499 -46s62.5 -14.5 102.5 -14.5c12 0 26 0.5 42 1.5s32 2.5 48 4.5v264h131
v-353c-37.333 -10 -76.5 -18.167 -117.5 -24.5s-76.833 -9.5 -107.5 -9.5z" />
    <glyph glyph-name="gacute" unicode="&#x1f5;" horiz-adv-x="638" 
d="M278 617l68 187h142l-111 -195zM282 -220c-36 0 -72.3301 1.99805 -108.997 5.99805s-68.334 9.66699 -95.001 17l9 102c24 -5.33301 51 -10.166 81 -14.499s60 -6.5 90 -6.5c26.667 0 51.167 2.5 73.5 7.5s41.666 13.667 57.999 26s29.166 28.833 38.499 49.5
s14 46.334 14 77.001v45h-7c-18 -27.333 -41 -47.333 -69 -60s-60.667 -19 -98 -19c-74.667 0 -131.334 20.833 -170.001 62.5s-58 106.5 -58 194.5c0 47.333 6.83301 88.666 20.5 123.999s33 64.833 58 88.5s55.333 41.334 91 53.001s75.5 17.5 119.5 17.5
c16 0 32.333 -0.5 49 -1.5s34.667 -3 54 -6s40.666 -7 63.999 -12s49 -11.5 77 -19.5v-450c0 -53.333 -7.83301 -98 -23.5 -134s-36.667 -64.833 -63 -86.5s-57.166 -37.167 -92.499 -46.5s-72.666 -14 -111.999 -14zM307.003 110.998c38 0 68.665 9.83203 91.998 29.499
s35 49.167 35 88.5v212c-15.333 2.66699 -32.166 5 -50.499 7s-37.833 3 -58.5 3c-25.333 0 -47.166 -3 -65.499 -9s-33.333 -15.667 -45 -29s-20.167 -31.166 -25.5 -53.499s-8 -49.833 -8 -82.5c0 -60.667 9.5 -103.5 28.5 -128.5s51.5 -37.5 97.5 -37.5z" />
    <glyph glyph-name="Aringacute" unicode="&#x1fa;" horiz-adv-x="719" 
d="M3 8l227.999 662c-24.667 20.667 -37 48.667 -37 84c0 34 11.167 62.333 33.5 85s52.5 37.334 90.5 44.001l52 111h144l-80 -120c28.667 -10 51.334 -25.5 68.001 -46.5s25 -45.5 25 -73.5c0 -17.333 -3.5 -33.333 -10.5 -48s-16.5 -27.334 -28.5 -38.001l228 -660v-8
h-137l-66 191h-308l-65 -191h-137v8zM358.999 690c24.667 0 44.5 5.83301 59.5 17.5s22.5 27.167 22.5 46.5s-7.5 34.833 -22.5 46.5s-34.833 17.5 -59.5 17.5c-24 0 -43.167 -5.83301 -57.5 -17.5s-21.5 -27.167 -21.5 -46.5s7.16699 -34.833 21.5 -46.5
s33.5 -17.5 57.5 -17.5zM476.999 307l-66 194l-35 111h-33l-36 -111l-66 -194h236z" />
    <glyph glyph-name="aringacute" unicode="&#x1fb;" horiz-adv-x="567" 
d="M186 -5c-50 0 -87.833 13 -113.5 39s-38.5 63 -38.5 111c0 53.333 16.5 93.833 49.5 121.5s84.833 44.167 155.5 49.5l127 9v18c0 20 -1.66699 36.5 -5 49.5s-9.5 23.5 -18.5 31.5s-21.333 13.667 -37 17s-35.834 5 -60.501 5c-23.333 0 -49.666 -1.5 -78.999 -4.5
s-59 -7.5 -89 -13.5l-9 99c74.667 13.333 141.667 20 201 20c80.667 0 140.167 -14.667 178.5 -44s57.5 -75 57.5 -137v-366h-114l-13 67h-8c-58 -48 -119.333 -72 -184 -72zM285 594c-18.667 0 -36 2.66699 -52 8s-29.667 13 -41 23s-20.333 21.833 -27 35.5
s-10 28.5 -10 44.5c0 30 9.83301 55 29.5 75s45.5 32 77.5 36l59 162h142l-102 -180c16.667 -9.33301 29.667 -22.166 39 -38.499s14 -34.5 14 -54.5c0 -32.667 -12 -59.334 -36 -80.001s-55 -31 -93 -31zM243 93c20 0 41 4.33203 63 12.999s42 19.334 60 32.001v111l-85 -8
c-40 -3.33301 -67.833 -11 -83.5 -23s-23.5 -31.333 -23.5 -58c0 -44.667 23 -67 69 -67zM285 646.999c23.333 0 40.166 5 50.499 15s15.5 24.333 15.5 43c0 19.333 -5.16699 34 -15.5 44s-27.166 15 -50.499 15c-44 0 -66 -19.667 -66 -59c0 -38.667 22 -58 66 -58z" />
    <glyph glyph-name="AEacute" unicode="&#x1fc;" horiz-adv-x="950" 
d="M479 809l69 160h144l-110 -168zM-1 9l299 731h597v-112h-322l11 -199h291v-112h-284l12 -205h305v-112h-446l-8 191h-238l-78 -191h-139v9zM263 307h186l-13 330h-38z" />
    <glyph glyph-name="aeacute" unicode="&#x1fd;" horiz-adv-x="904" 
d="M408 617l68 187h142l-111 -195zM639 -12c-97.333 0 -166.667 30.667 -208 92h-7c-48 -30 -90.833 -51.667 -128.5 -65s-74.5 -20 -110.5 -20c-48.667 0 -86 13.167 -112 39.5s-39 63.5 -39 111.5c0 52.667 16.667 92.667 50 120s85.333 43.666 156 48.999l127 9v31
c0 17.333 -2.16699 31.833 -6.5 43.5s-11.333 21 -21 28s-22.667 12 -39 15s-36.833 4.5 -61.5 4.5c-22 0 -47.167 -1.5 -75.5 -4.5s-56.833 -7.5 -85.5 -13.5l-10 99c38 7.33301 73.333 12.5 106 15.5s65.667 4.5 99 4.5c88.667 0 147 -25.667 175 -77h8
c20 24.667 45 43.5 75 56.5s65.667 19.5 107 19.5c74.667 0 131 -20.167 169 -60.5s57 -99.833 57 -178.5c0 -17.333 -0.666992 -32.166 -2 -44.499s-3.33301 -23.5 -6 -33.5h-348c2.66699 -48 15.167 -82.333 37.5 -103s57.833 -31 106.5 -31c28.667 0 60 2.16699 94 6.5
s65 10.5 93 18.5l5 -100c-30 -10 -63.167 -17.833 -99.5 -23.5s-71.5 -8.5 -105.5 -8.5zM244.999 92c18.667 0 38.8311 4.16797 60.498 12.501s42.834 19.833 63.501 34.5c0 0.666992 -0.166992 6.66699 -0.5 18s-0.666016 23.666 -0.999023 36.999s-0.5 25.666 -0.5 36.999
v19l-86 -8c-40 -3.33301 -67.667 -11.166 -83 -23.499s-23 -31.833 -23 -58.5c0 -45.333 23.333 -68 70 -68zM739.996 303.001c-1.33301 52 -10.167 89 -26.5 111s-43.5 33 -81.5 33c-40 0 -70.167 -11.5 -90.5 -34.5s-31.833 -59.5 -34.5 -109.5h233z" />
    <glyph glyph-name="Oslashacute" unicode="&#x1fe;" horiz-adv-x="778" 
d="M115 107c-47.333 63.333 -70.999 150.667 -70.999 262c0 126 29.5 221 88.5 285s144.5 96 256.5 96c87.333 0 159 -20.333 215 -61l42 51h106l-90 -108c23.333 -32 41.166 -69.667 53.499 -113s18.5 -93.333 18.5 -150c0 -124.667 -29.5 -219 -88.5 -283
s-144.5 -96 -256.5 -96c-88 0 -160 20 -216 60l-42 -50h-106zM389.001 105.001c35.333 0 65.668 4.83496 91.001 14.502s46.166 25.167 62.499 46.5s28.333 48.666 36 81.999s11.5 73.666 11.5 120.999c0 62 -7 112.667 -21 152l-315 -374c30.667 -28 75.667 -42 135 -42z
M189.003 369.003c0 -63.333 6.66797 -113.667 20.001 -151l314 375c-30.667 28 -75.334 42 -134.001 42c-69.333 0 -120 -20.667 -152 -62s-48 -109.333 -48 -204zM330.004 809.002l69 160h144l-110 -168z" />
    <glyph glyph-name="oslashacute" unicode="&#x1ff;" horiz-adv-x="634" 
d="M93 85c-33.333 46 -49.999 107.667 -49.999 185c0 88 22.667 156.667 68 206s114 74 206 74c35.333 0 67.166 -3.83301 95.499 -11.5s53.5 -18.5 75.5 -32.5l32 34h102l-81 -86c34 -46 51 -107.333 51 -184c0 -88.667 -22.833 -157.5 -68.5 -206.5
s-114.5 -73.5 -206.5 -73.5c-70 0 -126.667 14.667 -170 44l-32 -34h-102zM317.001 97c26.667 0 48.833 3.33398 66.5 10.001s31.667 17.167 42 31.5s17.5 32.333 21.5 54s6 47.5 6 77.5c0 33.333 -2.33301 60.666 -7 81.999l-219 -232c20 -15.333 50 -23 90 -23z
M183 270.001c0 -16 0.333008 -30.833 1 -44.5s2.33398 -26.167 5.00098 -37.5l217 231c-20.667 15.333 -50.334 23 -89.001 23c-26.667 0 -48.667 -3.33301 -66 -10s-31 -17 -41 -31s-17 -31.833 -21 -53.5s-6 -47.5 -6 -77.5zM265 617.001l68 187h142l-111 -195z" />
    <glyph glyph-name="Adblgrave" unicode="&#x200;" horiz-adv-x="719" 
d="M2 8l252 732h211l252 -732v-8h-138l-67 193h-306l-66 -193h-138v8zM478 305l-67 196l-46 139h-12l-45 -139l-68 -196h238zM212 798l-111 167h137l69 -155zM402 798l-111 167h136l70 -155z" />
    <glyph glyph-name="adblgrave" unicode="&#x201;" horiz-adv-x="567" 
d="M186 -5c-50 0 -87.833 13 -113.5 39s-38.5 63 -38.5 111c0 53.333 16.5 93.833 49.5 121.5s84.833 44.167 155.5 49.5l127 9v18c0 20 -1.66699 36.5 -5 49.5s-9.5 23.5 -18.5 31.5s-21.333 13.667 -37 17s-35.834 5 -60.501 5c-23.333 0 -49.666 -1.5 -78.999 -4.5
s-59 -7.5 -89 -13.5l-9 99c74.667 13.333 141.667 20 201 20c80.667 0 140.167 -14.667 178.5 -44s57.5 -75 57.5 -137v-366h-114l-13 67h-8c-58 -48 -119.333 -72 -184 -72zM243 93c20 0 41 4.33203 63 12.999s42 19.334 60 32.001v111l-85 -8
c-40 -3.33301 -67.833 -11 -83.5 -23s-23.5 -31.333 -23.5 -58c0 -44.667 23 -67 69 -67zM146 611.999l-112 195h138l67 -185zM353 611.999l-113 195h138l68 -185z" />
    <glyph glyph-name="Ainvertedbreve" unicode="&#x202;" horiz-adv-x="719" 
d="M2 8l252 732h211l252 -732v-8h-138l-67 193h-306l-66 -193h-138v8zM478 305l-67 196l-46 139h-12l-45 -139l-68 -196h238zM467 817c0 30.667 -8.33398 54.167 -25.001 70.5s-44.334 24.5 -83.001 24.5c-38 0 -65.5 -8.16699 -82.5 -24.5s-25.5 -39.833 -25.5 -70.5h-95
c0 24 3.83301 46.167 11.5 66.5s19.667 37.833 36 52.5s37.333 26.167 63 34.5s56.5 12.5 92.5 12.5s66.833 -4 92.5 -12s46.834 -19.333 63.501 -34s28.834 -32.167 36.501 -52.5s11.5 -42.833 11.5 -67.5h-96z" />
    <glyph glyph-name="ainvertedbreve" unicode="&#x203;" horiz-adv-x="567" 
d="M186 -5c-50 0 -87.833 13 -113.5 39s-38.5 63 -38.5 111c0 53.333 16.5 93.833 49.5 121.5s84.833 44.167 155.5 49.5l127 9v18c0 20 -1.66699 36.5 -5 49.5s-9.5 23.5 -18.5 31.5s-21.333 13.667 -37 17s-35.834 5 -60.501 5c-23.333 0 -49.666 -1.5 -78.999 -4.5
s-59 -7.5 -89 -13.5l-9 99c74.667 13.333 141.667 20 201 20c80.667 0 140.167 -14.667 178.5 -44s57.5 -75 57.5 -137v-366h-114l-13 67h-8c-58 -48 -119.333 -72 -184 -72zM243 93c20 0 41 4.33203 63 12.999s42 19.334 60 32.001v111l-85 -8
c-40 -3.33301 -67.833 -11 -83.5 -23s-23.5 -31.333 -23.5 -58c0 -44.667 23 -67 69 -67zM84 623.999c0 24.667 3.83203 47.334 11.499 68.001s19.667 38.334 36 53.001s37.333 26 63 34s56.834 12 93.501 12s68 -4 94 -12s47.167 -19.333 63.5 -34
s28.333 -32.334 36 -53.001s11.5 -43.334 11.5 -68.001h-96c0 33.333 -8.66699 57.5 -26 72.5s-45 22.5 -83 22.5s-65.5 -7.5 -82.5 -22.5s-25.5 -39.167 -25.5 -72.5h-96z" />
    <glyph glyph-name="Edblgrave" unicode="&#x204;" horiz-adv-x="643" 
d="M78 740h513v-112h-371v-199h340v-112h-340v-205h380v-112h-522v740zM192 798l-111 167h137l69 -155zM382 798l-111 167h136l70 -155z" />
    <glyph glyph-name="edblgrave" unicode="&#x205;" horiz-adv-x="574" 
d="M145 612l-112 195h138l67 -185zM352 612l-113 195h138l68 -185zM310 -9c-179.333 0 -269 91.333 -269 274c0 93.333 22.5 164 67.5 212s111.167 72 198.5 72c151.333 0 227 -80.333 227 -241c0 -16 -0.5 -30.333 -1.5 -43s-3.16699 -24.667 -6.5 -36h-348
c2 -24.667 6.16699 -45.334 12.5 -62.001s15.333 -30.167 27 -40.5s26.167 -17.666 43.5 -21.999s38.333 -6.5 63 -6.5c28 0 58.833 2.16699 92.5 6.5s64.5 10.5 92.5 18.5l5 -101c-30 -9.33301 -63 -16.833 -99 -22.5s-71 -8.5 -105 -8.5zM302 450
c-39.333 0 -69 -11.1689 -89 -33.502s-31.667 -58.166 -35 -107.499h233c-1.33301 50.667 -10.5 86.834 -27.5 108.501s-44.167 32.5 -81.5 32.5z" />
    <glyph glyph-name="Einvertedbreve" unicode="&#x206;" horiz-adv-x="643" 
d="M78 740h513v-112h-371v-199h340v-112h-340v-205h380v-112h-522v740zM444 817c0 30.667 -8.33398 54.167 -25.001 70.5s-44.334 24.5 -83.001 24.5c-38 0 -65.5 -8.16699 -82.5 -24.5s-25.5 -39.833 -25.5 -70.5h-95c0 24 3.83301 46.167 11.5 66.5s19.667 37.833 36 52.5
s37.333 26.167 63 34.5s56.5 12.5 92.5 12.5s66.833 -4 92.5 -12s46.834 -19.333 63.501 -34s28.834 -32.167 36.501 -52.5s11.5 -42.833 11.5 -67.5h-96z" />
    <glyph glyph-name="einvertedbreve" unicode="&#x207;" horiz-adv-x="574" 
d="M92 624c0 24.667 3.83203 47.334 11.499 68.001s19.667 38.334 36 53.001s37.333 26 63 34s56.834 12 93.501 12s68 -4 94 -12s47.167 -19.333 63.5 -34s28.333 -32.334 36 -53.001s11.5 -43.334 11.5 -68.001h-96c0 33.333 -8.66699 57.5 -26 72.5s-45 22.5 -83 22.5
s-65.5 -7.5 -82.5 -22.5s-25.5 -39.167 -25.5 -72.5h-96zM309.999 -9c-179.333 0 -269 91.333 -269 274c0 93.333 22.5 164 67.5 212s111.167 72 198.5 72c151.333 0 227 -80.333 227 -241c0 -16 -0.5 -30.333 -1.5 -43s-3.16699 -24.667 -6.5 -36h-348
c2 -24.667 6.16699 -45.334 12.5 -62.001s15.333 -30.167 27 -40.5s26.167 -17.666 43.5 -21.999s38.333 -6.5 63 -6.5c28 0 58.833 2.16699 92.5 6.5s64.5 10.5 92.5 18.5l5 -101c-30 -9.33301 -63 -16.833 -99 -22.5s-71 -8.5 -105 -8.5zM301.999 450
c-39.333 0 -69 -11.1689 -89 -33.502s-31.667 -58.166 -35 -107.499h233c-1.33301 50.667 -10.5 86.834 -27.5 108.501s-44.167 32.5 -81.5 32.5z" />
    <glyph glyph-name="Idblgrave" unicode="&#x208;" horiz-adv-x="298" 
d="M78 740h142v-740h-142v740zM17 798l-111 167h137l69 -155zM207 798l-111 167h136l70 -155z" />
    <glyph glyph-name="idblgrave" unicode="&#x209;" horiz-adv-x="274" 
d="M-11 612l-112 195h138l67 -185zM196 612l-113 195h138l68 -185zM68 540h139v-540h-139v540z" />
    <glyph glyph-name="Iinvertedbreve" unicode="&#x20a;" horiz-adv-x="298" 
d="M78 740h142v-740h-142v740zM259 817c0 30.667 -8.33398 54.167 -25.001 70.5s-44.334 24.5 -83.001 24.5c-38 0 -65.5 -8.16699 -82.5 -24.5s-25.5 -39.833 -25.5 -70.5h-95c0 24 3.83301 46.167 11.5 66.5s19.667 37.833 36 52.5s37.333 26.167 63 34.5
s56.5 12.5 92.5 12.5s66.833 -4 92.5 -12s46.834 -19.333 63.501 -34s28.834 -32.167 36.501 -52.5s11.5 -42.833 11.5 -67.5h-96z" />
    <glyph glyph-name="iinvertedbreve" unicode="&#x20b;" horiz-adv-x="274" 
d="M-33 624c0 24.667 3.33301 47.334 10 68.001s17 38.334 31 53.001s32 26 54 34s48.333 12 79 12s57 -4 79 -12s40 -19.333 54 -34s24.333 -32.334 31 -53.001s10.334 -43.334 11.001 -68.001h-79c-0.666992 33.333 -8.33398 57.5 -23.001 72.5s-39 22.5 -73 22.5
s-58.333 -7.5 -73 -22.5s-22 -39.167 -22 -72.5h-79zM68 540h139v-540h-139v540z" />
    <glyph glyph-name="Odblgrave" unicode="&#x20c;" horiz-adv-x="776" 
d="M388 -10c-112 0 -197.5 31.832 -256.5 95.499s-88.5 158.167 -88.5 283.5c0 126 29.5 221 88.5 285s144.5 96 256.5 96s197.5 -32.167 256.5 -96.5s88.5 -159.166 88.5 -284.499c0 -124.667 -29.5 -219 -88.5 -283s-144.5 -96 -256.5 -96zM388 104.999
c35.333 0 65.668 4.83301 91.001 14.5s46 25.167 62 46.5s27.833 48.666 35.5 81.999s11.5 73.666 11.5 120.999c0 94 -16 161.833 -48 203.5s-82.667 62.5 -152 62.5c-35.333 0 -65.5 -5 -90.5 -15s-45.667 -25.667 -62 -47s-28.333 -48.833 -36 -82.5
s-11.5 -74.167 -11.5 -121.5s3.83301 -87.666 11.5 -120.999s19.5 -60.666 35.5 -81.999s36.667 -36.833 62 -46.5s55.666 -14.5 90.999 -14.5zM244.002 797.999l-111 167h137l69 -155zM434.002 797.999l-111 167h136l70 -155z" />
    <glyph glyph-name="odblgrave" unicode="&#x20d;" horiz-adv-x="628" 
d="M160 612l-112 195h138l67 -185zM367 612l-113 195h138l68 -185zM314 -10c-89.333 0 -157.5 23.833 -204.5 71.5s-70.5 117.167 -70.5 208.5s23.5 160.833 70.5 208.5s115.167 71.5 204.5 71.5s157.5 -23.833 204.5 -71.5s70.5 -117.167 70.5 -208.5
s-23.5 -160.833 -70.5 -208.5s-115.167 -71.5 -204.5 -71.5zM314 97c48 0 82.5 13.167 103.5 39.5s31.5 70.833 31.5 133.5s-10.5 107 -31.5 133s-55.5 39 -103.5 39s-82.5 -13 -103.5 -39s-31.5 -70.333 -31.5 -133s10.5 -107.167 31.5 -133.5s55.5 -39.5 103.5 -39.5z" />
    <glyph glyph-name="Oinvertedbreve" unicode="&#x20e;" horiz-adv-x="776" 
d="M388 -10c-112 0 -197.5 31.832 -256.5 95.499s-88.5 158.167 -88.5 283.5c0 126 29.5 221 88.5 285s144.5 96 256.5 96s197.5 -32.167 256.5 -96.5s88.5 -159.166 88.5 -284.499c0 -124.667 -29.5 -219 -88.5 -283s-144.5 -96 -256.5 -96zM388 104.999
c35.333 0 65.668 4.83301 91.001 14.5s46 25.167 62 46.5s27.833 48.666 35.5 81.999s11.5 73.666 11.5 120.999c0 94 -16 161.833 -48 203.5s-82.667 62.5 -152 62.5c-35.333 0 -65.5 -5 -90.5 -15s-45.667 -25.667 -62 -47s-28.333 -48.833 -36 -82.5
s-11.5 -74.167 -11.5 -121.5s3.83301 -87.666 11.5 -120.999s19.5 -60.666 35.5 -81.999s36.667 -36.833 62 -46.5s55.666 -14.5 90.999 -14.5zM494.002 816.999c0 30.667 -8.33398 54.167 -25.001 70.5s-44.334 24.5 -83.001 24.5c-38 0 -65.5 -8.16699 -82.5 -24.5
s-25.5 -39.833 -25.5 -70.5h-95c0 24 3.83301 46.167 11.5 66.5s19.667 37.833 36 52.5s37.333 26.167 63 34.5s56.5 12.5 92.5 12.5s66.833 -4 92.5 -12s46.834 -19.333 63.501 -34s28.834 -32.167 36.501 -52.5s11.5 -42.833 11.5 -67.5h-96z" />
    <glyph glyph-name="oinvertedbreve" unicode="&#x20f;" horiz-adv-x="628" 
d="M110 624c0 24.667 3.83203 47.334 11.499 68.001s19.667 38.334 36 53.001s37.333 26 63 34s56.834 12 93.501 12s68 -4 94 -12s47.167 -19.333 63.5 -34s28.333 -32.334 36 -53.001s11.5 -43.334 11.5 -68.001h-96c0 33.333 -8.66699 57.5 -26 72.5s-45 22.5 -83 22.5
s-65.5 -7.5 -82.5 -22.5s-25.5 -39.167 -25.5 -72.5h-96zM313.999 -10c-89.333 0 -157.5 23.833 -204.5 71.5s-70.5 117.167 -70.5 208.5s23.5 160.833 70.5 208.5s115.167 71.5 204.5 71.5s157.5 -23.833 204.5 -71.5s70.5 -117.167 70.5 -208.5
s-23.5 -160.833 -70.5 -208.5s-115.167 -71.5 -204.5 -71.5zM313.999 97c48 0 82.5 13.167 103.5 39.5s31.5 70.833 31.5 133.5s-10.5 107 -31.5 133s-55.5 39 -103.5 39s-82.5 -13 -103.5 -39s-31.5 -70.333 -31.5 -133s10.5 -107.167 31.5 -133.5s55.5 -39.5 103.5 -39.5z
" />
    <glyph glyph-name="Rdblgrave" unicode="&#x210;" horiz-adv-x="698" 
d="M373 257c-24 -2 -50 -3.00098 -78 -3.00098c-8.66699 0 -20.667 0.333008 -36 1s-28.333 1.66699 -39 3v-258h-142v735c72 10 141.333 15 208 15c64 0 119 -4.83301 165 -14.5s84 -24.5 114 -44.5s52 -45.667 66 -77s21 -68.666 21 -111.999
c0 -110 -51 -183.333 -153 -220l182 -282h-158zM314 364.999c36 0 66.332 2.33301 90.999 7s44.667 12.5 60 23.5s26.333 25.167 33 42.5s10 38.666 10 63.999c0 24.667 -3.33301 45.667 -10 63s-17.667 31.333 -33 42s-35.166 18.5 -59.499 23.5s-54.166 7.5 -89.499 7.5
c-14.667 0 -31.167 -0.666992 -49.5 -2s-33.833 -2.66602 -46.5 -3.99902v-259c9.33301 -2.66699 22.166 -4.66699 38.499 -6s34.833 -2 55.5 -2zM207.999 797.999l-111 167h137l69 -155zM397.999 797.999l-111 167h136l70 -155z" />
    <glyph glyph-name="rdblgrave" unicode="&#x211;" horiz-adv-x="431" 
d="M90 612l-112 195h138l67 -185zM297 612l-113 195h138l68 -185zM67 540h115.999l8 -78h4c30.667 20.667 61.334 39 92.001 55s60 26.667 88 32h44v-120h-49c-28.667 -3.33301 -57.5 -10 -86.5 -20s-54.833 -21.667 -77.5 -35v-374h-139v540z" />
    <glyph glyph-name="Rinvertedbreve" unicode="&#x212;" horiz-adv-x="698" 
d="M373 257c-24 -2 -50 -3.00098 -78 -3.00098c-8.66699 0 -20.667 0.333008 -36 1s-28.333 1.66699 -39 3v-258h-142v735c72 10 141.333 15 208 15c64 0 119 -4.83301 165 -14.5s84 -24.5 114 -44.5s52 -45.667 66 -77s21 -68.666 21 -111.999
c0 -110 -51 -183.333 -153 -220l182 -282h-158zM314 364.999c36 0 66.332 2.33301 90.999 7s44.667 12.5 60 23.5s26.333 25.167 33 42.5s10 38.666 10 63.999c0 24.667 -3.33301 45.667 -10 63s-17.667 31.333 -33 42s-35.166 18.5 -59.499 23.5s-54.166 7.5 -89.499 7.5
c-14.667 0 -31.167 -0.666992 -49.5 -2s-33.833 -2.66602 -46.5 -3.99902v-259c9.33301 -2.66699 22.166 -4.66699 38.499 -6s34.833 -2 55.5 -2zM453.999 816.999c0 30.667 -8.33398 54.167 -25.001 70.5s-44.334 24.5 -83.001 24.5c-38 0 -65.5 -8.16699 -82.5 -24.5
s-25.5 -39.833 -25.5 -70.5h-95c0 24 3.83301 46.167 11.5 66.5s19.667 37.833 36 52.5s37.333 26.167 63 34.5s56.5 12.5 92.5 12.5s66.833 -4 92.5 -12s46.834 -19.333 63.501 -34s28.834 -32.167 36.501 -52.5s11.5 -42.833 11.5 -67.5h-96z" />
    </font>
</defs>
</svg>
