<?xml version="1.0" standalone="no"?>
<!DOCTYPE svg PUBLIC "-//W3C//DTD SVG 1.1//EN" "http://www.w3.org/Graphics/SVG/1.1/DTD/svg11.dtd" >
<svg>
<metadata>
Created by FontForge 20090914 at Sat Aug  6 09:06:10 2016
 By www-data
Copyright (c) 2012, Impallari Type (www.impallari.com), with Reserved Font Name Encode Sans.
</metadata>
<defs>
<font id="EncodeSans-Light" horiz-adv-x="548" >
  <font-face 
    font-family="Encode Sans"
    font-weight="300"
    font-stretch="normal"
    units-per-em="1000"
    panose-1="2 0 0 0 0 0 0 0 0 0"
    ascent="800"
    descent="-200"
    x-height="540"
    cap-height="740"
    bbox="-91 -220.001 1590 1030"
    underline-thickness="55"
    underline-position="-57"
    unicode-range="U+000D-U+FB04"
  />
<missing-glyph horiz-adv-x="756" 
d="M99 1030h557v-1250h-557v1250zM594 -160v1131h-433v-1131h433z" />
    <glyph glyph-name="f_f" unicode="ff" horiz-adv-x="718" 
d="M132 480l-116.003 -0.000976562v60h117v27c0 48 3.33301 87.333 10 118s18.667 55.167 36 73.5s41 31.5 71 39.5s68.667 13 116 15l3 -52c-35.333 -2.66699 -64.166 -6.66699 -86.499 -12s-39.666 -14.166 -51.999 -26.499s-20.666 -29 -24.999 -50
s-6.5 -48.167 -6.5 -81.5v-51h143v-60h-143v-480h-67v480zM493.997 479.999l-116.003 -0.000976562v60h117v27c0 48 3.33301 87.333 10 118s18.667 55.167 36 73.5s41 31.5 71 39.5s68.667 13 116 15l3 -52c-35.333 -2.66699 -64.166 -6.66699 -86.499 -12
s-39.666 -14.166 -51.999 -26.499s-20.666 -29 -24.999 -50s-6.5 -48.167 -6.5 -81.5v-51h143v-60h-143v-480h-67v480z" />
    <glyph glyph-name="f_i" unicode="fi" horiz-adv-x="601" 
d="M487 661c-30 0 -45 14.667 -45 44s15 44 45 44s45 -14.667 45 -44s-15 -44 -45 -44zM453 540h67v-540h-67v540zM132 480l-116.003 -0.000976562v60h117v27c0 48 3.33301 87.333 10 118s18.667 55.167 36 73.5s41 31.5 71 39.5s68.667 13 116 15l3 -52
c-35.333 -2.66699 -64.166 -6.66699 -86.499 -12s-39.666 -14.166 -51.999 -26.499s-20.666 -29 -24.999 -50s-6.5 -48.167 -6.5 -81.5v-51h143v-60h-143v-480h-67v480z" />
    <glyph glyph-name="f_l" unicode="fl" horiz-adv-x="602" 
d="M132 480l-116.003 -0.000976562v60h117v27c0 48 3.33301 87.333 10 118s18.667 55.167 36 73.5s41 31.5 71 39.5s68.667 13 116 15l3 -52c-35.333 -2.66699 -64.166 -6.66699 -86.499 -12s-39.666 -14.166 -51.999 -26.499s-20.666 -29 -24.999 -50
s-6.5 -48.167 -6.5 -81.5v-51h143v-60h-143v-480h-67v480zM452.997 807.999h67v-808h-67v808z" />
    <glyph glyph-name="f_f_i" unicode="ffi" horiz-adv-x="962" 
d="M848 661c-30 0 -45 14.667 -45 44s15 44 45 44s45 -14.667 45 -44s-15 -44 -45 -44zM814 540h67v-540h-67v540zM494 480l-116.003 -0.000976562v60h117v27c0 48 3.33301 87.333 10 118s18.667 55.167 36 73.5s41 31.5 71 39.5s68.667 13 116 15l3 -52
c-35.333 -2.66699 -64.166 -6.66699 -86.499 -12s-39.666 -14.166 -51.999 -26.499s-20.666 -29 -24.999 -50s-6.5 -48.167 -6.5 -81.5v-51h143v-60h-143v-480h-67v480zM131.997 479.999l-116.003 -0.000976562v60h117v27c0 48 3.33301 87.333 10 118s18.667 55.167 36 73.5
s41 31.5 71 39.5s68.667 13 116 15l3 -52c-35.333 -2.66699 -64.166 -6.66699 -86.499 -12s-39.666 -14.166 -51.999 -26.499s-20.666 -29 -24.999 -50s-6.5 -48.167 -6.5 -81.5v-51h143v-60h-143v-480h-67v480z" />
    <glyph glyph-name="f_f_l" unicode="ffl" horiz-adv-x="963" 
d="M494 480l-116.003 -0.000976562v60h117v27c0 48 3.33301 87.333 10 118s18.667 55.167 36 73.5s41 31.5 71 39.5s68.667 13 116 15l3 -52c-35.333 -2.66699 -64.166 -6.66699 -86.499 -12s-39.666 -14.166 -51.999 -26.499s-20.666 -29 -24.999 -50
s-6.5 -48.167 -6.5 -81.5v-51h143v-60h-143v-480h-67v480zM814.997 807.999h67v-808h-67v808zM131.997 479.999l-116.003 -0.000976562v60h117v27c0 48 3.33301 87.333 10 118s18.667 55.167 36 73.5s41 31.5 71 39.5s68.667 13 116 15l3 -52
c-35.333 -2.66699 -64.166 -6.66699 -86.499 -12s-39.666 -14.166 -51.999 -26.499s-20.666 -29 -24.999 -50s-6.5 -48.167 -6.5 -81.5v-51h143v-60h-143v-480h-67v480z" />
    <glyph glyph-name="f_b" unicode="fb" horiz-adv-x="965" 
d="M133 480l-116.003 -0.000976562v60h117v27c0 48 3.33301 87.333 10 118s18.667 55.167 36 73.5s41 31.5 71 39.5s68.667 13 116 15l3 -52c-35.333 -2.66699 -64.166 -6.66699 -86.499 -12s-39.666 -14.166 -51.999 -26.499s-20.666 -29 -24.999 -50
s-6.5 -48.167 -6.5 -81.5v-51h143v-60h-143v-480h-67v480zM654.997 -10.001c-30 0 -61.999 1.5 -95.999 4.5s-69 8.16699 -105 15.5v798h67v-329c42 47.333 99.667 71 173 71c72 0 127 -22.333 165 -67s57 -114 57 -208c0 -92.667 -22.833 -163.167 -68.5 -211.5
s-109.834 -72.833 -192.501 -73.5zM654.998 42.999c62.667 0 110.333 18 143 54s49 94 49 174c0 79.333 -13.5 136.166 -40.5 170.499s-68.833 51.5 -125.5 51.5c-20 0 -39.667 -2.83301 -59 -8.5s-36.5 -13.5 -51.5 -23.5s-27 -22.167 -36 -36.5
s-13.5 -30.166 -13.5 -47.499v-323c18 -2.66699 38.5 -5.16699 61.5 -7.5s47.167 -3.5 72.5 -3.5z" />
    <glyph glyph-name="f_f_b" unicode="ffb" horiz-adv-x="1326" 
d="M495 480l-116.003 -0.000976562v60h117v27c0 48 3.33301 87.333 10 118s18.667 55.167 36 73.5s41 31.5 71 39.5s68.667 13 116 15l3 -52c-35.333 -2.66699 -64.166 -6.66699 -86.499 -12s-39.666 -14.166 -51.999 -26.499s-20.666 -29 -24.999 -50
s-6.5 -48.167 -6.5 -81.5v-51h143v-60h-143v-480h-67v480zM1016 -10.001c-30 0 -61.999 1.5 -95.999 4.5s-69 8.16699 -105 15.5v798h67v-329c42 47.333 99.667 71 173 71c72 0 127 -22.333 165 -67s57 -114 57 -208c0 -92.667 -22.833 -163.167 -68.5 -211.5
s-109.834 -72.833 -192.501 -73.5zM1016 42.999c62.667 0 110.333 18 143 54s49 94 49 174c0 79.333 -13.5 136.166 -40.5 170.499s-68.833 51.5 -125.5 51.5c-20 0 -39.667 -2.83301 -59 -8.5s-36.5 -13.5 -51.5 -23.5s-27 -22.167 -36 -36.5s-13.5 -30.166 -13.5 -47.499
v-323c18 -2.66699 38.5 -5.16699 61.5 -7.5s47.167 -3.5 72.5 -3.5zM132.997 479.999l-116.003 -0.000976562v60h117v27c0 48 3.33301 87.333 10 118s18.667 55.167 36 73.5s41 31.5 71 39.5s68.667 13 116 15l3 -52c-35.333 -2.66699 -64.166 -6.66699 -86.499 -12
s-39.666 -14.166 -51.999 -26.499s-20.666 -29 -24.999 -50s-6.5 -48.167 -6.5 -81.5v-51h143v-60h-143v-480h-67v480z" />
    <glyph glyph-name="f_f_h" unicode="ffh" horiz-adv-x="1326" 
d="M815 808l66.998 0.000976562v-331c26.667 12.667 50.834 23.667 72.501 33s41.5 17 59.5 23s35 10.333 51 13s31.667 4 47 4c46 0 80.667 -11.833 104 -35.5s35 -60.834 35 -111.501v-403h-66v380c0 40 -7.83301 68.5 -23.5 85.5s-39.5 25.5 -71.5 25.5
c-27.333 0 -58.666 -5.66699 -93.999 -17s-73.333 -27.333 -114 -48v-426h-67v808zM493.998 480.001l-116.003 -0.000976562v60h117v27c0 48 3.33301 87.333 10 118s18.667 55.167 36 73.5s41 31.5 71 39.5s68.667 13 116 15l3 -52
c-35.333 -2.66699 -64.166 -6.66699 -86.499 -12s-39.666 -14.166 -51.999 -26.499s-20.666 -29 -24.999 -50s-6.5 -48.167 -6.5 -81.5v-51h143v-60h-143v-480h-67v480zM131.995 480l-116.003 -0.000976562v60h117v27c0 48 3.33301 87.333 10 118s18.667 55.167 36 73.5
s41 31.5 71 39.5s68.667 13 116 15l3 -52c-35.333 -2.66699 -64.166 -6.66699 -86.499 -12s-39.666 -14.166 -51.999 -26.499s-20.666 -29 -24.999 -50s-6.5 -48.167 -6.5 -81.5v-51h143v-60h-143v-480h-67v480z" />
    <glyph glyph-name="f_f_j" unicode="ffj" horiz-adv-x="965" 
d="M495 480l-116.003 -0.000976562v60h117v27c0 48 3.33301 87.333 10 118s18.667 55.167 36 73.5s41 31.5 71 39.5s68.667 13 116 15l3 -52c-35.333 -2.66699 -64.166 -6.66699 -86.499 -12s-39.666 -14.166 -51.999 -26.499s-20.666 -29 -24.999 -50
s-6.5 -48.167 -6.5 -81.5v-51h143v-60h-143v-480h-67v480zM849.997 660.999c-30 0 -45 14.667 -45 44s15 44 45 44s45 -14.667 45 -44s-15 -44 -45 -44zM747.997 -200.001c12.667 23.333 23.501 46.999 32.501 70.999s16.5 48.833 22.5 74.5s10.333 53 13 82
s4 60.167 4 93.5v419h66v-451c0 -55.333 -7.83301 -109.166 -23.5 -161.499s-37.834 -101.5 -66.501 -147.5zM131.998 479.998l-116.003 -0.000976562v60h117v27c0 48 3.33301 87.333 10 118s18.667 55.167 36 73.5s41 31.5 71 39.5s68.667 13 116 15l3 -52
c-35.333 -2.66699 -64.166 -6.66699 -86.499 -12s-39.666 -14.166 -51.999 -26.499s-20.666 -29 -24.999 -50s-6.5 -48.167 -6.5 -81.5v-51h143v-60h-143v-480h-67v480z" />
    <glyph glyph-name="f_f_k" unicode="ffk" horiz-adv-x="1271" 
d="M815 808h67v-506h102l192 238h77l-206 -253l-17 -9v-3l18 -10l221 -265h-77l-210 252h-100v-252h-67v808zM494 480l-116.003 -0.000976562v60h117v27c0 48 3.33301 87.333 10 118s18.667 55.167 36 73.5s41 31.5 71 39.5s68.667 13 116 15l3 -52
c-35.333 -2.66699 -64.166 -6.66699 -86.499 -12s-39.666 -14.166 -51.999 -26.499s-20.666 -29 -24.999 -50s-6.5 -48.167 -6.5 -81.5v-51h143v-60h-143v-480h-67v480zM131.997 479.999l-116.003 -0.000976562v60h117v27c0 48 3.33301 87.333 10 118s18.667 55.167 36 73.5
s41 31.5 71 39.5s68.667 13 116 15l3 -52c-35.333 -2.66699 -64.166 -6.66699 -86.499 -12s-39.666 -14.166 -51.999 -26.499s-20.666 -29 -24.999 -50s-6.5 -48.167 -6.5 -81.5v-51h143v-60h-143v-480h-67v480z" />
    <glyph glyph-name="f_f_t" unicode="fft" horiz-adv-x="1106" 
d="M495 480l-116.003 -0.000976562v60h117v27c0 48 3.33301 87.333 10 118s18.667 55.167 36 73.5s41 31.5 71 39.5s68.667 13 116 15l3 -52c-35.333 -2.66699 -64.166 -6.66699 -86.499 -12s-39.666 -14.166 -51.999 -26.499s-20.666 -29 -24.999 -50
s-6.5 -48.167 -6.5 -81.5v-51h143v-60h-143v-480h-67v480zM999.997 -8.00098c-48 0 -84.499 12.5 -109.499 37.5s-37.5 61.833 -37.5 110.5v340h-116v60h119l10 129l54 8v-137h165v-60h-165v-327c0 -69.333 32.333 -104 97 -104c10.667 0 22.167 0.833008 34.5 2.5
s25.166 4.5 38.499 8.5v-56c-31.333 -8 -61.333 -12 -90 -12zM132.998 479.999l-116.003 -0.000976562v60h117v27c0 48 3.33301 87.333 10 118s18.667 55.167 36 73.5s41 31.5 71 39.5s68.667 13 116 15l3 -52c-35.333 -2.66699 -64.166 -6.66699 -86.499 -12
s-39.666 -14.166 -51.999 -26.499s-20.666 -29 -24.999 -50s-6.5 -48.167 -6.5 -81.5v-51h143v-60h-143v-480h-67v480z" />
    <glyph glyph-name="f_h" unicode="fh" horiz-adv-x="965" 
d="M453 808l66.998 0.000976562v-331c26.667 12.667 50.834 23.667 72.501 33s41.5 17 59.5 23s35 10.333 51 13s31.667 4 47 4c46 0 80.667 -11.833 104 -35.5s35 -60.834 35 -111.501v-403h-66v380c0 40 -7.83301 68.5 -23.5 85.5s-39.5 25.5 -71.5 25.5
c-27.333 0 -58.666 -5.66699 -93.999 -17s-73.333 -27.333 -114 -48v-426h-67v808zM131.998 480.001l-116.003 -0.000976562v60h117v27c0 48 3.33301 87.333 10 118s18.667 55.167 36 73.5s41 31.5 71 39.5s68.667 13 116 15l3 -52
c-35.333 -2.66699 -64.166 -6.66699 -86.499 -12s-39.666 -14.166 -51.999 -26.499s-20.666 -29 -24.999 -50s-6.5 -48.167 -6.5 -81.5v-51h143v-60h-143v-480h-67v480z" />
    <glyph glyph-name="f_j" unicode="fj" horiz-adv-x="604" 
d="M132 480l-116.003 -0.000976562v60h117v27c0 48 3.33301 87.333 10 118s18.667 55.167 36 73.5s41 31.5 71 39.5s68.667 13 116 15l3 -52c-35.333 -2.66699 -64.166 -6.66699 -86.499 -12s-39.666 -14.166 -51.999 -26.499s-20.666 -29 -24.999 -50
s-6.5 -48.167 -6.5 -81.5v-51h143v-60h-143v-480h-67v480zM487.997 660.999c-30 0 -45 14.667 -45 44s15 44 45 44s45 -14.667 45 -44s-15 -44 -45 -44zM385.997 -200.001c12.667 23.333 23.501 46.999 32.501 70.999s16.5 48.833 22.5 74.5s10.333 53 13 82
s4 60.167 4 93.5v419h66v-451c0 -55.333 -7.83301 -109.166 -23.5 -161.499s-37.834 -101.5 -66.501 -147.5z" />
    <glyph glyph-name="f_k" unicode="fk" horiz-adv-x="910" 
d="M453 808h67v-506h102l192 238h77l-206 -253l-17 -9v-3l18 -10l221 -265h-77l-210 252h-100v-252h-67v808zM132 480l-116.003 -0.000976562v60h117v27c0 48 3.33301 87.333 10 118s18.667 55.167 36 73.5s41 31.5 71 39.5s68.667 13 116 15l3 -52
c-35.333 -2.66699 -64.166 -6.66699 -86.499 -12s-39.666 -14.166 -51.999 -26.499s-20.666 -29 -24.999 -50s-6.5 -48.167 -6.5 -81.5v-51h143v-60h-143v-480h-67v480z" />
    <glyph glyph-name="f_t" unicode="ft" horiz-adv-x="746" 
d="M133 480l-116.003 -0.000976562v60h117v27c0 48 3.33301 87.333 10 118s18.667 55.167 36 73.5s41 31.5 71 39.5s68.667 13 116 15l3 -52c-35.333 -2.66699 -64.166 -6.66699 -86.499 -12s-39.666 -14.166 -51.999 -26.499s-20.666 -29 -24.999 -50
s-6.5 -48.167 -6.5 -81.5v-51h143v-60h-143v-480h-67v480zM638.997 -8.00098c-48 0 -84.499 12.5 -109.499 37.5s-37.5 61.833 -37.5 110.5v340h-116v60h119l10 129l54 8v-137h165v-60h-165v-327c0 -69.333 32.333 -104 97 -104c10.667 0 22.167 0.833008 34.5 2.5
s25.166 4.5 38.499 8.5v-56c-31.333 -8 -61.333 -12 -90 -12z" />
    <glyph glyph-name=".notdef" horiz-adv-x="756" 
d="M99 1030h557v-1250h-557v1250zM594 -160v1131h-433v-1131h433z" />
    <glyph glyph-name="NULL" horiz-adv-x="0" 
 />
    <glyph glyph-name="NULL" horiz-adv-x="0" 
 />
    <glyph glyph-name="nonmarkingreturn" unicode="&#xd;" horiz-adv-x="288" 
 />
    <glyph glyph-name="space" unicode=" " horiz-adv-x="240" 
 />
    <glyph glyph-name="exclam" unicode="!" horiz-adv-x="243" 
d="M124 3c-13.333 0 -23.666 3.66699 -30.999 11s-11 17.666 -11 30.999s3.66699 23.666 11 30.999s17.666 11 30.999 11s24 -3.66699 32 -11s12 -17.666 12 -30.999s-4 -23.666 -12 -30.999s-18.667 -11 -32 -11zM100 183l-12 547v10h67v-10l-12 -547v-13h-43v13z" />
    <glyph glyph-name="quotedbl" unicode="&#x22;" horiz-adv-x="362" 
d="M133 808v-4l-28 -324h-34v328h62zM304 808v-4l-28 -324h-34v328h62z" />
    <glyph glyph-name="numbersign" unicode="#" horiz-adv-x="555" 
d="M329 233h-135l-19 -233h-54l19 233h-88v51h92l14 171h-106v52h110l19 233h54l-19 -233h135l20 233h54l-19 -233h97v-52h-101l-14 -171h114v-51h-118l-19 -233h-55zM198 284h135l14 171h-135z" />
    <glyph glyph-name="dollar" unicode="$" horiz-adv-x="566" 
d="M265 -11c-32 0.666992 -67.667 3.66895 -107 9.00195s-77 12.666 -113 21.999l2 59c36.667 -9.33301 75 -16.833 115 -22.5s75.333 -8.5 106 -8.5c60.667 0 107.167 11.833 139.5 35.5s48.5 57.5 48.5 101.5c0 24.667 -4.66699 45.5 -14 62.5s-22.166 31.333 -38.499 43
s-35.5 21.667 -57.5 30s-45.667 16.166 -71 23.499c-38.667 11.333 -71.667 23.5 -99 36.5s-49.666 27.833 -66.999 44.5s-30 35.667 -38 57s-12 46 -12 74c0 54 17.5 98.333 52.5 133s83.167 56 144.5 64v136h66v-133c50 -2 106.333 -10 169 -24l-2 -60
c-31.333 8 -62.833 14.167 -94.5 18.5s-60.5 6.5 -86.5 6.5c-54.667 0 -98.167 -12.667 -130.5 -38s-48.5 -59.333 -48.5 -102c0 -19.333 3 -36.5 9 -51.5s15.833 -28.667 29.5 -41s31.667 -23.5 54 -33.5s50.166 -19.667 83.499 -29c31.333 -9.33301 60.5 -19.333 87.5 -30
s50.333 -24 70 -40s35.167 -35.5 46.5 -58.5s17 -51.5 17 -85.5c0 -56 -16.833 -100.5 -50.5 -133.5s-81.834 -53.5 -144.501 -61.5v-142h-66v138z" />
    <glyph glyph-name="percent" unicode="%" horiz-adv-x="934" 
d="M216 279c-56.667 0 -99.667 19.667 -129 59s-44 98.333 -44 177c0 78 14.667 136.667 44 176s72.333 59 129 59s99.667 -19.667 129 -59s44 -98 44 -176c0 -78.667 -14.667 -137.667 -44 -177s-72.333 -59 -129 -59zM216 331c78 0 117 61.333 117 184s-39 184 -117 184
c-78.667 0 -118 -61.333 -118 -184s39.333 -184 118 -184zM719 -11c-57.333 0 -100.666 19.667 -129.999 59s-44 98.333 -44 177c0 78 14.667 136.667 44 176s72.666 59 129.999 59c56.667 0 99.667 -19.667 129 -59s44 -98 44 -176c0 -78.667 -14.667 -137.667 -44 -177
s-72.333 -59 -129 -59zM719 40c78 0 117 61.667 117 185c0 122.667 -39 184 -117 184c-78.667 0 -118 -61.333 -118 -184c0 -123.333 39.333 -185 118 -185zM607 740h64l-345 -740h-64z" />
    <glyph glyph-name="ampersand" unicode="&#x26;" horiz-adv-x="716" 
d="M319 -11c-41.333 0 -78.334 4.99902 -111.001 14.999s-60.5 24.333 -83.5 43s-40.667 41.334 -53 68.001s-18.5 57 -18.5 91c0 46 11.167 85.333 33.5 118s55.166 58.334 98.499 77.001c-18 23.333 -30.833 47.666 -38.5 72.999s-11.5 53.333 -11.5 84
c0 64 19 112.5 57 145.5s93.333 49.5 166 49.5c26.667 0 54.334 -2.83301 83.001 -8.5s60.334 -15.167 95.001 -28.5l1 -5l-15 -46h-6c-30.667 11.333 -58.167 19.833 -82.5 25.5s-47.833 8.5 -70.5 8.5c-106.667 0 -160 -48.333 -160 -145c0 -25.333 4 -48.833 12 -70.5
s20.833 -42.667 38.5 -63s40.5 -40.833 68.5 -61.5s62.333 -42 103 -64l129 -72c8 34 12 73.667 12 119v72h63v-72c0 -58 -6.33301 -108 -19 -150l85 -47v-8l-29 -45h-8l-71 40c-48 -95.333 -137.333 -143 -268 -143zM390.999 244.999
c-36.667 21.333 -68.668 41.165 -96.001 59.498s-50.666 36.5 -69.999 54.5c-68.667 -31.333 -103 -81.666 -103 -150.999c0 -51.333 17.667 -91.666 53 -120.999s84.333 -44 147 -44c104 0 174.667 40 212 120z" />
    <glyph glyph-name="quotesingle" unicode="'" horiz-adv-x="191" 
d="M133 808v-4l-28 -324h-34v328h62z" />
    <glyph glyph-name="parenleft" unicode="(" horiz-adv-x="288" 
d="M204 -160c-50.667 74 -89.334 154.834 -116.001 242.501s-40 178.167 -40 271.5s13.333 183.833 40 271.5s65.334 168.5 116.001 242.5h62v-4c-51.333 -72.667 -90.666 -152.334 -117.999 -239.001s-41 -177 -41 -271c0 -94.667 13.667 -185.167 41 -271.5
s66.666 -165.833 117.999 -238.5v-4h-62v0z" />
    <glyph glyph-name="parenright" unicode=")" horiz-adv-x="287" 
d="M22 -160v3.99902c51.333 72.667 90.5 152.167 117.5 238.5s40.5 176.833 40.5 271.5c0 94 -13.5 184.333 -40.5 271s-66.167 166.334 -117.5 239.001v4h61c51.333 -74 90.166 -154.833 116.499 -242.5s39.5 -178.167 39.5 -271.5s-13.167 -183.833 -39.5 -271.5
s-65.166 -168.5 -116.499 -242.5h-61z" />
    <glyph glyph-name="asterisk" unicode="*" horiz-adv-x="494" 
d="M110 481l47 67l72 76l-102 19l-78 24l15 46l78 -24l94 -44l-13 103v82h49v-82l-14 -103l94 44l78 24l15 -46l-78 -24l-102 -19l71 -76l49 -67l-40 -28l-47 66l-51 94l-51 -94l-47 -66z" />
    <glyph glyph-name="plus" unicode="+" horiz-adv-x="483" 
d="M50 396h166v171h51v-171h167v-52h-167v-171h-51v171h-166v52z" />
    <glyph glyph-name="comma" unicode="," horiz-adv-x="221" 
d="M35 -145l46 231h70l-64 -241z" />
    <glyph glyph-name="hyphen" unicode="-" horiz-adv-x="445" 
d="M70 309h305v-58h-305v58z" />
    <glyph glyph-name="period" unicode="." horiz-adv-x="225" 
d="M113 -3c-14.667 0 -26.167 4.00195 -34.5 12.002s-12.5 19.333 -12.5 34c0 15.333 4.16699 26.666 12.5 33.999s19.833 11 34.5 11c14 0 25.333 -3.83301 34 -11.5s13 -18.834 13 -33.501s-4.16699 -26 -12.5 -34s-19.833 -12 -34.5 -12z" />
    <glyph glyph-name="slash" unicode="/" horiz-adv-x="373" 
d="M279 740h61l-245 -860h-62z" />
    <glyph glyph-name="zero" unicode="0" horiz-adv-x="649" 
d="M324 -11c-87.333 0 -153.5 31.833 -198.5 95.5s-67.5 158.5 -67.5 284.5s22.5 221 67.5 285s111.167 96 198.5 96s153.666 -32 198.999 -96s68 -159 68 -285s-22.667 -220.833 -68 -284.5s-111.666 -95.5 -198.999 -95.5zM324 48c132.667 0 199 107 199 321
c0 214.667 -66.333 322 -199 322s-199 -107.333 -199 -322c0 -214 66.333 -321 199 -321z" />
    <glyph glyph-name="one" unicode="1" horiz-adv-x="388" 
d="M221 658h-3l-175 -93h-7l-11 40v6l214 129h50v-740h-68v658z" />
    <glyph glyph-name="two" unicode="2" horiz-adv-x="535" 
d="M49 97c0 30.667 4.16797 58.501 12.501 83.501s21 48.333 38 70s38.5 42.5 64.5 62.5s56.667 40 92 60c27.333 16 50.666 31 69.999 45s35 28.167 47 42.5s20.833 29.166 26.5 44.499s8.5 31.666 8.5 48.999c0 89.333 -51.667 134 -155 134
c-50.667 0 -108.667 -8.66699 -174 -26l-9 60c37.333 9.33301 71.5 16 102.5 20s60.833 6 89.5 6c142.667 0 214 -63.333 214 -190c0 -24.667 -3.33301 -47 -10 -67s-17.167 -39.167 -31.5 -57.5s-32.666 -36 -54.999 -53s-49.5 -34.833 -81.5 -53.5
s-59.167 -36.5 -81.5 -53.5s-40.833 -34 -55.5 -51s-25.334 -34.667 -32.001 -53s-10 -38.166 -10 -59.499v-50h360v-58h-430v95z" />
    <glyph glyph-name="three" unicode="3" horiz-adv-x="511" 
d="M200 -10c-23.333 0 -47.501 1.16602 -72.501 3.49902s-48.167 5.83301 -69.5 10.5v56h5c8 -2 17.333 -3.66699 28 -5s22 -2.66602 34 -3.99902s23.833 -2.33301 35.5 -3s22.167 -1 31.5 -1c64 0 112.333 13.333 145 40s49 65.667 49 117c0 96.667 -61.667 145 -185 145
h-66v56h65c110 0 165 47.667 165 143c0 96 -55.667 144 -167 144c-16 0 -35.667 -1.16699 -59 -3.5s-48.333 -5.5 -75 -9.5h-6l-2 55c22.667 5.33301 47 9.33301 73 12s51 4 75 4c75.333 0 132.833 -17 172.5 -51s59.5 -83 59.5 -147c0 -44 -10.167 -80.5 -30.5 -109.5
s-49.166 -49.167 -86.499 -60.5v-4c44 -9.33301 77.833 -29.5 101.5 -60.5s35.5 -70.5 35.5 -118.5c0 -67.333 -21.833 -119 -65.5 -155s-107.167 -54 -190.5 -54z" />
    <glyph glyph-name="four" unicode="4" horiz-adv-x="588" 
d="M25 219v6l248 525h5l58 -11l2 -7l-236 -489v-5h278l21 260h46v-260h111v-57h-111v-181h-67v181h-337z" />
    <glyph glyph-name="five" unicode="5" horiz-adv-x="518" 
d="M202 -11c-23.333 0 -47.501 1.16797 -72.501 3.50098s-50.167 6.16602 -75.5 11.499v57h13c23.333 -4.66699 45.666 -8.16699 66.999 -10.5s42 -3.5 62 -3.5c68.667 0 119.834 13 153.501 39s50.5 69.333 50.5 130c0 28 -4.66699 51.5 -14 70.5s-24 34.5 -44 46.5
s-45.5 20.833 -76.5 26.5s-68.167 9.16699 -111.5 10.5l-75 2l-7 6l27 362h340v-59h-286l-17 -253c58 -0.666992 108.167 -4.66699 150.5 -12s77 -19.333 104 -36s47 -38.5 60 -65.5s19.5 -60.167 19.5 -99.5c0 -40 -6.16699 -74.333 -18.5 -103s-30 -52 -53 -70
s-51.167 -31.333 -84.5 -40s-70.666 -13 -111.999 -13z" />
    <glyph glyph-name="six" unicode="6" horiz-adv-x="603" 
d="M316 -11c-85.333 0 -149.832 28.001 -193.499 84.001s-65.5 140.333 -65.5 253c0 67.333 7.16699 127.333 21.5 180s35.5 97.167 63.5 133.5s62.5 64 103.5 83s87.833 28.5 140.5 28.5c38.667 0 80.667 -5.33301 126 -16l-4 -58
c-23.333 6.66699 -44.5 11.334 -63.5 14.001s-38.167 4 -57.5 4c-79.333 0 -141.5 -28 -186.5 -84s-70.167 -135.667 -75.5 -239c28.667 24.667 60.667 44 96 58s71.333 21 108 21c34.667 0 66.167 -4.83301 94.5 -14.5s52.666 -23.834 72.999 -42.501s36 -41.5 47 -68.5
s16.5 -57.5 16.5 -91.5c0 -36.667 -5.83301 -70 -17.5 -100s-28 -55.833 -49 -77.5s-46.667 -38.334 -77 -50.001s-63.833 -17.5 -100.5 -17.5zM316.001 399.001c-32 0 -65.3311 -7.5 -99.998 -22.5s-65.334 -34.5 -92.001 -58.5
c1.33301 -93.333 17.666 -162.333 48.999 -207s79 -67 143 -67c54 0 96.667 17.167 128 51.5s47 80.833 47 139.5c0 52 -15.333 92.333 -46 121s-73.667 43 -129 43z" />
    <glyph glyph-name="seven" unicode="7" horiz-adv-x="476" 
d="M171 -12l-55 12v13l268 666h-353l-5 54l4 7h410l14 -36v-26l-266 -679z" />
    <glyph glyph-name="eight" unicode="8" horiz-adv-x="601" 
d="M301 -5c-78 0 -138.498 16.1699 -181.498 48.5029s-64.5 81.166 -64.5 146.499c0 30 4.5 56 13.5 78s20.167 40.833 33.5 56.5s27.833 28.667 43.5 39s30.5 18.5 44.5 24.5c-16 8 -30.833 17.167 -44.5 27.5s-25.5 22.5 -35.5 36.5s-17.833 30.167 -23.5 48.5
s-8.5 39.166 -8.5 62.499c0 30.667 5.5 57.667 16.5 81s26.5 42.833 46.5 58.5s43.667 27.5 71 35.5s57.666 12 90.999 12c32.667 0 62.5 -3.83301 89.5 -11.5s50 -19.334 69 -35.001s33.833 -35.334 44.5 -59.001s16 -51.167 16 -82.5
c0 -27.333 -3.66699 -51.166 -11 -71.499s-16.833 -38 -28.5 -53s-24.5 -27.667 -38.5 -38s-27.667 -18.833 -41 -25.5c20 -8 38.833 -17.333 56.5 -28s33 -23.167 46 -37.5s23.167 -31.166 30.5 -50.499s11 -42 11 -68c0 -62.667 -21.833 -110.834 -65.5 -144.501
s-103.834 -50.5 -180.501 -50.5zM247.002 365.003c-10 -4 -22.1689 -9.99805 -36.502 -17.998s-28.333 -18.5 -42 -31.5s-25.167 -29.5 -34.5 -49.5s-14 -44 -14 -72c0 -48.667 16.5 -85 49.5 -109s76.833 -36 131.5 -36c54 0 97.667 12 131 36s50 58.333 50 103
c0 25.333 -4.83301 46.666 -14.5 63.999s-22.667 32 -39 44s-35.666 22.167 -57.999 30.5s-46.166 16.166 -71.499 23.499zM141 560.005c0 -25.333 5.00098 -46.667 15.001 -64s23.333 -32 40 -44s36.167 -22 58.5 -30s46.166 -15.667 71.499 -23l17 -5
c10 4.66699 21.667 11.167 35 19.5s26 19 38 32s22.167 28.833 30.5 47.5s12.5 40.667 12.5 66c0 46.667 -14.833 81.167 -44.5 103.5s-67.5 33.5 -113.5 33.5c-46.667 0 -85 -11.333 -115 -34s-45 -56.667 -45 -102z" />
    <glyph glyph-name="nine" unicode="9" horiz-adv-x="604" 
d="M288 751c85.333 0 149.832 -28.001 193.499 -84.001s65.5 -140.333 65.5 -253c0 -67.333 -7.16699 -127.333 -21.5 -180s-35.5 -97.167 -63.5 -133.5s-62.5 -64 -103.5 -83s-87.833 -28.5 -140.5 -28.5c-38.667 0 -80.667 5.33301 -126 16l4 58
c23.333 -6.66699 44.5 -11.334 63.5 -14.001s38.167 -4 57.5 -4c79.333 0 141.5 28 186.5 84s70.167 135.667 75.5 239c-28.667 -24.667 -60.667 -44 -96 -58s-71.333 -21 -108 -21c-34.667 0 -66.167 4.83301 -94.5 14.5s-52.666 23.834 -72.999 42.501s-36 41.5 -47 68.5
s-16.5 57.5 -16.5 91.5c0 36.667 5.83301 70 17.5 100s28 55.833 49 77.5s46.5 38.334 76.5 50.001s63.667 17.5 101 17.5zM287.999 340.999c32 0 65.3311 7.5 99.998 22.5s65.334 34.5 92.001 58.5c-1.33301 93.333 -17.666 162.333 -48.999 207s-79 67 -143 67
c-54 0 -96.667 -17.167 -128 -51.5s-47 -80.833 -47 -139.5c0 -52 15.333 -92.333 46 -121s73.667 -43 129 -43z" />
    <glyph glyph-name="colon" unicode=":" horiz-adv-x="231" 
d="M116 -3c-14.667 0 -26.167 4.00195 -34.5 12.002s-12.5 19.333 -12.5 34c0 15.333 4.16699 26.666 12.5 33.999s19.833 11 34.5 11c14 0 25.333 -3.83301 34 -11.5s13 -18.834 13 -33.501s-4.16699 -26 -12.5 -34s-19.833 -12 -34.5 -12zM116 452.002
c-14.667 0 -26.167 4.00195 -34.5 12.002s-12.5 19.333 -12.5 34c0 15.333 4.16699 26.666 12.5 33.999s19.833 11 34.5 11c14 0 25.333 -3.83301 34 -11.5s13 -18.834 13 -33.501s-4.16699 -26 -12.5 -34s-19.833 -12 -34.5 -12z" />
    <glyph glyph-name="semicolon" unicode=";" horiz-adv-x="261" 
d="M59 -145l46 231h70l-64 -241zM136 452c-14.667 0 -26.167 4.00195 -34.5 12.002s-12.5 19.333 -12.5 34c0 15.333 4.16699 26.666 12.5 33.999s19.833 11 34.5 11c14 0 25.333 -3.83301 34 -11.5s13 -18.834 13 -33.501s-4.16699 -26 -12.5 -34s-19.833 -12 -34.5 -12z
" />
    <glyph glyph-name="less" unicode="&#x3c;" horiz-adv-x="506" 
d="M48 343v47l386 172v-58l-315 -138l313 -138v-57z" />
    <glyph glyph-name="equal" unicode="=" horiz-adv-x="523" 
d="M73 276h378v-52h-378v52zM73 489h378v-52h-378v52z" />
    <glyph glyph-name="greater" unicode="&#x3e;" horiz-adv-x="507" 
d="M75 228l312 138l-314 138v58l386 -172v-47l-384 -172v57z" />
    <glyph glyph-name="question" unicode="?" horiz-adv-x="442" 
d="M149 188l-3.99902 191.997c20.667 4.66699 42.5 10.834 65.5 18.501s44.167 17.834 63.5 30.501s35.333 28.834 48 48.501s19 44.167 19 73.5c0 27.333 -4.5 50.166 -13.5 68.499s-20.667 33 -35 44s-30.5 18.833 -48.5 23.5s-36.333 7 -55 7
c-25.333 0 -50 -2.33301 -74 -7s-47.667 -10.334 -71 -17.001l-11 53c24 8 49.833 14.667 77.5 20s56.5 8 86.5 8c26 0 51.5 -3.33301 76.5 -10s47.167 -17.667 66.5 -33s34.833 -35.5 46.5 -60.5s17.5 -55.833 17.5 -92.5c0 -35.333 -6.33301 -65.166 -19 -89.499
s-28.667 -44.666 -48 -60.999s-40.833 -29.5 -64.5 -39.5s-46.834 -18 -69.501 -24l-1 -153v-18h-53v18zM177.001 -0.00292969c-28.667 0 -43 13.999 -43 41.999c0 13.333 3.83301 23.666 11.5 30.999s18.167 11 31.5 11s24 -3.66699 32 -11s12 -17.666 12 -30.999
s-4 -23.666 -12 -30.999s-18.667 -11 -32 -11z" />
    <glyph glyph-name="at" unicode="@" horiz-adv-x="884" 
d="M429 -135c-56 0 -107.001 8.50098 -153.001 25.501s-85.5 42 -118.5 75s-58.667 74.167 -77 123.5s-27.5 106.666 -27.5 171.999c0 64.667 9.33301 122.667 28 174s45.5 94.833 80.5 130.5s77.5 62.834 127.5 81.501s106 28 168 28c60 0 112.833 -8.5 158.5 -25.5
s84 -41.333 115 -73s54.333 -70.334 70 -116.001s23.5 -97.167 23.5 -154.5c0 -80.667 -15 -143 -45 -187s-73.667 -66 -131 -66c-34 0 -60.167 7.66699 -78.5 23s-29.166 37.666 -32.499 66.999h-5c-18.667 -26.667 -43.5 -47.5 -74.5 -62.5s-60.833 -22.5 -89.5 -22.5
c-44.667 0 -78.667 15.833 -102 47.5s-35 73.5 -35 125.5c0 38 6 73.167 18 105.5s28.833 60 50.5 83s47.834 41 78.501 54s64.667 19.5 102 19.5c21.333 0 44 -2.66699 68 -8s49.667 -13 77 -23l-39 -211c-2.66699 -14.667 -4.83398 -28.334 -6.50098 -41.001
s-2.5 -24.667 -2.5 -36c0 -24.667 5.5 -43.334 16.5 -56.001s29.5 -19 55.5 -19c40 0 70.5 18 91.5 54s31.5 87 31.5 153c0 102 -26.167 180.667 -78.5 236s-131.166 83 -236.499 83c-54 0 -102.833 -8.16699 -146.5 -24.5s-80.834 -40 -111.501 -71
s-54.334 -69.167 -71.001 -114.5s-25 -96.666 -25 -153.999s7.83301 -107.666 23.5 -150.999s37.834 -79.5 66.501 -108.5s63 -50.833 103 -65.5s84.333 -22 133 -22c29.333 0 60.5 2.83301 93.5 8.5s67.5 13.834 103.5 24.501l18 -47
c-38.667 -11.333 -76.167 -20 -112.5 -26s-70.5 -9 -102.5 -9zM373.999 104.001c18 0 36.002 3.49902 54.002 10.499s34.5 17.167 49.5 30.5s28 29.666 39 48.999s18.5 41 22.5 65l30 173c-17.333 5.33301 -33.333 9.33301 -48 12s-28.334 4 -41.001 4
c-29.333 0 -56.333 -5.5 -81 -16.5s-45.667 -26.167 -63 -45.5s-30.833 -42.166 -40.5 -68.499s-14.5 -55.166 -14.5 -86.499c0 -38 7.66699 -68.667 23 -92s38.666 -35 69.999 -35z" />
    <glyph glyph-name="A" unicode="A" horiz-adv-x="665" 
d="M9 6l272 734h103l272 -734v-6h-67l-87 231h-340l-86 -231h-67v6zM483 291l-102 272l-46 125h-6l-45 -125l-102 -272h301z" />
    <glyph glyph-name="B" unicode="B" horiz-adv-x="652" 
d="M319 -10c-34 0 -70.167 1.16797 -108.5 3.50098s-77.5 6.16602 -117.5 11.499v730c47.333 4.66699 87.5 8.16699 120.5 10.5s64.833 3.5 95.5 3.5c94.667 0 163 -15.5 205 -46.5s63 -81.5 63 -151.5c0 -45.333 -11.333 -83.5 -34 -114.5s-54 -50.167 -94 -57.5v-4
c50 -9.33301 87.833 -29.5 113.5 -60.5s38.5 -71.5 38.5 -121.5c0 -135.333 -94 -203 -282 -203zM318 45.001c73.333 0 127.5 12.333 162.5 37s52.5 63 52.5 115c0 51.333 -16.167 89.333 -48.5 114s-82.833 37 -151.5 37h-174v-293
c16.667 -3.33301 38.667 -5.83301 66 -7.5s58.333 -2.5 93 -2.5zM329 402.001c64.667 0 110.832 11.168 138.499 33.501s41.5 59.833 41.5 112.5c0 26 -3.66699 48.333 -11 67s-18.833 33.667 -34.5 45s-36 19.666 -61 24.999s-55.167 8 -90.5 8
c-32 0 -60.167 -0.5 -84.5 -1.5s-47.166 -3.16699 -68.499 -6.5v-283h170z" />
    <glyph glyph-name="C" unicode="C" horiz-adv-x="584" 
d="M380 -9c-217.333 1.33301 -325.998 126.999 -325.998 376.999c0 254.667 109.333 382 328 382c22 0 47.667 -1.66699 77 -5s57.666 -7.66602 84.999 -12.999v-60c-30 5.33301 -58.333 9.5 -85 12.5s-50.334 4.5 -71.001 4.5c-89.333 0 -155.666 -26 -198.999 -78
s-65 -132.667 -65 -242c0 -212 85.333 -318 256 -318c10.667 0 23.167 0.5 37.5 1.5s29.166 2.5 44.499 4.5s30.333 4.16699 45 6.5s27 4.83301 37 7.5v-58c-11.333 -3.33301 -24 -6.33301 -38 -9s-28.333 -5 -43 -7s-29.167 -3.5 -43.5 -4.5s-27.5 -1.5 -39.5 -1.5z" />
    <glyph glyph-name="D" unicode="D" horiz-adv-x="717" 
d="M273 -11c-38 0 -73.334 1.16797 -106.001 3.50098s-57.334 6.16602 -74.001 11.499v734c14.667 1.33301 31 2.66602 49 3.99902s35.833 2.5 53.5 3.5s34.834 1.83301 51.501 2.5s31 1 43 1c128.667 0 223 -30.5 283 -91.5s90 -156.833 90 -287.5
c0 -131.333 -31.167 -227.666 -93.5 -288.999s-161.166 -92 -296.499 -92zM289.999 48.001c104.667 0 181.5 25.833 230.5 77.5s73.5 133.167 73.5 244.5c0 110.667 -24 191.5 -72 242.5s-123.667 76.5 -227 76.5c-18.667 0 -40.667 -0.666992 -66 -2s-48 -3.33301 -68 -6
v-623c12.667 -2 24.334 -3.66699 35.001 -5s21 -2.33301 31 -3s20.167 -1.16699 30.5 -1.5s21.166 -0.5 32.499 -0.5z" />
    <glyph glyph-name="E" unicode="E" horiz-adv-x="606" 
d="M93 740h453v-59h-385v-276h361v-58h-361v-288h393v-59h-461v740z" />
    <glyph glyph-name="F" unicode="F" horiz-adv-x="576" 
d="M93 740h448v-59h-380v-280h347v-59h-347v-342h-68v740z" />
    <glyph glyph-name="G" unicode="G" horiz-adv-x="651" 
d="M389 -9c-223.333 1.33301 -335.001 126.999 -335.001 376.999c0 254.667 114.667 382 344 382c28 0 57.167 -2.16699 87.5 -6.5s61.5 -10.5 93.5 -18.5v-60c-20 4.66699 -37.833 8.5 -53.5 11.5s-30.5 5.5 -44.5 7.5s-27.333 3.33301 -40 4s-25.667 1 -39 1
c-94.667 0 -164.667 -26.167 -210 -78.5s-68 -132.833 -68 -241.5c0 -212 88.333 -318 265 -318c16.667 0 37.334 1.33301 62.001 4s47.667 6 69 10v311h65v-355c-32 -9.33301 -65.667 -16.666 -101 -21.999s-67 -8 -95 -8z" />
    <glyph glyph-name="H" unicode="H" horiz-adv-x="754" 
d="M93 740h68v-332h433v332h67v-740h-67v350h-433v-350h-68v740z" />
    <glyph glyph-name="I" unicode="I" horiz-adv-x="254" 
d="M93 740h68v-740h-68v740z" />
    <glyph glyph-name="J" unicode="J" horiz-adv-x="253" 
d="M16 -160c15.333 32 28.001 61.666 38.001 88.999s18 54.166 24 80.499s10.333 53.5 13 81.5s4 59 4 93v556h68v-560c0 -32.667 -1.66699 -63.167 -5 -91.5s-9 -56.666 -17 -84.999s-18.333 -57.666 -31 -87.999s-28.334 -63.5 -47.001 -99.5z" />
    <glyph glyph-name="K" unicode="K" horiz-adv-x="652" 
d="M93 740h68v-333h150l237 333h79l-238 -332l-29 -25v-6l32 -24l253 -353h-79l-248 348h-157v-348h-68v740z" />
    <glyph glyph-name="L" unicode="L" horiz-adv-x="518" 
d="M93 740h68v-682h343v-58h-411v740z" />
    <glyph glyph-name="M" unicode="M" horiz-adv-x="913" 
d="M93 740h93l203 -476l64 -161h6l65 161l203 476h93v-740h-63v647h-6l-86 -210l-176 -408h-65l-176 408l-87 210h-5v-647h-63v740z" />
    <glyph glyph-name="N" unicode="N" horiz-adv-x="772" 
d="M93 740h61l397 -546l60 -88h5v634h63v-740h-62l-399 548l-57 85h-5v-633h-63v740z" />
    <glyph glyph-name="O" unicode="O" horiz-adv-x="735" 
d="M368 -10c-101.333 0 -179 31.833 -233 95.5s-81 158.167 -81 283.5s27 220.166 81 284.499s131.667 96.5 233 96.5c100 0 177.167 -32.167 231.5 -96.5s81.5 -159.166 81.5 -284.499c0 -124.667 -27.167 -219 -81.5 -283s-131.5 -96 -231.5 -96zM368 49
c80.667 0 141.5 26.833 182.5 80.5s61.5 133.5 61.5 239.5c0 107.333 -20.5 187.833 -61.5 241.5s-101.833 80.5 -182.5 80.5s-141.667 -26.833 -183 -80.5s-62 -134.167 -62 -241.5c0 -106.667 20.667 -186.667 62 -240s102.333 -80 183 -80z" />
    <glyph glyph-name="P" unicode="P" horiz-adv-x="632" 
d="M93 735c62 10 120.666 14.999 175.999 14.999c112.667 0 195 -20.167 247 -60.5s78 -104.5 78 -192.5c0 -88.667 -25.667 -153.167 -77 -193.5s-132.666 -60.5 -243.999 -60.5c-16 0 -33.167 0.333008 -51.5 1s-38.5 2.33398 -60.5 5.00098v-249h-68v735z
M281.999 300.999c44 0 81.3311 3.66602 111.998 10.999s55.667 18.833 75 34.5s33.5 35.834 42.5 60.501s13.5 54.667 13.5 90c0 68.667 -19.333 118.334 -58 149.001s-101.667 46 -189 46c-19.333 0 -39.666 -0.833008 -60.999 -2.5s-40 -3.83398 -56 -6.50098v-372
c6 -1.33301 13.667 -2.5 23 -3.5s19.5 -2 30.5 -3s22.333 -1.83301 34 -2.5s22.834 -1 33.501 -1z" />
    <glyph glyph-name="Q" unicode="Q" horiz-adv-x="732" 
d="M655 -110c-114 17.333 -209.501 37.8311 -286.501 61.498s-139 53.834 -186 90.501s-80.5 81.334 -100.5 134.001s-30 117 -30 193c0 123.333 26.833 217.666 80.5 282.999s131.167 98 232.5 98s179 -32.667 233 -98s81 -159.666 81 -282.999
c0 -118 -26 -208.167 -78 -270.5s-127.667 -93.5 -227 -93.5v-6c27.333 -6.66699 53 -12.5 77 -17.5s47.833 -9.33301 71.5 -13s47.334 -6.66699 71.001 -9s48.5 -4.5 74.5 -6.5zM364.999 48.998c80.667 0 141.667 27 183 81s62 133.667 62 239
c0 106.667 -20.667 187 -62 241s-102.333 81 -183 81s-141.667 -27 -183 -81s-62 -134.333 -62 -241c0 -105.333 20.667 -185 62 -239s102.333 -81 183 -81z" />
    <glyph glyph-name="R" unicode="R" horiz-adv-x="651" 
d="M365 284c-14 -2 -28.5 -3.33203 -43.5 -3.99902s-30.833 -1 -47.5 -1c-16 0 -33.667 0.666992 -53 2s-39.333 3 -60 5v-286h-68v735c60.667 10 119.334 15 176.001 15c113.333 0 195.833 -18.667 247.5 -56s77.5 -97 77.5 -179c0 -60 -13.333 -107.833 -40 -143.5
s-68.334 -60.834 -125.001 -75.501l187 -296h-76zM282 337.001c44 0 81.333 3.33496 112 10.002s55.667 17 75 31s33.5 32.333 42.5 55s13.5 50 13.5 82c0 62 -19.333 107 -58 135s-101.667 42 -189 42c-18.667 0 -38.667 -0.833008 -60 -2.5s-40.333 -3.83398 -57 -6.50098
v-337c10.667 -2.66699 27.5 -4.83398 50.5 -6.50098s46.5 -2.5 70.5 -2.5z" />
    <glyph glyph-name="S" unicode="S" horiz-adv-x="566" 
d="M269 -11c-32 0 -68.332 2.83301 -108.999 8.5s-79.334 13.167 -116.001 22.5l2 59c36.667 -9.33301 75 -16.833 115 -22.5s75.333 -8.5 106 -8.5c60.667 0 107.167 11.833 139.5 35.5s48.5 57.5 48.5 101.5c0 24.667 -4.66699 45.5 -14 62.5s-22.166 31.333 -38.499 43
s-35.5 21.667 -57.5 30s-45.667 16.166 -71 23.499c-38.667 11.333 -71.667 23.5 -99 36.5s-49.666 27.833 -66.999 44.5s-30 35.667 -38 57s-12 46 -12 74c0 30 5.83301 57.333 17.5 82s28.167 45.834 49.5 63.501s47 31.167 77 40.5s63.667 14 101 14
c53.333 0 115.666 -8 186.999 -24l-2 -60c-31.333 8 -62.833 14.167 -94.5 18.5s-60.5 6.5 -86.5 6.5c-54.667 0 -98.167 -12.667 -130.5 -38s-48.5 -59.333 -48.5 -102c0 -19.333 3 -36.5 9 -51.5s15.833 -28.667 29.5 -41s31.667 -23.5 54 -33.5
s50.166 -19.667 83.499 -29c31.333 -9.33301 60.5 -19.333 87.5 -30s50.333 -24 70 -40s35.167 -35.5 46.5 -58.5s17 -51.5 17 -85.5c0 -64 -22 -113.167 -66 -147.5s-107.333 -51.5 -190 -51.5z" />
    <glyph glyph-name="T" unicode="T" horiz-adv-x="589" 
d="M260 681h-244v59h557v-59h-245v-681h-68v681z" />
    <glyph glyph-name="U" unicode="U" horiz-adv-x="744" 
d="M372 -10c-50 0 -92.998 5.83301 -128.998 17.5s-65.667 30 -89 55s-40.5 56.833 -51.5 95.5s-16.5 85.334 -16.5 140.001v442h67v-439c0 -45.333 4.5 -84 13.5 -116s22.667 -58 41 -78s41.166 -34.5 68.499 -43.5s59.333 -13.5 96 -13.5s68.667 4.5 96 13.5
s50.166 23.5 68.499 43.5s32 46 41 78s13.5 70.667 13.5 116v439h68v-442c0 -54.667 -5.5 -101.334 -16.5 -140.001s-28.333 -70.5 -52 -95.5s-53.5 -43.333 -89.5 -55s-79 -17.5 -129 -17.5z" />
    <glyph glyph-name="V" unicode="V" horiz-adv-x="664" 
d="M10 740h71l198 -531l50 -141h6l51 141l198 531h71l-277 -740h-92z" />
    <glyph glyph-name="W" unicode="W" horiz-adv-x="996" 
d="M21 740h71l141 -521l37 -144h6l38 144l149 521h72l145 -521l39 -144h6l37 144l144 521h71l-209 -740h-91l-146 520l-30 124h-5l-30 -125l-148 -519h-92z" />
    <glyph glyph-name="X" unicode="X" horiz-adv-x="655" 
d="M283 381l-261 359h79l212 -296l12 -20h6l12 20l212 296h78l-263 -363l278 -377h-79l-229 314l-10 20h-7l-10 -20l-226 -314h-79z" />
    <glyph glyph-name="Y" unicode="Y" horiz-adv-x="613" 
d="M273 250l-268 490h74l194 -360l30 -63h7l29 63l195 360h73l-266 -488v-252h-68v250z" />
    <glyph glyph-name="Z" unicode="Z" horiz-adv-x="569" 
d="M34 52l406 623v5h-394v60h479v-50l-406 -625v-5h415v-60h-500v52z" />
    <glyph glyph-name="bracketleft" unicode="[" horiz-adv-x="312" 
d="M90 868h188v-52h-130v-924h130v-52h-188v1028z" />
    <glyph glyph-name="backslash" unicode="\" horiz-adv-x="371" 
d="M33 740h59l246 -860h-60z" />
    <glyph glyph-name="bracketright" unicode="]" horiz-adv-x="311" 
d="M33 -160v52h131v924h-131v52h188v-1028h-188z" />
    <glyph glyph-name="asciicircum" unicode="^" horiz-adv-x="463" 
d="M204 789h54l156 -308h-52l-129 251h-4l-128 -251h-52z" />
    <glyph glyph-name="underscore" unicode="_" horiz-adv-x="576" 
d="M55 -60h466v-58h-466v58z" />
    <glyph glyph-name="grave" unicode="`" horiz-adv-x="247" 
d="M136 616l-95 190h75l71 -180z" />
    <glyph glyph-name="a" unicode="a" horiz-adv-x="518" 
d="M183 -5c-46 0 -81 11.668 -105 35.001s-36 57.666 -36 102.999c0 52 16.167 91.333 48.5 118s84.5 43 156.5 49l130 11v48c0 24.667 -2.33301 45.5 -7 62.5s-12.334 30.667 -23.001 41s-24.834 17.666 -42.501 21.999s-39.5 6.5 -65.5 6.5
c-23.333 0 -47.666 -1.5 -72.999 -4.5s-53.666 -7.5 -84.999 -13.5l-6 54c34 6.66699 64.833 11.334 92.5 14.001s55.5 4 83.5 4c66 0 114.667 -14 146 -42s47 -72 47 -132v-371h-55l-8 68h-5c-34.667 -23.333 -68 -41.333 -100 -54s-63 -19 -93 -19zM203 50.001
c26.667 0 54.834 6.16602 84.501 18.499s59.5 28.166 89.5 47.499v149l-113 -11c-28.667 -2.66699 -52.834 -6.66699 -72.501 -12s-35.5 -12.666 -47.5 -21.999s-20.667 -20.666 -26 -33.999s-8 -29.333 -8 -48c0 -58.667 31 -88 93 -88z" />
    <glyph glyph-name="b" unicode="b" horiz-adv-x="590" 
d="M279 -10c-30 0 -61.999 1.5 -95.999 4.5s-69 8.16699 -105 15.5v798h67v-329c42 47.333 99.667 71 173 71c72 0 127 -22.333 165 -67s57 -114 57 -208c0 -92.667 -22.833 -163.167 -68.5 -211.5s-109.834 -72.833 -192.501 -73.5zM279.001 43c62.667 0 110.333 18 143 54
s49 94 49 174c0 79.333 -13.5 136.166 -40.5 170.499s-68.833 51.5 -125.5 51.5c-20 0 -39.667 -2.83301 -59 -8.5s-36.5 -13.5 -51.5 -23.5s-27 -22.167 -36 -36.5s-13.5 -30.166 -13.5 -47.499v-323c18 -2.66699 38.5 -5.16699 61.5 -7.5s47.167 -3.5 72.5 -3.5z" />
    <glyph glyph-name="c" unicode="c" horiz-adv-x="464" 
d="M302 -9c-168 0 -251.998 92.666 -251.998 277.999c0 186.667 84 280 252 280c18 0 37.5 -1.16699 58.5 -3.5s40.833 -5.5 59.5 -9.5v-60c-18 5.33301 -36.5 9 -55.5 11s-37.5 3 -55.5 3c-127.333 0 -191 -73.333 -191 -220c0 -76.667 15 -132.5 45 -167.5
s78 -52.5 144 -52.5c20 0 38.5 0.833008 55.5 2.5s36.167 4.83398 57.5 9.50098v-57c-14.667 -4.66699 -32.834 -8.16699 -54.501 -10.5s-42.834 -3.5 -63.501 -3.5z" />
    <glyph glyph-name="d" unicode="d" horiz-adv-x="590" 
d="M273 -10c-72.667 0 -128.001 22.334 -166.001 67.001s-57 114.667 -57 210c0 48 6.16699 89.667 18.5 125s29.833 64.666 52.5 87.999s49.834 40.833 81.501 52.5s67.167 17.5 106.5 17.5c25.333 0 49.333 -1.33301 72 -4s43.667 -5 63 -7v269h67v-808h-58l-6 66h-6
c-18.667 -24.667 -42 -43.5 -70 -56.5s-60.667 -19.5 -98 -19.5zM284.999 46.001c20.667 0 40.5 2.99902 59.5 8.99902s35.833 14.333 50.5 25s26.5 23.667 35.5 39s13.5 32.333 13.5 51v314c-19.333 3.33301 -40.5 6 -63.5 8s-47.167 3 -72.5 3
c-62 0 -109 -17.667 -141 -53s-48 -92.666 -48 -171.999s13.5 -136.5 40.5 -171.5s68.833 -52.5 125.5 -52.5z" />
    <glyph glyph-name="e" unicode="e" horiz-adv-x="532" 
d="M294 -9c-80 0 -140.502 22.833 -181.502 68.5s-61.5 112.834 -61.5 201.501c0 93.333 20.167 164.666 60.5 213.999s98.833 74 175.5 74c64.667 0 113.667 -20.167 147 -60.5s50 -99.833 50 -178.5c0 -15.333 -0.333008 -28.333 -1 -39s-2 -19.667 -4 -27h-362
c3.33301 -67.333 19.833 -116.833 49.5 -148.5s74.834 -47.5 135.501 -47.5c24.667 0 50.334 2.33301 77.001 7s54 12 82 22l5 -54c-25.333 -10 -53.333 -17.833 -84 -23.5s-60 -8.5 -88 -8.5zM284.998 495c-104 0 -159.667 -66.999 -167 -200.999h303
c0 71.333 -11 122.666 -33 153.999s-56.333 47 -103 47z" />
    <glyph glyph-name="f" unicode="f" horiz-adv-x="357" 
d="M133 480l-116.003 -0.000976562v60h117v27c0 48 3.33301 87.333 10 118s18.667 55.167 36 73.5s41 31.5 71 39.5s68.667 13 116 15l3 -52c-35.333 -2.66699 -64.166 -6.66699 -86.499 -12s-39.666 -14.166 -51.999 -26.499s-20.666 -29 -24.999 -50
s-6.5 -48.167 -6.5 -81.5v-51h143v-60h-143v-480h-67v480z" />
    <glyph glyph-name="g" unicode="g" horiz-adv-x="590" 
d="M259 -219c-30 0 -59.667 2.00195 -89 6.00195s-56.333 9.66699 -81 17l5 56c25.333 -7.33301 51.5 -13.166 78.5 -17.499s54.167 -6.5 81.5 -6.5c28.667 0 54.834 3.33301 78.501 10s44 18 61 34s30.167 37.167 39.5 63.5s14 59.166 14 98.499v31h-5
c-19.333 -25.333 -43 -44.5 -71 -57.5s-60.667 -19.5 -98 -19.5c-72.667 0 -128 22 -166 66s-57 113 -57 207c0 47.333 6.16699 88.666 18.5 123.999s29.833 64.666 52.5 87.999s49.834 40.666 81.501 51.999s67.167 17 106.5 17c31.333 0 64.333 -1.83301 99 -5.5
s69 -10.167 103 -19.5v-475c0 -53.333 -6.66699 -97.166 -20 -131.499s-31.333 -61.833 -54 -82.5s-49.334 -35 -80.001 -43s-63.334 -12 -98.001 -12zM285 52.002c20.667 0 40.665 2.83301 59.998 8.5s36.333 14 51 25s26.334 24 35.001 39s13 32.167 13 51.5v308
c-19.333 3.33301 -40.5 6 -63.5 8s-47.167 3 -72.5 3c-61.333 0 -108.166 -17.5 -140.499 -52.5s-48.5 -91.833 -48.5 -170.5c0 -78 13.5 -134.167 40.5 -168.5s68.833 -51.5 125.5 -51.5z" />
    <glyph glyph-name="h" unicode="h" horiz-adv-x="591" 
d="M79 808l66.998 0.000976562v-331c26.667 12.667 50.834 23.667 72.501 33s41.5 17 59.5 23s35 10.333 51 13s31.667 4 47 4c46 0 80.667 -11.833 104 -35.5s35 -60.834 35 -111.501v-403h-66v380c0 40 -7.83301 68.5 -23.5 85.5s-39.5 25.5 -71.5 25.5
c-27.333 0 -58.666 -5.66699 -93.999 -17s-73.333 -27.333 -114 -48v-426h-67v808z" />
    <glyph glyph-name="i" unicode="i" horiz-adv-x="228" 
d="M114 661c-30 0 -45 14.667 -45 44s15 44 45 44s45 -14.667 45 -44s-15 -44 -45 -44zM80 540h67v-540h-67v540z" />
    <glyph glyph-name="j" unicode="j" horiz-adv-x="225" 
d="M110 661c-30 0 -45 14.667 -45 44s15 44 45 44s45 -14.667 45 -44s-15 -44 -45 -44zM8 -200c12.667 23.333 23.501 46.999 32.501 70.999s16.5 48.833 22.5 74.5s10.333 53 13 82s4 60.167 4 93.5v419h66v-451c0 -55.333 -7.83301 -109.166 -23.5 -161.499
s-37.834 -101.5 -66.501 -147.5z" />
    <glyph glyph-name="k" unicode="k" horiz-adv-x="535" 
d="M79 808h67v-506h102l192 238h77l-206 -253l-17 -9v-3l18 -10l221 -265h-77l-210 252h-100v-252h-67v808z" />
    <glyph glyph-name="l" unicode="l" horiz-adv-x="231" 
d="M82 808h67v-808h-67v808z" />
    <glyph glyph-name="m" unicode="m" horiz-adv-x="884" 
d="M79 540h54.999l6 -63h4c43.333 25.333 79.833 43.833 109.5 55.5s58.167 17.5 85.5 17.5c66 0 108.333 -25 127 -75h5c22.667 14 43.167 25.667 61.5 35s35.333 17 51 23s30.5 10.333 44.5 13s27.667 4 41 4c46 0 80.667 -11.833 104 -35.5s35 -60.834 35 -111.501v-403
h-66v380c0 40 -7.83301 68.333 -23.5 85s-39.5 25 -71.5 25c-22 0 -47.167 -5.33301 -75.5 -16s-59.5 -26 -93.5 -46v-428h-66v380c0 40 -7.83301 68.333 -23.5 85s-39.5 25 -71.5 25c-23.333 0 -49.666 -5.66699 -78.999 -17s-60 -26.666 -92 -45.999v-427h-67v540z" />
    <glyph glyph-name="n" unicode="n" horiz-adv-x="591" 
d="M79 540l56 0.000976562l5 -63h5c26.667 12.667 51 23.667 73 33s42.167 17 60.5 23s35.333 10.333 51 13s31.167 4 46.5 4c46 0 80.667 -11.833 104 -35.5s35 -60.834 35 -111.501v-403h-66v380c0 40 -7.83301 68.5 -23.5 85.5s-39.5 25.5 -71.5 25.5
c-28 0 -59.667 -5.83301 -95 -17.5s-73 -27.5 -113 -47.5v-426h-67v540z" />
    <glyph glyph-name="o" unicode="o" horiz-adv-x="580" 
d="M290 -10c-78 0 -137.5 24 -178.5 72s-61.5 117.333 -61.5 208s20.5 160 61.5 208s100.5 72 178.5 72s137.5 -24 178.5 -72s61.5 -117.333 61.5 -208s-20.5 -160 -61.5 -208s-100.5 -72 -178.5 -72zM290 47c58.667 0 102 18 130 54s42 92.333 42 169s-14 133 -42 169
s-71.333 54 -130 54s-102 -18 -130 -54s-42 -92.333 -42 -169c0 -76 14 -132.167 42 -168.5s71.333 -54.5 130 -54.5z" />
    <glyph glyph-name="p" unicode="p" horiz-adv-x="591" 
d="M79 540l57.999 0.000976562l6 -63h6c19.333 23.333 43 41.333 71 54s60.667 19 98 19c72.667 0 127.834 -22.167 165.501 -66.5s56.5 -113.833 56.5 -208.5c0 -92.667 -22.833 -163.334 -68.5 -212.001s-109.5 -73 -191.5 -73c-25.333 0 -49.5 1 -72.5 3
s-43.5 4.33301 -61.5 7v-220h-67v760zM281.999 44.001c61.333 0 108.333 17.999 141 53.999s49 94 49 174c0 78.667 -13.5 135.334 -40.5 170.001s-69.167 52 -126.5 52c-20.667 0 -40.5 -2.83301 -59.5 -8.5s-35.833 -13.834 -50.5 -24.501s-26.5 -23.5 -35.5 -38.5
s-13.5 -31.833 -13.5 -50.5v-316c18 -3.33301 38.833 -6.16602 62.5 -8.49902s48.167 -3.5 73.5 -3.5z" />
    <glyph glyph-name="q" unicode="q" horiz-adv-x="590" 
d="M446 66c-20 -25.333 -44.833 -44.333 -74.5 -57s-62.5 -19 -98.5 -19c-148.667 0 -223 92.333 -223 277c0 91.333 22.333 161.333 67 210s108.667 73 192 73c35.333 0 71.5 -2 108.5 -6s68.167 -8.66699 93.5 -14v-750h-65v286zM285 46
c22 0 42.668 3.16895 62.001 9.50195s36.166 15.166 50.499 26.499s25.666 24.5 33.999 39.5s12.5 31.5 12.5 49.5v313c-26.667 4 -51.167 6.83301 -73.5 8.5s-43.166 2.5 -62.499 2.5c-64.667 0 -112.5 -18.333 -143.5 -55s-46.5 -93.334 -46.5 -170.001
c0 -77.333 13.167 -134 39.5 -170s68.833 -54 127.5 -54z" />
    <glyph glyph-name="r" unicode="r" horiz-adv-x="375" 
d="M79 540l56 -0.00195312l5 -73h4c40 20.667 75.667 38.334 107 53.001s61.333 24.334 90 29.001h22v-65h-23c-30.667 -4 -62.667 -12.5 -96 -25.5s-66 -27.833 -98 -44.5v-414h-67v540z" />
    <glyph glyph-name="s" unicode="s" horiz-adv-x="455" 
d="M221 -11c-22.667 0 -46.8301 1.66406 -72.4971 4.99707s-59.5 9.33301 -101.5 18v57c31.333 -7.33301 61.166 -13.333 89.499 -18s55.166 -7 80.499 -7c42 0 74 8.5 96 25.5s33 41.5 33 73.5c0 16.667 -3 30.834 -9 42.501s-14.167 21.5 -24.5 29.5
s-22.833 14.5 -37.5 19.5s-30.334 9.16699 -47.001 12.5c-20 4 -40.333 8.66699 -61 14s-39.334 13.333 -56.001 24s-30.334 25.334 -41.001 44.001s-16 43.334 -16 74.001c0 46.667 16.833 83.334 50.5 110.001s80.167 40 139.5 40c10 0 19.833 -0.333008 29.5 -1
s20.167 -1.83398 31.5 -3.50098s23.833 -3.66699 37.5 -6s30.167 -5.5 49.5 -9.5l-3 -57c-32.667 7.33301 -59.667 12.5 -81 15.5s-41.333 4.5 -60 4.5c-42 0 -73.833 -7.83301 -95.5 -23.5s-32.5 -38.5 -32.5 -68.5c0 -18 3.33301 -32.667 10 -44s16 -20.666 28 -27.999
s25.833 -13 41.5 -17s32.5 -8 50.5 -12c22.667 -5.33301 43.834 -11.5 63.501 -18.5s36.834 -16.333 51.501 -28s26.167 -26.5 34.5 -44.5s12.5 -40.333 12.5 -67c0 -48.667 -16.833 -86.834 -50.5 -114.501s-80.5 -41.5 -140.5 -41.5z" />
    <glyph glyph-name="t" unicode="t" horiz-adv-x="386" 
d="M279 -8c-48 0 -84.499 12.5 -109.499 37.5s-37.5 61.833 -37.5 110.5v340h-116v60h119l10 129l54 8v-137h165v-60h-165v-327c0 -69.333 32.333 -104 97 -104c10.667 0 22.167 0.833008 34.5 2.5s25.166 4.5 38.499 8.5v-56c-31.333 -8 -61.333 -12 -90 -12z" />
    <glyph glyph-name="u" unicode="u" horiz-adv-x="591" 
d="M208 -10c-88.667 0 -133 48.999 -133 146.999v403h67v-381c0 -38.667 6.83301 -66.5 20.5 -83.5s36.167 -25.5 67.5 -25.5c34.667 0 69.667 6.83301 105 20.5s72 29.834 110 48.501v421h67v-540h-56l-5 67h-4l-73.5 -34.5c-21 -9.66699 -40.5 -17.667 -58.5 -24
s-35.333 -11 -52 -14s-35 -4.5 -55 -4.5z" />
    <glyph glyph-name="v" unicode="v" horiz-adv-x="539" 
d="M21 530v10h69l154 -414l22 -72h8l22 72l155 414h67v-10l-203 -530h-91z" />
    <glyph glyph-name="w" unicode="w" horiz-adv-x="780" 
d="M26 533v7h65l105 -387l19 -82h6l21 82l113 387h68l117 -387l23 -82h5l19 82l100 387h65v-7l-145 -533h-78l-119 386l-18 73h-6l-18 -73l-113 -386h-78z" />
    <glyph glyph-name="x" unicode="x" horiz-adv-x="536" 
d="M15 11l208 269l-197 253v7h72l134 -175l35 -47h5l34 47l131 175h73v-7l-197 -256l208 -266v-11h-70l-143 186l-39 54h-5l-38 -54l-141 -186h-70v11z" />
    <glyph glyph-name="y" unicode="y" horiz-adv-x="549" 
d="M155 -208l-1 9l85 203l-220 527v9h71l159 -395l22 -69h5l24 69l164 395h69v-9l-318 -751z" />
    <glyph glyph-name="z" unicode="z" horiz-adv-x="475" 
d="M38 46l300 432v5h-290v57h380v-42l-301 -434v-6h311v-57h-400v45z" />
    <glyph glyph-name="braceleft" unicode="{" horiz-adv-x="360" 
d="M35 385c24 0 42.833 9.00293 56.5 27.0029s20.5 45 20.5 81v253c0 44.667 7.83301 76.167 23.5 94.5s43.5 27.5 83.5 27.5c6.66699 0 15.334 -0.166992 26.001 -0.5s21.334 -0.833008 32.001 -1.5s20.5 -1.16699 29.5 -1.5s14.833 -0.833008 17.5 -1.5v-47h-105
c-17.333 0 -29.666 -3.5 -36.999 -10.5s-11 -18.833 -11 -35.5v-291c0 -31.333 -6.5 -58.5 -19.5 -81.5s-31.167 -37.167 -54.5 -42.5c23.333 -4.66699 41.5 -18.334 54.5 -41.001s19.5 -49.334 19.5 -80.001v-294c0 -16 3.66699 -27.5 11 -34.5s19.666 -10.5 36.999 -10.5
h105v-48c-2.66699 -0.666992 -8.33398 -1.33398 -17.001 -2.00098s-18.334 -1.16699 -29.001 -1.5l-32 -1c-10.667 -0.333008 -19 -0.5 -25 -0.5c-40 0 -68.167 9.16699 -84.5 27.5s-24.5 49.833 -24.5 94.5v256c0 35.333 -6.83301 62 -20.5 80s-32.5 27 -56.5 27v58z" />
    <glyph glyph-name="bar" unicode="|" horiz-adv-x="244" 
d="M154 808v-1028h-64v1028h64z" />
    <glyph glyph-name="braceright" unicode="}" horiz-adv-x="360" 
d="M325 327c-24 0 -42.832 -9.00293 -56.499 -27.0029s-20.5 -44.667 -20.5 -80v-256c0 -44.667 -8 -76.167 -24 -94.5s-44 -27.5 -84 -27.5c-6.66699 0 -15.334 0.166992 -26.001 0.5l-32 1c-10.667 0.333008 -20.334 0.833008 -29.001 1.5
s-14.334 1.33398 -17.001 2.00098v48h106c17.333 0 29.666 3.5 36.999 10.5s11 18.5 11 34.5v294c0 30.667 6.33301 57.334 19 80.001s30.667 36.334 54 41.001c-23.333 5.33301 -41.333 19.5 -54 42.5s-19 50.167 -19 81.5v291c0 16.667 -3.66699 28.5 -11 35.5
s-19.666 10.5 -36.999 10.5h-106v47c2.66699 0.666992 8.5 1.16699 17.5 1.5s18.833 0.833008 29.5 1.5s21.334 1.16699 32.001 1.5s19.334 0.5 26.001 0.5c40 0 67.833 -9.16699 83.5 -27.5s23.5 -49.833 23.5 -94.5v-253c0 -36 6.83301 -63 20.5 -81s32.5 -27 56.5 -27
v-58z" />
    <glyph glyph-name="asciitilde" unicode="~" horiz-adv-x="632" 
d="M68 289c16.667 17.333 31.8359 31.832 45.5029 43.499s26.667 21 39 28s24.5 12 36.5 15s25 4.5 39 4.5c19.333 0 36.666 -4 51.999 -12s29.666 -16.667 42.999 -26s26.833 -18 40.5 -26s28.834 -12 45.501 -12c21.333 0 42.666 6.16699 63.999 18.5s37 28.166 47 47.499
l45 -24c-8 -12.667 -17.5 -25 -28.5 -37s-23.167 -22.5 -36.5 -31.5s-27.5 -16.333 -42.5 -22s-30.167 -8.5 -45.5 -8.5c-21.333 0 -40.166 3.83301 -56.499 11.5s-31.333 16.334 -45 26.001s-26.834 18.334 -39.501 26.001s-25.667 11.5 -39 11.5
c-20.667 0 -40.334 -5 -59.001 -15s-41 -27.667 -67 -53z" />
    <glyph glyph-name="uni00A0" unicode="&#xa0;" horiz-adv-x="240" 
 />
    <glyph glyph-name="exclamdown" unicode="&#xa1;" horiz-adv-x="229" 
d="M117 537c13.333 0 24 -3.66699 32 -11s12 -17.666 12 -30.999s-4 -23.666 -12 -30.999s-18.667 -11 -32 -11s-23.666 3.66699 -30.999 11s-11 17.666 -11 30.999s3.66699 23.666 11 30.999s17.666 11 30.999 11zM93 370h43v-13l12 -547v-10h-67v10l12 547v13z" />
    <glyph glyph-name="cent" unicode="&#xa2;" horiz-adv-x="484" 
d="M264 -7c-142 12.667 -213.002 104.665 -213.002 275.998s71 264 213 278v113h51v-111c16.667 -0.666992 34.334 -2.16699 53.001 -4.5s36.334 -5.16602 53.001 -8.49902v-60c-18 5.33301 -36.5 9 -55.5 11s-37.5 3 -55.5 3c-127.333 0 -191 -73.333 -191 -220
c0 -76.667 15 -132.5 45 -167.5s78 -52.5 144 -52.5c20 0 38.5 0.833008 55.5 2.5s36.167 4.83398 57.5 9.50098v-57c-13.333 -4 -29.5 -7.16699 -48.5 -9.5s-38.167 -3.83301 -57.5 -4.5v-111h-51v113z" />
    <glyph glyph-name="sterling" unicode="&#xa3;" horiz-adv-x="622" 
d="M51 396h153v129c0 74.667 15.833 130 47.5 166s84.167 54 157.5 54c23.333 0 48.333 -2.16699 75 -6.5s56 -11.5 88 -21.5l-9 -57c-28.667 8 -55.667 14.167 -81 18.5s-47.666 6.5 -66.999 6.5c-52.667 0 -89.834 -12.333 -111.501 -37s-32.5 -65.667 -32.5 -123v-129
h214v-57h-214v-278h288v-61h-508v61h153v278h-153v57z" />
    <glyph glyph-name="currency" unicode="&#xa4;" horiz-adv-x="613" 
d="M61 163l54 53.999l51 38c-22 31.333 -33 69.666 -33 114.999c0 44.667 11.333 83 34 115l-52 38l-54 54l38 38l55 -54l36 -50c14.667 13.333 31.834 23.5 51.501 30.5s41.5 10.5 65.5 10.5c45.333 0 83.666 -13.667 114.999 -41l37 50l55 54l38 -38l-55 -54l-52 -38
c22.667 -32 34 -70.333 34 -115c0 -23.333 -2.83301 -44.666 -8.5 -63.999s-13.834 -36.666 -24.501 -51.999l51 -37l55 -54l-38 -38l-55 54l-37 49c-14.667 -13.333 -31.667 -23.5 -51 -30.5s-40.666 -10.5 -63.999 -10.5c-48.667 0 -87.667 13.667 -117 41l-36 -49
l-55 -54zM184 369.999c0 -43.333 11.167 -76.667 33.5 -100s52.166 -35 89.499 -35c36.667 0 66 11.5 88 34.5s33 56.5 33 100.5c0 42 -10.667 74.833 -32 98.5s-51 35.5 -89 35.5c-37.333 0 -67.166 -11.5 -89.499 -34.5s-33.5 -56.167 -33.5 -99.5z" />
    <glyph glyph-name="yen" unicode="&#xa5;" horiz-adv-x="662" 
d="M96 296h180l-243 444h74l194 -360l30 -63h7l29 63l195 360h73l-242 -444h154v-49h-178v-91h178v-50h-178v-106h-68v106h-205v50h205v91h-205v49z" />
    <glyph glyph-name="brokenbar" unicode="&#xa6;" horiz-adv-x="243" 
d="M90 203h64v-423h-64v423zM90 808h64v-423h-64v423z" />
    <glyph glyph-name="section" unicode="&#xa7;" horiz-adv-x="484" 
d="M234 -11c-22 0 -45.8311 1.66406 -71.498 4.99707s-59.5 9.33301 -101.5 18v54c63.333 -15.333 120.333 -23 171 -23c42 0 73.833 8.66699 95.5 26s32.5 42 32.5 74c0 16.667 -3 31 -9 43s-14.167 22 -24.5 30s-22.833 14.5 -37.5 19.5s-30.334 9.16699 -47.001 12.5
c-20 4 -40.333 8.5 -61 13.5s-39.334 12.833 -56.001 23.5s-30.334 25.334 -41.001 44.001s-16 43.334 -16 74.001c0 42 13.667 76 41 102c-12.667 10.667 -22.667 24.334 -30 41.001s-11 37.667 -11 63c0 46.667 16.833 83.167 50.5 109.5s80.167 39.5 139.5 39.5
c10 0 19.833 -0.333008 29.5 -1s20.167 -1.66699 31.5 -3s23.833 -3.16602 37.5 -5.49902s30.167 -5.5 49.5 -9.5l-4 -56c-32.667 7.33301 -59.5 12.5 -80.5 15.5s-40.833 4.5 -59.5 4.5c-42 0 -74 -8 -96 -24s-33 -39 -33 -69c0 -18 3.5 -32.833 10.5 -44.5
s16.5 -21.167 28.5 -28.5s25.833 -13 41.5 -17s32.5 -8 50.5 -12c22.667 -5.33301 43.667 -11.333 63 -18s36.333 -15.834 51 -27.501s26.167 -26.5 34.5 -44.5s12.5 -40.333 12.5 -67c0 -42.667 -13 -77.334 -39 -104.001c12.667 -11.333 22.334 -25.166 29.001 -41.499
s10 -36.5 10 -60.5c0 -48 -16.667 -86 -50 -114s-80.333 -42 -141 -42zM333.002 273.997c18 18 27 41.668 27 71.001c0 18 -2.83301 33.333 -8.5 46s-13.5 23.167 -23.5 31.5s-21.833 15 -35.5 20s-28.5 9.5 -44.5 13.5c-13.333 3.33301 -27.333 6.5 -42 9.5
s-27.667 7.16699 -39 12.5c-22.667 -16.667 -34 -40.667 -34 -72c0 -18.667 3.33301 -33.834 10 -45.501s15.5 -21.334 26.5 -29.001s24 -13.834 39 -18.501s30.5 -9 46.5 -13c13.333 -3.33301 26.833 -7.16602 40.5 -11.499s26.167 -9.16602 37.5 -14.499z" />
    <glyph glyph-name="dieresis" unicode="&#xa8;" horiz-adv-x="465" 
d="M109 656c-28.667 0 -43 14.333 -43 43c0 27.333 14.333 41 43 41c13.333 0 23.833 -3.33301 31.5 -10s11.5 -17 11.5 -31c0 -15.333 -3.83301 -26.333 -11.5 -33s-18.167 -10 -31.5 -10zM340 656c-28 0 -42 14.333 -42 43c0 27.333 14 41 42 41
c28.667 0 43 -13.667 43 -41c0 -28.667 -14.333 -43 -43 -43z" />
    <glyph glyph-name="copyright" unicode="&#xa9;" horiz-adv-x="851" 
d="M441 163c-56.667 0 -101.498 16.832 -134.498 50.499s-49.5 84.5 -49.5 152.5c0 69.333 16.5 121.166 49.5 155.499s77.833 51.5 134.5 51.5c14.667 0 29.167 -0.833008 43.5 -2.5s28.166 -4.16699 41.499 -7.5v-47c-13.333 2.66699 -26.833 4.83398 -40.5 6.50098
s-27.167 2.5 -40.5 2.5c-42.667 0 -76 -13 -100 -39s-36 -66 -36 -120s12.167 -93.5 36.5 -118.5s57.166 -37.5 98.499 -37.5c13.333 0 27 0.833008 41 2.5s28.333 3.83398 43 6.50098v-45c-27.333 -7.33301 -56.333 -11 -87 -11zM426.002 -11.001
c-56 0 -106.833 9.16699 -152.5 27.5s-84.834 44.166 -117.501 77.499s-57.834 73.333 -75.501 120s-26.5 98.667 -26.5 156c0 56.667 8.83301 108.5 26.5 155.5s42.834 87.167 75.501 120.5s71.834 59.166 117.501 77.499s96.5 27.5 152.5 27.5s106.667 -9.16699 152 -27.5
s84.333 -44.166 117 -77.499s57.834 -73.5 75.501 -120.5s26.5 -98.833 26.5 -155.5c0 -57.333 -8.83301 -109.333 -26.5 -156s-42.834 -86.667 -75.501 -120s-71.667 -59.166 -117 -77.499s-96 -27.5 -152 -27.5zM426.002 34.999c48.667 0 93 8 133 24
s74.167 38.667 102.5 68s50.166 64.5 65.499 105.5s23 86.833 23 137.5s-7.66699 96.667 -23 138s-37.166 76.666 -65.499 105.999s-62.5 52 -102.5 68s-84.333 24 -133 24c-49.333 0 -94 -8 -134 -24s-74.167 -38.667 -102.5 -68s-50.166 -64.666 -65.499 -105.999
s-23 -87.333 -23 -138s7.66699 -96.5 23 -137.5s37.166 -76.167 65.499 -105.5s62.5 -52 102.5 -68s84.667 -24 134 -24z" />
    <glyph glyph-name="ordfeminine" unicode="&#xaa;" horiz-adv-x="433" 
d="M164 348c-34 0 -61.833 9.49902 -83.5 28.499s-32.5 44.167 -32.5 75.5c0 33.333 13.333 60 40 80s66 32.333 118 37l98 8v34c0 30.667 -7.33301 52.167 -22 64.5s-42 18.5 -82 18.5c-11.333 0 -25.333 -0.666992 -42 -2s-38.667 -4 -66 -8l-8 49
c29.333 4.66699 54.5 8 75.5 10s39.167 3 54.5 3c54 0 92.333 -9.83301 115 -29.5s34 -51.167 34 -94.5v-270h-50l-6 47h-4c-28 -17.333 -53 -30.166 -75 -38.499s-43.333 -12.5 -64 -12.5zM178 395.999c16 0 33.499 2.99902 52.499 8.99902s43.5 16 73.5 30v98l-52 -3
c-27.333 -1.33301 -50.166 -3.66602 -68.499 -6.99902s-33 -8 -44 -14s-18.833 -13.167 -23.5 -21.5s-7 -18.5 -7 -30.5c0 -40.667 23 -61 69 -61z" />
    <glyph glyph-name="guillemotleft" unicode="&#xab;" horiz-adv-x="585" 
d="M36 268v4l179 238h73l-180 -238v-4l180 -238h-73zM285 268v4l179 238h73l-180 -238v-4l180 -238h-73z" />
    <glyph glyph-name="logicalnot" unicode="&#xac;" horiz-adv-x="800" 
d="M68 425h655v-309h-66v250h-589v59z" />
    <glyph glyph-name="uni00AD" unicode="&#xad;" horiz-adv-x="445" 
d="M70 309h305v-58h-305v58z" />
    <glyph glyph-name="registered" unicode="&#xae;" horiz-adv-x="728" 
d="M252 620c17.333 2 33.833 3.66504 49.5 4.99805s30.167 2 43.5 2c52.667 0 91.5 -8.66699 116.5 -26s37.5 -44.666 37.5 -81.999c0 -51.333 -24.667 -84.666 -74 -99.999l-1 -3l87 -135h-48l-81 128h-88v-128h-42v339zM349 446.998c71.333 0 107 23.667 107 71
c0 25.333 -8.33301 43.5 -25 54.5s-44 16.5 -82 16.5c-7.33301 0 -15.5 -0.333008 -24.5 -1s-19.167 -1.66699 -30.5 -3v-137c6 -0.666992 14.333 -1 25 -1h30zM363 138.998c-44.667 0 -85.667 7.66699 -123 23s-69.5 36.666 -96.5 63.999s-48.167 59.666 -63.5 96.999
s-23 78.333 -23 123c0 44 7.66699 84.833 23 122.5s36.5 70.167 63.5 97.5s59.167 48.666 96.5 63.999s78.333 23 123 23s85.834 -7.66699 123.501 -23s70.167 -36.666 97.5 -63.999s48.666 -59.833 63.999 -97.5s23 -78.5 23 -122.5c0 -44.667 -7.66699 -85.667 -23 -123
s-36.666 -69.666 -63.999 -96.999s-59.833 -48.666 -97.5 -63.999s-78.834 -23 -123.501 -23zM363 180.998c38.667 0 74.334 6.5 107.001 19.5s60.834 31.333 84.501 55s42 51.667 55 84s19.5 67.833 19.5 106.5s-6.5 74.167 -19.5 106.5s-31.333 60.166 -55 83.499
s-51.834 41.666 -84.501 54.999s-68.334 20 -107.001 20s-74 -6.66699 -106 -20s-59.667 -31.666 -83 -54.999s-41.5 -51.166 -54.5 -83.499s-19.5 -67.833 -19.5 -106.5s6.5 -74.167 19.5 -106.5s31.167 -60.333 54.5 -84s51 -42 83 -55s67.333 -19.5 106 -19.5z" />
    <glyph glyph-name="macron" unicode="&#xaf;" horiz-adv-x="460" 
d="M65 703h308v-53h-308v53z" />
    <glyph glyph-name="degree" unicode="&#xb0;" horiz-adv-x="457" 
d="M229 376c-26 0 -50 4.83301 -72 14.5s-41 22.667 -57 39s-28.667 35.833 -38 58.5s-14 47 -14 73s4.66699 50.167 14 72.5s22 41.833 38 58.5s35 29.667 57 39s46 14 72 14c25.333 0 49 -4.66699 71 -14s41 -22.333 57 -39s28.667 -36.167 38 -58.5s14 -46.5 14 -72.5
s-4.66699 -50.333 -14 -73s-22 -42.167 -38 -58.5s-35 -29.333 -57 -39s-45.667 -14.5 -71 -14.5zM229 424c19.333 0 37 3.5 53 10.5s29.667 16.5 41 28.5s20.166 26.333 26.499 43s9.5 35 9.5 55c0 19.333 -3.16699 37.333 -9.5 54s-15.166 31.167 -26.499 43.5
s-25 22 -41 29s-33.667 10.5 -53 10.5s-37 -3.5 -53 -10.5s-29.833 -16.667 -41.5 -29s-20.667 -26.833 -27 -43.5s-9.5 -34.667 -9.5 -54c0 -20 3.16699 -38.333 9.5 -55s15.333 -31 27 -43s25.5 -21.5 41.5 -28.5s33.667 -10.5 53 -10.5z" />
    <glyph glyph-name="plusminus" unicode="&#xb1;" horiz-adv-x="533" 
d="M76 455h164v171h52v-171h164v-52h-164v-170h-52v170h-164v52zM76 151h380v-52h-380v52z" />
    <glyph glyph-name="twosuperior" unicode="&#xb2;" horiz-adv-x="417" 
d="M42 376c0 22 2.83301 42.1709 8.5 60.5039s14.667 35.666 27 51.999s28.333 32.166 48 47.499s43.5 30.666 71.5 45.999c20.667 11.333 38.167 22 52.5 32s25.833 20 34.5 30s14.834 20 18.501 30s5.5 20.667 5.5 32c0 60.667 -36.667 91 -110 91
c-34.667 0 -78.667 -6.33301 -132 -19l-9 53c29.333 7.33301 56 12.666 80 15.999s46.667 5 68 5c108.667 0 163 -47.667 163 -143c0 -17.333 -2.33301 -33.333 -7 -48s-12.334 -28.667 -23.001 -42s-24.5 -26.5 -41.5 -39.5s-37.833 -26.5 -62.5 -40.5
c-22.667 -13.333 -41.667 -25.833 -57 -37.5s-27.833 -23.5 -37.5 -35.5s-16.667 -24.5 -21 -37.5s-6.5 -26.833 -6.5 -41.5v-32h259v-53h-329v74z" />
    <glyph glyph-name="threesuperior" unicode="&#xb3;" horiz-adv-x="398" 
d="M161 293c-38.667 0 -76.3311 3.66602 -112.998 10.999v54h8c12 -2.66699 27.5 -5 46.5 -7s35.5 -3 49.5 -3c46 0 80.667 9.33301 104 28s35 45 35 79c0 66 -44.333 99 -133 99h-52v49h52c78.667 0 118 32.333 118 97c0 66 -40 99 -120 99
c-11.333 0 -25.666 -1 -42.999 -3s-36 -4.66699 -56 -8h-8l-2 53c17.333 4 36.166 7.16699 56.499 9.5s39.5 3.5 57.5 3.5c57.333 0 101.166 -13 131.499 -39s45.5 -63 45.5 -111c0 -30 -6.83301 -55.5 -20.5 -76.5s-32.834 -36.167 -57.501 -45.5
c60.667 -19.333 91 -63.666 91 -132.999c0 -50 -16.333 -88.5 -49 -115.5s-79.667 -40.5 -141 -40.5z" />
    <glyph glyph-name="acute" unicode="&#xb4;" horiz-adv-x="238" 
d="M49 616l73 184h69l-94 -190z" />
    <glyph glyph-name="mu" unicode="&#xb5;" horiz-adv-x="617" 
d="M88 540h67v-382c0 -38 7 -66 21 -84s36 -27 66 -27c34 0 67.833 6.5 101.5 19.5s71.834 29.167 114.501 48.5v425h67v-540h-56l-6 67h-4l-73.5 -34.5c-21 -9.66699 -40.333 -17.667 -58 -24s-34.834 -11 -51.501 -14s-35 -4.5 -55 -4.5c-26 0 -48 4 -66 12v-222h-67v760z
" />
    <glyph glyph-name="paragraph" unicode="&#xb6;" horiz-adv-x="582" 
d="M371 0l-44.998 -0.00390625v266c-7.33301 -0.666992 -15.333 -1 -24 -1h-23c-36 0 -68.667 4.16699 -98 12.5s-54.333 21.833 -75 40.5s-36.667 43.334 -48 74.001s-17 68.334 -17 113.001s5.66699 82.334 17 113.001s27.333 55.334 48 74.001s45.667 32.167 75 40.5
s62 12.5 98 12.5c15.333 0 30.166 -0.833008 44.499 -2.5s30.166 -4.16699 47.499 -7.5v-735zM482.002 -0.00390625h-52v735h52v-735z" />
    <glyph glyph-name="periodcentered" unicode="&#xb7;" horiz-adv-x="230" 
d="M114 324c-15.333 0 -27 3.5 -35 10.5s-12 18.833 -12 35.5c0 31.333 15.667 47 47 47c14.667 0 26.334 -3.66699 35.001 -11s13 -19.333 13 -36c0 -16 -4.33301 -27.667 -13 -35s-20.334 -11 -35.001 -11z" />
    <glyph glyph-name="cedilla" unicode="&#xb8;" horiz-adv-x="307" 
d="M119 -220c-12.667 0 -26.333 1.00195 -41 3.00195s-28.667 5 -42 9v50c21.333 -7.33301 44 -11 68 -11c28 0 48 5.16699 60 15.5s18 27.166 18 50.499c0 17.333 -3.5 34.5 -10.5 51.5s-19.167 39.5 -36.5 67.5h55c9.33301 -15.333 17 -28.833 23 -40.5
s10.833 -22.334 14.5 -32.001s6.16699 -18.5 7.5 -26.5s2 -16 2 -24c0 -36 -10.167 -63.833 -30.5 -83.5s-49.5 -29.5 -87.5 -29.5z" />
    <glyph glyph-name="onesuperior" unicode="&#xb9;" horiz-adv-x="311" 
d="M169 775l-127 -66h-8l-10 33v9l162 95h43v-546h-60v475z" />
    <glyph glyph-name="ordmasculine" unicode="&#xba;" horiz-adv-x="467" 
d="M234 394c17.333 0 33.5 2.5 48.5 7.5s28 13.5 39 25.5s19.5 27.667 25.5 47s9 43.333 9 72s-3 52.834 -9 72.501s-14.5 35.334 -25.5 47.001s-24 20 -39 25s-31.167 7.5 -48.5 7.5c-18 0 -34.5 -2.5 -49.5 -7.5s-28 -13.333 -39 -25s-19.667 -27.334 -26 -47.001
s-9.5 -43.834 -9.5 -72.501s3.16699 -52.667 9.5 -72s15 -35 26 -47s24 -20.5 39 -25.5s31.5 -7.5 49.5 -7.5zM234 345c-56.667 0 -101.167 16.5 -133.5 49.5s-48.5 83.5 -48.5 151.5s16.167 118.5 48.5 151.5s76.833 49.5 133.5 49.5s101 -16.5 133 -49.5
s48 -83.5 48 -151.5s-16 -118.5 -48 -151.5s-76.333 -49.5 -133 -49.5z" />
    <glyph glyph-name="guillemotright" unicode="&#xbb;" horiz-adv-x="585" 
d="M121 30h-72l180 238v4l-180 238h72l180 -238v-4zM370 30h-72l180 238v4l-180 238h72l180 -238v-4z" />
    <glyph glyph-name="onequarter" unicode="&#xbc;" horiz-adv-x="941" 
d="M768 131h-245l-15 38l185 383l8 1l45 -9l3 -11l-173 -350h195l15 189h42v-189h82v-52h-82v-131h-60v131zM562 740h63l-345 -740h-64zM174 675l-127 -66h-8l-10 33v9l162 95h43v-546h-60v475z" />
    <glyph glyph-name="onehalf" unicode="&#xbd;" horiz-adv-x="976" 
d="M595 76c0 22 2.83398 42.0029 8.50098 60.0029s14.667 35.167 27 51.5s28.333 32.166 48 47.499s43.5 31 71.5 47c21.333 12 39.166 23 53.499 33s25.666 19.833 33.999 29.5s14.333 19.5 18 29.5s5.5 20.667 5.5 32c0 60.667 -36.333 91 -109 91
c-19.333 0 -40 -1.66699 -62 -5s-45.667 -8 -71 -14l-9 53c28.667 7.33301 55 12.666 79 15.999s47 5 69 5c108.667 0 163 -47.667 163 -143c0 -17.333 -2.33301 -33.333 -7 -48s-12.167 -28.5 -22.5 -41.5s-24.166 -26 -41.499 -39s-38.333 -26.833 -63 -41.5
c-22.667 -14 -41.834 -26.833 -57.501 -38.5s-28.167 -23.5 -37.5 -35.5s-16.166 -24.333 -20.499 -37s-6.5 -26.334 -6.5 -41.001v-32h259v-53h-329v74zM562.001 740.003h63l-345 -740h-64zM174.001 675.003l-127 -66h-8l-10 33v9l162 95h43v-546h-60v475z" />
    <glyph glyph-name="threequarters" unicode="&#xbe;" horiz-adv-x="1018" 
d="M173 193c-38.667 0 -76.3311 3.66602 -112.998 10.999v54h8c12 -2.66699 27.5 -5 46.5 -7s35.5 -3 49.5 -3c46 0 80.667 9.33301 104 28s35 45 35 79c0 66 -44.333 99 -133 99h-52v49h52c78.667 0 118 32.333 118 97c0 66 -40 99 -120 99
c-11.333 0 -25.666 -1 -42.999 -3s-36 -4.66699 -56 -8h-8l-2 53c17.333 4 36.166 7.16699 56.499 9.5s39.5 3.5 57.5 3.5c57.333 0 101.166 -13 131.499 -39s45.5 -63 45.5 -111c0 -30 -6.83301 -55.5 -20.5 -76.5s-32.834 -36.167 -57.501 -45.5
c60.667 -19.333 91 -63.666 91 -132.999c0 -50 -16.333 -88.5 -49 -115.5s-79.667 -40.5 -141 -40.5zM845.003 130.999h-245l-15 38l185 383l8 1l45 -9l3 -11l-173 -350h195l15 189h42v-189h82v-52h-82v-131h-60v131zM635.003 739.999h63l-345 -740h-64z" />
    <glyph glyph-name="questiondown" unicode="&#xbf;" horiz-adv-x="436" 
d="M291 357l3.99805 -192c-20.667 -5.33301 -42.5 -11.666 -65.5 -18.999s-44.167 -17.333 -63.5 -30s-35.333 -28.834 -48 -48.501s-19 -44.167 -19 -73.5c0 -27.333 4.5 -50.166 13.5 -68.499s20.667 -33 35 -44s30.5 -18.833 48.5 -23.5s36.333 -7 55 -7
c25.333 0 50 2.33301 74 7s47.667 10.334 71 17.001l11 -53c-24 -8 -49.833 -14.667 -77.5 -20s-56.5 -8 -86.5 -8c-26 0 -51.5 3.33301 -76.5 10s-47.167 17.667 -66.5 33s-34.833 35.5 -46.5 60.5s-17.5 55.833 -17.5 92.5c0 35.333 6.16699 65.166 18.5 89.499
s28.333 44.666 48 60.999s41.334 29.5 65.001 39.5s46.834 18 69.501 24l1 153v18h53v-18zM262.998 545c28.667 0 43 -13.999 43 -41.999c0 -13.333 -3.83301 -23.666 -11.5 -30.999s-18.167 -11 -31.5 -11s-24 3.66699 -32 11s-12 17.666 -12 30.999s4 23.666 12 30.999
s18.667 11 32 11z" />
    <glyph glyph-name="Agrave" unicode="&#xc0;" horiz-adv-x="665" 
d="M9 6l272 734h103l272 -734v-6h-67l-87 231h-340l-86 -231h-67v6zM483 291l-102 272l-46 125h-6l-45 -125l-102 -272h301zM305 800l-93 139h71l76 -126z" />
    <glyph glyph-name="Aacute" unicode="&#xc1;" horiz-adv-x="665" 
d="M9 6l272 734h103l272 -734v-6h-67l-87 231h-340l-86 -231h-67v6zM483 291l-102 272l-46 125h-6l-45 -125l-102 -272h301zM300 806l76 133h71l-93 -139z" />
    <glyph glyph-name="Acircumflex" unicode="&#xc2;" horiz-adv-x="665" 
d="M9 6l272 734h103l272 -734v-6h-67l-87 231h-340l-86 -231h-67v6zM483 291l-102 272l-46 125h-6l-45 -125l-102 -272h301zM176 874l157 73l157 -73v-60l-157 74l-157 -74v60z" />
    <glyph glyph-name="Atilde" unicode="&#xc3;" horiz-adv-x="665" 
d="M9 6l272 734h103l272 -734v-6h-67l-87 231h-340l-86 -231h-67v6zM483 291l-102 272l-46 125h-6l-45 -125l-102 -272h301zM146 862c17.333 20.667 36.333 36.498 57 47.498s41.334 16.5 62.001 16.5c15.333 0 29.666 -2.16699 42.999 -6.5s26.333 -9.16602 39 -14.499
s25.5 -10.166 38.5 -14.499s26.5 -6.5 40.5 -6.5c30.667 0 60 13 88 39l24 -26c-16 -20.667 -34.833 -36.667 -56.5 -48s-43.5 -17 -65.5 -17c-14 0 -27.667 2.16699 -41 6.5s-26.5 9 -39.5 14s-26 9.66699 -39 14s-26.167 6.5 -39.5 6.5
c-14.667 0 -29.167 -2.83301 -43.5 -8.5s-28.833 -15.167 -43.5 -28.5z" />
    <glyph glyph-name="Adieresis" unicode="&#xc4;" horiz-adv-x="665" 
d="M9 6l272 734h103l272 -734v-6h-67l-87 231h-340l-86 -231h-67v6zM483 291l-102 272l-46 125h-6l-45 -125l-102 -272h301zM206 823c-31.333 0 -47 15.667 -47 47c0 30.667 15.667 46 47 46c14.667 0 26.334 -3.66699 35.001 -11s13 -19 13 -35
c0 -16.667 -4.33301 -28.667 -13 -36s-20.334 -11 -35.001 -11zM459 823c-31.333 0 -47 15.667 -47 47c0 30.667 15.667 46 47 46c14.667 0 26.334 -3.66699 35.001 -11s13 -19 13 -35c0 -16.667 -4.33301 -28.667 -13 -36s-20.334 -11 -35.001 -11z" />
    <glyph glyph-name="Aring" unicode="&#xc5;" horiz-adv-x="665" 
d="M9 6l272 734h103l272 -734v-6h-67l-87 231h-340l-86 -231h-67v6zM483 291l-102 272l-46 125h-6l-45 -125l-102 -272h301zM334 780c-34 0 -62 10.167 -84 30.5s-33 45.833 -33 76.5s11 56.167 33 76.5s50 30.5 84 30.5s61.833 -10.167 83.5 -30.5s32.5 -45.833 32.5 -76.5
s-10.833 -56.167 -32.5 -76.5s-49.5 -30.5 -83.5 -30.5zM334 821c23.333 0 41.333 5.83301 54 17.5s19 27.834 19 48.501s-6.33301 37 -19 49s-30.667 18 -54 18c-24 0 -42.333 -6 -55 -18s-19 -28.333 -19 -49s6.33301 -36.834 19 -48.501s31 -17.5 55 -17.5z" />
    <glyph glyph-name="AE" unicode="&#xc6;" horiz-adv-x="861" 
d="M8 7l301 733h493v-59h-335l13 -277h294v-58h-291l14 -287h316v-59h-384l-9 231h-251l-95 -231h-66v7zM194 291h223l-16 393h-44z" />
    <glyph glyph-name="Ccedilla" unicode="&#xc7;" horiz-adv-x="584" 
d="M306 -220c-12.667 0 -26.333 1 -41 3s-28.667 5 -42 9v50c21.333 -7.33301 44 -11 68 -11c28 0 48 5.16699 60 15.5s18 27.166 18 50.499c0 14.667 -2.5 29.167 -7.5 43.5s-13.5 31.833 -25.5 52.5c-188 17.333 -282 142.333 -282 375c0 254.667 109.333 382 328 382
c22 0 47.667 -1.66699 77 -5s57.666 -7.66602 84.999 -12.999v-60c-30 5.33301 -58.333 9.5 -85 12.5s-50.334 4.5 -71.001 4.5c-89.333 0 -155.666 -26 -198.999 -78s-65 -132.667 -65 -242c0 -212 85.333 -318 256 -318c10.667 0 23.167 0.5 37.5 1.5
s29.166 2.5 44.499 4.5s30.333 4.16699 45 6.5s27 4.83301 37 7.5v-58c-21.333 -5.33301 -46.166 -10 -74.499 -14s-54.5 -6.66699 -78.5 -8c12.667 -22.667 21.334 -41.167 26.001 -55.5s7 -28.5 7 -42.5c0 -36 -10.167 -63.833 -30.5 -83.5s-49.5 -29.5 -87.5 -29.5z" />
    <glyph glyph-name="Egrave" unicode="&#xc8;" horiz-adv-x="606" 
d="M301 800l-93 139h71l76 -126zM93 740h453v-59h-385v-276h361v-58h-361v-288h393v-59h-461v740z" />
    <glyph glyph-name="Eacute" unicode="&#xc9;" horiz-adv-x="606" 
d="M287 806l76 133h71l-93 -139zM93 740h453v-59h-385v-276h361v-58h-361v-288h393v-59h-461v740z" />
    <glyph glyph-name="Ecircumflex" unicode="&#xca;" horiz-adv-x="606" 
d="M93 740h453v-59h-385v-276h361v-58h-361v-288h393v-59h-461v740zM167 874l157 73l157 -73v-60l-157 74l-157 -74v60z" />
    <glyph glyph-name="Edieresis" unicode="&#xcb;" horiz-adv-x="606" 
d="M196 823c-31.333 0 -47 15.667 -47 47c0 30.667 15.667 46 47 46c14.667 0 26.334 -3.66699 35.001 -11s13 -19 13 -35c0 -16.667 -4.33301 -28.667 -13 -36s-20.334 -11 -35.001 -11zM449 823c-31.333 0 -47 15.667 -47 47c0 30.667 15.667 46 47 46
c14.667 0 26.334 -3.66699 35.001 -11s13 -19 13 -35c0 -16.667 -4.33301 -28.667 -13 -36s-20.334 -11 -35.001 -11zM93 740h453v-59h-385v-276h361v-58h-361v-288h393v-59h-461v740z" />
    <glyph glyph-name="Igrave" unicode="&#xcc;" horiz-adv-x="254" 
d="M93 740h68v-740h-68v740zM106 800l-93 139h71l76 -126z" />
    <glyph glyph-name="Iacute" unicode="&#xcd;" horiz-adv-x="254" 
d="M93 740h68v-740h-68v740zM95 806l76 133h71l-93 -139z" />
    <glyph glyph-name="Icircumflex" unicode="&#xce;" horiz-adv-x="254" 
d="M93 740h68v-740h-68v740zM-29 874l157 73l157 -73v-60l-157 74l-157 -74v60z" />
    <glyph glyph-name="Idieresis" unicode="&#xcf;" horiz-adv-x="254" 
d="M93 740h68v-740h-68v740zM2 823c-31.333 0 -47 15.667 -47 47c0 30.667 15.667 46 47 46c14.667 0 26.334 -3.66699 35.001 -11s13 -19 13 -35c0 -16.667 -4.33301 -28.667 -13 -36s-20.334 -11 -35.001 -11zM255 823c-31.333 0 -47 15.667 -47 47
c0 30.667 15.667 46 47 46c14.667 0 26.334 -3.66699 35.001 -11s13 -19 13 -35c0 -16.667 -4.33301 -28.667 -13 -36s-20.334 -11 -35.001 -11z" />
    <glyph glyph-name="Eth" unicode="&#xd0;" horiz-adv-x="726" 
d="M5 398l96.999 0.000976562v340c14.667 1.33301 31 2.66602 49 3.99902s35.833 2.5 53.5 3.5s34.834 1.83301 51.501 2.5s31 1 43 1c128.667 0 223 -30.5 283 -91.5s90 -156.833 90 -287.5c0 -131.333 -31.167 -227.666 -93.5 -288.999s-161.166 -92 -296.499 -92
c-38 0 -73.333 1.16699 -106 3.5s-57.334 6.16602 -74.001 11.499v336h-97v58zM298.999 48.001c104.667 0 181.5 25.833 230.5 77.5s73.5 133.167 73.5 244.5c0 110.667 -24 191.5 -72 242.5s-123.667 76.5 -227 76.5c-18.667 0 -40.667 -0.666992 -66 -2
s-48 -3.33301 -68 -6v-283h195v-58h-195v-282c12.667 -2 24.334 -3.66699 35.001 -5s21 -2.33301 31 -3s20.167 -1.16699 30.5 -1.5s21.166 -0.5 32.499 -0.5z" />
    <glyph glyph-name="Ntilde" unicode="&#xd1;" horiz-adv-x="772" 
d="M199 862c17.333 20.667 36.333 36.498 57 47.498s41.334 16.5 62.001 16.5c15.333 0 29.666 -2.16699 42.999 -6.5s26.333 -9.16602 39 -14.499s25.5 -10.166 38.5 -14.499s26.5 -6.5 40.5 -6.5c30.667 0 60 13 88 39l24 -26c-16 -20.667 -34.833 -36.667 -56.5 -48
s-43.5 -17 -65.5 -17c-14 0 -27.667 2.16699 -41 6.5s-26.5 9 -39.5 14s-26 9.66699 -39 14s-26.167 6.5 -39.5 6.5c-14.667 0 -29.167 -2.83301 -43.5 -8.5s-28.833 -15.167 -43.5 -28.5zM93 739.998h61l397 -546l60 -88h5v634h63v-740h-62l-399 548l-57 85h-5v-633h-63
v740z" />
    <glyph glyph-name="Ograve" unicode="&#xd2;" horiz-adv-x="735" 
d="M340 800l-93 139h71l76 -126zM368 -10c-101.333 0 -179 31.833 -233 95.5s-81 158.167 -81 283.5s27 220.166 81 284.499s131.667 96.5 233 96.5c100 0 177.167 -32.167 231.5 -96.5s81.5 -159.166 81.5 -284.499c0 -124.667 -27.167 -219 -81.5 -283
s-131.5 -96 -231.5 -96zM368 49c80.667 0 141.5 26.833 182.5 80.5s61.5 133.5 61.5 239.5c0 107.333 -20.5 187.833 -61.5 241.5s-101.833 80.5 -182.5 80.5s-141.667 -26.833 -183 -80.5s-62 -134.167 -62 -241.5c0 -106.667 20.667 -186.667 62 -240s102.333 -80 183 -80
z" />
    <glyph glyph-name="Oacute" unicode="&#xd3;" horiz-adv-x="735" 
d="M335 806l76 133h71l-93 -139zM368 -10c-101.333 0 -179 31.833 -233 95.5s-81 158.167 -81 283.5s27 220.166 81 284.499s131.667 96.5 233 96.5c100 0 177.167 -32.167 231.5 -96.5s81.5 -159.166 81.5 -284.499c0 -124.667 -27.167 -219 -81.5 -283
s-131.5 -96 -231.5 -96zM368 49c80.667 0 141.5 26.833 182.5 80.5s61.5 133.5 61.5 239.5c0 107.333 -20.5 187.833 -61.5 241.5s-101.833 80.5 -182.5 80.5s-141.667 -26.833 -183 -80.5s-62 -134.167 -62 -241.5c0 -106.667 20.667 -186.667 62 -240s102.333 -80 183 -80
z" />
    <glyph glyph-name="Ocircumflex" unicode="&#xd4;" horiz-adv-x="735" 
d="M368 -10c-101.333 0 -179 31.833 -233 95.5s-81 158.167 -81 283.5s27 220.166 81 284.499s131.667 96.5 233 96.5c100 0 177.167 -32.167 231.5 -96.5s81.5 -159.166 81.5 -284.499c0 -124.667 -27.167 -219 -81.5 -283s-131.5 -96 -231.5 -96zM368 49
c80.667 0 141.5 26.833 182.5 80.5s61.5 133.5 61.5 239.5c0 107.333 -20.5 187.833 -61.5 241.5s-101.833 80.5 -182.5 80.5s-141.667 -26.833 -183 -80.5s-62 -134.167 -62 -241.5c0 -106.667 20.667 -186.667 62 -240s102.333 -80 183 -80zM210 874l157 73l157 -73v-60
l-157 74l-157 -74v60z" />
    <glyph glyph-name="Otilde" unicode="&#xd5;" horiz-adv-x="735" 
d="M180 862c17.333 20.667 36.333 36.498 57 47.498s41.334 16.5 62.001 16.5c15.333 0 29.666 -2.16699 42.999 -6.5s26.333 -9.16602 39 -14.499s25.5 -10.166 38.5 -14.499s26.5 -6.5 40.5 -6.5c30.667 0 60 13 88 39l24 -26c-16 -20.667 -34.833 -36.667 -56.5 -48
s-43.5 -17 -65.5 -17c-14 0 -27.667 2.16699 -41 6.5s-26.5 9 -39.5 14s-26 9.66699 -39 14s-26.167 6.5 -39.5 6.5c-14.667 0 -29.167 -2.83301 -43.5 -8.5s-28.833 -15.167 -43.5 -28.5zM368 -10.002c-101.333 0 -179 31.833 -233 95.5s-81 158.167 -81 283.5
s27 220.166 81 284.499s131.667 96.5 233 96.5c100 0 177.167 -32.167 231.5 -96.5s81.5 -159.166 81.5 -284.499c0 -124.667 -27.167 -219 -81.5 -283s-131.5 -96 -231.5 -96zM368 48.998c80.667 0 141.5 26.833 182.5 80.5s61.5 133.5 61.5 239.5
c0 107.333 -20.5 187.833 -61.5 241.5s-101.833 80.5 -182.5 80.5s-141.667 -26.833 -183 -80.5s-62 -134.167 -62 -241.5c0 -106.667 20.667 -186.667 62 -240s102.333 -80 183 -80z" />
    <glyph glyph-name="Odieresis" unicode="&#xd6;" horiz-adv-x="735" 
d="M239 823c-31.333 0 -47 15.667 -47 47c0 30.667 15.667 46 47 46c14.667 0 26.334 -3.66699 35.001 -11s13 -19 13 -35c0 -16.667 -4.33301 -28.667 -13 -36s-20.334 -11 -35.001 -11zM492 823c-31.333 0 -47 15.667 -47 47c0 30.667 15.667 46 47 46
c14.667 0 26.334 -3.66699 35.001 -11s13 -19 13 -35c0 -16.667 -4.33301 -28.667 -13 -36s-20.334 -11 -35.001 -11zM368 -10c-101.333 0 -179 31.833 -233 95.5s-81 158.167 -81 283.5s27 220.166 81 284.499s131.667 96.5 233 96.5c100 0 177.167 -32.167 231.5 -96.5
s81.5 -159.166 81.5 -284.499c0 -124.667 -27.167 -219 -81.5 -283s-131.5 -96 -231.5 -96zM368 49c80.667 0 141.5 26.833 182.5 80.5s61.5 133.5 61.5 239.5c0 107.333 -20.5 187.833 -61.5 241.5s-101.833 80.5 -182.5 80.5s-141.667 -26.833 -183 -80.5
s-62 -134.167 -62 -241.5c0 -106.667 20.667 -186.667 62 -240s102.333 -80 183 -80z" />
    <glyph glyph-name="multiply" unicode="&#xd7;" horiz-adv-x="466" 
d="M63 237l133 134l-133 133l36 37l133 -134l134 134l37 -37l-134 -134l134 -133l-36 -36l-134 133l-134 -133z" />
    <glyph glyph-name="Oslash" unicode="&#xd8;" horiz-adv-x="738" 
d="M124 103c-45.333 63.333 -68.001 152.001 -68.001 266.001c0 125.333 27 220.166 81 284.499s131.333 96.5 232 96.5c86.667 0 156.334 -24.667 209.001 -74l51 64h63l-81 -102c23.333 -32 41 -70.333 53 -115s18 -96 18 -154c0 -124.667 -27 -219 -81 -283
s-131.333 -96 -232 -96c-89.333 0 -160 25 -212 75l-51 -65h-63zM368.999 49.001c80.667 0 141.667 26.833 183 80.5s62 133.5 62 239.5c0 89.333 -15.333 161 -46 215l-370 -468c40 -44.667 97 -67 171 -67zM124.999 369.001c0 -87.333 14.332 -157.667 42.999 -211
l370 467c-41.333 44 -97.666 66 -168.999 66c-80.667 0 -141.5 -26.833 -182.5 -80.5s-61.5 -134.167 -61.5 -241.5z" />
    <glyph glyph-name="Ugrave" unicode="&#xd9;" horiz-adv-x="744" 
d="M344 800l-93 139h71l76 -126zM372 -10c-50 0 -92.998 5.83301 -128.998 17.5s-65.667 30 -89 55s-40.5 56.833 -51.5 95.5s-16.5 85.334 -16.5 140.001v442h67v-439c0 -45.333 4.5 -84 13.5 -116s22.667 -58 41 -78s41.166 -34.5 68.499 -43.5s59.333 -13.5 96 -13.5
s68.667 4.5 96 13.5s50.166 23.5 68.499 43.5s32 46 41 78s13.5 70.667 13.5 116v439h68v-442c0 -54.667 -5.5 -101.334 -16.5 -140.001s-28.333 -70.5 -52 -95.5s-53.5 -43.333 -89.5 -55s-79 -17.5 -129 -17.5z" />
    <glyph glyph-name="Uacute" unicode="&#xda;" horiz-adv-x="744" 
d="M334 806l76 133h71l-93 -139zM372 -10c-50 0 -92.998 5.83301 -128.998 17.5s-65.667 30 -89 55s-40.5 56.833 -51.5 95.5s-16.5 85.334 -16.5 140.001v442h67v-439c0 -45.333 4.5 -84 13.5 -116s22.667 -58 41 -78s41.166 -34.5 68.499 -43.5s59.333 -13.5 96 -13.5
s68.667 4.5 96 13.5s50.166 23.5 68.499 43.5s32 46 41 78s13.5 70.667 13.5 116v439h68v-442c0 -54.667 -5.5 -101.334 -16.5 -140.001s-28.333 -70.5 -52 -95.5s-53.5 -43.333 -89.5 -55s-79 -17.5 -129 -17.5z" />
    <glyph glyph-name="Ucircumflex" unicode="&#xdb;" horiz-adv-x="744" 
d="M372 -10c-50 0 -92.998 5.83301 -128.998 17.5s-65.667 30 -89 55s-40.5 56.833 -51.5 95.5s-16.5 85.334 -16.5 140.001v442h67v-439c0 -45.333 4.5 -84 13.5 -116s22.667 -58 41 -78s41.166 -34.5 68.499 -43.5s59.333 -13.5 96 -13.5s68.667 4.5 96 13.5
s50.166 23.5 68.499 43.5s32 46 41 78s13.5 70.667 13.5 116v439h68v-442c0 -54.667 -5.5 -101.334 -16.5 -140.001s-28.333 -70.5 -52 -95.5s-53.5 -43.333 -89.5 -55s-79 -17.5 -129 -17.5zM212.002 874l157 73l157 -73v-60l-157 74l-157 -74v60z" />
    <glyph glyph-name="Udieresis" unicode="&#xdc;" horiz-adv-x="744" 
d="M243 823c-31.333 0 -47 15.667 -47 47c0 30.667 15.667 46 47 46c14.667 0 26.334 -3.66699 35.001 -11s13 -19 13 -35c0 -16.667 -4.33301 -28.667 -13 -36s-20.334 -11 -35.001 -11zM496 823c-31.333 0 -47 15.667 -47 47c0 30.667 15.667 46 47 46
c14.667 0 26.334 -3.66699 35.001 -11s13 -19 13 -35c0 -16.667 -4.33301 -28.667 -13 -36s-20.334 -11 -35.001 -11zM372 -10c-50 0 -92.998 5.83301 -128.998 17.5s-65.667 30 -89 55s-40.5 56.833 -51.5 95.5s-16.5 85.334 -16.5 140.001v442h67v-439
c0 -45.333 4.5 -84 13.5 -116s22.667 -58 41 -78s41.166 -34.5 68.499 -43.5s59.333 -13.5 96 -13.5s68.667 4.5 96 13.5s50.166 23.5 68.499 43.5s32 46 41 78s13.5 70.667 13.5 116v439h68v-442c0 -54.667 -5.5 -101.334 -16.5 -140.001s-28.333 -70.5 -52 -95.5
s-53.5 -43.333 -89.5 -55s-79 -17.5 -129 -17.5z" />
    <glyph glyph-name="Yacute" unicode="&#xdd;" horiz-adv-x="613" 
d="M273 250l-268 490h74l194 -360l30 -63h7l29 63l195 360h73l-266 -488v-252h-68v250zM275 806l76 133h71l-93 -139z" />
    <glyph glyph-name="Thorn" unicode="&#xde;" horiz-adv-x="635" 
d="M93 741l67.998 -0.000976562v-125c19.333 2.66699 38 4.5 56 5.5s36 1.5 54 1.5c112 0 193.833 -20.167 245.5 -60.5s77.5 -104.166 77.5 -191.499c0 -44 -6.16699 -81.833 -18.5 -113.5s-31.5 -57.667 -57.5 -78s-59.167 -35.333 -99.5 -45s-88.5 -14.5 -144.5 -14.5
c-17.333 0 -35.166 0.5 -53.499 1.5s-38.166 2.83301 -59.499 5.5v-127h-68v741zM278.998 179.999c44.667 0 82.835 3.5 114.502 10.5s57.167 18 76.5 33s33.5 34.667 42.5 59s13.5 53.833 13.5 88.5c0 34 -4.66699 63.167 -14 87.5s-24 44.166 -44 59.499
s-46 26.5 -78 33.5s-70.667 10.5 -116 10.5c-17.333 0 -36.833 -0.666992 -58.5 -2s-39.834 -3.66602 -54.501 -6.99902v-364c4.66699 -1.33301 11.667 -2.5 21 -3.5s19.666 -2 30.999 -3s22.833 -1.66699 34.5 -2s22.167 -0.5 31.5 -0.5z" />
    <glyph glyph-name="germandbls" unicode="&#xdf;" horiz-adv-x="626" 
d="M79 595c0 76 18.666 130.995 55.999 164.995s93.333 51 168 51s130.667 -17.167 168 -51.5s56 -89.166 56 -164.499v-97h-99c-42 0 -74 -8.16699 -96 -24.5s-33 -39.5 -33 -69.5c0 -18 3.5 -32.667 10.5 -44s16.333 -20.666 28 -27.999s25.334 -13.166 41.001 -17.499
s32.5 -8.5 50.5 -12.5c22.667 -5.33301 43.834 -11.333 63.501 -18s36.834 -15.834 51.501 -27.501s26.167 -26.5 34.5 -44.5s12.5 -40.333 12.5 -67c0 -48 -16.833 -86 -50.5 -114s-80.5 -42 -140.5 -42c-11.333 0 -22.833 0.333008 -34.5 1s-24.334 2 -38.001 4
s-28.667 4.5 -45 7.5l-55.5 10.5v54c64.667 -15.333 121.334 -23 170.001 -23c42 0 73.833 8.66699 95.5 26s32.5 42 32.5 74c0 16.667 -2.83301 31 -8.5 43s-13.834 22 -24.501 30s-23.167 14.5 -37.5 19.5s-30.166 9.16699 -47.499 12.5c-20 4 -40.333 8.5 -61 13.5
s-39.334 12.833 -56.001 23.5s-30.334 25.334 -41.001 44.001s-16 43.334 -16 74.001c0 46.667 17 83.334 51 110.001s80.667 40 140 40h36v42c0 56.667 -12.667 97 -38 121s-65 36 -119 36s-93.667 -11.833 -119 -35.5s-38 -64.167 -38 -121.5v-595h-67v595z" />
    <glyph glyph-name="agrave" unicode="&#xe0;" horiz-adv-x="518" 
d="M183 -5c-46 0 -81 11.668 -105 35.001s-36 57.666 -36 102.999c0 52 16.167 91.333 48.5 118s84.5 43 156.5 49l130 11v48c0 24.667 -2.33301 45.5 -7 62.5s-12.334 30.667 -23.001 41s-24.834 17.666 -42.501 21.999s-39.5 6.5 -65.5 6.5
c-23.333 0 -47.666 -1.5 -72.999 -4.5s-53.666 -7.5 -84.999 -13.5l-6 54c34 6.66699 64.833 11.334 92.5 14.001s55.5 4 83.5 4c66 0 114.667 -14 146 -42s47 -72 47 -132v-371h-55l-8 68h-5c-34.667 -23.333 -68 -41.333 -100 -54s-63 -19 -93 -19zM203 50.001
c26.667 0 54.834 6.16602 84.501 18.499s59.5 28.166 89.5 47.499v149l-113 -11c-28.667 -2.66699 -52.834 -6.66699 -72.501 -12s-35.5 -12.666 -47.5 -21.999s-20.667 -20.666 -26 -33.999s-8 -29.333 -8 -48c0 -58.667 31 -88 93 -88zM236 616l-95 190h75l71 -180z" />
    <glyph glyph-name="aacute" unicode="&#xe1;" horiz-adv-x="518" 
d="M183 -5c-46 0 -81 11.668 -105 35.001s-36 57.666 -36 102.999c0 52 16.167 91.333 48.5 118s84.5 43 156.5 49l130 11v48c0 24.667 -2.33301 45.5 -7 62.5s-12.334 30.667 -23.001 41s-24.834 17.666 -42.501 21.999s-39.5 6.5 -65.5 6.5
c-23.333 0 -47.666 -1.5 -72.999 -4.5s-53.666 -7.5 -84.999 -13.5l-6 54c34 6.66699 64.833 11.334 92.5 14.001s55.5 4 83.5 4c66 0 114.667 -14 146 -42s47 -72 47 -132v-371h-55l-8 68h-5c-34.667 -23.333 -68 -41.333 -100 -54s-63 -19 -93 -19zM203 50.001
c26.667 0 54.834 6.16602 84.501 18.499s59.5 28.166 89.5 47.499v149l-113 -11c-28.667 -2.66699 -52.834 -6.66699 -72.501 -12s-35.5 -12.666 -47.5 -21.999s-20.667 -20.666 -26 -33.999s-8 -29.333 -8 -48c0 -58.667 31 -88 93 -88zM238 616l73 184h69l-94 -190z" />
    <glyph glyph-name="acircumflex" unicode="&#xe2;" horiz-adv-x="518" 
d="M183 -5c-46 0 -81 11.668 -105 35.001s-36 57.666 -36 102.999c0 52 16.167 91.333 48.5 118s84.5 43 156.5 49l130 11v48c0 24.667 -2.33301 45.5 -7 62.5s-12.334 30.667 -23.001 41s-24.834 17.666 -42.501 21.999s-39.5 6.5 -65.5 6.5
c-23.333 0 -47.666 -1.5 -72.999 -4.5s-53.666 -7.5 -84.999 -13.5l-6 54c34 6.66699 64.833 11.334 92.5 14.001s55.5 4 83.5 4c66 0 114.667 -14 146 -42s47 -72 47 -132v-371h-55l-8 68h-5c-34.667 -23.333 -68 -41.333 -100 -54s-63 -19 -93 -19zM203 50.001
c26.667 0 54.834 6.16602 84.501 18.499s59.5 28.166 89.5 47.499v149l-113 -11c-28.667 -2.66699 -52.834 -6.66699 -72.501 -12s-35.5 -12.666 -47.5 -21.999s-20.667 -20.666 -26 -33.999s-8 -29.333 -8 -48c0 -58.667 31 -88 93 -88zM106 694l156 74l157 -74v-58
l-156 73l-157 -73v58z" />
    <glyph glyph-name="atilde" unicode="&#xe3;" horiz-adv-x="518" 
d="M183 -5c-46 0 -81 11.668 -105 35.001s-36 57.666 -36 102.999c0 52 16.167 91.333 48.5 118s84.5 43 156.5 49l130 11v48c0 24.667 -2.33301 45.5 -7 62.5s-12.334 30.667 -23.001 41s-24.834 17.666 -42.501 21.999s-39.5 6.5 -65.5 6.5
c-23.333 0 -47.666 -1.5 -72.999 -4.5s-53.666 -7.5 -84.999 -13.5l-6 54c34 6.66699 64.833 11.334 92.5 14.001s55.5 4 83.5 4c66 0 114.667 -14 146 -42s47 -72 47 -132v-371h-55l-8 68h-5c-34.667 -23.333 -68 -41.333 -100 -54s-63 -19 -93 -19zM203 50.001
c26.667 0 54.834 6.16602 84.501 18.499s59.5 28.166 89.5 47.499v149l-113 -11c-28.667 -2.66699 -52.834 -6.66699 -72.501 -12s-35.5 -12.666 -47.5 -21.999s-20.667 -20.666 -26 -33.999s-8 -29.333 -8 -48c0 -58.667 31 -88 93 -88zM66 678
c17.333 21.333 36.1709 37.3311 56.5039 47.998s40.833 16 61.5 16c15.333 0 29.666 -2.16699 42.999 -6.5s26.333 -9.16602 39 -14.499s25.5 -10.166 38.5 -14.499s26.5 -6.5 40.5 -6.5c31.333 0 60.666 12.667 87.999 38l25 -26
c-16.667 -20.667 -35.834 -36.667 -57.501 -48s-43.5 -17 -65.5 -17c-14 0 -27.667 2.16699 -41 6.5s-26.5 9.33301 -39.5 15s-26 10.667 -39 15s-26.167 6.5 -39.5 6.5c-28.667 0 -57.334 -12.667 -86.001 -38z" />
    <glyph glyph-name="adieresis" unicode="&#xe4;" horiz-adv-x="518" 
d="M183 -5c-46 0 -81 11.668 -105 35.001s-36 57.666 -36 102.999c0 52 16.167 91.333 48.5 118s84.5 43 156.5 49l130 11v48c0 24.667 -2.33301 45.5 -7 62.5s-12.334 30.667 -23.001 41s-24.834 17.666 -42.501 21.999s-39.5 6.5 -65.5 6.5
c-23.333 0 -47.666 -1.5 -72.999 -4.5s-53.666 -7.5 -84.999 -13.5l-6 54c34 6.66699 64.833 11.334 92.5 14.001s55.5 4 83.5 4c66 0 114.667 -14 146 -42s47 -72 47 -132v-371h-55l-8 68h-5c-34.667 -23.333 -68 -41.333 -100 -54s-63 -19 -93 -19zM203 50.001
c26.667 0 54.834 6.16602 84.501 18.499s59.5 28.166 89.5 47.499v149l-113 -11c-28.667 -2.66699 -52.834 -6.66699 -72.501 -12s-35.5 -12.666 -47.5 -21.999s-20.667 -20.666 -26 -33.999s-8 -29.333 -8 -48c0 -58.667 31 -88 93 -88zM146 656
c-28.667 0 -43 14.333 -43 43c0 27.333 14.333 41 43 41c13.333 0 23.833 -3.33301 31.5 -10s11.5 -17 11.5 -31c0 -15.333 -3.83301 -26.333 -11.5 -33s-18.167 -10 -31.5 -10zM377 656c-28 0 -42 14.333 -42 43c0 27.333 14 41 42 41c28.667 0 43 -13.667 43 -41
c0 -28.667 -14.333 -43 -43 -43z" />
    <glyph glyph-name="aring" unicode="&#xe5;" horiz-adv-x="518" 
d="M183 -5c-46 0 -81 11.668 -105 35.001s-36 57.666 -36 102.999c0 52 16.167 91.333 48.5 118s84.5 43 156.5 49l130 11v48c0 24.667 -2.33301 45.5 -7 62.5s-12.334 30.667 -23.001 41s-24.834 17.666 -42.501 21.999s-39.5 6.5 -65.5 6.5
c-23.333 0 -47.666 -1.5 -72.999 -4.5s-53.666 -7.5 -84.999 -13.5l-6 54c34 6.66699 64.833 11.334 92.5 14.001s55.5 4 83.5 4c66 0 114.667 -14 146 -42s47 -72 47 -132v-371h-55l-8 68h-5c-34.667 -23.333 -68 -41.333 -100 -54s-63 -19 -93 -19zM203 50.001
c26.667 0 54.834 6.16602 84.501 18.499s59.5 28.166 89.5 47.499v149l-113 -11c-28.667 -2.66699 -52.834 -6.66699 -72.501 -12s-35.5 -12.666 -47.5 -21.999s-20.667 -20.666 -26 -33.999s-8 -29.333 -8 -48c0 -58.667 31 -88 93 -88zM262 604
c-34.667 0 -63.001 10.168 -85.001 30.501s-33 45.5 -33 75.5c0 31.333 11 57.166 33 77.499s50.333 30.5 85 30.5c34 0 61.833 -10.167 83.5 -30.5s32.5 -46.166 32.5 -77.499c0 -15.333 -2.83301 -29.333 -8.5 -42s-13.667 -23.834 -24 -33.501
s-22.666 -17.167 -36.999 -22.5s-29.833 -8 -46.5 -8zM261.999 644.001c23.333 0 41.166 6 53.499 18s18.5 28 18.5 48c0 21.333 -6.16699 38 -18.5 50s-30.166 18 -53.499 18c-24 0 -42.333 -6 -55 -18s-19 -28.667 -19 -50c0 -20 6.33301 -36 19 -48s31 -18 55 -18z" />
    <glyph glyph-name="ae" unicode="&#xe6;" horiz-adv-x="861" 
d="M622 -10c-47.333 0 -87.502 8.33105 -120.502 24.998s-59.167 41 -78.5 73l-4 1c-27.333 -17.333 -52.166 -32 -74.499 -44s-43 -21.667 -62 -29s-36.667 -12.666 -53 -15.999s-31.833 -5 -46.5 -5c-46 0 -81 11.667 -105 35s-36 57.666 -36 102.999
c0 52 16.333 91.167 49 117.5s84.667 42.5 156 48.5l131 11v53c0 24 -2.5 44.167 -7.5 60.5s-13 29.5 -24 39.5s-25.167 17.167 -42.5 21.5s-39 6.5 -65 6.5c-23.333 0 -47.666 -1.5 -72.999 -4.5s-53.333 -7.5 -84 -13.5l-7 54c34.667 6.66699 65.834 11.334 93.501 14.001
s55.167 4 82.5 4c48.667 0 87 -8.5 115 -25.5s46.667 -42.5 56 -76.5l5 -1c17.333 34 41.833 60.167 73.5 78.5s70.167 27.5 115.5 27.5c64 0 112.667 -20.167 146 -60.5s50 -99.166 50 -176.499c0 -30.667 -1.33301 -52.667 -4 -66h-363c4 -132 65.333 -198 184 -198
c51.333 0 104.666 9.66699 159.999 29l5 -54c-25.333 -10 -53.5 -17.833 -84.5 -23.5s-60.167 -8.5 -87.5 -8.5zM202.998 48.998c49.333 0 109.002 23.334 179.002 70.001c-0.666992 2 -1.33398 10.167 -2.00098 24.5s-1.16699 30.166 -1.5 47.499s-0.5 33.333 -0.5 48v27
l-114 -11c-28.667 -2.66699 -52.834 -6.66699 -72.501 -12s-35.5 -12.666 -47.5 -21.999s-20.667 -20.833 -26 -34.5s-8 -29.834 -8 -48.501c0 -59.333 31 -89 93 -89zM749 291.999c-1.33301 72 -12.5 123.667 -33.5 155s-54.5 47 -100.5 47
c-107.333 0 -164 -67.333 -170 -202h304z" />
    <glyph glyph-name="ccedilla" unicode="&#xe7;" horiz-adv-x="464" 
d="M218 -220c-12.667 0 -26.334 1.00195 -41.001 3.00195s-28.667 5 -42 9v50c21.333 -7.33301 44 -11 68 -11c28 0 48 5.16699 60 15.5s18 27.166 18 50.499c0 15.333 -2.5 30.166 -7.5 44.499s-13.833 32.166 -26.5 53.499c-131.333 18.667 -197 110 -197 274
c0 186.667 84 280 252 280c18 0 37.5 -1.16699 58.5 -3.5s40.833 -5.5 59.5 -9.5v-60c-18 5.33301 -36.5 9 -55.5 11s-37.5 3 -55.5 3c-127.333 0 -191 -73.333 -191 -220c0 -76.667 15 -132.5 45 -167.5s78 -52.5 144 -52.5c20 0 38.5 0.833008 55.5 2.5
s36.167 4.83398 57.5 9.50098v-57c-14.667 -4.66699 -32.667 -8.16699 -54 -10.5s-42.333 -3.5 -63 -3.5c12.667 -22.667 21.334 -41.167 26.001 -55.5s7 -28.5 7 -42.5c0 -36 -10.167 -63.833 -30.5 -83.5s-49.5 -29.5 -87.5 -29.5z" />
    <glyph glyph-name="egrave" unicode="&#xe8;" horiz-adv-x="532" 
d="M294 -9c-80 0 -140.502 22.833 -181.502 68.5s-61.5 112.834 -61.5 201.501c0 93.333 20.167 164.666 60.5 213.999s98.833 74 175.5 74c64.667 0 113.667 -20.167 147 -60.5s50 -99.833 50 -178.5c0 -15.333 -0.333008 -28.333 -1 -39s-2 -19.667 -4 -27h-362
c3.33301 -67.333 19.833 -116.833 49.5 -148.5s74.834 -47.5 135.501 -47.5c24.667 0 50.334 2.33301 77.001 7s54 12 82 22l5 -54c-25.333 -10 -53.333 -17.833 -84 -23.5s-60 -8.5 -88 -8.5zM284.998 495c-104 0 -159.667 -66.999 -167 -200.999h303
c0 71.333 -11 122.666 -33 153.999s-56.333 47 -103 47zM247.998 616.001l-95 190h75l71 -180z" />
    <glyph glyph-name="eacute" unicode="&#xe9;" horiz-adv-x="532" 
d="M259 616l73 184h69l-94 -190zM294 -9c-80 0 -140.502 22.833 -181.502 68.5s-61.5 112.834 -61.5 201.501c0 93.333 20.167 164.666 60.5 213.999s98.833 74 175.5 74c64.667 0 113.667 -20.167 147 -60.5s50 -99.833 50 -178.5c0 -15.333 -0.333008 -28.333 -1 -39
s-2 -19.667 -4 -27h-362c3.33301 -67.333 19.833 -116.833 49.5 -148.5s74.834 -47.5 135.501 -47.5c24.667 0 50.334 2.33301 77.001 7s54 12 82 22l5 -54c-25.333 -10 -53.333 -17.833 -84 -23.5s-60 -8.5 -88 -8.5zM284.998 495c-104 0 -159.667 -66.999 -167 -200.999
h303c0 71.333 -11 122.666 -33 153.999s-56.333 47 -103 47z" />
    <glyph glyph-name="ecircumflex" unicode="&#xea;" horiz-adv-x="532" 
d="M122 694l156 74l157 -74v-58l-156 73l-157 -73v58zM294 -9c-80 0 -140.502 22.833 -181.502 68.5s-61.5 112.834 -61.5 201.501c0 93.333 20.167 164.666 60.5 213.999s98.833 74 175.5 74c64.667 0 113.667 -20.167 147 -60.5s50 -99.833 50 -178.5
c0 -15.333 -0.333008 -28.333 -1 -39s-2 -19.667 -4 -27h-362c3.33301 -67.333 19.833 -116.833 49.5 -148.5s74.834 -47.5 135.501 -47.5c24.667 0 50.334 2.33301 77.001 7s54 12 82 22l5 -54c-25.333 -10 -53.333 -17.833 -84 -23.5s-60 -8.5 -88 -8.5zM284.998 495
c-104 0 -159.667 -66.999 -167 -200.999h303c0 71.333 -11 122.666 -33 153.999s-56.333 47 -103 47z" />
    <glyph glyph-name="edieresis" unicode="&#xeb;" horiz-adv-x="532" 
d="M162 656c-28.667 0 -43 14.333 -43 43c0 27.333 14.333 41 43 41c13.333 0 23.833 -3.33301 31.5 -10s11.5 -17 11.5 -31c0 -15.333 -3.83301 -26.333 -11.5 -33s-18.167 -10 -31.5 -10zM393 656c-28 0 -42 14.333 -42 43c0 27.333 14 41 42 41
c28.667 0 43 -13.667 43 -41c0 -28.667 -14.333 -43 -43 -43zM294 -9c-80 0 -140.502 22.833 -181.502 68.5s-61.5 112.834 -61.5 201.501c0 93.333 20.167 164.666 60.5 213.999s98.833 74 175.5 74c64.667 0 113.667 -20.167 147 -60.5s50 -99.833 50 -178.5
c0 -15.333 -0.333008 -28.333 -1 -39s-2 -19.667 -4 -27h-362c3.33301 -67.333 19.833 -116.833 49.5 -148.5s74.834 -47.5 135.501 -47.5c24.667 0 50.334 2.33301 77.001 7s54 12 82 22l5 -54c-25.333 -10 -53.333 -17.833 -84 -23.5s-60 -8.5 -88 -8.5zM284.998 495
c-104 0 -159.667 -66.999 -167 -200.999h303c0 71.333 -11 122.666 -33 153.999s-56.333 47 -103 47z" />
    <glyph glyph-name="igrave" unicode="&#xec;" horiz-adv-x="228" 
d="M80 540h67v-540h-67v540zM86 616l-95 190h75l71 -180z" />
    <glyph glyph-name="iacute" unicode="&#xed;" horiz-adv-x="228" 
d="M92 616l73 184h69l-94 -190zM80 540h67v-540h-67v540z" />
    <glyph glyph-name="icircumflex" unicode="&#xee;" horiz-adv-x="228" 
d="M-38 694l153 74l155 -74v-58l-154 73l-154 -73v58zM80 540h67v-540h-67v540z" />
    <glyph glyph-name="idieresis" unicode="&#xef;" horiz-adv-x="228" 
d="M2 656c-28.667 0 -43 14.333 -43 43c0 27.333 14.333 41 43 41s43 -13.667 43 -41c0 -28.667 -14.333 -43 -43 -43zM228 656c-28.667 0 -43 14.333 -43 43c0 27.333 14.333 41 43 41c13.333 0 23.833 -3.33301 31.5 -10s11.5 -17 11.5 -31
c0 -15.333 -3.83301 -26.333 -11.5 -33s-18.167 -10 -31.5 -10zM80 540h67v-540h-67v540z" />
    <glyph glyph-name="eth" unicode="&#xf0;" horiz-adv-x="592" 
d="M220 679l143.998 16c-23.333 40 -50.333 77.667 -81 113h73c12.667 -15.333 24.667 -32 36 -50l34 -56l142 17v-51l-117 -14c23.333 -50.667 42.333 -106 57 -166s22 -124.333 22 -193c0 -99.333 -20.667 -175 -62 -227s-100.666 -78 -177.999 -78
s-136.666 24 -177.999 72s-62 117.333 -62 208c0 90 20.5 159.167 61.5 207.5s99.5 72.5 175.5 72.5c40 0 73.167 -7.66699 99.5 -23s48.5 -40 66.5 -74c-6.66699 34.667 -15 68 -25 100s-22.667 63.333 -38 94l-170 -20v52zM289.998 47c58.667 0 102 19.667 130 59
s42 100 42 182c0 27.333 -3.5 53.333 -10.5 78s-17.5 46.5 -31.5 65.5s-31.833 34 -53.5 45s-47.167 16.5 -76.5 16.5c-58.667 0 -102 -18.167 -130 -54.5s-42 -92.5 -42 -168.5s14 -132.167 42 -168.5s71.333 -54.5 130 -54.5z" />
    <glyph glyph-name="ntilde" unicode="&#xf1;" horiz-adv-x="591" 
d="M79 540l56 0.000976562l5 -63h5c26.667 12.667 51 23.667 73 33s42.167 17 60.5 23s35.333 10.333 51 13s31.167 4 46.5 4c46 0 80.667 -11.833 104 -35.5s35 -60.834 35 -111.501v-403h-66v380c0 40 -7.83301 68.5 -23.5 85.5s-39.5 25.5 -71.5 25.5
c-28 0 -59.667 -5.83301 -95 -17.5s-73 -27.5 -113 -47.5v-426h-67v540zM105 678.001c17.333 21.333 36.1709 37.3311 56.5039 47.998s40.833 16 61.5 16c15.333 0 29.666 -2.16699 42.999 -6.5s26.333 -9.16602 39 -14.499s25.5 -10.166 38.5 -14.499s26.5 -6.5 40.5 -6.5
c31.333 0 60.666 12.667 87.999 38l25 -26c-16.667 -20.667 -35.834 -36.667 -57.501 -48s-43.5 -17 -65.5 -17c-14 0 -27.667 2.16699 -41 6.5s-26.5 9.33301 -39.5 15s-26 10.667 -39 15s-26.167 6.5 -39.5 6.5c-28.667 0 -57.334 -12.667 -86.001 -38z" />
    <glyph glyph-name="ograve" unicode="&#xf2;" horiz-adv-x="580" 
d="M290 -10c-78 0 -137.5 24 -178.5 72s-61.5 117.333 -61.5 208s20.5 160 61.5 208s100.5 72 178.5 72s137.5 -24 178.5 -72s61.5 -117.333 61.5 -208s-20.5 -160 -61.5 -208s-100.5 -72 -178.5 -72zM290 47c58.667 0 102 18 130 54s42 92.333 42 169s-14 133 -42 169
s-71.333 54 -130 54s-102 -18 -130 -54s-42 -92.333 -42 -169c0 -76 14 -132.167 42 -168.5s71.333 -54.5 130 -54.5zM257 616l-95 190h75l71 -180z" />
    <glyph glyph-name="oacute" unicode="&#xf3;" horiz-adv-x="580" 
d="M263 616l73 184h69l-94 -190zM290 -10c-78 0 -137.5 24 -178.5 72s-61.5 117.333 -61.5 208s20.5 160 61.5 208s100.5 72 178.5 72s137.5 -24 178.5 -72s61.5 -117.333 61.5 -208s-20.5 -160 -61.5 -208s-100.5 -72 -178.5 -72zM290 47c58.667 0 102 18 130 54
s42 92.333 42 169s-14 133 -42 169s-71.333 54 -130 54s-102 -18 -130 -54s-42 -92.333 -42 -169c0 -76 14 -132.167 42 -168.5s71.333 -54.5 130 -54.5z" />
    <glyph glyph-name="ocircumflex" unicode="&#xf4;" horiz-adv-x="580" 
d="M131 694l156 74l157 -74v-58l-156 73l-157 -73v58zM290 -10c-78 0 -137.5 24 -178.5 72s-61.5 117.333 -61.5 208s20.5 160 61.5 208s100.5 72 178.5 72s137.5 -24 178.5 -72s61.5 -117.333 61.5 -208s-20.5 -160 -61.5 -208s-100.5 -72 -178.5 -72zM290 47
c58.667 0 102 18 130 54s42 92.333 42 169s-14 133 -42 169s-71.333 54 -130 54s-102 -18 -130 -54s-42 -92.333 -42 -169c0 -76 14 -132.167 42 -168.5s71.333 -54.5 130 -54.5z" />
    <glyph glyph-name="otilde" unicode="&#xf5;" horiz-adv-x="580" 
d="M290 -10c-78 0 -137.5 24 -178.5 72s-61.5 117.333 -61.5 208s20.5 160 61.5 208s100.5 72 178.5 72s137.5 -24 178.5 -72s61.5 -117.333 61.5 -208s-20.5 -160 -61.5 -208s-100.5 -72 -178.5 -72zM290 47c58.667 0 102 18 130 54s42 92.333 42 169s-14 133 -42 169
s-71.333 54 -130 54s-102 -18 -130 -54s-42 -92.333 -42 -169c0 -76 14 -132.167 42 -168.5s71.333 -54.5 130 -54.5zM92 678c17.333 21.333 36.1709 37.3311 56.5039 47.998s40.833 16 61.5 16c15.333 0 29.666 -2.16699 42.999 -6.5s26.333 -9.16602 39 -14.499
s25.5 -10.166 38.5 -14.499s26.5 -6.5 40.5 -6.5c31.333 0 60.666 12.667 87.999 38l25 -26c-16.667 -20.667 -35.834 -36.667 -57.501 -48s-43.5 -17 -65.5 -17c-14 0 -27.667 2.16699 -41 6.5s-26.5 9.33301 -39.5 15s-26 10.667 -39 15s-26.167 6.5 -39.5 6.5
c-28.667 0 -57.334 -12.667 -86.001 -38z" />
    <glyph glyph-name="odieresis" unicode="&#xf6;" horiz-adv-x="580" 
d="M171 656c-28.667 0 -43 14.333 -43 43c0 27.333 14.333 41 43 41c13.333 0 23.833 -3.33301 31.5 -10s11.5 -17 11.5 -31c0 -15.333 -3.83301 -26.333 -11.5 -33s-18.167 -10 -31.5 -10zM402 656c-28 0 -42 14.333 -42 43c0 27.333 14 41 42 41
c28.667 0 43 -13.667 43 -41c0 -28.667 -14.333 -43 -43 -43zM290 -10c-78 0 -137.5 24 -178.5 72s-61.5 117.333 -61.5 208s20.5 160 61.5 208s100.5 72 178.5 72s137.5 -24 178.5 -72s61.5 -117.333 61.5 -208s-20.5 -160 -61.5 -208s-100.5 -72 -178.5 -72zM290 47
c58.667 0 102 18 130 54s42 92.333 42 169s-14 133 -42 169s-71.333 54 -130 54s-102 -18 -130 -54s-42 -92.333 -42 -169c0 -76 14 -132.167 42 -168.5s71.333 -54.5 130 -54.5z" />
    <glyph glyph-name="divide" unicode="&#xf7;" horiz-adv-x="520" 
d="M263 172c-12 0 -21.667 3.33301 -29 10s-11 16.667 -11 30s3.66699 23.5 11 30.5s17 10.5 29 10.5s21.833 -3.5 29.5 -10.5s11.5 -17.167 11.5 -30.5s-3.83301 -23.333 -11.5 -30s-17.5 -10 -29.5 -10zM69 396h383v-52h-383v52zM263 480c-12 0 -21.667 3.5 -29 10.5
s-11 16.833 -11 29.5c0 13.333 3.66699 23.666 11 30.999s17 11 29 11s21.833 -3.66699 29.5 -11s11.5 -17.666 11.5 -30.999c0 -12.667 -3.83301 -22.5 -11.5 -29.5s-17.5 -10.5 -29.5 -10.5z" />
    <glyph glyph-name="oslash" unicode="&#xf8;" horiz-adv-x="585" 
d="M100 81c-31.333 47.333 -46.999 110.332 -46.999 188.999c0 90 20.333 159.167 61 207.5s100.334 72.5 179.001 72.5c66.667 0 120 -18.333 160 -55l38 45h63l-69 -81c15.333 -23.333 27.166 -50.666 35.499 -81.999s12.5 -67 12.5 -107
c0 -90 -20.333 -159.167 -61 -207.5s-100.334 -72.5 -179.001 -72.5c-67.333 0 -121 18.333 -161 55l-38 -45h-63zM293.001 46.999c60.667 0 104.5 18.333 131.5 55s40.5 92.667 40.5 168c0 56.667 -8 102.667 -24 138l-270 -317c27.333 -29.333 68 -44 122 -44z
M121.001 269.999c0 -55.333 7.66699 -101 23 -137l270 316c-28 29.333 -68.333 44 -121 44c-60.667 0 -104.5 -18.333 -131.5 -55s-40.5 -92.667 -40.5 -168z" />
    <glyph glyph-name="ugrave" unicode="&#xf9;" horiz-adv-x="591" 
d="M208 -10c-88.667 0 -133 48.999 -133 146.999v403h67v-381c0 -38.667 6.83301 -66.5 20.5 -83.5s36.167 -25.5 67.5 -25.5c34.667 0 69.667 6.83301 105 20.5s72 29.834 110 48.501v421h67v-540h-56l-5 67h-4l-73.5 -34.5c-21 -9.66699 -40.5 -17.667 -58.5 -24
s-35.333 -11 -52 -14s-35 -4.5 -55 -4.5zM261 615.999l-95 190h75l71 -180z" />
    <glyph glyph-name="uacute" unicode="&#xfa;" horiz-adv-x="591" 
d="M266 616l73 184h69l-94 -190zM208 -10c-88.667 0 -133 48.999 -133 146.999v403h67v-381c0 -38.667 6.83301 -66.5 20.5 -83.5s36.167 -25.5 67.5 -25.5c34.667 0 69.667 6.83301 105 20.5s72 29.834 110 48.501v421h67v-540h-56l-5 67h-4l-73.5 -34.5
c-21 -9.66699 -40.5 -17.667 -58.5 -24s-35.333 -11 -52 -14s-35 -4.5 -55 -4.5z" />
    <glyph glyph-name="ucircumflex" unicode="&#xfb;" horiz-adv-x="591" 
d="M135 694l156 74l157 -74v-58l-156 73l-157 -73v58zM208 -10c-88.667 0 -133 48.999 -133 146.999v403h67v-381c0 -38.667 6.83301 -66.5 20.5 -83.5s36.167 -25.5 67.5 -25.5c34.667 0 69.667 6.83301 105 20.5s72 29.834 110 48.501v421h67v-540h-56l-5 67h-4
l-73.5 -34.5c-21 -9.66699 -40.5 -17.667 -58.5 -24s-35.333 -11 -52 -14s-35 -4.5 -55 -4.5z" />
    <glyph glyph-name="udieresis" unicode="&#xfc;" horiz-adv-x="591" 
d="M175 656c-28.667 0 -43 14.333 -43 43c0 27.333 14.333 41 43 41c13.333 0 23.833 -3.33301 31.5 -10s11.5 -17 11.5 -31c0 -15.333 -3.83301 -26.333 -11.5 -33s-18.167 -10 -31.5 -10zM406 656c-28 0 -42 14.333 -42 43c0 27.333 14 41 42 41
c28.667 0 43 -13.667 43 -41c0 -28.667 -14.333 -43 -43 -43zM208 -10c-88.667 0 -133 48.999 -133 146.999v403h67v-381c0 -38.667 6.83301 -66.5 20.5 -83.5s36.167 -25.5 67.5 -25.5c34.667 0 69.667 6.83301 105 20.5s72 29.834 110 48.501v421h67v-540h-56l-5 67h-4
l-73.5 -34.5c-21 -9.66699 -40.5 -17.667 -58.5 -24s-35.333 -11 -52 -14s-35 -4.5 -55 -4.5z" />
    <glyph glyph-name="yacute" unicode="&#xfd;" horiz-adv-x="549" 
d="M155 -208l-1 9l85 203l-220 527v9h71l159 -395l22 -69h5l24 69l164 395h69v-9l-318 -751zM253 616l73 184h69l-94 -190z" />
    <glyph glyph-name="thorn" unicode="&#xfe;" horiz-adv-x="589" 
d="M79 808l67 0.000976562v-330c19.333 22 43.333 39.5 72 52.5s62.667 19.5 102 19.5c72 0 126.5 -22.333 163.5 -67s55.5 -114.334 55.5 -209.001c0 -96 -23 -167.333 -69 -214s-110.667 -70 -194 -70c-22.667 0 -45.5 1.33301 -68.5 4l-61.5 7v-221h-67v1028zM277 43.001
c32 0 59.999 4.16504 83.999 12.498s44.167 21.5 60.5 39.5s28.666 41.333 36.999 70s12.5 63.667 12.5 105c0 82 -13.667 140 -41 174s-69 51 -125 51c-22 0 -42.667 -3.16699 -62 -9.5s-36.166 -15.666 -50.499 -27.999s-25.666 -27.166 -33.999 -44.499
s-12.5 -37 -12.5 -59v-298c19.333 -3.33301 40.5 -6.33301 63.5 -9s45.5 -4 67.5 -4z" />
    <glyph glyph-name="ydieresis" unicode="&#xff;" horiz-adv-x="549" 
d="M155 -208l-1 9l85 203l-220 527v9h71l159 -395l22 -69h5l24 69l164 395h69v-9l-318 -751zM159 656c-28.667 0 -43 14.333 -43 43c0 27.333 14.333 41 43 41c13.333 0 23.833 -3.33301 31.5 -10s11.5 -17 11.5 -31c0 -15.333 -3.83301 -26.333 -11.5 -33
s-18.167 -10 -31.5 -10zM390 656c-28 0 -42 14.333 -42 43c0 27.333 14 41 42 41c28.667 0 43 -13.667 43 -41c0 -28.667 -14.333 -43 -43 -43z" />
    <glyph glyph-name="Amacron" unicode="&#x100;" horiz-adv-x="665" 
d="M9 6l272 734h103l272 -734v-6h-67l-87 231h-340l-86 -231h-67v6zM483 291l-102 272l-46 125h-6l-45 -125l-102 -272h301zM180 895h303v-53h-303v53z" />
    <glyph glyph-name="amacron" unicode="&#x101;" horiz-adv-x="518" 
d="M183 -5c-46 0 -81 11.668 -105 35.001s-36 57.666 -36 102.999c0 52 16.167 91.333 48.5 118s84.5 43 156.5 49l130 11v48c0 24.667 -2.33301 45.5 -7 62.5s-12.334 30.667 -23.001 41s-24.834 17.666 -42.501 21.999s-39.5 6.5 -65.5 6.5
c-23.333 0 -47.666 -1.5 -72.999 -4.5s-53.666 -7.5 -84.999 -13.5l-6 54c34 6.66699 64.833 11.334 92.5 14.001s55.5 4 83.5 4c66 0 114.667 -14 146 -42s47 -72 47 -132v-371h-55l-8 68h-5c-34.667 -23.333 -68 -41.333 -100 -54s-63 -19 -93 -19zM203 50.001
c26.667 0 54.834 6.16602 84.501 18.499s59.5 28.166 89.5 47.499v149l-113 -11c-28.667 -2.66699 -52.834 -6.66699 -72.501 -12s-35.5 -12.666 -47.5 -21.999s-20.667 -20.666 -26 -33.999s-8 -29.333 -8 -48c0 -58.667 31 -88 93 -88zM112 703h308v-53h-308v53z" />
    <glyph glyph-name="Abreve" unicode="&#x102;" horiz-adv-x="665" 
d="M9 6l272 734h103l272 -734v-6h-67l-87 231h-340l-86 -231h-67v6zM483 291l-102 272l-46 125h-6l-45 -125l-102 -272h301zM333 814c-56.667 0 -99.5 12.833 -128.5 38.5s-43.5 60.5 -43.5 104.5h53c0 -30.667 10.167 -54.5 30.5 -71.5s49.833 -25.5 88.5 -25.5
c38 0 67.167 8.5 87.5 25.5s30.5 40.833 30.5 71.5h54c0 -44 -14.5 -78.833 -43.5 -104.5s-71.833 -38.5 -128.5 -38.5z" />
    <glyph glyph-name="abreve" unicode="&#x103;" horiz-adv-x="518" 
d="M183 -5c-46 0 -81 11.668 -105 35.001s-36 57.666 -36 102.999c0 52 16.167 91.333 48.5 118s84.5 43 156.5 49l130 11v48c0 24.667 -2.33301 45.5 -7 62.5s-12.334 30.667 -23.001 41s-24.834 17.666 -42.501 21.999s-39.5 6.5 -65.5 6.5
c-23.333 0 -47.666 -1.5 -72.999 -4.5s-53.666 -7.5 -84.999 -13.5l-6 54c34 6.66699 64.833 11.334 92.5 14.001s55.5 4 83.5 4c66 0 114.667 -14 146 -42s47 -72 47 -132v-371h-55l-8 68h-5c-34.667 -23.333 -68 -41.333 -100 -54s-63 -19 -93 -19zM203 50.001
c26.667 0 54.834 6.16602 84.501 18.499s59.5 28.166 89.5 47.499v149l-113 -11c-28.667 -2.66699 -52.834 -6.66699 -72.501 -12s-35.5 -12.666 -47.5 -21.999s-20.667 -20.666 -26 -33.999s-8 -29.333 -8 -48c0 -58.667 31 -88 93 -88zM262 619
c-59.333 0 -103.001 13.167 -131.001 39.5s-42 62.5 -42 108.5h53c0 -38 10.333 -64.833 31 -80.5s50.334 -23.5 89.001 -23.5c38 0 67.5 7.83301 88.5 23.5s31.5 42.5 31.5 80.5h53c0 -46 -14 -82.167 -42 -108.5s-71.667 -39.5 -131 -39.5z" />
    <glyph glyph-name="Aogonek" unicode="&#x104;" horiz-adv-x="664" 
d="M585 -220c-64 0 -96.001 27 -96.001 81c0 12.667 2 24.834 6 36.501s10.5 23 19.5 34s20.5 22.167 34.5 33.5s31.333 23 52 35h-12l-87 231h-340l-86 -231h-67v6l272 734h103l272 -734v-26c-40.667 -19.333 -70.167 -38.333 -88.5 -57s-27.5 -38.334 -27.5 -59.001
c0 -26 16.333 -39 49 -39c20.667 0 42.667 3.66699 66 11v-44c-9.33301 -4 -20.166 -7 -32.499 -9s-24.833 -3 -37.5 -3zM482.999 291l-102 272l-46 125h-6l-45 -125l-102 -272h301z" />
    <glyph glyph-name="aogonek" unicode="&#x105;" horiz-adv-x="518" 
d="M373 -220c-64 0 -96.001 27.001 -96.001 81.001c0 12.667 2 24.834 6 36.501s10.5 23 19.5 34s20.5 22.167 34.5 33.5s31.333 23 52 35l-8 68h-5c-34.667 -23.333 -68 -41.333 -100 -54s-63 -19 -93 -19c-46 0 -81 11.667 -105 35s-36 57.666 -36 102.999
c0 52 16.167 91.333 48.5 118s84.5 43 156.5 49l130 11v48c0 24.667 -2.33301 45.5 -7 62.5s-12.334 30.667 -23.001 41s-24.834 17.666 -42.501 21.999s-39.5 6.5 -65.5 6.5c-23.333 0 -47.666 -1.5 -72.999 -4.5s-53.666 -7.5 -84.999 -13.5l-6 54
c34 6.66699 64.833 11.334 92.5 14.001s55.5 4 83.5 4c66 0 114.667 -14 146 -42s47 -72 47 -132v-391c-40.667 -19.333 -70.167 -38.333 -88.5 -57s-27.5 -38.334 -27.5 -59.001c0 -26 16.333 -39 49 -39c20.667 0 42.667 3.66699 66 11v-44
c-9.33301 -4 -20.166 -7 -32.499 -9s-24.833 -3 -37.5 -3zM202.999 50.001c26.667 0 54.834 6.16602 84.501 18.499s59.5 28.166 89.5 47.499v149l-113 -11c-28.667 -2.66699 -52.834 -6.66699 -72.501 -12s-35.5 -12.666 -47.5 -21.999s-20.667 -20.666 -26 -33.999
s-8 -29.333 -8 -48c0 -58.667 31 -88 93 -88z" />
    <glyph glyph-name="Cacute" unicode="&#x106;" horiz-adv-x="584" 
d="M380 -9c-217.333 1.33301 -325.998 126.999 -325.998 376.999c0 254.667 109.333 382 328 382c22 0 47.667 -1.66699 77 -5s57.666 -7.66602 84.999 -12.999v-60c-30 5.33301 -58.333 9.5 -85 12.5s-50.334 4.5 -71.001 4.5c-89.333 0 -155.666 -26 -198.999 -78
s-65 -132.667 -65 -242c0 -212 85.333 -318 256 -318c10.667 0 23.167 0.5 37.5 1.5s29.166 2.5 44.499 4.5s30.333 4.16699 45 6.5s27 4.83301 37 7.5v-58c-11.333 -3.33301 -24 -6.33301 -38 -9s-28.333 -5 -43 -7s-29.167 -3.5 -43.5 -4.5s-27.5 -1.5 -39.5 -1.5z
M313.002 805.999l76 133h71l-93 -139z" />
    <glyph glyph-name="cacute" unicode="&#x107;" horiz-adv-x="464" 
d="M247 616l73 184h69l-94 -190zM302 -9c-168 0 -251.998 92.666 -251.998 277.999c0 186.667 84 280 252 280c18 0 37.5 -1.16699 58.5 -3.5s40.833 -5.5 59.5 -9.5v-60c-18 5.33301 -36.5 9 -55.5 11s-37.5 3 -55.5 3c-127.333 0 -191 -73.333 -191 -220
c0 -76.667 15 -132.5 45 -167.5s78 -52.5 144 -52.5c20 0 38.5 0.833008 55.5 2.5s36.167 4.83398 57.5 9.50098v-57c-14.667 -4.66699 -32.834 -8.16699 -54.501 -10.5s-42.834 -3.5 -63.501 -3.5z" />
    <glyph glyph-name="Ccircumflex" unicode="&#x108;" horiz-adv-x="584" 
d="M380 -9c-217.333 1.33301 -325.998 126.999 -325.998 376.999c0 254.667 109.333 382 328 382c22 0 47.667 -1.66699 77 -5s57.666 -7.66602 84.999 -12.999v-60c-30 5.33301 -58.333 9.5 -85 12.5s-50.334 4.5 -71.001 4.5c-89.333 0 -155.666 -26 -198.999 -78
s-65 -132.667 -65 -242c0 -212 85.333 -318 256 -318c10.667 0 23.167 0.5 37.5 1.5s29.166 2.5 44.499 4.5s30.333 4.16699 45 6.5s27 4.83301 37 7.5v-58c-11.333 -3.33301 -24 -6.33301 -38 -9s-28.333 -5 -43 -7s-29.167 -3.5 -43.5 -4.5s-27.5 -1.5 -39.5 -1.5z
M189.002 873.999l157 73l157 -73v-60l-157 74l-157 -74v60z" />
    <glyph glyph-name="ccircumflex" unicode="&#x109;" horiz-adv-x="464" 
d="M112 694l156 74l157 -74v-58l-156 73l-157 -73v58zM302 -9c-168 0 -251.998 92.666 -251.998 277.999c0 186.667 84 280 252 280c18 0 37.5 -1.16699 58.5 -3.5s40.833 -5.5 59.5 -9.5v-60c-18 5.33301 -36.5 9 -55.5 11s-37.5 3 -55.5 3
c-127.333 0 -191 -73.333 -191 -220c0 -76.667 15 -132.5 45 -167.5s78 -52.5 144 -52.5c20 0 38.5 0.833008 55.5 2.5s36.167 4.83398 57.5 9.50098v-57c-14.667 -4.66699 -32.834 -8.16699 -54.501 -10.5s-42.834 -3.5 -63.501 -3.5z" />
    <glyph glyph-name="Cdotaccent" unicode="&#x10a;" horiz-adv-x="584" 
d="M350 816c-31.333 0 -47 15.333 -47 46c0 31.333 15.667 47 47 47c14.667 0 26.334 -3.66699 35.001 -11s13 -19.333 13 -36c0 -16 -4.33301 -27.667 -13 -35s-20.334 -11 -35.001 -11zM380 -9c-217.333 1.33301 -325.998 126.999 -325.998 376.999
c0 254.667 109.333 382 328 382c22 0 47.667 -1.66699 77 -5s57.666 -7.66602 84.999 -12.999v-60c-30 5.33301 -58.333 9.5 -85 12.5s-50.334 4.5 -71.001 4.5c-89.333 0 -155.666 -26 -198.999 -78s-65 -132.667 -65 -242c0 -212 85.333 -318 256 -318
c10.667 0 23.167 0.5 37.5 1.5s29.166 2.5 44.499 4.5s30.333 4.16699 45 6.5s27 4.83301 37 7.5v-58c-11.333 -3.33301 -24 -6.33301 -38 -9s-28.333 -5 -43 -7s-29.167 -3.5 -43.5 -4.5s-27.5 -1.5 -39.5 -1.5z" />
    <glyph glyph-name="cdotaccent" unicode="&#x10b;" horiz-adv-x="464" 
d="M302 -9c-168 0 -251.998 92.666 -251.998 277.999c0 186.667 84 280 252 280c18 0 37.5 -1.16699 58.5 -3.5s40.833 -5.5 59.5 -9.5v-60c-18 5.33301 -36.5 9 -55.5 11s-37.5 3 -55.5 3c-127.333 0 -191 -73.333 -191 -220c0 -76.667 15 -132.5 45 -167.5
s78 -52.5 144 -52.5c20 0 38.5 0.833008 55.5 2.5s36.167 4.83398 57.5 9.50098v-57c-14.667 -4.66699 -32.834 -8.16699 -54.501 -10.5s-42.834 -3.5 -63.501 -3.5zM268.002 651.999c-31.333 0 -47 15.667 -47 47c0 30.667 15.667 46 47 46
c14.667 0 26.334 -3.66699 35.001 -11s13 -19 13 -35c0 -16.667 -4.33301 -28.667 -13 -36s-20.334 -11 -35.001 -11z" />
    <glyph glyph-name="Ccaron" unicode="&#x10c;" horiz-adv-x="584" 
d="M380 -9c-217.333 1.33301 -325.998 126.999 -325.998 376.999c0 254.667 109.333 382 328 382c22 0 47.667 -1.66699 77 -5s57.666 -7.66602 84.999 -12.999v-60c-30 5.33301 -58.333 9.5 -85 12.5s-50.334 4.5 -71.001 4.5c-89.333 0 -155.666 -26 -198.999 -78
s-65 -132.667 -65 -242c0 -212 85.333 -318 256 -318c10.667 0 23.167 0.5 37.5 1.5s29.166 2.5 44.499 4.5s30.333 4.16699 45 6.5s27 4.83301 37 7.5v-58c-11.333 -3.33301 -24 -6.33301 -38 -9s-28.333 -5 -43 -7s-29.167 -3.5 -43.5 -4.5s-27.5 -1.5 -39.5 -1.5z
M191.002 942.999l157 -73l157 73v-59l-157 -74l-157 74v59z" />
    <glyph glyph-name="ccaron" unicode="&#x10d;" horiz-adv-x="464" 
d="M112 758l157 -73l157 73v-59l-157 -73l-157 73v59zM302 -9c-168 0 -251.998 92.666 -251.998 277.999c0 186.667 84 280 252 280c18 0 37.5 -1.16699 58.5 -3.5s40.833 -5.5 59.5 -9.5v-60c-18 5.33301 -36.5 9 -55.5 11s-37.5 3 -55.5 3
c-127.333 0 -191 -73.333 -191 -220c0 -76.667 15 -132.5 45 -167.5s78 -52.5 144 -52.5c20 0 38.5 0.833008 55.5 2.5s36.167 4.83398 57.5 9.50098v-57c-14.667 -4.66699 -32.834 -8.16699 -54.501 -10.5s-42.834 -3.5 -63.501 -3.5z" />
    <glyph glyph-name="Dcaron" unicode="&#x10e;" horiz-adv-x="717" 
d="M173 943l157 -73l157 73v-59l-157 -74l-157 74v59zM273 -11c-38 0 -73.334 1.16797 -106.001 3.50098s-57.334 6.16602 -74.001 11.499v734c14.667 1.33301 31 2.66602 49 3.99902s35.833 2.5 53.5 3.5s34.834 1.83301 51.501 2.5s31 1 43 1
c128.667 0 223 -30.5 283 -91.5s90 -156.833 90 -287.5c0 -131.333 -31.167 -227.666 -93.5 -288.999s-161.166 -92 -296.499 -92zM289.999 48.001c104.667 0 181.5 25.833 230.5 77.5s73.5 133.167 73.5 244.5c0 110.667 -24 191.5 -72 242.5s-123.667 76.5 -227 76.5
c-18.667 0 -40.667 -0.666992 -66 -2s-48 -3.33301 -68 -6v-623c12.667 -2 24.334 -3.66699 35.001 -5s21 -2.33301 31 -3s20.167 -1.16699 30.5 -1.5s21.166 -0.5 32.499 -0.5z" />
    <glyph glyph-name="dcaron" unicode="&#x10f;" horiz-adv-x="590" 
d="M583 808h59l-26 -228h-33v228zM273 -10c-72.667 0 -128.001 22.334 -166.001 67.001s-57 114.667 -57 210c0 48 6.16699 89.667 18.5 125s29.833 64.666 52.5 87.999s49.834 40.833 81.501 52.5s67.167 17.5 106.5 17.5c25.333 0 49.333 -1.33301 72 -4s43.667 -5 63 -7
v269h67v-808h-58l-6 66h-6c-18.667 -24.667 -42 -43.5 -70 -56.5s-60.667 -19.5 -98 -19.5zM284.999 46.001c20.667 0 40.5 2.99902 59.5 8.99902s35.833 14.333 50.5 25s26.5 23.667 35.5 39s13.5 32.333 13.5 51v314c-19.333 3.33301 -40.5 6 -63.5 8s-47.167 3 -72.5 3
c-62 0 -109 -17.667 -141 -53s-48 -92.666 -48 -171.999s13.5 -136.5 40.5 -171.5s68.833 -52.5 125.5 -52.5z" />
    <glyph glyph-name="Dcroat" unicode="&#x110;" horiz-adv-x="726" 
d="M5 398l96.999 0.000976562v340c14.667 1.33301 31 2.66602 49 3.99902s35.833 2.5 53.5 3.5s34.834 1.83301 51.501 2.5s31 1 43 1c128.667 0 223 -30.5 283 -91.5s90 -156.833 90 -287.5c0 -131.333 -31.167 -227.666 -93.5 -288.999s-161.166 -92 -296.499 -92
c-38 0 -73.333 1.16699 -106 3.5s-57.334 6.16602 -74.001 11.499v336h-97v58zM298.999 48.001c104.667 0 181.5 25.833 230.5 77.5s73.5 133.167 73.5 244.5c0 110.667 -24 191.5 -72 242.5s-123.667 76.5 -227 76.5c-18.667 0 -40.667 -0.666992 -66 -2
s-48 -3.33301 -68 -6v-283h195v-58h-195v-282c12.667 -2 24.334 -3.66699 35.001 -5s21 -2.33301 31 -3s20.167 -1.16699 30.5 -1.5s21.166 -0.5 32.499 -0.5z" />
    <glyph glyph-name="dcroat" unicode="&#x111;" horiz-adv-x="590" 
d="M252 697l191.999 0.000976562v111h67v-111h79v-47h-79v-650h-58l-6 66h-6c-18.667 -24.667 -42 -43.5 -70 -56.5s-60.667 -19.5 -98 -19.5c-72.667 0 -128 22.333 -166 67s-57 114.667 -57 210c0 48 6.16699 89.667 18.5 125s29.833 64.666 52.5 87.999
s49.834 40.833 81.501 52.5s67.167 17.5 106.5 17.5c25.333 0 49.333 -1.33301 72 -4s43.667 -5 63 -7v111h-192v47zM284.999 46.001c20.667 0 40.5 2.99902 59.5 8.99902s35.833 14.333 50.5 25s26.5 23.667 35.5 39s13.5 32.333 13.5 51v314
c-19.333 3.33301 -40.5 6 -63.5 8s-47.167 3 -72.5 3c-62 0 -109 -17.667 -141 -53s-48 -92.666 -48 -171.999s13.5 -136.5 40.5 -171.5s68.833 -52.5 125.5 -52.5z" />
    <glyph glyph-name="Emacron" unicode="&#x112;" horiz-adv-x="606" 
d="M169 895h303v-53h-303v53zM93 740h453v-59h-385v-276h361v-58h-361v-288h393v-59h-461v740z" />
    <glyph glyph-name="emacron" unicode="&#x113;" horiz-adv-x="532" 
d="M294 -9c-80 0 -140.502 22.833 -181.502 68.5s-61.5 112.834 -61.5 201.501c0 93.333 20.167 164.666 60.5 213.999s98.833 74 175.5 74c64.667 0 113.667 -20.167 147 -60.5s50 -99.833 50 -178.5c0 -15.333 -0.333008 -28.333 -1 -39s-2 -19.667 -4 -27h-362
c3.33301 -67.333 19.833 -116.833 49.5 -148.5s74.834 -47.5 135.501 -47.5c24.667 0 50.334 2.33301 77.001 7s54 12 82 22l5 -54c-25.333 -10 -53.333 -17.833 -84 -23.5s-60 -8.5 -88 -8.5zM284.998 495c-104 0 -159.667 -66.999 -167 -200.999h303
c0 71.333 -11 122.666 -33 153.999s-56.333 47 -103 47zM124.998 703.001h308v-53h-308v53z" />
    <glyph glyph-name="Ebreve" unicode="&#x114;" horiz-adv-x="606" 
d="M320 814c-56.667 0 -99.5 12.833 -128.5 38.5s-43.5 60.5 -43.5 104.5h53c0 -30.667 10.167 -54.5 30.5 -71.5s49.833 -25.5 88.5 -25.5c38 0 67.167 8.5 87.5 25.5s30.5 40.833 30.5 71.5h54c0 -44 -14.5 -78.833 -43.5 -104.5s-71.833 -38.5 -128.5 -38.5zM93 740h453
v-59h-385v-276h361v-58h-361v-288h393v-59h-461v740z" />
    <glyph glyph-name="ebreve" unicode="&#x115;" horiz-adv-x="532" 
d="M294 -9c-80 0 -140.502 22.833 -181.502 68.5s-61.5 112.834 -61.5 201.501c0 93.333 20.167 164.666 60.5 213.999s98.833 74 175.5 74c64.667 0 113.667 -20.167 147 -60.5s50 -99.833 50 -178.5c0 -15.333 -0.333008 -28.333 -1 -39s-2 -19.667 -4 -27h-362
c3.33301 -67.333 19.833 -116.833 49.5 -148.5s74.834 -47.5 135.501 -47.5c24.667 0 50.334 2.33301 77.001 7s54 12 82 22l5 -54c-25.333 -10 -53.333 -17.833 -84 -23.5s-60 -8.5 -88 -8.5zM284.998 495c-104 0 -159.667 -66.999 -167 -200.999h303
c0 71.333 -11 122.666 -33 153.999s-56.333 47 -103 47zM276.998 619.001c-59.333 0 -103.001 13.167 -131.001 39.5s-42 62.5 -42 108.5h53c0 -38 10.333 -64.833 31 -80.5s50.334 -23.5 89.001 -23.5c38 0 67.5 7.83301 88.5 23.5s31.5 42.5 31.5 80.5h53
c0 -46 -14 -82.167 -42 -108.5s-71.667 -39.5 -131 -39.5z" />
    <glyph glyph-name="Edotaccent" unicode="&#x116;" horiz-adv-x="606" 
d="M320 816c-31.333 0 -47 15.333 -47 46c0 31.333 15.667 47 47 47c14.667 0 26.334 -3.66699 35.001 -11s13 -19.333 13 -36c0 -16 -4.33301 -27.667 -13 -35s-20.334 -11 -35.001 -11zM93 740h453v-59h-385v-276h361v-58h-361v-288h393v-59h-461v740z" />
    <glyph glyph-name="edotaccent" unicode="&#x117;" horiz-adv-x="532" 
d="M294 -9c-80 0 -140.502 22.833 -181.502 68.5s-61.5 112.834 -61.5 201.501c0 93.333 20.167 164.666 60.5 213.999s98.833 74 175.5 74c64.667 0 113.667 -20.167 147 -60.5s50 -99.833 50 -178.5c0 -15.333 -0.333008 -28.333 -1 -39s-2 -19.667 -4 -27h-362
c3.33301 -67.333 19.833 -116.833 49.5 -148.5s74.834 -47.5 135.501 -47.5c24.667 0 50.334 2.33301 77.001 7s54 12 82 22l5 -54c-25.333 -10 -53.333 -17.833 -84 -23.5s-60 -8.5 -88 -8.5zM284.998 495c-104 0 -159.667 -66.999 -167 -200.999h303
c0 71.333 -11 122.666 -33 153.999s-56.333 47 -103 47zM277.998 652.001c-31.333 0 -47 15.667 -47 47c0 30.667 15.667 46 47 46c14.667 0 26.334 -3.66699 35.001 -11s13 -19 13 -35c0 -16.667 -4.33301 -28.667 -13 -36s-20.334 -11 -35.001 -11z" />
    <glyph glyph-name="Eogonek" unicode="&#x118;" horiz-adv-x="606" 
d="M93 740h452.999v-59h-385v-276h361v-58h-361v-288h393v-79c-40.667 -19.333 -70.167 -38.333 -88.5 -57s-27.5 -38.334 -27.5 -59.001c0 -26 16.333 -39 49 -39c20.667 0 42.667 3.66699 66 11v-44c-9.33301 -4 -20.166 -7 -32.499 -9s-24.833 -3 -37.5 -3
c-64 0 -96 27 -96 81c0 12.667 2 24.834 6 36.501s10.5 23 19.5 34s20.5 22.167 34.5 33.5s31.333 23 52 35h-406v740z" />
    <glyph glyph-name="eogonek" unicode="&#x119;" horiz-adv-x="533" 
d="M294 -9c-80 0 -140.504 22.834 -181.504 68.501s-61.5 112.834 -61.5 201.501c0 93.333 20.167 164.666 60.5 213.999s98.833 74 175.5 74c64.667 0 113.667 -20.167 147 -60.5s50 -99.833 50 -178.5c0 -15.333 -0.333008 -28.333 -1 -39s-2 -19.667 -4 -27h-362
c3.33301 -67.333 19.833 -116.833 49.5 -148.5s74.834 -47.5 135.501 -47.5c24.667 0 50.334 2.33301 77.001 7s54 12 82 22l5 -54v-20c-40.667 -19.333 -70.167 -38.333 -88.5 -57s-27.5 -38.334 -27.5 -59.001c0 -26 16.333 -39 49 -39c20.667 0 42.667 3.66699 66 11v-44
c-9.33301 -4 -20.166 -7 -32.499 -9s-24.833 -3 -37.5 -3c-64 0 -96 27 -96 81c0 21.333 5.5 40.833 16.5 58.5s29.833 36.167 56.5 55.5c-13.333 -2.66699 -26.666 -4.5 -39.999 -5.5s-26 -1.5 -38 -1.5zM284.996 495.001c-104 0 -159.667 -66.999 -167 -200.999h303
c0 71.333 -11 122.666 -33 153.999s-56.333 47 -103 47z" />
    <glyph glyph-name="Ecaron" unicode="&#x11a;" horiz-adv-x="606" 
d="M165 943l157 -73l157 73v-59l-157 -74l-157 74v59zM93 740h453v-59h-385v-276h361v-58h-361v-288h393v-59h-461v740z" />
    <glyph glyph-name="ecaron" unicode="&#x11b;" horiz-adv-x="532" 
d="M122 758l157 -73l157 73v-59l-157 -73l-157 73v59zM294 -9c-80 0 -140.502 22.833 -181.502 68.5s-61.5 112.834 -61.5 201.501c0 93.333 20.167 164.666 60.5 213.999s98.833 74 175.5 74c64.667 0 113.667 -20.167 147 -60.5s50 -99.833 50 -178.5
c0 -15.333 -0.333008 -28.333 -1 -39s-2 -19.667 -4 -27h-362c3.33301 -67.333 19.833 -116.833 49.5 -148.5s74.834 -47.5 135.501 -47.5c24.667 0 50.334 2.33301 77.001 7s54 12 82 22l5 -54c-25.333 -10 -53.333 -17.833 -84 -23.5s-60 -8.5 -88 -8.5zM284.998 495
c-104 0 -159.667 -66.999 -167 -200.999h303c0 71.333 -11 122.666 -33 153.999s-56.333 47 -103 47z" />
    <glyph glyph-name="Gcircumflex" unicode="&#x11c;" horiz-adv-x="651" 
d="M389 -9c-223.333 1.33301 -335.001 126.999 -335.001 376.999c0 254.667 114.667 382 344 382c28 0 57.167 -2.16699 87.5 -6.5s61.5 -10.5 93.5 -18.5v-60c-20 4.66699 -37.833 8.5 -53.5 11.5s-30.5 5.5 -44.5 7.5s-27.333 3.33301 -40 4s-25.667 1 -39 1
c-94.667 0 -164.667 -26.167 -210 -78.5s-68 -132.833 -68 -241.5c0 -212 88.333 -318 265 -318c16.667 0 37.334 1.33301 62.001 4s47.667 6 69 10v311h65v-355c-32 -9.33301 -65.667 -16.666 -101 -21.999s-67 -8 -95 -8zM200.999 873.999l157 73l157 -73v-60l-157 74
l-157 -74v60z" />
    <glyph glyph-name="gcircumflex" unicode="&#x11d;" horiz-adv-x="590" 
d="M151 694l156 74l157 -74v-58l-156 73l-157 -73v58zM259 -219c-30 0 -59.667 2.00195 -89 6.00195s-56.333 9.66699 -81 17l5 56c25.333 -7.33301 51.5 -13.166 78.5 -17.499s54.167 -6.5 81.5 -6.5c28.667 0 54.834 3.33301 78.501 10s44 18 61 34
s30.167 37.167 39.5 63.5s14 59.166 14 98.499v31h-5c-19.333 -25.333 -43 -44.5 -71 -57.5s-60.667 -19.5 -98 -19.5c-72.667 0 -128 22 -166 66s-57 113 -57 207c0 47.333 6.16699 88.666 18.5 123.999s29.833 64.666 52.5 87.999s49.834 40.666 81.501 51.999
s67.167 17 106.5 17c31.333 0 64.333 -1.83301 99 -5.5s69 -10.167 103 -19.5v-475c0 -53.333 -6.66699 -97.166 -20 -131.499s-31.333 -61.833 -54 -82.5s-49.334 -35 -80.001 -43s-63.334 -12 -98.001 -12zM285 52.002c20.667 0 40.665 2.83301 59.998 8.5
s36.333 14 51 25s26.334 24 35.001 39s13 32.167 13 51.5v308c-19.333 3.33301 -40.5 6 -63.5 8s-47.167 3 -72.5 3c-61.333 0 -108.166 -17.5 -140.499 -52.5s-48.5 -91.833 -48.5 -170.5c0 -78 13.5 -134.167 40.5 -168.5s68.833 -51.5 125.5 -51.5z" />
    <glyph glyph-name="Gbreve" unicode="&#x11e;" horiz-adv-x="651" 
d="M360 814c-56.667 0 -99.5 12.833 -128.5 38.5s-43.5 60.5 -43.5 104.5h53c0 -30.667 10.167 -54.5 30.5 -71.5s49.833 -25.5 88.5 -25.5c38 0 67.167 8.5 87.5 25.5s30.5 40.833 30.5 71.5h54c0 -44 -14.5 -78.833 -43.5 -104.5s-71.833 -38.5 -128.5 -38.5zM389 -9
c-223.333 1.33301 -335.001 126.999 -335.001 376.999c0 254.667 114.667 382 344 382c28 0 57.167 -2.16699 87.5 -6.5s61.5 -10.5 93.5 -18.5v-60c-20 4.66699 -37.833 8.5 -53.5 11.5s-30.5 5.5 -44.5 7.5s-27.333 3.33301 -40 4s-25.667 1 -39 1
c-94.667 0 -164.667 -26.167 -210 -78.5s-68 -132.833 -68 -241.5c0 -212 88.333 -318 265 -318c16.667 0 37.334 1.33301 62.001 4s47.667 6 69 10v311h65v-355c-32 -9.33301 -65.667 -16.666 -101 -21.999s-67 -8 -95 -8z" />
    <glyph glyph-name="gbreve" unicode="&#x11f;" horiz-adv-x="590" 
d="M259 -219c-30 0 -59.667 2.00195 -89 6.00195s-56.333 9.66699 -81 17l5 56c25.333 -7.33301 51.5 -13.166 78.5 -17.499s54.167 -6.5 81.5 -6.5c28.667 0 54.834 3.33301 78.501 10s44 18 61 34s30.167 37.167 39.5 63.5s14 59.166 14 98.499v31h-5
c-19.333 -25.333 -43 -44.5 -71 -57.5s-60.667 -19.5 -98 -19.5c-72.667 0 -128 22 -166 66s-57 113 -57 207c0 47.333 6.16699 88.666 18.5 123.999s29.833 64.666 52.5 87.999s49.834 40.666 81.501 51.999s67.167 17 106.5 17c31.333 0 64.333 -1.83301 99 -5.5
s69 -10.167 103 -19.5v-475c0 -53.333 -6.66699 -97.166 -20 -131.499s-31.333 -61.833 -54 -82.5s-49.334 -35 -80.001 -43s-63.334 -12 -98.001 -12zM285 52.002c20.667 0 40.665 2.83301 59.998 8.5s36.333 14 51 25s26.334 24 35.001 39s13 32.167 13 51.5v308
c-19.333 3.33301 -40.5 6 -63.5 8s-47.167 3 -72.5 3c-61.333 0 -108.166 -17.5 -140.499 -52.5s-48.5 -91.833 -48.5 -170.5c0 -78 13.5 -134.167 40.5 -168.5s68.833 -51.5 125.5 -51.5zM304.998 619.002c-59.333 0 -103.001 13.167 -131.001 39.5s-42 62.5 -42 108.5h53
c0 -38 10.333 -64.833 31 -80.5s50.334 -23.5 89.001 -23.5c38 0 67.5 7.83301 88.5 23.5s31.5 42.5 31.5 80.5h53c0 -46 -14 -82.167 -42 -108.5s-71.667 -39.5 -131 -39.5z" />
    <glyph glyph-name="Gdotaccent" unicode="&#x120;" horiz-adv-x="651" 
d="M360 816c-31.333 0 -47 15.333 -47 46c0 31.333 15.667 47 47 47c14.667 0 26.334 -3.66699 35.001 -11s13 -19.333 13 -36c0 -16 -4.33301 -27.667 -13 -35s-20.334 -11 -35.001 -11zM389 -9c-223.333 1.33301 -335.001 126.999 -335.001 376.999
c0 254.667 114.667 382 344 382c28 0 57.167 -2.16699 87.5 -6.5s61.5 -10.5 93.5 -18.5v-60c-20 4.66699 -37.833 8.5 -53.5 11.5s-30.5 5.5 -44.5 7.5s-27.333 3.33301 -40 4s-25.667 1 -39 1c-94.667 0 -164.667 -26.167 -210 -78.5s-68 -132.833 -68 -241.5
c0 -212 88.333 -318 265 -318c16.667 0 37.334 1.33301 62.001 4s47.667 6 69 10v311h65v-355c-32 -9.33301 -65.667 -16.666 -101 -21.999s-67 -8 -95 -8z" />
    <glyph glyph-name="gdotaccent" unicode="&#x121;" horiz-adv-x="590" 
d="M259 -219c-30 0 -59.667 2.00195 -89 6.00195s-56.333 9.66699 -81 17l5 56c25.333 -7.33301 51.5 -13.166 78.5 -17.499s54.167 -6.5 81.5 -6.5c28.667 0 54.834 3.33301 78.501 10s44 18 61 34s30.167 37.167 39.5 63.5s14 59.166 14 98.499v31h-5
c-19.333 -25.333 -43 -44.5 -71 -57.5s-60.667 -19.5 -98 -19.5c-72.667 0 -128 22 -166 66s-57 113 -57 207c0 47.333 6.16699 88.666 18.5 123.999s29.833 64.666 52.5 87.999s49.834 40.666 81.501 51.999s67.167 17 106.5 17c31.333 0 64.333 -1.83301 99 -5.5
s69 -10.167 103 -19.5v-475c0 -53.333 -6.66699 -97.166 -20 -131.499s-31.333 -61.833 -54 -82.5s-49.334 -35 -80.001 -43s-63.334 -12 -98.001 -12zM285 52.002c20.667 0 40.665 2.83301 59.998 8.5s36.333 14 51 25s26.334 24 35.001 39s13 32.167 13 51.5v308
c-19.333 3.33301 -40.5 6 -63.5 8s-47.167 3 -72.5 3c-61.333 0 -108.166 -17.5 -140.499 -52.5s-48.5 -91.833 -48.5 -170.5c0 -78 13.5 -134.167 40.5 -168.5s68.833 -51.5 125.5 -51.5zM304.998 652.002c-31.333 0 -47 15.667 -47 47c0 30.667 15.667 46 47 46
c14.667 0 26.334 -3.66699 35.001 -11s13 -19 13 -35c0 -16.667 -4.33301 -28.667 -13 -36s-20.334 -11 -35.001 -11z" />
    <glyph glyph-name="Gcommaaccent" unicode="&#x122;" horiz-adv-x="651" 
d="M334 -69h70l-62 -151h-57zM389 -9c-223.333 1.33301 -335.001 126.999 -335.001 376.999c0 254.667 114.667 382 344 382c28 0 57.167 -2.16699 87.5 -6.5s61.5 -10.5 93.5 -18.5v-60c-20 4.66699 -37.833 8.5 -53.5 11.5s-30.5 5.5 -44.5 7.5s-27.333 3.33301 -40 4
s-25.667 1 -39 1c-94.667 0 -164.667 -26.167 -210 -78.5s-68 -132.833 -68 -241.5c0 -212 88.333 -318 265 -318c16.667 0 37.334 1.33301 62.001 4s47.667 6 69 10v311h65v-355c-32 -9.33301 -65.667 -16.666 -101 -21.999s-67 -8 -95 -8z" />
    <glyph glyph-name="gcommaaccent" unicode="&#x123;" horiz-adv-x="590" 
d="M420 797l-49 -150h-70l62 150h57zM259 -219c-30 0 -59.667 2.00195 -89 6.00195s-56.333 9.66699 -81 17l5 56c25.333 -7.33301 51.5 -13.166 78.5 -17.499s54.167 -6.5 81.5 -6.5c28.667 0 54.834 3.33301 78.501 10s44 18 61 34s30.167 37.167 39.5 63.5
s14 59.166 14 98.499v31h-5c-19.333 -25.333 -43 -44.5 -71 -57.5s-60.667 -19.5 -98 -19.5c-72.667 0 -128 22 -166 66s-57 113 -57 207c0 47.333 6.16699 88.666 18.5 123.999s29.833 64.666 52.5 87.999s49.834 40.666 81.501 51.999s67.167 17 106.5 17
c31.333 0 64.333 -1.83301 99 -5.5s69 -10.167 103 -19.5v-475c0 -53.333 -6.66699 -97.166 -20 -131.499s-31.333 -61.833 -54 -82.5s-49.334 -35 -80.001 -43s-63.334 -12 -98.001 -12zM285 52.002c20.667 0 40.665 2.83301 59.998 8.5s36.333 14 51 25
s26.334 24 35.001 39s13 32.167 13 51.5v308c-19.333 3.33301 -40.5 6 -63.5 8s-47.167 3 -72.5 3c-61.333 0 -108.166 -17.5 -140.499 -52.5s-48.5 -91.833 -48.5 -170.5c0 -78 13.5 -134.167 40.5 -168.5s68.833 -51.5 125.5 -51.5z" />
    <glyph glyph-name="Hcircumflex" unicode="&#x124;" horiz-adv-x="754" 
d="M93 740h68v-332h433v332h67v-740h-67v350h-433v-350h-68v740zM213 874l157 73l157 -73v-60l-157 74l-157 -74v60z" />
    <glyph glyph-name="hcircumflex" unicode="&#x125;" horiz-adv-x="591" 
d="M155 895l156 74l157 -74v-58l-156 73l-157 -73v58zM79 808l66.998 0.000976562v-331c26.667 12.667 50.834 23.667 72.501 33s41.5 17 59.5 23s35 10.333 51 13s31.667 4 47 4c46 0 80.667 -11.833 104 -35.5s35 -60.834 35 -111.501v-403h-66v380
c0 40 -7.83301 68.5 -23.5 85.5s-39.5 25.5 -71.5 25.5c-27.333 0 -58.666 -5.66699 -93.999 -17s-73.333 -27.333 -114 -48v-426h-67v808z" />
    <glyph glyph-name="Hbar" unicode="&#x126;" horiz-adv-x="770" 
d="M7 591h94v149h68v-149h433v149h67v-149h95v-44h-95v-547h-67v350h-433v-350h-68v547h-94v44zM602 408v139h-433v-139h433z" />
    <glyph glyph-name="hbar" unicode="&#x127;" horiz-adv-x="591" 
d="M-18 697l96.998 0.000976562v111h67v-111h174v-47h-174v-173c26.667 12.667 50.834 23.667 72.501 33s41.5 17 59.5 23s35 10.333 51 13s31.667 4 47 4c46 0 80.667 -11.833 104 -35.5s35 -60.834 35 -111.501v-403h-66v380c0 40 -7.83301 68.5 -23.5 85.5
s-39.5 25.5 -71.5 25.5c-27.333 0 -58.666 -5.66699 -93.999 -17s-73.333 -27.333 -114 -48v-426h-67v650h-97v47z" />
    <glyph glyph-name="Itilde" unicode="&#x128;" horiz-adv-x="254" 
d="M93 740h68v-740h-68v740zM-59 862c17.333 20.667 36.333 36.498 57 47.498s41.334 16.5 62.001 16.5c15.333 0 29.666 -2.16699 42.999 -6.5s26.333 -9.16602 39 -14.499s25.5 -10.166 38.5 -14.499s26.5 -6.5 40.5 -6.5c30.667 0 60 13 88 39l24 -26
c-16 -20.667 -34.833 -36.667 -56.5 -48s-43.5 -17 -65.5 -17c-14 0 -27.667 2.16699 -41 6.5s-26.5 9 -39.5 14s-26 9.66699 -39 14s-26.167 6.5 -39.5 6.5c-14.667 0 -29.167 -2.83301 -43.5 -8.5s-28.833 -15.167 -43.5 -28.5z" />
    <glyph glyph-name="itilde" unicode="&#x129;" horiz-adv-x="228" 
d="M-78 678c17.333 21.333 35.998 37.3311 55.998 47.998s40 16 60 16c15.333 0 29.5 -2.16699 42.5 -6.5s25.833 -9.16602 38.5 -14.499s25.334 -10.166 38.001 -14.499s26 -6.5 40 -6.5c30.667 0 59 12.667 85 38l25 -26c-16 -20.667 -34.667 -36.667 -56 -48
s-42.666 -17 -63.999 -17c-14 0 -27.5 2.16699 -40.5 6.5s-26 9.33301 -39 15s-25.833 10.667 -38.5 15s-25.334 6.5 -38.001 6.5c-29.333 0 -57.666 -12.667 -84.999 -38zM79.998 539.998h67v-540h-67v540z" />
    <glyph glyph-name="Imacron" unicode="&#x12a;" horiz-adv-x="254" 
d="M93 740h68v-740h-68v740zM-24 895h303v-53h-303v53z" />
    <glyph glyph-name="imacron" unicode="&#x12b;" horiz-adv-x="228" 
d="M80 540h67v-540h-67v540zM-35 703h308v-53h-308v53z" />
    <glyph glyph-name="Ibreve" unicode="&#x12c;" horiz-adv-x="254" 
d="M93 740h68v-740h-68v740zM128 814c-56.667 0 -99.5 12.833 -128.5 38.5s-43.5 60.5 -43.5 104.5h53c0 -30.667 10.167 -54.5 30.5 -71.5s49.833 -25.5 88.5 -25.5c38 0 67.167 8.5 87.5 25.5s30.5 40.833 30.5 71.5h54c0 -44 -14.5 -78.833 -43.5 -104.5
s-71.833 -38.5 -128.5 -38.5z" />
    <glyph glyph-name="ibreve" unicode="&#x12d;" horiz-adv-x="228" 
d="M115 619c-55.333 0 -96.332 13.167 -122.999 39.5s-40.334 62.5 -41.001 108.5h49c-0 -38 9.83301 -64.833 29.5 -80.5s48.167 -23.5 85.5 -23.5s66 7.83301 86 23.5s30 42.5 30 80.5h48c0 -46 -13.167 -82.167 -39.5 -108.5s-67.833 -39.5 -124.5 -39.5zM80.001 540h67
v-540h-67v540z" />
    <glyph glyph-name="Iogonek" unicode="&#x12e;" horiz-adv-x="254" 
d="M93 740h67.999v-760c-40.667 -19.333 -70.167 -38.333 -88.5 -57s-27.5 -38.334 -27.5 -59.001c0 -26 16.333 -39 49 -39c20.667 0 42.667 3.66699 66 11v-44c-9.33301 -4 -20.166 -7 -32.499 -9s-24.833 -3 -37.5 -3c-64 0 -96 27 -96 81c0 12.667 2 24.834 6 36.501
s10.5 23 19.5 34s20.5 22.167 34.5 33.5s31.333 23 52 35h-13v740z" />
    <glyph glyph-name="iogonek" unicode="&#x12f;" horiz-adv-x="228" 
d="M80 540h66.999v-560c-40.667 -19.333 -70.167 -38.333 -88.5 -57s-27.5 -38.334 -27.5 -59.001c0 -26 16.333 -39 49 -39c20.667 0 42.667 3.66699 66 11v-44c-9.33301 -4 -20.166 -7 -32.499 -9s-24.833 -3 -37.5 -3c-64 0 -96 27 -96 81c0 12.667 2 24.834 6 36.501
s10.5 23 19.5 34s20.5 22.167 34.5 33.5s31.333 23 52 35h-12v540zM113.999 661c-30 0 -45 14.667 -45 44s15 44 45 44s45 -14.667 45 -44s-15 -44 -45 -44z" />
    <glyph glyph-name="Idotaccent" unicode="&#x130;" horiz-adv-x="254" 
d="M93 740h68v-740h-68v740zM128 816c-31.333 0 -47 15.333 -47 46c0 31.333 15.667 47 47 47c14.667 0 26.334 -3.66699 35.001 -11s13 -19.333 13 -36c0 -16 -4.33301 -27.667 -13 -35s-20.334 -11 -35.001 -11z" />
    <glyph glyph-name="dotlessi" unicode="&#x131;" horiz-adv-x="228" 
d="M80 540h67v-540h-67v540z" />
    <glyph glyph-name="IJ" unicode="&#x132;" horiz-adv-x="507" 
d="M93 740h68v-740h-68v740zM270 -160c15.333 32 28.001 61.666 38.001 88.999s18 54.166 24 80.499s10.333 53.5 13 81.5s4 59 4 93v556h68v-560c0 -32.667 -1.66699 -63.167 -5 -91.5s-9 -56.666 -17 -84.999s-18.333 -57.666 -31 -87.999s-28.334 -63.5 -47.001 -99.5z
" />
    <glyph glyph-name="ij" unicode="&#x133;" horiz-adv-x="453" 
d="M114 661c-30 0 -45 14.667 -45 44s15 44 45 44s45 -14.667 45 -44s-15 -44 -45 -44zM80 540h67v-540h-67v540zM338 661c-30 0 -45 14.667 -45 44s15 44 45 44s45 -14.667 45 -44s-15 -44 -45 -44zM236 -200c12.667 23.333 23.501 46.999 32.501 70.999
s16.5 48.833 22.5 74.5s10.333 53 13 82s4 60.167 4 93.5v419h66v-451c0 -55.333 -7.83301 -109.166 -23.5 -161.499s-37.834 -101.5 -66.501 -147.5z" />
    <glyph glyph-name="Jcircumflex" unicode="&#x134;" horiz-adv-x="253" 
d="M16 -160c15.333 32 28.001 61.666 38.001 88.999s18 54.166 24 80.499s10.333 53.5 13 81.5s4 59 4 93v556h68v-560c0 -32.667 -1.66699 -63.167 -5 -91.5s-9 -56.666 -17 -84.999s-18.333 -57.666 -31 -87.999s-28.334 -63.5 -47.001 -99.5zM-26.999 873.999l157 73
l157 -73v-60l-157 74l-157 -74v60z" />
    <glyph glyph-name="jcircumflex" unicode="&#x135;" horiz-adv-x="225" 
d="M-42 698l153 73l155 -73v-59l-154 73l-154 -73v59zM8 -200c12.667 23.333 23.501 46.999 32.501 70.999s16.5 48.833 22.5 74.5s10.333 53 13 82s4 60.167 4 93.5v419h66v-451c0 -55.333 -7.83301 -109.166 -23.5 -161.499s-37.834 -101.5 -66.501 -147.5z" />
    <glyph glyph-name="Kcommaaccent" unicode="&#x136;" horiz-adv-x="652" 
d="M308 -69h70l-62 -151h-57zM93 740h68v-333h150l237 333h79l-238 -332l-29 -25v-6l32 -24l253 -353h-79l-248 348h-157v-348h-68v740z" />
    <glyph glyph-name="kcommaaccent" unicode="&#x137;" horiz-adv-x="535" 
d="M268 -69h70l-62 -151h-57zM79 808h67v-506h102l192 238h77l-206 -253l-17 -9v-3l18 -10l221 -265h-77l-210 252h-100v-252h-67v808z" />
    <glyph glyph-name="kgreenlandic" unicode="&#x138;" horiz-adv-x="540" 
d="M79 540h67v-238h139l156 238h76l-171 -253l-17 -9v-3l18 -10l186 -265h-75l-175 252h-137v-252h-67v540z" />
    <glyph glyph-name="Lacute" unicode="&#x139;" horiz-adv-x="518" 
d="M100 806l76 133h71l-93 -139zM93 740h68v-682h343v-58h-411v740z" />
    <glyph glyph-name="lacute" unicode="&#x13a;" horiz-adv-x="231" 
d="M92 845l73 184h69l-94 -190zM82 808h67v-808h-67v808z" />
    <glyph glyph-name="Lcommaaccent" unicode="&#x13b;" horiz-adv-x="518" 
d="M270 -69h70l-62 -151h-57zM93 740h68v-682h343v-58h-411v740z" />
    <glyph glyph-name="lcommaaccent" unicode="&#x13c;" horiz-adv-x="231" 
d="M92 -69h70l-62 -151h-57zM82 808h67v-808h-67v808z" />
    <glyph glyph-name="Lcaron" unicode="&#x13d;" horiz-adv-x="522" 
d="M390 752h59l-26 -228h-33v228zM93 740h68v-682h343v-58h-411v740z" />
    <glyph glyph-name="lcaron" unicode="&#x13e;" horiz-adv-x="231" 
d="M222 808h59l-26 -228h-33v228zM82 808h67v-808h-67v808z" />
    <glyph glyph-name="Ldot" unicode="&#x13f;" horiz-adv-x="524" 
d="M93 740h68v-682h343v-58h-411v740zM422 328c-15.333 0 -27 3.5 -35 10.5s-12 18.833 -12 35.5c0 31.333 15.667 47 47 47c14.667 0 26.334 -3.66699 35.001 -11s13 -19.333 13 -36c0 -16 -4.33301 -27.667 -13 -35s-20.334 -11 -35.001 -11z" />
    <glyph glyph-name="ldot" unicode="&#x140;" horiz-adv-x="279" 
d="M82 808h67v-808h-67v808zM255 324c-15.333 0 -27 3.5 -35 10.5s-12 18.833 -12 35.5c0 31.333 15.667 47 47 47c14.667 0 26.334 -3.66699 35.001 -11s13 -19.333 13 -36c0 -16 -4.33301 -27.667 -13 -35s-20.334 -11 -35.001 -11z" />
    <glyph glyph-name="Lslash" unicode="&#x141;" horiz-adv-x="539" 
d="M16 286l99 64v390h68v-346l164 107v-61l-164 -107v-275h343v-58h-411v288l-99 -64v62z" />
    <glyph glyph-name="lslash" unicode="&#x142;" horiz-adv-x="301" 
d="M25 319l93 60v429h67v-386l99 64v-58l-99 -64v-364h-67v320l-93 -60v59z" />
    <glyph glyph-name="Nacute" unicode="&#x143;" horiz-adv-x="772" 
d="M349 806l76 133h71l-93 -139zM93 740h61l397 -546l60 -88h5v634h63v-740h-62l-399 548l-57 85h-5v-633h-63v740z" />
    <glyph glyph-name="nacute" unicode="&#x144;" horiz-adv-x="591" 
d="M278 616l73 184h69l-94 -190zM79 540l56 0.000976562l5 -63h5c26.667 12.667 51 23.667 73 33s42.167 17 60.5 23s35.333 10.333 51 13s31.167 4 46.5 4c46 0 80.667 -11.833 104 -35.5s35 -60.834 35 -111.501v-403h-66v380c0 40 -7.83301 68.5 -23.5 85.5
s-39.5 25.5 -71.5 25.5c-28 0 -59.667 -5.83301 -95 -17.5s-73 -27.5 -113 -47.5v-426h-67v540z" />
    <glyph glyph-name="Ncommaaccent" unicode="&#x145;" horiz-adv-x="772" 
d="M369 -69h70l-62 -151h-57zM93 740h61l397 -546l60 -88h5v634h63v-740h-62l-399 548l-57 85h-5v-633h-63v740z" />
    <glyph glyph-name="ncommaaccent" unicode="&#x146;" horiz-adv-x="591" 
d="M271 -69h70l-62 -151h-57zM79 540l56 0.000976562l5 -63h5c26.667 12.667 51 23.667 73 33s42.167 17 60.5 23s35.333 10.333 51 13s31.167 4 46.5 4c46 0 80.667 -11.833 104 -35.5s35 -60.834 35 -111.501v-403h-66v380c0 40 -7.83301 68.5 -23.5 85.5
s-39.5 25.5 -71.5 25.5c-28 0 -59.667 -5.83301 -95 -17.5s-73 -27.5 -113 -47.5v-426h-67v540z" />
    <glyph glyph-name="Ncaron" unicode="&#x147;" horiz-adv-x="772" 
d="M231 943l157 -73l157 73v-59l-157 -74l-157 74v59zM93 740h61l397 -546l60 -88h5v634h63v-740h-62l-399 548l-57 85h-5v-633h-63v740z" />
    <glyph glyph-name="ncaron" unicode="&#x148;" horiz-adv-x="591" 
d="M142 758l157 -73l157 73v-59l-157 -73l-157 73v59zM79 540l56 0.000976562l5 -63h5c26.667 12.667 51 23.667 73 33s42.167 17 60.5 23s35.333 10.333 51 13s31.167 4 46.5 4c46 0 80.667 -11.833 104 -35.5s35 -60.834 35 -111.501v-403h-66v380
c0 40 -7.83301 68.5 -23.5 85.5s-39.5 25.5 -71.5 25.5c-28 0 -59.667 -5.83301 -95 -17.5s-73 -27.5 -113 -47.5v-426h-67v540z" />
    <glyph glyph-name="napostrophe" unicode="&#x149;" horiz-adv-x="657" 
d="M101 808v-4l-29 -224h-33v228h62zM145 540l56 0.000976562l5 -63h5c26.667 12.667 51 23.667 73 33s42.167 17 60.5 23s35.333 10.333 51 13s31.167 4 46.5 4c46 0 80.667 -11.833 104 -35.5s35 -60.834 35 -111.501v-403h-66v380c0 40 -7.83301 68.5 -23.5 85.5
s-39.5 25.5 -71.5 25.5c-28 0 -59.667 -5.83301 -95 -17.5s-73 -27.5 -113 -47.5v-426h-67v540z" />
    <glyph glyph-name="Eng" unicode="&#x14a;" horiz-adv-x="771" 
d="M536 -173c8.66699 15.333 16.666 31.5 23.999 48.5s14 33.833 20 50.5s11.167 32.834 15.5 48.501s7.5 30.167 9.5 43.5l-386 530l-57 86l-6 -1v-633h-63v740h59l398 -546l60 -89h6v635h63v-662c0 -18.667 -2.33301 -39.5 -7 -62.5s-11.167 -46.5 -19.5 -70.5
s-18.166 -47.333 -29.499 -70s-23.333 -43.334 -36 -62.001z" />
    <glyph glyph-name="eng" unicode="&#x14b;" horiz-adv-x="590" 
d="M382 -204c10 20 19 42 27 66s15 48.833 21 74.5s10.667 51.667 14 78s5 52.166 5 77.499v280c0 42 -7.16699 71.667 -21.5 89s-38.5 26 -72.5 26c-54 0 -123.667 -21.333 -209 -64v-423h-67v540h56l5 -62h4l74 33c22 9.33301 42.167 16.833 60.5 22.5
s35.333 9.83398 51 12.501s31.167 4 46.5 4c92.667 0 139 -49 139 -147v-329c0 -24.667 -2.16699 -50.667 -6.5 -78s-10.166 -54 -17.499 -80s-15.833 -50.667 -25.5 -74s-19.834 -43.333 -30.501 -60z" />
    <glyph glyph-name="Omacron" unicode="&#x14c;" horiz-adv-x="735" 
d="M214 895h303v-53h-303v53zM368 -10c-101.333 0 -179 31.833 -233 95.5s-81 158.167 -81 283.5s27 220.166 81 284.499s131.667 96.5 233 96.5c100 0 177.167 -32.167 231.5 -96.5s81.5 -159.166 81.5 -284.499c0 -124.667 -27.167 -219 -81.5 -283s-131.5 -96 -231.5 -96
zM368 49c80.667 0 141.5 26.833 182.5 80.5s61.5 133.5 61.5 239.5c0 107.333 -20.5 187.833 -61.5 241.5s-101.833 80.5 -182.5 80.5s-141.667 -26.833 -183 -80.5s-62 -134.167 -62 -241.5c0 -106.667 20.667 -186.667 62 -240s102.333 -80 183 -80z" />
    <glyph glyph-name="omacron" unicode="&#x14d;" horiz-adv-x="580" 
d="M137 703h308v-53h-308v53zM290 -10c-78 0 -137.5 24 -178.5 72s-61.5 117.333 -61.5 208s20.5 160 61.5 208s100.5 72 178.5 72s137.5 -24 178.5 -72s61.5 -117.333 61.5 -208s-20.5 -160 -61.5 -208s-100.5 -72 -178.5 -72zM290 47c58.667 0 102 18 130 54
s42 92.333 42 169s-14 133 -42 169s-71.333 54 -130 54s-102 -18 -130 -54s-42 -92.333 -42 -169c0 -76 14 -132.167 42 -168.5s71.333 -54.5 130 -54.5z" />
    <glyph glyph-name="Obreve" unicode="&#x14e;" horiz-adv-x="735" 
d="M367 814c-56.667 0 -99.5 12.833 -128.5 38.5s-43.5 60.5 -43.5 104.5h53c0 -30.667 10.167 -54.5 30.5 -71.5s49.833 -25.5 88.5 -25.5c38 0 67.167 8.5 87.5 25.5s30.5 40.833 30.5 71.5h54c0 -44 -14.5 -78.833 -43.5 -104.5s-71.833 -38.5 -128.5 -38.5zM368 -10
c-101.333 0 -179 31.833 -233 95.5s-81 158.167 -81 283.5s27 220.166 81 284.499s131.667 96.5 233 96.5c100 0 177.167 -32.167 231.5 -96.5s81.5 -159.166 81.5 -284.499c0 -124.667 -27.167 -219 -81.5 -283s-131.5 -96 -231.5 -96zM368 49
c80.667 0 141.5 26.833 182.5 80.5s61.5 133.5 61.5 239.5c0 107.333 -20.5 187.833 -61.5 241.5s-101.833 80.5 -182.5 80.5s-141.667 -26.833 -183 -80.5s-62 -134.167 -62 -241.5c0 -106.667 20.667 -186.667 62 -240s102.333 -80 183 -80z" />
    <glyph glyph-name="obreve" unicode="&#x14f;" horiz-adv-x="580" 
d="M290 -10c-78 0 -137.5 24 -178.5 72s-61.5 117.333 -61.5 208s20.5 160 61.5 208s100.5 72 178.5 72s137.5 -24 178.5 -72s61.5 -117.333 61.5 -208s-20.5 -160 -61.5 -208s-100.5 -72 -178.5 -72zM290 47c58.667 0 102 18 130 54s42 92.333 42 169s-14 133 -42 169
s-71.333 54 -130 54s-102 -18 -130 -54s-42 -92.333 -42 -169c0 -76 14 -132.167 42 -168.5s71.333 -54.5 130 -54.5zM287 619c-59.333 0 -103.001 13.167 -131.001 39.5s-42 62.5 -42 108.5h53c0 -38 10.333 -64.833 31 -80.5s50.334 -23.5 89.001 -23.5
c38 0 67.5 7.83301 88.5 23.5s31.5 42.5 31.5 80.5h53c0 -46 -14 -82.167 -42 -108.5s-71.667 -39.5 -131 -39.5z" />
    <glyph glyph-name="Ohungarumlaut" unicode="&#x150;" horiz-adv-x="735" 
d="M368 -10c-101.333 0 -179 31.833 -233 95.5s-81 158.167 -81 283.5s27 220.166 81 284.499s131.667 96.5 233 96.5c100 0 177.167 -32.167 231.5 -96.5s81.5 -159.166 81.5 -284.499c0 -124.667 -27.167 -219 -81.5 -283s-131.5 -96 -231.5 -96zM368 49
c80.667 0 141.5 26.833 182.5 80.5s61.5 133.5 61.5 239.5c0 107.333 -20.5 187.833 -61.5 241.5s-101.833 80.5 -182.5 80.5s-141.667 -26.833 -183 -80.5s-62 -134.167 -62 -241.5c0 -106.667 20.667 -186.667 62 -240s102.333 -80 183 -80zM258 807l75 125h69l-93 -138z
M404 807l76 125h69l-93 -138z" />
    <glyph glyph-name="ohungarumlaut" unicode="&#x151;" horiz-adv-x="580" 
d="M173 626l72 180h72l-96 -190zM350 626l72 180h72l-96 -190zM290 -10c-78 0 -137.5 24 -178.5 72s-61.5 117.333 -61.5 208s20.5 160 61.5 208s100.5 72 178.5 72s137.5 -24 178.5 -72s61.5 -117.333 61.5 -208s-20.5 -160 -61.5 -208s-100.5 -72 -178.5 -72zM290 47
c58.667 0 102 18 130 54s42 92.333 42 169s-14 133 -42 169s-71.333 54 -130 54s-102 -18 -130 -54s-42 -92.333 -42 -169c0 -76 14 -132.167 42 -168.5s71.333 -54.5 130 -54.5z" />
    <glyph glyph-name="OE" unicode="&#x152;" horiz-adv-x="958" 
d="M371 -8c-101.333 0 -179.5 31.833 -234.5 95.5s-82.5 157.5 -82.5 281.5c0 124.667 27.5 219 82.5 283s133.167 96 234.5 96c18.667 0 36.334 -0.5 53.001 -1.5s32.667 -3.16699 48 -6.5h424v-59h-358v-275h335v-59h-335v-288h366v-59h-432
c-30.667 -5.33301 -64.334 -8 -101.001 -8zM372 51c18 0 35.3311 0.666992 51.998 2s32.334 4 47.001 8v618c-15.333 4 -31.166 6.66699 -47.499 8s-33.5 2 -51.5 2c-82.667 0 -145 -26.667 -187 -80s-63 -133.333 -63 -240c0 -106 21 -185.5 63 -238.5
s104.333 -79.5 187 -79.5z" />
    <glyph glyph-name="oe" unicode="&#x153;" horiz-adv-x="946" 
d="M707 -9c-54 0 -98.4971 11.334 -133.497 34.001s-60.167 55 -75.5 97h-5c-16 -42 -41.167 -74.5 -75.5 -97.5s-76.833 -34.5 -127.5 -34.5c-78 0 -137.5 24 -178.5 72s-61.5 117.333 -61.5 208s20.5 160 61.5 208s100.5 72 178.5 72c52 0 95.167 -11.667 129.5 -35
s59.166 -57 74.499 -101h5c15.333 43.333 40 76.666 74 99.999s76.667 35 128 35c64 0 112.667 -20.333 146 -61s50 -99.334 50 -176.001c0 -15.333 -0.333008 -28.166 -1 -38.499s-2 -19.5 -4 -27.5h-362c4 -132 65 -198 183 -198c25.333 0 51.166 2.33301 77.499 7
s54.166 12 83.499 22l5 -54c-26 -10 -54.333 -17.833 -85 -23.5s-59.667 -8.5 -87 -8.5zM290.003 47.001c58.667 0 102 18 130 54s42 92.333 42 169s-14 133 -42 169s-71.333 54 -130 54s-102 -18 -130 -54s-42 -92.333 -42 -169c0 -76 14 -132.167 42 -168.5
s71.333 -54.5 130 -54.5zM834.003 292.001c-2 72.667 -13.5 124.667 -34.5 156s-54.5 47 -100.5 47c-106.667 0 -163 -67.667 -169 -203h304z" />
    <glyph glyph-name="Racute" unicode="&#x154;" horiz-adv-x="651" 
d="M365 284c-14 -2 -28.5 -3.33203 -43.5 -3.99902s-30.833 -1 -47.5 -1c-16 0 -33.667 0.666992 -53 2s-39.333 3 -60 5v-286h-68v735c60.667 10 119.334 15 176.001 15c113.333 0 195.833 -18.667 247.5 -56s77.5 -97 77.5 -179c0 -60 -13.333 -107.833 -40 -143.5
s-68.334 -60.834 -125.001 -75.501l187 -296h-76zM282 337.001c44 0 81.333 3.33496 112 10.002s55.667 17 75 31s33.5 32.333 42.5 55s13.5 50 13.5 82c0 62 -19.333 107 -58 135s-101.667 42 -189 42c-18.667 0 -38.667 -0.833008 -60 -2.5s-40.333 -3.83398 -57 -6.50098
v-337c10.667 -2.66699 27.5 -4.83398 50.5 -6.50098s46.5 -2.5 70.5 -2.5zM293 806.003l76 133h71l-93 -139z" />
    <glyph glyph-name="racute" unicode="&#x155;" horiz-adv-x="375" 
d="M191 616l73 184h69l-94 -190zM79 540l56 -0.00195312l5 -73h4c40 20.667 75.667 38.334 107 53.001s61.333 24.334 90 29.001h22v-65h-23c-30.667 -4 -62.667 -12.5 -96 -25.5s-66 -27.833 -98 -44.5v-414h-67v540z" />
    <glyph glyph-name="Rcommaaccent" unicode="&#x156;" horiz-adv-x="651" 
d="M309 -69h70l-62 -151h-57zM365 284c-14 -2 -28.5 -3.33203 -43.5 -3.99902s-30.833 -1 -47.5 -1c-16 0 -33.667 0.666992 -53 2s-39.333 3 -60 5v-286h-68v735c60.667 10 119.334 15 176.001 15c113.333 0 195.833 -18.667 247.5 -56s77.5 -97 77.5 -179
c0 -60 -13.333 -107.833 -40 -143.5s-68.334 -60.834 -125.001 -75.501l187 -296h-76zM282 337.001c44 0 81.333 3.33496 112 10.002s55.667 17 75 31s33.5 32.333 42.5 55s13.5 50 13.5 82c0 62 -19.333 107 -58 135s-101.667 42 -189 42
c-18.667 0 -38.667 -0.833008 -60 -2.5s-40.333 -3.83398 -57 -6.50098v-337c10.667 -2.66699 27.5 -4.83398 50.5 -6.50098s46.5 -2.5 70.5 -2.5z" />
    <glyph glyph-name="rcommaaccent" unicode="&#x157;" horiz-adv-x="375" 
d="M87 -69h70l-62 -151h-57zM79 540l56 -0.00195312l5 -73h4c40 20.667 75.667 38.334 107 53.001s61.333 24.334 90 29.001h22v-65h-23c-30.667 -4 -62.667 -12.5 -96 -25.5s-66 -27.833 -98 -44.5v-414h-67v540z" />
    <glyph glyph-name="Rcaron" unicode="&#x158;" horiz-adv-x="651" 
d="M171 943l157 -73l157 73v-59l-157 -74l-157 74v59zM365 284c-14 -2 -28.5 -3.33203 -43.5 -3.99902s-30.833 -1 -47.5 -1c-16 0 -33.667 0.666992 -53 2s-39.333 3 -60 5v-286h-68v735c60.667 10 119.334 15 176.001 15c113.333 0 195.833 -18.667 247.5 -56
s77.5 -97 77.5 -179c0 -60 -13.333 -107.833 -40 -143.5s-68.334 -60.834 -125.001 -75.501l187 -296h-76zM282 337.001c44 0 81.333 3.33496 112 10.002s55.667 17 75 31s33.5 32.333 42.5 55s13.5 50 13.5 82c0 62 -19.333 107 -58 135s-101.667 42 -189 42
c-18.667 0 -38.667 -0.833008 -60 -2.5s-40.333 -3.83398 -57 -6.50098v-337c10.667 -2.66699 27.5 -4.83398 50.5 -6.50098s46.5 -2.5 70.5 -2.5z" />
    <glyph glyph-name="rcaron" unicode="&#x159;" horiz-adv-x="375" 
d="M60 758l157 -73l157 73v-59l-157 -73l-157 73v59zM79 540l56 -0.00195312l5 -73h4c40 20.667 75.667 38.334 107 53.001s61.333 24.334 90 29.001h22v-65h-23c-30.667 -4 -62.667 -12.5 -96 -25.5s-66 -27.833 -98 -44.5v-414h-67v540z" />
    <glyph glyph-name="Sacute" unicode="&#x15a;" horiz-adv-x="566" 
d="M269 -11c-32 0 -68.332 2.83301 -108.999 8.5s-79.334 13.167 -116.001 22.5l2 59c36.667 -9.33301 75 -16.833 115 -22.5s75.333 -8.5 106 -8.5c60.667 0 107.167 11.833 139.5 35.5s48.5 57.5 48.5 101.5c0 24.667 -4.66699 45.5 -14 62.5s-22.166 31.333 -38.499 43
s-35.5 21.667 -57.5 30s-45.667 16.166 -71 23.499c-38.667 11.333 -71.667 23.5 -99 36.5s-49.666 27.833 -66.999 44.5s-30 35.667 -38 57s-12 46 -12 74c0 30 5.83301 57.333 17.5 82s28.167 45.834 49.5 63.501s47 31.167 77 40.5s63.667 14 101 14
c53.333 0 115.666 -8 186.999 -24l-2 -60c-31.333 8 -62.833 14.167 -94.5 18.5s-60.5 6.5 -86.5 6.5c-54.667 0 -98.167 -12.667 -130.5 -38s-48.5 -59.333 -48.5 -102c0 -19.333 3 -36.5 9 -51.5s15.833 -28.667 29.5 -41s31.667 -23.5 54 -33.5
s50.166 -19.667 83.499 -29c31.333 -9.33301 60.5 -19.333 87.5 -30s50.333 -24 70 -40s35.167 -35.5 46.5 -58.5s17 -51.5 17 -85.5c0 -64 -22 -113.167 -66 -147.5s-107.333 -51.5 -190 -51.5zM255.001 806l76 133h71l-93 -139z" />
    <glyph glyph-name="sacute" unicode="&#x15b;" horiz-adv-x="455" 
d="M201 616l73 184h69l-94 -190zM221 -11c-22.667 0 -46.8301 1.66406 -72.4971 4.99707s-59.5 9.33301 -101.5 18v57c31.333 -7.33301 61.166 -13.333 89.499 -18s55.166 -7 80.499 -7c42 0 74 8.5 96 25.5s33 41.5 33 73.5c0 16.667 -3 30.834 -9 42.501
s-14.167 21.5 -24.5 29.5s-22.833 14.5 -37.5 19.5s-30.334 9.16699 -47.001 12.5c-20 4 -40.333 8.66699 -61 14s-39.334 13.333 -56.001 24s-30.334 25.334 -41.001 44.001s-16 43.334 -16 74.001c0 46.667 16.833 83.334 50.5 110.001s80.167 40 139.5 40
c10 0 19.833 -0.333008 29.5 -1s20.167 -1.83398 31.5 -3.50098s23.833 -3.66699 37.5 -6s30.167 -5.5 49.5 -9.5l-3 -57c-32.667 7.33301 -59.667 12.5 -81 15.5s-41.333 4.5 -60 4.5c-42 0 -73.833 -7.83301 -95.5 -23.5s-32.5 -38.5 -32.5 -68.5
c0 -18 3.33301 -32.667 10 -44s16 -20.666 28 -27.999s25.833 -13 41.5 -17s32.5 -8 50.5 -12c22.667 -5.33301 43.834 -11.5 63.501 -18.5s36.834 -16.333 51.501 -28s26.167 -26.5 34.5 -44.5s12.5 -40.333 12.5 -67c0 -48.667 -16.833 -86.834 -50.5 -114.501
s-80.5 -41.5 -140.5 -41.5z" />
    <glyph glyph-name="Scircumflex" unicode="&#x15c;" horiz-adv-x="566" 
d="M269 -11c-32 0 -68.332 2.83301 -108.999 8.5s-79.334 13.167 -116.001 22.5l2 59c36.667 -9.33301 75 -16.833 115 -22.5s75.333 -8.5 106 -8.5c60.667 0 107.167 11.833 139.5 35.5s48.5 57.5 48.5 101.5c0 24.667 -4.66699 45.5 -14 62.5s-22.166 31.333 -38.499 43
s-35.5 21.667 -57.5 30s-45.667 16.166 -71 23.499c-38.667 11.333 -71.667 23.5 -99 36.5s-49.666 27.833 -66.999 44.5s-30 35.667 -38 57s-12 46 -12 74c0 30 5.83301 57.333 17.5 82s28.167 45.834 49.5 63.501s47 31.167 77 40.5s63.667 14 101 14
c53.333 0 115.666 -8 186.999 -24l-2 -60c-31.333 8 -62.833 14.167 -94.5 18.5s-60.5 6.5 -86.5 6.5c-54.667 0 -98.167 -12.667 -130.5 -38s-48.5 -59.333 -48.5 -102c0 -19.333 3 -36.5 9 -51.5s15.833 -28.667 29.5 -41s31.667 -23.5 54 -33.5
s50.166 -19.667 83.499 -29c31.333 -9.33301 60.5 -19.333 87.5 -30s50.333 -24 70 -40s35.167 -35.5 46.5 -58.5s17 -51.5 17 -85.5c0 -64 -22 -113.167 -66 -147.5s-107.333 -51.5 -190 -51.5zM134.001 874l157 73l157 -73v-60l-157 74l-157 -74v60z" />
    <glyph glyph-name="scircumflex" unicode="&#x15d;" horiz-adv-x="455" 
d="M70 694l156 74l157 -74v-58l-156 73l-157 -73v58zM221 -11c-22.667 0 -46.8301 1.66406 -72.4971 4.99707s-59.5 9.33301 -101.5 18v57c31.333 -7.33301 61.166 -13.333 89.499 -18s55.166 -7 80.499 -7c42 0 74 8.5 96 25.5s33 41.5 33 73.5
c0 16.667 -3 30.834 -9 42.501s-14.167 21.5 -24.5 29.5s-22.833 14.5 -37.5 19.5s-30.334 9.16699 -47.001 12.5c-20 4 -40.333 8.66699 -61 14s-39.334 13.333 -56.001 24s-30.334 25.334 -41.001 44.001s-16 43.334 -16 74.001c0 46.667 16.833 83.334 50.5 110.001
s80.167 40 139.5 40c10 0 19.833 -0.333008 29.5 -1s20.167 -1.83398 31.5 -3.50098s23.833 -3.66699 37.5 -6s30.167 -5.5 49.5 -9.5l-3 -57c-32.667 7.33301 -59.667 12.5 -81 15.5s-41.333 4.5 -60 4.5c-42 0 -73.833 -7.83301 -95.5 -23.5s-32.5 -38.5 -32.5 -68.5
c0 -18 3.33301 -32.667 10 -44s16 -20.666 28 -27.999s25.833 -13 41.5 -17s32.5 -8 50.5 -12c22.667 -5.33301 43.834 -11.5 63.501 -18.5s36.834 -16.333 51.501 -28s26.167 -26.5 34.5 -44.5s12.5 -40.333 12.5 -67c0 -48.667 -16.833 -86.834 -50.5 -114.501
s-80.5 -41.5 -140.5 -41.5z" />
    <glyph glyph-name="uni015E" unicode="&#x15e;" horiz-adv-x="566" 
d="M249 -220c-12.667 0 -26.332 1.00195 -40.999 3.00195s-28.667 5 -42 9v50c21.333 -7.33301 44 -11 68 -11c28 0 48 5.16699 60 15.5s18 27.166 18 50.499c0 14 -2.16699 28 -6.5 42s-12.166 30.667 -23.499 50h-13c-32 0 -68.333 2.83301 -109 8.5
s-79.334 13.167 -116.001 22.5l2 59c36.667 -9.33301 75 -16.833 115 -22.5s75.333 -8.5 106 -8.5c60.667 0 107.167 11.833 139.5 35.5s48.5 57.5 48.5 101.5c0 24.667 -4.66699 45.5 -14 62.5s-22.166 31.333 -38.499 43s-35.5 21.667 -57.5 30s-45.667 16.166 -71 23.499
c-38.667 11.333 -71.667 23.5 -99 36.5s-49.666 27.833 -66.999 44.5s-30 35.667 -38 57s-12 46 -12 74c0 30 5.83301 57.333 17.5 82s28.167 45.834 49.5 63.501s47 31.167 77 40.5s63.667 14 101 14c53.333 0 115.666 -8 186.999 -24l-2 -60
c-31.333 8 -62.833 14.167 -94.5 18.5s-60.5 6.5 -86.5 6.5c-54.667 0 -98.167 -12.667 -130.5 -38s-48.5 -59.333 -48.5 -102c0 -19.333 3 -36.5 9 -51.5s15.833 -28.667 29.5 -41s31.667 -23.5 54 -33.5s50.166 -19.667 83.499 -29c31.333 -9.33301 60.5 -19.333 87.5 -30
s50.333 -24 70 -40s35.167 -35.5 46.5 -58.5s17 -51.5 17 -85.5c0 -54.667 -16.333 -98.667 -49 -132s-80.334 -54 -143.001 -62c13.333 -23.333 22.333 -42.333 27 -57s7 -29.334 7 -44.001c0 -36 -10.167 -63.833 -30.5 -83.5s-49.5 -29.5 -87.5 -29.5z" />
    <glyph glyph-name="uni015F" unicode="&#x15f;" horiz-adv-x="455" 
d="M188 -220c-12.667 0 -26.3301 0.994141 -40.9971 2.99414s-28.667 5 -42 9v50c21.333 -7.33301 44 -11 68 -11c28 0 48 5.16699 60 15.5s18 27.166 18 50.499c0 14 -2.16699 28 -6.5 42s-12.166 30.667 -23.499 50c-22.667 0 -46.834 1.66699 -72.501 5
s-59.5 9.33301 -101.5 18v57c31.333 -7.33301 61.166 -13.333 89.499 -18s55.166 -7 80.499 -7c42 0 74 8.5 96 25.5s33 41.5 33 73.5c0 16.667 -3 30.834 -9 42.501s-14.167 21.5 -24.5 29.5s-22.833 14.5 -37.5 19.5s-30.334 9.16699 -47.001 12.5
c-20 4 -40.333 8.66699 -61 14s-39.334 13.333 -56.001 24s-30.334 25.334 -41.001 44.001s-16 43.334 -16 74.001c0 46.667 16.833 83.334 50.5 110.001s80.167 40 139.5 40c10 0 19.833 -0.333008 29.5 -1s20.167 -1.83398 31.5 -3.50098s23.833 -3.66699 37.5 -6
s30.167 -5.5 49.5 -9.5l-3 -57c-32.667 7.33301 -59.667 12.5 -81 15.5s-41.333 4.5 -60 4.5c-42 0 -73.833 -7.83301 -95.5 -23.5s-32.5 -38.5 -32.5 -68.5c0 -18 3.33301 -32.667 10 -44s16 -20.666 28 -27.999s25.833 -13 41.5 -17s32.5 -8 50.5 -12
c22.667 -5.33301 43.834 -11.5 63.501 -18.5s36.834 -16.333 51.501 -28s26.167 -26.5 34.5 -44.5s12.5 -40.333 12.5 -67c0 -41.333 -12.333 -75.166 -37 -101.499s-59 -43.166 -103 -50.499c13.333 -23.333 22.333 -42.166 27 -56.499s7 -28.833 7 -43.5
c0 -36 -10.167 -63.833 -30.5 -83.5s-49.5 -29.5 -87.5 -29.5z" />
    <glyph glyph-name="Scaron" unicode="&#x160;" horiz-adv-x="566" 
d="M269 -11c-32 0 -68.332 2.83301 -108.999 8.5s-79.334 13.167 -116.001 22.5l2 59c36.667 -9.33301 75 -16.833 115 -22.5s75.333 -8.5 106 -8.5c60.667 0 107.167 11.833 139.5 35.5s48.5 57.5 48.5 101.5c0 24.667 -4.66699 45.5 -14 62.5s-22.166 31.333 -38.499 43
s-35.5 21.667 -57.5 30s-45.667 16.166 -71 23.499c-38.667 11.333 -71.667 23.5 -99 36.5s-49.666 27.833 -66.999 44.5s-30 35.667 -38 57s-12 46 -12 74c0 30 5.83301 57.333 17.5 82s28.167 45.834 49.5 63.501s47 31.167 77 40.5s63.667 14 101 14
c53.333 0 115.666 -8 186.999 -24l-2 -60c-31.333 8 -62.833 14.167 -94.5 18.5s-60.5 6.5 -86.5 6.5c-54.667 0 -98.167 -12.667 -130.5 -38s-48.5 -59.333 -48.5 -102c0 -19.333 3 -36.5 9 -51.5s15.833 -28.667 29.5 -41s31.667 -23.5 54 -33.5
s50.166 -19.667 83.499 -29c31.333 -9.33301 60.5 -19.333 87.5 -30s50.333 -24 70 -40s35.167 -35.5 46.5 -58.5s17 -51.5 17 -85.5c0 -64 -22 -113.167 -66 -147.5s-107.333 -51.5 -190 -51.5zM134.001 943l157 -73l157 73v-59l-157 -74l-157 74v59z" />
    <glyph glyph-name="scaron" unicode="&#x161;" horiz-adv-x="455" 
d="M71 758l157 -73l157 73v-59l-157 -73l-157 73v59zM221 -11c-22.667 0 -46.8301 1.66406 -72.4971 4.99707s-59.5 9.33301 -101.5 18v57c31.333 -7.33301 61.166 -13.333 89.499 -18s55.166 -7 80.499 -7c42 0 74 8.5 96 25.5s33 41.5 33 73.5
c0 16.667 -3 30.834 -9 42.501s-14.167 21.5 -24.5 29.5s-22.833 14.5 -37.5 19.5s-30.334 9.16699 -47.001 12.5c-20 4 -40.333 8.66699 -61 14s-39.334 13.333 -56.001 24s-30.334 25.334 -41.001 44.001s-16 43.334 -16 74.001c0 46.667 16.833 83.334 50.5 110.001
s80.167 40 139.5 40c10 0 19.833 -0.333008 29.5 -1s20.167 -1.83398 31.5 -3.50098s23.833 -3.66699 37.5 -6s30.167 -5.5 49.5 -9.5l-3 -57c-32.667 7.33301 -59.667 12.5 -81 15.5s-41.333 4.5 -60 4.5c-42 0 -73.833 -7.83301 -95.5 -23.5s-32.5 -38.5 -32.5 -68.5
c0 -18 3.33301 -32.667 10 -44s16 -20.666 28 -27.999s25.833 -13 41.5 -17s32.5 -8 50.5 -12c22.667 -5.33301 43.834 -11.5 63.501 -18.5s36.834 -16.333 51.501 -28s26.167 -26.5 34.5 -44.5s12.5 -40.333 12.5 -67c0 -48.667 -16.833 -86.834 -50.5 -114.501
s-80.5 -41.5 -140.5 -41.5z" />
    <glyph glyph-name="uni0162" unicode="&#x162;" horiz-adv-x="589" 
d="M260 681h-243.999v59h557v-59h-245v-681h-7c15.333 -25.333 25.5 -45.666 30.5 -60.999s7.5 -30.666 7.5 -45.999c0 -36 -10.167 -63.833 -30.5 -83.5s-49.5 -29.5 -87.5 -29.5c-12.667 0 -26.334 1 -41.001 3s-28.667 5 -42 9v50c21.333 -7.33301 44 -11 68 -11
c28 0 48 5.16699 60 15.5s18 27.166 18 50.499c0 15.333 -2.83301 30.666 -8.5 45.999s-15.167 34.333 -28.5 57h-7v681z" />
    <glyph glyph-name="uni0163" unicode="&#x163;" horiz-adv-x="386" 
d="M189 -220c-12.667 0 -26.332 1.00098 -40.999 3.00098s-28.667 5 -42 9v50c21.333 -7.33301 44 -11 68 -11c28 0 48 5.16699 60 15.5s18 27.166 18 50.499c0 15.333 -2.83301 30.833 -8.5 46.5s-15.834 35.167 -30.501 58.5c-54 19.333 -81 65.333 -81 138v340h-116v60
h119l10 129l54 8v-137h165v-60h-165v-327c0 -69.333 32.333 -104 97 -104c10.667 0 22.167 0.833008 34.5 2.5s25.166 4.5 38.499 8.5v-56c-31.333 -8 -61.333 -12 -90 -12h-5c12.667 -23.333 21.334 -42 26.001 -56s7 -28.333 7 -43c0 -36 -10.167 -63.833 -30.5 -83.5
s-49.5 -29.5 -87.5 -29.5z" />
    <glyph glyph-name="Tcaron" unicode="&#x164;" horiz-adv-x="589" 
d="M139 943l157 -73l157 73v-59l-157 -74l-157 74v59zM260 681h-244v59h557v-59h-245v-681h-68v681z" />
    <glyph glyph-name="tcaron" unicode="&#x165;" horiz-adv-x="376" 
d="M279 -8c-48 0 -84.499 12.5 -109.499 37.5s-37.5 61.833 -37.5 110.5v340h-116v60h119l10 129l54 8v-137h108v-60h-108v-327c0 -69.333 32.333 -104 97 -104c10.667 0 22.167 0.833008 34.5 2.5s25.166 4.5 38.499 8.5v-56c-31.333 -8 -61.333 -12 -90 -12zM296.001 808
h59l-26 -228h-33v228z" />
    <glyph glyph-name="Tbar" unicode="&#x166;" horiz-adv-x="599" 
d="M132 408h132v273h-244v59h557v-59h-245v-273h142v-48h-142v-360h-68v360h-132v48z" />
    <glyph glyph-name="tbar" unicode="&#x167;" horiz-adv-x="397" 
d="M27 345h115.001v135h-116v60h119l10 129l54 8v-137h165v-60h-165v-135h147v-49h-147v-143c0 -69.333 32.333 -104 97 -104c10.667 0 22.167 0.833008 34.5 2.5s25.166 4.5 38.499 8.5v-56c-31.333 -8 -61.333 -12 -90 -12c-48 0 -84.5 12.5 -109.5 37.5
s-37.5 61.833 -37.5 110.5v156h-115v49z" />
    <glyph glyph-name="Utilde" unicode="&#x168;" horiz-adv-x="744" 
d="M182 862c17.333 20.667 36.333 36.498 57 47.498s41.334 16.5 62.001 16.5c15.333 0 29.666 -2.16699 42.999 -6.5s26.333 -9.16602 39 -14.499s25.5 -10.166 38.5 -14.499s26.5 -6.5 40.5 -6.5c30.667 0 60 13 88 39l24 -26c-16 -20.667 -34.833 -36.667 -56.5 -48
s-43.5 -17 -65.5 -17c-14 0 -27.667 2.16699 -41 6.5s-26.5 9 -39.5 14s-26 9.66699 -39 14s-26.167 6.5 -39.5 6.5c-14.667 0 -29.167 -2.83301 -43.5 -8.5s-28.833 -15.167 -43.5 -28.5zM372 -10.002c-50 0 -92.998 5.83301 -128.998 17.5s-65.667 30 -89 55
s-40.5 56.833 -51.5 95.5s-16.5 85.334 -16.5 140.001v442h67v-439c0 -45.333 4.5 -84 13.5 -116s22.667 -58 41 -78s41.166 -34.5 68.499 -43.5s59.333 -13.5 96 -13.5s68.667 4.5 96 13.5s50.166 23.5 68.499 43.5s32 46 41 78s13.5 70.667 13.5 116v439h68v-442
c0 -54.667 -5.5 -101.334 -16.5 -140.001s-28.333 -70.5 -52 -95.5s-53.5 -43.333 -89.5 -55s-79 -17.5 -129 -17.5z" />
    <glyph glyph-name="utilde" unicode="&#x169;" horiz-adv-x="591" 
d="M208 -10c-88.667 0 -133 48.999 -133 146.999v403h67v-381c0 -38.667 6.83301 -66.5 20.5 -83.5s36.167 -25.5 67.5 -25.5c34.667 0 69.667 6.83301 105 20.5s72 29.834 110 48.501v421h67v-540h-56l-5 67h-4l-73.5 -34.5c-21 -9.66699 -40.5 -17.667 -58.5 -24
s-35.333 -11 -52 -14s-35 -4.5 -55 -4.5zM96 677.999c17.333 21.333 36.1709 37.3311 56.5039 47.998s40.833 16 61.5 16c15.333 0 29.666 -2.16699 42.999 -6.5s26.333 -9.16602 39 -14.499s25.5 -10.166 38.5 -14.499s26.5 -6.5 40.5 -6.5
c31.333 0 60.666 12.667 87.999 38l25 -26c-16.667 -20.667 -35.834 -36.667 -57.501 -48s-43.5 -17 -65.5 -17c-14 0 -27.667 2.16699 -41 6.5s-26.5 9.33301 -39.5 15s-26 10.667 -39 15s-26.167 6.5 -39.5 6.5c-28.667 0 -57.334 -12.667 -86.001 -38z" />
    <glyph glyph-name="Umacron" unicode="&#x16a;" horiz-adv-x="744" 
d="M216 895h303v-53h-303v53zM372 -10c-50 0 -92.998 5.83301 -128.998 17.5s-65.667 30 -89 55s-40.5 56.833 -51.5 95.5s-16.5 85.334 -16.5 140.001v442h67v-439c0 -45.333 4.5 -84 13.5 -116s22.667 -58 41 -78s41.166 -34.5 68.499 -43.5s59.333 -13.5 96 -13.5
s68.667 4.5 96 13.5s50.166 23.5 68.499 43.5s32 46 41 78s13.5 70.667 13.5 116v439h68v-442c0 -54.667 -5.5 -101.334 -16.5 -140.001s-28.333 -70.5 -52 -95.5s-53.5 -43.333 -89.5 -55s-79 -17.5 -129 -17.5z" />
    <glyph glyph-name="umacron" unicode="&#x16b;" horiz-adv-x="591" 
d="M208 -10c-88.667 0 -133 48.999 -133 146.999v403h67v-381c0 -38.667 6.83301 -66.5 20.5 -83.5s36.167 -25.5 67.5 -25.5c34.667 0 69.667 6.83301 105 20.5s72 29.834 110 48.501v421h67v-540h-56l-5 67h-4l-73.5 -34.5c-21 -9.66699 -40.5 -17.667 -58.5 -24
s-35.333 -11 -52 -14s-35 -4.5 -55 -4.5zM139 702.999h308v-53h-308v53z" />
    <glyph glyph-name="Ubreve" unicode="&#x16c;" horiz-adv-x="744" 
d="M370 814c-56.667 0 -99.5 12.833 -128.5 38.5s-43.5 60.5 -43.5 104.5h53c0 -30.667 10.167 -54.5 30.5 -71.5s49.833 -25.5 88.5 -25.5c38 0 67.167 8.5 87.5 25.5s30.5 40.833 30.5 71.5h54c0 -44 -14.5 -78.833 -43.5 -104.5s-71.833 -38.5 -128.5 -38.5zM372 -10
c-50 0 -92.998 5.83301 -128.998 17.5s-65.667 30 -89 55s-40.5 56.833 -51.5 95.5s-16.5 85.334 -16.5 140.001v442h67v-439c0 -45.333 4.5 -84 13.5 -116s22.667 -58 41 -78s41.166 -34.5 68.499 -43.5s59.333 -13.5 96 -13.5s68.667 4.5 96 13.5s50.166 23.5 68.499 43.5
s32 46 41 78s13.5 70.667 13.5 116v439h68v-442c0 -54.667 -5.5 -101.334 -16.5 -140.001s-28.333 -70.5 -52 -95.5s-53.5 -43.333 -89.5 -55s-79 -17.5 -129 -17.5z" />
    <glyph glyph-name="ubreve" unicode="&#x16d;" horiz-adv-x="591" 
d="M208 -10c-88.667 0 -133 48.999 -133 146.999v403h67v-381c0 -38.667 6.83301 -66.5 20.5 -83.5s36.167 -25.5 67.5 -25.5c34.667 0 69.667 6.83301 105 20.5s72 29.834 110 48.501v421h67v-540h-56l-5 67h-4l-73.5 -34.5c-21 -9.66699 -40.5 -17.667 -58.5 -24
s-35.333 -11 -52 -14s-35 -4.5 -55 -4.5zM289 618.999c-59.333 0 -103.001 13.167 -131.001 39.5s-42 62.5 -42 108.5h53c0 -38 10.333 -64.833 31 -80.5s50.334 -23.5 89.001 -23.5c38 0 67.5 7.83301 88.5 23.5s31.5 42.5 31.5 80.5h53c0 -46 -14 -82.167 -42 -108.5
s-71.667 -39.5 -131 -39.5z" />
    <glyph glyph-name="Uring" unicode="&#x16e;" horiz-adv-x="744" 
d="M372 -10c-50 0 -92.998 5.83301 -128.998 17.5s-65.667 30 -89 55s-40.5 56.833 -51.5 95.5s-16.5 85.334 -16.5 140.001v442h67v-439c0 -45.333 4.5 -84 13.5 -116s22.667 -58 41 -78s41.166 -34.5 68.499 -43.5s59.333 -13.5 96 -13.5s68.667 4.5 96 13.5
s50.166 23.5 68.499 43.5s32 46 41 78s13.5 70.667 13.5 116v439h68v-442c0 -54.667 -5.5 -101.334 -16.5 -140.001s-28.333 -70.5 -52 -95.5s-53.5 -43.333 -89.5 -55s-79 -17.5 -129 -17.5zM370.002 796c-34 0 -62 10.167 -84 30.5s-33 45.833 -33 76.5s11 56.167 33 76.5
s50 30.5 84 30.5s61.833 -10.167 83.5 -30.5s32.5 -45.833 32.5 -76.5s-10.833 -56.167 -32.5 -76.5s-49.5 -30.5 -83.5 -30.5zM370.002 837c23.333 0 41.333 5.83301 54 17.5s19 27.834 19 48.501s-6.33301 37 -19 49s-30.667 18 -54 18c-24 0 -42.333 -6 -55 -18
s-19 -28.333 -19 -49s6.33301 -36.834 19 -48.501s31 -17.5 55 -17.5z" />
    <glyph glyph-name="uring" unicode="&#x16f;" horiz-adv-x="591" 
d="M292 604c-34.667 0 -63.001 10.168 -85.001 30.501s-33 45.5 -33 75.5c0 31.333 11 57.166 33 77.499s50.333 30.5 85 30.5c34 0 61.833 -10.167 83.5 -30.5s32.5 -46.166 32.5 -77.499c0 -15.333 -2.83301 -29.333 -8.5 -42s-13.667 -23.834 -24 -33.501
s-22.666 -17.167 -36.999 -22.5s-29.833 -8 -46.5 -8zM291.999 644.001c23.333 0 41.166 6 53.499 18s18.5 28 18.5 48c0 21.333 -6.16699 38 -18.5 50s-30.166 18 -53.499 18c-24 0 -42.333 -6 -55 -18s-19 -28.667 -19 -50c0 -20 6.33301 -36 19 -48s31 -18 55 -18z
M207.999 -9.99902c-88.667 0 -133 48.999 -133 146.999v403h67v-381c0 -38.667 6.83301 -66.5 20.5 -83.5s36.167 -25.5 67.5 -25.5c34.667 0 69.667 6.83301 105 20.5s72 29.834 110 48.501v421h67v-540h-56l-5 67h-4l-73.5 -34.5c-21 -9.66699 -40.5 -17.667 -58.5 -24
s-35.333 -11 -52 -14s-35 -4.5 -55 -4.5z" />
    <glyph glyph-name="Uhungarumlaut" unicode="&#x170;" horiz-adv-x="744" 
d="M372 -10c-50 0 -92.998 5.83301 -128.998 17.5s-65.667 30 -89 55s-40.5 56.833 -51.5 95.5s-16.5 85.334 -16.5 140.001v442h67v-439c0 -45.333 4.5 -84 13.5 -116s22.667 -58 41 -78s41.166 -34.5 68.499 -43.5s59.333 -13.5 96 -13.5s68.667 4.5 96 13.5
s50.166 23.5 68.499 43.5s32 46 41 78s13.5 70.667 13.5 116v439h68v-442c0 -54.667 -5.5 -101.334 -16.5 -140.001s-28.333 -70.5 -52 -95.5s-53.5 -43.333 -89.5 -55s-79 -17.5 -129 -17.5zM262.002 807l75 125h69l-93 -138zM408.002 807l76 125h69l-93 -138z" />
    <glyph glyph-name="uhungarumlaut" unicode="&#x171;" horiz-adv-x="591" 
d="M208 -10c-88.667 0 -133 48.999 -133 146.999v403h67v-381c0 -38.667 6.83301 -66.5 20.5 -83.5s36.167 -25.5 67.5 -25.5c34.667 0 69.667 6.83301 105 20.5s72 29.834 110 48.501v421h67v-540h-56l-5 67h-4l-73.5 -34.5c-21 -9.66699 -40.5 -17.667 -58.5 -24
s-35.333 -11 -52 -14s-35 -4.5 -55 -4.5zM174 625.999l72 180h72l-96 -190zM351 625.999l72 180h72l-96 -190z" />
    <glyph glyph-name="Uogonek" unicode="&#x172;" horiz-adv-x="744" 
d="M361 -207c-64 0 -95.999 27.002 -95.999 81.002c0 22 5.83301 42.167 17.5 60.5s31.5 37.166 59.5 56.499c-44.667 2 -83.167 9.5 -115.5 22.5s-58.833 32 -79.5 57s-36 56.167 -46 93.5s-15 82 -15 134v442h67v-439c0 -45.333 4.5 -84 13.5 -116s22.667 -58 41 -78
s41.166 -34.5 68.499 -43.5s59.333 -13.5 96 -13.5s68.667 4.5 96 13.5s50.166 23.5 68.499 43.5s32 46 41 78s13.5 70.667 13.5 116v439h68v-442c0 -98 -18.167 -171.167 -54.5 -219.5s-93.833 -76.833 -172.5 -85.5c-40.667 -19.333 -70.167 -38.333 -88.5 -57
s-27.5 -38.334 -27.5 -59.001c0 -26 16.333 -39 49 -39c20.667 0 42.667 3.66699 66 11v-44c-9.33301 -4 -20.166 -7 -32.499 -9s-24.833 -3 -37.5 -3z" />
    <glyph glyph-name="uogonek" unicode="&#x173;" horiz-adv-x="591" 
d="M208 -10c-88.667 0 -133.001 48.999 -133.001 146.999v403h67v-381c0 -38.667 6.83301 -66.5 20.5 -83.5s36.167 -25.5 67.5 -25.5c34.667 0 69.667 6.83301 105 20.5s72 29.834 110 48.501v421h67v-560c-40.667 -19.333 -70.167 -38.333 -88.5 -57
s-27.5 -38.334 -27.5 -59.001c0 -26 16.333 -39 49 -39c20.667 0 42.667 3.66699 66 11v-44c-9.33301 -4 -20.166 -7 -32.499 -9s-24.833 -3 -37.5 -3c-64 0 -96 27 -96 81c0 12.667 2 24.834 6 36.501s10.333 23 19 34s20 22.167 34 33.5s31.333 23 52 35l-5 67h-4
l-73.5 -34.5c-21 -9.66699 -40.5 -17.667 -58.5 -24s-35.333 -11 -52 -14s-35 -4.5 -55 -4.5z" />
    <glyph glyph-name="Wcircumflex" unicode="&#x174;" horiz-adv-x="996" 
d="M21 740h71l141 -521l37 -144h6l38 144l149 521h72l145 -521l39 -144h6l37 144l144 521h71l-209 -740h-91l-146 520l-30 124h-5l-30 -125l-148 -519h-92zM341 874l157 73l157 -73v-60l-157 74l-157 -74v60z" />
    <glyph glyph-name="wcircumflex" unicode="&#x175;" horiz-adv-x="780" 
d="M233 694l156 74l157 -74v-58l-156 73l-157 -73v58zM26 533v7h65l105 -387l19 -82h6l21 82l113 387h68l117 -387l23 -82h5l19 82l100 387h65v-7l-145 -533h-78l-119 386l-18 73h-6l-18 -73l-113 -386h-78z" />
    <glyph glyph-name="Ycircumflex" unicode="&#x176;" horiz-adv-x="613" 
d="M273 250l-268 490h74l194 -360l30 -63h7l29 63l195 360h73l-266 -488v-252h-68v250zM150 874l157 73l157 -73v-60l-157 74l-157 -74v60z" />
    <glyph glyph-name="ycircumflex" unicode="&#x177;" horiz-adv-x="549" 
d="M155 -208l-1 9l85 203l-220 527v9h71l159 -395l22 -69h5l24 69l164 395h69v-9l-318 -751zM119 694l156 74l157 -74v-58l-156 73l-157 -73v58z" />
    <glyph glyph-name="Ydieresis" unicode="&#x178;" horiz-adv-x="613" 
d="M273 250l-268 490h74l194 -360l30 -63h7l29 63l195 360h73l-266 -488v-252h-68v250zM180 823c-31.333 0 -47 15.667 -47 47c0 30.667 15.667 46 47 46c14.667 0 26.334 -3.66699 35.001 -11s13 -19 13 -35c0 -16.667 -4.33301 -28.667 -13 -36s-20.334 -11 -35.001 -11z
M433 823c-31.333 0 -47 15.667 -47 47c0 30.667 15.667 46 47 46c14.667 0 26.334 -3.66699 35.001 -11s13 -19 13 -35c0 -16.667 -4.33301 -28.667 -13 -36s-20.334 -11 -35.001 -11z" />
    <glyph glyph-name="Zacute" unicode="&#x179;" horiz-adv-x="569" 
d="M34 52l406 623v5h-394v60h479v-50l-406 -625v-5h415v-60h-500v52zM260 806l76 133h71l-93 -139z" />
    <glyph glyph-name="zacute" unicode="&#x17a;" horiz-adv-x="475" 
d="M215 616l73 184h69l-94 -190zM38 46l300 432v5h-290v57h380v-42l-301 -434v-6h311v-57h-400v45z" />
    <glyph glyph-name="Zdotaccent" unicode="&#x17b;" horiz-adv-x="569" 
d="M290 816c-31.333 0 -47 15.333 -47 46c0 31.333 15.667 47 47 47c14.667 0 26.334 -3.66699 35.001 -11s13 -19.333 13 -36c0 -16 -4.33301 -27.667 -13 -35s-20.334 -11 -35.001 -11zM34 52l406 623v5h-394v60h479v-50l-406 -625v-5h415v-60h-500v52z" />
    <glyph glyph-name="zdotaccent" unicode="&#x17c;" horiz-adv-x="475" 
d="M38 46l300 432v5h-290v57h380v-42l-301 -434v-6h311v-57h-400v45zM234 652c-31.333 0 -47 15.667 -47 47c0 30.667 15.667 46 47 46c14.667 0 26.334 -3.66699 35.001 -11s13 -19 13 -35c0 -16.667 -4.33301 -28.667 -13 -36s-20.334 -11 -35.001 -11z" />
    <glyph glyph-name="Zcaron" unicode="&#x17d;" horiz-adv-x="569" 
d="M135 943l157 -73l157 73v-59l-157 -74l-157 74v59zM34 52l406 623v5h-394v60h479v-50l-406 -625v-5h415v-60h-500v52z" />
    <glyph glyph-name="zcaron" unicode="&#x17e;" horiz-adv-x="475" 
d="M81 758l157 -73l157 73v-59l-157 -73l-157 73v59zM38 46l300 432v5h-290v57h380v-42l-301 -434v-6h311v-57h-400v45z" />
    <glyph glyph-name="Schwa" unicode="&#x18f;" horiz-adv-x="675" 
d="M49 323c0 16.667 0.5 32.166 1.5 46.499s2.16699 27.166 3.5 38.499h498c-3.33301 98 -24.666 169.667 -63.999 215s-99.333 68 -180 68c-32 0 -67.167 -3.16699 -105.5 -9.5s-78.833 -16.166 -121.5 -29.499c0 0.666992 -0.166992 4 -0.5 10s-0.833008 12.5 -1.5 19.5
s-1.33398 13.5 -2.00098 19.5s-1 9.33301 -1 10c14.667 6 31.5 11.5 50.5 16.5s39 9.33301 60 13s42.167 6.5 63.5 8.5s41.333 3 60 3c206.667 0 310 -122.333 310 -367c0 -126 -25.5 -223.333 -76.5 -292s-124.5 -103 -220.5 -103c-86.667 0 -154 28.833 -202 86.5
s-72 139.834 -72 246.501zM321 48.999c149.333 0 226.667 101.667 232 305h-438c-4 -98.667 11.167 -174.167 45.5 -226.5s87.833 -78.5 160.5 -78.5z" />
    <glyph glyph-name="florin" unicode="&#x192;" horiz-adv-x="387" 
d="M146 480l-116 -0.000976562v60h117v27c0 48 3.33301 87.333 10 118s18.667 55.167 36 73.5s41 31.5 71 39.5s68.667 13 116 15l4 -52c-36 -2.66699 -65 -6.66699 -87 -12s-39.333 -14.166 -52 -26.499s-21.167 -29 -25.5 -50s-6.5 -48.167 -6.5 -81.5v-51h143v-60h-143
v-665l-67 -35v700z" />
    <glyph glyph-name="uni01C4" unicode="&#x1c4;" horiz-adv-x="1287" 
d="M852 943l157 -73l157 73v-59l-157 -74l-157 74v59zM751 52l406 623v5h-394v60h479v-50l-406 -625v-5h415v-60h-500v52zM273 -11c-38 0 -73.334 1.16797 -106.001 3.50098s-57.334 6.16602 -74.001 11.499v734c14.667 1.33301 31 2.66602 49 3.99902s35.833 2.5 53.5 3.5
s34.834 1.83301 51.501 2.5s31 1 43 1c128.667 0 223 -30.5 283 -91.5s90 -156.833 90 -287.5c0 -131.333 -31.167 -227.666 -93.5 -288.999s-161.166 -92 -296.499 -92zM289.999 48.001c104.667 0 181.5 25.833 230.5 77.5s73.5 133.167 73.5 244.5
c0 110.667 -24 191.5 -72 242.5s-123.667 76.5 -227 76.5c-18.667 0 -40.667 -0.666992 -66 -2s-48 -3.33301 -68 -6v-623c12.667 -2 24.334 -3.66699 35.001 -5s21 -2.33301 31 -3s20.167 -1.16699 30.5 -1.5s21.166 -0.5 32.499 -0.5z" />
    <glyph glyph-name="uni01C5" unicode="&#x1c5;" horiz-adv-x="1192" 
d="M799 758l157 -73l157 73v-59l-157 -73l-157 73v59zM755 46l300 432v5h-290v57h380v-42l-301 -434v-6h311v-57h-400v45zM273 -11c-38 0 -73.334 1.16797 -106.001 3.50098s-57.334 6.16602 -74.001 11.499v734c14.667 1.33301 31 2.66602 49 3.99902s35.833 2.5 53.5 3.5
s34.834 1.83301 51.501 2.5s31 1 43 1c128.667 0 223 -30.5 283 -91.5s90 -156.833 90 -287.5c0 -131.333 -31.167 -227.666 -93.5 -288.999s-161.166 -92 -296.499 -92zM289.999 48.001c104.667 0 181.5 25.833 230.5 77.5s73.5 133.167 73.5 244.5
c0 110.667 -24 191.5 -72 242.5s-123.667 76.5 -227 76.5c-18.667 0 -40.667 -0.666992 -66 -2s-48 -3.33301 -68 -6v-623c12.667 -2 24.334 -3.66699 35.001 -5s21 -2.33301 31 -3s20.167 -1.16699 30.5 -1.5s21.166 -0.5 32.499 -0.5z" />
    <glyph glyph-name="uni01C6" unicode="&#x1c6;" horiz-adv-x="1065" 
d="M671 758l157 -73l157 73v-59l-157 -73l-157 73v59zM628 46l300 432v5h-290v57h380v-42l-301 -434v-6h311v-57h-400v45zM273 -10c-72.667 0 -128.001 22.334 -166.001 67.001s-57 114.667 -57 210c0 48 6.16699 89.667 18.5 125s29.833 64.666 52.5 87.999
s49.834 40.833 81.501 52.5s67.167 17.5 106.5 17.5c25.333 0 49.333 -1.33301 72 -4s43.667 -5 63 -7v269h67v-808h-58l-6 66h-6c-18.667 -24.667 -42 -43.5 -70 -56.5s-60.667 -19.5 -98 -19.5zM284.999 46.001c20.667 0 40.5 2.99902 59.5 8.99902s35.833 14.333 50.5 25
s26.5 23.667 35.5 39s13.5 32.333 13.5 51v314c-19.333 3.33301 -40.5 6 -63.5 8s-47.167 3 -72.5 3c-62 0 -109 -17.667 -141 -53s-48 -92.666 -48 -171.999s13.5 -136.5 40.5 -171.5s68.833 -52.5 125.5 -52.5z" />
    <glyph glyph-name="uni01C7" unicode="&#x1c7;" horiz-adv-x="771" 
d="M534 -160c15.333 32 28.001 61.666 38.001 88.999s18 54.166 24 80.499s10.333 53.5 13 81.5s4 59 4 93v556h68v-560c0 -32.667 -1.66699 -63.167 -5 -91.5s-9 -56.666 -17 -84.999s-18.333 -57.666 -31 -87.999s-28.334 -63.5 -47.001 -99.5zM93.001 739.999h68v-682
h343v-58h-411v740z" />
    <glyph glyph-name="uni01C8" unicode="&#x1c8;" horiz-adv-x="743" 
d="M628 661c-30 0 -45 14.667 -45 44s15 44 45 44s45 -14.667 45 -44s-15 -44 -45 -44zM526 -200c12.667 23.333 23.501 46.999 32.501 70.999s16.5 48.833 22.5 74.5s10.333 53 13 82s4 60.167 4 93.5v419h66v-451c0 -55.333 -7.83301 -109.166 -23.5 -161.499
s-37.834 -101.5 -66.501 -147.5zM93.001 739.999h68v-682h343v-58h-411v740z" />
    <glyph glyph-name="uni01C9" unicode="&#x1c9;" horiz-adv-x="456" 
d="M341 661c-30 0 -45 14.667 -45 44s15 44 45 44s45 -14.667 45 -44s-15 -44 -45 -44zM239 -200c12.667 23.333 23.501 46.999 32.501 70.999s16.5 48.833 22.5 74.5s10.333 53 13 82s4 60.167 4 93.5v419h66v-451c0 -55.333 -7.83301 -109.166 -23.5 -161.499
s-37.834 -101.5 -66.501 -147.5zM82.001 807.999h67v-808h-67v808z" />
    <glyph glyph-name="uni01CA" unicode="&#x1ca;" horiz-adv-x="1026" 
d="M788 -160c15.333 32 28.001 61.666 38.001 88.999s18 54.166 24 80.499s10.333 53.5 13 81.5s4 59 4 93v556h68v-560c0 -32.667 -1.66699 -63.167 -5 -91.5s-9 -56.666 -17 -84.999s-18.333 -57.666 -31 -87.999s-28.334 -63.5 -47.001 -99.5zM93.001 739.999h61
l397 -546l60 -88h5v634h63v-740h-62l-399 548l-57 85h-5v-633h-63v740z" />
    <glyph glyph-name="uni01CB" unicode="&#x1cb;" horiz-adv-x="997" 
d="M882 661c-30 0 -45 14.667 -45 44s15 44 45 44s45 -14.667 45 -44s-15 -44 -45 -44zM780 -200c12.667 23.333 23.501 46.999 32.501 70.999s16.5 48.833 22.5 74.5s10.333 53 13 82s4 60.167 4 93.5v419h66v-451c0 -55.333 -7.83301 -109.166 -23.5 -161.499
s-37.834 -101.5 -66.501 -147.5zM93.001 739.999h61l397 -546l60 -88h5v634h63v-740h-62l-399 548l-57 85h-5v-633h-63v740z" />
    <glyph glyph-name="uni01CC" unicode="&#x1cc;" horiz-adv-x="816" 
d="M701 661c-30 0 -45 14.667 -45 44s15 44 45 44s45 -14.667 45 -44s-15 -44 -45 -44zM599 -200c12.667 23.333 23.501 46.999 32.501 70.999s16.5 48.833 22.5 74.5s10.333 53 13 82s4 60.167 4 93.5v419h66v-451c0 -55.333 -7.83301 -109.166 -23.5 -161.499
s-37.834 -101.5 -66.501 -147.5zM79.001 539.999l56 0.000976562l5 -63h5c26.667 12.667 51 23.667 73 33s42.167 17 60.5 23s35.333 10.333 51 13s31.167 4 46.5 4c46 0 80.667 -11.833 104 -35.5s35 -60.834 35 -111.501v-403h-66v380c0 40 -7.83301 68.5 -23.5 85.5
s-39.5 25.5 -71.5 25.5c-28 0 -59.667 -5.83301 -95 -17.5s-73 -27.5 -113 -47.5v-426h-67v540z" />
    <glyph glyph-name="Oogonek" unicode="&#x1ea;" horiz-adv-x="735" 
d="M354 -206c-64 0 -96.001 27.001 -96.001 81.001c0 22 5.66699 42.167 17 60.5s31 37.166 59 56.499c-90.667 6.66699 -160 41.667 -208 105s-72 154 -72 272c0 125.333 27 220.166 81 284.499s131.667 96.5 233 96.5c100 0 177.167 -32.167 231.5 -96.5
s81.5 -159.166 81.5 -284.499c0 -112 -22.167 -199.667 -66.5 -263s-107.5 -100.666 -189.5 -111.999c-40.667 -19.333 -70.167 -38.333 -88.5 -57s-27.5 -38.334 -27.5 -59.001c0 -26 16.333 -39 49 -39c20.667 0 42.667 3.66699 66 11v-44
c-9.33301 -4 -20.166 -7 -32.499 -9s-24.833 -3 -37.5 -3zM367.999 49.001c80.667 0 141.5 26.833 182.5 80.5s61.5 133.5 61.5 239.5c0 107.333 -20.5 187.833 -61.5 241.5s-101.833 80.5 -182.5 80.5s-141.667 -26.833 -183 -80.5s-62 -134.167 -62 -241.5
c0 -106.667 20.667 -186.667 62 -240s102.333 -80 183 -80z" />
    <glyph glyph-name="oogonek" unicode="&#x1eb;" horiz-adv-x="580" 
d="M292 -201c-64 0 -96 27.002 -96 81.002c0 21.333 5.16699 40.5 15.5 57.5s28.166 34.833 53.499 53.5c-70 5.33301 -123.333 31.833 -160 79.5s-55 114.167 -55 199.5c0 90.667 20.5 160 61.5 208s100.5 72 178.5 72s137.5 -24 178.5 -72s61.5 -117.333 61.5 -208
c0 -76 -14.5 -137 -43.5 -183s-71.167 -75.667 -126.5 -89c-40 -18.667 -68.833 -37.334 -86.5 -56.001s-26.5 -38.334 -26.5 -59.001c0 -26 16.333 -39 49 -39c20.667 0 42.667 3.66699 66 11v-44c-9.33301 -4 -20.166 -7 -32.499 -9s-24.833 -3 -37.5 -3zM290 47.002
c58.667 0 102 18 130 54s42 92.333 42 169s-14 133 -42 169s-71.333 54 -130 54s-102 -18 -130 -54s-42 -92.333 -42 -169c0 -76 14 -132.167 42 -168.5s71.333 -54.5 130 -54.5z" />
    <glyph glyph-name="uni01F1" unicode="&#x1f1;" horiz-adv-x="1271" 
d="M735 52l406 623v5h-394v60h479v-50l-406 -625v-5h415v-60h-500v52zM273 -11c-38 0 -73.334 1.16797 -106.001 3.50098s-57.334 6.16602 -74.001 11.499v734c14.667 1.33301 31 2.66602 49 3.99902s35.833 2.5 53.5 3.5s34.834 1.83301 51.501 2.5s31 1 43 1
c128.667 0 223 -30.5 283 -91.5s90 -156.833 90 -287.5c0 -131.333 -31.167 -227.666 -93.5 -288.999s-161.166 -92 -296.499 -92zM289.999 48.001c104.667 0 181.5 25.833 230.5 77.5s73.5 133.167 73.5 244.5c0 110.667 -24 191.5 -72 242.5s-123.667 76.5 -227 76.5
c-18.667 0 -40.667 -0.666992 -66 -2s-48 -3.33301 -68 -6v-623c12.667 -2 24.334 -3.66699 35.001 -5s21 -2.33301 31 -3s20.167 -1.16699 30.5 -1.5s21.166 -0.5 32.499 -0.5z" />
    <glyph glyph-name="uni01F2" unicode="&#x1f2;" horiz-adv-x="1189" 
d="M751 46l300 432v5h-290v57h380v-42l-301 -434v-6h311v-57h-400v45zM273 -11c-38 0 -73.334 1.16797 -106.001 3.50098s-57.334 6.16602 -74.001 11.499v734c14.667 1.33301 31 2.66602 49 3.99902s35.833 2.5 53.5 3.5s34.834 1.83301 51.501 2.5s31 1 43 1
c128.667 0 223 -30.5 283 -91.5s90 -156.833 90 -287.5c0 -131.333 -31.167 -227.666 -93.5 -288.999s-161.166 -92 -296.499 -92zM289.999 48.001c104.667 0 181.5 25.833 230.5 77.5s73.5 133.167 73.5 244.5c0 110.667 -24 191.5 -72 242.5s-123.667 76.5 -227 76.5
c-18.667 0 -40.667 -0.666992 -66 -2s-48 -3.33301 -68 -6v-623c12.667 -2 24.334 -3.66699 35.001 -5s21 -2.33301 31 -3s20.167 -1.16699 30.5 -1.5s21.166 -0.5 32.499 -0.5z" />
    <glyph glyph-name="uni01F3" unicode="&#x1f3;" horiz-adv-x="1065" 
d="M628 46l300 432v5h-290v57h380v-42l-301 -434v-6h311v-57h-400v45zM273 -10c-72.667 0 -128.001 22.334 -166.001 67.001s-57 114.667 -57 210c0 48 6.16699 89.667 18.5 125s29.833 64.666 52.5 87.999s49.834 40.833 81.501 52.5s67.167 17.5 106.5 17.5
c25.333 0 49.333 -1.33301 72 -4s43.667 -5 63 -7v269h67v-808h-58l-6 66h-6c-18.667 -24.667 -42 -43.5 -70 -56.5s-60.667 -19.5 -98 -19.5zM284.999 46.001c20.667 0 40.5 2.99902 59.5 8.99902s35.833 14.333 50.5 25s26.5 23.667 35.5 39s13.5 32.333 13.5 51v314
c-19.333 3.33301 -40.5 6 -63.5 8s-47.167 3 -72.5 3c-62 0 -109 -17.667 -141 -53s-48 -92.666 -48 -171.999s13.5 -136.5 40.5 -171.5s68.833 -52.5 125.5 -52.5z" />
    <glyph glyph-name="Gacute" unicode="&#x1f4;" horiz-adv-x="651" 
d="M324 806l76 133h71l-93 -139zM389 -9c-223.333 1.33301 -335.001 126.999 -335.001 376.999c0 254.667 114.667 382 344 382c28 0 57.167 -2.16699 87.5 -6.5s61.5 -10.5 93.5 -18.5v-60c-20 4.66699 -37.833 8.5 -53.5 11.5s-30.5 5.5 -44.5 7.5s-27.333 3.33301 -40 4
s-25.667 1 -39 1c-94.667 0 -164.667 -26.167 -210 -78.5s-68 -132.833 -68 -241.5c0 -212 88.333 -318 265 -318c16.667 0 37.334 1.33301 62.001 4s47.667 6 69 10v311h65v-355c-32 -9.33301 -65.667 -16.666 -101 -21.999s-67 -8 -95 -8z" />
    <glyph glyph-name="gacute" unicode="&#x1f5;" horiz-adv-x="590" 
d="M283 616l73 184h69l-94 -190zM259 -219c-30 0 -59.667 2.00195 -89 6.00195s-56.333 9.66699 -81 17l5 56c25.333 -7.33301 51.5 -13.166 78.5 -17.499s54.167 -6.5 81.5 -6.5c28.667 0 54.834 3.33301 78.501 10s44 18 61 34s30.167 37.167 39.5 63.5
s14 59.166 14 98.499v31h-5c-19.333 -25.333 -43 -44.5 -71 -57.5s-60.667 -19.5 -98 -19.5c-72.667 0 -128 22 -166 66s-57 113 -57 207c0 47.333 6.16699 88.666 18.5 123.999s29.833 64.666 52.5 87.999s49.834 40.666 81.501 51.999s67.167 17 106.5 17
c31.333 0 64.333 -1.83301 99 -5.5s69 -10.167 103 -19.5v-475c0 -53.333 -6.66699 -97.166 -20 -131.499s-31.333 -61.833 -54 -82.5s-49.334 -35 -80.001 -43s-63.334 -12 -98.001 -12zM285 52.002c20.667 0 40.665 2.83301 59.998 8.5s36.333 14 51 25
s26.334 24 35.001 39s13 32.167 13 51.5v308c-19.333 3.33301 -40.5 6 -63.5 8s-47.167 3 -72.5 3c-61.333 0 -108.166 -17.5 -140.499 -52.5s-48.5 -91.833 -48.5 -170.5c0 -78 13.5 -134.167 40.5 -168.5s68.833 -51.5 125.5 -51.5z" />
    <glyph glyph-name="Aringacute" unicode="&#x1fa;" horiz-adv-x="666" 
d="M10 6l242 653.003c-15.333 9.33301 -27.333 21.666 -36 36.999s-13 32.666 -13 51.999c0 29.333 9.5 54.166 28.5 74.499s44.5 32.833 76.5 37.5l64 102h71l-71 -106c26.667 -6.66699 48 -19.834 64 -39.501s24 -42.5 24 -68.5c0 -18.667 -4.16699 -35.667 -12.5 -51
s-19.833 -27.666 -34.5 -36.999l244 -654v-6h-68l-86 231h-340l-86 -231h-67v6zM332 680.003c23.333 0 42 6.16699 56 18.5s21 28.833 21 49.5c0 21.333 -7 38.166 -21 50.499s-32.667 18.5 -56 18.5c-24 0 -43 -6.16699 -57 -18.5s-21 -29.166 -21 -50.499
c0 -20.667 7 -37.167 21 -49.5s33 -18.5 57 -18.5zM483 291.003l-101 272l-26 71h-47l-26 -71l-100 -272h300z" />
    <glyph glyph-name="aringacute" unicode="&#x1fb;" horiz-adv-x="518" 
d="M183 -5c-46 0 -81 11.668 -105 35.001s-36 57.666 -36 102.999c0 52 16.167 91.333 48.5 118s84.5 43 156.5 49l130 11v48c0 24.667 -2.33301 45.5 -7 62.5s-12.334 30.667 -23.001 41s-24.834 17.666 -42.501 21.999s-39.5 6.5 -65.5 6.5
c-23.333 0 -47.666 -1.5 -72.999 -4.5s-53.666 -7.5 -84.999 -13.5l-6 54c34 6.66699 64.833 11.334 92.5 14.001s55.5 4 83.5 4c66 0 114.667 -14 146 -42s47 -72 47 -132v-371h-55l-8 68h-5c-34.667 -23.333 -68 -41.333 -100 -54s-63 -19 -93 -19zM262 604.001
c-34.667 0 -63.001 10.168 -85.001 30.501s-33 45.5 -33 75.5c0 30.667 10.5 56 31.5 76s48.5 30.667 82.5 32l63 159h69l-83 -167c21.333 -7.33301 38.5 -20 51.5 -38s19.5 -38.667 19.5 -62c0 -15.333 -2.83301 -29.333 -8.5 -42s-13.667 -23.834 -24 -33.501
s-22.666 -17.167 -36.999 -22.5s-29.833 -8 -46.5 -8zM202.999 50.002c26.667 0 54.834 6.16602 84.501 18.499s59.5 28.166 89.5 47.499v149l-113 -11c-28.667 -2.66699 -52.834 -6.66699 -72.501 -12s-35.5 -12.666 -47.5 -21.999s-20.667 -20.666 -26 -33.999
s-8 -29.333 -8 -48c0 -58.667 31 -88 93 -88zM261.999 644.001c23.333 0 41.166 6 53.499 18s18.5 28 18.5 48c0 21.333 -6.16699 38 -18.5 50s-30.166 18 -53.499 18c-24 0 -42.333 -6 -55 -18s-19 -28.667 -19 -50c0 -20 6.33301 -36 19 -48s31 -18 55 -18z" />
    <glyph glyph-name="AEacute" unicode="&#x1fc;" horiz-adv-x="861" 
d="M481 806l76 133h71l-93 -139zM8 7l301 733h493v-59h-335l13 -277h294v-58h-291l14 -287h316v-59h-384l-9 231h-251l-95 -231h-66v7zM194 291h223l-16 393h-44z" />
    <glyph glyph-name="aeacute" unicode="&#x1fd;" horiz-adv-x="861" 
d="M414 616l73 184h69l-94 -190zM622 -10c-47.333 0 -87.502 8.33105 -120.502 24.998s-59.167 41 -78.5 73l-4 1c-27.333 -17.333 -52.166 -32 -74.499 -44s-43 -21.667 -62 -29s-36.667 -12.666 -53 -15.999s-31.833 -5 -46.5 -5c-46 0 -81 11.667 -105 35
s-36 57.666 -36 102.999c0 52 16.333 91.167 49 117.5s84.667 42.5 156 48.5l131 11v53c0 24 -2.5 44.167 -7.5 60.5s-13 29.5 -24 39.5s-25.167 17.167 -42.5 21.5s-39 6.5 -65 6.5c-23.333 0 -47.666 -1.5 -72.999 -4.5s-53.333 -7.5 -84 -13.5l-7 54
c34.667 6.66699 65.834 11.334 93.501 14.001s55.167 4 82.5 4c48.667 0 87 -8.5 115 -25.5s46.667 -42.5 56 -76.5l5 -1c17.333 34 41.833 60.167 73.5 78.5s70.167 27.5 115.5 27.5c64 0 112.667 -20.167 146 -60.5s50 -99.166 50 -176.499
c0 -30.667 -1.33301 -52.667 -4 -66h-363c4 -132 65.333 -198 184 -198c51.333 0 104.666 9.66699 159.999 29l5 -54c-25.333 -10 -53.5 -17.833 -84.5 -23.5s-60.167 -8.5 -87.5 -8.5zM202.998 48.998c49.333 0 109.002 23.334 179.002 70.001
c-0.666992 2 -1.33398 10.167 -2.00098 24.5s-1.16699 30.166 -1.5 47.499s-0.5 33.333 -0.5 48v27l-114 -11c-28.667 -2.66699 -52.834 -6.66699 -72.501 -12s-35.5 -12.666 -47.5 -21.999s-20.667 -20.833 -26 -34.5s-8 -29.834 -8 -48.501c0 -59.333 31 -89 93 -89z
M749 291.999c-1.33301 72 -12.5 123.667 -33.5 155s-54.5 47 -100.5 47c-107.333 0 -164 -67.333 -170 -202h304z" />
    <glyph glyph-name="Oslashacute" unicode="&#x1fe;" horiz-adv-x="738" 
d="M124 103c-45.333 63.333 -68.001 152.001 -68.001 266.001c0 125.333 27 220.166 81 284.499s131.333 96.5 232 96.5c86.667 0 156.334 -24.667 209.001 -74l51 64h63l-81 -102c23.333 -32 41 -70.333 53 -115s18 -96 18 -154c0 -124.667 -27 -219 -81 -283
s-131.333 -96 -232 -96c-89.333 0 -160 25 -212 75l-51 -65h-63zM368.999 49.001c80.667 0 141.667 26.833 183 80.5s62 133.5 62 239.5c0 89.333 -15.333 161 -46 215l-370 -468c40 -44.667 97 -67 171 -67zM124.999 369.001c0 -87.333 14.332 -157.667 42.999 -211
l370 467c-41.333 44 -97.666 66 -168.999 66c-80.667 0 -141.5 -26.833 -182.5 -80.5s-61.5 -134.167 -61.5 -241.5zM333.998 806l76 133h71l-93 -139z" />
    <glyph glyph-name="oslashacute" unicode="&#x1ff;" horiz-adv-x="585" 
d="M100 81c-31.333 47.333 -46.999 110.332 -46.999 188.999c0 90 20.333 159.167 61 207.5s100.334 72.5 179.001 72.5c66.667 0 120 -18.333 160 -55l38 45h63l-69 -81c15.333 -23.333 27.166 -50.666 35.499 -81.999s12.5 -67 12.5 -107
c0 -90 -20.333 -159.167 -61 -207.5s-100.334 -72.5 -179.001 -72.5c-67.333 0 -121 18.333 -161 55l-38 -45h-63zM293.001 46.999c60.667 0 104.5 18.333 131.5 55s40.5 92.667 40.5 168c0 56.667 -8 102.667 -24 138l-270 -317c27.333 -29.333 68 -44 122 -44z
M121.001 269.999c0 -55.333 7.66699 -101 23 -137l270 316c-28 29.333 -68.333 44 -121 44c-60.667 0 -104.5 -18.333 -131.5 -55s-40.5 -92.667 -40.5 -168zM270.001 615.999l73 184h69l-94 -190z" />
    <glyph glyph-name="Adblgrave" unicode="&#x200;" horiz-adv-x="665" 
d="M9 6l272 734h103l272 -734v-6h-67l-87 231h-340l-86 -231h-67v6zM483 291l-102 272l-46 125h-6l-45 -125l-102 -272h301zM233 794l-93 138h69l76 -125zM380 794l-93 138h69l76 -125z" />
    <glyph glyph-name="adblgrave" unicode="&#x201;" horiz-adv-x="518" 
d="M183 -5c-46 0 -81 11.668 -105 35.001s-36 57.666 -36 102.999c0 52 16.167 91.333 48.5 118s84.5 43 156.5 49l130 11v48c0 24.667 -2.33301 45.5 -7 62.5s-12.334 30.667 -23.001 41s-24.834 17.666 -42.501 21.999s-39.5 6.5 -65.5 6.5
c-23.333 0 -47.666 -1.5 -72.999 -4.5s-53.666 -7.5 -84.999 -13.5l-6 54c34 6.66699 64.833 11.334 92.5 14.001s55.5 4 83.5 4c66 0 114.667 -14 146 -42s47 -72 47 -132v-371h-55l-8 68h-5c-34.667 -23.333 -68 -41.333 -100 -54s-63 -19 -93 -19zM203 50.001
c26.667 0 54.834 6.16602 84.501 18.499s59.5 28.166 89.5 47.499v149l-113 -11c-28.667 -2.66699 -52.834 -6.66699 -72.501 -12s-35.5 -12.666 -47.5 -21.999s-20.667 -20.666 -26 -33.999s-8 -29.333 -8 -48c0 -58.667 31 -88 93 -88zM155 616l-96 190h72l72 -180z
M332 616l-96 190h72l72 -180z" />
    <glyph glyph-name="Ainvertedbreve" unicode="&#x202;" horiz-adv-x="665" 
d="M9 6l272 734h103l272 -734v-6h-67l-87 231h-340l-86 -231h-67v6zM483 291l-102 272l-46 125h-6l-45 -125l-102 -272h301zM451 818c0 30.667 -10.167 54.5 -30.5 71.5s-49.833 25.5 -88.5 25.5c-38 0 -67.333 -8.5 -88 -25.5s-31 -40.833 -31 -71.5h-53
c0 44 14.5 78.833 43.5 104.5s71.833 38.5 128.5 38.5s99.5 -12.833 128.5 -38.5s43.5 -60.5 43.5 -104.5h-53z" />
    <glyph glyph-name="ainvertedbreve" unicode="&#x203;" horiz-adv-x="518" 
d="M183 -5c-46 0 -81 11.668 -105 35.001s-36 57.666 -36 102.999c0 52 16.167 91.333 48.5 118s84.5 43 156.5 49l130 11v48c0 24.667 -2.33301 45.5 -7 62.5s-12.334 30.667 -23.001 41s-24.834 17.666 -42.501 21.999s-39.5 6.5 -65.5 6.5
c-23.333 0 -47.666 -1.5 -72.999 -4.5s-53.666 -7.5 -84.999 -13.5l-6 54c34 6.66699 64.833 11.334 92.5 14.001s55.5 4 83.5 4c66 0 114.667 -14 146 -42s47 -72 47 -132v-371h-55l-8 68h-5c-34.667 -23.333 -68 -41.333 -100 -54s-63 -19 -93 -19zM203 50.001
c26.667 0 54.834 6.16602 84.501 18.499s59.5 28.166 89.5 47.499v149l-113 -11c-28.667 -2.66699 -52.834 -6.66699 -72.501 -12s-35.5 -12.666 -47.5 -21.999s-20.667 -20.666 -26 -33.999s-8 -29.333 -8 -48c0 -58.667 31 -88 93 -88zM91 628c0 46 14.001 82 42.001 108
s71.667 39 131 39s103 -13 131 -39s42 -62 42 -108h-53c0 37.333 -10.5 64 -31.5 80s-50.5 24 -88.5 24s-67.333 -8 -88 -24s-31.334 -42.667 -32.001 -80h-53z" />
    <glyph glyph-name="Edblgrave" unicode="&#x204;" horiz-adv-x="606" 
d="M93 740h453v-59h-385v-276h361v-58h-361v-288h393v-59h-461v740zM222 794l-93 138h69l76 -125zM369 794l-93 138h69l76 -125z" />
    <glyph glyph-name="edblgrave" unicode="&#x205;" horiz-adv-x="532" 
d="M166 616l-96 190h72l72 -180zM343 616l-96 190h72l72 -180zM294 -9c-80 0 -140.502 22.833 -181.502 68.5s-61.5 112.834 -61.5 201.501c0 93.333 20.167 164.666 60.5 213.999s98.833 74 175.5 74c64.667 0 113.667 -20.167 147 -60.5s50 -99.833 50 -178.5
c0 -15.333 -0.333008 -28.333 -1 -39s-2 -19.667 -4 -27h-362c3.33301 -67.333 19.833 -116.833 49.5 -148.5s74.834 -47.5 135.501 -47.5c24.667 0 50.334 2.33301 77.001 7s54 12 82 22l5 -54c-25.333 -10 -53.333 -17.833 -84 -23.5s-60 -8.5 -88 -8.5zM284.998 495
c-104 0 -159.667 -66.999 -167 -200.999h303c0 71.333 -11 122.666 -33 153.999s-56.333 47 -103 47z" />
    <glyph glyph-name="Einvertedbreve" unicode="&#x206;" horiz-adv-x="606" 
d="M93 740h453v-59h-385v-276h361v-58h-361v-288h393v-59h-461v740zM440 818c0 30.667 -10.167 54.5 -30.5 71.5s-49.833 25.5 -88.5 25.5c-38 0 -67.333 -8.5 -88 -25.5s-31 -40.833 -31 -71.5h-53c0 44 14.5 78.833 43.5 104.5s71.833 38.5 128.5 38.5
s99.5 -12.833 128.5 -38.5s43.5 -60.5 43.5 -104.5h-53z" />
    <glyph glyph-name="einvertedbreve" unicode="&#x207;" horiz-adv-x="532" 
d="M105 628c0 46 14.001 82 42.001 108s71.667 39 131 39s103 -13 131 -39s42 -62 42 -108h-53c0 37.333 -10.5 64 -31.5 80s-50.5 24 -88.5 24s-67.333 -8 -88 -24s-31.334 -42.667 -32.001 -80h-53zM294.001 -9c-80 0 -140.502 22.833 -181.502 68.5
s-61.5 112.834 -61.5 201.501c0 93.333 20.167 164.666 60.5 213.999s98.833 74 175.5 74c64.667 0 113.667 -20.167 147 -60.5s50 -99.833 50 -178.5c0 -15.333 -0.333008 -28.333 -1 -39s-2 -19.667 -4 -27h-362c3.33301 -67.333 19.833 -116.833 49.5 -148.5
s74.834 -47.5 135.501 -47.5c24.667 0 50.334 2.33301 77.001 7s54 12 82 22l5 -54c-25.333 -10 -53.333 -17.833 -84 -23.5s-60 -8.5 -88 -8.5zM284.999 495c-104 0 -159.667 -66.999 -167 -200.999h303c0 71.333 -11 122.666 -33 153.999s-56.333 47 -103 47z" />
    <glyph glyph-name="Idblgrave" unicode="&#x208;" horiz-adv-x="254" 
d="M93 740h68v-740h-68v740zM33 794l-93 138h69l76 -125zM180 794l-93 138h69l76 -125z" />
    <glyph glyph-name="idblgrave" unicode="&#x209;" horiz-adv-x="228" 
d="M5 616l-96 190h72l72 -180zM182 616l-96 190h72l72 -180zM80 540h67v-540h-67v540z" />
    <glyph glyph-name="Iinvertedbreve" unicode="&#x20a;" horiz-adv-x="254" 
d="M93 740h68v-740h-68v740zM247 818c0 30.667 -10.167 54.5 -30.5 71.5s-49.833 25.5 -88.5 25.5c-38 0 -67.333 -8.5 -88 -25.5s-31 -40.833 -31 -71.5h-53c0 44 14.5 78.833 43.5 104.5s71.833 38.5 128.5 38.5s99.5 -12.833 128.5 -38.5s43.5 -60.5 43.5 -104.5h-53z
" />
    <glyph glyph-name="iinvertedbreve" unicode="&#x20b;" horiz-adv-x="228" 
d="M-47 628c0.666992 46 14.333 82 41 108s68 39 124 39s97.167 -13 123.5 -39s39.833 -62 40.5 -108h-49c0 37.333 -10 64 -30 80s-48.333 24 -85 24c-37.333 0 -66 -8 -86 -24s-30 -42.667 -30 -80h-49zM79.999 540h67v-540h-67v540z" />
    <glyph glyph-name="Odblgrave" unicode="&#x20c;" horiz-adv-x="735" 
d="M368 -10c-101.333 0 -179 31.833 -233 95.5s-81 158.167 -81 283.5s27 220.166 81 284.499s131.667 96.5 233 96.5c100 0 177.167 -32.167 231.5 -96.5s81.5 -159.166 81.5 -284.499c0 -124.667 -27.167 -219 -81.5 -283s-131.5 -96 -231.5 -96zM368 49
c80.667 0 141.5 26.833 182.5 80.5s61.5 133.5 61.5 239.5c0 107.333 -20.5 187.833 -61.5 241.5s-101.833 80.5 -182.5 80.5s-141.667 -26.833 -183 -80.5s-62 -134.167 -62 -241.5c0 -106.667 20.667 -186.667 62 -240s102.333 -80 183 -80zM269 794l-93 138h69l76 -125z
M416 794l-93 138h69l76 -125z" />
    <glyph glyph-name="odblgrave" unicode="&#x20d;" horiz-adv-x="580" 
d="M176 616l-96 190h72l72 -180zM353 616l-96 190h72l72 -180zM290 -10c-78 0 -137.5 24 -178.5 72s-61.5 117.333 -61.5 208s20.5 160 61.5 208s100.5 72 178.5 72s137.5 -24 178.5 -72s61.5 -117.333 61.5 -208s-20.5 -160 -61.5 -208s-100.5 -72 -178.5 -72zM290 47
c58.667 0 102 18 130 54s42 92.333 42 169s-14 133 -42 169s-71.333 54 -130 54s-102 -18 -130 -54s-42 -92.333 -42 -169c0 -76 14 -132.167 42 -168.5s71.333 -54.5 130 -54.5z" />
    <glyph glyph-name="Oinvertedbreve" unicode="&#x20e;" horiz-adv-x="735" 
d="M368 -10c-101.333 0 -179 31.833 -233 95.5s-81 158.167 -81 283.5s27 220.166 81 284.499s131.667 96.5 233 96.5c100 0 177.167 -32.167 231.5 -96.5s81.5 -159.166 81.5 -284.499c0 -124.667 -27.167 -219 -81.5 -283s-131.5 -96 -231.5 -96zM368 49
c80.667 0 141.5 26.833 182.5 80.5s61.5 133.5 61.5 239.5c0 107.333 -20.5 187.833 -61.5 241.5s-101.833 80.5 -182.5 80.5s-141.667 -26.833 -183 -80.5s-62 -134.167 -62 -241.5c0 -106.667 20.667 -186.667 62 -240s102.333 -80 183 -80zM485 818
c0 30.667 -10.167 54.5 -30.5 71.5s-49.833 25.5 -88.5 25.5c-38 0 -67.333 -8.5 -88 -25.5s-31 -40.833 -31 -71.5h-53c0 44 14.5 78.833 43.5 104.5s71.833 38.5 128.5 38.5s99.5 -12.833 128.5 -38.5s43.5 -60.5 43.5 -104.5h-53z" />
    <glyph glyph-name="oinvertedbreve" unicode="&#x20f;" horiz-adv-x="580" 
d="M116 628c0 46 14.001 82 42.001 108s71.667 39 131 39s103 -13 131 -39s42 -62 42 -108h-53c0 37.333 -10.5 64 -31.5 80s-50.5 24 -88.5 24s-67.333 -8 -88 -24s-31.334 -42.667 -32.001 -80h-53zM290.001 -10c-78 0 -137.5 24 -178.5 72s-61.5 117.333 -61.5 208
s20.5 160 61.5 208s100.5 72 178.5 72s137.5 -24 178.5 -72s61.5 -117.333 61.5 -208s-20.5 -160 -61.5 -208s-100.5 -72 -178.5 -72zM290.001 47c58.667 0 102 18 130 54s42 92.333 42 169s-14 133 -42 169s-71.333 54 -130 54s-102 -18 -130 -54s-42 -92.333 -42 -169
c0 -76 14 -132.167 42 -168.5s71.333 -54.5 130 -54.5z" />
    <glyph glyph-name="Rdblgrave" unicode="&#x210;" horiz-adv-x="651" 
d="M365 284c-14 -2 -28.5 -3.33203 -43.5 -3.99902s-30.833 -1 -47.5 -1c-16 0 -33.667 0.666992 -53 2s-39.333 3 -60 5v-286h-68v735c60.667 10 119.334 15 176.001 15c113.333 0 195.833 -18.667 247.5 -56s77.5 -97 77.5 -179c0 -60 -13.333 -107.833 -40 -143.5
s-68.334 -60.834 -125.001 -75.501l187 -296h-76zM282 337.001c44 0 81.333 3.33496 112 10.002s55.667 17 75 31s33.5 32.333 42.5 55s13.5 50 13.5 82c0 62 -19.333 107 -58 135s-101.667 42 -189 42c-18.667 0 -38.667 -0.833008 -60 -2.5s-40.333 -3.83398 -57 -6.50098
v-337c10.667 -2.66699 27.5 -4.83398 50.5 -6.50098s46.5 -2.5 70.5 -2.5zM230 794.003l-93 138h69l76 -125zM377 794.003l-93 138h69l76 -125z" />
    <glyph glyph-name="rdblgrave" unicode="&#x211;" horiz-adv-x="376" 
d="M106 616l-96 190h72l72 -180zM283 616l-96 190h72l72 -180zM79 540l56 -0.00195312l5 -73h4c40 20.667 75.667 38.334 107 53.001s61.333 24.334 90 29.001h22v-65h-23c-30.667 -4 -62.667 -12.5 -96 -25.5s-66 -27.833 -98 -44.5v-414h-67v540z" />
    <glyph glyph-name="Rinvertedbreve" unicode="&#x212;" horiz-adv-x="651" 
d="M365 284c-14 -2 -28.5 -3.33203 -43.5 -3.99902s-30.833 -1 -47.5 -1c-16 0 -33.667 0.666992 -53 2s-39.333 3 -60 5v-286h-68v735c60.667 10 119.334 15 176.001 15c113.333 0 195.833 -18.667 247.5 -56s77.5 -97 77.5 -179c0 -60 -13.333 -107.833 -40 -143.5
s-68.334 -60.834 -125.001 -75.501l187 -296h-76zM282 337.001c44 0 81.333 3.33496 112 10.002s55.667 17 75 31s33.5 32.333 42.5 55s13.5 50 13.5 82c0 62 -19.333 107 -58 135s-101.667 42 -189 42c-18.667 0 -38.667 -0.833008 -60 -2.5s-40.333 -3.83398 -57 -6.50098
v-337c10.667 -2.66699 27.5 -4.83398 50.5 -6.50098s46.5 -2.5 70.5 -2.5zM445 818.003c0 30.667 -10.167 54.5 -30.5 71.5s-49.833 25.5 -88.5 25.5c-38 0 -67.333 -8.5 -88 -25.5s-31 -40.833 -31 -71.5h-53c0 44 14.5 78.833 43.5 104.5s71.833 38.5 128.5 38.5
s99.5 -12.833 128.5 -38.5s43.5 -60.5 43.5 -104.5h-53z" />
    <glyph glyph-name="rinvertedbreve" unicode="&#x213;" horiz-adv-x="376" 
d="M44 628c0 46 14.001 82 42.001 108s71.667 39 131 39s103 -13 131 -39s42 -62 42 -108h-53c0 37.333 -10.5 64 -31.5 80s-50.5 24 -88.5 24s-67.333 -8 -88 -24s-31.334 -42.667 -32.001 -80h-53zM79.001 540l56 -0.00195312l5 -73h4c40 20.667 75.667 38.334 107 53.001
s61.333 24.334 90 29.001h22v-65h-23c-30.667 -4 -62.667 -12.5 -96 -25.5s-66 -27.833 -98 -44.5v-414h-67v540z" />
    <glyph glyph-name="Udblgrave" unicode="&#x214;" horiz-adv-x="744" 
d="M372 -10c-50 0 -92.998 5.83301 -128.998 17.5s-65.667 30 -89 55s-40.5 56.833 -51.5 95.5s-16.5 85.334 -16.5 140.001v442h67v-439c0 -45.333 4.5 -84 13.5 -116s22.667 -58 41 -78s41.166 -34.5 68.499 -43.5s59.333 -13.5 96 -13.5s68.667 4.5 96 13.5
s50.166 23.5 68.499 43.5s32 46 41 78s13.5 70.667 13.5 116v439h68v-442c0 -54.667 -5.5 -101.334 -16.5 -140.001s-28.333 -70.5 -52 -95.5s-53.5 -43.333 -89.5 -55s-79 -17.5 -129 -17.5zM271.002 794l-93 138h69l76 -125zM418.002 794l-93 138h69l76 -125z" />
    <glyph glyph-name="udblgrave" unicode="&#x215;" horiz-adv-x="591" 
d="M182 616l-96 190h72l72 -180zM359 616l-96 190h72l72 -180zM208 -10c-88.667 0 -133 48.999 -133 146.999v403h67v-381c0 -38.667 6.83301 -66.5 20.5 -83.5s36.167 -25.5 67.5 -25.5c34.667 0 69.667 6.83301 105 20.5s72 29.834 110 48.501v421h67v-540h-56l-5 67h-4
l-73.5 -34.5c-21 -9.66699 -40.5 -17.667 -58.5 -24s-35.333 -11 -52 -14s-35 -4.5 -55 -4.5z" />
    <glyph glyph-name="Uinvertedbreve" unicode="&#x216;" horiz-adv-x="744" 
d="M372 -10c-50 0 -92.998 5.83301 -128.998 17.5s-65.667 30 -89 55s-40.5 56.833 -51.5 95.5s-16.5 85.334 -16.5 140.001v442h67v-439c0 -45.333 4.5 -84 13.5 -116s22.667 -58 41 -78s41.166 -34.5 68.499 -43.5s59.333 -13.5 96 -13.5s68.667 4.5 96 13.5
s50.166 23.5 68.499 43.5s32 46 41 78s13.5 70.667 13.5 116v439h68v-442c0 -54.667 -5.5 -101.334 -16.5 -140.001s-28.333 -70.5 -52 -95.5s-53.5 -43.333 -89.5 -55s-79 -17.5 -129 -17.5zM487.002 818c0 30.667 -10.167 54.5 -30.5 71.5s-49.833 25.5 -88.5 25.5
c-38 0 -67.333 -8.5 -88 -25.5s-31 -40.833 -31 -71.5h-53c0 44 14.5 78.833 43.5 104.5s71.833 38.5 128.5 38.5s99.5 -12.833 128.5 -38.5s43.5 -60.5 43.5 -104.5h-53z" />
    <glyph glyph-name="uinvertedbreve" unicode="&#x217;" horiz-adv-x="591" 
d="M119 628c0 46 14.001 82 42.001 108s71.667 39 131 39s103 -13 131 -39s42 -62 42 -108h-53c0 37.333 -10.5 64 -31.5 80s-50.5 24 -88.5 24s-67.333 -8 -88 -24s-31.334 -42.667 -32.001 -80h-53zM208.001 -10c-88.667 0 -133 48.999 -133 146.999v403h67v-381
c0 -38.667 6.83301 -66.5 20.5 -83.5s36.167 -25.5 67.5 -25.5c34.667 0 69.667 6.83301 105 20.5s72 29.834 110 48.501v421h67v-540h-56l-5 67h-4l-73.5 -34.5c-21 -9.66699 -40.5 -17.667 -58.5 -24s-35.333 -11 -52 -14s-35 -4.5 -55 -4.5z" />
    <glyph glyph-name="uni0218" unicode="&#x218;" horiz-adv-x="566" 
d="M246 -69h70l-62 -151h-57zM269 -11c-32 0 -68.332 2.83301 -108.999 8.5s-79.334 13.167 -116.001 22.5l2 59c36.667 -9.33301 75 -16.833 115 -22.5s75.333 -8.5 106 -8.5c60.667 0 107.167 11.833 139.5 35.5s48.5 57.5 48.5 101.5c0 24.667 -4.66699 45.5 -14 62.5
s-22.166 31.333 -38.499 43s-35.5 21.667 -57.5 30s-45.667 16.166 -71 23.499c-38.667 11.333 -71.667 23.5 -99 36.5s-49.666 27.833 -66.999 44.5s-30 35.667 -38 57s-12 46 -12 74c0 30 5.83301 57.333 17.5 82s28.167 45.834 49.5 63.501s47 31.167 77 40.5
s63.667 14 101 14c53.333 0 115.666 -8 186.999 -24l-2 -60c-31.333 8 -62.833 14.167 -94.5 18.5s-60.5 6.5 -86.5 6.5c-54.667 0 -98.167 -12.667 -130.5 -38s-48.5 -59.333 -48.5 -102c0 -19.333 3 -36.5 9 -51.5s15.833 -28.667 29.5 -41s31.667 -23.5 54 -33.5
s50.166 -19.667 83.499 -29c31.333 -9.33301 60.5 -19.333 87.5 -30s50.333 -24 70 -40s35.167 -35.5 46.5 -58.5s17 -51.5 17 -85.5c0 -64 -22 -113.167 -66 -147.5s-107.333 -51.5 -190 -51.5z" />
    <glyph glyph-name="uni0219" unicode="&#x219;" horiz-adv-x="455" 
d="M205 -69h70l-62 -151h-57zM221 -11c-22.667 0 -46.8301 1.66406 -72.4971 4.99707s-59.5 9.33301 -101.5 18v57c31.333 -7.33301 61.166 -13.333 89.499 -18s55.166 -7 80.499 -7c42 0 74 8.5 96 25.5s33 41.5 33 73.5c0 16.667 -3 30.834 -9 42.501
s-14.167 21.5 -24.5 29.5s-22.833 14.5 -37.5 19.5s-30.334 9.16699 -47.001 12.5c-20 4 -40.333 8.66699 -61 14s-39.334 13.333 -56.001 24s-30.334 25.334 -41.001 44.001s-16 43.334 -16 74.001c0 46.667 16.833 83.334 50.5 110.001s80.167 40 139.5 40
c10 0 19.833 -0.333008 29.5 -1s20.167 -1.83398 31.5 -3.50098s23.833 -3.66699 37.5 -6s30.167 -5.5 49.5 -9.5l-3 -57c-32.667 7.33301 -59.667 12.5 -81 15.5s-41.333 4.5 -60 4.5c-42 0 -73.833 -7.83301 -95.5 -23.5s-32.5 -38.5 -32.5 -68.5
c0 -18 3.33301 -32.667 10 -44s16 -20.666 28 -27.999s25.833 -13 41.5 -17s32.5 -8 50.5 -12c22.667 -5.33301 43.834 -11.5 63.501 -18.5s36.834 -16.333 51.501 -28s26.167 -26.5 34.5 -44.5s12.5 -40.333 12.5 -67c0 -48.667 -16.833 -86.834 -50.5 -114.501
s-80.5 -41.5 -140.5 -41.5z" />
    <glyph glyph-name="uni021A" unicode="&#x21a;" horiz-adv-x="589" 
d="M263 -69h70l-62 -151h-57zM260 681h-244v59h557v-59h-245v-681h-68v681z" />
    <glyph glyph-name="uni021B" unicode="&#x21b;" horiz-adv-x="386" 
d="M221 -69h70l-62 -151h-57zM279 -8c-48 0 -84.499 12.5 -109.499 37.5s-37.5 61.833 -37.5 110.5v340h-116v60h119l10 129l54 8v-137h165v-60h-165v-327c0 -69.333 32.333 -104 97 -104c10.667 0 22.167 0.833008 34.5 2.5s25.166 4.5 38.499 8.5v-56
c-31.333 -8 -61.333 -12 -90 -12z" />
    <glyph glyph-name="dotlessj" unicode="&#x237;" horiz-adv-x="225" 
d="M8 -200c12.667 23.333 23.501 46.999 32.501 70.999s16.5 48.833 22.5 74.5s10.333 53 13 82s4 60.167 4 93.5v419h66v-451c0 -55.333 -7.83301 -109.166 -23.5 -161.499s-37.834 -101.5 -66.501 -147.5z" />
    <glyph glyph-name="schwa" unicode="&#x259;" horiz-adv-x="533" 
d="M238 549c80 0 140.667 -22.834 182 -68.501s62 -112.5 62 -200.5c0 -94.667 -20.333 -166.5 -61 -215.5s-99.667 -73.5 -177 -73.5c-65.333 0 -114.333 20.333 -147 61s-49 101 -49 181c0 14.667 0.333008 27 1 37s1.66699 19 3 27h364
c-2.66699 66.667 -19 115.834 -49 147.501s-75.333 47.5 -136 47.5c-24.667 0 -49.5 -2.33301 -74.5 -7s-53.5 -12 -85.5 -22l-5 54c25.333 10 53.5 17.833 84.5 23.5s60.167 8.5 87.5 8.5zM246 46.999c106.667 0 163.333 66.667 170 200h-306
c1.33301 -72 12.5 -123.333 33.5 -154s55.167 -46 102.5 -46z" />
    <glyph glyph-name="apostrophe" unicode="&#x2bc;" horiz-adv-x="212" 
d="M140 808v-4l-29 -224h-33v228h62z" />
    <glyph glyph-name="circumflex" unicode="&#x2c6;" horiz-adv-x="441" 
d="M61 694l156 74l157 -74v-58l-156 73l-157 -73v58z" />
    <glyph glyph-name="caron" unicode="&#x2c7;" horiz-adv-x="410" 
d="M47 758l157 -73l157 73v-59l-157 -73l-157 73v59z" />
    <glyph glyph-name="uni02C9" unicode="&#x2c9;" horiz-adv-x="449" 
d="M71 703h308v-53h-308v53z" />
    <glyph glyph-name="breve" unicode="&#x2d8;" horiz-adv-x="472" 
d="M234 619c-59.333 0 -103.001 13.167 -131.001 39.5s-42 62.5 -42 108.5h53c0 -38 10.333 -64.833 31 -80.5s50.334 -23.5 89.001 -23.5c38 0 67.5 7.83301 88.5 23.5s31.5 42.5 31.5 80.5h53c0 -46 -14 -82.167 -42 -108.5s-71.667 -39.5 -131 -39.5z" />
    <glyph glyph-name="dotaccent" unicode="&#x2d9;" horiz-adv-x="241" 
d="M113 652c-31.333 0 -47 15.667 -47 47c0 30.667 15.667 46 47 46c14.667 0 26.334 -3.66699 35.001 -11s13 -19 13 -35c0 -16.667 -4.33301 -28.667 -13 -36s-20.334 -11 -35.001 -11z" />
    <glyph glyph-name="ring" unicode="&#x2da;" horiz-adv-x="348" 
d="M173 604c-34.667 0 -63.001 10.168 -85.001 30.501s-33 45.5 -33 75.5c0 31.333 11 57.166 33 77.499s50.333 30.5 85 30.5c34 0 61.833 -10.167 83.5 -30.5s32.5 -46.166 32.5 -77.499c0 -15.333 -2.83301 -29.333 -8.5 -42s-13.667 -23.834 -24 -33.501
s-22.666 -17.167 -36.999 -22.5s-29.833 -8 -46.5 -8zM172.999 644.001c23.333 0 41.166 6 53.499 18s18.5 28 18.5 48c0 21.333 -6.16699 38 -18.5 50s-30.166 18 -53.499 18c-24 0 -42.333 -6 -55 -18s-19 -28.667 -19 -50c0 -20 6.33301 -36 19 -48s31 -18 55 -18z" />
    <glyph glyph-name="ogonek" unicode="&#x2db;" horiz-adv-x="291" 
d="M157 -220c-64 0 -96.001 27 -96.001 81c0 12.667 2 24.834 6 36.501s10.5 23 19.5 34s20.5 22.167 34.5 33.5s31.333 23 52 35h55v-20c-40.667 -19.333 -70.167 -38.333 -88.5 -57s-27.5 -38.334 -27.5 -59.001c0 -26 16.333 -39 49 -39c20.667 0 42.667 3.66699 66 11
v-44c-9.33301 -4 -20.166 -7 -32.499 -9s-24.833 -3 -37.5 -3z" />
    </font>
</defs>
</svg>
