<?xml version="1.0" standalone="no"?>
<!DOCTYPE svg PUBLIC "-//W3C//DTD SVG 1.1//EN" "http://www.w3.org/Graphics/SVG/1.1/DTD/svg11.dtd" >
<svg>
<metadata>
Created by FontForge 20090914 at Sat Aug  6 10:50:22 2016
 By www-data
Copyright (c) 2012, Impallari Type (www.impallari.com), with Reserved Font Name Encode Sans.
</metadata>
<defs>
<font id="EncodeSansWide-Black" horiz-adv-x="670" >
  <font-face 
    font-family="Encode Sans Wide"
    font-weight="900"
    font-stretch="normal"
    units-per-em="1000"
    panose-1="2 0 0 0 0 0 0 0 0 0"
    ascent="800"
    descent="-200"
    x-height="540"
    cap-height="740"
    bbox="-175 -220.001 2080 1030"
    underline-thickness="55"
    underline-position="-57"
    unicode-range="U+000D-U+FB04"
  />
<missing-glyph horiz-adv-x="903" 
d="M72 1030h759v-1250h-759v1250zM650 -52v914h-396v-914h396z" />
    <glyph glyph-name="f_f" unicode="ff" horiz-adv-x="1081" 
d="M681 349h-304.996v-349h-230v349h-131v191h132v23c0 46 7.16699 85 21.5 117s37.166 58.167 68.499 78.5s71.666 35 120.999 44s109 13.5 179 13.5l10 -162c-60 0 -103.5 -7 -130.5 -21s-40.5 -36.333 -40.5 -67v-26h306v23c0 46 7.16699 85 21.5 117
s37.166 58.167 68.499 78.5s71.666 35 120.999 44s109 13.5 179 13.5l10 -162c-60 0 -103.5 -7 -130.5 -21s-40.5 -36.333 -40.5 -67v-26h156v-191h-156v-349h-230v349z" />
    <glyph glyph-name="f_i" unicode="fi" horiz-adv-x="899" 
d="M728 594c-44 0 -75.167 9.16699 -93.5 27.5s-27.5 48.5 -27.5 90.5c0 41.333 9.16699 71.333 27.5 90s49.5 28 93.5 28c45.333 0 77 -9.66699 95 -29s27 -49 27 -89s-9 -69.667 -27 -89s-49.667 -29 -95 -29zM613 540h230v-540h-230v540zM146 349h-130.998v191h132v23
c0 46 7.16699 85 21.5 117s37.166 58.167 68.499 78.5s71.666 35 120.999 44s109 13.5 179 13.5l10 -162c-60 0 -103.5 -7 -130.5 -21s-40.5 -36.333 -40.5 -67v-26h156v-191h-156v-349h-230v349z" />
    <glyph glyph-name="f_l" unicode="fl" horiz-adv-x="898" 
d="M146 349h-130.998v191h132v23c0 46 7.16699 85 21.5 117s37.166 58.167 68.499 78.5s71.666 35 120.999 44s109 13.5 179 13.5l10 -162c-60 0 -103.5 -7 -130.5 -21s-40.5 -36.333 -40.5 -67v-26h156v-191h-156v-349h-230v349zM613.002 808h230v-808h-230v808z" />
    <glyph glyph-name="f_f_i" unicode="ffi" horiz-adv-x="1429" 
d="M146 349h-130.996v191h132v23c0 46 7.16699 85 21.5 117s37.166 58.167 68.499 78.5s71.666 35 120.999 44s109 13.5 179 13.5l10 -162c-60 0 -103.5 -7 -130.5 -21s-40.5 -36.333 -40.5 -67v-26h300v23c0 46 7.16699 85 21.5 117s37.166 58.167 68.499 78.5
s71.666 35 120.999 44s109 13.5 179 13.5l10 -162c-60 0 -103.5 -7 -130.5 -21s-40.5 -36.333 -40.5 -67v-26h156v-191h-156v-349h-230v349h-299v-349h-230v349zM1143 540h230v-540h-230v540zM1258 594c-44 0 -75.167 9.16699 -93.5 27.5s-27.5 48.5 -27.5 90.5
c0 41.333 9.16699 71.333 27.5 90s49.5 28 93.5 28c45.333 0 77 -9.66699 95 -29s27 -49 27 -89s-9 -69.667 -27 -89s-49.667 -29 -95 -29z" />
    <glyph glyph-name="f_f_l" unicode="ffl" horiz-adv-x="1428" 
d="M146 349h-130.996v191h132v23c0 46 7.16699 85 21.5 117s37.166 58.167 68.499 78.5s71.666 35 120.999 44s109 13.5 179 13.5l10 -162c-60 0 -103.5 -7 -130.5 -21s-40.5 -36.333 -40.5 -67v-26h300v23c0 46 7.16699 85 21.5 117s37.166 58.167 68.499 78.5
s71.666 35 120.999 44s109 13.5 179 13.5l10 -162c-60 0 -103.5 -7 -130.5 -21s-40.5 -36.333 -40.5 -67v-26h156v-191h-156v-349h-230v349h-299v-349h-230v349zM1143 808h230v-808h-230v808z" />
    <glyph glyph-name="f_b" unicode="fb" horiz-adv-x="1292" 
d="M145 349h-130.998v191h132v23c0 46 7.16699 85 21.5 117s37.166 58.167 68.499 78.5s71.666 35 120.999 44s109 13.5 179 13.5l10 -162c-60 0 -103.5 -7 -130.5 -21s-40.5 -36.333 -40.5 -67v-26h156v-191h-156v-349h-230v349zM922.002 -12
c-17.333 0 -34.667 0.167969 -52 0.500977s-37.666 1.66602 -60.999 3.99902s-50.833 5.83301 -82.5 10.5s-70.5 11.334 -116.5 20.001v785h230v-324c19.333 23.333 43.333 40 72 50s61.667 15 99 15c83.333 0 146 -22.167 188 -66.5s63 -110.833 63 -199.5
c0 -48 -8.16699 -90.5 -24.5 -127.5s-39.333 -67.833 -69 -92.5s-65.334 -43.334 -107.001 -56.001s-88.167 -19 -139.5 -19zM917.001 141.001c24.667 0 44.668 1.5 60.001 4.5s27 9 35 18s13.333 21.833 16 38.5s4 38.667 4 66c0 22 -1.16699 40 -3.5 54
s-6.83301 25 -13.5 33s-15.834 13.667 -27.501 17s-26.834 5 -45.501 5c-36 0 -62 -6 -78 -18s-24 -30.667 -24 -56v-156c18.667 -4 44.334 -6 77.001 -6z" />
    <glyph glyph-name="f_f_b" unicode="ffb" horiz-adv-x="1822" 
d="M145 349h-130.996v191h132v23c0 46 7.16699 85 21.5 117s37.166 58.167 68.499 78.5s71.666 35 120.999 44s109 13.5 179 13.5l10 -162c-60 0 -103.5 -7 -130.5 -21s-40.5 -36.333 -40.5 -67v-26h300v23c0 46 7.16699 85 21.5 117s37.166 58.167 68.499 78.5
s71.666 35 120.999 44s109 13.5 179 13.5l10 -162c-60 0 -103.5 -7 -130.5 -21s-40.5 -36.333 -40.5 -67v-26h156v-191h-156v-349h-230v349h-299v-349h-230v349zM1452 -12c-17.333 0 -34.667 0.167969 -52 0.500977s-37.666 1.66602 -60.999 3.99902
s-50.833 5.83301 -82.5 10.5s-70.5 11.334 -116.5 20.001v785h230v-324c19.333 23.333 43.333 40 72 50s61.667 15 99 15c83.333 0 146 -22.167 188 -66.5s63 -110.833 63 -199.5c0 -48 -8.16699 -90.5 -24.5 -127.5s-39.333 -67.833 -69 -92.5
s-65.334 -43.334 -107.001 -56.001s-88.167 -19 -139.5 -19zM1447 141.001c24.667 0 44.668 1.5 60.001 4.5s27 9 35 18s13.333 21.833 16 38.5s4 38.667 4 66c0 22 -1.16699 40 -3.5 54s-6.83301 25 -13.5 33s-15.834 13.667 -27.501 17s-26.834 5 -45.501 5
c-36 0 -62 -6 -78 -18s-24 -30.667 -24 -56v-156c18.667 -4 44.334 -6 77.001 -6z" />
    <glyph glyph-name="f_f_h" unicode="ffh" horiz-adv-x="1827" 
d="M146 349h-130.996v191h132v23c0 46 7.16699 85 21.5 117s37.166 58.167 68.499 78.5s71.666 35 120.999 44s109 13.5 179 13.5l10 -162c-60 0 -103.5 -7 -130.5 -21s-40.5 -36.333 -40.5 -67v-26h300v23c0 46 7.16699 85 21.5 117s37.166 58.167 68.499 78.5
s71.666 35 120.999 44s109 13.5 179 13.5l10 -162c-60 0 -103.5 -7 -130.5 -21s-40.5 -36.333 -40.5 -67v-26h156v-191h-156v-349h-230v349h-299v-349h-230v349zM1143 808l229.997 0.000976562v-324c44.667 19.333 86.834 35.166 126.501 47.499s74.5 18.5 104.5 18.5
c52.667 0 94.334 -13.667 125.001 -41s46 -65 46 -113v-396h-230v321c0 20 -3.66699 34.333 -11 43s-19.666 13 -36.999 13c-14 0 -32.333 -2 -55 -6s-45.667 -9.33301 -69 -16v-355h-230v808z" />
    <glyph glyph-name="f_f_j" unicode="ffj" horiz-adv-x="1430" 
d="M146 349h-130.996v191h132v23c0 46 7.16699 85 21.5 117s37.166 58.167 68.499 78.5s71.666 35 120.999 44s109 13.5 179 13.5l10 -162c-60 0 -103.5 -7 -130.5 -21s-40.5 -36.333 -40.5 -67v-26h300v23c0 46 7.16699 85 21.5 117s37.166 58.167 68.499 78.5
s71.666 35 120.999 44s109 13.5 179 13.5l10 -162c-60 0 -103.5 -7 -130.5 -21s-40.5 -36.333 -40.5 -67v-26h156v-191h-156v-349h-230v349h-299v-349h-230v349zM1114 -199c6.66699 30.667 12.335 58.999 17.002 84.999s8.5 53.333 11.5 82s5 60.5 6 95.5
s1.5 77.167 1.5 126.5v55.5c0 19.667 -0.333008 42.834 -1 69.501s-1.33398 58.167 -2.00098 94.5s-1.33398 79.833 -2.00098 130.5h230v-472c-7.33301 -56 -18.5 -107 -33.5 -153s-33.833 -91 -56.5 -135zM1260 593.999c-44 0 -75.167 9.16699 -93.5 27.5
s-27.5 48.5 -27.5 90.5c0 41.333 9.16699 71.333 27.5 90s49.5 28 93.5 28c45.333 0 77 -9.66699 95 -29s27 -49 27 -89s-9 -69.667 -27 -89s-49.667 -29 -95 -29z" />
    <glyph glyph-name="f_f_k" unicode="ffk" horiz-adv-x="1780" 
d="M146 349h-130.996v191h132v23c0 46 7.16699 85 21.5 117s37.166 58.167 68.499 78.5s71.666 35 120.999 44s109 13.5 179 13.5l10 -162c-60 0 -103.5 -7 -130.5 -21s-40.5 -36.333 -40.5 -67v-26h300v23c0 46 7.16699 85 21.5 117s37.166 58.167 68.499 78.5
s71.666 35 120.999 44s109 13.5 179 13.5l10 -162c-60 0 -103.5 -7 -130.5 -21s-40.5 -36.333 -40.5 -67v-26h156v-191h-156v-349h-230v349h-299v-349h-230v349zM1143 808h230v-462h41l111 194h252l-173 -253l-29 -6v-4l29 -6l191 -271h-251l-132 211h-39v-211h-230v808z
" />
    <glyph glyph-name="f_f_t" unicode="fft" horiz-adv-x="1575" 
d="M1393 -17c-71.333 0 -125.329 16.333 -161.996 49s-55 81 -55 145v172h-272v-349h-230v349h-299v-349h-230v349h-131v191h132v23c0 46 7.16699 85 21.5 117s37.166 58.167 68.499 78.5s71.666 35 120.999 44s109 13.5 179 13.5l10 -162c-60 0 -103.5 -7 -130.5 -21
s-40.5 -36.333 -40.5 -67v-26h300v23c0 46 7.16699 85 21.5 117s37.166 58.167 68.499 78.5s71.666 35 120.999 44s109 13.5 179 13.5l10 -162c-60 0 -103.5 -7 -130.5 -21s-40.5 -36.333 -40.5 -67v-26h288l36 173l176 17v-190h135v-191h-133v-119
c0 -28.667 5 -48.167 15 -58.5s29 -15.5 57 -15.5c18.667 0 39 4.66699 61 14v-169c-8 -2.66699 -17.5 -5 -28.5 -7s-23 -3.83301 -36 -5.5s-26.5 -3 -40.5 -4s-27.667 -1.5 -41 -1.5z" />
    <glyph glyph-name="f_h" unicode="fh" horiz-adv-x="1297" 
d="M613 808l229.997 0.000976562v-324c44.667 19.333 86.834 35.166 126.501 47.499s74.5 18.5 104.5 18.5c52.667 0 94.334 -13.667 125.001 -41s46 -65 46 -113v-396h-230v321c0 20 -3.66699 34.333 -11 43s-19.666 13 -36.999 13c-14 0 -32.333 -2 -55 -6
s-45.667 -9.33301 -69 -16v-355h-230v808zM145.997 349.001h-130.998v191h132v23c0 46 7.16699 85 21.5 117s37.166 58.167 68.499 78.5s71.666 35 120.999 44s109 13.5 179 13.5l10 -162c-60 0 -103.5 -7 -130.5 -21s-40.5 -36.333 -40.5 -67v-26h156v-191h-156v-349h-230
v349z" />
    <glyph glyph-name="f_j" unicode="fj" horiz-adv-x="900" 
d="M146 349h-130.998v191h132v23c0 46 7.16699 85 21.5 117s37.166 58.167 68.499 78.5s71.666 35 120.999 44s109 13.5 179 13.5l10 -162c-60 0 -103.5 -7 -130.5 -21s-40.5 -36.333 -40.5 -67v-26h156v-191h-156v-349h-230v349zM730.002 594
c-44 0 -75.167 9.16699 -93.5 27.5s-27.5 48.5 -27.5 90.5c0 41.333 9.16699 71.333 27.5 90s49.5 28 93.5 28c45.333 0 77 -9.66699 95 -29s27 -49 27 -89s-9 -69.667 -27 -89s-49.667 -29 -95 -29zM584.002 -199c6.66699 30.667 12.335 58.999 17.002 84.999
s8.5 53.333 11.5 82s5 60.5 6 95.5s1.5 77.167 1.5 126.5v55.5c0 19.667 -0.333008 42.834 -1 69.501s-1.33398 58.167 -2.00098 94.5s-1.33398 79.833 -2.00098 130.5h230v-472c-7.33301 -56 -18.5 -107 -33.5 -153s-33.833 -91 -56.5 -135z" />
    <glyph glyph-name="f_k" unicode="fk" horiz-adv-x="1250" 
d="M613 808h230v-462h41l111 194h252l-173 -253l-29 -6v-4l29 -6l191 -271h-251l-132 211h-39v-211h-230v808zM146 349h-130.998v191h132v23c0 46 7.16699 85 21.5 117s37.166 58.167 68.499 78.5s71.666 35 120.999 44s109 13.5 179 13.5l10 -162
c-60 0 -103.5 -7 -130.5 -21s-40.5 -36.333 -40.5 -67v-26h156v-191h-156v-349h-230v349z" />
    <glyph glyph-name="f_t" unicode="ft" horiz-adv-x="1045" 
d="M863 -17c-71.333 0 -125.331 16.333 -161.998 49s-55 81 -55 145v172h-271v-349h-230v349h-131v191h132v23c0 46 7.16699 85 21.5 117s37.166 58.167 68.499 78.5s71.666 35 120.999 44s109 13.5 179 13.5l10 -162c-60 0 -103.5 -7 -130.5 -21s-40.5 -36.333 -40.5 -67
v-26h287l36 173l176 17v-190h135v-191h-133v-119c0 -28.667 5 -48.167 15 -58.5s29 -15.5 57 -15.5c18.667 0 39 4.66699 61 14v-169c-8 -2.66699 -17.5 -5 -28.5 -7s-23 -3.83301 -36 -5.5s-26.5 -3 -40.5 -4s-27.667 -1.5 -41 -1.5z" />
    <glyph glyph-name=".notdef" horiz-adv-x="903" 
d="M72 1030h759v-1250h-759v1250zM650 -52v914h-396v-914h396z" />
    <glyph glyph-name="NULL" horiz-adv-x="0" 
 />
    <glyph glyph-name="NULL" horiz-adv-x="0" 
 />
    <glyph glyph-name="nonmarkingreturn" unicode="&#xd;" horiz-adv-x="336" 
 />
    <glyph glyph-name="space" unicode=" " horiz-adv-x="212" 
 />
    <glyph glyph-name="exclam" unicode="!" horiz-adv-x="337" 
d="M168 -10c-34 0 -60.167 8.66699 -78.5 26s-27.5 42 -27.5 74s9.16699 56.667 27.5 74s44.5 26 78.5 26s60.167 -8.66699 78.5 -26s27.5 -42 27.5 -74s-9.16699 -56.667 -27.5 -74s-44.5 -26 -78.5 -26zM100 287l-43 443v10h223v-10l-42 -443v-10h-138v10z" />
    <glyph glyph-name="quotedbl" unicode="&#x22;" horiz-adv-x="510" 
d="M229 808v-4l-53 -324h-125v328h178zM483 808v-4l-53 -324h-125v328h178z" />
    <glyph glyph-name="numbersign" unicode="#" horiz-adv-x="740" 
d="M417 163h-116l-13 -163h-150l13 163h-109v137h120l11 133h-131v141h142l14 166h150l-14 -166h116l14 166h150l-14 -166h98v-141h-109l-11 -133h120v-137h-131l-13 -163h-150zM312 300h116l11 133h-116z" />
    <glyph glyph-name="dollar" unicode="$" horiz-adv-x="726" 
d="M257 -8c-36.667 2.66699 -73.999 6.00098 -111.999 10.001s-73 9 -105 15v186c64 -12.667 119.5 -21.667 166.5 -27s90.833 -8 131.5 -8c42 0 71.167 2.83301 87.5 8.5s24.5 16.167 24.5 31.5c0 17.333 -8.5 30.5 -25.5 39.5s-46.167 16.167 -87.5 21.5
c-100.667 11.333 -174.167 36.833 -220.5 76.5s-69.5 96.834 -69.5 171.501c0 55.333 17 101.666 51 138.999s82.667 63.666 146 78.999v155h214v-142c24.667 -2 52.167 -5.16699 82.5 -9.5s68.5 -10.5 114.5 -18.5v-185c-37.333 11.333 -78 20.166 -122 26.499
s-84.333 9.5 -121 9.5c-78 0 -117 -15.667 -117 -47c0 -19.333 9.16699 -34.166 27.5 -44.499s50.166 -18.833 95.499 -25.5c98.667 -15.333 170 -40.5 214 -75.5s66 -84.167 66 -147.5c0 -133.333 -75.667 -211.333 -227 -234v-147h-214v142z" />
    <glyph glyph-name="percent" unicode="%" horiz-adv-x="1247" 
d="M275 278c-78 0 -138.667 19.333 -182 58s-65 98 -65 178s21.667 139.5 65 178.5s104 58.5 182 58.5c78.667 0 139.5 -19.5 182.5 -58.5s64.5 -98.5 64.5 -178.5s-21.5 -139.333 -64.5 -178s-103.833 -58 -182.5 -58zM275 413c14.667 0 27.5 1.33301 38.5 4
s20 7.83398 27 15.501s12.167 18 15.5 31s5 29.833 5 50.5s-1.66699 37.667 -5 51s-8.5 23.666 -15.5 30.999s-16 12.5 -27 15.5s-23.833 4.5 -38.5 4.5c-15.333 0 -28.5 -1.5 -39.5 -4.5s-20 -8.16699 -27 -15.5s-12 -17.666 -15 -30.999s-4.5 -30.333 -4.5 -51
s1.5 -37.5 4.5 -50.5s8 -23.333 15 -31s16 -12.834 27 -15.501s24.167 -4 39.5 -4zM972 -10c-78 0 -138.667 19.333 -182 58s-65 98 -65 178s21.667 139.5 65 178.5s104 58.5 182 58.5c78.667 0 139.5 -19.5 182.5 -58.5s64.5 -98.5 64.5 -178.5s-21.5 -139.333 -64.5 -178
s-103.833 -58 -182.5 -58zM972 125c14.667 0 27.5 1.33301 38.5 4s20 7.83398 27 15.501s12.167 18 15.5 31s5 29.833 5 50.5s-1.66699 37.667 -5 51s-8.5 23.666 -15.5 30.999s-16 12.5 -27 15.5s-23.833 4.5 -38.5 4.5c-15.333 0 -28.5 -1.5 -39.5 -4.5
s-20 -8.16699 -27 -15.5s-12 -17.666 -15 -30.999s-4.5 -30.333 -4.5 -51s1.5 -37.5 4.5 -50.5s8 -23.333 15 -31s16 -12.834 27 -15.501s24.167 -4 39.5 -4zM710 740h197l-373 -740h-197z" />
    <glyph glyph-name="ampersand" unicode="&#x26;" horiz-adv-x="874" 
d="M389 -9c-53.333 0 -101.667 5 -145 15s-80.333 24.333 -111 43s-54.167 41.334 -70.5 68.001s-24.5 56.334 -24.5 89.001c0 47.333 14 87.833 42 121.5s66 57.167 114 70.5c-31.333 28 -53.833 54.333 -67.5 79s-20.5 50 -20.5 76c0 30 7.5 57.333 22.5 82
s36.333 45.667 64 63s61 30.666 100 39.999s82.833 14 131.5 14c36 0 73.5 -2.33301 112.5 -7s78.833 -11.334 119.5 -20.001l4 -6l-22 -145h-11c-28.667 8.66699 -59.167 15.5 -91.5 20.5s-60.5 7.5 -84.5 7.5c-36 0 -62.5 -5.16699 -79.5 -15.5s-25.5 -26.5 -25.5 -48.5
c0 -41.333 65 -95 195 -161l40 -21v91h210v-103c0 -16 -0.833008 -31.5 -2.5 -46.5s-4.16699 -29.5 -7.5 -43.5l100 -50v-16l-82 -152h-12l-98 55c-34.667 -32 -77.167 -56.667 -127.5 -74s-107.833 -26 -172.5 -26zM449.999 228l-61 35.001l-55 33
c-36.667 -12.667 -55 -38.334 -55 -77.001c0 -24 11.667 -43.5 35 -58.5s54 -22.5 92 -22.5c55.333 0 97.333 14.333 126 43z" />
    <glyph glyph-name="quotesingle" unicode="'" horiz-adv-x="256" 
d="M229 808v-4l-53 -324h-125v328h178z" />
    <glyph glyph-name="parenleft" unicode="(" horiz-adv-x="382" 
d="M183 -160c-51.333 75.333 -89.666 157 -114.999 245s-38 177.667 -38 269s12.667 181 38 269s63.666 169.667 114.999 245h200v-4c-51.333 -75.333 -92.833 -156.5 -124.5 -243.5s-47.5 -175.833 -47.5 -266.5s15.833 -179.5 47.5 -266.5s73.167 -168.167 124.5 -243.5
v-4h-200v0z" />
    <glyph glyph-name="parenright" unicode=")" horiz-adv-x="381" 
d="M-1 -160v4c51.333 75.333 92.833 156.5 124.5 243.5s47.5 175.833 47.5 266.5s-15.833 179.5 -47.5 266.5s-73.167 168.167 -124.5 243.5v4h199c51.333 -75.333 89.666 -157 114.999 -245s38 -177.667 38 -269s-12.667 -181 -38 -269s-63.666 -169.667 -114.999 -245
h-199z" />
    <glyph glyph-name="asterisk" unicode="*" horiz-adv-x="508" 
d="M76 477l43 59l86 67l-109 4l-68 23l36 112l69 -22l92 -62l-30 108v72h118v-72l-31 -107l92 61l69 22l36 -112l-68 -23l-109 -4l86 -67l43 -59l-96 -69l-43 58l-39 106l-38 -106l-43 -58z" />
    <glyph glyph-name="plus" unicode="+" horiz-adv-x="532" 
d="M29 437h170v155h134v-155h170v-134h-170v-155h-134v155h-170v134z" />
    <glyph glyph-name="comma" unicode="," horiz-adv-x="329" 
d="M22 -145l42 362h230l-101 -372z" />
    <glyph glyph-name="hyphen" unicode="-" horiz-adv-x="596" 
d="M52 362h492v-164h-492v164z" />
    <glyph glyph-name="period" unicode="." horiz-adv-x="317" 
d="M158 -10c-37.333 0 -67.5 9.16699 -90.5 27.5s-34.5 47.5 -34.5 87.5s11.5 69.167 34.5 87.5s53.167 27.5 90.5 27.5c38 0 68.5 -9.16699 91.5 -27.5s34.5 -47.5 34.5 -87.5s-11.5 -69.167 -34.5 -87.5s-53.5 -27.5 -91.5 -27.5z" />
    <glyph glyph-name="slash" unicode="/" horiz-adv-x="513" 
d="M295 740h197l-274 -860h-197z" />
    <glyph glyph-name="zero" unicode="0" horiz-adv-x="796" 
d="M398 -10c-56.667 0 -107.167 7.83301 -151.5 23.5s-82 39.167 -113 70.5s-54.667 70.666 -71 117.999s-24.5 103 -24.5 167s8.16699 119.833 24.5 167.5s40 87.334 71 119.001s68.667 55.334 113 71.001s94.833 23.5 151.5 23.5s107.334 -7.83301 152.001 -23.5
s82.334 -39.334 113.001 -71.001s54.167 -71.334 70.5 -119.001s24.5 -103.5 24.5 -167.5s-8.16699 -119.667 -24.5 -167s-39.833 -86.666 -70.5 -117.999s-68.334 -54.833 -113.001 -70.5s-95.334 -23.5 -152.001 -23.5zM398 173c22 0 41 2.66699 57 8
s29.167 15.333 39.5 30s18 34.667 23 60s7.5 58 7.5 98c0 40.667 -2.5 73.834 -7.5 99.501s-12.667 45.834 -23 60.501s-23.5 24.667 -39.5 30s-35 8 -57 8c-22.667 0 -42 -2.66699 -58 -8s-29.167 -15.333 -39.5 -30s-17.833 -34.834 -22.5 -60.501s-7 -58.834 -7 -99.501
c0 -40 2.33301 -72.667 7 -98s12.167 -45.333 22.5 -60s23.5 -24.667 39.5 -30s35.333 -8 58 -8z" />
    <glyph glyph-name="one" unicode="1" horiz-adv-x="536" 
d="M217 496h-4l-175 -30h-7l-24 141v4l267 129h178v-740h-235v496z" />
    <glyph glyph-name="two" unicode="2" horiz-adv-x="696" 
d="M34 106c0 46 8.00391 84.5 24.0039 115.5s36.5 57 61.5 78s52.667 38.167 83 51.5s59.5 25.333 87.5 36c17.333 6.66699 33.666 13.5 48.999 20.5s28.833 14.833 40.5 23.5s20.834 18.167 27.501 28.5s10 22.166 10 35.499c0 24.667 -10.5 42.667 -31.5 54
s-54.5 17 -100.5 17c-19.333 0 -39 -1 -59 -3s-39.333 -4.16699 -58 -6.5s-36.334 -4.83301 -53.001 -7.5l-43 -7l-14 183c62 8.66699 114.5 15 157.5 19s82.5 6 118.5 6c110 0 190.167 -19 240.5 -57s75.5 -96.333 75.5 -175c0 -37.333 -5.83301 -70 -17.5 -98
s-26.834 -52.5 -45.501 -73.5s-39.334 -38.667 -62.001 -53s-45.334 -26.833 -68.001 -37.5c-17.333 -8 -33.833 -15.167 -49.5 -21.5s-29.5 -12.166 -41.5 -17.499s-21.5 -10.5 -28.5 -15.5s-10.5 -10.5 -10.5 -16.5v-9h323v-176h-616v106z" />
    <glyph glyph-name="three" unicode="3" horiz-adv-x="671" 
d="M285 -13c-22.667 0 -46.3359 0.496094 -71.0029 1.49609s-48 2.16699 -70 3.5s-41.833 3.16602 -59.5 5.49902s-30.5 4.5 -38.5 6.5v173h4c10 -2 23.167 -4 39.5 -6s33.666 -4 51.999 -6s36.5 -3.5 54.5 -4.5s33.667 -1.5 47 -1.5c31.333 0 56.666 0.833008 75.999 2.5
s34.333 4.83398 45 9.50098s17.834 11.334 21.501 20.001s5.5 20 5.5 34c0 14.667 -2.33301 26.667 -7 36s-13.167 16.5 -25.5 21.5s-29.666 8.5 -51.999 10.5s-51.166 3 -86.499 3h-79v158h78c32 0 57.833 0.833008 77.5 2.5s35.167 4.83398 46.5 9.50098s19 11 23 19
s6 18.333 6 31c0 11.333 -1.83301 20.666 -5.5 27.999s-10.5 13 -20.5 17s-23.5 6.83301 -40.5 8.5s-38.833 2.5 -65.5 2.5c-11.333 0 -24.833 -0.5 -40.5 -1.5s-32 -2.16699 -49 -3.5s-34.333 -3.16602 -52 -5.49902l-48.5 -6.5h-4v175c14.667 2 32.834 4.16699 54.501 6.5
s43.834 4.5 66.501 6.5s44.167 3.66699 64.5 5s36.833 2 49.5 2c222 0 333 -69 333 -207c0 -36.667 -11.5 -68.667 -34.5 -96s-55.5 -47.666 -97.5 -60.999v-10c46.667 -10.667 83.667 -31.167 111 -61.5s41 -66.166 41 -107.499c0 -72.667 -29.333 -127.5 -88 -164.5
s-145.667 -55.5 -261 -55.5z" />
    <glyph glyph-name="four" unicode="4" horiz-adv-x="754" 
d="M13 264v14l249 472h4l239 -20l10 -24l-268 -404v-4h153l43 152h167v-152h123v-176h-123v-122h-230v122h-346z" />
    <glyph glyph-name="five" unicode="5" horiz-adv-x="660" 
d="M269 -13c-37.333 0 -74.499 1.66699 -111.499 5s-74.5 7.33301 -112.5 12v169h51c25.333 -4.66699 49.166 -7.83398 71.499 -9.50098s44.5 -2.5 66.5 -2.5c25.333 0 47.5 0.833008 66.5 2.5s34.667 5.33398 47 11.001s21.5 13.667 27.5 24s9 24.166 9 41.499
c0 12 -3.66699 22 -11 30s-19.833 14.333 -37.5 19s-41.167 7.83398 -70.5 9.50098s-66 2.5 -110 2.5h-78l-25 24l33 415h500v-176h-330l-5 -99c62 -0.666992 116.833 -4.66699 164.5 -12s87.5 -20 119.5 -38s56.167 -42 72.5 -72s24.5 -68.333 24.5 -115
c0 -50 -11 -90.667 -33 -122s-50.333 -55.833 -85 -73.5s-73.5 -29.667 -116.5 -36s-85.5 -9.5 -127.5 -9.5z" />
    <glyph glyph-name="six" unicode="6" horiz-adv-x="753" 
d="M386 -10c-112 0 -198.003 29.1699 -258.003 87.5029s-90 144.5 -90 258.5c0 276 151.667 414 455 414c28 0 57.333 -1.66699 88 -5s63.334 -8.33301 98.001 -15l-29 -159c-32 5.33301 -59.667 9.16602 -83 11.499s-45 3.5 -65 3.5c-68 0 -119.167 -11.5 -153.5 -34.5
s-56.5 -61.833 -66.5 -116.5c20 13.333 44 23.833 72 31.5s59 11.5 93 11.5c42.667 0 81.334 -5.33301 116.001 -16s64.334 -25.667 89.001 -45s43.667 -43 57 -71s20 -59 20 -93c0 -40.667 -7.83301 -77.334 -23.5 -110.001s-38.334 -60.334 -68.001 -83.001
s-65.667 -40 -108 -52s-90.166 -18 -143.499 -18zM385.997 340.003c-21.333 0 -42.335 -3.49902 -63.002 -10.499s-37 -15.5 -49 -25.5c2.66699 -55.333 12.834 -95 30.501 -119s44.834 -36 81.501 -36c35.333 0 61 7.83301 77 23.5s24 40.5 24 74.5
c0 33.333 -7.83301 57.166 -23.5 71.499s-41.5 21.5 -77.5 21.5z" />
    <glyph glyph-name="seven" unicode="7" horiz-adv-x="622" 
d="M292 -28l-201 28v21l261 522h-325l-10 179l20 18h548l32 -123v-9l-272 -608z" />
    <glyph glyph-name="eight" unicode="8" horiz-adv-x="757" 
d="M382 -10c-64.667 0 -119 4.66992 -163 14.0029s-79.667 22.666 -107 39.999s-47 38.5 -59 63.5s-18 53.167 -18 84.5c0 79.333 41 138.666 123 177.999c-28 17.333 -50.667 39.833 -68 67.5s-26 64.834 -26 111.501c0 30 8 57.333 24 82s38.5 45.667 67.5 63
s64.167 30.833 105.5 40.5s87 14.5 137 14.5c48 0 90.833 -4.83301 128.5 -14.5s69.334 -23.167 95.001 -40.5s45.334 -38.333 59.001 -63s20.5 -52 20.5 -82c0 -18 -1.5 -34.167 -4.5 -48.5s-8.16699 -27.5 -15.5 -39.5s-17.166 -23.167 -29.499 -33.5
s-27.5 -20.5 -45.5 -30.5c16 -8 31 -17.333 45 -28s26 -23.334 36 -38.001s17.833 -31.5 23.5 -50.5s8.5 -40.5 8.5 -64.5c0 -35.333 -5.83301 -66.833 -17.5 -94.5s-30.834 -51.334 -57.501 -71.001s-61.334 -34.667 -104.001 -45s-95.334 -15.5 -158.001 -15.5z
M316 315.003c-18 -12.667 -32.499 -26.668 -43.499 -42.001s-16.5 -33 -16.5 -53c0 -25.333 11.667 -44.5 35 -57.5s53.666 -19.5 90.999 -19.5s66 5.33301 86 16s30 26.334 30 47.001c0 16.667 -4.33301 30.667 -13 42s-20.5 20.833 -35.5 28.5s-32.333 14.167 -52 19.5
s-40.5 10.333 -62.5 15zM270.001 536.002c0 -15.333 4.66602 -27.8311 13.999 -37.498s21.833 -17.834 37.5 -24.501s33.834 -12.334 54.501 -17.001s42.667 -9 66 -13c18.667 14 32.167 28.5 40.5 43.5s12.5 28.833 12.5 41.5c0 20 -10.5 36.333 -31.5 49
s-48.167 19 -81.5 19s-60.333 -5.33301 -81 -16s-31 -25.667 -31 -45z" />
    <glyph glyph-name="nine" unicode="9" horiz-adv-x="753" 
d="M367 750c112 0 198.002 -29.1689 258.002 -87.502s90 -144.5 90 -258.5c0 -276 -151.667 -414 -455 -414c-28 0 -57.333 1.66699 -88 5s-63.334 8.33301 -98.001 15l29 159c32 -5.33301 59.667 -9.16602 83 -11.499s45 -3.5 65 -3.5c34 0 63.667 2.66699 89 8
s46.833 14 64.5 26s31.834 27.667 42.501 47s18.667 42.666 24 69.999c-20 -13.333 -44 -23.833 -72 -31.5s-59 -11.5 -93 -11.5c-42.667 0 -81.334 5.33301 -116.001 16s-64.334 25.667 -89.001 45s-43.667 43 -57 71s-20 59 -20 93c0 40.667 7.83301 77.334 23.5 110.001
s38.334 60.334 68.001 83.001s65.667 40 108 52s90.166 18 143.499 18zM367.002 399.998c21.333 0 42.335 3.49902 63.002 10.499s37 15.5 49 25.5c-2.66699 55.333 -12.834 95 -30.501 119s-44.834 36 -81.501 36c-35.333 0 -61 -7.83301 -77 -23.5s-24 -40.5 -24 -74.5
c0 -33.333 7.83301 -57.166 23.5 -71.499s41.5 -21.5 77.5 -21.5z" />
    <glyph glyph-name="colon" unicode=":" horiz-adv-x="337" 
d="M168 -10c-37.333 0 -67.5 9.16699 -90.5 27.5s-34.5 47.5 -34.5 87.5s11.5 69.167 34.5 87.5s53.167 27.5 90.5 27.5c38 0 68.5 -9.16699 91.5 -27.5s34.5 -47.5 34.5 -87.5s-11.5 -69.167 -34.5 -87.5s-53.5 -27.5 -91.5 -27.5zM168 320
c-37.333 0 -67.5 9.16699 -90.5 27.5s-34.5 47.5 -34.5 87.5s11.5 69.167 34.5 87.5s53.167 27.5 90.5 27.5c38 0 68.5 -9.16699 91.5 -27.5s34.5 -47.5 34.5 -87.5s-11.5 -69.167 -34.5 -87.5s-53.5 -27.5 -91.5 -27.5z" />
    <glyph glyph-name="semicolon" unicode=";" horiz-adv-x="339" 
d="M23 -145l42 362h230l-101 -372zM175 320c-37.333 0 -67.5 9.16699 -90.5 27.5s-34.5 47.5 -34.5 87.5s11.5 69.167 34.5 87.5s53.167 27.5 90.5 27.5c38 0 68.5 -9.16699 91.5 -27.5s34.5 -47.5 34.5 -87.5s-11.5 -69.167 -34.5 -87.5s-53.5 -27.5 -91.5 -27.5z" />
    <glyph glyph-name="less" unicode="&#x3c;" horiz-adv-x="572" 
d="M29 297v132l483 207v-147l-294 -126l294 -126v-147z" />
    <glyph glyph-name="equal" unicode="=" horiz-adv-x="556" 
d="M56 305h444v-138h-444v138zM56 528h444v-138h-444v138z" />
    <glyph glyph-name="greater" unicode="&#x3e;" horiz-adv-x="573" 
d="M61 237l294 126l-294 126v147l483 -207v-132l-483 -207v147z" />
    <glyph glyph-name="question" unicode="?" horiz-adv-x="523" 
d="M153 260l-16.999 175c49.333 9.33301 87.666 21.5 114.999 36.5s41 31.5 41 49.5c0 20.667 -8.66699 34.5 -26 41.5s-43 10.5 -77 10.5c-26.667 0 -54.167 -1.5 -82.5 -4.5s-51.833 -6.16699 -70.5 -9.5l-5 168c36 6.66699 69.833 11.5 101.5 14.5s65.167 4.5 100.5 4.5
c84.667 0 149.667 -17 195 -51s68 -82.667 68 -146c0 -54 -16.333 -98.5 -49 -133.5s-79 -57.833 -139 -68.5l-9 -86v-14h-146v13zM231.001 -10c-34 0 -60.167 8.66699 -78.5 26s-27.5 42 -27.5 74s9.16699 56.667 27.5 74s44.5 26 78.5 26s60.167 -8.66699 78.5 -26
s27.5 -42 27.5 -74s-9.16699 -56.667 -27.5 -74s-44.5 -26 -78.5 -26z" />
    <glyph glyph-name="at" unicode="@" horiz-adv-x="916" 
d="M445 -129c-63.333 0 -120.168 8.83203 -170.501 26.499s-93.333 43.334 -129 77.001s-63 74.334 -82 122.001s-28.5 101.5 -28.5 161.5c0 63.333 10.167 120.333 30.5 171s49.333 93.667 87 129s83.334 62.5 137.001 81.5s114.167 28.5 181.5 28.5
c64 0 120.833 -8.16699 170.5 -24.5s91.834 -40.166 126.501 -71.499s61 -69.5 79 -114.5s27 -96.5 27 -154.5c0 -80.667 -18.667 -142.334 -56 -185.001s-91.333 -64 -162 -64c-24 0 -43.333 4.16699 -58 12.5s-26.334 17.5 -35.001 27.5c-10 12 -17.333 25.667 -22 41h-5
c-15.333 -23.333 -38.5 -42.166 -69.5 -56.499s-64.167 -21.5 -99.5 -21.5c-39.333 0 -71.833 14.667 -97.5 44s-38.5 74 -38.5 134c0 36.667 5.83301 70.667 17.5 102s28.5 58.166 50.5 80.499s48.5 39.833 79.5 52.5s65.833 19 104.5 19c28 0 57.333 -3.5 88 -10.5
s58.667 -16.167 84 -27.5l-42 -205c0 -5.33301 -0.666992 -10.5 -2 -15.5s-2 -9.83301 -2 -14.5c0 -15.333 4 -27.666 12 -36.999s22.333 -14 43 -14c24.667 0 44.334 11.667 59.001 35s22 57.666 22 102.999c0 78 -23.667 137.5 -71 178.5s-115 61.5 -203 61.5
c-47.333 0 -89.833 -6.5 -127.5 -19.5s-69.834 -31.833 -96.501 -56.5s-47 -54.5 -61 -89.5s-21 -74.833 -21 -119.5c0 -41.333 6.5 -78 19.5 -110s31.5 -59.333 55.5 -82s53.333 -39.834 88 -51.501s73.667 -17.5 117 -17.5c52.667 0 122 12 208 36l32 -121
c-99.333 -27.333 -179.333 -41 -240 -41zM403.998 164.999c25.333 0.666992 46.999 10.168 64.999 28.501s30 42.5 36 72.5l23 115c-14.667 3.33301 -28.334 5 -41.001 5c-18 0 -34.667 -4 -50 -12s-28.666 -18.667 -39.999 -32s-20.166 -29.333 -26.499 -48
s-9.5 -38.334 -9.5 -59.001c0 -46.667 14.333 -70 43 -70z" />
    <glyph glyph-name="A" unicode="A" horiz-adv-x="825" 
d="M-5 12l245 728h345l245 -728v-12h-228l-47 148h-286l-46 -148h-228v12zM501 324l-28 88l-51 171h-20l-51 -173l-27 -86h177z" />
    <glyph glyph-name="B" unicode="B" horiz-adv-x="794" 
d="M432 -10c-62 0 -122 1.16797 -180 3.50098s-120.333 6.16602 -187 11.499v730c56.667 5.33301 111 9.16602 163 11.499s104.333 3.5 157 3.5c122.667 0 212.667 -17.167 270 -51.5s86 -88.166 86 -161.499c0 -78.667 -45 -130 -135 -154v-4
c52 -9.33301 91.667 -29 119 -59s41 -68.333 41 -115c0 -74.667 -26.833 -129.167 -80.5 -163.5s-138.167 -51.5 -253.5 -51.5zM416 149.001c41.333 0 71.3311 6.49902 89.998 19.499s28 33.5 28 61.5c0 26.667 -8.83301 45.5 -26.5 56.5s-48.167 16.5 -91.5 16.5h-126v-151
c4.66699 -0.666992 9.33398 -1.16699 14.001 -1.5s11.334 -0.666016 20.001 -0.999023s20.167 -0.5 34.5 -0.5h57.5zM394.998 447c42.667 0 72.5 5.33203 89.5 15.999s25.5 29.667 25.5 57c0 26.667 -8.5 45.334 -25.5 56.001s-46.833 16 -89.5 16
c-20.667 0 -40 -0.5 -58 -1.5s-33.667 -2.5 -47 -4.5v-139h105z" />
    <glyph glyph-name="C" unicode="C" horiz-adv-x="653" 
d="M457 -15c-144.667 0 -251.503 31.167 -320.503 93.5s-103.5 159.166 -103.5 290.499c0 130.667 32.833 227.667 98.5 291s166.167 95 301.5 95c23.333 0 49 -1 77 -3s64.333 -5.33301 109 -10v-186l-62.5 5c-16.333 1.33301 -30 2.33301 -41 3s-20.667 1.16699 -29 1.5
s-16.833 0.5 -25.5 0.5c-39.333 0 -71.166 -2.5 -95.499 -7.5s-43.166 -14.5 -56.499 -28.5s-22.333 -33.833 -27 -59.5s-7 -59.5 -7 -101.5c0 -40 2.33301 -72.667 7 -98s13.834 -45.166 27.501 -59.499s32.5 -24 56.5 -29s55 -7.5 93 -7.5c10.667 0 23.5 0.333008 38.5 1
s30.167 1.5 45.5 2.5s29.833 2.33301 43.5 4s24.5 3.16699 32.5 4.5v-187c-56 -10 -110 -15 -162 -15z" />
    <glyph glyph-name="D" unicode="D" horiz-adv-x="851" 
d="M312 -10c-23.333 0 -46.6689 0.333008 -70.002 1s-46 1.5 -68 2.5s-42.333 2.33301 -61 4s-34.667 3.5 -48 5.5v735c70 4 129.167 7 177.5 9s90.5 3 126.5 3c78 0 145.167 -7.5 201.5 -22.5s102.833 -38 139.5 -69s63.834 -70.5 81.501 -118.5s26.5 -105 26.5 -171
c0 -68 -9.33301 -126 -28 -174s-48.167 -87.167 -88.5 -117.5s-92.666 -52.5 -156.999 -66.5s-141.833 -21 -232.5 -21zM409.997 173c32.667 0 59.665 3.00098 80.998 9.00098s38.5 16.5 51.5 31.5s22.167 35.167 27.5 60.5s8 57 8 95c0 36.667 -3 67.667 -9 93
s-15.667 45.666 -29 60.999s-31.166 26.333 -53.499 33s-49.833 10 -82.5 10c-12 0 -25.833 -0.333008 -41.5 -1s-36.5 -2 -62.5 -4v-380c14.667 -2.66699 31.834 -4.66699 51.501 -6s39.167 -2 58.5 -2z" />
    <glyph glyph-name="E" unicode="E" horiz-adv-x="727" 
d="M65 740h616v-176h-381v-106h341v-176h-341v-106h391v-176h-626v740z" />
    <glyph glyph-name="F" unicode="F" horiz-adv-x="706" 
d="M65 740h616v-176h-381v-136h341v-176h-341v-252h-235v740z" />
    <glyph glyph-name="G" unicode="G" horiz-adv-x="771" 
d="M456 -15c-144.667 0 -251.503 31.1689 -320.503 93.502s-103.5 159.166 -103.5 290.499c0 130.667 35.667 227.667 107 291s180.666 95 327.999 95c20.667 0 42.334 -0.666992 65.001 -2s45 -3 67 -5s42.833 -4.5 62.5 -7.5s36.834 -6.16699 51.501 -9.5v-186
c-48.667 7.33301 -92.5 12.666 -131.5 15.999s-71.167 5 -96.5 5c-44.667 0 -80.667 -2.5 -108 -7.5s-48.666 -14.667 -63.999 -29s-25.666 -34.333 -30.999 -60s-8 -59.167 -8 -100.5c0 -40 2.33301 -72.667 7 -98s13.834 -45.166 27.501 -59.499s32.5 -24 56.5 -29
s55 -7.5 93 -7.5h23.5c8.33301 0 17.166 0.333008 26.499 1v200h216v-345c-20 -6.66699 -41.833 -12.834 -65.5 -18.501s-47.5 -10.5 -71.5 -14.5s-47.333 -7.16699 -70 -9.5s-43 -3.5 -61 -3.5z" />
    <glyph glyph-name="H" unicode="H" horiz-adv-x="898" 
d="M65 740h235v-272h298v272h235v-740h-235v292h-298v-292h-235v740z" />
    <glyph glyph-name="I" unicode="I" horiz-adv-x="365" 
d="M65 740h235v-740h-235v740z" />
    <glyph glyph-name="J" unicode="J" horiz-adv-x="364" 
d="M-8 -156c14 34 25.833 65.167 35.5 93.5s17.5 56.333 23.5 84s10.167 56 12.5 85s3.5 60.833 3.5 95.5v538h235v-556c0 -35.333 -2.83301 -68.833 -8.5 -100.5s-14.667 -63.5 -27 -95.5s-28.833 -64.833 -49.5 -98.5s-46 -70.167 -76 -109.5z" />
    <glyph glyph-name="K" unicode="K" horiz-adv-x="810" 
d="M65 740h235v-282h87l158 282h261l-202 -319l-55 -26v-10l58 -28l216 -357h-261l-154 282h-108v-282h-235v740z" />
    <glyph glyph-name="L" unicode="L" horiz-adv-x="644" 
d="M65 740h235v-565h331v-175h-566v740z" />
    <glyph glyph-name="M" unicode="M" horiz-adv-x="1084" 
d="M65 740h315l115 -295l44 -155h6l44 155l115 295h315v-740h-204v492h-10l-70 -223l-101 -242h-184l-101 242l-70 223h-10v-492h-204v740z" />
    <glyph glyph-name="N" unicode="N" horiz-adv-x="882" 
d="M65 740h182l289 -328l67 -84h10v412h204v-740h-182l-275 312l-81 100h-10v-412h-204v740z" />
    <glyph glyph-name="O" unicode="O" horiz-adv-x="866" 
d="M433 -10c-130.667 0 -230.167 32.166 -298.5 96.499s-102.5 158.5 -102.5 282.5c0 124.667 34 219.334 102 284.001s167.667 97 299 97c130 0 229.333 -32.5 298 -97.5s103 -159.5 103 -283.5c0 -123.333 -34.333 -217.333 -103 -282s-168 -97 -298 -97zM433 173.999
c32 0 58.499 2.50098 79.499 7.50098s37.5 14.667 49.5 29s20.333 34.166 25 59.499s7 58.333 7 99c0 39.333 -2.66699 71.666 -8 96.999s-14.166 45.5 -26.499 60.5s-28.833 25.333 -49.5 31s-46.334 8.5 -77.001 8.5c-31.333 0 -57.166 -2.83301 -77.499 -8.5
s-36.833 -15.667 -49.5 -30s-21.5 -34.333 -26.5 -60s-7.5 -58.5 -7.5 -98.5c0 -40.667 2.5 -73.667 7.5 -99s13.5 -45.166 25.5 -59.499s28.333 -24 49 -29s47 -7.5 79 -7.5z" />
    <glyph glyph-name="P" unicode="P" horiz-adv-x="774" 
d="M65 735c94.667 10 181.333 14.999 260 14.999c76 0 141.167 -5.33301 195.5 -16s99 -27.167 134 -49.5s60.833 -51.166 77.5 -86.499s25 -77.333 25 -126c0 -93.333 -35.667 -163.5 -107 -210.5s-178.333 -70.5 -321 -70.5h-29v-191h-235v735zM370.999 369.999
c28.667 0 52.5 1.5 71.5 4.5s34 8.5 45 16.5s18.833 18.5 23.5 31.5s7 29.5 7 49.5c0 19.333 -1.83301 35.5 -5.5 48.5s-10.5 23.333 -20.5 31s-23.667 13 -41 16s-40 4.5 -68 4.5c-12.667 0 -27.334 -0.333008 -44.001 -1s-29.667 -1.66699 -39 -3v-192
c22.667 -4 46.334 -6 71.001 -6z" />
    <glyph glyph-name="Q" unicode="Q" horiz-adv-x="867" 
d="M778 -193c-97.333 26.667 -183.336 52.3311 -258.003 76.998s-139.667 50 -195 76s-101.666 53 -138.999 81s-67.5 58.5 -90.5 91.5s-39.5 68.833 -49.5 107.5s-15 81.667 -15 129c0 59.333 9.16699 112.666 27.5 159.999s44.833 87.333 79.5 120s77 57.667 127 75
s106.333 26 169 26s119 -8.66699 169 -26s92.333 -42.333 127 -75s61.167 -72.5 79.5 -119.5s27.5 -100.5 27.5 -160.5c0 -49.333 -6.33301 -93.666 -19 -132.999s-30.667 -72.666 -54 -99.999s-51.666 -48.5 -84.999 -63.5s-71 -22.5 -113 -22.5
c-8.66699 0 -17.5 0.333008 -26.5 1s-18.167 1.66699 -27.5 3v-14c35.333 -5.33301 65.333 -10.166 90 -14.499s45.834 -7.83301 63.501 -10.5l45 -7l33.5 -5.5c10 -1.66699 19.667 -3 29 -4l33 -3.5zM433.997 173.997c30.667 0 56.501 3.16699 77.501 9.5
s37.833 17 50.5 32s21.667 35 27 60s8 56.167 8 93.5c0 36.667 -2.83301 67.5 -8.5 92.5s-14.834 45.167 -27.501 60.5s-29.5 26.5 -50.5 33.5s-46.5 10.5 -76.5 10.5s-55.333 -3.5 -76 -10.5s-37.5 -18.333 -50.5 -34s-22.333 -36 -28 -61s-8.5 -55.5 -8.5 -91.5
s2.66699 -66.5 8 -91.5s14.333 -45.167 27 -60.5s29.5 -26.333 50.5 -33s46.833 -10 77.5 -10z" />
    <glyph glyph-name="R" unicode="R" horiz-adv-x="793" 
d="M405 223c-12 -0.666992 -24.334 -1.16797 -37.001 -1.50098s-25.667 -0.5 -39 -0.5h-29v-221h-235v735c94.667 10 181.334 15 260.001 15c76 0 141.167 -5 195.5 -15s99 -25.667 134 -47s60.833 -48.666 77.5 -81.999s25 -73 25 -119c0 -102.667 -48.667 -176 -146 -220
l188 -267h-269zM370.999 397.999c28.667 0 52.502 1.33496 71.502 4.00195s34 7.5 45 14.5s18.833 16 23.5 27s7 25.167 7 42.5c0 16.667 -2 30.667 -6 42s-11 20.166 -21 26.499s-23.833 10.833 -41.5 13.5s-39.834 4 -66.501 4c-11.333 0 -25.333 -0.333008 -42 -1
s-30.334 -1.66699 -41.001 -3v-164c8 -2.66699 16.833 -4.33398 26.5 -5.00098s24.5 -1 44.5 -1z" />
    <glyph glyph-name="S" unicode="S" horiz-adv-x="719" 
d="M351 -12c-22 0 -46.334 0.666016 -73.001 1.99902s-54 3.33301 -82 6s-55.667 5.83398 -83 9.50098s-52.666 7.5 -75.999 11.5v186c64 -12.667 119.5 -21.667 166.5 -27s90.833 -8 131.5 -8c42 0 71.167 2.83301 87.5 8.5s24.5 16.167 24.5 31.5
c0 17.333 -8.5 30.5 -25.5 39.5s-46.167 16.167 -87.5 21.5c-100.667 11.333 -174.167 36.833 -220.5 76.5s-69.5 96.834 -69.5 171.501c0 36.667 7.66699 69.5 23 98.5s37.5 53.5 66.5 73.5s64.333 35.333 106 46s88.834 16 141.501 16c18 0 35.833 -0.5 53.5 -1.5
s37 -2.66699 58 -5s44.333 -5.5 70 -9.5s55.5 -9 89.5 -15v-185c-37.333 11.333 -78 20.166 -122 26.499s-84.333 9.5 -121 9.5c-78 0 -117 -15.667 -117 -47c0 -19.333 9.16699 -34.166 27.5 -44.499s50.166 -18.833 95.499 -25.5c98.667 -15.333 170 -40.5 214 -75.5
s66 -84.167 66 -147.5c0 -82.667 -28.167 -143.834 -84.5 -183.501s-142.833 -59.5 -259.5 -59.5z" />
    <glyph glyph-name="T" unicode="T" horiz-adv-x="704" 
d="M234 564h-213v176h662v-176h-214v-564h-235v564z" />
    <glyph glyph-name="U" unicode="U" horiz-adv-x="880" 
d="M440 -10c-73.333 0 -134.501 6.83301 -183.501 20.5s-88.333 34 -118 61s-50.667 61 -63 102s-18.5 88.833 -18.5 143.5v426h235v-440c0 -38 11.667 -69 35 -93s61 -36 113 -36s89.667 12 113 36s35 55 35 93v440h235v-426c0 -54.667 -6.33301 -102.5 -19 -143.5
s-33.667 -75 -63 -102s-68.666 -47.333 -117.999 -61s-110.333 -20.5 -183 -20.5z" />
    <glyph glyph-name="V" unicode="V" horiz-adv-x="815" 
d="M-6 740h255l117 -360l39 -159h10l39 159l117 360h250l-259 -740h-309z" />
    <glyph glyph-name="W" unicode="W" horiz-adv-x="1195" 
d="M8 740h251l68 -389l17 -139h15l26 139l96 389h233l96 -389l26 -139h15l17 139l68 389h251l-176 -740h-318l-64 265l-26 208h-11l-26 -208l-64 -265h-318z" />
    <glyph glyph-name="X" unicode="X" horiz-adv-x="811" 
d="M257 391l-257 349h266l90 -139l42 -74h10l41 74l97 139h266l-268 -364l289 -376h-266l-117 176l-37 64h-10l-35 -64l-121 -176h-266z" />
    <glyph glyph-name="Y" unicode="Y" horiz-adv-x="792" 
d="M280 222l-293 518h253l112 -217l38 -93h10l38 93l112 217h253l-288 -509v-231h-235v222z" />
    <glyph glyph-name="Z" unicode="Z" horiz-adv-x="733" 
d="M32 160l360 394v10h-345v176h636v-154l-361 -400v-10h382v-176h-672v160z" />
    <glyph glyph-name="bracketleft" unicode="[" horiz-adv-x="409" 
d="M75 868h310v-144h-135v-740h135v-144h-310v1028z" />
    <glyph glyph-name="backslash" unicode="\" horiz-adv-x="513" 
d="M21 740h197l274 -860h-197z" />
    <glyph glyph-name="bracketright" unicode="]" horiz-adv-x="409" 
d="M24 -160v144h136v740h-136v144h310v-1028h-310z" />
    <glyph glyph-name="asciicircum" unicode="^" horiz-adv-x="606" 
d="M197 789h212l170 -308h-160l-114 179h-4l-113 -179h-161z" />
    <glyph glyph-name="underscore" unicode="_" horiz-adv-x="723" 
d="M41 -56h642v-164h-642v164z" />
    <glyph glyph-name="grave" unicode="`" horiz-adv-x="342" 
d="M138 607l-133 201h236l61 -191z" />
    <glyph glyph-name="a" unicode="a" horiz-adv-x="652" 
d="M198 -5c-57.333 0 -99.999 14 -127.999 42s-42 67.667 -42 119c0 56.667 17.167 99 51.5 127s87.166 44.333 158.499 49l133 8c-0.666992 9.33301 -2.66699 17.333 -6 24s-8.66602 12 -15.999 16s-17.5 7 -30.5 9s-29.5 3 -49.5 3c-30 0 -62 -1.83301 -96 -5.5
s-67 -8.5 -99 -14.5l-15 154c43.333 7.33301 85.833 12.833 127.5 16.5s79.5 5.5 113.5 5.5c201.333 0 302 -64.333 302 -193v-355h-188l-21 65h-10c-25.333 -25.333 -54.333 -43.333 -87 -54s-65.334 -16 -98.001 -16zM304.001 144c14.667 0 28.835 2.16797 42.502 6.50098
s22.167 9.16602 25.5 14.499v69l-56 -5c-20.667 -2 -34.834 -6 -42.501 -12s-11.5 -16.667 -11.5 -32c0 -14.667 3.16699 -25.167 9.5 -31.5s17.166 -9.5 32.499 -9.5z" />
    <glyph glyph-name="b" unicode="b" horiz-adv-x="736" 
d="M366 -12c-17.333 0 -34.667 0.167969 -52 0.500977s-37.666 1.66602 -60.999 3.99902s-50.833 5.83301 -82.5 10.5s-70.5 11.334 -116.5 20.001v785h230v-324c19.333 23.333 43.333 40 72 50s61.667 15 99 15c83.333 0 146 -22.167 188 -66.5s63 -110.833 63 -199.5
c0 -48 -8.16699 -90.5 -24.5 -127.5s-39.333 -67.833 -69 -92.5s-65.334 -43.334 -107.001 -56.001s-88.167 -19 -139.5 -19zM360.999 141.001c24.667 0 44.668 1.5 60.001 4.5s27 9 35 18s13.333 21.833 16 38.5s4 38.667 4 66c0 22 -1.16699 40 -3.5 54
s-6.83301 25 -13.5 33s-15.834 13.667 -27.501 17s-26.834 5 -45.501 5c-36 0 -62 -6 -78 -18s-24 -30.667 -24 -56v-156c18.667 -4 44.334 -6 77.001 -6z" />
    <glyph glyph-name="c" unicode="c" horiz-adv-x="582" 
d="M324 -9c-195.333 0 -293.001 93 -293.001 279s97.667 279 293 279c40 0 79 -1.66699 117 -5s71 -8 99 -14v-177c-36 3.33301 -70 6 -102 8s-62.667 3 -92 3c-17.333 0 -31.666 -1.5 -42.999 -4.5s-20.5 -8 -27.5 -15s-12 -16.333 -15 -28s-4.5 -26.5 -4.5 -44.5
c0 -36 6.33301 -61 19 -75s35.667 -21 69 -21c42 0 77.667 0.833008 107 2.5s59 4.5 89 8.5v-177c-28 -6 -61 -10.667 -99 -14s-77 -5 -117 -5z" />
    <glyph glyph-name="d" unicode="d" horiz-adv-x="738" 
d="M281 -11c-83.333 0 -145.999 22.166 -187.999 66.499s-63 110.833 -63 199.5c0 48 8.16699 90.5 24.5 127.5s39.333 67.833 69 92.5s65.334 43.334 107.001 56.001s88.167 19 139.5 19c14.667 0 28.667 -0.333008 42 -1s26.666 -1.66699 39.999 -3v262h230v-808h-199
l-19 71h-10c-18.667 -29.333 -41.834 -50.333 -69.501 -63s-62.167 -19 -103.5 -19zM350.001 155.999c36 0 61.667 6.16992 77 18.5029s23.666 32.166 24.999 59.499v150c-26.667 5.33301 -56.334 8 -89.001 8c-22 0 -39.667 -1.5 -53 -4.5s-23.833 -8.83301 -31.5 -17.5
s-12.667 -21 -15 -37s-3.5 -37 -3.5 -63c0 -22.667 1.16699 -41.334 3.5 -56.001s6.83301 -26.334 13.5 -35.001s15.834 -14.667 27.501 -18s26.834 -5 45.501 -5z" />
    <glyph glyph-name="e" unicode="e" horiz-adv-x="656" 
d="M345 -9c-106.667 0 -185.667 22.668 -237 68.001s-77 115 -77 209c0 187.333 106.333 281 319 281c90.667 0 159.167 -19.667 205.5 -59s69.5 -97.333 69.5 -174c0 -34.667 -4.33301 -67 -13 -97h-353c2 -12.667 5.16699 -22.834 9.5 -30.501s10.5 -13.5 18.5 -17.5
s18.5 -6.66699 31.5 -8s28.833 -2 47.5 -2c18 0 37.833 0.5 59.5 1.5s43 2.5 64 4.5s40.833 4.16699 59.5 6.5s34 4.83301 46 7.5l6 -159c-38 -10 -79 -17.667 -123 -23s-88.333 -8 -133 -8zM338 396.001c-28 0 -47.8311 -5.16699 -59.498 -15.5
s-18.834 -29.833 -21.501 -58.5h167c-1.33301 26.667 -8.33301 45.667 -21 57s-34.334 17 -65.001 17z" />
    <glyph glyph-name="f" unicode="f" horiz-adv-x="546" 
d="M146 349h-130.998v191h132v23c0 46 7.16699 85 21.5 117s37.166 58.167 68.499 78.5s71.666 35 120.999 44s109 13.5 179 13.5l10 -162c-60 0 -103.5 -7 -130.5 -21s-40.5 -36.333 -40.5 -67v-26h156v-191h-156v-349h-230v349z" />
    <glyph glyph-name="g" unicode="g" horiz-adv-x="736" 
d="M332 -220c-23.333 0 -47.6689 0.501953 -73.002 1.50195s-49.666 2.5 -72.999 4.5s-45.166 4.16699 -65.499 6.5s-37.5 5.16602 -51.5 8.49902l13 160c10 -2 22.333 -4 37 -6s30.5 -4 47.5 -6s35 -3.66699 54 -5s38.167 -2 57.5 -2c24.667 0 48.5 1.5 71.5 4.5
s43.5 8.5 61.5 16.5s32.333 18.667 43 32s16 30.333 16 51v70h-10c-17.333 -32 -41 -55 -71 -69s-65.667 -21 -107 -21c-83.333 0 -146 20.167 -188 60.5s-63 101.5 -63 183.5c0 46 8.16699 86.5 24.5 121.5s39.333 64.167 69 87.5s65.334 41 107.001 53s88.167 18 139.5 18
c16.667 0 33.5 -0.666992 50.5 -2s37 -4 60 -8s50.667 -10 83 -18s71.833 -18.667 118.5 -32v-419c0 -54.667 -9.83301 -100.667 -29.5 -138s-45.834 -67.333 -78.501 -90s-70.167 -38.834 -112.5 -48.501s-85.833 -14.5 -130.5 -14.5zM350.997 191.002
c38 0 64.499 7 79.499 21s22.5 36 22.5 66v106c-26.667 5.33301 -56.334 8 -89.001 8c-22 0 -39.667 -1.16699 -53 -3.5s-23.833 -7.33301 -31.5 -15s-12.667 -18.5 -15 -32.5s-3.5 -32.667 -3.5 -56c0 -18.667 1.16699 -34.167 3.5 -46.5s6.83301 -22 13.5 -29
s15.834 -11.833 27.501 -14.5s26.834 -4 45.501 -4z" />
    <glyph glyph-name="h" unicode="h" horiz-adv-x="739" 
d="M55 808l229.997 0.000976562v-324c44.667 19.333 86.834 35.166 126.501 47.499s74.5 18.5 104.5 18.5c52.667 0 94.334 -13.667 125.001 -41s46 -65 46 -113v-396h-230v321c0 20 -3.66699 34.333 -11 43s-19.666 13 -36.999 13c-14 0 -32.333 -2 -55 -6
s-45.667 -9.33301 -69 -16v-355h-230v808z" />
    <glyph glyph-name="i" unicode="i" horiz-adv-x="340" 
d="M170 594c-44 0 -75.167 9.16699 -93.5 27.5s-27.5 48.5 -27.5 90.5c0 41.333 9.16699 71.333 27.5 90s49.5 28 93.5 28c45.333 0 77 -9.66699 95 -29s27 -49 27 -89s-9 -69.667 -27 -89s-49.667 -29 -95 -29zM55 540h230v-540h-230v540z" />
    <glyph glyph-name="j" unicode="j" horiz-adv-x="337" 
d="M168 594c-44 0 -75.167 9.16699 -93.5 27.5s-27.5 48.5 -27.5 90.5c0 41.333 9.16699 71.333 27.5 90s49.5 28 93.5 28c45.333 0 77 -9.66699 95 -29s27 -49 27 -89s-9 -69.667 -27 -89s-49.667 -29 -95 -29zM22 -199c6.66699 30.667 12.335 58.999 17.002 84.999
s8.5 53.333 11.5 82s5 60.5 6 95.5s1.5 77.167 1.5 126.5v55.5c0 19.667 -0.333008 42.834 -1 69.501s-1.33398 58.167 -2.00098 94.5s-1.33398 79.833 -2.00098 130.5h230v-472c-7.33301 -56 -18.5 -107 -33.5 -153s-33.833 -91 -56.5 -135z" />
    <glyph glyph-name="k" unicode="k" horiz-adv-x="692" 
d="M55 808h230v-462h41l111 194h252l-173 -253l-29 -6v-4l29 -6l191 -271h-251l-132 211h-39v-211h-230v808z" />
    <glyph glyph-name="l" unicode="l" horiz-adv-x="340" 
d="M55 808h230v-808h-230v808z" />
    <glyph glyph-name="m" unicode="m" horiz-adv-x="1062" 
d="M56 540h192.997l11 -63h10c16 10 32.833 19.5 50.5 28.5s35.5 16.667 53.5 23s35.833 11.5 53.5 15.5s34.167 6 49.5 6c35.333 0 65.833 -6.33301 91.5 -19s45.167 -30.667 58.5 -54h5c16 10 32.833 19.5 50.5 28.5s35.5 16.667 53.5 23s35.833 11.5 53.5 15.5
s34.167 6 49.5 6c52.667 0 94.334 -13.667 125.001 -41s46 -65 46 -113v-396h-230v316c0 20 -3.66699 34.333 -11 43s-19.666 13 -36.999 13c-4.66699 0 -10.5 -0.5 -17.5 -1.5s-14.5 -2.33301 -22.5 -4s-15.833 -3.5 -23.5 -5.5s-14.5 -4 -20.5 -6v-355h-230v316
c0 20 -3.66699 34.333 -11 43s-19.666 13 -36.999 13c-4.66699 0 -10.5 -0.5 -17.5 -1.5s-14.5 -2.33301 -22.5 -4s-15.833 -3.5 -23.5 -5.5s-14.5 -4 -20.5 -6v-355h-230v540z" />
    <glyph glyph-name="n" unicode="n" horiz-adv-x="740" 
d="M56 540h192.998l11 -63h10c49.333 23.333 95 41.333 137 54s78.667 19 110 19c52.667 0 94.334 -13.667 125.001 -41s46 -65 46 -113v-396h-230v321c0 20 -3.66699 34.333 -11 43s-19.666 13 -36.999 13c-15.333 0 -34.5 -2.16699 -57.5 -6.5s-45.167 -9.5 -66.5 -15.5
v-355h-230v540z" />
    <glyph glyph-name="o" unicode="o" horiz-adv-x="727" 
d="M364 -11c-109.333 0 -192.5 24 -249.5 72s-85.5 117.667 -85.5 209s28.5 160.833 85.5 208.5s140.167 71.5 249.5 71.5s192.333 -23.833 249 -71.5s85 -117.167 85 -208.5s-28.333 -161 -85 -209s-139.667 -72 -249 -72zM364 161c20 0 36.667 1.5 50 4.5
s24 8.66699 32 17s13.667 19.5 17 33.5s5 32 5 54s-1.66699 39.833 -5 53.5s-9 24.5 -17 32.5s-18.667 13.5 -32 16.5s-30 4.5 -50 4.5s-36.667 -1.5 -50 -4.5s-24 -8.5 -32 -16.5s-13.833 -19 -17.5 -33s-5.5 -31.667 -5.5 -53c0 -22 1.83301 -40 5.5 -54s9.5 -25 17.5 -33
s18.667 -13.667 32 -17s30 -5 50 -5z" />
    <glyph glyph-name="p" unicode="p" horiz-adv-x="740" 
d="M56 540l199.003 0.000976562l19 -73h10c17.333 30 40.666 51.333 69.999 64s64 19 104 19c83.333 0 146 -22.167 188 -66.5s63 -110.833 63 -199.5c0 -48 -8.16699 -90.5 -24.5 -127.5s-39.333 -67.833 -69 -92.5s-65.334 -43.334 -107.001 -56.001
s-88.167 -19 -139.5 -19c-14.667 0 -28.834 0.333008 -42.501 1s-27.167 1.66699 -40.5 3v-213h-230v760zM376.003 147.001c22 0 39.6689 1.49805 53.002 4.49805s23.833 8.83301 31.5 17.5s12.667 21 15 37s3.5 37 3.5 63c0 22.667 -1.16699 41.334 -3.5 56.001
s-6.83301 26.334 -13.5 35.001s-15.834 14.667 -27.501 18s-26.834 5 -45.501 5c-38 0 -64.667 -7 -80 -21s-23 -36 -23 -66v-141c26.667 -5.33301 56.667 -8 90 -8z" />
    <glyph glyph-name="q" unicode="q" horiz-adv-x="737" 
d="M465 73c-22.667 -30 -49.002 -51.334 -79.002 -64.001s-65 -19 -105 -19c-83.333 0 -146 22.167 -188 66.5s-63 110.833 -63 199.5c0 48 8.16699 90.5 24.5 127.5s39.333 67.833 69 92.5s65.334 43.334 107.001 56.001s88.167 19 139.5 19c30.667 0 60.834 -1 90.501 -3
s58 -4.5 85 -7.5s52.167 -6 75.5 -9s44 -5.5 62 -7.5v-744h-218v293zM349.998 156.999c38 0 64.665 7.00195 79.998 21.002s23 36 23 66v141c-26.667 5.33301 -56.667 8 -90 8c-22 0 -39.667 -1.5 -53 -4.5s-23.833 -8.83301 -31.5 -17.5s-12.667 -21 -15 -37
s-3.5 -37 -3.5 -63c0 -22.667 1.16699 -41.334 3.5 -56.001s6.83301 -26.334 13.5 -35.001s15.834 -14.667 27.501 -18s26.834 -5 45.501 -5z" />
    <glyph glyph-name="r" unicode="r" horiz-adv-x="524" 
d="M56 540h193.001l11 -83h4c25.333 23.333 52.833 43.333 82.5 60s58.167 27.667 85.5 33h81v-179h-77c-32 -3.33301 -61.333 -8.83301 -88 -16.5s-47.334 -17.167 -62.001 -28.5v-326h-230v540z" />
    <glyph glyph-name="s" unicode="s" horiz-adv-x="615" 
d="M298 -12c-18 0 -37.8311 0.50293 -59.498 1.50293s-44 2.5 -67 4.5s-46.167 4.33301 -69.5 7s-45 5.66699 -65 9v150c51.333 -8.66699 96.5 -15 135.5 -19s76.5 -6 112.5 -6c30 0 50.833 1.5 62.5 4.5s17.5 8.5 17.5 16.5c0 8.66699 -6.16699 15.167 -18.5 19.5
s-35.833 8.16602 -70.5 11.499c-24.667 2 -50.667 4.83301 -78 8.5s-52.5 11.334 -75.5 23.001s-42.167 29 -57.5 52s-23 54.833 -23 95.5c0 58.667 24.333 104.334 73 137.001s116.334 49 203.001 49c17.333 0 34.666 -0.333008 51.999 -1s35.666 -1.83398 54.999 -3.50098
s40.166 -3.83398 62.499 -6.50098s47.5 -6 75.5 -10l-6 -165c-42 9.33301 -83 16.666 -123 21.999s-72.667 8 -98 8c-26.667 0 -45.667 -1.83301 -57 -5.5s-17 -9.83398 -17 -18.501c0 -4.66699 1.83301 -8.5 5.5 -11.5s10 -5.83301 19 -8.5s21.167 -5 36.5 -7
s34.333 -4 57 -6c70.667 -6.66699 122.5 -23.5 155.5 -50.5s49.5 -65.5 49.5 -115.5c0 -123.333 -95.667 -185 -287 -185z" />
    <glyph glyph-name="t" unicode="t" horiz-adv-x="510" 
d="M327 -17c-71.333 0 -125.333 16.333 -162 49s-55 81 -55 145v172h-88v191h104l36 173l176 17v-190h135v-191h-133v-119c0 -28.667 5 -48.167 15 -58.5s29 -15.5 57 -15.5c18.667 0 39 4.66699 61 14v-169c-8 -2.66699 -17.5 -5 -28.5 -7s-23 -3.83301 -36 -5.5
s-26.5 -3 -40.5 -4s-27.667 -1.5 -41 -1.5z" />
    <glyph glyph-name="u" unicode="u" horiz-adv-x="740" 
d="M223 -10c-56 0 -98.5 13.668 -127.5 41.001s-43.5 65 -43.5 113v396h230v-330c0 -20 3.66699 -34.333 11 -43s19.666 -13 36.999 -13c15.333 0 34.5 2.16699 57.5 6.5s45.167 9.5 66.5 15.5v364h230v-540h-193l-11 63h-4l-66.5 -34
c-19 -9.33301 -37.667 -16.833 -56 -22.5s-37.666 -9.83398 -57.999 -12.501s-44.5 -4 -72.5 -4z" />
    <glyph glyph-name="v" unicode="v" horiz-adv-x="707" 
d="M4 516v24h253l54 -192l40 -167h11l39 167l58 192h246v-24l-213 -516h-280z" />
    <glyph glyph-name="w" unicode="w" horiz-adv-x="934" 
d="M4 536v4h231l55 -267l8 -70h12l8 70l60 267h178l60 -267l8 -70h12l8 70l55 267h231v-4l-160 -536h-247l-43 206l-7 64h-12l-7 -64l-43 -206h-247z" />
    <glyph glyph-name="x" unicode="x" horiz-adv-x="697" 
d="M-1 20l195 259l-187 250v11h242l63 -87l31 -51h10l32 52l63 86h242v-11l-187 -250l195 -259v-20h-244l-70 92l-31 59h-10l-31 -59l-69 -92h-244v20z" />
    <glyph glyph-name="y" unicode="y" horiz-adv-x="701" 
d="M161 -196v19l78 190l-240 503v24h251l54 -171l42 -131h11l41 131l58 171h244v-24l-324 -736z" />
    <glyph glyph-name="z" unicode="z" horiz-adv-x="650" 
d="M36 140l271 228v10h-261v162h558v-140l-253 -226v-12h263v-162h-578v140z" />
    <glyph glyph-name="braceleft" unicode="{" horiz-adv-x="354" 
d="M27 438c23.333 0 38.5 6.83496 45.5 20.502s10.5 33.834 10.5 60.501v222c0 46 9.33301 78.667 28 98s48 29 88 29c6 0 15 -0.166992 27 -0.5s24.167 -0.833008 36.5 -1.5s23.5 -1.16699 33.5 -1.5s16.667 -0.833008 20 -1.5v-139h-7c-16 0 -27.5 -3.33301 -34.5 -10
s-10.5 -17.334 -10.5 -32.001v-211c0 -31.333 -7.83301 -57.5 -23.5 -78.5s-36.167 -33.833 -61.5 -38.5c25.333 -3.33301 45.833 -15.333 61.5 -36s23.5 -46.667 23.5 -78v-214c0 -14.667 3.5 -25.334 10.5 -32.001s18.5 -10 34.5 -10h7v-139
c-3.33301 -0.666992 -10 -1.33398 -20 -2.00098s-21.167 -1.16699 -33.5 -1.5l-36.5 -1c-12 -0.333008 -21 -0.5 -27 -0.5c-40 0 -69.333 9.66699 -88 29s-28 52 -28 98v225c0 26.667 -3.5 46.667 -10.5 60s-22.167 20 -45.5 20v166z" />
    <glyph glyph-name="bar" unicode="|" horiz-adv-x="365" 
d="M290 808v-1028h-215v1028h215z" />
    <glyph glyph-name="braceright" unicode="}" horiz-adv-x="354" 
d="M327 272c-23.333 0 -38.5 -6.66895 -45.5 -20.002s-10.5 -33.333 -10.5 -60v-225c0 -46 -9.33301 -78.667 -28 -98s-48 -29 -88 -29c-6 0 -15 0.166992 -27 0.5l-36.5 1c-12.333 0.333008 -23.666 0.833008 -33.999 1.5s-16.833 1.33398 -19.5 2.00098v139h7
c16 0 27.5 3.33301 34.5 10s10.5 17.334 10.5 32.001v214c0 31.333 7.83301 57.333 23.5 78s36.167 32.667 61.5 36c-25.333 4.66699 -45.833 17.5 -61.5 38.5s-23.5 47.167 -23.5 78.5v211c0 14.667 -3.5 25.334 -10.5 32.001s-18.5 10 -34.5 10h-7v139
c2.66699 0.666992 9.16699 1.16699 19.5 1.5s21.666 0.833008 33.999 1.5s24.5 1.16699 36.5 1.5s21 0.5 27 0.5c40 0 69.333 -9.66699 88 -29s28 -52 28 -98v-222c0 -26.667 3.5 -46.834 10.5 -60.501s22.167 -20.5 45.5 -20.5v-166z" />
    <glyph glyph-name="asciitilde" unicode="~" horiz-adv-x="757" 
d="M26 258c26 30.667 48.668 55.8311 68.001 75.498s37.5 35.334 54.5 47.001s33.5 19.834 49.5 24.501s33 7 51 7c24.667 0 47.167 -4 67.5 -12s39.833 -16.667 58.5 -26s36.834 -18 54.501 -26s35.834 -12 54.501 -12c24 0 46.167 6.5 66.5 19.5
s41.166 33.167 62.499 60.5l118 -70l-41.5 -59.5c-15 -21.667 -31.5 -41.667 -49.5 -60s-38 -33.833 -60 -46.5s-46 -19 -72 -19c-24.667 0 -47.167 4 -67.5 12s-39.833 16.833 -58.5 26.5s-36.834 18.5 -54.501 26.5s-35.834 12 -54.501 12
c-23.333 0 -45.333 -6.66699 -66 -20s-41.667 -33.333 -63 -60z" />
    <glyph glyph-name="uni00A0" unicode="&#xa0;" horiz-adv-x="212" 
 />
    <glyph glyph-name="exclamdown" unicode="&#xa1;" horiz-adv-x="319" 
d="M159 550c34 0 60.167 -8.66699 78.5 -26s27.5 -42 27.5 -74s-9.16699 -56.667 -27.5 -74s-44.5 -26 -78.5 -26s-60.167 8.66699 -78.5 26s-27.5 42 -27.5 74s9.16699 56.667 27.5 74s44.5 26 78.5 26zM91 263h138v-10l42 -443v-10h-223v10l43 443v10z" />
    <glyph glyph-name="cent" unicode="&#xa2;" horiz-adv-x="589" 
d="M283 -7c-168.667 10.667 -253.001 103 -253.001 277c0 172.667 84.333 265 253 277v113h136v-114c22.667 -1.33301 44.167 -3.5 64.5 -6.5s38.833 -6.16699 55.5 -9.5v-177c-36 3.33301 -70 6 -102 8s-62.667 3 -92 3c-17.333 0 -31.666 -1.5 -42.999 -4.5
s-20.5 -8 -27.5 -15s-12 -16.333 -15 -28s-4.5 -26.5 -4.5 -44.5c0 -36 6.33301 -61 19 -75s35.667 -21 69 -21c42 0 77.667 0.833008 107 2.5s59 4.5 89 8.5v-177c-16.667 -3.33301 -35.167 -6.5 -55.5 -9.5s-41.833 -5.16699 -64.5 -6.5v-114h-136v113z" />
    <glyph glyph-name="sterling" unicode="&#xa3;" horiz-adv-x="789" 
d="M41 462h164v41c0 82.667 29 144.5 87 185.5s145 61.5 261 61.5c18 0 35 -0.333008 51 -1s31.833 -2 47.5 -4s31.5 -4.66699 47.5 -8s33 -7.33301 51 -12l-6 -182c-32 5.33301 -61.5 9.33301 -88.5 12s-52.5 4 -76.5 4c-51.333 0 -87.333 -4.33301 -108 -13
s-31 -23 -31 -43v-41h221v-174h-221v-92h295v-196h-694v198h164v90h-164v174z" />
    <glyph glyph-name="currency" unicode="&#xa4;" horiz-adv-x="665" 
d="M46 163l55.002 54.001l33 23c-21.333 16 -38 35 -50 57s-18 46.333 -18 73s6 50.834 18 72.501s29 40.5 51 56.5l-34 24l-55 54l79 79l55 -54l43 -63c16.667 4 34.167 7.16699 52.5 9.5s37.5 3.5 57.5 3.5c19.333 0 38.166 -1.16699 56.499 -3.5s35.5 -5.5 51.5 -9.5
l44 63l55 54l79 -79l-54 -54l-35 -24c22 -16 39 -34.833 51 -56.5s18 -45.834 18 -72.501s-6 -50.834 -18 -72.501s-28.667 -40.5 -50 -56.5l34 -24l54 -54l-79 -79l-55 54l-43 62c-32 -8.66699 -68.333 -13 -109 -13c-42.667 0 -79.334 4.33301 -110.001 13l-43 -62
l-55 -54zM199.002 370.001c0 -25.333 12 -44.5 36 -57.5s56.667 -19.5 98 -19.5c40.667 0 73 6.5 97 19.5s36 32.167 36 57.5c0 27.333 -12.5 46.833 -37.5 58.5s-56.833 17.5 -95.5 17.5c-41.333 0 -74 -6.33301 -98 -19s-36 -31.667 -36 -57z" />
    <glyph glyph-name="yen" unicode="&#xa5;" horiz-adv-x="864" 
d="M106 377h124l-205 363h253l112 -217l38 -93h10l38 93l112 217h253l-206 -363h113v-131h-195v-64h195v-131h-195v-51h-235v51h-212v131h212v64h-212v131z" />
    <glyph glyph-name="brokenbar" unicode="&#xa6;" horiz-adv-x="367" 
d="M76 205h215v-425h-215v425zM76 808h215v-425h-215v425z" />
    <glyph glyph-name="section" unicode="&#xa7;" horiz-adv-x="642" 
d="M310 -12c-18 0 -37.8311 0.501953 -59.498 1.50195s-44 2.5 -67 4.5s-46.167 4.33301 -69.5 7s-45 5.66699 -65 9v150c51.333 -8.66699 96.5 -15 135.5 -19s76.5 -6 112.5 -6c30 0 50.833 1.5 62.5 4.5s17.5 8.5 17.5 16.5c0 8.66699 -6.16699 15.167 -18.5 19.5
s-35.833 8.16602 -70.5 11.499c-24.667 2 -50.667 4.83301 -78 8.5s-52.5 11.334 -75.5 23.001s-42.167 29 -57.5 52s-23 54.833 -23 95.5s13 76 39 106c-12 11.333 -21.5 25.333 -28.5 42s-10.5 37 -10.5 61c0 58.667 24.333 104.334 73 137.001s116.334 49 203.001 49
c17.333 0 34.666 -0.333008 51.999 -1s35.666 -1.83398 54.999 -3.50098s40.166 -3.83398 62.499 -6.50098s47.5 -6 75.5 -10l-6 -165c-42 9.33301 -83 16.666 -123 21.999s-72.667 8 -98 8c-26.667 0 -45.667 -1.83301 -57 -5.5s-17 -9.83398 -17 -18.501
c0 -4.66699 1.83301 -8.5 5.5 -11.5s10 -5.83301 19 -8.5s21.167 -5 36.5 -7s34.333 -4 57 -6c70.667 -6.66699 122.5 -23.5 155.5 -50.5s49.5 -65.5 49.5 -115.5c0 -48 -14 -86.333 -42 -115c28 -23.333 42 -54.666 42 -93.999c0 -123.333 -95.667 -185 -287 -185z
M374.002 322.002c2 6 3.00098 13.001 3.00098 21.001c0 23.333 -4.16699 39.666 -12.5 48.999s-23.833 15.666 -46.5 18.999l-40 6c-2.66699 -8 -4 -17.667 -4 -29c0 -18 4.66699 -31.167 14 -39.5s26.666 -15.166 51.999 -20.499z" />
    <glyph glyph-name="dieresis" unicode="&#xa8;" horiz-adv-x="599" 
d="M149 606c-39.333 0 -67.333 8.33301 -84 25s-25 43.667 -25 81s8.33301 64.166 25 80.499s44.667 24.5 84 24.5c40 0 68.167 -8.66699 84.5 -26s24.5 -43.666 24.5 -78.999c0 -37.333 -8.16699 -64.333 -24.5 -81s-44.5 -25 -84.5 -25zM446 606
c-39.333 0 -67.333 8.33301 -84 25s-25 43.667 -25 81s8.33301 64.166 25 80.499s44.667 24.5 84 24.5c40 0 68.167 -8.66699 84.5 -26s24.5 -43.666 24.5 -78.999c0 -37.333 -8.16699 -64.333 -24.5 -81s-44.5 -25 -84.5 -25z" />
    <glyph glyph-name="copyright" unicode="&#xa9;" horiz-adv-x="812" 
d="M426 164c-126.667 0 -190 68.335 -190 205.002s63.333 205 190 205c16 0 32.5 -1 49.5 -3s31.5 -4.66699 43.5 -8v-103c-18 3.33301 -33.5 5.66602 -46.5 6.99902s-23.5 2 -31.5 2c-16.667 0 -30.167 -1.83301 -40.5 -5.5s-18.333 -9.5 -24 -17.5s-9.5 -18.333 -11.5 -31
s-3 -27.667 -3 -45c0 -35.333 4.83301 -61 14.5 -77s30.5 -24 62.5 -24c7.33301 0 18 0.666992 32 2s30 3.66602 48 6.99902v-103c-12 -3.33301 -26.5 -6 -43.5 -8s-33.5 -3 -49.5 -3zM406 -9.99805c-56 0 -106.833 9.16699 -152.5 27.5s-84.5 44.166 -116.5 77.499
s-56.833 73.333 -74.5 120s-26.5 98.334 -26.5 155.001s8.83301 108.334 26.5 155.001s42.5 86.667 74.5 120s70.833 59.166 116.5 77.499s96.5 27.5 152.5 27.5s106.833 -9.16699 152.5 -27.5s84.5 -44.166 116.5 -77.499s56.833 -73.333 74.5 -120
s26.5 -98.334 26.5 -155.001s-8.83301 -108.334 -26.5 -155.001s-42.5 -86.667 -74.5 -120s-70.833 -59.166 -116.5 -77.499s-96.5 -27.5 -152.5 -27.5zM406 88.002c42 0 79.333 6.66699 112 20s60.167 32.333 82.5 57s39.5 54.334 51.5 89.001s18 73.334 18 116.001
s-6 81.334 -18 116.001s-29.167 64.334 -51.5 89.001s-49.833 43.667 -82.5 57s-70 20 -112 20s-79.5 -6.66699 -112.5 -20s-60.667 -32.333 -83 -57s-39.5 -54.334 -51.5 -89.001s-18 -73.334 -18 -116.001s6 -81.334 18 -116.001s29.167 -64.334 51.5 -89.001
s50 -43.667 83 -57s70.5 -20 112.5 -20z" />
    <glyph glyph-name="ordfeminine" unicode="&#xaa;" horiz-adv-x="530" 
d="M169 348c-44 0 -78.499 11.501 -103.499 34.501s-37.5 54.167 -37.5 93.5c0 38 14.333 67 43 87s69.334 31 122.001 33l103 4c-0.666992 8 -1.83398 14.167 -3.50098 18.5s-4.83398 7.5 -9.50098 9.5s-10.834 3.16699 -18.501 3.5s-17.5 0.5 -29.5 0.5
c-23.333 0 -49.666 -0.833008 -78.999 -2.5s-57.333 -4.16699 -84 -7.5l-7 106c30 6 61.5 10.5 94.5 13.5s64.5 4.5 94.5 4.5c79.333 0 136.833 -9.83301 172.5 -29.5s53.5 -51.167 53.5 -94.5v-270h-152l-9 47h-4c-18 -14.667 -40 -26.834 -66 -36.501
s-52.667 -14.5 -80 -14.5zM246.001 468.001c8.66699 0 18 0.666992 28 2s17.667 3 23 5v33l-52 -4c-14 -2.66699 -24 -4.5 -30 -5.5s-9 -4.16699 -9 -9.5c0 -14 13.333 -21 40 -21z" />
    <glyph glyph-name="guillemotleft" unicode="&#xab;" horiz-adv-x="848" 
d="M25 268v4l208 238h230l-208 -238v-4l208 -238h-230zM382 268v4l208 238h230l-208 -238v-4l208 -238h-230z" />
    <glyph glyph-name="logicalnot" unicode="&#xac;" horiz-adv-x="939" 
d="M42 449h834v-362h-224v179h-610v183z" />
    <glyph glyph-name="uni00AD" unicode="&#xad;" horiz-adv-x="596" 
d="M52 362h492v-164h-492v164z" />
    <glyph glyph-name="registered" unicode="&#xae;" horiz-adv-x="694" 
d="M239 608c17.333 1.33301 34.167 2.5 50.5 3.5s32.5 1.5 48.5 1.5c88 0 132 -33.333 132 -100c0 -22 -4.5 -40.667 -13.5 -56s-22.5 -26 -40.5 -32l60 -122h-81l-45 99h-31v-99h-80v305zM338.001 462c20.667 0 34.168 3.83398 40.501 11.501s9.5 20.167 9.5 37.5
c0 13.333 -2.83301 24.166 -8.5 32.499s-16.834 12.5 -33.501 12.5h-27v-94h19zM347.002 144.001c-46 0 -87.833 7.33301 -125.5 22s-69.834 35.334 -96.501 62.001s-47.334 58.667 -62.001 96s-22 78.666 -22 123.999s7.33301 86.666 22 123.999s35.334 69.333 62.001 96
s58.834 47.334 96.501 62.001s79.5 22 125.5 22s87.833 -7.33301 125.5 -22s69.834 -35.334 96.501 -62.001s47.334 -58.667 62.001 -96s22 -78.666 22 -123.999s-7.33301 -86.666 -22 -123.999s-35.334 -69.333 -62.001 -96s-58.834 -47.334 -96.501 -62.001
s-79.5 -22 -125.5 -22zM347.002 222.001c34.667 0 65.834 5.33301 93.501 16s51 25.834 70 45.501s33.5 43.5 43.5 71.5s15 59 15 93s-5 65 -15 93s-24.5 51.833 -43.5 71.5s-42.333 34.834 -70 45.501s-58.834 16 -93.501 16c-35.333 0 -66.666 -5.33301 -93.999 -16
s-50.5 -25.834 -69.5 -45.501s-33.5 -43.5 -43.5 -71.5s-15 -59 -15 -93s5 -65 15 -93s24.5 -51.833 43.5 -71.5s42.167 -34.834 69.5 -45.501s58.666 -16 93.999 -16z" />
    <glyph glyph-name="macron" unicode="&#xaf;" horiz-adv-x="578" 
d="M51 791h466v-148h-466v148z" />
    <glyph glyph-name="degree" unicode="&#xb0;" horiz-adv-x="526" 
d="M264 371c-35.333 0 -67.666 4.66699 -96.999 14s-54.666 22.333 -75.999 39s-37.833 36.667 -49.5 60s-17.5 48.666 -17.5 75.999s5.83301 52.666 17.5 75.999s28.167 43.5 49.5 60.5s46.666 30.167 75.999 39.5s61.666 14 96.999 14c34.667 0 66.667 -4.66699 96 -14
s54.5 -22.5 75.5 -39.5s37.333 -37.167 49 -60.5s17.5 -48.666 17.5 -75.999s-5.83301 -52.666 -17.5 -75.999s-28 -43.333 -49 -60s-46.167 -29.667 -75.5 -39s-61.333 -14 -96 -14zM264 484c34 0 58.667 6.5 74 19.5s23 31.833 23 56.5s-7.66699 43.667 -23 57
s-40 20 -74 20s-59 -6.66699 -75 -20s-24 -32.333 -24 -57s8 -43.5 24 -56.5s41 -19.5 75 -19.5z" />
    <glyph glyph-name="plusminus" unicode="&#xb1;" horiz-adv-x="553" 
d="M49 491h160v155h134v-155h160v-134h-160v-145h-134v145h-160v134zM50 168h454v-134h-454v134z" />
    <glyph glyph-name="twosuperior" unicode="&#xb2;" horiz-adv-x="562" 
d="M26 385c0 52.667 16.499 96.999 49.499 132.999s84.833 65.667 155.5 89l56 19.5c14 5 24.667 9.33301 32 13s12 7 14 10s3 6.5 3 10.5c0 22 -34.333 33 -103 33c-21.333 0 -45.5 -1.33301 -72.5 -4s-61.167 -7 -102.5 -13l-15 155c50 8 92.667 13.667 128 17s68 5 98 5
c88 0 152.833 -14.333 194.5 -43s62.5 -73.334 62.5 -134.001c0 -42 -14.833 -78.833 -44.5 -110.5s-73.5 -57.167 -131.5 -76.5c-25.333 -9.33301 -42.666 -16.166 -51.999 -20.499s-14 -8.16602 -14 -11.499v-3h242v-154h-500v85z" />
    <glyph glyph-name="threesuperior" unicode="&#xb3;" horiz-adv-x="535" 
d="M252 291c-21.333 0 -43 0.336914 -65 1.00391s-42.833 1.66699 -62.5 3s-37.167 2.66602 -52.5 3.99902s-26.666 3 -33.999 5v162h2c8 -1.33301 18.667 -2.83301 32 -4.5s27.5 -3 42.5 -4s30 -1.83301 45 -2.5s27.833 -1 38.5 -1c26 0 46.667 0.333008 62 1
s27.333 2 36 4s14.334 5 17.001 9s4 9 4 15c0 6.66699 -2 12.167 -6 16.5s-11 7.66602 -21 9.99902s-24 4 -42 5s-41 1.5 -69 1.5h-64v117h64c24 0 44 0.5 60 1.5s28.667 2.66699 38 5s15.833 5.66602 19.5 9.99902s5.5 9.5 5.5 15.5s-1.5 10.833 -4.5 14.5
s-8.33301 6.5 -16 8.5s-18.334 3.33301 -32.001 4s-31.5 1 -53.5 1c-8.66699 0 -19.167 -0.333008 -31.5 -1s-25.333 -1.5 -39 -2.5s-27.834 -2.16699 -42.501 -3.5s-29 -3 -43 -5h-2v158c10 2 23.333 3.83301 40 5.5s34.167 3.16699 52.5 4.5s36.333 2.33301 54 3
s32.5 1 44.5 1c180 0 270 -53.333 270 -160c0 -24 -6 -45.5 -18 -64.5s-29.333 -34.167 -52 -45.5c24.667 -12.667 43.5 -29.834 56.5 -51.501s19.5 -47.5 19.5 -77.5c0 -53.333 -21.333 -93.833 -64 -121.5s-105.667 -41.5 -189 -41.5z" />
    <glyph glyph-name="acute" unicode="&#xb4;" horiz-adv-x="333" 
d="M31 617l61 191h235l-132 -201z" />
    <glyph glyph-name="mu" unicode="&#xb5;" horiz-adv-x="783" 
d="M73 540h230.001v-331c0 -20 3.66699 -34.333 11 -43s19.666 -13 36.999 -13c15.333 0 34.5 2.16699 57.5 6.5s45.167 9.5 66.5 15.5v365h230v-540h-193l-11 63h-4l-54 -28c-16 -8 -31.5 -14.833 -46.5 -20.5s-29.833 -10.167 -44.5 -13.5s-31 -6 -49 -8v-213h-230v760z
" />
    <glyph glyph-name="paragraph" unicode="&#xb6;" horiz-adv-x="752" 
d="M483 0l-92.0029 -0.00390625v266c-23.333 -0.666992 -43.5 -1 -60.5 -1h-55.5c-38 0 -72.333 4.16699 -103 12.5s-56.667 21.833 -78 40.5s-37.666 43.334 -48.999 74.001s-17 68.334 -17 113.001s5.66699 82.334 17 113.001s27.833 55.334 49.5 74.001
s47.834 32.167 78.501 40.5s65.334 12.5 104.001 12.5c30 0 63 -0.833008 99 -2.5s71.667 -4.16699 107 -7.5v-735zM662.997 -0.00390625h-127v735h127v-735z" />
    <glyph glyph-name="periodcentered" unicode="&#xb7;" horiz-adv-x="317" 
d="M159 252c-44 0 -75.333 9.16699 -94 27.5s-28 48.5 -28 90.5s9.33301 72.167 28 90.5s50 27.5 94 27.5c45.333 0 76.833 -9.66699 94.5 -29s26.5 -49 26.5 -89s-8.83301 -69.667 -26.5 -89s-49.167 -29 -94.5 -29z" />
    <glyph glyph-name="cedilla" unicode="&#xb8;" horiz-adv-x="335" 
d="M162 -220c-17.333 0 -36.665 1.33301 -57.998 4l-64 8v128c14.667 -3.33301 30.667 -6.33301 48 -9s32.666 -4 45.999 -4c10.667 0 17.5 1.5 20.5 4.5s4.5 6.16699 4.5 9.5c0 10 -7.5 27.333 -22.5 52s-40.167 53 -75.5 85h133c22 -21.333 40 -39.666 54 -54.999
s25 -29.333 33 -42s13.667 -24.334 17 -35.001s5 -21.667 5 -33c0 -36 -12.833 -63.833 -38.5 -83.5s-59.834 -29.5 -102.501 -29.5z" />
    <glyph glyph-name="onesuperior" unicode="&#xb9;" horiz-adv-x="432" 
d="M177 654l-145 -21h-3l-22 102v20l221 91h139v-546h-190v354z" />
    <glyph glyph-name="ordmasculine" unicode="&#xba;" horiz-adv-x="546" 
d="M273 471c11.333 0 21.1689 0.666992 29.502 2s15.166 4.66602 20.499 9.99902s9.16602 12.833 11.499 22.5s3.5 23.167 3.5 40.5c0 32.667 -5.16699 54 -15.5 64s-26.833 15 -49.5 15c-23.333 0 -39.833 -5 -49.5 -15s-14.5 -31.333 -14.5 -64
c0 -17.333 1.16699 -30.833 3.5 -40.5s6 -17.167 11 -22.5s11.5 -8.66602 19.5 -9.99902s18 -2 30 -2zM273.003 345c-79.333 0 -140.166 16.5 -182.499 49.5s-63.5 83.5 -63.5 151.5s21.167 118.5 63.5 151.5s103.166 49.5 182.499 49.5c80.667 0 141.667 -16.5 183 -49.5
s62 -83.5 62 -151.5s-20.667 -118.5 -62 -151.5s-102.333 -49.5 -183 -49.5z" />
    <glyph glyph-name="guillemotright" unicode="&#xbb;" horiz-adv-x="848" 
d="M258 30h-230l208 238v4l-208 238h230l208 -238v-4zM615 30h-230l208 238v4l-208 238h230l208 -238v-4z" />
    <glyph glyph-name="onequarter" unicode="&#xbc;" horiz-adv-x="1337" 
d="M1018 85h-268l-19 121l209 340l18 6l167 -12l18 -37l-214 -273h99l45 115h135v-115h97v-145h-97v-85h-190v85zM682 740h197l-373 -740h-197zM195 554l-145 -21h-3l-22 102v20l221 91h139v-546h-190v354z" />
    <glyph glyph-name="onehalf" unicode="&#xbd;" horiz-adv-x="1344" 
d="M797 85c0 52.667 16.499 96.999 49.499 132.999s84.833 65.667 155.5 89l56 19.5c14 5 24.667 9.33301 32 13s12 7 14 10s3 6.5 3 10.5c0 22 -34.333 33 -103 33c-21.333 0 -45.5 -1.33301 -72.5 -4s-61.167 -7 -102.5 -13l-15 155c50 8 92.667 13.667 128 17s68 5 98 5
c88 0 152.833 -14.333 194.5 -43s62.5 -73.334 62.5 -134.001c0 -42 -14.833 -78.833 -44.5 -110.5s-73.5 -57.167 -131.5 -76.5c-25.333 -9.33301 -42.666 -16.166 -51.999 -20.499s-14 -8.16602 -14 -11.499v-3h242v-154h-500v85zM681.999 739.999h197l-373 -740h-197z
M194.999 553.999l-145 -21h-3l-22 102v20l221 91h139v-546h-190v354z" />
    <glyph glyph-name="threequarters" unicode="&#xbe;" horiz-adv-x="1428" 
d="M264 191c-21.333 0 -43 0.336914 -65 1.00391s-42.833 1.66699 -62.5 3s-37.167 2.66602 -52.5 3.99902s-26.666 3 -33.999 5v162h2c8 -1.33301 18.667 -2.83301 32 -4.5s27.5 -3 42.5 -4s30 -1.83301 45 -2.5s27.833 -1 38.5 -1c26 0 46.667 0.333008 62 1
s27.333 2 36 4s14.334 5 17.001 9s4 9 4 15c0 6.66699 -2 12.167 -6 16.5s-11 7.66602 -21 9.99902s-24 4 -42 5s-41 1.5 -69 1.5h-64v117h64c24 0 44 0.5 60 1.5s28.667 2.66699 38 5s15.833 5.66602 19.5 9.99902s5.5 9.5 5.5 15.5s-1.5 10.833 -4.5 14.5
s-8.33301 6.5 -16 8.5s-18.334 3.33301 -32.001 4s-31.5 1 -53.5 1c-8.66699 0 -19.167 -0.333008 -31.5 -1s-25.333 -1.5 -39 -2.5s-27.834 -2.16699 -42.501 -3.5s-29 -3 -43 -5h-2v158c10 2 23.333 3.83301 40 5.5s34.167 3.16699 52.5 4.5s36.333 2.33301 54 3
s32.5 1 44.5 1c180 0 270 -53.333 270 -160c0 -24 -6 -45.5 -18 -64.5s-29.333 -34.167 -52 -45.5c24.667 -12.667 43.5 -29.834 56.5 -51.501s19.5 -47.5 19.5 -77.5c0 -53.333 -21.333 -93.833 -64 -121.5s-105.667 -41.5 -189 -41.5zM1114 85.0039h-268l-19 121l209 340
l18 6l167 -12l18 -37l-214 -273h99l45 115h135v-115h97v-145h-97v-85h-190v85zM771 740.004h197l-373 -740h-197z" />
    <glyph glyph-name="questiondown" unicode="&#xbf;" horiz-adv-x="518" 
d="M368 277l16.999 -175c-49.333 -9.33301 -87.666 -21.5 -114.999 -36.5s-41 -31.5 -41 -49.5c0 -20.667 8.66699 -34.5 26 -41.5s43 -10.5 77 -10.5c26.667 0 54.167 1.5 82.5 4.5s51.833 6.16699 70.5 9.5l5 -168c-36 -6.66699 -69.833 -11.5 -101.5 -14.5
s-65.167 -4.5 -100.5 -4.5c-84.667 0 -149.667 17 -195 51s-68 82.667 -68 146c0 54 16.333 98.5 49 133.5s79 57.833 139 68.5l9 86v14h146v-13zM289.999 547c34 0 60.167 -8.66699 78.5 -26s27.5 -42 27.5 -74s-9.16699 -56.667 -27.5 -74s-44.5 -26 -78.5 -26
s-60.167 8.66699 -78.5 26s-27.5 42 -27.5 74s9.16699 56.667 27.5 74s44.5 26 78.5 26z" />
    <glyph glyph-name="Agrave" unicode="&#xc0;" horiz-adv-x="825" 
d="M-5 12l245 728h345l245 -728v-12h-228l-47 148h-286l-46 -148h-228v12zM501 324l-28 88l-51 171h-20l-51 -173l-27 -86h177zM307 807l-133 201h236l61 -191z" />
    <glyph glyph-name="Aacute" unicode="&#xc1;" horiz-adv-x="825" 
d="M-5 12l245 728h345l245 -728v-12h-228l-47 148h-286l-46 -148h-228v12zM501 324l-28 88l-51 171h-20l-51 -173l-27 -86h177zM324 817l62 191h235l-132 -201z" />
    <glyph glyph-name="Acircumflex" unicode="&#xc2;" horiz-adv-x="825" 
d="M-5 12l245 728h345l245 -728v-12h-228l-47 148h-286l-46 -148h-228v12zM501 324l-28 88l-51 171h-20l-51 -173l-27 -86h177zM179 945l232 82l238 -82v-148l-235 81l-235 -81v148z" />
    <glyph glyph-name="Atilde" unicode="&#xc3;" horiz-adv-x="825" 
d="M-5 12l245 728h345l245 -728v-12h-228l-47 148h-286l-46 -148h-228v12zM501 324l-28 88l-51 171h-20l-51 -173l-27 -86h177zM141 861c25.333 50 54.999 87.5 88.999 112.5s66.333 37.5 97 37.5c19.333 0 38.666 -1.83301 57.999 -5.5s38.5 -7.83398 57.5 -12.501
s38.167 -8.83398 57.5 -12.501s38.666 -5.5 57.999 -5.5c16 0 31.833 2.16699 47.5 6.5s34.834 14.166 57.501 29.499l23 -38c-26.667 -50 -56.834 -87.5 -90.501 -112.5s-65.167 -37.5 -94.5 -37.5c-19.333 0 -38.666 1.83301 -57.999 5.5s-38.666 7.83398 -57.999 12.501
s-38.666 8.83398 -57.999 12.501s-38.666 5.5 -57.999 5.5c-17.333 0 -33.833 -2.16699 -49.5 -6.5s-33.834 -14.166 -54.501 -29.499z" />
    <glyph glyph-name="Adieresis" unicode="&#xc4;" horiz-adv-x="825" 
d="M-5 12l245 728h345l245 -728v-12h-228l-47 148h-286l-46 -148h-228v12zM501 324l-28 88l-51 171h-20l-51 -173l-27 -86h177zM251 794c-44 0 -75.333 9.16699 -94 27.5s-28 48.5 -28 90.5c0 41.333 9.33301 71.333 28 90s50 28 94 28c45.333 0 76.833 -9.66699 94.5 -29
s26.5 -49 26.5 -89s-8.83301 -69.667 -26.5 -89s-49.167 -29 -94.5 -29zM572 794c-44 0 -75.167 9.16699 -93.5 27.5s-27.5 48.5 -27.5 90.5c0 41.333 9.16699 71.333 27.5 90s49.5 28 93.5 28c45.333 0 76.833 -9.66699 94.5 -29s26.5 -49 26.5 -89
s-8.83301 -69.667 -26.5 -89s-49.167 -29 -94.5 -29z" />
    <glyph glyph-name="Aring" unicode="&#xc5;" horiz-adv-x="825" 
d="M-5 12l245 728h345l245 -728v-12h-228l-47 148h-286l-46 -148h-228v12zM501 324l-28 88l-51 171h-20l-51 -173l-27 -86h177zM413 780c-21.333 0 -41 2.83301 -59 8.5s-33.5 13.667 -46.5 24s-23.333 22.666 -31 36.999s-11.5 30.5 -11.5 48.5s3.83301 34.333 11.5 49
s18 27.167 31 37.5s28.5 18.5 46.5 24.5s37.667 9 59 9s41 -3 59 -9s33.667 -14.167 47 -24.5s23.666 -22.833 30.999 -37.5s11 -31 11 -49s-3.66699 -34.167 -11 -48.5s-17.666 -26.666 -30.999 -36.999s-29 -18.333 -47 -24s-37.667 -8.5 -59 -8.5zM413 850
c24.667 0 41.167 3.83301 49.5 11.5s12.5 19.834 12.5 36.501c0 17.333 -4.16699 29.833 -12.5 37.5s-24.833 11.5 -49.5 11.5c-24 0 -40.333 -3.83301 -49 -11.5s-13 -20.167 -13 -37.5c0 -16.667 4.33301 -28.834 13 -36.501s25 -11.5 49 -11.5z" />
    <glyph glyph-name="AE" unicode="&#xc6;" horiz-adv-x="1117" 
d="M-13 12l325 728h749v-176h-331l8 -106h313v-176h-300l9 -106h321v-176h-556l-6 142h-241l-63 -142h-228v12zM360 328h152l-11 255h-27z" />
    <glyph glyph-name="Ccedilla" unicode="&#xc7;" horiz-adv-x="653" 
d="M379 -220c-17.333 0 -36.667 1.33398 -58 4.00098l-64 8v128c14.667 -3.33301 30.667 -6.33301 48 -9s32.666 -4 45.999 -4c10.667 0 17.5 1.5 20.5 4.5s4.5 6.16699 4.5 9.5c0 6.66699 -2.83301 16.167 -8.5 28.5s-15.167 27.166 -28.5 44.499
c-104.667 15.333 -181.834 53.666 -231.501 114.999s-74.5 148 -74.5 260c0 130.667 32.833 227.667 98.5 291s166.167 95 301.5 95c23.333 0 49 -1 77 -3s64.333 -5.33301 109 -10v-186l-62.5 5c-16.333 1.33301 -30 2.33301 -41 3s-20.667 1.16699 -29 1.5
s-16.833 0.5 -25.5 0.5c-39.333 0 -71.166 -2.5 -95.499 -7.5s-43.166 -14.5 -56.499 -28.5s-22.333 -33.833 -27 -59.5s-7 -59.5 -7 -101.5c0 -40 2.33301 -72.667 7 -98s13.834 -45.166 27.501 -59.499s32.5 -24 56.5 -29s55 -7.5 93 -7.5c10.667 0 23.5 0.333008 38.5 1
s30.167 1.5 45.5 2.5s29.833 2.33301 43.5 4s24.5 3.16699 32.5 4.5v-187c-48 -8 -94.333 -13 -139 -15c15.333 -18.667 25.833 -35 31.5 -49s8.5 -28.333 8.5 -43c0 -36 -12.833 -63.833 -38.5 -83.5s-59.834 -29.5 -102.501 -29.5z" />
    <glyph glyph-name="Egrave" unicode="&#xc8;" horiz-adv-x="727" 
d="M321 807l-133 201h236l61 -191zM65 740h616v-176h-381v-106h341v-176h-341v-106h391v-176h-626v740z" />
    <glyph glyph-name="Eacute" unicode="&#xc9;" horiz-adv-x="727" 
d="M276 817l62 191h235l-132 -201zM65 740h616v-176h-381v-106h341v-176h-341v-106h391v-176h-626v740z" />
    <glyph glyph-name="Ecircumflex" unicode="&#xca;" horiz-adv-x="727" 
d="M65 740h616v-176h-381v-106h341v-176h-341v-106h391v-176h-626v740zM157 945l232 82l238 -82v-148l-235 81l-235 -81v148z" />
    <glyph glyph-name="Edieresis" unicode="&#xcb;" horiz-adv-x="727" 
d="M225 794c-44 0 -75.333 9.16699 -94 27.5s-28 48.5 -28 90.5c0 41.333 9.33301 71.333 28 90s50 28 94 28c45.333 0 76.833 -9.66699 94.5 -29s26.5 -49 26.5 -89s-8.83301 -69.667 -26.5 -89s-49.167 -29 -94.5 -29zM546 794c-44 0 -75.167 9.16699 -93.5 27.5
s-27.5 48.5 -27.5 90.5c0 41.333 9.16699 71.333 27.5 90s49.5 28 93.5 28c45.333 0 76.833 -9.66699 94.5 -29s26.5 -49 26.5 -89s-8.83301 -69.667 -26.5 -89s-49.167 -29 -94.5 -29zM65 740h616v-176h-381v-106h341v-176h-341v-106h391v-176h-626v740z" />
    <glyph glyph-name="Igrave" unicode="&#xcc;" horiz-adv-x="365" 
d="M65 740h235v-740h-235v740zM122 807l-133 201h236l61 -191z" />
    <glyph glyph-name="Iacute" unicode="&#xcd;" horiz-adv-x="365" 
d="M65 740h235v-740h-235v740zM96 817l62 191h235l-132 -201z" />
    <glyph glyph-name="Icircumflex" unicode="&#xce;" horiz-adv-x="365" 
d="M65 740h235v-740h-235v740zM-49 945l232 82l238 -82v-148l-235 81l-235 -81v148z" />
    <glyph glyph-name="Idieresis" unicode="&#xcf;" horiz-adv-x="365" 
d="M65 740h235v-740h-235v740zM27 794c-44 0 -75.333 9.16699 -94 27.5s-28 48.5 -28 90.5c0 41.333 9.33301 71.333 28 90s50 28 94 28c45.333 0 76.833 -9.66699 94.5 -29s26.5 -49 26.5 -89s-8.83301 -69.667 -26.5 -89s-49.167 -29 -94.5 -29zM348 794
c-44 0 -75.167 9.16699 -93.5 27.5s-27.5 48.5 -27.5 90.5c0 41.333 9.16699 71.333 27.5 90s49.5 28 93.5 28c45.333 0 76.833 -9.66699 94.5 -29s26.5 -49 26.5 -89s-8.83301 -69.667 -26.5 -89s-49.167 -29 -94.5 -29z" />
    <glyph glyph-name="Eth" unicode="&#xd0;" horiz-adv-x="879" 
d="M5 462h87.9971v276c70 4 129.167 7 177.5 9s90.5 3 126.5 3c78 0 145.167 -7.5 201.5 -22.5s102.833 -38 139.5 -69s63.834 -70.5 81.501 -118.5s26.5 -105 26.5 -171c0 -68 -9.33301 -126 -28 -174s-48.167 -87.167 -88.5 -117.5s-92.666 -52.5 -156.999 -66.5
s-141.833 -21 -232.5 -21c-23.333 0 -46.666 0.333008 -69.999 1s-46 1.5 -68 2.5s-42.333 2.33301 -61 4s-34.667 3.5 -48 5.5v285h-88v174zM437.997 173c32.667 0 59.665 3.00098 80.998 9.00098s38.5 16.5 51.5 31.5s22.167 35.167 27.5 60.5s8 57 8 95
c0 36.667 -3 67.667 -9 93s-15.667 45.666 -29 60.999s-31.166 26.333 -53.499 33s-49.833 10 -82.5 10c-12 0 -25.833 -0.333008 -41.5 -1s-36.5 -2 -62.5 -4v-99h98v-174h-98v-107c14.667 -2.66699 31.834 -4.66699 51.501 -6s39.167 -2 58.5 -2z" />
    <glyph glyph-name="Ntilde" unicode="&#xd1;" horiz-adv-x="882" 
d="M173 861c25.333 50 54.999 87.5 88.999 112.5s66.333 37.5 97 37.5c19.333 0 38.666 -1.83301 57.999 -5.5s38.5 -7.83398 57.5 -12.501s38.167 -8.83398 57.5 -12.501s38.666 -5.5 57.999 -5.5c16 0 31.833 2.16699 47.5 6.5s34.834 14.166 57.501 29.499l23 -38
c-26.667 -50 -56.834 -87.5 -90.501 -112.5s-65.167 -37.5 -94.5 -37.5c-19.333 0 -38.666 1.83301 -57.999 5.5s-38.666 7.83398 -57.999 12.501s-38.666 8.83398 -57.999 12.501s-38.666 5.5 -57.999 5.5c-17.333 0 -33.833 -2.16699 -49.5 -6.5
s-33.834 -14.166 -54.501 -29.499zM64.999 740h182l289 -328l67 -84h10v412h204v-740h-182l-275 312l-81 100h-10v-412h-204v740z" />
    <glyph glyph-name="Ograve" unicode="&#xd2;" horiz-adv-x="866" 
d="M333 807l-133 201h236l61 -191zM433 -10c-130.667 0 -230.167 32.166 -298.5 96.499s-102.5 158.5 -102.5 282.5c0 124.667 34 219.334 102 284.001s167.667 97 299 97c130 0 229.333 -32.5 298 -97.5s103 -159.5 103 -283.5c0 -123.333 -34.333 -217.333 -103 -282
s-168 -97 -298 -97zM433 173.999c32 0 58.499 2.50098 79.499 7.50098s37.5 14.667 49.5 29s20.333 34.166 25 59.499s7 58.333 7 99c0 39.333 -2.66699 71.666 -8 96.999s-14.166 45.5 -26.499 60.5s-28.833 25.333 -49.5 31s-46.334 8.5 -77.001 8.5
c-31.333 0 -57.166 -2.83301 -77.499 -8.5s-36.833 -15.667 -49.5 -30s-21.5 -34.333 -26.5 -60s-7.5 -58.5 -7.5 -98.5c0 -40.667 2.5 -73.667 7.5 -99s13.5 -45.166 25.5 -59.499s28.333 -24 49 -29s47 -7.5 79 -7.5z" />
    <glyph glyph-name="Oacute" unicode="&#xd3;" horiz-adv-x="866" 
d="M347 817l62 191h235l-132 -201zM433 -10c-130.667 0 -230.167 32.166 -298.5 96.499s-102.5 158.5 -102.5 282.5c0 124.667 34 219.334 102 284.001s167.667 97 299 97c130 0 229.333 -32.5 298 -97.5s103 -159.5 103 -283.5c0 -123.333 -34.333 -217.333 -103 -282
s-168 -97 -298 -97zM433 173.999c32 0 58.499 2.50098 79.499 7.50098s37.5 14.667 49.5 29s20.333 34.166 25 59.499s7 58.333 7 99c0 39.333 -2.66699 71.666 -8 96.999s-14.166 45.5 -26.499 60.5s-28.833 25.333 -49.5 31s-46.334 8.5 -77.001 8.5
c-31.333 0 -57.166 -2.83301 -77.499 -8.5s-36.833 -15.667 -49.5 -30s-21.5 -34.333 -26.5 -60s-7.5 -58.5 -7.5 -98.5c0 -40.667 2.5 -73.667 7.5 -99s13.5 -45.166 25.5 -59.499s28.333 -24 49 -29s47 -7.5 79 -7.5z" />
    <glyph glyph-name="Ocircumflex" unicode="&#xd4;" horiz-adv-x="866" 
d="M433 -10c-130.667 0 -230.167 32.166 -298.5 96.499s-102.5 158.5 -102.5 282.5c0 124.667 34 219.334 102 284.001s167.667 97 299 97c130 0 229.333 -32.5 298 -97.5s103 -159.5 103 -283.5c0 -123.333 -34.333 -217.333 -103 -282s-168 -97 -298 -97zM433 173.999
c32 0 58.499 2.50098 79.499 7.50098s37.5 14.667 49.5 29s20.333 34.166 25 59.499s7 58.333 7 99c0 39.333 -2.66699 71.666 -8 96.999s-14.166 45.5 -26.499 60.5s-28.833 25.333 -49.5 31s-46.334 8.5 -77.001 8.5c-31.333 0 -57.166 -2.83301 -77.499 -8.5
s-36.833 -15.667 -49.5 -30s-21.5 -34.333 -26.5 -60s-7.5 -58.5 -7.5 -98.5c0 -40.667 2.5 -73.667 7.5 -99s13.5 -45.166 25.5 -59.499s28.333 -24 49 -29s47 -7.5 79 -7.5zM194.999 945l232 82l238 -82v-148l-235 81l-235 -81v148z" />
    <glyph glyph-name="Otilde" unicode="&#xd5;" horiz-adv-x="866" 
d="M162 861c25.333 50 54.999 87.5 88.999 112.5s66.333 37.5 97 37.5c19.333 0 38.666 -1.83301 57.999 -5.5s38.5 -7.83398 57.5 -12.501s38.167 -8.83398 57.5 -12.501s38.666 -5.5 57.999 -5.5c16 0 31.833 2.16699 47.5 6.5s34.834 14.166 57.501 29.499l23 -38
c-26.667 -50 -56.834 -87.5 -90.501 -112.5s-65.167 -37.5 -94.5 -37.5c-19.333 0 -38.666 1.83301 -57.999 5.5s-38.666 7.83398 -57.999 12.501s-38.666 8.83398 -57.999 12.501s-38.666 5.5 -57.999 5.5c-17.333 0 -33.833 -2.16699 -49.5 -6.5
s-33.834 -14.166 -54.501 -29.499zM432.999 -10c-130.667 0 -230.167 32.166 -298.5 96.499s-102.5 158.5 -102.5 282.5c0 124.667 34 219.334 102 284.001s167.667 97 299 97c130 0 229.333 -32.5 298 -97.5s103 -159.5 103 -283.5c0 -123.333 -34.333 -217.333 -103 -282
s-168 -97 -298 -97zM432.999 173.999c32 0 58.499 2.50098 79.499 7.50098s37.5 14.667 49.5 29s20.333 34.166 25 59.499s7 58.333 7 99c0 39.333 -2.66699 71.666 -8 96.999s-14.166 45.5 -26.499 60.5s-28.833 25.333 -49.5 31s-46.334 8.5 -77.001 8.5
c-31.333 0 -57.166 -2.83301 -77.499 -8.5s-36.833 -15.667 -49.5 -30s-21.5 -34.333 -26.5 -60s-7.5 -58.5 -7.5 -98.5c0 -40.667 2.5 -73.667 7.5 -99s13.5 -45.166 25.5 -59.499s28.333 -24 49 -29s47 -7.5 79 -7.5z" />
    <glyph glyph-name="Odieresis" unicode="&#xd6;" horiz-adv-x="866" 
d="M263 794c-44 0 -75.333 9.16699 -94 27.5s-28 48.5 -28 90.5c0 41.333 9.33301 71.333 28 90s50 28 94 28c45.333 0 76.833 -9.66699 94.5 -29s26.5 -49 26.5 -89s-8.83301 -69.667 -26.5 -89s-49.167 -29 -94.5 -29zM584 794c-44 0 -75.167 9.16699 -93.5 27.5
s-27.5 48.5 -27.5 90.5c0 41.333 9.16699 71.333 27.5 90s49.5 28 93.5 28c45.333 0 76.833 -9.66699 94.5 -29s26.5 -49 26.5 -89s-8.83301 -69.667 -26.5 -89s-49.167 -29 -94.5 -29zM433 -10c-130.667 0 -230.167 32.166 -298.5 96.499s-102.5 158.5 -102.5 282.5
c0 124.667 34 219.334 102 284.001s167.667 97 299 97c130 0 229.333 -32.5 298 -97.5s103 -159.5 103 -283.5c0 -123.333 -34.333 -217.333 -103 -282s-168 -97 -298 -97zM433 173.999c32 0 58.499 2.50098 79.499 7.50098s37.5 14.667 49.5 29s20.333 34.166 25 59.499
s7 58.333 7 99c0 39.333 -2.66699 71.666 -8 96.999s-14.166 45.5 -26.499 60.5s-28.833 25.333 -49.5 31s-46.334 8.5 -77.001 8.5c-31.333 0 -57.166 -2.83301 -77.499 -8.5s-36.833 -15.667 -49.5 -30s-21.5 -34.333 -26.5 -60s-7.5 -58.5 -7.5 -98.5
c0 -40.667 2.5 -73.667 7.5 -99s13.5 -45.166 25.5 -59.499s28.333 -24 49 -29s47 -7.5 79 -7.5z" />
    <glyph glyph-name="multiply" unicode="&#xd7;" horiz-adv-x="525" 
d="M32 235l135 135l-135 135l95 95l135 -135l134 135l96 -95l-135 -135l135 -135l-95 -95l-135 135l-135 -135z" />
    <glyph glyph-name="Oslash" unicode="&#xd8;" horiz-adv-x="868" 
d="M111 113c-52 62 -78 147.332 -78 255.999c0 124.667 34 219.334 102 284.001s167.667 97 299 97c92 0 168.667 -16.667 230 -50l38 40h161l-108 -114c53.333 -63.333 80 -149 80 -257c0 -123.333 -34.333 -217.333 -103 -282s-168 -97 -298 -97
c-92 0 -169 16.333 -231 49l-37 -39h-161zM434 173.999c32 0 58.5 2.50195 79.5 7.50195s37.5 14.667 49.5 29s20.333 34.166 25 59.499s7 58.333 7 99c0 15.333 -0.5 29.833 -1.5 43.5s-2.16699 26.167 -3.5 37.5l-249 -264c11.333 -4.66699 24.833 -7.83398 40.5 -9.50098
s33.167 -2.5 52.5 -2.5zM273 369.001c0 -16 0.331055 -30.5 0.998047 -43.5s1.66699 -25.167 3 -36.5l248 263c-21.333 9.33301 -51.666 14 -90.999 14c-31.333 0 -57.166 -2.83301 -77.499 -8.5s-36.833 -15.667 -49.5 -30s-21.5 -34.333 -26.5 -60s-7.5 -58.5 -7.5 -98.5z
" />
    <glyph glyph-name="Ugrave" unicode="&#xd9;" horiz-adv-x="880" 
d="M352 807l-133 201h236l61 -191zM440 -10c-73.333 0 -134.501 6.83301 -183.501 20.5s-88.333 34 -118 61s-50.667 61 -63 102s-18.5 88.833 -18.5 143.5v426h235v-440c0 -38 11.667 -69 35 -93s61 -36 113 -36s89.667 12 113 36s35 55 35 93v440h235v-426
c0 -54.667 -6.33301 -102.5 -19 -143.5s-33.667 -75 -63 -102s-68.666 -47.333 -117.999 -61s-110.333 -20.5 -183 -20.5z" />
    <glyph glyph-name="Uacute" unicode="&#xda;" horiz-adv-x="880" 
d="M330 817l62 191h235l-132 -201zM440 -10c-73.333 0 -134.501 6.83301 -183.501 20.5s-88.333 34 -118 61s-50.667 61 -63 102s-18.5 88.833 -18.5 143.5v426h235v-440c0 -38 11.667 -69 35 -93s61 -36 113 -36s89.667 12 113 36s35 55 35 93v440h235v-426
c0 -54.667 -6.33301 -102.5 -19 -143.5s-33.667 -75 -63 -102s-68.666 -47.333 -117.999 -61s-110.333 -20.5 -183 -20.5z" />
    <glyph glyph-name="Ucircumflex" unicode="&#xdb;" horiz-adv-x="880" 
d="M440 -10c-73.333 0 -134.501 6.83301 -183.501 20.5s-88.333 34 -118 61s-50.667 61 -63 102s-18.5 88.833 -18.5 143.5v426h235v-440c0 -38 11.667 -69 35 -93s61 -36 113 -36s89.667 12 113 36s35 55 35 93v440h235v-426c0 -54.667 -6.33301 -102.5 -19 -143.5
s-33.667 -75 -63 -102s-68.666 -47.333 -117.999 -61s-110.333 -20.5 -183 -20.5zM200.999 945l232 82l238 -82v-148l-235 81l-235 -81v148z" />
    <glyph glyph-name="Udieresis" unicode="&#xdc;" horiz-adv-x="880" 
d="M277 794c-44 0 -75.333 9.16699 -94 27.5s-28 48.5 -28 90.5c0 41.333 9.33301 71.333 28 90s50 28 94 28c45.333 0 76.833 -9.66699 94.5 -29s26.5 -49 26.5 -89s-8.83301 -69.667 -26.5 -89s-49.167 -29 -94.5 -29zM598 794c-44 0 -75.167 9.16699 -93.5 27.5
s-27.5 48.5 -27.5 90.5c0 41.333 9.16699 71.333 27.5 90s49.5 28 93.5 28c45.333 0 76.833 -9.66699 94.5 -29s26.5 -49 26.5 -89s-8.83301 -69.667 -26.5 -89s-49.167 -29 -94.5 -29zM440 -10c-73.333 0 -134.501 6.83301 -183.501 20.5s-88.333 34 -118 61
s-50.667 61 -63 102s-18.5 88.833 -18.5 143.5v426h235v-440c0 -38 11.667 -69 35 -93s61 -36 113 -36s89.667 12 113 36s35 55 35 93v440h235v-426c0 -54.667 -6.33301 -102.5 -19 -143.5s-33.667 -75 -63 -102s-68.666 -47.333 -117.999 -61s-110.333 -20.5 -183 -20.5z
" />
    <glyph glyph-name="Yacute" unicode="&#xdd;" horiz-adv-x="792" 
d="M280 222l-293 518h253l112 -217l38 -93h10l38 93l112 217h253l-288 -509v-231h-235v222zM314 817l62 191h235l-132 -201z" />
    <glyph glyph-name="Thorn" unicode="&#xde;" horiz-adv-x="778" 
d="M65 740h235v-113h40c73.333 0 136.333 -5 189 -15s96 -25.5 130 -46.5s59.167 -47.833 75.5 -80.5s24.5 -71.667 24.5 -117s-8.16699 -84.333 -24.5 -117s-41.5 -59.5 -75.5 -80.5s-77.333 -36.5 -130 -46.5s-115.667 -15 -189 -15h-40v-109h-235v740zM354 301
c37.333 0 67.166 0.333008 89.499 1s39.333 3.16699 51 7.5s19.334 11 23.001 20s5.5 21.833 5.5 38.5s-1.83301 29.5 -5.5 38.5s-11.334 15.667 -23.001 20s-28.667 6.83301 -51 7.5s-52.166 1 -89.499 1h-54v-134h54z" />
    <glyph glyph-name="germandbls" unicode="&#xdf;" horiz-adv-x="915" 
d="M56 559c0 170 124.334 254.999 373.001 254.999c252.667 0 379 -85 379 -255v-163h-156c-26.667 0 -45.667 -1.83301 -57 -5.5s-17 -9.83398 -17 -18.501c0 -4 1.66699 -7.66699 5 -11s9.5 -6.16602 18.5 -8.49902s21.167 -4.66602 36.5 -6.99902
s34.666 -4.5 57.999 -6.5c70.667 -6.66699 122.5 -23.5 155.5 -50.5s49.5 -65.5 49.5 -115.5c0 -123.333 -95.667 -185 -287 -185c-18 0 -38 0.5 -60 1.5s-44.5 2.5 -67.5 4.5s-46 4.33301 -69 7s-44.5 5.66699 -64.5 9v150c52.667 -9.33301 98.5 -15.833 137.5 -19.5
s75.833 -5.5 110.5 -5.5c30 0 50.833 1.5 62.5 4.5s17.5 8.5 17.5 16.5c0 8.66699 -6.33301 15.167 -19 19.5s-36 8.16602 -70 11.499c-24.667 2 -50.667 4.83301 -78 8.5s-52.5 11.334 -75.5 23.001s-42.167 29 -57.5 52s-23 54.833 -23 95.5
c0 51.333 19.167 92.833 57.5 124.5s91.833 51.167 160.5 58.5v10c0 54.667 -48.333 82 -145 82s-145 -27.333 -145 -82v-559h-230v559z" />
    <glyph glyph-name="agrave" unicode="&#xe0;" horiz-adv-x="652" 
d="M198 -5c-57.333 0 -99.999 14 -127.999 42s-42 67.667 -42 119c0 56.667 17.167 99 51.5 127s87.166 44.333 158.499 49l133 8c-0.666992 9.33301 -2.66699 17.333 -6 24s-8.66602 12 -15.999 16s-17.5 7 -30.5 9s-29.5 3 -49.5 3c-30 0 -62 -1.83301 -96 -5.5
s-67 -8.5 -99 -14.5l-15 154c43.333 7.33301 85.833 12.833 127.5 16.5s79.5 5.5 113.5 5.5c201.333 0 302 -64.333 302 -193v-355h-188l-21 65h-10c-25.333 -25.333 -54.333 -43.333 -87 -54s-65.334 -16 -98.001 -16zM304.001 144c14.667 0 28.835 2.16797 42.502 6.50098
s22.167 9.16602 25.5 14.499v69l-56 -5c-20.667 -2 -34.834 -6 -42.501 -12s-11.5 -16.667 -11.5 -32c0 -14.667 3.16699 -25.167 9.5 -31.5s17.166 -9.5 32.499 -9.5zM261.002 607.001l-133 201h236l61 -191z" />
    <glyph glyph-name="aacute" unicode="&#xe1;" horiz-adv-x="652" 
d="M198 -5c-57.333 0 -99.999 14 -127.999 42s-42 67.667 -42 119c0 56.667 17.167 99 51.5 127s87.166 44.333 158.499 49l133 8c-0.666992 9.33301 -2.66699 17.333 -6 24s-8.66602 12 -15.999 16s-17.5 7 -30.5 9s-29.5 3 -49.5 3c-30 0 -62 -1.83301 -96 -5.5
s-67 -8.5 -99 -14.5l-15 154c43.333 7.33301 85.833 12.833 127.5 16.5s79.5 5.5 113.5 5.5c201.333 0 302 -64.333 302 -193v-355h-188l-21 65h-10c-25.333 -25.333 -54.333 -43.333 -87 -54s-65.334 -16 -98.001 -16zM304.001 144c14.667 0 28.835 2.16797 42.502 6.50098
s22.167 9.16602 25.5 14.499v69l-56 -5c-20.667 -2 -34.834 -6 -42.501 -12s-11.5 -16.667 -11.5 -32c0 -14.667 3.16699 -25.167 9.5 -31.5s17.166 -9.5 32.499 -9.5zM234.002 617.001l61 191h235l-132 -201z" />
    <glyph glyph-name="acircumflex" unicode="&#xe2;" horiz-adv-x="652" 
d="M198 -5c-57.333 0 -99.999 14 -127.999 42s-42 67.667 -42 119c0 56.667 17.167 99 51.5 127s87.166 44.333 158.499 49l133 8c-0.666992 9.33301 -2.66699 17.333 -6 24s-8.66602 12 -15.999 16s-17.5 7 -30.5 9s-29.5 3 -49.5 3c-30 0 -62 -1.83301 -96 -5.5
s-67 -8.5 -99 -14.5l-15 154c43.333 7.33301 85.833 12.833 127.5 16.5s79.5 5.5 113.5 5.5c201.333 0 302 -64.333 302 -193v-355h-188l-21 65h-10c-25.333 -25.333 -54.333 -43.333 -87 -54s-65.334 -16 -98.001 -16zM304.001 144c14.667 0 28.835 2.16797 42.502 6.50098
s22.167 9.16602 25.5 14.499v69l-56 -5c-20.667 -2 -34.834 -6 -42.501 -12s-11.5 -16.667 -11.5 -32c0 -14.667 3.16699 -25.167 9.5 -31.5s17.166 -9.5 32.499 -9.5zM96.002 745.001l232 82l238 -82v-148l-235 81l-235 -81v148z" />
    <glyph glyph-name="atilde" unicode="&#xe3;" horiz-adv-x="652" 
d="M198 -5c-57.333 0 -99.999 14 -127.999 42s-42 67.667 -42 119c0 56.667 17.167 99 51.5 127s87.166 44.333 158.499 49l133 8c-0.666992 9.33301 -2.66699 17.333 -6 24s-8.66602 12 -15.999 16s-17.5 7 -30.5 9s-29.5 3 -49.5 3c-30 0 -62 -1.83301 -96 -5.5
s-67 -8.5 -99 -14.5l-15 154c43.333 7.33301 85.833 12.833 127.5 16.5s79.5 5.5 113.5 5.5c201.333 0 302 -64.333 302 -193v-355h-188l-21 65h-10c-25.333 -25.333 -54.333 -43.333 -87 -54s-65.334 -16 -98.001 -16zM304.001 144c14.667 0 28.835 2.16797 42.502 6.50098
s22.167 9.16602 25.5 14.499v69l-56 -5c-20.667 -2 -34.834 -6 -42.501 -12s-11.5 -16.667 -11.5 -32c0 -14.667 3.16699 -25.167 9.5 -31.5s17.166 -9.5 32.499 -9.5zM63.002 661.001c25.333 50 54.999 87.5 88.999 112.5s66.333 37.5 97 37.5
c19.333 0 38.666 -1.83301 57.999 -5.5s38.5 -7.83398 57.5 -12.501s38.167 -8.83398 57.5 -12.501s38.666 -5.5 57.999 -5.5c16 0 31.833 2.16699 47.5 6.5s34.834 14.166 57.501 29.499l23 -38c-26.667 -50 -56.834 -87.5 -90.501 -112.5s-65.167 -37.5 -94.5 -37.5
c-19.333 0 -38.666 1.83301 -57.999 5.5s-38.666 7.83398 -57.999 12.501s-38.666 8.83398 -57.999 12.501s-38.666 5.5 -57.999 5.5c-17.333 0 -33.833 -2.16699 -49.5 -6.5s-33.834 -14.166 -54.501 -29.499z" />
    <glyph glyph-name="adieresis" unicode="&#xe4;" horiz-adv-x="652" 
d="M198 -5c-57.333 0 -99.999 14 -127.999 42s-42 67.667 -42 119c0 56.667 17.167 99 51.5 127s87.166 44.333 158.499 49l133 8c-0.666992 9.33301 -2.66699 17.333 -6 24s-8.66602 12 -15.999 16s-17.5 7 -30.5 9s-29.5 3 -49.5 3c-30 0 -62 -1.83301 -96 -5.5
s-67 -8.5 -99 -14.5l-15 154c43.333 7.33301 85.833 12.833 127.5 16.5s79.5 5.5 113.5 5.5c201.333 0 302 -64.333 302 -193v-355h-188l-21 65h-10c-25.333 -25.333 -54.333 -43.333 -87 -54s-65.334 -16 -98.001 -16zM304.001 144c14.667 0 28.835 2.16797 42.502 6.50098
s22.167 9.16602 25.5 14.499v69l-56 -5c-20.667 -2 -34.834 -6 -42.501 -12s-11.5 -16.667 -11.5 -32c0 -14.667 3.16699 -25.167 9.5 -31.5s17.166 -9.5 32.499 -9.5zM184.002 606.001c-39.333 0 -67.333 8.33301 -84 25s-25 43.667 -25 81s8.33301 64.166 25 80.499
s44.667 24.5 84 24.5c40 0 68.167 -8.66699 84.5 -26s24.5 -43.666 24.5 -78.999c0 -37.333 -8.16699 -64.333 -24.5 -81s-44.5 -25 -84.5 -25zM481.002 606.001c-39.333 0 -67.333 8.33301 -84 25s-25 43.667 -25 81s8.33301 64.166 25 80.499s44.667 24.5 84 24.5
c40 0 68.167 -8.66699 84.5 -26s24.5 -43.666 24.5 -78.999c0 -37.333 -8.16699 -64.333 -24.5 -81s-44.5 -25 -84.5 -25z" />
    <glyph glyph-name="aring" unicode="&#xe5;" horiz-adv-x="652" 
d="M198 -5c-57.333 0 -99.999 14 -127.999 42s-42 67.667 -42 119c0 56.667 17.167 99 51.5 127s87.166 44.333 158.499 49l133 8c-0.666992 9.33301 -2.66699 17.333 -6 24s-8.66602 12 -15.999 16s-17.5 7 -30.5 9s-29.5 3 -49.5 3c-30 0 -62 -1.83301 -96 -5.5
s-67 -8.5 -99 -14.5l-15 154c43.333 7.33301 85.833 12.833 127.5 16.5s79.5 5.5 113.5 5.5c201.333 0 302 -64.333 302 -193v-355h-188l-21 65h-10c-25.333 -25.333 -54.333 -43.333 -87 -54s-65.334 -16 -98.001 -16zM304.001 144c14.667 0 28.835 2.16797 42.502 6.50098
s22.167 9.16602 25.5 14.499v69l-56 -5c-20.667 -2 -34.834 -6 -42.501 -12s-11.5 -16.667 -11.5 -32c0 -14.667 3.16699 -25.167 9.5 -31.5s17.166 -9.5 32.499 -9.5zM326.002 580.001c-21.333 0 -41 2.83301 -59 8.5s-33.5 13.667 -46.5 24s-23.333 22.666 -31 36.999
s-11.5 30.5 -11.5 48.5s3.83301 34.333 11.5 49s18 27.167 31 37.5s28.5 18.5 46.5 24.5s37.667 9 59 9s41 -3 59 -9s33.667 -14.167 47 -24.5s23.666 -22.833 30.999 -37.5s11 -31 11 -49s-3.66699 -34.167 -11 -48.5s-17.666 -26.666 -30.999 -36.999s-29 -18.333 -47 -24
s-37.667 -8.5 -59 -8.5zM326.002 650.001c24.667 0 41.167 3.83301 49.5 11.5s12.5 19.834 12.5 36.501c0 17.333 -4.16699 29.833 -12.5 37.5s-24.833 11.5 -49.5 11.5c-24 0 -40.333 -3.83301 -49 -11.5s-13 -20.167 -13 -37.5c0 -16.667 4.33301 -28.834 13 -36.501
s25 -11.5 49 -11.5z" />
    <glyph glyph-name="ae" unicode="&#xe6;" horiz-adv-x="1005" 
d="M693 -16c-108.667 0 -185.995 28.334 -231.995 85.001h-10c-80.667 -49.333 -166.667 -74 -258 -74c-53.333 0 -94 14.167 -122 42.5s-42 69.166 -42 122.499c0 54 17.167 95 51.5 123s87.166 44.333 158.499 49l134 8v5c0 10 -1.83301 18.167 -5.5 24.5
s-10.334 11 -20.001 14s-22.834 5 -39.501 6s-37.667 1.5 -63 1.5c-22.667 0 -48.834 -1.66699 -78.501 -5s-60.167 -8 -91.5 -14l-15 154c81.333 14.667 165.666 22 252.999 22c84 0 149 -15.333 195 -46h10c23.333 13.333 49.833 23.333 79.5 30s63.167 10 100.5 10
c90.667 0 159.167 -19.667 205.5 -59s69.5 -97.333 69.5 -174c0 -39.333 -4.33301 -71.666 -13 -96.999h-353c2 -12.667 5.16699 -22.834 9.5 -30.501s10.5 -13.5 18.5 -17.5s18.5 -6.66699 31.5 -8s28.833 -2 47.5 -2c19.333 0 40 0.5 62 1.5s43.5 2.5 64.5 4.5
s40.5 4.16699 58.5 6.5s32.667 4.83301 44 7.5l6 -159c-38 -10 -79 -17.667 -123 -23s-88.333 -8 -133 -8zM307.005 144.001c13.333 0 26.832 2.16699 40.499 6.5s22.167 9.16602 25.5 14.499v69l-56 -5c-21.333 -2 -35.666 -6.16699 -42.999 -12.5s-11 -16.166 -11 -29.499
c0 -16 3.16699 -27.167 9.5 -33.5s17.833 -9.5 34.5 -9.5zM772.004 315.001c-1.33301 26.667 -8.33105 45.667 -20.998 57s-34.334 17 -65.001 17c-28 0 -47.833 -5.16699 -59.5 -15.5s-18.834 -29.833 -21.501 -58.5h167z" />
    <glyph glyph-name="ccedilla" unicode="&#xe7;" horiz-adv-x="582" 
d="M320 -220c-17.333 0 -36.666 1.33301 -57.999 4l-64 8v128c14.667 -3.33301 30.667 -6.33301 48 -9s32.666 -4 45.999 -4c10.667 0 17.5 1.5 20.5 4.5s4.5 6.16699 4.5 9.5c0 6.66699 -2.83301 16.167 -8.5 28.5s-15.167 26.833 -28.5 43.5
c-166 12 -249 104.333 -249 277c0 186 97.667 279 293 279c40 0 79 -1.66699 117 -5s71 -8 99 -14v-177c-36 3.33301 -70 6 -102 8s-62.667 3 -92 3c-17.333 0 -31.666 -1.5 -42.999 -4.5s-20.5 -8 -27.5 -15s-12 -16.333 -15 -28s-4.5 -26.5 -4.5 -44.5
c0 -36 6.33301 -61 19 -75s35.667 -21 69 -21c42 0 77.667 0.833008 107 2.5s59 4.5 89 8.5v-177c-17.333 -4 -36.833 -7.33301 -58.5 -10s-44.167 -4.66699 -67.5 -6c18 -21.333 30.333 -39.5 37 -54.5s10 -30.5 10 -46.5c0 -36 -12.833 -63.833 -38.5 -83.5
s-59.834 -29.5 -102.501 -29.5z" />
    <glyph glyph-name="egrave" unicode="&#xe8;" horiz-adv-x="656" 
d="M345 -9c-106.667 0 -185.667 22.668 -237 68.001s-77 115 -77 209c0 187.333 106.333 281 319 281c90.667 0 159.167 -19.667 205.5 -59s69.5 -97.333 69.5 -174c0 -34.667 -4.33301 -67 -13 -97h-353c2 -12.667 5.16699 -22.834 9.5 -30.501s10.5 -13.5 18.5 -17.5
s18.5 -6.66699 31.5 -8s28.833 -2 47.5 -2c18 0 37.833 0.5 59.5 1.5s43 2.5 64 4.5s40.833 4.16699 59.5 6.5s34 4.83301 46 7.5l6 -159c-38 -10 -79 -17.667 -123 -23s-88.333 -8 -133 -8zM338 396.001c-28 0 -47.8311 -5.16699 -59.498 -15.5
s-18.834 -29.833 -21.501 -58.5h167c-1.33301 26.667 -8.33301 45.667 -21 57s-34.334 17 -65.001 17zM252.002 607.001l-133 201h236l61 -191z" />
    <glyph glyph-name="eacute" unicode="&#xe9;" horiz-adv-x="656" 
d="M275 617l61 191h235l-132 -201zM345 -9c-106.667 0 -185.667 22.668 -237 68.001s-77 115 -77 209c0 187.333 106.333 281 319 281c90.667 0 159.167 -19.667 205.5 -59s69.5 -97.333 69.5 -174c0 -34.667 -4.33301 -67 -13 -97h-353
c2 -12.667 5.16699 -22.834 9.5 -30.501s10.5 -13.5 18.5 -17.5s18.5 -6.66699 31.5 -8s28.833 -2 47.5 -2c18 0 37.833 0.5 59.5 1.5s43 2.5 64 4.5s40.833 4.16699 59.5 6.5s34 4.83301 46 7.5l6 -159c-38 -10 -79 -17.667 -123 -23s-88.333 -8 -133 -8zM338 396.001
c-28 0 -47.8311 -5.16699 -59.498 -15.5s-18.834 -29.833 -21.501 -58.5h167c-1.33301 26.667 -8.33301 45.667 -21 57s-34.334 17 -65.001 17z" />
    <glyph glyph-name="ecircumflex" unicode="&#xea;" horiz-adv-x="656" 
d="M108 745l232 82l238 -82v-148l-235 81l-235 -81v148zM345 -9c-106.667 0 -185.667 22.668 -237 68.001s-77 115 -77 209c0 187.333 106.333 281 319 281c90.667 0 159.167 -19.667 205.5 -59s69.5 -97.333 69.5 -174c0 -34.667 -4.33301 -67 -13 -97h-353
c2 -12.667 5.16699 -22.834 9.5 -30.501s10.5 -13.5 18.5 -17.5s18.5 -6.66699 31.5 -8s28.833 -2 47.5 -2c18 0 37.833 0.5 59.5 1.5s43 2.5 64 4.5s40.833 4.16699 59.5 6.5s34 4.83301 46 7.5l6 -159c-38 -10 -79 -17.667 -123 -23s-88.333 -8 -133 -8zM338 396.001
c-28 0 -47.8311 -5.16699 -59.498 -15.5s-18.834 -29.833 -21.501 -58.5h167c-1.33301 26.667 -8.33301 45.667 -21 57s-34.334 17 -65.001 17z" />
    <glyph glyph-name="edieresis" unicode="&#xeb;" horiz-adv-x="656" 
d="M183 606c-39.333 0 -67.333 8.33301 -84 25s-25 43.667 -25 81s8.33301 64.166 25 80.499s44.667 24.5 84 24.5c40 0 68.167 -8.66699 84.5 -26s24.5 -43.666 24.5 -78.999c0 -37.333 -8.16699 -64.333 -24.5 -81s-44.5 -25 -84.5 -25zM480 606
c-39.333 0 -67.333 8.33301 -84 25s-25 43.667 -25 81s8.33301 64.166 25 80.499s44.667 24.5 84 24.5c40 0 68.167 -8.66699 84.5 -26s24.5 -43.666 24.5 -78.999c0 -37.333 -8.16699 -64.333 -24.5 -81s-44.5 -25 -84.5 -25zM345 -9
c-106.667 0 -185.667 22.668 -237 68.001s-77 115 -77 209c0 187.333 106.333 281 319 281c90.667 0 159.167 -19.667 205.5 -59s69.5 -97.333 69.5 -174c0 -34.667 -4.33301 -67 -13 -97h-353c2 -12.667 5.16699 -22.834 9.5 -30.501s10.5 -13.5 18.5 -17.5
s18.5 -6.66699 31.5 -8s28.833 -2 47.5 -2c18 0 37.833 0.5 59.5 1.5s43 2.5 64 4.5s40.833 4.16699 59.5 6.5s34 4.83301 46 7.5l6 -159c-38 -10 -79 -17.667 -123 -23s-88.333 -8 -133 -8zM338 396.001c-28 0 -47.8311 -5.16699 -59.498 -15.5
s-18.834 -29.833 -21.501 -58.5h167c-1.33301 26.667 -8.33301 45.667 -21 57s-34.334 17 -65.001 17z" />
    <glyph glyph-name="igrave" unicode="&#xec;" horiz-adv-x="341" 
d="M56 540h230v-540h-230v540zM79 607l-133 201h236l61 -191z" />
    <glyph glyph-name="iacute" unicode="&#xed;" horiz-adv-x="341" 
d="M86 617l61 191h235l-132 -201zM55 540h230v-540h-230v540z" />
    <glyph glyph-name="icircumflex" unicode="&#xee;" horiz-adv-x="342" 
d="M-42 745l211 82l218 -82v-148l-215 81l-214 -81v148zM56 540h230v-540h-230v540z" />
    <glyph glyph-name="idieresis" unicode="&#xef;" horiz-adv-x="342" 
d="M49 606c-39.333 0 -67.333 8.33301 -84 25s-25 43.667 -25 81s8.33301 64.166 25 80.499s44.667 24.5 84 24.5c40 0 68.167 -8.66699 84.5 -26s24.5 -43.666 24.5 -78.999c0 -37.333 -8.16699 -64.333 -24.5 -81s-44.5 -25 -84.5 -25zM298 606
c-39.333 0 -67.333 8.33301 -84 25s-25 43.667 -25 81s8.33301 64.166 25 80.499s44.667 24.5 84 24.5c40 0 68.167 -8.66699 84.5 -26s24.5 -43.666 24.5 -78.999c0 -37.333 -8.16699 -64.333 -24.5 -81s-44.5 -25 -84.5 -25zM56 540h230v-540h-230v540z" />
    <glyph glyph-name="eth" unicode="&#xf0;" horiz-adv-x="735" 
d="M203 718l115 9.00195c-12.667 13.333 -26.167 26.666 -40.5 39.999l-45.5 41h229c3.33301 -2 10.833 -8.16699 22.5 -18.5s26.834 -25.5 45.501 -45.5l174 14v-133l-83 -7c21.333 -38.667 39.666 -82.667 54.999 -132s23 -104.333 23 -165
c0 -112 -28.5 -195.333 -85.5 -250s-140.833 -82 -251.5 -82c-105.333 0 -187 23.833 -245 71.5s-87 116.5 -87 206.5c0 44.667 7.16699 84.5 21.5 119.5s34.833 64.667 61.5 89s59 43 97 56s80.333 19.5 127 19.5c28.667 0 53.5 -2.83301 74.5 -8.5
s40.5 -15.167 58.5 -28.5c-12.667 29.333 -28.667 58.666 -48 87.999l-218 -17v133zM364 161.002c39.333 0 66.501 7.33301 81.501 22s22.5 41.667 22.5 81c0 42.667 -8.16699 72.167 -24.5 88.5s-44.5 24.5 -84.5 24.5c-19.333 0 -35.333 -1.83301 -48 -5.5
s-22.834 -9.66699 -30.501 -18s-13.167 -19.333 -16.5 -33s-5 -30.834 -5 -51.501s1.66699 -38 5 -52s9 -25.167 17 -33.5s18.833 -14.166 32.5 -17.499s30.5 -5 50.5 -5z" />
    <glyph glyph-name="ntilde" unicode="&#xf1;" horiz-adv-x="740" 
d="M56 540h192.998l11 -63h10c49.333 23.333 95 41.333 137 54s78.667 19 110 19c52.667 0 94.334 -13.667 125.001 -41s46 -65 46 -113v-396h-230v321c0 20 -3.66699 34.333 -11 43s-19.666 13 -36.999 13c-15.333 0 -34.5 -2.16699 -57.5 -6.5s-45.167 -9.5 -66.5 -15.5
v-355h-230v540zM107.998 661c25.333 50 54.999 87.5 88.999 112.5s66.333 37.5 97 37.5c19.333 0 38.666 -1.83301 57.999 -5.5s38.5 -7.83398 57.5 -12.501s38.167 -8.83398 57.5 -12.501s38.666 -5.5 57.999 -5.5c16 0 31.833 2.16699 47.5 6.5
s34.834 14.166 57.501 29.499l23 -38c-26.667 -50 -56.834 -87.5 -90.501 -112.5s-65.167 -37.5 -94.5 -37.5c-19.333 0 -38.666 1.83301 -57.999 5.5s-38.666 7.83398 -57.999 12.501s-38.666 8.83398 -57.999 12.501s-38.666 5.5 -57.999 5.5
c-17.333 0 -33.833 -2.16699 -49.5 -6.5s-33.834 -14.166 -54.501 -29.499z" />
    <glyph glyph-name="ograve" unicode="&#xf2;" horiz-adv-x="727" 
d="M364 -11c-109.333 0 -192.5 24 -249.5 72s-85.5 117.667 -85.5 209s28.5 160.833 85.5 208.5s140.167 71.5 249.5 71.5s192.333 -23.833 249 -71.5s85 -117.167 85 -208.5s-28.333 -161 -85 -209s-139.667 -72 -249 -72zM364 161c20 0 36.667 1.5 50 4.5
s24 8.66699 32 17s13.667 19.5 17 33.5s5 32 5 54s-1.66699 39.833 -5 53.5s-9 24.5 -17 32.5s-18.667 13.5 -32 16.5s-30 4.5 -50 4.5s-36.667 -1.5 -50 -4.5s-24 -8.5 -32 -16.5s-13.833 -19 -17.5 -33s-5.5 -31.667 -5.5 -53c0 -22 1.83301 -40 5.5 -54s9.5 -25 17.5 -33
s18.667 -13.667 32 -17s30 -5 50 -5zM264 607l-133 201h236l61 -191z" />
    <glyph glyph-name="oacute" unicode="&#xf3;" horiz-adv-x="727" 
d="M265 617l61 191h235l-132 -201zM364 -11c-109.333 0 -192.5 24 -249.5 72s-85.5 117.667 -85.5 209s28.5 160.833 85.5 208.5s140.167 71.5 249.5 71.5s192.333 -23.833 249 -71.5s85 -117.167 85 -208.5s-28.333 -161 -85 -209s-139.667 -72 -249 -72zM364 161
c20 0 36.667 1.5 50 4.5s24 8.66699 32 17s13.667 19.5 17 33.5s5 32 5 54s-1.66699 39.833 -5 53.5s-9 24.5 -17 32.5s-18.667 13.5 -32 16.5s-30 4.5 -50 4.5s-36.667 -1.5 -50 -4.5s-24 -8.5 -32 -16.5s-13.833 -19 -17.5 -33s-5.5 -31.667 -5.5 -53
c0 -22 1.83301 -40 5.5 -54s9.5 -25 17.5 -33s18.667 -13.667 32 -17s30 -5 50 -5z" />
    <glyph glyph-name="ocircumflex" unicode="&#xf4;" horiz-adv-x="727" 
d="M123 745l232 82l238 -82v-148l-235 81l-235 -81v148zM364 -11c-109.333 0 -192.5 24 -249.5 72s-85.5 117.667 -85.5 209s28.5 160.833 85.5 208.5s140.167 71.5 249.5 71.5s192.333 -23.833 249 -71.5s85 -117.167 85 -208.5s-28.333 -161 -85 -209
s-139.667 -72 -249 -72zM364 161c20 0 36.667 1.5 50 4.5s24 8.66699 32 17s13.667 19.5 17 33.5s5 32 5 54s-1.66699 39.833 -5 53.5s-9 24.5 -17 32.5s-18.667 13.5 -32 16.5s-30 4.5 -50 4.5s-36.667 -1.5 -50 -4.5s-24 -8.5 -32 -16.5s-13.833 -19 -17.5 -33
s-5.5 -31.667 -5.5 -53c0 -22 1.83301 -40 5.5 -54s9.5 -25 17.5 -33s18.667 -13.667 32 -17s30 -5 50 -5z" />
    <glyph glyph-name="otilde" unicode="&#xf5;" horiz-adv-x="727" 
d="M364 -11c-109.333 0 -192.5 24 -249.5 72s-85.5 117.667 -85.5 209s28.5 160.833 85.5 208.5s140.167 71.5 249.5 71.5s192.333 -23.833 249 -71.5s85 -117.167 85 -208.5s-28.333 -161 -85 -209s-139.667 -72 -249 -72zM364 161c20 0 36.667 1.5 50 4.5
s24 8.66699 32 17s13.667 19.5 17 33.5s5 32 5 54s-1.66699 39.833 -5 53.5s-9 24.5 -17 32.5s-18.667 13.5 -32 16.5s-30 4.5 -50 4.5s-36.667 -1.5 -50 -4.5s-24 -8.5 -32 -16.5s-13.833 -19 -17.5 -33s-5.5 -31.667 -5.5 -53c0 -22 1.83301 -40 5.5 -54s9.5 -25 17.5 -33
s18.667 -13.667 32 -17s30 -5 50 -5zM95 661c25.333 50 54.999 87.5 88.999 112.5s66.333 37.5 97 37.5c19.333 0 38.666 -1.83301 57.999 -5.5s38.5 -7.83398 57.5 -12.501s38.167 -8.83398 57.5 -12.501s38.666 -5.5 57.999 -5.5c16 0 31.833 2.16699 47.5 6.5
s34.834 14.166 57.501 29.499l23 -38c-26.667 -50 -56.834 -87.5 -90.501 -112.5s-65.167 -37.5 -94.5 -37.5c-19.333 0 -38.666 1.83301 -57.999 5.5s-38.666 7.83398 -57.999 12.501s-38.666 8.83398 -57.999 12.501s-38.666 5.5 -57.999 5.5
c-17.333 0 -33.833 -2.16699 -49.5 -6.5s-33.834 -14.166 -54.501 -29.499z" />
    <glyph glyph-name="odieresis" unicode="&#xf6;" horiz-adv-x="727" 
d="M212 606c-39.333 0 -67.333 8.33301 -84 25s-25 43.667 -25 81s8.33301 64.166 25 80.499s44.667 24.5 84 24.5c40 0 68.167 -8.66699 84.5 -26s24.5 -43.666 24.5 -78.999c0 -37.333 -8.16699 -64.333 -24.5 -81s-44.5 -25 -84.5 -25zM509 606
c-39.333 0 -67.333 8.33301 -84 25s-25 43.667 -25 81s8.33301 64.166 25 80.499s44.667 24.5 84 24.5c40 0 68.167 -8.66699 84.5 -26s24.5 -43.666 24.5 -78.999c0 -37.333 -8.16699 -64.333 -24.5 -81s-44.5 -25 -84.5 -25zM364 -11c-109.333 0 -192.5 24 -249.5 72
s-85.5 117.667 -85.5 209s28.5 160.833 85.5 208.5s140.167 71.5 249.5 71.5s192.333 -23.833 249 -71.5s85 -117.167 85 -208.5s-28.333 -161 -85 -209s-139.667 -72 -249 -72zM364 161c20 0 36.667 1.5 50 4.5s24 8.66699 32 17s13.667 19.5 17 33.5s5 32 5 54
s-1.66699 39.833 -5 53.5s-9 24.5 -17 32.5s-18.667 13.5 -32 16.5s-30 4.5 -50 4.5s-36.667 -1.5 -50 -4.5s-24 -8.5 -32 -16.5s-13.833 -19 -17.5 -33s-5.5 -31.667 -5.5 -53c0 -22 1.83301 -40 5.5 -54s9.5 -25 17.5 -33s18.667 -13.667 32 -17s30 -5 50 -5z" />
    <glyph glyph-name="divide" unicode="&#xf7;" horiz-adv-x="536" 
d="M270 91c-24.667 0 -44.834 7 -60.501 21s-23.5 35.667 -23.5 65c0 28 7.83301 48.667 23.5 62s35.834 20 60.501 20c24 0 43.833 -6.66699 59.5 -20s23.5 -34 23.5 -62c0 -29.333 -7.83301 -51 -23.5 -65s-35.5 -21 -59.5 -21zM31 437h474v-134h-474v134zM270 481
c-24.667 0 -44.834 6.66699 -60.501 20s-23.5 34 -23.5 62c0 29.333 7.83301 51 23.5 65s35.834 21 60.501 21c24 0 43.833 -7 59.5 -21s23.5 -35.667 23.5 -65c0 -28 -7.83301 -48.667 -23.5 -62s-35.5 -20 -59.5 -20z" />
    <glyph glyph-name="oslash" unicode="&#xf8;" horiz-adv-x="734" 
d="M91 89c-19.333 23.333 -33.668 50.332 -43.001 80.999s-14 64 -14 100c0 42 6.5 80.167 19.5 114.5s33 63.833 60 88.5s61.667 43.667 104 57s92.5 20 150.5 20c38.667 0 73.667 -3 105 -9s59.333 -14.667 84 -26l28 25h158l-99 -90
c19.333 -23.333 33.833 -50.166 43.5 -80.499s14.5 -63.5 14.5 -99.5c0 -42.667 -6.66699 -81.334 -20 -116.001s-33.666 -64.167 -60.999 -88.5s-62 -43.166 -104 -56.499s-91.667 -20 -149 -20c-76.667 0 -140 11.667 -190 35l-27 -24h-158zM367.998 160.999
c26 0 46 2.16602 60 6.49902s24.333 11 31 20s10.5 20.333 11.5 34s1.5 29.834 1.5 48.501v23l-143 -130c5.33301 -1.33301 11.333 -2 18 -2h21zM263.998 246.998l140 128c-5.33301 0.666992 -10.833 1.16699 -16.5 1.5s-12.167 0.5 -19.5 0.5
c-25.333 0 -44.833 -1.83301 -58.5 -5.5s-24 -9.66699 -31 -18s-11.167 -19.333 -12.5 -33s-2 -30.5 -2 -50.5v-23z" />
    <glyph glyph-name="ugrave" unicode="&#xf9;" horiz-adv-x="740" 
d="M223 -10c-56 0 -98.5 13.668 -127.5 41.001s-43.5 65 -43.5 113v396h230v-330c0 -20 3.66699 -34.333 11 -43s19.666 -13 36.999 -13c15.333 0 34.5 2.16699 57.5 6.5s45.167 9.5 66.5 15.5v364h230v-540h-193l-11 63h-4l-66.5 -34
c-19 -9.33301 -37.667 -16.833 -56 -22.5s-37.666 -9.83398 -57.999 -12.501s-44.5 -4 -72.5 -4zM277 607.001l-133 201h236l61 -191z" />
    <glyph glyph-name="uacute" unicode="&#xfa;" horiz-adv-x="740" 
d="M272 617l61 191h235l-132 -201zM223 -10c-56 0 -98.5 13.668 -127.5 41.001s-43.5 65 -43.5 113v396h230v-330c0 -20 3.66699 -34.333 11 -43s19.666 -13 36.999 -13c15.333 0 34.5 2.16699 57.5 6.5s45.167 9.5 66.5 15.5v364h230v-540h-193l-11 63h-4l-66.5 -34
c-19 -9.33301 -37.667 -16.833 -56 -22.5s-37.666 -9.83398 -57.999 -12.501s-44.5 -4 -72.5 -4z" />
    <glyph glyph-name="ucircumflex" unicode="&#xfb;" horiz-adv-x="740" 
d="M138 745l232 82l238 -82v-148l-235 81l-235 -81v148zM223 -10c-56 0 -98.5 13.668 -127.5 41.001s-43.5 65 -43.5 113v396h230v-330c0 -20 3.66699 -34.333 11 -43s19.666 -13 36.999 -13c15.333 0 34.5 2.16699 57.5 6.5s45.167 9.5 66.5 15.5v364h230v-540h-193l-11 63
h-4l-66.5 -34c-19 -9.33301 -37.667 -16.833 -56 -22.5s-37.666 -9.83398 -57.999 -12.501s-44.5 -4 -72.5 -4z" />
    <glyph glyph-name="udieresis" unicode="&#xfc;" horiz-adv-x="740" 
d="M223 606c-39.333 0 -67.333 8.33301 -84 25s-25 43.667 -25 81s8.33301 64.166 25 80.499s44.667 24.5 84 24.5c40 0 68.167 -8.66699 84.5 -26s24.5 -43.666 24.5 -78.999c0 -37.333 -8.16699 -64.333 -24.5 -81s-44.5 -25 -84.5 -25zM520 606
c-39.333 0 -67.333 8.33301 -84 25s-25 43.667 -25 81s8.33301 64.166 25 80.499s44.667 24.5 84 24.5c40 0 68.167 -8.66699 84.5 -26s24.5 -43.666 24.5 -78.999c0 -37.333 -8.16699 -64.333 -24.5 -81s-44.5 -25 -84.5 -25zM223 -10c-56 0 -98.5 13.668 -127.5 41.001
s-43.5 65 -43.5 113v396h230v-330c0 -20 3.66699 -34.333 11 -43s19.666 -13 36.999 -13c15.333 0 34.5 2.16699 57.5 6.5s45.167 9.5 66.5 15.5v364h230v-540h-193l-11 63h-4l-66.5 -34c-19 -9.33301 -37.667 -16.833 -56 -22.5s-37.666 -9.83398 -57.999 -12.501
s-44.5 -4 -72.5 -4z" />
    <glyph glyph-name="yacute" unicode="&#xfd;" horiz-adv-x="701" 
d="M161 -196v19l78 190l-240 503v24h251l54 -171l42 -131h11l41 131l58 171h244v-24l-324 -736zM270 617l61 191h235l-132 -201z" />
    <glyph glyph-name="thorn" unicode="&#xfe;" horiz-adv-x="734" 
d="M55 808h230v-315c17.333 14 41 26.833 71 38.5s69.333 17.5 118 17.5c81.333 0 139.5 -22 174.5 -66s52.5 -112 52.5 -204c0 -44.667 -6 -84.667 -18 -120s-32.167 -65.5 -60.5 -90.5s-65.5 -44.167 -111.5 -57.5s-103 -20 -171 -20c-4 0 -10.833 0.5 -20.5 1.5
l-34.5 3.5v-216h-230v1028zM376 147c22 0 39.6689 1.49805 53.002 4.49805s23.833 8.83301 31.5 17.5s12.667 21 15 37s3.5 37 3.5 63c0 22.667 -1.16699 41.334 -3.5 56.001s-6.83301 26.334 -13.5 35.001s-15.834 14.667 -27.501 18s-26.834 5 -45.501 5
c-38 0 -64.667 -7 -80 -21s-23 -36 -23 -66v-141c26.667 -5.33301 56.667 -8 90 -8z" />
    <glyph glyph-name="ydieresis" unicode="&#xff;" horiz-adv-x="701" 
d="M161 -196v19l78 190l-240 503v24h251l54 -171l42 -131h11l41 131l58 171h244v-24l-324 -736zM203 606c-39.333 0 -67.333 8.33301 -84 25s-25 43.667 -25 81s8.33301 64.166 25 80.499s44.667 24.5 84 24.5c40 0 68.167 -8.66699 84.5 -26s24.5 -43.666 24.5 -78.999
c0 -37.333 -8.16699 -64.333 -24.5 -81s-44.5 -25 -84.5 -25zM500 606c-39.333 0 -67.333 8.33301 -84 25s-25 43.667 -25 81s8.33301 64.166 25 80.499s44.667 24.5 84 24.5c40 0 68.167 -8.66699 84.5 -26s24.5 -43.666 24.5 -78.999
c0 -37.333 -8.16699 -64.333 -24.5 -81s-44.5 -25 -84.5 -25z" />
    <glyph glyph-name="Amacron" unicode="&#x100;" horiz-adv-x="825" 
d="M-5 12l245 728h345l245 -728v-12h-228l-47 148h-286l-46 -148h-228v12zM501 324l-28 88l-51 171h-20l-51 -173l-27 -86h177zM179 991h466v-148h-466v148z" />
    <glyph glyph-name="amacron" unicode="&#x101;" horiz-adv-x="652" 
d="M198 -5c-57.333 0 -99.999 14 -127.999 42s-42 67.667 -42 119c0 56.667 17.167 99 51.5 127s87.166 44.333 158.499 49l133 8c-0.666992 9.33301 -2.66699 17.333 -6 24s-8.66602 12 -15.999 16s-17.5 7 -30.5 9s-29.5 3 -49.5 3c-30 0 -62 -1.83301 -96 -5.5
s-67 -8.5 -99 -14.5l-15 154c43.333 7.33301 85.833 12.833 127.5 16.5s79.5 5.5 113.5 5.5c201.333 0 302 -64.333 302 -193v-355h-188l-21 65h-10c-25.333 -25.333 -54.333 -43.333 -87 -54s-65.334 -16 -98.001 -16zM304.001 144c14.667 0 28.835 2.16797 42.502 6.50098
s22.167 9.16602 25.5 14.499v69l-56 -5c-20.667 -2 -34.834 -6 -42.501 -12s-11.5 -16.667 -11.5 -32c0 -14.667 3.16699 -25.167 9.5 -31.5s17.166 -9.5 32.499 -9.5zM99.002 791.001h466v-148h-466v148z" />
    <glyph glyph-name="Abreve" unicode="&#x102;" horiz-adv-x="825" 
d="M-5 12l245 728h345l245 -728v-12h-228l-47 148h-286l-46 -148h-228v12zM501 324l-28 88l-51 171h-20l-51 -173l-27 -86h177zM412 811c-50 0 -91.332 5.16504 -123.999 15.498s-58.834 24.333 -78.501 42s-33.5 38.334 -41.5 62.001s-12 48.834 -12 75.501h149
c0 -14 1.5 -26.667 4.5 -38s8.5 -20.833 16.5 -28.5s19 -13.5 33 -17.5s31.667 -6 53 -6c22 0 39.833 2 53.5 6s24.5 9.83301 32.5 17.5s13.5 17.167 16.5 28.5s4.5 24 4.5 38h149c0 -28 -4 -53.833 -12 -77.5s-21.833 -44.167 -41.5 -61.5s-46 -31 -79 -41
s-74.167 -15 -123.5 -15z" />
    <glyph glyph-name="abreve" unicode="&#x103;" horiz-adv-x="652" 
d="M198 -5c-57.333 0 -99.999 14 -127.999 42s-42 67.667 -42 119c0 56.667 17.167 99 51.5 127s87.166 44.333 158.499 49l133 8c-0.666992 9.33301 -2.66699 17.333 -6 24s-8.66602 12 -15.999 16s-17.5 7 -30.5 9s-29.5 3 -49.5 3c-30 0 -62 -1.83301 -96 -5.5
s-67 -8.5 -99 -14.5l-15 154c43.333 7.33301 85.833 12.833 127.5 16.5s79.5 5.5 113.5 5.5c201.333 0 302 -64.333 302 -193v-355h-188l-21 65h-10c-25.333 -25.333 -54.333 -43.333 -87 -54s-65.334 -16 -98.001 -16zM304.001 144c14.667 0 28.835 2.16797 42.502 6.50098
s22.167 9.16602 25.5 14.499v69l-56 -5c-20.667 -2 -34.834 -6 -42.501 -12s-11.5 -16.667 -11.5 -32c0 -14.667 3.16699 -25.167 9.5 -31.5s17.166 -9.5 32.499 -9.5zM328.002 611.001c-50 0 -91.332 5.16504 -123.999 15.498s-58.834 24.333 -78.501 42
s-33.5 38.334 -41.5 62.001s-12 48.834 -12 75.501h149c0 -14 1.5 -26.667 4.5 -38s8.5 -20.833 16.5 -28.5s19 -13.5 33 -17.5s31.667 -6 53 -6c22 0 39.833 2 53.5 6s24.5 9.83301 32.5 17.5s13.5 17.167 16.5 28.5s4.5 24 4.5 38h149c0 -28 -4 -53.833 -12 -77.5
s-21.833 -44.167 -41.5 -61.5s-46 -31 -79 -41s-74.167 -15 -123.5 -15z" />
    <glyph glyph-name="Aogonek" unicode="&#x104;" horiz-adv-x="824" 
d="M733 -220c-54.667 0 -97.498 8.5 -128.498 25.5s-46.5 40.5 -46.5 70.5c0 10.667 2.16699 22 6.5 34s10.166 23.5 17.499 34.5s16 21.333 26 31s21 17.834 33 24.501h-40l-47 148h-286l-46 -148h-228v12l245 728h345l245 -728v-17
c-24 -9.33301 -44.167 -17.5 -60.5 -24.5s-29.333 -13.667 -39 -20s-16.5 -12.333 -20.5 -18s-6 -11.5 -6 -17.5c0 -13.333 8.66699 -20 26 -20c4 0 9.83301 0.5 17.5 1.5l25.5 3.5c9.33301 1.33301 19.166 3.16602 29.499 5.49902l29.5 6.5v-120
c-29.333 -8 -62 -12 -98 -12zM500.002 324l-28 88l-51 171h-20l-51 -173l-27 -86h177z" />
    <glyph glyph-name="aogonek" unicode="&#x105;" horiz-adv-x="653" 
d="M507 -220c-54.667 0 -97.4971 8.5 -128.497 25.5s-46.5 40.5 -46.5 70.5c0 10.667 2.16699 22 6.5 34s10.166 23.5 17.499 34.5s16 21.333 26 31s21 17.834 33 24.501l-21 65h-10c-25.333 -25.333 -54.333 -43.333 -87 -54s-65.334 -16 -98.001 -16
c-57.333 0 -100 14 -128 42s-42 67.667 -42 119c0 56.667 17.167 99 51.5 127s87.166 44.333 158.499 49l133 8c-0.666992 9.33301 -2.66699 17.333 -6 24s-8.66602 12 -15.999 16s-17.5 7 -30.5 9s-29.5 3 -49.5 3c-30 0 -62 -1.83301 -96 -5.5s-67 -8.5 -99 -14.5l-15 154
c43.333 7.33301 85.833 12.833 127.5 16.5s79.5 5.5 113.5 5.5c201.333 0 302 -64.333 302 -193v-360c-24 -9.33301 -44.167 -17.5 -60.5 -24.5s-29.333 -13.667 -39 -20s-16.5 -12.333 -20.5 -18s-6 -11.5 -6 -17.5c0 -13.333 8.66699 -20 26 -20c4 0 9.83301 0.5 17.5 1.5
l25.5 3.5c9.33301 1.33301 19.166 3.16602 29.499 5.49902l29.5 6.5v-120c-29.333 -8 -62 -12 -98 -12zM305.003 144c14.667 0 28.835 2.16797 42.502 6.50098s22.167 9.16602 25.5 14.499v69l-56 -5c-20.667 -2 -34.834 -6 -42.501 -12s-11.5 -16.667 -11.5 -32
c0 -14.667 3.16699 -25.167 9.5 -31.5s17.166 -9.5 32.499 -9.5z" />
    <glyph glyph-name="Cacute" unicode="&#x106;" horiz-adv-x="653" 
d="M457 -15c-144.667 0 -251.503 31.167 -320.503 93.5s-103.5 159.166 -103.5 290.499c0 130.667 32.833 227.667 98.5 291s166.167 95 301.5 95c23.333 0 49 -1 77 -3s64.333 -5.33301 109 -10v-186l-62.5 5c-16.333 1.33301 -30 2.33301 -41 3s-20.667 1.16699 -29 1.5
s-16.833 0.5 -25.5 0.5c-39.333 0 -71.166 -2.5 -95.499 -7.5s-43.166 -14.5 -56.499 -28.5s-22.333 -33.833 -27 -59.5s-7 -59.5 -7 -101.5c0 -40 2.33301 -72.667 7 -98s13.834 -45.166 27.501 -59.499s32.5 -24 56.5 -29s55 -7.5 93 -7.5c10.667 0 23.5 0.333008 38.5 1
s30.167 1.5 45.5 2.5s29.833 2.33301 43.5 4s24.5 3.16699 32.5 4.5v-187c-56 -10 -110 -15 -162 -15zM274.997 817l62 191h235l-132 -201z" />
    <glyph glyph-name="cacute" unicode="&#x107;" horiz-adv-x="582" 
d="M247 617l61 191h235l-132 -201zM324 -9c-195.333 0 -293.001 93 -293.001 279s97.667 279 293 279c40 0 79 -1.66699 117 -5s71 -8 99 -14v-177c-36 3.33301 -70 6 -102 8s-62.667 3 -92 3c-17.333 0 -31.666 -1.5 -42.999 -4.5s-20.5 -8 -27.5 -15s-12 -16.333 -15 -28
s-4.5 -26.5 -4.5 -44.5c0 -36 6.33301 -61 19 -75s35.667 -21 69 -21c42 0 77.667 0.833008 107 2.5s59 4.5 89 8.5v-177c-28 -6 -61 -10.667 -99 -14s-77 -5 -117 -5z" />
    <glyph glyph-name="Ccircumflex" unicode="&#x108;" horiz-adv-x="653" 
d="M457 -15c-144.667 0 -251.503 31.167 -320.503 93.5s-103.5 159.166 -103.5 290.499c0 130.667 32.833 227.667 98.5 291s166.167 95 301.5 95c23.333 0 49 -1 77 -3s64.333 -5.33301 109 -10v-186l-62.5 5c-16.333 1.33301 -30 2.33301 -41 3s-20.667 1.16699 -29 1.5
s-16.833 0.5 -25.5 0.5c-39.333 0 -71.166 -2.5 -95.499 -7.5s-43.166 -14.5 -56.499 -28.5s-22.333 -33.833 -27 -59.5s-7 -59.5 -7 -101.5c0 -40 2.33301 -72.667 7 -98s13.834 -45.166 27.501 -59.499s32.5 -24 56.5 -29s55 -7.5 93 -7.5c10.667 0 23.5 0.333008 38.5 1
s30.167 1.5 45.5 2.5s29.833 2.33301 43.5 4s24.5 3.16699 32.5 4.5v-187c-56 -10 -110 -15 -162 -15zM127.997 945l232 82l238 -82v-148l-235 81l-235 -81v148z" />
    <glyph glyph-name="ccircumflex" unicode="&#x109;" horiz-adv-x="582" 
d="M90 745l232 82l238 -82v-148l-235 81l-235 -81v148zM324 -9c-195.333 0 -293.001 93 -293.001 279s97.667 279 293 279c40 0 79 -1.66699 117 -5s71 -8 99 -14v-177c-36 3.33301 -70 6 -102 8s-62.667 3 -92 3c-17.333 0 -31.666 -1.5 -42.999 -4.5s-20.5 -8 -27.5 -15
s-12 -16.333 -15 -28s-4.5 -26.5 -4.5 -44.5c0 -36 6.33301 -61 19 -75s35.667 -21 69 -21c42 0 77.667 0.833008 107 2.5s59 4.5 89 8.5v-177c-28 -6 -61 -10.667 -99 -14s-77 -5 -117 -5z" />
    <glyph glyph-name="Cdotaccent" unicode="&#x10a;" horiz-adv-x="653" 
d="M392 794c-44 0 -75.333 9.16699 -94 27.5s-28 48.5 -28 90.5c0 41.333 9.33301 71.333 28 90s50 28 94 28c45.333 0 76.833 -9.66699 94.5 -29s26.5 -49 26.5 -89s-8.83301 -69.667 -26.5 -89s-49.167 -29 -94.5 -29zM457 -15c-144.667 0 -251.503 31.167 -320.503 93.5
s-103.5 159.166 -103.5 290.499c0 130.667 32.833 227.667 98.5 291s166.167 95 301.5 95c23.333 0 49 -1 77 -3s64.333 -5.33301 109 -10v-186l-62.5 5c-16.333 1.33301 -30 2.33301 -41 3s-20.667 1.16699 -29 1.5s-16.833 0.5 -25.5 0.5
c-39.333 0 -71.166 -2.5 -95.499 -7.5s-43.166 -14.5 -56.499 -28.5s-22.333 -33.833 -27 -59.5s-7 -59.5 -7 -101.5c0 -40 2.33301 -72.667 7 -98s13.834 -45.166 27.501 -59.499s32.5 -24 56.5 -29s55 -7.5 93 -7.5c10.667 0 23.5 0.333008 38.5 1s30.167 1.5 45.5 2.5
s29.833 2.33301 43.5 4s24.5 3.16699 32.5 4.5v-187c-56 -10 -110 -15 -162 -15z" />
    <glyph glyph-name="cdotaccent" unicode="&#x10b;" horiz-adv-x="582" 
d="M324 -9c-195.333 0 -293.001 93 -293.001 279s97.667 279 293 279c40 0 79 -1.66699 117 -5s71 -8 99 -14v-177c-36 3.33301 -70 6 -102 8s-62.667 3 -92 3c-17.333 0 -31.666 -1.5 -42.999 -4.5s-20.5 -8 -27.5 -15s-12 -16.333 -15 -28s-4.5 -26.5 -4.5 -44.5
c0 -36 6.33301 -61 19 -75s35.667 -21 69 -21c42 0 77.667 0.833008 107 2.5s59 4.5 89 8.5v-177c-28 -6 -61 -10.667 -99 -14s-77 -5 -117 -5zM316.999 594c-44 0 -75.333 9.16699 -94 27.5s-28 48.5 -28 90.5c0 41.333 9.33301 71.333 28 90s50 28 94 28
c45.333 0 76.833 -9.66699 94.5 -29s26.5 -49 26.5 -89s-8.83301 -69.667 -26.5 -89s-49.167 -29 -94.5 -29z" />
    <glyph glyph-name="Ccaron" unicode="&#x10c;" horiz-adv-x="653" 
d="M457 -15c-144.667 0 -251.503 31.167 -320.503 93.5s-103.5 159.166 -103.5 290.499c0 130.667 32.833 227.667 98.5 291s166.167 95 301.5 95c23.333 0 49 -1 77 -3s64.333 -5.33301 109 -10v-186l-62.5 5c-16.333 1.33301 -30 2.33301 -41 3s-20.667 1.16699 -29 1.5
s-16.833 0.5 -25.5 0.5c-39.333 0 -71.166 -2.5 -95.499 -7.5s-43.166 -14.5 -56.499 -28.5s-22.333 -33.833 -27 -59.5s-7 -59.5 -7 -101.5c0 -40 2.33301 -72.667 7 -98s13.834 -45.166 27.501 -59.499s32.5 -24 56.5 -29s55 -7.5 93 -7.5c10.667 0 23.5 0.333008 38.5 1
s30.167 1.5 45.5 2.5s29.833 2.33301 43.5 4s24.5 3.16699 32.5 4.5v-187c-56 -10 -110 -15 -162 -15zM130.997 1027l235 -82l235 82v-149l-238 -81l-232 81v149z" />
    <glyph glyph-name="ccaron" unicode="&#x10d;" horiz-adv-x="582" 
d="M81 827l235 -82l235 82v-149l-238 -81l-232 81v149zM324 -9c-195.333 0 -293.001 93 -293.001 279s97.667 279 293 279c40 0 79 -1.66699 117 -5s71 -8 99 -14v-177c-36 3.33301 -70 6 -102 8s-62.667 3 -92 3c-17.333 0 -31.666 -1.5 -42.999 -4.5s-20.5 -8 -27.5 -15
s-12 -16.333 -15 -28s-4.5 -26.5 -4.5 -44.5c0 -36 6.33301 -61 19 -75s35.667 -21 69 -21c42 0 77.667 0.833008 107 2.5s59 4.5 89 8.5v-177c-28 -6 -61 -10.667 -99 -14s-77 -5 -117 -5z" />
    <glyph glyph-name="Dcaron" unicode="&#x10e;" horiz-adv-x="851" 
d="M191 1027l235 -82l235 82v-149l-238 -81l-232 81v149zM312 -10c-23.333 0 -46.6689 0.333008 -70.002 1s-46 1.5 -68 2.5s-42.333 2.33301 -61 4s-34.667 3.5 -48 5.5v735c70 4 129.167 7 177.5 9s90.5 3 126.5 3c78 0 145.167 -7.5 201.5 -22.5s102.833 -38 139.5 -69
s63.834 -70.5 81.501 -118.5s26.5 -105 26.5 -171c0 -68 -9.33301 -126 -28 -174s-48.167 -87.167 -88.5 -117.5s-92.666 -52.5 -156.999 -66.5s-141.833 -21 -232.5 -21zM409.997 173c32.667 0 59.665 3.00098 80.998 9.00098s38.5 16.5 51.5 31.5s22.167 35.167 27.5 60.5
s8 57 8 95c0 36.667 -3 67.667 -9 93s-15.667 45.666 -29 60.999s-31.166 26.333 -53.499 33s-49.833 10 -82.5 10c-12 0 -25.833 -0.333008 -41.5 -1s-36.5 -2 -62.5 -4v-380c14.667 -2.66699 31.834 -4.66699 51.501 -6s39.167 -2 58.5 -2z" />
    <glyph glyph-name="dcaron" unicode="&#x10f;" horiz-adv-x="738" 
d="M728 808h178l-53 -228h-125v228zM281 -11c-83.333 0 -145.999 22.166 -187.999 66.499s-63 110.833 -63 199.5c0 48 8.16699 90.5 24.5 127.5s39.333 67.833 69 92.5s65.334 43.334 107.001 56.001s88.167 19 139.5 19c14.667 0 28.667 -0.333008 42 -1
s26.666 -1.66699 39.999 -3v262h230v-808h-199l-19 71h-10c-18.667 -29.333 -41.834 -50.333 -69.501 -63s-62.167 -19 -103.5 -19zM350.001 155.999c36 0 61.667 6.16992 77 18.5029s23.666 32.166 24.999 59.499v150c-26.667 5.33301 -56.334 8 -89.001 8
c-22 0 -39.667 -1.5 -53 -4.5s-23.833 -8.83301 -31.5 -17.5s-12.667 -21 -15 -37s-3.5 -37 -3.5 -63c0 -22.667 1.16699 -41.334 3.5 -56.001s6.83301 -26.334 13.5 -35.001s15.834 -14.667 27.501 -18s26.834 -5 45.501 -5z" />
    <glyph glyph-name="Dcroat" unicode="&#x110;" horiz-adv-x="879" 
d="M5 462h87.9971v276c70 4 129.167 7 177.5 9s90.5 3 126.5 3c78 0 145.167 -7.5 201.5 -22.5s102.833 -38 139.5 -69s63.834 -70.5 81.501 -118.5s26.5 -105 26.5 -171c0 -68 -9.33301 -126 -28 -174s-48.167 -87.167 -88.5 -117.5s-92.666 -52.5 -156.999 -66.5
s-141.833 -21 -232.5 -21c-23.333 0 -46.666 0.333008 -69.999 1s-46 1.5 -68 2.5s-42.333 2.33301 -61 4s-34.667 3.5 -48 5.5v285h-88v174zM437.997 173c32.667 0 59.665 3.00098 80.998 9.00098s38.5 16.5 51.5 31.5s22.167 35.167 27.5 60.5s8 57 8 95
c0 36.667 -3 67.667 -9 93s-15.667 45.666 -29 60.999s-31.166 26.333 -53.499 33s-49.833 10 -82.5 10c-12 0 -25.833 -0.333008 -41.5 -1s-36.5 -2 -62.5 -4v-99h98v-174h-98v-107c14.667 -2.66699 31.834 -4.66699 51.501 -6s39.167 -2 58.5 -2z" />
    <glyph glyph-name="dcroat" unicode="&#x111;" horiz-adv-x="738" 
d="M280 735l172.001 -0.000976562v73h230v-73h72v-123h-72v-612h-199l-19 71h-10c-18.667 -29.333 -41.834 -50.333 -69.501 -63s-62.167 -19 -103.5 -19c-83.333 0 -146 22.167 -188 66.5s-63 110.833 -63 199.5c0 48 8.16699 90.5 24.5 127.5s39.333 67.833 69 92.5
s65.334 43.334 107.001 56.001s88.167 19 139.5 19c14.667 0 28.667 -0.333008 42 -1s26.666 -1.66699 39.999 -3v66h-172v123zM350.001 155.999c36 0 61.667 6.16992 77 18.5029s23.666 32.166 24.999 59.499v150c-26.667 5.33301 -56.334 8 -89.001 8
c-22 0 -39.667 -1.5 -53 -4.5s-23.833 -8.83301 -31.5 -17.5s-12.667 -21 -15 -37s-3.5 -37 -3.5 -63c0 -22.667 1.16699 -41.334 3.5 -56.001s6.83301 -26.334 13.5 -35.001s15.834 -14.667 27.501 -18s26.834 -5 45.501 -5z" />
    <glyph glyph-name="Emacron" unicode="&#x112;" horiz-adv-x="727" 
d="M144 991h466v-148h-466v148zM65 740h616v-176h-381v-106h341v-176h-341v-106h391v-176h-626v740z" />
    <glyph glyph-name="emacron" unicode="&#x113;" horiz-adv-x="656" 
d="M345 -9c-106.667 0 -185.667 22.668 -237 68.001s-77 115 -77 209c0 187.333 106.333 281 319 281c90.667 0 159.167 -19.667 205.5 -59s69.5 -97.333 69.5 -174c0 -34.667 -4.33301 -67 -13 -97h-353c2 -12.667 5.16699 -22.834 9.5 -30.501s10.5 -13.5 18.5 -17.5
s18.5 -6.66699 31.5 -8s28.833 -2 47.5 -2c18 0 37.833 0.5 59.5 1.5s43 2.5 64 4.5s40.833 4.16699 59.5 6.5s34 4.83301 46 7.5l6 -159c-38 -10 -79 -17.667 -123 -23s-88.333 -8 -133 -8zM338 396.001c-28 0 -47.8311 -5.16699 -59.498 -15.5
s-18.834 -29.833 -21.501 -58.5h167c-1.33301 26.667 -8.33301 45.667 -21 57s-34.334 17 -65.001 17zM99.002 791.001h466v-148h-466v148z" />
    <glyph glyph-name="Ebreve" unicode="&#x114;" horiz-adv-x="727" 
d="M362 811c-50 0 -91.332 5.16504 -123.999 15.498s-58.834 24.333 -78.501 42s-33.5 38.334 -41.5 62.001s-12 48.834 -12 75.501h149c0 -14 1.5 -26.667 4.5 -38s8.5 -20.833 16.5 -28.5s19 -13.5 33 -17.5s31.667 -6 53 -6c22 0 39.833 2 53.5 6s24.5 9.83301 32.5 17.5
s13.5 17.167 16.5 28.5s4.5 24 4.5 38h149c0 -28 -4 -53.833 -12 -77.5s-21.833 -44.167 -41.5 -61.5s-46 -31 -79 -41s-74.167 -15 -123.5 -15zM65.001 739.998h616v-176h-381v-106h341v-176h-341v-106h391v-176h-626v740z" />
    <glyph glyph-name="ebreve" unicode="&#x115;" horiz-adv-x="656" 
d="M345 -9c-106.667 0 -185.667 22.668 -237 68.001s-77 115 -77 209c0 187.333 106.333 281 319 281c90.667 0 159.167 -19.667 205.5 -59s69.5 -97.333 69.5 -174c0 -34.667 -4.33301 -67 -13 -97h-353c2 -12.667 5.16699 -22.834 9.5 -30.501s10.5 -13.5 18.5 -17.5
s18.5 -6.66699 31.5 -8s28.833 -2 47.5 -2c18 0 37.833 0.5 59.5 1.5s43 2.5 64 4.5s40.833 4.16699 59.5 6.5s34 4.83301 46 7.5l6 -159c-38 -10 -79 -17.667 -123 -23s-88.333 -8 -133 -8zM338 396.001c-28 0 -47.8311 -5.16699 -59.498 -15.5
s-18.834 -29.833 -21.501 -58.5h167c-1.33301 26.667 -8.33301 45.667 -21 57s-34.334 17 -65.001 17zM334.002 611.001c-50 0 -91.332 5.16504 -123.999 15.498s-58.834 24.333 -78.501 42s-33.5 38.334 -41.5 62.001s-12 48.834 -12 75.501h149c0 -14 1.5 -26.667 4.5 -38
s8.5 -20.833 16.5 -28.5s19 -13.5 33 -17.5s31.667 -6 53 -6c22 0 39.833 2 53.5 6s24.5 9.83301 32.5 17.5s13.5 17.167 16.5 28.5s4.5 24 4.5 38h149c0 -28 -4 -53.833 -12 -77.5s-21.833 -44.167 -41.5 -61.5s-46 -31 -79 -41s-74.167 -15 -123.5 -15z" />
    <glyph glyph-name="Edotaccent" unicode="&#x116;" horiz-adv-x="727" 
d="M362 794c-44 0 -75.333 9.16699 -94 27.5s-28 48.5 -28 90.5c0 41.333 9.33301 71.333 28 90s50 28 94 28c45.333 0 76.833 -9.66699 94.5 -29s26.5 -49 26.5 -89s-8.83301 -69.667 -26.5 -89s-49.167 -29 -94.5 -29zM65 740h616v-176h-381v-106h341v-176h-341v-106h391
v-176h-626v740z" />
    <glyph glyph-name="edotaccent" unicode="&#x117;" horiz-adv-x="656" 
d="M345 -9c-106.667 0 -185.667 22.668 -237 68.001s-77 115 -77 209c0 187.333 106.333 281 319 281c90.667 0 159.167 -19.667 205.5 -59s69.5 -97.333 69.5 -174c0 -34.667 -4.33301 -67 -13 -97h-353c2 -12.667 5.16699 -22.834 9.5 -30.501s10.5 -13.5 18.5 -17.5
s18.5 -6.66699 31.5 -8s28.833 -2 47.5 -2c18 0 37.833 0.5 59.5 1.5s43 2.5 64 4.5s40.833 4.16699 59.5 6.5s34 4.83301 46 7.5l6 -159c-38 -10 -79 -17.667 -123 -23s-88.333 -8 -133 -8zM338 396.001c-28 0 -47.8311 -5.16699 -59.498 -15.5
s-18.834 -29.833 -21.501 -58.5h167c-1.33301 26.667 -8.33301 45.667 -21 57s-34.334 17 -65.001 17zM346.002 594.001c-44 0 -75.333 9.16699 -94 27.5s-28 48.5 -28 90.5c0 41.333 9.33301 71.333 28 90s50 28 94 28c45.333 0 76.833 -9.66699 94.5 -29
s26.5 -49 26.5 -89s-8.83301 -69.667 -26.5 -89s-49.167 -29 -94.5 -29z" />
    <glyph glyph-name="Eogonek" unicode="&#x118;" horiz-adv-x="727" 
d="M65 740h616.002v-176h-381v-106h341v-176h-341v-106h391v-181c-24 -9.33301 -44.167 -17.5 -60.5 -24.5s-29.333 -13.667 -39 -20s-16.5 -12.333 -20.5 -18s-6 -11.5 -6 -17.5c0 -13.333 8.66699 -20 26 -20c4 0 9.83301 0.5 17.5 1.5l25.5 3.5
c9.33301 1.33301 19.166 3.16602 29.499 5.49902l29.5 6.5v-120c-29.333 -8 -62 -12 -98 -12c-54.667 0 -97.5 8.5 -128.5 25.5s-46.5 40.5 -46.5 70.5c0 10.667 2.16699 22 6.5 34s10.166 23.5 17.499 34.5s16 21.333 26 31s21 17.834 33 24.501h-438v740z" />
    <glyph glyph-name="eogonek" unicode="&#x119;" horiz-adv-x="657" 
d="M345 -9c-106.667 0 -185.667 22.6709 -237 68.0039s-77 115 -77 209c0 187.333 106.333 281 319 281c90.667 0 159.167 -19.667 205.5 -59s69.5 -97.333 69.5 -174c0 -34.667 -4.33301 -67 -13 -97h-353c2 -12.667 5.16699 -22.834 9.5 -30.501s10.5 -13.5 18.5 -17.5
s18.5 -6.66699 31.5 -8s28.833 -2 47.5 -2c18 0 37.833 0.5 59.5 1.5s43 2.5 64 4.5s40.833 4.16699 59.5 6.5s34 4.83301 46 7.5l6 -157v-6c-24 -9.33301 -44.167 -17.5 -60.5 -24.5s-29.333 -13.667 -39 -20s-16.5 -12.333 -20.5 -18s-6 -11.5 -6 -17.5
c0 -13.333 8.66699 -20 26 -20c4 0 9.83301 0.5 17.5 1.5l25.5 3.5c9.33301 1.33301 19.166 3.16602 29.499 5.49902l29.5 6.5v-120c-29.333 -8 -62 -12 -98 -12c-54.667 0 -97.5 8.5 -128.5 25.5s-46.5 40.5 -46.5 70.5c0 15.333 3.83301 31.166 11.5 47.499
s17.834 31.166 30.501 44.499h-27zM338 396.004c-28 0 -47.8311 -5.16699 -59.498 -15.5s-18.834 -29.833 -21.501 -58.5h167c-1.33301 26.667 -8.33301 45.667 -21 57s-34.334 17 -65.001 17z" />
    <glyph glyph-name="Ecaron" unicode="&#x11a;" horiz-adv-x="727" 
d="M136 1027l235 -82l235 82v-149l-238 -81l-232 81v149zM65 740h616v-176h-381v-106h341v-176h-341v-106h391v-176h-626v740z" />
    <glyph glyph-name="ecaron" unicode="&#x11b;" horiz-adv-x="656" 
d="M108 827l235 -82l235 82v-149l-238 -81l-232 81v149zM345 -9c-106.667 0 -185.667 22.668 -237 68.001s-77 115 -77 209c0 187.333 106.333 281 319 281c90.667 0 159.167 -19.667 205.5 -59s69.5 -97.333 69.5 -174c0 -34.667 -4.33301 -67 -13 -97h-353
c2 -12.667 5.16699 -22.834 9.5 -30.501s10.5 -13.5 18.5 -17.5s18.5 -6.66699 31.5 -8s28.833 -2 47.5 -2c18 0 37.833 0.5 59.5 1.5s43 2.5 64 4.5s40.833 4.16699 59.5 6.5s34 4.83301 46 7.5l6 -159c-38 -10 -79 -17.667 -123 -23s-88.333 -8 -133 -8zM338 396.001
c-28 0 -47.8311 -5.16699 -59.498 -15.5s-18.834 -29.833 -21.501 -58.5h167c-1.33301 26.667 -8.33301 45.667 -21 57s-34.334 17 -65.001 17z" />
    <glyph glyph-name="Gcircumflex" unicode="&#x11c;" horiz-adv-x="771" 
d="M456 -15c-144.667 0 -251.503 31.1689 -320.503 93.502s-103.5 159.166 -103.5 290.499c0 130.667 35.667 227.667 107 291s180.666 95 327.999 95c20.667 0 42.334 -0.666992 65.001 -2s45 -3 67 -5s42.833 -4.5 62.5 -7.5s36.834 -6.16699 51.501 -9.5v-186
c-48.667 7.33301 -92.5 12.666 -131.5 15.999s-71.167 5 -96.5 5c-44.667 0 -80.667 -2.5 -108 -7.5s-48.666 -14.667 -63.999 -29s-25.666 -34.333 -30.999 -60s-8 -59.167 -8 -100.5c0 -40 2.33301 -72.667 7 -98s13.834 -45.166 27.501 -59.499s32.5 -24 56.5 -29
s55 -7.5 93 -7.5h23.5c8.33301 0 17.166 0.333008 26.499 1v200h216v-345c-20 -6.66699 -41.833 -12.834 -65.5 -18.501s-47.5 -10.5 -71.5 -14.5s-47.333 -7.16699 -70 -9.5s-43 -3.5 -61 -3.5zM165.997 945.002l232 82l238 -82v-148l-235 81l-235 -81v148z" />
    <glyph glyph-name="gcircumflex" unicode="&#x11d;" horiz-adv-x="736" 
d="M144 745l232 82l238 -82v-148l-235 81l-235 -81v148zM332 -220c-23.333 0 -47.6689 0.501953 -73.002 1.50195s-49.666 2.5 -72.999 4.5s-45.166 4.16699 -65.499 6.5s-37.5 5.16602 -51.5 8.49902l13 160c10 -2 22.333 -4 37 -6s30.5 -4 47.5 -6s35 -3.66699 54 -5
s38.167 -2 57.5 -2c24.667 0 48.5 1.5 71.5 4.5s43.5 8.5 61.5 16.5s32.333 18.667 43 32s16 30.333 16 51v70h-10c-17.333 -32 -41 -55 -71 -69s-65.667 -21 -107 -21c-83.333 0 -146 20.167 -188 60.5s-63 101.5 -63 183.5c0 46 8.16699 86.5 24.5 121.5
s39.333 64.167 69 87.5s65.334 41 107.001 53s88.167 18 139.5 18c16.667 0 33.5 -0.666992 50.5 -2s37 -4 60 -8s50.667 -10 83 -18s71.833 -18.667 118.5 -32v-419c0 -54.667 -9.83301 -100.667 -29.5 -138s-45.834 -67.333 -78.501 -90s-70.167 -38.834 -112.5 -48.501
s-85.833 -14.5 -130.5 -14.5zM350.997 191.002c38 0 64.499 7 79.499 21s22.5 36 22.5 66v106c-26.667 5.33301 -56.334 8 -89.001 8c-22 0 -39.667 -1.16699 -53 -3.5s-23.833 -7.33301 -31.5 -15s-12.667 -18.5 -15 -32.5s-3.5 -32.667 -3.5 -56
c0 -18.667 1.16699 -34.167 3.5 -46.5s6.83301 -22 13.5 -29s15.834 -11.833 27.501 -14.5s26.834 -4 45.501 -4z" />
    <glyph glyph-name="Gbreve" unicode="&#x11e;" horiz-adv-x="771" 
d="M418 811c-50 0 -91.332 5.16504 -123.999 15.498s-58.834 24.333 -78.501 42s-33.5 38.334 -41.5 62.001s-12 48.834 -12 75.501h149c0 -14 1.5 -26.667 4.5 -38s8.5 -20.833 16.5 -28.5s19 -13.5 33 -17.5s31.667 -6 53 -6c22 0 39.833 2 53.5 6s24.5 9.83301 32.5 17.5
s13.5 17.167 16.5 28.5s4.5 24 4.5 38h149c0 -28 -4 -53.833 -12 -77.5s-21.833 -44.167 -41.5 -61.5s-46 -31 -79 -41s-74.167 -15 -123.5 -15zM456.001 -15.002c-144.667 0 -251.503 31.1689 -320.503 93.502s-103.5 159.166 -103.5 290.499
c0 130.667 35.667 227.667 107 291s180.666 95 327.999 95c20.667 0 42.334 -0.666992 65.001 -2s45 -3 67 -5s42.833 -4.5 62.5 -7.5s36.834 -6.16699 51.501 -9.5v-186c-48.667 7.33301 -92.5 12.666 -131.5 15.999s-71.167 5 -96.5 5c-44.667 0 -80.667 -2.5 -108 -7.5
s-48.666 -14.667 -63.999 -29s-25.666 -34.333 -30.999 -60s-8 -59.167 -8 -100.5c0 -40 2.33301 -72.667 7 -98s13.834 -45.166 27.501 -59.499s32.5 -24 56.5 -29s55 -7.5 93 -7.5h23.5c8.33301 0 17.166 0.333008 26.499 1v200h216v-345
c-20 -6.66699 -41.833 -12.834 -65.5 -18.501s-47.5 -10.5 -71.5 -14.5s-47.333 -7.16699 -70 -9.5s-43 -3.5 -61 -3.5z" />
    <glyph glyph-name="gbreve" unicode="&#x11f;" horiz-adv-x="736" 
d="M332 -220c-23.333 0 -47.6689 0.501953 -73.002 1.50195s-49.666 2.5 -72.999 4.5s-45.166 4.16699 -65.499 6.5s-37.5 5.16602 -51.5 8.49902l13 160c10 -2 22.333 -4 37 -6s30.5 -4 47.5 -6s35 -3.66699 54 -5s38.167 -2 57.5 -2c24.667 0 48.5 1.5 71.5 4.5
s43.5 8.5 61.5 16.5s32.333 18.667 43 32s16 30.333 16 51v70h-10c-17.333 -32 -41 -55 -71 -69s-65.667 -21 -107 -21c-83.333 0 -146 20.167 -188 60.5s-63 101.5 -63 183.5c0 46 8.16699 86.5 24.5 121.5s39.333 64.167 69 87.5s65.334 41 107.001 53s88.167 18 139.5 18
c16.667 0 33.5 -0.666992 50.5 -2s37 -4 60 -8s50.667 -10 83 -18s71.833 -18.667 118.5 -32v-419c0 -54.667 -9.83301 -100.667 -29.5 -138s-45.834 -67.333 -78.501 -90s-70.167 -38.834 -112.5 -48.501s-85.833 -14.5 -130.5 -14.5zM350.997 191.002
c38 0 64.499 7 79.499 21s22.5 36 22.5 66v106c-26.667 5.33301 -56.334 8 -89.001 8c-22 0 -39.667 -1.16699 -53 -3.5s-23.833 -7.33301 -31.5 -15s-12.667 -18.5 -15 -32.5s-3.5 -32.667 -3.5 -56c0 -18.667 1.16699 -34.167 3.5 -46.5s6.83301 -22 13.5 -29
s15.834 -11.833 27.501 -14.5s26.834 -4 45.501 -4zM364.996 611.002c-50 0 -91.332 5.16504 -123.999 15.498s-58.834 24.333 -78.501 42s-33.5 38.334 -41.5 62.001s-12 48.834 -12 75.501h149c0 -14 1.5 -26.667 4.5 -38s8.5 -20.833 16.5 -28.5s19 -13.5 33 -17.5
s31.667 -6 53 -6c22 0 39.833 2 53.5 6s24.5 9.83301 32.5 17.5s13.5 17.167 16.5 28.5s4.5 24 4.5 38h149c0 -28 -4 -53.833 -12 -77.5s-21.833 -44.167 -41.5 -61.5s-46 -31 -79 -41s-74.167 -15 -123.5 -15z" />
    <glyph glyph-name="Gdotaccent" unicode="&#x120;" horiz-adv-x="771" 
d="M423 794c-44 0 -75.333 9.16699 -94 27.5s-28 48.5 -28 90.5c0 41.333 9.33301 71.333 28 90s50 28 94 28c45.333 0 76.833 -9.66699 94.5 -29s26.5 -49 26.5 -89s-8.83301 -69.667 -26.5 -89s-49.167 -29 -94.5 -29zM456 -15
c-144.667 0 -251.503 31.1689 -320.503 93.502s-103.5 159.166 -103.5 290.499c0 130.667 35.667 227.667 107 291s180.666 95 327.999 95c20.667 0 42.334 -0.666992 65.001 -2s45 -3 67 -5s42.833 -4.5 62.5 -7.5s36.834 -6.16699 51.501 -9.5v-186
c-48.667 7.33301 -92.5 12.666 -131.5 15.999s-71.167 5 -96.5 5c-44.667 0 -80.667 -2.5 -108 -7.5s-48.666 -14.667 -63.999 -29s-25.666 -34.333 -30.999 -60s-8 -59.167 -8 -100.5c0 -40 2.33301 -72.667 7 -98s13.834 -45.166 27.501 -59.499s32.5 -24 56.5 -29
s55 -7.5 93 -7.5h23.5c8.33301 0 17.166 0.333008 26.499 1v200h216v-345c-20 -6.66699 -41.833 -12.834 -65.5 -18.501s-47.5 -10.5 -71.5 -14.5s-47.333 -7.16699 -70 -9.5s-43 -3.5 -61 -3.5z" />
    <glyph glyph-name="gdotaccent" unicode="&#x121;" horiz-adv-x="736" 
d="M332 -220c-23.333 0 -47.6689 0.501953 -73.002 1.50195s-49.666 2.5 -72.999 4.5s-45.166 4.16699 -65.499 6.5s-37.5 5.16602 -51.5 8.49902l13 160c10 -2 22.333 -4 37 -6s30.5 -4 47.5 -6s35 -3.66699 54 -5s38.167 -2 57.5 -2c24.667 0 48.5 1.5 71.5 4.5
s43.5 8.5 61.5 16.5s32.333 18.667 43 32s16 30.333 16 51v70h-10c-17.333 -32 -41 -55 -71 -69s-65.667 -21 -107 -21c-83.333 0 -146 20.167 -188 60.5s-63 101.5 -63 183.5c0 46 8.16699 86.5 24.5 121.5s39.333 64.167 69 87.5s65.334 41 107.001 53s88.167 18 139.5 18
c16.667 0 33.5 -0.666992 50.5 -2s37 -4 60 -8s50.667 -10 83 -18s71.833 -18.667 118.5 -32v-419c0 -54.667 -9.83301 -100.667 -29.5 -138s-45.834 -67.333 -78.501 -90s-70.167 -38.834 -112.5 -48.501s-85.833 -14.5 -130.5 -14.5zM350.997 191.002
c38 0 64.499 7 79.499 21s22.5 36 22.5 66v106c-26.667 5.33301 -56.334 8 -89.001 8c-22 0 -39.667 -1.16699 -53 -3.5s-23.833 -7.33301 -31.5 -15s-12.667 -18.5 -15 -32.5s-3.5 -32.667 -3.5 -56c0 -18.667 1.16699 -34.167 3.5 -46.5s6.83301 -22 13.5 -29
s15.834 -11.833 27.501 -14.5s26.834 -4 45.501 -4zM368.996 594.002c-44 0 -75.333 9.16699 -94 27.5s-28 48.5 -28 90.5c0 41.333 9.33301 71.333 28 90s50 28 94 28c45.333 0 76.833 -9.66699 94.5 -29s26.5 -49 26.5 -89s-8.83301 -69.667 -26.5 -89
s-49.167 -29 -94.5 -29z" />
    <glyph glyph-name="Gcommaaccent" unicode="&#x122;" horiz-adv-x="771" 
d="M290 -70h236l-104 -150h-171zM456 -15c-144.667 0 -251.503 31.1689 -320.503 93.502s-103.5 159.166 -103.5 290.499c0 130.667 35.667 227.667 107 291s180.666 95 327.999 95c20.667 0 42.334 -0.666992 65.001 -2s45 -3 67 -5s42.833 -4.5 62.5 -7.5
s36.834 -6.16699 51.501 -9.5v-186c-48.667 7.33301 -92.5 12.666 -131.5 15.999s-71.167 5 -96.5 5c-44.667 0 -80.667 -2.5 -108 -7.5s-48.666 -14.667 -63.999 -29s-25.666 -34.333 -30.999 -60s-8 -59.167 -8 -100.5c0 -40 2.33301 -72.667 7 -98
s13.834 -45.166 27.501 -59.499s32.5 -24 56.5 -29s55 -7.5 93 -7.5h23.5c8.33301 0 17.166 0.333008 26.499 1v200h216v-345c-20 -6.66699 -41.833 -12.834 -65.5 -18.501s-47.5 -10.5 -71.5 -14.5s-47.333 -7.16699 -70 -9.5s-43 -3.5 -61 -3.5z" />
    <glyph glyph-name="gcommaaccent" unicode="&#x123;" horiz-adv-x="736" 
d="M550 770l-38 -150h-236l104 150h170zM332 -220c-23.333 0 -47.6689 0.501953 -73.002 1.50195s-49.666 2.5 -72.999 4.5s-45.166 4.16699 -65.499 6.5s-37.5 5.16602 -51.5 8.49902l13 160c10 -2 22.333 -4 37 -6s30.5 -4 47.5 -6s35 -3.66699 54 -5s38.167 -2 57.5 -2
c24.667 0 48.5 1.5 71.5 4.5s43.5 8.5 61.5 16.5s32.333 18.667 43 32s16 30.333 16 51v70h-10c-17.333 -32 -41 -55 -71 -69s-65.667 -21 -107 -21c-83.333 0 -146 20.167 -188 60.5s-63 101.5 -63 183.5c0 46 8.16699 86.5 24.5 121.5s39.333 64.167 69 87.5
s65.334 41 107.001 53s88.167 18 139.5 18c16.667 0 33.5 -0.666992 50.5 -2s37 -4 60 -8s50.667 -10 83 -18s71.833 -18.667 118.5 -32v-419c0 -54.667 -9.83301 -100.667 -29.5 -138s-45.834 -67.333 -78.501 -90s-70.167 -38.834 -112.5 -48.501
s-85.833 -14.5 -130.5 -14.5zM350.997 191.002c38 0 64.499 7 79.499 21s22.5 36 22.5 66v106c-26.667 5.33301 -56.334 8 -89.001 8c-22 0 -39.667 -1.16699 -53 -3.5s-23.833 -7.33301 -31.5 -15s-12.667 -18.5 -15 -32.5s-3.5 -32.667 -3.5 -56
c0 -18.667 1.16699 -34.167 3.5 -46.5s6.83301 -22 13.5 -29s15.834 -11.833 27.501 -14.5s26.834 -4 45.501 -4z" />
    <glyph glyph-name="Hcircumflex" unicode="&#x124;" horiz-adv-x="898" 
d="M65 740h235v-272h298v272h235v-740h-235v292h-298v-292h-235v740zM216 945l232 82l238 -82v-148l-235 81l-235 -81v148z" />
    <glyph glyph-name="hcircumflex" unicode="&#x125;" horiz-adv-x="739" 
d="M145 948l232 82l238 -82v-118l-235 81l-235 -81v118zM55 808l229.997 0.000976562v-324c44.667 19.333 86.834 35.166 126.501 47.499s74.5 18.5 104.5 18.5c52.667 0 94.334 -13.667 125.001 -41s46 -65 46 -113v-396h-230v321c0 20 -3.66699 34.333 -11 43
s-19.666 13 -36.999 13c-14 0 -32.333 -2 -55 -6s-45.667 -9.33301 -69 -16v-355h-230v808z" />
    <glyph glyph-name="Hbar" unicode="&#x126;" horiz-adv-x="914" 
d="M8 637h64v103h235v-103h298v103h235v-103h67v-103h-67v-534h-235v292h-298v-292h-235v534h-64v103zM605 468v66h-298v-66h298z" />
    <glyph glyph-name="hbar" unicode="&#x127;" horiz-adv-x="740" 
d="M-29 735l84.9971 0.000976562v73h230v-73h159v-123h-159v-128c44.667 19.333 86.834 35.166 126.501 47.499s74.5 18.5 104.5 18.5c52.667 0 94.334 -13.667 125.001 -41s46 -65 46 -113v-396h-230v321c0 20 -3.66699 34.333 -11 43s-19.666 13 -36.999 13
c-14 0 -32.333 -2 -55 -6s-45.667 -9.33301 -69 -16v-355h-230v612h-85v123z" />
    <glyph glyph-name="Itilde" unicode="&#x128;" horiz-adv-x="365" 
d="M65 740h235v-740h-235v740zM-87 861c25.333 50 54.999 87.5 88.999 112.5s66.333 37.5 97 37.5c19.333 0 38.666 -1.83301 57.999 -5.5s38.5 -7.83398 57.5 -12.501s38.167 -8.83398 57.5 -12.501s38.666 -5.5 57.999 -5.5c16 0 31.833 2.16699 47.5 6.5
s34.834 14.166 57.501 29.499l23 -38c-26.667 -50 -56.834 -87.5 -90.501 -112.5s-65.167 -37.5 -94.5 -37.5c-19.333 0 -38.666 1.83301 -57.999 5.5s-38.666 7.83398 -57.999 12.501s-38.666 8.83398 -57.999 12.501s-38.666 5.5 -57.999 5.5
c-17.333 0 -33.833 -2.16699 -49.5 -6.5s-33.834 -14.166 -54.501 -29.499z" />
    <glyph glyph-name="itilde" unicode="&#x129;" horiz-adv-x="342" 
d="M-73 661c23.333 50 50.332 87.5 80.999 112.5s60 37.5 88 37.5c17.333 0 34.833 -1.83301 52.5 -5.5s35.167 -7.83398 52.5 -12.501s34.833 -8.83398 52.5 -12.501s35.5 -5.5 53.5 -5.5c12.667 0 26 2.16699 40 6.5s31.667 14.166 53 29.499l22 -38
c-25.333 -50 -53.333 -87.5 -84 -112.5s-59 -37.5 -85 -37.5c-18 0 -35.833 1.83301 -53.5 5.5s-35.167 7.83398 -52.5 12.501s-34.833 8.83398 -52.5 12.501s-35.167 5.5 -52.5 5.5c-14.667 0 -29.167 -2.16699 -43.5 -6.5s-31.166 -14.166 -50.499 -29.499zM55.999 540
h230v-540h-230v540z" />
    <glyph glyph-name="Imacron" unicode="&#x12a;" horiz-adv-x="365" 
d="M65 740h235v-740h-235v740zM-42 991h466v-148h-466v148z" />
    <glyph glyph-name="imacron" unicode="&#x12b;" horiz-adv-x="342" 
d="M56 540h230v-540h-230v540zM-62 791h466v-148h-466v148z" />
    <glyph glyph-name="Ibreve" unicode="&#x12c;" horiz-adv-x="365" 
d="M65 740h235v-740h-235v740zM182 811c-50 0 -91.332 5.16504 -123.999 15.498s-58.834 24.333 -78.501 42s-33.5 38.334 -41.5 62.001s-12 48.834 -12 75.501h149c0 -14 1.5 -26.667 4.5 -38s8.5 -20.833 16.5 -28.5s19 -13.5 33 -17.5s31.667 -6 53 -6
c22 0 39.833 2 53.5 6s24.5 9.83301 32.5 17.5s13.5 17.167 16.5 28.5s4.5 24 4.5 38h149c0 -28 -4 -53.833 -12 -77.5s-21.833 -44.167 -41.5 -61.5s-46 -31 -79 -41s-74.167 -15 -123.5 -15z" />
    <glyph glyph-name="ibreve" unicode="&#x12d;" horiz-adv-x="342" 
d="M173 611c-36 0 -65.834 5.16504 -89.501 15.498s-42.667 24.333 -57 42s-24.5 38.334 -30.5 62.001s-9 48.834 -9 75.501h110c0 -14 0.833008 -26.667 2.5 -38s5.16699 -20.833 10.5 -28.5s13 -13.5 23 -17.5s23.333 -6 40 -6s30 2 40 6s17.833 9.83301 23.5 17.5
s9.33398 17.167 11.001 28.5s2.5 24 2.5 38h108c0 -28 -3 -53.833 -9 -77.5s-16 -44.167 -30 -61.5s-32.833 -31 -56.5 -41s-53.5 -15 -89.5 -15zM55.999 539.998h230v-540h-230v540z" />
    <glyph glyph-name="Iogonek" unicode="&#x12e;" horiz-adv-x="365" 
d="M65 740h235.002v-745c-24 -9.33301 -44.167 -17.5 -60.5 -24.5s-29.333 -13.667 -39 -20s-16.5 -12.333 -20.5 -18s-6 -11.5 -6 -17.5c0 -13.333 8.66699 -20 26 -20c4 0 9.83301 0.5 17.5 1.5l25.5 3.5c9.33301 1.33301 19.166 3.16602 29.499 5.49902l29.5 6.5v-120
c-29.333 -8 -62 -12 -98 -12c-54.667 0 -97.5 8.5 -128.5 25.5s-46.5 40.5 -46.5 70.5c0 10.667 2.16699 22 6.5 34s10.166 23.5 17.499 34.5s16 21.333 26 31s21 17.834 33 24.501h-47v740z" />
    <glyph glyph-name="iogonek" unicode="&#x12f;" horiz-adv-x="340" 
d="M55 540h230.002v-545c-24 -9.33301 -44.167 -17.5 -60.5 -24.5s-29.333 -13.667 -39 -20s-16.5 -12.333 -20.5 -18s-6 -11.5 -6 -17.5c0 -13.333 8.66699 -20 26 -20c4 0 9.83301 0.5 17.5 1.5l25.5 3.5c9.33301 1.33301 19.166 3.16602 29.499 5.49902l29.5 6.5v-120
c-29.333 -8 -62 -12 -98 -12c-54.667 0 -97.5 8.5 -128.5 25.5s-46.5 40.5 -46.5 70.5c0 10.667 2.16699 22 6.5 34s10.166 23.5 17.499 34.5s16 21.333 26 31s21 17.834 33 24.501h-42v540zM170.002 594c-44 0 -75.167 9.16699 -93.5 27.5s-27.5 48.5 -27.5 90.5
c0 41.333 9.16699 71.333 27.5 90s49.5 28 93.5 28c45.333 0 77 -9.66699 95 -29s27 -49 27 -89s-9 -69.667 -27 -89s-49.667 -29 -95 -29z" />
    <glyph glyph-name="Idotaccent" unicode="&#x130;" horiz-adv-x="365" 
d="M65 740h235v-740h-235v740zM184 794c-44 0 -75.333 9.16699 -94 27.5s-28 48.5 -28 90.5c0 41.333 9.33301 71.333 28 90s50 28 94 28c45.333 0 76.833 -9.66699 94.5 -29s26.5 -49 26.5 -89s-8.83301 -69.667 -26.5 -89s-49.167 -29 -94.5 -29z" />
    <glyph glyph-name="dotlessi" unicode="&#x131;" horiz-adv-x="340" 
d="M55 540h230v-540h-230v540z" />
    <glyph glyph-name="IJ" unicode="&#x132;" horiz-adv-x="729" 
d="M65 740h235v-740h-235v740zM357 -156c14 34 25.833 65.167 35.5 93.5s17.5 56.333 23.5 84s10.167 56 12.5 85s3.5 60.833 3.5 95.5v538h235v-556c0 -35.333 -2.83301 -68.833 -8.5 -100.5s-14.667 -63.5 -27 -95.5s-28.833 -64.833 -49.5 -98.5s-46 -70.167 -76 -109.5z
" />
    <glyph glyph-name="ij" unicode="&#x133;" horiz-adv-x="677" 
d="M170 594c-44 0 -75.167 9.16699 -93.5 27.5s-27.5 48.5 -27.5 90.5c0 41.333 9.16699 71.333 27.5 90s49.5 28 93.5 28c45.333 0 77 -9.66699 95 -29s27 -49 27 -89s-9 -69.667 -27 -89s-49.667 -29 -95 -29zM55 540h230v-540h-230v540zM508 594
c-44 0 -75.167 9.16699 -93.5 27.5s-27.5 48.5 -27.5 90.5c0 41.333 9.16699 71.333 27.5 90s49.5 28 93.5 28c45.333 0 77 -9.66699 95 -29s27 -49 27 -89s-9 -69.667 -27 -89s-49.667 -29 -95 -29zM362 -199c6.66699 30.667 12.335 58.999 17.002 84.999
s8.5 53.333 11.5 82s5 60.5 6 95.5s1.5 77.167 1.5 126.5v55.5c0 19.667 -0.333008 42.834 -1 69.501s-1.33398 58.167 -2.00098 94.5s-1.33398 79.833 -2.00098 130.5h230v-472c-7.33301 -56 -18.5 -107 -33.5 -153s-33.833 -91 -56.5 -135z" />
    <glyph glyph-name="Jcircumflex" unicode="&#x134;" horiz-adv-x="364" 
d="M-8 -156c14 34 25.833 65.167 35.5 93.5s17.5 56.333 23.5 84s10.167 56 12.5 85s3.5 60.833 3.5 95.5v538h235v-556c0 -35.333 -2.83301 -68.833 -8.5 -100.5s-14.667 -63.5 -27 -95.5s-28.833 -64.833 -49.5 -98.5s-46 -70.167 -76 -109.5zM-48 945l232 82l238 -82
v-148l-235 81l-235 -81v148z" />
    <glyph glyph-name="jcircumflex" unicode="&#x135;" horiz-adv-x="338" 
d="M-51 745l211 82l218 -82v-148l-214 81l-215 -81v148zM22 -199c6.66699 30.667 12.335 58.999 17.002 84.999s8.5 53.333 11.5 82s5 60.5 6 95.5s1.5 77.167 1.5 126.5v55.5c0 19.667 -0.333008 42.834 -1 69.501s-1.33398 58.167 -2.00098 94.5
s-1.33398 79.833 -2.00098 130.5h230v-472c-7.33301 -56 -18.5 -107 -33.5 -153s-33.833 -91 -56.5 -135z" />
    <glyph glyph-name="Kcommaaccent" unicode="&#x136;" horiz-adv-x="810" 
d="M251 -70h236l-104 -150h-171zM65 740h235v-282h87l158 282h261l-202 -319l-55 -26v-10l58 -28l216 -357h-261l-154 282h-108v-282h-235v740z" />
    <glyph glyph-name="kcommaaccent" unicode="&#x137;" horiz-adv-x="692" 
d="M230 -70h236l-104 -150h-171zM55 808h230v-462h41l111 194h252l-173 -253l-29 -6v-4l29 -6l191 -271h-251l-132 211h-39v-211h-230v808z" />
    <glyph glyph-name="kgreenlandic" unicode="&#x138;" horiz-adv-x="694" 
d="M56 540h230v-194h41l111 194h252l-173 -253l-29 -6v-4l29 -6l191 -271h-251l-132 211h-39v-211h-230v540z" />
    <glyph glyph-name="Lacute" unicode="&#x139;" horiz-adv-x="643" 
d="M104 817l62 191h235l-132 -201zM65 740h235v-565h331v-175h-566v740z" />
    <glyph glyph-name="lacute" unicode="&#x13a;" horiz-adv-x="340" 
d="M79 839l61 191h235l-132 -201zM55 808h230v-808h-230v808z" />
    <glyph glyph-name="Lcommaaccent" unicode="&#x13b;" horiz-adv-x="643" 
d="M196 -70h236l-104 -150h-171zM65 740h235v-565h331v-175h-566v740z" />
    <glyph glyph-name="lcommaaccent" unicode="&#x13c;" horiz-adv-x="340" 
d="M57 -70h236l-104 -150h-171zM55 808h230v-808h-230v808z" />
    <glyph glyph-name="Lcaron" unicode="&#x13d;" horiz-adv-x="644" 
d="M426 808h178l-53 -228h-125v228zM65 740h235v-565h331v-175h-566v740z" />
    <glyph glyph-name="lcaron" unicode="&#x13e;" horiz-adv-x="341" 
d="M331 808h178l-53 -228h-125v228zM55 808h230v-808h-230v808z" />
    <glyph glyph-name="Ldot" unicode="&#x13f;" horiz-adv-x="656" 
d="M65 740h235v-565h331v-175h-566v740zM532 286c-44 0 -75.333 9.16699 -94 27.5s-28 48.5 -28 90.5s9.33301 72.167 28 90.5s50 27.5 94 27.5c45.333 0 76.833 -9.66699 94.5 -29s26.5 -49 26.5 -89s-8.83301 -69.667 -26.5 -89s-49.167 -29 -94.5 -29z" />
    <glyph glyph-name="ldot" unicode="&#x140;" horiz-adv-x="581" 
d="M55 808h230v-808h-230v808zM461 252c-44 0 -75.333 9.16699 -94 27.5s-28 48.5 -28 90.5s9.33301 72.167 28 90.5s50 27.5 94 27.5c45.333 0 76.833 -9.66699 94.5 -29s26.5 -49 26.5 -89s-8.83301 -69.667 -26.5 -89s-49.167 -29 -94.5 -29z" />
    <glyph glyph-name="Lslash" unicode="&#x141;" horiz-adv-x="662" 
d="M11 390l72 30v320h235v-220l131 56v-164l-131 -56v-181h331v-175h-566v256l-72 -30v164z" />
    <glyph glyph-name="lslash" unicode="&#x142;" horiz-adv-x="474" 
d="M25 400l97 41v367h230v-269l109 47v-164l-109 -47v-375h-230v277l-97 -41v164z" />
    <glyph glyph-name="Nacute" unicode="&#x143;" horiz-adv-x="882" 
d="M322 817l62 191h235l-132 -201zM65 740h182l289 -328l67 -84h10v412h204v-740h-182l-275 312l-81 100h-10v-412h-204v740z" />
    <glyph glyph-name="nacute" unicode="&#x144;" horiz-adv-x="740" 
d="M291 617l61 191h235l-132 -201zM56 540h192.998l11 -63h10c49.333 23.333 95 41.333 137 54s78.667 19 110 19c52.667 0 94.334 -13.667 125.001 -41s46 -65 46 -113v-396h-230v321c0 20 -3.66699 34.333 -11 43s-19.666 13 -36.999 13
c-15.333 0 -34.5 -2.16699 -57.5 -6.5s-45.167 -9.5 -66.5 -15.5v-355h-230v540z" />
    <glyph glyph-name="Ncommaaccent" unicode="&#x145;" horiz-adv-x="882" 
d="M329 -70h236l-104 -150h-171zM65 740h182l289 -328l67 -84h10v412h204v-740h-182l-275 312l-81 100h-10v-412h-204v740z" />
    <glyph glyph-name="ncommaaccent" unicode="&#x146;" horiz-adv-x="740" 
d="M258 -70h236l-104 -150h-171zM56 540h192.998l11 -63h10c49.333 23.333 95 41.333 137 54s78.667 19 110 19c52.667 0 94.334 -13.667 125.001 -41s46 -65 46 -113v-396h-230v321c0 20 -3.66699 34.333 -11 43s-19.666 13 -36.999 13
c-15.333 0 -34.5 -2.16699 -57.5 -6.5s-45.167 -9.5 -66.5 -15.5v-355h-230v540z" />
    <glyph glyph-name="Ncaron" unicode="&#x147;" horiz-adv-x="882" 
d="M209 1027l235 -82l235 82v-149l-238 -81l-232 81v149zM65 740h182l289 -328l67 -84h10v412h204v-740h-182l-275 312l-81 100h-10v-412h-204v740z" />
    <glyph glyph-name="ncaron" unicode="&#x148;" horiz-adv-x="740" 
d="M119 827l235 -82l235 82v-149l-238 -81l-232 81v149zM56 540h192.998l11 -63h10c49.333 23.333 95 41.333 137 54s78.667 19 110 19c52.667 0 94.334 -13.667 125.001 -41s46 -65 46 -113v-396h-230v321c0 20 -3.66699 34.333 -11 43s-19.666 13 -36.999 13
c-15.333 0 -34.5 -2.16699 -57.5 -6.5s-45.167 -9.5 -66.5 -15.5v-355h-230v540z" />
    <glyph glyph-name="napostrophe" unicode="&#x149;" horiz-adv-x="867" 
d="M192 808v-4l-53 -224h-125v228h178zM183 540h192.998l11 -63h10c49.333 23.333 95 41.333 137 54s78.667 19 110 19c52.667 0 94.334 -13.667 125.001 -41s46 -65 46 -113v-396h-230v321c0 20 -3.66699 34.333 -11 43s-19.666 13 -36.999 13
c-15.333 0 -34.5 -2.16699 -57.5 -6.5s-45.167 -9.5 -66.5 -15.5v-355h-230v540z" />
    <glyph glyph-name="Eng" unicode="&#x14a;" horiz-adv-x="879" 
d="M519 -169c12 24.667 22.333 46.833 31 66.5s16 38 22 55s10.833 33.333 14.5 49s6.5 32.167 8.5 49.5l-232 261l-81 101h-10v-413h-207v740h177l291 -328l67 -85h10v413h207v-603c0 -22 -3.83301 -47.667 -11.5 -77s-18 -60 -31 -92s-28.333 -64.333 -46 -97
s-36.5 -63 -56.5 -91z" />
    <glyph glyph-name="eng" unicode="&#x14b;" horiz-adv-x="739" 
d="M421 -199c6.66699 30.667 12.5 58.998 17.5 84.998s8.83301 53.333 11.5 82s4.66699 60.5 6 95.5s2 77.167 2 126.5v71c0 18.667 -0.333008 33.334 -1 44.001s-2.5 18.834 -5.5 24.501s-7.66699 9.16699 -14 10.5s-14.833 2 -25.5 2
c-21.333 0 -42.833 -0.666992 -64.5 -2s-42.167 -3 -61.5 -5v-335h-230v540h193l11 -58h4c47.333 20.667 92.833 37.167 136.5 49.5s82.5 18.5 116.5 18.5c52 0 93.5 -13.667 124.5 -41s46.5 -65 46.5 -113v-338c-7.33301 -54 -18.5 -103.167 -33.5 -147.5
s-33.833 -87.833 -56.5 -130.5z" />
    <glyph glyph-name="Omacron" unicode="&#x14c;" horiz-adv-x="866" 
d="M199 991h466v-148h-466v148zM433 -10c-130.667 0 -230.167 32.166 -298.5 96.499s-102.5 158.5 -102.5 282.5c0 124.667 34 219.334 102 284.001s167.667 97 299 97c130 0 229.333 -32.5 298 -97.5s103 -159.5 103 -283.5c0 -123.333 -34.333 -217.333 -103 -282
s-168 -97 -298 -97zM433 173.999c32 0 58.499 2.50098 79.499 7.50098s37.5 14.667 49.5 29s20.333 34.166 25 59.499s7 58.333 7 99c0 39.333 -2.66699 71.666 -8 96.999s-14.166 45.5 -26.499 60.5s-28.833 25.333 -49.5 31s-46.334 8.5 -77.001 8.5
c-31.333 0 -57.166 -2.83301 -77.499 -8.5s-36.833 -15.667 -49.5 -30s-21.5 -34.333 -26.5 -60s-7.5 -58.5 -7.5 -98.5c0 -40.667 2.5 -73.667 7.5 -99s13.5 -45.166 25.5 -59.499s28.333 -24 49 -29s47 -7.5 79 -7.5z" />
    <glyph glyph-name="omacron" unicode="&#x14d;" horiz-adv-x="727" 
d="M128 791h466v-148h-466v148zM364 -11c-109.333 0 -192.5 24 -249.5 72s-85.5 117.667 -85.5 209s28.5 160.833 85.5 208.5s140.167 71.5 249.5 71.5s192.333 -23.833 249 -71.5s85 -117.167 85 -208.5s-28.333 -161 -85 -209s-139.667 -72 -249 -72zM364 161
c20 0 36.667 1.5 50 4.5s24 8.66699 32 17s13.667 19.5 17 33.5s5 32 5 54s-1.66699 39.833 -5 53.5s-9 24.5 -17 32.5s-18.667 13.5 -32 16.5s-30 4.5 -50 4.5s-36.667 -1.5 -50 -4.5s-24 -8.5 -32 -16.5s-13.833 -19 -17.5 -33s-5.5 -31.667 -5.5 -53
c0 -22 1.83301 -40 5.5 -54s9.5 -25 17.5 -33s18.667 -13.667 32 -17s30 -5 50 -5z" />
    <glyph glyph-name="Obreve" unicode="&#x14e;" horiz-adv-x="866" 
d="M430 811c-50 0 -91.332 5.16504 -123.999 15.498s-58.834 24.333 -78.501 42s-33.5 38.334 -41.5 62.001s-12 48.834 -12 75.501h149c0 -14 1.5 -26.667 4.5 -38s8.5 -20.833 16.5 -28.5s19 -13.5 33 -17.5s31.667 -6 53 -6c22 0 39.833 2 53.5 6s24.5 9.83301 32.5 17.5
s13.5 17.167 16.5 28.5s4.5 24 4.5 38h149c0 -28 -4 -53.833 -12 -77.5s-21.833 -44.167 -41.5 -61.5s-46 -31 -79 -41s-74.167 -15 -123.5 -15zM433.001 -10.002c-130.667 0 -230.167 32.166 -298.5 96.499s-102.5 158.5 -102.5 282.5c0 124.667 34 219.334 102 284.001
s167.667 97 299 97c130 0 229.333 -32.5 298 -97.5s103 -159.5 103 -283.5c0 -123.333 -34.333 -217.333 -103 -282s-168 -97 -298 -97zM433.001 173.997c32 0 58.499 2.50098 79.499 7.50098s37.5 14.667 49.5 29s20.333 34.166 25 59.499s7 58.333 7 99
c0 39.333 -2.66699 71.666 -8 96.999s-14.166 45.5 -26.499 60.5s-28.833 25.333 -49.5 31s-46.334 8.5 -77.001 8.5c-31.333 0 -57.166 -2.83301 -77.499 -8.5s-36.833 -15.667 -49.5 -30s-21.5 -34.333 -26.5 -60s-7.5 -58.5 -7.5 -98.5c0 -40.667 2.5 -73.667 7.5 -99
s13.5 -45.166 25.5 -59.499s28.333 -24 49 -29s47 -7.5 79 -7.5z" />
    <glyph glyph-name="obreve" unicode="&#x14f;" horiz-adv-x="727" 
d="M364 -11c-109.333 0 -192.5 24 -249.5 72s-85.5 117.667 -85.5 209s28.5 160.833 85.5 208.5s140.167 71.5 249.5 71.5s192.333 -23.833 249 -71.5s85 -117.167 85 -208.5s-28.333 -161 -85 -209s-139.667 -72 -249 -72zM364 161c20 0 36.667 1.5 50 4.5
s24 8.66699 32 17s13.667 19.5 17 33.5s5 32 5 54s-1.66699 39.833 -5 53.5s-9 24.5 -17 32.5s-18.667 13.5 -32 16.5s-30 4.5 -50 4.5s-36.667 -1.5 -50 -4.5s-24 -8.5 -32 -16.5s-13.833 -19 -17.5 -33s-5.5 -31.667 -5.5 -53c0 -22 1.83301 -40 5.5 -54s9.5 -25 17.5 -33
s18.667 -13.667 32 -17s30 -5 50 -5zM363 611c-50 0 -91.332 5.16504 -123.999 15.498s-58.834 24.333 -78.501 42s-33.5 38.334 -41.5 62.001s-12 48.834 -12 75.501h149c0 -14 1.5 -26.667 4.5 -38s8.5 -20.833 16.5 -28.5s19 -13.5 33 -17.5s31.667 -6 53 -6
c22 0 39.833 2 53.5 6s24.5 9.83301 32.5 17.5s13.5 17.167 16.5 28.5s4.5 24 4.5 38h149c0 -28 -4 -53.833 -12 -77.5s-21.833 -44.167 -41.5 -61.5s-46 -31 -79 -41s-74.167 -15 -123.5 -15z" />
    <glyph glyph-name="Ohungarumlaut" unicode="&#x150;" horiz-adv-x="866" 
d="M433 -10c-130.667 0 -230.167 32.166 -298.5 96.499s-102.5 158.5 -102.5 282.5c0 124.667 34 219.334 102 284.001s167.667 97 299 97c130 0 229.333 -32.5 298 -97.5s103 -159.5 103 -283.5c0 -123.333 -34.333 -217.333 -103 -282s-168 -97 -298 -97zM433 173.999
c32 0 58.499 2.50098 79.499 7.50098s37.5 14.667 49.5 29s20.333 34.166 25 59.499s7 58.333 7 99c0 39.333 -2.66699 71.666 -8 96.999s-14.166 45.5 -26.499 60.5s-28.833 25.333 -49.5 31s-46.334 8.5 -77.001 8.5c-31.333 0 -57.166 -2.83301 -77.499 -8.5
s-36.833 -15.667 -49.5 -30s-21.5 -34.333 -26.5 -60s-7.5 -58.5 -7.5 -98.5c0 -40.667 2.5 -73.667 7.5 -99s13.5 -45.166 25.5 -59.499s28.333 -24 49 -29s47 -7.5 79 -7.5zM199.999 817l61 191h231l-133 -201zM451.999 817l61 191h231l-132 -201z" />
    <glyph glyph-name="ohungarumlaut" unicode="&#x151;" horiz-adv-x="727" 
d="M149 617l61 191h231l-133 -201zM401 617l61 191h231l-132 -201zM364 -11c-109.333 0 -192.5 24 -249.5 72s-85.5 117.667 -85.5 209s28.5 160.833 85.5 208.5s140.167 71.5 249.5 71.5s192.333 -23.833 249 -71.5s85 -117.167 85 -208.5s-28.333 -161 -85 -209
s-139.667 -72 -249 -72zM364 161c20 0 36.667 1.5 50 4.5s24 8.66699 32 17s13.667 19.5 17 33.5s5 32 5 54s-1.66699 39.833 -5 53.5s-9 24.5 -17 32.5s-18.667 13.5 -32 16.5s-30 4.5 -50 4.5s-36.667 -1.5 -50 -4.5s-24 -8.5 -32 -16.5s-13.833 -19 -17.5 -33
s-5.5 -31.667 -5.5 -53c0 -22 1.83301 -40 5.5 -54s9.5 -25 17.5 -33s18.667 -13.667 32 -17s30 -5 50 -5z" />
    <glyph glyph-name="OE" unicode="&#x152;" horiz-adv-x="1236" 
d="M433 -10c-130.667 0 -230.168 32.166 -298.501 96.499s-102.5 158.5 -102.5 282.5c0 124.667 34 219.334 102 284.001s167.667 97 299 97c28.667 0 54 -0.833008 76 -2.5s43.667 -4.16699 65 -7.5h616v-176h-381v-106h341v-176h-341v-106h391v-176h-626
c-23.333 -3.33301 -46.166 -5.83301 -68.499 -7.5s-46.5 -2.5 -72.5 -2.5zM432.999 173.999c30 0 56.667 0.332031 80 0.999023s43.666 2.33398 60.999 5.00098v380c-17.333 1.33301 -37.333 2.66602 -60 3.99902s-49.667 2 -81 2s-57.166 -2.83301 -77.499 -8.5
s-36.833 -15.667 -49.5 -30s-21.5 -34.333 -26.5 -60s-7.5 -58.5 -7.5 -98.5c0 -40.667 2.5 -73.667 7.5 -99s13.5 -45.166 25.5 -59.499s28.333 -24 49 -29s47 -7.5 79 -7.5z" />
    <glyph glyph-name="oe" unicode="&#x153;" horiz-adv-x="1094" 
d="M782 -9c-88 0 -154.668 16.001 -200.001 48.001h-10c-23.333 -16 -52.666 -28.333 -87.999 -37s-75.333 -13 -120 -13c-109.333 0 -192.5 24 -249.5 72s-85.5 117.667 -85.5 209s28.5 160.833 85.5 208.5s140.167 71.5 249.5 71.5c45.333 0 85.833 -4.5 121.5 -13.5
s65.167 -21.833 88.5 -38.5l10 1c22.667 16 51 28.333 85 37s73.333 13 118 13c90.667 0 159.167 -19.667 205.5 -59s69.5 -97.333 69.5 -174c0 -34.667 -4.33301 -67 -13 -97h-353c2 -12.667 5.16699 -22.834 9.5 -30.501s10.5 -13.5 18.5 -17.5s18.5 -6.66699 31.5 -8
s28.833 -2 47.5 -2c18 0 37.833 0.5 59.5 1.5s43 2.5 64 4.5s40.833 4.16699 59.5 6.5s34 4.83301 46 7.5l6 -159c-38 -10 -79 -17.667 -123 -23s-88.333 -8 -133 -8zM363.999 161.001c20 0 36.667 1.5 50 4.5s24 8.66699 32 17s13.667 19.5 17 33.5s5 32 5 54
s-1.66699 39.833 -5 53.5s-9 24.5 -17 32.5s-18.667 13.5 -32 16.5s-30 4.5 -50 4.5s-36.667 -1.5 -50 -4.5s-24 -8.5 -32 -16.5s-13.833 -19 -17.5 -33s-5.5 -31.667 -5.5 -53c0 -22 1.83301 -40 5.5 -54s9.5 -25 17.5 -33s18.667 -13.667 32 -17s30 -5 50 -5z
M860.999 322.001c-1.33301 26.667 -8.33105 45.667 -20.998 57s-34.334 17 -65.001 17c-28 0 -47.833 -5.16699 -59.5 -15.5s-18.834 -29.833 -21.501 -58.5h167z" />
    <glyph glyph-name="Racute" unicode="&#x154;" horiz-adv-x="793" 
d="M405 223c-12 -0.666992 -24.334 -1.16797 -37.001 -1.50098s-25.667 -0.5 -39 -0.5h-29v-221h-235v735c94.667 10 181.334 15 260.001 15c76 0 141.167 -5 195.5 -15s99 -25.667 134 -47s60.833 -48.666 77.5 -81.999s25 -73 25 -119c0 -102.667 -48.667 -176 -146 -220
l188 -267h-269zM370.999 397.999c28.667 0 52.502 1.33496 71.502 4.00195s34 7.5 45 14.5s18.833 16 23.5 27s7 25.167 7 42.5c0 16.667 -2 30.667 -6 42s-11 20.166 -21 26.499s-23.833 10.833 -41.5 13.5s-39.834 4 -66.501 4c-11.333 0 -25.333 -0.333008 -42 -1
s-30.334 -1.66699 -41.001 -3v-164c8 -2.66699 16.833 -4.33398 26.5 -5.00098s24.5 -1 44.5 -1zM289.001 817.001l62 191h235l-132 -201z" />
    <glyph glyph-name="racute" unicode="&#x155;" horiz-adv-x="524" 
d="M186 617l61 191h235l-132 -201zM56 540h193.001l11 -83h4c25.333 23.333 52.833 43.333 82.5 60s58.167 27.667 85.5 33h81v-179h-77c-32 -3.33301 -61.333 -8.83301 -88 -16.5s-47.334 -17.167 -62.001 -28.5v-326h-230v540z" />
    <glyph glyph-name="Rcommaaccent" unicode="&#x156;" horiz-adv-x="793" 
d="M281 -70h236l-104 -150h-171zM405 223c-12 -0.666992 -24.334 -1.16797 -37.001 -1.50098s-25.667 -0.5 -39 -0.5h-29v-221h-235v735c94.667 10 181.334 15 260.001 15c76 0 141.167 -5 195.5 -15s99 -25.667 134 -47s60.833 -48.666 77.5 -81.999s25 -73 25 -119
c0 -102.667 -48.667 -176 -146 -220l188 -267h-269zM370.999 397.999c28.667 0 52.502 1.33496 71.502 4.00195s34 7.5 45 14.5s18.833 16 23.5 27s7 25.167 7 42.5c0 16.667 -2 30.667 -6 42s-11 20.166 -21 26.499s-23.833 10.833 -41.5 13.5s-39.834 4 -66.501 4
c-11.333 0 -25.333 -0.333008 -42 -1s-30.334 -1.66699 -41.001 -3v-164c8 -2.66699 16.833 -4.33398 26.5 -5.00098s24.5 -1 44.5 -1z" />
    <glyph glyph-name="rcommaaccent" unicode="&#x157;" horiz-adv-x="524" 
d="M51 -70h236l-104 -150h-171zM56 540h193.001l11 -83h4c25.333 23.333 52.833 43.333 82.5 60s58.167 27.667 85.5 33h81v-179h-77c-32 -3.33301 -61.333 -8.83301 -88 -16.5s-47.334 -17.167 -62.001 -28.5v-326h-230v540z" />
    <glyph glyph-name="Rcaron" unicode="&#x158;" horiz-adv-x="793" 
d="M148 1027l235 -82l235 82v-149l-238 -81l-232 81v149zM405 223c-12 -0.666992 -24.334 -1.16797 -37.001 -1.50098s-25.667 -0.5 -39 -0.5h-29v-221h-235v735c94.667 10 181.334 15 260.001 15c76 0 141.167 -5 195.5 -15s99 -25.667 134 -47
s60.833 -48.666 77.5 -81.999s25 -73 25 -119c0 -102.667 -48.667 -176 -146 -220l188 -267h-269zM370.999 397.999c28.667 0 52.502 1.33496 71.502 4.00195s34 7.5 45 14.5s18.833 16 23.5 27s7 25.167 7 42.5c0 16.667 -2 30.667 -6 42s-11 20.166 -21 26.499
s-23.833 10.833 -41.5 13.5s-39.834 4 -66.501 4c-11.333 0 -25.333 -0.333008 -42 -1s-30.334 -1.66699 -41.001 -3v-164c8 -2.66699 16.833 -4.33398 26.5 -5.00098s24.5 -1 44.5 -1z" />
    <glyph glyph-name="rcaron" unicode="&#x159;" horiz-adv-x="524" 
d="M44 827l235 -82l235 82v-149l-238 -81l-232 81v149zM56 540h193.001l11 -83h4c25.333 23.333 52.833 43.333 82.5 60s58.167 27.667 85.5 33h81v-179h-77c-32 -3.33301 -61.333 -8.83301 -88 -16.5s-47.334 -17.167 -62.001 -28.5v-326h-230v540z" />
    <glyph glyph-name="Sacute" unicode="&#x15a;" horiz-adv-x="719" 
d="M351 -12c-22 0 -46.334 0.666016 -73.001 1.99902s-54 3.33301 -82 6s-55.667 5.83398 -83 9.50098s-52.666 7.5 -75.999 11.5v186c64 -12.667 119.5 -21.667 166.5 -27s90.833 -8 131.5 -8c42 0 71.167 2.83301 87.5 8.5s24.5 16.167 24.5 31.5
c0 17.333 -8.5 30.5 -25.5 39.5s-46.167 16.167 -87.5 21.5c-100.667 11.333 -174.167 36.833 -220.5 76.5s-69.5 96.834 -69.5 171.501c0 36.667 7.66699 69.5 23 98.5s37.5 53.5 66.5 73.5s64.333 35.333 106 46s88.834 16 141.501 16c18 0 35.833 -0.5 53.5 -1.5
s37 -2.66699 58 -5s44.333 -5.5 70 -9.5s55.5 -9 89.5 -15v-185c-37.333 11.333 -78 20.166 -122 26.499s-84.333 9.5 -121 9.5c-78 0 -117 -15.667 -117 -47c0 -19.333 9.16699 -34.166 27.5 -44.499s50.166 -18.833 95.499 -25.5c98.667 -15.333 170 -40.5 214 -75.5
s66 -84.167 66 -147.5c0 -82.667 -28.167 -143.834 -84.5 -183.501s-142.833 -59.5 -259.5 -59.5zM263.999 816.999l62 191h235l-132 -201z" />
    <glyph glyph-name="sacute" unicode="&#x15b;" horiz-adv-x="615" 
d="M202 617l61 191h235l-132 -201zM298 -12c-18 0 -37.8311 0.50293 -59.498 1.50293s-44 2.5 -67 4.5s-46.167 4.33301 -69.5 7s-45 5.66699 -65 9v150c51.333 -8.66699 96.5 -15 135.5 -19s76.5 -6 112.5 -6c30 0 50.833 1.5 62.5 4.5s17.5 8.5 17.5 16.5
c0 8.66699 -6.16699 15.167 -18.5 19.5s-35.833 8.16602 -70.5 11.499c-24.667 2 -50.667 4.83301 -78 8.5s-52.5 11.334 -75.5 23.001s-42.167 29 -57.5 52s-23 54.833 -23 95.5c0 58.667 24.333 104.334 73 137.001s116.334 49 203.001 49
c17.333 0 34.666 -0.333008 51.999 -1s35.666 -1.83398 54.999 -3.50098s40.166 -3.83398 62.499 -6.50098s47.5 -6 75.5 -10l-6 -165c-42 9.33301 -83 16.666 -123 21.999s-72.667 8 -98 8c-26.667 0 -45.667 -1.83301 -57 -5.5s-17 -9.83398 -17 -18.501
c0 -4.66699 1.83301 -8.5 5.5 -11.5s10 -5.83301 19 -8.5s21.167 -5 36.5 -7s34.333 -4 57 -6c70.667 -6.66699 122.5 -23.5 155.5 -50.5s49.5 -65.5 49.5 -115.5c0 -123.333 -95.667 -185 -287 -185z" />
    <glyph glyph-name="Scircumflex" unicode="&#x15c;" horiz-adv-x="719" 
d="M351 -12c-22 0 -46.334 0.666016 -73.001 1.99902s-54 3.33301 -82 6s-55.667 5.83398 -83 9.50098s-52.666 7.5 -75.999 11.5v186c64 -12.667 119.5 -21.667 166.5 -27s90.833 -8 131.5 -8c42 0 71.167 2.83301 87.5 8.5s24.5 16.167 24.5 31.5
c0 17.333 -8.5 30.5 -25.5 39.5s-46.167 16.167 -87.5 21.5c-100.667 11.333 -174.167 36.833 -220.5 76.5s-69.5 96.834 -69.5 171.501c0 36.667 7.66699 69.5 23 98.5s37.5 53.5 66.5 73.5s64.333 35.333 106 46s88.834 16 141.501 16c18 0 35.833 -0.5 53.5 -1.5
s37 -2.66699 58 -5s44.333 -5.5 70 -9.5s55.5 -9 89.5 -15v-185c-37.333 11.333 -78 20.166 -122 26.499s-84.333 9.5 -121 9.5c-78 0 -117 -15.667 -117 -47c0 -19.333 9.16699 -34.166 27.5 -44.499s50.166 -18.833 95.499 -25.5c98.667 -15.333 170 -40.5 214 -75.5
s66 -84.167 66 -147.5c0 -82.667 -28.167 -143.834 -84.5 -183.501s-142.833 -59.5 -259.5 -59.5zM134.999 944.999l232 82l238 -82v-148l-235 81l-235 -81v148z" />
    <glyph glyph-name="scircumflex" unicode="&#x15d;" horiz-adv-x="615" 
d="M73 745l232 82l238 -82v-148l-235 81l-235 -81v148zM298 -12c-18 0 -37.8311 0.50293 -59.498 1.50293s-44 2.5 -67 4.5s-46.167 4.33301 -69.5 7s-45 5.66699 -65 9v150c51.333 -8.66699 96.5 -15 135.5 -19s76.5 -6 112.5 -6c30 0 50.833 1.5 62.5 4.5
s17.5 8.5 17.5 16.5c0 8.66699 -6.16699 15.167 -18.5 19.5s-35.833 8.16602 -70.5 11.499c-24.667 2 -50.667 4.83301 -78 8.5s-52.5 11.334 -75.5 23.001s-42.167 29 -57.5 52s-23 54.833 -23 95.5c0 58.667 24.333 104.334 73 137.001s116.334 49 203.001 49
c17.333 0 34.666 -0.333008 51.999 -1s35.666 -1.83398 54.999 -3.50098s40.166 -3.83398 62.499 -6.50098s47.5 -6 75.5 -10l-6 -165c-42 9.33301 -83 16.666 -123 21.999s-72.667 8 -98 8c-26.667 0 -45.667 -1.83301 -57 -5.5s-17 -9.83398 -17 -18.501
c0 -4.66699 1.83301 -8.5 5.5 -11.5s10 -5.83301 19 -8.5s21.167 -5 36.5 -7s34.333 -4 57 -6c70.667 -6.66699 122.5 -23.5 155.5 -50.5s49.5 -65.5 49.5 -115.5c0 -123.333 -95.667 -185 -287 -185z" />
    <glyph glyph-name="uni015E" unicode="&#x15e;" horiz-adv-x="719" 
d="M358 -220c-17.333 0 -36.666 1.33203 -57.999 3.99902l-64 8v128c14.667 -3.33301 30.667 -6.33301 48 -9s32.666 -4 45.999 -4c10.667 0 17.5 1.5 20.5 4.5s4.5 6.16699 4.5 9.5c0 6 -2.66699 14.833 -8 26.5s-14 25.5 -26 41.5
c-21.333 0.666992 -44.166 1.66699 -68.499 3s-49 3.33301 -74 6s-49.667 5.5 -74 8.5s-46.833 6.5 -67.5 10.5v186c64 -12.667 119.5 -21.667 166.5 -27s90.833 -8 131.5 -8c42 0 71.167 2.83301 87.5 8.5s24.5 16.167 24.5 31.5c0 17.333 -8.5 30.5 -25.5 39.5
s-46.167 16.167 -87.5 21.5c-100.667 11.333 -174.167 36.833 -220.5 76.5s-69.5 96.834 -69.5 171.501c0 36.667 7.66699 69.5 23 98.5s37.5 53.5 66.5 73.5s64.333 35.333 106 46s88.834 16 141.501 16c18 0 35.833 -0.5 53.5 -1.5s37 -2.66699 58 -5s44.333 -5.5 70 -9.5
s55.5 -9 89.5 -15v-185c-37.333 11.333 -78 20.166 -122 26.499s-84.333 9.5 -121 9.5c-78 0 -117 -15.667 -117 -47c0 -19.333 9.16699 -34.166 27.5 -44.499s50.166 -18.833 95.499 -25.5c98.667 -15.333 170 -40.5 214 -75.5s66 -84.167 66 -147.5
c0 -137.333 -81 -216.333 -243 -237c18 -21.333 30.333 -39.5 37 -54.5s10 -30.5 10 -46.5c0 -36 -12.833 -63.833 -38.5 -83.5s-59.834 -29.5 -102.501 -29.5z" />
    <glyph glyph-name="uni015F" unicode="&#x15f;" horiz-adv-x="615" 
d="M308 -220c-17.333 0 -36.665 1.33594 -57.998 4.00293l-64 8v128c14.667 -3.33301 30.667 -6.33301 48 -9s32.666 -4 45.999 -4c10.667 0 17.5 1.5 20.5 4.5s4.5 6.16699 4.5 9.5c0 6 -2.66699 15 -8 27s-13.666 25.667 -24.999 41
c-35.333 1.33301 -74.333 3.83301 -117 7.5s-82 8.16699 -118 13.5v150c51.333 -8.66699 96.5 -15 135.5 -19s76.5 -6 112.5 -6c30 0 50.833 1.5 62.5 4.5s17.5 8.5 17.5 16.5c0 8.66699 -6.16699 15.167 -18.5 19.5s-35.833 8.16602 -70.5 11.499
c-24.667 2 -50.667 4.83301 -78 8.5s-52.5 11.334 -75.5 23.001s-42.167 29 -57.5 52s-23 54.833 -23 95.5c0 58.667 24.333 104.334 73 137.001s116.334 49 203.001 49c17.333 0 34.666 -0.333008 51.999 -1s35.666 -1.83398 54.999 -3.50098
s40.166 -3.83398 62.499 -6.50098s47.5 -6 75.5 -10l-6 -165c-42 9.33301 -83 16.666 -123 21.999s-72.667 8 -98 8c-26.667 0 -45.667 -1.83301 -57 -5.5s-17 -9.83398 -17 -18.501c0 -4.66699 1.83301 -8.5 5.5 -11.5s10 -5.83301 19 -8.5s21.167 -5 36.5 -7
s34.333 -4 57 -6c70.667 -6.66699 122.5 -23.5 155.5 -50.5s49.5 -65.5 49.5 -115.5c0 -99.333 -61.333 -158.333 -184 -177c18.667 -21.333 31.334 -39.833 38.001 -55.5s10 -31.5 10 -47.5c0 -36 -12.833 -63.833 -38.5 -83.5s-59.834 -29.5 -102.501 -29.5z" />
    <glyph glyph-name="Scaron" unicode="&#x160;" horiz-adv-x="719" 
d="M351 -12c-22 0 -46.334 0.666016 -73.001 1.99902s-54 3.33301 -82 6s-55.667 5.83398 -83 9.50098s-52.666 7.5 -75.999 11.5v186c64 -12.667 119.5 -21.667 166.5 -27s90.833 -8 131.5 -8c42 0 71.167 2.83301 87.5 8.5s24.5 16.167 24.5 31.5
c0 17.333 -8.5 30.5 -25.5 39.5s-46.167 16.167 -87.5 21.5c-100.667 11.333 -174.167 36.833 -220.5 76.5s-69.5 96.834 -69.5 171.501c0 36.667 7.66699 69.5 23 98.5s37.5 53.5 66.5 73.5s64.333 35.333 106 46s88.834 16 141.501 16c18 0 35.833 -0.5 53.5 -1.5
s37 -2.66699 58 -5s44.333 -5.5 70 -9.5s55.5 -9 89.5 -15v-185c-37.333 11.333 -78 20.166 -122 26.499s-84.333 9.5 -121 9.5c-78 0 -117 -15.667 -117 -47c0 -19.333 9.16699 -34.166 27.5 -44.499s50.166 -18.833 95.499 -25.5c98.667 -15.333 170 -40.5 214 -75.5
s66 -84.167 66 -147.5c0 -82.667 -28.167 -143.834 -84.5 -183.501s-142.833 -59.5 -259.5 -59.5zM128.999 1027l235 -82l235 82v-149l-238 -81l-232 81v149z" />
    <glyph glyph-name="scaron" unicode="&#x161;" horiz-adv-x="615" 
d="M73 827l235 -82l235 82v-149l-238 -81l-232 81v149zM298 -12c-18 0 -37.8311 0.50293 -59.498 1.50293s-44 2.5 -67 4.5s-46.167 4.33301 -69.5 7s-45 5.66699 -65 9v150c51.333 -8.66699 96.5 -15 135.5 -19s76.5 -6 112.5 -6c30 0 50.833 1.5 62.5 4.5
s17.5 8.5 17.5 16.5c0 8.66699 -6.16699 15.167 -18.5 19.5s-35.833 8.16602 -70.5 11.499c-24.667 2 -50.667 4.83301 -78 8.5s-52.5 11.334 -75.5 23.001s-42.167 29 -57.5 52s-23 54.833 -23 95.5c0 58.667 24.333 104.334 73 137.001s116.334 49 203.001 49
c17.333 0 34.666 -0.333008 51.999 -1s35.666 -1.83398 54.999 -3.50098s40.166 -3.83398 62.499 -6.50098s47.5 -6 75.5 -10l-6 -165c-42 9.33301 -83 16.666 -123 21.999s-72.667 8 -98 8c-26.667 0 -45.667 -1.83301 -57 -5.5s-17 -9.83398 -17 -18.501
c0 -4.66699 1.83301 -8.5 5.5 -11.5s10 -5.83301 19 -8.5s21.167 -5 36.5 -7s34.333 -4 57 -6c70.667 -6.66699 122.5 -23.5 155.5 -50.5s49.5 -65.5 49.5 -115.5c0 -123.333 -95.667 -185 -287 -185z" />
    <glyph glyph-name="uni0162" unicode="&#x162;" horiz-adv-x="704" 
d="M234 564l-212.998 0.000976562v176h662v-176h-214v-564h-45c20.667 -23.333 34.667 -42.833 42 -58.5s11 -31.834 11 -48.501c0 -36 -12.833 -63.833 -38.5 -83.5s-59.834 -29.5 -102.501 -29.5c-17.333 0 -36.666 1.33301 -57.999 4l-64 8v128
c14.667 -3.33301 30.667 -6.33301 48 -9s32.666 -4 45.999 -4c10.667 0 17.5 1.5 20.5 4.5s4.5 6.16699 4.5 9.5c0 7.33301 -3.33301 17.833 -10 31.5s-17.334 29.5 -32.001 47.5h-57v564z" />
    <glyph glyph-name="uni0163" unicode="&#x163;" horiz-adv-x="510" 
d="M249 -220c-17.333 0 -36.665 1.33496 -57.998 4.00195l-64 8v128c14.667 -3.33301 30.667 -6.33301 48 -9s32.666 -4 45.999 -4c10.667 0 17.5 1.5 20.5 4.5s4.5 6.16699 4.5 9.5c0 7.33301 -4.16699 19 -12.5 35s-21.833 34.667 -40.5 56
c-55.333 31.333 -83 86.333 -83 165v172h-88v191h104l36 173l176 17v-190h135v-191h-133v-119c0 -28.667 5 -48.167 15 -58.5s29 -15.5 57 -15.5c18.667 0 39 4.66699 61 14v-169c-13.333 -4 -31 -7.5 -53 -10.5s-44.667 -5.16699 -68 -6.5
c14.667 -18.667 24.667 -34.834 30 -48.501s8 -27.834 8 -42.501c0 -36 -12.833 -63.833 -38.5 -83.5s-59.834 -29.5 -102.501 -29.5z" />
    <glyph glyph-name="Tcaron" unicode="&#x164;" horiz-adv-x="704" 
d="M117 1027l235 -82l235 82v-149l-238 -81l-232 81v149zM234 564h-213v176h662v-176h-214v-564h-235v564z" />
    <glyph glyph-name="tcaron" unicode="&#x165;" horiz-adv-x="511" 
d="M327 -17c-71.333 0 -125.333 16.333 -162 49s-55 81 -55 145v172h-88v191h104l36 173l176 17v-190h135v-191h-133v-119c0 -28.667 5 -48.167 15 -58.5s29 -15.5 57 -15.5c18.667 0 39 4.66699 61 14v-169c-8 -2.66699 -17.5 -5 -28.5 -7s-23 -3.83301 -36 -5.5
s-26.5 -3 -40.5 -4s-27.667 -1.5 -41 -1.5zM393 808h178l-53 -228h-125v228z" />
    <glyph glyph-name="Tbar" unicode="&#x166;" horiz-adv-x="718" 
d="M83 427h156v137h-213v176h662v-176h-214v-137h182v-127h-182v-300h-235v300h-156v127z" />
    <glyph glyph-name="tbar" unicode="&#x167;" horiz-adv-x="512" 
d="M25 317h86v32h-88v191h104l36 173l176 17v-190h135v-191h-133v-32h96v-126h-92c4 -13.333 11.333 -22.5 22 -27.5s26 -7.5 46 -7.5c18.667 0 39 4.66699 61 14v-169c-8 -2.66699 -17.5 -5 -28.5 -7s-23 -3.83301 -36 -5.5s-26.5 -3 -40.5 -4s-27.667 -1.5 -41 -1.5
c-71.333 0 -125.333 16.333 -162 49s-55 81 -55 145v14h-86v126z" />
    <glyph glyph-name="Utilde" unicode="&#x168;" horiz-adv-x="880" 
d="M167 861c25.333 50 54.999 87.5 88.999 112.5s66.333 37.5 97 37.5c19.333 0 38.666 -1.83301 57.999 -5.5s38.5 -7.83398 57.5 -12.501s38.167 -8.83398 57.5 -12.501s38.666 -5.5 57.999 -5.5c16 0 31.833 2.16699 47.5 6.5s34.834 14.166 57.501 29.499l23 -38
c-26.667 -50 -56.834 -87.5 -90.501 -112.5s-65.167 -37.5 -94.5 -37.5c-19.333 0 -38.666 1.83301 -57.999 5.5s-38.666 7.83398 -57.999 12.501s-38.666 8.83398 -57.999 12.501s-38.666 5.5 -57.999 5.5c-17.333 0 -33.833 -2.16699 -49.5 -6.5
s-33.834 -14.166 -54.501 -29.499zM439.999 -10c-73.333 0 -134.501 6.83301 -183.501 20.5s-88.333 34 -118 61s-50.667 61 -63 102s-18.5 88.833 -18.5 143.5v426h235v-440c0 -38 11.667 -69 35 -93s61 -36 113 -36s89.667 12 113 36s35 55 35 93v440h235v-426
c0 -54.667 -6.33301 -102.5 -19 -143.5s-33.667 -75 -63 -102s-68.666 -47.333 -117.999 -61s-110.333 -20.5 -183 -20.5z" />
    <glyph glyph-name="utilde" unicode="&#x169;" horiz-adv-x="740" 
d="M223 -10c-56 0 -98.5 13.668 -127.5 41.001s-43.5 65 -43.5 113v396h230v-330c0 -20 3.66699 -34.333 11 -43s19.666 -13 36.999 -13c15.333 0 34.5 2.16699 57.5 6.5s45.167 9.5 66.5 15.5v364h230v-540h-193l-11 63h-4l-66.5 -34
c-19 -9.33301 -37.667 -16.833 -56 -22.5s-37.666 -9.83398 -57.999 -12.501s-44.5 -4 -72.5 -4zM110 661.001c25.333 50 54.999 87.5 88.999 112.5s66.333 37.5 97 37.5c19.333 0 38.666 -1.83301 57.999 -5.5s38.5 -7.83398 57.5 -12.501s38.167 -8.83398 57.5 -12.501
s38.666 -5.5 57.999 -5.5c16 0 31.833 2.16699 47.5 6.5s34.834 14.166 57.501 29.499l23 -38c-26.667 -50 -56.834 -87.5 -90.501 -112.5s-65.167 -37.5 -94.5 -37.5c-19.333 0 -38.666 1.83301 -57.999 5.5s-38.666 7.83398 -57.999 12.501
s-38.666 8.83398 -57.999 12.501s-38.666 5.5 -57.999 5.5c-17.333 0 -33.833 -2.16699 -49.5 -6.5s-33.834 -14.166 -54.501 -29.499z" />
    <glyph glyph-name="Umacron" unicode="&#x16a;" horiz-adv-x="880" 
d="M201 991h466v-148h-466v148zM440 -10c-73.333 0 -134.501 6.83301 -183.501 20.5s-88.333 34 -118 61s-50.667 61 -63 102s-18.5 88.833 -18.5 143.5v426h235v-440c0 -38 11.667 -69 35 -93s61 -36 113 -36s89.667 12 113 36s35 55 35 93v440h235v-426
c0 -54.667 -6.33301 -102.5 -19 -143.5s-33.667 -75 -63 -102s-68.666 -47.333 -117.999 -61s-110.333 -20.5 -183 -20.5z" />
    <glyph glyph-name="umacron" unicode="&#x16b;" horiz-adv-x="740" 
d="M223 -10c-56 0 -98.5 13.668 -127.5 41.001s-43.5 65 -43.5 113v396h230v-330c0 -20 3.66699 -34.333 11 -43s19.666 -13 36.999 -13c15.333 0 34.5 2.16699 57.5 6.5s45.167 9.5 66.5 15.5v364h230v-540h-193l-11 63h-4l-66.5 -34
c-19 -9.33301 -37.667 -16.833 -56 -22.5s-37.666 -9.83398 -57.999 -12.501s-44.5 -4 -72.5 -4zM127 791.001h466v-148h-466v148z" />
    <glyph glyph-name="Ubreve" unicode="&#x16c;" horiz-adv-x="880" 
d="M439 811c-50 0 -91.332 5.16504 -123.999 15.498s-58.834 24.333 -78.501 42s-33.5 38.334 -41.5 62.001s-12 48.834 -12 75.501h149c0 -14 1.5 -26.667 4.5 -38s8.5 -20.833 16.5 -28.5s19 -13.5 33 -17.5s31.667 -6 53 -6c22 0 39.833 2 53.5 6s24.5 9.83301 32.5 17.5
s13.5 17.167 16.5 28.5s4.5 24 4.5 38h149c0 -28 -4 -53.833 -12 -77.5s-21.833 -44.167 -41.5 -61.5s-46 -31 -79 -41s-74.167 -15 -123.5 -15zM440.001 -10.002c-73.333 0 -134.501 6.83301 -183.501 20.5s-88.333 34 -118 61s-50.667 61 -63 102
s-18.5 88.833 -18.5 143.5v426h235v-440c0 -38 11.667 -69 35 -93s61 -36 113 -36s89.667 12 113 36s35 55 35 93v440h235v-426c0 -54.667 -6.33301 -102.5 -19 -143.5s-33.667 -75 -63 -102s-68.666 -47.333 -117.999 -61s-110.333 -20.5 -183 -20.5z" />
    <glyph glyph-name="ubreve" unicode="&#x16d;" horiz-adv-x="740" 
d="M223 -10c-56 0 -98.5 13.668 -127.5 41.001s-43.5 65 -43.5 113v396h230v-330c0 -20 3.66699 -34.333 11 -43s19.666 -13 36.999 -13c15.333 0 34.5 2.16699 57.5 6.5s45.167 9.5 66.5 15.5v364h230v-540h-193l-11 63h-4l-66.5 -34
c-19 -9.33301 -37.667 -16.833 -56 -22.5s-37.666 -9.83398 -57.999 -12.501s-44.5 -4 -72.5 -4zM358 611.001c-50 0 -91.332 5.16504 -123.999 15.498s-58.834 24.333 -78.501 42s-33.5 38.334 -41.5 62.001s-12 48.834 -12 75.501h149c0 -14 1.5 -26.667 4.5 -38
s8.5 -20.833 16.5 -28.5s19 -13.5 33 -17.5s31.667 -6 53 -6c22 0 39.833 2 53.5 6s24.5 9.83301 32.5 17.5s13.5 17.167 16.5 28.5s4.5 24 4.5 38h149c0 -28 -4 -53.833 -12 -77.5s-21.833 -44.167 -41.5 -61.5s-46 -31 -79 -41s-74.167 -15 -123.5 -15z" />
    <glyph glyph-name="Uring" unicode="&#x16e;" horiz-adv-x="880" 
d="M440 -10c-73.333 0 -134.501 6.83301 -183.501 20.5s-88.333 34 -118 61s-50.667 61 -63 102s-18.5 88.833 -18.5 143.5v426h235v-440c0 -38 11.667 -69 35 -93s61 -36 113 -36s89.667 12 113 36s35 55 35 93v440h235v-426c0 -54.667 -6.33301 -102.5 -19 -143.5
s-33.667 -75 -63 -102s-68.666 -47.333 -117.999 -61s-110.333 -20.5 -183 -20.5zM436.999 780c-21.333 0 -41 2.83301 -59 8.5s-33.5 13.667 -46.5 24s-23.333 22.666 -31 36.999s-11.5 30.5 -11.5 48.5s3.83301 34.333 11.5 49s18 27.167 31 37.5s28.5 18.5 46.5 24.5
s37.667 9 59 9s41 -3 59 -9s33.667 -14.167 47 -24.5s23.666 -22.833 30.999 -37.5s11 -31 11 -49s-3.66699 -34.167 -11 -48.5s-17.666 -26.666 -30.999 -36.999s-29 -18.333 -47 -24s-37.667 -8.5 -59 -8.5zM436.999 850c24.667 0 41.167 3.83301 49.5 11.5
s12.5 19.834 12.5 36.501c0 17.333 -4.16699 29.833 -12.5 37.5s-24.833 11.5 -49.5 11.5c-24 0 -40.333 -3.83301 -49 -11.5s-13 -20.167 -13 -37.5c0 -16.667 4.33301 -28.834 13 -36.501s25 -11.5 49 -11.5z" />
    <glyph glyph-name="uring" unicode="&#x16f;" horiz-adv-x="740" 
d="M376 580c-21.333 0 -41 2.83301 -59 8.5s-33.5 13.667 -46.5 24s-23.333 22.666 -31 36.999s-11.5 30.5 -11.5 48.5s3.83301 34.333 11.5 49s18 27.167 31 37.5s28.5 18.5 46.5 24.5s37.667 9 59 9s41 -3 59 -9s33.667 -14.167 47 -24.5s23.666 -22.833 30.999 -37.5
s11 -31 11 -49s-3.66699 -34.167 -11 -48.5s-17.666 -26.666 -30.999 -36.999s-29 -18.333 -47 -24s-37.667 -8.5 -59 -8.5zM376 650c24.667 0 41.167 3.83301 49.5 11.5s12.5 19.834 12.5 36.501c0 17.333 -4.16699 29.833 -12.5 37.5s-24.833 11.5 -49.5 11.5
c-24 0 -40.333 -3.83301 -49 -11.5s-13 -20.167 -13 -37.5c0 -16.667 4.33301 -28.834 13 -36.501s25 -11.5 49 -11.5zM223 -10c-56 0 -98.5 13.668 -127.5 41.001s-43.5 65 -43.5 113v396h230v-330c0 -20 3.66699 -34.333 11 -43s19.666 -13 36.999 -13
c15.333 0 34.5 2.16699 57.5 6.5s45.167 9.5 66.5 15.5v364h230v-540h-193l-11 63h-4l-66.5 -34c-19 -9.33301 -37.667 -16.833 -56 -22.5s-37.666 -9.83398 -57.999 -12.501s-44.5 -4 -72.5 -4z" />
    <glyph glyph-name="Uhungarumlaut" unicode="&#x170;" horiz-adv-x="880" 
d="M440 -10c-73.333 0 -134.501 6.83301 -183.501 20.5s-88.333 34 -118 61s-50.667 61 -63 102s-18.5 88.833 -18.5 143.5v426h235v-440c0 -38 11.667 -69 35 -93s61 -36 113 -36s89.667 12 113 36s35 55 35 93v440h235v-426c0 -54.667 -6.33301 -102.5 -19 -143.5
s-33.667 -75 -63 -102s-68.666 -47.333 -117.999 -61s-110.333 -20.5 -183 -20.5zM224.999 817l61 191h231l-133 -201zM476.999 817l61 191h231l-132 -201z" />
    <glyph glyph-name="uhungarumlaut" unicode="&#x171;" horiz-adv-x="740" 
d="M223 -10c-56 0 -98.5 13.668 -127.5 41.001s-43.5 65 -43.5 113v396h230v-330c0 -20 3.66699 -34.333 11 -43s19.666 -13 36.999 -13c15.333 0 34.5 2.16699 57.5 6.5s45.167 9.5 66.5 15.5v364h230v-540h-193l-11 63h-4l-66.5 -34
c-19 -9.33301 -37.667 -16.833 -56 -22.5s-37.666 -9.83398 -57.999 -12.501s-44.5 -4 -72.5 -4zM141 617.001l61 191h231l-133 -201zM393 617.001l61 191h231l-132 -201z" />
    <glyph glyph-name="Uogonek" unicode="&#x172;" horiz-adv-x="880" 
d="M451 -219c-54.667 0 -97.499 8.50098 -128.499 25.501s-46.5 40.5 -46.5 70.5c0 20 6.66699 41 20 63s30.666 40 51.999 54c-55.333 5.33301 -101.5 16.166 -138.5 32.499s-66.833 37.833 -89.5 64.5s-38.834 58.834 -48.501 96.501s-14.5 80.834 -14.5 129.501v426h235
v-440c0 -38 11.667 -69 35 -93s61 -36 113 -36s89.667 12 113 36s35 55 35 93v440h235v-426c0 -47.333 -4.66699 -89.5 -14 -126.5s-24.666 -68.833 -45.999 -95.5s-49.666 -48.334 -84.999 -65.001s-79 -28 -131 -34c-24 -9.33301 -44.167 -17.5 -60.5 -24.5
s-29.333 -13.667 -39 -20s-16.5 -12.333 -20.5 -18s-6 -11.5 -6 -17.5c0 -13.333 8.66699 -20 26 -20c4 0 9.83301 0.5 17.5 1.5l25.5 3.5c9.33301 1.33301 19.166 3.16602 29.499 5.49902l29.5 6.5v-120c-29.333 -8 -62 -12 -98 -12z" />
    <glyph glyph-name="uogonek" unicode="&#x173;" horiz-adv-x="740" 
d="M223 -10c-56 0 -98.499 13.668 -127.499 41.001s-43.5 65 -43.5 113v396h230v-330c0 -20 3.66699 -34.333 11 -43s19.666 -13 36.999 -13c15.333 0 34.5 2.16699 57.5 6.5s45.167 9.5 66.5 15.5v364h230v-545c-24 -9.33301 -44.167 -17.5 -60.5 -24.5
s-29.333 -13.667 -39 -20s-16.5 -12.333 -20.5 -18s-6 -11.5 -6 -17.5c0 -13.333 8.66699 -20 26 -20c4 0 9.83301 0.5 17.5 1.5l25.5 3.5c9.33301 1.33301 19.166 3.16602 29.499 5.49902l29.5 6.5v-120c-29.333 -8 -62 -12 -98 -12c-54.667 0 -97.5 8.5 -128.5 25.5
s-46.5 40.5 -46.5 70.5c0 10.667 2.16699 22 6.5 34s10 23.5 17 34.5s15.167 21.333 24.5 31s19.333 17.834 30 24.501l-11 63h-4l-66.5 -34c-19 -9.33301 -37.667 -16.833 -56 -22.5s-37.666 -9.83398 -57.999 -12.501s-44.5 -4 -72.5 -4z" />
    <glyph glyph-name="Wcircumflex" unicode="&#x174;" horiz-adv-x="1195" 
d="M8 740h251l68 -389l17 -139h15l26 139l96 389h233l96 -389l26 -139h15l17 139l68 389h251l-176 -740h-318l-64 265l-26 208h-11l-26 -208l-64 -265h-318zM363 945l232 82l238 -82v-148l-235 81l-235 -81v148z" />
    <glyph glyph-name="wcircumflex" unicode="&#x175;" horiz-adv-x="934" 
d="M232 745l232 82l238 -82v-148l-235 81l-235 -81v148zM4 536v4h231l55 -267l8 -70h12l8 70l60 267h178l60 -267l8 -70h12l8 70l55 267h231v-4l-160 -536h-247l-43 206l-7 64h-12l-7 -64l-43 -206h-247z" />
    <glyph glyph-name="Ycircumflex" unicode="&#x176;" horiz-adv-x="792" 
d="M280 222l-293 518h253l112 -217l38 -93h10l38 93l112 217h253l-288 -509v-231h-235v222zM158 945l232 82l238 -82v-148l-235 81l-235 -81v148z" />
    <glyph glyph-name="ycircumflex" unicode="&#x177;" horiz-adv-x="701" 
d="M161 -196v19l78 190l-240 503v24h251l54 -171l42 -131h11l41 131l58 171h244v-24l-324 -736zM119 745l232 82l238 -82v-148l-235 81l-235 -81v148z" />
    <glyph glyph-name="Ydieresis" unicode="&#x178;" horiz-adv-x="792" 
d="M280 222l-293 518h253l112 -217l38 -93h10l38 93l112 217h253l-288 -509v-231h-235v222zM234 794c-44 0 -75.333 9.16699 -94 27.5s-28 48.5 -28 90.5c0 41.333 9.33301 71.333 28 90s50 28 94 28c45.333 0 76.833 -9.66699 94.5 -29s26.5 -49 26.5 -89
s-8.83301 -69.667 -26.5 -89s-49.167 -29 -94.5 -29zM555 794c-44 0 -75.167 9.16699 -93.5 27.5s-27.5 48.5 -27.5 90.5c0 41.333 9.16699 71.333 27.5 90s49.5 28 93.5 28c45.333 0 76.833 -9.66699 94.5 -29s26.5 -49 26.5 -89s-8.83301 -69.667 -26.5 -89
s-49.167 -29 -94.5 -29z" />
    <glyph glyph-name="Zacute" unicode="&#x179;" horiz-adv-x="733" 
d="M32 160l360 394v10h-345v176h636v-154l-361 -400v-10h382v-176h-672v160zM295 817l62 191h235l-132 -201z" />
    <glyph glyph-name="zacute" unicode="&#x17a;" horiz-adv-x="650" 
d="M257 617l61 191h235l-132 -201zM36 140l271 228v10h-261v162h558v-140l-253 -226v-12h263v-162h-578v140z" />
    <glyph glyph-name="Zdotaccent" unicode="&#x17b;" horiz-adv-x="733" 
d="M360 794c-44 0 -75.333 9.16699 -94 27.5s-28 48.5 -28 90.5c0 41.333 9.33301 71.333 28 90s50 28 94 28c45.333 0 76.833 -9.66699 94.5 -29s26.5 -49 26.5 -89s-8.83301 -69.667 -26.5 -89s-49.167 -29 -94.5 -29zM32 160l360 394v10h-345v176h636v-154l-361 -400v-10
h382v-176h-672v160z" />
    <glyph glyph-name="zdotaccent" unicode="&#x17c;" horiz-adv-x="650" 
d="M36 140l271 228v10h-261v162h558v-140l-253 -226v-12h263v-162h-578v140zM318 594c-44 0 -75.333 9.16699 -94 27.5s-28 48.5 -28 90.5c0 41.333 9.33301 71.333 28 90s50 28 94 28c45.333 0 76.833 -9.66699 94.5 -29s26.5 -49 26.5 -89s-8.83301 -69.667 -26.5 -89
s-49.167 -29 -94.5 -29z" />
    <glyph glyph-name="Zcaron" unicode="&#x17d;" horiz-adv-x="733" 
d="M124 1027l235 -82l235 82v-149l-238 -81l-232 81v149zM32 160l360 394v10h-345v176h636v-154l-361 -400v-10h382v-176h-672v160z" />
    <glyph glyph-name="zcaron" unicode="&#x17e;" horiz-adv-x="650" 
d="M101 827l235 -82l235 82v-149l-238 -81l-232 81v149zM36 140l271 228v10h-261v162h558v-140l-253 -226v-12h263v-162h-578v140z" />
    <glyph glyph-name="Schwa" unicode="&#x18f;" horiz-adv-x="804" 
d="M29 327c0 14.667 0.668945 30.001 2.00195 46.001s3.66602 38.667 6.99902 68h507c-2 24.667 -6.16699 44.5 -12.5 59.5s-15.833 26.167 -28.5 33.5s-29.334 12.166 -50.001 14.499s-46.334 3.5 -77.001 3.5c-35.333 0 -78 -1.83301 -128 -5.5s-108.333 -11.5 -175 -23.5
l-9 185c26 7.33301 54.333 13.666 85 18.999s61.334 9.83301 92.001 13.5s60 6.33398 88 8.00098s52.333 2.5 73 2.5c123.333 0 215.5 -30.333 276.5 -91s91.5 -154.334 91.5 -281.001s-31.667 -223.167 -95 -289.5s-161.333 -99.5 -294 -99.5
c-57.333 0 -107.833 6.16699 -151.5 18.5s-80.5 32 -110.5 59s-52.667 61.833 -68 104.5s-23 94.334 -23 155.001zM387.002 172.001c28 0 51.502 1.33496 70.502 4.00195s34.5 8 46.5 16s21.167 19.5 27.5 34.5s10.833 34.833 13.5 59.5h-296c0 -22 1.16699 -40.333 3.5 -55
s8.16602 -26.334 17.499 -35.001s23.166 -14.834 41.499 -18.501s43.5 -5.5 75.5 -5.5z" />
    <glyph glyph-name="florin" unicode="&#x192;" horiz-adv-x="584" 
d="M162 349h-130.998v191h132v23c0 46 7.16699 85 21.5 117s37.166 58.167 68.499 78.5s71.666 35 120.999 44s109 13.5 179 13.5l10 -162c-60 0 -103.5 -7 -130.5 -21s-40.5 -36.333 -40.5 -67v-26h156v-191h-156v-510l-230 -58v568z" />
    <glyph glyph-name="uni01C4" unicode="&#x1c4;" horiz-adv-x="1584" 
d="M975 1027l235 -82l235 82v-149l-238 -81l-232 81v149zM883 160l360 394v10h-345v176h636v-154l-361 -400v-10h382v-176h-672v160zM312 -10c-23.333 0 -46.6689 0.333008 -70.002 1s-46 1.5 -68 2.5s-42.333 2.33301 -61 4s-34.667 3.5 -48 5.5v735
c70 4 129.167 7 177.5 9s90.5 3 126.5 3c78 0 145.167 -7.5 201.5 -22.5s102.833 -38 139.5 -69s63.834 -70.5 81.501 -118.5s26.5 -105 26.5 -171c0 -68 -9.33301 -126 -28 -174s-48.167 -87.167 -88.5 -117.5s-92.666 -52.5 -156.999 -66.5s-141.833 -21 -232.5 -21z
M409.997 173c32.667 0 59.665 3.00098 80.998 9.00098s38.5 16.5 51.5 31.5s22.167 35.167 27.5 60.5s8 57 8 95c0 36.667 -3 67.667 -9 93s-15.667 45.666 -29 60.999s-31.166 26.333 -53.499 33s-49.833 10 -82.5 10c-12 0 -25.833 -0.333008 -41.5 -1s-36.5 -2 -62.5 -4
v-380c14.667 -2.66699 31.834 -4.66699 51.501 -6s39.167 -2 58.5 -2z" />
    <glyph glyph-name="uni01C5" unicode="&#x1c5;" horiz-adv-x="1501" 
d="M952 827l235 -82l235 82v-149l-238 -81l-232 81v149zM887 140l271 228v10h-261v162h558v-140l-253 -226v-12h263v-162h-578v140zM312 -10c-23.333 0 -46.6689 0.333008 -70.002 1s-46 1.5 -68 2.5s-42.333 2.33301 -61 4s-34.667 3.5 -48 5.5v735c70 4 129.167 7 177.5 9
s90.5 3 126.5 3c78 0 145.167 -7.5 201.5 -22.5s102.833 -38 139.5 -69s63.834 -70.5 81.501 -118.5s26.5 -105 26.5 -171c0 -68 -9.33301 -126 -28 -174s-48.167 -87.167 -88.5 -117.5s-92.666 -52.5 -156.999 -66.5s-141.833 -21 -232.5 -21zM409.997 173
c32.667 0 59.665 3.00098 80.998 9.00098s38.5 16.5 51.5 31.5s22.167 35.167 27.5 60.5s8 57 8 95c0 36.667 -3 67.667 -9 93s-15.667 45.666 -29 60.999s-31.166 26.333 -53.499 33s-49.833 10 -82.5 10c-12 0 -25.833 -0.333008 -41.5 -1s-36.5 -2 -62.5 -4v-380
c14.667 -2.66699 31.834 -4.66699 51.501 -6s39.167 -2 58.5 -2z" />
    <glyph glyph-name="uni01C6" unicode="&#x1c6;" horiz-adv-x="1388" 
d="M839 827l235 -82l235 82v-149l-238 -81l-232 81v149zM774 140l271 228v10h-261v162h558v-140l-253 -226v-12h263v-162h-578v140zM281 -11c-83.333 0 -145.999 22.166 -187.999 66.499s-63 110.833 -63 199.5c0 48 8.16699 90.5 24.5 127.5s39.333 67.833 69 92.5
s65.334 43.334 107.001 56.001s88.167 19 139.5 19c14.667 0 28.667 -0.333008 42 -1s26.666 -1.66699 39.999 -3v262h230v-808h-199l-19 71h-10c-18.667 -29.333 -41.834 -50.333 -69.501 -63s-62.167 -19 -103.5 -19zM350.001 155.999c36 0 61.667 6.16992 77 18.5029
s23.666 32.166 24.999 59.499v150c-26.667 5.33301 -56.334 8 -89.001 8c-22 0 -39.667 -1.5 -53 -4.5s-23.833 -8.83301 -31.5 -17.5s-12.667 -21 -15 -37s-3.5 -37 -3.5 -63c0 -22.667 1.16699 -41.334 3.5 -56.001s6.83301 -26.334 13.5 -35.001
s15.834 -14.667 27.501 -18s26.834 -5 45.501 -5z" />
    <glyph glyph-name="uni01C7" unicode="&#x1c7;" horiz-adv-x="1008" 
d="M636 -156c14 34 25.833 65.167 35.5 93.5s17.5 56.333 23.5 84s10.167 56 12.5 85s3.5 60.833 3.5 95.5v538h235v-556c0 -35.333 -2.83301 -68.833 -8.5 -100.5s-14.667 -63.5 -27 -95.5s-28.833 -64.833 -49.5 -98.5s-46 -70.167 -76 -109.5zM65 740h235v-565h331v-175
h-566v740z" />
    <glyph glyph-name="uni01C8" unicode="&#x1c8;" horiz-adv-x="981" 
d="M812 594c-44 0 -75.167 9.16699 -93.5 27.5s-27.5 48.5 -27.5 90.5c0 41.333 9.16699 71.333 27.5 90s49.5 28 93.5 28c45.333 0 77 -9.66699 95 -29s27 -49 27 -89s-9 -69.667 -27 -89s-49.667 -29 -95 -29zM666 -199c6.66699 30.667 12.335 58.999 17.002 84.999
s8.5 53.333 11.5 82s5 60.5 6 95.5s1.5 77.167 1.5 126.5v55.5c0 19.667 -0.333008 42.834 -1 69.501s-1.33398 58.167 -2.00098 94.5s-1.33398 79.833 -2.00098 130.5h230v-472c-7.33301 -56 -18.5 -107 -33.5 -153s-33.833 -91 -56.5 -135zM65.001 739.999h235v-565h331
v-175h-566v740z" />
    <glyph glyph-name="uni01C9" unicode="&#x1c9;" horiz-adv-x="677" 
d="M508 594c-44 0 -75.167 9.16699 -93.5 27.5s-27.5 48.5 -27.5 90.5c0 41.333 9.16699 71.333 27.5 90s49.5 28 93.5 28c45.333 0 77 -9.66699 95 -29s27 -49 27 -89s-9 -69.667 -27 -89s-49.667 -29 -95 -29zM362 -199c6.66699 30.667 12.335 58.999 17.002 84.999
s8.5 53.333 11.5 82s5 60.5 6 95.5s1.5 77.167 1.5 126.5v55.5c0 19.667 -0.333008 42.834 -1 69.501s-1.33398 58.167 -2.00098 94.5s-1.33398 79.833 -2.00098 130.5h230v-472c-7.33301 -56 -18.5 -107 -33.5 -153s-33.833 -91 -56.5 -135zM55.001 807.999h230v-808h-230
v808z" />
    <glyph glyph-name="uni01CA" unicode="&#x1ca;" horiz-adv-x="1246" 
d="M874 -156c14 34 25.833 65.167 35.5 93.5s17.5 56.333 23.5 84s10.167 56 12.5 85s3.5 60.833 3.5 95.5v538h235v-556c0 -35.333 -2.83301 -68.833 -8.5 -100.5s-14.667 -63.5 -27 -95.5s-28.833 -64.833 -49.5 -98.5s-46 -70.167 -76 -109.5zM65 740h182l289 -328
l67 -84h10v412h204v-740h-182l-275 312l-81 100h-10v-412h-204v740z" />
    <glyph glyph-name="uni01CB" unicode="&#x1cb;" horiz-adv-x="1219" 
d="M1050 594c-44 0 -75.167 9.16699 -93.5 27.5s-27.5 48.5 -27.5 90.5c0 41.333 9.16699 71.333 27.5 90s49.5 28 93.5 28c45.333 0 77 -9.66699 95 -29s27 -49 27 -89s-9 -69.667 -27 -89s-49.667 -29 -95 -29zM904 -199c6.66699 30.667 12.335 58.999 17.002 84.999
s8.5 53.333 11.5 82s5 60.5 6 95.5s1.5 77.167 1.5 126.5v55.5c0 19.667 -0.333008 42.834 -1 69.501s-1.33398 58.167 -2.00098 94.5s-1.33398 79.833 -2.00098 130.5h230v-472c-7.33301 -56 -18.5 -107 -33.5 -153s-33.833 -91 -56.5 -135zM65.001 739.999h182l289 -328
l67 -84h10v412h204v-740h-182l-275 312l-81 100h-10v-412h-204v740z" />
    <glyph glyph-name="uni01CC" unicode="&#x1cc;" horiz-adv-x="1077" 
d="M908 594c-44 0 -75.167 9.16699 -93.5 27.5s-27.5 48.5 -27.5 90.5c0 41.333 9.16699 71.333 27.5 90s49.5 28 93.5 28c45.333 0 77 -9.66699 95 -29s27 -49 27 -89s-9 -69.667 -27 -89s-49.667 -29 -95 -29zM762 -199c6.66699 30.667 12.335 58.999 17.002 84.999
s8.5 53.333 11.5 82s5 60.5 6 95.5s1.5 77.167 1.5 126.5v55.5c0 19.667 -0.333008 42.834 -1 69.501s-1.33398 58.167 -2.00098 94.5s-1.33398 79.833 -2.00098 130.5h230v-472c-7.33301 -56 -18.5 -107 -33.5 -153s-33.833 -91 -56.5 -135zM56.001 539.999h192.998l11 -63
h10c49.333 23.333 95 41.333 137 54s78.667 19 110 19c52.667 0 94.334 -13.667 125.001 -41s46 -65 46 -113v-396h-230v321c0 20 -3.66699 34.333 -11 43s-19.666 13 -36.999 13c-15.333 0 -34.5 -2.16699 -57.5 -6.5s-45.167 -9.5 -66.5 -15.5v-355h-230v540z" />
    <glyph glyph-name="Oogonek" unicode="&#x1ea;" horiz-adv-x="866" 
d="M449 -215c-54.667 0 -97.499 8.49902 -128.499 25.499s-46.5 40.5 -46.5 70.5c0 19.333 6.5 39.833 19.5 61.5s29.167 39.5 48.5 53.5c-101.333 14 -178.333 52.5 -231 115.5s-79 148.833 -79 257.5c0 124.667 34 219.334 102 284.001s167.667 97 299 97
c130 0 229.333 -32.5 298 -97.5s103 -159.5 103 -283.5c0 -104 -24.667 -187.167 -74 -249.5s-121 -102.166 -215 -119.499c-24 -9.33301 -44.167 -17.5 -60.5 -24.5s-29.333 -13.667 -39 -20s-16.5 -12.333 -20.5 -18s-6 -11.5 -6 -17.5c0 -13.333 8.66699 -20 26 -20
c4 0 9.83301 0.5 17.5 1.5l25.5 3.5c9.33301 1.33301 19.166 3.16602 29.499 5.49902l29.5 6.5v-120c-29.333 -8 -62 -12 -98 -12zM433.001 173.999c32 0 58.499 2.50098 79.499 7.50098s37.5 14.667 49.5 29s20.333 34.166 25 59.499s7 58.333 7 99
c0 39.333 -2.66699 71.666 -8 96.999s-14.166 45.5 -26.499 60.5s-28.833 25.333 -49.5 31s-46.334 8.5 -77.001 8.5c-31.333 0 -57.166 -2.83301 -77.499 -8.5s-36.833 -15.667 -49.5 -30s-21.5 -34.333 -26.5 -60s-7.5 -58.5 -7.5 -98.5c0 -40.667 2.5 -73.667 7.5 -99
s13.5 -45.166 25.5 -59.499s28.333 -24 49 -29s47 -7.5 79 -7.5z" />
    <glyph glyph-name="oogonek" unicode="&#x1eb;" horiz-adv-x="727" 
d="M370 -218c-54.667 0 -97.499 8.50098 -128.499 25.501s-46.5 40.5 -46.5 70.5c0 20 6.83301 41.333 20.5 64s31.167 41 52.5 55c-78.667 12.667 -138.167 42.167 -178.5 88.5s-60.5 107.833 -60.5 184.5c0 91.333 28.5 160.833 85.5 208.5s140.167 71.5 249.5 71.5
s192.333 -23.833 249 -71.5s85 -117.167 85 -208.5c0 -76.667 -20 -138 -60 -184s-98.333 -75.667 -175 -89c-24 -9.33301 -43.833 -17.5 -59.5 -24.5s-28.167 -13.5 -37.5 -19.5s-16 -12 -20 -18s-6 -12 -6 -18c0 -13.333 8.66699 -20 26 -20c4 0 9.83301 0.5 17.5 1.5
l25.5 3.5c9.33301 1.33301 19.166 3.16602 29.499 5.49902l29.5 6.5v-120c-29.333 -8 -62 -12 -98 -12zM364.001 161.001c20 0 36.667 1.5 50 4.5s24 8.66699 32 17s13.667 19.5 17 33.5s5 32 5 54s-1.66699 39.833 -5 53.5s-9 24.5 -17 32.5s-18.667 13.5 -32 16.5
s-30 4.5 -50 4.5s-36.667 -1.5 -50 -4.5s-24 -8.5 -32 -16.5s-13.833 -19 -17.5 -33s-5.5 -31.667 -5.5 -53c0 -22 1.83301 -40 5.5 -54s9.5 -25 17.5 -33s18.667 -13.667 32 -17s30 -5 50 -5z" />
    <glyph glyph-name="uni01F1" unicode="&#x1f1;" horiz-adv-x="1573" 
d="M872 160l360 394v10h-345v176h636v-154l-361 -400v-10h382v-176h-672v160zM312 -10c-23.333 0 -46.6689 0.333008 -70.002 1s-46 1.5 -68 2.5s-42.333 2.33301 -61 4s-34.667 3.5 -48 5.5v735c70 4 129.167 7 177.5 9s90.5 3 126.5 3c78 0 145.167 -7.5 201.5 -22.5
s102.833 -38 139.5 -69s63.834 -70.5 81.501 -118.5s26.5 -105 26.5 -171c0 -68 -9.33301 -126 -28 -174s-48.167 -87.167 -88.5 -117.5s-92.666 -52.5 -156.999 -66.5s-141.833 -21 -232.5 -21zM409.997 173c32.667 0 59.665 3.00098 80.998 9.00098s38.5 16.5 51.5 31.5
s22.167 35.167 27.5 60.5s8 57 8 95c0 36.667 -3 67.667 -9 93s-15.667 45.666 -29 60.999s-31.166 26.333 -53.499 33s-49.833 10 -82.5 10c-12 0 -25.833 -0.333008 -41.5 -1s-36.5 -2 -62.5 -4v-380c14.667 -2.66699 31.834 -4.66699 51.501 -6s39.167 -2 58.5 -2z" />
    <glyph glyph-name="uni01F2" unicode="&#x1f2;" horiz-adv-x="1501" 
d="M887 140l271 228v10h-261v162h558v-140l-253 -226v-12h263v-162h-578v140zM312 -10c-23.333 0 -46.6689 0.333008 -70.002 1s-46 1.5 -68 2.5s-42.333 2.33301 -61 4s-34.667 3.5 -48 5.5v735c70 4 129.167 7 177.5 9s90.5 3 126.5 3c78 0 145.167 -7.5 201.5 -22.5
s102.833 -38 139.5 -69s63.834 -70.5 81.501 -118.5s26.5 -105 26.5 -171c0 -68 -9.33301 -126 -28 -174s-48.167 -87.167 -88.5 -117.5s-92.666 -52.5 -156.999 -66.5s-141.833 -21 -232.5 -21zM409.997 173c32.667 0 59.665 3.00098 80.998 9.00098s38.5 16.5 51.5 31.5
s22.167 35.167 27.5 60.5s8 57 8 95c0 36.667 -3 67.667 -9 93s-15.667 45.666 -29 60.999s-31.166 26.333 -53.499 33s-49.833 10 -82.5 10c-12 0 -25.833 -0.333008 -41.5 -1s-36.5 -2 -62.5 -4v-380c14.667 -2.66699 31.834 -4.66699 51.501 -6s39.167 -2 58.5 -2z" />
    <glyph glyph-name="uni01F3" unicode="&#x1f3;" horiz-adv-x="1388" 
d="M774 140l271 228v10h-261v162h558v-140l-253 -226v-12h263v-162h-578v140zM281 -11c-83.333 0 -145.999 22.166 -187.999 66.499s-63 110.833 -63 199.5c0 48 8.16699 90.5 24.5 127.5s39.333 67.833 69 92.5s65.334 43.334 107.001 56.001s88.167 19 139.5 19
c14.667 0 28.667 -0.333008 42 -1s26.666 -1.66699 39.999 -3v262h230v-808h-199l-19 71h-10c-18.667 -29.333 -41.834 -50.333 -69.501 -63s-62.167 -19 -103.5 -19zM350.001 155.999c36 0 61.667 6.16992 77 18.5029s23.666 32.166 24.999 59.499v150
c-26.667 5.33301 -56.334 8 -89.001 8c-22 0 -39.667 -1.5 -53 -4.5s-23.833 -8.83301 -31.5 -17.5s-12.667 -21 -15 -37s-3.5 -37 -3.5 -63c0 -22.667 1.16699 -41.334 3.5 -56.001s6.83301 -26.334 13.5 -35.001s15.834 -14.667 27.501 -18s26.834 -5 45.501 -5z" />
    <glyph glyph-name="Gacute" unicode="&#x1f4;" horiz-adv-x="771" 
d="M311 817l62 191h235l-132 -201zM456 -15c-144.667 0 -251.503 31.1689 -320.503 93.502s-103.5 159.166 -103.5 290.499c0 130.667 35.667 227.667 107 291s180.666 95 327.999 95c20.667 0 42.334 -0.666992 65.001 -2s45 -3 67 -5s42.833 -4.5 62.5 -7.5
s36.834 -6.16699 51.501 -9.5v-186c-48.667 7.33301 -92.5 12.666 -131.5 15.999s-71.167 5 -96.5 5c-44.667 0 -80.667 -2.5 -108 -7.5s-48.666 -14.667 -63.999 -29s-25.666 -34.333 -30.999 -60s-8 -59.167 -8 -100.5c0 -40 2.33301 -72.667 7 -98
s13.834 -45.166 27.501 -59.499s32.5 -24 56.5 -29s55 -7.5 93 -7.5h23.5c8.33301 0 17.166 0.333008 26.499 1v200h216v-345c-20 -6.66699 -41.833 -12.834 -65.5 -18.501s-47.5 -10.5 -71.5 -14.5s-47.333 -7.16699 -70 -9.5s-43 -3.5 -61 -3.5z" />
    <glyph glyph-name="gacute" unicode="&#x1f5;" horiz-adv-x="736" 
d="M288 617l61 191h235l-132 -201zM332 -220c-23.333 0 -47.6689 0.501953 -73.002 1.50195s-49.666 2.5 -72.999 4.5s-45.166 4.16699 -65.499 6.5s-37.5 5.16602 -51.5 8.49902l13 160c10 -2 22.333 -4 37 -6s30.5 -4 47.5 -6s35 -3.66699 54 -5s38.167 -2 57.5 -2
c24.667 0 48.5 1.5 71.5 4.5s43.5 8.5 61.5 16.5s32.333 18.667 43 32s16 30.333 16 51v70h-10c-17.333 -32 -41 -55 -71 -69s-65.667 -21 -107 -21c-83.333 0 -146 20.167 -188 60.5s-63 101.5 -63 183.5c0 46 8.16699 86.5 24.5 121.5s39.333 64.167 69 87.5
s65.334 41 107.001 53s88.167 18 139.5 18c16.667 0 33.5 -0.666992 50.5 -2s37 -4 60 -8s50.667 -10 83 -18s71.833 -18.667 118.5 -32v-419c0 -54.667 -9.83301 -100.667 -29.5 -138s-45.834 -67.333 -78.501 -90s-70.167 -38.834 -112.5 -48.501
s-85.833 -14.5 -130.5 -14.5zM350.997 191.002c38 0 64.499 7 79.499 21s22.5 36 22.5 66v106c-26.667 5.33301 -56.334 8 -89.001 8c-22 0 -39.667 -1.16699 -53 -3.5s-23.833 -7.33301 -31.5 -15s-12.667 -18.5 -15 -32.5s-3.5 -32.667 -3.5 -56
c0 -18.667 1.16699 -34.167 3.5 -46.5s6.83301 -22 13.5 -29s15.834 -11.833 27.501 -14.5s26.834 -4 45.501 -4z" />
    <glyph glyph-name="Aringacute" unicode="&#x1fa;" horiz-adv-x="825" 
d="M-5 12l224.999 670.999c-16 22 -24 47.667 -24 77c0 38 13.5 70 40.5 96s64.167 43.667 111.5 53l39 121h235l-89 -135c32.667 -13.333 58.334 -31.5 77.001 -54.5s28 -49.833 28 -80.5c0 -31.333 -10.667 -59.666 -32 -84.999l224 -663v-12h-228l-45 142h-290l-44 -142
h-228v12zM413.999 703.999c27.333 0 49.166 5.16699 65.499 15.5s24.5 23.833 24.5 40.5c0 17.333 -8.16699 31 -24.5 41s-38.166 15 -65.499 15c-25.333 0 -45.666 -5 -60.999 -15s-23 -23.667 -23 -41s7.66699 -31 23 -41s35.666 -15 60.999 -15zM498.999 327.999l-26 84
l-51 171h-20l-51 -173l-26 -82h174z" />
    <glyph glyph-name="aringacute" unicode="&#x1fb;" horiz-adv-x="652" 
d="M198 -5c-57.333 0 -99.999 14 -127.999 42s-42 67.667 -42 119c0 56.667 17.167 99 51.5 127s87.166 44.333 158.499 49l133 8c-0.666992 9.33301 -2.66699 17.333 -6 24s-8.66602 12 -15.999 16s-17.5 7 -30.5 9s-29.5 3 -49.5 3c-30 0 -62 -1.83301 -96 -5.5
s-67 -8.5 -99 -14.5l-15 154c43.333 7.33301 85.833 12.833 127.5 16.5s79.5 5.5 113.5 5.5c201.333 0 302 -64.333 302 -193v-355h-188l-21 65h-10c-25.333 -25.333 -54.333 -43.333 -87 -54s-65.334 -16 -98.001 -16zM326.001 580c-21.333 0 -41 2.83398 -59 8.50098
s-33.5 13.667 -46.5 24s-23.333 22.666 -31 36.999s-11.5 30.5 -11.5 48.5c0 29.333 9.66699 54.166 29 74.499s44.666 33.833 75.999 40.5l53 167h235l-133 -201c24 -20.667 36 -47.667 36 -81c0 -18 -3.66699 -34.167 -11 -48.5s-17.666 -26.666 -30.999 -36.999
s-29 -18.333 -47 -24s-37.667 -8.5 -59 -8.5zM326.001 650.001c24.667 0 41.167 3.83301 49.5 11.5s12.5 19.834 12.5 36.501c0 17.333 -4.16699 29.833 -12.5 37.5s-24.833 11.5 -49.5 11.5c-24 0 -40.333 -3.83301 -49 -11.5s-13 -20.167 -13 -37.5
c0 -16.667 4.33301 -28.834 13 -36.501s25 -11.5 49 -11.5zM304.001 144.001c14.667 0 28.835 2.16797 42.502 6.50098s22.167 9.16602 25.5 14.499v69l-56 -5c-20.667 -2 -34.834 -6 -42.501 -12s-11.5 -16.667 -11.5 -32c0 -14.667 3.16699 -25.167 9.5 -31.5
s17.166 -9.5 32.499 -9.5z" />
    <glyph glyph-name="AEacute" unicode="&#x1fc;" horiz-adv-x="1117" 
d="M498 817l62 191h235l-132 -201zM-13 12l325 728h749v-176h-331l8 -106h313v-176h-300l9 -106h321v-176h-556l-6 142h-241l-63 -142h-228v12zM360 328h152l-11 255h-27z" />
    <glyph glyph-name="aeacute" unicode="&#x1fd;" horiz-adv-x="1005" 
d="M420 617l61 191h235l-132 -201zM693 -16c-108.667 0 -185.995 28.334 -231.995 85.001h-10c-80.667 -49.333 -166.667 -74 -258 -74c-53.333 0 -94 14.167 -122 42.5s-42 69.166 -42 122.499c0 54 17.167 95 51.5 123s87.166 44.333 158.499 49l134 8v5
c0 10 -1.83301 18.167 -5.5 24.5s-10.334 11 -20.001 14s-22.834 5 -39.501 6s-37.667 1.5 -63 1.5c-22.667 0 -48.834 -1.66699 -78.501 -5s-60.167 -8 -91.5 -14l-15 154c81.333 14.667 165.666 22 252.999 22c84 0 149 -15.333 195 -46h10
c23.333 13.333 49.833 23.333 79.5 30s63.167 10 100.5 10c90.667 0 159.167 -19.667 205.5 -59s69.5 -97.333 69.5 -174c0 -39.333 -4.33301 -71.666 -13 -96.999h-353c2 -12.667 5.16699 -22.834 9.5 -30.501s10.5 -13.5 18.5 -17.5s18.5 -6.66699 31.5 -8
s28.833 -2 47.5 -2c19.333 0 40 0.5 62 1.5s43.5 2.5 64.5 4.5s40.5 4.16699 58.5 6.5s32.667 4.83301 44 7.5l6 -159c-38 -10 -79 -17.667 -123 -23s-88.333 -8 -133 -8zM307.005 144.001c13.333 0 26.832 2.16699 40.499 6.5s22.167 9.16602 25.5 14.499v69l-56 -5
c-21.333 -2 -35.666 -6.16699 -42.999 -12.5s-11 -16.166 -11 -29.499c0 -16 3.16699 -27.167 9.5 -33.5s17.833 -9.5 34.5 -9.5zM772.004 315.001c-1.33301 26.667 -8.33105 45.667 -20.998 57s-34.334 17 -65.001 17c-28 0 -47.833 -5.16699 -59.5 -15.5
s-18.834 -29.833 -21.501 -58.5h167z" />
    <glyph glyph-name="Oslashacute" unicode="&#x1fe;" horiz-adv-x="868" 
d="M111 113c-52 62 -78 147.332 -78 255.999c0 124.667 34 219.334 102 284.001s167.667 97 299 97c92 0 168.667 -16.667 230 -50l38 40h161l-108 -114c53.333 -63.333 80 -149 80 -257c0 -123.333 -34.333 -217.333 -103 -282s-168 -97 -298 -97
c-92 0 -169 16.333 -231 49l-37 -39h-161zM434 173.999c32 0 58.5 2.50195 79.5 7.50195s37.5 14.667 49.5 29s20.333 34.166 25 59.499s7 58.333 7 99c0 15.333 -0.5 29.833 -1.5 43.5s-2.16699 26.167 -3.5 37.5l-249 -264c11.333 -4.66699 24.833 -7.83398 40.5 -9.50098
s33.167 -2.5 52.5 -2.5zM273 369.001c0 -16 0.331055 -30.5 0.998047 -43.5s1.66699 -25.167 3 -36.5l248 263c-21.333 9.33301 -51.666 14 -90.999 14c-31.333 0 -57.166 -2.83301 -77.499 -8.5s-36.833 -15.667 -49.5 -30s-21.5 -34.333 -26.5 -60s-7.5 -58.5 -7.5 -98.5z
M340.998 817.001l62 191h235l-132 -201z" />
    <glyph glyph-name="oslashacute" unicode="&#x1ff;" horiz-adv-x="734" 
d="M91 89c-19.333 23.333 -33.668 50.332 -43.001 80.999s-14 64 -14 100c0 42 6.5 80.167 19.5 114.5s33 63.833 60 88.5s61.667 43.667 104 57s92.5 20 150.5 20c38.667 0 73.667 -3 105 -9s59.333 -14.667 84 -26l28 25h158l-99 -90
c19.333 -23.333 33.833 -50.166 43.5 -80.499s14.5 -63.5 14.5 -99.5c0 -42.667 -6.66699 -81.334 -20 -116.001s-33.666 -64.167 -60.999 -88.5s-62 -43.166 -104 -56.499s-91.667 -20 -149 -20c-76.667 0 -140 11.667 -190 35l-27 -24h-158zM367.998 160.999
c26 0 46 2.16602 60 6.49902s24.333 11 31 20s10.5 20.333 11.5 34s1.5 29.834 1.5 48.501v23l-143 -130c5.33301 -1.33301 11.333 -2 18 -2h21zM263.998 246.998l140 128c-5.33301 0.666992 -10.833 1.16699 -16.5 1.5s-12.167 0.5 -19.5 0.5
c-25.333 0 -44.833 -1.83301 -58.5 -5.5s-24 -9.66699 -31 -18s-11.167 -19.333 -12.5 -33s-2 -30.5 -2 -50.5v-23zM273.998 616.998l61 191h235l-132 -201z" />
    <glyph glyph-name="Adblgrave" unicode="&#x200;" horiz-adv-x="825" 
d="M-5 12l245 728h345l245 -728v-12h-228l-47 148h-286l-46 -148h-228v12zM501 324l-28 88l-51 171h-20l-51 -173l-27 -86h177zM188 807l-133 201h231l61 -191zM440 807l-133 201h231l62 -191z" />
    <glyph glyph-name="adblgrave" unicode="&#x201;" horiz-adv-x="652" 
d="M198 -5c-57.333 0 -99.999 14 -127.999 42s-42 67.667 -42 119c0 56.667 17.167 99 51.5 127s87.166 44.333 158.499 49l133 8c-0.666992 9.33301 -2.66699 17.333 -6 24s-8.66602 12 -15.999 16s-17.5 7 -30.5 9s-29.5 3 -49.5 3c-30 0 -62 -1.83301 -96 -5.5
s-67 -8.5 -99 -14.5l-15 154c43.333 7.33301 85.833 12.833 127.5 16.5s79.5 5.5 113.5 5.5c201.333 0 302 -64.333 302 -193v-355h-188l-21 65h-10c-25.333 -25.333 -54.333 -43.333 -87 -54s-65.334 -16 -98.001 -16zM304.001 144c14.667 0 28.835 2.16797 42.502 6.50098
s22.167 9.16602 25.5 14.499v69l-56 -5c-20.667 -2 -34.834 -6 -42.501 -12s-11.5 -16.667 -11.5 -32c0 -14.667 3.16699 -25.167 9.5 -31.5s17.166 -9.5 32.499 -9.5zM139.002 607.001l-133 201h231l61 -191zM391.002 607.001l-133 201h231l62 -191z" />
    <glyph glyph-name="Ainvertedbreve" unicode="&#x202;" horiz-adv-x="825" 
d="M-5 12l245 728h345l245 -728v-12h-228l-47 148h-286l-46 -148h-228v12zM501 324l-28 88l-51 171h-20l-51 -173l-27 -86h177zM519 821c0 14 -1.50098 26.499 -4.50098 37.499s-8.5 20.333 -16.5 28s-18.833 13.5 -32.5 17.5s-31.5 6 -53.5 6c-21.333 0 -39 -2 -53 -6
s-25 -9.83301 -33 -17.5s-13.5 -17 -16.5 -28s-4.5 -23.5 -4.5 -37.5h-149c0 26.667 4 51.834 12 75.501s21.833 44.334 41.5 62.001s45.834 31.667 78.501 42s74 15.5 124 15.5c49.333 0 90.5 -5 123.5 -15s59.333 -23.833 79 -41.5s33.5 -38.334 41.5 -62.001
s12 -49.167 12 -76.5h-149z" />
    </font>
</defs>
</svg>
