<?xml version="1.0" standalone="no"?>
<!DOCTYPE svg PUBLIC "-//W3C//DTD SVG 1.1//EN" "http://www.w3.org/Graphics/SVG/1.1/DTD/svg11.dtd" >
<svg>
<metadata>
Created by FontForge 20090914 at Sat Aug  6 10:39:39 2016
 By www-data
Copyright (c) 2012, Impallari Type (www.impallari.com), with Reserved Font Name Encode Sans.
</metadata>
<defs>
<font id="EncodeSansCompressed-ExtraBold" horiz-adv-x="577" >
  <font-face 
    font-family="Encode Sans Compressed"
    font-weight="800"
    font-stretch="normal"
    units-per-em="1000"
    panose-1="2 0 0 0 0 0 0 0 0 0"
    ascent="800"
    descent="-200"
    x-height="540"
    cap-height="740"
    bbox="-107 -220.001 1524 1030"
    underline-thickness="55"
    underline-position="-57"
    unicode-range="U+000D-U+FB04"
  />
<missing-glyph horiz-adv-x="670" 
d="M66 1030h537v-1250h-537v1250zM472 -98v1007h-276v-1007h276z" />
    <glyph glyph-name="f_f" unicode="ff" horiz-adv-x="701" 
d="M425 406h-180.002v-406h-160v406h-73v134h74v27c0 45.333 4.66699 83.333 14 114s24.833 55.667 46.5 75s50.334 33.5 86.001 42.5s80.167 14.5 133.5 16.5l10 -120c-26 -2 -47.5 -5.16699 -64.5 -9.5s-30.333 -10.833 -40 -19.5s-16.5 -20 -20.5 -34s-6 -31.333 -6 -52
v-40h181v27c0 45.333 4.66699 83.333 14 114s24.833 55.667 46.5 75s50.334 33.5 86.001 42.5s80.167 14.5 133.5 16.5l10 -120c-26 -2 -47.5 -5.16699 -64.5 -9.5s-30.333 -10.833 -40 -19.5s-16.5 -20 -20.5 -34s-6 -31.333 -6 -52v-40h108v-134h-108v-406h-160v406z" />
    <glyph glyph-name="f_i" unicode="fi" horiz-adv-x="615" 
d="M487 615c-30.667 0 -53 6.66699 -67 20s-21 35.333 -21 66c0 30 6.83301 51.833 20.5 65.5s36.167 20.5 67.5 20.5s54 -6.83301 68 -20.5s21 -35.5 21 -65.5s-6.83301 -51.833 -20.5 -65.5s-36.5 -20.5 -68.5 -20.5zM408 540h159v-540h-159v540zM85 406h-73.001v134h74
v27c0 45.333 4.66699 83.333 14 114s24.833 55.667 46.5 75s50.334 33.5 86.001 42.5s80.167 14.5 133.5 16.5l10 -120c-26 -2 -47.5 -5.16699 -64.5 -9.5s-30.333 -10.833 -40 -19.5s-16.5 -20 -20.5 -34s-6 -31.333 -6 -52v-40h108v-134h-108v-406h-160v406z" />
    <glyph glyph-name="f_l" unicode="fl" horiz-adv-x="615" 
d="M85 406h-73.001v134h74v27c0 45.333 4.66699 83.333 14 114s24.833 55.667 46.5 75s50.334 33.5 86.001 42.5s80.167 14.5 133.5 16.5l10 -120c-26 -2 -47.5 -5.16699 -64.5 -9.5s-30.333 -10.833 -40 -19.5s-16.5 -20 -20.5 -34s-6 -31.333 -6 -52v-40h108v-134h-108
v-406h-160v406zM407.999 808h160v-808h-160v808z" />
    <glyph glyph-name="f_f_i" unicode="ffi" horiz-adv-x="949" 
d="M85 406h-73.002v134h74v27c0 45.333 4.66699 83.333 14 114s24.833 55.667 46.5 75s50.334 33.5 86.001 42.5s80.167 14.5 133.5 16.5l10 -120c-26 -2 -47.5 -5.16699 -64.5 -9.5s-30.333 -10.833 -40 -19.5s-16.5 -20 -20.5 -34s-6 -31.333 -6 -52v-40h176v27
c0 45.333 4.66699 83.333 14 114s24.833 55.667 46.5 75s50.334 33.5 86.001 42.5s80.167 14.5 133.5 16.5l10 -120c-26 -2 -47.5 -5.16699 -64.5 -9.5s-30.333 -10.833 -40 -19.5s-16.5 -20 -20.5 -34s-6 -31.333 -6 -52v-40h108v-134h-108v-406h-160v406h-175v-406h-160
v406zM742.998 540h159v-540h-159v540zM821.998 615c-30.667 0 -53 6.66699 -67 20s-21 35.333 -21 66c0 30 6.83301 51.833 20.5 65.5s36.167 20.5 67.5 20.5s54 -6.83301 68 -20.5s21 -35.5 21 -65.5s-6.83301 -51.833 -20.5 -65.5s-36.5 -20.5 -68.5 -20.5z" />
    <glyph glyph-name="f_f_l" unicode="ffl" horiz-adv-x="950" 
d="M85 406h-73.002v134h74v27c0 45.333 4.66699 83.333 14 114s24.833 55.667 46.5 75s50.334 33.5 86.001 42.5s80.167 14.5 133.5 16.5l10 -120c-26 -2 -47.5 -5.16699 -64.5 -9.5s-30.333 -10.833 -40 -19.5s-16.5 -20 -20.5 -34s-6 -31.333 -6 -52v-40h176v27
c0 45.333 4.66699 83.333 14 114s24.833 55.667 46.5 75s50.334 33.5 86.001 42.5s80.167 14.5 133.5 16.5l10 -120c-26 -2 -47.5 -5.16699 -64.5 -9.5s-30.333 -10.833 -40 -19.5s-16.5 -20 -20.5 -34s-6 -31.333 -6 -52v-40h108v-134h-108v-406h-160v406h-175v-406h-160
v406zM741.998 808h160v-808h-160v808z" />
    <glyph glyph-name="f_b" unicode="fb" horiz-adv-x="899" 
d="M86 406h-73.001v134h74v27c0 45.333 4.66699 83.333 14 114s24.833 55.667 46.5 75s50.334 33.5 86.001 42.5s80.167 14.5 133.5 16.5l10 -120c-26 -2 -47.5 -5.16699 -64.5 -9.5s-30.333 -10.833 -40 -19.5s-16.5 -20 -20.5 -34s-6 -31.333 -6 -52v-40h108v-134h-108
v-406h-160v406zM613.999 -9c-30.667 0 -63.501 3.33203 -98.501 9.99902s-71.5 16.667 -109.5 30v777h160v-322c32 42 76.667 63 134 63c114.667 0 172 -86.667 172 -260c0 -44.667 -4.66699 -85 -14 -121s-24.166 -67 -44.499 -93s-47 -46.167 -80 -60.5
s-72.833 -22.166 -119.5 -23.499zM618.998 96.999c16.667 0 30.8311 2.66504 42.498 7.99805s20.834 14.5 27.501 27.5s11.5 30.5 14.5 52.5s4.5 50 4.5 84c0 32.667 -1.16699 59.834 -3.5 81.501s-6.16602 38.834 -11.499 51.501s-12.333 21.5 -21 26.5
s-19.667 7.5 -33 7.5c-12.667 0 -23.5 -2.83301 -32.5 -8.5s-16.5 -15.167 -22.5 -28.5s-10.5 -31.5 -13.5 -54.5s-4.5 -51.833 -4.5 -86.5v-150c6.66699 -3.33301 14.667 -6 24 -8s19 -3 29 -3z" />
    <glyph glyph-name="f_f_b" unicode="ffb" horiz-adv-x="1234" 
d="M86 406h-73.002v134h74v27c0 45.333 4.66699 83.333 14 114s24.833 55.667 46.5 75s50.334 33.5 86.001 42.5s80.167 14.5 133.5 16.5l10 -120c-26 -2 -47.5 -5.16699 -64.5 -9.5s-30.333 -10.833 -40 -19.5s-16.5 -20 -20.5 -34s-6 -31.333 -6 -52v-40h175v27
c0 45.333 4.66699 83.333 14 114s24.833 55.667 46.5 75s50.334 33.5 86.001 42.5s80.167 14.5 133.5 16.5l10 -120c-26 -2 -47.5 -5.16699 -64.5 -9.5s-30.333 -10.833 -40 -19.5s-16.5 -20 -20.5 -34s-6 -31.333 -6 -52v-40h108v-134h-108v-406h-160v406h-174v-406h-160
v406zM947.998 -9c-30.667 0 -63.501 3.33203 -98.501 9.99902s-71.5 16.667 -109.5 30v777h160v-322c32 42 76.667 63 134 63c114.667 0 172 -86.667 172 -260c0 -44.667 -4.66699 -85 -14 -121s-24.166 -67 -44.499 -93s-47 -46.167 -80 -60.5
s-72.833 -22.166 -119.5 -23.499zM952.997 96.999c16.667 0 30.8311 2.66504 42.498 7.99805s20.834 14.5 27.501 27.5s11.5 30.5 14.5 52.5s4.5 50 4.5 84c0 32.667 -1.16699 59.834 -3.5 81.501s-6.16602 38.834 -11.499 51.501s-12.333 21.5 -21 26.5
s-19.667 7.5 -33 7.5c-12.667 0 -23.5 -2.83301 -32.5 -8.5s-16.5 -15.167 -22.5 -28.5s-10.5 -31.5 -13.5 -54.5s-4.5 -51.833 -4.5 -86.5v-150c6.66699 -3.33301 14.667 -6 24 -8s19 -3 29 -3z" />
    <glyph glyph-name="f_f_h" unicode="ffh" horiz-adv-x="1231" 
d="M85 406h-73.002v134h74v27c0 45.333 4.66699 83.333 14 114s24.833 55.667 46.5 75s50.334 33.5 86.001 42.5s80.167 14.5 133.5 16.5l10 -120c-26 -2 -47.5 -5.16699 -64.5 -9.5s-30.333 -10.833 -40 -19.5s-16.5 -20 -20.5 -34s-6 -31.333 -6 -52v-40h176v27
c0 45.333 4.66699 83.333 14 114s24.833 55.667 46.5 75s50.334 33.5 86.001 42.5s80.167 14.5 133.5 16.5l10 -120c-26 -2 -47.5 -5.16699 -64.5 -9.5s-30.333 -10.833 -40 -19.5s-16.5 -20 -20.5 -34s-6 -31.333 -6 -52v-40h108v-134h-108v-406h-160v406h-175v-406h-160
v406zM741.998 808l160.001 -0.000976562v-319c18.667 12 35.334 22 50.001 30s28.167 14.167 40.5 18.5s24.166 7.5 35.499 9.5s23.333 3 36 3c38 0 67.833 -12.667 89.5 -38s32.5 -60.666 32.5 -105.999v-406h-159v349c0 41.333 -15 62 -45 62
c-20.667 0 -47.334 -9.66699 -80.001 -29v-382h-160v808z" />
    <glyph glyph-name="f_f_j" unicode="ffj" horiz-adv-x="954" 
d="M86 406h-73.002v134h74v27c0 45.333 4.66699 83.333 14 114s24.833 55.667 46.5 75s50.334 33.5 86.001 42.5s80.167 14.5 133.5 16.5l10 -120c-26 -2 -47.5 -5.16699 -64.5 -9.5s-30.333 -10.833 -40 -19.5s-16.5 -20 -20.5 -34s-6 -31.333 -6 -52v-40h176v27
c0 45.333 4.66699 83.333 14 114s24.833 55.667 46.5 75s50.334 33.5 86.001 42.5s80.167 14.5 133.5 16.5l10 -120c-26 -2 -47.5 -5.16699 -64.5 -9.5s-30.333 -10.833 -40 -19.5s-16.5 -20 -20.5 -34s-6 -31.333 -6 -52v-40h108v-134h-108v-406h-160v406h-175v-406h-160
v406zM703.998 -187c6.66699 18.667 12.667 39.833 18 63.5s9.83301 48.334 13.5 74.001s6.5 52.167 8.5 79.5s3 54.666 3 81.999v428h160v-466c0 -22 -2.33301 -46 -7 -72s-11.167 -52.167 -19.5 -78.5s-18.333 -51.833 -30 -76.5s-24.167 -47 -37.5 -67zM826.998 614.999
c-30.667 0 -53 6.66699 -67 20s-21 35.333 -21 66c0 30 6.83301 51.833 20.5 65.5s36.167 20.5 67.5 20.5s54 -6.83301 68 -20.5s21 -35.5 21 -65.5s-6.83301 -51.833 -20.5 -65.5s-36.5 -20.5 -68.5 -20.5z" />
    <glyph glyph-name="f_f_k" unicode="ffk" horiz-adv-x="1219" 
d="M85 406h-73.002v134h74v27c0 45.333 4.66699 83.333 14 114s24.833 55.667 46.5 75s50.334 33.5 86.001 42.5s80.167 14.5 133.5 16.5l10 -120c-26 -2 -47.5 -5.16699 -64.5 -9.5s-30.333 -10.833 -40 -19.5s-16.5 -20 -20.5 -34s-6 -31.333 -6 -52v-40h176v27
c0 45.333 4.66699 83.333 14 114s24.833 55.667 46.5 75s50.334 33.5 86.001 42.5s80.167 14.5 133.5 16.5l10 -120c-26 -2 -47.5 -5.16699 -64.5 -9.5s-30.333 -10.833 -40 -19.5s-16.5 -20 -20.5 -34s-6 -31.333 -6 -52v-40h108v-134h-108v-406h-160v406h-175v-406h-160
v406zM741.998 808h160v-471h36l104 203h172l-148 -250l-24 -10v-3l25 -10l165 -267h-174l-120 220h-36v-220h-160v808z" />
    <glyph glyph-name="f_f_t" unicode="fft" horiz-adv-x="1048" 
d="M939 -6c-57.333 0 -100.669 13.167 -130.002 39.5s-44 64.5 -44 114.5v258h-185v-406h-160v406h-174v-406h-160v406h-73v134h74v27c0 45.333 4.66699 83.333 14 114s24.833 55.667 46.5 75s50.334 33.5 86.001 42.5s80.167 14.5 133.5 16.5l10 -120
c-26 -2 -47.5 -5.16699 -64.5 -9.5s-30.333 -10.833 -40 -19.5s-16.5 -20 -20.5 -34s-6 -31.333 -6 -52v-40h175v27c0 45.333 4.66699 83.333 14 114s24.833 55.667 46.5 75s50.334 33.5 86.001 42.5s80.167 14.5 133.5 16.5l10 -120c-26 -2 -47.5 -5.16699 -64.5 -9.5
s-30.333 -10.833 -40 -19.5s-16.5 -20 -20.5 -34s-6 -31.333 -6 -52v-40h194l21 155l129 16v-171h104v-134h-103v-218c0 -28 4.5 -47.667 13.5 -59s22.833 -17 41.5 -17c7.33301 0 15 0.5 23 1.5s16.667 2.83301 26 5.5v-115c-13.333 -3.33301 -27.833 -5.83301 -43.5 -7.5
s-31.167 -2.5 -46.5 -2.5z" />
    <glyph glyph-name="f_h" unicode="fh" horiz-adv-x="897" 
d="M407 808l160.001 -0.000976562v-319c18.667 12 35.334 22 50.001 30s28.167 14.167 40.5 18.5s24.166 7.5 35.499 9.5s23.333 3 36 3c38 0 67.833 -12.667 89.5 -38s32.5 -60.666 32.5 -105.999v-406h-159v349c0 41.333 -15 62 -45 62
c-20.667 0 -47.334 -9.66699 -80.001 -29v-382h-160v808zM85.001 405.999h-73.001v134h74v27c0 45.333 4.66699 83.333 14 114s24.833 55.667 46.5 75s50.334 33.5 86.001 42.5s80.167 14.5 133.5 16.5l10 -120c-26 -2 -47.5 -5.16699 -64.5 -9.5s-30.333 -10.833 -40 -19.5
s-16.5 -20 -20.5 -34s-6 -31.333 -6 -52v-40h108v-134h-108v-406h-160v406z" />
    <glyph glyph-name="f_j" unicode="fj" horiz-adv-x="619" 
d="M86 406h-73.001v134h74v27c0 45.333 4.66699 83.333 14 114s24.833 55.667 46.5 75s50.334 33.5 86.001 42.5s80.167 14.5 133.5 16.5l10 -120c-26 -2 -47.5 -5.16699 -64.5 -9.5s-30.333 -10.833 -40 -19.5s-16.5 -20 -20.5 -34s-6 -31.333 -6 -52v-40h108v-134h-108
v-406h-160v406zM491.999 615c-30.667 0 -53 6.66699 -67 20s-21 35.333 -21 66c0 30 6.83301 51.833 20.5 65.5s36.167 20.5 67.5 20.5s54 -6.83301 68 -20.5s21 -35.5 21 -65.5s-6.83301 -51.833 -20.5 -65.5s-36.5 -20.5 -68.5 -20.5zM368.999 -187
c6.66699 18.667 12.667 39.833 18 63.5s9.83301 48.334 13.5 74.001s6.5 52.167 8.5 79.5s3 54.666 3 81.999v428h160v-466c0 -22 -2.33301 -46 -7 -72s-11.167 -52.167 -19.5 -78.5s-18.333 -51.833 -30 -76.5s-24.167 -47 -37.5 -67z" />
    <glyph glyph-name="f_k" unicode="fk" horiz-adv-x="884" 
d="M407 808h160v-471h36l104 203h172l-148 -250l-24 -10v-3l25 -10l165 -267h-174l-120 220h-36v-220h-160v808zM85 406h-73.001v134h74v27c0 45.333 4.66699 83.333 14 114s24.833 55.667 46.5 75s50.334 33.5 86.001 42.5s80.167 14.5 133.5 16.5l10 -120
c-26 -2 -47.5 -5.16699 -64.5 -9.5s-30.333 -10.833 -40 -19.5s-16.5 -20 -20.5 -34s-6 -31.333 -6 -52v-40h108v-134h-108v-406h-160v406z" />
    <glyph glyph-name="f_t" unicode="ft" horiz-adv-x="713" 
d="M605 -6c-57.333 0 -100.668 13.167 -130.001 39.5s-44 64.5 -44 114.5v258h-185v-406h-160v406h-73v134h74v27c0 45.333 4.66699 83.333 14 114s24.833 55.667 46.5 75s50.334 33.5 86.001 42.5s80.167 14.5 133.5 16.5l10 -120c-26 -2 -47.5 -5.16699 -64.5 -9.5
s-30.333 -10.833 -40 -19.5s-16.5 -20 -20.5 -34s-6 -31.333 -6 -52v-40h194l21 155l129 16v-171h104v-134h-103v-218c0 -28 4.5 -47.667 13.5 -59s22.833 -17 41.5 -17c7.33301 0 15 0.5 23 1.5s16.667 2.83301 26 5.5v-115c-13.333 -3.33301 -27.833 -5.83301 -43.5 -7.5
s-31.167 -2.5 -46.5 -2.5z" />
    <glyph glyph-name=".notdef" horiz-adv-x="670" 
d="M66 1030h537v-1250h-537v1250zM472 -98v1007h-276v-1007h276z" />
    <glyph glyph-name="NULL" horiz-adv-x="0" 
 />
    <glyph glyph-name="NULL" horiz-adv-x="0" 
 />
    <glyph glyph-name="nonmarkingreturn" unicode="&#xd;" horiz-adv-x="264" 
 />
    <glyph glyph-name="space" unicode=" " horiz-adv-x="172" 
 />
    <glyph glyph-name="exclam" unicode="!" horiz-adv-x="268" 
d="M134 -7c-28.667 0 -51 7.5 -67 22.5s-24 36.5 -24 64.5s8 49.333 24 64s38.333 22 67 22c29.333 0 52 -7.5 68 -22.5s24 -36.167 24 -63.5c0 -28 -8 -49.5 -24 -64.5s-38.667 -22.5 -68 -22.5zM85 263l-36 467v10h170v-10l-34 -467v-11h-100v11z" />
    <glyph glyph-name="quotedbl" unicode="&#x22;" horiz-adv-x="397" 
d="M170 808v-4l-41 -324h-85v328h126zM370 808v-4l-41 -324h-85v328h126z" />
    <glyph glyph-name="numbersign" unicode="#" horiz-adv-x="515" 
d="M282 204h-79l-16 -204h-109l16 204h-60v99h68l11 135h-79v99h87l17 203h109l-17 -203h79l17 203h110l-17 -203h62v-99h-70l-11 -135h81v-99h-89l-16 -204h-110zM211 303h79l11 135h-79z" />
    <glyph glyph-name="dollar" unicode="$" horiz-adv-x="517" 
d="M205 -10c-28 2 -56.335 5.83398 -85.002 11.501s-58.334 13.834 -89.001 24.501l2 138c11.333 -5.33301 24.833 -10.5 40.5 -15.5s31.834 -9.33301 48.501 -13s33.334 -6.5 50.001 -8.5s32 -3 46 -3c73.333 0 110 28.667 110 86c0 14.667 -3 26.834 -9 36.501
s-14.5 18 -25.5 25s-24 13.167 -39 18.5l-49.5 17c-22 6.66699 -43.167 15 -63.5 25s-38.166 23.667 -53.499 41s-27.666 39.333 -36.999 66s-14 60 -14 100c0 53.333 14.5 97.333 43.5 132s69.833 58 122.5 70v133h133v-127c41.333 -4 82.666 -12.333 123.999 -25l-2 -132
c-13.333 4 -27.333 7.5 -42 10.5s-29.167 5.66699 -43.5 8s-28 4.16602 -41 5.49902s-24.5 2 -34.5 2c-64 0 -96 -25.667 -96 -77c0 -15.333 3.5 -28.333 10.5 -39s16.833 -19.834 29.5 -27.501s27.167 -14.834 43.5 -21.501l53.5 -21c21.333 -8 41.333 -17.5 60 -28.5
s35 -24.833 49 -41.5s25 -36.667 33 -60s12 -51.333 12 -84c0 -56 -13.667 -102.5 -41 -139.5s-65.333 -62.5 -114 -76.5v-134h-132v124z" />
    <glyph glyph-name="percent" unicode="%" horiz-adv-x="938" 
d="M207 275c-60 0 -105.333 20.168 -136 60.501s-46 99.166 -46 176.499s15.5 136.166 46.5 176.499s76.167 60.5 135.5 60.5c60 0 105.333 -20.167 136 -60.5s46 -99.166 46 -176.499c0 -78 -15.333 -137 -46 -177s-76 -60 -136 -60zM207 379.001
c22.667 0 38.667 10.167 48 30.5s14 54.5 14 102.5s-4.83301 82.333 -14.5 103s-25.5 31 -47.5 31s-38 -10.333 -48 -31s-15 -55 -15 -103s5 -82.167 15 -102.5s26 -30.5 48 -30.5zM732 -10.999c-59.333 0 -104.5 20.168 -135.5 60.501s-46.5 99.166 -46.5 176.499
s15.5 136.166 46.5 176.499s76.167 60.5 135.5 60.5c60 0 105.333 -20.167 136 -60.5s46 -99.166 46 -176.499c0 -78 -15.333 -137 -46 -177s-76 -60 -136 -60zM732 93.002c22.667 0 38.667 10.167 48 30.5s14 54.5 14 102.5c0 48.667 -4.66699 83.167 -14 103.5
s-25.333 30.5 -48 30.5c-22 0 -38 -10.333 -48 -31s-15 -55 -15 -103s5 -82.167 15 -102.5s26 -30.5 48 -30.5zM535 740.002h128l-260 -740h-128z" />
    <glyph glyph-name="ampersand" unicode="&#x26;" horiz-adv-x="657" 
d="M293 -10c-40 0 -75.999 5.00098 -107.999 15.001s-59.333 24.333 -82 43s-40.167 41.167 -52.5 67.5s-18.5 56.166 -18.5 89.499c0 46.667 11.5 86.5 34.5 119.5s54.833 55.833 95.5 68.5c-26 30 -44.667 58.5 -56 85.5s-17 55.5 -17 85.5c0 60.667 20.167 107 60.5 139
s97.833 48 172.5 48c28.667 0 57 -2.33301 85 -7s57.667 -12.667 89 -24v-4l-16 -124h-4c-23.333 9.33301 -47.5 16.5 -72.5 21.5s-47.833 7.5 -68.5 7.5c-60 0 -90 -26.667 -90 -80c0 -28 12.667 -56.667 38 -86s65.666 -62 120.999 -98l49 -33v89l138 9v-79
c0 -37.333 -3 -72 -9 -104l79 -52v-4l-59 -136h-4l-73 53c-25.333 -36 -57.5 -63.333 -96.5 -82s-84.167 -28 -135.5 -28zM349.001 231.001l-55.5 42c-17 13.333 -32.833 26.333 -47.5 39c-36.667 -16 -55 -48 -55 -96c0 -30 10.333 -54.167 31 -72.5s47.667 -27.5 81 -27.5
c54.667 0 93.667 20.667 117 62z" />
    <glyph glyph-name="quotesingle" unicode="'" horiz-adv-x="196" 
d="M170 808v-4l-41 -324h-85v328h126z" />
    <glyph glyph-name="parenleft" unicode="(" horiz-adv-x="318" 
d="M178 -160c-50.667 74.667 -88.834 156 -114.501 244s-38.5 178 -38.5 270s12.833 182 38.5 270s63.834 169.333 114.501 244h140v-4c-51.333 -74.667 -91.5 -155.5 -120.5 -242.5s-43.5 -176.167 -43.5 -267.5s14.5 -180.5 43.5 -267.5s69.167 -167.833 120.5 -242.5v-4
h-140v0z" />
    <glyph glyph-name="parenright" unicode=")" horiz-adv-x="318" 
d="M1 -160v4c50.667 74.667 90.5 155.5 119.5 242.5s43.5 176.167 43.5 267.5s-14.5 180.5 -43.5 267.5s-68.833 167.833 -119.5 242.5v4h139c51.333 -74.667 89.666 -156 114.999 -244s38 -178 38 -270s-12.667 -182 -38 -270s-63.666 -169.333 -114.999 -244h-139z" />
    <glyph glyph-name="asterisk" unicode="*" horiz-adv-x="488" 
d="M76 480l44 61l83 69l-108 7l-70 24l31 96l71 -23l94 -59l-27 109v74h102v-74l-28 -108l93 58l71 23l31 -96l-70 -24l-109 -7l84 -69l44 -61l-82 -60l-45 60l-41 105l-41 -105l-44 -60z" />
    <glyph glyph-name="plus" unicode="+" horiz-adv-x="508" 
d="M28 427h169v159h115v-159h169v-114h-169v-159h-115v159h-169v114z" />
    <glyph glyph-name="comma" unicode="," horiz-adv-x="249" 
d="M12 -145l43 306h161l-85 -316z" />
    <glyph glyph-name="hyphen" unicode="-" horiz-adv-x="396" 
d="M44 339h308v-118h-308v118z" />
    <glyph glyph-name="period" unicode="." horiz-adv-x="242" 
d="M121 -7c-31.333 0 -54 6.66699 -68 20s-21 35.333 -21 66s6.83301 52.667 20.5 66s36.5 20 68.5 20c30.667 0 53.167 -6.66699 67.5 -20s21.5 -35.333 21.5 -66c0 -30 -7 -51.833 -21 -65.5s-36.667 -20.5 -68 -20.5z" />
    <glyph glyph-name="slash" unicode="/" horiz-adv-x="339" 
d="M181 740h138l-160 -860h-138z" />
    <glyph glyph-name="zero" unicode="0" horiz-adv-x="603" 
d="M301 -10c-87.333 0 -153.833 32.167 -199.5 96.5s-68.5 158.5 -68.5 282.5c0 124.667 22.833 219.334 68.5 284.001s112.167 97 199.5 97c88 0 154.667 -32.333 200 -97s68 -159.334 68 -284.001c0 -124 -22.667 -218.167 -68 -282.5s-112 -96.5 -200 -96.5zM301 125
c38 0 64.833 18.666 80.5 55.999s23.5 100 23.5 188c0 44 -1.83301 81.667 -5.5 113s-9.66699 56.833 -18 76.5s-19.166 34 -32.499 43s-29.333 13.5 -48 13.5c-37.333 0 -64 -19.167 -80 -57.5s-24 -101.166 -24 -188.499c0 -43.333 1.83301 -80.5 5.5 -111.5
s9.66699 -56.333 18 -76s19.166 -34 32.499 -43s29.333 -13.5 48 -13.5z" />
    <glyph glyph-name="one" unicode="1" horiz-adv-x="402" 
d="M170 563h-4l-116 -51h-21l-25 74l4 22l203 132h123v-740h-164v563z" />
    <glyph glyph-name="two" unicode="2" horiz-adv-x="503" 
d="M30 129c0 29.333 3.00195 55.8359 9.00195 79.5029s15.667 45.667 29 66s30.666 39.666 51.999 57.999s47.666 36.833 78.999 55.5c39.333 23.333 66.833 45.333 82.5 66s23.5 45 23.5 73c0 31.333 -9 53.833 -27 67.5s-47.333 20.5 -88 20.5
c-19.333 0 -40.5 -1.83301 -63.5 -5.5s-45.833 -8.83398 -68.5 -15.501l-13 129c36 9.33301 70.833 16.166 104.5 20.499s64.5 6.5 92.5 6.5c151.333 0 227 -67.333 227 -202c0 -50.667 -12.167 -95.334 -36.5 -134.001s-63.833 -75.667 -118.5 -111
c-26 -17.333 -47.167 -32.166 -63.5 -44.499s-28.833 -23.333 -37.5 -33s-14.5 -19 -17.5 -28s-4.5 -18.833 -4.5 -29.5v-31h273v-137h-434v129z" />
    <glyph glyph-name="three" unicode="3" horiz-adv-x="473" 
d="M172 -9c-43.333 0 -88.665 4.33301 -135.998 13v123h4c13.333 -5.33301 29.166 -9.33301 47.499 -12s37.5 -4 57.5 -4c48 0 82.167 8.16699 102.5 24.5s30.5 42.5 30.5 78.5c0 38 -10.167 65.167 -30.5 81.5s-56.833 24.5 -109.5 24.5h-32v114h31
c23.333 0 42.666 1.66699 57.999 5s27.666 8.66602 36.999 15.999s16 17.333 20 30s6 28.334 6 47.001c0 34 -7.83301 58.333 -23.5 73s-41.5 22 -77.5 22c-15.333 0 -32.166 -1.16699 -50.499 -3.5s-39.833 -5.83301 -64.5 -10.5h-6l-2 122c40.667 10.667 86 16 136 16
c86.667 0 150.334 -15 191.001 -45s61 -76.333 61 -139c0 -100.667 -41.667 -161.667 -125 -183v-4c46 -9.33301 81.667 -29.5 107 -60.5s38 -70.5 38 -118.5c0 -66.667 -23.333 -118 -70 -154s-113.334 -54.667 -200.001 -56z" />
    <glyph glyph-name="four" unicode="4" horiz-adv-x="554" 
d="M8 251v4l235 495h4l158 -10l7 -4l-240 -460v-4h138l36 198h121v-198h71v-120h-71v-152h-164v152h-277z" />
    <glyph glyph-name="five" unicode="5" horiz-adv-x="476" 
d="M177 -11c-19.333 0 -40.002 1.16895 -62.002 3.50195s-48 6.16602 -78 11.499v132h34c34 -8 65 -12 93 -12c83.333 0 125 33.333 125 100c0 20.667 -2.83301 38.167 -8.5 52.5s-15.167 25.666 -28.5 33.999s-31.166 14.333 -53.499 18s-50.5 5.5 -84.5 5.5h-67l-4 4
l26 402h337v-136h-212l-10 -155c94.667 -1.33301 163.334 -19.833 206.001 -55.5s64 -92.167 64 -169.5c0 -74.667 -24.333 -132.5 -73 -173.5s-116.667 -61.5 -204 -61.5z" />
    <glyph glyph-name="six" unicode="6" horiz-adv-x="566" 
d="M292 -10c-83.333 0 -147.329 29.334 -191.996 88.001s-67 144 -67 256c0 137.333 28.167 241 84.5 311s140.166 105 251.499 105c42 0 87.333 -6.33301 136 -19l-18 -127c-23.333 5.33301 -44 9.16602 -62 11.499s-34.667 3.5 -50 3.5
c-56.667 0 -99.5 -15.5 -128.5 -46.5s-46.833 -81.5 -53.5 -151.5c17.333 16 37.666 28.5 60.999 37.5s48.666 13.5 75.999 13.5c32.667 0 62.167 -5.16699 88.5 -15.5s48.833 -25.333 67.5 -45s33 -43.167 43 -70.5s15 -58 15 -92c0 -40 -5.83301 -76 -17.5 -108
s-28.334 -59.167 -50.001 -81.5s-48.167 -39.5 -79.5 -51.5s-66.333 -18 -105 -18zM292.004 354.001c-19.333 0 -38.5 -4.33301 -57.5 -13s-34.167 -20 -45.5 -34c1.33301 -64.667 10.333 -111.167 27 -139.5s42 -42.5 76 -42.5c62 0 93 39.667 93 119
c0 73.333 -31 110 -93 110z" />
    <glyph glyph-name="seven" unicode="7" horiz-adv-x="449" 
d="M211 -19l-135 19v19l202 585h-262l-1 117l22 19h383l20 -93v-27l-200 -618z" />
    <glyph glyph-name="eight" unicode="8" horiz-adv-x="552" 
d="M276 -3c-76.667 0 -136.501 16.333 -179.501 49s-64.5 78 -64.5 136c0 44 8.5 81.333 25.5 112s43.5 56.667 79.5 78c-25.333 17.333 -46.166 39.833 -62.499 67.5s-24.5 65.167 -24.5 112.5c0 30 5.33301 57 16 81s26 44.667 46 62s43.833 30.666 71.5 39.999
s58.5 14 92.5 14s65 -4.66699 93 -14s51.833 -22.666 71.5 -39.999s34.834 -38 45.501 -62s16 -51 16 -81c0 -38 -6 -69.167 -18 -93.5s-34 -46.833 -66 -67.5c29.333 -15.333 53.666 -37 72.999 -65s29 -67 29 -117c0 -66.667 -21.5 -118.667 -64.5 -156
s-102.833 -56 -179.5 -56zM370.999 193c0 18 -3 33.668 -9 47.001s-14.333 25 -25 35s-23.334 18.667 -38.001 26s-30.667 14 -48 20c-21.333 -14.667 -38.166 -31.334 -50.499 -50.001s-18.5 -41 -18.5 -67c0 -33.333 8.16699 -59 24.5 -77s39.5 -27 69.5 -27
s53.333 8 70 24s25 39 25 69zM193.999 542.001c0 -15.333 2.66699 -28.501 8 -39.501s12.833 -20.667 22.5 -29s21 -15.666 34 -21.999s27.5 -12.166 43.5 -17.499c20 14 34.333 30.167 43 48.5s13 41.166 13 68.499c0 60 -27.333 90 -82 90c-26 0 -46.167 -8.5 -60.5 -25.5
s-21.5 -41.5 -21.5 -73.5z" />
    <glyph glyph-name="nine" unicode="9" horiz-adv-x="566" 
d="M274 750c83.333 0 147.328 -29.334 191.995 -88.001s67 -144 67 -256c0 -137.333 -28.167 -241 -84.5 -311s-140.166 -105 -251.499 -105c-42 0 -87.333 6.33301 -136 19l18 127c23.333 -5.33301 44 -9.16602 62 -11.499s34.667 -3.5 50 -3.5
c56.667 0 99.334 15.5 128.001 46.5s46.667 81.5 54 151.5c-17.333 -16 -37.666 -28.5 -60.999 -37.5s-48.666 -13.5 -75.999 -13.5c-32.667 0 -62.167 5.16699 -88.5 15.5s-48.833 25.333 -67.5 45s-33 43.167 -43 70.5s-15 58 -15 92c0 40 5.83301 76 17.5 108
s28.334 59.167 50.001 81.5s48 39.5 79 51.5s66.167 18 105.5 18zM273.995 385.999c19.333 0 38.5 4.33301 57.5 13s34.167 20 45.5 34c-1.33301 64.667 -10.333 111.167 -27 139.5s-42 42.5 -76 42.5c-62 0 -93 -39.667 -93 -119c0 -73.333 31 -110 93 -110z" />
    <glyph glyph-name="colon" unicode=":" horiz-adv-x="259" 
d="M129 -7c-31.333 0 -54 6.66699 -68 20s-21 35.333 -21 66s6.83301 52.667 20.5 66s36.5 20 68.5 20c30.667 0 53.167 -6.66699 67.5 -20s21.5 -35.333 21.5 -66c0 -30 -7 -51.833 -21 -65.5s-36.667 -20.5 -68 -20.5zM129 376c-31.333 0 -54 6.66699 -68 20
s-21 35.333 -21 66s6.83301 52.667 20.5 66s36.5 20 68.5 20c30.667 0 53.167 -6.66699 67.5 -20s21.5 -35.333 21.5 -66c0 -30 -7 -51.833 -21 -65.5s-36.667 -20.5 -68 -20.5z" />
    <glyph glyph-name="semicolon" unicode=";" horiz-adv-x="268" 
d="M18 -145l43 306h161l-85 -316zM139 376c-31.333 0 -54 6.66699 -68 20s-21 35.333 -21 66s6.83301 52.667 20.5 66s36.5 20 68.5 20c30.667 0 53.167 -6.66699 67.5 -20s21.5 -35.333 21.5 -66c0 -30 -7 -51.833 -21 -65.5s-36.667 -20.5 -68 -20.5z" />
    <glyph glyph-name="less" unicode="&#x3c;" horiz-adv-x="537" 
d="M27 308v112l461 199v-126l-300 -130l299 -128v-126z" />
    <glyph glyph-name="equal" unicode="=" horiz-adv-x="523" 
d="M47 298h428v-118h-428v118zM47 519h428v-118h-428v118z" />
    <glyph glyph-name="greater" unicode="&#x3e;" horiz-adv-x="537" 
d="M50 235l299 128l-299 130v126l460 -199v-112l-460 -199v126z" />
    <glyph glyph-name="question" unicode="?" horiz-adv-x="423" 
d="M115 243l-15.001 179c44.667 10 79.334 23.167 104.001 39.5s37 41.166 37 74.499c0 30.667 -8.83301 52.667 -26.5 66s-41.5 20 -71.5 20c-8.66699 0 -18 -0.5 -28 -1.5s-20 -2.16699 -30 -3.5s-19.5 -3.16602 -28.5 -5.49902s-16.833 -4.5 -23.5 -6.5l-7 121
c46.667 14 96.334 21 149.001 21c69.333 0 124.166 -16.333 164.499 -49s60.5 -82 60.5 -148c0 -56.667 -16.333 -101.5 -49 -134.5s-75.667 -54.833 -129 -65.5l-7 -106v-15h-100v14zM166.999 -8c-29.333 0 -51.833 7.5 -67.5 22.5s-23.5 36.5 -23.5 64.5
s7.83301 49.333 23.5 64s38.167 22 67.5 22c28.667 0 51 -7.33301 67 -22s24 -36 24 -64s-8 -49.5 -24 -64.5s-38.333 -22.5 -67 -22.5z" />
    <glyph glyph-name="at" unicode="@" horiz-adv-x="810" 
d="M397 -138c-45.333 0 -90.0029 6.66699 -134.003 20s-83.167 35.5 -117.5 66.5s-62.166 72.167 -83.499 123.5s-32 114.666 -32 189.999c0 68 9.66699 128 29 180s46.333 95.333 81 130s75.834 60.834 123.501 78.501s100.167 26.5 157.5 26.5
c63.333 0 117.333 -8.83301 162 -26.5s81 -42.5 109 -74.5s48.5 -70.833 61.5 -116.5s19.5 -96.5 19.5 -152.5c0 -39.333 -3.83301 -74.833 -11.5 -106.5s-19 -59 -34 -82s-33.833 -40.667 -56.5 -53s-49 -18.5 -79 -18.5c-12 0 -23.667 1 -35 3s-21.5 6.16699 -30.5 12.5
s-16.667 15 -23 26s-10.833 25.5 -13.5 43.5h-4c-18 -30 -39.5 -50.667 -64.5 -62s-50.167 -17 -75.5 -17c-24.667 0 -45.834 4.83301 -63.501 14.5s-32.334 22.667 -44.001 39s-20.167 35.166 -25.5 56.499s-8 44 -8 68c0 38 5.33301 73 16 105s26.167 59.667 46.5 83
s45 41.5 74 54.5s61.5 19.5 97.5 19.5c40.667 0 94.334 -13.667 161.001 -41l-35 -205l-6 -33.5c-2 -11 -3 -22.167 -3 -33.5c0 -14 2.83301 -26 8.5 -36s16.5 -15 32.5 -15c24.667 0 43.334 16.167 56.001 48.5s19 75.5 19 129.5c0 42 -4.5 80.167 -13.5 114.5
s-23.5 63.5 -43.5 87.5s-45.833 42.667 -77.5 56s-70.5 20 -116.5 20c-42.667 0 -81.834 -6.83301 -117.501 -20.5s-66.167 -34 -91.5 -61s-45.166 -60.667 -59.499 -101s-21.5 -87.166 -21.5 -140.499c0 -59.333 7.83301 -109 23.5 -149s36 -72.333 61 -97
s53.333 -42.167 85 -52.5s63.834 -15.5 96.501 -15.5c27.333 0 57.666 4 90.999 12s67 17.667 101 29l31 -81c-37.333 -13.333 -75.166 -24.333 -113.499 -33s-74.833 -13 -109.5 -13zM365.997 139c8.66699 0 18.3311 1.83594 28.998 5.50293s20.834 10.167 30.501 19.5
s18.5 22 26.5 38s14 36 18 60l23 137c-10 3.33301 -19.5 5.66602 -28.5 6.99902s-17.5 2 -25.5 2c-21.333 0 -40.333 -4.33301 -57 -13s-30.667 -20.834 -42 -36.501s-20.166 -34.334 -26.499 -56.001s-9.5 -45.5 -9.5 -71.5c0 -11.333 1 -22.5 3 -33.5
s5.33301 -20.833 10 -29.5s11 -15.667 19 -21s18 -8 30 -8z" />
    <glyph glyph-name="A" unicode="A" horiz-adv-x="620" 
d="M-1 7l187 733h248l187 -733v-7h-154l-46 177h-223l-45 -177h-154v7zM390 308l-49 200l-26 109h-11l-25 -109l-50 -200h161z" />
    <glyph glyph-name="B" unicode="B" horiz-adv-x="592" 
d="M250 -10c-31.333 0 -64.168 1.16992 -98.501 3.50293s-66.166 6.16602 -95.499 11.499v730c43.333 5.33301 81 9.16602 113 11.499s62 3.5 90 3.5c100 0 173 -16.833 219 -50.5s69 -86.834 69 -159.501c0 -86 -36 -138.667 -108 -158v-4c41.333 -8 72.833 -27 94.5 -57
s32.5 -69.667 32.5 -119c0 -141.333 -105.333 -212 -316 -212zM276.998 115.003c40 0 70.1689 8.16797 90.502 24.501s30.5 40.166 30.5 71.499c0 36.667 -9.5 62.5 -28.5 77.5s-51.833 22.5 -98.5 22.5h-65v-190c7.33301 -2 17.166 -3.5 29.499 -4.5
s26.166 -1.5 41.499 -1.5zM270 431.004c40.667 0 68.833 7.16797 84.5 21.501s23.5 40.166 23.5 77.499c0 62.667 -33.667 94 -101 94c-11.333 0 -22.5 -0.5 -33.5 -1.5s-23.5 -2.5 -37.5 -4.5v-187h64z" />
    <glyph glyph-name="C" unicode="C" horiz-adv-x="503" 
d="M335 -9c-101.333 0 -177.502 30.666 -228.502 91.999s-76.5 157 -76.5 287c0 130.667 25.667 226.5 77 287.5s126.666 91.5 225.999 91.5c46.667 0 94.667 -5.33301 144 -16v-130c-20 3.33301 -40.5 6 -61.5 8s-40.167 3 -57.5 3c-29.333 0 -54.166 -3.5 -74.499 -10.5
s-36.666 -19.667 -48.999 -38s-21.333 -43.333 -27 -75s-8.5 -72.167 -8.5 -121.5c0 -48.667 2.83301 -88.667 8.5 -120s14.834 -56.166 27.501 -74.499s29 -31 49 -38s44.333 -10.5 73 -10.5c20.667 0 41 1 61 3s39.667 5.33301 59 10v-127c-14 -6 -34.167 -11 -60.5 -15
s-53.5 -6 -81.5 -6z" />
    <glyph glyph-name="D" unicode="D" horiz-adv-x="636" 
d="M233 -13c-23.333 0 -48.835 0.832031 -76.502 2.49902s-61.167 4.5 -100.5 8.5v740c42.667 4 78.334 6.83301 107.001 8.5s55.334 2.5 80.001 2.5c66 0 122 -6.83301 168 -20.5s83.5 -35.667 112.5 -66s50 -69.666 63 -117.999s19.5 -106.833 19.5 -175.5
c0 -69.333 -6.66699 -128.166 -20 -176.499s-34.833 -87.833 -64.5 -118.5s-68.167 -52.834 -115.5 -66.501s-105 -20.5 -173 -20.5zM288.998 119.999c28 0 51.4971 3.83301 70.4971 11.5s34.333 21 46 40s19.834 44.5 24.501 76.5s7 72.667 7 122c0 48 -2.5 88 -7.5 120
s-13.833 57.5 -26.5 76.5s-29.5 32.333 -50.5 40s-47.5 11.5 -79.5 11.5c-13.333 0 -24.166 -0.333008 -32.499 -1s-16.166 -2 -23.499 -4v-488c17.333 -2 31.333 -3.33301 42 -4s20.667 -1 30 -1z" />
    <glyph glyph-name="E" unicode="E" horiz-adv-x="543" 
d="M56 740h449v-137h-285v-163h254v-138h-254v-165h294v-137h-458v740z" />
    <glyph glyph-name="F" unicode="F" horiz-adv-x="516" 
d="M56 740h437v-137h-273v-179h245v-138h-245v-286h-164v740z" />
    <glyph glyph-name="G" unicode="G" horiz-adv-x="586" 
d="M334 -9c-103.333 0 -179.83 31.168 -229.497 93.501s-74.5 157.5 -74.5 285.5c0 252.667 114.333 379 343 379c49.333 0 103.666 -7 162.999 -21v-131c-32 6 -59.667 10.5 -83 13.5s-44.666 4.5 -63.999 4.5c-36 0 -66.167 -4.16699 -90.5 -12.5s-44 -22 -59 -41
s-25.667 -44.333 -32 -76s-9.5 -70.5 -9.5 -116.5c0 -46.667 2.66699 -85.667 8 -117s14.166 -56.333 26.499 -75s28.666 -31.834 48.999 -39.501s45.5 -11.5 75.5 -11.5h21c6.66699 0 13.667 0.333008 21 1v249h147v-368c-47.333 -6.66699 -87.333 -11.167 -120 -13.5
s-63.334 -3.5 -92.001 -3.5z" />
    <glyph glyph-name="H" unicode="H" horiz-adv-x="673" 
d="M56 740h164v-293h233v293h164v-740h-164v309h-233v-309h-164v740z" />
    <glyph glyph-name="I" unicode="I" horiz-adv-x="276" 
d="M56 740h164v-740h-164v740z" />
    <glyph glyph-name="J" unicode="J" horiz-adv-x="277" 
d="M-18 -160c14.667 34 26.832 64.999 36.499 92.999s17.5 55.5 23.5 82.5s10.167 54.833 12.5 83.5s3.5 60.334 3.5 95.001v546h165v-560c0 -34 -2.5 -66.5 -7.5 -97.5s-13 -61.833 -24 -92.5s-25.167 -62 -42.5 -94s-38.666 -66.333 -63.999 -103z" />
    <glyph glyph-name="K" unicode="K" horiz-adv-x="621" 
d="M56 740h164v-294h73l133 294h182l-160 -333l-55 -27v-6l56 -27l179 -347h-182l-159 309h-67v-309h-164v740z" />
    <glyph glyph-name="L" unicode="L" horiz-adv-x="462" 
d="M56 740h164v-603h230v-137h-394v740z" />
    <glyph glyph-name="M" unicode="M" horiz-adv-x="873" 
d="M56 740h235l118 -371l24 -123h7l23 123l120 371h234v-740h-153v538h-6l-33 -125l-121 -375h-138l-120 375l-34 125h-6v-538h-150v740z" />
    <glyph glyph-name="N" unicode="N" horiz-adv-x="680" 
d="M56 740h137l238 -374l39 -79h9v453h145v-740h-137l-240 377l-37 78h-10v-455h-144v740z" />
    <glyph glyph-name="O" unicode="O" horiz-adv-x="668" 
d="M333 -10c-102 0 -178 31.167 -228 93.5s-75 157.5 -75 285.5c0 128.667 25 224.334 75 287.001s126 94 228 94c103.333 0 180 -31.333 230 -94s75 -158.334 75 -287.001c0 -129.333 -24.833 -224.833 -74.5 -286.5s-126.5 -92.5 -230.5 -92.5zM333 125
c25.333 0 46.6689 4.16797 64.002 12.501s31.5 22.166 42.5 41.499s18.833 44.5 23.5 75.5s7 69.167 7 114.5c0 46 -2.33301 84.667 -7 116s-12.334 56.666 -23.001 75.999s-24.834 33.166 -42.501 41.499s-39.167 12.5 -64.5 12.5c-24.667 0 -45.667 -4.33301 -63 -13
s-31.333 -22.667 -42 -42s-18.334 -44.666 -23.001 -75.999s-7 -69.666 -7 -114.999c0 -44.667 2.33301 -82.5 7 -113.5s12.334 -56.167 23.001 -75.5s24.667 -33.333 42 -42s38.333 -13 63 -13z" />
    <glyph glyph-name="P" unicode="P" horiz-adv-x="589" 
d="M56 735c30.667 5.33301 61.832 9.16797 93.499 11.501s63.167 3.5 94.5 3.5c114.667 0 197.834 -20.833 249.501 -62.5s77.5 -108.834 77.5 -201.501c0 -45.333 -6.16699 -84.5 -18.5 -117.5s-31.333 -60 -57 -81s-58.5 -36.5 -98.5 -46.5s-88 -15 -144 -15h-33v-226
h-164v735zM272.998 357.002c24 0 44.333 2.16602 61 6.49902s30.167 11.5 40.5 21.5s17.666 23.333 21.999 40s6.5 37 6.5 61s-2.16699 44.333 -6.5 61s-11.666 30 -21.999 40s-24 17.333 -41 22s-38.167 7 -63.5 7c-8 0 -17 -0.333008 -27 -1s-17.667 -1.66699 -23 -3v-252
c7.33301 -1.33301 16 -2.16602 26 -2.49902s19 -0.5 27 -0.5z" />
    <glyph glyph-name="Q" unicode="Q" horiz-adv-x="665" 
d="M558 -138c-100 26 -183.667 53.332 -251 81.999s-121.666 62.334 -162.999 101.001s-70.833 84.167 -88.5 136.5s-26.5 114.833 -26.5 187.5c0 128.667 24.667 224.334 74 287.001s125.666 94 228.999 94s179.833 -31.333 229.5 -94s74.5 -158.334 74.5 -287.001
c0 -91.333 -18.667 -163.833 -56 -217.5s-95 -90.5 -173 -110.5v-13c17.333 -6 34.5 -11.167 51.5 -15.5s35.333 -8 55 -11s41.167 -5.5 64.5 -7.5s50 -3.66699 80 -5zM332 120.999c26 0 48 4.16699 66 12.5s32.5 22.166 43.5 41.499s18.833 44.833 23.5 76.5
s7 70.834 7 117.501c0 47.333 -2.33301 87 -7 119s-12.5 57.667 -23.5 77s-25.5 33.166 -43.5 41.499s-40 12.5 -66 12.5s-48 -4.16699 -66 -12.5s-32.333 -22.166 -43 -41.499s-18.334 -45 -23.001 -77s-7 -71.667 -7 -119c0 -46.667 2.33301 -85.834 7 -117.501
s12.334 -57.167 23.001 -76.5s25 -33.166 43 -41.499s40 -12.5 66 -12.5z" />
    <glyph glyph-name="R" unicode="R" horiz-adv-x="600" 
d="M306 253c-6 -0.666992 -12.001 -1 -18.001 -1h-18h-9.5h-15.5c-5.33301 0 -10.5 0.166992 -15.5 0.5s-8.16699 0.5 -9.5 0.5v-253h-164v735c28 5.33301 57.833 9.16602 89.5 11.499s64.5 3.5 98.5 3.5c114.667 0 197.834 -20 249.501 -60s77.5 -104.333 77.5 -193
c0 -107.333 -40.333 -178.666 -121 -213.999l142 -283h-170zM272.999 379c24 0 44.334 1.99902 61.001 5.99902s30.167 10.667 40.5 20s17.666 21.5 21.999 36.5s6.5 33.5 6.5 55.5c0 22.667 -2.16699 41.5 -6.5 56.5s-11.833 27.167 -22.5 36.5s-24.5 16 -41.5 20
s-37.833 6 -62.5 6c-5.33301 0 -13.166 -0.333008 -23.499 -1s-19.166 -1.66699 -26.499 -3v-230c7.33301 -1.33301 16.166 -2.16602 26.499 -2.49902s19.166 -0.5 26.499 -0.5z" />
    <glyph glyph-name="S" unicode="S" horiz-adv-x="510" 
d="M246 -12c-34 0 -69.0029 3.00195 -105.003 9.00195s-73.333 15.667 -112 29l2 138c11.333 -5.33301 24.833 -10.5 40.5 -15.5s31.834 -9.33301 48.501 -13s33.334 -6.5 50.001 -8.5s32 -3 46 -3c73.333 0 110 28.667 110 86c0 14.667 -3 26.834 -9 36.501
s-14.5 18 -25.5 25s-24 13.167 -39 18.5l-49.5 17c-22 6.66699 -43.167 15 -63.5 25s-38.166 23.667 -53.499 41s-27.666 39.333 -36.999 66s-14 60 -14 100c0 66 21.667 117.5 65 154.5s103.666 55.5 180.999 55.5c28.667 0 57.5 -2.16699 86.5 -6.5
s59.167 -11.166 90.5 -20.499l-2 -132c-13.333 4 -27.333 7.5 -42 10.5s-29.167 5.66699 -43.5 8s-28 4.16602 -41 5.49902s-24.5 2 -34.5 2c-64 0 -96 -25.667 -96 -77c0 -15.333 3.5 -28.333 10.5 -39s16.833 -19.834 29.5 -27.501s27.167 -14.834 43.5 -21.501l53.5 -21
c21.333 -8 41.333 -17.5 60 -28.5s35 -24.833 49 -41.5s25 -36.667 33 -60s12 -51.333 12 -84c0 -35.333 -5.66699 -67 -17 -95s-27.5 -51.833 -48.5 -71.5s-46.5 -34.834 -76.5 -45.501s-64 -16 -102 -16z" />
    <glyph glyph-name="T" unicode="T" horiz-adv-x="535" 
d="M185 599h-169v141h503v-141h-170v-599h-164v599z" />
    <glyph glyph-name="U" unicode="U" horiz-adv-x="663" 
d="M331 -10c-51.333 0 -94.833 6 -130.5 18s-64.5 30.167 -86.5 54.5s-38 55 -48 92s-15 80.167 -15 129.5v455h164v-445c0 -60 8.83301 -102.667 26.5 -128s47.5 -38 89.5 -38c21.333 0 39.5 3 54.5 9s27.167 15.5 36.5 28.5s16 30 20 51s6 46.833 6 77.5v445h164v-455
c0 -50 -5 -93.333 -15 -130s-26 -67.167 -48 -91.5s-50.833 -42.5 -86.5 -54.5s-79.5 -18 -131.5 -18z" />
    <glyph glyph-name="V" unicode="V" horiz-adv-x="618" 
d="M-3 740h161l117 -443l28 -154h14l29 154l116 443h157l-196 -740h-226z" />
    <glyph glyph-name="W" unicode="W" horiz-adv-x="933" 
d="M4 740h180l74 -446l11 -94h11l14 94l96 446h160l93 -446l14 -94h11l11 94l76 446h176l-169 -740h-192l-86 379l-11 128h-11l-12 -128l-88 -379h-192z" />
    <glyph glyph-name="X" unicode="X" horiz-adv-x="626" 
d="M208 381l-199 359h184l121 -233l4 -16h3l4 16l118 233h174l-201 -349l222 -391h-180l-146 261l-4 16h-4l-4 -16l-137 -261h-175z" />
    <glyph glyph-name="Y" unicode="Y" horiz-adv-x="644" 
d="M240 252l-250 488h186l128 -284l14 -51h9l15 51l129 284h182l-249 -487v-253h-164v252z" />
    <glyph glyph-name="Z" unicode="Z" horiz-adv-x="540" 
d="M24 149l296 443v10h-281v138h462v-150l-296 -443v-9h311v-138h-492v149z" />
    <glyph glyph-name="bracketleft" unicode="[" horiz-adv-x="338" 
d="M62 868h257v-104h-134v-820h134v-104h-257v1028z" />
    <glyph glyph-name="backslash" unicode="\" horiz-adv-x="338" 
d="M21 740h136l160 -860h-136z" />
    <glyph glyph-name="bracketright" unicode="]" horiz-adv-x="338" 
d="M18 -160v104h134v820h-134v104h258v-1028h-258z" />
    <glyph glyph-name="asciicircum" unicode="^" horiz-adv-x="421" 
d="M139 789h142l113 -308h-113l-69 210h-4l-69 -210h-113z" />
    <glyph glyph-name="underscore" unicode="_" horiz-adv-x="535" 
d="M33 -60h468v-117h-468v117z" />
    <glyph glyph-name="grave" unicode="`" horiz-adv-x="271" 
d="M126 610l-117 196h165l66 -186z" />
    <glyph glyph-name="a" unicode="a" horiz-adv-x="507" 
d="M167 -5c-22 0 -42.1699 3.83398 -60.5029 11.501s-34 18.5 -47 32.5s-23.167 30.833 -30.5 50.5s-11 41.5 -11 65.5c0 104.667 64.667 161 194 169l91 6v4c0 20 -1.16699 36.167 -3.5 48.5s-6.66602 22 -12.999 29s-15.166 11.667 -26.499 14s-26 3.5 -44 3.5
c-7.33301 0 -17.333 -0.333008 -30 -1s-26.167 -1.66699 -40.5 -3s-28.166 -2.83301 -41.499 -4.5s-24.333 -3.5 -33 -5.5l-10 115c30 5.33301 60.5 9.66602 91.5 12.999s60.833 5 89.5 5c77.333 0 133.333 -13.5 168 -40.5s52 -70.833 52 -131.5v-376h-132l-12 65h-8
c-16.667 -20.667 -37.5 -37.5 -62.5 -50.5s-51.833 -19.5 -80.5 -19.5zM226.997 111.001c11.333 0 24 3.5 38 10.5s26.667 14.167 38 21.5v92l-56 -6c-25.333 -2.66699 -43.333 -8.5 -54 -17.5s-16 -22.833 -16 -41.5s4.33301 -33.167 13 -43.5s21 -15.5 37 -15.5z" />
    <glyph glyph-name="b" unicode="b" horiz-adv-x="539" 
d="M254 -9c-30.667 0 -63.501 3.33203 -98.501 9.99902s-71.5 16.667 -109.5 30v777h160v-322c32 42 76.667 63 134 63c114.667 0 172 -86.667 172 -260c0 -44.667 -4.66699 -85 -14 -121s-24.166 -67 -44.499 -93s-47 -46.167 -80 -60.5s-72.833 -22.166 -119.5 -23.499z
M258.999 96.999c16.667 0 30.8311 2.66504 42.498 7.99805s20.834 14.5 27.501 27.5s11.5 30.5 14.5 52.5s4.5 50 4.5 84c0 32.667 -1.16699 59.834 -3.5 81.501s-6.16602 38.834 -11.499 51.501s-12.333 21.5 -21 26.5s-19.667 7.5 -33 7.5
c-12.667 0 -23.5 -2.83301 -32.5 -8.5s-16.5 -15.167 -22.5 -28.5s-10.5 -31.5 -13.5 -54.5s-4.5 -51.833 -4.5 -86.5v-150c6.66699 -3.33301 14.667 -6 24 -8s19 -3 29 -3z" />
    <glyph glyph-name="c" unicode="c" horiz-adv-x="421" 
d="M290 -9c-87.333 0 -153.003 22.3311 -197.003 66.998s-66 115.334 -66 212.001s21.833 167.334 65.5 212.001s109.5 67 197.5 67c18 0 35.833 -1.33301 53.5 -4s33.834 -6.66699 48.501 -12v-124c-33.333 7.33301 -61.666 11 -84.999 11c-42 0 -71.833 -11.5 -89.5 -34.5
s-26.5 -61.167 -26.5 -114.5c0 -54 8.83301 -92.833 26.5 -116.5s47.167 -35.5 88.5 -35.5c14.667 0 28.834 0.833008 42.501 2.5s28.167 4.5 43.5 8.5v-123c-13.333 -5.33301 -29 -9.33301 -47 -12s-36.333 -4 -55 -4z" />
    <glyph glyph-name="d" unicode="d" horiz-adv-x="540" 
d="M201 -9c-115.333 0 -173 87.333 -173 262c0 197.333 85.333 296 256 296c6.66699 0 13.5 -0.333008 20.5 -1s16.833 -1.66699 29.5 -3v263h159v-808h-146l-10 54h-4c-32 -42 -76 -63 -132 -63zM260 104c12.667 0 23.665 2.83301 32.998 8.5s17 15.167 23 28.5
s10.5 31.5 13.5 54.5s4.5 51.833 4.5 86.5v150c-16.667 7.33301 -35 11 -55 11c-16.667 0 -30.5 -2.66699 -41.5 -8s-20 -14.5 -27 -27.5s-12 -30.5 -15 -52.5s-4.5 -49.667 -4.5 -83c0 -32.667 1.16699 -59.667 3.5 -81s6.33301 -38.5 12 -51.5
s12.834 -22.167 21.501 -27.5s19.334 -8 32.001 -8z" />
    <glyph glyph-name="e" unicode="e" horiz-adv-x="497" 
d="M270 -9c-80.667 0 -141.33 22.998 -181.997 68.998s-61 114 -61 204c0 94.667 20.167 165.834 60.5 213.501s100.833 71.5 181.5 71.5c69.333 0 120.166 -20.667 152.499 -62s48.5 -106 48.5 -194c0 -19.333 -0.333008 -34.166 -1 -44.499s-2 -21.166 -4 -32.499h-277
c1.33301 -20.667 4 -37.834 8 -51.501s9.5 -24.5 16.5 -32.5s16 -13.5 27 -16.5s24.167 -4.5 39.5 -4.5c19.333 0 43.666 2.5 72.999 7.5s61 11.833 95 20.5l5 -117c-24.667 -9.33301 -53.834 -16.833 -87.501 -22.5s-65.167 -8.5 -94.5 -8.5zM265.004 429.998
c-24.667 0 -42.833 -8.66699 -54.5 -26s-19.167 -47 -22.5 -89h141c-1.33301 42 -6.83301 71.667 -16.5 89s-25.5 26 -47.5 26z" />
    <glyph glyph-name="f" unicode="f" horiz-adv-x="361" 
d="M85 406h-73.001v134h74v27c0 45.333 4.66699 83.333 14 114s24.833 55.667 46.5 75s50.334 33.5 86.001 42.5s80.167 14.5 133.5 16.5l10 -120c-26 -2 -47.5 -5.16699 -64.5 -9.5s-30.333 -10.833 -40 -19.5s-16.5 -20 -20.5 -34s-6 -31.333 -6 -52v-40h108v-134h-108
v-406h-160v406z" />
    <glyph glyph-name="g" unicode="g" horiz-adv-x="540" 
d="M228 -220c-50.667 0 -105 7.66699 -163 23l11 117c55.333 -12.667 101.333 -19 138 -19c45.333 0 77.333 11 96 33s28 59 28 111v28h-4c-32 -39.333 -74.667 -59 -128 -59c-118 0 -177 79.667 -177 239c0 97.333 21.333 171 64 221s106.334 75 191.001 75
c31.333 0 63.666 -2.5 96.999 -7.5s71 -13.167 113 -24.5v-442c0 -196.667 -88.667 -295 -266 -295zM261 120c12.667 0 23.501 2.66406 32.501 7.99707s16.5 14.333 22.5 27s10.5 29.334 13.5 50.001s4.5 46.334 4.5 77.001v150c-16 7.33301 -34 11 -54 11
c-16.667 0 -30.667 -2.66699 -42 -8s-20.333 -14.5 -27 -27.5s-11.5 -30.5 -14.5 -52.5s-4.5 -49.667 -4.5 -83c0 -29.333 1.16699 -53.666 3.5 -72.999s6.16602 -34.833 11.499 -46.5s12.333 -20 21 -25s19.667 -7.5 33 -7.5z" />
    <glyph glyph-name="h" unicode="h" horiz-adv-x="536" 
d="M47 808l160.001 -0.000976562v-319c18.667 12 35.334 22 50.001 30s28.167 14.167 40.5 18.5s24.166 7.5 35.499 9.5s23.333 3 36 3c38 0 67.833 -12.667 89.5 -38s32.5 -60.666 32.5 -105.999v-406h-159v349c0 41.333 -15 62 -45 62
c-20.667 0 -47.334 -9.66699 -80.001 -29v-382h-160v808z" />
    <glyph glyph-name="i" unicode="i" horiz-adv-x="255" 
d="M127 615c-30.667 0 -53 6.66699 -67 20s-21 35.333 -21 66c0 30 6.83301 51.833 20.5 65.5s36.167 20.5 67.5 20.5s54 -6.83301 68 -20.5s21 -35.5 21 -65.5s-6.83301 -51.833 -20.5 -65.5s-36.5 -20.5 -68.5 -20.5zM48 540h159v-540h-159v540z" />
    <glyph glyph-name="j" unicode="j" horiz-adv-x="255" 
d="M128 615c-30.667 0 -53 6.66699 -67 20s-21 35.333 -21 66c0 30 6.83301 51.833 20.5 65.5s36.167 20.5 67.5 20.5s54 -6.83301 68 -20.5s21 -35.5 21 -65.5s-6.83301 -51.833 -20.5 -65.5s-36.5 -20.5 -68.5 -20.5zM5 -187c6.66699 18.667 12.667 39.833 18 63.5
s9.83301 48.334 13.5 74.001s6.5 52.167 8.5 79.5s3 54.666 3 81.999v428h160v-466c0 -22 -2.33301 -46 -7 -72s-11.167 -52.167 -19.5 -78.5s-18.333 -51.833 -30 -76.5s-24.167 -47 -37.5 -67z" />
    <glyph glyph-name="k" unicode="k" horiz-adv-x="524" 
d="M47 808h160v-471h36l104 203h172l-148 -250l-24 -10v-3l25 -10l165 -267h-174l-120 220h-36v-220h-160v808z" />
    <glyph glyph-name="l" unicode="l" horiz-adv-x="256" 
d="M48 808h160v-808h-160v808z" />
    <glyph glyph-name="m" unicode="m" horiz-adv-x="807" 
d="M47 540l130.999 -0.000976562l9 -58h3c20 13.333 37.667 24.5 53 33.5s29.333 16 42 21s25 8.5 37 10.5s24.667 3 38 3c50.667 0 86.667 -22.667 108 -68h6c18 13.333 34.333 24.333 49 33s28.334 15.667 41.001 21s25 9 37 11s25 3 39 3c38 0 67.833 -12.667 89.5 -38
s32.5 -60.666 32.5 -105.999v-406h-156v349c0 41.333 -16 62 -48 62c-20.667 0 -45.667 -9.33301 -75 -28v-383h-156v349c0 41.333 -16.333 62 -49 62c-20 0 -45 -9.33301 -75 -28v-383h-156v540z" />
    <glyph glyph-name="n" unicode="n" horiz-adv-x="536" 
d="M47 540l134.999 -0.000976562l9 -58h4l55.5 33.5c15.667 9 30 16 43 21s25.333 8.5 37 10.5s24.5 3 38.5 3c38 0 67.833 -12.667 89.5 -38s32.5 -60.666 32.5 -105.999v-406h-159v349c0 22.667 -4.16699 38.667 -12.5 48s-19.166 14 -32.499 14
c-12 0 -24.833 -2.66699 -38.5 -8s-27.5 -12.333 -41.5 -21v-382h-160v540z" />
    <glyph glyph-name="o" unicode="o" horiz-adv-x="533" 
d="M266 -10c-78.667 0 -138.167 23.667 -178.5 71s-60.5 117 -60.5 209c0 92.667 20.167 162.5 60.5 209.5s99.833 70.5 178.5 70.5s138.167 -23.5 178.5 -70.5s60.5 -116.833 60.5 -209.5s-20.167 -162.5 -60.5 -209.5s-99.833 -70.5 -178.5 -70.5zM266 112
c16 0 29 2.16699 39 6.5s18 12.5 24 24.5s10.167 28.167 12.5 48.5s3.5 46.5 3.5 78.5s-1.16699 58.167 -3.5 78.5s-6.5 36.5 -12.5 48.5s-14 20.167 -24 24.5s-23 6.5 -39 6.5s-29 -2.16699 -39 -6.5s-18 -12.5 -24 -24.5s-10.167 -28.167 -12.5 -48.5
s-3.5 -46.5 -3.5 -78.5s1.16699 -58.167 3.5 -78.5s6.5 -36.5 12.5 -48.5s14 -20.167 24 -24.5s23 -6.5 39 -6.5z" />
    <glyph glyph-name="p" unicode="p" horiz-adv-x="540" 
d="M47 540h145.999l7 -54h4c15.333 20 34.833 35.5 58.5 46.5s49.834 16.5 78.501 16.5c114.667 0 172 -86.667 172 -260c0 -94.667 -20.667 -168 -62 -220s-105.333 -78 -192 -78c-7.33301 0 -15 0.333008 -23 1s-17.667 1.66699 -29 3v-215h-160v760zM259.999 97
c16.667 0 30.8311 2.66504 42.498 7.99805s20.834 14.5 27.501 27.5s11.5 30.5 14.5 52.5s4.5 50 4.5 84c0 32.667 -1.16699 59.834 -3.5 81.501s-6.16602 38.834 -11.499 51.501s-12.333 21.5 -21 26.5s-19.667 7.5 -33 7.5c-12.667 0 -23.5 -2.83301 -32.5 -8.5
s-16.5 -15.167 -22.5 -28.5s-10.5 -31.5 -13.5 -54.5s-4.5 -51.833 -4.5 -86.5v-150c13.333 -7.33301 31 -11 53 -11z" />
    <glyph glyph-name="q" unicode="q" horiz-adv-x="539" 
d="M333 52c-32 -40.667 -76.001 -61 -132.001 -61c-58.667 0 -102.167 21.333 -130.5 64s-42.5 108.334 -42.5 197.001c0 101.333 21.333 176.166 64 224.499s109.667 72.5 201 72.5c58.667 0 125.334 -8.66699 200.001 -26v-743h-160v272zM261.999 103
c12.667 0 23.666 2.99805 32.999 8.99805s16.666 15.833 21.999 29.5s9.33301 31.834 12 54.501s4 51 4 85v152c-13.333 6.66699 -31 10 -53 10c-18.667 0 -34 -2.33301 -46 -7s-21.5 -13.167 -28.5 -25.5s-11.833 -29.166 -14.5 -50.499s-4 -48.333 -4 -81
c0 -34.667 1.16699 -63.334 3.5 -86.001s6.33301 -40.667 12 -54s13.334 -22.666 23.001 -27.999s21.834 -8 36.501 -8z" />
    <glyph glyph-name="r" unicode="r" horiz-adv-x="375" 
d="M47 540l134.998 -0.00195312l9 -79h7c2.66699 4.66699 8.83398 10.834 18.501 18.501s21.167 15.834 34.5 24.501s27.5 17 42.5 25s28.833 14.667 41.5 20h30v-150h-65c-8 -1.33301 -16.667 -3.5 -26 -6.5s-18.333 -6.66699 -27 -11s-16.667 -8.83301 -24 -13.5
s-12.666 -9 -15.999 -13v-355h-160v540z" />
    <glyph glyph-name="s" unicode="s" horiz-adv-x="428" 
d="M193 -10c-52 0 -105.334 9.33398 -160.001 28.001v117c21.333 -8 46.333 -14.667 75 -20s55.667 -8 81 -8c43.333 0 65 15.333 65 46c0 27.333 -20 44.333 -60 51c-16 2 -33.333 5 -52 9s-36 11.667 -52 23s-29.333 27.666 -40 48.999s-16 51 -16 89
c0 56.667 16 100.167 48 130.5s77.667 45.5 137 45.5c23.333 0 48.833 -1.83301 76.5 -5.5s55.167 -8.83398 82.5 -15.501v-117c-31.333 6.66699 -55.833 11.334 -73.5 14.001s-34.5 4 -50.5 4c-48 0 -72 -16.333 -72 -49c0 -16 4.83301 -27.5 14.5 -34.5
s23.167 -12.167 40.5 -15.5c18 -3.33301 36.833 -7.33301 56.5 -12s37.834 -12.667 54.501 -24s30.5 -27.333 41.5 -48s16.5 -48 16.5 -82c0 -56 -18.5 -99.167 -55.5 -129.5s-89.5 -45.5 -157.5 -45.5z" />
    <glyph glyph-name="t" unicode="t" horiz-adv-x="372" 
d="M263 -6c-57.333 0 -100.667 13.167 -130 39.5s-44 64.5 -44 114.5v258h-79v134h88l21 155l129 16v-171h104v-134h-103v-218c0 -28 4.5 -47.667 13.5 -59s22.833 -17 41.5 -17c7.33301 0 15 0.5 23 1.5s16.667 2.83301 26 5.5v-115
c-13.333 -3.33301 -27.833 -5.83301 -43.5 -7.5s-31.167 -2.5 -46.5 -2.5z" />
    <glyph glyph-name="u" unicode="u" horiz-adv-x="535" 
d="M184 -10c-43.333 0 -77.498 12.833 -102.498 38.5s-37.5 60.834 -37.5 105.501v406h160v-353c0 -21.333 4 -36.833 12 -46.5s20.333 -14.5 37 -14.5c11.333 0 22.666 2.16699 33.999 6.5s25 12.166 41 23.499v384h160v-540h-135l-9 55h-4
c-19.333 -12.667 -36 -23.167 -50 -31.5s-26.833 -15 -38.5 -20s-22.834 -8.5 -33.501 -10.5s-22 -3 -34 -3z" />
    <glyph glyph-name="v" unicode="v" horiz-adv-x="525" 
d="M3 531v9h164l80 -330l11 -72h9l11 72l80 330h164v-9l-167 -531h-185z" />
    <glyph glyph-name="w" unicode="w" horiz-adv-x="738" 
d="M16 536v4h145l43 -315l8 -61h12l9 61l58 315h156l58 -315l10 -61h11l9 61l43 315h144v-4l-103 -536h-180l-58 303l-6 55h-12l-6 -55l-58 -303h-180z" />
    <glyph glyph-name="x" unicode="x" horiz-adv-x="524" 
d="M5 13l143 268l-138 250v9h168l69 -148l13 -35h8l12 35l66 148h169v-9l-139 -263l143 -255v-13h-166l-76 167l-12 38h-10l-12 -38l-72 -167h-166v13z" />
    <glyph glyph-name="y" unicode="y" horiz-adv-x="534" 
d="M125 -187v7l59 180l-183 528v12h162l86 -310l12 -72h10l13 72l86 310h162v-12l-247 -748z" />
    <glyph glyph-name="z" unicode="z" horiz-adv-x="437" 
d="M28 111l195 297v7h-189v125h367v-111l-194 -297v-7h204v-125h-383v111z" />
    <glyph glyph-name="braceleft" unicode="{" horiz-adv-x="327" 
d="M18 415c24 0 40.834 7.83496 50.501 23.502s14.5 38.5 14.5 68.5v239c0 44.667 8.66699 76.167 26 94.5s46 27.5 86 27.5c6.66699 0 15.667 -0.166992 27 -0.5s22.666 -0.833008 33.999 -1.5s21.833 -1.16699 31.5 -1.5s15.834 -0.833008 18.501 -1.5v-99h-47
c-17.333 0 -29.666 -3.5 -36.999 -10.5s-11 -18.5 -11 -34.5v-244c0 -31.333 -7.16699 -57.833 -21.5 -79.5s-33.166 -35.167 -56.499 -40.5c23.333 -4.66699 42.166 -17.667 56.499 -39s21.5 -47.333 21.5 -78v-246c0 -16.667 3.66699 -28.5 11 -35.5
s19.666 -10.5 36.999 -10.5h47v-99c-2.66699 -0.666992 -8.83398 -1.33398 -18.501 -2.00098s-20.167 -1.16699 -31.5 -1.5l-34 -1c-11.333 -0.333008 -20.333 -0.5 -27 -0.5c-40 0 -68.667 9.16699 -86 27.5s-26 50.166 -26 95.499v241c0 30 -4.83301 52.667 -14.5 68
s-26.5 23 -50.5 23v118z" />
    <glyph glyph-name="bar" unicode="|" horiz-adv-x="273" 
d="M211 808v-1028h-149v1028h149z" />
    <glyph glyph-name="braceright" unicode="}" horiz-adv-x="327" 
d="M308 297c-23.333 0 -40 -7.66895 -50 -23.002s-15 -38 -15 -68v-241c0 -45.333 -8.5 -77.166 -25.5 -95.499s-45.833 -27.5 -86.5 -27.5c-6 0 -14.667 0.166992 -26 0.5l-34.5 1c-11.667 0.333008 -22.334 0.833008 -32.001 1.5s-15.834 1.33398 -18.501 2.00098v99h48
c17.333 0 29.666 3.5 36.999 10.5s11 18.833 11 35.5v246c0 30.667 7.16699 56.667 21.5 78s33.166 34.333 56.499 39c-23.333 5.33301 -42.166 18.833 -56.499 40.5s-21.5 48.167 -21.5 79.5v244c0 16 -3.66699 27.5 -11 34.5s-19.666 10.5 -36.999 10.5h-48v99
c2.66699 0.666992 8.83398 1.16699 18.501 1.5s20.334 0.833008 32.001 1.5s23.167 1.16699 34.5 1.5s20 0.5 26 0.5c40.667 0 69.5 -9.16699 86.5 -27.5s25.5 -49.833 25.5 -94.5v-239c0 -30 5 -52.833 15 -68.5s26.667 -23.5 50 -23.5v-118z" />
    <glyph glyph-name="asciitilde" unicode="~" horiz-adv-x="582" 
d="M30 269c18.667 26.667 35.333 48.668 50 66.001s28.167 31.166 40.5 41.499s24.5 17.5 36.5 21.5s25 6 39 6c18.667 0 35.667 -3.83301 51 -11.5s29.833 -16 43.5 -25s27.167 -17.333 40.5 -25s27.333 -11.5 42 -11.5c32 0 60.333 25 85 75l95 -57l-30.5 -45
c-11 -16 -23.333 -30.833 -37 -44.5s-28.667 -25 -45 -34s-33.833 -13.5 -52.5 -13.5s-35.834 3.83301 -51.501 11.5s-30.5 16.167 -44.5 25.5s-27.5 17.833 -40.5 25.5s-26.5 11.5 -40.5 11.5c-29.333 0 -58.666 -25 -87.999 -75z" />
    <glyph glyph-name="uni00A0" unicode="&#xa0;" horiz-adv-x="172" 
 />
    <glyph glyph-name="exclamdown" unicode="&#xa1;" horiz-adv-x="255" 
d="M127 547c29.333 0 52 -7.5 68 -22.5s24 -36.5 24 -64.5c0 -27.333 -8 -48.5 -24 -63.5s-38.667 -22.5 -68 -22.5c-28.667 0 -51 7.33301 -67 22s-24 36 -24 64s8 49.5 24 64.5s38.333 22.5 67 22.5zM78 288h100v-11l34 -467v-10h-170v10l36 467v11z" />
    <glyph glyph-name="cent" unicode="&#xa2;" horiz-adv-x="432" 
d="M222 -4c-66 10 -115.169 37.168 -147.502 81.501s-48.5 108.5 -48.5 192.5c0 83.333 16.167 147.166 48.5 191.499s81.5 71.833 147.5 82.5v116h100v-113c25.333 -2 48.333 -6.66699 69 -14v-124c-33.333 7.33301 -61.666 11 -84.999 11c-42 0 -71.833 -11.5 -89.5 -34.5
s-26.5 -61.167 -26.5 -114.5c0 -54 8.83301 -92.833 26.5 -116.5s47.167 -35.5 88.5 -35.5c14.667 0 28.834 0.833008 42.501 2.5s28.167 4.5 43.5 8.5v-123c-19.333 -7.33301 -42.333 -12 -69 -14v-113h-100v116z" />
    <glyph glyph-name="sterling" unicode="&#xa3;" horiz-adv-x="585" 
d="M32 434l107.002 -0.00195312v98c0 74.667 17.667 129.5 53 164.5s91.666 52.5 168.999 52.5c27.333 0 56.666 -2.16699 87.999 -6.5s67 -10.833 107 -19.5l-6 -129c-12 2.66699 -24.833 5.33398 -38.5 8.00098s-27.5 4.83398 -41.5 6.50098s-27.667 3 -41 4
s-25 1.5 -35 1.5c-34 0 -57.667 -6.16699 -71 -18.5s-20 -34.833 -20 -67.5v-94h165v-124h-165v-173h239v-137h-510v139h107v171h-107v124z" />
    <glyph glyph-name="currency" unicode="&#xa4;" horiz-adv-x="580" 
d="M30 169l55 54.001l56 42c-18 28.667 -27 63.667 -27 105c0 40.667 9 75.667 27 105l-56 42l-55 54l58 59l54 -55l41 -55c28.667 21.333 64 32 106 32c41.333 0 76.666 -11 105.999 -33l42 56l54 55l58 -59l-55 -54l-58 -43c8.66699 -14.667 15.334 -30.667 20.001 -48
s7 -36 7 -56c0 -40.667 -8.66699 -75.334 -26 -104.001l57 -43l55 -54l-58 -59l-54 55l-41 55c-29.333 -22 -65 -33 -107 -33s-77.667 10.667 -107 32l-40 -54l-54 -55zM212 370.001c0 -32 7 -56.667 21 -74s32.667 -26 56 -26s41.833 8.5 55.5 25.5s20.5 41.833 20.5 74.5
c0 32 -6.66699 56.5 -20 73.5s-32 25.5 -56 25.5c-23.333 0 -42 -8.5 -56 -25.5s-21 -41.5 -21 -73.5z" />
    <glyph glyph-name="yen" unicode="&#xa5;" horiz-adv-x="699" 
d="M97 359h117l-195 381h186l128 -284l14 -51h9l15 51l129 284h182l-195 -381h112v-113h-166v-70h166v-113h-166v-63h-164v63h-172v113h172v70h-172v113z" />
    <glyph glyph-name="brokenbar" unicode="&#xa6;" horiz-adv-x="270" 
d="M60 205h150v-425h-150v425zM60 808h150v-425h-150v425z" />
    <glyph glyph-name="section" unicode="&#xa7;" horiz-adv-x="451" 
d="M201 -10c-25.333 0 -51.501 2.33691 -78.501 7.00391s-54.167 11.667 -81.5 21v117c21.333 -8 46.5 -14.667 75.5 -20s56.167 -8 81.5 -8c43.333 0 65 15.333 65 46c0 28 -20 45 -60 51c-16 2 -33.333 5 -52 9s-36 11.833 -52 23.5s-29.333 28.167 -40 49.5
s-16 50.666 -16 87.999c0 42 9 77 27 105c-8 11.333 -14.5 25.5 -19.5 42.5s-7.5 37.833 -7.5 62.5c0 56 16 99.167 48 129.5s77.667 45.5 137 45.5c23.333 0 48.833 -1.83301 76.5 -5.5s54.834 -8.5 81.501 -14.5v-118c-15.333 4 -29 7.16699 -41 9.5
s-22.667 4.16602 -32 5.49902s-18 2.33301 -26 3s-16 1 -24 1c-48 0 -72 -16.333 -72 -49c0 -16.667 4.83301 -28.334 14.5 -35.001s23.167 -11.667 40.5 -15s35.833 -7.33301 55.5 -12s37.834 -12.834 54.501 -24.501s30.5 -27.667 41.5 -48s16.5 -47.833 16.5 -82.5
c0 -42.667 -10.667 -77.667 -32 -105c10 -12 17.833 -26.333 23.5 -43s8.5 -37 8.5 -61c0 -56 -18.333 -99.167 -55 -129.5s-89.334 -45.5 -158.001 -45.5zM258.999 317.004c3.33301 5.33301 6.16699 12 8.5 20s3.5 16.667 3.5 26c0 23.333 -10.333 39.333 -31 48l-33 12
c-16 -12 -24 -26 -24 -42s2.83301 -27.667 8.5 -35s14.167 -13.333 25.5 -18c6 -2 12.5 -4 19.5 -6s14.5 -3.66699 22.5 -5z" />
    <glyph glyph-name="dieresis" unicode="&#xa8;" horiz-adv-x="474" 
d="M120 614c-28 0 -48.333 6 -61 18s-19 31.667 -19 59s6.33301 47 19 59s33 18 61 18c27.333 0 47.5 -5.83301 60.5 -17.5s19.5 -31.5 19.5 -59.5c0 -27.333 -6.5 -47 -19.5 -59s-33.167 -18 -60.5 -18zM348 614c-28 0 -48.167 6 -60.5 18s-18.5 31.667 -18.5 59
s6.16699 47 18.5 59s32.5 18 60.5 18c27.333 0 47.5 -5.83301 60.5 -17.5s19.5 -31.5 19.5 -59.5c0 -27.333 -6.5 -47 -19.5 -59s-33.167 -18 -60.5 -18z" />
    <glyph glyph-name="copyright" unicode="&#xa9;" horiz-adv-x="802" 
d="M416 164c-125.333 0 -188.001 68.001 -188.001 204.001c0 137.333 62.667 206 188 206c16 0 32.167 -1 48.5 -3s30.5 -4.66699 42.5 -8v-90c-16.667 3.33301 -31.5 5.66602 -44.5 6.99902s-24.167 2 -33.5 2c-35.333 0 -59.666 -9 -72.999 -27s-20 -46.667 -20 -86
c0 -40 6.66699 -69 20 -87s37 -27 71 -27c18.667 0 45.667 3 81 9v-89c-12.667 -3.33301 -27.167 -6 -43.5 -8s-32.5 -3 -48.5 -3zM400.999 -9.99902c-56 0 -106.833 9.16699 -152.5 27.5s-84.5 44.166 -116.5 77.499s-56.833 73.333 -74.5 120s-26.5 98.334 -26.5 155.001
s8.83301 108.334 26.5 155.001s42.5 86.667 74.5 120s70.833 59.166 116.5 77.499s96.5 27.5 152.5 27.5s106.833 -9.16699 152.5 -27.5s84.5 -44.166 116.5 -77.499s56.833 -73.333 74.5 -120s26.5 -98.334 26.5 -155.001s-8.83301 -108.334 -26.5 -155.001
s-42.5 -86.667 -74.5 -120s-70.833 -59.166 -116.5 -77.499s-96.5 -27.5 -152.5 -27.5zM400.999 76.001c43.333 0 82.166 7 116.499 21s63.5 33.833 87.5 59.5s42.333 56.667 55 93s19 76.5 19 120.5s-6.33301 84.167 -19 120.5s-31 67.5 -55 93.5s-53.167 46 -87.5 60
s-73.166 21 -116.499 21c-44 0 -83.167 -7 -117.5 -21s-63.5 -34 -87.5 -60s-42.333 -57.167 -55 -93.5s-19 -76.5 -19 -120.5s6.33301 -84.167 19 -120.5s31 -67.333 55 -93s53.167 -45.5 87.5 -59.5s73.5 -21 117.5 -21z" />
    <glyph glyph-name="ordfeminine" unicode="&#xaa;" horiz-adv-x="409" 
d="M135 348c-34 0 -60.833 10.502 -80.5 31.502s-29.5 49.5 -29.5 85.5s11 64 33 84s55 31 99 33l83 4v5c0 14 -0.666992 25.167 -2 33.5s-4 14.666 -8 18.999s-9.66699 7.16602 -17 8.49902s-17 2 -29 2c-16.667 0 -35.834 -0.833008 -57.501 -2.5
s-42.834 -4.16699 -63.501 -7.5l-8 87c48.667 10 96 15 142 15c60 0 103.167 -9.83301 129.5 -29.5s39.5 -51.167 39.5 -94.5v-270h-109l-5 47h-4c-13.333 -16 -30.166 -28.5 -50.499 -37.5s-41.166 -13.5 -62.499 -13.5zM187 433.002
c7.33301 0 15.668 2.33105 25.001 6.99805s18.666 10.667 27.999 18v62l-45 -4c-16.667 -1.33301 -28 -5.16602 -34 -11.499s-9 -16.166 -9 -29.499c0 -28 11.667 -42 35 -42z" />
    <glyph glyph-name="guillemotleft" unicode="&#xab;" horiz-adv-x="567" 
d="M24 268v4l94 238h160l-94 -238v-4l94 -238h-160zM287 268v4l94 238h160l-94 -238v-4l94 -238h-160z" />
    <glyph glyph-name="logicalnot" unicode="&#xac;" horiz-adv-x="742" 
d="M36 438h657v-338h-156v209h-501v129z" />
    <glyph glyph-name="uni00AD" unicode="&#xad;" horiz-adv-x="396" 
d="M44 339h308v-118h-308v118z" />
    <glyph glyph-name="registered" unicode="&#xae;" horiz-adv-x="678" 
d="M230 611c17.333 1.33301 34.168 2.50098 50.501 3.50098s32.166 1.5 47.499 1.5c91.333 0 137 -34 137 -102c0 -22.667 -5 -41.834 -15 -57.501s-24.667 -26.5 -44 -32.5v-3l66 -123h-73l-53 105h-45v-105h-71v313zM329.002 458.001c24 0 40.5 4.33301 49.5 13
s13.5 22.667 13.5 42c0 16 -4.16699 28.5 -12.5 37.5s-23.166 13.5 -44.499 13.5c-2 0 -7.5 -0.166992 -16.5 -0.5s-14.833 -0.5 -17.5 -0.5v-104c1.33301 -0.666992 5.66602 -1 12.999 -1h15zM339.002 143.001c-46 0 -87.667 7.33301 -125 22s-69.5 35.5 -96.5 62.5
s-47.833 59 -62.5 96s-22 78.167 -22 123.5s7.33301 86.666 22 123.999s35.5 69.5 62.5 96.5s59.167 47.833 96.5 62.5s79 22 125 22s87.833 -7.33301 125.5 -22s70 -35.5 97 -62.5s47.833 -59.167 62.5 -96.5s22 -78.666 22 -123.999s-7.33301 -86.5 -22 -123.5
s-35.5 -69 -62.5 -96s-59.333 -47.833 -97 -62.5s-79.5 -22 -125.5 -22zM339.002 212.001c36 0 68.333 5.66699 97 17s53 27.166 73 47.499s35.333 45 46 74s16 61.167 16 96.5s-5.33301 67.5 -16 96.5s-26 53.833 -46 74.5s-44.333 36.667 -73 48s-61 17 -97 17
s-68.333 -5.66699 -97 -17s-53 -27.333 -73 -48s-35.333 -45.5 -46 -74.5s-16 -61.167 -16 -96.5s5.33301 -67.5 16 -96.5s26 -53.667 46 -74s44.333 -36.166 73 -47.499s61 -17 97 -17z" />
    <glyph glyph-name="macron" unicode="&#xaf;" horiz-adv-x="418" 
d="M45 722h321v-98h-321v98z" />
    <glyph glyph-name="degree" unicode="&#xb0;" horiz-adv-x="407" 
d="M204 371c-26.667 0 -51.167 4.66699 -73.5 14s-41.5 22.333 -57.5 39s-28.333 36.667 -37 60s-13 48.666 -13 75.999s4.33301 52.666 13 75.999s21 43.5 37 60.5s35.167 30.167 57.5 39.5s46.833 14 73.5 14s51 -4.66699 73 -14s41 -22.5 57 -39.5
s28.333 -37.167 37 -60.5s13 -48.666 13 -75.999s-4.33301 -52.666 -13 -75.999s-21 -43.333 -37 -60s-35 -29.667 -57 -39s-46.333 -14 -73 -14zM204 456c31.333 0 54.666 9.33301 69.999 28s23 44 23 76s-7.66699 57.5 -23 76.5s-38.666 28.5 -69.999 28.5
c-32 0 -55.667 -9.5 -71 -28.5s-23 -44.5 -23 -76.5s7.66699 -57.333 23 -76s39 -28 71 -28z" />
    <glyph glyph-name="plusminus" unicode="&#xb1;" horiz-adv-x="524" 
d="M44 482h160v159h115v-159h161v-114h-161v-151h-115v151h-160v114zM44 164h437v-115h-437v115z" />
    <glyph glyph-name="twosuperior" unicode="&#xb2;" horiz-adv-x="397" 
d="M24 400c0 20.667 2.33203 39.5 6.99902 56.5s12.334 33.167 23.001 48.5s24.5 30.166 41.5 44.499s37.833 29.166 62.5 44.499c27.333 17.333 46.333 32.833 57 46.5s16 28.834 16 45.501c0 34.667 -26.333 52 -79 52c-16.667 0 -34 -1.33301 -52 -4
s-35.667 -5.66699 -53 -9l-12 108c28 6.66699 55.333 11.834 82 15.501s51 5.5 73 5.5c120.667 0 181 -51 181 -153c0 -39.333 -8.5 -72.333 -25.5 -99s-42.5 -50.667 -76.5 -72c-67.333 -44 -101 -78 -101 -102v-15h199v-113h-343v100z" />
    <glyph glyph-name="threesuperior" unicode="&#xb3;" horiz-adv-x="371" 
d="M138 293c-19.333 0 -37.6631 1.00195 -54.9961 3.00195s-35 4.66699 -53 8v116h10c10.667 -3.33301 23 -6 37 -8s27.667 -3 41 -3c33.333 0 57.333 4.5 72 13.5s22 23.167 22 42.5c0 21.333 -7.33301 36.666 -22 45.999s-40.334 14 -77.001 14h-30v103h29
c30 0 51.667 4.5 65 13.5s20 23.167 20 42.5c0 36.667 -23.667 55 -71 55c-24.667 0 -53.334 -3.33301 -86.001 -10h-9l-2 112c34 8.66699 70.333 13 109 13c67.333 0 116.666 -11.167 147.999 -33.5s47 -57.5 47 -105.5c0 -68.667 -27.333 -112.667 -82 -132
c31.333 -10 55.166 -26.167 71.499 -48.5s24.5 -49.833 24.5 -82.5c0 -50.667 -18.167 -89.834 -54.5 -117.501s-87.833 -41.5 -154.5 -41.5z" />
    <glyph glyph-name="acute" unicode="&#xb4;" horiz-adv-x="264" 
d="M24 619l66 187h165l-116 -196z" />
    <glyph glyph-name="mu" unicode="&#xb5;" horiz-adv-x="568" 
d="M61 540l159 0.000976562v-359c0 -18.667 4.5 -32.667 13.5 -42s21.5 -14 37.5 -14c18.667 0 43.334 9.66699 74.001 29v386h160v-540h-135l-9 55h-4c-16.667 -11.333 -31.334 -20.833 -44.001 -28.5s-24.334 -14 -35.001 -19s-20.667 -8.83301 -30 -11.5
s-18.666 -4.33398 -27.999 -5.00098v-211h-159v760z" />
    <glyph glyph-name="paragraph" unicode="&#xb6;" horiz-adv-x="547" 
d="M323 0l-73.002 -0.00390625v266c-5.33301 -0.666992 -9.33301 -1 -12 -1h-10c-31.333 0 -59.5 4.16699 -84.5 12.5s-46.167 21.833 -63.5 40.5s-30.833 43.334 -40.5 74.001s-14.5 68.334 -14.5 113.001s4.66699 82.334 14 113.001s22.833 55.334 40.5 74.001
s38.834 32.167 63.501 40.5s52.334 12.5 83.001 12.5c14 0 29.5 -0.833008 46.5 -2.5s33.833 -4.16699 50.5 -7.5v-735zM475.998 -0.00390625h-97v735h97v-735z" />
    <glyph glyph-name="periodcentered" unicode="&#xb7;" horiz-adv-x="245" 
d="M122 283c-31.333 0 -53.833 6.83301 -67.5 20.5s-20.5 35.834 -20.5 66.501s6.83301 52.834 20.5 66.501s36.167 20.5 67.5 20.5c30.667 0 53.167 -6.83301 67.5 -20.5s21.5 -35.834 21.5 -66.501s-7.16699 -52.834 -21.5 -66.501s-36.833 -20.5 -67.5 -20.5z" />
    <glyph glyph-name="cedilla" unicode="&#xb8;" horiz-adv-x="261" 
d="M108 -220c-11.333 0 -23.999 0.833008 -37.999 2.5s-29.333 4.83398 -46 9.50098v94c12.667 -3.33301 24.667 -5.33301 36 -6s19 -1 23 -1c13.333 0 23 3.33301 29 10s9 14.667 9 24c0 15.333 -5.33301 34.166 -16 56.499s-24.667 45.5 -42 69.5h99
c11.333 -15.333 21.166 -29.5 29.499 -42.5s15 -25.5 20 -37.5s8.66699 -24 11 -36s3.5 -24.333 3.5 -37c0 -32 -10 -57.667 -30 -77s-49.333 -29 -88 -29z" />
    <glyph glyph-name="onesuperior" unicode="&#xb9;" horiz-adv-x="323" 
d="M130 700l-84 -32h-20l-21 60l4 21l157 97h104v-546h-140v400z" />
    <glyph glyph-name="ordmasculine" unicode="&#xba;" horiz-adv-x="425" 
d="M212 437c13.333 0 24 1.5 32 4.5s14.167 8.5 18.5 16.5s7.16602 19.167 8.49902 33.5s2 32.5 2 54.5s-0.666992 40 -2 54s-4.16602 25.167 -8.49902 33.5s-10.5 14 -18.5 17s-18.667 4.5 -32 4.5s-23.833 -1.5 -31.5 -4.5s-13.667 -8.66699 -18 -17
s-7.16602 -19.5 -8.49902 -33.5s-2 -32 -2 -54s0.666992 -40.167 2 -54.5s4.16602 -25.5 8.49902 -33.5s10.333 -13.5 18 -16.5s18.167 -4.5 31.5 -4.5zM212 345c-59.333 0 -105.166 16.5 -137.499 49.5s-48.5 83.5 -48.5 151.5s16.167 118.5 48.5 151.5
s78.166 49.5 137.499 49.5c60.667 0 107 -16.5 139 -49.5s48 -83.5 48 -151.5s-16 -118.5 -48 -151.5s-78.333 -49.5 -139 -49.5z" />
    <glyph glyph-name="guillemotright" unicode="&#xbb;" horiz-adv-x="567" 
d="M186 30h-160l94 238v4l-94 238h160l94 -238v-4zM448 30h-160l94 238v4l-94 238h160l94 -238v-4z" />
    <glyph glyph-name="onequarter" unicode="&#xbc;" horiz-adv-x="1000" 
d="M782 110h-195l-15 82l163 344l11 9l120 -8l8 -14l-170 -313h93l39 143h86v-143h52v-100h-52v-110h-140v110zM535 740h128l-260 -740h-128zM144 600l-84 -32h-20l-21 60l4 21l157 97h104v-546h-140v400z" />
    <glyph glyph-name="onehalf" unicode="&#xbd;" horiz-adv-x="1012" 
d="M628 100c0 20.667 2.16699 39.3359 6.5 56.0029s11.833 32.5 22.5 47.5s24.5 29.833 41.5 44.5s38.167 30 63.5 46c28 17.333 47.167 32.666 57.5 45.999s15.5 28.666 15.5 45.999c0 34.667 -26 52 -78 52c-19.333 0 -39 -1.16699 -59 -3.5s-35.667 -5.5 -47 -9.5
l-12 108c30.667 7.33301 59.167 12.666 85.5 15.999s49.5 5 69.5 5c120.667 0 181 -51 181 -153c0 -37.333 -8 -69.333 -24 -96s-42 -51.667 -78 -75c-67.333 -44.667 -101 -78.667 -101 -102v-15h199v-113h-343v100zM535 740.002h128l-260 -740h-128zM144 600.002l-84 -32
h-20l-21 60l4 21l157 97h104v-546h-140v400z" />
    <glyph glyph-name="threequarters" unicode="&#xbe;" horiz-adv-x="982" 
d="M148 193c-19.333 0 -37.6631 1.00195 -54.9961 3.00195s-35 4.66699 -53 8v116h10c10.667 -3.33301 23 -6 37 -8s27.667 -3 41 -3c33.333 0 57.333 4.5 72 13.5s22 23.167 22 42.5c0 21.333 -7.33301 36.666 -22 45.999s-40.334 14 -77.001 14h-30v103h29
c30 0 51.667 4.5 65 13.5s20 23.167 20 42.5c0 36.667 -23.667 55 -71 55c-24.667 0 -53.334 -3.33301 -86.001 -10h-9l-2 112c34 8.66699 70.333 13 109 13c67.333 0 116.666 -11.167 147.999 -33.5s47 -57.5 47 -105.5c0 -68.667 -27.333 -112.667 -82 -132
c31.333 -10 55.166 -26.167 71.499 -48.5s24.5 -49.833 24.5 -82.5c0 -50.667 -18.167 -89.834 -54.5 -117.501s-87.833 -41.5 -154.5 -41.5zM768.003 110.002h-195l-15 82l163 344l11 9l120 -8l8 -14l-170 -313h93l39 143h86v-143h52v-100h-52v-110h-140v110z
M560.003 740.002h128l-260 -740h-128z" />
    <glyph glyph-name="questiondown" unicode="&#xbf;" horiz-adv-x="418" 
d="M306 297l14.998 -179c-45.333 -10 -80.166 -23.167 -104.499 -39.5s-36.5 -41.166 -36.5 -74.499c0 -30.667 8.83301 -52.667 26.5 -66s41.5 -20 71.5 -20c8.66699 0 18 0.5 28 1.5s20 2.16699 30 3.5s19.5 3.16602 28.5 5.49902s16.833 4.5 23.5 6.5l7 -121
c-47.333 -14 -97 -21 -149 -21c-69.333 0 -124.166 16.333 -164.499 49s-60.5 82 -60.5 148c0 56.667 16.333 101.5 49 134.5s75.667 54.833 129 65.5l7 106v15h100v-14zM253.998 548c29.333 0 51.833 -7.5 67.5 -22.5s23.5 -36.5 23.5 -64.5s-7.83301 -49.333 -23.5 -64
s-38.167 -22 -67.5 -22c-28.667 0 -51 7.33301 -67 22s-24 36 -24 64s8 49.5 24 64.5s38.333 22.5 67 22.5z" />
    <glyph glyph-name="Agrave" unicode="&#xc0;" horiz-adv-x="620" 
d="M-1 7l187 733h248l187 -733v-7h-154l-46 177h-223l-45 -177h-154v7zM390 308l-49 200l-26 109h-11l-25 -109l-50 -200h161zM251 789l-116 184h164l67 -173z" />
    <glyph glyph-name="Aacute" unicode="&#xc1;" horiz-adv-x="620" 
d="M-1 7l187 733h248l187 -733v-7h-154l-46 177h-223l-45 -177h-154v7zM390 308l-49 200l-26 109h-11l-25 -109l-50 -200h161zM248 798l66 175h164l-115 -184z" />
    <glyph glyph-name="Acircumflex" unicode="&#xc2;" horiz-adv-x="620" 
d="M-1 7l187 733h248l187 -733v-7h-154l-46 177h-223l-45 -177h-154v7zM390 308l-49 200l-26 109h-11l-25 -109l-50 -200h161zM150 900l162 72l161 -72v-108l-162 72l-161 -72v108z" />
    <glyph glyph-name="Atilde" unicode="&#xc3;" horiz-adv-x="620" 
d="M-1 7l187 733h248l187 -733v-7h-154l-46 177h-223l-45 -177h-154v7zM390 308l-49 200l-26 109h-11l-25 -109l-50 -200h161zM131 836c19.333 38.667 41.001 67.667 65.001 87s48 29 72 29c12.667 0 25.167 -2 37.5 -6s24.666 -8.5 36.999 -13.5s24.666 -9.5 36.999 -13.5
s24.833 -6 37.5 -6s24.667 3 36 9s23.666 16 36.999 30l24 -21c-18 -40 -39 -69.5 -63 -88.5s-48 -28.5 -72 -28.5c-13.333 0 -26.166 2 -38.499 6s-24.666 8.33301 -36.999 13s-24.5 9 -36.5 13s-24.333 6 -37 6c-13.333 0 -26 -2.83301 -38 -8.5
s-24.667 -15.167 -38 -28.5z" />
    <glyph glyph-name="Adieresis" unicode="&#xc4;" horiz-adv-x="620" 
d="M-1 7l187 733h248l187 -733v-7h-154l-46 177h-223l-45 -177h-154v7zM390 308l-49 200l-26 109h-11l-25 -109l-50 -200h161zM188 801c-31.333 0 -53.833 6.83105 -67.5 20.498s-20.5 35.834 -20.5 66.501c0 30 6.83301 51.667 20.5 65s36.167 20 67.5 20
c30.667 0 53.167 -6.66699 67.5 -20s21.5 -35 21.5 -65c0 -31.333 -7.16699 -53.666 -21.5 -66.999s-36.833 -20 -67.5 -20zM433 800.998c-31.333 0 -53.833 6.83105 -67.5 20.498s-20.5 35.834 -20.5 66.501c0 30 6.83301 51.667 20.5 65s36.167 20 67.5 20
c30.667 0 53.167 -6.66699 67.5 -20s21.5 -35 21.5 -65c0 -31.333 -7.16699 -53.666 -21.5 -66.999s-36.833 -20 -67.5 -20z" />
    <glyph glyph-name="Aring" unicode="&#xc5;" horiz-adv-x="620" 
d="M-1 7l187 733h248l187 -733v-7h-154l-46 177h-223l-45 -177h-154v7zM390 308l-49 200l-26 109h-11l-25 -109l-50 -200h161zM308 756c-34 0 -61.833 10.667 -83.5 32s-32.5 48 -32.5 80s10.833 58.833 32.5 80.5s49.5 32.5 83.5 32.5
c34.667 0 62.834 -10.833 84.501 -32.5s32.5 -48.5 32.5 -80.5s-10.833 -58.667 -32.5 -80s-49.834 -32 -84.501 -32zM308 812c20 0 34.167 4.5 42.5 13.5s12.5 23.167 12.5 42.5s-4.16699 33.666 -12.5 42.999s-22.5 14 -42.5 14c-20.667 0 -35 -4.66699 -43 -14
s-12 -23.666 -12 -42.999s4 -33.5 12 -42.5s22.333 -13.5 43 -13.5z" />
    <glyph glyph-name="AE" unicode="&#xc6;" horiz-adv-x="826" 
d="M-3 6l218 734h569v-137h-248l10 -163h226v-138h-217l11 -165h227v-137h-385l-7 174h-186l-50 -174h-168v6zM254 311h141l-12 303h-41z" />
    <glyph glyph-name="Ccedilla" unicode="&#xc7;" horiz-adv-x="503" 
d="M268 -220c-11.333 0 -24.0029 0.827148 -38.0029 2.49414s-29.333 4.83398 -46 9.50098v94c12.667 -3.33301 24.667 -5.33301 36 -6s19 -1 23 -1c13.333 0 23 3.33301 29 10s9 14.667 9 24c0 11.333 -2.83301 24.333 -8.5 39s-13.5 30.334 -23.5 47.001
c-73.333 15.333 -128.166 53.333 -164.499 114s-54.5 146.334 -54.5 257.001c0 130.667 25.667 226.5 77 287.5s126.666 91.5 225.999 91.5c46.667 0 94.667 -5.33301 144 -16v-130c-20 3.33301 -40.5 6 -61.5 8s-40.167 3 -57.5 3c-29.333 0 -54.166 -3.5 -74.499 -10.5
s-36.666 -19.667 -48.999 -38s-21.333 -43.333 -27 -75s-8.5 -72.167 -8.5 -121.5c0 -48.667 2.83301 -88.667 8.5 -120s14.834 -56.166 27.501 -74.499s29 -31 49 -38s44.333 -10.5 73 -10.5c20.667 0 41 1 61 3s39.667 5.33301 59 10v-127
c-12.667 -5.33301 -30 -9.66602 -52 -12.999s-45.667 -5.66602 -71 -6.99902c11.333 -19.333 19.5 -37 24.5 -53s7.5 -33.667 7.5 -53c0 -32 -10 -57.667 -30 -77s-49.333 -29 -88 -29z" />
    <glyph glyph-name="Egrave" unicode="&#xc8;" horiz-adv-x="543" 
d="M224 789l-116 184h164l67 -173zM56 740h449v-137h-285v-163h254v-138h-254v-165h294v-137h-458v740z" />
    <glyph glyph-name="Eacute" unicode="&#xc9;" horiz-adv-x="543" 
d="M222 798l66 175h164l-115 -184zM56 740h449v-137h-285v-163h254v-138h-254v-165h294v-137h-458v740z" />
    <glyph glyph-name="Ecircumflex" unicode="&#xca;" horiz-adv-x="543" 
d="M56 740h449v-137h-285v-163h254v-138h-254v-165h294v-137h-458v740zM124 900l162 72l161 -72v-108l-162 72l-161 -72v108z" />
    <glyph glyph-name="Edieresis" unicode="&#xcb;" horiz-adv-x="543" 
d="M162 801c-31.333 0 -53.833 6.83105 -67.5 20.498s-20.5 35.834 -20.5 66.501c0 30 6.83301 51.667 20.5 65s36.167 20 67.5 20c30.667 0 53.167 -6.66699 67.5 -20s21.5 -35 21.5 -65c0 -31.333 -7.16699 -53.666 -21.5 -66.999s-36.833 -20 -67.5 -20zM407 800.998
c-31.333 0 -53.833 6.83105 -67.5 20.498s-20.5 35.834 -20.5 66.501c0 30 6.83301 51.667 20.5 65s36.167 20 67.5 20c30.667 0 53.167 -6.66699 67.5 -20s21.5 -35 21.5 -65c0 -31.333 -7.16699 -53.666 -21.5 -66.999s-36.833 -20 -67.5 -20zM56 739.996h449v-137h-285
v-163h254v-138h-254v-165h294v-137h-458v740z" />
    <glyph glyph-name="Igrave" unicode="&#xcc;" horiz-adv-x="276" 
d="M56 740h164v-740h-164v740zM78 789l-116 184h164l67 -173z" />
    <glyph glyph-name="Iacute" unicode="&#xcd;" horiz-adv-x="276" 
d="M56 740h164v-740h-164v740zM75 798l66 175h164l-115 -184z" />
    <glyph glyph-name="Icircumflex" unicode="&#xce;" horiz-adv-x="276" 
d="M56 740h164v-740h-164v740zM-22 900l162 72l161 -72v-108l-162 72l-161 -72v108z" />
    <glyph glyph-name="Idieresis" unicode="&#xcf;" horiz-adv-x="276" 
d="M56 740h164v-740h-164v740zM15 801c-31.333 0 -53.833 6.83105 -67.5 20.498s-20.5 35.834 -20.5 66.501c0 30 6.83301 51.667 20.5 65s36.167 20 67.5 20c30.667 0 53.167 -6.66699 67.5 -20s21.5 -35 21.5 -65c0 -31.333 -7.16699 -53.666 -21.5 -66.999
s-36.833 -20 -67.5 -20zM260 800.998c-31.333 0 -53.833 6.83105 -67.5 20.498s-20.5 35.834 -20.5 66.501c0 30 6.83301 51.667 20.5 65s36.167 20 67.5 20c30.667 0 53.167 -6.66699 67.5 -20s21.5 -35 21.5 -65c0 -31.333 -7.16699 -53.666 -21.5 -66.999
s-36.833 -20 -67.5 -20z" />
    <glyph glyph-name="Eth" unicode="&#xd0;" horiz-adv-x="660" 
d="M-2 434l80.998 -0.000976562v304c42.667 4 78.334 6.83301 107.001 8.5s55.334 2.5 80.001 2.5c66 0 122 -6.83301 168 -20.5s83.5 -35.667 112.5 -66s50 -69.666 63 -117.999s19.5 -106.833 19.5 -175.5c0 -69.333 -6.66699 -128.166 -20 -176.499
s-34.833 -87.833 -64.5 -118.5s-68.167 -52.834 -115.5 -66.501s-105 -20.5 -173 -20.5c-23.333 0 -48.833 0.833008 -76.5 2.5s-61.167 4.5 -100.5 8.5v313h-81v123zM311.998 119.999c28 0 51.4971 3.83301 70.4971 11.5s34.333 21 46 40s19.834 44.5 24.501 76.5
s7 72.667 7 122c0 48 -2.5 88 -7.5 120s-13.833 57.5 -26.5 76.5s-29.5 32.333 -50.5 40s-47.5 11.5 -79.5 11.5c-13.333 0 -24.166 -0.333008 -32.499 -1s-16.166 -2 -23.499 -4v-179h89v-123h-89v-186c17.333 -2 31.333 -3.33301 42 -4s20.667 -1 30 -1z" />
    <glyph glyph-name="Ntilde" unicode="&#xd1;" horiz-adv-x="680" 
d="M151 836c19.333 38.667 41.001 67.667 65.001 87s48 29 72 29c12.667 0 25.167 -2 37.5 -6s24.666 -8.5 36.999 -13.5s24.666 -9.5 36.999 -13.5s24.833 -6 37.5 -6s24.667 3 36 9s23.666 16 36.999 30l24 -21c-18 -40 -39 -69.5 -63 -88.5s-48 -28.5 -72 -28.5
c-13.333 0 -26.166 2 -38.499 6s-24.666 8.33301 -36.999 13s-24.5 9 -36.5 13s-24.333 6 -37 6c-13.333 0 -26 -2.83301 -38 -8.5s-24.667 -15.167 -38 -28.5zM56.001 740h137l238 -374l39 -79h9v453h145v-740h-137l-240 377l-37 78h-10v-455h-144v740z" />
    <glyph glyph-name="Ograve" unicode="&#xd2;" horiz-adv-x="668" 
d="M273 789l-116 184h164l67 -173zM333 -10c-102 0 -178 31.167 -228 93.5s-75 157.5 -75 285.5c0 128.667 25 224.334 75 287.001s126 94 228 94c103.333 0 180 -31.333 230 -94s75 -158.334 75 -287.001c0 -129.333 -24.833 -224.833 -74.5 -286.5
s-126.5 -92.5 -230.5 -92.5zM333 125c25.333 0 46.6689 4.16797 64.002 12.501s31.5 22.166 42.5 41.499s18.833 44.5 23.5 75.5s7 69.167 7 114.5c0 46 -2.33301 84.667 -7 116s-12.334 56.666 -23.001 75.999s-24.834 33.166 -42.501 41.499s-39.167 12.5 -64.5 12.5
c-24.667 0 -45.667 -4.33301 -63 -13s-31.333 -22.667 -42 -42s-18.334 -44.666 -23.001 -75.999s-7 -69.666 -7 -114.999c0 -44.667 2.33301 -82.5 7 -113.5s12.334 -56.167 23.001 -75.5s24.667 -33.333 42 -42s38.333 -13 63 -13z" />
    <glyph glyph-name="Oacute" unicode="&#xd3;" horiz-adv-x="668" 
d="M271 798l66 175h164l-115 -184zM333 -10c-102 0 -178 31.167 -228 93.5s-75 157.5 -75 285.5c0 128.667 25 224.334 75 287.001s126 94 228 94c103.333 0 180 -31.333 230 -94s75 -158.334 75 -287.001c0 -129.333 -24.833 -224.833 -74.5 -286.5
s-126.5 -92.5 -230.5 -92.5zM333 125c25.333 0 46.6689 4.16797 64.002 12.501s31.5 22.166 42.5 41.499s18.833 44.5 23.5 75.5s7 69.167 7 114.5c0 46 -2.33301 84.667 -7 116s-12.334 56.666 -23.001 75.999s-24.834 33.166 -42.501 41.499s-39.167 12.5 -64.5 12.5
c-24.667 0 -45.667 -4.33301 -63 -13s-31.333 -22.667 -42 -42s-18.334 -44.666 -23.001 -75.999s-7 -69.666 -7 -114.999c0 -44.667 2.33301 -82.5 7 -113.5s12.334 -56.167 23.001 -75.5s24.667 -33.333 42 -42s38.333 -13 63 -13z" />
    <glyph glyph-name="Ocircumflex" unicode="&#xd4;" horiz-adv-x="668" 
d="M333 -10c-102 0 -178 31.167 -228 93.5s-75 157.5 -75 285.5c0 128.667 25 224.334 75 287.001s126 94 228 94c103.333 0 180 -31.333 230 -94s75 -158.334 75 -287.001c0 -129.333 -24.833 -224.833 -74.5 -286.5s-126.5 -92.5 -230.5 -92.5zM333 125
c25.333 0 46.6689 4.16797 64.002 12.501s31.5 22.166 42.5 41.499s18.833 44.5 23.5 75.5s7 69.167 7 114.5c0 46 -2.33301 84.667 -7 116s-12.334 56.666 -23.001 75.999s-24.834 33.166 -42.501 41.499s-39.167 12.5 -64.5 12.5c-24.667 0 -45.667 -4.33301 -63 -13
s-31.333 -22.667 -42 -42s-18.334 -44.666 -23.001 -75.999s-7 -69.666 -7 -114.999c0 -44.667 2.33301 -82.5 7 -113.5s12.334 -56.167 23.001 -75.5s24.667 -33.333 42 -42s38.333 -13 63 -13zM173.003 900.001l162 72l161 -72v-108l-162 72l-161 -72v108z" />
    <glyph glyph-name="Otilde" unicode="&#xd5;" horiz-adv-x="668" 
d="M154 836c19.333 38.667 41.001 67.667 65.001 87s48 29 72 29c12.667 0 25.167 -2 37.5 -6s24.666 -8.5 36.999 -13.5s24.666 -9.5 36.999 -13.5s24.833 -6 37.5 -6s24.667 3 36 9s23.666 16 36.999 30l24 -21c-18 -40 -39 -69.5 -63 -88.5s-48 -28.5 -72 -28.5
c-13.333 0 -26.166 2 -38.499 6s-24.666 8.33301 -36.999 13s-24.5 9 -36.5 13s-24.333 6 -37 6c-13.333 0 -26 -2.83301 -38 -8.5s-24.667 -15.167 -38 -28.5zM333.001 -10c-102 0 -178 31.167 -228 93.5s-75 157.5 -75 285.5c0 128.667 25 224.334 75 287.001
s126 94 228 94c103.333 0 180 -31.333 230 -94s75 -158.334 75 -287.001c0 -129.333 -24.833 -224.833 -74.5 -286.5s-126.5 -92.5 -230.5 -92.5zM333.001 125c25.333 0 46.6689 4.16797 64.002 12.501s31.5 22.166 42.5 41.499s18.833 44.5 23.5 75.5s7 69.167 7 114.5
c0 46 -2.33301 84.667 -7 116s-12.334 56.666 -23.001 75.999s-24.834 33.166 -42.501 41.499s-39.167 12.5 -64.5 12.5c-24.667 0 -45.667 -4.33301 -63 -13s-31.333 -22.667 -42 -42s-18.334 -44.666 -23.001 -75.999s-7 -69.666 -7 -114.999
c0 -44.667 2.33301 -82.5 7 -113.5s12.334 -56.167 23.001 -75.5s24.667 -33.333 42 -42s38.333 -13 63 -13z" />
    <glyph glyph-name="Odieresis" unicode="&#xd6;" horiz-adv-x="668" 
d="M211 801c-31.333 0 -53.833 6.83105 -67.5 20.498s-20.5 35.834 -20.5 66.501c0 30 6.83301 51.667 20.5 65s36.167 20 67.5 20c30.667 0 53.167 -6.66699 67.5 -20s21.5 -35 21.5 -65c0 -31.333 -7.16699 -53.666 -21.5 -66.999s-36.833 -20 -67.5 -20zM456 800.998
c-31.333 0 -53.833 6.83105 -67.5 20.498s-20.5 35.834 -20.5 66.501c0 30 6.83301 51.667 20.5 65s36.167 20 67.5 20c30.667 0 53.167 -6.66699 67.5 -20s21.5 -35 21.5 -65c0 -31.333 -7.16699 -53.666 -21.5 -66.999s-36.833 -20 -67.5 -20zM333 -10.0039
c-102 0 -178 31.167 -228 93.5s-75 157.5 -75 285.5c0 128.667 25 224.334 75 287.001s126 94 228 94c103.333 0 180 -31.333 230 -94s75 -158.334 75 -287.001c0 -129.333 -24.833 -224.833 -74.5 -286.5s-126.5 -92.5 -230.5 -92.5zM333 124.996
c25.333 0 46.6689 4.16797 64.002 12.501s31.5 22.166 42.5 41.499s18.833 44.5 23.5 75.5s7 69.167 7 114.5c0 46 -2.33301 84.667 -7 116s-12.334 56.666 -23.001 75.999s-24.834 33.166 -42.501 41.499s-39.167 12.5 -64.5 12.5c-24.667 0 -45.667 -4.33301 -63 -13
s-31.333 -22.667 -42 -42s-18.334 -44.666 -23.001 -75.999s-7 -69.666 -7 -114.999c0 -44.667 2.33301 -82.5 7 -113.5s12.334 -56.167 23.001 -75.5s24.667 -33.333 42 -42s38.333 -13 63 -13z" />
    <glyph glyph-name="multiply" unicode="&#xd7;" horiz-adv-x="491" 
d="M29 236l134 134l-134 135l82 81l134 -134l134 134l82 -81l-135 -135l135 -134l-81 -82l-135 135l-134 -135z" />
    <glyph glyph-name="Oslash" unicode="&#xd8;" horiz-adv-x="672" 
d="M87 113c-36 62 -54 147.332 -54 255.999c0 128.667 24.833 224.334 74.5 287.001s125.5 94 227.5 94c76 0 137.667 -17 185 -51l30 41h120l-84 -115c36 -62 54 -147.333 54 -256c0 -129.333 -24.833 -224.833 -74.5 -286.5s-126.5 -92.5 -230.5 -92.5
c-74 0 -134.333 16.333 -181 49l-29 -39h-121zM201 368.999c0 -18.667 0.333984 -35.835 1.00098 -51.502s1.66699 -30.5 3 -44.5l225 304c-21.333 25.333 -53 38 -95 38c-24.667 0 -45.5 -4.33301 -62.5 -13s-30.833 -22.667 -41.5 -42s-18.334 -44.666 -23.001 -75.999
s-7 -69.666 -7 -114.999zM335.001 124.998c25.333 0 46.667 4.16797 64 12.501s31.5 22.166 42.5 41.499s18.833 44.5 23.5 75.5s7 69.167 7 114.5c0 18 -0.5 35 -1.5 51s-2.16699 31 -3.5 45l-223 -304c20 -24 50.333 -36 91 -36z" />
    <glyph glyph-name="Ugrave" unicode="&#xd9;" horiz-adv-x="663" 
d="M265 789l-116 184h164l67 -173zM331 -10c-51.333 0 -94.833 6 -130.5 18s-64.5 30.167 -86.5 54.5s-38 55 -48 92s-15 80.167 -15 129.5v455h164v-445c0 -60 8.83301 -102.667 26.5 -128s47.5 -38 89.5 -38c21.333 0 39.5 3 54.5 9s27.167 15.5 36.5 28.5s16 30 20 51
s6 46.833 6 77.5v445h164v-455c0 -50 -5 -93.333 -15 -130s-26 -67.167 -48 -91.5s-50.833 -42.5 -86.5 -54.5s-79.5 -18 -131.5 -18z" />
    <glyph glyph-name="Uacute" unicode="&#xda;" horiz-adv-x="663" 
d="M262 798l66 175h164l-115 -184zM331 -10c-51.333 0 -94.833 6 -130.5 18s-64.5 30.167 -86.5 54.5s-38 55 -48 92s-15 80.167 -15 129.5v455h164v-445c0 -60 8.83301 -102.667 26.5 -128s47.5 -38 89.5 -38c21.333 0 39.5 3 54.5 9s27.167 15.5 36.5 28.5s16 30 20 51
s6 46.833 6 77.5v445h164v-455c0 -50 -5 -93.333 -15 -130s-26 -67.167 -48 -91.5s-50.833 -42.5 -86.5 -54.5s-79.5 -18 -131.5 -18z" />
    <glyph glyph-name="Ucircumflex" unicode="&#xdb;" horiz-adv-x="663" 
d="M331 -10c-51.333 0 -94.833 6 -130.5 18s-64.5 30.167 -86.5 54.5s-38 55 -48 92s-15 80.167 -15 129.5v455h164v-445c0 -60 8.83301 -102.667 26.5 -128s47.5 -38 89.5 -38c21.333 0 39.5 3 54.5 9s27.167 15.5 36.5 28.5s16 30 20 51s6 46.833 6 77.5v445h164v-455
c0 -50 -5 -93.333 -15 -130s-26 -67.167 -48 -91.5s-50.833 -42.5 -86.5 -54.5s-79.5 -18 -131.5 -18zM164 900l162 72l161 -72v-108l-162 72l-161 -72v108z" />
    <glyph glyph-name="Udieresis" unicode="&#xdc;" horiz-adv-x="663" 
d="M202 801c-31.333 0 -53.833 6.83105 -67.5 20.498s-20.5 35.834 -20.5 66.501c0 30 6.83301 51.667 20.5 65s36.167 20 67.5 20c30.667 0 53.167 -6.66699 67.5 -20s21.5 -35 21.5 -65c0 -31.333 -7.16699 -53.666 -21.5 -66.999s-36.833 -20 -67.5 -20zM447 800.998
c-31.333 0 -53.833 6.83105 -67.5 20.498s-20.5 35.834 -20.5 66.501c0 30 6.83301 51.667 20.5 65s36.167 20 67.5 20c30.667 0 53.167 -6.66699 67.5 -20s21.5 -35 21.5 -65c0 -31.333 -7.16699 -53.666 -21.5 -66.999s-36.833 -20 -67.5 -20zM331 -10.0039
c-51.333 0 -94.833 6 -130.5 18s-64.5 30.167 -86.5 54.5s-38 55 -48 92s-15 80.167 -15 129.5v455h164v-445c0 -60 8.83301 -102.667 26.5 -128s47.5 -38 89.5 -38c21.333 0 39.5 3 54.5 9s27.167 15.5 36.5 28.5s16 30 20 51s6 46.833 6 77.5v445h164v-455
c0 -50 -5 -93.333 -15 -130s-26 -67.167 -48 -91.5s-50.833 -42.5 -86.5 -54.5s-79.5 -18 -131.5 -18z" />
    <glyph glyph-name="Yacute" unicode="&#xdd;" horiz-adv-x="644" 
d="M240 252l-250 488h186l128 -284l14 -51h9l15 51l129 284h182l-249 -487v-253h-164v252zM260 798l66 175h164l-115 -184z" />
    <glyph glyph-name="Thorn" unicode="&#xde;" horiz-adv-x="590" 
d="M56 740h164.002v-110h24c57.333 0 106.666 -5 147.999 -15s75.166 -25.833 101.499 -47.5s45.833 -49.167 58.5 -82.5s19 -73 19 -119c0 -45.333 -6.16699 -84.5 -18.5 -117.5s-31.333 -60 -57 -81s-58.5 -36.5 -98.5 -46.5s-88 -15 -144 -15h-33v-106h-164v740z
M273.002 237c24 0 44.333 2.16699 61 6.5s30.167 11.5 40.5 21.5s17.666 23.333 21.999 40s6.5 37 6.5 61s-2.16699 44.333 -6.5 61s-11.666 30 -21.999 40s-24 17.333 -41 22s-38.167 7 -63.5 7h-9c-4.66699 0 -9.66699 -0.166992 -15 -0.5l-15.5 -1
c-5 -0.333008 -8.5 -0.5 -10.5 -0.5v-256c2 0 5.5 -0.166992 10.5 -0.5s10.333 -0.5 16 -0.5h16h10.5z" />
    <glyph glyph-name="germandbls" unicode="&#xdf;" horiz-adv-x="649" 
d="M47 571c0 83.333 20.8301 144.332 62.4971 182.999s107.5 58 197.5 58c90.667 0 156.667 -19.333 198 -58s62 -99.667 62 -183v-141h-76c-26 0 -45.833 -4.5 -59.5 -13.5s-20.5 -20.833 -20.5 -35.5c0 -16 5 -27.5 15 -34.5s23.667 -12.167 41 -15.5
s35.833 -7.33301 55.5 -12s37.834 -12.667 54.501 -24s30.5 -27.333 41.5 -48s16.5 -48 16.5 -82c0 -56 -18.333 -99.167 -55 -129.5s-89.334 -45.5 -158.001 -45.5c-52 0 -105.333 9.33301 -160 28v117c10.667 -4 22.334 -7.66699 35.001 -11s26 -6.33301 40 -9
s28 -4.66699 42 -6s27.333 -2 40 -2c42.667 0 64 15.333 64 46c0 14 -4.66699 25.167 -14 33.5s-24.666 14.166 -45.999 17.499c-16 2 -33.333 5 -52 9s-36 11.667 -52 23s-29.333 27.833 -40 49.5s-16 51.167 -16 88.5c0 44 12.833 81 38.5 111s60.834 49.667 105.501 59
v27c0 42.667 -7.33301 72.834 -22 90.501s-40.667 26.5 -78 26.5s-63.333 -8.66699 -78 -26s-22 -47.666 -22 -90.999v-571h-160v571z" />
    <glyph glyph-name="agrave" unicode="&#xe0;" horiz-adv-x="507" 
d="M167 -5c-22 0 -42.1699 3.83398 -60.5029 11.501s-34 18.5 -47 32.5s-23.167 30.833 -30.5 50.5s-11 41.5 -11 65.5c0 104.667 64.667 161 194 169l91 6v4c0 20 -1.16699 36.167 -3.5 48.5s-6.66602 22 -12.999 29s-15.166 11.667 -26.499 14s-26 3.5 -44 3.5
c-7.33301 0 -17.333 -0.333008 -30 -1s-26.167 -1.66699 -40.5 -3s-28.166 -2.83301 -41.499 -4.5s-24.333 -3.5 -33 -5.5l-10 115c30 5.33301 60.5 9.66602 91.5 12.999s60.833 5 89.5 5c77.333 0 133.333 -13.5 168 -40.5s52 -70.833 52 -131.5v-376h-132l-12 65h-8
c-16.667 -20.667 -37.5 -37.5 -62.5 -50.5s-51.833 -19.5 -80.5 -19.5zM226.997 111.001c11.333 0 24 3.5 38 10.5s26.667 14.167 38 21.5v92l-56 -6c-25.333 -2.66699 -43.333 -8.5 -54 -17.5s-16 -22.833 -16 -41.5s4.33301 -33.167 13 -43.5s21 -15.5 37 -15.5z
M195.997 610.001l-117 196h165l66 -186z" />
    <glyph glyph-name="aacute" unicode="&#xe1;" horiz-adv-x="507" 
d="M167 -5c-22 0 -42.1699 3.83398 -60.5029 11.501s-34 18.5 -47 32.5s-23.167 30.833 -30.5 50.5s-11 41.5 -11 65.5c0 104.667 64.667 161 194 169l91 6v4c0 20 -1.16699 36.167 -3.5 48.5s-6.66602 22 -12.999 29s-15.166 11.667 -26.499 14s-26 3.5 -44 3.5
c-7.33301 0 -17.333 -0.333008 -30 -1s-26.167 -1.66699 -40.5 -3s-28.166 -2.83301 -41.499 -4.5s-24.333 -3.5 -33 -5.5l-10 115c30 5.33301 60.5 9.66602 91.5 12.999s60.833 5 89.5 5c77.333 0 133.333 -13.5 168 -40.5s52 -70.833 52 -131.5v-376h-132l-12 65h-8
c-16.667 -20.667 -37.5 -37.5 -62.5 -50.5s-51.833 -19.5 -80.5 -19.5zM226.997 111.001c11.333 0 24 3.5 38 10.5s26.667 14.167 38 21.5v92l-56 -6c-25.333 -2.66699 -43.333 -8.5 -54 -17.5s-16 -22.833 -16 -41.5s4.33301 -33.167 13 -43.5s21 -15.5 37 -15.5z
M198.997 619.001l66 187h165l-116 -196z" />
    <glyph glyph-name="acircumflex" unicode="&#xe2;" horiz-adv-x="507" 
d="M167 -5c-22 0 -42.1699 3.83398 -60.5029 11.501s-34 18.5 -47 32.5s-23.167 30.833 -30.5 50.5s-11 41.5 -11 65.5c0 104.667 64.667 161 194 169l91 6v4c0 20 -1.16699 36.167 -3.5 48.5s-6.66602 22 -12.999 29s-15.166 11.667 -26.499 14s-26 3.5 -44 3.5
c-7.33301 0 -17.333 -0.333008 -30 -1s-26.167 -1.66699 -40.5 -3s-28.166 -2.83301 -41.499 -4.5s-24.333 -3.5 -33 -5.5l-10 115c30 5.33301 60.5 9.66602 91.5 12.999s60.833 5 89.5 5c77.333 0 133.333 -13.5 168 -40.5s52 -70.833 52 -131.5v-376h-132l-12 65h-8
c-16.667 -20.667 -37.5 -37.5 -62.5 -50.5s-51.833 -19.5 -80.5 -19.5zM226.997 111.001c11.333 0 24 3.5 38 10.5s26.667 14.167 38 21.5v92l-56 -6c-25.333 -2.66699 -43.333 -8.5 -54 -17.5s-16 -22.833 -16 -41.5s4.33301 -33.167 13 -43.5s21 -15.5 37 -15.5z
M103.997 721.001l162 71l161 -71v-108l-162 71l-161 -71v108z" />
    <glyph glyph-name="atilde" unicode="&#xe3;" horiz-adv-x="507" 
d="M167 -5c-22 0 -42.1699 3.83398 -60.5029 11.501s-34 18.5 -47 32.5s-23.167 30.833 -30.5 50.5s-11 41.5 -11 65.5c0 104.667 64.667 161 194 169l91 6v4c0 20 -1.16699 36.167 -3.5 48.5s-6.66602 22 -12.999 29s-15.166 11.667 -26.499 14s-26 3.5 -44 3.5
c-7.33301 0 -17.333 -0.333008 -30 -1s-26.167 -1.66699 -40.5 -3s-28.166 -2.83301 -41.499 -4.5s-24.333 -3.5 -33 -5.5l-10 115c30 5.33301 60.5 9.66602 91.5 12.999s60.833 5 89.5 5c77.333 0 133.333 -13.5 168 -40.5s52 -70.833 52 -131.5v-376h-132l-12 65h-8
c-16.667 -20.667 -37.5 -37.5 -62.5 -50.5s-51.833 -19.5 -80.5 -19.5zM226.997 111.001c11.333 0 24 3.5 38 10.5s26.667 14.167 38 21.5v92l-56 -6c-25.333 -2.66699 -43.333 -8.5 -54 -17.5s-16 -22.833 -16 -41.5s4.33301 -33.167 13 -43.5s21 -15.5 37 -15.5z
M72.9971 658.001c18.667 35.333 40.167 61.499 64.5 78.499s48.166 25.5 71.499 25.5c12.667 0 25.334 -2.83301 38.001 -8.5s25 -12 37 -19s24.167 -13.333 36.5 -19s24.833 -8.5 37.5 -8.5c11.333 0 22.166 3.16699 32.499 9.5s21.166 17.5 32.499 33.5l33 -37
c-18 -36.667 -39.167 -63.334 -63.5 -80.001s-48.5 -25 -72.5 -25c-12.667 0 -25.167 2.83301 -37.5 8.5s-24.666 11.834 -36.999 18.501s-24.666 12.834 -36.999 18.501s-24.833 8.5 -37.5 8.5c-11.333 0 -22.333 -3 -33 -9s-21.667 -16.333 -33 -31z" />
    <glyph glyph-name="adieresis" unicode="&#xe4;" horiz-adv-x="507" 
d="M167 -5c-22 0 -42.1699 3.83398 -60.5029 11.501s-34 18.5 -47 32.5s-23.167 30.833 -30.5 50.5s-11 41.5 -11 65.5c0 104.667 64.667 161 194 169l91 6v4c0 20 -1.16699 36.167 -3.5 48.5s-6.66602 22 -12.999 29s-15.166 11.667 -26.499 14s-26 3.5 -44 3.5
c-7.33301 0 -17.333 -0.333008 -30 -1s-26.167 -1.66699 -40.5 -3s-28.166 -2.83301 -41.499 -4.5s-24.333 -3.5 -33 -5.5l-10 115c30 5.33301 60.5 9.66602 91.5 12.999s60.833 5 89.5 5c77.333 0 133.333 -13.5 168 -40.5s52 -70.833 52 -131.5v-376h-132l-12 65h-8
c-16.667 -20.667 -37.5 -37.5 -62.5 -50.5s-51.833 -19.5 -80.5 -19.5zM226.997 111.001c11.333 0 24 3.5 38 10.5s26.667 14.167 38 21.5v92l-56 -6c-25.333 -2.66699 -43.333 -8.5 -54 -17.5s-16 -22.833 -16 -41.5s4.33301 -33.167 13 -43.5s21 -15.5 37 -15.5z
M142.997 614.001c-28 0 -48.333 6 -61 18s-19 31.667 -19 59s6.33301 47 19 59s33 18 61 18c27.333 0 47.5 -5.83301 60.5 -17.5s19.5 -31.5 19.5 -59.5c0 -27.333 -6.5 -47 -19.5 -59s-33.167 -18 -60.5 -18zM370.997 614.001c-28 0 -48.167 6 -60.5 18
s-18.5 31.667 -18.5 59s6.16699 47 18.5 59s32.5 18 60.5 18c27.333 0 47.5 -5.83301 60.5 -17.5s19.5 -31.5 19.5 -59.5c0 -27.333 -6.5 -47 -19.5 -59s-33.167 -18 -60.5 -18z" />
    <glyph glyph-name="aring" unicode="&#xe5;" horiz-adv-x="507" 
d="M167 -5c-22 0 -42.1699 3.83398 -60.5029 11.501s-34 18.5 -47 32.5s-23.167 30.833 -30.5 50.5s-11 41.5 -11 65.5c0 104.667 64.667 161 194 169l91 6v4c0 20 -1.16699 36.167 -3.5 48.5s-6.66602 22 -12.999 29s-15.166 11.667 -26.499 14s-26 3.5 -44 3.5
c-7.33301 0 -17.333 -0.333008 -30 -1s-26.167 -1.66699 -40.5 -3s-28.166 -2.83301 -41.499 -4.5s-24.333 -3.5 -33 -5.5l-10 115c30 5.33301 60.5 9.66602 91.5 12.999s60.833 5 89.5 5c77.333 0 133.333 -13.5 168 -40.5s52 -70.833 52 -131.5v-376h-132l-12 65h-8
c-16.667 -20.667 -37.5 -37.5 -62.5 -50.5s-51.833 -19.5 -80.5 -19.5zM226.997 111.001c11.333 0 24 3.5 38 10.5s26.667 14.167 38 21.5v92l-56 -6c-25.333 -2.66699 -43.333 -8.5 -54 -17.5s-16 -22.833 -16 -41.5s4.33301 -33.167 13 -43.5s21 -15.5 37 -15.5z
M253.997 594.001c-36 0 -65.001 10.5 -87.001 31.5s-33 47.833 -33 80.5c0 33.333 10.833 60.333 32.5 81s50.834 31 87.501 31s66 -10.333 88 -31s33 -47.667 33 -81c0 -32.667 -11.167 -59.5 -33.5 -80.5s-51.5 -31.5 -87.5 -31.5zM253.996 652.001
c15.333 0 27.666 5.16797 36.999 15.501s14 23.166 14 38.499c0 16 -4.66699 29 -14 39s-21.666 15 -36.999 15s-27.5 -5 -36.5 -15s-13.5 -23 -13.5 -39s4.5 -29 13.5 -39s21.167 -15 36.5 -15z" />
    <glyph glyph-name="ae" unicode="&#xe6;" horiz-adv-x="774" 
d="M547 -9c-42 0 -76.998 6.99902 -104.998 20.999s-51.667 36 -71 66h-9c-70 -55.333 -135 -83 -195 -83c-22 0 -42.167 3.83301 -60.5 11.5s-34 18.5 -47 32.5s-23.167 30.833 -30.5 50.5s-11 41.5 -11 65.5c0 104 64.667 160.333 194 169l91 6v27
c-1.33301 28 -8 47 -20 57s-34.333 15 -67 15c-8.66699 0 -19.667 -0.333008 -33 -1s-27 -1.66699 -41 -3s-27.5 -2.83301 -40.5 -4.5s-23.167 -3.5 -30.5 -5.5l-10 115c70.667 12 131 18 181 18c68 0 113.667 -20.667 137 -62h9c36.667 42 89.334 63 158.001 63
c69.333 0 120.166 -20.667 152.499 -62s48.5 -106 48.5 -194c0 -19.333 -0.333008 -34.166 -1 -44.499s-2 -21.166 -4 -32.499h-278c2 -38.667 9.66699 -65.834 23 -81.501s36.666 -23.5 69.999 -23.5c18 0 41.333 2.33301 70 7s61 11.667 97 21l5 -117
c-24.667 -9.33301 -53.834 -16.833 -87.501 -22.5s-65.167 -8.5 -94.5 -8.5zM227.002 110.999c11.333 0 23.499 3.33203 36.499 9.99902s27.167 15.334 42.5 26.001c-0.666992 2 -1.16699 7.16699 -1.5 15.5s-0.666016 17.333 -0.999023 27s-0.5 19 -0.5 28v17.5l-56 -6
c-25.333 -2.66699 -43.333 -8.5 -54 -17.5s-16 -22.833 -16 -41.5s4.33301 -33.167 13 -43.5s21 -15.5 37 -15.5zM606.001 313.998c-1.33301 42.667 -6.83203 72.667 -16.499 90s-25.834 26 -48.501 26c-24.667 0 -43.167 -9 -55.5 -27s-19.5 -47.667 -21.5 -89h142z" />
    <glyph glyph-name="ccedilla" unicode="&#xe7;" horiz-adv-x="421" 
d="M208 -220c-11.333 0 -24.0039 0.833008 -38.0039 2.5s-29.333 4.83398 -46 9.50098v94c12.667 -3.33301 24.667 -5.33301 36 -6s19 -1 23 -1c13.333 0 23 3.33301 29 10s9 14.667 9 24c0 11.333 -3 25 -9 41s-14.667 32.667 -26 50
c-53.333 15.333 -93.166 44.5 -119.499 87.5s-39.5 102.5 -39.5 178.5c0 96.667 21.833 167.334 65.5 212.001s109.5 67 197.5 67c18 0 35.833 -1.33301 53.5 -4s33.834 -6.66699 48.501 -12v-124c-33.333 7.33301 -61.666 11 -84.999 11c-42 0 -71.833 -11.5 -89.5 -34.5
s-26.5 -61.167 -26.5 -114.5c0 -54 8.83301 -92.833 26.5 -116.5s47.167 -35.5 88.5 -35.5c14.667 0 28.834 0.833008 42.501 2.5s28.167 4.5 43.5 8.5v-123c-13.333 -4.66699 -28.5 -8.33398 -45.5 -11.001s-34.167 -4.33398 -51.5 -5.00098
c11.333 -18.667 19.333 -36.167 24 -52.5s7 -33.833 7 -52.5c0 -32 -10 -57.667 -30 -77s-49.333 -29 -88 -29z" />
    <glyph glyph-name="egrave" unicode="&#xe8;" horiz-adv-x="497" 
d="M270 -9c-80.667 0 -141.33 22.998 -181.997 68.998s-61 114 -61 204c0 94.667 20.167 165.834 60.5 213.501s100.833 71.5 181.5 71.5c69.333 0 120.166 -20.667 152.499 -62s48.5 -106 48.5 -194c0 -19.333 -0.333008 -34.166 -1 -44.499s-2 -21.166 -4 -32.499h-277
c1.33301 -20.667 4 -37.834 8 -51.501s9.5 -24.5 16.5 -32.5s16 -13.5 27 -16.5s24.167 -4.5 39.5 -4.5c19.333 0 43.666 2.5 72.999 7.5s61 11.833 95 20.5l5 -117c-24.667 -9.33301 -53.834 -16.833 -87.501 -22.5s-65.167 -8.5 -94.5 -8.5zM265.004 429.998
c-24.667 0 -42.833 -8.66699 -54.5 -26s-19.167 -47 -22.5 -89h141c-1.33301 42 -6.83301 71.667 -16.5 89s-25.5 26 -47.5 26zM191.005 609.998l-117 196h165l66 -186z" />
    <glyph glyph-name="eacute" unicode="&#xe9;" horiz-adv-x="497" 
d="M197 619l66 187h165l-116 -196zM270 -9c-80.667 0 -141.33 22.998 -181.997 68.998s-61 114 -61 204c0 94.667 20.167 165.834 60.5 213.501s100.833 71.5 181.5 71.5c69.333 0 120.166 -20.667 152.499 -62s48.5 -106 48.5 -194c0 -19.333 -0.333008 -34.166 -1 -44.499
s-2 -21.166 -4 -32.499h-277c1.33301 -20.667 4 -37.834 8 -51.501s9.5 -24.5 16.5 -32.5s16 -13.5 27 -16.5s24.167 -4.5 39.5 -4.5c19.333 0 43.666 2.5 72.999 7.5s61 11.833 95 20.5l5 -117c-24.667 -9.33301 -53.834 -16.833 -87.501 -22.5s-65.167 -8.5 -94.5 -8.5z
M265.004 429.998c-24.667 0 -42.833 -8.66699 -54.5 -26s-19.167 -47 -22.5 -89h141c-1.33301 42 -6.83301 71.667 -16.5 89s-25.5 26 -47.5 26z" />
    <glyph glyph-name="ecircumflex" unicode="&#xea;" horiz-adv-x="497" 
d="M101 721l162 71l161 -71v-108l-162 71l-161 -71v108zM270 -9c-80.667 0 -141.33 22.998 -181.997 68.998s-61 114 -61 204c0 94.667 20.167 165.834 60.5 213.501s100.833 71.5 181.5 71.5c69.333 0 120.166 -20.667 152.499 -62s48.5 -106 48.5 -194
c0 -19.333 -0.333008 -34.166 -1 -44.499s-2 -21.166 -4 -32.499h-277c1.33301 -20.667 4 -37.834 8 -51.501s9.5 -24.5 16.5 -32.5s16 -13.5 27 -16.5s24.167 -4.5 39.5 -4.5c19.333 0 43.666 2.5 72.999 7.5s61 11.833 95 20.5l5 -117
c-24.667 -9.33301 -53.834 -16.833 -87.501 -22.5s-65.167 -8.5 -94.5 -8.5zM265.004 429.998c-24.667 0 -42.833 -8.66699 -54.5 -26s-19.167 -47 -22.5 -89h141c-1.33301 42 -6.83301 71.667 -16.5 89s-25.5 26 -47.5 26z" />
    <glyph glyph-name="edieresis" unicode="&#xeb;" horiz-adv-x="497" 
d="M140 614c-28 0 -48.333 6 -61 18s-19 31.667 -19 59s6.33301 47 19 59s33 18 61 18c27.333 0 47.5 -5.83301 60.5 -17.5s19.5 -31.5 19.5 -59.5c0 -27.333 -6.5 -47 -19.5 -59s-33.167 -18 -60.5 -18zM368 614c-28 0 -48.167 6 -60.5 18s-18.5 31.667 -18.5 59
s6.16699 47 18.5 59s32.5 18 60.5 18c27.333 0 47.5 -5.83301 60.5 -17.5s19.5 -31.5 19.5 -59.5c0 -27.333 -6.5 -47 -19.5 -59s-33.167 -18 -60.5 -18zM270 -9c-80.667 0 -141.33 22.998 -181.997 68.998s-61 114 -61 204c0 94.667 20.167 165.834 60.5 213.501
s100.833 71.5 181.5 71.5c69.333 0 120.166 -20.667 152.499 -62s48.5 -106 48.5 -194c0 -19.333 -0.333008 -34.166 -1 -44.499s-2 -21.166 -4 -32.499h-277c1.33301 -20.667 4 -37.834 8 -51.501s9.5 -24.5 16.5 -32.5s16 -13.5 27 -16.5s24.167 -4.5 39.5 -4.5
c19.333 0 43.666 2.5 72.999 7.5s61 11.833 95 20.5l5 -117c-24.667 -9.33301 -53.834 -16.833 -87.501 -22.5s-65.167 -8.5 -94.5 -8.5zM265.004 429.998c-24.667 0 -42.833 -8.66699 -54.5 -26s-19.167 -47 -22.5 -89h141c-1.33301 42 -6.83301 71.667 -16.5 89
s-25.5 26 -47.5 26z" />
    <glyph glyph-name="igrave" unicode="&#xec;" horiz-adv-x="255" 
d="M49 540h159v-540h-159v540zM72 610l-117 196h165l66 -186z" />
    <glyph glyph-name="iacute" unicode="&#xed;" horiz-adv-x="255" 
d="M74 619l66 187h165l-116 -196zM48 540h159v-540h-159v540z" />
    <glyph glyph-name="icircumflex" unicode="&#xee;" horiz-adv-x="257" 
d="M-19 721l162 71l160 -71v-108l-161 71l-161 -71v108zM49 540h159v-540h-159v540z" />
    <glyph glyph-name="idieresis" unicode="&#xef;" horiz-adv-x="257" 
d="M19 614c-28 0 -48.167 6 -60.5 18s-18.5 31.667 -18.5 59s6.16699 47 18.5 59s32.5 18 60.5 18c27.333 0 47.666 -5.83301 60.999 -17.5s20 -31.5 20 -59.5c0 -27.333 -6.66699 -47 -20 -59s-33.666 -18 -60.999 -18zM248 614c-28 0 -48.333 6 -61 18s-19 31.667 -19 59
s6.33301 47 19 59s33 18 61 18c26.667 0 46.5 -5.83301 59.5 -17.5s19.5 -31.5 19.5 -59.5c0 -27.333 -6.5 -47 -19.5 -59s-32.833 -18 -59.5 -18zM49 540h159v-540h-159v540z" />
    <glyph glyph-name="eth" unicode="&#xf0;" horiz-adv-x="539" 
d="M172 701l77 8.99805c-10.667 18 -22 35.167 -34 51.5s-24.667 31.833 -38 46.5h164c10.667 -13.333 20.667 -26.833 30 -40.5s18.333 -27.5 27 -41.5l129 15v-98l-83 -10c20.667 -51.333 36 -106.666 46 -165.999s15 -125 15 -197c0 -92.667 -20.167 -162.5 -60.5 -209.5
s-99.833 -70.5 -178.5 -70.5s-138.167 23.667 -178.5 71s-60.5 117 -60.5 209c0 92.667 20.167 162.5 60.5 209.5s99.833 70.5 178.5 70.5c11.333 0 22.5 -1.66699 33.5 -5s21.167 -8.66602 30.5 -15.999l-15.5 44.5c-5 14.333 -10.833 28.833 -17.5 43.5l-125 -14v98z
M266 111.998c15.333 0 28.167 2.33594 38.5 7.00293s18.5 12.834 24.5 24.501s10.167 27.667 12.5 48s3.5 46.5 3.5 78.5c0 29.333 -1 54.166 -3 74.499s-6 36.666 -12 48.999s-14.167 21.166 -24.5 26.499s-23.5 8 -39.5 8s-29 -2.16699 -39 -6.5s-18 -12.333 -24 -24
s-10.167 -27.834 -12.5 -48.501s-3.5 -47 -3.5 -79c0 -32.667 1.16699 -59.167 3.5 -79.5s6.5 -36.333 12.5 -48s14 -19.667 24 -24s23 -6.5 39 -6.5z" />
    <glyph glyph-name="ntilde" unicode="&#xf1;" horiz-adv-x="536" 
d="M47 540l134.999 -0.000976562l9 -58h4l55.5 33.5c15.667 9 30 16 43 21s25.333 8.5 37 10.5s24.5 3 38.5 3c38 0 67.833 -12.667 89.5 -38s32.5 -60.666 32.5 -105.999v-406h-159v349c0 22.667 -4.16699 38.667 -12.5 48s-19.166 14 -32.499 14
c-12 0 -24.833 -2.66699 -38.5 -8s-27.5 -12.333 -41.5 -21v-382h-160v540zM89.999 657.999c18.667 35.333 40.167 61.499 64.5 78.499s48.166 25.5 71.499 25.5c12.667 0 25.334 -2.83301 38.001 -8.5s25 -12 37 -19s24.167 -13.333 36.5 -19s24.833 -8.5 37.5 -8.5
c11.333 0 22.166 3.16699 32.499 9.5s21.166 17.5 32.499 33.5l33 -37c-18 -36.667 -39.167 -63.334 -63.5 -80.001s-48.5 -25 -72.5 -25c-12.667 0 -25.167 2.83301 -37.5 8.5s-24.666 11.834 -36.999 18.501s-24.666 12.834 -36.999 18.501s-24.833 8.5 -37.5 8.5
c-11.333 0 -22.333 -3 -33 -9s-21.667 -16.333 -33 -31z" />
    <glyph glyph-name="ograve" unicode="&#xf2;" horiz-adv-x="533" 
d="M266 -10c-78.667 0 -138.167 23.667 -178.5 71s-60.5 117 -60.5 209c0 92.667 20.167 162.5 60.5 209.5s99.833 70.5 178.5 70.5s138.167 -23.5 178.5 -70.5s60.5 -116.833 60.5 -209.5s-20.167 -162.5 -60.5 -209.5s-99.833 -70.5 -178.5 -70.5zM266 112
c16 0 29 2.16699 39 6.5s18 12.5 24 24.5s10.167 28.167 12.5 48.5s3.5 46.5 3.5 78.5s-1.16699 58.167 -3.5 78.5s-6.5 36.5 -12.5 48.5s-14 20.167 -24 24.5s-23 6.5 -39 6.5s-29 -2.16699 -39 -6.5s-18 -12.5 -24 -24.5s-10.167 -28.167 -12.5 -48.5
s-3.5 -46.5 -3.5 -78.5s1.16699 -58.167 3.5 -78.5s6.5 -36.5 12.5 -48.5s14 -20.167 24 -24.5s23 -6.5 39 -6.5zM207 610l-117 196h165l66 -186z" />
    <glyph glyph-name="oacute" unicode="&#xf3;" horiz-adv-x="533" 
d="M209 619l66 187h165l-116 -196zM266 -10c-78.667 0 -138.167 23.667 -178.5 71s-60.5 117 -60.5 209c0 92.667 20.167 162.5 60.5 209.5s99.833 70.5 178.5 70.5s138.167 -23.5 178.5 -70.5s60.5 -116.833 60.5 -209.5s-20.167 -162.5 -60.5 -209.5
s-99.833 -70.5 -178.5 -70.5zM266 112c16 0 29 2.16699 39 6.5s18 12.5 24 24.5s10.167 28.167 12.5 48.5s3.5 46.5 3.5 78.5s-1.16699 58.167 -3.5 78.5s-6.5 36.5 -12.5 48.5s-14 20.167 -24 24.5s-23 6.5 -39 6.5s-29 -2.16699 -39 -6.5s-18 -12.5 -24 -24.5
s-10.167 -28.167 -12.5 -48.5s-3.5 -46.5 -3.5 -78.5s1.16699 -58.167 3.5 -78.5s6.5 -36.5 12.5 -48.5s14 -20.167 24 -24.5s23 -6.5 39 -6.5z" />
    <glyph glyph-name="ocircumflex" unicode="&#xf4;" horiz-adv-x="533" 
d="M115 721l162 71l161 -71v-108l-162 71l-161 -71v108zM266 -10c-78.667 0 -138.167 23.667 -178.5 71s-60.5 117 -60.5 209c0 92.667 20.167 162.5 60.5 209.5s99.833 70.5 178.5 70.5s138.167 -23.5 178.5 -70.5s60.5 -116.833 60.5 -209.5s-20.167 -162.5 -60.5 -209.5
s-99.833 -70.5 -178.5 -70.5zM266 112c16 0 29 2.16699 39 6.5s18 12.5 24 24.5s10.167 28.167 12.5 48.5s3.5 46.5 3.5 78.5s-1.16699 58.167 -3.5 78.5s-6.5 36.5 -12.5 48.5s-14 20.167 -24 24.5s-23 6.5 -39 6.5s-29 -2.16699 -39 -6.5s-18 -12.5 -24 -24.5
s-10.167 -28.167 -12.5 -48.5s-3.5 -46.5 -3.5 -78.5s1.16699 -58.167 3.5 -78.5s6.5 -36.5 12.5 -48.5s14 -20.167 24 -24.5s23 -6.5 39 -6.5z" />
    <glyph glyph-name="otilde" unicode="&#xf5;" horiz-adv-x="533" 
d="M266 -10c-78.667 0 -138.167 23.667 -178.5 71s-60.5 117 -60.5 209c0 92.667 20.167 162.5 60.5 209.5s99.833 70.5 178.5 70.5s138.167 -23.5 178.5 -70.5s60.5 -116.833 60.5 -209.5s-20.167 -162.5 -60.5 -209.5s-99.833 -70.5 -178.5 -70.5zM266 112
c16 0 29 2.16699 39 6.5s18 12.5 24 24.5s10.167 28.167 12.5 48.5s3.5 46.5 3.5 78.5s-1.16699 58.167 -3.5 78.5s-6.5 36.5 -12.5 48.5s-14 20.167 -24 24.5s-23 6.5 -39 6.5s-29 -2.16699 -39 -6.5s-18 -12.5 -24 -24.5s-10.167 -28.167 -12.5 -48.5
s-3.5 -46.5 -3.5 -78.5s1.16699 -58.167 3.5 -78.5s6.5 -36.5 12.5 -48.5s14 -20.167 24 -24.5s23 -6.5 39 -6.5zM84 658c18.667 35.333 40.167 61.499 64.5 78.499s48.166 25.5 71.499 25.5c12.667 0 25.334 -2.83301 38.001 -8.5s25 -12 37 -19s24.167 -13.333 36.5 -19
s24.833 -8.5 37.5 -8.5c11.333 0 22.166 3.16699 32.499 9.5s21.166 17.5 32.499 33.5l33 -37c-18 -36.667 -39.167 -63.334 -63.5 -80.001s-48.5 -25 -72.5 -25c-12.667 0 -25.167 2.83301 -37.5 8.5s-24.666 11.834 -36.999 18.501s-24.666 12.834 -36.999 18.501
s-24.833 8.5 -37.5 8.5c-11.333 0 -22.333 -3 -33 -9s-21.667 -16.333 -33 -31z" />
    <glyph glyph-name="odieresis" unicode="&#xf6;" horiz-adv-x="533" 
d="M154 614c-28 0 -48.333 6 -61 18s-19 31.667 -19 59s6.33301 47 19 59s33 18 61 18c27.333 0 47.5 -5.83301 60.5 -17.5s19.5 -31.5 19.5 -59.5c0 -27.333 -6.5 -47 -19.5 -59s-33.167 -18 -60.5 -18zM382 614c-28 0 -48.167 6 -60.5 18s-18.5 31.667 -18.5 59
s6.16699 47 18.5 59s32.5 18 60.5 18c27.333 0 47.5 -5.83301 60.5 -17.5s19.5 -31.5 19.5 -59.5c0 -27.333 -6.5 -47 -19.5 -59s-33.167 -18 -60.5 -18zM266 -10c-78.667 0 -138.167 23.667 -178.5 71s-60.5 117 -60.5 209c0 92.667 20.167 162.5 60.5 209.5
s99.833 70.5 178.5 70.5s138.167 -23.5 178.5 -70.5s60.5 -116.833 60.5 -209.5s-20.167 -162.5 -60.5 -209.5s-99.833 -70.5 -178.5 -70.5zM266 112c16 0 29 2.16699 39 6.5s18 12.5 24 24.5s10.167 28.167 12.5 48.5s3.5 46.5 3.5 78.5s-1.16699 58.167 -3.5 78.5
s-6.5 36.5 -12.5 48.5s-14 20.167 -24 24.5s-23 6.5 -39 6.5s-29 -2.16699 -39 -6.5s-18 -12.5 -24 -24.5s-10.167 -28.167 -12.5 -48.5s-3.5 -46.5 -3.5 -78.5s1.16699 -58.167 3.5 -78.5s6.5 -36.5 12.5 -48.5s14 -20.167 24 -24.5s23 -6.5 39 -6.5z" />
    <glyph glyph-name="divide" unicode="&#xf7;" horiz-adv-x="515" 
d="M260 110c-21.333 0 -39 6.16699 -53 18.5s-21 31.166 -21 56.499c0 24.667 7 43 21 55s31.667 18 53 18s38.833 -6 52.5 -18s20.5 -30.333 20.5 -55c0 -25.333 -6.83301 -44.166 -20.5 -56.499s-31.167 -18.5 -52.5 -18.5zM31 427h453v-114h-453v114zM260 481
c-21.333 0 -39 5.83301 -53 17.5s-21 29.834 -21 54.501c0 25.333 7 44.333 21 57s31.667 19 53 19s38.833 -6.33301 52.5 -19s20.5 -31.667 20.5 -57c0 -24.667 -6.83301 -42.834 -20.5 -54.501s-31.167 -17.5 -52.5 -17.5z" />
    <glyph glyph-name="oslash" unicode="&#xf8;" horiz-adv-x="539" 
d="M72 88c-27.333 46.667 -40.999 107.332 -40.999 181.999c0 92.667 20.167 162.5 60.5 209.5s99.833 70.5 178.5 70.5c60 0 108.667 -14 146 -42l26 32h96l-71 -87c13.333 -23.333 23.666 -50.166 30.999 -80.499s11 -64.5 11 -102.5
c0 -92.667 -20.167 -162.5 -60.5 -209.5s-99.833 -70.5 -178.5 -70.5c-60.667 0 -110 14 -148 42l-26 -32h-96zM270.001 111.998c15.333 0 28.167 2.16699 38.5 6.5s18.5 12.5 24.5 24.5s10.167 28.167 12.5 48.5s3.5 46.5 3.5 78.5v20c0 6 -0.333008 12 -1 18l-139 -170
c6 -10 13.833 -16.833 23.5 -20.5s22.167 -5.5 37.5 -5.5zM191.002 233.998l138 168c-6 9.33301 -13.833 16 -23.5 20s-21.5 6 -35.5 6c-16 0 -29.167 -2.16699 -39.5 -6.5s-18.333 -12.5 -24 -24.5s-9.66699 -28.167 -12 -48.5s-3.5 -46.5 -3.5 -78.5v-36z" />
    <glyph glyph-name="ugrave" unicode="&#xf9;" horiz-adv-x="535" 
d="M184 -10c-43.333 0 -77.498 12.833 -102.498 38.5s-37.5 60.834 -37.5 105.501v406h160v-353c0 -21.333 4 -36.833 12 -46.5s20.333 -14.5 37 -14.5c11.333 0 22.666 2.16699 33.999 6.5s25 12.166 41 23.499v384h160v-540h-135l-9 55h-4
c-19.333 -12.667 -36 -23.167 -50 -31.5s-26.833 -15 -38.5 -20s-22.834 -8.5 -33.501 -10.5s-22 -3 -34 -3zM206.002 610l-117 196h165l66 -186z" />
    <glyph glyph-name="uacute" unicode="&#xfa;" horiz-adv-x="535" 
d="M209 619l66 187h165l-116 -196zM184 -10c-43.333 0 -77.498 12.833 -102.498 38.5s-37.5 60.834 -37.5 105.501v406h160v-353c0 -21.333 4 -36.833 12 -46.5s20.333 -14.5 37 -14.5c11.333 0 22.666 2.16699 33.999 6.5s25 12.166 41 23.499v384h160v-540h-135l-9 55h-4
c-19.333 -12.667 -36 -23.167 -50 -31.5s-26.833 -15 -38.5 -20s-22.834 -8.5 -33.501 -10.5s-22 -3 -34 -3z" />
    <glyph glyph-name="ucircumflex" unicode="&#xfb;" horiz-adv-x="535" 
d="M115 721l162 71l161 -71v-108l-162 71l-161 -71v108zM184 -10c-43.333 0 -77.498 12.833 -102.498 38.5s-37.5 60.834 -37.5 105.501v406h160v-353c0 -21.333 4 -36.833 12 -46.5s20.333 -14.5 37 -14.5c11.333 0 22.666 2.16699 33.999 6.5s25 12.166 41 23.499v384h160
v-540h-135l-9 55h-4c-19.333 -12.667 -36 -23.167 -50 -31.5s-26.833 -15 -38.5 -20s-22.834 -8.5 -33.501 -10.5s-22 -3 -34 -3z" />
    <glyph glyph-name="udieresis" unicode="&#xfc;" horiz-adv-x="535" 
d="M153 614c-28 0 -48.333 6 -61 18s-19 31.667 -19 59s6.33301 47 19 59s33 18 61 18c27.333 0 47.5 -5.83301 60.5 -17.5s19.5 -31.5 19.5 -59.5c0 -27.333 -6.5 -47 -19.5 -59s-33.167 -18 -60.5 -18zM381 614c-28 0 -48.167 6 -60.5 18s-18.5 31.667 -18.5 59
s6.16699 47 18.5 59s32.5 18 60.5 18c27.333 0 47.5 -5.83301 60.5 -17.5s19.5 -31.5 19.5 -59.5c0 -27.333 -6.5 -47 -19.5 -59s-33.167 -18 -60.5 -18zM184 -10c-43.333 0 -77.498 12.833 -102.498 38.5s-37.5 60.834 -37.5 105.501v406h160v-353
c0 -21.333 4 -36.833 12 -46.5s20.333 -14.5 37 -14.5c11.333 0 22.666 2.16699 33.999 6.5s25 12.166 41 23.499v384h160v-540h-135l-9 55h-4c-19.333 -12.667 -36 -23.167 -50 -31.5s-26.833 -15 -38.5 -20s-22.834 -8.5 -33.501 -10.5s-22 -3 -34 -3z" />
    <glyph glyph-name="yacute" unicode="&#xfd;" horiz-adv-x="534" 
d="M125 -187v7l59 180l-183 528v12h162l86 -310l12 -72h10l13 72l86 310h162v-12l-247 -748zM211 619l66 187h165l-116 -196z" />
    <glyph glyph-name="thorn" unicode="&#xfe;" horiz-adv-x="540" 
d="M47 808h160v-317c18 20 38.833 34.667 62.5 44s47.5 14 71.5 14c114.667 0 172 -86.667 172 -260c0 -198.667 -84.667 -298 -254 -298c-7.33301 0 -15 0.333008 -23 1s-17.667 1.66699 -29 3v-215h-160v1028zM260 97c16.667 0 30.8311 2.66504 42.498 7.99805
s20.834 14.5 27.501 27.5s11.5 30.5 14.5 52.5s4.5 50 4.5 84c0 32.667 -1.16699 59.834 -3.5 81.501s-6.16602 38.834 -11.499 51.501s-12.333 21.5 -21 26.5s-19.667 7.5 -33 7.5c-12.667 0 -23.5 -2.83301 -32.5 -8.5s-16.5 -15.167 -22.5 -28.5s-10.5 -31.5 -13.5 -54.5
s-4.5 -51.833 -4.5 -86.5v-150c13.333 -7.33301 31 -11 53 -11z" />
    <glyph glyph-name="ydieresis" unicode="&#xff;" horiz-adv-x="534" 
d="M125 -187v7l59 180l-183 528v12h162l86 -310l12 -72h10l13 72l86 310h162v-12l-247 -748zM156 614c-28 0 -48.333 6 -61 18s-19 31.667 -19 59s6.33301 47 19 59s33 18 61 18c27.333 0 47.5 -5.83301 60.5 -17.5s19.5 -31.5 19.5 -59.5c0 -27.333 -6.5 -47 -19.5 -59
s-33.167 -18 -60.5 -18zM384 614c-28 0 -48.167 6 -60.5 18s-18.5 31.667 -18.5 59s6.16699 47 18.5 59s32.5 18 60.5 18c27.333 0 47.5 -5.83301 60.5 -17.5s19.5 -31.5 19.5 -59.5c0 -27.333 -6.5 -47 -19.5 -59s-33.167 -18 -60.5 -18z" />
    <glyph glyph-name="Amacron" unicode="&#x100;" horiz-adv-x="620" 
d="M-1 7l187 733h248l187 -733v-7h-154l-46 177h-223l-45 -177h-154v7zM390 308l-49 200l-26 109h-11l-25 -109l-50 -200h161zM151 944h317v-107h-317v107z" />
    <glyph glyph-name="amacron" unicode="&#x101;" horiz-adv-x="507" 
d="M167 -5c-22 0 -42.1699 3.83398 -60.5029 11.501s-34 18.5 -47 32.5s-23.167 30.833 -30.5 50.5s-11 41.5 -11 65.5c0 104.667 64.667 161 194 169l91 6v4c0 20 -1.16699 36.167 -3.5 48.5s-6.66602 22 -12.999 29s-15.166 11.667 -26.499 14s-26 3.5 -44 3.5
c-7.33301 0 -17.333 -0.333008 -30 -1s-26.167 -1.66699 -40.5 -3s-28.166 -2.83301 -41.499 -4.5s-24.333 -3.5 -33 -5.5l-10 115c30 5.33301 60.5 9.66602 91.5 12.999s60.833 5 89.5 5c77.333 0 133.333 -13.5 168 -40.5s52 -70.833 52 -131.5v-376h-132l-12 65h-8
c-16.667 -20.667 -37.5 -37.5 -62.5 -50.5s-51.833 -19.5 -80.5 -19.5zM226.997 111.001c11.333 0 24 3.5 38 10.5s26.667 14.167 38 21.5v92l-56 -6c-25.333 -2.66699 -43.333 -8.5 -54 -17.5s-16 -22.833 -16 -41.5s4.33301 -33.167 13 -43.5s21 -15.5 37 -15.5z
M96.9971 722.001h321v-98h-321v98z" />
    <glyph glyph-name="Abreve" unicode="&#x102;" horiz-adv-x="620" 
d="M-1 7l187 733h248l187 -733v-7h-154l-46 177h-223l-45 -177h-154v7zM390 308l-49 200l-26 109h-11l-25 -109l-50 -200h161zM312 795c-58.667 0 -102.999 15.5 -132.999 46.5s-45 73.833 -45 128.5h109c0 -36 5 -61.5 15 -76.5s28 -22.5 54 -22.5
c25.333 0 43.166 7.5 53.499 22.5s15.5 40.5 15.5 76.5h110c0 -54 -15.333 -96.667 -46 -128s-75 -47 -133 -47z" />
    <glyph glyph-name="abreve" unicode="&#x103;" horiz-adv-x="507" 
d="M167 -5c-22 0 -42.1699 3.83398 -60.5029 11.501s-34 18.5 -47 32.5s-23.167 30.833 -30.5 50.5s-11 41.5 -11 65.5c0 104.667 64.667 161 194 169l91 6v4c0 20 -1.16699 36.167 -3.5 48.5s-6.66602 22 -12.999 29s-15.166 11.667 -26.499 14s-26 3.5 -44 3.5
c-7.33301 0 -17.333 -0.333008 -30 -1s-26.167 -1.66699 -40.5 -3s-28.166 -2.83301 -41.499 -4.5s-24.333 -3.5 -33 -5.5l-10 115c30 5.33301 60.5 9.66602 91.5 12.999s60.833 5 89.5 5c77.333 0 133.333 -13.5 168 -40.5s52 -70.833 52 -131.5v-376h-132l-12 65h-8
c-16.667 -20.667 -37.5 -37.5 -62.5 -50.5s-51.833 -19.5 -80.5 -19.5zM226.997 111.001c11.333 0 24 3.5 38 10.5s26.667 14.167 38 21.5v92l-56 -6c-25.333 -2.66699 -43.333 -8.5 -54 -17.5s-16 -22.833 -16 -41.5s4.33301 -33.167 13 -43.5s21 -15.5 37 -15.5z
M256.997 612.001c-112.667 0 -172.001 53.333 -178.001 160h108c0.666992 -50.667 24 -76 70 -76c44 0 67 25.333 69 76h109c-7.33301 -106.667 -66.666 -160 -177.999 -160z" />
    <glyph glyph-name="Aogonek" unicode="&#x104;" horiz-adv-x="620" 
d="M535 -220c-82 0 -123.001 33.3359 -123.001 100.003c0 22.667 5.66699 43 17 61s31 37.667 59 59h-21l-46 177h-223l-45 -177h-154v7l187 733h248l187 -733v-15c-20 -7.33301 -36.667 -15.333 -50 -24s-24.166 -17.334 -32.499 -26.001s-14.333 -16.834 -18 -24.501
s-5.5 -14.5 -5.5 -20.5c0 -8.66699 3.5 -14.834 10.5 -18.501s16.167 -5.5 27.5 -5.5s23.166 1.16699 35.499 3.5s23.166 5.16602 32.499 8.49902v-93c-15.333 -3.33301 -29.666 -6.16602 -42.999 -8.49902s-27.666 -3.5 -42.999 -3.5zM389.999 308.003l-49 200l-26 109h-11
l-25 -109l-50 -200h161z" />
    <glyph glyph-name="aogonek" unicode="&#x105;" horiz-adv-x="507" 
d="M376 -220c-82 0 -123.004 33.3369 -123.004 100.004c0 22.667 5.83301 43 17.5 61s31.5 37.667 59.5 59l-12 65h-8c-16.667 -20.667 -37.5 -37.5 -62.5 -50.5s-51.833 -19.5 -80.5 -19.5c-22 0 -42.167 3.83301 -60.5 11.5s-34 18.5 -47 32.5s-23.167 30.833 -30.5 50.5
s-11 41.5 -11 65.5c0 104.667 64.667 161 194 169l91 6v4c0 20 -1.16699 36.167 -3.5 48.5s-6.66602 22 -12.999 29s-15.166 11.667 -26.499 14s-26 3.5 -44 3.5c-7.33301 0 -17.333 -0.333008 -30 -1s-26.167 -1.66699 -40.5 -3s-28.166 -2.83301 -41.499 -4.5
s-24.333 -3.5 -33 -5.5l-10 115c30 5.33301 60.5 9.66602 91.5 12.999s60.833 5 89.5 5c77.333 0 133.333 -13.5 168 -40.5s52 -70.833 52 -131.5v-384c-20 -7.33301 -36.667 -15.333 -50 -24s-24.166 -17.334 -32.499 -26.001s-14.333 -16.834 -18 -24.501
s-5.5 -14.5 -5.5 -20.5c0 -8.66699 3.5 -14.834 10.5 -18.501s16.167 -5.5 27.5 -5.5s23.166 1.16699 35.499 3.5s23.166 5.16602 32.499 8.49902v-93c-15.333 -3.33301 -29.666 -6.16602 -42.999 -8.49902s-27.666 -3.5 -42.999 -3.5zM226.996 111.004
c11.333 0 24 3.5 38 10.5s26.667 14.167 38 21.5v92l-56 -6c-25.333 -2.66699 -43.333 -8.5 -54 -17.5s-16 -22.833 -16 -41.5s4.33301 -33.167 13 -43.5s21 -15.5 37 -15.5z" />
    <glyph glyph-name="Cacute" unicode="&#x106;" horiz-adv-x="503" 
d="M335 -9c-101.333 0 -177.502 30.666 -228.502 91.999s-76.5 157 -76.5 287c0 130.667 25.667 226.5 77 287.5s126.666 91.5 225.999 91.5c46.667 0 94.667 -5.33301 144 -16v-130c-20 3.33301 -40.5 6 -61.5 8s-40.167 3 -57.5 3c-29.333 0 -54.166 -3.5 -74.499 -10.5
s-36.666 -19.667 -48.999 -38s-21.333 -43.333 -27 -75s-8.5 -72.167 -8.5 -121.5c0 -48.667 2.83301 -88.667 8.5 -120s14.834 -56.166 27.501 -74.499s29 -31 49 -38s44.333 -10.5 73 -10.5c20.667 0 41 1 61 3s39.667 5.33301 59 10v-127c-14 -6 -34.167 -11 -60.5 -15
s-53.5 -6 -81.5 -6zM222.998 797.999l66 175h164l-115 -184z" />
    <glyph glyph-name="cacute" unicode="&#x107;" horiz-adv-x="421" 
d="M176 619l66 187h165l-116 -196zM290 -9c-87.333 0 -153.003 22.3311 -197.003 66.998s-66 115.334 -66 212.001s21.833 167.334 65.5 212.001s109.5 67 197.5 67c18 0 35.833 -1.33301 53.5 -4s33.834 -6.66699 48.501 -12v-124c-33.333 7.33301 -61.666 11 -84.999 11
c-42 0 -71.833 -11.5 -89.5 -34.5s-26.5 -61.167 -26.5 -114.5c0 -54 8.83301 -92.833 26.5 -116.5s47.167 -35.5 88.5 -35.5c14.667 0 28.834 0.833008 42.501 2.5s28.167 4.5 43.5 8.5v-123c-13.333 -5.33301 -29 -9.33301 -47 -12s-36.333 -4 -55 -4z" />
    <glyph glyph-name="Ccircumflex" unicode="&#x108;" horiz-adv-x="503" 
d="M335 -9c-101.333 0 -177.502 30.666 -228.502 91.999s-76.5 157 -76.5 287c0 130.667 25.667 226.5 77 287.5s126.666 91.5 225.999 91.5c46.667 0 94.667 -5.33301 144 -16v-130c-20 3.33301 -40.5 6 -61.5 8s-40.167 3 -57.5 3c-29.333 0 -54.166 -3.5 -74.499 -10.5
s-36.666 -19.667 -48.999 -38s-21.333 -43.333 -27 -75s-8.5 -72.167 -8.5 -121.5c0 -48.667 2.83301 -88.667 8.5 -120s14.834 -56.166 27.501 -74.499s29 -31 49 -38s44.333 -10.5 73 -10.5c20.667 0 41 1 61 3s39.667 5.33301 59 10v-127c-14 -6 -34.167 -11 -60.5 -15
s-53.5 -6 -81.5 -6zM125.998 899.999l162 72l161 -72v-108l-162 72l-161 -72v108z" />
    <glyph glyph-name="ccircumflex" unicode="&#x109;" horiz-adv-x="421" 
d="M81 721l162 71l161 -71v-108l-162 71l-161 -71v108zM290 -9c-87.333 0 -153.003 22.3311 -197.003 66.998s-66 115.334 -66 212.001s21.833 167.334 65.5 212.001s109.5 67 197.5 67c18 0 35.833 -1.33301 53.5 -4s33.834 -6.66699 48.501 -12v-124
c-33.333 7.33301 -61.666 11 -84.999 11c-42 0 -71.833 -11.5 -89.5 -34.5s-26.5 -61.167 -26.5 -114.5c0 -54 8.83301 -92.833 26.5 -116.5s47.167 -35.5 88.5 -35.5c14.667 0 28.834 0.833008 42.501 2.5s28.167 4.5 43.5 8.5v-123c-13.333 -5.33301 -29 -9.33301 -47 -12
s-36.333 -4 -55 -4z" />
    <glyph glyph-name="Cdotaccent" unicode="&#x10a;" horiz-adv-x="503" 
d="M286 798c-31.333 0 -53.833 6.83105 -67.5 20.498s-20.5 35.834 -20.5 66.501c0 30 6.83301 51.667 20.5 65s36.167 20 67.5 20c30.667 0 53.167 -6.66699 67.5 -20s21.5 -35 21.5 -65c0 -31.333 -7.16699 -53.666 -21.5 -66.999s-36.833 -20 -67.5 -20zM335 -9.00195
c-101.333 0 -177.502 30.666 -228.502 91.999s-76.5 157 -76.5 287c0 130.667 25.667 226.5 77 287.5s126.666 91.5 225.999 91.5c46.667 0 94.667 -5.33301 144 -16v-130c-20 3.33301 -40.5 6 -61.5 8s-40.167 3 -57.5 3c-29.333 0 -54.166 -3.5 -74.499 -10.5
s-36.666 -19.667 -48.999 -38s-21.333 -43.333 -27 -75s-8.5 -72.167 -8.5 -121.5c0 -48.667 2.83301 -88.667 8.5 -120s14.834 -56.166 27.501 -74.499s29 -31 49 -38s44.333 -10.5 73 -10.5c20.667 0 41 1 61 3s39.667 5.33301 59 10v-127c-14 -6 -34.167 -11 -60.5 -15
s-53.5 -6 -81.5 -6z" />
    <glyph glyph-name="cdotaccent" unicode="&#x10b;" horiz-adv-x="421" 
d="M290 -9c-87.333 0 -153.003 22.3311 -197.003 66.998s-66 115.334 -66 212.001s21.833 167.334 65.5 212.001s109.5 67 197.5 67c18 0 35.833 -1.33301 53.5 -4s33.834 -6.66699 48.501 -12v-124c-33.333 7.33301 -61.666 11 -84.999 11c-42 0 -71.833 -11.5 -89.5 -34.5
s-26.5 -61.167 -26.5 -114.5c0 -54 8.83301 -92.833 26.5 -116.5s47.167 -35.5 88.5 -35.5c14.667 0 28.834 0.833008 42.501 2.5s28.167 4.5 43.5 8.5v-123c-13.333 -5.33301 -29 -9.33301 -47 -12s-36.333 -4 -55 -4zM234.997 604.998
c-31.333 0 -53.833 6.83301 -67.5 20.5s-20.5 35.5 -20.5 65.5c0 30.667 6.83301 52.667 20.5 66s36.167 20 67.5 20c30 0 52.333 -6.66699 67 -20s22 -35.333 22 -66s-7.33301 -52.667 -22 -66s-37 -20 -67 -20z" />
    <glyph glyph-name="Ccaron" unicode="&#x10c;" horiz-adv-x="503" 
d="M335 -9c-101.333 0 -177.502 30.666 -228.502 91.999s-76.5 157 -76.5 287c0 130.667 25.667 226.5 77 287.5s126.666 91.5 225.999 91.5c46.667 0 94.667 -5.33301 144 -16v-130c-20 3.33301 -40.5 6 -61.5 8s-40.167 3 -57.5 3c-29.333 0 -54.166 -3.5 -74.499 -10.5
s-36.666 -19.667 -48.999 -38s-21.333 -43.333 -27 -75s-8.5 -72.167 -8.5 -121.5c0 -48.667 2.83301 -88.667 8.5 -120s14.834 -56.166 27.501 -74.499s29 -31 49 -38s44.333 -10.5 73 -10.5c20.667 0 41 1 61 3s39.667 5.33301 59 10v-127c-14 -6 -34.167 -11 -60.5 -15
s-53.5 -6 -81.5 -6zM133.998 967.999l161 -71l161 71v-108l-160 -72l-162 72v108z" />
    <glyph glyph-name="ccaron" unicode="&#x10d;" horiz-adv-x="421" 
d="M74 795l161 -72l162 72v-108l-161 -72l-162 72v108zM290 -9c-87.333 0 -153.003 22.3311 -197.003 66.998s-66 115.334 -66 212.001s21.833 167.334 65.5 212.001s109.5 67 197.5 67c18 0 35.833 -1.33301 53.5 -4s33.834 -6.66699 48.501 -12v-124
c-33.333 7.33301 -61.666 11 -84.999 11c-42 0 -71.833 -11.5 -89.5 -34.5s-26.5 -61.167 -26.5 -114.5c0 -54 8.83301 -92.833 26.5 -116.5s47.167 -35.5 88.5 -35.5c14.667 0 28.834 0.833008 42.501 2.5s28.167 4.5 43.5 8.5v-123c-13.333 -5.33301 -29 -9.33301 -47 -12
s-36.333 -4 -55 -4z" />
    <glyph glyph-name="Dcaron" unicode="&#x10e;" horiz-adv-x="636" 
d="M146 968l161 -71l161 71v-108l-160 -72l-162 72v108zM233 -13c-23.333 0 -48.835 0.832031 -76.502 2.49902s-61.167 4.5 -100.5 8.5v740c42.667 4 78.334 6.83301 107.001 8.5s55.334 2.5 80.001 2.5c66 0 122 -6.83301 168 -20.5s83.5 -35.667 112.5 -66
s50 -69.666 63 -117.999s19.5 -106.833 19.5 -175.5c0 -69.333 -6.66699 -128.166 -20 -176.499s-34.833 -87.833 -64.5 -118.5s-68.167 -52.834 -115.5 -66.501s-105 -20.5 -173 -20.5zM288.998 119.999c28 0 51.4971 3.83301 70.4971 11.5s34.333 21 46 40
s19.834 44.5 24.501 76.5s7 72.667 7 122c0 48 -2.5 88 -7.5 120s-13.833 57.5 -26.5 76.5s-29.5 32.333 -50.5 40s-47.5 11.5 -79.5 11.5c-13.333 0 -24.166 -0.333008 -32.499 -1s-16.166 -2 -23.499 -4v-488c17.333 -2 31.333 -3.33301 42 -4s20.667 -1 30 -1z" />
    <glyph glyph-name="dcaron" unicode="&#x10f;" horiz-adv-x="541" 
d="M535 808h126l-41 -228h-85v228zM201 -9c-115.333 0 -173 87.333 -173 262c0 197.333 85.333 296 256 296c6.66699 0 13.5 -0.333008 20.5 -1s16.833 -1.66699 29.5 -3v263h159v-808h-146l-10 54h-4c-32 -42 -76 -63 -132 -63zM260 104
c12.667 0 23.665 2.83301 32.998 8.5s17 15.167 23 28.5s10.5 31.5 13.5 54.5s4.5 51.833 4.5 86.5v150c-16.667 7.33301 -35 11 -55 11c-16.667 0 -30.5 -2.66699 -41.5 -8s-20 -14.5 -27 -27.5s-12 -30.5 -15 -52.5s-4.5 -49.667 -4.5 -83
c0 -32.667 1.16699 -59.667 3.5 -81s6.33301 -38.5 12 -51.5s12.834 -22.167 21.501 -27.5s19.334 -8 32.001 -8z" />
    <glyph glyph-name="Dcroat" unicode="&#x110;" horiz-adv-x="660" 
d="M-2 434l80.998 -0.000976562v304c42.667 4 78.334 6.83301 107.001 8.5s55.334 2.5 80.001 2.5c66 0 122 -6.83301 168 -20.5s83.5 -35.667 112.5 -66s50 -69.666 63 -117.999s19.5 -106.833 19.5 -175.5c0 -69.333 -6.66699 -128.166 -20 -176.499
s-34.833 -87.833 -64.5 -118.5s-68.167 -52.834 -115.5 -66.501s-105 -20.5 -173 -20.5c-23.333 0 -48.833 0.833008 -76.5 2.5s-61.167 4.5 -100.5 8.5v313h-81v123zM311.998 119.999c28 0 51.4971 3.83301 70.4971 11.5s34.333 21 46 40s19.834 44.5 24.501 76.5
s7 72.667 7 122c0 48 -2.5 88 -7.5 120s-13.833 57.5 -26.5 76.5s-29.5 32.333 -50.5 40s-47.5 11.5 -79.5 11.5c-13.333 0 -24.166 -0.333008 -32.499 -1s-16.166 -2 -23.499 -4v-179h89v-123h-89v-186c17.333 -2 31.333 -3.33301 42 -4s20.667 -1 30 -1z" />
    <glyph glyph-name="dcroat" unicode="&#x111;" horiz-adv-x="541" 
d="M204 723h130v85h159v-85h64v-98h-64v-625h-146l-10 54h-4c-32 -42 -76 -63 -132 -63c-115.333 0 -173 87.333 -173 262c0 197.333 85.333 296 256 296c6.66699 0 13.5 -0.333008 20.5 -1s16.833 -1.66699 29.5 -3v80h-130v98zM260 104
c12.667 0 23.665 2.83301 32.998 8.5s17 15.167 23 28.5s10.5 31.5 13.5 54.5s4.5 51.833 4.5 86.5v150c-16.667 7.33301 -35 11 -55 11c-16.667 0 -30.5 -2.66699 -41.5 -8s-20 -14.5 -27 -27.5s-12 -30.5 -15 -52.5s-4.5 -49.667 -4.5 -83
c0 -32.667 1.16699 -59.667 3.5 -81s6.33301 -38.5 12 -51.5s12.834 -22.167 21.501 -27.5s19.334 -8 32.001 -8z" />
    <glyph glyph-name="Emacron" unicode="&#x112;" horiz-adv-x="543" 
d="M124 944h317v-107h-317v107zM56 740h449v-137h-285v-163h254v-138h-254v-165h294v-137h-458v740z" />
    <glyph glyph-name="emacron" unicode="&#x113;" horiz-adv-x="497" 
d="M270 -9c-80.667 0 -141.33 22.998 -181.997 68.998s-61 114 -61 204c0 94.667 20.167 165.834 60.5 213.501s100.833 71.5 181.5 71.5c69.333 0 120.166 -20.667 152.499 -62s48.5 -106 48.5 -194c0 -19.333 -0.333008 -34.166 -1 -44.499s-2 -21.166 -4 -32.499h-277
c1.33301 -20.667 4 -37.834 8 -51.501s9.5 -24.5 16.5 -32.5s16 -13.5 27 -16.5s24.167 -4.5 39.5 -4.5c19.333 0 43.666 2.5 72.999 7.5s61 11.833 95 20.5l5 -117c-24.667 -9.33301 -53.834 -16.833 -87.501 -22.5s-65.167 -8.5 -94.5 -8.5zM265.004 429.998
c-24.667 0 -42.833 -8.66699 -54.5 -26s-19.167 -47 -22.5 -89h141c-1.33301 42 -6.83301 71.667 -16.5 89s-25.5 26 -47.5 26zM92.0049 721.998h321v-98h-321v98z" />
    <glyph glyph-name="Ebreve" unicode="&#x114;" horiz-adv-x="543" 
d="M285 795c-58.667 0 -102.999 15.5 -132.999 46.5s-45 73.833 -45 128.5h109c0 -36 5 -61.5 15 -76.5s28 -22.5 54 -22.5c25.333 0 43.166 7.5 53.499 22.5s15.5 40.5 15.5 76.5h110c0 -54 -15.333 -96.667 -46 -128s-75 -47 -133 -47zM56.001 740h449v-137h-285v-163h254
v-138h-254v-165h294v-137h-458v740z" />
    <glyph glyph-name="ebreve" unicode="&#x115;" horiz-adv-x="497" 
d="M270 -9c-80.667 0 -141.33 22.998 -181.997 68.998s-61 114 -61 204c0 94.667 20.167 165.834 60.5 213.501s100.833 71.5 181.5 71.5c69.333 0 120.166 -20.667 152.499 -62s48.5 -106 48.5 -194c0 -19.333 -0.333008 -34.166 -1 -44.499s-2 -21.166 -4 -32.499h-277
c1.33301 -20.667 4 -37.834 8 -51.501s9.5 -24.5 16.5 -32.5s16 -13.5 27 -16.5s24.167 -4.5 39.5 -4.5c19.333 0 43.666 2.5 72.999 7.5s61 11.833 95 20.5l5 -117c-24.667 -9.33301 -53.834 -16.833 -87.501 -22.5s-65.167 -8.5 -94.5 -8.5zM265.004 429.998
c-24.667 0 -42.833 -8.66699 -54.5 -26s-19.167 -47 -22.5 -89h141c-1.33301 42 -6.83301 71.667 -16.5 89s-25.5 26 -47.5 26zM254.005 611.998c-112.667 0 -172.001 53.333 -178.001 160h108c0.666992 -50.667 24 -76 70 -76c44 0 67 25.333 69 76h109
c-7.33301 -106.667 -66.666 -160 -177.999 -160z" />
    <glyph glyph-name="Edotaccent" unicode="&#x116;" horiz-adv-x="543" 
d="M285 798c-31.333 0 -53.833 6.83105 -67.5 20.498s-20.5 35.834 -20.5 66.501c0 30 6.83301 51.667 20.5 65s36.167 20 67.5 20c30.667 0 53.167 -6.66699 67.5 -20s21.5 -35 21.5 -65c0 -31.333 -7.16699 -53.666 -21.5 -66.999s-36.833 -20 -67.5 -20zM56 739.998h449
v-137h-285v-163h254v-138h-254v-165h294v-137h-458v740z" />
    <glyph glyph-name="edotaccent" unicode="&#x117;" horiz-adv-x="497" 
d="M270 -9c-80.667 0 -141.33 22.998 -181.997 68.998s-61 114 -61 204c0 94.667 20.167 165.834 60.5 213.501s100.833 71.5 181.5 71.5c69.333 0 120.166 -20.667 152.499 -62s48.5 -106 48.5 -194c0 -19.333 -0.333008 -34.166 -1 -44.499s-2 -21.166 -4 -32.499h-277
c1.33301 -20.667 4 -37.834 8 -51.501s9.5 -24.5 16.5 -32.5s16 -13.5 27 -16.5s24.167 -4.5 39.5 -4.5c19.333 0 43.666 2.5 72.999 7.5s61 11.833 95 20.5l5 -117c-24.667 -9.33301 -53.834 -16.833 -87.501 -22.5s-65.167 -8.5 -94.5 -8.5zM265.004 429.998
c-24.667 0 -42.833 -8.66699 -54.5 -26s-19.167 -47 -22.5 -89h141c-1.33301 42 -6.83301 71.667 -16.5 89s-25.5 26 -47.5 26zM253.005 604.998c-31.333 0 -53.833 6.83301 -67.5 20.5s-20.5 35.5 -20.5 65.5c0 30.667 6.83301 52.667 20.5 66s36.167 20 67.5 20
c30 0 52.333 -6.66699 67 -20s22 -35.333 22 -66s-7.33301 -52.667 -22 -66s-37 -20 -67 -20z" />
    <glyph glyph-name="Eogonek" unicode="&#x118;" horiz-adv-x="543" 
d="M56 740l448.999 0.00292969v-137h-285v-163h254v-138h-254v-165h294v-145c-20 -7.33301 -36.667 -15.333 -50 -24s-24.166 -17.334 -32.499 -26.001s-14.333 -16.834 -18 -24.501s-5.5 -14.5 -5.5 -20.5c0 -8.66699 3.5 -14.834 10.5 -18.501s16.167 -5.5 27.5 -5.5
s23.166 1.16699 35.499 3.5s23.166 5.16602 32.499 8.49902v-93c-15.333 -3.33301 -29.666 -6.16602 -42.999 -8.49902s-27.666 -3.5 -42.999 -3.5c-82 0 -123 33.333 -123 100c0 22.667 5.66699 43 17 61s31 37.667 59 59h-325v740z" />
    <glyph glyph-name="eogonek" unicode="&#x119;" horiz-adv-x="497" 
d="M270 -9c-80.667 0 -141.332 23.001 -181.999 69.001s-61 114 -61 204c0 94.667 20.167 165.834 60.5 213.501s100.833 71.5 181.5 71.5c69.333 0 120.166 -20.667 152.499 -62s48.5 -106 48.5 -194c0 -19.333 -0.333008 -34.166 -1 -44.499s-2 -21.166 -4 -32.499h-277
c1.33301 -20.667 4 -37.834 8 -51.501s9.5 -24.5 16.5 -32.5s16 -13.5 27 -16.5s24.167 -4.5 39.5 -4.5c19.333 0 43.666 2.5 72.999 7.5s61 11.833 95 20.5l5 -117v-8c-20 -7.33301 -36.667 -15.333 -50 -24s-24.166 -17.334 -32.499 -26.001s-14.333 -16.834 -18 -24.501
s-5.5 -14.5 -5.5 -20.5c0 -8.66699 3.5 -14.834 10.5 -18.501s16.167 -5.5 27.5 -5.5s23.166 1.16699 35.499 3.5s23.166 5.16602 32.499 8.49902v-93c-15.333 -3.33301 -29.666 -6.16602 -42.999 -8.49902s-27.666 -3.5 -42.999 -3.5c-82 0 -123 33.333 -123 100
c0 17.333 3 33 9 47s16.333 28 31 42h-13zM265.002 430.001c-24.667 0 -42.833 -8.66699 -54.5 -26s-19.167 -47 -22.5 -89h141c-1.33301 42 -6.83301 71.667 -16.5 89s-25.5 26 -47.5 26z" />
    <glyph glyph-name="Ecaron" unicode="&#x11a;" horiz-adv-x="543" 
d="M133 968l161 -71l161 71v-108l-160 -72l-162 72v108zM56 740h449v-137h-285v-163h254v-138h-254v-165h294v-137h-458v740z" />
    <glyph glyph-name="ecaron" unicode="&#x11b;" horiz-adv-x="497" 
d="M93 795l161 -72l162 72v-108l-161 -72l-162 72v108zM270 -9c-80.667 0 -141.33 22.998 -181.997 68.998s-61 114 -61 204c0 94.667 20.167 165.834 60.5 213.501s100.833 71.5 181.5 71.5c69.333 0 120.166 -20.667 152.499 -62s48.5 -106 48.5 -194
c0 -19.333 -0.333008 -34.166 -1 -44.499s-2 -21.166 -4 -32.499h-277c1.33301 -20.667 4 -37.834 8 -51.501s9.5 -24.5 16.5 -32.5s16 -13.5 27 -16.5s24.167 -4.5 39.5 -4.5c19.333 0 43.666 2.5 72.999 7.5s61 11.833 95 20.5l5 -117
c-24.667 -9.33301 -53.834 -16.833 -87.501 -22.5s-65.167 -8.5 -94.5 -8.5zM265.004 429.998c-24.667 0 -42.833 -8.66699 -54.5 -26s-19.167 -47 -22.5 -89h141c-1.33301 42 -6.83301 71.667 -16.5 89s-25.5 26 -47.5 26z" />
    <glyph glyph-name="Gcircumflex" unicode="&#x11c;" horiz-adv-x="586" 
d="M334 -9c-103.333 0 -179.83 31.168 -229.497 93.501s-74.5 157.5 -74.5 285.5c0 252.667 114.333 379 343 379c49.333 0 103.666 -7 162.999 -21v-131c-32 6 -59.667 10.5 -83 13.5s-44.666 4.5 -63.999 4.5c-36 0 -66.167 -4.16699 -90.5 -12.5s-44 -22 -59 -41
s-25.667 -44.333 -32 -76s-9.5 -70.5 -9.5 -116.5c0 -46.667 2.66699 -85.667 8 -117s14.166 -56.333 26.499 -75s28.666 -31.834 48.999 -39.501s45.5 -11.5 75.5 -11.5h21c6.66699 0 13.667 0.333008 21 1v249h147v-368c-47.333 -6.66699 -87.333 -11.167 -120 -13.5
s-63.334 -3.5 -92.001 -3.5zM169.003 900.001l162 72l161 -72v-108l-162 72l-161 -72v108z" />
    <glyph glyph-name="gcircumflex" unicode="&#x11d;" horiz-adv-x="540" 
d="M132 721l162 71l161 -71v-108l-162 71l-161 -71v108zM228 -220c-50.667 0 -105 7.66699 -163 23l11 117c55.333 -12.667 101.333 -19 138 -19c45.333 0 77.333 11 96 33s28 59 28 111v28h-4c-32 -39.333 -74.667 -59 -128 -59c-118 0 -177 79.667 -177 239
c0 97.333 21.333 171 64 221s106.334 75 191.001 75c31.333 0 63.666 -2.5 96.999 -7.5s71 -13.167 113 -24.5v-442c0 -196.667 -88.667 -295 -266 -295zM261 120c12.667 0 23.501 2.66406 32.501 7.99707s16.5 14.333 22.5 27s10.5 29.334 13.5 50.001
s4.5 46.334 4.5 77.001v150c-16 7.33301 -34 11 -54 11c-16.667 0 -30.667 -2.66699 -42 -8s-20.333 -14.5 -27 -27.5s-11.5 -30.5 -14.5 -52.5s-4.5 -49.667 -4.5 -83c0 -29.333 1.16699 -53.666 3.5 -72.999s6.16602 -34.833 11.499 -46.5s12.333 -20 21 -25
s19.667 -7.5 33 -7.5z" />
    <glyph glyph-name="Gbreve" unicode="&#x11e;" horiz-adv-x="586" 
d="M331 795c-58.667 0 -102.999 15.5 -132.999 46.5s-45 73.833 -45 128.5h109c0 -36 5 -61.5 15 -76.5s28 -22.5 54 -22.5c25.333 0 43.166 7.5 53.499 22.5s15.5 40.5 15.5 76.5h110c0 -54 -15.333 -96.667 -46 -128s-75 -47 -133 -47zM334.001 -9
c-103.333 0 -179.83 31.168 -229.497 93.501s-74.5 157.5 -74.5 285.5c0 252.667 114.333 379 343 379c49.333 0 103.666 -7 162.999 -21v-131c-32 6 -59.667 10.5 -83 13.5s-44.666 4.5 -63.999 4.5c-36 0 -66.167 -4.16699 -90.5 -12.5s-44 -22 -59 -41
s-25.667 -44.333 -32 -76s-9.5 -70.5 -9.5 -116.5c0 -46.667 2.66699 -85.667 8 -117s14.166 -56.333 26.499 -75s28.666 -31.834 48.999 -39.501s45.5 -11.5 75.5 -11.5h21c6.66699 0 13.667 0.333008 21 1v249h147v-368c-47.333 -6.66699 -87.333 -11.167 -120 -13.5
s-63.334 -3.5 -92.001 -3.5z" />
    <glyph glyph-name="gbreve" unicode="&#x11f;" horiz-adv-x="540" 
d="M228 -220c-50.667 0 -105 7.66699 -163 23l11 117c55.333 -12.667 101.333 -19 138 -19c45.333 0 77.333 11 96 33s28 59 28 111v28h-4c-32 -39.333 -74.667 -59 -128 -59c-118 0 -177 79.667 -177 239c0 97.333 21.333 171 64 221s106.334 75 191.001 75
c31.333 0 63.666 -2.5 96.999 -7.5s71 -13.167 113 -24.5v-442c0 -196.667 -88.667 -295 -266 -295zM261 120c12.667 0 23.501 2.66406 32.501 7.99707s16.5 14.333 22.5 27s10.5 29.334 13.5 50.001s4.5 46.334 4.5 77.001v150c-16 7.33301 -34 11 -54 11
c-16.667 0 -30.667 -2.66699 -42 -8s-20.333 -14.5 -27 -27.5s-11.5 -30.5 -14.5 -52.5s-4.5 -49.667 -4.5 -83c0 -29.333 1.16699 -53.666 3.5 -72.999s6.16602 -34.833 11.499 -46.5s12.333 -20 21 -25s19.667 -7.5 33 -7.5zM285.001 611.997
c-112.667 0 -172.001 53.333 -178.001 160h108c0.666992 -50.667 24 -76 70 -76c44 0 67 25.333 69 76h109c-7.33301 -106.667 -66.666 -160 -177.999 -160z" />
    <glyph glyph-name="Gdotaccent" unicode="&#x120;" horiz-adv-x="586" 
d="M330 798c-31.333 0 -53.833 6.83105 -67.5 20.498s-20.5 35.834 -20.5 66.501c0 30 6.83301 51.667 20.5 65s36.167 20 67.5 20c30.667 0 53.167 -6.66699 67.5 -20s21.5 -35 21.5 -65c0 -31.333 -7.16699 -53.666 -21.5 -66.999s-36.833 -20 -67.5 -20zM334 -9.00195
c-103.333 0 -179.83 31.168 -229.497 93.501s-74.5 157.5 -74.5 285.5c0 252.667 114.333 379 343 379c49.333 0 103.666 -7 162.999 -21v-131c-32 6 -59.667 10.5 -83 13.5s-44.666 4.5 -63.999 4.5c-36 0 -66.167 -4.16699 -90.5 -12.5s-44 -22 -59 -41
s-25.667 -44.333 -32 -76s-9.5 -70.5 -9.5 -116.5c0 -46.667 2.66699 -85.667 8 -117s14.166 -56.333 26.499 -75s28.666 -31.834 48.999 -39.501s45.5 -11.5 75.5 -11.5h21c6.66699 0 13.667 0.333008 21 1v249h147v-368c-47.333 -6.66699 -87.333 -11.167 -120 -13.5
s-63.334 -3.5 -92.001 -3.5z" />
    <glyph glyph-name="gdotaccent" unicode="&#x121;" horiz-adv-x="540" 
d="M228 -220c-50.667 0 -105 7.66699 -163 23l11 117c55.333 -12.667 101.333 -19 138 -19c45.333 0 77.333 11 96 33s28 59 28 111v28h-4c-32 -39.333 -74.667 -59 -128 -59c-118 0 -177 79.667 -177 239c0 97.333 21.333 171 64 221s106.334 75 191.001 75
c31.333 0 63.666 -2.5 96.999 -7.5s71 -13.167 113 -24.5v-442c0 -196.667 -88.667 -295 -266 -295zM261 120c12.667 0 23.501 2.66406 32.501 7.99707s16.5 14.333 22.5 27s10.5 29.334 13.5 50.001s4.5 46.334 4.5 77.001v150c-16 7.33301 -34 11 -54 11
c-16.667 0 -30.667 -2.66699 -42 -8s-20.333 -14.5 -27 -27.5s-11.5 -30.5 -14.5 -52.5s-4.5 -49.667 -4.5 -83c0 -29.333 1.16699 -53.666 3.5 -72.999s6.16602 -34.833 11.499 -46.5s12.333 -20 21 -25s19.667 -7.5 33 -7.5zM285.001 604.997
c-31.333 0 -53.833 6.83301 -67.5 20.5s-20.5 35.5 -20.5 65.5c0 30.667 6.83301 52.667 20.5 66s36.167 20 67.5 20c30 0 52.333 -6.66699 67 -20s22 -35.333 22 -66s-7.33301 -52.667 -22 -66s-37 -20 -67 -20z" />
    <glyph glyph-name="Gcommaaccent" unicode="&#x122;" horiz-adv-x="586" 
d="M260 -69h164l-86 -151h-120zM334 -9c-103.333 0 -179.83 31.168 -229.497 93.501s-74.5 157.5 -74.5 285.5c0 252.667 114.333 379 343 379c49.333 0 103.666 -7 162.999 -21v-131c-32 6 -59.667 10.5 -83 13.5s-44.666 4.5 -63.999 4.5
c-36 0 -66.167 -4.16699 -90.5 -12.5s-44 -22 -59 -41s-25.667 -44.333 -32 -76s-9.5 -70.5 -9.5 -116.5c0 -46.667 2.66699 -85.667 8 -117s14.166 -56.333 26.499 -75s28.666 -31.834 48.999 -39.501s45.5 -11.5 75.5 -11.5h21c6.66699 0 13.667 0.333008 21 1v249h147
v-368c-47.333 -6.66699 -87.333 -11.167 -120 -13.5s-63.334 -3.5 -92.001 -3.5z" />
    <glyph glyph-name="gcommaaccent" unicode="&#x123;" horiz-adv-x="540" 
d="M423 779l-43 -150h-163l87 150h119zM228 -220c-50.667 0 -105 7.66699 -163 23l11 117c55.333 -12.667 101.333 -19 138 -19c45.333 0 77.333 11 96 33s28 59 28 111v28h-4c-32 -39.333 -74.667 -59 -128 -59c-118 0 -177 79.667 -177 239c0 97.333 21.333 171 64 221
s106.334 75 191.001 75c31.333 0 63.666 -2.5 96.999 -7.5s71 -13.167 113 -24.5v-442c0 -196.667 -88.667 -295 -266 -295zM261 120c12.667 0 23.501 2.66406 32.501 7.99707s16.5 14.333 22.5 27s10.5 29.334 13.5 50.001s4.5 46.334 4.5 77.001v150
c-16 7.33301 -34 11 -54 11c-16.667 0 -30.667 -2.66699 -42 -8s-20.333 -14.5 -27 -27.5s-11.5 -30.5 -14.5 -52.5s-4.5 -49.667 -4.5 -83c0 -29.333 1.16699 -53.666 3.5 -72.999s6.16602 -34.833 11.499 -46.5s12.333 -20 21 -25s19.667 -7.5 33 -7.5z" />
    <glyph glyph-name="Hcircumflex" unicode="&#x124;" horiz-adv-x="673" 
d="M56 740h164v-293h233v293h164v-740h-164v309h-233v-309h-164v740zM173 900l162 72l161 -72v-108l-162 72l-161 -72v108z" />
    <glyph glyph-name="hcircumflex" unicode="&#x125;" horiz-adv-x="536" 
d="M120 929l162 71l161 -71v-108l-162 71l-161 -71v108zM47 808l160.001 -0.000976562v-319c18.667 12 35.334 22 50.001 30s28.167 14.167 40.5 18.5s24.166 7.5 35.499 9.5s23.333 3 36 3c38 0 67.833 -12.667 89.5 -38s32.5 -60.666 32.5 -105.999v-406h-159v349
c0 41.333 -15 62 -45 62c-20.667 0 -47.334 -9.66699 -80.001 -29v-382h-160v808z" />
    <glyph glyph-name="Hbar" unicode="&#x126;" horiz-adv-x="700" 
d="M-2 615h69v125h164v-125h233v125h164v-125h81v-76h-81v-539h-164v309h-233v-309h-164v539h-69v76zM464 447v92h-233v-92h233z" />
    <glyph glyph-name="hbar" unicode="&#x127;" horiz-adv-x="537" 
d="M-25 723l73.001 -0.000976562v85h160v-85h118v-98h-118v-136c18.667 12 35.334 22 50.001 30s28.167 14.167 40.5 18.5s24.166 7.5 35.499 9.5s23.333 3 36 3c38 0 67.833 -12.667 89.5 -38s32.5 -60.666 32.5 -105.999v-406h-159v349c0 41.333 -15 62 -45 62
c-20.667 0 -47.334 -9.66699 -80.001 -29v-382h-160v625h-73v98z" />
    <glyph glyph-name="Itilde" unicode="&#x128;" horiz-adv-x="276" 
d="M56 740h164v-740h-164v740zM-41 836c19.333 38.667 41.001 67.667 65.001 87s48 29 72 29c12.667 0 25.167 -2 37.5 -6s24.666 -8.5 36.999 -13.5s24.666 -9.5 36.999 -13.5s24.833 -6 37.5 -6s24.667 3 36 9s23.666 16 36.999 30l24 -21c-18 -40 -39 -69.5 -63 -88.5
s-48 -28.5 -72 -28.5c-13.333 0 -26.166 2 -38.499 6s-24.666 8.33301 -36.999 13s-24.5 9 -36.5 13s-24.333 6 -37 6c-13.333 0 -26 -2.83301 -38 -8.5s-24.667 -15.167 -38 -28.5z" />
    <glyph glyph-name="itilde" unicode="&#x129;" horiz-adv-x="257" 
d="M-50 658c18.667 35.333 40.167 61.499 64.5 78.499s48.166 25.5 71.499 25.5c12.667 0 25.334 -2.83301 38.001 -8.5s25 -12 37 -19s24.167 -13.333 36.5 -19s24.833 -8.5 37.5 -8.5c11.333 0 22.166 3.16699 32.499 9.5s21.166 17.5 32.499 33.5l33 -37
c-18.667 -36.667 -40 -63.334 -64 -80.001s-48 -25 -72 -25c-12.667 0 -25.167 2.83301 -37.5 8.5s-24.666 11.834 -36.999 18.501s-24.666 12.834 -36.999 18.501s-24.833 8.5 -37.5 8.5c-11.333 0 -22.333 -3 -33 -9s-21.667 -16.333 -33 -31zM49 539.999h159v-540h-159
v540z" />
    <glyph glyph-name="Imacron" unicode="&#x12a;" horiz-adv-x="276" 
d="M56 740h164v-740h-164v740zM-22 944h317v-107h-317v107z" />
    <glyph glyph-name="imacron" unicode="&#x12b;" horiz-adv-x="257" 
d="M49 540h159v-540h-159v540zM-26 722h321v-98h-321v98z" />
    <glyph glyph-name="Ibreve" unicode="&#x12c;" horiz-adv-x="276" 
d="M56 740h164v-740h-164v740zM139 795c-58.667 0 -102.999 15.5 -132.999 46.5s-45 73.833 -45 128.5h109c0 -36 5 -61.5 15 -76.5s28 -22.5 54 -22.5c25.333 0 43.166 7.5 53.499 22.5s15.5 40.5 15.5 76.5h110c0 -54 -15.333 -96.667 -46 -128s-75 -47 -133 -47z" />
    <glyph glyph-name="ibreve" unicode="&#x12d;" horiz-adv-x="257" 
d="M134 612c-112.667 0 -172 53.333 -178 160h109c0 -50.667 23 -76 69 -76c44 0 67 25.333 69 76h109c-8 -106.667 -67.333 -160 -178 -160zM49 540h159v-540h-159v540z" />
    <glyph glyph-name="Iogonek" unicode="&#x12e;" horiz-adv-x="276" 
d="M56 740l163.999 0.00292969v-748c-20 -7.33301 -36.667 -15.333 -50 -24s-24.166 -17.334 -32.499 -26.001s-14.333 -16.834 -18 -24.501s-5.5 -14.5 -5.5 -20.5c0 -8.66699 3.5 -14.834 10.5 -18.501s16.167 -5.5 27.5 -5.5s23.166 1.16699 35.499 3.5
s23.166 5.16602 32.499 8.49902v-93c-15.333 -3.33301 -29.666 -6.16602 -42.999 -8.49902s-27.666 -3.5 -42.999 -3.5c-82 0 -123 33.333 -123 100c0 22.667 5.66699 43 17 61s31 37.667 59 59h-31v740z" />
    <glyph glyph-name="iogonek" unicode="&#x12f;" horiz-adv-x="255" 
d="M48 540l158.999 0.00292969v-548c-20 -7.33301 -36.667 -15.333 -50 -24s-24.166 -17.334 -32.499 -26.001s-14.333 -16.834 -18 -24.501s-5.5 -14.5 -5.5 -20.5c0 -8.66699 3.5 -14.834 10.5 -18.501s16.167 -5.5 27.5 -5.5s23.166 1.16699 35.499 3.5
s23.166 5.16602 32.499 8.49902v-93c-15.333 -3.33301 -29.666 -6.16602 -42.999 -8.49902s-27.666 -3.5 -42.999 -3.5c-82 0 -123 33.333 -123 100c0 22.667 5.66699 43 17 61s31 37.667 59 59h-26v540zM126.999 615.003c-30.667 0 -53 6.66699 -67 20s-21 35.333 -21 66
c0 30 6.83301 51.833 20.5 65.5s36.167 20.5 67.5 20.5s54 -6.83301 68 -20.5s21 -35.5 21 -65.5s-6.83301 -51.833 -20.5 -65.5s-36.5 -20.5 -68.5 -20.5z" />
    <glyph glyph-name="Idotaccent" unicode="&#x130;" horiz-adv-x="276" 
d="M56 740h164v-740h-164v740zM139 798c-31.333 0 -53.833 6.83105 -67.5 20.498s-20.5 35.834 -20.5 66.501c0 30 6.83301 51.667 20.5 65s36.167 20 67.5 20c30.667 0 53.167 -6.66699 67.5 -20s21.5 -35 21.5 -65c0 -31.333 -7.16699 -53.666 -21.5 -66.999
s-36.833 -20 -67.5 -20z" />
    <glyph glyph-name="dotlessi" unicode="&#x131;" horiz-adv-x="255" 
d="M48 540h159v-540h-159v540z" />
    <glyph glyph-name="IJ" unicode="&#x132;" horiz-adv-x="553" 
d="M56 740h164v-740h-164v740zM258 -160c14.667 34 26.832 64.999 36.499 92.999s17.5 55.5 23.5 82.5s10.167 54.833 12.5 83.5s3.5 60.334 3.5 95.001v546h165v-560c0 -34 -2.5 -66.5 -7.5 -97.5s-13 -61.833 -24 -92.5s-25.167 -62 -42.5 -94
s-38.666 -66.333 -63.999 -103z" />
    <glyph glyph-name="ij" unicode="&#x133;" horiz-adv-x="510" 
d="M127 615c-30.667 0 -53 6.66699 -67 20s-21 35.333 -21 66c0 30 6.83301 51.833 20.5 65.5s36.167 20.5 67.5 20.5s54 -6.83301 68 -20.5s21 -35.5 21 -65.5s-6.83301 -51.833 -20.5 -65.5s-36.5 -20.5 -68.5 -20.5zM48 540h159v-540h-159v540zM383 615
c-30.667 0 -53 6.66699 -67 20s-21 35.333 -21 66c0 30 6.83301 51.833 20.5 65.5s36.167 20.5 67.5 20.5s54 -6.83301 68 -20.5s21 -35.5 21 -65.5s-6.83301 -51.833 -20.5 -65.5s-36.5 -20.5 -68.5 -20.5zM260 -187c6.66699 18.667 12.667 39.833 18 63.5
s9.83301 48.334 13.5 74.001s6.5 52.167 8.5 79.5s3 54.666 3 81.999v428h160v-466c0 -22 -2.33301 -46 -7 -72s-11.167 -52.167 -19.5 -78.5s-18.333 -51.833 -30 -76.5s-24.167 -47 -37.5 -67z" />
    <glyph glyph-name="Jcircumflex" unicode="&#x134;" horiz-adv-x="277" 
d="M-18 -160c14.667 34 26.832 64.999 36.499 92.999s17.5 55.5 23.5 82.5s10.167 54.833 12.5 83.5s3.5 60.334 3.5 95.001v546h165v-560c0 -34 -2.5 -66.5 -7.5 -97.5s-13 -61.833 -24 -92.5s-25.167 -62 -42.5 -94s-38.666 -66.333 -63.999 -103zM-19.002 899.999l162 72
l161 -72v-108l-162 72l-161 -72v108z" />
    <glyph glyph-name="jcircumflex" unicode="&#x135;" horiz-adv-x="253" 
d="M-29 721l162 71l161 -71v-108l-162 71l-161 -71v108zM0 -199c9.33301 30 17.168 58 23.501 84s11.5 53 15.5 81s6.83301 58.5 8.5 91.5s2.5 72.167 2.5 117.5v54.5c0 23.667 -0.166992 51.167 -0.5 82.5s-0.833008 66.333 -1.5 105s-1.33398 79.667 -2.00098 123h160
v-467c-4 -50 -13 -99 -27 -147s-35 -96.667 -63 -146z" />
    <glyph glyph-name="Kcommaaccent" unicode="&#x136;" horiz-adv-x="621" 
d="M242 -69h164l-86 -151h-120zM56 740h164v-294h73l133 294h182l-160 -333l-55 -27v-6l56 -27l179 -347h-182l-159 309h-67v-309h-164v740z" />
    <glyph glyph-name="kcommaaccent" unicode="&#x137;" horiz-adv-x="524" 
d="M203 -69h164l-86 -151h-120zM47 808h160v-471h36l104 203h172l-148 -250l-24 -10v-3l25 -10l165 -267h-174l-120 220h-36v-220h-160v808z" />
    <glyph glyph-name="kgreenlandic" unicode="&#x138;" horiz-adv-x="512" 
d="M47 540h160v-203h29l99 203h172l-144 -253l-24 -7v-3l24 -7l162 -270h-174l-116 220h-28v-220h-160v540z" />
    <glyph glyph-name="Lacute" unicode="&#x139;" horiz-adv-x="462" 
d="M81 798l66 175h164l-115 -184zM56 740h164v-603h230v-137h-394v740z" />
    <glyph glyph-name="lacute" unicode="&#x13a;" horiz-adv-x="256" 
d="M69 843l66 187h165l-116 -196zM48 808h160v-808h-160v808z" />
    <glyph glyph-name="Lcommaaccent" unicode="&#x13b;" horiz-adv-x="462" 
d="M178 -69h164l-86 -151h-120zM56 740h164v-603h230v-137h-394v740z" />
    <glyph glyph-name="lcommaaccent" unicode="&#x13c;" horiz-adv-x="256" 
d="M49 -69h164l-86 -151h-120zM48 808h160v-808h-160v808z" />
    <glyph glyph-name="Lcaron" unicode="&#x13d;" horiz-adv-x="503" 
d="M379 795h126l-41 -228h-85v228zM56 740h164v-603h230v-137h-394v740z" />
    <glyph glyph-name="lcaron" unicode="&#x13e;" horiz-adv-x="256" 
d="M249 808h126l-41 -228h-85v228zM48 808h160v-808h-160v808z" />
    <glyph glyph-name="Ldot" unicode="&#x13f;" horiz-adv-x="481" 
d="M56 740h164v-603h230v-137h-394v740zM377 283c-31.333 0 -53.833 6.83301 -67.5 20.5s-20.5 35.834 -20.5 66.501s6.83301 52.834 20.5 66.501s36.167 20.5 67.5 20.5c30.667 0 53.167 -6.83301 67.5 -20.5s21.5 -35.834 21.5 -66.501s-7.16699 -52.834 -21.5 -66.501
s-36.833 -20.5 -67.5 -20.5z" />
    <glyph glyph-name="ldot" unicode="&#x140;" horiz-adv-x="400" 
d="M48 808h160v-808h-160v808zM328 283c-31.333 0 -53.833 6.83301 -67.5 20.5s-20.5 35.834 -20.5 66.501s6.83301 52.834 20.5 66.501s36.167 20.5 67.5 20.5c30.667 0 53.167 -6.83301 67.5 -20.5s21.5 -35.834 21.5 -66.501s-7.16699 -52.834 -21.5 -66.501
s-36.833 -20.5 -67.5 -20.5z" />
    <glyph glyph-name="Lslash" unicode="&#x141;" horiz-adv-x="479" 
d="M7 345l66 39v356h164v-258l101 61v-120l-101 -61v-225h230v-137h-394v264l-66 -39v120z" />
    <glyph glyph-name="lslash" unicode="&#x142;" horiz-adv-x="352" 
d="M13 353l83 50v405h160v-309l87 52v-117l-87 -52v-382h-160v286l-83 -50v117z" />
    <glyph glyph-name="Nacute" unicode="&#x143;" horiz-adv-x="680" 
d="M267 798l66 175h164l-115 -184zM56 740h137l238 -374l39 -79h9v453h145v-740h-137l-240 377l-37 78h-10v-455h-144v740z" />
    <glyph glyph-name="nacute" unicode="&#x144;" horiz-adv-x="536" 
d="M215 619l66 187h165l-116 -196zM47 540l134.999 -0.000976562l9 -58h4l55.5 33.5c15.667 9 30 16 43 21s25.333 8.5 37 10.5s24.5 3 38.5 3c38 0 67.833 -12.667 89.5 -38s32.5 -60.666 32.5 -105.999v-406h-159v349c0 22.667 -4.16699 38.667 -12.5 48
s-19.166 14 -32.499 14c-12 0 -24.833 -2.66699 -38.5 -8s-27.5 -12.333 -41.5 -21v-382h-160v540z" />
    <glyph glyph-name="Ncommaaccent" unicode="&#x145;" horiz-adv-x="680" 
d="M271 -69h164l-86 -151h-120zM56 740h137l238 -374l39 -79h9v453h145v-740h-137l-240 377l-37 78h-10v-455h-144v740z" />
    <glyph glyph-name="ncommaaccent" unicode="&#x146;" horiz-adv-x="536" 
d="M194 -69h164l-86 -151h-120zM47 540l134.999 -0.000976562l9 -58h4l55.5 33.5c15.667 9 30 16 43 21s25.333 8.5 37 10.5s24.5 3 38.5 3c38 0 67.833 -12.667 89.5 -38s32.5 -60.666 32.5 -105.999v-406h-159v349c0 22.667 -4.16699 38.667 -12.5 48
s-19.166 14 -32.499 14c-12 0 -24.833 -2.66699 -38.5 -8s-27.5 -12.333 -41.5 -21v-382h-160v540z" />
    <glyph glyph-name="Ncaron" unicode="&#x147;" horiz-adv-x="680" 
d="M179 968l161 -71l161 71v-108l-160 -72l-162 72v108zM56 740h137l238 -374l39 -79h9v453h145v-740h-137l-240 377l-37 78h-10v-455h-144v740z" />
    <glyph glyph-name="ncaron" unicode="&#x148;" horiz-adv-x="536" 
d="M114 795l161 -72l162 72v-108l-161 -72l-162 72v108zM47 540l134.999 -0.000976562l9 -58h4l55.5 33.5c15.667 9 30 16 43 21s25.333 8.5 37 10.5s24.5 3 38.5 3c38 0 67.833 -12.667 89.5 -38s32.5 -60.666 32.5 -105.999v-406h-159v349
c0 22.667 -4.16699 38.667 -12.5 48s-19.166 14 -32.499 14c-12 0 -24.833 -2.66699 -38.5 -8s-27.5 -12.333 -41.5 -21v-382h-160v540z" />
    <glyph glyph-name="napostrophe" unicode="&#x149;" horiz-adv-x="609" 
d="M142 808v-4l-42 -224h-84v228h126zM120 540l134.999 -0.000976562l9 -58h4l55.5 33.5c15.667 9 30 16 43 21s25.333 8.5 37 10.5s24.5 3 38.5 3c38 0 67.833 -12.667 89.5 -38s32.5 -60.666 32.5 -105.999v-406h-159v349c0 22.667 -4.16699 38.667 -12.5 48
s-19.166 14 -32.499 14c-12 0 -24.833 -2.66699 -38.5 -8s-27.5 -12.333 -41.5 -21v-382h-160v540z" />
    <glyph glyph-name="Eng" unicode="&#x14a;" horiz-adv-x="678" 
d="M395 -170c13.333 39.333 24.8311 78.167 34.498 116.5s16.834 75.5 21.501 111.5l-203 320l-36 80h-10v-458h-146v740h135l239 -375l38 -81h9v456h147v-625c0 -18 -3.16699 -39.667 -9.5 -65s-15 -52.5 -26 -81.5s-24.167 -58.5 -39.5 -88.5s-31.666 -58.333 -48.999 -85
z" />
    <glyph glyph-name="eng" unicode="&#x14b;" horiz-adv-x="535" 
d="M284 -199c6.66699 20 13.002 41.998 19.002 65.998s11.167 48.5 15.5 73.5s7.66602 49.833 9.99902 74.5s3.5 47.334 3.5 68.001v266c0 41.333 -15 62 -45 62c-22.667 0 -49.334 -9.66699 -80.001 -29v-382h-160v540h135l9 -58h4l55.5 33.5c15.667 9 30 16 43 21
s25.333 8.5 37 10.5s24.5 3 38.5 3c38 0 67.833 -12.667 89.5 -38s32.5 -60.666 32.5 -105.999v-329c0 -22 -2.16699 -46.167 -6.5 -72.5s-10.333 -53 -18 -80s-16.667 -53 -27 -78s-21.5 -46.833 -33.5 -65.5z" />
    <glyph glyph-name="Omacron" unicode="&#x14c;" horiz-adv-x="668" 
d="M173 944h317v-107h-317v107zM333 -10c-102 0 -178 31.167 -228 93.5s-75 157.5 -75 285.5c0 128.667 25 224.334 75 287.001s126 94 228 94c103.333 0 180 -31.333 230 -94s75 -158.334 75 -287.001c0 -129.333 -24.833 -224.833 -74.5 -286.5s-126.5 -92.5 -230.5 -92.5
zM333 125c25.333 0 46.6689 4.16797 64.002 12.501s31.5 22.166 42.5 41.499s18.833 44.5 23.5 75.5s7 69.167 7 114.5c0 46 -2.33301 84.667 -7 116s-12.334 56.666 -23.001 75.999s-24.834 33.166 -42.501 41.499s-39.167 12.5 -64.5 12.5
c-24.667 0 -45.667 -4.33301 -63 -13s-31.333 -22.667 -42 -42s-18.334 -44.666 -23.001 -75.999s-7 -69.666 -7 -114.999c0 -44.667 2.33301 -82.5 7 -113.5s12.334 -56.167 23.001 -75.5s24.667 -33.333 42 -42s38.333 -13 63 -13z" />
    <glyph glyph-name="omacron" unicode="&#x14d;" horiz-adv-x="533" 
d="M108 722h321v-98h-321v98zM266 -10c-78.667 0 -138.167 23.667 -178.5 71s-60.5 117 -60.5 209c0 92.667 20.167 162.5 60.5 209.5s99.833 70.5 178.5 70.5s138.167 -23.5 178.5 -70.5s60.5 -116.833 60.5 -209.5s-20.167 -162.5 -60.5 -209.5
s-99.833 -70.5 -178.5 -70.5zM266 112c16 0 29 2.16699 39 6.5s18 12.5 24 24.5s10.167 28.167 12.5 48.5s3.5 46.5 3.5 78.5s-1.16699 58.167 -3.5 78.5s-6.5 36.5 -12.5 48.5s-14 20.167 -24 24.5s-23 6.5 -39 6.5s-29 -2.16699 -39 -6.5s-18 -12.5 -24 -24.5
s-10.167 -28.167 -12.5 -48.5s-3.5 -46.5 -3.5 -78.5s1.16699 -58.167 3.5 -78.5s6.5 -36.5 12.5 -48.5s14 -20.167 24 -24.5s23 -6.5 39 -6.5z" />
    <glyph glyph-name="Obreve" unicode="&#x14e;" horiz-adv-x="668" 
d="M334 795c-58.667 0 -102.999 15.5 -132.999 46.5s-45 73.833 -45 128.5h109c0 -36 5 -61.5 15 -76.5s28 -22.5 54 -22.5c25.333 0 43.166 7.5 53.499 22.5s15.5 40.5 15.5 76.5h110c0 -54 -15.333 -96.667 -46 -128s-75 -47 -133 -47zM333.001 -10
c-102 0 -178 31.167 -228 93.5s-75 157.5 -75 285.5c0 128.667 25 224.334 75 287.001s126 94 228 94c103.333 0 180 -31.333 230 -94s75 -158.334 75 -287.001c0 -129.333 -24.833 -224.833 -74.5 -286.5s-126.5 -92.5 -230.5 -92.5zM333.001 125
c25.333 0 46.6689 4.16797 64.002 12.501s31.5 22.166 42.5 41.499s18.833 44.5 23.5 75.5s7 69.167 7 114.5c0 46 -2.33301 84.667 -7 116s-12.334 56.666 -23.001 75.999s-24.834 33.166 -42.501 41.499s-39.167 12.5 -64.5 12.5c-24.667 0 -45.667 -4.33301 -63 -13
s-31.333 -22.667 -42 -42s-18.334 -44.666 -23.001 -75.999s-7 -69.666 -7 -114.999c0 -44.667 2.33301 -82.5 7 -113.5s12.334 -56.167 23.001 -75.5s24.667 -33.333 42 -42s38.333 -13 63 -13z" />
    <glyph glyph-name="obreve" unicode="&#x14f;" horiz-adv-x="533" 
d="M266 -10c-78.667 0 -138.167 23.667 -178.5 71s-60.5 117 -60.5 209c0 92.667 20.167 162.5 60.5 209.5s99.833 70.5 178.5 70.5s138.167 -23.5 178.5 -70.5s60.5 -116.833 60.5 -209.5s-20.167 -162.5 -60.5 -209.5s-99.833 -70.5 -178.5 -70.5zM266 112
c16 0 29 2.16699 39 6.5s18 12.5 24 24.5s10.167 28.167 12.5 48.5s3.5 46.5 3.5 78.5s-1.16699 58.167 -3.5 78.5s-6.5 36.5 -12.5 48.5s-14 20.167 -24 24.5s-23 6.5 -39 6.5s-29 -2.16699 -39 -6.5s-18 -12.5 -24 -24.5s-10.167 -28.167 -12.5 -48.5
s-3.5 -46.5 -3.5 -78.5s1.16699 -58.167 3.5 -78.5s6.5 -36.5 12.5 -48.5s14 -20.167 24 -24.5s23 -6.5 39 -6.5zM269 612c-112.667 0 -172.001 53.333 -178.001 160h108c0.666992 -50.667 24 -76 70 -76c44 0 67 25.333 69 76h109
c-7.33301 -106.667 -66.666 -160 -177.999 -160z" />
    <glyph glyph-name="Ohungarumlaut" unicode="&#x150;" horiz-adv-x="668" 
d="M333 -10c-102 0 -178 31.167 -228 93.5s-75 157.5 -75 285.5c0 128.667 25 224.334 75 287.001s126 94 228 94c103.333 0 180 -31.333 230 -94s75 -158.334 75 -287.001c0 -129.333 -24.833 -224.833 -74.5 -286.5s-126.5 -92.5 -230.5 -92.5zM333 125
c25.333 0 46.6689 4.16797 64.002 12.501s31.5 22.166 42.5 41.499s18.833 44.5 23.5 75.5s7 69.167 7 114.5c0 46 -2.33301 84.667 -7 116s-12.334 56.666 -23.001 75.999s-24.834 33.166 -42.501 41.499s-39.167 12.5 -64.5 12.5c-24.667 0 -45.667 -4.33301 -63 -13
s-31.333 -22.667 -42 -42s-18.334 -44.666 -23.001 -75.999s-7 -69.666 -7 -114.999c0 -44.667 2.33301 -82.5 7 -113.5s12.334 -56.167 23.001 -75.5s24.667 -33.333 42 -42s38.333 -13 63 -13zM188.003 800.001l66 173h135l-116 -184zM372.003 800.001l67 173h134
l-116 -184z" />
    <glyph glyph-name="ohungarumlaut" unicode="&#x151;" horiz-adv-x="533" 
d="M123 620l66 186h135l-116 -196zM310 620l66 186h135l-116 -196zM266 -10c-78.667 0 -138.167 23.667 -178.5 71s-60.5 117 -60.5 209c0 92.667 20.167 162.5 60.5 209.5s99.833 70.5 178.5 70.5s138.167 -23.5 178.5 -70.5s60.5 -116.833 60.5 -209.5
s-20.167 -162.5 -60.5 -209.5s-99.833 -70.5 -178.5 -70.5zM266 112c16 0 29 2.16699 39 6.5s18 12.5 24 24.5s10.167 28.167 12.5 48.5s3.5 46.5 3.5 78.5s-1.16699 58.167 -3.5 78.5s-6.5 36.5 -12.5 48.5s-14 20.167 -24 24.5s-23 6.5 -39 6.5s-29 -2.16699 -39 -6.5
s-18 -12.5 -24 -24.5s-10.167 -28.167 -12.5 -48.5s-3.5 -46.5 -3.5 -78.5s1.16699 -58.167 3.5 -78.5s6.5 -36.5 12.5 -48.5s14 -20.167 24 -24.5s23 -6.5 39 -6.5z" />
    <glyph glyph-name="OE" unicode="&#x152;" horiz-adv-x="913" 
d="M347 -8c-102 0 -180.499 31.332 -235.499 93.999s-82.5 157.334 -82.5 284.001c0 126 27.667 220.5 83 283.5s133.666 94.5 234.999 94.5c19.333 0 37.5 -1 54.5 -3s33.167 -3.66699 48.5 -5h422v-137h-259v-161h245v-128h-245v-177h268v-137h-431
c-15.333 -3.33301 -31.5 -5.5 -48.5 -6.5s-35.167 -1.5 -54.5 -1.5zM369.001 128.999c12.667 0 25.668 0.335938 39.001 1.00293s27 2.66699 41 6v467c-15.333 2.66699 -29.5 4.5 -42.5 5.5s-26.167 1.5 -39.5 1.5c-33.333 0 -61 -4.16699 -83 -12.5s-39.667 -22 -53 -41
s-22.833 -43.833 -28.5 -74.5s-8.5 -68.334 -8.5 -113.001s2.83301 -82.334 8.5 -113.001s15.167 -55.334 28.5 -74.001s31.166 -32.167 53.499 -40.5s50.5 -12.5 84.5 -12.5z" />
    <glyph glyph-name="oe" unicode="&#x153;" horiz-adv-x="816" 
d="M589 -9c-68.667 0 -121.667 22.665 -159 67.998h-8c-36 -46 -88 -69 -156 -69c-78.667 0 -138.167 23.667 -178.5 71s-60.5 117 -60.5 209c0 92.667 20.167 162.5 60.5 209.5s99.833 70.5 178.5 70.5c68.667 0 120.667 -23.333 156 -70h9c36.667 46 89.334 69 158.001 69
s119.167 -20.667 151.5 -62s48.5 -106 48.5 -194c0 -19.333 -0.333008 -34.166 -1 -44.499s-2 -21.166 -4 -32.499h-278c2.66699 -40 10.834 -67.5 24.501 -82.5s36.167 -22.5 67.5 -22.5c19.333 0 43.666 2.5 72.999 7.5s61 11.833 95 20.5l5 -117
c-24.667 -9.33301 -53.834 -16.833 -87.501 -22.5s-65.167 -8.5 -94.5 -8.5zM266 111.998c16 0 29 2.16699 39 6.5s18 12.5 24 24.5s10.167 28.167 12.5 48.5s3.5 46.5 3.5 78.5s-1.16699 58.167 -3.5 78.5s-6.5 36.5 -12.5 48.5s-14 20.167 -24 24.5s-23 6.5 -39 6.5
s-29 -2.16699 -39 -6.5s-18 -12.5 -24 -24.5s-10.167 -28.167 -12.5 -48.5s-3.5 -46.5 -3.5 -78.5s1.16699 -58.167 3.5 -78.5s6.5 -36.5 12.5 -48.5s14 -20.167 24 -24.5s23 -6.5 39 -6.5zM648 313.998c-1.33301 42.667 -6.83301 72.667 -16.5 90s-25.5 26 -47.5 26
c-25.333 0 -44 -8.83301 -56 -26.5s-19.333 -47.5 -22 -89.5h142z" />
    <glyph glyph-name="Racute" unicode="&#x154;" horiz-adv-x="600" 
d="M306 253c-6 -0.666992 -12.001 -1 -18.001 -1h-18h-9.5h-15.5c-5.33301 0 -10.5 0.166992 -15.5 0.5s-8.16699 0.5 -9.5 0.5v-253h-164v735c28 5.33301 57.833 9.16602 89.5 11.499s64.5 3.5 98.5 3.5c114.667 0 197.834 -20 249.501 -60s77.5 -104.333 77.5 -193
c0 -107.333 -40.333 -178.666 -121 -213.999l142 -283h-170zM272.999 379c24 0 44.334 1.99902 61.001 5.99902s30.167 10.667 40.5 20s17.666 21.5 21.999 36.5s6.5 33.5 6.5 55.5c0 22.667 -2.16699 41.5 -6.5 56.5s-11.833 27.167 -22.5 36.5s-24.5 16 -41.5 20
s-37.833 6 -62.5 6c-5.33301 0 -13.166 -0.333008 -23.499 -1s-19.166 -1.66699 -26.499 -3v-230c7.33301 -1.33301 16.166 -2.16602 26.499 -2.49902s19.166 -0.5 26.499 -0.5zM243 797.999l66 175h164l-115 -184z" />
    <glyph glyph-name="racute" unicode="&#x155;" horiz-adv-x="375" 
d="M145 619l66 187h165l-116 -196zM47 540l134.998 -0.00195312l9 -79h7c2.66699 4.66699 8.83398 10.834 18.501 18.501s21.167 15.834 34.5 24.501s27.5 17 42.5 25s28.833 14.667 41.5 20h30v-150h-65c-8 -1.33301 -16.667 -3.5 -26 -6.5s-18.333 -6.66699 -27 -11
s-16.667 -8.83301 -24 -13.5s-12.666 -9 -15.999 -13v-355h-160v540z" />
    <glyph glyph-name="Rcommaaccent" unicode="&#x156;" horiz-adv-x="600" 
d="M241 -69h164l-86 -151h-120zM306 253c-6 -0.666992 -12.001 -1 -18.001 -1h-18h-9.5h-15.5c-5.33301 0 -10.5 0.166992 -15.5 0.5s-8.16699 0.5 -9.5 0.5v-253h-164v735c28 5.33301 57.833 9.16602 89.5 11.499s64.5 3.5 98.5 3.5c114.667 0 197.834 -20 249.501 -60
s77.5 -104.333 77.5 -193c0 -107.333 -40.333 -178.666 -121 -213.999l142 -283h-170zM272.999 379c24 0 44.334 1.99902 61.001 5.99902s30.167 10.667 40.5 20s17.666 21.5 21.999 36.5s6.5 33.5 6.5 55.5c0 22.667 -2.16699 41.5 -6.5 56.5s-11.833 27.167 -22.5 36.5
s-24.5 16 -41.5 20s-37.833 6 -62.5 6c-5.33301 0 -13.166 -0.333008 -23.499 -1s-19.166 -1.66699 -26.499 -3v-230c7.33301 -1.33301 16.166 -2.16602 26.499 -2.49902s19.166 -0.5 26.499 -0.5z" />
    <glyph glyph-name="rcommaaccent" unicode="&#x157;" horiz-adv-x="375" 
d="M48 -69h164l-86 -151h-120zM47 540l134.998 -0.00195312l9 -79h7c2.66699 4.66699 8.83398 10.834 18.501 18.501s21.167 15.834 34.5 24.501s27.5 17 42.5 25s28.833 14.667 41.5 20h30v-150h-65c-8 -1.33301 -16.667 -3.5 -26 -6.5s-18.333 -6.66699 -27 -11
s-16.667 -8.83301 -24 -13.5s-12.666 -9 -15.999 -13v-355h-160v540z" />
    <glyph glyph-name="Rcaron" unicode="&#x158;" horiz-adv-x="600" 
d="M154 968l161 -71l161 71v-108l-160 -72l-162 72v108zM306 253c-6 -0.666992 -12.001 -1 -18.001 -1h-18h-9.5h-15.5c-5.33301 0 -10.5 0.166992 -15.5 0.5s-8.16699 0.5 -9.5 0.5v-253h-164v735c28 5.33301 57.833 9.16602 89.5 11.499s64.5 3.5 98.5 3.5
c114.667 0 197.834 -20 249.501 -60s77.5 -104.333 77.5 -193c0 -107.333 -40.333 -178.666 -121 -213.999l142 -283h-170zM272.999 379c24 0 44.334 1.99902 61.001 5.99902s30.167 10.667 40.5 20s17.666 21.5 21.999 36.5s6.5 33.5 6.5 55.5
c0 22.667 -2.16699 41.5 -6.5 56.5s-11.833 27.167 -22.5 36.5s-24.5 16 -41.5 20s-37.833 6 -62.5 6c-5.33301 0 -13.166 -0.333008 -23.499 -1s-19.166 -1.66699 -26.499 -3v-230c7.33301 -1.33301 16.166 -2.16602 26.499 -2.49902s19.166 -0.5 26.499 -0.5z" />
    <glyph glyph-name="rcaron" unicode="&#x159;" horiz-adv-x="375" 
d="M44 795l161 -72l162 72v-108l-161 -72l-162 72v108zM47 540l134.998 -0.00195312l9 -79h7c2.66699 4.66699 8.83398 10.834 18.501 18.501s21.167 15.834 34.5 24.501s27.5 17 42.5 25s28.833 14.667 41.5 20h30v-150h-65c-8 -1.33301 -16.667 -3.5 -26 -6.5
s-18.333 -6.66699 -27 -11s-16.667 -8.83301 -24 -13.5s-12.666 -9 -15.999 -13v-355h-160v540z" />
    <glyph glyph-name="Sacute" unicode="&#x15a;" horiz-adv-x="510" 
d="M246 -12c-34 0 -69.0029 3.00195 -105.003 9.00195s-73.333 15.667 -112 29l2 138c11.333 -5.33301 24.833 -10.5 40.5 -15.5s31.834 -9.33301 48.501 -13s33.334 -6.5 50.001 -8.5s32 -3 46 -3c73.333 0 110 28.667 110 86c0 14.667 -3 26.834 -9 36.501
s-14.5 18 -25.5 25s-24 13.167 -39 18.5l-49.5 17c-22 6.66699 -43.167 15 -63.5 25s-38.166 23.667 -53.499 41s-27.666 39.333 -36.999 66s-14 60 -14 100c0 66 21.667 117.5 65 154.5s103.666 55.5 180.999 55.5c28.667 0 57.5 -2.16699 86.5 -6.5
s59.167 -11.166 90.5 -20.499l-2 -132c-13.333 4 -27.333 7.5 -42 10.5s-29.167 5.66699 -43.5 8s-28 4.16602 -41 5.49902s-24.5 2 -34.5 2c-64 0 -96 -25.667 -96 -77c0 -15.333 3.5 -28.333 10.5 -39s16.833 -19.834 29.5 -27.501s27.167 -14.834 43.5 -21.501l53.5 -21
c21.333 -8 41.333 -17.5 60 -28.5s35 -24.833 49 -41.5s25 -36.667 33 -60s12 -51.333 12 -84c0 -35.333 -5.66699 -67 -17 -95s-27.5 -51.833 -48.5 -71.5s-46.5 -34.834 -76.5 -45.501s-64 -16 -102 -16zM193.997 798.002l66 175h164l-115 -184z" />
    <glyph glyph-name="sacute" unicode="&#x15b;" horiz-adv-x="428" 
d="M161 619l66 187h165l-116 -196zM193 -10c-52 0 -105.334 9.33398 -160.001 28.001v117c21.333 -8 46.333 -14.667 75 -20s55.667 -8 81 -8c43.333 0 65 15.333 65 46c0 27.333 -20 44.333 -60 51c-16 2 -33.333 5 -52 9s-36 11.667 -52 23s-29.333 27.666 -40 48.999
s-16 51 -16 89c0 56.667 16 100.167 48 130.5s77.667 45.5 137 45.5c23.333 0 48.833 -1.83301 76.5 -5.5s55.167 -8.83398 82.5 -15.501v-117c-31.333 6.66699 -55.833 11.334 -73.5 14.001s-34.5 4 -50.5 4c-48 0 -72 -16.333 -72 -49c0 -16 4.83301 -27.5 14.5 -34.5
s23.167 -12.167 40.5 -15.5c18 -3.33301 36.833 -7.33301 56.5 -12s37.834 -12.667 54.501 -24s30.5 -27.333 41.5 -48s16.5 -48 16.5 -82c0 -56 -18.5 -99.167 -55.5 -129.5s-89.5 -45.5 -157.5 -45.5z" />
    <glyph glyph-name="Scircumflex" unicode="&#x15c;" horiz-adv-x="510" 
d="M246 -12c-34 0 -69.0029 3.00195 -105.003 9.00195s-73.333 15.667 -112 29l2 138c11.333 -5.33301 24.833 -10.5 40.5 -15.5s31.834 -9.33301 48.501 -13s33.334 -6.5 50.001 -8.5s32 -3 46 -3c73.333 0 110 28.667 110 86c0 14.667 -3 26.834 -9 36.501
s-14.5 18 -25.5 25s-24 13.167 -39 18.5l-49.5 17c-22 6.66699 -43.167 15 -63.5 25s-38.166 23.667 -53.499 41s-27.666 39.333 -36.999 66s-14 60 -14 100c0 66 21.667 117.5 65 154.5s103.666 55.5 180.999 55.5c28.667 0 57.5 -2.16699 86.5 -6.5
s59.167 -11.166 90.5 -20.499l-2 -132c-13.333 4 -27.333 7.5 -42 10.5s-29.167 5.66699 -43.5 8s-28 4.16602 -41 5.49902s-24.5 2 -34.5 2c-64 0 -96 -25.667 -96 -77c0 -15.333 3.5 -28.333 10.5 -39s16.833 -19.834 29.5 -27.501s27.167 -14.834 43.5 -21.501l53.5 -21
c21.333 -8 41.333 -17.5 60 -28.5s35 -24.833 49 -41.5s25 -36.667 33 -60s12 -51.333 12 -84c0 -35.333 -5.66699 -67 -17 -95s-27.5 -51.833 -48.5 -71.5s-46.5 -34.834 -76.5 -45.501s-64 -16 -102 -16zM96.9971 900.002l162 72l161 -72v-108l-162 72l-161 -72v108z" />
    <glyph glyph-name="scircumflex" unicode="&#x15d;" horiz-adv-x="428" 
d="M67 721l162 71l161 -71v-108l-162 71l-161 -71v108zM193 -10c-52 0 -105.334 9.33398 -160.001 28.001v117c21.333 -8 46.333 -14.667 75 -20s55.667 -8 81 -8c43.333 0 65 15.333 65 46c0 27.333 -20 44.333 -60 51c-16 2 -33.333 5 -52 9s-36 11.667 -52 23
s-29.333 27.666 -40 48.999s-16 51 -16 89c0 56.667 16 100.167 48 130.5s77.667 45.5 137 45.5c23.333 0 48.833 -1.83301 76.5 -5.5s55.167 -8.83398 82.5 -15.501v-117c-31.333 6.66699 -55.833 11.334 -73.5 14.001s-34.5 4 -50.5 4c-48 0 -72 -16.333 -72 -49
c0 -16 4.83301 -27.5 14.5 -34.5s23.167 -12.167 40.5 -15.5c18 -3.33301 36.833 -7.33301 56.5 -12s37.834 -12.667 54.501 -24s30.5 -27.333 41.5 -48s16.5 -48 16.5 -82c0 -56 -18.5 -99.167 -55.5 -129.5s-89.5 -45.5 -157.5 -45.5z" />
    <glyph glyph-name="uni015E" unicode="&#x15e;" horiz-adv-x="511" 
d="M233 -220c-11.333 0 -24.0029 0.831055 -38.0029 2.49805s-29.333 4.83398 -46 9.50098v94c12.667 -3.33301 24.667 -5.33301 36 -6s19 -1 23 -1c13.333 0 23 3.33301 29 10s9 14.667 9 24c0 10 -2.33301 21.333 -7 34s-11 26.667 -19 42c-61.333 2 -125 14.333 -191 37
l2 138c11.333 -5.33301 24.833 -10.5 40.5 -15.5s31.834 -9.33301 48.501 -13s33.334 -6.5 50.001 -8.5s32 -3 46 -3c73.333 0 110 28.667 110 86c0 14.667 -3 26.834 -9 36.501s-14.5 18 -25.5 25s-24 13.167 -39 18.5l-49.5 17c-22 6.66699 -43.167 15 -63.5 25
s-38.166 23.667 -53.499 41s-27.666 39.333 -36.999 66s-14 60 -14 100c0 66 21.667 117.5 65 154.5s103.666 55.5 180.999 55.5c28.667 0 57.5 -2.16699 86.5 -6.5s59.167 -11.166 90.5 -20.499l-2 -132c-13.333 4 -27.333 7.5 -42 10.5s-29.167 5.66699 -43.5 8
s-28 4.16602 -41 5.49902s-24.5 2 -34.5 2c-64 0 -96 -25.667 -96 -77c0 -15.333 3.5 -28.333 10.5 -39s16.833 -19.834 29.5 -27.501s27.167 -14.834 43.5 -21.501l53.5 -21c21.333 -8 41.333 -17.5 60 -28.5s35 -24.833 49 -41.5s25 -36.667 33 -60s12 -51.333 12 -84
c0 -59.333 -15.333 -108 -46 -146s-73 -62.667 -127 -74c12 -19.333 20.667 -37.666 26 -54.999s8 -35.666 8 -54.999c0 -32 -10 -57.667 -30 -77s-49.333 -29 -88 -29z" />
    <glyph glyph-name="uni015F" unicode="&#x15f;" horiz-adv-x="428" 
d="M186 -220c-11.333 0 -24.001 0.833008 -38.001 2.5s-29.333 4.83398 -46 9.50098v94c12.667 -3.33301 24.667 -5.33301 36 -6s19 -1 23 -1c13.333 0 23 3.33301 29 10s9 14.667 9 24c0 10 -2.33301 21.667 -7 35s-11.334 27.666 -20.001 42.999c-46.667 2 -93 11 -139 27
v117c21.333 -8 46.333 -14.667 75 -20s55.667 -8 81 -8c43.333 0 65 15.333 65 46c0 29.333 -20 46.333 -60 51c-16 2 -33.333 5 -52 9s-36 11.667 -52 23s-29.333 27.833 -40 49.5s-16 51.167 -16 88.5c0 56.667 16 100.167 48 130.5s77.667 45.5 137 45.5
c23.333 0 48.833 -1.83301 76.5 -5.5s55.167 -8.83398 82.5 -15.501v-117c-31.333 6.66699 -55.833 11.334 -73.5 14.001s-34.5 4 -50.5 4c-48 0 -72 -16.333 -72 -49c0 -16 4.83301 -27.5 14.5 -34.5s23.167 -12.167 40.5 -15.5c18 -3.33301 36.833 -7.33301 56.5 -12
s37.834 -12.667 54.501 -24s30.5 -27.333 41.5 -48s16.5 -48 16.5 -82c0 -44.667 -12 -81.167 -36 -109.5s-58 -47.5 -102 -57.5c12.667 -20 21.834 -38.667 27.501 -56s8.5 -36 8.5 -56c0 -32 -10 -57.667 -30 -77s-49.333 -29 -88 -29z" />
    <glyph glyph-name="Scaron" unicode="&#x160;" horiz-adv-x="510" 
d="M246 -12c-34 0 -69.0029 3.00195 -105.003 9.00195s-73.333 15.667 -112 29l2 138c11.333 -5.33301 24.833 -10.5 40.5 -15.5s31.834 -9.33301 48.501 -13s33.334 -6.5 50.001 -8.5s32 -3 46 -3c73.333 0 110 28.667 110 86c0 14.667 -3 26.834 -9 36.501
s-14.5 18 -25.5 25s-24 13.167 -39 18.5l-49.5 17c-22 6.66699 -43.167 15 -63.5 25s-38.166 23.667 -53.499 41s-27.666 39.333 -36.999 66s-14 60 -14 100c0 66 21.667 117.5 65 154.5s103.666 55.5 180.999 55.5c28.667 0 57.5 -2.16699 86.5 -6.5
s59.167 -11.166 90.5 -20.499l-2 -132c-13.333 4 -27.333 7.5 -42 10.5s-29.167 5.66699 -43.5 8s-28 4.16602 -41 5.49902s-24.5 2 -34.5 2c-64 0 -96 -25.667 -96 -77c0 -15.333 3.5 -28.333 10.5 -39s16.833 -19.834 29.5 -27.501s27.167 -14.834 43.5 -21.501l53.5 -21
c21.333 -8 41.333 -17.5 60 -28.5s35 -24.833 49 -41.5s25 -36.667 33 -60s12 -51.333 12 -84c0 -35.333 -5.66699 -67 -17 -95s-27.5 -51.833 -48.5 -71.5s-46.5 -34.834 -76.5 -45.501s-64 -16 -102 -16zM105.997 968.002l161 -71l161 71v-108l-160 -72l-162 72v108z" />
    <glyph glyph-name="scaron" unicode="&#x161;" horiz-adv-x="428" 
d="M60 795l161 -72l162 72v-108l-161 -72l-162 72v108zM193 -10c-52 0 -105.334 9.33398 -160.001 28.001v117c21.333 -8 46.333 -14.667 75 -20s55.667 -8 81 -8c43.333 0 65 15.333 65 46c0 27.333 -20 44.333 -60 51c-16 2 -33.333 5 -52 9s-36 11.667 -52 23
s-29.333 27.666 -40 48.999s-16 51 -16 89c0 56.667 16 100.167 48 130.5s77.667 45.5 137 45.5c23.333 0 48.833 -1.83301 76.5 -5.5s55.167 -8.83398 82.5 -15.501v-117c-31.333 6.66699 -55.833 11.334 -73.5 14.001s-34.5 4 -50.5 4c-48 0 -72 -16.333 -72 -49
c0 -16 4.83301 -27.5 14.5 -34.5s23.167 -12.167 40.5 -15.5c18 -3.33301 36.833 -7.33301 56.5 -12s37.834 -12.667 54.501 -24s30.5 -27.333 41.5 -48s16.5 -48 16.5 -82c0 -56 -18.5 -99.167 -55.5 -129.5s-89.5 -45.5 -157.5 -45.5z" />
    <glyph glyph-name="uni0162" unicode="&#x162;" horiz-adv-x="535" 
d="M185 599h-169v141h503v-141h-170v-599h-28c13.333 -20.667 22.833 -39.834 28.5 -57.501s8.5 -36.5 8.5 -56.5c0 -32 -10 -57.667 -30 -77s-49.333 -29 -88 -29c-11.333 0 -24 0.833008 -38 2.5s-29.333 4.83398 -46 9.50098v94c12.667 -3.33301 24.667 -5.33301 36 -6
s19 -1 23 -1c13.333 0 23 3.33301 29 10s9 14.667 9 24c0 11.333 -2.83301 24.333 -8.5 39s-13.5 30.667 -23.5 48h-36v599z" />
    <glyph glyph-name="uni0163" unicode="&#x163;" horiz-adv-x="372" 
d="M179 -220c-11.333 0 -24.001 0.832031 -38.001 2.49902s-29.333 4.83398 -46 9.50098v94c12.667 -3.33301 24.667 -5.33301 36 -6s19 -1 23 -1c13.333 0 23 3.33301 29 10s9 14.667 9 24c0 13.333 -4.33301 30 -13 50s-20.667 40.667 -36 62c-36 26 -54 67 -54 123v258
h-79v134h88l21 155l129 16v-171h104v-134h-103v-218c0 -28 4.5 -47.667 13.5 -59s22.833 -17 41.5 -17c7.33301 0 15 0.5 23 1.5s16.667 2.83301 26 5.5v-115c-13.333 -3.33301 -27.666 -5.83301 -42.999 -7.5s-30.666 -2.5 -45.999 -2.5
c11.333 -19.333 19.666 -37.333 24.999 -54s8 -34.667 8 -54c0 -32 -10 -57.667 -30 -77s-49.333 -29 -88 -29z" />
    <glyph glyph-name="Tcaron" unicode="&#x164;" horiz-adv-x="535" 
d="M111 968l161 -71l161 71v-108l-160 -72l-162 72v108zM185 599h-169v141h503v-141h-170v-599h-164v599z" />
    <glyph glyph-name="tcaron" unicode="&#x165;" horiz-adv-x="369" 
d="M263 -6c-57.333 0 -100.667 13.167 -130 39.5s-44 64.5 -44 114.5v258h-79v134h88l21 155l129 16v-171h91v-134h-90v-218c0 -28 4.5 -47.667 13.5 -59s22.833 -17 41.5 -17c7.33301 0 15 0.5 23 1.5s16.667 2.83301 26 5.5v-115
c-13.333 -3.33301 -27.833 -5.83301 -43.5 -7.5s-31.167 -2.5 -46.5 -2.5zM302.999 808h126l-41 -228h-85v228z" />
    <glyph glyph-name="Tbar" unicode="&#x166;" horiz-adv-x="540" 
d="M77 418h111v181h-169v141h503v-141h-170v-181h96v-91h-96v-327h-164v327h-111v91z" />
    <glyph glyph-name="tbar" unicode="&#x167;" horiz-adv-x="375" 
d="M20 320h71.999v86h-79v134h88l21 155l129 16v-171h104v-134h-103v-86h84v-92h-84v-40c0 -28 4.5 -47.667 13.5 -59s22.833 -17 41.5 -17c7.33301 0 15 0.5 23 1.5s16.667 2.83301 26 5.5v-115c-13.333 -3.33301 -27.833 -5.83301 -43.5 -7.5s-31.167 -2.5 -46.5 -2.5
c-57.333 0 -100.666 13.167 -129.999 39.5s-44 64.5 -44 114.5v80h-72v92z" />
    <glyph glyph-name="Utilde" unicode="&#x168;" horiz-adv-x="663" 
d="M145 836c19.333 38.667 41.001 67.667 65.001 87s48 29 72 29c12.667 0 25.167 -2 37.5 -6s24.666 -8.5 36.999 -13.5s24.666 -9.5 36.999 -13.5s24.833 -6 37.5 -6s24.667 3 36 9s23.666 16 36.999 30l24 -21c-18 -40 -39 -69.5 -63 -88.5s-48 -28.5 -72 -28.5
c-13.333 0 -26.166 2 -38.499 6s-24.666 8.33301 -36.999 13s-24.5 9 -36.5 13s-24.333 6 -37 6c-13.333 0 -26 -2.83301 -38 -8.5s-24.667 -15.167 -38 -28.5zM331.001 -10c-51.333 0 -94.833 6 -130.5 18s-64.5 30.167 -86.5 54.5s-38 55 -48 92s-15 80.167 -15 129.5v455
h164v-445c0 -60 8.83301 -102.667 26.5 -128s47.5 -38 89.5 -38c21.333 0 39.5 3 54.5 9s27.167 15.5 36.5 28.5s16 30 20 51s6 46.833 6 77.5v445h164v-455c0 -50 -5 -93.333 -15 -130s-26 -67.167 -48 -91.5s-50.833 -42.5 -86.5 -54.5s-79.5 -18 -131.5 -18z" />
    <glyph glyph-name="utilde" unicode="&#x169;" horiz-adv-x="535" 
d="M184 -10c-43.333 0 -77.498 12.833 -102.498 38.5s-37.5 60.834 -37.5 105.501v406h160v-353c0 -21.333 4 -36.833 12 -46.5s20.333 -14.5 37 -14.5c11.333 0 22.666 2.16699 33.999 6.5s25 12.166 41 23.499v384h160v-540h-135l-9 55h-4
c-19.333 -12.667 -36 -23.167 -50 -31.5s-26.833 -15 -38.5 -20s-22.834 -8.5 -33.501 -10.5s-22 -3 -34 -3zM84.002 658c18.667 35.333 40.167 61.499 64.5 78.499s48.166 25.5 71.499 25.5c12.667 0 25.334 -2.83301 38.001 -8.5s25 -12 37 -19s24.167 -13.333 36.5 -19
s24.833 -8.5 37.5 -8.5c11.333 0 22.166 3.16699 32.499 9.5s21.166 17.5 32.499 33.5l33 -37c-18 -36.667 -39.167 -63.334 -63.5 -80.001s-48.5 -25 -72.5 -25c-12.667 0 -25.167 2.83301 -37.5 8.5s-24.666 11.834 -36.999 18.501s-24.666 12.834 -36.999 18.501
s-24.833 8.5 -37.5 8.5c-11.333 0 -22.333 -3 -33 -9s-21.667 -16.333 -33 -31z" />
    <glyph glyph-name="Umacron" unicode="&#x16a;" horiz-adv-x="663" 
d="M164 944h317v-107h-317v107zM331 -10c-51.333 0 -94.833 6 -130.5 18s-64.5 30.167 -86.5 54.5s-38 55 -48 92s-15 80.167 -15 129.5v455h164v-445c0 -60 8.83301 -102.667 26.5 -128s47.5 -38 89.5 -38c21.333 0 39.5 3 54.5 9s27.167 15.5 36.5 28.5s16 30 20 51
s6 46.833 6 77.5v445h164v-455c0 -50 -5 -93.333 -15 -130s-26 -67.167 -48 -91.5s-50.833 -42.5 -86.5 -54.5s-79.5 -18 -131.5 -18z" />
    <glyph glyph-name="umacron" unicode="&#x16b;" horiz-adv-x="535" 
d="M184 -10c-43.333 0 -77.498 12.833 -102.498 38.5s-37.5 60.834 -37.5 105.501v406h160v-353c0 -21.333 4 -36.833 12 -46.5s20.333 -14.5 37 -14.5c11.333 0 22.666 2.16699 33.999 6.5s25 12.166 41 23.499v384h160v-540h-135l-9 55h-4
c-19.333 -12.667 -36 -23.167 -50 -31.5s-26.833 -15 -38.5 -20s-22.834 -8.5 -33.501 -10.5s-22 -3 -34 -3zM108.002 722h321v-98h-321v98z" />
    <glyph glyph-name="Ubreve" unicode="&#x16c;" horiz-adv-x="663" 
d="M325 795c-58.667 0 -102.999 15.5 -132.999 46.5s-45 73.833 -45 128.5h109c0 -36 5 -61.5 15 -76.5s28 -22.5 54 -22.5c25.333 0 43.166 7.5 53.499 22.5s15.5 40.5 15.5 76.5h110c0 -54 -15.333 -96.667 -46 -128s-75 -47 -133 -47zM331.001 -10
c-51.333 0 -94.833 6 -130.5 18s-64.5 30.167 -86.5 54.5s-38 55 -48 92s-15 80.167 -15 129.5v455h164v-445c0 -60 8.83301 -102.667 26.5 -128s47.5 -38 89.5 -38c21.333 0 39.5 3 54.5 9s27.167 15.5 36.5 28.5s16 30 20 51s6 46.833 6 77.5v445h164v-455
c0 -50 -5 -93.333 -15 -130s-26 -67.167 -48 -91.5s-50.833 -42.5 -86.5 -54.5s-79.5 -18 -131.5 -18z" />
    <glyph glyph-name="ubreve" unicode="&#x16d;" horiz-adv-x="535" 
d="M184 -10c-43.333 0 -77.498 12.833 -102.498 38.5s-37.5 60.834 -37.5 105.501v406h160v-353c0 -21.333 4 -36.833 12 -46.5s20.333 -14.5 37 -14.5c11.333 0 22.666 2.16699 33.999 6.5s25 12.166 41 23.499v384h160v-540h-135l-9 55h-4
c-19.333 -12.667 -36 -23.167 -50 -31.5s-26.833 -15 -38.5 -20s-22.834 -8.5 -33.501 -10.5s-22 -3 -34 -3zM268.002 612c-112.667 0 -172.001 53.333 -178.001 160h108c0.666992 -50.667 24 -76 70 -76c44 0 67 25.333 69 76h109
c-7.33301 -106.667 -66.666 -160 -177.999 -160z" />
    <glyph glyph-name="Uring" unicode="&#x16e;" horiz-adv-x="663" 
d="M331 -10c-51.333 0 -94.833 6 -130.5 18s-64.5 30.167 -86.5 54.5s-38 55 -48 92s-15 80.167 -15 129.5v455h164v-445c0 -60 8.83301 -102.667 26.5 -128s47.5 -38 89.5 -38c21.333 0 39.5 3 54.5 9s27.167 15.5 36.5 28.5s16 30 20 51s6 46.833 6 77.5v445h164v-455
c0 -50 -5 -93.333 -15 -130s-26 -67.167 -48 -91.5s-50.833 -42.5 -86.5 -54.5s-79.5 -18 -131.5 -18zM322 771c-34 0 -61.833 10.667 -83.5 32s-32.5 48 -32.5 80s10.833 58.833 32.5 80.5s49.5 32.5 83.5 32.5c34.667 0 62.834 -10.833 84.501 -32.5
s32.5 -48.5 32.5 -80.5s-10.833 -58.667 -32.5 -80s-49.834 -32 -84.501 -32zM322 827c20 0 34.167 4.5 42.5 13.5s12.5 23.167 12.5 42.5s-4.16699 33.666 -12.5 42.999s-22.5 14 -42.5 14c-20.667 0 -35 -4.66699 -43 -14s-12 -23.666 -12 -42.999s4 -33.5 12 -42.5
s22.333 -13.5 43 -13.5z" />
    <glyph glyph-name="uring" unicode="&#x16f;" horiz-adv-x="535" 
d="M265 594c-36 0 -65.001 10.5 -87.001 31.5s-33 47.833 -33 80.5c0 33.333 10.833 60.333 32.5 81s50.834 31 87.501 31s66 -10.333 88 -31s33 -47.667 33 -81c0 -32.667 -11.167 -59.5 -33.5 -80.5s-51.5 -31.5 -87.5 -31.5zM264.999 652
c15.333 0 27.666 5.16797 36.999 15.501s14 23.166 14 38.499c0 16 -4.66699 29 -14 39s-21.666 15 -36.999 15s-27.5 -5 -36.5 -15s-13.5 -23 -13.5 -39s4.5 -29 13.5 -39s21.167 -15 36.5 -15zM183.999 -9.99902c-43.333 0 -77.498 12.833 -102.498 38.5
s-37.5 60.834 -37.5 105.501v406h160v-353c0 -21.333 4 -36.833 12 -46.5s20.333 -14.5 37 -14.5c11.333 0 22.666 2.16699 33.999 6.5s25 12.166 41 23.499v384h160v-540h-135l-9 55h-4c-19.333 -12.667 -36 -23.167 -50 -31.5s-26.833 -15 -38.5 -20
s-22.834 -8.5 -33.501 -10.5s-22 -3 -34 -3z" />
    <glyph glyph-name="Uhungarumlaut" unicode="&#x170;" horiz-adv-x="663" 
d="M331 -10c-51.333 0 -94.833 6 -130.5 18s-64.5 30.167 -86.5 54.5s-38 55 -48 92s-15 80.167 -15 129.5v455h164v-445c0 -60 8.83301 -102.667 26.5 -128s47.5 -38 89.5 -38c21.333 0 39.5 3 54.5 9s27.167 15.5 36.5 28.5s16 30 20 51s6 46.833 6 77.5v445h164v-455
c0 -50 -5 -93.333 -15 -130s-26 -67.167 -48 -91.5s-50.833 -42.5 -86.5 -54.5s-79.5 -18 -131.5 -18zM178 800l66 173h135l-116 -184zM362 800l67 173h134l-116 -184z" />
    <glyph glyph-name="uhungarumlaut" unicode="&#x171;" horiz-adv-x="535" 
d="M184 -10c-43.333 0 -77.498 12.833 -102.498 38.5s-37.5 60.834 -37.5 105.501v406h160v-353c0 -21.333 4 -36.833 12 -46.5s20.333 -14.5 37 -14.5c11.333 0 22.666 2.16699 33.999 6.5s25 12.166 41 23.499v384h160v-540h-135l-9 55h-4
c-19.333 -12.667 -36 -23.167 -50 -31.5s-26.833 -15 -38.5 -20s-22.834 -8.5 -33.501 -10.5s-22 -3 -34 -3zM122.002 620l66 186h135l-116 -196zM309.002 620l66 186h135l-116 -196z" />
    <glyph glyph-name="Uogonek" unicode="&#x172;" horiz-adv-x="663" 
d="M329 -215c-82 0 -123 33.332 -123 99.999c0 20.667 4.66699 39.334 14 56.001s25 34.334 47 53.001c-39.333 4.66699 -72.833 14.167 -100.5 28.5s-50 33.5 -67 57.5s-29.333 53 -37 87s-11.5 73 -11.5 117v455h164v-445c0 -60 8.83301 -102.667 26.5 -128
s47.5 -38 89.5 -38c21.333 0 39.5 3 54.5 9s27.167 15.5 36.5 28.5s16 30 20 51s6 46.833 6 77.5v445h164v-455c0 -85.333 -15.167 -151.833 -45.5 -199.5s-81.833 -77.167 -154.5 -88.5c-19.333 -7.33301 -35.5 -15.333 -48.5 -24s-23.5 -17.167 -31.5 -25.5
s-13.833 -16.333 -17.5 -24s-5.5 -14.5 -5.5 -20.5c0 -8.66699 3.5 -14.834 10.5 -18.501s16.167 -5.5 27.5 -5.5s23.166 1.16699 35.499 3.5s23.166 5.16602 32.499 8.49902v-93c-15.333 -3.33301 -29.666 -6.16602 -42.999 -8.49902s-27.666 -3.5 -42.999 -3.5z" />
    <glyph glyph-name="uogonek" unicode="&#x173;" horiz-adv-x="536" 
d="M185 -10c-43.333 0 -77.499 12.8359 -102.499 38.5029s-37.5 60.834 -37.5 105.501v406h160v-353c0 -21.333 4 -36.833 12 -46.5s20.333 -14.5 37 -14.5c11.333 0 22.666 2.16699 33.999 6.5s25 12.166 41 23.499v384h160v-548c-20 -7.33301 -36.667 -15.333 -50 -24
s-24.166 -17.334 -32.499 -26.001s-14.333 -16.834 -18 -24.501s-5.5 -14.5 -5.5 -20.5c0 -8.66699 3.5 -14.834 10.5 -18.501s16.167 -5.5 27.5 -5.5s23.166 1.16699 35.499 3.5s23.166 5.16602 32.499 8.49902v-93c-15.333 -3.33301 -29.666 -6.16602 -42.999 -8.49902
s-27.666 -3.5 -42.999 -3.5c-82 0 -123 33.333 -123 100c0 22.667 5.5 43 16.5 61s30.167 37.667 57.5 59l-9 55h-4c-19.333 -12.667 -36 -23.167 -50 -31.5s-26.833 -15 -38.5 -20s-22.834 -8.5 -33.501 -10.5s-22 -3 -34 -3z" />
    <glyph glyph-name="Wcircumflex" unicode="&#x174;" horiz-adv-x="933" 
d="M4 740h180l74 -446l11 -94h11l14 94l96 446h160l93 -446l14 -94h11l11 94l76 446h176l-169 -740h-192l-86 379l-11 128h-11l-12 -128l-88 -379h-192zM303 900l162 72l161 -72v-108l-162 72l-161 -72v108z" />
    <glyph glyph-name="wcircumflex" unicode="&#x175;" horiz-adv-x="738" 
d="M213 721l162 71l161 -71v-108l-162 71l-161 -71v108zM16 536v4h145l43 -315l8 -61h12l9 61l58 315h156l58 -315l10 -61h11l9 61l43 315h144v-4l-103 -536h-180l-58 303l-6 55h-12l-6 -55l-58 -303h-180z" />
    <glyph glyph-name="Ycircumflex" unicode="&#x176;" horiz-adv-x="644" 
d="M240 252l-250 488h186l128 -284l14 -51h9l15 51l129 284h182l-249 -487v-253h-164v252zM162 900l162 72l161 -72v-108l-162 72l-161 -72v108z" />
    <glyph glyph-name="ycircumflex" unicode="&#x177;" horiz-adv-x="534" 
d="M125 -187v7l59 180l-183 528v12h162l86 -310l12 -72h10l13 72l86 310h162v-12l-247 -748zM117 721l162 71l161 -71v-108l-162 71l-161 -71v108z" />
    <glyph glyph-name="Ydieresis" unicode="&#x178;" horiz-adv-x="644" 
d="M240 252l-250 488h186l128 -284l14 -51h9l15 51l129 284h182l-249 -487v-253h-164v252zM200 801c-31.333 0 -53.833 6.83105 -67.5 20.498s-20.5 35.834 -20.5 66.501c0 30 6.83301 51.667 20.5 65s36.167 20 67.5 20c30.667 0 53.167 -6.66699 67.5 -20
s21.5 -35 21.5 -65c0 -31.333 -7.16699 -53.666 -21.5 -66.999s-36.833 -20 -67.5 -20zM445 800.998c-31.333 0 -53.833 6.83105 -67.5 20.498s-20.5 35.834 -20.5 66.501c0 30 6.83301 51.667 20.5 65s36.167 20 67.5 20c30.667 0 53.167 -6.66699 67.5 -20
s21.5 -35 21.5 -65c0 -31.333 -7.16699 -53.666 -21.5 -66.999s-36.833 -20 -67.5 -20z" />
    <glyph glyph-name="Zacute" unicode="&#x179;" horiz-adv-x="540" 
d="M24 149l296 443v10h-281v138h462v-150l-296 -443v-9h311v-138h-492v149zM211 798l66 175h164l-115 -184z" />
    <glyph glyph-name="zacute" unicode="&#x17a;" horiz-adv-x="437" 
d="M160 619l66 187h165l-116 -196zM28 111l195 297v7h-189v125h367v-111l-194 -297v-7h204v-125h-383v111z" />
    <glyph glyph-name="Zdotaccent" unicode="&#x17b;" horiz-adv-x="540" 
d="M275 798c-31.333 0 -53.833 6.83105 -67.5 20.498s-20.5 35.834 -20.5 66.501c0 30 6.83301 51.667 20.5 65s36.167 20 67.5 20c30.667 0 53.167 -6.66699 67.5 -20s21.5 -35 21.5 -65c0 -31.333 -7.16699 -53.666 -21.5 -66.999s-36.833 -20 -67.5 -20zM24 148.998
l296 443v10h-281v138h462v-150l-296 -443v-9h311v-138h-492v149z" />
    <glyph glyph-name="zdotaccent" unicode="&#x17c;" horiz-adv-x="437" 
d="M28 111l195 297v7h-189v125h367v-111l-194 -297v-7h204v-125h-383v111zM218 605c-31.333 0 -53.833 6.83301 -67.5 20.5s-20.5 35.5 -20.5 65.5c0 30.667 6.83301 52.667 20.5 66s36.167 20 67.5 20c30 0 52.333 -6.66699 67 -20s22 -35.333 22 -66
s-7.33301 -52.667 -22 -66s-37 -20 -67 -20z" />
    <glyph glyph-name="Zcaron" unicode="&#x17d;" horiz-adv-x="540" 
d="M123 968l161 -71l161 71v-108l-160 -72l-162 72v108zM24 149l296 443v10h-281v138h462v-150l-296 -443v-9h311v-138h-492v149z" />
    <glyph glyph-name="zcaron" unicode="&#x17e;" horiz-adv-x="437" 
d="M58 795l161 -72l162 72v-108l-161 -72l-162 72v108zM28 111l195 297v7h-189v125h367v-111l-194 -297v-7h204v-125h-383v111z" />
    <glyph glyph-name="Schwa" unicode="&#x18f;" horiz-adv-x="630" 
d="M26 324c0 18 0.499023 35.168 1.49902 51.501s2.5 32.833 4.5 49.5h402c-2 36.667 -6.83301 67 -14.5 91s-18.834 43.167 -33.501 57.5s-33.167 24.333 -55.5 30s-49.166 8.5 -80.499 8.5s-62.666 -2.33301 -93.999 -7s-63.666 -12.667 -96.999 -24
c0 0.666992 -0.333008 7.66699 -1 21s-1.5 28 -2.5 44s-1.83301 30.667 -2.5 44s-1 20.333 -1 21c32 12 66 21.667 102 29s73.333 11 112 11c111.333 0 195.166 -31.667 251.499 -95s84.5 -157 84.5 -281c0 -60.667 -6.66699 -114.834 -20 -162.501s-33 -88 -59 -121
s-58.667 -58.167 -98 -75.5s-85 -26 -137 -26c-87.333 0 -152.833 26.667 -196.5 80s-65.5 138 -65.5 254zM296.999 118.001c23.333 0 43.3311 3.49902 59.998 10.499s30.5 18.333 41.5 34s19.333 35.834 25 60.501s9.5 55 11.5 91h-250
c0.666992 -38 2.83398 -69.667 6.50098 -95s9.83398 -45.5 18.501 -60.5s20 -25.5 34 -31.5s31.667 -9 53 -9z" />
    <glyph glyph-name="florin" unicode="&#x192;" horiz-adv-x="402" 
d="M101 406h-73.001v134h74v27c0 45.333 4.66699 83.333 14 114s24.833 55.667 46.5 75s50.334 33.5 86.001 42.5s80.167 14.5 133.5 16.5l10 -120c-26 -2 -47.5 -5.16699 -64.5 -9.5s-30.333 -10.833 -40 -19.5s-16.5 -20 -20.5 -34s-6 -31.333 -6 -52v-40h108v-134h-108
v-571l-160 -55v626z" />
    <glyph glyph-name="uni01C4" unicode="&#x1c4;" horiz-adv-x="1176" 
d="M759 968l161 -71l161 71v-108l-160 -72l-162 72v108zM660 149l296 443v10h-281v138h462v-150l-296 -443v-9h311v-138h-492v149zM233 -13c-23.333 0 -48.835 0.832031 -76.502 2.49902s-61.167 4.5 -100.5 8.5v740c42.667 4 78.334 6.83301 107.001 8.5
s55.334 2.5 80.001 2.5c66 0 122 -6.83301 168 -20.5s83.5 -35.667 112.5 -66s50 -69.666 63 -117.999s19.5 -106.833 19.5 -175.5c0 -69.333 -6.66699 -128.166 -20 -176.499s-34.833 -87.833 -64.5 -118.5s-68.167 -52.834 -115.5 -66.501s-105 -20.5 -173 -20.5z
M288.998 119.999c28 0 51.4971 3.83301 70.4971 11.5s34.333 21 46 40s19.834 44.5 24.501 76.5s7 72.667 7 122c0 48 -2.5 88 -7.5 120s-13.833 57.5 -26.5 76.5s-29.5 32.333 -50.5 40s-47.5 11.5 -79.5 11.5c-13.333 0 -24.166 -0.333008 -32.499 -1
s-16.166 -2 -23.499 -4v-488c17.333 -2 31.333 -3.33301 42 -4s20.667 -1 30 -1z" />
    <glyph glyph-name="uni01C5" unicode="&#x1c5;" horiz-adv-x="1073" 
d="M694 795l161 -72l162 72v-108l-161 -72l-162 72v108zM664 111l195 297v7h-189v125h367v-111l-194 -297v-7h204v-125h-383v111zM233 -13c-23.333 0 -48.835 0.832031 -76.502 2.49902s-61.167 4.5 -100.5 8.5v740c42.667 4 78.334 6.83301 107.001 8.5
s55.334 2.5 80.001 2.5c66 0 122 -6.83301 168 -20.5s83.5 -35.667 112.5 -66s50 -69.666 63 -117.999s19.5 -106.833 19.5 -175.5c0 -69.333 -6.66699 -128.166 -20 -176.499s-34.833 -87.833 -64.5 -118.5s-68.167 -52.834 -115.5 -66.501s-105 -20.5 -173 -20.5z
M288.998 119.999c28 0 51.4971 3.83301 70.4971 11.5s34.333 21 46 40s19.834 44.5 24.501 76.5s7 72.667 7 122c0 48 -2.5 88 -7.5 120s-13.833 57.5 -26.5 76.5s-29.5 32.333 -50.5 40s-47.5 11.5 -79.5 11.5c-13.333 0 -24.166 -0.333008 -32.499 -1
s-16.166 -2 -23.499 -4v-488c17.333 -2 31.333 -3.33301 42 -4s20.667 -1 30 -1z" />
    <glyph glyph-name="uni01C6" unicode="&#x1c6;" horiz-adv-x="977" 
d="M599 795l161 -72l162 72v-108l-161 -72l-162 72v108zM568 111l195 297v7h-189v125h367v-111l-194 -297v-7h204v-125h-383v111zM201 -9c-115.333 0 -173 87.333 -173 262c0 197.333 85.333 296 256 296c6.66699 0 13.5 -0.333008 20.5 -1s16.833 -1.66699 29.5 -3v263h159
v-808h-146l-10 54h-4c-32 -42 -76 -63 -132 -63zM260 104c12.667 0 23.665 2.83301 32.998 8.5s17 15.167 23 28.5s10.5 31.5 13.5 54.5s4.5 51.833 4.5 86.5v150c-16.667 7.33301 -35 11 -55 11c-16.667 0 -30.5 -2.66699 -41.5 -8s-20 -14.5 -27 -27.5
s-12 -30.5 -15 -52.5s-4.5 -49.667 -4.5 -83c0 -32.667 1.16699 -59.667 3.5 -81s6.33301 -38.5 12 -51.5s12.834 -22.167 21.501 -27.5s19.334 -8 32.001 -8z" />
    <glyph glyph-name="uni01C7" unicode="&#x1c7;" horiz-adv-x="739" 
d="M444 -160c14.667 34 26.832 64.999 36.499 92.999s17.5 55.5 23.5 82.5s10.167 54.833 12.5 83.5s3.5 60.334 3.5 95.001v546h165v-560c0 -34 -2.5 -66.5 -7.5 -97.5s-13 -61.833 -24 -92.5s-25.167 -62 -42.5 -94s-38.666 -66.333 -63.999 -103zM55.998 739.999h164
v-603h230v-137h-394v740z" />
    <glyph glyph-name="uni01C8" unicode="&#x1c8;" horiz-adv-x="717" 
d="M590 615c-30.667 0 -53 6.66699 -67 20s-21 35.333 -21 66c0 30 6.83301 51.833 20.5 65.5s36.167 20.5 67.5 20.5s54 -6.83301 68 -20.5s21 -35.5 21 -65.5s-6.83301 -51.833 -20.5 -65.5s-36.5 -20.5 -68.5 -20.5zM467 -187c6.66699 18.667 12.667 39.833 18 63.5
s9.83301 48.334 13.5 74.001s6.5 52.167 8.5 79.5s3 54.666 3 81.999v428h160v-466c0 -22 -2.33301 -46 -7 -72s-11.167 -52.167 -19.5 -78.5s-18.333 -51.833 -30 -76.5s-24.167 -47 -37.5 -67zM56 739.999h164v-603h230v-137h-394v740z" />
    <glyph glyph-name="uni01C9" unicode="&#x1c9;" horiz-adv-x="511" 
d="M384 615c-30.667 0 -53 6.66699 -67 20s-21 35.333 -21 66c0 30 6.83301 51.833 20.5 65.5s36.167 20.5 67.5 20.5s54 -6.83301 68 -20.5s21 -35.5 21 -65.5s-6.83301 -51.833 -20.5 -65.5s-36.5 -20.5 -68.5 -20.5zM261 -187c6.66699 18.667 12.667 39.833 18 63.5
s9.83301 48.334 13.5 74.001s6.5 52.167 8.5 79.5s3 54.666 3 81.999v428h160v-466c0 -22 -2.33301 -46 -7 -72s-11.167 -52.167 -19.5 -78.5s-18.333 -51.833 -30 -76.5s-24.167 -47 -37.5 -67zM48 807.999h160v-808h-160v808z" />
    <glyph glyph-name="uni01CA" unicode="&#x1ca;" horiz-adv-x="956" 
d="M662 -160c14.667 34 26.832 64.999 36.499 92.999s17.5 55.5 23.5 82.5s10.167 54.833 12.5 83.5s3.5 60.334 3.5 95.001v546h165v-560c0 -34 -2.5 -66.5 -7.5 -97.5s-13 -61.833 -24 -92.5s-25.167 -62 -42.5 -94s-38.666 -66.333 -63.999 -103zM55.998 739.999h137
l238 -374l39 -79h9v453h145v-740h-137l-240 377l-37 78h-10v-455h-144v740z" />
    <glyph glyph-name="uni01CB" unicode="&#x1cb;" horiz-adv-x="935" 
d="M808 615c-30.667 0 -53 6.66699 -67 20s-21 35.333 -21 66c0 30 6.83301 51.833 20.5 65.5s36.167 20.5 67.5 20.5s54 -6.83301 68 -20.5s21 -35.5 21 -65.5s-6.83301 -51.833 -20.5 -65.5s-36.5 -20.5 -68.5 -20.5zM685 -187c6.66699 18.667 12.667 39.833 18 63.5
s9.83301 48.334 13.5 74.001s6.5 52.167 8.5 79.5s3 54.666 3 81.999v428h160v-466c0 -22 -2.33301 -46 -7 -72s-11.167 -52.167 -19.5 -78.5s-18.333 -51.833 -30 -76.5s-24.167 -47 -37.5 -67zM56 739.999h137l238 -374l39 -79h9v453h145v-740h-137l-240 377l-37 78h-10
v-455h-144v740z" />
    <glyph glyph-name="uni01CC" unicode="&#x1cc;" horiz-adv-x="792" 
d="M664 615c-30.667 0 -53 6.66699 -67 20s-21 35.333 -21 66c0 30 6.83301 51.833 20.5 65.5s36.167 20.5 67.5 20.5s54 -6.83301 68 -20.5s21 -35.5 21 -65.5s-6.83301 -51.833 -20.5 -65.5s-36.5 -20.5 -68.5 -20.5zM541 -187c6.66699 18.667 12.667 39.833 18 63.5
s9.83301 48.334 13.5 74.001s6.5 52.167 8.5 79.5s3 54.666 3 81.999v428h160v-466c0 -22 -2.33301 -46 -7 -72s-11.167 -52.167 -19.5 -78.5s-18.333 -51.833 -30 -76.5s-24.167 -47 -37.5 -67zM47 539.999l134.999 -0.000976562l9 -58h4l55.5 33.5c15.667 9 30 16 43 21
s25.333 8.5 37 10.5s24.5 3 38.5 3c38 0 67.833 -12.667 89.5 -38s32.5 -60.666 32.5 -105.999v-406h-159v349c0 22.667 -4.16699 38.667 -12.5 48s-19.166 14 -32.499 14c-12 0 -24.833 -2.66699 -38.5 -8s-27.5 -12.333 -41.5 -21v-382h-160v540z" />
    <glyph glyph-name="Oogonek" unicode="&#x1ea;" horiz-adv-x="667" 
d="M331 -213c-82 0 -122.998 33.335 -122.998 100.002c0 20.667 4.66699 39.167 14 55.5s24.666 33.833 45.999 52.5c-159.333 24 -239 148.667 -239 374c0 128.667 25 224.334 75 287.001s126 94 228 94c103.333 0 180 -31.333 230 -94s75 -158.334 75 -287.001
c0 -111.333 -18.333 -197.333 -55 -258s-93.334 -98.334 -170.001 -113.001c-38 -15.333 -64.333 -32 -79 -50s-22 -32.667 -22 -44c0 -8.66699 3.5 -14.834 10.5 -18.501s16.167 -5.5 27.5 -5.5s23.166 1.16699 35.499 3.5s23.166 5.16602 32.499 8.49902v-93
c-15.333 -3.33301 -29.666 -6.16602 -42.999 -8.49902s-27.666 -3.5 -42.999 -3.5zM332.002 125.002c25.333 0 46.6689 4.16797 64.002 12.501s31.5 22.166 42.5 41.499s18.833 44.5 23.5 75.5s7 69.167 7 114.5c0 46 -2.33301 84.667 -7 116s-12.334 56.666 -23.001 75.999
s-24.834 33.166 -42.501 41.499s-39.167 12.5 -64.5 12.5c-24.667 0 -45.667 -4.33301 -63 -13s-31.333 -22.667 -42 -42s-18.334 -44.666 -23.001 -75.999s-7 -69.666 -7 -114.999c0 -44.667 2.33301 -82.5 7 -113.5s12.334 -56.167 23.001 -75.5s24.667 -33.333 42 -42
s38.333 -13 63 -13z" />
    <glyph glyph-name="oogonek" unicode="&#x1eb;" horiz-adv-x="533" 
d="M285 -203c-82 0 -123 33.335 -123 100.002c0 18.667 3.83301 35.667 11.5 51s20.167 31 37.5 47c-60.667 10 -106.5 38.167 -137.5 84.5s-46.5 109.833 -46.5 190.5c0 92.667 20.167 162.5 60.5 209.5s99.833 70.5 178.5 70.5s138.167 -23.5 178.5 -70.5
s60.5 -116.833 60.5 -209.5c0 -145.333 -49.333 -234.333 -148 -267c-34.667 -14.667 -58.667 -30.334 -72 -47.001s-20 -30.667 -20 -42c0 -8.66699 3.5 -14.834 10.5 -18.501s16.167 -5.5 27.5 -5.5s23.166 1.16699 35.499 3.5s23.166 5.16602 32.499 8.49902v-93
c-15.333 -3.33301 -29.666 -6.16602 -42.999 -8.49902s-27.666 -3.5 -42.999 -3.5zM266 112.002c16 0 29 2.16699 39 6.5s18 12.5 24 24.5s10.167 28.167 12.5 48.5s3.5 46.5 3.5 78.5s-1.16699 58.167 -3.5 78.5s-6.5 36.5 -12.5 48.5s-14 20.167 -24 24.5s-23 6.5 -39 6.5
s-29 -2.16699 -39 -6.5s-18 -12.5 -24 -24.5s-10.167 -28.167 -12.5 -48.5s-3.5 -46.5 -3.5 -78.5s1.16699 -58.167 3.5 -78.5s6.5 -36.5 12.5 -48.5s14 -20.167 24 -24.5s23 -6.5 39 -6.5z" />
    <glyph glyph-name="uni01F1" unicode="&#x1f1;" horiz-adv-x="1167" 
d="M651 149l296 443v10h-281v138h462v-150l-296 -443v-9h311v-138h-492v149zM233 -13c-23.333 0 -48.835 0.832031 -76.502 2.49902s-61.167 4.5 -100.5 8.5v740c42.667 4 78.334 6.83301 107.001 8.5s55.334 2.5 80.001 2.5c66 0 122 -6.83301 168 -20.5
s83.5 -35.667 112.5 -66s50 -69.666 63 -117.999s19.5 -106.833 19.5 -175.5c0 -69.333 -6.66699 -128.166 -20 -176.499s-34.833 -87.833 -64.5 -118.5s-68.167 -52.834 -115.5 -66.501s-105 -20.5 -173 -20.5zM288.998 119.999c28 0 51.4971 3.83301 70.4971 11.5
s34.333 21 46 40s19.834 44.5 24.501 76.5s7 72.667 7 122c0 48 -2.5 88 -7.5 120s-13.833 57.5 -26.5 76.5s-29.5 32.333 -50.5 40s-47.5 11.5 -79.5 11.5c-13.333 0 -24.166 -0.333008 -32.499 -1s-16.166 -2 -23.499 -4v-488c17.333 -2 31.333 -3.33301 42 -4
s20.667 -1 30 -1z" />
    <glyph glyph-name="uni01F2" unicode="&#x1f2;" horiz-adv-x="1072" 
d="M663 111l195 297v7h-189v125h367v-111l-194 -297v-7h204v-125h-383v111zM233 -13c-23.333 0 -48.835 0.832031 -76.502 2.49902s-61.167 4.5 -100.5 8.5v740c42.667 4 78.334 6.83301 107.001 8.5s55.334 2.5 80.001 2.5c66 0 122 -6.83301 168 -20.5
s83.5 -35.667 112.5 -66s50 -69.666 63 -117.999s19.5 -106.833 19.5 -175.5c0 -69.333 -6.66699 -128.166 -20 -176.499s-34.833 -87.833 -64.5 -118.5s-68.167 -52.834 -115.5 -66.501s-105 -20.5 -173 -20.5zM288.998 119.999c28 0 51.4971 3.83301 70.4971 11.5
s34.333 21 46 40s19.834 44.5 24.501 76.5s7 72.667 7 122c0 48 -2.5 88 -7.5 120s-13.833 57.5 -26.5 76.5s-29.5 32.333 -50.5 40s-47.5 11.5 -79.5 11.5c-13.333 0 -24.166 -0.333008 -32.499 -1s-16.166 -2 -23.499 -4v-488c17.333 -2 31.333 -3.33301 42 -4
s20.667 -1 30 -1z" />
    <glyph glyph-name="uni01F3" unicode="&#x1f3;" horiz-adv-x="977" 
d="M568 111l195 297v7h-189v125h367v-111l-194 -297v-7h204v-125h-383v111zM201 -9c-115.333 0 -173 87.333 -173 262c0 197.333 85.333 296 256 296c6.66699 0 13.5 -0.333008 20.5 -1s16.833 -1.66699 29.5 -3v263h159v-808h-146l-10 54h-4c-32 -42 -76 -63 -132 -63z
M260 104c12.667 0 23.665 2.83301 32.998 8.5s17 15.167 23 28.5s10.5 31.5 13.5 54.5s4.5 51.833 4.5 86.5v150c-16.667 7.33301 -35 11 -55 11c-16.667 0 -30.5 -2.66699 -41.5 -8s-20 -14.5 -27 -27.5s-12 -30.5 -15 -52.5s-4.5 -49.667 -4.5 -83
c0 -32.667 1.16699 -59.667 3.5 -81s6.33301 -38.5 12 -51.5s12.834 -22.167 21.501 -27.5s19.334 -8 32.001 -8z" />
    <glyph glyph-name="Gacute" unicode="&#x1f4;" horiz-adv-x="586" 
d="M267 798l66 175h164l-115 -184zM334 -9c-103.333 0 -179.83 31.168 -229.497 93.501s-74.5 157.5 -74.5 285.5c0 252.667 114.333 379 343 379c49.333 0 103.666 -7 162.999 -21v-131c-32 6 -59.667 10.5 -83 13.5s-44.666 4.5 -63.999 4.5
c-36 0 -66.167 -4.16699 -90.5 -12.5s-44 -22 -59 -41s-25.667 -44.333 -32 -76s-9.5 -70.5 -9.5 -116.5c0 -46.667 2.66699 -85.667 8 -117s14.166 -56.333 26.499 -75s28.666 -31.834 48.999 -39.501s45.5 -11.5 75.5 -11.5h21c6.66699 0 13.667 0.333008 21 1v249h147
v-368c-47.333 -6.66699 -87.333 -11.167 -120 -13.5s-63.334 -3.5 -92.001 -3.5z" />
    <glyph glyph-name="gacute" unicode="&#x1f5;" horiz-adv-x="540" 
d="M226 619l66 187h165l-116 -196zM228 -220c-50.667 0 -105 7.66699 -163 23l11 117c55.333 -12.667 101.333 -19 138 -19c45.333 0 77.333 11 96 33s28 59 28 111v28h-4c-32 -39.333 -74.667 -59 -128 -59c-118 0 -177 79.667 -177 239c0 97.333 21.333 171 64 221
s106.334 75 191.001 75c31.333 0 63.666 -2.5 96.999 -7.5s71 -13.167 113 -24.5v-442c0 -196.667 -88.667 -295 -266 -295zM261 120c12.667 0 23.501 2.66406 32.501 7.99707s16.5 14.333 22.5 27s10.5 29.334 13.5 50.001s4.5 46.334 4.5 77.001v150
c-16 7.33301 -34 11 -54 11c-16.667 0 -30.667 -2.66699 -42 -8s-20.333 -14.5 -27 -27.5s-11.5 -30.5 -14.5 -52.5s-4.5 -49.667 -4.5 -83c0 -29.333 1.16699 -53.666 3.5 -72.999s6.16602 -34.833 11.499 -46.5s12.333 -20 21 -25s19.667 -7.5 33 -7.5z" />
    <glyph glyph-name="Aringacute" unicode="&#x1fa;" horiz-adv-x="619" 
d="M-2 7l177.999 662c-16.667 24 -25 51.667 -25 83c0 36.667 10.333 67.667 31 93s49.334 41.333 86.001 48l46 114h164l-83 -132c22 -12 39.167 -28.5 51.5 -49.5s18.5 -45.5 18.5 -73.5c0 -31.333 -8 -58 -24 -80l180 -665v-7h-155l-45 174h-225l-44 -174h-154v7z
M306.999 686c20.667 0 37.168 6.16699 49.501 18.5s18.5 28.166 18.5 47.499s-6.16699 35.166 -18.5 47.499s-28.833 18.5 -49.5 18.5c-20 0 -36 -6.16699 -48 -18.5s-18 -28.166 -18 -47.499s6.16699 -35.166 18.5 -47.499s28.166 -18.5 47.499 -18.5zM389 311l-48 197
l-21 94h-22l-20 -94l-49 -197h160z" />
    <glyph glyph-name="aringacute" unicode="&#x1fb;" horiz-adv-x="507" 
d="M167 -5c-22 0 -42.1699 3.83398 -60.5029 11.501s-34 18.5 -47 32.5s-23.167 30.833 -30.5 50.5s-11 41.5 -11 65.5c0 104.667 64.667 161 194 169l91 6v4c0 20 -1.16699 36.167 -3.5 48.5s-6.66602 22 -12.999 29s-15.166 11.667 -26.499 14s-26 3.5 -44 3.5
c-7.33301 0 -17.333 -0.333008 -30 -1s-26.167 -1.66699 -40.5 -3s-28.166 -2.83301 -41.499 -4.5s-24.333 -3.5 -33 -5.5l-10 115c30 5.33301 60.5 9.66602 91.5 12.999s60.833 5 89.5 5c77.333 0 133.333 -13.5 168 -40.5s52 -70.833 52 -131.5v-376h-132l-12 65h-8
c-16.667 -20.667 -37.5 -37.5 -62.5 -50.5s-51.833 -19.5 -80.5 -19.5zM259.997 594.001c-36 0 -64.999 10.498 -86.999 31.498s-33 47.833 -33 80.5c0 26.667 7.16699 49.334 21.5 68.001s34.166 31.667 59.499 39l59 167h165l-109 -184c14 -10 25 -22.667 33 -38
s12 -32.666 12 -51.999c0 -32.667 -11.167 -59.5 -33.5 -80.5s-51.5 -31.5 -87.5 -31.5zM226.998 110.999c11.333 0 24 3.5 38 10.5s26.667 14.167 38 21.5v92l-56 -6c-25.333 -2.66699 -43.333 -8.5 -54 -17.5s-16 -22.833 -16 -41.5s4.33301 -33.167 13 -43.5
s21 -15.5 37 -15.5zM259.998 651.999c15.333 0 27.666 5.16797 36.999 15.501s14 23.166 14 38.499c0 16 -4.66699 29 -14 39s-21.666 15 -36.999 15s-27.5 -5 -36.5 -15s-13.5 -23 -13.5 -39s4.5 -29 13.5 -39s21.167 -15 36.5 -15z" />
    <glyph glyph-name="AEacute" unicode="&#x1fc;" horiz-adv-x="826" 
d="M416 798l66 175h164l-115 -184zM-3 6l218 734h569v-137h-248l10 -163h226v-138h-217l11 -165h227v-137h-385l-7 174h-186l-50 -174h-168v6zM254 311h141l-12 303h-41z" />
    <glyph glyph-name="aeacute" unicode="&#x1fd;" horiz-adv-x="774" 
d="M341 619l66 187h165l-116 -196zM547 -9c-42 0 -76.998 6.99902 -104.998 20.999s-51.667 36 -71 66h-9c-70 -55.333 -135 -83 -195 -83c-22 0 -42.167 3.83301 -60.5 11.5s-34 18.5 -47 32.5s-23.167 30.833 -30.5 50.5s-11 41.5 -11 65.5c0 104 64.667 160.333 194 169
l91 6v27c-1.33301 28 -8 47 -20 57s-34.333 15 -67 15c-8.66699 0 -19.667 -0.333008 -33 -1s-27 -1.66699 -41 -3s-27.5 -2.83301 -40.5 -4.5s-23.167 -3.5 -30.5 -5.5l-10 115c70.667 12 131 18 181 18c68 0 113.667 -20.667 137 -62h9c36.667 42 89.334 63 158.001 63
c69.333 0 120.166 -20.667 152.499 -62s48.5 -106 48.5 -194c0 -19.333 -0.333008 -34.166 -1 -44.499s-2 -21.166 -4 -32.499h-278c2 -38.667 9.66699 -65.834 23 -81.501s36.666 -23.5 69.999 -23.5c18 0 41.333 2.33301 70 7s61 11.667 97 21l5 -117
c-24.667 -9.33301 -53.834 -16.833 -87.501 -22.5s-65.167 -8.5 -94.5 -8.5zM227.002 110.999c11.333 0 23.499 3.33203 36.499 9.99902s27.167 15.334 42.5 26.001c-0.666992 2 -1.16699 7.16699 -1.5 15.5s-0.666016 17.333 -0.999023 27s-0.5 19 -0.5 28v17.5l-56 -6
c-25.333 -2.66699 -43.333 -8.5 -54 -17.5s-16 -22.833 -16 -41.5s4.33301 -33.167 13 -43.5s21 -15.5 37 -15.5zM606.001 313.998c-1.33301 42.667 -6.83203 72.667 -16.499 90s-25.834 26 -48.501 26c-24.667 0 -43.167 -9 -55.5 -27s-19.5 -47.667 -21.5 -89h142z" />
    <glyph glyph-name="Oslashacute" unicode="&#x1fe;" horiz-adv-x="672" 
d="M87 113c-36 62 -54 147.332 -54 255.999c0 128.667 24.833 224.334 74.5 287.001s125.5 94 227.5 94c76 0 137.667 -17 185 -51l30 41h120l-84 -115c36 -62 54 -147.333 54 -256c0 -129.333 -24.833 -224.833 -74.5 -286.5s-126.5 -92.5 -230.5 -92.5
c-74 0 -134.333 16.333 -181 49l-29 -39h-121zM201 368.999c0 -18.667 0.333984 -35.835 1.00098 -51.502s1.66699 -30.5 3 -44.5l225 304c-21.333 25.333 -53 38 -95 38c-24.667 0 -45.5 -4.33301 -62.5 -13s-30.833 -22.667 -41.5 -42s-18.334 -44.666 -23.001 -75.999
s-7 -69.666 -7 -114.999zM335.001 124.998c25.333 0 46.667 4.16797 64 12.501s31.5 22.166 42.5 41.499s18.833 44.5 23.5 75.5s7 69.167 7 114.5c0 18 -0.5 35 -1.5 51s-2.16699 31 -3.5 45l-223 -304c20 -24 50.333 -36 91 -36zM272.002 797.999l66 175h164l-115 -184z
" />
    <glyph glyph-name="oslashacute" unicode="&#x1ff;" horiz-adv-x="539" 
d="M72 88c-27.333 46.667 -40.999 107.332 -40.999 181.999c0 92.667 20.167 162.5 60.5 209.5s99.833 70.5 178.5 70.5c60 0 108.667 -14 146 -42l26 32h96l-71 -87c13.333 -23.333 23.666 -50.166 30.999 -80.499s11 -64.5 11 -102.5
c0 -92.667 -20.167 -162.5 -60.5 -209.5s-99.833 -70.5 -178.5 -70.5c-60.667 0 -110 14 -148 42l-26 -32h-96zM270.001 111.998c15.333 0 28.167 2.16699 38.5 6.5s18.5 12.5 24.5 24.5s10.167 28.167 12.5 48.5s3.5 46.5 3.5 78.5v20c0 6 -0.333008 12 -1 18l-139 -170
c6 -10 13.833 -16.833 23.5 -20.5s22.167 -5.5 37.5 -5.5zM191.002 233.998l138 168c-6 9.33301 -13.833 16 -23.5 20s-21.5 6 -35.5 6c-16 0 -29.167 -2.16699 -39.5 -6.5s-18.333 -12.5 -24 -24.5s-9.66699 -28.167 -12 -48.5s-3.5 -46.5 -3.5 -78.5v-36zM210.002 618.998
l66 187h165l-116 -196z" />
    <glyph glyph-name="Adblgrave" unicode="&#x200;" horiz-adv-x="620" 
d="M-1 7l187 733h248l187 -733v-7h-154l-46 177h-223l-45 -177h-154v7zM390 308l-49 200l-26 109h-11l-25 -109l-50 -200h161zM186 789l-116 184h134l67 -173zM371 789l-117 184h134l67 -173z" />
    <glyph glyph-name="adblgrave" unicode="&#x201;" horiz-adv-x="507" 
d="M167 -5c-22 0 -42.1699 3.83398 -60.5029 11.501s-34 18.5 -47 32.5s-23.167 30.833 -30.5 50.5s-11 41.5 -11 65.5c0 104.667 64.667 161 194 169l91 6v4c0 20 -1.16699 36.167 -3.5 48.5s-6.66602 22 -12.999 29s-15.166 11.667 -26.499 14s-26 3.5 -44 3.5
c-7.33301 0 -17.333 -0.333008 -30 -1s-26.167 -1.66699 -40.5 -3s-28.166 -2.83301 -41.499 -4.5s-24.333 -3.5 -33 -5.5l-10 115c30 5.33301 60.5 9.66602 91.5 12.999s60.833 5 89.5 5c77.333 0 133.333 -13.5 168 -40.5s52 -70.833 52 -131.5v-376h-132l-12 65h-8
c-16.667 -20.667 -37.5 -37.5 -62.5 -50.5s-51.833 -19.5 -80.5 -19.5zM226.997 111.001c11.333 0 24 3.5 38 10.5s26.667 14.167 38 21.5v92l-56 -6c-25.333 -2.66699 -43.333 -8.5 -54 -17.5s-16 -22.833 -16 -41.5s4.33301 -33.167 13 -43.5s21 -15.5 37 -15.5z
M132.997 610.001l-117 196h135l66 -186zM319.997 610.001l-117 196h135l66 -186z" />
    <glyph glyph-name="Ainvertedbreve" unicode="&#x202;" horiz-adv-x="620" 
d="M-1 7l187 733h248l187 -733v-7h-154l-46 177h-223l-45 -177h-154v7zM390 308l-49 200l-26 109h-11l-25 -109l-50 -200h161zM381 805c0 36.667 -5.16797 62.5 -15.501 77.5s-28.166 22.5 -53.499 22.5c-26 0 -44 -7.5 -54 -22.5s-15 -40.833 -15 -77.5h-109
c0 54.667 15 97.5 45 128.5s74.333 46.5 133 46.5c58 0 102.333 -15.5 133 -46.5s46 -73.833 46 -128.5h-110z" />
    <glyph glyph-name="ainvertedbreve" unicode="&#x203;" horiz-adv-x="507" 
d="M167 -5c-22 0 -42.1699 3.83398 -60.5029 11.501s-34 18.5 -47 32.5s-23.167 30.833 -30.5 50.5s-11 41.5 -11 65.5c0 104.667 64.667 161 194 169l91 6v4c0 20 -1.16699 36.167 -3.5 48.5s-6.66602 22 -12.999 29s-15.166 11.667 -26.499 14s-26 3.5 -44 3.5
c-7.33301 0 -17.333 -0.333008 -30 -1s-26.167 -1.66699 -40.5 -3s-28.166 -2.83301 -41.499 -4.5s-24.333 -3.5 -33 -5.5l-10 115c30 5.33301 60.5 9.66602 91.5 12.999s60.833 5 89.5 5c77.333 0 133.333 -13.5 168 -40.5s52 -70.833 52 -131.5v-376h-132l-12 65h-8
c-16.667 -20.667 -37.5 -37.5 -62.5 -50.5s-51.833 -19.5 -80.5 -19.5zM226.997 111.001c11.333 0 24 3.5 38 10.5s26.667 14.167 38 21.5v92l-56 -6c-25.333 -2.66699 -43.333 -8.5 -54 -17.5s-16 -22.833 -16 -41.5s4.33301 -33.167 13 -43.5s21 -15.5 37 -15.5z
M84.9971 621.001c3.33301 52 19.832 91.498 49.499 118.498s72.5 40.5 128.5 40.5s98.833 -13.5 128.5 -40.5s46.167 -66.5 49.5 -118.5h-109c-1.33301 26.667 -8 45.834 -20 57.501s-28.333 17.5 -49 17.5s-37.167 -5.66699 -49.5 -17s-19.166 -30.666 -20.499 -57.999
h-108z" />
    <glyph glyph-name="Edblgrave" unicode="&#x204;" horiz-adv-x="543" 
d="M56 740h449v-137h-285v-163h254v-138h-254v-165h294v-137h-458v740zM160 789l-116 184h134l67 -173zM345 789l-117 184h134l67 -173z" />
    <glyph glyph-name="edblgrave" unicode="&#x205;" horiz-adv-x="497" 
d="M129 610l-117 196h135l66 -186zM316 610l-117 196h135l66 -186zM270 -9c-80.667 0 -141.33 22.998 -181.997 68.998s-61 114 -61 204c0 94.667 20.167 165.834 60.5 213.501s100.833 71.5 181.5 71.5c69.333 0 120.166 -20.667 152.499 -62s48.5 -106 48.5 -194
c0 -19.333 -0.333008 -34.166 -1 -44.499s-2 -21.166 -4 -32.499h-277c1.33301 -20.667 4 -37.834 8 -51.501s9.5 -24.5 16.5 -32.5s16 -13.5 27 -16.5s24.167 -4.5 39.5 -4.5c19.333 0 43.666 2.5 72.999 7.5s61 11.833 95 20.5l5 -117
c-24.667 -9.33301 -53.834 -16.833 -87.501 -22.5s-65.167 -8.5 -94.5 -8.5zM265.004 429.998c-24.667 0 -42.833 -8.66699 -54.5 -26s-19.167 -47 -22.5 -89h141c-1.33301 42 -6.83301 71.667 -16.5 89s-25.5 26 -47.5 26z" />
    <glyph glyph-name="Einvertedbreve" unicode="&#x206;" horiz-adv-x="543" 
d="M56 740h449v-137h-285v-163h254v-138h-254v-165h294v-137h-458v740zM355 805c0 36.667 -5.16797 62.5 -15.501 77.5s-28.166 22.5 -53.499 22.5c-26 0 -44 -7.5 -54 -22.5s-15 -40.833 -15 -77.5h-109c0 54.667 15 97.5 45 128.5s74.333 46.5 133 46.5
c58 0 102.333 -15.5 133 -46.5s46 -73.833 46 -128.5h-110z" />
    <glyph glyph-name="einvertedbreve" unicode="&#x207;" horiz-adv-x="497" 
d="M80 621c3.33301 52 19.832 91.498 49.499 118.498s72.5 40.5 128.5 40.5s98.833 -13.5 128.5 -40.5s46.167 -66.5 49.5 -118.5h-109c-1.33301 26.667 -8 45.834 -20 57.501s-28.333 17.5 -49 17.5s-37.167 -5.66699 -49.5 -17s-19.166 -30.666 -20.499 -57.999h-108z
M269.999 -9.00195c-80.667 0 -141.33 22.998 -181.997 68.998s-61 114 -61 204c0 94.667 20.167 165.834 60.5 213.501s100.833 71.5 181.5 71.5c69.333 0 120.166 -20.667 152.499 -62s48.5 -106 48.5 -194c0 -19.333 -0.333008 -34.166 -1 -44.499s-2 -21.166 -4 -32.499
h-277c1.33301 -20.667 4 -37.834 8 -51.501s9.5 -24.5 16.5 -32.5s16 -13.5 27 -16.5s24.167 -4.5 39.5 -4.5c19.333 0 43.666 2.5 72.999 7.5s61 11.833 95 20.5l5 -117c-24.667 -9.33301 -53.834 -16.833 -87.501 -22.5s-65.167 -8.5 -94.5 -8.5zM265.003 429.996
c-24.667 0 -42.833 -8.66699 -54.5 -26s-19.167 -47 -22.5 -89h141c-1.33301 42 -6.83301 71.667 -16.5 89s-25.5 26 -47.5 26z" />
    <glyph glyph-name="Idblgrave" unicode="&#x208;" horiz-adv-x="276" 
d="M56 740h164v-740h-164v740zM14 789l-116 184h134l67 -173zM199 789l-117 184h134l67 -173z" />
    <glyph glyph-name="idblgrave" unicode="&#x209;" horiz-adv-x="257" 
d="M10 610l-117 196h135l66 -186zM197 610l-117 196h135l66 -186zM49 540h159v-540h-159v540z" />
    <glyph glyph-name="Iinvertedbreve" unicode="&#x20a;" horiz-adv-x="276" 
d="M56 740h164v-740h-164v740zM209 805c0 36.667 -5.16797 62.5 -15.501 77.5s-28.166 22.5 -53.499 22.5c-26 0 -44 -7.5 -54 -22.5s-15 -40.833 -15 -77.5h-109c0 54.667 15 97.5 45 128.5s74.333 46.5 133 46.5c58 0 102.333 -15.5 133 -46.5s46 -73.833 46 -128.5h-110z
" />
    <glyph glyph-name="iinvertedbreve" unicode="&#x20b;" horiz-adv-x="257" 
d="M-38 621c3.33301 52 19.832 91.498 49.499 118.498s72.5 40.5 128.5 40.5c55.333 0 98 -13.5 128 -40.5s46.667 -66.5 50 -118.5h-109c-1.33301 26.667 -8 45.834 -20 57.501s-28.333 17.5 -49 17.5s-37.167 -5.66699 -49.5 -17s-19.166 -30.666 -20.499 -57.999h-108z
M48.999 539.998h159v-540h-159v540z" />
    <glyph glyph-name="Odblgrave" unicode="&#x20c;" horiz-adv-x="668" 
d="M333 -10c-102 0 -178 31.167 -228 93.5s-75 157.5 -75 285.5c0 128.667 25 224.334 75 287.001s126 94 228 94c103.333 0 180 -31.333 230 -94s75 -158.334 75 -287.001c0 -129.333 -24.833 -224.833 -74.5 -286.5s-126.5 -92.5 -230.5 -92.5zM333 125
c25.333 0 46.6689 4.16797 64.002 12.501s31.5 22.166 42.5 41.499s18.833 44.5 23.5 75.5s7 69.167 7 114.5c0 46 -2.33301 84.667 -7 116s-12.334 56.666 -23.001 75.999s-24.834 33.166 -42.501 41.499s-39.167 12.5 -64.5 12.5c-24.667 0 -45.667 -4.33301 -63 -13
s-31.333 -22.667 -42 -42s-18.334 -44.666 -23.001 -75.999s-7 -69.666 -7 -114.999c0 -44.667 2.33301 -82.5 7 -113.5s12.334 -56.167 23.001 -75.5s24.667 -33.333 42 -42s38.333 -13 63 -13zM209.003 789.001l-116 184h134l67 -173zM394.003 789.001l-117 184h134
l67 -173z" />
    <glyph glyph-name="odblgrave" unicode="&#x20d;" horiz-adv-x="533" 
d="M144 610l-117 196h135l66 -186zM331 610l-117 196h135l66 -186zM266 -10c-78.667 0 -138.167 23.667 -178.5 71s-60.5 117 -60.5 209c0 92.667 20.167 162.5 60.5 209.5s99.833 70.5 178.5 70.5s138.167 -23.5 178.5 -70.5s60.5 -116.833 60.5 -209.5
s-20.167 -162.5 -60.5 -209.5s-99.833 -70.5 -178.5 -70.5zM266 112c16 0 29 2.16699 39 6.5s18 12.5 24 24.5s10.167 28.167 12.5 48.5s3.5 46.5 3.5 78.5s-1.16699 58.167 -3.5 78.5s-6.5 36.5 -12.5 48.5s-14 20.167 -24 24.5s-23 6.5 -39 6.5s-29 -2.16699 -39 -6.5
s-18 -12.5 -24 -24.5s-10.167 -28.167 -12.5 -48.5s-3.5 -46.5 -3.5 -78.5s1.16699 -58.167 3.5 -78.5s6.5 -36.5 12.5 -48.5s14 -20.167 24 -24.5s23 -6.5 39 -6.5z" />
    <glyph glyph-name="Oinvertedbreve" unicode="&#x20e;" horiz-adv-x="668" 
d="M333 -10c-102 0 -178 31.167 -228 93.5s-75 157.5 -75 285.5c0 128.667 25 224.334 75 287.001s126 94 228 94c103.333 0 180 -31.333 230 -94s75 -158.334 75 -287.001c0 -129.333 -24.833 -224.833 -74.5 -286.5s-126.5 -92.5 -230.5 -92.5zM333 125
c25.333 0 46.6689 4.16797 64.002 12.501s31.5 22.166 42.5 41.499s18.833 44.5 23.5 75.5s7 69.167 7 114.5c0 46 -2.33301 84.667 -7 116s-12.334 56.666 -23.001 75.999s-24.834 33.166 -42.501 41.499s-39.167 12.5 -64.5 12.5c-24.667 0 -45.667 -4.33301 -63 -13
s-31.333 -22.667 -42 -42s-18.334 -44.666 -23.001 -75.999s-7 -69.666 -7 -114.999c0 -44.667 2.33301 -82.5 7 -113.5s12.334 -56.167 23.001 -75.5s24.667 -33.333 42 -42s38.333 -13 63 -13zM404.003 805.001c0 36.667 -5.16797 62.5 -15.501 77.5
s-28.166 22.5 -53.499 22.5c-26 0 -44 -7.5 -54 -22.5s-15 -40.833 -15 -77.5h-109c0 54.667 15 97.5 45 128.5s74.333 46.5 133 46.5c58 0 102.333 -15.5 133 -46.5s46 -73.833 46 -128.5h-110z" />
    <glyph glyph-name="oinvertedbreve" unicode="&#x20f;" horiz-adv-x="533" 
d="M96 621c3.33301 52 19.832 91.498 49.499 118.498s72.5 40.5 128.5 40.5s98.833 -13.5 128.5 -40.5s46.167 -66.5 49.5 -118.5h-109c-1.33301 26.667 -8 45.834 -20 57.501s-28.333 17.5 -49 17.5s-37.167 -5.66699 -49.5 -17s-19.166 -30.666 -20.499 -57.999h-108z
M265.999 -10.002c-78.667 0 -138.167 23.667 -178.5 71s-60.5 117 -60.5 209c0 92.667 20.167 162.5 60.5 209.5s99.833 70.5 178.5 70.5s138.167 -23.5 178.5 -70.5s60.5 -116.833 60.5 -209.5s-20.167 -162.5 -60.5 -209.5s-99.833 -70.5 -178.5 -70.5zM265.999 111.998
c16 0 29 2.16699 39 6.5s18 12.5 24 24.5s10.167 28.167 12.5 48.5s3.5 46.5 3.5 78.5s-1.16699 58.167 -3.5 78.5s-6.5 36.5 -12.5 48.5s-14 20.167 -24 24.5s-23 6.5 -39 6.5s-29 -2.16699 -39 -6.5s-18 -12.5 -24 -24.5s-10.167 -28.167 -12.5 -48.5
s-3.5 -46.5 -3.5 -78.5s1.16699 -58.167 3.5 -78.5s6.5 -36.5 12.5 -48.5s14 -20.167 24 -24.5s23 -6.5 39 -6.5z" />
    </font>
</defs>
</svg>
