<?xml version="1.0" standalone="no"?>
<!DOCTYPE svg PUBLIC "-//W3C//DTD SVG 1.1//EN" "http://www.w3.org/Graphics/SVG/1.1/DTD/svg11.dtd" >
<svg>
<metadata>
Created by FontForge 20090914 at Sat Aug  6 10:41:25 2016
 By www-data
Copyright (c) 2012, Impallari Type (www.impallari.com), with Reserved Font Name Encode Sans.
</metadata>
<defs>
<font id="EncodeSansCompressed-Thin" horiz-adv-x="480" >
  <font-face 
    font-family="Encode Sans Compressed"
    font-weight="100"
    font-stretch="normal"
    units-per-em="1000"
    panose-1="2 0 0 0 0 0 0 0 0 0"
    ascent="800"
    descent="-200"
    x-height="540"
    cap-height="740"
    bbox="-74 -220.005 1252 1030"
    underline-thickness="55"
    underline-position="-57"
    unicode-range="U+000D-U+FB04"
  />
<missing-glyph horiz-adv-x="604" 
d="M96 1030h411v-1250h-411v1250zM469 -182v1175h-335v-1175h335z" />
    <glyph glyph-name="f_f" unicode="ff" horiz-adv-x="474" 
d="M92 509l-76 -0.000976562v31h76v45c0 40 2.33301 73.5 7 100.5s13 49 25 66s27.833 29.833 47.5 38.5s44.5 14.667 74.5 18v-31c-24 -3.33301 -43.833 -8.33301 -59.5 -15s-28 -17.167 -37 -31.5s-15.167 -33.166 -18.5 -56.499s-5 -53 -5 -89v-45h97v-31h-97v-509h-34
v509zM330 508.999l-76 -0.000976562v31h76v45c0 40 2.33301 73.5 7 100.5s13 49 25 66s27.833 29.833 47.5 38.5s44.5 14.667 74.5 18v-31c-24 -3.33301 -43.833 -8.33301 -59.5 -15s-28 -17.167 -37 -31.5s-15.167 -33.166 -18.5 -56.499s-5 -53 -5 -89v-45h97v-31h-97
v-509h-34v509z" />
    <glyph glyph-name="f_i" unicode="fi" horiz-adv-x="425" 
d="M338 684c-19.333 0 -29 9.66602 -29 28.999c0 20 9.66699 30 29 30c9.33301 0 16.666 -2.66699 21.999 -8s8 -12.666 8 -21.999s-2.66699 -16.5 -8 -21.5s-12.666 -7.5 -21.999 -7.5zM321 539.999h34v-540h-34v540zM92 508.999l-76 -0.000976562v31h76v45
c0 40 2.33301 73.5 7 100.5s13 49 25 66s27.833 29.833 47.5 38.5s44.5 14.667 74.5 18v-31c-24 -3.33301 -43.833 -8.33301 -59.5 -15s-28 -17.167 -37 -31.5s-15.167 -33.166 -18.5 -56.499s-5 -53 -5 -89v-45h97v-31h-97v-509h-34v509z" />
    <glyph glyph-name="f_l" unicode="fl" horiz-adv-x="427" 
d="M321 808h34v-808h-34v808zM92 509l-76 -0.000976562v31h76v45c0 40 2.33301 73.5 7 100.5s13 49 25 66s27.833 29.833 47.5 38.5s44.5 14.667 74.5 18v-31c-24 -3.33301 -43.833 -8.33301 -59.5 -15s-28 -17.167 -37 -31.5s-15.167 -33.166 -18.5 -56.499s-5 -53 -5 -89
v-45h97v-31h-97v-509h-34v509z" />
    <glyph glyph-name="f_f_i" unicode="ffi" horiz-adv-x="662" 
d="M92 509l-76 -0.000976562v31h76v45c0 40 2.33301 73.5 7 100.5s13 49 25 66s27.833 29.833 47.5 38.5s44.5 14.667 74.5 18v-31c-24 -3.33301 -43.833 -8.33301 -59.5 -15s-28 -17.167 -37 -31.5s-15.167 -33.166 -18.5 -56.499s-5 -53 -5 -89v-45h97v-31h-97v-509h-34
v509zM575 683.999c-19.333 0 -29 9.66602 -29 28.999c0 20 9.66699 30 29 30c9.33301 0 16.666 -2.66699 21.999 -8s8 -12.666 8 -21.999s-2.66699 -16.5 -8 -21.5s-12.666 -7.5 -21.999 -7.5zM558 539.998h34v-540h-34v540zM329 508.998l-76 -0.000976562v31h76v45
c0 40 2.33301 73.5 7 100.5s13 49 25 66s27.833 29.833 47.5 38.5s44.5 14.667 74.5 18v-31c-24 -3.33301 -43.833 -8.33301 -59.5 -15s-28 -17.167 -37 -31.5s-15.167 -33.166 -18.5 -56.499s-5 -53 -5 -89v-45h97v-31h-97v-509h-34v509z" />
    <glyph glyph-name="f_f_l" unicode="ffl" horiz-adv-x="664" 
d="M92 509l-76 -0.000976562v31h76v45c0 40 2.33301 73.5 7 100.5s13 49 25 66s27.833 29.833 47.5 38.5s44.5 14.667 74.5 18v-31c-24 -3.33301 -43.833 -8.33301 -59.5 -15s-28 -17.167 -37 -31.5s-15.167 -33.166 -18.5 -56.499s-5 -53 -5 -89v-45h97v-31h-97v-509h-34
v509zM558 807.999h34v-808h-34v808zM329 508.999l-76 -0.000976562v31h76v45c0 40 2.33301 73.5 7 100.5s13 49 25 66s27.833 29.833 47.5 38.5s44.5 14.667 74.5 18v-31c-24 -3.33301 -43.833 -8.33301 -59.5 -15s-28 -17.167 -37 -31.5s-15.167 -33.166 -18.5 -56.499
s-5 -53 -5 -89v-45h97v-31h-97v-509h-34v509z" />
    <glyph glyph-name="f_b" unicode="fb" horiz-adv-x="711" 
d="M445 -10c-37.333 0 -78.667 6.66895 -124 20.002v798h34v-322c16 19.333 36.167 34.666 60.5 45.999s50.5 17 78.5 17c57.333 0 100.5 -22.667 129.5 -68s43.5 -112.666 43.5 -201.999c0 -36.667 -3.66699 -72.167 -11 -106.5s-19.5 -64.833 -36.5 -91.5
s-39.667 -48.334 -68 -65.001s-63.833 -25.334 -106.5 -26.001zM448.999 24.002c59.333 0 104.5 21.668 135.5 65.001s46.5 106.666 46.5 189.999c0 77.333 -11.667 136 -35 176s-58 60 -104 60c-16 0 -32.167 -2.5 -48.5 -7.5s-31 -11.667 -44 -20s-23.667 -17.5 -32 -27.5
s-12.5 -20 -12.5 -30v-395c19.333 -3.33301 36.833 -6 52.5 -8s29.5 -3 41.5 -3zM90.999 509.003l-76 -0.000976562v31h76v45c0 40 2.33301 73.5 7 100.5s13 49 25 66s27.833 29.833 47.5 38.5s44.5 14.667 74.5 18v-31c-24 -3.33301 -43.833 -8.33301 -59.5 -15
s-28 -17.167 -37 -31.5s-15.167 -33.166 -18.5 -56.499s-5 -53 -5 -89v-45h97v-31h-97v-509h-34v509z" />
    <glyph glyph-name="f_f_b" unicode="ffb" horiz-adv-x="948" 
d="M682 -10c-37.333 0 -78.667 6.66895 -124 20.002v798h34v-322c16 19.333 36.167 34.666 60.5 45.999s50.5 17 78.5 17c57.333 0 100.5 -22.667 129.5 -68s43.5 -112.666 43.5 -201.999c0 -36.667 -3.66699 -72.167 -11 -106.5s-19.5 -64.833 -36.5 -91.5
s-39.667 -48.334 -68 -65.001s-63.833 -25.334 -106.5 -26.001zM685.999 24.002c59.333 0 104.5 21.668 135.5 65.001s46.5 106.666 46.5 189.999c0 77.333 -11.667 136 -35 176s-58 60 -104 60c-16 0 -32.167 -2.5 -48.5 -7.5s-31 -11.667 -44 -20s-23.667 -17.5 -32 -27.5
s-12.5 -20 -12.5 -30v-395c19.333 -3.33301 36.833 -6 52.5 -8s29.5 -3 41.5 -3zM90.999 509.003l-76 -0.000976562v31h76v45c0 40 2.33301 73.5 7 100.5s13 49 25 66s27.833 29.833 47.5 38.5s44.5 14.667 74.5 18v-31c-24 -3.33301 -43.833 -8.33301 -59.5 -15
s-28 -17.167 -37 -31.5s-15.167 -33.166 -18.5 -56.499s-5 -53 -5 -89v-45h97v-31h-97v-509h-34v509zM327.999 509.002l-76 -0.000976562v31h76v45c0 40 2.33301 73.5 7 100.5s13 49 25 66s27.833 29.833 47.5 38.5s44.5 14.667 74.5 18v-31
c-24 -3.33301 -43.833 -8.33301 -59.5 -15s-28 -17.167 -37 -31.5s-15.167 -33.166 -18.5 -56.499s-5 -53 -5 -89v-45h97v-31h-97v-509h-34v509z" />
    <glyph glyph-name="f_f_h" unicode="ffh" horiz-adv-x="943" 
d="M92 509l-76 -0.000976562v31h76v45c0 40 2.33301 73.5 7 100.5s13 49 25 66s27.833 29.833 47.5 38.5s44.5 14.667 74.5 18v-31c-24 -3.33301 -43.833 -8.33301 -59.5 -15s-28 -17.167 -37 -31.5s-15.167 -33.166 -18.5 -56.499s-5 -53 -5 -89v-45h97v-31h-97v-509h-34
v509zM558 807.999h34.001v-326h4c29.333 21.333 58.666 38 87.999 50s56.666 18 81.999 18c20.667 0 38.167 -2.33301 52.5 -7s25.833 -12.5 34.5 -23.5s14.834 -25.5 18.501 -43.5s5.5 -40.333 5.5 -67v-409h-34v409c0 38.667 -5.83301 66.167 -17.5 82.5
s-31.5 24.5 -59.5 24.5c-52 0 -110 -22.333 -174 -67v-449h-34v808zM329.001 508.999l-76 -0.000976562v31h76v45c0 40 2.33301 73.5 7 100.5s13 49 25 66s27.833 29.833 47.5 38.5s44.5 14.667 74.5 18v-31c-24 -3.33301 -43.833 -8.33301 -59.5 -15s-28 -17.167 -37 -31.5
s-15.167 -33.166 -18.5 -56.499s-5 -53 -5 -89v-45h97v-31h-97v-509h-34v509z" />
    <glyph glyph-name="f_f_j" unicode="ffj" horiz-adv-x="665" 
d="M92 509l-76 -0.000976562v31h76v45c0 40 2.33301 73.5 7 100.5s13 49 25 66s27.833 29.833 47.5 38.5s44.5 14.667 74.5 18v-31c-24 -3.33301 -43.833 -8.33301 -59.5 -15s-28 -17.167 -37 -31.5s-15.167 -33.166 -18.5 -56.499s-5 -53 -5 -89v-45h97v-31h-97v-509h-34
v509zM580 683.999c-19.333 0 -29 9.66602 -29 28.999c0 20 9.66699 30 29 30c9.33301 0 16.666 -2.66699 21.999 -8s8 -12.666 8 -21.999s-2.66699 -16.5 -8 -21.5s-12.666 -7.5 -21.999 -7.5zM483 -201.002c27.333 45.333 47.499 92.832 60.499 142.499
s19.5 105.834 19.5 168.501v430h34v-447c0 -56 -7.66699 -110.667 -23 -164s-37.666 -103 -66.999 -149zM328.999 508.997l-76 -0.000976562v31h76v45c0 40 2.33301 73.5 7 100.5s13 49 25 66s27.833 29.833 47.5 38.5s44.5 14.667 74.5 18v-31
c-24 -3.33301 -43.833 -8.33301 -59.5 -15s-28 -17.167 -37 -31.5s-15.167 -33.166 -18.5 -56.499s-5 -53 -5 -89v-45h97v-31h-97v-509h-34v509z" />
    <glyph glyph-name="f_f_k" unicode="ffk" horiz-adv-x="899" 
d="M92 509l-76 -0.000976562v31h76v45c0 40 2.33301 73.5 7 100.5s13 49 25 66s27.833 29.833 47.5 38.5s44.5 14.667 74.5 18v-31c-24 -3.33301 -43.833 -8.33301 -59.5 -15s-28 -17.167 -37 -31.5s-15.167 -33.166 -18.5 -56.499s-5 -53 -5 -89v-45h97v-31h-97v-509h-34
v509zM558 807.999h34v-515h81l167 247h39l-171 -253l-12 -10v-2l13 -11l186 -264h-39l-185 261h-79v-261h-34v808zM329 508.999l-76 -0.000976562v31h76v45c0 40 2.33301 73.5 7 100.5s13 49 25 66s27.833 29.833 47.5 38.5s44.5 14.667 74.5 18v-31
c-24 -3.33301 -43.833 -8.33301 -59.5 -15s-28 -17.167 -37 -31.5s-15.167 -33.166 -18.5 -56.499s-5 -53 -5 -89v-45h97v-31h-97v-509h-34v509z" />
    <glyph glyph-name="f_f_t" unicode="fft" horiz-adv-x="772" 
d="M91 509l-76 -0.000976562v31h76v45c0 40 2.33301 73.5 7 100.5s13 49 25 66s27.833 29.833 47.5 38.5s44.5 14.667 74.5 18v-31c-24 -3.33301 -43.833 -8.33301 -59.5 -15s-28 -17.167 -37 -31.5s-15.167 -33.166 -18.5 -56.499s-5 -53 -5 -89v-45h97v-31h-97v-509h-34
v509zM699 -4.00098c-81.333 0 -122 46.333 -122 139v371h-104v34h105l5 125l28 8v-133h152v-34h-152v-371c0 -34 7.83301 -60 23.5 -78s38.5 -27 68.5 -27c7.33301 0 16.5 0.666992 27.5 2s20.167 3 27.5 5v-34c-23.333 -4.66699 -43 -7 -59 -7zM328 508.999
l-76 -0.000976562v31h76v45c0 40 2.33301 73.5 7 100.5s13 49 25 66s27.833 29.833 47.5 38.5s44.5 14.667 74.5 18v-31c-24 -3.33301 -43.833 -8.33301 -59.5 -15s-28 -17.167 -37 -31.5s-15.167 -33.166 -18.5 -56.499s-5 -53 -5 -89v-45h97v-31h-97v-509h-34v509z" />
    <glyph glyph-name="f_h" unicode="fh" horiz-adv-x="706" 
d="M321 808h34.001v-326h4c29.333 21.333 58.666 38 87.999 50s56.666 18 81.999 18c20.667 0 38.167 -2.33301 52.5 -7s25.833 -12.5 34.5 -23.5s14.834 -25.5 18.501 -43.5s5.5 -40.333 5.5 -67v-409h-34v409c0 38.667 -5.83301 66.167 -17.5 82.5s-31.5 24.5 -59.5 24.5
c-52 0 -110 -22.333 -174 -67v-449h-34v808zM92.001 509l-76 -0.000976562v31h76v45c0 40 2.33301 73.5 7 100.5s13 49 25 66s27.833 29.833 47.5 38.5s44.5 14.667 74.5 18v-31c-24 -3.33301 -43.833 -8.33301 -59.5 -15s-28 -17.167 -37 -31.5
s-15.167 -33.166 -18.5 -56.499s-5 -53 -5 -89v-45h97v-31h-97v-509h-34v509z" />
    <glyph glyph-name="f_j" unicode="fj" horiz-adv-x="428" 
d="M343 684c-19.333 0 -29 9.66602 -29 28.999c0 20 9.66699 30 29 30c9.33301 0 16.666 -2.66699 21.999 -8s8 -12.666 8 -21.999s-2.66699 -16.5 -8 -21.5s-12.666 -7.5 -21.999 -7.5zM246 -201.001c27.333 45.333 47.499 92.832 60.499 142.499
s19.5 105.834 19.5 168.501v430h34v-447c0 -56 -7.66699 -110.667 -23 -164s-37.666 -103 -66.999 -149zM91.999 508.998l-76 -0.000976562v31h76v45c0 40 2.33301 73.5 7 100.5s13 49 25 66s27.833 29.833 47.5 38.5s44.5 14.667 74.5 18v-31
c-24 -3.33301 -43.833 -8.33301 -59.5 -15s-28 -17.167 -37 -31.5s-15.167 -33.166 -18.5 -56.499s-5 -53 -5 -89v-45h97v-31h-97v-509h-34v509z" />
    <glyph glyph-name="f_k" unicode="fk" horiz-adv-x="662" 
d="M321 808h34v-515h81l167 247h39l-171 -253l-12 -10v-2l13 -11l186 -264h-39l-185 261h-79v-261h-34v808zM92 509l-76 -0.000976562v31h76v45c0 40 2.33301 73.5 7 100.5s13 49 25 66s27.833 29.833 47.5 38.5s44.5 14.667 74.5 18v-31
c-24 -3.33301 -43.833 -8.33301 -59.5 -15s-28 -17.167 -37 -31.5s-15.167 -33.166 -18.5 -56.499s-5 -53 -5 -89v-45h97v-31h-97v-509h-34v509z" />
    <glyph glyph-name="f_t" unicode="ft" horiz-adv-x="535" 
d="M462 -4c-81.333 0 -122 46.333 -122 139v371h-104v34h105l5 125l28 8v-133h152v-34h-152v-371c0 -34 7.83301 -60 23.5 -78s38.5 -27 68.5 -27c7.33301 0 16.5 0.666992 27.5 2s20.167 3 27.5 5v-34c-23.333 -4.66699 -43 -7 -59 -7zM91 509l-76 -0.000976562v31h76v45
c0 40 2.33301 73.5 7 100.5s13 49 25 66s27.833 29.833 47.5 38.5s44.5 14.667 74.5 18v-31c-24 -3.33301 -43.833 -8.33301 -59.5 -15s-28 -17.167 -37 -31.5s-15.167 -33.166 -18.5 -56.499s-5 -53 -5 -89v-45h97v-31h-97v-509h-34v509z" />
    <glyph glyph-name=".notdef" horiz-adv-x="604" 
d="M96 1030h411v-1250h-411v1250zM469 -182v1175h-335v-1175h335z" />
    <glyph glyph-name="NULL" horiz-adv-x="0" 
 />
    <glyph glyph-name="NULL" horiz-adv-x="0" 
 />
    <glyph glyph-name="nonmarkingreturn" unicode="&#xd;" horiz-adv-x="283" 
 />
    <glyph glyph-name="space" unicode=" " horiz-adv-x="204" 
 />
    <glyph glyph-name="exclam" unicode="!" horiz-adv-x="191" 
d="M99 6c-19.333 0 -29 9.66602 -29 28.999c0 20 9.66699 30 29 30c9.33301 0 16.666 -2.66699 21.999 -8s8 -12.666 8 -21.999s-2.66699 -16.5 -8 -21.5s-12.666 -7.5 -21.999 -7.5zM83 160.999l-5 569v10h34v-10l-5 -569v-14h-24v14z" />
    <glyph glyph-name="quotedbl" unicode="&#x22;" horiz-adv-x="273" 
d="M97 808v-4l-17 -324h-17v328h34zM219 808v-4l-17 -324h-17v328h34z" />
    <glyph glyph-name="numbersign" unicode="#" horiz-adv-x="462" 
d="M270 246h-112l-20 -246h-35l20 246h-78v34h81l15 180h-96v34h99l20 246h34l-20 -246h113l20 246h34l-20 -246h92v-34h-95l-14 -180h108v-34h-111l-20 -246h-35zM161 280h112l15 180h-113z" />
    <glyph glyph-name="dollar" unicode="$" horiz-adv-x="453" 
d="M220 -14c-14 0 -29.499 0.834961 -46.499 2.50195s-34 4 -51 7s-33 6.5 -48 10.5s-27.833 8.33301 -38.5 13l8 32c8.66699 -4 20.167 -7.83301 34.5 -11.5s29.666 -7 45.999 -10s32.833 -5.33301 49.5 -7s32 -2.5 46 -2.5c52 0 92.333 13.667 121 41s43 66 43 116
c0 20 -3 38.5 -9 55.5s-15.667 32.833 -29 47.5s-30.333 28.5 -51 41.5s-45.667 25.833 -75 38.5c-31.333 13.333 -58 26.833 -80 40.5s-39.667 28 -53 43s-23 31.5 -29 49.5s-9 38 -9 60c0 56.667 16.167 102.667 48.5 138s75.5 55.666 129.5 60.999v138h31v-137
c21.333 -0.666992 43 -2.5 65 -5.5s46.333 -7.16699 73 -12.5l-8 -34c-30.667 6.66699 -57 11.334 -79 14.001s-41.667 4 -59 4c-25.333 0 -48.166 -4 -68.499 -12s-37.833 -19.167 -52.5 -33.5s-26 -31.833 -34 -52.5s-12 -43.334 -12 -68.001
c0 -18.667 2.5 -35.334 7.5 -50.001s13.5 -28.334 25.5 -41.001s27.667 -24.667 47 -36s43 -22.666 71 -33.999c34 -14 62.833 -28.333 86.5 -43s42.667 -30.5 57 -47.5s24.666 -35.5 30.999 -55.5s9.5 -43 9.5 -69c0 -52 -13.5 -94.333 -40.5 -127
s-64.833 -52.667 -113.5 -60v-140h-31v136h-13v0z" />
    <glyph glyph-name="percent" unicode="%" horiz-adv-x="744" 
d="M177 288c-93.333 0 -140 77.001 -140 231.001c0 76 11.833 133.5 35.5 172.5s58.5 58.5 104.5 58.5s80.667 -19.5 104 -58.5s35 -96.5 35 -172.5c0 -76.667 -11.667 -134.334 -35 -173.001s-58 -58 -104 -58zM177 322.001c70 0 105 65.667 105 197
c0 64.667 -9 113.667 -27 147s-44 50 -78 50c-34.667 0 -61.167 -16.667 -79.5 -50s-27.5 -82.333 -27.5 -147c0 -131.333 35.667 -197 107 -197zM569 -13.999c-93.333 0 -140 77.001 -140 231.001c0 76 11.833 133.5 35.5 172.5s58.5 58.5 104.5 58.5
s80.667 -19.5 104 -58.5s35 -96.5 35 -172.5c0 -76.667 -11.667 -134.334 -35 -173.001s-58 -58 -104 -58zM569 20.002c70 0 105 65.667 105 197c0 64.667 -9 113.667 -27 147s-44 50 -78 50c-34.667 0 -61.167 -16.667 -79.5 -50s-27.5 -82.333 -27.5 -147
c0 -131.333 35.667 -197 107 -197zM480 740.002h35l-260 -740h-35z" />
    <glyph glyph-name="ampersand" unicode="&#x26;" horiz-adv-x="570" 
d="M254 -12c-65.333 0 -116.336 19.165 -153.003 57.498s-55 91.833 -55 160.5c0 91.333 35.333 156.333 106 195c-13.333 22.667 -22.666 46.334 -27.999 71.001s-8 53 -8 85c0 64.667 14.333 113.5 43 146.5s71.334 49.5 128.001 49.5c20.667 0 42.167 -3.16699 64.5 -9.5
s47.5 -16.166 75.5 -29.499v-6l-11 -24h-5c-25.333 12.667 -47.666 21.667 -66.999 27s-38.333 8 -57 8c-91.333 0 -137 -54 -137 -162c0 -28.667 3.33301 -55.167 10 -79.5s17.167 -47.5 31.5 -69.5s33.333 -43.667 57 -65s52.5 -43.333 86.5 -66l114 -78
c9.33301 41.333 14 89 14 143v65h34v-65c0 -32 -1.5 -61.5 -4.5 -88.5s-7.16699 -52.167 -12.5 -75.5l68 -46v-6l-15 -21h-6l-57 38c-34.667 -103.333 -106.667 -155 -216 -155zM314.997 248.998c-34 22.667 -62.668 44 -86.001 64s-42.666 40 -57.999 60
c-60.667 -34 -91 -89.667 -91 -167c0 -57.333 15.5 -102.333 46.5 -135s73.5 -49 127.5 -49c94 0 156 47 186 141z" />
    <glyph glyph-name="quotesingle" unicode="'" horiz-adv-x="151" 
d="M97 808v-4l-17 -324h-17v328h34z" />
    <glyph glyph-name="parenleft" unicode="(" horiz-adv-x="248" 
d="M195 -160c-50 73.333 -88 153.831 -114 241.498s-39 178.5 -39 272.5s13 184.833 39 272.5s64 168.167 114 241.5h32v-4c-48.667 -72 -85.667 -151.167 -111 -237.5s-38 -177.166 -38 -272.499s12.667 -186.166 38 -272.499s62.333 -165.5 111 -237.5v-4h-32v0z" />
    <glyph glyph-name="parenright" unicode=")" horiz-adv-x="248" 
d="M21 -160v4.00195c48.667 72 85.667 151.167 111 237.5s38 177.166 38 272.499s-12.667 186.166 -38 272.499s-62.333 165.5 -111 237.5v4h32c50 -73.333 88 -153.833 114 -241.5s39 -178.5 39 -272.5s-13 -184.833 -39 -272.5s-64 -168.167 -114 -241.5h-32z" />
    <glyph glyph-name="asterisk" unicode="*" horiz-adv-x="468" 
d="M105 491l49 69l67 77l-99 23l-80 25l10 32l81 -25l93 -40l-9 102v84h34v-84l-9 -102l93 40l81 25l10 -32l-80 -25l-99 -23l67 -77l49 -69l-27 -19l-49 68l-53 89l-53 -89l-49 -68z" />
    <glyph glyph-name="plus" unicode="+" horiz-adv-x="460" 
d="M48 387h165v175h34v-175h165v-34h-165v-175h-34v175h-165v34z" />
    <glyph glyph-name="comma" unicode="," horiz-adv-x="171" 
d="M23 -145l47 205h38l-56 -215z" />
    <glyph glyph-name="hyphen" unicode="-" horiz-adv-x="302" 
d="M60 297h182v-34h-182v34z" />
    <glyph glyph-name="period" unicode="." horiz-adv-x="180" 
d="M90 -1c-20.667 0 -31 10.333 -31 31c0 21.333 10.333 32 31 32c9.33301 0 17 -3 23 -9s9 -13.667 9 -23s-3 -16.833 -9 -22.5s-13.667 -8.5 -23 -8.5z" />
    <glyph glyph-name="slash" unicode="/" horiz-adv-x="261" 
d="M193 740h35l-160 -861h-35z" />
    <glyph glyph-name="zero" unicode="0" horiz-adv-x="512" 
d="M256 -10c-68 0 -119.167 31.667 -153.5 95s-51.5 158 -51.5 284s17.167 221 51.5 285s85.5 96 153.5 96s119.167 -32 153.5 -96s51.5 -159 51.5 -285c0 -125.333 -17.167 -219.833 -51.5 -283.5s-85.5 -95.5 -153.5 -95.5zM256 24c56.667 0 99.333 29 128 87
s43 144 43 258s-14.5 200.333 -43.5 259s-71.5 88 -127.5 88s-98.5 -29.333 -127.5 -88s-43.5 -145 -43.5 -259c0 -230 57 -345 171 -345z" />
    <glyph glyph-name="one" unicode="1" horiz-adv-x="295" 
d="M177 685h-3l-129 -102h-5l-18 22v4l170 131h19v-740h-34v685z" />
    <glyph glyph-name="two" unicode="2" horiz-adv-x="405" 
d="M42 84c0 30 2.83398 57.998 8.50098 83.998s14.667 50.667 27 74s28.333 46.166 48 68.499s43.5 44.833 71.5 67.5c22.667 18.667 42 36.334 58 53.001s29 33 39 49s17.167 32.167 21.5 48.5s6.5 33.833 6.5 52.5c0 43.333 -11.167 76.5 -33.5 99.5
s-54.5 34.5 -96.5 34.5c-15.333 0 -32.666 -1.83301 -51.999 -5.5s-43 -10.167 -71 -19.5l-9 33c49.333 17.333 93.333 26 132 26c54 0 94.833 -14.167 122.5 -42.5s41.5 -70.166 41.5 -125.499c0 -21.333 -2.33301 -41.333 -7 -60s-12.334 -37 -23.001 -55
s-24.834 -36.167 -42.501 -54.5s-39.167 -38.166 -64.5 -59.499c-26.667 -22.667 -49 -44.167 -67 -64.5s-32.667 -41 -44 -62s-19.5 -43 -24.5 -66s-7.5 -48.167 -7.5 -75.5v-50h281v-34h-315v84z" />
    <glyph glyph-name="three" unicode="3" horiz-adv-x="388" 
d="M147 -7c-15.333 0 -31.332 1.00195 -47.999 3.00195s-32.667 5.33301 -48 10v31h8c26 -8 55.333 -12 88 -12c49.333 0 88.166 14 116.499 42s42.5 67 42.5 117c0 60 -16.5 105.667 -49.5 137s-81.167 47 -144.5 47h-12v34h13c53.333 0 95.5 14.5 126.5 43.5
s46.5 68.5 46.5 118.5c0 49.333 -11.833 87 -35.5 113s-57.834 39 -102.501 39c-24 0 -52 -4 -84 -12h-10l-9 30c38.667 10.667 73.667 16 105 16c53.333 0 95 -16.333 125 -49s45 -78.334 45 -137.001c0 -46 -10.167 -84.333 -30.5 -115s-49.166 -51.334 -86.499 -62.001
v-2c91.333 -22.667 137 -89.667 137 -201c0 -60 -17 -106.833 -51 -140.5s-81.333 -50.5 -142 -50.5z" />
    <glyph glyph-name="four" unicode="4" horiz-adv-x="461" 
d="M22 207v4l249 539h7l22 -10v-5l-235 -505v-6h259v25l10 280h24v-305h76v-32h-76v-192h-34v192h-283z" />
    <glyph glyph-name="five" unicode="5" horiz-adv-x="379" 
d="M145 -13c-30.667 0 -63 5.00293 -97 15.0029v31h10c34.667 -8 63.667 -12 87 -12c50 0 88.333 16.167 115 48.5s40 78.833 40 139.5c0 64 -14.833 109.833 -44.5 137.5s-78.167 41.5 -145.5 41.5h-48l-4 4l25 348h232v-34h-200l-21 -284c44 -0.666992 81.5 -5 112.5 -13
s56 -20.333 75 -37s32.833 -38.334 41.5 -65.001s13 -59.334 13 -98.001c0 -70.667 -16.5 -125.334 -49.5 -164.001s-80.167 -58 -141.5 -58z" />
    <glyph glyph-name="six" unicode="6" horiz-adv-x="472" 
d="M249 -12c-132.667 0 -199.001 112 -199.001 336c0 67.333 5.66699 127.5 17 180.5s27.666 97.833 48.999 134.5s47.333 64.667 78 84s65.667 29 105 29c29.333 0 61 -5.33301 95 -16v-36c-18 6.66699 -34.333 11.334 -49 14.001s-30 4 -46 4
c-31.333 0 -59.666 -8 -84.999 -24s-47.166 -39 -65.499 -69s-33 -66.5 -44 -109.5s-17.5 -91.833 -19.5 -146.5c24.667 23.333 51.5 41.833 80.5 55.5s56.5 20.5 82.5 20.5c57.333 0 102.5 -18.833 135.5 -56.5s49.5 -89.834 49.5 -156.501c0 -36.667 -4.5 -70 -13.5 -100
s-21.5 -55.667 -37.5 -77s-35.333 -37.833 -58 -49.5s-47.667 -17.5 -75 -17.5zM247.999 411c-26.667 0 -54.667 -7.5 -84 -22.5s-56 -35.167 -80 -60.5v-4c0 -102.667 13.5 -178.667 40.5 -228s68.5 -74 124.5 -74c22.667 0 43.167 5 61.5 15s34 24.167 47 42.5
s23.167 40.5 30.5 66.5s11 54.667 11 86c0 56.667 -13.333 100.667 -40 132s-63.667 47 -111 47z" />
    <glyph glyph-name="seven" unicode="7" horiz-adv-x="334" 
d="M87 -9l-24 9v11l221 695h-253l-5 30v4h278l9 -18v-29l-218 -695z" />
    <glyph glyph-name="eight" unicode="8" horiz-adv-x="469" 
d="M235 -3c-56.667 0 -101.832 16.666 -135.499 49.999s-50.5 78.333 -50.5 135c0 50.667 9.66699 92.334 29 125.001s50 58.667 92 78c-36 18.667 -62.167 42.334 -78.5 71.001s-24.5 65 -24.5 109c0 58.667 14.667 104 44 136s70.666 48 123.999 48s94.5 -16 123.5 -48
s43.5 -77.333 43.5 -136c0 -50 -8.5 -90.333 -25.5 -121s-43.5 -54.334 -79.5 -71.001c44 -19.333 75.5 -44 94.5 -74s28.5 -69 28.5 -117c0 -28 -4.33301 -53.5 -13 -76.5s-21.167 -42.5 -37.5 -58.5s-35.833 -28.333 -58.5 -37s-48 -13 -76 -13zM206.002 368.999
c-23.333 -10 -42.834 -20.8311 -58.501 -32.498s-28.167 -24.834 -37.5 -39.501s-16.166 -31.334 -20.499 -50.001s-6.5 -40.334 -6.5 -65.001c0 -45.333 14 -81.833 42 -109.5s64.667 -41.5 110 -41.5s81.833 13.667 109.5 41s41.5 64 41.5 110
c0 24.667 -2.5 46.334 -7.5 65.001s-13.167 35 -24.5 49s-26.5 26 -45.5 36s-42.5 19 -70.5 27zM101.001 565.001c0 -23.333 2.66504 -44 7.99805 -62s13.833 -33.833 25.5 -47.5s26.834 -25.834 45.501 -36.501s41.334 -20 68.001 -28l3 -1c42 16 72 37.333 90 64
s27 63.667 27 111c0 48 -11.667 85 -35 111s-56 39 -98 39s-74.833 -13.167 -98.5 -39.5s-35.5 -63.166 -35.5 -110.499z" />
    <glyph glyph-name="nine" unicode="9" horiz-adv-x="472" 
d="M223 752c132.667 0 199.001 -112 199.001 -336c0 -67.333 -5.66699 -127.5 -17 -180.5s-27.666 -97.833 -48.999 -134.5s-47.333 -64.667 -78 -84s-65.667 -29 -105 -29c-29.333 0 -61 5.33301 -95 16v36c18 -6.66699 34.333 -11.334 49 -14.001s30 -4 46 -4
c31.333 0 59.666 8 84.999 24s47.166 39 65.499 69s33 66.5 44 109.5s17.5 91.833 19.5 146.5c-24.667 -23.333 -51.5 -41.833 -80.5 -55.5s-56.5 -20.5 -82.5 -20.5c-57.333 0 -102.5 18.833 -135.5 56.5s-49.5 89.834 -49.5 156.501c0 36.667 4.5 70 13.5 100
s21.5 55.667 37.5 77s35.333 37.833 58 49.5s47.667 17.5 75 17.5zM224.001 329c26.667 0 54.667 7.5 84 22.5s56 35.167 80 60.5v4c0 102.667 -13.5 178.667 -40.5 228s-68.5 74 -124.5 74c-22.667 0 -43.167 -5 -61.5 -15s-34 -24.167 -47 -42.5
s-23.167 -40.5 -30.5 -66.5s-11 -54.667 -11 -86c0 -56.667 13.333 -100.667 40 -132s63.667 -47 111 -47z" />
    <glyph glyph-name="colon" unicode=":" horiz-adv-x="183" 
d="M91 -1c-20.667 0 -31 10.333 -31 31c0 21.333 10.333 32 31 32c9.33301 0 17 -3 23 -9s9 -13.667 9 -23s-3 -16.833 -9 -22.5s-13.667 -8.5 -23 -8.5zM91 479c-20.667 0 -31 10.333 -31 31c0 21.333 10.333 32 31 32c9.33301 0 17 -3 23 -9s9 -13.667 9 -23
s-3 -16.833 -9 -22.5s-13.667 -8.5 -23 -8.5z" />
    <glyph glyph-name="semicolon" unicode=";" horiz-adv-x="211" 
d="M47 -145l47 205h38l-56 -215zM111 479c-20.667 0 -31 10.333 -31 31c0 21.333 10.333 32 31 32c9.33301 0 17 -3 23 -9s9 -13.667 9 -23s-3 -16.833 -9 -22.5s-13.667 -8.5 -23 -8.5z" />
    <glyph glyph-name="less" unicode="&#x3c;" horiz-adv-x="471" 
d="M44 352v30l366 164v-38l-320 -141l317 -141v-38z" />
    <glyph glyph-name="equal" unicode="=" horiz-adv-x="489" 
d="M63 270h364v-34h-364v34zM63 481h364v-34h-364v34z" />
    <glyph glyph-name="greater" unicode="&#x3e;" horiz-adv-x="471" 
d="M64 226l316 141l-319 141v38l366 -164v-30l-363 -164v38z" />
    <glyph glyph-name="question" unicode="?" horiz-adv-x="385" 
d="M122 173l-0.999023 195c19.333 5.33301 40.5 11.833 63.5 19.5s44.5 18.5 64.5 32.5s36.667 31.833 50 53.5s20 49.167 20 82.5c0 30.667 -4.66699 56.5 -14 77.5s-21.5 37.667 -36.5 50s-31.833 21.166 -50.5 26.499s-37 8 -55 8c-20.667 0 -41.334 -2.5 -62.001 -7.5
s-41 -11.167 -61 -18.5l-13 30c20 8.66699 41.833 15.834 65.5 21.501s47.5 8.5 71.5 8.5c22 0 44.333 -3.16699 67 -9.5s43 -17 61 -32s32.667 -35 44 -60s17 -56.5 17 -94.5c0 -37.333 -6.5 -68.333 -19.5 -93s-29.333 -45 -49 -61s-41 -28.833 -64 -38.5
s-44.833 -17.5 -65.5 -23.5l1 -167v-20h-34v20zM140.001 2c-19.333 0 -29 9.66602 -29 28.999c0 20 9.66699 30 29 30c9.33301 0 16.666 -2.66699 21.999 -8s8 -12.666 8 -21.999s-2.66699 -16.5 -8 -21.5s-12.666 -7.5 -21.999 -7.5z" />
    <glyph glyph-name="at" unicode="@" horiz-adv-x="765" 
d="M370 -136c-40 0 -79.5 6.49707 -118.5 19.4971s-73.667 35 -104 66s-54.833 72 -73.5 123s-28 114.167 -28 189.5c0 68 8.5 127.833 25.5 179.5s41 95 72 130s67.667 61.333 110 79s89.166 26.5 140.499 26.5c58 0 107.167 -8.83301 147.5 -26.5
s73.166 -42.667 98.499 -75s43.666 -71.166 54.999 -116.499s17 -96 17 -152c0 -38 -3 -72.667 -9 -104s-15 -58.166 -27 -80.499s-27.333 -39.5 -46 -51.5s-40.334 -18 -65.001 -18c-12 0 -23.333 1.16699 -34 3.5s-20.334 7 -29.001 14s-16 16.5 -22 28.5
s-10 27.667 -12 47h-5c-10 -16 -21.333 -29.5 -34 -40.5s-25.667 -20 -39 -27s-26.166 -12 -38.499 -15s-23.166 -4.5 -32.499 -4.5c-23.333 0 -42.666 5 -57.999 15s-27.666 23.167 -36.999 39.5s-15.833 34.833 -19.5 55.5s-5.5 41.334 -5.5 62.001
c0 37.333 5 72.166 15 104.499s24.5 60.333 43.5 84s42 42.167 69 55.5s57.167 20 90.5 20c36 0 78 -10 126 -30l-34 -213c-2.66699 -14 -5 -28.5 -7 -43.5s-3 -29.167 -3 -42.5c0 -22 4.5 -40.667 13.5 -56s26.5 -23 52.5 -23c38 0 66.333 20 85 60s28 93.333 28 160
c0 50.667 -5.16699 96.667 -15.5 138s-26.666 76.666 -48.999 105.999s-51.5 52 -87.5 68s-80 24 -132 24c-46 0 -88.167 -8.16699 -126.5 -24.5s-71.5 -40.5 -99.5 -72.5s-49.667 -71.833 -65 -119.5s-23 -102.5 -23 -164.5c0 -69.333 8.33301 -127.166 25 -173.499
s38.667 -83.666 66 -111.999s58.333 -48.5 93 -60.5s70 -18 106 -18c30 0 59.5 3 88.5 9s56.833 13.667 83.5 23l12 -32c-28 -9.33301 -57.667 -17.333 -89 -24s-63 -10 -95 -10zM319 92.9971c11.333 0 24.8291 2.33496 40.4961 7.00195s31.334 13.334 47.001 26.001
s29.834 29.5 42.501 50.5s21.667 48.167 27 81.5l30 185c-15.333 5.33301 -30.666 9.66602 -45.999 12.999s-29.666 5 -42.999 5c-28.667 0 -54.334 -5.83301 -77.001 -17.5s-42 -27.834 -58 -48.501s-28.167 -45 -36.5 -73s-12.5 -58.333 -12.5 -91
c0 -16.667 1.33301 -33.334 4 -50.001s7.33398 -31.5 14.001 -44.5s15.5 -23.5 26.5 -31.5s24.833 -12 41.5 -12z" />
    <glyph glyph-name="A" unicode="A" horiz-adv-x="519" 
d="M10 6l229 734h41l229 -734v-6h-33l-78 249h-277l-78 -249h-33v6zM387 283l-94 303l-33 112h-2l-32 -112l-95 -303h256z" />
    <glyph glyph-name="B" unicode="B" horiz-adv-x="538" 
d="M270 -10c-14.667 0 -30.833 0.330078 -48.5 0.99707s-35.334 1.83398 -53.001 3.50098s-34.167 3.33398 -49.5 5.00098s-28 3.5 -38 5.5v732c22 2.66699 41 4.83398 57 6.50098s30.333 3 43 4s24.5 1.66699 35.5 2s22.5 0.5 34.5 0.5c74.667 0 129.834 -16 165.501 -48
s53.5 -81.333 53.5 -148c0 -48.667 -10.5 -88 -31.5 -118s-50.833 -48.667 -89.5 -56v-4c44.667 -6 80 -25.333 106 -58s39 -75 39 -127c0 -134 -74.667 -201 -224 -201zM270.001 19.9971c125.333 0.666992 187.999 57.666 187.999 170.999
c0 58.667 -16.5 101.167 -49.5 127.5s-87.167 39.5 -162.5 39.5h-131v-327c5.33301 -1.33301 14 -2.66602 26 -3.99902s25.5 -2.5 40.5 -3.5s30.333 -1.83301 46 -2.5s29.834 -1 42.501 -1zM245 391.996c34.667 0 64.001 2.83203 88.001 8.49902s43.5 15 58.5 28
s25.833 29.667 32.5 50s10 45.5 10 75.5c0 56 -14.833 97.333 -44.5 124s-75.834 40 -138.501 40c-24.667 0 -47.5 -0.666992 -68.5 -2s-43.5 -3.66602 -67.5 -6.99902v-317h130z" />
    <glyph glyph-name="C" unicode="C" horiz-adv-x="482" 
d="M354 -10c-54 0.666992 -100.331 8.33301 -138.998 23s-70.167 37.334 -94.5 68.001s-42.333 69.834 -54 117.501s-17.5 104.5 -17.5 170.5c0 68.667 5.5 127 16.5 175s28.667 87.167 53 117.5s55.666 52.333 93.999 66s84.833 20.5 139.5 20.5
c13.333 0 28.166 -0.5 44.499 -1.5s33.5 -2.83301 51.5 -5.5v-34c-9.33301 2 -22.5 3.66699 -39.5 5s-34.5 2 -52.5 2c-49.333 0 -91.166 -6.16699 -125.499 -18.5s-62.333 -32.333 -84 -60s-37.334 -63.334 -47.001 -107.001s-14.5 -96.834 -14.5 -159.501
c0 -120 21.167 -207.5 63.5 -262.5s109.833 -82.5 202.5 -82.5c4 0 9.83301 0.166992 17.5 0.5s16 0.833008 25 1.5l28 2c9.66699 0.666992 18.5 1.66699 26.5 3v-33c-15.333 -3.33301 -29.5 -5.5 -42.5 -6.5s-30.167 -1.5 -51.5 -1.5z" />
    <glyph glyph-name="D" unicode="D" horiz-adv-x="561" 
d="M182 -18c-17.333 0 -34.166 0.5 -50.499 1.5s-33.166 2.83301 -50.499 5.5v743c29.333 6 55.666 10.5 78.999 13.5s45 4.5 65 4.5c97.333 0 169.666 -31.333 216.999 -94s71 -158.334 71 -287.001c0 -133.333 -26.667 -231.166 -80 -293.499s-137 -93.5 -251 -93.5z
M185 17c194.667 0 291.999 117.333 291.999 352c0 118.667 -20.833 206.167 -62.5 262.5s-106.5 84.5 -194.5 84.5c-17.333 0 -34.666 -0.833008 -51.999 -2.5s-35 -4.16699 -53 -7.5v-684c13.333 -1.33301 25.833 -2.5 37.5 -3.5s22.5 -1.5 32.5 -1.5z" />
    <glyph glyph-name="E" unicode="E" horiz-adv-x="487" 
d="M81 740h358v-34h-324v-313h291v-34h-291v-325h333v-34h-367v740z" />
    <glyph glyph-name="F" unicode="F" horiz-adv-x="453" 
d="M81 740h338v-34h-304v-313h288v-34h-288v-359h-34v740z" />
    <glyph glyph-name="G" unicode="G" horiz-adv-x="541" 
d="M354 -10c-54 0.666992 -100.33 8.33398 -138.997 23.001s-70.167 37.334 -94.5 68.001s-42.333 69.834 -54 117.501s-17.5 104.5 -17.5 170.5c0 68.667 5.5 127 16.5 175s28.667 87.167 53 117.5s55.666 52.333 93.999 66s84.833 20.5 139.5 20.5
c7.33301 0 16.166 -0.333008 26.499 -1s21.5 -1.66699 33.5 -3s24.167 -2.83301 36.5 -4.5s24.166 -3.5 35.499 -5.5v-34c-22 4.66699 -44.167 8.16699 -66.5 10.5s-42.833 3.5 -61.5 3.5c-49.333 0 -91.166 -6.16699 -125.499 -18.5s-62.333 -32.333 -84 -60
s-37.334 -63.334 -47.001 -107.001s-14.5 -96.834 -14.5 -159.501c0 -120 21.167 -207.5 63.5 -262.5s109.833 -82.5 202.5 -82.5c9.33301 0 22.833 0.666992 40.5 2s36.167 3 55.5 5v345h34v-374c-26 -4.66699 -48.333 -7.83398 -67 -9.50098s-38.667 -2.5 -60 -2.5z" />
    <glyph glyph-name="H" unicode="H" horiz-adv-x="601" 
d="M81 740h34v-346h371v346h34v-740h-34v360h-371v-360h-34v740z" />
    <glyph glyph-name="I" unicode="I" horiz-adv-x="196" 
d="M81 740h34v-740h-34v740z" />
    <glyph glyph-name="J" unicode="J" horiz-adv-x="196" 
d="M-2 -159c17.333 36.667 31.501 68.832 42.501 96.499s19.667 54 26 79s10.666 50.333 12.999 76s3.5 54.834 3.5 87.501v560h34v-560c0 -62 -7.66699 -121.5 -23 -178.5s-39.333 -115.833 -72 -176.5z" />
    <glyph glyph-name="K" unicode="K" horiz-adv-x="535" 
d="M81 740h34v-347h89l262 347h43l-253 -335l-24 -25v-4l26 -23l271 -353h-41l-276 359h-97v-359h-34v740z" />
    <glyph glyph-name="L" unicode="L" horiz-adv-x="386" 
d="M81 740h34v-706h259v-34h-293v740z" />
    <glyph glyph-name="M" unicode="M" horiz-adv-x="758" 
d="M81 740h40l224 -582l32 -88h4l32 88l224 582h40v-740h-34v656l-4 1l-35 -97l-203 -529h-44l-203 529l-35 97l-4 -1v-656h-34v740z" />
    <glyph glyph-name="N" unicode="N" horiz-adv-x="640" 
d="M81 740h40l353 -596l47 -85l4 1v680h34v-740h-41l-349 590l-50 90l-4 -1v-679h-34v740z" />
    <glyph glyph-name="O" unicode="O" horiz-adv-x="586" 
d="M293 -10c-162.667 0 -244 126.332 -244 378.999c0 128.667 20 224.334 60 287.001s101.333 94 184 94c162.667 0 244 -127 244 -381c0 -252.667 -81.333 -379 -244 -379zM293 23.999c72.667 0 125.834 27.668 159.501 83.001s50.5 142.666 50.5 261.999
c0 118 -17.167 205.333 -51.5 262s-87.166 85 -158.499 85c-72.667 0 -125.834 -27.833 -159.501 -83.5s-50.5 -143.5 -50.5 -263.5s16.667 -207.5 50 -262.5s86.666 -82.5 159.999 -82.5z" />
    <glyph glyph-name="P" unicode="P" horiz-adv-x="498" 
d="M81 735c26.667 5.33301 51.334 9.5 74.001 12.5s44.667 4.5 66 4.5c83.333 0 144.666 -20 183.999 -60s59 -103 59 -189c0 -87.333 -20.667 -151 -62 -191s-107 -60 -197 -60c-13.333 0 -27.5 0.333008 -42.5 1s-30.833 2 -47.5 4v-257h-34v735zM216 286
c73.333 0 127.333 17.5 162 52.5s52 89.833 52 164.5c0 74 -16.5 128.333 -49.5 163s-84.167 52 -153.5 52c-16 0 -33.333 -1 -52 -3s-38.667 -4.66699 -60 -8v-414c17.333 -2 34.5 -3.66699 51.5 -5s33.5 -2 49.5 -2z" />
    <glyph glyph-name="Q" unicode="Q" horiz-adv-x="584" 
d="M536 -93c-87.333 12.667 -161.999 27.832 -223.999 45.499s-112.667 43.167 -152 76.5s-68 77 -86 131s-27 123.667 -27 209c0 128.667 20 224.334 60 287.001s101.333 94 184 94c162.667 0 244 -127 244 -381c0 -252.667 -81.333 -379 -244 -379v-4
c23.333 -9.33301 56.666 -17.5 99.999 -24.5s91 -13.5 143 -19.5zM291.001 23.998c72.667 0 125.834 27.668 159.501 83.001s50.5 142.666 50.5 261.999c0 118 -17.167 205.333 -51.5 262s-87.166 85 -158.499 85c-72.667 0 -125.834 -27.833 -159.501 -83.5
s-50.5 -143.5 -50.5 -263.5s16.667 -207.5 50 -262.5s86.666 -82.5 159.999 -82.5z" />
    <glyph glyph-name="R" unicode="R" horiz-adv-x="512" 
d="M293 289c-13.333 -2.66699 -27.167 -4.49902 -41.5 -5.49902s-29.833 -1.5 -46.5 -1.5c-15.333 0 -30.333 0.5 -45 1.5s-29.667 2.16699 -45 3.5v-287h-34v735c26 5.33301 50.5 9.5 73.5 12.5s45.167 4.5 66.5 4.5c84 0 145.5 -18.833 184.5 -56.5
s58.5 -96.834 58.5 -177.501c0 -60.667 -11 -109 -33 -145s-57 -61.333 -105 -76l143 -297h-37zM215.999 316.001c74 0 128.165 16.167 162.498 48.5s51.5 83.5 51.5 153.5c0 68.667 -16.333 119.167 -49 151.5s-84 48.5 -154 48.5c-14.667 0 -31.167 -1 -49.5 -3
s-39.166 -4.66699 -62.499 -8v-384c19.333 -2.66699 37.333 -4.5 54 -5.5s32.334 -1.5 47.001 -1.5z" />
    <glyph glyph-name="S" unicode="S" horiz-adv-x="453" 
d="M219 -14c-14 0 -29.501 0.833984 -46.501 2.50098s-34 4 -51 7s-33 6.5 -48 10.5s-27.833 8.33301 -38.5 13l8 32c8.66699 -4 20.167 -7.83301 34.5 -11.5s29.666 -7 45.999 -10s32.833 -5.33301 49.5 -7s32 -2.5 46 -2.5c52 0 92.333 13.667 121 41s43 66 43 116
c0 20 -3 38.5 -9 55.5s-15.667 32.833 -29 47.5s-30.333 28.5 -51 41.5s-45.667 25.833 -75 38.5c-31.333 13.333 -58 26.833 -80 40.5s-39.667 28 -53 43s-23 31.5 -29 49.5s-9 38 -9 60c0 30 4.83301 57.333 14.5 82s23.334 45.667 41.001 63s38.834 30.833 63.501 40.5
s52 14.5 82 14.5c22.667 0 45.667 -1.5 69 -4.5s49 -7.5 77 -13.5l-8 -34c-30.667 6.66699 -57 11.334 -79 14.001s-41.667 4 -59 4c-25.333 0 -48.166 -4 -68.499 -12s-37.833 -19.167 -52.5 -33.5s-26 -31.833 -34 -52.5s-12 -43.334 -12 -68.001
c0 -18.667 2.5 -35.334 7.5 -50.001s13.5 -28.334 25.5 -41.001s27.667 -24.667 47 -36s43 -22.666 71 -33.999c34 -14 62.833 -28.333 86.5 -43s42.667 -30.5 57 -47.5s24.666 -35.5 30.999 -55.5s9.5 -43 9.5 -69c0 -60 -17.5 -106.833 -52.5 -140.5
s-83.5 -50.5 -145.5 -50.5z" />
    <glyph glyph-name="T" unicode="T" horiz-adv-x="447" 
d="M206 706h-194v34h422v-34h-194v-706h-34v706z" />
    <glyph glyph-name="U" unicode="U" horiz-adv-x="618" 
d="M309 -10c-41.333 0 -76.668 5.83301 -106.001 17.5s-53.5 29.667 -72.5 54s-33 55.5 -42 93.5s-13.5 83.667 -13.5 137v448h34v-450c0 -92.667 16 -160.167 48 -202.5s82.667 -63.5 152 -63.5s120 21.167 152 63.5s48 109.833 48 202.5v450h34v-448
c0 -53.333 -4.5 -99 -13.5 -137s-23 -69.167 -42 -93.5s-43.167 -42.333 -72.5 -54s-64.666 -17.5 -105.999 -17.5z" />
    <glyph glyph-name="V" unicode="V" horiz-adv-x="536" 
d="M8 740h35l186 -575l37 -121h4l37 121l186 575h35l-239 -740h-42z" />
    <glyph glyph-name="W" unicode="W" horiz-adv-x="841" 
d="M19 740h36l133 -554l32 -143h4l35 143l145 554h43l133 -554l32 -143h4l35 143l145 554h34l-194 -740h-47l-140 581l-23 107h-4l-26 -107l-152 -581h-47z" />
    <glyph glyph-name="X" unicode="X" horiz-adv-x="528" 
d="M242 372l-226 368h40l197 -320l11 -23h2l11 23l195 320h40l-226 -372l227 -368h-41l-197 320l-11 23h-2l-11 -23l-195 -320h-41z" />
    <glyph glyph-name="Y" unicode="Y" horiz-adv-x="493" 
d="M230 246l-226 494h36l178 -388l27 -69h2l27 69l178 388h36l-224 -490v-250h-34v246z" />
    <glyph glyph-name="Z" unicode="Z" horiz-adv-x="446" 
d="M30 22l336 680v4h-332v34h378v-21l-337 -682v-4h341v-33h-386v22z" />
    <glyph glyph-name="bracketleft" unicode="[" horiz-adv-x="269" 
d="M77 868h163v-34h-129v-960h129v-34h-163v1028z" />
    <glyph glyph-name="backslash" unicode="\" horiz-adv-x="253" 
d="M33 740h27l160 -860h-27z" />
    <glyph glyph-name="bracketright" unicode="]" horiz-adv-x="269" 
d="M29 -160v34h129v960h-129v34h163v-1028h-163z" />
    <glyph glyph-name="asciicircum" unicode="^" horiz-adv-x="330" 
d="M157 789h16l113 -308h-27l-92 267h-4l-93 -267h-26z" />
    <glyph glyph-name="underscore" unicode="_" horiz-adv-x="470" 
d="M44 -60h382v-33h-382v33z" />
    <glyph glyph-name="grave" unicode="`" horiz-adv-x="204" 
d="M126 610l-87 188h36l74 -178z" />
    <glyph glyph-name="a" unicode="a" horiz-adv-x="416" 
d="M153 -5c-38 0 -67.335 11.498 -88.002 34.498s-31 55.5 -31 97.5c0 97.333 61.667 151 185 161l98 8v84c0 46.667 -9.66699 80.834 -29 102.501s-50 32.5 -92 32.5c-16.667 0 -35.667 -1.66699 -57 -5s-42.333 -7.66602 -63 -12.999l-6 34c23.333 5.33301 47 9.5 71 12.5
s44.667 4.5 62 4.5c98.667 0 148 -56 148 -168v-380h-29l-6 65h-4l-35.5 -24.5c-12.333 -8.33301 -25.166 -15.833 -38.499 -22.5s-27.166 -12.167 -41.499 -16.5s-28.833 -6.5 -43.5 -6.5zM160.998 29.998c14 0 28.332 2.83301 42.999 8.5s28.834 12.334 42.501 20.001
s26.667 15.667 39 24s22.833 15.166 31.5 20.499v160l-92 -7c-56 -4 -95.833 -16 -119.5 -36s-35.5 -50 -35.5 -90c0 -66.667 30.333 -100 91 -100z" />
    <glyph glyph-name="b" unicode="b" horiz-adv-x="458" 
d="M192 -10c-37.333 0 -78.667 6.66895 -124 20.002v798h34v-322c16 19.333 36.167 34.666 60.5 45.999s50.5 17 78.5 17c57.333 0 100.5 -22.667 129.5 -68s43.5 -112.666 43.5 -201.999c0 -36.667 -3.66699 -72.167 -11 -106.5s-19.5 -64.833 -36.5 -91.5
s-39.667 -48.334 -68 -65.001s-63.833 -25.334 -106.5 -26.001zM195.999 24.002c59.333 0 104.5 21.668 135.5 65.001s46.5 106.666 46.5 189.999c0 77.333 -11.667 136 -35 176s-58 60 -104 60c-16 0 -32.167 -2.5 -48.5 -7.5s-31 -11.667 -44 -20s-23.667 -17.5 -32 -27.5
s-12.5 -20 -12.5 -30v-395c19.333 -3.33301 36.833 -6 52.5 -8s29.5 -3 41.5 -3z" />
    <glyph glyph-name="c" unicode="c" horiz-adv-x="364" 
d="M242 -10c-66.667 0 -116.168 22.832 -148.501 68.499s-48.5 116.167 -48.5 211.5c0 92.667 16.5 162.5 49.5 209.5s82.167 70.5 147.5 70.5c10 0 21.333 -0.833008 34 -2.5s29.667 -4.5 51 -8.5v-34c-16.667 4 -31.667 6.83301 -45 8.5s-26.666 2.5 -39.999 2.5
c-55.333 0 -96 -19.833 -122 -59.5s-39 -102.167 -39 -187.5c0 -83.333 13.167 -145 39.5 -185s66.833 -60 121.5 -60c18.667 0 47 4 85 12v-34c-13.333 -3.33301 -27.833 -6.16602 -43.5 -8.49902s-29.5 -3.5 -41.5 -3.5z" />
    <glyph glyph-name="d" unicode="d" horiz-adv-x="459" 
d="M220 -9c-60 0 -104.332 22.833 -132.999 68.5s-43 116.167 -43 211.5c0 87.333 18.667 155.5 56 204.5s89.666 73.5 156.999 73.5c15.333 0 30.333 -0.833008 45 -2.5s32.667 -4.16699 54 -7.5v269h34v-808h-29l-5 54h-3c-32 -42 -76.333 -63 -133 -63zM218.001 25
c16 0 32.1699 2.5 48.5029 7.5s31.166 11.667 44.499 20s24.166 17.5 32.499 27.5s12.5 20 12.5 30v394c-23.333 4 -42 6.83301 -56 8.5s-28.333 2.5 -43 2.5c-56.667 0 -100.334 -21.167 -131.001 -63.5s-46 -102.833 -46 -181.5c0 -78 12 -138.333 36 -181s58 -64 102 -64
z" />
    <glyph glyph-name="e" unicode="e" horiz-adv-x="424" 
d="M239 -9c-62 0 -109.998 23.3311 -143.998 69.998s-51 112.334 -51 197.001c0 94.667 16.167 166.834 48.5 216.501s79.166 74.5 140.499 74.5c48.667 0 86 -19 112 -57s39 -93 39 -165c0 -16 -0.333008 -29.167 -1 -39.5s-1.66699 -20.833 -3 -31.5h-300
c1.33301 -74 15.666 -131 42.999 -171s66 -60 116 -60c21.333 0 41 2.5 59 7.5s37.667 13.167 59 24.5l5 -35c-37.333 -20.667 -78.333 -31 -123 -31zM233.002 514.998c-46 0 -82.168 -19.502 -108.501 -58.502s-41.166 -94.5 -44.499 -166.5h268
c0 42 -2.33301 77.333 -7 106s-11.834 51.834 -21.501 69.501s-21.667 30.334 -36 38.001s-31.166 11.5 -50.499 11.5z" />
    <glyph glyph-name="f" unicode="f" horiz-adv-x="236" 
d="M92 509l-76 -0.000976562v31h76v45c0 40 2.33301 73.5 7 100.5s13 49 25 66s27.833 29.833 47.5 38.5s44.5 14.667 74.5 18v-31c-24 -3.33301 -43.833 -8.33301 -59.5 -15s-28 -17.167 -37 -31.5s-15.167 -33.166 -18.5 -56.499s-5 -53 -5 -89v-45h97v-31h-97v-509h-34
v509z" />
    <glyph glyph-name="g" unicode="g" horiz-adv-x="458" 
d="M208 -220c-42 0 -80.999 7.66797 -116.999 23.001l4 35c20 -8.66699 38.833 -14.834 56.5 -18.501s36.5 -5.5 56.5 -5.5c26 0 48.167 4.16699 66.5 12.5s33.5 21.333 45.5 39s21 40.5 27 68.5s9.33301 61.667 10 101v19h-4c-32 -42 -76.333 -63 -133 -63
c-60 0 -104.333 22.833 -133 68.5s-43 116.167 -43 211.5c0 87.333 18.667 155.5 56 204.5s89.666 73.5 156.999 73.5c26 0 49 -1.5 69 -4.5s41.333 -8.16699 64 -15.5v-471c0 -98 -14.167 -168.833 -42.5 -212.5s-74.833 -65.5 -139.5 -65.5zM218.001 25.001
c16 0 32.1699 2.5 48.5029 7.5s31.166 11.667 44.499 20s24.166 17.5 32.499 27.5s12.5 20 12.5 30v394c-24 4 -43 6.83301 -57 8.5s-28 2.5 -42 2.5c-56.667 0 -100.334 -21.167 -131.001 -63.5s-46 -102.833 -46 -181.5c0 -78 12 -138.333 36 -181s58 -64 102 -64z" />
    <glyph glyph-name="h" unicode="h" horiz-adv-x="454" 
d="M69 808h34.001v-326h4c29.333 21.333 58.666 38 87.999 50s56.666 18 81.999 18c20.667 0 38.167 -2.33301 52.5 -7s25.833 -12.5 34.5 -23.5s14.834 -25.5 18.501 -43.5s5.5 -40.333 5.5 -67v-409h-34v409c0 38.667 -5.83301 66.167 -17.5 82.5s-31.5 24.5 -59.5 24.5
c-52 0 -110 -22.333 -174 -67v-449h-34v808z" />
    <glyph glyph-name="i" unicode="i" horiz-adv-x="174" 
d="M87 684c-19.333 0 -29 9.66602 -29 28.999c0 20 9.66699 30 29 30c9.33301 0 16.666 -2.66699 21.999 -8s8 -12.666 8 -21.999s-2.66699 -16.5 -8 -21.5s-12.666 -7.5 -21.999 -7.5zM70 539.999h34v-540h-34v540z" />
    <glyph glyph-name="j" unicode="j" horiz-adv-x="172" 
d="M87 684c-19.333 0 -29 9.66602 -29 28.999c0 20 9.66699 30 29 30c9.33301 0 16.666 -2.66699 21.999 -8s8 -12.666 8 -21.999s-2.66699 -16.5 -8 -21.5s-12.666 -7.5 -21.999 -7.5zM-10 -201.001c27.333 45.333 47.499 92.832 60.499 142.499s19.5 105.834 19.5 168.501
v430h34v-447c0 -56 -7.66699 -110.667 -23 -164s-37.666 -103 -66.999 -149z" />
    <glyph glyph-name="k" unicode="k" horiz-adv-x="410" 
d="M69 808h34v-515h81l167 247h39l-171 -253l-12 -10v-2l13 -11l186 -264h-39l-185 261h-79v-261h-34v808z" />
    <glyph glyph-name="l" unicode="l" horiz-adv-x="178" 
d="M72 808h34v-808h-34v808z" />
    <glyph glyph-name="m" unicode="m" horiz-adv-x="733" 
d="M69 540h28.001l4 -58h3c29.333 21.333 58.666 38 87.999 50s56.666 18 81.999 18c31.333 0 55 -5.33301 71 -16s27 -28.667 33 -54h4c30 22.667 60 40 90 52s58 18 84 18c20.667 0 38.167 -2.33301 52.5 -7s25.833 -12.5 34.5 -23.5s14.834 -25.5 18.501 -43.5
s5.5 -40.333 5.5 -67v-409h-34v409c0 38.667 -5.83301 66.167 -17.5 82.5s-31.5 24.5 -59.5 24.5c-25.333 0 -52.5 -5.5 -81.5 -16.5s-58.833 -27.167 -89.5 -48.5v-451h-34v409c0 38.667 -5.83301 66.167 -17.5 82.5s-31.5 24.5 -59.5 24.5
c-53.333 0 -110.333 -21.667 -171 -65v-451h-34v540z" />
    <glyph glyph-name="n" unicode="n" horiz-adv-x="454" 
d="M69 540h30.001l4 -58h4c29.333 21.333 58.666 38 87.999 50s56.666 18 81.999 18c20.667 0 38.167 -2.33301 52.5 -7s25.833 -12.5 34.5 -23.5s14.834 -25.5 18.501 -43.5s5.5 -40.333 5.5 -67v-409h-34v409c0 38.667 -5.83301 66.167 -17.5 82.5s-31.5 24.5 -59.5 24.5
c-52 0 -110 -22.333 -174 -67v-449h-34v540z" />
    <glyph glyph-name="o" unicode="o" horiz-adv-x="468" 
d="M234 -8c-62.667 0 -110 23.5 -142 70.5s-48 116.167 -48 207.5s16.167 160.833 48.5 208.5s79.5 71.5 141.5 71.5c62.667 0 110 -23.833 142 -71.5s48 -117.167 48 -208.5s-16 -160.5 -48 -207.5s-79.333 -70.5 -142 -70.5zM234 26c102.667 0 154 81.333 154 244
c0 164 -51.333 246 -154 246s-154 -82 -154 -246c0 -162.667 51.333 -244 154 -244z" />
    <glyph glyph-name="p" unicode="p" horiz-adv-x="459" 
d="M69 540l30 -0.000976562l4 -54h4c16 19.333 35.5 34.666 58.5 45.999s48.5 17 76.5 17c57.333 0 100.5 -22.667 129.5 -68s43.5 -112.666 43.5 -201.999c0 -36 -3.66699 -71.167 -11 -105.5s-19.5 -65.166 -36.5 -92.499s-39.667 -49.333 -68 -66s-63.833 -25 -106.5 -25
c-27.333 0 -57.333 3.66699 -90 11v-221h-34v760zM197 23.999c59.333 0 104.5 21.668 135.5 65.001s46.5 106.666 46.5 189.999c0 77.333 -11.667 136 -35 176s-58 60 -104 60c-16 0 -32.167 -2.5 -48.5 -7.5s-31 -11.667 -44 -20s-23.667 -17.5 -32 -27.5
s-12.5 -20 -12.5 -30v-395c19.333 -3.33301 36.833 -6 52.5 -8s29.5 -3 41.5 -3z" />
    <glyph glyph-name="q" unicode="q" horiz-adv-x="458" 
d="M357 54c-36 -42 -81.666 -63 -136.999 -63c-60 0 -104.333 22.833 -133 68.5s-43 116.167 -43 211.5c0 87.333 18.667 155.5 56 204.5s89.666 73.5 156.999 73.5c26.667 0 50 -1.5 70 -4.5s41 -8.16699 63 -15.5v-749h-33v274zM218.001 25c16 0 32.1709 2.5 48.5039 7.5
s31.166 11.667 44.499 20s24.166 17.5 32.499 27.5s12.5 20 12.5 30v394c-26 4.66699 -45.833 7.66699 -59.5 9s-26.834 2 -39.501 2c-56.667 0 -100.334 -21.167 -131.001 -63.5s-46 -102.833 -46 -181.5c0 -78 12 -138.333 36 -181s58 -64 102 -64z" />
    <glyph glyph-name="r" unicode="r" horiz-adv-x="285" 
d="M69 540l30 -0.00195312l4 -58h4c16 12.667 37.5 24.834 64.5 36.501s57.167 21.834 90.5 30.501h11v-42h-13c-68 -12 -120.333 -31.333 -157 -58v-449h-34v540z" />
    <glyph glyph-name="s" unicode="s" horiz-adv-x="345" 
d="M166 -12c-16.667 0 -34.165 1.32812 -52.498 3.99512s-43.166 7.66699 -74.499 15v37c21.333 -6.66699 42.333 -11.834 63 -15.501s39 -5.5 55 -5.5c37.333 0 65.666 10.167 84.999 30.5s29 48.5 29 84.5c0 32 -7.33301 57.667 -22 77s-39 34 -73 44
c-15.333 4.66699 -30.833 9.83398 -46.5 15.501s-29.834 13.834 -42.501 24.501s-22.834 24.834 -30.501 42.501s-11.5 40.834 -11.5 69.501c0 43.333 13.333 77.833 40 103.5s62.334 38.5 107.001 38.5c7.33301 0 14.166 -0.166992 20.499 -0.5
s13.333 -1.16602 21 -2.49902s16 -3 25 -5s20.167 -4.33301 33.5 -7v-36c-38.667 10.667 -71.667 16 -99 16c-35.333 0 -62.666 -9.16699 -81.999 -27.5s-29 -44.833 -29 -79.5c0 -20.667 2.66699 -37.334 8 -50.001s12.666 -23.167 21.999 -31.5s20.333 -15.166 33 -20.499
s26.667 -10.333 42 -15c44.667 -14.667 76.167 -33.667 94.5 -57s27.5 -56.333 27.5 -99c0 -47.333 -13.5 -84.166 -40.5 -110.499s-61.167 -39.5 -102.5 -39.5z" />
    <glyph glyph-name="t" unicode="t" horiz-adv-x="312" 
d="M239 -4c-81.333 0 -122 46.333 -122 139v371h-104v34h105l5 125l28 8v-133h152v-34h-152v-371c0 -34 7.83301 -60 23.5 -78s38.5 -27 68.5 -27c7.33301 0 16.5 0.666992 27.5 2s20.167 3 27.5 5v-34c-23.333 -4.66699 -43 -7 -59 -7z" />
    <glyph glyph-name="u" unicode="u" horiz-adv-x="453" 
d="M186 -10c-44 0 -75.167 10.668 -93.5 32.001s-27.5 57.666 -27.5 108.999v409h34v-409c0 -71.333 29 -107 87 -107c24.667 0 50.167 5.83301 76.5 17.5s55.5 29.167 87.5 52.5v446h34v-540h-30l-4 58h-4c-32 -23.333 -61 -40.5 -87 -51.5s-50.333 -16.5 -73 -16.5z" />
    <glyph glyph-name="v" unicode="v" horiz-adv-x="431" 
d="M16 537v3h34l149 -457l15 -47h4l15 47l149 457h34v-3l-174 -537h-53z" />
    <glyph glyph-name="w" unicode="w" horiz-adv-x="640" 
d="M22 536v4h33l98 -401l18 -87h4l22 87l107 401h32l107 -401l22 -87h4l18 87l98 401h33v-4l-132 -536h-38l-112 420l-14 55h-4l-14 -55l-112 -420h-38z" />
    <glyph glyph-name="x" unicode="x" horiz-adv-x="432" 
d="M12 4l183 275l-171 256v5h37l135 -202l20 -32h2l20 32l133 202h37v-5l-171 -259l183 -272v-4h-39l-145 219l-20 30h-2l-19 -30l-144 -219h-39v4z" />
    <glyph glyph-name="y" unicode="y" horiz-adv-x="430" 
d="M127 -213v4l72 211l-183 535v3h34l150 -438l15 -55h2l15 55l149 438h34v-3l-255 -757z" />
    <glyph glyph-name="z" unicode="z" horiz-adv-x="378" 
d="M30 21l260 483v4h-250v32h298v-20l-262 -484v-4h272v-32h-318v21z" />
    <glyph glyph-name="braceleft" unicode="{" horiz-adv-x="334" 
d="M20 373c25.333 0 45.333 10.002 60 30.002s22 47.667 22 83v280c0 20 1.5 36.5 4.5 49.5s8.5 23.5 16.5 31.5s18.667 13.5 32 16.5s30 4.5 50 4.5c6.66699 0 15.167 -0.166992 25.5 -0.5s20.5 -0.833008 30.5 -1.5s19 -1.16699 27 -1.5s13 -0.833008 15 -1.5v-29h-107
c-23.333 0 -39.166 -4 -47.499 -12s-12.5 -23.333 -12.5 -46v-295c0 -29.333 -4.83301 -54.666 -14.5 -75.999s-22.5 -36.333 -38.5 -45c16 -8.66699 28.833 -23.834 38.5 -45.501s14.5 -46.834 14.5 -75.501v-295c0 -22.667 4.16699 -38 12.5 -46s24.166 -12 47.499 -12
h107v-29c-2 -0.666992 -7 -1.33398 -15 -2.00098s-17 -1.16699 -27 -1.5l-30.5 -1c-10.333 -0.333008 -18.833 -0.5 -25.5 -0.5c-20 0 -36.667 1.5 -50 4.5s-24 8.5 -32 16.5s-13.5 18.5 -16.5 31.5s-4.5 29.5 -4.5 49.5v280c0 35.333 -7.33301 63 -22 83s-34.667 30 -60 30
v26z" />
    <glyph glyph-name="bar" unicode="|" horiz-adv-x="188" 
d="M111 808v-1028h-34v1028h34z" />
    <glyph glyph-name="braceright" unicode="}" horiz-adv-x="333" 
d="M314 347c-25.333 0 -45.333 -10.002 -60 -30.002s-22 -47.667 -22 -83v-280c0 -20 -1.5 -36.5 -4.5 -49.5s-8.5 -23.5 -16.5 -31.5s-18.667 -13.5 -32 -16.5s-30 -4.5 -50 -4.5c-6.66699 0 -15.167 0.166992 -25.5 0.5l-30.5 1c-10 0.333008 -19 0.833008 -27 1.5
s-13 1.33398 -15 2.00098v29h107c23.333 0 39.166 4 47.499 12s12.5 23.333 12.5 46v295c0 28.667 4.83301 53.834 14.5 75.501s22.5 36.834 38.5 45.501c-16 8.66699 -28.833 23.667 -38.5 45s-14.5 46.666 -14.5 75.999v295c0 22.667 -4.16699 38 -12.5 46
s-24.166 12 -47.499 12h-107v29c2 0.666992 7 1.16699 15 1.5s17 0.833008 27 1.5s20.167 1.16699 30.5 1.5s18.833 0.5 25.5 0.5c20 0 36.667 -1.5 50 -4.5s24 -8.5 32 -16.5s13.5 -18.5 16.5 -31.5s4.5 -29.5 4.5 -49.5v-280c0 -35.333 7.33301 -63 22 -83
s34.667 -30 60 -30v-26z" />
    <glyph glyph-name="asciitilde" unicode="~" 
d="M62 290c24.667 30.667 45.334 51.833 62.001 63.5s35 17.5 55 17.5c14 0 26.5 -3.83301 37.5 -11.5s21.167 -16.334 30.5 -26.001s19 -18.334 29 -26.001s21 -11.5 33 -11.5c15.333 0 30.5 6.33301 45.5 19s25.5 28 31.5 46l32 -12
c-4.66699 -12 -10.834 -23.333 -18.501 -34s-16.5 -20 -26.5 -28s-20.5 -14.167 -31.5 -18.5s-21.833 -6.5 -32.5 -6.5c-16 0 -30 3.83301 -42 11.5s-23 16.334 -33 26.001l-28 26c-8.66699 7.66699 -17.667 11.5 -27 11.5c-14 0 -27.833 -5.16699 -41.5 -15.5
s-30.167 -28.166 -49.5 -53.499z" />
    <glyph glyph-name="uni00A0" unicode="&#xa0;" horiz-adv-x="204" 
 />
    <glyph glyph-name="exclamdown" unicode="&#xa1;" horiz-adv-x="177" 
d="M92 534c9.33301 0 16.666 -2.50098 21.999 -7.50098s8 -12.167 8 -21.5s-2.66699 -16.666 -8 -21.999s-12.666 -8 -21.999 -8c-19.333 0 -29 10 -29 30c0 19.333 9.66699 29 29 29zM76 392.999h24v-14l5 -569v-10h-34v10l5 569v14z" />
    <glyph glyph-name="cent" unicode="&#xa2;" horiz-adv-x="382" 
d="M215 -8c-57.333 6 -99.835 31.667 -127.502 77s-41.5 112.333 -41.5 201c0 85.333 14 151.333 42 198s70.333 73.334 127 80.001v113h34v-111c9.33301 -0.666992 20 -1.83398 32 -3.50098s27.667 -4.16699 47 -7.5v-34c-16.667 4 -31.667 6.83301 -45 8.5
s-26.666 2.5 -39.999 2.5c-55.333 0 -96 -19.833 -122 -59.5s-39 -102.167 -39 -187.5c0 -83.333 13.167 -145 39.5 -185s66.833 -60 121.5 -60c18.667 0 47 4 85 12v-34c-12.667 -3.33301 -26.167 -6 -40.5 -8s-27.166 -3.33301 -38.499 -4v-109h-34v111z" />
    <glyph glyph-name="sterling" unicode="&#xa3;" horiz-adv-x="482" 
d="M43 383h107.001v145c0 74 12 128.5 36 163.5s64.667 52.5 122 52.5c37.333 0 81.666 -9.66699 132.999 -29l-10 -32c-48 18 -88.667 27 -122 27c-45.333 0 -77.5 -14 -96.5 -42s-28.5 -74.667 -28.5 -140v-145h169v-34h-169v-315h243v-34h-384v34h107v315h-107v34z" />
    <glyph glyph-name="currency" unicode="&#xa4;" horiz-adv-x="515" 
d="M51 194l52.0029 57l53 33c-7.33301 26 -11 54.667 -11 86s3.66699 60 11 86l-53 33l-52 57l30 30l57 -52l27 -44c10 22.667 23.167 40.334 39.5 53.001s34.833 19 55.5 19c19.333 0 36.666 -6.33301 51.999 -19s27.666 -30 36.999 -52l27 43l57 52l30 -30l-52 -57
l-54 -33c7.33301 -26 11 -54.667 11 -86s-3.66699 -60 -11 -86l54 -33l52 -57l-30 -30l-57 52l-27 44c-9.33301 -23.333 -22 -41.333 -38 -54s-34 -19 -54 -19c-20.667 0 -38.834 6.16699 -54.501 18.5s-28.5 30.166 -38.5 53.499l-26 -43l-57 -52zM180.003 370
c0 -44.667 7 -79.499 21 -104.499s32.667 -37.5 56 -37.5s41.833 12.333 55.5 37s20.5 59.667 20.5 105c0 47.333 -7 82.666 -21 105.999s-32.333 35 -55 35c-23.333 0 -42 -12 -56 -36s-21 -59 -21 -105z" />
    <glyph glyph-name="yen" unicode="&#xa5;" horiz-adv-x="528" 
d="M101 279h132l-211 461h36l178 -388l27 -69h2l27 69l178 388h36l-211 -461h136v-32h-149v-97h149v-32h-149v-118h-34v118h-147v32h147v96l-1 1h-146v32z" />
    <glyph glyph-name="brokenbar" unicode="&#xa6;" horiz-adv-x="174" 
d="M70 203h34v-423h-34v423zM70 808h34v-423h-34v423z" />
    <glyph glyph-name="section" unicode="&#xa7;" horiz-adv-x="371" 
d="M179 -12c-16.667 0 -34.166 1.32715 -52.499 3.99414s-43.166 7.66699 -74.499 15v34c21.333 -6 42.333 -10.667 63 -14s40.334 -5 59.001 -5c34.667 0 62 10.333 82 31s30 49 30 85c0 32.667 -7.66699 58.667 -23 78s-40 34 -74 44
c-15.333 4.66699 -30.833 9.66699 -46.5 15s-29.834 13.333 -42.501 24s-22.834 24.834 -30.501 42.501s-11.5 40.834 -11.5 69.501c0 38 10.333 69.333 31 94c-9.33301 10.667 -16.833 24 -22.5 40s-8.5 36.333 -8.5 61c0 43.333 13.333 77.833 40 103.5
s62.334 38.5 107.001 38.5c7.33301 0 14.166 -0.166992 20.499 -0.5s13.333 -1.16602 21 -2.49902s16 -3 25 -5s20.167 -4.33301 33.5 -7v-34c-24.667 6 -43.834 10 -57.501 12s-27.167 3 -40.5 3c-35.333 0 -63.333 -9.66699 -84 -29s-31 -45.666 -31 -78.999
c0 -21.333 3 -38.5 9 -51.5s14 -23.667 24 -32s21.5 -15 34.5 -20s26.5 -9.83301 40.5 -14.5c22 -7.33301 40.667 -15.666 56 -24.999s27.833 -20 37.5 -32s16.5 -26 20.5 -42s6 -34.667 6 -56c0 -18.667 -2.5 -35.834 -7.5 -51.501s-12.167 -30.167 -21.5 -43.5
c19.333 -24 29 -57.333 29 -100c0 -22 -3.5 -42.167 -10.5 -60.5s-16.833 -34.166 -29.5 -47.499s-27.5 -23.666 -44.5 -30.999s-35.833 -11 -56.5 -11zM267.001 260.994c12.667 20 19.001 44.001 19.001 72.001c0 32.667 -7.66699 58.667 -23 78s-40 34 -74 44
c-12.667 3.33301 -25 7 -37 11s-23.667 9.33301 -35 16c-16.667 -18.667 -25 -42.334 -25 -71.001c0 -21.333 3 -38.5 9 -51.5s14 -23.667 24 -32s21.5 -15 34.5 -20s26.5 -9.83301 40.5 -14.5c27.333 -9.33301 49.666 -20 66.999 -32z" />
    <glyph glyph-name="dieresis" unicode="&#xa8;" horiz-adv-x="355" 
d="M87 636c-8 0 -14.667 2.16699 -20 6.5s-8 11.166 -8 20.499s2.66699 16.166 8 20.499s12 6.5 20 6.5c7.33301 0 13.666 -2.16699 18.999 -6.5s8 -11.166 8 -20.499s-2.66699 -16.166 -8 -20.499s-11.666 -6.5 -18.999 -6.5zM249 636c-8 0 -14.667 2.16699 -20 6.5
s-8 11.166 -8 20.499s2.66699 16.166 8 20.499s12 6.5 20 6.5c7.33301 0 13.666 -2.16699 18.999 -6.5s8 -11.166 8 -20.499s-2.66699 -16.166 -8 -20.499s-11.666 -6.5 -18.999 -6.5z" />
    <glyph glyph-name="copyright" unicode="&#xa9;" horiz-adv-x="836" 
d="M434 163c-54.667 0 -98.833 16.668 -132.5 50.001s-50.5 84 -50.5 152c0 69.333 16.833 121.166 50.5 155.499s77.834 51.5 132.501 51.5c14 0 28 -0.833008 42 -2.5s27.667 -3.83398 41 -6.50098v-35c-12 2.66699 -25 4.83398 -39 6.50098s-28 2.5 -42 2.5
c-45.333 0 -81.5 -14.167 -108.5 -42.5s-40.5 -71.5 -40.5 -129.5c0 -28.667 3.66699 -53.5 11 -74.5s17.5 -38.5 30.5 -52.5s28.667 -24.333 47 -31s38.166 -10 59.499 -10c14 0 28.167 1 42.5 3s28.166 4.33301 41.499 7v-33c-27.333 -7.33301 -55.666 -11 -84.999 -11z
M418.001 -10.999c-56 0 -106.833 9.16699 -152.5 27.5s-84.667 44.166 -117 77.499s-57.5 73.333 -75.5 120s-27 98.667 -27 156s9 109.333 27 156s43.167 86.667 75.5 120s71.333 59.166 117 77.499s96.5 27.5 152.5 27.5s106.833 -9.16699 152.5 -27.5
s84.667 -44.166 117 -77.499s57.5 -73.333 75.5 -120s27 -98.667 27 -156s-9 -109.333 -27 -156s-43.167 -86.667 -75.5 -120s-71.333 -59.166 -117 -77.499s-96.5 -27.5 -152.5 -27.5zM418.001 23.001c50.667 0 96.834 8.33301 138.501 25s77.167 40.167 106.5 70.5
s52.166 66.833 68.499 109.5s24.5 90 24.5 142s-8.16699 99.333 -24.5 142s-39.166 79.167 -68.499 109.5s-64.833 53.833 -106.5 70.5s-87.834 25 -138.501 25s-96.834 -8.33301 -138.501 -25s-77.167 -40.167 -106.5 -70.5s-52.166 -66.833 -68.499 -109.5
s-24.5 -90 -24.5 -142s8.16699 -99.333 24.5 -142s39.166 -79.167 68.499 -109.5s64.833 -53.833 106.5 -70.5s87.834 -25 138.501 -25z" />
    <glyph glyph-name="ordfeminine" unicode="&#xaa;" horiz-adv-x="352" 
d="M135 348c-28 0 -50.168 9 -66.501 27s-24.5 41.667 -24.5 71c0 32 11 58.333 33 79s54.333 33.667 97 39l82 9v47c0 32 -6.83301 55.167 -20.5 69.5s-38.5 21.5 -74.5 21.5c-7.33301 0 -17.166 -0.5 -29.499 -1.5s-30.5 -3.83301 -54.5 -8.5l-5 34
c24.667 4 45.5 6.83301 62.5 8.5s30.5 2.5 40.5 2.5c40 0 69.167 -9.83301 87.5 -29.5s27.5 -51.167 27.5 -94.5v-270h-27l-3 47h-4c-28 -18 -51 -31 -69 -39s-35.333 -12 -52 -12zM138.999 380c15.333 0 31.5 3.33398 48.5 10.001s39.833 18.667 68.5 36v113l-44 -2
c-52 -4.66699 -88 -13.334 -108 -26.001s-30 -33 -30 -61c0 -46.667 21.667 -70 65 -70z" />
    <glyph glyph-name="guillemotleft" unicode="&#xab;" horiz-adv-x="394" 
d="M40 268v4l94 238h36l-94 -238v-4l94 -238h-36zM221 268v4l94 238h36l-94 -238v-4l94 -238h-36z" />
    <glyph glyph-name="logicalnot" unicode="&#xac;" horiz-adv-x="688" 
d="M59 419h564v-296h-34v262h-530v34z" />
    <glyph glyph-name="uni00AD" unicode="&#xad;" horiz-adv-x="302" 
d="M60 297h182v-34h-182v34z" />
    <glyph glyph-name="registered" unicode="&#xae;" horiz-adv-x="705" 
d="M239 622c18 2.66699 34.665 4.66602 49.998 5.99902s29.333 2 42 2c54.667 0 94.834 -8.83301 120.501 -26.5s38.5 -45.5 38.5 -83.5c0 -26 -6.66699 -47.667 -20 -65s-32.666 -29.666 -57.999 -36.999l-1 -4l93 -138h-42l-89 133l-100 2v-135h-34v346zM335.998 442.999
c39.333 0 69.166 6.33301 89.499 19s30.5 32 30.5 58c0 27.333 -9.5 46.833 -28.5 58.5s-49.833 17.5 -92.5 17.5c-9.33301 0 -18.666 -0.5 -27.999 -1.5l-34 -3.5v-146c7.33301 -0.666992 16.833 -1.16699 28.5 -1.5s23.167 -0.5 34.5 -0.5zM351.998 137.999
c-44 0 -84.833 7.66699 -122.5 23s-70.167 36.666 -97.5 63.999s-48.666 59.833 -63.999 97.5s-23 78.5 -23 122.5s7.66699 84.833 23 122.5s36.666 70.334 63.999 98.001s59.833 49.167 97.5 64.5s78.5 23 122.5 23s84.833 -7.66699 122.5 -23s70.334 -36.833 98.001 -64.5
s49.167 -60.334 64.5 -98.001s23 -78.5 23 -122.5s-7.66699 -84.833 -23 -122.5s-36.833 -70.167 -64.5 -97.5s-60.334 -48.666 -98.001 -63.999s-78.5 -23 -122.5 -23zM351.998 171.999c39.333 0 75.833 6.83301 109.5 20.5s62.667 32.667 87 57s43.333 53.166 57 86.499
s20.5 69.666 20.5 108.999s-6.83301 75.833 -20.5 109.5s-32.667 62.667 -57 87s-53.333 43.333 -87 57s-70.167 20.5 -109.5 20.5s-75.666 -6.83301 -108.999 -20.5s-62.166 -32.667 -86.499 -57s-43.333 -53.333 -57 -87s-20.5 -70.167 -20.5 -109.5
s6.83301 -75.666 20.5 -108.999s32.667 -62.166 57 -86.499s53.166 -43.333 86.499 -57s69.666 -20.5 108.999 -20.5z" />
    <glyph glyph-name="macron" unicode="&#xaf;" horiz-adv-x="331" 
d="M51 687h229v-34h-229v34z" />
    <glyph glyph-name="degree" unicode="&#xb0;" horiz-adv-x="371" 
d="M186 371c-21.333 0 -40.5 4.66699 -57.5 14s-31.833 22.333 -44.5 39s-22.334 36.667 -29.001 60s-10 48.666 -10 75.999s3.33301 52.666 10 75.999s16.334 43.5 29.001 60.5s27.5 30.167 44.5 39.5s36.167 14 57.5 14c20.667 0 39.667 -4.66699 57 -14
s32.166 -22.5 44.499 -39.5s21.833 -37.167 28.5 -60.5s10 -48.666 10 -75.999s-3.33301 -52.666 -10 -75.999s-16.167 -43.333 -28.5 -60s-27.166 -29.667 -44.499 -39s-36.333 -14 -57 -14zM186 405c36 0 63.335 14.333 82.002 43s28 66 28 112s-9.33301 83.5 -28 112.5
s-46 43.5 -82 43.5c-18 0 -33.833 -3.83301 -47.5 -11.5s-25.334 -18.5 -35.001 -32.5s-16.834 -30.5 -21.501 -49.5s-7 -39.833 -7 -62.5c0 -46 9.5 -83.333 28.5 -112s46.5 -43 82.5 -43z" />
    <glyph glyph-name="plusminus" unicode="&#xb1;" horiz-adv-x="496" 
d="M66 447h165v175h34v-175h165v-34h-165v-175h-34v175h-165v34zM66 147h364v-34h-364v34z" />
    <glyph glyph-name="twosuperior" unicode="&#xb2;" horiz-adv-x="316" 
d="M37 366c0 44 9 82.834 27 116.501s47 67.167 87 100.5c32 26 54.833 50 68.5 72s20.5 45.667 20.5 71c0 30 -7.66699 53 -23 69s-37.666 24 -66.999 24c-10.667 0 -23.167 -1.5 -37.5 -4.5s-32.5 -8.16699 -54.5 -15.5l-9 33c20.667 7.33301 39.167 12.666 55.5 15.999
s31.5 5 45.5 5c82.667 0 124 -42.333 124 -127c0 -16 -1.83301 -30.833 -5.5 -44.5s-9.5 -27.167 -17.5 -40.5s-18.5 -26.833 -31.5 -40.5s-28.5 -28.167 -46.5 -43.5c-36.667 -31.333 -62.834 -61.5 -78.501 -90.5s-23.5 -62.5 -23.5 -100.5v-32h204v-34h-238v66z" />
    <glyph glyph-name="threesuperior" unicode="&#xb3;" horiz-adv-x="302" 
d="M116 295c-23.333 0 -48.0029 3.66602 -74.0029 10.999v30h11c20 -5.33301 41 -8 63 -8c34.667 0 61.834 9.83301 81.501 29.5s29.5 46.5 29.5 80.5c0 42 -11.667 74 -35 96s-57 33 -101 33h-13v34h14c37.333 0 66.833 10.167 88.5 30.5s32.5 47.833 32.5 82.5
c0 34 -8.16699 60.167 -24.5 78.5s-40.166 27.5 -71.499 27.5c-17.333 0 -37.333 -3 -60 -9h-11l-9 30c16 4 30.833 7.16699 44.5 9.5s26.167 3.5 37.5 3.5c40 0 71.333 -12.333 94 -37s34 -59 34 -103c0 -32 -8.16699 -59.167 -24.5 -81.5s-39.166 -38.166 -68.499 -47.499
c71.333 -20 107 -69 107 -147c0 -44.667 -12.833 -79.667 -38.5 -105s-61.167 -38 -106.5 -38z" />
    <glyph glyph-name="acute" unicode="&#xb4;" horiz-adv-x="196" 
d="M46 616l75 182h36l-87 -188z" />
    <glyph glyph-name="mu" unicode="&#xb5;" horiz-adv-x="473" 
d="M75 540h34v-409c0 -71.333 29 -107 87 -107c24.667 0 49.667 5.33301 75 16s55 27.667 89 51v449h34v-540h-30l-4 58h-4c-32 -23.333 -61 -40.5 -87 -51.5s-50.333 -16.5 -73 -16.5c-40 0 -69 8.66699 -87 26v-236h-34v760z" />
    <glyph glyph-name="paragraph" unicode="&#xb6;" horiz-adv-x="446" 
d="M259 0l-39.0029 -0.00390625v266c-2 -0.666992 -6.16699 -1 -12.5 -1h-14.5c-23.333 0 -44.666 4.16699 -63.999 12.5s-35.833 21.833 -49.5 40.5s-24.167 43.334 -31.5 74.001s-11 68.334 -11 113.001s4 82.334 12 113.001s19.333 55.334 34 74.001
s32.334 32.167 53.001 40.5s43.334 12.5 68.001 12.5c11.333 0 20.5 -0.833008 27.5 -2.5s16.167 -4.16699 27.5 -7.5v-735zM361.997 -0.00390625h-43v735h43v-735z" />
    <glyph glyph-name="periodcentered" unicode="&#xb7;" horiz-adv-x="179" 
d="M89 340c-8 0 -14.833 2.33105 -20.5 6.99805s-8.5 12.334 -8.5 23.001s2.83301 18.334 8.5 23.001s12.5 7 20.5 7s15 -2.5 21 -7.5s9 -12.5 9 -22.5s-3 -17.5 -9 -22.5s-13 -7.5 -21 -7.5z" />
    <glyph glyph-name="cedilla" unicode="&#xb8;" horiz-adv-x="257" 
d="M84 -220c-10 0 -20.001 0.833008 -30.001 2.5s-19.667 4.16699 -29 7.5v36c18.667 -8 38.334 -12 59.001 -12c46.667 0 70 25 70 75c0 17.333 -3.16699 36.333 -9.5 57s-14.833 40 -25.5 58h37c10.667 -19.333 18.667 -39.333 24 -60s8 -39 8 -55
c0 -72.667 -34.667 -109 -104 -109z" />
    <glyph glyph-name="onesuperior" unicode="&#xb9;" horiz-adv-x="238" 
d="M134 794l-90 -71h-7l-16 19v7l127 97h20v-546h-34v494z" />
    <glyph glyph-name="ordmasculine" unicode="&#xba;" horiz-adv-x="382" 
d="M192 376c14.667 0 28.834 2.83301 42.501 8.5s25.667 15.167 36 28.5s18.666 30.833 24.999 52.5s9.5 48.5 9.5 80.5s-3.16699 58.833 -9.5 80.5s-14.666 39.334 -24.999 53.001s-22.333 23.334 -36 29.001s-27.834 8.5 -42.501 8.5c-15.333 0 -30 -2.83301 -44 -8.5
s-26.167 -15.334 -36.5 -29.001s-18.5 -31.334 -24.5 -53.001s-9 -48.5 -9 -80.5s3 -58.833 9 -80.5s14.167 -39.167 24.5 -52.5s22.5 -22.833 36.5 -28.5s28.667 -8.5 44 -8.5zM192 345c-45.333 0 -81 16.5 -107 49.5s-39 83.5 -39 151.5s13 118.5 39 151.5
s61.667 49.5 107 49.5c44.667 0 79.667 -16.5 105 -49.5s38 -83.5 38 -151.5s-12.667 -118.5 -38 -151.5s-60.333 -49.5 -105 -49.5z" />
    <glyph glyph-name="guillemotright" unicode="&#xbb;" horiz-adv-x="394" 
d="M79 30h-36l94 238v4l-94 238h36l94 -238v-4zM260 30h-36l94 238v4l-94 238h36l94 -238v-4z" />
    <glyph glyph-name="onequarter" unicode="&#xbc;" horiz-adv-x="709" 
d="M592 140h-202l-17 19l182 395h9l20 -9v-8l-170 -365h178l8 221h26v-221h55v-32h-55v-140h-34v140zM442 740h35l-260 -740h-35zM137 694l-90 -71h-7l-16 19v7l127 97h20v-546h-34v494z" />
    <glyph glyph-name="onehalf" unicode="&#xbd;" horiz-adv-x="751" 
d="M442 740h35l-260 -740h-35zM467 65c0 21.333 2 41.167 6 59.5s10.5 36 19.5 53s20.667 34 35 51s32.166 34.833 53.499 53.5c17.333 14.667 31.833 28 43.5 40s20.834 23.333 27.501 34s11.334 21.334 14.001 32.001s4 22.334 4 35.001c0 30 -7.5 53.333 -22.5 70
s-36.5 25 -64.5 25c-14.667 0 -30.834 -1.83301 -48.501 -5.5s-33.167 -8.5 -46.5 -14.5l-9 33c40.667 14 74.667 21 102 21c40 0 70.5 -10.833 91.5 -32.5s31.5 -53.167 31.5 -94.5c0 -16 -1.5 -30.333 -4.5 -43s-8.16699 -25.167 -15.5 -37.5s-17.5 -25.5 -30.5 -39.5
s-29.833 -30.333 -50.5 -49c-20 -18 -36.5 -34.5 -49.5 -49.5s-23.333 -29.833 -31 -44.5s-13.167 -29.834 -16.5 -45.501s-5 -32.834 -5 -51.501v-32h204v-34h-238v66zM137 694.001l-90 -71h-7l-16 19v7l127 97h20v-546h-34v494z" />
    <glyph glyph-name="threequarters" unicode="&#xbe;" horiz-adv-x="799" 
d="M126 195c-23.333 0 -48.0029 3.66602 -74.0029 10.999v30h11c20 -5.33301 41 -8 63 -8c34.667 0 61.834 9.83301 81.501 29.5s29.5 46.5 29.5 80.5c0 42 -11.667 74 -35 96s-57 33 -101 33h-13v34h14c37.333 0 66.833 10.167 88.5 30.5s32.5 47.833 32.5 82.5
c0 34 -8.16699 60.167 -24.5 78.5s-40.166 27.5 -71.499 27.5c-17.333 0 -37.333 -3 -60 -9h-11l-9 30c16 4 30.833 7.16699 44.5 9.5s26.167 3.5 37.5 3.5c40 0 71.333 -12.333 94 -37s34 -59 34 -103c0 -32 -8.16699 -59.167 -24.5 -81.5s-39.166 -38.166 -68.499 -47.499
c71.333 -20 107 -69 107 -147c0 -44.667 -12.833 -79.667 -38.5 -105s-61.167 -38 -106.5 -38zM505.997 739.999h35l-260 -740h-35zM682.997 139.999h-202l-17 19l182 395h9l20 -9v-8l-170 -365h178l8 221h26v-221h55v-32h-55v-140h-34v140z" />
    <glyph glyph-name="questiondown" unicode="&#xbf;" horiz-adv-x="377" 
d="M259 373l0.999023 -195c-19.333 -5.33301 -40.5 -11.833 -63.5 -19.5s-44.5 -18.5 -64.5 -32.5s-36.667 -32 -50 -54s-20 -49.333 -20 -82c0 -31.333 4.66699 -57.333 14 -78s21.5 -37.167 36.5 -49.5s31.833 -21.166 50.5 -26.499s37 -8 55 -8
c20.667 0 41.334 2.5 62.001 7.5s41 11.167 61 18.5l13 -30c-20 -8.66699 -41.833 -15.834 -65.5 -21.501s-47.5 -8.5 -71.5 -8.5c-22 0 -44.333 3 -67 9s-43 16.5 -61 31.5s-32.667 35.167 -44 60.5s-17 57 -17 95c0 36.667 6.5 67.5 19.5 92.5s29.333 45.5 49 61.5
s41 28.833 64 38.5s44.833 17.5 65.5 23.5l-1 167v20h34v-20zM240.999 544c19.333 0 29 -9.66602 29 -28.999c0 -20 -9.66699 -30 -29 -30c-9.33301 0 -16.666 2.66699 -21.999 8s-8 12.666 -8 21.999s2.66699 16.5 8 21.5s12.666 7.5 21.999 7.5z" />
    <glyph glyph-name="Agrave" unicode="&#xc0;" horiz-adv-x="519" 
d="M10 6l229 734h41l229 -734v-6h-33l-78 249h-277l-78 -249h-33v6zM387 283l-94 303l-33 112h-2l-32 -112l-95 -303h256zM239 784l-85 126h38l79 -112z" />
    <glyph glyph-name="Aacute" unicode="&#xc1;" horiz-adv-x="519" 
d="M10 6l229 734h41l229 -734v-6h-33l-78 249h-277l-78 -249h-33v6zM387 283l-94 303l-33 112h-2l-32 -112l-95 -303h256zM240 787l79 123h38l-85 -126z" />
    <glyph glyph-name="Acircumflex" unicode="&#xc2;" horiz-adv-x="519" 
d="M10 6l229 734h41l229 -734v-6h-33l-78 249h-277l-78 -249h-33v6zM387 283l-94 303l-33 112h-2l-32 -112l-95 -303h256zM138 860l121 72l121 -72v-41l-121 72l-121 -72v41z" />
    <glyph glyph-name="Atilde" unicode="&#xc3;" horiz-adv-x="519" 
d="M10 6l229 734h41l229 -734v-6h-33l-78 249h-277l-78 -249h-33v6zM387 283l-94 303l-33 112h-2l-32 -112l-95 -303h256zM118 850c9.33301 11.333 21.832 22.332 37.499 32.999s31.167 16 46.5 16c12.667 0 24 -2.16699 34 -6.5s19.5 -9.33301 28.5 -15s18 -10.667 27 -15
s18.833 -6.5 29.5 -6.5s20.5 3.66699 29.5 11s16.167 17 21.5 29l28 -20c-6.66699 -15.333 -17.667 -28.166 -33 -38.499s-30.666 -15.5 -45.999 -15.5c-12.667 0 -24 2.16699 -34 6.5s-19.5 9.33301 -28.5 15s-18 10.667 -27 15s-18.833 6.5 -29.5 6.5
c-11.333 0 -22.333 -4 -33 -12s-19.667 -17 -27 -27z" />
    <glyph glyph-name="Adieresis" unicode="&#xc4;" horiz-adv-x="519" 
d="M10 6l229 734h41l229 -734v-6h-33l-78 249h-277l-78 -249h-33v6zM387 283l-94 303l-33 112h-2l-32 -112l-95 -303h256zM176 814c-8 0 -14.833 2.33203 -20.5 6.99902s-8.5 12 -8.5 22c0 10.667 2.83301 18.334 8.5 23.001s12.5 7 20.5 7s15 -2.5 21 -7.5s9 -12.5 9 -22.5
s-3 -17.333 -9 -22s-13 -7 -21 -7zM343 813.999c-8 0 -15 2.33203 -21 6.99902s-9 12 -9 22c0 10.667 3 18.334 9 23.001s13 7 21 7c7.33301 0 14.166 -2.5 20.499 -7.5s9.5 -12.5 9.5 -22.5s-3.16699 -17.333 -9.5 -22s-13.166 -7 -20.499 -7z" />
    <glyph glyph-name="Aring" unicode="&#xc5;" horiz-adv-x="519" 
d="M10 6l220 704c-19.333 6.66699 -34 18.667 -44 36s-15 37.333 -15 60c0 28 7.33301 51.667 22 71s36.667 29 66 29s51.5 -9.66699 66.5 -29s22.5 -43 22.5 -71c0 -22.667 -5 -42.5 -15 -59.5s-24.667 -28.833 -44 -35.5l220 -705v-6h-33l-78 249h-277l-78 -249h-33v6z
M387 283l-94 303l-33 112h-2l-32 -112l-95 -303h256zM259 740c17.333 0 30.834 6.33301 40.501 19s14.5 28.334 14.5 47.001s-4.66699 34.334 -14 47.001s-23 19 -41 19s-31.5 -6.33301 -40.5 -19s-13.5 -28.334 -13.5 -47.001s4.66699 -34.334 14 -47.001
s22.666 -19 39.999 -19z" />
    <glyph glyph-name="AE" unicode="&#xc6;" horiz-adv-x="722" 
d="M8 6l249 734h416v-34h-304l14 -313h257v-34h-256l15 -325h283v-34h-317l-10 249h-229l-85 -249h-33v6zM137 283h216l-17 422h-55z" />
    <glyph glyph-name="Ccedilla" unicode="&#xc7;" horiz-adv-x="482" 
d="M262 -220c-10 0 -19.999 0.834961 -29.999 2.50195s-19.667 4.16699 -29 7.5v36c18.667 -8 38.334 -12 59.001 -12c46.667 0 70 25 70 75c0 16 -2.66699 33.167 -8 51.5s-12.333 35.833 -21 52.5c-89.333 9.33301 -154 44 -194 104s-60 150.667 -60 272
c0 68.667 5.5 127 16.5 175s28.667 87.167 53 117.5s55.666 52.333 93.999 66s84.833 20.5 139.5 20.5c13.333 0 28.166 -0.5 44.499 -1.5s33.5 -2.83301 51.5 -5.5v-34c-9.33301 2 -22.5 3.66699 -39.5 5s-34.5 2 -52.5 2c-49.333 0 -91.166 -6.16699 -125.499 -18.5
s-62.333 -32.333 -84 -60s-37.334 -63.334 -47.001 -107.001s-14.5 -96.834 -14.5 -159.501c0 -120 21.167 -207.5 63.5 -262.5s109.833 -82.5 202.5 -82.5c4 0 9.83301 0.166992 17.5 0.5s16 0.833008 25 1.5l28 2c9.66699 0.666992 18.5 1.66699 26.5 3v-33
c-15.333 -3.33301 -29.5 -5.5 -42.5 -6.5s-30.167 -1.5 -51.5 -1.5c-2.66699 0 -5 0.166992 -7 0.5s-4 0.5 -6 0.5c16.667 -37.333 25 -71.333 25 -102c0 -72.667 -34.667 -109 -104 -109z" />
    <glyph glyph-name="Egrave" unicode="&#xc8;" horiz-adv-x="487" 
d="M81 740h358v-34h-324v-313h291v-34h-291v-325h333v-34h-367v740zM237 784l-85 126h38l79 -112z" />
    <glyph glyph-name="Eacute" unicode="&#xc9;" horiz-adv-x="487" 
d="M81 740h358v-34h-324v-313h291v-34h-291v-325h333v-34h-367v740zM238 787l79 123h38l-85 -126z" />
    <glyph glyph-name="Ecircumflex" unicode="&#xca;" horiz-adv-x="487" 
d="M81 740h358v-34h-324v-313h291v-34h-291v-325h333v-34h-367v740zM136 860l121 72l121 -72v-41l-121 72l-121 -72v41z" />
    <glyph glyph-name="Edieresis" unicode="&#xcb;" horiz-adv-x="487" 
d="M81 740h358v-34h-324v-313h291v-34h-291v-325h333v-34h-367v740zM174 814c-8 0 -14.833 2.33203 -20.5 6.99902s-8.5 12 -8.5 22c0 10.667 2.83301 18.334 8.5 23.001s12.5 7 20.5 7s15 -2.5 21 -7.5s9 -12.5 9 -22.5s-3 -17.333 -9 -22s-13 -7 -21 -7zM341 813.999
c-8 0 -15 2.33203 -21 6.99902s-9 12 -9 22c0 10.667 3 18.334 9 23.001s13 7 21 7c7.33301 0 14.166 -2.5 20.499 -7.5s9.5 -12.5 9.5 -22.5s-3.16699 -17.333 -9.5 -22s-13.166 -7 -20.499 -7z" />
    <glyph glyph-name="Igrave" unicode="&#xcc;" horiz-adv-x="196" 
d="M81 740h34v-740h-34v740zM81 784l-85 126h38l79 -112z" />
    <glyph glyph-name="Iacute" unicode="&#xcd;" horiz-adv-x="196" 
d="M81 740h34v-740h-34v740zM82 787l79 123h38l-85 -126z" />
    <glyph glyph-name="Icircumflex" unicode="&#xce;" horiz-adv-x="196" 
d="M81 740h34v-740h-34v740zM-20 860l121 72l121 -72v-41l-121 72l-121 -72v41z" />
    <glyph glyph-name="Idieresis" unicode="&#xcf;" horiz-adv-x="196" 
d="M81 740h34v-740h-34v740zM18 814c-8 0 -14.833 2.33203 -20.5 6.99902s-8.5 12 -8.5 22c0 10.667 2.83301 18.334 8.5 23.001s12.5 7 20.5 7s15 -2.5 21 -7.5s9 -12.5 9 -22.5s-3 -17.333 -9 -22s-13 -7 -21 -7zM185 813.999c-8 0 -15 2.33203 -21 6.99902s-9 12 -9 22
c0 10.667 3 18.334 9 23.001s13 7 21 7c7.33301 0 14.166 -2.5 20.499 -7.5s9.5 -12.5 9.5 -22.5s-3.16699 -17.333 -9.5 -22s-13.166 -7 -20.499 -7z" />
    <glyph glyph-name="Eth" unicode="&#xd0;" horiz-adv-x="570" 
d="M0 385h90v347c29.333 6 55.666 10.5 78.999 13.5s45 4.5 65 4.5c97.333 0 169.666 -31.333 216.999 -94s71 -158.334 71 -287.001c0 -133.333 -26.667 -231.166 -80 -293.499s-137 -93.5 -251 -93.5c-17.333 0 -34.166 0.5 -50.499 1.5s-33.166 2.83301 -50.499 5.5v362
h-90v34zM194 17c194.667 0 291.999 117.333 291.999 352c0 118.667 -20.833 206.167 -62.5 262.5s-106.5 84.5 -194.5 84.5c-17.333 0 -34.666 -0.833008 -51.999 -2.5s-35 -4.16699 -53 -7.5v-321h163v-34h-163v-329c13.333 -1.33301 25.833 -2.5 37.5 -3.5
s22.5 -1.5 32.5 -1.5z" />
    <glyph glyph-name="Ntilde" unicode="&#xd1;" horiz-adv-x="640" 
d="M81 740h40l353 -596l47 -85l4 1v680h34v-740h-41l-349 590l-50 90l-4 -1v-679h-34v740zM186 850c9.33301 11.333 21.832 22.332 37.499 32.999s31.167 16 46.5 16c12.667 0 24 -2.16699 34 -6.5s19.5 -9.33301 28.5 -15s18 -10.667 27 -15s18.833 -6.5 29.5 -6.5
s20.5 3.66699 29.5 11s16.167 17 21.5 29l28 -20c-6.66699 -15.333 -17.667 -28.166 -33 -38.499s-30.666 -15.5 -45.999 -15.5c-12.667 0 -24 2.16699 -34 6.5s-19.5 9.33301 -28.5 15s-18 10.667 -27 15s-18.833 6.5 -29.5 6.5c-11.333 0 -22.333 -4 -33 -12
s-19.667 -17 -27 -27z" />
    <glyph glyph-name="Ograve" unicode="&#xd2;" horiz-adv-x="586" 
d="M293 -10c-162.667 0 -244 126.332 -244 378.999c0 128.667 20 224.334 60 287.001s101.333 94 184 94c162.667 0 244 -127 244 -381c0 -252.667 -81.333 -379 -244 -379zM293 23.999c72.667 0 125.834 27.668 159.501 83.001s50.5 142.666 50.5 261.999
c0 118 -17.167 205.333 -51.5 262s-87.166 85 -158.499 85c-72.667 0 -125.834 -27.833 -159.501 -83.5s-50.5 -143.5 -50.5 -263.5s16.667 -207.5 50 -262.5s86.666 -82.5 159.999 -82.5zM273 784l-85 126h38l79 -112z" />
    <glyph glyph-name="Oacute" unicode="&#xd3;" horiz-adv-x="586" 
d="M293 -10c-162.667 0 -244 126.332 -244 378.999c0 128.667 20 224.334 60 287.001s101.333 94 184 94c162.667 0 244 -127 244 -381c0 -252.667 -81.333 -379 -244 -379zM293 23.999c72.667 0 125.834 27.668 159.501 83.001s50.5 142.666 50.5 261.999
c0 118 -17.167 205.333 -51.5 262s-87.166 85 -158.499 85c-72.667 0 -125.834 -27.833 -159.501 -83.5s-50.5 -143.5 -50.5 -263.5s16.667 -207.5 50 -262.5s86.666 -82.5 159.999 -82.5zM274 787l79 123h38l-85 -126z" />
    <glyph glyph-name="Ocircumflex" unicode="&#xd4;" horiz-adv-x="586" 
d="M293 -10c-162.667 0 -244 126.332 -244 378.999c0 128.667 20 224.334 60 287.001s101.333 94 184 94c162.667 0 244 -127 244 -381c0 -252.667 -81.333 -379 -244 -379zM293 23.999c72.667 0 125.834 27.668 159.501 83.001s50.5 142.666 50.5 261.999
c0 118 -17.167 205.333 -51.5 262s-87.166 85 -158.499 85c-72.667 0 -125.834 -27.833 -159.501 -83.5s-50.5 -143.5 -50.5 -263.5s16.667 -207.5 50 -262.5s86.666 -82.5 159.999 -82.5zM172 860l121 72l121 -72v-41l-121 72l-121 -72v41z" />
    <glyph glyph-name="Otilde" unicode="&#xd5;" horiz-adv-x="586" 
d="M293 -10c-162.667 0 -244 126.332 -244 378.999c0 128.667 20 224.334 60 287.001s101.333 94 184 94c162.667 0 244 -127 244 -381c0 -252.667 -81.333 -379 -244 -379zM293 23.999c72.667 0 125.834 27.668 159.501 83.001s50.5 142.666 50.5 261.999
c0 118 -17.167 205.333 -51.5 262s-87.166 85 -158.499 85c-72.667 0 -125.834 -27.833 -159.501 -83.5s-50.5 -143.5 -50.5 -263.5s16.667 -207.5 50 -262.5s86.666 -82.5 159.999 -82.5zM152 850c9.33301 11.333 21.832 22.332 37.499 32.999s31.167 16 46.5 16
c12.667 0 24 -2.16699 34 -6.5s19.5 -9.33301 28.5 -15s18 -10.667 27 -15s18.833 -6.5 29.5 -6.5s20.5 3.66699 29.5 11s16.167 17 21.5 29l28 -20c-6.66699 -15.333 -17.667 -28.166 -33 -38.499s-30.666 -15.5 -45.999 -15.5c-12.667 0 -24 2.16699 -34 6.5
s-19.5 9.33301 -28.5 15s-18 10.667 -27 15s-18.833 6.5 -29.5 6.5c-11.333 0 -22.333 -4 -33 -12s-19.667 -17 -27 -27z" />
    <glyph glyph-name="Odieresis" unicode="&#xd6;" horiz-adv-x="586" 
d="M293 -10c-162.667 0 -244 126.332 -244 378.999c0 128.667 20 224.334 60 287.001s101.333 94 184 94c162.667 0 244 -127 244 -381c0 -252.667 -81.333 -379 -244 -379zM293 23.999c72.667 0 125.834 27.668 159.501 83.001s50.5 142.666 50.5 261.999
c0 118 -17.167 205.333 -51.5 262s-87.166 85 -158.499 85c-72.667 0 -125.834 -27.833 -159.501 -83.5s-50.5 -143.5 -50.5 -263.5s16.667 -207.5 50 -262.5s86.666 -82.5 159.999 -82.5zM210 814c-8 0 -14.833 2.33203 -20.5 6.99902s-8.5 12 -8.5 22
c0 10.667 2.83301 18.334 8.5 23.001s12.5 7 20.5 7s15 -2.5 21 -7.5s9 -12.5 9 -22.5s-3 -17.333 -9 -22s-13 -7 -21 -7zM377 813.999c-8 0 -15 2.33203 -21 6.99902s-9 12 -9 22c0 10.667 3 18.334 9 23.001s13 7 21 7c7.33301 0 14.166 -2.5 20.499 -7.5
s9.5 -12.5 9.5 -22.5s-3.16699 -17.333 -9.5 -22s-13.166 -7 -20.499 -7z" />
    <glyph glyph-name="multiply" unicode="&#xd7;" horiz-adv-x="426" 
d="M56 238l133 133l-133 133l24 24l133 -133l133 133l24 -24l-133 -133l133 -133l-24 -24l-133 133l-133 -133z" />
    <glyph glyph-name="Oslash" unicode="&#xd8;" horiz-adv-x="599" 
d="M101 110c-30 62 -45 148.331 -45 258.998c0 128.667 20 224.334 60 287.001s101.333 94 184 94c79.333 0 139.333 -30.333 180 -91l56 81h39l-77 -112c30.667 -63.333 46 -149.666 46 -258.999c0 -252.667 -81.333 -379 -244 -379c-80 0 -140.333 29.667 -181 89l-54 -79
h-40zM90 368.998c0 -49.333 2.66895 -92.667 8.00195 -130s13.666 -70 24.999 -98l336 488c-34 58 -87 87 -159 87c-72.667 0 -125.834 -27.833 -159.501 -83.5s-50.5 -143.5 -50.5 -263.5zM300.002 23.9971c72.667 0 125.833 27.667 159.5 83s50.5 142.666 50.5 261.999
c0 94.667 -11.667 170.334 -35 227.001l-336 -488c33.333 -56 87 -84 161 -84z" />
    <glyph glyph-name="Ugrave" unicode="&#xd9;" horiz-adv-x="618" 
d="M309 -10c-41.333 0 -76.668 5.83301 -106.001 17.5s-53.5 29.667 -72.5 54s-33 55.5 -42 93.5s-13.5 83.667 -13.5 137v448h34v-450c0 -92.667 16 -160.167 48 -202.5s82.667 -63.5 152 -63.5s120 21.167 152 63.5s48 109.833 48 202.5v450h34v-448
c0 -53.333 -4.5 -99 -13.5 -137s-23 -69.167 -42 -93.5s-43.167 -42.333 -72.5 -54s-64.666 -17.5 -105.999 -17.5zM288.998 784l-85 126h38l79 -112z" />
    <glyph glyph-name="Uacute" unicode="&#xda;" horiz-adv-x="618" 
d="M309 -10c-41.333 0 -76.668 5.83301 -106.001 17.5s-53.5 29.667 -72.5 54s-33 55.5 -42 93.5s-13.5 83.667 -13.5 137v448h34v-450c0 -92.667 16 -160.167 48 -202.5s82.667 -63.5 152 -63.5s120 21.167 152 63.5s48 109.833 48 202.5v450h34v-448
c0 -53.333 -4.5 -99 -13.5 -137s-23 -69.167 -42 -93.5s-43.167 -42.333 -72.5 -54s-64.666 -17.5 -105.999 -17.5zM289.998 787l79 123h38l-85 -126z" />
    <glyph glyph-name="Ucircumflex" unicode="&#xdb;" horiz-adv-x="618" 
d="M309 -10c-41.333 0 -76.668 5.83301 -106.001 17.5s-53.5 29.667 -72.5 54s-33 55.5 -42 93.5s-13.5 83.667 -13.5 137v448h34v-450c0 -92.667 16 -160.167 48 -202.5s82.667 -63.5 152 -63.5s120 21.167 152 63.5s48 109.833 48 202.5v450h34v-448
c0 -53.333 -4.5 -99 -13.5 -137s-23 -69.167 -42 -93.5s-43.167 -42.333 -72.5 -54s-64.666 -17.5 -105.999 -17.5zM187.998 860l121 72l121 -72v-41l-121 72l-121 -72v41z" />
    <glyph glyph-name="Udieresis" unicode="&#xdc;" horiz-adv-x="618" 
d="M309 -10c-41.333 0 -76.668 5.83301 -106.001 17.5s-53.5 29.667 -72.5 54s-33 55.5 -42 93.5s-13.5 83.667 -13.5 137v448h34v-450c0 -92.667 16 -160.167 48 -202.5s82.667 -63.5 152 -63.5s120 21.167 152 63.5s48 109.833 48 202.5v450h34v-448
c0 -53.333 -4.5 -99 -13.5 -137s-23 -69.167 -42 -93.5s-43.167 -42.333 -72.5 -54s-64.666 -17.5 -105.999 -17.5zM225.998 814c-8 0 -14.833 2.33203 -20.5 6.99902s-8.5 12 -8.5 22c0 10.667 2.83301 18.334 8.5 23.001s12.5 7 20.5 7s15 -2.5 21 -7.5s9 -12.5 9 -22.5
s-3 -17.333 -9 -22s-13 -7 -21 -7zM392.998 813.999c-8 0 -15 2.33203 -21 6.99902s-9 12 -9 22c0 10.667 3 18.334 9 23.001s13 7 21 7c7.33301 0 14.166 -2.5 20.499 -7.5s9.5 -12.5 9.5 -22.5s-3.16699 -17.333 -9.5 -22s-13.166 -7 -20.499 -7z" />
    <glyph glyph-name="Yacute" unicode="&#xdd;" horiz-adv-x="493" 
d="M230 246l-226 494h36l178 -388l27 -69h2l27 69l178 388h36l-224 -490v-250h-34v246zM231 787l79 123h38l-85 -126z" />
    <glyph glyph-name="Thorn" unicode="&#xde;" horiz-adv-x="501" 
d="M81 740h34.002v-129c19.333 3.33301 37.666 6 54.999 8s34.333 3 51 3c83.333 0 144.666 -20 183.999 -60s59 -103 59 -189c0 -87.333 -20.667 -151 -62 -191s-107 -60 -197 -60c-13.333 0 -27.5 0.333008 -42.5 1s-30.833 2 -47.5 4v-127h-34v740zM216.002 156
c73.333 0 127.333 17.5 162 52.5s52 89.833 52 164.5c0 74 -16.5 128.333 -49.5 163s-84.167 52 -153.5 52c-16 0 -33.333 -1 -52 -3s-38.667 -4.66699 -60 -8v-414c17.333 -2 34.5 -3.66699 51.5 -5s33.5 -2 49.5 -2z" />
    <glyph glyph-name="germandbls" unicode="&#xdf;" horiz-adv-x="479" 
d="M69 619c0 66 13.5029 114.493 40.5029 145.493s69.5 46.5 127.5 46.5c57.333 0 99.666 -15.5 126.999 -46.5s41 -79.5 41 -145.5v-100h-71c-35.333 0 -63.333 -9.66699 -84 -29s-31 -45.666 -31 -78.999c0 -21.333 3 -38.5 9 -51.5s14 -23.667 24 -32s21.5 -15 34.5 -20
s26.5 -9.83301 40.5 -14.5c22 -7.33301 40.667 -15.666 56 -24.999s27.833 -20 37.5 -32s16.5 -26 20.5 -42s6 -34.667 6 -56c0 -22 -3.5 -42.167 -10.5 -60.5s-16.833 -34.166 -29.5 -47.499s-27.5 -23.666 -44.5 -30.999s-35.833 -11 -56.5 -11
c-16 0 -33.333 1.33301 -52 4s-43.667 7.66699 -75 15v34c21.333 -6 42.5 -10.667 63.5 -14s40.5 -5 58.5 -5c34.667 0 62 10.333 82 31s30 49 30 85c0 32.667 -7.66699 58.667 -23 78s-40 34 -74 44c-15.333 4.66699 -30.833 9.66699 -46.5 15s-29.834 13.333 -42.501 24
s-22.834 24.834 -30.501 42.501s-11.5 40.834 -11.5 69.501c0 43.333 13.333 77.833 40 103.5s62.334 38.5 107.001 38.5h39v66c0 57.333 -10.167 98 -30.5 122s-54.833 36 -103.5 36c-24.667 0 -45.5 -2.83301 -62.5 -8.5s-30.833 -14.667 -41.5 -27
s-18.334 -28.666 -23.001 -48.999s-7 -44.833 -7 -73.5v-619h-34v619z" />
    <glyph glyph-name="agrave" unicode="&#xe0;" horiz-adv-x="416" 
d="M153 -5c-38 0 -67.335 11.498 -88.002 34.498s-31 55.5 -31 97.5c0 97.333 61.667 151 185 161l98 8v84c0 46.667 -9.66699 80.834 -29 102.501s-50 32.5 -92 32.5c-16.667 0 -35.667 -1.66699 -57 -5s-42.333 -7.66602 -63 -12.999l-6 34c23.333 5.33301 47 9.5 71 12.5
s44.667 4.5 62 4.5c98.667 0 148 -56 148 -168v-380h-29l-6 65h-4l-35.5 -24.5c-12.333 -8.33301 -25.166 -15.833 -38.499 -22.5s-27.166 -12.167 -41.499 -16.5s-28.833 -6.5 -43.5 -6.5zM160.998 29.998c14 0 28.332 2.83301 42.999 8.5s28.834 12.334 42.501 20.001
s26.667 15.667 39 24s22.833 15.166 31.5 20.499v160l-92 -7c-56 -4 -95.833 -16 -119.5 -36s-35.5 -50 -35.5 -90c0 -66.667 30.333 -100 91 -100zM210.997 609.998l-87 188h36l74 -178z" />
    <glyph glyph-name="aacute" unicode="&#xe1;" horiz-adv-x="416" 
d="M153 -5c-38 0 -67.335 11.498 -88.002 34.498s-31 55.5 -31 97.5c0 97.333 61.667 151 185 161l98 8v84c0 46.667 -9.66699 80.834 -29 102.501s-50 32.5 -92 32.5c-16.667 0 -35.667 -1.66699 -57 -5s-42.333 -7.66602 -63 -12.999l-6 34c23.333 5.33301 47 9.5 71 12.5
s44.667 4.5 62 4.5c98.667 0 148 -56 148 -168v-380h-29l-6 65h-4l-35.5 -24.5c-12.333 -8.33301 -25.166 -15.833 -38.499 -22.5s-27.166 -12.167 -41.499 -16.5s-28.833 -6.5 -43.5 -6.5zM160.998 29.998c14 0 28.332 2.83301 42.999 8.5s28.834 12.334 42.501 20.001
s26.667 15.667 39 24s22.833 15.166 31.5 20.499v160l-92 -7c-56 -4 -95.833 -16 -119.5 -36s-35.5 -50 -35.5 -90c0 -66.667 30.333 -100 91 -100zM201.997 615.998l75 182h36l-87 -188z" />
    <glyph glyph-name="acircumflex" unicode="&#xe2;" horiz-adv-x="416" 
d="M153 -5c-38 0 -67.335 11.498 -88.002 34.498s-31 55.5 -31 97.5c0 97.333 61.667 151 185 161l98 8v84c0 46.667 -9.66699 80.834 -29 102.501s-50 32.5 -92 32.5c-16.667 0 -35.667 -1.66699 -57 -5s-42.333 -7.66602 -63 -12.999l-6 34c23.333 5.33301 47 9.5 71 12.5
s44.667 4.5 62 4.5c98.667 0 148 -56 148 -168v-380h-29l-6 65h-4l-35.5 -24.5c-12.333 -8.33301 -25.166 -15.833 -38.499 -22.5s-27.166 -12.167 -41.499 -16.5s-28.833 -6.5 -43.5 -6.5zM160.998 29.998c14 0 28.332 2.83301 42.999 8.5s28.834 12.334 42.501 20.001
s26.667 15.667 39 24s22.833 15.166 31.5 20.499v160l-92 -7c-56 -4 -95.833 -16 -119.5 -36s-35.5 -50 -35.5 -90c0 -66.667 30.333 -100 91 -100zM91.9971 681.998l121 72l121 -72v-41l-121 72l-121 -72v41z" />
    <glyph glyph-name="atilde" unicode="&#xe3;" horiz-adv-x="416" 
d="M153 -5c-38 0 -67.335 11.498 -88.002 34.498s-31 55.5 -31 97.5c0 97.333 61.667 151 185 161l98 8v84c0 46.667 -9.66699 80.834 -29 102.501s-50 32.5 -92 32.5c-16.667 0 -35.667 -1.66699 -57 -5s-42.333 -7.66602 -63 -12.999l-6 34c23.333 5.33301 47 9.5 71 12.5
s44.667 4.5 62 4.5c98.667 0 148 -56 148 -168v-380h-29l-6 65h-4l-35.5 -24.5c-12.333 -8.33301 -25.166 -15.833 -38.499 -22.5s-27.166 -12.167 -41.499 -16.5s-28.833 -6.5 -43.5 -6.5zM160.998 29.998c14 0 28.332 2.83301 42.999 8.5s28.834 12.334 42.501 20.001
s26.667 15.667 39 24s22.833 15.166 31.5 20.499v160l-92 -7c-56 -4 -95.833 -16 -119.5 -36s-35.5 -50 -35.5 -90c0 -66.667 30.333 -100 91 -100zM69.9971 659.998c9.33301 11.333 21.832 22.332 37.499 32.999s31.167 16 46.5 16c12.667 0 24 -2.16699 34 -6.5
s19.5 -9.33301 28.5 -15s18 -10.667 27 -15s18.833 -6.5 29.5 -6.5s20.5 3.66699 29.5 11s16.167 17 21.5 29l28 -20c-6.66699 -15.333 -17.667 -28.166 -33 -38.499s-30.666 -15.5 -45.999 -15.5c-12.667 0 -24 2.16699 -34 6.5s-19.5 9.33301 -28.5 15s-18 10.667 -27 15
s-18.833 6.5 -29.5 6.5c-11.333 0 -22.333 -4 -33 -12s-19.667 -17 -27 -27z" />
    <glyph glyph-name="adieresis" unicode="&#xe4;" horiz-adv-x="416" 
d="M153 -5c-38 0 -67.335 11.498 -88.002 34.498s-31 55.5 -31 97.5c0 97.333 61.667 151 185 161l98 8v84c0 46.667 -9.66699 80.834 -29 102.501s-50 32.5 -92 32.5c-16.667 0 -35.667 -1.66699 -57 -5s-42.333 -7.66602 -63 -12.999l-6 34c23.333 5.33301 47 9.5 71 12.5
s44.667 4.5 62 4.5c98.667 0 148 -56 148 -168v-380h-29l-6 65h-4l-35.5 -24.5c-12.333 -8.33301 -25.166 -15.833 -38.499 -22.5s-27.166 -12.167 -41.499 -16.5s-28.833 -6.5 -43.5 -6.5zM160.998 29.998c14 0 28.332 2.83301 42.999 8.5s28.834 12.334 42.501 20.001
s26.667 15.667 39 24s22.833 15.166 31.5 20.499v160l-92 -7c-56 -4 -95.833 -16 -119.5 -36s-35.5 -50 -35.5 -90c0 -66.667 30.333 -100 91 -100zM132.997 635.998c-8 0 -14.667 2.16699 -20 6.5s-8 11.166 -8 20.499s2.66699 16.166 8 20.499s12 6.5 20 6.5
c7.33301 0 13.666 -2.16699 18.999 -6.5s8 -11.166 8 -20.499s-2.66699 -16.166 -8 -20.499s-11.666 -6.5 -18.999 -6.5zM294.997 635.998c-8 0 -14.667 2.16699 -20 6.5s-8 11.166 -8 20.499s2.66699 16.166 8 20.499s12 6.5 20 6.5c7.33301 0 13.666 -2.16699 18.999 -6.5
s8 -11.166 8 -20.499s-2.66699 -16.166 -8 -20.499s-11.666 -6.5 -18.999 -6.5z" />
    <glyph glyph-name="aring" unicode="&#xe5;" horiz-adv-x="416" 
d="M153 -5c-38 0 -67.335 11.498 -88.002 34.498s-31 55.5 -31 97.5c0 97.333 61.667 151 185 161l98 8v84c0 46.667 -9.66699 80.834 -29 102.501s-50 32.5 -92 32.5c-16.667 0 -35.667 -1.66699 -57 -5s-42.333 -7.66602 -63 -12.999l-6 34c23.333 5.33301 47 9.5 71 12.5
s44.667 4.5 62 4.5c98.667 0 148 -56 148 -168v-380h-29l-6 65h-4l-35.5 -24.5c-12.333 -8.33301 -25.166 -15.833 -38.499 -22.5s-27.166 -12.167 -41.499 -16.5s-28.833 -6.5 -43.5 -6.5zM160.998 29.998c14 0 28.332 2.83301 42.999 8.5s28.834 12.334 42.501 20.001
s26.667 15.667 39 24s22.833 15.166 31.5 20.499v160l-92 -7c-56 -4 -95.833 -16 -119.5 -36s-35.5 -50 -35.5 -90c0 -66.667 30.333 -100 91 -100zM213.997 617.998c-28.667 0 -50.5 9.66699 -65.5 29s-22.5 43 -22.5 71s7.33301 51.667 22 71s36.667 29 66 29
s51.5 -9.66699 66.5 -29s22.5 -43 22.5 -71s-7.66699 -51.667 -23 -71s-37.333 -29 -66 -29zM213.997 651.998c17.333 0 30.834 6.33301 40.501 19s14.5 28.334 14.5 47.001s-4.66699 34.334 -14 47.001s-23 19 -41 19s-31.5 -6.33301 -40.5 -19
s-13.5 -28.334 -13.5 -47.001s4.66699 -34.334 14 -47.001s22.666 -19 39.999 -19z" />
    <glyph glyph-name="ae" unicode="&#xe6;" horiz-adv-x="697" 
d="M512 -9c-36.667 0 -68.6709 8.33105 -96.0039 24.998s-48.666 40 -63.999 70l-4 1l-67 -43.5c-18.667 -11.667 -35.167 -21.167 -49.5 -28.5s-27.666 -12.5 -39.999 -15.5s-25.166 -4.5 -38.499 -4.5c-38 0 -67.333 11.5 -88 34.5s-31 55.5 -31 97.5
c0 97.333 61.667 151 185 161l98 8v84c0 46.667 -9.66699 80.834 -29 102.501s-50 32.5 -92 32.5c-16.667 0 -35.667 -1.66699 -57 -5s-42.333 -7.66602 -63 -12.999l-6 34c23.333 5.33301 47 9.5 71 12.5s44.667 4.5 62 4.5c79.333 0 126.333 -37.333 141 -112h4
c30.667 75.333 83.334 113 158.001 113c48.667 0 86 -19 112 -57s39 -93 39 -165c0 -16 -0.333008 -29.167 -1 -39.5s-1.66699 -20.833 -3 -31.5h-302c1.33301 -74 16 -131 44 -171s67 -60 117 -60c21.333 0 41 2.5 59 7.5s37.667 13.167 59 24.5l5 -35
c-37.333 -20.667 -78.333 -31 -123 -31zM160.996 29.998c24 0 49.167 8.16797 75.5 24.501l101.5 65.5c-14 38 -21 85.667 -21 143l-92 -7c-56 -4.66699 -95.833 -16.834 -119.5 -36.501s-35.5 -49.5 -35.5 -89.5c0 -66.667 30.333 -100 91 -100zM619.996 289.999
c-2 79.333 -12 136.667 -30 172s-46 53 -84 53c-46 0 -82.5 -19.5 -109.5 -58.5s-42.167 -94.5 -45.5 -166.5h269z" />
    <glyph glyph-name="ccedilla" unicode="&#xe7;" horiz-adv-x="363" 
d="M178 -220c-10 0 -20.002 0.833008 -30.002 2.5s-19.667 4.16699 -29 7.5v36c18.667 -8 38.334 -12 59.001 -12c46.667 0 70 25 70 75c0 15.333 -2.5 32 -7.5 50s-11.833 35.333 -20.5 52c-117.333 8.66699 -176 101.667 -176 279c0 92.667 16.5 162.5 49.5 209.5
s82.167 70.5 147.5 70.5c10 0 21.333 -0.833008 34 -2.5s29.667 -4.5 51 -8.5v-34c-16.667 4 -31.667 6.83301 -45 8.5s-26.666 2.5 -39.999 2.5c-55.333 0 -96 -19.833 -122 -59.5s-39 -102.167 -39 -187.5c0 -83.333 13.167 -145 39.5 -185s66.833 -60 121.5 -60
c18.667 0 47 4 85 12v-34c-11.333 -2.66699 -23 -5 -35 -7s-23.333 -3.33301 -34 -4c16.667 -37.333 25 -71.333 25 -102c0 -72.667 -34.667 -109 -104 -109z" />
    <glyph glyph-name="egrave" unicode="&#xe8;" horiz-adv-x="424" 
d="M239 -9c-62 0 -109.998 23.3311 -143.998 69.998s-51 112.334 -51 197.001c0 94.667 16.167 166.834 48.5 216.501s79.166 74.5 140.499 74.5c48.667 0 86 -19 112 -57s39 -93 39 -165c0 -16 -0.333008 -29.167 -1 -39.5s-1.66699 -20.833 -3 -31.5h-300
c1.33301 -74 15.666 -131 42.999 -171s66 -60 116 -60c21.333 0 41 2.5 59 7.5s37.667 13.167 59 24.5l5 -35c-37.333 -20.667 -78.333 -31 -123 -31zM233.002 514.998c-46 0 -82.168 -19.502 -108.501 -58.502s-41.166 -94.5 -44.499 -166.5h268
c0 42 -2.33301 77.333 -7 106s-11.834 51.834 -21.501 69.501s-21.667 30.334 -36 38.001s-31.166 11.5 -50.499 11.5zM208.001 609.996l-87 188h36l74 -178z" />
    <glyph glyph-name="eacute" unicode="&#xe9;" horiz-adv-x="424" 
d="M239 -9c-62 0 -109.998 23.3311 -143.998 69.998s-51 112.334 -51 197.001c0 94.667 16.167 166.834 48.5 216.501s79.166 74.5 140.499 74.5c48.667 0 86 -19 112 -57s39 -93 39 -165c0 -16 -0.333008 -29.167 -1 -39.5s-1.66699 -20.833 -3 -31.5h-300
c1.33301 -74 15.666 -131 42.999 -171s66 -60 116 -60c21.333 0 41 2.5 59 7.5s37.667 13.167 59 24.5l5 -35c-37.333 -20.667 -78.333 -31 -123 -31zM233.002 514.998c-46 0 -82.168 -19.502 -108.501 -58.502s-41.166 -94.5 -44.499 -166.5h268
c0 42 -2.33301 77.333 -7 106s-11.834 51.834 -21.501 69.501s-21.667 30.334 -36 38.001s-31.166 11.5 -50.499 11.5zM213.001 615.996l75 182h36l-87 -188z" />
    <glyph glyph-name="ecircumflex" unicode="&#xea;" horiz-adv-x="424" 
d="M239 -9c-62 0 -109.998 23.3311 -143.998 69.998s-51 112.334 -51 197.001c0 94.667 16.167 166.834 48.5 216.501s79.166 74.5 140.499 74.5c48.667 0 86 -19 112 -57s39 -93 39 -165c0 -16 -0.333008 -29.167 -1 -39.5s-1.66699 -20.833 -3 -31.5h-300
c1.33301 -74 15.666 -131 42.999 -171s66 -60 116 -60c21.333 0 41 2.5 59 7.5s37.667 13.167 59 24.5l5 -35c-37.333 -20.667 -78.333 -31 -123 -31zM233.002 514.998c-46 0 -82.168 -19.502 -108.501 -58.502s-41.166 -94.5 -44.499 -166.5h268
c0 42 -2.33301 77.333 -7 106s-11.834 51.834 -21.501 69.501s-21.667 30.334 -36 38.001s-31.166 11.5 -50.499 11.5zM96.001 681.996l121 72l121 -72v-41l-121 72l-121 -72v41z" />
    <glyph glyph-name="edieresis" unicode="&#xeb;" horiz-adv-x="424" 
d="M239 -9c-62 0 -109.998 23.3311 -143.998 69.998s-51 112.334 -51 197.001c0 94.667 16.167 166.834 48.5 216.501s79.166 74.5 140.499 74.5c48.667 0 86 -19 112 -57s39 -93 39 -165c0 -16 -0.333008 -29.167 -1 -39.5s-1.66699 -20.833 -3 -31.5h-300
c1.33301 -74 15.666 -131 42.999 -171s66 -60 116 -60c21.333 0 41 2.5 59 7.5s37.667 13.167 59 24.5l5 -35c-37.333 -20.667 -78.333 -31 -123 -31zM233.002 514.998c-46 0 -82.168 -19.502 -108.501 -58.502s-41.166 -94.5 -44.499 -166.5h268
c0 42 -2.33301 77.333 -7 106s-11.834 51.834 -21.501 69.501s-21.667 30.334 -36 38.001s-31.166 11.5 -50.499 11.5zM140.001 635.996c-8 0 -14.667 2.16699 -20 6.5s-8 11.166 -8 20.499s2.66699 16.166 8 20.499s12 6.5 20 6.5c7.33301 0 13.666 -2.16699 18.999 -6.5
s8 -11.166 8 -20.499s-2.66699 -16.166 -8 -20.499s-11.666 -6.5 -18.999 -6.5zM302.001 635.996c-8 0 -14.667 2.16699 -20 6.5s-8 11.166 -8 20.499s2.66699 16.166 8 20.499s12 6.5 20 6.5c7.33301 0 13.666 -2.16699 18.999 -6.5s8 -11.166 8 -20.499
s-2.66699 -16.166 -8 -20.499s-11.666 -6.5 -18.999 -6.5z" />
    <glyph glyph-name="igrave" unicode="&#xec;" horiz-adv-x="174" 
d="M70 540h34v-540h-34v540zM85 610l-87 188h36l74 -178z" />
    <glyph glyph-name="iacute" unicode="&#xed;" horiz-adv-x="174" 
d="M70 540h34v-540h-34v540zM76 616l75 182h36l-87 -188z" />
    <glyph glyph-name="icircumflex" unicode="&#xee;" horiz-adv-x="176" 
d="M-33 682l121 72l121 -72v-41l-121 72l-121 -72v41zM71 540h34v-540h-34v540z" />
    <glyph glyph-name="idieresis" unicode="&#xef;" horiz-adv-x="176" 
d="M8 636c-8 0 -14.667 2.16699 -20 6.5s-8 11.166 -8 20.499s2.66699 16.166 8 20.499s12 6.5 20 6.5c7.33301 0 13.666 -2.16699 18.999 -6.5s8 -11.166 8 -20.499s-2.66699 -16.166 -8 -20.499s-11.666 -6.5 -18.999 -6.5zM170 636c-8 0 -14.667 2.16699 -20 6.5
s-8 11.166 -8 20.499s2.66699 16.166 8 20.499s12 6.5 20 6.5c7.33301 0 13.666 -2.16699 18.999 -6.5s8 -11.166 8 -20.499s-2.66699 -16.166 -8 -20.499s-11.666 -6.5 -18.999 -6.5zM71 540h34v-540h-34v540z" />
    <glyph glyph-name="eth" unicode="&#xf0;" horiz-adv-x="469" 
d="M209 670l82 14.999l-28.5 63c-9.66699 20.667 -19.834 40.667 -30.501 60h36c10.667 -18 20.834 -36.667 30.501 -56s18.834 -39.666 27.501 -60.999l98 19v-35l-84 -16c12.667 -32.667 24.167 -66 34.5 -100s19.166 -67.667 26.499 -101s13 -66 17 -98s6 -62 6 -90
c0 -91.333 -16 -160.5 -48 -207.5s-79.333 -70.5 -142 -70.5s-110 23.5 -142 70.5s-48 116.167 -48 207.5s16.167 160.833 48.5 208.5s79.5 71.5 141.5 71.5c50 0 91 -21 123 -63c-14 54.667 -31.667 109.667 -53 165l-95 -17v35zM234 25.999c102.667 0 154 81.333 154 244
c0 26 -1.83301 53.5 -5.5 82.5s-11 55.5 -22 79.5s-26.667 44 -47 60s-46.833 24 -79.5 24c-102.667 0 -154 -82 -154 -246c0 -162.667 51.333 -244 154 -244z" />
    <glyph glyph-name="ntilde" unicode="&#xf1;" horiz-adv-x="454" 
d="M69 540h30.001l4 -58h4c29.333 21.333 58.666 38 87.999 50s56.666 18 81.999 18c20.667 0 38.167 -2.33301 52.5 -7s25.833 -12.5 34.5 -23.5s14.834 -25.5 18.501 -43.5s5.5 -40.333 5.5 -67v-409h-34v409c0 38.667 -5.83301 66.167 -17.5 82.5s-31.5 24.5 -59.5 24.5
c-52 0 -110 -22.333 -174 -67v-449h-34v540zM89.001 660c9.33301 11.333 21.832 22.332 37.499 32.999s31.167 16 46.5 16c12.667 0 24 -2.16699 34 -6.5s19.5 -9.33301 28.5 -15s18 -10.667 27 -15s18.833 -6.5 29.5 -6.5s20.5 3.66699 29.5 11s16.167 17 21.5 29l28 -20
c-6.66699 -15.333 -17.667 -28.166 -33 -38.499s-30.666 -15.5 -45.999 -15.5c-12.667 0 -24 2.16699 -34 6.5s-19.5 9.33301 -28.5 15s-18 10.667 -27 15s-18.833 6.5 -29.5 6.5c-11.333 0 -22.333 -4 -33 -12s-19.667 -17 -27 -27z" />
    <glyph glyph-name="ograve" unicode="&#xf2;" horiz-adv-x="468" 
d="M234 -8c-62.667 0 -110 23.5 -142 70.5s-48 116.167 -48 207.5s16.167 160.833 48.5 208.5s79.5 71.5 141.5 71.5c62.667 0 110 -23.833 142 -71.5s48 -117.167 48 -208.5s-16 -160.5 -48 -207.5s-79.333 -70.5 -142 -70.5zM234 26c102.667 0 154 81.333 154 244
c0 164 -51.333 246 -154 246s-154 -82 -154 -246c0 -162.667 51.333 -244 154 -244zM218 610l-87 188h36l74 -178z" />
    <glyph glyph-name="oacute" unicode="&#xf3;" horiz-adv-x="468" 
d="M234 -8c-62.667 0 -110 23.5 -142 70.5s-48 116.167 -48 207.5s16.167 160.833 48.5 208.5s79.5 71.5 141.5 71.5c62.667 0 110 -23.833 142 -71.5s48 -117.167 48 -208.5s-16 -160.5 -48 -207.5s-79.333 -70.5 -142 -70.5zM234 26c102.667 0 154 81.333 154 244
c0 164 -51.333 246 -154 246s-154 -82 -154 -246c0 -162.667 51.333 -244 154 -244zM209 616l75 182h36l-87 -188z" />
    <glyph glyph-name="ocircumflex" unicode="&#xf4;" horiz-adv-x="468" 
d="M234 -8c-62.667 0 -110 23.5 -142 70.5s-48 116.167 -48 207.5s16.167 160.833 48.5 208.5s79.5 71.5 141.5 71.5c62.667 0 110 -23.833 142 -71.5s48 -117.167 48 -208.5s-16 -160.5 -48 -207.5s-79.333 -70.5 -142 -70.5zM234 26c102.667 0 154 81.333 154 244
c0 164 -51.333 246 -154 246s-154 -82 -154 -246c0 -162.667 51.333 -244 154 -244zM99 682l121 72l121 -72v-41l-121 72l-121 -72v41z" />
    <glyph glyph-name="otilde" unicode="&#xf5;" horiz-adv-x="468" 
d="M234 -8c-62.667 0 -110 23.5 -142 70.5s-48 116.167 -48 207.5s16.167 160.833 48.5 208.5s79.5 71.5 141.5 71.5c62.667 0 110 -23.833 142 -71.5s48 -117.167 48 -208.5s-16 -160.5 -48 -207.5s-79.333 -70.5 -142 -70.5zM234 26c102.667 0 154 81.333 154 244
c0 164 -51.333 246 -154 246s-154 -82 -154 -246c0 -162.667 51.333 -244 154 -244zM77 660c9.33301 11.333 21.832 22.332 37.499 32.999s31.167 16 46.5 16c12.667 0 24 -2.16699 34 -6.5s19.5 -9.33301 28.5 -15s18 -10.667 27 -15s18.833 -6.5 29.5 -6.5
s20.5 3.66699 29.5 11s16.167 17 21.5 29l28 -20c-6.66699 -15.333 -17.667 -28.166 -33 -38.499s-30.666 -15.5 -45.999 -15.5c-12.667 0 -24 2.16699 -34 6.5s-19.5 9.33301 -28.5 15s-18 10.667 -27 15s-18.833 6.5 -29.5 6.5c-11.333 0 -22.333 -4 -33 -12
s-19.667 -17 -27 -27z" />
    <glyph glyph-name="odieresis" unicode="&#xf6;" horiz-adv-x="468" 
d="M234 -8c-62.667 0 -110 23.5 -142 70.5s-48 116.167 -48 207.5s16.167 160.833 48.5 208.5s79.5 71.5 141.5 71.5c62.667 0 110 -23.833 142 -71.5s48 -117.167 48 -208.5s-16 -160.5 -48 -207.5s-79.333 -70.5 -142 -70.5zM234 26c102.667 0 154 81.333 154 244
c0 164 -51.333 246 -154 246s-154 -82 -154 -246c0 -162.667 51.333 -244 154 -244zM140 636c-8 0 -14.667 2.16699 -20 6.5s-8 11.166 -8 20.499s2.66699 16.166 8 20.499s12 6.5 20 6.5c7.33301 0 13.666 -2.16699 18.999 -6.5s8 -11.166 8 -20.499
s-2.66699 -16.166 -8 -20.499s-11.666 -6.5 -18.999 -6.5zM302 636c-8 0 -14.667 2.16699 -20 6.5s-8 11.166 -8 20.499s2.66699 16.166 8 20.499s12 6.5 20 6.5c7.33301 0 13.666 -2.16699 18.999 -6.5s8 -11.166 8 -20.499s-2.66699 -16.166 -8 -20.499
s-11.666 -6.5 -18.999 -6.5z" />
    <glyph glyph-name="divide" unicode="&#xf7;" horiz-adv-x="488" 
d="M247 189c-20.667 0 -31 10.333 -31 31c0 21.333 10.333 32 31 32c9.33301 0 17 -3 23 -9s9 -13.667 9 -23s-3 -16.833 -9 -22.5s-13.667 -8.5 -23 -8.5zM62 387h364v-34h-364v34zM247 480c-20.667 0 -31 10.333 -31 31c0 21.333 10.333 32 31 32c9.33301 0 17 -3 23 -9
s9 -13.667 9 -23s-3 -16.833 -9 -22.5s-13.667 -8.5 -23 -8.5z" />
    <glyph glyph-name="oslash" unicode="&#xf8;" horiz-adv-x="470" 
d="M85 76c-26.667 47.333 -39.999 112 -39.999 194c0 91.333 16.167 160.833 48.5 208.5s79.5 71.5 141.5 71.5c54 0 96.667 -18.333 128 -55l30 45h39l-49 -74c13.333 -23.333 23.666 -51.333 30.999 -84s11 -70 11 -112c0 -91.333 -16 -160.5 -48 -207.5
s-79.333 -70.5 -142 -70.5c-55.333 0 -98.333 18.333 -129 55l-31 -47h-40zM235.001 26c102.667 0 154 81.334 154 244.001c0 69.333 -9.33301 123.666 -28 162.999l-235 -356c26 -34 62.333 -51 109 -51zM81.001 270.001c0 -67.333 9 -121 27 -161l235 355
c-26.667 34.667 -62.667 52 -108 52c-102.667 0 -154 -82 -154 -246z" />
    <glyph glyph-name="ugrave" unicode="&#xf9;" horiz-adv-x="453" 
d="M186 -10c-44 0 -75.167 10.668 -93.5 32.001s-27.5 57.666 -27.5 108.999v409h34v-409c0 -71.333 29 -107 87 -107c24.667 0 50.167 5.83301 76.5 17.5s55.5 29.167 87.5 52.5v446h34v-540h-30l-4 58h-4c-32 -23.333 -61 -40.5 -87 -51.5s-50.333 -16.5 -73 -16.5z
M220 610.001l-87 188h36l74 -178z" />
    <glyph glyph-name="uacute" unicode="&#xfa;" horiz-adv-x="453" 
d="M186 -10c-44 0 -75.167 10.668 -93.5 32.001s-27.5 57.666 -27.5 108.999v409h34v-409c0 -71.333 29 -107 87 -107c24.667 0 50.167 5.83301 76.5 17.5s55.5 29.167 87.5 52.5v446h34v-540h-30l-4 58h-4c-32 -23.333 -61 -40.5 -87 -51.5s-50.333 -16.5 -73 -16.5z
M211 616.001l75 182h36l-87 -188z" />
    <glyph glyph-name="ucircumflex" unicode="&#xfb;" horiz-adv-x="453" 
d="M186 -10c-44 0 -75.167 10.668 -93.5 32.001s-27.5 57.666 -27.5 108.999v409h34v-409c0 -71.333 29 -107 87 -107c24.667 0 50.167 5.83301 76.5 17.5s55.5 29.167 87.5 52.5v446h34v-540h-30l-4 58h-4c-32 -23.333 -61 -40.5 -87 -51.5s-50.333 -16.5 -73 -16.5z
M101 682.001l121 72l121 -72v-41l-121 72l-121 -72v41z" />
    <glyph glyph-name="udieresis" unicode="&#xfc;" horiz-adv-x="453" 
d="M186 -10c-44 0 -75.167 10.668 -93.5 32.001s-27.5 57.666 -27.5 108.999v409h34v-409c0 -71.333 29 -107 87 -107c24.667 0 50.167 5.83301 76.5 17.5s55.5 29.167 87.5 52.5v446h34v-540h-30l-4 58h-4c-32 -23.333 -61 -40.5 -87 -51.5s-50.333 -16.5 -73 -16.5z
M142 636.001c-8 0 -14.667 2.16699 -20 6.5s-8 11.166 -8 20.499s2.66699 16.166 8 20.499s12 6.5 20 6.5c7.33301 0 13.666 -2.16699 18.999 -6.5s8 -11.166 8 -20.499s-2.66699 -16.166 -8 -20.499s-11.666 -6.5 -18.999 -6.5zM304 636.001c-8 0 -14.667 2.16699 -20 6.5
s-8 11.166 -8 20.499s2.66699 16.166 8 20.499s12 6.5 20 6.5c7.33301 0 13.666 -2.16699 18.999 -6.5s8 -11.166 8 -20.499s-2.66699 -16.166 -8 -20.499s-11.666 -6.5 -18.999 -6.5z" />
    <glyph glyph-name="yacute" unicode="&#xfd;" horiz-adv-x="430" 
d="M127 -213v4l72 211l-183 535v3h34l150 -438l15 -55h2l15 55l149 438h34v-3l-255 -757zM211 616l75 182h36l-87 -188z" />
    <glyph glyph-name="thorn" unicode="&#xfe;" horiz-adv-x="459" 
d="M69 808l33.999 -0.000976562v-321c17.333 19.333 38 34.5 62 45.5s49.667 16.5 77 16.5c57.333 0 100.5 -22.667 129.5 -68s43.5 -112.666 43.5 -201.999c0 -93.333 -19.167 -164.833 -57.5 -214.5s-93.166 -74.5 -164.499 -74.5c-27.333 0 -57.333 3.66699 -90 11v-221
h-34v1028zM196.999 23.999c59.333 0 104.501 21.668 135.501 65.001s46.5 106.666 46.5 189.999c0 77.333 -11.667 136 -35 176s-58 60 -104 60c-16 0 -32.167 -2.5 -48.5 -7.5s-31 -11.667 -44 -20s-23.667 -17.5 -32 -27.5s-12.5 -20 -12.5 -30v-395
c19.333 -3.33301 36.666 -6 51.999 -8s29.333 -3 42 -3z" />
    <glyph glyph-name="ydieresis" unicode="&#xff;" horiz-adv-x="430" 
d="M127 -213v4l72 211l-183 535v3h34l150 -438l15 -55h2l15 55l149 438h34v-3l-255 -757zM142 636c-8 0 -14.667 2.16699 -20 6.5s-8 11.166 -8 20.499s2.66699 16.166 8 20.499s12 6.5 20 6.5c7.33301 0 13.666 -2.16699 18.999 -6.5s8 -11.166 8 -20.499
s-2.66699 -16.166 -8 -20.499s-11.666 -6.5 -18.999 -6.5zM304 636c-8 0 -14.667 2.16699 -20 6.5s-8 11.166 -8 20.499s2.66699 16.166 8 20.499s12 6.5 20 6.5c7.33301 0 13.666 -2.16699 18.999 -6.5s8 -11.166 8 -20.499s-2.66699 -16.166 -8 -20.499
s-11.666 -6.5 -18.999 -6.5z" />
    <glyph glyph-name="Amacron" unicode="&#x100;" horiz-adv-x="519" 
d="M10 6l229 734h41l229 -734v-6h-33l-78 249h-277l-78 -249h-33v6zM387 283l-94 303l-33 112h-2l-32 -112l-95 -303h256zM145 876h209v-34h-209v34z" />
    <glyph glyph-name="amacron" unicode="&#x101;" horiz-adv-x="416" 
d="M153 -5c-38 0 -67.335 11.498 -88.002 34.498s-31 55.5 -31 97.5c0 97.333 61.667 151 185 161l98 8v84c0 46.667 -9.66699 80.834 -29 102.501s-50 32.5 -92 32.5c-16.667 0 -35.667 -1.66699 -57 -5s-42.333 -7.66602 -63 -12.999l-6 34c23.333 5.33301 47 9.5 71 12.5
s44.667 4.5 62 4.5c98.667 0 148 -56 148 -168v-380h-29l-6 65h-4l-35.5 -24.5c-12.333 -8.33301 -25.166 -15.833 -38.499 -22.5s-27.166 -12.167 -41.499 -16.5s-28.833 -6.5 -43.5 -6.5zM160.998 29.998c14 0 28.332 2.83301 42.999 8.5s28.834 12.334 42.501 20.001
s26.667 15.667 39 24s22.833 15.166 31.5 20.499v160l-92 -7c-56 -4 -95.833 -16 -119.5 -36s-35.5 -50 -35.5 -90c0 -66.667 30.333 -100 91 -100zM98.9971 686.998h229v-34h-229v34z" />
    <glyph glyph-name="Abreve" unicode="&#x102;" horiz-adv-x="519" 
d="M10 6l229 734h41l229 -734v-6h-33l-78 249h-277l-78 -249h-33v6zM387 283l-94 303l-33 112h-2l-32 -112l-95 -303h256zM261 816c-42 0 -75 11.667 -99 35s-36 55.666 -36 96.999h34c0 -30.667 8.83301 -54.667 26.5 -72s42.5 -26 74.5 -26s56.833 8.66699 74.5 26
s26.5 41.333 26.5 72h34c0 -41.333 -12 -73.666 -36 -96.999s-57 -35 -99 -35z" />
    <glyph glyph-name="abreve" unicode="&#x103;" horiz-adv-x="416" 
d="M153 -5c-38 0 -67.335 11.498 -88.002 34.498s-31 55.5 -31 97.5c0 97.333 61.667 151 185 161l98 8v84c0 46.667 -9.66699 80.834 -29 102.501s-50 32.5 -92 32.5c-16.667 0 -35.667 -1.66699 -57 -5s-42.333 -7.66602 -63 -12.999l-6 34c23.333 5.33301 47 9.5 71 12.5
s44.667 4.5 62 4.5c98.667 0 148 -56 148 -168v-380h-29l-6 65h-4l-35.5 -24.5c-12.333 -8.33301 -25.166 -15.833 -38.499 -22.5s-27.166 -12.167 -41.499 -16.5s-28.833 -6.5 -43.5 -6.5zM160.998 29.998c14 0 28.332 2.83301 42.999 8.5s28.834 12.334 42.501 20.001
s26.667 15.667 39 24s22.833 15.166 31.5 20.499v160l-92 -7c-56 -4 -95.833 -16 -119.5 -36s-35.5 -50 -35.5 -90c0 -66.667 30.333 -100 91 -100zM212.997 621.998c-42 0 -75 11.667 -99 35s-36 55.666 -36 96.999h34c0 -30.667 8.83301 -54.667 26.5 -72
s42.5 -26 74.5 -26s56.833 8.66699 74.5 26s26.5 41.333 26.5 72h34c0 -41.333 -12 -73.666 -36 -96.999s-57 -35 -99 -35z" />
    <glyph glyph-name="Aogonek" unicode="&#x104;" horiz-adv-x="519" 
d="M463 -220c-23.333 0 -42.002 7.33301 -56.002 22s-21 34.667 -21 60c0 53.333 31.333 99.333 94 138h-4l-78 249h-277l-78 -249h-33v6l229 734h41l229 -734v-25c-32 -17.333 -54.833 -35 -68.5 -53s-20.5 -39 -20.5 -63c0 -18 3.83301 -31 11.5 -39
s19.834 -12 36.501 -12c14.667 0 28.334 3.33301 41.001 10v-32c-14 -8 -29.333 -12 -46 -12zM386.998 283l-94 303l-33 112h-2l-32 -112l-95 -303h256z" />
    <glyph glyph-name="aogonek" unicode="&#x105;" horiz-adv-x="416" 
d="M305 -220c-23.333 0 -42.0039 7.33105 -56.0039 21.998s-21 34.667 -21 60c0 53.333 31.333 99.333 94 138l-6 65h-4l-35.5 -24.5c-12.333 -8.33301 -25.166 -15.833 -38.499 -22.5s-27.166 -12.167 -41.499 -16.5s-28.833 -6.5 -43.5 -6.5c-38 0 -67.333 11.5 -88 34.5
s-31 55.5 -31 97.5c0 97.333 61.667 151 185 161l98 8v84c0 46.667 -9.66699 80.834 -29 102.501s-50 32.5 -92 32.5c-16.667 0 -35.667 -1.66699 -57 -5s-42.333 -7.66602 -63 -12.999l-6 34c23.333 5.33301 47 9.5 71 12.5s44.667 4.5 62 4.5c98.667 0 148 -56 148 -168
v-399c-32 -17.333 -54.833 -35 -68.5 -53s-20.5 -39 -20.5 -63c0 -18 3.83301 -31 11.5 -39s19.834 -12 36.501 -12c14.667 0 28.334 3.33301 41.001 10v-32c-14 -8 -29.333 -12 -46 -12zM160.996 29.998c14 0 28.332 2.83203 42.999 8.49902s28.834 12.334 42.501 20.001
s26.667 15.667 39 24s22.833 15.166 31.5 20.499v160l-92 -7c-56 -5.33301 -95.833 -17.666 -119.5 -36.999s-35.5 -49 -35.5 -89c0 -66.667 30.333 -100 91 -100z" />
    <glyph glyph-name="Cacute" unicode="&#x106;" horiz-adv-x="482" 
d="M354 -10c-54 0.666992 -100.331 8.33301 -138.998 23s-70.167 37.334 -94.5 68.001s-42.333 69.834 -54 117.501s-17.5 104.5 -17.5 170.5c0 68.667 5.5 127 16.5 175s28.667 87.167 53 117.5s55.666 52.333 93.999 66s84.833 20.5 139.5 20.5
c13.333 0 28.166 -0.5 44.499 -1.5s33.5 -2.83301 51.5 -5.5v-34c-9.33301 2 -22.5 3.66699 -39.5 5s-34.5 2 -52.5 2c-49.333 0 -91.166 -6.16699 -125.499 -18.5s-62.333 -32.333 -84 -60s-37.334 -63.334 -47.001 -107.001s-14.5 -96.834 -14.5 -159.501
c0 -120 21.167 -207.5 63.5 -262.5s109.833 -82.5 202.5 -82.5c4 0 9.83301 0.166992 17.5 0.5s16 0.833008 25 1.5l28 2c9.66699 0.666992 18.5 1.66699 26.5 3v-33c-15.333 -3.33301 -29.5 -5.5 -42.5 -6.5s-30.167 -1.5 -51.5 -1.5zM283.002 786.999l79 123h38l-85 -126z
" />
    <glyph glyph-name="cacute" unicode="&#x107;" horiz-adv-x="364" 
d="M242 -10c-66.667 0 -116.168 22.832 -148.501 68.499s-48.5 116.167 -48.5 211.5c0 92.667 16.5 162.5 49.5 209.5s82.167 70.5 147.5 70.5c10 0 21.333 -0.833008 34 -2.5s29.667 -4.5 51 -8.5v-34c-16.667 4 -31.667 6.83301 -45 8.5s-26.666 2.5 -39.999 2.5
c-55.333 0 -96 -19.833 -122 -59.5s-39 -102.167 -39 -187.5c0 -83.333 13.167 -145 39.5 -185s66.833 -60 121.5 -60c18.667 0 47 4 85 12v-34c-13.333 -3.33301 -27.833 -6.16602 -43.5 -8.49902s-29.5 -3.5 -41.5 -3.5zM192.999 615.999l75 182h36l-87 -188z" />
    <glyph glyph-name="Ccircumflex" unicode="&#x108;" horiz-adv-x="482" 
d="M354 -10c-54 0.666992 -100.331 8.33301 -138.998 23s-70.167 37.334 -94.5 68.001s-42.333 69.834 -54 117.501s-17.5 104.5 -17.5 170.5c0 68.667 5.5 127 16.5 175s28.667 87.167 53 117.5s55.666 52.333 93.999 66s84.833 20.5 139.5 20.5
c13.333 0 28.166 -0.5 44.499 -1.5s33.5 -2.83301 51.5 -5.5v-34c-9.33301 2 -22.5 3.66699 -39.5 5s-34.5 2 -52.5 2c-49.333 0 -91.166 -6.16699 -125.499 -18.5s-62.333 -32.333 -84 -60s-37.334 -63.334 -47.001 -107.001s-14.5 -96.834 -14.5 -159.501
c0 -120 21.167 -207.5 63.5 -262.5s109.833 -82.5 202.5 -82.5c4 0 9.83301 0.166992 17.5 0.5s16 0.833008 25 1.5l28 2c9.66699 0.666992 18.5 1.66699 26.5 3v-33c-15.333 -3.33301 -29.5 -5.5 -42.5 -6.5s-30.167 -1.5 -51.5 -1.5zM181.002 859.999l121 72l121 -72v-41
l-121 72l-121 -72v41z" />
    <glyph glyph-name="ccircumflex" unicode="&#x109;" horiz-adv-x="364" 
d="M242 -10c-66.667 0 -116.168 22.832 -148.501 68.499s-48.5 116.167 -48.5 211.5c0 92.667 16.5 162.5 49.5 209.5s82.167 70.5 147.5 70.5c10 0 21.333 -0.833008 34 -2.5s29.667 -4.5 51 -8.5v-34c-16.667 4 -31.667 6.83301 -45 8.5s-26.666 2.5 -39.999 2.5
c-55.333 0 -96 -19.833 -122 -59.5s-39 -102.167 -39 -187.5c0 -83.333 13.167 -145 39.5 -185s66.833 -60 121.5 -60c18.667 0 47 4 85 12v-34c-13.333 -3.33301 -27.833 -6.16602 -43.5 -8.49902s-29.5 -3.5 -41.5 -3.5zM82.999 681.999l121 72l121 -72v-41l-121 72
l-121 -72v41z" />
    <glyph glyph-name="Cdotaccent" unicode="&#x10a;" horiz-adv-x="482" 
d="M354 -10c-54 0.666992 -100.331 8.33301 -138.998 23s-70.167 37.334 -94.5 68.001s-42.333 69.834 -54 117.501s-17.5 104.5 -17.5 170.5c0 68.667 5.5 127 16.5 175s28.667 87.167 53 117.5s55.666 52.333 93.999 66s84.833 20.5 139.5 20.5
c13.333 0 28.166 -0.5 44.499 -1.5s33.5 -2.83301 51.5 -5.5v-34c-9.33301 2 -22.5 3.66699 -39.5 5s-34.5 2 -52.5 2c-49.333 0 -91.166 -6.16699 -125.499 -18.5s-62.333 -32.333 -84 -60s-37.334 -63.334 -47.001 -107.001s-14.5 -96.834 -14.5 -159.501
c0 -120 21.167 -207.5 63.5 -262.5s109.833 -82.5 202.5 -82.5c4 0 9.83301 0.166992 17.5 0.5s16 0.833008 25 1.5l28 2c9.66699 0.666992 18.5 1.66699 26.5 3v-33c-15.333 -3.33301 -29.5 -5.5 -42.5 -6.5s-30.167 -1.5 -51.5 -1.5zM302.002 798.999
c-8 0 -14.833 2.33203 -20.5 6.99902s-8.5 12 -8.5 22c0 10.667 2.83301 18.334 8.5 23.001s12.5 7 20.5 7s15 -2.5 21 -7.5s9 -12.5 9 -22.5s-3 -17.333 -9 -22s-13 -7 -21 -7z" />
    <glyph glyph-name="cdotaccent" unicode="&#x10b;" horiz-adv-x="364" 
d="M242 -10c-66.667 0 -116.168 22.832 -148.501 68.499s-48.5 116.167 -48.5 211.5c0 92.667 16.5 162.5 49.5 209.5s82.167 70.5 147.5 70.5c10 0 21.333 -0.833008 34 -2.5s29.667 -4.5 51 -8.5v-34c-16.667 4 -31.667 6.83301 -45 8.5s-26.666 2.5 -39.999 2.5
c-55.333 0 -96 -19.833 -122 -59.5s-39 -102.167 -39 -187.5c0 -83.333 13.167 -145 39.5 -185s66.833 -60 121.5 -60c18.667 0 47 4 85 12v-34c-13.333 -3.33301 -27.833 -6.16602 -43.5 -8.49902s-29.5 -3.5 -41.5 -3.5zM203.999 633.999
c-8 0 -14.833 2.33203 -20.5 6.99902s-8.5 12 -8.5 22c0 10.667 2.83301 18.334 8.5 23.001s12.5 7 20.5 7s15 -2.5 21 -7.5s9 -12.5 9 -22.5s-3 -17.333 -9 -22s-13 -7 -21 -7z" />
    <glyph glyph-name="Ccaron" unicode="&#x10c;" horiz-adv-x="482" 
d="M354 -10c-54 0.666992 -100.331 8.33301 -138.998 23s-70.167 37.334 -94.5 68.001s-42.333 69.834 -54 117.501s-17.5 104.5 -17.5 170.5c0 68.667 5.5 127 16.5 175s28.667 87.167 53 117.5s55.666 52.333 93.999 66s84.833 20.5 139.5 20.5
c13.333 0 28.166 -0.5 44.499 -1.5s33.5 -2.83301 51.5 -5.5v-34c-9.33301 2 -22.5 3.66699 -39.5 5s-34.5 2 -52.5 2c-49.333 0 -91.166 -6.16699 -125.499 -18.5s-62.333 -32.333 -84 -60s-37.334 -63.334 -47.001 -107.001s-14.5 -96.834 -14.5 -159.501
c0 -120 21.167 -207.5 63.5 -262.5s109.833 -82.5 202.5 -82.5c4 0 9.83301 0.166992 17.5 0.5s16 0.833008 25 1.5l28 2c9.66699 0.666992 18.5 1.66699 26.5 3v-33c-15.333 -3.33301 -29.5 -5.5 -42.5 -6.5s-30.167 -1.5 -51.5 -1.5zM185.002 911.999l121 -72l121 72v-41
l-121 -72l-121 72v41z" />
    <glyph glyph-name="ccaron" unicode="&#x10d;" horiz-adv-x="364" 
d="M242 -10c-66.667 0 -116.168 22.832 -148.501 68.499s-48.5 116.167 -48.5 211.5c0 92.667 16.5 162.5 49.5 209.5s82.167 70.5 147.5 70.5c10 0 21.333 -0.833008 34 -2.5s29.667 -4.5 51 -8.5v-34c-16.667 4 -31.667 6.83301 -45 8.5s-26.666 2.5 -39.999 2.5
c-55.333 0 -96 -19.833 -122 -59.5s-39 -102.167 -39 -187.5c0 -83.333 13.167 -145 39.5 -185s66.833 -60 121.5 -60c18.667 0 47 4 85 12v-34c-13.333 -3.33301 -27.833 -6.16602 -43.5 -8.49902s-29.5 -3.5 -41.5 -3.5zM88.999 767.999l121 -72l121 72v-41l-121 -72
l-121 72v41z" />
    <glyph glyph-name="Dcaron" unicode="&#x10e;" horiz-adv-x="561" 
d="M182 -18c-17.333 0 -34.166 0.5 -50.499 1.5s-33.166 2.83301 -50.499 5.5v743c29.333 6 55.666 10.5 78.999 13.5s45 4.5 65 4.5c97.333 0 169.666 -31.333 216.999 -94s71 -158.334 71 -287.001c0 -133.333 -26.667 -231.166 -80 -293.499s-137 -93.5 -251 -93.5z
M185 17c194.667 0 291.999 117.333 291.999 352c0 118.667 -20.833 206.167 -62.5 262.5s-106.5 84.5 -194.5 84.5c-17.333 0 -34.666 -0.833008 -51.999 -2.5s-35 -4.16699 -53 -7.5v-684c13.333 -1.33301 25.833 -2.5 37.5 -3.5s22.5 -1.5 32.5 -1.5zM131.999 912l121 -72
l121 72v-41l-121 -72l-121 72v41z" />
    <glyph glyph-name="dcaron" unicode="&#x10f;" horiz-adv-x="459" 
d="M220 -9c-60 0 -104.332 22.833 -132.999 68.5s-43 116.167 -43 211.5c0 87.333 18.667 155.5 56 204.5s89.666 73.5 156.999 73.5c15.333 0 30.333 -0.833008 45 -2.5s32.667 -4.16699 54 -7.5v269h34v-808h-29l-5 54h-3c-32 -42 -76.333 -63 -133 -63zM218.001 25
c16 0 32.1699 2.5 48.5029 7.5s31.166 11.667 44.499 20s24.166 17.5 32.499 27.5s12.5 20 12.5 30v394c-23.333 4 -42 6.83301 -56 8.5s-28.333 2.5 -43 2.5c-56.667 0 -100.334 -21.167 -131.001 -63.5s-46 -102.833 -46 -181.5c0 -78 12 -138.333 36 -181s58 -64 102 -64
zM455.004 808h34l-20 -228h-14v228z" />
    <glyph glyph-name="Dcroat" unicode="&#x110;" horiz-adv-x="570" 
d="M0 385h90v347c29.333 6 55.666 10.5 78.999 13.5s45 4.5 65 4.5c97.333 0 169.666 -31.333 216.999 -94s71 -158.334 71 -287.001c0 -133.333 -26.667 -231.166 -80 -293.499s-137 -93.5 -251 -93.5c-17.333 0 -34.166 0.5 -50.499 1.5s-33.166 2.83301 -50.499 5.5v362
h-90v34zM194 17c194.667 0 291.999 117.333 291.999 352c0 118.667 -20.833 206.167 -62.5 262.5s-106.5 84.5 -194.5 84.5c-17.333 0 -34.666 -0.833008 -51.999 -2.5s-35 -4.16699 -53 -7.5v-321h163v-34h-163v-329c13.333 -1.33301 25.833 -2.5 37.5 -3.5
s22.5 -1.5 32.5 -1.5z" />
    <glyph glyph-name="dcroat" unicode="&#x111;" horiz-adv-x="459" 
d="M198 683h158.001v125h34v-125h68v-23h-68v-660h-29l-5 54h-3c-32 -42 -76.333 -63 -133 -63c-60 0 -104.333 22.833 -133 68.5s-43 116.167 -43 211.5c0 87.333 18.667 155.5 56 204.5s89.666 73.5 156.999 73.5c15.333 0 30.333 -0.833008 45 -2.5
s32.667 -4.16699 54 -7.5v121h-158v23zM218.001 25c16 0 32.1699 2.5 48.5029 7.5s31.166 11.667 44.499 20s24.166 17.5 32.499 27.5s12.5 20 12.5 30v394c-23.333 4 -42 6.83301 -56 8.5s-28.333 2.5 -43 2.5c-56.667 0 -100.334 -21.167 -131.001 -63.5
s-46 -102.833 -46 -181.5c0 -78 12 -138.333 36 -181s58 -64 102 -64z" />
    <glyph glyph-name="Emacron" unicode="&#x112;" horiz-adv-x="487" 
d="M81 740h358v-34h-324v-313h291v-34h-291v-325h333v-34h-367v740zM143 876h209v-34h-209v34z" />
    <glyph glyph-name="emacron" unicode="&#x113;" horiz-adv-x="424" 
d="M239 -9c-62 0 -109.998 23.3311 -143.998 69.998s-51 112.334 -51 197.001c0 94.667 16.167 166.834 48.5 216.501s79.166 74.5 140.499 74.5c48.667 0 86 -19 112 -57s39 -93 39 -165c0 -16 -0.333008 -29.167 -1 -39.5s-1.66699 -20.833 -3 -31.5h-300
c1.33301 -74 15.666 -131 42.999 -171s66 -60 116 -60c21.333 0 41 2.5 59 7.5s37.667 13.167 59 24.5l5 -35c-37.333 -20.667 -78.333 -31 -123 -31zM233.002 514.998c-46 0 -82.168 -19.502 -108.501 -58.502s-41.166 -94.5 -44.499 -166.5h268
c0 42 -2.33301 77.333 -7 106s-11.834 51.834 -21.501 69.501s-21.667 30.334 -36 38.001s-31.166 11.5 -50.499 11.5zM96.001 686.996h229v-34h-229v34z" />
    <glyph glyph-name="Ebreve" unicode="&#x114;" horiz-adv-x="487" 
d="M81 740h358v-34h-324v-313h291v-34h-291v-325h333v-34h-367v740zM259 816c-42 0 -75 11.667 -99 35s-36 55.666 -36 96.999h34c0 -30.667 8.83301 -54.667 26.5 -72s42.5 -26 74.5 -26s56.833 8.66699 74.5 26s26.5 41.333 26.5 72h34c0 -41.333 -12 -73.666 -36 -96.999
s-57 -35 -99 -35z" />
    <glyph glyph-name="ebreve" unicode="&#x115;" horiz-adv-x="424" 
d="M239 -9c-62 0 -109.998 23.3311 -143.998 69.998s-51 112.334 -51 197.001c0 94.667 16.167 166.834 48.5 216.501s79.166 74.5 140.499 74.5c48.667 0 86 -19 112 -57s39 -93 39 -165c0 -16 -0.333008 -29.167 -1 -39.5s-1.66699 -20.833 -3 -31.5h-300
c1.33301 -74 15.666 -131 42.999 -171s66 -60 116 -60c21.333 0 41 2.5 59 7.5s37.667 13.167 59 24.5l5 -35c-37.333 -20.667 -78.333 -31 -123 -31zM233.002 514.998c-46 0 -82.168 -19.502 -108.501 -58.502s-41.166 -94.5 -44.499 -166.5h268
c0 42 -2.33301 77.333 -7 106s-11.834 51.834 -21.501 69.501s-21.667 30.334 -36 38.001s-31.166 11.5 -50.499 11.5zM216.001 621.996c-42 0 -75 11.667 -99 35s-36 55.666 -36 96.999h34c0 -30.667 8.83301 -54.667 26.5 -72s42.5 -26 74.5 -26s56.833 8.66699 74.5 26
s26.5 41.333 26.5 72h34c0 -41.333 -12 -73.666 -36 -96.999s-57 -35 -99 -35z" />
    <glyph glyph-name="Edotaccent" unicode="&#x116;" horiz-adv-x="487" 
d="M81 740h358v-34h-324v-313h291v-34h-291v-325h333v-34h-367v740zM257 799c-8 0 -14.833 2.33203 -20.5 6.99902s-8.5 12 -8.5 22c0 10.667 2.83301 18.334 8.5 23.001s12.5 7 20.5 7s15 -2.5 21 -7.5s9 -12.5 9 -22.5s-3 -17.333 -9 -22s-13 -7 -21 -7z" />
    <glyph glyph-name="edotaccent" unicode="&#x117;" horiz-adv-x="424" 
d="M239 -9c-62 0 -109.998 23.3311 -143.998 69.998s-51 112.334 -51 197.001c0 94.667 16.167 166.834 48.5 216.501s79.166 74.5 140.499 74.5c48.667 0 86 -19 112 -57s39 -93 39 -165c0 -16 -0.333008 -29.167 -1 -39.5s-1.66699 -20.833 -3 -31.5h-300
c1.33301 -74 15.666 -131 42.999 -171s66 -60 116 -60c21.333 0 41 2.5 59 7.5s37.667 13.167 59 24.5l5 -35c-37.333 -20.667 -78.333 -31 -123 -31zM233.002 514.998c-46 0 -82.168 -19.502 -108.501 -58.502s-41.166 -94.5 -44.499 -166.5h268
c0 42 -2.33301 77.333 -7 106s-11.834 51.834 -21.501 69.501s-21.667 30.334 -36 38.001s-31.166 11.5 -50.499 11.5zM213.001 633.996c-8 0 -14.833 2.33203 -20.5 6.99902s-8.5 12 -8.5 22c0 10.667 2.83301 18.334 8.5 23.001s12.5 7 20.5 7s15 -2.5 21 -7.5
s9 -12.5 9 -22.5s-3 -17.333 -9 -22s-13 -7 -21 -7z" />
    <glyph glyph-name="Eogonek" unicode="&#x118;" horiz-adv-x="487" 
d="M81 740h357.998v-34h-324v-313h291v-34h-291v-325h333v-53c-32 -17.333 -54.833 -35 -68.5 -53s-20.5 -39 -20.5 -63c0 -18 3.83301 -31 11.5 -39s19.834 -12 36.501 -12c14.667 0 28.334 3.33301 41.001 10v-32c-14 -8 -29.333 -12 -46 -12
c-23.333 0 -42 7.33301 -56 22s-21 34.667 -21 60c0 53.333 31.333 99.333 94 138h-338v740z" />
    <glyph glyph-name="eogonek" unicode="&#x119;" horiz-adv-x="424" 
d="M316 -198c-23.333 0 -42 7.33105 -56 21.998s-21 34.667 -21 60c0 42.667 19.667 80.667 59 114c-18 -4.66699 -37.667 -7 -59 -7c-62 0 -110 23.333 -144 70s-51 112.334 -51 197.001c0 94.667 16.167 166.834 48.5 216.501s79.166 74.5 140.499 74.5
c48.667 0 86 -19 112 -57s39 -93 39 -165c0 -16 -0.333008 -29.167 -1 -39.5s-1.66699 -20.833 -3 -31.5h-300c1.33301 -74 15.666 -131 42.999 -171s66 -60 116 -60c21.333 0 41 2.5 59 7.5s37.667 13.167 59 24.5l5 -35v-19c-32 -17.333 -54.833 -35 -68.5 -53
s-20.5 -39 -20.5 -63c0 -18 3.83301 -31 11.5 -39s19.834 -12 36.501 -12c14.667 0 28.334 3.33301 41.001 10v-32c-14 -8 -29.333 -12 -46 -12zM233 514.998c-46 0 -82.168 -19.502 -108.501 -58.502s-41.166 -94.5 -44.499 -166.5h268c0 42 -2.33301 77.333 -7 106
s-11.834 51.834 -21.501 69.501s-21.667 30.334 -36 38.001s-31.166 11.5 -50.499 11.5z" />
    <glyph glyph-name="Ecaron" unicode="&#x11a;" horiz-adv-x="487" 
d="M81 740h358v-34h-324v-313h291v-34h-291v-325h333v-34h-367v740zM140 912l121 -72l121 72v-41l-121 -72l-121 72v41z" />
    <glyph glyph-name="ecaron" unicode="&#x11b;" horiz-adv-x="424" 
d="M239 -9c-62 0 -109.998 23.3311 -143.998 69.998s-51 112.334 -51 197.001c0 94.667 16.167 166.834 48.5 216.501s79.166 74.5 140.499 74.5c48.667 0 86 -19 112 -57s39 -93 39 -165c0 -16 -0.333008 -29.167 -1 -39.5s-1.66699 -20.833 -3 -31.5h-300
c1.33301 -74 15.666 -131 42.999 -171s66 -60 116 -60c21.333 0 41 2.5 59 7.5s37.667 13.167 59 24.5l5 -35c-37.333 -20.667 -78.333 -31 -123 -31zM233.002 514.998c-46 0 -82.168 -19.502 -108.501 -58.502s-41.166 -94.5 -44.499 -166.5h268
c0 42 -2.33301 77.333 -7 106s-11.834 51.834 -21.501 69.501s-21.667 30.334 -36 38.001s-31.166 11.5 -50.499 11.5zM95.001 767.996l121 -72l121 72v-41l-121 -72l-121 72v41z" />
    <glyph glyph-name="Gcircumflex" unicode="&#x11c;" horiz-adv-x="541" 
d="M354 -10c-54 0.666992 -100.33 8.33398 -138.997 23.001s-70.167 37.334 -94.5 68.001s-42.333 69.834 -54 117.501s-17.5 104.5 -17.5 170.5c0 68.667 5.5 127 16.5 175s28.667 87.167 53 117.5s55.666 52.333 93.999 66s84.833 20.5 139.5 20.5
c7.33301 0 16.166 -0.333008 26.499 -1s21.5 -1.66699 33.5 -3s24.167 -2.83301 36.5 -4.5s24.166 -3.5 35.499 -5.5v-34c-22 4.66699 -44.167 8.16699 -66.5 10.5s-42.833 3.5 -61.5 3.5c-49.333 0 -91.166 -6.16699 -125.499 -18.5s-62.333 -32.333 -84 -60
s-37.334 -63.334 -47.001 -107.001s-14.5 -96.834 -14.5 -159.501c0 -120 21.167 -207.5 63.5 -262.5s109.833 -82.5 202.5 -82.5c9.33301 0 22.833 0.666992 40.5 2s36.167 3 55.5 5v345h34v-374c-26 -4.66699 -48.333 -7.83398 -67 -9.50098s-38.667 -2.5 -60 -2.5z
M208.003 860l121 72l121 -72v-41l-121 72l-121 -72v41z" />
    <glyph glyph-name="gcircumflex" unicode="&#x11d;" horiz-adv-x="458" 
d="M208 -220c-42 0 -80.999 7.66797 -116.999 23.001l4 35c20 -8.66699 38.833 -14.834 56.5 -18.501s36.5 -5.5 56.5 -5.5c26 0 48.167 4.16699 66.5 12.5s33.5 21.333 45.5 39s21 40.5 27 68.5s9.33301 61.667 10 101v19h-4c-32 -42 -76.333 -63 -133 -63
c-60 0 -104.333 22.833 -133 68.5s-43 116.167 -43 211.5c0 87.333 18.667 155.5 56 204.5s89.666 73.5 156.999 73.5c26 0 49 -1.5 69 -4.5s41.333 -8.16699 64 -15.5v-471c0 -98 -14.167 -168.833 -42.5 -212.5s-74.833 -65.5 -139.5 -65.5zM218.001 25.001
c16 0 32.1699 2.5 48.5029 7.5s31.166 11.667 44.499 20s24.166 17.5 32.499 27.5s12.5 20 12.5 30v394c-24 4 -43 6.83301 -57 8.5s-28 2.5 -42 2.5c-56.667 0 -100.334 -21.167 -131.001 -63.5s-46 -102.833 -46 -181.5c0 -78 12 -138.333 36 -181s58 -64 102 -64z
M122.004 682.001l121 72l121 -72v-41l-121 72l-121 -72v41z" />
    <glyph glyph-name="Gbreve" unicode="&#x11e;" horiz-adv-x="541" 
d="M354 -10c-54 0.666992 -100.33 8.33398 -138.997 23.001s-70.167 37.334 -94.5 68.001s-42.333 69.834 -54 117.501s-17.5 104.5 -17.5 170.5c0 68.667 5.5 127 16.5 175s28.667 87.167 53 117.5s55.666 52.333 93.999 66s84.833 20.5 139.5 20.5
c7.33301 0 16.166 -0.333008 26.499 -1s21.5 -1.66699 33.5 -3s24.167 -2.83301 36.5 -4.5s24.166 -3.5 35.499 -5.5v-34c-22 4.66699 -44.167 8.16699 -66.5 10.5s-42.833 3.5 -61.5 3.5c-49.333 0 -91.166 -6.16699 -125.499 -18.5s-62.333 -32.333 -84 -60
s-37.334 -63.334 -47.001 -107.001s-14.5 -96.834 -14.5 -159.501c0 -120 21.167 -207.5 63.5 -262.5s109.833 -82.5 202.5 -82.5c9.33301 0 22.833 0.666992 40.5 2s36.167 3 55.5 5v345h34v-374c-26 -4.66699 -48.333 -7.83398 -67 -9.50098s-38.667 -2.5 -60 -2.5z
M331.003 816c-42 0 -75 11.667 -99 35s-36 55.666 -36 96.999h34c0 -30.667 8.83301 -54.667 26.5 -72s42.5 -26 74.5 -26s56.833 8.66699 74.5 26s26.5 41.333 26.5 72h34c0 -41.333 -12 -73.666 -36 -96.999s-57 -35 -99 -35z" />
    <glyph glyph-name="gbreve" unicode="&#x11f;" horiz-adv-x="458" 
d="M208 -220c-42 0 -80.999 7.66797 -116.999 23.001l4 35c20 -8.66699 38.833 -14.834 56.5 -18.501s36.5 -5.5 56.5 -5.5c26 0 48.167 4.16699 66.5 12.5s33.5 21.333 45.5 39s21 40.5 27 68.5s9.33301 61.667 10 101v19h-4c-32 -42 -76.333 -63 -133 -63
c-60 0 -104.333 22.833 -133 68.5s-43 116.167 -43 211.5c0 87.333 18.667 155.5 56 204.5s89.666 73.5 156.999 73.5c26 0 49 -1.5 69 -4.5s41.333 -8.16699 64 -15.5v-471c0 -98 -14.167 -168.833 -42.5 -212.5s-74.833 -65.5 -139.5 -65.5zM218.001 25.001
c16 0 32.1699 2.5 48.5029 7.5s31.166 11.667 44.499 20s24.166 17.5 32.499 27.5s12.5 20 12.5 30v394c-24 4 -43 6.83301 -57 8.5s-28 2.5 -42 2.5c-56.667 0 -100.334 -21.167 -131.001 -63.5s-46 -102.833 -46 -181.5c0 -78 12 -138.333 36 -181s58 -64 102 -64z
M243.004 622.001c-42 0 -75 11.667 -99 35s-36 55.666 -36 96.999h34c0 -30.667 8.83301 -54.667 26.5 -72s42.5 -26 74.5 -26s56.833 8.66699 74.5 26s26.5 41.333 26.5 72h34c0 -41.333 -12 -73.666 -36 -96.999s-57 -35 -99 -35z" />
    <glyph glyph-name="Gdotaccent" unicode="&#x120;" horiz-adv-x="541" 
d="M354 -10c-54 0.666992 -100.33 8.33398 -138.997 23.001s-70.167 37.334 -94.5 68.001s-42.333 69.834 -54 117.501s-17.5 104.5 -17.5 170.5c0 68.667 5.5 127 16.5 175s28.667 87.167 53 117.5s55.666 52.333 93.999 66s84.833 20.5 139.5 20.5
c7.33301 0 16.166 -0.333008 26.499 -1s21.5 -1.66699 33.5 -3s24.167 -2.83301 36.5 -4.5s24.166 -3.5 35.499 -5.5v-34c-22 4.66699 -44.167 8.16699 -66.5 10.5s-42.833 3.5 -61.5 3.5c-49.333 0 -91.166 -6.16699 -125.499 -18.5s-62.333 -32.333 -84 -60
s-37.334 -63.334 -47.001 -107.001s-14.5 -96.834 -14.5 -159.501c0 -120 21.167 -207.5 63.5 -262.5s109.833 -82.5 202.5 -82.5c9.33301 0 22.833 0.666992 40.5 2s36.167 3 55.5 5v345h34v-374c-26 -4.66699 -48.333 -7.83398 -67 -9.50098s-38.667 -2.5 -60 -2.5z
M329.003 799c-8 0 -14.833 2.33203 -20.5 6.99902s-8.5 12 -8.5 22c0 10.667 2.83301 18.334 8.5 23.001s12.5 7 20.5 7s15 -2.5 21 -7.5s9 -12.5 9 -22.5s-3 -17.333 -9 -22s-13 -7 -21 -7z" />
    <glyph glyph-name="gdotaccent" unicode="&#x121;" horiz-adv-x="458" 
d="M208 -220c-42 0 -80.999 7.66797 -116.999 23.001l4 35c20 -8.66699 38.833 -14.834 56.5 -18.501s36.5 -5.5 56.5 -5.5c26 0 48.167 4.16699 66.5 12.5s33.5 21.333 45.5 39s21 40.5 27 68.5s9.33301 61.667 10 101v19h-4c-32 -42 -76.333 -63 -133 -63
c-60 0 -104.333 22.833 -133 68.5s-43 116.167 -43 211.5c0 87.333 18.667 155.5 56 204.5s89.666 73.5 156.999 73.5c26 0 49 -1.5 69 -4.5s41.333 -8.16699 64 -15.5v-471c0 -98 -14.167 -168.833 -42.5 -212.5s-74.833 -65.5 -139.5 -65.5zM218.001 25.001
c16 0 32.1699 2.5 48.5029 7.5s31.166 11.667 44.499 20s24.166 17.5 32.499 27.5s12.5 20 12.5 30v394c-24 4 -43 6.83301 -57 8.5s-28 2.5 -42 2.5c-56.667 0 -100.334 -21.167 -131.001 -63.5s-46 -102.833 -46 -181.5c0 -78 12 -138.333 36 -181s58 -64 102 -64z
M243.004 634.001c-8 0 -14.833 2.33203 -20.5 6.99902s-8.5 12 -8.5 22c0 10.667 2.83301 18.334 8.5 23.001s12.5 7 20.5 7s15 -2.5 21 -7.5s9 -12.5 9 -22.5s-3 -17.333 -9 -22s-13 -7 -21 -7z" />
    <glyph glyph-name="Gcommaaccent" unicode="&#x122;" horiz-adv-x="541" 
d="M354 -10c-54 0.666992 -100.33 8.33398 -138.997 23.001s-70.167 37.334 -94.5 68.001s-42.333 69.834 -54 117.501s-17.5 104.5 -17.5 170.5c0 68.667 5.5 127 16.5 175s28.667 87.167 53 117.5s55.666 52.333 93.999 66s84.833 20.5 139.5 20.5
c7.33301 0 16.166 -0.333008 26.499 -1s21.5 -1.66699 33.5 -3s24.167 -2.83301 36.5 -4.5s24.166 -3.5 35.499 -5.5v-34c-22 4.66699 -44.167 8.16699 -66.5 10.5s-42.833 3.5 -61.5 3.5c-49.333 0 -91.166 -6.16699 -125.499 -18.5s-62.333 -32.333 -84 -60
s-37.334 -63.334 -47.001 -107.001s-14.5 -96.834 -14.5 -159.501c0 -120 21.167 -207.5 63.5 -262.5s109.833 -82.5 202.5 -82.5c9.33301 0 22.833 0.666992 40.5 2s36.167 3 55.5 5v345h34v-374c-26 -4.66699 -48.333 -7.83398 -67 -9.50098s-38.667 -2.5 -60 -2.5z
M325.003 -66h35l-52 -154h-35z" />
    <glyph glyph-name="gcommaaccent" unicode="&#x123;" horiz-adv-x="458" 
d="M355 818l-51 -150h-30l52 150h29zM208 -220c-42 0 -80.999 7.66797 -116.999 23.001l4 35c20 -8.66699 38.833 -14.834 56.5 -18.501s36.5 -5.5 56.5 -5.5c26 0 48.167 4.16699 66.5 12.5s33.5 21.333 45.5 39s21 40.5 27 68.5s9.33301 61.667 10 101v19h-4
c-32 -42 -76.333 -63 -133 -63c-60 0 -104.333 22.833 -133 68.5s-43 116.167 -43 211.5c0 87.333 18.667 155.5 56 204.5s89.666 73.5 156.999 73.5c26 0 49 -1.5 69 -4.5s41.333 -8.16699 64 -15.5v-471c0 -98 -14.167 -168.833 -42.5 -212.5s-74.833 -65.5 -139.5 -65.5z
M218.001 25.001c16 0 32.1699 2.5 48.5029 7.5s31.166 11.667 44.499 20s24.166 17.5 32.499 27.5s12.5 20 12.5 30v394c-24 4 -43 6.83301 -57 8.5s-28 2.5 -42 2.5c-56.667 0 -100.334 -21.167 -131.001 -63.5s-46 -102.833 -46 -181.5c0 -78 12 -138.333 36 -181
s58 -64 102 -64z" />
    <glyph glyph-name="Hcircumflex" unicode="&#x124;" horiz-adv-x="601" 
d="M81 740h34v-346h371v346h34v-740h-34v360h-371v-360h-34v740zM167 860l121 72l121 -72v-41l-121 72l-121 -72v41z" />
    <glyph glyph-name="hcircumflex" unicode="&#x125;" horiz-adv-x="454" 
d="M69 808h34.001v-326h4c29.333 21.333 58.666 38 87.999 50s56.666 18 81.999 18c20.667 0 38.167 -2.33301 52.5 -7s25.833 -12.5 34.5 -23.5s14.834 -25.5 18.501 -43.5s5.5 -40.333 5.5 -67v-409h-34v409c0 38.667 -5.83301 66.167 -17.5 82.5s-31.5 24.5 -59.5 24.5
c-52 0 -110 -22.333 -174 -67v-449h-34v808zM120.001 858l121 72l121 -72v-41l-121 72l-121 -72v41z" />
    <glyph glyph-name="Hbar" unicode="&#x126;" horiz-adv-x="637" 
d="M1 575h99v165h34v-165h371v165h34v-165h98v-25h-98v-550h-34v360h-371v-360h-34v550h-99v25zM505 394v156h-371v-156h371z" />
    <glyph glyph-name="hbar" unicode="&#x127;" horiz-adv-x="454" 
d="M-21 683h90.001v125h34v-125h137v-23h-137v-178h4c29.333 21.333 58.666 38 87.999 50s56.666 18 81.999 18c20.667 0 38.167 -2.33301 52.5 -7s25.833 -12.5 34.5 -23.5s14.834 -25.5 18.501 -43.5s5.5 -40.333 5.5 -67v-409h-34v409
c0 38.667 -5.83301 66.167 -17.5 82.5s-31.5 24.5 -59.5 24.5c-52 0 -110 -22.333 -174 -67v-449h-34v660h-90v23z" />
    <glyph glyph-name="Itilde" unicode="&#x128;" horiz-adv-x="196" 
d="M81 740h34v-740h-34v740zM-40 850c9.33301 11.333 21.832 22.332 37.499 32.999s31.167 16 46.5 16c12.667 0 24 -2.16699 34 -6.5s19.5 -9.33301 28.5 -15s18 -10.667 27 -15s18.833 -6.5 29.5 -6.5s20.5 3.66699 29.5 11s16.167 17 21.5 29l28 -20
c-6.66699 -15.333 -17.667 -28.166 -33 -38.499s-30.666 -15.5 -45.999 -15.5c-12.667 0 -24 2.16699 -34 6.5s-19.5 9.33301 -28.5 15s-18 10.667 -27 15s-18.833 6.5 -29.5 6.5c-11.333 0 -22.333 -4 -33 -12s-19.667 -17 -27 -27z" />
    <glyph glyph-name="itilde" unicode="&#x129;" horiz-adv-x="176" 
d="M-55 660c9.33301 11.333 21.832 22.332 37.499 32.999s31.167 16 46.5 16c12.667 0 24 -2.16699 34 -6.5s19.5 -9.33301 28.5 -15s18 -10.667 27 -15s18.833 -6.5 29.5 -6.5s20.5 3.66699 29.5 11s16.167 17 21.5 29l28 -20
c-6.66699 -15.333 -17.667 -28.166 -33 -38.499s-30.666 -15.5 -45.999 -15.5c-12.667 0 -24 2.16699 -34 6.5s-19.5 9.33301 -28.5 15s-18 10.667 -27 15s-18.833 6.5 -29.5 6.5c-11.333 0 -22.333 -4 -33 -12s-19.667 -17 -27 -27zM70.999 539.999h34v-540h-34v540z" />
    <glyph glyph-name="Imacron" unicode="&#x12a;" horiz-adv-x="196" 
d="M81 740h34v-740h-34v740zM-13 876h209v-34h-209v34z" />
    <glyph glyph-name="imacron" unicode="&#x12b;" horiz-adv-x="176" 
d="M71 540h34v-540h-34v540zM-26 687h229v-34h-229v34z" />
    <glyph glyph-name="Ibreve" unicode="&#x12c;" horiz-adv-x="196" 
d="M81 740h34v-740h-34v740zM103 816c-42 0 -75 11.667 -99 35s-36 55.666 -36 96.999h34c0 -30.667 8.83301 -54.667 26.5 -72s42.5 -26 74.5 -26s56.833 8.66699 74.5 26s26.5 41.333 26.5 72h34c0 -41.333 -12 -73.666 -36 -96.999s-57 -35 -99 -35z" />
    <glyph glyph-name="ibreve" unicode="&#x12d;" horiz-adv-x="176" 
d="M88 622c-42 0 -75 11.667 -99 35s-36 55.666 -36 96.999h34c0 -30.667 8.83301 -54.667 26.5 -72s42.5 -26 74.5 -26s56.833 8.66699 74.5 26s26.5 41.333 26.5 72h34c0 -41.333 -12 -73.666 -36 -96.999s-57 -35 -99 -35zM71 540h34v-540h-34v540z" />
    <glyph glyph-name="Iogonek" unicode="&#x12e;" horiz-adv-x="196" 
d="M81 740h33.998v-759c-32 -17.333 -54.833 -35 -68.5 -53s-20.5 -39 -20.5 -63c0 -18 3.83301 -31 11.5 -39s19.834 -12 36.501 -12c14.667 0 28.334 3.33301 41.001 10v-32c-14 -8 -29.333 -12 -46 -12c-23.333 0 -42 7.33301 -56 22s-21 34.667 -21 60
c0 53.333 31.333 99.333 94 138h-5v740z" />
    <glyph glyph-name="iogonek" unicode="&#x12f;" horiz-adv-x="174" 
d="M70 540h33.998v-559c-32 -17.333 -54.833 -35 -68.5 -53s-20.5 -39 -20.5 -63c0 -18 3.83301 -31 11.5 -39s19.834 -12 36.501 -12c14.667 0 28.334 3.33301 41.001 10v-32c-14 -8 -29.333 -12 -46 -12c-23.333 0 -42 7.33301 -56 22s-21 34.667 -21 60
c0 53.333 31.333 99.333 94 138h-5v540zM86.998 684c-19.333 0 -29 9.66602 -29 28.999c0 20 9.66699 30 29 30c9.33301 0 16.666 -2.66699 21.999 -8s8 -12.666 8 -21.999s-2.66699 -16.5 -8 -21.5s-12.666 -7.5 -21.999 -7.5z" />
    <glyph glyph-name="Idotaccent" unicode="&#x130;" horiz-adv-x="196" 
d="M81 740h34v-740h-34v740zM101 799c-8 0 -14.833 2.33203 -20.5 6.99902s-8.5 12 -8.5 22c0 10.667 2.83301 18.334 8.5 23.001s12.5 7 20.5 7s15 -2.5 21 -7.5s9 -12.5 9 -22.5s-3 -17.333 -9 -22s-13 -7 -21 -7z" />
    <glyph glyph-name="dotlessi" unicode="&#x131;" horiz-adv-x="174" 
d="M70 540h34v-540h-34v540z" />
    <glyph glyph-name="IJ" unicode="&#x132;" horiz-adv-x="392" 
d="M81 740h34v-740h-34v740zM194 -159c17.333 36.667 31.501 68.832 42.501 96.499s19.667 54 26 79s10.666 50.333 12.999 76s3.5 54.834 3.5 87.501v560h34v-560c0 -62 -7.66699 -121.5 -23 -178.5s-39.333 -115.833 -72 -176.5z" />
    <glyph glyph-name="ij" unicode="&#x133;" horiz-adv-x="346" 
d="M87 684c-19.333 0 -29 9.66602 -29 28.999c0 20 9.66699 30 29 30c9.33301 0 16.666 -2.66699 21.999 -8s8 -12.666 8 -21.999s-2.66699 -16.5 -8 -21.5s-12.666 -7.5 -21.999 -7.5zM70 539.999h34v-540h-34v540zM261 683.999c-19.333 0 -29 9.66602 -29 28.999
c0 20 9.66699 30 29 30c9.33301 0 16.666 -2.66699 21.999 -8s8 -12.666 8 -21.999s-2.66699 -16.5 -8 -21.5s-12.666 -7.5 -21.999 -7.5zM164 -201.002c27.333 45.333 47.499 92.832 60.499 142.499s19.5 105.834 19.5 168.501v430h34v-447
c0 -56 -7.66699 -110.667 -23 -164s-37.666 -103 -66.999 -149z" />
    <glyph glyph-name="Jcircumflex" unicode="&#x134;" horiz-adv-x="196" 
d="M-2 -159c17.333 36.667 31.501 68.832 42.501 96.499s19.667 54 26 79s10.666 50.333 12.999 76s3.5 54.834 3.5 87.501v560h34v-560c0 -62 -7.66699 -121.5 -23 -178.5s-39.333 -115.833 -72 -176.5zM-25.999 859.998l121 72l121 -72v-41l-121 72l-121 -72v41z" />
    <glyph glyph-name="jcircumflex" unicode="&#x135;" horiz-adv-x="173" 
d="M-39 682l121 72l121 -72v-41l-121 72l-121 -72v41zM-10 -201c27.333 45.333 47.499 92.832 60.499 142.499s19.5 105.834 19.5 168.501v430h34v-447c0 -56 -7.66699 -110.667 -23 -164s-37.666 -103 -66.999 -149z" />
    <glyph glyph-name="Kcommaaccent" unicode="&#x136;" horiz-adv-x="535" 
d="M81 740h34v-347h89l262 347h43l-253 -335l-24 -25v-4l26 -23l271 -353h-41l-276 359h-97v-359h-34v740zM262 -66h35l-52 -154h-35z" />
    <glyph glyph-name="kcommaaccent" unicode="&#x137;" horiz-adv-x="410" 
d="M69 808h34v-515h81l167 247h39l-171 -253l-12 -10v-2l13 -11l186 -264h-39l-185 261h-79v-261h-34v808zM224 -66h35l-52 -154h-35z" />
    <glyph glyph-name="kgreenlandic" unicode="&#x138;" horiz-adv-x="412" 
d="M69 540h34v-247h106l142 247h39l-146 -253l-12 -10v-2l13 -11l161 -264h-39l-160 261h-104v-261h-34v540z" />
    <glyph glyph-name="Lacute" unicode="&#x139;" horiz-adv-x="386" 
d="M81 740h34v-706h259v-34h-293v740zM95 787l79 123h38l-85 -126z" />
    <glyph glyph-name="lacute" unicode="&#x13a;" horiz-adv-x="178" 
d="M72 808h34v-808h-34v808zM80 848l75 182h36l-87 -188z" />
    <glyph glyph-name="Lcommaaccent" unicode="&#x13b;" horiz-adv-x="386" 
d="M81 740h34v-706h259v-34h-293v740zM224 -66h35l-52 -154h-35z" />
    <glyph glyph-name="lcommaaccent" unicode="&#x13c;" horiz-adv-x="178" 
d="M72 808h34v-808h-34v808zM87 -66h35l-52 -154h-35z" />
    <glyph glyph-name="Lcaron" unicode="&#x13d;" horiz-adv-x="389" 
d="M81 740h34v-706h259v-34h-293v740zM298 740h34l-20 -228h-14v228z" />
    <glyph glyph-name="lcaron" unicode="&#x13e;" horiz-adv-x="178" 
d="M72 808h34v-808h-34v808zM171 808h34l-20 -228h-14v228z" />
    <glyph glyph-name="Ldot" unicode="&#x13f;" horiz-adv-x="387" 
d="M81 740h34v-706h259v-34h-293v740zM284 340c-8 0 -14.833 2.33105 -20.5 6.99805s-8.5 12.334 -8.5 23.001s2.83301 18.334 8.5 23.001s12.5 7 20.5 7s15 -2.5 21 -7.5s9 -12.5 9 -22.5s-3 -17.5 -9 -22.5s-13 -7.5 -21 -7.5z" />
    <glyph glyph-name="ldot" unicode="&#x140;" horiz-adv-x="225" 
d="M72 808h34v-808h-34v808zM201 340c-8 0 -14.833 2.33105 -20.5 6.99805s-8.5 12.334 -8.5 23.001s2.83301 18.334 8.5 23.001s12.5 7 20.5 7s15 -2.5 21 -7.5s9 -12.5 9 -22.5s-3 -17.5 -9 -22.5s-13 -7.5 -21 -7.5z" />
    <glyph glyph-name="Lslash" unicode="&#x141;" horiz-adv-x="411" 
d="M13 267l93 91v382h34v-348l97 95v-47l-97 -95v-311h259v-34h-293v311l-93 -91v47z" />
    <glyph glyph-name="lslash" unicode="&#x142;" horiz-adv-x="271" 
d="M23 269l86 83v456h34v-423l107 103v-33l-107 -103v-352h-34v319l-86 -83v33z" />
    <glyph glyph-name="Nacute" unicode="&#x143;" horiz-adv-x="640" 
d="M81 740h40l353 -596l47 -85l4 1v680h34v-740h-41l-349 590l-50 90l-4 -1v-679h-34v740zM308 787l79 123h38l-85 -126z" />
    <glyph glyph-name="nacute" unicode="&#x144;" horiz-adv-x="454" 
d="M69 540h30.001l4 -58h4c29.333 21.333 58.666 38 87.999 50s56.666 18 81.999 18c20.667 0 38.167 -2.33301 52.5 -7s25.833 -12.5 34.5 -23.5s14.834 -25.5 18.501 -43.5s5.5 -40.333 5.5 -67v-409h-34v409c0 38.667 -5.83301 66.167 -17.5 82.5s-31.5 24.5 -59.5 24.5
c-52 0 -110 -22.333 -174 -67v-449h-34v540zM221.001 616l75 182h36l-87 -188z" />
    <glyph glyph-name="Ncommaaccent" unicode="&#x145;" horiz-adv-x="640" 
d="M81 740h40l353 -596l47 -85l4 1v680h34v-740h-41l-349 590l-50 90l-4 -1v-679h-34v740zM338 -66h35l-52 -154h-35z" />
    <glyph glyph-name="ncommaaccent" unicode="&#x146;" horiz-adv-x="454" 
d="M69 540h30.001l4 -58h4c29.333 21.333 58.666 38 87.999 50s56.666 18 81.999 18c20.667 0 38.167 -2.33301 52.5 -7s25.833 -12.5 34.5 -23.5s14.834 -25.5 18.501 -43.5s5.5 -40.333 5.5 -67v-409h-34v409c0 38.667 -5.83301 66.167 -17.5 82.5s-31.5 24.5 -59.5 24.5
c-52 0 -110 -22.333 -174 -67v-449h-34v540zM224.001 -66h35l-52 -154h-35z" />
    <glyph glyph-name="Ncaron" unicode="&#x147;" horiz-adv-x="640" 
d="M81 740h40l353 -596l47 -85l4 1v680h34v-740h-41l-349 590l-50 90l-4 -1v-679h-34v740zM210 912l121 -72l121 72v-41l-121 -72l-121 72v41z" />
    <glyph glyph-name="ncaron" unicode="&#x148;" horiz-adv-x="454" 
d="M69 540h30.001l4 -58h4c29.333 21.333 58.666 38 87.999 50s56.666 18 81.999 18c20.667 0 38.167 -2.33301 52.5 -7s25.833 -12.5 34.5 -23.5s14.834 -25.5 18.501 -43.5s5.5 -40.333 5.5 -67v-409h-34v409c0 38.667 -5.83301 66.167 -17.5 82.5s-31.5 24.5 -59.5 24.5
c-52 0 -110 -22.333 -174 -67v-449h-34v540zM117.001 768l121 -72l121 72v-41l-121 -72l-121 72v41z" />
    <glyph glyph-name="napostrophe" unicode="&#x149;" horiz-adv-x="500" 
d="M115 540h30.001l4 -58h4c29.333 21.333 58.666 38 87.999 50s56.666 18 81.999 18c20.667 0 38.167 -2.33301 52.5 -7s25.833 -12.5 34.5 -23.5s14.834 -25.5 18.501 -43.5s5.5 -40.333 5.5 -67v-409h-34v409c0 38.667 -5.83301 66.167 -17.5 82.5s-31.5 24.5 -59.5 24.5
c-52 0 -110 -22.333 -174 -67v-449h-34v540zM71.001 808v-4l-24 -224h-10v228h34z" />
    <glyph glyph-name="Eng" unicode="&#x14a;" horiz-adv-x="640" 
d="M448 -168c15.333 29.333 28.999 58.498 40.999 87.498s21.667 55.833 29 80.5l-349 590l-50 90l-4 -1v-679h-34v740h40l353 -596l47 -85l4 1v680h34v-694c0 -13.333 -2.16699 -29 -6.5 -47s-10.166 -37.167 -17.499 -57.5s-16 -40.666 -26 -60.999
s-20.667 -39.166 -32 -56.499z" />
    <glyph glyph-name="eng" unicode="&#x14b;" horiz-adv-x="453" 
d="M285 -200c10 21.333 19.334 44.5 28.001 69.5s16 50.5 22 76.5s10.667 51.833 14 77.5s5 49.5 5 71.5v314c0 38.667 -5.83301 66.167 -17.5 82.5s-31.5 24.5 -59.5 24.5c-52 0 -110 -22.333 -174 -67v-449h-34v540h30l4 -58h4c29.333 21.333 58.666 38 87.999 50
s56.666 18 81.999 18c20.667 0 38.167 -2.33301 52.5 -7s25.833 -12.5 34.5 -23.5s14.834 -25.5 18.501 -43.5s5.5 -40.333 5.5 -67v-313c0 -26 -2 -53.333 -6 -82s-9.33301 -57 -16 -85s-14.667 -54.5 -24 -79.5s-19.333 -46.167 -30 -63.5z" />
    <glyph glyph-name="Omacron" unicode="&#x14c;" horiz-adv-x="586" 
d="M293 -10c-162.667 0 -244 126.332 -244 378.999c0 128.667 20 224.334 60 287.001s101.333 94 184 94c162.667 0 244 -127 244 -381c0 -252.667 -81.333 -379 -244 -379zM293 23.999c72.667 0 125.834 27.668 159.501 83.001s50.5 142.666 50.5 261.999
c0 118 -17.167 205.333 -51.5 262s-87.166 85 -158.499 85c-72.667 0 -125.834 -27.833 -159.501 -83.5s-50.5 -143.5 -50.5 -263.5s16.667 -207.5 50 -262.5s86.666 -82.5 159.999 -82.5zM179 876h209v-34h-209v34z" />
    <glyph glyph-name="omacron" unicode="&#x14d;" horiz-adv-x="468" 
d="M234 -8c-62.667 0 -110 23.5 -142 70.5s-48 116.167 -48 207.5s16.167 160.833 48.5 208.5s79.5 71.5 141.5 71.5c62.667 0 110 -23.833 142 -71.5s48 -117.167 48 -208.5s-16 -160.5 -48 -207.5s-79.333 -70.5 -142 -70.5zM234 26c102.667 0 154 81.333 154 244
c0 164 -51.333 246 -154 246s-154 -82 -154 -246c0 -162.667 51.333 -244 154 -244zM106 687h229v-34h-229v34z" />
    <glyph glyph-name="Obreve" unicode="&#x14e;" horiz-adv-x="586" 
d="M293 -10c-162.667 0 -244 126.332 -244 378.999c0 128.667 20 224.334 60 287.001s101.333 94 184 94c162.667 0 244 -127 244 -381c0 -252.667 -81.333 -379 -244 -379zM293 23.999c72.667 0 125.834 27.668 159.501 83.001s50.5 142.666 50.5 261.999
c0 118 -17.167 205.333 -51.5 262s-87.166 85 -158.499 85c-72.667 0 -125.834 -27.833 -159.501 -83.5s-50.5 -143.5 -50.5 -263.5s16.667 -207.5 50 -262.5s86.666 -82.5 159.999 -82.5zM295 816c-42 0 -75 11.667 -99 35s-36 55.666 -36 96.999h34
c0 -30.667 8.83301 -54.667 26.5 -72s42.5 -26 74.5 -26s56.833 8.66699 74.5 26s26.5 41.333 26.5 72h34c0 -41.333 -12 -73.666 -36 -96.999s-57 -35 -99 -35z" />
    <glyph glyph-name="obreve" unicode="&#x14f;" horiz-adv-x="468" 
d="M234 -8c-62.667 0 -110 23.5 -142 70.5s-48 116.167 -48 207.5s16.167 160.833 48.5 208.5s79.5 71.5 141.5 71.5c62.667 0 110 -23.833 142 -71.5s48 -117.167 48 -208.5s-16 -160.5 -48 -207.5s-79.333 -70.5 -142 -70.5zM234 26c102.667 0 154 81.333 154 244
c0 164 -51.333 246 -154 246s-154 -82 -154 -246c0 -162.667 51.333 -244 154 -244zM220 622c-42 0 -75 11.667 -99 35s-36 55.666 -36 96.999h34c0 -30.667 8.83301 -54.667 26.5 -72s42.5 -26 74.5 -26s56.833 8.66699 74.5 26s26.5 41.333 26.5 72h34
c0 -41.333 -12 -73.666 -36 -96.999s-57 -35 -99 -35z" />
    <glyph glyph-name="Ohungarumlaut" unicode="&#x150;" horiz-adv-x="586" 
d="M293 -10c-162.667 0 -244 126.332 -244 378.999c0 128.667 20 224.334 60 287.001s101.333 94 184 94c162.667 0 244 -127 244 -381c0 -252.667 -81.333 -379 -244 -379zM293 23.999c72.667 0 125.834 27.668 159.501 83.001s50.5 142.666 50.5 261.999
c0 118 -17.167 205.333 -51.5 262s-87.166 85 -158.499 85c-72.667 0 -125.834 -27.833 -159.501 -83.5s-50.5 -143.5 -50.5 -263.5s16.667 -207.5 50 -262.5s86.666 -82.5 159.999 -82.5zM195 798l79 112h38l-85 -126zM322 798l79 112h38l-85 -126z" />
    <glyph glyph-name="ohungarumlaut" unicode="&#x151;" horiz-adv-x="468" 
d="M234 -8c-62.667 0 -110 23.5 -142 70.5s-48 116.167 -48 207.5s16.167 160.833 48.5 208.5s79.5 71.5 141.5 71.5c62.667 0 110 -23.833 142 -71.5s48 -117.167 48 -208.5s-16 -160.5 -48 -207.5s-79.333 -70.5 -142 -70.5zM234 26c102.667 0 154 81.333 154 244
c0 164 -51.333 246 -154 246s-154 -82 -154 -246c0 -162.667 51.333 -244 154 -244zM131 620l75 178h40l-87 -188zM272 620l75 178h40l-87 -188z" />
    <glyph glyph-name="OE" unicode="&#x152;" horiz-adv-x="739" 
d="M294 -2c-162.667 0 -244 123.667 -244 371c0 248.667 81.333 373 244 373h19c7.33301 0 14.833 -0.166992 22.5 -0.5l22 -1c7 -0.333008 12.833 -0.5 17.5 -0.5h314v-34h-284v-313h251v-34h-251v-325h293v-34h-323c-4.66699 -0 -10.5 -0.166992 -17.5 -0.5l-22 -1
c-7.66699 -0.333008 -15.167 -0.5 -22.5 -0.5h-19zM294 32c10 0 23.0029 0.168945 39.0029 0.501953s28.667 0.833008 38 1.5v671c-9.33301 1.33301 -21.833 2.16602 -37.5 2.49902s-28.834 0.5 -39.501 0.5c-72.667 0 -125.834 -27.333 -159.501 -82
s-50.5 -140.334 -50.5 -257.001c0 -117.333 16.667 -202.833 50 -256.5s86.666 -80.5 159.999 -80.5z" />
    <glyph glyph-name="oe" unicode="&#x153;" horiz-adv-x="769" 
d="M584 -9c-46 0 -83.665 13.5 -112.998 40.5s-50.333 65.5 -63 115.5h-4c-24 -103.333 -80.667 -155 -170 -155c-62.667 0 -110 23.5 -142 70.5s-48 116.167 -48 207.5s16.167 160.833 48.5 208.5s79.5 71.5 141.5 71.5c46 0 83.167 -13.667 111.5 -41
s48.166 -67.333 59.499 -120h4c12.667 52 33 91.667 61 119s64 41 108 41c48.667 0 86 -19 112 -57s39 -93 39 -165c0 -16 -0.333008 -29.167 -1 -39.5s-1.66699 -20.833 -3 -31.5h-300c1.33301 -74 15.666 -131 42.999 -171s66 -60 116 -60c21.333 0 41 2.5 59 7.5
s37.667 13.167 59 24.5l5 -35c-37.333 -20.667 -78.333 -31 -123 -31zM234.002 26c102.667 0 154 81.333 154 244c0 164 -51.333 246 -154 246s-154 -82 -154 -246c0 -162.667 51.333 -244 154 -244zM692.002 290c-2 79.333 -12.001 136.667 -30.001 172s-46 53 -84 53
c-46 0 -82.167 -19.5 -108.5 -58.5s-41.166 -94.5 -44.499 -166.5h267z" />
    <glyph glyph-name="Racute" unicode="&#x154;" horiz-adv-x="512" 
d="M293 289c-13.333 -2.66699 -27.167 -4.49902 -41.5 -5.49902s-29.833 -1.5 -46.5 -1.5c-15.333 0 -30.333 0.5 -45 1.5s-29.667 2.16699 -45 3.5v-287h-34v735c26 5.33301 50.5 9.5 73.5 12.5s45.167 4.5 66.5 4.5c84 0 145.5 -18.833 184.5 -56.5
s58.5 -96.834 58.5 -177.501c0 -60.667 -11 -109 -33 -145s-57 -61.333 -105 -76l143 -297h-37zM215.999 316.001c74 0 128.165 16.167 162.498 48.5s51.5 83.5 51.5 153.5c0 68.667 -16.333 119.167 -49 151.5s-84 48.5 -154 48.5c-14.667 0 -31.167 -1 -49.5 -3
s-39.166 -4.66699 -62.499 -8v-384c19.333 -2.66699 37.333 -4.5 54 -5.5s32.334 -1.5 47.001 -1.5zM242.997 787.001l79 123h38l-85 -126z" />
    <glyph glyph-name="racute" unicode="&#x155;" horiz-adv-x="285" 
d="M69 540l30 -0.00195312l4 -58h4c16 12.667 37.5 24.834 64.5 36.501s57.167 21.834 90.5 30.501h11v-42h-13c-68 -12 -120.333 -31.333 -157 -58v-449h-34v540zM148 615.998l75 182h36l-87 -188z" />
    <glyph glyph-name="Rcommaaccent" unicode="&#x156;" horiz-adv-x="512" 
d="M293 289c-13.333 -2.66699 -27.167 -4.49902 -41.5 -5.49902s-29.833 -1.5 -46.5 -1.5c-15.333 0 -30.333 0.5 -45 1.5s-29.667 2.16699 -45 3.5v-287h-34v735c26 5.33301 50.5 9.5 73.5 12.5s45.167 4.5 66.5 4.5c84 0 145.5 -18.833 184.5 -56.5
s58.5 -96.834 58.5 -177.501c0 -60.667 -11 -109 -33 -145s-57 -61.333 -105 -76l143 -297h-37zM215.999 316.001c74 0 128.165 16.167 162.498 48.5s51.5 83.5 51.5 153.5c0 68.667 -16.333 119.167 -49 151.5s-84 48.5 -154 48.5c-14.667 0 -31.167 -1 -49.5 -3
s-39.166 -4.66699 -62.499 -8v-384c19.333 -2.66699 37.333 -4.5 54 -5.5s32.334 -1.5 47.001 -1.5zM262.997 -65.999h35l-52 -154h-35z" />
    <glyph glyph-name="rcommaaccent" unicode="&#x157;" horiz-adv-x="285" 
d="M69 540l30 -0.00195312l4 -58h4c16 12.667 37.5 24.834 64.5 36.501s57.167 21.834 90.5 30.501h11v-42h-13c-68 -12 -120.333 -31.333 -157 -58v-449h-34v540zM82 -66.002h35l-52 -154h-35z" />
    <glyph glyph-name="Rcaron" unicode="&#x158;" horiz-adv-x="512" 
d="M293 289c-13.333 -2.66699 -27.167 -4.49902 -41.5 -5.49902s-29.833 -1.5 -46.5 -1.5c-15.333 0 -30.333 0.5 -45 1.5s-29.667 2.16699 -45 3.5v-287h-34v735c26 5.33301 50.5 9.5 73.5 12.5s45.167 4.5 66.5 4.5c84 0 145.5 -18.833 184.5 -56.5
s58.5 -96.834 58.5 -177.501c0 -60.667 -11 -109 -33 -145s-57 -61.333 -105 -76l143 -297h-37zM215.999 316.001c74 0 128.165 16.167 162.498 48.5s51.5 83.5 51.5 153.5c0 68.667 -16.333 119.167 -49 151.5s-84 48.5 -154 48.5c-14.667 0 -31.167 -1 -49.5 -3
s-39.166 -4.66699 -62.499 -8v-384c19.333 -2.66699 37.333 -4.5 54 -5.5s32.334 -1.5 47.001 -1.5zM144.997 912.001l121 -72l121 72v-41l-121 -72l-121 72v41z" />
    <glyph glyph-name="rcaron" unicode="&#x159;" horiz-adv-x="285" 
d="M69 540l30 -0.00195312l4 -58h4c16 12.667 37.5 24.834 64.5 36.501s57.167 21.834 90.5 30.501h11v-42h-13c-68 -12 -120.333 -31.333 -157 -58v-449h-34v540zM44 767.998l121 -72l121 72v-41l-121 -72l-121 72v41z" />
    <glyph glyph-name="Sacute" unicode="&#x15a;" horiz-adv-x="453" 
d="M219 -14c-14 0 -29.501 0.833984 -46.501 2.50098s-34 4 -51 7s-33 6.5 -48 10.5s-27.833 8.33301 -38.5 13l8 32c8.66699 -4 20.167 -7.83301 34.5 -11.5s29.666 -7 45.999 -10s32.833 -5.33301 49.5 -7s32 -2.5 46 -2.5c52 0 92.333 13.667 121 41s43 66 43 116
c0 20 -3 38.5 -9 55.5s-15.667 32.833 -29 47.5s-30.333 28.5 -51 41.5s-45.667 25.833 -75 38.5c-31.333 13.333 -58 26.833 -80 40.5s-39.667 28 -53 43s-23 31.5 -29 49.5s-9 38 -9 60c0 30 4.83301 57.333 14.5 82s23.334 45.667 41.001 63s38.834 30.833 63.501 40.5
s52 14.5 82 14.5c22.667 0 45.667 -1.5 69 -4.5s49 -7.5 77 -13.5l-8 -34c-30.667 6.66699 -57 11.334 -79 14.001s-41.667 4 -59 4c-25.333 0 -48.166 -4 -68.499 -12s-37.833 -19.167 -52.5 -33.5s-26 -31.833 -34 -52.5s-12 -43.334 -12 -68.001
c0 -18.667 2.5 -35.334 7.5 -50.001s13.5 -28.334 25.5 -41.001s27.667 -24.667 47 -36s43 -22.666 71 -33.999c34 -14 62.833 -28.333 86.5 -43s42.667 -30.5 57 -47.5s24.666 -35.5 30.999 -55.5s9.5 -43 9.5 -69c0 -60 -17.5 -106.833 -52.5 -140.5
s-83.5 -50.5 -145.5 -50.5zM220.999 787.001l79 123h38l-85 -126z" />
    <glyph glyph-name="sacute" unicode="&#x15b;" horiz-adv-x="345" 
d="M166 -12c-16.667 0 -34.165 1.32812 -52.498 3.99512s-43.166 7.66699 -74.499 15v37c21.333 -6.66699 42.333 -11.834 63 -15.501s39 -5.5 55 -5.5c37.333 0 65.666 10.167 84.999 30.5s29 48.5 29 84.5c0 32 -7.33301 57.667 -22 77s-39 34 -73 44
c-15.333 4.66699 -30.833 9.83398 -46.5 15.501s-29.834 13.834 -42.501 24.501s-22.834 24.834 -30.501 42.501s-11.5 40.834 -11.5 69.501c0 43.333 13.333 77.833 40 103.5s62.334 38.5 107.001 38.5c7.33301 0 14.166 -0.166992 20.499 -0.5
s13.333 -1.16602 21 -2.49902s16 -3 25 -5s20.167 -4.33301 33.5 -7v-36c-38.667 10.667 -71.667 16 -99 16c-35.333 0 -62.666 -9.16699 -81.999 -27.5s-29 -44.833 -29 -79.5c0 -20.667 2.66699 -37.334 8 -50.001s12.666 -23.167 21.999 -31.5s20.333 -15.166 33 -20.499
s26.667 -10.333 42 -15c44.667 -14.667 76.167 -33.667 94.5 -57s27.5 -56.333 27.5 -99c0 -47.333 -13.5 -84.166 -40.5 -110.499s-61.167 -39.5 -102.5 -39.5zM162.002 615.995l75 182h36l-87 -188z" />
    <glyph glyph-name="Scircumflex" unicode="&#x15c;" horiz-adv-x="453" 
d="M219 -14c-14 0 -29.501 0.833984 -46.501 2.50098s-34 4 -51 7s-33 6.5 -48 10.5s-27.833 8.33301 -38.5 13l8 32c8.66699 -4 20.167 -7.83301 34.5 -11.5s29.666 -7 45.999 -10s32.833 -5.33301 49.5 -7s32 -2.5 46 -2.5c52 0 92.333 13.667 121 41s43 66 43 116
c0 20 -3 38.5 -9 55.5s-15.667 32.833 -29 47.5s-30.333 28.5 -51 41.5s-45.667 25.833 -75 38.5c-31.333 13.333 -58 26.833 -80 40.5s-39.667 28 -53 43s-23 31.5 -29 49.5s-9 38 -9 60c0 30 4.83301 57.333 14.5 82s23.334 45.667 41.001 63s38.834 30.833 63.501 40.5
s52 14.5 82 14.5c22.667 0 45.667 -1.5 69 -4.5s49 -7.5 77 -13.5l-8 -34c-30.667 6.66699 -57 11.334 -79 14.001s-41.667 4 -59 4c-25.333 0 -48.166 -4 -68.499 -12s-37.833 -19.167 -52.5 -33.5s-26 -31.833 -34 -52.5s-12 -43.334 -12 -68.001
c0 -18.667 2.5 -35.334 7.5 -50.001s13.5 -28.334 25.5 -41.001s27.667 -24.667 47 -36s43 -22.666 71 -33.999c34 -14 62.833 -28.333 86.5 -43s42.667 -30.5 57 -47.5s24.666 -35.5 30.999 -55.5s9.5 -43 9.5 -69c0 -60 -17.5 -106.833 -52.5 -140.5
s-83.5 -50.5 -145.5 -50.5zM118.999 860.001l121 72l121 -72v-41l-121 72l-121 -72v41z" />
    <glyph glyph-name="scircumflex" unicode="&#x15d;" horiz-adv-x="345" 
d="M166 -12c-16.667 0 -34.165 1.32812 -52.498 3.99512s-43.166 7.66699 -74.499 15v37c21.333 -6.66699 42.333 -11.834 63 -15.501s39 -5.5 55 -5.5c37.333 0 65.666 10.167 84.999 30.5s29 48.5 29 84.5c0 32 -7.33301 57.667 -22 77s-39 34 -73 44
c-15.333 4.66699 -30.833 9.83398 -46.5 15.501s-29.834 13.834 -42.501 24.501s-22.834 24.834 -30.501 42.501s-11.5 40.834 -11.5 69.501c0 43.333 13.333 77.833 40 103.5s62.334 38.5 107.001 38.5c7.33301 0 14.166 -0.166992 20.499 -0.5
s13.333 -1.16602 21 -2.49902s16 -3 25 -5s20.167 -4.33301 33.5 -7v-36c-38.667 10.667 -71.667 16 -99 16c-35.333 0 -62.666 -9.16699 -81.999 -27.5s-29 -44.833 -29 -79.5c0 -20.667 2.66699 -37.334 8 -50.001s12.666 -23.167 21.999 -31.5s20.333 -15.166 33 -20.499
s26.667 -10.333 42 -15c44.667 -14.667 76.167 -33.667 94.5 -57s27.5 -56.333 27.5 -99c0 -47.333 -13.5 -84.166 -40.5 -110.499s-61.167 -39.5 -102.5 -39.5zM52.002 681.995l121 72l121 -72v-41l-121 72l-121 -72v41z" />
    <glyph glyph-name="uni015E" unicode="&#x15e;" horiz-adv-x="453" 
d="M191 -220c-10 0 -20.001 0.834961 -30.001 2.50195s-19.667 4.16699 -29 7.5v36c18.667 -8 38.334 -12 59.001 -12c46.667 0 70 25 70 75c0 15.333 -2.33301 31.5 -7 48.5s-11 33.5 -19 49.5c-2.66699 -0.666992 -5.33398 -1 -8.00098 -1h-8
c-14 0 -29.5 0.833008 -46.5 2.5s-34 4 -51 7s-33 6.5 -48 10.5s-27.833 8.33301 -38.5 13l8 32c8.66699 -4 20.167 -7.83301 34.5 -11.5s29.666 -7 45.999 -10s32.833 -5.33301 49.5 -7s32 -2.5 46 -2.5c52 0 92.333 13.667 121 41s43 66 43 116c0 20 -3 38.5 -9 55.5
s-15.667 32.833 -29 47.5s-30.333 28.5 -51 41.5s-45.667 25.833 -75 38.5c-31.333 13.333 -58 26.833 -80 40.5s-39.667 28 -53 43s-23 31.5 -29 49.5s-9 38 -9 60c0 30 4.83301 57.333 14.5 82s23.334 45.667 41.001 63s38.834 30.833 63.501 40.5s52 14.5 82 14.5
c22.667 0 45.667 -1.5 69 -4.5s49 -7.5 77 -13.5l-8 -34c-30.667 6.66699 -57 11.334 -79 14.001s-41.667 4 -59 4c-25.333 0 -48.166 -4 -68.499 -12s-37.833 -19.167 -52.5 -33.5s-26 -31.833 -34 -52.5s-12 -43.334 -12 -68.001c0 -18.667 2.5 -35.334 7.5 -50.001
s13.5 -28.334 25.5 -41.001s27.667 -24.667 47 -36s43 -22.666 71 -33.999c34 -14 62.833 -28.333 86.5 -43s42.667 -30.5 57 -47.5s24.666 -35.5 30.999 -55.5s9.5 -43 9.5 -69c0 -51.333 -13 -93 -39 -125s-62.333 -52.333 -109 -61
c8.66699 -18 15.167 -35.833 19.5 -53.5s6.5 -33.834 6.5 -48.501c0 -72.667 -34.667 -109 -104 -109z" />
    <glyph glyph-name="uni015F" unicode="&#x15f;" horiz-adv-x="345" 
d="M138 -220c-10 0 -19.998 0.829102 -29.998 2.49609s-19.667 4.16699 -29 7.5v36c18.667 -8 38.334 -12 59.001 -12c46.667 0 70 25 70 75c0 15.333 -2.33301 31.833 -7 49.5s-11.334 34.5 -20.001 50.5c-2.66699 0 -5.16699 -0.166992 -7.5 -0.5s-4.83301 -0.5 -7.5 -0.5
c-16.667 0 -34.167 1.33301 -52.5 4s-43.166 7.66699 -74.499 15v37c21.333 -6.66699 42.333 -11.834 63 -15.501s39 -5.5 55 -5.5c37.333 0 65.666 10.167 84.999 30.5s29 48.5 29 84.5c0 32 -7.33301 57.667 -22 77s-39 34 -73 44
c-15.333 4.66699 -30.833 9.83398 -46.5 15.501s-29.834 13.834 -42.501 24.501s-22.834 24.834 -30.501 42.501s-11.5 40.834 -11.5 69.501c0 43.333 13.333 77.833 40 103.5s62.334 38.5 107.001 38.5c7.33301 0 14.166 -0.166992 20.499 -0.5
s13.333 -1.16602 21 -2.49902s16 -3 25 -5s20.167 -4.33301 33.5 -7v-36c-38.667 10.667 -71.667 16 -99 16c-35.333 0 -62.666 -9.16699 -81.999 -27.5s-29 -44.833 -29 -79.5c0 -20.667 2.66699 -37.334 8 -50.001s12.666 -23.167 21.999 -31.5s20.333 -15.166 33 -20.499
s26.667 -10.333 42 -15c44.667 -14.667 76.167 -33.667 94.5 -57s27.5 -56.333 27.5 -99c0 -38 -8.66699 -69 -26 -93s-40.333 -40.667 -69 -50c9.33301 -18 16.333 -36.333 21 -55s7 -35.667 7 -51c0 -72.667 -34.667 -109 -104 -109z" />
    <glyph glyph-name="Scaron" unicode="&#x160;" horiz-adv-x="453" 
d="M219 -14c-14 0 -29.501 0.833984 -46.501 2.50098s-34 4 -51 7s-33 6.5 -48 10.5s-27.833 8.33301 -38.5 13l8 32c8.66699 -4 20.167 -7.83301 34.5 -11.5s29.666 -7 45.999 -10s32.833 -5.33301 49.5 -7s32 -2.5 46 -2.5c52 0 92.333 13.667 121 41s43 66 43 116
c0 20 -3 38.5 -9 55.5s-15.667 32.833 -29 47.5s-30.333 28.5 -51 41.5s-45.667 25.833 -75 38.5c-31.333 13.333 -58 26.833 -80 40.5s-39.667 28 -53 43s-23 31.5 -29 49.5s-9 38 -9 60c0 30 4.83301 57.333 14.5 82s23.334 45.667 41.001 63s38.834 30.833 63.501 40.5
s52 14.5 82 14.5c22.667 0 45.667 -1.5 69 -4.5s49 -7.5 77 -13.5l-8 -34c-30.667 6.66699 -57 11.334 -79 14.001s-41.667 4 -59 4c-25.333 0 -48.166 -4 -68.499 -12s-37.833 -19.167 -52.5 -33.5s-26 -31.833 -34 -52.5s-12 -43.334 -12 -68.001
c0 -18.667 2.5 -35.334 7.5 -50.001s13.5 -28.334 25.5 -41.001s27.667 -24.667 47 -36s43 -22.666 71 -33.999c34 -14 62.833 -28.333 86.5 -43s42.667 -30.5 57 -47.5s24.666 -35.5 30.999 -55.5s9.5 -43 9.5 -69c0 -60 -17.5 -106.833 -52.5 -140.5
s-83.5 -50.5 -145.5 -50.5zM122.999 912.001l121 -72l121 72v-41l-121 -72l-121 72v41z" />
    <glyph glyph-name="scaron" unicode="&#x161;" horiz-adv-x="345" 
d="M166 -12c-16.667 0 -34.165 1.32812 -52.498 3.99512s-43.166 7.66699 -74.499 15v37c21.333 -6.66699 42.333 -11.834 63 -15.501s39 -5.5 55 -5.5c37.333 0 65.666 10.167 84.999 30.5s29 48.5 29 84.5c0 32 -7.33301 57.667 -22 77s-39 34 -73 44
c-15.333 4.66699 -30.833 9.83398 -46.5 15.501s-29.834 13.834 -42.501 24.501s-22.834 24.834 -30.501 42.501s-11.5 40.834 -11.5 69.501c0 43.333 13.333 77.833 40 103.5s62.334 38.5 107.001 38.5c7.33301 0 14.166 -0.166992 20.499 -0.5
s13.333 -1.16602 21 -2.49902s16 -3 25 -5s20.167 -4.33301 33.5 -7v-36c-38.667 10.667 -71.667 16 -99 16c-35.333 0 -62.666 -9.16699 -81.999 -27.5s-29 -44.833 -29 -79.5c0 -20.667 2.66699 -37.334 8 -50.001s12.666 -23.167 21.999 -31.5s20.333 -15.166 33 -20.499
s26.667 -10.333 42 -15c44.667 -14.667 76.167 -33.667 94.5 -57s27.5 -56.333 27.5 -99c0 -47.333 -13.5 -84.166 -40.5 -110.499s-61.167 -39.5 -102.5 -39.5zM58.002 767.995l121 -72l121 72v-41l-121 -72l-121 72v41z" />
    <glyph glyph-name="uni0162" unicode="&#x162;" horiz-adv-x="447" 
d="M169 -220c-10 0 -20.002 0.833008 -30.002 2.5s-19.667 4.16699 -29 7.5v36c18.667 -8 38.334 -12 59.001 -12c46.667 0 70 25 70 75c0 16.667 -3 35 -9 55s-14 38.667 -24 56v706h-194v34h422v-34h-194v-702c10.667 -19.333 18.834 -39.333 24.501 -60s8.5 -39 8.5 -55
c0 -72.667 -34.667 -109 -104 -109z" />
    <glyph glyph-name="uni0163" unicode="&#x163;" horiz-adv-x="312" 
d="M158 -220c-10 0 -20.001 0.833008 -30.001 2.5s-19.667 4.16699 -29 7.5v36c18.667 -8 38.334 -12 59.001 -12c46.667 0 70 25 70 75c0 17.333 -3.16699 36 -9.5 56s-14.5 38.667 -24.5 56c-51.333 14.667 -77 59.334 -77 134.001v371h-104v34h105l5 125l28 8v-133h152
v-34h-152v-371c0 -34 7.83301 -60 23.5 -78s38.5 -27 68.5 -27c7.33301 0 16.5 0.666992 27.5 2s20.167 3 27.5 5v-34c-23.333 -4.66699 -43 -7 -59 -7h-5c9.33301 -18.667 16.333 -37.334 21 -56.001s7 -35.667 7 -51c0 -72.667 -34.667 -109 -104 -109z" />
    <glyph glyph-name="Tcaron" unicode="&#x164;" horiz-adv-x="447" 
d="M206 706h-194v34h422v-34h-194v-706h-34v706zM108 912l121 -72l121 72v-41l-121 -72l-121 72v41z" />
    <glyph glyph-name="tcaron" unicode="&#x165;" horiz-adv-x="296" 
d="M239 -4c-81.333 0 -122 46.333 -122 139v371h-104v34h105l5 125l28 8v-133h82v-34h-82v-371c0 -34 7.83301 -60 23.5 -78s38.5 -27 68.5 -27c7.33301 0 16.5 0.666992 27.5 2s20.167 3 27.5 5v-34c-23.333 -4.66699 -43 -7 -59 -7zM236 808h34l-20 -228h-14v228z" />
    <glyph glyph-name="Tbar" unicode="&#x166;" horiz-adv-x="457" 
d="M103 401h107v305h-194v34h422v-34h-194v-305h121v-26h-121v-375h-34v375h-107v26z" />
    <glyph glyph-name="tbar" unicode="&#x167;" horiz-adv-x="322" 
d="M22 358h104v148h-104v34h105l5 125l28 8v-133h152v-34h-152v-148h122v-34h-122v-189c0 -34 7.83301 -60 23.5 -78s38.5 -27 68.5 -27c7.33301 0 16.5 0.666992 27.5 2s20.167 3 27.5 5v-34c-23.333 -4.66699 -43 -7 -59 -7c-81.333 0 -122 46.333 -122 139v189h-104v34z
" />
    <glyph glyph-name="Utilde" unicode="&#x168;" horiz-adv-x="618" 
d="M309 -10c-41.333 0 -76.668 5.83301 -106.001 17.5s-53.5 29.667 -72.5 54s-33 55.5 -42 93.5s-13.5 83.667 -13.5 137v448h34v-450c0 -92.667 16 -160.167 48 -202.5s82.667 -63.5 152 -63.5s120 21.167 152 63.5s48 109.833 48 202.5v450h34v-448
c0 -53.333 -4.5 -99 -13.5 -137s-23 -69.167 -42 -93.5s-43.167 -42.333 -72.5 -54s-64.666 -17.5 -105.999 -17.5zM167.998 850c9.33301 11.333 21.832 22.332 37.499 32.999s31.167 16 46.5 16c12.667 0 24 -2.16699 34 -6.5s19.5 -9.33301 28.5 -15s18 -10.667 27 -15
s18.833 -6.5 29.5 -6.5s20.5 3.66699 29.5 11s16.167 17 21.5 29l28 -20c-6.66699 -15.333 -17.667 -28.166 -33 -38.499s-30.666 -15.5 -45.999 -15.5c-12.667 0 -24 2.16699 -34 6.5s-19.5 9.33301 -28.5 15s-18 10.667 -27 15s-18.833 6.5 -29.5 6.5
c-11.333 0 -22.333 -4 -33 -12s-19.667 -17 -27 -27z" />
    <glyph glyph-name="utilde" unicode="&#x169;" horiz-adv-x="453" 
d="M186 -10c-44 0 -75.167 10.668 -93.5 32.001s-27.5 57.666 -27.5 108.999v409h34v-409c0 -71.333 29 -107 87 -107c24.667 0 50.167 5.83301 76.5 17.5s55.5 29.167 87.5 52.5v446h34v-540h-30l-4 58h-4c-32 -23.333 -61 -40.5 -87 -51.5s-50.333 -16.5 -73 -16.5z
M79 660.001c9.33301 11.333 21.832 22.332 37.499 32.999s31.167 16 46.5 16c12.667 0 24 -2.16699 34 -6.5s19.5 -9.33301 28.5 -15s18 -10.667 27 -15s18.833 -6.5 29.5 -6.5s20.5 3.66699 29.5 11s16.167 17 21.5 29l28 -20
c-6.66699 -15.333 -17.667 -28.166 -33 -38.499s-30.666 -15.5 -45.999 -15.5c-12.667 0 -24 2.16699 -34 6.5s-19.5 9.33301 -28.5 15s-18 10.667 -27 15s-18.833 6.5 -29.5 6.5c-11.333 0 -22.333 -4 -33 -12s-19.667 -17 -27 -27z" />
    <glyph glyph-name="Umacron" unicode="&#x16a;" horiz-adv-x="618" 
d="M309 -10c-41.333 0 -76.668 5.83301 -106.001 17.5s-53.5 29.667 -72.5 54s-33 55.5 -42 93.5s-13.5 83.667 -13.5 137v448h34v-450c0 -92.667 16 -160.167 48 -202.5s82.667 -63.5 152 -63.5s120 21.167 152 63.5s48 109.833 48 202.5v450h34v-448
c0 -53.333 -4.5 -99 -13.5 -137s-23 -69.167 -42 -93.5s-43.167 -42.333 -72.5 -54s-64.666 -17.5 -105.999 -17.5zM194.998 876h209v-34h-209v34z" />
    <glyph glyph-name="umacron" unicode="&#x16b;" horiz-adv-x="453" 
d="M186 -10c-44 0 -75.167 10.668 -93.5 32.001s-27.5 57.666 -27.5 108.999v409h34v-409c0 -71.333 29 -107 87 -107c24.667 0 50.167 5.83301 76.5 17.5s55.5 29.167 87.5 52.5v446h34v-540h-30l-4 58h-4c-32 -23.333 -61 -40.5 -87 -51.5s-50.333 -16.5 -73 -16.5z
M108 687.001h229v-34h-229v34z" />
    <glyph glyph-name="Ubreve" unicode="&#x16c;" horiz-adv-x="618" 
d="M309 -10c-41.333 0 -76.668 5.83301 -106.001 17.5s-53.5 29.667 -72.5 54s-33 55.5 -42 93.5s-13.5 83.667 -13.5 137v448h34v-450c0 -92.667 16 -160.167 48 -202.5s82.667 -63.5 152 -63.5s120 21.167 152 63.5s48 109.833 48 202.5v450h34v-448
c0 -53.333 -4.5 -99 -13.5 -137s-23 -69.167 -42 -93.5s-43.167 -42.333 -72.5 -54s-64.666 -17.5 -105.999 -17.5zM310.998 816c-42 0 -75 11.667 -99 35s-36 55.666 -36 96.999h34c0 -30.667 8.83301 -54.667 26.5 -72s42.5 -26 74.5 -26s56.833 8.66699 74.5 26
s26.5 41.333 26.5 72h34c0 -41.333 -12 -73.666 -36 -96.999s-57 -35 -99 -35z" />
    <glyph glyph-name="ubreve" unicode="&#x16d;" horiz-adv-x="453" 
d="M186 -10c-44 0 -75.167 10.668 -93.5 32.001s-27.5 57.666 -27.5 108.999v409h34v-409c0 -71.333 29 -107 87 -107c24.667 0 50.167 5.83301 76.5 17.5s55.5 29.167 87.5 52.5v446h34v-540h-30l-4 58h-4c-32 -23.333 -61 -40.5 -87 -51.5s-50.333 -16.5 -73 -16.5z
M222 622.001c-42 0 -75 11.667 -99 35s-36 55.666 -36 96.999h34c0 -30.667 8.83301 -54.667 26.5 -72s42.5 -26 74.5 -26s56.833 8.66699 74.5 26s26.5 41.333 26.5 72h34c0 -41.333 -12 -73.666 -36 -96.999s-57 -35 -99 -35z" />
    <glyph glyph-name="Uring" unicode="&#x16e;" horiz-adv-x="618" 
d="M309 -10c-41.333 0 -76.668 5.83301 -106.001 17.5s-53.5 29.667 -72.5 54s-33 55.5 -42 93.5s-13.5 83.667 -13.5 137v448h34v-450c0 -92.667 16 -160.167 48 -202.5s82.667 -63.5 152 -63.5s120 21.167 152 63.5s48 109.833 48 202.5v450h34v-448
c0 -53.333 -4.5 -99 -13.5 -137s-23 -69.167 -42 -93.5s-43.167 -42.333 -72.5 -54s-64.666 -17.5 -105.999 -17.5zM308.998 785c-28.667 0 -50.5 9.66699 -65.5 29s-22.5 43 -22.5 71s7.33301 51.667 22 71s36.667 29 66 29s51.5 -9.66699 66.5 -29s22.5 -43 22.5 -71
s-7.66699 -51.667 -23 -71s-37.333 -29 -66 -29zM308.998 819c17.333 0 30.834 6.33301 40.501 19s14.5 28.334 14.5 47.001s-4.66699 34.334 -14 47.001s-23 19 -41 19s-31.5 -6.33301 -40.5 -19s-13.5 -28.334 -13.5 -47.001s4.66699 -34.334 14 -47.001
s22.666 -19 39.999 -19z" />
    <glyph glyph-name="uring" unicode="&#x16f;" horiz-adv-x="453" 
d="M186 -10c-44 0 -75.167 10.668 -93.5 32.001s-27.5 57.666 -27.5 108.999v409h34v-409c0 -71.333 29 -107 87 -107c24.667 0 50.167 5.83301 76.5 17.5s55.5 29.167 87.5 52.5v446h34v-540h-30l-4 58h-4c-32 -23.333 -61 -40.5 -87 -51.5s-50.333 -16.5 -73 -16.5z
M223 618.001c-28.667 0 -50.5 9.66699 -65.5 29s-22.5 43 -22.5 71s7.33301 51.667 22 71s36.667 29 66 29s51.5 -9.66699 66.5 -29s22.5 -43 22.5 -71s-7.66699 -51.667 -23 -71s-37.333 -29 -66 -29zM223 652.001c17.333 0 30.834 6.33301 40.501 19
s14.5 28.334 14.5 47.001s-4.66699 34.334 -14 47.001s-23 19 -41 19s-31.5 -6.33301 -40.5 -19s-13.5 -28.334 -13.5 -47.001s4.66699 -34.334 14 -47.001s22.666 -19 39.999 -19z" />
    <glyph glyph-name="Uhungarumlaut" unicode="&#x170;" horiz-adv-x="618" 
d="M309 -10c-41.333 0 -76.668 5.83301 -106.001 17.5s-53.5 29.667 -72.5 54s-33 55.5 -42 93.5s-13.5 83.667 -13.5 137v448h34v-450c0 -92.667 16 -160.167 48 -202.5s82.667 -63.5 152 -63.5s120 21.167 152 63.5s48 109.833 48 202.5v450h34v-448
c0 -53.333 -4.5 -99 -13.5 -137s-23 -69.167 -42 -93.5s-43.167 -42.333 -72.5 -54s-64.666 -17.5 -105.999 -17.5zM210.998 798l79 112h38l-85 -126zM337.998 798l79 112h38l-85 -126z" />
    <glyph glyph-name="uhungarumlaut" unicode="&#x171;" horiz-adv-x="453" 
d="M186 -10c-44 0 -75.167 10.668 -93.5 32.001s-27.5 57.666 -27.5 108.999v409h34v-409c0 -71.333 29 -107 87 -107c24.667 0 50.167 5.83301 76.5 17.5s55.5 29.167 87.5 52.5v446h34v-540h-30l-4 58h-4c-32 -23.333 -61 -40.5 -87 -51.5s-50.333 -16.5 -73 -16.5z
M133 620.001l75 178h40l-87 -188zM274 620.001l75 178h40l-87 -188z" />
    <glyph glyph-name="Uogonek" unicode="&#x172;" horiz-adv-x="618" 
d="M298 -210c-23.333 0 -42.0039 7.33398 -56.0039 22.001s-21 34.667 -21 60c0 45.333 21.667 85 65 119c-37.333 2 -69.166 9.33301 -95.499 22s-48.166 31.167 -65.499 55.5s-30 55 -38 92s-12 80.833 -12 131.5v448h34v-450c0 -92.667 16 -160.167 48 -202.5
s82.667 -63.5 152 -63.5s120 21.167 152 63.5s48 109.833 48 202.5v450h34v-448c0 -98.667 -15.667 -171.834 -47 -219.501s-82 -74.5 -152 -80.5c-32 -18 -54.833 -36 -68.5 -54s-20.5 -39 -20.5 -63c0 -18 3.83301 -31 11.5 -39s19.834 -12 36.501 -12
c14.667 0 28.334 3.33301 41.001 10v-32c-14 -8 -29.333 -12 -46 -12z" />
    <glyph glyph-name="uogonek" unicode="&#x173;" horiz-adv-x="454" 
d="M339 -220c-23.333 0 -42.002 7.33398 -56.002 22.001s-21 34.667 -21 60c0 53.333 31 99.333 93 138l-4 58h-4c-32 -23.333 -61 -40.5 -87 -51.5s-50.333 -16.5 -73 -16.5c-44 0 -75.167 10.667 -93.5 32s-27.5 57.666 -27.5 108.999v409h34v-409
c0 -71.333 29 -107 87 -107c24.667 0 50.167 5.83301 76.5 17.5s55.5 29.167 87.5 52.5v446h34v-559c-32 -17.333 -54.833 -35 -68.5 -53s-20.5 -39 -20.5 -63c0 -18 3.83301 -31 11.5 -39s19.834 -12 36.501 -12c14.667 0 28.334 3.33301 41.001 10v-32
c-14 -8 -29.333 -12 -46 -12z" />
    <glyph glyph-name="Wcircumflex" unicode="&#x174;" horiz-adv-x="841" 
d="M19 740h36l133 -554l32 -143h4l35 143l145 554h43l133 -554l32 -143h4l35 143l145 554h34l-194 -740h-47l-140 581l-23 107h-4l-26 -107l-152 -581h-47zM303 860l121 72l121 -72v-41l-121 72l-121 -72v41z" />
    <glyph glyph-name="wcircumflex" unicode="&#x175;" horiz-adv-x="640" 
d="M22 536v4h33l98 -401l18 -87h4l22 87l107 401h32l107 -401l22 -87h4l18 87l98 401h33v-4l-132 -536h-38l-112 420l-14 55h-4l-14 -55l-112 -420h-38zM199 682l121 72l121 -72v-41l-121 72l-121 -72v41z" />
    <glyph glyph-name="Ycircumflex" unicode="&#x176;" horiz-adv-x="493" 
d="M230 246l-226 494h36l178 -388l27 -69h2l27 69l178 388h36l-224 -490v-250h-34v246zM129 860l121 72l121 -72v-41l-121 72l-121 -72v41z" />
    <glyph glyph-name="ycircumflex" unicode="&#x177;" horiz-adv-x="430" 
d="M127 -213v4l72 211l-183 535v3h34l150 -438l15 -55h2l15 55l149 438h34v-3l-255 -757zM101 682l121 72l121 -72v-41l-121 72l-121 -72v41z" />
    <glyph glyph-name="Ydieresis" unicode="&#x178;" horiz-adv-x="493" 
d="M230 246l-226 494h36l178 -388l27 -69h2l27 69l178 388h36l-224 -490v-250h-34v246zM167 814c-8 0 -14.833 2.33203 -20.5 6.99902s-8.5 12 -8.5 22c0 10.667 2.83301 18.334 8.5 23.001s12.5 7 20.5 7s15 -2.5 21 -7.5s9 -12.5 9 -22.5s-3 -17.333 -9 -22s-13 -7 -21 -7
zM334 813.999c-8 0 -15 2.33203 -21 6.99902s-9 12 -9 22c0 10.667 3 18.334 9 23.001s13 7 21 7c7.33301 0 14.166 -2.5 20.499 -7.5s9.5 -12.5 9.5 -22.5s-3.16699 -17.333 -9.5 -22s-13.166 -7 -20.499 -7z" />
    <glyph glyph-name="Zacute" unicode="&#x179;" horiz-adv-x="446" 
d="M30 22l336 680v4h-332v34h378v-21l-337 -682v-4h341v-33h-386v22zM211 787l79 123h38l-85 -126z" />
    <glyph glyph-name="zacute" unicode="&#x17a;" horiz-adv-x="378" 
d="M30 21l260 483v4h-250v32h298v-20l-262 -484v-4h272v-32h-318v21zM188 616l75 182h36l-87 -188z" />
    <glyph glyph-name="Zdotaccent" unicode="&#x17b;" horiz-adv-x="446" 
d="M30 22l336 680v4h-332v34h378v-21l-337 -682v-4h341v-33h-386v22zM230 799c-8 0 -14.833 2.33203 -20.5 6.99902s-8.5 12 -8.5 22c0 10.667 2.83301 18.334 8.5 23.001s12.5 7 20.5 7s15 -2.5 21 -7.5s9 -12.5 9 -22.5s-3 -17.333 -9 -22s-13 -7 -21 -7z" />
    <glyph glyph-name="zdotaccent" unicode="&#x17c;" horiz-adv-x="378" 
d="M30 21l260 483v4h-250v32h298v-20l-262 -484v-4h272v-32h-318v21zM199 634c-8 0 -14.833 2.33203 -20.5 6.99902s-8.5 12 -8.5 22c0 10.667 2.83301 18.334 8.5 23.001s12.5 7 20.5 7s15 -2.5 21 -7.5s9 -12.5 9 -22.5s-3 -17.333 -9 -22s-13 -7 -21 -7z" />
    <glyph glyph-name="Zcaron" unicode="&#x17d;" horiz-adv-x="446" 
d="M30 22l336 680v4h-332v34h378v-21l-337 -682v-4h341v-33h-386v22zM113 912l121 -72l121 72v-41l-121 -72l-121 72v41z" />
    <glyph glyph-name="zcaron" unicode="&#x17e;" horiz-adv-x="378" 
d="M30 21l260 483v4h-250v32h298v-20l-262 -484v-4h272v-32h-318v21zM84 768l121 -72l121 72v-41l-121 -72l-121 72v41z" />
    <glyph glyph-name="Schwa" unicode="&#x18f;" horiz-adv-x="536" 
d="M43 298c0 20 0.334961 37.1689 1.00195 51.502s1.66699 28.166 3 41.499h405c-2 110.667 -22.5 194.667 -61.5 252s-92.167 86 -159.5 86c-22 0 -46.333 -3.5 -73 -10.5s-53.334 -17.167 -80.001 -30.5c-1.33301 7.33301 -2.33301 13.666 -3 18.999l-2 16
c23.333 12.667 48.666 22.5 75.999 29.5s54.666 10.5 81.999 10.5c40.667 0 76.834 -8.33301 108.501 -25s58.5 -40.667 80.5 -72s38.667 -70 50 -116s17 -98 17 -156c0 -130.667 -21.167 -230.5 -63.5 -299.5s-103.5 -103.5 -183.5 -103.5c-64 0 -112.833 26.333 -146.5 79
s-50.5 128.667 -50.5 228zM240.002 25.002c30.667 0 58.666 7.49902 83.999 22.499s47.333 36.667 66 65s33.334 62.833 44.001 103.5s16.667 87 18 139h-374c0.666992 -115.333 14 -199.166 40 -251.499s66.667 -78.5 122 -78.5z" />
    <glyph glyph-name="florin" unicode="&#x192;" horiz-adv-x="261" 
d="M104 509l-76 -0.000976562v31h76v45c0 40 2.33301 73.5 7 100.5s13 49 25 66s27.833 29.833 47.5 38.5s44.5 14.667 74.5 18v-31c-24 -3.33301 -43.833 -8.33301 -59.5 -15s-28 -17.167 -37 -31.5s-15.167 -33.166 -18.5 -56.499s-5 -53 -5 -89v-45h97v-31h-97v-709
l-34 -20v729z" />
    <glyph glyph-name="uni01C4" unicode="&#x1c4;" horiz-adv-x="1007" 
d="M182 -18c-17.333 0 -34.166 0.5 -50.499 1.5s-33.166 2.83301 -50.499 5.5v743c29.333 6 55.666 10.5 78.999 13.5s45 4.5 65 4.5c97.333 0 169.666 -31.333 216.999 -94s71 -158.334 71 -287.001c0 -133.333 -26.667 -231.166 -80 -293.499s-137 -93.5 -251 -93.5z
M185 17c194.667 0 291.999 117.333 291.999 352c0 118.667 -20.833 206.167 -62.5 262.5s-106.5 84.5 -194.5 84.5c-17.333 0 -34.666 -0.833008 -51.999 -2.5s-35 -4.16699 -53 -7.5v-684c13.333 -1.33301 25.833 -2.5 37.5 -3.5s22.5 -1.5 32.5 -1.5zM590.999 22l336 680
v4h-332v34h378v-21l-337 -682v-4h341v-33h-386v22zM673.999 912l121 -72l121 72v-41l-121 -72l-121 72v41z" />
    <glyph glyph-name="uni01C5" unicode="&#x1c5;" horiz-adv-x="939" 
d="M182 -18c-17.333 0 -34.166 0.5 -50.499 1.5s-33.166 2.83301 -50.499 5.5v743c29.333 6 55.666 10.5 78.999 13.5s45 4.5 65 4.5c97.333 0 169.666 -31.333 216.999 -94s71 -158.334 71 -287.001c0 -133.333 -26.667 -231.166 -80 -293.499s-137 -93.5 -251 -93.5z
M185 17c194.667 0 291.999 117.333 291.999 352c0 118.667 -20.833 206.167 -62.5 262.5s-106.5 84.5 -194.5 84.5c-17.333 0 -34.666 -0.833008 -51.999 -2.5s-35 -4.16699 -53 -7.5v-684c13.333 -1.33301 25.833 -2.5 37.5 -3.5s22.5 -1.5 32.5 -1.5zM590.999 21l260 483
v4h-250v32h298v-20l-262 -484v-4h272v-32h-318v21zM644.999 768l121 -72l121 72v-41l-121 -72l-121 72v41z" />
    <glyph glyph-name="uni01C6" unicode="&#x1c6;" horiz-adv-x="837" 
d="M220 -9c-60 0 -104.332 22.833 -132.999 68.5s-43 116.167 -43 211.5c0 87.333 18.667 155.5 56 204.5s89.666 73.5 156.999 73.5c15.333 0 30.333 -0.833008 45 -2.5s32.667 -4.16699 54 -7.5v269h34v-808h-29l-5 54h-3c-32 -42 -76.333 -63 -133 -63zM218.001 25
c16 0 32.1699 2.5 48.5029 7.5s31.166 11.667 44.499 20s24.166 17.5 32.499 27.5s12.5 20 12.5 30v394c-23.333 4 -42 6.83301 -56 8.5s-28.333 2.5 -43 2.5c-56.667 0 -100.334 -21.167 -131.001 -63.5s-46 -102.833 -46 -181.5c0 -78 12 -138.333 36 -181s58 -64 102 -64
zM489.004 21l260 483v4h-250v32h298v-20l-262 -484v-4h272v-32h-318v21zM543.004 768l121 -72l121 72v-41l-121 -72l-121 72v41z" />
    <glyph glyph-name="uni01C7" unicode="&#x1c7;" horiz-adv-x="582" 
d="M81 740h34v-706h259v-34h-293v740zM384 -159c17.333 36.667 31.501 68.832 42.501 96.499s19.667 54 26 79s10.666 50.333 12.999 76s3.5 54.834 3.5 87.501v560h34v-560c0 -62 -7.66699 -121.5 -23 -178.5s-39.333 -115.833 -72 -176.5z" />
    <glyph glyph-name="uni01C8" unicode="&#x1c8;" horiz-adv-x="558" 
d="M81 740h34v-706h259v-34h-293v740zM473 684c-19.333 0 -29 9.66602 -29 28.999c0 20 9.66699 30 29 30c9.33301 0 16.666 -2.66699 21.999 -8s8 -12.666 8 -21.999s-2.66699 -16.5 -8 -21.5s-12.666 -7.5 -21.999 -7.5zM376 -201.001
c27.333 45.333 47.499 92.832 60.499 142.499s19.5 105.834 19.5 168.501v430h34v-447c0 -56 -7.66699 -110.667 -23 -164s-37.666 -103 -66.999 -149z" />
    <glyph glyph-name="uni01C9" unicode="&#x1c9;" horiz-adv-x="350" 
d="M72 808h34v-808h-34v808zM265 684c-19.333 0 -29 9.66602 -29 28.999c0 20 9.66699 30 29 30c9.33301 0 16.666 -2.66699 21.999 -8s8 -12.666 8 -21.999s-2.66699 -16.5 -8 -21.5s-12.666 -7.5 -21.999 -7.5zM168 -201.001c27.333 45.333 47.499 92.832 60.499 142.499
s19.5 105.834 19.5 168.501v430h34v-447c0 -56 -7.66699 -110.667 -23 -164s-37.666 -103 -66.999 -149z" />
    <glyph glyph-name="uni01CA" unicode="&#x1ca;" horiz-adv-x="836" 
d="M81 740h40l353 -596l47 -85l4 1v680h34v-740h-41l-349 590l-50 90l-4 -1v-679h-34v740zM638 -159c17.333 36.667 31.501 68.832 42.501 96.499s19.667 54 26 79s10.666 50.333 12.999 76s3.5 54.834 3.5 87.501v560h34v-560c0 -62 -7.66699 -121.5 -23 -178.5
s-39.333 -115.833 -72 -176.5z" />
    <glyph glyph-name="uni01CB" unicode="&#x1cb;" horiz-adv-x="812" 
d="M81 740h40l353 -596l47 -85l4 1v680h34v-740h-41l-349 590l-50 90l-4 -1v-679h-34v740zM727 684c-19.333 0 -29 9.66602 -29 28.999c0 20 9.66699 30 29 30c9.33301 0 16.666 -2.66699 21.999 -8s8 -12.666 8 -21.999s-2.66699 -16.5 -8 -21.5s-12.666 -7.5 -21.999 -7.5
zM630 -201.001c27.333 45.333 47.499 92.832 60.499 142.499s19.5 105.834 19.5 168.501v430h34v-447c0 -56 -7.66699 -110.667 -23 -164s-37.666 -103 -66.999 -149z" />
    <glyph glyph-name="uni01CC" unicode="&#x1cc;" horiz-adv-x="626" 
d="M69 540h30.001l4 -58h4c29.333 21.333 58.666 38 87.999 50s56.666 18 81.999 18c20.667 0 38.167 -2.33301 52.5 -7s25.833 -12.5 34.5 -23.5s14.834 -25.5 18.501 -43.5s5.5 -40.333 5.5 -67v-409h-34v409c0 38.667 -5.83301 66.167 -17.5 82.5s-31.5 24.5 -59.5 24.5
c-52 0 -110 -22.333 -174 -67v-449h-34v540zM541.001 684c-19.333 0 -29 9.66602 -29 28.999c0 20 9.66699 30 29 30c9.33301 0 16.666 -2.66699 21.999 -8s8 -12.666 8 -21.999s-2.66699 -16.5 -8 -21.5s-12.666 -7.5 -21.999 -7.5zM444.001 -201.001
c27.333 45.333 47.499 92.832 60.499 142.499s19.5 105.834 19.5 168.501v430h34v-447c0 -56 -7.66699 -110.667 -23 -164s-37.666 -103 -66.999 -149z" />
    <glyph glyph-name="Oogonek" unicode="&#x1ea;" horiz-adv-x="586" 
d="M274 -210c-23.333 0 -42.002 7.33203 -56.002 21.999s-21 34.667 -21 60c0 44.667 22 84.667 66 120c-142.667 14 -214 139.667 -214 377c0 128.667 20 224.334 60 287.001s101.333 94 184 94c162.667 0 244 -127 244 -381c0 -238 -72.333 -363.667 -217 -377v-1
c-32 -17.333 -54.833 -35 -68.5 -53s-20.5 -39 -20.5 -63c0 -18 3.83301 -31 11.5 -39s19.834 -12 36.501 -12c14.667 0 28.334 3.33301 41.001 10v-32c-14 -8 -29.333 -12 -46 -12zM292.998 23.999c72.667 0 125.834 27.668 159.501 83.001s50.5 142.666 50.5 261.999
c0 118 -17.167 205.333 -51.5 262s-87.166 85 -158.499 85c-72.667 0 -125.834 -27.833 -159.501 -83.5s-50.5 -143.5 -50.5 -263.5s16.667 -207.5 50 -262.5s86.666 -82.5 159.999 -82.5z" />
    <glyph glyph-name="oogonek" unicode="&#x1eb;" horiz-adv-x="468" 
d="M238 -196c-23.333 0 -42.002 7.33008 -56.002 21.9971s-21 34.667 -21 60c0 40.667 17.333 76.334 52 107.001c-56 5.33301 -98.167 31.333 -126.5 78s-42.5 113 -42.5 199c0 91.333 16.167 160.833 48.5 208.5s79.5 71.5 141.5 71.5c62.667 0 110 -23.833 142 -71.5
s48 -117.167 48 -208.5c0 -83.333 -13.5 -148.166 -40.5 -194.499s-66.5 -73.166 -118.5 -80.499c-25.333 -15.333 -43.333 -31.5 -54 -48.5s-16 -36.167 -16 -57.5c0 -18 3.83301 -31 11.5 -39s19.834 -12 36.501 -12c14.667 0 28.334 3.33301 41.001 10v-32
c-14 -8 -29.333 -12 -46 -12zM233.998 25.9971c102.667 0 154 81.333 154 244c0 164 -51.333 246 -154 246s-154 -82 -154 -246c0 -162.667 51.333 -244 154 -244z" />
    <glyph glyph-name="uni01F1" unicode="&#x1f1;" horiz-adv-x="992" 
d="M182 -18c-17.333 0 -34.166 0.5 -50.499 1.5s-33.166 2.83301 -50.499 5.5v743c29.333 6 55.666 10.5 78.999 13.5s45 4.5 65 4.5c97.333 0 169.666 -31.333 216.999 -94s71 -158.334 71 -287.001c0 -133.333 -26.667 -231.166 -80 -293.499s-137 -93.5 -251 -93.5z
M185 17c194.667 0 291.999 117.333 291.999 352c0 118.667 -20.833 206.167 -62.5 262.5s-106.5 84.5 -194.5 84.5c-17.333 0 -34.666 -0.833008 -51.999 -2.5s-35 -4.16699 -53 -7.5v-684c13.333 -1.33301 25.833 -2.5 37.5 -3.5s22.5 -1.5 32.5 -1.5zM575.999 22l336 680
v4h-332v34h378v-21l-337 -682v-4h341v-33h-386v22z" />
    <glyph glyph-name="uni01F2" unicode="&#x1f2;" horiz-adv-x="935" 
d="M182 -18c-17.333 0 -34.166 0.5 -50.499 1.5s-33.166 2.83301 -50.499 5.5v743c29.333 6 55.666 10.5 78.999 13.5s45 4.5 65 4.5c97.333 0 169.666 -31.333 216.999 -94s71 -158.334 71 -287.001c0 -133.333 -26.667 -231.166 -80 -293.499s-137 -93.5 -251 -93.5z
M185 17c194.667 0 291.999 117.333 291.999 352c0 118.667 -20.833 206.167 -62.5 262.5s-106.5 84.5 -194.5 84.5c-17.333 0 -34.666 -0.833008 -51.999 -2.5s-35 -4.16699 -53 -7.5v-684c13.333 -1.33301 25.833 -2.5 37.5 -3.5s22.5 -1.5 32.5 -1.5zM586.999 21l260 483
v4h-250v32h298v-20l-262 -484v-4h272v-32h-318v21z" />
    <glyph glyph-name="uni01F3" unicode="&#x1f3;" horiz-adv-x="837" 
d="M220 -9c-60 0 -104.332 22.833 -132.999 68.5s-43 116.167 -43 211.5c0 87.333 18.667 155.5 56 204.5s89.666 73.5 156.999 73.5c15.333 0 30.333 -0.833008 45 -2.5s32.667 -4.16699 54 -7.5v269h34v-808h-29l-5 54h-3c-32 -42 -76.333 -63 -133 -63zM218.001 25
c16 0 32.1699 2.5 48.5029 7.5s31.166 11.667 44.499 20s24.166 17.5 32.499 27.5s12.5 20 12.5 30v394c-23.333 4 -42 6.83301 -56 8.5s-28.333 2.5 -43 2.5c-56.667 0 -100.334 -21.167 -131.001 -63.5s-46 -102.833 -46 -181.5c0 -78 12 -138.333 36 -181s58 -64 102 -64
zM489.004 21l260 483v4h-250v32h298v-20l-262 -484v-4h272v-32h-318v21z" />
    <glyph glyph-name="Gacute" unicode="&#x1f4;" horiz-adv-x="541" 
d="M354 -10c-54 0.666992 -100.33 8.33398 -138.997 23.001s-70.167 37.334 -94.5 68.001s-42.333 69.834 -54 117.501s-17.5 104.5 -17.5 170.5c0 68.667 5.5 127 16.5 175s28.667 87.167 53 117.5s55.666 52.333 93.999 66s84.833 20.5 139.5 20.5
c7.33301 0 16.166 -0.333008 26.499 -1s21.5 -1.66699 33.5 -3s24.167 -2.83301 36.5 -4.5s24.166 -3.5 35.499 -5.5v-34c-22 4.66699 -44.167 8.16699 -66.5 10.5s-42.833 3.5 -61.5 3.5c-49.333 0 -91.166 -6.16699 -125.499 -18.5s-62.333 -32.333 -84 -60
s-37.334 -63.334 -47.001 -107.001s-14.5 -96.834 -14.5 -159.501c0 -120 21.167 -207.5 63.5 -262.5s109.833 -82.5 202.5 -82.5c9.33301 0 22.833 0.666992 40.5 2s36.167 3 55.5 5v345h34v-374c-26 -4.66699 -48.333 -7.83398 -67 -9.50098s-38.667 -2.5 -60 -2.5z
M310.003 787l79 123h38l-85 -126z" />
    <glyph glyph-name="gacute" unicode="&#x1f5;" horiz-adv-x="458" 
d="M208 -220c-42 0 -80.999 7.66797 -116.999 23.001l4 35c20 -8.66699 38.833 -14.834 56.5 -18.501s36.5 -5.5 56.5 -5.5c26 0 48.167 4.16699 66.5 12.5s33.5 21.333 45.5 39s21 40.5 27 68.5s9.33301 61.667 10 101v19h-4c-32 -42 -76.333 -63 -133 -63
c-60 0 -104.333 22.833 -133 68.5s-43 116.167 -43 211.5c0 87.333 18.667 155.5 56 204.5s89.666 73.5 156.999 73.5c26 0 49 -1.5 69 -4.5s41.333 -8.16699 64 -15.5v-471c0 -98 -14.167 -168.833 -42.5 -212.5s-74.833 -65.5 -139.5 -65.5zM218.001 25.001
c16 0 32.1699 2.5 48.5029 7.5s31.166 11.667 44.499 20s24.166 17.5 32.499 27.5s12.5 20 12.5 30v394c-24 4 -43 6.83301 -57 8.5s-28 2.5 -42 2.5c-56.667 0 -100.334 -21.167 -131.001 -63.5s-46 -102.833 -46 -181.5c0 -78 12 -138.333 36 -181s58 -64 102 -64z
M232.004 616.001l75 182h36l-87 -188z" />
    <glyph glyph-name="Aringacute" unicode="&#x1fa;" horiz-adv-x="521" 
d="M11 6l196 628c-12 9.33301 -21 21.333 -27 36s-9 30.667 -9 48c0 25.333 6.16699 47.333 18.5 66s30.833 29.667 55.5 33l66 93h38l-65 -96c21.333 -5.33301 37.333 -16.833 48 -34.5s16 -38.167 16 -61.5c0 -17.333 -3 -33 -9 -47s-14.667 -25.667 -26 -35l197 -630v-6
h-33l-78 249h-277l-78 -249h-33v6zM259 652c17.333 0 30.834 6.33301 40.501 19s14.5 28.334 14.5 47.001s-4.66699 34.334 -14 47.001s-23 19 -41 19s-31.5 -6.33301 -40.5 -19s-13.5 -28.334 -13.5 -47.001s4.66699 -34.334 14 -47.001s22.666 -19 39.999 -19z
M388.001 283l-94 303l-10 35h-47l-10 -35l-95 -303h256z" />
    <glyph glyph-name="aringacute" unicode="&#x1fb;" horiz-adv-x="416" 
d="M153 -5c-38 0 -67.335 11.498 -88.002 34.498s-31 55.5 -31 97.5c0 97.333 61.667 151 185 161l98 8v84c0 46.667 -9.66699 80.834 -29 102.501s-50 32.5 -92 32.5c-16.667 0 -35.667 -1.66699 -57 -5s-42.333 -7.66602 -63 -12.999l-6 34c23.333 5.33301 47 9.5 71 12.5
s44.667 4.5 62 4.5c98.667 0 148 -56 148 -168v-380h-29l-6 65h-4l-35.5 -24.5c-12.333 -8.33301 -25.166 -15.833 -38.499 -22.5s-27.166 -12.167 -41.499 -16.5s-28.833 -6.5 -43.5 -6.5zM160.998 29.998c14 0 28.332 2.83203 42.999 8.49902s28.834 12.334 42.501 20.001
s26.667 15.667 39 24s22.833 15.166 31.5 20.499v160l-92 -7c-56 -5.33301 -95.833 -17.666 -119.5 -36.999s-35.5 -49 -35.5 -89c0 -66.667 30.333 -100 91 -100zM218.997 617.997c-28.667 0 -50.5 9.66699 -65.5 29s-22.5 43 -22.5 71s7.33301 51.667 22 71
s36.667 29 66 29h8l67 162h36l-78 -168c18.667 -7.33301 32.667 -19.5 42 -36.5s14 -36.167 14 -57.5c0 -28 -7.66699 -51.667 -23 -71s-37.333 -29 -66 -29zM218.997 651.997c17.333 0 30.834 6.33301 40.501 19s14.5 28.334 14.5 47.001s-4.66699 34.334 -14 47.001
s-23 19 -41 19s-31.5 -6.33301 -40.5 -19s-13.5 -28.334 -13.5 -47.001s4.66699 -34.334 14 -47.001s22.666 -19 39.999 -19z" />
    <glyph glyph-name="AEacute" unicode="&#x1fc;" horiz-adv-x="722" 
d="M8 6l249 734h416v-34h-304l14 -313h257v-34h-256l15 -325h283v-34h-317l-10 249h-229l-85 -249h-33v6zM137 283h216l-17 422h-55zM420 787l79 123h38l-85 -126z" />
    <glyph glyph-name="aeacute" unicode="&#x1fd;" horiz-adv-x="697" 
d="M512 -9c-36.667 0 -68.6709 8.33105 -96.0039 24.998s-48.666 40 -63.999 70l-4 1l-67 -43.5c-18.667 -11.667 -35.167 -21.167 -49.5 -28.5s-27.666 -12.5 -39.999 -15.5s-25.166 -4.5 -38.499 -4.5c-38 0 -67.333 11.5 -88 34.5s-31 55.5 -31 97.5
c0 97.333 61.667 151 185 161l98 8v84c0 46.667 -9.66699 80.834 -29 102.501s-50 32.5 -92 32.5c-16.667 0 -35.667 -1.66699 -57 -5s-42.333 -7.66602 -63 -12.999l-6 34c23.333 5.33301 47 9.5 71 12.5s44.667 4.5 62 4.5c79.333 0 126.333 -37.333 141 -112h4
c30.667 75.333 83.334 113 158.001 113c48.667 0 86 -19 112 -57s39 -93 39 -165c0 -16 -0.333008 -29.167 -1 -39.5s-1.66699 -20.833 -3 -31.5h-302c1.33301 -74 16 -131 44 -171s67 -60 117 -60c21.333 0 41 2.5 59 7.5s37.667 13.167 59 24.5l5 -35
c-37.333 -20.667 -78.333 -31 -123 -31zM160.996 29.998c24 0 49.167 8.16797 75.5 24.501l101.5 65.5c-14 38 -21 85.667 -21 143l-92 -7c-56 -4.66699 -95.833 -16.834 -119.5 -36.501s-35.5 -49.5 -35.5 -89.5c0 -66.667 30.333 -100 91 -100zM619.996 289.999
c-2 79.333 -12 136.667 -30 172s-46 53 -84 53c-46 0 -82.5 -19.5 -109.5 -58.5s-42.167 -94.5 -45.5 -166.5h269zM341.996 616l75 182h36l-87 -188z" />
    <glyph glyph-name="Oslashacute" unicode="&#x1fe;" horiz-adv-x="599" 
d="M101 110c-30 62 -45 148.331 -45 258.998c0 128.667 20 224.334 60 287.001s101.333 94 184 94c79.333 0 139.333 -30.333 180 -91l56 81h39l-77 -112c30.667 -63.333 46 -149.666 46 -258.999c0 -252.667 -81.333 -379 -244 -379c-80 0 -140.333 29.667 -181 89l-54 -79
h-40zM90 368.998c0 -49.333 2.66895 -92.667 8.00195 -130s13.666 -70 24.999 -98l336 488c-34 58 -87 87 -159 87c-72.667 0 -125.834 -27.833 -159.501 -83.5s-50.5 -143.5 -50.5 -263.5zM300.002 23.9971c72.667 0 125.833 27.667 159.5 83s50.5 142.666 50.5 261.999
c0 94.667 -11.667 170.334 -35 227.001l-336 -488c33.333 -56 87 -84 161 -84zM278.001 786.997l79 123h38l-85 -126z" />
    <glyph glyph-name="oslashacute" unicode="&#x1ff;" horiz-adv-x="470" 
d="M202 616l75 182h36l-87 -188zM85 76c-26.667 47.333 -39.999 112 -39.999 194c0 91.333 16.167 160.833 48.5 208.5s79.5 71.5 141.5 71.5c54 0 96.667 -18.333 128 -55l30 45h39l-49 -74c13.333 -23.333 23.666 -51.333 30.999 -84s11 -70 11 -112
c0 -91.333 -16 -160.5 -48 -207.5s-79.333 -70.5 -142 -70.5c-55.333 0 -98.333 18.333 -129 55l-31 -47h-40zM235.001 26c102.667 0 154 81.334 154 244.001c0 69.333 -9.33301 123.666 -28 162.999l-235 -356c26 -34 62.333 -51 109 -51zM81.001 270.001
c0 -67.333 9 -121 27 -161l235 355c-26.667 34.667 -62.667 52 -108 52c-102.667 0 -154 -82 -154 -246z" />
    <glyph glyph-name="Adblgrave" unicode="&#x200;" horiz-adv-x="519" 
d="M10 6l229 734h41l229 -734v-6h-33l-78 249h-277l-78 -249h-33v6zM387 283l-94 303l-33 112h-2l-32 -112l-95 -303h256zM181 784l-85 126h38l79 -112zM308 784l-85 126h38l79 -112z" />
    <glyph glyph-name="adblgrave" unicode="&#x201;" horiz-adv-x="416" 
d="M153 -5c-38 0 -67.335 11.498 -88.002 34.498s-31 55.5 -31 97.5c0 97.333 61.667 151 185 161l98 8v84c0 46.667 -9.66699 80.834 -29 102.501s-50 32.5 -92 32.5c-16.667 0 -35.667 -1.66699 -57 -5s-42.333 -7.66602 -63 -12.999l-6 34c23.333 5.33301 47 9.5 71 12.5
s44.667 4.5 62 4.5c98.667 0 148 -56 148 -168v-380h-29l-6 65h-4l-35.5 -24.5c-12.333 -8.33301 -25.166 -15.833 -38.499 -22.5s-27.166 -12.167 -41.499 -16.5s-28.833 -6.5 -43.5 -6.5zM160.998 29.998c14 0 28.332 2.83301 42.999 8.5s28.834 12.334 42.501 20.001
s26.667 15.667 39 24s22.833 15.166 31.5 20.499v160l-92 -7c-56 -4 -95.833 -16 -119.5 -36s-35.5 -50 -35.5 -90c0 -66.667 30.333 -100 91 -100zM137.997 609.998l-87 188h40l74 -178zM278.997 609.998l-87 188h40l74 -178z" />
    <glyph glyph-name="Ainvertedbreve" unicode="&#x202;" horiz-adv-x="519" 
d="M10 6l229 734h41l229 -734v-6h-33l-78 249h-277l-78 -249h-33v6zM387 283l-94 303l-33 112h-2l-32 -112l-95 -303h256zM360 826c0 30.667 -8.83301 54.667 -26.5 72s-42.5 26 -74.5 26s-56.833 -8.66699 -74.5 -26s-26.5 -41.333 -26.5 -72h-34
c0 41.333 12 73.666 36 96.999s57 35 99 35s75 -11.667 99 -35s36 -55.666 36 -96.999h-34z" />
    <glyph glyph-name="ainvertedbreve" unicode="&#x203;" horiz-adv-x="416" 
d="M153 -5c-38 0 -67.335 11.498 -88.002 34.498s-31 55.5 -31 97.5c0 97.333 61.667 151 185 161l98 8v84c0 46.667 -9.66699 80.834 -29 102.501s-50 32.5 -92 32.5c-16.667 0 -35.667 -1.66699 -57 -5s-42.333 -7.66602 -63 -12.999l-6 34c23.333 5.33301 47 9.5 71 12.5
s44.667 4.5 62 4.5c98.667 0 148 -56 148 -168v-380h-29l-6 65h-4l-35.5 -24.5c-12.333 -8.33301 -25.166 -15.833 -38.499 -22.5s-27.166 -12.167 -41.499 -16.5s-28.833 -6.5 -43.5 -6.5zM160.998 29.998c14 0 28.332 2.83301 42.999 8.5s28.834 12.334 42.501 20.001
s26.667 15.667 39 24s22.833 15.166 31.5 20.499v160l-92 -7c-56 -4 -95.833 -16 -119.5 -36s-35.5 -50 -35.5 -90c0 -66.667 30.333 -100 91 -100zM86.9971 622.998c0 41.333 12 73.666 36 96.999s57 35 99 35s75 -11.667 99 -35s36 -55.666 36 -96.999h-34
c0 30.667 -8.83301 54.667 -26.5 72s-42.5 26 -74.5 26s-56.833 -8.66699 -74.5 -26s-26.5 -41.333 -26.5 -72h-34z" />
    <glyph glyph-name="Edblgrave" unicode="&#x204;" horiz-adv-x="487" 
d="M81 740h358v-34h-324v-313h291v-34h-291v-325h333v-34h-367v740zM179 784l-85 126h38l79 -112zM306 784l-85 126h38l79 -112z" />
    <glyph glyph-name="edblgrave" unicode="&#x205;" horiz-adv-x="424" 
d="M239 -9c-62 0 -109.998 23.3311 -143.998 69.998s-51 112.334 -51 197.001c0 94.667 16.167 166.834 48.5 216.501s79.166 74.5 140.499 74.5c48.667 0 86 -19 112 -57s39 -93 39 -165c0 -16 -0.333008 -29.167 -1 -39.5s-1.66699 -20.833 -3 -31.5h-300
c1.33301 -74 15.666 -131 42.999 -171s66 -60 116 -60c21.333 0 41 2.5 59 7.5s37.667 13.167 59 24.5l5 -35c-37.333 -20.667 -78.333 -31 -123 -31zM233.002 514.998c-46 0 -82.168 -19.502 -108.501 -58.502s-41.166 -94.5 -44.499 -166.5h268
c0 42 -2.33301 77.333 -7 106s-11.834 51.834 -21.501 69.501s-21.667 30.334 -36 38.001s-31.166 11.5 -50.499 11.5zM135.001 609.996l-87 188h40l74 -178zM276.001 609.996l-87 188h40l74 -178z" />
    <glyph glyph-name="Einvertedbreve" unicode="&#x206;" horiz-adv-x="487" 
d="M81 740h358v-34h-324v-313h291v-34h-291v-325h333v-34h-367v740zM358 826c0 30.667 -8.83301 54.667 -26.5 72s-42.5 26 -74.5 26s-56.833 -8.66699 -74.5 -26s-26.5 -41.333 -26.5 -72h-34c0 41.333 12 73.666 36 96.999s57 35 99 35s75 -11.667 99 -35
s36 -55.666 36 -96.999h-34z" />
    <glyph glyph-name="einvertedbreve" unicode="&#x207;" horiz-adv-x="424" 
d="M239 -9c-62 0 -109.998 23.3311 -143.998 69.998s-51 112.334 -51 197.001c0 94.667 16.167 166.834 48.5 216.501s79.166 74.5 140.499 74.5c48.667 0 86 -19 112 -57s39 -93 39 -165c0 -16 -0.333008 -29.167 -1 -39.5s-1.66699 -20.833 -3 -31.5h-300
c1.33301 -74 15.666 -131 42.999 -171s66 -60 116 -60c21.333 0 41 2.5 59 7.5s37.667 13.167 59 24.5l5 -35c-37.333 -20.667 -78.333 -31 -123 -31zM233.002 514.998c-46 0 -82.168 -19.502 -108.501 -58.502s-41.166 -94.5 -44.499 -166.5h268
c0 42 -2.33301 77.333 -7 106s-11.834 51.834 -21.501 69.501s-21.667 30.334 -36 38.001s-31.166 11.5 -50.499 11.5zM84.001 622.996c0 41.333 12 73.666 36 96.999s57 35 99 35s75 -11.667 99 -35s36 -55.666 36 -96.999h-34c0 30.667 -8.83301 54.667 -26.5 72
s-42.5 26 -74.5 26s-56.833 -8.66699 -74.5 -26s-26.5 -41.333 -26.5 -72h-34z" />
    <glyph glyph-name="Idblgrave" unicode="&#x208;" horiz-adv-x="196" 
d="M81 740h34v-740h-34v740zM23 784l-85 126h38l79 -112zM150 784l-85 126h38l79 -112z" />
    <glyph glyph-name="idblgrave" unicode="&#x209;" horiz-adv-x="176" 
d="M71 540h34v-540h-34v540zM13 610l-87 188h40l74 -178zM154 610l-87 188h40l74 -178z" />
    <glyph glyph-name="Iinvertedbreve" unicode="&#x20a;" horiz-adv-x="196" 
d="M81 740h34v-740h-34v740zM202 826c0 30.667 -8.83301 54.667 -26.5 72s-42.5 26 -74.5 26s-56.833 -8.66699 -74.5 -26s-26.5 -41.333 -26.5 -72h-34c0 41.333 12 73.666 36 96.999s57 35 99 35s75 -11.667 99 -35s36 -55.666 36 -96.999h-34z" />
    <glyph glyph-name="iinvertedbreve" unicode="&#x20b;" horiz-adv-x="176" 
d="M-38 623c0 41.333 12 73.666 36 96.999s57 35 99 35s75 -11.667 99 -35s36 -55.666 36 -96.999h-34c0 30.667 -8.83301 54.667 -26.5 72s-42.5 26 -74.5 26s-56.833 -8.66699 -74.5 -26s-26.5 -41.333 -26.5 -72h-34zM71 540h34v-540h-34v540z" />
    <glyph glyph-name="Odblgrave" unicode="&#x20c;" horiz-adv-x="586" 
d="M293 -10c-162.667 0 -244 126.332 -244 378.999c0 128.667 20 224.334 60 287.001s101.333 94 184 94c162.667 0 244 -127 244 -381c0 -252.667 -81.333 -379 -244 -379zM293 23.999c72.667 0 125.834 27.668 159.501 83.001s50.5 142.666 50.5 261.999
c0 118 -17.167 205.333 -51.5 262s-87.166 85 -158.499 85c-72.667 0 -125.834 -27.833 -159.501 -83.5s-50.5 -143.5 -50.5 -263.5s16.667 -207.5 50 -262.5s86.666 -82.5 159.999 -82.5zM215 784l-85 126h38l79 -112zM342 784l-85 126h38l79 -112z" />
    <glyph glyph-name="odblgrave" unicode="&#x20d;" horiz-adv-x="468" 
d="M234 -8c-62.667 0 -110 23.5 -142 70.5s-48 116.167 -48 207.5s16.167 160.833 48.5 208.5s79.5 71.5 141.5 71.5c62.667 0 110 -23.833 142 -71.5s48 -117.167 48 -208.5s-16 -160.5 -48 -207.5s-79.333 -70.5 -142 -70.5zM234 26c102.667 0 154 81.333 154 244
c0 164 -51.333 246 -154 246s-154 -82 -154 -246c0 -162.667 51.333 -244 154 -244zM145 610l-87 188h40l74 -178zM286 610l-87 188h40l74 -178z" />
    <glyph glyph-name="Oinvertedbreve" unicode="&#x20e;" horiz-adv-x="586" 
d="M293 -10c-162.667 0 -244 126.332 -244 378.999c0 128.667 20 224.334 60 287.001s101.333 94 184 94c162.667 0 244 -127 244 -381c0 -252.667 -81.333 -379 -244 -379zM293 23.999c72.667 0 125.834 27.668 159.501 83.001s50.5 142.666 50.5 261.999
c0 118 -17.167 205.333 -51.5 262s-87.166 85 -158.499 85c-72.667 0 -125.834 -27.833 -159.501 -83.5s-50.5 -143.5 -50.5 -263.5s16.667 -207.5 50 -262.5s86.666 -82.5 159.999 -82.5zM394 826c0 30.667 -8.83301 54.667 -26.5 72s-42.5 26 -74.5 26
s-56.833 -8.66699 -74.5 -26s-26.5 -41.333 -26.5 -72h-34c0 41.333 12 73.666 36 96.999s57 35 99 35s75 -11.667 99 -35s36 -55.666 36 -96.999h-34z" />
    <glyph glyph-name="oinvertedbreve" unicode="&#x20f;" horiz-adv-x="468" 
d="M234 -8c-62.667 0 -110 23.5 -142 70.5s-48 116.167 -48 207.5s16.167 160.833 48.5 208.5s79.5 71.5 141.5 71.5c62.667 0 110 -23.833 142 -71.5s48 -117.167 48 -208.5s-16 -160.5 -48 -207.5s-79.333 -70.5 -142 -70.5zM234 26c102.667 0 154 81.333 154 244
c0 164 -51.333 246 -154 246s-154 -82 -154 -246c0 -162.667 51.333 -244 154 -244zM94 623c0 41.333 12 73.666 36 96.999s57 35 99 35s75 -11.667 99 -35s36 -55.666 36 -96.999h-34c0 30.667 -8.83301 54.667 -26.5 72s-42.5 26 -74.5 26s-56.833 -8.66699 -74.5 -26
s-26.5 -41.333 -26.5 -72h-34z" />
    <glyph glyph-name="Rdblgrave" unicode="&#x210;" horiz-adv-x="512" 
d="M293 289c-13.333 -2.66699 -27.167 -4.49902 -41.5 -5.49902s-29.833 -1.5 -46.5 -1.5c-15.333 0 -30.333 0.5 -45 1.5s-29.667 2.16699 -45 3.5v-287h-34v735c26 5.33301 50.5 9.5 73.5 12.5s45.167 4.5 66.5 4.5c84 0 145.5 -18.833 184.5 -56.5
s58.5 -96.834 58.5 -177.501c0 -60.667 -11 -109 -33 -145s-57 -61.333 -105 -76l143 -297h-37zM215.999 316.001c74 0 128.165 16.167 162.498 48.5s51.5 83.5 51.5 153.5c0 68.667 -16.333 119.167 -49 151.5s-84 48.5 -154 48.5c-14.667 0 -31.167 -1 -49.5 -3
s-39.166 -4.66699 -62.499 -8v-384c19.333 -2.66699 37.333 -4.5 54 -5.5s32.334 -1.5 47.001 -1.5zM183.997 784.001l-85 126h38l79 -112zM310.997 784.001l-85 126h38l79 -112z" />
    <glyph glyph-name="rdblgrave" unicode="&#x211;" horiz-adv-x="285" 
d="M69 540l30 -0.00195312l4 -58h4c16 12.667 37.5 24.834 64.5 36.501s57.167 21.834 90.5 30.501h11v-42h-13c-68 -12 -120.333 -31.333 -157 -58v-449h-34v540zM84 609.998l-87 188h40l74 -178zM225 609.998l-87 188h40l74 -178z" />
    <glyph glyph-name="Rinvertedbreve" unicode="&#x212;" horiz-adv-x="512" 
d="M293 289c-13.333 -2.66699 -27.167 -4.49902 -41.5 -5.49902s-29.833 -1.5 -46.5 -1.5c-15.333 0 -30.333 0.5 -45 1.5s-29.667 2.16699 -45 3.5v-287h-34v735c26 5.33301 50.5 9.5 73.5 12.5s45.167 4.5 66.5 4.5c84 0 145.5 -18.833 184.5 -56.5
s58.5 -96.834 58.5 -177.501c0 -60.667 -11 -109 -33 -145s-57 -61.333 -105 -76l143 -297h-37zM215.999 316.001c74 0 128.165 16.167 162.498 48.5s51.5 83.5 51.5 153.5c0 68.667 -16.333 119.167 -49 151.5s-84 48.5 -154 48.5c-14.667 0 -31.167 -1 -49.5 -3
s-39.166 -4.66699 -62.499 -8v-384c19.333 -2.66699 37.333 -4.5 54 -5.5s32.334 -1.5 47.001 -1.5zM362.997 826.001c0 30.667 -8.83301 54.667 -26.5 72s-42.5 26 -74.5 26s-56.833 -8.66699 -74.5 -26s-26.5 -41.333 -26.5 -72h-34c0 41.333 12 73.666 36 96.999
s57 35 99 35s75 -11.667 99 -35s36 -55.666 36 -96.999h-34z" />
    <glyph glyph-name="rinvertedbreve" unicode="&#x213;" horiz-adv-x="285" 
d="M69 540l30 -0.00195312l4 -58h4c16 12.667 37.5 24.834 64.5 36.501s57.167 21.834 90.5 30.501h11v-42h-13c-68 -12 -120.333 -31.333 -157 -58v-449h-34v540zM33 622.998c0 41.333 12 73.666 36 96.999s57 35 99 35s75 -11.667 99 -35s36 -55.666 36 -96.999h-34
c0 30.667 -8.83301 54.667 -26.5 72s-42.5 26 -74.5 26s-56.833 -8.66699 -74.5 -26s-26.5 -41.333 -26.5 -72h-34z" />
    <glyph glyph-name="Udblgrave" unicode="&#x214;" horiz-adv-x="618" 
d="M309 -10c-41.333 0 -76.668 5.83301 -106.001 17.5s-53.5 29.667 -72.5 54s-33 55.5 -42 93.5s-13.5 83.667 -13.5 137v448h34v-450c0 -92.667 16 -160.167 48 -202.5s82.667 -63.5 152 -63.5s120 21.167 152 63.5s48 109.833 48 202.5v450h34v-448
c0 -53.333 -4.5 -99 -13.5 -137s-23 -69.167 -42 -93.5s-43.167 -42.333 -72.5 -54s-64.666 -17.5 -105.999 -17.5zM230.998 784l-85 126h38l79 -112zM357.998 784l-85 126h38l79 -112z" />
    <glyph glyph-name="udblgrave" unicode="&#x215;" horiz-adv-x="453" 
d="M186 -10c-44 0 -75.167 10.668 -93.5 32.001s-27.5 57.666 -27.5 108.999v409h34v-409c0 -71.333 29 -107 87 -107c24.667 0 50.167 5.83301 76.5 17.5s55.5 29.167 87.5 52.5v446h34v-540h-30l-4 58h-4c-32 -23.333 -61 -40.5 -87 -51.5s-50.333 -16.5 -73 -16.5z
M147 610.001l-87 188h40l74 -178zM288 610.001l-87 188h40l74 -178z" />
    <glyph glyph-name="Uinvertedbreve" unicode="&#x216;" horiz-adv-x="618" 
d="M309 -10c-41.333 0 -76.668 5.83301 -106.001 17.5s-53.5 29.667 -72.5 54s-33 55.5 -42 93.5s-13.5 83.667 -13.5 137v448h34v-450c0 -92.667 16 -160.167 48 -202.5s82.667 -63.5 152 -63.5s120 21.167 152 63.5s48 109.833 48 202.5v450h34v-448
c0 -53.333 -4.5 -99 -13.5 -137s-23 -69.167 -42 -93.5s-43.167 -42.333 -72.5 -54s-64.666 -17.5 -105.999 -17.5zM409.998 826c0 30.667 -8.83301 54.667 -26.5 72s-42.5 26 -74.5 26s-56.833 -8.66699 -74.5 -26s-26.5 -41.333 -26.5 -72h-34
c0 41.333 12 73.666 36 96.999s57 35 99 35s75 -11.667 99 -35s36 -55.666 36 -96.999h-34z" />
    <glyph glyph-name="uinvertedbreve" unicode="&#x217;" horiz-adv-x="453" 
d="M186 -10c-44 0 -75.167 10.668 -93.5 32.001s-27.5 57.666 -27.5 108.999v409h34v-409c0 -71.333 29 -107 87 -107c24.667 0 50.167 5.83301 76.5 17.5s55.5 29.167 87.5 52.5v446h34v-540h-30l-4 58h-4c-32 -23.333 -61 -40.5 -87 -51.5s-50.333 -16.5 -73 -16.5z
M96 623.001c0 41.333 12 73.666 36 96.999s57 35 99 35s75 -11.667 99 -35s36 -55.666 36 -96.999h-34c0 30.667 -8.83301 54.667 -26.5 72s-42.5 26 -74.5 26s-56.833 -8.66699 -74.5 -26s-26.5 -41.333 -26.5 -72h-34z" />
    <glyph glyph-name="uni0218" unicode="&#x218;" horiz-adv-x="453" 
d="M219 -14c-14 0 -29.501 0.833984 -46.501 2.50098s-34 4 -51 7s-33 6.5 -48 10.5s-27.833 8.33301 -38.5 13l8 32c8.66699 -4 20.167 -7.83301 34.5 -11.5s29.666 -7 45.999 -10s32.833 -5.33301 49.5 -7s32 -2.5 46 -2.5c52 0 92.333 13.667 121 41s43 66 43 116
c0 20 -3 38.5 -9 55.5s-15.667 32.833 -29 47.5s-30.333 28.5 -51 41.5s-45.667 25.833 -75 38.5c-31.333 13.333 -58 26.833 -80 40.5s-39.667 28 -53 43s-23 31.5 -29 49.5s-9 38 -9 60c0 30 4.83301 57.333 14.5 82s23.334 45.667 41.001 63s38.834 30.833 63.501 40.5
s52 14.5 82 14.5c22.667 0 45.667 -1.5 69 -4.5s49 -7.5 77 -13.5l-8 -34c-30.667 6.66699 -57 11.334 -79 14.001s-41.667 4 -59 4c-25.333 0 -48.166 -4 -68.499 -12s-37.833 -19.167 -52.5 -33.5s-26 -31.833 -34 -52.5s-12 -43.334 -12 -68.001
c0 -18.667 2.5 -35.334 7.5 -50.001s13.5 -28.334 25.5 -41.001s27.667 -24.667 47 -36s43 -22.666 71 -33.999c34 -14 62.833 -28.333 86.5 -43s42.667 -30.5 57 -47.5s24.666 -35.5 30.999 -55.5s9.5 -43 9.5 -69c0 -60 -17.5 -106.833 -52.5 -140.5
s-83.5 -50.5 -145.5 -50.5zM221.999 -65.999h35l-52 -154h-35z" />
    <glyph glyph-name="uni0219" unicode="&#x219;" horiz-adv-x="345" 
d="M166 -12c-16.667 0 -34.165 1.32812 -52.498 3.99512s-43.166 7.66699 -74.499 15v37c21.333 -6.66699 42.333 -11.834 63 -15.501s39 -5.5 55 -5.5c37.333 0 65.666 10.167 84.999 30.5s29 48.5 29 84.5c0 32 -7.33301 57.667 -22 77s-39 34 -73 44
c-15.333 4.66699 -30.833 9.83398 -46.5 15.501s-29.834 13.834 -42.501 24.501s-22.834 24.834 -30.501 42.501s-11.5 40.834 -11.5 69.501c0 43.333 13.333 77.833 40 103.5s62.334 38.5 107.001 38.5c7.33301 0 14.166 -0.166992 20.499 -0.5
s13.333 -1.16602 21 -2.49902s16 -3 25 -5s20.167 -4.33301 33.5 -7v-36c-38.667 10.667 -71.667 16 -99 16c-35.333 0 -62.666 -9.16699 -81.999 -27.5s-29 -44.833 -29 -79.5c0 -20.667 2.66699 -37.334 8 -50.001s12.666 -23.167 21.999 -31.5s20.333 -15.166 33 -20.499
s26.667 -10.333 42 -15c44.667 -14.667 76.167 -33.667 94.5 -57s27.5 -56.333 27.5 -99c0 -47.333 -13.5 -84.166 -40.5 -110.499s-61.167 -39.5 -102.5 -39.5zM169.002 -66.0049h35l-52 -154h-35z" />
    <glyph glyph-name="uni021A" unicode="&#x21a;" horiz-adv-x="447" 
d="M206 706h-194v34h422v-34h-194v-706h-34v706zM222 -66h35l-52 -154h-35z" />
    <glyph glyph-name="uni021B" unicode="&#x21b;" horiz-adv-x="312" 
d="M239 -4c-81.333 0 -122 46.333 -122 139v371h-104v34h105l5 125l28 8v-133h152v-34h-152v-371c0 -34 7.83301 -60 23.5 -78s38.5 -27 68.5 -27c7.33301 0 16.5 0.666992 27.5 2s20.167 3 27.5 5v-34c-23.333 -4.66699 -43 -7 -59 -7zM193 -66h35l-52 -154h-35z" />
    <glyph glyph-name="dotlessj" unicode="&#x237;" horiz-adv-x="172" 
d="M-10 -201c27.333 45.333 47.499 92.832 60.499 142.499s19.5 105.834 19.5 168.501v430h34v-447c0 -56 -7.66699 -110.667 -23 -164s-37.666 -103 -66.999 -149z" />
    <glyph glyph-name="schwa" unicode="&#x259;" horiz-adv-x="424" 
d="M185 549c62 0 109.998 -23.3301 143.998 -69.9971s51 -112.334 51 -197.001c0 -94.667 -16.167 -166.834 -48.5 -216.501s-79.166 -74.5 -140.499 -74.5c-48.667 0 -86 19 -112 57s-39 93 -39 165c0 16 0.333008 29.167 1 39.5s1.66699 20.833 3 31.5h300
c-1.33301 73.333 -15.666 130.166 -42.999 170.499s-66 60.5 -116 60.5c-21.333 0 -41 -2.5 -59 -7.5s-37.667 -13.167 -59 -24.5l-5 35c37.333 20.667 78.333 31 123 31zM190.998 25.0029c46 0 82 19.3311 108 57.998s40.667 94.334 44 167.001h-267
c1.33301 -79.333 11 -136.666 29 -171.999s46.667 -53 86 -53z" />
    <glyph glyph-name="apostrophe" unicode="&#x2bc;" horiz-adv-x="181" 
d="M109 808v-4l-24 -224h-10v228h34z" />
    <glyph glyph-name="circumflex" unicode="&#x2c6;" horiz-adv-x="325" 
d="M34 682l121 72l121 -72v-41l-121 72l-121 -72v41z" />
    <glyph glyph-name="caron" unicode="&#x2c7;" horiz-adv-x="317" 
d="M34 768l121 -72l121 72v-41l-121 -72l-121 72v41z" />
    <glyph glyph-name="uni02C9" unicode="&#x2c9;" horiz-adv-x="349" 
d="M61 687h229v-34h-229v34z" />
    <glyph glyph-name="breve" unicode="&#x2d8;" horiz-adv-x="388" 
d="M191 622c-42 0 -75 11.667 -99 35s-36 55.666 -36 96.999h34c0 -30.667 8.83301 -54.667 26.5 -72s42.5 -26 74.5 -26s56.833 8.66699 74.5 26s26.5 41.333 26.5 72h34c0 -41.333 -12 -73.666 -36 -96.999s-57 -35 -99 -35z" />
    <glyph glyph-name="dotaccent" unicode="&#x2d9;" horiz-adv-x="201" 
d="M90 634c-8 0 -14.833 2.33203 -20.5 6.99902s-8.5 12 -8.5 22c0 10.667 2.83301 18.334 8.5 23.001s12.5 7 20.5 7s15 -2.5 21 -7.5s9 -12.5 9 -22.5s-3 -17.333 -9 -22s-13 -7 -21 -7z" />
    <glyph glyph-name="ring" unicode="&#x2da;" horiz-adv-x="292" 
d="M144 618c-28.667 0 -50.5 9.66699 -65.5 29s-22.5 43 -22.5 71s7.33301 51.667 22 71s36.667 29 66 29s51.5 -9.66699 66.5 -29s22.5 -43 22.5 -71s-7.66699 -51.667 -23 -71s-37.333 -29 -66 -29zM144 652c17.333 0 30.834 6.33301 40.501 19s14.5 28.334 14.5 47.001
s-4.66699 34.334 -14 47.001s-23 19 -41 19s-31.5 -6.33301 -40.5 -19s-13.5 -28.334 -13.5 -47.001s4.66699 -34.334 14 -47.001s22.666 -19 39.999 -19z" />
    <glyph glyph-name="ogonek" unicode="&#x2db;" horiz-adv-x="235" 
d="M132 -220c-23.333 0 -42.002 7.33301 -56.002 22s-21 34.667 -21 60c0 53.333 31.333 99.333 94 138h29v-19c-32 -17.333 -54.833 -35 -68.5 -53s-20.5 -39 -20.5 -63c0 -18 3.83301 -31 11.5 -39s19.834 -12 36.501 -12c14.667 0 28.334 3.33301 41.001 10v-32
c-14 -8 -29.333 -12 -46 -12z" />
    <glyph glyph-name="tilde" unicode="&#x2dc;" horiz-adv-x="390" 
d="M41 660c9.33301 11.333 21.832 22.332 37.499 32.999s31.167 16 46.5 16c12.667 0 24 -2.16699 34 -6.5s19.5 -9.33301 28.5 -15s18 -10.667 27 -15s18.833 -6.5 29.5 -6.5s20.5 3.66699 29.5 11s16.167 17 21.5 29l28 -20c-6.66699 -15.333 -17.667 -28.166 -33 -38.499
s-30.666 -15.5 -45.999 -15.5c-12.667 0 -24 2.16699 -34 6.5s-19.5 9.33301 -28.5 15s-18 10.667 -27 15s-18.833 6.5 -29.5 6.5c-11.333 0 -22.333 -4 -33 -12s-19.667 -17 -27 -27z" />
    <glyph glyph-name="hungarumlaut" unicode="&#x2dd;" horiz-adv-x="341" 
d="M46 620l75 178h40l-87 -188zM187 620l75 178h40l-87 -188z" />
    <glyph glyph-name="uni030F" unicode="&#x30f;" horiz-adv-x="349" 
d="M126 610l-87 188h40l74 -178zM267 610l-87 188h40l74 -178z" />
    <glyph glyph-name="uni0311" unicode="&#x311;" horiz-adv-x="386" 
d="M56 623c0 41.333 12 73.666 36 96.999s57 35 99 35s75 -11.667 99 -35s36 -55.666 36 -96.999h-34c0 30.667 -8.83301 54.667 -26.5 72s-42.5 26 -74.5 26s-56.833 -8.66699 -74.5 -26s-26.5 -41.333 -26.5 -72h-34v0z" />
    <glyph glyph-name="uni0394" unicode="&#x394;" horiz-adv-x="521" 
d="M238 740h45l229 -740h-503zM465 34l-205 662l-205 -662h410z" />
    <glyph glyph-name="uni03A9" unicode="&#x3a9;" horiz-adv-x="690" 
d="M41 34h206.004c-20.667 12.667 -42.5 29 -65.5 49s-44 44.5 -63 73.5s-34.833 63.333 -47.5 103s-19 85.834 -19 138.501s7 100.667 21 144s33.667 80.5 59 111.5s56.166 54.833 92.499 71.5s76.5 25 120.5 25s84.167 -8.33301 120.5 -25s67.166 -40.5 92.499 -71.5
s45 -68.167 59 -111.5s21 -91.333 21 -144s-6.33301 -98.834 -19 -138.501s-28.667 -74 -48 -103s-40.333 -53.5 -63 -73.5s-44.334 -36.333 -65.001 -49h206v-34h-263v32c16 9.33301 36.333 22.333 61 39s48.667 39 72 67s43.333 63.167 60 105.5s25 93.833 25 154.5
c0 48 -6.16699 91.5 -18.5 130.5s-29.833 72.333 -52.5 100s-50 49.167 -82 64.5s-67.333 23 -106 23c-39.333 0 -74.833 -7.66699 -106.5 -23s-58.834 -36.833 -81.501 -64.5s-40.167 -61 -52.5 -100s-18.5 -82.5 -18.5 -130.5c0 -60.667 8.33301 -112.167 25 -154.5
s36.667 -77.5 60 -105.5s47.333 -50.333 72 -67s45 -29.667 61 -39v-32h-263v34z" />
    <glyph glyph-name="uni03BC" unicode="&#x3bc;" horiz-adv-x="457" 
d="M69 540h34v-409c0 -71.333 29 -107 87 -107c24.667 0 49.667 5.33301 75 16s55 27.667 89 51v449h34v-540h-30l-4 58h-4c-32 -23.333 -61 -40.5 -87 -51.5s-50.333 -16.5 -73 -16.5c-40 0 -69 8.66699 -87 26v-236h-34v760z" />
    <glyph glyph-name="pi" unicode="&#x3c0;" horiz-adv-x="539" 
d="M162 506h-7.00195c-30.667 0 -54.5 -6.83301 -71.5 -20.5s-29.167 -35.5 -36.5 -65.5l-31 15c10.667 37.333 27.334 64.166 50.001 80.499s51.334 24.5 86.001 24.5h349l15 -15v-19h-110v-395c0 -24 6.83301 -42.833 20.5 -56.5s29.167 -20.5 46.5 -20.5h16v-34h-16
c-30 0 -54.333 9.33301 -73 28s-28 46.334 -28 83.001v395h-176v-607h-34v607z" />
    <glyph glyph-name="Ddotbelow" unicode="&#x1e0c;" horiz-adv-x="561" 
d="M182 -18c-17.333 0 -34.166 0.5 -50.499 1.5s-33.166 2.83301 -50.499 5.5v743c29.333 6 55.666 10.5 78.999 13.5s45 4.5 65 4.5c97.333 0 169.666 -31.333 216.999 -94s71 -158.334 71 -287.001c0 -133.333 -26.667 -231.166 -80 -293.499s-137 -93.5 -251 -93.5z
M185 17c194.667 0 291.999 117.333 291.999 352c0 118.667 -20.833 206.167 -62.5 262.5s-106.5 84.5 -194.5 84.5c-17.333 0 -34.666 -0.833008 -51.999 -2.5s-35 -4.16699 -53 -7.5v-684c13.333 -1.33301 25.833 -2.5 37.5 -3.5s22.5 -1.5 32.5 -1.5zM253.999 -160
c-10.667 0 -19.167 2.66699 -25.5 8s-9.5 14.333 -9.5 27c0 13.333 3.16699 22.5 9.5 27.5s14.833 7.5 25.5 7.5c10 0 18.333 -2.66699 25 -8s10 -14.333 10 -27s-3.33301 -21.667 -10 -27s-15 -8 -25 -8z" />
    </font>
</defs>
</svg>
