<?xml version="1.0" standalone="no"?>
<!DOCTYPE svg PUBLIC "-//W3C//DTD SVG 1.1//EN" "http://www.w3.org/Graphics/SVG/1.1/DTD/svg11.dtd" >
<svg>
<metadata>
Created by FontForge 20090914 at Sat Aug  6 09:00:14 2016
 By www-data
Copyright (c) 2012, Impallari Type (www.impallari.com), with Reserved Font Name Encode Sans.
</metadata>
<defs>
<font id="EncodeSans-Bold" horiz-adv-x="616" >
  <font-face 
    font-family="Encode Sans"
    font-weight="700"
    font-stretch="normal"
    units-per-em="1000"
    panose-1="2 0 0 0 0 0 0 0 0 0"
    ascent="800"
    descent="-200"
    x-height="540"
    cap-height="740"
    bbox="-136 -220.001 1829 1030"
    underline-thickness="55"
    underline-position="-57"
    unicode-range="U+000D-U+FB04"
  />
<missing-glyph horiz-adv-x="817" 
d="M79 1030h658v-1250h-658v1250zM601 -94v998h-386v-998h386z" />
    <glyph glyph-name="f_f" unicode="ff" horiz-adv-x="902" 
d="M578 400l-279.996 0.00195312v-400h-167v400h-116v140h117v25c0 46.667 5.5 85.667 16.5 117s29.167 56.666 54.5 75.999s58.666 33.333 99.999 42s92 13.667 152 15l8 -120c-31.333 -1.33301 -57.5 -4 -78.5 -8s-37.833 -10.5 -50.5 -19.5
s-21.834 -20.833 -27.501 -35.5s-8.5 -33 -8.5 -55v-37h281v25c0 46.667 5.5 85.667 16.5 117s29.167 56.666 54.5 75.999s58.666 33.333 99.999 42s92 13.667 152 15l8 -120c-31.333 -1.33301 -57.5 -4 -78.5 -8s-37.833 -10.5 -50.5 -19.5s-21.834 -20.833 -27.501 -35.5
s-8.5 -33 -8.5 -55v-37h144v-140h-144v-400h-167v400z" />
    <glyph glyph-name="f_i" unicode="fi" horiz-adv-x="756" 
d="M611 618c-32.667 0 -55.999 7 -69.999 21s-21 36.667 -21 68s7 54 21 68s37.333 21 70 21c33.333 0 57.166 -7.33301 71.499 -22s21.5 -37 21.5 -67s-7 -52.333 -21 -67s-38 -22 -72 -22zM528.001 540h167v-540h-167v540zM131.001 400l-115.998 0.000976562v140h117v25
c0 46.667 5.5 85.667 16.5 117s29.167 56.666 54.5 75.999s58.666 33.333 99.999 42s92 13.667 152 15l8 -120c-31.333 -1.33301 -57.5 -4 -78.5 -8s-37.833 -10.5 -50.5 -19.5s-21.834 -20.833 -27.501 -35.5s-8.5 -33 -8.5 -55v-37h144v-140h-144v-400h-167v400z" />
    <glyph glyph-name="f_l" unicode="fl" horiz-adv-x="757" 
d="M131 400l-115.998 0.000976562v140h117v25c0 46.667 5.5 85.667 16.5 117s29.167 56.666 54.5 75.999s58.666 33.333 99.999 42s92 13.667 152 15l8 -120c-31.333 -1.33301 -57.5 -4 -78.5 -8s-37.833 -10.5 -50.5 -19.5s-21.834 -20.833 -27.501 -35.5
s-8.5 -33 -8.5 -55v-37h144v-140h-144v-400h-167v400zM527.002 808.001h167v-808h-167v808z" />
    <glyph glyph-name="f_f_i" unicode="ffi" horiz-adv-x="1200" 
d="M131 400l-115.996 0.00195312v140h117v25c0 46.667 5.5 85.667 16.5 117s29.167 56.666 54.5 75.999s58.666 33.333 99.999 42s92 13.667 152 15l8 -120c-31.333 -1.33301 -57.5 -4 -78.5 -8s-37.833 -10.5 -50.5 -19.5s-21.834 -20.833 -27.501 -35.5s-8.5 -33 -8.5 -55
v-37h277v25c0 46.667 5.5 85.667 16.5 117s29.167 56.666 54.5 75.999s58.666 33.333 99.999 42s92 13.667 152 15l8 -120c-31.333 -1.33301 -57.5 -4 -78.5 -8s-37.833 -10.5 -50.5 -19.5s-21.834 -20.833 -27.501 -35.5s-8.5 -33 -8.5 -55v-37h144v-140h-144v-400h-167
v400h-276v-400h-167v400zM971.004 540.002h167v-540h-167v540zM1054 618.002c-32.667 0 -55.999 7 -69.999 21s-21 36.667 -21 68s7 54 21 68s37.333 21 70 21c33.333 0 57.166 -7.33301 71.499 -22s21.5 -37 21.5 -67s-7 -52.333 -21 -67s-38 -22 -72 -22z" />
    <glyph glyph-name="f_f_l" unicode="ffl" horiz-adv-x="1200" 
d="M131 400l-115.996 0.00195312v140h117v25c0 46.667 5.5 85.667 16.5 117s29.167 56.666 54.5 75.999s58.666 33.333 99.999 42s92 13.667 152 15l8 -120c-31.333 -1.33301 -57.5 -4 -78.5 -8s-37.833 -10.5 -50.5 -19.5s-21.834 -20.833 -27.501 -35.5s-8.5 -33 -8.5 -55
v-37h277v25c0 46.667 5.5 85.667 16.5 117s29.167 56.666 54.5 75.999s58.666 33.333 99.999 42s92 13.667 152 15l8 -120c-31.333 -1.33301 -57.5 -4 -78.5 -8s-37.833 -10.5 -50.5 -19.5s-21.834 -20.833 -27.501 -35.5s-8.5 -33 -8.5 -55v-37h144v-140h-144v-400h-167
v400h-276v-400h-167v400zM971.004 808.002h167v-808h-167v808z" />
    <glyph glyph-name="f_b" unicode="fb" horiz-adv-x="1122" 
d="M131 400l-115.998 0.000976562v140h117v25c0 46.667 5.5 85.667 16.5 117s29.167 56.666 54.5 75.999s58.666 33.333 99.999 42s92 13.667 152 15l8 -120c-31.333 -1.33301 -57.5 -4 -78.5 -8s-37.833 -10.5 -50.5 -19.5s-21.834 -20.833 -27.501 -35.5
s-8.5 -33 -8.5 -55v-37h144v-140h-144v-400h-167v400zM786.002 -10.999c-16 0 -32.668 0.334961 -50.001 1.00195s-36.166 2.16699 -56.499 4.5s-43 5.5 -68 9.5s-53.5 9.33301 -85.5 16v788h167v-325c37.333 44 92.333 66 165 66c75.333 0 132.166 -22 170.499 -66
s57.5 -111.333 57.5 -202c0 -94.667 -26.167 -166.834 -78.5 -216.501s-126.166 -74.834 -221.499 -75.501zM784.001 103.003c25.333 0 46.6699 2.5 64.0029 7.5s31.166 13.833 41.499 26.5s17.666 29.667 21.999 51s6.5 48.333 6.5 81c0 29.333 -1.83301 54 -5.5 74
s-9.83398 36 -18.501 48s-20 20.5 -34 25.5s-31.333 7.5 -52 7.5c-36 0 -64.167 -8.83301 -84.5 -26.5s-30.5 -45.5 -30.5 -83.5v-203c24.667 -5.33301 55 -8 91 -8z" />
    <glyph glyph-name="f_f_b" unicode="ffb" horiz-adv-x="1565" 
d="M131 400l-115.996 0.00195312v140h117v25c0 46.667 5.5 85.667 16.5 117s29.167 56.666 54.5 75.999s58.666 33.333 99.999 42s92 13.667 152 15l8 -120c-31.333 -1.33301 -57.5 -4 -78.5 -8s-37.833 -10.5 -50.5 -19.5s-21.834 -20.833 -27.501 -35.5s-8.5 -33 -8.5 -55
v-37h277v25c0 46.667 5.5 85.667 16.5 117s29.167 56.666 54.5 75.999s58.666 33.333 99.999 42s92 13.667 152 15l8 -120c-31.333 -1.33301 -57.5 -4 -78.5 -8s-37.833 -10.5 -50.5 -19.5s-21.834 -20.833 -27.501 -35.5s-8.5 -33 -8.5 -55v-37h144v-140h-144v-400h-167
v400h-276v-400h-167v400zM1229 -10.998c-16 0 -32.668 0.334961 -50.001 1.00195s-36.166 2.16699 -56.499 4.5s-43 5.5 -68 9.5s-53.5 9.33301 -85.5 16v788h167v-325c37.333 44 92.333 66 165 66c75.333 0 132.166 -22 170.499 -66s57.5 -111.333 57.5 -202
c0 -94.667 -26.167 -166.834 -78.5 -216.501s-126.166 -74.834 -221.499 -75.501zM1227 103.004c25.333 0 46.6699 2.5 64.0029 7.5s31.166 13.833 41.499 26.5s17.666 29.667 21.999 51s6.5 48.333 6.5 81c0 29.333 -1.83301 54 -5.5 74s-9.83398 36 -18.501 48
s-20 20.5 -34 25.5s-31.333 7.5 -52 7.5c-36 0 -64.167 -8.83301 -84.5 -26.5s-30.5 -45.5 -30.5 -83.5v-203c24.667 -5.33301 55 -8 91 -8z" />
    <glyph glyph-name="f_f_h" unicode="ffh" horiz-adv-x="1567" 
d="M131 400l-115.996 0.00195312v140h117v25c0 46.667 5.5 85.667 16.5 117s29.167 56.666 54.5 75.999s58.666 33.333 99.999 42s92 13.667 152 15l8 -120c-31.333 -1.33301 -57.5 -4 -78.5 -8s-37.833 -10.5 -50.5 -19.5s-21.834 -20.833 -27.501 -35.5s-8.5 -33 -8.5 -55
v-37h277v25c0 46.667 5.5 85.667 16.5 117s29.167 56.666 54.5 75.999s58.666 33.333 99.999 42s92 13.667 152 15l8 -120c-31.333 -1.33301 -57.5 -4 -78.5 -8s-37.833 -10.5 -50.5 -19.5s-21.834 -20.833 -27.501 -35.5s-8.5 -33 -8.5 -55v-37h144v-140h-144v-400h-167
v400h-276v-400h-167v400zM971.004 808.002h167.001v-325c46 22 86.667 38.667 122 50s67.666 17 96.999 17c48 0 85.5 -13 112.5 -39s40.5 -63 40.5 -111v-400h-167v344c0 26.667 -5 45.667 -15 57s-25.667 17 -47 17c-17.333 0 -38.5 -3.33301 -63.5 -10
s-51.5 -15.667 -79.5 -27v-381h-167v808z" />
    <glyph glyph-name="f_f_j" unicode="ffj" horiz-adv-x="1202" 
d="M131 400l-115.996 0.00195312v140h117v25c0 46.667 5.5 85.667 16.5 117s29.167 56.666 54.5 75.999s58.666 33.333 99.999 42s92 13.667 152 15l8 -120c-31.333 -1.33301 -57.5 -4 -78.5 -8s-37.833 -10.5 -50.5 -19.5s-21.834 -20.833 -27.501 -35.5s-8.5 -33 -8.5 -55
v-37h277v25c0 46.667 5.5 85.667 16.5 117s29.167 56.666 54.5 75.999s58.666 33.333 99.999 42s92 13.667 152 15l8 -120c-31.333 -1.33301 -57.5 -4 -78.5 -8s-37.833 -10.5 -50.5 -19.5s-21.834 -20.833 -27.501 -35.5s-8.5 -33 -8.5 -55v-37h144v-140h-144v-400h-167
v400h-276v-400h-167v400zM929.004 -196.998c8.66699 26 16 51.499 22 76.499s11 51 15 78s6.83301 56.333 8.5 88s2.5 67.5 2.5 107.5v34v59v74c0 26.667 -0.166992 53.334 -0.5 80.001l-1 76.5c-0.333008 24.333 -0.5 45.5 -0.5 63.5h166v-464
c-3.33301 -54 -13 -105.833 -29 -155.5s-36.667 -96.5 -62 -140.5zM1057 618.001c-32.667 0 -56 7 -70 21s-21 36.667 -21 68s7 54 21 68s37.333 21 70 21c33.333 0 57 -7.33301 71 -22s21 -37 21 -67s-7 -52.333 -21 -67s-37.667 -22 -71 -22z" />
    <glyph glyph-name="f_f_k" unicode="ffk" horiz-adv-x="1524" 
d="M131 400l-115.996 0.00195312v140h117v25c0 46.667 5.5 85.667 16.5 117s29.167 56.666 54.5 75.999s58.666 33.333 99.999 42s92 13.667 152 15l8 -120c-31.333 -1.33301 -57.5 -4 -78.5 -8s-37.833 -10.5 -50.5 -19.5s-21.834 -20.833 -27.501 -35.5s-8.5 -33 -8.5 -55
v-37h277v25c0 46.667 5.5 85.667 16.5 117s29.167 56.666 54.5 75.999s58.666 33.333 99.999 42s92 13.667 152 15l8 -120c-31.333 -1.33301 -57.5 -4 -78.5 -8s-37.833 -10.5 -50.5 -19.5s-21.834 -20.833 -27.501 -35.5s-8.5 -33 -8.5 -55v-37h144v-140h-144v-400h-167
v400h-276v-400h-167v400zM971.004 808.002h167v-477h60l135 209h184l-180 -252l-24 -8v-4l25 -8l196 -268h-183l-155 225h-58v-225h-167v808z" />
    <glyph glyph-name="f_f_t" unicode="fft" horiz-adv-x="1337" 
d="M1192 -12c-62 0 -108.831 14.5029 -140.498 43.5029s-47.5 71.833 -47.5 128.5v240h-263v-400h-167v400h-276v-400h-167v400h-116v140h117v25c0 46.667 5.5 85.667 16.5 117s29.167 56.666 54.5 75.999s58.666 33.333 99.999 42s92 13.667 152 15l8 -120
c-31.333 -1.33301 -57.5 -4 -78.5 -8s-37.833 -10.5 -50.5 -19.5s-21.834 -20.833 -27.501 -35.5s-8.5 -33 -8.5 -55v-37h277v25c0 46.667 5.5 85.667 16.5 117s29.167 56.666 54.5 75.999s58.666 33.333 99.999 42s92 13.667 152 15l8 -120
c-31.333 -1.33301 -57.5 -4 -78.5 -8s-37.833 -10.5 -50.5 -19.5s-21.834 -20.833 -27.501 -35.5s-8.5 -33 -8.5 -55v-37h274l25 156l130 14v-170h139v-140h-138v-202c0 -30 5.83301 -51.333 17.5 -64s31.5 -19 59.5 -19c18.667 0 39.667 4 63 12v-124
c-15.333 -4.66699 -33.666 -8.33398 -54.999 -11.001s-42.666 -4 -63.999 -4z" />
    <glyph glyph-name="f_h" unicode="fh" horiz-adv-x="1124" 
d="M527 808h167.001v-325c46 22 86.667 38.667 122 50s67.666 17 96.999 17c48 0 85.5 -13 112.5 -39s40.5 -63 40.5 -111v-400h-167v344c0 26.667 -5 45.667 -15 57s-25.667 17 -47 17c-17.333 0 -38.5 -3.33301 -63.5 -10s-51.5 -15.667 -79.5 -27v-381h-167v808z
M131.001 400l-115.998 0.000976562v140h117v25c0 46.667 5.5 85.667 16.5 117s29.167 56.666 54.5 75.999s58.666 33.333 99.999 42s92 13.667 152 15l8 -120c-31.333 -1.33301 -57.5 -4 -78.5 -8s-37.833 -10.5 -50.5 -19.5s-21.834 -20.833 -27.501 -35.5
s-8.5 -33 -8.5 -55v-37h144v-140h-144v-400h-167v400z" />
    <glyph glyph-name="f_j" unicode="fj" horiz-adv-x="759" 
d="M131 400l-115.998 0.000976562v140h117v25c0 46.667 5.5 85.667 16.5 117s29.167 56.666 54.5 75.999s58.666 33.333 99.999 42s92 13.667 152 15l8 -120c-31.333 -1.33301 -57.5 -4 -78.5 -8s-37.833 -10.5 -50.5 -19.5s-21.834 -20.833 -27.501 -35.5
s-8.5 -33 -8.5 -55v-37h144v-140h-144v-400h-167v400zM613.002 618.001c-32.667 0 -56 7 -70 21s-21 36.667 -21 68s7 54 21 68s37.333 21 70 21c33.333 0 57 -7.33301 71 -22s21 -37 21 -67s-7 -52.333 -21 -67s-37.667 -22 -71 -22zM485.002 -196.999
c8.66699 26 16 51.499 22 76.499s11 51 15 78s6.83301 56.333 8.5 88s2.5 67.5 2.5 107.5v34v59v74c0 26.667 -0.166992 53.334 -0.5 80.001l-1 76.5c-0.333008 24.333 -0.5 45.5 -0.5 63.5h166v-464c-3.33301 -54 -13 -105.833 -29 -155.5s-36.667 -96.5 -62 -140.5z" />
    <glyph glyph-name="f_k" unicode="fk" horiz-adv-x="1081" 
d="M527 808h167v-477h60l135 209h184l-180 -252l-24 -8v-4l25 -8l196 -268h-183l-155 225h-58v-225h-167v808zM131 400l-115.998 0.000976562v140h117v25c0 46.667 5.5 85.667 16.5 117s29.167 56.666 54.5 75.999s58.666 33.333 99.999 42s92 13.667 152 15l8 -120
c-31.333 -1.33301 -57.5 -4 -78.5 -8s-37.833 -10.5 -50.5 -19.5s-21.834 -20.833 -27.501 -35.5s-8.5 -33 -8.5 -55v-37h144v-140h-144v-400h-167v400z" />
    <glyph glyph-name="f_t" unicode="ft" horiz-adv-x="894" 
d="M749 -12c-62 0 -108.833 14.502 -140.5 43.502s-47.5 71.833 -47.5 128.5v240h-263v-400h-167v400h-116v140h117v25c0 46.667 5.5 85.667 16.5 117s29.167 56.666 54.5 75.999s58.666 33.333 99.999 42s92 13.667 152 15l8 -120c-31.333 -1.33301 -57.5 -4 -78.5 -8
s-37.833 -10.5 -50.5 -19.5s-21.834 -20.833 -27.501 -35.5s-8.5 -33 -8.5 -55v-37h274l25 156l130 14v-170h139v-140h-138v-202c0 -30 5.83301 -51.333 17.5 -64s31.5 -19 59.5 -19c18.667 0 39.667 4 63 12v-124c-15.333 -4.66699 -33.666 -8.33398 -54.999 -11.001
s-42.666 -4 -63.999 -4z" />
    <glyph glyph-name=".notdef" horiz-adv-x="817" 
d="M79 1030h658v-1250h-658v1250zM601 -94v998h-386v-998h386z" />
    <glyph glyph-name="NULL" horiz-adv-x="0" 
 />
    <glyph glyph-name="NULL" horiz-adv-x="0" 
 />
    <glyph glyph-name="nonmarkingreturn" unicode="&#xd;" horiz-adv-x="307" 
 />
    <glyph glyph-name="space" unicode=" " horiz-adv-x="214" 
 />
    <glyph glyph-name="exclam" unicode="!" horiz-adv-x="296" 
d="M149 -6c-26.667 0 -47.334 7.16699 -62.001 21.5s-22 34.166 -22 59.499s7.33301 45 22 59s35.334 21 62.001 21s47.334 -7 62.001 -21s22 -33.667 22 -59s-7.33301 -45.166 -22 -59.499s-35.334 -21.5 -62.001 -21.5zM97 251l-32 479v10h166v-10l-32 -479v-11h-102v11z
" />
    <glyph glyph-name="quotedbl" unicode="&#x22;" horiz-adv-x="445" 
d="M189 808v-4l-43 -324h-90v328h133zM408 808v-4l-43 -324h-90v328h133z" />
    <glyph glyph-name="numbersign" unicode="#" horiz-adv-x="641" 
d="M365 192h-116l-15 -192h-113l15 192h-92v104h101l12 145h-113v105h121l16 194h113l-16 -194h116l16 194h113l-16 -194h90v-105h-98l-12 -145h110v-104h-119l-15 -192h-113zM258 296h116l12 145h-116z" />
    <glyph glyph-name="dollar" unicode="$" horiz-adv-x="639" 
d="M250 -10c-34 2 -69.3359 5.49902 -106.003 10.499s-71.334 11.5 -104.001 19.5v138c48 -11.333 93.5 -20 136.5 -26s82.167 -9 117.5 -9c47.333 0 81.833 6.5 103.5 19.5s32.5 32.5 32.5 58.5c0 30 -11.833 51.667 -35.5 65s-57.5 24.333 -101.5 33
c-41.333 8 -77.166 18.167 -107.499 30.5s-55.666 27.666 -75.999 45.999s-35.5 40.5 -45.5 66.5s-15 56.667 -15 92c0 54 16.833 99 50.5 135s80.834 60.333 141.501 73v144h153v-136c23.333 -1.33301 48.833 -4.16602 76.5 -8.49902s60.167 -10.166 97.5 -17.499v-137
c-33.333 9.33301 -69 16.833 -107 22.5s-72 8.5 -102 8.5c-43.333 0 -76.333 -7 -99 -21s-34 -34 -34 -60c0 -28 11.333 -49.333 34 -64s59.334 -27.667 110.001 -39c38 -8 71.833 -17.833 101.5 -29.5s54.5 -26 74.5 -43s35.333 -37.5 46 -61.5s16 -52.333 16 -85
c0 -61.333 -17.167 -110.5 -51.5 -147.5s-85.5 -61.167 -153.5 -72.5v-141h-153v136z" />
    <glyph glyph-name="percent" unicode="%" horiz-adv-x="1095" 
d="M245 277c-68.667 0 -121.334 19.8311 -158.001 59.498s-55 98.834 -55 177.501s18.333 137.667 55 177s89.334 59 158.001 59s121.167 -19.667 157.5 -59s54.5 -98.333 54.5 -177c0 -79.333 -18.167 -138.666 -54.5 -177.999s-88.833 -59 -157.5 -59zM245 380.998
c31.333 0 54.333 9.83301 69 29.5s22 54.167 22 103.5c0 48.667 -7.33301 83 -22 103s-37.667 30 -69 30c-32 0 -55.333 -10 -70 -30s-22 -54.333 -22 -103c0 -49.333 7.33301 -83.833 22 -103.5s38 -29.5 70 -29.5zM851 -10.002c-68 0 -120.333 19.667 -157 59
s-55 98.333 -55 177s18.333 137.834 55 177.501s89 59.5 157 59.5c68.667 0 121.334 -19.833 158.001 -59.5s55 -98.834 55 -177.501s-18.333 -137.667 -55 -177s-89.334 -59 -158.001 -59zM851 92.998c32 0 55.333 9.83301 70 29.5s22 54.167 22 103.5
s-7.33301 83.833 -22 103.5s-38 29.5 -70 29.5s-55.167 -10 -69.5 -30s-21.5 -54.333 -21.5 -103c0 -49.333 7.16699 -83.833 21.5 -103.5s37.5 -29.5 69.5 -29.5zM648 739.998h143l-345 -740h-143z" />
    <glyph glyph-name="ampersand" unicode="&#x26;" horiz-adv-x="787" 
d="M351 -10c-47.333 0 -90.168 5 -128.501 15s-70.833 24.5 -97.5 43.5s-47.167 41.667 -61.5 68s-21.5 56.166 -21.5 89.499c0 46.667 12.5 86.667 37.5 120s60.5 57.333 106.5 72c-26.667 26.667 -45.667 52.834 -57 78.501s-17 52.5 -17 80.5
c0 61.333 24.167 109.166 72.5 143.499s115.5 51.5 201.5 51.5c64 0 132.333 -10.333 205 -31l2 -5l-18 -111h-9c-28 9.33301 -56.333 16.666 -85 21.999s-54.667 8 -78 8c-80 0 -120 -30.667 -120 -92c0 -31.333 15.833 -62.333 47.5 -93s81.834 -64.667 150.501 -102
l73 -40c0 5.33301 0.166992 10.833 0.5 16.5s0.5 11.5 0.5 17.5v85l151 5v-89c0 -20 -1.16699 -39.167 -3.5 -57.5s-5.5 -36.166 -9.5 -53.499l92 -49v-11l-62 -117h-9l-83 49c-30 -37.333 -68.5 -65.666 -115.5 -84.999s-101.833 -29 -164.5 -29zM413.998 234l-71 43.5
c-22 13.667 -42 27.167 -60 40.5c-46 -20 -69 -54.333 -69 -103c0 -33.333 13.5 -60 40.5 -80s62.833 -30 107.5 -30c70.667 0 121.667 22.667 153 68z" />
    <glyph glyph-name="quotesingle" unicode="'" horiz-adv-x="225" 
d="M189 808v-4l-43 -324h-90v328h133z" />
    <glyph glyph-name="parenleft" unicode="(" horiz-adv-x="342" 
d="M189 -160c-51.333 74.667 -89.833 155.999 -115.5 243.999s-38.5 178 -38.5 270c0 92.667 12.833 182.834 38.5 270.501s64.167 168.834 115.5 243.501h146v-4c-51.333 -74.667 -91.833 -155.5 -121.5 -242.5s-44.5 -176.167 -44.5 -267.5
c0 -92 14.833 -181.333 44.5 -268s70.167 -167.334 121.5 -242.001v-4h-146v0z" />
    <glyph glyph-name="parenright" unicode=")" horiz-adv-x="341" 
d="M7 -160v4.00098c50.667 74.667 91 155.334 121 242.001s45 176 45 268c0 91.333 -15 180.5 -45 267.5s-70.333 167.833 -121 242.5v4h145c51.333 -74.667 89.833 -155.834 115.5 -243.501s38.5 -177.834 38.5 -270.501c0 -92 -12.833 -182 -38.5 -270
s-64.167 -169.333 -115.5 -244h-145z" />
    <glyph glyph-name="asterisk" unicode="*" horiz-adv-x="501" 
d="M87 478l44 62l83 71l-109 8l-71 24l29 89l72 -23l94 -57l-25 108v75h94v-75l-26 -107l93 56l72 23l29 -89l-71 -24l-109 -8l83 -71l45 -62l-76 -54l-45 60l-43 104l-43 -104l-44 -60z" />
    <glyph glyph-name="plus" unicode="+" horiz-adv-x="513" 
d="M35 423h169v160h105v-160h169v-106h-169v-160h-105v160h-169v106z" />
    <glyph glyph-name="comma" unicode="," horiz-adv-x="281" 
d="M24 -145l44 311h168l-87 -321z" />
    <glyph glyph-name="hyphen" unicode="-" horiz-adv-x="514" 
d="M56 342h402v-124h-402v124z" />
    <glyph glyph-name="period" unicode="." horiz-adv-x="275" 
d="M137 -7c-29.333 0 -52.333 7.16699 -69 21.5s-25 36.5 -25 66.5c0 30.667 8.33301 53 25 67s39.667 21 69 21c30 0 53.333 -7 70 -21s25 -36.333 25 -67c0 -30 -8.33301 -52.167 -25 -66.5s-40 -21.5 -70 -21.5z" />
    <glyph glyph-name="slash" unicode="/" horiz-adv-x="439" 
d="M270 740h145l-246 -860h-144z" />
    <glyph glyph-name="zero" unicode="0" horiz-adv-x="717" 
d="M358 -10c-101.333 0 -179.168 31.498 -233.501 94.498s-81.5 157.833 -81.5 284.5s27.333 221.834 82 285.501s132.334 95.5 233.001 95.5c101.333 0 179.166 -31.667 233.499 -95s81.5 -158.666 81.5 -285.999c0 -126.667 -27.167 -221.5 -81.5 -284.5
s-132.166 -94.5 -233.499 -94.5zM357.998 125.998c24.667 0 46.167 4.16699 64.5 12.5s33.5 22.166 45.5 41.499s21 44.333 27 75s9 68.667 9 114s-3 83.5 -9 114.5s-15 56.167 -27 75.5s-27.167 33.333 -45.5 42s-39.833 13 -64.5 13
c-25.333 0 -47.166 -4.33301 -65.499 -13s-33.333 -22.667 -45 -42s-20.334 -44.666 -26.001 -75.999s-8.5 -69.333 -8.5 -114s2.83301 -82.5 8.5 -113.5s14.334 -56 26.001 -75s26.667 -32.833 45 -41.5s40.166 -13 65.499 -13z" />
    <glyph glyph-name="one" unicode="1" horiz-adv-x="467" 
d="M211 558h-4l-165 -53h-10l-20 97l1 8l239 130h129v-740h-170v558z" />
    <glyph glyph-name="two" unicode="2" horiz-adv-x="612" 
d="M38 108c0 38 5.83301 70.832 17.5 98.499s27.667 52 48 73s44.166 39.667 71.499 56s56.666 32.166 87.999 47.499c42.667 20.667 75.334 41 98.001 61s34 45 34 75c0 32 -10.833 55.5 -32.5 70.5s-56.5 22.5 -104.5 22.5c-30.667 0 -62.834 -2.66699 -96.501 -8
s-63.5 -10.666 -89.5 -15.999l-13 136c50 9.33301 93.833 15.833 131.5 19.5s72.834 5.5 105.501 5.5c92 0 159.833 -17.667 203.5 -53s65.5 -89 65.5 -161c0 -31.333 -4.5 -59.166 -13.5 -83.499s-21.667 -46.333 -38 -66s-35.666 -37.5 -57.999 -53.5
s-46.833 -31 -73.5 -45c-48.667 -26 -86.167 -49.167 -112.5 -69.5s-39.5 -41.833 -39.5 -64.5v-19h334v-133h-526v107z" />
    <glyph glyph-name="three" unicode="3" horiz-adv-x="587" 
d="M238 -11c-17.333 0 -35.002 0.333984 -53.002 1.00098s-35.5 1.66699 -52.5 3s-32.833 3 -47.5 5s-27 4 -37 6v128h4c8.66699 -2 19.5 -4 32.5 -6s26.833 -3.66699 41.5 -5s29.334 -2.5 44.001 -3.5s27.667 -1.5 39 -1.5c30 0 55.333 1.83301 76 5.5
s37.334 9.5 50.001 17.5s21.667 18.5 27 31.5s8 28.5 8 46.5s-2.83301 33.333 -8.5 46s-15 23 -28 31s-30.333 13.833 -52 17.5s-48.5 5.5 -80.5 5.5h-67v118h66c28.667 0 52.667 1.66699 72 5s34.666 8.66602 45.999 15.999s19.5 16.833 24.5 28.5s7.5 26.167 7.5 43.5
c0 33.333 -10.167 56.833 -30.5 70.5s-56.166 20.5 -107.499 20.5c-19.333 0 -43.666 -1.33301 -72.999 -4s-58 -6.33398 -86 -11.001h-5v128c12.667 2.66699 27.334 5 44.001 7s33.667 3.83301 51 5.5s34.166 3 50.499 4s30.833 1.5 43.5 1.5c192 0 288 -66.667 288 -200
c0 -41.333 -10.833 -76.166 -32.5 -104.499s-52.834 -48.833 -93.501 -61.5v-7c46 -9.33301 81.833 -29.5 107.5 -60.5s38.5 -68.5 38.5 -112.5c0 -70.667 -26.167 -124.167 -78.5 -160.5s-128.5 -54.5 -228.5 -54.5z" />
    <glyph glyph-name="four" unicode="4" horiz-adv-x="667" 
d="M16 248v9l246 493h4l168 -15l7 -15l-252 -441v-4h187l37 193h121v-193h111v-129h-111v-146h-167v146h-332z" />
    <glyph glyph-name="five" unicode="5" horiz-adv-x="585" 
d="M232 -12c-30 0 -60.3301 1.50195 -90.9971 4.50195s-62.334 6.83301 -95.001 11.5v128h36c45.333 -8.66699 88 -13 128 -13c55.333 0 96.5 7.83301 123.5 23.5s40.5 44.834 40.5 87.501c0 18.667 -4 34.167 -12 46.5s-20.833 22.166 -38.5 29.499
s-40.834 12.666 -69.501 15.999s-64 5 -106 5h-76l-15 15l30 398h422v-133h-297l-9 -156c58.667 -0.666992 109.667 -5 153 -13s79.5 -20.667 108.5 -38s50.667 -40.333 65 -69s21.5 -64.334 21.5 -107.001c0 -44.667 -8.66699 -82 -26 -112s-40.5 -54.167 -69.5 -72.5
s-62.833 -31.5 -101.5 -39.5s-79.334 -12 -122.001 -12z" />
    <glyph glyph-name="six" unicode="6" horiz-adv-x="674" 
d="M348 -10c-98.667 0 -174.167 28.832 -226.5 86.499s-78.5 143.167 -78.5 256.5c0 137.333 33.333 241.166 100 311.499s165 105.5 295 105.5c24.667 0 49.834 -1.5 75.501 -4.5s53.5 -7.5 83.5 -13.5l-19 -123c-28 5.33301 -52.5 9.33301 -73.5 12s-41.167 4 -60.5 4
c-70.667 0 -124.167 -17 -160.5 -51s-58.833 -88 -67.5 -162c22 18 47.833 32 77.5 42s61.5 15 95.5 15c38.667 0 73.834 -5.16699 105.501 -15.5s58.667 -25.166 81 -44.499s39.5 -42.666 51.5 -69.999s18 -58 18 -92c0 -39.333 -6.83301 -74.833 -20.5 -106.5
s-33.334 -58.667 -59.001 -81s-56.834 -39.5 -93.501 -51.5s-78 -18 -124 -18zM348 359.999c-25.333 0 -50.5 -5 -75.5 -15s-45.167 -22.667 -60.5 -38c2.66699 -68 15 -117.333 37 -148s55 -46 99 -46c40 0 70.5 11 91.5 33s31.5 54.333 31.5 97c0 78 -41 117 -123 117z
" />
    <glyph glyph-name="seven" unicode="7" horiz-adv-x="548" 
d="M241 -21l-143 21v18l254 578h-326l-7 129l16 15h477l25 -91v-18l-258 -631z" />
    <glyph glyph-name="eight" unicode="8" horiz-adv-x="673" 
d="M338 -7c-103.333 0 -178.667 17.1689 -226 51.502s-71 82.833 -71 145.5c0 47.333 11.833 85.833 35.5 115.5s53.167 53.167 88.5 70.5c-14 8 -27.167 17.5 -39.5 28.5s-22.833 23.667 -31.5 38s-15.5 30.666 -20.5 48.999s-7.5 39.166 -7.5 62.499
c0 30 6.83301 57.167 20.5 81.5s32.667 44.833 57 61.5s53.833 29.5 88.5 38.5s73 13.5 115 13.5c82 0 146.333 -17.333 193 -52s70 -82.667 70 -144c0 -41.333 -8.66699 -74.5 -26 -99.5s-42 -46.5 -74 -64.5c16.667 -8 32.5 -17.167 47.5 -27.5s27.833 -22.833 38.5 -37.5
s19.167 -31.667 25.5 -51s9.5 -41.333 9.5 -66c0 -67.333 -23.5 -119.833 -70.5 -157.5s-121.167 -56.5 -222.5 -56.5zM282.999 332.002c-20.667 -12 -39.5 -27.6689 -56.5 -47.002s-25.5 -44.666 -25.5 -75.999c0 -34 12.333 -59.667 37 -77s58 -26 100 -26
s74.667 7.83301 98 23.5s35 38.5 35 68.5c0 20 -4.5 36.833 -13.5 50.5s-21 25.334 -36 35.001s-32.5 17.667 -52.5 24s-41 12.5 -63 18.5zM216.999 544c0 -18.667 4.49902 -34.167 13.499 -46.5s21.333 -22.833 37 -31.5s33.834 -16 54.501 -22s42.667 -12 66 -18
c20 13.333 37 29.5 51 48.5s21 41.833 21 68.5c0 30 -11.333 52.833 -34 68.5s-52 23.5 -88 23.5s-65.167 -7.66699 -87.5 -23s-33.5 -38 -33.5 -68z" />
    <glyph glyph-name="nine" unicode="9" horiz-adv-x="675" 
d="M327 750c98.667 0 174.163 -28.832 226.496 -86.499s78.5 -143.167 78.5 -256.5c0 -137.333 -33.333 -241.166 -100 -311.499s-165 -105.5 -295 -105.5c-47.333 0 -100.333 6 -159 18l19 123c28 -5.33301 52.5 -9.33301 73.5 -12s41.167 -4 60.5 -4
c70.667 0 124.167 17 160.5 51s58.833 88 67.5 162c-22 -18 -47.833 -32 -77.5 -42s-61.5 -15 -95.5 -15c-39.333 0 -74.666 5.16699 -105.999 15.5s-58.166 25.166 -80.499 44.499s-39.5 42.666 -51.5 69.999s-18 58 -18 92c0 39.333 6.83301 74.833 20.5 106.5
s33.334 58.667 59.001 81s56.834 39.5 93.501 51.5s78 18 124 18zM326.996 380.001c25.333 0 50.5 5 75.5 15s45.167 22.667 60.5 38c-2.66699 68 -15 117.333 -37 148s-55 46 -99 46c-40 0 -70.5 -11 -91.5 -33s-31.5 -54.333 -31.5 -97c0 -78 41 -117 123 -117z" />
    <glyph glyph-name="colon" unicode=":" horiz-adv-x="291" 
d="M145 -7c-29.333 0 -52.333 7.16699 -69 21.5s-25 36.5 -25 66.5c0 30.667 8.33301 53 25 67s39.667 21 69 21c30 0 53.333 -7 70 -21s25 -36.333 25 -67c0 -30 -8.33301 -52.167 -25 -66.5s-40 -21.5 -70 -21.5zM145 371c-29.333 0 -52.333 7.16699 -69 21.5
s-25 36.5 -25 66.5c0 30.667 8.33301 53 25 67s39.667 21 69 21c30 0 53.333 -7 70 -21s25 -36.333 25 -67c0 -30 -8.33301 -52.167 -25 -66.5s-40 -21.5 -70 -21.5z" />
    <glyph glyph-name="semicolon" unicode=";" horiz-adv-x="302" 
d="M33 -145l44 311h168l-87 -321zM156 371c-29.333 0 -52.333 7.16699 -69 21.5s-25 36.5 -25 66.5c0 30.667 8.33301 53 25 67s39.667 21 69 21c30 0 53.333 -7 70 -21s25 -36.333 25 -67c0 -30 -8.33301 -52.167 -25 -66.5s-40 -21.5 -70 -21.5z" />
    <glyph glyph-name="less" unicode="&#x3c;" horiz-adv-x="546" 
d="M35 313v103l449 194v-116l-302 -130l301 -130v-116z" />
    <glyph glyph-name="equal" unicode="=" horiz-adv-x="540" 
d="M60 295h421v-108h-421v108zM60 515h421v-109h-421v109z" />
    <glyph glyph-name="greater" unicode="&#x3e;" horiz-adv-x="547" 
d="M64 234l301 130l-302 130v116l449 -194v-103l-448 -195v116z" />
    <glyph glyph-name="question" unicode="?" horiz-adv-x="480" 
d="M145 235l-12.999 181.001c22.667 4.66699 44.167 10.334 64.5 17.001s38 14.667 53 24s26.833 20.166 35.5 32.499s13 26.833 13 43.5c0 32.667 -11 55.167 -33 67.5s-50 18.5 -84 18.5c-24.667 0 -49.834 -1.83301 -75.501 -5.5s-48.167 -7.83398 -67.5 -12.501l-7 125
c30 7.33301 59.667 12.833 89 16.5s60 5.5 92 5.5c36 0 68.5 -4 97.5 -12s54 -20.167 75 -36.5s37.167 -36.833 48.5 -61.5s17 -53.667 17 -87c0 -30 -4.83301 -56.5 -14.5 -79.5s-23 -42.833 -40 -59.5s-37.167 -30.5 -60.5 -41.5s-48.333 -19.167 -75 -24.5l-6 -110v-16
h-109v15zM203.001 -6.99902c-26.667 0 -47.334 7 -62.001 21s-22 33.667 -22 59s7.33301 45 22 59s35.334 21 62.001 21s47.334 -7 62.001 -21s22 -33.667 22 -59s-7.33301 -45 -22 -59s-35.334 -21 -62.001 -21z" />
    <glyph glyph-name="at" unicode="@" horiz-adv-x="889" 
d="M432 -133c-57.333 0 -110.004 8.50098 -158.004 25.501s-89.333 42 -124 75s-61.667 74 -81 123s-29 105.5 -29 169.5c0 64.667 9.83301 122.5 29.5 173.5s47.667 94.167 84 129.5s80.333 62.333 132 81s109.5 28 173.5 28c62.667 0 117.834 -8.33301 165.501 -25
s87.667 -40.834 120 -72.501s56.833 -70.167 73.5 -115.5s25 -96.666 25 -153.999c0 -80.667 -17 -143 -51 -187s-83.333 -66 -148 -66c-19.333 0 -35.833 3 -49.5 9s-25 13.167 -34 21.5s-15.833 17.5 -20.5 27.5s-7.33398 19 -8.00098 27h-4
c-17.333 -25.333 -40.833 -45 -70.5 -59s-60.5 -21 -92.5 -21c-43.333 0 -77.166 15.333 -101.499 46s-36.5 74 -36.5 130c0 37.333 5.83301 71.833 17.5 103.5s28.334 59 50.001 82s47.834 40.833 78.501 53.5s65 19 103 19c24 0 50 -3.33301 78 -10s56 -15.667 84 -27
l-40 -206c-1.33301 -9.33301 -2.83301 -18.333 -4.5 -27s-2.5 -17 -2.5 -25c0 -18 4.33301 -32.167 13 -42.5s23.667 -15.5 45 -15.5c30 0 53 14.333 69 43s24 70 24 124c0 86.667 -23.667 153.5 -71 200.5s-118 70.5 -212 70.5c-48.667 0 -92.667 -7.16699 -132 -21.5
s-72.833 -35 -100.5 -62s-49 -60 -64 -99s-22.5 -83.5 -22.5 -133.5c0 -49.333 7.16699 -92.5 21.5 -129.5s34.333 -68 60 -93s56.334 -43.833 92.001 -56.5s75.167 -19 118.5 -19c28 0 59 3.16699 93 9.5s70.667 15.166 110 26.499l28 -90
c-44 -13.333 -85.5 -23.5 -124.5 -30.5s-74.5 -10.5 -106.5 -10.5zM388.996 142.001c28 0 53.498 10.335 76.498 31.002s38.167 50.667 45.5 90l25 137c-21.333 6 -40.666 9 -57.999 9c-22 0 -42.333 -4.5 -61 -13.5s-34.667 -21.333 -48 -37
s-23.666 -34.334 -30.999 -56.001s-11 -44.834 -11 -69.501c0 -28.667 5 -51 15 -67s25.667 -24 47 -24z" />
    <glyph glyph-name="A" unicode="A" horiz-adv-x="740" 
d="M0 9l243 731h254l243 -731v-9h-165l-59 178h-293l-58 -178h-165v9zM477 311l-55 166l-45 145h-15l-44 -146l-55 -165h214z" />
    <glyph glyph-name="B" unicode="B" horiz-adv-x="714" 
d="M362 -10c-47.333 0 -94.5 1.16797 -141.5 3.50098s-96.5 6.16602 -148.5 11.499v730c51.333 5.33301 98.333 9.16602 141 11.499s84.667 3.5 126 3.5c110.667 0 191 -16.667 241 -50s75 -86 75 -158c0 -42 -10.667 -76.667 -32 -104s-53 -46 -95 -56v-4
c49.333 -9.33301 86.833 -29.166 112.5 -59.499s38.5 -69.5 38.5 -117.5c0 -72 -25.833 -125.167 -77.5 -159.5s-131.5 -51.5 -239.5 -51.5zM360 111.001c99.333 0 149.001 35.001 149.001 105.001c0 36 -11.167 62 -33.5 78s-59.5 24 -111.5 24h-130v-201
c6 -1.33301 12.333 -2.33301 19 -3s14.667 -1.33398 24 -2.00098s20.666 -1 33.999 -1h49zM353.001 430.002c48.667 0 83.001 7.5 103.001 22.5s30 40.833 30 77.5c0 36 -10.5 61.5 -31.5 76.5s-56.5 22.5 -106.5 22.5c-22.667 0 -43.334 -0.5 -62.001 -1.5
s-36 -2.83301 -52 -5.5v-192h119z" />
    <glyph glyph-name="C" unicode="C" horiz-adv-x="605" 
d="M410 -12c-126 0 -219.332 31.167 -279.999 93.5s-91 158.166 -91 287.499c0 130 29.667 226.333 89 289s149.333 94 270 94c23.333 0 49 -1.16699 77 -3.5s60 -6.16602 96 -11.499v-137c-19.333 2 -36.333 3.83301 -51 5.5s-28 3 -40 4s-22.833 1.83301 -32.5 2.5
s-19.167 1 -28.5 1c-38.667 0 -71.167 -4 -97.5 -12s-47.5 -21.333 -63.5 -40s-27.333 -43.667 -34 -75s-10 -70.333 -10 -117c0 -46 3.5 -84.333 10.5 -115s18.333 -55.334 34 -74.001s36.334 -32 62.001 -40s57.167 -12 94.5 -12c10.667 0 23.167 0.333008 37.5 1
s28.666 1.83398 42.999 3.50098l41.5 5c13.333 1.66699 24.666 3.5 33.999 5.5v-136c-24 -5.33301 -50.333 -9.83301 -79 -13.5s-56 -5.5 -82 -5.5z" />
    <glyph glyph-name="D" unicode="D" horiz-adv-x="772" 
d="M288 -11c-40 0 -79.5 1.16797 -118.5 3.50098s-71.5 5.83301 -97.5 10.5v735c52 3.33301 99.167 6.16602 141.5 8.49902s78.5 3.5 108.5 3.5c72 0 133.833 -7.33301 185.5 -22s94.167 -37.5 127.5 -68.5s58 -70.5 74 -118.5s24 -105.333 24 -172
c0 -67.333 -8.33301 -125 -25 -173s-42.834 -87.333 -78.501 -118s-81.667 -53.167 -138 -67.5s-124.166 -21.5 -203.499 -21.5zM353 125.001c38 0 70.002 4.16797 96.002 12.501s47.167 22.166 63.5 41.499s28.166 44.5 35.499 75.5s11 69.167 11 114.5
c0 44.667 -3.83301 82.667 -11.5 114s-19.834 56.5 -36.501 75.5s-38.5 32.833 -65.5 41.5s-59.833 13 -98.5 13c-14.667 0 -30.667 -0.333008 -48 -1s-36.333 -2 -57 -4v-475c19.333 -3.33301 37.833 -5.5 55.5 -6.5s36.167 -1.5 55.5 -1.5z" />
    <glyph glyph-name="E" unicode="E" horiz-adv-x="657" 
d="M72 740h536v-133h-365v-168h332v-133h-332v-173h374v-133h-545v740z" />
    <glyph glyph-name="F" unicode="F" horiz-adv-x="632" 
d="M72 740h533v-133h-362v-188h326v-133h-326v-286h-171v740z" />
    <glyph glyph-name="G" unicode="G" horiz-adv-x="701" 
d="M412 -12c-126.667 0 -220.5 31.332 -281.5 93.999s-91.5 158.334 -91.5 287.001s32 224.667 96 288s162 95 294 95c34 0 70 -2.16699 108 -6.5s72.333 -10.166 103 -17.499v-137c-43.333 7.33301 -81 12.833 -113 16.5s-60.333 5.5 -85 5.5
c-43.333 0 -79.666 -4.16699 -108.999 -12.5s-52.833 -22 -70.5 -41s-30.167 -44 -37.5 -75s-11 -69.5 -11 -115.5c0 -45.333 3.33301 -83.333 10 -114s18 -55.5 34 -74.5s37 -32.5 63 -40.5s58.333 -12 97 -12c10 0 21.5 0.333008 34.5 1s26.167 1.66699 39.5 3v244h157
v-352c-40 -10.667 -81.333 -19.334 -124 -26.001s-80.334 -10 -113.001 -10z" />
    <glyph glyph-name="H" unicode="H" horiz-adv-x="814" 
d="M72 740h171v-294h329v294h170v-740h-170v313h-329v-313h-171v740z" />
    <glyph glyph-name="I" unicode="I" horiz-adv-x="315" 
d="M72 740h171v-740h-171v740z" />
    <glyph glyph-name="J" unicode="J" horiz-adv-x="314" 
d="M-2 -158c14.667 32.667 26.833 62.999 36.5 90.999s17.5 55.667 23.5 83s10.167 55.333 12.5 84s3.5 60.334 3.5 95.001v545h171v-558c0 -34.667 -2.33301 -67.167 -7 -97.5s-12.5 -60.833 -23.5 -91.5s-25.167 -62.167 -42.5 -94.5s-39 -67.5 -65 -105.5z" />
    <glyph glyph-name="K" unicode="K" horiz-adv-x="728" 
d="M72 740h171v-300h106l176 300h190l-204 -326l-47 -26v-8l50 -26l219 -354h-190l-183 307h-117v-307h-171v740z" />
    <glyph glyph-name="L" unicode="L" horiz-adv-x="573" 
d="M72 740h171v-608h317v-132h-488v740z" />
    <glyph glyph-name="M" unicode="M" horiz-adv-x="995" 
d="M72 740h233l141 -362l48 -153h7l47 153l142 362h233v-740h-152v549h-8l-69 -204l-127 -315h-140l-126 315l-70 204h-8v-549h-151v740z" />
    <glyph glyph-name="N" unicode="N" horiz-adv-x="812" 
d="M72 740h137l314 -402l59 -85h9v487h149v-740h-137l-308 396l-65 91h-8v-487h-150v740z" />
    <glyph glyph-name="O" unicode="O" horiz-adv-x="792" 
d="M396 -10c-116.667 0 -205.334 31.999 -266.001 95.999s-91 158.333 -91 283c0 126 30.333 221 91 285s149.334 96 266.001 96c116 0 204.5 -32.167 265.5 -96.5s91.5 -159.166 91.5 -284.499c0 -124.667 -30.5 -219 -91.5 -283s-149.5 -96 -265.5 -96zM396 126.999
c33.333 0 61.6709 4.16699 85.0039 12.5s42.166 22 56.499 41s24.833 43.833 31.5 74.5s10 68.667 10 114c0 44.667 -3.5 82.5 -10.5 113.5s-17.833 56.167 -32.5 75.5s-33.5 33.333 -56.5 42s-50.833 13 -83.5 13s-60.667 -4.33301 -84 -13s-42.333 -22.5 -57 -41.5
s-25.334 -44.167 -32.001 -75.5s-10 -69.333 -10 -114c0 -45.333 3.33301 -83.333 10 -114s17.167 -55.5 31.5 -74.5s33.166 -32.667 56.499 -41s51.666 -12.5 84.999 -12.5z" />
    <glyph glyph-name="P" unicode="P" horiz-adv-x="698" 
d="M72 735c78.667 10 152.332 15 220.999 15c66.667 0 124.167 -5.16699 172.5 -15.5s87.833 -26.333 118.5 -48s53.334 -49.5 68.001 -83.5s22 -74.333 22 -121c0 -91.333 -30.833 -158.833 -92.5 -202.5s-155.834 -65.5 -282.501 -65.5h-28
c-9.33301 0 -18.666 0.333008 -27.999 1v-215h-171v735zM325.998 347c32.667 0 60.1689 2.33203 82.502 6.99902s40.333 12.167 54 22.5s23.5 24.166 29.5 41.499s9 38.666 9 63.999c0 24.667 -2.83301 45.667 -8.5 63s-15.167 31.333 -28.5 42s-30.833 18.334 -52.5 23.001
s-48.834 7 -81.501 7c-14 0 -29.333 -0.666992 -46 -2s-30.334 -2.66602 -41.001 -3.99902v-258c10 -1.33301 22.833 -2.66602 38.5 -3.99902s30.5 -2 44.5 -2z" />
    <glyph glyph-name="Q" unicode="Q" horiz-adv-x="790" 
d="M700 -157c-85.333 20 -160.831 40.168 -226.498 60.501s-123.167 42 -172.5 65s-90.833 47.667 -124.5 74s-60.834 55.666 -81.501 87.999s-35.5 68 -44.5 107s-13.5 82.833 -13.5 131.5c0 122.667 31 216.834 93 282.501s150.333 98.5 265 98.5
c115.333 0 203.833 -32.833 265.5 -98.5s92.5 -159.834 92.5 -282.501c0 -107.333 -25.833 -189.5 -77.5 -246.5s-126.167 -85.5 -223.5 -85.5v-12l96 -18c26 -4.66699 49.333 -8.66699 70 -12s40.167 -6 58.5 -8s39.166 -4 62.499 -6zM395.002 126.001
c32.667 0 60.832 4.5 84.499 13.5s42.834 23.167 57.501 42.5s25.5 44.5 32.5 75.5s10.5 68.167 10.5 111.5c0 86.667 -14.5 149.167 -43.5 187.5s-76.167 57.5 -141.5 57.5s-112.5 -19.167 -141.5 -57.5s-43.5 -100.833 -43.5 -187.5c0 -86 14.5 -148 43.5 -186
s76.167 -57 141.5 -57z" />
    <glyph glyph-name="R" unicode="R" horiz-adv-x="716" 
d="M376 247c-11.333 -0.666992 -23.168 -1.16406 -35.501 -1.49707s-24.833 -0.5 -37.5 -0.5h-12c-5.33301 0 -11 0.166992 -17 0.5l-17.5 1c-5.66699 0.333008 -10.167 0.5 -13.5 0.5v-247h-171v735c76.667 10 150.334 15 221.001 15c66.667 0 124 -4.83301 172 -14.5
s87.5 -24.834 118.5 -45.501s53.833 -46.834 68.5 -78.501s22 -69.834 22 -114.501c0 -108 -49.333 -181 -148 -219l180 -278h-190zM325.998 376.003c32.667 0 60.1689 1.99902 82.502 5.99902s40.333 10.833 54 20.5s23.5 22.167 29.5 37.5s9 34.333 9 57
c0 22 -2.83301 40.667 -8.5 56s-15.334 27.833 -29.001 37.5s-31.334 16.5 -53.001 20.5s-48.5 6 -80.5 6c-12.667 0 -27.5 -0.666992 -44.5 -2s-31.167 -2.66602 -42.5 -3.99902v-228c8 -2.66699 19 -4.5 33 -5.5s30.667 -1.5 50 -1.5z" />
    <glyph glyph-name="S" unicode="S" horiz-adv-x="634" 
d="M307 -12c-19.333 0 -40.1699 0.667969 -62.5029 2.00098s-45.333 3.5 -69 6.5s-47.167 6.33301 -70.5 10s-45.666 8.16699 -66.999 13.5v138c48 -11.333 93.5 -20 136.5 -26s82.167 -9 117.5 -9c47.333 0 81.833 6.5 103.5 19.5s32.5 32.5 32.5 58.5
c0 30 -11.833 51.667 -35.5 65s-57.5 24.333 -101.5 33c-41.333 8 -77.166 18.167 -107.499 30.5s-55.666 27.666 -75.999 45.999s-35.5 40.5 -45.5 66.5s-15 56.667 -15 92c0 34 6.66699 64.333 20 91s32.666 49.5 57.999 68.5s56 33.5 92 43.5s76.667 15 122 15
c16 0 32 -0.5 48 -1.5s33 -2.5 51 -4.5s37.5 -4.83301 58.5 -8.5s44.167 -8.16699 69.5 -13.5v-137c-33.333 9.33301 -69 16.833 -107 22.5s-72 8.5 -102 8.5c-43.333 0 -76.333 -7 -99 -21s-34 -34 -34 -60c0 -28 11.333 -49.333 34 -64s59.334 -27.667 110.001 -39
c38 -8 71.833 -17.833 101.5 -29.5s54.5 -26 74.5 -43s35.333 -37.5 46 -61.5s16 -52.333 16 -85c0 -74.667 -25.167 -131.167 -75.5 -169.5s-124.833 -57.5 -223.5 -57.5z" />
    <glyph glyph-name="T" unicode="T" horiz-adv-x="640" 
d="M234 606h-215v134h603v-134h-217v-606h-171v606z" />
    <glyph glyph-name="U" unicode="U" horiz-adv-x="799" 
d="M400 -10c-62 0 -114.333 6.33496 -157 19.002s-77.167 32 -103.5 58s-45.333 58.667 -57 98s-17.5 86 -17.5 140v436h170v-440c0 -58.667 13.167 -102.334 39.5 -131.001s68.166 -43 125.499 -43c56.667 0 98.167 14.167 124.5 42.5s39.5 72.166 39.5 131.499v440h170
v-436c0 -54 -5.83301 -100.667 -17.5 -140s-30.667 -72 -57 -98s-60.666 -45.333 -102.999 -58s-94.5 -19 -156.5 -19z" />
    <glyph glyph-name="V" unicode="V" horiz-adv-x="734" 
d="M0 740h180l142 -428l41 -153h10l42 153l142 428h177l-253 -740h-227z" />
    <glyph glyph-name="W" unicode="W" horiz-adv-x="1087" 
d="M11 740h183l92 -440l22 -131h11l28 131l112 440h170l111 -440l28 -131h12l22 131l93 440h181l-185 -740h-224l-94 364l-25 167h-9l-25 -167l-94 -364h-225z" />
    <glyph glyph-name="X" unicode="X" horiz-adv-x="730" 
d="M257 386l-248 354h193l134 -206l25 -46h9l24 46l137 206h191l-254 -360l274 -380h-192l-159 236l-22 40h-8l-22 -40l-157 -236h-192z" />
    <glyph glyph-name="Y" unicode="Y" horiz-adv-x="712" 
d="M272 237l-279 503h186l141 -273l31 -76h9l31 76l142 273h184l-275 -498v-242h-170v237z" />
    <glyph glyph-name="Z" unicode="Z" horiz-adv-x="648" 
d="M31 126l364 472v8h-350v134h557v-122l-364 -476v-8h380v-134h-587v126z" />
    <glyph glyph-name="bracketleft" unicode="[" horiz-adv-x="366" 
d="M78 868h262v-108h-133v-812h133v-108h-262v1028z" />
    <glyph glyph-name="backslash" unicode="\" horiz-adv-x="439" 
d="M25 740h143l246 -860h-144z" />
    <glyph glyph-name="bracketright" unicode="]" horiz-adv-x="366" 
d="M26 -160v108h134v812h-134v108h263v-1028h-263z" />
    <glyph glyph-name="asciicircum" unicode="^" horiz-adv-x="530" 
d="M189 789h151l156 -308h-118l-111 207h-4l-110 -207h-119z" />
    <glyph glyph-name="underscore" unicode="_" horiz-adv-x="644" 
d="M44 -58h556v-123h-556v123z" />
    <glyph glyph-name="grave" unicode="`" horiz-adv-x="300" 
d="M135 611l-118 196h173l66 -186z" />
    <glyph glyph-name="a" unicode="a" horiz-adv-x="586" 
d="M188 -5c-51.333 0 -90.332 13.501 -116.999 40.501s-40 64.833 -40 113.5c0 54.667 16.667 95.667 50 123s85.333 43.666 156 48.999l125 9v6c0 18 -1.5 32.833 -4.5 44.5s-8.5 21.167 -16.5 28.5s-19.333 12.5 -34 15.5s-34 4.5 -58 4.5
c-24.667 0 -52.5 -1.66699 -83.5 -5s-60.833 -7.66602 -89.5 -12.999l-11 116c38 7.33301 74.5 12.5 109.5 15.5s68.5 4.5 100.5 4.5c86.667 0 150.667 -14.833 192 -44.5s62 -75.834 62 -138.501v-364h-137l-15 66h-9c-26.667 -24 -55.334 -41.833 -86.001 -53.5
s-62 -17.5 -94 -17.5zM259.001 110.001c17.333 0 35.5 3.5 54.5 10.5s35.167 15.833 48.5 26.5v96l-74 -6c-33.333 -2.66699 -56.5 -9.16699 -69.5 -19.5s-19.5 -26.833 -19.5 -49.5c0 -38.667 20 -58 60 -58z" />
    <glyph glyph-name="b" unicode="b" horiz-adv-x="656" 
d="M320 -11c-16 0 -32.668 0.334961 -50.001 1.00195s-36.166 2.16699 -56.499 4.5s-43 5.5 -68 9.5s-53.5 9.33301 -85.5 16v788h167v-325c37.333 44 92.333 66 165 66c75.333 0 132.166 -22 170.499 -66s57.5 -111.333 57.5 -202
c0 -94.667 -26.167 -166.834 -78.5 -216.501s-126.166 -74.834 -221.499 -75.501zM317.999 103.002c25.333 0 46.6699 2.5 64.0029 7.5s31.166 13.833 41.499 26.5s17.666 29.667 21.999 51s6.5 48.333 6.5 81c0 29.333 -1.83301 54 -5.5 74s-9.83398 36 -18.501 48
s-20 20.5 -34 25.5s-31.333 7.5 -52 7.5c-36 0 -64.167 -8.83301 -84.5 -26.5s-30.5 -45.5 -30.5 -83.5v-203c24.667 -5.33301 55 -8 91 -8z" />
    <glyph glyph-name="c" unicode="c" horiz-adv-x="517" 
d="M313 -9c-93.333 0 -162.835 22.832 -208.502 68.499s-68.5 115.834 -68.5 210.501c0 186 92.333 279 277 279c28.667 0 57.5 -1.5 86.5 -4.5s54.833 -7.16699 77.5 -12.5v-131c-53.333 8 -102.666 12 -147.999 12c-46 0 -78.667 -10.833 -98 -32.5
s-29 -58.167 -29 -109.5c0 -52 9.5 -89 28.5 -111s51.167 -33 96.5 -33c30 0 56.333 0.833008 79 2.5s46.334 4.5 71.001 8.5v-130c-21.333 -5.33301 -46.5 -9.5 -75.5 -12.5s-58.5 -4.5 -88.5 -4.5z" />
    <glyph glyph-name="d" unicode="d" horiz-adv-x="658" 
d="M264 -10c-75.333 0 -132.167 22.002 -170.5 66.002s-57.5 111.333 -57.5 202c0 48.667 7 91.167 21 127.5s34 66.666 60 90.999s57.5 42.666 94.5 54.999s78.5 18.5 124.5 18.5c16.667 0 32.667 -0.666992 48 -2l45 -4v264h167v-808h-146l-13 66h-8
c-35.333 -50.667 -90.333 -76 -165 -76zM313.999 113.002c36 0 64.167 8.83203 84.5 26.499s30.5 46.5 30.5 86.5v198c-13.333 2.66699 -28.333 4.83398 -45 6.50098s-34.334 2.5 -53.001 2.5c-24 0 -44 -2.5 -60 -7.5s-29 -13.667 -39 -26s-17.167 -28.833 -21.5 -49.5
s-6.5 -47 -6.5 -79c0 -30 1.83301 -55.167 5.5 -75.5s9.83398 -36.5 18.501 -48.5s20 -20.667 34 -26s31.333 -8 52 -8z" />
    <glyph glyph-name="e" unicode="e" horiz-adv-x="590" 
d="M316 -9c-186 0 -279.001 91.667 -279.001 275c0 93.333 23.333 163.833 70 211.5s116.334 71.5 209.001 71.5c158.667 0 238 -80.333 238 -241c0 -31.333 -3 -59 -9 -83h-342c2 -21.333 5.66699 -39 11 -53s13 -25 23 -33s22.833 -13.667 38.5 -17s34.5 -5 56.5 -5
c14.667 0 30.5 0.666992 47.5 2s34.167 3 51.5 5s34.333 4.5 51 7.5s32 6.16699 46 9.5l5 -119c-32 -9.33301 -67 -16.833 -105 -22.5s-75.333 -8.5 -112 -8.5zM308.999 432c-34.667 0 -60.333 -9.16699 -77 -27.5s-26.667 -48.833 -30 -91.5h205
c-1.33301 43.333 -9.5 74 -24.5 92s-39.5 27 -73.5 27z" />
    <glyph glyph-name="f" unicode="f" horiz-adv-x="455" 
d="M131 400l-115.998 0.000976562v140h117v25c0 46.667 5.5 85.667 16.5 117s29.167 56.666 54.5 75.999s58.666 33.333 99.999 42s92 13.667 152 15l8 -120c-31.333 -1.33301 -57.5 -4 -78.5 -8s-37.833 -10.5 -50.5 -19.5s-21.834 -20.833 -27.501 -35.5
s-8.5 -33 -8.5 -55v-37h144v-140h-144v-400h-167v400z" />
    <glyph glyph-name="g" unicode="g" horiz-adv-x="657" 
d="M291 -220c-38 0 -76.832 1.99902 -116.499 5.99902s-73.167 9.33301 -100.5 16l10 121c23.333 -5.33301 50.5 -10.166 81.5 -14.499s62.167 -6.5 93.5 -6.5c25.333 0 49 2.33301 71 7s41.167 12.5 57.5 23.5s29.166 25.667 38.499 44s14 41.166 14 68.499v50h-8
c-17.333 -28 -40 -48.333 -68 -61s-60.667 -19 -98 -19c-76 0 -133.167 20.5 -171.5 61.5s-57.5 104.167 -57.5 189.5c0 47.333 7 88.666 21 123.999s34 64.833 60 88.5s57.333 41.5 94 53.5s78 18 124 18c16 0 32.5 -0.5 49.5 -1.5s35.833 -3.16699 56.5 -6.5
s43.5 -7.83301 68.5 -13.5s53.833 -13.167 86.5 -22.5v-441c0 -53.333 -8.16699 -98.166 -24.5 -134.499s-38.5 -65.666 -66.5 -87.999s-60.5 -38.333 -97.5 -48s-76.167 -14.5 -117.5 -14.5zM315.001 134.999c36.667 0 65 9.16504 85 27.498s30 47.5 30 87.5v174
c-13.333 2.66699 -28.333 4.83398 -45 6.50098s-34.334 2.5 -53.001 2.5c-24 0 -44 -2.33301 -60 -7s-29 -13 -39 -25s-17.167 -27.833 -21.5 -47.5s-6.5 -44.5 -6.5 -74.5c0 -27.333 1.83301 -50.166 5.5 -68.499s9.83398 -33 18.501 -44s20 -19 34 -24
s31.333 -7.5 52 -7.5z" />
    <glyph glyph-name="h" unicode="h" horiz-adv-x="658" 
d="M61 808h167.001v-325c46 22 86.667 38.667 122 50s67.666 17 96.999 17c48 0 85.5 -13 112.5 -39s40.5 -63 40.5 -111v-400h-167v344c0 26.667 -5 45.667 -15 57s-25.667 17 -47 17c-17.333 0 -38.5 -3.33301 -63.5 -10s-51.5 -15.667 -79.5 -27v-381h-167v808z" />
    <glyph glyph-name="i" unicode="i" horiz-adv-x="290" 
d="M145 618c-32.667 0 -55.999 7 -69.999 21s-21 36.667 -21 68s7 54 21 68s37.333 21 70 21c33.333 0 57.166 -7.33301 71.499 -22s21.5 -37 21.5 -67s-7 -52.333 -21 -67s-38 -22 -72 -22zM62.001 540h167v-540h-167v540z" />
    <glyph glyph-name="j" unicode="j" horiz-adv-x="288" 
d="M143 618c-32.667 0 -56 7 -70 21s-21 36.667 -21 68s7 54 21 68s37.333 21 70 21c33.333 0 57 -7.33301 71 -22s21 -37 21 -67s-7 -52.333 -21 -67s-37.667 -22 -71 -22zM15 -197c8.66699 26 16 51.499 22 76.499s11 51 15 78s6.83301 56.333 8.5 88s2.5 67.5 2.5 107.5
v34v59v74c0 26.667 -0.166992 53.334 -0.5 80.001l-1 76.5c-0.333008 24.333 -0.5 45.5 -0.5 63.5h166v-464c-3.33301 -54 -13 -105.833 -29 -155.5s-36.667 -96.5 -62 -140.5z" />
    <glyph glyph-name="k" unicode="k" horiz-adv-x="615" 
d="M61 808h167v-477h60l135 209h184l-180 -252l-24 -8v-4l25 -8l196 -268h-183l-155 225h-58v-225h-167v808z" />
    <glyph glyph-name="l" unicode="l" horiz-adv-x="291" 
d="M62 808h167v-808h-167v808z" />
    <glyph glyph-name="m" unicode="m" horiz-adv-x="962" 
d="M62 540h138.997l9 -62h7c38 23.333 72.833 41.166 104.5 53.499s62.5 18.5 92.5 18.5c65.333 0 110.333 -24.333 135 -73h5c38 24 73 42.167 105 54.5s62.667 18.5 92 18.5c48 0 85.333 -13 112 -39s40 -63 40 -111v-400h-166v341c0 26.667 -5.16699 45.667 -15.5 57
s-26.166 17 -47.499 17c-13.333 0 -29.833 -3 -49.5 -9s-39.167 -14 -58.5 -24v-382h-166v341c0 26.667 -5.16699 45.667 -15.5 57s-26.166 17 -47.499 17c-13.333 0 -30.166 -3.16699 -50.499 -9.5s-39.833 -14.166 -58.5 -23.499v-382h-166v540z" />
    <glyph glyph-name="n" unicode="n" horiz-adv-x="658" 
d="M62 540l139.999 0.000976562l9 -62h7c50 25.333 93.167 43.666 129.5 54.999s69.833 17 100.5 17c48 0 85.333 -13 112 -39s40 -63 40 -111v-400h-167v344c0 26.667 -5 45.667 -15 57s-25.667 17 -47 17c-18.667 0 -40.667 -3.33301 -66 -10s-50.666 -15.667 -75.999 -27
v-381h-167v540z" />
    <glyph glyph-name="o" unicode="o" horiz-adv-x="647" 
d="M324 -10c-94 0 -165.667 23.833 -215 71.5s-74 117.167 -74 208.5s24.667 160.833 74 208.5s121 71.5 215 71.5s165.333 -23.833 214 -71.5s73 -117.167 73 -208.5s-24.333 -160.833 -73 -208.5s-120 -71.5 -214 -71.5zM324 117c22 0 40.667 2.5 56 7.5
s27.666 13.5 36.999 25.5s16.166 27.833 20.499 47.5s6.5 43.834 6.5 72.501s-2.16699 52.667 -6.5 72s-11.166 35 -20.499 47s-21.666 20.5 -36.999 25.5s-34 7.5 -56 7.5s-40.667 -2.5 -56 -7.5s-27.833 -13.5 -37.5 -25.5s-16.667 -27.667 -21 -47s-6.5 -43.333 -6.5 -72
s2.16699 -52.834 6.5 -72.501s11.333 -35.5 21 -47.5s22.167 -20.5 37.5 -25.5s34 -7.5 56 -7.5z" />
    <glyph glyph-name="p" unicode="p" horiz-adv-x="659" 
d="M62 540l146.002 -0.000976562l12 -66h8c17.333 25.333 40.166 44.333 68.499 57s60.833 19 97.5 19c75.333 0 132.166 -22 170.499 -66s57.5 -111.333 57.5 -202c0 -48 -6.83301 -90.167 -20.5 -126.5s-33.5 -66.666 -59.5 -90.999s-57.5 -42.833 -94.5 -55.5
s-78.5 -19 -124.5 -19c-16.667 0 -33 0.5 -49 1.5s-31 2.16699 -45 3.5v-215h-167v760zM327.002 105.999c24 0 44.0029 2.5 60.0029 7.5s29 13.833 39 26.5s17.167 29.5 21.5 50.5s6.5 47.5 6.5 79.5c0 30 -1.83301 55 -5.5 75s-9.83398 36.167 -18.501 48.5s-20 21 -34 26
s-31.333 7.5 -52 7.5c-36.667 0 -65 -9.33301 -85 -28s-30 -48.667 -30 -90v-193c13.333 -3.33301 28.166 -5.83301 44.499 -7.5s34.166 -2.5 53.499 -2.5z" />
    <glyph glyph-name="q" unicode="q" horiz-adv-x="657" 
d="M436 67c-20.667 -26.667 -45.332 -46.167 -73.999 -58.5s-61.334 -18.5 -98.001 -18.5c-152 0 -228 89.667 -228 269c0 95.333 26.667 167.666 80 216.999s127.333 74 222 74c47.333 0 93.833 -2.66699 139.5 -8s85.167 -10.666 118.5 -15.999v-746h-160v287z
M315.002 113c76 0 114 39.666 114 118.999v192c-29.333 6.66699 -62 10 -98 10c-24.667 0 -45.167 -2.5 -61.5 -7.5s-29.5 -13.833 -39.5 -26.5s-17 -29.334 -21 -50.001s-6 -46.667 -6 -78c0 -30 1.83301 -55.167 5.5 -75.5s9.83398 -36.666 18.501 -48.999
s20.167 -21.166 34.5 -26.499s32.166 -8 53.499 -8z" />
    <glyph glyph-name="r" unicode="r" horiz-adv-x="452" 
d="M62 540l140 -0.000976562l9 -80h4c26.667 20 55.334 38.333 86.001 55s59.667 28 87 34h52v-140h-58c-28 -3.33301 -55.833 -9.66602 -83.5 -18.999s-50.834 -20 -69.501 -32v-358h-167v540z" />
    <glyph glyph-name="s" unicode="s" horiz-adv-x="532" 
d="M255 -11c-30 0 -63.832 2.00586 -101.499 6.00586s-75.834 10 -114.501 18v116c40 -8 77 -14.333 111 -19s66.333 -7 97 -7c32 0 55.5 4 70.5 12s22.5 20.333 22.5 37c0 17.333 -7.5 30 -22.5 38s-38.5 14 -70.5 18c-22 2.66699 -44.833 6.16699 -68.5 10.5
s-45.5 12.166 -65.5 23.499s-36.5 27.666 -49.5 48.999s-19.5 50.666 -19.5 87.999c0 54 20.667 96.333 62 127s98.333 46 171 46c14 0 28.167 -0.333008 42.5 -1s29.5 -1.83398 45.5 -3.50098s33.167 -3.83398 51.5 -6.50098s38.833 -6 61.5 -10l-5 -124
c-38 8 -72 14.167 -102 18.5s-55.667 6.5 -77 6.5c-60.667 0 -91 -16.333 -91 -49c0 -18.667 9 -31.334 27 -38.001s46 -12.667 84 -18c28 -4 53.333 -9.5 76 -16.5s42 -16.833 58 -29.5s28.5 -28.667 37.5 -48s13.5 -42.666 13.5 -69.999
c0 -56.667 -20.5 -99.834 -61.5 -129.501s-101.833 -44.5 -182.5 -44.5z" />
    <glyph glyph-name="t" unicode="t" horiz-adv-x="447" 
d="M301 -12c-62 0 -108.835 14.501 -140.502 43.501s-47.5 71.833 -47.5 128.5v240h-95v140h106l25 156l130 14v-170h139v-140h-138v-202c0 -30 5.83301 -51.333 17.5 -64s31.5 -19 59.5 -19c18.667 0 39.667 4 63 12v-124
c-15.333 -4.66699 -33.666 -8.33398 -54.999 -11.001s-42.666 -4 -63.999 -4z" />
    <glyph glyph-name="u" unicode="u" horiz-adv-x="658" 
d="M212 -10c-50 0 -88.165 13.1689 -114.498 39.502s-39.5 63.166 -39.5 110.499v400h167v-349c0 -26 4.83301 -44.667 14.5 -56s25.167 -17 46.5 -17s44.666 3.83301 69.999 11.5s49.666 16.5 72.999 26.5v384h167v-540h-140l-9 63h-4l-66.5 -34
c-19 -9.33301 -37 -16.833 -54 -22.5s-34.167 -9.83398 -51.5 -12.501s-37 -4 -59 -4z" />
    <glyph glyph-name="v" unicode="v" horiz-adv-x="623" 
d="M9 523v17h179l91 -287l28 -119h11l29 119l92 287h176v-17l-202 -523h-205z" />
    <glyph glyph-name="w" unicode="w" horiz-adv-x="852" 
d="M13 535v5h164l68 -313l12 -72h10l12 72l76 313h142l77 -313l13 -72h10l12 72l66 313h163v-5l-144 -535h-183l-70 280l-10 65h-10l-10 -65l-68 -280h-183z" />
    <glyph glyph-name="x" unicode="x" horiz-adv-x="617" 
d="M5 16l190 264l-181 251v9h176l86 -126l29 -47h8l29 48l85 125h176v-9l-181 -255l189 -260v-16h-176l-93 136l-30 54h-9l-30 -54l-92 -136h-176v16z" />
    <glyph glyph-name="y" unicode="y" horiz-adv-x="625" 
d="M153 -198v14l77 192l-224 515v17h179l93 -266l30 -101h9l30 101l97 266h175v-17l-309 -743z" />
    <glyph glyph-name="z" unicode="z" horiz-adv-x="557" 
d="M35 106l267 302v8h-258v124h468v-105l-258 -302v-9h268v-124h-487v106z" />
    <glyph glyph-name="braceleft" unicode="{" horiz-adv-x="351" 
d="M28 418c24 0 40.666 7.66895 49.999 23.002s14 38 14 68v234c0 46 8.83301 78.333 26.5 97s46.5 28 86.5 28c6 0 14.833 -0.166992 26.5 -0.5s23.334 -0.833008 35.001 -1.5s22.334 -1.16699 32.001 -1.5s15.834 -0.833008 18.501 -1.5v-103h-45
c-16.667 0 -28.5 -3.5 -35.5 -10.5s-10.5 -18.167 -10.5 -33.5v-242c0 -31.333 -7.33301 -57.833 -22 -79.5s-34.334 -35.167 -59.001 -40.5c24.667 -3.33301 44.334 -15.833 59.001 -37.5s22 -47.834 22 -78.501v-245c0 -15.333 3.5 -26.5 10.5 -33.5
s18.833 -10.5 35.5 -10.5h45v-103c-2.66699 -0.666992 -8.83398 -1.33398 -18.501 -2.00098s-20.334 -1.16699 -32.001 -1.5l-34.5 -1c-11.333 -0.333008 -20 -0.5 -26 -0.5c-40 0 -69 9.33301 -87 28s-27 51 -27 97v237c0 30 -4.66699 52.5 -14 67.5s-26 22.5 -50 22.5v125
z" />
    <glyph glyph-name="bar" unicode="|" horiz-adv-x="311" 
d="M234 808v-1028h-156v1028h156z" />
    <glyph glyph-name="braceright" unicode="}" horiz-adv-x="351" 
d="M323 293c-23.333 0 -39.833 -7.50195 -49.5 -22.502s-14.5 -37.5 -14.5 -67.5v-237c0 -46 -8.83301 -78.333 -26.5 -97s-46.5 -28 -86.5 -28c-6 0 -14.667 0.166992 -26 0.5l-34.5 1c-11.667 0.333008 -22.5 0.833008 -32.5 1.5s-16.333 1.33398 -19 2.00098v103h46
c16.667 0 28.5 3.5 35.5 10.5s10.5 18.167 10.5 33.5v245c0 30.667 7.33301 56.834 22 78.501s34 34.167 58 37.5c-24 5.33301 -43.333 18.833 -58 40.5s-22 48.167 -22 79.5v242c0 15.333 -3.5 26.5 -10.5 33.5s-18.833 10.5 -35.5 10.5h-46v103
c2.66699 0.666992 9 1.16699 19 1.5s20.833 0.833008 32.5 1.5s23.167 1.16699 34.5 1.5s20 0.5 26 0.5c40 0 68.833 -9.33301 86.5 -28s26.5 -51 26.5 -97v-234c0 -30 4.83301 -52.667 14.5 -68s26.167 -23 49.5 -23v-125z" />
    <glyph glyph-name="asciitilde" unicode="~" horiz-adv-x="689" 
d="M40 270c22 26 41.3311 47.334 57.998 64.001s32.334 30 47.001 40s29.167 17 43.5 21s29.5 6 45.5 6c22 0 42 -4 60 -12s35 -16.667 51 -26s31.833 -18 47.5 -26s32.167 -12 49.5 -12c22 0 42.833 6.5 62.5 19.5s37.5 31.5 53.5 55.5l92 -54l-35.5 -49.5
c-13 -17.667 -27.5 -33.834 -43.5 -48.501s-33.333 -26.834 -52 -36.501s-39 -14.5 -61 -14.5c-22.667 0 -43.167 4 -61.5 12s-35.666 16.667 -51.999 26l-47.5 26c-15.333 8 -31 12 -47 12c-21.333 0 -41.5 -6.16699 -60.5 -18.5s-39.167 -31.166 -60.5 -56.499z" />
    <glyph glyph-name="uni00A0" unicode="&#xa0;" horiz-adv-x="214" 
 />
    <glyph glyph-name="exclamdown" unicode="&#xa1;" horiz-adv-x="280" 
d="M141 546c26.667 0 47.334 -7.16699 62.001 -21.5s22 -34.166 22 -59.499s-7.33301 -45 -22 -59s-35.334 -21 -62.001 -21s-47.334 7 -62.001 21s-22 33.667 -22 59s7.33301 45.166 22 59.499s35.334 21.5 62.001 21.5zM89 300h102v-11l32 -479v-10h-166v10l32 479v11z
" />
    <glyph glyph-name="cent" unicode="&#xa2;" horiz-adv-x="529" 
d="M267 -7c-154 14 -231 106.333 -231 277c0 169.333 77 261.666 231 276.999v113h103v-113c19.333 -1.33301 38.166 -3.33301 56.499 -6s35.166 -5.66699 50.499 -9v-131c-53.333 8 -102.666 12 -147.999 12c-46 0 -78.667 -10.833 -98 -32.5s-29 -58.167 -29 -109.5
c0 -52 9.5 -89 28.5 -111s51.167 -33 96.5 -33c30 0 56.333 0.833008 79 2.5s46.334 4.5 71.001 8.5v-130c-14.667 -4 -31.167 -7.16699 -49.5 -9.5s-37.5 -4.16602 -57.5 -5.49902v-113h-103v113z" />
    <glyph glyph-name="sterling" unicode="&#xa3;" horiz-adv-x="702" 
d="M43 437h150.998v79c0 78.667 22.833 137 68.5 175s116.167 57 211.5 57c30.667 0 60.334 -2 89.001 -6s61.334 -10.667 98.001 -20l-7 -134c-60.667 13.333 -113.667 20 -159 20c-48 0 -81.833 -7 -101.5 -21s-29.5 -38 -29.5 -72v-78h209v-129h-209v-164h283v-144h-604
v145h151v163h-151v129z" />
    <glyph glyph-name="currency" unicode="&#xa4;" horiz-adv-x="636" 
d="M48 163l55 54l42 30c-15.333 15.333 -27.333 33.333 -36 54s-13 43.667 -13 69c0 49.333 16.667 90 50 122l-43 31l-55 54l62 63l55 -55l39 -55c33.333 14.667 71.333 22 114 22c42 0 79.667 -7.33301 113 -22l40 55l54 55l63 -63l-55 -54l-44 -31
c33.333 -32 50 -72.667 50 -122s-16.667 -90 -50 -122l44 -31l55 -54l-63 -63l-54 55l-39 54c-33.333 -14.667 -71.333 -22 -114 -22c-22 0 -42.5 1.83301 -61.5 5.5s-36.833 9.16699 -53.5 16.5l-38 -54l-55 -55zM197 370c0 -32 10.999 -56.501 32.999 -73.501
s51.333 -25.5 88 -25.5s65.834 8.33301 87.501 25s32.5 41.334 32.5 74.001s-11 57.167 -33 73.5s-51 24.5 -87 24.5c-36.667 0 -66 -8.33301 -88 -25s-33 -41 -33 -73z" />
    <glyph glyph-name="yen" unicode="&#xa5;" horiz-adv-x="774" 
d="M101 349h142l-217 391h186l141 -273l31 -76h9l31 76l142 273h184l-216 -391h127v-103h-186v-73h186v-103h-186v-70h-170v70h-204v103h204v73h-204v103z" />
    <glyph glyph-name="brokenbar" unicode="&#xa6;" horiz-adv-x="312" 
d="M78 204h156v-424h-156v424zM78 808h156v-424h-156v424z" />
    <glyph glyph-name="section" unicode="&#xa7;" horiz-adv-x="559" 
d="M267 -11c-30 0 -63.832 2.00488 -101.499 6.00488s-75.834 10 -114.501 18v114c77.333 -16.667 146.666 -25 207.999 -25c32 0 55.333 4 70 12s22 20.667 22 38s-7.33301 30 -22 38s-38 14.333 -70 19c-22 2.66699 -44.833 6 -68.5 10s-45.5 11.667 -65.5 23
s-36.5 27.666 -49.5 48.999s-19.5 50.666 -19.5 87.999c0 21.333 3.33301 40.666 10 57.999s16 32.666 28 45.999c-11.333 11.333 -20.5 25.333 -27.5 42s-10.5 37.334 -10.5 62.001c0 54.667 20.667 97.167 62 127.5s98.333 45.5 171 45.5c14 0 28.167 -0.333008 42.5 -1
s29.333 -1.83398 45 -3.50098s32.667 -3.83398 51 -6.50098l61.5 -9l-4 -123c-38 8 -72 14.167 -102 18.5s-55.667 6.5 -77 6.5c-60.667 0 -91 -16.667 -91 -50c0 -18.667 9 -31.5 27 -38.5s45.667 -13.167 83 -18.5c28 -4 53.333 -9.5 76 -16.5s42.167 -16.833 58.5 -29.5
s29 -28.5 38 -47.5s13.5 -42.5 13.5 -70.5c0 -44.667 -13 -81 -39 -109c12.667 -11.333 22.334 -25.166 29.001 -41.499s10 -35.5 10 -57.5c0 -56.667 -20.5 -99.834 -61.5 -129.501s-101.833 -44.5 -182.5 -44.5zM341.001 307.005c8 10 11.999 23.6699 11.999 41.0029
c0 25.333 -5.83301 43.166 -17.5 53.499s-29.167 18.166 -52.5 23.499c-5.33301 1.33301 -14 3.16602 -26 5.49902s-20.333 4.5 -25 6.5c-12 -11.333 -18 -26.333 -18 -45c0 -23.333 6.66699 -39.833 20 -49.5s32.333 -17.167 57 -22.5l10.5 -2.5
c4.33301 -1 9 -2.16699 14 -3.5l14.5 -4c4.66699 -1.33301 8.33398 -2.33301 11.001 -3z" />
    <glyph glyph-name="dieresis" unicode="&#xa8;" horiz-adv-x="537" 
d="M132 624c-30 0 -51.5 6.33301 -64.5 19s-19.5 33.334 -19.5 62.001c0 28 6.5 48.333 19.5 61s34.5 19 64.5 19c29.333 0 50.5 -6.5 63.5 -19.5s19.5 -33.167 19.5 -60.5c0 -28.667 -6.5 -49.334 -19.5 -62.001s-34.167 -19 -63.5 -19zM397 624
c-29.333 0 -50.5 6.33301 -63.5 19s-19.5 33.334 -19.5 62.001c0 28 6.5 48.333 19.5 61s34.167 19 63.5 19c30 0 51.5 -6.5 64.5 -19.5s19.5 -33.167 19.5 -60.5c0 -28.667 -6.5 -49.334 -19.5 -62.001s-34.5 -19 -64.5 -19z" />
    <glyph glyph-name="copyright" unicode="&#xa9;" horiz-adv-x="822" 
d="M426 164c-61.333 0 -108 16.832 -140 50.499s-48 84.834 -48 153.501s16 120.167 48 154.5s78.667 51.5 140 51.5c16 0 32 -1 48 -3s30.333 -4.66699 43 -8v-83c-33.333 6 -59.666 9 -78.999 9c-36.667 0 -62.334 -9.66699 -77.001 -29s-22 -49.666 -22 -90.999
c0 -42 7.33301 -72.5 22 -91.5s39.667 -28.5 75 -28.5c9.33301 0 21 0.666992 35 2s29.333 3.66602 46 6.99902v-83c-12 -3.33301 -26.167 -6 -42.5 -8s-32.5 -3 -48.5 -3zM411 -10.001c-56 0 -106.833 9.16699 -152.5 27.5s-84.5 44.166 -116.5 77.499
s-56.833 73.333 -74.5 120s-26.5 98.334 -26.5 155.001s8.83301 108.334 26.5 155.001s42.5 86.667 74.5 120s70.833 59.166 116.5 77.499s96.5 27.5 152.5 27.5s106.833 -9.16699 152.5 -27.5s84.667 -44.166 117 -77.499s57.333 -73.333 75 -120
s26.5 -98.334 26.5 -155.001s-8.83301 -108.334 -26.5 -155.001s-42.667 -86.667 -75 -120s-71.333 -59.166 -117 -77.499s-96.5 -27.5 -152.5 -27.5zM411 69.999c44.667 0 84.5 7.16699 119.5 21.5s64.833 34.5 89.5 60.5s43.5 57.5 56.5 94.5s19.5 78.167 19.5 123.5
s-6.5 86.5 -19.5 123.5s-31.833 68.667 -56.5 95s-54.5 46.666 -89.5 60.999s-74.833 21.5 -119.5 21.5s-84.667 -7.16699 -120 -21.5s-65.166 -34.666 -89.499 -60.999s-43 -58 -56 -95s-19.5 -78.167 -19.5 -123.5s6.5 -86.5 19.5 -123.5s31.667 -68.5 56 -94.5
s54.166 -46.167 89.499 -60.5s75.333 -21.5 120 -21.5z" />
    <glyph glyph-name="ordfeminine" unicode="&#xaa;" horiz-adv-x="479" 
d="M162 348c-39.333 0 -70.499 10.8311 -93.499 32.498s-34.5 50.5 -34.5 86.5s13.5 64 40.5 84s65.833 31.333 116.5 34l99 5c0 14 -1 25.333 -3 34s-5.66699 15.334 -11 20.001s-12.833 7.66699 -22.5 9s-22.167 2 -37.5 2c-18.667 0 -40.167 -0.833008 -64.5 -2.5
s-49.166 -4.16699 -74.499 -7.5l-8 85c29.333 5.33301 57.666 9.33301 84.999 12s53.333 4 78 4c68 0 117 -9.83301 147 -29.5s45 -51.167 45 -94.5v-270h-113l-7 47h-4c-20.667 -15.333 -42.834 -27.666 -66.501 -36.999s-47.5 -14 -71.5 -14zM215.001 438.998
c22 0 47 7 75 21v58l-51 -4c-28 -2.66699 -47.167 -6.5 -57.5 -11.5s-15.5 -13.5 -15.5 -25.5c0 -25.333 16.333 -38 49 -38z" />
    <glyph glyph-name="guillemotleft" unicode="&#xab;" horiz-adv-x="718" 
d="M28 268v4l180 238h169l-180 -238v-4l180 -238h-169zM335 268v4l180 238h169l-180 -238v-4l180 -238h-169z" />
    <glyph glyph-name="logicalnot" unicode="&#xac;" horiz-adv-x="861" 
d="M49 440h747v-342h-163v207h-584v135z" />
    <glyph glyph-name="uni00AD" unicode="&#xad;" horiz-adv-x="514" 
d="M56 342h402v-124h-402v124z" />
    <glyph glyph-name="registered" unicode="&#xae;" horiz-adv-x="702" 
d="M351 142c-46 0 -87.667 7.5 -125 22.5s-69.5 35.833 -96.5 62.5s-47.833 58.667 -62.5 96s-22 78.666 -22 123.999c0 44.667 7.33301 85.834 22 123.501s35.5 69.834 62.5 96.501s59.167 47.5 96.5 62.5s79 22.5 125 22.5s87.833 -7.5 125.5 -22.5s70 -35.833 97 -62.5
s47.833 -58.834 62.5 -96.501s22 -78.834 22 -123.501c0 -45.333 -7.33301 -86.666 -22 -123.999s-35.5 -69.333 -62.5 -96s-59.333 -47.5 -97 -62.5s-79.5 -22.5 -125.5 -22.5zM351 208c36 0 68.667 5.66699 98 17s54.333 27.5 75 48.5s36.5 46.167 47.5 75.5
s16.5 62 16.5 98s-5.5 68.667 -16.5 98s-26.833 54.5 -47.5 75.5s-45.667 37.333 -75 49s-62 17.5 -98 17.5s-68.667 -5.83301 -98 -17.5s-54.166 -28 -74.499 -49s-36 -46.167 -47 -75.5s-16.5 -62 -16.5 -98s5.5 -68.667 16.5 -98s26.667 -54.5 47 -75.5
s45.166 -37.167 74.499 -48.5s62 -17 98 -17zM242 612c15.333 2 31.5 3.50098 48.5 4.50098s33.167 1.5 48.5 1.5c92.667 0 139 -34.333 139 -103c0 -23.333 -5 -42.833 -15 -58.5s-25.333 -26.834 -46 -33.501l69 -128h-69l-58 109h-50v-109h-67v317zM340 457.001
c25.333 0 43.333 4.50098 54 13.501s16 23.167 16 42.5c0 17.333 -4.83301 30.666 -14.5 39.999s-26.5 14 -50.5 14h-17.5c-9 0 -15.167 -0.333008 -18.5 -1v-109h31z" />
    <glyph glyph-name="macron" unicode="&#xaf;" horiz-adv-x="514" 
d="M55 751h391v-110h-391v110z" />
    <glyph glyph-name="degree" unicode="&#xb0;" horiz-adv-x="484" 
d="M243 373c-30.667 0 -59 4.66699 -85 14s-48.333 22.333 -67 39s-33.334 36.334 -44.001 59.001s-16 47.667 -16 75c0 26.667 5.33301 51.5 16 74.5s25.334 43 44.001 60s41 30.167 67 39.5s54.333 14 85 14s58.834 -4.66699 84.501 -14s47.834 -22.5 66.501 -39.5
s33.167 -37 43.5 -60s15.5 -47.833 15.5 -74.5c0 -27.333 -5.16699 -52.333 -15.5 -75s-24.833 -42.334 -43.5 -59.001s-40.834 -29.667 -66.501 -39s-53.834 -14 -84.501 -14zM243 461c34.667 0 61.167 9 79.5 27s27.5 42 27.5 72c0 30.667 -9.16699 55.167 -27.5 73.5
s-44.833 27.5 -79.5 27.5c-35.333 0 -62.333 -9.16699 -81 -27.5s-28 -42.833 -28 -73.5c0 -30 9.33301 -54 28 -72s45.667 -27 81 -27z" />
    <glyph glyph-name="plusminus" unicode="&#xb1;" horiz-adv-x="543" 
d="M57 478h161v161h106v-161h161v-105h-161v-154h-106v154h-161v105zM57 162h429v-106h-429v106z" />
    <glyph glyph-name="twosuperior" unicode="&#xb2;" horiz-adv-x="488" 
d="M31 386c0 47.333 13.832 87.5 41.499 120.5s72.834 63.167 135.501 90.5c20.667 8.66699 37.5 16.5 50.5 23.5s23.333 13.667 31 20s12.834 12.5 15.501 18.5s4 12.667 4 20c0 36 -33.667 54 -101 54c-19.333 0 -41 -1.33301 -65 -4s-52 -7 -84 -13l-13 115
c40 8 75 13.667 105 17s58 5 84 5c143.333 0 215 -54 215 -162c0 -40 -12.333 -74.167 -37 -102.5s-62.334 -53.833 -113.001 -76.5c-34 -17.333 -57.667 -32 -71 -44s-20 -24.333 -20 -37v-15h241v-115h-419v85z" />
    <glyph glyph-name="threesuperior" unicode="&#xb3;" horiz-adv-x="463" 
d="M203 292c-31.333 0 -62.1689 1.16602 -92.502 3.49902s-53.833 5.16602 -70.5 8.49902v120h5c6.66699 -1.33301 15.334 -2.66602 26.001 -3.99902s21.834 -2.5 33.501 -3.5s23.167 -1.83301 34.5 -2.5s21.333 -1 30 -1c46.667 0 78.5 4.5 95.5 13.5
s25.5 24.167 25.5 45.5c0 20.667 -9.16699 35.334 -27.5 44.001s-51.833 13 -100.5 13h-55v94h54c42 0 71.5 4.5 88.5 13.5s25.5 23.167 25.5 42.5s-7.5 33.333 -22.5 42s-42.167 13 -81.5 13c-14.667 0 -33.5 -1 -56.5 -3s-46.167 -4.66699 -69.5 -8h-5l-1 117
c9.33301 2 20.5 3.83301 33.5 5.5s26.5 3.16699 40.5 4.5s27.833 2.33301 41.5 3s25.834 1 36.501 1c152 0 228 -51.333 228 -154c0 -56 -24.667 -95.333 -74 -118c27.333 -10.667 48.166 -27 62.499 -49s21.5 -49 21.5 -81c0 -52 -19.333 -91.667 -58 -119
s-94.667 -41 -168 -41z" />
    <glyph glyph-name="acute" unicode="&#xb4;" horiz-adv-x="291" 
d="M35 617l66 188h171l-117 -197z" />
    <glyph glyph-name="mu" unicode="&#xb5;" horiz-adv-x="694" 
d="M76 540h165.998v-358c0 -23.333 5.16699 -40.166 15.5 -50.499s25.5 -15.5 45.5 -15.5c20.667 0 43.167 3.33301 67.5 10s49.833 15.667 76.5 27v387h167v-540h-140l-9 63h-4l-63.5 -32.5c-18.333 -9 -35.666 -16.5 -51.999 -22.5s-32.666 -10.333 -48.999 -13
s-34.5 -4.33398 -54.5 -5.00098v-210h-166v760z" />
    <glyph glyph-name="paragraph" unicode="&#xb6;" horiz-adv-x="663" 
d="M421 0l-74.001 -0.00390625v266c-15.333 -0.666992 -28.666 -1 -39.999 -1h-37c-36.667 0 -69.667 4.16699 -99 12.5s-54.333 21.833 -75 40.5s-36.5 43.334 -47.5 74.001s-16.5 68.334 -16.5 113.001s5.5 82.334 16.5 113.001s26.833 55.334 47.5 74.001
s45.667 32.167 75 40.5s62.333 12.5 99 12.5c22.667 0 47 -0.833008 73 -2.5s52 -4.16699 78 -7.5v-735zM573.999 -0.00390625h-98v735h98v-735z" />
    <glyph glyph-name="periodcentered" unicode="&#xb7;" horiz-adv-x="278" 
d="M139 280c-33.333 0 -57.166 7 -71.499 21s-21.5 37 -21.5 69s7.16699 55 21.5 69s38.166 21 71.499 21c32.667 0 56.167 -7.16699 70.5 -21.5s21.5 -37.166 21.5 -68.499c0 -30.667 -7.16699 -53.334 -21.5 -68.001s-37.833 -22 -70.5 -22z" />
    <glyph glyph-name="cedilla" unicode="&#xb8;" horiz-adv-x="313" 
d="M139 -220c-14.667 0 -30.999 1.16895 -48.999 3.50195s-36 5.16602 -54 8.49902v98c12.667 -3.33301 26.167 -6.16602 40.5 -8.49902s27.166 -3.5 38.499 -3.5c16.667 0 28.167 2.83301 34.5 8.5s9.5 14.167 9.5 25.5c0 13.333 -5.83301 30.833 -17.5 52.5
s-30.5 47.5 -56.5 77.5h103c16 -18.667 29.167 -34.834 39.5 -48.501s18.5 -26.334 24.5 -38.001s10.333 -22.5 13 -32.5s4 -20.333 4 -31c0 -36 -11.5 -63.667 -34.5 -83s-54.833 -29 -95.5 -29z" />
    <glyph glyph-name="onesuperior" unicode="&#xb9;" horiz-adv-x="376" 
d="M167 700l-129 -37h-8l-18 73l1 17l191 93h103v-546h-140v400z" />
    <glyph glyph-name="ordmasculine" unicode="&#xba;" horiz-adv-x="500" 
d="M250 441c16 0 29.333 1.5 40 4.5s19.167 8.33301 25.5 16s10.666 18.334 12.999 32.001s3.5 31.167 3.5 52.5s-1.16699 39 -3.5 53s-6.66602 25 -12.999 33s-14.833 13.5 -25.5 16.5s-24 4.5 -40 4.5s-29.333 -1.5 -40 -4.5s-19.167 -8.5 -25.5 -16.5
s-10.666 -19 -12.999 -33s-3.5 -31.667 -3.5 -53s1.16699 -38.833 3.5 -52.5s6.66602 -24.334 12.999 -32.001s14.833 -13 25.5 -16s24 -4.5 40 -4.5zM250 345c-68.667 0 -121.667 16.5 -159 49.5s-56 83.5 -56 151.5s18.667 118.5 56 151.5s90.333 49.5 159 49.5
c69.333 0 122.5 -16.5 159.5 -49.5s55.5 -83.5 55.5 -151.5s-18.5 -118.5 -55.5 -151.5s-90.167 -49.5 -159.5 -49.5z" />
    <glyph glyph-name="guillemotright" unicode="&#xbb;" horiz-adv-x="718" 
d="M203 30h-169l180 238v4l-180 238h169l179 -238v-4zM510 30h-169l180 238v4l-180 238h169l179 -238v-4z" />
    <glyph glyph-name="onequarter" unicode="&#xbc;" horiz-adv-x="1156" 
d="M900 104h-248l-17 88l193 354l13 5l122 -10l11 -25l-193 -304h128l35 142h97v-142h85v-108h-85v-104h-141v104zM620 740h143l-345 -740h-143zM180 600l-129 -37h-8l-18 73l1 17l191 93h103v-546h-140v400z" />
    <glyph glyph-name="onehalf" unicode="&#xbd;" horiz-adv-x="1172" 
d="M706 86c0 46.667 13.668 86.666 41.001 119.999s72.666 63.666 135.999 90.999c20.667 8.66699 37.5 16.5 50.5 23.5s23.333 13.667 31 20s12.834 12.5 15.501 18.5s4 12.667 4 20c0 36 -33.667 54 -101 54c-20 0 -42.167 -1.33301 -66.5 -4s-51.833 -7 -82.5 -13
l-13 115c40 7.33301 75.167 12.833 105.5 16.5s58.166 5.5 83.499 5.5c143.333 0 215 -54 215 -162c0 -39.333 -12 -73.166 -36 -101.499s-62 -54.166 -114 -77.499c-34 -17.333 -57.667 -32 -71 -44s-20 -24.333 -20 -37v-15h241v-115h-419v85zM620.001 739.999h143
l-345 -740h-143zM180.001 599.999l-129 -37h-8l-18 73l1 17l191 93h103v-546h-140v400z" />
    <glyph glyph-name="threequarters" unicode="&#xbe;" horiz-adv-x="1220" 
d="M215 192c-31.333 0 -62.1689 1.16602 -92.502 3.49902s-53.833 5.16602 -70.5 8.49902v120h5c6.66699 -1.33301 15.334 -2.66602 26.001 -3.99902s21.834 -2.5 33.501 -3.5s23.167 -1.83301 34.5 -2.5s21.333 -1 30 -1c46.667 0 78.5 4.5 95.5 13.5
s25.5 24.167 25.5 45.5c0 20.667 -9.16699 35.334 -27.5 44.001s-51.833 13 -100.5 13h-55v94h54c42 0 71.5 4.5 88.5 13.5s25.5 23.167 25.5 42.5s-7.5 33.333 -22.5 42s-42.167 13 -81.5 13c-14.667 0 -33.5 -1 -56.5 -3s-46.167 -4.66699 -69.5 -8h-5l-1 117
c9.33301 2 20.5 3.83301 33.5 5.5s26.5 3.16699 40.5 4.5s27.833 2.33301 41.5 3s25.834 1 36.501 1c152 0 228 -51.333 228 -154c0 -56 -24.667 -95.333 -74 -118c27.333 -10.667 48.166 -27 62.499 -49s21.5 -49 21.5 -81c0 -52 -19.333 -91.667 -58 -119
s-94.667 -41 -168 -41zM966.997 103.999h-248l-17 88l193 354l13 5l122 -10l11 -25l-193 -304h128l35 142h97v-142h85v-108h-85v-104h-141v104zM691.997 739.999h143l-345 -740h-143z" />
    <glyph glyph-name="questiondown" unicode="&#xbf;" horiz-adv-x="475" 
d="M333 305l12.999 -181.001c-23.333 -4.66699 -45 -10.334 -65 -17.001s-37.5 -14.667 -52.5 -24s-26.833 -20.166 -35.5 -32.499s-13 -26.833 -13 -43.5c0 -32.667 11 -55.167 33 -67.5s50 -18.5 84 -18.5c24.667 0 49.834 1.83301 75.501 5.5s48.167 7.83398 67.5 12.501
l7 -125c-30 -7.33301 -59.667 -12.833 -89 -16.5s-60 -5.5 -92 -5.5c-36 0 -68.5 4 -97.5 12s-54 20.167 -75 36.5s-37.167 36.833 -48.5 61.5s-17 53.667 -17 87c0 30 4.83301 56.5 14.5 79.5s23 42.833 40 59.5s37 30.5 60 41.5s48.167 19.167 75.5 24.5l6 110v16h109v-15
zM274.999 546.999c26.667 0 47.334 -7 62.001 -21s22 -33.667 22 -59s-7.33301 -45 -22 -59s-35.334 -21 -62.001 -21s-47.334 7 -62.001 21s-22 33.667 -22 59s7.33301 45 22 59s35.334 21 62.001 21z" />
    <glyph glyph-name="Agrave" unicode="&#xc0;" horiz-adv-x="740" 
d="M0 9l243 731h254l243 -731v-9h-165l-59 178h-293l-58 -178h-165v9zM477 311l-55 166l-45 145h-15l-44 -146l-55 -165h214zM298 802l-118 179h172l67 -168z" />
    <glyph glyph-name="Aacute" unicode="&#xc1;" horiz-adv-x="740" 
d="M0 9l243 731h254l243 -731v-9h-165l-59 178h-293l-58 -178h-165v9zM477 311l-55 166l-45 145h-15l-44 -146l-55 -165h214zM303 810l68 171h171l-117 -179z" />
    <glyph glyph-name="Acircumflex" unicode="&#xc2;" horiz-adv-x="740" 
d="M0 9l243 731h254l243 -731v-9h-165l-59 178h-293l-58 -178h-165v9zM477 311l-55 166l-45 145h-15l-44 -146l-55 -165h214zM174 915l196 77l199 -77v-114l-198 77l-197 -77v114z" />
    <glyph glyph-name="Atilde" unicode="&#xc3;" horiz-adv-x="740" 
d="M0 9l243 731h254l243 -731v-9h-165l-59 178h-293l-58 -178h-165v9zM477 311l-55 166l-45 145h-15l-44 -146l-55 -165h214zM142 857c22 39.333 46.999 68.667 74.999 88s55 29 81 29c16.667 0 33.167 -2 49.5 -6s32.5 -8.33301 48.5 -13s32 -9 48 -13s32.333 -6 49 -6
c15.333 0 30.333 2.5 45 7.5s31.334 14.833 50.001 29.5l23 -31c-22 -39.333 -47.167 -68.833 -75.5 -88.5s-55.833 -29.5 -82.5 -29.5c-16.667 0 -33 2 -49 6s-32 8.33301 -48 13s-32.167 9 -48.5 13s-32.5 6 -48.5 6c-15.333 0 -30.5 -2.5 -45.5 -7.5
s-31.167 -14.5 -48.5 -28.5z" />
    <glyph glyph-name="Adieresis" unicode="&#xc4;" horiz-adv-x="740" 
d="M0 9l243 731h254l243 -731v-9h-165l-59 178h-293l-58 -178h-165v9zM477 311l-55 166l-45 145h-15l-44 -146l-55 -165h214zM226 805c-32.667 0 -56.334 7 -71.001 21s-22 37 -22 69s7.33301 55 22 69s38.334 21 71.001 21c33.333 0 57 -7.33301 71 -22
s21 -37.334 21 -68.001c0 -31.333 -7 -54.166 -21 -68.499s-37.667 -21.5 -71 -21.5zM514 805c-33.333 0 -57 7 -71 21s-21 37 -21 69s7 55 21 69s37.667 21 71 21s57.166 -7.33301 71.499 -22s21.5 -37.334 21.5 -68.001c0 -31.333 -7.16699 -54.166 -21.5 -68.499
s-38.166 -21.5 -71.499 -21.5z" />
    <glyph glyph-name="Aring" unicode="&#xc5;" horiz-adv-x="740" 
d="M0 9l243 731h254l243 -731v-9h-165l-59 178h-293l-58 -178h-165v9zM477 311l-55 166l-45 145h-15l-44 -146l-55 -165h214zM371 778c-38.667 0 -70.5 10.333 -95.5 31s-37.5 48 -37.5 82c0 16.667 3.33301 32 10 46s15.834 26.167 27.501 36.5s25.667 18.333 42 24
s34.166 8.5 53.499 8.5s37.166 -2.83301 53.499 -8.5s30.333 -13.667 42 -24s20.834 -22.5 27.501 -36.5s10 -29.333 10 -46c0 -34 -12.5 -61.333 -37.5 -82s-56.833 -31 -95.5 -31zM371 836c23.333 0 40 4.5 50 13.5s15 22.833 15 41.5c0 19.333 -5 33.5 -15 42.5
s-26.667 13.5 -50 13.5s-40 -4.5 -50 -13.5s-15 -23.167 -15 -42.5c0 -18.667 5 -32.5 15 -41.5s26.667 -13.5 50 -13.5z" />
    <glyph glyph-name="AE" unicode="&#xc6;" horiz-adv-x="985" 
d="M-4 9l298 731h637v-133h-317l10 -169h290v-133h-281l11 -172h301v-133h-471l-7 175h-233l-71 -175h-167v9zM290 314h171l-12 305h-35z" />
    <glyph glyph-name="Ccedilla" unicode="&#xc7;" horiz-adv-x="605" 
d="M335 -220c-14.667 0 -30.999 1.16406 -48.999 3.49707s-36 5.16602 -54 8.49902v98c12.667 -3.33301 26.167 -6.16602 40.5 -8.49902s27.166 -3.5 38.499 -3.5c16.667 0 28.167 2.83301 34.5 8.5s9.5 14.167 9.5 25.5c0 20.667 -12 48.334 -36 83.001
c-95.333 13.333 -165.833 50.833 -211.5 112.5s-68.5 148.834 -68.5 261.501c0 130 29.667 226.333 89 289s149.333 94 270 94c23.333 0 49 -1.16699 77 -3.5s60 -6.16602 96 -11.499v-137c-19.333 2 -36.333 3.83301 -51 5.5s-28 3 -40 4s-22.833 1.83301 -32.5 2.5
s-19.167 1 -28.5 1c-38.667 0 -71.167 -4 -97.5 -12s-47.5 -21.333 -63.5 -40s-27.333 -43.667 -34 -75s-10 -70.333 -10 -117c0 -46 3.5 -84.333 10.5 -115s18.333 -55.334 34 -74.001s36.334 -32 62.001 -40s57.167 -12 94.5 -12c10.667 0 23.167 0.333008 37.5 1
s28.666 1.83398 42.999 3.50098l41.5 5c13.333 1.66699 24.666 3.5 33.999 5.5v-136c-21.333 -5.33301 -44.666 -9.5 -69.999 -12.5s-50 -5.16699 -74 -6.5c14 -19.333 23.833 -36.333 29.5 -51s8.5 -29.667 8.5 -45c0 -36 -11.5 -63.667 -34.5 -83s-54.833 -29 -95.5 -29z
" />
    <glyph glyph-name="Egrave" unicode="&#xc8;" horiz-adv-x="657" 
d="M298 802l-118 179h172l67 -168zM72 740h536v-133h-365v-168h332v-133h-332v-173h374v-133h-545v740z" />
    <glyph glyph-name="Eacute" unicode="&#xc9;" horiz-adv-x="657" 
d="M270 810l68 171h171l-117 -179zM72 740h536v-133h-365v-168h332v-133h-332v-173h374v-133h-545v740z" />
    <glyph glyph-name="Ecircumflex" unicode="&#xca;" horiz-adv-x="657" 
d="M72 740h536v-133h-365v-168h332v-133h-332v-173h374v-133h-545v740zM155 915l196 77l199 -77v-114l-198 77l-197 -77v114z" />
    <glyph glyph-name="Edieresis" unicode="&#xcb;" horiz-adv-x="657" 
d="M204 805c-32.667 0 -56.334 7 -71.001 21s-22 37 -22 69s7.33301 55 22 69s38.334 21 71.001 21c33.333 0 57 -7.33301 71 -22s21 -37.334 21 -68.001c0 -31.333 -7 -54.166 -21 -68.499s-37.667 -21.5 -71 -21.5zM492 805c-33.333 0 -57 7 -71 21s-21 37 -21 69
s7 55 21 69s37.667 21 71 21s57.166 -7.33301 71.499 -22s21.5 -37.334 21.5 -68.001c0 -31.333 -7.16699 -54.166 -21.5 -68.499s-38.166 -21.5 -71.499 -21.5zM72 740h536v-133h-365v-168h332v-133h-332v-173h374v-133h-545v740z" />
    <glyph glyph-name="Igrave" unicode="&#xcc;" horiz-adv-x="315" 
d="M72 740h171v-740h-171v740zM109 802l-118 179h172l67 -168z" />
    <glyph glyph-name="Iacute" unicode="&#xcd;" horiz-adv-x="315" 
d="M72 740h171v-740h-171v740zM92 810l68 171h171l-117 -179z" />
    <glyph glyph-name="Icircumflex" unicode="&#xce;" horiz-adv-x="315" 
d="M72 740h171v-740h-171v740zM-37 915l196 77l199 -77v-114l-198 77l-197 -77v114z" />
    <glyph glyph-name="Idieresis" unicode="&#xcf;" horiz-adv-x="315" 
d="M72 740h171v-740h-171v740zM16 805c-32.667 0 -56.334 7 -71.001 21s-22 37 -22 69s7.33301 55 22 69s38.334 21 71.001 21c33.333 0 57 -7.33301 71 -22s21 -37.334 21 -68.001c0 -31.333 -7 -54.166 -21 -68.499s-37.667 -21.5 -71 -21.5zM304 805
c-33.333 0 -57 7 -71 21s-21 37 -21 69s7 55 21 69s37.667 21 71 21s57.166 -7.33301 71.499 -22s21.5 -37.334 21.5 -68.001c0 -31.333 -7.16699 -54.166 -21.5 -68.499s-38.166 -21.5 -71.499 -21.5z" />
    <glyph glyph-name="Eth" unicode="&#xd0;" horiz-adv-x="794" 
d="M4 437l89 0.000976562v301c52 3.33301 99.167 6.16602 141.5 8.49902s78.5 3.5 108.5 3.5c72 0 133.833 -7.33301 185.5 -22s94.167 -37.5 127.5 -68.5s58 -70.5 74 -118.5s24 -105.333 24 -172c0 -67.333 -8.33301 -125 -25 -173s-42.834 -87.333 -78.501 -118
s-81.667 -53.167 -138 -67.5s-124.166 -21.5 -203.499 -21.5c-40 0 -79.5 1.16699 -118.5 3.5s-71.5 5.83301 -97.5 10.5v305h-89v129zM374 125.001c38 0 70.002 4.16797 96.002 12.501s47.167 22.166 63.5 41.499s28.166 44.5 35.499 75.5s11 69.167 11 114.5
c0 44.667 -3.83301 82.667 -11.5 114s-19.834 56.5 -36.501 75.5s-38.5 32.833 -65.5 41.5s-59.833 13 -98.5 13c-14.667 0 -30.667 -0.333008 -48 -1s-36.333 -2 -57 -4v-171h127v-129h-127v-175c19.333 -3.33301 37.833 -5.5 55.5 -6.5s36.167 -1.5 55.5 -1.5z" />
    <glyph glyph-name="Ntilde" unicode="&#xd1;" horiz-adv-x="812" 
d="M178 857c22 39.333 46.999 68.667 74.999 88s55 29 81 29c16.667 0 33.167 -2 49.5 -6s32.5 -8.33301 48.5 -13s32 -9 48 -13s32.333 -6 49 -6c15.333 0 30.333 2.5 45 7.5s31.334 14.833 50.001 29.5l23 -31c-22 -39.333 -47.167 -68.833 -75.5 -88.5
s-55.833 -29.5 -82.5 -29.5c-16.667 0 -33 2 -49 6s-32 8.33301 -48 13s-32.167 9 -48.5 13s-32.5 6 -48.5 6c-15.333 0 -30.5 -2.5 -45.5 -7.5s-31.167 -14.5 -48.5 -28.5zM71.999 740.001h137l314 -402l59 -85h9v487h149v-740h-137l-308 396l-65 91h-8v-487h-150v740z" />
    <glyph glyph-name="Ograve" unicode="&#xd2;" horiz-adv-x="792" 
d="M325 802l-118 179h172l67 -168zM396 -10c-116.667 0 -205.334 31.999 -266.001 95.999s-91 158.333 -91 283c0 126 30.333 221 91 285s149.334 96 266.001 96c116 0 204.5 -32.167 265.5 -96.5s91.5 -159.166 91.5 -284.499c0 -124.667 -30.5 -219 -91.5 -283
s-149.5 -96 -265.5 -96zM396 126.999c33.333 0 61.6709 4.16699 85.0039 12.5s42.166 22 56.499 41s24.833 43.833 31.5 74.5s10 68.667 10 114c0 44.667 -3.5 82.5 -10.5 113.5s-17.833 56.167 -32.5 75.5s-33.5 33.333 -56.5 42s-50.833 13 -83.5 13
s-60.667 -4.33301 -84 -13s-42.333 -22.5 -57 -41.5s-25.334 -44.167 -32.001 -75.5s-10 -69.333 -10 -114c0 -45.333 3.33301 -83.333 10 -114s17.167 -55.5 31.5 -74.5s33.166 -32.667 56.499 -41s51.666 -12.5 84.999 -12.5z" />
    <glyph glyph-name="Oacute" unicode="&#xd3;" horiz-adv-x="792" 
d="M330 810l68 171h171l-117 -179zM396 -10c-116.667 0 -205.334 31.999 -266.001 95.999s-91 158.333 -91 283c0 126 30.333 221 91 285s149.334 96 266.001 96c116 0 204.5 -32.167 265.5 -96.5s91.5 -159.166 91.5 -284.499c0 -124.667 -30.5 -219 -91.5 -283
s-149.5 -96 -265.5 -96zM396 126.999c33.333 0 61.6709 4.16699 85.0039 12.5s42.166 22 56.499 41s24.833 43.833 31.5 74.5s10 68.667 10 114c0 44.667 -3.5 82.5 -10.5 113.5s-17.833 56.167 -32.5 75.5s-33.5 33.333 -56.5 42s-50.833 13 -83.5 13
s-60.667 -4.33301 -84 -13s-42.333 -22.5 -57 -41.5s-25.334 -44.167 -32.001 -75.5s-10 -69.333 -10 -114c0 -45.333 3.33301 -83.333 10 -114s17.167 -55.5 31.5 -74.5s33.166 -32.667 56.499 -41s51.666 -12.5 84.999 -12.5z" />
    <glyph glyph-name="Ocircumflex" unicode="&#xd4;" horiz-adv-x="792" 
d="M396 -10c-116.667 0 -205.334 31.999 -266.001 95.999s-91 158.333 -91 283c0 126 30.333 221 91 285s149.334 96 266.001 96c116 0 204.5 -32.167 265.5 -96.5s91.5 -159.166 91.5 -284.499c0 -124.667 -30.5 -219 -91.5 -283s-149.5 -96 -265.5 -96zM396 126.999
c33.333 0 61.6709 4.16699 85.0039 12.5s42.166 22 56.499 41s24.833 43.833 31.5 74.5s10 68.667 10 114c0 44.667 -3.5 82.5 -10.5 113.5s-17.833 56.167 -32.5 75.5s-33.5 33.333 -56.5 42s-50.833 13 -83.5 13s-60.667 -4.33301 -84 -13s-42.333 -22.5 -57 -41.5
s-25.334 -44.167 -32.001 -75.5s-10 -69.333 -10 -114c0 -45.333 3.33301 -83.333 10 -114s17.167 -55.5 31.5 -74.5s33.166 -32.667 56.499 -41s51.666 -12.5 84.999 -12.5zM197.005 914.999l196 77l199 -77v-114l-198 77l-197 -77v114z" />
    <glyph glyph-name="Otilde" unicode="&#xd5;" horiz-adv-x="792" 
d="M168 857c22 39.333 46.999 68.667 74.999 88s55 29 81 29c16.667 0 33.167 -2 49.5 -6s32.5 -8.33301 48.5 -13s32 -9 48 -13s32.333 -6 49 -6c15.333 0 30.333 2.5 45 7.5s31.334 14.833 50.001 29.5l23 -31c-22 -39.333 -47.167 -68.833 -75.5 -88.5
s-55.833 -29.5 -82.5 -29.5c-16.667 0 -33 2 -49 6s-32 8.33301 -48 13s-32.167 9 -48.5 13s-32.5 6 -48.5 6c-15.333 0 -30.5 -2.5 -45.5 -7.5s-31.167 -14.5 -48.5 -28.5zM395.999 -9.99902c-116.667 0 -205.334 31.999 -266.001 95.999s-91 158.333 -91 283
c0 126 30.333 221 91 285s149.334 96 266.001 96c116 0 204.5 -32.167 265.5 -96.5s91.5 -159.166 91.5 -284.499c0 -124.667 -30.5 -219 -91.5 -283s-149.5 -96 -265.5 -96zM395.999 127c33.333 0 61.6709 4.16699 85.0039 12.5s42.166 22 56.499 41
s24.833 43.833 31.5 74.5s10 68.667 10 114c0 44.667 -3.5 82.5 -10.5 113.5s-17.833 56.167 -32.5 75.5s-33.5 33.333 -56.5 42s-50.833 13 -83.5 13s-60.667 -4.33301 -84 -13s-42.333 -22.5 -57 -41.5s-25.334 -44.167 -32.001 -75.5s-10 -69.333 -10 -114
c0 -45.333 3.33301 -83.333 10 -114s17.167 -55.5 31.5 -74.5s33.166 -32.667 56.499 -41s51.666 -12.5 84.999 -12.5z" />
    <glyph glyph-name="Odieresis" unicode="&#xd6;" horiz-adv-x="792" 
d="M246 805c-32.667 0 -56.334 7 -71.001 21s-22 37 -22 69s7.33301 55 22 69s38.334 21 71.001 21c33.333 0 57 -7.33301 71 -22s21 -37.334 21 -68.001c0 -31.333 -7 -54.166 -21 -68.499s-37.667 -21.5 -71 -21.5zM534 805c-33.333 0 -57 7 -71 21s-21 37 -21 69
s7 55 21 69s37.667 21 71 21s57.166 -7.33301 71.499 -22s21.5 -37.334 21.5 -68.001c0 -31.333 -7.16699 -54.166 -21.5 -68.499s-38.166 -21.5 -71.499 -21.5zM396 -10c-116.667 0 -205.334 31.999 -266.001 95.999s-91 158.333 -91 283c0 126 30.333 221 91 285
s149.334 96 266.001 96c116 0 204.5 -32.167 265.5 -96.5s91.5 -159.166 91.5 -284.499c0 -124.667 -30.5 -219 -91.5 -283s-149.5 -96 -265.5 -96zM396 126.999c33.333 0 61.6709 4.16699 85.0039 12.5s42.166 22 56.499 41s24.833 43.833 31.5 74.5s10 68.667 10 114
c0 44.667 -3.5 82.5 -10.5 113.5s-17.833 56.167 -32.5 75.5s-33.5 33.333 -56.5 42s-50.833 13 -83.5 13s-60.667 -4.33301 -84 -13s-42.333 -22.5 -57 -41.5s-25.334 -44.167 -32.001 -75.5s-10 -69.333 -10 -114c0 -45.333 3.33301 -83.333 10 -114
s17.167 -55.5 31.5 -74.5s33.166 -32.667 56.499 -41s51.666 -12.5 84.999 -12.5z" />
    <glyph glyph-name="multiply" unicode="&#xd7;" horiz-adv-x="501" 
d="M41 236l134 134l-134 135l75 75l134 -135l134 135l76 -75l-135 -135l135 -134l-75 -75l-135 134l-134 -134z" />
    <glyph glyph-name="Oslash" unicode="&#xd8;" horiz-adv-x="794" 
d="M112 110c-23.333 32 -41.168 69.333 -53.501 112s-18.5 91.667 -18.5 147c0 126 30.333 221 91 285s149.334 96 266.001 96c87.333 0 159.333 -18.667 216 -56l40 46h123l-95 -110c48.667 -64 73 -151 73 -261c0 -124.667 -30.333 -219 -91 -283
s-149.334 -96 -266.001 -96c-89.333 0 -161.666 18.333 -216.999 55l-39 -45h-124zM396.998 127c33.333 0 61.667 4.16699 85 12.5s42.166 22 56.499 41s24.833 43.833 31.5 74.5s10 68.667 10 114c0 50 -4.66699 92 -14 126l-289 -336
c14.667 -11.333 31.834 -19.5 51.501 -24.5s42.5 -7.5 68.5 -7.5zM213.999 369c0 -50.667 4.00098 -92.333 12.001 -125l289 336c-26.667 22 -66 33 -118 33c-32.667 0 -60.667 -4.33301 -84 -13s-42.333 -22.5 -57 -41.5s-25.334 -44.167 -32.001 -75.5
s-10 -69.333 -10 -114z" />
    <glyph glyph-name="Ugrave" unicode="&#xd9;" horiz-adv-x="799" 
d="M334 802l-118 179h172l67 -168zM400 -10c-62 0 -114.333 6.33496 -157 19.002s-77.167 32 -103.5 58s-45.333 58.667 -57 98s-17.5 86 -17.5 140v436h170v-440c0 -58.667 13.167 -102.334 39.5 -131.001s68.166 -43 125.499 -43c56.667 0 98.167 14.167 124.5 42.5
s39.5 72.166 39.5 131.499v440h170v-436c0 -54 -5.83301 -100.667 -17.5 -140s-30.667 -72 -57 -98s-60.666 -45.333 -102.999 -58s-94.5 -19 -156.5 -19z" />
    <glyph glyph-name="Uacute" unicode="&#xda;" horiz-adv-x="799" 
d="M319 810l68 171h171l-117 -179zM400 -10c-62 0 -114.333 6.33496 -157 19.002s-77.167 32 -103.5 58s-45.333 58.667 -57 98s-17.5 86 -17.5 140v436h170v-440c0 -58.667 13.167 -102.334 39.5 -131.001s68.166 -43 125.499 -43c56.667 0 98.167 14.167 124.5 42.5
s39.5 72.166 39.5 131.499v440h170v-436c0 -54 -5.83301 -100.667 -17.5 -140s-30.667 -72 -57 -98s-60.666 -45.333 -102.999 -58s-94.5 -19 -156.5 -19z" />
    <glyph glyph-name="Ucircumflex" unicode="&#xdb;" horiz-adv-x="799" 
d="M400 -10c-62 0 -114.333 6.33496 -157 19.002s-77.167 32 -103.5 58s-45.333 58.667 -57 98s-17.5 86 -17.5 140v436h170v-440c0 -58.667 13.167 -102.334 39.5 -131.001s68.166 -43 125.499 -43c56.667 0 98.167 14.167 124.5 42.5s39.5 72.166 39.5 131.499v440h170
v-436c0 -54 -5.83301 -100.667 -17.5 -140s-30.667 -72 -57 -98s-60.666 -45.333 -102.999 -58s-94.5 -19 -156.5 -19zM198 915.002l196 77l199 -77v-114l-198 77l-197 -77v114z" />
    <glyph glyph-name="Udieresis" unicode="&#xdc;" horiz-adv-x="799" 
d="M252 805c-32.667 0 -56.334 7 -71.001 21s-22 37 -22 69s7.33301 55 22 69s38.334 21 71.001 21c33.333 0 57 -7.33301 71 -22s21 -37.334 21 -68.001c0 -31.333 -7 -54.166 -21 -68.499s-37.667 -21.5 -71 -21.5zM540 805c-33.333 0 -57 7 -71 21s-21 37 -21 69
s7 55 21 69s37.667 21 71 21s57.166 -7.33301 71.499 -22s21.5 -37.334 21.5 -68.001c0 -31.333 -7.16699 -54.166 -21.5 -68.499s-38.166 -21.5 -71.499 -21.5zM400 -10c-62 0 -114.333 6.33496 -157 19.002s-77.167 32 -103.5 58s-45.333 58.667 -57 98
s-17.5 86 -17.5 140v436h170v-440c0 -58.667 13.167 -102.334 39.5 -131.001s68.166 -43 125.499 -43c56.667 0 98.167 14.167 124.5 42.5s39.5 72.166 39.5 131.499v440h170v-436c0 -54 -5.83301 -100.667 -17.5 -140s-30.667 -72 -57 -98s-60.666 -45.333 -102.999 -58
s-94.5 -19 -156.5 -19z" />
    <glyph glyph-name="Yacute" unicode="&#xdd;" horiz-adv-x="712" 
d="M272 237l-279 503h186l141 -273l31 -76h9l31 76l142 273h184l-275 -498v-242h-170v237zM292 810l68 171h171l-117 -179z" />
    <glyph glyph-name="Thorn" unicode="&#xde;" horiz-adv-x="701" 
d="M72 740l171.004 -0.000976562v-115c9.33301 0 19 0.166992 29 0.5s19.667 0.5 29 0.5c65.333 0 121.666 -5 168.999 -15s86.166 -25.5 116.499 -46.5s52.666 -47.667 66.999 -80s21.5 -70.833 21.5 -115.5c0 -45.333 -7.16699 -84.166 -21.5 -116.499
s-36.5 -58.833 -66.5 -79.5s-68.333 -36 -115 -46s-102.334 -15 -167.001 -15h-31c-10 0 -20.333 0.333008 -31 1v-113h-171v740zM317.004 251.999c37.333 0 68.001 1.66504 92.001 4.99805s43 9.33301 57 18s23.667 20.5 29 35.5s8 34.5 8 58.5
c0 23.333 -2.83301 42.5 -8.5 57.5s-15.5 26.833 -29.5 35.5s-33.167 14.667 -57.5 18s-55.5 5 -93.5 5h-15c-6.66699 0 -13.834 -0.166992 -21.501 -0.5s-14.667 -0.666016 -21 -0.999023s-10.833 -0.833008 -13.5 -1.5v-227c2 -0.666992 6.33301 -1.16699 13 -1.5
s14 -0.666016 22 -0.999023s15.667 -0.5 23 -0.5h16z" />
    <glyph glyph-name="germandbls" unicode="&#xdf;" horiz-adv-x="778" 
d="M62 572c0 82.667 25.168 143.335 75.501 182.002s127.166 58 230.499 58c104 0 181.667 -19.5 233 -58.5s77 -99.5 77 -181.5v-139h-122c-63.333 0 -95 -16.667 -95 -50c0 -18 9 -30.667 27 -38s46 -13.666 84 -18.999c27.333 -4 52.5 -9.5 75.5 -16.5
s42.667 -16.667 59 -29s29 -28 38 -47s13.5 -42.5 13.5 -70.5c0 -56.667 -20.667 -99.834 -62 -129.501s-102.333 -44.5 -183 -44.5c-30 0 -63.833 2 -101.5 6s-75.5 10 -113.5 18v114c78.667 -16.667 147.667 -25 207 -25c32 0 55.333 4 70 12s22 20.667 22 38
s-7.5 30.166 -22.5 38.499s-38.167 14.5 -69.5 18.5c-22 2.66699 -44.833 6.16699 -68.5 10.5s-45.5 12.166 -65.5 23.499s-36.5 27.5 -49.5 48.5s-19.5 50.167 -19.5 87.5c0 50 18.333 90.167 55 120.5s87.667 47.5 153 51.5v21c0 39.333 -11.5 67.833 -34.5 85.5
s-58.5 26.5 -106.5 26.5s-83.333 -8.66699 -106 -26s-34 -46 -34 -86v-572h-167v572z" />
    <glyph glyph-name="agrave" unicode="&#xe0;" horiz-adv-x="586" 
d="M188 -5c-51.333 0 -90.332 13.501 -116.999 40.501s-40 64.833 -40 113.5c0 54.667 16.667 95.667 50 123s85.333 43.666 156 48.999l125 9v6c0 18 -1.5 32.833 -4.5 44.5s-8.5 21.167 -16.5 28.5s-19.333 12.5 -34 15.5s-34 4.5 -58 4.5
c-24.667 0 -52.5 -1.66699 -83.5 -5s-60.833 -7.66602 -89.5 -12.999l-11 116c38 7.33301 74.5 12.5 109.5 15.5s68.5 4.5 100.5 4.5c86.667 0 150.667 -14.833 192 -44.5s62 -75.834 62 -138.501v-364h-137l-15 66h-9c-26.667 -24 -55.334 -41.833 -86.001 -53.5
s-62 -17.5 -94 -17.5zM259.001 110.001c17.333 0 35.5 3.5 54.5 10.5s35.167 15.833 48.5 26.5v96l-74 -6c-33.333 -2.66699 -56.5 -9.16699 -69.5 -19.5s-19.5 -26.833 -19.5 -49.5c0 -38.667 20 -58 60 -58zM240.001 611.001l-118 196h173l66 -186z" />
    <glyph glyph-name="aacute" unicode="&#xe1;" horiz-adv-x="586" 
d="M188 -5c-51.333 0 -90.332 13.501 -116.999 40.501s-40 64.833 -40 113.5c0 54.667 16.667 95.667 50 123s85.333 43.666 156 48.999l125 9v6c0 18 -1.5 32.833 -4.5 44.5s-8.5 21.167 -16.5 28.5s-19.333 12.5 -34 15.5s-34 4.5 -58 4.5
c-24.667 0 -52.5 -1.66699 -83.5 -5s-60.833 -7.66602 -89.5 -12.999l-11 116c38 7.33301 74.5 12.5 109.5 15.5s68.5 4.5 100.5 4.5c86.667 0 150.667 -14.833 192 -44.5s62 -75.834 62 -138.501v-364h-137l-15 66h-9c-26.667 -24 -55.334 -41.833 -86.001 -53.5
s-62 -17.5 -94 -17.5zM259.001 110.001c17.333 0 35.5 3.5 54.5 10.5s35.167 15.833 48.5 26.5v96l-74 -6c-33.333 -2.66699 -56.5 -9.16699 -69.5 -19.5s-19.5 -26.833 -19.5 -49.5c0 -38.667 20 -58 60 -58zM229.001 617.001l66 188h171l-117 -197z" />
    <glyph glyph-name="acircumflex" unicode="&#xe2;" horiz-adv-x="586" 
d="M188 -5c-51.333 0 -90.332 13.501 -116.999 40.501s-40 64.833 -40 113.5c0 54.667 16.667 95.667 50 123s85.333 43.666 156 48.999l125 9v6c0 18 -1.5 32.833 -4.5 44.5s-8.5 21.167 -16.5 28.5s-19.333 12.5 -34 15.5s-34 4.5 -58 4.5
c-24.667 0 -52.5 -1.66699 -83.5 -5s-60.833 -7.66602 -89.5 -12.999l-11 116c38 7.33301 74.5 12.5 109.5 15.5s68.5 4.5 100.5 4.5c86.667 0 150.667 -14.833 192 -44.5s62 -75.834 62 -138.501v-364h-137l-15 66h-9c-26.667 -24 -55.334 -41.833 -86.001 -53.5
s-62 -17.5 -94 -17.5zM259.001 110.001c17.333 0 35.5 3.5 54.5 10.5s35.167 15.833 48.5 26.5v96l-74 -6c-33.333 -2.66699 -56.5 -9.16699 -69.5 -19.5s-19.5 -26.833 -19.5 -49.5c0 -38.667 20 -58 60 -58zM101.001 725.001l196 77l199 -77v-113l-198 77l-197 -77v113z
" />
    <glyph glyph-name="atilde" unicode="&#xe3;" horiz-adv-x="586" 
d="M188 -5c-51.333 0 -90.332 13.501 -116.999 40.501s-40 64.833 -40 113.5c0 54.667 16.667 95.667 50 123s85.333 43.666 156 48.999l125 9v6c0 18 -1.5 32.833 -4.5 44.5s-8.5 21.167 -16.5 28.5s-19.333 12.5 -34 15.5s-34 4.5 -58 4.5
c-24.667 0 -52.5 -1.66699 -83.5 -5s-60.833 -7.66602 -89.5 -12.999l-11 116c38 7.33301 74.5 12.5 109.5 15.5s68.5 4.5 100.5 4.5c86.667 0 150.667 -14.833 192 -44.5s62 -75.834 62 -138.501v-364h-137l-15 66h-9c-26.667 -24 -55.334 -41.833 -86.001 -53.5
s-62 -17.5 -94 -17.5zM259.001 110.001c17.333 0 35.5 3.5 54.5 10.5s35.167 15.833 48.5 26.5v96l-74 -6c-33.333 -2.66699 -56.5 -9.16699 -69.5 -19.5s-19.5 -26.833 -19.5 -49.5c0 -38.667 20 -58 60 -58zM65.001 666.001c22 38.667 46.999 67.5 74.999 86.5
s55.333 28.5 82 28.5c16.667 0 33.167 -2.16699 49.5 -6.5s32.333 -9.16602 48 -14.499s31.5 -10.166 47.5 -14.499s32.333 -6.5 49 -6.5c15.333 0 30.166 2.66699 44.499 8s30.5 15.333 48.5 30l26 -34c-22 -38.667 -47.167 -67.5 -75.5 -86.5s-55.833 -28.5 -82.5 -28.5
c-16.667 0 -33 2.16699 -49 6.5s-32 9.16602 -48 14.499s-32.167 10.166 -48.5 14.499s-32.5 6.5 -48.5 6.5c-15.333 0 -30.166 -2.66699 -44.499 -8s-30.166 -15.333 -47.499 -30z" />
    <glyph glyph-name="adieresis" unicode="&#xe4;" horiz-adv-x="586" 
d="M188 -5c-51.333 0 -90.332 13.501 -116.999 40.501s-40 64.833 -40 113.5c0 54.667 16.667 95.667 50 123s85.333 43.666 156 48.999l125 9v6c0 18 -1.5 32.833 -4.5 44.5s-8.5 21.167 -16.5 28.5s-19.333 12.5 -34 15.5s-34 4.5 -58 4.5
c-24.667 0 -52.5 -1.66699 -83.5 -5s-60.833 -7.66602 -89.5 -12.999l-11 116c38 7.33301 74.5 12.5 109.5 15.5s68.5 4.5 100.5 4.5c86.667 0 150.667 -14.833 192 -44.5s62 -75.834 62 -138.501v-364h-137l-15 66h-9c-26.667 -24 -55.334 -41.833 -86.001 -53.5
s-62 -17.5 -94 -17.5zM259.001 110.001c17.333 0 35.5 3.5 54.5 10.5s35.167 15.833 48.5 26.5v96l-74 -6c-33.333 -2.66699 -56.5 -9.16699 -69.5 -19.5s-19.5 -26.833 -19.5 -49.5c0 -38.667 20 -58 60 -58zM165.001 624.001c-30 0 -51.5 6.33301 -64.5 19
s-19.5 33.334 -19.5 62.001c0 28 6.5 48.333 19.5 61s34.5 19 64.5 19c29.333 0 50.5 -6.5 63.5 -19.5s19.5 -33.167 19.5 -60.5c0 -28.667 -6.5 -49.334 -19.5 -62.001s-34.167 -19 -63.5 -19zM430.001 624.001c-29.333 0 -50.5 6.33301 -63.5 19
s-19.5 33.334 -19.5 62.001c0 28 6.5 48.333 19.5 61s34.167 19 63.5 19c30 0 51.5 -6.5 64.5 -19.5s19.5 -33.167 19.5 -60.5c0 -28.667 -6.5 -49.334 -19.5 -62.001s-34.5 -19 -64.5 -19z" />
    <glyph glyph-name="aring" unicode="&#xe5;" horiz-adv-x="586" 
d="M188 -5c-51.333 0 -90.332 13.501 -116.999 40.501s-40 64.833 -40 113.5c0 54.667 16.667 95.667 50 123s85.333 43.666 156 48.999l125 9v6c0 18 -1.5 32.833 -4.5 44.5s-8.5 21.167 -16.5 28.5s-19.333 12.5 -34 15.5s-34 4.5 -58 4.5
c-24.667 0 -52.5 -1.66699 -83.5 -5s-60.833 -7.66602 -89.5 -12.999l-11 116c38 7.33301 74.5 12.5 109.5 15.5s68.5 4.5 100.5 4.5c86.667 0 150.667 -14.833 192 -44.5s62 -75.834 62 -138.501v-364h-137l-15 66h-9c-26.667 -24 -55.334 -41.833 -86.001 -53.5
s-62 -17.5 -94 -17.5zM259.001 110.001c17.333 0 35.5 3.5 54.5 10.5s35.167 15.833 48.5 26.5v96l-74 -6c-33.333 -2.66699 -56.5 -9.16699 -69.5 -19.5s-19.5 -26.833 -19.5 -49.5c0 -38.667 20 -58 60 -58zM293.001 590.001c-38.667 0 -70.667 10.333 -96 31
s-38 48 -38 82s12.5 61.667 37.5 83s57.167 32 96.5 32s71.5 -10.667 96.5 -32s37.5 -49 37.5 -83s-12.5 -61.333 -37.5 -82s-57.167 -31 -96.5 -31zM293.001 648.001c22.667 0 39 4.83301 49 14.5s15 23.167 15 40.5c0 18 -5 31.833 -15 41.5s-26.333 14.5 -49 14.5
s-39 -4.83301 -49 -14.5s-15 -23.5 -15 -41.5c0 -17.333 5 -30.833 15 -40.5s26.333 -14.5 49 -14.5z" />
    <glyph glyph-name="ae" unicode="&#xe6;" horiz-adv-x="920" 
d="M646 -13c-99.333 0 -169.999 29.998 -211.999 89.998h-8c-44.667 -28.667 -86.334 -49.5 -125.001 -62.5s-77 -19.5 -115 -19.5c-50 0 -88.333 13.5 -115 40.5s-40 65.5 -40 115.5c0 52.667 16.667 92.834 50 120.501s85.333 44.167 156 49.5l126 8v23
c0 15.333 -2 27.833 -6 37.5s-10.833 17.334 -20.5 23.001s-22.334 9.66699 -38.001 12s-35.5 3.5 -59.5 3.5c-22 0 -47.5 -1.5 -76.5 -4.5s-57.5 -7.16699 -85.5 -12.5l-12 116c38.667 7.33301 75.5 12.5 110.5 15.5s70.167 4.5 105.5 4.5
c85.333 0 144.666 -22 177.999 -66h8c41.333 42.667 101 64 179 64c158.667 0 238 -79.667 238 -239c0 -18.667 -0.666992 -34.5 -2 -47.5s-3.66602 -25.167 -6.99902 -36.5h-343c2.66699 -40.667 13.834 -69 33.501 -85s51.5 -24 95.5 -24c14.667 0 30.667 0.5 48 1.5
s34.833 2.66699 52.5 5s34.667 5 51 8s31.5 6.5 45.5 10.5l5 -119c-32 -10 -67.167 -17.833 -105.5 -23.5s-75.5 -8.5 -111.5 -8.5zM261.001 108.998c16 0 33.333 3.49902 52 10.499s35.667 16.167 51 27.5c0 0.666992 -0.166992 6 -0.5 16s-0.5 20.833 -0.5 32.5v32v16.5
l-75 -7c-33.333 -3.33301 -56.333 -10 -69 -20s-19 -26 -19 -48c0 -21.333 4.83301 -36.666 14.5 -45.999s25.167 -14 46.5 -14zM736.001 307.997c-1.33301 43.333 -9.33301 74.333 -24 93s-39 28 -73 28c-35.333 0 -61.5 -9.5 -78.5 -28.5s-26.833 -49.833 -29.5 -92.5h205
z" />
    <glyph glyph-name="ccedilla" unicode="&#xe7;" horiz-adv-x="517" 
d="M266 -220c-14.667 0 -31 1.16797 -49 3.50098s-36 5.16602 -54 8.49902v98c12.667 -3.33301 26.167 -6.16602 40.5 -8.49902s27.166 -3.5 38.499 -3.5c16.667 0 28.167 2.83301 34.5 8.5s9.5 14.167 9.5 25.5c0 9.33301 -2.83301 21.166 -8.5 35.499
s-14.834 30.166 -27.501 47.499c-142.667 18.667 -214 110.334 -214 275.001c0 186 92.333 279 277 279c28.667 0 57.5 -1.5 86.5 -4.5s54.833 -7.16699 77.5 -12.5v-131c-53.333 8 -102.666 12 -147.999 12c-46 0 -78.667 -10.833 -98 -32.5s-29 -58.167 -29 -109.5
c0 -52 9.5 -89 28.5 -111s51.167 -33 96.5 -33c30 0 56.333 0.833008 79 2.5s46.334 4.5 71.001 8.5v-130c-16 -4 -34.5 -7.33301 -55.5 -10s-43.167 -4.66699 -66.5 -6c15.333 -20.667 26 -38.5 32 -53.5s9 -30.5 9 -46.5c0 -36 -11.5 -63.667 -34.5 -83
s-54.833 -29 -95.5 -29z" />
    <glyph glyph-name="egrave" unicode="&#xe8;" horiz-adv-x="590" 
d="M316 -9c-186 0 -279.001 91.667 -279.001 275c0 93.333 23.333 163.833 70 211.5s116.334 71.5 209.001 71.5c158.667 0 238 -80.333 238 -241c0 -31.333 -3 -59 -9 -83h-342c2 -21.333 5.66699 -39 11 -53s13 -25 23 -33s22.833 -13.667 38.5 -17s34.5 -5 56.5 -5
c14.667 0 30.5 0.666992 47.5 2s34.167 3 51.5 5s34.333 4.5 51 7.5s32 6.16699 46 9.5l5 -119c-32 -9.33301 -67 -16.833 -105 -22.5s-75.333 -8.5 -112 -8.5zM308.999 432c-34.667 0 -60.333 -9.16699 -77 -27.5s-26.667 -48.833 -30 -91.5h205
c-1.33301 43.333 -9.5 74 -24.5 92s-39.5 27 -73.5 27zM240 611l-118 196h173l66 -186z" />
    <glyph glyph-name="eacute" unicode="&#xe9;" horiz-adv-x="590" 
d="M256 617l66 188h171l-117 -197zM316 -9c-186 0 -279.001 91.667 -279.001 275c0 93.333 23.333 163.833 70 211.5s116.334 71.5 209.001 71.5c158.667 0 238 -80.333 238 -241c0 -31.333 -3 -59 -9 -83h-342c2 -21.333 5.66699 -39 11 -53s13 -25 23 -33
s22.833 -13.667 38.5 -17s34.5 -5 56.5 -5c14.667 0 30.5 0.666992 47.5 2s34.167 3 51.5 5s34.333 4.5 51 7.5s32 6.16699 46 9.5l5 -119c-32 -9.33301 -67 -16.833 -105 -22.5s-75.333 -8.5 -112 -8.5zM308.999 432c-34.667 0 -60.333 -9.16699 -77 -27.5
s-26.667 -48.833 -30 -91.5h205c-1.33301 43.333 -9.5 74 -24.5 92s-39.5 27 -73.5 27z" />
    <glyph glyph-name="ecircumflex" unicode="&#xea;" horiz-adv-x="590" 
d="M112 725l196 77l199 -77v-113l-198 77l-197 -77v113zM316 -9c-186 0 -279.001 91.667 -279.001 275c0 93.333 23.333 163.833 70 211.5s116.334 71.5 209.001 71.5c158.667 0 238 -80.333 238 -241c0 -31.333 -3 -59 -9 -83h-342c2 -21.333 5.66699 -39 11 -53
s13 -25 23 -33s22.833 -13.667 38.5 -17s34.5 -5 56.5 -5c14.667 0 30.5 0.666992 47.5 2s34.167 3 51.5 5s34.333 4.5 51 7.5s32 6.16699 46 9.5l5 -119c-32 -9.33301 -67 -16.833 -105 -22.5s-75.333 -8.5 -112 -8.5zM308.999 432c-34.667 0 -60.333 -9.16699 -77 -27.5
s-26.667 -48.833 -30 -91.5h205c-1.33301 43.333 -9.5 74 -24.5 92s-39.5 27 -73.5 27z" />
    <glyph glyph-name="edieresis" unicode="&#xeb;" horiz-adv-x="590" 
d="M169 624c-30 0 -51.5 6.33301 -64.5 19s-19.5 33.334 -19.5 62.001c0 28 6.5 48.333 19.5 61s34.5 19 64.5 19c29.333 0 50.5 -6.5 63.5 -19.5s19.5 -33.167 19.5 -60.5c0 -28.667 -6.5 -49.334 -19.5 -62.001s-34.167 -19 -63.5 -19zM434 624
c-29.333 0 -50.5 6.33301 -63.5 19s-19.5 33.334 -19.5 62.001c0 28 6.5 48.333 19.5 61s34.167 19 63.5 19c30 0 51.5 -6.5 64.5 -19.5s19.5 -33.167 19.5 -60.5c0 -28.667 -6.5 -49.334 -19.5 -62.001s-34.5 -19 -64.5 -19zM316 -9c-186 0 -279.001 91.667 -279.001 275
c0 93.333 23.333 163.833 70 211.5s116.334 71.5 209.001 71.5c158.667 0 238 -80.333 238 -241c0 -31.333 -3 -59 -9 -83h-342c2 -21.333 5.66699 -39 11 -53s13 -25 23 -33s22.833 -13.667 38.5 -17s34.5 -5 56.5 -5c14.667 0 30.5 0.666992 47.5 2s34.167 3 51.5 5
s34.333 4.5 51 7.5s32 6.16699 46 9.5l5 -119c-32 -9.33301 -67 -16.833 -105 -22.5s-75.333 -8.5 -112 -8.5zM308.999 432c-34.667 0 -60.333 -9.16699 -77 -27.5s-26.667 -48.833 -30 -91.5h205c-1.33301 43.333 -9.5 74 -24.5 92s-39.5 27 -73.5 27z" />
    <glyph glyph-name="igrave" unicode="&#xec;" horiz-adv-x="291" 
d="M63 540h167v-540h-167v540zM79 611l-118 196h173l66 -186z" />
    <glyph glyph-name="iacute" unicode="&#xed;" horiz-adv-x="291" 
d="M86 617l66 188h171l-117 -197zM62 540h167v-540h-167v540z" />
    <glyph glyph-name="icircumflex" unicode="&#xee;" horiz-adv-x="292" 
d="M-36 725l184 77l188 -77v-113l-186 77l-186 -77v113zM63 540h167v-540h-167v540z" />
    <glyph glyph-name="idieresis" unicode="&#xef;" horiz-adv-x="292" 
d="M28 624c-29.333 0 -50.5 6.33301 -63.5 19s-19.5 33.334 -19.5 62.001c0 28 6.5 48.333 19.5 61s34.167 19 63.5 19c30 0 51.5 -6.5 64.5 -19.5s19.5 -33.167 19.5 -60.5c0 -28.667 -6.5 -49.334 -19.5 -62.001s-34.5 -19 -64.5 -19zM268 624
c-29.333 0 -50.5 6.33301 -63.5 19s-19.5 33.334 -19.5 62.001c0 28 6.5 48.333 19.5 61s34.167 19 63.5 19c30 0 51.5 -6.5 64.5 -19.5s19.5 -33.167 19.5 -60.5c0 -28.667 -6.5 -49.334 -19.5 -62.001s-34.5 -19 -64.5 -19zM63 540h167v-540h-167v540z" />
    <glyph glyph-name="eth" unicode="&#xf0;" horiz-adv-x="656" 
d="M202 703l122 10.999c-12.667 16 -26.167 31.833 -40.5 47.5l-44.5 46.5h169l27 -34l35 -46l162 15v-101l-102 -10c22 -42 41 -90.333 57 -145s24 -115.667 24 -183c0 -104.667 -24.5 -183.167 -73.5 -235.5s-120.833 -78.5 -215.5 -78.5c-92 0 -162.833 23.667 -212.5 71
s-74.5 116.333 -74.5 207s24.167 160.334 72.5 209.001s115.5 73 201.5 73c29.333 0 54.333 -4 75 -12s39.334 -21.667 56.001 -41c-6.66699 21.333 -14.334 42 -23.001 62s-18.667 39.667 -30 59l-185 -17v102zM324 116.999c22 0 40.501 2.83203 55.501 8.49902
s27.333 14.667 37 27s16.667 28.333 21 48s6.5 43.834 6.5 72.501c0 50 -9.5 87.333 -28.5 112s-50.5 37 -94.5 37c-43.333 0 -73.833 -11.333 -91.5 -34s-26.5 -62 -26.5 -118c0 -28 2.16699 -51.833 6.5 -71.5s11.166 -35.5 20.499 -47.5s21.833 -20.667 37.5 -26
s34.5 -8 56.5 -8z" />
    <glyph glyph-name="ntilde" unicode="&#xf1;" horiz-adv-x="658" 
d="M62 540l139.999 0.000976562l9 -62h7c50 25.333 93.167 43.666 129.5 54.999s69.833 17 100.5 17c48 0 85.333 -13 112 -39s40 -63 40 -111v-400h-167v344c0 26.667 -5 45.667 -15 57s-25.667 17 -47 17c-18.667 0 -40.667 -3.33301 -66 -10s-50.666 -15.667 -75.999 -27
v-381h-167v540zM103.999 666.001c22 38.667 46.999 67.5 74.999 86.5s55.333 28.5 82 28.5c16.667 0 33.167 -2.16699 49.5 -6.5s32.333 -9.16602 48 -14.499s31.5 -10.166 47.5 -14.499s32.333 -6.5 49 -6.5c15.333 0 30.166 2.66699 44.499 8s30.5 15.333 48.5 30l26 -34
c-22 -38.667 -47.167 -67.5 -75.5 -86.5s-55.833 -28.5 -82.5 -28.5c-16.667 0 -33 2.16699 -49 6.5s-32 9.16602 -48 14.499s-32.167 10.166 -48.5 14.499s-32.5 6.5 -48.5 6.5c-15.333 0 -30.166 -2.66699 -44.499 -8s-30.166 -15.333 -47.499 -30z" />
    <glyph glyph-name="ograve" unicode="&#xf2;" horiz-adv-x="647" 
d="M324 -10c-94 0 -165.667 23.833 -215 71.5s-74 117.167 -74 208.5s24.667 160.833 74 208.5s121 71.5 215 71.5s165.333 -23.833 214 -71.5s73 -117.167 73 -208.5s-24.333 -160.833 -73 -208.5s-120 -71.5 -214 -71.5zM324 117c22 0 40.667 2.5 56 7.5
s27.666 13.5 36.999 25.5s16.166 27.833 20.499 47.5s6.5 43.834 6.5 72.501s-2.16699 52.667 -6.5 72s-11.166 35 -20.499 47s-21.666 20.5 -36.999 25.5s-34 7.5 -56 7.5s-40.667 -2.5 -56 -7.5s-27.833 -13.5 -37.5 -25.5s-16.667 -27.667 -21 -47s-6.5 -43.333 -6.5 -72
s2.16699 -52.834 6.5 -72.501s11.333 -35.5 21 -47.5s22.167 -20.5 37.5 -25.5s34 -7.5 56 -7.5zM252 611l-118 196h173l66 -186z" />
    <glyph glyph-name="oacute" unicode="&#xf3;" horiz-adv-x="647" 
d="M255 617l66 188h171l-117 -197zM324 -10c-94 0 -165.667 23.833 -215 71.5s-74 117.167 -74 208.5s24.667 160.833 74 208.5s121 71.5 215 71.5s165.333 -23.833 214 -71.5s73 -117.167 73 -208.5s-24.333 -160.833 -73 -208.5s-120 -71.5 -214 -71.5zM324 117
c22 0 40.667 2.5 56 7.5s27.666 13.5 36.999 25.5s16.166 27.833 20.499 47.5s6.5 43.834 6.5 72.501s-2.16699 52.667 -6.5 72s-11.166 35 -20.499 47s-21.666 20.5 -36.999 25.5s-34 7.5 -56 7.5s-40.667 -2.5 -56 -7.5s-27.833 -13.5 -37.5 -25.5
s-16.667 -27.667 -21 -47s-6.5 -43.333 -6.5 -72s2.16699 -52.834 6.5 -72.501s11.333 -35.5 21 -47.5s22.167 -20.5 37.5 -25.5s34 -7.5 56 -7.5z" />
    <glyph glyph-name="ocircumflex" unicode="&#xf4;" horiz-adv-x="647" 
d="M125 725l196 77l199 -77v-113l-198 77l-197 -77v113zM324 -10c-94 0 -165.667 23.833 -215 71.5s-74 117.167 -74 208.5s24.667 160.833 74 208.5s121 71.5 215 71.5s165.333 -23.833 214 -71.5s73 -117.167 73 -208.5s-24.333 -160.833 -73 -208.5
s-120 -71.5 -214 -71.5zM324 117c22 0 40.667 2.5 56 7.5s27.666 13.5 36.999 25.5s16.166 27.833 20.499 47.5s6.5 43.834 6.5 72.501s-2.16699 52.667 -6.5 72s-11.166 35 -20.499 47s-21.666 20.5 -36.999 25.5s-34 7.5 -56 7.5s-40.667 -2.5 -56 -7.5
s-27.833 -13.5 -37.5 -25.5s-16.667 -27.667 -21 -47s-6.5 -43.333 -6.5 -72s2.16699 -52.834 6.5 -72.501s11.333 -35.5 21 -47.5s22.167 -20.5 37.5 -25.5s34 -7.5 56 -7.5z" />
    <glyph glyph-name="otilde" unicode="&#xf5;" horiz-adv-x="647" 
d="M324 -10c-94 0 -165.667 23.833 -215 71.5s-74 117.167 -74 208.5s24.667 160.833 74 208.5s121 71.5 215 71.5s165.333 -23.833 214 -71.5s73 -117.167 73 -208.5s-24.333 -160.833 -73 -208.5s-120 -71.5 -214 -71.5zM324 117c22 0 40.667 2.5 56 7.5
s27.666 13.5 36.999 25.5s16.166 27.833 20.499 47.5s6.5 43.834 6.5 72.501s-2.16699 52.667 -6.5 72s-11.166 35 -20.499 47s-21.666 20.5 -36.999 25.5s-34 7.5 -56 7.5s-40.667 -2.5 -56 -7.5s-27.833 -13.5 -37.5 -25.5s-16.667 -27.667 -21 -47s-6.5 -43.333 -6.5 -72
s2.16699 -52.834 6.5 -72.501s11.333 -35.5 21 -47.5s22.167 -20.5 37.5 -25.5s34 -7.5 56 -7.5zM92 666c22 38.667 46.999 67.5 74.999 86.5s55.333 28.5 82 28.5c16.667 0 33.167 -2.16699 49.5 -6.5s32.333 -9.16602 48 -14.499s31.5 -10.166 47.5 -14.499
s32.333 -6.5 49 -6.5c15.333 0 30.166 2.66699 44.499 8s30.5 15.333 48.5 30l26 -34c-22 -38.667 -47.167 -67.5 -75.5 -86.5s-55.833 -28.5 -82.5 -28.5c-16.667 0 -33 2.16699 -49 6.5s-32 9.16602 -48 14.499s-32.167 10.166 -48.5 14.499s-32.5 6.5 -48.5 6.5
c-15.333 0 -30.166 -2.66699 -44.499 -8s-30.166 -15.333 -47.499 -30z" />
    <glyph glyph-name="odieresis" unicode="&#xf6;" horiz-adv-x="647" 
d="M189 624c-30 0 -51.5 6.33301 -64.5 19s-19.5 33.334 -19.5 62.001c0 28 6.5 48.333 19.5 61s34.5 19 64.5 19c29.333 0 50.5 -6.5 63.5 -19.5s19.5 -33.167 19.5 -60.5c0 -28.667 -6.5 -49.334 -19.5 -62.001s-34.167 -19 -63.5 -19zM454 624
c-29.333 0 -50.5 6.33301 -63.5 19s-19.5 33.334 -19.5 62.001c0 28 6.5 48.333 19.5 61s34.167 19 63.5 19c30 0 51.5 -6.5 64.5 -19.5s19.5 -33.167 19.5 -60.5c0 -28.667 -6.5 -49.334 -19.5 -62.001s-34.5 -19 -64.5 -19zM324 -10c-94 0 -165.667 23.833 -215 71.5
s-74 117.167 -74 208.5s24.667 160.833 74 208.5s121 71.5 215 71.5s165.333 -23.833 214 -71.5s73 -117.167 73 -208.5s-24.333 -160.833 -73 -208.5s-120 -71.5 -214 -71.5zM324 117c22 0 40.667 2.5 56 7.5s27.666 13.5 36.999 25.5s16.166 27.833 20.499 47.5
s6.5 43.834 6.5 72.501s-2.16699 52.667 -6.5 72s-11.166 35 -20.499 47s-21.666 20.5 -36.999 25.5s-34 7.5 -56 7.5s-40.667 -2.5 -56 -7.5s-27.833 -13.5 -37.5 -25.5s-16.667 -27.667 -21 -47s-6.5 -43.333 -6.5 -72s2.16699 -52.834 6.5 -72.501s11.333 -35.5 21 -47.5
s22.167 -20.5 37.5 -25.5s34 -7.5 56 -7.5z" />
    <glyph glyph-name="divide" unicode="&#xf7;" horiz-adv-x="528" 
d="M267 119c-20.667 0 -37.334 5.83301 -50.001 17.5s-19 29.167 -19 52.5s6.33301 40.5 19 51.5s29.334 16.5 50.001 16.5c19.333 0 35.5 -5.5 48.5 -16.5s19.5 -28.167 19.5 -51.5s-6.5 -40.833 -19.5 -52.5s-29.167 -17.5 -48.5 -17.5zM43 423h443v-106h-443v106z
M267 481c-20.667 0 -37.334 5.5 -50.001 16.5s-19 27.833 -19 50.5c0 23.333 6.33301 41 19 53s29.334 18 50.001 18c19.333 0 35.5 -6 48.5 -18s19.5 -29.667 19.5 -53c0 -22.667 -6.5 -39.5 -19.5 -50.5s-29.167 -16.5 -48.5 -16.5z" />
    <glyph glyph-name="oslash" unicode="&#xf8;" horiz-adv-x="653" 
d="M90 87c-34 46 -51.001 107 -51.001 183c0 43.333 5.83301 82.333 17.5 117s29.5 64 53.5 88s54 42.5 90 55.5s78.333 19.5 127 19.5c70.667 0 128.667 -13.667 174 -41l30 31h117l-85 -87c34.667 -46.667 52 -107.667 52 -183c0 -88.667 -23.667 -157.5 -71 -206.5
s-119.666 -73.5 -216.999 -73.5c-71.333 0 -129.333 13.667 -174 41l-30 -31h-117zM326.999 117c25.333 0 45.833 2.83203 61.5 8.49902s28 14.834 37 27.501s15 28.5 18 47.5s4.5 42.167 4.5 69.5c0 22.667 -1 43 -3 61l-194 -199c18 -10 43.333 -15 76 -15z
M206.999 269.999c0 -23.333 1.00098 -43.334 3.00098 -60.001l192 197c-18 10 -43 15 -75 15c-25.333 0 -45.833 -2.83301 -61.5 -8.5s-27.834 -14.667 -36.501 -27s-14.5 -28.166 -17.5 -47.499s-4.5 -42.333 -4.5 -69z" />
    <glyph glyph-name="ugrave" unicode="&#xf9;" horiz-adv-x="658" 
d="M212 -10c-50 0 -88.165 13.1689 -114.498 39.502s-39.5 63.166 -39.5 110.499v400h167v-349c0 -26 4.83301 -44.667 14.5 -56s25.167 -17 46.5 -17s44.666 3.83301 69.999 11.5s49.666 16.5 72.999 26.5v384h167v-540h-140l-9 63h-4l-66.5 -34
c-19 -9.33301 -37 -16.833 -54 -22.5s-34.167 -9.83398 -51.5 -12.501s-37 -4 -59 -4zM259.002 611.002l-118 196h173l66 -186z" />
    <glyph glyph-name="uacute" unicode="&#xfa;" horiz-adv-x="658" 
d="M259 617l66 188h171l-117 -197zM212 -10c-50 0 -88.165 13.1689 -114.498 39.502s-39.5 63.166 -39.5 110.499v400h167v-349c0 -26 4.83301 -44.667 14.5 -56s25.167 -17 46.5 -17s44.666 3.83301 69.999 11.5s49.666 16.5 72.999 26.5v384h167v-540h-140l-9 63h-4
l-66.5 -34c-19 -9.33301 -37 -16.833 -54 -22.5s-34.167 -9.83398 -51.5 -12.501s-37 -4 -59 -4z" />
    <glyph glyph-name="ucircumflex" unicode="&#xfb;" horiz-adv-x="658" 
d="M134 725l196 77l199 -77v-113l-198 77l-197 -77v113zM212 -10c-50 0 -88.165 13.1689 -114.498 39.502s-39.5 63.166 -39.5 110.499v400h167v-349c0 -26 4.83301 -44.667 14.5 -56s25.167 -17 46.5 -17s44.666 3.83301 69.999 11.5s49.666 16.5 72.999 26.5v384h167v-540
h-140l-9 63h-4l-66.5 -34c-19 -9.33301 -37 -16.833 -54 -22.5s-34.167 -9.83398 -51.5 -12.501s-37 -4 -59 -4z" />
    <glyph glyph-name="udieresis" unicode="&#xfc;" horiz-adv-x="658" 
d="M196 624c-30 0 -51.5 6.33301 -64.5 19s-19.5 33.334 -19.5 62.001c0 28 6.5 48.333 19.5 61s34.5 19 64.5 19c29.333 0 50.5 -6.5 63.5 -19.5s19.5 -33.167 19.5 -60.5c0 -28.667 -6.5 -49.334 -19.5 -62.001s-34.167 -19 -63.5 -19zM461 624
c-29.333 0 -50.5 6.33301 -63.5 19s-19.5 33.334 -19.5 62.001c0 28 6.5 48.333 19.5 61s34.167 19 63.5 19c30 0 51.5 -6.5 64.5 -19.5s19.5 -33.167 19.5 -60.5c0 -28.667 -6.5 -49.334 -19.5 -62.001s-34.5 -19 -64.5 -19zM212 -10
c-50 0 -88.165 13.1689 -114.498 39.502s-39.5 63.166 -39.5 110.499v400h167v-349c0 -26 4.83301 -44.667 14.5 -56s25.167 -17 46.5 -17s44.666 3.83301 69.999 11.5s49.666 16.5 72.999 26.5v384h167v-540h-140l-9 63h-4l-66.5 -34c-19 -9.33301 -37 -16.833 -54 -22.5
s-34.167 -9.83398 -51.5 -12.501s-37 -4 -59 -4z" />
    <glyph glyph-name="yacute" unicode="&#xfd;" horiz-adv-x="625" 
d="M153 -198v14l77 192l-224 515v17h179l93 -266l30 -101h9l30 101l97 266h175v-17l-309 -743zM254 617l66 188h171l-117 -197z" />
    <glyph glyph-name="thorn" unicode="&#xfe;" horiz-adv-x="655" 
d="M61 808h167.001v-320c18 17.333 41.167 31.833 69.5 43.5s63.5 17.5 105.5 17.5c74.667 0 129.167 -21.833 163.5 -65.5s51.5 -111.834 51.5 -204.501c0 -93.333 -24.5 -164.666 -73.5 -213.999s-128.167 -74 -237.5 -74c-6.66699 0 -17.834 0.666992 -33.501 2l-45.5 4
v-217h-167v1028zM307.001 100c28 0 51.168 1.5 69.501 4.5s33 10.167 44 21.5s18.667 27.833 23 49.5s6.5 51.167 6.5 88.5c0 36 -1.83301 65 -5.5 87s-9.66699 39 -18 51s-19.333 20 -33 24s-30.167 6 -49.5 6c-24 0 -43.5 -3.66699 -58.5 -11s-26.833 -19 -35.5 -35
s-14.5 -36.167 -17.5 -60.5s-4.5 -53.5 -4.5 -87.5v-122c16.667 -5.33301 32.667 -9.33301 48 -12s25.666 -4 30.999 -4z" />
    <glyph glyph-name="ydieresis" unicode="&#xff;" horiz-adv-x="625" 
d="M153 -198v14l77 192l-224 515v17h179l93 -266l30 -101h9l30 101l97 266h175v-17l-309 -743zM181 624c-30 0 -51.5 6.33301 -64.5 19s-19.5 33.334 -19.5 62.001c0 28 6.5 48.333 19.5 61s34.5 19 64.5 19c29.333 0 50.5 -6.5 63.5 -19.5s19.5 -33.167 19.5 -60.5
c0 -28.667 -6.5 -49.334 -19.5 -62.001s-34.167 -19 -63.5 -19zM446 624c-29.333 0 -50.5 6.33301 -63.5 19s-19.5 33.334 -19.5 62.001c0 28 6.5 48.333 19.5 61s34.167 19 63.5 19c30 0 51.5 -6.5 64.5 -19.5s19.5 -33.167 19.5 -60.5
c0 -28.667 -6.5 -49.334 -19.5 -62.001s-34.5 -19 -64.5 -19z" />
    <glyph glyph-name="Amacron" unicode="&#x100;" horiz-adv-x="740" 
d="M0 9l243 731h254l243 -731v-9h-165l-59 178h-293l-58 -178h-165v9zM477 311l-55 166l-45 145h-15l-44 -146l-55 -165h214zM175 953h389v-112h-389v112z" />
    <glyph glyph-name="amacron" unicode="&#x101;" horiz-adv-x="586" 
d="M188 -5c-51.333 0 -90.332 13.501 -116.999 40.501s-40 64.833 -40 113.5c0 54.667 16.667 95.667 50 123s85.333 43.666 156 48.999l125 9v6c0 18 -1.5 32.833 -4.5 44.5s-8.5 21.167 -16.5 28.5s-19.333 12.5 -34 15.5s-34 4.5 -58 4.5
c-24.667 0 -52.5 -1.66699 -83.5 -5s-60.833 -7.66602 -89.5 -12.999l-11 116c38 7.33301 74.5 12.5 109.5 15.5s68.5 4.5 100.5 4.5c86.667 0 150.667 -14.833 192 -44.5s62 -75.834 62 -138.501v-364h-137l-15 66h-9c-26.667 -24 -55.334 -41.833 -86.001 -53.5
s-62 -17.5 -94 -17.5zM259.001 110.001c17.333 0 35.5 3.5 54.5 10.5s35.167 15.833 48.5 26.5v96l-74 -6c-33.333 -2.66699 -56.5 -9.16699 -69.5 -19.5s-19.5 -26.833 -19.5 -49.5c0 -38.667 20 -58 60 -58zM104.001 751.001h391v-110h-391v110z" />
    <glyph glyph-name="Abreve" unicode="&#x102;" horiz-adv-x="740" 
d="M0 9l243 731h254l243 -731v-9h-165l-59 178h-293l-58 -178h-165v9zM477 311l-55 166l-45 145h-15l-44 -146l-55 -165h214zM370 809c-39.333 0 -72.499 4.33203 -99.499 12.999s-49.167 20.834 -66.5 36.501s-29.833 34.167 -37.5 55.5s-11.5 44.666 -11.5 69.999h112
c0 -30.667 7.66699 -54 23 -70s42 -24 80 -24c39.333 0 66.5 8 81.5 24s22.5 39.333 22.5 70h113c0 -26 -4 -49.667 -12 -71s-20.667 -39.666 -38 -54.999s-39.833 -27.333 -67.5 -36s-60.834 -13 -99.501 -13z" />
    <glyph glyph-name="abreve" unicode="&#x103;" horiz-adv-x="586" 
d="M188 -5c-51.333 0 -90.332 13.501 -116.999 40.501s-40 64.833 -40 113.5c0 54.667 16.667 95.667 50 123s85.333 43.666 156 48.999l125 9v6c0 18 -1.5 32.833 -4.5 44.5s-8.5 21.167 -16.5 28.5s-19.333 12.5 -34 15.5s-34 4.5 -58 4.5
c-24.667 0 -52.5 -1.66699 -83.5 -5s-60.833 -7.66602 -89.5 -12.999l-11 116c38 7.33301 74.5 12.5 109.5 15.5s68.5 4.5 100.5 4.5c86.667 0 150.667 -14.833 192 -44.5s62 -75.834 62 -138.501v-364h-137l-15 66h-9c-26.667 -24 -55.334 -41.833 -86.001 -53.5
s-62 -17.5 -94 -17.5zM259.001 110.001c17.333 0 35.5 3.5 54.5 10.5s35.167 15.833 48.5 26.5v96l-74 -6c-33.333 -2.66699 -56.5 -9.16699 -69.5 -19.5s-19.5 -26.833 -19.5 -49.5c0 -38.667 20 -58 60 -58zM295.001 614.001c-39.333 0 -72.667 4.16895 -100 12.502
s-49.5 20.166 -66.5 35.499s-29.5 33.666 -37.5 54.999s-12 44.666 -12 69.999h112c0 -30.667 7.83301 -53.5 23.5 -68.5s42.5 -22.5 80.5 -22.5s64.833 7.5 80.5 22.5s23.5 37.833 23.5 68.5h112c-0.666992 -26 -4.83398 -49.5 -12.501 -70.5s-20 -39.167 -37 -54.5
s-39.167 -27.166 -66.5 -35.499s-60.666 -12.5 -99.999 -12.5z" />
    <glyph glyph-name="Aogonek" unicode="&#x104;" horiz-adv-x="739" 
d="M653 -220c-46 0 -81.001 7.83203 -105.001 23.499s-36 38.5 -36 68.5c0 23.333 7.66699 45.833 23 67.5s38 41.834 68 60.501h-28l-59 178h-293l-58 -178h-165v9l243 731h254l243 -731v-19c-44 -18.667 -75 -35.5 -93 -50.5s-27 -29.833 -27 -44.5
c0 -16.667 11.667 -25 35 -25c9.33301 0 22.333 1.33301 39 4s32.334 6 47.001 10v-92c-26 -8 -55.333 -12 -88 -12zM476.999 310.999l-55 166l-45 145h-15l-44 -146l-55 -165h214z" />
    <glyph glyph-name="aogonek" unicode="&#x105;" horiz-adv-x="586" 
d="M442 -220c-46 0 -81 7.83301 -105 23.5s-36 38.5 -36 68.5c0 23.333 7.66699 45.833 23 67.5s38 41.834 68 60.501l-15 66h-9c-26.667 -24 -55.334 -41.833 -86.001 -53.5s-62 -17.5 -94 -17.5c-51.333 0 -90.333 13.5 -117 40.5s-40 64.833 -40 113.5
c0 54.667 16.667 95.667 50 123s85.333 43.666 156 48.999l125 9v6c0 18 -1.5 32.833 -4.5 44.5s-8.5 21.167 -16.5 28.5s-19.333 12.5 -34 15.5s-34 4.5 -58 4.5c-24.667 0 -52.5 -1.66699 -83.5 -5s-60.833 -7.66602 -89.5 -12.999l-11 116
c38 7.33301 74.5 12.5 109.5 15.5s68.5 4.5 100.5 4.5c86.667 0 150.667 -14.833 192 -44.5s62 -75.834 62 -138.501v-374c-44 -18.667 -75 -35.5 -93 -50.5s-27 -29.833 -27 -44.5c0 -16.667 11.667 -25 35 -25c9.33301 0 22.333 1.33301 39 4s32.334 6 47.001 10v-92
c-26 -8 -55.333 -12 -88 -12zM259 110c17.333 0 35.5 3.5 54.5 10.5s35.167 15.833 48.5 26.5v96l-74 -6c-33.333 -2.66699 -56.5 -9.16699 -69.5 -19.5s-19.5 -26.833 -19.5 -49.5c0 -38.667 20 -58 60 -58z" />
    <glyph glyph-name="Cacute" unicode="&#x106;" horiz-adv-x="605" 
d="M410 -12c-126 0 -219.332 31.167 -279.999 93.5s-91 158.166 -91 287.499c0 130 29.667 226.333 89 289s149.333 94 270 94c23.333 0 49 -1.16699 77 -3.5s60 -6.16602 96 -11.499v-137c-19.333 2 -36.333 3.83301 -51 5.5s-28 3 -40 4s-22.833 1.83301 -32.5 2.5
s-19.167 1 -28.5 1c-38.667 0 -71.167 -4 -97.5 -12s-47.5 -21.333 -63.5 -40s-27.333 -43.667 -34 -75s-10 -70.333 -10 -117c0 -46 3.5 -84.333 10.5 -115s18.333 -55.334 34 -74.001s36.334 -32 62.001 -40s57.167 -12 94.5 -12c10.667 0 23.167 0.333008 37.5 1
s28.666 1.83398 42.999 3.50098l41.5 5c13.333 1.66699 24.666 3.5 33.999 5.5v-136c-24 -5.33301 -50.333 -9.83301 -79 -13.5s-56 -5.5 -82 -5.5zM277.001 810l68 171h171l-117 -179z" />
    <glyph glyph-name="cacute" unicode="&#x107;" horiz-adv-x="517" 
d="M235 617l66 188h171l-117 -197zM313 -9c-93.333 0 -162.835 22.832 -208.502 68.499s-68.5 115.834 -68.5 210.501c0 186 92.333 279 277 279c28.667 0 57.5 -1.5 86.5 -4.5s54.833 -7.16699 77.5 -12.5v-131c-53.333 8 -102.666 12 -147.999 12
c-46 0 -78.667 -10.833 -98 -32.5s-29 -58.167 -29 -109.5c0 -52 9.5 -89 28.5 -111s51.167 -33 96.5 -33c30 0 56.333 0.833008 79 2.5s46.334 4.5 71.001 8.5v-130c-21.333 -5.33301 -46.5 -9.5 -75.5 -12.5s-58.5 -4.5 -88.5 -4.5z" />
    <glyph glyph-name="Ccircumflex" unicode="&#x108;" horiz-adv-x="605" 
d="M410 -12c-126 0 -219.332 31.167 -279.999 93.5s-91 158.166 -91 287.499c0 130 29.667 226.333 89 289s149.333 94 270 94c23.333 0 49 -1.16699 77 -3.5s60 -6.16602 96 -11.499v-137c-19.333 2 -36.333 3.83301 -51 5.5s-28 3 -40 4s-22.833 1.83301 -32.5 2.5
s-19.167 1 -28.5 1c-38.667 0 -71.167 -4 -97.5 -12s-47.5 -21.333 -63.5 -40s-27.333 -43.667 -34 -75s-10 -70.333 -10 -117c0 -46 3.5 -84.333 10.5 -115s18.333 -55.334 34 -74.001s36.334 -32 62.001 -40s57.167 -12 94.5 -12c10.667 0 23.167 0.333008 37.5 1
s28.666 1.83398 42.999 3.50098l41.5 5c13.333 1.66699 24.666 3.5 33.999 5.5v-136c-24 -5.33301 -50.333 -9.83301 -79 -13.5s-56 -5.5 -82 -5.5zM147.001 915l196 77l199 -77v-114l-198 77l-197 -77v114z" />
    <glyph glyph-name="ccircumflex" unicode="&#x109;" horiz-adv-x="517" 
d="M96 725l196 77l199 -77v-113l-198 77l-197 -77v113zM313 -9c-93.333 0 -162.835 22.832 -208.502 68.499s-68.5 115.834 -68.5 210.501c0 186 92.333 279 277 279c28.667 0 57.5 -1.5 86.5 -4.5s54.833 -7.16699 77.5 -12.5v-131c-53.333 8 -102.666 12 -147.999 12
c-46 0 -78.667 -10.833 -98 -32.5s-29 -58.167 -29 -109.5c0 -52 9.5 -89 28.5 -111s51.167 -33 96.5 -33c30 0 56.333 0.833008 79 2.5s46.334 4.5 71.001 8.5v-130c-21.333 -5.33301 -46.5 -9.5 -75.5 -12.5s-58.5 -4.5 -88.5 -4.5z" />
    <glyph glyph-name="Cdotaccent" unicode="&#x10a;" horiz-adv-x="605" 
d="M360 802c-33.333 0 -57.166 7.00098 -71.499 21.001s-21.5 37 -21.5 69s7.16699 55.167 21.5 69.5s38.166 21.5 71.499 21.5s57 -7.33301 71 -22s21 -37.667 21 -69c0 -30.667 -7 -53.334 -21 -68.001s-37.667 -22 -71 -22zM410 -11.999
c-126 0 -219.332 31.167 -279.999 93.5s-91 158.166 -91 287.499c0 130 29.667 226.333 89 289s149.333 94 270 94c23.333 0 49 -1.16699 77 -3.5s60 -6.16602 96 -11.499v-137c-19.333 2 -36.333 3.83301 -51 5.5s-28 3 -40 4s-22.833 1.83301 -32.5 2.5s-19.167 1 -28.5 1
c-38.667 0 -71.167 -4 -97.5 -12s-47.5 -21.333 -63.5 -40s-27.333 -43.667 -34 -75s-10 -70.333 -10 -117c0 -46 3.5 -84.333 10.5 -115s18.333 -55.334 34 -74.001s36.334 -32 62.001 -40s57.167 -12 94.5 -12c10.667 0 23.167 0.333008 37.5 1
s28.666 1.83398 42.999 3.50098l41.5 5c13.333 1.66699 24.666 3.5 33.999 5.5v-136c-24 -5.33301 -50.333 -9.83301 -79 -13.5s-56 -5.5 -82 -5.5z" />
    <glyph glyph-name="cdotaccent" unicode="&#x10b;" horiz-adv-x="517" 
d="M313 -9c-93.333 0 -162.835 22.832 -208.502 68.499s-68.5 115.834 -68.5 210.501c0 186 92.333 279 277 279c28.667 0 57.5 -1.5 86.5 -4.5s54.833 -7.16699 77.5 -12.5v-131c-53.333 8 -102.666 12 -147.999 12c-46 0 -78.667 -10.833 -98 -32.5
s-29 -58.167 -29 -109.5c0 -52 9.5 -89 28.5 -111s51.167 -33 96.5 -33c30 0 56.333 0.833008 79 2.5s46.334 4.5 71.001 8.5v-130c-21.333 -5.33301 -46.5 -9.5 -75.5 -12.5s-58.5 -4.5 -88.5 -4.5zM287.998 614.999c-33.333 0 -57.166 7 -71.499 21s-21.5 37 -21.5 69
s7.16699 55 21.5 69s38.166 21 71.499 21c32.667 0 56.167 -7.33301 70.5 -22s21.5 -37.334 21.5 -68.001c0 -31.333 -7.16699 -54.166 -21.5 -68.499s-37.833 -21.5 -70.5 -21.5z" />
    <glyph glyph-name="Ccaron" unicode="&#x10c;" horiz-adv-x="605" 
d="M410 -12c-126 0 -219.332 31.167 -279.999 93.5s-91 158.166 -91 287.499c0 130 29.667 226.333 89 289s149.333 94 270 94c23.333 0 49 -1.16699 77 -3.5s60 -6.16602 96 -11.499v-137c-19.333 2 -36.333 3.83301 -51 5.5s-28 3 -40 4s-22.833 1.83301 -32.5 2.5
s-19.167 1 -28.5 1c-38.667 0 -71.167 -4 -97.5 -12s-47.5 -21.333 -63.5 -40s-27.333 -43.667 -34 -75s-10 -70.333 -10 -117c0 -46 3.5 -84.333 10.5 -115s18.333 -55.334 34 -74.001s36.334 -32 62.001 -40s57.167 -12 94.5 -12c10.667 0 23.167 0.333008 37.5 1
s28.666 1.83398 42.999 3.50098l41.5 5c13.333 1.66699 24.666 3.5 33.999 5.5v-136c-24 -5.33301 -50.333 -9.83301 -79 -13.5s-56 -5.5 -82 -5.5zM150.001 990l198 -77l197 77v-113l-199 -77l-196 77v113z" />
    <glyph glyph-name="ccaron" unicode="&#x10d;" horiz-adv-x="517" 
d="M90 799l197 -77l198 77v-114l-199 -76l-196 76v114zM313 -9c-93.333 0 -162.835 22.832 -208.502 68.499s-68.5 115.834 -68.5 210.501c0 186 92.333 279 277 279c28.667 0 57.5 -1.5 86.5 -4.5s54.833 -7.16699 77.5 -12.5v-131c-53.333 8 -102.666 12 -147.999 12
c-46 0 -78.667 -10.833 -98 -32.5s-29 -58.167 -29 -109.5c0 -52 9.5 -89 28.5 -111s51.167 -33 96.5 -33c30 0 56.333 0.833008 79 2.5s46.334 4.5 71.001 8.5v-130c-21.333 -5.33301 -46.5 -9.5 -75.5 -12.5s-58.5 -4.5 -88.5 -4.5z" />
    <glyph glyph-name="Dcaron" unicode="&#x10e;" horiz-adv-x="772" 
d="M178 990l198 -77l197 77v-113l-199 -77l-196 77v113zM288 -11c-40 0 -79.5 1.16797 -118.5 3.50098s-71.5 5.83301 -97.5 10.5v735c52 3.33301 99.167 6.16602 141.5 8.49902s78.5 3.5 108.5 3.5c72 0 133.833 -7.33301 185.5 -22s94.167 -37.5 127.5 -68.5
s58 -70.5 74 -118.5s24 -105.333 24 -172c0 -67.333 -8.33301 -125 -25 -173s-42.834 -87.333 -78.501 -118s-81.667 -53.167 -138 -67.5s-124.166 -21.5 -203.499 -21.5zM353 125.001c38 0 70.002 4.16797 96.002 12.501s47.167 22.166 63.5 41.499
s28.166 44.5 35.499 75.5s11 69.167 11 114.5c0 44.667 -3.83301 82.667 -11.5 114s-19.834 56.5 -36.501 75.5s-38.5 32.833 -65.5 41.5s-59.833 13 -98.5 13c-14.667 0 -30.667 -0.333008 -48 -1s-36.333 -2 -57 -4v-475c19.333 -3.33301 37.833 -5.5 55.5 -6.5
s36.167 -1.5 55.5 -1.5z" />
    <glyph glyph-name="dcaron" unicode="&#x10f;" horiz-adv-x="658" 
d="M650 808h131l-42 -228h-89v228zM264 -10c-75.333 0 -132.167 22.002 -170.5 66.002s-57.5 111.333 -57.5 202c0 48.667 7 91.167 21 127.5s34 66.666 60 90.999s57.5 42.666 94.5 54.999s78.5 18.5 124.5 18.5c16.667 0 32.667 -0.666992 48 -2l45 -4v264h167v-808h-146
l-13 66h-8c-35.333 -50.667 -90.333 -76 -165 -76zM313.999 113.002c36 0 64.167 8.83203 84.5 26.499s30.5 46.5 30.5 86.5v198c-13.333 2.66699 -28.333 4.83398 -45 6.50098s-34.334 2.5 -53.001 2.5c-24 0 -44 -2.5 -60 -7.5s-29 -13.667 -39 -26
s-17.167 -28.833 -21.5 -49.5s-6.5 -47 -6.5 -79c0 -30 1.83301 -55.167 5.5 -75.5s9.83398 -36.5 18.501 -48.5s20 -20.667 34 -26s31.333 -8 52 -8z" />
    <glyph glyph-name="Dcroat" unicode="&#x110;" horiz-adv-x="794" 
d="M4 437l89 0.000976562v301c52 3.33301 99.167 6.16602 141.5 8.49902s78.5 3.5 108.5 3.5c72 0 133.833 -7.33301 185.5 -22s94.167 -37.5 127.5 -68.5s58 -70.5 74 -118.5s24 -105.333 24 -172c0 -67.333 -8.33301 -125 -25 -173s-42.834 -87.333 -78.501 -118
s-81.667 -53.167 -138 -67.5s-124.166 -21.5 -203.499 -21.5c-40 0 -79.5 1.16699 -118.5 3.5s-71.5 5.83301 -97.5 10.5v305h-89v129zM374 125.001c38 0 70.002 4.16797 96.002 12.501s47.167 22.166 63.5 41.499s28.166 44.5 35.499 75.5s11 69.167 11 114.5
c0 44.667 -3.83301 82.667 -11.5 114s-19.834 56.5 -36.501 75.5s-38.5 32.833 -65.5 41.5s-59.833 13 -98.5 13c-14.667 0 -30.667 -0.333008 -48 -1s-36.333 -2 -57 -4v-171h127v-129h-127v-175c19.333 -3.33301 37.833 -5.5 55.5 -6.5s36.167 -1.5 55.5 -1.5z" />
    <glyph glyph-name="dcroat" unicode="&#x111;" horiz-adv-x="658" 
d="M258 721l170.999 0.00195312v87h167v-87h73v-95h-73v-626h-146l-13 66h-8c-35.333 -50.667 -90.333 -76 -165 -76c-75.333 0 -132.166 22 -170.499 66s-57.5 111.333 -57.5 202c0 48.667 7 91.167 21 127.5s34 66.666 60 90.999s57.5 42.666 94.5 54.999
s78.5 18.5 124.5 18.5c16.667 0 32.667 -0.666992 48 -2l45 -4v82h-171v95zM313.999 113.002c36 0 64.167 8.83203 84.5 26.499s30.5 46.5 30.5 86.5v198c-13.333 2.66699 -28.333 4.83398 -45 6.50098s-34.334 2.5 -53.001 2.5c-24 0 -44 -2.5 -60 -7.5
s-29 -13.667 -39 -26s-17.167 -28.833 -21.5 -49.5s-6.5 -47 -6.5 -79c0 -30 1.83301 -55.167 5.5 -75.5s9.83398 -36.5 18.501 -48.5s20 -20.667 34 -26s31.333 -8 52 -8z" />
    <glyph glyph-name="Emacron" unicode="&#x112;" horiz-adv-x="657" 
d="M149 953h389v-112h-389v112zM72 740h536v-133h-365v-168h332v-133h-332v-173h374v-133h-545v740z" />
    <glyph glyph-name="emacron" unicode="&#x113;" horiz-adv-x="590" 
d="M316 -9c-186 0 -279.001 91.667 -279.001 275c0 93.333 23.333 163.833 70 211.5s116.334 71.5 209.001 71.5c158.667 0 238 -80.333 238 -241c0 -31.333 -3 -59 -9 -83h-342c2 -21.333 5.66699 -39 11 -53s13 -25 23 -33s22.833 -13.667 38.5 -17s34.5 -5 56.5 -5
c14.667 0 30.5 0.666992 47.5 2s34.167 3 51.5 5s34.333 4.5 51 7.5s32 6.16699 46 9.5l5 -119c-32 -9.33301 -67 -16.833 -105 -22.5s-75.333 -8.5 -112 -8.5zM308.999 432c-34.667 0 -60.333 -9.16699 -77 -27.5s-26.667 -48.833 -30 -91.5h205
c-1.33301 43.333 -9.5 74 -24.5 92s-39.5 27 -73.5 27zM107 751h391v-110h-391v110z" />
    <glyph glyph-name="Ebreve" unicode="&#x114;" horiz-adv-x="657" 
d="M335 809c-39.333 0 -72.499 4.33203 -99.499 12.999s-49.167 20.834 -66.5 36.501s-29.833 34.167 -37.5 55.5s-11.5 44.666 -11.5 69.999h112c0 -30.667 7.66699 -54 23 -70s42 -24 80 -24c39.333 0 66.5 8 81.5 24s22.5 39.333 22.5 70h113c0 -26 -4 -49.667 -12 -71
s-20.667 -39.666 -38 -54.999s-39.833 -27.333 -67.5 -36s-60.834 -13 -99.501 -13zM72.001 739.999h536v-133h-365v-168h332v-133h-332v-173h374v-133h-545v740z" />
    <glyph glyph-name="ebreve" unicode="&#x115;" horiz-adv-x="590" 
d="M316 -9c-186 0 -279.001 91.667 -279.001 275c0 93.333 23.333 163.833 70 211.5s116.334 71.5 209.001 71.5c158.667 0 238 -80.333 238 -241c0 -31.333 -3 -59 -9 -83h-342c2 -21.333 5.66699 -39 11 -53s13 -25 23 -33s22.833 -13.667 38.5 -17s34.5 -5 56.5 -5
c14.667 0 30.5 0.666992 47.5 2s34.167 3 51.5 5s34.333 4.5 51 7.5s32 6.16699 46 9.5l5 -119c-32 -9.33301 -67 -16.833 -105 -22.5s-75.333 -8.5 -112 -8.5zM308.999 432c-34.667 0 -60.333 -9.16699 -77 -27.5s-26.667 -48.833 -30 -91.5h205
c-1.33301 43.333 -9.5 74 -24.5 92s-39.5 27 -73.5 27zM303 614c-39.333 0 -72.667 4.16895 -100 12.502s-49.5 20.166 -66.5 35.499s-29.5 33.666 -37.5 54.999s-12 44.666 -12 69.999h112c0 -30.667 7.83301 -53.5 23.5 -68.5s42.5 -22.5 80.5 -22.5s64.833 7.5 80.5 22.5
s23.5 37.833 23.5 68.5h112c-0.666992 -26 -4.83398 -49.5 -12.501 -70.5s-20 -39.167 -37 -54.5s-39.167 -27.166 -66.5 -35.499s-60.666 -12.5 -99.999 -12.5z" />
    <glyph glyph-name="Edotaccent" unicode="&#x116;" horiz-adv-x="657" 
d="M336 802c-33.333 0 -57.166 7.00098 -71.499 21.001s-21.5 37 -21.5 69s7.16699 55.167 21.5 69.5s38.166 21.5 71.499 21.5s57 -7.33301 71 -22s21 -37.667 21 -69c0 -30.667 -7 -53.334 -21 -68.001s-37.667 -22 -71 -22zM72 740.001h536v-133h-365v-168h332v-133h-332
v-173h374v-133h-545v740z" />
    <glyph glyph-name="edotaccent" unicode="&#x117;" horiz-adv-x="590" 
d="M316 -9c-186 0 -279.001 91.667 -279.001 275c0 93.333 23.333 163.833 70 211.5s116.334 71.5 209.001 71.5c158.667 0 238 -80.333 238 -241c0 -31.333 -3 -59 -9 -83h-342c2 -21.333 5.66699 -39 11 -53s13 -25 23 -33s22.833 -13.667 38.5 -17s34.5 -5 56.5 -5
c14.667 0 30.5 0.666992 47.5 2s34.167 3 51.5 5s34.333 4.5 51 7.5s32 6.16699 46 9.5l5 -119c-32 -9.33301 -67 -16.833 -105 -22.5s-75.333 -8.5 -112 -8.5zM308.999 432c-34.667 0 -60.333 -9.16699 -77 -27.5s-26.667 -48.833 -30 -91.5h205
c-1.33301 43.333 -9.5 74 -24.5 92s-39.5 27 -73.5 27zM309 615c-33.333 0 -57.166 7 -71.499 21s-21.5 37 -21.5 69s7.16699 55 21.5 69s38.166 21 71.499 21c32.667 0 56.167 -7.33301 70.5 -22s21.5 -37.334 21.5 -68.001c0 -31.333 -7.16699 -54.166 -21.5 -68.499
s-37.833 -21.5 -70.5 -21.5z" />
    <glyph glyph-name="Eogonek" unicode="&#x118;" horiz-adv-x="657" 
d="M72 740l535.999 -0.000976562v-133h-365v-168h332v-133h-332v-173h374v-143c-44 -18.667 -75 -35.5 -93 -50.5s-27 -29.833 -27 -44.5c0 -16.667 11.667 -25 35 -25c9.33301 0 22.333 1.33301 39 4s32.334 6 47.001 10v-92c-26 -8 -55.333 -12 -88 -12
c-46 0 -81 7.83301 -105 23.5s-36 38.5 -36 68.5c0 23.333 7.66699 45.833 23 67.5s38 41.834 68 60.501h-408v740z" />
    <glyph glyph-name="eogonek" unicode="&#x119;" horiz-adv-x="591" 
d="M316 -9c-186 0 -279.002 91.667 -279.002 275c0 93.333 23.333 163.833 70 211.5s116.334 71.5 209.001 71.5c158.667 0 238 -80.333 238 -241c0 -31.333 -3 -59 -9 -83h-342c2 -21.333 5.66699 -39 11 -53s13 -25 23 -33s22.833 -13.667 38.5 -17s34.5 -5 56.5 -5
c14.667 0 30.5 0.666992 47.5 2s34.167 3 51.5 5s34.333 4.5 51 7.5s32 6.16699 46 9.5l5 -118v-10c-44 -18.667 -75 -35.5 -93 -50.5s-27 -29.833 -27 -44.5c0 -16.667 11.667 -25 35 -25c9.33301 0 22.333 1.33301 39 4s32.334 6 47.001 10v-92
c-26 -8 -55.333 -12 -88 -12c-46 0 -81 7.83301 -105 23.5s-36 38.5 -36 68.5c0 34.667 16.333 67 49 97c-6.66699 0 -13.167 -0.166992 -19.5 -0.5s-12.5 -0.5 -18.5 -0.5zM308.998 432c-34.667 0 -60.333 -9.16699 -77 -27.5s-26.667 -48.833 -30 -91.5h205
c-1.33301 43.333 -9.5 74 -24.5 92s-39.5 27 -73.5 27z" />
    <glyph glyph-name="Ecaron" unicode="&#x11a;" horiz-adv-x="657" 
d="M145 990l198 -77l197 77v-113l-199 -77l-196 77v113zM72 740h536v-133h-365v-168h332v-133h-332v-173h374v-133h-545v740z" />
    <glyph glyph-name="ecaron" unicode="&#x11b;" horiz-adv-x="590" 
d="M110 799l197 -77l198 77v-114l-199 -76l-196 76v114zM316 -9c-186 0 -279.001 91.667 -279.001 275c0 93.333 23.333 163.833 70 211.5s116.334 71.5 209.001 71.5c158.667 0 238 -80.333 238 -241c0 -31.333 -3 -59 -9 -83h-342c2 -21.333 5.66699 -39 11 -53
s13 -25 23 -33s22.833 -13.667 38.5 -17s34.5 -5 56.5 -5c14.667 0 30.5 0.666992 47.5 2s34.167 3 51.5 5s34.333 4.5 51 7.5s32 6.16699 46 9.5l5 -119c-32 -9.33301 -67 -16.833 -105 -22.5s-75.333 -8.5 -112 -8.5zM308.999 432c-34.667 0 -60.333 -9.16699 -77 -27.5
s-26.667 -48.833 -30 -91.5h205c-1.33301 43.333 -9.5 74 -24.5 92s-39.5 27 -73.5 27z" />
    <glyph glyph-name="Gcircumflex" unicode="&#x11c;" horiz-adv-x="701" 
d="M412 -12c-126.667 0 -220.5 31.332 -281.5 93.999s-91.5 158.334 -91.5 287.001s32 224.667 96 288s162 95 294 95c34 0 70 -2.16699 108 -6.5s72.333 -10.166 103 -17.499v-137c-43.333 7.33301 -81 12.833 -113 16.5s-60.333 5.5 -85 5.5
c-43.333 0 -79.666 -4.16699 -108.999 -12.5s-52.833 -22 -70.5 -41s-30.167 -44 -37.5 -75s-11 -69.5 -11 -115.5c0 -45.333 3.33301 -83.333 10 -114s18 -55.5 34 -74.5s37 -32.5 63 -40.5s58.333 -12 97 -12c10 0 21.5 0.333008 34.5 1s26.167 1.66699 39.5 3v244h157
v-352c-40 -10.667 -81.333 -19.334 -124 -26.001s-80.334 -10 -113.001 -10zM178 914.999l196 77l199 -77v-114l-198 77l-197 -77v114z" />
    <glyph glyph-name="gcircumflex" unicode="&#x11d;" horiz-adv-x="657" 
d="M145 725l196 77l199 -77v-113l-198 77l-197 -77v113zM291 -220c-38 0 -76.832 1.99902 -116.499 5.99902s-73.167 9.33301 -100.5 16l10 121c23.333 -5.33301 50.5 -10.166 81.5 -14.499s62.167 -6.5 93.5 -6.5c25.333 0 49 2.33301 71 7s41.167 12.5 57.5 23.5
s29.166 25.667 38.499 44s14 41.166 14 68.499v50h-8c-17.333 -28 -40 -48.333 -68 -61s-60.667 -19 -98 -19c-76 0 -133.167 20.5 -171.5 61.5s-57.5 104.167 -57.5 189.5c0 47.333 7 88.666 21 123.999s34 64.833 60 88.5s57.333 41.5 94 53.5s78 18 124 18
c16 0 32.5 -0.5 49.5 -1.5s35.833 -3.16699 56.5 -6.5s43.5 -7.83301 68.5 -13.5s53.833 -13.167 86.5 -22.5v-441c0 -53.333 -8.16699 -98.166 -24.5 -134.499s-38.5 -65.666 -66.5 -87.999s-60.5 -38.333 -97.5 -48s-76.167 -14.5 -117.5 -14.5zM315.001 134.999
c36.667 0 65 9.16504 85 27.498s30 47.5 30 87.5v174c-13.333 2.66699 -28.333 4.83398 -45 6.50098s-34.334 2.5 -53.001 2.5c-24 0 -44 -2.33301 -60 -7s-29 -13 -39 -25s-17.167 -27.833 -21.5 -47.5s-6.5 -44.5 -6.5 -74.5c0 -27.333 1.83301 -50.166 5.5 -68.499
s9.83398 -33 18.501 -44s20 -19 34 -24s31.333 -7.5 52 -7.5z" />
    <glyph glyph-name="Gbreve" unicode="&#x11e;" horiz-adv-x="701" 
d="M383 809c-39.333 0 -72.499 4.33203 -99.499 12.999s-49.167 20.834 -66.5 36.501s-29.833 34.167 -37.5 55.5s-11.5 44.666 -11.5 69.999h112c0 -30.667 7.66699 -54 23 -70s42 -24 80 -24c39.333 0 66.5 8 81.5 24s22.5 39.333 22.5 70h113c0 -26 -4 -49.667 -12 -71
s-20.667 -39.666 -38 -54.999s-39.833 -27.333 -67.5 -36s-60.834 -13 -99.501 -13zM412.001 -12.001c-126.667 0 -220.5 31.332 -281.5 93.999s-91.5 158.334 -91.5 287.001s32 224.667 96 288s162 95 294 95c34 0 70 -2.16699 108 -6.5s72.333 -10.166 103 -17.499v-137
c-43.333 7.33301 -81 12.833 -113 16.5s-60.333 5.5 -85 5.5c-43.333 0 -79.666 -4.16699 -108.999 -12.5s-52.833 -22 -70.5 -41s-30.167 -44 -37.5 -75s-11 -69.5 -11 -115.5c0 -45.333 3.33301 -83.333 10 -114s18 -55.5 34 -74.5s37 -32.5 63 -40.5s58.333 -12 97 -12
c10 0 21.5 0.333008 34.5 1s26.167 1.66699 39.5 3v244h157v-352c-40 -10.667 -81.333 -19.334 -124 -26.001s-80.334 -10 -113.001 -10z" />
    <glyph glyph-name="gbreve" unicode="&#x11f;" horiz-adv-x="657" 
d="M291 -220c-38 0 -76.832 1.99902 -116.499 5.99902s-73.167 9.33301 -100.5 16l10 121c23.333 -5.33301 50.5 -10.166 81.5 -14.499s62.167 -6.5 93.5 -6.5c25.333 0 49 2.33301 71 7s41.167 12.5 57.5 23.5s29.166 25.667 38.499 44s14 41.166 14 68.499v50h-8
c-17.333 -28 -40 -48.333 -68 -61s-60.667 -19 -98 -19c-76 0 -133.167 20.5 -171.5 61.5s-57.5 104.167 -57.5 189.5c0 47.333 7 88.666 21 123.999s34 64.833 60 88.5s57.333 41.5 94 53.5s78 18 124 18c16 0 32.5 -0.5 49.5 -1.5s35.833 -3.16699 56.5 -6.5
s43.5 -7.83301 68.5 -13.5s53.833 -13.167 86.5 -22.5v-441c0 -53.333 -8.16699 -98.166 -24.5 -134.499s-38.5 -65.666 -66.5 -87.999s-60.5 -38.333 -97.5 -48s-76.167 -14.5 -117.5 -14.5zM315.001 134.999c36.667 0 65 9.16504 85 27.498s30 47.5 30 87.5v174
c-13.333 2.66699 -28.333 4.83398 -45 6.50098s-34.334 2.5 -53.001 2.5c-24 0 -44 -2.33301 -60 -7s-29 -13 -39 -25s-17.167 -27.833 -21.5 -47.5s-6.5 -44.5 -6.5 -74.5c0 -27.333 1.83301 -50.166 5.5 -68.499s9.83398 -33 18.501 -44s20 -19 34 -24
s31.333 -7.5 52 -7.5zM333.001 613.997c-39.333 0 -72.667 4.16895 -100 12.502s-49.5 20.166 -66.5 35.499s-29.5 33.666 -37.5 54.999s-12 44.666 -12 69.999h112c0 -30.667 7.83301 -53.5 23.5 -68.5s42.5 -22.5 80.5 -22.5s64.833 7.5 80.5 22.5s23.5 37.833 23.5 68.5
h112c-0.666992 -26 -4.83398 -49.5 -12.501 -70.5s-20 -39.167 -37 -54.5s-39.167 -27.166 -66.5 -35.499s-60.666 -12.5 -99.999 -12.5z" />
    <glyph glyph-name="Gdotaccent" unicode="&#x120;" horiz-adv-x="701" 
d="M387 802c-33.333 0 -57.166 7.00098 -71.499 21.001s-21.5 37 -21.5 69s7.16699 55.167 21.5 69.5s38.166 21.5 71.499 21.5s57 -7.33301 71 -22s21 -37.667 21 -69c0 -30.667 -7 -53.334 -21 -68.001s-37.667 -22 -71 -22zM412 -11.999
c-126.667 0 -220.5 31.332 -281.5 93.999s-91.5 158.334 -91.5 287.001s32 224.667 96 288s162 95 294 95c34 0 70 -2.16699 108 -6.5s72.333 -10.166 103 -17.499v-137c-43.333 7.33301 -81 12.833 -113 16.5s-60.333 5.5 -85 5.5
c-43.333 0 -79.666 -4.16699 -108.999 -12.5s-52.833 -22 -70.5 -41s-30.167 -44 -37.5 -75s-11 -69.5 -11 -115.5c0 -45.333 3.33301 -83.333 10 -114s18 -55.5 34 -74.5s37 -32.5 63 -40.5s58.333 -12 97 -12c10 0 21.5 0.333008 34.5 1s26.167 1.66699 39.5 3v244h157
v-352c-40 -10.667 -81.333 -19.334 -124 -26.001s-80.334 -10 -113.001 -10z" />
    <glyph glyph-name="gdotaccent" unicode="&#x121;" horiz-adv-x="657" 
d="M291 -220c-38 0 -76.832 1.99902 -116.499 5.99902s-73.167 9.33301 -100.5 16l10 121c23.333 -5.33301 50.5 -10.166 81.5 -14.499s62.167 -6.5 93.5 -6.5c25.333 0 49 2.33301 71 7s41.167 12.5 57.5 23.5s29.166 25.667 38.499 44s14 41.166 14 68.499v50h-8
c-17.333 -28 -40 -48.333 -68 -61s-60.667 -19 -98 -19c-76 0 -133.167 20.5 -171.5 61.5s-57.5 104.167 -57.5 189.5c0 47.333 7 88.666 21 123.999s34 64.833 60 88.5s57.333 41.5 94 53.5s78 18 124 18c16 0 32.5 -0.5 49.5 -1.5s35.833 -3.16699 56.5 -6.5
s43.5 -7.83301 68.5 -13.5s53.833 -13.167 86.5 -22.5v-441c0 -53.333 -8.16699 -98.166 -24.5 -134.499s-38.5 -65.666 -66.5 -87.999s-60.5 -38.333 -97.5 -48s-76.167 -14.5 -117.5 -14.5zM315.001 134.999c36.667 0 65 9.16504 85 27.498s30 47.5 30 87.5v174
c-13.333 2.66699 -28.333 4.83398 -45 6.50098s-34.334 2.5 -53.001 2.5c-24 0 -44 -2.33301 -60 -7s-29 -13 -39 -25s-17.167 -27.833 -21.5 -47.5s-6.5 -44.5 -6.5 -74.5c0 -27.333 1.83301 -50.166 5.5 -68.499s9.83398 -33 18.501 -44s20 -19 34 -24
s31.333 -7.5 52 -7.5zM335.001 614.997c-33.333 0 -57.166 7 -71.499 21s-21.5 37 -21.5 69s7.16699 55 21.5 69s38.166 21 71.499 21c32.667 0 56.167 -7.33301 70.5 -22s21.5 -37.334 21.5 -68.001c0 -31.333 -7.16699 -54.166 -21.5 -68.499s-37.833 -21.5 -70.5 -21.5z
" />
    <glyph glyph-name="Gcommaaccent" unicode="&#x122;" horiz-adv-x="701" 
d="M298 -70h172l-88 -150h-127zM412 -12c-126.667 0 -220.5 31.332 -281.5 93.999s-91.5 158.334 -91.5 287.001s32 224.667 96 288s162 95 294 95c34 0 70 -2.16699 108 -6.5s72.333 -10.166 103 -17.499v-137c-43.333 7.33301 -81 12.833 -113 16.5s-60.333 5.5 -85 5.5
c-43.333 0 -79.666 -4.16699 -108.999 -12.5s-52.833 -22 -70.5 -41s-30.167 -44 -37.5 -75s-11 -69.5 -11 -115.5c0 -45.333 3.33301 -83.333 10 -114s18 -55.5 34 -74.5s37 -32.5 63 -40.5s58.333 -12 97 -12c10 0 21.5 0.333008 34.5 1s26.167 1.66699 39.5 3v244h157
v-352c-40 -10.667 -81.333 -19.334 -124 -26.001s-80.334 -10 -113.001 -10z" />
    <glyph glyph-name="gcommaaccent" unicode="&#x123;" horiz-adv-x="657" 
d="M487 780l-43 -150h-171l88 150h126zM291 -220c-38 0 -76.832 1.99902 -116.499 5.99902s-73.167 9.33301 -100.5 16l10 121c23.333 -5.33301 50.5 -10.166 81.5 -14.499s62.167 -6.5 93.5 -6.5c25.333 0 49 2.33301 71 7s41.167 12.5 57.5 23.5s29.166 25.667 38.499 44
s14 41.166 14 68.499v50h-8c-17.333 -28 -40 -48.333 -68 -61s-60.667 -19 -98 -19c-76 0 -133.167 20.5 -171.5 61.5s-57.5 104.167 -57.5 189.5c0 47.333 7 88.666 21 123.999s34 64.833 60 88.5s57.333 41.5 94 53.5s78 18 124 18c16 0 32.5 -0.5 49.5 -1.5
s35.833 -3.16699 56.5 -6.5s43.5 -7.83301 68.5 -13.5s53.833 -13.167 86.5 -22.5v-441c0 -53.333 -8.16699 -98.166 -24.5 -134.499s-38.5 -65.666 -66.5 -87.999s-60.5 -38.333 -97.5 -48s-76.167 -14.5 -117.5 -14.5zM315.001 134.999c36.667 0 65 9.16504 85 27.498
s30 47.5 30 87.5v174c-13.333 2.66699 -28.333 4.83398 -45 6.50098s-34.334 2.5 -53.001 2.5c-24 0 -44 -2.33301 -60 -7s-29 -13 -39 -25s-17.167 -27.833 -21.5 -47.5s-6.5 -44.5 -6.5 -74.5c0 -27.333 1.83301 -50.166 5.5 -68.499s9.83398 -33 18.501 -44
s20 -19 34 -24s31.333 -7.5 52 -7.5z" />
    <glyph glyph-name="Hcircumflex" unicode="&#x124;" horiz-adv-x="814" 
d="M72 740h171v-294h329v294h170v-740h-170v313h-329v-313h-171v740zM208 915l196 77l199 -77v-114l-198 77l-197 -77v114z" />
    <glyph glyph-name="hcircumflex" unicode="&#x125;" horiz-adv-x="658" 
d="M144 930l196 77l199 -77v-113l-198 77l-197 -77v113zM61 808h167.001v-325c46 22 86.667 38.667 122 50s67.666 17 96.999 17c48 0 85.5 -13 112.5 -39s40.5 -63 40.5 -111v-400h-167v344c0 26.667 -5 45.667 -15 57s-25.667 17 -47 17
c-17.333 0 -38.5 -3.33301 -63.5 -10s-51.5 -15.667 -79.5 -27v-381h-167v808z" />
    <glyph glyph-name="Hbar" unicode="&#x126;" horiz-adv-x="832" 
d="M6 619h74v121h171v-121h329v121h170v-121h78v-80h-78v-539h-170v313h-329v-313h-171v539h-74v80zM580 446v93h-329v-93h329z" />
    <glyph glyph-name="hbar" unicode="&#x127;" horiz-adv-x="658" 
d="M-25 721h87.001v87h167v-87h157v-95h-157v-143c46 22 86.667 38.667 122 50s67.666 17 96.999 17c48 0 85.5 -13 112.5 -39s40.5 -63 40.5 -111v-400h-167v344c0 26.667 -5 45.667 -15 57s-25.667 17 -47 17c-17.333 0 -38.5 -3.33301 -63.5 -10s-51.5 -15.667 -79.5 -27
v-381h-167v626h-87v95z" />
    <glyph glyph-name="Itilde" unicode="&#x128;" horiz-adv-x="315" 
d="M72 740h171v-740h-171v740zM-69 857c22 39.333 46.999 68.667 74.999 88s55 29 81 29c16.667 0 33.167 -2 49.5 -6s32.5 -8.33301 48.5 -13s32 -9 48 -13s32.333 -6 49 -6c15.333 0 30.333 2.5 45 7.5s31.334 14.833 50.001 29.5l23 -31
c-22 -39.333 -47.167 -68.833 -75.5 -88.5s-55.833 -29.5 -82.5 -29.5c-16.667 0 -33 2 -49 6s-32 8.33301 -48 13s-32.167 9 -48.5 13s-32.5 6 -48.5 6c-15.333 0 -30.5 -2.5 -45.5 -7.5s-31.167 -14.5 -48.5 -28.5z" />
    <glyph glyph-name="itilde" unicode="&#x129;" horiz-adv-x="292" 
d="M-71 666c20.667 38.667 44.1689 67.5 70.502 86.5s52.166 28.5 77.499 28.5c16 0 31.5 -2.16699 46.5 -6.5s30 -9.16602 45 -14.499s30.167 -10.166 45.5 -14.499s31 -6.5 47 -6.5c13.333 0 26.666 2.66699 39.999 8s28.666 15.333 45.999 30l25 -34
c-21.333 -38.667 -45.333 -67.5 -72 -86.5s-52.334 -28.5 -77.001 -28.5c-15.333 0 -30.666 2.16699 -45.999 6.5s-30.666 9.16602 -45.999 14.499s-30.5 10.166 -45.5 14.499s-30.167 6.5 -45.5 6.5c-14 0 -28 -2.66699 -42 -8s-29 -15.333 -45 -30zM63.002 540h167v-540
h-167v540z" />
    <glyph glyph-name="Imacron" unicode="&#x12a;" horiz-adv-x="315" 
d="M72 740h171v-740h-171v740zM-33 953h389v-112h-389v112z" />
    <glyph glyph-name="imacron" unicode="&#x12b;" horiz-adv-x="292" 
d="M63 540h167v-540h-167v540zM-47 751h391v-110h-391v110z" />
    <glyph glyph-name="Ibreve" unicode="&#x12c;" horiz-adv-x="315" 
d="M72 740h171v-740h-171v740zM157 809c-39.333 0 -72.499 4.33203 -99.499 12.999s-49.167 20.834 -66.5 36.501s-29.833 34.167 -37.5 55.5s-11.5 44.666 -11.5 69.999h112c0 -30.667 7.66699 -54 23 -70s42 -24 80 -24c39.333 0 66.5 8 81.5 24s22.5 39.333 22.5 70h113
c0 -26 -4 -49.667 -12 -71s-20.667 -39.666 -38 -54.999s-39.833 -27.333 -67.5 -36s-60.834 -13 -99.501 -13z" />
    <glyph glyph-name="ibreve" unicode="&#x12d;" horiz-adv-x="292" 
d="M148 614c-32 0 -59.1689 4.16895 -81.502 12.502s-40.666 20.166 -54.999 35.499s-24.833 33.666 -31.5 54.999s-10 44.666 -10 69.999h91c0 -30.667 6.5 -53.5 19.5 -68.5s35.5 -22.5 67.5 -22.5c32.667 0 55.5 7.5 68.5 22.5s19.5 37.833 19.5 68.5h90
c0 -26 -3.33301 -49.5 -10 -70.5s-17.167 -39.167 -31.5 -54.5s-32.666 -27.166 -54.999 -35.499s-49.5 -12.5 -81.5 -12.5zM62.998 540.002h167v-540h-167v540z" />
    <glyph glyph-name="Iogonek" unicode="&#x12e;" horiz-adv-x="315" 
d="M72 740l170.999 -0.000976562v-750c-44 -18.667 -75 -35.5 -93 -50.5s-27 -29.833 -27 -44.5c0 -16.667 11.667 -25 35 -25c9.33301 0 22.333 1.33301 39 4s32.334 6 47.001 10v-92c-26 -8 -55.333 -12 -88 -12c-46 0 -81 7.83301 -105 23.5s-36 38.5 -36 68.5
c0 23.333 7.66699 45.833 23 67.5s38 41.834 68 60.501h-34v740z" />
    <glyph glyph-name="iogonek" unicode="&#x12f;" horiz-adv-x="290" 
d="M62 540l166.999 -0.000976562v-550c-44 -18.667 -75 -35.5 -93 -50.5s-27 -29.833 -27 -44.5c0 -16.667 11.667 -25 35 -25c9.33301 0 22.333 1.33301 39 4s32.334 6 47.001 10v-92c-26 -8 -55.333 -12 -88 -12c-46 0 -81 7.83301 -105 23.5s-36 38.5 -36 68.5
c0 23.333 7.66699 45.833 23 67.5s38 41.834 68 60.501h-30v540zM144.999 617.999c-32.667 0 -55.999 7 -69.999 21s-21 36.667 -21 68s7 54 21 68s37.333 21 70 21c33.333 0 57.166 -7.33301 71.499 -22s21.5 -37 21.5 -67s-7 -52.333 -21 -67s-38 -22 -72 -22z" />
    <glyph glyph-name="Idotaccent" unicode="&#x130;" horiz-adv-x="315" 
d="M72 740h171v-740h-171v740zM159 802c-33.333 0 -57.166 7.00098 -71.499 21.001s-21.5 37 -21.5 69s7.16699 55.167 21.5 69.5s38.166 21.5 71.499 21.5s57 -7.33301 71 -22s21 -37.667 21 -69c0 -30.667 -7 -53.334 -21 -68.001s-37.667 -22 -71 -22z" />
    <glyph glyph-name="dotlessi" unicode="&#x131;" horiz-adv-x="290" 
d="M62 540h167v-540h-167v540z" />
    <glyph glyph-name="IJ" unicode="&#x132;" horiz-adv-x="630" 
d="M72 740h171v-740h-171v740zM313 -158c14.667 32.667 26.833 62.999 36.5 90.999s17.5 55.667 23.5 83s10.167 55.333 12.5 84s3.5 60.334 3.5 95.001v545h171v-558c0 -34.667 -2.33301 -67.167 -7 -97.5s-12.5 -60.833 -23.5 -91.5s-25.167 -62.167 -42.5 -94.5
s-39 -67.5 -65 -105.5z" />
    <glyph glyph-name="ij" unicode="&#x133;" horiz-adv-x="578" 
d="M145 618c-32.667 0 -55.999 7 -69.999 21s-21 36.667 -21 68s7 54 21 68s37.333 21 70 21c33.333 0 57.166 -7.33301 71.499 -22s21.5 -37 21.5 -67s-7 -52.333 -21 -67s-38 -22 -72 -22zM62.001 540h167v-540h-167v540zM433.001 618c-32.667 0 -56 7 -70 21
s-21 36.667 -21 68s7 54 21 68s37.333 21 70 21c33.333 0 57 -7.33301 71 -22s21 -37 21 -67s-7 -52.333 -21 -67s-37.667 -22 -71 -22zM305.001 -197c8.66699 26 16 51.499 22 76.499s11 51 15 78s6.83301 56.333 8.5 88s2.5 67.5 2.5 107.5v34v59v74
c0 26.667 -0.166992 53.334 -0.5 80.001l-1 76.5c-0.333008 24.333 -0.5 45.5 -0.5 63.5h166v-464c-3.33301 -54 -13 -105.833 -29 -155.5s-36.667 -96.5 -62 -140.5z" />
    <glyph glyph-name="Jcircumflex" unicode="&#x134;" horiz-adv-x="314" 
d="M-2 -158c14.667 32.667 26.833 62.999 36.5 90.999s17.5 55.667 23.5 83s10.167 55.333 12.5 84s3.5 60.334 3.5 95.001v545h171v-558c0 -34.667 -2.33301 -67.167 -7 -97.5s-12.5 -60.833 -23.5 -91.5s-25.167 -62.167 -42.5 -94.5s-39 -67.5 -65 -105.5z
M-35.001 914.999l196 77l199 -77v-114l-198 77l-197 -77v114z" />
    <glyph glyph-name="jcircumflex" unicode="&#x135;" horiz-adv-x="288" 
d="M-44 726l185 77l188 -77v-113l-186 77l-187 -77v113zM14 -199c8.66699 28.667 16.167 55.668 22.5 81.001s11.5 51.666 15.5 78.999s7 57.5 9 90.5s3 71.5 3 115.5v58c0 26.667 -0.166992 57.167 -0.5 91.5s-0.833008 71 -1.5 110l-2 113.5h167v-465
c-4.66699 -54.667 -14.5 -106 -29.5 -154s-35.167 -95 -60.5 -141z" />
    <glyph glyph-name="Kcommaaccent" unicode="&#x136;" horiz-adv-x="728" 
d="M269 -70h172l-88 -150h-127zM72 740h171v-300h106l176 300h190l-204 -326l-47 -26v-8l50 -26l219 -354h-190l-183 307h-117v-307h-171v740z" />
    <glyph glyph-name="kcommaaccent" unicode="&#x137;" horiz-adv-x="615" 
d="M238 -70h172l-88 -150h-127zM61 808h167v-477h60l135 209h184l-180 -252l-24 -8v-4l25 -8l196 -268h-183l-155 225h-58v-225h-167v808z" />
    <glyph glyph-name="kgreenlandic" unicode="&#x138;" horiz-adv-x="615" 
d="M62 540h167v-209h70l123 209h183l-168 -253l-24 -7v-4l24 -7l185 -269h-183l-142 225h-68v-225h-167v540z" />
    <glyph glyph-name="Lacute" unicode="&#x139;" horiz-adv-x="573" 
d="M98 810l68 171h171l-117 -179zM72 740h171v-608h317v-132h-488v740z" />
    <glyph glyph-name="lacute" unicode="&#x13a;" horiz-adv-x="291" 
d="M81 842l66 188h171l-117 -197zM62 808h167v-808h-167v808z" />
    <glyph glyph-name="Lcommaaccent" unicode="&#x13b;" horiz-adv-x="573" 
d="M217 -70h172l-88 -150h-127zM72 740h171v-608h317v-132h-488v740z" />
    <glyph glyph-name="lcommaaccent" unicode="&#x13c;" horiz-adv-x="291" 
d="M66 -70h172l-88 -150h-127zM62 808h167v-808h-167v808z" />
    <glyph glyph-name="Lcaron" unicode="&#x13d;" horiz-adv-x="583" 
d="M409 788h131l-42 -228h-89v228zM72 740h171v-608h317v-132h-488v740z" />
    <glyph glyph-name="lcaron" unicode="&#x13e;" horiz-adv-x="292" 
d="M283 808h131l-42 -228h-89v228zM62 808h167v-808h-167v808z" />
    <glyph glyph-name="Ldot" unicode="&#x13f;" horiz-adv-x="585" 
d="M72 740h171v-608h317v-132h-488v740zM472 298c-33.333 0 -57.166 7 -71.499 21s-21.5 37 -21.5 69s7.16699 55 21.5 69s38.166 21 71.499 21c32.667 0 56.167 -7.16699 70.5 -21.5s21.5 -37.166 21.5 -68.499c0 -30.667 -7.16699 -53.334 -21.5 -68.001
s-37.833 -22 -70.5 -22z" />
    <glyph glyph-name="ldot" unicode="&#x140;" horiz-adv-x="454" 
d="M62 808h167v-808h-167v808zM373 280c-33.333 0 -57.166 7 -71.499 21s-21.5 37 -21.5 69s7.16699 55 21.5 69s38.166 21 71.499 21c32.667 0 56.167 -7.16699 70.5 -21.5s21.5 -37.166 21.5 -68.499c0 -30.667 -7.16699 -53.334 -21.5 -68.001s-37.833 -22 -70.5 -22z
" />
    <glyph glyph-name="Lslash" unicode="&#x141;" horiz-adv-x="592" 
d="M12 350l79 40v350h171v-263l137 70v-124l-137 -70v-221h317v-132h-488v265l-79 -40v125z" />
    <glyph glyph-name="lslash" unicode="&#x142;" horiz-adv-x="398" 
d="M23 367l93 46v395h167v-311l101 51v-123l-101 -51v-374h-167v290l-93 -46v123z" />
    <glyph glyph-name="Nacute" unicode="&#x143;" horiz-adv-x="812" 
d="M320 810l68 171h171l-117 -179zM72 740h137l314 -402l59 -85h9v487h149v-740h-137l-308 396l-65 91h-8v-487h-150v740z" />
    <glyph glyph-name="nacute" unicode="&#x144;" horiz-adv-x="658" 
d="M274 617l66 188h171l-117 -197zM62 540l139.999 0.000976562l9 -62h7c50 25.333 93.167 43.666 129.5 54.999s69.833 17 100.5 17c48 0 85.333 -13 112 -39s40 -63 40 -111v-400h-167v344c0 26.667 -5 45.667 -15 57s-25.667 17 -47 17
c-18.667 0 -40.667 -3.33301 -66 -10s-50.666 -15.667 -75.999 -27v-381h-167v540z" />
    <glyph glyph-name="Ncommaaccent" unicode="&#x145;" horiz-adv-x="812" 
d="M331 -70h172l-88 -150h-127zM72 740h137l314 -402l59 -85h9v487h149v-740h-137l-308 396l-65 91h-8v-487h-150v740z" />
    <glyph glyph-name="ncommaaccent" unicode="&#x146;" horiz-adv-x="658" 
d="M251 -70h172l-88 -150h-127zM62 540l139.999 0.000976562l9 -62h7c50 25.333 93.167 43.666 129.5 54.999s69.833 17 100.5 17c48 0 85.333 -13 112 -39s40 -63 40 -111v-400h-167v344c0 26.667 -5 45.667 -15 57s-25.667 17 -47 17c-18.667 0 -40.667 -3.33301 -66 -10
s-50.666 -15.667 -75.999 -27v-381h-167v540z" />
    <glyph glyph-name="Ncaron" unicode="&#x147;" horiz-adv-x="812" 
d="M210 990l198 -77l197 77v-113l-199 -77l-196 77v113zM72 740h137l314 -402l59 -85h9v487h149v-740h-137l-308 396l-65 91h-8v-487h-150v740z" />
    <glyph glyph-name="ncaron" unicode="&#x148;" horiz-adv-x="658" 
d="M126 799l197 -77l198 77v-114l-199 -76l-196 76v114zM62 540l139.999 0.000976562l9 -62h7c50 25.333 93.167 43.666 129.5 54.999s69.833 17 100.5 17c48 0 85.333 -13 112 -39s40 -63 40 -111v-400h-167v344c0 26.667 -5 45.667 -15 57s-25.667 17 -47 17
c-18.667 0 -40.667 -3.33301 -66 -10s-50.666 -15.667 -75.999 -27v-381h-167v540z" />
    <glyph glyph-name="napostrophe" unicode="&#x149;" horiz-adv-x="756" 
d="M156 808v-4l-44 -224h-89v228h133zM160 540l139.999 0.000976562l9 -62h7c50 25.333 93.167 43.666 129.5 54.999s69.833 17 100.5 17c48 0 85.333 -13 112 -39s40 -63 40 -111v-400h-167v344c0 26.667 -5 45.667 -15 57s-25.667 17 -47 17
c-18.667 0 -40.667 -3.33301 -66 -10s-50.666 -15.667 -75.999 -27v-381h-167v540z" />
    <glyph glyph-name="Eng" unicode="&#x14a;" horiz-adv-x="810" 
d="M503 -171c20 42 35.4971 80.167 46.4971 114.5s18.5 67.5 22.5 99.5l-275 353l-65 92h-8v-488h-152v740h133l316 -403l59 -85h9v488h151v-624c0 -20.667 -3.16699 -44.5 -9.5 -71.5s-15.166 -55 -26.499 -84s-24.666 -58 -39.999 -87s-31.666 -55.833 -48.999 -80.5z" />
    <glyph glyph-name="eng" unicode="&#x14b;" horiz-adv-x="657" 
d="M385 -201c8 25.333 15.001 50.502 21.001 75.502s11 51 15 78s7 55.667 9 86s3 63.5 3 99.5v174c0 17.333 -0.833008 31.666 -2.5 42.999s-4.83398 20.166 -9.50098 26.499s-11 10.833 -19 13.5s-18 4 -30 4c-20.667 0 -43.167 -2.33301 -67.5 -7
s-49.5 -11.667 -75.5 -21v-371h-167v540h140l9 -60h4c49.333 24 92.5 41.667 129.5 53s71.5 17 103.5 17c48 0 85.333 -13 112 -39s40 -63 40 -111v-334c-4 -50.667 -13.667 -101.167 -29 -151.5s-34.333 -94.833 -57 -133.5z" />
    <glyph glyph-name="Omacron" unicode="&#x14c;" horiz-adv-x="792" 
d="M200 953h389v-112h-389v112zM396 -10c-116.667 0 -205.334 31.999 -266.001 95.999s-91 158.333 -91 283c0 126 30.333 221 91 285s149.334 96 266.001 96c116 0 204.5 -32.167 265.5 -96.5s91.5 -159.166 91.5 -284.499c0 -124.667 -30.5 -219 -91.5 -283
s-149.5 -96 -265.5 -96zM396 126.999c33.333 0 61.6709 4.16699 85.0039 12.5s42.166 22 56.499 41s24.833 43.833 31.5 74.5s10 68.667 10 114c0 44.667 -3.5 82.5 -10.5 113.5s-17.833 56.167 -32.5 75.5s-33.5 33.333 -56.5 42s-50.833 13 -83.5 13
s-60.667 -4.33301 -84 -13s-42.333 -22.5 -57 -41.5s-25.334 -44.167 -32.001 -75.5s-10 -69.333 -10 -114c0 -45.333 3.33301 -83.333 10 -114s17.167 -55.5 31.5 -74.5s33.166 -32.667 56.499 -41s51.666 -12.5 84.999 -12.5z" />
    <glyph glyph-name="omacron" unicode="&#x14d;" horiz-adv-x="647" 
d="M128 751h391v-110h-391v110zM324 -10c-94 0 -165.667 23.833 -215 71.5s-74 117.167 -74 208.5s24.667 160.833 74 208.5s121 71.5 215 71.5s165.333 -23.833 214 -71.5s73 -117.167 73 -208.5s-24.333 -160.833 -73 -208.5s-120 -71.5 -214 -71.5zM324 117
c22 0 40.667 2.5 56 7.5s27.666 13.5 36.999 25.5s16.166 27.833 20.499 47.5s6.5 43.834 6.5 72.501s-2.16699 52.667 -6.5 72s-11.166 35 -20.499 47s-21.666 20.5 -36.999 25.5s-34 7.5 -56 7.5s-40.667 -2.5 -56 -7.5s-27.833 -13.5 -37.5 -25.5
s-16.667 -27.667 -21 -47s-6.5 -43.333 -6.5 -72s2.16699 -52.834 6.5 -72.501s11.333 -35.5 21 -47.5s22.167 -20.5 37.5 -25.5s34 -7.5 56 -7.5z" />
    <glyph glyph-name="Obreve" unicode="&#x14e;" horiz-adv-x="792" 
d="M394 809c-39.333 0 -72.499 4.33203 -99.499 12.999s-49.167 20.834 -66.5 36.501s-29.833 34.167 -37.5 55.5s-11.5 44.666 -11.5 69.999h112c0 -30.667 7.66699 -54 23 -70s42 -24 80 -24c39.333 0 66.5 8 81.5 24s22.5 39.333 22.5 70h113c0 -26 -4 -49.667 -12 -71
s-20.667 -39.666 -38 -54.999s-39.833 -27.333 -67.5 -36s-60.834 -13 -99.501 -13zM396.001 -10.001c-116.667 0 -205.334 31.999 -266.001 95.999s-91 158.333 -91 283c0 126 30.333 221 91 285s149.334 96 266.001 96c116 0 204.5 -32.167 265.5 -96.5
s91.5 -159.166 91.5 -284.499c0 -124.667 -30.5 -219 -91.5 -283s-149.5 -96 -265.5 -96zM396.001 126.998c33.333 0 61.6709 4.16699 85.0039 12.5s42.166 22 56.499 41s24.833 43.833 31.5 74.5s10 68.667 10 114c0 44.667 -3.5 82.5 -10.5 113.5
s-17.833 56.167 -32.5 75.5s-33.5 33.333 -56.5 42s-50.833 13 -83.5 13s-60.667 -4.33301 -84 -13s-42.333 -22.5 -57 -41.5s-25.334 -44.167 -32.001 -75.5s-10 -69.333 -10 -114c0 -45.333 3.33301 -83.333 10 -114s17.167 -55.5 31.5 -74.5s33.166 -32.667 56.499 -41
s51.666 -12.5 84.999 -12.5z" />
    <glyph glyph-name="obreve" unicode="&#x14f;" horiz-adv-x="647" 
d="M324 -10c-94 0 -165.667 23.833 -215 71.5s-74 117.167 -74 208.5s24.667 160.833 74 208.5s121 71.5 215 71.5s165.333 -23.833 214 -71.5s73 -117.167 73 -208.5s-24.333 -160.833 -73 -208.5s-120 -71.5 -214 -71.5zM324 117c22 0 40.667 2.5 56 7.5
s27.666 13.5 36.999 25.5s16.166 27.833 20.499 47.5s6.5 43.834 6.5 72.501s-2.16699 52.667 -6.5 72s-11.166 35 -20.499 47s-21.666 20.5 -36.999 25.5s-34 7.5 -56 7.5s-40.667 -2.5 -56 -7.5s-27.833 -13.5 -37.5 -25.5s-16.667 -27.667 -21 -47s-6.5 -43.333 -6.5 -72
s2.16699 -52.834 6.5 -72.501s11.333 -35.5 21 -47.5s22.167 -20.5 37.5 -25.5s34 -7.5 56 -7.5zM323 614c-39.333 0 -72.667 4.16895 -100 12.502s-49.5 20.166 -66.5 35.499s-29.5 33.666 -37.5 54.999s-12 44.666 -12 69.999h112c0 -30.667 7.83301 -53.5 23.5 -68.5
s42.5 -22.5 80.5 -22.5s64.833 7.5 80.5 22.5s23.5 37.833 23.5 68.5h112c-0.666992 -26 -4.83398 -49.5 -12.501 -70.5s-20 -39.167 -37 -54.5s-39.167 -27.166 -66.5 -35.499s-60.666 -12.5 -99.999 -12.5z" />
    <glyph glyph-name="Ohungarumlaut" unicode="&#x150;" horiz-adv-x="792" 
d="M396 -10c-116.667 0 -205.334 31.999 -266.001 95.999s-91 158.333 -91 283c0 126 30.333 221 91 285s149.334 96 266.001 96c116 0 204.5 -32.167 265.5 -96.5s91.5 -159.166 91.5 -284.499c0 -124.667 -30.5 -219 -91.5 -283s-149.5 -96 -265.5 -96zM396 126.999
c33.333 0 61.6709 4.16699 85.0039 12.5s42.166 22 56.499 41s24.833 43.833 31.5 74.5s10 68.667 10 114c0 44.667 -3.5 82.5 -10.5 113.5s-17.833 56.167 -32.5 75.5s-33.5 33.333 -56.5 42s-50.833 13 -83.5 13s-60.667 -4.33301 -84 -13s-42.333 -22.5 -57 -41.5
s-25.334 -44.167 -32.001 -75.5s-10 -69.333 -10 -114c0 -45.333 3.33301 -83.333 10 -114s17.167 -55.5 31.5 -74.5s33.166 -32.667 56.499 -41s51.666 -12.5 84.999 -12.5zM217.005 810.999l67 167h162l-117 -178zM424.005 810.999l66 167h163l-117 -178z" />
    <glyph glyph-name="ohungarumlaut" unicode="&#x151;" horiz-adv-x="647" 
d="M153 621l65 186h164l-118 -196zM370 621l66 186h163l-118 -196zM324 -10c-94 0 -165.667 23.833 -215 71.5s-74 117.167 -74 208.5s24.667 160.833 74 208.5s121 71.5 215 71.5s165.333 -23.833 214 -71.5s73 -117.167 73 -208.5s-24.333 -160.833 -73 -208.5
s-120 -71.5 -214 -71.5zM324 117c22 0 40.667 2.5 56 7.5s27.666 13.5 36.999 25.5s16.166 27.833 20.499 47.5s6.5 43.834 6.5 72.501s-2.16699 52.667 -6.5 72s-11.166 35 -20.499 47s-21.666 20.5 -36.999 25.5s-34 7.5 -56 7.5s-40.667 -2.5 -56 -7.5
s-27.833 -13.5 -37.5 -25.5s-16.667 -27.667 -21 -47s-6.5 -43.333 -6.5 -72s2.16699 -52.834 6.5 -72.501s11.333 -35.5 21 -47.5s22.167 -20.5 37.5 -25.5s34 -7.5 56 -7.5z" />
    <glyph glyph-name="OE" unicode="&#x152;" horiz-adv-x="1094" 
d="M400 -9c-116.667 0 -206.167 31.999 -268.5 95.999s-93.5 158 -93.5 282c0 125.333 31 220 93 284s151.667 96 269 96c23.333 0 44.833 -0.666992 64.5 -2s38.5 -3.66602 56.5 -6.99902h522v-133h-352v-168h323v-131h-323v-175h362v-133h-532c-38 -6 -78.333 -9 -121 -9z
M404 127.999c23.333 0 44.668 0.333984 64.001 1.00098s37 2.66699 53 6v469c-16.667 3.33301 -34.5 5.5 -53.5 6.5s-40.167 1.5 -63.5 1.5c-34.667 0 -64.167 -4.33301 -88.5 -13s-44.166 -22.5 -59.499 -41.5s-26.5 -44 -33.5 -75s-10.5 -68.833 -10.5 -113.5
c0 -45.333 3.33301 -83.333 10 -114s17.667 -55.334 33 -74.001s35.166 -32.167 59.499 -40.5s54.166 -12.5 89.499 -12.5z" />
    <glyph glyph-name="oe" unicode="&#x153;" horiz-adv-x="999" 
d="M725 -9c-91.333 0 -156.667 25.667 -196 77h-8c-42 -52 -107.667 -78 -197 -78c-94 0 -165.667 23.833 -215 71.5s-74 117.167 -74 208.5s24.667 160.833 74 208.5s121 71.5 215 71.5c45.333 0 84.666 -7 117.999 -21s60 -34 80 -60l8 1c20 25.333 46.333 44.833 79 58.5
s71.334 20.5 116.001 20.5c78.667 0 137.834 -20 177.501 -60s59.5 -100 59.5 -180c0 -16.667 -0.5 -31.5 -1.5 -44.5s-3.16699 -25.833 -6.5 -38.5h-343c2.66699 -41.333 13.667 -69.833 33 -85.5s51 -23.5 95 -23.5c14.667 0 30.667 0.5 48 1.5s34.666 2.5 51.999 4.5
s34.5 4.5 51.5 7.5s32.5 6.5 46.5 10.5l5 -119c-32 -9.33301 -67.167 -16.833 -105.5 -22.5s-75.5 -8.5 -111.5 -8.5zM323.999 117c22 0 40.667 2.5 56 7.5s27.666 13.5 36.999 25.5s16.166 27.833 20.499 47.5s6.5 43.834 6.5 72.501s-2.16699 52.667 -6.5 72
s-11.166 35 -20.499 47s-21.666 20.5 -36.999 25.5s-34 7.5 -56 7.5s-40.667 -2.5 -56 -7.5s-27.833 -13.5 -37.5 -25.5s-16.667 -27.667 -21 -47s-6.5 -43.333 -6.5 -72s2.16699 -52.834 6.5 -72.501s11.333 -35.5 21 -47.5s22.167 -20.5 37.5 -25.5s34 -7.5 56 -7.5z
M814.999 311c-1.33301 44 -9.33301 75.167 -24 93.5s-39 27.5 -73 27.5c-35.333 0 -61.5 -9.33301 -78.5 -28s-26.833 -49.667 -29.5 -93h205z" />
    <glyph glyph-name="Racute" unicode="&#x154;" horiz-adv-x="716" 
d="M376 247c-11.333 -0.666992 -23.168 -1.16406 -35.501 -1.49707s-24.833 -0.5 -37.5 -0.5h-12c-5.33301 0 -11 0.166992 -17 0.5l-17.5 1c-5.66699 0.333008 -10.167 0.5 -13.5 0.5v-247h-171v735c76.667 10 150.334 15 221.001 15c66.667 0 124 -4.83301 172 -14.5
s87.5 -24.834 118.5 -45.501s53.833 -46.834 68.5 -78.501s22 -69.834 22 -114.501c0 -108 -49.333 -181 -148 -219l180 -278h-190zM325.998 376.003c32.667 0 60.1689 1.99902 82.502 5.99902s40.333 10.833 54 20.5s23.5 22.167 29.5 37.5s9 34.333 9 57
c0 22 -2.83301 40.667 -8.5 56s-15.334 27.833 -29.001 37.5s-31.334 16.5 -53.001 20.5s-48.5 6 -80.5 6c-12.667 0 -27.5 -0.666992 -44.5 -2s-31.167 -2.66602 -42.5 -3.99902v-228c8 -2.66699 19 -4.5 33 -5.5s30.667 -1.5 50 -1.5zM282 810.002l68 171h171l-117 -179z
" />
    <glyph glyph-name="racute" unicode="&#x155;" horiz-adv-x="452" 
d="M181 617l66 188h171l-117 -197zM62 540l140 -0.000976562l9 -80h4c26.667 20 55.334 38.333 86.001 55s59.667 28 87 34h52v-140h-58c-28 -3.33301 -55.833 -9.66602 -83.5 -18.999s-50.834 -20 -69.501 -32v-358h-167v540z" />
    <glyph glyph-name="Rcommaaccent" unicode="&#x156;" horiz-adv-x="716" 
d="M283 -70h172l-88 -150h-127zM376 247c-11.333 -0.666992 -23.168 -1.16406 -35.501 -1.49707s-24.833 -0.5 -37.5 -0.5h-12c-5.33301 0 -11 0.166992 -17 0.5l-17.5 1c-5.66699 0.333008 -10.167 0.5 -13.5 0.5v-247h-171v735c76.667 10 150.334 15 221.001 15
c66.667 0 124 -4.83301 172 -14.5s87.5 -24.834 118.5 -45.501s53.833 -46.834 68.5 -78.501s22 -69.834 22 -114.501c0 -108 -49.333 -181 -148 -219l180 -278h-190zM325.998 376.003c32.667 0 60.1689 1.99902 82.502 5.99902s40.333 10.833 54 20.5
s23.5 22.167 29.5 37.5s9 34.333 9 57c0 22 -2.83301 40.667 -8.5 56s-15.334 27.833 -29.001 37.5s-31.334 16.5 -53.001 20.5s-48.5 6 -80.5 6c-12.667 0 -27.5 -0.666992 -44.5 -2s-31.167 -2.66602 -42.5 -3.99902v-228c8 -2.66699 19 -4.5 33 -5.5s30.667 -1.5 50 -1.5
z" />
    <glyph glyph-name="rcommaaccent" unicode="&#x157;" horiz-adv-x="452" 
d="M62 -70h172l-88 -150h-127zM62 540l140 -0.000976562l9 -80h4c26.667 20 55.334 38.333 86.001 55s59.667 28 87 34h52v-140h-58c-28 -3.33301 -55.833 -9.66602 -83.5 -18.999s-50.834 -20 -69.501 -32v-358h-167v540z" />
    <glyph glyph-name="Rcaron" unicode="&#x158;" horiz-adv-x="716" 
d="M157 990l198 -77l197 77v-113l-199 -77l-196 77v113zM376 247c-11.333 -0.666992 -23.168 -1.16406 -35.501 -1.49707s-24.833 -0.5 -37.5 -0.5h-12c-5.33301 0 -11 0.166992 -17 0.5l-17.5 1c-5.66699 0.333008 -10.167 0.5 -13.5 0.5v-247h-171v735
c76.667 10 150.334 15 221.001 15c66.667 0 124 -4.83301 172 -14.5s87.5 -24.834 118.5 -45.501s53.833 -46.834 68.5 -78.501s22 -69.834 22 -114.501c0 -108 -49.333 -181 -148 -219l180 -278h-190zM325.998 376.003c32.667 0 60.1689 1.99902 82.502 5.99902
s40.333 10.833 54 20.5s23.5 22.167 29.5 37.5s9 34.333 9 57c0 22 -2.83301 40.667 -8.5 56s-15.334 27.833 -29.001 37.5s-31.334 16.5 -53.001 20.5s-48.5 6 -80.5 6c-12.667 0 -27.5 -0.666992 -44.5 -2s-31.167 -2.66602 -42.5 -3.99902v-228
c8 -2.66699 19 -4.5 33 -5.5s30.667 -1.5 50 -1.5z" />
    <glyph glyph-name="rcaron" unicode="&#x159;" horiz-adv-x="452" 
d="M50 799l197 -77l198 77v-114l-199 -76l-196 76v114zM62 540l140 -0.000976562l9 -80h4c26.667 20 55.334 38.333 86.001 55s59.667 28 87 34h52v-140h-58c-28 -3.33301 -55.833 -9.66602 -83.5 -18.999s-50.834 -20 -69.501 -32v-358h-167v540z" />
    <glyph glyph-name="Sacute" unicode="&#x15a;" horiz-adv-x="634" 
d="M307 -12c-19.333 0 -40.1699 0.667969 -62.5029 2.00098s-45.333 3.5 -69 6.5s-47.167 6.33301 -70.5 10s-45.666 8.16699 -66.999 13.5v138c48 -11.333 93.5 -20 136.5 -26s82.167 -9 117.5 -9c47.333 0 81.833 6.5 103.5 19.5s32.5 32.5 32.5 58.5
c0 30 -11.833 51.667 -35.5 65s-57.5 24.333 -101.5 33c-41.333 8 -77.166 18.167 -107.499 30.5s-55.666 27.666 -75.999 45.999s-35.5 40.5 -45.5 66.5s-15 56.667 -15 92c0 34 6.66699 64.333 20 91s32.666 49.5 57.999 68.5s56 33.5 92 43.5s76.667 15 122 15
c16 0 32 -0.5 48 -1.5s33 -2.5 51 -4.5s37.5 -4.83301 58.5 -8.5s44.167 -8.16699 69.5 -13.5v-137c-33.333 9.33301 -69 16.833 -107 22.5s-72 8.5 -102 8.5c-43.333 0 -76.333 -7 -99 -21s-34 -34 -34 -60c0 -28 11.333 -49.333 34 -64s59.334 -27.667 110.001 -39
c38 -8 71.833 -17.833 101.5 -29.5s54.5 -26 74.5 -43s35.333 -37.5 46 -61.5s16 -52.333 16 -85c0 -74.667 -25.167 -131.167 -75.5 -169.5s-124.833 -57.5 -223.5 -57.5zM247.996 810.001l68 171h171l-117 -179z" />
    <glyph glyph-name="sacute" unicode="&#x15b;" horiz-adv-x="532" 
d="M194 617l66 188h171l-117 -197zM255 -11c-30 0 -63.832 2.00586 -101.499 6.00586s-75.834 10 -114.501 18v116c40 -8 77 -14.333 111 -19s66.333 -7 97 -7c32 0 55.5 4 70.5 12s22.5 20.333 22.5 37c0 17.333 -7.5 30 -22.5 38s-38.5 14 -70.5 18
c-22 2.66699 -44.833 6.16699 -68.5 10.5s-45.5 12.166 -65.5 23.499s-36.5 27.666 -49.5 48.999s-19.5 50.666 -19.5 87.999c0 54 20.667 96.333 62 127s98.333 46 171 46c14 0 28.167 -0.333008 42.5 -1s29.5 -1.83398 45.5 -3.50098s33.167 -3.83398 51.5 -6.50098
s38.833 -6 61.5 -10l-5 -124c-38 8 -72 14.167 -102 18.5s-55.667 6.5 -77 6.5c-60.667 0 -91 -16.333 -91 -49c0 -18.667 9 -31.334 27 -38.001s46 -12.667 84 -18c28 -4 53.333 -9.5 76 -16.5s42 -16.833 58 -29.5s28.5 -28.667 37.5 -48s13.5 -42.666 13.5 -69.999
c0 -56.667 -20.5 -99.834 -61.5 -129.501s-101.833 -44.5 -182.5 -44.5z" />
    <glyph glyph-name="Scircumflex" unicode="&#x15c;" horiz-adv-x="634" 
d="M307 -12c-19.333 0 -40.1699 0.667969 -62.5029 2.00098s-45.333 3.5 -69 6.5s-47.167 6.33301 -70.5 10s-45.666 8.16699 -66.999 13.5v138c48 -11.333 93.5 -20 136.5 -26s82.167 -9 117.5 -9c47.333 0 81.833 6.5 103.5 19.5s32.5 32.5 32.5 58.5
c0 30 -11.833 51.667 -35.5 65s-57.5 24.333 -101.5 33c-41.333 8 -77.166 18.167 -107.499 30.5s-55.666 27.666 -75.999 45.999s-35.5 40.5 -45.5 66.5s-15 56.667 -15 92c0 34 6.66699 64.333 20 91s32.666 49.5 57.999 68.5s56 33.5 92 43.5s76.667 15 122 15
c16 0 32 -0.5 48 -1.5s33 -2.5 51 -4.5s37.5 -4.83301 58.5 -8.5s44.167 -8.16699 69.5 -13.5v-137c-33.333 9.33301 -69 16.833 -107 22.5s-72 8.5 -102 8.5c-43.333 0 -76.333 -7 -99 -21s-34 -34 -34 -60c0 -28 11.333 -49.333 34 -64s59.334 -27.667 110.001 -39
c38 -8 71.833 -17.833 101.5 -29.5s54.5 -26 74.5 -43s35.333 -37.5 46 -61.5s16 -52.333 16 -85c0 -74.667 -25.167 -131.167 -75.5 -169.5s-124.833 -57.5 -223.5 -57.5zM127.996 915.001l196 77l199 -77v-114l-198 77l-197 -77v114z" />
    <glyph glyph-name="scircumflex" unicode="&#x15d;" horiz-adv-x="532" 
d="M71 725l196 77l199 -77v-113l-198 77l-197 -77v113zM255 -11c-30 0 -63.832 2.00586 -101.499 6.00586s-75.834 10 -114.501 18v116c40 -8 77 -14.333 111 -19s66.333 -7 97 -7c32 0 55.5 4 70.5 12s22.5 20.333 22.5 37c0 17.333 -7.5 30 -22.5 38s-38.5 14 -70.5 18
c-22 2.66699 -44.833 6.16699 -68.5 10.5s-45.5 12.166 -65.5 23.499s-36.5 27.666 -49.5 48.999s-19.5 50.666 -19.5 87.999c0 54 20.667 96.333 62 127s98.333 46 171 46c14 0 28.167 -0.333008 42.5 -1s29.5 -1.83398 45.5 -3.50098s33.167 -3.83398 51.5 -6.50098
s38.833 -6 61.5 -10l-5 -124c-38 8 -72 14.167 -102 18.5s-55.667 6.5 -77 6.5c-60.667 0 -91 -16.333 -91 -49c0 -18.667 9 -31.334 27 -38.001s46 -12.667 84 -18c28 -4 53.333 -9.5 76 -16.5s42 -16.833 58 -29.5s28.5 -28.667 37.5 -48s13.5 -42.666 13.5 -69.999
c0 -56.667 -20.5 -99.834 -61.5 -129.501s-101.833 -44.5 -182.5 -44.5z" />
    <glyph glyph-name="uni015E" unicode="&#x15e;" horiz-adv-x="634" 
d="M300 -220c-14.667 0 -31.001 1.16992 -49.001 3.50293s-36 5.16602 -54 8.49902v98c12.667 -3.33301 26.167 -6.16602 40.5 -8.49902s27.166 -3.5 38.499 -3.5c16.667 0 28.167 2.83301 34.5 8.5s9.5 14.167 9.5 25.5c0 19.333 -10.667 44.666 -32 75.999
c-38 1.33301 -79.333 4.66602 -124 9.99902s-86.667 12.666 -126 21.999v138c48 -11.333 93.5 -20 136.5 -26s82.167 -9 117.5 -9c47.333 0 81.833 6.5 103.5 19.5s32.5 32.5 32.5 58.5c0 30 -11.833 51.667 -35.5 65s-57.5 24.333 -101.5 33
c-41.333 8 -77.166 18.167 -107.499 30.5s-55.666 27.666 -75.999 45.999s-35.5 40.5 -45.5 66.5s-15 56.667 -15 92c0 34 6.66699 64.333 20 91s32.666 49.5 57.999 68.5s56 33.5 92 43.5s76.667 15 122 15c16 0 32 -0.5 48 -1.5s33 -2.5 51 -4.5s37.5 -4.83301 58.5 -8.5
s44.167 -8.16699 69.5 -13.5v-137c-33.333 9.33301 -69 16.833 -107 22.5s-72 8.5 -102 8.5c-43.333 0 -76.333 -7 -99 -21s-34 -34 -34 -60c0 -28 11.333 -49.333 34 -64s59.334 -27.667 110.001 -39c38 -8 71.833 -17.833 101.5 -29.5s54.5 -26 74.5 -43
s35.333 -37.5 46 -61.5s16 -52.333 16 -85c0 -63.333 -18.333 -113.666 -55 -150.999s-91 -61 -163 -71c16 -21.333 27 -39.5 33 -54.5s9 -30.5 9 -46.5c0 -36 -11.5 -63.667 -34.5 -83s-54.833 -29 -95.5 -29z" />
    <glyph glyph-name="uni015F" unicode="&#x15f;" horiz-adv-x="532" 
d="M244 -220c-14.667 0 -31.001 1.16992 -49.001 3.50293s-36 5.16602 -54 8.49902v98c12.667 -3.33301 26.167 -6.16602 40.5 -8.49902s27.166 -3.5 38.499 -3.5c16.667 0 28.167 2.83301 34.5 8.5s9.5 14.167 9.5 25.5c0 9.33301 -2.66699 20.333 -8 33
s-13.666 27.334 -24.999 44.001c-28 1.33301 -58.5 3.83301 -91.5 7.5s-66.5 9.16699 -100.5 16.5v116c40 -8 77 -14.333 111 -19s66.333 -7 97 -7c32 0 55.5 4 70.5 12s22.5 20.333 22.5 37c0 17.333 -7.5 30 -22.5 38s-38.5 14 -70.5 18
c-22 2.66699 -44.833 6.16699 -68.5 10.5s-45.5 12.166 -65.5 23.499s-36.5 27.666 -49.5 48.999s-19.5 50.666 -19.5 87.999c0 54 20.667 96.333 62 127s98.333 46 171 46c14 0 28.167 -0.333008 42.5 -1s29.5 -1.83398 45.5 -3.50098s33.167 -3.83398 51.5 -6.50098
s38.833 -6 61.5 -10l-5 -124c-38 8 -72 14.167 -102 18.5s-55.667 6.5 -77 6.5c-60.667 0 -91 -16.333 -91 -49c0 -18.667 9 -31.334 27 -38.001s46 -12.667 84 -18c28 -4 53.333 -9.5 76 -16.5s42 -16.833 58 -29.5s28.5 -28.667 37.5 -48s13.5 -42.666 13.5 -69.999
c0 -47.333 -14.167 -85 -42.5 -113s-70.166 -46.333 -125.499 -55c16.667 -21.333 28 -39.666 34 -54.999s9 -31.333 9 -48c0 -36 -11.5 -63.667 -34.5 -83s-54.833 -29 -95.5 -29z" />
    <glyph glyph-name="Scaron" unicode="&#x160;" horiz-adv-x="634" 
d="M307 -12c-19.333 0 -40.1699 0.667969 -62.5029 2.00098s-45.333 3.5 -69 6.5s-47.167 6.33301 -70.5 10s-45.666 8.16699 -66.999 13.5v138c48 -11.333 93.5 -20 136.5 -26s82.167 -9 117.5 -9c47.333 0 81.833 6.5 103.5 19.5s32.5 32.5 32.5 58.5
c0 30 -11.833 51.667 -35.5 65s-57.5 24.333 -101.5 33c-41.333 8 -77.166 18.167 -107.499 30.5s-55.666 27.666 -75.999 45.999s-35.5 40.5 -45.5 66.5s-15 56.667 -15 92c0 34 6.66699 64.333 20 91s32.666 49.5 57.999 68.5s56 33.5 92 43.5s76.667 15 122 15
c16 0 32 -0.5 48 -1.5s33 -2.5 51 -4.5s37.5 -4.83301 58.5 -8.5s44.167 -8.16699 69.5 -13.5v-137c-33.333 9.33301 -69 16.833 -107 22.5s-72 8.5 -102 8.5c-43.333 0 -76.333 -7 -99 -21s-34 -34 -34 -60c0 -28 11.333 -49.333 34 -64s59.334 -27.667 110.001 -39
c38 -8 71.833 -17.833 101.5 -29.5s54.5 -26 74.5 -43s35.333 -37.5 46 -61.5s16 -52.333 16 -85c0 -74.667 -25.167 -131.167 -75.5 -169.5s-124.833 -57.5 -223.5 -57.5zM125.996 990.001l198 -77l197 77v-113l-199 -77l-196 77v113z" />
    <glyph glyph-name="scaron" unicode="&#x161;" horiz-adv-x="532" 
d="M70 799l197 -77l198 77v-114l-199 -76l-196 76v114zM255 -11c-30 0 -63.832 2.00586 -101.499 6.00586s-75.834 10 -114.501 18v116c40 -8 77 -14.333 111 -19s66.333 -7 97 -7c32 0 55.5 4 70.5 12s22.5 20.333 22.5 37c0 17.333 -7.5 30 -22.5 38s-38.5 14 -70.5 18
c-22 2.66699 -44.833 6.16699 -68.5 10.5s-45.5 12.166 -65.5 23.499s-36.5 27.666 -49.5 48.999s-19.5 50.666 -19.5 87.999c0 54 20.667 96.333 62 127s98.333 46 171 46c14 0 28.167 -0.333008 42.5 -1s29.5 -1.83398 45.5 -3.50098s33.167 -3.83398 51.5 -6.50098
s38.833 -6 61.5 -10l-5 -124c-38 8 -72 14.167 -102 18.5s-55.667 6.5 -77 6.5c-60.667 0 -91 -16.333 -91 -49c0 -18.667 9 -31.334 27 -38.001s46 -12.667 84 -18c28 -4 53.333 -9.5 76 -16.5s42 -16.833 58 -29.5s28.5 -28.667 37.5 -48s13.5 -42.666 13.5 -69.999
c0 -56.667 -20.5 -99.834 -61.5 -129.501s-101.833 -44.5 -182.5 -44.5z" />
    <glyph glyph-name="uni0162" unicode="&#x162;" horiz-adv-x="640" 
d="M234 606l-214.999 0.000976562v134h603v-134h-217v-606h-36c17.333 -23.333 29.5 -42.833 36.5 -58.5s10.5 -32.167 10.5 -49.5c0 -36 -11.5 -63.667 -34.5 -83s-54.833 -29 -95.5 -29c-14.667 0 -31 1.16699 -49 3.5s-36 5.16602 -54 8.49902v98
c12.667 -3.33301 26.167 -6.16602 40.5 -8.49902s27.166 -3.5 38.499 -3.5c16.667 0 28.167 2.83301 34.5 8.5s9.5 14.167 9.5 25.5c0 21.333 -13.333 50.666 -40 87.999h-32v606z" />
    <glyph glyph-name="uni0163" unicode="&#x163;" horiz-adv-x="447" 
d="M215 -220c-14.667 0 -30.999 1.16797 -48.999 3.50098s-36 5.16602 -54 8.49902v98c12.667 -3.33301 26.167 -6.16602 40.5 -8.49902s27.166 -3.5 38.499 -3.5c16.667 0 28.167 2.83301 34.5 8.5s9.5 14.167 9.5 25.5c0 24 -17 58 -51 102c-47.333 28 -71 76.667 -71 146
v240h-95v140h106l25 156l130 14v-170h139v-140h-138v-202c0 -30 5.83301 -51.333 17.5 -64s31.5 -19 59.5 -19c18.667 0 39.667 4 63 12v-124c-15.333 -4 -33 -7.33301 -53 -10s-40 -4.33398 -60 -5.00098c14 -19.333 23.833 -36.333 29.5 -51s8.5 -29.667 8.5 -45
c0 -36 -11.5 -63.667 -34.5 -83s-54.833 -29 -95.5 -29z" />
    <glyph glyph-name="Tcaron" unicode="&#x164;" horiz-adv-x="640" 
d="M124 990l198 -77l197 77v-113l-199 -77l-196 77v113zM234 606h-215v134h603v-134h-217v-606h-171v606z" />
    <glyph glyph-name="tcaron" unicode="&#x165;" horiz-adv-x="444" 
d="M301 -12c-62 0 -108.835 14.501 -140.502 43.501s-47.5 71.833 -47.5 128.5v240h-95v140h106l25 156l130 14v-170h119v-140h-118v-202c0 -30 5.83301 -51.333 17.5 -64s31.5 -19 59.5 -19c18.667 0 39.667 4 63 12v-124
c-15.333 -4.66699 -33.666 -8.33398 -54.999 -11.001s-42.666 -4 -63.999 -4zM347.998 808.001h131l-42 -228h-89v228z" />
    <glyph glyph-name="Tbar" unicode="&#x166;" horiz-adv-x="651" 
d="M98 420h140v186h-215v134h603v-134h-217v-186h153v-97h-153v-323h-171v323h-140v97z" />
    <glyph glyph-name="tbar" unicode="&#x167;" horiz-adv-x="452" 
d="M25 326l91.998 0.000976562v74h-95v140h106l25 156l130 14v-170h139v-140h-138v-74h111v-96h-111v-32c0 -30 5.83301 -51.333 17.5 -64s31.5 -19 59.5 -19c18.667 0 39.667 4 63 12v-124c-15.333 -4.66699 -33.666 -8.33398 -54.999 -11.001s-42.666 -4 -63.999 -4
c-62 0 -108.833 14.5 -140.5 43.5s-47.5 71.833 -47.5 128.5v70h-92v96z" />
    <glyph glyph-name="Utilde" unicode="&#x168;" horiz-adv-x="799" 
d="M168 857c22 39.333 46.999 68.667 74.999 88s55 29 81 29c16.667 0 33.167 -2 49.5 -6s32.5 -8.33301 48.5 -13s32 -9 48 -13s32.333 -6 49 -6c15.333 0 30.333 2.5 45 7.5s31.334 14.833 50.001 29.5l23 -31c-22 -39.333 -47.167 -68.833 -75.5 -88.5
s-55.833 -29.5 -82.5 -29.5c-16.667 0 -33 2 -49 6s-32 8.33301 -48 13s-32.167 9 -48.5 13s-32.5 6 -48.5 6c-15.333 0 -30.5 -2.5 -45.5 -7.5s-31.167 -14.5 -48.5 -28.5zM399.999 -9.99902c-62 0 -114.333 6.33496 -157 19.002s-77.167 32 -103.5 58
s-45.333 58.667 -57 98s-17.5 86 -17.5 140v436h170v-440c0 -58.667 13.167 -102.334 39.5 -131.001s68.166 -43 125.499 -43c56.667 0 98.167 14.167 124.5 42.5s39.5 72.166 39.5 131.499v440h170v-436c0 -54 -5.83301 -100.667 -17.5 -140s-30.667 -72 -57 -98
s-60.666 -45.333 -102.999 -58s-94.5 -19 -156.5 -19z" />
    <glyph glyph-name="utilde" unicode="&#x169;" horiz-adv-x="658" 
d="M212 -10c-50 0 -88.165 13.1689 -114.498 39.502s-39.5 63.166 -39.5 110.499v400h167v-349c0 -26 4.83301 -44.667 14.5 -56s25.167 -17 46.5 -17s44.666 3.83301 69.999 11.5s49.666 16.5 72.999 26.5v384h167v-540h-140l-9 63h-4l-66.5 -34
c-19 -9.33301 -37 -16.833 -54 -22.5s-34.167 -9.83398 -51.5 -12.501s-37 -4 -59 -4zM101.002 666.002c22 38.667 46.999 67.5 74.999 86.5s55.333 28.5 82 28.5c16.667 0 33.167 -2.16699 49.5 -6.5s32.333 -9.16602 48 -14.499s31.5 -10.166 47.5 -14.499
s32.333 -6.5 49 -6.5c15.333 0 30.166 2.66699 44.499 8s30.5 15.333 48.5 30l26 -34c-22 -38.667 -47.167 -67.5 -75.5 -86.5s-55.833 -28.5 -82.5 -28.5c-16.667 0 -33 2.16699 -49 6.5s-32 9.16602 -48 14.499s-32.167 10.166 -48.5 14.499s-32.5 6.5 -48.5 6.5
c-15.333 0 -30.166 -2.66699 -44.499 -8s-30.166 -15.333 -47.499 -30z" />
    <glyph glyph-name="Umacron" unicode="&#x16a;" horiz-adv-x="799" 
d="M199 953h389v-112h-389v112zM400 -10c-62 0 -114.333 6.33496 -157 19.002s-77.167 32 -103.5 58s-45.333 58.667 -57 98s-17.5 86 -17.5 140v436h170v-440c0 -58.667 13.167 -102.334 39.5 -131.001s68.166 -43 125.499 -43c56.667 0 98.167 14.167 124.5 42.5
s39.5 72.166 39.5 131.499v440h170v-436c0 -54 -5.83301 -100.667 -17.5 -140s-30.667 -72 -57 -98s-60.666 -45.333 -102.999 -58s-94.5 -19 -156.5 -19z" />
    <glyph glyph-name="umacron" unicode="&#x16b;" horiz-adv-x="658" 
d="M212 -10c-50 0 -88.165 13.1689 -114.498 39.502s-39.5 63.166 -39.5 110.499v400h167v-349c0 -26 4.83301 -44.667 14.5 -56s25.167 -17 46.5 -17s44.666 3.83301 69.999 11.5s49.666 16.5 72.999 26.5v384h167v-540h-140l-9 63h-4l-66.5 -34
c-19 -9.33301 -37 -16.833 -54 -22.5s-34.167 -9.83398 -51.5 -12.501s-37 -4 -59 -4zM128.002 751.002h391v-110h-391v110z" />
    <glyph glyph-name="Ubreve" unicode="&#x16c;" horiz-adv-x="799" 
d="M396 809c-39.333 0 -72.499 4.33203 -99.499 12.999s-49.167 20.834 -66.5 36.501s-29.833 34.167 -37.5 55.5s-11.5 44.666 -11.5 69.999h112c0 -30.667 7.66699 -54 23 -70s42 -24 80 -24c39.333 0 66.5 8 81.5 24s22.5 39.333 22.5 70h113c0 -26 -4 -49.667 -12 -71
s-20.667 -39.666 -38 -54.999s-39.833 -27.333 -67.5 -36s-60.834 -13 -99.501 -13zM400.001 -10.001c-62 0 -114.333 6.33496 -157 19.002s-77.167 32 -103.5 58s-45.333 58.667 -57 98s-17.5 86 -17.5 140v436h170v-440c0 -58.667 13.167 -102.334 39.5 -131.001
s68.166 -43 125.499 -43c56.667 0 98.167 14.167 124.5 42.5s39.5 72.166 39.5 131.499v440h170v-436c0 -54 -5.83301 -100.667 -17.5 -140s-30.667 -72 -57 -98s-60.666 -45.333 -102.999 -58s-94.5 -19 -156.5 -19z" />
    <glyph glyph-name="ubreve" unicode="&#x16d;" horiz-adv-x="658" 
d="M212 -10c-50 0 -88.165 13.1689 -114.498 39.502s-39.5 63.166 -39.5 110.499v400h167v-349c0 -26 4.83301 -44.667 14.5 -56s25.167 -17 46.5 -17s44.666 3.83301 69.999 11.5s49.666 16.5 72.999 26.5v384h167v-540h-140l-9 63h-4l-66.5 -34
c-19 -9.33301 -37 -16.833 -54 -22.5s-34.167 -9.83398 -51.5 -12.501s-37 -4 -59 -4zM321.002 614.002c-39.333 0 -72.667 4.16895 -100 12.502s-49.5 20.166 -66.5 35.499s-29.5 33.666 -37.5 54.999s-12 44.666 -12 69.999h112c0 -30.667 7.83301 -53.5 23.5 -68.5
s42.5 -22.5 80.5 -22.5s64.833 7.5 80.5 22.5s23.5 37.833 23.5 68.5h112c-0.666992 -26 -4.83398 -49.5 -12.501 -70.5s-20 -39.167 -37 -54.5s-39.167 -27.166 -66.5 -35.499s-60.666 -12.5 -99.999 -12.5z" />
    <glyph glyph-name="Uring" unicode="&#x16e;" horiz-adv-x="799" 
d="M400 -10c-62 0 -114.333 6.33496 -157 19.002s-77.167 32 -103.5 58s-45.333 58.667 -57 98s-17.5 86 -17.5 140v436h170v-440c0 -58.667 13.167 -102.334 39.5 -131.001s68.166 -43 125.499 -43c56.667 0 98.167 14.167 124.5 42.5s39.5 72.166 39.5 131.499v440h170
v-436c0 -54 -5.83301 -100.667 -17.5 -140s-30.667 -72 -57 -98s-60.666 -45.333 -102.999 -58s-94.5 -19 -156.5 -19zM396 784.002c-38.667 0 -70.5 10.333 -95.5 31s-37.5 48 -37.5 82c0 16.667 3.33301 32 10 46s15.834 26.167 27.501 36.5s25.667 18.333 42 24
s34.166 8.5 53.499 8.5s37.166 -2.83301 53.499 -8.5s30.333 -13.667 42 -24s20.834 -22.5 27.501 -36.5s10 -29.333 10 -46c0 -34 -12.5 -61.333 -37.5 -82s-56.833 -31 -95.5 -31zM396 842.002c23.333 0 40 4.5 50 13.5s15 22.833 15 41.5c0 19.333 -5 33.5 -15 42.5
s-26.667 13.5 -50 13.5s-40 -4.5 -50 -13.5s-15 -23.167 -15 -42.5c0 -18.667 5 -32.5 15 -41.5s26.667 -13.5 50 -13.5z" />
    <glyph glyph-name="uring" unicode="&#x16f;" horiz-adv-x="658" 
d="M330 590c-38.667 0 -70.667 10.333 -96 31s-38 48 -38 82s12.5 61.667 37.5 83s57.167 32 96.5 32s71.5 -10.667 96.5 -32s37.5 -49 37.5 -83s-12.5 -61.333 -37.5 -82s-57.167 -31 -96.5 -31zM330 648c22.667 0 39 4.83301 49 14.5s15 23.167 15 40.5
c0 18 -5 31.833 -15 41.5s-26.333 14.5 -49 14.5s-39 -4.83301 -49 -14.5s-15 -23.5 -15 -41.5c0 -17.333 5 -30.833 15 -40.5s26.333 -14.5 49 -14.5zM212 -10c-50 0 -88.165 13.1689 -114.498 39.502s-39.5 63.166 -39.5 110.499v400h167v-349
c0 -26 4.83301 -44.667 14.5 -56s25.167 -17 46.5 -17s44.666 3.83301 69.999 11.5s49.666 16.5 72.999 26.5v384h167v-540h-140l-9 63h-4l-66.5 -34c-19 -9.33301 -37 -16.833 -54 -22.5s-34.167 -9.83398 -51.5 -12.501s-37 -4 -59 -4z" />
    <glyph glyph-name="Uhungarumlaut" unicode="&#x170;" horiz-adv-x="799" 
d="M400 -10c-62 0 -114.333 6.33496 -157 19.002s-77.167 32 -103.5 58s-45.333 58.667 -57 98s-17.5 86 -17.5 140v436h170v-440c0 -58.667 13.167 -102.334 39.5 -131.001s68.166 -43 125.499 -43c56.667 0 98.167 14.167 124.5 42.5s39.5 72.166 39.5 131.499v440h170
v-436c0 -54 -5.83301 -100.667 -17.5 -140s-30.667 -72 -57 -98s-60.666 -45.333 -102.999 -58s-94.5 -19 -156.5 -19zM229 811.002l67 167h162l-117 -178zM436 811.002l66 167h163l-117 -178z" />
    <glyph glyph-name="uhungarumlaut" unicode="&#x171;" horiz-adv-x="658" 
d="M212 -10c-50 0 -88.165 13.1689 -114.498 39.502s-39.5 63.166 -39.5 110.499v400h167v-349c0 -26 4.83301 -44.667 14.5 -56s25.167 -17 46.5 -17s44.666 3.83301 69.999 11.5s49.666 16.5 72.999 26.5v384h167v-540h-140l-9 63h-4l-66.5 -34
c-19 -9.33301 -37 -16.833 -54 -22.5s-34.167 -9.83398 -51.5 -12.501s-37 -4 -59 -4zM149.002 621.002l65 186h164l-118 -196zM366.002 621.002l66 186h163l-118 -196z" />
    <glyph glyph-name="Uogonek" unicode="&#x172;" horiz-adv-x="799" 
d="M402 -215c-46 0 -81 7.83496 -105 23.502s-36 38.5 -36 68.5c0 41.333 24 80 72 116c-49.333 4 -91 13.5 -125 28.5s-61.667 35.333 -83 61s-36.666 57 -45.999 94s-14 79.833 -14 128.5v436h170v-440c0 -58.667 13.167 -102.334 39.5 -131.001s68.166 -43 125.499 -43
c56.667 0 98.167 14.167 124.5 42.5s39.5 72.166 39.5 131.499v440h170v-436c0 -46.667 -4.33301 -88 -13 -124s-22.834 -66.833 -42.501 -92.5s-45 -46.167 -76 -61.5s-68.833 -26 -113.5 -32c-44 -18.667 -75 -35.5 -93 -50.5s-27 -29.833 -27 -44.5
c0 -16.667 11.667 -25 35 -25c9.33301 0 22.333 1.33301 39 4s32.334 6 47.001 10v-92c-26 -8 -55.333 -12 -88 -12z" />
    <glyph glyph-name="uogonek" unicode="&#x173;" horiz-adv-x="658" 
d="M212 -10c-50 0 -88.166 13.168 -114.499 39.501s-39.5 63.166 -39.5 110.499v400h167v-349c0 -26 4.83301 -44.667 14.5 -56s25.167 -17 46.5 -17s44.666 3.83301 69.999 11.5s49.666 16.5 72.999 26.5v384h167v-550c-44 -18.667 -75 -35.5 -93 -50.5
s-27 -29.833 -27 -44.5c0 -16.667 11.667 -25 35 -25c9.33301 0 22.333 1.33301 39 4s32.334 6 47.001 10v-92c-26 -8 -55.333 -12 -88 -12c-46 0 -81 7.83301 -105 23.5s-36 38.5 -36 68.5c0 23.333 7.66699 45.833 23 67.5s38 41.834 68 60.501h-3l-9 63h-4l-66.5 -34
c-19 -9.33301 -37 -16.833 -54 -22.5s-34.167 -9.83398 -51.5 -12.501s-37 -4 -59 -4z" />
    <glyph glyph-name="Wcircumflex" unicode="&#x174;" horiz-adv-x="1087" 
d="M11 740h183l92 -440l22 -131h11l28 131l112 440h170l111 -440l28 -131h12l22 131l93 440h181l-185 -740h-224l-94 364l-25 167h-9l-25 -167l-94 -364h-225zM346 915l196 77l199 -77v-114l-198 77l-197 -77v114z" />
    <glyph glyph-name="wcircumflex" unicode="&#x175;" horiz-adv-x="852" 
d="M230 725l196 77l199 -77v-113l-198 77l-197 -77v113zM13 535v5h164l68 -313l12 -72h10l12 72l76 313h142l77 -313l13 -72h10l12 72l66 313h163v-5l-144 -535h-183l-70 280l-10 65h-10l-10 -65l-68 -280h-183z" />
    <glyph glyph-name="Ycircumflex" unicode="&#x176;" horiz-adv-x="712" 
d="M272 237l-279 503h186l141 -273l31 -76h9l31 76l142 273h184l-275 -498v-242h-170v237zM158 915l196 77l199 -77v-114l-198 77l-197 -77v114z" />
    <glyph glyph-name="ycircumflex" unicode="&#x177;" horiz-adv-x="625" 
d="M153 -198v14l77 192l-224 515v17h179l93 -266l30 -101h9l30 101l97 266h175v-17l-309 -743zM119 725l196 77l199 -77v-113l-198 77l-197 -77v113z" />
    <glyph glyph-name="Ydieresis" unicode="&#x178;" horiz-adv-x="712" 
d="M272 237l-279 503h186l141 -273l31 -76h9l31 76l142 273h184l-275 -498v-242h-170v237zM211 805c-32.667 0 -56.334 7 -71.001 21s-22 37 -22 69s7.33301 55 22 69s38.334 21 71.001 21c33.333 0 57 -7.33301 71 -22s21 -37.334 21 -68.001
c0 -31.333 -7 -54.166 -21 -68.499s-37.667 -21.5 -71 -21.5zM499 805c-33.333 0 -57 7 -71 21s-21 37 -21 69s7 55 21 69s37.667 21 71 21s57.166 -7.33301 71.499 -22s21.5 -37.334 21.5 -68.001c0 -31.333 -7.16699 -54.166 -21.5 -68.499s-38.166 -21.5 -71.499 -21.5z
" />
    <glyph glyph-name="Zacute" unicode="&#x179;" horiz-adv-x="648" 
d="M31 126l364 472v8h-350v134h557v-122l-364 -476v-8h380v-134h-587v126zM269 810l68 171h171l-117 -179z" />
    <glyph glyph-name="zacute" unicode="&#x17a;" horiz-adv-x="557" 
d="M225 617l66 188h171l-117 -197zM35 106l267 302v8h-258v124h468v-105l-258 -302v-9h268v-124h-487v106z" />
    <glyph glyph-name="Zdotaccent" unicode="&#x17b;" horiz-adv-x="648" 
d="M324 802c-33.333 0 -57.166 7.00098 -71.499 21.001s-21.5 37 -21.5 69s7.16699 55.167 21.5 69.5s38.166 21.5 71.499 21.5s57 -7.33301 71 -22s21 -37.667 21 -69c0 -30.667 -7 -53.334 -21 -68.001s-37.667 -22 -71 -22zM31 126.001l364 472v8h-350v134h557v-122
l-364 -476v-8h380v-134h-587v126z" />
    <glyph glyph-name="zdotaccent" unicode="&#x17c;" horiz-adv-x="557" 
d="M35 106l267 302v8h-258v124h468v-105l-258 -302v-9h268v-124h-487v106zM274 615c-33.333 0 -57.166 7 -71.499 21s-21.5 37 -21.5 69s7.16699 55 21.5 69s38.166 21 71.499 21c32.667 0 56.167 -7.33301 70.5 -22s21.5 -37.334 21.5 -68.001
c0 -31.333 -7.16699 -54.166 -21.5 -68.499s-37.833 -21.5 -70.5 -21.5z" />
    <glyph glyph-name="Zcaron" unicode="&#x17d;" horiz-adv-x="648" 
d="M128 990l198 -77l197 77v-113l-199 -77l-196 77v113zM31 126l364 472v8h-350v134h557v-122l-364 -476v-8h380v-134h-587v126z" />
    <glyph glyph-name="zcaron" unicode="&#x17e;" horiz-adv-x="557" 
d="M87 799l197 -77l198 77v-114l-199 -76l-196 76v114zM35 106l267 302v8h-258v124h468v-105l-258 -302v-9h268v-124h-487v106z" />
    <glyph glyph-name="Schwa" unicode="&#x18f;" horiz-adv-x="735" 
d="M35 326c0 16 0.500977 31.6699 1.50098 47.0029s2.83301 33.666 5.5 54.999h487c-2 35.333 -7 64.333 -15 87s-19.667 40.667 -35 54s-34.833 22.666 -58.5 27.999s-52.834 8 -87.501 8c-34 0 -72.5 -2.33301 -115.5 -7s-91.167 -13 -144.5 -25l-1 21.5
c-0.666992 14.333 -1.5 29.833 -2.5 46.5s-1.83301 32.167 -2.5 46.5l-1 21.5c20.667 6.66699 43.334 12.667 68.001 18s49.667 9.66602 75 12.999s50.166 6 74.499 8s46.5 3 66.5 3c230 0 345 -123.667 345 -371c0 -125.333 -28.833 -221.666 -86.5 -288.999
s-144.5 -101 -260.5 -101c-101.333 0 -178.833 27.167 -232.5 81.5s-80.5 139.166 -80.5 254.499zM352.001 124.003c30.667 0 56.6689 3.16895 78.002 9.50195s39 16.666 53 30.999s24.667 33.666 32 57.999s12 54.5 14 90.5h-333c0 -34 2.16699 -62.833 6.5 -86.5
s12.166 -43.167 23.499 -58.5s27.166 -26.5 47.499 -33.5s46.5 -10.5 78.5 -10.5z" />
    <glyph glyph-name="florin" unicode="&#x192;" horiz-adv-x="491" 
d="M147 400l-116.999 0.000976562v140h117v25c0 46.667 5.5 85.667 16.5 117s29.333 56.666 55 75.999s59 33.333 100 42s91.5 13.667 151.5 15l8 -120c-31.333 -1.33301 -57.5 -4 -78.5 -8s-37.833 -10.5 -50.5 -19.5s-21.834 -20.833 -27.501 -35.5s-8.5 -33 -8.5 -55v-37
h145v-140h-145v-569l-166 -51v620z" />
    <glyph glyph-name="uni01C4" unicode="&#x1c4;" horiz-adv-x="1421" 
d="M900 990l198 -77l197 77v-113l-199 -77l-196 77v113zM803 126l364 472v8h-350v134h557v-122l-364 -476v-8h380v-134h-587v126zM288 -11c-40 0 -79.5 1.16797 -118.5 3.50098s-71.5 5.83301 -97.5 10.5v735c52 3.33301 99.167 6.16602 141.5 8.49902s78.5 3.5 108.5 3.5
c72 0 133.833 -7.33301 185.5 -22s94.167 -37.5 127.5 -68.5s58 -70.5 74 -118.5s24 -105.333 24 -172c0 -67.333 -8.33301 -125 -25 -173s-42.834 -87.333 -78.501 -118s-81.667 -53.167 -138 -67.5s-124.166 -21.5 -203.499 -21.5zM353 125.001
c38 0 70.002 4.16797 96.002 12.501s47.167 22.166 63.5 41.499s28.166 44.5 35.499 75.5s11 69.167 11 114.5c0 44.667 -3.83301 82.667 -11.5 114s-19.834 56.5 -36.501 75.5s-38.5 32.833 -65.5 41.5s-59.833 13 -98.5 13c-14.667 0 -30.667 -0.333008 -48 -1
s-36.333 -2 -57 -4v-475c19.333 -3.33301 37.833 -5.5 55.5 -6.5s36.167 -1.5 55.5 -1.5z" />
    <glyph glyph-name="uni01C5" unicode="&#x1c5;" horiz-adv-x="1329" 
d="M859 799l197 -77l198 77v-114l-199 -76l-196 76v114zM807 106l267 302v8h-258v124h468v-105l-258 -302v-9h268v-124h-487v106zM288 -11c-40 0 -79.5 1.16797 -118.5 3.50098s-71.5 5.83301 -97.5 10.5v735c52 3.33301 99.167 6.16602 141.5 8.49902s78.5 3.5 108.5 3.5
c72 0 133.833 -7.33301 185.5 -22s94.167 -37.5 127.5 -68.5s58 -70.5 74 -118.5s24 -105.333 24 -172c0 -67.333 -8.33301 -125 -25 -173s-42.834 -87.333 -78.501 -118s-81.667 -53.167 -138 -67.5s-124.166 -21.5 -203.499 -21.5zM353 125.001
c38 0 70.002 4.16797 96.002 12.501s47.167 22.166 63.5 41.499s28.166 44.5 35.499 75.5s11 69.167 11 114.5c0 44.667 -3.83301 82.667 -11.5 114s-19.834 56.5 -36.501 75.5s-38.5 32.833 -65.5 41.5s-59.833 13 -98.5 13c-14.667 0 -30.667 -0.333008 -48 -1
s-36.333 -2 -57 -4v-475c19.333 -3.33301 37.833 -5.5 55.5 -6.5s36.167 -1.5 55.5 -1.5z" />
    <glyph glyph-name="uni01C6" unicode="&#x1c6;" horiz-adv-x="1215" 
d="M744 799l197 -77l198 77v-114l-199 -76l-196 76v114zM693 106l267 302v8h-258v124h468v-105l-258 -302v-9h268v-124h-487v106zM264 -10c-75.333 0 -132.167 22.002 -170.5 66.002s-57.5 111.333 -57.5 202c0 48.667 7 91.167 21 127.5s34 66.666 60 90.999
s57.5 42.666 94.5 54.999s78.5 18.5 124.5 18.5c16.667 0 32.667 -0.666992 48 -2l45 -4v264h167v-808h-146l-13 66h-8c-35.333 -50.667 -90.333 -76 -165 -76zM313.999 113.002c36 0 64.167 8.83203 84.5 26.499s30.5 46.5 30.5 86.5v198
c-13.333 2.66699 -28.333 4.83398 -45 6.50098s-34.334 2.5 -53.001 2.5c-24 0 -44 -2.5 -60 -7.5s-29 -13.667 -39 -26s-17.167 -28.833 -21.5 -49.5s-6.5 -47 -6.5 -79c0 -30 1.83301 -55.167 5.5 -75.5s9.83398 -36.5 18.501 -48.5s20 -20.667 34 -26s31.333 -8 52 -8z
" />
    <glyph glyph-name="uni01C7" unicode="&#x1c7;" horiz-adv-x="888" 
d="M571 -158c14.667 32.667 26.833 62.999 36.5 90.999s17.5 55.667 23.5 83s10.167 55.333 12.5 84s3.5 60.334 3.5 95.001v545h171v-558c0 -34.667 -2.33301 -67.167 -7 -97.5s-12.5 -60.833 -23.5 -91.5s-25.167 -62.167 -42.5 -94.5s-39 -67.5 -65 -105.5z
M71.999 739.999h171v-608h317v-132h-488v740z" />
    <glyph glyph-name="uni01C8" unicode="&#x1c8;" horiz-adv-x="862" 
d="M716 618c-32.667 0 -56 7 -70 21s-21 36.667 -21 68s7 54 21 68s37.333 21 70 21c33.333 0 57 -7.33301 71 -22s21 -37 21 -67s-7 -52.333 -21 -67s-37.667 -22 -71 -22zM588 -197c8.66699 26 16 51.499 22 76.499s11 51 15 78s6.83301 56.333 8.5 88s2.5 67.5 2.5 107.5
v34v59v74c0 26.667 -0.166992 53.334 -0.5 80.001l-1 76.5c-0.333008 24.333 -0.5 45.5 -0.5 63.5h166v-464c-3.33301 -54 -13 -105.833 -29 -155.5s-36.667 -96.5 -62 -140.5zM72 739.999h171v-608h317v-132h-488v740z" />
    <glyph glyph-name="uni01C9" unicode="&#x1c9;" horiz-adv-x="579" 
d="M434 618c-32.667 0 -56 7 -70 21s-21 36.667 -21 68s7 54 21 68s37.333 21 70 21c33.333 0 57 -7.33301 71 -22s21 -37 21 -67s-7 -52.333 -21 -67s-37.667 -22 -71 -22zM306 -197c8.66699 26 16 51.499 22 76.499s11 51 15 78s6.83301 56.333 8.5 88s2.5 67.5 2.5 107.5
v34v59v74c0 26.667 -0.166992 53.334 -0.5 80.001l-1 76.5c-0.333008 24.333 -0.5 45.5 -0.5 63.5h166v-464c-3.33301 -54 -13 -105.833 -29 -155.5s-36.667 -96.5 -62 -140.5zM62 807.999h167v-808h-167v808z" />
    <glyph glyph-name="uni01CA" unicode="&#x1ca;" horiz-adv-x="1127" 
d="M810 -158c14.667 32.667 26.833 62.999 36.5 90.999s17.5 55.667 23.5 83s10.167 55.333 12.5 84s3.5 60.334 3.5 95.001v545h171v-558c0 -34.667 -2.33301 -67.167 -7 -97.5s-12.5 -60.833 -23.5 -91.5s-25.167 -62.167 -42.5 -94.5s-39 -67.5 -65 -105.5z
M71.999 739.999h137l314 -402l59 -85h9v487h149v-740h-137l-308 396l-65 91h-8v-487h-150v740z" />
    <glyph glyph-name="uni01CB" unicode="&#x1cb;" horiz-adv-x="1100" 
d="M955 618c-32.667 0 -56 7 -70 21s-21 36.667 -21 68s7 54 21 68s37.333 21 70 21c33.333 0 57 -7.33301 71 -22s21 -37 21 -67s-7 -52.333 -21 -67s-37.667 -22 -71 -22zM827 -197c8.66699 26 16 51.499 22 76.499s11 51 15 78s6.83301 56.333 8.5 88s2.5 67.5 2.5 107.5
v34v59v74c0 26.667 -0.166992 53.334 -0.5 80.001l-1 76.5c-0.333008 24.333 -0.5 45.5 -0.5 63.5h166v-464c-3.33301 -54 -13 -105.833 -29 -155.5s-36.667 -96.5 -62 -140.5zM72 739.999h137l314 -402l59 -85h9v487h149v-740h-137l-308 396l-65 91h-8v-487h-150v740z" />
    <glyph glyph-name="uni01CC" unicode="&#x1cc;" horiz-adv-x="946" 
d="M801 618c-32.667 0 -56 7 -70 21s-21 36.667 -21 68s7 54 21 68s37.333 21 70 21c33.333 0 57 -7.33301 71 -22s21 -37 21 -67s-7 -52.333 -21 -67s-37.667 -22 -71 -22zM673 -197c8.66699 26 16 51.499 22 76.499s11 51 15 78s6.83301 56.333 8.5 88s2.5 67.5 2.5 107.5
v34v59v74c0 26.667 -0.166992 53.334 -0.5 80.001l-1 76.5c-0.333008 24.333 -0.5 45.5 -0.5 63.5h166v-464c-3.33301 -54 -13 -105.833 -29 -155.5s-36.667 -96.5 -62 -140.5zM62 539.999l139.999 0.000976562l9 -62h7c50 25.333 93.167 43.666 129.5 54.999
s69.833 17 100.5 17c48 0 85.333 -13 112 -39s40 -63 40 -111v-400h-167v344c0 26.667 -5 45.667 -15 57s-25.667 17 -47 17c-18.667 0 -40.667 -3.33301 -66 -10s-50.666 -15.667 -75.999 -27v-381h-167v540z" />
    <glyph glyph-name="Oogonek" unicode="&#x1ea;" horiz-adv-x="791" 
d="M400 -212c-46 0 -81.0029 7.83105 -105.003 23.498s-36 38.5 -36 68.5c0 41.333 23.333 79.333 70 114c-95.333 11.333 -167.5 48.666 -216.5 111.999s-73.5 151 -73.5 263c0 126 30.333 221 91 285s149.334 96 266.001 96c116 0 204.5 -32.167 265.5 -96.5
s91.5 -159.166 91.5 -284.499c0 -107.333 -22.667 -192.166 -68 -254.499s-111.666 -101.166 -198.999 -116.499c-44 -18.667 -74.833 -35.5 -92.5 -50.5s-26.5 -29.833 -26.5 -44.5c0 -16.667 11.667 -25 35 -25c9.33301 0 22.333 1.33301 39 4s32.334 6 47.001 10v-92
c-26 -8 -55.333 -12 -88 -12zM395.997 126.998c33.333 0 61.6709 4.16699 85.0039 12.5s42.166 22 56.499 41s24.833 43.833 31.5 74.5s10 68.667 10 114c0 44.667 -3.5 82.5 -10.5 113.5s-17.833 56.167 -32.5 75.5s-33.5 33.333 -56.5 42s-50.833 13 -83.5 13
s-60.667 -4.33301 -84 -13s-42.333 -22.5 -57 -41.5s-25.334 -44.167 -32.001 -75.5s-10 -69.333 -10 -114c0 -45.333 3.33301 -83.333 10 -114s17.167 -55.5 31.5 -74.5s33.166 -32.667 56.499 -41s51.666 -12.5 84.999 -12.5z" />
    <glyph glyph-name="oogonek" unicode="&#x1eb;" horiz-adv-x="647" 
d="M336 -209c-46 0 -81.001 7.83203 -105.001 23.499s-36 38.5 -36 68.5c0 40.667 22 77.667 66 111c-74 10 -130.167 38.333 -168.5 85s-57.5 110.334 -57.5 191.001c0 91.333 24.667 160.833 74 208.5s121 71.5 215 71.5s165.333 -23.833 214 -71.5s73 -117.167 73 -208.5
c0 -74 -15.833 -133.5 -47.5 -178.5s-78.5 -75.167 -140.5 -90.5c-44 -18.667 -75 -35.5 -93 -50.5s-27 -29.833 -27 -44.5c0 -16.667 11.667 -25 35 -25c9.33301 0 22.333 1.33301 39 4s32.334 6 47.001 10v-92c-26 -8 -55.333 -12 -88 -12zM323.999 116.999
c22 0 40.667 2.5 56 7.5s27.666 13.5 36.999 25.5s16.166 27.833 20.499 47.5s6.5 43.834 6.5 72.501s-2.16699 52.667 -6.5 72s-11.166 35 -20.499 47s-21.666 20.5 -36.999 25.5s-34 7.5 -56 7.5s-40.667 -2.5 -56 -7.5s-27.833 -13.5 -37.5 -25.5
s-16.667 -27.667 -21 -47s-6.5 -43.333 -6.5 -72s2.16699 -52.834 6.5 -72.501s11.333 -35.5 21 -47.5s22.167 -20.5 37.5 -25.5s34 -7.5 56 -7.5z" />
    <glyph glyph-name="uni01F1" unicode="&#x1f1;" horiz-adv-x="1409" 
d="M791 126l364 472v8h-350v134h557v-122l-364 -476v-8h380v-134h-587v126zM288 -11c-40 0 -79.5 1.16797 -118.5 3.50098s-71.5 5.83301 -97.5 10.5v735c52 3.33301 99.167 6.16602 141.5 8.49902s78.5 3.5 108.5 3.5c72 0 133.833 -7.33301 185.5 -22
s94.167 -37.5 127.5 -68.5s58 -70.5 74 -118.5s24 -105.333 24 -172c0 -67.333 -8.33301 -125 -25 -173s-42.834 -87.333 -78.501 -118s-81.667 -53.167 -138 -67.5s-124.166 -21.5 -203.499 -21.5zM353 125.001c38 0 70.002 4.16797 96.002 12.501
s47.167 22.166 63.5 41.499s28.166 44.5 35.499 75.5s11 69.167 11 114.5c0 44.667 -3.83301 82.667 -11.5 114s-19.834 56.5 -36.501 75.5s-38.5 32.833 -65.5 41.5s-59.833 13 -98.5 13c-14.667 0 -30.667 -0.333008 -48 -1s-36.333 -2 -57 -4v-475
c19.333 -3.33301 37.833 -5.5 55.5 -6.5s36.167 -1.5 55.5 -1.5z" />
    <glyph glyph-name="uni01F2" unicode="&#x1f2;" horiz-adv-x="1328" 
d="M806 106l267 302v8h-258v124h468v-105l-258 -302v-9h268v-124h-487v106zM288 -11c-40 0 -79.5 1.16797 -118.5 3.50098s-71.5 5.83301 -97.5 10.5v735c52 3.33301 99.167 6.16602 141.5 8.49902s78.5 3.5 108.5 3.5c72 0 133.833 -7.33301 185.5 -22
s94.167 -37.5 127.5 -68.5s58 -70.5 74 -118.5s24 -105.333 24 -172c0 -67.333 -8.33301 -125 -25 -173s-42.834 -87.333 -78.501 -118s-81.667 -53.167 -138 -67.5s-124.166 -21.5 -203.499 -21.5zM353 125.001c38 0 70.002 4.16797 96.002 12.501
s47.167 22.166 63.5 41.499s28.166 44.5 35.499 75.5s11 69.167 11 114.5c0 44.667 -3.83301 82.667 -11.5 114s-19.834 56.5 -36.501 75.5s-38.5 32.833 -65.5 41.5s-59.833 13 -98.5 13c-14.667 0 -30.667 -0.333008 -48 -1s-36.333 -2 -57 -4v-475
c19.333 -3.33301 37.833 -5.5 55.5 -6.5s36.167 -1.5 55.5 -1.5z" />
    <glyph glyph-name="uni01F3" unicode="&#x1f3;" horiz-adv-x="1215" 
d="M693 106l267 302v8h-258v124h468v-105l-258 -302v-9h268v-124h-487v106zM264 -10c-75.333 0 -132.167 22.002 -170.5 66.002s-57.5 111.333 -57.5 202c0 48.667 7 91.167 21 127.5s34 66.666 60 90.999s57.5 42.666 94.5 54.999s78.5 18.5 124.5 18.5
c16.667 0 32.667 -0.666992 48 -2l45 -4v264h167v-808h-146l-13 66h-8c-35.333 -50.667 -90.333 -76 -165 -76zM313.999 113.002c36 0 64.167 8.83203 84.5 26.499s30.5 46.5 30.5 86.5v198c-13.333 2.66699 -28.333 4.83398 -45 6.50098s-34.334 2.5 -53.001 2.5
c-24 0 -44 -2.5 -60 -7.5s-29 -13.667 -39 -26s-17.167 -28.833 -21.5 -49.5s-6.5 -47 -6.5 -79c0 -30 1.83301 -55.167 5.5 -75.5s9.83398 -36.5 18.501 -48.5s20 -20.667 34 -26s31.333 -8 52 -8z" />
    <glyph glyph-name="Gacute" unicode="&#x1f4;" horiz-adv-x="701" 
d="M306 810l68 171h171l-117 -179zM412 -12c-126.667 0 -220.5 31.332 -281.5 93.999s-91.5 158.334 -91.5 287.001s32 224.667 96 288s162 95 294 95c34 0 70 -2.16699 108 -6.5s72.333 -10.166 103 -17.499v-137c-43.333 7.33301 -81 12.833 -113 16.5
s-60.333 5.5 -85 5.5c-43.333 0 -79.666 -4.16699 -108.999 -12.5s-52.833 -22 -70.5 -41s-30.167 -44 -37.5 -75s-11 -69.5 -11 -115.5c0 -45.333 3.33301 -83.333 10 -114s18 -55.5 34 -74.5s37 -32.5 63 -40.5s58.333 -12 97 -12c10 0 21.5 0.333008 34.5 1
s26.167 1.66699 39.5 3v244h157v-352c-40 -10.667 -81.333 -19.334 -124 -26.001s-80.334 -10 -113.001 -10z" />
    <glyph glyph-name="gacute" unicode="&#x1f5;" horiz-adv-x="657" 
d="M276 617l66 188h171l-117 -197zM291 -220c-38 0 -76.832 1.99902 -116.499 5.99902s-73.167 9.33301 -100.5 16l10 121c23.333 -5.33301 50.5 -10.166 81.5 -14.499s62.167 -6.5 93.5 -6.5c25.333 0 49 2.33301 71 7s41.167 12.5 57.5 23.5s29.166 25.667 38.499 44
s14 41.166 14 68.499v50h-8c-17.333 -28 -40 -48.333 -68 -61s-60.667 -19 -98 -19c-76 0 -133.167 20.5 -171.5 61.5s-57.5 104.167 -57.5 189.5c0 47.333 7 88.666 21 123.999s34 64.833 60 88.5s57.333 41.5 94 53.5s78 18 124 18c16 0 32.5 -0.5 49.5 -1.5
s35.833 -3.16699 56.5 -6.5s43.5 -7.83301 68.5 -13.5s53.833 -13.167 86.5 -22.5v-441c0 -53.333 -8.16699 -98.166 -24.5 -134.499s-38.5 -65.666 -66.5 -87.999s-60.5 -38.333 -97.5 -48s-76.167 -14.5 -117.5 -14.5zM315.001 134.999c36.667 0 65 9.16504 85 27.498
s30 47.5 30 87.5v174c-13.333 2.66699 -28.333 4.83398 -45 6.50098s-34.334 2.5 -53.001 2.5c-24 0 -44 -2.33301 -60 -7s-29 -13 -39 -25s-17.167 -27.833 -21.5 -47.5s-6.5 -44.5 -6.5 -74.5c0 -27.333 1.83301 -50.166 5.5 -68.499s9.83398 -33 18.501 -44
s20 -19 34 -24s31.333 -7.5 52 -7.5z" />
    <glyph glyph-name="Aringacute" unicode="&#x1fa;" horiz-adv-x="740" 
d="M0 9l222.998 665.001c-22 22 -33 49.333 -33 82c0 35.333 11.833 65 35.5 89s55.834 39.667 96.501 47l48 114h171l-82 -125c28.667 -11.333 51.5 -27.833 68.5 -49.5s25.5 -46.834 25.5 -75.501c0 -17.333 -3.16699 -33 -9.5 -47s-15.166 -26.667 -26.499 -38l223 -662
v-9h-165l-58 175h-295l-57 -175h-165v9zM369.998 694.001c25.333 0 45.5 5.66699 60.5 17s22.5 26.333 22.5 45c0 19.333 -7.5 34.5 -22.5 45.5s-35.167 16.5 -60.5 16.5c-24.667 0 -44 -5.5 -58 -16.5s-21 -26.167 -21 -45.5s7.16699 -34.5 21.5 -45.5
s33.5 -16.5 57.5 -16.5zM474.998 314.001l-53 163l-38 126h-29l-38 -127l-53 -162h211z" />
    <glyph glyph-name="aringacute" unicode="&#x1fb;" horiz-adv-x="586" 
d="M188 -5c-51.333 0 -90.332 13.501 -116.999 40.501s-40 64.833 -40 113.5c0 54.667 16.667 95.667 50 123s85.333 43.666 156 48.999l125 9v6c0 18 -1.5 32.833 -4.5 44.5s-8.5 21.167 -16.5 28.5s-19.333 12.5 -34 15.5s-34 4.5 -58 4.5
c-24.667 0 -52.5 -1.66699 -83.5 -5s-60.833 -7.66602 -89.5 -12.999l-11 116c38 7.33301 74.5 12.5 109.5 15.5s68.5 4.5 100.5 4.5c86.667 0 150.667 -14.833 192 -44.5s62 -75.834 62 -138.501v-364h-137l-15 66h-9c-26.667 -24 -55.334 -41.833 -86.001 -53.5
s-62 -17.5 -94 -17.5zM295.001 590.001c-38.667 0 -70.667 10.334 -96 31.001s-38 48 -38 82c0 28.667 9.33301 53.167 28 73.5s43.334 33.166 74.001 38.499l58 164h171l-111 -186c15.333 -10.667 27.166 -23.5 35.499 -38.5s12.5 -32.167 12.5 -51.5
c0 -34 -12.5 -61.333 -37.5 -82s-57.167 -31 -96.5 -31zM259.001 110.002c17.333 0 35.5 3.5 54.5 10.5s35.167 15.833 48.5 26.5v96l-74 -6c-33.333 -2.66699 -56.5 -9.16699 -69.5 -19.5s-19.5 -26.833 -19.5 -49.5c0 -38.667 20 -58 60 -58zM295.001 648.002
c22.667 0 39 4.83301 49 14.5s15 23.167 15 40.5c0 18 -5 31.833 -15 41.5s-26.333 14.5 -49 14.5s-39 -4.83301 -49 -14.5s-15 -23.5 -15 -41.5c0 -17.333 5 -30.833 15 -40.5s26.333 -14.5 49 -14.5z" />
    <glyph glyph-name="AEacute" unicode="&#x1fc;" horiz-adv-x="985" 
d="M478 810l68 171h171l-117 -179zM-4 9l298 731h637v-133h-317l10 -169h290v-133h-281l11 -172h301v-133h-471l-7 175h-233l-71 -175h-167v9zM290 314h171l-12 305h-35z" />
    <glyph glyph-name="aeacute" unicode="&#x1fd;" horiz-adv-x="920" 
d="M405 617l66 188h171l-117 -197zM646 -13c-99.333 0 -169.999 29.998 -211.999 89.998h-8c-44.667 -28.667 -86.334 -49.5 -125.001 -62.5s-77 -19.5 -115 -19.5c-50 0 -88.333 13.5 -115 40.5s-40 65.5 -40 115.5c0 52.667 16.667 92.834 50 120.501
s85.333 44.167 156 49.5l126 8v23c0 15.333 -2 27.833 -6 37.5s-10.833 17.334 -20.5 23.001s-22.334 9.66699 -38.001 12s-35.5 3.5 -59.5 3.5c-22 0 -47.5 -1.5 -76.5 -4.5s-57.5 -7.16699 -85.5 -12.5l-12 116c38.667 7.33301 75.5 12.5 110.5 15.5s70.167 4.5 105.5 4.5
c85.333 0 144.666 -22 177.999 -66h8c41.333 42.667 101 64 179 64c158.667 0 238 -79.667 238 -239c0 -18.667 -0.666992 -34.5 -2 -47.5s-3.66602 -25.167 -6.99902 -36.5h-343c2.66699 -40.667 13.834 -69 33.501 -85s51.5 -24 95.5 -24c14.667 0 30.667 0.5 48 1.5
s34.833 2.66699 52.5 5s34.667 5 51 8s31.5 6.5 45.5 10.5l5 -119c-32 -10 -67.167 -17.833 -105.5 -23.5s-75.5 -8.5 -111.5 -8.5zM261.001 108.998c16 0 33.333 3.49902 52 10.499s35.667 16.167 51 27.5c0 0.666992 -0.166992 6 -0.5 16s-0.5 20.833 -0.5 32.5v32v16.5
l-75 -7c-33.333 -3.33301 -56.333 -10 -69 -20s-19 -26 -19 -48c0 -21.333 4.83301 -36.666 14.5 -45.999s25.167 -14 46.5 -14zM736.001 307.997c-1.33301 43.333 -9.33301 74.333 -24 93s-39 28 -73 28c-35.333 0 -61.5 -9.5 -78.5 -28.5s-26.833 -49.833 -29.5 -92.5h205
z" />
    <glyph glyph-name="Oslashacute" unicode="&#x1fe;" horiz-adv-x="794" 
d="M112 110c-23.333 32 -41.168 69.333 -53.501 112s-18.5 91.667 -18.5 147c0 126 30.333 221 91 285s149.334 96 266.001 96c87.333 0 159.333 -18.667 216 -56l40 46h123l-95 -110c48.667 -64 73 -151 73 -261c0 -124.667 -30.333 -219 -91 -283
s-149.334 -96 -266.001 -96c-89.333 0 -161.666 18.333 -216.999 55l-39 -45h-124zM396.998 127c33.333 0 61.667 4.16699 85 12.5s42.166 22 56.499 41s24.833 43.833 31.5 74.5s10 68.667 10 114c0 50 -4.66699 92 -14 126l-289 -336
c14.667 -11.333 31.834 -19.5 51.501 -24.5s42.5 -7.5 68.5 -7.5zM213.999 369c0 -50.667 4.00098 -92.333 12.001 -125l289 336c-26.667 22 -66 33 -118 33c-32.667 0 -60.667 -4.33301 -84 -13s-42.333 -22.5 -57 -41.5s-25.334 -44.167 -32.001 -75.5
s-10 -69.333 -10 -114zM327 810.001l68 171h171l-117 -179z" />
    <glyph glyph-name="oslashacute" unicode="&#x1ff;" horiz-adv-x="653" 
d="M90 87c-34 46 -51.001 107 -51.001 183c0 43.333 5.83301 82.333 17.5 117s29.5 64 53.5 88s54 42.5 90 55.5s78.333 19.5 127 19.5c70.667 0 128.667 -13.667 174 -41l30 31h117l-85 -87c34.667 -46.667 52 -107.667 52 -183c0 -88.667 -23.667 -157.5 -71 -206.5
s-119.666 -73.5 -216.999 -73.5c-71.333 0 -129.333 13.667 -174 41l-30 -31h-117zM326.999 117c25.333 0 45.833 2.83203 61.5 8.49902s28 14.834 37 27.501s15 28.5 18 47.5s4.5 42.167 4.5 69.5c0 22.667 -1 43 -3 61l-194 -199c18 -10 43.333 -15 76 -15z
M206.999 269.999c0 -23.333 1.00098 -43.334 3.00098 -60.001l192 197c-18 10 -43 15 -75 15c-25.333 0 -45.833 -2.83301 -61.5 -8.5s-27.834 -14.667 -36.501 -27s-14.5 -28.166 -17.5 -47.499s-4.5 -42.333 -4.5 -69zM262 616.998l66 188h171l-117 -197z" />
    <glyph glyph-name="Adblgrave" unicode="&#x200;" horiz-adv-x="740" 
d="M0 9l243 731h254l243 -731v-9h-165l-59 178h-293l-58 -178h-165v9zM477 311l-55 166l-45 145h-15l-44 -146l-55 -165h214zM204 800l-118 178h163l67 -167zM411 800l-118 178h163l67 -167z" />
    <glyph glyph-name="adblgrave" unicode="&#x201;" horiz-adv-x="586" 
d="M188 -5c-51.333 0 -90.332 13.501 -116.999 40.501s-40 64.833 -40 113.5c0 54.667 16.667 95.667 50 123s85.333 43.666 156 48.999l125 9v6c0 18 -1.5 32.833 -4.5 44.5s-8.5 21.167 -16.5 28.5s-19.333 12.5 -34 15.5s-34 4.5 -58 4.5
c-24.667 0 -52.5 -1.66699 -83.5 -5s-60.833 -7.66602 -89.5 -12.999l-11 116c38 7.33301 74.5 12.5 109.5 15.5s68.5 4.5 100.5 4.5c86.667 0 150.667 -14.833 192 -44.5s62 -75.834 62 -138.501v-364h-137l-15 66h-9c-26.667 -24 -55.334 -41.833 -86.001 -53.5
s-62 -17.5 -94 -17.5zM259.001 110.001c17.333 0 35.5 3.5 54.5 10.5s35.167 15.833 48.5 26.5v96l-74 -6c-33.333 -2.66699 -56.5 -9.16699 -69.5 -19.5s-19.5 -26.833 -19.5 -49.5c0 -38.667 20 -58 60 -58zM143.001 611.001l-118 196h163l66 -186zM361.001 611.001
l-119 196h164l65 -186z" />
    <glyph glyph-name="Ainvertedbreve" unicode="&#x202;" horiz-adv-x="740" 
d="M0 9l243 731h254l243 -731v-9h-165l-59 178h-293l-58 -178h-165v9zM477 311l-55 166l-45 145h-15l-44 -146l-55 -165h214zM474 817c0 30.667 -7.66699 53.833 -23 69.5s-42.333 23.5 -81 23.5c-38 0 -64.667 -7.83301 -80 -23.5s-23 -38.834 -23 -69.501h-113
c0 25.333 4 48.666 12 69.999s20.5 39.833 37.5 55.5s39.167 27.834 66.5 36.501s60.666 13 99.999 13c38.667 0 71.834 -4.33301 99.501 -13s50.167 -20.667 67.5 -36s30 -33.666 38 -54.999s12 -45 12 -71h-113z" />
    <glyph glyph-name="ainvertedbreve" unicode="&#x203;" horiz-adv-x="586" 
d="M188 -5c-51.333 0 -90.332 13.501 -116.999 40.501s-40 64.833 -40 113.5c0 54.667 16.667 95.667 50 123s85.333 43.666 156 48.999l125 9v6c0 18 -1.5 32.833 -4.5 44.5s-8.5 21.167 -16.5 28.5s-19.333 12.5 -34 15.5s-34 4.5 -58 4.5
c-24.667 0 -52.5 -1.66699 -83.5 -5s-60.833 -7.66602 -89.5 -12.999l-11 116c38 7.33301 74.5 12.5 109.5 15.5s68.5 4.5 100.5 4.5c86.667 0 150.667 -14.833 192 -44.5s62 -75.834 62 -138.501v-364h-137l-15 66h-9c-26.667 -24 -55.334 -41.833 -86.001 -53.5
s-62 -17.5 -94 -17.5zM259.001 110.001c17.333 0 35.5 3.5 54.5 10.5s35.167 15.833 48.5 26.5v96l-74 -6c-33.333 -2.66699 -56.5 -9.16699 -69.5 -19.5s-19.5 -26.833 -19.5 -49.5c0 -38.667 20 -58 60 -58zM81.001 623.001
c0.666992 25.333 4.83594 48.666 12.5029 69.999s20 39.666 37 54.999s39.167 27.333 66.5 36s60.666 13 99.999 13s72.666 -4.16699 99.999 -12.5s49.5 -20.166 66.5 -35.499s29.5 -33.666 37.5 -54.999s12.333 -45 13 -71h-113c0 31.333 -7.83301 54.333 -23.5 69
s-42.5 22 -80.5 22c-37.333 0 -63.833 -7.33301 -79.5 -22s-23.834 -37.667 -24.501 -69h-112z" />
    <glyph glyph-name="Edblgrave" unicode="&#x204;" horiz-adv-x="657" 
d="M72 740h536v-133h-365v-168h332v-133h-332v-173h374v-133h-545v740zM180 800l-118 178h163l67 -167zM387 800l-118 178h163l67 -167z" />
    <glyph glyph-name="edblgrave" unicode="&#x205;" horiz-adv-x="590" 
d="M137 611l-118 196h163l66 -186zM355 611l-119 196h164l65 -186zM316 -9c-186 0 -279.001 91.667 -279.001 275c0 93.333 23.333 163.833 70 211.5s116.334 71.5 209.001 71.5c158.667 0 238 -80.333 238 -241c0 -31.333 -3 -59 -9 -83h-342c2 -21.333 5.66699 -39 11 -53
s13 -25 23 -33s22.833 -13.667 38.5 -17s34.5 -5 56.5 -5c14.667 0 30.5 0.666992 47.5 2s34.167 3 51.5 5s34.333 4.5 51 7.5s32 6.16699 46 9.5l5 -119c-32 -9.33301 -67 -16.833 -105 -22.5s-75.333 -8.5 -112 -8.5zM308.999 432c-34.667 0 -60.333 -9.16699 -77 -27.5
s-26.667 -48.833 -30 -91.5h205c-1.33301 43.333 -9.5 74 -24.5 92s-39.5 27 -73.5 27z" />
    <glyph glyph-name="Einvertedbreve" unicode="&#x206;" horiz-adv-x="657" 
d="M72 740h536v-133h-365v-168h332v-133h-332v-173h374v-133h-545v740zM445 817c0 30.667 -7.66699 53.833 -23 69.5s-42.333 23.5 -81 23.5c-38 0 -64.667 -7.83301 -80 -23.5s-23 -38.834 -23 -69.501h-113c0 25.333 4 48.666 12 69.999s20.5 39.833 37.5 55.5
s39.167 27.834 66.5 36.501s60.666 13 99.999 13c38.667 0 71.834 -4.33301 99.501 -13s50.167 -20.667 67.5 -36s30 -33.666 38 -54.999s12 -45 12 -71h-113z" />
    <glyph glyph-name="einvertedbreve" unicode="&#x207;" horiz-adv-x="590" 
d="M88 623c0.666992 25.333 4.83594 48.666 12.5029 69.999s20 39.666 37 54.999s39.167 27.333 66.5 36s60.666 13 99.999 13s72.666 -4.16699 99.999 -12.5s49.5 -20.166 66.5 -35.499s29.5 -33.666 37.5 -54.999s12.333 -45 13 -71h-113
c0 31.333 -7.83301 54.333 -23.5 69s-42.5 22 -80.5 22c-37.333 0 -63.833 -7.33301 -79.5 -22s-23.834 -37.667 -24.501 -69h-112zM316.002 -9c-186 0 -279.001 91.667 -279.001 275c0 93.333 23.333 163.833 70 211.5s116.334 71.5 209.001 71.5
c158.667 0 238 -80.333 238 -241c0 -31.333 -3 -59 -9 -83h-342c2 -21.333 5.66699 -39 11 -53s13 -25 23 -33s22.833 -13.667 38.5 -17s34.5 -5 56.5 -5c14.667 0 30.5 0.666992 47.5 2s34.167 3 51.5 5s34.333 4.5 51 7.5s32 6.16699 46 9.5l5 -119
c-32 -9.33301 -67 -16.833 -105 -22.5s-75.333 -8.5 -112 -8.5zM309.001 432c-34.667 0 -60.333 -9.16699 -77 -27.5s-26.667 -48.833 -30 -91.5h205c-1.33301 43.333 -9.5 74 -24.5 92s-39.5 27 -73.5 27z" />
    <glyph glyph-name="Idblgrave" unicode="&#x208;" horiz-adv-x="315" 
d="M72 740h171v-740h-171v740zM11 800l-118 178h163l67 -167zM218 800l-118 178h163l67 -167z" />
    <glyph glyph-name="idblgrave" unicode="&#x209;" horiz-adv-x="292" 
d="M-18 611l-118 196h163l66 -186zM200 611l-119 196h164l65 -186zM63 540h167v-540h-167v540z" />
    <glyph glyph-name="Iinvertedbreve" unicode="&#x20a;" horiz-adv-x="315" 
d="M72 740h171v-740h-171v740zM264 817c0 30.667 -7.66699 53.833 -23 69.5s-42.333 23.5 -81 23.5c-38 0 -64.667 -7.83301 -80 -23.5s-23 -38.834 -23 -69.501h-113c0 25.333 4 48.666 12 69.999s20.5 39.833 37.5 55.5s39.167 27.834 66.5 36.501s60.666 13 99.999 13
c38.667 0 71.834 -4.33301 99.501 -13s50.167 -20.667 67.5 -36s30 -33.666 38 -54.999s12 -45 12 -71h-113z" />
    </font>
</defs>
</svg>
