<?xml version="1.0" standalone="no"?>
<!DOCTYPE svg PUBLIC "-//W3C//DTD SVG 1.1//EN" "http://www.w3.org/Graphics/SVG/1.1/DTD/svg11.dtd" >
<svg>
<metadata>
Created by FontForge 20090914 at Sat Aug  6 10:38:01 2016
 By www-data
Copyright (c) 2012, Impallari Type (www.impallari.com), with Reserved Font Name Encode Sans.
</metadata>
<defs>
<font id="EncodeSansNarrow-Thin" horiz-adv-x="513" >
  <font-face 
    font-family="Encode Sans Narrow"
    font-weight="250"
    font-stretch="normal"
    units-per-em="1000"
    panose-1="2 0 0 0 0 0 0 0 0 0"
    ascent="800"
    descent="-200"
    x-height="540"
    cap-height="740"
    bbox="-82 -220 1433 1030"
    underline-thickness="55"
    underline-position="-57"
    unicode-range="U+000D-U+FB04"
  />
<missing-glyph horiz-adv-x="694" 
d="M102 1030h490v-1250h-490v1250zM551 -179v1169h-408v-1169h408z" />
    <glyph glyph-name="f_f" unicode="ff" horiz-adv-x="604" 
d="M118 504l-102 0.000976562v36h103v34c0 45.333 2.66699 82.666 8 111.999s15 52.666 29 69.999s33.333 30 58 38s56.667 13.667 96 17l1 -33c-32.667 -2.66699 -59 -7.16699 -79 -13.5s-35.5 -16.166 -46.5 -29.499s-18.5 -31.5 -22.5 -54.5s-6.33301 -52.5 -7 -88.5v-52
h128v-36h-128v-504h-38v504zM424 504.001l-102 0.000976562v36h103v34c0 45.333 2.66699 82.666 8 111.999s15 52.666 29 69.999s33.333 30 58 38s56.667 13.667 96 17l1 -33c-32.667 -2.66699 -59 -7.16699 -79 -13.5s-35.5 -16.166 -46.5 -29.499s-18.5 -31.5 -22.5 -54.5
s-6.33301 -52.5 -7 -88.5v-52h128v-36h-128v-504h-38v504z" />
    <glyph glyph-name="f_i" unicode="fi" horiz-adv-x="514" 
d="M415 676c-20.667 0 -31 10.333 -31 31s10.333 31 31 31c21.333 0 32 -10.333 32 -31s-10.667 -31 -32 -31zM396 540h38v-540h-38v540zM118 504l-102 0.000976562v36h103v34c0 45.333 2.66699 82.666 8 111.999s15.166 52.666 29.499 69.999s33.833 30 58.5 38
s56.667 13.667 96 17v-33c-32 -2.66699 -58.167 -7.16699 -78.5 -13.5s-36.166 -16.166 -47.499 -29.499s-19 -31.5 -23 -54.5s-6 -52.5 -6 -88.5v-52h128v-36h-128v-504h-38v504z" />
    <glyph glyph-name="f_l" unicode="fl" horiz-adv-x="516" 
d="M118 504l-102 0.000976562v36h103v34c0 45.333 2.66699 82.666 8 111.999s15.166 52.666 29.499 69.999s33.833 30 58.5 38s56.667 13.667 96 17v-33c-32 -2.66699 -58.167 -7.16699 -78.5 -13.5s-36.166 -16.166 -47.499 -29.499s-19 -31.5 -23 -54.5s-6 -52.5 -6 -88.5
v-52h128v-36h-128v-504h-38v504zM396 808.001h38v-808h-38v808z" />
    <glyph glyph-name="f_f_i" unicode="ffi" horiz-adv-x="819" 
d="M720 676c-20.667 0 -31 10.333 -31 31s10.333 31 31 31c21.333 0 32 -10.333 32 -31s-10.667 -31 -32 -31zM701 540h38v-540h-38v540zM424 504l-102 0.000976562v36h103v34c0 45.333 2.66699 82.666 8 111.999s15.166 52.666 29.499 69.999s33.833 30 58.5 38
s56.667 13.667 96 17v-33c-32 -2.66699 -58.167 -7.16699 -78.5 -13.5s-36.166 -16.166 -47.499 -29.499s-19 -31.5 -23 -54.5s-6 -52.5 -6 -88.5v-52h128v-36h-128v-504h-38v504zM118 504.001l-102 0.000976562v36h103v34c0 45.333 2.66699 82.666 8 111.999
s15 52.666 29 69.999s33.333 30 58 38s56.667 13.667 96 17l1 -33c-32.667 -2.66699 -59 -7.16699 -79 -13.5s-35.5 -16.166 -46.5 -29.499s-18.5 -31.5 -22.5 -54.5s-6.33301 -52.5 -7 -88.5v-52h128v-36h-128v-504h-38v504z" />
    <glyph glyph-name="f_f_l" unicode="ffl" horiz-adv-x="821" 
d="M424 504l-102 0.000976562v36h103v34c0 45.333 2.66699 82.666 8 111.999s15.166 52.666 29.499 69.999s33.833 30 58.5 38s56.667 13.667 96 17v-33c-32 -2.66699 -58.167 -7.16699 -78.5 -13.5s-36.166 -16.166 -47.499 -29.499s-19 -31.5 -23 -54.5s-6 -52.5 -6 -88.5
v-52h128v-36h-128v-504h-38v504zM701 808.001h38v-808h-38v808zM118 504.001l-102 0.000976562v36h103v34c0 45.333 2.66699 82.666 8 111.999s15 52.666 29 69.999s33.333 30 58 38s56.667 13.667 96 17l1 -33c-32.667 -2.66699 -59 -7.16699 -79 -13.5
s-35.5 -16.166 -46.5 -29.499s-18.5 -31.5 -22.5 -54.5s-6.33301 -52.5 -7 -88.5v-52h128v-36h-128v-504h-38v504z" />
    <glyph glyph-name="f_b" unicode="fb" horiz-adv-x="852" 
d="M119 504l-102 0.000976562v36h103v34c0 45.333 2.66699 82.666 8 111.999s15.166 52.666 29.499 69.999s33.833 30 58.5 38s56.667 13.667 96 17v-33c-32 -2.66699 -58.167 -7.16699 -78.5 -13.5s-36.166 -16.166 -47.499 -29.499s-19 -31.5 -23 -54.5s-6 -52.5 -6 -88.5
v-52h128v-36h-128v-504h-38v504zM562 -9.99902c-26 0 -53.501 1.6709 -82.501 5.00391s-56.5 7.66602 -82.5 12.999v800h38v-327c19.333 21.333 42.833 38.166 70.5 50.499s58.5 18.5 92.5 18.5c66.667 0 117.334 -22.5 152.001 -67.5s52 -114.167 52 -207.5
c0 -42.667 -5 -81.5 -15 -116.5s-25 -64.833 -45 -89.5s-45 -43.834 -75 -57.501s-65 -20.834 -105 -21.501zM563.999 26.0049c63.333 0 112.167 20.168 146.5 60.501s51.5 102.833 51.5 187.5c0 82.667 -13.833 143.167 -41.5 181.5s-69.5 57.5 -125.5 57.5
c-19.333 0 -38.5 -2.83301 -57.5 -8.5s-36.167 -13.334 -51.5 -23.001s-27.666 -21.167 -36.999 -34.5s-14 -27.333 -14 -42v-368c19.333 -3.33301 40.166 -6 62.499 -8s44.5 -3 66.5 -3z" />
    <glyph glyph-name="f_f_b" unicode="ffb" horiz-adv-x="1157" 
d="M425 504l-102 0.000976562v36h103v34c0 45.333 2.66699 82.666 8 111.999s15.166 52.666 29.499 69.999s33.833 30 58.5 38s56.667 13.667 96 17v-33c-32 -2.66699 -58.167 -7.16699 -78.5 -13.5s-36.166 -16.166 -47.499 -29.499s-19 -31.5 -23 -54.5s-6 -52.5 -6 -88.5
v-52h128v-36h-128v-504h-38v504zM867 -9.99902c-26 0 -53.501 1.6709 -82.501 5.00391s-56.5 7.66602 -82.5 12.999v800h38v-327c19.333 21.333 42.833 38.166 70.5 50.499s58.5 18.5 92.5 18.5c66.667 0 117.334 -22.5 152.001 -67.5s52 -114.167 52 -207.5
c0 -42.667 -5 -81.5 -15 -116.5s-25 -64.833 -45 -89.5s-45 -43.834 -75 -57.501s-65 -20.834 -105 -21.501zM868.999 26.0049c63.333 0 112.167 20.168 146.5 60.501s51.5 102.833 51.5 187.5c0 82.667 -13.833 143.167 -41.5 181.5s-69.5 57.5 -125.5 57.5
c-19.333 0 -38.5 -2.83301 -57.5 -8.5s-36.167 -13.334 -51.5 -23.001s-27.666 -21.167 -36.999 -34.5s-14 -27.333 -14 -42v-368c19.333 -3.33301 40.166 -6 62.499 -8s44.5 -3 66.5 -3zM119 504.006l-102 0.000976562v36h103v34c0 45.333 2.66699 82.666 8 111.999
s15 52.666 29 69.999s33.333 30 58 38s56.667 13.667 96 17l1 -33c-32.667 -2.66699 -59 -7.16699 -79 -13.5s-35.5 -16.166 -46.5 -29.499s-18.5 -31.5 -22.5 -54.5s-6.33301 -52.5 -7 -88.5v-52h128v-36h-128v-504h-38v504z" />
    <glyph glyph-name="f_f_h" unicode="ffh" horiz-adv-x="1155" 
d="M701 808l38 0.000976562v-330h3c46.667 25.333 86.167 43.666 118.5 54.999s62.833 17 91.5 17c44 0 76.333 -11.167 97 -33.5s31 -59.5 31 -111.5v-405h-38v396c0 42 -7.66699 71.833 -23 89.5s-39 26.5 -71 26.5c-29.333 0 -61.5 -6.16699 -96.5 -18.5
s-72.5 -29.5 -112.5 -51.5v-442h-38v808zM424 504.001l-102 0.000976562v36h103v34c0 45.333 2.66699 82.666 8 111.999s15.166 52.666 29.499 69.999s33.833 30 58.5 38s56.667 13.667 96 17v-33c-32 -2.66699 -58.167 -7.16699 -78.5 -13.5
s-36.166 -16.166 -47.499 -29.499s-19 -31.5 -23 -54.5s-6 -52.5 -6 -88.5v-52h128v-36h-128v-504h-38v504zM118 504.002l-102 0.000976562v36h103v34c0 45.333 2.66699 82.666 8 111.999s15 52.666 29 69.999s33.333 30 58 38s56.667 13.667 96 17l1 -33
c-32.667 -2.66699 -59 -7.16699 -79 -13.5s-35.5 -16.166 -46.5 -29.499s-18.5 -31.5 -22.5 -54.5s-6.33301 -52.5 -7 -88.5v-52h128v-36h-128v-504h-38v504z" />
    <glyph glyph-name="f_f_j" unicode="ffj" horiz-adv-x="822" 
d="M424 504l-102 0.000976562v36h103v34c0 45.333 2.66699 82.666 8 111.999s15.166 52.666 29.499 69.999s33.833 30 58.5 38s56.667 13.667 96 17v-33c-32 -2.66699 -58.167 -7.16699 -78.5 -13.5s-36.166 -16.166 -47.499 -29.499s-19 -31.5 -23 -54.5s-6 -52.5 -6 -88.5
v-52h128v-36h-128v-504h-38v504zM722 676.001c-20.667 0 -31 10.333 -31 31s10.333 31 31 31c21.333 0 32 -10.333 32 -31s-10.667 -31 -32 -31zM627 -200.999c18.667 31.333 33.168 60.999 43.501 88.999s18.166 58 23.499 90s8.66602 67.333 9.99902 106s2 84.667 2 138
v318h38v-448c0 -55.333 -7.66699 -109.666 -23 -162.999s-37.666 -103 -66.999 -149zM118.001 504l-102 0.000976562v36h103v34c0 45.333 2.66699 82.666 8 111.999s15 52.666 29 69.999s33.333 30 58 38s56.667 13.667 96 17l1 -33
c-32.667 -2.66699 -59 -7.16699 -79 -13.5s-35.5 -16.166 -46.5 -29.499s-18.5 -31.5 -22.5 -54.5s-6.33301 -52.5 -7 -88.5v-52h128v-36h-128v-504h-38v504z" />
    <glyph glyph-name="f_f_k" unicode="ffk" horiz-adv-x="1102" 
d="M701 808h38v-514h102l195 246h45l-200 -253l-14 -9v-3l15 -11l215 -264h-45l-213 260h-100v-260h-38v808zM424 504l-102 0.000976562v36h103v34c0 45.333 2.66699 82.666 8 111.999s15.166 52.666 29.499 69.999s33.833 30 58.5 38s56.667 13.667 96 17v-33
c-32 -2.66699 -58.167 -7.16699 -78.5 -13.5s-36.166 -16.166 -47.499 -29.499s-19 -31.5 -23 -54.5s-6 -52.5 -6 -88.5v-52h128v-36h-128v-504h-38v504zM118 504.001l-102 0.000976562v36h103v34c0 45.333 2.66699 82.666 8 111.999s15 52.666 29 69.999s33.333 30 58 38
s56.667 13.667 96 17l1 -33c-32.667 -2.66699 -59 -7.16699 -79 -13.5s-35.5 -16.166 -46.5 -29.499s-18.5 -31.5 -22.5 -54.5s-6.33301 -52.5 -7 -88.5v-52h128v-36h-128v-504h-38v504z" />
    <glyph glyph-name="f_f_t" unicode="fft" horiz-adv-x="954" 
d="M425 504l-102 0.000976562v36h103v34c0 45.333 2.66699 82.666 8 111.999s15.166 52.666 29.499 69.999s33.833 30 58.5 38s56.667 13.667 96 17v-33c-32 -2.66699 -58.167 -7.16699 -78.5 -13.5s-36.166 -16.166 -47.499 -29.499s-19 -31.5 -23 -54.5s-6 -52.5 -6 -88.5
v-52h128v-36h-128v-504h-38v504zM866 -5.99902c-87.333 0 -130.999 47 -130.999 141v368h-116v37h117l5 123l32 7v-130h165v-37h-165v-364c0 -72 32.667 -108 98 -108c10 0 21.167 0.833008 33.5 2.5s24.166 4.16699 35.499 7.5v-37c-27.333 -6.66699 -52 -10 -74 -10z
M119.001 504.001l-102 0.000976562v36h103v34c0 45.333 2.66699 82.666 8 111.999s15 52.666 29 69.999s33.333 30 58 38s56.667 13.667 96 17l1 -33c-32.667 -2.66699 -59 -7.16699 -79 -13.5s-35.5 -16.166 -46.5 -29.499s-18.5 -31.5 -22.5 -54.5
s-6.33301 -52.5 -7 -88.5v-52h128v-36h-128v-504h-38v504z" />
    <glyph glyph-name="f_h" unicode="fh" horiz-adv-x="850" 
d="M396 808l38 0.000976562v-330h3c46.667 25.333 86.167 43.666 118.5 54.999s62.833 17 91.5 17c44 0 76.333 -11.167 97 -33.5s31 -59.5 31 -111.5v-405h-38v396c0 42 -7.66699 71.833 -23 89.5s-39 26.5 -71 26.5c-29.333 0 -61.5 -6.16699 -96.5 -18.5
s-72.5 -29.5 -112.5 -51.5v-442h-38v808zM118 504.001l-102 0.000976562v36h103v34c0 45.333 2.66699 82.666 8 111.999s15.166 52.666 29.499 69.999s33.833 30 58.5 38s56.667 13.667 96 17v-33c-32 -2.66699 -58.167 -7.16699 -78.5 -13.5
s-36.166 -16.166 -47.499 -29.499s-19 -31.5 -23 -54.5s-6 -52.5 -6 -88.5v-52h128v-36h-128v-504h-38v504z" />
    <glyph glyph-name="f_j" unicode="fj" horiz-adv-x="517" 
d="M118 504l-102 0.000976562v36h103v34c0 45.333 2.66699 82.666 8 111.999s15.166 52.666 29.499 69.999s33.833 30 58.5 38s56.667 13.667 96 17v-33c-32 -2.66699 -58.167 -7.16699 -78.5 -13.5s-36.166 -16.166 -47.499 -29.499s-19 -31.5 -23 -54.5s-6 -52.5 -6 -88.5
v-52h128v-36h-128v-504h-38v504zM417 676.001c-20.667 0 -31 10.333 -31 31s10.333 31 31 31c21.333 0 32 -10.333 32 -31s-10.667 -31 -32 -31zM322 -200.999c18.667 31.333 33.168 60.999 43.501 88.999s18.166 58 23.499 90s8.66602 67.333 9.99902 106s2 84.667 2 138
v318h38v-448c0 -55.333 -7.66699 -109.666 -23 -162.999s-37.666 -103 -66.999 -149z" />
    <glyph glyph-name="f_k" unicode="fk" horiz-adv-x="796" 
d="M396 808h38v-514h102l195 246h45l-200 -253l-14 -9v-3l15 -11l215 -264h-45l-213 260h-100v-260h-38v808zM118 504l-102 0.000976562v36h103v34c0 45.333 2.66699 82.666 8 111.999s15.166 52.666 29.499 69.999s33.833 30 58.5 38s56.667 13.667 96 17v-33
c-32 -2.66699 -58.167 -7.16699 -78.5 -13.5s-36.166 -16.166 -47.499 -29.499s-19 -31.5 -23 -54.5s-6 -52.5 -6 -88.5v-52h128v-36h-128v-504h-38v504z" />
    <glyph glyph-name="f_t" unicode="ft" horiz-adv-x="649" 
d="M119 504l-102 0.000976562v36h103v34c0 45.333 2.66699 82.666 8 111.999s15.166 52.666 29.499 69.999s33.833 30 58.5 38s56.667 13.667 96 17v-33c-32 -2.66699 -58.167 -7.16699 -78.5 -13.5s-36.166 -16.166 -47.499 -29.499s-19 -31.5 -23 -54.5s-6 -52.5 -6 -88.5
v-52h128v-36h-128v-504h-38v504zM561 -5.99902c-87.333 0 -130.999 47 -130.999 141v368h-116v37h117l5 123l32 7v-130h165v-37h-165v-364c0 -72 32.667 -108 98 -108c10 0 21.167 0.833008 33.5 2.5s24.166 4.16699 35.499 7.5v-37c-27.333 -6.66699 -52 -10 -74 -10z" />
    <glyph glyph-name=".notdef" horiz-adv-x="694" 
d="M102 1030h490v-1250h-490v1250zM551 -179v1169h-408v-1169h408z" />
    <glyph glyph-name="NULL" horiz-adv-x="0" 
 />
    <glyph glyph-name="NULL" horiz-adv-x="0" 
 />
    <glyph glyph-name="nonmarkingreturn" unicode="&#xd;" horiz-adv-x="282" 
 />
    <glyph glyph-name="space" unicode=" " horiz-adv-x="233" 
 />
    <glyph glyph-name="exclam" unicode="!" horiz-adv-x="216" 
d="M112 6c-20.667 0 -31 10 -31 30c0 21.333 10.333 32 31 32c9.33301 0 16.833 -3 22.5 -9s8.5 -13.667 8.5 -23c0 -20 -10.333 -30 -31 -30zM94 164l-5 566v10h38v-10l-6 -566v-14h-27v14z" />
    <glyph glyph-name="quotedbl" unicode="&#x22;" horiz-adv-x="318" 
d="M111 808v-4l-21 -324h-19v328h40zM257 808v-4l-21 -324h-19v328h40z" />
    <glyph glyph-name="numbersign" unicode="#" horiz-adv-x="508" 
d="M303 244h-131l-20 -244h-38l20 244h-83v37h86l14 178h-100v37h103l21 244h37l-20 -244h131l21 244h36l-20 -244h97v-37h-100l-14 -178h113v-37h-116l-20 -244h-37zM175 281h131l14 178h-131z" />
    <glyph glyph-name="dollar" unicode="$" horiz-adv-x="515" 
d="M247 -12c-14.667 0 -30.666 0.834961 -47.999 2.50195s-35 3.83398 -53 6.50098s-35.833 6 -53.5 10s-34.167 8.33301 -49.5 13l4 36c14 -4 29.667 -8 47 -12s35 -7.33301 53 -10s35.667 -4.83398 53 -6.50098s33.333 -2.5 48 -2.5c59.333 0 105.5 13.333 138.5 40
s49.5 64.667 49.5 114c0 24.667 -4.33301 46.167 -13 64.5s-21 34.333 -37 48s-35.167 25.834 -57.5 36.501s-47.5 20.667 -75.5 30c-36 12 -66.333 24.667 -91 38s-44.834 27.833 -60.501 43.5s-26.834 33.167 -33.501 52.5s-10 41.666 -10 66.999
c0 27.333 4.5 52.333 13.5 75s21.833 42.334 38.5 59.001s36.667 30.167 60 40.5s49.666 16.833 78.999 19.5v137h39v-135c48 -1.33301 100.333 -8.33301 157 -21l-4 -37c-30.667 7.33301 -59.667 12.666 -87 15.999s-52 5 -74 5c-28 0 -53.167 -3.83301 -75.5 -11.5
s-41.5 -18.334 -57.5 -32.001s-28.333 -30.334 -37 -50.001s-13 -41.5 -13 -65.5c0 -20 2.83301 -37.833 8.5 -53.5s15.334 -30 29.001 -43s31.5 -25.167 53.5 -36.5s49.333 -22.333 82 -33c31.333 -10.667 59.666 -21.834 84.999 -33.501s46.833 -25.667 64.5 -42
s31.334 -35.5 41.001 -57.5s14.5 -48.667 14.5 -80c0 -54 -15.667 -97.167 -47 -129.5s-75.666 -52.166 -132.999 -59.499v-141h-38v138h-10v0z" />
    <glyph glyph-name="percent" unicode="%" horiz-adv-x="841" 
d="M198 282c-51.333 0 -90 19.667 -116 59s-39 97.666 -39 174.999s13 135.666 39 174.999s64.667 59 116 59s89.833 -19.667 115.5 -59s38.5 -97.666 38.5 -174.999s-12.833 -135.666 -38.5 -174.999s-64.167 -59 -115.5 -59zM198 318c38.667 0 67.833 16.667 87.5 50
s29.5 82.666 29.5 147.999c0 64.667 -10 113.834 -30 147.501s-49 50.5 -87 50.5c-39.333 0 -69 -16.833 -89 -50.5s-30 -82.834 -30 -147.501c0 -65.333 9.83301 -114.666 29.5 -147.999s49.5 -50 89.5 -50zM644.999 -12c-51.333 0 -90 19.667 -116 59
s-39 97.666 -39 174.999c0 76.667 13 134.834 39 174.501s64.667 59.5 116 59.5s89.833 -19.833 115.5 -59.5s38.5 -97.834 38.5 -174.501c0 -77.333 -12.833 -135.666 -38.5 -174.999s-64.167 -59 -115.5 -59zM644.999 24c39.333 0 68.833 16.667 88.5 50
s29.5 82.666 29.5 147.999c0 64.667 -10 113.834 -30 147.501s-49.333 50.5 -88 50.5c-39.333 0 -69 -16.833 -89 -50.5s-30 -82.834 -30 -147.501c0 -65.333 9.83301 -114.666 29.5 -147.999s49.5 -50 89.5 -50zM557.999 740h39l-316 -740h-40z" />
    <glyph glyph-name="ampersand" unicode="&#x26;" horiz-adv-x="654" 
d="M292 -12c-74.667 0 -133.167 19.165 -175.5 57.498s-63.5 91.833 -63.5 160.5c0 92 40.667 157 122 195c-15.333 22.667 -26.166 46.5 -32.499 71.5s-9.5 53.5 -9.5 85.5c0 64.667 16.667 113.334 50 146.001s82.333 49 147 49c23.333 0 47.833 -3 73.5 -9
s54.5 -15.667 86.5 -29v-6l-12 -27h-6c-29.333 12.667 -55 21.667 -77 27s-43.667 8 -65 8c-106 0 -159 -53.333 -159 -160c0 -28 3.66699 -53.833 11 -77.5s19.5 -46.5 36.5 -68.5s39.167 -43.667 66.5 -65s60.666 -43.666 99.999 -66.999l133 -79
c10.667 38.667 16 86 16 142v66h37v-66c0 -64 -6.33301 -118 -19 -162l78 -46v-6l-19 -25h-7l-65 38c-40.667 -102 -123 -153 -247 -153zM361 248.998c-38 22.667 -70.333 43.833 -97 63.5s-48.667 39.5 -66 59.5c-71.333 -34.667 -107 -90 -107 -166
c0 -56.667 17.833 -101 53.5 -133s84.834 -48 147.501 -48c107.333 0 178.666 45.333 213.999 136z" />
    <glyph glyph-name="quotesingle" unicode="'" horiz-adv-x="171" 
d="M111 808v-4l-21 -324h-19v328h40z" />
    <glyph glyph-name="parenleft" unicode="(" horiz-adv-x="265" 
d="M204 -160c-50.667 73.333 -89.334 153.831 -116.001 241.498s-40 178.5 -40 272.5s13.333 184.833 40 272.5s65.334 168.167 116.001 241.5h36v-4c-50 -72 -88.167 -151.167 -114.5 -237.5s-39.5 -177.166 -39.5 -272.499s13.167 -186.166 39.5 -272.499
s64.5 -165.5 114.5 -237.5v-4h-36v0z" />
    <glyph glyph-name="parenright" unicode=")" horiz-adv-x="265" 
d="M24 -160v4.00195c50 72 88.167 151.167 114.5 237.5s39.5 177.166 39.5 272.499s-13.167 186.166 -39.5 272.499s-64.5 165.5 -114.5 237.5v4h37c50 -73.333 88.333 -153.833 115 -241.5s40 -178.5 40 -272.5s-13.333 -184.833 -40 -272.5s-65 -168.167 -115 -241.5h-37z
" />
    <glyph glyph-name="asterisk" unicode="*" horiz-adv-x="484" 
d="M112 484l49 69l67 77l-99 22l-80 25l11 34l81 -25l93 -40l-10 102v84h36v-84l-10 -102l94 40l80 25l11 -34l-80 -25l-100 -22l68 -77l49 -69l-28 -20l-49 68l-53 90l-53 -90l-48 -68z" />
    <glyph glyph-name="plus" unicode="+" horiz-adv-x="470" 
d="M52 388h165v175h36v-175h165v-36h-165v-175h-36v175h-165v36z" />
    <glyph glyph-name="comma" unicode="," horiz-adv-x="193" 
d="M33 -145l46 208h42l-57 -218z" />
    <glyph glyph-name="hyphen" unicode="-" horiz-adv-x="385" 
d="M69 299h247v-38h-247v38z" />
    <glyph glyph-name="period" unicode="." horiz-adv-x="201" 
d="M100 -1c-21.333 0 -32 11 -32 33s10.667 33 32 33c10.667 0 19 -3 25 -9s9 -14 9 -24c0 -22 -11.333 -33 -34 -33z" />
    <glyph glyph-name="slash" unicode="/" horiz-adv-x="324" 
d="M252 740h37l-217 -861h-37z" />
    <glyph glyph-name="zero" unicode="0" horiz-adv-x="591" 
d="M295 -11c-78.667 0 -137.834 31.833 -177.501 95.5s-59.5 158.5 -59.5 284.5s19.833 221 59.5 285s98.834 96 177.501 96s138 -32 178 -96s60 -159 60 -285c0 -125.333 -20 -220 -60 -284s-99.333 -96 -178 -96zM295 26c66.667 0 116.667 28.833 150 86.5
s50 143.167 50 256.5s-16.833 199 -50.5 257s-83.5 87 -149.5 87c-65.333 0 -114.833 -29 -148.5 -87s-50.5 -143.667 -50.5 -257c0 -114 16.667 -199.667 50 -257s83 -86 149 -86z" />
    <glyph glyph-name="one" unicode="1" horiz-adv-x="343" 
d="M209 685h-4l-161 -103h-6l-12 24v4l195 130h26v-740h-38v685z" />
    <glyph glyph-name="two" unicode="2" horiz-adv-x="478" 
d="M49 91c0 29.333 3.33594 56.335 10.0029 81.002s17.5 48.334 32.5 71.001s34.167 44.5 57.5 65.5s52 42.5 86 64.5c26.667 18 49.5 34.833 68.5 50.5s34.167 31.167 45.5 46.5s19.666 31.166 24.999 47.499s8 33.5 8 51.5c0 94.667 -50 142 -150 142
c-21.333 0 -44.5 -2 -69.5 -6s-53.5 -10.667 -85.5 -20l-8 37c30.667 9.33301 59.334 16 86.001 20s52.667 6 78 6c124.667 0 187 -59.333 187 -178c0 -22.667 -2.83301 -43.334 -8.5 -62.001s-14.834 -36.834 -27.501 -54.501s-29.334 -35.5 -50.001 -53.5
s-46.334 -37 -77.001 -57c-31.333 -21.333 -57.833 -41.5 -79.5 -60.5s-39.167 -38.333 -52.5 -58s-23 -40.167 -29 -61.5s-9 -45 -9 -71v-53h336v-38h-374v90z" />
    <glyph glyph-name="three" unicode="3" horiz-adv-x="456" 
d="M175 -9c-37.333 0 -76.668 4.66895 -118.001 14.002v35h6c14.667 -4 32.5 -7.16699 53.5 -9.5s40.167 -3.5 57.5 -3.5c59.333 0 105.5 14.667 138.5 44s49.5 70.666 49.5 123.999c0 54.667 -16.167 96.167 -48.5 124.5s-79.833 42.5 -142.5 42.5h-47v36h47
c54 0 95.833 14 125.5 42s44.5 67 44.5 117c0 51.333 -13.667 90.166 -41 116.499s-68 39.5 -122 39.5c-28.667 0 -66 -4 -112 -12h-7l-5 33c40.667 10.667 82.667 16 126 16c64.667 0 114.334 -16.833 149.001 -50.5s52 -81.5 52 -143.5c0 -44 -10 -81 -30 -111
s-48.333 -50.333 -85 -61v-4c44 -10 77.5 -30.833 100.5 -62.5s34.5 -73.167 34.5 -124.5c0 -64.667 -19.5 -114.5 -58.5 -149.5s-94.833 -52.5 -167.5 -52.5z" />
    <glyph glyph-name="four" unicode="4" horiz-adv-x="532" 
d="M26 210v4l248 536h6l26 -10v-5l-232 -503v-5h290v11l12 276h26v-287h99v-36h-99v-191h-38v191h-320z" />
    <glyph glyph-name="five" unicode="5" horiz-adv-x="460" 
d="M178 -12c-19.333 0 -39.668 1.33398 -61.001 4.00098s-42.666 6.33398 -63.999 11.001v36h8c21.333 -4.66699 41.5 -8.16699 60.5 -10.5s37.5 -3.5 55.5 -3.5c64.667 0 113.334 15 146.001 45s49 77.333 49 142c0 62 -19.167 106.5 -57.5 133.5s-96.5 40.5 -174.5 40.5
h-66l-4 4l26 350h289v-37h-255l-20 -281c53.333 -0.666992 99 -4.83398 137 -12.501s69.167 -19.667 93.5 -36s42.166 -37.833 53.499 -64.5s17 -59.334 17 -98.001c0 -75.333 -20 -131.333 -60 -168s-97.667 -55 -173 -55z" />
    <glyph glyph-name="six" unicode="6" horiz-adv-x="547" 
d="M288 -12c-154 0 -231 112.002 -231 336.002c0 67.333 6.5 127.5 19.5 180.5s32 97.833 57 134.5s55.333 64.667 91 84s76.5 29 122.5 29c18 0 36 -1.5 54 -4.5s37.333 -7.16699 58 -12.5l-2 -38c-20.667 6.66699 -39.5 11.334 -56.5 14.001s-34.833 4 -53.5 4
c-37.333 0 -71 -8 -101 -24s-55.667 -39 -77 -69s-38.333 -66.833 -51 -110.5s-20.334 -92.834 -23.001 -147.501c29.333 25.333 60.833 45.333 94.5 60s68.167 22 103.5 22c30.667 0 58.834 -4.83301 84.501 -14.5s47.834 -23.667 66.501 -42s33.167 -40.833 43.5 -67.5
s15.5 -57 15.5 -91c0 -36 -5.16699 -68.833 -15.5 -98.5s-24.833 -55.334 -43.5 -77.001s-41.334 -38.334 -68.001 -50.001s-56 -17.5 -88 -17.5zM287 409.002c-31.333 0 -64.167 -7.66602 -98.5 -22.999s-65.5 -36.333 -93.5 -63c0 -101.333 16 -176.333 48 -225
s80.333 -73 145 -73c26.667 0 50.834 5 72.501 15s40.167 24 55.5 42s27.166 39.667 35.499 65s12.5 53.666 12.5 84.999c0 56 -15.5 99.5 -46.5 130.5s-74.5 46.5 -130.5 46.5z" />
    <glyph glyph-name="seven" unicode="7" horiz-adv-x="416" 
d="M131 -9l-29 9v11l255 692h-325l-5 33l1 4h354l11 -20v-29l-252 -693z" />
    <glyph glyph-name="eight" unicode="8" horiz-adv-x="544" 
d="M272 -4c-32.667 0 -62.333 4.16797 -89 12.501s-49.5 20.5 -68.5 36.5s-33.667 35.833 -44 59.5s-15.5 51.167 -15.5 82.5c0 30.667 4.33301 57.167 13 79.5s19.667 41.666 33 57.999s27.833 29.666 43.5 39.999s30.5 18.833 44.5 25.5c-34.667 16.667 -62 38.5 -82 65.5
s-30 63.5 -30 109.5c0 61.333 17.833 107.5 53.5 138.5s82.834 46.5 141.501 46.5s105.667 -15.333 141 -46s53 -77 53 -139c0 -28.667 -3.83301 -53.667 -11.5 -75s-17.334 -39.833 -29.001 -55.5s-24.5 -28.667 -38.5 -39s-27.333 -18.5 -40 -24.5
c21.333 -8.66699 40.833 -18.5 58.5 -29.5s32.667 -23.833 45 -38.5s22 -31.667 29 -51s10.5 -41.666 10.5 -66.999c0 -30 -5.16699 -56.667 -15.5 -80s-25 -43 -44 -59s-42 -28.333 -69 -37s-56.833 -13 -89.5 -13zM278.001 357.001l-25.499 7.50098
c-8.33301 2.33301 -16.5 5.16602 -24.5 8.49902c-13.333 -6 -27.833 -13.333 -43.5 -22s-30.334 -20.167 -44.001 -34.5s-25 -31.833 -34 -52.5s-13.5 -46 -13.5 -76c0 -50.667 16.333 -89.167 49 -115.5s76 -39.5 130 -39.5s97.5 13.167 130.5 39.5s49.5 63.5 49.5 111.5
c0 26 -4.16699 48.333 -12.5 67s-20 34.5 -35 47.5s-33.167 24 -54.5 33s-45.333 17.5 -72 25.5zM303.002 387.002c12 4.66699 25.165 11.165 39.498 19.498s27.833 19.5 40.5 33.5s23.334 31.167 32.001 51.5s13 44.5 13 72.5c0 50 -14.167 87.333 -42.5 112
s-66.166 37 -113.499 37s-85.5 -12.5 -114.5 -37.5s-43.5 -61.833 -43.5 -110.5c0 -26 4.33301 -48.167 13 -66.5s20.667 -34.166 36 -47.499s33.833 -24.666 55.5 -33.999s45.5 -18 71.5 -26z" />
    <glyph glyph-name="nine" unicode="9" horiz-adv-x="547" 
d="M259 752c154 0 231 -112 231 -336c0 -67.333 -6.5 -127.5 -19.5 -180.5s-32 -97.833 -57 -134.5s-55.333 -64.667 -91 -84s-76.5 -29 -122.5 -29c-18 0 -36 1.5 -54 4.5s-37.333 7.16699 -58 12.5l2 38c20.667 -6.66699 39.5 -11.334 56.5 -14.001s34.833 -4 53.5 -4
c37.333 0 71 8 101 24s55.667 39 77 69s38.333 66.667 51 110s20.334 92.666 23.001 147.999c-29.333 -25.333 -60.833 -45.333 -94.5 -60s-68.167 -22 -103.5 -22c-30.667 0 -58.834 4.83301 -84.501 14.5s-47.834 23.667 -66.501 42s-33.167 40.833 -43.5 67.5
s-15.5 57 -15.5 91c0 36 5.16699 68.833 15.5 98.5s24.833 55.334 43.5 77.001s41.334 38.334 68.001 50.001s56 17.5 88 17.5zM260 331c31.333 0 64.167 7.66797 98.5 23.001s65.5 36.333 93.5 63c0 101.333 -16 176.333 -48 225s-80.333 73 -145 73
c-26.667 0 -50.834 -5 -72.501 -15s-40.167 -24 -55.5 -42s-27.166 -39.833 -35.499 -65.5s-12.5 -53.834 -12.5 -84.501c0 -56 15.5 -99.5 46.5 -130.5s74.5 -46.5 130.5 -46.5z" />
    <glyph glyph-name="colon" unicode=":" horiz-adv-x="204" 
d="M101 -1c-21.333 0 -32 11 -32 33s10.667 33 32 33c10.667 0 19 -3 25 -9s9 -14 9 -24c0 -22 -11.333 -33 -34 -33zM101 476c-21.333 0 -32 11 -32 33s10.667 33 32 33c10.667 0 19 -3 25 -9s9 -14 9 -24c0 -22 -11.333 -33 -34 -33z" />
    <glyph glyph-name="semicolon" unicode=";" horiz-adv-x="237" 
d="M60 -145l46 208h42l-57 -218zM123 476c-21.333 0 -32 11 -32 33s10.667 33 32 33c10.667 0 19 -3 25 -9s9 -14 9 -24c0 -22 -11.333 -33 -34 -33z" />
    <glyph glyph-name="less" unicode="&#x3c;" horiz-adv-x="487" 
d="M49 351v32l368 165v-40l-319 -141l316 -141v-40z" />
    <glyph glyph-name="equal" unicode="=" horiz-adv-x="508" 
d="M72 271h365v-37h-365v37zM72 482h365v-36h-365v36z" />
    <glyph glyph-name="greater" unicode="&#x3e;" horiz-adv-x="488" 
d="M74 226l315 141l-318 141v40l368 -165v-32l-365 -165v40z" />
    <glyph glyph-name="question" unicode="?" horiz-adv-x="416" 
d="M141 175l-1.99707 194.999c20 4.66699 41.833 11 65.5 19s45.5 18.833 65.5 32.5s36.833 31.167 50.5 52.5s20.5 48.333 20.5 81c0 30.667 -4.83301 56.334 -14.5 77.001s-22.167 37.167 -37.5 49.5s-32.333 21 -51 26s-37.334 7.5 -56.001 7.5
c-23.333 0 -46.5 -2.5 -69.5 -7.5s-45.833 -11.167 -68.5 -18.5l-13 33c21.333 8.66699 45.166 15.834 71.499 21.501s53.166 8.5 80.499 8.5c23.333 0 46.666 -3.16699 69.999 -9.5s44.333 -17 63 -32s33.834 -35 45.501 -60s17.5 -56.5 17.5 -94.5
c0 -36.667 -6.66699 -67.334 -20 -92.001s-30 -45.167 -50 -61.5s-41.833 -29.333 -65.5 -39s-46.167 -17.5 -67.5 -23.5l1 -165v-20h-36v20zM160.003 1.99902c-20.667 0 -31 9.99902 -31 29.999c0 21.333 10.333 32 31 32c9.33301 0 17 -3 23 -9s9 -13.667 9 -23
s-3 -16.666 -9 -21.999s-13.667 -8 -23 -8z" />
    <glyph glyph-name="at" unicode="@" horiz-adv-x="844" 
d="M409 -136c-50 0 -96.666 7.83301 -139.999 23.5s-81 39.667 -113 72s-57.167 73.5 -75.5 123.5s-27.5 109.333 -27.5 178c0 66 9 124.667 27 176s43.667 94.833 77 130.5s73.5 62.667 120.5 81s99.5 27.5 157.5 27.5c58.667 0 109.834 -8.66699 153.501 -26
s80 -42 109 -74s50.667 -70.833 65 -116.5s21.5 -96.834 21.5 -153.501c0 -79.333 -13.667 -141.333 -41 -186s-68 -67 -122 -67c-30 0 -54.167 6.66699 -72.5 20s-29.166 37.333 -32.499 72h-6c-10 -14 -21.5 -26.5 -34.5 -37.5s-26.5 -20 -40.5 -27
s-28.167 -12.333 -42.5 -16s-27.833 -5.5 -40.5 -5.5c-22.667 0 -42.334 4.5 -59.001 13.5s-30.334 21.167 -41.001 36.5s-18.5 33.5 -23.5 54.5s-7.5 43.5 -7.5 67.5c0 38 5.66699 73 17 105s27.5 59.833 48.5 83.5s46.167 42 75.5 55s62 19.5 98 19.5
c38.667 0 84 -10 136 -30l-37 -213l-7.5 -41c-2.33301 -13.333 -3.5 -25.666 -3.5 -36.999c0 -27.333 5.16699 -48.333 15.5 -63s29.5 -22 57.5 -22c41.333 0 72.666 19.167 93.999 57.5s32 91.833 32 160.5c0 52 -6.33301 98.667 -19 140s-31.834 76.333 -57.501 105
s-58 50.667 -97 66s-85.167 23 -138.5 23c-52 0 -99.333 -8.33301 -142 -25s-79.167 -41.167 -109.5 -73.5s-53.666 -72 -69.999 -119s-24.5 -100.833 -24.5 -161.5c0 -62.667 8.16699 -116.667 24.5 -162s38.833 -82.833 67.5 -112.5s62.5 -51.5 101.5 -65.5
s81.167 -21 126.5 -21c30 0 60.833 2.83301 92.5 8.5s63.5 13.5 95.5 23.5l14 -34c-34 -10 -68.167 -18.167 -102.5 -24.5s-67.5 -9.5 -99.5 -9.5zM353.001 94c16.667 0 34.001 3.33203 52.001 9.99902s35 16.667 51 30s30 30.333 42 51s20.333 45 25 73l31 183
c-35.333 12 -66.666 18 -93.999 18c-30.667 0 -58.5 -5.66699 -83.5 -17s-46.333 -27.166 -64 -47.499s-31.334 -44.5 -41.001 -72.5s-14.5 -58.333 -14.5 -91c0 -38.667 7.66699 -71.167 23 -97.5s39.666 -39.5 72.999 -39.5z" />
    <glyph glyph-name="A" unicode="A" horiz-adv-x="603" 
d="M11 6l262 734h56l263 -734v-6h-38l-89 247h-328l-88 -247h-38v6zM452 284l-108 303l-41 116h-4l-40 -116l-109 -303h302z" />
    <glyph glyph-name="B" unicode="B" horiz-adv-x="603" 
d="M294 -10c-30 0 -63.3301 1.33203 -99.9971 3.99902s-70.334 6.33398 -101.001 11.001v731l61 5.5c18 1.66699 34.5 3 49.5 4s28.833 1.83301 41.5 2.5s25.667 1 39 1c85.333 0 147.166 -15.5 185.499 -46.5s57.5 -80.5 57.5 -148.5c0 -47.333 -11.333 -86.5 -34 -117.5
s-53.334 -50.167 -92.001 -57.5v-4c48 -8 85 -27.833 111 -59.5s39 -73.167 39 -124.5c0 -134 -85.667 -201 -257 -201zM294.003 24.999c74.667 0 129.667 13.499 165 40.499s53 68.833 53 125.5s-17.167 98.5 -51.5 125.5s-88.5 40.5 -162.5 40.5h-168v-321
c8 -1.33301 18.167 -2.66602 30.5 -3.99902s25.833 -2.5 40.5 -3.5s30 -1.83301 46 -2.5s31.667 -1 47 -1zM297.003 392.998c68.667 0 117.665 12.332 146.998 36.999s44 65.667 44 123c0 56.667 -15.833 97.5 -47.5 122.5s-83.5 37.5 -155.5 37.5
c-31.333 0 -59.166 -0.666992 -83.499 -2s-48.166 -3.66602 -71.499 -6.99902v-311h167z" />
    <glyph glyph-name="C" unicode="C" horiz-adv-x="546" 
d="M365 -9c-105.333 1.33301 -183.333 32.6689 -234 94.002s-76 156 -76 284c0 130.667 25.5 226.667 76.5 288s130.167 92 237.5 92c19.333 0 41.5 -1.33301 66.5 -4s49.167 -6.33398 72.5 -11.001v-38c-22 5.33301 -45.167 9.16602 -69.5 11.499s-46.833 3.5 -67.5 3.5
c-94 0 -163.5 -27.833 -208.5 -83.5s-67.5 -141.834 -67.5 -258.501c0 -226.667 89.667 -340 269 -340c8 0 18.167 0.5 30.5 1.5s25.333 2.16699 39 3.5s27 3 40 5s24.5 4 34.5 6v-36c-20 -5.33301 -43 -9.66602 -69 -12.999s-50.667 -5 -74 -5z" />
    <glyph glyph-name="D" unicode="D" horiz-adv-x="655" 
d="M240 -13c-30.667 0 -59 1 -85 3s-46.667 5 -62 9v737c12.667 2 26.667 3.83301 42 5.5s30.5 3 45.5 4s29.667 1.83301 44 2.5s26.833 1 37.5 1c116 0 201.333 -30.833 256 -92.5s82 -157.167 82 -286.5c0 -131.333 -29 -228 -87 -290s-149 -93 -273 -93zM244 24
c107.333 0 186.999 28.333 238.999 85s78 143.667 78 261c0 118 -24.167 204.333 -72.5 259s-124.5 82 -228.5 82c-18.667 0 -40 -0.666992 -64 -2s-45.667 -3.33301 -65 -6v-671c22.667 -3.33301 42.334 -5.5 59.001 -6.5s34.667 -1.5 54 -1.5z" />
    <glyph glyph-name="E" unicode="E" horiz-adv-x="557" 
d="M93 740h406v-37h-368v-308h343v-37h-343v-321h376v-37h-414v740z" />
    <glyph glyph-name="F" unicode="F" horiz-adv-x="525" 
d="M93 740h396v-37h-358v-308h331v-37h-331v-358h-38v740z" />
    <glyph glyph-name="G" unicode="G" horiz-adv-x="605" 
d="M372 -9c-107.333 1.33301 -186.999 32.667 -238.999 94s-78 156 -78 284c0 130.667 26 226.667 78 288s133.333 92 244 92c22 0 46.833 -1.83301 74.5 -5.5s56.167 -8.83398 85.5 -15.501v-38c-33.333 8 -61.833 13.5 -85.5 16.5s-47.834 4.5 -72.501 4.5
c-97.333 0 -169 -27.667 -215 -83s-69 -141.666 -69 -258.999c0 -226.667 92 -340 276 -340c15.333 0 35.333 1.33301 60 4s48 6 70 10v333h37v-362c-28 -7.33301 -56.5 -13 -85.5 -17s-55.833 -6 -80.5 -6z" />
    <glyph glyph-name="H" unicode="H" horiz-adv-x="692" 
d="M93 740h38v-343h431v343h38v-740h-38v360h-431v-360h-38v740z" />
    <glyph glyph-name="I" unicode="I" horiz-adv-x="223" 
d="M93 740h38v-740h-38v740z" />
    <glyph glyph-name="J" unicode="J" horiz-adv-x="223" 
d="M13 -160c16 33.333 29.3311 63.665 39.998 90.998s19 53.833 25 79.5s10.333 52 13 79s4 57.167 4 90.5v560h38v-560c0 -32 -1.66699 -62.167 -5 -90.5s-8.66602 -56.666 -15.999 -84.999s-16.666 -57.166 -27.999 -86.499s-25.333 -61 -42 -95z" />
    <glyph glyph-name="K" unicode="K" horiz-adv-x="599" 
d="M93 740h38v-344h137l256 344h47l-248 -334l-24 -25v-5l27 -23l264 -353h-46l-269 359h-144v-359h-38v740z" />
    <glyph glyph-name="L" unicode="L" horiz-adv-x="464" 
d="M93 740h38v-703h319v-37h-357v740z" />
    <glyph glyph-name="M" unicode="M" horiz-adv-x="847" 
d="M93 740h50l222 -531l56 -138h4l57 138l221 531h51v-740h-37v668h-5l-73 -174l-193 -465h-45l-194 465l-73 174h-4v-668h-37v740z" />
    <glyph glyph-name="N" unicode="N" horiz-adv-x="721" 
d="M93 740h40l397 -588l56 -88l4 1v675h38v-740h-41l-399 589l-54 85h-4v-674h-37v740z" />
    <glyph glyph-name="O" unicode="O" horiz-adv-x="675" 
d="M338 -10c-92 0 -162.167 31.666 -210.5 94.999s-72.5 158 -72.5 284c0 126.667 24.167 221.834 72.5 285.501s118.5 95.5 210.5 95.5c91.333 0 161.166 -32 209.499 -96s72.5 -159 72.5 -285s-24.167 -220.667 -72.5 -284s-118.166 -95 -209.499 -95zM338 26.999
c80.667 0 141.5 28.668 182.5 86.001s61.5 142.666 61.5 255.999c0 114 -20.667 199.833 -62 257.5s-102 86.5 -182 86.5c-162.667 0 -244 -114.667 -244 -344c0 -228 81.333 -342 244 -342z" />
    <glyph glyph-name="P" unicode="P" horiz-adv-x="575" 
d="M93 735c28 5.33301 54.8359 9.33301 80.5029 12s50.5 4 74.5 4c99.333 0 172.166 -20 218.499 -60s69.5 -103.333 69.5 -190c0 -87.333 -23 -150.833 -69 -190.5s-119.667 -59.5 -221 -59.5c-16.667 0 -34.334 0.5 -53.001 1.5s-39.334 3.16699 -62.001 6.5v-259h-38v735
zM252.003 288c43.333 0 80.498 3.99902 111.498 11.999s56.5 20.667 76.5 38s34.667 39.5 44 66.5s14 59.167 14 96.5c0 74.667 -19.5 128.834 -58.5 162.501s-101.5 50.5 -187.5 50.5c-19.333 0 -39.666 -0.833008 -60.999 -2.5s-41.333 -4.16699 -60 -7.5v-407
c6.66699 -1.33301 14.834 -2.5 24.501 -3.5s20 -2 31 -3s22.167 -1.66699 33.5 -2s22 -0.5 32 -0.5z" />
    <glyph glyph-name="Q" unicode="Q" horiz-adv-x="672" 
d="M607 -95c-102.667 13.333 -189.168 30.167 -259.501 50.5s-127.333 47.833 -171 82.5s-75.167 78.667 -94.5 132s-29 119.666 -29 198.999c0 125.333 23.833 220.166 71.5 284.499s117.834 96.5 210.501 96.5s163 -32.167 211 -96.5s72 -159.166 72 -284.499
c0 -122.667 -24.333 -215.667 -73 -279s-119.667 -95.333 -213 -96v-4c40 -11.333 83 -20.666 129 -27.999s96 -13.333 150 -18zM334.999 27.001c80.667 0 141.5 28.668 182.5 86.001s61.5 142.666 61.5 255.999c0 114 -20.5 199.833 -61.5 257.5s-101.833 86.5 -182.5 86.5
c-162.667 0 -244 -114.667 -244 -344c0 -228 81.333 -342 244 -342z" />
    <glyph glyph-name="R" unicode="R" horiz-adv-x="593" 
d="M338 293c-28 -4 -58.666 -6 -91.999 -6c-17.333 0 -35.5 0.5 -54.5 1.5s-39.167 2.83301 -60.5 5.5v-294h-38v735c28 5.33301 54.833 9.33301 80.5 12s50.5 4 74.5 4c100 0 173 -18.5 219 -55.5s69 -95.833 69 -176.5c0 -61.333 -12.833 -109.833 -38.5 -145.5
s-65.834 -60.167 -120.501 -73.5l174 -300h-43zM252.001 323c43.333 0 80.499 3.66699 111.499 11s56.5 19 76.5 35s34.667 36.333 44 61s14 54.334 14 89.001c0 68 -19.5 117.5 -58.5 148.5s-101.5 46.5 -187.5 46.5c-18.667 0 -38.667 -0.833008 -60 -2.5
s-41.666 -4.16699 -60.999 -7.5v-372c14 -2.66699 32.333 -4.83398 55 -6.50098s44.667 -2.5 66 -2.5z" />
    <glyph glyph-name="S" unicode="S" horiz-adv-x="515" 
d="M246 -12c-14.667 0 -30.665 0.838867 -47.998 2.50586s-35 3.83398 -53 6.50098s-35.833 6 -53.5 10s-34.167 8.33301 -49.5 13l4 36c14 -4 29.667 -8 47 -12s35 -7.33301 53 -10s35.667 -4.83398 53 -6.50098s33.333 -2.5 48 -2.5c59.333 0 105.5 13.333 138.5 40
s49.5 64.667 49.5 114c0 24.667 -4.33301 46.167 -13 64.5s-21 34.333 -37 48s-35.167 25.834 -57.5 36.501s-47.5 20.667 -75.5 30c-36 12 -66.333 24.667 -91 38s-44.834 27.833 -60.501 43.5s-26.834 33.167 -33.501 52.5s-10 41.666 -10 66.999
c0 29.333 5.33301 56.166 16 80.499s25.667 45 45 62s42.5 30.167 69.5 39.5s57.167 14 90.5 14c50.667 0 106 -7 166 -21l-4 -37c-30.667 7.33301 -59.667 12.666 -87 15.999s-52 5 -74 5c-28 0 -53.167 -3.83301 -75.5 -11.5s-41.5 -18.334 -57.5 -32.001
s-28.333 -30.334 -37 -50.001s-13 -41.5 -13 -65.5c0 -20 2.83301 -37.833 8.5 -53.5s15.334 -30 29.001 -43s31.5 -25.167 53.5 -36.5s49.333 -22.333 82 -33c31.333 -10.667 59.666 -21.834 84.999 -33.501s46.833 -25.667 64.5 -42s31.334 -35.5 41.001 -57.5
s14.5 -48.667 14.5 -80c0 -60.667 -19.833 -107.834 -59.5 -141.501s-95.834 -50.5 -168.501 -50.5z" />
    <glyph glyph-name="T" unicode="T" horiz-adv-x="533" 
d="M247 703h-233v37h504v-37h-233v-703h-38v703z" />
    <glyph glyph-name="U" unicode="U" horiz-adv-x="692" 
d="M346 -10c-44.667 0 -83.3359 5.66699 -116.003 17s-59.667 29.333 -81 54s-37.166 56.334 -47.499 95.001s-15.5 85 -15.5 139v445h38v-442c0 -49.333 4.5 -91.166 13.5 -125.499s22.833 -62.166 41.5 -83.499s41.834 -37 69.501 -47s60.167 -15 97.5 -15
s69.833 5 97.5 15s50.834 25.667 69.501 47s32.5 49.166 41.5 83.499s13.5 76.166 13.5 125.499v442h38v-445c0 -54 -5.16699 -100.333 -15.5 -139s-26.166 -70.334 -47.499 -95.001s-48.333 -42.667 -81 -54s-71.334 -17 -116.001 -17z" />
    <glyph glyph-name="V" unicode="V" horiz-adv-x="609" 
d="M11 740h40l205 -565l47 -131h3l47 131l205 565h40l-268 -740h-51z" />
    <glyph glyph-name="W" unicode="W" horiz-adv-x="928" 
d="M22 740h40l147 -547l38 -145h4l40 145l154 547h43l148 -547l38 -145h4l39 145l154 547h39l-208 -740h-52l-154 568l-28 111h-4l-30 -112l-159 -567h-53z" />
    <glyph glyph-name="X" unicode="X" horiz-adv-x="599" 
d="M274 377l-251 363h46l221 -319l9 -17h3l9 17l220 319h46l-253 -366l262 -374h-47l-230 330l-9 16h-3l-9 -16l-228 -330h-47z" />
    <glyph glyph-name="Y" unicode="Y" horiz-adv-x="556" 
d="M259 251l-252 489h42l198 -384l29 -64h3l29 64l198 384h42l-251 -487v-253h-38v251z" />
    <glyph glyph-name="Z" unicode="Z" horiz-adv-x="514" 
d="M33 29l390 670v4h-381v37h431v-28l-390 -671v-4h397v-37h-447v29z" />
    <glyph glyph-name="bracketleft" unicode="[" horiz-adv-x="288" 
d="M88 868h166v-36h-129v-956h129v-36h-166v1028z" />
    <glyph glyph-name="backslash" unicode="\" horiz-adv-x="320" 
d="M34 740h34l217 -860h-34z" />
    <glyph glyph-name="bracketright" unicode="]" horiz-adv-x="287" 
d="M33 -160v36h129v956h-129v36h166v-1028h-166z" />
    <glyph glyph-name="asciicircum" unicode="^" horiz-adv-x="407" 
d="M191 789h24l142 -308h-32l-120 264h-4l-119 -264h-32z" />
    <glyph glyph-name="underscore" unicode="_" horiz-adv-x="528" 
d="M54 -60h421v-39h-421v39z" />
    <glyph glyph-name="grave" unicode="`" horiz-adv-x="223" 
d="M133 615l-88 188h44l73 -178z" />
    <glyph glyph-name="a" unicode="a" horiz-adv-x="472" 
d="M173 -5c-43.333 0 -76.0029 11.335 -98.0029 34.002s-33 55.667 -33 99c0 50 15.833 88.333 47.5 115s81.834 43 150.501 49l120 10v68c0 50.667 -10.167 86.667 -30.5 108s-55.166 32 -104.499 32c-41.333 0 -89.333 -6 -144 -18l-5 37c30 5.33301 57.5 9.5 82.5 12.5
s48.5 4.5 70.5 4.5c58 0 100.667 -13.833 128 -41.5s41 -70.834 41 -129.501v-375h-32l-6 67h-4c-32 -20.667 -63.167 -37.834 -93.5 -51.501s-60.166 -20.5 -89.499 -20.5zM178.997 32.002c14 0 28.5 2.16602 43.5 6.49902s30.333 10 46 17s31.167 14.833 46.5 23.5
s30.333 17.667 45 27v163l-113 -10c-30.667 -2.66699 -56.5 -7.16699 -77.5 -13.5s-38 -14.666 -51 -24.999s-22.5 -23 -28.5 -38s-9 -32.5 -9 -52.5c0 -65.333 32.667 -98 98 -98z" />
    <glyph glyph-name="b" unicode="b" horiz-adv-x="534" 
d="M243 -10c-26 0 -53.501 1.6709 -82.501 5.00391s-56.5 7.66602 -82.5 12.999v800h38v-327c19.333 21.333 42.833 38.166 70.5 50.499s58.5 18.5 92.5 18.5c66.667 0 117.334 -22.5 152.001 -67.5s52 -114.167 52 -207.5c0 -42.667 -5 -81.5 -15 -116.5
s-25 -64.833 -45 -89.5s-45 -43.834 -75 -57.501s-65 -20.834 -105 -21.501zM244.999 26.0039c63.333 0 112.167 20.168 146.5 60.501s51.5 102.833 51.5 187.5c0 82.667 -13.833 143.167 -41.5 181.5s-69.5 57.5 -125.5 57.5c-19.333 0 -38.5 -2.83301 -57.5 -8.5
s-36.167 -13.334 -51.5 -23.001s-27.666 -21.167 -36.999 -34.5s-14 -27.333 -14 -42v-368c19.333 -3.33301 40.166 -6 62.499 -8s44.5 -3 66.5 -3z" />
    <glyph glyph-name="c" unicode="c" horiz-adv-x="421" 
d="M280 -10c-152.667 0 -229 93.333 -229 280c0 92.667 19 162.5 57 209.5s95.333 70.5 172 70.5c13.333 0 28.5 -1.16699 45.5 -3.5s34.833 -5.5 53.5 -9.5v-38c-30.667 8.66699 -62.667 13 -96 13c-64.667 0 -112.834 -19.833 -144.501 -59.5
s-47.5 -100.834 -47.5 -183.501c0 -83.333 15.333 -144.333 46 -183s79 -58 145 -58c14.667 0 29.5 0.833008 44.5 2.5s32.167 4.83398 51.5 9.50098l1 -37c-13.333 -3.33301 -29.166 -6.33301 -47.499 -9s-35.5 -4 -51.5 -4z" />
    <glyph glyph-name="d" unicode="d" horiz-adv-x="534" 
d="M257 -10c-68.667 0 -120.332 22.499 -154.999 67.499s-52 115.833 -52 212.5c0 92.667 21.5 162.5 64.5 209.5s100.5 70.5 172.5 70.5c23.333 0 45.666 -1.16699 66.999 -3.5s42.333 -4.83301 63 -7.5v269h38v-808h-32l-5 62h-4
c-18 -23.333 -40.167 -41.166 -66.5 -53.499s-56.5 -18.5 -90.5 -18.5zM257.002 26.999c19.333 0 38.665 3.00098 57.998 9.00098s36.5 14 51.5 24s27.167 22 36.5 36s14 29 14 45v361c-21.333 3.33301 -42.666 6 -63.999 8s-43.666 3 -66.999 3
c-62 0 -110.167 -20 -144.5 -60s-51.5 -101 -51.5 -183c0 -82.667 14.167 -143.834 42.5 -183.501s69.833 -59.5 124.5 -59.5z" />
    <glyph glyph-name="e" unicode="e" horiz-adv-x="486" 
d="M272 -9c-71.333 0 -126 23 -164 69s-57 112.333 -57 199c0 94.667 18.167 166.667 54.5 216s89.5 74 159.5 74c56 0 98.833 -19.833 128.5 -59.5s44.5 -97.167 44.5 -172.5c0 -15.333 -0.166992 -28 -0.5 -38s-1.16602 -19 -2.49902 -27h-345
c1.33301 -74 17.666 -129.833 48.999 -167.5s76.666 -56.5 135.999 -56.5c22.667 0 45 2.33301 67 7s46 12.667 72 24l5 -36c-22 -10 -46.167 -17.833 -72.5 -23.5s-51.166 -8.5 -74.499 -8.5zM264 512c-54 0 -95.6689 -19.167 -125.002 -57.5
s-45.666 -94.166 -48.999 -167.499h310c-1.33301 79.333 -12.666 136.666 -33.999 171.999s-55.333 53 -102 53z" />
    <glyph glyph-name="f" unicode="f" horiz-adv-x="299" 
d="M119 504l-102 0.000976562v36h103v34c0 45.333 2.66699 82.666 8 111.999s15 52.666 29 69.999s33.333 30 58 38s56.667 13.667 96 17l1 -33c-32.667 -2.66699 -59 -7.16699 -79 -13.5s-35.5 -16.166 -46.5 -29.499s-18.5 -31.5 -22.5 -54.5s-6.33301 -52.5 -7 -88.5v-52
h128v-36h-128v-504h-38v504z" />
    <glyph glyph-name="g" unicode="g" horiz-adv-x="534" 
d="M236 -220c-25.333 0 -50.165 2.16895 -74.498 6.50195s-47.5 10.166 -69.5 17.499l4 38c23.333 -8 46.833 -14.167 70.5 -18.5s47.5 -6.5 71.5 -6.5c28 0 53.167 3.83301 75.5 11.5s41.166 20.167 56.499 37.5s27.166 40.166 35.499 68.499s12.5 63.166 12.5 104.499v24
h-4c-18 -23.333 -40.167 -41.166 -66.5 -53.499s-56.5 -18.5 -90.5 -18.5c-68 0 -119.5 22.5 -154.5 67.5s-52.5 115.5 -52.5 211.5c0 92.667 21.5 162.5 64.5 209.5s100.5 70.5 172.5 70.5c29.333 0 58.833 -1.66699 88.5 -5s56.167 -8.33301 79.5 -15v-480
c0 -52 -5.33301 -95.167 -16 -129.5s-25.5 -62 -44.5 -83s-42 -35.833 -69 -44.5s-56.833 -13 -89.5 -13zM257.001 28.002c19.333 0 38.665 3 57.998 9s36.5 14 51.5 24s27.167 21.833 36.5 35.5s14 28.5 14 44.5v361c-21.333 3.33301 -42.666 6 -63.999 8
s-43.666 3 -66.999 3c-62 0 -110.167 -20 -144.5 -60s-51.5 -101 -51.5 -183c0 -82.667 14.167 -143.667 42.5 -183s69.833 -59 124.5 -59z" />
    <glyph glyph-name="h" unicode="h" horiz-adv-x="533" 
d="M79 808l38 0.000976562v-330h3c46.667 25.333 86.167 43.666 118.5 54.999s62.833 17 91.5 17c44 0 76.333 -11.167 97 -33.5s31 -59.5 31 -111.5v-405h-38v396c0 42 -7.66699 71.833 -23 89.5s-39 26.5 -71 26.5c-29.333 0 -61.5 -6.16699 -96.5 -18.5
s-72.5 -29.5 -112.5 -51.5v-442h-38v808z" />
    <glyph glyph-name="i" unicode="i" horiz-adv-x="199" 
d="M99 676c-20.667 0 -31 10.333 -31 31s10.333 31 31 31c21.333 0 32 -10.333 32 -31s-10.667 -31 -32 -31zM80 540h38v-540h-38v540z" />
    <glyph glyph-name="j" unicode="j" horiz-adv-x="196" 
d="M96 676c-20.667 0 -31 10.333 -31 31s10.333 31 31 31c21.333 0 32 -10.333 32 -31s-10.667 -31 -32 -31zM1 -201c18.667 31.333 33.168 60.999 43.501 88.999s18.166 58 23.499 90s8.66602 67.333 9.99902 106s2 84.667 2 138v318h38v-448
c0 -55.333 -7.66699 -109.666 -23 -162.999s-37.666 -103 -66.999 -149z" />
    <glyph glyph-name="k" unicode="k" horiz-adv-x="479" 
d="M79 808h38v-514h102l195 246h45l-200 -253l-14 -9v-3l15 -11l215 -264h-45l-213 260h-100v-260h-38v808z" />
    <glyph glyph-name="l" unicode="l" horiz-adv-x="202" 
d="M82 808h38v-808h-38v808z" />
    <glyph glyph-name="m" unicode="m" horiz-adv-x="819" 
d="M79 540h30.999l4 -61h4c40 24.667 74.333 42.667 103 54s56.334 17 83.001 17c63.333 0 102.666 -24.667 117.999 -74h4c41.333 26.667 76.833 45.667 106.5 57s57.834 17 84.501 17c44 0 76.167 -11.167 96.5 -33.5s30.5 -59.5 30.5 -111.5v-405h-38v396
c0 42 -7.66699 71.833 -23 89.5s-39 26.5 -71 26.5c-25.333 0 -52.833 -5.83301 -82.5 -17.5s-62.5 -28.5 -98.5 -50.5v-444h-38v396c0 42 -7.5 71.833 -22.5 89.5s-38.833 26.5 -71.5 26.5c-26 0 -54.333 -6 -85 -18s-63 -29 -97 -51v-443h-38v540z" />
    <glyph glyph-name="n" unicode="n" horiz-adv-x="533" 
d="M79 540h31.998l4 -61h4c46.667 24.667 86.334 42.667 119.001 54s63.334 17 92.001 17c44 0 76.333 -11.167 97 -33.5s31 -59.5 31 -111.5v-405h-38v396c0 42 -7.66699 71.833 -23 89.5s-39 26.5 -71 26.5c-29.333 0 -61.5 -6.16699 -96.5 -18.5
s-72.5 -29.5 -112.5 -51.5v-442h-38v540z" />
    <glyph glyph-name="o" unicode="o" horiz-adv-x="530" 
d="M265 -9c-69.333 0 -122.5 23.8311 -159.5 71.498s-55.5 116.834 -55.5 207.501c0 91.333 18.5 160.833 55.5 208.5s90.167 71.5 159.5 71.5c70 0 123.333 -23.833 160 -71.5s55 -117.167 55 -208.5s-18.333 -160.666 -55 -207.999s-90 -71 -160 -71zM265 27.998
c116.667 0 175 80.667 175 242c0 162 -58.333 243 -175 243s-175 -81 -175 -243c0 -161.333 58.333 -242 175 -242z" />
    <glyph glyph-name="p" unicode="p" horiz-adv-x="535" 
d="M79 540h33l4 -60h5c18 22 40.333 39.167 67 51.5s57 18.5 91 18.5c66.667 0 117.5 -22.5 152.5 -67.5s52.5 -114.167 52.5 -207.5c0 -42.667 -5 -81.5 -15 -116.5s-25 -65 -45 -90s-45.167 -44.333 -75.5 -58s-65.5 -20.5 -105.5 -20.5
c-23.333 0 -45.833 1.16699 -67.5 3.5s-41.167 4.83301 -58.5 7.5v-221h-38v760zM245 26c64 0 113.17 20.332 147.503 60.999s51.5 103 51.5 187c0 82.667 -13.833 143.167 -41.5 181.5s-69.834 57.5 -126.501 57.5c-19.333 0 -38.5 -2.83301 -57.5 -8.5
s-36 -13.5 -51 -23.5s-27.167 -21.833 -36.5 -35.5s-14 -28.167 -14 -43.5v-364c19.333 -3.33301 40.166 -6.16602 62.499 -8.49902s44.166 -3.5 65.499 -3.5z" />
    <glyph glyph-name="q" unicode="q" horiz-adv-x="534" 
d="M418 62c-38.667 -48 -92.334 -72 -161.001 -72c-138 0 -207 93.333 -207 280c0 89.333 20.5 158.333 61.5 207s99.5 73 175.5 73c30 0 59.833 -1.66699 89.5 -5s55.834 -8.33301 78.501 -15v-750h-37v282zM257 27c20.667 0 40.667 3.16797 60 9.50098
s36.333 14.666 51 24.999s26.5 22.333 35.5 36s13.5 28.167 13.5 43.5v361c-28.667 4 -53 6.83301 -73 8.5s-39.333 2.5 -58 2.5c-64 0 -112.667 -20.5 -146 -61.5s-50 -101.5 -50 -181.5c0 -162 55.667 -243 167 -243z" />
    <glyph glyph-name="r" unicode="r" horiz-adv-x="331" 
d="M79 540l32.001 0.000976562l4 -67h4c34 18 66.167 33.667 96.5 47s60.833 23 91.5 29h12v-42h-13c-32.667 -5.33301 -64.834 -14.333 -96.501 -27s-62.5 -27.334 -92.5 -44.001v-436h-38v540z" />
    <glyph glyph-name="s" unicode="s" horiz-adv-x="404" 
d="M196 -11c-9.33301 0 -18.834 0.329102 -28.501 0.996094s-20.334 1.83398 -32.001 3.50098s-24.667 4 -39 7l-50.5 10.5v38c26 -7.33301 51.5 -13 76.5 -17s48.167 -6 69.5 -6c42 0 74.167 9.83301 96.5 29.5s33.5 47.5 33.5 83.5c0 18.667 -2.83301 34.5 -8.5 47.5
s-13.5 24.167 -23.5 33.5s-22 17 -36 23s-29.667 11 -47 15c-18 4.66699 -36.167 9.66699 -54.5 15s-34.833 13.333 -49.5 24s-26.667 24.834 -36 42.501s-14 41.167 -14 70.5c0 44 14.833 78.833 44.5 104.5s70.5 38.5 122.5 38.5c8.66699 0 17 -0.333008 25 -1
s16.5 -1.66699 25.5 -3s19.333 -3.16602 31 -5.49902l41.5 -8.5l-2 -37c-27.333 6.66699 -50 11.334 -68 14.001s-35.333 4 -52 4c-41.333 0 -73.166 -9.16699 -95.499 -27.5s-33.5 -44.5 -33.5 -78.5c0 -20 3.33301 -36.5 10 -49.5s15.834 -23.5 27.501 -31.5
s25 -14.5 40 -19.5s30.833 -9.83301 47.5 -14.5c21.333 -6 41 -12.667 59 -20s33.333 -17 46 -29s22.5 -26.5 29.5 -43.5s10.5 -37.833 10.5 -62.5c0 -47.333 -15.167 -84.333 -45.5 -111s-70.5 -40 -120.5 -40z" />
    <glyph glyph-name="t" unicode="t" horiz-adv-x="350" 
d="M262 -6c-87.333 0 -130.999 47 -130.999 141v368h-116v37h117l5 123l32 7v-130h165v-37h-165v-364c0 -72 32.667 -108 98 -108c10 0 21.167 0.833008 33.5 2.5s24.166 4.16699 35.499 7.5v-37c-27.333 -6.66699 -52 -10 -74 -10z" />
    <glyph glyph-name="u" unicode="u" horiz-adv-x="533" 
d="M200 -10c-43.333 0 -75.001 11.667 -95.001 35s-30 60 -30 110v405h38v-397c0 -40 7.33301 -69.167 22 -87.5s38 -27.5 70 -27.5c33.333 0 66.5 6.66699 99.5 20s70.167 31.333 111.5 54v438h38v-540h-32l-5 64h-4l-66 -33c-19.333 -9.33301 -37.166 -17 -53.499 -23
s-32 -10.5 -47 -13.5s-30.5 -4.5 -46.5 -4.5z" />
    <glyph glyph-name="v" unicode="v" horiz-adv-x="488" 
d="M22 533v7h37l164 -452l19 -54h4l19 54l164 452h38v-7l-194 -533h-58z" />
    <glyph glyph-name="w" unicode="w" horiz-adv-x="720" 
d="M27 534v6h37l109 -406l20 -85h5l23 85l118 406h41l121 -406l24 -85h5l19 85l106 406h36v-6l-140 -534h-46l-125 416l-18 69h-5l-18 -69l-121 -416h-45z" />
    <glyph glyph-name="x" unicode="x" horiz-adv-x="487" 
d="M16 8l202 272l-190 254v6h42l143 -191l30 -42h3l30 42l141 191h42v-6l-191 -257l203 -269v-8h-41l-152 205l-34 45h-4l-32 -45l-152 -205h-40v8z" />
    <glyph glyph-name="y" unicode="y" horiz-adv-x="496" 
d="M146 -211l-1 6l83 208l-208 532v5h39l168 -433l19 -57h3l20 57l171 433h38v-5l-298 -755z" />
    <glyph glyph-name="z" unicode="z" horiz-adv-x="428" 
d="M36 26l291 474v4h-282v36h337v-24l-293 -476v-5h303v-35h-356v26z" />
    <glyph glyph-name="braceleft" unicode="{" horiz-adv-x="353" 
d="M31 375c24.667 0 44.333 9.83496 59 29.502s22 47.5 22 83.5v265c0 42.667 7.5 72.5 22.5 89.5s42.5 25.5 82.5 25.5c6.66699 0 15.167 -0.166992 25.5 -0.5s20.666 -0.833008 30.999 -1.5s19.833 -1.16699 28.5 -1.5s14.334 -0.833008 17.001 -1.5v-31h-117
c-19.333 0 -33 -3.66699 -41 -11s-12 -20.333 -12 -39v-302c0 -30 -5.66699 -56.333 -17 -79s-27.333 -37.334 -48 -44.001c20.667 -6 36.667 -20.333 48 -43s17 -49 17 -79v-303c0 -18.667 4 -31.667 12 -39s21.667 -11 41 -11h117v-31
c-2.66699 -0.666992 -8.16699 -1.33398 -16.5 -2.00098s-17.666 -1.16699 -27.999 -1.5l-31 -1c-10.333 -0.333008 -18.833 -0.5 -25.5 -0.5c-40 0 -67.667 8.33301 -83 25s-23 46.667 -23 90v267c0 36 -7.33301 63.667 -22 83s-34.334 29 -59.001 29v35z" />
    <glyph glyph-name="bar" unicode="|" horiz-adv-x="214" 
d="M126 808v-1028h-38v1028h38z" />
    <glyph glyph-name="braceright" unicode="}" horiz-adv-x="353" 
d="M322 340c-24.667 0 -44.335 -9.66895 -59.002 -29.002s-22 -47 -22 -83v-267c0 -43.333 -7.66699 -73.333 -23 -90s-43 -25 -83 -25c-6.66699 0 -15.167 0.166992 -25.5 0.5l-31 1c-10.333 0.333008 -19.666 0.833008 -27.999 1.5s-13.833 1.33398 -16.5 2.00098v31h118
c19.333 0 32.833 3.66699 40.5 11s11.5 20.333 11.5 39v303c0 30 5.66699 56.333 17 79s27.333 37 48 43c-20.667 6.66699 -36.667 21.334 -48 44.001s-17 49 -17 79v302c0 18.667 -3.83301 31.667 -11.5 39s-21.167 11 -40.5 11h-118v31
c2.66699 0.666992 8.33398 1.16699 17.001 1.5s18.167 0.833008 28.5 1.5s20.666 1.16699 30.999 1.5s18.833 0.5 25.5 0.5c40 0 67.5 -8.5 82.5 -25.5s22.5 -46.833 22.5 -89.5v-265c0 -36 7.33301 -63.833 22 -83.5s34.334 -29.5 59.001 -29.5v-35z" />
    <glyph glyph-name="asciitilde" unicode="~" horiz-adv-x="572" 
d="M71 293c14 15.333 27.001 28.167 39.001 38.5s23.333 18.5 34 24.5s21.5 10.333 32.5 13s22.5 4 34.5 4c17.333 0 32.5 -3.83301 45.5 -11.5s25.5 -16.334 37.5 -26.001s23.833 -18.334 35.5 -26.001s25.167 -11.5 40.5 -11.5c19.333 0 38.833 6.16699 58.5 18.5
s33.167 27.5 40.5 45.5l32 -15c-6 -12 -13.833 -23.167 -23.5 -33.5s-20.334 -19.5 -32.001 -27.5s-24 -14.167 -37 -18.5s-25.833 -6.5 -38.5 -6.5c-19.333 0 -36.333 3.83301 -51 11.5s-28 16.334 -40 26.001s-23.333 18.334 -34 26.001s-22 11.5 -34 11.5
c-18 0 -35.5 -5 -52.5 -15s-37.833 -27.667 -62.5 -53z" />
    <glyph glyph-name="uni00A0" unicode="&#xa0;" horiz-adv-x="233" 
 />
    <glyph glyph-name="exclamdown" unicode="&#xa1;" horiz-adv-x="202" 
d="M105 534c20.667 0 31 -10 31 -30c0 -9.33301 -2.83301 -17 -8.5 -23s-13.167 -9 -22.5 -9c-20.667 0 -31 10.667 -31 32c0 20 10.333 30 31 30zM87 390h27v-14l6 -566v-10h-38v10l5 566v14z" />
    <glyph glyph-name="cent" unicode="&#xa2;" horiz-adv-x="442" 
d="M247 -8c-130 12 -194.998 104.666 -194.998 277.999c0 85.333 16.167 151.333 48.5 198s81.166 73.334 146.499 80.001v113h36v-111c13.333 0 28.333 -1.16699 45 -3.5s34 -5.5 52 -9.5v-38c-30.667 8.66699 -62.667 13 -96 13
c-64.667 0 -112.834 -19.833 -144.501 -59.5s-47.5 -100.834 -47.5 -183.501c0 -83.333 15.333 -144.333 46 -183s79 -58 145 -58c14.667 0 29.5 0.833008 44.5 2.5s32.167 4.83398 51.5 9.50098l1 -37c-13.333 -3.33301 -29 -6.33301 -47 -9s-34.667 -4 -50 -4v-110h-36
v112z" />
    <glyph glyph-name="sterling" unicode="&#xa3;" horiz-adv-x="561" 
d="M50 385l137.998 0.00195312v143c0 73.333 13.333 127.666 40 162.999s71.667 53 135 53c20.667 0 43.334 -2.33301 68.001 -7s52 -12 82 -22l-10 -35c-27.333 9.33301 -52.666 16.166 -75.999 20.499s-44 6.5 -62 6.5c-50.667 0 -86.5 -13.833 -107.5 -41.5
s-31.5 -73.5 -31.5 -137.5v-143h199v-37h-199v-311h273v-37h-449v37h138v311h-138v37z" />
    <glyph glyph-name="currency" unicode="&#xa4;" horiz-adv-x="577" 
d="M60 173l53 55l53 37c-14.667 30.667 -22 65.667 -22 105c0 40 7.33301 74.667 22 104l-53 38l-53 55l31 31l55 -54l34 -48c12.667 17.333 28.167 31 46.5 41s39.166 15 62.499 15c22.667 0 43 -4.83301 61 -14.5s33.333 -23.167 46 -40.5l34 47l55 54l31 -31l-54 -55
l-53 -37c15.333 -29.333 23 -64.333 23 -105c0 -41.333 -7.66699 -76.333 -23 -105l53 -37l54 -55l-31 -31l-55 54l-34 46c-12.667 -17.333 -28.167 -30.833 -46.5 -40.5s-38.833 -14.5 -61.5 -14.5c-23.333 0 -44.166 4.83301 -62.499 14.5s-33.833 23.167 -46.5 40.5
l-33 -46l-55 -54zM180 370c0 -46 9.83301 -81.5 29.5 -106.5s45.834 -37.5 78.501 -37.5s58.667 12.5 78 37.5s29 60.5 29 106.5c0 45.333 -9.33301 80.5 -28 105.5s-45 37.5 -79 37.5c-32.667 0 -58.834 -12.333 -78.501 -37s-29.5 -60 -29.5 -106z" />
    <glyph glyph-name="yen" unicode="&#xa5;" horiz-adv-x="598" 
d="M96 281h171l-236 459h42l198 -384l29 -64h3l29 64l198 384h42l-237 -459h154v-34h-168v-96h168v-35h-168v-116h-38v116h-187v35h187v96h-187v34z" />
    <glyph glyph-name="brokenbar" unicode="&#xa6;" horiz-adv-x="208" 
d="M85 203h38v-423h-38v423zM85 808h38v-423h-38v423z" />
    <glyph glyph-name="section" unicode="&#xa7;" horiz-adv-x="433" 
d="M210 -11c-9.33301 0 -18.832 0.332031 -28.499 0.999023s-20.334 1.83398 -32.001 3.50098s-24.667 4 -39 7l-50.5 10.5v36c26 -7.33301 51.5 -12.833 76.5 -16.5s48.5 -5.5 70.5 -5.5c41.333 0 73.333 10 96 30s34 48 34 84c0 18.667 -2.83301 34.5 -8.5 47.5
s-13.5 24.167 -23.5 33.5s-22.167 17.166 -36.5 23.499s-30.166 11.5 -47.499 15.5c-18 4.66699 -36.167 9.66699 -54.5 15s-34.833 13.166 -49.5 23.499s-26.667 24.333 -36 42s-14 41.167 -14 70.5c0 20.667 3.33301 39.334 10 56.001s16 31 28 43
c-11.333 10.667 -20.5 24.167 -27.5 40.5s-10.5 37.166 -10.5 62.499c0 44 14.833 78.833 44.5 104.5s70.5 38.5 122.5 38.5c8.66699 0 17 -0.333008 25 -1s16.5 -1.66699 25.5 -3s19.333 -3.16602 31 -5.49902l41.5 -8.5l-2 -37c-29.333 6.66699 -52.5 11.334 -69.5 14.001
s-33.5 4 -49.5 4c-42 0 -74.333 -9.16699 -97 -27.5s-34 -44.5 -34 -78.5c0 -20.667 3.5 -37.5 10.5 -50.5s16.333 -23.667 28 -32s25.167 -15 40.5 -20s31 -9.5 47 -13.5c21.333 -6 40.833 -12.667 58.5 -20s32.834 -16.833 45.501 -28.5s22.5 -26.167 29.5 -43.5
s10.5 -38.333 10.5 -63c0 -38.667 -12 -71.667 -36 -99c11.333 -12 20.166 -26.167 26.499 -42.5s9.5 -36.166 9.5 -59.499c0 -22.667 -3.83301 -43.334 -11.5 -62.001s-18.834 -34.5 -33.501 -47.5s-32.167 -23.167 -52.5 -30.5s-42.833 -11 -67.5 -11zM309.001 263.999
c18.667 20 28.001 45.667 28.001 77c0 18.667 -2.83301 34.5 -8.5 47.5s-13.5 24.167 -23.5 33.5s-22 17 -36 23s-29.667 11.333 -47 16l-42.5 10.5c-14.333 3.66699 -27.833 8.83398 -40.5 15.501c-22.667 -18 -34 -43.667 -34 -77c0 -20.667 3.5 -37.5 10.5 -50.5
s16.333 -23.5 28 -31.5s25 -14.5 40 -19.5s30.5 -9.83301 46.5 -14.5c14.667 -4 28.667 -8.33301 42 -13s25.666 -10.334 36.999 -17.001z" />
    <glyph glyph-name="dieresis" unicode="&#xa8;" horiz-adv-x="416" 
d="M97 655c-9.33301 0 -16.833 2.5 -22.5 7.5s-8.5 12.5 -8.5 22.5c0 10.667 2.83301 18.5 8.5 23.5s13.167 7.5 22.5 7.5c8.66699 0 16 -2.5 22 -7.5s9 -12.833 9 -23.5c0 -10 -3 -17.5 -9 -22.5s-13.333 -7.5 -22 -7.5zM300 655c-9.33301 0 -16.833 2.5 -22.5 7.5
s-8.5 12.5 -8.5 22.5c0 10.667 2.83301 18.5 8.5 23.5s13.167 7.5 22.5 7.5c8 0 15.167 -2.5 21.5 -7.5s9.5 -12.833 9.5 -23.5c0 -10 -3.16699 -17.5 -9.5 -22.5s-13.5 -7.5 -21.5 -7.5z" />
    <glyph glyph-name="copyright" unicode="&#xa9;" horiz-adv-x="851" 
d="M441 163c-54.667 0 -98.832 16.668 -132.499 50.001s-50.5 84 -50.5 152c0 69.333 16.833 121.166 50.5 155.499s77.834 51.5 132.501 51.5c14.667 0 29 -0.833008 43 -2.5s27.667 -3.83398 41 -6.50098v-37c-12.667 2.66699 -26 4.83398 -40 6.50098
s-27.667 2.5 -41 2.5c-45.333 0 -81.333 -14 -108 -42s-40 -70.667 -40 -128c0 -56.667 13.667 -98.5 41 -125.5s62.666 -40.5 105.999 -40.5c13.333 0 27.166 1 41.499 3s28.5 4.33301 42.5 7v-35c-27.333 -7.33301 -56 -11 -86 -11zM425.002 -10.999
c-56 0 -106.833 9.16699 -152.5 27.5s-84.667 44.166 -117 77.499s-57.5 73.333 -75.5 120s-27 98.667 -27 156s9 109.333 27 156s43.167 86.667 75.5 120s71.333 59.166 117 77.499s96.5 27.5 152.5 27.5s106.833 -9.16699 152.5 -27.5s84.667 -44.166 117 -77.499
s57.5 -73.333 75.5 -120s27 -98.667 27 -156s-9 -109.333 -27 -156s-43.167 -86.667 -75.5 -120s-71.333 -59.166 -117 -77.499s-96.5 -27.5 -152.5 -27.5zM425.002 25.001c50.667 0 96.667 8.16699 138 24.5s76.833 39.666 106.5 69.999s52.5 66.666 68.5 108.999
s24 89.5 24 141.5s-8 99.333 -24 142s-38.833 79 -68.5 109s-65.167 53.333 -106.5 70s-87.333 25 -138 25s-96.667 -8.33301 -138 -25s-76.666 -40 -105.999 -70s-52 -66.333 -68 -109s-24 -90 -24 -142s8 -99.167 24 -141.5s38.667 -78.666 68 -108.999
s64.666 -53.666 105.999 -69.999s87.333 -24.5 138 -24.5z" />
    <glyph glyph-name="ordfeminine" unicode="&#xaa;" horiz-adv-x="398" 
d="M154 348c-30.667 0 -55.833 9.16699 -75.5 27.5s-29.5 42.166 -29.5 71.499c0 32 12.5 58.167 37.5 78.5s62.167 33.166 111.5 38.499l93 9v45c0 32 -7.83301 54.667 -23.5 68s-43.5 20 -83.5 20c-8.66699 0 -20 -0.5 -34 -1.5s-34.333 -3.83301 -61 -8.5l-6 38
c27.333 4.66699 50.333 7.83398 69 9.50098s34 2.5 46 2.5c46 0 79 -9.83301 99 -29.5s30 -51.167 30 -94.5v-270h-31l-4 47h-4c-30 -17.333 -55 -30.166 -75 -38.499s-39.667 -12.5 -59 -12.5zM158.001 383c17.333 0 35.667 3.33203 55 9.99902s45.333 18.334 78 35.001
v110l-50 -3c-29.333 -2 -53.833 -5 -73.5 -9s-35.5 -9.16699 -47.5 -15.5s-20.5 -14.333 -25.5 -24s-7.5 -21.5 -7.5 -35.5c0 -45.333 23.667 -68 71 -68z" />
    <glyph glyph-name="guillemotleft" unicode="&#xab;" horiz-adv-x="498" 
d="M39 268v4l151 238h43l-151 -238v-4l151 -238h-43zM255 268v4l151 238h43l-151 -238v-4l151 -238h-43z" />
    <glyph glyph-name="logicalnot" unicode="&#xac;" horiz-adv-x="751" 
d="M68 420h609v-299h-38v262h-571v37z" />
    <glyph glyph-name="uni00AD" unicode="&#xad;" horiz-adv-x="385" 
d="M69 299h247v-38h-247v38z" />
    <glyph glyph-name="registered" unicode="&#xae;" horiz-adv-x="725" 
d="M249 622c18 2.66699 34.665 4.66602 49.998 5.99902s29.333 2 42 2c54.667 0 94.834 -8.83301 120.501 -26.5s38.5 -45.5 38.5 -83.5c0 -26 -6.66699 -47.667 -20 -65s-32.666 -29.666 -57.999 -36.999l-1 -4l92 -137h-42l-88 134h-99v-134h-35v345zM345.998 442.999
c38.667 0 68.1689 6.33203 88.502 18.999s30.5 32 30.5 58c0 26.667 -9.5 45.834 -28.5 57.501s-49.5 17.5 -91.5 17.5c-8.66699 0 -17.667 -0.5 -27 -1.5l-34 -3.5v-145c7.33301 -0.666992 16.666 -1.16699 27.999 -1.5s22.666 -0.5 33.999 -0.5zM362 137.998
c-44 0 -84.833 7.66699 -122.5 23s-70.167 36.666 -97.5 63.999s-48.666 59.833 -63.999 97.5s-23 78.5 -23 122.5s7.66699 84.833 23 122.5s36.666 70.334 63.999 98.001s59.833 49.167 97.5 64.5s78.5 23 122.5 23s84.833 -7.66699 122.5 -23s70.334 -36.833 98.001 -64.5
s49.167 -60.334 64.5 -98.001s23 -78.5 23 -122.5s-7.66699 -84.833 -23 -122.5s-36.833 -70.167 -64.5 -97.5s-60.334 -48.666 -98.001 -63.999s-78.5 -23 -122.5 -23zM362 172.998c39.333 0 75.666 6.83301 108.999 20.5s62.166 32.5 86.499 56.5s43.333 52.667 57 86
s20.5 69.666 20.5 108.999s-6.83301 75.666 -20.5 108.999s-32.667 62.166 -57 86.499s-53.166 43.333 -86.499 57s-69.666 20.5 -108.999 20.5s-75.666 -6.83301 -108.999 -20.5s-62 -32.667 -86 -57s-42.833 -53.166 -56.5 -86.499s-20.5 -69.666 -20.5 -108.999
s6.83301 -75.666 20.5 -108.999s32.5 -62 56.5 -86s52.667 -42.833 86 -56.5s69.666 -20.5 108.999 -20.5z" />
    <glyph glyph-name="macron" unicode="&#xaf;" horiz-adv-x="408" 
d="M62 689h267v-37h-267v37z" />
    <glyph glyph-name="degree" unicode="&#xb0;" horiz-adv-x="424" 
d="M212 375c-23.333 0 -44.833 4.66699 -64.5 14s-36.834 22.333 -51.501 39s-26 36.334 -34 59.001s-12 47.334 -12 74.001c0 26 4 50.333 12 73s19.333 42.334 34 59.001s31.834 29.667 51.501 39s41.167 14 64.5 14s44.833 -4.66699 64.5 -14s36.834 -22.333 51.501 -39
s26 -36.334 34 -59.001s12 -47 12 -73c0 -26.667 -4 -51.334 -12 -74.001s-19.333 -42.334 -34 -59.001s-31.834 -29.667 -51.501 -39s-41.167 -14 -64.5 -14zM212 411c19.333 0 36.833 3.83301 52.5 11.5s29.167 18.167 40.5 31.5s20 29.166 26 47.499s9 38.166 9 59.499
s-3 41 -9 59s-14.667 33.667 -26 47s-24.833 23.833 -40.5 31.5s-33.167 11.5 -52.5 11.5s-36.833 -3.83301 -52.5 -11.5s-29.167 -18.167 -40.5 -31.5s-20 -29 -26 -47s-9 -37.667 -9 -59s3 -41.166 9 -59.499s14.667 -34.166 26 -47.499s24.833 -23.833 40.5 -31.5
s33.167 -11.5 52.5 -11.5z" />
    <glyph glyph-name="plusminus" unicode="&#xb1;" horiz-adv-x="519" 
d="M76 448h165v175h36v-175h165v-36h-165v-175h-36v175h-165v36zM76 147h366v-36h-366v36z" />
    <glyph glyph-name="twosuperior" unicode="&#xb2;" horiz-adv-x="371" 
d="M43 371c0 42.667 10.498 80.0029 31.498 112.003s56.167 64.333 105.5 97c38.667 25.333 65.834 48.166 81.501 68.499s23.5 43.166 23.5 68.499c0 65.333 -35 98 -105 98c-28.667 0 -67 -6.33301 -115 -19l-8 36c24 7.33301 46.167 12.5 66.5 15.5s39.5 4.5 57.5 4.5
c94 0 141 -44.667 141 -134c0 -16.667 -2 -32 -6 -46s-10.833 -27.5 -20.5 -40.5s-22.167 -26.167 -37.5 -39.5s-34 -27.333 -56 -42s-40.833 -28.834 -56.5 -42.501s-28.167 -27.5 -37.5 -41.5s-16.166 -28.667 -20.499 -44s-6.5 -32 -6.5 -50v-35h244v-36h-282v70z" />
    <glyph glyph-name="threesuperior" unicode="&#xb3;" horiz-adv-x="354" 
d="M138 294c-27.333 0 -57.332 3.6709 -89.999 11.0039v34h9c11.333 -2.66699 24.333 -4.83398 39 -6.50098s28.334 -2.5 41.001 -2.5c42 0 74.5 10.167 97.5 30.5s34.5 49.166 34.5 86.499c0 38 -11.333 66.667 -34 86s-56 29 -100 29h-38v36h38c38 0 67.5 9.66699 88.5 29
s31.5 46.666 31.5 81.999s-9.66699 62.166 -29 80.499s-48 27.5 -86 27.5c-9.33301 0 -21 -0.666992 -35 -2s-29.333 -3.66602 -46 -6.99902h-9l-5 33c16.667 4 33.167 7.16699 49.5 9.5s32.166 3.5 47.499 3.5c48 0 85.167 -12.833 111.5 -38.5s39.5 -61.5 39.5 -107.5
c0 -30.667 -7.33301 -56.834 -22 -78.501s-35.334 -37.167 -62.001 -46.5c65.333 -19.333 98 -65.333 98 -138c0 -48 -14.667 -85.167 -44 -111.5s-71 -39.5 -125 -39.5z" />
    <glyph glyph-name="acute" unicode="&#xb4;" horiz-adv-x="214" 
d="M50 616l75 182h40l-88 -188z" />
    <glyph glyph-name="mu" unicode="&#xb5;" horiz-adv-x="556" 
d="M86 540h38v-397c0 -77.333 30.667 -116 92 -116c33.333 0 66.333 6.5 99 19.5s70 30.833 112 53.5v440h38v-540h-32l-4 64h-4l-66.5 -33c-19 -9.33301 -36.667 -17 -53 -23s-32 -10.5 -47 -13.5s-30.833 -4.5 -47.5 -4.5c-37.333 0 -66.333 8.66699 -87 26v-236h-38v760z
" />
    <glyph glyph-name="paragraph" unicode="&#xb6;" horiz-adv-x="522" 
d="M325 0l-38.001 -0.00390625v266c-4 -0.666992 -9.83301 -1 -17.5 -1h-17.5c-32 0 -61 4.16699 -87 12.5s-48.167 21.833 -66.5 40.5s-32.5 43.334 -42.5 74.001s-15 68.334 -15 113.001s5.16699 82.334 15.5 113.001s24.833 55.334 43.5 74.001
s41.334 32.167 68.001 40.5s56 12.5 88 12.5c12.667 0 24 -0.833008 34 -2.5s21.667 -4.16699 35 -7.5v-735zM424.999 -0.00390625h-40v735h40v-735z" />
    <glyph glyph-name="periodcentered" unicode="&#xb7;" horiz-adv-x="204" 
d="M101 337c-9.33301 0 -17 2.66699 -23 8s-9 13.666 -9 24.999s3 19.666 9 24.999s13.667 8 23 8s17.333 -2.66699 24 -8s10 -13.666 10 -24.999s-3.33301 -19.666 -10 -24.999s-14.667 -8 -24 -8z" />
    <glyph glyph-name="cedilla" unicode="&#xb8;" horiz-adv-x="289" 
d="M103 -220c-23.333 0 -46.999 3.66699 -70.999 11v37c13.333 -4 25 -6.83301 35 -8.5s20 -2.5 30 -2.5c28 0 48.333 6 61 18s19 31 19 57c0 17.333 -3 35 -9 53s-15.667 38.667 -29 62h40c13.333 -26 22.666 -47.833 27.999 -65.5s8 -34.167 8 -49.5
c0 -36 -9.66699 -63.667 -29 -83s-47 -29 -83 -29z" />
    <glyph glyph-name="onesuperior" unicode="&#xb9;" horiz-adv-x="275" 
d="M158 795l-114 -73h-9l-10 21v7l145 96h25v-546h-37v495z" />
    <glyph glyph-name="ordmasculine" unicode="&#xba;" horiz-adv-x="432" 
d="M217 380c16.667 0 32.667 2.83301 48 8.5s28.666 15 39.999 28s20.5 30 27.5 51s10.5 47.167 10.5 78.5s-3.5 57.666 -10.5 78.999s-16.167 38.5 -27.5 51.5s-24.666 22.167 -39.999 27.5s-31.333 8 -48 8c-17.333 0 -33.666 -2.66699 -48.999 -8
s-28.833 -14.5 -40.5 -27.5s-21 -30.167 -28 -51.5s-10.5 -47.666 -10.5 -78.999s3.5 -57.5 10.5 -78.5s16.333 -38 28 -51s25.167 -22.333 40.5 -28s31.666 -8.5 48.999 -8.5zM217 345c-50.667 0 -90.667 16.5 -120 49.5s-44 83.5 -44 151.5s14.667 118.5 44 151.5
s69.333 49.5 120 49.5c50 0 89.667 -16.5 119 -49.5s44 -83.5 44 -151.5s-14.667 -118.5 -44 -151.5s-69 -49.5 -119 -49.5z" />
    <glyph glyph-name="guillemotright" unicode="&#xbb;" horiz-adv-x="498" 
d="M93 30h-43l151 238v4l-151 238h43l151 -238v-4zM308 30h-43l151 238v4l-151 238h43l151 -238v-4z" />
    <glyph glyph-name="onequarter" unicode="&#xbc;" horiz-adv-x="825" 
d="M685 139h-229l-16 22l182 393h8l23 -9v-8l-168 -363h201l9 208h27v-208h72v-35h-72v-139h-37v139zM512 740h40l-317 -740h-40zM161 695l-114 -73h-9l-10 21v7l145 96h25v-546h-37v495z" />
    <glyph glyph-name="onehalf" unicode="&#xbd;" horiz-adv-x="866" 
d="M533 70c0 21.333 2.33203 40.8301 6.99902 58.4971s12.334 34.834 23.001 51.501s24.834 33 42.501 49s39.167 32.667 64.5 50c20 13.333 36.667 25.5 50 36.5s24.166 21.833 32.499 32.5s14.166 21.334 17.499 32.001s5 22.334 5 35.001c0 66 -34.333 99 -103 99
c-17.333 0 -36.166 -1.5 -56.499 -4.5s-40.5 -7.83301 -60.5 -14.5l-8 36c23.333 6.66699 45.166 11.667 65.499 15s40.166 5 59.499 5c93.333 0 140 -44.667 140 -134c0 -16.667 -1.83301 -31.667 -5.5 -45s-10 -26.5 -19 -39.5s-21.333 -26.167 -37 -39.5
s-35.167 -28 -58.5 -44s-42.666 -30.833 -57.999 -44.5s-27.666 -27.5 -36.999 -41.5s-16 -28.333 -20 -43s-6 -31 -6 -49v-35h244v-36h-282v70zM511.999 739.997h40l-317 -740h-40zM160.999 694.997l-114 -73h-9l-10 21v7l145 96h25v-546h-37v495z" />
    <glyph glyph-name="threequarters" unicode="&#xbe;" horiz-adv-x="908" 
d="M150 194c-27.333 0 -57.332 3.6709 -89.999 11.0039v34h9c11.333 -2.66699 24.333 -4.83398 39 -6.50098s28.334 -2.5 41.001 -2.5c42 0 74.5 10.167 97.5 30.5s34.5 49.166 34.5 86.499c0 38 -11.333 66.667 -34 86s-56 29 -100 29h-38v36h38c38 0 67.5 9.66699 88.5 29
s31.5 46.666 31.5 81.999s-9.66699 62.166 -29 80.499s-48 27.5 -86 27.5c-9.33301 0 -21 -0.666992 -35 -2s-29.333 -3.66602 -46 -6.99902h-9l-5 33c16.667 4 33.167 7.16699 49.5 9.5s32.166 3.5 47.499 3.5c48 0 85.167 -12.833 111.5 -38.5s39.5 -61.5 39.5 -107.5
c0 -30.667 -7.33301 -56.834 -22 -78.501s-35.334 -37.167 -62.001 -46.5c65.333 -19.333 98 -65.333 98 -138c0 -48 -14.667 -85.167 -44 -111.5s-71 -39.5 -125 -39.5zM768.001 139.004h-229l-16 22l182 393h8l23 -9v-8l-168 -363h201l9 208h27v-208h72v-35h-72v-139h-37
v139zM582.001 740.004h40l-317 -740h-40z" />
    <glyph glyph-name="questiondown" unicode="&#xbf;" horiz-adv-x="409" 
d="M272 371l1.99707 -194.998c-20 -5.33301 -41.833 -11.833 -65.5 -19.5s-45.5 -18.334 -65.5 -32.001s-36.833 -31.167 -50.5 -52.5s-20.5 -48.333 -20.5 -81c0 -30.667 4.83301 -56.334 14.5 -77.001s22.167 -37.167 37.5 -49.5s32.333 -21 51 -26
s37.334 -7.5 56.001 -7.5c23.333 0 46.5 2.5 69.5 7.5s45.833 11.167 68.5 18.5l13 -33c-21.333 -8.66699 -45.166 -15.834 -71.499 -21.501s-53.166 -8.5 -80.499 -8.5c-23.333 0 -46.666 3.16699 -69.999 9.5s-44.333 17 -63 32s-33.834 35 -45.501 60
s-17.5 56.5 -17.5 94.5c0 36.667 6.66699 67.334 20 92.001s30 45.167 50 61.5s41.833 29.333 65.5 39s46.167 17.5 67.5 23.5l-1 165v20h36v-20zM252.997 544.002c20.667 0 31 -9.99902 31 -29.999c0 -21.333 -10.333 -32 -31 -32c-9.33301 0 -17 3 -23 9s-9 13.667 -9 23
s3 16.666 9 21.999s13.667 8 23 8z" />
    <glyph glyph-name="Agrave" unicode="&#xc0;" horiz-adv-x="603" 
d="M11 6l262 734h56l263 -734v-6h-38l-89 247h-328l-88 -247h-38v6zM452 284l-108 303l-41 116h-4l-40 -116l-109 -303h302zM284 794l-86 128h42l79 -114z" />
    <glyph glyph-name="Aacute" unicode="&#xc1;" horiz-adv-x="603" 
d="M11 6l262 734h56l263 -734v-6h-38l-89 247h-328l-88 -247h-38v6zM452 284l-108 303l-41 116h-4l-40 -116l-109 -303h302zM280 799l79 123h42l-86 -128z" />
    <glyph glyph-name="Acircumflex" unicode="&#xc2;" horiz-adv-x="603" 
d="M11 6l262 734h56l263 -734v-6h-38l-89 247h-328l-88 -247h-38v6zM452 284l-108 303l-41 116h-4l-40 -116l-109 -303h302zM164 862l138 72l137 -72v-44l-137 72l-138 -72v44z" />
    <glyph glyph-name="Atilde" unicode="&#xc3;" horiz-adv-x="603" 
d="M11 6l262 734h56l263 -734v-6h-38l-89 247h-328l-88 -247h-38v6zM452 284l-108 303l-41 116h-4l-40 -116l-109 -303h302zM138 859c14 14.667 29.8281 26.5 47.4951 35.5s35.167 13.5 52.5 13.5c14.667 0 27.834 -2.16699 39.501 -6.5s23 -9.33301 34 -15
s22 -10.667 33 -15s22.833 -6.5 35.5 -6.5c13.333 0 26.333 3.5 39 10.5s24.334 16.5 35.001 28.5l26 -22c-12 -15.333 -27.167 -27.833 -45.5 -37.5s-37.166 -14.5 -56.499 -14.5c-13.333 0 -25.833 2.16699 -37.5 6.5s-23 9.33301 -34 15s-22 10.667 -33 15
s-22.5 6.5 -34.5 6.5c-13.333 0 -26.666 -3.5 -39.999 -10.5s-25.666 -16.167 -36.999 -27.5z" />
    <glyph glyph-name="Adieresis" unicode="&#xc4;" horiz-adv-x="603" 
d="M11 6l262 734h56l263 -734v-6h-38l-89 247h-328l-88 -247h-38v6zM452 284l-108 303l-41 116h-4l-40 -116l-109 -303h302zM193 823c-9.33301 0 -17.166 2.66699 -23.499 8s-9.5 13.666 -9.5 24.999s3.16699 19.666 9.5 24.999s14.166 8 23.499 8s17.333 -2.66699 24 -8
s10 -13.666 10 -24.999s-3.33301 -19.666 -10 -24.999s-14.667 -8 -24 -8zM411 823c-9.33301 0 -17.166 2.66699 -23.499 8s-9.5 13.666 -9.5 24.999s3.16699 19.666 9.5 24.999s14.166 8 23.499 8c8.66699 0 16.5 -2.66699 23.5 -8s10.5 -13.666 10.5 -24.999
s-3.5 -19.666 -10.5 -24.999s-14.833 -8 -23.5 -8z" />
    <glyph glyph-name="Aring" unicode="&#xc5;" horiz-adv-x="603" 
d="M11 6l262 734h56l263 -734v-6h-38l-89 247h-328l-88 -247h-38v6zM452 284l-108 303l-41 116h-4l-40 -116l-109 -303h302zM302 756c-32 0 -57.5 9.83301 -76.5 29.5s-28.5 44.167 -28.5 73.5s9.5 54 28.5 74s44.5 30 76.5 30s57.333 -10 76 -30s28 -44.667 28 -74
s-9.5 -53.833 -28.5 -73.5s-44.167 -29.5 -75.5 -29.5zM302 791c21.333 0 38.167 6.16699 50.5 18.5s18.5 28.833 18.5 49.5s-6 37.334 -18 50.001s-29 19 -51 19s-39 -6.33301 -51 -19s-18 -29.334 -18 -50.001s6 -37.167 18 -49.5s29 -18.5 51 -18.5z" />
    <glyph glyph-name="AE" unicode="&#xc6;" horiz-adv-x="792" 
d="M11 6l283 734h442v-37h-328l14 -309h281v-37h-280l15 -320h307v-37h-345l-10 247h-246l-96 -247h-37v6zM158 284h230l-17 418h-50z" />
    <glyph glyph-name="Ccedilla" unicode="&#xc7;" horiz-adv-x="546" 
d="M285 -220c-23.333 0 -47.001 3.66895 -71.001 11.002v37c13.333 -4 25 -6.83301 35 -8.5s20 -2.5 30 -2.5c28 0 48.333 6 61 18s19 31 19 57c0 15.333 -2.5 31 -7.5 47s-12.5 34 -22.5 54c-93.333 7.33301 -162.333 41.833 -207 103.5s-67 152.5 -67 272.5
c0 130.667 25.5 226.667 76.5 288s130.167 92 237.5 92c19.333 0 41.5 -1.33301 66.5 -4s49.167 -6.33398 72.5 -11.001v-38c-22 5.33301 -45.167 9.16602 -69.5 11.499s-46.833 3.5 -67.5 3.5c-94 0 -163.5 -27.833 -208.5 -83.5s-67.5 -141.834 -67.5 -258.501
c0 -226.667 89.667 -340 269 -340c8 0 18.167 0.5 30.5 1.5s25.333 2.16699 39 3.5s27 3 40 5s24.5 4 34.5 6v-36c-19.333 -4.66699 -41.666 -8.66699 -66.999 -12s-49.333 -5.33301 -72 -6c10 -21.333 17.167 -39.666 21.5 -54.999s6.5 -30 6.5 -44
c0 -36 -9.66699 -63.667 -29 -83s-47 -29 -83 -29z" />
    <glyph glyph-name="Egrave" unicode="&#xc8;" horiz-adv-x="557" 
d="M279 794l-86 128h42l79 -114zM93 740h406v-37h-368v-308h343v-37h-343v-321h376v-37h-414v740z" />
    <glyph glyph-name="Eacute" unicode="&#xc9;" horiz-adv-x="557" 
d="M274 799l79 123h42l-86 -128zM93 740h406v-37h-368v-308h343v-37h-343v-321h376v-37h-414v740z" />
    <glyph glyph-name="Ecircumflex" unicode="&#xca;" horiz-adv-x="557" 
d="M93 740h406v-37h-368v-308h343v-37h-343v-321h376v-37h-414v740zM159 862l138 72l137 -72v-44l-137 72l-138 -72v44z" />
    <glyph glyph-name="Edieresis" unicode="&#xcb;" horiz-adv-x="557" 
d="M187 823c-9.33301 0 -17.166 2.66699 -23.499 8s-9.5 13.666 -9.5 24.999s3.16699 19.666 9.5 24.999s14.166 8 23.499 8s17.333 -2.66699 24 -8s10 -13.666 10 -24.999s-3.33301 -19.666 -10 -24.999s-14.667 -8 -24 -8zM405 823c-9.33301 0 -17.166 2.66699 -23.499 8
s-9.5 13.666 -9.5 24.999s3.16699 19.666 9.5 24.999s14.166 8 23.499 8c8.66699 0 16.5 -2.66699 23.5 -8s10.5 -13.666 10.5 -24.999s-3.5 -19.666 -10.5 -24.999s-14.833 -8 -23.5 -8zM93 740h406v-37h-368v-308h343v-37h-343v-321h376v-37h-414v740z" />
    <glyph glyph-name="Igrave" unicode="&#xcc;" horiz-adv-x="223" 
d="M93 740h38v-740h-38v740zM96 794l-86 128h42l79 -114z" />
    <glyph glyph-name="Iacute" unicode="&#xcd;" horiz-adv-x="223" 
d="M93 740h38v-740h-38v740zM91 799l79 123h42l-86 -128z" />
    <glyph glyph-name="Icircumflex" unicode="&#xce;" horiz-adv-x="223" 
d="M93 740h38v-740h-38v740zM-24 862l138 72l137 -72v-44l-137 72l-138 -72v44z" />
    <glyph glyph-name="Idieresis" unicode="&#xcf;" horiz-adv-x="223" 
d="M93 740h38v-740h-38v740zM5 823c-9.33301 0 -17.166 2.66699 -23.499 8s-9.5 13.666 -9.5 24.999s3.16699 19.666 9.5 24.999s14.166 8 23.499 8s17.333 -2.66699 24 -8s10 -13.666 10 -24.999s-3.33301 -19.666 -10 -24.999s-14.667 -8 -24 -8zM223 823
c-9.33301 0 -17.166 2.66699 -23.499 8s-9.5 13.666 -9.5 24.999s3.16699 19.666 9.5 24.999s14.166 8 23.499 8c8.66699 0 16.5 -2.66699 23.5 -8s10.5 -13.666 10.5 -24.999s-3.5 -19.666 -10.5 -24.999s-14.833 -8 -23.5 -8z" />
    <glyph glyph-name="Eth" unicode="&#xd0;" horiz-adv-x="662" 
d="M3 387h97v349c12.667 2 26.667 3.83301 42 5.5s30.5 3 45.5 4s29.667 1.83301 44 2.5s26.833 1 37.5 1c116 0 201.333 -30.833 256 -92.5s82 -157.167 82 -286.5c0 -131.333 -29 -228 -87 -290s-149 -93 -273 -93c-30.667 0 -59 1 -85 3s-46.667 5 -62 9v351h-97v37z
M251 24c107.333 0 186.999 28.333 238.999 85s78 143.667 78 261c0 118 -24.167 204.333 -72.5 259s-124.5 82 -228.5 82c-18.667 0 -40 -0.666992 -64 -2s-45.667 -3.33301 -65 -6v-316h196v-37h-196v-318c22.667 -3.33301 42.334 -5.5 59.001 -6.5s34.667 -1.5 54 -1.5z
" />
    <glyph glyph-name="Ntilde" unicode="&#xd1;" horiz-adv-x="721" 
d="M199 859c14 14.667 29.8281 26.5 47.4951 35.5s35.167 13.5 52.5 13.5c14.667 0 27.834 -2.16699 39.501 -6.5s23 -9.33301 34 -15s22 -10.667 33 -15s22.833 -6.5 35.5 -6.5c13.333 0 26.333 3.5 39 10.5s24.334 16.5 35.001 28.5l26 -22
c-12 -15.333 -27.167 -27.833 -45.5 -37.5s-37.166 -14.5 -56.499 -14.5c-13.333 0 -25.833 2.16699 -37.5 6.5s-23 9.33301 -34 15s-22 10.667 -33 15s-22.5 6.5 -34.5 6.5c-13.333 0 -26.666 -3.5 -39.999 -10.5s-25.666 -16.167 -36.999 -27.5zM92.9951 740h40l397 -588
l56 -88l4 1v675h38v-740h-41l-399 589l-54 85h-4v-674h-37v740z" />
    <glyph glyph-name="Ograve" unicode="&#xd2;" horiz-adv-x="675" 
d="M320 794l-86 128h42l79 -114zM338 -10c-92 0 -162.167 31.666 -210.5 94.999s-72.5 158 -72.5 284c0 126.667 24.167 221.834 72.5 285.501s118.5 95.5 210.5 95.5c91.333 0 161.166 -32 209.499 -96s72.5 -159 72.5 -285s-24.167 -220.667 -72.5 -284
s-118.166 -95 -209.499 -95zM338 26.999c80.667 0 141.5 28.668 182.5 86.001s61.5 142.666 61.5 255.999c0 114 -20.667 199.833 -62 257.5s-102 86.5 -182 86.5c-162.667 0 -244 -114.667 -244 -344c0 -228 81.333 -342 244 -342z" />
    <glyph glyph-name="Oacute" unicode="&#xd3;" horiz-adv-x="675" 
d="M315 799l79 123h42l-86 -128zM338 -10c-92 0 -162.167 31.666 -210.5 94.999s-72.5 158 -72.5 284c0 126.667 24.167 221.834 72.5 285.501s118.5 95.5 210.5 95.5c91.333 0 161.166 -32 209.499 -96s72.5 -159 72.5 -285s-24.167 -220.667 -72.5 -284
s-118.166 -95 -209.499 -95zM338 26.999c80.667 0 141.5 28.668 182.5 86.001s61.5 142.666 61.5 255.999c0 114 -20.667 199.833 -62 257.5s-102 86.5 -182 86.5c-162.667 0 -244 -114.667 -244 -344c0 -228 81.333 -342 244 -342z" />
    <glyph glyph-name="Ocircumflex" unicode="&#xd4;" horiz-adv-x="675" 
d="M338 -10c-92 0 -162.167 31.666 -210.5 94.999s-72.5 158 -72.5 284c0 126.667 24.167 221.834 72.5 285.501s118.5 95.5 210.5 95.5c91.333 0 161.166 -32 209.499 -96s72.5 -159 72.5 -285s-24.167 -220.667 -72.5 -284s-118.166 -95 -209.499 -95zM338 26.999
c80.667 0 141.5 28.668 182.5 86.001s61.5 142.666 61.5 255.999c0 114 -20.667 199.833 -62 257.5s-102 86.5 -182 86.5c-162.667 0 -244 -114.667 -244 -344c0 -228 81.333 -342 244 -342zM200 862l138 72l137 -72v-44l-137 72l-138 -72v44z" />
    <glyph glyph-name="Otilde" unicode="&#xd5;" horiz-adv-x="675" 
d="M173 859c14 14.667 29.8281 26.5 47.4951 35.5s35.167 13.5 52.5 13.5c14.667 0 27.834 -2.16699 39.501 -6.5s23 -9.33301 34 -15s22 -10.667 33 -15s22.833 -6.5 35.5 -6.5c13.333 0 26.333 3.5 39 10.5s24.334 16.5 35.001 28.5l26 -22
c-12 -15.333 -27.167 -27.833 -45.5 -37.5s-37.166 -14.5 -56.499 -14.5c-13.333 0 -25.833 2.16699 -37.5 6.5s-23 9.33301 -34 15s-22 10.667 -33 15s-22.5 6.5 -34.5 6.5c-13.333 0 -26.666 -3.5 -39.999 -10.5s-25.666 -16.167 -36.999 -27.5zM337.995 -10
c-92 0 -162.167 31.666 -210.5 94.999s-72.5 158 -72.5 284c0 126.667 24.167 221.834 72.5 285.501s118.5 95.5 210.5 95.5c91.333 0 161.166 -32 209.499 -96s72.5 -159 72.5 -285s-24.167 -220.667 -72.5 -284s-118.166 -95 -209.499 -95zM337.995 26.999
c80.667 0 141.5 28.668 182.5 86.001s61.5 142.666 61.5 255.999c0 114 -20.667 199.833 -62 257.5s-102 86.5 -182 86.5c-162.667 0 -244 -114.667 -244 -344c0 -228 81.333 -342 244 -342z" />
    <glyph glyph-name="Odieresis" unicode="&#xd6;" horiz-adv-x="675" 
d="M228 823c-9.33301 0 -17.166 2.66699 -23.499 8s-9.5 13.666 -9.5 24.999s3.16699 19.666 9.5 24.999s14.166 8 23.499 8s17.333 -2.66699 24 -8s10 -13.666 10 -24.999s-3.33301 -19.666 -10 -24.999s-14.667 -8 -24 -8zM446 823c-9.33301 0 -17.166 2.66699 -23.499 8
s-9.5 13.666 -9.5 24.999s3.16699 19.666 9.5 24.999s14.166 8 23.499 8c8.66699 0 16.5 -2.66699 23.5 -8s10.5 -13.666 10.5 -24.999s-3.5 -19.666 -10.5 -24.999s-14.833 -8 -23.5 -8zM338 -10c-92 0 -162.167 31.666 -210.5 94.999s-72.5 158 -72.5 284
c0 126.667 24.167 221.834 72.5 285.501s118.5 95.5 210.5 95.5c91.333 0 161.166 -32 209.499 -96s72.5 -159 72.5 -285s-24.167 -220.667 -72.5 -284s-118.166 -95 -209.499 -95zM338 26.999c80.667 0 141.5 28.668 182.5 86.001s61.5 142.666 61.5 255.999
c0 114 -20.667 199.833 -62 257.5s-102 86.5 -182 86.5c-162.667 0 -244 -114.667 -244 -344c0 -228 81.333 -342 244 -342z" />
    <glyph glyph-name="multiply" unicode="&#xd7;" horiz-adv-x="447" 
d="M65 238l132 133l-132 133l25 26l133 -133l133 133l26 -26l-133 -133l133 -133l-26 -26l-133 133l-133 -133z" />
    <glyph glyph-name="Oslash" unicode="&#xd8;" horiz-adv-x="681" 
d="M119 103c-19.333 32 -34.166 69.998 -44.499 113.998s-15.5 94.667 -15.5 152c0 126.667 24.167 221.834 72.5 285.501s118.166 95.5 209.499 95.5c84.667 0 150.667 -27.667 198 -83l55 73h44l-77 -103c41.333 -63.333 62 -152.666 62 -267.999
c0 -126 -24.167 -220.667 -72.5 -284s-118.166 -95 -209.499 -95c-86.667 0 -153.334 28 -200.001 84l-55 -74h-44zM341 26.998c80.667 0 141.5 28.668 182.5 86.001s61.5 142.666 61.5 255.999c0 98.667 -16.333 177 -49 235l-372 -499c40.667 -52 99.667 -78 177 -78z
M97 368.999c0 -98.667 15.667 -176.333 47 -233l371 499c-42 52 -100 78 -174 78c-162.667 0 -244 -114.667 -244 -344z" />
    <glyph glyph-name="Ugrave" unicode="&#xd9;" horiz-adv-x="692" 
d="M327 794l-86 128h42l79 -114zM346 -10c-44.667 0 -83.3359 5.66699 -116.003 17s-59.667 29.333 -81 54s-37.166 56.334 -47.499 95.001s-15.5 85 -15.5 139v445h38v-442c0 -49.333 4.5 -91.166 13.5 -125.499s22.833 -62.166 41.5 -83.499s41.834 -37 69.501 -47
s60.167 -15 97.5 -15s69.833 5 97.5 15s50.834 25.667 69.501 47s32.5 49.166 41.5 83.499s13.5 76.166 13.5 125.499v442h38v-445c0 -54 -5.16699 -100.333 -15.5 -139s-26.166 -70.334 -47.499 -95.001s-48.333 -42.667 -81 -54s-71.334 -17 -116.001 -17z" />
    <glyph glyph-name="Uacute" unicode="&#xda;" horiz-adv-x="692" 
d="M322 799l79 123h42l-86 -128zM346 -10c-44.667 0 -83.3359 5.66699 -116.003 17s-59.667 29.333 -81 54s-37.166 56.334 -47.499 95.001s-15.5 85 -15.5 139v445h38v-442c0 -49.333 4.5 -91.166 13.5 -125.499s22.833 -62.166 41.5 -83.499s41.834 -37 69.501 -47
s60.167 -15 97.5 -15s69.833 5 97.5 15s50.834 25.667 69.501 47s32.5 49.166 41.5 83.499s13.5 76.166 13.5 125.499v442h38v-445c0 -54 -5.16699 -100.333 -15.5 -139s-26.166 -70.334 -47.499 -95.001s-48.333 -42.667 -81 -54s-71.334 -17 -116.001 -17z" />
    <glyph glyph-name="Ucircumflex" unicode="&#xdb;" horiz-adv-x="692" 
d="M346 -10c-44.667 0 -83.3359 5.66699 -116.003 17s-59.667 29.333 -81 54s-37.166 56.334 -47.499 95.001s-15.5 85 -15.5 139v445h38v-442c0 -49.333 4.5 -91.166 13.5 -125.499s22.833 -62.166 41.5 -83.499s41.834 -37 69.501 -47s60.167 -15 97.5 -15
s69.833 5 97.5 15s50.834 25.667 69.501 47s32.5 49.166 41.5 83.499s13.5 76.166 13.5 125.499v442h38v-445c0 -54 -5.16699 -100.333 -15.5 -139s-26.166 -70.334 -47.499 -95.001s-48.333 -42.667 -81 -54s-71.334 -17 -116.001 -17zM206.998 862l138 72l137 -72v-44
l-137 72l-138 -72v44z" />
    <glyph glyph-name="Udieresis" unicode="&#xdc;" horiz-adv-x="692" 
d="M235 823c-9.33301 0 -17.166 2.66699 -23.499 8s-9.5 13.666 -9.5 24.999s3.16699 19.666 9.5 24.999s14.166 8 23.499 8s17.333 -2.66699 24 -8s10 -13.666 10 -24.999s-3.33301 -19.666 -10 -24.999s-14.667 -8 -24 -8zM453 823c-9.33301 0 -17.166 2.66699 -23.499 8
s-9.5 13.666 -9.5 24.999s3.16699 19.666 9.5 24.999s14.166 8 23.499 8c8.66699 0 16.5 -2.66699 23.5 -8s10.5 -13.666 10.5 -24.999s-3.5 -19.666 -10.5 -24.999s-14.833 -8 -23.5 -8zM346 -10c-44.667 0 -83.3359 5.66699 -116.003 17s-59.667 29.333 -81 54
s-37.166 56.334 -47.499 95.001s-15.5 85 -15.5 139v445h38v-442c0 -49.333 4.5 -91.166 13.5 -125.499s22.833 -62.166 41.5 -83.499s41.834 -37 69.501 -47s60.167 -15 97.5 -15s69.833 5 97.5 15s50.834 25.667 69.501 47s32.5 49.166 41.5 83.499
s13.5 76.166 13.5 125.499v442h38v-445c0 -54 -5.16699 -100.333 -15.5 -139s-26.166 -70.334 -47.499 -95.001s-48.333 -42.667 -81 -54s-71.334 -17 -116.001 -17z" />
    <glyph glyph-name="Yacute" unicode="&#xdd;" horiz-adv-x="556" 
d="M259 251l-252 489h42l198 -384l29 -64h3l29 64l198 384h42l-251 -487v-253h-38v251zM257 799l79 123h42l-86 -128z" />
    <glyph glyph-name="Thorn" unicode="&#xde;" horiz-adv-x="579" 
d="M93 741h38.0029v-129c20.667 3.33301 40.667 5.83301 60 7.5s38.666 2.5 57.999 2.5c98.667 0 171.167 -20 217.5 -60s69.5 -103.333 69.5 -190c0 -43.333 -5.66699 -80.833 -17 -112.5s-28.666 -57.667 -51.999 -78s-53.333 -35.333 -90 -45
s-80.334 -14.5 -131.001 -14.5c-16.667 0 -34.334 0.5 -53.001 1.5s-39.334 2.83301 -62.001 5.5v-129h-38v741zM252.003 159c43.333 0 80.498 4 111.498 12s56.5 20.667 76.5 38s34.667 39.5 44 66.5s14 59.167 14 96.5c0 74 -19.667 127.833 -59 161.5
s-101.666 50.5 -186.999 50.5c-19.333 0 -39.833 -0.833008 -61.5 -2.5s-41.5 -4.16699 -59.5 -7.5v-405c6.66699 -1.33301 14.834 -2.5 24.501 -3.5s20 -2 31 -3s22.167 -1.83301 33.5 -2.5s22 -1 32 -1z" />
    <glyph glyph-name="germandbls" unicode="&#xdf;" horiz-adv-x="549" 
d="M79 607c0 72 15.665 124.004 46.998 156.004s79 48 143 48s111.667 -16.333 143 -49s47 -84.334 47 -155.001v-91h-85c-42 0 -74.333 -9.16699 -97 -27.5s-34 -44.5 -34 -78.5c0 -20.667 3.5 -37.334 10.5 -50.001s16.333 -23.167 28 -31.5s25.167 -14.833 40.5 -19.5
l47 -14c21.333 -6 40.833 -12.667 58.5 -20s32.834 -17 45.501 -29s22.5 -26.5 29.5 -43.5s10.5 -37.833 10.5 -62.5c0 -22.667 -3.83301 -43.334 -11.5 -62.001s-18.834 -34.5 -33.501 -47.5s-32.167 -23.167 -52.5 -30.5s-42.833 -11 -67.5 -11
c-9.33301 0 -18.833 0.333008 -28.5 1s-20.167 1.83398 -31.5 3.50098s-24.333 4 -39 7l-51 10.5v36c26.667 -7.33301 52.5 -12.833 77.5 -16.5s48.5 -5.5 70.5 -5.5c40.667 0 72.334 10 95.001 30s34 48 34 84c0 18.667 -2.83301 34.5 -8.5 47.5s-13.5 24.167 -23.5 33.5
s-22.167 17.166 -36.5 23.499s-30.166 11.5 -47.499 15.5c-18 4.66699 -36.167 9.66699 -54.5 15s-34.833 13.166 -49.5 23.499s-26.667 24.333 -36 42s-14 41.167 -14 70.5c0 44 14.833 78.833 44.5 104.5s70.5 38.5 122.5 38.5h49v54c0 60 -12.167 102.667 -36.5 128
s-62.833 38 -115.5 38c-53.333 0 -92 -12.5 -116 -37.5s-36 -67.833 -36 -128.5v-607h-38v607z" />
    <glyph glyph-name="agrave" unicode="&#xe0;" horiz-adv-x="472" 
d="M173 -5c-43.333 0 -76.0029 11.335 -98.0029 34.002s-33 55.667 -33 99c0 50 15.833 88.333 47.5 115s81.834 43 150.501 49l120 10v68c0 50.667 -10.167 86.667 -30.5 108s-55.166 32 -104.499 32c-41.333 0 -89.333 -6 -144 -18l-5 37c30 5.33301 57.5 9.5 82.5 12.5
s48.5 4.5 70.5 4.5c58 0 100.667 -13.833 128 -41.5s41 -70.834 41 -129.501v-375h-32l-6 67h-4c-32 -20.667 -63.167 -37.834 -93.5 -51.501s-60.166 -20.5 -89.499 -20.5zM178.997 32.002c14 0 28.5 2.16602 43.5 6.49902s30.333 10 46 17s31.167 14.833 46.5 23.5
s30.333 17.667 45 27v163l-113 -10c-30.667 -2.66699 -56.5 -7.16699 -77.5 -13.5s-38 -14.666 -51 -24.999s-22.5 -23 -28.5 -38s-9 -32.5 -9 -52.5c0 -65.333 32.667 -98 98 -98zM226.997 615.001l-88 188h44l73 -178z" />
    <glyph glyph-name="aacute" unicode="&#xe1;" horiz-adv-x="472" 
d="M173 -5c-43.333 0 -76.0029 11.335 -98.0029 34.002s-33 55.667 -33 99c0 50 15.833 88.333 47.5 115s81.834 43 150.501 49l120 10v68c0 50.667 -10.167 86.667 -30.5 108s-55.166 32 -104.499 32c-41.333 0 -89.333 -6 -144 -18l-5 37c30 5.33301 57.5 9.5 82.5 12.5
s48.5 4.5 70.5 4.5c58 0 100.667 -13.833 128 -41.5s41 -70.834 41 -129.501v-375h-32l-6 67h-4c-32 -20.667 -63.167 -37.834 -93.5 -51.501s-60.166 -20.5 -89.499 -20.5zM178.997 32.002c14 0 28.5 2.16602 43.5 6.49902s30.333 10 46 17s31.167 14.833 46.5 23.5
s30.333 17.667 45 27v163l-113 -10c-30.667 -2.66699 -56.5 -7.16699 -77.5 -13.5s-38 -14.666 -51 -24.999s-22.5 -23 -28.5 -38s-9 -32.5 -9 -52.5c0 -65.333 32.667 -98 98 -98zM226.997 616.001l75 182h40l-88 -188z" />
    <glyph glyph-name="acircumflex" unicode="&#xe2;" horiz-adv-x="472" 
d="M173 -5c-43.333 0 -76.0029 11.335 -98.0029 34.002s-33 55.667 -33 99c0 50 15.833 88.333 47.5 115s81.834 43 150.501 49l120 10v68c0 50.667 -10.167 86.667 -30.5 108s-55.166 32 -104.499 32c-41.333 0 -89.333 -6 -144 -18l-5 37c30 5.33301 57.5 9.5 82.5 12.5
s48.5 4.5 70.5 4.5c58 0 100.667 -13.833 128 -41.5s41 -70.834 41 -129.501v-375h-32l-6 67h-4c-32 -20.667 -63.167 -37.834 -93.5 -51.501s-60.166 -20.5 -89.499 -20.5zM178.997 32.002c14 0 28.5 2.16602 43.5 6.49902s30.333 10 46 17s31.167 14.833 46.5 23.5
s30.333 17.667 45 27v163l-113 -10c-30.667 -2.66699 -56.5 -7.16699 -77.5 -13.5s-38 -14.666 -51 -24.999s-22.5 -23 -28.5 -38s-9 -32.5 -9 -52.5c0 -65.333 32.667 -98 98 -98zM101.997 685.001l137 72l138 -72v-43l-137 72l-138 -72v43z" />
    <glyph glyph-name="atilde" unicode="&#xe3;" horiz-adv-x="472" 
d="M173 -5c-43.333 0 -76.0029 11.335 -98.0029 34.002s-33 55.667 -33 99c0 50 15.833 88.333 47.5 115s81.834 43 150.501 49l120 10v68c0 50.667 -10.167 86.667 -30.5 108s-55.166 32 -104.499 32c-41.333 0 -89.333 -6 -144 -18l-5 37c30 5.33301 57.5 9.5 82.5 12.5
s48.5 4.5 70.5 4.5c58 0 100.667 -13.833 128 -41.5s41 -70.834 41 -129.501v-375h-32l-6 67h-4c-32 -20.667 -63.167 -37.834 -93.5 -51.501s-60.166 -20.5 -89.499 -20.5zM178.997 32.002c14 0 28.5 2.16602 43.5 6.49902s30.333 10 46 17s31.167 14.833 46.5 23.5
s30.333 17.667 45 27v163l-113 -10c-30.667 -2.66699 -56.5 -7.16699 -77.5 -13.5s-38 -14.666 -51 -24.999s-22.5 -23 -28.5 -38s-9 -32.5 -9 -52.5c0 -65.333 32.667 -98 98 -98zM66.9971 675.001c14 14.667 29.8291 26.5 47.4961 35.5s35.167 13.5 52.5 13.5
c14.667 0 27.834 -2.16699 39.501 -6.5s23 -9.33301 34 -15s22 -10.667 33 -15s22.833 -6.5 35.5 -6.5c27.333 0 52 13 74 39l26 -22c-12 -16 -27.167 -28.833 -45.5 -38.5s-37.166 -14.5 -56.499 -14.5c-13.333 0 -25.833 2.16699 -37.5 6.5s-23 9.33301 -34 15
s-22 10.667 -33 15s-22.5 6.5 -34.5 6.5c-13.333 0 -26.666 -3.5 -39.999 -10.5s-25.666 -16.167 -36.999 -27.5z" />
    <glyph glyph-name="adieresis" unicode="&#xe4;" horiz-adv-x="472" 
d="M173 -5c-43.333 0 -76.0029 11.335 -98.0029 34.002s-33 55.667 -33 99c0 50 15.833 88.333 47.5 115s81.834 43 150.501 49l120 10v68c0 50.667 -10.167 86.667 -30.5 108s-55.166 32 -104.499 32c-41.333 0 -89.333 -6 -144 -18l-5 37c30 5.33301 57.5 9.5 82.5 12.5
s48.5 4.5 70.5 4.5c58 0 100.667 -13.833 128 -41.5s41 -70.834 41 -129.501v-375h-32l-6 67h-4c-32 -20.667 -63.167 -37.834 -93.5 -51.501s-60.166 -20.5 -89.499 -20.5zM178.997 32.002c14 0 28.5 2.16602 43.5 6.49902s30.333 10 46 17s31.167 14.833 46.5 23.5
s30.333 17.667 45 27v163l-113 -10c-30.667 -2.66699 -56.5 -7.16699 -77.5 -13.5s-38 -14.666 -51 -24.999s-22.5 -23 -28.5 -38s-9 -32.5 -9 -52.5c0 -65.333 32.667 -98 98 -98zM137.997 655.001c-9.33301 0 -16.833 2.5 -22.5 7.5s-8.5 12.5 -8.5 22.5
c0 10.667 2.83301 18.5 8.5 23.5s13.167 7.5 22.5 7.5c8.66699 0 16 -2.5 22 -7.5s9 -12.833 9 -23.5c0 -10 -3 -17.5 -9 -22.5s-13.333 -7.5 -22 -7.5zM340.997 655.001c-9.33301 0 -16.833 2.5 -22.5 7.5s-8.5 12.5 -8.5 22.5c0 10.667 2.83301 18.5 8.5 23.5
s13.167 7.5 22.5 7.5c8 0 15.167 -2.5 21.5 -7.5s9.5 -12.833 9.5 -23.5c0 -10 -3.16699 -17.5 -9.5 -22.5s-13.5 -7.5 -21.5 -7.5z" />
    <glyph glyph-name="aring" unicode="&#xe5;" horiz-adv-x="472" 
d="M173 -5c-43.333 0 -76.0029 11.335 -98.0029 34.002s-33 55.667 -33 99c0 50 15.833 88.333 47.5 115s81.834 43 150.501 49l120 10v68c0 50.667 -10.167 86.667 -30.5 108s-55.166 32 -104.499 32c-41.333 0 -89.333 -6 -144 -18l-5 37c30 5.33301 57.5 9.5 82.5 12.5
s48.5 4.5 70.5 4.5c58 0 100.667 -13.833 128 -41.5s41 -70.834 41 -129.501v-375h-32l-6 67h-4c-32 -20.667 -63.167 -37.834 -93.5 -51.501s-60.166 -20.5 -89.499 -20.5zM178.997 32.002c14 0 28.5 2.16602 43.5 6.49902s30.333 10 46 17s31.167 14.833 46.5 23.5
s30.333 17.667 45 27v163l-113 -10c-30.667 -2.66699 -56.5 -7.16699 -77.5 -13.5s-38 -14.666 -51 -24.999s-22.5 -23 -28.5 -38s-9 -32.5 -9 -52.5c0 -65.333 32.667 -98 98 -98zM239.997 611.001c-32 0 -57.5 9.83301 -76.5 29.5s-28.5 44.167 -28.5 73.5s9.5 54 28.5 74
s44.5 30 76.5 30s57.333 -10 76 -30s28 -44.667 28 -74s-9.5 -53.833 -28.5 -73.5s-44.167 -29.5 -75.5 -29.5zM239.997 646.001c21.333 0 38.167 6.33301 50.5 19s18.5 29 18.5 49c0 20.667 -6.16699 37.334 -18.5 50.001s-29.166 19 -50.499 19
c-22 0 -39 -6.33301 -51 -19s-18 -29.334 -18 -50.001c0 -20 6.16699 -36.333 18.5 -49s29.166 -19 50.499 -19z" />
    <glyph glyph-name="ae" unicode="&#xe6;" horiz-adv-x="795" 
d="M581 -9c-43.333 0 -80.5039 8.33301 -111.504 25s-55.167 41 -72.5 73l-3 1c-28 -18 -52.667 -33 -74 -45s-40.666 -21.667 -57.999 -29s-33.166 -12.666 -47.499 -15.999s-28.166 -5 -41.499 -5c-43.333 0 -76 11.333 -98 34s-33 55.667 -33 99
c0 51.333 15.833 89.666 47.5 114.999s81.834 41.333 150.501 48l120 11v68c0 50.667 -10.333 86.667 -31 108s-55.334 32 -104.001 32c-41.333 0 -89.333 -6 -144 -18l-5 37c30 5.33301 57.5 9.5 82.5 12.5s48.5 4.5 70.5 4.5c47.333 0 84 -9.16699 110 -27.5
s42.667 -46.5 50 -84.5l5 -1c16 38 39 66.833 69 86.5s67 29.5 111 29.5c56.667 0 99.834 -20 129.501 -60s44.5 -97.333 44.5 -172c0 -15.333 -0.333008 -28 -1 -38s-1.66699 -19 -3 -27h-346c2 -73.333 18.667 -129 50 -167s76.666 -57 135.999 -57
c23.333 0 45.833 2.33301 67.5 7s45.834 12.667 72.501 24l5 -37c-22 -9.33301 -46.167 -16.833 -72.5 -22.5s-51.5 -8.5 -75.5 -8.5zM178.996 32c26.667 0 55 7.16895 85 21.502s65.333 34.5 106 60.5c-2 4.66699 -3.5 14 -4.5 28s-2 29.167 -3 45.5
s-1.66699 32.166 -2 47.499s-0.5 26.666 -0.5 33.999l-113 -10c-30.667 -2.66699 -56.5 -7 -77.5 -13s-38 -14.167 -51 -24.5s-22.5 -23 -28.5 -38s-9 -32.833 -9 -53.5c0 -65.333 32.667 -98 98 -98zM708.996 288.002c-2 79.333 -13.668 136.5 -35.001 171.5
s-54.666 52.5 -99.999 52.5c-54 0 -96 -19.167 -126 -57.5s-46.667 -93.833 -50 -166.5h311z" />
    <glyph glyph-name="ccedilla" unicode="&#xe7;" horiz-adv-x="421" 
d="M197 -220c-23.333 0 -46.998 3.66602 -70.998 10.999v37c13.333 -4 25 -6.83301 35 -8.5s20 -2.5 30 -2.5c28 0 48.333 6 61 18s19 31 19 57c0 15.333 -2.5 31 -7.5 47s-12.5 33.667 -22.5 53c-127.333 14 -191 106.667 -191 278c0 92.667 19 162.5 57 209.5
s95.333 70.5 172 70.5c13.333 0 28.5 -1.16699 45.5 -3.5s34.833 -5.5 53.5 -9.5v-38c-30.667 8.66699 -62.667 13 -96 13c-64.667 0 -112.834 -19.833 -144.501 -59.5s-47.5 -100.834 -47.5 -183.501c0 -83.333 15.333 -144.333 46 -183s79 -58 145 -58
c14.667 0 29.667 0.833008 45 2.5s32.666 4.83398 51.999 9.50098v-37c-13.333 -3.33301 -28.833 -6.16602 -46.5 -8.49902s-34.5 -3.83301 -50.5 -4.5c10.667 -21.333 18 -39.5 22 -54.5s6 -29.5 6 -43.5c0 -36 -9.66699 -63.667 -29 -83s-47 -29 -83 -29z" />
    <glyph glyph-name="egrave" unicode="&#xe8;" horiz-adv-x="486" 
d="M272 -9c-71.333 0 -126 23 -164 69s-57 112.333 -57 199c0 94.667 18.167 166.667 54.5 216s89.5 74 159.5 74c56 0 98.833 -19.833 128.5 -59.5s44.5 -97.167 44.5 -172.5c0 -15.333 -0.166992 -28 -0.5 -38s-1.16602 -19 -2.49902 -27h-345
c1.33301 -74 17.666 -129.833 48.999 -167.5s76.666 -56.5 135.999 -56.5c22.667 0 45 2.33301 67 7s46 12.667 72 24l5 -36c-22 -10 -46.167 -17.833 -72.5 -23.5s-51.166 -8.5 -74.499 -8.5zM264 512c-54 0 -95.6689 -19.167 -125.002 -57.5
s-45.666 -94.166 -48.999 -167.499h310c-1.33301 79.333 -12.666 136.666 -33.999 171.999s-55.333 53 -102 53zM235.998 615l-88 188h44l73 -178z" />
    <glyph glyph-name="eacute" unicode="&#xe9;" horiz-adv-x="486" 
d="M244 616l75 182h40l-88 -188zM272 -9c-71.333 0 -126 23 -164 69s-57 112.333 -57 199c0 94.667 18.167 166.667 54.5 216s89.5 74 159.5 74c56 0 98.833 -19.833 128.5 -59.5s44.5 -97.167 44.5 -172.5c0 -15.333 -0.166992 -28 -0.5 -38s-1.16602 -19 -2.49902 -27
h-345c1.33301 -74 17.666 -129.833 48.999 -167.5s76.666 -56.5 135.999 -56.5c22.667 0 45 2.33301 67 7s46 12.667 72 24l5 -36c-22 -10 -46.167 -17.833 -72.5 -23.5s-51.166 -8.5 -74.499 -8.5zM264 512c-54 0 -95.6689 -19.167 -125.002 -57.5
s-45.666 -94.166 -48.999 -167.499h310c-1.33301 79.333 -12.666 136.666 -33.999 171.999s-55.333 53 -102 53z" />
    <glyph glyph-name="ecircumflex" unicode="&#xea;" horiz-adv-x="486" 
d="M115 685l137 72l138 -72v-43l-137 72l-138 -72v43zM272 -9c-71.333 0 -126 23 -164 69s-57 112.333 -57 199c0 94.667 18.167 166.667 54.5 216s89.5 74 159.5 74c56 0 98.833 -19.833 128.5 -59.5s44.5 -97.167 44.5 -172.5c0 -15.333 -0.166992 -28 -0.5 -38
s-1.16602 -19 -2.49902 -27h-345c1.33301 -74 17.666 -129.833 48.999 -167.5s76.666 -56.5 135.999 -56.5c22.667 0 45 2.33301 67 7s46 12.667 72 24l5 -36c-22 -10 -46.167 -17.833 -72.5 -23.5s-51.166 -8.5 -74.499 -8.5zM264 512
c-54 0 -95.6689 -19.167 -125.002 -57.5s-45.666 -94.166 -48.999 -167.499h310c-1.33301 79.333 -12.666 136.666 -33.999 171.999s-55.333 53 -102 53z" />
    <glyph glyph-name="edieresis" unicode="&#xeb;" horiz-adv-x="486" 
d="M152 655c-9.33301 0 -16.833 2.5 -22.5 7.5s-8.5 12.5 -8.5 22.5c0 10.667 2.83301 18.5 8.5 23.5s13.167 7.5 22.5 7.5c8.66699 0 16 -2.5 22 -7.5s9 -12.833 9 -23.5c0 -10 -3 -17.5 -9 -22.5s-13.333 -7.5 -22 -7.5zM355 655c-9.33301 0 -16.833 2.5 -22.5 7.5
s-8.5 12.5 -8.5 22.5c0 10.667 2.83301 18.5 8.5 23.5s13.167 7.5 22.5 7.5c8 0 15.167 -2.5 21.5 -7.5s9.5 -12.833 9.5 -23.5c0 -10 -3.16699 -17.5 -9.5 -22.5s-13.5 -7.5 -21.5 -7.5zM272 -9c-71.333 0 -126 23 -164 69s-57 112.333 -57 199
c0 94.667 18.167 166.667 54.5 216s89.5 74 159.5 74c56 0 98.833 -19.833 128.5 -59.5s44.5 -97.167 44.5 -172.5c0 -15.333 -0.166992 -28 -0.5 -38s-1.16602 -19 -2.49902 -27h-345c1.33301 -74 17.666 -129.833 48.999 -167.5s76.666 -56.5 135.999 -56.5
c22.667 0 45 2.33301 67 7s46 12.667 72 24l5 -36c-22 -10 -46.167 -17.833 -72.5 -23.5s-51.166 -8.5 -74.499 -8.5zM264 512c-54 0 -95.6689 -19.167 -125.002 -57.5s-45.666 -94.166 -48.999 -167.499h310c-1.33301 79.333 -12.666 136.666 -33.999 171.999
s-55.333 53 -102 53z" />
    <glyph glyph-name="igrave" unicode="&#xec;" horiz-adv-x="199" 
d="M80 540h38v-540h-38v540zM87 615l-88 188h44l73 -178z" />
    <glyph glyph-name="iacute" unicode="&#xed;" horiz-adv-x="199" 
d="M87 616l75 182h40l-88 -188zM80 540h38v-540h-38v540z" />
    <glyph glyph-name="icircumflex" unicode="&#xee;" horiz-adv-x="200" 
d="M-37 685l137 72l138 -72v-43l-138 72l-137 -72v43zM81 540h38v-540h-38v540z" />
    <glyph glyph-name="idieresis" unicode="&#xef;" horiz-adv-x="200" 
d="M-1 655c-9.33301 0 -16.833 2.5 -22.5 7.5s-8.5 12.5 -8.5 22.5c0 10.667 2.83301 18.5 8.5 23.5s13.167 7.5 22.5 7.5c8.66699 0 16 -2.5 22 -7.5s9 -12.833 9 -23.5c0 -10 -3 -17.5 -9 -22.5s-13.333 -7.5 -22 -7.5zM201 655c-9.33301 0 -16.666 2.5 -21.999 7.5
s-8 12.5 -8 22.5c0 10.667 2.66699 18.5 8 23.5s12.666 7.5 21.999 7.5c8.66699 0 16 -2.5 22 -7.5s9 -12.833 9 -23.5c0 -10 -3 -17.5 -9 -22.5s-13.333 -7.5 -22 -7.5zM81 540h38v-540h-38v540z" />
    <glyph glyph-name="eth" unicode="&#xf0;" horiz-adv-x="539" 
d="M220 671l127.002 17.998c-10.667 20.667 -22.167 40.834 -34.5 60.501l-38.5 58.5h44c12.667 -17.333 24.5 -35.5 35.5 -54.5s21.5 -38.833 31.5 -59.5l124 18v-37l-108 -15c25.333 -58 44.833 -118.833 58.5 -182.5s20.5 -127.834 20.5 -192.501
c0 -95.333 -18.5 -168.166 -55.5 -218.499s-90.167 -75.5 -159.5 -75.5s-122.5 23.833 -159.5 71.5s-55.5 116.834 -55.5 207.501c0 91.333 18.5 160.833 55.5 208.5s90.167 71.5 159.5 71.5c37.333 0 68.666 -7.66699 93.999 -23s46.666 -39 63.999 -71
c-12 70.667 -32 136.667 -60 198l-143 -20v37zM265.002 27.998c116.667 0 175 85.666 175 256.999c0 27.333 -3.16699 54.5 -9.5 81.5s-16.5 51.333 -30.5 73s-32 39.334 -54 53.001s-49 20.5 -81 20.5c-116.667 0 -175 -81 -175 -243c0 -161.333 58.333 -242 175 -242z" />
    <glyph glyph-name="ntilde" unicode="&#xf1;" horiz-adv-x="533" 
d="M79 540h31.998l4 -61h4c46.667 24.667 86.334 42.667 119.001 54s63.334 17 92.001 17c44 0 76.333 -11.167 97 -33.5s31 -59.5 31 -111.5v-405h-38v396c0 42 -7.66699 71.833 -23 89.5s-39 26.5 -71 26.5c-29.333 0 -61.5 -6.16699 -96.5 -18.5
s-72.5 -29.5 -112.5 -51.5v-442h-38v540zM98.998 675c14 14.667 29.8291 26.5 47.4961 35.5s35.167 13.5 52.5 13.5c14.667 0 27.834 -2.16699 39.501 -6.5s23 -9.33301 34 -15s22 -10.667 33 -15s22.833 -6.5 35.5 -6.5c27.333 0 52 13 74 39l26 -22
c-12 -16 -27.167 -28.833 -45.5 -38.5s-37.166 -14.5 -56.499 -14.5c-13.333 0 -25.833 2.16699 -37.5 6.5s-23 9.33301 -34 15s-22 10.667 -33 15s-22.5 6.5 -34.5 6.5c-13.333 0 -26.666 -3.5 -39.999 -10.5s-25.666 -16.167 -36.999 -27.5z" />
    <glyph glyph-name="ograve" unicode="&#xf2;" horiz-adv-x="530" 
d="M265 -9c-69.333 0 -122.5 23.8311 -159.5 71.498s-55.5 116.834 -55.5 207.501c0 91.333 18.5 160.833 55.5 208.5s90.167 71.5 159.5 71.5c70 0 123.333 -23.833 160 -71.5s55 -117.167 55 -208.5s-18.333 -160.666 -55 -207.999s-90 -71 -160 -71zM265 27.998
c116.667 0 175 80.667 175 242c0 162 -58.333 243 -175 243s-175 -81 -175 -243c0 -161.333 58.333 -242 175 -242zM245 614.998l-88 188h44l73 -178z" />
    <glyph glyph-name="oacute" unicode="&#xf3;" horiz-adv-x="530" 
d="M246 616l75 182h40l-88 -188zM265 -9c-69.333 0 -122.5 23.8311 -159.5 71.498s-55.5 116.834 -55.5 207.501c0 91.333 18.5 160.833 55.5 208.5s90.167 71.5 159.5 71.5c70 0 123.333 -23.833 160 -71.5s55 -117.167 55 -208.5s-18.333 -160.666 -55 -207.999
s-90 -71 -160 -71zM265 27.998c116.667 0 175 80.667 175 242c0 162 -58.333 243 -175 243s-175 -81 -175 -243c0 -161.333 58.333 -242 175 -242z" />
    <glyph glyph-name="ocircumflex" unicode="&#xf4;" horiz-adv-x="530" 
d="M121 685l137 72l138 -72v-43l-137 72l-138 -72v43zM265 -9c-69.333 0 -122.5 23.8311 -159.5 71.498s-55.5 116.834 -55.5 207.501c0 91.333 18.5 160.833 55.5 208.5s90.167 71.5 159.5 71.5c70 0 123.333 -23.833 160 -71.5s55 -117.167 55 -208.5
s-18.333 -160.666 -55 -207.999s-90 -71 -160 -71zM265 27.998c116.667 0 175 80.667 175 242c0 162 -58.333 243 -175 243s-175 -81 -175 -243c0 -161.333 58.333 -242 175 -242z" />
    <glyph glyph-name="otilde" unicode="&#xf5;" horiz-adv-x="530" 
d="M265 -9c-69.333 0 -122.5 23.8311 -159.5 71.498s-55.5 116.834 -55.5 207.501c0 91.333 18.5 160.833 55.5 208.5s90.167 71.5 159.5 71.5c70 0 123.333 -23.833 160 -71.5s55 -117.167 55 -208.5s-18.333 -160.666 -55 -207.999s-90 -71 -160 -71zM265 27.998
c116.667 0 175 80.667 175 242c0 162 -58.333 243 -175 243s-175 -81 -175 -243c0 -161.333 58.333 -242 175 -242zM86 674.998c14 14.667 29.8291 26.5 47.4961 35.5s35.167 13.5 52.5 13.5c14.667 0 27.834 -2.16699 39.501 -6.5s23 -9.33301 34 -15s22 -10.667 33 -15
s22.833 -6.5 35.5 -6.5c27.333 0 52 13 74 39l26 -22c-12 -16 -27.167 -28.833 -45.5 -38.5s-37.166 -14.5 -56.499 -14.5c-13.333 0 -25.833 2.16699 -37.5 6.5s-23 9.33301 -34 15s-22 10.667 -33 15s-22.5 6.5 -34.5 6.5c-13.333 0 -26.666 -3.5 -39.999 -10.5
s-25.666 -16.167 -36.999 -27.5z" />
    <glyph glyph-name="odieresis" unicode="&#xf6;" horiz-adv-x="530" 
d="M157 655c-9.33301 0 -16.833 2.5 -22.5 7.5s-8.5 12.5 -8.5 22.5c0 10.667 2.83301 18.5 8.5 23.5s13.167 7.5 22.5 7.5c8.66699 0 16 -2.5 22 -7.5s9 -12.833 9 -23.5c0 -10 -3 -17.5 -9 -22.5s-13.333 -7.5 -22 -7.5zM360 655c-9.33301 0 -16.833 2.5 -22.5 7.5
s-8.5 12.5 -8.5 22.5c0 10.667 2.83301 18.5 8.5 23.5s13.167 7.5 22.5 7.5c8 0 15.167 -2.5 21.5 -7.5s9.5 -12.833 9.5 -23.5c0 -10 -3.16699 -17.5 -9.5 -22.5s-13.5 -7.5 -21.5 -7.5zM265 -9c-69.333 0 -122.5 23.8311 -159.5 71.498s-55.5 116.834 -55.5 207.501
c0 91.333 18.5 160.833 55.5 208.5s90.167 71.5 159.5 71.5c70 0 123.333 -23.833 160 -71.5s55 -117.167 55 -208.5s-18.333 -160.666 -55 -207.999s-90 -71 -160 -71zM265 27.998c116.667 0 175 80.667 175 242c0 162 -58.333 243 -175 243s-175 -81 -175 -243
c0 -161.333 58.333 -242 175 -242z" />
    <glyph glyph-name="divide" unicode="&#xf7;" horiz-adv-x="508" 
d="M257 187c-9.33301 0 -17 2.83203 -23 8.49902s-9 13.5 -9 23.5c0 10.667 3 18.834 9 24.501s13.667 8.5 23 8.5c10 0 18 -3 24 -9s9 -14 9 -24s-3 -17.833 -9 -23.5s-14 -8.5 -24 -8.5zM71 387.999h367v-36h-367v36zM257 479.999c-9.33301 0 -17 2.83203 -23 8.49902
s-9 13.5 -9 23.5c0 10.667 3 18.834 9 24.501s13.667 8.5 23 8.5c10 0 18 -3 24 -9s9 -14 9 -24s-3 -17.833 -9 -23.5s-14 -8.5 -24 -8.5z" />
    <glyph glyph-name="oslash" unicode="&#xf8;" horiz-adv-x="535" 
d="M97 79c-29.333 46.667 -44.001 110.334 -44.001 191.001c0 90.667 18.333 160 55 208s89.667 72 159 72c62 0 111 -19.667 147 -59l38 49h45l-60 -78c14.667 -23.333 25.834 -51 33.501 -83s11.5 -68.333 11.5 -109c0 -90.667 -18.333 -159.834 -55 -207.501
s-90 -71.5 -160 -71.5c-62 0 -111.333 19.333 -148 58l-37 -49h-46zM91.999 270c0 -67.333 9.99902 -120.333 29.999 -159l269 350c-29.333 34.667 -70.666 52 -123.999 52c-116.667 0 -175 -81 -175 -243zM266.998 28c116.667 0 175 80.667 175 242
c0 66.667 -10 119.667 -30 159l-269 -350c28.667 -34 70 -51 124 -51z" />
    <glyph glyph-name="ugrave" unicode="&#xf9;" horiz-adv-x="533" 
d="M200 -10c-43.333 0 -75.001 11.667 -95.001 35s-30 60 -30 110v405h38v-397c0 -40 7.33301 -69.167 22 -87.5s38 -27.5 70 -27.5c33.333 0 66.5 6.66699 99.5 20s70.167 31.333 111.5 54v438h38v-540h-32l-5 64h-4l-66 -33c-19.333 -9.33301 -37.166 -17 -53.499 -23
s-32 -10.5 -47 -13.5s-30.5 -4.5 -46.5 -4.5zM247.999 615l-88 188h44l73 -178z" />
    <glyph glyph-name="uacute" unicode="&#xfa;" horiz-adv-x="533" 
d="M248 616l75 182h40l-88 -188zM200 -10c-43.333 0 -75.001 11.667 -95.001 35s-30 60 -30 110v405h38v-397c0 -40 7.33301 -69.167 22 -87.5s38 -27.5 70 -27.5c33.333 0 66.5 6.66699 99.5 20s70.167 31.333 111.5 54v438h38v-540h-32l-5 64h-4l-66 -33
c-19.333 -9.33301 -37.166 -17 -53.499 -23s-32 -10.5 -47 -13.5s-30.5 -4.5 -46.5 -4.5z" />
    <glyph glyph-name="ucircumflex" unicode="&#xfb;" horiz-adv-x="533" 
d="M124 685l137 72l138 -72v-43l-137 72l-138 -72v43zM200 -10c-43.333 0 -75.001 11.667 -95.001 35s-30 60 -30 110v405h38v-397c0 -40 7.33301 -69.167 22 -87.5s38 -27.5 70 -27.5c33.333 0 66.5 6.66699 99.5 20s70.167 31.333 111.5 54v438h38v-540h-32l-5 64h-4
l-66 -33c-19.333 -9.33301 -37.166 -17 -53.499 -23s-32 -10.5 -47 -13.5s-30.5 -4.5 -46.5 -4.5z" />
    <glyph glyph-name="udieresis" unicode="&#xfc;" horiz-adv-x="533" 
d="M159 655c-9.33301 0 -16.833 2.5 -22.5 7.5s-8.5 12.5 -8.5 22.5c0 10.667 2.83301 18.5 8.5 23.5s13.167 7.5 22.5 7.5c8.66699 0 16 -2.5 22 -7.5s9 -12.833 9 -23.5c0 -10 -3 -17.5 -9 -22.5s-13.333 -7.5 -22 -7.5zM362 655c-9.33301 0 -16.833 2.5 -22.5 7.5
s-8.5 12.5 -8.5 22.5c0 10.667 2.83301 18.5 8.5 23.5s13.167 7.5 22.5 7.5c8 0 15.167 -2.5 21.5 -7.5s9.5 -12.833 9.5 -23.5c0 -10 -3.16699 -17.5 -9.5 -22.5s-13.5 -7.5 -21.5 -7.5zM200 -10c-43.333 0 -75.001 11.667 -95.001 35s-30 60 -30 110v405h38v-397
c0 -40 7.33301 -69.167 22 -87.5s38 -27.5 70 -27.5c33.333 0 66.5 6.66699 99.5 20s70.167 31.333 111.5 54v438h38v-540h-32l-5 64h-4l-66 -33c-19.333 -9.33301 -37.166 -17 -53.499 -23s-32 -10.5 -47 -13.5s-30.5 -4.5 -46.5 -4.5z" />
    <glyph glyph-name="yacute" unicode="&#xfd;" horiz-adv-x="496" 
d="M146 -211l-1 6l83 208l-208 532v5h39l168 -433l19 -57h3l20 57l171 433h38v-5l-298 -755zM238 616l75 182h40l-88 -188z" />
    <glyph glyph-name="thorn" unicode="&#xfe;" horiz-adv-x="534" 
d="M79 808h37.999v-330c18.667 23.333 41.834 41.166 69.501 53.499s58.5 18.5 92.5 18.5c66.667 0 117.5 -22.5 152.5 -67.5s52.5 -114.167 52.5 -207.5c0 -95.333 -21.667 -166.666 -65 -213.999s-102 -71 -176 -71c-22.667 0 -45 1.16699 -67 3.5
s-41.667 4.83301 -59 7.5v-221h-38v1028zM244.999 26c64 0 113.168 20.166 147.501 60.499s51.5 102.833 51.5 187.5c0 82.667 -13.833 143.167 -41.5 181.5s-69.834 57.5 -126.501 57.5c-19.333 0 -38.5 -3 -57.5 -9s-36 -14 -51 -24s-27.167 -21.833 -36.5 -35.5
s-14 -28.5 -14 -44.5v-362c19.333 -3.33301 40 -6.16602 62 -8.49902s44 -3.5 66 -3.5z" />
    <glyph glyph-name="ydieresis" unicode="&#xff;" horiz-adv-x="496" 
d="M146 -211l-1 6l83 208l-208 532v5h39l168 -433l19 -57h3l20 57l171 433h38v-5l-298 -755zM149 655c-9.33301 0 -16.833 2.5 -22.5 7.5s-8.5 12.5 -8.5 22.5c0 10.667 2.83301 18.5 8.5 23.5s13.167 7.5 22.5 7.5c8.66699 0 16 -2.5 22 -7.5s9 -12.833 9 -23.5
c0 -10 -3 -17.5 -9 -22.5s-13.333 -7.5 -22 -7.5zM352 655c-9.33301 0 -16.833 2.5 -22.5 7.5s-8.5 12.5 -8.5 22.5c0 10.667 2.83301 18.5 8.5 23.5s13.167 7.5 22.5 7.5c8 0 15.167 -2.5 21.5 -7.5s9.5 -12.833 9.5 -23.5c0 -10 -3.16699 -17.5 -9.5 -22.5
s-13.5 -7.5 -21.5 -7.5z" />
    <glyph glyph-name="Amacron" unicode="&#x100;" horiz-adv-x="603" 
d="M11 6l262 734h56l263 -734v-6h-38l-89 247h-328l-88 -247h-38v6zM452 284l-108 303l-41 116h-4l-40 -116l-109 -303h302zM169 878h257v-36h-257v36z" />
    <glyph glyph-name="amacron" unicode="&#x101;" horiz-adv-x="472" 
d="M173 -5c-43.333 0 -76.0029 11.335 -98.0029 34.002s-33 55.667 -33 99c0 50 15.833 88.333 47.5 115s81.834 43 150.501 49l120 10v68c0 50.667 -10.167 86.667 -30.5 108s-55.166 32 -104.499 32c-41.333 0 -89.333 -6 -144 -18l-5 37c30 5.33301 57.5 9.5 82.5 12.5
s48.5 4.5 70.5 4.5c58 0 100.667 -13.833 128 -41.5s41 -70.834 41 -129.501v-375h-32l-6 67h-4c-32 -20.667 -63.167 -37.834 -93.5 -51.501s-60.166 -20.5 -89.499 -20.5zM178.997 32.002c14 0 28.5 2.16602 43.5 6.49902s30.333 10 46 17s31.167 14.833 46.5 23.5
s30.333 17.667 45 27v163l-113 -10c-30.667 -2.66699 -56.5 -7.16699 -77.5 -13.5s-38 -14.666 -51 -24.999s-22.5 -23 -28.5 -38s-9 -32.5 -9 -52.5c0 -65.333 32.667 -98 98 -98zM108.997 689.001h267v-37h-267v37z" />
    <glyph glyph-name="Abreve" unicode="&#x102;" horiz-adv-x="603" 
d="M11 6l262 734h56l263 -734v-6h-38l-89 247h-328l-88 -247h-38v6zM452 284l-108 303l-41 116h-4l-40 -116l-109 -303h302zM303 816c-48 0 -85.333 11.667 -112 35s-40 56 -40 98h37c0 -30.667 10.167 -54.667 30.5 -72s48.5 -26 84.5 -26s64.167 8.66699 84.5 26
s30.5 41.333 30.5 72h37c0 -42 -13.5 -74.667 -40.5 -98s-64.167 -35 -111.5 -35z" />
    <glyph glyph-name="abreve" unicode="&#x103;" horiz-adv-x="472" 
d="M173 -5c-43.333 0 -76.0029 11.335 -98.0029 34.002s-33 55.667 -33 99c0 50 15.833 88.333 47.5 115s81.834 43 150.501 49l120 10v68c0 50.667 -10.167 86.667 -30.5 108s-55.166 32 -104.499 32c-41.333 0 -89.333 -6 -144 -18l-5 37c30 5.33301 57.5 9.5 82.5 12.5
s48.5 4.5 70.5 4.5c58 0 100.667 -13.833 128 -41.5s41 -70.834 41 -129.501v-375h-32l-6 67h-4c-32 -20.667 -63.167 -37.834 -93.5 -51.501s-60.166 -20.5 -89.499 -20.5zM178.997 32.002c14 0 28.5 2.16602 43.5 6.49902s30.333 10 46 17s31.167 14.833 46.5 23.5
s30.333 17.667 45 27v163l-113 -10c-30.667 -2.66699 -56.5 -7.16699 -77.5 -13.5s-38 -14.666 -51 -24.999s-22.5 -23 -28.5 -38s-9 -32.5 -9 -52.5c0 -65.333 32.667 -98 98 -98zM239.997 621.001c-50 0 -88.001 11.999 -114.001 35.999s-39 58 -39 102h36
c0 -36.667 10.333 -63.334 31 -80.001s49.334 -25 86.001 -25c36 0 64.333 8.33301 85 25s31 43.334 31 80.001h36c0 -43.333 -12.833 -77.166 -38.5 -101.499s-63.5 -36.5 -113.5 -36.5z" />
    <glyph glyph-name="Aogonek" unicode="&#x104;" horiz-adv-x="603" 
d="M531 -220c-54 0 -81 25.998 -81 77.998c0 27.333 8.33301 51.833 25 73.5s45 44.5 85 68.5h-6l-89 247h-328l-88 -247h-38v6l262 734h56l263 -734v-27c-38 -19.333 -65.167 -38.166 -81.5 -56.499s-24.5 -39.166 -24.5 -62.499c0 -16.667 4 -28.667 12 -36s21 -11 39 -11
c18.667 0 36.667 3.33301 54 10v-31c-17.333 -8 -37.333 -12 -60 -12zM452 283.998l-108 303l-41 116h-4l-40 -116l-109 -303h302z" />
    <glyph glyph-name="aogonek" unicode="&#x105;" horiz-adv-x="472" 
d="M337 -220c-54 0 -81.0029 26 -81.0029 78c0 27.333 8.33301 51.833 25 73.5s45 44.5 85 68.5l-6 67h-4c-32 -20.667 -63.167 -37.834 -93.5 -51.501s-60.166 -20.5 -89.499 -20.5c-43.333 0 -76 11.333 -98 34s-33 55.667 -33 99c0 50 15.833 88.333 47.5 115
s81.834 43 150.501 49l120 10v68c0 50.667 -10.167 86.667 -30.5 108s-55.166 32 -104.499 32c-41.333 0 -89.333 -6 -144 -18l-5 37c30 5.33301 57.5 9.5 82.5 12.5s48.5 4.5 70.5 4.5c58 0 100.667 -13.833 128 -41.5s41 -70.834 41 -129.501v-396
c-38 -19.333 -65.167 -38.166 -81.5 -56.499s-24.5 -39.166 -24.5 -62.499c0 -16.667 4 -28.667 12 -36s21 -11 39 -11c18.667 0 36.667 3.33301 54 10v-31c-17.333 -8 -37.333 -12 -60 -12zM178.997 32c14 0 28.5 2.16602 43.5 6.49902s30.333 10 46 17
s31.167 14.833 46.5 23.5s30.333 17.667 45 27v163l-113 -10c-30.667 -2.66699 -56.5 -7.16699 -77.5 -13.5s-38 -14.666 -51 -24.999s-22.5 -23 -28.5 -38s-9 -32.5 -9 -52.5c0 -65.333 32.667 -98 98 -98z" />
    <glyph glyph-name="Cacute" unicode="&#x106;" horiz-adv-x="546" 
d="M365 -9c-105.333 1.33301 -183.333 32.6689 -234 94.002s-76 156 -76 284c0 130.667 25.5 226.667 76.5 288s130.167 92 237.5 92c19.333 0 41.5 -1.33301 66.5 -4s49.167 -6.33398 72.5 -11.001v-38c-22 5.33301 -45.167 9.16602 -69.5 11.499s-46.833 3.5 -67.5 3.5
c-94 0 -163.5 -27.833 -208.5 -83.5s-67.5 -141.834 -67.5 -258.501c0 -226.667 89.667 -340 269 -340c8 0 18.167 0.5 30.5 1.5s25.333 2.16699 39 3.5s27 3 40 5s24.5 4 34.5 6v-36c-20 -5.33301 -43 -9.66602 -69 -12.999s-50.667 -5 -74 -5zM309 799.003l79 123h42
l-86 -128z" />
    <glyph glyph-name="cacute" unicode="&#x107;" horiz-adv-x="421" 
d="M231 616l75 182h40l-88 -188zM280 -10c-152.667 0 -229 93.333 -229 280c0 92.667 19 162.5 57 209.5s95.333 70.5 172 70.5c13.333 0 28.5 -1.16699 45.5 -3.5s34.833 -5.5 53.5 -9.5v-38c-30.667 8.66699 -62.667 13 -96 13c-64.667 0 -112.834 -19.833 -144.501 -59.5
s-47.5 -100.834 -47.5 -183.501c0 -83.333 15.333 -144.333 46 -183s79 -58 145 -58c14.667 0 29.5 0.833008 44.5 2.5s32.167 4.83398 51.5 9.50098l1 -37c-13.333 -3.33301 -29.166 -6.33301 -47.499 -9s-35.5 -4 -51.5 -4z" />
    <glyph glyph-name="Ccircumflex" unicode="&#x108;" horiz-adv-x="546" 
d="M365 -9c-105.333 1.33301 -183.333 32.6689 -234 94.002s-76 156 -76 284c0 130.667 25.5 226.667 76.5 288s130.167 92 237.5 92c19.333 0 41.5 -1.33301 66.5 -4s49.167 -6.33398 72.5 -11.001v-38c-22 5.33301 -45.167 9.16602 -69.5 11.499s-46.833 3.5 -67.5 3.5
c-94 0 -163.5 -27.833 -208.5 -83.5s-67.5 -141.834 -67.5 -258.501c0 -226.667 89.667 -340 269 -340c8 0 18.167 0.5 30.5 1.5s25.333 2.16699 39 3.5s27 3 40 5s24.5 4 34.5 6v-36c-20 -5.33301 -43 -9.66602 -69 -12.999s-50.667 -5 -74 -5zM194 862.003l138 72l137 -72
v-44l-137 72l-138 -72v44z" />
    <glyph glyph-name="ccircumflex" unicode="&#x109;" horiz-adv-x="421" 
d="M106 685l137 72l138 -72v-43l-137 72l-138 -72v43zM280 -10c-152.667 0 -229 93.333 -229 280c0 92.667 19 162.5 57 209.5s95.333 70.5 172 70.5c13.333 0 28.5 -1.16699 45.5 -3.5s34.833 -5.5 53.5 -9.5v-38c-30.667 8.66699 -62.667 13 -96 13
c-64.667 0 -112.834 -19.833 -144.501 -59.5s-47.5 -100.834 -47.5 -183.501c0 -83.333 15.333 -144.333 46 -183s79 -58 145 -58c14.667 0 29.5 0.833008 44.5 2.5s32.167 4.83398 51.5 9.50098l1 -37c-13.333 -3.33301 -29.166 -6.33301 -47.499 -9s-35.5 -4 -51.5 -4z
" />
    <glyph glyph-name="Cdotaccent" unicode="&#x10a;" horiz-adv-x="546" 
d="M332 813c-9.33301 0 -17.166 2.66699 -23.499 8s-9.5 13.666 -9.5 24.999s3.16699 19.666 9.5 24.999s14.166 8 23.499 8s17.333 -2.66699 24 -8s10 -13.666 10 -24.999s-3.33301 -19.666 -10 -24.999s-14.667 -8 -24 -8zM365 -9
c-105.333 1.33301 -183.333 32.6689 -234 94.002s-76 156 -76 284c0 130.667 25.5 226.667 76.5 288s130.167 92 237.5 92c19.333 0 41.5 -1.33301 66.5 -4s49.167 -6.33398 72.5 -11.001v-38c-22 5.33301 -45.167 9.16602 -69.5 11.499s-46.833 3.5 -67.5 3.5
c-94 0 -163.5 -27.833 -208.5 -83.5s-67.5 -141.834 -67.5 -258.501c0 -226.667 89.667 -340 269 -340c8 0 18.167 0.5 30.5 1.5s25.333 2.16699 39 3.5s27 3 40 5s24.5 4 34.5 6v-36c-20 -5.33301 -43 -9.66602 -69 -12.999s-50.667 -5 -74 -5z" />
    <glyph glyph-name="cdotaccent" unicode="&#x10b;" horiz-adv-x="421" 
d="M280 -10c-152.667 0 -229 93.333 -229 280c0 92.667 19 162.5 57 209.5s95.333 70.5 172 70.5c13.333 0 28.5 -1.16699 45.5 -3.5s34.833 -5.5 53.5 -9.5v-38c-30.667 8.66699 -62.667 13 -96 13c-64.667 0 -112.834 -19.833 -144.501 -59.5
s-47.5 -100.834 -47.5 -183.501c0 -83.333 15.333 -144.333 46 -183s79 -58 145 -58c14.667 0 29.5 0.833008 44.5 2.5s32.167 4.83398 51.5 9.50098l1 -37c-13.333 -3.33301 -29.166 -6.33301 -47.499 -9s-35.5 -4 -51.5 -4zM243 653c-9.33301 0 -17.166 2.5 -23.499 7.5
s-9.5 13.167 -9.5 24.5c0 12 3.16699 20.667 9.5 26s14.166 8 23.499 8s17.333 -2.66699 24 -8s10 -14 10 -26c0 -11.333 -3.33301 -19.5 -10 -24.5s-14.667 -7.5 -24 -7.5z" />
    <glyph glyph-name="Ccaron" unicode="&#x10c;" horiz-adv-x="546" 
d="M365 -9c-105.333 1.33301 -183.333 32.6689 -234 94.002s-76 156 -76 284c0 130.667 25.5 226.667 76.5 288s130.167 92 237.5 92c19.333 0 41.5 -1.33301 66.5 -4s49.167 -6.33398 72.5 -11.001v-38c-22 5.33301 -45.167 9.16602 -69.5 11.499s-46.833 3.5 -67.5 3.5
c-94 0 -163.5 -27.833 -208.5 -83.5s-67.5 -141.834 -67.5 -258.501c0 -226.667 89.667 -340 269 -340c8 0 18.167 0.5 30.5 1.5s25.333 2.16699 39 3.5s27 3 40 5s24.5 4 34.5 6v-36c-20 -5.33301 -43 -9.66602 -69 -12.999s-50.667 -5 -74 -5zM196 924.003l138 -72l137 72
v-43l-137 -72l-138 72v43z" />
    <glyph glyph-name="ccaron" unicode="&#x10d;" horiz-adv-x="421" 
d="M109 754l137 -72l138 72v-43l-138 -72l-137 72v43zM280 -10c-152.667 0 -229 93.333 -229 280c0 92.667 19 162.5 57 209.5s95.333 70.5 172 70.5c13.333 0 28.5 -1.16699 45.5 -3.5s34.833 -5.5 53.5 -9.5v-38c-30.667 8.66699 -62.667 13 -96 13
c-64.667 0 -112.834 -19.833 -144.501 -59.5s-47.5 -100.834 -47.5 -183.501c0 -83.333 15.333 -144.333 46 -183s79 -58 145 -58c14.667 0 29.5 0.833008 44.5 2.5s32.167 4.83398 51.5 9.50098l1 -37c-13.333 -3.33301 -29.166 -6.33301 -47.499 -9s-35.5 -4 -51.5 -4z
" />
    <glyph glyph-name="Dcaron" unicode="&#x10e;" horiz-adv-x="655" 
d="M159 924l138 -72l137 72v-43l-137 -72l-138 72v43zM240 -13c-30.667 0 -59 1 -85 3s-46.667 5 -62 9v737c12.667 2 26.667 3.83301 42 5.5s30.5 3 45.5 4s29.667 1.83301 44 2.5s26.833 1 37.5 1c116 0 201.333 -30.833 256 -92.5s82 -157.167 82 -286.5
c0 -131.333 -29 -228 -87 -290s-149 -93 -273 -93zM244 24c107.333 0 186.999 28.333 238.999 85s78 143.667 78 261c0 118 -24.167 204.333 -72.5 259s-124.5 82 -228.5 82c-18.667 0 -40 -0.666992 -64 -2s-45.667 -3.33301 -65 -6v-671
c22.667 -3.33301 42.334 -5.5 59.001 -6.5s34.667 -1.5 54 -1.5z" />
    <glyph glyph-name="dcaron" unicode="&#x10f;" horiz-adv-x="534" 
d="M529 808h37l-20 -228h-17v228zM257 -10c-68.667 0 -120.332 22.499 -154.999 67.499s-52 115.833 -52 212.5c0 92.667 21.5 162.5 64.5 209.5s100.5 70.5 172.5 70.5c23.333 0 45.666 -1.16699 66.999 -3.5s42.333 -4.83301 63 -7.5v269h38v-808h-32l-5 62h-4
c-18 -23.333 -40.167 -41.166 -66.5 -53.499s-56.5 -18.5 -90.5 -18.5zM257.002 26.999c19.333 0 38.665 3.00098 57.998 9.00098s36.5 14 51.5 24s27.167 22 36.5 36s14 29 14 45v361c-21.333 3.33301 -42.666 6 -63.999 8s-43.666 3 -66.999 3
c-62 0 -110.167 -20 -144.5 -60s-51.5 -101 -51.5 -183c0 -82.667 14.167 -143.834 42.5 -183.501s69.833 -59.5 124.5 -59.5z" />
    <glyph glyph-name="Dcroat" unicode="&#x110;" horiz-adv-x="662" 
d="M3 387h97v349c12.667 2 26.667 3.83301 42 5.5s30.5 3 45.5 4s29.667 1.83301 44 2.5s26.833 1 37.5 1c116 0 201.333 -30.833 256 -92.5s82 -157.167 82 -286.5c0 -131.333 -29 -228 -87 -290s-149 -93 -273 -93c-30.667 0 -59 1 -85 3s-46.667 5 -62 9v351h-97v37z
M251 24c107.333 0 186.999 28.333 238.999 85s78 143.667 78 261c0 118 -24.167 204.333 -72.5 259s-124.5 82 -228.5 82c-18.667 0 -40 -0.666992 -64 -2s-45.667 -3.33301 -65 -6v-316h196v-37h-196v-318c22.667 -3.33301 42.334 -5.5 59.001 -6.5s34.667 -1.5 54 -1.5z
" />
    <glyph glyph-name="dcroat" unicode="&#x111;" horiz-adv-x="534" 
d="M233 688l184.002 -0.000976562v120h38v-120h77v-30h-77v-658h-32l-5 62h-4c-18 -23.333 -40.167 -41.166 -66.5 -53.499s-56.5 -18.5 -90.5 -18.5c-68.667 0 -120.334 22.5 -155.001 67.5s-52 115.833 -52 212.5c0 92.667 21.5 162.5 64.5 209.5s100.5 70.5 172.5 70.5
c23.333 0 45.666 -1.16699 66.999 -3.5s42.333 -4.83301 63 -7.5v119h-184v30zM257.002 26.999c19.333 0 38.665 3.00098 57.998 9.00098s36.5 14 51.5 24s27.167 22 36.5 36s14 29 14 45v361c-21.333 3.33301 -42.666 6 -63.999 8s-43.666 3 -66.999 3
c-62 0 -110.167 -20 -144.5 -60s-51.5 -101 -51.5 -183c0 -82.667 14.167 -143.834 42.5 -183.501s69.833 -59.5 124.5 -59.5z" />
    <glyph glyph-name="Emacron" unicode="&#x112;" horiz-adv-x="557" 
d="M163 878h257v-36h-257v36zM93 740h406v-37h-368v-308h343v-37h-343v-321h376v-37h-414v740z" />
    <glyph glyph-name="emacron" unicode="&#x113;" horiz-adv-x="486" 
d="M272 -9c-71.333 0 -126 23 -164 69s-57 112.333 -57 199c0 94.667 18.167 166.667 54.5 216s89.5 74 159.5 74c56 0 98.833 -19.833 128.5 -59.5s44.5 -97.167 44.5 -172.5c0 -15.333 -0.166992 -28 -0.5 -38s-1.16602 -19 -2.49902 -27h-345
c1.33301 -74 17.666 -129.833 48.999 -167.5s76.666 -56.5 135.999 -56.5c22.667 0 45 2.33301 67 7s46 12.667 72 24l5 -36c-22 -10 -46.167 -17.833 -72.5 -23.5s-51.166 -8.5 -74.499 -8.5zM264 512c-54 0 -95.6689 -19.167 -125.002 -57.5
s-45.666 -94.166 -48.999 -167.499h310c-1.33301 79.333 -12.666 136.666 -33.999 171.999s-55.333 53 -102 53zM118.998 689h267v-37h-267v37z" />
    <glyph glyph-name="Ebreve" unicode="&#x114;" horiz-adv-x="557" 
d="M297 816c-48 0 -85.333 11.667 -112 35s-40 56 -40 98h37c0 -30.667 10.167 -54.667 30.5 -72s48.5 -26 84.5 -26s64.167 8.66699 84.5 26s30.5 41.333 30.5 72h37c0 -42 -13.5 -74.667 -40.5 -98s-64.167 -35 -111.5 -35zM93 740h406v-37h-368v-308h343v-37h-343v-321
h376v-37h-414v740z" />
    <glyph glyph-name="ebreve" unicode="&#x115;" horiz-adv-x="486" 
d="M272 -9c-71.333 0 -126 23 -164 69s-57 112.333 -57 199c0 94.667 18.167 166.667 54.5 216s89.5 74 159.5 74c56 0 98.833 -19.833 128.5 -59.5s44.5 -97.167 44.5 -172.5c0 -15.333 -0.166992 -28 -0.5 -38s-1.16602 -19 -2.49902 -27h-345
c1.33301 -74 17.666 -129.833 48.999 -167.5s76.666 -56.5 135.999 -56.5c22.667 0 45 2.33301 67 7s46 12.667 72 24l5 -36c-22 -10 -46.167 -17.833 -72.5 -23.5s-51.166 -8.5 -74.499 -8.5zM264 512c-54 0 -95.6689 -19.167 -125.002 -57.5
s-45.666 -94.166 -48.999 -167.499h310c-1.33301 79.333 -12.666 136.666 -33.999 171.999s-55.333 53 -102 53zM251.998 621c-50 0 -88.001 11.999 -114.001 35.999s-39 58 -39 102h36c0 -36.667 10.333 -63.334 31 -80.001s49.334 -25 86.001 -25
c36 0 64.333 8.33301 85 25s31 43.334 31 80.001h36c0 -43.333 -12.833 -77.166 -38.5 -101.499s-63.5 -36.5 -113.5 -36.5z" />
    <glyph glyph-name="Edotaccent" unicode="&#x116;" horiz-adv-x="557" 
d="M296 813c-9.33301 0 -17.166 2.66699 -23.499 8s-9.5 13.666 -9.5 24.999s3.16699 19.666 9.5 24.999s14.166 8 23.499 8s17.333 -2.66699 24 -8s10 -13.666 10 -24.999s-3.33301 -19.666 -10 -24.999s-14.667 -8 -24 -8zM93 740h406v-37h-368v-308h343v-37h-343v-321
h376v-37h-414v740z" />
    <glyph glyph-name="edotaccent" unicode="&#x117;" horiz-adv-x="486" 
d="M272 -9c-71.333 0 -126 23 -164 69s-57 112.333 -57 199c0 94.667 18.167 166.667 54.5 216s89.5 74 159.5 74c56 0 98.833 -19.833 128.5 -59.5s44.5 -97.167 44.5 -172.5c0 -15.333 -0.166992 -28 -0.5 -38s-1.16602 -19 -2.49902 -27h-345
c1.33301 -74 17.666 -129.833 48.999 -167.5s76.666 -56.5 135.999 -56.5c22.667 0 45 2.33301 67 7s46 12.667 72 24l5 -36c-22 -10 -46.167 -17.833 -72.5 -23.5s-51.166 -8.5 -74.499 -8.5zM264 512c-54 0 -95.6689 -19.167 -125.002 -57.5
s-45.666 -94.166 -48.999 -167.499h310c-1.33301 79.333 -12.666 136.666 -33.999 171.999s-55.333 53 -102 53zM250.998 653c-9.33301 0 -17.166 2.5 -23.499 7.5s-9.5 13.167 -9.5 24.5c0 12 3.16699 20.667 9.5 26s14.166 8 23.499 8s17.333 -2.66699 24 -8
s10 -14 10 -26c0 -11.333 -3.33301 -19.5 -10 -24.5s-14.667 -7.5 -24 -7.5z" />
    <glyph glyph-name="Eogonek" unicode="&#x118;" horiz-adv-x="557" 
d="M93 740l406 -0.00195312v-37h-368v-308h343v-37h-343v-321h376v-58c-38 -19.333 -65.167 -38.166 -81.5 -56.499s-24.5 -39.166 -24.5 -62.499c0 -16.667 4 -28.667 12 -36s21 -11 39 -11c18.667 0 36.667 3.33301 54 10v-31c-17.333 -8 -37.333 -12 -60 -12
c-54 0 -81 26 -81 78c0 27.333 8.33301 51.833 25 73.5s45 44.5 85 68.5h-382v740z" />
    <glyph glyph-name="eogonek" unicode="&#x119;" horiz-adv-x="486" 
d="M272 -9c-71.333 0 -125.998 23 -163.998 69s-57 112.333 -57 199c0 94.667 18.167 166.667 54.5 216s89.5 74 159.5 74c56 0 98.833 -19.833 128.5 -59.5s44.5 -97.167 44.5 -172.5c0 -15.333 -0.166992 -28 -0.5 -38s-1.16602 -19 -2.49902 -27h-345
c1.33301 -74 17.666 -129.833 48.999 -167.5s76.666 -56.5 135.999 -56.5c22.667 0 45 2.33301 67 7s46 12.667 72 24l5 -36v-21c-38 -19.333 -65.167 -38.166 -81.5 -56.499s-24.5 -39.166 -24.5 -62.499c0 -16.667 4 -28.667 12 -36s21 -11 39 -11
c18.667 0 36.667 3.33301 54 10v-31c-17.333 -8 -37.333 -12 -60 -12c-54 0 -81 26 -81 78c0 23.333 5.66699 44.166 17 62.499s30.666 37.166 57.999 56.499c-27.333 -6 -54 -9 -80 -9zM264.002 512c-54 0 -95.6689 -19.167 -125.002 -57.5
s-45.666 -94.166 -48.999 -167.499h310c-1.33301 79.333 -12.666 136.666 -33.999 171.999s-55.333 53 -102 53z" />
    <glyph glyph-name="Ecaron" unicode="&#x11a;" horiz-adv-x="557" 
d="M161 924l138 -72l137 72v-43l-137 -72l-138 72v43zM93 740h406v-37h-368v-308h343v-37h-343v-321h376v-37h-414v740z" />
    <glyph glyph-name="ecaron" unicode="&#x11b;" horiz-adv-x="486" 
d="M115 754l137 -72l138 72v-43l-138 -72l-137 72v43zM272 -9c-71.333 0 -126 23 -164 69s-57 112.333 -57 199c0 94.667 18.167 166.667 54.5 216s89.5 74 159.5 74c56 0 98.833 -19.833 128.5 -59.5s44.5 -97.167 44.5 -172.5c0 -15.333 -0.166992 -28 -0.5 -38
s-1.16602 -19 -2.49902 -27h-345c1.33301 -74 17.666 -129.833 48.999 -167.5s76.666 -56.5 135.999 -56.5c22.667 0 45 2.33301 67 7s46 12.667 72 24l5 -36c-22 -10 -46.167 -17.833 -72.5 -23.5s-51.166 -8.5 -74.499 -8.5zM264 512
c-54 0 -95.6689 -19.167 -125.002 -57.5s-45.666 -94.166 -48.999 -167.499h310c-1.33301 79.333 -12.666 136.666 -33.999 171.999s-55.333 53 -102 53z" />
    <glyph glyph-name="Gcircumflex" unicode="&#x11c;" horiz-adv-x="605" 
d="M372 -9c-107.333 1.33301 -186.999 32.667 -238.999 94s-78 156 -78 284c0 130.667 26 226.667 78 288s133.333 92 244 92c22 0 46.833 -1.83301 74.5 -5.5s56.167 -8.83398 85.5 -15.501v-38c-33.333 8 -61.833 13.5 -85.5 16.5s-47.834 4.5 -72.501 4.5
c-97.333 0 -169 -27.667 -215 -83s-69 -141.666 -69 -258.999c0 -226.667 92 -340 276 -340c15.333 0 35.333 1.33301 60 4s48 6 70 10v333h37v-362c-28 -7.33301 -56.5 -13 -85.5 -17s-55.833 -6 -80.5 -6zM207.001 862.001l138 72l137 -72v-44l-137 72l-138 -72v44z" />
    <glyph glyph-name="gcircumflex" unicode="&#x11d;" horiz-adv-x="534" 
d="M142 685l137 72l138 -72v-43l-137 72l-138 -72v43zM236 -220c-25.333 0 -50.165 2.16895 -74.498 6.50195s-47.5 10.166 -69.5 17.499l4 38c23.333 -8 46.833 -14.167 70.5 -18.5s47.5 -6.5 71.5 -6.5c28 0 53.167 3.83301 75.5 11.5s41.166 20.167 56.499 37.5
s27.166 40.166 35.499 68.499s12.5 63.166 12.5 104.499v24h-4c-18 -23.333 -40.167 -41.166 -66.5 -53.499s-56.5 -18.5 -90.5 -18.5c-68 0 -119.5 22.5 -154.5 67.5s-52.5 115.5 -52.5 211.5c0 92.667 21.5 162.5 64.5 209.5s100.5 70.5 172.5 70.5
c29.333 0 58.833 -1.66699 88.5 -5s56.167 -8.33301 79.5 -15v-480c0 -52 -5.33301 -95.167 -16 -129.5s-25.5 -62 -44.5 -83s-42 -35.833 -69 -44.5s-56.833 -13 -89.5 -13zM257.001 28.002c19.333 0 38.665 3 57.998 9s36.5 14 51.5 24s27.167 21.833 36.5 35.5
s14 28.5 14 44.5v361c-21.333 3.33301 -42.666 6 -63.999 8s-43.666 3 -66.999 3c-62 0 -110.167 -20 -144.5 -60s-51.5 -101 -51.5 -183c0 -82.667 14.167 -143.667 42.5 -183s69.833 -59 124.5 -59z" />
    <glyph glyph-name="Gbreve" unicode="&#x11e;" horiz-adv-x="605" 
d="M346 816c-48 0 -85.333 11.667 -112 35s-40 56 -40 98h37c0 -30.667 10.167 -54.667 30.5 -72s48.5 -26 84.5 -26s64.167 8.66699 84.5 26s30.5 41.333 30.5 72h37c0 -42 -13.5 -74.667 -40.5 -98s-64.167 -35 -111.5 -35zM372 -9
c-107.333 1.33301 -186.999 32.667 -238.999 94s-78 156 -78 284c0 130.667 26 226.667 78 288s133.333 92 244 92c22 0 46.833 -1.83301 74.5 -5.5s56.167 -8.83398 85.5 -15.501v-38c-33.333 8 -61.833 13.5 -85.5 16.5s-47.834 4.5 -72.501 4.5
c-97.333 0 -169 -27.667 -215 -83s-69 -141.666 -69 -258.999c0 -226.667 92 -340 276 -340c15.333 0 35.333 1.33301 60 4s48 6 70 10v333h37v-362c-28 -7.33301 -56.5 -13 -85.5 -17s-55.833 -6 -80.5 -6z" />
    <glyph glyph-name="gbreve" unicode="&#x11f;" horiz-adv-x="534" 
d="M236 -220c-25.333 0 -50.165 2.16895 -74.498 6.50195s-47.5 10.166 -69.5 17.499l4 38c23.333 -8 46.833 -14.167 70.5 -18.5s47.5 -6.5 71.5 -6.5c28 0 53.167 3.83301 75.5 11.5s41.166 20.167 56.499 37.5s27.166 40.166 35.499 68.499s12.5 63.166 12.5 104.499v24
h-4c-18 -23.333 -40.167 -41.166 -66.5 -53.499s-56.5 -18.5 -90.5 -18.5c-68 0 -119.5 22.5 -154.5 67.5s-52.5 115.5 -52.5 211.5c0 92.667 21.5 162.5 64.5 209.5s100.5 70.5 172.5 70.5c29.333 0 58.833 -1.66699 88.5 -5s56.167 -8.33301 79.5 -15v-480
c0 -52 -5.33301 -95.167 -16 -129.5s-25.5 -62 -44.5 -83s-42 -35.833 -69 -44.5s-56.833 -13 -89.5 -13zM257.001 28.002c19.333 0 38.665 3 57.998 9s36.5 14 51.5 24s27.167 21.833 36.5 35.5s14 28.5 14 44.5v361c-21.333 3.33301 -42.666 6 -63.999 8
s-43.666 3 -66.999 3c-62 0 -110.167 -20 -144.5 -60s-51.5 -101 -51.5 -183c0 -82.667 14.167 -143.667 42.5 -183s69.833 -59 124.5 -59zM279 621.002c-50 0 -88.001 11.999 -114.001 35.999s-39 58 -39 102h36c0 -36.667 10.333 -63.334 31 -80.001
s49.334 -25 86.001 -25c36 0 64.333 8.33301 85 25s31 43.334 31 80.001h36c0 -43.333 -12.833 -77.166 -38.5 -101.499s-63.5 -36.5 -113.5 -36.5z" />
    <glyph glyph-name="Gdotaccent" unicode="&#x120;" horiz-adv-x="605" 
d="M345 813c-9.33301 0 -17.166 2.66699 -23.499 8s-9.5 13.666 -9.5 24.999s3.16699 19.666 9.5 24.999s14.166 8 23.499 8s17.333 -2.66699 24 -8s10 -13.666 10 -24.999s-3.33301 -19.666 -10 -24.999s-14.667 -8 -24 -8zM372 -9
c-107.333 1.33301 -186.999 32.667 -238.999 94s-78 156 -78 284c0 130.667 26 226.667 78 288s133.333 92 244 92c22 0 46.833 -1.83301 74.5 -5.5s56.167 -8.83398 85.5 -15.501v-38c-33.333 8 -61.833 13.5 -85.5 16.5s-47.834 4.5 -72.501 4.5
c-97.333 0 -169 -27.667 -215 -83s-69 -141.666 -69 -258.999c0 -226.667 92 -340 276 -340c15.333 0 35.333 1.33301 60 4s48 6 70 10v333h37v-362c-28 -7.33301 -56.5 -13 -85.5 -17s-55.833 -6 -80.5 -6z" />
    <glyph glyph-name="gdotaccent" unicode="&#x121;" horiz-adv-x="534" 
d="M236 -220c-25.333 0 -50.165 2.16895 -74.498 6.50195s-47.5 10.166 -69.5 17.499l4 38c23.333 -8 46.833 -14.167 70.5 -18.5s47.5 -6.5 71.5 -6.5c28 0 53.167 3.83301 75.5 11.5s41.166 20.167 56.499 37.5s27.166 40.166 35.499 68.499s12.5 63.166 12.5 104.499v24
h-4c-18 -23.333 -40.167 -41.166 -66.5 -53.499s-56.5 -18.5 -90.5 -18.5c-68 0 -119.5 22.5 -154.5 67.5s-52.5 115.5 -52.5 211.5c0 92.667 21.5 162.5 64.5 209.5s100.5 70.5 172.5 70.5c29.333 0 58.833 -1.66699 88.5 -5s56.167 -8.33301 79.5 -15v-480
c0 -52 -5.33301 -95.167 -16 -129.5s-25.5 -62 -44.5 -83s-42 -35.833 -69 -44.5s-56.833 -13 -89.5 -13zM257.001 28.002c19.333 0 38.665 3 57.998 9s36.5 14 51.5 24s27.167 21.833 36.5 35.5s14 28.5 14 44.5v361c-21.333 3.33301 -42.666 6 -63.999 8
s-43.666 3 -66.999 3c-62 0 -110.167 -20 -144.5 -60s-51.5 -101 -51.5 -183c0 -82.667 14.167 -143.667 42.5 -183s69.833 -59 124.5 -59zM279 653.002c-9.33301 0 -17.166 2.5 -23.499 7.5s-9.5 13.167 -9.5 24.5c0 12 3.16699 20.667 9.5 26s14.166 8 23.499 8
s17.333 -2.66699 24 -8s10 -14 10 -26c0 -11.333 -3.33301 -19.5 -10 -24.5s-14.667 -7.5 -24 -7.5z" />
    <glyph glyph-name="Gcommaaccent" unicode="&#x122;" horiz-adv-x="605" 
d="M337 -68h41l-54 -152h-38zM372 -9c-107.333 1.33301 -186.999 32.667 -238.999 94s-78 156 -78 284c0 130.667 26 226.667 78 288s133.333 92 244 92c22 0 46.833 -1.83301 74.5 -5.5s56.167 -8.83398 85.5 -15.501v-38c-33.333 8 -61.833 13.5 -85.5 16.5
s-47.834 4.5 -72.501 4.5c-97.333 0 -169 -27.667 -215 -83s-69 -141.666 -69 -258.999c0 -226.667 92 -340 276 -340c15.333 0 35.333 1.33301 60 4s48 6 70 10v333h37v-362c-28 -7.33301 -56.5 -13 -85.5 -17s-55.833 -6 -80.5 -6z" />
    <glyph glyph-name="gcommaaccent" unicode="&#x123;" horiz-adv-x="534" 
d="M386 807l-51 -150h-38l54 150h35zM236 -220c-25.333 0 -50.165 2.16895 -74.498 6.50195s-47.5 10.166 -69.5 17.499l4 38c23.333 -8 46.833 -14.167 70.5 -18.5s47.5 -6.5 71.5 -6.5c28 0 53.167 3.83301 75.5 11.5s41.166 20.167 56.499 37.5
s27.166 40.166 35.499 68.499s12.5 63.166 12.5 104.499v24h-4c-18 -23.333 -40.167 -41.166 -66.5 -53.499s-56.5 -18.5 -90.5 -18.5c-68 0 -119.5 22.5 -154.5 67.5s-52.5 115.5 -52.5 211.5c0 92.667 21.5 162.5 64.5 209.5s100.5 70.5 172.5 70.5
c29.333 0 58.833 -1.66699 88.5 -5s56.167 -8.33301 79.5 -15v-480c0 -52 -5.33301 -95.167 -16 -129.5s-25.5 -62 -44.5 -83s-42 -35.833 -69 -44.5s-56.833 -13 -89.5 -13zM257.001 28.002c19.333 0 38.665 3 57.998 9s36.5 14 51.5 24s27.167 21.833 36.5 35.5
s14 28.5 14 44.5v361c-21.333 3.33301 -42.666 6 -63.999 8s-43.666 3 -66.999 3c-62 0 -110.167 -20 -144.5 -60s-51.5 -101 -51.5 -183c0 -82.667 14.167 -143.667 42.5 -183s69.833 -59 124.5 -59z" />
    <glyph glyph-name="Hcircumflex" unicode="&#x124;" horiz-adv-x="692" 
d="M93 740h38v-343h431v343h38v-740h-38v360h-431v-360h-38v740zM199 862l138 72l137 -72v-44l-137 72l-138 -72v44z" />
    <glyph glyph-name="hcircumflex" unicode="&#x125;" horiz-adv-x="533" 
d="M145 877l137 72l138 -72v-43l-137 72l-138 -72v43zM79 808l38 0.000976562v-330h3c46.667 25.333 86.167 43.666 118.5 54.999s62.833 17 91.5 17c44 0 76.333 -11.167 97 -33.5s31 -59.5 31 -111.5v-405h-38v396c0 42 -7.66699 71.833 -23 89.5s-39 26.5 -71 26.5
c-29.333 0 -61.5 -6.16699 -96.5 -18.5s-72.5 -29.5 -112.5 -51.5v-442h-38v808z" />
    <glyph glyph-name="Hbar" unicode="&#x126;" horiz-adv-x="715" 
d="M5 581h99v159h38v-159h431v159h38v-159h99v-31h-99v-550h-38v360h-431v-360h-38v550h-99v31zM573 397v153h-431v-153h431z" />
    <glyph glyph-name="hbar" unicode="&#x127;" horiz-adv-x="533" 
d="M-18 688l97 0.000976562v120h38v-120h165v-30h-165v-180h3c46.667 25.333 86.167 43.666 118.5 54.999s62.833 17 91.5 17c44 0 76.333 -11.167 97 -33.5s31 -59.5 31 -111.5v-405h-38v396c0 42 -7.66699 71.833 -23 89.5s-39 26.5 -71 26.5
c-29.333 0 -61.5 -6.16699 -96.5 -18.5s-72.5 -29.5 -112.5 -51.5v-442h-38v658h-97v30z" />
    <glyph glyph-name="Itilde" unicode="&#x128;" horiz-adv-x="223" 
d="M93 740h38v-740h-38v740zM-51 859c14 14.667 29.8281 26.5 47.4951 35.5s35.167 13.5 52.5 13.5c14.667 0 27.834 -2.16699 39.501 -6.5s23 -9.33301 34 -15s22 -10.667 33 -15s22.833 -6.5 35.5 -6.5c13.333 0 26.333 3.5 39 10.5s24.334 16.5 35.001 28.5l26 -22
c-12 -15.333 -27.167 -27.833 -45.5 -37.5s-37.166 -14.5 -56.499 -14.5c-13.333 0 -25.833 2.16699 -37.5 6.5s-23 9.33301 -34 15s-22 10.667 -33 15s-22.5 6.5 -34.5 6.5c-13.333 0 -26.666 -3.5 -39.999 -10.5s-25.666 -16.167 -36.999 -27.5z" />
    <glyph glyph-name="itilde" unicode="&#x129;" horiz-adv-x="200" 
d="M-72 675c14 14.667 29.8301 26.5 47.4971 35.5s35.167 13.5 52.5 13.5c14 0 26.833 -2.16699 38.5 -6.5s23 -9.33301 34 -15s22 -10.667 33 -15s22.833 -6.5 35.5 -6.5c27.333 0 52 13 74 39l26 -22c-12 -16 -27.167 -28.833 -45.5 -38.5s-37.166 -14.5 -56.499 -14.5
c-13.333 0 -25.666 2.16699 -36.999 6.5s-22.666 9.33301 -33.999 15s-22.5 10.667 -33.5 15s-22.5 6.5 -34.5 6.5c-13.333 0 -26.5 -3.5 -39.5 -10.5s-25.167 -16.167 -36.5 -27.5zM80.9971 540h38v-540h-38v540z" />
    <glyph glyph-name="Imacron" unicode="&#x12a;" horiz-adv-x="223" 
d="M93 740h38v-740h-38v740zM-20 878h257v-36h-257v36z" />
    <glyph glyph-name="imacron" unicode="&#x12b;" horiz-adv-x="200" 
d="M81 540h38v-540h-38v540zM-30 689h267v-37h-267v37z" />
    <glyph glyph-name="Ibreve" unicode="&#x12c;" horiz-adv-x="223" 
d="M93 740h38v-740h-38v740zM114 816c-48 0 -85.333 11.667 -112 35s-40 56 -40 98h37c0 -30.667 10.167 -54.667 30.5 -72s48.5 -26 84.5 -26s64.167 8.66699 84.5 26s30.5 41.333 30.5 72h37c0 -42 -13.5 -74.667 -40.5 -98s-64.167 -35 -111.5 -35z" />
    <glyph glyph-name="ibreve" unicode="&#x12d;" horiz-adv-x="200" 
d="M100 621c-49.333 0 -86.833 11.999 -112.5 35.999s-38.5 58 -38.5 102h35c0 -36.667 10.333 -63.334 31 -80.001s49 -25 85 -25s64.333 8.33301 85 25s31 43.334 31 80.001h36c0 -43.333 -12.833 -77.166 -38.5 -101.499s-63.5 -36.5 -113.5 -36.5zM81 539.999h38v-540
h-38v540z" />
    <glyph glyph-name="Iogonek" unicode="&#x12e;" horiz-adv-x="223" 
d="M93 740l38 -0.00195312v-761c-38 -19.333 -65.167 -38.166 -81.5 -56.499s-24.5 -39.166 -24.5 -62.499c0 -16.667 4 -28.667 12 -36s21 -11 39 -11c18.667 0 36.667 3.33301 54 10v-31c-17.333 -8 -37.333 -12 -60 -12c-54 0 -81 26 -81 78
c0 27.333 8.33301 51.833 25 73.5s45 44.5 85 68.5h-6v740z" />
    <glyph glyph-name="iogonek" unicode="&#x12f;" horiz-adv-x="199" 
d="M80 540l38 -0.00195312v-561c-38 -19.333 -65.167 -38.166 -81.5 -56.499s-24.5 -39.166 -24.5 -62.499c0 -16.667 4 -28.667 12 -36s21 -11 39 -11c18.667 0 36.667 3.33301 54 10v-31c-17.333 -8 -37.333 -12 -60 -12c-54 0 -81 26 -81 78
c0 27.333 8.33301 51.833 25 73.5s45 44.5 85 68.5h-6v540zM99 675.998c-20.667 0 -31 10.333 -31 31s10.333 31 31 31c21.333 0 32 -10.333 32 -31s-10.667 -31 -32 -31z" />
    <glyph glyph-name="Idotaccent" unicode="&#x130;" horiz-adv-x="223" 
d="M93 740h38v-740h-38v740zM114 813c-9.33301 0 -17.166 2.66699 -23.499 8s-9.5 13.666 -9.5 24.999s3.16699 19.666 9.5 24.999s14.166 8 23.499 8s17.333 -2.66699 24 -8s10 -13.666 10 -24.999s-3.33301 -19.666 -10 -24.999s-14.667 -8 -24 -8z" />
    <glyph glyph-name="dotlessi" unicode="&#x131;" horiz-adv-x="199" 
d="M80 540h38v-540h-38v540z" />
    <glyph glyph-name="IJ" unicode="&#x132;" horiz-adv-x="447" 
d="M93 740h38v-740h-38v740zM236 -160c16 33.333 29.3311 63.665 39.998 90.998s19 53.833 25 79.5s10.333 52 13 79s4 57.167 4 90.5v560h38v-560c0 -32 -1.66699 -62.167 -5 -90.5s-8.66602 -56.666 -15.999 -84.999s-16.666 -57.166 -27.999 -86.499s-25.333 -61 -42 -95
z" />
    <glyph glyph-name="ij" unicode="&#x133;" horiz-adv-x="395" 
d="M99 676c-20.667 0 -31 10.333 -31 31s10.333 31 31 31c21.333 0 32 -10.333 32 -31s-10.667 -31 -32 -31zM80 540h38v-540h-38v540zM295 676c-20.667 0 -31 10.333 -31 31s10.333 31 31 31c21.333 0 32 -10.333 32 -31s-10.667 -31 -32 -31zM200 -201
c18.667 31.333 33.168 60.999 43.501 88.999s18.166 58 23.499 90s8.66602 67.333 9.99902 106s2 84.667 2 138v318h38v-448c0 -55.333 -7.66699 -109.666 -23 -162.999s-37.666 -103 -66.999 -149z" />
    <glyph glyph-name="Jcircumflex" unicode="&#x134;" horiz-adv-x="223" 
d="M13 -160c16 33.333 29.3311 63.665 39.998 90.998s19 53.833 25 79.5s10.333 52 13 79s4 57.167 4 90.5v560h38v-560c0 -32 -1.66699 -62.167 -5 -90.5s-8.66602 -56.666 -15.999 -84.999s-16.666 -57.166 -27.999 -86.499s-25.333 -61 -42 -95zM-25.002 861.999l138 72
l137 -72v-44l-137 72l-138 -72v44z" />
    <glyph glyph-name="jcircumflex" unicode="&#x135;" horiz-adv-x="196" 
d="M-41 688l137 72l138 -72v-43l-138 72l-137 -72v43zM1 -201c18.667 31.333 33.168 60.999 43.501 88.999s18.166 58 23.499 90s8.66602 67.333 9.99902 106s2 84.667 2 138v318h38v-448c0 -55.333 -7.66699 -109.666 -23 -162.999s-37.666 -103 -66.999 -149z" />
    <glyph glyph-name="Kcommaaccent" unicode="&#x136;" horiz-adv-x="599" 
d="M300 -68h41l-54 -152h-38zM93 740h38v-344h137l256 344h47l-248 -334l-24 -25v-5l27 -23l264 -353h-46l-269 359h-144v-359h-38v740z" />
    <glyph glyph-name="kcommaaccent" unicode="&#x137;" horiz-adv-x="479" 
d="M259 -68h41l-54 -152h-38zM79 808h38v-514h102l195 246h45l-200 -253l-14 -9v-3l15 -11l215 -264h-45l-213 260h-100v-260h-38v808z" />
    <glyph glyph-name="kgreenlandic" unicode="&#x138;" horiz-adv-x="484" 
d="M79 540h38v-246h140l158 246h44l-163 -253l-14 -9v-3l15 -11l178 -264h-44l-176 260h-138v-260h-38v540z" />
    <glyph glyph-name="Lacute" unicode="&#x139;" horiz-adv-x="464" 
d="M99 799l79 123h42l-86 -128zM93 740h38v-703h319v-37h-357v740z" />
    <glyph glyph-name="lacute" unicode="&#x13a;" horiz-adv-x="202" 
d="M90 847l75 182h40l-88 -188zM82 808h38v-808h-38v808z" />
    <glyph glyph-name="Lcommaaccent" unicode="&#x13b;" horiz-adv-x="464" 
d="M265 -68h41l-54 -152h-38zM93 740h38v-703h319v-37h-357v740z" />
    <glyph glyph-name="lcommaaccent" unicode="&#x13c;" horiz-adv-x="202" 
d="M94 -68h41l-54 -152h-38zM82 808h38v-808h-38v808z" />
    <glyph glyph-name="Lcaron" unicode="&#x13d;" horiz-adv-x="467" 
d="M356 742h37l-20 -228h-17v228zM93 740h38v-703h319v-37h-357v740z" />
    <glyph glyph-name="lcaron" unicode="&#x13e;" horiz-adv-x="202" 
d="M194 808h37l-20 -228h-17v228zM82 808h38v-808h-38v808z" />
    <glyph glyph-name="Ldot" unicode="&#x13f;" horiz-adv-x="468" 
d="M93 740h38v-703h319v-37h-357v740zM367 337c-9.33301 0 -17 2.66699 -23 8s-9 13.666 -9 24.999s3 19.666 9 24.999s13.667 8 23 8s17.333 -2.66699 24 -8s10 -13.666 10 -24.999s-3.33301 -19.666 -10 -24.999s-14.667 -8 -24 -8z" />
    <glyph glyph-name="ldot" unicode="&#x140;" horiz-adv-x="230" 
d="M82 808h38v-808h-38v808zM215 337c-9.33301 0 -17 2.66699 -23 8s-9 13.666 -9 24.999s3 19.666 9 24.999s13.667 8 23 8s17.333 -2.66699 24 -8s10 -13.666 10 -24.999s-3.33301 -19.666 -10 -24.999s-14.667 -8 -24 -8z" />
    <glyph glyph-name="Lslash" unicode="&#x141;" horiz-adv-x="487" 
d="M15 268l101 77v395h38v-365l147 113v-45l-147 -113v-293h319v-37h-357v300l-101 -77v45z" />
    <glyph glyph-name="lslash" unicode="&#x142;" horiz-adv-x="273" 
d="M25 294l90 71v443h38v-413l101 81v-39l-101 -81v-356h-38v326l-90 -71v39z" />
    <glyph glyph-name="Nacute" unicode="&#x143;" horiz-adv-x="721" 
d="M340 799l79 123h42l-86 -128zM93 740h40l397 -588l56 -88l4 1v675h38v-740h-41l-399 589l-54 85h-4v-674h-37v740z" />
    <glyph glyph-name="nacute" unicode="&#x144;" horiz-adv-x="533" 
d="M259 616l75 182h40l-88 -188zM79 540h31.998l4 -61h4c46.667 24.667 86.334 42.667 119.001 54s63.334 17 92.001 17c44 0 76.333 -11.167 97 -33.5s31 -59.5 31 -111.5v-405h-38v396c0 42 -7.66699 71.833 -23 89.5s-39 26.5 -71 26.5
c-29.333 0 -61.5 -6.16699 -96.5 -18.5s-72.5 -29.5 -112.5 -51.5v-442h-38v540z" />
    <glyph glyph-name="Ncommaaccent" unicode="&#x145;" horiz-adv-x="721" 
d="M365 -68h41l-54 -152h-38zM93 740h40l397 -588l56 -88l4 1v675h38v-740h-41l-399 589l-54 85h-4v-674h-37v740z" />
    <glyph glyph-name="ncommaaccent" unicode="&#x146;" horiz-adv-x="533" 
d="M259 -68h41l-54 -152h-38zM79 540h31.998l4 -61h4c46.667 24.667 86.334 42.667 119.001 54s63.334 17 92.001 17c44 0 76.333 -11.167 97 -33.5s31 -59.5 31 -111.5v-405h-38v396c0 42 -7.66699 71.833 -23 89.5s-39 26.5 -71 26.5
c-29.333 0 -61.5 -6.16699 -96.5 -18.5s-72.5 -29.5 -112.5 -51.5v-442h-38v540z" />
    <glyph glyph-name="Ncaron" unicode="&#x147;" horiz-adv-x="721" 
d="M228 924l138 -72l137 72v-43l-137 -72l-138 72v43zM93 740h40l397 -588l56 -88l4 1v675h38v-740h-41l-399 589l-54 85h-4v-674h-37v740z" />
    <glyph glyph-name="ncaron" unicode="&#x148;" horiz-adv-x="533" 
d="M137 754l137 -72l138 72v-43l-138 -72l-137 72v43zM79 540h31.998l4 -61h4c46.667 24.667 86.334 42.667 119.001 54s63.334 17 92.001 17c44 0 76.333 -11.167 97 -33.5s31 -59.5 31 -111.5v-405h-38v396c0 42 -7.66699 71.833 -23 89.5s-39 26.5 -71 26.5
c-29.333 0 -61.5 -6.16699 -96.5 -18.5s-72.5 -29.5 -112.5 -51.5v-442h-38v540z" />
    <glyph glyph-name="napostrophe" unicode="&#x149;" horiz-adv-x="586" 
d="M81 808v-4l-25 -224h-14v228h39zM132 540h31.998l4 -61h4c46.667 24.667 86.334 42.667 119.001 54s63.334 17 92.001 17c44 0 76.333 -11.167 97 -33.5s31 -59.5 31 -111.5v-405h-38v396c0 42 -7.66699 71.833 -23 89.5s-39 26.5 -71 26.5
c-29.333 0 -61.5 -6.16699 -96.5 -18.5s-72.5 -29.5 -112.5 -51.5v-442h-38v540z" />
    <glyph glyph-name="Eng" unicode="&#x14a;" horiz-adv-x="720" 
d="M513 -171c8 14 15.5 28.833 22.5 44.5s13.5 31.5 19.5 47.5s11.333 31.5 16 46.5s8 28.5 10 40.5l-393 581l-53 86l-5 -1v-674h-37v740h39l398 -588l56 -88h4v676h38v-679c0 -16.667 -2.16699 -35.5 -6.5 -56.5s-10.333 -42.333 -18 -64s-16.5 -43 -26.5 -64
s-20.667 -39.833 -32 -56.5z" />
    <glyph glyph-name="eng" unicode="&#x14b;" horiz-adv-x="532" 
d="M349 -203c10 20 19.334 42.001 28.001 66.001s16.167 48.667 22.5 74s11.333 50.666 15 75.999s5.5 49 5.5 71v312c0 41.333 -7.33301 71 -22 89s-38.667 27 -72 27c-56 0 -125.667 -23.667 -209 -71v-441h-38v540h32l4 -61h4c47.333 24.667 87.333 42.667 120 54
s63 17 91 17c45.333 0 78 -11.333 98 -34s30 -59.667 30 -111v-322c0 -25.333 -2 -52 -6 -80s-9.5 -55.5 -16.5 -82.5s-15.333 -52.5 -25 -76.5s-19.834 -44.333 -30.501 -61z" />
    <glyph glyph-name="Omacron" unicode="&#x14c;" horiz-adv-x="675" 
d="M204 878h257v-36h-257v36zM338 -10c-92 0 -162.167 31.666 -210.5 94.999s-72.5 158 -72.5 284c0 126.667 24.167 221.834 72.5 285.501s118.5 95.5 210.5 95.5c91.333 0 161.166 -32 209.499 -96s72.5 -159 72.5 -285s-24.167 -220.667 -72.5 -284
s-118.166 -95 -209.499 -95zM338 26.999c80.667 0 141.5 28.668 182.5 86.001s61.5 142.666 61.5 255.999c0 114 -20.667 199.833 -62 257.5s-102 86.5 -182 86.5c-162.667 0 -244 -114.667 -244 -344c0 -228 81.333 -342 244 -342z" />
    <glyph glyph-name="omacron" unicode="&#x14d;" horiz-adv-x="530" 
d="M128 689h267v-37h-267v37zM265 -9c-69.333 0 -122.5 23.8311 -159.5 71.498s-55.5 116.834 -55.5 207.501c0 91.333 18.5 160.833 55.5 208.5s90.167 71.5 159.5 71.5c70 0 123.333 -23.833 160 -71.5s55 -117.167 55 -208.5s-18.333 -160.666 -55 -207.999
s-90 -71 -160 -71zM265 27.998c116.667 0 175 80.667 175 242c0 162 -58.333 243 -175 243s-175 -81 -175 -243c0 -161.333 58.333 -242 175 -242z" />
    <glyph glyph-name="Obreve" unicode="&#x14e;" horiz-adv-x="675" 
d="M338 816c-48 0 -85.333 11.667 -112 35s-40 56 -40 98h37c0 -30.667 10.167 -54.667 30.5 -72s48.5 -26 84.5 -26s64.167 8.66699 84.5 26s30.5 41.333 30.5 72h37c0 -42 -13.5 -74.667 -40.5 -98s-64.167 -35 -111.5 -35zM338 -10c-92 0 -162.167 31.666 -210.5 94.999
s-72.5 158 -72.5 284c0 126.667 24.167 221.834 72.5 285.501s118.5 95.5 210.5 95.5c91.333 0 161.166 -32 209.499 -96s72.5 -159 72.5 -285s-24.167 -220.667 -72.5 -284s-118.166 -95 -209.499 -95zM338 26.999c80.667 0 141.5 28.668 182.5 86.001
s61.5 142.666 61.5 255.999c0 114 -20.667 199.833 -62 257.5s-102 86.5 -182 86.5c-162.667 0 -244 -114.667 -244 -344c0 -228 81.333 -342 244 -342z" />
    <glyph glyph-name="obreve" unicode="&#x14f;" horiz-adv-x="530" 
d="M265 -9c-69.333 0 -122.5 23.8311 -159.5 71.498s-55.5 116.834 -55.5 207.501c0 91.333 18.5 160.833 55.5 208.5s90.167 71.5 159.5 71.5c70 0 123.333 -23.833 160 -71.5s55 -117.167 55 -208.5s-18.333 -160.666 -55 -207.999s-90 -71 -160 -71zM265 27.998
c116.667 0 175 80.667 175 242c0 162 -58.333 243 -175 243s-175 -81 -175 -243c0 -161.333 58.333 -242 175 -242zM259 620.998c-50 0 -88.001 11.999 -114.001 35.999s-39 58 -39 102h36c0 -36.667 10.333 -63.334 31 -80.001s49.334 -25 86.001 -25
c36 0 64.333 8.33301 85 25s31 43.334 31 80.001h36c0 -43.333 -12.833 -77.166 -38.5 -101.499s-63.5 -36.5 -113.5 -36.5z" />
    <glyph glyph-name="Ohungarumlaut" unicode="&#x150;" horiz-adv-x="675" 
d="M338 -10c-92 0 -162.167 31.666 -210.5 94.999s-72.5 158 -72.5 284c0 126.667 24.167 221.834 72.5 285.501s118.5 95.5 210.5 95.5c91.333 0 161.166 -32 209.499 -96s72.5 -159 72.5 -285s-24.167 -220.667 -72.5 -284s-118.166 -95 -209.499 -95zM338 26.999
c80.667 0 141.5 28.668 182.5 86.001s61.5 142.666 61.5 255.999c0 114 -20.667 199.833 -62 257.5s-102 86.5 -182 86.5c-162.667 0 -244 -114.667 -244 -344c0 -228 81.333 -342 244 -342zM244 803l78 114h42l-86 -128zM373 803l79 114h41l-86 -128z" />
    <glyph glyph-name="ohungarumlaut" unicode="&#x151;" horiz-adv-x="530" 
d="M163 625l74 178h45l-89 -188zM321 625l74 178h45l-89 -188zM265 -9c-69.333 0 -122.5 23.8311 -159.5 71.498s-55.5 116.834 -55.5 207.501c0 91.333 18.5 160.833 55.5 208.5s90.167 71.5 159.5 71.5c70 0 123.333 -23.833 160 -71.5s55 -117.167 55 -208.5
s-18.333 -160.666 -55 -207.999s-90 -71 -160 -71zM265 27.998c116.667 0 175 80.667 175 242c0 162 -58.333 243 -175 243s-175 -81 -175 -243c0 -161.333 58.333 -242 175 -242z" />
    <glyph glyph-name="OE" unicode="&#x152;" horiz-adv-x="860" 
d="M340 -6c-92 0 -162.5 31.333 -211.5 94s-73.5 156.334 -73.5 281.001c0 125.333 24.5 219.5 73.5 282.5s119.5 94.5 211.5 94.5c15.333 0 31 -0.333008 47 -1s30.667 -2.33398 44 -5.00098h369v-37h-333v-308h308v-37h-308v-321h342v-37h-378
c-12 -2 -26.333 -3.5 -43 -4.5s-32.667 -1.5 -48 -1.5zM341 31c14 0 28.999 0.5 44.999 1.5s30.333 3.16699 43 6.5v662c-13.333 3.33301 -27.666 5.5 -42.999 6.5s-30.333 1.5 -45 1.5c-164.667 0 -247 -113.333 -247 -340c0 -225.333 82.333 -338 247 -338z" />
    <glyph glyph-name="oe" unicode="&#x153;" horiz-adv-x="877" 
d="M663 -9c-52.667 0 -96.0039 12.832 -130.004 38.499s-57.667 62.5 -71 110.5h-4c-14 -48 -37.167 -84.833 -69.5 -110.5s-73.5 -38.5 -123.5 -38.5c-69.333 0 -122.5 23.833 -159.5 71.5s-55.5 116.834 -55.5 207.501c0 91.333 18.5 160.833 55.5 208.5
s90.167 71.5 159.5 71.5c50.667 0 92.334 -13.167 125.001 -39.5s55.667 -64.5 69 -114.5h4c14 49.333 37 87.166 69 113.499s73 39.5 123 39.5c56.667 0 99.834 -19.833 129.501 -59.5s44.5 -97.167 44.5 -172.5c0 -29.333 -1.33301 -50.666 -4 -63.999h-344
c1.33301 -74 17.5 -130 48.5 -168s76.167 -57 135.5 -57c23.333 0 45.833 2.33301 67.5 7s45.834 12.667 72.501 24l5 -36c-22 -10 -46.167 -17.833 -72.5 -23.5s-51.166 -8.5 -74.499 -8.5zM264.996 27.999c116.667 0 175 80.667 175 242c0 162 -58.333 243 -175 243
s-175 -81 -175 -243c0 -161.333 58.333 -242 175 -242zM789.996 287.999c-2 79.333 -13.668 136.5 -35.001 171.5s-54.666 52.5 -99.999 52.5c-54 0 -95.833 -19.167 -125.5 -57.5s-46.167 -93.833 -49.5 -166.5h310z" />
    <glyph glyph-name="Racute" unicode="&#x154;" horiz-adv-x="593" 
d="M338 293c-28 -4 -58.666 -6 -91.999 -6c-17.333 0 -35.5 0.5 -54.5 1.5s-39.167 2.83301 -60.5 5.5v-294h-38v735c28 5.33301 54.833 9.33301 80.5 12s50.5 4 74.5 4c100 0 173 -18.5 219 -55.5s69 -95.833 69 -176.5c0 -61.333 -12.833 -109.833 -38.5 -145.5
s-65.834 -60.167 -120.501 -73.5l174 -300h-43zM252.001 323c43.333 0 80.499 3.66699 111.499 11s56.5 19 76.5 35s34.667 36.333 44 61s14 54.334 14 89.001c0 68 -19.5 117.5 -58.5 148.5s-101.5 46.5 -187.5 46.5c-18.667 0 -38.667 -0.833008 -60 -2.5
s-41.666 -4.16699 -60.999 -7.5v-372c14 -2.66699 32.333 -4.83398 55 -6.50098s44.667 -2.5 66 -2.5zM278 799l79 123h42l-86 -128z" />
    <glyph glyph-name="racute" unicode="&#x155;" horiz-adv-x="331" 
d="M178 616l75 182h40l-88 -188zM79 540l32.001 0.000976562l4 -67h4c34 18 66.167 33.667 96.5 47s60.833 23 91.5 29h12v-42h-13c-32.667 -5.33301 -64.834 -14.333 -96.501 -27s-62.5 -27.334 -92.5 -44.001v-436h-38v540z" />
    <glyph glyph-name="Rcommaaccent" unicode="&#x156;" horiz-adv-x="593" 
d="M298 -68h41l-54 -152h-38zM338 293c-28 -4 -58.666 -6 -91.999 -6c-17.333 0 -35.5 0.5 -54.5 1.5s-39.167 2.83301 -60.5 5.5v-294h-38v735c28 5.33301 54.833 9.33301 80.5 12s50.5 4 74.5 4c100 0 173 -18.5 219 -55.5s69 -95.833 69 -176.5
c0 -61.333 -12.833 -109.833 -38.5 -145.5s-65.834 -60.167 -120.501 -73.5l174 -300h-43zM252.001 323c43.333 0 80.499 3.66699 111.499 11s56.5 19 76.5 35s34.667 36.333 44 61s14 54.334 14 89.001c0 68 -19.5 117.5 -58.5 148.5s-101.5 46.5 -187.5 46.5
c-18.667 0 -38.667 -0.833008 -60 -2.5s-41.666 -4.16699 -60.999 -7.5v-372c14 -2.66699 32.333 -4.83398 55 -6.50098s44.667 -2.5 66 -2.5z" />
    <glyph glyph-name="rcommaaccent" unicode="&#x157;" horiz-adv-x="331" 
d="M90 -68h41l-54 -152h-38zM79 540l32.001 0.000976562l4 -67h4c34 18 66.167 33.667 96.5 47s60.833 23 91.5 29h12v-42h-13c-32.667 -5.33301 -64.834 -14.333 -96.501 -27s-62.5 -27.334 -92.5 -44.001v-436h-38v540z" />
    <glyph glyph-name="Rcaron" unicode="&#x158;" horiz-adv-x="593" 
d="M165 924l138 -72l137 72v-43l-137 -72l-138 72v43zM338 293c-28 -4 -58.666 -6 -91.999 -6c-17.333 0 -35.5 0.5 -54.5 1.5s-39.167 2.83301 -60.5 5.5v-294h-38v735c28 5.33301 54.833 9.33301 80.5 12s50.5 4 74.5 4c100 0 173 -18.5 219 -55.5s69 -95.833 69 -176.5
c0 -61.333 -12.833 -109.833 -38.5 -145.5s-65.834 -60.167 -120.501 -73.5l174 -300h-43zM252.001 323c43.333 0 80.499 3.66699 111.499 11s56.5 19 76.5 35s34.667 36.333 44 61s14 54.334 14 89.001c0 68 -19.5 117.5 -58.5 148.5s-101.5 46.5 -187.5 46.5
c-18.667 0 -38.667 -0.833008 -60 -2.5s-41.666 -4.16699 -60.999 -7.5v-372c14 -2.66699 32.333 -4.83398 55 -6.50098s44.667 -2.5 66 -2.5z" />
    <glyph glyph-name="rcaron" unicode="&#x159;" horiz-adv-x="331" 
d="M57 754l137 -72l138 72v-43l-138 -72l-137 72v43zM79 540l32.001 0.000976562l4 -67h4c34 18 66.167 33.667 96.5 47s60.833 23 91.5 29h12v-42h-13c-32.667 -5.33301 -64.834 -14.333 -96.501 -27s-62.5 -27.334 -92.5 -44.001v-436h-38v540z" />
    <glyph glyph-name="Sacute" unicode="&#x15a;" horiz-adv-x="515" 
d="M246 -12c-14.667 0 -30.665 0.838867 -47.998 2.50586s-35 3.83398 -53 6.50098s-35.833 6 -53.5 10s-34.167 8.33301 -49.5 13l4 36c14 -4 29.667 -8 47 -12s35 -7.33301 53 -10s35.667 -4.83398 53 -6.50098s33.333 -2.5 48 -2.5c59.333 0 105.5 13.333 138.5 40
s49.5 64.667 49.5 114c0 24.667 -4.33301 46.167 -13 64.5s-21 34.333 -37 48s-35.167 25.834 -57.5 36.501s-47.5 20.667 -75.5 30c-36 12 -66.333 24.667 -91 38s-44.834 27.833 -60.501 43.5s-26.834 33.167 -33.501 52.5s-10 41.666 -10 66.999
c0 29.333 5.33301 56.166 16 80.499s25.667 45 45 62s42.5 30.167 69.5 39.5s57.167 14 90.5 14c50.667 0 106 -7 166 -21l-4 -37c-30.667 7.33301 -59.667 12.666 -87 15.999s-52 5 -74 5c-28 0 -53.167 -3.83301 -75.5 -11.5s-41.5 -18.334 -57.5 -32.001
s-28.333 -30.334 -37 -50.001s-13 -41.5 -13 -65.5c0 -20 2.83301 -37.833 8.5 -53.5s15.334 -30 29.001 -43s31.5 -25.167 53.5 -36.5s49.333 -22.333 82 -33c31.333 -10.667 59.666 -21.834 84.999 -33.501s46.833 -25.667 64.5 -42s31.334 -35.5 41.001 -57.5
s14.5 -48.667 14.5 -80c0 -60.667 -19.833 -107.834 -59.5 -141.501s-95.834 -50.5 -168.501 -50.5zM245.002 799.006l79 123h42l-86 -128z" />
    <glyph glyph-name="sacute" unicode="&#x15b;" horiz-adv-x="404" 
d="M188 616l75 182h40l-88 -188zM196 -11c-9.33301 0 -18.834 0.329102 -28.501 0.996094s-20.334 1.83398 -32.001 3.50098s-24.667 4 -39 7l-50.5 10.5v38c26 -7.33301 51.5 -13 76.5 -17s48.167 -6 69.5 -6c42 0 74.167 9.83301 96.5 29.5s33.5 47.5 33.5 83.5
c0 18.667 -2.83301 34.5 -8.5 47.5s-13.5 24.167 -23.5 33.5s-22 17 -36 23s-29.667 11 -47 15c-18 4.66699 -36.167 9.66699 -54.5 15s-34.833 13.333 -49.5 24s-26.667 24.834 -36 42.501s-14 41.167 -14 70.5c0 44 14.833 78.833 44.5 104.5s70.5 38.5 122.5 38.5
c8.66699 0 17 -0.333008 25 -1s16.5 -1.66699 25.5 -3s19.333 -3.16602 31 -5.49902l41.5 -8.5l-2 -37c-27.333 6.66699 -50 11.334 -68 14.001s-35.333 4 -52 4c-41.333 0 -73.166 -9.16699 -95.499 -27.5s-33.5 -44.5 -33.5 -78.5c0 -20 3.33301 -36.5 10 -49.5
s15.834 -23.5 27.501 -31.5s25 -14.5 40 -19.5s30.833 -9.83301 47.5 -14.5c21.333 -6 41 -12.667 59 -20s33.333 -17 46 -29s22.5 -26.5 29.5 -43.5s10.5 -37.833 10.5 -62.5c0 -47.333 -15.167 -84.333 -45.5 -111s-70.5 -40 -120.5 -40z" />
    <glyph glyph-name="Scircumflex" unicode="&#x15c;" horiz-adv-x="515" 
d="M246 -12c-14.667 0 -30.665 0.838867 -47.998 2.50586s-35 3.83398 -53 6.50098s-35.833 6 -53.5 10s-34.167 8.33301 -49.5 13l4 36c14 -4 29.667 -8 47 -12s35 -7.33301 53 -10s35.667 -4.83398 53 -6.50098s33.333 -2.5 48 -2.5c59.333 0 105.5 13.333 138.5 40
s49.5 64.667 49.5 114c0 24.667 -4.33301 46.167 -13 64.5s-21 34.333 -37 48s-35.167 25.834 -57.5 36.501s-47.5 20.667 -75.5 30c-36 12 -66.333 24.667 -91 38s-44.834 27.833 -60.501 43.5s-26.834 33.167 -33.501 52.5s-10 41.666 -10 66.999
c0 29.333 5.33301 56.166 16 80.499s25.667 45 45 62s42.5 30.167 69.5 39.5s57.167 14 90.5 14c50.667 0 106 -7 166 -21l-4 -37c-30.667 7.33301 -59.667 12.666 -87 15.999s-52 5 -74 5c-28 0 -53.167 -3.83301 -75.5 -11.5s-41.5 -18.334 -57.5 -32.001
s-28.333 -30.334 -37 -50.001s-13 -41.5 -13 -65.5c0 -20 2.83301 -37.833 8.5 -53.5s15.334 -30 29.001 -43s31.5 -25.167 53.5 -36.5s49.333 -22.333 82 -33c31.333 -10.667 59.666 -21.834 84.999 -33.501s46.833 -25.667 64.5 -42s31.334 -35.5 41.001 -57.5
s14.5 -48.667 14.5 -80c0 -60.667 -19.833 -107.834 -59.5 -141.501s-95.834 -50.5 -168.501 -50.5zM130.002 862.006l138 72l137 -72v-44l-137 72l-138 -72v44z" />
    <glyph glyph-name="scircumflex" unicode="&#x15d;" horiz-adv-x="404" 
d="M64 685l137 72l138 -72v-43l-137 72l-138 -72v43zM196 -11c-9.33301 0 -18.834 0.329102 -28.501 0.996094s-20.334 1.83398 -32.001 3.50098s-24.667 4 -39 7l-50.5 10.5v38c26 -7.33301 51.5 -13 76.5 -17s48.167 -6 69.5 -6c42 0 74.167 9.83301 96.5 29.5
s33.5 47.5 33.5 83.5c0 18.667 -2.83301 34.5 -8.5 47.5s-13.5 24.167 -23.5 33.5s-22 17 -36 23s-29.667 11 -47 15c-18 4.66699 -36.167 9.66699 -54.5 15s-34.833 13.333 -49.5 24s-26.667 24.834 -36 42.501s-14 41.167 -14 70.5c0 44 14.833 78.833 44.5 104.5
s70.5 38.5 122.5 38.5c8.66699 0 17 -0.333008 25 -1s16.5 -1.66699 25.5 -3s19.333 -3.16602 31 -5.49902l41.5 -8.5l-2 -37c-27.333 6.66699 -50 11.334 -68 14.001s-35.333 4 -52 4c-41.333 0 -73.166 -9.16699 -95.499 -27.5s-33.5 -44.5 -33.5 -78.5
c0 -20 3.33301 -36.5 10 -49.5s15.834 -23.5 27.501 -31.5s25 -14.5 40 -19.5s30.833 -9.83301 47.5 -14.5c21.333 -6 41 -12.667 59 -20s33.333 -17 46 -29s22.5 -26.5 29.5 -43.5s10.5 -37.833 10.5 -62.5c0 -47.333 -15.167 -84.333 -45.5 -111s-70.5 -40 -120.5 -40z
" />
    <glyph glyph-name="uni015E" unicode="&#x15e;" horiz-adv-x="515" 
d="M246 -12c-14.667 0 -30.667 0.835938 -48 2.50293s-35 3.83398 -53 6.50098s-35.833 6 -53.5 10s-34.167 8.33301 -49.5 13l4 36c14 -4 29.667 -8 47 -12s35 -7.33301 53 -10s35.667 -4.83398 53 -6.50098s33.333 -2.5 48 -2.5c59.333 0 105.5 13.333 138.5 40
s49.5 64.667 49.5 114c0 24.667 -4.33301 46.167 -13 64.5s-21 34.333 -37 48s-35.167 25.834 -57.5 36.501s-47.5 20.667 -75.5 30c-36 12 -66.333 24.667 -91 38s-44.834 27.833 -60.501 43.5s-26.834 33.167 -33.501 52.5s-10 41.666 -10 66.999
c0 29.333 5.33301 56.166 16 80.499s25.667 45 45 62s42.5 30.167 69.5 39.5s57.167 14 90.5 14c50.667 0 106 -7 166 -21l-4 -37c-30.667 7.33301 -59.667 12.666 -87 15.999s-52 5 -74 5c-28 0 -53.167 -3.83301 -75.5 -11.5s-41.5 -18.334 -57.5 -32.001
s-28.333 -30.334 -37 -50.001s-13 -41.5 -13 -65.5c0 -20 2.83301 -37.833 8.5 -53.5s15.334 -30 29.001 -43s31.5 -25.167 53.5 -36.5s49.333 -22.333 82 -33c31.333 -10.667 59.666 -21.834 84.999 -33.501s46.833 -25.667 64.5 -42s31.334 -35.5 41.001 -57.5
s14.5 -48.667 14.5 -80c0 -54 -15.667 -97.167 -47 -129.5s-75.666 -52.166 -132.999 -59.499c10.667 -21.333 18 -39.666 22 -54.999s6 -30 6 -44c0 -36 -9.66699 -63.667 -29 -83s-47 -29 -83 -29c-23.333 0 -47 3.66699 -71 11v37c13.333 -4 25 -6.83301 35 -8.5
s20 -2.5 30 -2.5c28 0 48.333 6 61 18s19 31 19 57c0 27.333 -9.33301 59.333 -28 96h-10v0z" />
    <glyph glyph-name="uni015F" unicode="&#x15f;" horiz-adv-x="404" 
d="M168 -220c-23.333 0 -46.999 3.66406 -70.999 10.9971v37c13.333 -4 25 -6.83301 35 -8.5s20 -2.5 30 -2.5c28 0 48.333 6 61 18s19 31 19 57c0 28.667 -9.66699 61.334 -29 98.001c-2.66699 -0.666992 -5.33398 -1 -8.00098 -1h-9c-9.33301 0 -18.833 0.333008 -28.5 1
s-20.334 1.83398 -32.001 3.50098s-24.667 4 -39 7l-50.5 10.5v38c26 -7.33301 51.5 -13 76.5 -17s48.167 -6 69.5 -6c42 0 74.167 9.83301 96.5 29.5s33.5 47.5 33.5 83.5c0 18.667 -2.83301 34.5 -8.5 47.5s-13.5 24.167 -23.5 33.5s-22 17 -36 23s-29.667 11 -47 15
c-18 4.66699 -36.167 9.66699 -54.5 15s-34.833 13.333 -49.5 24s-26.667 24.834 -36 42.501s-14 41.167 -14 70.5c0 44 14.833 78.833 44.5 104.5s70.5 38.5 122.5 38.5c8.66699 0 17 -0.333008 25 -1s16.5 -1.66699 25.5 -3s19.333 -3.16602 31 -5.49902l41.5 -8.5l-2 -37
c-27.333 6.66699 -50 11.334 -68 14.001s-35.333 4 -52 4c-41.333 0 -73.166 -9.16699 -95.499 -27.5s-33.5 -44.5 -33.5 -78.5c0 -20 3.33301 -36.5 10 -49.5s15.834 -23.5 27.501 -31.5s25 -14.5 40 -19.5s30.833 -9.83301 47.5 -14.5c21.333 -6 41 -12.667 59 -20
s33.333 -17 46 -29s22.5 -26.5 29.5 -43.5s10.5 -37.833 10.5 -62.5c0 -38 -10 -69.5 -30 -94.5s-47.333 -41.833 -82 -50.5c11.333 -22.667 19.166 -41.834 23.499 -57.501s6.5 -30.834 6.5 -45.501c0 -36 -9.66699 -63.667 -29 -83s-47 -29 -83 -29z" />
    <glyph glyph-name="Scaron" unicode="&#x160;" horiz-adv-x="515" 
d="M246 -12c-14.667 0 -30.665 0.838867 -47.998 2.50586s-35 3.83398 -53 6.50098s-35.833 6 -53.5 10s-34.167 8.33301 -49.5 13l4 36c14 -4 29.667 -8 47 -12s35 -7.33301 53 -10s35.667 -4.83398 53 -6.50098s33.333 -2.5 48 -2.5c59.333 0 105.5 13.333 138.5 40
s49.5 64.667 49.5 114c0 24.667 -4.33301 46.167 -13 64.5s-21 34.333 -37 48s-35.167 25.834 -57.5 36.501s-47.5 20.667 -75.5 30c-36 12 -66.333 24.667 -91 38s-44.834 27.833 -60.501 43.5s-26.834 33.167 -33.501 52.5s-10 41.666 -10 66.999
c0 29.333 5.33301 56.166 16 80.499s25.667 45 45 62s42.5 30.167 69.5 39.5s57.167 14 90.5 14c50.667 0 106 -7 166 -21l-4 -37c-30.667 7.33301 -59.667 12.666 -87 15.999s-52 5 -74 5c-28 0 -53.167 -3.83301 -75.5 -11.5s-41.5 -18.334 -57.5 -32.001
s-28.333 -30.334 -37 -50.001s-13 -41.5 -13 -65.5c0 -20 2.83301 -37.833 8.5 -53.5s15.334 -30 29.001 -43s31.5 -25.167 53.5 -36.5s49.333 -22.333 82 -33c31.333 -10.667 59.666 -21.834 84.999 -33.501s46.833 -25.667 64.5 -42s31.334 -35.5 41.001 -57.5
s14.5 -48.667 14.5 -80c0 -60.667 -19.833 -107.834 -59.5 -141.501s-95.834 -50.5 -168.501 -50.5zM132.002 924.006l138 -72l137 72v-43l-137 -72l-138 72v43z" />
    <glyph glyph-name="scaron" unicode="&#x161;" horiz-adv-x="404" 
d="M67 754l137 -72l138 72v-43l-138 -72l-137 72v43zM196 -11c-9.33301 0 -18.834 0.329102 -28.501 0.996094s-20.334 1.83398 -32.001 3.50098s-24.667 4 -39 7l-50.5 10.5v38c26 -7.33301 51.5 -13 76.5 -17s48.167 -6 69.5 -6c42 0 74.167 9.83301 96.5 29.5
s33.5 47.5 33.5 83.5c0 18.667 -2.83301 34.5 -8.5 47.5s-13.5 24.167 -23.5 33.5s-22 17 -36 23s-29.667 11 -47 15c-18 4.66699 -36.167 9.66699 -54.5 15s-34.833 13.333 -49.5 24s-26.667 24.834 -36 42.501s-14 41.167 -14 70.5c0 44 14.833 78.833 44.5 104.5
s70.5 38.5 122.5 38.5c8.66699 0 17 -0.333008 25 -1s16.5 -1.66699 25.5 -3s19.333 -3.16602 31 -5.49902l41.5 -8.5l-2 -37c-27.333 6.66699 -50 11.334 -68 14.001s-35.333 4 -52 4c-41.333 0 -73.166 -9.16699 -95.499 -27.5s-33.5 -44.5 -33.5 -78.5
c0 -20 3.33301 -36.5 10 -49.5s15.834 -23.5 27.501 -31.5s25 -14.5 40 -19.5s30.833 -9.83301 47.5 -14.5c21.333 -6 41 -12.667 59 -20s33.333 -17 46 -29s22.5 -26.5 29.5 -43.5s10.5 -37.833 10.5 -62.5c0 -47.333 -15.167 -84.333 -45.5 -111s-70.5 -40 -120.5 -40z
" />
    <glyph glyph-name="uni0162" unicode="&#x162;" horiz-adv-x="533" 
d="M208 -220c-23.333 0 -47 3.66504 -71 10.998v37c13.333 -4 25 -6.83301 35 -8.5s20 -2.5 30 -2.5c28 0 48.333 6 61 18s19 31 19 57c0 17.333 -2.5 34.333 -7.5 51s-14.167 35.667 -27.5 57v703h-233v37h504v-37h-233v-698c13.333 -25.333 22.5 -46.666 27.5 -63.999
s7.5 -33.666 7.5 -48.999c0 -36 -9.66699 -63.667 -29 -83s-47 -29 -83 -29z" />
    <glyph glyph-name="uni0163" unicode="&#x163;" horiz-adv-x="350" 
d="M166 -220c-23.333 0 -46.998 3.66797 -70.998 11.001v37c13.333 -4 25 -6.83301 35 -8.5s20 -2.5 30 -2.5c28 0 48.333 6 61 18s19 31 19 57c0 16.667 -3 33.834 -9 51.501s-15 37.5 -27 59.5c-48.667 18 -73 62 -73 132v368h-116v37h117l5 123l32 7v-130h165v-37h-165
v-364c0 -72 32.667 -108 98 -108c10 0 21.167 0.833008 33.5 2.5s24.166 4.16699 35.499 7.5v-37c-27.333 -6.66699 -52 -10 -74 -10c-6 0 -10.667 0.333008 -14 1c11.333 -22.667 19.166 -41.834 23.499 -57.501s6.5 -30.834 6.5 -45.501c0 -36 -9.66699 -63.667 -29 -83
s-47 -29 -83 -29z" />
    <glyph glyph-name="Tcaron" unicode="&#x164;" horiz-adv-x="533" 
d="M132 924l138 -72l137 72v-43l-137 -72l-138 72v43zM247 703h-233v37h504v-37h-233v-703h-38v703z" />
    <glyph glyph-name="tcaron" unicode="&#x165;" horiz-adv-x="337" 
d="M262 -6c-87.333 0 -130.999 47 -130.999 141v368h-116v37h117l5 123l32 7v-130h97v-37h-97v-364c0 -72 32.667 -108 98 -108c10 0 21.167 0.833008 33.5 2.5s24.166 4.16699 35.499 7.5v-37c-27.333 -6.66699 -52 -10 -74 -10zM267.001 808h37l-20 -228h-17v228z" />
    <glyph glyph-name="Tbar" unicode="&#x166;" horiz-adv-x="543" 
d="M128 404h123v299h-233v37h504v-37h-233v-299h132v-32h-132v-372h-38v372h-123v32z" />
    <glyph glyph-name="tbar" unicode="&#x167;" horiz-adv-x="362" 
d="M26 353h116.001v150h-116v37h117l5 123l32 7v-130h165v-37h-165v-150h145v-36h-145v-178c0 -72 32.667 -108 98 -108c10 0 21.167 0.833008 33.5 2.5s24.166 4.16699 35.499 7.5v-37c-27.333 -6.66699 -52 -10 -74 -10c-87.333 0 -131 47 -131 141v182h-116v36z" />
    <glyph glyph-name="Utilde" unicode="&#x168;" horiz-adv-x="692" 
d="M180 859c14 14.667 29.8281 26.5 47.4951 35.5s35.167 13.5 52.5 13.5c14.667 0 27.834 -2.16699 39.501 -6.5s23 -9.33301 34 -15s22 -10.667 33 -15s22.833 -6.5 35.5 -6.5c13.333 0 26.333 3.5 39 10.5s24.334 16.5 35.001 28.5l26 -22
c-12 -15.333 -27.167 -27.833 -45.5 -37.5s-37.166 -14.5 -56.499 -14.5c-13.333 0 -25.833 2.16699 -37.5 6.5s-23 9.33301 -34 15s-22 10.667 -33 15s-22.5 6.5 -34.5 6.5c-13.333 0 -26.666 -3.5 -39.999 -10.5s-25.666 -16.167 -36.999 -27.5zM345.995 -10
c-44.667 0 -83.3359 5.66699 -116.003 17s-59.667 29.333 -81 54s-37.166 56.334 -47.499 95.001s-15.5 85 -15.5 139v445h38v-442c0 -49.333 4.5 -91.166 13.5 -125.499s22.833 -62.166 41.5 -83.499s41.834 -37 69.501 -47s60.167 -15 97.5 -15s69.833 5 97.5 15
s50.834 25.667 69.501 47s32.5 49.166 41.5 83.499s13.5 76.166 13.5 125.499v442h38v-445c0 -54 -5.16699 -100.333 -15.5 -139s-26.166 -70.334 -47.499 -95.001s-48.333 -42.667 -81 -54s-71.334 -17 -116.001 -17z" />
    <glyph glyph-name="utilde" unicode="&#x169;" horiz-adv-x="533" 
d="M200 -10c-43.333 0 -75.001 11.667 -95.001 35s-30 60 -30 110v405h38v-397c0 -40 7.33301 -69.167 22 -87.5s38 -27.5 70 -27.5c33.333 0 66.5 6.66699 99.5 20s70.167 31.333 111.5 54v438h38v-540h-32l-5 64h-4l-66 -33c-19.333 -9.33301 -37.166 -17 -53.499 -23
s-32 -10.5 -47 -13.5s-30.5 -4.5 -46.5 -4.5zM87.999 675c14 14.667 29.8291 26.5 47.4961 35.5s35.167 13.5 52.5 13.5c14.667 0 27.834 -2.16699 39.501 -6.5s23 -9.33301 34 -15s22 -10.667 33 -15s22.833 -6.5 35.5 -6.5c27.333 0 52 13 74 39l26 -22
c-12 -16 -27.167 -28.833 -45.5 -38.5s-37.166 -14.5 -56.499 -14.5c-13.333 0 -25.833 2.16699 -37.5 6.5s-23 9.33301 -34 15s-22 10.667 -33 15s-22.5 6.5 -34.5 6.5c-13.333 0 -26.666 -3.5 -39.999 -10.5s-25.666 -16.167 -36.999 -27.5z" />
    <glyph glyph-name="Umacron" unicode="&#x16a;" horiz-adv-x="692" 
d="M211 878h257v-36h-257v36zM346 -10c-44.667 0 -83.3359 5.66699 -116.003 17s-59.667 29.333 -81 54s-37.166 56.334 -47.499 95.001s-15.5 85 -15.5 139v445h38v-442c0 -49.333 4.5 -91.166 13.5 -125.499s22.833 -62.166 41.5 -83.499s41.834 -37 69.501 -47
s60.167 -15 97.5 -15s69.833 5 97.5 15s50.834 25.667 69.501 47s32.5 49.166 41.5 83.499s13.5 76.166 13.5 125.499v442h38v-445c0 -54 -5.16699 -100.333 -15.5 -139s-26.166 -70.334 -47.499 -95.001s-48.333 -42.667 -81 -54s-71.334 -17 -116.001 -17z" />
    <glyph glyph-name="umacron" unicode="&#x16b;" horiz-adv-x="533" 
d="M200 -10c-43.333 0 -75.001 11.667 -95.001 35s-30 60 -30 110v405h38v-397c0 -40 7.33301 -69.167 22 -87.5s38 -27.5 70 -27.5c33.333 0 66.5 6.66699 99.5 20s70.167 31.333 111.5 54v438h38v-540h-32l-5 64h-4l-66 -33c-19.333 -9.33301 -37.166 -17 -53.499 -23
s-32 -10.5 -47 -13.5s-30.5 -4.5 -46.5 -4.5zM130.999 689h267v-37h-267v37z" />
    <glyph glyph-name="Ubreve" unicode="&#x16c;" horiz-adv-x="692" 
d="M345 816c-48 0 -85.333 11.667 -112 35s-40 56 -40 98h37c0 -30.667 10.167 -54.667 30.5 -72s48.5 -26 84.5 -26s64.167 8.66699 84.5 26s30.5 41.333 30.5 72h37c0 -42 -13.5 -74.667 -40.5 -98s-64.167 -35 -111.5 -35zM346 -10
c-44.667 0 -83.3359 5.66699 -116.003 17s-59.667 29.333 -81 54s-37.166 56.334 -47.499 95.001s-15.5 85 -15.5 139v445h38v-442c0 -49.333 4.5 -91.166 13.5 -125.499s22.833 -62.166 41.5 -83.499s41.834 -37 69.501 -47s60.167 -15 97.5 -15s69.833 5 97.5 15
s50.834 25.667 69.501 47s32.5 49.166 41.5 83.499s13.5 76.166 13.5 125.499v442h38v-445c0 -54 -5.16699 -100.333 -15.5 -139s-26.166 -70.334 -47.499 -95.001s-48.333 -42.667 -81 -54s-71.334 -17 -116.001 -17z" />
    <glyph glyph-name="ubreve" unicode="&#x16d;" horiz-adv-x="533" 
d="M200 -10c-43.333 0 -75.001 11.667 -95.001 35s-30 60 -30 110v405h38v-397c0 -40 7.33301 -69.167 22 -87.5s38 -27.5 70 -27.5c33.333 0 66.5 6.66699 99.5 20s70.167 31.333 111.5 54v438h38v-540h-32l-5 64h-4l-66 -33c-19.333 -9.33301 -37.166 -17 -53.499 -23
s-32 -10.5 -47 -13.5s-30.5 -4.5 -46.5 -4.5zM260.999 621c-50 0 -88.001 11.999 -114.001 35.999s-39 58 -39 102h36c0 -36.667 10.333 -63.334 31 -80.001s49.334 -25 86.001 -25c36 0 64.333 8.33301 85 25s31 43.334 31 80.001h36
c0 -43.333 -12.833 -77.166 -38.5 -101.499s-63.5 -36.5 -113.5 -36.5z" />
    <glyph glyph-name="Uring" unicode="&#x16e;" horiz-adv-x="692" 
d="M346 -10c-44.667 0 -83.3359 5.66699 -116.003 17s-59.667 29.333 -81 54s-37.166 56.334 -47.499 95.001s-15.5 85 -15.5 139v445h38v-442c0 -49.333 4.5 -91.166 13.5 -125.499s22.833 -62.166 41.5 -83.499s41.834 -37 69.501 -47s60.167 -15 97.5 -15
s69.833 5 97.5 15s50.834 25.667 69.501 47s32.5 49.166 41.5 83.499s13.5 76.166 13.5 125.499v442h38v-445c0 -54 -5.16699 -100.333 -15.5 -139s-26.166 -70.334 -47.499 -95.001s-48.333 -42.667 -81 -54s-71.334 -17 -116.001 -17zM344.998 795
c-32 0 -57.5 9.83301 -76.5 29.5s-28.5 44.167 -28.5 73.5s9.5 54 28.5 74s44.5 30 76.5 30s57.333 -10 76 -30s28 -44.667 28 -74s-9.5 -53.833 -28.5 -73.5s-44.167 -29.5 -75.5 -29.5zM344.998 830c21.333 0 38.167 6.16699 50.5 18.5s18.5 28.833 18.5 49.5
s-6 37.334 -18 50.001s-29 19 -51 19s-39 -6.33301 -51 -19s-18 -29.334 -18 -50.001s6 -37.167 18 -49.5s29 -18.5 51 -18.5z" />
    <glyph glyph-name="uring" unicode="&#x16f;" horiz-adv-x="533" 
d="M262 611c-32 0 -57.5 9.83301 -76.5 29.5s-28.5 44.167 -28.5 73.5s9.5 54 28.5 74s44.5 30 76.5 30s57.333 -10 76 -30s28 -44.667 28 -74s-9.5 -53.833 -28.5 -73.5s-44.167 -29.5 -75.5 -29.5zM262 646c21.333 0 38.167 6.33301 50.5 19s18.5 29 18.5 49
c0 20.667 -6.16699 37.334 -18.5 50.001s-29.166 19 -50.499 19c-22 0 -39 -6.33301 -51 -19s-18 -29.334 -18 -50.001c0 -20 6.16699 -36.333 18.5 -49s29.166 -19 50.499 -19zM200.001 -10c-43.333 0 -75.001 11.667 -95.001 35s-30 60 -30 110v405h38v-397
c0 -40 7.33301 -69.167 22 -87.5s38 -27.5 70 -27.5c33.333 0 66.5 6.66699 99.5 20s70.167 31.333 111.5 54v438h38v-540h-32l-5 64h-4l-66 -33c-19.333 -9.33301 -37.166 -17 -53.499 -23s-32 -10.5 -47 -13.5s-30.5 -4.5 -46.5 -4.5z" />
    <glyph glyph-name="Uhungarumlaut" unicode="&#x170;" horiz-adv-x="692" 
d="M346 -10c-44.667 0 -83.3359 5.66699 -116.003 17s-59.667 29.333 -81 54s-37.166 56.334 -47.499 95.001s-15.5 85 -15.5 139v445h38v-442c0 -49.333 4.5 -91.166 13.5 -125.499s22.833 -62.166 41.5 -83.499s41.834 -37 69.501 -47s60.167 -15 97.5 -15
s69.833 5 97.5 15s50.834 25.667 69.501 47s32.5 49.166 41.5 83.499s13.5 76.166 13.5 125.499v442h38v-445c0 -54 -5.16699 -100.333 -15.5 -139s-26.166 -70.334 -47.499 -95.001s-48.333 -42.667 -81 -54s-71.334 -17 -116.001 -17zM250.998 803l78 114h42l-86 -128z
M379.998 803l79 114h41l-86 -128z" />
    <glyph glyph-name="uhungarumlaut" unicode="&#x171;" horiz-adv-x="533" 
d="M200 -10c-43.333 0 -75.001 11.667 -95.001 35s-30 60 -30 110v405h38v-397c0 -40 7.33301 -69.167 22 -87.5s38 -27.5 70 -27.5c33.333 0 66.5 6.66699 99.5 20s70.167 31.333 111.5 54v438h38v-540h-32l-5 64h-4l-66 -33c-19.333 -9.33301 -37.166 -17 -53.499 -23
s-32 -10.5 -47 -13.5s-30.5 -4.5 -46.5 -4.5zM164.999 625l74 178h45l-89 -188zM322.999 625l74 178h45l-89 -188z" />
    <glyph glyph-name="Uogonek" unicode="&#x172;" horiz-adv-x="692" 
d="M329 -208c-54 0 -81.002 26 -81.002 78c0 23.333 5.66699 44.5 17 63.5s31 38.167 59 57.5c-82 3.33301 -142.167 28.833 -180.5 76.5s-57.5 123.5 -57.5 227.5v445h38v-442c0 -49.333 4.5 -91.166 13.5 -125.499s22.833 -62.166 41.5 -83.499s41.834 -37 69.501 -47
s60.167 -15 97.5 -15s69.833 5 97.5 15s50.834 25.667 69.501 47s32.5 49.166 41.5 83.499s13.5 76.166 13.5 125.499v442h38v-445c0 -99.333 -17.5 -173 -52.5 -221s-89.5 -75.333 -163.5 -82c-38 -19.333 -65.167 -38.333 -81.5 -57s-24.5 -39.667 -24.5 -63
c0 -16.667 4 -28.667 12 -36s21 -11 39 -11c18.667 0 36.667 3.33301 54 10v-31c-17.333 -8 -37.333 -12 -60 -12z" />
    <glyph glyph-name="uogonek" unicode="&#x173;" horiz-adv-x="533" 
d="M201 -10c-43.333 0 -75.001 11.665 -95.001 34.998s-30 60 -30 110v405h38v-397c0 -40 7.33301 -69.167 22 -87.5s38 -27.5 70 -27.5c33.333 0 66.5 6.66699 99.5 20s70.167 31.333 111.5 54v438h38v-561c-38 -19.333 -65.167 -38.166 -81.5 -56.499
s-24.5 -39.166 -24.5 -62.499c0 -16.667 4 -28.667 12 -36s21 -11 39 -11c18.667 0 36.667 3.33301 54 10v-31c-17.333 -8 -37.333 -12 -60 -12c-54 0 -81 26 -81 78c0 27.333 8.33301 51.833 25 73.5s45 44.5 85 68.5l-5 64h-4l-66 -33
c-19.333 -9.33301 -37.166 -17 -53.499 -23s-32 -10.5 -47 -13.5s-30.5 -4.5 -46.5 -4.5z" />
    <glyph glyph-name="Wcircumflex" unicode="&#x174;" horiz-adv-x="928" 
d="M22 740h40l147 -547l38 -145h4l40 145l154 547h43l148 -547l38 -145h4l39 145l154 547h39l-208 -740h-52l-154 568l-28 111h-4l-30 -112l-159 -567h-53zM328 862l138 72l137 -72v-44l-137 72l-138 -72v44z" />
    <glyph glyph-name="wcircumflex" unicode="&#x175;" horiz-adv-x="720" 
d="M222 685l137 72l138 -72v-43l-137 72l-138 -72v43zM27 534v6h37l109 -406l20 -85h5l23 85l118 406h41l121 -406l24 -85h5l19 85l106 406h36v-6l-140 -534h-46l-125 416l-18 69h-5l-18 -69l-121 -416h-45z" />
    <glyph glyph-name="Ycircumflex" unicode="&#x176;" horiz-adv-x="556" 
d="M259 251l-252 489h42l198 -384l29 -64h3l29 64l198 384h42l-251 -487v-253h-38v251zM142 862l138 72l137 -72v-44l-137 72l-138 -72v44z" />
    <glyph glyph-name="ycircumflex" unicode="&#x177;" horiz-adv-x="496" 
d="M146 -211l-1 6l83 208l-208 532v5h39l168 -433l19 -57h3l20 57l171 433h38v-5l-298 -755zM113 685l137 72l138 -72v-43l-137 72l-138 -72v43z" />
    <glyph glyph-name="Ydieresis" unicode="&#x178;" horiz-adv-x="556" 
d="M259 251l-252 489h42l198 -384l29 -64h3l29 64l198 384h42l-251 -487v-253h-38v251zM170 823c-9.33301 0 -17.166 2.66699 -23.499 8s-9.5 13.666 -9.5 24.999s3.16699 19.666 9.5 24.999s14.166 8 23.499 8s17.333 -2.66699 24 -8s10 -13.666 10 -24.999
s-3.33301 -19.666 -10 -24.999s-14.667 -8 -24 -8zM388 823c-9.33301 0 -17.166 2.66699 -23.499 8s-9.5 13.666 -9.5 24.999s3.16699 19.666 9.5 24.999s14.166 8 23.499 8c8.66699 0 16.5 -2.66699 23.5 -8s10.5 -13.666 10.5 -24.999s-3.5 -19.666 -10.5 -24.999
s-14.833 -8 -23.5 -8z" />
    <glyph glyph-name="Zacute" unicode="&#x179;" horiz-adv-x="514" 
d="M33 29l390 670v4h-381v37h431v-28l-390 -671v-4h397v-37h-447v29zM242 799l79 123h42l-86 -128z" />
    <glyph glyph-name="zacute" unicode="&#x17a;" horiz-adv-x="428" 
d="M203 616l75 182h40l-88 -188zM36 26l291 474v4h-282v36h337v-24l-293 -476v-5h303v-35h-356v26z" />
    <glyph glyph-name="Zdotaccent" unicode="&#x17b;" horiz-adv-x="514" 
d="M265 813c-9.33301 0 -17.166 2.66699 -23.499 8s-9.5 13.666 -9.5 24.999s3.16699 19.666 9.5 24.999s14.166 8 23.499 8s17.333 -2.66699 24 -8s10 -13.666 10 -24.999s-3.33301 -19.666 -10 -24.999s-14.667 -8 -24 -8zM33 29l390 670v4h-381v37h431v-28l-390 -671v-4
h397v-37h-447v29z" />
    <glyph glyph-name="zdotaccent" unicode="&#x17c;" horiz-adv-x="428" 
d="M36 26l291 474v4h-282v36h337v-24l-293 -476v-5h303v-35h-356v26zM215 653c-9.33301 0 -17.166 2.5 -23.499 7.5s-9.5 13.167 -9.5 24.5c0 12 3.16699 20.667 9.5 26s14.166 8 23.499 8s17.333 -2.66699 24 -8s10 -14 10 -26c0 -11.333 -3.33301 -19.5 -10 -24.5
s-14.667 -7.5 -24 -7.5z" />
    <glyph glyph-name="Zcaron" unicode="&#x17d;" horiz-adv-x="514" 
d="M129 924l138 -72l137 72v-43l-137 -72l-138 72v43zM33 29l390 670v4h-381v37h431v-28l-390 -671v-4h397v-37h-447v29z" />
    <glyph glyph-name="zcaron" unicode="&#x17e;" horiz-adv-x="428" 
d="M81 754l137 -72l138 72v-43l-138 -72l-137 72v43zM36 26l291 474v4h-282v36h337v-24l-293 -476v-5h303v-35h-356v26z" />
    <glyph glyph-name="Schwa" unicode="&#x18f;" horiz-adv-x="618" 
d="M49 314c0 18 0.499023 34.165 1.49902 48.498s2.16699 26.5 3.5 36.5h470c-3.33301 107.333 -25.5 187.5 -66.5 240.5s-100.833 79.5 -179.5 79.5c-28.667 0 -59.667 -3.5 -93 -10.5s-67.666 -17.167 -102.999 -30.5l-5 37c12 6 26 11.5 42 16.5s32.833 9.33301 50.5 13
s35.667 6.5 54 8.5s35.833 3 52.5 3c94 0 165.167 -31.167 213.5 -93.5s72.5 -153.5 72.5 -273.5c0 -127.333 -23.5 -225.666 -70.5 -294.999s-113.833 -104 -200.5 -104c-76.667 0 -136.167 28.333 -178.5 85s-63.5 136.334 -63.5 239.001zM288.999 26.998
c72.667 0 129.5 28.833 170.5 86.5s62.5 140.167 64.5 247.5h-436c-2.66699 -109.333 13 -192.333 47 -249s85.333 -85 154 -85z" />
    <glyph glyph-name="florin" unicode="&#x192;" horiz-adv-x="326" 
d="M132 504l-102 0.000976562v36h103v34c0 45.333 2.5 82.666 7.5 111.999s14.5 52.666 28.5 69.999s33.333 30 58 38s56.667 13.667 96 17l2 -33c-32.667 -2.66699 -59 -7.16699 -79 -13.5s-35.667 -16.166 -47 -29.499s-19 -31.5 -23 -54.5s-6 -52.5 -6 -88.5v-52h128v-36
h-128v-697l-38 -27v724z" />
    <glyph glyph-name="uni01C4" unicode="&#x1c4;" horiz-adv-x="1169" 
d="M784 924l138 -72l137 72v-43l-137 -72l-138 72v43zM688 29l390 670v4h-381v37h431v-28l-390 -671v-4h397v-37h-447v29zM240 -13c-30.667 0 -59 1 -85 3s-46.667 5 -62 9v737c12.667 2 26.667 3.83301 42 5.5s30.5 3 45.5 4s29.667 1.83301 44 2.5s26.833 1 37.5 1
c116 0 201.333 -30.833 256 -92.5s82 -157.167 82 -286.5c0 -131.333 -29 -228 -87 -290s-149 -93 -273 -93zM244 24c107.333 0 186.999 28.333 238.999 85s78 143.667 78 261c0 118 -24.167 204.333 -72.5 259s-124.5 82 -228.5 82c-18.667 0 -40 -0.666992 -64 -2
s-45.667 -3.33301 -65 -6v-671c22.667 -3.33301 42.334 -5.5 59.001 -6.5s34.667 -1.5 54 -1.5z" />
    <glyph glyph-name="uni01C5" unicode="&#x1c5;" horiz-adv-x="1083" 
d="M737 754l137 -72l138 72v-43l-138 -72l-137 72v43zM691 26l291 474v4h-282v36h337v-24l-293 -476v-5h303v-35h-356v26zM240 -13c-30.667 0 -59 1 -85 3s-46.667 5 -62 9v737c12.667 2 26.667 3.83301 42 5.5s30.5 3 45.5 4s29.667 1.83301 44 2.5s26.833 1 37.5 1
c116 0 201.333 -30.833 256 -92.5s82 -157.167 82 -286.5c0 -131.333 -29 -228 -87 -290s-149 -93 -273 -93zM244 24c107.333 0 186.999 28.333 238.999 85s78 143.667 78 261c0 118 -24.167 204.333 -72.5 259s-124.5 82 -228.5 82c-18.667 0 -40 -0.666992 -64 -2
s-45.667 -3.33301 -65 -6v-671c22.667 -3.33301 42.334 -5.5 59.001 -6.5s34.667 -1.5 54 -1.5z" />
    <glyph glyph-name="uni01C6" unicode="&#x1c6;" horiz-adv-x="962" 
d="M615 754l137 -72l138 72v-43l-138 -72l-137 72v43zM570 26l291 474v4h-282v36h337v-24l-293 -476v-5h303v-35h-356v26zM257 -10c-68.667 0 -120.332 22.499 -154.999 67.499s-52 115.833 -52 212.5c0 92.667 21.5 162.5 64.5 209.5s100.5 70.5 172.5 70.5
c23.333 0 45.666 -1.16699 66.999 -3.5s42.333 -4.83301 63 -7.5v269h38v-808h-32l-5 62h-4c-18 -23.333 -40.167 -41.166 -66.5 -53.499s-56.5 -18.5 -90.5 -18.5zM257.002 26.999c19.333 0 38.665 3.00098 57.998 9.00098s36.5 14 51.5 24s27.167 22 36.5 36s14 29 14 45
v361c-21.333 3.33301 -42.666 6 -63.999 8s-43.666 3 -66.999 3c-62 0 -110.167 -20 -144.5 -60s-51.5 -101 -51.5 -183c0 -82.667 14.167 -143.834 42.5 -183.501s69.833 -59.5 124.5 -59.5z" />
    <glyph glyph-name="uni01C7" unicode="&#x1c7;" horiz-adv-x="687" 
d="M477 -160c16 33.333 29.3311 63.665 39.998 90.998s19 53.833 25 79.5s10.333 52 13 79s4 57.167 4 90.5v560h38v-560c0 -32 -1.66699 -62.167 -5 -90.5s-8.66602 -56.666 -15.999 -84.999s-16.666 -57.166 -27.999 -86.499s-25.333 -61 -42 -95zM92.998 739.999h38v-703
h319v-37h-357v740z" />
    <glyph glyph-name="uni01C8" unicode="&#x1c8;" horiz-adv-x="660" 
d="M560 676c-20.667 0 -31 10.333 -31 31s10.333 31 31 31c21.333 0 32 -10.333 32 -31s-10.667 -31 -32 -31zM465 -201c18.667 31.333 33.168 60.999 43.501 88.999s18.166 58 23.499 90s8.66602 67.333 9.99902 106s2 84.667 2 138v318h38v-448
c0 -55.333 -7.66699 -109.666 -23 -162.999s-37.666 -103 -66.999 -149zM93.001 739.999h38v-703h319v-37h-357v740z" />
    <glyph glyph-name="uni01C9" unicode="&#x1c9;" horiz-adv-x="398" 
d="M298 676c-20.667 0 -31 10.333 -31 31s10.333 31 31 31c21.333 0 32 -10.333 32 -31s-10.667 -31 -32 -31zM203 -201c18.667 31.333 33.168 60.999 43.501 88.999s18.166 58 23.499 90s8.66602 67.333 9.99902 106s2 84.667 2 138v318h38v-448
c0 -55.333 -7.66699 -109.666 -23 -162.999s-37.666 -103 -66.999 -149zM82.001 807.999h38v-808h-38v808z" />
    <glyph glyph-name="uni01CA" unicode="&#x1ca;" horiz-adv-x="944" 
d="M734 -160c16 33.333 29.3311 63.665 39.998 90.998s19 53.833 25 79.5s10.333 52 13 79s4 57.167 4 90.5v560h38v-560c0 -32 -1.66699 -62.167 -5 -90.5s-8.66602 -56.666 -15.999 -84.999s-16.666 -57.166 -27.999 -86.499s-25.333 -61 -42 -95zM92.998 739.999h40
l397 -588l56 -88l4 1v675h38v-740h-41l-399 589l-54 85h-4v-674h-37v740z" />
    <glyph glyph-name="uni01CB" unicode="&#x1cb;" horiz-adv-x="917" 
d="M817 676c-20.667 0 -31 10.333 -31 31s10.333 31 31 31c21.333 0 32 -10.333 32 -31s-10.667 -31 -32 -31zM722 -201c18.667 31.333 33.168 60.999 43.501 88.999s18.166 58 23.499 90s8.66602 67.333 9.99902 106s2 84.667 2 138v318h38v-448
c0 -55.333 -7.66699 -109.666 -23 -162.999s-37.666 -103 -66.999 -149zM93.001 739.999h40l397 -588l56 -88l4 1v675h38v-740h-41l-399 589l-54 85h-4v-674h-37v740z" />
    <glyph glyph-name="uni01CC" unicode="&#x1cc;" horiz-adv-x="729" 
d="M629 676c-20.667 0 -31 10.333 -31 31s10.333 31 31 31c21.333 0 32 -10.333 32 -31s-10.667 -31 -32 -31zM534 -201c18.667 31.333 33.168 60.999 43.501 88.999s18.166 58 23.499 90s8.66602 67.333 9.99902 106s2 84.667 2 138v318h38v-448
c0 -55.333 -7.66699 -109.666 -23 -162.999s-37.666 -103 -66.999 -149zM79.001 539.999h31.998l4 -61h4c46.667 24.667 86.334 42.667 119.001 54s63.334 17 92.001 17c44 0 76.333 -11.167 97 -33.5s31 -59.5 31 -111.5v-405h-38v396c0 42 -7.66699 71.833 -23 89.5
s-39 26.5 -71 26.5c-29.333 0 -61.5 -6.16699 -96.5 -18.5s-72.5 -29.5 -112.5 -51.5v-442h-38v540z" />
    <glyph glyph-name="Oogonek" unicode="&#x1ea;" horiz-adv-x="675" 
d="M318 -206c-54 0 -80.998 25.9971 -80.998 77.9971c0 22.667 5.66699 43.334 17 62.001s30.333 37.667 57 57c-83.333 6 -146.833 40.5 -190.5 103.5s-65.5 154.5 -65.5 274.5c0 126.667 24.167 221.834 72.5 285.501s118.5 95.5 210.5 95.5
c91.333 0 161.166 -32 209.499 -96s72.5 -159 72.5 -285c0 -116.667 -20.833 -206.5 -62.5 -269.5s-101.834 -98.833 -180.501 -107.5c-38 -18.667 -64.833 -37.167 -80.5 -55.5s-23.5 -39.166 -23.5 -62.499c0 -16.667 4 -28.667 12 -36s21 -11 39 -11
c18.667 0 36.667 3.33301 54 10v-31c-17.333 -8 -37.333 -12 -60 -12zM338.002 26.9971c80.667 0 141.5 28.668 182.5 86.001s61.5 142.666 61.5 255.999c0 114 -20.667 199.833 -62 257.5s-102 86.5 -182 86.5c-162.667 0 -244 -114.667 -244 -344
c0 -228 81.333 -342 244 -342z" />
    <glyph glyph-name="oogonek" unicode="&#x1eb;" horiz-adv-x="530" 
d="M255 -203c-54 0 -81.001 25.999 -81.001 77.999c0 22 5.5 42.167 16.5 60.5s29.167 37.166 54.5 56.499c-63.333 4.66699 -111.666 30.667 -144.999 78s-50 114 -50 200c0 91.333 18.5 160.833 55.5 208.5s90.167 71.5 159.5 71.5c70 0 123.333 -23.833 160 -71.5
s55 -117.167 55 -208.5c0 -79.333 -14 -142 -42 -188s-69 -74.667 -123 -86c-38 -19.333 -65 -38.166 -81 -56.499s-24 -39.166 -24 -62.499c0 -16.667 4 -28.667 12 -36s21 -11 39 -11c18.667 0 36.667 3.33301 54 10v-31c-17.333 -8 -37.333 -12 -60 -12zM264.999 27.999
c116.667 0 175 80.667 175 242c0 162 -58.333 243 -175 243s-175 -81 -175 -243c0 -161.333 58.333 -242 175 -242z" />
    <glyph glyph-name="uni01F1" unicode="&#x1f1;" horiz-adv-x="1153" 
d="M672 29l390 670v4h-381v37h431v-28l-390 -671v-4h397v-37h-447v29zM240 -13c-30.667 0 -59 1 -85 3s-46.667 5 -62 9v737c12.667 2 26.667 3.83301 42 5.5s30.5 3 45.5 4s29.667 1.83301 44 2.5s26.833 1 37.5 1c116 0 201.333 -30.833 256 -92.5s82 -157.167 82 -286.5
c0 -131.333 -29 -228 -87 -290s-149 -93 -273 -93zM244 24c107.333 0 186.999 28.333 238.999 85s78 143.667 78 261c0 118 -24.167 204.333 -72.5 259s-124.5 82 -228.5 82c-18.667 0 -40 -0.666992 -64 -2s-45.667 -3.33301 -65 -6v-671
c22.667 -3.33301 42.334 -5.5 59.001 -6.5s34.667 -1.5 54 -1.5z" />
    <glyph glyph-name="uni01F2" unicode="&#x1f2;" horiz-adv-x="1079" 
d="M687 26l291 474v4h-282v36h337v-24l-293 -476v-5h303v-35h-356v26zM240 -13c-30.667 0 -59 1 -85 3s-46.667 5 -62 9v737c12.667 2 26.667 3.83301 42 5.5s30.5 3 45.5 4s29.667 1.83301 44 2.5s26.833 1 37.5 1c116 0 201.333 -30.833 256 -92.5s82 -157.167 82 -286.5
c0 -131.333 -29 -228 -87 -290s-149 -93 -273 -93zM244 24c107.333 0 186.999 28.333 238.999 85s78 143.667 78 261c0 118 -24.167 204.333 -72.5 259s-124.5 82 -228.5 82c-18.667 0 -40 -0.666992 -64 -2s-45.667 -3.33301 -65 -6v-671
c22.667 -3.33301 42.334 -5.5 59.001 -6.5s34.667 -1.5 54 -1.5z" />
    <glyph glyph-name="uni01F3" unicode="&#x1f3;" horiz-adv-x="962" 
d="M570 26l291 474v4h-282v36h337v-24l-293 -476v-5h303v-35h-356v26zM257 -10c-68.667 0 -120.332 22.499 -154.999 67.499s-52 115.833 -52 212.5c0 92.667 21.5 162.5 64.5 209.5s100.5 70.5 172.5 70.5c23.333 0 45.666 -1.16699 66.999 -3.5s42.333 -4.83301 63 -7.5
v269h38v-808h-32l-5 62h-4c-18 -23.333 -40.167 -41.166 -66.5 -53.499s-56.5 -18.5 -90.5 -18.5zM257.002 26.999c19.333 0 38.665 3.00098 57.998 9.00098s36.5 14 51.5 24s27.167 22 36.5 36s14 29 14 45v361c-21.333 3.33301 -42.666 6 -63.999 8s-43.666 3 -66.999 3
c-62 0 -110.167 -20 -144.5 -60s-51.5 -101 -51.5 -183c0 -82.667 14.167 -143.834 42.5 -183.501s69.833 -59.5 124.5 -59.5z" />
    <glyph glyph-name="Gacute" unicode="&#x1f4;" horiz-adv-x="605" 
d="M323 799l79 123h42l-86 -128zM372 -9c-107.333 1.33301 -186.999 32.667 -238.999 94s-78 156 -78 284c0 130.667 26 226.667 78 288s133.333 92 244 92c22 0 46.833 -1.83301 74.5 -5.5s56.167 -8.83398 85.5 -15.501v-38c-33.333 8 -61.833 13.5 -85.5 16.5
s-47.834 4.5 -72.501 4.5c-97.333 0 -169 -27.667 -215 -83s-69 -141.666 -69 -258.999c0 -226.667 92 -340 276 -340c15.333 0 35.333 1.33301 60 4s48 6 70 10v333h37v-362c-28 -7.33301 -56.5 -13 -85.5 -17s-55.833 -6 -80.5 -6z" />
    <glyph glyph-name="gacute" unicode="&#x1f5;" horiz-adv-x="534" 
d="M267 616l75 182h40l-88 -188zM236 -220c-25.333 0 -50.165 2.16895 -74.498 6.50195s-47.5 10.166 -69.5 17.499l4 38c23.333 -8 46.833 -14.167 70.5 -18.5s47.5 -6.5 71.5 -6.5c28 0 53.167 3.83301 75.5 11.5s41.166 20.167 56.499 37.5s27.166 40.166 35.499 68.499
s12.5 63.166 12.5 104.499v24h-4c-18 -23.333 -40.167 -41.166 -66.5 -53.499s-56.5 -18.5 -90.5 -18.5c-68 0 -119.5 22.5 -154.5 67.5s-52.5 115.5 -52.5 211.5c0 92.667 21.5 162.5 64.5 209.5s100.5 70.5 172.5 70.5c29.333 0 58.833 -1.66699 88.5 -5
s56.167 -8.33301 79.5 -15v-480c0 -52 -5.33301 -95.167 -16 -129.5s-25.5 -62 -44.5 -83s-42 -35.833 -69 -44.5s-56.833 -13 -89.5 -13zM257.001 28.002c19.333 0 38.665 3 57.998 9s36.5 14 51.5 24s27.167 21.833 36.5 35.5s14 28.5 14 44.5v361
c-21.333 3.33301 -42.666 6 -63.999 8s-43.666 3 -66.999 3c-62 0 -110.167 -20 -144.5 -60s-51.5 -101 -51.5 -183c0 -82.667 14.167 -143.667 42.5 -183s69.833 -59 124.5 -59z" />
    <glyph glyph-name="Aringacute" unicode="&#x1fa;" horiz-adv-x="604" 
d="M12 6l229.999 642.005c-15.333 9.33301 -27.166 21.666 -35.499 36.999s-12.5 32.666 -12.5 51.999c0 26.667 8 49.667 24 69s38 30.666 66 33.999l68 97h42l-67 -99c24.667 -5.33301 44 -17.333 58 -36s21 -40.334 21 -65.001c0 -18.667 -4 -35.334 -12 -50.001
s-19 -26.667 -33 -36l232 -645v-6h-38l-89 247h-328l-88 -247h-38v6zM300.999 668.005c21.333 0 38.166 6.33301 50.499 19s18.5 29.334 18.5 50.001c0 20 -6.16699 36.5 -18.5 49.5s-29.166 19.5 -50.499 19.5c-22.667 0 -40 -6.5 -52 -19.5s-18 -29.5 -18 -49.5
c0 -20.667 6.16699 -37.334 18.5 -50.001s29.5 -19 51.5 -19zM452.999 284.005l-108 303l-18 48h-50l-17 -48l-109 -303h302z" />
    <glyph glyph-name="aringacute" unicode="&#x1fb;" horiz-adv-x="472" 
d="M173 -5c-43.333 0 -76.0029 11.335 -98.0029 34.002s-33 55.667 -33 99c0 50 15.833 88.333 47.5 115s81.834 43 150.501 49l120 10v68c0 50.667 -10.167 86.667 -30.5 108s-55.166 32 -104.499 32c-41.333 0 -89.333 -6 -144 -18l-5 37c30 5.33301 57.5 9.5 82.5 12.5
s48.5 4.5 70.5 4.5c58 0 100.667 -13.833 128 -41.5s41 -70.834 41 -129.501v-375h-32l-6 67h-4c-32 -20.667 -63.167 -37.834 -93.5 -51.501s-60.166 -20.5 -89.499 -20.5zM178.997 32.002c14 0 28.5 2.16602 43.5 6.49902s30.333 10 46 17s31.167 14.833 46.5 23.5
s30.333 17.667 45 27v163l-113 -10c-30.667 -2.66699 -56.5 -7.16699 -77.5 -13.5s-38 -14.666 -51 -24.999s-22.5 -23 -28.5 -38s-9 -32.5 -9 -52.5c0 -65.333 32.667 -98 98 -98zM240.997 611.001c-32 0 -57.5 9.83301 -76.5 29.5s-28.5 44.167 -28.5 73.5s9.5 54 28.5 74
s44.5 30 76.5 30h4l66 159h40l-77 -164c22 -6.66699 39.333 -19 52 -37s19 -38.667 19 -62c0 -29.333 -9.5 -53.833 -28.5 -73.5s-44.167 -29.5 -75.5 -29.5zM240.997 646.001c21.333 0 38.167 6.33301 50.5 19s18.5 29 18.5 49c0 20.667 -6.16699 37.334 -18.5 50.001
s-29.166 19 -50.499 19c-22 0 -39 -6.33301 -51 -19s-18 -29.334 -18 -50.001c0 -20 6.16699 -36.333 18.5 -49s29.166 -19 50.499 -19z" />
    <glyph glyph-name="AEacute" unicode="&#x1fc;" horiz-adv-x="792" 
d="M461 799l79 123h42l-86 -128zM11 6l283 734h442v-37h-328l14 -309h281v-37h-280l15 -320h307v-37h-345l-10 247h-246l-96 -247h-37v6zM158 284h230l-17 418h-50z" />
    <glyph glyph-name="aeacute" unicode="&#x1fd;" horiz-adv-x="795" 
d="M391 616l75 182h40l-88 -188zM581 -9c-43.333 0 -80.5039 8.33301 -111.504 25s-55.167 41 -72.5 73l-3 1c-28 -18 -52.667 -33 -74 -45s-40.666 -21.667 -57.999 -29s-33.166 -12.666 -47.499 -15.999s-28.166 -5 -41.499 -5c-43.333 0 -76 11.333 -98 34
s-33 55.667 -33 99c0 51.333 15.833 89.666 47.5 114.999s81.834 41.333 150.501 48l120 11v68c0 50.667 -10.333 86.667 -31 108s-55.334 32 -104.001 32c-41.333 0 -89.333 -6 -144 -18l-5 37c30 5.33301 57.5 9.5 82.5 12.5s48.5 4.5 70.5 4.5
c47.333 0 84 -9.16699 110 -27.5s42.667 -46.5 50 -84.5l5 -1c16 38 39 66.833 69 86.5s67 29.5 111 29.5c56.667 0 99.834 -20 129.501 -60s44.5 -97.333 44.5 -172c0 -15.333 -0.333008 -28 -1 -38s-1.66699 -19 -3 -27h-346c2 -73.333 18.667 -129 50 -167
s76.666 -57 135.999 -57c23.333 0 45.833 2.33301 67.5 7s45.834 12.667 72.501 24l5 -37c-22 -9.33301 -46.167 -16.833 -72.5 -22.5s-51.5 -8.5 -75.5 -8.5zM178.996 32c26.667 0 55 7.16895 85 21.502s65.333 34.5 106 60.5c-2 4.66699 -3.5 14 -4.5 28
s-2 29.167 -3 45.5s-1.66699 32.166 -2 47.499s-0.5 26.666 -0.5 33.999l-113 -10c-30.667 -2.66699 -56.5 -7 -77.5 -13s-38 -14.167 -51 -24.5s-22.5 -23 -28.5 -38s-9 -32.833 -9 -53.5c0 -65.333 32.667 -98 98 -98zM708.996 288.002
c-2 79.333 -13.668 136.5 -35.001 171.5s-54.666 52.5 -99.999 52.5c-54 0 -96 -19.167 -126 -57.5s-46.667 -93.833 -50 -166.5h311z" />
    <glyph glyph-name="Oslashacute" unicode="&#x1fe;" horiz-adv-x="681" 
d="M119 103c-19.333 32 -34.166 69.998 -44.499 113.998s-15.5 94.667 -15.5 152c0 126.667 24.167 221.834 72.5 285.501s118.166 95.5 209.499 95.5c84.667 0 150.667 -27.667 198 -83l55 73h44l-77 -103c41.333 -63.333 62 -152.666 62 -267.999
c0 -126 -24.167 -220.667 -72.5 -284s-118.166 -95 -209.499 -95c-86.667 0 -153.334 28 -200.001 84l-55 -74h-44zM341 26.998c80.667 0 141.5 28.668 182.5 86.001s61.5 142.666 61.5 255.999c0 98.667 -16.333 177 -49 235l-372 -499c40.667 -52 99.667 -78 177 -78z
M97 368.999c0 -98.667 15.667 -176.333 47 -233l371 499c-42 52 -100 78 -174 78c-162.667 0 -244 -114.667 -244 -344zM317 799l79 123h42l-86 -128z" />
    <glyph glyph-name="oslashacute" unicode="&#x1ff;" horiz-adv-x="535" 
d="M97 79c-29.333 46.667 -44.001 110.334 -44.001 191.001c0 90.667 18.333 160 55 208s89.667 72 159 72c62 0 111 -19.667 147 -59l38 49h45l-60 -78c14.667 -23.333 25.834 -51 33.501 -83s11.5 -68.333 11.5 -109c0 -90.667 -18.333 -159.834 -55 -207.501
s-90 -71.5 -160 -71.5c-62 0 -111.333 19.333 -148 58l-37 -49h-46zM91.999 270c0 -67.333 9.99902 -120.333 29.999 -159l269 350c-29.333 34.667 -70.666 52 -123.999 52c-116.667 0 -175 -81 -175 -243zM266.998 28c116.667 0 175 80.667 175 242
c0 66.667 -10 119.667 -30 159l-269 -350c28.667 -34 70 -51 124 -51zM247.998 616l75 182h40l-88 -188z" />
    <glyph glyph-name="Adblgrave" unicode="&#x200;" horiz-adv-x="603" 
d="M11 6l262 734h56l263 -734v-6h-38l-89 247h-328l-88 -247h-38v6zM452 284l-108 303l-41 116h-4l-40 -116l-109 -303h302zM222 789l-86 128h42l78 -114zM351 789l-86 128h42l79 -114z" />
    <glyph glyph-name="adblgrave" unicode="&#x201;" horiz-adv-x="472" 
d="M173 -5c-43.333 0 -76.0029 11.335 -98.0029 34.002s-33 55.667 -33 99c0 50 15.833 88.333 47.5 115s81.834 43 150.501 49l120 10v68c0 50.667 -10.167 86.667 -30.5 108s-55.166 32 -104.499 32c-41.333 0 -89.333 -6 -144 -18l-5 37c30 5.33301 57.5 9.5 82.5 12.5
s48.5 4.5 70.5 4.5c58 0 100.667 -13.833 128 -41.5s41 -70.834 41 -129.501v-375h-32l-6 67h-4c-32 -20.667 -63.167 -37.834 -93.5 -51.501s-60.166 -20.5 -89.499 -20.5zM178.997 32.002c14 0 28.5 2.16602 43.5 6.49902s30.333 10 46 17s31.167 14.833 46.5 23.5
s30.333 17.667 45 27v163l-113 -10c-30.667 -2.66699 -56.5 -7.16699 -77.5 -13.5s-38 -14.666 -51 -24.999s-22.5 -23 -28.5 -38s-9 -32.5 -9 -52.5c0 -65.333 32.667 -98 98 -98zM151.997 615.001l-89 188h45l73 -178zM309.997 615.001l-89 188h45l73 -178z" />
    <glyph glyph-name="Ainvertedbreve" unicode="&#x202;" horiz-adv-x="603" 
d="M11 6l262 734h56l263 -734v-6h-38l-89 247h-328l-88 -247h-38v6zM452 284l-108 303l-41 116h-4l-40 -116l-109 -303h302zM417 821c0 30.667 -10.167 54.667 -30.5 72s-48.5 26 -84.5 26s-64.167 -8.66699 -84.5 -26s-30.5 -41.333 -30.5 -72h-37
c0 41.333 13.333 73.833 40 97.5s64 35.5 112 35.5c47.333 0 84.5 -11.833 111.5 -35.5s40.5 -56.167 40.5 -97.5h-37z" />
    <glyph glyph-name="ainvertedbreve" unicode="&#x203;" horiz-adv-x="472" 
d="M173 -5c-43.333 0 -76.0029 11.335 -98.0029 34.002s-33 55.667 -33 99c0 50 15.833 88.333 47.5 115s81.834 43 150.501 49l120 10v68c0 50.667 -10.167 86.667 -30.5 108s-55.166 32 -104.499 32c-41.333 0 -89.333 -6 -144 -18l-5 37c30 5.33301 57.5 9.5 82.5 12.5
s48.5 4.5 70.5 4.5c58 0 100.667 -13.833 128 -41.5s41 -70.834 41 -129.501v-375h-32l-6 67h-4c-32 -20.667 -63.167 -37.834 -93.5 -51.501s-60.166 -20.5 -89.499 -20.5zM178.997 32.002c14 0 28.5 2.16602 43.5 6.49902s30.333 10 46 17s31.167 14.833 46.5 23.5
s30.333 17.667 45 27v163l-113 -10c-30.667 -2.66699 -56.5 -7.16699 -77.5 -13.5s-38 -14.666 -51 -24.999s-22.5 -23 -28.5 -38s-9 -32.5 -9 -52.5c0 -65.333 32.667 -98 98 -98zM90.9971 627.001c0 43.333 13 77 39 101s64 36 114 36s87.833 -12 113.5 -36
s38.5 -57.667 38.5 -101h-36c0 36 -10.333 62.333 -31 79s-49 25 -85 25s-64.333 -8.33301 -85 -25s-31 -43 -31 -79h-37z" />
    <glyph glyph-name="Edblgrave" unicode="&#x204;" horiz-adv-x="557" 
d="M93 740h406v-37h-368v-308h343v-37h-343v-321h376v-37h-414v740zM216 789l-86 128h42l78 -114zM345 789l-86 128h42l79 -114z" />
    <glyph glyph-name="edblgrave" unicode="&#x205;" horiz-adv-x="486" 
d="M161 615l-89 188h45l73 -178zM319 615l-89 188h45l73 -178zM272 -9c-71.333 0 -126 23 -164 69s-57 112.333 -57 199c0 94.667 18.167 166.667 54.5 216s89.5 74 159.5 74c56 0 98.833 -19.833 128.5 -59.5s44.5 -97.167 44.5 -172.5c0 -15.333 -0.166992 -28 -0.5 -38
s-1.16602 -19 -2.49902 -27h-345c1.33301 -74 17.666 -129.833 48.999 -167.5s76.666 -56.5 135.999 -56.5c22.667 0 45 2.33301 67 7s46 12.667 72 24l5 -36c-22 -10 -46.167 -17.833 -72.5 -23.5s-51.166 -8.5 -74.499 -8.5zM264 512
c-54 0 -95.6689 -19.167 -125.002 -57.5s-45.666 -94.166 -48.999 -167.499h310c-1.33301 79.333 -12.666 136.666 -33.999 171.999s-55.333 53 -102 53z" />
    <glyph glyph-name="Einvertedbreve" unicode="&#x206;" horiz-adv-x="557" 
d="M93 740h406v-37h-368v-308h343v-37h-343v-321h376v-37h-414v740zM411 821c0 30.667 -10.167 54.667 -30.5 72s-48.5 26 -84.5 26s-64.167 -8.66699 -84.5 -26s-30.5 -41.333 -30.5 -72h-37c0 41.333 13.333 73.833 40 97.5s64 35.5 112 35.5
c47.333 0 84.5 -11.833 111.5 -35.5s40.5 -56.167 40.5 -97.5h-37z" />
    <glyph glyph-name="einvertedbreve" unicode="&#x207;" horiz-adv-x="486" 
d="M101 627c0 43.333 13 77 39 101s64 36 114 36s87.833 -12 113.5 -36s38.5 -57.667 38.5 -101h-36c0 36 -10.333 62.333 -31 79s-49 25 -85 25s-64.333 -8.33301 -85 -25s-31 -43 -31 -79h-37zM272 -9c-71.333 0 -126 23 -164 69s-57 112.333 -57 199
c0 94.667 18.167 166.667 54.5 216s89.5 74 159.5 74c56 0 98.833 -19.833 128.5 -59.5s44.5 -97.167 44.5 -172.5c0 -15.333 -0.166992 -28 -0.5 -38s-1.16602 -19 -2.49902 -27h-345c1.33301 -74 17.666 -129.833 48.999 -167.5s76.666 -56.5 135.999 -56.5
c22.667 0 45 2.33301 67 7s46 12.667 72 24l5 -36c-22 -10 -46.167 -17.833 -72.5 -23.5s-51.166 -8.5 -74.499 -8.5zM264 512c-54 0 -95.6689 -19.167 -125.002 -57.5s-45.666 -94.166 -48.999 -167.499h310c-1.33301 79.333 -12.666 136.666 -33.999 171.999
s-55.333 53 -102 53z" />
    <glyph glyph-name="Idblgrave" unicode="&#x208;" horiz-adv-x="223" 
d="M93 740h38v-740h-38v740zM34 789l-86 128h42l78 -114zM163 789l-86 128h42l79 -114z" />
    <glyph glyph-name="idblgrave" unicode="&#x209;" horiz-adv-x="200" 
d="M12 615l-89 188h45l73 -178zM170 615l-89 188h45l73 -178zM81 540h38v-540h-38v540z" />
    <glyph glyph-name="Iinvertedbreve" unicode="&#x20a;" horiz-adv-x="223" 
d="M93 740h38v-740h-38v740zM228 821c0 30.667 -10.167 54.667 -30.5 72s-48.5 26 -84.5 26s-64.167 -8.66699 -84.5 -26s-30.5 -41.333 -30.5 -72h-37c0 41.333 13.333 73.833 40 97.5s64 35.5 112 35.5c47.333 0 84.5 -11.833 111.5 -35.5s40.5 -56.167 40.5 -97.5h-37z
" />
    <glyph glyph-name="iinvertedbreve" unicode="&#x20b;" horiz-adv-x="200" 
d="M-47 627c0 43.333 13 77 39 101s63.667 36 113 36c50 0 87.833 -12 113.5 -36s38.5 -57.667 38.5 -101h-36c0 36 -10.333 62.333 -31 79s-49 25 -85 25s-64.333 -8.33301 -85 -25s-31 -43 -31 -79h-36zM81 540h38v-540h-38v540z" />
    <glyph glyph-name="Odblgrave" unicode="&#x20c;" horiz-adv-x="675" 
d="M338 -10c-92 0 -162.167 31.666 -210.5 94.999s-72.5 158 -72.5 284c0 126.667 24.167 221.834 72.5 285.501s118.5 95.5 210.5 95.5c91.333 0 161.166 -32 209.499 -96s72.5 -159 72.5 -285s-24.167 -220.667 -72.5 -284s-118.166 -95 -209.499 -95zM338 26.999
c80.667 0 141.5 28.668 182.5 86.001s61.5 142.666 61.5 255.999c0 114 -20.667 199.833 -62 257.5s-102 86.5 -182 86.5c-162.667 0 -244 -114.667 -244 -344c0 -228 81.333 -342 244 -342zM257 789l-86 128h42l78 -114zM386 789l-86 128h42l79 -114z" />
    <glyph glyph-name="odblgrave" unicode="&#x20d;" horiz-adv-x="530" 
d="M170 615l-89 188h45l73 -178zM328 615l-89 188h45l73 -178zM265 -9c-69.333 0 -122.5 23.8311 -159.5 71.498s-55.5 116.834 -55.5 207.501c0 91.333 18.5 160.833 55.5 208.5s90.167 71.5 159.5 71.5c70 0 123.333 -23.833 160 -71.5s55 -117.167 55 -208.5
s-18.333 -160.666 -55 -207.999s-90 -71 -160 -71zM265 27.998c116.667 0 175 80.667 175 242c0 162 -58.333 243 -175 243s-175 -81 -175 -243c0 -161.333 58.333 -242 175 -242z" />
    <glyph glyph-name="Oinvertedbreve" unicode="&#x20e;" horiz-adv-x="675" 
d="M338 -10c-92 0 -162.167 31.666 -210.5 94.999s-72.5 158 -72.5 284c0 126.667 24.167 221.834 72.5 285.501s118.5 95.5 210.5 95.5c91.333 0 161.166 -32 209.499 -96s72.5 -159 72.5 -285s-24.167 -220.667 -72.5 -284s-118.166 -95 -209.499 -95zM338 26.999
c80.667 0 141.5 28.668 182.5 86.001s61.5 142.666 61.5 255.999c0 114 -20.667 199.833 -62 257.5s-102 86.5 -182 86.5c-162.667 0 -244 -114.667 -244 -344c0 -228 81.333 -342 244 -342zM452 821c0 30.667 -10.167 54.667 -30.5 72s-48.5 26 -84.5 26
s-64.167 -8.66699 -84.5 -26s-30.5 -41.333 -30.5 -72h-37c0 41.333 13.333 73.833 40 97.5s64 35.5 112 35.5c47.333 0 84.5 -11.833 111.5 -35.5s40.5 -56.167 40.5 -97.5h-37z" />
    <glyph glyph-name="oinvertedbreve" unicode="&#x20f;" horiz-adv-x="530" 
d="M110 627c0 43.333 13 77 39 101s64 36 114 36s87.833 -12 113.5 -36s38.5 -57.667 38.5 -101h-36c0 36 -10.333 62.333 -31 79s-49 25 -85 25s-64.333 -8.33301 -85 -25s-31 -43 -31 -79h-37zM265 -9c-69.333 0 -122.5 23.8311 -159.5 71.498
s-55.5 116.834 -55.5 207.501c0 91.333 18.5 160.833 55.5 208.5s90.167 71.5 159.5 71.5c70 0 123.333 -23.833 160 -71.5s55 -117.167 55 -208.5s-18.333 -160.666 -55 -207.999s-90 -71 -160 -71zM265 27.998c116.667 0 175 80.667 175 242c0 162 -58.333 243 -175 243
s-175 -81 -175 -243c0 -161.333 58.333 -242 175 -242z" />
    <glyph glyph-name="Rdblgrave" unicode="&#x210;" horiz-adv-x="593" 
d="M338 293c-28 -4 -58.666 -6 -91.999 -6c-17.333 0 -35.5 0.5 -54.5 1.5s-39.167 2.83301 -60.5 5.5v-294h-38v735c28 5.33301 54.833 9.33301 80.5 12s50.5 4 74.5 4c100 0 173 -18.5 219 -55.5s69 -95.833 69 -176.5c0 -61.333 -12.833 -109.833 -38.5 -145.5
s-65.834 -60.167 -120.501 -73.5l174 -300h-43zM252.001 323c43.333 0 80.499 3.66699 111.499 11s56.5 19 76.5 35s34.667 36.333 44 61s14 54.334 14 89.001c0 68 -19.5 117.5 -58.5 148.5s-101.5 46.5 -187.5 46.5c-18.667 0 -38.667 -0.833008 -60 -2.5
s-41.666 -4.16699 -60.999 -7.5v-372c14 -2.66699 32.333 -4.83398 55 -6.50098s44.667 -2.5 66 -2.5zM221 789l-86 128h42l78 -114zM350 789l-86 128h42l79 -114z" />
    <glyph glyph-name="rdblgrave" unicode="&#x211;" horiz-adv-x="332" 
d="M103 615l-89 188h45l73 -178zM261 615l-89 188h45l73 -178zM79 540l32.001 0.000976562l4 -67h4c34 18 66.167 33.667 96.5 47s60.833 23 91.5 29h12v-42h-13c-32.667 -5.33301 -64.834 -14.333 -96.501 -27s-62.5 -27.334 -92.5 -44.001v-436h-38v540z" />
    <glyph glyph-name="Rinvertedbreve" unicode="&#x212;" horiz-adv-x="593" 
d="M338 293c-28 -4 -58.666 -6 -91.999 -6c-17.333 0 -35.5 0.5 -54.5 1.5s-39.167 2.83301 -60.5 5.5v-294h-38v735c28 5.33301 54.833 9.33301 80.5 12s50.5 4 74.5 4c100 0 173 -18.5 219 -55.5s69 -95.833 69 -176.5c0 -61.333 -12.833 -109.833 -38.5 -145.5
s-65.834 -60.167 -120.501 -73.5l174 -300h-43zM252.001 323c43.333 0 80.499 3.66699 111.499 11s56.5 19 76.5 35s34.667 36.333 44 61s14 54.334 14 89.001c0 68 -19.5 117.5 -58.5 148.5s-101.5 46.5 -187.5 46.5c-18.667 0 -38.667 -0.833008 -60 -2.5
s-41.666 -4.16699 -60.999 -7.5v-372c14 -2.66699 32.333 -4.83398 55 -6.50098s44.667 -2.5 66 -2.5zM415 821c0 30.667 -10.167 54.667 -30.5 72s-48.5 26 -84.5 26s-64.167 -8.66699 -84.5 -26s-30.5 -41.333 -30.5 -72h-37c0 41.333 13.333 73.833 40 97.5
s64 35.5 112 35.5c47.333 0 84.5 -11.833 111.5 -35.5s40.5 -56.167 40.5 -97.5h-37z" />
    <glyph glyph-name="rinvertedbreve" unicode="&#x213;" horiz-adv-x="332" 
d="M42 627c0 43.333 13 77 39 101s64 36 114 36s87.833 -12 113.5 -36s38.5 -57.667 38.5 -101h-36c0 36 -10.333 62.333 -31 79s-49 25 -85 25s-64.333 -8.33301 -85 -25s-31 -43 -31 -79h-37zM79 540l32.001 0.000976562l4 -67h4c34 18 66.167 33.667 96.5 47
s60.833 23 91.5 29h12v-42h-13c-32.667 -5.33301 -64.834 -14.333 -96.501 -27s-62.5 -27.334 -92.5 -44.001v-436h-38v540z" />
    <glyph glyph-name="Udblgrave" unicode="&#x214;" horiz-adv-x="692" 
d="M346 -10c-44.667 0 -83.3359 5.66699 -116.003 17s-59.667 29.333 -81 54s-37.166 56.334 -47.499 95.001s-15.5 85 -15.5 139v445h38v-442c0 -49.333 4.5 -91.166 13.5 -125.499s22.833 -62.166 41.5 -83.499s41.834 -37 69.501 -47s60.167 -15 97.5 -15
s69.833 5 97.5 15s50.834 25.667 69.501 47s32.5 49.166 41.5 83.499s13.5 76.166 13.5 125.499v442h38v-445c0 -54 -5.16699 -100.333 -15.5 -139s-26.166 -70.334 -47.499 -95.001s-48.333 -42.667 -81 -54s-71.334 -17 -116.001 -17zM263.998 789l-86 128h42l78 -114z
M392.998 789l-86 128h42l79 -114z" />
    <glyph glyph-name="udblgrave" unicode="&#x215;" horiz-adv-x="533" 
d="M173 615l-89 188h45l73 -178zM331 615l-89 188h45l73 -178zM200 -10c-43.333 0 -75.001 11.667 -95.001 35s-30 60 -30 110v405h38v-397c0 -40 7.33301 -69.167 22 -87.5s38 -27.5 70 -27.5c33.333 0 66.5 6.66699 99.5 20s70.167 31.333 111.5 54v438h38v-540h-32l-5 64
h-4l-66 -33c-19.333 -9.33301 -37.166 -17 -53.499 -23s-32 -10.5 -47 -13.5s-30.5 -4.5 -46.5 -4.5z" />
    <glyph glyph-name="Uinvertedbreve" unicode="&#x216;" horiz-adv-x="692" 
d="M346 -10c-44.667 0 -83.3359 5.66699 -116.003 17s-59.667 29.333 -81 54s-37.166 56.334 -47.499 95.001s-15.5 85 -15.5 139v445h38v-442c0 -49.333 4.5 -91.166 13.5 -125.499s22.833 -62.166 41.5 -83.499s41.834 -37 69.501 -47s60.167 -15 97.5 -15
s69.833 5 97.5 15s50.834 25.667 69.501 47s32.5 49.166 41.5 83.499s13.5 76.166 13.5 125.499v442h38v-445c0 -54 -5.16699 -100.333 -15.5 -139s-26.166 -70.334 -47.499 -95.001s-48.333 -42.667 -81 -54s-71.334 -17 -116.001 -17zM458.998 821
c0 30.667 -10.167 54.667 -30.5 72s-48.5 26 -84.5 26s-64.167 -8.66699 -84.5 -26s-30.5 -41.333 -30.5 -72h-37c0 41.333 13.333 73.833 40 97.5s64 35.5 112 35.5c47.333 0 84.5 -11.833 111.5 -35.5s40.5 -56.167 40.5 -97.5h-37z" />
    <glyph glyph-name="uinvertedbreve" unicode="&#x217;" horiz-adv-x="533" 
d="M113 627c0 43.333 13 77 39 101s64 36 114 36s87.833 -12 113.5 -36s38.5 -57.667 38.5 -101h-36c0 36 -10.333 62.333 -31 79s-49 25 -85 25s-64.333 -8.33301 -85 -25s-31 -43 -31 -79h-37zM200 -10c-43.333 0 -75.001 11.667 -95.001 35s-30 60 -30 110v405h38v-397
c0 -40 7.33301 -69.167 22 -87.5s38 -27.5 70 -27.5c33.333 0 66.5 6.66699 99.5 20s70.167 31.333 111.5 54v438h38v-540h-32l-5 64h-4l-66 -33c-19.333 -9.33301 -37.166 -17 -53.499 -23s-32 -10.5 -47 -13.5s-30.5 -4.5 -46.5 -4.5z" />
    <glyph glyph-name="uni0218" unicode="&#x218;" horiz-adv-x="515" 
d="M240 -68h41l-54 -152h-38zM246 -12c-14.667 0 -30.665 0.838867 -47.998 2.50586s-35 3.83398 -53 6.50098s-35.833 6 -53.5 10s-34.167 8.33301 -49.5 13l4 36c14 -4 29.667 -8 47 -12s35 -7.33301 53 -10s35.667 -4.83398 53 -6.50098s33.333 -2.5 48 -2.5
c59.333 0 105.5 13.333 138.5 40s49.5 64.667 49.5 114c0 24.667 -4.33301 46.167 -13 64.5s-21 34.333 -37 48s-35.167 25.834 -57.5 36.501s-47.5 20.667 -75.5 30c-36 12 -66.333 24.667 -91 38s-44.834 27.833 -60.501 43.5s-26.834 33.167 -33.501 52.5
s-10 41.666 -10 66.999c0 29.333 5.33301 56.166 16 80.499s25.667 45 45 62s42.5 30.167 69.5 39.5s57.167 14 90.5 14c50.667 0 106 -7 166 -21l-4 -37c-30.667 7.33301 -59.667 12.666 -87 15.999s-52 5 -74 5c-28 0 -53.167 -3.83301 -75.5 -11.5
s-41.5 -18.334 -57.5 -32.001s-28.333 -30.334 -37 -50.001s-13 -41.5 -13 -65.5c0 -20 2.83301 -37.833 8.5 -53.5s15.334 -30 29.001 -43s31.5 -25.167 53.5 -36.5s49.333 -22.333 82 -33c31.333 -10.667 59.666 -21.834 84.999 -33.501s46.833 -25.667 64.5 -42
s31.334 -35.5 41.001 -57.5s14.5 -48.667 14.5 -80c0 -60.667 -19.833 -107.834 -59.5 -141.501s-95.834 -50.5 -168.501 -50.5z" />
    <glyph glyph-name="uni0219" unicode="&#x219;" horiz-adv-x="404" 
d="M197 -68h41l-54 -152h-38zM196 -11c-9.33301 0 -18.834 0.329102 -28.501 0.996094s-20.334 1.83398 -32.001 3.50098s-24.667 4 -39 7l-50.5 10.5v38c26 -7.33301 51.5 -13 76.5 -17s48.167 -6 69.5 -6c42 0 74.167 9.83301 96.5 29.5s33.5 47.5 33.5 83.5
c0 18.667 -2.83301 34.5 -8.5 47.5s-13.5 24.167 -23.5 33.5s-22 17 -36 23s-29.667 11 -47 15c-18 4.66699 -36.167 9.66699 -54.5 15s-34.833 13.333 -49.5 24s-26.667 24.834 -36 42.501s-14 41.167 -14 70.5c0 44 14.833 78.833 44.5 104.5s70.5 38.5 122.5 38.5
c8.66699 0 17 -0.333008 25 -1s16.5 -1.66699 25.5 -3s19.333 -3.16602 31 -5.49902l41.5 -8.5l-2 -37c-27.333 6.66699 -50 11.334 -68 14.001s-35.333 4 -52 4c-41.333 0 -73.166 -9.16699 -95.499 -27.5s-33.5 -44.5 -33.5 -78.5c0 -20 3.33301 -36.5 10 -49.5
s15.834 -23.5 27.501 -31.5s25 -14.5 40 -19.5s30.833 -9.83301 47.5 -14.5c21.333 -6 41 -12.667 59 -20s33.333 -17 46 -29s22.5 -26.5 29.5 -43.5s10.5 -37.833 10.5 -62.5c0 -47.333 -15.167 -84.333 -45.5 -111s-70.5 -40 -120.5 -40z" />
    <glyph glyph-name="uni021A" unicode="&#x21a;" horiz-adv-x="533" 
d="M260 -68h41l-54 -152h-38zM247 703h-233v37h504v-37h-233v-703h-38v703z" />
    <glyph glyph-name="uni021B" unicode="&#x21b;" horiz-adv-x="350" 
d="M224 -68h41l-54 -152h-38zM262 -6c-87.333 0 -130.999 47 -130.999 141v368h-116v37h117l5 123l32 7v-130h165v-37h-165v-364c0 -72 32.667 -108 98 -108c10 0 21.167 0.833008 33.5 2.5s24.166 4.16699 35.499 7.5v-37c-27.333 -6.66699 -52 -10 -74 -10z" />
    <glyph glyph-name="dotlessj" unicode="&#x237;" horiz-adv-x="196" 
d="M1 -201c18.667 31.333 33.168 60.999 43.501 88.999s18.166 58 23.499 90s8.66602 67.333 9.99902 106s2 84.667 2 138v318h38v-448c0 -55.333 -7.66699 -109.666 -23 -162.999s-37.666 -103 -66.999 -149z" />
    <glyph glyph-name="schwa" unicode="&#x259;" horiz-adv-x="486" 
d="M214 549c71.333 0 126.004 -23 164.004 -69s57 -112.333 57 -199c0 -94.667 -18.333 -166.667 -55 -216s-89.667 -74 -159 -74c-56.667 0 -99.667 19.833 -129 59.5s-44 97.167 -44 172.5c0 15.333 0.166992 28 0.5 38s1.16602 19 2.49902 27h345
c-1.33301 73.333 -17.5 129 -48.5 167s-76.5 57 -136.5 57c-22.667 0 -44.834 -2.33301 -66.501 -7s-45.834 -12.667 -72.501 -24l-5 37c22 9.33301 46.167 16.833 72.5 22.5s51.166 8.5 74.499 8.5zM222.004 28c54 0 95.501 19 124.501 57s45.167 93.667 48.5 167h-309
c1.33301 -79.333 12.666 -136.5 33.999 -171.5s55.333 -52.5 102 -52.5z" />
    <glyph glyph-name="apostrophe" unicode="&#x2bc;" horiz-adv-x="197" 
d="M120 808v-4l-25 -224h-14v228h39z" />
    <glyph glyph-name="circumflex" unicode="&#x2c6;" horiz-adv-x="393" 
d="M55 685l137 72l138 -72v-43l-137 72l-138 -72v43z" />
    <glyph glyph-name="caron" unicode="&#x2c7;" horiz-adv-x="368" 
d="M45 754l137 -72l138 72v-43l-138 -72l-137 72v43z" />
    <glyph glyph-name="uni02C9" unicode="&#x2c9;" horiz-adv-x="406" 
d="M70 689h267v-37h-267v37z" />
    <glyph glyph-name="breve" unicode="&#x2d8;" horiz-adv-x="436" 
d="M216 621c-50 0 -88.001 11.999 -114.001 35.999s-39 58 -39 102h36c0 -36.667 10.333 -63.334 31 -80.001s49.334 -25 86.001 -25c36 0 64.333 8.33301 85 25s31 43.334 31 80.001h36c0 -43.333 -12.833 -77.166 -38.5 -101.499s-63.5 -36.5 -113.5 -36.5z" />
    <glyph glyph-name="dotaccent" unicode="&#x2d9;" horiz-adv-x="219" 
d="M100 653c-9.33301 0 -17.166 2.5 -23.499 7.5s-9.5 13.167 -9.5 24.5c0 12 3.16699 20.667 9.5 26s14.166 8 23.499 8s17.333 -2.66699 24 -8s10 -14 10 -26c0 -11.333 -3.33301 -19.5 -10 -24.5s-14.667 -7.5 -24 -7.5z" />
    </font>
</defs>
</svg>
