<?xml version="1.0" standalone="no"?>
<!DOCTYPE svg PUBLIC "-//W3C//DTD SVG 1.1//EN" "http://www.w3.org/Graphics/SVG/1.1/DTD/svg11.dtd" >
<svg>
<metadata>
Created by FontForge 20090914 at Sat Aug  6 09:10:19 2016
 By www-data
Copyright (c) 2012, Impallari Type (www.impallari.com), with Reserved Font Name Encode Sans.
</metadata>
<defs>
<font id="EncodeSansCompressed-Bold" horiz-adv-x="559" >
  <font-face 
    font-family="Encode Sans Compressed"
    font-weight="700"
    font-stretch="normal"
    units-per-em="1000"
    panose-1="2 0 0 0 0 0 0 0 0 0"
    ascent="800"
    descent="-200"
    x-height="540"
    cap-height="740"
    bbox="-101 -220.001 1475 1030"
    underline-thickness="55"
    underline-position="-57"
    unicode-range="U+000D-U+FB04"
  />
<missing-glyph horiz-adv-x="658" 
d="M72 1030h514v-1250h-514v1250zM472 -113v1037h-287v-1037h287z" />
    <glyph glyph-name="f_f" unicode="ff" horiz-adv-x="659" 
d="M407 425l-183.996 0.00390625v-425h-137v425h-73v115h74v30c0 44.667 4.16699 82 12.5 112s22.5 54.5 42.5 73.5s46.5 33 79.5 42s73.833 14.5 122.5 16.5l8 -104c-26 -2 -47.333 -5.33301 -64 -10s-29.834 -11.834 -39.501 -21.501s-16.334 -22.334 -20.001 -38.001
s-5.5 -35.5 -5.5 -59.5v-41h185v30c0 44.667 4.16699 82 12.5 112s22.5 54.5 42.5 73.5s46.5 33 79.5 42s73.833 14.5 122.5 16.5l8 -104c-26 -2 -47.333 -5.33301 -64 -10s-29.834 -11.834 -39.501 -21.501s-16.334 -22.334 -20.001 -38.001s-5.5 -35.5 -5.5 -59.5v-41h106
v-115h-106v-425h-137v425z" />
    <glyph glyph-name="f_i" unicode="fi" horiz-adv-x="580" 
d="M460 627c-27.333 0 -46.999 6 -58.999 18s-18 31.333 -18 58s6 46 18 58s31.667 18 59 18s47.166 -6.16699 59.499 -18.5s18.5 -31.5 18.5 -57.5s-6 -45.167 -18 -57.5s-32 -18.5 -60 -18.5zM392.001 540h136v-540h-136v540zM86.001 425l-72.998 0.00195312v115h74v30
c0 44.667 4.16699 82 12.5 112s22.5 54.5 42.5 73.5s46.5 33 79.5 42s73.833 14.5 122.5 16.5l8 -104c-26 -2 -47.333 -5.33301 -64 -10s-29.834 -11.834 -39.501 -21.501s-16.334 -22.334 -20.001 -38.001s-5.5 -35.5 -5.5 -59.5v-41h106v-115h-106v-425h-137v425z" />
    <glyph glyph-name="f_l" unicode="fl" horiz-adv-x="581" 
d="M86 425l-72.998 0.00195312v115h74v30c0 44.667 4.16699 82 12.5 112s22.5 54.5 42.5 73.5s46.5 33 79.5 42s73.833 14.5 122.5 16.5l8 -104c-26 -2 -47.333 -5.33301 -64 -10s-29.834 -11.834 -39.501 -21.501s-16.334 -22.334 -20.001 -38.001s-5.5 -35.5 -5.5 -59.5
v-41h106v-115h-106v-425h-137v425zM391.002 808.002h137v-808h-137v808z" />
    <glyph glyph-name="f_f_i" unicode="ffi" horiz-adv-x="897" 
d="M86 425l-72.9961 0.00390625v115h74v30c0 44.667 4.16699 82 12.5 112s22.5 54.5 42.5 73.5s46.5 33 79.5 42s73.833 14.5 122.5 16.5l8 -104c-26 -2 -47.333 -5.33301 -64 -10s-29.834 -11.834 -39.501 -21.501s-16.334 -22.334 -20.001 -38.001s-5.5 -35.5 -5.5 -59.5
v-41h181v30c0 44.667 4.16699 82 12.5 112s22.5 54.5 42.5 73.5s46.5 33 79.5 42s73.833 14.5 122.5 16.5l8 -104c-26 -2 -47.333 -5.33301 -64 -10s-29.834 -11.834 -39.501 -21.501s-16.334 -22.334 -20.001 -38.001s-5.5 -35.5 -5.5 -59.5v-41h106v-115h-106v-425h-137
v425h-180v-425h-137v425zM709.004 540.004h136v-540h-136v540zM777.004 627.004c-27.333 0 -46.999 6 -58.999 18s-18 31.333 -18 58s6 46 18 58s31.667 18 59 18s47.166 -6.16699 59.499 -18.5s18.5 -31.5 18.5 -57.5s-6 -45.167 -18 -57.5s-32 -18.5 -60 -18.5z" />
    <glyph glyph-name="f_f_l" unicode="ffl" horiz-adv-x="897" 
d="M86 425l-72.9961 0.00390625v115h74v30c0 44.667 4.16699 82 12.5 112s22.5 54.5 42.5 73.5s46.5 33 79.5 42s73.833 14.5 122.5 16.5l8 -104c-26 -2 -47.333 -5.33301 -64 -10s-29.834 -11.834 -39.501 -21.501s-16.334 -22.334 -20.001 -38.001s-5.5 -35.5 -5.5 -59.5
v-41h181v30c0 44.667 4.16699 82 12.5 112s22.5 54.5 42.5 73.5s46.5 33 79.5 42s73.833 14.5 122.5 16.5l8 -104c-26 -2 -47.333 -5.33301 -64 -10s-29.834 -11.834 -39.501 -21.501s-16.334 -22.334 -20.001 -38.001s-5.5 -35.5 -5.5 -59.5v-41h106v-115h-106v-425h-137
v425h-180v-425h-137v425zM708.004 808.004h137v-808h-137v808z" />
    <glyph glyph-name="f_b" unicode="fb" horiz-adv-x="865" 
d="M87 425l-72.998 0.00195312v115h74v30c0 44.667 4.16699 82 12.5 112s22.5 54.5 42.5 73.5s46.5 33 79.5 42s73.833 14.5 122.5 16.5l8 -104c-26 -2 -47.333 -5.33301 -64 -10s-29.834 -11.834 -39.501 -21.501s-16.334 -22.334 -20.001 -38.001s-5.5 -35.5 -5.5 -59.5
v-41h106v-115h-106v-425h-137v425zM583.002 -8.99805c-29.333 0 -59.999 3.16699 -91.999 9.5s-65.667 15.166 -101 26.499v781h137v-322c15.333 20.667 34.666 36.334 57.999 47.001s49 16 77 16c114.667 0 172 -87.333 172 -262c0 -43.333 -4.5 -82.833 -13.5 -118.5
s-23.333 -66.5 -43 -92.5s-45.5 -46.333 -77.5 -61s-71 -22.667 -117 -24zM587.003 83.002c19.333 0 35.832 3.16895 49.499 9.50195s24.667 16.833 33 31.5s14.5 34 18.5 58s6 53.667 6 89c0 34 -1.5 62.5 -4.5 85.5s-7.66699 41.5 -14 55.5s-14.833 24 -25.5 30
s-23.334 9 -38.001 9c-13.333 0 -25.166 -2.83301 -35.499 -8.5s-19.166 -14.834 -26.499 -27.501s-13 -29.334 -17 -50.001s-6 -46 -6 -76v-195c18.667 -7.33301 38.667 -11 60 -11z" />
    <glyph glyph-name="f_f_b" unicode="ffb" horiz-adv-x="1181" 
d="M87 425l-72.9961 0.00390625v115h74v30c0 44.667 4.16699 82 12.5 112s22.5 54.5 42.5 73.5s46.5 33 79.5 42s73.833 14.5 122.5 16.5l8 -104c-26 -2 -47.333 -5.33301 -64 -10s-29.834 -11.834 -39.501 -21.501s-16.334 -22.334 -20.001 -38.001s-5.5 -35.5 -5.5 -59.5
v-41h180v30c0 44.667 4.16699 82 12.5 112s22.5 54.5 42.5 73.5s46.5 33 79.5 42s73.833 14.5 122.5 16.5l8 -104c-26 -2 -47.333 -5.33301 -64 -10s-29.834 -11.834 -39.501 -21.501s-16.334 -22.334 -20.001 -38.001s-5.5 -35.5 -5.5 -59.5v-41h106v-115h-106v-425h-137
v425h-179v-425h-137v425zM900.004 -8.99609c-29.333 0 -59.999 3.16699 -91.999 9.5s-65.667 15.166 -101 26.499v781h137v-322c15.333 20.667 34.666 36.334 57.999 47.001s49 16 77 16c114.667 0 172 -87.333 172 -262c0 -43.333 -4.5 -82.833 -13.5 -118.5
s-23.333 -66.5 -43 -92.5s-45.5 -46.333 -77.5 -61s-71 -22.667 -117 -24zM904.005 83.0039c19.333 0 35.832 3.16895 49.499 9.50195s24.667 16.833 33 31.5s14.5 34 18.5 58s6 53.667 6 89c0 34 -1.5 62.5 -4.5 85.5s-7.66699 41.5 -14 55.5s-14.833 24 -25.5 30
s-23.334 9 -38.001 9c-13.333 0 -25.166 -2.83301 -35.499 -8.5s-19.166 -14.834 -26.499 -27.501s-13 -29.334 -17 -50.001s-6 -46 -6 -76v-195c18.667 -7.33301 38.667 -11 60 -11z" />
    <glyph glyph-name="f_f_h" unicode="ffh" horiz-adv-x="1178" 
d="M86 425l-72.9961 0.00390625v115h74v30c0 44.667 4.16699 82 12.5 112s22.5 54.5 42.5 73.5s46.5 33 79.5 42s73.833 14.5 122.5 16.5l8 -104c-26 -2 -47.333 -5.33301 -64 -10s-29.834 -11.834 -39.501 -21.501s-16.334 -22.334 -20.001 -38.001s-5.5 -35.5 -5.5 -59.5
v-41h181v30c0 44.667 4.16699 82 12.5 112s22.5 54.5 42.5 73.5s46.5 33 79.5 42s73.833 14.5 122.5 16.5l8 -104c-26 -2 -47.333 -5.33301 -64 -10s-29.834 -11.834 -39.501 -21.501s-16.334 -22.334 -20.001 -38.001s-5.5 -35.5 -5.5 -59.5v-41h106v-115h-106v-425h-137
v425h-180v-425h-137v425zM708.004 808.004l136.997 0.000976562v-320c18.667 12 35.334 21.833 50.001 29.5s28.334 14 41.001 19s24.834 8.5 36.501 10.5s23.834 3 36.501 3c39.333 0 69.166 -12.333 89.499 -37s30.5 -60.334 30.5 -107.001v-406h-136v360
c0 46.667 -17 70 -51 70c-28 0 -60.333 -12 -97 -36v-394h-137v808z" />
    <glyph glyph-name="f_f_j" unicode="ffj" horiz-adv-x="901" 
d="M87 425l-72.9961 0.00390625v115h74v30c0 44.667 4.16699 82 12.5 112s22.5 54.5 42.5 73.5s46.5 33 79.5 42s73.833 14.5 122.5 16.5l8 -104c-26 -2 -47.333 -5.33301 -64 -10s-29.834 -11.834 -39.501 -21.501s-16.334 -22.334 -20.001 -38.001s-5.5 -35.5 -5.5 -59.5
v-41h181v30c0 44.667 4.16699 82 12.5 112s22.5 54.5 42.5 73.5s46.5 33 79.5 42s73.833 14.5 122.5 16.5l8 -104c-26 -2 -47.333 -5.33301 -64 -10s-29.834 -11.834 -39.501 -21.501s-16.334 -22.334 -20.001 -38.001s-5.5 -35.5 -5.5 -59.5v-41h106v-115h-106v-425h-137
v425h-180v-425h-137v425zM664.004 -189.996c15.333 40 27.333 86.166 36 138.499s13 106.833 13 163.5v428h137v-462c0 -23.333 -2.33301 -48.166 -7 -74.499s-11 -52.666 -19 -78.999s-17.667 -51.833 -29 -76.5s-24 -47.334 -38 -68.001zM781.004 627.003
c-26.667 0 -46.167 6 -58.5 18s-18.5 31.333 -18.5 58s6 46 18 58s31.667 18 59 18c28 0 48.167 -6.16699 60.5 -18.5s18.5 -31.5 18.5 -57.5s-6.16699 -45.167 -18.5 -57.5s-32.5 -18.5 -60.5 -18.5z" />
    <glyph glyph-name="f_f_k" unicode="ffk" horiz-adv-x="1160" 
d="M86 425l-72.9961 0.00390625v115h74v30c0 44.667 4.16699 82 12.5 112s22.5 54.5 42.5 73.5s46.5 33 79.5 42s73.833 14.5 122.5 16.5l8 -104c-26 -2 -47.333 -5.33301 -64 -10s-29.834 -11.834 -39.501 -21.501s-16.334 -22.334 -20.001 -38.001s-5.5 -35.5 -5.5 -59.5
v-41h181v30c0 44.667 4.16699 82 12.5 112s22.5 54.5 42.5 73.5s46.5 33 79.5 42s73.833 14.5 122.5 16.5l8 -104c-26 -2 -47.333 -5.33301 -64 -10s-29.834 -11.834 -39.501 -21.501s-16.334 -22.334 -20.001 -38.001s-5.5 -35.5 -5.5 -59.5v-41h106v-115h-106v-425h-137
v425h-180v-425h-137v425zM708.004 808.004h137v-479h44l116 211h148l-153 -251l-22 -9v-3l23 -10l169 -267h-149l-132 228h-44v-228h-137v808z" />
    <glyph glyph-name="f_f_t" unicode="fft" horiz-adv-x="998" 
d="M896 -6c-54.667 0 -95.8281 12.8359 -123.495 38.5029s-41.5 63.5 -41.5 113.5v279h-191v-425h-137v425h-179v-425h-137v425h-73v115h74v30c0 44.667 4.16699 82 12.5 112s22.5 54.5 42.5 73.5s46.5 33 79.5 42s73.833 14.5 122.5 16.5l8 -104
c-26 -2 -47.333 -5.33301 -64 -10s-29.834 -11.834 -39.501 -21.501s-16.334 -22.334 -20.001 -38.001s-5.5 -35.5 -5.5 -59.5v-41h180v30c0 44.667 4.16699 82 12.5 112s22.5 54.5 42.5 73.5s46.5 33 79.5 42s73.833 14.5 122.5 16.5l8 -104
c-26 -2 -47.333 -5.33301 -64 -10s-29.834 -11.834 -39.501 -21.501s-16.334 -22.334 -20.001 -38.001s-5.5 -35.5 -5.5 -59.5v-41h199l18 149l110 15v-164h113v-116h-112v-246c0 -29.333 5.16699 -50.166 15.5 -62.499s25.833 -18.5 46.5 -18.5
c7.33301 0 15.166 0.5 23.499 1.5s17.166 2.83301 26.499 5.5v-100c-13.333 -3.33301 -27.166 -5.83301 -41.499 -7.5s-28.5 -2.5 -42.5 -2.5z" />
    <glyph glyph-name="f_h" unicode="fh" horiz-adv-x="862" 
d="M391 808l136.997 0.000976562v-320c18.667 12 35.334 21.833 50.001 29.5s28.334 14 41.001 19s24.834 8.5 36.501 10.5s23.834 3 36.501 3c39.333 0 69.166 -12.333 89.499 -37s30.5 -60.334 30.5 -107.001v-406h-136v360c0 46.667 -17 70 -51 70
c-28 0 -60.333 -12 -97 -36v-394h-137v808zM85.9971 425.001l-72.998 0.00195312v115h74v30c0 44.667 4.16699 82 12.5 112s22.5 54.5 42.5 73.5s46.5 33 79.5 42s73.833 14.5 122.5 16.5l8 -104c-26 -2 -47.333 -5.33301 -64 -10s-29.834 -11.834 -39.501 -21.501
s-16.334 -22.334 -20.001 -38.001s-5.5 -35.5 -5.5 -59.5v-41h106v-115h-106v-425h-137v425z" />
    <glyph glyph-name="f_j" unicode="fj" horiz-adv-x="584" 
d="M87 425l-72.998 0.00195312v115h74v30c0 44.667 4.16699 82 12.5 112s22.5 54.5 42.5 73.5s46.5 33 79.5 42s73.833 14.5 122.5 16.5l8 -104c-26 -2 -47.333 -5.33301 -64 -10s-29.834 -11.834 -39.501 -21.501s-16.334 -22.334 -20.001 -38.001s-5.5 -35.5 -5.5 -59.5
v-41h106v-115h-106v-425h-137v425zM464.002 627.002c-26.667 0 -46.167 6 -58.5 18s-18.5 31.333 -18.5 58s6 46 18 58s31.667 18 59 18c28 0 48.167 -6.16699 60.5 -18.5s18.5 -31.5 18.5 -57.5s-6.16699 -45.167 -18.5 -57.5s-32.5 -18.5 -60.5 -18.5zM347.002 -189.998
c15.333 40 27.333 86.166 36 138.499s13 106.833 13 163.5v428h137v-462c0 -23.333 -2.33301 -48.166 -7 -74.499s-11 -52.666 -19 -78.999s-17.667 -51.833 -29 -76.5s-24 -47.334 -38 -68.001z" />
    <glyph glyph-name="f_k" unicode="fk" horiz-adv-x="844" 
d="M391 808h137v-479h44l116 211h148l-153 -251l-22 -9v-3l23 -10l169 -267h-149l-132 228h-44v-228h-137v808zM86 425l-72.998 0.00195312v115h74v30c0 44.667 4.16699 82 12.5 112s22.5 54.5 42.5 73.5s46.5 33 79.5 42s73.833 14.5 122.5 16.5l8 -104
c-26 -2 -47.333 -5.33301 -64 -10s-29.834 -11.834 -39.501 -21.501s-16.334 -22.334 -20.001 -38.001s-5.5 -35.5 -5.5 -59.5v-41h106v-115h-106v-425h-137v425z" />
    <glyph glyph-name="f_t" unicode="ft" horiz-adv-x="681" 
d="M579 -6c-54.667 0 -95.8301 12.834 -123.497 38.501s-41.5 63.5 -41.5 113.5v279h-190v-425h-137v425h-73v115h74v30c0 44.667 4.16699 82 12.5 112s22.5 54.5 42.5 73.5s46.5 33 79.5 42s73.833 14.5 122.5 16.5l8 -104c-26 -2 -47.333 -5.33301 -64 -10
s-29.834 -11.834 -39.501 -21.501s-16.334 -22.334 -20.001 -38.001s-5.5 -35.5 -5.5 -59.5v-41h198l18 149l110 15v-164h113v-116h-112v-246c0 -29.333 5.16699 -50.166 15.5 -62.499s25.833 -18.5 46.5 -18.5c7.33301 0 15.166 0.5 23.499 1.5s17.166 2.83301 26.499 5.5
v-100c-13.333 -3.33301 -27.166 -5.83301 -41.499 -7.5s-28.5 -2.5 -42.5 -2.5z" />
    <glyph glyph-name=".notdef" horiz-adv-x="658" 
d="M72 1030h514v-1250h-514v1250zM472 -113v1037h-287v-1037h287z" />
    <glyph glyph-name="NULL" horiz-adv-x="0" 
 />
    <glyph glyph-name="NULL" horiz-adv-x="0" 
 />
    <glyph glyph-name="nonmarkingreturn" unicode="&#xd;" horiz-adv-x="267" 
 />
    <glyph glyph-name="space" unicode=" " horiz-adv-x="178" 
 />
    <glyph glyph-name="exclam" unicode="!" horiz-adv-x="254" 
d="M128 -5c-25.333 0 -45 6.66699 -59 20s-21 32.333 -21 57c0 24 7 42.667 21 56s33.667 20 59 20s45 -6.83301 59 -20.5s21 -32.167 21 -55.5c0 -24.667 -7 -43.667 -21 -57s-33.667 -20 -59 -20zM85 244l-31 486v10h146v-10l-30 -486v-11h-85v11z" />
    <glyph glyph-name="quotedbl" unicode="&#x22;" horiz-adv-x="374" 
d="M157 808v-4l-37 -324h-72v328h109zM343 808v-4l-37 -324h-72v328h109z" />
    <glyph glyph-name="numbersign" unicode="#" horiz-adv-x="506" 
d="M280 212h-85l-17 -212h-95l17 212h-64v87h71l11 143h-82v87h89l18 211h95l-18 -211h86l18 211h95l-18 -211h68v-87h-75l-11 -143h86v-87h-93l-17 -212h-96zM202 299h85l12 143h-86z" />
    <glyph glyph-name="dollar" unicode="$" horiz-adv-x="505" 
d="M210 -11c-28.667 2 -58.001 5.83105 -88.001 11.498s-60 13.834 -90 24.501l3 118c10.667 -5.33301 23.667 -10.166 39 -14.499s31.333 -8.33301 48 -12s33.334 -6.5 50.001 -8.5s32 -3 46 -3c40 0 70.167 8.5 90.5 25.5s30.5 41.5 30.5 73.5c0 15.333 -3 28.5 -9 39.5
s-14.833 20.667 -26.5 29s-25.5 15.833 -41.5 22.5s-34 13.667 -54 21c-24 8.66699 -46.167 18.334 -66.5 29.001s-38.166 24.334 -53.499 41.001s-27.333 37.334 -36 62.001s-13 55.667 -13 93c0 54 14.667 98.333 44 133s70.666 57.667 123.999 69v134h114v-129
c40.667 -2.66699 83 -10.667 127 -24l-2 -113c-27.333 7.33301 -55.5 13.166 -84.5 17.499s-53.167 6.5 -72.5 6.5c-35.333 0 -62.333 -8.16699 -81 -24.5s-28 -39.5 -28 -69.5c0 -16 3.33301 -29.667 10 -41s16.167 -21.333 28.5 -30s27 -16.667 44 -24
s35.833 -15 56.5 -23c24 -9.33301 45.833 -19.833 65.5 -31.5s36.5 -25.834 50.5 -42.501s24.833 -36.334 32.5 -59.001s11.5 -50 11.5 -82c0 -54.667 -13.667 -100 -41 -136s-65.333 -60.667 -114 -74v-135h-114v126z" />
    <glyph glyph-name="percent" unicode="%" horiz-adv-x="903" 
d="M201 277c-56.667 0 -99.834 20 -129.501 60s-44.5 98.667 -44.5 176s14.833 136 44.5 176s72.834 60 129.501 60c57.333 0 100.666 -20 129.999 -60s44 -98.667 44 -176s-14.667 -136 -44 -176s-72.666 -60 -129.999 -60zM201 368c25.333 0 43.333 11.333 54 34
s16 59.667 16 111c0 52 -5.5 89.333 -16.5 112s-28.833 34 -53.5 34c-24 0 -41.667 -11.667 -53 -35s-17 -60.333 -17 -111s5.5 -87.5 16.5 -110.5s28.833 -34.5 53.5 -34.5zM702 -11c-56.667 0 -99.834 20 -129.501 60s-44.5 98.333 -44.5 175
c0 77.333 14.833 136.166 44.5 176.499s72.834 60.5 129.501 60.5c57.333 0 100.666 -20.167 129.999 -60.5s44 -99.166 44 -176.499s-14.667 -135.833 -44 -175.5s-72.666 -59.5 -129.999 -59.5zM702 79c25.333 0 43.333 11.333 54 34s16 59.667 16 111
c0 52 -5.5 89.333 -16.5 112s-28.833 34 -53.5 34c-24 0 -41.833 -11.667 -53.5 -35s-17.5 -60.333 -17.5 -111s5.66699 -87.5 17 -110.5s29.333 -34.5 54 -34.5zM525 740h111l-260 -740h-111z" />
    <glyph glyph-name="ampersand" unicode="&#x26;" horiz-adv-x="641" 
d="M285 -10c-38 0 -72.5 5.00098 -103.5 15.001s-57.333 24.333 -79 43s-38.334 41.167 -50.001 67.5s-17.5 56.166 -17.5 89.499c0 46.667 10.833 86.5 32.5 119.5s52.167 56.167 91.5 69.5c-23.333 28.667 -40 56.5 -50 83.5s-15 55.5 -15 85.5
c0 60.667 19 107.167 57 139.5s93 48.5 165 48.5c27.333 0 54.333 -2.5 81 -7.5s55.667 -13.167 87 -24.5v-4l-16 -106h-4c-23.333 9.33301 -47.166 16.666 -71.499 21.999s-46.166 8 -65.499 8c-66 0 -99 -31.667 -99 -95c0 -33.333 12.833 -65.833 38.5 -97.5
s67.167 -66.5 124.5 -104.5l63 -42c0.666992 6.66699 1 13.334 1 20.001v21v71l119 8v-77c0 -21.333 -1 -41.5 -3 -60.5s-4.66699 -37.167 -8 -54.5l77 -51v-5l-50 -115h-5l-69 50c-24.667 -38 -56.334 -67 -95.001 -87s-84 -30 -136 -30zM343 234.001
c-44 32 -81.332 61.333 -111.999 88c-40 -20 -60 -56 -60 -108c0 -35.333 11.167 -63.333 33.5 -84s52.166 -31 89.499 -31c62 0 105.667 25 131 75z" />
    <glyph glyph-name="quotesingle" unicode="'" horiz-adv-x="188" 
d="M157 808v-4l-37 -324h-72v328h109z" />
    <glyph glyph-name="parenleft" unicode="(" horiz-adv-x="305" 
d="M181 -160c-50.667 74.667 -88.834 156 -114.501 244s-38.5 178 -38.5 270c0 92.667 12.833 182.834 38.5 270.501s63.834 168.834 114.501 243.501h120v-4c-50 -74.667 -89.333 -155.334 -118 -242.001s-43 -176 -43 -268s14.333 -181.333 43 -268
s68 -167.334 118 -242.001v-4h-120v0z" />
    <glyph glyph-name="parenright" unicode=")" horiz-adv-x="305" 
d="M5 -160v4c50 74.667 89.167 155.334 117.5 242.001s42.5 176 42.5 268s-14.167 181.333 -42.5 268s-67.5 167.334 -117.5 242.001v4h119c50.667 -74.667 88.834 -155.834 114.501 -243.501s38.5 -177.834 38.5 -270.501c0 -92 -12.833 -182 -38.5 -270
s-63.834 -169.333 -114.501 -244h-119z" />
    <glyph glyph-name="asterisk" unicode="*" horiz-adv-x="485" 
d="M81 482l45 62l82 71l-108 10l-72 24l28 85l72 -24l94 -56l-24 108v76h90v-76l-25 -108l93 56l73 24l27 -85l-72 -24l-108 -10l82 -71l45 -62l-72 -52l-46 61l-43 103l-43 -103l-45 -61z" />
    <glyph glyph-name="plus" unicode="+" horiz-adv-x="499" 
d="M32 420h168v162h100v-162h168v-100h-168v-162h-100v162h-168v100z" />
    <glyph glyph-name="comma" unicode="," horiz-adv-x="235" 
d="M14 -145l43 288h139l-80 -298z" />
    <glyph glyph-name="hyphen" unicode="-" horiz-adv-x="379" 
d="M47 331h285v-102h-285v102z" />
    <glyph glyph-name="period" unicode="." horiz-adv-x="231" 
d="M115 -6c-27.333 0 -47.167 6 -59.5 18s-18.5 31.333 -18.5 58s6 46 18 58s32 18 60 18c27.333 0 47.333 -6 60 -18s19 -31.333 19 -58c0 -26 -6.16699 -45.167 -18.5 -57.5s-32.5 -18.5 -60.5 -18.5z" />
    <glyph glyph-name="slash" unicode="/" horiz-adv-x="325" 
d="M183 740h119l-160 -860h-119z" />
    <glyph glyph-name="zero" unicode="0" horiz-adv-x="586" 
d="M293 -10c-84 0 -147.833 32.167 -191.5 96.5s-65.5 158.5 -65.5 282.5c0 124.667 21.833 219.334 65.5 284.001s107.5 97 191.5 97c84.667 0 148.5 -32.333 191.5 -97s64.5 -159.334 64.5 -284.001c0 -124 -21.5 -218.167 -64.5 -282.5s-106.833 -96.5 -191.5 -96.5z
M293 107c41.333 0 71 20.5 89 61.5s27 107.833 27 200.5c0 93.333 -9 160.833 -27 202.5s-47.667 62.5 -89 62.5s-71 -21.167 -89 -63.5s-27 -109.5 -27 -201.5s9 -158.667 27 -200s47.667 -62 89 -62z" />
    <glyph glyph-name="one" unicode="1" horiz-adv-x="382" 
d="M171 586h-4l-118 -61h-18l-24 65l4 18l197 132h103v-740h-140v586z" />
    <glyph glyph-name="two" unicode="2" horiz-adv-x="485" 
d="M32 121c0 29.333 2.99707 56.0039 8.99707 80.0039s15.5 46.5 28.5 67.5s30.167 41 51.5 60s47.333 38.167 78 57.5c20 12.667 37 25 51 37s25.333 24 34 36s14.834 24.333 18.501 37s5.5 26.334 5.5 41.001c0 33.333 -9.33301 57.666 -28 72.999s-48.667 23 -90 23
c-18.667 0 -39.167 -1.83301 -61.5 -5.5s-45.166 -9.16699 -68.499 -16.5l-13 112c34.667 9.33301 67.667 16.166 99 20.499s60.333 6.5 87 6.5c143.333 0 215 -65.333 215 -196c0 -49.333 -11.833 -92.833 -35.5 -130.5s-62.167 -74.834 -115.5 -111.501
c-26 -18.667 -47.333 -34.834 -64 -48.501s-29.667 -26.334 -39 -38.001s-15.666 -23.167 -18.999 -34.5s-5 -24 -5 -38v-35h274v-118h-412v121z" />
    <glyph glyph-name="three" unicode="3" horiz-adv-x="458" 
d="M167 -9c-40.667 0 -83.6709 4.33301 -129.004 13v106h6c12.667 -4.66699 27.834 -8.16699 45.501 -10.5s36.167 -3.5 55.5 -3.5c48 0 83 9 105 27s33 46.333 33 85c0 42 -11.167 72.667 -33.5 92s-61.166 29 -116.499 29h-28v99h28c47.333 0 80.833 8.33301 100.5 25
s29.5 45 29.5 85c0 36.667 -8.5 63.334 -25.5 80.001s-44.5 25 -82.5 25c-14.667 0 -30.667 -1 -48 -3s-37.666 -5.66699 -60.999 -11h-7l-3 106c40.667 10.667 84.334 16 131.001 16c80.667 0 140.167 -15 178.5 -45s57.5 -76.333 57.5 -139
c0 -50 -10.5 -90.333 -31.5 -121s-51.5 -51.334 -91.5 -62.001v-3c46 -10 81.333 -30.5 106 -61.5s37 -71.5 37 -121.5c0 -64.667 -22.167 -115 -66.5 -151s-107.5 -54.667 -189.5 -56z" />
    <glyph glyph-name="four" unicode="4" horiz-adv-x="537" 
d="M11 243v4l237 503h5l133 -10l6 -4l-239 -468v-5h158l33 218h103v-218h72v-103h-72v-160h-140v160h-279z" />
    <glyph glyph-name="five" unicode="5" horiz-adv-x="458" 
d="M171 -11c-18.667 0 -38.332 1.16797 -58.999 3.50098s-45 6.16602 -73 11.499v113h30c34 -8 64.333 -12 91 -12c87.333 0 131 39 131 117c0 22.667 -3 41.834 -9 57.501s-15.833 28.167 -29.5 37.5s-31.834 16.166 -54.501 20.499s-50.667 6.5 -84 6.5h-65l-4 4l26 392
h318v-117h-210l-11 -179c93.333 -1.33301 160.666 -19.5 201.999 -54.5s62 -90.833 62 -167.5c0 -74 -22.667 -131.333 -68 -172s-109.666 -61 -192.999 -61z" />
    <glyph glyph-name="six" unicode="6" horiz-adv-x="549" 
d="M284 -10c-80.667 0 -142.166 28.999 -184.499 86.999s-63.5 143 -63.5 255c0 137.333 27 241.333 81 312s133.667 106 239 106c38.667 0 81.667 -6 129 -18l-15 -111c-43.333 10.667 -79.666 16 -108.999 16c-58.667 0 -102.834 -18 -132.501 -54
s-48.167 -93.333 -55.5 -172c18 17.333 39.167 31 63.5 41s50.5 15 78.5 15c32 0 60.833 -5.16699 86.5 -15.5s47.667 -25.166 66 -44.499s32.333 -42.5 42 -69.5s14.5 -57.5 14.5 -91.5c0 -39.333 -5.5 -74.833 -16.5 -106.5s-27 -58.5 -48 -80.5s-46.333 -39 -76 -51
s-62.834 -18 -99.501 -18zM284.001 363.999c-21.333 0 -42.332 -5 -62.999 -15s-37.667 -22.667 -51 -38c1.33301 -71.333 11.166 -123.333 29.499 -156s46.5 -49 84.5 -49c34 0 59.667 11.667 77 35s26 57 26 101c0 81.333 -34.333 122 -103 122z" />
    <glyph glyph-name="seven" unicode="7" horiz-adv-x="428" 
d="M188 -17l-114 17v18l205 605h-261l-1 100l18 17h364l18 -79v-28l-204 -632z" />
    <glyph glyph-name="eight" unicode="8" horiz-adv-x="537" 
d="M268 -3c-72.667 0 -129.664 16.335 -170.997 49.002s-62 78 -62 136c0 44.667 8.66699 82.667 26 114s44.666 57.666 81.999 78.999c-26.667 17.333 -48.334 40 -65.001 68s-25 65 -25 111c0 30 5.16699 57 15.5 81s24.833 44.5 43.5 61.5s41.167 30 67.5 39
s55.833 13.5 88.5 13.5s62.334 -4.5 89.001 -13.5s49.5 -22 68.5 -39s33.5 -37.5 43.5 -61.5s15 -51 15 -81c0 -39.333 -6.33301 -71.666 -19 -96.999s-35.334 -48.333 -68.001 -69c31.333 -16.667 56.666 -39 75.999 -67s29 -67 29 -117c0 -32 -5.33301 -60.833 -16 -86.5
s-26.167 -47.334 -46.5 -65.001s-45 -31.334 -74 -41.001s-61.5 -14.5 -97.5 -14.5zM373.003 191.002c0 20 -3 37.167 -9 51.5s-14.833 26.833 -26.5 37.5s-25.5 20 -41.5 28s-34 15.333 -54 22c-25.333 -15.333 -44.666 -33.333 -57.999 -54s-20 -46 -20 -76
c0 -35.333 9.16699 -62.833 27.5 -82.5s43.833 -29.5 76.5 -29.5c33.333 0 59.166 9 77.499 27s27.5 43.333 27.5 76zM177.003 546.002c0 -33.333 10.667 -58.667 32 -76s50 -32 86 -44c23.333 15.333 40 32.833 50 52.5s15 44.834 15 75.501c0 66.667 -30.667 100 -92 100
c-29.333 0 -51.833 -9.33301 -67.5 -28s-23.5 -45.334 -23.5 -80.001z" />
    <glyph glyph-name="nine" unicode="9" horiz-adv-x="549" 
d="M265 750c80.667 0 142.168 -28.999 184.501 -86.999s63.5 -143 63.5 -255c0 -137.333 -27 -241.333 -81 -312s-133.667 -106 -239 -106c-39.333 0 -82.333 6 -129 18l15 111c43.333 -10.667 79.666 -16 108.999 -16c58.667 0 102.834 18 132.501 54
s48.167 93.333 55.5 172c-18 -17.333 -39.167 -31 -63.5 -41s-50.5 -15 -78.5 -15c-32 0 -60.833 5.16699 -86.5 15.5s-47.667 25.166 -66 44.499s-32.333 42.5 -42 69.5s-14.5 57.5 -14.5 91.5c0 39.333 5.5 74.833 16.5 106.5s27 58.5 48 80.5s46.167 39 75.5 51
s62.666 18 99.999 18zM265.001 376.001c21.333 0 42.332 5 62.999 15s37.667 22.667 51 38c-1.33301 71.333 -11.166 123.333 -29.499 156s-46.5 49 -84.5 49c-34 0 -59.667 -11.667 -77 -35s-26 -57 -26 -101c0 -81.333 34.333 -122 103 -122z" />
    <glyph glyph-name="colon" unicode=":" horiz-adv-x="245" 
d="M122 -6c-27.333 0 -47.167 6 -59.5 18s-18.5 31.333 -18.5 58s6 46 18 58s32 18 60 18c27.333 0 47.333 -6 60 -18s19 -31.333 19 -58c0 -26 -6.16699 -45.167 -18.5 -57.5s-32.5 -18.5 -60.5 -18.5zM121.999 395c-27.333 0 -47.167 6 -59.5 18s-18.5 31.333 -18.5 58
s6 46 18 58s32 18 60 18c27.333 0 47.333 -6 60 -18s19 -31.333 19 -58c0 -26 -6.16699 -45.167 -18.5 -57.5s-32.5 -18.5 -60.5 -18.5z" />
    <glyph glyph-name="semicolon" unicode=";" horiz-adv-x="257" 
d="M23 -145l43 288h139l-80 -298zM133 395c-27.333 0 -47.167 6 -59.5 18s-18.5 31.333 -18.5 58s6 46 18 58s32 18 60 18c27.333 0 47.333 -6 60 -18s19 -31.333 19 -58c0 -26 -6.16699 -45.167 -18.5 -57.5s-32.5 -18.5 -60.5 -18.5z" />
    <glyph glyph-name="less" unicode="&#x3c;" horiz-adv-x="525" 
d="M30 316v97l443 192v-110l-303 -131l302 -131v-109z" />
    <glyph glyph-name="equal" unicode="=" horiz-adv-x="517" 
d="M50 293h417v-103h-417v103zM50 512h417v-103h-417v103z" />
    <glyph glyph-name="greater" unicode="&#x3e;" horiz-adv-x="525" 
d="M53 233l302 131l-303 131v110l443 -192v-97l-442 -192v109z" />
    <glyph glyph-name="question" unicode="?" horiz-adv-x="416" 
d="M116 230l-12 182c22 4.66699 42.167 10.334 60.5 17.001s34.166 15 47.499 25s23.833 21.833 31.5 35.5s11.5 30.5 11.5 50.5c0 36 -10.167 61.5 -30.5 76.5s-46.166 22.5 -77.499 22.5c-18 0 -37.5 -1.66699 -58.5 -5s-39.167 -7.66602 -54.5 -12.999l-8 105
c23.333 7.33301 47.166 12.833 71.499 16.5s49.5 5.5 75.5 5.5c32 0 61.5 -4 88.5 -12s50 -20 69 -36s33.833 -36.333 44.5 -61s16 -54 16 -88c0 -30 -4.66699 -56.333 -14 -79s-22.166 -42.334 -38.499 -59.001s-35.5 -30.334 -57.5 -41.001s-45.667 -18.667 -71 -24
l-6 -117v-16h-88v15zM162 -6c-25.333 0 -45 6.66699 -59 20s-21 32 -21 56c0 24.667 7 43.5 21 56.5s33.667 19.5 59 19.5s45 -6.5 59 -19.5s21 -31.833 21 -56.5c0 -24 -7 -42.667 -21 -56s-33.667 -20 -59 -20z" />
    <glyph glyph-name="at" unicode="@" horiz-adv-x="802" 
d="M392 -138c-44 0 -87.499 6.66992 -130.499 20.0029s-81.5 35.5 -115.5 66.5s-61.333 72.167 -82 123.5s-31 114.666 -31 189.999c0 68 9.5 128 28.5 180s45.5 95.333 79.5 130s74.333 60.834 121 78.501s98 26.5 154 26.5c62.667 0 115.834 -8.83301 159.501 -26.5
s79.334 -42.5 107.001 -74.5s47.834 -70.833 60.501 -116.5s19 -96.5 19 -152.5c0 -39.333 -3.66699 -74.833 -11 -106.5s-18.166 -58.834 -32.499 -81.501s-32.5 -40.167 -54.5 -52.5s-47.667 -18.5 -77 -18.5c-12 0 -23.5 1.16699 -34.5 3.5s-21 6.5 -30 12.5
s-16.667 14.667 -23 26s-10.833 26 -13.5 44h-4c-18.667 -30 -40.834 -50.833 -66.501 -62.5s-50.5 -17.5 -74.5 -17.5c-24.667 0 -45.667 4.83301 -63 14.5s-31.5 22.667 -42.5 39s-19 35.166 -24 56.499s-7.5 43.666 -7.5 66.999c0 38 5.33301 73 16 105s26 59.667 46 83
s44.167 41.5 72.5 54.5s60.5 19.5 96.5 19.5c39.333 0 91 -13 155 -39l-35 -206l-6 -35c-2 -12 -3 -23.667 -3 -35c0 -16 3 -29.5 9 -40.5s18 -16.5 36 -16.5c27.333 0 47.833 16.833 61.5 50.5s20.5 78.834 20.5 135.501c0 44 -4.5 83.667 -13.5 119
s-23.833 65.5 -44.5 90.5s-47.334 44.333 -80.001 58s-72.334 20.5 -119.001 20.5c-43.333 0 -83 -7 -119 -21s-67 -35 -93 -63s-46.167 -62.833 -60.5 -104.5s-21.5 -89.834 -21.5 -144.501c0 -61.333 7.83301 -112.666 23.5 -153.999s36.167 -74.5 61.5 -99.5
s54.166 -42.833 86.499 -53.5s65.166 -16 98.499 -16c28 0 58.167 3.66699 90.5 11s64.833 16.666 97.5 27.999l28 -72c-36 -12 -72.5 -22.333 -109.5 -31s-72.5 -13 -106.5 -13zM357.001 131.003c9.33301 0 19.832 1.83203 31.499 5.49902s22.834 10.5 33.501 20.5
s20.5 23.5 29.5 40.5s15.5 38.5 19.5 64.5l24 145c-11.333 4 -21.833 6.66699 -31.5 8s-19.167 2 -28.5 2c-22.667 0 -42.834 -4.66699 -60.501 -14s-32.667 -22.166 -45 -38.499s-21.833 -36 -28.5 -59s-10 -47.833 -10 -74.5c0 -12.667 1 -25 3 -37s5.5 -22.667 10.5 -32
s11.833 -16.833 20.5 -22.5s19.334 -8.5 32.001 -8.5z" />
    <glyph glyph-name="A" unicode="A" horiz-adv-x="602" 
d="M1 7l194 733h211l195 -733v-7h-132l-52 190h-233l-51 -190h-132v7zM390 303l-58 220l-26 109h-10l-27 -109l-58 -220h179z" />
    <glyph glyph-name="B" unicode="B" horiz-adv-x="582" 
d="M254 -10c-31.333 0 -64.4971 1.16895 -99.4971 3.50195s-66.167 6.16602 -93.5 11.499v730c43.333 5.33301 80.166 9.16602 110.499 11.499s59.166 3.5 86.499 3.5c95.333 0 165 -16.667 209 -50s66 -85.666 66 -156.999c0 -88.667 -36.333 -142.334 -109 -161.001v-4
c41.333 -8 73.166 -27.167 95.499 -57.5s33.5 -70.5 33.5 -120.5c0 -70 -25 -122.5 -75 -157.5s-124.667 -52.5 -224 -52.5zM276.003 98.002c88.667 0 133.002 36.666 133.002 109.999c0 40.667 -10.833 69.5 -32.5 86.5s-58.5 25.5 -110.5 25.5h-76v-216
c7.33301 -1.33301 19.166 -2.66602 35.499 -3.99902s33.166 -2 50.499 -2zM265.005 423.001c22.667 0 42.001 2 58.001 6s28.667 10.333 38 19s16.166 20 20.499 34s6.5 31.333 6.5 52c0 71.333 -38.667 107 -116 107c-13.333 0 -26.5 -0.5 -39.5 -1.5
s-27.167 -2.5 -42.5 -4.5v-212h75z" />
    <glyph glyph-name="C" unicode="C" horiz-adv-x="499" 
d="M338 -9c-102.667 0 -179 30.501 -229 91.501s-75 156.833 -75 287.5c0 131.333 25.167 227.333 75.5 288s126.166 91 227.499 91c42 0 87 -5 135 -15v-112c-18 3.33301 -37.167 5.83301 -57.5 7.5s-39.166 2.5 -56.499 2.5c-33.333 0 -61.333 -4 -84 -12
s-41.167 -22 -55.5 -42s-24.666 -46.833 -30.999 -80.5s-9.5 -76.5 -9.5 -128.5c0 -50.667 3.33301 -92.834 10 -126.501s17 -60.5 31 -80.5s32.333 -34.167 55 -42.5s50 -12.5 82 -12.5c18 0 37.167 1 57.5 3s39.833 5 58.5 9v-109
c-14.667 -5.33301 -33.834 -9.83301 -57.501 -13.5s-49.167 -5.5 -76.5 -5.5z" />
    <glyph glyph-name="D" unicode="D" horiz-adv-x="622" 
d="M224 -14c-22.667 0 -46.833 0.833984 -72.5 2.50098s-55.834 4.16699 -90.501 7.5v741c40 4.66699 73.833 7.83398 101.5 9.50098s53.5 2.5 77.5 2.5c62.667 0 116.167 -7 160.5 -21s80.5 -36.333 108.5 -67s48.333 -70 61 -118s19 -106 19 -174
c0 -68.667 -6.66699 -127.334 -20 -176.001s-34.666 -88.334 -63.999 -119.001s-67 -53 -113 -67s-102 -21 -168 -21zM270.001 101.001c32 0 59.1641 4.50098 81.4971 13.501s40.333 23.833 54 44.5s23.667 48.167 30 82.5s9.5 77.166 9.5 128.499c0 50 -3 92 -9 126
s-16.167 61.333 -30.5 82s-33.166 35.5 -56.499 44.5s-52 13.5 -86 13.5c-13.333 0 -25.166 -0.5 -35.499 -1.5s-20.166 -2.5 -29.499 -4.5v-524c16.667 -2 30.5 -3.33301 41.5 -4s21.167 -1 30.5 -1z" />
    <glyph glyph-name="E" unicode="E" horiz-adv-x="533" 
d="M61 740h432v-118h-292v-191h260v-118h-260v-195h301v-118h-441v740z" />
    <glyph glyph-name="F" unicode="F" horiz-adv-x="504" 
d="M61 740h419v-118h-279v-204h253v-118h-253v-300h-140v740z" />
    <glyph glyph-name="G" unicode="G" horiz-adv-x="578" 
d="M338 -9c-104.667 0 -181.667 30.832 -231 92.499s-74 157.167 -74 286.5c0 128.667 27.5 224 82.5 286s139.5 93 253.5 93c22.667 0 47.5 -1.66699 74.5 -5s54.5 -8.33301 82.5 -15v-113c-30 5.33301 -56.5 9.5 -79.5 12.5s-44.167 4.5 -63.5 4.5
c-38 0 -70.167 -4.5 -96.5 -13.5s-47.666 -23.833 -63.999 -44.5s-28 -47.834 -35 -81.501s-10.5 -75.167 -10.5 -124.5s3.16699 -90.666 9.5 -123.999s16.5 -60.166 30.5 -80.499s32.333 -35 55 -44s50.667 -13.5 84 -13.5c8 0 16.167 0.166992 24.5 0.5
s17.166 0.833008 26.499 1.5v267h127v-369c-44 -6 -80.833 -10.167 -110.5 -12.5s-58.167 -3.5 -85.5 -3.5z" />
    <glyph glyph-name="H" unicode="H" horiz-adv-x="660" 
d="M61 740h140v-303h258v303h140v-740h-140v318h-258v-318h-140v740z" />
    <glyph glyph-name="I" unicode="I" horiz-adv-x="261" 
d="M61 740h140v-740h-140v740z" />
    <glyph glyph-name="J" unicode="J" horiz-adv-x="262" 
d="M-15 -160c15.333 34 27.999 65 37.999 93s18 55.5 24 82.5s10.167 54.5 12.5 82.5s3.5 59.333 3.5 94v548h140v-560c0 -33.333 -2.33301 -65.333 -7 -96s-12.167 -61.167 -22.5 -91.5s-23.666 -61.333 -39.999 -93s-36.5 -65.167 -60.5 -100.5z" />
    <glyph glyph-name="K" unicode="K" horiz-adv-x="605" 
d="M61 740h140v-303h76l157 303h156l-177 -333l-49 -27v-6l50 -26l196 -348h-156l-181 318h-72v-318h-140v740z" />
    <glyph glyph-name="L" unicode="L" horiz-adv-x="448" 
d="M61 740h140v-622h235v-118h-375v740z" />
    <glyph glyph-name="M" unicode="M" horiz-adv-x="852" 
d="M61 740h199l137 -410l25 -117h7l26 117l137 410h200v-740h-132v559h-6l-33 -119l-136 -403h-121l-135 403l-34 119h-5v-559h-129v740z" />
    <glyph glyph-name="N" unicode="N" horiz-adv-x="672" 
d="M61 740h119l259 -414l40 -80h8v494h125v-740h-119l-260 415l-39 81h-9v-496h-124v740z" />
    <glyph glyph-name="O" unicode="O" horiz-adv-x="653" 
d="M326 -10c-98.667 0 -171.999 31.167 -219.999 93.5s-72 157.5 -72 285.5c0 128.667 24 224.334 72 287.001s121.333 94 220 94c99.333 0 173.166 -31.333 221.499 -94s72.5 -158.334 72.5 -287.001s-24 -224 -72 -286s-122 -93 -222 -93zM326.001 107
c27.333 0 50.5 4.66602 69.5 13.999s34.5 24.5 46.5 45.5s20.667 48 26 81s8 73.5 8 121.5s-2.66699 88.833 -8 122.5s-14 61 -26 82s-27.5 36.333 -46.5 46s-42.167 14.5 -69.5 14.5c-26.667 0 -49.5 -4.83301 -68.5 -14.5s-34.5 -25 -46.5 -46s-20.667 -48.333 -26 -82
s-8 -74.5 -8 -122.5c0 -47.333 2.66699 -87.666 8 -120.999s14 -60.5 26 -81.5s27.333 -36.167 46 -45.5s41.667 -14 69 -14z" />
    <glyph glyph-name="P" unicode="P" horiz-adv-x="572" 
d="M61 735c30 5.33301 60.001 9.16602 90.001 11.499s59.667 3.5 89 3.5c108.667 0 187.667 -20.667 237 -62s74 -107.666 74 -198.999c0 -90 -24.333 -155.5 -73 -196.5s-126.334 -61.5 -233.001 -61.5h-44v-231h-140v735zM262.001 344c26.667 0 49.333 2.49902 68 7.49902
s33.667 13.333 45 25s19.666 26.667 24.999 45s8 40.833 8 67.5c0 52.667 -10.833 90.167 -32.5 112.5s-59.5 33.5 -113.5 33.5c-9.33301 0 -19.666 -0.666992 -30.999 -2s-21.333 -2.66602 -30 -3.99902v-281c9.33301 -1.33301 19.5 -2.33301 30.5 -3s21.167 -1 30.5 -1z
" />
    <glyph glyph-name="Q" unicode="Q" horiz-adv-x="650" 
d="M554 -130c-97.333 23.333 -179.332 48.501 -245.999 75.501s-120.5 59.333 -161.5 97s-70.333 82.667 -88 135s-26.5 116.166 -26.5 191.499c0 128.667 23.833 224.334 71.5 287.001s121.167 94 220.5 94c100 0 174 -31.333 222 -94s72 -158.334 72 -287.001
c0 -98 -19 -174.5 -57 -229.5s-96.333 -90.833 -175 -107.5v-12c16.667 -6 33.5 -11 50.5 -15s35.333 -7.66699 55 -11s41.167 -6 64.5 -8s49.666 -4 78.999 -6zM324.001 104.001c28 0 51.6689 4.66602 71.002 13.999s35.166 24.5 47.499 45.5s21.166 48.333 26.499 82
s8 74.834 8 123.501c0 49.333 -2.66699 91 -8 125s-14 61.667 -26 83s-27.833 36.666 -47.5 45.999s-43.5 14 -71.5 14s-51.667 -4.66699 -71 -14s-34.833 -24.5 -46.5 -45.5s-20.167 -48.667 -25.5 -83s-8 -76.166 -8 -125.499s2.66699 -90.833 8 -124.5
s13.833 -61 25.5 -82s27.167 -36 46.5 -45s43 -13.5 71 -13.5z" />
    <glyph glyph-name="R" unicode="R" horiz-adv-x="584" 
d="M303 259c-7.33301 -0.666992 -14.668 -1.00195 -22.001 -1.00195h-23h-12h-16.5c-5.66699 0 -11.167 0.166992 -16.5 0.5s-9.33301 0.5 -12 0.5v-259h-140v735c54.667 10 114.334 15 179.001 15c108.667 0 187.667 -19.667 237 -59s74 -102.666 74 -189.999
c0 -55.333 -10 -100.666 -30 -135.999s-51 -62 -93 -80l141 -285h-145zM261.998 366.998c26.667 0 49.335 2.33105 68.002 6.99805s33.667 12.334 45 23.001s19.666 24.5 24.999 41.5s8 37.833 8 62.5c0 48.667 -10.833 83.167 -32.5 103.5s-59.5 30.5 -113.5 30.5
c-7.33301 0 -16.833 -0.666992 -28.5 -2s-22.5 -2.66602 -32.5 -3.99902v-258c9.33301 -1.33301 19.666 -2.33301 30.999 -3s21.333 -1 30 -1z" />
    <glyph glyph-name="S" unicode="S" horiz-adv-x="500" 
d="M241 -12c-32.667 0 -67 2.99902 -103 8.99902s-72 15.333 -108 28l3 118c10.667 -5.33301 23.667 -10.166 39 -14.499s31.333 -8.33301 48 -12s33.334 -6.5 50.001 -8.5s32 -3 46 -3c40 0 70.167 8.5 90.5 25.5s30.5 41.5 30.5 73.5c0 15.333 -3 28.5 -9 39.5
s-14.833 20.667 -26.5 29s-25.5 15.833 -41.5 22.5s-34 13.667 -54 21c-24 8.66699 -46.167 18.334 -66.5 29.001s-38.166 24.334 -53.499 41.001s-27.333 37.334 -36 62.001s-13 55.667 -13 93c0 32 5.5 61 16.5 87s26.667 48 47 66s45.166 31.833 74.499 41.5
s62.666 14.5 99.999 14.5c28 0 56 -2 84 -6s57 -10.667 87 -20l-2 -113c-27.333 7.33301 -55.5 13.166 -84.5 17.499s-53.167 6.5 -72.5 6.5c-35.333 0 -62.333 -8.16699 -81 -24.5s-28 -39.5 -28 -69.5c0 -16 3.33301 -29.667 10 -41s16.167 -21.333 28.5 -30
s27 -16.667 44 -24s35.833 -15 56.5 -23c24 -9.33301 45.833 -19.833 65.5 -31.5s36.5 -25.834 50.5 -42.501s24.833 -36.334 32.5 -59.001s11.5 -50 11.5 -82c0 -34 -5.5 -64.667 -16.5 -92s-26.667 -50.5 -47 -69.5s-45 -33.5 -74 -43.5s-61.833 -15 -98.5 -15z" />
    <glyph glyph-name="T" unicode="T" horiz-adv-x="519" 
d="M189 619h-173v121h488v-121h-175v-619h-140v619z" />
    <glyph glyph-name="U" unicode="U" horiz-adv-x="655" 
d="M327 -10c-49.333 0 -91.3311 5.99805 -125.998 17.998s-62.834 30.167 -84.501 54.5s-37.334 55 -47.001 92s-14.5 80.5 -14.5 130.5v454h140v-445c0 -66.667 10.167 -114.167 30.5 -142.5s54.166 -42.5 101.499 -42.5c24 0 44.333 3.33301 61 10
s30.334 17.334 41.001 32.001s18.334 33.834 23.001 57.501s7 52.167 7 85.5v445h140v-454c0 -50 -4.83301 -93.5 -14.5 -130.5s-25.334 -67.667 -47.001 -92s-49.667 -42.5 -84 -54.5s-76.5 -18 -126.5 -18z" />
    <glyph glyph-name="V" unicode="V" horiz-adv-x="603" 
d="M-1 740h138l130 -467l29 -148h12l31 148l129 467h135l-204 -740h-193z" />
    <glyph glyph-name="W" unicode="W" horiz-adv-x="916" 
d="M6 740h155l84 -465l15 -102h9l18 102l105 465h139l100 -465l17 -102h10l16 102l88 465h151l-174 -740h-165l-96 416l-14 124h-9l-15 -124l-100 -416h-165z" />
    <glyph glyph-name="X" unicode="X" horiz-adv-x="608" 
d="M214 379l-204 361h158l135 -249l5 -17h3l5 17l132 249h150l-206 -353l223 -387h-155l-155 273l-5 16h-4l-5 -16l-147 -273h-151z" />
    <glyph glyph-name="Y" unicode="Y" horiz-adv-x="616" 
d="M238 251l-245 489h158l137 -303l16 -53h9l17 53l138 303h154l-243 -487v-253h-141v251z" />
    <glyph glyph-name="Z" unicode="Z" horiz-adv-x="523" 
d="M25 126l303 486v9h-290v119h447v-127l-304 -486v-8h317v-119h-473v126z" />
    <glyph glyph-name="bracketleft" unicode="[" horiz-adv-x="325" 
d="M64 868h240v-91h-132v-846h132v-91h-240v1028z" />
    <glyph glyph-name="backslash" unicode="\" horiz-adv-x="323" 
d="M23 740h116l160 -860h-116z" />
    <glyph glyph-name="bracketright" unicode="]" horiz-adv-x="325" 
d="M20 -160v91h133v846h-133v91h241v-1028h-241z" />
    <glyph glyph-name="asciicircum" unicode="^" horiz-adv-x="404" 
d="M142 789h119l113 -308h-97l-73 221h-4l-74 -221h-97z" />
    <glyph glyph-name="underscore" unicode="_" horiz-adv-x="523" 
d="M35 -60h452v-102h-452v102z" />
    <glyph glyph-name="grave" unicode="`" horiz-adv-x="259" 
d="M126 610l-111 195h141l67 -185z" />
    <glyph glyph-name="a" unicode="a" horiz-adv-x="490" 
d="M164 -5c-43.333 0 -78.0039 14.168 -104.004 42.501s-39 65.833 -39 112.5c0 102.667 64 158.667 192 168l92 6v17c0 20.667 -1.33301 37.667 -4 51s-7.5 24 -14.5 32s-16.5 13.5 -28.5 16.5s-27 4.5 -45 4.5c-7.33301 0 -17.166 -0.5 -29.499 -1.5
s-25.333 -2.16699 -39 -3.5s-27 -2.83301 -40 -4.5s-23.833 -3.5 -32.5 -5.5l-9 100c28.667 5.33301 57.834 9.66602 87.501 12.999s57.5 5 83.5 5c72.667 0 125.5 -13.5 158.5 -40.5s49.5 -70.5 49.5 -130.5v-377h-113l-11 65h-8
c-17.333 -19.333 -38.666 -35.833 -63.999 -49.5s-52.666 -20.5 -81.999 -20.5zM214.996 96.001c14.667 0 30.167 4.49902 46.5 13.499s30.833 17.833 43.5 26.5v104l-62 -6c-31.333 -3.33301 -53.5 -10.5 -66.5 -21.5s-19.5 -27.833 -19.5 -50.5
c0 -21.333 5 -37.666 15 -48.999s24.333 -17 43 -17z" />
    <glyph glyph-name="b" unicode="b" horiz-adv-x="524" 
d="M243 -9c-29.333 0 -59.999 3.16699 -91.999 9.5s-65.667 15.166 -101 26.499v781h137v-322c15.333 20.667 34.666 36.334 57.999 47.001s49 16 77 16c114.667 0 172 -87.333 172 -262c0 -43.333 -4.5 -82.833 -13.5 -118.5s-23.333 -66.5 -43 -92.5
s-45.5 -46.333 -77.5 -61s-71 -22.667 -117 -24zM247.001 83c19.333 0 35.832 3.16895 49.499 9.50195s24.667 16.833 33 31.5s14.5 34 18.5 58s6 53.667 6 89c0 34 -1.5 62.5 -4.5 85.5s-7.66699 41.5 -14 55.5s-14.833 24 -25.5 30s-23.334 9 -38.001 9
c-13.333 0 -25.166 -2.83301 -35.499 -8.5s-19.166 -14.834 -26.499 -27.501s-13 -29.334 -17 -50.001s-6 -46 -6 -76v-195c18.667 -7.33301 38.667 -11 60 -11z" />
    <glyph glyph-name="c" unicode="c" horiz-adv-x="411" 
d="M281 -9c-84 0 -146.832 22.333 -188.499 67s-62.5 115.334 -62.5 212.001c0 96 21 166.5 63 211.5s104.667 67.5 188 67.5c34 0 67 -5 99 -15v-108c-16 4 -31 6.83301 -45 8.5s-27.333 2.5 -40 2.5c-44 0 -75.667 -12.833 -95 -38.5s-29 -68.167 -29 -127.5
s9.66699 -102.333 29 -129s50.666 -40 93.999 -40c14 0 28 0.833008 42 2.5s28.667 4.5 44 8.5v-107c-13.333 -4.66699 -28.833 -8.33398 -46.5 -11.001s-35.167 -4 -52.5 -4z" />
    <glyph glyph-name="d" unicode="d" horiz-adv-x="525" 
d="M204 -9c-115.333 0 -173 88.333 -173 265c0 97.333 20.667 170.5 62 219.5s103.333 73.5 186 73.5c8 0 16.333 -0.333008 25 -1s20 -2 34 -4v264h136v-808h-125l-8 54h-4c-32 -42 -76.333 -63 -133 -63zM252 89c13.333 0 25.333 2.8291 36 8.49609
s19.667 14.834 27 27.501s13 29.334 17 50.001s6 46 6 76v194c-19.333 7.33301 -40.333 11 -63 11c-18.667 0 -34.667 -3.16699 -48 -9.5s-24.166 -16.666 -32.499 -30.999s-14.333 -33.166 -18 -56.499s-5.5 -52.333 -5.5 -87c0 -34 1.5 -62.5 4.5 -85.5
s7.66699 -41.833 14 -56.5s14.666 -25.167 24.999 -31.5s22.833 -9.5 37.5 -9.5z" />
    <glyph glyph-name="e" unicode="e" horiz-adv-x="483" 
d="M264 -9c-76.667 0 -134.83 22.999 -174.497 68.999s-59.5 113.667 -59.5 203c0 94.667 19.5 166 58.5 214s97.167 72 174.5 72c65.333 0 113.5 -20.333 144.5 -61s46.5 -103.667 46.5 -189c0 -18.667 -0.333008 -33.167 -1 -43.5s-1.66699 -21.166 -3 -32.499h-282
c3.33301 -48 12.666 -81.167 27.999 -99.5s40.666 -27.5 75.999 -27.5c19.333 0 42.666 2.33301 69.999 7s56.666 11.667 87.999 21l5 -102c-23.333 -9.33301 -50.666 -16.833 -81.999 -22.5s-61 -8.5 -89 -8.5zM259.004 445.999c-28 0 -49.333 -10.501 -64 -31.501
s-23.667 -55.5 -27 -103.5h164c-1.33301 48.667 -7.5 83.334 -18.5 104.001s-29.167 31 -54.5 31z" />
    <glyph glyph-name="f" unicode="f" horiz-adv-x="338" 
d="M86 425l-72.998 0.00195312v115h74v30c0 44.667 4.16699 82 12.5 112s22.5 54.5 42.5 73.5s46.5 33 79.5 42s73.833 14.5 122.5 16.5l8 -104c-26 -2 -47.333 -5.33301 -64 -10s-29.834 -11.834 -39.501 -21.501s-16.334 -22.334 -20.001 -38.001s-5.5 -35.5 -5.5 -59.5
v-41h106v-115h-106v-425h-137v425z" />
    <glyph glyph-name="g" unicode="g" horiz-adv-x="525" 
d="M225 -220c-49.333 0 -100.997 7.66797 -154.997 23.001l9 102c27.333 -6.66699 51.666 -11.667 72.999 -15s41.666 -5 60.999 -5c22.667 0 42.167 2.83301 58.5 8.5s29.666 14.834 39.999 27.501s18 29 23 49s7.5 44.333 7.5 73v27h-5c-30.667 -40 -73.667 -60 -129 -60
c-60 0 -104.5 20.167 -133.5 60.5s-43.5 102.166 -43.5 185.499c0 96 21 168.833 63 218.5s103.667 74.5 185 74.5c30 0 60.5 -2.33301 91.5 -7s65.833 -12.334 104.5 -23.001v-447c0 -194.667 -83.333 -292 -250 -292zM253.003 103.001c26.667 0 47.5 11.165 62.5 33.498
s22.5 60.5 22.5 114.5v194c-19.333 7.33301 -40 11 -62 11c-18.667 0 -34.667 -3.16699 -48 -9.5s-24.166 -16.666 -32.499 -30.999s-14.333 -33.166 -18 -56.499s-5.5 -52.333 -5.5 -87c0 -62 6.16699 -105.667 18.5 -131s33.166 -38 62.499 -38z" />
    <glyph glyph-name="h" unicode="h" horiz-adv-x="521" 
d="M51 808l136.997 0.000976562v-320c18.667 12 35.334 21.833 50.001 29.5s28.334 14 41.001 19s24.834 8.5 36.501 10.5s23.834 3 36.501 3c39.333 0 69.166 -12.333 89.499 -37s30.5 -60.334 30.5 -107.001v-406h-136v360c0 46.667 -17 70 -51 70
c-28 0 -60.333 -12 -97 -36v-394h-137v808z" />
    <glyph glyph-name="i" unicode="i" horiz-adv-x="240" 
d="M120 627c-27.333 0 -46.999 6 -58.999 18s-18 31.333 -18 58s6 46 18 58s31.667 18 59 18s47.166 -6.16699 59.499 -18.5s18.5 -31.5 18.5 -57.5s-6 -45.167 -18 -57.5s-32 -18.5 -60 -18.5zM52.001 540h136v-540h-136v540z" />
    <glyph glyph-name="j" unicode="j" horiz-adv-x="240" 
d="M120 627c-26.667 0 -46.167 6 -58.5 18s-18.5 31.333 -18.5 58s6 46 18 58s31.667 18 59 18c28 0 48.167 -6.16699 60.5 -18.5s18.5 -31.5 18.5 -57.5s-6.16699 -45.167 -18.5 -57.5s-32.5 -18.5 -60.5 -18.5zM3 -190c15.333 40 27.333 86.166 36 138.499
s13 106.833 13 163.5v428h137v-462c0 -23.333 -2.33301 -48.166 -7 -74.499s-11 -52.666 -19 -78.999s-17.667 -51.833 -29 -76.5s-24 -47.334 -38 -68.001z" />
    <glyph glyph-name="k" unicode="k" horiz-adv-x="503" 
d="M51 808h137v-479h44l116 211h148l-153 -251l-22 -9v-3l23 -10l169 -267h-149l-132 228h-44v-228h-137v808z" />
    <glyph glyph-name="l" unicode="l" horiz-adv-x="241" 
d="M52 808h137v-808h-137v808z" />
    <glyph glyph-name="m" unicode="m" horiz-adv-x="794" 
d="M51 540l112.001 0.000976562l8 -58h4c18.667 12.667 35.667 23.5 51 32.5s29.5 16 42.5 21s25.667 8.66699 38 11s25.166 3.5 38.499 3.5c51.333 0 86.666 -22.667 105.999 -68h6c34.667 25.333 64.5 43 89.5 53s51.167 15 78.5 15c38.667 0 68.334 -12.333 89.001 -37
s31 -60.334 31 -107.001v-406h-134v360c0 46.667 -17.667 70 -53 70c-27.333 0 -58.333 -11.667 -93 -35v-395h-134v360c0 46.667 -17.667 70 -53 70c-27.333 0 -58.333 -11.667 -93 -35v-395h-134v540z" />
    <glyph glyph-name="n" unicode="n" horiz-adv-x="521" 
d="M51 540h116.003l8 -58h4l53 32.5c15.333 9 29.666 16 42.999 21s26.166 8.66699 38.499 11s25.166 3.5 38.499 3.5c39.333 0 69.166 -12.333 89.499 -37s30.5 -60.334 30.5 -107.001v-406h-136v360c0 25.333 -4.5 43.333 -13.5 54s-21.5 16 -37.5 16
c-14.667 0 -30.167 -3.16699 -46.5 -9.5s-33.166 -15.166 -50.499 -26.499v-394h-137v540z" />
    <glyph glyph-name="o" unicode="o" horiz-adv-x="521" 
d="M260 -10c-76 0 -133.333 23.667 -172 71s-58 117 -58 209c0 92.667 19.333 162.5 58 209.5s96 70.5 172 70.5s133.333 -23.5 172 -70.5s58 -116.833 58 -209.5s-19.333 -162.5 -58 -209.5s-96 -70.5 -172 -70.5zM260 96c17.333 0 32 2.66699 44 8
s21.667 14.666 29 27.999s12.5 31.166 15.5 53.499s4.5 50.5 4.5 84.5s-1.5 62.167 -4.5 84.5s-8.16699 40.166 -15.5 53.499s-17 22.666 -29 27.999s-26.667 8 -44 8s-32 -2.66699 -44 -8s-21.5 -14.666 -28.5 -27.999s-12 -31.166 -15 -53.499s-4.5 -50.5 -4.5 -84.5
c0 -33.333 1.5 -61.166 4.5 -83.499s8 -40.166 15 -53.499s16.5 -22.833 28.5 -28.5s26.667 -8.5 44 -8.5z" />
    <glyph glyph-name="p" unicode="p" horiz-adv-x="525" 
d="M51 540l124.999 -0.000976562l6 -54h4c16 20 35.667 35.5 59 46.5s49.333 16.5 78 16.5c114.667 0 172 -87.333 172 -262c0 -45.333 -4.83301 -86.166 -14.5 -122.499s-24.5 -67.333 -44.5 -93s-45.667 -45.5 -77 -59.5s-68.666 -21 -111.999 -21
c-8.66699 0 -17.667 0.333008 -27 1s-20 2 -32 4v-216h-137v760zM247.999 82.999c19.333 0 35.832 3.16895 49.499 9.50195s24.667 16.833 33 31.5s14.5 34 18.5 58s6 53.667 6 89c0 34 -1.5 62.5 -4.5 85.5s-7.66699 41.5 -14 55.5s-14.833 24 -25.5 30
s-23.334 9 -38.001 9c-13.333 0 -25.166 -2.83301 -35.499 -8.5s-19.166 -14.834 -26.499 -27.501s-13 -29.334 -17 -50.001s-6 -46 -6 -76v-195c18.667 -7.33301 38.667 -11 60 -11z" />
    <glyph glyph-name="q" unicode="q" horiz-adv-x="524" 
d="M337 52c-32 -40.667 -75.999 -61 -131.999 -61c-58.667 0 -102.334 21.667 -131.001 65s-43 110 -43 200c0 98.667 20.833 172.167 62.5 220.5s106.167 72.5 193.5 72.5c28 0 57.667 -2 89 -6s64 -10.333 98 -19v-744h-137v272zM254.001 89c27.333 0 48.001 12 62.001 36
s21 65.667 21 125v196c-10 4 -19.833 6.66699 -29.5 8s-20.167 2 -31.5 2c-20.667 0 -37.834 -3 -51.501 -9s-24.667 -15.833 -33 -29.5s-14.333 -32 -18 -55s-5.5 -51.5 -5.5 -85.5c0 -35.333 1.5 -65 4.5 -89s7.83301 -43.333 14.5 -58s15.5 -25.167 26.5 -31.5
s24.5 -9.5 40.5 -9.5z" />
    <glyph glyph-name="r" unicode="r" horiz-adv-x="358" 
d="M51 540l116.002 -0.000976562l8 -75h7c3.33301 4.66699 10 10.834 20 18.501s21.667 15.5 35 23.5s27.5 15.667 42.5 23s29.167 13.666 42.5 18.999h26v-131h-55c-10 -1.33301 -20.167 -3.66602 -30.5 -6.99902s-20.333 -7 -30 -11s-18.334 -8.5 -26.001 -13.5
s-13.834 -9.83301 -18.501 -14.5v-372h-137v540z" />
    <glyph glyph-name="s" unicode="s" horiz-adv-x="413" 
d="M188 -10c-47.333 0 -98.667 8.66602 -154 25.999v102c21.333 -8 45.666 -14.333 72.999 -19s53 -7 77 -7c48.667 0 73 19.667 73 59c0 17.333 -5.16699 31 -15.5 41s-27.166 17.333 -50.499 22c-16 2.66699 -33 6.16699 -51 10.5s-34.833 12 -50.5 23s-28.5 27 -38.5 48
s-15 49.5 -15 85.5c0 54 15.5 95.667 46.5 125s74.833 44 131.5 44c22 0 45.5 -1.66699 70.5 -5s50.833 -8 77.5 -14v-102c-30 7.33301 -53.5 12 -70.5 14s-33.167 3 -48.5 3c-25.333 0 -45 -5.16699 -59 -15.5s-21 -24.833 -21 -43.5c0 -21.333 6 -36.166 18 -44.499
s27.667 -14.5 47 -18.5c18.667 -4 37.5 -8.83301 56.5 -14.5s36.167 -14.167 51.5 -25.5s27.833 -26.833 37.5 -46.5s14.5 -45.5 14.5 -77.5c0 -53.333 -17.667 -95 -53 -125s-84.333 -45 -147 -45z" />
    <glyph glyph-name="t" unicode="t" horiz-adv-x="361" 
d="M259 -6c-54.667 0 -95.832 12.832 -123.499 38.499s-41.5 63.5 -41.5 113.5v278h-84v116h92l18 149l110 15v-164h113v-116h-112v-246c0 -29.333 5.16699 -50.166 15.5 -62.499s25.833 -18.5 46.5 -18.5c7.33301 0 15.166 0.5 23.499 1.5s17.166 2.83301 26.499 5.5v-100
c-13.333 -3.33301 -27.166 -5.83301 -41.499 -7.5s-28.5 -2.5 -42.5 -2.5z" />
    <glyph glyph-name="u" unicode="u" horiz-adv-x="520" 
d="M184 -10c-43.333 0 -76.8311 12.499 -100.498 37.499s-35.5 60.5 -35.5 106.5v406h137v-363c0 -25.333 4.33301 -43.166 13 -53.499s22.667 -15.5 42 -15.5c13.333 0 27.166 2.83301 41.499 8.5s31.166 15.167 50.499 28.5v395h137v-540h-116l-8 55h-4
c-18.667 -12.667 -35 -23.167 -49 -31.5s-27 -15 -39 -20s-23.5 -8.5 -34.5 -10.5s-22.5 -3 -34.5 -3z" />
    <glyph glyph-name="v" unicode="v" horiz-adv-x="508" 
d="M5 532v8h141l92 -353l12 -67h8l12 67l92 353h140v-8l-168 -532h-161z" />
    <glyph glyph-name="w" unicode="w" horiz-adv-x="720" 
d="M17 536v4h125l53 -330l9 -65h11l12 65l66 330h134l67 -330l12 -65h10l11 65l52 330h124v-4l-108 -536h-155l-67 323l-8 55h-10l-7 -55l-68 -323h-155z" />
    <glyph glyph-name="x" unicode="x" horiz-adv-x="507" 
d="M6 11l151 270l-145 251v8h145l80 -158l15 -34h7l13 34l79 158h145v-8l-145 -263l150 -258v-11h-143l-88 177l-14 36h-9l-13 -36l-85 -177h-143v11z" />
    <glyph glyph-name="y" unicode="y" horiz-adv-x="515" 
d="M125 -192v7l61 185l-183 530v10h139l99 -333l12 -69h8l13 69l98 333h139v-10l-249 -750z" />
    <glyph glyph-name="z" unicode="z" horiz-adv-x="426" 
d="M28 94l208 331v7h-201v108h354v-95l-206 -330v-7h216v-108h-371v94z" />
    <glyph glyph-name="braceleft" unicode="{" horiz-adv-x="328" 
d="M18 407c24.667 0 42.334 8.16699 53.001 24.5s16 40.166 16 71.499v247c0 43.333 8.33301 73.833 25 91.5s45 26.5 85 26.5c6.66699 0 15.5 -0.166992 26.5 -0.5s22.167 -0.833008 33.5 -1.5s21.666 -1.16699 30.999 -1.5s15.333 -0.833008 18 -1.5v-86h-59
c-18 0 -30.833 -3.66699 -38.5 -11s-11.5 -19.666 -11.5 -36.999v-253c0 -30.667 -6.66699 -56.834 -20 -78.501s-31 -35.5 -53 -41.5c22 -5.33301 39.667 -18.666 53 -39.999s20 -47.333 20 -78v-255c0 -17.333 3.83301 -29.666 11.5 -36.999s20.5 -11 38.5 -11h59v-86
c-2.66699 -0.666992 -8.66699 -1.33398 -18 -2.00098s-19.666 -1.16699 -30.999 -1.5l-33.5 -1c-11 -0.333008 -19.833 -0.5 -26.5 -0.5c-40 0 -68.333 8.83301 -85 26.5s-25 48.5 -25 92.5v248c0 31.333 -5.33301 55 -16 71s-28.334 24 -53.001 24v101z" />
    <glyph glyph-name="bar" unicode="|" horiz-adv-x="258" 
d="M193 808v-1028h-129v1028h129z" />
    <glyph glyph-name="braceright" unicode="}" horiz-adv-x="328" 
d="M309 306c-24 0 -41.332 -8 -51.999 -24s-16 -39.667 -16 -71v-248c0 -44 -8.16699 -74.833 -24.5 -92.5s-44.833 -26.5 -85.5 -26.5c-6 0 -14.667 0.166992 -26 0.5l-34 1c-11.333 0.333008 -21.666 0.833008 -30.999 1.5s-15.333 1.33398 -18 2.00098v86h59
c18.667 0 31.667 3.66699 39 11s11 19.666 11 36.999v255c0 30.667 6.66699 56.667 20 78s31 34.666 53 39.999c-22 6 -39.667 19.833 -53 41.5s-20 47.834 -20 78.501v253c0 17.333 -3.66699 29.666 -11 36.999s-20.333 11 -39 11h-59v86
c2.66699 0.666992 8.66699 1.16699 18 1.5s19.666 0.833008 30.999 1.5s22.666 1.16699 33.999 1.5s20 0.5 26 0.5c40.667 0 69.167 -8.83301 85.5 -26.5s24.5 -48.167 24.5 -91.5v-247c0 -31.333 5.33301 -55.166 16 -71.499s28 -24.5 52 -24.5v-101z" />
    <glyph glyph-name="asciitilde" unicode="~" horiz-adv-x="563" 
d="M36 273c17.333 24.667 32.833 44.999 46.5 60.999s26.5 28.667 38.5 38s23.667 16 35 20s23.666 6 36.999 6c18 0 34.167 -3.83301 48.5 -11.5s28 -16.167 41 -25.5s25.833 -17.833 38.5 -25.5s26 -11.5 40 -11.5c15.333 0 30.333 6.5 45 19.5s27.667 31.167 39 54.5
l83 -49c-8 -14 -17.167 -28.5 -27.5 -43.5s-22 -28.667 -35 -41s-27.167 -22.666 -42.5 -30.999s-32 -12.5 -50 -12.5s-34.5 3.83301 -49.5 11.5s-29 16.167 -42 25.5s-25.667 17.833 -38 25.5s-25.166 11.5 -38.499 11.5c-15.333 0 -30 -6 -44 -18s-28.667 -30.667 -44 -56
z" />
    <glyph glyph-name="uni00A0" unicode="&#xa0;" horiz-adv-x="178" 
 />
    <glyph glyph-name="exclamdown" unicode="&#xa1;" horiz-adv-x="240" 
d="M121 545c25.333 0 45 -6.66699 59 -20s21 -32.333 21 -57c0 -23.333 -7 -41.833 -21 -55.5s-33.667 -20.5 -59 -20.5s-45 6.66699 -59 20s-21 32 -21 56c0 24.667 7 43.667 21 57s33.667 20 59 20zM78 307h85v-11l30 -486v-10h-146v10l31 486v11z" />
    <glyph glyph-name="cent" unicode="&#xa2;" horiz-adv-x="423" 
d="M221 -5c-64.667 9.33301 -112.832 36.3301 -144.499 80.9971s-47.5 109.334 -47.5 194.001c0 84 16 148.333 48 193s80 72 144 82v115h88v-112c22.667 -2 46 -6.66699 70 -14v-108c-16 4 -31 6.83301 -45 8.5s-27.333 2.5 -40 2.5c-44 0 -75.667 -12.833 -95 -38.5
s-29 -68.167 -29 -127.5s9.66699 -102.333 29 -129s50.666 -40 93.999 -40c14 0 28 0.833008 42 2.5s28.667 4.5 44 8.5v-107c-10 -3.33301 -21 -6.16602 -33 -8.49902s-24.333 -4.16602 -37 -5.49902v-112h-88v115z" />
    <glyph glyph-name="sterling" unicode="&#xa3;" horiz-adv-x="566" 
d="M34 425l106.998 -0.000976562v107c0 74 16.667 128.5 50 163.5s87 52.5 161 52.5c25.333 0 52.833 -2.16699 82.5 -6.5s63.167 -10.833 100.5 -19.5l-7 -112c-23.333 6.66699 -49.166 11.834 -77.499 15.501s-52.166 5.5 -71.499 5.5c-36 0 -61.333 -7.5 -76 -22.5
s-22 -41.833 -22 -80.5v-103h166v-107h-166v-200h240v-118h-487v120h107v198h-107v107z" />
    <glyph glyph-name="currency" unicode="&#xa4;" horiz-adv-x="568" 
d="M34 174l54 54l55 40c-15.333 28.667 -23 62.667 -23 102c0 38.667 7.66699 72.334 23 101.001l-55 41l-54 54l53 54l55 -54l36 -51c28.667 24.667 64 37 106 37c41.333 0 76 -12.333 104 -37l38 51l55 54l53 -54l-55 -54l-56 -42c15.333 -28.667 23 -62 23 -100
c0 -38.667 -7.66699 -72.334 -23 -101.001l56 -41l55 -54l-53 -54l-55 54l-37 51c-28.667 -25.333 -64 -38 -106 -38s-77 12.333 -105 37l-36 -50l-55 -54zM206 370c0 -34.667 7 -61.332 21 -79.999s32.667 -28 56 -28s41.833 9.16699 55.5 27.5s20.5 45.166 20.5 80.499
c0 34.667 -6.83301 61.167 -20.5 79.5s-32.167 27.5 -55.5 27.5s-42 -9.16699 -56 -27.5s-21 -44.833 -21 -79.5z" />
    <glyph glyph-name="yen" unicode="&#xa5;" horiz-adv-x="668" 
d="M98 344h120l-198 396h158l137 -303l16 -53h9l17 53l138 303h154l-198 -396h117v-98h-162v-75h162v-98h-162v-73h-141v73h-167v98h167v75h-167v98z" />
    <glyph glyph-name="brokenbar" unicode="&#xa6;" horiz-adv-x="253" 
d="M62 205h128v-425h-128v425zM62 808h128v-425h-128v425z" />
    <glyph glyph-name="section" unicode="&#xa7;" horiz-adv-x="436" 
d="M197 -10c-46.667 0 -98.001 8.66504 -154.001 25.998v102c21.333 -8 45.833 -14.333 73.5 -19s53.5 -7 77.5 -7c48.667 0 73 19.667 73 59c0 33.333 -22.333 54.333 -67 63c-16 2.66699 -33 6.16699 -51 10.5s-34.667 12 -50 23s-28.166 27 -38.499 48
s-15.5 49.5 -15.5 85.5c0 41.333 9.66699 75.666 29 102.999c-8.66699 11.333 -15.667 25.333 -21 42s-8 37.334 -8 62.001c0 54 15.667 95.667 47 125s75.333 44 132 44c21.333 0 44.5 -1.66699 69.5 -5s50.833 -8 77.5 -14v-102c-30 7.33301 -53.333 12 -70 14
s-32.667 3 -48 3c-26 0 -45.833 -5.16699 -59.5 -15.5s-20.5 -25.166 -20.5 -44.499c0 -20.667 6 -35.167 18 -43.5s27.667 -14.5 47 -18.5c18 -4 36.5 -8.83301 55.5 -14.5s36.167 -14.167 51.5 -25.5s27.833 -27 37.5 -47s14.5 -46 14.5 -78
c0 -41.333 -10.667 -75.666 -32 -102.999c10 -12 17.833 -26.333 23.5 -43s8.5 -36.667 8.5 -60c0 -53.333 -17.5 -95 -52.5 -125s-84.167 -45 -147.5 -45zM259.999 306.998c8.66699 14 13.001 30.665 13.001 49.998c0 16 -3.16699 29 -9.5 39s-17.166 17.667 -32.499 23
c-6.66699 2.66699 -13.334 5 -20.001 7s-13.667 4.66699 -21 8c-16 -14 -24 -29.667 -24 -47c0 -21.333 4.5 -36.166 13.5 -44.499s20.5 -15.166 34.5 -20.499c15.333 -6 30.666 -11 45.999 -15z" />
    <glyph glyph-name="dieresis" unicode="&#xa8;" horiz-adv-x="452" 
d="M114 618c-24 0 -41.667 5.33301 -53 16s-17 28 -17 52c0 45.333 23.333 68 70 68c23.333 0 41 -5.33301 53 -16s18 -28 18 -52s-6 -41.333 -18 -52s-29.667 -16 -53 -16zM330 618c-24 0 -41.667 5.33301 -53 16s-17 28 -17 52c0 45.333 23.333 68 70 68
c23.333 0 40.833 -5.33301 52.5 -16s17.5 -28 17.5 -52s-5.83301 -41.333 -17.5 -52s-29.167 -16 -52.5 -16z" />
    <glyph glyph-name="copyright" unicode="&#xa9;" horiz-adv-x="808" 
d="M419 164c-60.667 0 -106.999 16.834 -138.999 50.501s-48 84.834 -48 153.501s16 120.167 48 154.5s78.333 51.5 139 51.5c15.333 0 31 -1 47 -3s30.333 -4.66699 43 -8v-80c-32 6 -58.333 9 -79 9c-37.333 0 -63.833 -9.83301 -79.5 -29.5s-23.5 -50.834 -23.5 -93.501
c0 -44 7.83301 -75.667 23.5 -95s41.5 -29 77.5 -29c9.33301 0 21.166 0.666992 35.499 2s29.833 3.66602 46.5 6.99902v-79c-12.667 -3.33301 -27 -6 -43 -8s-32 -3 -48 -3zM404.001 -9.99902c-56 0 -106.833 9.16699 -152.5 27.5s-84.667 44.166 -117 77.499
s-57.333 73.333 -75 120s-26.5 98.334 -26.5 155.001s8.83301 108.334 26.5 155.001s42.667 86.667 75 120s71.333 59.166 117 77.499s96.5 27.5 152.5 27.5s106.833 -9.16699 152.5 -27.5s84.667 -44.166 117 -77.499s57.333 -73.333 75 -120s26.5 -98.334 26.5 -155.001
s-8.83301 -108.334 -26.5 -155.001s-42.667 -86.667 -75 -120s-71.333 -59.166 -117 -77.499s-96.5 -27.5 -152.5 -27.5zM404.001 66.001c44.667 0 85 7.33301 121 22s66.5 35.167 91.5 61.5s44.167 58.166 57.5 95.499s20 79 20 125s-6.66699 87.667 -20 125
s-32.5 69.166 -57.5 95.499s-55.5 46.833 -91.5 61.5s-76.333 22 -121 22c-45.333 0 -85.833 -7.33301 -121.5 -22s-66 -35.167 -91 -61.5s-44.167 -58.166 -57.5 -95.499s-20 -79 -20 -125s6.66699 -87.667 20 -125s32.5 -69.166 57.5 -95.499s55.333 -46.833 91 -61.5
s76.167 -22 121.5 -22z" />
    <glyph glyph-name="ordfeminine" unicode="&#xaa;" horiz-adv-x="398" 
d="M135 348c-32.667 0 -58.668 10.332 -78.001 30.999s-29 48.334 -29 83.001c0 35.333 11 63 33 83s55 31.333 99 34l83 5v12c0 14.667 -0.833008 26.5 -2.5 35.5s-4.83398 16 -9.50098 21s-11.167 8.33301 -19.5 10s-18.833 2.5 -31.5 2.5
c-15.333 0 -32.833 -0.833008 -52.5 -2.5s-40.167 -4.16699 -61.5 -7.5l-8 77c50.667 9.33301 95.667 14 135 14c56.667 0 97.334 -9.83301 122.001 -29.5s37 -51.167 37 -94.5v-270h-94l-5 47h-4c-15.333 -16 -33.166 -28.5 -53.499 -37.5s-40.5 -13.5 -60.5 -13.5z
M177.999 423.999c16.667 0 38.333 9.33301 65 28v71l-45 -3c-23.333 -2.66699 -39.333 -7.5 -48 -14.5s-13 -18.833 -13 -35.5c0 -30.667 13.667 -46 41 -46z" />
    <glyph glyph-name="guillemotleft" unicode="&#xab;" horiz-adv-x="535" 
d="M26 268v4l94 238h138l-94 -238v-4l94 -238h-138zM274 268v4l94 238h138l-94 -238v-4l94 -238h-138z" />
    <glyph glyph-name="logicalnot" unicode="&#xac;" horiz-adv-x="732" 
d="M40 435h640v-331h-134v219h-506v112z" />
    <glyph glyph-name="uni00AD" unicode="&#xad;" horiz-adv-x="379" 
d="M47 331h285v-102h-285v102z" />
    <glyph glyph-name="registered" unicode="&#xae;" horiz-adv-x="683" 
d="M341 142c-45.333 0 -86.833 7.5 -124.5 22.5s-70 35.833 -97 62.5s-47.833 58.667 -62.5 96s-22 78.666 -22 123.999c0 44.667 7.33301 85.834 22 123.501s35.5 69.834 62.5 96.501s59.333 47.5 97 62.5s79.167 22.5 124.5 22.5c46 0 87.833 -7.5 125.5 -22.5
s70 -35.833 97 -62.5s47.833 -58.834 62.5 -96.501s22 -78.834 22 -123.501c0 -45.333 -7.33301 -86.666 -22 -123.999s-35.5 -69.333 -62.5 -96s-59.333 -47.5 -97 -62.5s-79.5 -22.5 -125.5 -22.5zM341 205c36.667 0 69.667 5.83301 99 17.5s54.5 28.167 75.5 49.5
s37.167 46.833 48.5 76.5s17 62.5 17 98.5s-5.66699 68.833 -17 98.5s-27.5 55.334 -48.5 77.001s-46.167 38.334 -75.5 50.001s-62.333 17.5 -99 17.5c-36 0 -68.833 -5.83301 -98.5 -17.5s-54.834 -28.334 -75.501 -50.001s-36.667 -47.334 -48 -77.001
s-17 -62.5 -17 -98.5s5.66699 -68.833 17 -98.5s27.333 -55.167 48 -76.5s45.834 -37.833 75.501 -49.5s62.5 -17.5 98.5 -17.5zM232 613l50.001 4.00098c16 1.33301 31.333 2 46 2c94.667 0 142 -34.667 142 -104c0 -23.333 -5.33301 -42.833 -16 -58.5
s-26.334 -26.834 -47.001 -33.501v-3l71 -126h-67l-60 110l-55 1v-111h-64v319zM330.001 456.001c27.333 0 46.499 4.5 57.499 13.5s16.5 23.833 16.5 44.5c0 18 -5.16699 31.833 -15.5 41.5s-28.166 14.5 -53.499 14.5c-3.33301 0 -9.5 -0.166992 -18.5 -0.5
s-15.833 -0.833008 -20.5 -1.5v-112h34z" />
    <glyph glyph-name="macron" unicode="&#xaf;" horiz-adv-x="402" 
d="M46 716h304v-87h-304v87z" />
    <glyph glyph-name="degree" unicode="&#xb0;" horiz-adv-x="401" 
d="M201 371c-26 0 -49.667 4.66699 -71 14s-39.666 22.333 -54.999 39s-27.166 36.667 -35.499 60s-12.5 48.666 -12.5 75.999s4.16699 52.666 12.5 75.999s20.166 43.5 35.499 60.5s33.666 30.167 54.999 39.5s45 14 71 14c25.333 0 48.666 -4.66699 69.999 -14
s39.666 -22.5 54.999 -39.5s27.166 -37.167 35.499 -60.5s12.5 -48.666 12.5 -75.999s-4.16699 -52.666 -12.5 -75.999s-20.166 -43.333 -35.499 -60s-33.666 -29.667 -54.999 -39s-44.666 -14 -69.999 -14zM201 447c32 0 56 10.167 72 30.5s24 47.833 24 82.5
s-8 62.334 -24 83.001s-40 31 -72 31c-32.667 0 -57.167 -10.333 -73.5 -31s-24.5 -48.334 -24.5 -83.001s8.16699 -62.167 24.5 -82.5s40.833 -30.5 73.5 -30.5z" />
    <glyph glyph-name="plusminus" unicode="&#xb1;" horiz-adv-x="519" 
d="M48 476h161v162h100v-162h162v-100h-162v-155h-100v155h-161v100zM48 161h424v-100h-424v100z" />
    <glyph glyph-name="twosuperior" unicode="&#xb2;" horiz-adv-x="382" 
d="M26 394c0 20.667 2.33301 39.668 7 57.001s12.167 33.833 22.5 49.5s23.833 31 40.5 46s37 30.167 61 45.5c28 18.667 47.667 35.667 59 51s17 32.333 17 51c0 39.333 -27 59 -81 59c-15.333 0 -31.833 -1.33301 -49.5 -4s-35.5 -6.33398 -53.5 -11.001l-12 95
c27.333 6.66699 53.333 11.834 78 15.501s47 5.5 67 5.5c114 0 171 -49.333 171 -148c0 -38 -8.33301 -70.333 -25 -97s-42 -51.334 -76 -74.001c-34 -23.333 -59.5 -44.5 -76.5 -63.5s-25.5 -37.167 -25.5 -54.5v-19h200v-98h-324v94z" />
    <glyph glyph-name="threesuperior" unicode="&#xb3;" horiz-adv-x="359" 
d="M134 293c-18 0 -35.167 0.998047 -51.5 2.99805s-33.166 4.66699 -50.499 8v101h10c10.667 -3.33301 22.667 -6 36 -8s26.666 -3 39.999 -3c33.333 0 57.666 5.5 72.999 16.5s23 27.5 23 49.5c0 25.333 -8 43.833 -24 55.5s-43 17.5 -81 17.5h-27v90h27
c60.667 0 91 22.333 91 67c0 42.667 -25.333 64 -76 64c-23.333 0 -50.333 -3.33301 -81 -10h-10l-3 97c34 8.66699 68.667 13 104 13c62.667 0 108.834 -11.5 138.501 -34.5s44.5 -57.833 44.5 -104.5c0 -34 -7.16699 -62.167 -21.5 -84.5s-35.166 -38.166 -62.499 -47.499
c32 -10 56.5 -26.333 73.5 -49s25.5 -51 25.5 -85c0 -49.333 -17.333 -87.666 -52 -114.999s-83.334 -41 -146.001 -41z" />
    <glyph glyph-name="acute" unicode="&#xb4;" horiz-adv-x="251" 
d="M28 619l68 186h141l-111 -195z" />
    <glyph glyph-name="mu" unicode="&#xb5;" horiz-adv-x="551" 
d="M63 540h137v-370c2 -42 21 -63 57 -63c13.333 0 27 2.66699 41 8s30.333 14.333 49 27v398h137v-540h-115l-8 55h-4c-18.667 -12.667 -35.167 -23.167 -49.5 -31.5s-27.5 -15 -39.5 -20s-23.333 -8.5 -34 -10.5s-22 -3 -34 -3v-210h-137v760z" />
    <glyph glyph-name="paragraph" unicode="&#xb6;" horiz-adv-x="529" 
d="M311 0l-66.998 -0.00390625v266c-4 -0.666992 -7.66699 -1 -11 -1h-12c-29.333 0 -56 4.16699 -80 12.5s-44.5 21.833 -61.5 40.5s-30 43.334 -39 74.001s-13.5 68.334 -13.5 113.001s4.5 82.334 13.5 113.001s22 55.334 39 74.001s37.5 32.167 61.5 40.5
s51 12.5 81 12.5c13.333 0 27.666 -0.833008 42.999 -2.5s30.666 -4.16699 45.999 -7.5v-735zM455.002 -0.00390625h-87v735h87v-735z" />
    <glyph glyph-name="periodcentered" unicode="&#xb7;" horiz-adv-x="233" 
d="M116 294c-27.333 0 -47 6 -59 18s-18 31.333 -18 58s6 46 18 58s31.667 18 59 18c26 0 45.5 -6 58.5 -18s19.5 -31.333 19.5 -58s-6.5 -46 -19.5 -58s-32.5 -18 -58.5 -18z" />
    <glyph glyph-name="cedilla" unicode="&#xb8;" horiz-adv-x="261" 
d="M104 -220c-11.333 0 -23.665 0.833984 -36.998 2.50098s-27.666 4.83398 -42.999 9.50098v83c11.333 -3.33301 22.666 -5.5 33.999 -6.5s19.666 -1.5 24.999 -1.5c15.333 0 26.5 3.66699 33.5 11s10.5 17.333 10.5 30c0 15.333 -4.83301 34.166 -14.5 56.499
s-22.834 45.166 -39.501 68.499h88c20.667 -29.333 35.5 -55 44.5 -77s13.5 -45.333 13.5 -70c0 -32.667 -9.83301 -58.5 -29.5 -77.5s-48.167 -28.5 -85.5 -28.5z" />
    <glyph glyph-name="onesuperior" unicode="&#xb9;" horiz-adv-x="308" 
d="M131 717l-85 -39h-18l-20 53l3 18l152 97h88v-546h-120v417z" />
    <glyph glyph-name="ordmasculine" unicode="&#xba;" horiz-adv-x="417" 
d="M209 426c13.333 0 24.5 1.66699 33.5 5s16.167 9.5 21.5 18.5s9.16602 21.333 11.499 37s3.5 35.5 3.5 59.5s-1.16699 43.667 -3.5 59s-6.16602 27.5 -11.499 36.5s-12.5 15.333 -21.5 19s-20.167 5.5 -33.5 5.5c-14 0 -25.5 -1.83301 -34.5 -5.5s-16.167 -10 -21.5 -19
s-9 -21.167 -11 -36.5s-3 -35 -3 -59s1 -43.833 3 -59.5s5.66699 -28 11 -37s12.5 -15.167 21.5 -18.5s20.5 -5 34.5 -5zM209 345c-57.333 0 -101.5 16.5 -132.5 49.5s-46.5 83.5 -46.5 151.5s15.5 118.5 46.5 151.5s75.167 49.5 132.5 49.5s101.333 -16.5 132 -49.5
s46 -83.5 46 -151.5s-15.333 -118.5 -46 -151.5s-74.667 -49.5 -132 -49.5z" />
    <glyph glyph-name="guillemotright" unicode="&#xbb;" horiz-adv-x="535" 
d="M167 30h-138l94 238v4l-94 238h138l94 -238v-4zM414 30h-138l94 238v4l-94 238h138l94 -238v-4z" />
    <glyph glyph-name="onequarter" unicode="&#xbc;" horiz-adv-x="947" 
d="M748 116h-197l-15 70l167 353l11 8l101 -9l7 -13l-171 -322h109l34 157h75v-157h52v-87h-52v-116h-121v116zM519 740h111l-260 -740h-111zM143 617l-85 -39h-18l-20 53l3 18l152 97h88v-546h-120v417z" />
    <glyph glyph-name="onehalf" unicode="&#xbd;" horiz-adv-x="964" 
d="M599 94c0 20.667 2.16602 39.5 6.49902 56.5s11.666 33.167 21.999 48.5s23.833 30.5 40.5 45.5s37.334 30.833 62.001 47.5c28.667 20 48.5 37.167 59.5 51.5s16.5 30.833 16.5 49.5c0 40 -26.667 60 -80 60c-18 0 -37 -1.33301 -57 -4s-35.667 -6.33398 -47 -11.001
l-12 95c58 14 106.333 21 145 21c114 0 171 -49.333 171 -148c0 -36 -7.66699 -67.167 -23 -93.5s-41.333 -52.166 -78 -77.499c-35.333 -25.333 -61.166 -47 -77.499 -65s-24.5 -35.667 -24.5 -53v-19h200v-98h-324v94zM518.999 740h111l-260 -740h-111zM142.999 617
l-85 -39h-18l-20 53l3 18l152 97h88v-546h-120v417z" />
    <glyph glyph-name="threequarters" unicode="&#xbe;" horiz-adv-x="949" 
d="M144 193c-18 0 -35.167 0.998047 -51.5 2.99805s-33.166 4.66699 -50.499 8v101h10c10.667 -3.33301 22.667 -6 36 -8s26.666 -3 39.999 -3c33.333 0 57.666 5.5 72.999 16.5s23 27.5 23 49.5c0 25.333 -8 43.833 -24 55.5s-43 17.5 -81 17.5h-27v90h27
c60.667 0 91 22.333 91 67c0 42.667 -25.333 64 -76 64c-23.333 0 -50.333 -3.33301 -81 -10h-10l-3 97c34 8.66699 68.667 13 104 13c62.667 0 108.834 -11.5 138.501 -34.5s44.5 -57.833 44.5 -104.5c0 -34 -7.16699 -62.167 -21.5 -84.5s-35.166 -38.166 -62.499 -47.499
c32 -10 56.5 -26.333 73.5 -49s25.5 -51 25.5 -85c0 -49.333 -17.333 -87.666 -52 -114.999s-83.334 -41 -146.001 -41zM752 115.998h-197l-15 70l167 353l11 8l101 -9l7 -13l-171 -322h109l34 157h75v-157h52v-87h-52v-116h-121v116zM550 739.998h111l-260 -740h-111z" />
    <glyph glyph-name="questiondown" unicode="&#xbf;" horiz-adv-x="410" 
d="M297 311l12 -182.002c-22 -5.33301 -42.167 -11.166 -60.5 -17.499s-34.166 -14.5 -47.499 -24.5s-23.833 -21.833 -31.5 -35.5s-11.5 -30.5 -11.5 -50.5c0 -36 10.167 -61.5 30.5 -76.5s46.166 -22.5 77.499 -22.5c18 0 37.5 1.66699 58.5 5s39.167 7.66602 54.5 12.999
l8 -105c-23.333 -7.33301 -47.166 -12.833 -71.499 -16.5s-49.5 -5.5 -75.5 -5.5c-32 0 -61.5 4 -88.5 12s-50 20 -69 36s-33.833 36.333 -44.5 61s-16 54 -16 88c0 30 4.66699 56.333 14 79s22.166 42.334 38.499 59.001s35.5 30.334 57.5 41.001s45.667 18.667 71 24
l6 117v16h88v-15zM251 546.998c25.333 0 45 -6.66699 59 -20s21 -32 21 -56c0 -24.667 -7 -43.5 -21 -56.5s-33.667 -19.5 -59 -19.5s-45 6.5 -59 19.5s-21 31.833 -21 56.5c0 24 7 42.667 21 56s33.667 20 59 20z" />
    <glyph glyph-name="Agrave" unicode="&#xc0;" horiz-adv-x="602" 
d="M1 7l194 733h211l195 -733v-7h-132l-52 190h-233l-51 -190h-132v7zM390 303l-58 220l-26 109h-10l-27 -109l-58 -220h179zM248 788l-110 173h141l69 -161z" />
    <glyph glyph-name="Aacute" unicode="&#xc1;" horiz-adv-x="602" 
d="M1 7l194 733h211l195 -733v-7h-132l-52 190h-233l-51 -190h-132v7zM390 303l-58 220l-26 109h-10l-27 -109l-58 -220h179zM246 796l69 165h141l-110 -173z" />
    <glyph glyph-name="Acircumflex" unicode="&#xc2;" horiz-adv-x="602" 
d="M1 7l194 733h211l195 -733v-7h-132l-52 190h-233l-51 -190h-132v7zM390 303l-58 220l-26 109h-10l-27 -109l-58 -220h179zM148 893l155 71l153 -71v-96l-154 72l-154 -72v96z" />
    <glyph glyph-name="Atilde" unicode="&#xc3;" horiz-adv-x="602" 
d="M1 7l194 733h211l195 -733v-7h-132l-52 190h-233l-51 -190h-132v7zM390 303l-58 220l-26 109h-10l-27 -109l-58 -220h179zM129 839c17.333 33.333 37.167 59 59.5 77s44.5 27 66.5 27c12.667 0 25.167 -2.16699 37.5 -6.5s24.333 -9 36 -14s23.334 -9.5 35.001 -13.5
s23.5 -6 35.5 -6s23.667 3 35 9s23 16 35 30l24 -21c-16 -35.333 -35.167 -61.833 -57.5 -79.5s-44.833 -26.5 -67.5 -26.5c-12.667 0 -25 2 -37 6s-23.833 8.5 -35.5 13.5s-23.334 9.5 -35.001 13.5s-23.5 6 -35.5 6c-25.333 0 -50 -12.333 -74 -37z" />
    <glyph glyph-name="Adieresis" unicode="&#xc4;" horiz-adv-x="602" 
d="M1 7l194 733h211l195 -733v-7h-132l-52 190h-233l-51 -190h-132v7zM390 303l-58 220l-26 109h-10l-27 -109l-58 -220h179zM185 803c-51.333 0 -77 25.667 -77 77c0 26.667 6.16699 45.834 18.5 57.501s31.833 17.5 58.5 17.5s46.5 -5.83301 59.5 -17.5
s19.5 -30.834 19.5 -57.501c0 -27.333 -6.5 -47 -19.5 -59s-32.833 -18 -59.5 -18zM416 803c-51.333 0 -77 25.667 -77 77c0 26.667 6.16699 45.834 18.5 57.501s31.833 17.5 58.5 17.5c26 0 45.667 -5.83301 59 -17.5s20 -30.834 20 -57.501
c0 -27.333 -6.66699 -47 -20 -59s-33 -18 -59 -18z" />
    <glyph glyph-name="Aring" unicode="&#xc5;" horiz-adv-x="602" 
d="M1 7l194 733h211l195 -733v-7h-132l-52 190h-233l-51 -190h-132v7zM390 303l-58 220l-26 109h-10l-27 -109l-58 -220h179zM299 746c-33.333 0 -60.166 10.5 -80.499 31.5s-30.5 47.167 -30.5 78.5c0 32 10.167 58.5 30.5 79.5s47.166 31.5 80.499 31.5
c34 0 61 -10.5 81 -31.5s30 -47.5 30 -79.5c0 -31.333 -10 -57.5 -30 -78.5s-47 -31.5 -81 -31.5zM299 799c19.333 0 33.333 4.66699 42 14s13 23.666 13 42.999s-4.33301 34 -13 44s-22.667 15 -42 15c-20 0 -34.167 -5 -42.5 -15s-12.5 -24.667 -12.5 -44
s4.16699 -33.666 12.5 -42.999s22.5 -14 42.5 -14z" />
    <glyph glyph-name="AE" unicode="&#xc6;" horiz-adv-x="807" 
d="M-1 6l224 734h541v-118h-259l11 -191h232v-118h-225l12 -195h238v-118h-373l-8 188h-194l-56 -188h-143v6zM234 306h153l-13 325h-43z" />
    <glyph glyph-name="Ccedilla" unicode="&#xc7;" horiz-adv-x="499" 
d="M267 -220c-11.333 0 -23.668 0.833984 -37.001 2.50098s-27.666 4.83398 -42.999 9.50098v83c11.333 -3.33301 22.666 -5.5 33.999 -6.5s19.666 -1.5 24.999 -1.5c15.333 0 26.5 3.66699 33.5 11s10.5 17.333 10.5 30c0 11.333 -2.83301 24.833 -8.5 40.5
s-13.5 32.167 -23.5 49.5c-76 14 -132.333 51.167 -169 111.5s-55 147.166 -55 260.499c0 131.333 25.167 227.333 75.5 288s126.166 91 227.499 91c42 0 87 -5 135 -15v-112c-18 3.33301 -37.167 5.83301 -57.5 7.5s-39.166 2.5 -56.499 2.5c-33.333 0 -61.333 -4 -84 -12
s-41.167 -22 -55.5 -42s-24.666 -46.833 -30.999 -80.5s-9.5 -76.5 -9.5 -128.5c0 -50.667 3.33301 -92.834 10 -126.501s17 -60.5 31 -80.5s32.333 -34.167 55 -42.5s50 -12.5 82 -12.5c18 0 37.167 1 57.5 3s39.833 5 58.5 9v-109
c-13.333 -5.33301 -30.666 -9.66602 -51.999 -12.999s-44.333 -5.33301 -69 -6c11.333 -18.667 19.333 -36.334 24 -53.001s7 -34 7 -52c0 -32.667 -9.83301 -58.5 -29.5 -77.5s-48.167 -28.5 -85.5 -28.5z" />
    <glyph glyph-name="Egrave" unicode="&#xc8;" horiz-adv-x="533" 
d="M226 788l-110 173h141l69 -161zM61 740h432v-118h-292v-191h260v-118h-260v-195h301v-118h-441v740z" />
    <glyph glyph-name="Eacute" unicode="&#xc9;" horiz-adv-x="533" 
d="M224 796l69 165h141l-110 -173zM61 740h432v-118h-292v-191h260v-118h-260v-195h301v-118h-441v740z" />
    <glyph glyph-name="Ecircumflex" unicode="&#xca;" horiz-adv-x="533" 
d="M61 740h432v-118h-292v-191h260v-118h-260v-195h301v-118h-441v740zM126 893l155 71l153 -71v-96l-154 72l-154 -72v96z" />
    <glyph glyph-name="Edieresis" unicode="&#xcb;" horiz-adv-x="533" 
d="M163 803c-51.333 0 -77 25.667 -77 77c0 26.667 6.16699 45.834 18.5 57.501s31.833 17.5 58.5 17.5s46.5 -5.83301 59.5 -17.5s19.5 -30.834 19.5 -57.501c0 -27.333 -6.5 -47 -19.5 -59s-32.833 -18 -59.5 -18zM394 803c-51.333 0 -77 25.667 -77 77
c0 26.667 6.16699 45.834 18.5 57.501s31.833 17.5 58.5 17.5c26 0 45.667 -5.83301 59 -17.5s20 -30.834 20 -57.501c0 -27.333 -6.66699 -47 -20 -59s-33 -18 -59 -18zM61 740h432v-118h-292v-191h260v-118h-260v-195h301v-118h-441v740z" />
    <glyph glyph-name="Igrave" unicode="&#xcc;" horiz-adv-x="261" 
d="M61 740h140v-740h-140v740zM78 788l-110 173h141l69 -161z" />
    <glyph glyph-name="Iacute" unicode="&#xcd;" horiz-adv-x="261" 
d="M61 740h140v-740h-140v740zM76 796l69 165h141l-110 -173z" />
    <glyph glyph-name="Icircumflex" unicode="&#xce;" horiz-adv-x="261" 
d="M61 740h140v-740h-140v740zM-22 893l155 71l153 -71v-96l-154 72l-154 -72v96z" />
    <glyph glyph-name="Idieresis" unicode="&#xcf;" horiz-adv-x="261" 
d="M61 740h140v-740h-140v740zM15 803c-51.333 0 -77 25.667 -77 77c0 26.667 6.16699 45.834 18.5 57.501s31.833 17.5 58.5 17.5s46.5 -5.83301 59.5 -17.5s19.5 -30.834 19.5 -57.501c0 -27.333 -6.5 -47 -19.5 -59s-32.833 -18 -59.5 -18zM246 803
c-51.333 0 -77 25.667 -77 77c0 26.667 6.16699 45.834 18.5 57.501s31.833 17.5 58.5 17.5c26 0 45.667 -5.83301 59 -17.5s20 -30.834 20 -57.501c0 -27.333 -6.66699 -47 -20 -59s-33 -18 -59 -18z" />
    <glyph glyph-name="Eth" unicode="&#xd0;" horiz-adv-x="643" 
d="M-2 425l84.001 0.000976562v312c40 4.66699 73.833 7.83398 101.5 9.50098s53.5 2.5 77.5 2.5c62.667 0 116.167 -7 160.5 -21s80.5 -36.333 108.5 -67s48.333 -70 61 -118s19 -106 19 -174c0 -68.667 -6.66699 -127.334 -20 -176.001s-34.666 -88.334 -63.999 -119.001
s-67 -53 -113 -67s-102 -21 -168 -21c-22.667 0 -46.834 0.833008 -72.501 2.5s-55.834 4.16699 -90.501 7.5v322h-84v107zM291.001 101.001c32 0 59.1641 4.50098 81.4971 13.501s40.333 23.833 54 44.5s23.667 48.167 30 82.5s9.5 77.166 9.5 128.499c0 50 -3 92 -9 126
s-16.167 61.333 -30.5 82s-33.166 35.5 -56.499 44.5s-52 13.5 -86 13.5c-13.333 0 -25.166 -0.5 -35.499 -1.5s-20.166 -2.5 -29.499 -4.5v-205h102v-107h-102v-212c16.667 -2 30.5 -3.33301 41.5 -4s21.167 -1 30.5 -1z" />
    <glyph glyph-name="Ntilde" unicode="&#xd1;" horiz-adv-x="672" 
d="M158 839c17.333 33.333 37.167 59 59.5 77s44.5 27 66.5 27c12.667 0 25.167 -2.16699 37.5 -6.5s24.333 -9 36 -14s23.334 -9.5 35.001 -13.5s23.5 -6 35.5 -6s23.667 3 35 9s23 16 35 30l24 -21c-16 -35.333 -35.167 -61.833 -57.5 -79.5s-44.833 -26.5 -67.5 -26.5
c-12.667 0 -25 2 -37 6s-23.833 8.5 -35.5 13.5s-23.334 9.5 -35.001 13.5s-23.5 6 -35.5 6c-25.333 0 -50 -12.333 -74 -37zM61.001 740h119l259 -414l40 -80h8v494h125v-740h-119l-260 415l-39 81h-9v-496h-124v740z" />
    <glyph glyph-name="Ograve" unicode="&#xd2;" horiz-adv-x="653" 
d="M273 788l-110 173h141l69 -161zM326 -10c-98.667 0 -171.999 31.167 -219.999 93.5s-72 157.5 -72 285.5c0 128.667 24 224.334 72 287.001s121.333 94 220 94c99.333 0 173.166 -31.333 221.499 -94s72.5 -158.334 72.5 -287.001s-24 -224 -72 -286s-122 -93 -222 -93z
M326.001 107c27.333 0 50.5 4.66602 69.5 13.999s34.5 24.5 46.5 45.5s20.667 48 26 81s8 73.5 8 121.5s-2.66699 88.833 -8 122.5s-14 61 -26 82s-27.5 36.333 -46.5 46s-42.167 14.5 -69.5 14.5c-26.667 0 -49.5 -4.83301 -68.5 -14.5s-34.5 -25 -46.5 -46
s-20.667 -48.333 -26 -82s-8 -74.5 -8 -122.5c0 -47.333 2.66699 -87.666 8 -120.999s14 -60.5 26 -81.5s27.333 -36.167 46 -45.5s41.667 -14 69 -14z" />
    <glyph glyph-name="Oacute" unicode="&#xd3;" horiz-adv-x="653" 
d="M271 796l69 165h141l-110 -173zM326 -10c-98.667 0 -171.999 31.167 -219.999 93.5s-72 157.5 -72 285.5c0 128.667 24 224.334 72 287.001s121.333 94 220 94c99.333 0 173.166 -31.333 221.499 -94s72.5 -158.334 72.5 -287.001s-24 -224 -72 -286s-122 -93 -222 -93z
M326.001 107c27.333 0 50.5 4.66602 69.5 13.999s34.5 24.5 46.5 45.5s20.667 48 26 81s8 73.5 8 121.5s-2.66699 88.833 -8 122.5s-14 61 -26 82s-27.5 36.333 -46.5 46s-42.167 14.5 -69.5 14.5c-26.667 0 -49.5 -4.83301 -68.5 -14.5s-34.5 -25 -46.5 -46
s-20.667 -48.333 -26 -82s-8 -74.5 -8 -122.5c0 -47.333 2.66699 -87.666 8 -120.999s14 -60.5 26 -81.5s27.333 -36.167 46 -45.5s41.667 -14 69 -14z" />
    <glyph glyph-name="Ocircumflex" unicode="&#xd4;" horiz-adv-x="653" 
d="M326 -10c-98.667 0 -171.999 31.167 -219.999 93.5s-72 157.5 -72 285.5c0 128.667 24 224.334 72 287.001s121.333 94 220 94c99.333 0 173.166 -31.333 221.499 -94s72.5 -158.334 72.5 -287.001s-24 -224 -72 -286s-122 -93 -222 -93zM326.001 107
c27.333 0 50.5 4.66602 69.5 13.999s34.5 24.5 46.5 45.5s20.667 48 26 81s8 73.5 8 121.5s-2.66699 88.833 -8 122.5s-14 61 -26 82s-27.5 36.333 -46.5 46s-42.167 14.5 -69.5 14.5c-26.667 0 -49.5 -4.83301 -68.5 -14.5s-34.5 -25 -46.5 -46s-20.667 -48.333 -26 -82
s-8 -74.5 -8 -122.5c0 -47.333 2.66699 -87.666 8 -120.999s14 -60.5 26 -81.5s27.333 -36.167 46 -45.5s41.667 -14 69 -14zM173.001 892.999l155 71l153 -71v-96l-154 72l-154 -72v96z" />
    <glyph glyph-name="Otilde" unicode="&#xd5;" horiz-adv-x="653" 
d="M154 839c17.333 33.333 37.167 59 59.5 77s44.5 27 66.5 27c12.667 0 25.167 -2.16699 37.5 -6.5s24.333 -9 36 -14s23.334 -9.5 35.001 -13.5s23.5 -6 35.5 -6s23.667 3 35 9s23 16 35 30l24 -21c-16 -35.333 -35.167 -61.833 -57.5 -79.5s-44.833 -26.5 -67.5 -26.5
c-12.667 0 -25 2 -37 6s-23.833 8.5 -35.5 13.5s-23.334 9.5 -35.001 13.5s-23.5 6 -35.5 6c-25.333 0 -50 -12.333 -74 -37zM326.001 -10c-98.667 0 -171.999 31.167 -219.999 93.5s-72 157.5 -72 285.5c0 128.667 24 224.334 72 287.001s121.333 94 220 94
c99.333 0 173.166 -31.333 221.499 -94s72.5 -158.334 72.5 -287.001s-24 -224 -72 -286s-122 -93 -222 -93zM326.002 107c27.333 0 50.5 4.66602 69.5 13.999s34.5 24.5 46.5 45.5s20.667 48 26 81s8 73.5 8 121.5s-2.66699 88.833 -8 122.5s-14 61 -26 82
s-27.5 36.333 -46.5 46s-42.167 14.5 -69.5 14.5c-26.667 0 -49.5 -4.83301 -68.5 -14.5s-34.5 -25 -46.5 -46s-20.667 -48.333 -26 -82s-8 -74.5 -8 -122.5c0 -47.333 2.66699 -87.666 8 -120.999s14 -60.5 26 -81.5s27.333 -36.167 46 -45.5s41.667 -14 69 -14z" />
    <glyph glyph-name="Odieresis" unicode="&#xd6;" horiz-adv-x="653" 
d="M210 803c-51.333 0 -77 25.667 -77 77c0 26.667 6.16699 45.834 18.5 57.501s31.833 17.5 58.5 17.5s46.5 -5.83301 59.5 -17.5s19.5 -30.834 19.5 -57.501c0 -27.333 -6.5 -47 -19.5 -59s-32.833 -18 -59.5 -18zM441 803c-51.333 0 -77 25.667 -77 77
c0 26.667 6.16699 45.834 18.5 57.501s31.833 17.5 58.5 17.5c26 0 45.667 -5.83301 59 -17.5s20 -30.834 20 -57.501c0 -27.333 -6.66699 -47 -20 -59s-33 -18 -59 -18zM326 -10c-98.667 0 -171.999 31.167 -219.999 93.5s-72 157.5 -72 285.5
c0 128.667 24 224.334 72 287.001s121.333 94 220 94c99.333 0 173.166 -31.333 221.499 -94s72.5 -158.334 72.5 -287.001s-24 -224 -72 -286s-122 -93 -222 -93zM326.001 107c27.333 0 50.5 4.66602 69.5 13.999s34.5 24.5 46.5 45.5s20.667 48 26 81s8 73.5 8 121.5
s-2.66699 88.833 -8 122.5s-14 61 -26 82s-27.5 36.333 -46.5 46s-42.167 14.5 -69.5 14.5c-26.667 0 -49.5 -4.83301 -68.5 -14.5s-34.5 -25 -46.5 -46s-20.667 -48.333 -26 -82s-8 -74.5 -8 -122.5c0 -47.333 2.66699 -87.666 8 -120.999s14 -60.5 26 -81.5
s27.333 -36.167 46 -45.5s41.667 -14 69 -14z" />
    <glyph glyph-name="multiply" unicode="&#xd7;" horiz-adv-x="479" 
d="M34 236l134 134l-134 135l71 71l134 -135l134 135l72 -71l-135 -135l135 -134l-71 -71l-135 134l-134 -134z" />
    <glyph glyph-name="Oslash" unicode="&#xd8;" horiz-adv-x="659" 
d="M90 113c-35.333 61.333 -53.001 146.667 -53.001 256c0 128.667 24 224.334 72 287.001s121.333 94 220 94c76 0 137.333 -18.667 184 -56l34 46h106l-83 -114c35.333 -62.667 53 -148.334 53 -257.001c0 -128.667 -24.167 -224 -72.5 -286s-122.166 -93 -221.499 -93
c-76 0 -136.667 18.333 -182 55l-33 -45h-106zM179.999 369.001c0 -24 0.5 -46.167 1.5 -66.5s3.16699 -38.833 6.5 -55.5l248 340c-12 16.667 -26.833 28.667 -44.5 36s-38.5 11 -62.5 11c-27.333 0 -50.333 -4.83301 -69 -14.5s-34 -25 -46 -46s-20.667 -48.333 -26 -82
s-8 -74.5 -8 -122.5zM328.999 107.001c27.333 0 50.501 4.66797 69.501 14.001s34.5 24.5 46.5 45.5s20.667 48 26 81s8 73.5 8 121.5c0 23.333 -0.666992 45.166 -2 65.499s-3.33301 38.833 -6 55.5l-247 -339c12 -15.333 26.667 -26.5 44 -33.5s37.666 -10.5 60.999 -10.5
z" />
    <glyph glyph-name="Ugrave" unicode="&#xd9;" horiz-adv-x="655" 
d="M269 788l-110 173h141l69 -161zM327 -10c-49.333 0 -91.3311 5.99805 -125.998 17.998s-62.834 30.167 -84.501 54.5s-37.334 55 -47.001 92s-14.5 80.5 -14.5 130.5v454h140v-445c0 -66.667 10.167 -114.167 30.5 -142.5s54.166 -42.5 101.499 -42.5
c24 0 44.333 3.33301 61 10s30.334 17.334 41.001 32.001s18.334 33.834 23.001 57.501s7 52.167 7 85.5v445h140v-454c0 -50 -4.83301 -93.5 -14.5 -130.5s-25.334 -67.667 -47.001 -92s-49.667 -42.5 -84 -54.5s-76.5 -18 -126.5 -18z" />
    <glyph glyph-name="Uacute" unicode="&#xda;" horiz-adv-x="655" 
d="M266 796l69 165h141l-110 -173zM327 -10c-49.333 0 -91.3311 5.99805 -125.998 17.998s-62.834 30.167 -84.501 54.5s-37.334 55 -47.001 92s-14.5 80.5 -14.5 130.5v454h140v-445c0 -66.667 10.167 -114.167 30.5 -142.5s54.166 -42.5 101.499 -42.5
c24 0 44.333 3.33301 61 10s30.334 17.334 41.001 32.001s18.334 33.834 23.001 57.501s7 52.167 7 85.5v445h140v-454c0 -50 -4.83301 -93.5 -14.5 -130.5s-25.334 -67.667 -47.001 -92s-49.667 -42.5 -84 -54.5s-76.5 -18 -126.5 -18z" />
    <glyph glyph-name="Ucircumflex" unicode="&#xdb;" horiz-adv-x="655" 
d="M327 -10c-49.333 0 -91.3311 5.99805 -125.998 17.998s-62.834 30.167 -84.501 54.5s-37.334 55 -47.001 92s-14.5 80.5 -14.5 130.5v454h140v-445c0 -66.667 10.167 -114.167 30.5 -142.5s54.166 -42.5 101.499 -42.5c24 0 44.333 3.33301 61 10
s30.334 17.334 41.001 32.001s18.334 33.834 23.001 57.501s7 52.167 7 85.5v445h140v-454c0 -50 -4.83301 -93.5 -14.5 -130.5s-25.334 -67.667 -47.001 -92s-49.667 -42.5 -84 -54.5s-76.5 -18 -126.5 -18zM168.002 892.998l155 71l153 -71v-96l-154 72l-154 -72v96z" />
    <glyph glyph-name="Udieresis" unicode="&#xdc;" horiz-adv-x="655" 
d="M206 803c-51.333 0 -77 25.667 -77 77c0 26.667 6.16699 45.834 18.5 57.501s31.833 17.5 58.5 17.5s46.5 -5.83301 59.5 -17.5s19.5 -30.834 19.5 -57.501c0 -27.333 -6.5 -47 -19.5 -59s-32.833 -18 -59.5 -18zM437 803c-51.333 0 -77 25.667 -77 77
c0 26.667 6.16699 45.834 18.5 57.501s31.833 17.5 58.5 17.5c26 0 45.667 -5.83301 59 -17.5s20 -30.834 20 -57.501c0 -27.333 -6.66699 -47 -20 -59s-33 -18 -59 -18zM327 -10c-49.333 0 -91.3311 5.99805 -125.998 17.998s-62.834 30.167 -84.501 54.5
s-37.334 55 -47.001 92s-14.5 80.5 -14.5 130.5v454h140v-445c0 -66.667 10.167 -114.167 30.5 -142.5s54.166 -42.5 101.499 -42.5c24 0 44.333 3.33301 61 10s30.334 17.334 41.001 32.001s18.334 33.834 23.001 57.501s7 52.167 7 85.5v445h140v-454
c0 -50 -4.83301 -93.5 -14.5 -130.5s-25.334 -67.667 -47.001 -92s-49.667 -42.5 -84 -54.5s-76.5 -18 -126.5 -18z" />
    <glyph glyph-name="Yacute" unicode="&#xdd;" horiz-adv-x="616" 
d="M238 251l-245 489h158l137 -303l16 -53h9l17 53l138 303h154l-243 -487v-253h-141v251zM254 796l69 165h141l-110 -173z" />
    <glyph glyph-name="Thorn" unicode="&#xde;" horiz-adv-x="574" 
d="M61 740l140 -0.000976562v-112c6.66699 0.666992 13.167 1 19.5 1h19.5c108.667 0 187.667 -20.833 237 -62.5s74 -108.167 74 -199.5c0 -45.333 -5.83301 -84.166 -17.5 -116.499s-30 -59 -55 -80s-56.833 -36.5 -95.5 -46.5s-84.667 -15 -138 -15h-44v-109h-140v740z
M262 221.999c26.667 0 49.334 2.49902 68.001 7.49902s33.667 13.333 45 25s19.666 26.667 24.999 45s8 40.833 8 67.5c0 52.667 -10.833 90.167 -32.5 112.5s-59.5 33.5 -113.5 33.5c-2.66699 0 -6.66699 -0.166992 -12 -0.5s-11 -0.666016 -17 -0.999023l-18 -1
c-6 -0.333008 -10.667 -0.833008 -14 -1.5v-285c2.66699 0 7 -0.166992 13 -0.5l18 -1c6 -0.333008 11.833 -0.5 17.5 -0.5h12.5z" />
    <glyph glyph-name="germandbls" unicode="&#xdf;" horiz-adv-x="618" 
d="M51 579c0 80.667 19.3301 139.667 57.9971 177s100.334 56 185.001 56s146.334 -18.667 185.001 -56s58 -96.333 58 -177v-133h-68c-29.333 0 -52.166 -5.16699 -68.499 -15.5s-24.5 -24.833 -24.5 -43.5c0 -21.333 6 -36.166 18 -44.499s27.667 -14.5 47 -18.5
c18.667 -4 37.5 -8.83301 56.5 -14.5s36.167 -14.167 51.5 -25.5s27.833 -26.833 37.5 -46.5s14.5 -45.5 14.5 -77.5c0 -53.333 -17.5 -95 -52.5 -125s-84.167 -45 -147.5 -45c-46.667 0 -98 8.66699 -154 26v102c21.333 -8 45.666 -14.333 72.999 -19s53 -7 77 -7
c48.667 0 73 19.667 73 59c0 17.333 -5.16699 31 -15.5 41s-27.166 17.333 -50.499 22c-16 2.66699 -33 6.16699 -51 10.5s-34.833 12 -50.5 23s-28.5 27 -38.5 48s-15 49.5 -15 85.5c0 44.667 13.667 81.667 41 111s64.333 47.666 111 54.999v32c0 46 -8 78.333 -24 97
s-43.667 28 -83 28s-66.833 -9.16699 -82.5 -27.5s-23.5 -50.833 -23.5 -97.5v-579h-137v579z" />
    <glyph glyph-name="agrave" unicode="&#xe0;" horiz-adv-x="490" 
d="M164 -5c-43.333 0 -78.0039 14.168 -104.004 42.501s-39 65.833 -39 112.5c0 102.667 64 158.667 192 168l92 6v17c0 20.667 -1.33301 37.667 -4 51s-7.5 24 -14.5 32s-16.5 13.5 -28.5 16.5s-27 4.5 -45 4.5c-7.33301 0 -17.166 -0.5 -29.499 -1.5
s-25.333 -2.16699 -39 -3.5s-27 -2.83301 -40 -4.5s-23.833 -3.5 -32.5 -5.5l-9 100c28.667 5.33301 57.834 9.66602 87.501 12.999s57.5 5 83.5 5c72.667 0 125.5 -13.5 158.5 -40.5s49.5 -70.5 49.5 -130.5v-377h-113l-11 65h-8
c-17.333 -19.333 -38.666 -35.833 -63.999 -49.5s-52.666 -20.5 -81.999 -20.5zM214.996 96.001c14.667 0 30.167 4.49902 46.5 13.499s30.833 17.833 43.5 26.5v104l-62 -6c-31.333 -3.33301 -53.5 -10.5 -66.5 -21.5s-19.5 -27.833 -19.5 -50.5
c0 -21.333 5 -37.666 15 -48.999s24.333 -17 43 -17zM197.996 610l-111 195h141l67 -185z" />
    <glyph glyph-name="aacute" unicode="&#xe1;" horiz-adv-x="490" 
d="M164 -5c-43.333 0 -78.0039 14.168 -104.004 42.501s-39 65.833 -39 112.5c0 102.667 64 158.667 192 168l92 6v17c0 20.667 -1.33301 37.667 -4 51s-7.5 24 -14.5 32s-16.5 13.5 -28.5 16.5s-27 4.5 -45 4.5c-7.33301 0 -17.166 -0.5 -29.499 -1.5
s-25.333 -2.16699 -39 -3.5s-27 -2.83301 -40 -4.5s-23.833 -3.5 -32.5 -5.5l-9 100c28.667 5.33301 57.834 9.66602 87.501 12.999s57.5 5 83.5 5c72.667 0 125.5 -13.5 158.5 -40.5s49.5 -70.5 49.5 -130.5v-377h-113l-11 65h-8
c-17.333 -19.333 -38.666 -35.833 -63.999 -49.5s-52.666 -20.5 -81.999 -20.5zM214.996 96.001c14.667 0 30.167 4.49902 46.5 13.499s30.833 17.833 43.5 26.5v104l-62 -6c-31.333 -3.33301 -53.5 -10.5 -66.5 -21.5s-19.5 -27.833 -19.5 -50.5
c0 -21.333 5 -37.666 15 -48.999s24.333 -17 43 -17zM198.996 619l68 186h141l-111 -195z" />
    <glyph glyph-name="acircumflex" unicode="&#xe2;" horiz-adv-x="490" 
d="M164 -5c-43.333 0 -78.0039 14.168 -104.004 42.501s-39 65.833 -39 112.5c0 102.667 64 158.667 192 168l92 6v17c0 20.667 -1.33301 37.667 -4 51s-7.5 24 -14.5 32s-16.5 13.5 -28.5 16.5s-27 4.5 -45 4.5c-7.33301 0 -17.166 -0.5 -29.499 -1.5
s-25.333 -2.16699 -39 -3.5s-27 -2.83301 -40 -4.5s-23.833 -3.5 -32.5 -5.5l-9 100c28.667 5.33301 57.834 9.66602 87.501 12.999s57.5 5 83.5 5c72.667 0 125.5 -13.5 158.5 -40.5s49.5 -70.5 49.5 -130.5v-377h-113l-11 65h-8
c-17.333 -19.333 -38.666 -35.833 -63.999 -49.5s-52.666 -20.5 -81.999 -20.5zM214.996 96.001c14.667 0 30.167 4.49902 46.5 13.499s30.833 17.833 43.5 26.5v104l-62 -6c-31.333 -3.33301 -53.5 -10.5 -66.5 -21.5s-19.5 -27.833 -19.5 -50.5
c0 -21.333 5 -37.666 15 -48.999s24.333 -17 43 -17zM101.996 713l154 72l154 -72v-95l-154 71l-154 -71v95z" />
    <glyph glyph-name="atilde" unicode="&#xe3;" horiz-adv-x="490" 
d="M164 -5c-43.333 0 -78.0039 14.168 -104.004 42.501s-39 65.833 -39 112.5c0 102.667 64 158.667 192 168l92 6v17c0 20.667 -1.33301 37.667 -4 51s-7.5 24 -14.5 32s-16.5 13.5 -28.5 16.5s-27 4.5 -45 4.5c-7.33301 0 -17.166 -0.5 -29.499 -1.5
s-25.333 -2.16699 -39 -3.5s-27 -2.83301 -40 -4.5s-23.833 -3.5 -32.5 -5.5l-9 100c28.667 5.33301 57.834 9.66602 87.501 12.999s57.5 5 83.5 5c72.667 0 125.5 -13.5 158.5 -40.5s49.5 -70.5 49.5 -130.5v-377h-113l-11 65h-8
c-17.333 -19.333 -38.666 -35.833 -63.999 -49.5s-52.666 -20.5 -81.999 -20.5zM214.996 96.001c14.667 0 30.167 4.49902 46.5 13.499s30.833 17.833 43.5 26.5v104l-62 -6c-31.333 -3.33301 -53.5 -10.5 -66.5 -21.5s-19.5 -27.833 -19.5 -50.5
c0 -21.333 5 -37.666 15 -48.999s24.333 -17 43 -17zM72.9961 658c16.667 31.333 36.3311 55.001 58.998 71.001s45 24 67 24c12.667 0 25 -2.83301 37 -8.5s23.833 -11.834 35.5 -18.501s23.334 -12.834 35.001 -18.501s23.834 -8.5 36.501 -8.5c22 0 42.667 14.333 62 43
l32 -34c-16 -33.333 -35.167 -57.666 -57.5 -72.999s-44.833 -23 -67.5 -23c-12.667 0 -25 2.66699 -37 8s-23.833 11.333 -35.5 18s-23.5 12.667 -35.5 18s-24 8 -36 8c-23.333 0 -45 -13.333 -65 -40z" />
    <glyph glyph-name="adieresis" unicode="&#xe4;" horiz-adv-x="490" 
d="M164 -5c-43.333 0 -78.0039 14.168 -104.004 42.501s-39 65.833 -39 112.5c0 102.667 64 158.667 192 168l92 6v17c0 20.667 -1.33301 37.667 -4 51s-7.5 24 -14.5 32s-16.5 13.5 -28.5 16.5s-27 4.5 -45 4.5c-7.33301 0 -17.166 -0.5 -29.499 -1.5
s-25.333 -2.16699 -39 -3.5s-27 -2.83301 -40 -4.5s-23.833 -3.5 -32.5 -5.5l-9 100c28.667 5.33301 57.834 9.66602 87.501 12.999s57.5 5 83.5 5c72.667 0 125.5 -13.5 158.5 -40.5s49.5 -70.5 49.5 -130.5v-377h-113l-11 65h-8
c-17.333 -19.333 -38.666 -35.833 -63.999 -49.5s-52.666 -20.5 -81.999 -20.5zM214.996 96.001c14.667 0 30.167 4.49902 46.5 13.499s30.833 17.833 43.5 26.5v104l-62 -6c-31.333 -3.33301 -53.5 -10.5 -66.5 -21.5s-19.5 -27.833 -19.5 -50.5
c0 -21.333 5 -37.666 15 -48.999s24.333 -17 43 -17zM140.996 618c-24 0 -41.667 5.33301 -53 16s-17 28 -17 52c0 45.333 23.333 68 70 68c23.333 0 41 -5.33301 53 -16s18 -28 18 -52s-6 -41.333 -18 -52s-29.667 -16 -53 -16zM356.996 618c-24 0 -41.667 5.33301 -53 16
s-17 28 -17 52c0 45.333 23.333 68 70 68c23.333 0 40.833 -5.33301 52.5 -16s17.5 -28 17.5 -52s-5.83301 -41.333 -17.5 -52s-29.167 -16 -52.5 -16z" />
    <glyph glyph-name="aring" unicode="&#xe5;" horiz-adv-x="490" 
d="M164 -5c-43.333 0 -78.0039 14.168 -104.004 42.501s-39 65.833 -39 112.5c0 102.667 64 158.667 192 168l92 6v17c0 20.667 -1.33301 37.667 -4 51s-7.5 24 -14.5 32s-16.5 13.5 -28.5 16.5s-27 4.5 -45 4.5c-7.33301 0 -17.166 -0.5 -29.499 -1.5
s-25.333 -2.16699 -39 -3.5s-27 -2.83301 -40 -4.5s-23.833 -3.5 -32.5 -5.5l-9 100c28.667 5.33301 57.834 9.66602 87.501 12.999s57.5 5 83.5 5c72.667 0 125.5 -13.5 158.5 -40.5s49.5 -70.5 49.5 -130.5v-377h-113l-11 65h-8
c-17.333 -19.333 -38.666 -35.833 -63.999 -49.5s-52.666 -20.5 -81.999 -20.5zM214.996 96.001c14.667 0 30.167 4.49902 46.5 13.499s30.833 17.833 43.5 26.5v104l-62 -6c-31.333 -3.33301 -53.5 -10.5 -66.5 -21.5s-19.5 -27.833 -19.5 -50.5
c0 -21.333 5 -37.666 15 -48.999s24.333 -17 43 -17zM246.996 598c-35.333 0 -63.167 10.333 -83.5 31s-30.5 47 -30.5 79s10 58.333 30 79s48 31 84 31s64.167 -10.333 84.5 -31s30.5 -47 30.5 -79s-10.333 -58.333 -31 -79s-48.667 -31 -84 -31zM246.995 652
c16 0 28.667 5.33301 38 16s14 24 14 40c0 16.667 -4.66699 30.167 -14 40.5s-22 15.5 -38 15.5s-28.333 -5.16699 -37 -15.5s-13 -23.833 -13 -40.5s4.5 -30.167 13.5 -40.5s21.167 -15.5 36.5 -15.5z" />
    <glyph glyph-name="ae" unicode="&#xe6;" horiz-adv-x="760" 
d="M540 -9c-40.667 0 -74.998 7.16797 -102.998 21.501s-51 36.5 -69 66.5l-8 1c-39.333 -29.333 -74.333 -50.833 -105 -64.5s-61 -20.5 -91 -20.5c-43.333 0 -78 14.167 -104 42.5s-39 65.833 -39 112.5c0 102.667 64 158.667 192 168l92 6v37
c-1.33301 31.333 -8.33301 53.166 -21 65.499s-36.334 18.5 -71.001 18.5c-8.66699 0 -19.334 -0.5 -32.001 -1.5s-25.834 -2.16699 -39.501 -3.5s-26.667 -2.83301 -39 -4.5s-22.5 -3.5 -30.5 -5.5l-9 100c33.333 6 64.333 10.5 93 13.5s54.667 4.5 78 4.5
c36 0 65.333 -5.83301 88 -17.5s39.667 -29.5 51 -53.5h8c34.667 48 87.334 72 158.001 72c65.333 0 113.5 -20.333 144.5 -61s46.5 -103.667 46.5 -189c0 -18.667 -0.333008 -33 -1 -43s-1.66699 -20.667 -3 -32h-283c2 -46 11 -78.833 27 -98.5s42.333 -29.5 79 -29.5
c18 0 40.5 2.33301 67.5 7s57.167 11.667 90.5 21l5 -102c-23.333 -9.33301 -50.833 -16.833 -82.5 -22.5s-61.5 -8.5 -89.5 -8.5zM215.002 96.001c13.333 0 27.834 4.33398 43.501 13.001s33.5 19.667 53.5 33c-1.33301 3.33301 -2.33301 9.33301 -3 18
s-1.33398 18.167 -2.00098 28.5s-1.16699 20.166 -1.5 29.499s-0.5 16.666 -0.5 21.999l-62 -6c-31.333 -2.66699 -53.5 -9.66699 -66.5 -21s-19.5 -28.333 -19.5 -51c0 -21.333 5 -37.666 15 -48.999s24.333 -17 43 -17zM608.003 310.002
c-1.33301 49.333 -7.49902 84.333 -18.499 105s-29.167 31 -54.5 31c-29.333 0 -51.333 -11 -66 -33s-23.334 -56.333 -26.001 -103h165z" />
    <glyph glyph-name="ccedilla" unicode="&#xe7;" horiz-adv-x="411" 
d="M201 -220c-11.333 0 -23.667 0.833984 -37 2.50098s-27.666 4.83398 -42.999 9.50098v83c11.333 -3.33301 22.666 -5.5 33.999 -6.5s19.666 -1.5 24.999 -1.5c15.333 0 26.5 3.66699 33.5 11s10.5 17.333 10.5 30c0 12 -3 26.167 -9 42.5s-14.333 33.166 -25 50.499
c-53.333 14.667 -93.333 43.834 -120 87.501s-40 104.167 -40 181.5c0 96 21 166.5 63 211.5s104.667 67.5 188 67.5c34 0 67 -5 99 -15v-108c-16 4 -31 6.83301 -45 8.5s-27.333 2.5 -40 2.5c-44 0 -75.667 -12.833 -95 -38.5s-29 -68.167 -29 -127.5
s9.66699 -102.333 29 -129s50.666 -40 93.999 -40c14 0 28 0.833008 42 2.5s28.667 4.5 44 8.5v-107c-13.333 -4 -28.166 -7.33301 -44.499 -10s-33.166 -4.33398 -50.499 -5.00098c11.333 -18.667 19.333 -36.334 24 -53.001s7 -34 7 -52
c0 -32.667 -9.83301 -58.5 -29.5 -77.5s-48.167 -28.5 -85.5 -28.5z" />
    <glyph glyph-name="egrave" unicode="&#xe8;" horiz-adv-x="483" 
d="M264 -9c-76.667 0 -134.83 22.999 -174.497 68.999s-59.5 113.667 -59.5 203c0 94.667 19.5 166 58.5 214s97.167 72 174.5 72c65.333 0 113.5 -20.333 144.5 -61s46.5 -103.667 46.5 -189c0 -18.667 -0.333008 -33.167 -1 -43.5s-1.66699 -21.166 -3 -32.499h-282
c3.33301 -48 12.666 -81.167 27.999 -99.5s40.666 -27.5 75.999 -27.5c19.333 0 42.666 2.33301 69.999 7s56.666 11.667 87.999 21l5 -102c-23.333 -9.33301 -50.666 -16.833 -81.999 -22.5s-61 -8.5 -89 -8.5zM259.004 445.999c-28 0 -49.333 -10.501 -64 -31.501
s-23.667 -55.5 -27 -103.5h164c-1.33301 48.667 -7.5 83.334 -18.5 104.001s-29.167 31 -54.5 31zM194.004 609.998l-111 195h141l67 -185z" />
    <glyph glyph-name="eacute" unicode="&#xe9;" horiz-adv-x="483" 
d="M200 619l68 186h141l-111 -195zM264 -9c-76.667 0 -134.83 22.999 -174.497 68.999s-59.5 113.667 -59.5 203c0 94.667 19.5 166 58.5 214s97.167 72 174.5 72c65.333 0 113.5 -20.333 144.5 -61s46.5 -103.667 46.5 -189c0 -18.667 -0.333008 -33.167 -1 -43.5
s-1.66699 -21.166 -3 -32.499h-282c3.33301 -48 12.666 -81.167 27.999 -99.5s40.666 -27.5 75.999 -27.5c19.333 0 42.666 2.33301 69.999 7s56.666 11.667 87.999 21l5 -102c-23.333 -9.33301 -50.666 -16.833 -81.999 -22.5s-61 -8.5 -89 -8.5zM259.004 445.999
c-28 0 -49.333 -10.501 -64 -31.501s-23.667 -55.5 -27 -103.5h164c-1.33301 48.667 -7.5 83.334 -18.5 104.001s-29.167 31 -54.5 31z" />
    <glyph glyph-name="ecircumflex" unicode="&#xea;" horiz-adv-x="483" 
d="M100 713l154 72l154 -72v-95l-154 71l-154 -71v95zM264 -9c-76.667 0 -134.83 22.999 -174.497 68.999s-59.5 113.667 -59.5 203c0 94.667 19.5 166 58.5 214s97.167 72 174.5 72c65.333 0 113.5 -20.333 144.5 -61s46.5 -103.667 46.5 -189
c0 -18.667 -0.333008 -33.167 -1 -43.5s-1.66699 -21.166 -3 -32.499h-282c3.33301 -48 12.666 -81.167 27.999 -99.5s40.666 -27.5 75.999 -27.5c19.333 0 42.666 2.33301 69.999 7s56.666 11.667 87.999 21l5 -102c-23.333 -9.33301 -50.666 -16.833 -81.999 -22.5
s-61 -8.5 -89 -8.5zM259.004 445.999c-28 0 -49.333 -10.501 -64 -31.501s-23.667 -55.5 -27 -103.5h164c-1.33301 48.667 -7.5 83.334 -18.5 104.001s-29.167 31 -54.5 31z" />
    <glyph glyph-name="edieresis" unicode="&#xeb;" horiz-adv-x="483" 
d="M140 618c-24 0 -41.667 5.33301 -53 16s-17 28 -17 52c0 45.333 23.333 68 70 68c23.333 0 41 -5.33301 53 -16s18 -28 18 -52s-6 -41.333 -18 -52s-29.667 -16 -53 -16zM356 618c-24 0 -41.667 5.33301 -53 16s-17 28 -17 52c0 45.333 23.333 68 70 68
c23.333 0 40.833 -5.33301 52.5 -16s17.5 -28 17.5 -52s-5.83301 -41.333 -17.5 -52s-29.167 -16 -52.5 -16zM264 -9c-76.667 0 -134.83 22.999 -174.497 68.999s-59.5 113.667 -59.5 203c0 94.667 19.5 166 58.5 214s97.167 72 174.5 72c65.333 0 113.5 -20.333 144.5 -61
s46.5 -103.667 46.5 -189c0 -18.667 -0.333008 -33.167 -1 -43.5s-1.66699 -21.166 -3 -32.499h-282c3.33301 -48 12.666 -81.167 27.999 -99.5s40.666 -27.5 75.999 -27.5c19.333 0 42.666 2.33301 69.999 7s56.666 11.667 87.999 21l5 -102
c-23.333 -9.33301 -50.666 -16.833 -81.999 -22.5s-61 -8.5 -89 -8.5zM259.004 445.999c-28 0 -49.333 -10.501 -64 -31.501s-23.667 -55.5 -27 -103.5h164c-1.33301 48.667 -7.5 83.334 -18.5 104.001s-29.167 31 -54.5 31z" />
    <glyph glyph-name="igrave" unicode="&#xec;" horiz-adv-x="240" 
d="M53 540h136v-540h-136v540zM74 610l-111 195h141l67 -185z" />
    <glyph glyph-name="iacute" unicode="&#xed;" horiz-adv-x="240" 
d="M75 619l68 186h141l-111 -195zM52 540h136v-540h-136v540z" />
    <glyph glyph-name="icircumflex" unicode="&#xee;" horiz-adv-x="242" 
d="M-22 713l155 72l153 -72v-95l-154 71l-154 -71v95zM53 540h136v-540h-136v540z" />
    <glyph glyph-name="idieresis" unicode="&#xef;" horiz-adv-x="242" 
d="M17 618c-24 0 -41.667 5.33301 -53 16s-17 28 -17 52c0 45.333 23.333 68 70 68c23.333 0 41 -5.33301 53 -16s18 -28 18 -52s-6 -41.333 -18 -52s-29.667 -16 -53 -16zM233 618c-24 0 -41.667 5.33301 -53 16s-17 28 -17 52c0 45.333 23.333 68 70 68
c23.333 0 40.833 -5.33301 52.5 -16s17.5 -28 17.5 -52s-5.83301 -41.333 -17.5 -52s-29.167 -16 -52.5 -16zM53 540h136v-540h-136v540z" />
    <glyph glyph-name="eth" unicode="&#xf0;" horiz-adv-x="526" 
d="M179 695l77.9971 9.00195c-10.667 19.333 -21.667 37.666 -33 54.999s-23.666 33.666 -36.999 48.999h141c10.667 -14 20.667 -28.333 30 -43s18.333 -29.667 27 -45l123 15v-86l-84 -10c44 -108 66 -231 66 -369c0 -92.667 -19.333 -162.5 -58 -209.5
s-96 -70.5 -172 -70.5s-133.333 23.667 -172 71s-58 117 -58 209c0 92.667 19.333 162.5 58 209.5s96 70.5 172 70.5c14.667 0 28.167 -2.16699 40.5 -6.5s23.833 -11.833 34.5 -22.5c-5.33301 17.333 -11.166 34.5 -17.499 51.5s-13.166 33.833 -20.499 50.5l-118 -14v86z
M259.997 96.002c17.333 0 32 2.8291 44 8.49609s21.667 15.167 29 28.5s12.5 31.166 15.5 53.499s4.5 50.166 4.5 83.499c0 28.667 -1.16699 53.834 -3.5 75.501s-7 39.834 -14 54.501s-16.5 25.667 -28.5 33s-27.667 11 -47 11c-17.333 0 -32 -2.66699 -44 -8
s-21.5 -14.666 -28.5 -27.999s-12 -31.166 -15 -53.499s-4.5 -50.5 -4.5 -84.5s1.5 -62.167 4.5 -84.5s8 -40.166 15 -53.499s16.5 -22.666 28.5 -27.999s26.667 -8 44 -8z" />
    <glyph glyph-name="ntilde" unicode="&#xf1;" horiz-adv-x="521" 
d="M51 540h116.003l8 -58h4l53 32.5c15.333 9 29.666 16 42.999 21s26.166 8.66699 38.499 11s25.166 3.5 38.499 3.5c39.333 0 69.166 -12.333 89.499 -37s30.5 -60.334 30.5 -107.001v-406h-136v360c0 25.333 -4.5 43.333 -13.5 54s-21.5 16 -37.5 16
c-14.667 0 -30.167 -3.16699 -46.5 -9.5s-33.166 -15.166 -50.499 -26.499v-394h-137v540zM90.0029 658c16.667 31.333 36.3311 55.001 58.998 71.001s45 24 67 24c12.667 0 25 -2.83301 37 -8.5s23.833 -11.834 35.5 -18.501s23.334 -12.834 35.001 -18.501
s23.834 -8.5 36.501 -8.5c22 0 42.667 14.333 62 43l32 -34c-16 -33.333 -35.167 -57.666 -57.5 -72.999s-44.833 -23 -67.5 -23c-12.667 0 -25 2.66699 -37 8s-23.833 11.333 -35.5 18s-23.5 12.667 -35.5 18s-24 8 -36 8c-23.333 0 -45 -13.333 -65 -40z" />
    <glyph glyph-name="ograve" unicode="&#xf2;" horiz-adv-x="521" 
d="M260 -10c-76 0 -133.333 23.667 -172 71s-58 117 -58 209c0 92.667 19.333 162.5 58 209.5s96 70.5 172 70.5s133.333 -23.5 172 -70.5s58 -116.833 58 -209.5s-19.333 -162.5 -58 -209.5s-96 -70.5 -172 -70.5zM260 96c17.333 0 32 2.66699 44 8
s21.667 14.666 29 27.999s12.5 31.166 15.5 53.499s4.5 50.5 4.5 84.5s-1.5 62.167 -4.5 84.5s-8.16699 40.166 -15.5 53.499s-17 22.666 -29 27.999s-26.667 8 -44 8s-32 -2.66699 -44 -8s-21.5 -14.666 -28.5 -27.999s-12 -31.166 -15 -53.499s-4.5 -50.5 -4.5 -84.5
c0 -33.333 1.5 -61.166 4.5 -83.499s8 -40.166 15 -53.499s16.5 -22.833 28.5 -28.5s26.667 -8.5 44 -8.5zM209 610l-111 195h141l67 -185z" />
    <glyph glyph-name="oacute" unicode="&#xf3;" horiz-adv-x="521" 
d="M209 619l68 186h141l-111 -195zM260 -10c-76 0 -133.333 23.667 -172 71s-58 117 -58 209c0 92.667 19.333 162.5 58 209.5s96 70.5 172 70.5s133.333 -23.5 172 -70.5s58 -116.833 58 -209.5s-19.333 -162.5 -58 -209.5s-96 -70.5 -172 -70.5zM260 96
c17.333 0 32 2.66699 44 8s21.667 14.666 29 27.999s12.5 31.166 15.5 53.499s4.5 50.5 4.5 84.5s-1.5 62.167 -4.5 84.5s-8.16699 40.166 -15.5 53.499s-17 22.666 -29 27.999s-26.667 8 -44 8s-32 -2.66699 -44 -8s-21.5 -14.666 -28.5 -27.999s-12 -31.166 -15 -53.499
s-4.5 -50.5 -4.5 -84.5c0 -33.333 1.5 -61.166 4.5 -83.499s8 -40.166 15 -53.499s16.5 -22.833 28.5 -28.5s26.667 -8.5 44 -8.5z" />
    <glyph glyph-name="ocircumflex" unicode="&#xf4;" horiz-adv-x="521" 
d="M113 713l154 72l154 -72v-95l-154 71l-154 -71v95zM260 -10c-76 0 -133.333 23.667 -172 71s-58 117 -58 209c0 92.667 19.333 162.5 58 209.5s96 70.5 172 70.5s133.333 -23.5 172 -70.5s58 -116.833 58 -209.5s-19.333 -162.5 -58 -209.5s-96 -70.5 -172 -70.5zM260 96
c17.333 0 32 2.66699 44 8s21.667 14.666 29 27.999s12.5 31.166 15.5 53.499s4.5 50.5 4.5 84.5s-1.5 62.167 -4.5 84.5s-8.16699 40.166 -15.5 53.499s-17 22.666 -29 27.999s-26.667 8 -44 8s-32 -2.66699 -44 -8s-21.5 -14.666 -28.5 -27.999s-12 -31.166 -15 -53.499
s-4.5 -50.5 -4.5 -84.5c0 -33.333 1.5 -61.166 4.5 -83.499s8 -40.166 15 -53.499s16.5 -22.833 28.5 -28.5s26.667 -8.5 44 -8.5z" />
    <glyph glyph-name="otilde" unicode="&#xf5;" horiz-adv-x="521" 
d="M260 -10c-76 0 -133.333 23.667 -172 71s-58 117 -58 209c0 92.667 19.333 162.5 58 209.5s96 70.5 172 70.5s133.333 -23.5 172 -70.5s58 -116.833 58 -209.5s-19.333 -162.5 -58 -209.5s-96 -70.5 -172 -70.5zM260 96c17.333 0 32 2.66699 44 8
s21.667 14.666 29 27.999s12.5 31.166 15.5 53.499s4.5 50.5 4.5 84.5s-1.5 62.167 -4.5 84.5s-8.16699 40.166 -15.5 53.499s-17 22.666 -29 27.999s-26.667 8 -44 8s-32 -2.66699 -44 -8s-21.5 -14.666 -28.5 -27.999s-12 -31.166 -15 -53.499s-4.5 -50.5 -4.5 -84.5
c0 -33.333 1.5 -61.166 4.5 -83.499s8 -40.166 15 -53.499s16.5 -22.833 28.5 -28.5s26.667 -8.5 44 -8.5zM83 658c16.667 31.333 36.3311 55.001 58.998 71.001s45 24 67 24c12.667 0 25 -2.83301 37 -8.5s23.833 -11.834 35.5 -18.501s23.334 -12.834 35.001 -18.501
s23.834 -8.5 36.501 -8.5c22 0 42.667 14.333 62 43l32 -34c-16 -33.333 -35.167 -57.666 -57.5 -72.999s-44.833 -23 -67.5 -23c-12.667 0 -25 2.66699 -37 8s-23.833 11.333 -35.5 18s-23.5 12.667 -35.5 18s-24 8 -36 8c-23.333 0 -45 -13.333 -65 -40z" />
    <glyph glyph-name="odieresis" unicode="&#xf6;" horiz-adv-x="521" 
d="M151 618c-24 0 -41.667 5.33301 -53 16s-17 28 -17 52c0 45.333 23.333 68 70 68c23.333 0 41 -5.33301 53 -16s18 -28 18 -52s-6 -41.333 -18 -52s-29.667 -16 -53 -16zM367 618c-24 0 -41.667 5.33301 -53 16s-17 28 -17 52c0 45.333 23.333 68 70 68
c23.333 0 40.833 -5.33301 52.5 -16s17.5 -28 17.5 -52s-5.83301 -41.333 -17.5 -52s-29.167 -16 -52.5 -16zM260 -10c-76 0 -133.333 23.667 -172 71s-58 117 -58 209c0 92.667 19.333 162.5 58 209.5s96 70.5 172 70.5s133.333 -23.5 172 -70.5s58 -116.833 58 -209.5
s-19.333 -162.5 -58 -209.5s-96 -70.5 -172 -70.5zM260 96c17.333 0 32 2.66699 44 8s21.667 14.666 29 27.999s12.5 31.166 15.5 53.499s4.5 50.5 4.5 84.5s-1.5 62.167 -4.5 84.5s-8.16699 40.166 -15.5 53.499s-17 22.666 -29 27.999s-26.667 8 -44 8
s-32 -2.66699 -44 -8s-21.5 -14.666 -28.5 -27.999s-12 -31.166 -15 -53.499s-4.5 -50.5 -4.5 -84.5c0 -33.333 1.5 -61.166 4.5 -83.499s8 -40.166 15 -53.499s16.5 -22.833 28.5 -28.5s26.667 -8.5 44 -8.5z" />
    <glyph glyph-name="divide" unicode="&#xf7;" horiz-adv-x="510" 
d="M258 125c-19.333 0 -35.166 5.5 -47.499 16.5s-18.5 27.833 -18.5 50.5c0 21.333 6.16699 37.5 18.5 48.5s28.166 16.5 47.499 16.5s35 -5.5 47 -16.5s18 -27.167 18 -48.5c0 -22.667 -6 -39.5 -18 -50.5s-27.667 -16.5 -47 -16.5zM37 420h437v-100h-437v100zM258 481
c-19.333 0 -35.166 5.33301 -47.499 16s-18.5 26.667 -18.5 48c0 22.667 6.16699 39.667 18.5 51s28.166 17 47.499 17s35 -5.66699 47 -17s18 -28.333 18 -51c0 -21.333 -6 -37.333 -18 -48s-27.667 -16 -47 -16z" />
    <glyph glyph-name="oslash" unicode="&#xf8;" horiz-adv-x="526" 
d="M74 86c-27.333 46.667 -41 108 -41 184c0 92.667 19.5 162.5 58.5 209.5s96.167 70.5 171.5 70.5c58 0 105.667 -14.667 143 -44l27 34h85l-66 -84c28 -46 42 -108 42 -186c0 -92.667 -19.5 -162.5 -58.5 -209.5s-96.5 -70.5 -172.5 -70.5
c-59.333 0 -107.333 14.667 -144 44l-27 -34h-86zM263 96c17.333 0 32.001 2.6709 44.001 8.00391s21.667 14.666 29 27.999s12.5 31.166 15.5 53.499s4.5 50.5 4.5 84.5c0 11.333 -0.166992 22.166 -0.5 32.499s-0.833008 20.166 -1.5 29.499l-161 -204
c7.33301 -11.333 16.666 -19.5 27.999 -24.5s25.333 -7.5 42 -7.5zM171.001 270.004v-31.501c0 -9.66699 0.666992 -18.834 2 -27.501l159 202c-13.333 20.667 -36.333 31 -69 31c-17.333 0 -32 -2.66699 -44 -8s-21.5 -14.666 -28.5 -27.999s-12 -31.166 -15 -53.499
s-4.5 -50.5 -4.5 -84.5z" />
    <glyph glyph-name="ugrave" unicode="&#xf9;" horiz-adv-x="520" 
d="M184 -10c-43.333 0 -76.8311 12.499 -100.498 37.499s-35.5 60.5 -35.5 106.5v406h137v-363c0 -25.333 4.33301 -43.166 13 -53.499s22.667 -15.5 42 -15.5c13.333 0 27.166 2.83301 41.499 8.5s31.166 15.167 50.499 28.5v395h137v-540h-116l-8 55h-4
c-18.667 -12.667 -35 -23.167 -49 -31.5s-27 -15 -39 -20s-23.5 -8.5 -34.5 -10.5s-22.5 -3 -34.5 -3zM209.002 609.999l-111 195h141l67 -185z" />
    <glyph glyph-name="uacute" unicode="&#xfa;" horiz-adv-x="520" 
d="M210 619l68 186h141l-111 -195zM184 -10c-43.333 0 -76.8311 12.499 -100.498 37.499s-35.5 60.5 -35.5 106.5v406h137v-363c0 -25.333 4.33301 -43.166 13 -53.499s22.667 -15.5 42 -15.5c13.333 0 27.166 2.83301 41.499 8.5s31.166 15.167 50.499 28.5v395h137v-540
h-116l-8 55h-4c-18.667 -12.667 -35 -23.167 -49 -31.5s-27 -15 -39 -20s-23.5 -8.5 -34.5 -10.5s-22.5 -3 -34.5 -3z" />
    <glyph glyph-name="ucircumflex" unicode="&#xfb;" horiz-adv-x="520" 
d="M113 713l154 72l154 -72v-95l-154 71l-154 -71v95zM184 -10c-43.333 0 -76.8311 12.499 -100.498 37.499s-35.5 60.5 -35.5 106.5v406h137v-363c0 -25.333 4.33301 -43.166 13 -53.499s22.667 -15.5 42 -15.5c13.333 0 27.166 2.83301 41.499 8.5
s31.166 15.167 50.499 28.5v395h137v-540h-116l-8 55h-4c-18.667 -12.667 -35 -23.167 -49 -31.5s-27 -15 -39 -20s-23.5 -8.5 -34.5 -10.5s-22.5 -3 -34.5 -3z" />
    <glyph glyph-name="udieresis" unicode="&#xfc;" horiz-adv-x="520" 
d="M151 618c-24 0 -41.667 5.33301 -53 16s-17 28 -17 52c0 45.333 23.333 68 70 68c23.333 0 41 -5.33301 53 -16s18 -28 18 -52s-6 -41.333 -18 -52s-29.667 -16 -53 -16zM367 618c-24 0 -41.667 5.33301 -53 16s-17 28 -17 52c0 45.333 23.333 68 70 68
c23.333 0 40.833 -5.33301 52.5 -16s17.5 -28 17.5 -52s-5.83301 -41.333 -17.5 -52s-29.167 -16 -52.5 -16zM184 -10c-43.333 0 -76.8311 12.499 -100.498 37.499s-35.5 60.5 -35.5 106.5v406h137v-363c0 -25.333 4.33301 -43.166 13 -53.499s22.667 -15.5 42 -15.5
c13.333 0 27.166 2.83301 41.499 8.5s31.166 15.167 50.499 28.5v395h137v-540h-116l-8 55h-4c-18.667 -12.667 -35 -23.167 -49 -31.5s-27 -15 -39 -20s-23.5 -8.5 -34.5 -10.5s-22.5 -3 -34.5 -3z" />
    <glyph glyph-name="yacute" unicode="&#xfd;" horiz-adv-x="515" 
d="M125 -192v7l61 185l-183 530v10h139l99 -333l12 -69h8l13 69l98 333h139v-10l-249 -750zM211 619l68 186h141l-111 -195z" />
    <glyph glyph-name="thorn" unicode="&#xfe;" horiz-adv-x="525" 
d="M51 808l137 -0.000976562v-319c17.333 20.667 37.833 35.834 61.5 45.501s48.167 14.5 73.5 14.5c114.667 0 172 -87.333 172 -262c0 -98 -20.833 -171.833 -62.5 -221.5s-103.5 -74.5 -185.5 -74.5c-8.66699 0 -17.667 0.333008 -27 1s-20 2 -32 4v-216h-137v1028z
M248 82.999c19.333 0 35.832 3.16895 49.499 9.50195s24.667 16.833 33 31.5s14.5 34 18.5 58s6 53.667 6 89c0 34 -1.5 62.5 -4.5 85.5s-7.66699 41.5 -14 55.5s-14.833 24 -25.5 30s-23.334 9 -38.001 9c-13.333 0 -25.166 -2.83301 -35.499 -8.5
s-19.166 -14.834 -26.499 -27.501s-13 -29.334 -17 -50.001s-6 -46 -6 -76v-195c18.667 -7.33301 38.667 -11 60 -11z" />
    <glyph glyph-name="ydieresis" unicode="&#xff;" horiz-adv-x="515" 
d="M125 -192v7l61 185l-183 530v10h139l99 -333l12 -69h8l13 69l98 333h139v-10l-249 -750zM153 618c-24 0 -41.667 5.33301 -53 16s-17 28 -17 52c0 45.333 23.333 68 70 68c23.333 0 41 -5.33301 53 -16s18 -28 18 -52s-6 -41.333 -18 -52s-29.667 -16 -53 -16zM369 618
c-24 0 -41.667 5.33301 -53 16s-17 28 -17 52c0 45.333 23.333 68 70 68c23.333 0 40.833 -5.33301 52.5 -16s17.5 -28 17.5 -52s-5.83301 -41.333 -17.5 -52s-29.167 -16 -52.5 -16z" />
    <glyph glyph-name="Amacron" unicode="&#x100;" horiz-adv-x="602" 
d="M1 7l194 733h211l195 -733v-7h-132l-52 190h-233l-51 -190h-132v7zM390 303l-58 220l-26 109h-10l-27 -109l-58 -220h179zM150 931h297v-93h-297v93z" />
    <glyph glyph-name="amacron" unicode="&#x101;" horiz-adv-x="490" 
d="M164 -5c-43.333 0 -78.0039 14.168 -104.004 42.501s-39 65.833 -39 112.5c0 102.667 64 158.667 192 168l92 6v17c0 20.667 -1.33301 37.667 -4 51s-7.5 24 -14.5 32s-16.5 13.5 -28.5 16.5s-27 4.5 -45 4.5c-7.33301 0 -17.166 -0.5 -29.499 -1.5
s-25.333 -2.16699 -39 -3.5s-27 -2.83301 -40 -4.5s-23.833 -3.5 -32.5 -5.5l-9 100c28.667 5.33301 57.834 9.66602 87.501 12.999s57.5 5 83.5 5c72.667 0 125.5 -13.5 158.5 -40.5s49.5 -70.5 49.5 -130.5v-377h-113l-11 65h-8
c-17.333 -19.333 -38.666 -35.833 -63.999 -49.5s-52.666 -20.5 -81.999 -20.5zM214.996 96.001c14.667 0 30.167 4.49902 46.5 13.499s30.833 17.833 43.5 26.5v104l-62 -6c-31.333 -3.33301 -53.5 -10.5 -66.5 -21.5s-19.5 -27.833 -19.5 -50.5
c0 -21.333 5 -37.666 15 -48.999s24.333 -17 43 -17zM97.9961 716h304v-87h-304v87z" />
    <glyph glyph-name="Abreve" unicode="&#x102;" horiz-adv-x="602" 
d="M1 7l194 733h211l195 -733v-7h-132l-52 190h-233l-51 -190h-132v7zM390 303l-58 220l-26 109h-10l-27 -109l-58 -220h179zM303 799c-56 0 -98.5 14.833 -127.5 44.5s-43.5 70.5 -43.5 122.5h95c0 -35.333 5.66699 -60.666 17 -75.999s31 -23 59 -23
c26.667 0 45.667 7.66699 57 23s17 40.666 17 75.999h96c0 -52 -14.667 -92.833 -44 -122.5s-71.333 -44.5 -126 -44.5z" />
    <glyph glyph-name="abreve" unicode="&#x103;" horiz-adv-x="490" 
d="M164 -5c-43.333 0 -78.0039 14.168 -104.004 42.501s-39 65.833 -39 112.5c0 102.667 64 158.667 192 168l92 6v17c0 20.667 -1.33301 37.667 -4 51s-7.5 24 -14.5 32s-16.5 13.5 -28.5 16.5s-27 4.5 -45 4.5c-7.33301 0 -17.166 -0.5 -29.499 -1.5
s-25.333 -2.16699 -39 -3.5s-27 -2.83301 -40 -4.5s-23.833 -3.5 -32.5 -5.5l-9 100c28.667 5.33301 57.834 9.66602 87.501 12.999s57.5 5 83.5 5c72.667 0 125.5 -13.5 158.5 -40.5s49.5 -70.5 49.5 -130.5v-377h-113l-11 65h-8
c-17.333 -19.333 -38.666 -35.833 -63.999 -49.5s-52.666 -20.5 -81.999 -20.5zM214.996 96.001c14.667 0 30.167 4.49902 46.5 13.499s30.833 17.833 43.5 26.5v104l-62 -6c-31.333 -3.33301 -53.5 -10.5 -66.5 -21.5s-19.5 -27.833 -19.5 -50.5
c0 -21.333 5 -37.666 15 -48.999s24.333 -17 43 -17zM248.996 614c-53.333 0 -94.3311 13.167 -122.998 39.5s-44.334 64.833 -47.001 115.5h95c0 -53.333 25 -80 75 -80c48 0 72.667 26.667 74 80h96c-3.33301 -50.667 -19.333 -89.167 -48 -115.5
s-69.334 -39.5 -122.001 -39.5z" />
    <glyph glyph-name="Aogonek" unicode="&#x104;" horiz-adv-x="602" 
d="M523 -220c-76.667 0 -115.001 32.333 -115.001 97c0 23.333 6.16699 44.5 18.5 63.5s32.833 38.833 61.5 59.5h-19l-52 190h-233l-51 -190h-132v7l194 733h211l195 -733v-17c-37.333 -14 -63.666 -30.5 -78.999 -49.5s-23 -35.833 -23 -50.5c0 -18.667 13 -28 39 -28
c11.333 0 22.5 1.16699 33.5 3.5s20.833 5.16602 29.5 8.49902v-82c-14 -3.33301 -27 -6.16602 -39 -8.49902s-25 -3.5 -39 -3.5zM389.999 303l-58 220l-26 109h-10l-27 -109l-58 -220h179z" />
    <glyph glyph-name="aogonek" unicode="&#x105;" horiz-adv-x="490" 
d="M364 -220c-76.667 0 -115.005 32.334 -115.005 97.001c0 23.333 6.16699 44.5 18.5 63.5s32.833 38.833 61.5 59.5l-11 65h-8c-17.333 -19.333 -38.666 -35.833 -63.999 -49.5s-52.666 -20.5 -81.999 -20.5c-43.333 0 -78 14.167 -104 42.5s-39 65.833 -39 112.5
c0 102.667 64 158.667 192 168l92 6v17c0 20.667 -1.33301 37.667 -4 51s-7.5 24 -14.5 32s-16.5 13.5 -28.5 16.5s-27 4.5 -45 4.5c-7.33301 0 -17.166 -0.5 -29.499 -1.5s-25.333 -2.16699 -39 -3.5s-27 -2.83301 -40 -4.5s-23.833 -3.5 -32.5 -5.5l-9 100
c28.667 5.33301 57.834 9.66602 87.501 12.999s57.5 5 83.5 5c72.667 0 125.5 -13.5 158.5 -40.5s49.5 -70.5 49.5 -130.5v-387c-37.333 -14 -63.666 -30.5 -78.999 -49.5s-23 -35.833 -23 -50.5c0 -18.667 13 -28 39 -28c11.333 0 22.5 1.16699 33.5 3.5
s20.833 5.16602 29.5 8.49902v-82c-14 -3.33301 -27 -6.16602 -39 -8.49902s-25 -3.5 -39 -3.5zM214.995 96.001c14.667 0 30.167 4.49902 46.5 13.499s30.833 17.833 43.5 26.5v104l-62 -6c-31.333 -3.33301 -53.5 -10.5 -66.5 -21.5s-19.5 -27.833 -19.5 -50.5
c0 -21.333 5 -37.666 15 -48.999s24.333 -17 43 -17z" />
    <glyph glyph-name="Cacute" unicode="&#x106;" horiz-adv-x="499" 
d="M338 -9c-102.667 0 -179 30.501 -229 91.501s-75 156.833 -75 287.5c0 131.333 25.167 227.333 75.5 288s126.166 91 227.499 91c42 0 87 -5 135 -15v-112c-18 3.33301 -37.167 5.83301 -57.5 7.5s-39.166 2.5 -56.499 2.5c-33.333 0 -61.333 -4 -84 -12
s-41.167 -22 -55.5 -42s-24.666 -46.833 -30.999 -80.5s-9.5 -76.5 -9.5 -128.5c0 -50.667 3.33301 -92.834 10 -126.501s17 -60.5 31 -80.5s32.333 -34.167 55 -42.5s50 -12.5 82 -12.5c18 0 37.167 1 57.5 3s39.833 5 58.5 9v-109
c-14.667 -5.33301 -33.834 -9.83301 -57.501 -13.5s-49.167 -5.5 -76.5 -5.5zM233 796.001l69 165h141l-110 -173z" />
    <glyph glyph-name="cacute" unicode="&#x107;" horiz-adv-x="411" 
d="M179 619l68 186h141l-111 -195zM281 -9c-84 0 -146.832 22.333 -188.499 67s-62.5 115.334 -62.5 212.001c0 96 21 166.5 63 211.5s104.667 67.5 188 67.5c34 0 67 -5 99 -15v-108c-16 4 -31 6.83301 -45 8.5s-27.333 2.5 -40 2.5c-44 0 -75.667 -12.833 -95 -38.5
s-29 -68.167 -29 -127.5s9.66699 -102.333 29 -129s50.666 -40 93.999 -40c14 0 28 0.833008 42 2.5s28.667 4.5 44 8.5v-107c-13.333 -4.66699 -28.833 -8.33398 -46.5 -11.001s-35.167 -4 -52.5 -4z" />
    <glyph glyph-name="Ccircumflex" unicode="&#x108;" horiz-adv-x="499" 
d="M338 -9c-102.667 0 -179 30.501 -229 91.501s-75 156.833 -75 287.5c0 131.333 25.167 227.333 75.5 288s126.166 91 227.499 91c42 0 87 -5 135 -15v-112c-18 3.33301 -37.167 5.83301 -57.5 7.5s-39.166 2.5 -56.499 2.5c-33.333 0 -61.333 -4 -84 -12
s-41.167 -22 -55.5 -42s-24.666 -46.833 -30.999 -80.5s-9.5 -76.5 -9.5 -128.5c0 -50.667 3.33301 -92.834 10 -126.501s17 -60.5 31 -80.5s32.333 -34.167 55 -42.5s50 -12.5 82 -12.5c18 0 37.167 1 57.5 3s39.833 5 58.5 9v-109
c-14.667 -5.33301 -33.834 -9.83301 -57.501 -13.5s-49.167 -5.5 -76.5 -5.5zM136 893.001l155 71l153 -71v-96l-154 72l-154 -72v96z" />
    <glyph glyph-name="ccircumflex" unicode="&#x109;" horiz-adv-x="411" 
d="M82 713l154 72l154 -72v-95l-154 71l-154 -71v95zM281 -9c-84 0 -146.832 22.333 -188.499 67s-62.5 115.334 -62.5 212.001c0 96 21 166.5 63 211.5s104.667 67.5 188 67.5c34 0 67 -5 99 -15v-108c-16 4 -31 6.83301 -45 8.5s-27.333 2.5 -40 2.5
c-44 0 -75.667 -12.833 -95 -38.5s-29 -68.167 -29 -127.5s9.66699 -102.333 29 -129s50.666 -40 93.999 -40c14 0 28 0.833008 42 2.5s28.667 4.5 44 8.5v-107c-13.333 -4.66699 -28.833 -8.33398 -46.5 -11.001s-35.167 -4 -52.5 -4z" />
    <glyph glyph-name="Cdotaccent" unicode="&#x10a;" horiz-adv-x="499" 
d="M289 798c-26.667 0 -46.167 6 -58.5 18s-18.5 31.333 -18.5 58c0 27.333 6.16699 46.833 18.5 58.5s31.833 17.5 58.5 17.5s46.5 -6 59.5 -18s19.5 -31.333 19.5 -58s-6.5 -46 -19.5 -58s-32.833 -18 -59.5 -18zM338 -9c-102.667 0 -179 30.501 -229 91.501
s-75 156.833 -75 287.5c0 131.333 25.167 227.333 75.5 288s126.166 91 227.499 91c42 0 87 -5 135 -15v-112c-18 3.33301 -37.167 5.83301 -57.5 7.5s-39.166 2.5 -56.499 2.5c-33.333 0 -61.333 -4 -84 -12s-41.167 -22 -55.5 -42s-24.666 -46.833 -30.999 -80.5
s-9.5 -76.5 -9.5 -128.5c0 -50.667 3.33301 -92.834 10 -126.501s17 -60.5 31 -80.5s32.333 -34.167 55 -42.5s50 -12.5 82 -12.5c18 0 37.167 1 57.5 3s39.833 5 58.5 9v-109c-14.667 -5.33301 -33.834 -9.83301 -57.501 -13.5s-49.167 -5.5 -76.5 -5.5z" />
    <glyph glyph-name="cdotaccent" unicode="&#x10b;" horiz-adv-x="411" 
d="M281 -9c-84 0 -146.832 22.333 -188.499 67s-62.5 115.334 -62.5 212.001c0 96 21 166.5 63 211.5s104.667 67.5 188 67.5c34 0 67 -5 99 -15v-108c-16 4 -31 6.83301 -45 8.5s-27.333 2.5 -40 2.5c-44 0 -75.667 -12.833 -95 -38.5s-29 -68.167 -29 -127.5
s9.66699 -102.333 29 -129s50.666 -40 93.999 -40c14 0 28 0.833008 42 2.5s28.667 4.5 44 8.5v-107c-13.333 -4.66699 -28.833 -8.33398 -46.5 -11.001s-35.167 -4 -52.5 -4zM229.001 610c-26.667 0 -46.167 6 -58.5 18s-18.5 31.333 -18.5 58s6.16699 46 18.5 58
s31.833 18 58.5 18c26 0 45.667 -6 59 -18s20 -31.333 20 -58c0 -27.333 -6.66699 -46.833 -20 -58.5s-33 -17.5 -59 -17.5z" />
    <glyph glyph-name="Ccaron" unicode="&#x10c;" horiz-adv-x="499" 
d="M338 -9c-102.667 0 -179 30.501 -229 91.501s-75 156.833 -75 287.5c0 131.333 25.167 227.333 75.5 288s126.166 91 227.499 91c42 0 87 -5 135 -15v-112c-18 3.33301 -37.167 5.83301 -57.5 7.5s-39.166 2.5 -56.499 2.5c-33.333 0 -61.333 -4 -84 -12
s-41.167 -22 -55.5 -42s-24.666 -46.833 -30.999 -80.5s-9.5 -76.5 -9.5 -128.5c0 -50.667 3.33301 -92.834 10 -126.501s17 -60.5 31 -80.5s32.333 -34.167 55 -42.5s50 -12.5 82 -12.5c18 0 37.167 1 57.5 3s39.833 5 58.5 9v-109
c-14.667 -5.33301 -33.834 -9.83301 -57.501 -13.5s-49.167 -5.5 -76.5 -5.5zM144 958.001l154 -72l154 72v-96l-154 -72l-154 72v96z" />
    <glyph glyph-name="ccaron" unicode="&#x10d;" horiz-adv-x="411" 
d="M77 790l154 -72l154 72v-96l-154 -71l-154 71v96zM281 -9c-84 0 -146.832 22.333 -188.499 67s-62.5 115.334 -62.5 212.001c0 96 21 166.5 63 211.5s104.667 67.5 188 67.5c34 0 67 -5 99 -15v-108c-16 4 -31 6.83301 -45 8.5s-27.333 2.5 -40 2.5
c-44 0 -75.667 -12.833 -95 -38.5s-29 -68.167 -29 -127.5s9.66699 -102.333 29 -129s50.666 -40 93.999 -40c14 0 28 0.833008 42 2.5s28.667 4.5 44 8.5v-107c-13.333 -4.66699 -28.833 -8.33398 -46.5 -11.001s-35.167 -4 -52.5 -4z" />
    <glyph glyph-name="Dcaron" unicode="&#x10e;" horiz-adv-x="622" 
d="M144 958l154 -72l154 72v-96l-154 -72l-154 72v96zM224 -14c-22.667 0 -46.833 0.833984 -72.5 2.50098s-55.834 4.16699 -90.501 7.5v741c40 4.66699 73.833 7.83398 101.5 9.50098s53.5 2.5 77.5 2.5c62.667 0 116.167 -7 160.5 -21s80.5 -36.333 108.5 -67
s48.333 -70 61 -118s19 -106 19 -174c0 -68.667 -6.66699 -127.334 -20 -176.001s-34.666 -88.334 -63.999 -119.001s-67 -53 -113 -67s-102 -21 -168 -21zM270.001 101.001c32 0 59.1641 4.50098 81.4971 13.501s40.333 23.833 54 44.5s23.667 48.167 30 82.5
s9.5 77.166 9.5 128.499c0 50 -3 92 -9 126s-16.167 61.333 -30.5 82s-33.166 35.5 -56.499 44.5s-52 13.5 -86 13.5c-13.333 0 -25.166 -0.5 -35.499 -1.5s-20.166 -2.5 -29.499 -4.5v-524c16.667 -2 30.5 -3.33301 41.5 -4s21.167 -1 30.5 -1z" />
    <glyph glyph-name="dcaron" unicode="&#x10f;" horiz-adv-x="526" 
d="M520 808h109l-37 -228h-72v228zM204 -9c-115.333 0 -173 88.333 -173 265c0 97.333 20.667 170.5 62 219.5s103.333 73.5 186 73.5c8 0 16.333 -0.333008 25 -1s20 -2 34 -4v264h136v-808h-125l-8 54h-4c-32 -42 -76.333 -63 -133 -63zM252 89
c13.333 0 25.333 2.8291 36 8.49609s19.667 14.834 27 27.501s13 29.334 17 50.001s6 46 6 76v194c-19.333 7.33301 -40.333 11 -63 11c-18.667 0 -34.667 -3.16699 -48 -9.5s-24.166 -16.666 -32.499 -30.999s-14.333 -33.166 -18 -56.499s-5.5 -52.333 -5.5 -87
c0 -34 1.5 -62.5 4.5 -85.5s7.66699 -41.833 14 -56.5s14.666 -25.167 24.999 -31.5s22.833 -9.5 37.5 -9.5z" />
    <glyph glyph-name="Dcroat" unicode="&#x110;" horiz-adv-x="643" 
d="M-2 425l84.001 0.000976562v312c40 4.66699 73.833 7.83398 101.5 9.50098s53.5 2.5 77.5 2.5c62.667 0 116.167 -7 160.5 -21s80.5 -36.333 108.5 -67s48.333 -70 61 -118s19 -106 19 -174c0 -68.667 -6.66699 -127.334 -20 -176.001s-34.666 -88.334 -63.999 -119.001
s-67 -53 -113 -67s-102 -21 -168 -21c-22.667 0 -46.834 0.833008 -72.501 2.5s-55.834 4.16699 -90.501 7.5v322h-84v107zM291.001 101.001c32 0 59.1641 4.50098 81.4971 13.501s40.333 23.833 54 44.5s23.667 48.167 30 82.5s9.5 77.166 9.5 128.499c0 50 -3 92 -9 126
s-16.167 61.333 -30.5 82s-33.166 35.5 -56.499 44.5s-52 13.5 -86 13.5c-13.333 0 -25.166 -0.5 -35.499 -1.5s-20.166 -2.5 -29.499 -4.5v-205h102v-107h-102v-212c16.667 -2 30.5 -3.33301 41.5 -4s21.167 -1 30.5 -1z" />
    <glyph glyph-name="dcroat" unicode="&#x111;" horiz-adv-x="526" 
d="M203 716h135v92h136v-92h65v-84h-65v-632h-125l-8 54h-4c-32 -42 -76.333 -63 -133 -63c-115.333 0 -173 88.333 -173 265c0 97.333 20.667 170.5 62 219.5s103.333 73.5 186 73.5c8 0 16.333 -0.333008 25 -1s20 -2 34 -4v88h-135v84zM252 89
c13.333 0 25.333 2.8291 36 8.49609s19.667 14.834 27 27.501s13 29.334 17 50.001s6 46 6 76v194c-19.333 7.33301 -40.333 11 -63 11c-18.667 0 -34.667 -3.16699 -48 -9.5s-24.166 -16.666 -32.499 -30.999s-14.333 -33.166 -18 -56.499s-5.5 -52.333 -5.5 -87
c0 -34 1.5 -62.5 4.5 -85.5s7.66699 -41.833 14 -56.5s14.666 -25.167 24.999 -31.5s22.833 -9.5 37.5 -9.5z" />
    <glyph glyph-name="Emacron" unicode="&#x112;" horiz-adv-x="533" 
d="M128 931h297v-93h-297v93zM61 740h432v-118h-292v-191h260v-118h-260v-195h301v-118h-441v740z" />
    <glyph glyph-name="emacron" unicode="&#x113;" horiz-adv-x="483" 
d="M264 -9c-76.667 0 -134.83 22.999 -174.497 68.999s-59.5 113.667 -59.5 203c0 94.667 19.5 166 58.5 214s97.167 72 174.5 72c65.333 0 113.5 -20.333 144.5 -61s46.5 -103.667 46.5 -189c0 -18.667 -0.333008 -33.167 -1 -43.5s-1.66699 -21.166 -3 -32.499h-282
c3.33301 -48 12.666 -81.167 27.999 -99.5s40.666 -27.5 75.999 -27.5c19.333 0 42.666 2.33301 69.999 7s56.666 11.667 87.999 21l5 -102c-23.333 -9.33301 -50.666 -16.833 -81.999 -22.5s-61 -8.5 -89 -8.5zM259.004 445.999c-28 0 -49.333 -10.501 -64 -31.501
s-23.667 -55.5 -27 -103.5h164c-1.33301 48.667 -7.5 83.334 -18.5 104.001s-29.167 31 -54.5 31zM93.0039 715.998h304v-87h-304v87z" />
    <glyph glyph-name="Ebreve" unicode="&#x114;" horiz-adv-x="533" 
d="M281 799c-56 0 -98.5 14.833 -127.5 44.5s-43.5 70.5 -43.5 122.5h95c0 -35.333 5.66699 -60.666 17 -75.999s31 -23 59 -23c26.667 0 45.667 7.66699 57 23s17 40.666 17 75.999h96c0 -52 -14.667 -92.833 -44 -122.5s-71.333 -44.5 -126 -44.5zM61 740h432v-118h-292
v-191h260v-118h-260v-195h301v-118h-441v740z" />
    <glyph glyph-name="ebreve" unicode="&#x115;" horiz-adv-x="483" 
d="M264 -9c-76.667 0 -134.83 22.999 -174.497 68.999s-59.5 113.667 -59.5 203c0 94.667 19.5 166 58.5 214s97.167 72 174.5 72c65.333 0 113.5 -20.333 144.5 -61s46.5 -103.667 46.5 -189c0 -18.667 -0.333008 -33.167 -1 -43.5s-1.66699 -21.166 -3 -32.499h-282
c3.33301 -48 12.666 -81.167 27.999 -99.5s40.666 -27.5 75.999 -27.5c19.333 0 42.666 2.33301 69.999 7s56.666 11.667 87.999 21l5 -102c-23.333 -9.33301 -50.666 -16.833 -81.999 -22.5s-61 -8.5 -89 -8.5zM259.004 445.999c-28 0 -49.333 -10.501 -64 -31.501
s-23.667 -55.5 -27 -103.5h164c-1.33301 48.667 -7.5 83.334 -18.5 104.001s-29.167 31 -54.5 31zM247.004 613.998c-53.333 0 -94.3311 13.167 -122.998 39.5s-44.334 64.833 -47.001 115.5h95c0 -53.333 25 -80 75 -80c48 0 72.667 26.667 74 80h96
c-3.33301 -50.667 -19.333 -89.167 -48 -115.5s-69.334 -39.5 -122.001 -39.5z" />
    <glyph glyph-name="Edotaccent" unicode="&#x116;" horiz-adv-x="533" 
d="M279 798c-26.667 0 -46.167 6 -58.5 18s-18.5 31.333 -18.5 58c0 27.333 6.16699 46.833 18.5 58.5s31.833 17.5 58.5 17.5s46.5 -6 59.5 -18s19.5 -31.333 19.5 -58s-6.5 -46 -19.5 -58s-32.833 -18 -59.5 -18zM61 740h432v-118h-292v-191h260v-118h-260v-195h301v-118
h-441v740z" />
    <glyph glyph-name="edotaccent" unicode="&#x117;" horiz-adv-x="483" 
d="M264 -9c-76.667 0 -134.83 22.999 -174.497 68.999s-59.5 113.667 -59.5 203c0 94.667 19.5 166 58.5 214s97.167 72 174.5 72c65.333 0 113.5 -20.333 144.5 -61s46.5 -103.667 46.5 -189c0 -18.667 -0.333008 -33.167 -1 -43.5s-1.66699 -21.166 -3 -32.499h-282
c3.33301 -48 12.666 -81.167 27.999 -99.5s40.666 -27.5 75.999 -27.5c19.333 0 42.666 2.33301 69.999 7s56.666 11.667 87.999 21l5 -102c-23.333 -9.33301 -50.666 -16.833 -81.999 -22.5s-61 -8.5 -89 -8.5zM259.004 445.999c-28 0 -49.333 -10.501 -64 -31.501
s-23.667 -55.5 -27 -103.5h164c-1.33301 48.667 -7.5 83.334 -18.5 104.001s-29.167 31 -54.5 31zM246.004 609.998c-26.667 0 -46.167 6 -58.5 18s-18.5 31.333 -18.5 58s6.16699 46 18.5 58s31.833 18 58.5 18c26 0 45.667 -6 59 -18s20 -31.333 20 -58
c0 -27.333 -6.66699 -46.833 -20 -58.5s-33 -17.5 -59 -17.5z" />
    <glyph glyph-name="Eogonek" unicode="&#x118;" horiz-adv-x="533" 
d="M61 740h431.999v-118h-292v-191h260v-118h-260v-195h301v-128c-37.333 -14 -63.666 -30.5 -78.999 -49.5s-23 -35.833 -23 -50.5c0 -18.667 13 -28 39 -28c11.333 0 22.5 1.16699 33.5 3.5s20.833 5.16602 29.5 8.49902v-82c-14 -3.33301 -27 -6.16602 -39 -8.49902
s-25 -3.5 -39 -3.5c-76.667 0 -115 32.333 -115 97c0 23.333 6.16699 44.5 18.5 63.5s32.833 38.833 61.5 59.5h-328v740z" />
    <glyph glyph-name="eogonek" unicode="&#x119;" horiz-adv-x="483" 
d="M264 -9c-76.667 0 -134.83 22.999 -174.497 68.999s-59.5 113.667 -59.5 203c0 94.667 19.5 166 58.5 214s97.167 72 174.5 72c65.333 0 113.5 -20.333 144.5 -61s46.5 -103.667 46.5 -189c0 -18.667 -0.333008 -33.167 -1 -43.5s-1.66699 -21.166 -3 -32.499h-282
c3.33301 -48 12.666 -81.167 27.999 -99.5s40.666 -27.5 75.999 -27.5c19.333 0 42.666 2.33301 69.999 7s56.666 11.667 87.999 21l5 -112c-37.333 -14 -63.666 -30.5 -78.999 -49.5s-23 -35.833 -23 -50.5c0 -18.667 13 -28 39 -28c11.333 0 22.5 1.16699 33.5 3.5
s20.833 5.16602 29.5 8.49902v-82c-14 -3.33301 -27 -6.16602 -39 -8.49902s-25 -3.5 -39 -3.5c-76.667 0 -115 32.333 -115 97c0 33.333 14.333 64.333 43 93c-3.33301 -0.666992 -6.83301 -1 -10.5 -1h-10.5zM259.004 445.999c-28 0 -49.333 -10.501 -64 -31.501
s-23.667 -55.5 -27 -103.5h164c-1.33301 48.667 -7.5 83.334 -18.5 104.001s-29.167 31 -54.5 31z" />
    <glyph glyph-name="Ecaron" unicode="&#x11a;" horiz-adv-x="533" 
d="M134 958l154 -72l154 72v-96l-154 -72l-154 72v96zM61 740h432v-118h-292v-191h260v-118h-260v-195h301v-118h-441v740z" />
    <glyph glyph-name="ecaron" unicode="&#x11b;" horiz-adv-x="483" 
d="M94 790l154 -72l154 72v-96l-154 -71l-154 71v96zM264 -9c-76.667 0 -134.83 22.999 -174.497 68.999s-59.5 113.667 -59.5 203c0 94.667 19.5 166 58.5 214s97.167 72 174.5 72c65.333 0 113.5 -20.333 144.5 -61s46.5 -103.667 46.5 -189
c0 -18.667 -0.333008 -33.167 -1 -43.5s-1.66699 -21.166 -3 -32.499h-282c3.33301 -48 12.666 -81.167 27.999 -99.5s40.666 -27.5 75.999 -27.5c19.333 0 42.666 2.33301 69.999 7s56.666 11.667 87.999 21l5 -102c-23.333 -9.33301 -50.666 -16.833 -81.999 -22.5
s-61 -8.5 -89 -8.5zM259.004 445.999c-28 0 -49.333 -10.501 -64 -31.501s-23.667 -55.5 -27 -103.5h164c-1.33301 48.667 -7.5 83.334 -18.5 104.001s-29.167 31 -54.5 31z" />
    <glyph glyph-name="Gcircumflex" unicode="&#x11c;" horiz-adv-x="578" 
d="M338 -9c-104.667 0 -181.667 30.832 -231 92.499s-74 157.167 -74 286.5c0 128.667 27.5 224 82.5 286s139.5 93 253.5 93c22.667 0 47.5 -1.66699 74.5 -5s54.5 -8.33301 82.5 -15v-113c-30 5.33301 -56.5 9.5 -79.5 12.5s-44.167 4.5 -63.5 4.5
c-38 0 -70.167 -4.5 -96.5 -13.5s-47.666 -23.833 -63.999 -44.5s-28 -47.834 -35 -81.501s-10.5 -75.167 -10.5 -124.5s3.16699 -90.666 9.5 -123.999s16.5 -60.166 30.5 -80.499s32.333 -35 55 -44s50.667 -13.5 84 -13.5c8 0 16.167 0.166992 24.5 0.5
s17.166 0.833008 26.499 1.5v267h127v-369c-44 -6 -80.833 -10.167 -110.5 -12.5s-58.167 -3.5 -85.5 -3.5zM176 892.999l155 71l153 -71v-96l-154 72l-154 -72v96z" />
    <glyph glyph-name="gcircumflex" unicode="&#x11d;" horiz-adv-x="525" 
d="M130 713l154 72l154 -72v-95l-154 71l-154 -71v95zM225 -220c-49.333 0 -100.997 7.66797 -154.997 23.001l9 102c27.333 -6.66699 51.666 -11.667 72.999 -15s41.666 -5 60.999 -5c22.667 0 42.167 2.83301 58.5 8.5s29.666 14.834 39.999 27.501s18 29 23 49
s7.5 44.333 7.5 73v27h-5c-30.667 -40 -73.667 -60 -129 -60c-60 0 -104.5 20.167 -133.5 60.5s-43.5 102.166 -43.5 185.499c0 96 21 168.833 63 218.5s103.667 74.5 185 74.5c30 0 60.5 -2.33301 91.5 -7s65.833 -12.334 104.5 -23.001v-447
c0 -194.667 -83.333 -292 -250 -292zM253.003 103.001c26.667 0 47.5 11.165 62.5 33.498s22.5 60.5 22.5 114.5v194c-19.333 7.33301 -40 11 -62 11c-18.667 0 -34.667 -3.16699 -48 -9.5s-24.166 -16.666 -32.499 -30.999s-14.333 -33.166 -18 -56.499
s-5.5 -52.333 -5.5 -87c0 -62 6.16699 -105.667 18.5 -131s33.166 -38 62.499 -38z" />
    <glyph glyph-name="Gbreve" unicode="&#x11e;" horiz-adv-x="578" 
d="M332 799c-56 0 -98.5 14.833 -127.5 44.5s-43.5 70.5 -43.5 122.5h95c0 -35.333 5.66699 -60.666 17 -75.999s31 -23 59 -23c26.667 0 45.667 7.66699 57 23s17 40.666 17 75.999h96c0 -52 -14.667 -92.833 -44 -122.5s-71.333 -44.5 -126 -44.5zM338 -9
c-104.667 0 -181.667 30.832 -231 92.499s-74 157.167 -74 286.5c0 128.667 27.5 224 82.5 286s139.5 93 253.5 93c22.667 0 47.5 -1.66699 74.5 -5s54.5 -8.33301 82.5 -15v-113c-30 5.33301 -56.5 9.5 -79.5 12.5s-44.167 4.5 -63.5 4.5c-38 0 -70.167 -4.5 -96.5 -13.5
s-47.666 -23.833 -63.999 -44.5s-28 -47.834 -35 -81.501s-10.5 -75.167 -10.5 -124.5s3.16699 -90.666 9.5 -123.999s16.5 -60.166 30.5 -80.499s32.333 -35 55 -44s50.667 -13.5 84 -13.5c8 0 16.167 0.166992 24.5 0.5s17.166 0.833008 26.499 1.5v267h127v-369
c-44 -6 -80.833 -10.167 -110.5 -12.5s-58.167 -3.5 -85.5 -3.5z" />
    <glyph glyph-name="gbreve" unicode="&#x11f;" horiz-adv-x="525" 
d="M225 -220c-49.333 0 -100.997 7.66797 -154.997 23.001l9 102c27.333 -6.66699 51.666 -11.667 72.999 -15s41.666 -5 60.999 -5c22.667 0 42.167 2.83301 58.5 8.5s29.666 14.834 39.999 27.501s18 29 23 49s7.5 44.333 7.5 73v27h-5c-30.667 -40 -73.667 -60 -129 -60
c-60 0 -104.5 20.167 -133.5 60.5s-43.5 102.166 -43.5 185.499c0 96 21 168.833 63 218.5s103.667 74.5 185 74.5c30 0 60.5 -2.33301 91.5 -7s65.833 -12.334 104.5 -23.001v-447c0 -194.667 -83.333 -292 -250 -292zM253.003 103.001c26.667 0 47.5 11.165 62.5 33.498
s22.5 60.5 22.5 114.5v194c-19.333 7.33301 -40 11 -62 11c-18.667 0 -34.667 -3.16699 -48 -9.5s-24.166 -16.666 -32.499 -30.999s-14.333 -33.166 -18 -56.499s-5.5 -52.333 -5.5 -87c0 -62 6.16699 -105.667 18.5 -131s33.166 -38 62.499 -38zM277.003 613.999
c-53.333 0 -94.3311 13.167 -122.998 39.5s-44.334 64.833 -47.001 115.5h95c0 -53.333 25 -80 75 -80c48 0 72.667 26.667 74 80h96c-3.33301 -50.667 -19.333 -89.167 -48 -115.5s-69.334 -39.5 -122.001 -39.5z" />
    <glyph glyph-name="Gdotaccent" unicode="&#x120;" horiz-adv-x="578" 
d="M330 798c-26.667 0 -46.167 6 -58.5 18s-18.5 31.333 -18.5 58c0 27.333 6.16699 46.833 18.5 58.5s31.833 17.5 58.5 17.5s46.5 -6 59.5 -18s19.5 -31.333 19.5 -58s-6.5 -46 -19.5 -58s-32.833 -18 -59.5 -18zM338 -9c-104.667 0 -181.667 30.832 -231 92.499
s-74 157.167 -74 286.5c0 128.667 27.5 224 82.5 286s139.5 93 253.5 93c22.667 0 47.5 -1.66699 74.5 -5s54.5 -8.33301 82.5 -15v-113c-30 5.33301 -56.5 9.5 -79.5 12.5s-44.167 4.5 -63.5 4.5c-38 0 -70.167 -4.5 -96.5 -13.5s-47.666 -23.833 -63.999 -44.5
s-28 -47.834 -35 -81.501s-10.5 -75.167 -10.5 -124.5s3.16699 -90.666 9.5 -123.999s16.5 -60.166 30.5 -80.499s32.333 -35 55 -44s50.667 -13.5 84 -13.5c8 0 16.167 0.166992 24.5 0.5s17.166 0.833008 26.499 1.5v267h127v-369c-44 -6 -80.833 -10.167 -110.5 -12.5
s-58.167 -3.5 -85.5 -3.5z" />
    <glyph glyph-name="gdotaccent" unicode="&#x121;" horiz-adv-x="525" 
d="M225 -220c-49.333 0 -100.997 7.66797 -154.997 23.001l9 102c27.333 -6.66699 51.666 -11.667 72.999 -15s41.666 -5 60.999 -5c22.667 0 42.167 2.83301 58.5 8.5s29.666 14.834 39.999 27.501s18 29 23 49s7.5 44.333 7.5 73v27h-5c-30.667 -40 -73.667 -60 -129 -60
c-60 0 -104.5 20.167 -133.5 60.5s-43.5 102.166 -43.5 185.499c0 96 21 168.833 63 218.5s103.667 74.5 185 74.5c30 0 60.5 -2.33301 91.5 -7s65.833 -12.334 104.5 -23.001v-447c0 -194.667 -83.333 -292 -250 -292zM253.003 103.001c26.667 0 47.5 11.165 62.5 33.498
s22.5 60.5 22.5 114.5v194c-19.333 7.33301 -40 11 -62 11c-18.667 0 -34.667 -3.16699 -48 -9.5s-24.166 -16.666 -32.499 -30.999s-14.333 -33.166 -18 -56.499s-5.5 -52.333 -5.5 -87c0 -62 6.16699 -105.667 18.5 -131s33.166 -38 62.499 -38zM277.003 609.999
c-26.667 0 -46.167 6 -58.5 18s-18.5 31.333 -18.5 58s6.16699 46 18.5 58s31.833 18 58.5 18c26 0 45.667 -6 59 -18s20 -31.333 20 -58c0 -27.333 -6.66699 -46.833 -20 -58.5s-33 -17.5 -59 -17.5z" />
    <glyph glyph-name="Gcommaaccent" unicode="&#x122;" horiz-adv-x="578" 
d="M272 -69h140l-80 -151h-104zM338 -9c-104.667 0 -181.667 30.832 -231 92.499s-74 157.167 -74 286.5c0 128.667 27.5 224 82.5 286s139.5 93 253.5 93c22.667 0 47.5 -1.66699 74.5 -5s54.5 -8.33301 82.5 -15v-113c-30 5.33301 -56.5 9.5 -79.5 12.5
s-44.167 4.5 -63.5 4.5c-38 0 -70.167 -4.5 -96.5 -13.5s-47.666 -23.833 -63.999 -44.5s-28 -47.834 -35 -81.501s-10.5 -75.167 -10.5 -124.5s3.16699 -90.666 9.5 -123.999s16.5 -60.166 30.5 -80.499s32.333 -35 55 -44s50.667 -13.5 84 -13.5
c8 0 16.167 0.166992 24.5 0.5s17.166 0.833008 26.499 1.5v267h127v-369c-44 -6 -80.833 -10.167 -110.5 -12.5s-58.167 -3.5 -85.5 -3.5z" />
    <glyph glyph-name="gcommaaccent" unicode="&#x123;" horiz-adv-x="525" 
d="M410 787l-44 -150h-138l80 150h102zM225 -220c-49.333 0 -100.997 7.66797 -154.997 23.001l9 102c27.333 -6.66699 51.666 -11.667 72.999 -15s41.666 -5 60.999 -5c22.667 0 42.167 2.83301 58.5 8.5s29.666 14.834 39.999 27.501s18 29 23 49s7.5 44.333 7.5 73v27h-5
c-30.667 -40 -73.667 -60 -129 -60c-60 0 -104.5 20.167 -133.5 60.5s-43.5 102.166 -43.5 185.499c0 96 21 168.833 63 218.5s103.667 74.5 185 74.5c30 0 60.5 -2.33301 91.5 -7s65.833 -12.334 104.5 -23.001v-447c0 -194.667 -83.333 -292 -250 -292zM253.003 103.001
c26.667 0 47.5 11.165 62.5 33.498s22.5 60.5 22.5 114.5v194c-19.333 7.33301 -40 11 -62 11c-18.667 0 -34.667 -3.16699 -48 -9.5s-24.166 -16.666 -32.499 -30.999s-14.333 -33.166 -18 -56.499s-5.5 -52.333 -5.5 -87c0 -62 6.16699 -105.667 18.5 -131
s33.166 -38 62.499 -38z" />
    <glyph glyph-name="Hcircumflex" unicode="&#x124;" horiz-adv-x="660" 
d="M61 740h140v-303h258v303h140v-740h-140v318h-258v-318h-140v740zM172 893l155 71l153 -71v-96l-154 72l-154 -72v96z" />
    <glyph glyph-name="hcircumflex" unicode="&#x125;" horiz-adv-x="521" 
d="M121 915l154 72l154 -72v-95l-154 71l-154 -71v95zM51 808l136.997 0.000976562v-320c18.667 12 35.334 21.833 50.001 29.5s28.334 14 41.001 19s24.834 8.5 36.501 10.5s23.834 3 36.501 3c39.333 0 69.166 -12.333 89.499 -37s30.5 -60.334 30.5 -107.001v-406h-136
v360c0 46.667 -17 70 -51 70c-28 0 -60.333 -12 -97 -36v-394h-137v808z" />
    <glyph glyph-name="Hbar" unicode="&#x126;" horiz-adv-x="688" 
d="M-2 607h75v133h140v-133h258v133h140v-133h85v-66h-85v-541h-140v318h-258v-318h-140v541h-75v66zM471 437v104h-258v-104h258z" />
    <glyph glyph-name="hbar" unicode="&#x127;" horiz-adv-x="522" 
d="M-25 716l76.9971 0.000976562v92h137v-92h122v-84h-122v-144c18.667 12 35.334 21.833 50.001 29.5s28.334 14 41.001 19s24.834 8.5 36.501 10.5s23.834 3 36.501 3c39.333 0 69.166 -12.333 89.499 -37s30.5 -60.334 30.5 -107.001v-406h-136v360
c0 46.667 -17 70 -51 70c-28 0 -60.333 -12 -97 -36v-394h-137v632h-77v84z" />
    <glyph glyph-name="Itilde" unicode="&#x128;" horiz-adv-x="261" 
d="M61 740h140v-740h-140v740zM-40 839c17.333 33.333 37.167 59 59.5 77s44.5 27 66.5 27c12.667 0 25.167 -2.16699 37.5 -6.5s24.333 -9 36 -14s23.334 -9.5 35.001 -13.5s23.5 -6 35.5 -6s23.667 3 35 9s23 16 35 30l24 -21c-16 -35.333 -35.167 -61.833 -57.5 -79.5
s-44.833 -26.5 -67.5 -26.5c-12.667 0 -25 2 -37 6s-23.833 8.5 -35.5 13.5s-23.334 9.5 -35.001 13.5s-23.5 6 -35.5 6c-25.333 0 -50 -12.333 -74 -37z" />
    <glyph glyph-name="itilde" unicode="&#x129;" horiz-adv-x="242" 
d="M-51 658c17.333 31.333 37.167 55.001 59.5 71.001s44.833 24 67.5 24c12.667 0 25 -2.83301 37 -8.5s23.667 -11.834 35 -18.501s22.833 -12.834 34.5 -18.501s23.834 -8.5 36.501 -8.5c22 0 43 14.333 63 43l31 -34c-16 -33.333 -35.167 -57.666 -57.5 -72.999
s-44.833 -23 -67.5 -23c-12.667 0 -25 2.66699 -37 8s-23.833 11.333 -35.5 18s-23.334 12.667 -35.001 18s-23.5 8 -35.5 8c-23.333 0 -45 -13.333 -65 -40zM53.001 540.001h136v-540h-136v540z" />
    <glyph glyph-name="Imacron" unicode="&#x12a;" horiz-adv-x="261" 
d="M61 740h140v-740h-140v740zM-20 931h297v-93h-297v93z" />
    <glyph glyph-name="imacron" unicode="&#x12b;" horiz-adv-x="242" 
d="M53 540h136v-540h-136v540zM-26 716h304v-87h-304v87z" />
    <glyph glyph-name="Ibreve" unicode="&#x12c;" horiz-adv-x="261" 
d="M61 740h140v-740h-140v740zM133 799c-56 0 -98.5 14.833 -127.5 44.5s-43.5 70.5 -43.5 122.5h95c0 -35.333 5.66699 -60.666 17 -75.999s31 -23 59 -23c26.667 0 45.667 7.66699 57 23s17 40.666 17 75.999h96c0 -52 -14.667 -92.833 -44 -122.5
s-71.333 -44.5 -126 -44.5z" />
    <glyph glyph-name="ibreve" unicode="&#x12d;" horiz-adv-x="242" 
d="M126 614c-53.333 0 -94.498 13.167 -123.498 39.5s-44.5 64.833 -46.5 115.5h94c1.33301 -53.333 26.666 -80 75.999 -80c48 0 72.667 26.667 74 80h96c-3.33301 -50.667 -19.333 -89.167 -48 -115.5s-69.334 -39.5 -122.001 -39.5zM53.002 540h136v-540h-136v540z" />
    <glyph glyph-name="Iogonek" unicode="&#x12e;" horiz-adv-x="261" 
d="M61 740h139.999v-750c-37.333 -14 -63.666 -30.5 -78.999 -49.5s-23 -35.833 -23 -50.5c0 -18.667 13 -28 39 -28c11.333 0 22.5 1.16699 33.5 3.5s20.833 5.16602 29.5 8.49902v-82c-14 -3.33301 -27 -6.16602 -39 -8.49902s-25 -3.5 -39 -3.5
c-76.667 0 -115 32.333 -115 97c0 23.333 6.16699 44.5 18.5 63.5s32.833 38.833 61.5 59.5h-27v740z" />
    <glyph glyph-name="iogonek" unicode="&#x12f;" horiz-adv-x="240" 
d="M52 540h135.999v-550c-37.333 -14 -63.666 -30.5 -78.999 -49.5s-23 -35.833 -23 -50.5c0 -18.667 13 -28 39 -28c11.333 0 22.5 1.16699 33.5 3.5s20.833 5.16602 29.5 8.49902v-82c-14 -3.33301 -27 -6.16602 -39 -8.49902s-25 -3.5 -39 -3.5
c-76.667 0 -115 32.333 -115 97c0 23.333 6.16699 44.5 18.5 63.5s32.833 38.833 61.5 59.5h-23v540zM119.999 627c-27.333 0 -46.999 6 -58.999 18s-18 31.333 -18 58s6 46 18 58s31.667 18 59 18s47.166 -6.16699 59.499 -18.5s18.5 -31.5 18.5 -57.5
s-6 -45.167 -18 -57.5s-32 -18.5 -60 -18.5z" />
    <glyph glyph-name="Idotaccent" unicode="&#x130;" horiz-adv-x="261" 
d="M61 740h140v-740h-140v740zM131 798c-26.667 0 -46.167 6 -58.5 18s-18.5 31.333 -18.5 58c0 27.333 6.16699 46.833 18.5 58.5s31.833 17.5 58.5 17.5s46.5 -6 59.5 -18s19.5 -31.333 19.5 -58s-6.5 -46 -19.5 -58s-32.833 -18 -59.5 -18z" />
    <glyph glyph-name="dotlessi" unicode="&#x131;" horiz-adv-x="240" 
d="M52 540h136v-540h-136v540z" />
    <glyph glyph-name="IJ" unicode="&#x132;" horiz-adv-x="523" 
d="M61 740h140v-740h-140v740zM246 -160c15.333 34 27.999 65 37.999 93s18 55.5 24 82.5s10.167 54.5 12.5 82.5s3.5 59.333 3.5 94v548h140v-560c0 -33.333 -2.33301 -65.333 -7 -96s-12.167 -61.167 -22.5 -91.5s-23.666 -61.333 -39.999 -93s-36.5 -65.167 -60.5 -100.5
z" />
    <glyph glyph-name="ij" unicode="&#x133;" horiz-adv-x="480" 
d="M120 627c-27.333 0 -46.999 6 -58.999 18s-18 31.333 -18 58s6 46 18 58s31.667 18 59 18s47.166 -6.16699 59.499 -18.5s18.5 -31.5 18.5 -57.5s-6 -45.167 -18 -57.5s-32 -18.5 -60 -18.5zM52.001 540h136v-540h-136v540zM360.001 627c-26.667 0 -46.167 6 -58.5 18
s-18.5 31.333 -18.5 58s6 46 18 58s31.667 18 59 18c28 0 48.167 -6.16699 60.5 -18.5s18.5 -31.5 18.5 -57.5s-6.16699 -45.167 -18.5 -57.5s-32.5 -18.5 -60.5 -18.5zM243.001 -190c15.333 40 27.333 86.166 36 138.499s13 106.833 13 163.5v428h137v-462
c0 -23.333 -2.33301 -48.166 -7 -74.499s-11 -52.666 -19 -78.999s-17.667 -51.833 -29 -76.5s-24 -47.334 -38 -68.001z" />
    <glyph glyph-name="Jcircumflex" unicode="&#x134;" horiz-adv-x="262" 
d="M-15 -160c15.333 34 27.999 65 37.999 93s18 55.5 24 82.5s10.167 54.5 12.5 82.5s3.5 59.333 3.5 94v548h140v-560c0 -33.333 -2.33301 -65.333 -7 -96s-12.167 -61.167 -22.5 -91.5s-23.666 -61.333 -39.999 -93s-36.5 -65.167 -60.5 -100.5zM-20.001 893l155 71
l153 -71v-96l-154 72l-154 -72v96z" />
    <glyph glyph-name="jcircumflex" unicode="&#x135;" horiz-adv-x="238" 
d="M-31 713l155 72l153 -72v-95l-154 71l-154 -71v95zM-2 -199c10 28.667 18.668 55.666 26.001 80.999s13.166 51.833 17.499 79.5s7.5 57.5 9.5 89.5s3 69.333 3 112v57c0 27.333 -0.166992 58.833 -0.5 94.5s-0.833008 73.334 -1.5 113.001
s-1.33398 77.167 -2.00098 112.5h137v-463c-3.33301 -51.333 -12.166 -101.5 -26.499 -150.5s-35.5 -97.833 -63.5 -146.5z" />
    <glyph glyph-name="Kcommaaccent" unicode="&#x136;" horiz-adv-x="605" 
d="M246 -69h140l-80 -151h-104zM61 740h140v-303h76l157 303h156l-177 -333l-49 -27v-6l50 -26l196 -348h-156l-181 318h-72v-318h-140v740z" />
    <glyph glyph-name="kcommaaccent" unicode="&#x137;" horiz-adv-x="503" 
d="M207 -69h140l-80 -151h-104zM51 808h137v-479h44l116 211h148l-153 -251l-22 -9v-3l23 -10l169 -267h-149l-132 228h-44v-228h-137v808z" />
    <glyph glyph-name="kgreenlandic" unicode="&#x138;" horiz-adv-x="494" 
d="M51 540h137v-211h43l107 211h148l-145 -253l-21 -7v-3l21 -8l162 -269h-149l-124 228h-42v-228h-137v540z" />
    <glyph glyph-name="Lacute" unicode="&#x139;" horiz-adv-x="448" 
d="M83 796l69 165h141l-110 -173zM61 740h140v-622h235v-118h-375v740z" />
    <glyph glyph-name="lacute" unicode="&#x13a;" horiz-adv-x="241" 
d="M71 844l68 186h141l-111 -195zM52 808h137v-808h-137v808z" />
    <glyph glyph-name="Lcommaaccent" unicode="&#x13b;" horiz-adv-x="448" 
d="M187 -69h140l-80 -151h-104zM61 740h140v-622h235v-118h-375v740z" />
    <glyph glyph-name="lcommaaccent" unicode="&#x13c;" horiz-adv-x="241" 
d="M56 -69h140l-80 -151h-104zM52 808h137v-808h-137v808z" />
    <glyph glyph-name="Lcaron" unicode="&#x13d;" horiz-adv-x="482" 
d="M365 785h109l-37 -228h-72v228zM61 740h140v-622h235v-118h-375v740z" />
    <glyph glyph-name="lcaron" unicode="&#x13e;" horiz-adv-x="242" 
d="M235 808h109l-37 -228h-72v228zM52 808h137v-808h-137v808z" />
    <glyph glyph-name="Ldot" unicode="&#x13f;" horiz-adv-x="464" 
d="M61 740h140v-622h235v-118h-375v740zM360 294c-27.333 0 -47 6 -59 18s-18 31.333 -18 58s6 46 18 58s31.667 18 59 18c26 0 45.5 -6 58.5 -18s19.5 -31.333 19.5 -58s-6.5 -46 -19.5 -58s-32.5 -18 -58.5 -18z" />
    <glyph glyph-name="ldot" unicode="&#x140;" horiz-adv-x="368" 
d="M52 808h137v-808h-137v808zM305 294c-27.333 0 -47 6 -59 18s-18 31.333 -18 58s6 46 18 58s31.667 18 59 18c26 0 45.5 -6 58.5 -18s19.5 -31.333 19.5 -58s-6.5 -46 -19.5 -58s-32.5 -18 -58.5 -18z" />
    <glyph glyph-name="Lslash" unicode="&#x141;" horiz-adv-x="466" 
d="M8 330l71 46v364h140v-273l101 66v-107l-101 -66v-242h235v-118h-375v270l-71 -46v106z" />
    <glyph glyph-name="lslash" unicode="&#x142;" horiz-adv-x="337" 
d="M15 338l83 53v417h137v-328l91 59v-101l-91 -59v-379h-137v290l-83 -54v102z" />
    <glyph glyph-name="Nacute" unicode="&#x143;" horiz-adv-x="672" 
d="M274 796l69 165h141l-110 -173zM61 740h119l259 -414l40 -80h8v494h125v-740h-119l-260 415l-39 81h-9v-496h-124v740z" />
    <glyph glyph-name="nacute" unicode="&#x144;" horiz-adv-x="521" 
d="M216 619l68 186h141l-111 -195zM51 540h116.003l8 -58h4l53 32.5c15.333 9 29.666 16 42.999 21s26.166 8.66699 38.499 11s25.166 3.5 38.499 3.5c39.333 0 69.166 -12.333 89.499 -37s30.5 -60.334 30.5 -107.001v-406h-136v360c0 25.333 -4.5 43.333 -13.5 54
s-21.5 16 -37.5 16c-14.667 0 -30.167 -3.16699 -46.5 -9.5s-33.166 -15.166 -50.499 -26.499v-394h-137v540z" />
    <glyph glyph-name="Ncommaaccent" unicode="&#x145;" horiz-adv-x="672" 
d="M284 -69h140l-80 -151h-104zM61 740h119l259 -414l40 -80h8v494h125v-740h-119l-260 415l-39 81h-9v-496h-124v740z" />
    <glyph glyph-name="ncommaaccent" unicode="&#x146;" horiz-adv-x="521" 
d="M200 -69h140l-80 -151h-104zM51 540h116.003l8 -58h4l53 32.5c15.333 9 29.666 16 42.999 21s26.166 8.66699 38.499 11s25.166 3.5 38.499 3.5c39.333 0 69.166 -12.333 89.499 -37s30.5 -60.334 30.5 -107.001v-406h-136v360c0 25.333 -4.5 43.333 -13.5 54
s-21.5 16 -37.5 16c-14.667 0 -30.167 -3.16699 -46.5 -9.5s-33.166 -15.166 -50.499 -26.499v-394h-137v540z" />
    <glyph glyph-name="Ncaron" unicode="&#x147;" horiz-adv-x="672" 
d="M185 958l154 -72l154 72v-96l-154 -72l-154 72v96zM61 740h119l259 -414l40 -80h8v494h125v-740h-119l-260 415l-39 81h-9v-496h-124v740z" />
    <glyph glyph-name="ncaron" unicode="&#x148;" horiz-adv-x="521" 
d="M115 790l154 -72l154 72v-96l-154 -71l-154 71v96zM51 540h116.003l8 -58h4l53 32.5c15.333 9 29.666 16 42.999 21s26.166 8.66699 38.499 11s25.166 3.5 38.499 3.5c39.333 0 69.166 -12.333 89.499 -37s30.5 -60.334 30.5 -107.001v-406h-136v360
c0 25.333 -4.5 43.333 -13.5 54s-21.5 16 -37.5 16c-14.667 0 -30.167 -3.16699 -46.5 -9.5s-33.166 -15.166 -50.499 -26.499v-394h-137v540z" />
    <glyph glyph-name="napostrophe" unicode="&#x149;" horiz-adv-x="589" 
d="M129 808v-4l-39 -224h-70v228h109zM119 540h116.003l8 -58h4l53 32.5c15.333 9 29.666 16 42.999 21s26.166 8.66699 38.499 11s25.166 3.5 38.499 3.5c39.333 0 69.166 -12.333 89.499 -37s30.5 -60.334 30.5 -107.001v-406h-136v360c0 25.333 -4.5 43.333 -13.5 54
s-21.5 16 -37.5 16c-14.667 0 -30.167 -3.16699 -46.5 -9.5s-33.166 -15.166 -50.499 -26.499v-394h-137v540z" />
    <glyph glyph-name="Eng" unicode="&#x14a;" horiz-adv-x="671" 
d="M404 -170c14 38 25.999 75.165 35.999 111.498s17.667 71.833 23 106.5l-230 368l-38 83l-9 -1v-498h-125v740h117l260 -415l39 -82h9v497h126v-637c0 -17.333 -3 -38.166 -9 -62.499s-14.167 -50 -24.5 -77s-22.666 -54.667 -36.999 -83s-29.5 -55.166 -45.5 -80.499z
" />
    <glyph glyph-name="eng" unicode="&#x14b;" horiz-adv-x="520" 
d="M284 -199c7.33301 20 14.1689 42.168 20.502 66.501s11.833 49 16.5 74s8.33398 49.833 11.001 74.5s4 47.667 4 69v275c0 46.667 -17 70 -51 70c-26.667 0 -59 -12 -97 -36v-394h-137v540h116l8 -58h4l53 32.5c15.333 9 29.666 16 42.999 21s26.166 8.66699 38.499 11
s25.166 3.5 38.499 3.5c39.333 0 69.166 -12.333 89.499 -37s30.5 -60.334 30.5 -107.001v-325c0 -23.333 -2.16699 -48.333 -6.5 -75s-10.166 -53.5 -17.499 -80.5s-16 -53 -26 -78s-21 -46.833 -33 -65.5z" />
    <glyph glyph-name="Omacron" unicode="&#x14c;" horiz-adv-x="653" 
d="M175 931h297v-93h-297v93zM326 -10c-98.667 0 -171.999 31.167 -219.999 93.5s-72 157.5 -72 285.5c0 128.667 24 224.334 72 287.001s121.333 94 220 94c99.333 0 173.166 -31.333 221.499 -94s72.5 -158.334 72.5 -287.001s-24 -224 -72 -286s-122 -93 -222 -93z
M326.001 107c27.333 0 50.5 4.66602 69.5 13.999s34.5 24.5 46.5 45.5s20.667 48 26 81s8 73.5 8 121.5s-2.66699 88.833 -8 122.5s-14 61 -26 82s-27.5 36.333 -46.5 46s-42.167 14.5 -69.5 14.5c-26.667 0 -49.5 -4.83301 -68.5 -14.5s-34.5 -25 -46.5 -46
s-20.667 -48.333 -26 -82s-8 -74.5 -8 -122.5c0 -47.333 2.66699 -87.666 8 -120.999s14 -60.5 26 -81.5s27.333 -36.167 46 -45.5s41.667 -14 69 -14z" />
    <glyph glyph-name="omacron" unicode="&#x14d;" horiz-adv-x="521" 
d="M108 716h304v-87h-304v87zM260 -10c-76 0 -133.333 23.667 -172 71s-58 117 -58 209c0 92.667 19.333 162.5 58 209.5s96 70.5 172 70.5s133.333 -23.5 172 -70.5s58 -116.833 58 -209.5s-19.333 -162.5 -58 -209.5s-96 -70.5 -172 -70.5zM260 96
c17.333 0 32 2.66699 44 8s21.667 14.666 29 27.999s12.5 31.166 15.5 53.499s4.5 50.5 4.5 84.5s-1.5 62.167 -4.5 84.5s-8.16699 40.166 -15.5 53.499s-17 22.666 -29 27.999s-26.667 8 -44 8s-32 -2.66699 -44 -8s-21.5 -14.666 -28.5 -27.999s-12 -31.166 -15 -53.499
s-4.5 -50.5 -4.5 -84.5c0 -33.333 1.5 -61.166 4.5 -83.499s8 -40.166 15 -53.499s16.5 -22.833 28.5 -28.5s26.667 -8.5 44 -8.5z" />
    <glyph glyph-name="Obreve" unicode="&#x14e;" horiz-adv-x="653" 
d="M328 799c-56 0 -98.5 14.833 -127.5 44.5s-43.5 70.5 -43.5 122.5h95c0 -35.333 5.66699 -60.666 17 -75.999s31 -23 59 -23c26.667 0 45.667 7.66699 57 23s17 40.666 17 75.999h96c0 -52 -14.667 -92.833 -44 -122.5s-71.333 -44.5 -126 -44.5zM326 -10
c-98.667 0 -171.999 31.167 -219.999 93.5s-72 157.5 -72 285.5c0 128.667 24 224.334 72 287.001s121.333 94 220 94c99.333 0 173.166 -31.333 221.499 -94s72.5 -158.334 72.5 -287.001s-24 -224 -72 -286s-122 -93 -222 -93zM326.001 107
c27.333 0 50.5 4.66602 69.5 13.999s34.5 24.5 46.5 45.5s20.667 48 26 81s8 73.5 8 121.5s-2.66699 88.833 -8 122.5s-14 61 -26 82s-27.5 36.333 -46.5 46s-42.167 14.5 -69.5 14.5c-26.667 0 -49.5 -4.83301 -68.5 -14.5s-34.5 -25 -46.5 -46s-20.667 -48.333 -26 -82
s-8 -74.5 -8 -122.5c0 -47.333 2.66699 -87.666 8 -120.999s14 -60.5 26 -81.5s27.333 -36.167 46 -45.5s41.667 -14 69 -14z" />
    <glyph glyph-name="obreve" unicode="&#x14f;" horiz-adv-x="521" 
d="M260 -10c-76 0 -133.333 23.667 -172 71s-58 117 -58 209c0 92.667 19.333 162.5 58 209.5s96 70.5 172 70.5s133.333 -23.5 172 -70.5s58 -116.833 58 -209.5s-19.333 -162.5 -58 -209.5s-96 -70.5 -172 -70.5zM260 96c17.333 0 32 2.66699 44 8
s21.667 14.666 29 27.999s12.5 31.166 15.5 53.499s4.5 50.5 4.5 84.5s-1.5 62.167 -4.5 84.5s-8.16699 40.166 -15.5 53.499s-17 22.666 -29 27.999s-26.667 8 -44 8s-32 -2.66699 -44 -8s-21.5 -14.666 -28.5 -27.999s-12 -31.166 -15 -53.499s-4.5 -50.5 -4.5 -84.5
c0 -33.333 1.5 -61.166 4.5 -83.499s8 -40.166 15 -53.499s16.5 -22.833 28.5 -28.5s26.667 -8.5 44 -8.5zM260 614c-53.333 0 -94.3311 13.167 -122.998 39.5s-44.334 64.833 -47.001 115.5h95c0 -53.333 25 -80 75 -80c48 0 72.667 26.667 74 80h96
c-3.33301 -50.667 -19.333 -89.167 -48 -115.5s-69.334 -39.5 -122.001 -39.5z" />
    <glyph glyph-name="Ohungarumlaut" unicode="&#x150;" horiz-adv-x="653" 
d="M326 -10c-98.667 0 -171.999 31.167 -219.999 93.5s-72 157.5 -72 285.5c0 128.667 24 224.334 72 287.001s121.333 94 220 94c99.333 0 173.166 -31.333 221.499 -94s72.5 -158.334 72.5 -287.001s-24 -224 -72 -286s-122 -93 -222 -93zM326.001 107
c27.333 0 50.5 4.66602 69.5 13.999s34.5 24.5 46.5 45.5s20.667 48 26 81s8 73.5 8 121.5s-2.66699 88.833 -8 122.5s-14 61 -26 82s-27.5 36.333 -46.5 46s-42.167 14.5 -69.5 14.5c-26.667 0 -49.5 -4.83301 -68.5 -14.5s-34.5 -25 -46.5 -46s-20.667 -48.333 -26 -82
s-8 -74.5 -8 -122.5c0 -47.333 2.66699 -87.666 8 -120.999s14 -60.5 26 -81.5s27.333 -36.167 46 -45.5s41.667 -14 69 -14zM189.001 799.999l69 161h117l-111 -173zM363.001 799.999l69 161h116l-110 -173z" />
    <glyph glyph-name="ohungarumlaut" unicode="&#x151;" horiz-adv-x="521" 
d="M124 620l68 185h117l-111 -195zM303 620l68 185h117l-111 -195zM260 -10c-76 0 -133.333 23.667 -172 71s-58 117 -58 209c0 92.667 19.333 162.5 58 209.5s96 70.5 172 70.5s133.333 -23.5 172 -70.5s58 -116.833 58 -209.5s-19.333 -162.5 -58 -209.5
s-96 -70.5 -172 -70.5zM260 96c17.333 0 32 2.66699 44 8s21.667 14.666 29 27.999s12.5 31.166 15.5 53.499s4.5 50.5 4.5 84.5s-1.5 62.167 -4.5 84.5s-8.16699 40.166 -15.5 53.499s-17 22.666 -29 27.999s-26.667 8 -44 8s-32 -2.66699 -44 -8
s-21.5 -14.666 -28.5 -27.999s-12 -31.166 -15 -53.499s-4.5 -50.5 -4.5 -84.5c0 -33.333 1.5 -61.166 4.5 -83.499s8 -40.166 15 -53.499s16.5 -22.833 28.5 -28.5s26.667 -8.5 44 -8.5z" />
    <glyph glyph-name="OE" unicode="&#x152;" horiz-adv-x="881" 
d="M338 -7c-98.667 0 -174.167 31.167 -226.5 93.5s-78.5 156.833 -78.5 283.5c0 126 26.333 220.333 79 283s128 94 226 94c17.333 0 34.5 -0.833008 51.5 -2.5l46.5 -4.5h402v-118h-263v-189h246v-111h-246v-204h272v-118h-411c-14 -3.33301 -29.5 -5.33301 -46.5 -6
s-34.167 -1 -51.5 -1zM355 111c12 0 25 0.333008 39 1s27.667 2.33398 41 5.00098v505c-29.333 4 -56.333 6 -81 6c-34 0 -62.5 -4.66699 -85.5 -14s-41.5 -24.333 -55.5 -45s-24 -47.5 -30 -80.5s-9 -72.833 -9 -119.5c0 -47.333 3 -87.333 9 -120s16 -59.334 30 -80.001
s32.667 -35.5 56 -44.5s52 -13.5 86 -13.5z" />
    <glyph glyph-name="oe" unicode="&#x153;" horiz-adv-x="807" 
d="M588 -9c-37.333 0 -69.334 7.16797 -96.001 21.501s-48.667 35.166 -66 62.499h-7c-34.667 -56.667 -87.667 -85 -159 -85c-76 0 -133.333 23.667 -172 71s-58 117 -58 209c0 92.667 19.333 162.5 58 209.5s96 70.5 172 70.5c72.667 0 125.667 -29 159 -87h8
c34.667 57.333 88 86 160 86c65.333 0 113.5 -20.333 144.5 -61s46.5 -103.667 46.5 -189c0 -18.667 -0.333008 -33 -1 -43s-2 -20.667 -4 -32h-282c2.66699 -46.667 12 -79.667 28 -99s41.667 -29 77 -29c19.333 0 42.5 2.33301 69.5 7s56.5 11.667 88.5 21l5 -102
c-23.333 -9.33301 -50.666 -16.833 -81.999 -22.5s-61 -8.5 -89 -8.5zM259.999 96.001c17.333 0 32 2.66699 44 8s21.667 14.666 29 27.999s12.5 31.166 15.5 53.499s4.5 50.5 4.5 84.5s-1.5 62.167 -4.5 84.5s-8.16699 40.166 -15.5 53.499s-17 22.666 -29 27.999
s-26.667 8 -44 8s-32 -2.66699 -44 -8s-21.5 -14.666 -28.5 -27.999s-12 -31.166 -15 -53.499s-4.5 -50.5 -4.5 -84.5c0 -33.333 1.5 -61.166 4.5 -83.499s8 -40.166 15 -53.499s16.5 -22.833 28.5 -28.5s26.667 -8.5 44 -8.5zM655.999 310.001
c-1.33301 49.333 -7.5 84.333 -18.5 105s-29.167 31 -54.5 31c-28.667 0 -50.5 -10.833 -65.5 -32.5s-23.833 -56.167 -26.5 -103.5h165z" />
    <glyph glyph-name="Racute" unicode="&#x154;" horiz-adv-x="584" 
d="M303 259c-7.33301 -0.666992 -14.668 -1.00195 -22.001 -1.00195h-23h-12h-16.5c-5.66699 0 -11.167 0.166992 -16.5 0.5s-9.33301 0.5 -12 0.5v-259h-140v735c54.667 10 114.334 15 179.001 15c108.667 0 187.667 -19.667 237 -59s74 -102.666 74 -189.999
c0 -55.333 -10 -100.666 -30 -135.999s-51 -62 -93 -80l141 -285h-145zM261.998 366.998c26.667 0 49.335 2.33105 68.002 6.99805s33.667 12.334 45 23.001s19.666 24.5 24.999 41.5s8 37.833 8 62.5c0 48.667 -10.833 83.167 -32.5 103.5s-59.5 30.5 -113.5 30.5
c-7.33301 0 -16.833 -0.666992 -28.5 -2s-22.5 -2.66602 -32.5 -3.99902v-258c9.33301 -1.33301 19.666 -2.33301 30.999 -3s21.333 -1 30 -1zM241.999 795.996l69 165h141l-110 -173z" />
    <glyph glyph-name="racute" unicode="&#x155;" horiz-adv-x="358" 
d="M146 619l68 186h141l-111 -195zM51 540l116.002 -0.000976562l8 -75h7c3.33301 4.66699 10 10.834 20 18.501s21.667 15.5 35 23.5s27.5 15.667 42.5 23s29.167 13.666 42.5 18.999h26v-131h-55c-10 -1.33301 -20.167 -3.66602 -30.5 -6.99902s-20.333 -7 -30 -11
s-18.334 -8.5 -26.001 -13.5s-13.834 -9.83301 -18.501 -14.5v-372h-137v540z" />
    <glyph glyph-name="Rcommaaccent" unicode="&#x156;" horiz-adv-x="584" 
d="M245 -69h140l-80 -151h-104zM303 259c-7.33301 -0.666992 -14.668 -1.00195 -22.001 -1.00195h-23h-12h-16.5c-5.66699 0 -11.167 0.166992 -16.5 0.5s-9.33301 0.5 -12 0.5v-259h-140v735c54.667 10 114.334 15 179.001 15c108.667 0 187.667 -19.667 237 -59
s74 -102.666 74 -189.999c0 -55.333 -10 -100.666 -30 -135.999s-51 -62 -93 -80l141 -285h-145zM261.998 366.998c26.667 0 49.335 2.33105 68.002 6.99805s33.667 12.334 45 23.001s19.666 24.5 24.999 41.5s8 37.833 8 62.5c0 48.667 -10.833 83.167 -32.5 103.5
s-59.5 30.5 -113.5 30.5c-7.33301 0 -16.833 -0.666992 -28.5 -2s-22.5 -2.66602 -32.5 -3.99902v-258c9.33301 -1.33301 19.666 -2.33301 30.999 -3s21.333 -1 30 -1z" />
    <glyph glyph-name="rcommaaccent" unicode="&#x157;" horiz-adv-x="358" 
d="M54 -69h140l-80 -151h-104zM51 540l116.002 -0.000976562l8 -75h7c3.33301 4.66699 10 10.834 20 18.501s21.667 15.5 35 23.5s27.5 15.667 42.5 23s29.167 13.666 42.5 18.999h26v-131h-55c-10 -1.33301 -20.167 -3.66602 -30.5 -6.99902s-20.333 -7 -30 -11
s-18.334 -8.5 -26.001 -13.5s-13.834 -9.83301 -18.501 -14.5v-372h-137v540z" />
    <glyph glyph-name="Rcaron" unicode="&#x158;" horiz-adv-x="584" 
d="M153 958l154 -72l154 72v-96l-154 -72l-154 72v96zM303 259c-7.33301 -0.666992 -14.668 -1.00195 -22.001 -1.00195h-23h-12h-16.5c-5.66699 0 -11.167 0.166992 -16.5 0.5s-9.33301 0.5 -12 0.5v-259h-140v735c54.667 10 114.334 15 179.001 15
c108.667 0 187.667 -19.667 237 -59s74 -102.666 74 -189.999c0 -55.333 -10 -100.666 -30 -135.999s-51 -62 -93 -80l141 -285h-145zM261.998 366.998c26.667 0 49.335 2.33105 68.002 6.99805s33.667 12.334 45 23.001s19.666 24.5 24.999 41.5s8 37.833 8 62.5
c0 48.667 -10.833 83.167 -32.5 103.5s-59.5 30.5 -113.5 30.5c-7.33301 0 -16.833 -0.666992 -28.5 -2s-22.5 -2.66602 -32.5 -3.99902v-258c9.33301 -1.33301 19.666 -2.33301 30.999 -3s21.333 -1 30 -1z" />
    <glyph glyph-name="rcaron" unicode="&#x159;" horiz-adv-x="358" 
d="M45 790l154 -72l154 72v-96l-154 -71l-154 71v96zM51 540l116.002 -0.000976562l8 -75h7c3.33301 4.66699 10 10.834 20 18.501s21.667 15.5 35 23.5s27.5 15.667 42.5 23s29.167 13.666 42.5 18.999h26v-131h-55c-10 -1.33301 -20.167 -3.66602 -30.5 -6.99902
s-20.333 -7 -30 -11s-18.334 -8.5 -26.001 -13.5s-13.834 -9.83301 -18.501 -14.5v-372h-137v540z" />
    <glyph glyph-name="Sacute" unicode="&#x15a;" horiz-adv-x="500" 
d="M241 -12c-32.667 0 -67 2.99902 -103 8.99902s-72 15.333 -108 28l3 118c10.667 -5.33301 23.667 -10.166 39 -14.499s31.333 -8.33301 48 -12s33.334 -6.5 50.001 -8.5s32 -3 46 -3c40 0 70.167 8.5 90.5 25.5s30.5 41.5 30.5 73.5c0 15.333 -3 28.5 -9 39.5
s-14.833 20.667 -26.5 29s-25.5 15.833 -41.5 22.5s-34 13.667 -54 21c-24 8.66699 -46.167 18.334 -66.5 29.001s-38.166 24.334 -53.499 41.001s-27.333 37.334 -36 62.001s-13 55.667 -13 93c0 32 5.5 61 16.5 87s26.667 48 47 66s45.166 31.833 74.499 41.5
s62.666 14.5 99.999 14.5c28 0 56 -2 84 -6s57 -10.667 87 -20l-2 -113c-27.333 7.33301 -55.5 13.166 -84.5 17.499s-53.167 6.5 -72.5 6.5c-35.333 0 -62.333 -8.16699 -81 -24.5s-28 -39.5 -28 -69.5c0 -16 3.33301 -29.667 10 -41s16.167 -21.333 28.5 -30
s27 -16.667 44 -24s35.833 -15 56.5 -23c24 -9.33301 45.833 -19.833 65.5 -31.5s36.5 -25.834 50.5 -42.501s24.833 -36.334 32.5 -59.001s11.5 -50 11.5 -82c0 -34 -5.5 -64.667 -16.5 -92s-26.667 -50.5 -47 -69.5s-45 -33.5 -74 -43.5s-61.833 -15 -98.5 -15z
M198 795.999l69 165h141l-110 -173z" />
    <glyph glyph-name="sacute" unicode="&#x15b;" horiz-adv-x="413" 
d="M161 619l68 186h141l-111 -195zM188 -10c-47.333 0 -98.667 8.66602 -154 25.999v102c21.333 -8 45.666 -14.333 72.999 -19s53 -7 77 -7c48.667 0 73 19.667 73 59c0 17.333 -5.16699 31 -15.5 41s-27.166 17.333 -50.499 22c-16 2.66699 -33 6.16699 -51 10.5
s-34.833 12 -50.5 23s-28.5 27 -38.5 48s-15 49.5 -15 85.5c0 54 15.5 95.667 46.5 125s74.833 44 131.5 44c22 0 45.5 -1.66699 70.5 -5s50.833 -8 77.5 -14v-102c-30 7.33301 -53.5 12 -70.5 14s-33.167 3 -48.5 3c-25.333 0 -45 -5.16699 -59 -15.5
s-21 -24.833 -21 -43.5c0 -21.333 6 -36.166 18 -44.499s27.667 -14.5 47 -18.5c18.667 -4 37.5 -8.83301 56.5 -14.5s36.167 -14.167 51.5 -25.5s27.833 -26.833 37.5 -46.5s14.5 -45.5 14.5 -77.5c0 -53.333 -17.667 -95 -53 -125s-84.333 -45 -147 -45z" />
    <glyph glyph-name="Scircumflex" unicode="&#x15c;" horiz-adv-x="500" 
d="M241 -12c-32.667 0 -67 2.99902 -103 8.99902s-72 15.333 -108 28l3 118c10.667 -5.33301 23.667 -10.166 39 -14.499s31.333 -8.33301 48 -12s33.334 -6.5 50.001 -8.5s32 -3 46 -3c40 0 70.167 8.5 90.5 25.5s30.5 41.5 30.5 73.5c0 15.333 -3 28.5 -9 39.5
s-14.833 20.667 -26.5 29s-25.5 15.833 -41.5 22.5s-34 13.667 -54 21c-24 8.66699 -46.167 18.334 -66.5 29.001s-38.166 24.334 -53.499 41.001s-27.333 37.334 -36 62.001s-13 55.667 -13 93c0 32 5.5 61 16.5 87s26.667 48 47 66s45.166 31.833 74.499 41.5
s62.666 14.5 99.999 14.5c28 0 56 -2 84 -6s57 -10.667 87 -20l-2 -113c-27.333 7.33301 -55.5 13.166 -84.5 17.499s-53.167 6.5 -72.5 6.5c-35.333 0 -62.333 -8.16699 -81 -24.5s-28 -39.5 -28 -69.5c0 -16 3.33301 -29.667 10 -41s16.167 -21.333 28.5 -30
s27 -16.667 44 -24s35.833 -15 56.5 -23c24 -9.33301 45.833 -19.833 65.5 -31.5s36.5 -25.834 50.5 -42.501s24.833 -36.334 32.5 -59.001s11.5 -50 11.5 -82c0 -34 -5.5 -64.667 -16.5 -92s-26.667 -50.5 -47 -69.5s-45 -33.5 -74 -43.5s-61.833 -15 -98.5 -15z
M101 892.999l155 71l153 -71v-96l-154 72l-154 -72v96z" />
    <glyph glyph-name="scircumflex" unicode="&#x15d;" horiz-adv-x="413" 
d="M64 713l154 72l154 -72v-95l-154 71l-154 -71v95zM188 -10c-47.333 0 -98.667 8.66602 -154 25.999v102c21.333 -8 45.666 -14.333 72.999 -19s53 -7 77 -7c48.667 0 73 19.667 73 59c0 17.333 -5.16699 31 -15.5 41s-27.166 17.333 -50.499 22
c-16 2.66699 -33 6.16699 -51 10.5s-34.833 12 -50.5 23s-28.5 27 -38.5 48s-15 49.5 -15 85.5c0 54 15.5 95.667 46.5 125s74.833 44 131.5 44c22 0 45.5 -1.66699 70.5 -5s50.833 -8 77.5 -14v-102c-30 7.33301 -53.5 12 -70.5 14s-33.167 3 -48.5 3
c-25.333 0 -45 -5.16699 -59 -15.5s-21 -24.833 -21 -43.5c0 -21.333 6 -36.166 18 -44.499s27.667 -14.5 47 -18.5c18.667 -4 37.5 -8.83301 56.5 -14.5s36.167 -14.167 51.5 -25.5s27.833 -26.833 37.5 -46.5s14.5 -45.5 14.5 -77.5c0 -53.333 -17.667 -95 -53 -125
s-84.333 -45 -147 -45z" />
    <glyph glyph-name="uni015E" unicode="&#x15e;" horiz-adv-x="501" 
d="M226 -220c-11.333 0 -23.665 0.830078 -36.998 2.49707s-27.666 4.83398 -42.999 9.50098v83c11.333 -3.33301 22.666 -5.5 33.999 -6.5s19.666 -1.5 24.999 -1.5c15.333 0 26.5 3.66699 33.5 11s10.5 17.333 10.5 30c0 10.667 -2.33301 22.834 -7 36.501
s-11 28.167 -19 43.5c-30.667 1.33301 -62.5 5 -95.5 11s-65.5 14.667 -97.5 26l3 118c10.667 -5.33301 23.667 -10.166 39 -14.499s31.333 -8.33301 48 -12s33.334 -6.5 50.001 -8.5s32 -3 46 -3c40 0 70.167 8.5 90.5 25.5s30.5 41.5 30.5 73.5c0 15.333 -3 28.5 -9 39.5
s-14.833 20.667 -26.5 29s-25.5 15.833 -41.5 22.5s-34 13.667 -54 21c-24 8.66699 -46.167 18.334 -66.5 29.001s-38.166 24.334 -53.499 41.001s-27.333 37.334 -36 62.001s-13 55.667 -13 93c0 32 5.5 61 16.5 87s26.667 48 47 66s45.166 31.833 74.499 41.5
s62.666 14.5 99.999 14.5c28 0 56 -2 84 -6s57 -10.667 87 -20l-2 -113c-27.333 7.33301 -55.5 13.166 -84.5 17.499s-53.167 6.5 -72.5 6.5c-35.333 0 -62.333 -8.16699 -81 -24.5s-28 -39.5 -28 -69.5c0 -16 3.33301 -29.667 10 -41s16.167 -21.333 28.5 -30
s27 -16.667 44 -24s35.833 -15 56.5 -23c24 -9.33301 45.833 -19.833 65.5 -31.5s36.5 -25.834 50.5 -42.501s24.833 -36.334 32.5 -59.001s11.5 -50 11.5 -82c0 -57.333 -14.833 -104.5 -44.5 -141.5s-71.167 -60.833 -124.5 -71.5
c11.333 -19.333 19.666 -37.5 24.999 -54.5s8 -35.167 8 -54.5c0 -32.667 -9.83301 -58.5 -29.5 -77.5s-48.167 -28.5 -85.5 -28.5z" />
    <glyph glyph-name="uni015F" unicode="&#x15f;" horiz-adv-x="413" 
d="M174 -220c-11.333 0 -23.665 0.830078 -36.998 2.49707s-27.666 4.83398 -42.999 9.50098v83c11.333 -3.33301 22.666 -5.5 33.999 -6.5s19.666 -1.5 24.999 -1.5c15.333 0 26.5 3.66699 33.5 11s10.5 17.333 10.5 30c0 11.333 -2.33301 24 -7 38s-11.334 29 -20.001 45
c-21.333 1.33301 -43.5 4 -66.5 8s-46.167 9.66699 -69.5 17v102c21.333 -8 45.666 -14.333 72.999 -19s53 -7 77 -7c48.667 0 73 19.667 73 59c0 17.333 -5.16699 31 -15.5 41s-27.166 17.333 -50.499 22c-16 2.66699 -33 6.16699 -51 10.5s-34.833 12 -50.5 23
s-28.5 27 -38.5 48s-15 49.5 -15 85.5c0 54 15.5 95.667 46.5 125s74.833 44 131.5 44c22 0 45.5 -1.66699 70.5 -5s50.833 -8 77.5 -14v-102c-30 7.33301 -53.5 12 -70.5 14s-33.167 3 -48.5 3c-25.333 0 -45 -5.16699 -59 -15.5s-21 -24.833 -21 -43.5
c0 -21.333 6 -36.166 18 -44.499s27.667 -14.5 47 -18.5c18.667 -4 37.5 -8.83301 56.5 -14.5s36.167 -14.167 51.5 -25.5s27.833 -26.833 37.5 -46.5s14.5 -45.5 14.5 -77.5c0 -43.333 -11.667 -79 -35 -107s-56 -46.667 -98 -56c12 -20 20.667 -38.667 26 -56
s8 -35.666 8 -54.999c0 -32.667 -9.83301 -58.5 -29.5 -77.5s-48.167 -28.5 -85.5 -28.5z" />
    <glyph glyph-name="Scaron" unicode="&#x160;" horiz-adv-x="500" 
d="M241 -12c-32.667 0 -67 2.99902 -103 8.99902s-72 15.333 -108 28l3 118c10.667 -5.33301 23.667 -10.166 39 -14.499s31.333 -8.33301 48 -12s33.334 -6.5 50.001 -8.5s32 -3 46 -3c40 0 70.167 8.5 90.5 25.5s30.5 41.5 30.5 73.5c0 15.333 -3 28.5 -9 39.5
s-14.833 20.667 -26.5 29s-25.5 15.833 -41.5 22.5s-34 13.667 -54 21c-24 8.66699 -46.167 18.334 -66.5 29.001s-38.166 24.334 -53.499 41.001s-27.333 37.334 -36 62.001s-13 55.667 -13 93c0 32 5.5 61 16.5 87s26.667 48 47 66s45.166 31.833 74.499 41.5
s62.666 14.5 99.999 14.5c28 0 56 -2 84 -6s57 -10.667 87 -20l-2 -113c-27.333 7.33301 -55.5 13.166 -84.5 17.499s-53.167 6.5 -72.5 6.5c-35.333 0 -62.333 -8.16699 -81 -24.5s-28 -39.5 -28 -69.5c0 -16 3.33301 -29.667 10 -41s16.167 -21.333 28.5 -30
s27 -16.667 44 -24s35.833 -15 56.5 -23c24 -9.33301 45.833 -19.833 65.5 -31.5s36.5 -25.834 50.5 -42.501s24.833 -36.334 32.5 -59.001s11.5 -50 11.5 -82c0 -34 -5.5 -64.667 -16.5 -92s-26.667 -50.5 -47 -69.5s-45 -33.5 -74 -43.5s-61.833 -15 -98.5 -15z
M109 957.999l154 -72l154 72v-96l-154 -72l-154 72v96z" />
    <glyph glyph-name="scaron" unicode="&#x161;" horiz-adv-x="413" 
d="M60 790l154 -72l154 72v-96l-154 -71l-154 71v96zM188 -10c-47.333 0 -98.667 8.66602 -154 25.999v102c21.333 -8 45.666 -14.333 72.999 -19s53 -7 77 -7c48.667 0 73 19.667 73 59c0 17.333 -5.16699 31 -15.5 41s-27.166 17.333 -50.499 22
c-16 2.66699 -33 6.16699 -51 10.5s-34.833 12 -50.5 23s-28.5 27 -38.5 48s-15 49.5 -15 85.5c0 54 15.5 95.667 46.5 125s74.833 44 131.5 44c22 0 45.5 -1.66699 70.5 -5s50.833 -8 77.5 -14v-102c-30 7.33301 -53.5 12 -70.5 14s-33.167 3 -48.5 3
c-25.333 0 -45 -5.16699 -59 -15.5s-21 -24.833 -21 -43.5c0 -21.333 6 -36.166 18 -44.499s27.667 -14.5 47 -18.5c18.667 -4 37.5 -8.83301 56.5 -14.5s36.167 -14.167 51.5 -25.5s27.833 -26.833 37.5 -46.5s14.5 -45.5 14.5 -77.5c0 -53.333 -17.667 -95 -53 -125
s-84.333 -45 -147 -45z" />
    <glyph glyph-name="uni0162" unicode="&#x162;" horiz-adv-x="519" 
d="M189 619l-173 -0.000976562v121h488v-121h-175v-619h-23c12.667 -20.667 21.834 -40 27.501 -58s8.5 -36.667 8.5 -56c0 -32.667 -9.83301 -58.5 -29.5 -77.5s-48.167 -28.5 -85.5 -28.5c-11.333 0 -23.666 0.833008 -36.999 2.5s-27.666 4.83398 -42.999 9.50098v83
c11.333 -3.33301 22.666 -5.5 33.999 -6.5s19.666 -1.5 24.999 -1.5c15.333 0 26.5 3.66699 33.5 11s10.5 17.333 10.5 30c0 12 -2.83301 26 -8.5 42s-13.834 32.667 -24.501 50h-28v619z" />
    <glyph glyph-name="uni0163" unicode="&#x163;" horiz-adv-x="361" 
d="M174 -220c-11.333 0 -23.665 0.831055 -36.998 2.49805s-27.666 4.83398 -42.999 9.50098v83c11.333 -3.33301 22.666 -5.5 33.999 -6.5s19.666 -1.5 24.999 -1.5c15.333 0 26.5 3.66699 33.5 11s10.5 17.333 10.5 30c0 14 -4 30.833 -12 50.5s-19 40.167 -33 61.5
c-38.667 24.667 -58 66.667 -58 126v278h-84v116h92l18 149l110 15v-164h113v-116h-112v-246c0 -29.333 5.16699 -50.166 15.5 -62.499s25.833 -18.5 46.5 -18.5c7.33301 0 15.166 0.5 23.499 1.5s17.166 2.83301 26.499 5.5v-100
c-13.333 -3.33301 -27.166 -5.83301 -41.499 -7.5s-28.5 -2.5 -42.5 -2.5h-4c11.333 -19.333 19.833 -37.333 25.5 -54s8.5 -34.667 8.5 -54c0 -32.667 -9.83301 -58.5 -29.5 -77.5s-48.167 -28.5 -85.5 -28.5z" />
    <glyph glyph-name="Tcaron" unicode="&#x164;" horiz-adv-x="519" 
d="M110 958l154 -72l154 72v-96l-154 -72l-154 72v96zM189 619h-173v121h488v-121h-175v-619h-140v619z" />
    <glyph glyph-name="tcaron" unicode="&#x165;" horiz-adv-x="355" 
d="M259 -6c-54.667 0 -95.832 12.832 -123.499 38.499s-41.5 63.5 -41.5 113.5v278h-84v116h92l18 149l110 15v-164h89v-116h-88v-246c0 -29.333 5.16699 -50.166 15.5 -62.499s25.833 -18.5 46.5 -18.5c7.33301 0 15.166 0.5 23.499 1.5s17.166 2.83301 26.499 5.5v-100
c-13.333 -3.33301 -27.166 -5.83301 -41.499 -7.5s-28.5 -2.5 -42.5 -2.5zM291.002 807.999h109l-37 -228h-72v228z" />
    <glyph glyph-name="Tbar" unicode="&#x166;" horiz-adv-x="525" 
d="M82 415h110v204h-173v121h488v-121h-175v-204h101v-80h-101v-335h-140v335h-110v80z" />
    <glyph glyph-name="tbar" unicode="&#x167;" horiz-adv-x="365" 
d="M20 327l78.002 -0.000976562v97h-84v116h92l18 149l110 15v-164h113v-116h-112v-97h91v-82h-91v-67c0 -29.333 5.16699 -50.166 15.5 -62.499s25.833 -18.5 46.5 -18.5c7.33301 0 15.166 0.5 23.499 1.5s17.166 2.83301 26.499 5.5v-100
c-13.333 -3.33301 -27.166 -5.83301 -41.499 -7.5s-28.5 -2.5 -42.5 -2.5c-54.667 0 -95.834 12.833 -123.501 38.5s-41.5 63.5 -41.5 113.5v99h-78v82z" />
    <glyph glyph-name="Utilde" unicode="&#x168;" horiz-adv-x="655" 
d="M150 839c17.333 33.333 37.167 59 59.5 77s44.5 27 66.5 27c12.667 0 25.167 -2.16699 37.5 -6.5s24.333 -9 36 -14s23.334 -9.5 35.001 -13.5s23.5 -6 35.5 -6s23.667 3 35 9s23 16 35 30l24 -21c-16 -35.333 -35.167 -61.833 -57.5 -79.5s-44.833 -26.5 -67.5 -26.5
c-12.667 0 -25 2 -37 6s-23.833 8.5 -35.5 13.5s-23.334 9.5 -35.001 13.5s-23.5 6 -35.5 6c-25.333 0 -50 -12.333 -74 -37zM327.001 -10c-49.333 0 -91.3311 5.99805 -125.998 17.998s-62.834 30.167 -84.501 54.5s-37.334 55 -47.001 92s-14.5 80.5 -14.5 130.5v454h140
v-445c0 -66.667 10.167 -114.167 30.5 -142.5s54.166 -42.5 101.499 -42.5c24 0 44.333 3.33301 61 10s30.334 17.334 41.001 32.001s18.334 33.834 23.001 57.501s7 52.167 7 85.5v445h140v-454c0 -50 -4.83301 -93.5 -14.5 -130.5s-25.334 -67.667 -47.001 -92
s-49.667 -42.5 -84 -54.5s-76.5 -18 -126.5 -18z" />
    <glyph glyph-name="utilde" unicode="&#x169;" horiz-adv-x="520" 
d="M184 -10c-43.333 0 -76.8311 12.499 -100.498 37.499s-35.5 60.5 -35.5 106.5v406h137v-363c0 -25.333 4.33301 -43.166 13 -53.499s22.667 -15.5 42 -15.5c13.333 0 27.166 2.83301 41.499 8.5s31.166 15.167 50.499 28.5v395h137v-540h-116l-8 55h-4
c-18.667 -12.667 -35 -23.167 -49 -31.5s-27 -15 -39 -20s-23.5 -8.5 -34.5 -10.5s-22.5 -3 -34.5 -3zM83.002 657.999c16.667 31.333 36.3311 55.001 58.998 71.001s45 24 67 24c12.667 0 25 -2.83301 37 -8.5s23.833 -11.834 35.5 -18.501s23.334 -12.834 35.001 -18.501
s23.834 -8.5 36.501 -8.5c22 0 42.667 14.333 62 43l32 -34c-16 -33.333 -35.167 -57.666 -57.5 -72.999s-44.833 -23 -67.5 -23c-12.667 0 -25 2.66699 -37 8s-23.833 11.333 -35.5 18s-23.5 12.667 -35.5 18s-24 8 -36 8c-23.333 0 -45 -13.333 -65 -40z" />
    <glyph glyph-name="Umacron" unicode="&#x16a;" horiz-adv-x="655" 
d="M170 931h297v-93h-297v93zM327 -10c-49.333 0 -91.3311 5.99805 -125.998 17.998s-62.834 30.167 -84.501 54.5s-37.334 55 -47.001 92s-14.5 80.5 -14.5 130.5v454h140v-445c0 -66.667 10.167 -114.167 30.5 -142.5s54.166 -42.5 101.499 -42.5
c24 0 44.333 3.33301 61 10s30.334 17.334 41.001 32.001s18.334 33.834 23.001 57.501s7 52.167 7 85.5v445h140v-454c0 -50 -4.83301 -93.5 -14.5 -130.5s-25.334 -67.667 -47.001 -92s-49.667 -42.5 -84 -54.5s-76.5 -18 -126.5 -18z" />
    <glyph glyph-name="umacron" unicode="&#x16b;" horiz-adv-x="520" 
d="M184 -10c-43.333 0 -76.8311 12.499 -100.498 37.499s-35.5 60.5 -35.5 106.5v406h137v-363c0 -25.333 4.33301 -43.166 13 -53.499s22.667 -15.5 42 -15.5c13.333 0 27.166 2.83301 41.499 8.5s31.166 15.167 50.499 28.5v395h137v-540h-116l-8 55h-4
c-18.667 -12.667 -35 -23.167 -49 -31.5s-27 -15 -39 -20s-23.5 -8.5 -34.5 -10.5s-22.5 -3 -34.5 -3zM108.002 715.999h304v-87h-304v87z" />
    <glyph glyph-name="Ubreve" unicode="&#x16c;" horiz-adv-x="655" 
d="M323 799c-56 0 -98.5 14.833 -127.5 44.5s-43.5 70.5 -43.5 122.5h95c0 -35.333 5.66699 -60.666 17 -75.999s31 -23 59 -23c26.667 0 45.667 7.66699 57 23s17 40.666 17 75.999h96c0 -52 -14.667 -92.833 -44 -122.5s-71.333 -44.5 -126 -44.5zM327 -10
c-49.333 0 -91.3311 5.99805 -125.998 17.998s-62.834 30.167 -84.501 54.5s-37.334 55 -47.001 92s-14.5 80.5 -14.5 130.5v454h140v-445c0 -66.667 10.167 -114.167 30.5 -142.5s54.166 -42.5 101.499 -42.5c24 0 44.333 3.33301 61 10s30.334 17.334 41.001 32.001
s18.334 33.834 23.001 57.501s7 52.167 7 85.5v445h140v-454c0 -50 -4.83301 -93.5 -14.5 -130.5s-25.334 -67.667 -47.001 -92s-49.667 -42.5 -84 -54.5s-76.5 -18 -126.5 -18z" />
    <glyph glyph-name="ubreve" unicode="&#x16d;" horiz-adv-x="520" 
d="M184 -10c-43.333 0 -76.8311 12.499 -100.498 37.499s-35.5 60.5 -35.5 106.5v406h137v-363c0 -25.333 4.33301 -43.166 13 -53.499s22.667 -15.5 42 -15.5c13.333 0 27.166 2.83301 41.499 8.5s31.166 15.167 50.499 28.5v395h137v-540h-116l-8 55h-4
c-18.667 -12.667 -35 -23.167 -49 -31.5s-27 -15 -39 -20s-23.5 -8.5 -34.5 -10.5s-22.5 -3 -34.5 -3zM260.002 613.999c-53.333 0 -94.3311 13.167 -122.998 39.5s-44.334 64.833 -47.001 115.5h95c0 -53.333 25 -80 75 -80c48 0 72.667 26.667 74 80h96
c-3.33301 -50.667 -19.333 -89.167 -48 -115.5s-69.334 -39.5 -122.001 -39.5z" />
    <glyph glyph-name="Uring" unicode="&#x16e;" horiz-adv-x="655" 
d="M327 -10c-49.333 0 -91.3311 5.99805 -125.998 17.998s-62.834 30.167 -84.501 54.5s-37.334 55 -47.001 92s-14.5 80.5 -14.5 130.5v454h140v-445c0 -66.667 10.167 -114.167 30.5 -142.5s54.166 -42.5 101.499 -42.5c24 0 44.333 3.33301 61 10
s30.334 17.334 41.001 32.001s18.334 33.834 23.001 57.501s7 52.167 7 85.5v445h140v-454c0 -50 -4.83301 -93.5 -14.5 -130.5s-25.334 -67.667 -47.001 -92s-49.667 -42.5 -84 -54.5s-76.5 -18 -126.5 -18zM320.002 772.998c-33.333 0 -60.166 10.5 -80.499 31.5
s-30.5 47.167 -30.5 78.5c0 32 10.167 58.5 30.5 79.5s47.166 31.5 80.499 31.5c34 0 61 -10.5 81 -31.5s30 -47.5 30 -79.5c0 -31.333 -10 -57.5 -30 -78.5s-47 -31.5 -81 -31.5zM320.002 825.998c19.333 0 33.333 4.66699 42 14s13 23.666 13 42.999s-4.33301 34 -13 44
s-22.667 15 -42 15c-20 0 -34.167 -5 -42.5 -15s-12.5 -24.667 -12.5 -44s4.16699 -33.666 12.5 -42.999s22.5 -14 42.5 -14z" />
    <glyph glyph-name="uring" unicode="&#x16f;" horiz-adv-x="520" 
d="M257 598c-35.333 0 -63.167 10.333 -83.5 31s-30.5 47 -30.5 79s10 58.333 30 79s48 31 84 31s64.167 -10.333 84.5 -31s30.5 -47 30.5 -79s-10.333 -58.333 -31 -79s-48.667 -31 -84 -31zM256.999 652c16 0 28.667 5.33301 38 16s14 24 14 40
c0 16.667 -4.66699 30.167 -14 40.5s-22 15.5 -38 15.5s-28.333 -5.16699 -37 -15.5s-13 -23.833 -13 -40.5s4.5 -30.167 13.5 -40.5s21.167 -15.5 36.5 -15.5zM183.999 -10c-43.333 0 -76.8311 12.499 -100.498 37.499s-35.5 60.5 -35.5 106.5v406h137v-363
c0 -25.333 4.33301 -43.166 13 -53.499s22.667 -15.5 42 -15.5c13.333 0 27.166 2.83301 41.499 8.5s31.166 15.167 50.499 28.5v395h137v-540h-116l-8 55h-4c-18.667 -12.667 -35 -23.167 -49 -31.5s-27 -15 -39 -20s-23.5 -8.5 -34.5 -10.5s-22.5 -3 -34.5 -3z" />
    <glyph glyph-name="Uhungarumlaut" unicode="&#x170;" horiz-adv-x="655" 
d="M327 -10c-49.333 0 -91.3311 5.99805 -125.998 17.998s-62.834 30.167 -84.501 54.5s-37.334 55 -47.001 92s-14.5 80.5 -14.5 130.5v454h140v-445c0 -66.667 10.167 -114.167 30.5 -142.5s54.166 -42.5 101.499 -42.5c24 0 44.333 3.33301 61 10
s30.334 17.334 41.001 32.001s18.334 33.834 23.001 57.501s7 52.167 7 85.5v445h140v-454c0 -50 -4.83301 -93.5 -14.5 -130.5s-25.334 -67.667 -47.001 -92s-49.667 -42.5 -84 -54.5s-76.5 -18 -126.5 -18zM184.002 799.998l69 161h117l-111 -173zM358.002 799.998l69 161
h116l-110 -173z" />
    <glyph glyph-name="uhungarumlaut" unicode="&#x171;" horiz-adv-x="520" 
d="M184 -10c-43.333 0 -76.8311 12.499 -100.498 37.499s-35.5 60.5 -35.5 106.5v406h137v-363c0 -25.333 4.33301 -43.166 13 -53.499s22.667 -15.5 42 -15.5c13.333 0 27.166 2.83301 41.499 8.5s31.166 15.167 50.499 28.5v395h137v-540h-116l-8 55h-4
c-18.667 -12.667 -35 -23.167 -49 -31.5s-27 -15 -39 -20s-23.5 -8.5 -34.5 -10.5s-22.5 -3 -34.5 -3zM124.002 619.999l68 185h117l-111 -195zM303.002 619.999l68 185h117l-111 -195z" />
    <glyph glyph-name="Uogonek" unicode="&#x172;" horiz-adv-x="655" 
d="M325 -214c-76.667 0 -115.002 32.3271 -115.002 96.9941c0 20.667 4.83301 39.834 14.5 57.501s25.5 35.167 47.5 52.5c-78.667 8.66699 -134.5 36.834 -167.5 84.501s-49.5 116.834 -49.5 207.501v454h140v-445c0 -66.667 10.167 -114.167 30.5 -142.5
s54.166 -42.5 101.499 -42.5c24 0 44.333 3.33301 61 10s30.334 17.334 41.001 32.001s18.334 33.834 23.001 57.501s7 52.167 7 85.5v445h140v-454c0 -87.333 -15.167 -154.666 -45.5 -201.999s-81.166 -76.333 -152.499 -87c-36.667 -14 -62.5 -30.5 -77.5 -49.5
s-22.5 -35.833 -22.5 -50.5c0 -18.667 13 -28 39 -28c11.333 0 22.5 1.16699 33.5 3.5s20.833 5.16602 29.5 8.49902v-82c-14 -3.33301 -27 -6.16602 -39 -8.49902s-25 -3.5 -39 -3.5z" />
    <glyph glyph-name="uogonek" unicode="&#x173;" horiz-adv-x="521" 
d="M185 -10c-43.333 0 -76.833 12.499 -100.5 37.499s-35.5 60.5 -35.5 106.5v406h137v-363c0 -25.333 4.33301 -43.166 13 -53.499s22.667 -15.5 42 -15.5c13.333 0 27.166 2.83301 41.499 8.5s31.166 15.167 50.499 28.5v395h137v-550
c-37.333 -14 -63.666 -30.5 -78.999 -49.5s-23 -35.833 -23 -50.5c0 -18.667 13 -28 39 -28c11.333 0 22.5 1.16699 33.5 3.5s20.833 5.16602 29.5 8.49902v-82c-14 -3.33301 -27 -6.16602 -39 -8.49902s-25 -3.5 -39 -3.5c-76.667 0 -115 32.333 -115 97
c0 23.333 6.33301 44.5 19 63.5s33.334 38.833 62.001 59.5h-4l-8 55h-4c-18.667 -12.667 -35 -23.167 -49 -31.5s-27 -15 -39 -20s-23.5 -8.5 -34.5 -10.5s-22.5 -3 -34.5 -3z" />
    <glyph glyph-name="Wcircumflex" unicode="&#x174;" horiz-adv-x="916" 
d="M6 740h155l84 -465l15 -102h9l18 102l105 465h139l100 -465l17 -102h10l16 102l88 465h151l-174 -740h-165l-96 416l-14 124h-9l-15 -124l-100 -416h-165zM303 893l155 71l153 -71v-96l-154 72l-154 -72v96z" />
    <glyph glyph-name="wcircumflex" unicode="&#x175;" horiz-adv-x="720" 
d="M211 713l154 72l154 -72v-95l-154 71l-154 -71v95zM17 536v4h125l53 -330l9 -65h11l12 65l66 330h134l67 -330l12 -65h10l11 65l52 330h124v-4l-108 -536h-155l-67 323l-8 55h-10l-7 -55l-68 -323h-155z" />
    <glyph glyph-name="Ycircumflex" unicode="&#x176;" horiz-adv-x="616" 
d="M238 251l-245 489h158l137 -303l16 -53h9l17 53l138 303h154l-243 -487v-253h-141v251zM156 893l155 71l153 -71v-96l-154 72l-154 -72v96z" />
    <glyph glyph-name="ycircumflex" unicode="&#x177;" horiz-adv-x="515" 
d="M125 -192v7l61 185l-183 530v10h139l99 -333l12 -69h8l13 69l98 333h139v-10l-249 -750zM115 713l154 72l154 -72v-95l-154 71l-154 -71v95z" />
    <glyph glyph-name="Ydieresis" unicode="&#x178;" horiz-adv-x="616" 
d="M238 251l-245 489h158l137 -303l16 -53h9l17 53l138 303h154l-243 -487v-253h-141v251zM193 803c-51.333 0 -77 25.667 -77 77c0 26.667 6.16699 45.834 18.5 57.501s31.833 17.5 58.5 17.5s46.5 -5.83301 59.5 -17.5s19.5 -30.834 19.5 -57.501
c0 -27.333 -6.5 -47 -19.5 -59s-32.833 -18 -59.5 -18zM424 803c-51.333 0 -77 25.667 -77 77c0 26.667 6.16699 45.834 18.5 57.501s31.833 17.5 58.5 17.5c26 0 45.667 -5.83301 59 -17.5s20 -30.834 20 -57.501c0 -27.333 -6.66699 -47 -20 -59s-33 -18 -59 -18z" />
    <glyph glyph-name="Zacute" unicode="&#x179;" horiz-adv-x="523" 
d="M25 126l303 486v9h-290v119h447v-127l-304 -486v-8h317v-119h-473v126zM211 796l69 165h141l-110 -173z" />
    <glyph glyph-name="zacute" unicode="&#x17a;" horiz-adv-x="426" 
d="M165 619l68 186h141l-111 -195zM28 94l208 331v7h-201v108h354v-95l-206 -330v-7h216v-108h-371v94z" />
    <glyph glyph-name="Zdotaccent" unicode="&#x17b;" horiz-adv-x="523" 
d="M267 798c-26.667 0 -46.167 6 -58.5 18s-18.5 31.333 -18.5 58c0 27.333 6.16699 46.833 18.5 58.5s31.833 17.5 58.5 17.5s46.5 -6 59.5 -18s19.5 -31.333 19.5 -58s-6.5 -46 -19.5 -58s-32.833 -18 -59.5 -18zM25 126l303 486v9h-290v119h447v-127l-304 -486v-8h317
v-119h-473v126z" />
    <glyph glyph-name="zdotaccent" unicode="&#x17c;" horiz-adv-x="426" 
d="M28 94l208 331v7h-201v108h354v-95l-206 -330v-7h216v-108h-371v94zM214 610c-26.667 0 -46.167 6 -58.5 18s-18.5 31.333 -18.5 58s6.16699 46 18.5 58s31.833 18 58.5 18c26 0 45.667 -6 59 -18s20 -31.333 20 -58c0 -27.333 -6.66699 -46.833 -20 -58.5
s-33 -17.5 -59 -17.5z" />
    <glyph glyph-name="Zcaron" unicode="&#x17d;" horiz-adv-x="523" 
d="M122 958l154 -72l154 72v-96l-154 -72l-154 72v96zM25 126l303 486v9h-290v119h447v-127l-304 -486v-8h317v-119h-473v126z" />
    <glyph glyph-name="zcaron" unicode="&#x17e;" horiz-adv-x="426" 
d="M63 790l154 -72l154 72v-96l-154 -71l-154 71v96zM28 94l208 331v7h-201v108h354v-95l-206 -330v-7h216v-108h-371v94z" />
    <glyph glyph-name="Schwa" unicode="&#x18f;" horiz-adv-x="613" 
d="M29 319c0 18.667 0.500977 36.0029 1.50098 52.0029s2.16699 32 3.5 48h403c-2 40.667 -7.16699 74.667 -15.5 102s-20 49.333 -35 66s-34 28.667 -57 36s-50.5 11 -82.5 11c-60.667 0 -122 -11.333 -184 -34c0 1.33301 -0.5 7.83301 -1.5 19.5
s-1.83301 24.167 -2.5 37.5s-1.33398 25.666 -2.00098 36.999s-1 17.666 -1 18.999c30 12 62.333 21.667 97 29s70.334 11 107.001 11c105.333 0 185.166 -31.833 239.499 -95.5s81.5 -156.834 81.5 -279.501c0 -123.333 -25.5 -218.833 -76.5 -286.5
s-126.167 -101.5 -225.5 -101.5c-82.667 0 -145 26.667 -187 80s-63 136.333 -63 249zM287.001 101.003c48.667 0 85.168 17.332 109.501 51.999s38.166 91 41.499 169h-272c0.666992 -42 3 -77 7 -105s10.833 -50.667 20.5 -68s22 -29.666 37 -36.999s33.833 -11 56.5 -11z
" />
    <glyph glyph-name="florin" unicode="&#x192;" horiz-adv-x="377" 
d="M101 425l-72.999 0.00195312v115h74v30c0 44.667 4.16699 82 12.5 112s22.5 54.5 42.5 73.5s46.5 33 79.5 42s73.833 14.5 122.5 16.5l9 -104c-26 -2 -47.333 -5.33301 -64 -10s-29.834 -11.834 -39.501 -21.501s-16.5 -22.334 -20.5 -38.001s-6 -35.5 -6 -59.5v-41h107
v-115h-107v-597l-137 -48v645z" />
    <glyph glyph-name="uni01C4" unicode="&#x1c4;" horiz-adv-x="1145" 
d="M743 958l154 -72l154 72v-96l-154 -72l-154 72v96zM647 126l303 486v9h-290v119h447v-127l-304 -486v-8h317v-119h-473v126zM224 -14c-22.667 0 -46.833 0.833984 -72.5 2.50098s-55.834 4.16699 -90.501 7.5v741c40 4.66699 73.833 7.83398 101.5 9.50098
s53.5 2.5 77.5 2.5c62.667 0 116.167 -7 160.5 -21s80.5 -36.333 108.5 -67s48.333 -70 61 -118s19 -106 19 -174c0 -68.667 -6.66699 -127.334 -20 -176.001s-34.666 -88.334 -63.999 -119.001s-67 -53 -113 -67s-102 -21 -168 -21zM270.001 101.001
c32 0 59.1641 4.50098 81.4971 13.501s40.333 23.833 54 44.5s23.667 48.167 30 82.5s9.5 77.166 9.5 128.499c0 50 -3 92 -9 126s-16.167 61.333 -30.5 82s-33.166 35.5 -56.499 44.5s-52 13.5 -86 13.5c-13.333 0 -25.166 -0.5 -35.499 -1.5s-20.166 -2.5 -29.499 -4.5
v-524c16.667 -2 30.5 -3.33301 41.5 -4s21.167 -1 30.5 -1z" />
    <glyph glyph-name="uni01C5" unicode="&#x1c5;" horiz-adv-x="1049" 
d="M686 790l154 -72l154 72v-96l-154 -71l-154 71v96zM650 94l208 331v7h-201v108h354v-95l-206 -330v-7h216v-108h-371v94zM224 -14c-22.667 0 -46.833 0.833984 -72.5 2.50098s-55.834 4.16699 -90.501 7.5v741c40 4.66699 73.833 7.83398 101.5 9.50098
s53.5 2.5 77.5 2.5c62.667 0 116.167 -7 160.5 -21s80.5 -36.333 108.5 -67s48.333 -70 61 -118s19 -106 19 -174c0 -68.667 -6.66699 -127.334 -20 -176.001s-34.666 -88.334 -63.999 -119.001s-67 -53 -113 -67s-102 -21 -168 -21zM270.001 101.001
c32 0 59.1641 4.50098 81.4971 13.501s40.333 23.833 54 44.5s23.667 48.167 30 82.5s9.5 77.166 9.5 128.499c0 50 -3 92 -9 126s-16.167 61.333 -30.5 82s-33.166 35.5 -56.499 44.5s-52 13.5 -86 13.5c-13.333 0 -25.166 -0.5 -35.499 -1.5s-20.166 -2.5 -29.499 -4.5
v-524c16.667 -2 30.5 -3.33301 41.5 -4s21.167 -1 30.5 -1z" />
    <glyph glyph-name="uni01C6" unicode="&#x1c6;" horiz-adv-x="952" 
d="M589 790l154 -72l154 72v-96l-154 -71l-154 71v96zM553 94l208 331v7h-201v108h354v-95l-206 -330v-7h216v-108h-371v94zM204 -9c-115.333 0 -173 88.333 -173 265c0 97.333 20.667 170.5 62 219.5s103.333 73.5 186 73.5c8 0 16.333 -0.333008 25 -1s20 -2 34 -4v264
h136v-808h-125l-8 54h-4c-32 -42 -76.333 -63 -133 -63zM252 89c13.333 0 25.333 2.8291 36 8.49609s19.667 14.834 27 27.501s13 29.334 17 50.001s6 46 6 76v194c-19.333 7.33301 -40.333 11 -63 11c-18.667 0 -34.667 -3.16699 -48 -9.5s-24.166 -16.666 -32.499 -30.999
s-14.333 -33.166 -18 -56.499s-5.5 -52.333 -5.5 -87c0 -34 1.5 -62.5 4.5 -85.5s7.66699 -41.833 14 -56.5s14.666 -25.167 24.999 -31.5s22.833 -9.5 37.5 -9.5z" />
    <glyph glyph-name="uni01C7" unicode="&#x1c7;" horiz-adv-x="710" 
d="M433 -160c15.333 34 27.999 65 37.999 93s18 55.5 24 82.5s10.167 54.5 12.5 82.5s3.5 59.333 3.5 94v548h140v-560c0 -33.333 -2.33301 -65.333 -7 -96s-12.167 -61.167 -22.5 -91.5s-23.666 -61.333 -39.999 -93s-36.5 -65.167 -60.5 -100.5zM60.999 740h140v-622h235
v-118h-375v740z" />
    <glyph glyph-name="uni01C8" unicode="&#x1c8;" horiz-adv-x="688" 
d="M568 627c-26.667 0 -46.167 6 -58.5 18s-18.5 31.333 -18.5 58s6 46 18 58s31.667 18 59 18c28 0 48.167 -6.16699 60.5 -18.5s18.5 -31.5 18.5 -57.5s-6.16699 -45.167 -18.5 -57.5s-32.5 -18.5 -60.5 -18.5zM451 -190c15.333 40 27.333 86.166 36 138.499
s13 106.833 13 163.5v428h137v-462c0 -23.333 -2.33301 -48.166 -7 -74.499s-11 -52.666 -19 -78.999s-17.667 -51.833 -29 -76.5s-24 -47.334 -38 -68.001zM61 739.999h140v-622h235v-118h-375v740z" />
    <glyph glyph-name="uni01C9" unicode="&#x1c9;" horiz-adv-x="481" 
d="M361 627c-26.667 0 -46.167 6 -58.5 18s-18.5 31.333 -18.5 58s6 46 18 58s31.667 18 59 18c28 0 48.167 -6.16699 60.5 -18.5s18.5 -31.5 18.5 -57.5s-6.16699 -45.167 -18.5 -57.5s-32.5 -18.5 -60.5 -18.5zM244 -190c15.333 40 27.333 86.166 36 138.499
s13 106.833 13 163.5v428h137v-462c0 -23.333 -2.33301 -48.166 -7 -74.499s-11 -52.666 -19 -78.999s-17.667 -51.833 -29 -76.5s-24 -47.334 -38 -68.001zM52 807.999h137v-808h-137v808z" />
    <glyph glyph-name="uni01CA" unicode="&#x1ca;" horiz-adv-x="934" 
d="M657 -160c15.333 34 27.999 65 37.999 93s18 55.5 24 82.5s10.167 54.5 12.5 82.5s3.5 59.333 3.5 94v548h140v-560c0 -33.333 -2.33301 -65.333 -7 -96s-12.167 -61.167 -22.5 -91.5s-23.666 -61.333 -39.999 -93s-36.5 -65.167 -60.5 -100.5zM60.999 740h119l259 -414
l40 -80h8v494h125v-740h-119l-260 415l-39 81h-9v-496h-124v740z" />
    <glyph glyph-name="uni01CB" unicode="&#x1cb;" horiz-adv-x="912" 
d="M792 627c-26.667 0 -46.167 6 -58.5 18s-18.5 31.333 -18.5 58s6 46 18 58s31.667 18 59 18c28 0 48.167 -6.16699 60.5 -18.5s18.5 -31.5 18.5 -57.5s-6.16699 -45.167 -18.5 -57.5s-32.5 -18.5 -60.5 -18.5zM675 -190c15.333 40 27.333 86.166 36 138.499
s13 106.833 13 163.5v428h137v-462c0 -23.333 -2.33301 -48.166 -7 -74.499s-11 -52.666 -19 -78.999s-17.667 -51.833 -29 -76.5s-24 -47.334 -38 -68.001zM61 739.999h119l259 -414l40 -80h8v494h125v-740h-119l-260 415l-39 81h-9v-496h-124v740z" />
    <glyph glyph-name="uni01CC" unicode="&#x1cc;" horiz-adv-x="761" 
d="M641 627c-26.667 0 -46.167 6 -58.5 18s-18.5 31.333 -18.5 58s6 46 18 58s31.667 18 59 18c28 0 48.167 -6.16699 60.5 -18.5s18.5 -31.5 18.5 -57.5s-6.16699 -45.167 -18.5 -57.5s-32.5 -18.5 -60.5 -18.5zM524 -190c15.333 40 27.333 86.166 36 138.499
s13 106.833 13 163.5v428h137v-462c0 -23.333 -2.33301 -48.166 -7 -74.499s-11 -52.666 -19 -78.999s-17.667 -51.833 -29 -76.5s-24 -47.334 -38 -68.001zM51 539.999h116.003l8 -58h4l53 32.5c15.333 9 29.666 16 42.999 21s26.166 8.66699 38.499 11
s25.166 3.5 38.499 3.5c39.333 0 69.166 -12.333 89.499 -37s30.5 -60.334 30.5 -107.001v-406h-136v360c0 25.333 -4.5 43.333 -13.5 54s-21.5 16 -37.5 16c-14.667 0 -30.167 -3.16699 -46.5 -9.5s-33.166 -15.166 -50.499 -26.499v-394h-137v540z" />
    <glyph glyph-name="Oogonek" unicode="&#x1ea;" horiz-adv-x="652" 
d="M321 -213c-76.667 0 -114.999 32.333 -114.999 97c0 20.667 4.83301 39.667 14.5 57s25.5 35 47.5 53c-156.667 22 -235 147 -235 375c0 128.667 24 224.334 72 287.001s121.333 94 220 94c99.333 0 173.166 -31.333 221.499 -94s72.5 -158.334 72.5 -287.001
c0 -221.333 -73.667 -345.333 -221 -372c-36.667 -14 -62.667 -30.5 -78 -49.5s-23 -35.833 -23 -50.5c0 -18.667 13 -28 39 -28c11.333 0 22.5 1.16699 33.5 3.5s20.833 5.16602 29.5 8.49902v-82c-14 -3.33301 -27 -6.16602 -39 -8.49902s-25 -3.5 -39 -3.5zM325.001 107
c27.333 0 50.5 4.66602 69.5 13.999s34.5 24.5 46.5 45.5s20.667 48 26 81s8 73.5 8 121.5s-2.66699 88.833 -8 122.5s-14 61 -26 82s-27.5 36.333 -46.5 46s-42.167 14.5 -69.5 14.5c-26.667 0 -49.5 -4.83301 -68.5 -14.5s-34.5 -25 -46.5 -46s-20.667 -48.333 -26 -82
s-8 -74.5 -8 -122.5c0 -47.333 2.66699 -87.666 8 -120.999s14 -60.5 26 -81.5s27.333 -36.167 46 -45.5s41.667 -14 69 -14z" />
    <glyph glyph-name="oogonek" unicode="&#x1eb;" horiz-adv-x="521" 
d="M276 -203c-76.667 0 -115 32.333 -115 97c0 18.667 4 36 12 52s20.667 32 38 48c-60 9.33301 -105.167 37.333 -135.5 84s-45.5 110.667 -45.5 192c0 92.667 19.333 162.5 58 209.5s96 70.5 172 70.5s133.333 -23.5 172 -70.5s58 -116.833 58 -209.5
c0 -149.333 -50.667 -239.333 -152 -270c-31.333 -13.333 -53.5 -28.833 -66.5 -46.5s-19.5 -33.167 -19.5 -46.5c0 -18.667 13 -28 39 -28c11.333 0 22.5 1.16699 33.5 3.5s20.833 5.16602 29.5 8.49902v-82c-14 -3.33301 -27 -6.16602 -39 -8.49902s-25 -3.5 -39 -3.5z
M260 96c17.333 0 32 2.66699 44 8s21.667 14.666 29 27.999s12.5 31.166 15.5 53.499s4.5 50.5 4.5 84.5s-1.5 62.167 -4.5 84.5s-8.16699 40.166 -15.5 53.499s-17 22.666 -29 27.999s-26.667 8 -44 8s-32 -2.66699 -44 -8s-21.5 -14.666 -28.5 -27.999
s-12 -31.166 -15 -53.499s-4.5 -50.5 -4.5 -84.5c0 -33.333 1.5 -61.166 4.5 -83.499s8 -40.166 15 -53.499s16.5 -22.833 28.5 -28.5s26.667 -8.5 44 -8.5z" />
    <glyph glyph-name="uni01F1" unicode="&#x1f1;" horiz-adv-x="1135" 
d="M637 126l303 486v9h-290v119h447v-127l-304 -486v-8h317v-119h-473v126zM224 -14c-22.667 0 -46.833 0.833984 -72.5 2.50098s-55.834 4.16699 -90.501 7.5v741c40 4.66699 73.833 7.83398 101.5 9.50098s53.5 2.5 77.5 2.5c62.667 0 116.167 -7 160.5 -21
s80.5 -36.333 108.5 -67s48.333 -70 61 -118s19 -106 19 -174c0 -68.667 -6.66699 -127.334 -20 -176.001s-34.666 -88.334 -63.999 -119.001s-67 -53 -113 -67s-102 -21 -168 -21zM270.001 101.001c32 0 59.1641 4.50098 81.4971 13.501s40.333 23.833 54 44.5
s23.667 48.167 30 82.5s9.5 77.166 9.5 128.499c0 50 -3 92 -9 126s-16.167 61.333 -30.5 82s-33.166 35.5 -56.499 44.5s-52 13.5 -86 13.5c-13.333 0 -25.166 -0.5 -35.499 -1.5s-20.166 -2.5 -29.499 -4.5v-524c16.667 -2 30.5 -3.33301 41.5 -4s21.167 -1 30.5 -1z" />
    <glyph glyph-name="uni01F2" unicode="&#x1f2;" horiz-adv-x="1047" 
d="M649 94l208 331v7h-201v108h354v-95l-206 -330v-7h216v-108h-371v94zM224 -14c-22.667 0 -46.833 0.833984 -72.5 2.50098s-55.834 4.16699 -90.501 7.5v741c40 4.66699 73.833 7.83398 101.5 9.50098s53.5 2.5 77.5 2.5c62.667 0 116.167 -7 160.5 -21
s80.5 -36.333 108.5 -67s48.333 -70 61 -118s19 -106 19 -174c0 -68.667 -6.66699 -127.334 -20 -176.001s-34.666 -88.334 -63.999 -119.001s-67 -53 -113 -67s-102 -21 -168 -21zM270.001 101.001c32 0 59.1641 4.50098 81.4971 13.501s40.333 23.833 54 44.5
s23.667 48.167 30 82.5s9.5 77.166 9.5 128.499c0 50 -3 92 -9 126s-16.167 61.333 -30.5 82s-33.166 35.5 -56.499 44.5s-52 13.5 -86 13.5c-13.333 0 -25.166 -0.5 -35.499 -1.5s-20.166 -2.5 -29.499 -4.5v-524c16.667 -2 30.5 -3.33301 41.5 -4s21.167 -1 30.5 -1z" />
    <glyph glyph-name="uni01F3" unicode="&#x1f3;" horiz-adv-x="952" 
d="M553 94l208 331v7h-201v108h354v-95l-206 -330v-7h216v-108h-371v94zM204 -9c-115.333 0 -173 88.333 -173 265c0 97.333 20.667 170.5 62 219.5s103.333 73.5 186 73.5c8 0 16.333 -0.333008 25 -1s20 -2 34 -4v264h136v-808h-125l-8 54h-4
c-32 -42 -76.333 -63 -133 -63zM252 89c13.333 0 25.333 2.8291 36 8.49609s19.667 14.834 27 27.501s13 29.334 17 50.001s6 46 6 76v194c-19.333 7.33301 -40.333 11 -63 11c-18.667 0 -34.667 -3.16699 -48 -9.5s-24.166 -16.666 -32.499 -30.999
s-14.333 -33.166 -18 -56.499s-5.5 -52.333 -5.5 -87c0 -34 1.5 -62.5 4.5 -85.5s7.66699 -41.833 14 -56.5s14.666 -25.167 24.999 -31.5s22.833 -9.5 37.5 -9.5z" />
    <glyph glyph-name="Gacute" unicode="&#x1f4;" horiz-adv-x="578" 
d="M274 796l69 165h141l-110 -173zM338 -9c-104.667 0 -181.667 30.832 -231 92.499s-74 157.167 -74 286.5c0 128.667 27.5 224 82.5 286s139.5 93 253.5 93c22.667 0 47.5 -1.66699 74.5 -5s54.5 -8.33301 82.5 -15v-113c-30 5.33301 -56.5 9.5 -79.5 12.5
s-44.167 4.5 -63.5 4.5c-38 0 -70.167 -4.5 -96.5 -13.5s-47.666 -23.833 -63.999 -44.5s-28 -47.834 -35 -81.501s-10.5 -75.167 -10.5 -124.5s3.16699 -90.666 9.5 -123.999s16.5 -60.166 30.5 -80.499s32.333 -35 55 -44s50.667 -13.5 84 -13.5
c8 0 16.167 0.166992 24.5 0.5s17.166 0.833008 26.499 1.5v267h127v-369c-44 -6 -80.833 -10.167 -110.5 -12.5s-58.167 -3.5 -85.5 -3.5z" />
    <glyph glyph-name="gacute" unicode="&#x1f5;" horiz-adv-x="525" 
d="M227 619l68 186h141l-111 -195zM225 -220c-49.333 0 -100.997 7.66797 -154.997 23.001l9 102c27.333 -6.66699 51.666 -11.667 72.999 -15s41.666 -5 60.999 -5c22.667 0 42.167 2.83301 58.5 8.5s29.666 14.834 39.999 27.501s18 29 23 49s7.5 44.333 7.5 73v27h-5
c-30.667 -40 -73.667 -60 -129 -60c-60 0 -104.5 20.167 -133.5 60.5s-43.5 102.166 -43.5 185.499c0 96 21 168.833 63 218.5s103.667 74.5 185 74.5c30 0 60.5 -2.33301 91.5 -7s65.833 -12.334 104.5 -23.001v-447c0 -194.667 -83.333 -292 -250 -292zM253.003 103.001
c26.667 0 47.5 11.165 62.5 33.498s22.5 60.5 22.5 114.5v194c-19.333 7.33301 -40 11 -62 11c-18.667 0 -34.667 -3.16699 -48 -9.5s-24.166 -16.666 -32.499 -30.999s-14.333 -33.166 -18 -56.499s-5.5 -52.333 -5.5 -87c0 -62 6.16699 -105.667 18.5 -131
s33.166 -38 62.499 -38z" />
    <glyph glyph-name="Aringacute" unicode="&#x1fa;" horiz-adv-x="601" 
d="M0 7l182 655.003c-18 22 -27 50 -27 84c0 34.667 9.5 64 28.5 88s45.833 39 80.5 45l50 110h141l-81 -125c22 -10.667 39.167 -26.334 51.5 -47.001s18.5 -44.334 18.5 -71.001c0 -32.667 -8.66699 -59.334 -26 -80.001l182 -659v-7h-132l-51 188h-234l-51 -188h-132v7z
M299 680.003c19.333 0 35 6.16699 47 18.5s18 28.166 18 47.499s-5.83301 35.166 -17.5 47.499s-27.5 18.5 -47.5 18.5s-35.667 -6.16699 -47 -18.5s-17 -28.166 -17 -47.499s5.83301 -35.166 17.5 -47.499s27.167 -18.5 46.5 -18.5zM389 306.003l-56 217l-19 83h-27
l-18 -83l-58 -217h178z" />
    <glyph glyph-name="aringacute" unicode="&#x1fb;" horiz-adv-x="490" 
d="M164 -5c-43.333 0 -78.0039 14.168 -104.004 42.501s-39 65.833 -39 112.5c0 102.667 64 158.667 192 168l92 6v17c0 20.667 -1.33301 37.667 -4 51s-7.5 24 -14.5 32s-16.5 13.5 -28.5 16.5s-27 4.5 -45 4.5c-7.33301 0 -17.166 -0.5 -29.499 -1.5
s-25.333 -2.16699 -39 -3.5s-27 -2.83301 -40 -4.5s-23.833 -3.5 -32.5 -5.5l-9 100c28.667 5.33301 57.834 9.66602 87.501 12.999s57.5 5 83.5 5c72.667 0 125.5 -13.5 158.5 -40.5s49.5 -70.5 49.5 -130.5v-377h-113l-11 65h-8
c-17.333 -19.333 -38.666 -35.833 -63.999 -49.5s-52.666 -20.5 -81.999 -20.5zM251.996 598.001c-35.333 0 -63.168 10.335 -83.501 31.002s-30.5 47 -30.5 79c0 27.333 7.33301 50.666 22 69.999s35.334 31.666 62.001 36.999l61 165h141l-103 -181
c14.667 -9.33301 26 -22 34 -38s12 -33.667 12 -53c0 -32 -10.333 -58.333 -31 -79s-48.667 -31 -84 -31zM214.994 96.0029c14.667 0 30.167 4.49902 46.5 13.499s30.833 17.833 43.5 26.5v104l-62 -6c-31.333 -3.33301 -53.5 -10.5 -66.5 -21.5s-19.5 -27.833 -19.5 -50.5
c0 -21.333 5 -37.666 15 -48.999s24.333 -17 43 -17zM251.994 652.002c16 0 28.667 5.33301 38 16s14 24 14 40c0 16.667 -4.66699 30.167 -14 40.5s-22 15.5 -38 15.5s-28.333 -5.16699 -37 -15.5s-13 -23.833 -13 -40.5s4.5 -30.167 13.5 -40.5s21.167 -15.5 36.5 -15.5z
" />
    <glyph glyph-name="AEacute" unicode="&#x1fc;" horiz-adv-x="807" 
d="M416 796l69 165h141l-110 -173zM-1 6l224 734h541v-118h-259l11 -191h232v-118h-225l12 -195h238v-118h-373l-8 188h-194l-56 -188h-143v6zM234 306h153l-13 325h-43z" />
    <glyph glyph-name="aeacute" unicode="&#x1fd;" horiz-adv-x="760" 
d="M341 619l68 186h141l-111 -195zM540 -9c-40.667 0 -74.998 7.16797 -102.998 21.501s-51 36.5 -69 66.5l-8 1c-39.333 -29.333 -74.333 -50.833 -105 -64.5s-61 -20.5 -91 -20.5c-43.333 0 -78 14.167 -104 42.5s-39 65.833 -39 112.5c0 102.667 64 158.667 192 168l92 6
v37c-1.33301 31.333 -8.33301 53.166 -21 65.499s-36.334 18.5 -71.001 18.5c-8.66699 0 -19.334 -0.5 -32.001 -1.5s-25.834 -2.16699 -39.501 -3.5s-26.667 -2.83301 -39 -4.5s-22.5 -3.5 -30.5 -5.5l-9 100c33.333 6 64.333 10.5 93 13.5s54.667 4.5 78 4.5
c36 0 65.333 -5.83301 88 -17.5s39.667 -29.5 51 -53.5h8c34.667 48 87.334 72 158.001 72c65.333 0 113.5 -20.333 144.5 -61s46.5 -103.667 46.5 -189c0 -18.667 -0.333008 -33 -1 -43s-1.66699 -20.667 -3 -32h-283c2 -46 11 -78.833 27 -98.5s42.333 -29.5 79 -29.5
c18 0 40.5 2.33301 67.5 7s57.167 11.667 90.5 21l5 -102c-23.333 -9.33301 -50.833 -16.833 -82.5 -22.5s-61.5 -8.5 -89.5 -8.5zM215.002 96.001c13.333 0 27.834 4.33398 43.501 13.001s33.5 19.667 53.5 33c-1.33301 3.33301 -2.33301 9.33301 -3 18
s-1.33398 18.167 -2.00098 28.5s-1.16699 20.166 -1.5 29.499s-0.5 16.666 -0.5 21.999l-62 -6c-31.333 -2.66699 -53.5 -9.66699 -66.5 -21s-19.5 -28.333 -19.5 -51c0 -21.333 5 -37.666 15 -48.999s24.333 -17 43 -17zM608.003 310.002
c-1.33301 49.333 -7.49902 84.333 -18.499 105s-29.167 31 -54.5 31c-29.333 0 -51.333 -11 -66 -33s-23.334 -56.333 -26.001 -103h165z" />
    <glyph glyph-name="Oslashacute" unicode="&#x1fe;" horiz-adv-x="659" 
d="M90 113c-35.333 61.333 -53.001 146.667 -53.001 256c0 128.667 24 224.334 72 287.001s121.333 94 220 94c76 0 137.333 -18.667 184 -56l34 46h106l-83 -114c35.333 -62.667 53 -148.334 53 -257.001c0 -128.667 -24.167 -224 -72.5 -286s-122.166 -93 -221.499 -93
c-76 0 -136.667 18.333 -182 55l-33 -45h-106zM179.999 369.001c0 -24 0.5 -46.167 1.5 -66.5s3.16699 -38.833 6.5 -55.5l248 340c-12 16.667 -26.833 28.667 -44.5 36s-38.5 11 -62.5 11c-27.333 0 -50.333 -4.83301 -69 -14.5s-34 -25 -46 -46s-20.667 -48.333 -26 -82
s-8 -74.5 -8 -122.5zM328.999 107.001c27.333 0 50.501 4.66797 69.501 14.001s34.5 24.5 46.5 45.5s20.667 48 26 81s8 73.5 8 121.5c0 23.333 -0.666992 45.166 -2 65.499s-3.33301 38.833 -6 55.5l-247 -339c12 -15.333 26.667 -26.5 44 -33.5s37.666 -10.5 60.999 -10.5
zM273 796.002l69 165h141l-110 -173z" />
    <glyph glyph-name="oslashacute" unicode="&#x1ff;" horiz-adv-x="526" 
d="M74 86c-27.333 46.667 -41 108 -41 184c0 92.667 19.5 162.5 58.5 209.5s96.167 70.5 171.5 70.5c58 0 105.667 -14.667 143 -44l27 34h85l-66 -84c28 -46 42 -108 42 -186c0 -92.667 -19.5 -162.5 -58.5 -209.5s-96.5 -70.5 -172.5 -70.5
c-59.333 0 -107.333 14.667 -144 44l-27 -34h-86zM263 96c17.333 0 32.001 2.6709 44.001 8.00391s21.667 14.666 29 27.999s12.5 31.166 15.5 53.499s4.5 50.5 4.5 84.5c0 11.333 -0.166992 22.166 -0.5 32.499s-0.833008 20.166 -1.5 29.499l-161 -204
c7.33301 -11.333 16.666 -19.5 27.999 -24.5s25.333 -7.5 42 -7.5zM171.001 270.004v-31.501c0 -9.66699 0.666992 -18.834 2 -27.501l159 202c-13.333 20.667 -36.333 31 -69 31c-17.333 0 -32 -2.66699 -44 -8s-21.5 -14.666 -28.5 -27.999s-12 -31.166 -15 -53.499
s-4.5 -50.5 -4.5 -84.5zM208.001 619.003l68 186h141l-111 -195z" />
    <glyph glyph-name="Adblgrave" unicode="&#x200;" horiz-adv-x="602" 
d="M1 7l194 733h211l195 -733v-7h-132l-52 190h-233l-51 -190h-132v7zM390 303l-58 220l-26 109h-10l-27 -109l-58 -220h179zM186 788l-110 173h116l69 -161zM360 788l-111 173h117l69 -161z" />
    <glyph glyph-name="adblgrave" unicode="&#x201;" horiz-adv-x="490" 
d="M164 -5c-43.333 0 -78.0039 14.168 -104.004 42.501s-39 65.833 -39 112.5c0 102.667 64 158.667 192 168l92 6v17c0 20.667 -1.33301 37.667 -4 51s-7.5 24 -14.5 32s-16.5 13.5 -28.5 16.5s-27 4.5 -45 4.5c-7.33301 0 -17.166 -0.5 -29.499 -1.5
s-25.333 -2.16699 -39 -3.5s-27 -2.83301 -40 -4.5s-23.833 -3.5 -32.5 -5.5l-9 100c28.667 5.33301 57.834 9.66602 87.501 12.999s57.5 5 83.5 5c72.667 0 125.5 -13.5 158.5 -40.5s49.5 -70.5 49.5 -130.5v-377h-113l-11 65h-8
c-17.333 -19.333 -38.666 -35.833 -63.999 -49.5s-52.666 -20.5 -81.999 -20.5zM214.996 96.001c14.667 0 30.167 4.49902 46.5 13.499s30.833 17.833 43.5 26.5v104l-62 -6c-31.333 -3.33301 -53.5 -10.5 -66.5 -21.5s-19.5 -27.833 -19.5 -50.5
c0 -21.333 5 -37.666 15 -48.999s24.333 -17 43 -17zM133.996 610l-111 195h117l67 -185zM312.996 610l-112 195h117l68 -185z" />
    <glyph glyph-name="Ainvertedbreve" unicode="&#x202;" horiz-adv-x="602" 
d="M1 7l194 733h211l195 -733v-7h-132l-52 190h-233l-51 -190h-132v7zM390 303l-58 220l-26 109h-10l-27 -109l-58 -220h179zM377 809c0 36 -5.66699 61.5 -17 76.5s-30.333 22.5 -57 22.5c-28 0 -47.667 -7.5 -59 -22.5s-17 -40.5 -17 -76.5h-95
c0 52 14.5 92.833 43.5 122.5s71.5 44.5 127.5 44.5c54.667 0 96.667 -14.833 126 -44.5s44 -70.5 44 -122.5h-96z" />
    <glyph glyph-name="ainvertedbreve" unicode="&#x203;" horiz-adv-x="490" 
d="M164 -5c-43.333 0 -78.0039 14.168 -104.004 42.501s-39 65.833 -39 112.5c0 102.667 64 158.667 192 168l92 6v17c0 20.667 -1.33301 37.667 -4 51s-7.5 24 -14.5 32s-16.5 13.5 -28.5 16.5s-27 4.5 -45 4.5c-7.33301 0 -17.166 -0.5 -29.499 -1.5
s-25.333 -2.16699 -39 -3.5s-27 -2.83301 -40 -4.5s-23.833 -3.5 -32.5 -5.5l-9 100c28.667 5.33301 57.834 9.66602 87.501 12.999s57.5 5 83.5 5c72.667 0 125.5 -13.5 158.5 -40.5s49.5 -70.5 49.5 -130.5v-377h-113l-11 65h-8
c-17.333 -19.333 -38.666 -35.833 -63.999 -49.5s-52.666 -20.5 -81.999 -20.5zM214.996 96.001c14.667 0 30.167 4.49902 46.5 13.499s30.833 17.833 43.5 26.5v104l-62 -6c-31.333 -3.33301 -53.5 -10.5 -66.5 -21.5s-19.5 -27.833 -19.5 -50.5
c0 -21.333 5 -37.666 15 -48.999s24.333 -17 43 -17zM85.9961 621c2.66699 50.667 18.332 89 46.999 115s69.667 39 123 39s94.333 -13 123 -39s44.334 -64.333 47.001 -115h-96c-0.666992 28 -7.5 48.333 -20.5 61s-30.833 19 -53.5 19c-23.333 0 -41.5 -6.33301 -54.5 -19
s-19.833 -33 -20.5 -61h-95z" />
    <glyph glyph-name="Edblgrave" unicode="&#x204;" horiz-adv-x="533" 
d="M61 740h432v-118h-292v-191h260v-118h-260v-195h301v-118h-441v740zM164 788l-110 173h116l69 -161zM338 788l-111 173h117l69 -161z" />
    <glyph glyph-name="edblgrave" unicode="&#x205;" horiz-adv-x="483" 
d="M130 610l-111 195h117l67 -185zM309 610l-112 195h117l68 -185zM264 -9c-76.667 0 -134.83 22.999 -174.497 68.999s-59.5 113.667 -59.5 203c0 94.667 19.5 166 58.5 214s97.167 72 174.5 72c65.333 0 113.5 -20.333 144.5 -61s46.5 -103.667 46.5 -189
c0 -18.667 -0.333008 -33.167 -1 -43.5s-1.66699 -21.166 -3 -32.499h-282c3.33301 -48 12.666 -81.167 27.999 -99.5s40.666 -27.5 75.999 -27.5c19.333 0 42.666 2.33301 69.999 7s56.666 11.667 87.999 21l5 -102c-23.333 -9.33301 -50.666 -16.833 -81.999 -22.5
s-61 -8.5 -89 -8.5zM259.004 445.999c-28 0 -49.333 -10.501 -64 -31.501s-23.667 -55.5 -27 -103.5h164c-1.33301 48.667 -7.5 83.334 -18.5 104.001s-29.167 31 -54.5 31z" />
    <glyph glyph-name="Einvertedbreve" unicode="&#x206;" horiz-adv-x="533" 
d="M61 740h432v-118h-292v-191h260v-118h-260v-195h301v-118h-441v740zM355 809c0 36 -5.66699 61.5 -17 76.5s-30.333 22.5 -57 22.5c-28 0 -47.667 -7.5 -59 -22.5s-17 -40.5 -17 -76.5h-95c0 52 14.5 92.833 43.5 122.5s71.5 44.5 127.5 44.5
c54.667 0 96.667 -14.833 126 -44.5s44 -70.5 44 -122.5h-96z" />
    <glyph glyph-name="einvertedbreve" unicode="&#x207;" horiz-adv-x="483" 
d="M81 621c2.66699 50.667 18.332 89 46.999 115s69.667 39 123 39s94.333 -13 123 -39s44.334 -64.333 47.001 -115h-96c-0.666992 28 -7.5 48.333 -20.5 61s-30.833 19 -53.5 19c-23.333 0 -41.5 -6.33301 -54.5 -19s-19.833 -33 -20.5 -61h-95zM263.998 -9
c-76.667 0 -134.83 22.999 -174.497 68.999s-59.5 113.667 -59.5 203c0 94.667 19.5 166 58.5 214s97.167 72 174.5 72c65.333 0 113.5 -20.333 144.5 -61s46.5 -103.667 46.5 -189c0 -18.667 -0.333008 -33.167 -1 -43.5s-1.66699 -21.166 -3 -32.499h-282
c3.33301 -48 12.666 -81.167 27.999 -99.5s40.666 -27.5 75.999 -27.5c19.333 0 42.666 2.33301 69.999 7s56.666 11.667 87.999 21l5 -102c-23.333 -9.33301 -50.666 -16.833 -81.999 -22.5s-61 -8.5 -89 -8.5zM259.002 445.999c-28 0 -49.333 -10.501 -64 -31.501
s-23.667 -55.5 -27 -103.5h164c-1.33301 48.667 -7.5 83.334 -18.5 104.001s-29.167 31 -54.5 31z" />
    <glyph glyph-name="Idblgrave" unicode="&#x208;" horiz-adv-x="261" 
d="M61 740h140v-740h-140v740zM16 788l-110 173h116l69 -161zM190 788l-111 173h117l69 -161z" />
    <glyph glyph-name="idblgrave" unicode="&#x209;" horiz-adv-x="242" 
d="M10 610l-111 195h117l67 -185zM189 610l-112 195h117l68 -185zM53 540h136v-540h-136v540z" />
    <glyph glyph-name="Iinvertedbreve" unicode="&#x20a;" horiz-adv-x="261" 
d="M61 740h140v-740h-140v740zM207 809c0 36 -5.66699 61.5 -17 76.5s-30.333 22.5 -57 22.5c-28 0 -47.667 -7.5 -59 -22.5s-17 -40.5 -17 -76.5h-95c0 52 14.5 92.833 43.5 122.5s71.5 44.5 127.5 44.5c54.667 0 96.667 -14.833 126 -44.5s44 -70.5 44 -122.5h-96z" />
    <glyph glyph-name="iinvertedbreve" unicode="&#x20b;" horiz-adv-x="242" 
d="M-38 621c2.66699 50.667 18.333 89 47 115s69.667 39 123 39c107.333 0 164 -51.333 170 -154h-95c-1.33301 28 -8.5 48.333 -21.5 61s-30.833 19 -53.5 19s-40.667 -6.33301 -54 -19s-20.333 -33 -21 -61h-95zM52.999 540h136v-540h-136v540z" />
    <glyph glyph-name="Odblgrave" unicode="&#x20c;" horiz-adv-x="653" 
d="M326 -10c-98.667 0 -171.999 31.167 -219.999 93.5s-72 157.5 -72 285.5c0 128.667 24 224.334 72 287.001s121.333 94 220 94c99.333 0 173.166 -31.333 221.499 -94s72.5 -158.334 72.5 -287.001s-24 -224 -72 -286s-122 -93 -222 -93zM326.001 107
c27.333 0 50.5 4.66602 69.5 13.999s34.5 24.5 46.5 45.5s20.667 48 26 81s8 73.5 8 121.5s-2.66699 88.833 -8 122.5s-14 61 -26 82s-27.5 36.333 -46.5 46s-42.167 14.5 -69.5 14.5c-26.667 0 -49.5 -4.83301 -68.5 -14.5s-34.5 -25 -46.5 -46s-20.667 -48.333 -26 -82
s-8 -74.5 -8 -122.5c0 -47.333 2.66699 -87.666 8 -120.999s14 -60.5 26 -81.5s27.333 -36.167 46 -45.5s41.667 -14 69 -14zM211.001 787.999l-110 173h116l69 -161zM385.001 787.999l-111 173h117l69 -161z" />
    <glyph glyph-name="odblgrave" unicode="&#x20d;" horiz-adv-x="521" 
d="M144 610l-111 195h117l67 -185zM323 610l-112 195h117l68 -185zM260 -10c-76 0 -133.333 23.667 -172 71s-58 117 -58 209c0 92.667 19.333 162.5 58 209.5s96 70.5 172 70.5s133.333 -23.5 172 -70.5s58 -116.833 58 -209.5s-19.333 -162.5 -58 -209.5
s-96 -70.5 -172 -70.5zM260 96c17.333 0 32 2.66699 44 8s21.667 14.666 29 27.999s12.5 31.166 15.5 53.499s4.5 50.5 4.5 84.5s-1.5 62.167 -4.5 84.5s-8.16699 40.166 -15.5 53.499s-17 22.666 -29 27.999s-26.667 8 -44 8s-32 -2.66699 -44 -8
s-21.5 -14.666 -28.5 -27.999s-12 -31.166 -15 -53.499s-4.5 -50.5 -4.5 -84.5c0 -33.333 1.5 -61.166 4.5 -83.499s8 -40.166 15 -53.499s16.5 -22.833 28.5 -28.5s26.667 -8.5 44 -8.5z" />
    <glyph glyph-name="Oinvertedbreve" unicode="&#x20e;" horiz-adv-x="653" 
d="M326 -10c-98.667 0 -171.999 31.167 -219.999 93.5s-72 157.5 -72 285.5c0 128.667 24 224.334 72 287.001s121.333 94 220 94c99.333 0 173.166 -31.333 221.499 -94s72.5 -158.334 72.5 -287.001s-24 -224 -72 -286s-122 -93 -222 -93zM326.001 107
c27.333 0 50.5 4.66602 69.5 13.999s34.5 24.5 46.5 45.5s20.667 48 26 81s8 73.5 8 121.5s-2.66699 88.833 -8 122.5s-14 61 -26 82s-27.5 36.333 -46.5 46s-42.167 14.5 -69.5 14.5c-26.667 0 -49.5 -4.83301 -68.5 -14.5s-34.5 -25 -46.5 -46s-20.667 -48.333 -26 -82
s-8 -74.5 -8 -122.5c0 -47.333 2.66699 -87.666 8 -120.999s14 -60.5 26 -81.5s27.333 -36.167 46 -45.5s41.667 -14 69 -14zM402.001 808.999c0 36 -5.66699 61.5 -17 76.5s-30.333 22.5 -57 22.5c-28 0 -47.667 -7.5 -59 -22.5s-17 -40.5 -17 -76.5h-95
c0 52 14.5 92.833 43.5 122.5s71.5 44.5 127.5 44.5c54.667 0 96.667 -14.833 126 -44.5s44 -70.5 44 -122.5h-96z" />
    <glyph glyph-name="oinvertedbreve" unicode="&#x20f;" horiz-adv-x="521" 
d="M96 621c2.66699 50.667 18.332 89 46.999 115s69.667 39 123 39s94.333 -13 123 -39s44.334 -64.333 47.001 -115h-96c-0.666992 28 -7.5 48.333 -20.5 61s-30.833 19 -53.5 19c-23.333 0 -41.5 -6.33301 -54.5 -19s-19.833 -33 -20.5 -61h-95zM259.998 -10
c-76 0 -133.333 23.667 -172 71s-58 117 -58 209c0 92.667 19.333 162.5 58 209.5s96 70.5 172 70.5s133.333 -23.5 172 -70.5s58 -116.833 58 -209.5s-19.333 -162.5 -58 -209.5s-96 -70.5 -172 -70.5zM259.998 96c17.333 0 32 2.66699 44 8s21.667 14.666 29 27.999
s12.5 31.166 15.5 53.499s4.5 50.5 4.5 84.5s-1.5 62.167 -4.5 84.5s-8.16699 40.166 -15.5 53.499s-17 22.666 -29 27.999s-26.667 8 -44 8s-32 -2.66699 -44 -8s-21.5 -14.666 -28.5 -27.999s-12 -31.166 -15 -53.499s-4.5 -50.5 -4.5 -84.5
c0 -33.333 1.5 -61.166 4.5 -83.499s8 -40.166 15 -53.499s16.5 -22.833 28.5 -28.5s26.667 -8.5 44 -8.5z" />
    <glyph glyph-name="Rdblgrave" unicode="&#x210;" horiz-adv-x="584" 
d="M303 259c-7.33301 -0.666992 -14.668 -1.00195 -22.001 -1.00195h-23h-12h-16.5c-5.66699 0 -11.167 0.166992 -16.5 0.5s-9.33301 0.5 -12 0.5v-259h-140v735c54.667 10 114.334 15 179.001 15c108.667 0 187.667 -19.667 237 -59s74 -102.666 74 -189.999
c0 -55.333 -10 -100.666 -30 -135.999s-51 -62 -93 -80l141 -285h-145zM261.998 366.998c26.667 0 49.335 2.33105 68.002 6.99805s33.667 12.334 45 23.001s19.666 24.5 24.999 41.5s8 37.833 8 62.5c0 48.667 -10.833 83.167 -32.5 103.5s-59.5 30.5 -113.5 30.5
c-7.33301 0 -16.833 -0.666992 -28.5 -2s-22.5 -2.66602 -32.5 -3.99902v-258c9.33301 -1.33301 19.666 -2.33301 30.999 -3s21.333 -1 30 -1zM181.999 787.996l-110 173h116l69 -161zM355.999 787.996l-111 173h117l69 -161z" />
    <glyph glyph-name="rdblgrave" unicode="&#x211;" horiz-adv-x="359" 
d="M81 610l-111 195h117l67 -185zM260 610l-112 195h117l68 -185zM52 540l116.002 -0.000976562l8 -75h7c3.33301 4.66699 10 10.834 20 18.501s21.667 15.5 35 23.5s27.5 15.667 42.5 23s29.167 13.666 42.5 18.999h26v-131h-55
c-10 -1.33301 -20.167 -3.66602 -30.5 -6.99902s-20.333 -7 -30 -11s-18.334 -8.5 -26.001 -13.5s-13.834 -9.83301 -18.501 -14.5v-372h-137v540z" />
    </font>
</defs>
</svg>
