<?xml version="1.0" standalone="no"?>
<!DOCTYPE svg PUBLIC "-//W3C//DTD SVG 1.1//EN" "http://www.w3.org/Graphics/SVG/1.1/DTD/svg11.dtd" >
<svg>
<metadata>
Created by FontForge 20090914 at Sat Aug  6 10:40:39 2016
 By www-data
Copyright (c) 2012, Impallari Type (www.impallari.com), with Reserved Font Name Encode Sans.
</metadata>
<defs>
<font id="EncodeSansCompressed-Regular" horiz-adv-x="510" >
  <font-face 
    font-family="Encode Sans Compressed"
    font-weight="400"
    font-stretch="normal"
    units-per-em="1000"
    panose-1="2 0 0 0 0 0 0 0 0 0"
    ascent="800"
    descent="-200"
    x-height="540"
    cap-height="740"
    bbox="-84 -220.002 1336 1030"
    underline-thickness="55"
    underline-position="-57"
    unicode-range="U+000D-U+FB04"
  />
<missing-glyph horiz-adv-x="625" 
d="M87 1030h450v-1250h-450v1250zM470 -156v1123h-317v-1123h317z" />
    <glyph glyph-name="f_f" unicode="ff" horiz-adv-x="544" 
d="M90 477l-75.001 -0.00195312v63h75v39c0 42 3.16699 77 9.5 105s16.833 50.833 31.5 68.5s34.334 30.834 59.001 39.501s55.667 14.667 93 18l3 -59c-24.667 -2.66699 -45 -7 -61 -13s-28.5 -15.333 -37.5 -28s-15.333 -29.167 -19 -49.5s-5.5 -46.166 -5.5 -77.499v-43
h100v-63h-100v-477h-73v477zM359.999 476.998l-75.001 -0.00195312v63h75v39c0 42 3.16699 77 9.5 105s16.833 50.833 31.5 68.5s34.334 30.834 59.001 39.501s55.667 14.667 93 18l3 -59c-24.667 -2.66699 -45 -7 -61 -13s-28.5 -15.333 -37.5 -28
s-15.333 -29.167 -19 -49.5s-5.5 -46.166 -5.5 -77.499v-43h100v-63h-100v-477h-73v477z" />
    <glyph glyph-name="f_i" unicode="fi" horiz-adv-x="484" 
d="M384 662c-31.333 0 -47 16 -47 48c0 30.667 15.667 46 47 46c32.667 0 49 -15.333 49 -46c0 -32 -16.333 -48 -49 -48zM348 540h73v-540h-73v540zM90 477l-75.001 -0.00195312v63h75v39c0 42 3.16699 77 9.5 105s16.833 50.833 31.5 68.5s34.334 30.834 59.001 39.501
s55.667 14.667 93 18l3 -59c-24.667 -2.66699 -45 -7 -61 -13s-28.5 -15.333 -37.5 -28s-15.333 -29.167 -19 -49.5s-5.5 -46.166 -5.5 -77.499v-43h100v-63h-100v-477h-73v477z" />
    <glyph glyph-name="f_l" unicode="fl" horiz-adv-x="485" 
d="M90 477l-75.001 -0.00195312v63h75v39c0 42 3.16699 77 9.5 105s16.833 50.833 31.5 68.5s34.334 30.834 59.001 39.501s55.667 14.667 93 18l3 -59c-24.667 -2.66699 -45 -7 -61 -13s-28.5 -15.333 -37.5 -28s-15.333 -29.167 -19 -49.5s-5.5 -46.166 -5.5 -77.499v-43
h100v-63h-100v-477h-73v477zM347.999 807.998h73v-808h-73v808z" />
    <glyph glyph-name="f_f_i" unicode="ffi" horiz-adv-x="751" 
d="M651 662c-31.333 0 -47 16 -47 48c0 30.667 15.667 46 47 46c32.667 0 49 -15.333 49 -46c0 -32 -16.333 -48 -49 -48zM615 540h73v-540h-73v540zM357 477l-75.001 -0.00195312v63h75v39c0 42 3.16699 77 9.5 105s16.833 50.833 31.5 68.5s34.334 30.834 59.001 39.501
s55.667 14.667 93 18l3 -59c-24.667 -2.66699 -45 -7 -61 -13s-28.5 -15.333 -37.5 -28s-15.333 -29.167 -19 -49.5s-5.5 -46.166 -5.5 -77.499v-43h100v-63h-100v-477h-73v477zM89.999 476.998l-75.001 -0.00195312v63h75v39c0 42 3.16699 77 9.5 105
s16.833 50.833 31.5 68.5s34.334 30.834 59.001 39.501s55.667 14.667 93 18l3 -59c-24.667 -2.66699 -45 -7 -61 -13s-28.5 -15.333 -37.5 -28s-15.333 -29.167 -19 -49.5s-5.5 -46.166 -5.5 -77.499v-43h100v-63h-100v-477h-73v477z" />
    <glyph glyph-name="f_f_l" unicode="ffl" horiz-adv-x="752" 
d="M357 477l-75.001 -0.00195312v63h75v39c0 42 3.16699 77 9.5 105s16.833 50.833 31.5 68.5s34.334 30.834 59.001 39.501s55.667 14.667 93 18l3 -59c-24.667 -2.66699 -45 -7 -61 -13s-28.5 -15.333 -37.5 -28s-15.333 -29.167 -19 -49.5s-5.5 -46.166 -5.5 -77.499v-43
h100v-63h-100v-477h-73v477zM614.999 807.998h73v-808h-73v808zM89.999 476.998l-75.001 -0.00195312v63h75v39c0 42 3.16699 77 9.5 105s16.833 50.833 31.5 68.5s34.334 30.834 59.001 39.501s55.667 14.667 93 18l3 -59c-24.667 -2.66699 -45 -7 -61 -13
s-28.5 -15.333 -37.5 -28s-15.333 -29.167 -19 -49.5s-5.5 -46.166 -5.5 -77.499v-43h100v-63h-100v-477h-73v477z" />
    <glyph glyph-name="f_b" unicode="fb" horiz-adv-x="769" 
d="M90 477l-75.001 -0.00195312v63h75v39c0 42 3.16699 77 9.5 105s16.833 50.833 31.5 68.5s34.334 30.834 59.001 39.501s55.667 14.667 93 18l3 -59c-24.667 -2.66699 -45 -7 -61 -13s-28.5 -15.333 -37.5 -28s-15.333 -29.167 -19 -49.5s-5.5 -46.166 -5.5 -77.499v-43
h100v-63h-100v-477h-73v477zM496.999 -10.002c-46 0 -96 9.00098 -150 27.001v791h73v-322c16 20 36 35.5 60 46.5s50 16.5 78 16.5c57.333 0 100.333 -22.333 129 -67s43 -111.334 43 -200.001c0 -39.333 -3.83301 -76.333 -11.5 -111s-20.667 -65.167 -39 -91.5
s-42.333 -47.5 -72 -63.5s-66.5 -24.667 -110.5 -26zM500.999 45.999c52 0 90.667 18.667 116 56s38 95.333 38 174c0 74 -9.66699 128.333 -29 163s-49 52 -89 52c-14.667 0 -29 -2.66699 -43 -8s-26.5 -12.833 -37.5 -22.5s-19.833 -21.5 -26.5 -35.5s-10 -30 -10 -48
v-320c32.667 -7.33301 59.667 -11 81 -11z" />
    <glyph glyph-name="f_f_b" unicode="ffb" horiz-adv-x="1036" 
d="M357 477l-75.001 -0.00195312v63h75v39c0 42 3.16699 77 9.5 105s16.833 50.833 31.5 68.5s34.334 30.834 59.001 39.501s55.667 14.667 93 18l3 -59c-24.667 -2.66699 -45 -7 -61 -13s-28.5 -15.333 -37.5 -28s-15.333 -29.167 -19 -49.5s-5.5 -46.166 -5.5 -77.499v-43
h100v-63h-100v-477h-73v477zM763.999 -10.002c-46 0 -96 9.00098 -150 27.001v791h73v-322c16 20 36 35.5 60 46.5s50 16.5 78 16.5c57.333 0 100.333 -22.333 129 -67s43 -111.334 43 -200.001c0 -39.333 -3.83301 -76.333 -11.5 -111s-20.667 -65.167 -39 -91.5
s-42.333 -47.5 -72 -63.5s-66.5 -24.667 -110.5 -26zM767.999 45.999c52 0 90.667 18.667 116 56s38 95.333 38 174c0 74 -9.66699 128.333 -29 163s-49 52 -89 52c-14.667 0 -29 -2.66699 -43 -8s-26.5 -12.833 -37.5 -22.5s-19.833 -21.5 -26.5 -35.5s-10 -30 -10 -48
v-320c32.667 -7.33301 59.667 -11 81 -11zM89.999 476.999l-75.001 -0.00195312v63h75v39c0 42 3.16699 77 9.5 105s16.833 50.833 31.5 68.5s34.334 30.834 59.001 39.501s55.667 14.667 93 18l3 -59c-24.667 -2.66699 -45 -7 -61 -13s-28.5 -15.333 -37.5 -28
s-15.333 -29.167 -19 -49.5s-5.5 -46.166 -5.5 -77.499v-43h100v-63h-100v-477h-73v477z" />
    <glyph glyph-name="f_f_h" unicode="ffh" horiz-adv-x="1032" 
d="M615 808l73.001 0.000976562v-326c33.333 23.333 63.666 40.5 90.999 51.5s53.666 16.5 78.999 16.5c41.333 0 70.833 -11 88.5 -33s26.5 -58.333 26.5 -109v-408h-73v391c0 33.333 -5.33301 57.166 -16 71.499s-27.667 21.5 -51 21.5
c-43.333 0 -91.666 -18.667 -144.999 -56v-428h-73v808zM357.001 477.001l-75.001 -0.00195312v63h75v39c0 42 3.16699 77 9.5 105s16.833 50.833 31.5 68.5s34.334 30.834 59.001 39.501s55.667 14.667 93 18l3 -59c-24.667 -2.66699 -45 -7 -61 -13
s-28.5 -15.333 -37.5 -28s-15.333 -29.167 -19 -49.5s-5.5 -46.166 -5.5 -77.499v-43h100v-63h-100v-477h-73v477zM90 476.999l-75.001 -0.00195312v63h75v39c0 42 3.16699 77 9.5 105s16.833 50.833 31.5 68.5s34.334 30.834 59.001 39.501s55.667 14.667 93 18l3 -59
c-24.667 -2.66699 -45 -7 -61 -13s-28.5 -15.333 -37.5 -28s-15.333 -29.167 -19 -49.5s-5.5 -46.166 -5.5 -77.499v-43h100v-63h-100v-477h-73v477z" />
    <glyph glyph-name="f_f_j" unicode="ffj" horiz-adv-x="754" 
d="M358 477l-75.001 -0.00195312v63h75v39c0 42 3.16699 77 9.5 105s16.833 50.833 31.5 68.5s34.334 30.834 59.001 39.501s55.667 14.667 93 18l3 -59c-24.667 -2.66699 -45 -7 -61 -13s-28.5 -15.333 -37.5 -28s-15.333 -29.167 -19 -49.5s-5.5 -46.166 -5.5 -77.499v-43
h100v-63h-100v-477h-73v477zM655.999 661.998c-31.333 0 -47 16 -47 48c0 30.667 15.667 46 47 46c32.667 0 49 -15.333 49 -46c0 -32 -16.333 -48 -49 -48zM551.999 -197.002c45.333 86 68 188.667 68 308v429h73v-453c0 -52 -8 -105.167 -24 -159.5
s-38.333 -103.5 -67 -147.5zM89.999 476.998l-75.001 -0.00195312v63h75v39c0 42 3.16699 77 9.5 105s16.833 50.833 31.5 68.5s34.334 30.834 59.001 39.501s55.667 14.667 93 18l3 -59c-24.667 -2.66699 -45 -7 -61 -13s-28.5 -15.333 -37.5 -28
s-15.333 -29.167 -19 -49.5s-5.5 -46.166 -5.5 -77.499v-43h100v-63h-100v-477h-73v477z" />
    <glyph glyph-name="f_f_k" unicode="ffk" horiz-adv-x="998" 
d="M615 808h73v-502h67l148 234h80l-165 -253l-15 -9v-2l16 -10l181 -266h-81l-165 249h-66v-249h-73v808zM357 477l-75.001 -0.00195312v63h75v39c0 42 3.16699 77 9.5 105s16.833 50.833 31.5 68.5s34.334 30.834 59.001 39.501s55.667 14.667 93 18l3 -59
c-24.667 -2.66699 -45 -7 -61 -13s-28.5 -15.333 -37.5 -28s-15.333 -29.167 -19 -49.5s-5.5 -46.166 -5.5 -77.499v-43h100v-63h-100v-477h-73v477zM89.999 476.998l-75.001 -0.00195312v63h75v39c0 42 3.16699 77 9.5 105s16.833 50.833 31.5 68.5
s34.334 30.834 59.001 39.501s55.667 14.667 93 18l3 -59c-24.667 -2.66699 -45 -7 -61 -13s-28.5 -15.333 -37.5 -28s-15.333 -29.167 -19 -49.5s-5.5 -46.166 -5.5 -77.499v-43h100v-63h-100v-477h-73v477z" />
    <glyph glyph-name="f_f_t" unicode="fft" horiz-adv-x="857" 
d="M357 477l-75.001 -0.00195312v63h75v39c0 42 3.16699 77 9.5 105s16.833 50.833 31.5 68.5s34.334 30.834 59.001 39.501s55.667 14.667 93 18l3 -59c-24.667 -2.66699 -45 -7 -61 -13s-28.5 -15.333 -37.5 -28s-15.333 -29.167 -19 -49.5s-5.5 -46.166 -5.5 -77.499v-43
h100v-63h-100v-477h-73v477zM771.999 -5.00195c-91.333 0 -137 48.001 -137 144.001v336h-97v65h100l10 134l59 11v-145h137v-65h-137v-323c0 -32.667 7 -56.834 21 -72.501s34 -23.5 60 -23.5c7.33301 0 16 0.5 26 1.5s19 2.83301 27 5.5v-60
c-26.667 -5.33301 -49.667 -8 -69 -8zM89.999 476.999l-75.001 -0.00195312v63h75v39c0 42 3.16699 77 9.5 105s16.833 50.833 31.5 68.5s34.334 30.834 59.001 39.501s55.667 14.667 93 18l3 -59c-24.667 -2.66699 -45 -7 -61 -13s-28.5 -15.333 -37.5 -28
s-15.333 -29.167 -19 -49.5s-5.5 -46.166 -5.5 -77.499v-43h100v-63h-100v-477h-73v477z" />
    <glyph glyph-name="f_h" unicode="fh" horiz-adv-x="765" 
d="M347 808l73.001 0.000976562v-326c33.333 23.333 63.666 40.5 90.999 51.5s53.666 16.5 78.999 16.5c41.333 0 70.833 -11 88.5 -33s26.5 -58.333 26.5 -109v-408h-73v391c0 33.333 -5.33301 57.166 -16 71.499s-27.667 21.5 -51 21.5
c-43.333 0 -91.666 -18.667 -144.999 -56v-428h-73v808zM90.001 477.001l-75.001 -0.00195312v63h75v39c0 42 3.16699 77 9.5 105s16.833 50.833 31.5 68.5s34.334 30.834 59.001 39.501s55.667 14.667 93 18l3 -59c-24.667 -2.66699 -45 -7 -61 -13
s-28.5 -15.333 -37.5 -28s-15.333 -29.167 -19 -49.5s-5.5 -46.166 -5.5 -77.499v-43h100v-63h-100v-477h-73v477z" />
    <glyph glyph-name="f_j" unicode="fj" horiz-adv-x="487" 
d="M90 477l-75.001 -0.00195312v63h75v39c0 42 3.16699 77 9.5 105s16.833 50.833 31.5 68.5s34.334 30.834 59.001 39.501s55.667 14.667 93 18l3 -59c-24.667 -2.66699 -45 -7 -61 -13s-28.5 -15.333 -37.5 -28s-15.333 -29.167 -19 -49.5s-5.5 -46.166 -5.5 -77.499v-43
h100v-63h-100v-477h-73v477zM387.999 661.998c-31.333 0 -47 16 -47 48c0 30.667 15.667 46 47 46c32.667 0 49 -15.333 49 -46c0 -32 -16.333 -48 -49 -48zM283.999 -197.002c45.333 86 68 188.667 68 308v429h73v-453c0 -52 -8 -105.167 -24 -159.5
s-38.333 -103.5 -67 -147.5z" />
    <glyph glyph-name="f_k" unicode="fk" horiz-adv-x="731" 
d="M347 808h73v-502h67l148 234h80l-165 -253l-15 -9v-2l16 -10l181 -266h-81l-165 249h-66v-249h-73v808zM90 477l-75.001 -0.00195312v63h75v39c0 42 3.16699 77 9.5 105s16.833 50.833 31.5 68.5s34.334 30.834 59.001 39.501s55.667 14.667 93 18l3 -59
c-24.667 -2.66699 -45 -7 -61 -13s-28.5 -15.333 -37.5 -28s-15.333 -29.167 -19 -49.5s-5.5 -46.166 -5.5 -77.499v-43h100v-63h-100v-477h-73v477z" />
    <glyph glyph-name="f_t" unicode="ft" horiz-adv-x="590" 
d="M90 477l-75.001 -0.00195312v63h75v39c0 42 3.16699 77 9.5 105s16.833 50.833 31.5 68.5s34.334 30.834 59.001 39.501s55.667 14.667 93 18l3 -59c-24.667 -2.66699 -45 -7 -61 -13s-28.5 -15.333 -37.5 -28s-15.333 -29.167 -19 -49.5s-5.5 -46.166 -5.5 -77.499v-43
h100v-63h-100v-477h-73v477zM505.999 -5.00195c-91.333 0 -137 48.001 -137 144.001v336h-97v65h100l10 134l59 11v-145h137v-65h-137v-323c0 -32.667 7 -56.834 21 -72.501s34 -23.5 60 -23.5c7.33301 0 16 0.5 26 1.5s19 2.83301 27 5.5v-60
c-26.667 -5.33301 -49.667 -8 -69 -8z" />
    <glyph glyph-name=".notdef" horiz-adv-x="625" 
d="M87 1030h450v-1250h-450v1250zM470 -156v1123h-317v-1123h317z" />
    <glyph glyph-name="NULL" horiz-adv-x="0" 
 />
    <glyph glyph-name="NULL" horiz-adv-x="0" 
 />
    <glyph glyph-name="nonmarkingreturn" unicode="&#xd;" horiz-adv-x="277" 
 />
    <glyph glyph-name="space" unicode=" " horiz-adv-x="194" 
 />
    <glyph glyph-name="exclam" unicode="!" horiz-adv-x="215" 
d="M110 2c-15.333 0 -27.166 4.00195 -35.499 12.002s-12.5 19.667 -12.5 35s4.16699 27.166 12.5 35.499s20.166 12.5 35.499 12.5s27.333 -4.33301 36 -13s13 -20.334 13 -35.001c0 -15.333 -4.33301 -27 -13 -35s-20.667 -12 -36 -12zM84 193.002l-15 537v10h76v-10
l-14 -537v-14h-47v14z" />
    <glyph glyph-name="quotedbl" unicode="&#x22;" horiz-adv-x="311" 
d="M119 808v-4l-24 -324h-38v328h62zM265 808v-4l-24 -324h-38v328h62z" />
    <glyph glyph-name="numbersign" unicode="#" horiz-adv-x="479" 
d="M274 233h-102l-19 -233h-57l19 233h-73v54h77l14 166h-91v54h95l19 233h57l-19 -233h102l20 233h57l-19 -233h83v-54h-87l-14 -166h100v-54h-104l-19 -233h-58zM176 287h102l14 166h-102z" />
    <glyph glyph-name="dollar" unicode="$" horiz-adv-x="473" 
d="M225 -13c-14.667 0 -30.502 0.834961 -47.502 2.50195s-34 4 -51 7s-33.5 6.5 -49.5 10.5s-30.333 8.66699 -43 14l7 65c9.33301 -4.66699 21.333 -9 36 -13s30.167 -7.5 46.5 -10.5s32.833 -5.5 49.5 -7.5s32 -3 46 -3c47.333 0 83.833 11.667 109.5 35
s38.5 56.666 38.5 99.999c0 18.667 -3.16699 35.334 -9.5 50.001s-15.666 28 -27.999 40s-28 23.333 -47 34s-41.5 21.334 -67.5 32.001c-28.667 11.333 -53.667 23.166 -75 35.499s-39 26.5 -53 42.5s-24.5 34.333 -31.5 55s-10.5 45 -10.5 73
c0 55.333 15.667 100.666 47 135.999s74 56.666 128 63.999v136h62v-134c20.667 -1.33301 41.834 -3.5 63.501 -6.5s44.834 -7.5 69.501 -13.5l-5 -64c-30 7.33301 -57.167 12.5 -81.5 15.5s-45.833 4.5 -64.5 4.5c-44 0 -79 -12.5 -105 -37.5s-39 -58.5 -39 -100.5
c0 -18 2.83301 -33.667 8.5 -47s14.5 -25.5 26.5 -36.5s27.167 -21.5 45.5 -31.5s40.166 -20 65.499 -30c30 -12.667 56 -25.667 78 -39s40.167 -28.333 54.5 -45s24.833 -35.667 31.5 -57s10 -46 10 -74c0 -54 -13.5 -97.833 -40.5 -131.5s-64.833 -55.167 -113.5 -64.5
v-138h-61v132z" />
    <glyph glyph-name="percent" unicode="%" horiz-adv-x="804" 
d="M186 284c-50 0 -87.833 19.667 -113.5 59s-38.5 97.333 -38.5 174s12.833 134.667 38.5 174s63.5 59 113.5 59s87.833 -19.667 113.5 -59s38.5 -97.333 38.5 -174s-12.833 -134.667 -38.5 -174s-63.5 -59 -113.5 -59zM186 339c61.333 0 92 59.333 92 178
c0 118 -30.667 177 -92 177c-62 0 -93 -59 -93 -177c0 -118.667 31 -178 93 -178zM620 -13c-102.667 0 -154 77.333 -154 232c0 76.667 13 134.834 39 174.501s64.333 59.5 115 59.5c50 0 87.833 -19.833 113.5 -59.5s38.5 -97.834 38.5 -174.501
s-12.833 -134.5 -38.5 -173.5s-63.5 -58.5 -113.5 -58.5zM620 42c60.667 0 91 59 91 177c0 118.667 -30.333 178 -91 178c-62.667 0 -94 -59.333 -94 -178c0 -118 31.333 -177 94 -177zM497 740h64l-260 -740h-64z" />
    <glyph glyph-name="ampersand" unicode="&#x26;" horiz-adv-x="597" 
d="M266 -11c-70 0 -124.834 19.1699 -164.501 57.5029s-59.5 91.5 -59.5 159.5c0 46 9.5 85.333 28.5 118s46.833 57.667 83.5 75c-16.667 24.667 -28.5 49.667 -35.5 75s-10.5 53.666 -10.5 84.999c0 63.333 16 111.333 48 144s79.333 49 142 49
c23.333 0 46.833 -2.83301 70.5 -8.5s50.5 -14.834 80.5 -27.501v-6l-13 -54h-5c-49.333 22 -92.333 33 -129 33c-82 0 -123 -45.667 -123 -137c0 -24 3.33301 -46.5 10 -67.5s17 -41.333 31 -61s32.333 -39.334 55 -59.001s50 -40.5 82 -62.5l95 -65
c2.66699 15.333 4.66699 31.833 6 49.5s2 36.167 2 55.5v67l66 3v-70c0 -54.667 -5 -103 -15 -145l72 -48v-6l-28 -56h-6l-60 41c-41.333 -92.667 -115.666 -139 -222.999 -139zM325.999 243.003c-58 40 -102.667 76.667 -134 110c-52 -29.333 -78 -77.333 -78 -144
c0 -48.667 13.833 -87.167 41.5 -115.5s65.5 -42.5 113.5 -42.5c82 0 137.333 38.667 166 116z" />
    <glyph glyph-name="quotesingle" unicode="'" horiz-adv-x="165" 
d="M119 808v-4l-24 -324h-38v328h62z" />
    <glyph glyph-name="parenleft" unicode="(" horiz-adv-x="270" 
d="M190 -160c-50 74 -88 154.834 -114 242.501s-39 178.167 -39 271.5s13 183.833 39 271.5s64 168.5 114 242.5h65v-4c-49.333 -72.667 -87.333 -152.334 -114 -239.001s-40 -177 -40 -271c0 -94.667 13.333 -185.167 40 -271.5s64.667 -165.833 114 -238.5v-4h-65v0z" />
    <glyph glyph-name="parenright" unicode=")" horiz-adv-x="270" 
d="M15 -160v3.99902c49.333 72.667 87.166 152.167 113.499 238.5s39.5 176.833 39.5 271.5c0 94 -13.167 184.333 -39.5 271s-64.166 166.334 -113.499 239.001v4h65c50 -74 88 -154.833 114 -242.5s39 -178.167 39 -271.5s-13 -183.833 -39 -271.5s-64 -168.5 -114 -242.5
h-65z" />
    <glyph glyph-name="asterisk" unicode="*" horiz-adv-x="475" 
d="M96 488l47 66l74 76l-103 17l-77 25l17 52l77 -25l94 -47l-15 105v81h55v-81l-16 -104l94 46l78 25l17 -52l-78 -25l-103 -17l74 -76l47 -66l-44 -32l-48 66l-49 95l-49 -95l-48 -66z" />
    <glyph glyph-name="plus" unicode="+" horiz-adv-x="475" 
d="M42 399h166v170h59v-170h167v-58h-167v-170h-59v170h-166v58z" />
    <glyph glyph-name="comma" unicode="," horiz-adv-x="195" 
d="M20 -145l45 237h76l-65 -247z" />
    <glyph glyph-name="hyphen" unicode="-" horiz-adv-x="331" 
d="M55 310h221v-60h-221v60z" />
    <glyph glyph-name="period" unicode="." horiz-adv-x="199" 
d="M99 -3c-32 0 -48 16 -48 48c0 32.667 16 49 48 49c33.333 0 50 -16.333 50 -49c0 -32 -16.667 -48 -50 -48z" />
    <glyph glyph-name="slash" unicode="/" horiz-adv-x="285" 
d="M190 740h66l-160 -861h-66z" />
    <glyph glyph-name="zero" unicode="0" horiz-adv-x="540" 
d="M270 -10c-74 0 -130 31.833 -168 95.5s-57 158.167 -57 283.5s19 220.166 57 284.499s94 96.5 168 96.5c74.667 0 130.667 -32.167 168 -96.5s56 -159.166 56 -284.499c0 -124.667 -18.667 -219 -56 -283s-93.333 -96 -168 -96zM270 56
c50.667 0 88.334 25.667 113.001 77s37 130 37 236c0 210.667 -50 316 -150 316s-150 -105.333 -150 -316c0 -106.667 12.167 -185.5 36.5 -236.5s62.166 -76.5 113.499 -76.5z" />
    <glyph glyph-name="one" unicode="1" horiz-adv-x="328" 
d="M175 648h-3l-125 -87h-10l-21 38l2 10l180 131h51v-740h-74v648z" />
    <glyph glyph-name="two" unicode="2" horiz-adv-x="435" 
d="M39 98c0 30 2.82812 57.5039 8.49512 82.5039s14.834 48.833 27.501 71.5s29 44.5 49 65.5s44.667 42.167 74 63.5c22 16.667 40.5 32.334 55.5 47.001s27.333 29.167 37 43.5s16.5 29 20.5 44s6 31.167 6 48.5c0 80 -42 120 -126 120
c-16.667 0 -35.167 -1.83301 -55.5 -5.5s-43.5 -9.83398 -69.5 -18.501l-11 63c29.333 9.33301 56.5 16 81.5 20s48.833 6 71.5 6c60.667 0 106.334 -14.833 137.001 -44.5s46 -74.167 46 -133.5c0 -22.667 -2.5 -43.834 -7.5 -63.501s-13.167 -38.834 -24.5 -57.501
s-26.166 -37.167 -44.499 -55.5s-40.5 -37.5 -66.5 -57.5c-26 -21.333 -47.667 -40.833 -65 -58.5s-31.166 -35.334 -41.499 -53.001s-17.666 -35.834 -21.999 -54.501s-6.5 -39 -6.5 -61v-44h277v-66h-351v98z" />
    <glyph glyph-name="three" unicode="3" horiz-adv-x="415" 
d="M154 -8c-17.333 0 -34.998 1.00195 -52.998 3.00195s-36.333 5.33301 -55 10v59h7c13.333 -4 28 -7 44 -9s32.333 -3 49 -3c48.667 0 86.167 12 112.5 36s39.5 59 39.5 105c0 106.667 -59.333 160 -178 160h-18v59h18c51.333 0 90.5 12.167 117.5 36.5
s40.5 59.5 40.5 105.5c0 90 -42.667 135 -128 135c-26.667 0 -57.667 -4.33301 -93 -13h-9l-6 58c40 10.667 78.333 16 115 16c63.333 0 111.666 -15.833 144.999 -47.5s50 -77.5 50 -137.5c0 -47.333 -10.333 -86.333 -31 -117s-50.334 -51.334 -89.001 -62.001v-3
c93.333 -21.333 140 -86 140 -194c0 -61.333 -19.167 -109.333 -57.5 -144s-91.833 -52.334 -160.5 -53.001z" />
    <glyph glyph-name="four" unicode="4" horiz-adv-x="490" 
d="M18 220v4l245 526h6l63 -10l3 -5l-237 -491v-5h219v4l21 268h54v-272h74v-59h-74v-180h-75v180h-281z" />
    <glyph glyph-name="five" unicode="5" horiz-adv-x="409" 
d="M155 -12c-32.667 0 -69.334 5 -110.001 15v62h17c34.667 -8 64.334 -12 89.001 -12c48 0 84.333 13.833 109 41.5s37 67.5 37 119.5c0 56.667 -14.167 97 -42.5 121s-75.833 36 -142.5 36h-55l-4 4l26 365h264v-66h-204l-18 -244c46 -0.666992 85 -5.16699 117 -13.5
s58 -21 78 -38s34.5 -39 43.5 -66s13.5 -59.833 13.5 -98.5c0 -72.667 -19 -128.5 -57 -167.5s-91.667 -58.5 -161 -58.5z" />
    <glyph glyph-name="six" unicode="6" horiz-adv-x="501" 
d="M262 -11c-72 0 -126.165 28.3359 -162.498 85.0029s-54.5 141 -54.5 253c0 67.333 6 127.333 18 180s29.833 97 53.5 133s52.667 63.5 87 82.5s73.5 28.5 117.5 28.5c17.333 0 34.666 -1.33301 51.999 -4s35.666 -7 54.999 -13l-5 -64c-19.333 6 -37 10.333 -53 13
s-32 4 -48 4c-62 0 -110.167 -25.833 -144.5 -77.5s-54.5 -126.834 -60.5 -225.501c22 21.333 46.667 38.166 74 50.499s55 18.5 83 18.5c60 0 107.167 -19.167 141.5 -57.5s51.5 -91.166 51.5 -158.499c0 -37.333 -4.83301 -71.333 -14.5 -102s-23.5 -56.834 -41.5 -78.501
s-39.667 -38.334 -65 -50.001s-53.333 -17.5 -84 -17.5zM261.002 394.003c-24 0 -49.333 -6.83398 -76 -20.501s-49.667 -31.167 -69 -52.5c0.666992 -91.333 13 -158.666 37 -201.999s60.333 -65 109 -65c40.667 0 73 16.167 97 48.5s36 76.833 36 133.5
c0 50.667 -11.667 89.667 -35 117s-56.333 41 -99 41z" />
    <glyph glyph-name="seven" unicode="7" horiz-adv-x="370" 
d="M125 -12l-58 12v13l215 661h-256l-3 57l6 9h311l12 -41v-28l-212 -672z" />
    <glyph glyph-name="eight" unicode="8" horiz-adv-x="495" 
d="M247 -3c-31.333 0 -59.5 4.33301 -84.5 13s-46.167 21 -63.5 37s-30.833 35.5 -40.5 58.5s-14.5 48.5 -14.5 76.5c0 48 9.16699 88.167 27.5 120.5s47.5 58.5 87.5 78.5c-32 18 -56.167 41.167 -72.5 69.5s-24.5 65.166 -24.5 110.499c0 58.667 16.333 104.667 49 138
s78 50 136 50c58.667 0 104.334 -16.5 137.001 -49.5s49 -79.167 49 -138.5c0 -46 -7.5 -83.167 -22.5 -111.5s-39.833 -52.166 -74.5 -71.499c38 -18 66.667 -41.5 86 -70.5s29 -68.167 29 -117.5c0 -60 -18.333 -107.167 -55 -141.5s-86.334 -51.5 -149.001 -51.5z
M219 355c-38 -18.667 -65 -40.499 -81 -65.499s-24 -58.5 -24 -100.5s12.167 -75.167 36.5 -99.5s56.5 -36.5 96.5 -36.5c40.667 0 73.167 11.833 97.5 35.5s36.5 55.834 36.5 96.501c0 23.333 -2.66699 43.666 -8 60.999s-13.833 32.333 -25.5 45s-26.5 23.667 -44.5 33
s-39.667 17.666 -65 24.999zM130 558.001c0 -42.667 11.332 -75.5 33.999 -98.5s58 -41.833 106 -56.5c34 16 58.333 36.167 73 60.5s22 56.833 22 97.5c0 42 -10.167 74.333 -30.5 97s-49.5 34 -87.5 34c-37.333 0 -66.166 -11.833 -86.499 -35.5s-30.5 -56.5 -30.5 -98.5z
" />
    <glyph glyph-name="nine" unicode="9" horiz-adv-x="501" 
d="M239 751c72 0 126.166 -28.3359 162.499 -85.0029s54.5 -141 54.5 -253c0 -135.333 -23.833 -239.833 -71.5 -313.5s-115.834 -110.5 -204.501 -110.5c-17.333 0 -34.666 1.33301 -51.999 4s-35.666 7 -54.999 13l5 64c19.333 -6 37 -10.333 53 -13s32 -4 48 -4
c62 0 110.167 25.833 144.5 77.5s54.5 126.834 60.5 225.501c-22 -21.333 -46.667 -38.166 -74 -50.499s-55 -18.5 -83 -18.5c-60 0 -107.167 19.167 -141.5 57.5s-51.5 91.166 -51.5 158.499c0 37.333 4.83301 71.333 14.5 102s23.5 56.834 41.5 78.501
s39.5 38.334 64.5 50.001s53.167 17.5 84.5 17.5zM239.999 345.997c24 0 49.333 6.83398 76 20.501s49.667 31.167 69 52.5c-0.666992 91.333 -13 158.666 -37 201.999s-60.333 65 -109 65c-40.667 0 -73 -16.167 -97 -48.5s-36 -76.833 -36 -133.5
c0 -50.667 11.667 -89.667 35 -117s56.333 -41 99 -41z" />
    <glyph glyph-name="colon" unicode=":" horiz-adv-x="206" 
d="M102 -3c-32 0 -48 16 -48 48c0 32.667 16 49 48 49c33.333 0 50 -16.333 50 -49c0 -32 -16.667 -48 -50 -48zM102 447c-32 0 -48 16 -48 48c0 32.667 16 49 48 49c33.333 0 50 -16.333 50 -49c0 -32 -16.667 -48 -50 -48z" />
    <glyph glyph-name="semicolon" unicode=";" horiz-adv-x="228" 
d="M38 -145l45 237h76l-65 -247zM119 447c-32 0 -48 16 -48 48c0 32.667 16 49 48 49c33.333 0 50 -16.333 50 -49c0 -32 -16.667 -48 -50 -48z" />
    <glyph glyph-name="less" unicode="&#x3c;" horiz-adv-x="492" 
d="M39 339v55l395 174v-65l-314 -138l312 -137v-64z" />
    <glyph glyph-name="equal" unicode="=" horiz-adv-x="500" 
d="M58 279h384v-60h-384v60zM58 493h384v-60h-384v60z" />
    <glyph glyph-name="greater" unicode="&#x3e;" horiz-adv-x="492" 
d="M60 228l311 137l-313 138v65l395 -174v-55l-393 -175v64z" />
    <glyph glyph-name="question" unicode="?" horiz-adv-x="397" 
d="M120 195l-6 190c20.667 5.33301 41.667 11.666 63 18.999s40.666 17.166 57.999 29.499s31.666 27.833 42.999 46.5s17 42 17 70c0 26 -4 47.833 -12 65.5s-18.5 31.834 -31.5 42.501s-27.667 18.334 -44 23.001s-33.166 7 -50.499 7c-19.333 0 -39.5 -2 -60.5 -6
s-40.5 -9.66699 -58.5 -17l-11 59c21.333 7.33301 43.833 13.5 67.5 18.5s47.834 7.5 72.501 7.5c26 0 51 -3.33301 75 -10s45.333 -17.667 64 -33s33.5 -35.5 44.5 -60.5s16.5 -55.833 16.5 -92.5c0 -34 -5.83301 -63 -17.5 -87s-26.667 -44.167 -45 -60.5
s-38.833 -29.5 -61.5 -39.5s-45 -18 -67 -24l-2 -148v-19h-54v19zM148 -1c-15.333 0 -27.166 4 -35.499 12s-12.5 19.667 -12.5 35s4.16699 27 12.5 35s20.166 12 35.499 12c32.667 0 49 -15.667 49 -47s-16.333 -47 -49 -47z" />
    <glyph glyph-name="at" unicode="@" horiz-adv-x="779" 
d="M378 -137c-42 0 -83.168 6.66504 -123.501 19.998s-76.333 35.5 -108 66.5s-57.167 72 -76.5 123s-29 114.167 -29 189.5c0 68 8.83301 127.833 26.5 179.5s42.5 95 74.5 130s70.167 61.333 114.5 79s92.833 26.5 145.5 26.5c60 0 110.833 -8.83301 152.5 -26.5
s75.5 -42.667 101.5 -75s45 -71.166 57 -116.499s18 -96 18 -152c0 -38.667 -3.16699 -73.667 -9.5 -105s-16 -58.166 -29 -80.499s-29.5 -39.666 -49.5 -51.999s-43.333 -18.5 -70 -18.5c-12 0 -23.333 1.16699 -34 3.5s-20.5 6.83301 -29.5 13.5s-16.5 16 -22.5 28
s-10 27.333 -12 46h-5c-10 -15.333 -21 -28.5 -33 -39.5s-24.5 -19.833 -37.5 -26.5s-25.833 -11.5 -38.5 -14.5s-24 -4.5 -34 -4.5c-23.333 0 -43 5 -59 15s-29 23.167 -39 39.5s-17.167 35 -21.5 56s-6.5 42.167 -6.5 63.5c0 38 5.16699 73 15.5 105
s25.166 59.667 44.499 83s42.666 41.666 69.999 54.999s58.333 20 93 20c37.333 0 82.666 -11 135.999 -33l-34 -211c-2 -13.333 -4.16699 -26.833 -6.5 -40.5s-3.5 -26.834 -3.5 -39.501c0 -19.333 4 -35.833 12 -49.5s23.667 -20.5 47 -20.5c34 0 59.333 18.667 76 56
s25 87.666 25 150.999c0 48 -4.83301 91.5 -14.5 130.5s-25.5 72.5 -47.5 100.5s-50.333 49.5 -85 64.5s-77 22.5 -127 22.5c-45.333 0 -86.666 -7.83301 -123.999 -23.5s-69.5 -38.667 -96.5 -69s-48 -68.166 -63 -113.499s-22.5 -97.666 -22.5 -156.999
c0 -66 8.16699 -121.333 24.5 -166s37.833 -80.5 64.5 -107.5s56.834 -46.167 90.501 -57.5s67.834 -17 102.501 -17c29.333 0 59.166 3.33301 89.499 10s59.833 14.667 88.5 24l19 -47c-31.333 -10.667 -63.666 -19.667 -96.999 -27s-66.666 -11 -99.999 -11z
M332.999 106.998c10.667 0 23.168 2.33398 37.501 7.00098s28.333 12.667 42 24s26 27 37 47s19.167 45 24.5 75l28 170c-29.333 9.33301 -55.333 14 -78 14c-26 0 -49.5 -5.33301 -70.5 -16s-38.833 -25.5 -53.5 -44.5s-25.834 -41.5 -33.501 -67.5
s-11.5 -54.333 -11.5 -85c0 -15.333 1.16699 -30.333 3.5 -45s6.5 -27.834 12.5 -39.501s14 -21.167 24 -28.5s22.667 -11 38 -11z" />
    <glyph glyph-name="A" unicode="A" horiz-adv-x="551" 
d="M7 6l215 734h105l217 -734v-6h-70l-69 227h-260l-68 -227h-70v6zM389 290l-81 272l-30 110h-7l-29 -110l-81 -272h228z" />
    <glyph glyph-name="B" unicode="B" horiz-adv-x="555" 
d="M264 -10c-14.667 0 -30.833 0.332031 -48.5 0.999023s-35.167 1.66699 -52.5 3s-33.833 3 -49.5 5s-28.834 4 -39.501 6v731c22 2.66699 41.333 4.83398 58 6.50098s31.834 3 45.501 4s26.5 1.83301 38.5 2.5s24.333 1 37 1c82.667 0 143.5 -16.167 182.5 -48.5
s58.5 -82.833 58.5 -151.5c0 -47.333 -9.83301 -85.5 -29.5 -114.5s-47.834 -47.167 -84.501 -54.5v-4c42.667 -7.33301 76 -26.833 100 -58.5s36 -73.167 36 -124.5c0 -68 -21.167 -119 -63.5 -153s-105.166 -51 -188.499 -51zM272.001 48.999
c112 0.666992 168 50.333 168 149c0 52 -14.333 89.333 -43 112s-76.667 34 -144 34h-110v-286c4.66699 -1.33301 12 -2.5 22 -3.5s21 -1.83301 33 -2.5l37.5 -2c13 -0.666992 25.167 -1 36.5 -1zM252.001 403.998c30.667 0 56.5 2.50098 77.5 7.50098s38 13.167 51 24.5
s22.333 26.166 28 44.499s8.5 40.5 8.5 66.5c0 94.667 -52.667 142 -158 142c-20 0 -39 -0.5 -57 -1.5s-37.667 -3.16699 -59 -6.5v-277h109z" />
    <glyph glyph-name="C" unicode="C" horiz-adv-x="489" 
d="M348 -10c-106 0.666992 -183.327 31.1689 -231.994 91.502s-73 156.166 -73 287.499c0 68 5.83301 125.833 17.5 173.5s29.667 86.834 54 117.501s55.666 53 93.999 67s84.166 21 137.499 21c32.667 0 69.667 -3 111 -9v-64c-13.333 2.66699 -29 4.66699 -47 6
s-35.667 2 -53 2c-43.333 0 -80 -5.33301 -110 -16s-54.333 -28.334 -73 -53.001s-32.334 -57 -41.001 -97s-13 -89.333 -13 -148c0 -56.667 4.5 -104.834 13.5 -144.501s22.833 -72 41.5 -97s42.667 -43.167 72 -54.5s64.666 -17 105.999 -17
c11.333 0 27.166 0.666992 47.499 2s39.166 3.33301 56.499 6v-62c-15.333 -4 -31.5 -7 -48.5 -9s-37.167 -3 -60.5 -3z" />
    <glyph glyph-name="D" unicode="D" horiz-adv-x="584" 
d="M198 -16c-19.333 0 -39 0.49707 -59 1.49707s-41.667 2.83301 -65 5.5v743c33.333 5.33301 62.333 9.33301 87 12s48 4 70 4c108 0 186.833 -30.667 236.5 -92s74.5 -157.666 74.5 -288.999c0 -67.333 -6.66699 -125.166 -20 -173.499s-34 -88.166 -62 -119.499
s-63.667 -54.5 -107 -69.5s-95 -22.5 -155 -22.5zM217 48.9971c84.667 0 147.168 25.501 187.501 76.501s60.5 132.167 60.5 243.5c0 56 -4.33301 104.167 -13 144.5s-22.167 73.166 -40.5 98.499s-42 44 -71 56s-63.5 18 -103.5 18c-16 0 -31.333 -0.666992 -46 -2
s-29.334 -3.33301 -44.001 -6v-624l38.5 -3.5c11 -1 21.5 -1.5 31.5 -1.5z" />
    <glyph glyph-name="E" unicode="E" horiz-adv-x="504" 
d="M74 740h386v-66h-313v-267h280v-65h-280v-276h322v-66h-395v740z" />
    <glyph glyph-name="F" unicode="F" horiz-adv-x="472" 
d="M74 740h368v-66h-295v-272h275v-65h-275v-337h-73v740z" />
    <glyph glyph-name="G" unicode="G" horiz-adv-x="555" 
d="M348 -10c-53.333 0.666992 -99.165 8.49805 -137.498 23.498s-70 37.833 -95 68.5s-43.333 69.834 -55 117.501s-17.5 104.167 -17.5 169.5c0 66.667 6 124 18 172s30.833 87.333 56.5 118s58.334 53.167 98.001 67.5s87.5 21.5 143.5 21.5
c17.333 0 39.166 -1.33301 65.499 -4s51.5 -6.66699 75.5 -12v-64c-50 10 -94.667 15 -134 15c-45.333 0 -83.5 -5.5 -114.5 -16.5s-56.333 -29 -76 -54s-33.834 -57.5 -42.501 -97.5s-13 -88.667 -13 -146c0 -56 4.33301 -103.667 13 -143s22.5 -71.666 41.5 -96.999
s43.167 -43.833 72.5 -55.5s64.666 -17.5 105.999 -17.5c9.33301 0 21 0.5 35 1.5s28.667 2.16699 44 3.5v315h69v-372c-32.667 -5.33301 -60.5 -9 -83.5 -11s-46.167 -3 -69.5 -3z" />
    <glyph glyph-name="H" unicode="H" horiz-adv-x="623" 
d="M74 740h73v-329h329v329h74v-740h-74v344h-329v-344h-73v740z" />
    <glyph glyph-name="I" unicode="I" horiz-adv-x="221" 
d="M74 740h73v-740h-73v740z" />
    <glyph glyph-name="J" unicode="J" horiz-adv-x="221" 
d="M-7 -159c16.667 36 30.335 67.834 41.002 95.501s19.167 54.334 25.5 80.001s10.666 51.667 12.999 78s3.5 56.166 3.5 89.499v556h73v-560c0 -32 -2 -62.833 -6 -92.5s-10.333 -59.334 -19 -89.001s-19.834 -59.667 -33.501 -90s-30.167 -61.5 -49.5 -93.5z" />
    <glyph glyph-name="K" unicode="K" horiz-adv-x="562" 
d="M74 740h73v-330h84l223 330h86l-225 -334l-32 -26v-5l34 -24l243 -351h-85l-240 343h-88v-343h-73v740z" />
    <glyph glyph-name="L" unicode="L" horiz-adv-x="409" 
d="M74 740h73v-674h250v-66h-323v740z" />
    <glyph glyph-name="M" unicode="M" horiz-adv-x="794" 
d="M74 740h100l190 -517l30 -101h5l31 101l190 517h100v-740h-71v618h-5l-34 -104l-177 -481h-74l-177 481l-34 104h-5v-618h-69v740z" />
    <glyph glyph-name="N" unicode="N" horiz-adv-x="652" 
d="M74 740h69l318 -526l43 -84l6 1v609h69v-740h-71l-315 523l-45 87l-6 -1v-609h-68v740z" />
    <glyph glyph-name="O" unicode="O" horiz-adv-x="612" 
d="M305 -10c-174.667 0 -261.999 126.333 -261.999 379c0 128.667 21.5 224.334 64.5 287.001s108.833 94 197.5 94c89.333 0 155.666 -31.333 198.999 -94s65 -158.334 65 -287.001c0 -252.667 -88 -379 -264 -379zM305.001 56c32.667 0 60.999 6 84.999 18
s43.5 30.667 58.5 56s26.167 57.666 33.5 96.999s11 86.666 11 141.999c0 110 -15 190.167 -45 240.5s-77.667 75.5 -143 75.5c-32.667 0 -60.667 -6 -84 -18s-42.5 -30.833 -57.5 -56.5s-26.167 -58.5 -33.5 -98.5s-11 -87.667 -11 -143s3.5 -102.666 10.5 -141.999
s18 -71.666 33 -96.999s34.333 -44 58 -56s51.834 -18 84.501 -18z" />
    <glyph glyph-name="P" unicode="P" horiz-adv-x="526" 
d="M74 735c53.333 10.667 104.667 16 154 16c93.333 0 161.5 -20.167 204.5 -60.5s64.5 -104.5 64.5 -192.5s-22.167 -152.333 -66.5 -193s-114.5 -61 -210.5 -61c-24 0 -48.333 1 -73 3v-247h-73v735zM233.001 308c66 0 114 15 144 45s45 78.333 45 145
c0 66 -14.333 113.833 -43 143.5s-75 44.5 -139 44.5c-13.333 0 -28 -0.666992 -44 -2s-32.333 -3.33301 -49 -6v-364l44 -4c14.667 -1.33301 28.667 -2 42 -2z" />
    <glyph glyph-name="Q" unicode="Q" horiz-adv-x="609" 
d="M543 -107c-91.333 16.667 -168.833 35.502 -232.5 56.502s-115.5 49 -155.5 84s-69 79.333 -87 133s-27 121.167 -27 202.5c0 129.333 21.5 225.166 64.5 287.499s108.833 93.5 197.5 93.5c89.333 0 155.666 -31.333 198.999 -94s65 -158.334 65 -287.001
c0 -230 -80 -351 -240 -363v-7c27.333 -10 61.333 -18.333 102 -25s88.334 -12.667 143.001 -18zM303 55.002c65.333 0 113.169 24.833 143.502 74.5s45.5 129.5 45.5 239.5c0 110.667 -15 191.167 -45 241.5s-78 75.5 -144 75.5s-113.667 -24.833 -143 -74.5
s-44 -130.5 -44 -242.5c0 -56 3.5 -103.833 10.5 -143.5s18.167 -72.167 33.5 -97.5s34.666 -43.833 57.999 -55.5s51.666 -17.5 84.999 -17.5z" />
    <glyph glyph-name="R" unicode="R" horiz-adv-x="539" 
d="M297 277c-11.333 -1.33301 -22.833 -2.33203 -34.5 -2.99902s-23.834 -1 -36.501 -1c-12 0 -25.167 0.166992 -39.5 0.5s-27.5 1.16602 -39.5 2.49902v-276h-73v735c26 5.33301 51.833 9.33301 77.5 12s51.167 4 76.5 4c94 0 162.333 -19 205 -57s64 -99 64 -183
c0 -58.667 -10.667 -105.667 -32 -141s-54.666 -61 -99.999 -77l142 -293h-78zM233 335.001c66.667 0 114.833 13.833 144.5 41.5s44.5 72.5 44.5 134.5c0 61.333 -14.333 105.833 -43 133.5s-75 41.5 -139 41.5c-11.333 0 -25 -0.666992 -41 -2s-33.333 -3.33301 -52 -6
v-337c32 -4 60.667 -6 86 -6z" />
    <glyph glyph-name="S" unicode="S" horiz-adv-x="470" 
d="M227 -13c-14.667 0 -30.5029 0.831055 -47.5029 2.49805s-34.167 4 -51.5 7s-34.166 6.5 -50.499 10.5s-31.166 8.66699 -44.499 14l7 65c9.33301 -4.66699 21.333 -9 36 -13s30.167 -7.5 46.5 -10.5s32.833 -5.5 49.5 -7.5s32 -3 46 -3c47.333 0 83.833 11.667 109.5 35
s38.5 56.666 38.5 99.999c0 37.333 -12.333 67.5 -37 90.5s-63 44.833 -115 65.5c-28.667 12 -53.667 24.167 -75 36.5s-39 26.333 -53 42s-24.5 33.834 -31.5 54.501s-10.5 45 -10.5 73c0 30.667 5 58.5 15 83.5s24.333 46.333 43 64s41.334 31.334 68.001 41.001
s56.334 14.5 89.001 14.5c24 0 48.5 -1.66699 73.5 -5s52.167 -8.66602 81.5 -15.999l-5 -64c-30 7.33301 -57.167 12.5 -81.5 15.5s-45.833 4.5 -64.5 4.5c-44 0 -79 -12.5 -105 -37.5s-39 -58.5 -39 -100.5c0 -18 2.83301 -33.667 8.5 -47s14.5 -25.5 26.5 -36.5
s27.167 -21.5 45.5 -31.5s40.166 -20 65.499 -30c30 -12.667 56 -25.667 78 -39s40.167 -28.333 54.5 -45s24.833 -35.667 31.5 -57s10 -46 10 -74c0 -63.333 -18.667 -112.833 -56 -148.5s-89.333 -53.5 -156 -53.5z" />
    <glyph glyph-name="T" unicode="T" horiz-adv-x="474" 
d="M199 673h-185v67h447v-67h-187v-673h-75v673z" />
    <glyph glyph-name="U" unicode="U" horiz-adv-x="632" 
d="M316 -10c-44.667 0 -82.667 5.83301 -114 17.5s-57 29.834 -77 54.501s-34.5 55.834 -43.5 93.501s-13.5 82.5 -13.5 134.5v450h73v-448c0 -82.667 13.833 -142.667 41.5 -180s72.167 -56 133.5 -56c62 0 106.5 18.5 133.5 55.5s40.5 97.167 40.5 180.5v448h75v-450
c0 -52 -4.66699 -96.833 -14 -134.5s-24 -68.834 -44 -93.501s-45.667 -42.834 -77 -54.501s-69.333 -17.5 -114 -17.5z" />
    <glyph glyph-name="V" unicode="V" horiz-adv-x="562" 
d="M5 740h74l165 -534l34 -131h6l35 131l165 534h72l-226 -740h-99z" />
    <glyph glyph-name="W" unicode="W" horiz-adv-x="869" 
d="M14 740h81l114 -517l25 -126h7l28 126l129 517h81l120 -517l25 -126h8l27 126l123 517h80l-187 -740h-92l-123 519l-20 113h-6l-21 -113l-132 -519h-92z" />
    <glyph glyph-name="X" unicode="X" horiz-adv-x="558" 
d="M231 374l-217 366h84l174 -295l9 -18h2l8 18l172 295h81l-218 -365l226 -375h-84l-182 304l-9 17h-2l-8 -17l-178 -304h-82z" />
    <glyph glyph-name="Y" unicode="Y" horiz-adv-x="539" 
d="M233 248l-233 492h81l164 -357l22 -59h6l22 59l163 357h81l-232 -489v-251h-74v248z" />
    <glyph glyph-name="Z" unicode="Z" horiz-adv-x="475" 
d="M28 61l324 607v6h-316v66h403v-61l-324 -608v-6h332v-65h-419v61z" />
    <glyph glyph-name="bracketleft" unicode="[" horiz-adv-x="291" 
d="M72 868h192v-56h-130v-916h130v-56h-192v1028z" />
    <glyph glyph-name="backslash" unicode="\" horiz-adv-x="280" 
d="M30 740h60l160 -860h-60z" />
    <glyph glyph-name="bracketright" unicode="]" horiz-adv-x="291" 
d="M26 -160v56h130v916h-130v56h192v-1028h-192z" />
    <glyph glyph-name="asciicircum" unicode="^" horiz-adv-x="358" 
d="M151 789h55l113 -308h-53l-85 250h-4l-85 -250h-54z" />
    <glyph glyph-name="underscore" unicode="_" horiz-adv-x="490" 
d="M41 -60h408v-59h-408v59z" />
    <glyph glyph-name="grave" unicode="`" horiz-adv-x="225" 
d="M126 610l-96 190h76l71 -180z" />
    <glyph glyph-name="a" unicode="a" horiz-adv-x="444" 
d="M157 -5c-40 0 -71.332 12.501 -93.999 37.501s-34 59.5 -34 103.5c0 99.333 62.667 154 188 164l96 7v58c0 45.333 -8.5 77.166 -25.5 95.499s-45.167 27.5 -84.5 27.5c-16.667 0 -37.334 -1.5 -62.001 -4.5s-47 -7.16699 -67 -12.5l-6 60
c25.333 5.33301 50.833 9.5 76.5 12.5s49.167 4.5 70.5 4.5c58.667 0 101.667 -13.667 129 -41s41 -70 41 -128v-379h-61l-7 65h-6c-21.333 -17.333 -44.833 -33.333 -70.5 -48s-53.5 -22 -83.5 -22zM182.001 55.001c11.333 0 23.001 2.16797 35.001 6.50098
s23.833 9.66602 35.5 15.999s22.667 13 33 20s19.5 12.833 27.5 17.5v140l-81 -7c-46.667 -4 -79.834 -14.333 -99.501 -31s-29.5 -41.667 -29.5 -75c0 -28 6.83301 -49.5 20.5 -64.5s33.167 -22.5 58.5 -22.5z" />
    <glyph glyph-name="b" unicode="b" horiz-adv-x="483" 
d="M211 -10c-46 0 -96 9.00098 -150 27.001v791h73v-322c16 20 36 35.5 60 46.5s50 16.5 78 16.5c57.333 0 100.333 -22.333 129 -67s43 -111.334 43 -200.001c0 -39.333 -3.83301 -76.333 -11.5 -111s-20.667 -65.167 -39 -91.5s-42.333 -47.5 -72 -63.5
s-66.5 -24.667 -110.5 -26zM215 46.001c52 0 90.667 18.667 116 56s38 95.333 38 174c0 74 -9.66699 128.333 -29 163s-49 52 -89 52c-14.667 0 -29 -2.66699 -43 -8s-26.5 -12.833 -37.5 -22.5s-19.833 -21.5 -26.5 -35.5s-10 -30 -10 -48v-320
c32.667 -7.33301 59.667 -11 81 -11z" />
    <glyph glyph-name="c" unicode="c" horiz-adv-x="381" 
d="M257 -10c-73.333 0 -128.003 22.832 -164.003 68.499s-54 116.167 -54 211.5c0 186.667 72.667 280 218 280c23.333 0 53.333 -4.33301 90 -13v-62c-16 4 -30.833 6.83301 -44.5 8.5s-27.167 2.5 -40.5 2.5c-51.333 0 -88.666 -17.167 -111.999 -51.5
s-35 -89.166 -35 -164.499c0 -74.667 11.833 -129.5 35.5 -164.5s60.834 -52.5 111.501 -52.5c20.667 0 49 4 85 12v-61c-13.333 -4 -28.166 -7.33301 -44.499 -10s-31.5 -4 -45.5 -4z" />
    <glyph glyph-name="d" unicode="d" horiz-adv-x="484" 
d="M214 -9c-59.333 0 -103.333 22.333 -132 67s-43 113.667 -43 207c0 91.333 19.5 161.5 58.5 210.5s94.833 73.5 167.5 73.5c12.667 0 25.167 -0.5 37.5 -1.5s27.833 -3.16699 46.5 -6.5v267h73v-808h-65l-7 54h-3c-32 -42 -76.333 -63 -133 -63zM231 49
c14.667 0 29.165 2.66895 43.498 8.00195s27 12.833 38 22.5s19.833 21.5 26.5 35.5s10 30 10 48v319c-18.667 4 -34.167 6.83301 -46.5 8.5s-25.166 2.5 -38.499 2.5c-49.333 0 -86.666 -18.333 -111.999 -55s-38 -92.334 -38 -167.001s10 -130.334 30 -167.001
s49 -55 87 -55z" />
    <glyph glyph-name="e" unicode="e" horiz-adv-x="446" 
d="M248 -9c-67.333 0 -119 23.168 -155 69.501s-54 112.833 -54 199.5c0 94.667 17.333 166.5 52 215.5s86 73.5 154 73.5c54.667 0 96 -19.667 124 -59s42 -97.333 42 -174c0 -16.667 -0.333008 -30.334 -1 -41.001s-1.66699 -21.667 -3 -33h-294
c2.66699 -64.667 15.334 -112.5 38.001 -143.5s56 -46.5 100 -46.5c21.333 0 42.666 2.33301 63.999 7s44.333 12.667 69 24l5 -61c-19.333 -9.33301 -41.5 -16.833 -66.5 -22.5s-49.833 -8.5 -74.5 -8.5zM243 489.001c-39.333 0 -69.833 -16 -91.5 -48
s-34.167 -79.333 -37.5 -142h228c0 67.333 -8 115.833 -24 145.5s-41 44.5 -75 44.5z" />
    <glyph glyph-name="f" unicode="f" horiz-adv-x="275" 
d="M90 477l-75.001 -0.00195312v63h75v39c0 42 3.16699 77 9.5 105s16.833 50.833 31.5 68.5s34.334 30.834 59.001 39.501s55.667 14.667 93 18l3 -59c-24.667 -2.66699 -45 -7 -61 -13s-28.5 -15.333 -37.5 -28s-15.333 -29.167 -19 -49.5s-5.5 -46.166 -5.5 -77.499v-43
h100v-63h-100v-477h-73v477z" />
    <glyph glyph-name="g" unicode="g" horiz-adv-x="484" 
d="M215 -220c-45.333 0 -89.333 7.66602 -132 22.999l6 61c22.667 -8 43.5 -13.833 62.5 -17.5s38.5 -5.5 58.5 -5.5c50 0 85.667 15.167 107 45.5s32.666 80.833 33.999 151.5v22h-4c-32 -41.333 -75.667 -62 -131 -62c-60 0 -104.5 21.833 -133.5 65.5
s-43.5 110.834 -43.5 201.501c0 91.333 19.5 161.5 58.5 210.5s94.833 73.5 167.5 73.5c28 0 54 -1.83301 78 -5.5s50.333 -9.5 79 -17.5v-463c0 -98 -16.667 -169.667 -50 -215s-85.666 -68 -156.999 -68zM231 53.999c14.667 0 29.167 2.5 43.5 7.5s27 12.333 38 22
s19.833 21.167 26.5 34.5s10 28.333 10 45v319c-19.333 4 -35 6.83301 -47 8.5s-24.667 2.5 -38 2.5c-99.333 0 -149 -74 -149 -222c0 -144.667 38.667 -217 116 -217z" />
    <glyph glyph-name="h" unicode="h" horiz-adv-x="480" 
d="M62 808l73.001 0.000976562v-326c33.333 23.333 63.666 40.5 90.999 51.5s53.666 16.5 78.999 16.5c41.333 0 70.833 -11 88.5 -33s26.5 -58.333 26.5 -109v-408h-73v391c0 33.333 -5.33301 57.166 -16 71.499s-27.667 21.5 -51 21.5
c-43.333 0 -91.666 -18.667 -144.999 -56v-428h-73v808z" />
    <glyph glyph-name="i" unicode="i" horiz-adv-x="199" 
d="M99 662c-31.333 0 -47 16 -47 48c0 30.667 15.667 46 47 46c32.667 0 49 -15.333 49 -46c0 -32 -16.333 -48 -49 -48zM63 540h73v-540h-73v540z" />
    <glyph glyph-name="j" unicode="j" horiz-adv-x="198" 
d="M99 662c-31.333 0 -47 16 -47 48c0 30.667 15.667 46 47 46c32.667 0 49 -15.333 49 -46c0 -32 -16.333 -48 -49 -48zM-5 -197c45.333 86 68 188.667 68 308v429h73v-453c0 -52 -8 -105.167 -24 -159.5s-38.333 -103.5 -67 -147.5z" />
    <glyph glyph-name="k" unicode="k" horiz-adv-x="445" 
d="M62 808h73v-502h67l148 234h80l-165 -253l-15 -9v-2l16 -10l181 -266h-81l-165 249h-66v-249h-73v808z" />
    <glyph glyph-name="l" unicode="l" horiz-adv-x="202" 
d="M65 808h73v-808h-73v808z" />
    <glyph glyph-name="m" unicode="m" horiz-adv-x="756" 
d="M62 540l60.001 0.00195312l6 -58h3c64 45.333 120.667 68 170 68c29.333 0 52.166 -5.5 68.499 -16.5s28.166 -28.5 35.499 -52.5h5c32 23.333 62 40.666 90 51.999s55.333 17 82 17c40.667 0 69.834 -11 87.501 -33s26.5 -58.333 26.5 -109v-408h-71v391
c0 33.333 -5.5 57.166 -16.5 71.499s-28.167 21.5 -51.5 21.5c-21.333 0 -44 -4.66699 -68 -14s-48.667 -22.666 -74 -39.999v-430h-71v391c0 33.333 -5.5 57.166 -16.5 71.499s-28.167 21.5 -51.5 21.5c-44 0 -91.333 -18 -142 -54v-430h-72v540z" />
    <glyph glyph-name="n" unicode="n" horiz-adv-x="480" 
d="M62 540h63l5 -58h4c34 23.333 64.667 40.5 92 51.5s53.666 16.5 78.999 16.5c41.333 0 70.833 -11 88.5 -33s26.5 -58.333 26.5 -109v-408h-73v391c0 34 -5.33301 58 -16 72s-27.667 21 -51 21c-21.333 0 -44.166 -4.83301 -68.499 -14.5s-49.833 -23.5 -76.5 -41.5v-428
h-73v540z" />
    <glyph glyph-name="o" unicode="o" horiz-adv-x="488" 
d="M244 -9c-67.333 0 -118.333 23.668 -153 71.001s-52 116.666 -52 207.999c0 92 17.333 161.667 52 209s85.667 71 153 71s118.333 -23.667 153 -71s52 -117 52 -209s-17.333 -161.5 -52 -208.5s-85.667 -70.5 -153 -70.5zM244 53.001c45.333 0 78.5 17.167 99.5 51.5
s31.5 89.5 31.5 165.5c0 76.667 -10.5 132.334 -31.5 167.001s-54.167 52 -99.5 52s-78.5 -17.333 -99.5 -52s-31.5 -90.334 -31.5 -167.001c0 -76 10.5 -131.167 31.5 -165.5s54.167 -51.5 99.5 -51.5z" />
    <glyph glyph-name="p" unicode="p" horiz-adv-x="484" 
d="M62 540l65.999 0.00195312l5 -54h4c16 19.333 35.667 34.666 59 45.999s49 17 77 17c57.333 0 100.333 -22.333 129 -67s43 -111.334 43 -200.001c0 -39.333 -4 -76.666 -12 -111.999s-21.167 -66.333 -39.5 -93s-42.166 -47.834 -71.499 -63.501
s-65.333 -23.5 -108 -23.5c-24.667 0 -51 3 -79 9v-219h-73v760zM215.999 46.002c52 0 90.667 18.667 116 56s38 95.333 38 174c0 74 -9.66699 128.333 -29 163s-49 52 -89 52c-14.667 0 -29 -2.66699 -43 -8s-26.5 -12.833 -37.5 -22.5s-19.833 -21.5 -26.5 -35.5
s-10 -30 -10 -48v-320c32.667 -7.33301 59.667 -11 81 -11z" />
    <glyph glyph-name="q" unicode="q" horiz-adv-x="483" 
d="M350 53c-35.333 -41.333 -80.667 -62 -136 -62c-59.333 0 -103.333 22.333 -132 67s-43 113.667 -43 207c0 91.333 19.667 161.5 59 210.5s96.333 73.5 171 73.5c26.667 0 52.167 -1.66699 76.5 -5s49.833 -9 76.5 -17v-747h-72v273zM230.999 49
c15.333 0 30 2.66699 44 8s26.5 13 37.5 23s19.833 22 26.5 36s10 29.667 10 47v319c-20 4.66699 -36 7.66699 -48 9s-24.333 2 -37 2c-100.667 0 -151 -73.667 -151 -221c0 -148.667 39.333 -223 118 -223z" />
    <glyph glyph-name="r" unicode="r" horiz-adv-x="312" 
d="M62 540h63l5 -65h5c13.333 12 33.833 25 61.5 39s56.834 25.667 87.501 35h17v-77h-29c-28.667 -4.66699 -54.834 -11.5 -78.501 -20.5s-43.167 -19.5 -58.5 -31.5v-420h-73v540z" />
    <glyph glyph-name="s" unicode="s" horiz-adv-x="371" 
d="M174 -11c-19.333 0 -39.502 1.66699 -60.502 5s-46.5 8.66602 -76.5 15.999v61c21.333 -7.33301 43.5 -12.833 66.5 -16.5s44.833 -5.5 65.5 -5.5c31.333 0 55.5 8.16699 72.5 24.5s25.5 39.5 25.5 69.5c0 26.667 -6.66699 48 -20 64s-35 27.667 -65 35
c-16 4 -32.167 8.5 -48.5 13.5s-31.333 13 -45 24s-24.834 25.833 -33.501 44.5s-13 43.667 -13 75c0 48 14 85.5 42 112.5s66.667 40.5 116 40.5c17.333 0 34.833 -1.16699 52.5 -3.5s39.834 -6.5 66.501 -12.5v-61c-26 6.66699 -46.667 11 -62 13s-30.333 3 -45 3
c-31.333 0 -56 -7.83301 -74 -23.5s-27 -37.5 -27 -65.5c0 -17.333 2.5 -31.333 7.5 -42s11.667 -19.5 20 -26.5s18 -12.5 29 -16.5s22.833 -8 35.5 -12c20.667 -6 39.334 -13 56.001 -21s30.834 -18 42.501 -30s20.667 -26.667 27 -44s9.5 -38.666 9.5 -63.999
c0 -48 -14.833 -86.167 -44.5 -114.5s-69.5 -42.5 -119.5 -42.5z" />
    <glyph glyph-name="t" unicode="t" horiz-adv-x="330" 
d="M246 -5c-91.333 0 -137 48.001 -137 144.001v336h-97v65h100l10 134l59 11v-145h137v-65h-137v-323c0 -32.667 7 -56.834 21 -72.501s34 -23.5 60 -23.5c7.33301 0 16 0.5 26 1.5s19 2.83301 27 5.5v-60c-26.667 -5.33301 -49.667 -8 -69 -8z" />
    <glyph glyph-name="u" unicode="u" horiz-adv-x="479" 
d="M185 -10c-43.333 0 -75.335 11.333 -96.002 34s-31 58.667 -31 108v408h73v-392c0 -34 5.33301 -57.667 16 -71s29.334 -20 56.001 -20c22 0 43.5 4.5 64.5 13.5s46.167 24.167 75.5 45.5v424h73v-540h-62l-6 57h-4c-34 -24 -63.167 -41.167 -87.5 -51.5
s-48.166 -15.5 -71.499 -15.5z" />
    <glyph glyph-name="v" unicode="v" horiz-adv-x="460" 
d="M12 535v5h75l126 -418l14 -54h7l14 54l126 418h74v-5l-171 -535h-94z" />
    <glyph glyph-name="w" unicode="w" horiz-adv-x="670" 
d="M20 536v4h70l79 -373l14 -78h8l18 78l90 373h74l90 -373l19 -78h6l16 78l79 373h67v-4l-123 -536h-82l-96 381l-10 55h-7l-11 -55l-95 -381h-83z" />
    <glyph glyph-name="x" unicode="x" horiz-adv-x="460" 
d="M10 6l171 274l-161 254v6h78l113 -186l18 -33h5l17 33l113 186h77v-6l-161 -260l171 -268v-6h-78l-124 204l-18 32h-5l-17 -32l-121 -204h-78v6z" />
    <glyph glyph-name="y" unicode="y" horiz-adv-x="462" 
d="M126 -205v5l68 201l-183 534v5h74l131 -398l13 -61h5l14 61l130 398h74v-5l-253 -755z" />
    <glyph glyph-name="z" unicode="z" horiz-adv-x="396" 
d="M29 48l242 425v5h-233v62h319v-48l-242 -425v-5h252v-62h-338v48z" />
    <glyph glyph-name="braceleft" unicode="{" horiz-adv-x="332" 
d="M19 386c25.333 0 44.5 9.33496 57.5 28.002s19.5 45 19.5 79v267c0 41.333 7.66699 69.666 23 84.999s43 23 83 23c6.66699 0 15.334 -0.166992 26.001 -0.5s21.167 -0.833008 31.5 -1.5s19.666 -1.16699 27.999 -1.5s13.833 -0.833008 16.5 -1.5v-51h-89
c-21.333 0 -36 -3.83301 -44 -11.5s-12 -21.5 -12 -41.5v-280c0 -30 -5.5 -55.667 -16.5 -77s-25.5 -36 -43.5 -44c18 -7.33301 32.5 -21.666 43.5 -42.999s16.5 -46.666 16.5 -75.999v-280c0 -21.333 4 -35.833 12 -43.5s22.667 -11.5 44 -11.5h89v-50
c-2.66699 -0.666992 -8.16699 -1.33398 -16.5 -2.00098s-17.666 -1.16699 -27.999 -1.5l-31.5 -1c-10.667 -0.333008 -19.334 -0.5 -26.001 -0.5c-40 0 -67.667 7.66699 -83 23s-23 43.666 -23 84.999v269c0 33.333 -6.5 59.166 -19.5 77.499s-32.167 27.5 -57.5 27.5v55z
" />
    <glyph glyph-name="bar" unicode="|" horiz-adv-x="215" 
d="M142 808v-1028h-70v1028h70z" />
    <glyph glyph-name="braceright" unicode="}" horiz-adv-x="331" 
d="M312 331c-25.333 0 -44.5 -9.16895 -57.5 -27.502s-19.5 -44.166 -19.5 -77.499v-269c0 -20.667 -1.66699 -38 -5 -52s-9 -25.167 -17 -33.5s-18.833 -14.166 -32.5 -17.499s-30.5 -5 -50.5 -5c-6.66699 0 -15.167 0.166992 -25.5 0.5l-31.5 1
c-10.667 0.333008 -20.167 0.833008 -28.5 1.5s-13.833 1.33398 -16.5 2.00098v50h88c21.333 0 36 3.83301 44 11.5s12 22.167 12 43.5v280c0 29.333 5.66699 54.666 17 75.999s26.333 35.666 45 42.999c-18.667 8 -33.667 22.667 -45 44s-17 47 -17 77v280
c0 20 -4 33.833 -12 41.5s-22.667 11.5 -44 11.5h-88v51c2.66699 0.666992 8.16699 1.16699 16.5 1.5s17.833 0.833008 28.5 1.5s21.167 1.16699 31.5 1.5s18.833 0.5 25.5 0.5c20 0 36.833 -1.66699 50.5 -5s24.5 -9.16602 32.5 -17.499s13.667 -19.5 17 -33.5
s5 -31.333 5 -52v-267c0 -34 6.5 -60.333 19.5 -79s32.167 -28 57.5 -28v-55z" />
    <glyph glyph-name="asciitilde" unicode="~" horiz-adv-x="512" 
d="M52 283c14 18.667 26.834 34.3301 38.501 46.9971s22.5 22.834 32.5 30.501s19.833 13 29.5 16s20.167 4.5 31.5 4.5c16 0 30 -3.83301 42 -11.5s23.5 -16.167 34.5 -25.5s21.833 -17.833 32.5 -25.5s22.667 -11.5 36 -11.5c15.333 0 30.333 6.33301 45 19s26 29 34 49
l51 -26c-5.33301 -12.667 -12.5 -25.167 -21.5 -37.5s-19 -23.333 -30 -33s-22.833 -17.5 -35.5 -23.5s-25.667 -9 -39 -9c-16.667 0 -31.5 3.83301 -44.5 11.5s-25 16.334 -36 26.001s-21.667 18.334 -32 26.001s-20.833 11.5 -31.5 11.5
c-14.667 0 -28.834 -5.33301 -42.501 -16s-29.5 -28.667 -47.5 -54z" />
    <glyph glyph-name="uni00A0" unicode="&#xa0;" horiz-adv-x="194" 
 />
    <glyph glyph-name="exclamdown" unicode="&#xa1;" horiz-adv-x="201" 
d="M103 538c15.333 0 27.333 -3.99805 36 -11.998s13 -19.667 13 -35c0 -14.667 -4.33301 -26.334 -13 -35.001s-20.667 -13 -36 -13s-27.166 4.16699 -35.499 12.5s-12.5 20.166 -12.5 35.499s4.16699 27 12.5 35s20.166 12 35.499 12zM77 361.002h47v-14l14 -537v-10h-76
v10l15 537v14z" />
    <glyph glyph-name="cent" unicode="&#xa2;" horiz-adv-x="398" 
d="M217 -7c-60 7.33301 -104.669 33.666 -134.002 78.999s-44 111.333 -44 198c0 167.333 59.333 259.666 178 276.999v114h54v-112c19.333 -0.666992 44.666 -4.66699 75.999 -12v-62c-16 4 -30.833 6.83301 -44.5 8.5s-27.167 2.5 -40.5 2.5
c-51.333 0 -88.666 -17.167 -111.999 -51.5s-35 -89.166 -35 -164.499c0 -74.667 11.833 -129.5 35.5 -164.5s60.834 -52.5 111.501 -52.5c20.667 0 49 4 85 12v-61c-11.333 -3.33301 -23.666 -6.16602 -36.999 -8.49902s-26.333 -3.83301 -39 -4.5v-110h-54v112z" />
    <glyph glyph-name="sterling" unicode="&#xa3;" horiz-adv-x="514" 
d="M40 399h107.001v131c0 74 13.667 128.5 41 163.5s73 52.5 137 52.5c21.333 0 44.166 -2.33301 68.499 -7s52.166 -12 83.499 -22l-9 -61c-24 8 -47.667 14 -71 18s-43.666 6 -60.999 6c-42 0 -71.667 -11.5 -89 -34.5s-26 -62.167 -26 -117.5v-129h168v-62h-168v-271h242
v-66h-423v66h107v271h-107v62z" />
    <glyph glyph-name="currency" unicode="&#xa4;" horiz-adv-x="535" 
d="M44 187l53 55.999l53 35c-9.33301 26.667 -14 57.334 -14 92.001c0 35.333 5 66 15 92l-54 36l-53 55l39 40l57 -53l29 -44c11.333 17.333 25.5 31 42.5 41s36.167 15 57.5 15c20.667 0 39 -4.83301 55 -14.5s29.667 -23.167 41 -40.5l30 43l56 53l39 -40l-53 -55
l-55 -37c10 -26 15 -56.333 15 -91s-5 -65 -15 -91l55 -36l53 -56l-39 -40l-56 53l-30 43c-24 -37.333 -56.667 -56 -98 -56c-21.333 0 -40.333 4.83301 -57 14.5s-30.667 23.167 -42 40.5l-28 -42l-57 -53zM190 369.999c0 -41.333 7 -73.167 21 -95.5
s32.667 -33.5 56 -33.5s41.833 11 55.5 33s20.5 54 20.5 96c0 42.667 -6.83301 74.667 -20.5 96s-32.167 32 -55.5 32s-42 -10.833 -56 -32.5s-21 -53.5 -21 -95.5z" />
    <glyph glyph-name="yen" unicode="&#xa5;" horiz-adv-x="581" 
d="M100 304h127l-206 436h81l164 -357l22 -59h6l22 59l163 357h81l-207 -436h129v-57h-154v-89h154v-57h-154v-101h-74v101h-154v57h154v89h-154v57z" />
    <glyph glyph-name="brokenbar" unicode="&#xa6;" horiz-adv-x="204" 
d="M67 204h69v-424h-69v424zM67 808h69v-424h-69v424z" />
    <glyph glyph-name="section" unicode="&#xa7;" horiz-adv-x="396" 
d="M186 -11c-19.333 0 -39.501 1.66406 -60.501 4.99707s-46.5 8.66602 -76.5 15.999v60c21.333 -7.33301 43.5 -12.666 66.5 -15.999s44.833 -5 65.5 -5c30.667 0 54.667 8.16699 72 24.5s26 39.5 26 69.5c0 26.667 -6.83301 48 -20.5 64s-35.5 28 -65.5 36
c-15.333 4 -31.333 8.5 -48 13.5s-31.834 12.833 -45.501 23.5s-24.834 25.334 -33.501 44.001s-13 43.667 -13 75c0 39.333 10 72 30 98c-9.33301 11.333 -16.666 25 -21.999 41s-8 36.333 -8 61c0 47.333 14.167 84.5 42.5 111.5s67.166 40.5 116.499 40.5
c17.333 0 34.833 -1.16699 52.5 -3.5s39.5 -6.5 65.5 -12.5v-60c-26.667 6.66699 -47.5 11 -62.5 13s-29.5 3 -43.5 3c-32 0 -56.833 -8 -74.5 -24s-26.5 -38 -26.5 -66c0 -16.667 2.5 -30.5 7.5 -41.5s11.667 -20 20 -27s18 -12.5 29 -16.5s22.5 -7.66699 34.5 -11
c20.667 -6 39.334 -13 56.001 -21s30.834 -18 42.501 -30s20.667 -26.833 27 -44.5s9.5 -39.167 9.5 -64.5c0 -19.333 -2.66699 -37.166 -8 -53.499s-12.666 -31.166 -21.999 -44.499c20 -24 30 -57.667 30 -101c0 -47.333 -14.833 -85.333 -44.5 -114
s-69.167 -43 -118.5 -43zM264.999 277.997c10.667 18 16 39.3311 16 63.998c0 26.667 -5.83301 47.834 -17.5 63.501s-31.167 27.834 -58.5 36.501c-10 3.33301 -20.167 6.5 -30.5 9.5s-20.5 7.16699 -30.5 12.5c-16 -17.333 -24 -38 -24 -62
c0 -17.333 2.33301 -31.333 7 -42s11 -19.5 19 -26.5s17 -12.667 27 -17s20.667 -8.5 32 -12.5s22 -8.16699 32 -12.5s19.333 -8.83301 28 -13.5z" />
    <glyph glyph-name="dieresis" unicode="&#xa8;" horiz-adv-x="392" 
d="M97 629c-29.333 0 -44 14.334 -44 43.001c0 28 14.667 42 44 42c13.333 0 24 -3.33301 32 -10s12 -17.334 12 -32.001s-4 -25.5 -12 -32.5s-18.667 -10.5 -32 -10.5zM280 629.001c-29.333 0 -44 14.334 -44 43.001c0 28 14.667 42 44 42
c13.333 0 23.666 -3.33301 30.999 -10s11 -17.334 11 -32.001s-3.66699 -25.5 -11 -32.5s-17.666 -10.5 -30.999 -10.5z" />
    <glyph glyph-name="copyright" unicode="&#xa9;" horiz-adv-x="825" 
d="M428 163c-56.667 0 -101.498 16.832 -134.498 50.499s-49.5 84.5 -49.5 152.5c0 69.333 16.5 121.166 49.5 155.499s77.833 51.5 134.5 51.5c15.333 0 30.166 -0.833008 44.499 -2.5s28.166 -4.16699 41.499 -7.5v-52c-13.333 2.66699 -26.833 4.83398 -40.5 6.50098
s-26.834 2.5 -39.501 2.5c-42 0 -74.5 -12.5 -97.5 -37.5s-34.5 -63.5 -34.5 -115.5s11.667 -90.333 35 -115s55.333 -37 96 -37c12 0 25 0.833008 39 2.5s28.667 3.83398 44 6.50098v-50c-27.333 -7.33301 -56.666 -11 -87.999 -11zM413.002 -11.001
c-56 0 -106.833 9.16699 -152.5 27.5s-84.834 44.166 -117.501 77.499s-57.834 73.333 -75.501 120s-26.5 98.667 -26.5 156c0 56.667 8.83301 108.5 26.5 155.5s42.834 87.167 75.501 120.5s71.834 59.166 117.501 77.499s96.5 27.5 152.5 27.5s106.667 -9.16699 152 -27.5
s84.333 -44.166 117 -77.499s57.834 -73.5 75.501 -120.5s26.5 -98.833 26.5 -155.5c0 -57.333 -8.83301 -109.333 -26.5 -156s-42.834 -86.667 -75.501 -120s-71.667 -59.166 -117 -77.499s-96 -27.5 -152 -27.5zM413.002 39.999c48.667 0 92.667 7.83301 132 23.5
s73 38 101 67s49.5 63.667 64.5 104s22.5 85.5 22.5 135.5s-7.5 95.333 -22.5 136s-36.5 75.5 -64.5 104.5s-61.667 51.333 -101 67s-83.333 23.5 -132 23.5s-92.667 -7.83301 -132 -23.5s-73 -38 -101 -67s-49.5 -63.833 -64.5 -104.5s-22.5 -86 -22.5 -136
s7.5 -95.167 22.5 -135.5s36.5 -75 64.5 -104s61.667 -51.333 101 -67s83.333 -23.5 132 -23.5z" />
    <glyph glyph-name="ordfeminine" unicode="&#xaa;" horiz-adv-x="369" 
d="M135 348c-29.333 0 -52.835 9.49902 -70.502 28.499s-26.5 44.167 -26.5 75.5c0 33.333 10.833 60.333 32.5 81s54.5 33 98.5 37l82 7v34c0 31.333 -5.66699 53 -17 65s-33.333 18 -66 18c-10 0 -22.667 -0.666992 -38 -2s-34.333 -4 -57 -8l-6 50c48.667 8 87 12 115 12
c46 0 79.333 -9.83301 100 -29.5s31 -51.167 31 -94.5v-270h-52l-3 47h-4c-23.333 -17.333 -44.666 -30.166 -63.999 -38.499s-37.666 -12.5 -54.999 -12.5zM153.998 396.999c12.667 0 26.332 3 40.999 9s33.334 16 56.001 30v97l-44 -3
c-41.333 -3.33301 -69.833 -10.333 -85.5 -21s-23.5 -28 -23.5 -52c0 -40 18.667 -60 56 -60z" />
    <glyph glyph-name="guillemotleft" unicode="&#xab;" horiz-adv-x="447" 
d="M35 268v4l94 238h75l-94 -238v-4l94 -238h-75zM241 268v4l94 238h75l-94 -238v-4l94 -238h-75z" />
    <glyph glyph-name="logicalnot" unicode="&#xac;" horiz-adv-x="705" 
d="M52 425h593v-309h-72v246h-521v63z" />
    <glyph glyph-name="uni00AD" unicode="&#xad;" horiz-adv-x="331" 
d="M55 310h221v-60h-221v60z" />
    <glyph glyph-name="registered" unicode="&#xae;" horiz-adv-x="697" 
d="M237 619c17.333 2 33.833 3.66699 49.5 5s30.167 2 43.5 2c52 0 90.5 -8.66699 115.5 -26s37.5 -44.666 37.5 -81.999c0 -50.667 -24.333 -83.334 -73 -98.001l-1 -4l85 -133h-51l-78 124h-83v-124h-45v336zM334 448c68 0 102 23.333 102 70
c0 23.333 -7.83301 40.5 -23.5 51.5s-41.5 16.5 -77.5 16.5c-15.333 0 -33 -1 -53 -3v-134c5.33301 -0.666992 13 -1 23 -1h29zM348 140c-44.667 0 -85.834 7.66699 -123.501 23s-70 36.5 -97 63.5s-48 59.167 -63 96.5s-22.5 78.333 -22.5 123s7.5 85.667 22.5 123
s36 69.666 63 96.999s59.333 48.666 97 63.999s78.834 23 123.501 23s85.834 -7.66699 123.501 -23s70.167 -36.666 97.5 -63.999s48.666 -59.666 63.999 -96.999s23 -78.333 23 -123s-7.66699 -85.667 -23 -123s-36.666 -69.5 -63.999 -96.5s-59.833 -48.167 -97.5 -63.5
s-78.834 -23 -123.501 -23zM348 184c38.667 0 74 6.5 106 19.5s59.5 31 82.5 54s40.833 50.667 53.5 83s19 67.5 19 105.5s-6.33301 73.167 -19 105.5s-30.5 60 -53.5 83s-50.5 41 -82.5 54s-67.333 19.5 -106 19.5c-38 0 -73 -6.5 -105 -19.5s-59.5 -31 -82.5 -54
s-40.833 -50.667 -53.5 -83s-19 -67.5 -19 -105.5s6.33301 -73.167 19 -105.5s30.5 -60 53.5 -83s50.5 -41 82.5 -54s67 -19.5 105 -19.5z" />
    <glyph glyph-name="macron" unicode="&#xaf;" horiz-adv-x="358" 
d="M49 698h258v-54h-258v54z" />
    <glyph glyph-name="degree" unicode="&#xb0;" horiz-adv-x="383" 
d="M192 371c-23.333 0 -44.333 4.66699 -63 14s-34.834 22.333 -48.501 39s-24.167 36.667 -31.5 60s-11 48.666 -11 75.999s3.66699 52.666 11 75.999s17.833 43.5 31.5 60.5s29.834 30.167 48.501 39.5s39.667 14 63 14c22.667 0 43.334 -4.66699 62.001 -14
s34.667 -22.5 48 -39.5s23.666 -37.167 30.999 -60.5s11 -48.666 11 -75.999s-3.66699 -52.666 -11 -75.999s-17.666 -43.333 -30.999 -60s-29.333 -29.667 -48 -39s-39.334 -14 -62.001 -14zM192 421c34 0 59.833 12.667 77.5 38s26.5 59 26.5 101
s-8.83301 75.833 -26.5 101.5s-43.5 38.5 -77.5 38.5c-35.333 0 -61.833 -12.833 -79.5 -38.5s-26.5 -59.5 -26.5 -101.5s8.83301 -75.667 26.5 -101s44.167 -38 79.5 -38z" />
    <glyph glyph-name="plusminus" unicode="&#xb1;" horiz-adv-x="505" 
d="M59 458h164v170h59v-170h164v-59h-164v-168h-59v168h-164v59zM59 152h387v-59h-387v59z" />
    <glyph glyph-name="twosuperior" unicode="&#xb2;" horiz-adv-x="341" 
d="M33 377c0 42.667 9.33203 80.1699 27.999 112.503s49.334 64.5 92.001 96.5c30.667 23.333 52.5 44.666 65.5 63.999s19.5 40.666 19.5 63.999c0 26 -7.5 45.833 -22.5 59.5s-36.5 20.5 -64.5 20.5c-24 0 -56 -6 -96 -18l-10 56c22.667 7.33301 43.667 12.666 63 15.999
s37.333 5 54 5c94.667 0 142 -44.667 142 -134c0 -34 -8.16699 -64 -24.5 -90s-41.833 -52.667 -76.5 -80c-36 -28.667 -62 -55.667 -78 -81s-24 -53 -24 -83v-27h202v-58h-270v77z" />
    <glyph glyph-name="threesuperior" unicode="&#xb3;" horiz-adv-x="324" 
d="M123 294c-26.667 0 -54.667 3.66895 -84 11.002v57h10c10 -2.66699 20.833 -4.83398 32.5 -6.50098s23.5 -2.5 35.5 -2.5c34 0 60 8 78 24s27 39 27 69c0 72 -41.333 108 -124 108h-18v55h19c34.667 0 61.5 8.5 80.5 25.5s28.5 40.5 28.5 70.5
c0 29.333 -7.5 51.666 -22.5 66.999s-37.167 23 -66.5 23c-9.33301 0 -19.5 -0.833008 -30.5 -2.5s-23.167 -4.16699 -36.5 -7.5h-11l-6 56c16 4 31.5 7.16699 46.5 9.5s29.5 3.5 43.5 3.5c48 0 84.833 -12.167 110.5 -36.5s38.5 -58.833 38.5 -103.5
c0 -32 -8 -59.333 -24 -82s-38 -38.667 -66 -48c69.333 -20.667 104 -68 104 -142c0 -46 -14.5 -82.167 -43.5 -108.5s-69.5 -39.5 -121.5 -39.5z" />
    <glyph glyph-name="acute" unicode="&#xb4;" horiz-adv-x="217" 
d="M39 617l73 183h75l-95 -190z" />
    <glyph glyph-name="mu" unicode="&#xb5;" horiz-adv-x="502" 
d="M71 540l72 0.000976562v-392c0 -61.333 25.333 -92 76 -92c20 0 40.667 4.16699 62 12.5s46 22.166 74 41.499v430h73v-540h-62l-6 57h-4c-34 -24 -63.167 -41.167 -87.5 -51.5s-47.833 -15.5 -70.5 -15.5c-20.667 0 -39 2.66699 -55 8v-218h-72v760z" />
    <glyph glyph-name="paragraph" unicode="&#xb6;" horiz-adv-x="478" 
d="M279 0l-50.002 -0.00390625v266c-3.33301 -0.666992 -7.33301 -1 -12 -1h-13c-26 0 -49.333 4.16699 -70 12.5s-38.5 21.833 -53.5 40.5s-26.5 43.334 -34.5 74.001s-12 68.334 -12 113.001s4.16699 82.334 12.5 113.001s20.333 55.334 36 74.001
s34.334 32.167 56.001 40.5s45.834 12.5 72.501 12.5c12 0 23.167 -0.833008 33.5 -2.5s21.833 -4.16699 34.5 -7.5v-735zM396.998 -0.00390625h-60v735h60v-735z" />
    <glyph glyph-name="periodcentered" unicode="&#xb7;" horiz-adv-x="200" 
d="M99 323c-31.333 0 -47 15.667 -47 47s15.667 47 47 47c15.333 0 27.166 -3.83301 35.499 -11.5s12.5 -19.5 12.5 -35.5s-4.16699 -27.833 -12.5 -35.5s-20.166 -11.5 -35.499 -11.5z" />
    <glyph glyph-name="cedilla" unicode="&#xb8;" horiz-adv-x="259" 
d="M92 -220c-21.333 0 -43.666 3.66699 -66.999 11v53c9.33301 -3.33301 19.166 -5.83301 29.499 -7.5s19.833 -2.5 28.5 -2.5c40.667 0 61 20.333 61 61c0 17.333 -3.66699 36.333 -11 57s-17.666 41.667 -30.999 63h56c28 -46 42 -88.667 42 -128
c0 -34 -9.33301 -60.333 -28 -79s-45.334 -28 -80.001 -28z" />
    <glyph glyph-name="onesuperior" unicode="&#xb9;" horiz-adv-x="265" 
d="M133 765l-88 -59h-11l-18 32l2 11l136 97h46v-546h-67v465z" />
    <glyph glyph-name="ordmasculine" unicode="&#xba;" horiz-adv-x="395" 
d="M199 395c14 0 26.833 2.5 38.5 7.5s21.834 13.333 30.501 25s15.334 27.167 20.001 46.5s7 43.333 7 72s-2.33301 52.834 -7 72.501s-11.334 35.334 -20.001 47.001s-18.834 20 -30.501 25s-24.5 7.5 -38.5 7.5c-15.333 0 -29 -2.5 -41 -7.5s-22.167 -13.333 -30.5 -25
s-14.833 -27.334 -19.5 -47.001s-7 -43.834 -7 -72.501s2.33301 -52.667 7 -72s11.167 -34.833 19.5 -46.5s18.5 -20 30.5 -25s25.667 -7.5 41 -7.5zM199 345c-50 0 -89 16.5 -117 49.5s-42 83.5 -42 151.5s14 118.5 42 151.5s67 49.5 117 49.5
c49.333 0 87.666 -16.5 114.999 -49.5s41 -83.5 41 -151.5s-13.667 -118.5 -41 -151.5s-65.666 -49.5 -114.999 -49.5z" />
    <glyph glyph-name="guillemotright" unicode="&#xbb;" horiz-adv-x="447" 
d="M112 30h-74l94 238v4l-94 238h74l94 -238v-4zM318 30h-74l94 238v4l-94 238h74l94 -238v-4z" />
    <glyph glyph-name="onequarter" unicode="&#xbc;" horiz-adv-x="799" 
d="M651 131h-200l-16 38l176 379l10 4l51 -9l2 -10l-170 -349h152l17 197h45v-197h54v-53h-54v-131h-67v131zM471 740h63l-260 -740h-63zM139 665l-88 -59h-11l-18 32l2 11l136 97h46v-546h-67v465z" />
    <glyph glyph-name="onehalf" unicode="&#xbd;" horiz-adv-x="831" 
d="M517 76c0 20.667 1.99805 40 5.99805 58s10.833 35.167 20.5 51.5s22.167 32.5 37.5 48.5s34 33 56 51c16.667 13.333 30.334 25.333 41.001 36s19.334 20.667 26.001 30s11.334 18.833 14.001 28.5s4 20.167 4 31.5c0 26.667 -7.33301 47 -22 61s-35.667 21 -63 21
c-15.333 0 -32.333 -1.66699 -51 -5s-34.334 -7.66602 -47.001 -12.999l-10 56c46.667 14 86 21 118 21c46 0 81 -11.333 105 -34s36 -56 36 -100c0 -16.667 -1.5 -31.834 -4.5 -45.501s-8.33301 -27 -16 -40s-18 -26.333 -31 -40s-29.5 -28.5 -49.5 -44.5
c-19.333 -16 -35.5 -30.667 -48.5 -44s-23.5 -26.5 -31.5 -39.5s-13.667 -26 -17 -39s-5 -26.833 -5 -41.5v-27h202v-58h-270v77zM470.998 740h63l-260 -740h-63zM138.998 665l-88 -59h-11l-18 32l2 11l136 97h46v-546h-67v465z" />
    <glyph glyph-name="threequarters" unicode="&#xbe;" horiz-adv-x="855" 
d="M133 194c-26.667 0 -54.667 3.66895 -84 11.002v57h10c10 -2.66699 20.833 -4.83398 32.5 -6.50098s23.5 -2.5 35.5 -2.5c34 0 60 8 78 24s27 39 27 69c0 72 -41.333 108 -124 108h-18v55h19c34.667 0 61.5 8.5 80.5 25.5s28.5 40.5 28.5 70.5
c0 29.333 -7.5 51.666 -22.5 66.999s-37.167 23 -66.5 23c-9.33301 0 -19.5 -0.833008 -30.5 -2.5s-23.167 -4.16699 -36.5 -7.5h-11l-6 56c16 4 31.5 7.16699 46.5 9.5s29.5 3.5 43.5 3.5c48 0 84.833 -12.167 110.5 -36.5s38.5 -58.833 38.5 -103.5
c0 -32 -8 -59.333 -24 -82s-38 -38.667 -66 -48c69.333 -20.667 104 -68 104 -142c0 -46 -14.5 -82.167 -43.5 -108.5s-69.5 -39.5 -121.5 -39.5zM709 131.002h-200l-16 38l176 379l10 4l51 -9l2 -10l-170 -349h152l17 197h45v-197h54v-53h-54v-131h-67v131zM523 740.002h63
l-260 -740h-63z" />
    <glyph glyph-name="questiondown" unicode="&#xbf;" horiz-adv-x="389" 
d="M273 349l6.00195 -190c-20.667 -5.33301 -41.667 -11.666 -63 -18.999s-40.833 -17.166 -58.5 -29.499s-32 -27.833 -43 -46.5s-16.5 -42 -16.5 -70c0 -26 4 -47.833 12 -65.5s18.5 -31.834 31.5 -42.501s27.667 -18.334 44 -23.001s33.166 -7 50.499 -7
c19.333 0 39.5 2 60.5 6s40.5 9.66699 58.5 17l11 -59c-21.333 -7.33301 -43.833 -13.5 -67.5 -18.5s-47.834 -7.5 -72.501 -7.5c-26 0 -51 3.33301 -75 10s-45.333 17.667 -64 33s-33.5 35.5 -44.5 60.5s-16.5 55.833 -16.5 92.5c0 34 5.83301 63 17.5 87
s26.667 44.167 45 60.5s38.833 29.5 61.5 39.5s45 18 67 24l2 148v19h54v-19zM245.002 545c15.333 0 27.166 -4 35.499 -12s12.5 -19.667 12.5 -35s-4.16699 -27 -12.5 -35s-20.166 -12 -35.499 -12c-32.667 0 -49 15.667 -49 47s16.333 47 49 47z" />
    <glyph glyph-name="Agrave" unicode="&#xc0;" horiz-adv-x="551" 
d="M7 6l215 734h105l217 -734v-6h-70l-69 227h-260l-68 -227h-70v6zM389 290l-81 272l-30 110h-7l-29 -110l-81 -272h228zM242 786l-94 143h77l75 -130z" />
    <glyph glyph-name="Aacute" unicode="&#xc1;" horiz-adv-x="551" 
d="M7 6l215 734h105l217 -734v-6h-70l-69 227h-260l-68 -227h-70v6zM389 290l-81 272l-30 110h-7l-29 -110l-81 -272h228zM243 790l75 139h77l-94 -143z" />
    <glyph glyph-name="Acircumflex" unicode="&#xc2;" horiz-adv-x="551" 
d="M7 6l215 734h105l217 -734v-6h-70l-69 227h-260l-68 -227h-70v6zM389 290l-81 272l-30 110h-7l-29 -110l-81 -272h228zM142 872l133 72l134 -72v-61l-134 72l-133 -72v61z" />
    <glyph glyph-name="Atilde" unicode="&#xc3;" horiz-adv-x="551" 
d="M7 6l215 734h105l217 -734v-6h-70l-69 227h-260l-68 -227h-70v6zM389 290l-81 272l-30 110h-7l-29 -110l-81 -272h228zM122 846c12 19.333 27.165 35.833 45.498 49.5s36.5 20.5 54.5 20.5c12.667 0 24.334 -2.16699 35.001 -6.5s21 -9.33301 31 -15
s20.167 -10.667 30.5 -15s21.166 -6.5 32.499 -6.5c10.667 0 20.834 3.5 30.501 10.5s18.5 16.833 26.5 29.5l27 -20c-10 -23.333 -24 -41.333 -42 -54s-36.333 -19 -55 -19c-12.667 0 -24.334 2.16699 -35.001 6.5s-21 9 -31 14s-20 9.66699 -30 14s-20.667 6.5 -32 6.5
s-22.666 -3.5 -33.999 -10.5s-21.666 -16.167 -30.999 -27.5z" />
    <glyph glyph-name="Adieresis" unicode="&#xc4;" horiz-adv-x="551" 
d="M7 6l215 734h105l217 -734v-6h-70l-69 227h-260l-68 -227h-70v6zM389 290l-81 272l-30 110h-7l-29 -110l-81 -272h228zM179 810c-31.333 0 -47 15.667 -47 47s15.667 47 47 47c32.667 0 49 -15.667 49 -47s-16.333 -47 -49 -47zM371 810c-32 0 -48 15.667 -48 47
s16 47 48 47c14.667 0 26.334 -3.66699 35.001 -11s13 -19.333 13 -36s-4.33301 -28.667 -13 -36s-20.334 -11 -35.001 -11z" />
    <glyph glyph-name="Aring" unicode="&#xc5;" horiz-adv-x="551" 
d="M7 6l214 731c-14 9.33301 -24.667 21.5 -32 36.5s-11 32.167 -11 51.5c0 29.333 8.5 54 25.5 74s40.833 30 71.5 30s54.5 -10 71.5 -30s25.5 -44.667 25.5 -74c0 -19.333 -3.83301 -36.5 -11.5 -51.5s-18.5 -27.167 -32.5 -36.5l216 -731v-6h-70l-69 227h-260l-68 -227
h-70v6zM389 290l-81 272l-30 110h-7l-29 -110l-81 -272h228zM275 762c18 0 31.667 5.83301 41 17.5s14 26.834 14 45.501c0 19.333 -4.5 34.833 -13.5 46.5s-22.833 17.5 -41.5 17.5c-19.333 0 -33.333 -5.83301 -42 -17.5s-13 -27.167 -13 -46.5
c0 -18.667 4.5 -33.834 13.5 -45.501s22.833 -17.5 41.5 -17.5z" />
    <glyph glyph-name="AE" unicode="&#xc6;" horiz-adv-x="754" 
d="M5 6l239 734h463v-66h-287l13 -267h248v-65h-245l14 -276h266v-66h-338l-10 226h-215l-74 -226h-74v6zM174 292h192l-16 385h-50z" />
    <glyph glyph-name="Ccedilla" unicode="&#xc7;" horiz-adv-x="489" 
d="M258 -220c-21.333 0 -43.6592 3.66992 -66.9922 11.0029v53c9.33301 -3.33301 19.166 -5.83301 29.499 -7.5s19.833 -2.5 28.5 -2.5c40.667 0 61 20.333 61 61c0 14.667 -2.83301 30.667 -8.5 48s-13.167 34.666 -22.5 51.999c-81.333 12.667 -141 49 -179 109
s-57 148.333 -57 265c0 68 5.83301 125.833 17.5 173.5s29.667 86.834 54 117.501s55.666 53 93.999 67s84.166 21 137.499 21c32.667 0 69.667 -3 111 -9v-64c-13.333 2.66699 -29 4.66699 -47 6s-35.667 2 -53 2c-43.333 0 -80 -5.33301 -110 -16
s-54.333 -28.334 -73 -53.001s-32.334 -57 -41.001 -97s-13 -89.333 -13 -148c0 -56.667 4.5 -104.834 13.5 -144.501s22.833 -72 41.5 -97s42.667 -43.167 72 -54.5s64.666 -17 105.999 -17c11.333 0 27.166 0.666992 47.499 2s39.166 3.33301 56.499 6v-62
c-15.333 -4 -31.5 -7 -48.5 -9s-37.167 -3 -60.5 -3c-4 0 -7.33301 0.333008 -10 1c18.667 -36.667 28 -71.334 28 -104.001c0 -34 -9.33301 -60.333 -28 -79s-45.334 -28 -80.001 -28z" />
    <glyph glyph-name="Egrave" unicode="&#xc8;" horiz-adv-x="504" 
d="M233 786l-94 143h77l75 -130zM74 740h386v-66h-313v-267h280v-65h-280v-276h322v-66h-395v740z" />
    <glyph glyph-name="Eacute" unicode="&#xc9;" horiz-adv-x="504" 
d="M233 790l75 139h77l-94 -143zM74 740h386v-66h-313v-267h280v-65h-280v-276h322v-66h-395v740z" />
    <glyph glyph-name="Ecircumflex" unicode="&#xca;" horiz-adv-x="504" 
d="M74 740h386v-66h-313v-267h280v-65h-280v-276h322v-66h-395v740zM133 872l133 72l134 -72v-61l-134 72l-133 -72v61z" />
    <glyph glyph-name="Edieresis" unicode="&#xcb;" horiz-adv-x="504" 
d="M169 810c-31.333 0 -47 15.667 -47 47s15.667 47 47 47c32.667 0 49 -15.667 49 -47s-16.333 -47 -49 -47zM361 810c-32 0 -48 15.667 -48 47s16 47 48 47c14.667 0 26.334 -3.66699 35.001 -11s13 -19.333 13 -36s-4.33301 -28.667 -13 -36s-20.334 -11 -35.001 -11z
M74 740h386v-66h-313v-267h280v-65h-280v-276h322v-66h-395v740z" />
    <glyph glyph-name="Igrave" unicode="&#xcc;" horiz-adv-x="221" 
d="M74 740h73v-740h-73v740zM80 786l-94 143h77l75 -130z" />
    <glyph glyph-name="Iacute" unicode="&#xcd;" horiz-adv-x="221" 
d="M74 740h73v-740h-73v740zM80 790l75 139h77l-94 -143z" />
    <glyph glyph-name="Icircumflex" unicode="&#xce;" horiz-adv-x="221" 
d="M74 740h73v-740h-73v740zM-20 872l133 72l134 -72v-61l-134 72l-133 -72v61z" />
    <glyph glyph-name="Idieresis" unicode="&#xcf;" horiz-adv-x="221" 
d="M74 740h73v-740h-73v740zM17 810c-31.333 0 -47 15.667 -47 47s15.667 47 47 47c32.667 0 49 -15.667 49 -47s-16.333 -47 -49 -47zM209 810c-32 0 -48 15.667 -48 47s16 47 48 47c14.667 0 26.334 -3.66699 35.001 -11s13 -19.333 13 -36s-4.33301 -28.667 -13 -36
s-20.334 -11 -35.001 -11z" />
    <glyph glyph-name="Eth" unicode="&#xd0;" horiz-adv-x="597" 
d="M-1 400l88 -0.00292969v334c33.333 5.33301 62.333 9.33301 87 12s48 4 70 4c108 0 186.833 -30.667 236.5 -92s74.5 -157.666 74.5 -288.999c0 -67.333 -6.66699 -125.166 -20 -173.499s-34 -88.166 -62 -119.499s-63.667 -54.5 -107 -69.5s-95 -22.5 -155 -22.5
c-19.333 0 -39 0.5 -59 1.5s-41.667 2.83301 -65 5.5v348h-88v61zM230 48.9971c84.667 0 147.168 25.501 187.501 76.501s60.5 132.167 60.5 243.5c0 56 -4.33301 104.167 -13 144.5s-22.167 73.166 -40.5 98.499s-42 44 -71 56s-63.5 18 -103.5 18
c-16 0 -31.333 -0.666992 -46 -2s-29.334 -3.33301 -44.001 -6v-278h140v-61h-140v-285l38.5 -3.5c11 -1 21.5 -1.5 31.5 -1.5z" />
    <glyph glyph-name="Ntilde" unicode="&#xd1;" horiz-adv-x="652" 
d="M175 846c12 19.333 27.165 35.833 45.498 49.5s36.5 20.5 54.5 20.5c12.667 0 24.334 -2.16699 35.001 -6.5s21 -9.33301 31 -15s20.167 -10.667 30.5 -15s21.166 -6.5 32.499 -6.5c10.667 0 20.834 3.5 30.501 10.5s18.5 16.833 26.5 29.5l27 -20
c-10 -23.333 -24 -41.333 -42 -54s-36.333 -19 -55 -19c-12.667 0 -24.334 2.16699 -35.001 6.5s-21 9 -31 14s-20 9.66699 -30 14s-20.667 6.5 -32 6.5s-22.666 -3.5 -33.999 -10.5s-21.666 -16.167 -30.999 -27.5zM73.998 740h69l318 -526l43 -84l6 1v609h69v-740h-71
l-315 523l-45 87l-6 -1v-609h-68v740z" />
    <glyph glyph-name="Ograve" unicode="&#xd2;" horiz-adv-x="612" 
d="M273 786l-94 143h77l75 -130zM305 -10c-174.667 0 -261.999 126.333 -261.999 379c0 128.667 21.5 224.334 64.5 287.001s108.833 94 197.5 94c89.333 0 155.666 -31.333 198.999 -94s65 -158.334 65 -287.001c0 -252.667 -88 -379 -264 -379zM305.001 56
c32.667 0 60.999 6 84.999 18s43.5 30.667 58.5 56s26.167 57.666 33.5 96.999s11 86.666 11 141.999c0 110 -15 190.167 -45 240.5s-77.667 75.5 -143 75.5c-32.667 0 -60.667 -6 -84 -18s-42.5 -30.833 -57.5 -56.5s-26.167 -58.5 -33.5 -98.5s-11 -87.667 -11 -143
s3.5 -102.666 10.5 -141.999s18 -71.666 33 -96.999s34.333 -44 58 -56s51.834 -18 84.501 -18z" />
    <glyph glyph-name="Oacute" unicode="&#xd3;" horiz-adv-x="612" 
d="M273 790l75 139h77l-94 -143zM305 -10c-174.667 0 -261.999 126.333 -261.999 379c0 128.667 21.5 224.334 64.5 287.001s108.833 94 197.5 94c89.333 0 155.666 -31.333 198.999 -94s65 -158.334 65 -287.001c0 -252.667 -88 -379 -264 -379zM305.001 56
c32.667 0 60.999 6 84.999 18s43.5 30.667 58.5 56s26.167 57.666 33.5 96.999s11 86.666 11 141.999c0 110 -15 190.167 -45 240.5s-77.667 75.5 -143 75.5c-32.667 0 -60.667 -6 -84 -18s-42.5 -30.833 -57.5 -56.5s-26.167 -58.5 -33.5 -98.5s-11 -87.667 -11 -143
s3.5 -102.666 10.5 -141.999s18 -71.666 33 -96.999s34.333 -44 58 -56s51.834 -18 84.501 -18z" />
    <glyph glyph-name="Ocircumflex" unicode="&#xd4;" horiz-adv-x="612" 
d="M305 -10c-174.667 0 -261.999 126.333 -261.999 379c0 128.667 21.5 224.334 64.5 287.001s108.833 94 197.5 94c89.333 0 155.666 -31.333 198.999 -94s65 -158.334 65 -287.001c0 -252.667 -88 -379 -264 -379zM305.001 56c32.667 0 60.999 6 84.999 18
s43.5 30.667 58.5 56s26.167 57.666 33.5 96.999s11 86.666 11 141.999c0 110 -15 190.167 -45 240.5s-77.667 75.5 -143 75.5c-32.667 0 -60.667 -6 -84 -18s-42.5 -30.833 -57.5 -56.5s-26.167 -58.5 -33.5 -98.5s-11 -87.667 -11 -143s3.5 -102.666 10.5 -141.999
s18 -71.666 33 -96.999s34.333 -44 58 -56s51.834 -18 84.501 -18zM173 872l133 72l134 -72v-61l-134 72l-133 -72v61z" />
    <glyph glyph-name="Otilde" unicode="&#xd5;" horiz-adv-x="612" 
d="M153 846c12 19.333 27.165 35.833 45.498 49.5s36.5 20.5 54.5 20.5c12.667 0 24.334 -2.16699 35.001 -6.5s21 -9.33301 31 -15s20.167 -10.667 30.5 -15s21.166 -6.5 32.499 -6.5c10.667 0 20.834 3.5 30.501 10.5s18.5 16.833 26.5 29.5l27 -20
c-10 -23.333 -24 -41.333 -42 -54s-36.333 -19 -55 -19c-12.667 0 -24.334 2.16699 -35.001 6.5s-21 9 -31 14s-20 9.66699 -30 14s-20.667 6.5 -32 6.5s-22.666 -3.5 -33.999 -10.5s-21.666 -16.167 -30.999 -27.5zM304.998 -10c-174.667 0 -261.999 126.333 -261.999 379
c0 128.667 21.5 224.334 64.5 287.001s108.833 94 197.5 94c89.333 0 155.666 -31.333 198.999 -94s65 -158.334 65 -287.001c0 -252.667 -88 -379 -264 -379zM304.999 56c32.667 0 60.999 6 84.999 18s43.5 30.667 58.5 56s26.167 57.666 33.5 96.999s11 86.666 11 141.999
c0 110 -15 190.167 -45 240.5s-77.667 75.5 -143 75.5c-32.667 0 -60.667 -6 -84 -18s-42.5 -30.833 -57.5 -56.5s-26.167 -58.5 -33.5 -98.5s-11 -87.667 -11 -143s3.5 -102.666 10.5 -141.999s18 -71.666 33 -96.999s34.333 -44 58 -56s51.834 -18 84.501 -18z" />
    <glyph glyph-name="Odieresis" unicode="&#xd6;" horiz-adv-x="612" 
d="M210 810c-31.333 0 -47 15.667 -47 47s15.667 47 47 47c32.667 0 49 -15.667 49 -47s-16.333 -47 -49 -47zM402 810c-32 0 -48 15.667 -48 47s16 47 48 47c14.667 0 26.334 -3.66699 35.001 -11s13 -19.333 13 -36s-4.33301 -28.667 -13 -36s-20.334 -11 -35.001 -11z
M305 -10c-174.667 0 -261.999 126.333 -261.999 379c0 128.667 21.5 224.334 64.5 287.001s108.833 94 197.5 94c89.333 0 155.666 -31.333 198.999 -94s65 -158.334 65 -287.001c0 -252.667 -88 -379 -264 -379zM305.001 56c32.667 0 60.999 6 84.999 18
s43.5 30.667 58.5 56s26.167 57.666 33.5 96.999s11 86.666 11 141.999c0 110 -15 190.167 -45 240.5s-77.667 75.5 -143 75.5c-32.667 0 -60.667 -6 -84 -18s-42.5 -30.833 -57.5 -56.5s-26.167 -58.5 -33.5 -98.5s-11 -87.667 -11 -143s3.5 -102.666 10.5 -141.999
s18 -71.666 33 -96.999s34.333 -44 58 -56s51.834 -18 84.501 -18z" />
    <glyph glyph-name="multiply" unicode="&#xd7;" horiz-adv-x="446" 
d="M48 237l133 134l-133 133l41 42l133 -134l134 134l42 -42l-134 -134l134 -133l-41 -41l-134 133l-134 -133z" />
    <glyph glyph-name="Oslash" unicode="&#xd8;" horiz-adv-x="621" 
d="M97 112c-32 62 -47.999 147.666 -47.999 256.999c0 128.667 21.5 224.334 64.5 287.001s108.833 94 197.5 94c78 0 139 -25.333 183 -76l46 66h64l-79 -113c32.667 -63.333 49 -149.333 49 -258c0 -252.667 -87.667 -379 -263 -379c-78.667 0 -139.334 25 -182.001 75
l-46 -65h-65zM124.001 368.999c0 -78.667 7.33203 -141.333 21.999 -188l304 432c-29.333 48 -75.666 72 -138.999 72c-65.333 0 -112.833 -25 -142.5 -75s-44.5 -130.333 -44.5 -241zM311 56c32.667 0 60.833 6.00195 84.5 18.002s43.167 30.667 58.5 56
s26.5 57.666 33.5 96.999s10.5 86.666 10.5 141.999c0 76 -7.66699 138.667 -23 188l-304 -432c15.333 -24 34.5 -41.5 57.5 -52.5s50.5 -16.5 82.5 -16.5z" />
    <glyph glyph-name="Ugrave" unicode="&#xd9;" horiz-adv-x="632" 
d="M281 786l-94 143h77l75 -130zM316 -10c-44.667 0 -82.667 5.83301 -114 17.5s-57 29.834 -77 54.501s-34.5 55.834 -43.5 93.501s-13.5 82.5 -13.5 134.5v450h73v-448c0 -82.667 13.833 -142.667 41.5 -180s72.167 -56 133.5 -56c62 0 106.5 18.5 133.5 55.5
s40.5 97.167 40.5 180.5v448h75v-450c0 -52 -4.66699 -96.833 -14 -134.5s-24 -68.834 -44 -93.501s-45.667 -42.834 -77 -54.501s-69.333 -17.5 -114 -17.5z" />
    <glyph glyph-name="Uacute" unicode="&#xda;" horiz-adv-x="632" 
d="M282 790l75 139h77l-94 -143zM316 -10c-44.667 0 -82.667 5.83301 -114 17.5s-57 29.834 -77 54.501s-34.5 55.834 -43.5 93.501s-13.5 82.5 -13.5 134.5v450h73v-448c0 -82.667 13.833 -142.667 41.5 -180s72.167 -56 133.5 -56c62 0 106.5 18.5 133.5 55.5
s40.5 97.167 40.5 180.5v448h75v-450c0 -52 -4.66699 -96.833 -14 -134.5s-24 -68.834 -44 -93.501s-45.667 -42.834 -77 -54.501s-69.333 -17.5 -114 -17.5z" />
    <glyph glyph-name="Ucircumflex" unicode="&#xdb;" horiz-adv-x="632" 
d="M316 -10c-44.667 0 -82.667 5.83301 -114 17.5s-57 29.834 -77 54.501s-34.5 55.834 -43.5 93.501s-13.5 82.5 -13.5 134.5v450h73v-448c0 -82.667 13.833 -142.667 41.5 -180s72.167 -56 133.5 -56c62 0 106.5 18.5 133.5 55.5s40.5 97.167 40.5 180.5v448h75v-450
c0 -52 -4.66699 -96.833 -14 -134.5s-24 -68.834 -44 -93.501s-45.667 -42.834 -77 -54.501s-69.333 -17.5 -114 -17.5zM181 872l133 72l134 -72v-61l-134 72l-133 -72v61z" />
    <glyph glyph-name="Udieresis" unicode="&#xdc;" horiz-adv-x="632" 
d="M218 810c-31.333 0 -47 15.667 -47 47s15.667 47 47 47c32.667 0 49 -15.667 49 -47s-16.333 -47 -49 -47zM410 810c-32 0 -48 15.667 -48 47s16 47 48 47c14.667 0 26.334 -3.66699 35.001 -11s13 -19.333 13 -36s-4.33301 -28.667 -13 -36s-20.334 -11 -35.001 -11z
M316 -10c-44.667 0 -82.667 5.83301 -114 17.5s-57 29.834 -77 54.501s-34.5 55.834 -43.5 93.501s-13.5 82.5 -13.5 134.5v450h73v-448c0 -82.667 13.833 -142.667 41.5 -180s72.167 -56 133.5 -56c62 0 106.5 18.5 133.5 55.5s40.5 97.167 40.5 180.5v448h75v-450
c0 -52 -4.66699 -96.833 -14 -134.5s-24 -68.834 -44 -93.501s-45.667 -42.834 -77 -54.501s-69.333 -17.5 -114 -17.5z" />
    <glyph glyph-name="Yacute" unicode="&#xdd;" horiz-adv-x="539" 
d="M233 248l-233 492h81l164 -357l22 -59h6l22 59l163 357h81l-232 -489v-251h-74v248zM240 790l75 139h77l-94 -143z" />
    <glyph glyph-name="Thorn" unicode="&#xde;" horiz-adv-x="528" 
d="M74 740h73.001v-121c14 1.33301 27.667 2.5 41 3.5s26.666 1.5 39.999 1.5c93.333 0 161.5 -20.167 204.5 -60.5s64.5 -104.5 64.5 -192.5c0 -88.667 -22.167 -153.167 -66.5 -193.5s-114.5 -60.5 -210.5 -60.5h-36c-12 0 -24.333 0.666992 -37 2v-119h-73v740z
M233.001 181c66 0 114.001 14.999 144.001 44.999s45 78.333 45 145c0 66 -14.333 114 -43 144s-75 45 -139 45c-11.333 0 -25.666 -0.666992 -42.999 -2s-34 -3.66602 -50 -6.99902v-365c13.333 -1.33301 28.166 -2.5 44.499 -3.5s30.166 -1.5 41.499 -1.5z" />
    <glyph glyph-name="germandbls" unicode="&#xdf;" horiz-adv-x="531" 
d="M62 604c0 72 15.833 124.496 47.5 157.496s81.5 49.5 149.5 49.5c67.333 0 116.833 -16.5 148.5 -49.5s47.5 -85.5 47.5 -157.5v-112h-70c-32.667 0 -58.667 -8 -78 -24s-29 -38 -29 -66c0 -17.333 2.5 -31.333 7.5 -42s11.833 -19.5 20.5 -26.5s18.5 -12.667 29.5 -17
s22.5 -8.16602 34.5 -11.499c20.667 -6 39.334 -13 56.001 -21s30.834 -18 42.501 -30s20.667 -26.667 27 -44s9.5 -38.666 9.5 -63.999c0 -47.333 -14.833 -85.333 -44.5 -114s-69.167 -43 -118.5 -43c-19.333 0 -39.5 1.66699 -60.5 5s-46.5 8.66602 -76.5 15.999v60
c21.333 -7.33301 43.666 -12.666 66.999 -15.999s45.333 -5 66 -5c30 0 53.667 8.16699 71 24.5s26 39.5 26 69.5c0 26.667 -6.83301 48 -20.5 64s-35.5 28 -65.5 36c-16 4 -32.167 8.5 -48.5 13.5s-31.333 12.833 -45 23.5s-24.834 25.334 -33.501 44.001
s-13 43.667 -13 75c0 46.667 14.833 83.834 44.5 111.501s69.5 41.5 119.5 41.5h10v52c0 53.333 -9.33301 91 -28 113s-50.667 33 -96 33s-77.333 -11 -96 -33s-28 -59.667 -28 -113v-604h-73v604z" />
    <glyph glyph-name="agrave" unicode="&#xe0;" horiz-adv-x="444" 
d="M157 -5c-40 0 -71.332 12.501 -93.999 37.501s-34 59.5 -34 103.5c0 99.333 62.667 154 188 164l96 7v58c0 45.333 -8.5 77.166 -25.5 95.499s-45.167 27.5 -84.5 27.5c-16.667 0 -37.334 -1.5 -62.001 -4.5s-47 -7.16699 -67 -12.5l-6 60
c25.333 5.33301 50.833 9.5 76.5 12.5s49.167 4.5 70.5 4.5c58.667 0 101.667 -13.667 129 -41s41 -70 41 -128v-379h-61l-7 65h-6c-21.333 -17.333 -44.833 -33.333 -70.5 -48s-53.5 -22 -83.5 -22zM182.001 55.001c11.333 0 23.001 2.16797 35.001 6.50098
s23.833 9.66602 35.5 15.999s22.667 13 33 20s19.5 12.833 27.5 17.5v140l-81 -7c-46.667 -4 -79.834 -14.333 -99.501 -31s-29.5 -41.667 -29.5 -75c0 -28 6.83301 -49.5 20.5 -64.5s33.167 -22.5 58.5 -22.5zM206.002 610.002l-96 190h76l71 -180z" />
    <glyph glyph-name="aacute" unicode="&#xe1;" horiz-adv-x="444" 
d="M157 -5c-40 0 -71.332 12.501 -93.999 37.501s-34 59.5 -34 103.5c0 99.333 62.667 154 188 164l96 7v58c0 45.333 -8.5 77.166 -25.5 95.499s-45.167 27.5 -84.5 27.5c-16.667 0 -37.334 -1.5 -62.001 -4.5s-47 -7.16699 -67 -12.5l-6 60
c25.333 5.33301 50.833 9.5 76.5 12.5s49.167 4.5 70.5 4.5c58.667 0 101.667 -13.667 129 -41s41 -70 41 -128v-379h-61l-7 65h-6c-21.333 -17.333 -44.833 -33.333 -70.5 -48s-53.5 -22 -83.5 -22zM182.001 55.001c11.333 0 23.001 2.16797 35.001 6.50098
s23.833 9.66602 35.5 15.999s22.667 13 33 20s19.5 12.833 27.5 17.5v140l-81 -7c-46.667 -4 -79.834 -14.333 -99.501 -31s-29.5 -41.667 -29.5 -75c0 -28 6.83301 -49.5 20.5 -64.5s33.167 -22.5 58.5 -22.5zM201.002 617.002l73 183h75l-95 -190z" />
    <glyph glyph-name="acircumflex" unicode="&#xe2;" horiz-adv-x="444" 
d="M157 -5c-40 0 -71.332 12.501 -93.999 37.501s-34 59.5 -34 103.5c0 99.333 62.667 154 188 164l96 7v58c0 45.333 -8.5 77.166 -25.5 95.499s-45.167 27.5 -84.5 27.5c-16.667 0 -37.334 -1.5 -62.001 -4.5s-47 -7.16699 -67 -12.5l-6 60
c25.333 5.33301 50.833 9.5 76.5 12.5s49.167 4.5 70.5 4.5c58.667 0 101.667 -13.667 129 -41s41 -70 41 -128v-379h-61l-7 65h-6c-21.333 -17.333 -44.833 -33.333 -70.5 -48s-53.5 -22 -83.5 -22zM182.001 55.001c11.333 0 23.001 2.16797 35.001 6.50098
s23.833 9.66602 35.5 15.999s22.667 13 33 20s19.5 12.833 27.5 17.5v140l-81 -7c-46.667 -4 -79.834 -14.333 -99.501 -31s-29.5 -41.667 -29.5 -75c0 -28 6.83301 -49.5 20.5 -64.5s33.167 -22.5 58.5 -22.5zM96.002 694.002l134 72l133 -72v-61l-133 71l-134 -71v61z" />
    <glyph glyph-name="atilde" unicode="&#xe3;" horiz-adv-x="444" 
d="M157 -5c-40 0 -71.332 12.501 -93.999 37.501s-34 59.5 -34 103.5c0 99.333 62.667 154 188 164l96 7v58c0 45.333 -8.5 77.166 -25.5 95.499s-45.167 27.5 -84.5 27.5c-16.667 0 -37.334 -1.5 -62.001 -4.5s-47 -7.16699 -67 -12.5l-6 60
c25.333 5.33301 50.833 9.5 76.5 12.5s49.167 4.5 70.5 4.5c58.667 0 101.667 -13.667 129 -41s41 -70 41 -128v-379h-61l-7 65h-6c-21.333 -17.333 -44.833 -33.333 -70.5 -48s-53.5 -22 -83.5 -22zM182.001 55.001c11.333 0 23.001 2.16797 35.001 6.50098
s23.833 9.66602 35.5 15.999s22.667 13 33 20s19.5 12.833 27.5 17.5v140l-81 -7c-46.667 -4 -79.834 -14.333 -99.501 -31s-29.5 -41.667 -29.5 -75c0 -28 6.83301 -49.5 20.5 -64.5s33.167 -22.5 58.5 -22.5zM72.002 659.002c11.333 19.333 26.1699 35.332 44.5029 47.999
s36.5 19 54.5 19c12.667 0 24.334 -2.5 35.001 -7.5s21 -10.5 31 -16.5s20 -11.5 30 -16.5s20.667 -7.5 32 -7.5s21.666 3.66699 30.999 11s17.666 17.333 24.999 30l29 -25c-9.33301 -22 -23 -39 -41 -51s-36.333 -18 -55 -18c-12.667 0 -24.334 2.33301 -35.001 7
s-21 10 -31 16s-20 11.333 -30 16s-20.667 7 -32 7s-22.333 -3.66699 -33 -11s-20.334 -16.666 -29.001 -27.999z" />
    <glyph glyph-name="adieresis" unicode="&#xe4;" horiz-adv-x="444" 
d="M157 -5c-40 0 -71.332 12.501 -93.999 37.501s-34 59.5 -34 103.5c0 99.333 62.667 154 188 164l96 7v58c0 45.333 -8.5 77.166 -25.5 95.499s-45.167 27.5 -84.5 27.5c-16.667 0 -37.334 -1.5 -62.001 -4.5s-47 -7.16699 -67 -12.5l-6 60
c25.333 5.33301 50.833 9.5 76.5 12.5s49.167 4.5 70.5 4.5c58.667 0 101.667 -13.667 129 -41s41 -70 41 -128v-379h-61l-7 65h-6c-21.333 -17.333 -44.833 -33.333 -70.5 -48s-53.5 -22 -83.5 -22zM182.001 55.001c11.333 0 23.001 2.16797 35.001 6.50098
s23.833 9.66602 35.5 15.999s22.667 13 33 20s19.5 12.833 27.5 17.5v140l-81 -7c-46.667 -4 -79.834 -14.333 -99.501 -31s-29.5 -41.667 -29.5 -75c0 -28 6.83301 -49.5 20.5 -64.5s33.167 -22.5 58.5 -22.5zM136.002 629.002c-29.333 0 -44 14.334 -44 43.001
c0 28 14.667 42 44 42c13.333 0 24 -3.33301 32 -10s12 -17.334 12 -32.001s-4 -25.5 -12 -32.5s-18.667 -10.5 -32 -10.5zM319.002 629.003c-29.333 0 -44 14.334 -44 43.001c0 28 14.667 42 44 42c13.333 0 23.666 -3.33301 30.999 -10s11 -17.334 11 -32.001
s-3.66699 -25.5 -11 -32.5s-17.666 -10.5 -30.999 -10.5z" />
    <glyph glyph-name="aring" unicode="&#xe5;" horiz-adv-x="444" 
d="M157 -5c-40 0 -71.332 12.501 -93.999 37.501s-34 59.5 -34 103.5c0 99.333 62.667 154 188 164l96 7v58c0 45.333 -8.5 77.166 -25.5 95.499s-45.167 27.5 -84.5 27.5c-16.667 0 -37.334 -1.5 -62.001 -4.5s-47 -7.16699 -67 -12.5l-6 60
c25.333 5.33301 50.833 9.5 76.5 12.5s49.167 4.5 70.5 4.5c58.667 0 101.667 -13.667 129 -41s41 -70 41 -128v-379h-61l-7 65h-6c-21.333 -17.333 -44.833 -33.333 -70.5 -48s-53.5 -22 -83.5 -22zM182.001 55.001c11.333 0 23.001 2.16797 35.001 6.50098
s23.833 9.66602 35.5 15.999s22.667 13 33 20s19.5 12.833 27.5 17.5v140l-81 -7c-46.667 -4 -79.834 -14.333 -99.501 -31s-29.5 -41.667 -29.5 -75c0 -28 6.83301 -49.5 20.5 -64.5s33.167 -22.5 58.5 -22.5zM226.002 611.002c-31.333 0 -55.501 9.83301 -72.501 29.5
s-25.5 44.5 -25.5 74.5c0 29.333 8.33301 53.833 25 73.5s41 29.5 73 29.5s56.5 -9.83301 73.5 -29.5s25.5 -44.167 25.5 -73.5c0 -30 -8.66699 -54.833 -26 -74.5s-41.666 -29.5 -72.999 -29.5zM226.001 652.002c17.333 0 30.666 6 39.999 18s14 27 14 45
c0 17.333 -4.66699 32 -14 44s-22.666 18 -39.999 18s-30.333 -6 -39 -18s-13 -26.667 -13 -44c0 -18 4.5 -33 13.5 -45s21.833 -18 38.5 -18z" />
    <glyph glyph-name="ae" unicode="&#xe6;" horiz-adv-x="721" 
d="M523 -9c-38.667 0 -71.666 7.99902 -98.999 23.999s-49.333 39 -66 69l-6 1l-62 -41.5c-18 -11.667 -34.5 -21 -49.5 -28s-29.167 -12.167 -42.5 -15.5s-27 -5 -41 -5c-40 0 -71.333 12.5 -94 37.5s-34 59.5 -34 103.5c0 99.333 62.667 154 188 164l96 7v66
c-0.666992 41.333 -9.5 70.833 -26.5 88.5s-44.833 26.5 -83.5 26.5c-17.333 0 -38.333 -1.5 -63 -4.5s-46.667 -7.16699 -66 -12.5l-6 60c26.667 5.33301 52.834 9.5 78.501 12.5s48.5 4.5 68.5 4.5c75.333 0 122 -32 140 -96h5c32 64.667 84.667 97 158 97
c55.333 0 96.833 -19.667 124.5 -59s41.5 -97.333 41.5 -174c0 -16.667 -0.333008 -30.167 -1 -40.5s-1.66699 -20.833 -3 -31.5h-294c1.33301 -63.333 13.666 -111.166 36.999 -143.499s57.666 -48.5 102.999 -48.5c20 0 40.833 2.33301 62.5 7s45.167 12.667 70.5 24
l5 -61c-20 -9.33301 -42.5 -16.833 -67.5 -22.5s-49.5 -8.5 -73.5 -8.5zM182.001 54.999c19.333 0 40.167 6.66699 62.5 20s50.166 31 83.499 53c-5.33301 14.667 -9.16602 34 -11.499 58s-3.5 47 -3.5 69l-81 -7c-46 -4 -79 -14.333 -99 -31s-30 -41.667 -30 -75
c0 -28 6.83301 -49.5 20.5 -64.5s33.167 -22.5 58.5 -22.5zM616.002 296.999c-2 68 -10.668 117.001 -26.001 147.001s-39.666 45 -72.999 45c-40 0 -71.167 -16.333 -93.5 -49s-34.833 -80.334 -37.5 -143.001h230z" />
    <glyph glyph-name="ccedilla" unicode="&#xe7;" horiz-adv-x="381" 
d="M186 -220c-21.333 0 -43.668 3.66602 -67.001 10.999v53c9.33301 -3.33301 19.166 -5.83301 29.499 -7.5s19.833 -2.5 28.5 -2.5c40.667 0 61 20.333 61 61c0 14.667 -2.66699 30.5 -8 47.5s-12.666 34.167 -21.999 51.5c-57.333 9.33301 -100 36.5 -128 81.5
s-42 109.833 -42 194.5c0 186.667 72.667 280 218 280c23.333 0 53.333 -4.33301 90 -13v-62c-16 4 -30.833 6.83301 -44.5 8.5s-27.167 2.5 -40.5 2.5c-51.333 0 -88.666 -17.167 -111.999 -51.5s-35 -89.166 -35 -164.499c0 -74.667 11.833 -129.5 35.5 -164.5
s60.834 -52.5 111.501 -52.5c20.667 0 49 4 85 12v-61c-12 -3.33301 -25 -6.33301 -39 -9s-27.667 -4.33398 -41 -5.00098c18.667 -37.333 28 -71.666 28 -102.999c0 -34 -9.33301 -60.333 -28 -79s-45.334 -28 -80.001 -28z" />
    <glyph glyph-name="egrave" unicode="&#xe8;" horiz-adv-x="446" 
d="M248 -9c-67.333 0 -119 23.168 -155 69.501s-54 112.833 -54 199.5c0 94.667 17.333 166.5 52 215.5s86 73.5 154 73.5c54.667 0 96 -19.667 124 -59s42 -97.333 42 -174c0 -16.667 -0.333008 -30.334 -1 -41.001s-1.66699 -21.667 -3 -33h-294
c2.66699 -64.667 15.334 -112.5 38.001 -143.5s56 -46.5 100 -46.5c21.333 0 42.666 2.33301 63.999 7s44.333 12.667 69 24l5 -61c-19.333 -9.33301 -41.5 -16.833 -66.5 -22.5s-49.833 -8.5 -74.5 -8.5zM243 489.001c-39.333 0 -69.833 -16 -91.5 -48
s-34.167 -79.333 -37.5 -142h228c0 67.333 -8 115.833 -24 145.5s-41 44.5 -75 44.5zM203 610.001l-96 190h76l71 -180z" />
    <glyph glyph-name="eacute" unicode="&#xe9;" horiz-adv-x="446" 
d="M208 617l73 183h75l-95 -190zM248 -9c-67.333 0 -119 23.168 -155 69.501s-54 112.833 -54 199.5c0 94.667 17.333 166.5 52 215.5s86 73.5 154 73.5c54.667 0 96 -19.667 124 -59s42 -97.333 42 -174c0 -16.667 -0.333008 -30.334 -1 -41.001s-1.66699 -21.667 -3 -33
h-294c2.66699 -64.667 15.334 -112.5 38.001 -143.5s56 -46.5 100 -46.5c21.333 0 42.666 2.33301 63.999 7s44.333 12.667 69 24l5 -61c-19.333 -9.33301 -41.5 -16.833 -66.5 -22.5s-49.833 -8.5 -74.5 -8.5zM243 489.001c-39.333 0 -69.833 -16 -91.5 -48
s-34.167 -79.333 -37.5 -142h228c0 67.333 -8 115.833 -24 145.5s-41 44.5 -75 44.5z" />
    <glyph glyph-name="ecircumflex" unicode="&#xea;" horiz-adv-x="446" 
d="M97 694l134 72l133 -72v-61l-133 71l-134 -71v61zM248 -9c-67.333 0 -119 23.168 -155 69.501s-54 112.833 -54 199.5c0 94.667 17.333 166.5 52 215.5s86 73.5 154 73.5c54.667 0 96 -19.667 124 -59s42 -97.333 42 -174c0 -16.667 -0.333008 -30.334 -1 -41.001
s-1.66699 -21.667 -3 -33h-294c2.66699 -64.667 15.334 -112.5 38.001 -143.5s56 -46.5 100 -46.5c21.333 0 42.666 2.33301 63.999 7s44.333 12.667 69 24l5 -61c-19.333 -9.33301 -41.5 -16.833 -66.5 -22.5s-49.833 -8.5 -74.5 -8.5zM243 489.001
c-39.333 0 -69.833 -16 -91.5 -48s-34.167 -79.333 -37.5 -142h228c0 67.333 -8 115.833 -24 145.5s-41 44.5 -75 44.5z" />
    <glyph glyph-name="edieresis" unicode="&#xeb;" horiz-adv-x="446" 
d="M140 629c-29.333 0 -44 14.334 -44 43.001c0 28 14.667 42 44 42c13.333 0 24 -3.33301 32 -10s12 -17.334 12 -32.001s-4 -25.5 -12 -32.5s-18.667 -10.5 -32 -10.5zM323 629.001c-29.333 0 -44 14.334 -44 43.001c0 28 14.667 42 44 42
c13.333 0 23.666 -3.33301 30.999 -10s11 -17.334 11 -32.001s-3.66699 -25.5 -11 -32.5s-17.666 -10.5 -30.999 -10.5zM248 -8.99805c-67.333 0 -119 23.168 -155 69.501s-54 112.833 -54 199.5c0 94.667 17.333 166.5 52 215.5s86 73.5 154 73.5
c54.667 0 96 -19.667 124 -59s42 -97.333 42 -174c0 -16.667 -0.333008 -30.334 -1 -41.001s-1.66699 -21.667 -3 -33h-294c2.66699 -64.667 15.334 -112.5 38.001 -143.5s56 -46.5 100 -46.5c21.333 0 42.666 2.33301 63.999 7s44.333 12.667 69 24l5 -61
c-19.333 -9.33301 -41.5 -16.833 -66.5 -22.5s-49.833 -8.5 -74.5 -8.5zM243 489.003c-39.333 0 -69.833 -16 -91.5 -48s-34.167 -79.333 -37.5 -142h228c0 67.333 -8 115.833 -24 145.5s-41 44.5 -75 44.5z" />
    <glyph glyph-name="igrave" unicode="&#xec;" horiz-adv-x="199" 
d="M63 540h73v-540h-73v540zM81 610l-96 190h76l71 -180z" />
    <glyph glyph-name="iacute" unicode="&#xed;" horiz-adv-x="199" 
d="M76 617l73 183h75l-95 -190zM63 540h73v-540h-73v540z" />
    <glyph glyph-name="icircumflex" unicode="&#xee;" horiz-adv-x="201" 
d="M-29 694l134 72l133 -72v-61l-133 71l-134 -71v61zM64 540h73v-540h-73v540z" />
    <glyph glyph-name="idieresis" unicode="&#xef;" horiz-adv-x="201" 
d="M11 629c-28.667 0 -43 14.333 -43 43c0 28 14.333 42 43 42c29.333 0 44 -14 44 -42c0 -28.667 -14.667 -43 -44 -43zM194 629c-29.333 0 -44 14.333 -44 43c0 28 14.667 42 44 42c28.667 0 43 -14 43 -42c0 -28.667 -14.333 -43 -43 -43zM64 540h73v-540h-73v540z" />
    <glyph glyph-name="eth" unicode="&#xf0;" horiz-adv-x="491" 
d="M197 679l81.9971 12.002c-9.33301 20.667 -19.5 40.667 -30.5 60l-33.5 57h75c10.667 -16.667 20.834 -33.834 30.501 -51.501s18.834 -35.834 27.501 -54.501l108 17v-54l-85 -13c24.667 -61.333 43.834 -124.666 57.501 -189.999s20.5 -129.333 20.5 -192
c0 -92 -17.333 -161.5 -52 -208.5s-85.667 -70.5 -153 -70.5s-118.333 23.667 -153 71s-52 116.666 -52 207.999c0 92 17.333 161.667 52 209s85.667 71 153 71c42.667 0 77.667 -16.667 105 -50c-13.333 46.667 -29.333 93.667 -48 141l-104 -16v54zM243.997 53.002
c46 0 79.333 17.167 100 51.5s31 89.5 31 165.5c0 26.667 -1.66699 53.167 -5 79.5s-9.83301 49.833 -19.5 70.5s-23 37.334 -40 50.001s-39.167 19 -66.5 19c-45.333 0 -78.5 -17.333 -99.5 -52s-31.5 -90.334 -31.5 -167.001c0 -76 10.5 -131.167 31.5 -165.5
s54.167 -51.5 99.5 -51.5z" />
    <glyph glyph-name="ntilde" unicode="&#xf1;" horiz-adv-x="480" 
d="M62 540h63l5 -58h4c34 23.333 64.667 40.5 92 51.5s53.666 16.5 78.999 16.5c41.333 0 70.833 -11 88.5 -33s26.5 -58.333 26.5 -109v-408h-73v391c0 34 -5.33301 58 -16 72s-27.667 21 -51 21c-21.333 0 -44.166 -4.83301 -68.499 -14.5s-49.833 -23.5 -76.5 -41.5v-428
h-73v540zM90 659c11.333 19.333 26.1699 35.332 44.5029 47.999s36.5 19 54.5 19c12.667 0 24.334 -2.5 35.001 -7.5s21 -10.5 31 -16.5s20 -11.5 30 -16.5s20.667 -7.5 32 -7.5s21.666 3.66699 30.999 11s17.666 17.333 24.999 30l29 -25c-9.33301 -22 -23 -39 -41 -51
s-36.333 -18 -55 -18c-12.667 0 -24.334 2.33301 -35.001 7s-21 10 -31 16s-20 11.333 -30 16s-20.667 7 -32 7s-22.333 -3.66699 -33 -11s-20.334 -16.666 -29.001 -27.999z" />
    <glyph glyph-name="ograve" unicode="&#xf2;" horiz-adv-x="488" 
d="M244 -9c-67.333 0 -118.333 23.668 -153 71.001s-52 116.666 -52 207.999c0 92 17.333 161.667 52 209s85.667 71 153 71s118.333 -23.667 153 -71s52 -117 52 -209s-17.333 -161.5 -52 -208.5s-85.667 -70.5 -153 -70.5zM244 53.001c45.333 0 78.5 17.167 99.5 51.5
s31.5 89.5 31.5 165.5c0 76.667 -10.5 132.334 -31.5 167.001s-54.167 52 -99.5 52s-78.5 -17.333 -99.5 -52s-31.5 -90.334 -31.5 -167.001c0 -76 10.5 -131.167 31.5 -165.5s54.167 -51.5 99.5 -51.5zM215 610.001l-96 190h76l71 -180z" />
    <glyph glyph-name="oacute" unicode="&#xf3;" horiz-adv-x="488" 
d="M209 617l73 183h75l-95 -190zM244 -9c-67.333 0 -118.333 23.668 -153 71.001s-52 116.666 -52 207.999c0 92 17.333 161.667 52 209s85.667 71 153 71s118.333 -23.667 153 -71s52 -117 52 -209s-17.333 -161.5 -52 -208.5s-85.667 -70.5 -153 -70.5zM244 53.001
c45.333 0 78.5 17.167 99.5 51.5s31.5 89.5 31.5 165.5c0 76.667 -10.5 132.334 -31.5 167.001s-54.167 52 -99.5 52s-78.5 -17.333 -99.5 -52s-31.5 -90.334 -31.5 -167.001c0 -76 10.5 -131.167 31.5 -165.5s54.167 -51.5 99.5 -51.5z" />
    <glyph glyph-name="ocircumflex" unicode="&#xf4;" horiz-adv-x="488" 
d="M105 694l134 72l133 -72v-61l-133 71l-134 -71v61zM244 -9c-67.333 0 -118.333 23.668 -153 71.001s-52 116.666 -52 207.999c0 92 17.333 161.667 52 209s85.667 71 153 71s118.333 -23.667 153 -71s52 -117 52 -209s-17.333 -161.5 -52 -208.5
s-85.667 -70.5 -153 -70.5zM244 53.001c45.333 0 78.5 17.167 99.5 51.5s31.5 89.5 31.5 165.5c0 76.667 -10.5 132.334 -31.5 167.001s-54.167 52 -99.5 52s-78.5 -17.333 -99.5 -52s-31.5 -90.334 -31.5 -167.001c0 -76 10.5 -131.167 31.5 -165.5
s54.167 -51.5 99.5 -51.5z" />
    <glyph glyph-name="otilde" unicode="&#xf5;" horiz-adv-x="488" 
d="M244 -9c-67.333 0 -118.333 23.668 -153 71.001s-52 116.666 -52 207.999c0 92 17.333 161.667 52 209s85.667 71 153 71s118.333 -23.667 153 -71s52 -117 52 -209s-17.333 -161.5 -52 -208.5s-85.667 -70.5 -153 -70.5zM244 53.001c45.333 0 78.5 17.167 99.5 51.5
s31.5 89.5 31.5 165.5c0 76.667 -10.5 132.334 -31.5 167.001s-54.167 52 -99.5 52s-78.5 -17.333 -99.5 -52s-31.5 -90.334 -31.5 -167.001c0 -76 10.5 -131.167 31.5 -165.5s54.167 -51.5 99.5 -51.5zM80 659.001c11.333 19.333 26.1699 35.332 44.5029 47.999
s36.5 19 54.5 19c12.667 0 24.334 -2.5 35.001 -7.5s21 -10.5 31 -16.5s20 -11.5 30 -16.5s20.667 -7.5 32 -7.5s21.666 3.66699 30.999 11s17.666 17.333 24.999 30l29 -25c-9.33301 -22 -23 -39 -41 -51s-36.333 -18 -55 -18c-12.667 0 -24.334 2.33301 -35.001 7
s-21 10 -31 16s-20 11.333 -30 16s-20.667 7 -32 7s-22.333 -3.66699 -33 -11s-20.334 -16.666 -29.001 -27.999z" />
    <glyph glyph-name="odieresis" unicode="&#xf6;" horiz-adv-x="488" 
d="M144 629c-29.333 0 -44 14.334 -44 43.001c0 28 14.667 42 44 42c13.333 0 24 -3.33301 32 -10s12 -17.334 12 -32.001s-4 -25.5 -12 -32.5s-18.667 -10.5 -32 -10.5zM327 629.001c-29.333 0 -44 14.334 -44 43.001c0 28 14.667 42 44 42
c13.333 0 23.666 -3.33301 30.999 -10s11 -17.334 11 -32.001s-3.66699 -25.5 -11 -32.5s-17.666 -10.5 -30.999 -10.5zM244 -8.99805c-67.333 0 -118.333 23.668 -153 71.001s-52 116.666 -52 207.999c0 92 17.333 161.667 52 209s85.667 71 153 71
s118.333 -23.667 153 -71s52 -117 52 -209s-17.333 -161.5 -52 -208.5s-85.667 -70.5 -153 -70.5zM244 53.0029c45.333 0 78.5 17.167 99.5 51.5s31.5 89.5 31.5 165.5c0 76.667 -10.5 132.334 -31.5 167.001s-54.167 52 -99.5 52s-78.5 -17.333 -99.5 -52
s-31.5 -90.334 -31.5 -167.001c0 -76 10.5 -131.167 31.5 -165.5s54.167 -51.5 99.5 -51.5z" />
    <glyph glyph-name="divide" unicode="&#xf7;" horiz-adv-x="496" 
d="M251 165c-13.333 0 -24 3.66602 -32 10.999s-12 18.333 -12 33s4 25.834 12 33.501s18.667 11.5 32 11.5s24.166 -4 32.499 -12s12.5 -19 12.5 -33c0 -14.667 -4.16699 -25.667 -12.5 -33s-19.166 -11 -32.499 -11zM53 398.999h391v-58h-391v58zM251 479.999
c-13.333 0 -24 3.83301 -32 11.5s-12 18.5 -12 32.5c0 14.667 4 26 12 34s18.667 12 32 12s24.166 -4.16699 32.499 -12.5s12.5 -19.5 12.5 -33.5s-4.16699 -24.833 -12.5 -32.5s-19.166 -11.5 -32.499 -11.5z" />
    <glyph glyph-name="oslash" unicode="&#xf8;" horiz-adv-x="492" 
d="M81 80c-26.667 47.333 -40.001 110.667 -40.001 190c0 92 17.333 161.667 52 209s85.667 71 153 71c54.667 0 99.334 -16.667 134.001 -50l28 40h56l-55 -78c28 -46 42 -110 42 -192c0 -92 -17.333 -161.5 -52 -208.5s-85.667 -70.5 -153 -70.5
c-55.333 0 -100.333 16.667 -135 50l-29 -41h-58zM245.999 53.001c44.667 0 77.666 17.167 98.999 51.5s32 89.5 32 165.5c0 50.667 -5 92.667 -15 126l-211 -299c20.667 -29.333 52.334 -44 95.001 -44zM114.998 270.001c0 -51.333 4.33301 -92.332 13 -122.999l211 297
c-21.333 30 -52.333 45 -93 45c-46 0 -79.333 -17.333 -100 -52s-31 -90.334 -31 -167.001z" />
    <glyph glyph-name="ugrave" unicode="&#xf9;" horiz-adv-x="479" 
d="M185 -10c-43.333 0 -75.335 11.333 -96.002 34s-31 58.667 -31 108v408h73v-392c0 -34 5.33301 -57.667 16 -71s29.334 -20 56.001 -20c22 0 43.5 4.5 64.5 13.5s46.167 24.167 75.5 45.5v424h73v-540h-62l-6 57h-4c-34 -24 -63.167 -41.167 -87.5 -51.5
s-48.166 -15.5 -71.499 -15.5zM215.998 610l-96 190h76l71 -180z" />
    <glyph glyph-name="uacute" unicode="&#xfa;" horiz-adv-x="479" 
d="M211 617l73 183h75l-95 -190zM185 -10c-43.333 0 -75.335 11.333 -96.002 34s-31 58.667 -31 108v408h73v-392c0 -34 5.33301 -57.667 16 -71s29.334 -20 56.001 -20c22 0 43.5 4.5 64.5 13.5s46.167 24.167 75.5 45.5v424h73v-540h-62l-6 57h-4
c-34 -24 -63.167 -41.167 -87.5 -51.5s-48.166 -15.5 -71.499 -15.5z" />
    <glyph glyph-name="ucircumflex" unicode="&#xfb;" horiz-adv-x="479" 
d="M106 694l134 72l133 -72v-61l-133 71l-134 -71v61zM185 -10c-43.333 0 -75.335 11.333 -96.002 34s-31 58.667 -31 108v408h73v-392c0 -34 5.33301 -57.667 16 -71s29.334 -20 56.001 -20c22 0 43.5 4.5 64.5 13.5s46.167 24.167 75.5 45.5v424h73v-540h-62l-6 57h-4
c-34 -24 -63.167 -41.167 -87.5 -51.5s-48.166 -15.5 -71.499 -15.5z" />
    <glyph glyph-name="udieresis" unicode="&#xfc;" horiz-adv-x="479" 
d="M145 629c-29.333 0 -44 14.334 -44 43.001c0 28 14.667 42 44 42c13.333 0 24 -3.33301 32 -10s12 -17.334 12 -32.001s-4 -25.5 -12 -32.5s-18.667 -10.5 -32 -10.5zM328 629.001c-29.333 0 -44 14.334 -44 43.001c0 28 14.667 42 44 42
c13.333 0 23.666 -3.33301 30.999 -10s11 -17.334 11 -32.001s-3.66699 -25.5 -11 -32.5s-17.666 -10.5 -30.999 -10.5zM185 -9.99805c-43.333 0 -75.335 11.333 -96.002 34s-31 58.667 -31 108v408h73v-392c0 -34 5.33301 -57.667 16 -71s29.334 -20 56.001 -20
c22 0 43.5 4.5 64.5 13.5s46.167 24.167 75.5 45.5v424h73v-540h-62l-6 57h-4c-34 -24 -63.167 -41.167 -87.5 -51.5s-48.166 -15.5 -71.499 -15.5z" />
    <glyph glyph-name="yacute" unicode="&#xfd;" horiz-adv-x="462" 
d="M126 -205v5l68 201l-183 534v5h74l131 -398l13 -61h5l14 61l130 398h74v-5l-253 -755zM211 617l73 183h75l-95 -190z" />
    <glyph glyph-name="thorn" unicode="&#xfe;" horiz-adv-x="484" 
d="M62 808l73.001 0.000976562v-321c17.333 20.667 38 36.167 62 46.5s49.333 15.5 76 15.5c57.333 0 100.333 -22.333 129 -67s43 -111.334 43 -200.001c0 -95.333 -19.833 -167.833 -59.5 -217.5s-96.834 -74.5 -171.501 -74.5c-24.667 0 -51 3 -79 9v-219h-73v1028z
M216.001 46.001c52 0 90.667 18.667 116 56s38 95.333 38 174c0 74 -9.66699 128.333 -29 163s-49 52 -89 52c-14.667 0 -29 -2.66699 -43 -8s-26.5 -12.833 -37.5 -22.5s-19.833 -21.5 -26.5 -35.5s-10 -30 -10 -48v-320c32.667 -7.33301 59.667 -11 81 -11z" />
    <glyph glyph-name="ydieresis" unicode="&#xff;" horiz-adv-x="462" 
d="M126 -205v5l68 201l-183 534v5h74l131 -398l13 -61h5l14 61l130 398h74v-5l-253 -755zM146 629c-29.333 0 -44 14.334 -44 43.001c0 28 14.667 42 44 42c13.333 0 24 -3.33301 32 -10s12 -17.334 12 -32.001s-4 -25.5 -12 -32.5s-18.667 -10.5 -32 -10.5zM329 629.001
c-29.333 0 -44 14.334 -44 43.001c0 28 14.667 42 44 42c13.333 0 23.666 -3.33301 30.999 -10s11 -17.334 11 -32.001s-3.66699 -25.5 -11 -32.5s-17.666 -10.5 -30.999 -10.5z" />
    <glyph glyph-name="Amacron" unicode="&#x100;" horiz-adv-x="551" 
d="M7 6l215 734h105l217 -734v-6h-70l-69 227h-260l-68 -227h-70v6zM389 290l-81 272l-30 110h-7l-29 -110l-81 -272h228zM147 897h242v-57h-242v57z" />
    <glyph glyph-name="amacron" unicode="&#x101;" horiz-adv-x="444" 
d="M157 -5c-40 0 -71.332 12.501 -93.999 37.501s-34 59.5 -34 103.5c0 99.333 62.667 154 188 164l96 7v58c0 45.333 -8.5 77.166 -25.5 95.499s-45.167 27.5 -84.5 27.5c-16.667 0 -37.334 -1.5 -62.001 -4.5s-47 -7.16699 -67 -12.5l-6 60
c25.333 5.33301 50.833 9.5 76.5 12.5s49.167 4.5 70.5 4.5c58.667 0 101.667 -13.667 129 -41s41 -70 41 -128v-379h-61l-7 65h-6c-21.333 -17.333 -44.833 -33.333 -70.5 -48s-53.5 -22 -83.5 -22zM182.001 55.001c11.333 0 23.001 2.16797 35.001 6.50098
s23.833 9.66602 35.5 15.999s22.667 13 33 20s19.5 12.833 27.5 17.5v140l-81 -7c-46.667 -4 -79.834 -14.333 -99.501 -31s-29.5 -41.667 -29.5 -75c0 -28 6.83301 -49.5 20.5 -64.5s33.167 -22.5 58.5 -22.5zM99.002 698.002h258v-54h-258v54z" />
    <glyph glyph-name="Abreve" unicode="&#x102;" horiz-adv-x="551" 
d="M7 6l215 734h105l217 -734v-6h-70l-69 227h-260l-68 -227h-70v6zM389 290l-81 272l-30 110h-7l-29 -110l-81 -272h228zM277 809c-47.333 0 -84 12.833 -110 38.5s-39 61.5 -39 107.5h57c0 -65.333 30.667 -98 92 -98c29.333 0 51.833 8.16699 67.5 24.5
s23.5 40.833 23.5 73.5h57c0 -45.333 -13 -81 -39 -107s-62.333 -39 -109 -39z" />
    <glyph glyph-name="abreve" unicode="&#x103;" horiz-adv-x="444" 
d="M157 -5c-40 0 -71.332 12.501 -93.999 37.501s-34 59.5 -34 103.5c0 99.333 62.667 154 188 164l96 7v58c0 45.333 -8.5 77.166 -25.5 95.499s-45.167 27.5 -84.5 27.5c-16.667 0 -37.334 -1.5 -62.001 -4.5s-47 -7.16699 -67 -12.5l-6 60
c25.333 5.33301 50.833 9.5 76.5 12.5s49.167 4.5 70.5 4.5c58.667 0 101.667 -13.667 129 -41s41 -70 41 -128v-379h-61l-7 65h-6c-21.333 -17.333 -44.833 -33.333 -70.5 -48s-53.5 -22 -83.5 -22zM182.001 55.001c11.333 0 23.001 2.16797 35.001 6.50098
s23.833 9.66602 35.5 15.999s22.667 13 33 20s19.5 12.833 27.5 17.5v140l-81 -7c-46.667 -4 -79.834 -14.333 -99.501 -31s-29.5 -41.667 -29.5 -75c0 -28 6.83301 -49.5 20.5 -64.5s33.167 -22.5 58.5 -22.5zM226.002 619.002c-46 0 -81.833 12.167 -107.5 36.5
s-39.167 59.166 -40.5 104.499h57c0 -29.333 8 -52 24 -68s38.333 -24 67 -24s51 8 67 24s24 38.667 24 68h57c-0.666992 -45.333 -14 -80.166 -40 -104.499s-62 -36.5 -108 -36.5z" />
    <glyph glyph-name="Aogonek" unicode="&#x104;" horiz-adv-x="551" 
d="M487 -220c-30 0 -53 7.5 -69 22.5s-24 36.833 -24 65.5c0 50 29.667 94 89 132h-9l-69 227h-260l-68 -227h-70v6l215 734h105l217 -734v-22c-32 -13.333 -55.667 -29.833 -71 -49.5s-23 -40.167 -23 -61.5c0 -27.333 15 -41 45 -41c16.667 0 33 3.66699 49 11v-51
c-19.333 -8 -38.333 -12 -57 -12zM389 290l-81 272l-30 110h-7l-29 -110l-81 -272h228z" />
    <glyph glyph-name="aogonek" unicode="&#x105;" horiz-adv-x="444" 
d="M328 -220c-30 0 -52.999 7.50098 -68.999 22.501s-24 36.833 -24 65.5c0 50 29.667 94 89 132l-7 65h-6c-21.333 -17.333 -44.833 -33.333 -70.5 -48s-53.5 -22 -83.5 -22c-40 0 -71.333 12.5 -94 37.5s-34 59.5 -34 103.5c0 99.333 62.667 154 188 164l96 7v58
c0 45.333 -8.5 77.166 -25.5 95.499s-45.167 27.5 -84.5 27.5c-16.667 0 -37.334 -1.5 -62.001 -4.5s-47 -7.16699 -67 -12.5l-6 60c25.333 5.33301 50.833 9.5 76.5 12.5s49.167 4.5 70.5 4.5c58.667 0 101.667 -13.667 129 -41s41 -70 41 -128v-395
c-32 -13.333 -55.667 -29.833 -71 -49.5s-23 -40.167 -23 -61.5c0 -27.333 15 -41 45 -41c16.667 0 33 3.66699 49 11v-51c-19.333 -8 -38.333 -12 -57 -12zM182.001 55.001c11.333 0 23.001 2.16797 35.001 6.50098s23.833 9.66602 35.5 15.999s22.667 13 33 20
s19.5 12.833 27.5 17.5v140l-81 -7c-46.667 -4 -79.834 -14.333 -99.501 -31s-29.5 -41.667 -29.5 -75c0 -28 6.83301 -49.5 20.5 -64.5s33.167 -22.5 58.5 -22.5z" />
    <glyph glyph-name="Cacute" unicode="&#x106;" horiz-adv-x="489" 
d="M348 -10c-106 0.666992 -183.327 31.1689 -231.994 91.502s-73 156.166 -73 287.499c0 68 5.83301 125.833 17.5 173.5s29.667 86.834 54 117.501s55.666 53 93.999 67s84.166 21 137.499 21c32.667 0 69.667 -3 111 -9v-64c-13.333 2.66699 -29 4.66699 -47 6
s-35.667 2 -53 2c-43.333 0 -80 -5.33301 -110 -16s-54.333 -28.334 -73 -53.001s-32.334 -57 -41.001 -97s-13 -89.333 -13 -148c0 -56.667 4.5 -104.834 13.5 -144.501s22.833 -72 41.5 -97s42.667 -43.167 72 -54.5s64.666 -17 105.999 -17
c11.333 0 27.166 0.666992 47.499 2s39.166 3.33301 56.499 6v-62c-15.333 -4 -31.5 -7 -48.5 -9s-37.167 -3 -60.5 -3zM265.006 790.002l75 139h77l-94 -143z" />
    <glyph glyph-name="cacute" unicode="&#x107;" horiz-adv-x="381" 
d="M188 617l73 183h75l-95 -190zM257 -10c-73.333 0 -128.003 22.832 -164.003 68.499s-54 116.167 -54 211.5c0 186.667 72.667 280 218 280c23.333 0 53.333 -4.33301 90 -13v-62c-16 4 -30.833 6.83301 -44.5 8.5s-27.167 2.5 -40.5 2.5
c-51.333 0 -88.666 -17.167 -111.999 -51.5s-35 -89.166 -35 -164.499c0 -74.667 11.833 -129.5 35.5 -164.5s60.834 -52.5 111.501 -52.5c20.667 0 49 4 85 12v-61c-13.333 -4 -28.166 -7.33301 -44.499 -10s-31.5 -4 -45.5 -4z" />
    <glyph glyph-name="Ccircumflex" unicode="&#x108;" horiz-adv-x="489" 
d="M348 -10c-106 0.666992 -183.327 31.1689 -231.994 91.502s-73 156.166 -73 287.499c0 68 5.83301 125.833 17.5 173.5s29.667 86.834 54 117.501s55.666 53 93.999 67s84.166 21 137.499 21c32.667 0 69.667 -3 111 -9v-64c-13.333 2.66699 -29 4.66699 -47 6
s-35.667 2 -53 2c-43.333 0 -80 -5.33301 -110 -16s-54.333 -28.334 -73 -53.001s-32.334 -57 -41.001 -97s-13 -89.333 -13 -148c0 -56.667 4.5 -104.834 13.5 -144.501s22.833 -72 41.5 -97s42.667 -43.167 72 -54.5s64.666 -17 105.999 -17
c11.333 0 27.166 0.666992 47.499 2s39.166 3.33301 56.499 6v-62c-15.333 -4 -31.5 -7 -48.5 -9s-37.167 -3 -60.5 -3zM165.006 872.002l133 72l134 -72v-61l-134 72l-133 -72v61z" />
    <glyph glyph-name="ccircumflex" unicode="&#x109;" horiz-adv-x="381" 
d="M83 694l134 72l133 -72v-61l-133 71l-134 -71v61zM257 -10c-73.333 0 -128.003 22.832 -164.003 68.499s-54 116.167 -54 211.5c0 186.667 72.667 280 218 280c23.333 0 53.333 -4.33301 90 -13v-62c-16 4 -30.833 6.83301 -44.5 8.5s-27.167 2.5 -40.5 2.5
c-51.333 0 -88.666 -17.167 -111.999 -51.5s-35 -89.166 -35 -164.499c0 -74.667 11.833 -129.5 35.5 -164.5s60.834 -52.5 111.501 -52.5c20.667 0 49 4 85 12v-61c-13.333 -4 -28.166 -7.33301 -44.499 -10s-31.5 -4 -45.5 -4z" />
    <glyph glyph-name="Cdotaccent" unicode="&#x10a;" horiz-adv-x="489" 
d="M297 799c-31.333 0 -47 15.334 -47 46.001c0 17.333 4 29.666 12 36.999s19.667 11 35 11c32.667 0 49 -16 49 -48c0 -30.667 -16.333 -46 -49 -46zM348 -9.99902c-106 0.666992 -183.327 31.1689 -231.994 91.502s-73 156.166 -73 287.499
c0 68 5.83301 125.833 17.5 173.5s29.667 86.834 54 117.501s55.666 53 93.999 67s84.166 21 137.499 21c32.667 0 69.667 -3 111 -9v-64c-13.333 2.66699 -29 4.66699 -47 6s-35.667 2 -53 2c-43.333 0 -80 -5.33301 -110 -16s-54.333 -28.334 -73 -53.001
s-32.334 -57 -41.001 -97s-13 -89.333 -13 -148c0 -56.667 4.5 -104.834 13.5 -144.501s22.833 -72 41.5 -97s42.667 -43.167 72 -54.5s64.666 -17 105.999 -17c11.333 0 27.166 0.666992 47.499 2s39.166 3.33301 56.499 6v-62c-15.333 -4 -31.5 -7 -48.5 -9
s-37.167 -3 -60.5 -3z" />
    <glyph glyph-name="cdotaccent" unicode="&#x10b;" horiz-adv-x="381" 
d="M257 -10c-73.333 0 -128.003 22.832 -164.003 68.499s-54 116.167 -54 211.5c0 186.667 72.667 280 218 280c23.333 0 53.333 -4.33301 90 -13v-62c-16 4 -30.833 6.83301 -44.5 8.5s-27.167 2.5 -40.5 2.5c-51.333 0 -88.666 -17.167 -111.999 -51.5
s-35 -89.166 -35 -164.499c0 -74.667 11.833 -129.5 35.5 -164.5s60.834 -52.5 111.501 -52.5c20.667 0 49 4 85 12v-61c-13.333 -4 -28.166 -7.33301 -44.499 -10s-31.5 -4 -45.5 -4zM213.997 624.999c-15.333 0 -27.166 3.83301 -35.499 11.5s-12.5 19.5 -12.5 35.5
c0 16.667 4.16699 28.667 12.5 36s20.166 11 35.499 11c14.667 0 26.334 -3.66699 35.001 -11s13 -19.333 13 -36s-4.33301 -28.667 -13 -36s-20.334 -11 -35.001 -11z" />
    <glyph glyph-name="Ccaron" unicode="&#x10c;" horiz-adv-x="489" 
d="M348 -10c-106 0.666992 -183.327 31.1689 -231.994 91.502s-73 156.166 -73 287.499c0 68 5.83301 125.833 17.5 173.5s29.667 86.834 54 117.501s55.666 53 93.999 67s84.166 21 137.499 21c32.667 0 69.667 -3 111 -9v-64c-13.333 2.66699 -29 4.66699 -47 6
s-35.667 2 -53 2c-43.333 0 -80 -5.33301 -110 -16s-54.333 -28.334 -73 -53.001s-32.334 -57 -41.001 -97s-13 -89.333 -13 -148c0 -56.667 4.5 -104.834 13.5 -144.501s22.833 -72 41.5 -97s42.667 -43.167 72 -54.5s64.666 -17 105.999 -17
c11.333 0 27.166 0.666992 47.499 2s39.166 3.33301 56.499 6v-62c-15.333 -4 -31.5 -7 -48.5 -9s-37.167 -3 -60.5 -3zM170.006 929.002l133 -72l134 72v-61l-134 -72l-133 72v61z" />
    <glyph glyph-name="ccaron" unicode="&#x10d;" horiz-adv-x="381" 
d="M85 776l134 -72l133 72v-61l-133 -72l-134 72v61zM257 -10c-73.333 0 -128.003 22.832 -164.003 68.499s-54 116.167 -54 211.5c0 186.667 72.667 280 218 280c23.333 0 53.333 -4.33301 90 -13v-62c-16 4 -30.833 6.83301 -44.5 8.5s-27.167 2.5 -40.5 2.5
c-51.333 0 -88.666 -17.167 -111.999 -51.5s-35 -89.166 -35 -164.499c0 -74.667 11.833 -129.5 35.5 -164.5s60.834 -52.5 111.501 -52.5c20.667 0 49 4 85 12v-61c-13.333 -4 -28.166 -7.33301 -44.499 -10s-31.5 -4 -45.5 -4z" />
    <glyph glyph-name="Dcaron" unicode="&#x10e;" horiz-adv-x="584" 
d="M136 929l133 -72l134 72v-61l-134 -72l-133 72v61zM198 -16c-19.333 0 -39 0.49707 -59 1.49707s-41.667 2.83301 -65 5.5v743c33.333 5.33301 62.333 9.33301 87 12s48 4 70 4c108 0 186.833 -30.667 236.5 -92s74.5 -157.666 74.5 -288.999
c0 -67.333 -6.66699 -125.166 -20 -173.499s-34 -88.166 -62 -119.499s-63.667 -54.5 -107 -69.5s-95 -22.5 -155 -22.5zM217 48.9971c84.667 0 147.168 25.501 187.501 76.501s60.5 132.167 60.5 243.5c0 56 -4.33301 104.167 -13 144.5s-22.167 73.166 -40.5 98.499
s-42 44 -71 56s-63.5 18 -103.5 18c-16 0 -31.333 -0.666992 -46 -2s-29.334 -3.33301 -44.001 -6v-624l38.5 -3.5c11 -1 21.5 -1.5 31.5 -1.5z" />
    <glyph glyph-name="dcaron" unicode="&#x10f;" horiz-adv-x="485" 
d="M479 808h63l-27 -228h-36v228zM214 -9c-59.333 0 -103.333 22.333 -132 67s-43 113.667 -43 207c0 91.333 19.5 161.5 58.5 210.5s94.833 73.5 167.5 73.5c12.667 0 25.167 -0.5 37.5 -1.5s27.833 -3.16699 46.5 -6.5v267h73v-808h-65l-7 54h-3
c-32 -42 -76.333 -63 -133 -63zM231 49c14.667 0 29.165 2.66895 43.498 8.00195s27 12.833 38 22.5s19.833 21.5 26.5 35.5s10 30 10 48v319c-18.667 4 -34.167 6.83301 -46.5 8.5s-25.166 2.5 -38.499 2.5c-49.333 0 -86.666 -18.333 -111.999 -55
s-38 -92.334 -38 -167.001s10 -130.334 30 -167.001s49 -55 87 -55z" />
    <glyph glyph-name="Dcroat" unicode="&#x110;" horiz-adv-x="597" 
d="M-1 400l88 -0.00292969v334c33.333 5.33301 62.333 9.33301 87 12s48 4 70 4c108 0 186.833 -30.667 236.5 -92s74.5 -157.666 74.5 -288.999c0 -67.333 -6.66699 -125.166 -20 -173.499s-34 -88.166 -62 -119.499s-63.667 -54.5 -107 -69.5s-95 -22.5 -155 -22.5
c-19.333 0 -39 0.5 -59 1.5s-41.667 2.83301 -65 5.5v348h-88v61zM230 48.9971c84.667 0 147.168 25.501 187.501 76.501s60.5 132.167 60.5 243.5c0 56 -4.33301 104.167 -13 144.5s-22.167 73.166 -40.5 98.499s-42 44 -71 56s-63.5 18 -103.5 18
c-16 0 -31.333 -0.666992 -46 -2s-29.334 -3.33301 -44.001 -6v-278h140v-61h-140v-285l38.5 -3.5c11 -1 21.5 -1.5 31.5 -1.5z" />
    <glyph glyph-name="dcroat" unicode="&#x111;" horiz-adv-x="485" 
d="M200 695h149v113h73v-113h67v-46h-67v-649h-65l-7 54h-3c-32 -42 -76.333 -63 -133 -63c-59.333 0 -103.333 22.333 -132 67s-43 113.667 -43 207c0 91.333 19.5 161.5 58.5 210.5s94.833 73.5 167.5 73.5c12.667 0 25.167 -0.5 37.5 -1.5s27.833 -3.16699 46.5 -6.5v108
h-149v46zM231 49c14.667 0 29.165 2.66895 43.498 8.00195s27 12.833 38 22.5s19.833 21.5 26.5 35.5s10 30 10 48v319c-18.667 4 -34.167 6.83301 -46.5 8.5s-25.166 2.5 -38.499 2.5c-49.333 0 -86.666 -18.333 -111.999 -55s-38 -92.334 -38 -167.001
s10 -130.334 30 -167.001s49 -55 87 -55z" />
    <glyph glyph-name="Emacron" unicode="&#x112;" horiz-adv-x="504" 
d="M137 897h242v-57h-242v57zM74 740h386v-66h-313v-267h280v-65h-280v-276h322v-66h-395v740z" />
    <glyph glyph-name="emacron" unicode="&#x113;" horiz-adv-x="446" 
d="M248 -9c-67.333 0 -119 23.168 -155 69.501s-54 112.833 -54 199.5c0 94.667 17.333 166.5 52 215.5s86 73.5 154 73.5c54.667 0 96 -19.667 124 -59s42 -97.333 42 -174c0 -16.667 -0.333008 -30.334 -1 -41.001s-1.66699 -21.667 -3 -33h-294
c2.66699 -64.667 15.334 -112.5 38.001 -143.5s56 -46.5 100 -46.5c21.333 0 42.666 2.33301 63.999 7s44.333 12.667 69 24l5 -61c-19.333 -9.33301 -41.5 -16.833 -66.5 -22.5s-49.833 -8.5 -74.5 -8.5zM243 489.001c-39.333 0 -69.833 -16 -91.5 -48
s-34.167 -79.333 -37.5 -142h228c0 67.333 -8 115.833 -24 145.5s-41 44.5 -75 44.5zM95 698.001h258v-54h-258v54z" />
    <glyph glyph-name="Ebreve" unicode="&#x114;" horiz-adv-x="504" 
d="M268 809c-47.333 0 -84 12.833 -110 38.5s-39 61.5 -39 107.5h57c0 -65.333 30.667 -98 92 -98c29.333 0 51.833 8.16699 67.5 24.5s23.5 40.833 23.5 73.5h57c0 -45.333 -13 -81 -39 -107s-62.333 -39 -109 -39zM74 740h386v-66h-313v-267h280v-65h-280v-276h322v-66
h-395v740z" />
    <glyph glyph-name="ebreve" unicode="&#x115;" horiz-adv-x="446" 
d="M248 -9c-67.333 0 -119 23.168 -155 69.501s-54 112.833 -54 199.5c0 94.667 17.333 166.5 52 215.5s86 73.5 154 73.5c54.667 0 96 -19.667 124 -59s42 -97.333 42 -174c0 -16.667 -0.333008 -30.334 -1 -41.001s-1.66699 -21.667 -3 -33h-294
c2.66699 -64.667 15.334 -112.5 38.001 -143.5s56 -46.5 100 -46.5c21.333 0 42.666 2.33301 63.999 7s44.333 12.667 69 24l5 -61c-19.333 -9.33301 -41.5 -16.833 -66.5 -22.5s-49.833 -8.5 -74.5 -8.5zM243 489.001c-39.333 0 -69.833 -16 -91.5 -48
s-34.167 -79.333 -37.5 -142h228c0 67.333 -8 115.833 -24 145.5s-41 44.5 -75 44.5zM228 619.001c-46 0 -81.833 12.167 -107.5 36.5s-39.167 59.166 -40.5 104.499h57c0 -29.333 8 -52 24 -68s38.333 -24 67 -24s51 8 67 24s24 38.667 24 68h57
c-0.666992 -45.333 -14 -80.166 -40 -104.499s-62 -36.5 -108 -36.5z" />
    <glyph glyph-name="Edotaccent" unicode="&#x116;" horiz-adv-x="504" 
d="M265 799c-31.333 0 -47 15.334 -47 46.001c0 17.333 4 29.666 12 36.999s19.667 11 35 11c32.667 0 49 -16 49 -48c0 -30.667 -16.333 -46 -49 -46zM74 740.001h386v-66h-313v-267h280v-65h-280v-276h322v-66h-395v740z" />
    <glyph glyph-name="edotaccent" unicode="&#x117;" horiz-adv-x="446" 
d="M248 -9c-67.333 0 -119 23.168 -155 69.501s-54 112.833 -54 199.5c0 94.667 17.333 166.5 52 215.5s86 73.5 154 73.5c54.667 0 96 -19.667 124 -59s42 -97.333 42 -174c0 -16.667 -0.333008 -30.334 -1 -41.001s-1.66699 -21.667 -3 -33h-294
c2.66699 -64.667 15.334 -112.5 38.001 -143.5s56 -46.5 100 -46.5c21.333 0 42.666 2.33301 63.999 7s44.333 12.667 69 24l5 -61c-19.333 -9.33301 -41.5 -16.833 -66.5 -22.5s-49.833 -8.5 -74.5 -8.5zM243 489.001c-39.333 0 -69.833 -16 -91.5 -48
s-34.167 -79.333 -37.5 -142h228c0 67.333 -8 115.833 -24 145.5s-41 44.5 -75 44.5zM226 625.001c-15.333 0 -27.166 3.83301 -35.499 11.5s-12.5 19.5 -12.5 35.5c0 16.667 4.16699 28.667 12.5 36s20.166 11 35.499 11c14.667 0 26.334 -3.66699 35.001 -11
s13 -19.333 13 -36s-4.33301 -28.667 -13 -36s-20.334 -11 -35.001 -11z" />
    <glyph glyph-name="Eogonek" unicode="&#x118;" horiz-adv-x="504" 
d="M74 740h386v-66h-313v-267h280v-65h-280v-276h322v-82c-32 -13.333 -55.667 -29.833 -71 -49.5s-23 -40.167 -23 -61.5c0 -27.333 15 -41 45 -41c16.667 0 33 3.66699 49 11v-51c-19.333 -8 -38.333 -12 -57 -12c-30 0 -53 7.5 -69 22.5s-24 36.833 -24 65.5
c0 50 29.667 94 89 132h-334v740z" />
    <glyph glyph-name="eogonek" unicode="&#x119;" horiz-adv-x="446" 
d="M248 -9c-67.333 0 -119 23.168 -155 69.501s-54 112.833 -54 199.5c0 94.667 17.333 166.5 52 215.5s86 73.5 154 73.5c54.667 0 96 -19.667 124 -59s42 -97.333 42 -174c0 -16.667 -0.333008 -30.334 -1 -41.001s-1.66699 -21.667 -3 -33h-294
c2.66699 -64.667 15.334 -112.5 38.001 -143.5s56 -46.5 100 -46.5c21.333 0 42.666 2.33301 63.999 7s44.333 12.667 69 24l5 -77c-32 -13.333 -55.667 -29.833 -71 -49.5s-23 -40.167 -23 -61.5c0 -27.333 15 -41 45 -41c16.667 0 33 3.66699 49 11v-51
c-19.333 -8 -38.333 -12 -57 -12c-30 0 -53 7.5 -69 22.5s-24 36.833 -24 65.5c0 38 17 72.667 51 104c-14 -2 -28 -3 -42 -3zM243 489.001c-39.333 0 -69.833 -16 -91.5 -48s-34.167 -79.333 -37.5 -142h228c0 67.333 -8 115.833 -24 145.5s-41 44.5 -75 44.5z" />
    <glyph glyph-name="Ecaron" unicode="&#x11a;" horiz-adv-x="504" 
d="M138 929l133 -72l134 72v-61l-134 -72l-133 72v61zM74 740h386v-66h-313v-267h280v-65h-280v-276h322v-66h-395v740z" />
    <glyph glyph-name="ecaron" unicode="&#x11b;" horiz-adv-x="446" 
d="M95 776l134 -72l133 72v-61l-133 -72l-134 72v61zM248 -9c-67.333 0 -119 23.168 -155 69.501s-54 112.833 -54 199.5c0 94.667 17.333 166.5 52 215.5s86 73.5 154 73.5c54.667 0 96 -19.667 124 -59s42 -97.333 42 -174c0 -16.667 -0.333008 -30.334 -1 -41.001
s-1.66699 -21.667 -3 -33h-294c2.66699 -64.667 15.334 -112.5 38.001 -143.5s56 -46.5 100 -46.5c21.333 0 42.666 2.33301 63.999 7s44.333 12.667 69 24l5 -61c-19.333 -9.33301 -41.5 -16.833 -66.5 -22.5s-49.833 -8.5 -74.5 -8.5zM243 489.001
c-39.333 0 -69.833 -16 -91.5 -48s-34.167 -79.333 -37.5 -142h228c0 67.333 -8 115.833 -24 145.5s-41 44.5 -75 44.5z" />
    <glyph glyph-name="Gcircumflex" unicode="&#x11c;" horiz-adv-x="555" 
d="M348 -10c-53.333 0.666992 -99.165 8.49805 -137.498 23.498s-70 37.833 -95 68.5s-43.333 69.834 -55 117.501s-17.5 104.167 -17.5 169.5c0 66.667 6 124 18 172s30.833 87.333 56.5 118s58.334 53.167 98.001 67.5s87.5 21.5 143.5 21.5
c17.333 0 39.166 -1.33301 65.499 -4s51.5 -6.66699 75.5 -12v-64c-50 10 -94.667 15 -134 15c-45.333 0 -83.5 -5.5 -114.5 -16.5s-56.333 -29 -76 -54s-33.834 -57.5 -42.501 -97.5s-13 -88.667 -13 -146c0 -56 4.33301 -103.667 13 -143s22.5 -71.666 41.5 -96.999
s43.167 -43.833 72.5 -55.5s64.666 -17.5 105.999 -17.5c9.33301 0 21 0.5 35 1.5s28.667 2.16699 44 3.5v315h69v-372c-32.667 -5.33301 -60.5 -9 -83.5 -11s-46.167 -3 -69.5 -3zM197.001 871.998l133 72l134 -72v-61l-134 72l-133 -72v61z" />
    <glyph glyph-name="gcircumflex" unicode="&#x11d;" horiz-adv-x="484" 
d="M125 694l134 72l133 -72v-61l-133 71l-134 -71v61zM215 -220c-45.333 0 -89.333 7.66602 -132 22.999l6 61c22.667 -8 43.5 -13.833 62.5 -17.5s38.5 -5.5 58.5 -5.5c50 0 85.667 15.167 107 45.5s32.666 80.833 33.999 151.5v22h-4c-32 -41.333 -75.667 -62 -131 -62
c-60 0 -104.5 21.833 -133.5 65.5s-43.5 110.834 -43.5 201.501c0 91.333 19.5 161.5 58.5 210.5s94.833 73.5 167.5 73.5c28 0 54 -1.83301 78 -5.5s50.333 -9.5 79 -17.5v-463c0 -98 -16.667 -169.667 -50 -215s-85.666 -68 -156.999 -68zM231 53.999
c14.667 0 29.167 2.5 43.5 7.5s27 12.333 38 22s19.833 21.167 26.5 34.5s10 28.333 10 45v319c-19.333 4 -35 6.83301 -47 8.5s-24.667 2.5 -38 2.5c-99.333 0 -149 -74 -149 -222c0 -144.667 38.667 -217 116 -217z" />
    <glyph glyph-name="Gbreve" unicode="&#x11e;" horiz-adv-x="555" 
d="M332 809c-47.333 0 -84 12.833 -110 38.5s-39 61.5 -39 107.5h57c0 -65.333 30.667 -98 92 -98c29.333 0 51.833 8.16699 67.5 24.5s23.5 40.833 23.5 73.5h57c0 -45.333 -13 -81 -39 -107s-62.333 -39 -109 -39zM348 -10
c-53.333 0.666992 -99.165 8.49805 -137.498 23.498s-70 37.833 -95 68.5s-43.333 69.834 -55 117.501s-17.5 104.167 -17.5 169.5c0 66.667 6 124 18 172s30.833 87.333 56.5 118s58.334 53.167 98.001 67.5s87.5 21.5 143.5 21.5c17.333 0 39.166 -1.33301 65.499 -4
s51.5 -6.66699 75.5 -12v-64c-50 10 -94.667 15 -134 15c-45.333 0 -83.5 -5.5 -114.5 -16.5s-56.333 -29 -76 -54s-33.834 -57.5 -42.501 -97.5s-13 -88.667 -13 -146c0 -56 4.33301 -103.667 13 -143s22.5 -71.666 41.5 -96.999s43.167 -43.833 72.5 -55.5
s64.666 -17.5 105.999 -17.5c9.33301 0 21 0.5 35 1.5s28.667 2.16699 44 3.5v315h69v-372c-32.667 -5.33301 -60.5 -9 -83.5 -11s-46.167 -3 -69.5 -3z" />
    <glyph glyph-name="gbreve" unicode="&#x11f;" horiz-adv-x="484" 
d="M215 -220c-45.333 0 -89.333 7.66602 -132 22.999l6 61c22.667 -8 43.5 -13.833 62.5 -17.5s38.5 -5.5 58.5 -5.5c50 0 85.667 15.167 107 45.5s32.666 80.833 33.999 151.5v22h-4c-32 -41.333 -75.667 -62 -131 -62c-60 0 -104.5 21.833 -133.5 65.5
s-43.5 110.834 -43.5 201.501c0 91.333 19.5 161.5 58.5 210.5s94.833 73.5 167.5 73.5c28 0 54 -1.83301 78 -5.5s50.333 -9.5 79 -17.5v-463c0 -98 -16.667 -169.667 -50 -215s-85.666 -68 -156.999 -68zM231 53.999c14.667 0 29.167 2.5 43.5 7.5s27 12.333 38 22
s19.833 21.167 26.5 34.5s10 28.333 10 45v319c-19.333 4 -35 6.83301 -47 8.5s-24.667 2.5 -38 2.5c-99.333 0 -149 -74 -149 -222c0 -144.667 38.667 -217 116 -217zM255 618.999c-46 0 -81.833 12.167 -107.5 36.5s-39.167 59.166 -40.5 104.499h57
c0 -29.333 8 -52 24 -68s38.333 -24 67 -24s51 8 67 24s24 38.667 24 68h57c-0.666992 -45.333 -14 -80.166 -40 -104.499s-62 -36.5 -108 -36.5z" />
    <glyph glyph-name="Gdotaccent" unicode="&#x120;" horiz-adv-x="555" 
d="M329 799c-31.333 0 -47 15.334 -47 46.001c0 17.333 4 29.666 12 36.999s19.667 11 35 11c32.667 0 49 -16 49 -48c0 -30.667 -16.333 -46 -49 -46zM348 -9.99902c-53.333 0.666992 -99.165 8.49805 -137.498 23.498s-70 37.833 -95 68.5s-43.333 69.834 -55 117.501
s-17.5 104.167 -17.5 169.5c0 66.667 6 124 18 172s30.833 87.333 56.5 118s58.334 53.167 98.001 67.5s87.5 21.5 143.5 21.5c17.333 0 39.166 -1.33301 65.499 -4s51.5 -6.66699 75.5 -12v-64c-50 10 -94.667 15 -134 15c-45.333 0 -83.5 -5.5 -114.5 -16.5
s-56.333 -29 -76 -54s-33.834 -57.5 -42.501 -97.5s-13 -88.667 -13 -146c0 -56 4.33301 -103.667 13 -143s22.5 -71.666 41.5 -96.999s43.167 -43.833 72.5 -55.5s64.666 -17.5 105.999 -17.5c9.33301 0 21 0.5 35 1.5s28.667 2.16699 44 3.5v315h69v-372
c-32.667 -5.33301 -60.5 -9 -83.5 -11s-46.167 -3 -69.5 -3z" />
    <glyph glyph-name="gdotaccent" unicode="&#x121;" horiz-adv-x="484" 
d="M215 -220c-45.333 0 -89.333 7.66602 -132 22.999l6 61c22.667 -8 43.5 -13.833 62.5 -17.5s38.5 -5.5 58.5 -5.5c50 0 85.667 15.167 107 45.5s32.666 80.833 33.999 151.5v22h-4c-32 -41.333 -75.667 -62 -131 -62c-60 0 -104.5 21.833 -133.5 65.5
s-43.5 110.834 -43.5 201.501c0 91.333 19.5 161.5 58.5 210.5s94.833 73.5 167.5 73.5c28 0 54 -1.83301 78 -5.5s50.333 -9.5 79 -17.5v-463c0 -98 -16.667 -169.667 -50 -215s-85.666 -68 -156.999 -68zM231 53.999c14.667 0 29.167 2.5 43.5 7.5s27 12.333 38 22
s19.833 21.167 26.5 34.5s10 28.333 10 45v319c-19.333 4 -35 6.83301 -47 8.5s-24.667 2.5 -38 2.5c-99.333 0 -149 -74 -149 -222c0 -144.667 38.667 -217 116 -217zM257 624.999c-15.333 0 -27.166 3.83301 -35.499 11.5s-12.5 19.5 -12.5 35.5
c0 16.667 4.16699 28.667 12.5 36s20.166 11 35.499 11c14.667 0 26.334 -3.66699 35.001 -11s13 -19.333 13 -36s-4.33301 -28.667 -13 -36s-20.334 -11 -35.001 -11z" />
    <glyph glyph-name="Gcommaaccent" unicode="&#x122;" horiz-adv-x="555" 
d="M305 -67h75l-63 -153h-61zM348 -10c-53.333 0.666992 -99.165 8.49805 -137.498 23.498s-70 37.833 -95 68.5s-43.333 69.834 -55 117.501s-17.5 104.167 -17.5 169.5c0 66.667 6 124 18 172s30.833 87.333 56.5 118s58.334 53.167 98.001 67.5s87.5 21.5 143.5 21.5
c17.333 0 39.166 -1.33301 65.499 -4s51.5 -6.66699 75.5 -12v-64c-50 10 -94.667 15 -134 15c-45.333 0 -83.5 -5.5 -114.5 -16.5s-56.333 -29 -76 -54s-33.834 -57.5 -42.501 -97.5s-13 -88.667 -13 -146c0 -56 4.33301 -103.667 13 -143s22.5 -71.666 41.5 -96.999
s43.167 -43.833 72.5 -55.5s64.666 -17.5 105.999 -17.5c9.33301 0 21 0.5 35 1.5s28.667 2.16699 44 3.5v315h69v-372c-32.667 -5.33301 -60.5 -9 -83.5 -11s-46.167 -3 -69.5 -3z" />
    <glyph glyph-name="gcommaaccent" unicode="&#x123;" horiz-adv-x="484" 
d="M376 806l-49 -150h-70l62 150h57zM215 -220c-45.333 0 -89.333 7.66602 -132 22.999l6 61c22.667 -8 43.5 -13.833 62.5 -17.5s38.5 -5.5 58.5 -5.5c50 0 85.667 15.167 107 45.5s32.666 80.833 33.999 151.5v22h-4c-32 -41.333 -75.667 -62 -131 -62
c-60 0 -104.5 21.833 -133.5 65.5s-43.5 110.834 -43.5 201.501c0 91.333 19.5 161.5 58.5 210.5s94.833 73.5 167.5 73.5c28 0 54 -1.83301 78 -5.5s50.333 -9.5 79 -17.5v-463c0 -98 -16.667 -169.667 -50 -215s-85.666 -68 -156.999 -68zM231 53.999
c14.667 0 29.167 2.5 43.5 7.5s27 12.333 38 22s19.833 21.167 26.5 34.5s10 28.333 10 45v319c-19.333 4 -35 6.83301 -47 8.5s-24.667 2.5 -38 2.5c-99.333 0 -149 -74 -149 -222c0 -144.667 38.667 -217 116 -217z" />
    <glyph glyph-name="Hcircumflex" unicode="&#x124;" horiz-adv-x="623" 
d="M74 740h73v-329h329v329h74v-740h-74v344h-329v-344h-73v740zM169 872l133 72l134 -72v-61l-134 72l-133 -72v61z" />
    <glyph glyph-name="hcircumflex" unicode="&#x125;" horiz-adv-x="480" 
d="M121 880l134 72l133 -72v-61l-133 71l-134 -71v61zM62 808l73.001 0.000976562v-326c33.333 23.333 63.666 40.5 90.999 51.5s53.666 16.5 78.999 16.5c41.333 0 70.833 -11 88.5 -33s26.5 -58.333 26.5 -109v-408h-73v391c0 33.333 -5.33301 57.166 -16 71.499
s-27.667 21.5 -51 21.5c-43.333 0 -91.666 -18.667 -144.999 -56v-428h-73v808z" />
    <glyph glyph-name="Hbar" unicode="&#x126;" horiz-adv-x="656" 
d="M0 587h91v153h73v-153h329v153h74v-153h92v-40h-92v-547h-74v344h-329v-344h-73v547h-91v40zM493 411v136h-329v-136h329z" />
    <glyph glyph-name="hbar" unicode="&#x127;" horiz-adv-x="480" 
d="M-23 695l85.001 0.000976562v113h73v-113h132v-46h-132v-167c33.333 23.333 63.666 40.5 90.999 51.5s53.666 16.5 78.999 16.5c41.333 0 70.833 -11 88.5 -33s26.5 -58.333 26.5 -109v-408h-73v391c0 33.333 -5.33301 57.166 -16 71.499s-27.667 21.5 -51 21.5
c-43.333 0 -91.666 -18.667 -144.999 -56v-428h-73v649h-85v46z" />
    <glyph glyph-name="Itilde" unicode="&#x128;" horiz-adv-x="221" 
d="M74 740h73v-740h-73v740zM-40 846c12 19.333 27.165 35.833 45.498 49.5s36.5 20.5 54.5 20.5c12.667 0 24.334 -2.16699 35.001 -6.5s21 -9.33301 31 -15s20.167 -10.667 30.5 -15s21.166 -6.5 32.499 -6.5c10.667 0 20.834 3.5 30.501 10.5s18.5 16.833 26.5 29.5
l27 -20c-10 -23.333 -24 -41.333 -42 -54s-36.333 -19 -55 -19c-12.667 0 -24.334 2.16699 -35.001 6.5s-21 9 -31 14s-20 9.66699 -30 14s-20.667 6.5 -32 6.5s-22.666 -3.5 -33.999 -10.5s-21.666 -16.167 -30.999 -27.5z" />
    <glyph glyph-name="itilde" unicode="&#x129;" horiz-adv-x="201" 
d="M-53 659c11.333 19.333 26.1689 35.332 44.502 47.999s36.5 19 54.5 19c12.667 0 24.334 -2.5 35.001 -7.5s21 -10.5 31 -16.5s20.167 -11.5 30.5 -16.5s21.166 -7.5 32.499 -7.5c10.667 0 20.667 3.66699 30 11s18 17.333 26 30l28 -25c-9.33301 -22 -23 -39 -41 -51
s-36.333 -18 -55 -18c-12.667 0 -24.334 2.33301 -35.001 7s-21 10 -31 16s-20 11.333 -30 16s-20.667 7 -32 7s-22.333 -3.66699 -33 -11s-20.334 -16.666 -29.001 -27.999zM64.0029 539.999h73v-540h-73v540z" />
    <glyph glyph-name="Imacron" unicode="&#x12a;" horiz-adv-x="221" 
d="M74 740h73v-740h-73v740zM-16 897h242v-57h-242v57z" />
    <glyph glyph-name="imacron" unicode="&#x12b;" horiz-adv-x="201" 
d="M64 540h73v-540h-73v540zM-26 698h258v-54h-258v54z" />
    <glyph glyph-name="Ibreve" unicode="&#x12c;" horiz-adv-x="221" 
d="M74 740h73v-740h-73v740zM115 809c-47.333 0 -84 12.833 -110 38.5s-39 61.5 -39 107.5h57c0 -65.333 30.667 -98 92 -98c29.333 0 51.833 8.16699 67.5 24.5s23.5 40.833 23.5 73.5h57c0 -45.333 -13 -81 -39 -107s-62.333 -39 -109 -39z" />
    <glyph glyph-name="ibreve" unicode="&#x12d;" horiz-adv-x="201" 
d="M102 619c-46 0 -82 12.167 -108 36.5s-39.333 59.166 -40 104.499h57c0 -29.333 8 -52 24 -68s38.333 -24 67 -24s51 8 67 24s24 38.667 24 68h57c-1.33301 -45.333 -14.833 -80.166 -40.5 -104.499s-61.5 -36.5 -107.5 -36.5zM64 540h73v-540h-73v540z" />
    <glyph glyph-name="Iogonek" unicode="&#x12e;" horiz-adv-x="221" 
d="M74 740h73v-756c-32 -13.333 -55.667 -29.833 -71 -49.5s-23 -40.167 -23 -61.5c0 -27.333 15 -41 45 -41c16.667 0 33 3.66699 49 11v-51c-19.333 -8 -38.333 -12 -57 -12c-30 0 -53 7.5 -69 22.5s-24 36.833 -24 65.5c0 50 29.667 94 89 132h-12v740z" />
    <glyph glyph-name="iogonek" unicode="&#x12f;" horiz-adv-x="199" 
d="M63 540h73v-556c-32 -13.333 -55.667 -29.833 -71 -49.5s-23 -40.167 -23 -61.5c0 -27.333 15 -41 45 -41c16.667 0 33 3.66699 49 11v-51c-19.333 -8 -38.333 -12 -57 -12c-30 0 -53 7.5 -69 22.5s-24 36.833 -24 65.5c0 50 29.667 94 89 132h-12v540zM99 662
c-31.333 0 -47 16 -47 48c0 30.667 15.667 46 47 46c32.667 0 49 -15.333 49 -46c0 -32 -16.333 -48 -49 -48z" />
    <glyph glyph-name="Idotaccent" unicode="&#x130;" horiz-adv-x="221" 
d="M74 740h73v-740h-73v740zM112 799c-31.333 0 -47 15.334 -47 46.001c0 17.333 4 29.666 12 36.999s19.667 11 35 11c32.667 0 49 -16 49 -48c0 -30.667 -16.333 -46 -49 -46z" />
    <glyph glyph-name="dotlessi" unicode="&#x131;" horiz-adv-x="199" 
d="M63 540h73v-540h-73v540z" />
    <glyph glyph-name="IJ" unicode="&#x132;" horiz-adv-x="442" 
d="M74 740h73v-740h-73v740zM214 -159c16.667 36 30.335 67.834 41.002 95.501s19.167 54.334 25.5 80.001s10.666 51.667 12.999 78s3.5 56.166 3.5 89.499v556h73v-560c0 -32 -2 -62.833 -6 -92.5s-10.333 -59.334 -19 -89.001s-19.834 -59.667 -33.501 -90
s-30.167 -61.5 -49.5 -93.5z" />
    <glyph glyph-name="ij" unicode="&#x133;" horiz-adv-x="397" 
d="M99 662c-31.333 0 -47 16 -47 48c0 30.667 15.667 46 47 46c32.667 0 49 -15.333 49 -46c0 -32 -16.333 -48 -49 -48zM63 540h73v-540h-73v540zM298 662c-31.333 0 -47 16 -47 48c0 30.667 15.667 46 47 46c32.667 0 49 -15.333 49 -46c0 -32 -16.333 -48 -49 -48z
M194 -197c45.333 86 68 188.667 68 308v429h73v-453c0 -52 -8 -105.167 -24 -159.5s-38.333 -103.5 -67 -147.5z" />
    <glyph glyph-name="Jcircumflex" unicode="&#x134;" horiz-adv-x="221" 
d="M-7 -159c16.667 36 30.335 67.834 41.002 95.501s19.167 54.334 25.5 80.001s10.666 51.667 12.999 78s3.5 56.166 3.5 89.499v556h73v-560c0 -32 -2 -62.833 -6 -92.5s-10.333 -59.334 -19 -89.001s-19.834 -59.667 -33.501 -90s-30.167 -61.5 -49.5 -93.5z
M-22.999 872.001l133 72l134 -72v-61l-134 72l-133 -72v61z" />
    <glyph glyph-name="jcircumflex" unicode="&#x135;" horiz-adv-x="198" 
d="M-36 694l134 72l133 -72v-61l-133 71l-134 -71v61zM-7 -200c12.667 24.667 23.499 49.1689 32.499 73.502s16.333 49.5 22 75.5s9.83398 53.833 12.501 83.5s4 62.167 4 97.5v32.5v69.5c0 27.333 -0.166992 57.166 -0.5 89.499s-0.5 63.166 -0.5 92.499v78.5v47.5h73
v-453c-1.33301 -54 -9.5 -106.833 -24.5 -158.5s-36.833 -101.167 -65.5 -148.5z" />
    <glyph glyph-name="Kcommaaccent" unicode="&#x136;" horiz-adv-x="562" 
d="M256 -67h75l-63 -153h-61zM74 740h73v-330h84l223 330h86l-225 -334l-32 -26v-5l34 -24l243 -351h-85l-240 343h-88v-343h-73v740z" />
    <glyph glyph-name="kcommaaccent" unicode="&#x137;" horiz-adv-x="445" 
d="M217 -67h75l-63 -153h-61zM62 808h73v-502h67l148 234h80l-165 -253l-15 -9v-2l16 -10l181 -266h-81l-165 249h-66v-249h-73v808z" />
    <glyph glyph-name="kgreenlandic" unicode="&#x138;" horiz-adv-x="443" 
d="M62 540h73v-234h82l129 234h81l-146 -253l-16 -9v-2l17 -10l161 -266h-81l-146 249h-81v-249h-73v540z" />
    <glyph glyph-name="Lacute" unicode="&#x139;" horiz-adv-x="409" 
d="M91 790l75 139h77l-94 -143zM74 740h73v-674h250v-66h-323v740z" />
    <glyph glyph-name="lacute" unicode="&#x13a;" horiz-adv-x="202" 
d="M76 847l73 183h75l-95 -190zM65 808h73v-808h-73v808z" />
    <glyph glyph-name="Lcommaaccent" unicode="&#x13b;" horiz-adv-x="409" 
d="M210 -67h75l-63 -153h-61zM74 740h73v-674h250v-66h-323v740z" />
    <glyph glyph-name="lcommaaccent" unicode="&#x13c;" horiz-adv-x="202" 
d="M75 -67h75l-63 -153h-61zM65 808h73v-808h-73v808z" />
    <glyph glyph-name="Lcaron" unicode="&#x13d;" horiz-adv-x="424" 
d="M323 757h63l-27 -228h-36v228zM74 740h73v-674h250v-66h-323v740z" />
    <glyph glyph-name="lcaron" unicode="&#x13e;" horiz-adv-x="202" 
d="M195 808h63l-27 -228h-36v228zM65 808h73v-808h-73v808z" />
    <glyph glyph-name="Ldot" unicode="&#x13f;" horiz-adv-x="416" 
d="M74 740h73v-674h250v-66h-323v740zM312 323c-31.333 0 -47 15.667 -47 47s15.667 47 47 47c15.333 0 27.166 -3.83301 35.499 -11.5s12.5 -19.5 12.5 -35.5s-4.16699 -27.833 -12.5 -35.5s-20.166 -11.5 -35.499 -11.5z" />
    <glyph glyph-name="ldot" unicode="&#x140;" horiz-adv-x="279" 
d="M65 808h73v-808h-73v808zM240 323c-31.333 0 -47 15.667 -47 47s15.667 47 47 47c15.333 0 27.166 -3.83301 35.499 -11.5s12.5 -19.5 12.5 -35.5s-4.16699 -27.833 -12.5 -35.5s-20.166 -11.5 -35.499 -11.5z" />
    <glyph glyph-name="Lslash" unicode="&#x141;" horiz-adv-x="432" 
d="M11 291l86 71v378h73v-318l99 82v-69l-99 -82v-287h250v-66h-323v293l-86 -71v69z" />
    <glyph glyph-name="lslash" unicode="&#x142;" horiz-adv-x="296" 
d="M20 295l85 69v444h73v-384l101 83v-59l-101 -83v-365h-73v305l-85 -69v59z" />
    <glyph glyph-name="Nacute" unicode="&#x143;" horiz-adv-x="652" 
d="M296 790l75 139h77l-94 -143zM74 740h69l318 -526l43 -84l6 1v609h69v-740h-71l-315 523l-45 87l-6 -1v-609h-68v740z" />
    <glyph glyph-name="nacute" unicode="&#x144;" horiz-adv-x="480" 
d="M219 617l73 183h75l-95 -190zM62 540h63l5 -58h4c34 23.333 64.667 40.5 92 51.5s53.666 16.5 78.999 16.5c41.333 0 70.833 -11 88.5 -33s26.5 -58.333 26.5 -109v-408h-73v391c0 34 -5.33301 58 -16 72s-27.667 21 -51 21c-21.333 0 -44.166 -4.83301 -68.499 -14.5
s-49.833 -23.5 -76.5 -41.5v-428h-73v540z" />
    <glyph glyph-name="Ncommaaccent" unicode="&#x145;" horiz-adv-x="652" 
d="M317 -67h75l-63 -153h-61zM74 740h69l318 -526l43 -84l6 1v609h69v-740h-71l-315 523l-45 87l-6 -1v-609h-68v740z" />
    <glyph glyph-name="ncommaaccent" unicode="&#x146;" horiz-adv-x="480" 
d="M215 -67h75l-63 -153h-61zM62 540h63l5 -58h4c34 23.333 64.667 40.5 92 51.5s53.666 16.5 78.999 16.5c41.333 0 70.833 -11 88.5 -33s26.5 -58.333 26.5 -109v-408h-73v391c0 34 -5.33301 58 -16 72s-27.667 21 -51 21c-21.333 0 -44.166 -4.83301 -68.499 -14.5
s-49.833 -23.5 -76.5 -41.5v-428h-73v540z" />
    <glyph glyph-name="Ncaron" unicode="&#x147;" horiz-adv-x="652" 
d="M200 929l133 -72l134 72v-61l-134 -72l-133 72v61zM74 740h69l318 -526l43 -84l6 1v609h69v-740h-71l-315 523l-45 87l-6 -1v-609h-68v740z" />
    <glyph glyph-name="ncaron" unicode="&#x148;" horiz-adv-x="480" 
d="M116 776l134 -72l133 72v-61l-133 -72l-134 72v61zM62 540h63l5 -58h4c34 23.333 64.667 40.5 92 51.5s53.666 16.5 78.999 16.5c41.333 0 70.833 -11 88.5 -33s26.5 -58.333 26.5 -109v-408h-73v391c0 34 -5.33301 58 -16 72s-27.667 21 -51 21
c-21.333 0 -44.166 -4.83301 -68.499 -14.5s-49.833 -23.5 -76.5 -41.5v-428h-73v540z" />
    <glyph glyph-name="napostrophe" unicode="&#x149;" horiz-adv-x="534" 
d="M93 808v-4l-30 -224h-32v228h62zM116 540h63l5 -58h4c34 23.333 64.667 40.5 92 51.5s53.666 16.5 78.999 16.5c41.333 0 70.833 -11 88.5 -33s26.5 -58.333 26.5 -109v-408h-73v391c0 34 -5.33301 58 -16 72s-27.667 21 -51 21
c-21.333 0 -44.166 -4.83301 -68.499 -14.5s-49.833 -23.5 -76.5 -41.5v-428h-73v540z" />
    <glyph glyph-name="Eng" unicode="&#x14a;" horiz-adv-x="652" 
d="M431 -169c15.333 32.667 28.667 65.001 40 97.001s20 62 26 90l-304 506l-45 88l-6 -1v-611h-68v740h69l318 -528l43 -83h6v611h69v-672c0 -14.667 -2.5 -32.334 -7.5 -53.001s-11.667 -42.5 -20 -65.5s-18.333 -46.167 -30 -69.5s-24.167 -45 -37.5 -65z" />
    <glyph glyph-name="eng" unicode="&#x14b;" horiz-adv-x="479" 
d="M285 -200c9.33301 20.667 17.833 43.5 25.5 68.5s14.167 50.333 19.5 76s9.5 51.167 12.5 76.5s4.5 49 4.5 71v299c0 33.333 -5.33301 57.166 -16 71.499s-27.667 21.5 -51 21.5c-43.333 0 -91.666 -18.667 -144.999 -56v-428h-73v540h63l5 -58h4
c34 23.333 64.667 40.5 92 51.5s53.666 16.5 78.999 16.5c41.333 0 70.833 -11 88.5 -33s26.5 -58.333 26.5 -109v-318c0 -24.667 -2 -51.167 -6 -79.5s-9.5 -56.166 -16.5 -83.499s-15.333 -53.5 -25 -78.5s-20.167 -46.5 -31.5 -64.5z" />
    <glyph glyph-name="Omacron" unicode="&#x14c;" horiz-adv-x="612" 
d="M177 897h242v-57h-242v57zM305 -10c-174.667 0 -261.999 126.333 -261.999 379c0 128.667 21.5 224.334 64.5 287.001s108.833 94 197.5 94c89.333 0 155.666 -31.333 198.999 -94s65 -158.334 65 -287.001c0 -252.667 -88 -379 -264 -379zM305.001 56
c32.667 0 60.999 6 84.999 18s43.5 30.667 58.5 56s26.167 57.666 33.5 96.999s11 86.666 11 141.999c0 110 -15 190.167 -45 240.5s-77.667 75.5 -143 75.5c-32.667 0 -60.667 -6 -84 -18s-42.5 -30.833 -57.5 -56.5s-26.167 -58.5 -33.5 -98.5s-11 -87.667 -11 -143
s3.5 -102.666 10.5 -141.999s18 -71.666 33 -96.999s34.333 -44 58 -56s51.834 -18 84.501 -18z" />
    <glyph glyph-name="omacron" unicode="&#x14d;" horiz-adv-x="488" 
d="M106 698h258v-54h-258v54zM244 -9c-67.333 0 -118.333 23.668 -153 71.001s-52 116.666 -52 207.999c0 92 17.333 161.667 52 209s85.667 71 153 71s118.333 -23.667 153 -71s52 -117 52 -209s-17.333 -161.5 -52 -208.5s-85.667 -70.5 -153 -70.5zM244 53.001
c45.333 0 78.5 17.167 99.5 51.5s31.5 89.5 31.5 165.5c0 76.667 -10.5 132.334 -31.5 167.001s-54.167 52 -99.5 52s-78.5 -17.333 -99.5 -52s-31.5 -90.334 -31.5 -167.001c0 -76 10.5 -131.167 31.5 -165.5s54.167 -51.5 99.5 -51.5z" />
    <glyph glyph-name="Obreve" unicode="&#x14e;" horiz-adv-x="612" 
d="M308 809c-47.333 0 -84 12.833 -110 38.5s-39 61.5 -39 107.5h57c0 -65.333 30.667 -98 92 -98c29.333 0 51.833 8.16699 67.5 24.5s23.5 40.833 23.5 73.5h57c0 -45.333 -13 -81 -39 -107s-62.333 -39 -109 -39zM305 -10c-174.667 0 -261.999 126.333 -261.999 379
c0 128.667 21.5 224.334 64.5 287.001s108.833 94 197.5 94c89.333 0 155.666 -31.333 198.999 -94s65 -158.334 65 -287.001c0 -252.667 -88 -379 -264 -379zM305.001 56c32.667 0 60.999 6 84.999 18s43.5 30.667 58.5 56s26.167 57.666 33.5 96.999s11 86.666 11 141.999
c0 110 -15 190.167 -45 240.5s-77.667 75.5 -143 75.5c-32.667 0 -60.667 -6 -84 -18s-42.5 -30.833 -57.5 -56.5s-26.167 -58.5 -33.5 -98.5s-11 -87.667 -11 -143s3.5 -102.666 10.5 -141.999s18 -71.666 33 -96.999s34.333 -44 58 -56s51.834 -18 84.501 -18z" />
    <glyph glyph-name="obreve" unicode="&#x14f;" horiz-adv-x="488" 
d="M244 -9c-67.333 0 -118.333 23.668 -153 71.001s-52 116.666 -52 207.999c0 92 17.333 161.667 52 209s85.667 71 153 71s118.333 -23.667 153 -71s52 -117 52 -209s-17.333 -161.5 -52 -208.5s-85.667 -70.5 -153 -70.5zM244 53.001c45.333 0 78.5 17.167 99.5 51.5
s31.5 89.5 31.5 165.5c0 76.667 -10.5 132.334 -31.5 167.001s-54.167 52 -99.5 52s-78.5 -17.333 -99.5 -52s-31.5 -90.334 -31.5 -167.001c0 -76 10.5 -131.167 31.5 -165.5s54.167 -51.5 99.5 -51.5zM235 619.001c-46 0 -81.833 12.167 -107.5 36.5
s-39.167 59.166 -40.5 104.499h57c0 -29.333 8 -52 24 -68s38.333 -24 67 -24s51 8 67 24s24 38.667 24 68h57c-0.666992 -45.333 -14 -80.166 -40 -104.499s-62 -36.5 -108 -36.5z" />
    <glyph glyph-name="Ohungarumlaut" unicode="&#x150;" horiz-adv-x="612" 
d="M305 -10c-174.667 0 -261.999 126.333 -261.999 379c0 128.667 21.5 224.334 64.5 287.001s108.833 94 197.5 94c89.333 0 155.666 -31.333 198.999 -94s65 -158.334 65 -287.001c0 -252.667 -88 -379 -264 -379zM305.001 56c32.667 0 60.999 6 84.999 18
s43.5 30.667 58.5 56s26.167 57.666 33.5 96.999s11 86.666 11 141.999c0 110 -15 190.167 -45 240.5s-77.667 75.5 -143 75.5c-32.667 0 -60.667 -6 -84 -18s-42.5 -30.833 -57.5 -56.5s-26.167 -58.5 -33.5 -98.5s-11 -87.667 -11 -143s3.5 -102.666 10.5 -141.999
s18 -71.666 33 -96.999s34.333 -44 58 -56s51.834 -18 84.501 -18zM194 799l74 130h68l-95 -143zM338 799l75 130h68l-94 -143z" />
    <glyph glyph-name="ohungarumlaut" unicode="&#x151;" horiz-adv-x="488" 
d="M128 620l73 180h69l-96 -190zM283 620l73 180h69l-96 -190zM244 -9c-67.333 0 -118.333 23.668 -153 71.001s-52 116.666 -52 207.999c0 92 17.333 161.667 52 209s85.667 71 153 71s118.333 -23.667 153 -71s52 -117 52 -209s-17.333 -161.5 -52 -208.5
s-85.667 -70.5 -153 -70.5zM244 53.001c45.333 0 78.5 17.167 99.5 51.5s31.5 89.5 31.5 165.5c0 76.667 -10.5 132.334 -31.5 167.001s-54.167 52 -99.5 52s-78.5 -17.333 -99.5 -52s-31.5 -90.334 -31.5 -167.001c0 -76 10.5 -131.167 31.5 -165.5
s54.167 -51.5 99.5 -51.5z" />
    <glyph glyph-name="OE" unicode="&#x152;" horiz-adv-x="793" 
d="M311 -4c-178.667 0 -268 124.333 -268 373c0 126 22.5 220 67.5 282s111.833 93 200.5 93c13.333 0 28.333 -0.333008 45 -1s30.667 -1.66699 42 -3h347v-66h-276v-266h249v-63h-249v-279h285v-66h-356c-11.333 -1.33301 -25.333 -2.33301 -42 -3s-31.667 -1 -45 -1z
M317 62c11.333 0 24.501 0.333984 39.501 1.00098s27.833 1.66699 38.5 3v607c-11.333 1.33301 -24.5 2.5 -39.5 3.5s-28.167 1.5 -39.5 1.5c-35.333 0 -65.5 -6 -90.5 -18s-45.5 -30.5 -61.5 -55.5s-27.667 -57 -35 -96s-11 -85.5 -11 -139.5s3.66699 -100.5 11 -139.5
s19 -70.833 35 -95.5s36.667 -42.834 62 -54.501s55.666 -17.5 90.999 -17.5z" />
    <glyph glyph-name="oe" unicode="&#x153;" horiz-adv-x="783" 
d="M586 -9c-42.667 0 -78.333 11.002 -107 33.002s-50 54 -64 96h-5c-28 -86 -83.333 -129 -166 -129c-67.333 0 -118.333 23.667 -153 71s-52 116.666 -52 207.999c0 92 17.333 161.667 52 209s85.667 71 153 71c84 0 139.333 -44.333 166 -133h6
c14 43.333 34.667 76.166 62 98.499s61.666 33.5 102.999 33.5c55.333 0 96.833 -19.667 124.5 -59s41.5 -97.333 41.5 -174c0 -16.667 -0.333008 -30.167 -1 -40.5s-1.66699 -20.833 -3 -31.5h-293c3.33301 -128 49.333 -192 138 -192c20.667 0 41.834 2.33301 63.501 7
s45.167 12.667 70.5 24l5 -61c-20 -9.33301 -42.5 -16.833 -67.5 -22.5s-49.5 -8.5 -73.5 -8.5zM244.001 53.002c45.333 0 78.5 17.167 99.5 51.5s31.5 89.5 31.5 165.5c0 76.667 -10.5 132.334 -31.5 167.001s-54.167 52 -99.5 52s-78.5 -17.333 -99.5 -52
s-31.5 -90.334 -31.5 -167.001c0 -76 10.5 -131.167 31.5 -165.5s54.167 -51.5 99.5 -51.5zM679.001 297.002c-2 68 -10.832 117.001 -26.499 147.001s-39.834 45 -72.501 45c-40 0 -70.833 -16.333 -92.5 -49s-34.167 -80.334 -37.5 -143.001h229z" />
    <glyph glyph-name="Racute" unicode="&#x154;" horiz-adv-x="539" 
d="M297 277c-11.333 -1.33301 -22.833 -2.33203 -34.5 -2.99902s-23.834 -1 -36.501 -1c-12 0 -25.167 0.166992 -39.5 0.5s-27.5 1.16602 -39.5 2.49902v-276h-73v735c26 5.33301 51.833 9.33301 77.5 12s51.167 4 76.5 4c94 0 162.333 -19 205 -57s64 -99 64 -183
c0 -58.667 -10.667 -105.667 -32 -141s-54.666 -61 -99.999 -77l142 -293h-78zM233 335.001c66.667 0 114.833 13.833 144.5 41.5s44.5 72.5 44.5 134.5c0 61.333 -14.333 105.833 -43 133.5s-75 41.5 -139 41.5c-11.333 0 -25 -0.666992 -41 -2s-33.333 -3.33301 -52 -6
v-337c32 -4 60.667 -6 86 -6zM242.999 790.001l75 139h77l-94 -143z" />
    <glyph glyph-name="racute" unicode="&#x155;" horiz-adv-x="312" 
d="M147 617l73 183h75l-95 -190zM62 540h63l5 -65h5c13.333 12 33.833 25 61.5 39s56.834 25.667 87.501 35h17v-77h-29c-28.667 -4.66699 -54.834 -11.5 -78.501 -20.5s-43.167 -19.5 -58.5 -31.5v-420h-73v540z" />
    <glyph glyph-name="Rcommaaccent" unicode="&#x156;" horiz-adv-x="539" 
d="M256 -67h75l-63 -153h-61zM297 277c-11.333 -1.33301 -22.833 -2.33203 -34.5 -2.99902s-23.834 -1 -36.501 -1c-12 0 -25.167 0.166992 -39.5 0.5s-27.5 1.16602 -39.5 2.49902v-276h-73v735c26 5.33301 51.833 9.33301 77.5 12s51.167 4 76.5 4
c94 0 162.333 -19 205 -57s64 -99 64 -183c0 -58.667 -10.667 -105.667 -32 -141s-54.666 -61 -99.999 -77l142 -293h-78zM233 335.001c66.667 0 114.833 13.833 144.5 41.5s44.5 72.5 44.5 134.5c0 61.333 -14.333 105.833 -43 133.5s-75 41.5 -139 41.5
c-11.333 0 -25 -0.666992 -41 -2s-33.333 -3.33301 -52 -6v-337c32 -4 60.667 -6 86 -6z" />
    <glyph glyph-name="rcommaaccent" unicode="&#x157;" horiz-adv-x="312" 
d="M71 -67h75l-63 -153h-61zM62 540h63l5 -65h5c13.333 12 33.833 25 61.5 39s56.834 25.667 87.501 35h17v-77h-29c-28.667 -4.66699 -54.834 -11.5 -78.501 -20.5s-43.167 -19.5 -58.5 -31.5v-420h-73v540z" />
    <glyph glyph-name="Rcaron" unicode="&#x158;" horiz-adv-x="539" 
d="M148 929l133 -72l134 72v-61l-134 -72l-133 72v61zM297 277c-11.333 -1.33301 -22.833 -2.33203 -34.5 -2.99902s-23.834 -1 -36.501 -1c-12 0 -25.167 0.166992 -39.5 0.5s-27.5 1.16602 -39.5 2.49902v-276h-73v735c26 5.33301 51.833 9.33301 77.5 12s51.167 4 76.5 4
c94 0 162.333 -19 205 -57s64 -99 64 -183c0 -58.667 -10.667 -105.667 -32 -141s-54.666 -61 -99.999 -77l142 -293h-78zM233 335.001c66.667 0 114.833 13.833 144.5 41.5s44.5 72.5 44.5 134.5c0 61.333 -14.333 105.833 -43 133.5s-75 41.5 -139 41.5
c-11.333 0 -25 -0.666992 -41 -2s-33.333 -3.33301 -52 -6v-337c32 -4 60.667 -6 86 -6z" />
    <glyph glyph-name="rcaron" unicode="&#x159;" horiz-adv-x="312" 
d="M45 776l134 -72l133 72v-61l-133 -72l-134 72v61zM62 540h63l5 -65h5c13.333 12 33.833 25 61.5 39s56.834 25.667 87.501 35h17v-77h-29c-28.667 -4.66699 -54.834 -11.5 -78.501 -20.5s-43.167 -19.5 -58.5 -31.5v-420h-73v540z" />
    <glyph glyph-name="Sacute" unicode="&#x15a;" horiz-adv-x="470" 
d="M227 -13c-14.667 0 -30.5029 0.831055 -47.5029 2.49805s-34.167 4 -51.5 7s-34.166 6.5 -50.499 10.5s-31.166 8.66699 -44.499 14l7 65c9.33301 -4.66699 21.333 -9 36 -13s30.167 -7.5 46.5 -10.5s32.833 -5.5 49.5 -7.5s32 -3 46 -3c47.333 0 83.833 11.667 109.5 35
s38.5 56.666 38.5 99.999c0 37.333 -12.333 67.5 -37 90.5s-63 44.833 -115 65.5c-28.667 12 -53.667 24.167 -75 36.5s-39 26.333 -53 42s-24.5 33.834 -31.5 54.501s-10.5 45 -10.5 73c0 30.667 5 58.5 15 83.5s24.333 46.333 43 64s41.334 31.334 68.001 41.001
s56.334 14.5 89.001 14.5c24 0 48.5 -1.66699 73.5 -5s52.167 -8.66602 81.5 -15.999l-5 -64c-30 7.33301 -57.167 12.5 -81.5 15.5s-45.833 4.5 -64.5 4.5c-44 0 -79 -12.5 -105 -37.5s-39 -58.5 -39 -100.5c0 -18 2.83301 -33.667 8.5 -47s14.5 -25.5 26.5 -36.5
s27.167 -21.5 45.5 -31.5s40.166 -20 65.499 -30c30 -12.667 56 -25.667 78 -39s40.167 -28.333 54.5 -45s24.833 -35.667 31.5 -57s10 -46 10 -74c0 -63.333 -18.667 -112.833 -56 -148.5s-89.333 -53.5 -156 -53.5zM212.997 789.998l75 139h77l-94 -143z" />
    <glyph glyph-name="sacute" unicode="&#x15b;" horiz-adv-x="371" 
d="M162 617l73 183h75l-95 -190zM174 -11c-19.333 0 -39.502 1.66699 -60.502 5s-46.5 8.66602 -76.5 15.999v61c21.333 -7.33301 43.5 -12.833 66.5 -16.5s44.833 -5.5 65.5 -5.5c31.333 0 55.5 8.16699 72.5 24.5s25.5 39.5 25.5 69.5c0 26.667 -6.66699 48 -20 64
s-35 27.667 -65 35c-16 4 -32.167 8.5 -48.5 13.5s-31.333 13 -45 24s-24.834 25.833 -33.501 44.5s-13 43.667 -13 75c0 48 14 85.5 42 112.5s66.667 40.5 116 40.5c17.333 0 34.833 -1.16699 52.5 -3.5s39.834 -6.5 66.501 -12.5v-61c-26 6.66699 -46.667 11 -62 13
s-30.333 3 -45 3c-31.333 0 -56 -7.83301 -74 -23.5s-27 -37.5 -27 -65.5c0 -17.333 2.5 -31.333 7.5 -42s11.667 -19.5 20 -26.5s18 -12.5 29 -16.5s22.833 -8 35.5 -12c20.667 -6 39.334 -13 56.001 -21s30.834 -18 42.501 -30s20.667 -26.667 27 -44
s9.5 -38.666 9.5 -63.999c0 -48 -14.833 -86.167 -44.5 -114.5s-69.5 -42.5 -119.5 -42.5z" />
    <glyph glyph-name="Scircumflex" unicode="&#x15c;" horiz-adv-x="470" 
d="M227 -13c-14.667 0 -30.5029 0.831055 -47.5029 2.49805s-34.167 4 -51.5 7s-34.166 6.5 -50.499 10.5s-31.166 8.66699 -44.499 14l7 65c9.33301 -4.66699 21.333 -9 36 -13s30.167 -7.5 46.5 -10.5s32.833 -5.5 49.5 -7.5s32 -3 46 -3c47.333 0 83.833 11.667 109.5 35
s38.5 56.666 38.5 99.999c0 37.333 -12.333 67.5 -37 90.5s-63 44.833 -115 65.5c-28.667 12 -53.667 24.167 -75 36.5s-39 26.333 -53 42s-24.5 33.834 -31.5 54.501s-10.5 45 -10.5 73c0 30.667 5 58.5 15 83.5s24.333 46.333 43 64s41.334 31.334 68.001 41.001
s56.334 14.5 89.001 14.5c24 0 48.5 -1.66699 73.5 -5s52.167 -8.66602 81.5 -15.999l-5 -64c-30 7.33301 -57.167 12.5 -81.5 15.5s-45.833 4.5 -64.5 4.5c-44 0 -79 -12.5 -105 -37.5s-39 -58.5 -39 -100.5c0 -18 2.83301 -33.667 8.5 -47s14.5 -25.5 26.5 -36.5
s27.167 -21.5 45.5 -31.5s40.166 -20 65.499 -30c30 -12.667 56 -25.667 78 -39s40.167 -28.333 54.5 -45s24.833 -35.667 31.5 -57s10 -46 10 -74c0 -63.333 -18.667 -112.833 -56 -148.5s-89.333 -53.5 -156 -53.5zM112.997 871.998l133 72l134 -72v-61l-134 72l-133 -72
v61z" />
    <glyph glyph-name="scircumflex" unicode="&#x15d;" horiz-adv-x="371" 
d="M57 694l134 72l133 -72v-61l-133 71l-134 -71v61zM174 -11c-19.333 0 -39.502 1.66699 -60.502 5s-46.5 8.66602 -76.5 15.999v61c21.333 -7.33301 43.5 -12.833 66.5 -16.5s44.833 -5.5 65.5 -5.5c31.333 0 55.5 8.16699 72.5 24.5s25.5 39.5 25.5 69.5
c0 26.667 -6.66699 48 -20 64s-35 27.667 -65 35c-16 4 -32.167 8.5 -48.5 13.5s-31.333 13 -45 24s-24.834 25.833 -33.501 44.5s-13 43.667 -13 75c0 48 14 85.5 42 112.5s66.667 40.5 116 40.5c17.333 0 34.833 -1.16699 52.5 -3.5s39.834 -6.5 66.501 -12.5v-61
c-26 6.66699 -46.667 11 -62 13s-30.333 3 -45 3c-31.333 0 -56 -7.83301 -74 -23.5s-27 -37.5 -27 -65.5c0 -17.333 2.5 -31.333 7.5 -42s11.667 -19.5 20 -26.5s18 -12.5 29 -16.5s22.833 -8 35.5 -12c20.667 -6 39.334 -13 56.001 -21s30.834 -18 42.501 -30
s20.667 -26.667 27 -44s9.5 -38.666 9.5 -63.999c0 -48 -14.833 -86.167 -44.5 -114.5s-69.5 -42.5 -119.5 -42.5z" />
    <glyph glyph-name="uni015E" unicode="&#x15e;" horiz-adv-x="471" 
d="M227 -13c-14.667 0 -30.5029 0.830078 -47.5029 2.49707s-34.167 4 -51.5 7s-34.166 6.5 -50.499 10.5s-31.166 8.66699 -44.499 14l7 65c9.33301 -4.66699 21.333 -9 36 -13s30.167 -7.5 46.5 -10.5s32.833 -5.5 49.5 -7.5s32 -3 46 -3c47.333 0 83.833 11.667 109.5 35
s38.5 56.666 38.5 99.999c0 18.667 -3.16699 35.334 -9.5 50.001s-15.666 28 -27.999 40s-28 23.333 -47 34s-41.5 21.334 -67.5 32.001c-28.667 11.333 -53.667 23.166 -75 35.499s-39 26.5 -53 42.5s-24.5 34.333 -31.5 55s-10.5 45 -10.5 73c0 30.667 5 58.5 15 83.5
s24.333 46.333 43 64s41.334 31.334 68.001 41.001s56.334 14.5 89.001 14.5c24 0 48.5 -1.66699 73.5 -5s52.167 -8.66602 81.5 -15.999l-5 -64c-30 7.33301 -57.167 12.5 -81.5 15.5s-45.833 4.5 -64.5 4.5c-44 0 -79 -12.5 -105 -37.5s-39 -58.5 -39 -100.5
c0 -18 2.83301 -33.667 8.5 -47s14.5 -25.5 26.5 -36.5s27.167 -21.5 45.5 -31.5s40.166 -20 65.499 -30c30 -12.667 56 -25.667 78 -39s40.167 -28.333 54.5 -45s24.833 -35.667 31.5 -57s10 -46 10 -74c0 -54 -13.667 -98 -41 -132s-65.666 -55.667 -114.999 -65
c19.333 -37.333 29 -72.333 29 -105c0 -34 -9.33301 -60.333 -28 -79s-45.334 -28 -80.001 -28c-21.333 0 -43.666 3.66699 -66.999 11v53c9.33301 -3.33301 19.166 -5.83301 29.499 -7.5s19.833 -2.5 28.5 -2.5c40.667 0 61 20.333 61 61c0 13.333 -2.33301 27.833 -7 43.5
s-11.334 31.834 -20.001 48.501h-2v0z" />
    <glyph glyph-name="uni015F" unicode="&#x15f;" horiz-adv-x="371" 
d="M149 -220c-21.333 0 -43.667 3.66699 -67 11v53c9.33301 -3.33301 19.166 -5.83301 29.499 -7.5s19.833 -2.5 28.5 -2.5c40.667 0 61 20.333 61 61c0 28.667 -9.33301 60 -28 94c-19.333 0 -39.5 1.66699 -60.5 5s-46.167 8.66602 -75.5 15.999v61
c21.333 -7.33301 43.5 -12.833 66.5 -16.5s44.833 -5.5 65.5 -5.5c31.333 0 55.5 8.16699 72.5 24.5s25.5 39.5 25.5 69.5c0 26.667 -6.66699 48 -20 64s-35 27.667 -65 35c-16 4 -32.167 8.5 -48.5 13.5s-31.333 13 -45 24s-24.834 25.833 -33.501 44.5s-13 43.667 -13 75
c0 48 14 85.5 42 112.5s66.667 40.5 116 40.5c17.333 0 34.833 -1.16699 52.5 -3.5s39.834 -6.5 66.501 -12.5v-61c-26 6.66699 -46.667 11 -62 13s-30.333 3 -45 3c-31.333 0 -56 -7.83301 -74 -23.5s-27 -37.5 -27 -65.5c0 -17.333 2.5 -31.333 7.5 -42
s11.667 -19.5 20 -26.5s18 -12.5 29 -16.5s22.833 -8 35.5 -12c20.667 -6 39.334 -13 56.001 -21s30.834 -18 42.501 -30s20.667 -26.667 27 -44s9.5 -38.666 9.5 -63.999c0 -38.667 -10 -71 -30 -97s-47.333 -43.667 -82 -53c20.667 -38.667 31 -75 31 -109
s-9.33301 -60.333 -28 -79s-45.334 -28 -80.001 -28z" />
    <glyph glyph-name="Scaron" unicode="&#x160;" horiz-adv-x="470" 
d="M227 -13c-14.667 0 -30.5029 0.831055 -47.5029 2.49805s-34.167 4 -51.5 7s-34.166 6.5 -50.499 10.5s-31.166 8.66699 -44.499 14l7 65c9.33301 -4.66699 21.333 -9 36 -13s30.167 -7.5 46.5 -10.5s32.833 -5.5 49.5 -7.5s32 -3 46 -3c47.333 0 83.833 11.667 109.5 35
s38.5 56.666 38.5 99.999c0 37.333 -12.333 67.5 -37 90.5s-63 44.833 -115 65.5c-28.667 12 -53.667 24.167 -75 36.5s-39 26.333 -53 42s-24.5 33.834 -31.5 54.501s-10.5 45 -10.5 73c0 30.667 5 58.5 15 83.5s24.333 46.333 43 64s41.334 31.334 68.001 41.001
s56.334 14.5 89.001 14.5c24 0 48.5 -1.66699 73.5 -5s52.167 -8.66602 81.5 -15.999l-5 -64c-30 7.33301 -57.167 12.5 -81.5 15.5s-45.833 4.5 -64.5 4.5c-44 0 -79 -12.5 -105 -37.5s-39 -58.5 -39 -100.5c0 -18 2.83301 -33.667 8.5 -47s14.5 -25.5 26.5 -36.5
s27.167 -21.5 45.5 -31.5s40.166 -20 65.499 -30c30 -12.667 56 -25.667 78 -39s40.167 -28.333 54.5 -45s24.833 -35.667 31.5 -57s10 -46 10 -74c0 -63.333 -18.667 -112.833 -56 -148.5s-89.333 -53.5 -156 -53.5zM117.997 928.998l133 -72l134 72v-61l-134 -72l-133 72
v61z" />
    <glyph glyph-name="scaron" unicode="&#x161;" horiz-adv-x="371" 
d="M59 776l134 -72l133 72v-61l-133 -72l-134 72v61zM174 -11c-19.333 0 -39.502 1.66699 -60.502 5s-46.5 8.66602 -76.5 15.999v61c21.333 -7.33301 43.5 -12.833 66.5 -16.5s44.833 -5.5 65.5 -5.5c31.333 0 55.5 8.16699 72.5 24.5s25.5 39.5 25.5 69.5
c0 26.667 -6.66699 48 -20 64s-35 27.667 -65 35c-16 4 -32.167 8.5 -48.5 13.5s-31.333 13 -45 24s-24.834 25.833 -33.501 44.5s-13 43.667 -13 75c0 48 14 85.5 42 112.5s66.667 40.5 116 40.5c17.333 0 34.833 -1.16699 52.5 -3.5s39.834 -6.5 66.501 -12.5v-61
c-26 6.66699 -46.667 11 -62 13s-30.333 3 -45 3c-31.333 0 -56 -7.83301 -74 -23.5s-27 -37.5 -27 -65.5c0 -17.333 2.5 -31.333 7.5 -42s11.667 -19.5 20 -26.5s18 -12.5 29 -16.5s22.833 -8 35.5 -12c20.667 -6 39.334 -13 56.001 -21s30.834 -18 42.501 -30
s20.667 -26.667 27 -44s9.5 -38.666 9.5 -63.999c0 -48 -14.833 -86.167 -44.5 -114.5s-69.5 -42.5 -119.5 -42.5z" />
    <glyph glyph-name="uni0162" unicode="&#x162;" horiz-adv-x="474" 
d="M199 673h-184.998v67h447v-67h-187v-673h-8c22 -40 33 -77.667 33 -113c0 -34 -9.33301 -60.333 -28 -79s-45.334 -28 -80.001 -28c-21.333 0 -43.666 3.66699 -66.999 11v53c9.33301 -3.33301 19.166 -5.83301 29.499 -7.5s19.833 -2.5 28.5 -2.5
c40.667 0 61 20.333 61 61c0 15.333 -2.83301 32 -8.5 50s-13.834 36.333 -24.501 55h-11v673z" />
    <glyph glyph-name="uni0163" unicode="&#x163;" horiz-adv-x="330" 
d="M159 -220c-21.333 0 -43.665 3.66797 -66.998 11.001v53c9.33301 -3.33301 19.166 -5.83301 29.499 -7.5s19.833 -2.5 28.5 -2.5c40.667 0 61 20.333 61 61c0 16.667 -3.5 35 -10.5 55s-16.5 40 -28.5 60c-42 20.667 -63 63.667 -63 129v336h-97v65h100l10 134l59 11
v-145h137v-65h-137v-323c0 -32.667 7 -56.834 21 -72.501s34 -23.5 60 -23.5c7.33301 0 16 0.5 26 1.5s19 2.83301 27 5.5v-60c-26.667 -5.33301 -49.667 -8 -69 -8h-10c20.667 -37.333 31 -73.333 31 -108c0 -34 -9.33301 -60.333 -28 -79s-45.334 -28 -80.001 -28z" />
    <glyph glyph-name="Tcaron" unicode="&#x164;" horiz-adv-x="474" 
d="M109 929l133 -72l134 72v-61l-134 -72l-133 72v61zM199 673h-185v67h447v-67h-187v-673h-75v673z" />
    <glyph glyph-name="tcaron" unicode="&#x165;" horiz-adv-x="318" 
d="M246 -5c-91.333 0 -137 48.001 -137 144.001v336h-97v65h100l10 134l59 11v-145h84v-65h-84v-323c0 -32.667 7 -56.834 21 -72.501s34 -23.5 60 -23.5c7.33301 0 16 0.5 26 1.5s19 2.83301 27 5.5v-60c-26.667 -5.33301 -49.667 -8 -69 -8zM257 808.001h63l-27 -228h-36
v228z" />
    <glyph glyph-name="Tbar" unicode="&#x166;" horiz-adv-x="483" 
d="M95 406h108v267h-185v67h447v-67h-187v-267h113v-46h-113v-360h-75v360h-108v46z" />
    <glyph glyph-name="tbar" unicode="&#x167;" horiz-adv-x="339" 
d="M21 346l95 0.000976562v129h-97v65h100l10 134l59 11v-145h137v-65h-137v-129h111v-52h-111v-142c0 -32.667 7 -56.834 21 -72.501s34 -23.5 60 -23.5c7.33301 0 16 0.5 26 1.5s19 2.83301 27 5.5v-60c-26.667 -5.33301 -49.667 -8 -69 -8c-91.333 0 -137 48 -137 144
v155h-95v52z" />
    <glyph glyph-name="Utilde" unicode="&#x168;" horiz-adv-x="632" 
d="M162 846c12 19.333 27.165 35.833 45.498 49.5s36.5 20.5 54.5 20.5c12.667 0 24.334 -2.16699 35.001 -6.5s21 -9.33301 31 -15s20.167 -10.667 30.5 -15s21.166 -6.5 32.499 -6.5c10.667 0 20.834 3.5 30.501 10.5s18.5 16.833 26.5 29.5l27 -20
c-10 -23.333 -24 -41.333 -42 -54s-36.333 -19 -55 -19c-12.667 0 -24.334 2.16699 -35.001 6.5s-21 9 -31 14s-20 9.66699 -30 14s-20.667 6.5 -32 6.5s-22.666 -3.5 -33.999 -10.5s-21.666 -16.167 -30.999 -27.5zM315.998 -10c-44.667 0 -82.667 5.83301 -114 17.5
s-57 29.834 -77 54.501s-34.5 55.834 -43.5 93.501s-13.5 82.5 -13.5 134.5v450h73v-448c0 -82.667 13.833 -142.667 41.5 -180s72.167 -56 133.5 -56c62 0 106.5 18.5 133.5 55.5s40.5 97.167 40.5 180.5v448h75v-450c0 -52 -4.66699 -96.833 -14 -134.5
s-24 -68.834 -44 -93.501s-45.667 -42.834 -77 -54.501s-69.333 -17.5 -114 -17.5z" />
    <glyph glyph-name="utilde" unicode="&#x169;" horiz-adv-x="479" 
d="M185 -10c-43.333 0 -75.335 11.333 -96.002 34s-31 58.667 -31 108v408h73v-392c0 -34 5.33301 -57.667 16 -71s29.334 -20 56.001 -20c22 0 43.5 4.5 64.5 13.5s46.167 24.167 75.5 45.5v424h73v-540h-62l-6 57h-4c-34 -24 -63.167 -41.167 -87.5 -51.5
s-48.166 -15.5 -71.499 -15.5zM80.998 659c11.333 19.333 26.1699 35.332 44.5029 47.999s36.5 19 54.5 19c12.667 0 24.334 -2.5 35.001 -7.5s21 -10.5 31 -16.5s20 -11.5 30 -16.5s20.667 -7.5 32 -7.5s21.666 3.66699 30.999 11s17.666 17.333 24.999 30l29 -25
c-9.33301 -22 -23 -39 -41 -51s-36.333 -18 -55 -18c-12.667 0 -24.334 2.33301 -35.001 7s-21 10 -31 16s-20 11.333 -30 16s-20.667 7 -32 7s-22.333 -3.66699 -33 -11s-20.334 -16.666 -29.001 -27.999z" />
    <glyph glyph-name="Umacron" unicode="&#x16a;" horiz-adv-x="632" 
d="M186 897h242v-57h-242v57zM316 -10c-44.667 0 -82.667 5.83301 -114 17.5s-57 29.834 -77 54.501s-34.5 55.834 -43.5 93.501s-13.5 82.5 -13.5 134.5v450h73v-448c0 -82.667 13.833 -142.667 41.5 -180s72.167 -56 133.5 -56c62 0 106.5 18.5 133.5 55.5
s40.5 97.167 40.5 180.5v448h75v-450c0 -52 -4.66699 -96.833 -14 -134.5s-24 -68.834 -44 -93.501s-45.667 -42.834 -77 -54.501s-69.333 -17.5 -114 -17.5z" />
    <glyph glyph-name="umacron" unicode="&#x16b;" horiz-adv-x="479" 
d="M185 -10c-43.333 0 -75.335 11.333 -96.002 34s-31 58.667 -31 108v408h73v-392c0 -34 5.33301 -57.667 16 -71s29.334 -20 56.001 -20c22 0 43.5 4.5 64.5 13.5s46.167 24.167 75.5 45.5v424h73v-540h-62l-6 57h-4c-34 -24 -63.167 -41.167 -87.5 -51.5
s-48.166 -15.5 -71.499 -15.5zM107.998 698h258v-54h-258v54z" />
    <glyph glyph-name="Ubreve" unicode="&#x16c;" horiz-adv-x="632" 
d="M316 809c-47.333 0 -84 12.833 -110 38.5s-39 61.5 -39 107.5h57c0 -65.333 30.667 -98 92 -98c29.333 0 51.833 8.16699 67.5 24.5s23.5 40.833 23.5 73.5h57c0 -45.333 -13 -81 -39 -107s-62.333 -39 -109 -39zM316 -10c-44.667 0 -82.667 5.83301 -114 17.5
s-57 29.834 -77 54.501s-34.5 55.834 -43.5 93.501s-13.5 82.5 -13.5 134.5v450h73v-448c0 -82.667 13.833 -142.667 41.5 -180s72.167 -56 133.5 -56c62 0 106.5 18.5 133.5 55.5s40.5 97.167 40.5 180.5v448h75v-450c0 -52 -4.66699 -96.833 -14 -134.5
s-24 -68.834 -44 -93.501s-45.667 -42.834 -77 -54.501s-69.333 -17.5 -114 -17.5z" />
    <glyph glyph-name="ubreve" unicode="&#x16d;" horiz-adv-x="479" 
d="M185 -10c-43.333 0 -75.335 11.333 -96.002 34s-31 58.667 -31 108v408h73v-392c0 -34 5.33301 -57.667 16 -71s29.334 -20 56.001 -20c22 0 43.5 4.5 64.5 13.5s46.167 24.167 75.5 45.5v424h73v-540h-62l-6 57h-4c-34 -24 -63.167 -41.167 -87.5 -51.5
s-48.166 -15.5 -71.499 -15.5zM235.998 619c-46 0 -81.833 12.167 -107.5 36.5s-39.167 59.166 -40.5 104.499h57c0 -29.333 8 -52 24 -68s38.333 -24 67 -24s51 8 67 24s24 38.667 24 68h57c-0.666992 -45.333 -14 -80.166 -40 -104.499s-62 -36.5 -108 -36.5z" />
    <glyph glyph-name="Uring" unicode="&#x16e;" horiz-adv-x="632" 
d="M316 -10c-44.667 0 -82.667 5.83301 -114 17.5s-57 29.834 -77 54.501s-34.5 55.834 -43.5 93.501s-13.5 82.5 -13.5 134.5v450h73v-448c0 -82.667 13.833 -142.667 41.5 -180s72.167 -56 133.5 -56c62 0 106.5 18.5 133.5 55.5s40.5 97.167 40.5 180.5v448h75v-450
c0 -52 -4.66699 -96.833 -14 -134.5s-24 -68.834 -44 -93.501s-45.667 -42.834 -77 -54.501s-69.333 -17.5 -114 -17.5zM313 781c-30.667 0 -54.5 10 -71.5 30s-25.5 44.333 -25.5 73c0 29.333 8.5 54 25.5 74s40.833 30 71.5 30s54.5 -10 71.5 -30s25.5 -44.667 25.5 -74
c0 -28.667 -8.66699 -53 -26 -73s-41 -30 -71 -30zM313 821c18 0 31.667 5.83301 41 17.5s14 26.834 14 45.501c0 19.333 -4.5 34.833 -13.5 46.5s-22.833 17.5 -41.5 17.5c-19.333 0 -33.333 -5.83301 -42 -17.5s-13 -27.167 -13 -46.5c0 -18.667 4.5 -33.834 13.5 -45.501
s22.833 -17.5 41.5 -17.5z" />
    <glyph glyph-name="uring" unicode="&#x16f;" horiz-adv-x="479" 
d="M236 611c-31.333 0 -55.501 9.83301 -72.501 29.5s-25.5 44.5 -25.5 74.5c0 29.333 8.33301 53.833 25 73.5s41 29.5 73 29.5s56.5 -9.83301 73.5 -29.5s25.5 -44.167 25.5 -73.5c0 -30 -8.66699 -54.833 -26 -74.5s-41.666 -29.5 -72.999 -29.5zM235.999 652
c17.333 0 30.666 6 39.999 18s14 27 14 45c0 17.333 -4.66699 32 -14 44s-22.666 18 -39.999 18s-30.333 -6 -39 -18s-13 -26.667 -13 -44c0 -18 4.5 -33 13.5 -45s21.833 -18 38.5 -18zM184.999 -10c-43.333 0 -75.335 11.333 -96.002 34s-31 58.667 -31 108v408h73v-392
c0 -34 5.33301 -57.667 16 -71s29.334 -20 56.001 -20c22 0 43.5 4.5 64.5 13.5s46.167 24.167 75.5 45.5v424h73v-540h-62l-6 57h-4c-34 -24 -63.167 -41.167 -87.5 -51.5s-48.166 -15.5 -71.499 -15.5z" />
    <glyph glyph-name="Uhungarumlaut" unicode="&#x170;" horiz-adv-x="632" 
d="M316 -10c-44.667 0 -82.667 5.83301 -114 17.5s-57 29.834 -77 54.501s-34.5 55.834 -43.5 93.501s-13.5 82.5 -13.5 134.5v450h73v-448c0 -82.667 13.833 -142.667 41.5 -180s72.167 -56 133.5 -56c62 0 106.5 18.5 133.5 55.5s40.5 97.167 40.5 180.5v448h75v-450
c0 -52 -4.66699 -96.833 -14 -134.5s-24 -68.834 -44 -93.501s-45.667 -42.834 -77 -54.501s-69.333 -17.5 -114 -17.5zM201 799l74 130h68l-95 -143zM345 799l75 130h68l-94 -143z" />
    <glyph glyph-name="uhungarumlaut" unicode="&#x171;" horiz-adv-x="479" 
d="M185 -10c-43.333 0 -75.335 11.333 -96.002 34s-31 58.667 -31 108v408h73v-392c0 -34 5.33301 -57.667 16 -71s29.334 -20 56.001 -20c22 0 43.5 4.5 64.5 13.5s46.167 24.167 75.5 45.5v424h73v-540h-62l-6 57h-4c-34 -24 -63.167 -41.167 -87.5 -51.5
s-48.166 -15.5 -71.499 -15.5zM128.998 620l73 180h69l-96 -190zM283.998 620l73 180h69l-96 -190z" />
    <glyph glyph-name="Uogonek" unicode="&#x172;" horiz-adv-x="632" 
d="M317 -211c-30 0 -52.999 7.50098 -68.999 22.501s-24 36.833 -24 65.5c0 42 21 80 63 114c-39.333 2 -72.833 9.5 -100.5 22.5s-50.334 31.833 -68.001 56.5s-30.5 55.167 -38.5 91.5s-12 79.166 -12 128.499v450h73v-448c0 -82.667 13.833 -142.667 41.5 -180
s72.167 -56 133.5 -56c62 0 106.5 18.5 133.5 55.5s40.5 97.167 40.5 180.5v448h75v-450c0 -92 -15 -162 -45 -210s-78.667 -76.667 -146 -86c-32 -13.333 -55.667 -30 -71 -50s-23 -40.667 -23 -62c0 -27.333 15 -41 45 -41c16.667 0 33 3.66699 49 11v-51
c-19.333 -8 -38.333 -12 -57 -12z" />
    <glyph glyph-name="uogonek" unicode="&#x173;" horiz-adv-x="480" 
d="M186 -10c-43.333 0 -75.335 11.333 -96.002 34s-31 58.667 -31 108v408h73v-392c0 -34 5.33301 -57.667 16 -71s29.334 -20 56.001 -20c22 0 43.5 4.5 64.5 13.5s46.167 24.167 75.5 45.5v424h73v-556c-32 -13.333 -55.667 -29.833 -71 -49.5s-23 -40.167 -23 -61.5
c0 -27.333 15 -41 45 -41c16.667 0 33 3.66699 49 11v-51c-19.333 -8 -38.333 -12 -57 -12c-30 0 -53 7.5 -69 22.5s-24 36.833 -24 65.5c0 49.333 29.333 93.333 88 132l-6 57h-4c-34 -24 -63.167 -41.167 -87.5 -51.5s-48.166 -15.5 -71.499 -15.5z" />
    <glyph glyph-name="Wcircumflex" unicode="&#x174;" horiz-adv-x="869" 
d="M14 740h81l114 -517l25 -126h7l28 126l129 517h81l120 -517l25 -126h8l27 126l123 517h80l-187 -740h-92l-123 519l-20 113h-6l-21 -113l-132 -519h-92zM303 872l133 72l134 -72v-61l-134 72l-133 -72v61z" />
    <glyph glyph-name="wcircumflex" unicode="&#x175;" horiz-adv-x="670" 
d="M204 694l134 72l133 -72v-61l-133 71l-134 -71v61zM20 536v4h70l79 -373l14 -78h8l18 78l90 373h74l90 -373l19 -78h6l16 78l79 373h67v-4l-123 -536h-82l-96 381l-10 55h-7l-11 -55l-95 -381h-83z" />
    <glyph glyph-name="Ycircumflex" unicode="&#x176;" horiz-adv-x="539" 
d="M233 248l-233 492h81l164 -357l22 -59h6l22 59l163 357h81l-232 -489v-251h-74v248zM140 872l133 72l134 -72v-61l-134 72l-133 -72v61z" />
    <glyph glyph-name="ycircumflex" unicode="&#x177;" horiz-adv-x="462" 
d="M126 -205v5l68 201l-183 534v5h74l131 -398l13 -61h5l14 61l130 398h74v-5l-253 -755zM107 694l134 72l133 -72v-61l-133 71l-134 -71v61z" />
    <glyph glyph-name="Ydieresis" unicode="&#x178;" horiz-adv-x="539" 
d="M233 248l-233 492h81l164 -357l22 -59h6l22 59l163 357h81l-232 -489v-251h-74v248zM177 810c-31.333 0 -47 15.667 -47 47s15.667 47 47 47c32.667 0 49 -15.667 49 -47s-16.333 -47 -49 -47zM369 810c-32 0 -48 15.667 -48 47s16 47 48 47
c14.667 0 26.334 -3.66699 35.001 -11s13 -19.333 13 -36s-4.33301 -28.667 -13 -36s-20.334 -11 -35.001 -11z" />
    <glyph glyph-name="Zacute" unicode="&#x179;" horiz-adv-x="475" 
d="M28 61l324 607v6h-316v66h403v-61l-324 -608v-6h332v-65h-419v61zM211 790l75 139h77l-94 -143z" />
    <glyph glyph-name="zacute" unicode="&#x17a;" horiz-adv-x="396" 
d="M179 617l73 183h75l-95 -190zM29 48l242 425v5h-233v62h319v-48l-242 -425v-5h252v-62h-338v48z" />
    <glyph glyph-name="Zdotaccent" unicode="&#x17b;" horiz-adv-x="475" 
d="M244 799c-31.333 0 -47 15.334 -47 46.001c0 17.333 4 29.666 12 36.999s19.667 11 35 11c32.667 0 49 -16 49 -48c0 -30.667 -16.333 -46 -49 -46zM28 61.001l324 607v6h-316v66h403v-61l-324 -608v-6h332v-65h-419v61z" />
    <glyph glyph-name="zdotaccent" unicode="&#x17c;" horiz-adv-x="396" 
d="M29 48l242 425v5h-233v62h319v-48l-242 -425v-5h252v-62h-338v48zM205 625c-15.333 0 -27.166 3.83301 -35.499 11.5s-12.5 19.5 -12.5 35.5c0 16.667 4.16699 28.667 12.5 36s20.166 11 35.499 11c14.667 0 26.334 -3.66699 35.001 -11s13 -19.333 13 -36
s-4.33301 -28.667 -13 -36s-20.334 -11 -35.001 -11z" />
    <glyph glyph-name="Zcaron" unicode="&#x17d;" horiz-adv-x="475" 
d="M117 929l133 -72l134 72v-61l-134 -72l-133 72v61zM28 61l324 607v6h-316v66h403v-61l-324 -608v-6h332v-65h-419v61z" />
    <glyph glyph-name="zcaron" unicode="&#x17e;" horiz-adv-x="396" 
d="M76 776l134 -72l133 72v-61l-133 -72l-134 72v61zM29 48l242 425v5h-233v62h319v-48l-242 -425v-5h252v-62h-338v48z" />
    <glyph glyph-name="Schwa" unicode="&#x18f;" horiz-adv-x="565" 
d="M38 306c0 19.333 0.333984 36.498 1.00098 51.498s1.66699 29.833 3 44.5h404c-3.33301 100 -22.333 173.5 -57 220.5s-85.334 70.5 -152.001 70.5c-25.333 0 -52 -3.16699 -80 -9.5s-56.333 -15.833 -85 -28.5l-6 65c26 12 54.167 21.667 84.5 29s60.833 11 91.5 11
c90.667 0 160.167 -32.167 208.5 -96.5s72.5 -156.166 72.5 -275.499c0 -128 -22.833 -226.167 -68.5 -294.5s-112.167 -102.5 -199.5 -102.5c-71.333 0 -125.333 26.333 -162 79s-55 131.334 -55 236.001zM257.001 53.998c57.333 0 102.332 24.332 134.999 72.999
s50.667 120.667 54 216h-335c0.666992 -52 3.83398 -96.167 9.50098 -132.5s14.334 -66.166 26.001 -89.499s26.667 -40.333 45 -51s40.166 -16 65.499 -16z" />
    <glyph glyph-name="florin" unicode="&#x192;" horiz-adv-x="305" 
d="M103 477l-75.001 -0.00195312v63h75v39c0 42 3.16699 77 9.5 105s16.833 50.833 31.5 68.5s34.334 30.834 59.001 39.501s55.667 14.667 93 18l3 -59c-24.667 -2.66699 -45 -7 -61 -13s-28.5 -15.333 -37.5 -28s-15.333 -29.167 -19 -49.5s-5.5 -46.166 -5.5 -77.499v-43
h100v-63h-100v-666l-73 -31v697z" />
    <glyph glyph-name="uni01C4" unicode="&#x1c4;" horiz-adv-x="1059" 
d="M700 929l133 -72l134 72v-61l-134 -72l-133 72v61zM612 61l324 607v6h-316v66h403v-61l-324 -608v-6h332v-65h-419v61zM198 -16c-19.333 0 -39 0.49707 -59 1.49707s-41.667 2.83301 -65 5.5v743c33.333 5.33301 62.333 9.33301 87 12s48 4 70 4
c108 0 186.833 -30.667 236.5 -92s74.5 -157.666 74.5 -288.999c0 -67.333 -6.66699 -125.166 -20 -173.499s-34 -88.166 -62 -119.499s-63.667 -54.5 -107 -69.5s-95 -22.5 -155 -22.5zM217 48.9971c84.667 0 147.168 25.501 187.501 76.501s60.5 132.167 60.5 243.5
c0 56 -4.33301 104.167 -13 144.5s-22.167 73.166 -40.5 98.499s-42 44 -71 56s-63.5 18 -103.5 18c-16 0 -31.333 -0.666992 -46 -2s-29.334 -3.33301 -44.001 -6v-624l38.5 -3.5c11 -1 21.5 -1.5 31.5 -1.5z" />
    <glyph glyph-name="uni01C5" unicode="&#x1c5;" horiz-adv-x="980" 
d="M661 776l134 -72l133 72v-61l-133 -72l-134 72v61zM613 48l242 425v5h-233v62h319v-48l-242 -425v-5h252v-62h-338v48zM198 -16c-19.333 0 -39 0.49707 -59 1.49707s-41.667 2.83301 -65 5.5v743c33.333 5.33301 62.333 9.33301 87 12s48 4 70 4
c108 0 186.833 -30.667 236.5 -92s74.5 -157.666 74.5 -288.999c0 -67.333 -6.66699 -125.166 -20 -173.499s-34 -88.166 -62 -119.499s-63.667 -54.5 -107 -69.5s-95 -22.5 -155 -22.5zM217 48.9971c84.667 0 147.168 25.501 187.501 76.501s60.5 132.167 60.5 243.5
c0 56 -4.33301 104.167 -13 144.5s-22.167 73.166 -40.5 98.499s-42 44 -71 56s-63.5 18 -103.5 18c-16 0 -31.333 -0.666992 -46 -2s-29.334 -3.33301 -44.001 -6v-624l38.5 -3.5c11 -1 21.5 -1.5 31.5 -1.5z" />
    <glyph glyph-name="uni01C6" unicode="&#x1c6;" horiz-adv-x="880" 
d="M560 776l134 -72l133 72v-61l-133 -72l-134 72v61zM513 48l242 425v5h-233v62h319v-48l-242 -425v-5h252v-62h-338v48zM214 -9c-59.333 0 -103.333 22.333 -132 67s-43 113.667 -43 207c0 91.333 19.5 161.5 58.5 210.5s94.833 73.5 167.5 73.5
c12.667 0 25.167 -0.5 37.5 -1.5s27.833 -3.16699 46.5 -6.5v267h73v-808h-65l-7 54h-3c-32 -42 -76.333 -63 -133 -63zM231 49c14.667 0 29.165 2.66895 43.498 8.00195s27 12.833 38 22.5s19.833 21.5 26.5 35.5s10 30 10 48v319c-18.667 4 -34.167 6.83301 -46.5 8.5
s-25.166 2.5 -38.499 2.5c-49.333 0 -86.666 -18.333 -111.999 -55s-38 -92.334 -38 -167.001s10 -130.334 30 -167.001s49 -55 87 -55z" />
    <glyph glyph-name="uni01C7" unicode="&#x1c7;" horiz-adv-x="630" 
d="M402 -159c16.667 36 30.335 67.834 41.002 95.501s19.167 54.334 25.5 80.001s10.666 51.667 12.999 78s3.5 56.166 3.5 89.499v556h73v-560c0 -32 -2 -62.833 -6 -92.5s-10.333 -59.334 -19 -89.001s-19.834 -59.667 -33.501 -90s-30.167 -61.5 -49.5 -93.5z
M74.001 740.001h73v-674h250v-66h-323v740z" />
    <glyph glyph-name="uni01C8" unicode="&#x1c8;" horiz-adv-x="607" 
d="M508 662c-31.333 0 -47 16 -47 48c0 30.667 15.667 46 47 46c32.667 0 49 -15.333 49 -46c0 -32 -16.333 -48 -49 -48zM404 -197c45.333 86 68 188.667 68 308v429h73v-453c0 -52 -8 -105.167 -24 -159.5s-38.333 -103.5 -67 -147.5zM74 740h73v-674h250v-66h-323v740z
" />
    <glyph glyph-name="uni01C9" unicode="&#x1c9;" horiz-adv-x="400" 
d="M301 662c-31.333 0 -47 16 -47 48c0 30.667 15.667 46 47 46c32.667 0 49 -15.333 49 -46c0 -32 -16.333 -48 -49 -48zM197 -197c45.333 86 68 188.667 68 308v429h73v-453c0 -52 -8 -105.167 -24 -159.5s-38.333 -103.5 -67 -147.5zM65 808h73v-808h-73v808z" />
    <glyph glyph-name="uni01CA" unicode="&#x1ca;" horiz-adv-x="873" 
d="M645 -159c16.667 36 30.335 67.834 41.002 95.501s19.167 54.334 25.5 80.001s10.666 51.667 12.999 78s3.5 56.166 3.5 89.499v556h73v-560c0 -32 -2 -62.833 -6 -92.5s-10.333 -59.334 -19 -89.001s-19.834 -59.667 -33.501 -90s-30.167 -61.5 -49.5 -93.5z
M74.001 740.001h69l318 -526l43 -84l6 1v609h69v-740h-71l-315 523l-45 87l-6 -1v-609h-68v740z" />
    <glyph glyph-name="uni01CB" unicode="&#x1cb;" horiz-adv-x="850" 
d="M751 662c-31.333 0 -47 16 -47 48c0 30.667 15.667 46 47 46c32.667 0 49 -15.333 49 -46c0 -32 -16.333 -48 -49 -48zM647 -197c45.333 86 68 188.667 68 308v429h73v-453c0 -52 -8 -105.167 -24 -159.5s-38.333 -103.5 -67 -147.5zM74 740h69l318 -526l43 -84l6 1v609
h69v-740h-71l-315 523l-45 87l-6 -1v-609h-68v740z" />
    <glyph glyph-name="uni01CC" unicode="&#x1cc;" horiz-adv-x="677" 
d="M579 662c-31.333 0 -47 16 -47 48c0 30.667 15.667 46 47 46c32.667 0 49 -15.333 49 -46c0 -32 -16.333 -48 -49 -48zM475 -197c45.333 86 68 188.667 68 308v429h73v-453c0 -52 -8 -105.167 -24 -159.5s-38.333 -103.5 -67 -147.5zM62 540h63l5 -58h4
c34 23.333 64.667 40.5 92 51.5s53.666 16.5 78.999 16.5c41.333 0 70.833 -11 88.5 -33s26.5 -58.333 26.5 -109v-408h-73v391c0 34 -5.33301 58 -16 72s-27.667 21 -51 21c-21.333 0 -44.166 -4.83301 -68.499 -14.5s-49.833 -23.5 -76.5 -41.5v-428h-73v540z" />
    <glyph glyph-name="Oogonek" unicode="&#x1ea;" horiz-adv-x="611" 
d="M293 -211c-30 0 -52.999 7.5 -68.999 22.5s-24 36.833 -24 65.5c0 44 21.667 82.667 65 116c-148 18 -222 143.333 -222 376c0 128.667 21.5 224.334 64.5 287.001s108.833 94 197.5 94c89.333 0 155.666 -31.333 198.999 -94s65 -158.334 65 -287.001
c0 -230.667 -73 -356 -219 -376c-32 -13.333 -55.667 -29.833 -71 -49.5s-23 -40.167 -23 -61.5c0 -27.333 15 -41 45 -41c16.667 0 33 3.66699 49 11v-51c-19.333 -8 -38.333 -12 -57 -12zM305.001 56c32.667 0 60.999 6 84.999 18s43.5 30.667 58.5 56
s26.167 57.666 33.5 96.999s11 86.666 11 141.999c0 110 -15 190.167 -45 240.5s-77.667 75.5 -143 75.5c-32.667 0 -60.667 -6 -84 -18s-42.5 -30.833 -57.5 -56.5s-26.167 -58.5 -33.5 -98.5s-11 -87.667 -11 -143s3.5 -102.666 10.5 -141.999s18 -71.666 33 -96.999
s34.333 -44 58 -56s51.834 -18 84.501 -18z" />
    <glyph glyph-name="oogonek" unicode="&#x1eb;" horiz-adv-x="488" 
d="M258 -198c-30 0 -53 7.50195 -69 22.502s-24 36.833 -24 65.5c0 38 16.667 72.333 50 103c-58 6.66699 -101.833 33.167 -131.5 79.5s-44.5 112.166 -44.5 197.499c0 92 17.333 161.667 52 209s85.667 71 153 71s118.333 -23.667 153 -71s52 -117 52 -209
c0 -80 -13.167 -142.833 -39.5 -188.5s-64.833 -74.167 -115.5 -85.5c-24.667 -13.333 -43 -28.833 -55 -46.5s-18 -35.834 -18 -54.501c0 -27.333 15 -41 45 -41c16.667 0 33 3.66699 49 11v-51c-19.333 -8 -38.333 -12 -57 -12zM244 53.002
c45.333 0 78.5 17.167 99.5 51.5s31.5 89.5 31.5 165.5c0 76.667 -10.5 132.334 -31.5 167.001s-54.167 52 -99.5 52s-78.5 -17.333 -99.5 -52s-31.5 -90.334 -31.5 -167.001c0 -76 10.5 -131.167 31.5 -165.5s54.167 -51.5 99.5 -51.5z" />
    <glyph glyph-name="uni01F1" unicode="&#x1f1;" horiz-adv-x="1046" 
d="M599 61l324 607v6h-316v66h403v-61l-324 -608v-6h332v-65h-419v61zM198 -16c-19.333 0 -39 0.49707 -59 1.49707s-41.667 2.83301 -65 5.5v743c33.333 5.33301 62.333 9.33301 87 12s48 4 70 4c108 0 186.833 -30.667 236.5 -92s74.5 -157.666 74.5 -288.999
c0 -67.333 -6.66699 -125.166 -20 -173.499s-34 -88.166 -62 -119.499s-63.667 -54.5 -107 -69.5s-95 -22.5 -155 -22.5zM217 48.9971c84.667 0 147.168 25.501 187.501 76.501s60.5 132.167 60.5 243.5c0 56 -4.33301 104.167 -13 144.5s-22.167 73.166 -40.5 98.499
s-42 44 -71 56s-63.5 18 -103.5 18c-16 0 -31.333 -0.666992 -46 -2s-29.334 -3.33301 -44.001 -6v-624l38.5 -3.5c11 -1 21.5 -1.5 31.5 -1.5z" />
    <glyph glyph-name="uni01F2" unicode="&#x1f2;" horiz-adv-x="977" 
d="M610 48l242 425v5h-233v62h319v-48l-242 -425v-5h252v-62h-338v48zM198 -16c-19.333 0 -39 0.49707 -59 1.49707s-41.667 2.83301 -65 5.5v743c33.333 5.33301 62.333 9.33301 87 12s48 4 70 4c108 0 186.833 -30.667 236.5 -92s74.5 -157.666 74.5 -288.999
c0 -67.333 -6.66699 -125.166 -20 -173.499s-34 -88.166 -62 -119.499s-63.667 -54.5 -107 -69.5s-95 -22.5 -155 -22.5zM217 48.9971c84.667 0 147.168 25.501 187.501 76.501s60.5 132.167 60.5 243.5c0 56 -4.33301 104.167 -13 144.5s-22.167 73.166 -40.5 98.499
s-42 44 -71 56s-63.5 18 -103.5 18c-16 0 -31.333 -0.666992 -46 -2s-29.334 -3.33301 -44.001 -6v-624l38.5 -3.5c11 -1 21.5 -1.5 31.5 -1.5z" />
    <glyph glyph-name="uni01F3" unicode="&#x1f3;" horiz-adv-x="880" 
d="M513 48l242 425v5h-233v62h319v-48l-242 -425v-5h252v-62h-338v48zM214 -9c-59.333 0 -103.333 22.333 -132 67s-43 113.667 -43 207c0 91.333 19.5 161.5 58.5 210.5s94.833 73.5 167.5 73.5c12.667 0 25.167 -0.5 37.5 -1.5s27.833 -3.16699 46.5 -6.5v267h73v-808h-65
l-7 54h-3c-32 -42 -76.333 -63 -133 -63zM231 49c14.667 0 29.165 2.66895 43.498 8.00195s27 12.833 38 22.5s19.833 21.5 26.5 35.5s10 30 10 48v319c-18.667 4 -34.167 6.83301 -46.5 8.5s-25.166 2.5 -38.499 2.5c-49.333 0 -86.666 -18.333 -111.999 -55
s-38 -92.334 -38 -167.001s10 -130.334 30 -167.001s49 -55 87 -55z" />
    <glyph glyph-name="Gacute" unicode="&#x1f4;" horiz-adv-x="555" 
d="M297 790l75 139h77l-94 -143zM348 -10c-53.333 0.666992 -99.165 8.49805 -137.498 23.498s-70 37.833 -95 68.5s-43.333 69.834 -55 117.501s-17.5 104.167 -17.5 169.5c0 66.667 6 124 18 172s30.833 87.333 56.5 118s58.334 53.167 98.001 67.5s87.5 21.5 143.5 21.5
c17.333 0 39.166 -1.33301 65.499 -4s51.5 -6.66699 75.5 -12v-64c-50 10 -94.667 15 -134 15c-45.333 0 -83.5 -5.5 -114.5 -16.5s-56.333 -29 -76 -54s-33.834 -57.5 -42.501 -97.5s-13 -88.667 -13 -146c0 -56 4.33301 -103.667 13 -143s22.5 -71.666 41.5 -96.999
s43.167 -43.833 72.5 -55.5s64.666 -17.5 105.999 -17.5c9.33301 0 21 0.5 35 1.5s28.667 2.16699 44 3.5v315h69v-372c-32.667 -5.33301 -60.5 -9 -83.5 -11s-46.167 -3 -69.5 -3z" />
    <glyph glyph-name="gacute" unicode="&#x1f5;" horiz-adv-x="484" 
d="M230 617l73 183h75l-95 -190zM215 -220c-45.333 0 -89.333 7.66602 -132 22.999l6 61c22.667 -8 43.5 -13.833 62.5 -17.5s38.5 -5.5 58.5 -5.5c50 0 85.667 15.167 107 45.5s32.666 80.833 33.999 151.5v22h-4c-32 -41.333 -75.667 -62 -131 -62
c-60 0 -104.5 21.833 -133.5 65.5s-43.5 110.834 -43.5 201.501c0 91.333 19.5 161.5 58.5 210.5s94.833 73.5 167.5 73.5c28 0 54 -1.83301 78 -5.5s50.333 -9.5 79 -17.5v-463c0 -98 -16.667 -169.667 -50 -215s-85.666 -68 -156.999 -68zM231 53.999
c14.667 0 29.167 2.5 43.5 7.5s27 12.333 38 22s19.833 21.167 26.5 34.5s10 28.333 10 45v319c-19.333 4 -35 6.83301 -47 8.5s-24.667 2.5 -38 2.5c-99.333 0 -149 -74 -149 -222c0 -144.667 38.667 -217 116 -217z" />
    <glyph glyph-name="Aringacute" unicode="&#x1fa;" horiz-adv-x="551" 
d="M7 6l190.999 639.001c-11.333 9.33301 -19.666 21.333 -24.999 36s-8 30.667 -8 48c0 28 7.5 52.667 22.5 74s36.5 33.666 64.5 36.999l60 100h77l-71 -107c21.333 -7.33301 37.833 -20.5 49.5 -39.5s17.5 -40.5 17.5 -64.5c0 -34.667 -10.667 -61.667 -32 -81l191 -642
v-6h-70l-68 226h-261l-68 -226h-70v6zM273.999 663.001c18.667 0 33.165 6.16699 43.498 18.5s15.5 28.166 15.5 47.499s-5 35.166 -15 47.499s-24.667 18.5 -44 18.5s-33.666 -6.16699 -42.999 -18.5s-14 -28.166 -14 -47.499s4.83301 -35.166 14.5 -47.499
s23.834 -18.5 42.501 -18.5zM387.997 292.001l-78 270l-14 53h-40l-14 -53l-80 -270h226z" />
    <glyph glyph-name="aringacute" unicode="&#x1fb;" horiz-adv-x="444" 
d="M157 -5c-40 0 -71.332 12.501 -93.999 37.501s-34 59.5 -34 103.5c0 99.333 62.667 154 188 164l96 7v58c0 45.333 -8.5 77.166 -25.5 95.499s-45.167 27.5 -84.5 27.5c-16.667 0 -37.334 -1.5 -62.001 -4.5s-47 -7.16699 -67 -12.5l-6 60
c25.333 5.33301 50.833 9.5 76.5 12.5s49.167 4.5 70.5 4.5c58.667 0 101.667 -13.667 129 -41s41 -70 41 -128v-379h-61l-7 65h-6c-21.333 -17.333 -44.833 -33.333 -70.5 -48s-53.5 -22 -83.5 -22zM231.001 611.001c-31.333 0 -55.501 9.83301 -72.501 29.5
s-25.5 44.5 -25.5 74.5c0 28 7.83301 51.833 23.5 71.5s38.5 30.167 68.5 31.5l65 162h75l-87 -173c16.667 -8 29.5 -20.167 38.5 -36.5s13.5 -34.833 13.5 -55.5c0 -30 -8.66699 -54.833 -26 -74.5s-41.666 -29.5 -72.999 -29.5zM182 55.001
c11.333 0 23.001 2.16797 35.001 6.50098s23.833 9.66602 35.5 15.999s22.667 13 33 20s19.5 12.833 27.5 17.5v140l-81 -7c-46.667 -4 -79.834 -14.333 -99.501 -31s-29.5 -41.667 -29.5 -75c0 -28 6.83301 -49.5 20.5 -64.5s33.167 -22.5 58.5 -22.5zM231.001 652.002
c17.333 0 30.666 6 39.999 18s14 27 14 45c0 17.333 -4.66699 32 -14 44s-22.666 18 -39.999 18s-30.333 -6 -39 -18s-13 -26.667 -13 -44c0 -18 4.5 -33 13.5 -45s21.833 -18 38.5 -18z" />
    <glyph glyph-name="AEacute" unicode="&#x1fc;" horiz-adv-x="754" 
d="M419 790l75 139h77l-94 -143zM5 6l239 734h463v-66h-287l13 -267h248v-65h-245l14 -276h266v-66h-338l-10 226h-215l-74 -226h-74v6zM174 292h192l-16 385h-50z" />
    <glyph glyph-name="aeacute" unicode="&#x1fd;" horiz-adv-x="721" 
d="M342 617l73 183h75l-95 -190zM523 -9c-38.667 0 -71.666 7.99902 -98.999 23.999s-49.333 39 -66 69l-6 1l-62 -41.5c-18 -11.667 -34.5 -21 -49.5 -28s-29.167 -12.167 -42.5 -15.5s-27 -5 -41 -5c-40 0 -71.333 12.5 -94 37.5s-34 59.5 -34 103.5
c0 99.333 62.667 154 188 164l96 7v66c-0.666992 41.333 -9.5 70.833 -26.5 88.5s-44.833 26.5 -83.5 26.5c-17.333 0 -38.333 -1.5 -63 -4.5s-46.667 -7.16699 -66 -12.5l-6 60c26.667 5.33301 52.834 9.5 78.501 12.5s48.5 4.5 68.5 4.5c75.333 0 122 -32 140 -96h5
c32 64.667 84.667 97 158 97c55.333 0 96.833 -19.667 124.5 -59s41.5 -97.333 41.5 -174c0 -16.667 -0.333008 -30.167 -1 -40.5s-1.66699 -20.833 -3 -31.5h-294c1.33301 -63.333 13.666 -111.166 36.999 -143.499s57.666 -48.5 102.999 -48.5c20 0 40.833 2.33301 62.5 7
s45.167 12.667 70.5 24l5 -61c-20 -9.33301 -42.5 -16.833 -67.5 -22.5s-49.5 -8.5 -73.5 -8.5zM182.001 54.999c19.333 0 40.167 6.66699 62.5 20s50.166 31 83.499 53c-5.33301 14.667 -9.16602 34 -11.499 58s-3.5 47 -3.5 69l-81 -7c-46 -4 -79 -14.333 -99 -31
s-30 -41.667 -30 -75c0 -28 6.83301 -49.5 20.5 -64.5s33.167 -22.5 58.5 -22.5zM616.002 296.999c-2 68 -10.668 117.001 -26.001 147.001s-39.666 45 -72.999 45c-40 0 -71.167 -16.333 -93.5 -49s-34.833 -80.334 -37.5 -143.001h230z" />
    <glyph glyph-name="Oslashacute" unicode="&#x1fe;" horiz-adv-x="621" 
d="M97 112c-32 62 -47.999 147.666 -47.999 256.999c0 128.667 21.5 224.334 64.5 287.001s108.833 94 197.5 94c78 0 139 -25.333 183 -76l46 66h64l-79 -113c32.667 -63.333 49 -149.333 49 -258c0 -252.667 -87.667 -379 -263 -379c-78.667 0 -139.334 25 -182.001 75
l-46 -65h-65zM124.001 368.999c0 -78.667 7.33203 -141.333 21.999 -188l304 432c-29.333 48 -75.666 72 -138.999 72c-65.333 0 -112.833 -25 -142.5 -75s-44.5 -130.333 -44.5 -241zM311 56c32.667 0 60.833 6.00195 84.5 18.002s43.167 30.667 58.5 56
s26.5 57.666 33.5 96.999s10.5 86.666 10.5 141.999c0 76 -7.66699 138.667 -23 188l-304 -432c15.333 -24 34.5 -41.5 57.5 -52.5s50.5 -16.5 82.5 -16.5zM275.999 790.002l75 139h77l-94 -143z" />
    <glyph glyph-name="oslashacute" unicode="&#x1ff;" horiz-adv-x="492" 
d="M81 80c-26.667 47.333 -40.001 110.667 -40.001 190c0 92 17.333 161.667 52 209s85.667 71 153 71c54.667 0 99.334 -16.667 134.001 -50l28 40h56l-55 -78c28 -46 42 -110 42 -192c0 -92 -17.333 -161.5 -52 -208.5s-85.667 -70.5 -153 -70.5
c-55.333 0 -100.333 16.667 -135 50l-29 -41h-58zM245.999 53.001c44.667 0 77.666 17.167 98.999 51.5s32 89.5 32 165.5c0 50.667 -5 92.667 -15 126l-211 -299c20.667 -29.333 52.334 -44 95.001 -44zM114.998 270.001c0 -51.333 4.33301 -92.332 13 -122.999l211 297
c-21.333 30 -52.333 45 -93 45c-46 0 -79.333 -17.333 -100 -52s-31 -90.334 -31 -167.001zM203.998 617.002l73 183h75l-95 -190z" />
    <glyph glyph-name="Adblgrave" unicode="&#x200;" horiz-adv-x="551" 
d="M7 6l215 734h105l217 -734v-6h-70l-69 227h-260l-68 -227h-70v6zM389 290l-81 272l-30 110h-7l-29 -110l-81 -272h228zM183 786l-94 143h67l75 -130zM328 786l-95 143h68l75 -130z" />
    <glyph glyph-name="adblgrave" unicode="&#x201;" horiz-adv-x="444" 
d="M157 -5c-40 0 -71.332 12.501 -93.999 37.501s-34 59.5 -34 103.5c0 99.333 62.667 154 188 164l96 7v58c0 45.333 -8.5 77.166 -25.5 95.499s-45.167 27.5 -84.5 27.5c-16.667 0 -37.334 -1.5 -62.001 -4.5s-47 -7.16699 -67 -12.5l-6 60
c25.333 5.33301 50.833 9.5 76.5 12.5s49.167 4.5 70.5 4.5c58.667 0 101.667 -13.667 129 -41s41 -70 41 -128v-379h-61l-7 65h-6c-21.333 -17.333 -44.833 -33.333 -70.5 -48s-53.5 -22 -83.5 -22zM182.001 55.001c11.333 0 23.001 2.16797 35.001 6.50098
s23.833 9.66602 35.5 15.999s22.667 13 33 20s19.5 12.833 27.5 17.5v140l-81 -7c-46.667 -4 -79.834 -14.333 -99.501 -31s-29.5 -41.667 -29.5 -75c0 -28 6.83301 -49.5 20.5 -64.5s33.167 -22.5 58.5 -22.5zM136.002 610.002l-96 190h69l71 -180zM291.002 610.002
l-96 190h69l72 -180z" />
    <glyph glyph-name="Ainvertedbreve" unicode="&#x202;" horiz-adv-x="551" 
d="M7 6l215 734h105l217 -734v-6h-70l-69 227h-260l-68 -227h-70v6zM389 290l-81 272l-30 110h-7l-29 -110l-81 -272h228zM367 819c0 33.333 -7.83301 58.167 -23.5 74.5s-38.167 24.5 -67.5 24.5c-61.333 0 -92 -33 -92 -99h-57c0 46 13 81.833 39 107.5
s62.667 38.5 110 38.5c46.667 0 83 -12.833 109 -38.5s39 -61.5 39 -107.5h-57z" />
    <glyph glyph-name="ainvertedbreve" unicode="&#x203;" horiz-adv-x="444" 
d="M157 -5c-40 0 -71.332 12.501 -93.999 37.501s-34 59.5 -34 103.5c0 99.333 62.667 154 188 164l96 7v58c0 45.333 -8.5 77.166 -25.5 95.499s-45.167 27.5 -84.5 27.5c-16.667 0 -37.334 -1.5 -62.001 -4.5s-47 -7.16699 -67 -12.5l-6 60
c25.333 5.33301 50.833 9.5 76.5 12.5s49.167 4.5 70.5 4.5c58.667 0 101.667 -13.667 129 -41s41 -70 41 -128v-379h-61l-7 65h-6c-21.333 -17.333 -44.833 -33.333 -70.5 -48s-53.5 -22 -83.5 -22zM182.001 55.001c11.333 0 23.001 2.16797 35.001 6.50098
s23.833 9.66602 35.5 15.999s22.667 13 33 20s19.5 12.833 27.5 17.5v140l-81 -7c-46.667 -4 -79.834 -14.333 -99.501 -31s-29.5 -41.667 -29.5 -75c0 -28 6.83301 -49.5 20.5 -64.5s33.167 -22.5 58.5 -22.5zM86.002 622.002c1.33301 45.333 14.833 80 40.5 104
s61.5 36 107.5 36s82 -12 108 -36s39.333 -58.667 40 -104h-57c0 30 -8.16699 52.833 -24.5 68.5s-38.5 23.5 -66.5 23.5s-50 -7.83301 -66 -23.5s-24.333 -38.5 -25 -68.5h-57z" />
    <glyph glyph-name="Edblgrave" unicode="&#x204;" horiz-adv-x="504" 
d="M74 740h386v-66h-313v-267h280v-65h-280v-276h322v-66h-395v740zM174 786l-94 143h67l75 -130zM319 786l-95 143h68l75 -130z" />
    <glyph glyph-name="edblgrave" unicode="&#x205;" horiz-adv-x="446" 
d="M133 610l-96 190h69l71 -180zM288 610l-96 190h69l72 -180zM248 -9c-67.333 0 -119 23.168 -155 69.501s-54 112.833 -54 199.5c0 94.667 17.333 166.5 52 215.5s86 73.5 154 73.5c54.667 0 96 -19.667 124 -59s42 -97.333 42 -174
c0 -16.667 -0.333008 -30.334 -1 -41.001s-1.66699 -21.667 -3 -33h-294c2.66699 -64.667 15.334 -112.5 38.001 -143.5s56 -46.5 100 -46.5c21.333 0 42.666 2.33301 63.999 7s44.333 12.667 69 24l5 -61c-19.333 -9.33301 -41.5 -16.833 -66.5 -22.5
s-49.833 -8.5 -74.5 -8.5zM243 489.001c-39.333 0 -69.833 -16 -91.5 -48s-34.167 -79.333 -37.5 -142h228c0 67.333 -8 115.833 -24 145.5s-41 44.5 -75 44.5z" />
    <glyph glyph-name="Einvertedbreve" unicode="&#x206;" horiz-adv-x="504" 
d="M74 740h386v-66h-313v-267h280v-65h-280v-276h322v-66h-395v740zM357 819c0 33.333 -7.83301 58.167 -23.5 74.5s-38.167 24.5 -67.5 24.5c-61.333 0 -92 -33 -92 -99h-57c0 46 13 81.833 39 107.5s62.667 38.5 110 38.5c46.667 0 83 -12.833 109 -38.5
s39 -61.5 39 -107.5h-57z" />
    <glyph glyph-name="einvertedbreve" unicode="&#x207;" horiz-adv-x="446" 
d="M83 622c1.33301 45.333 14.833 80 40.5 104s61.5 36 107.5 36s82 -12 108 -36s39.333 -58.667 40 -104h-57c0 30 -8.16699 52.833 -24.5 68.5s-38.5 23.5 -66.5 23.5s-50 -7.83301 -66 -23.5s-24.333 -38.5 -25 -68.5h-57zM248 -9c-67.333 0 -119 23.168 -155 69.501
s-54 112.833 -54 199.5c0 94.667 17.333 166.5 52 215.5s86 73.5 154 73.5c54.667 0 96 -19.667 124 -59s42 -97.333 42 -174c0 -16.667 -0.333008 -30.334 -1 -41.001s-1.66699 -21.667 -3 -33h-294c2.66699 -64.667 15.334 -112.5 38.001 -143.5s56 -46.5 100 -46.5
c21.333 0 42.666 2.33301 63.999 7s44.333 12.667 69 24l5 -61c-19.333 -9.33301 -41.5 -16.833 -66.5 -22.5s-49.833 -8.5 -74.5 -8.5zM243 489.001c-39.333 0 -69.833 -16 -91.5 -48s-34.167 -79.333 -37.5 -142h228c0 67.333 -8 115.833 -24 145.5s-41 44.5 -75 44.5z
" />
    <glyph glyph-name="Idblgrave" unicode="&#x208;" horiz-adv-x="221" 
d="M74 740h73v-740h-73v740zM20 786l-94 143h67l75 -130zM165 786l-95 143h68l75 -130z" />
    <glyph glyph-name="idblgrave" unicode="&#x209;" horiz-adv-x="201" 
d="M12 610l-96 190h69l71 -180zM167 610l-96 190h69l72 -180zM64 540h73v-540h-73v540z" />
    <glyph glyph-name="Iinvertedbreve" unicode="&#x20a;" horiz-adv-x="221" 
d="M74 740h73v-740h-73v740zM205 819c0 33.333 -7.83301 58.167 -23.5 74.5s-38.167 24.5 -67.5 24.5c-61.333 0 -92 -33 -92 -99h-57c0 46 13 81.833 39 107.5s62.667 38.5 110 38.5c46.667 0 83 -12.833 109 -38.5s39 -61.5 39 -107.5h-57z" />
    <glyph glyph-name="iinvertedbreve" unicode="&#x20b;" horiz-adv-x="201" 
d="M-38 622c1.33301 45.333 14.834 80 40.501 104s61.5 36 107.5 36c46.667 0 82.834 -12 108.501 -36s39.167 -58.667 40.5 -104h-58c-0.666992 30 -8.83398 52.833 -24.501 68.5s-37.834 23.5 -66.501 23.5c-28 0 -50.167 -7.83301 -66.5 -23.5s-24.5 -38.5 -24.5 -68.5
h-57zM64.001 540h73v-540h-73v540z" />
    <glyph glyph-name="Odblgrave" unicode="&#x20c;" horiz-adv-x="612" 
d="M305 -10c-174.667 0 -261.999 126.333 -261.999 379c0 128.667 21.5 224.334 64.5 287.001s108.833 94 197.5 94c89.333 0 155.666 -31.333 198.999 -94s65 -158.334 65 -287.001c0 -252.667 -88 -379 -264 -379zM305.001 56c32.667 0 60.999 6 84.999 18
s43.5 30.667 58.5 56s26.167 57.666 33.5 96.999s11 86.666 11 141.999c0 110 -15 190.167 -45 240.5s-77.667 75.5 -143 75.5c-32.667 0 -60.667 -6 -84 -18s-42.5 -30.833 -57.5 -56.5s-26.167 -58.5 -33.5 -98.5s-11 -87.667 -11 -143s3.5 -102.666 10.5 -141.999
s18 -71.666 33 -96.999s34.333 -44 58 -56s51.834 -18 84.501 -18zM214 786l-94 143h67l75 -130zM359 786l-95 143h68l75 -130z" />
    <glyph glyph-name="odblgrave" unicode="&#x20d;" horiz-adv-x="488" 
d="M145 610l-96 190h69l71 -180zM300 610l-96 190h69l72 -180zM244 -9c-67.333 0 -118.333 23.668 -153 71.001s-52 116.666 -52 207.999c0 92 17.333 161.667 52 209s85.667 71 153 71s118.333 -23.667 153 -71s52 -117 52 -209s-17.333 -161.5 -52 -208.5
s-85.667 -70.5 -153 -70.5zM244 53.001c45.333 0 78.5 17.167 99.5 51.5s31.5 89.5 31.5 165.5c0 76.667 -10.5 132.334 -31.5 167.001s-54.167 52 -99.5 52s-78.5 -17.333 -99.5 -52s-31.5 -90.334 -31.5 -167.001c0 -76 10.5 -131.167 31.5 -165.5
s54.167 -51.5 99.5 -51.5z" />
    <glyph glyph-name="Oinvertedbreve" unicode="&#x20e;" horiz-adv-x="612" 
d="M305 -10c-174.667 0 -261.999 126.333 -261.999 379c0 128.667 21.5 224.334 64.5 287.001s108.833 94 197.5 94c89.333 0 155.666 -31.333 198.999 -94s65 -158.334 65 -287.001c0 -252.667 -88 -379 -264 -379zM305.001 56c32.667 0 60.999 6 84.999 18
s43.5 30.667 58.5 56s26.167 57.666 33.5 96.999s11 86.666 11 141.999c0 110 -15 190.167 -45 240.5s-77.667 75.5 -143 75.5c-32.667 0 -60.667 -6 -84 -18s-42.5 -30.833 -57.5 -56.5s-26.167 -58.5 -33.5 -98.5s-11 -87.667 -11 -143s3.5 -102.666 10.5 -141.999
s18 -71.666 33 -96.999s34.333 -44 58 -56s51.834 -18 84.501 -18zM398 819c0 33.333 -7.83301 58.167 -23.5 74.5s-38.167 24.5 -67.5 24.5c-61.333 0 -92 -33 -92 -99h-57c0 46 13 81.833 39 107.5s62.667 38.5 110 38.5c46.667 0 83 -12.833 109 -38.5
s39 -61.5 39 -107.5h-57z" />
    <glyph glyph-name="oinvertedbreve" unicode="&#x20f;" horiz-adv-x="488" 
d="M95 622c1.33301 45.333 14.833 80 40.5 104s61.5 36 107.5 36s82 -12 108 -36s39.333 -58.667 40 -104h-57c0 30 -8.16699 52.833 -24.5 68.5s-38.5 23.5 -66.5 23.5s-50 -7.83301 -66 -23.5s-24.333 -38.5 -25 -68.5h-57zM244 -9c-67.333 0 -118.333 23.668 -153 71.001
s-52 116.666 -52 207.999c0 92 17.333 161.667 52 209s85.667 71 153 71s118.333 -23.667 153 -71s52 -117 52 -209s-17.333 -161.5 -52 -208.5s-85.667 -70.5 -153 -70.5zM244 53.001c45.333 0 78.5 17.167 99.5 51.5s31.5 89.5 31.5 165.5
c0 76.667 -10.5 132.334 -31.5 167.001s-54.167 52 -99.5 52s-78.5 -17.333 -99.5 -52s-31.5 -90.334 -31.5 -167.001c0 -76 10.5 -131.167 31.5 -165.5s54.167 -51.5 99.5 -51.5z" />
    <glyph glyph-name="Rdblgrave" unicode="&#x210;" horiz-adv-x="539" 
d="M297 277c-11.333 -1.33301 -22.833 -2.33203 -34.5 -2.99902s-23.834 -1 -36.501 -1c-12 0 -25.167 0.166992 -39.5 0.5s-27.5 1.16602 -39.5 2.49902v-276h-73v735c26 5.33301 51.833 9.33301 77.5 12s51.167 4 76.5 4c94 0 162.333 -19 205 -57s64 -99 64 -183
c0 -58.667 -10.667 -105.667 -32 -141s-54.666 -61 -99.999 -77l142 -293h-78zM233 335.001c66.667 0 114.833 13.833 144.5 41.5s44.5 72.5 44.5 134.5c0 61.333 -14.333 105.833 -43 133.5s-75 41.5 -139 41.5c-11.333 0 -25 -0.666992 -41 -2s-33.333 -3.33301 -52 -6
v-337c32 -4 60.667 -6 86 -6zM182.999 786.001l-94 143h67l75 -130zM327.999 786.001l-95 143h68l75 -130z" />
    <glyph glyph-name="rdblgrave" unicode="&#x211;" horiz-adv-x="313" 
d="M83 610l-96 190h69l71 -180zM238 610l-96 190h69l72 -180zM62 540h63l5 -65h5c13.333 12 33.833 25 61.5 39s56.834 25.667 87.501 35h17v-77h-29c-28.667 -4.66699 -54.834 -11.5 -78.501 -20.5s-43.167 -19.5 -58.5 -31.5v-420h-73v540z" />
    <glyph glyph-name="Rinvertedbreve" unicode="&#x212;" horiz-adv-x="539" 
d="M297 277c-11.333 -1.33301 -22.833 -2.33203 -34.5 -2.99902s-23.834 -1 -36.501 -1c-12 0 -25.167 0.166992 -39.5 0.5s-27.5 1.16602 -39.5 2.49902v-276h-73v735c26 5.33301 51.833 9.33301 77.5 12s51.167 4 76.5 4c94 0 162.333 -19 205 -57s64 -99 64 -183
c0 -58.667 -10.667 -105.667 -32 -141s-54.666 -61 -99.999 -77l142 -293h-78zM233 335.001c66.667 0 114.833 13.833 144.5 41.5s44.5 72.5 44.5 134.5c0 61.333 -14.333 105.833 -43 133.5s-75 41.5 -139 41.5c-11.333 0 -25 -0.666992 -41 -2s-33.333 -3.33301 -52 -6
v-337c32 -4 60.667 -6 86 -6zM366.999 819.001c0 33.333 -7.83301 58.167 -23.5 74.5s-38.167 24.5 -67.5 24.5c-61.333 0 -92 -33 -92 -99h-57c0 46 13 81.833 39 107.5s62.667 38.5 110 38.5c46.667 0 83 -12.833 109 -38.5s39 -61.5 39 -107.5h-57z" />
    <glyph glyph-name="rinvertedbreve" unicode="&#x213;" horiz-adv-x="312" 
d="M32 622c1.33301 45.333 14.833 80 40.5 104s61.5 36 107.5 36s82 -12 108 -36s39.333 -58.667 40 -104h-57c0 30 -8.16699 52.833 -24.5 68.5s-38.5 23.5 -66.5 23.5s-50 -7.83301 -66 -23.5s-24.333 -38.5 -25 -68.5h-57zM62 540h63l5 -65h5
c13.333 12 33.833 25 61.5 39s56.834 25.667 87.501 35h17v-77h-29c-28.667 -4.66699 -54.834 -11.5 -78.501 -20.5s-43.167 -19.5 -58.5 -31.5v-420h-73v540z" />
    <glyph glyph-name="Udblgrave" unicode="&#x214;" horiz-adv-x="632" 
d="M316 -10c-44.667 0 -82.667 5.83301 -114 17.5s-57 29.834 -77 54.501s-34.5 55.834 -43.5 93.501s-13.5 82.5 -13.5 134.5v450h73v-448c0 -82.667 13.833 -142.667 41.5 -180s72.167 -56 133.5 -56c62 0 106.5 18.5 133.5 55.5s40.5 97.167 40.5 180.5v448h75v-450
c0 -52 -4.66699 -96.833 -14 -134.5s-24 -68.834 -44 -93.501s-45.667 -42.834 -77 -54.501s-69.333 -17.5 -114 -17.5zM221 786l-94 143h67l75 -130zM366 786l-95 143h68l75 -130z" />
    <glyph glyph-name="udblgrave" unicode="&#x215;" horiz-adv-x="479" 
d="M146 610l-96 190h69l71 -180zM301 610l-96 190h69l72 -180zM185 -10c-43.333 0 -75.335 11.333 -96.002 34s-31 58.667 -31 108v408h73v-392c0 -34 5.33301 -57.667 16 -71s29.334 -20 56.001 -20c22 0 43.5 4.5 64.5 13.5s46.167 24.167 75.5 45.5v424h73v-540h-62
l-6 57h-4c-34 -24 -63.167 -41.167 -87.5 -51.5s-48.166 -15.5 -71.499 -15.5z" />
    <glyph glyph-name="Uinvertedbreve" unicode="&#x216;" horiz-adv-x="632" 
d="M316 -10c-44.667 0 -82.667 5.83301 -114 17.5s-57 29.834 -77 54.501s-34.5 55.834 -43.5 93.501s-13.5 82.5 -13.5 134.5v450h73v-448c0 -82.667 13.833 -142.667 41.5 -180s72.167 -56 133.5 -56c62 0 106.5 18.5 133.5 55.5s40.5 97.167 40.5 180.5v448h75v-450
c0 -52 -4.66699 -96.833 -14 -134.5s-24 -68.834 -44 -93.501s-45.667 -42.834 -77 -54.501s-69.333 -17.5 -114 -17.5zM406 819c0 33.333 -7.83301 58.167 -23.5 74.5s-38.167 24.5 -67.5 24.5c-61.333 0 -92 -33 -92 -99h-57c0 46 13 81.833 39 107.5
s62.667 38.5 110 38.5c46.667 0 83 -12.833 109 -38.5s39 -61.5 39 -107.5h-57z" />
    <glyph glyph-name="uinvertedbreve" unicode="&#x217;" horiz-adv-x="479" 
d="M96 622c1.33301 45.333 14.833 80 40.5 104s61.5 36 107.5 36s82 -12 108 -36s39.333 -58.667 40 -104h-57c0 30 -8.16699 52.833 -24.5 68.5s-38.5 23.5 -66.5 23.5s-50 -7.83301 -66 -23.5s-24.333 -38.5 -25 -68.5h-57zM185 -10c-43.333 0 -75.335 11.333 -96.002 34
s-31 58.667 -31 108v408h73v-392c0 -34 5.33301 -57.667 16 -71s29.334 -20 56.001 -20c22 0 43.5 4.5 64.5 13.5s46.167 24.167 75.5 45.5v424h73v-540h-62l-6 57h-4c-34 -24 -63.167 -41.167 -87.5 -51.5s-48.166 -15.5 -71.499 -15.5z" />
    <glyph glyph-name="uni0218" unicode="&#x218;" horiz-adv-x="470" 
d="M210 -67h75l-63 -153h-61zM227 -13c-14.667 0 -30.5029 0.831055 -47.5029 2.49805s-34.167 4 -51.5 7s-34.166 6.5 -50.499 10.5s-31.166 8.66699 -44.499 14l7 65c9.33301 -4.66699 21.333 -9 36 -13s30.167 -7.5 46.5 -10.5s32.833 -5.5 49.5 -7.5s32 -3 46 -3
c47.333 0 83.833 11.667 109.5 35s38.5 56.666 38.5 99.999c0 37.333 -12.333 67.5 -37 90.5s-63 44.833 -115 65.5c-28.667 12 -53.667 24.167 -75 36.5s-39 26.333 -53 42s-24.5 33.834 -31.5 54.501s-10.5 45 -10.5 73c0 30.667 5 58.5 15 83.5s24.333 46.333 43 64
s41.334 31.334 68.001 41.001s56.334 14.5 89.001 14.5c24 0 48.5 -1.66699 73.5 -5s52.167 -8.66602 81.5 -15.999l-5 -64c-30 7.33301 -57.167 12.5 -81.5 15.5s-45.833 4.5 -64.5 4.5c-44 0 -79 -12.5 -105 -37.5s-39 -58.5 -39 -100.5c0 -18 2.83301 -33.667 8.5 -47
s14.5 -25.5 26.5 -36.5s27.167 -21.5 45.5 -31.5s40.166 -20 65.499 -30c30 -12.667 56 -25.667 78 -39s40.167 -28.333 54.5 -45s24.833 -35.667 31.5 -57s10 -46 10 -74c0 -63.333 -18.667 -112.833 -56 -148.5s-89.333 -53.5 -156 -53.5z" />
    <glyph glyph-name="uni0219" unicode="&#x219;" horiz-adv-x="371" 
d="M158 -67h75l-63 -153h-61zM174 -11c-19.333 0 -39.502 1.66699 -60.502 5s-46.5 8.66602 -76.5 15.999v61c21.333 -7.33301 43.5 -12.833 66.5 -16.5s44.833 -5.5 65.5 -5.5c31.333 0 55.5 8.16699 72.5 24.5s25.5 39.5 25.5 69.5c0 26.667 -6.66699 48 -20 64
s-35 27.667 -65 35c-16 4 -32.167 8.5 -48.5 13.5s-31.333 13 -45 24s-24.834 25.833 -33.501 44.5s-13 43.667 -13 75c0 48 14 85.5 42 112.5s66.667 40.5 116 40.5c17.333 0 34.833 -1.16699 52.5 -3.5s39.834 -6.5 66.501 -12.5v-61c-26 6.66699 -46.667 11 -62 13
s-30.333 3 -45 3c-31.333 0 -56 -7.83301 -74 -23.5s-27 -37.5 -27 -65.5c0 -17.333 2.5 -31.333 7.5 -42s11.667 -19.5 20 -26.5s18 -12.5 29 -16.5s22.833 -8 35.5 -12c20.667 -6 39.334 -13 56.001 -21s30.834 -18 42.501 -30s20.667 -26.667 27 -44
s9.5 -38.666 9.5 -63.999c0 -48 -14.833 -86.167 -44.5 -114.5s-69.5 -42.5 -119.5 -42.5z" />
    <glyph glyph-name="uni021A" unicode="&#x21a;" horiz-adv-x="474" 
d="M202 -67h75l-63 -153h-61zM199 673h-185v67h447v-67h-187v-673h-75v673z" />
    <glyph glyph-name="uni021B" unicode="&#x21b;" horiz-adv-x="330" 
d="M176 -67h75l-63 -153h-61zM246 -5c-91.333 0 -137 48.001 -137 144.001v336h-97v65h100l10 134l59 11v-145h137v-65h-137v-323c0 -32.667 7 -56.834 21 -72.501s34 -23.5 60 -23.5c7.33301 0 16 0.5 26 1.5s19 2.83301 27 5.5v-60c-26.667 -5.33301 -49.667 -8 -69 -8z
" />
    <glyph glyph-name="dotlessj" unicode="&#x237;" horiz-adv-x="197" 
d="M-7 -200c12.667 24.667 23.499 49.1689 32.499 73.502s16.333 49.5 22 75.5s9.83398 53.833 12.501 83.5s4 62.167 4 97.5v32.5v69.5c0 27.333 -0.166992 57.166 -0.5 89.499s-0.5 63.166 -0.5 92.499v78.5v47.5h73v-453c-1.33301 -54 -9.5 -106.833 -24.5 -158.5
s-36.833 -101.167 -65.5 -148.5z" />
    <glyph glyph-name="schwa" unicode="&#x259;" horiz-adv-x="453" 
d="M200 549c68.667 0 121.499 -23.167 158.499 -69.5s55.5 -112.833 55.5 -199.5c0 -94 -17.833 -165.667 -53.5 -215s-87.5 -74 -155.5 -74c-112.667 0 -169 77.667 -169 233c0 15.333 0.333008 28.5 1 39.5s2 22.167 4 33.5h300c-4 127.333 -52.333 191 -145 191
c-22 0 -44 -2.33301 -66 -7s-45 -12.667 -69 -24l-5 61c20.667 10 43.834 17.667 69.501 23s50.5 8 74.5 8zM207.999 51c40.667 0 72.167 16.168 94.5 48.501s35.166 80.166 38.499 143.499h-238c0.666992 -68 9.33398 -117 26.001 -147s43 -45 79 -45z" />
    <glyph glyph-name="apostrophe" unicode="&#x2bc;" horiz-adv-x="189" 
d="M129 808v-4l-30 -224h-32v228h62z" />
    <glyph glyph-name="circumflex" unicode="&#x2c6;" horiz-adv-x="346" 
d="M33 694l134 72l133 -72v-61l-133 71l-134 -71v61z" />
    <glyph glyph-name="caron" unicode="&#x2c7;" horiz-adv-x="339" 
d="M33 776l134 -72l133 72v-61l-133 -72l-134 72v61z" />
    <glyph glyph-name="uni02C9" unicode="&#x2c9;" horiz-adv-x="370" 
d="M57 698h258v-54h-258v54z" />
    <glyph glyph-name="breve" unicode="&#x2d8;" horiz-adv-x="397" 
d="M196 619c-46 0 -81.833 12.167 -107.5 36.5s-39.167 59.166 -40.5 104.499h57c0 -29.333 8 -52 24 -68s38.333 -24 67 -24s51 8 67 24s24 38.667 24 68h57c-0.666992 -45.333 -14 -80.166 -40 -104.499s-62 -36.5 -108 -36.5z" />
    <glyph glyph-name="dotaccent" unicode="&#x2d9;" horiz-adv-x="220" 
d="M102 625c-15.333 0 -27.166 3.83301 -35.499 11.5s-12.5 19.5 -12.5 35.5c0 16.667 4.16699 28.667 12.5 36s20.166 11 35.499 11c14.667 0 26.334 -3.66699 35.001 -11s13 -19.333 13 -36s-4.33301 -28.667 -13 -36s-20.334 -11 -35.001 -11z" />
    <glyph glyph-name="ring" unicode="&#x2da;" horiz-adv-x="294" 
d="M144 611c-31.333 0 -55.501 9.83301 -72.501 29.5s-25.5 44.5 -25.5 74.5c0 29.333 8.33301 53.833 25 73.5s41 29.5 73 29.5s56.5 -9.83301 73.5 -29.5s25.5 -44.167 25.5 -73.5c0 -30 -8.66699 -54.833 -26 -74.5s-41.666 -29.5 -72.999 -29.5zM143.999 652
c17.333 0 30.666 6 39.999 18s14 27 14 45c0 17.333 -4.66699 32 -14 44s-22.666 18 -39.999 18s-30.333 -6 -39 -18s-13 -26.667 -13 -44c0 -18 4.5 -33 13.5 -45s21.833 -18 38.5 -18z" />
    <glyph glyph-name="ogonek" unicode="&#x2db;" horiz-adv-x="251" 
d="M141 -220c-30 0 -53 7.5 -69 22.5s-24 36.833 -24 65.5c0 50 29.667 94 89 132h61v-16c-32 -13.333 -55.667 -29.833 -71 -49.5s-23 -40.167 -23 -61.5c0 -27.333 15 -41 45 -41c16.667 0 33 3.66699 49 11v-51c-19.333 -8 -38.333 -12 -57 -12z" />
    <glyph glyph-name="tilde" unicode="&#x2dc;" horiz-adv-x="401" 
d="M34 659c11.333 19.333 26.1699 35.332 44.5029 47.999s36.5 19 54.5 19c12.667 0 24.334 -2.5 35.001 -7.5s21 -10.5 31 -16.5s20 -11.5 30 -16.5s20.667 -7.5 32 -7.5s21.666 3.66699 30.999 11s17.666 17.333 24.999 30l29 -25c-9.33301 -22 -23 -39 -41 -51
s-36.333 -18 -55 -18c-12.667 0 -24.334 2.33301 -35.001 7s-21 10 -31 16s-20 11.333 -30 16s-20.667 7 -32 7s-22.333 -3.66699 -33 -11s-20.334 -16.666 -29.001 -27.999z" />
    <glyph glyph-name="hungarumlaut" unicode="&#x2dd;" horiz-adv-x="366" 
d="M39 620l73 180h69l-96 -190zM194 620l73 180h69l-96 -190z" />
    <glyph glyph-name="uni030F" unicode="&#x30f;" horiz-adv-x="373" 
d="M126 610l-96 190h69l71 -180zM281 610l-96 190h69l72 -180z" />
    <glyph glyph-name="uni0311" unicode="&#x311;" horiz-adv-x="394" 
d="M48 622c1.33301 45.333 14.833 80 40.5 104s61.5 36 107.5 36s82 -12 108 -36s39.333 -58.667 40 -104h-57c0 30 -8.16699 52.833 -24.5 68.5s-38.5 23.5 -66.5 23.5s-50 -7.83301 -66 -23.5s-24.333 -38.5 -25 -68.5h-57v0z" />
    <glyph glyph-name="uni0394" unicode="&#x394;" horiz-adv-x="561" 
d="M232 740h97l229 -740h-555zM467 66l-187 601l-186 -601h373z" />
    <glyph glyph-name="uni03A9" unicode="&#x3a9;" horiz-adv-x="703" 
d="M38 66l200.001 -4c-20.667 12.667 -42.167 28.667 -64.5 48s-42.666 42.833 -60.999 70.5s-33.5 60.167 -45.5 97.5s-18 80.666 -18 129.999c0 51.333 7.16699 98 21.5 140s34.833 78 61.5 108s58.5 53.167 95.5 69.5s78.5 24.5 124.5 24.5
c45.333 0 86.666 -8.16699 123.999 -24.5s69.166 -39.5 95.499 -69.5s46.833 -66 61.5 -108s22 -88.667 22 -140c0 -49.333 -6 -92.666 -18 -129.999s-27.333 -70 -46 -98s-39.167 -51.667 -61.5 -71s-43.833 -35.333 -64.5 -48l201 5v-66h-273v57
c14 9.33301 31.667 21.833 53 37.5s42 37 62 64s37.333 60.667 52 101s22 89.833 22 148.5c0 42 -5.5 80.333 -16.5 115s-26.5 64.334 -46.5 89.001s-44.167 43.667 -72.5 57s-59.833 20 -94.5 20s-66 -6.66699 -94 -20s-52 -32.333 -72 -57s-35.5 -54.334 -46.5 -89.001
s-16.5 -73 -16.5 -115c0 -58.667 7.16699 -108.167 21.5 -148.5s31.5 -74 51.5 -101s40.667 -48.333 62 -64s39 -28.167 53 -37.5v-57h-273v66z" />
    <glyph glyph-name="uni03BC" unicode="&#x3bc;" horiz-adv-x="482" 
d="M63 540l72 0.000976562v-392c0 -61.333 25.333 -92 76 -92c20 0 40.667 4.16699 62 12.5s46 22.166 74 41.499v430h73v-540h-62l-6 57h-4c-34 -24 -63.167 -41.167 -87.5 -51.5s-47.833 -15.5 -70.5 -15.5c-20.667 0 -39 2.66699 -55 8v-218h-72v760z" />
    <glyph glyph-name="pi" unicode="&#x3c0;" horiz-adv-x="608" 
d="M179 474h-12c-28 0 -49.833 -6 -65.5 -18s-26.5 -31.333 -32.5 -58l-58 19c8.66699 42.667 25.667 73.834 51 93.501s59 29.5 101 29.5h402l22 -22v-44h-118v-342c0 -24.667 6.33301 -43.334 19 -56.001s28 -19 46 -19h11.5c5.66699 0 9.83398 0.666992 12.501 2v-60
c-4 -0.666992 -10.167 -1.16699 -18.5 -1.5s-14.5 -0.5 -18.5 -0.5c-36.667 0 -65.834 10.333 -87.501 31s-32.5 51 -32.5 91v355h-154v-575h-68v575z" />
    <glyph glyph-name="Ddotbelow" unicode="&#x1e0c;" horiz-adv-x="584" 
d="M270 -175c-15.333 0 -26.833 3.5 -34.5 10.5s-11.5 18.833 -11.5 35.5c0 16 3.83301 27.5 11.5 34.5s19.167 10.5 34.5 10.5c14.667 0 26 -3.5 34 -10.5s12 -18.5 12 -34.5c0 -16.667 -4 -28.5 -12 -35.5s-19.333 -10.5 -34 -10.5zM198 -16
c-19.333 0 -39 0.49707 -59 1.49707s-41.667 2.83301 -65 5.5v743c33.333 5.33301 62.333 9.33301 87 12s48 4 70 4c108 0 186.833 -30.667 236.5 -92s74.5 -157.666 74.5 -288.999c0 -67.333 -6.66699 -125.166 -20 -173.499s-34 -88.166 -62 -119.499
s-63.667 -54.5 -107 -69.5s-95 -22.5 -155 -22.5zM217 48.9971c84.667 0 147.168 25.501 187.501 76.501s60.5 132.167 60.5 243.5c0 56 -4.33301 104.167 -13 144.5s-22.167 73.166 -40.5 98.499s-42 44 -71 56s-63.5 18 -103.5 18c-16 0 -31.333 -0.666992 -46 -2
s-29.334 -3.33301 -44.001 -6v-624l38.5 -3.5c11 -1 21.5 -1.5 31.5 -1.5z" />
    <glyph glyph-name="ddotbelow" unicode="&#x1e0d;" horiz-adv-x="484" 
d="M239 -175c-15.333 0 -26.833 3.5 -34.5 10.5s-11.5 18.833 -11.5 35.5c0 16 3.83301 27.5 11.5 34.5s19.167 10.5 34.5 10.5c14.667 0 26 -3.5 34 -10.5s12 -18.5 12 -34.5c0 -16.667 -4 -28.5 -12 -35.5s-19.333 -10.5 -34 -10.5zM214 -9
c-59.333 0 -103.333 22.333 -132 67s-43 113.667 -43 207c0 91.333 19.5 161.5 58.5 210.5s94.833 73.5 167.5 73.5c12.667 0 25.167 -0.5 37.5 -1.5s27.833 -3.16699 46.5 -6.5v267h73v-808h-65l-7 54h-3c-32 -42 -76.333 -63 -133 -63zM231 49
c14.667 0 29.165 2.66895 43.498 8.00195s27 12.833 38 22.5s19.833 21.5 26.5 35.5s10 30 10 48v319c-18.667 4 -34.167 6.83301 -46.5 8.5s-25.166 2.5 -38.499 2.5c-49.333 0 -86.666 -18.333 -111.999 -55s-38 -92.334 -38 -167.001s10 -130.334 30 -167.001
s49 -55 87 -55z" />
    <glyph glyph-name="Hdotbelow" unicode="&#x1e24;" horiz-adv-x="623" 
d="M74 740h73v-329h329v329h74v-740h-74v344h-329v-344h-73v740zM317 -175c-15.333 0 -26.833 3.5 -34.5 10.5s-11.5 18.833 -11.5 35.5c0 16 3.83301 27.5 11.5 34.5s19.167 10.5 34.5 10.5c14.667 0 26 -3.5 34 -10.5s12 -18.5 12 -34.5c0 -16.667 -4 -28.5 -12 -35.5
s-19.333 -10.5 -34 -10.5z" />
    <glyph glyph-name="hdotbelow" unicode="&#x1e25;" horiz-adv-x="480" 
d="M62 808l73.001 0.000976562v-326c33.333 23.333 63.666 40.5 90.999 51.5s53.666 16.5 78.999 16.5c41.333 0 70.833 -11 88.5 -33s26.5 -58.333 26.5 -109v-408h-73v391c0 33.333 -5.33301 57.166 -16 71.499s-27.667 21.5 -51 21.5
c-43.333 0 -91.666 -18.667 -144.999 -56v-428h-73v808zM244.001 -174.999c-15.333 0 -26.833 3.5 -34.5 10.5s-11.5 18.833 -11.5 35.5c0 16 3.83301 27.5 11.5 34.5s19.167 10.5 34.5 10.5c14.667 0 26 -3.5 34 -10.5s12 -18.5 12 -34.5c0 -16.667 -4 -28.5 -12 -35.5
s-19.333 -10.5 -34 -10.5z" />
    </font>
</defs>
</svg>
