<?xml version="1.0" standalone="no"?>
<!DOCTYPE svg PUBLIC "-//W3C//DTD SVG 1.1//EN" "http://www.w3.org/Graphics/SVG/1.1/DTD/svg11.dtd" >
<svg>
<metadata>
Created by FontForge 20090914 at Sat Aug  6 10:31:22 2016
 By www-data
Copyright (c) 2012, Impallari Type (www.impallari.com), with Reserved Font Name Encode Sans.
</metadata>
<defs>
<font id="EncodeSansNarrow-Black" horiz-adv-x="635" >
  <font-face 
    font-family="Encode Sans Narrow"
    font-weight="900"
    font-stretch="normal"
    units-per-em="1000"
    panose-1="2 0 0 0 0 0 0 0 0 0"
    ascent="800"
    descent="-200"
    x-height="539.999"
    cap-height="740"
    bbox="-145 -220.004 1831 1030"
    underline-thickness="55"
    underline-position="-57"
    unicode-range="U+000D-U+FB04"
  />
<missing-glyph horiz-adv-x="795" 
d="M66 1030h663v-1250h-663v1250zM562 -65v941h-329v-941h329z" />
    <glyph glyph-name="f_f" unicode="ff" horiz-adv-x="918" 
d="M565 366l-240.002 0.00195312v-366h-210v366h-102v174h103v23c0 46 6.16699 85 18.5 117s32.333 58 60 78s63.834 34.667 108.501 44s99 14.333 163 15l11 -152c-56 -1.33301 -95.333 -8.83301 -118 -22.5s-34 -36.834 -34 -69.501v-33h241v23c0 46 6.16699 85 18.5 117
s32.333 58 60 78s63.834 34.667 108.501 44s99 14.333 163 15l11 -152c-56 -1.33301 -95.333 -8.83301 -118 -22.5s-34 -36.834 -34 -69.501v-33h133v-174h-133v-366h-210v366z" />
    <glyph glyph-name="f_i" unicode="fi" horiz-adv-x="780" 
d="M626 596c-40 0 -68.667 8.5 -86 25.5s-26 44.833 -26 83.5c0 38 8.66699 65.667 26 83s46 26 86 26c40.667 0 69.5 -8.66699 86.5 -26s25.5 -45 25.5 -83c0 -37.333 -8.5 -64.833 -25.5 -82.5s-45.833 -26.5 -86.5 -26.5zM521 540h210v-540h-210v540zM115 366
l-102.001 0.000976562v174h103v23c0 46 6.16699 85 18.5 117s32.333 58 60 78s63.834 34.667 108.501 44s99 14.333 163 15l11 -152c-56 -1.33301 -95.333 -8.83301 -118 -22.5s-34 -36.834 -34 -69.501v-33h133v-174h-133v-366h-210v366z" />
    <glyph glyph-name="f_l" unicode="fl" horiz-adv-x="779" 
d="M115 366l-102.001 0.000976562v174h103v23c0 46 6.16699 85 18.5 117s32.333 58 60 78s63.834 34.667 108.501 44s99 14.333 163 15l11 -152c-56 -1.33301 -95.333 -8.83301 -118 -22.5s-34 -36.834 -34 -69.501v-33h133v-174h-133v-366h-210v366zM520.999 808.001h210
v-808h-210v808z" />
    <glyph glyph-name="f_f_i" unicode="ffi" horiz-adv-x="1224" 
d="M115 366l-102.002 0.00195312v174h103v23c0 46 6.16699 85 18.5 117s32.333 58 60 78s63.834 34.667 108.501 44s99 14.333 163 15l11 -152c-56 -1.33301 -95.333 -8.83301 -118 -22.5s-34 -36.834 -34 -69.501v-33h235v23c0 46 6.16699 85 18.5 117s32.333 58 60 78
s63.834 34.667 108.501 44s99 14.333 163 15l11 -152c-56 -1.33301 -95.333 -8.83301 -118 -22.5s-34 -36.834 -34 -69.501v-33h133v-174h-133v-366h-210v366h-234v-366h-210v366zM964.998 540.002h210v-540h-210v540zM1070 596.002c-40 0 -68.667 8.5 -86 25.5
s-26 44.833 -26 83.5c0 38 8.66699 65.667 26 83s46 26 86 26c40.667 0 69.5 -8.66699 86.5 -26s25.5 -45 25.5 -83c0 -37.333 -8.5 -64.833 -25.5 -82.5s-45.833 -26.5 -86.5 -26.5z" />
    <glyph glyph-name="f_f_l" unicode="ffl" horiz-adv-x="1223" 
d="M115 366l-102.002 0.00195312v174h103v23c0 46 6.16699 85 18.5 117s32.333 58 60 78s63.834 34.667 108.501 44s99 14.333 163 15l11 -152c-56 -1.33301 -95.333 -8.83301 -118 -22.5s-34 -36.834 -34 -69.501v-33h235v23c0 46 6.16699 85 18.5 117s32.333 58 60 78
s63.834 34.667 108.501 44s99 14.333 163 15l11 -152c-56 -1.33301 -95.333 -8.83301 -118 -22.5s-34 -36.834 -34 -69.501v-33h133v-174h-133v-366h-210v366h-234v-366h-210v366zM964.998 808.002h210v-808h-210v808z" />
    <glyph glyph-name="f_b" unicode="fb" horiz-adv-x="1118" 
d="M115 366l-102.001 0.000976562v174h103v23c0 46 6.16699 85 18.5 117s32.333 58 60 78s63.834 34.667 108.501 44s99 14.333 163 15l11 -152c-56 -1.33301 -95.333 -8.83301 -118 -22.5s-34 -36.834 -34 -69.501v-33h133v-174h-133v-366h-210v366zM788.999 -10.999
c-17.333 0 -34.833 0.666992 -52.5 2s-37 3.5 -58 6.5s-44.5 7.16699 -70.5 12.5s-55.667 12 -89 20v778h210v-323c17.333 22 38.666 38.167 63.999 48.5s54.333 15.5 87 15.5c141.333 0 212 -87.333 212 -262c0 -95.333 -25.667 -168.5 -77 -219.5
s-126.666 -77.167 -225.999 -78.5zM788.999 128.001c19.333 0 35.001 1.66504 47.001 4.99805s21.167 10 27.5 20s10.666 24.167 12.999 42.5s3.5 42.5 3.5 72.5c0 26.667 -1 48.334 -3 65.001s-5.5 29.834 -10.5 39.501s-12.167 16.167 -21.5 19.5s-21.333 5 -36 5
c-15.333 0 -28 -2.16699 -38 -6.5s-18.167 -11.666 -24.5 -21.999s-10.833 -24.333 -13.5 -42s-4 -39.834 -4 -66.501v-124c14 -5.33301 34 -8 60 -8z" />
    <glyph glyph-name="f_f_b" unicode="ffb" horiz-adv-x="1562" 
d="M115 366l-102.002 0.00195312v174h103v23c0 46 6.16699 85 18.5 117s32.333 58 60 78s63.834 34.667 108.501 44s99 14.333 163 15l11 -152c-56 -1.33301 -95.333 -8.83301 -118 -22.5s-34 -36.834 -34 -69.501v-33h235v23c0 46 6.16699 85 18.5 117s32.333 58 60 78
s63.834 34.667 108.501 44s99 14.333 163 15l11 -152c-56 -1.33301 -95.333 -8.83301 -118 -22.5s-34 -36.834 -34 -69.501v-33h133v-174h-133v-366h-210v366h-234v-366h-210v366zM1233 -10.998c-17.333 0 -34.833 0.666992 -52.5 2s-37 3.5 -58 6.5
s-44.5 7.16699 -70.5 12.5s-55.667 12 -89 20v778h210v-323c17.333 22 38.666 38.167 63.999 48.5s54.333 15.5 87 15.5c141.333 0 212 -87.333 212 -262c0 -95.333 -25.667 -168.5 -77 -219.5s-126.666 -77.167 -225.999 -78.5zM1233 128.002
c19.333 0 35.001 1.66504 47.001 4.99805s21.167 10 27.5 20s10.666 24.167 12.999 42.5s3.5 42.5 3.5 72.5c0 26.667 -1 48.334 -3 65.001s-5.5 29.834 -10.5 39.501s-12.167 16.167 -21.5 19.5s-21.333 5 -36 5c-15.333 0 -28 -2.16699 -38 -6.5
s-18.167 -11.666 -24.5 -21.999s-10.833 -24.333 -13.5 -42s-4 -39.834 -4 -66.501v-124c14 -5.33301 34 -8 60 -8z" />
    <glyph glyph-name="f_f_h" unicode="ffh" horiz-adv-x="1564" 
d="M115 366l-102.002 0.00195312v174h103v23c0 46 6.16699 85 18.5 117s32.333 58 60 78s63.834 34.667 108.501 44s99 14.333 163 15l11 -152c-56 -1.33301 -95.333 -8.83301 -118 -22.5s-34 -36.834 -34 -69.501v-33h235v23c0 46 6.16699 85 18.5 117s32.333 58 60 78
s63.834 34.667 108.501 44s99 14.333 163 15l11 -152c-56 -1.33301 -95.333 -8.83301 -118 -22.5s-34 -36.834 -34 -69.501v-33h133v-174h-133v-366h-210v366h-234v-366h-210v366zM964.998 808.002l209.999 0.000976562v-319c42 21.333 78 36.833 108 46.5s59 14.5 87 14.5
c44.667 0 80.5 -13.5 107.5 -40.5s40.5 -63.167 40.5 -108.5v-401h-210v328c0 36 -14.333 54 -43 54c-10 0 -23.167 -1.83301 -39.5 -5.5s-33.166 -8.83398 -50.499 -15.501v-361h-210v808z" />
    <glyph glyph-name="f_f_j" unicode="ffj" horiz-adv-x="1227" 
d="M116 366l-102.002 0.00195312v174h103v23c0 46 6.16699 85 18.5 117s32.333 58 60 78s63.834 34.667 108.501 44s99 14.333 163 15l11 -152c-56 -1.33301 -95.333 -8.83301 -118 -22.5s-34 -36.834 -34 -69.501v-33h234v23c0 46 6.16699 85 18.5 117s32.333 58 60 78
s63.834 34.667 108.501 44s99 14.333 163 15l11 -152c-56 -1.33301 -95.333 -8.83301 -118 -22.5s-34 -36.834 -34 -69.501v-33h133v-174h-133v-366h-210v366h-233v-366h-210v366zM935.998 -191.998c6 24.667 11.168 49.332 15.501 73.999s8 50.834 11 78.501
s5.16699 57 6.5 88s2 65.5 2 103.5v34c0 16.667 -0.166992 36.5 -0.5 59.5s-0.5 48.167 -0.5 75.5s-0.166992 54.333 -0.5 81l-1 76.5c-0.333008 24.333 -0.5 44.833 -0.5 61.5h210v-471c-3.33301 -49.333 -13.333 -99.5 -30 -150.5s-37.334 -97.167 -62.001 -138.5z
M1073 596c-40 0 -68.5 8.5 -85.5 25.5s-25.5 44.833 -25.5 83.5c0 38 8.5 65.667 25.5 83s45.5 26 85.5 26c40.667 0 69.667 -8.66699 87 -26s26 -45 26 -83c0 -37.333 -8.5 -64.833 -25.5 -82.5s-46.167 -26.5 -87.5 -26.5z" />
    <glyph glyph-name="f_f_k" unicode="ffk" horiz-adv-x="1538" 
d="M115 366l-102.002 0.00195312v174h103v23c0 46 6.16699 85 18.5 117s32.333 58 60 78s63.834 34.667 108.501 44s99 14.333 163 15l11 -152c-56 -1.33301 -95.333 -8.83301 -118 -22.5s-34 -36.834 -34 -69.501v-33h235v23c0 46 6.16699 85 18.5 117s32.333 58 60 78
s63.834 34.667 108.501 44s99 14.333 163 15l11 -152c-56 -1.33301 -95.333 -8.83301 -118 -22.5s-34 -36.834 -34 -69.501v-33h133v-174h-133v-366h-210v366h-234v-366h-210v366zM964.998 808.002h210v-461h33l100 193h228l-158 -251l-28 -8v-4l28 -8l176 -269h-229
l-118 211h-32v-211h-210v808z" />
    <glyph glyph-name="f_f_t" unicode="fft" horiz-adv-x="1345" 
d="M1195 -12c-66.667 0 -117.002 15.0029 -151.002 45.0029s-51 73.667 -51 131v202h-224v-366h-210v366h-234v-366h-210v366h-102v174h103v23c0 46 6.16699 85 18.5 117s32.333 58 60 78s63.834 34.667 108.501 44s99 14.333 163 15l11 -152
c-56 -1.33301 -95.333 -8.83301 -118 -22.5s-34 -36.834 -34 -69.501v-33h235v23c0 46 6.16699 85 18.5 117s32.333 58 60 78s63.834 34.667 108.501 44s99 14.333 163 15l11 -152c-56 -1.33301 -95.333 -8.83301 -118 -22.5s-34 -36.834 -34 -69.501v-33h238l30 168l165 17
v-185h114v-174h-113v-151c0 -27.333 4.5 -46 13.5 -56s24.5 -15 46.5 -15c15.333 0 33.333 3.66699 54 11v-152c-14.667 -4.66699 -33 -8.33398 -55 -11.001s-44.333 -4 -67 -4z" />
    <glyph glyph-name="f_h" unicode="fh" horiz-adv-x="1120" 
d="M521 808l209.999 0.000976562v-319c42 21.333 78 36.833 108 46.5s59 14.5 87 14.5c44.667 0 80.5 -13.5 107.5 -40.5s40.5 -63.167 40.5 -108.5v-401h-210v328c0 36 -14.333 54 -43 54c-10 0 -23.167 -1.83301 -39.5 -5.5s-33.166 -8.83398 -50.499 -15.501v-361h-210
v808zM114.999 366.001l-102.001 0.000976562v174h103v23c0 46 6.16699 85 18.5 117s32.333 58 60 78s63.834 34.667 108.501 44s99 14.333 163 15l11 -152c-56 -1.33301 -95.333 -8.83301 -118 -22.5s-34 -36.834 -34 -69.501v-33h133v-174h-133v-366h-210v366z" />
    <glyph glyph-name="f_j" unicode="fj" horiz-adv-x="783" 
d="M116 366l-102.001 0.000976562v174h103v23c0 46 6.16699 85 18.5 117s32.333 58 60 78s63.834 34.667 108.501 44s99 14.333 163 15l11 -152c-56 -1.33301 -95.333 -8.83301 -118 -22.5s-34 -36.834 -34 -69.501v-33h133v-174h-133v-366h-210v366zM628.999 596.001
c-40 0 -68.5 8.5 -85.5 25.5s-25.5 44.833 -25.5 83.5c0 38 8.5 65.667 25.5 83s45.5 26 85.5 26c40.667 0 69.667 -8.66699 87 -26s26 -45 26 -83c0 -37.333 -8.5 -64.833 -25.5 -82.5s-46.167 -26.5 -87.5 -26.5zM491.999 -191.999c6 24.667 11.168 49.332 15.501 73.999
s8 50.834 11 78.501s5.16699 57 6.5 88s2 65.5 2 103.5v34c0 16.667 -0.166992 36.5 -0.5 59.5s-0.5 48.167 -0.5 75.5s-0.166992 54.333 -0.5 81l-1 76.5c-0.333008 24.333 -0.5 44.833 -0.5 61.5h210v-471c-3.33301 -49.333 -13.333 -99.5 -30 -150.5
s-37.334 -97.167 -62.001 -138.5z" />
    <glyph glyph-name="f_k" unicode="fk" horiz-adv-x="1094" 
d="M521 808h210v-461h33l100 193h228l-158 -251l-28 -8v-4l28 -8l176 -269h-229l-118 211h-32v-211h-210v808zM115 366l-102.001 0.000976562v174h103v23c0 46 6.16699 85 18.5 117s32.333 58 60 78s63.834 34.667 108.501 44s99 14.333 163 15l11 -152
c-56 -1.33301 -95.333 -8.83301 -118 -22.5s-34 -36.834 -34 -69.501v-33h133v-174h-133v-366h-210v366z" />
    <glyph glyph-name="f_t" unicode="ft" horiz-adv-x="901" 
d="M751 -12c-66.667 0 -117.001 15.002 -151.001 45.002s-51 73.667 -51 131v202h-224v-366h-210v366h-102v174h103v23c0 46 6.16699 85 18.5 117s32.333 58 60 78s63.834 34.667 108.501 44s99 14.333 163 15l11 -152c-56 -1.33301 -95.333 -8.83301 -118 -22.5
s-34 -36.834 -34 -69.501v-33h238l30 168l165 17v-185h114v-174h-113v-151c0 -27.333 4.5 -46 13.5 -56s24.5 -15 46.5 -15c15.333 0 33.333 3.66699 54 11v-152c-14.667 -4.66699 -33 -8.33398 -55 -11.001s-44.333 -4 -67 -4z" />
    <glyph glyph-name=".notdef" horiz-adv-x="795" 
d="M66 1030h663v-1250h-663v1250zM562 -65v941h-329v-941h329z" />
    <glyph glyph-name="NULL" horiz-adv-x="0" 
 />
    <glyph glyph-name="NULL" horiz-adv-x="0" 
 />
    <glyph glyph-name="nonmarkingreturn" unicode="&#xd;" horiz-adv-x="298" 
 />
    <glyph glyph-name="space" unicode=" " horiz-adv-x="188" 
 />
    <glyph glyph-name="exclam" unicode="!" horiz-adv-x="312" 
d="M156 -10c-34 0 -60.167 8.66699 -78.5 26s-27.5 42 -27.5 74s9.16699 56.667 27.5 74s44.5 26 78.5 26s60.167 -8.66699 78.5 -26s27.5 -42 27.5 -74s-9.16699 -56.667 -27.5 -74s-44.5 -26 -78.5 -26zM93 287l-43 443v10h213v-10l-42 -443v-10h-128v10z" />
    <glyph glyph-name="quotedbl" unicode="&#x22;" horiz-adv-x="468" 
d="M209 808v-4l-50 -324h-113v328h163zM446 808v-4l-50 -324h-113v328h163z" />
    <glyph glyph-name="numbersign" unicode="#" horiz-adv-x="634" 
d="M351 179h-93l-14 -179h-139l14 179h-82v126h92l11 128h-103v128h113l15 179h139l-15 -179h93l15 179h139l-15 -179h76v-128h-86l-11 -128h97v-126h-107l-14 -179h-139zM268 305h93l11 128h-93z" />
    <glyph glyph-name="dollar" unicode="$" horiz-adv-x="629" 
d="M228 -9c-31.333 2.66699 -63.332 6.66211 -95.999 11.9951s-64.667 12 -96 20v174c44 -12 86.833 -21.333 128.5 -28s79.5 -10 113.5 -10c38 0 65 4.16699 81 12.5s24 22.166 24 41.499c0 22 -9.66699 37.333 -29 46s-47.333 16.334 -84 23.001
c-34.667 6 -66 14.5 -94 25.5s-52 25.833 -72 44.5s-35.5 42.167 -46.5 70.5s-16.5 62.833 -16.5 103.5c0 54 15.5 99 46.5 135s75.5 61.333 133.5 76v143h185v-133c22.667 -2 46.667 -5.16699 72 -9.5s54.666 -10.166 87.999 -17.499v-170
c-15.333 4.66699 -32 8.83398 -50 12.501s-36.167 7 -54.5 10s-36.166 5.33301 -53.499 7s-33 2.5 -47 2.5c-65.333 0 -98 -17.333 -98 -52c0 -24 11.333 -41.667 34 -53s54 -21.333 94 -30c34 -7.33301 64.333 -16.666 91 -27.999s49 -25.666 67 -42.999
s31.833 -38 41.5 -62s14.5 -52.667 14.5 -86c0 -62.667 -16.333 -113.167 -49 -151.5s-80.334 -64.166 -143.001 -77.499v-139h-185v131z" />
    <glyph glyph-name="percent" unicode="%" horiz-adv-x="1116" 
d="M245 275c-70.667 0 -125 19.833 -163 59.5s-57 98.834 -57 177.501s19 138 57 178s92.333 60 163 60s124.834 -20 162.501 -60s56.5 -99.333 56.5 -178s-18.833 -137.834 -56.5 -177.501s-91.834 -59.5 -162.501 -59.5zM245 403c24.667 0 42.334 7.5 53.001 22.5
s16 43.833 16 86.5s-5.33301 71.834 -16 87.501s-28.334 23.5 -53.001 23.5c-25.333 0 -43.166 -7.83301 -53.499 -23.5s-15.5 -44.834 -15.5 -87.501c0 -42 5.16699 -70.667 15.5 -86s28.166 -23 53.499 -23zM872 -10c-70.667 0 -125 19.833 -163 59.5
s-57 98.834 -57 177.501s19 138 57 178s92.333 60 163 60s124.834 -20 162.501 -60s56.5 -99.333 56.5 -178s-18.833 -137.834 -56.5 -177.501s-91.834 -59.5 -162.501 -59.5zM872 118c24.667 0 42.334 7.5 53.001 22.5s16 43.833 16 86.5s-5.33301 71.834 -16 87.501
s-28.334 23.5 -53.001 23.5c-25.333 0 -43.166 -7.83301 -53.499 -23.5s-15.5 -44.834 -15.5 -87.501c0 -42 5.16699 -70.667 15.5 -86s28.166 -23 53.499 -23zM629 740h174l-316 -740h-174z" />
    <glyph glyph-name="ampersand" unicode="&#x26;" horiz-adv-x="776" 
d="M346 -9c-47.333 0 -90.334 4.99902 -129.001 14.999s-71.5 24.333 -98.5 43s-47.833 41.334 -62.5 68.001s-22 56.334 -22 89.001c0 47.333 13 87.833 39 121.5s62 56.167 108 67.5c-30.667 30 -52.667 58.167 -66 84.5s-20 53.166 -20 80.499c0 30 6.5 56.833 19.5 80.5
s31.667 43.667 56 60s54 29 89 38s74.5 13.5 118.5 13.5c32.667 0 66.167 -2.33301 100.5 -7s69.833 -11.667 106.5 -21l2 -5l-20 -147h-8c-25.333 8.66699 -52.666 15.5 -81.999 20.5s-55.333 7.5 -78 7.5c-61.333 0 -92 -20.667 -92 -62c0 -42 58 -95.667 174 -161l35 -20
v73l187 7v-93c0 -32 -3 -62 -9 -90l91 -52v-10l-76 -157h-8l-88 57c-31.333 -32.667 -69.333 -57.667 -114 -75s-95.667 -26 -153 -26zM403.999 227.999c-40 25.333 -74.333 48.667 -103 70c-34.667 -12.667 -52 -39 -52 -79c0 -24 10.167 -43.5 30.5 -58.5
s47.5 -22.5 81.5 -22.5c50 0 87.667 14.667 113 44z" />
    <glyph glyph-name="quotesingle" unicode="'" horiz-adv-x="232" 
d="M209 808v-4l-50 -324h-113v328h163z" />
    <glyph glyph-name="parenleft" unicode="(" horiz-adv-x="359" 
d="M179 -160c-51.333 75.333 -89.666 157 -114.999 245s-38 177.667 -38 269s12.667 181 38 269s63.666 169.667 114.999 245h182v-4c-51.333 -75.333 -92.333 -156.5 -123 -243.5s-46 -175.833 -46 -266.5s15.333 -179.5 46 -266.5s71.667 -168.167 123 -243.5v-4h-182v0z
" />
    <glyph glyph-name="parenright" unicode=")" horiz-adv-x="358" 
d="M-3 -160v4c52 75.333 93.333 156.5 124 243.5s46 175.833 46 266.5s-15.333 179.5 -46 266.5s-72 168.167 -124 243.5v4h183c51.333 -75.333 89.666 -157 114.999 -245s38 -177.667 38 -269s-12.667 -181 -38 -269s-63.666 -169.667 -114.999 -245h-183z" />
    <glyph glyph-name="asterisk" unicode="*" horiz-adv-x="501" 
d="M73 477l43 59l86 67l-109 4l-68 23l36 112l69 -22l92 -62l-30 108v72h118v-72l-31 -107l92 61l69 22l36 -112l-68 -23l-109 -4l86 -67l43 -59l-96 -69l-43 58l-39 106l-38 -106l-43 -58z" />
    <glyph glyph-name="plus" unicode="+" horiz-adv-x="526" 
d="M26 437h170v155h134v-155h170v-134h-170v-155h-134v155h-170v134z" />
    <glyph glyph-name="comma" unicode="," horiz-adv-x="299" 
d="M16 -145l42 346h210l-96 -356z" />
    <glyph glyph-name="hyphen" unicode="-" horiz-adv-x="507" 
d="M46 356h415v-151h-415v151z" />
    <glyph glyph-name="period" unicode="." horiz-adv-x="287" 
d="M143 -10c-36.667 0 -64.667 8.49902 -84 25.499s-29 44.5 -29 82.5s9.66699 65.333 29 82s47.333 25 84 25c37.333 0 65.833 -8.33301 85.5 -25s29.5 -44 29.5 -82c0 -37.333 -9.83301 -64.666 -29.5 -81.999s-48.167 -26 -85.5 -26z" />
    <glyph glyph-name="slash" unicode="/" horiz-adv-x="436" 
d="M237 740h179l-217 -860h-179z" />
    <glyph glyph-name="zero" unicode="0" horiz-adv-x="710" 
d="M355 -10c-102.667 0 -181.832 31.833 -237.499 95.5s-83.5 158.167 -83.5 283.5c0 126.667 27.667 221.834 83 285.501s134.666 95.5 237.999 95.5s182.833 -31.833 238.5 -95.5s83.5 -158.834 83.5 -285.501c0 -126 -27.833 -220.667 -83.5 -284
s-135.167 -95 -238.5 -95zM355.002 161c19.333 0 35.833 3.16602 49.5 9.49902s24.834 17.5 33.501 33.5s15 37.333 19 64s6 60.334 6 101.001s-2 74.5 -6 101.5s-10.333 48.5 -19 64.5s-19.834 27.333 -33.501 34s-30.167 10 -49.5 10s-35.833 -3.33301 -49.5 -10
s-24.834 -18 -33.501 -34s-14.834 -37.5 -18.501 -64.5s-5.5 -60.833 -5.5 -101.5c0 -40 1.83301 -73.333 5.5 -100s9.83398 -48 18.501 -64s19.834 -27.333 33.501 -34s30.167 -10 49.5 -10z" />
    <glyph glyph-name="one" unicode="1" horiz-adv-x="482" 
d="M193 515h-4l-144 -34h-16l-25 114l2 15l239 130h163v-740h-215v515z" />
    <glyph glyph-name="two" unicode="2" horiz-adv-x="611" 
d="M31 123c0 38 5.50195 70.5 16.502 97.5s26 50.667 45 71s41.667 38.166 68 53.499s54.5 30 84.5 44c36.667 17.333 64.834 34.333 84.501 51s29.5 38.334 29.5 65.001c0 26 -9.33301 44.833 -28 56.5s-50 17.5 -94 17.5c-29.333 0 -59.833 -2.5 -91.5 -7.5
s-58.834 -9.83301 -81.501 -14.5l-14 167c50.667 9.33301 95.667 16 135 20s75.666 6 108.999 6c95.333 0 165.666 -18.167 210.999 -54.5s68 -91.833 68 -166.5c0 -32 -4.5 -60.5 -13.5 -85.5s-21.5 -47.833 -37.5 -68.5s-34.667 -39.167 -56 -55.5
s-44.333 -31.5 -69 -45.5l-56.5 -30.5c-15.667 -8.33301 -28.5 -15.5 -38.5 -21.5s-17.333 -11.667 -22 -17s-7 -11.333 -7 -18v-18h297v-169h-539v123z" />
    <glyph glyph-name="three" unicode="3" horiz-adv-x="582" 
d="M232 -12c-17.333 0 -35 0.335938 -53 1.00293s-35.5 1.66699 -52.5 3s-33.167 3 -48.5 5s-28.333 4.33301 -39 7v159h4c8 -2 18.167 -4.16699 30.5 -6.5s25.5 -4.16602 39.5 -5.49902s28 -2.5 42 -3.5s27 -1.5 39 -1.5c27.333 0 49.833 1.16699 67.5 3.5
s31.667 6.33301 42 12s17.5 13.5 21.5 23.5s6 22.667 6 38c0 16 -2 29.167 -6 39.5s-11.5 18.5 -22.5 24.5s-26.167 10.167 -45.5 12.5s-44.333 3.5 -75 3.5h-58v145h57c27.333 0 49.5 1 66.5 3s30.333 5.5 40 10.5s16.167 12.167 19.5 21.5s5 21.666 5 36.999
c0 13.333 -1.83301 24.333 -5.5 33s-9.66699 15.667 -18 21s-19.666 9.16602 -33.999 11.499s-32.5 3.5 -54.5 3.5c-19.333 0 -43.166 -1.33301 -71.499 -4s-56.833 -6.66699 -85.5 -12h-4v160c12.667 2.66699 27.167 5 43.5 7s33.166 3.83301 50.499 5.5s34.166 3 50.499 4
s31.166 1.5 44.499 1.5c103.333 0 179.5 -15.833 228.5 -47.5s73.5 -80.834 73.5 -147.501c0 -44 -11 -80.5 -33 -109.5s-54 -49.5 -96 -61.5v-7c46.667 -10 83.167 -30.167 109.5 -60.5s39.5 -67.5 39.5 -111.5c0 -70.667 -27.167 -124.334 -81.5 -161.001
s-133.166 -55.667 -236.499 -57z" />
    <glyph glyph-name="four" unicode="4" horiz-adv-x="665" 
d="M9 263v9l240 478h4l215 -15l9 -14l-254 -426v-4h132l41 162h156v-162h96v-158h-96v-133h-213v133h-311z" />
    <glyph glyph-name="five" unicode="5" horiz-adv-x="580" 
d="M227 -12c-28.667 0 -58.167 1.33301 -88.5 4s-63.166 6.66699 -98.499 12v163h45c42.667 -8 81.334 -12 116.001 -12c46 0 80 5.5 102 16.5s33 31.833 33 62.5c0 15.333 -3.16699 28 -9.5 38s-17.333 17.833 -33 23.5s-36.334 9.66699 -62.001 12
s-57.834 3.5 -96.501 3.5h-75l-14 14l29 415h431v-168h-272l-6 -112c55.333 -0.666992 103.5 -5.16699 144.5 -13.5s75.167 -21.5 102.5 -39.5s47.833 -41.667 61.5 -71s20.5 -65.333 20.5 -108c0 -43.333 -8.83301 -80.333 -26.5 -111s-41.5 -55.5 -71.5 -74.5
s-65 -32.833 -105 -41.5s-82.333 -13 -127 -13z" />
    <glyph glyph-name="six" unicode="6" horiz-adv-x="671" 
d="M344 -10c-99.333 0 -175.834 29.5029 -229.501 88.5029s-80.5 144.833 -80.5 257.5c0 276 135.333 414 406 414c25.333 0 51.5 -1.66699 78.5 -5s56.167 -8.33301 87.5 -15l-26 -154c-28 5.33301 -52.667 9.16602 -74 11.499s-40.666 3.5 -57.999 3.5
c-61.333 0 -107.5 -11.833 -138.5 -35.5s-50.833 -64.167 -59.5 -121.5c18 14 39.667 24.833 65 32.5s53.333 11.5 84 11.5c38 0 72.5 -5.33301 103.5 -16s57.333 -25.667 79 -45s38.5 -43 50.5 -71s18 -59 18 -93c0 -40.667 -7 -77.334 -21 -110.001
s-34.167 -60.334 -60.5 -83.001s-58.5 -40 -96.5 -52s-80.667 -18 -128 -18zM343.999 340.003c-19.333 0 -38.167 -3.49902 -56.5 -10.499s-32.833 -15.833 -43.5 -26.5c2.66699 -54.667 12 -94 28 -118s40 -36 72 -36s55 7.83301 69 23.5s21 40.5 21 74.5
c0 33.333 -7 57.166 -21 71.499s-37 21.5 -69 21.5z" />
    <glyph glyph-name="seven" unicode="7" horiz-adv-x="549" 
d="M266 -25l-181 25v21l229 541h-294l-6 158l25 20h478l27 -117v-18l-234 -603z" />
    <glyph glyph-name="eight" unicode="8" horiz-adv-x="665" 
d="M334 -7c-52.667 0 -98.002 4.5 -136.002 13.5s-69.333 21.833 -94 38.5s-42.834 37 -54.501 61s-17.5 51 -17.5 81c0 42 9.16699 77.833 27.5 107.5s46.833 54.834 85.5 75.501c-26 17.333 -47.5 39.833 -64.5 67.5s-25.5 64.834 -25.5 111.501
c0 30 6.83301 57.333 20.5 82s33.167 45.667 58.5 63s55.5 30.833 90.5 40.5s74.167 14.5 117.5 14.5c42 0 79.833 -4.83301 113.5 -14.5s62.167 -23.167 85.5 -40.5s41.333 -38.333 54 -63s19 -52 19 -82c0 -35.333 -6.16699 -64.5 -18.5 -87.5
s-35.166 -44.833 -68.499 -65.5c14.667 -8 28.334 -17.167 41.001 -27.5s23.834 -22.833 33.501 -37.5s17.167 -31.334 22.5 -50.001s8 -40.334 8 -65.001c0 -69.333 -24 -123.833 -72 -163.5s-123.333 -59.5 -226 -59.5zM432.998 201
c0 16.667 -3.83203 31.001 -11.499 43.001s-17.834 22.167 -30.501 30.5s-27.667 15.5 -45 21.5s-35.333 11.667 -54 17c-18 -13.333 -32.667 -27.833 -44 -43.5s-17 -33.834 -17 -54.501c0 -28 9.16699 -49.167 27.5 -63.5s43.5 -21.5 75.5 -21.5s56.5 6 73.5 18
s25.5 29.667 25.5 53zM242.999 536.001c0 -14 3.5 -25.832 10.5 -35.499s16.5 -18 28.5 -25s26.167 -12.833 42.5 -17.5s33.833 -9.33398 52.5 -14.001c17.333 14 29.833 28.833 37.5 44.5s11.5 32.5 11.5 50.5c0 22.667 -8.16699 40.167 -24.5 52.5
s-38.833 18.5 -67.5 18.5c-28 0 -50.167 -6.33301 -66.5 -19s-24.5 -31 -24.5 -55z" />
    <glyph glyph-name="nine" unicode="9" horiz-adv-x="671" 
d="M327 750c99.333 0 175.832 -29.5029 229.499 -88.5029s80.5 -144.833 80.5 -257.5c0 -276 -135.333 -414 -406 -414c-25.333 0 -51.5 1.66699 -78.5 5s-56.167 8.33301 -87.5 15l26 154c28 -5.33301 52.667 -9.16602 74 -11.499s40.666 -3.5 57.999 -3.5
c30.667 0 57.334 2.83301 80.001 8.5s42 14.667 58 27s28.833 28.5 38.5 48.5s16.834 44.333 21.501 73c-18 -14 -39.667 -24.833 -65 -32.5s-53.333 -11.5 -84 -11.5c-38 0 -72.5 5.33301 -103.5 16s-57.333 25.667 -79 45s-38.5 43 -50.5 71s-18 59 -18 93
c0 40.667 7 77.334 21 110.001s34.167 60.334 60.5 83.001s58.5 40 96.5 52s80.667 18 128 18zM326.999 399.997c19.333 0 38.167 3.49902 56.5 10.499s32.833 15.833 43.5 26.5c-2.66699 54.667 -12 94 -28 118s-40 36 -72 36s-55 -7.83301 -69 -23.5s-21 -40.5 -21 -74.5
c0 -33.333 7 -57.166 21 -71.499s37 -21.5 69 -21.5z" />
    <glyph glyph-name="colon" unicode=":" horiz-adv-x="307" 
d="M153 -10c-36.667 0 -64.667 8.49902 -84 25.499s-29 44.5 -29 82.5s9.66699 65.333 29 82s47.333 25 84 25c37.333 0 65.833 -8.33301 85.5 -25s29.5 -44 29.5 -82c0 -37.333 -9.83301 -64.666 -29.5 -81.999s-48.167 -26 -85.5 -26zM153 334.999
c-36.667 0 -64.667 8.49902 -84 25.499s-29 44.5 -29 82.5s9.66699 65.333 29 82s47.333 25 84 25c37.333 0 65.833 -8.33301 85.5 -25s29.5 -44 29.5 -82c0 -37.333 -9.83301 -64.666 -29.5 -81.999s-48.167 -26 -85.5 -26z" />
    <glyph glyph-name="semicolon" unicode=";" horiz-adv-x="310" 
d="M18 -145l42 346h210l-96 -356zM160 335c-36.667 0 -64.667 8.49902 -84 25.499s-29 44.5 -29 82.5s9.66699 65.333 29 82s47.333 25 84 25c37.333 0 65.833 -8.33301 85.5 -25s29.5 -44 29.5 -82c0 -37.333 -9.83301 -64.666 -29.5 -81.999s-48.167 -26 -85.5 -26z" />
    <glyph glyph-name="less" unicode="&#x3c;" horiz-adv-x="563" 
d="M26 297v132l483 207v-147l-294 -126l294 -126v-147z" />
    <glyph glyph-name="equal" unicode="=" horiz-adv-x="544" 
d="M50 305h444v-138h-444v138zM50 528h444v-138h-444v138z" />
    <glyph glyph-name="greater" unicode="&#x3e;" horiz-adv-x="563" 
d="M54 237l294 126l-294 126v147l483 -207v-132l-483 -207v147z" />
    <glyph glyph-name="question" unicode="?" horiz-adv-x="478" 
d="M133 260l-16.999 175c94 18.667 141 49 141 91c0 22 -7.66699 37.5 -23 46.5s-38.666 13.5 -69.999 13.5c-10.667 0 -22 -0.333008 -34 -1s-23.833 -1.66699 -35.5 -3s-22.834 -2.83301 -33.501 -4.5s-19.667 -3.5 -27 -5.5l-5 155c30 6.66699 59.167 11.5 87.5 14.5
s58.166 4.5 89.499 4.5c79.333 0 140.5 -17 183.5 -51s64.5 -82.667 64.5 -146c0 -53.333 -15.667 -97.333 -47 -132s-76 -57 -134 -67l-9 -89v-14h-131v13zM202.001 -10c-34 0 -60.167 8.66699 -78.5 26s-27.5 42 -27.5 74s9.16699 56.667 27.5 74s44.5 26 78.5 26
s60.167 -8.66699 78.5 -26s27.5 -42 27.5 -74s-9.16699 -56.667 -27.5 -74s-44.5 -26 -78.5 -26z" />
    <glyph glyph-name="at" unicode="@" horiz-adv-x="868" 
d="M424 -134c-54.667 0 -105.834 7.83105 -153.501 23.498s-89.334 39.667 -125.001 72s-63.667 73.166 -84 122.499s-30.5 108 -30.5 176c0 66 10 124.667 30 176s48.333 94.5 85 129.5s80.667 61.667 132 80s108.333 27.5 171 27.5c64.667 0 120.834 -8.5 168.501 -25.5
s87.334 -41.333 119.001 -73s55.334 -70.334 71.001 -116.001s23.5 -96.834 23.5 -153.501c0 -80 -17.167 -142.5 -51.5 -187.5s-85.166 -67.5 -152.499 -67.5c-18 0 -33.5 2.66699 -46.5 8s-23.833 12 -32.5 20s-15.334 16.833 -20.001 26.5s-7.66699 18.834 -9 27.501h-5
c-16.667 -26 -38.667 -45.333 -66 -58s-56.666 -19 -87.999 -19c-44.667 0 -79.334 16 -104.001 48s-37 75.333 -37 130c0 38 5.66699 72.667 17 104s27.666 58.5 48.999 81.5s47 40.833 77 53.5s64 19 102 19c24.667 0 51.667 -3.5 81 -10.5s59.333 -17.167 90 -30.5
l-39 -204l-4 -23c-1.33301 -8 -2 -15.667 -2 -23c0 -13.333 3 -24.666 9 -33.999s17.667 -14 35 -14c23.333 0 41.5 13.5 54.5 40.5s19.5 64.5 19.5 112.5c0 78.667 -21 140.334 -63 185.001s-107.333 67 -196 67c-44.667 0 -85.167 -6.5 -121.5 -19.5
s-67.333 -32.167 -93 -57.5s-45.5 -56.333 -59.5 -93s-21 -79 -21 -127c0 -49.333 7 -91.666 21 -126.999s33.167 -64.5 57.5 -87.5s53 -40 86 -51s68.167 -16.5 105.5 -16.5c26 0 56.333 3.66699 91 11s72 17 112 29l34 -107
c-44.667 -13.333 -87.167 -24.166 -127.5 -32.499s-76.833 -12.5 -109.5 -12.5zM391 157.998c21.333 0 40.999 8.33203 58.999 24.999s30.333 44 37 82l22 120c-7.33301 2.66699 -14.666 4.33398 -21.999 5.00098s-14.333 1 -21 1c-18.667 0 -35.667 -4 -51 -12
s-28.5 -19 -39.5 -33s-19.5 -30.667 -25.5 -50s-9 -40.333 -9 -63c0 -22 3.83301 -40 11.5 -54s20.5 -21 38.5 -21z" />
    <glyph glyph-name="A" unicode="A" horiz-adv-x="735" 
d="M-5 10l212 730h321l211 -730v-10h-205l-43 154h-248l-42 -154h-206v10zM446 319l-33 132l-38 140h-16l-37 -141l-34 -131h158z" />
    <glyph glyph-name="B" unicode="B" horiz-adv-x="700" 
d="M339 -10c-47.333 0 -93.668 1.16797 -139.001 3.50098s-92.666 6.16602 -141.999 11.499v730c49.333 5.33301 95.666 9.16602 138.999 11.499s85.333 3.5 126 3.5c114.667 0 198.334 -17 251.001 -51s79 -88 79 -162c0 -80.667 -40 -132 -120 -154v-4
c46 -9.33301 81.167 -28.666 105.5 -57.999s36.5 -68 36.5 -116c0 -72.667 -27.5 -126.667 -82.5 -162s-139.5 -53 -253.5 -53zM347.998 144.001c74 0 111 26.332 111 78.999c0 29.333 -8.33301 49.833 -25 61.5s-45.667 17.5 -87 17.5h-88v-155
c4 -0.666992 7.83301 -1.16699 11.5 -1.5s8.66699 -0.666016 15 -0.999023s14.5 -0.5 24.5 -0.5h38zM335.998 444c38 0 64.499 5.66699 79.499 17s22.5 31.666 22.5 60.999c0 26.667 -7.66699 45.834 -23 57.501s-40.666 17.5 -75.999 17.5c-14 0 -27.667 -0.5 -41 -1.5
s-26.333 -2.16699 -39 -3.5v-148h77z" />
    <glyph glyph-name="C" unicode="C" horiz-adv-x="581" 
d="M394 -12c-122.667 0 -213.999 30.998 -273.999 92.998s-90 158.333 -90 289c0 130 29.333 226.167 88 288.5s146.334 93.5 263.001 93.5c24 0 49.5 -1.16699 76.5 -3.5s58.5 -6.16602 94.5 -11.499v-170c-18.667 2 -34.834 3.83301 -48.501 5.5s-26 2.83398 -37 3.50098
s-21 1.16699 -30 1.5s-17.833 0.5 -26.5 0.5c-32 0 -58.167 -2.66699 -78.5 -8s-36.5 -15.5 -48.5 -30.5s-20.333 -36.167 -25 -63.5s-7 -63 -7 -107c0 -43.333 2.33301 -78.333 7 -105s13 -47.5 25 -62.5s28.167 -25.167 48.5 -30.5s46.166 -8 77.499 -8
c22.667 0 47.667 1.16699 75 3.5s50 5.5 68 9.5v-168c-21.333 -6 -46 -10.833 -74 -14.5s-56 -5.5 -84 -5.5z" />
    <glyph glyph-name="D" unicode="D" horiz-adv-x="753" 
d="M279 -11c-36 0 -73.001 0.998047 -111.001 2.99805s-74.667 5.33301 -110 10v737c58 3.33301 106.5 6 145.5 8s73.833 3 104.5 3c74 0 137.167 -7.16699 189.5 -21.5s95.333 -36.666 129 -66.999s58.167 -69.666 73.5 -117.999s23 -106.5 23 -174.5
c0 -69.333 -8 -128 -24 -176s-41.667 -87.167 -77 -117.5s-81.166 -52.333 -137.499 -66s-124.833 -20.5 -205.5 -20.5zM361.999 158.998c28 0 51.1689 3 69.502 9s32.666 16.833 42.999 32.5s17.666 37.167 21.999 64.5s6.5 62.333 6.5 105c0 41.333 -2.5 75.5 -7.5 102.5
s-13.5 48.5 -25.5 64.5s-28.167 27.333 -48.5 34s-45.833 10 -76.5 10c-12 0 -23.5 -0.333008 -34.5 -1s-24.167 -2 -39.5 -4v-411c32 -4 62.333 -6 91 -6z" />
    <glyph glyph-name="E" unicode="E" horiz-adv-x="642" 
d="M58 740h543v-169h-328v-116h293v-169h-293v-117h338v-169h-553v740z" />
    <glyph glyph-name="F" unicode="F" horiz-adv-x="619" 
d="M58 740h538v-169h-323v-141h288v-169h-288v-261h-215v740z" />
    <glyph glyph-name="G" unicode="G" horiz-adv-x="684" 
d="M393 -12c-123.333 0 -214.834 31.333 -274.501 94s-89.5 158.667 -89.5 288c0 254.667 131.333 382 394 382c34 0 69.667 -2 107 -6s71 -9.66699 101 -17v-170c-41.333 6.66699 -77.833 11.667 -109.5 15s-58.5 5 -80.5 5c-38.667 0 -70.334 -3 -95.001 -9
s-44.167 -17 -58.5 -33s-24.166 -37.5 -29.499 -64.5s-8 -61.5 -8 -103.5s2.16699 -76.333 6.5 -103s12.333 -47.667 24 -63s27.834 -25.833 48.501 -31.5s47 -8.5 79 -8.5h19c6.66699 0 13.667 0.333008 21 1v212h195v-356c-46.667 -9.33301 -91.5 -17 -134.5 -23
s-81.5 -9 -115.5 -9z" />
    <glyph glyph-name="H" unicode="H" horiz-adv-x="794" 
d="M58 740h215v-276h249v276h215v-740h-215v295h-249v-295h-215v740z" />
    <glyph glyph-name="I" unicode="I" horiz-adv-x="330" 
d="M58 740h215v-740h-215v740z" />
    <glyph glyph-name="J" unicode="J" horiz-adv-x="330" 
d="M-15 -158c14 33.333 25.834 64.1641 35.501 92.4971s17.5 56.333 23.5 84s10.167 56 12.5 85s3.5 61.167 3.5 96.5v540h215v-558c0 -35.333 -2.66699 -68.666 -8 -99.999s-14 -62.666 -26 -93.999s-27.833 -63.666 -47.5 -96.999s-43.834 -69.333 -72.501 -108z" />
    <glyph glyph-name="K" unicode="K" horiz-adv-x="726" 
d="M58 740h215v-281h78l130 281h238l-170 -325l-59 -27v-9l61 -28l187 -351h-239l-142 290h-84v-290h-215v740z" />
    <glyph glyph-name="L" unicode="L" horiz-adv-x="562" 
d="M58 740h215v-571h277v-169h-492v740z" />
    <glyph glyph-name="M" unicode="M" horiz-adv-x="993" 
d="M58 740h298l104 -308l33 -142h7l32 142l105 308h298v-740h-193v501h-8l-51 -177l-101 -290h-173l-100 290l-52 177h-8v-501h-191v740z" />
    <glyph glyph-name="N" unicode="N" horiz-adv-x="786" 
d="M58 740h171l250 -325l52 -80h10v405h187v-740h-170l-245 320l-58 87h-10v-407h-187v740z" />
    <glyph glyph-name="O" unicode="O" horiz-adv-x="777" 
d="M388 -10c-118.667 0 -208.167 31.665 -268.5 94.998s-90.5 158 -90.5 284c0 126.667 30 221.834 90 285.501s149.667 95.5 269 95.5c120 0 210 -31.667 270 -95s90 -158.666 90 -285.999c0 -126 -30 -220.667 -90 -284s-150 -95 -270 -95zM388 161.998
c27.333 0 50.0029 3.00098 68.0029 9.00098s32.333 16.833 43 32.5s18.167 36.834 22.5 63.501s6.5 60.667 6.5 102c0 40.667 -2.16699 74.5 -6.5 101.5s-12 48.5 -23 64.5s-25.5 27.333 -43.5 34s-40.333 10 -67 10s-48.834 -3.33301 -66.501 -10s-31.834 -18 -42.501 -34
s-18.334 -37.5 -23.001 -64.5s-7 -60.833 -7 -101.5s2.16699 -74.334 6.5 -101.001s11.833 -47.834 22.5 -63.501s25 -26.667 43 -33s40.333 -9.5 67 -9.5z" />
    <glyph glyph-name="P" unicode="P" horiz-adv-x="692" 
d="M58 735c78.667 10 155.333 15 230 15c68.667 0 127.5 -5.16699 176.5 -15.5s89.167 -26.5 120.5 -48.5s54.5 -50.333 69.5 -85s22.5 -76 22.5 -124c0 -92.667 -31.167 -161 -93.5 -205s-157.833 -66 -286.5 -66h-24v-206h-215v735zM328.999 372
c24.667 0 45.3271 1.66797 61.9941 5.00098s29.834 9 39.501 17s16.5 18.667 20.5 32s6 30.333 6 51c0 20 -1.66699 36.833 -5 50.5s-9.66602 24.5 -18.999 32.5s-22.166 13.667 -38.499 17s-37.166 5 -62.499 5c-9.33301 0 -20.166 -0.333008 -32.499 -1
s-21.166 -1.33398 -26.499 -2.00098v-203c8 -1.33301 17 -2.33301 27 -3s19.667 -1 29 -1z" />
    <glyph glyph-name="Q" unicode="Q" horiz-adv-x="776" 
d="M671 -171c-124 34 -227.333 68.1689 -310 102.502s-148.667 72.166 -198 113.499s-84.166 88.166 -104.499 140.499s-30.5 113.5 -30.5 183.5c0 125.333 30.667 220.166 92 284.499s150.666 96.5 267.999 96.5c118 0 207.667 -32.167 269 -96.5s92 -159.166 92 -284.499
c0 -95.333 -23.833 -170.333 -71.5 -225s-115.5 -84.667 -203.5 -90v-15l89 -18c23.333 -4.66699 44.5 -8.5 63.5 -11.5s37.667 -5.33301 56 -7s39.833 -3.5 64.5 -5.5zM388 159.002c27.333 0 50.166 3.33203 68.499 9.99902s33 18 44 34s18.833 37.5 23.5 64.5
s7 60.833 7 101.5s-2.33301 74.5 -7 101.5s-12.5 48.667 -23.5 65s-25.667 28 -44 35s-41.166 10.5 -68.499 10.5c-26.667 0 -49.167 -3.5 -67.5 -10.5s-33 -18.667 -44 -35s-18.833 -38.166 -23.5 -65.499s-7 -61 -7 -101s2.33301 -73.5 7 -100.5s12.5 -48.5 23.5 -64.5
s25.5 -27.5 43.5 -34.5s40.667 -10.5 68 -10.5z" />
    <glyph glyph-name="R" unicode="R" horiz-adv-x="707" 
d="M357 234c-8 -0.666992 -16.166 -1 -24.499 -1h-25.5h-34v-233h-215v735c76 10 152.667 15 230 15c68 0 126.667 -5 176 -15s89.666 -25.5 120.999 -46.5s54.5 -47.833 69.5 -80.5s22.5 -72 22.5 -118c0 -104.667 -44.667 -177 -134 -217l167 -273h-235zM329.001 396
c24.667 0 45.3301 1.50098 61.9971 4.50098s29.834 8 39.501 15s16.5 16.5 20.5 28.5s6 27 6 45s-1.83301 33 -5.5 45s-10.334 21.5 -20.001 28.5s-22.5 12 -38.5 15s-36.333 4.5 -61 4.5c-7.33301 0 -17.166 -0.333008 -29.499 -1s-22.166 -1.33398 -29.499 -2.00098v-179
c10.667 -2.66699 29.334 -4 56.001 -4z" />
    <glyph glyph-name="S" unicode="S" horiz-adv-x="622" 
d="M302 -12c-40 0 -83.667 2.99707 -131 8.99707s-93.333 14.667 -138 26v174c44 -12 86.833 -21.333 128.5 -28s79.5 -10 113.5 -10c38 0 65 4.16699 81 12.5s24 22.166 24 41.499c0 22 -9.66699 37.333 -29 46s-47.333 16.334 -84 23.001c-34.667 6 -66 14.5 -94 25.5
s-52 25.833 -72 44.5s-35.5 42.167 -46.5 70.5s-16.5 62.833 -16.5 103.5c0 70.667 26.167 125.667 78.5 165s125.166 59 218.499 59c16.667 0 33.167 -0.5 49.5 -1.5s33.5 -2.66699 51.5 -5s37.333 -5.5 58 -9.5l69 -14v-170c-15.333 4.66699 -32 8.83398 -50 12.501
s-36.167 7 -54.5 10s-36.166 5.33301 -53.499 7s-33 2.5 -47 2.5c-65.333 0 -98 -17.333 -98 -52c0 -24 11.333 -41.667 34 -53s54 -21.333 94 -30c34 -7.33301 64.333 -16.666 91 -27.999s49 -25.666 67 -42.999s31.833 -38 41.5 -62s14.5 -52.667 14.5 -86
c0 -78 -25.5 -137.5 -76.5 -178.5s-125.5 -61.5 -223.5 -61.5z" />
    <glyph glyph-name="T" unicode="T" horiz-adv-x="630" 
d="M207 569h-188v171h592v-171h-189v-569h-215v569z" />
    <glyph glyph-name="U" unicode="U" horiz-adv-x="777" 
d="M389 -10c-64 0 -117.502 6.49805 -160.502 19.498s-77.667 32.333 -104 58s-45.166 57.834 -56.499 96.501s-17 84 -17 136v441h215v-442c0 -45.333 9.5 -79.166 28.5 -101.499s50.5 -33.5 94.5 -33.5s75.333 11 94 33s28 56 28 102v442h215v-441
c0 -52 -5.66699 -97.333 -17 -136s-30.166 -71 -56.499 -97s-61 -45.333 -104 -58s-96.167 -19 -159.5 -19z" />
    <glyph glyph-name="V" unicode="V" horiz-adv-x="727" 
d="M-6 740h223l109 -385l33 -161h13l33 161l108 385h218l-222 -740h-290z" />
    <glyph glyph-name="W" unicode="W" horiz-adv-x="1075" 
d="M4 740h233l64 -405l12 -111h13l18 111l91 405h209l90 -405l18 -111h14l11 111l64 405h230l-169 -740h-272l-69 298l-17 171h-12l-17 -171l-69 -298h-272z" />
    <glyph glyph-name="X" unicode="X" horiz-adv-x="730" 
d="M229 387l-225 353h242l96 -175l23 -45h6l22 45l98 175h236l-231 -353l255 -387h-240l-125 211l-20 40h-7l-19 -40l-122 -211h-237z" />
    <glyph glyph-name="Y" unicode="Y" horiz-adv-x="736" 
d="M261 238l-274 502h237l114 -237l25 -71h10l26 71l114 237h235l-271 -497v-243h-216v238z" />
    <glyph glyph-name="Z" unicode="Z" horiz-adv-x="648" 
d="M28 170l323 390v11h-307v169h559v-167l-324 -393v-10h343v-170h-594v170z" />
    <glyph glyph-name="bracketleft" unicode="[" horiz-adv-x="382" 
d="M67 868h295v-132h-135v-764h135v-132h-295v1028z" />
    <glyph glyph-name="backslash" unicode="\" horiz-adv-x="436" 
d="M20 740h179l217 -860h-179z" />
    <glyph glyph-name="bracketright" unicode="]" horiz-adv-x="382" 
d="M20 -160v132h135v764h-135v132h295v-1028h-295z" />
    <glyph glyph-name="asciicircum" unicode="^" horiz-adv-x="524" 
d="M166 789h192l142 -308h-147l-89 188h-4l-88 -188h-147z" />
    <glyph glyph-name="underscore" unicode="_" horiz-adv-x="637" 
d="M36 -58h565v-151h-565v151z" />
    <glyph glyph-name="grave" unicode="`" horiz-adv-x="315" 
d="M132 609l-128 199h215l63 -189z" />
    <glyph glyph-name="a" unicode="a" horiz-adv-x="590" 
d="M184 -5c-52 0 -92.1641 14.833 -120.497 44.5s-42.5 69.5 -42.5 119.5c0 109.333 67.667 167.333 203 174l112 6c-0.666992 12 -2.33398 22 -5.00098 30s-7.33398 14.333 -14.001 19s-15.834 8 -27.501 10s-26.5 3 -44.5 3c-11.333 0 -24.333 -0.5 -39 -1.5
s-30 -2.16699 -46 -3.5s-31.667 -3.16602 -47 -5.49902s-29 -4.5 -41 -6.5l-13 144c38 6.66699 75.5 11.667 112.5 15s71.833 5 104.5 5c92.667 0 160.834 -14.833 204.501 -44.5s65.5 -75.834 65.5 -138.501v-365h-173l-17 65h-10c-20 -23.333 -44.333 -40.833 -73 -52.5
s-58.334 -17.5 -89.001 -17.5zM274.003 138c11.333 0 22.832 2.16797 34.499 6.50098s20.834 9.16602 27.501 14.499v72l-52 -5c-19.333 -2 -32.833 -6.16699 -40.5 -12.5s-11.5 -16.833 -11.5 -31.5c0 -29.333 14 -44 42 -44z" />
    <glyph glyph-name="b" unicode="b" horiz-adv-x="648" 
d="M318 -11c-17.333 0 -34.833 0.666992 -52.5 2s-37 3.5 -58 6.5s-44.5 7.16699 -70.5 12.5s-55.667 12 -89 20v778h210v-323c17.333 22 38.666 38.167 63.999 48.5s54.333 15.5 87 15.5c141.333 0 212 -87.333 212 -262c0 -95.333 -25.667 -168.5 -77 -219.5
s-126.666 -77.167 -225.999 -78.5zM318 128c19.333 0 35.001 1.66504 47.001 4.99805s21.167 10 27.5 20s10.666 24.167 12.999 42.5s3.5 42.5 3.5 72.5c0 26.667 -1 48.334 -3 65.001s-5.5 29.834 -10.5 39.501s-12.167 16.167 -21.5 19.5s-21.333 5 -36 5
c-15.333 0 -28 -2.16699 -38 -6.5s-18.167 -11.666 -24.5 -21.999s-10.833 -24.333 -13.5 -42s-4 -39.834 -4 -66.501v-124c14 -5.33301 34 -8 60 -8z" />
    <glyph glyph-name="c" unicode="c" horiz-adv-x="509" 
d="M313 -9c-96 0 -167.666 22.6719 -214.999 68.0049s-71 115.666 -71 210.999s23.667 165.666 71 210.999s119 68 215 68c30 0 59.167 -1.5 87.5 -4.5s52.833 -7.5 73.5 -13.5v-161c-26 3.33301 -50.667 6 -74 8s-45 3 -65 3c-18.667 0 -34.167 -1.83301 -46.5 -5.5
s-22.333 -9.83398 -30 -18.501s-13.167 -19.834 -16.5 -33.501s-5 -30.834 -5 -51.501c0 -41.333 7 -70.5 21 -87.5s39 -25.5 75 -25.5c29.333 0 54.666 0.833008 75.999 2.5s43 4.5 65 8.5v-161c-20.667 -6 -45.167 -10.5 -73.5 -13.5s-57.5 -4.5 -87.5 -4.5z" />
    <glyph glyph-name="d" unicode="d" horiz-adv-x="649" 
d="M239 -10c-141.333 0 -212.001 87.332 -212.001 261.999c0 99.333 26.333 173.833 79 223.5s127.334 74.5 224.001 74.5c9.33301 0 18.833 -0.166992 28.5 -0.5s20.167 -1.16602 31.5 -2.49902v261h210v-808h-187l-14 63h-8c-33.333 -48.667 -84 -73 -152 -73z
M309.999 139.999c14.667 0 27.167 2.16797 37.5 6.50098s18.666 11.833 24.999 22.5s10.833 24.834 13.5 42.501s4 40.167 4 67.5v121c-8 3.33301 -17.667 5.66602 -29 6.99902s-23.666 2 -36.999 2c-18 0 -32.5 -1.66699 -43.5 -5s-19.667 -10 -26 -20s-10.5 -24 -12.5 -42
s-3 -41.333 -3 -70c0 -27.333 1 -49.5 3 -66.5s5.5 -30.333 10.5 -40s12.167 -16.334 21.5 -20.001s21.333 -5.5 36 -5.5z" />
    <glyph glyph-name="e" unicode="e" horiz-adv-x="585" 
d="M311 -9c-189.333 0 -284.001 92.001 -284.001 276.001c0 188 95.667 282 287 282c82.667 0 144 -20.167 184 -60.5s60 -102.833 60 -187.5c0 -18.667 -0.666992 -34.667 -2 -48s-3.66602 -26.666 -6.99902 -39.999h-313c1.33301 -14.667 3.83301 -26.334 7.5 -35.001
s9 -15.334 16 -20.001s16.167 -7.66699 27.5 -9s25 -2 41 -2c14 0 29.5 0.666992 46.5 2s34.667 3 53 5s36.5 4.33301 54.5 7s34.667 5.66699 50 9l5 -148c-32 -9.33301 -68.167 -16.833 -108.5 -22.5s-79.5 -8.5 -117.5 -8.5zM304.999 403.001
c-23.333 0 -40.168 -5.66699 -50.501 -17s-16.833 -33 -19.5 -65h139c-1.33301 30.667 -7.16602 52 -17.499 64s-27.5 18 -51.5 18z" />
    <glyph glyph-name="f" unicode="f" horiz-adv-x="469" 
d="M115 366l-102.001 0.000976562v174h103v23c0 46 6.16699 85 18.5 117s32.333 58 60 78s63.834 34.667 108.501 44s99 14.333 163 15l11 -152c-56 -1.33301 -95.333 -8.83301 -118 -22.5s-34 -36.834 -34 -69.501v-33h133v-174h-133v-366h-210v366z" />
    <glyph glyph-name="g" unicode="g" horiz-adv-x="648" 
d="M283 -220c-36.667 0 -74.8311 1.83398 -114.498 5.50098s-74.5 9.16699 -104.5 16.5l13 148c25.333 -4.66699 52.833 -8.83398 82.5 -12.501s58.834 -5.5 87.501 -5.5c22.667 0 43.667 1.83301 63 5.5s35.666 10 48.999 19s23.833 20.833 31.5 35.5s11.5 33 11.5 55v50
h-7c-16.667 -25.333 -37.834 -44 -63.501 -56s-55.5 -18 -89.5 -18c-142.667 0 -214 79 -214 237c0 96 26.5 168.333 79.5 217s127.5 73 223.5 73c16 0 32.5 -0.666992 49.5 -2s36 -3.83301 57 -7.5s44.667 -8.5 71 -14.5s57.166 -14 92.499 -24v-427
c0 -52 -8 -96.667 -24 -134s-38.167 -67.833 -66.5 -91.5s-61.833 -41.167 -100.5 -52.5s-81 -17 -127 -17zM311.003 167.001c15.333 0 28.166 2.16895 38.499 6.50195s18.5 11.833 24.5 22.5s10.333 24.5 13 41.5s4 38.167 4 63.5v99
c-8 3.33301 -17.667 5.66602 -29 6.99902s-23.666 2 -36.999 2c-18 0 -32.5 -1.5 -43.5 -4.5s-19.667 -9.16699 -26 -18.5s-10.5 -22.5 -12.5 -39.5s-3 -39.5 -3 -67.5c0 -22.667 1 -41.334 3 -56.001s5.5 -26.167 10.5 -34.5s12.167 -14 21.5 -17s21.333 -4.5 36 -4.5z" />
    <glyph glyph-name="h" unicode="h" horiz-adv-x="648" 
d="M49 808l209.999 0.000976562v-319c42 21.333 78 36.833 108 46.5s59 14.5 87 14.5c44.667 0 80.5 -13.5 107.5 -40.5s40.5 -63.167 40.5 -108.5v-401h-210v328c0 36 -14.333 54 -43 54c-10 0 -23.167 -1.83301 -39.5 -5.5s-33.166 -8.83398 -50.499 -15.501v-361h-210
v808z" />
    <glyph glyph-name="i" unicode="i" horiz-adv-x="307" 
d="M154 596c-40 0 -68.667 8.5 -86 25.5s-26 44.833 -26 83.5c0 38 8.66699 65.667 26 83s46 26 86 26c40.667 0 69.5 -8.66699 86.5 -26s25.5 -45 25.5 -83c0 -37.333 -8.5 -64.833 -25.5 -82.5s-45.833 -26.5 -86.5 -26.5zM49 540h210v-540h-210v540z" />
    <glyph glyph-name="j" unicode="j" horiz-adv-x="306" 
d="M153 596c-40 0 -68.5 8.5 -85.5 25.5s-25.5 44.833 -25.5 83.5c0 38 8.5 65.667 25.5 83s45.5 26 85.5 26c40.667 0 69.667 -8.66699 87 -26s26 -45 26 -83c0 -37.333 -8.5 -64.833 -25.5 -82.5s-46.167 -26.5 -87.5 -26.5zM16 -192
c6 24.667 11.168 49.332 15.501 73.999s8 50.834 11 78.501s5.16699 57 6.5 88s2 65.5 2 103.5v34v59.5c0 23 -0.166992 48.167 -0.5 75.5l-1 81l-1 76.5c-0.333008 24.333 -0.5 44.833 -0.5 61.5h210v-471c-3.33301 -49.333 -13.333 -99.5 -30 -150.5
s-37.334 -97.167 -62.001 -138.5z" />
    <glyph glyph-name="k" unicode="k" horiz-adv-x="622" 
d="M49 808h210v-461h33l100 193h228l-158 -251l-28 -8v-4l28 -8l176 -269h-229l-118 211h-32v-211h-210v808z" />
    <glyph glyph-name="l" unicode="l" horiz-adv-x="307" 
d="M49 808h210v-808h-210v808z" />
    <glyph glyph-name="m" unicode="m" horiz-adv-x="944" 
d="M49 540l173.999 -0.00195312l11 -60h7c38 24 71.5 41.667 100.5 53s58.167 17 87.5 17c30 0 56 -6 78 -18s39 -29.333 51 -52h6c35.333 23.333 67.666 40.833 96.999 52.5s59 17.5 89 17.5c44.667 0 80.5 -13.5 107.5 -40.5s40.5 -63.167 40.5 -108.5v-401h-208v326
c0 35.333 -15 53 -45 53c-7.33301 0 -17.666 -1.66699 -30.999 -5s-25.666 -7.66602 -36.999 -12.999v-361h-207v326c0 35.333 -15 53 -45 53c-8 0 -18.5 -1.66699 -31.5 -5s-25.167 -7.66602 -36.5 -12.999v-361h-208v540z" />
    <glyph glyph-name="n" unicode="n" horiz-adv-x="648" 
d="M49 540h176.999l10 -60h7c47.333 26 87 44.167 119 54.5s62.667 15.5 92 15.5c45.333 0 81.333 -13.5 108 -40.5s40 -63.167 40 -108.5v-401h-210v328c0 19.333 -3.66699 33.166 -11 41.499s-17.666 12.5 -30.999 12.5c-12 0 -26.333 -2.16699 -43 -6.5
s-32.667 -9.16602 -48 -14.499v-361h-210v540z" />
    <glyph glyph-name="o" unicode="o" horiz-adv-x="638" 
d="M319 -11c-96 0 -168.833 23.833 -218.5 71.5s-74.5 117.5 -74.5 209.5s24.833 161.667 74.5 209s122.5 71 218.5 71s168.833 -23.667 218.5 -71s74.5 -117 74.5 -209s-24.833 -161.833 -74.5 -209.5s-122.5 -71.5 -218.5 -71.5zM319 147c16.667 0 30.334 1.5 41.001 4.5
s19.167 9 25.5 18s10.666 21.5 12.999 37.5s3.5 37 3.5 63s-1.16699 47 -3.5 63s-6.66602 28.333 -12.999 37s-14.833 14.5 -25.5 17.5s-24.334 4.5 -41.001 4.5s-30.334 -1.5 -41.001 -4.5s-19.167 -9 -25.5 -18s-10.666 -21.333 -12.999 -37s-3.5 -36.5 -3.5 -62.5
s1.16699 -47 3.5 -63s6.66602 -28.5 12.999 -37.5s14.833 -15 25.5 -18s24.334 -4.5 41.001 -4.5z" />
    <glyph glyph-name="p" unicode="p" horiz-adv-x="650" 
d="M49 540h186l14 -63h7c16.667 24.667 38.167 43 64.5 55s56.5 18 90.5 18c141.333 0 212 -87.333 212 -262c0 -99.333 -26.333 -173.833 -79 -223.5s-126.667 -74.5 -222 -74.5c-19.333 0 -40.333 1 -63 3v-213h-210v760zM326 131c18 0 32.498 1.66602 43.498 4.99902
s19.667 10 26 20s10.5 23.833 12.5 41.5s3 41.167 3 70.5c0 27.333 -1 49.5 -3 66.5s-5.5 30.333 -10.5 40s-12.167 16.334 -21.5 20.001s-21.333 5.5 -36 5.5c-15.333 0 -28.166 -2.16699 -38.499 -6.5s-18.666 -12 -24.999 -23s-10.833 -25.667 -13.5 -44
s-4 -41.5 -4 -69.5v-117c16 -6 38.333 -9 67 -9z" />
    <glyph glyph-name="q" unicode="q" horiz-adv-x="648" 
d="M396 63c-19.333 -25.333 -41.832 -43.832 -67.499 -55.499s-55.5 -17.5 -89.5 -17.5c-141.333 0 -212 87.333 -212 262c0 100.667 26.667 175.5 80 224.5s129.666 73.5 228.999 73.5c46 0 92 -2.83301 138 -8.5s88 -11.834 126 -18.501v-743h-204v283zM311.001 140.001
c16 0 29 2.33594 39 7.00293s18 12.5 24 23.5s10.167 25.667 12.5 44s3.5 41.166 3.5 68.499v118c-14 6 -35.667 9 -65 9c-19.333 0 -34.833 -1.5 -46.5 -4.5s-20.5 -9.33301 -26.5 -19s-10 -23.334 -12 -41.001s-3 -40.834 -3 -69.501c0 -28 0.833008 -50.833 2.5 -68.5
s5.16699 -31.5 10.5 -41.5s12.833 -16.833 22.5 -20.5s22.5 -5.5 38.5 -5.5z" />
    <glyph glyph-name="r" unicode="r" horiz-adv-x="460" 
d="M49 540h176.999l10 -83h6c6.66699 8 15.834 16.5 27.501 25.5s24.5 17.833 38.5 26.5s28.5 16.667 43.5 24s28.833 13 41.5 17h57v-177h-77c-10.667 -1.33301 -21.667 -3.5 -33 -6.5s-22.333 -6.5 -33 -10.5s-20.167 -8.16699 -28.5 -12.5s-14.833 -8.83301 -19.5 -13.5
v-330h-210v540z" />
    <glyph glyph-name="s" unicode="s" horiz-adv-x="532" 
d="M249 -11c-32 0 -67.501 2.3291 -106.501 6.99609s-75.167 11.334 -108.5 20.001v143c36 -8.66699 71.5 -15.5 106.5 -20.5s68.5 -7.5 100.5 -7.5c24 0 41 2 51 6s15 10.667 15 20s-5.16699 16.333 -15.5 21s-28.5 8.33398 -54.5 11.001c-20 2 -41.667 4.83301 -65 8.5
s-45 11.167 -65 22.5s-36.667 28.5 -50 51.5s-20 54.5 -20 94.5c0 58.667 20.5 104.167 61.5 136.5s98.833 48.5 173.5 48.5c30 0 62.167 -1.83301 96.5 -5.5s72.5 -9.16699 114.5 -16.5l-5 -151c-38 8.66699 -71.5 15 -100.5 19s-54.167 6 -75.5 6
c-45.333 0 -68 -10 -68 -30c0 -9.33301 6 -16.333 18 -21s33 -8.66699 63 -12c26 -2.66699 50.5 -7.16699 73.5 -13.5s43.333 -15.666 61 -27.999s31.667 -28.666 42 -48.999s15.5 -46.166 15.5 -77.499c0 -60.667 -21.667 -106.334 -65 -137.001s-107.666 -46 -192.999 -46
z" />
    <glyph glyph-name="t" unicode="t" horiz-adv-x="448" 
d="M298 -12c-66.667 0 -117 15.001 -151 45.001s-51 73.667 -51 131v202h-80v174h94l30 168l165 17v-185h114v-174h-113v-151c0 -27.333 4.5 -46 13.5 -56s24.5 -15 46.5 -15c15.333 0 33.333 3.66699 54 11v-152c-14.667 -4.66699 -33 -8.33398 -55 -11.001
s-44.333 -4 -67 -4z" />
    <glyph glyph-name="u" unicode="u" horiz-adv-x="648" 
d="M204 -10c-50 0 -88.8311 13.498 -116.498 40.498s-41.5 63.5 -41.5 109.5v400h210v-335c0 -35.333 15 -53 45 -53c11.333 0 24.666 1.83301 39.999 5.5s31.333 8.83398 48 15.501v367h210v-540h-177l-10 59h-4c-22.667 -13.333 -42.334 -24.333 -59.001 -33
s-32.5 -15.667 -47.5 -21s-30 -9.16602 -45 -11.499s-32.5 -3.5 -52.5 -3.5z" />
    <glyph glyph-name="v" unicode="v" horiz-adv-x="627" 
d="M2 523v17h224l59 -245l25 -123h10l25 123l61 245h220v-17l-189 -523h-248z" />
    <glyph glyph-name="w" unicode="w" horiz-adv-x="848" 
d="M9 536v4h201l43 -281l7 -62h13l7 62l54 281h180l54 -281l7 -62h13l7 62l43 281h201v-4l-128 -536h-231l-44 241l-6 60h-12l-6 -60l-44 -241h-231z" />
    <glyph glyph-name="x" unicode="x" horiz-adv-x="622" 
d="M1 18l165 263l-159 249v10h221l58 -111l21 -43h10l21 44l56 110h222v-10l-160 -257l164 -255v-18h-220l-64 123l-21 50h-11l-20 -50l-62 -123h-221v18z" />
    <glyph glyph-name="y" unicode="y" horiz-adv-x="630" 
d="M143 -189v14l67 182l-212 514v19h222l63 -225l26 -103h12l26 103l65 225h218v-19l-284 -741z" />
    <glyph glyph-name="z" unicode="z" horiz-adv-x="551" 
d="M32 136l225 241v9h-218v154h471v-136l-215 -240v-10h225v-154h-488v136z" />
    <glyph glyph-name="braceleft" unicode="{" horiz-adv-x="340" 
d="M23 432c23.333 0 38.833 7.00098 46.5 21.001s11.5 35 11.5 63v225c0 46 9.16699 78.667 27.5 98s47.5 29 87.5 29c6 0 15 -0.166992 27 -0.5s24 -0.833008 36 -1.5s23 -1.16699 33 -1.5s16.667 -0.833008 20 -1.5v-127h-20c-16 0 -27.5 -3.33301 -34.5 -10
s-10.5 -17.334 -10.5 -32.001v-222c0 -31.333 -7.83301 -57.666 -23.5 -78.999s-36.167 -34.333 -61.5 -39c25.333 -3.33301 45.833 -15.5 61.5 -36.5s23.5 -47.167 23.5 -78.5v-224c0 -15.333 3.5 -26.333 10.5 -33s18.5 -10 34.5 -10h20v-127
c-3.33301 -0.666992 -10 -1.33398 -20 -2.00098s-21 -1.16699 -33 -1.5l-36 -1c-12 -0.333008 -21 -0.5 -27 -0.5c-40 0 -69.167 9.66699 -87.5 29s-27.5 52 -27.5 98v229c0 28 -3.83301 48.833 -11.5 62.5s-23.167 20.5 -46.5 20.5v153z" />
    <glyph glyph-name="bar" unicode="|" horiz-adv-x="329" 
d="M263 808v-1028h-196v1028h196z" />
    <glyph glyph-name="braceright" unicode="}" horiz-adv-x="340" 
d="M317 279c-23.333 0 -38.833 -6.83398 -46.5 -20.501s-11.5 -34.5 -11.5 -62.5v-229c0 -46 -9.16699 -78.667 -27.5 -98s-47.5 -29 -87.5 -29c-6 0 -15 0.166992 -27 0.5l-36 1c-12 0.333008 -23.167 0.833008 -33.5 1.5s-16.833 1.33398 -19.5 2.00098v127h20
c16 0 27.5 3.33301 34.5 10s10.5 17.667 10.5 33v224c0 31.333 7.83301 57.5 23.5 78.5s36.167 33.167 61.5 36.5c-25.333 4.66699 -45.833 17.667 -61.5 39s-23.5 47.666 -23.5 78.999v222c0 14.667 -3.5 25.334 -10.5 32.001s-18.5 10 -34.5 10h-20v127
c2.66699 0.666992 9.16699 1.16699 19.5 1.5s21.5 0.833008 33.5 1.5s24 1.16699 36 1.5s21 0.5 27 0.5c40 0 69.167 -9.66699 87.5 -29s27.5 -52 27.5 -98v-225c0 -28 3.83301 -49 11.5 -63s23.167 -21 46.5 -21v-153z" />
    <glyph glyph-name="asciitilde" unicode="~" horiz-adv-x="682" 
d="M24 261c23.333 30 43.832 54.666 61.499 73.999s34 34.833 49 46.5s29.667 19.667 44 24s29.833 6.5 46.5 6.5c22 0 42.167 -3.83301 60.5 -11.5s35.833 -16.167 52.5 -25.5s33 -17.833 49 -25.5s32.333 -11.5 49 -11.5c38.667 0 74.667 26 108 78l114 -68l-37 -53.5
c-13.333 -19.667 -28.166 -37.834 -44.499 -54.501s-34.333 -30.667 -54 -42s-41.167 -17 -64.5 -17c-22 0 -42.167 3.83301 -60.5 11.5s-36 16.334 -53 26.001s-33.5 18.334 -49.5 26.001s-32.333 11.5 -49 11.5c-37.333 0 -73.333 -26 -108 -78z" />
    <glyph glyph-name="uni00A0" unicode="&#xa0;" horiz-adv-x="188" 
 />
    <glyph glyph-name="exclamdown" unicode="&#xa1;" horiz-adv-x="296" 
d="M148 550c34 0 60.167 -8.66699 78.5 -26s27.5 -42 27.5 -74s-9.16699 -56.667 -27.5 -74s-44.5 -26 -78.5 -26s-60.167 8.66699 -78.5 26s-27.5 42 -27.5 74s9.16699 56.667 27.5 74s44.5 26 78.5 26zM85 263h128v-10l42 -443v-10h-213v10l43 443v10z" />
    <glyph glyph-name="cent" unicode="&#xa2;" horiz-adv-x="517" 
d="M254 -6c-76.667 8.66699 -133.833 35.502 -171.5 80.502s-56.5 110.167 -56.5 195.5s18.833 150.5 56.5 195.5s94.834 71.833 171.501 80.5v114h126v-114c17.333 -1.33301 34 -3.33301 50 -6s30.333 -5.66699 43 -9v-161c-26 3.33301 -50.667 6 -74 8s-45 3 -65 3
c-18.667 0 -34.167 -1.83301 -46.5 -5.5s-22.333 -9.83398 -30 -18.501s-13.167 -19.834 -16.5 -33.501s-5 -30.834 -5 -51.501c0 -41.333 7 -70.5 21 -87.5s39 -25.5 75 -25.5c29.333 0 54.666 0.833008 75.999 2.5s43 4.5 65 8.5v-161c-12.667 -4 -27 -7.16699 -43 -9.5
s-32.667 -4.16602 -50 -5.49902v-114h-126v114z" />
    <glyph glyph-name="sterling" unicode="&#xa3;" horiz-adv-x="700" 
d="M36 454l134.999 -0.000976562v64c0 154.667 97.667 232 293 232c32.667 0 63.834 -1.66699 93.501 -5s64.5 -9.66602 104.5 -18.999v-168c-28 5.33301 -56.833 9.5 -86.5 12.5s-55.834 4.5 -78.501 4.5c-41.333 0 -70.166 -4.33301 -86.499 -13s-24.5 -24 -24.5 -46v-62
h193v-159h-193v-116h267v-179h-617v181h135v114h-135v159z" />
    <glyph glyph-name="currency" unicode="&#xa4;" horiz-adv-x="630" 
d="M36 163l55.001 53.999l44 33c-32 32 -48 72 -48 120c0 48.667 16.333 88.667 49 120l-45 34l-55 53l72 73l54 -55l44 -62c32.667 12.667 69 19 109 19c20.667 0 40 -1.66699 58 -5s35 -8 51 -14l45 62l54 55l72 -73l-55 -53l-47 -34c33.333 -32 50 -72 50 -120
c0 -24 -4.33301 -46.167 -13 -66.5s-20.667 -38.166 -36 -53.499l46 -33l55 -54l-72 -72l-54 55l-44 60c-31.333 -12.667 -68 -19 -110 -19c-42.667 0 -79.334 6 -110.001 18l-43 -59l-54 -55zM210.001 369.999c0 -27.333 9.5 -48 28.5 -62s44.5 -21 76.5 -21
s57.5 6.83301 76.5 20.5s28.5 34.5 28.5 62.5s-9.5 48.833 -28.5 62.5s-44.5 20.5 -76.5 20.5s-57.5 -7 -76.5 -21s-28.5 -34.667 -28.5 -62z" />
    <glyph glyph-name="yen" unicode="&#xa5;" horiz-adv-x="802" 
d="M101 378h118l-197 362h237l114 -237l25 -71h10l26 71l114 237h235l-198 -362h109v-132h-181l-1 -3v-61h182v-131h-182v-51h-216v51h-195v131h195v56l-5 8h-190v132z" />
    <glyph glyph-name="brokenbar" unicode="&#xa6;" horiz-adv-x="330" 
d="M67 205h196v-425h-196v425zM67 808h196v-425h-196v425z" />
    <glyph glyph-name="section" unicode="&#xa7;" horiz-adv-x="556" 
d="M259 -11c-32 0 -67.501 2.32812 -106.501 6.99512s-75.167 11.334 -108.5 20.001v143c36 -8.66699 71.5 -15.5 106.5 -20.5s68.5 -7.5 100.5 -7.5c24 0 41 2 51 6s15 10.667 15 20s-5.16699 16.333 -15.5 21s-28.5 8.33398 -54.5 11.001c-20 2 -41.667 4.83301 -65 8.5
s-45 11.167 -65 22.5s-36.667 28.5 -50 51.5s-20 54.5 -20 94.5c0 42 11 77.667 33 107c-10 11.333 -18 25.5 -24 42.5s-9 37.5 -9 61.5c0 58.667 20.5 104.167 61.5 136.5s98.833 48.5 173.5 48.5c30 0 61.833 -1.83301 95.5 -5.5s71.5 -9.16699 113.5 -16.5l-3 -151
c-38 8.66699 -71.5 15 -100.5 19s-54.167 6 -75.5 6c-45.333 0 -68 -10 -68 -30c0 -9.33301 6 -16.333 18 -21s33 -8.66699 63 -12c26 -2.66699 50.5 -7.16699 73.5 -13.5s43.333 -15.666 61 -27.999s31.667 -28.666 42 -48.999s15.5 -46.166 15.5 -77.499
c0 -45.333 -12.667 -82.333 -38 -111c12 -11.333 21.333 -25.166 28 -41.499s10 -35.833 10 -58.5c0 -60.667 -21.667 -106.334 -65 -137.001s-107.666 -46 -192.999 -46zM315.999 325.995c4 8 6 18.3301 6 30.9971c0 15.333 -2.66699 26.5 -8 33.5s-15 12.167 -29 15.5
c-0.666992 0.666992 -2.5 1.33398 -5.5 2.00098s-6.33301 1.33398 -10 2.00098s-7 1.33398 -10 2.00098s-5.16699 1 -6.5 1c-9.33301 -10.667 -14 -21.334 -14 -32.001c0 -14 3 -24.5 9 -31.5s17 -12.5 33 -16.5c2 -1.33301 7.33301 -2.66602 16 -3.99902s15 -2.33301 19 -3
z" />
    <glyph glyph-name="dieresis" unicode="&#xa8;" horiz-adv-x="551" 
d="M139 607c-36 0 -61.833 7.83301 -77.5 23.5s-23.5 40.5 -23.5 74.5s7.83301 58.667 23.5 74s41.5 23 77.5 23s61.833 -7.66699 77.5 -23s23.5 -40 23.5 -74s-7.83301 -58.833 -23.5 -74.5s-41.5 -23.5 -77.5 -23.5zM409 607c-36 0 -61.667 7.83301 -77 23.5
s-23 40.5 -23 74.5s7.66699 58.667 23 74s41 23 77 23s61.833 -7.66699 77.5 -23s23.5 -40 23.5 -74s-7.83301 -58.833 -23.5 -74.5s-41.5 -23.5 -77.5 -23.5z" />
    <glyph glyph-name="copyright" unicode="&#xa9;" horiz-adv-x="803" 
d="M417 164c-126.667 0 -190 68.335 -190 205.002s63.333 205 190 205c16 0 32.5 -1 49.5 -3s31.5 -4.66699 43.5 -8v-103c-18 3.33301 -33.5 5.66602 -46.5 6.99902s-23.5 2 -31.5 2c-16.667 0 -30.167 -1.83301 -40.5 -5.5s-18.333 -9.5 -24 -17.5s-9.5 -18.333 -11.5 -31
s-3 -27.667 -3 -45c0 -35.333 4.83301 -61 14.5 -77s30.5 -24 62.5 -24c7.33301 0 18 0.666992 32 2s30 3.66602 48 6.99902v-103c-12 -3.33301 -26.5 -6 -43.5 -8s-33.5 -3 -49.5 -3zM402 -9.99805c-56 0 -106.833 9.16699 -152.5 27.5s-84.5 44.166 -116.5 77.499
s-56.833 73.333 -74.5 120s-26.5 98.334 -26.5 155.001s8.83301 108.334 26.5 155.001s42.5 86.667 74.5 120s70.833 59.166 116.5 77.499s96.5 27.5 152.5 27.5s106.833 -9.16699 152.5 -27.5s84.5 -44.166 116.5 -77.499s56.833 -73.333 74.5 -120
s26.5 -98.334 26.5 -155.001s-8.83301 -108.334 -26.5 -155.001s-42.5 -86.667 -74.5 -120s-70.833 -59.166 -116.5 -77.499s-96.5 -27.5 -152.5 -27.5zM402 88.002c42 0 79.333 6.66699 112 20s60.167 32.333 82.5 57s39.5 54.334 51.5 89.001s18 73.334 18 116.001
s-6 81.334 -18 116.001s-29.167 64.334 -51.5 89.001s-49.833 43.667 -82.5 57s-70 20 -112 20s-79.5 -6.66699 -112.5 -20s-60.667 -32.333 -83 -57s-39.5 -54.334 -51.5 -89.001s-18 -73.334 -18 -116.001s6 -81.334 18 -116.001s29.167 -64.334 51.5 -89.001
s50 -43.667 83 -57s70.5 -20 112.5 -20z" />
    <glyph glyph-name="ordfeminine" unicode="&#xaa;" horiz-adv-x="476" 
d="M152 348c-39.333 0 -70.499 11.3291 -93.499 33.9961s-34.5 53 -34.5 91s12.833 66.5 38.5 85.5s62.5 29.5 110.5 31.5l94 4c0 10.667 -0.666992 18.834 -2 24.501s-4 9.83398 -8 12.501s-9.5 4.33398 -16.5 5.00098s-16.167 1 -27.5 1
c-21.333 0 -45.333 -0.833008 -72 -2.5s-51.667 -4.16699 -75 -7.5l-8 102c56.667 11.333 113.667 17 171 17c71.333 0 123 -9.83301 155 -29.5s48 -51.167 48 -94.5v-270h-140l-7 47h-4c-14 -15.333 -32.833 -27.666 -56.5 -36.999s-47.834 -14 -72.501 -14z
M222.001 456.996c7.33301 0 15.332 1.33301 23.999 4s15.667 5.66699 21 9v42l-49 -4c-11.333 -2 -19.166 -4.5 -23.499 -7.5s-6.5 -8.16699 -6.5 -15.5c0 -18.667 11.333 -28 34 -28z" />
    <glyph glyph-name="guillemotleft" unicode="&#xab;" horiz-adv-x="728" 
d="M22 268v4l151 238h210l-151 -238v-4l151 -238h-210zM342 268v4l151 238h210l-151 -238v-4l151 -238h-210z" />
    <glyph glyph-name="logicalnot" unicode="&#xac;" horiz-adv-x="847" 
d="M36 446h757v-355h-205v188h-552v167z" />
    <glyph glyph-name="uni00AD" unicode="&#xad;" horiz-adv-x="507" 
d="M46 356h415v-151h-415v151z" />
    <glyph glyph-name="registered" unicode="&#xae;" horiz-adv-x="683" 
d="M234 608c17.333 1.33301 34.167 2.5 50.5 3.5s32.5 1.5 48.5 1.5c88 0 132 -33.333 132 -100c0 -22 -4.5 -40.667 -13.5 -56s-22.5 -26 -40.5 -32l60 -122h-81l-45 99h-31v-99h-80v305zM333.001 462c20.667 0 34.168 3.83398 40.501 11.501s9.5 20.167 9.5 37.5
c0 13.333 -2.83301 24.166 -8.5 32.499s-16.834 12.5 -33.501 12.5h-27v-94h19zM342.002 144.001c-46 0 -87.833 7.33301 -125.5 22s-69.834 35.334 -96.501 62.001s-47.334 58.667 -62.001 96s-22 78.666 -22 123.999s7.33301 86.666 22 123.999s35.334 69.333 62.001 96
s58.834 47.334 96.501 62.001s79.5 22 125.5 22s87.833 -7.33301 125.5 -22s69.834 -35.334 96.501 -62.001s47.334 -58.667 62.001 -96s22 -78.666 22 -123.999s-7.33301 -86.666 -22 -123.999s-35.334 -69.333 -62.001 -96s-58.834 -47.334 -96.501 -62.001
s-79.5 -22 -125.5 -22zM342.002 222.001c34.667 0 65.834 5.33301 93.501 16s51 25.834 70 45.501s33.5 43.5 43.5 71.5s15 59 15 93s-5 65 -15 93s-24.5 51.833 -43.5 71.5s-42.333 34.834 -70 45.501s-58.834 16 -93.501 16c-35.333 0 -66.666 -5.33301 -93.999 -16
s-50.5 -25.834 -69.5 -45.501s-33.5 -43.5 -43.5 -71.5s-15 -59 -15 -93s5 -65 15 -93s24.5 -51.833 43.5 -71.5s42.167 -34.834 69.5 -45.501s58.666 -16 93.999 -16z" />
    <glyph glyph-name="macron" unicode="&#xaf;" horiz-adv-x="509" 
d="M47 761h405v-131h-405v131z" />
    <glyph glyph-name="degree" unicode="&#xb0;" horiz-adv-x="471" 
d="M236 371c-31.333 0 -60.166 4.66699 -86.499 14s-49 22.333 -68 39s-33.833 36.667 -44.5 60s-16 48.666 -16 75.999s5.33301 52.666 16 75.999s25.5 43.5 44.5 60.5s41.667 30.167 68 39.5s55.166 14 86.499 14c32 0 61 -4.66699 87 -14s48.5 -22.5 67.5 -39.5
s33.667 -37.167 44 -60.5s15.5 -48.666 15.5 -75.999s-5.16699 -52.666 -15.5 -75.999s-25 -43.333 -44 -60s-41.5 -29.667 -67.5 -39s-55 -14 -87 -14zM236 476c32 0 55.5 7.33301 70.5 22s22.5 35.334 22.5 62.001s-7.5 47.5 -22.5 62.5s-38.5 22.5 -70.5 22.5
s-55.667 -7.5 -71 -22.5s-23 -35.833 -23 -62.5s7.66699 -47.334 23 -62.001s39 -22 71 -22z" />
    <glyph glyph-name="plusminus" unicode="&#xb1;" horiz-adv-x="542" 
d="M44 491h160v155h134v-155h160v-134h-160v-145h-134v145h-160v134zM45 168h454v-134h-454v134z" />
    <glyph glyph-name="twosuperior" unicode="&#xb2;" horiz-adv-x="490" 
d="M24 397c0 46.667 13.334 85.833 40.001 117.5s70.667 60.834 132 87.501c18 7.33301 32.667 14 44 20s20.166 11.5 26.499 16.5s10.666 9.83301 12.999 14.5s3.5 10 3.5 16c0 24.667 -30 37 -90 37c-19.333 0 -40.666 -1.33301 -63.999 -4s-49.333 -6 -78 -10l-14 140
c40 7.33301 76.167 12.833 108.5 16.5s61.833 5.5 88.5 5.5c76.667 0 133.5 -13.833 170.5 -41.5s55.5 -69.834 55.5 -126.501c0 -42 -11.833 -77.5 -35.5 -106.5s-58.167 -53.167 -103.5 -72.5c-29.333 -14.667 -50.5 -26.5 -63.5 -35.5s-19.5 -16.167 -19.5 -21.5v-7h220
v-143h-434v97z" />
    <glyph glyph-name="threesuperior" unicode="&#xb3;" horiz-adv-x="462" 
d="M198 292c-32 0 -63.1689 1.16699 -93.502 3.5s-54.166 5.16602 -71.499 8.49902v149h6c6.66699 -1.33301 15 -2.83301 25 -4.5s20.5 -3 31.5 -4s22 -1.83301 33 -2.5s21.167 -1 30.5 -1c20.667 0 37.834 0.5 51.501 1.5s24.334 3 32.001 6s13 6.66699 16 11
s4.5 10.166 4.5 17.499c0 8 -1.66699 14.5 -5 19.5s-9.33301 9 -18 12s-20.334 5 -35.001 6s-33.334 1.5 -56.001 1.5h-49v118h48c38.667 0 65 2.66699 79 8s21 15 21 29c0 13.333 -6 22.5 -18 27.5s-34.667 7.5 -68 7.5c-15.333 0 -34 -1 -56 -3s-44.667 -4.66699 -68 -8
h-5v145c9.33301 2 20.5 3.83301 33.5 5.5s26.333 3.16699 40 4.5s27.5 2.33301 41.5 3s26.667 1 38 1c82.667 0 143.334 -12.167 182.001 -36.5s58 -62.166 58 -113.499c0 -59.333 -24.667 -99.666 -74 -120.999c27.333 -11.333 48.333 -28 63 -50s22 -48 22 -78
c0 -52.667 -20.5 -93 -61.5 -121s-100.167 -42 -177.5 -42z" />
    <glyph glyph-name="acute" unicode="&#xb4;" horiz-adv-x="307" 
d="M25 619l63 189h215l-128 -199z" />
    <glyph glyph-name="mu" unicode="&#xb5;" horiz-adv-x="687" 
d="M65 540l210 -0.00292969v-335c0 -36 15 -54 45 -54c11.333 0 24.833 1.83301 40.5 5.5s31.5 8.83398 47.5 15.501v368h210v-540h-176l-11 59h-4l-46 -26c-13.333 -7.33301 -25.833 -13.666 -37.5 -18.999s-23 -9.66602 -34 -12.999s-22.5 -6 -34.5 -8v-213h-210v760z" />
    <glyph glyph-name="paragraph" unicode="&#xb6;" horiz-adv-x="662" 
d="M411 0l-87 -0.00390625v266c-14.667 -0.666992 -26.667 -1 -36 -1h-32c-35.333 0 -67.333 4.16699 -96 12.5s-53 21.833 -73 40.5s-35.333 43.334 -46 74.001s-16 68.334 -16 113.001s5.33301 82.334 16 113.001s26 55.334 46 74.001s44.167 32.167 72.5 40.5
s60.166 12.5 95.499 12.5c22 0 46.833 -0.833008 74.5 -2.5s54.834 -4.16699 81.501 -7.5v-735zM583 -0.00390625h-118v735h118v-735z" />
    <glyph glyph-name="periodcentered" unicode="&#xb7;" horiz-adv-x="289" 
d="M145 261c-40.667 0 -69.5 8.66699 -86.5 26s-25.5 45 -25.5 83c0 38.667 8.5 66.5 25.5 83.5s45.833 25.5 86.5 25.5c40 0 68.667 -8.66699 86 -26s26 -45 26 -83s-8.66699 -65.667 -26 -83s-46 -26 -86 -26z" />
    <glyph glyph-name="cedilla" unicode="&#xb8;" horiz-adv-x="299" 
d="M138 -220c-14 0 -30.168 1.16895 -48.501 3.50195s-37.5 5.16602 -57.5 8.49902v118c14 -3.33301 28.333 -5.83301 43 -7.5s26 -2.5 34 -2.5c10.667 0 17.834 2 21.501 6s5.5 8.66699 5.5 14c0 12 -6.66699 30 -20 54s-33.333 50.333 -60 79h123
c17.333 -19.333 31.833 -36.333 43.5 -51s21 -28.334 28 -41.001s11.833 -24.667 14.5 -36s4 -23.333 4 -36c0 -34 -11.5 -60.667 -34.5 -80s-55.167 -29 -96.5 -29z" />
    <glyph glyph-name="onesuperior" unicode="&#xb9;" horiz-adv-x="388" 
d="M153 666l-113 -22h-13l-23 86l3 22l192 94h132v-546h-178v366z" />
    <glyph glyph-name="ordmasculine" unicode="&#xba;" horiz-adv-x="491" 
d="M245 461c12 0 21.833 1 29.5 3s13.5 6 17.5 12s6.66699 14.5 8 25.5s2 25.833 2 44.5c0 18 -0.666992 32.667 -2 44s-4 20.166 -8 26.499s-9.83301 10.666 -17.5 12.999s-17.5 3.5 -29.5 3.5s-21.667 -1.16699 -29 -3.5s-12.833 -6.66602 -16.5 -12.999
s-6.16699 -15.166 -7.5 -26.499s-2 -26 -2 -44c0 -18.667 0.666992 -33.5 2 -44.5s3.83301 -19.5 7.5 -25.5s9.16699 -10 16.5 -12s17 -3 29 -3zM245 345c-70.667 0 -125.167 16.5 -163.5 49.5s-57.5 83.5 -57.5 151.5s19.167 118.5 57.5 151.5s92.833 49.5 163.5 49.5
c72.667 0 127.667 -16.5 165 -49.5s56 -83.5 56 -151.5s-18.667 -118.5 -56 -151.5s-92.333 -49.5 -165 -49.5z" />
    <glyph glyph-name="guillemotright" unicode="&#xbb;" horiz-adv-x="728" 
d="M235 30h-210l151 238v4l-151 238h210l151 -238v-4zM555 30h-210l151 238v4l-151 238h210l151 -238v-4z" />
    <glyph glyph-name="onequarter" unicode="&#xbc;" horiz-adv-x="1204" 
d="M924 94h-231l-17 109l184 336l15 9l155 -10l14 -27l-192 -286h86l46 119h117v-119h75v-131h-75v-94h-177v94zM620 740h174l-316 -740h-175zM171 566l-113 -22h-13l-23 86l3 22l192 94h132v-546h-178v366z" />
    <glyph glyph-name="onehalf" unicode="&#xbd;" horiz-adv-x="1209" 
d="M733 97c0 46.667 13.335 85.6689 40.002 117.002s70.667 60.666 132 87.999c18 7.33301 32.667 14 44 20s20.166 11.5 26.499 16.5s10.666 9.83301 12.999 14.5s3.5 10 3.5 16c0 24.667 -30 37 -90 37c-20.667 0 -43 -1.16699 -67 -3.5s-49 -5.83301 -75 -10.5l-14 140
c42 7.33301 79 12.833 111 16.5s60.667 5.5 86 5.5c76.667 0 133.5 -13.833 170.5 -41.5s55.5 -69.834 55.5 -126.501c0 -80 -46.333 -139.667 -139 -179c-29.333 -14.667 -50.5 -26.5 -63.5 -35.5s-19.5 -16.167 -19.5 -21.5v-7h220v-143h-434v97zM620.002 740.002h174
l-316 -740h-175zM171.002 566.002l-113 -22h-13l-23 86l3 22l192 94h132v-546h-178v366z" />
    <glyph glyph-name="threequarters" unicode="&#xbe;" horiz-adv-x="1227" 
d="M209 192c-32 0 -63.1689 1.16699 -93.502 3.5s-54.166 5.16602 -71.499 8.49902v149h6c6.66699 -1.33301 15 -2.83301 25 -4.5s20.5 -3 31.5 -4s22 -1.83301 33 -2.5s21.167 -1 30.5 -1c20.667 0 37.834 0.5 51.501 1.5s24.334 3 32.001 6s13 6.66699 16 11
s4.5 10.166 4.5 17.499c0 8 -1.66699 14.5 -5 19.5s-9.33301 9 -18 12s-20.334 5 -35.001 6s-33.334 1.5 -56.001 1.5h-49v118h48c38.667 0 65 2.66699 79 8s21 15 21 29c0 13.333 -6 22.5 -18 27.5s-34.667 7.5 -68 7.5c-15.333 0 -34 -1 -56 -3s-44.667 -4.66699 -68 -8
h-5v145c9.33301 2 20.5 3.83301 33.5 5.5s26.333 3.16699 40 4.5s27.5 2.33301 41.5 3s26.667 1 38 1c82.667 0 143.334 -12.167 182.001 -36.5s58 -62.166 58 -113.499c0 -59.333 -24.667 -99.666 -74 -120.999c27.333 -11.333 48.333 -28 63 -50s22 -48 22 -78
c0 -52.667 -20.5 -93 -61.5 -121s-100.167 -42 -177.5 -42zM951.998 94h-231l-17 109l184 336l15 9l155 -10l14 -27l-192 -286h86l46 119h117v-119h75v-131h-75v-94h-177v94zM671.998 740h174l-316 -740h-175z" />
    <glyph glyph-name="questiondown" unicode="&#xbf;" horiz-adv-x="473" 
d="M343 278l16.999 -175c-94 -18.667 -141 -49 -141 -91c0 -22 7.66699 -37.5 23 -46.5s38.666 -13.5 69.999 -13.5c10.667 0 22 0.333008 34 1s23.833 1.66699 35.5 3s22.834 2.83301 33.501 4.5s19.667 3.5 27 5.5l5 -155c-30 -6.66699 -59.167 -11.5 -87.5 -14.5
s-58.166 -4.5 -89.499 -4.5c-79.333 0 -140.5 17 -183.5 51s-64.5 82.667 -64.5 146c0 53.333 15.667 97.333 47 132s76 57 134 67l9 89v14h131v-13zM273.999 548c34 0 60.167 -8.66699 78.5 -26s27.5 -42 27.5 -74s-9.16699 -56.667 -27.5 -74s-44.5 -26 -78.5 -26
s-60.167 8.66699 -78.5 26s-27.5 42 -27.5 74s9.16699 56.667 27.5 74s44.5 26 78.5 26z" />
    <glyph glyph-name="Agrave" unicode="&#xc0;" horiz-adv-x="735" 
d="M-5 10l212 730h321l211 -730v-10h-205l-43 154h-248l-42 -154h-206v10zM446 319l-33 132l-38 140h-16l-37 -141l-34 -131h158zM281 799l-128 199h215l62 -189z" />
    <glyph glyph-name="Aacute" unicode="&#xc1;" horiz-adv-x="735" 
d="M-5 10l212 730h321l211 -730v-10h-205l-43 154h-248l-42 -154h-206v10zM446 319l-33 132l-38 140h-16l-37 -141l-34 -131h158zM287 809l63 189h215l-128 -199z" />
    <glyph glyph-name="Acircumflex" unicode="&#xc2;" horiz-adv-x="735" 
d="M-5 10l212 730h321l211 -730v-10h-205l-43 154h-248l-42 -154h-206v10zM446 319l-33 132l-38 140h-16l-37 -141l-34 -131h158zM167 928l202 76l204 -76v-136l-203 76l-203 -76v136z" />
    <glyph glyph-name="Atilde" unicode="&#xc3;" horiz-adv-x="735" 
d="M-5 10l212 730h321l211 -730v-10h-205l-43 154h-248l-42 -154h-206v10zM446 319l-33 132l-38 140h-16l-37 -141l-34 -131h158zM139 847c23.333 48 49.999 83.499 79.999 106.499s59 34.5 87 34.5c16 0 32.167 -2 48.5 -6s32.5 -8.16699 48.5 -12.5l48 -12.5
c16 -4 32.333 -6 49 -6c14.667 0 28.834 2.5 42.501 7.5s30.167 14.833 49.5 29.5l23 -29c-24 -48 -50.833 -83.5 -80.5 -106.5s-58.5 -34.5 -86.5 -34.5c-16 0 -32.167 1.83301 -48.5 5.5s-32.5 7.83398 -48.5 12.501s-32.167 8.83398 -48.5 12.501s-32.5 5.5 -48.5 5.5
c-15.333 0 -30 -2.33301 -44 -7s-30 -14.334 -48 -29.001z" />
    <glyph glyph-name="Adieresis" unicode="&#xc4;" horiz-adv-x="735" 
d="M-5 10l212 730h321l211 -730v-10h-205l-43 154h-248l-42 -154h-206v10zM446 319l-33 132l-38 140h-16l-37 -141l-34 -131h158zM222 796c-40.667 0 -69.5 8.66699 -86.5 26s-25.5 45 -25.5 83s8.5 65.667 25.5 83s45.833 26 86.5 26c40 0 68.667 -8.66699 86 -26
s26 -45 26 -83s-8.66699 -65.667 -26 -83s-46 -26 -86 -26zM514 796c-40 0 -68.5 8.66699 -85.5 26s-25.5 45 -25.5 83s8.5 65.667 25.5 83s45.5 26 85.5 26c40.667 0 69.5 -8.66699 86.5 -26s25.5 -45 25.5 -83s-8.5 -65.667 -25.5 -83s-45.833 -26 -86.5 -26z" />
    <glyph glyph-name="Aring" unicode="&#xc5;" horiz-adv-x="735" 
d="M-5 10l212 730h321l211 -730v-10h-205l-43 154h-248l-42 -154h-206v10zM446 319l-33 132l-38 140h-16l-37 -141l-34 -131h158zM367 774c-19.333 0 -37.333 2.83301 -54 8.5s-31 13.667 -43 24s-21.5 22.5 -28.5 36.5s-10.5 29.667 -10.5 47s3.5 33.166 10.5 47.499
s16.5 26.833 28.5 37.5s26.333 18.834 43 24.501s34.667 8.5 54 8.5s37.333 -2.83301 54 -8.5s31 -13.834 43 -24.501s21.333 -23.167 28 -37.5s10 -30.166 10 -47.499s-3.33301 -33 -10 -47s-16 -26.167 -28 -36.5s-26.333 -18.333 -43 -24s-34.667 -8.5 -54 -8.5zM367 840
c22.667 0 38 3.83301 46 11.5s12 20.5 12 38.5c0 18.667 -4 32 -12 40s-23.333 12 -46 12s-38.167 -4 -46.5 -12s-12.5 -21.333 -12.5 -40c0 -18 4.16699 -30.833 12.5 -38.5s23.833 -11.5 46.5 -11.5z" />
    <glyph glyph-name="AE" unicode="&#xc6;" horiz-adv-x="984" 
d="M-9 9l268 731h677v-169h-283l8 -116h266v-169h-253l9 -117h268v-169h-479l-6 149h-208l-53 -149h-214v9zM321 323h138l-11 265h-32z" />
    <glyph glyph-name="Ccedilla" unicode="&#xc7;" horiz-adv-x="581" 
d="M324 -220c-14 0 -30.166 1.16602 -48.499 3.49902s-37.5 5.16602 -57.5 8.49902v118c14 -3.33301 28.333 -5.83301 43 -7.5s26 -2.5 34 -2.5c10.667 0 17.834 2 21.501 6s5.5 8.66699 5.5 14c0 17.333 -11.667 43.333 -35 78c-86.667 16 -151.167 54.5 -193.5 115.5
s-63.5 146.5 -63.5 256.5c0 130 29.333 226.167 88 288.5s146.334 93.5 263.001 93.5c24 0 49.5 -1.16699 76.5 -3.5s58.5 -6.16602 94.5 -11.499v-170c-18.667 2 -34.834 3.83301 -48.501 5.5s-26 2.83398 -37 3.50098s-21 1.16699 -30 1.5s-17.833 0.5 -26.5 0.5
c-32 0 -58.167 -2.66699 -78.5 -8s-36.5 -15.5 -48.5 -30.5s-20.333 -36.167 -25 -63.5s-7 -63 -7 -107c0 -43.333 2.33301 -78.333 7 -105s13 -47.5 25 -62.5s28.167 -25.167 48.5 -30.5s46.166 -8 77.499 -8c22.667 0 47.667 1.16699 75 3.5s50 5.5 68 9.5v-168
c-18 -5.33301 -38.667 -9.5 -62 -12.5s-47 -5.16699 -71 -6.5c13.333 -19.333 22.666 -36.5 27.999 -51.5s8 -31.167 8 -48.5c0 -34 -11.5 -60.667 -34.5 -80s-55.167 -29 -96.5 -29z" />
    <glyph glyph-name="Egrave" unicode="&#xc8;" horiz-adv-x="642" 
d="M272 799l-128 199h215l62 -189zM58 740h543v-169h-328v-116h293v-169h-293v-117h338v-169h-553v740z" />
    <glyph glyph-name="Eacute" unicode="&#xc9;" horiz-adv-x="642" 
d="M247 809l63 189h215l-128 -199zM58 740h543v-169h-328v-116h293v-169h-293v-117h338v-169h-553v740z" />
    <glyph glyph-name="Ecircumflex" unicode="&#xca;" horiz-adv-x="642" 
d="M58 740h543v-169h-328v-116h293v-169h-293v-117h338v-169h-553v740zM140 928l202 76l204 -76v-136l-203 76l-203 -76v136z" />
    <glyph glyph-name="Edieresis" unicode="&#xcb;" horiz-adv-x="642" 
d="M193 796c-40.667 0 -69.5 8.66699 -86.5 26s-25.5 45 -25.5 83s8.5 65.667 25.5 83s45.833 26 86.5 26c40 0 68.667 -8.66699 86 -26s26 -45 26 -83s-8.66699 -65.667 -26 -83s-46 -26 -86 -26zM485 796c-40 0 -68.5 8.66699 -85.5 26s-25.5 45 -25.5 83
s8.5 65.667 25.5 83s45.5 26 85.5 26c40.667 0 69.5 -8.66699 86.5 -26s25.5 -45 25.5 -83s-8.5 -65.667 -25.5 -83s-45.833 -26 -86.5 -26zM58 740h543v-169h-328v-116h293v-169h-293v-117h338v-169h-553v740z" />
    <glyph glyph-name="Igrave" unicode="&#xcc;" horiz-adv-x="330" 
d="M58 740h215v-740h-215v740zM100 799l-128 199h215l62 -189z" />
    <glyph glyph-name="Iacute" unicode="&#xcd;" horiz-adv-x="330" 
d="M58 740h215v-740h-215v740zM85 809l63 189h215l-128 -199z" />
    <glyph glyph-name="Icircumflex" unicode="&#xce;" horiz-adv-x="330" 
d="M58 740h215v-740h-215v740zM-36 928l202 76l204 -76v-136l-203 76l-203 -76v136z" />
    <glyph glyph-name="Idieresis" unicode="&#xcf;" horiz-adv-x="330" 
d="M58 740h215v-740h-215v740zM21 796c-40.667 0 -69.5 8.66699 -86.5 26s-25.5 45 -25.5 83s8.5 65.667 25.5 83s45.833 26 86.5 26c40 0 68.667 -8.66699 86 -26s26 -45 26 -83s-8.66699 -65.667 -26 -83s-46 -26 -86 -26zM313 796c-40 0 -68.5 8.66699 -85.5 26
s-25.5 45 -25.5 83s8.5 65.667 25.5 83s45.5 26 85.5 26c40.667 0 69.5 -8.66699 86.5 -26s25.5 -45 25.5 -83s-8.5 -65.667 -25.5 -83s-45.833 -26 -86.5 -26z" />
    <glyph glyph-name="Eth" unicode="&#xd0;" horiz-adv-x="780" 
d="M2 454l83.999 -0.00195312v285c58 3.33301 106.5 6 145.5 8s73.833 3 104.5 3c74 0 137.167 -7.16699 189.5 -21.5s95.333 -36.666 129 -66.999s58.167 -69.666 73.5 -117.999s23 -106.5 23 -174.5c0 -69.333 -8 -128 -24 -176s-41.667 -87.167 -77 -117.5
s-81.166 -52.333 -137.499 -66s-124.833 -20.5 -205.5 -20.5c-36 0 -73 1 -111 3s-74.667 5.33301 -110 10v293h-84v159zM389.999 158.998c28 0 51.1689 3 69.502 9s32.666 16.833 42.999 32.5s17.666 37.167 21.999 64.5s6.5 62.333 6.5 105c0 41.333 -2.5 75.5 -7.5 102.5
s-13.5 48.5 -25.5 64.5s-28.167 27.333 -48.5 34s-45.833 10 -76.5 10c-12 0 -23.5 -0.333008 -34.5 -1s-24.167 -2 -39.5 -4v-122h84v-159h-84v-130c32 -4 62.333 -6 91 -6z" />
    <glyph glyph-name="Ntilde" unicode="&#xd1;" horiz-adv-x="786" 
d="M159 847c23.333 48 49.999 83.499 79.999 106.499s59 34.5 87 34.5c16 0 32.167 -2 48.5 -6s32.5 -8.16699 48.5 -12.5l48 -12.5c16 -4 32.333 -6 49 -6c14.667 0 28.834 2.5 42.501 7.5s30.167 14.833 49.5 29.5l23 -29c-24 -48 -50.833 -83.5 -80.5 -106.5
s-58.5 -34.5 -86.5 -34.5c-16 0 -32.167 1.83301 -48.5 5.5s-32.5 7.83398 -48.5 12.501s-32.167 8.83398 -48.5 12.501s-32.5 5.5 -48.5 5.5c-15.333 0 -30 -2.33301 -44 -7s-30 -14.334 -48 -29.001zM57.999 739.999h171l250 -325l52 -80h10v405h187v-740h-170l-245 320
l-58 87h-10v-407h-187v740z" />
    <glyph glyph-name="Ograve" unicode="&#xd2;" horiz-adv-x="777" 
d="M304 799l-128 199h215l62 -189zM388 -10c-118.667 0 -208.167 31.665 -268.5 94.998s-90.5 158 -90.5 284c0 126.667 30 221.834 90 285.501s149.667 95.5 269 95.5c120 0 210 -31.667 270 -95s90 -158.666 90 -285.999c0 -126 -30 -220.667 -90 -284s-150 -95 -270 -95z
M388 161.998c27.333 0 50.0029 3.00098 68.0029 9.00098s32.333 16.833 43 32.5s18.167 36.834 22.5 63.501s6.5 60.667 6.5 102c0 40.667 -2.16699 74.5 -6.5 101.5s-12 48.5 -23 64.5s-25.5 27.333 -43.5 34s-40.333 10 -67 10s-48.834 -3.33301 -66.501 -10
s-31.834 -18 -42.501 -34s-18.334 -37.5 -23.001 -64.5s-7 -60.833 -7 -101.5s2.16699 -74.334 6.5 -101.001s11.833 -47.834 22.5 -63.501s25 -26.667 43 -33s40.333 -9.5 67 -9.5z" />
    <glyph glyph-name="Oacute" unicode="&#xd3;" horiz-adv-x="777" 
d="M308 809l63 189h215l-128 -199zM388 -10c-118.667 0 -208.167 31.665 -268.5 94.998s-90.5 158 -90.5 284c0 126.667 30 221.834 90 285.501s149.667 95.5 269 95.5c120 0 210 -31.667 270 -95s90 -158.666 90 -285.999c0 -126 -30 -220.667 -90 -284s-150 -95 -270 -95z
M388 161.998c27.333 0 50.0029 3.00098 68.0029 9.00098s32.333 16.833 43 32.5s18.167 36.834 22.5 63.501s6.5 60.667 6.5 102c0 40.667 -2.16699 74.5 -6.5 101.5s-12 48.5 -23 64.5s-25.5 27.333 -43.5 34s-40.333 10 -67 10s-48.834 -3.33301 -66.501 -10
s-31.834 -18 -42.501 -34s-18.334 -37.5 -23.001 -64.5s-7 -60.833 -7 -101.5s2.16699 -74.334 6.5 -101.001s11.833 -47.834 22.5 -63.501s25 -26.667 43 -33s40.333 -9.5 67 -9.5z" />
    <glyph glyph-name="Ocircumflex" unicode="&#xd4;" horiz-adv-x="777" 
d="M388 -10c-118.667 0 -208.167 31.665 -268.5 94.998s-90.5 158 -90.5 284c0 126.667 30 221.834 90 285.501s149.667 95.5 269 95.5c120 0 210 -31.667 270 -95s90 -158.666 90 -285.999c0 -126 -30 -220.667 -90 -284s-150 -95 -270 -95zM388 161.998
c27.333 0 50.0029 3.00098 68.0029 9.00098s32.333 16.833 43 32.5s18.167 36.834 22.5 63.501s6.5 60.667 6.5 102c0 40.667 -2.16699 74.5 -6.5 101.5s-12 48.5 -23 64.5s-25.5 27.333 -43.5 34s-40.333 10 -67 10s-48.834 -3.33301 -66.501 -10s-31.834 -18 -42.501 -34
s-18.334 -37.5 -23.001 -64.5s-7 -60.833 -7 -101.5s2.16699 -74.334 6.5 -101.001s11.833 -47.834 22.5 -63.501s25 -26.667 43 -33s40.333 -9.5 67 -9.5zM185.003 927.999l202 76l204 -76v-136l-203 76l-203 -76v136z" />
    <glyph glyph-name="Otilde" unicode="&#xd5;" horiz-adv-x="777" 
d="M159 847c23.333 48 49.999 83.499 79.999 106.499s59 34.5 87 34.5c16 0 32.167 -2 48.5 -6s32.5 -8.16699 48.5 -12.5l48 -12.5c16 -4 32.333 -6 49 -6c14.667 0 28.834 2.5 42.501 7.5s30.167 14.833 49.5 29.5l23 -29c-24 -48 -50.833 -83.5 -80.5 -106.5
s-58.5 -34.5 -86.5 -34.5c-16 0 -32.167 1.83301 -48.5 5.5s-32.5 7.83398 -48.5 12.501s-32.167 8.83398 -48.5 12.501s-32.5 5.5 -48.5 5.5c-15.333 0 -30 -2.33301 -44 -7s-30 -14.334 -48 -29.001zM387.999 -10.001c-118.667 0 -208.167 31.665 -268.5 94.998
s-90.5 158 -90.5 284c0 126.667 30 221.834 90 285.501s149.667 95.5 269 95.5c120 0 210 -31.667 270 -95s90 -158.666 90 -285.999c0 -126 -30 -220.667 -90 -284s-150 -95 -270 -95zM387.999 161.997c27.333 0 50.0029 3.00098 68.0029 9.00098s32.333 16.833 43 32.5
s18.167 36.834 22.5 63.501s6.5 60.667 6.5 102c0 40.667 -2.16699 74.5 -6.5 101.5s-12 48.5 -23 64.5s-25.5 27.333 -43.5 34s-40.333 10 -67 10s-48.834 -3.33301 -66.501 -10s-31.834 -18 -42.501 -34s-18.334 -37.5 -23.001 -64.5s-7 -60.833 -7 -101.5
s2.16699 -74.334 6.5 -101.001s11.833 -47.834 22.5 -63.501s25 -26.667 43 -33s40.333 -9.5 67 -9.5z" />
    <glyph glyph-name="Odieresis" unicode="&#xd6;" horiz-adv-x="777" 
d="M238 796c-40.667 0 -69.5 8.66699 -86.5 26s-25.5 45 -25.5 83s8.5 65.667 25.5 83s45.833 26 86.5 26c40 0 68.667 -8.66699 86 -26s26 -45 26 -83s-8.66699 -65.667 -26 -83s-46 -26 -86 -26zM530 796c-40 0 -68.5 8.66699 -85.5 26s-25.5 45 -25.5 83
s8.5 65.667 25.5 83s45.5 26 85.5 26c40.667 0 69.5 -8.66699 86.5 -26s25.5 -45 25.5 -83s-8.5 -65.667 -25.5 -83s-45.833 -26 -86.5 -26zM388 -10c-118.667 0 -208.167 31.665 -268.5 94.998s-90.5 158 -90.5 284c0 126.667 30 221.834 90 285.501s149.667 95.5 269 95.5
c120 0 210 -31.667 270 -95s90 -158.666 90 -285.999c0 -126 -30 -220.667 -90 -284s-150 -95 -270 -95zM388 161.998c27.333 0 50.0029 3.00098 68.0029 9.00098s32.333 16.833 43 32.5s18.167 36.834 22.5 63.501s6.5 60.667 6.5 102c0 40.667 -2.16699 74.5 -6.5 101.5
s-12 48.5 -23 64.5s-25.5 27.333 -43.5 34s-40.333 10 -67 10s-48.834 -3.33301 -66.501 -10s-31.834 -18 -42.501 -34s-18.334 -37.5 -23.001 -64.5s-7 -60.833 -7 -101.5s2.16699 -74.334 6.5 -101.001s11.833 -47.834 22.5 -63.501s25 -26.667 43 -33
s40.333 -9.5 67 -9.5z" />
    <glyph glyph-name="multiply" unicode="&#xd7;" horiz-adv-x="516" 
d="M28 235l135 135l-135 135l95 95l135 -135l134 135l96 -95l-135 -135l135 -135l-95 -95l-135 135l-135 -135z" />
    <glyph glyph-name="Oslash" unicode="&#xd8;" horiz-adv-x="779" 
d="M98 113c-45.333 62.667 -68.001 147.999 -68.001 255.999c0 126.667 30 221.834 90 285.501s149.667 95.5 269 95.5c84 0 153 -16 207 -48l32 38h150l-97 -114c45.333 -63.333 68 -149 68 -257c0 -126 -30 -220.667 -90 -284s-150 -95 -270 -95
c-83.333 0 -151.666 15.333 -204.999 46l-31 -36h-151zM249.999 368.999c0 -28 1.00293 -52.333 3.00293 -73l222 263c-20 13.333 -48.667 20 -86 20c-26.667 0 -48.834 -3.33301 -66.501 -10s-31.834 -18 -42.501 -34s-18.334 -37.5 -23.001 -64.5s-7 -60.833 -7 -101.5z
M389.002 161.999c27.333 0 50 2.99902 68 8.99902s32.333 16.833 43 32.5s18.167 36.834 22.5 63.501s6.5 60.667 6.5 102c0 26.667 -1 51 -3 73l-221 -262c18.667 -12 46.667 -18 84 -18z" />
    <glyph glyph-name="Ugrave" unicode="&#xd9;" horiz-adv-x="777" 
d="M306 799l-128 199h215l62 -189zM389 -10c-64 0 -117.502 6.49805 -160.502 19.498s-77.667 32.333 -104 58s-45.166 57.834 -56.499 96.501s-17 84 -17 136v441h215v-442c0 -45.333 9.5 -79.166 28.5 -101.499s50.5 -33.5 94.5 -33.5s75.333 11 94 33s28 56 28 102v442
h215v-441c0 -52 -5.66699 -97.333 -17 -136s-30.166 -71 -56.499 -97s-61 -45.333 -104 -58s-96.167 -19 -159.5 -19z" />
    <glyph glyph-name="Uacute" unicode="&#xda;" horiz-adv-x="777" 
d="M292 809l63 189h215l-128 -199zM389 -10c-64 0 -117.502 6.49805 -160.502 19.498s-77.667 32.333 -104 58s-45.166 57.834 -56.499 96.501s-17 84 -17 136v441h215v-442c0 -45.333 9.5 -79.166 28.5 -101.499s50.5 -33.5 94.5 -33.5s75.333 11 94 33s28 56 28 102v442
h215v-441c0 -52 -5.66699 -97.333 -17 -136s-30.166 -71 -56.499 -97s-61 -45.333 -104 -58s-96.167 -19 -159.5 -19z" />
    <glyph glyph-name="Ucircumflex" unicode="&#xdb;" horiz-adv-x="777" 
d="M389 -10c-64 0 -117.502 6.49805 -160.502 19.498s-77.667 32.333 -104 58s-45.166 57.834 -56.499 96.501s-17 84 -17 136v441h215v-442c0 -45.333 9.5 -79.166 28.5 -101.499s50.5 -33.5 94.5 -33.5s75.333 11 94 33s28 56 28 102v442h215v-441
c0 -52 -5.66699 -97.333 -17 -136s-30.166 -71 -56.499 -97s-61 -45.333 -104 -58s-96.167 -19 -159.5 -19zM179.998 927.998l202 76l204 -76v-136l-203 76l-203 -76v136z" />
    <glyph glyph-name="Udieresis" unicode="&#xdc;" horiz-adv-x="777" 
d="M237 796c-40.667 0 -69.5 8.66699 -86.5 26s-25.5 45 -25.5 83s8.5 65.667 25.5 83s45.833 26 86.5 26c40 0 68.667 -8.66699 86 -26s26 -45 26 -83s-8.66699 -65.667 -26 -83s-46 -26 -86 -26zM529 796c-40 0 -68.5 8.66699 -85.5 26s-25.5 45 -25.5 83
s8.5 65.667 25.5 83s45.5 26 85.5 26c40.667 0 69.5 -8.66699 86.5 -26s25.5 -45 25.5 -83s-8.5 -65.667 -25.5 -83s-45.833 -26 -86.5 -26zM389 -10c-64 0 -117.502 6.49805 -160.502 19.498s-77.667 32.333 -104 58s-45.166 57.834 -56.499 96.501s-17 84 -17 136v441h215
v-442c0 -45.333 9.5 -79.166 28.5 -101.499s50.5 -33.5 94.5 -33.5s75.333 11 94 33s28 56 28 102v442h215v-441c0 -52 -5.66699 -97.333 -17 -136s-30.166 -71 -56.499 -97s-61 -45.333 -104 -58s-96.167 -19 -159.5 -19z" />
    <glyph glyph-name="Yacute" unicode="&#xdd;" horiz-adv-x="736" 
d="M261 238l-274 502h237l114 -237l25 -71h10l26 71l114 237h235l-271 -497v-243h-216v238zM290 809l63 189h215l-128 -199z" />
    <glyph glyph-name="Thorn" unicode="&#xde;" horiz-adv-x="695" 
d="M58 740h215.001v-110h22c67.333 0 125.166 -5 173.499 -15s88 -25.833 119 -47.5s53.833 -49.167 68.5 -82.5s22 -73 22 -119c0 -45.333 -7.16699 -84.5 -21.5 -117.5s-36.833 -60 -67.5 -81s-69.5 -36.5 -116.5 -46.5s-103.5 -15 -169.5 -15h-30v-106h-215v740z
M320.001 279c29.333 0 53.167 0.999023 71.5 2.99902s32.5 6.16699 42.5 12.5s16.833 15.166 20.5 26.499s5.5 26.333 5.5 45s-1.83301 33.834 -5.5 45.501s-10.667 20.834 -21 27.501s-24.833 11 -43.5 13s-43 3 -73 3h-44v-176h47z" />
    <glyph glyph-name="germandbls" unicode="&#xdf;" horiz-adv-x="803" 
d="M49 559c0 86.667 26.833 150.665 80.5 191.998s136.167 62 247.5 62c112 0 195 -20.5 249 -61.5s81 -105.167 81 -192.5v-156h-111c-52 0 -78 -10 -78 -30c0 -9.33301 5.66699 -16.333 17 -21s32.333 -8.66699 63 -12c26 -2.66699 50.667 -7.16699 74 -13.5
s43.833 -15.666 61.5 -27.999s31.667 -28.666 42 -48.999s15.5 -46.166 15.5 -77.499c0 -60.667 -21.833 -106.334 -65.5 -137.001s-108.167 -46 -193.5 -46c-32 0 -67.5 2.33301 -106.5 7s-74.833 11.334 -107.5 20.001v143c36.667 -9.33301 72.5 -16.333 107.5 -21
s67.833 -7 98.5 -7c24.667 0 42 2 52 6s15 10.667 15 20s-5.33301 16.333 -16 21s-28.667 8.33398 -54 11.001c-20 2 -41.833 4.83301 -65.5 8.5s-45.5 11.167 -65.5 22.5s-36.667 28.5 -50 51.5s-20 54.5 -20 94.5c0 47.333 15.5 86.666 46.5 117.999
s74.167 51.666 129.5 60.999v14c0 34 -9.33301 58.333 -28 73s-48.667 22 -90 22c-42 0 -72.333 -7.33301 -91 -22s-28 -39 -28 -73v-559h-210v559z" />
    <glyph glyph-name="agrave" unicode="&#xe0;" horiz-adv-x="590" 
d="M184 -5c-52 0 -92.1641 14.833 -120.497 44.5s-42.5 69.5 -42.5 119.5c0 109.333 67.667 167.333 203 174l112 6c-0.666992 12 -2.33398 22 -5.00098 30s-7.33398 14.333 -14.001 19s-15.834 8 -27.501 10s-26.5 3 -44.5 3c-11.333 0 -24.333 -0.5 -39 -1.5
s-30 -2.16699 -46 -3.5s-31.667 -3.16602 -47 -5.49902s-29 -4.5 -41 -6.5l-13 144c38 6.66699 75.5 11.667 112.5 15s71.833 5 104.5 5c92.667 0 160.834 -14.833 204.501 -44.5s65.5 -75.834 65.5 -138.501v-365h-173l-17 65h-10c-20 -23.333 -44.333 -40.833 -73 -52.5
s-58.334 -17.5 -89.001 -17.5zM274.003 138c11.333 0 22.832 2.16797 34.499 6.50098s20.834 9.16602 27.501 14.499v72l-52 -5c-19.333 -2 -32.833 -6.16699 -40.5 -12.5s-11.5 -16.833 -11.5 -31.5c0 -29.333 14 -44 42 -44zM227.002 609.001l-128 199h215l63 -189z" />
    <glyph glyph-name="aacute" unicode="&#xe1;" horiz-adv-x="590" 
d="M184 -5c-52 0 -92.1641 14.833 -120.497 44.5s-42.5 69.5 -42.5 119.5c0 109.333 67.667 167.333 203 174l112 6c-0.666992 12 -2.33398 22 -5.00098 30s-7.33398 14.333 -14.001 19s-15.834 8 -27.501 10s-26.5 3 -44.5 3c-11.333 0 -24.333 -0.5 -39 -1.5
s-30 -2.16699 -46 -3.5s-31.667 -3.16602 -47 -5.49902s-29 -4.5 -41 -6.5l-13 144c38 6.66699 75.5 11.667 112.5 15s71.833 5 104.5 5c92.667 0 160.834 -14.833 204.501 -44.5s65.5 -75.834 65.5 -138.501v-365h-173l-17 65h-10c-20 -23.333 -44.333 -40.833 -73 -52.5
s-58.334 -17.5 -89.001 -17.5zM274.003 138c11.333 0 22.832 2.16797 34.499 6.50098s20.834 9.16602 27.501 14.499v72l-52 -5c-19.333 -2 -32.833 -6.16699 -40.5 -12.5s-11.5 -16.833 -11.5 -31.5c0 -29.333 14 -44 42 -44zM216.002 619.001l63 189h215l-128 -199z" />
    <glyph glyph-name="acircumflex" unicode="&#xe2;" horiz-adv-x="590" 
d="M184 -5c-52 0 -92.1641 14.833 -120.497 44.5s-42.5 69.5 -42.5 119.5c0 109.333 67.667 167.333 203 174l112 6c-0.666992 12 -2.33398 22 -5.00098 30s-7.33398 14.333 -14.001 19s-15.834 8 -27.501 10s-26.5 3 -44.5 3c-11.333 0 -24.333 -0.5 -39 -1.5
s-30 -2.16699 -46 -3.5s-31.667 -3.16602 -47 -5.49902s-29 -4.5 -41 -6.5l-13 144c38 6.66699 75.5 11.667 112.5 15s71.833 5 104.5 5c92.667 0 160.834 -14.833 204.501 -44.5s65.5 -75.834 65.5 -138.501v-365h-173l-17 65h-10c-20 -23.333 -44.333 -40.833 -73 -52.5
s-58.334 -17.5 -89.001 -17.5zM274.003 138c11.333 0 22.832 2.16797 34.499 6.50098s20.834 9.16602 27.501 14.499v72l-52 -5c-19.333 -2 -32.833 -6.16699 -40.5 -12.5s-11.5 -16.833 -11.5 -31.5c0 -29.333 14 -44 42 -44zM102.002 738.001l202 76l204 -76v-136l-203 76
l-203 -76v136z" />
    <glyph glyph-name="atilde" unicode="&#xe3;" horiz-adv-x="590" 
d="M184 -5c-52 0 -92.1641 14.833 -120.497 44.5s-42.5 69.5 -42.5 119.5c0 109.333 67.667 167.333 203 174l112 6c-0.666992 12 -2.33398 22 -5.00098 30s-7.33398 14.333 -14.001 19s-15.834 8 -27.501 10s-26.5 3 -44.5 3c-11.333 0 -24.333 -0.5 -39 -1.5
s-30 -2.16699 -46 -3.5s-31.667 -3.16602 -47 -5.49902s-29 -4.5 -41 -6.5l-13 144c38 6.66699 75.5 11.667 112.5 15s71.833 5 104.5 5c92.667 0 160.834 -14.833 204.501 -44.5s65.5 -75.834 65.5 -138.501v-365h-173l-17 65h-10c-20 -23.333 -44.333 -40.833 -73 -52.5
s-58.334 -17.5 -89.001 -17.5zM274.003 138c11.333 0 22.832 2.16797 34.499 6.50098s20.834 9.16602 27.501 14.499v72l-52 -5c-19.333 -2 -32.833 -6.16699 -40.5 -12.5s-11.5 -16.833 -11.5 -31.5c0 -29.333 14 -44 42 -44zM69.002 660.001
c23.333 45.333 50.166 78.833 80.499 100.5s59.5 32.5 87.5 32.5c16 0 32 -2.5 48 -7.5s32 -10.333 48 -16s32.167 -11 48.5 -16s32.5 -7.5 48.5 -7.5c14 0 27.667 2.66699 41 8s28.666 16 45.999 32l28 -40c-23.333 -45.333 -50.166 -78.833 -80.499 -100.5
s-59.166 -32.5 -86.499 -32.5c-16 0 -32.167 2.33301 -48.5 7s-32.5 10 -48.5 16s-32.167 11.333 -48.5 16s-32.5 7 -48.5 7c-14 0 -27.667 -2.5 -41 -7.5s-28.333 -15.167 -45 -30.5z" />
    <glyph glyph-name="adieresis" unicode="&#xe4;" horiz-adv-x="590" 
d="M184 -5c-52 0 -92.1641 14.833 -120.497 44.5s-42.5 69.5 -42.5 119.5c0 109.333 67.667 167.333 203 174l112 6c-0.666992 12 -2.33398 22 -5.00098 30s-7.33398 14.333 -14.001 19s-15.834 8 -27.501 10s-26.5 3 -44.5 3c-11.333 0 -24.333 -0.5 -39 -1.5
s-30 -2.16699 -46 -3.5s-31.667 -3.16602 -47 -5.49902s-29 -4.5 -41 -6.5l-13 144c38 6.66699 75.5 11.667 112.5 15s71.833 5 104.5 5c92.667 0 160.834 -14.833 204.501 -44.5s65.5 -75.834 65.5 -138.501v-365h-173l-17 65h-10c-20 -23.333 -44.333 -40.833 -73 -52.5
s-58.334 -17.5 -89.001 -17.5zM274.003 138c11.333 0 22.832 2.16797 34.499 6.50098s20.834 9.16602 27.501 14.499v72l-52 -5c-19.333 -2 -32.833 -6.16699 -40.5 -12.5s-11.5 -16.833 -11.5 -31.5c0 -29.333 14 -44 42 -44zM165.002 607.001
c-36 0 -61.833 7.83301 -77.5 23.5s-23.5 40.5 -23.5 74.5s7.83301 58.667 23.5 74s41.5 23 77.5 23s61.833 -7.66699 77.5 -23s23.5 -40 23.5 -74s-7.83301 -58.833 -23.5 -74.5s-41.5 -23.5 -77.5 -23.5zM435.002 607.001c-36 0 -61.667 7.83301 -77 23.5
s-23 40.5 -23 74.5s7.66699 58.667 23 74s41 23 77 23s61.833 -7.66699 77.5 -23s23.5 -40 23.5 -74s-7.83301 -58.833 -23.5 -74.5s-41.5 -23.5 -77.5 -23.5z" />
    <glyph glyph-name="aring" unicode="&#xe5;" horiz-adv-x="590" 
d="M184 -5c-52 0 -92.1641 14.833 -120.497 44.5s-42.5 69.5 -42.5 119.5c0 109.333 67.667 167.333 203 174l112 6c-0.666992 12 -2.33398 22 -5.00098 30s-7.33398 14.333 -14.001 19s-15.834 8 -27.501 10s-26.5 3 -44.5 3c-11.333 0 -24.333 -0.5 -39 -1.5
s-30 -2.16699 -46 -3.5s-31.667 -3.16602 -47 -5.49902s-29 -4.5 -41 -6.5l-13 144c38 6.66699 75.5 11.667 112.5 15s71.833 5 104.5 5c92.667 0 160.834 -14.833 204.501 -44.5s65.5 -75.834 65.5 -138.501v-365h-173l-17 65h-10c-20 -23.333 -44.333 -40.833 -73 -52.5
s-58.334 -17.5 -89.001 -17.5zM274.003 138c11.333 0 22.832 2.16797 34.499 6.50098s20.834 9.16602 27.501 14.499v72l-52 -5c-19.333 -2 -32.833 -6.16699 -40.5 -12.5s-11.5 -16.833 -11.5 -31.5c0 -29.333 14 -44 42 -44zM296.002 584.001
c-20 0 -38.502 2.83301 -55.502 8.5s-31.5 13.667 -43.5 24s-21.5 22.666 -28.5 36.999s-10.5 30.166 -10.5 47.499c0 35.333 12.833 63.666 38.5 84.999s58.834 32 99.501 32s73.834 -10.667 99.501 -32s38.5 -49.666 38.5 -84.999c0 -17.333 -3.5 -33.166 -10.5 -47.499
s-16.5 -26.666 -28.5 -36.999s-26.5 -18.333 -43.5 -24s-35.5 -8.5 -55.5 -8.5zM296 651.001c37.333 0 56 16.667 56 50s-18.667 50 -56 50s-56 -16.667 -56 -50s18.667 -50 56 -50z" />
    <glyph glyph-name="ae" unicode="&#xe6;" horiz-adv-x="899" 
d="M624 -13c-95.333 0 -163.664 28.668 -204.997 86.001h-10c-36.667 -26 -74.167 -45.5 -112.5 -58.5s-76.5 -19.5 -114.5 -19.5c-50 0 -89.167 14.833 -117.5 44.5s-42.5 70.167 -42.5 121.5c0 106.667 67.667 164 203 172l111 6v9c0 11.333 -1.66699 20.333 -5 27
s-8.83301 11.834 -16.5 15.501s-18 6.16699 -31 7.5s-29.833 2 -50.5 2c-10 0 -21.833 -0.333008 -35.5 -1s-27.834 -1.83398 -42.501 -3.50098s-29.334 -3.5 -44.001 -5.5s-27.334 -4 -38.001 -6l-13 144c40 7.33301 78.167 12.5 114.5 15.5s72.166 4.5 107.499 4.5
c74.667 0 130 -16 166 -48h10c44 30.667 100.333 46 169 46c82.667 0 144 -20.333 184 -61s60 -103.334 60 -188.001c0 -20 -0.666992 -36.5 -2 -49.5s-3.66602 -25.5 -6.99902 -37.5h-313c1.33301 -14 3.83301 -25.333 7.5 -34s9 -15.5 16 -20.5s16 -8.33301 27 -10
s24.833 -2.5 41.5 -2.5c14 0 29.667 0.666992 47 2s35 3 53 5s36 4.5 54 7.5s34.667 6.16699 50 9.5l5 -148c-32 -10 -68.167 -17.833 -108.5 -23.5s-79.5 -8.5 -117.5 -8.5zM275.002 138.001c10.667 0 22 2.16797 34 6.50098s21 9.16602 27 14.499v72l-51 -5
c-19.333 -2 -32.833 -6.33301 -40.5 -13s-11.5 -16.667 -11.5 -30c0 -30 14 -45 42 -45zM687.002 318.002c-1.33301 30 -7.00098 51.167 -17.001 63.5s-27.333 18.5 -52 18.5c-23.333 0 -40.166 -5.83301 -50.499 -17.5s-16.833 -33.167 -19.5 -64.5h139z" />
    <glyph glyph-name="ccedilla" unicode="&#xe7;" horiz-adv-x="509" 
d="M267 -220c-14 0 -30.168 1.17188 -48.501 3.50488s-37.5 5.16602 -57.5 8.49902v118c14 -3.33301 28.333 -5.83301 43 -7.5s26 -2.5 34 -2.5c10.667 0 17.834 2 21.501 6s5.5 8.66699 5.5 14c0 17.333 -11.667 43.333 -35 78c-135.333 22.667 -203 113.334 -203 272.001
c0 95.333 23.667 165.666 71 210.999s119 68 215 68c30 0 59.167 -1.5 87.5 -4.5s52.833 -7.5 73.5 -13.5v-161c-26 3.33301 -50.667 6 -74 8s-45 3 -65 3c-18.667 0 -34.167 -1.83301 -46.5 -5.5s-22.333 -9.83398 -30 -18.501s-13.167 -19.834 -16.5 -33.501
s-5 -30.834 -5 -51.501c0 -41.333 7 -70.5 21 -87.5s39 -25.5 75 -25.5c29.333 0 54.666 0.833008 75.999 2.5s43 4.5 65 8.5v-161c-15.333 -4.66699 -33 -8.33398 -53 -11.001s-40.667 -4.66699 -62 -6c14.667 -19.333 24.834 -36.833 30.501 -52.5s8.5 -32.5 8.5 -50.5
c0 -34 -11.5 -60.667 -34.5 -80s-55.167 -29 -96.5 -29z" />
    <glyph glyph-name="egrave" unicode="&#xe8;" horiz-adv-x="585" 
d="M311 -9c-189.333 0 -284.001 92.001 -284.001 276.001c0 188 95.667 282 287 282c82.667 0 144 -20.167 184 -60.5s60 -102.833 60 -187.5c0 -18.667 -0.666992 -34.667 -2 -48s-3.66602 -26.666 -6.99902 -39.999h-313c1.33301 -14.667 3.83301 -26.334 7.5 -35.001
s9 -15.334 16 -20.001s16.167 -7.66699 27.5 -9s25 -2 41 -2c14 0 29.5 0.666992 46.5 2s34.667 3 53 5s36.5 4.33301 54.5 7s34.667 5.66699 50 9l5 -148c-32 -9.33301 -68.167 -16.833 -108.5 -22.5s-79.5 -8.5 -117.5 -8.5zM304.999 403.001
c-23.333 0 -40.168 -5.66699 -50.501 -17s-16.833 -33 -19.5 -65h139c-1.33301 30.667 -7.16602 52 -17.499 64s-27.5 18 -51.5 18zM219.997 609.001l-128 199h215l63 -189z" />
    <glyph glyph-name="eacute" unicode="&#xe9;" horiz-adv-x="585" 
d="M234 619l63 189h215l-128 -199zM311 -9c-189.333 0 -284.001 92.001 -284.001 276.001c0 188 95.667 282 287 282c82.667 0 144 -20.167 184 -60.5s60 -102.833 60 -187.5c0 -18.667 -0.666992 -34.667 -2 -48s-3.66602 -26.666 -6.99902 -39.999h-313
c1.33301 -14.667 3.83301 -26.334 7.5 -35.001s9 -15.334 16 -20.001s16.167 -7.66699 27.5 -9s25 -2 41 -2c14 0 29.5 0.666992 46.5 2s34.667 3 53 5s36.5 4.33301 54.5 7s34.667 5.66699 50 9l5 -148c-32 -9.33301 -68.167 -16.833 -108.5 -22.5s-79.5 -8.5 -117.5 -8.5z
M304.999 403.001c-23.333 0 -40.168 -5.66699 -50.501 -17s-16.833 -33 -19.5 -65h139c-1.33301 30.667 -7.16602 52 -17.499 64s-27.5 18 -51.5 18z" />
    <glyph glyph-name="ecircumflex" unicode="&#xea;" horiz-adv-x="585" 
d="M105 738l202 76l204 -76v-136l-203 76l-203 -76v136zM311 -9c-189.333 0 -284.001 92.001 -284.001 276.001c0 188 95.667 282 287 282c82.667 0 144 -20.167 184 -60.5s60 -102.833 60 -187.5c0 -18.667 -0.666992 -34.667 -2 -48s-3.66602 -26.666 -6.99902 -39.999
h-313c1.33301 -14.667 3.83301 -26.334 7.5 -35.001s9 -15.334 16 -20.001s16.167 -7.66699 27.5 -9s25 -2 41 -2c14 0 29.5 0.666992 46.5 2s34.667 3 53 5s36.5 4.33301 54.5 7s34.667 5.66699 50 9l5 -148c-32 -9.33301 -68.167 -16.833 -108.5 -22.5
s-79.5 -8.5 -117.5 -8.5zM304.999 403.001c-23.333 0 -40.168 -5.66699 -50.501 -17s-16.833 -33 -19.5 -65h139c-1.33301 30.667 -7.16602 52 -17.499 64s-27.5 18 -51.5 18z" />
    <glyph glyph-name="edieresis" unicode="&#xeb;" horiz-adv-x="585" 
d="M162 607c-36 0 -61.833 7.83301 -77.5 23.5s-23.5 40.5 -23.5 74.5s7.83301 58.667 23.5 74s41.5 23 77.5 23s61.833 -7.66699 77.5 -23s23.5 -40 23.5 -74s-7.83301 -58.833 -23.5 -74.5s-41.5 -23.5 -77.5 -23.5zM432 607c-36 0 -61.667 7.83301 -77 23.5
s-23 40.5 -23 74.5s7.66699 58.667 23 74s41 23 77 23s61.833 -7.66699 77.5 -23s23.5 -40 23.5 -74s-7.83301 -58.833 -23.5 -74.5s-41.5 -23.5 -77.5 -23.5zM311 -9c-189.333 0 -284.001 92.001 -284.001 276.001c0 188 95.667 282 287 282
c82.667 0 144 -20.167 184 -60.5s60 -102.833 60 -187.5c0 -18.667 -0.666992 -34.667 -2 -48s-3.66602 -26.666 -6.99902 -39.999h-313c1.33301 -14.667 3.83301 -26.334 7.5 -35.001s9 -15.334 16 -20.001s16.167 -7.66699 27.5 -9s25 -2 41 -2c14 0 29.5 0.666992 46.5 2
s34.667 3 53 5s36.5 4.33301 54.5 7s34.667 5.66699 50 9l5 -148c-32 -9.33301 -68.167 -16.833 -108.5 -22.5s-79.5 -8.5 -117.5 -8.5zM304.999 403.001c-23.333 0 -40.168 -5.66699 -50.501 -17s-16.833 -33 -19.5 -65h139c-1.33301 30.667 -7.16602 52 -17.499 64
s-27.5 18 -51.5 18z" />
    <glyph glyph-name="igrave" unicode="&#xec;" horiz-adv-x="308" 
d="M50 540h210v-540h-210v540zM74 609l-128 199h215l63 -189z" />
    <glyph glyph-name="iacute" unicode="&#xed;" horiz-adv-x="308" 
d="M80 619l63 189h215l-128 -199zM49 540h210v-540h-210v540z" />
    <glyph glyph-name="icircumflex" unicode="&#xee;" horiz-adv-x="309" 
d="M-29 738l192 76l194 -76v-136l-193 76l-193 -76v136zM50 540h210v-540h-210v540z" />
    <glyph glyph-name="idieresis" unicode="&#xef;" horiz-adv-x="309" 
d="M36 607c-36 0 -61.833 7.83301 -77.5 23.5s-23.5 40.5 -23.5 74.5s7.83301 58.667 23.5 74s41.5 23 77.5 23s61.833 -7.66699 77.5 -23s23.5 -40 23.5 -74s-7.83301 -58.833 -23.5 -74.5s-41.5 -23.5 -77.5 -23.5zM282 607c-36 0 -61.667 7.83301 -77 23.5
s-23 40.5 -23 74.5s7.66699 58.667 23 74s41 23 77 23s61.833 -7.66699 77.5 -23s23.5 -40 23.5 -74s-7.83301 -58.833 -23.5 -74.5s-41.5 -23.5 -77.5 -23.5zM50 540h210v-540h-210v540z" />
    <glyph glyph-name="eth" unicode="&#xf0;" horiz-adv-x="646" 
d="M183 713l98.999 9c-12.667 14.667 -26 29.167 -40 43.5s-28.667 28.5 -44 42.5h212l25.5 -31c9.66699 -11.333 20.167 -24.333 31.5 -39l161 15v-123l-89 -8c20 -42 37.167 -89.833 51.5 -143.5s21.5 -114.5 21.5 -182.5c0 -102.667 -24.833 -179.5 -74.5 -230.5
s-122.834 -76.5 -219.501 -76.5c-94.667 0 -167 23.833 -217 71.5s-75 117.167 -75 208.5s24.333 161.166 73 209.499s117.334 72.5 206.001 72.5c18.667 0 35.334 -1.66699 50.001 -5s28.667 -9.66602 42 -18.999c-9.33301 26 -21.333 52.333 -36 79l-178 -16v123z
M318.999 147c16.667 0 30.334 1.66797 41.001 5.00098s19.167 9.5 25.5 18.5s10.666 21.167 12.999 36.5s3.5 35.333 3.5 60c0 26 -1.5 47 -4.5 63s-7.66699 28.667 -14 38s-15 15.666 -26 18.999s-24.5 5 -40.5 5c-16.667 0 -30.167 -1.66699 -40.5 -5
s-18.5 -9.5 -24.5 -18.5s-10.167 -21.333 -12.5 -37s-3.5 -36.167 -3.5 -61.5c0 -26 1.16699 -47 3.5 -63s6.66602 -28.5 12.999 -37.5s14.833 -15 25.5 -18s24.334 -4.5 41.001 -4.5z" />
    <glyph glyph-name="ntilde" unicode="&#xf1;" horiz-adv-x="648" 
d="M49 540h176.999l10 -60h7c47.333 26 87 44.167 119 54.5s62.667 15.5 92 15.5c45.333 0 81.333 -13.5 108 -40.5s40 -63.167 40 -108.5v-401h-210v328c0 19.333 -3.66699 33.166 -11 41.499s-17.666 12.5 -30.999 12.5c-12 0 -26.333 -2.16699 -43 -6.5
s-32.667 -9.16602 -48 -14.499v-361h-210v540zM98.999 660c23.333 45.333 50.166 78.833 80.499 100.5s59.5 32.5 87.5 32.5c16 0 32 -2.5 48 -7.5s32 -10.333 48 -16s32.167 -11 48.5 -16s32.5 -7.5 48.5 -7.5c14 0 27.667 2.66699 41 8s28.666 16 45.999 32l28 -40
c-23.333 -45.333 -50.166 -78.833 -80.499 -100.5s-59.166 -32.5 -86.499 -32.5c-16 0 -32.167 2.33301 -48.5 7s-32.5 10 -48.5 16s-32.167 11.333 -48.5 16s-32.5 7 -48.5 7c-14 0 -27.667 -2.5 -41 -7.5s-28.333 -15.167 -45 -30.5z" />
    <glyph glyph-name="ograve" unicode="&#xf2;" horiz-adv-x="638" 
d="M319 -11c-96 0 -168.833 23.833 -218.5 71.5s-74.5 117.5 -74.5 209.5s24.833 161.667 74.5 209s122.5 71 218.5 71s168.833 -23.667 218.5 -71s74.5 -117 74.5 -209s-24.833 -161.833 -74.5 -209.5s-122.5 -71.5 -218.5 -71.5zM319 147c16.667 0 30.334 1.5 41.001 4.5
s19.167 9 25.5 18s10.666 21.5 12.999 37.5s3.5 37 3.5 63s-1.16699 47 -3.5 63s-6.66602 28.333 -12.999 37s-14.833 14.5 -25.5 17.5s-24.334 4.5 -41.001 4.5s-30.334 -1.5 -41.001 -4.5s-19.167 -9 -25.5 -18s-10.666 -21.333 -12.999 -37s-3.5 -36.5 -3.5 -62.5
s1.16699 -47 3.5 -63s6.66602 -28.5 12.999 -37.5s14.833 -15 25.5 -18s24.334 -4.5 41.001 -4.5zM234 609l-128 199h215l63 -189z" />
    <glyph glyph-name="oacute" unicode="&#xf3;" horiz-adv-x="638" 
d="M238 619l63 189h215l-128 -199zM319 -11c-96 0 -168.833 23.833 -218.5 71.5s-74.5 117.5 -74.5 209.5s24.833 161.667 74.5 209s122.5 71 218.5 71s168.833 -23.667 218.5 -71s74.5 -117 74.5 -209s-24.833 -161.833 -74.5 -209.5s-122.5 -71.5 -218.5 -71.5zM319 147
c16.667 0 30.334 1.5 41.001 4.5s19.167 9 25.5 18s10.666 21.5 12.999 37.5s3.5 37 3.5 63s-1.16699 47 -3.5 63s-6.66602 28.333 -12.999 37s-14.833 14.5 -25.5 17.5s-24.334 4.5 -41.001 4.5s-30.334 -1.5 -41.001 -4.5s-19.167 -9 -25.5 -18
s-10.666 -21.333 -12.999 -37s-3.5 -36.5 -3.5 -62.5s1.16699 -47 3.5 -63s6.66602 -28.5 12.999 -37.5s14.833 -15 25.5 -18s24.334 -4.5 41.001 -4.5z" />
    <glyph glyph-name="ocircumflex" unicode="&#xf4;" horiz-adv-x="638" 
d="M121 738l202 76l204 -76v-136l-203 76l-203 -76v136zM319 -11c-96 0 -168.833 23.833 -218.5 71.5s-74.5 117.5 -74.5 209.5s24.833 161.667 74.5 209s122.5 71 218.5 71s168.833 -23.667 218.5 -71s74.5 -117 74.5 -209s-24.833 -161.833 -74.5 -209.5
s-122.5 -71.5 -218.5 -71.5zM319 147c16.667 0 30.334 1.5 41.001 4.5s19.167 9 25.5 18s10.666 21.5 12.999 37.5s3.5 37 3.5 63s-1.16699 47 -3.5 63s-6.66602 28.333 -12.999 37s-14.833 14.5 -25.5 17.5s-24.334 4.5 -41.001 4.5s-30.334 -1.5 -41.001 -4.5
s-19.167 -9 -25.5 -18s-10.666 -21.333 -12.999 -37s-3.5 -36.5 -3.5 -62.5s1.16699 -47 3.5 -63s6.66602 -28.5 12.999 -37.5s14.833 -15 25.5 -18s24.334 -4.5 41.001 -4.5z" />
    <glyph glyph-name="otilde" unicode="&#xf5;" horiz-adv-x="638" 
d="M319 -11c-96 0 -168.833 23.833 -218.5 71.5s-74.5 117.5 -74.5 209.5s24.833 161.667 74.5 209s122.5 71 218.5 71s168.833 -23.667 218.5 -71s74.5 -117 74.5 -209s-24.833 -161.833 -74.5 -209.5s-122.5 -71.5 -218.5 -71.5zM319 147c16.667 0 30.334 1.5 41.001 4.5
s19.167 9 25.5 18s10.666 21.5 12.999 37.5s3.5 37 3.5 63s-1.16699 47 -3.5 63s-6.66602 28.333 -12.999 37s-14.833 14.5 -25.5 17.5s-24.334 4.5 -41.001 4.5s-30.334 -1.5 -41.001 -4.5s-19.167 -9 -25.5 -18s-10.666 -21.333 -12.999 -37s-3.5 -36.5 -3.5 -62.5
s1.16699 -47 3.5 -63s6.66602 -28.5 12.999 -37.5s14.833 -15 25.5 -18s24.334 -4.5 41.001 -4.5zM91 660c23.333 45.333 50.166 78.833 80.499 100.5s59.5 32.5 87.5 32.5c16 0 32 -2.5 48 -7.5s32 -10.333 48 -16s32.167 -11 48.5 -16s32.5 -7.5 48.5 -7.5
c14 0 27.667 2.66699 41 8s28.666 16 45.999 32l28 -40c-23.333 -45.333 -50.166 -78.833 -80.499 -100.5s-59.166 -32.5 -86.499 -32.5c-16 0 -32.167 2.33301 -48.5 7s-32.5 10 -48.5 16s-32.167 11.333 -48.5 16s-32.5 7 -48.5 7c-14 0 -27.667 -2.5 -41 -7.5
s-28.333 -15.167 -45 -30.5z" />
    <glyph glyph-name="odieresis" unicode="&#xf6;" horiz-adv-x="638" 
d="M185 607c-36 0 -61.833 7.83301 -77.5 23.5s-23.5 40.5 -23.5 74.5s7.83301 58.667 23.5 74s41.5 23 77.5 23s61.833 -7.66699 77.5 -23s23.5 -40 23.5 -74s-7.83301 -58.833 -23.5 -74.5s-41.5 -23.5 -77.5 -23.5zM455 607c-36 0 -61.667 7.83301 -77 23.5
s-23 40.5 -23 74.5s7.66699 58.667 23 74s41 23 77 23s61.833 -7.66699 77.5 -23s23.5 -40 23.5 -74s-7.83301 -58.833 -23.5 -74.5s-41.5 -23.5 -77.5 -23.5zM319 -11c-96 0 -168.833 23.833 -218.5 71.5s-74.5 117.5 -74.5 209.5s24.833 161.667 74.5 209
s122.5 71 218.5 71s168.833 -23.667 218.5 -71s74.5 -117 74.5 -209s-24.833 -161.833 -74.5 -209.5s-122.5 -71.5 -218.5 -71.5zM319 147c16.667 0 30.334 1.5 41.001 4.5s19.167 9 25.5 18s10.666 21.5 12.999 37.5s3.5 37 3.5 63s-1.16699 47 -3.5 63
s-6.66602 28.333 -12.999 37s-14.833 14.5 -25.5 17.5s-24.334 4.5 -41.001 4.5s-30.334 -1.5 -41.001 -4.5s-19.167 -9 -25.5 -18s-10.666 -21.333 -12.999 -37s-3.5 -36.5 -3.5 -62.5s1.16699 -47 3.5 -63s6.66602 -28.5 12.999 -37.5s14.833 -15 25.5 -18
s24.334 -4.5 41.001 -4.5z" />
    <glyph glyph-name="divide" unicode="&#xf7;" horiz-adv-x="529" 
d="M267 91c-24.667 0 -44.834 7 -60.501 21s-23.5 35.667 -23.5 65c0 28 7.83301 48.667 23.5 62s35.834 20 60.501 20c24 0 43.833 -6.66699 59.5 -20s23.5 -34 23.5 -62c0 -29.333 -7.83301 -51 -23.5 -65s-35.5 -21 -59.5 -21zM28 437h474v-134h-474v134zM267 481
c-24.667 0 -44.834 6.66699 -60.501 20s-23.5 34 -23.5 62c0 29.333 7.83301 51 23.5 65s35.834 21 60.501 21c24 0 43.833 -7 59.5 -21s23.5 -35.667 23.5 -65c0 -28 -7.83301 -48.667 -23.5 -62s-35.5 -20 -59.5 -20z" />
    <glyph glyph-name="oslash" unicode="&#xf8;" horiz-adv-x="645" 
d="M80 90c-32.667 45.333 -49 105.333 -49 180c0 88 23.833 156.667 71.5 206s121.167 74 220.5 74c68 0 125 -12.333 171 -37l26 27h133l-87 -89c33.333 -46.667 50 -107 50 -181c0 -88.667 -24.167 -157.667 -72.5 -207s-121.833 -74 -220.5 -74
c-68.667 0 -125.667 12.333 -171 37l-26 -26h-134zM323 147c20 0 35.501 1.83301 46.501 5.5s19.167 10.167 24.5 19.5s8.66602 22 9.99902 38s2 36 2 60v17l-131 -134c12 -4 28 -6 48 -6zM241.001 254l129 132.001c-12 4 -27.667 6 -47 6c-20 0 -35.5 -1.83301 -46.5 -5.5
s-19.167 -10 -24.5 -19s-8.5 -21.333 -9.5 -37s-1.5 -35.834 -1.5 -60.501v-16z" />
    <glyph glyph-name="ugrave" unicode="&#xf9;" horiz-adv-x="648" 
d="M204 -10c-50 0 -88.8311 13.498 -116.498 40.498s-41.5 63.5 -41.5 109.5v400h210v-335c0 -35.333 15 -53 45 -53c11.333 0 24.666 1.83301 39.999 5.5s31.333 8.83398 48 15.501v367h210v-540h-177l-10 59h-4c-22.667 -13.333 -42.334 -24.333 -59.001 -33
s-32.5 -15.667 -47.5 -21s-30 -9.16602 -45 -11.499s-32.5 -3.5 -52.5 -3.5zM240.002 608.998l-128 199h215l63 -189z" />
    <glyph glyph-name="uacute" unicode="&#xfa;" horiz-adv-x="648" 
d="M241 619l63 189h215l-128 -199zM204 -10c-50 0 -88.8311 13.498 -116.498 40.498s-41.5 63.5 -41.5 109.5v400h210v-335c0 -35.333 15 -53 45 -53c11.333 0 24.666 1.83301 39.999 5.5s31.333 8.83398 48 15.501v367h210v-540h-177l-10 59h-4
c-22.667 -13.333 -42.334 -24.333 -59.001 -33s-32.5 -15.667 -47.5 -21s-30 -9.16602 -45 -11.499s-32.5 -3.5 -52.5 -3.5z" />
    <glyph glyph-name="ucircumflex" unicode="&#xfb;" horiz-adv-x="648" 
d="M128 738l202 76l204 -76v-136l-203 76l-203 -76v136zM204 -10c-50 0 -88.8311 13.498 -116.498 40.498s-41.5 63.5 -41.5 109.5v400h210v-335c0 -35.333 15 -53 45 -53c11.333 0 24.666 1.83301 39.999 5.5s31.333 8.83398 48 15.501v367h210v-540h-177l-10 59h-4
c-22.667 -13.333 -42.334 -24.333 -59.001 -33s-32.5 -15.667 -47.5 -21s-30 -9.16602 -45 -11.499s-32.5 -3.5 -52.5 -3.5z" />
    <glyph glyph-name="udieresis" unicode="&#xfc;" horiz-adv-x="648" 
d="M190 607c-36 0 -61.833 7.83301 -77.5 23.5s-23.5 40.5 -23.5 74.5s7.83301 58.667 23.5 74s41.5 23 77.5 23s61.833 -7.66699 77.5 -23s23.5 -40 23.5 -74s-7.83301 -58.833 -23.5 -74.5s-41.5 -23.5 -77.5 -23.5zM460 607c-36 0 -61.667 7.83301 -77 23.5
s-23 40.5 -23 74.5s7.66699 58.667 23 74s41 23 77 23s61.833 -7.66699 77.5 -23s23.5 -40 23.5 -74s-7.83301 -58.833 -23.5 -74.5s-41.5 -23.5 -77.5 -23.5zM204 -10c-50 0 -88.8311 13.498 -116.498 40.498s-41.5 63.5 -41.5 109.5v400h210v-335c0 -35.333 15 -53 45 -53
c11.333 0 24.666 1.83301 39.999 5.5s31.333 8.83398 48 15.501v367h210v-540h-177l-10 59h-4c-22.667 -13.333 -42.334 -24.333 -59.001 -33s-32.5 -15.667 -47.5 -21s-30 -9.16602 -45 -11.499s-32.5 -3.5 -52.5 -3.5z" />
    <glyph glyph-name="yacute" unicode="&#xfd;" horiz-adv-x="630" 
d="M143 -189v14l67 182l-212 514v19h222l63 -225l26 -103h12l26 103l65 225h218v-19l-284 -741zM241 619l63 189h215l-128 -199z" />
    <glyph glyph-name="thorn" unicode="&#xfe;" horiz-adv-x="647" 
d="M49 808h210v-315c17.333 16.667 39.166 30.167 65.499 40.5s57.833 15.5 94.5 15.5c70 0 120.833 -21.5 152.5 -64.5s47.5 -109.5 47.5 -199.5c0 -47.333 -5.83301 -89.166 -17.5 -125.499s-30 -67 -55 -92s-57.167 -44 -96.5 -57s-86.666 -19.5 -141.999 -19.5
c-1.33301 0 -7 0.166992 -17 0.5s-20.667 1.16602 -32 2.49902v-214h-210v1028zM308 125c21.333 0 38.5 0.830078 51.5 2.49707s23 6.83398 30 15.501s11.667 22.334 14 41.001s3.5 45 3.5 79c0 32.667 -0.833008 58.5 -2.5 77.5s-5 33.333 -10 43s-11.833 15.667 -20.5 18
s-20 3.5 -34 3.5c-20 0 -35.5 -3.66699 -46.5 -11s-19 -19.333 -24 -36s-8 -38.667 -9 -66s-1.5 -61.333 -1.5 -102v-50c11.333 -5.33301 22 -9.16602 32 -11.499s15.667 -3.5 17 -3.5z" />
    <glyph glyph-name="ydieresis" unicode="&#xff;" horiz-adv-x="630" 
d="M143 -189v14l67 182l-212 514v19h222l63 -225l26 -103h12l26 103l65 225h218v-19l-284 -741zM182 607c-36 0 -61.833 7.83301 -77.5 23.5s-23.5 40.5 -23.5 74.5s7.83301 58.667 23.5 74s41.5 23 77.5 23s61.833 -7.66699 77.5 -23s23.5 -40 23.5 -74
s-7.83301 -58.833 -23.5 -74.5s-41.5 -23.5 -77.5 -23.5zM452 607c-36 0 -61.667 7.83301 -77 23.5s-23 40.5 -23 74.5s7.66699 58.667 23 74s41 23 77 23s61.833 -7.66699 77.5 -23s23.5 -40 23.5 -74s-7.83301 -58.833 -23.5 -74.5s-41.5 -23.5 -77.5 -23.5z" />
    <glyph glyph-name="Amacron" unicode="&#x100;" horiz-adv-x="735" 
d="M-5 10l212 730h321l211 -730v-10h-205l-43 154h-248l-42 -154h-206v10zM446 319l-33 132l-38 140h-16l-37 -141l-34 -131h158zM166 976h405v-136h-405v136z" />
    <glyph glyph-name="amacron" unicode="&#x101;" horiz-adv-x="590" 
d="M184 -5c-52 0 -92.1641 14.833 -120.497 44.5s-42.5 69.5 -42.5 119.5c0 109.333 67.667 167.333 203 174l112 6c-0.666992 12 -2.33398 22 -5.00098 30s-7.33398 14.333 -14.001 19s-15.834 8 -27.501 10s-26.5 3 -44.5 3c-11.333 0 -24.333 -0.5 -39 -1.5
s-30 -2.16699 -46 -3.5s-31.667 -3.16602 -47 -5.49902s-29 -4.5 -41 -6.5l-13 144c38 6.66699 75.5 11.667 112.5 15s71.833 5 104.5 5c92.667 0 160.834 -14.833 204.501 -44.5s65.5 -75.834 65.5 -138.501v-365h-173l-17 65h-10c-20 -23.333 -44.333 -40.833 -73 -52.5
s-58.334 -17.5 -89.001 -17.5zM274.003 138c11.333 0 22.832 2.16797 34.499 6.50098s20.834 9.16602 27.501 14.499v72l-52 -5c-19.333 -2 -32.833 -6.16699 -40.5 -12.5s-11.5 -16.833 -11.5 -31.5c0 -29.333 14 -44 42 -44zM98.002 761.001h405v-131h-405v131z" />
    <glyph glyph-name="Abreve" unicode="&#x102;" horiz-adv-x="735" 
d="M-5 10l212 730h321l211 -730v-10h-205l-43 154h-248l-42 -154h-206v10zM446 319l-33 132l-38 140h-16l-37 -141l-34 -131h158zM369 801c-40.667 0 -75.166 4.66699 -103.499 14s-51.333 22.5 -69 39.5s-30.5 37 -38.5 60s-12 48.5 -12 76.5h138
c0 -33.333 5.66699 -57.5 17 -72.5s34 -22.5 68 -22.5c33.333 0 55.666 7.5 66.999 22.5s17 39.167 17 72.5h138c0 -28 -4 -53.667 -12 -77s-21 -43.333 -39 -60s-41 -29.667 -69 -39s-62 -14 -102 -14z" />
    <glyph glyph-name="abreve" unicode="&#x103;" horiz-adv-x="590" 
d="M184 -5c-52 0 -92.1641 14.833 -120.497 44.5s-42.5 69.5 -42.5 119.5c0 109.333 67.667 167.333 203 174l112 6c-0.666992 12 -2.33398 22 -5.00098 30s-7.33398 14.333 -14.001 19s-15.834 8 -27.501 10s-26.5 3 -44.5 3c-11.333 0 -24.333 -0.5 -39 -1.5
s-30 -2.16699 -46 -3.5s-31.667 -3.16602 -47 -5.49902s-29 -4.5 -41 -6.5l-13 144c38 6.66699 75.5 11.667 112.5 15s71.833 5 104.5 5c92.667 0 160.834 -14.833 204.501 -44.5s65.5 -75.834 65.5 -138.501v-365h-173l-17 65h-10c-20 -23.333 -44.333 -40.833 -73 -52.5
s-58.334 -17.5 -89.001 -17.5zM274.003 138c11.333 0 22.832 2.16797 34.499 6.50098s20.834 9.16602 27.501 14.499v72l-52 -5c-19.333 -2 -32.833 -6.16699 -40.5 -12.5s-11.5 -16.833 -11.5 -31.5c0 -29.333 14 -44 42 -44zM298.002 611.001
c-39.333 0 -72.8311 4.33105 -100.498 12.998s-50.334 20.834 -68.001 36.501s-30.834 34.5 -39.501 56.5s-13.334 46.667 -14.001 74h138c0 -26 6 -45.833 18 -59.5s34 -20.5 66 -20.5s53.833 6.83301 65.5 20.5s17.834 33.5 18.501 59.5h138
c-1.33301 -27.333 -6.16602 -52.166 -14.499 -74.499s-21.333 -41.333 -39 -57s-40.334 -27.667 -68.001 -36s-61.167 -12.5 -100.5 -12.5z" />
    <glyph glyph-name="Aogonek" unicode="&#x104;" horiz-adv-x="734" 
d="M643 -220c-50 0 -88.334 8.49902 -115.001 25.499s-40 41.833 -40 74.5c0 44 26 84 78 120h-33l-43 154h-248l-42 -154h-206v10l212 730h321l211 -730v-15c-22.667 -8.66699 -41.5 -17 -56.5 -25s-27 -15.5 -36 -22.5s-15.333 -13.667 -19 -20s-5.5 -12.166 -5.5 -17.499
c0 -12.667 10 -19 30 -19c10.667 0 24.5 1.5 41.5 4.5s32.5 6.5 46.5 10.5v-114c-16 -4 -31.667 -7 -47 -9s-31.666 -3 -48.999 -3zM444.999 318.999l-33 132l-38 140h-16l-37 -141l-34 -131h158z" />
    <glyph glyph-name="aogonek" unicode="&#x105;" horiz-adv-x="591" 
d="M452 -220c-50 0 -88.3311 8.49902 -114.998 25.499s-40 41.833 -40 74.5c0 44.667 25.667 84.667 77 120l-17 65h-10c-20 -23.333 -44.333 -40.833 -73 -52.5s-58.334 -17.5 -89.001 -17.5c-52 0 -92.167 14.833 -120.5 44.5s-42.5 69.5 -42.5 119.5
c0 109.333 67.667 167.333 203 174l112 6c-0.666992 12 -2.33398 22 -5.00098 30s-7.33398 14.333 -14.001 19s-15.834 8 -27.501 10s-26.5 3 -44.5 3c-11.333 0 -24.333 -0.5 -39 -1.5s-30 -2.16699 -46 -3.5s-31.667 -3.16602 -47 -5.49902s-29 -4.5 -41 -6.5l-13 144
c38 6.66699 75.5 11.667 112.5 15s71.833 5 104.5 5c92.667 0 160.834 -14.833 204.501 -44.5s65.5 -75.834 65.5 -138.501v-370c-22.667 -8.66699 -41.5 -17 -56.5 -25s-27 -15.5 -36 -22.5s-15.333 -13.667 -19 -20s-5.5 -12.166 -5.5 -17.499c0 -12.667 10 -19 30 -19
c10.667 0 24.5 1.5 41.5 4.5s32.5 6.5 46.5 10.5v-114c-16 -4 -31.667 -7 -47 -9s-31.666 -3 -48.999 -3zM275.002 137.999c11.333 0 22.832 2.16797 34.499 6.50098s20.834 9.16602 27.501 14.499v72l-52 -5c-19.333 -2 -32.833 -6.16699 -40.5 -12.5
s-11.5 -16.833 -11.5 -31.5c0 -29.333 14 -44 42 -44z" />
    <glyph glyph-name="Cacute" unicode="&#x106;" horiz-adv-x="581" 
d="M394 -12c-122.667 0 -213.999 30.998 -273.999 92.998s-90 158.333 -90 289c0 130 29.333 226.167 88 288.5s146.334 93.5 263.001 93.5c24 0 49.5 -1.16699 76.5 -3.5s58.5 -6.16602 94.5 -11.499v-170c-18.667 2 -34.834 3.83301 -48.501 5.5s-26 2.83398 -37 3.50098
s-21 1.16699 -30 1.5s-17.833 0.5 -26.5 0.5c-32 0 -58.167 -2.66699 -78.5 -8s-36.5 -15.5 -48.5 -30.5s-20.333 -36.167 -25 -63.5s-7 -63 -7 -107c0 -43.333 2.33301 -78.333 7 -105s13 -47.5 25 -62.5s28.167 -25.167 48.5 -30.5s46.166 -8 77.499 -8
c22.667 0 47.667 1.16699 75 3.5s50 5.5 68 9.5v-168c-21.333 -6 -46 -10.833 -74 -14.5s-56 -5.5 -84 -5.5zM242.001 808.998l63 189h215l-128 -199z" />
    <glyph glyph-name="cacute" unicode="&#x107;" horiz-adv-x="509" 
d="M210 619l63 189h215l-128 -199zM313 -9c-96 0 -167.666 22.6719 -214.999 68.0049s-71 115.666 -71 210.999s23.667 165.666 71 210.999s119 68 215 68c30 0 59.167 -1.5 87.5 -4.5s52.833 -7.5 73.5 -13.5v-161c-26 3.33301 -50.667 6 -74 8s-45 3 -65 3
c-18.667 0 -34.167 -1.83301 -46.5 -5.5s-22.333 -9.83398 -30 -18.501s-13.167 -19.834 -16.5 -33.501s-5 -30.834 -5 -51.501c0 -41.333 7 -70.5 21 -87.5s39 -25.5 75 -25.5c29.333 0 54.666 0.833008 75.999 2.5s43 4.5 65 8.5v-161
c-20.667 -6 -45.167 -10.5 -73.5 -13.5s-57.5 -4.5 -87.5 -4.5z" />
    <glyph glyph-name="Ccircumflex" unicode="&#x108;" horiz-adv-x="581" 
d="M394 -12c-122.667 0 -213.999 30.998 -273.999 92.998s-90 158.333 -90 289c0 130 29.333 226.167 88 288.5s146.334 93.5 263.001 93.5c24 0 49.5 -1.16699 76.5 -3.5s58.5 -6.16602 94.5 -11.499v-170c-18.667 2 -34.834 3.83301 -48.501 5.5s-26 2.83398 -37 3.50098
s-21 1.16699 -30 1.5s-17.833 0.5 -26.5 0.5c-32 0 -58.167 -2.66699 -78.5 -8s-36.5 -15.5 -48.5 -30.5s-20.333 -36.167 -25 -63.5s-7 -63 -7 -107c0 -43.333 2.33301 -78.333 7 -105s13 -47.5 25 -62.5s28.167 -25.167 48.5 -30.5s46.166 -8 77.499 -8
c22.667 0 47.667 1.16699 75 3.5s50 5.5 68 9.5v-168c-21.333 -6 -46 -10.833 -74 -14.5s-56 -5.5 -84 -5.5zM121.001 927.998l202 76l204 -76v-136l-203 76l-203 -76v136z" />
    <glyph glyph-name="ccircumflex" unicode="&#x109;" horiz-adv-x="509" 
d="M86 738l202 76l204 -76v-136l-203 76l-203 -76v136zM313 -9c-96 0 -167.666 22.6719 -214.999 68.0049s-71 115.666 -71 210.999s23.667 165.666 71 210.999s119 68 215 68c30 0 59.167 -1.5 87.5 -4.5s52.833 -7.5 73.5 -13.5v-161c-26 3.33301 -50.667 6 -74 8
s-45 3 -65 3c-18.667 0 -34.167 -1.83301 -46.5 -5.5s-22.333 -9.83398 -30 -18.501s-13.167 -19.834 -16.5 -33.501s-5 -30.834 -5 -51.501c0 -41.333 7 -70.5 21 -87.5s39 -25.5 75 -25.5c29.333 0 54.666 0.833008 75.999 2.5s43 4.5 65 8.5v-161
c-20.667 -6 -45.167 -10.5 -73.5 -13.5s-57.5 -4.5 -87.5 -4.5z" />
    <glyph glyph-name="Cdotaccent" unicode="&#x10a;" horiz-adv-x="581" 
d="M338 796c-40.667 0 -69.5 8.66699 -86.5 26s-25.5 45 -25.5 83s8.5 65.667 25.5 83s45.833 26 86.5 26c40 0 68.667 -8.66699 86 -26s26 -45 26 -83s-8.66699 -65.667 -26 -83s-46 -26 -86 -26zM394 -12c-122.667 0 -213.999 30.998 -273.999 92.998s-90 158.333 -90 289
c0 130 29.333 226.167 88 288.5s146.334 93.5 263.001 93.5c24 0 49.5 -1.16699 76.5 -3.5s58.5 -6.16602 94.5 -11.499v-170c-18.667 2 -34.834 3.83301 -48.501 5.5s-26 2.83398 -37 3.50098s-21 1.16699 -30 1.5s-17.833 0.5 -26.5 0.5c-32 0 -58.167 -2.66699 -78.5 -8
s-36.5 -15.5 -48.5 -30.5s-20.333 -36.167 -25 -63.5s-7 -63 -7 -107c0 -43.333 2.33301 -78.333 7 -105s13 -47.5 25 -62.5s28.167 -25.167 48.5 -30.5s46.166 -8 77.499 -8c22.667 0 47.667 1.16699 75 3.5s50 5.5 68 9.5v-168c-21.333 -6 -46 -10.833 -74 -14.5
s-56 -5.5 -84 -5.5z" />
    <glyph glyph-name="cdotaccent" unicode="&#x10b;" horiz-adv-x="509" 
d="M313 -9c-96 0 -167.666 22.6719 -214.999 68.0049s-71 115.666 -71 210.999s23.667 165.666 71 210.999s119 68 215 68c30 0 59.167 -1.5 87.5 -4.5s52.833 -7.5 73.5 -13.5v-161c-26 3.33301 -50.667 6 -74 8s-45 3 -65 3c-18.667 0 -34.167 -1.83301 -46.5 -5.5
s-22.333 -9.83398 -30 -18.501s-13.167 -19.834 -16.5 -33.501s-5 -30.834 -5 -51.501c0 -41.333 7 -70.5 21 -87.5s39 -25.5 75 -25.5c29.333 0 54.666 0.833008 75.999 2.5s43 4.5 65 8.5v-161c-20.667 -6 -45.167 -10.5 -73.5 -13.5s-57.5 -4.5 -87.5 -4.5z
M280.001 596.005c-40 0 -68.667 8.66699 -86 26s-26 45 -26 83s8.66699 65.667 26 83s46 26 86 26c40.667 0 69.5 -8.66699 86.5 -26s25.5 -45 25.5 -83s-8.5 -65.667 -25.5 -83s-45.833 -26 -86.5 -26z" />
    <glyph glyph-name="Ccaron" unicode="&#x10c;" horiz-adv-x="581" 
d="M394 -12c-122.667 0 -213.999 30.998 -273.999 92.998s-90 158.333 -90 289c0 130 29.333 226.167 88 288.5s146.334 93.5 263.001 93.5c24 0 49.5 -1.16699 76.5 -3.5s58.5 -6.16602 94.5 -11.499v-170c-18.667 2 -34.834 3.83301 -48.501 5.5s-26 2.83398 -37 3.50098
s-21 1.16699 -30 1.5s-17.833 0.5 -26.5 0.5c-32 0 -58.167 -2.66699 -78.5 -8s-36.5 -15.5 -48.5 -30.5s-20.333 -36.167 -25 -63.5s-7 -63 -7 -107c0 -43.333 2.33301 -78.333 7 -105s13 -47.5 25 -62.5s28.167 -25.167 48.5 -30.5s46.166 -8 77.499 -8
c22.667 0 47.667 1.16699 75 3.5s50 5.5 68 9.5v-168c-21.333 -6 -46 -10.833 -74 -14.5s-56 -5.5 -84 -5.5zM127.001 1004l203 -76l203 76v-136l-204 -76l-202 76v136z" />
    <glyph glyph-name="ccaron" unicode="&#x10d;" horiz-adv-x="509" 
d="M77 814l203 -76l203 76v-136l-204 -76l-202 76v136zM313 -9c-96 0 -167.666 22.6719 -214.999 68.0049s-71 115.666 -71 210.999s23.667 165.666 71 210.999s119 68 215 68c30 0 59.167 -1.5 87.5 -4.5s52.833 -7.5 73.5 -13.5v-161c-26 3.33301 -50.667 6 -74 8
s-45 3 -65 3c-18.667 0 -34.167 -1.83301 -46.5 -5.5s-22.333 -9.83398 -30 -18.501s-13.167 -19.834 -16.5 -33.501s-5 -30.834 -5 -51.501c0 -41.333 7 -70.5 21 -87.5s39 -25.5 75 -25.5c29.333 0 54.666 0.833008 75.999 2.5s43 4.5 65 8.5v-161
c-20.667 -6 -45.167 -10.5 -73.5 -13.5s-57.5 -4.5 -87.5 -4.5z" />
    <glyph glyph-name="Dcaron" unicode="&#x10e;" horiz-adv-x="753" 
d="M171 1004l203 -76l203 76v-136l-204 -76l-202 76v136zM279 -11c-36 0 -73.001 0.998047 -111.001 2.99805s-74.667 5.33301 -110 10v737c58 3.33301 106.5 6 145.5 8s73.833 3 104.5 3c74 0 137.167 -7.16699 189.5 -21.5s95.333 -36.666 129 -66.999
s58.167 -69.666 73.5 -117.999s23 -106.5 23 -174.5c0 -69.333 -8 -128 -24 -176s-41.667 -87.167 -77 -117.5s-81.166 -52.333 -137.499 -66s-124.833 -20.5 -205.5 -20.5zM361.999 158.998c28 0 51.1689 3 69.502 9s32.666 16.833 42.999 32.5s17.666 37.167 21.999 64.5
s6.5 62.333 6.5 105c0 41.333 -2.5 75.5 -7.5 102.5s-13.5 48.5 -25.5 64.5s-28.167 27.333 -48.5 34s-45.833 10 -76.5 10c-12 0 -23.5 -0.333008 -34.5 -1s-24.167 -2 -39.5 -4v-411c32 -4 62.333 -6 91 -6z" />
    <glyph glyph-name="dcaron" unicode="&#x10f;" horiz-adv-x="650" 
d="M642 808h163l-50 -228h-113v228zM239 -10c-141.333 0 -212.001 87.332 -212.001 261.999c0 99.333 26.333 173.833 79 223.5s127.334 74.5 224.001 74.5c9.33301 0 18.833 -0.166992 28.5 -0.5s20.167 -1.16602 31.5 -2.49902v261h210v-808h-187l-14 63h-8
c-33.333 -48.667 -84 -73 -152 -73zM309.999 139.999c14.667 0 27.167 2.16797 37.5 6.50098s18.666 11.833 24.999 22.5s10.833 24.834 13.5 42.501s4 40.167 4 67.5v121c-8 3.33301 -17.667 5.66602 -29 6.99902s-23.666 2 -36.999 2c-18 0 -32.5 -1.66699 -43.5 -5
s-19.667 -10 -26 -20s-10.5 -24 -12.5 -42s-3 -41.333 -3 -70c0 -27.333 1 -49.5 3 -66.5s5.5 -30.333 10.5 -40s12.167 -16.334 21.5 -20.001s21.333 -5.5 36 -5.5z" />
    <glyph glyph-name="Dcroat" unicode="&#x110;" horiz-adv-x="780" 
d="M2 454l83.999 -0.00195312v285c58 3.33301 106.5 6 145.5 8s73.833 3 104.5 3c74 0 137.167 -7.16699 189.5 -21.5s95.333 -36.666 129 -66.999s58.167 -69.666 73.5 -117.999s23 -106.5 23 -174.5c0 -69.333 -8 -128 -24 -176s-41.667 -87.167 -77 -117.5
s-81.166 -52.333 -137.499 -66s-124.833 -20.5 -205.5 -20.5c-36 0 -73 1 -111 3s-74.667 5.33301 -110 10v293h-84v159zM389.999 158.998c28 0 51.1689 3 69.502 9s32.666 16.833 42.999 32.5s17.666 37.167 21.999 64.5s6.5 62.333 6.5 105c0 41.333 -2.5 75.5 -7.5 102.5
s-13.5 48.5 -25.5 64.5s-28.167 27.333 -48.5 34s-45.833 10 -76.5 10c-12 0 -23.5 -0.333008 -34.5 -1s-24.167 -2 -39.5 -4v-122h84v-159h-84v-130c32 -4 62.333 -6 91 -6z" />
    <glyph glyph-name="dcroat" unicode="&#x111;" horiz-adv-x="650" 
d="M243 734l146.999 -0.000976562v74h210v-74h67v-119h-67v-615h-187l-14 63h-8c-33.333 -48.667 -84 -73 -152 -73c-141.333 0 -212 87.333 -212 262c0 99.333 26.333 173.833 79 223.5s127.334 74.5 224.001 74.5c9.33301 0 18.833 -0.166992 28.5 -0.5
s20.167 -1.16602 31.5 -2.49902v68h-147v119zM309.999 139.999c14.667 0 27.167 2.16797 37.5 6.50098s18.666 11.833 24.999 22.5s10.833 24.834 13.5 42.501s4 40.167 4 67.5v121c-8 3.33301 -17.667 5.66602 -29 6.99902s-23.666 2 -36.999 2
c-18 0 -32.5 -1.66699 -43.5 -5s-19.667 -10 -26 -20s-10.5 -24 -12.5 -42s-3 -41.333 -3 -70c0 -27.333 1 -49.5 3 -66.5s5.5 -30.333 10.5 -40s12.167 -16.334 21.5 -20.001s21.333 -5.5 36 -5.5z" />
    <glyph glyph-name="Emacron" unicode="&#x112;" horiz-adv-x="642" 
d="M132 976h405v-136h-405v136zM58 740h543v-169h-328v-116h293v-169h-293v-117h338v-169h-553v740z" />
    <glyph glyph-name="emacron" unicode="&#x113;" horiz-adv-x="585" 
d="M311 -9c-189.333 0 -284.001 92.001 -284.001 276.001c0 188 95.667 282 287 282c82.667 0 144 -20.167 184 -60.5s60 -102.833 60 -187.5c0 -18.667 -0.666992 -34.667 -2 -48s-3.66602 -26.666 -6.99902 -39.999h-313c1.33301 -14.667 3.83301 -26.334 7.5 -35.001
s9 -15.334 16 -20.001s16.167 -7.66699 27.5 -9s25 -2 41 -2c14 0 29.5 0.666992 46.5 2s34.667 3 53 5s36.5 4.33301 54.5 7s34.667 5.66699 50 9l5 -148c-32 -9.33301 -68.167 -16.833 -108.5 -22.5s-79.5 -8.5 -117.5 -8.5zM304.999 403.001
c-23.333 0 -40.168 -5.66699 -50.501 -17s-16.833 -33 -19.5 -65h139c-1.33301 30.667 -7.16602 52 -17.499 64s-27.5 18 -51.5 18zM94.9971 761.001h405v-131h-405v131z" />
    <glyph glyph-name="Ebreve" unicode="&#x114;" horiz-adv-x="642" 
d="M328 801c-40.667 0 -75.166 4.66699 -103.499 14s-51.333 22.5 -69 39.5s-30.5 37 -38.5 60s-12 48.5 -12 76.5h138c0 -33.333 5.66699 -57.5 17 -72.5s34 -22.5 68 -22.5c33.333 0 55.666 7.5 66.999 22.5s17 39.167 17 72.5h138c0 -28 -4 -53.667 -12 -77
s-21 -43.333 -39 -60s-41 -29.667 -69 -39s-62 -14 -102 -14zM58.001 740h543v-169h-328v-116h293v-169h-293v-117h338v-169h-553v740z" />
    <glyph glyph-name="ebreve" unicode="&#x115;" horiz-adv-x="585" 
d="M311 -9c-189.333 0 -284.001 92.001 -284.001 276.001c0 188 95.667 282 287 282c82.667 0 144 -20.167 184 -60.5s60 -102.833 60 -187.5c0 -18.667 -0.666992 -34.667 -2 -48s-3.66602 -26.666 -6.99902 -39.999h-313c1.33301 -14.667 3.83301 -26.334 7.5 -35.001
s9 -15.334 16 -20.001s16.167 -7.66699 27.5 -9s25 -2 41 -2c14 0 29.5 0.666992 46.5 2s34.667 3 53 5s36.5 4.33301 54.5 7s34.667 5.66699 50 9l5 -148c-32 -9.33301 -68.167 -16.833 -108.5 -22.5s-79.5 -8.5 -117.5 -8.5zM304.999 403.001
c-23.333 0 -40.168 -5.66699 -50.501 -17s-16.833 -33 -19.5 -65h139c-1.33301 30.667 -7.16602 52 -17.499 64s-27.5 18 -51.5 18zM298.997 611.001c-39.333 0 -72.8311 4.33105 -100.498 12.998s-50.334 20.834 -68.001 36.501s-30.834 34.5 -39.501 56.5
s-13.334 46.667 -14.001 74h138c0 -26 6 -45.833 18 -59.5s34 -20.5 66 -20.5s53.833 6.83301 65.5 20.5s17.834 33.5 18.501 59.5h138c-1.33301 -27.333 -6.16602 -52.166 -14.499 -74.499s-21.333 -41.333 -39 -57s-40.334 -27.667 -68.001 -36
s-61.167 -12.5 -100.5 -12.5z" />
    <glyph glyph-name="Edotaccent" unicode="&#x116;" horiz-adv-x="642" 
d="M328 796c-40.667 0 -69.5 8.66699 -86.5 26s-25.5 45 -25.5 83s8.5 65.667 25.5 83s45.833 26 86.5 26c40 0 68.667 -8.66699 86 -26s26 -45 26 -83s-8.66699 -65.667 -26 -83s-46 -26 -86 -26zM58 740h543v-169h-328v-116h293v-169h-293v-117h338v-169h-553v740z" />
    <glyph glyph-name="edotaccent" unicode="&#x117;" horiz-adv-x="585" 
d="M311 -9c-189.333 0 -284.001 92.001 -284.001 276.001c0 188 95.667 282 287 282c82.667 0 144 -20.167 184 -60.5s60 -102.833 60 -187.5c0 -18.667 -0.666992 -34.667 -2 -48s-3.66602 -26.666 -6.99902 -39.999h-313c1.33301 -14.667 3.83301 -26.334 7.5 -35.001
s9 -15.334 16 -20.001s16.167 -7.66699 27.5 -9s25 -2 41 -2c14 0 29.5 0.666992 46.5 2s34.667 3 53 5s36.5 4.33301 54.5 7s34.667 5.66699 50 9l5 -148c-32 -9.33301 -68.167 -16.833 -108.5 -22.5s-79.5 -8.5 -117.5 -8.5zM304.999 403.001
c-23.333 0 -40.168 -5.66699 -50.501 -17s-16.833 -33 -19.5 -65h139c-1.33301 30.667 -7.16602 52 -17.499 64s-27.5 18 -51.5 18zM304.997 596.001c-40 0 -68.667 8.66699 -86 26s-26 45 -26 83s8.66699 65.667 26 83s46 26 86 26c40.667 0 69.5 -8.66699 86.5 -26
s25.5 -45 25.5 -83s-8.5 -65.667 -25.5 -83s-45.833 -26 -86.5 -26z" />
    <glyph glyph-name="Eogonek" unicode="&#x118;" horiz-adv-x="642" 
d="M58 740l542.999 -0.000976562v-169h-328v-116h293v-169h-293v-117h338v-174c-22.667 -8.66699 -41.5 -17 -56.5 -25s-27 -15.5 -36 -22.5s-15.333 -13.667 -19 -20s-5.5 -12.166 -5.5 -17.499c0 -12.667 10 -19 30 -19c10.667 0 24.5 1.5 41.5 4.5s32.5 6.5 46.5 10.5
v-114c-16 -4 -31.667 -7 -47 -9s-31.666 -3 -48.999 -3c-50 0 -88.333 8.5 -115 25.5s-40 41.833 -40 74.5c0 44 26 84 78 120h-381v740z" />
    <glyph glyph-name="eogonek" unicode="&#x119;" horiz-adv-x="586" 
d="M311 -9c-189.333 0 -284.002 92.001 -284.002 276.001c0 188 95.667 282 287 282c82.667 0 144 -20.167 184 -60.5s60 -102.833 60 -187.5c0 -18.667 -0.666992 -34.667 -2 -48s-3.66602 -26.666 -6.99902 -39.999h-313c1.33301 -14.667 3.83301 -26.334 7.5 -35.001
s9 -15.334 16 -20.001s16.167 -7.66699 27.5 -9s25 -2 41 -2c14 0 29.5 0.666992 46.5 2s34.667 3 53 5s36.5 4.33301 54.5 7s34.667 5.66699 50 9l5 -146v-6c-22.667 -8.66699 -41.5 -17 -56.5 -25s-27 -15.5 -36 -22.5s-15.333 -13.667 -19 -20s-5.5 -12.166 -5.5 -17.499
c0 -12.667 10 -19 30 -19c10.667 0 24.5 1.5 41.5 4.5s32.5 6.5 46.5 10.5v-114c-16 -4 -31.667 -7 -47 -9s-31.666 -3 -48.999 -3c-50 0 -88.333 8.5 -115 25.5s-40 41.833 -40 74.5c0 31.333 13 60.666 39 87.999h-15zM304.998 403.001
c-23.333 0 -40.168 -5.66699 -50.501 -17s-16.833 -33 -19.5 -65h139c-1.33301 30.667 -7.16602 52 -17.499 64s-27.5 18 -51.5 18z" />
    <glyph glyph-name="Ecaron" unicode="&#x11a;" horiz-adv-x="642" 
d="M134 1004l203 -76l203 76v-136l-204 -76l-202 76v136zM58 740h543v-169h-328v-116h293v-169h-293v-117h338v-169h-553v740z" />
    <glyph glyph-name="ecaron" unicode="&#x11b;" horiz-adv-x="585" 
d="M101 814l203 -76l203 76v-136l-204 -76l-202 76v136zM311 -9c-189.333 0 -284.001 92.001 -284.001 276.001c0 188 95.667 282 287 282c82.667 0 144 -20.167 184 -60.5s60 -102.833 60 -187.5c0 -18.667 -0.666992 -34.667 -2 -48s-3.66602 -26.666 -6.99902 -39.999
h-313c1.33301 -14.667 3.83301 -26.334 7.5 -35.001s9 -15.334 16 -20.001s16.167 -7.66699 27.5 -9s25 -2 41 -2c14 0 29.5 0.666992 46.5 2s34.667 3 53 5s36.5 4.33301 54.5 7s34.667 5.66699 50 9l5 -148c-32 -9.33301 -68.167 -16.833 -108.5 -22.5
s-79.5 -8.5 -117.5 -8.5zM304.999 403.001c-23.333 0 -40.168 -5.66699 -50.501 -17s-16.833 -33 -19.5 -65h139c-1.33301 30.667 -7.16602 52 -17.499 64s-27.5 18 -51.5 18z" />
    <glyph glyph-name="Gcircumflex" unicode="&#x11c;" horiz-adv-x="684" 
d="M393 -12c-123.333 0 -214.834 31.333 -274.501 94s-89.5 158.667 -89.5 288c0 254.667 131.333 382 394 382c34 0 69.667 -2 107 -6s71 -9.66699 101 -17v-170c-41.333 6.66699 -77.833 11.667 -109.5 15s-58.5 5 -80.5 5c-38.667 0 -70.334 -3 -95.001 -9
s-44.167 -17 -58.5 -33s-24.166 -37.5 -29.499 -64.5s-8 -61.5 -8 -103.5s2.16699 -76.333 6.5 -103s12.333 -47.667 24 -63s27.834 -25.833 48.501 -31.5s47 -8.5 79 -8.5h19c6.66699 0 13.667 0.333008 21 1v212h195v-356c-46.667 -9.33301 -91.5 -17 -134.5 -23
s-81.5 -9 -115.5 -9zM163.999 928l202 76l204 -76v-136l-203 76l-203 -76v136z" />
    <glyph glyph-name="gcircumflex" unicode="&#x11d;" horiz-adv-x="648" 
d="M139 738l202 76l204 -76v-136l-203 76l-203 -76v136zM283 -220c-36.667 0 -74.8311 1.83398 -114.498 5.50098s-74.5 9.16699 -104.5 16.5l13 148c25.333 -4.66699 52.833 -8.83398 82.5 -12.501s58.834 -5.5 87.501 -5.5c22.667 0 43.667 1.83301 63 5.5
s35.666 10 48.999 19s23.833 20.833 31.5 35.5s11.5 33 11.5 55v50h-7c-16.667 -25.333 -37.834 -44 -63.501 -56s-55.5 -18 -89.5 -18c-142.667 0 -214 79 -214 237c0 96 26.5 168.333 79.5 217s127.5 73 223.5 73c16 0 32.5 -0.666992 49.5 -2s36 -3.83301 57 -7.5
s44.667 -8.5 71 -14.5s57.166 -14 92.499 -24v-427c0 -52 -8 -96.667 -24 -134s-38.167 -67.833 -66.5 -91.5s-61.833 -41.167 -100.5 -52.5s-81 -17 -127 -17zM311.003 167.001c15.333 0 28.166 2.16895 38.499 6.50195s18.5 11.833 24.5 22.5s10.333 24.5 13 41.5
s4 38.167 4 63.5v99c-8 3.33301 -17.667 5.66602 -29 6.99902s-23.666 2 -36.999 2c-18 0 -32.5 -1.5 -43.5 -4.5s-19.667 -9.16699 -26 -18.5s-10.5 -22.5 -12.5 -39.5s-3 -39.5 -3 -67.5c0 -22.667 1 -41.334 3 -56.001s5.5 -26.167 10.5 -34.5s12.167 -14 21.5 -17
s21.333 -4.5 36 -4.5z" />
    <glyph glyph-name="Gbreve" unicode="&#x11e;" horiz-adv-x="684" 
d="M375 801c-40.667 0 -75.166 4.66699 -103.499 14s-51.333 22.5 -69 39.5s-30.5 37 -38.5 60s-12 48.5 -12 76.5h138c0 -33.333 5.66699 -57.5 17 -72.5s34 -22.5 68 -22.5c33.333 0 55.666 7.5 66.999 22.5s17 39.167 17 72.5h138c0 -28 -4 -53.667 -12 -77
s-21 -43.333 -39 -60s-41 -29.667 -69 -39s-62 -14 -102 -14zM393.001 -12c-123.333 0 -214.834 31.333 -274.501 94s-89.5 158.667 -89.5 288c0 254.667 131.333 382 394 382c34 0 69.667 -2 107 -6s71 -9.66699 101 -17v-170c-41.333 6.66699 -77.833 11.667 -109.5 15
s-58.5 5 -80.5 5c-38.667 0 -70.334 -3 -95.001 -9s-44.167 -17 -58.5 -33s-24.166 -37.5 -29.499 -64.5s-8 -61.5 -8 -103.5s2.16699 -76.333 6.5 -103s12.333 -47.667 24 -63s27.834 -25.833 48.501 -31.5s47 -8.5 79 -8.5h19c6.66699 0 13.667 0.333008 21 1v212h195
v-356c-46.667 -9.33301 -91.5 -17 -134.5 -23s-81.5 -9 -115.5 -9z" />
    <glyph glyph-name="gbreve" unicode="&#x11f;" horiz-adv-x="648" 
d="M283 -220c-36.667 0 -74.8311 1.83398 -114.498 5.50098s-74.5 9.16699 -104.5 16.5l13 148c25.333 -4.66699 52.833 -8.83398 82.5 -12.501s58.834 -5.5 87.501 -5.5c22.667 0 43.667 1.83301 63 5.5s35.666 10 48.999 19s23.833 20.833 31.5 35.5s11.5 33 11.5 55v50
h-7c-16.667 -25.333 -37.834 -44 -63.501 -56s-55.5 -18 -89.5 -18c-142.667 0 -214 79 -214 237c0 96 26.5 168.333 79.5 217s127.5 73 223.5 73c16 0 32.5 -0.666992 49.5 -2s36 -3.83301 57 -7.5s44.667 -8.5 71 -14.5s57.166 -14 92.499 -24v-427
c0 -52 -8 -96.667 -24 -134s-38.167 -67.833 -66.5 -91.5s-61.833 -41.167 -100.5 -52.5s-81 -17 -127 -17zM311.003 167.001c15.333 0 28.166 2.16895 38.499 6.50195s18.5 11.833 24.5 22.5s10.333 24.5 13 41.5s4 38.167 4 63.5v99
c-8 3.33301 -17.667 5.66602 -29 6.99902s-23.666 2 -36.999 2c-18 0 -32.5 -1.5 -43.5 -4.5s-19.667 -9.16699 -26 -18.5s-10.5 -22.5 -12.5 -39.5s-3 -39.5 -3 -67.5c0 -22.667 1 -41.334 3 -56.001s5.5 -26.167 10.5 -34.5s12.167 -14 21.5 -17s21.333 -4.5 36 -4.5z
M330.003 611.003c-39.333 0 -72.8311 4.33105 -100.498 12.998s-50.334 20.834 -68.001 36.501s-30.834 34.5 -39.501 56.5s-13.334 46.667 -14.001 74h138c0 -26 6 -45.833 18 -59.5s34 -20.5 66 -20.5s53.833 6.83301 65.5 20.5s17.834 33.5 18.501 59.5h138
c-1.33301 -27.333 -6.16602 -52.166 -14.499 -74.499s-21.333 -41.333 -39 -57s-40.334 -27.667 -68.001 -36s-61.167 -12.5 -100.5 -12.5z" />
    <glyph glyph-name="Gdotaccent" unicode="&#x120;" horiz-adv-x="684" 
d="M378 796c-40.667 0 -69.5 8.66699 -86.5 26s-25.5 45 -25.5 83s8.5 65.667 25.5 83s45.833 26 86.5 26c40 0 68.667 -8.66699 86 -26s26 -45 26 -83s-8.66699 -65.667 -26 -83s-46 -26 -86 -26zM393 -12c-123.333 0 -214.834 31.333 -274.501 94s-89.5 158.667 -89.5 288
c0 254.667 131.333 382 394 382c34 0 69.667 -2 107 -6s71 -9.66699 101 -17v-170c-41.333 6.66699 -77.833 11.667 -109.5 15s-58.5 5 -80.5 5c-38.667 0 -70.334 -3 -95.001 -9s-44.167 -17 -58.5 -33s-24.166 -37.5 -29.499 -64.5s-8 -61.5 -8 -103.5
s2.16699 -76.333 6.5 -103s12.333 -47.667 24 -63s27.834 -25.833 48.501 -31.5s47 -8.5 79 -8.5h19c6.66699 0 13.667 0.333008 21 1v212h195v-356c-46.667 -9.33301 -91.5 -17 -134.5 -23s-81.5 -9 -115.5 -9z" />
    <glyph glyph-name="gdotaccent" unicode="&#x121;" horiz-adv-x="648" 
d="M283 -220c-36.667 0 -74.8311 1.83398 -114.498 5.50098s-74.5 9.16699 -104.5 16.5l13 148c25.333 -4.66699 52.833 -8.83398 82.5 -12.501s58.834 -5.5 87.501 -5.5c22.667 0 43.667 1.83301 63 5.5s35.666 10 48.999 19s23.833 20.833 31.5 35.5s11.5 33 11.5 55v50
h-7c-16.667 -25.333 -37.834 -44 -63.501 -56s-55.5 -18 -89.5 -18c-142.667 0 -214 79 -214 237c0 96 26.5 168.333 79.5 217s127.5 73 223.5 73c16 0 32.5 -0.666992 49.5 -2s36 -3.83301 57 -7.5s44.667 -8.5 71 -14.5s57.166 -14 92.499 -24v-427
c0 -52 -8 -96.667 -24 -134s-38.167 -67.833 -66.5 -91.5s-61.833 -41.167 -100.5 -52.5s-81 -17 -127 -17zM311.003 167.001c15.333 0 28.166 2.16895 38.499 6.50195s18.5 11.833 24.5 22.5s10.333 24.5 13 41.5s4 38.167 4 63.5v99
c-8 3.33301 -17.667 5.66602 -29 6.99902s-23.666 2 -36.999 2c-18 0 -32.5 -1.5 -43.5 -4.5s-19.667 -9.16699 -26 -18.5s-10.5 -22.5 -12.5 -39.5s-3 -39.5 -3 -67.5c0 -22.667 1 -41.334 3 -56.001s5.5 -26.167 10.5 -34.5s12.167 -14 21.5 -17s21.333 -4.5 36 -4.5z
M332.003 596.003c-40 0 -68.667 8.66699 -86 26s-26 45 -26 83s8.66699 65.667 26 83s46 26 86 26c40.667 0 69.5 -8.66699 86.5 -26s25.5 -45 25.5 -83s-8.5 -65.667 -25.5 -83s-45.833 -26 -86.5 -26z" />
    <glyph glyph-name="Gcommaaccent" unicode="&#x122;" horiz-adv-x="684" 
d="M268 -70h215l-99 -150h-156zM393 -12c-123.333 0 -214.834 31.333 -274.501 94s-89.5 158.667 -89.5 288c0 254.667 131.333 382 394 382c34 0 69.667 -2 107 -6s71 -9.66699 101 -17v-170c-41.333 6.66699 -77.833 11.667 -109.5 15s-58.5 5 -80.5 5
c-38.667 0 -70.334 -3 -95.001 -9s-44.167 -17 -58.5 -33s-24.166 -37.5 -29.499 -64.5s-8 -61.5 -8 -103.5s2.16699 -76.333 6.5 -103s12.333 -47.667 24 -63s27.834 -25.833 48.501 -31.5s47 -8.5 79 -8.5h19c6.66699 0 13.667 0.333008 21 1v212h195v-356
c-46.667 -9.33301 -91.5 -17 -134.5 -23s-81.5 -9 -115.5 -9z" />
    <glyph glyph-name="gcommaaccent" unicode="&#x123;" horiz-adv-x="648" 
d="M495 770l-40 -150h-215l99 150h156zM283 -220c-36.667 0 -74.8311 1.83398 -114.498 5.50098s-74.5 9.16699 -104.5 16.5l13 148c25.333 -4.66699 52.833 -8.83398 82.5 -12.501s58.834 -5.5 87.501 -5.5c22.667 0 43.667 1.83301 63 5.5s35.666 10 48.999 19
s23.833 20.833 31.5 35.5s11.5 33 11.5 55v50h-7c-16.667 -25.333 -37.834 -44 -63.501 -56s-55.5 -18 -89.5 -18c-142.667 0 -214 79 -214 237c0 96 26.5 168.333 79.5 217s127.5 73 223.5 73c16 0 32.5 -0.666992 49.5 -2s36 -3.83301 57 -7.5s44.667 -8.5 71 -14.5
s57.166 -14 92.499 -24v-427c0 -52 -8 -96.667 -24 -134s-38.167 -67.833 -66.5 -91.5s-61.833 -41.167 -100.5 -52.5s-81 -17 -127 -17zM311.003 167.001c15.333 0 28.166 2.16895 38.499 6.50195s18.5 11.833 24.5 22.5s10.333 24.5 13 41.5s4 38.167 4 63.5v99
c-8 3.33301 -17.667 5.66602 -29 6.99902s-23.666 2 -36.999 2c-18 0 -32.5 -1.5 -43.5 -4.5s-19.667 -9.16699 -26 -18.5s-10.5 -22.5 -12.5 -39.5s-3 -39.5 -3 -67.5c0 -22.667 1 -41.334 3 -56.001s5.5 -26.167 10.5 -34.5s12.167 -14 21.5 -17s21.333 -4.5 36 -4.5z" />
    <glyph glyph-name="Hcircumflex" unicode="&#x124;" horiz-adv-x="794" 
d="M58 740h215v-276h249v276h215v-740h-215v295h-249v-295h-215v740zM196 928l202 76l204 -76v-136l-203 76l-203 -76v136z" />
    <glyph glyph-name="hcircumflex" unicode="&#x125;" horiz-adv-x="648" 
d="M133 948l202 76l204 -76v-136l-203 76l-203 -76v136zM49 808l209.999 0.000976562v-319c42 21.333 78 36.833 108 46.5s59 14.5 87 14.5c44.667 0 80.5 -13.5 107.5 -40.5s40.5 -63.167 40.5 -108.5v-401h-210v328c0 36 -14.333 54 -43 54
c-10 0 -23.167 -1.83301 -39.5 -5.5s-33.166 -8.83398 -50.499 -15.501v-361h-210v808z" />
    <glyph glyph-name="Hbar" unicode="&#x126;" horiz-adv-x="815" 
d="M3 631h63v109h215v-109h249v109h215v-109h72v-95h-72v-536h-215v295h-249v-295h-215v536h-63v95zM530 464v72h-249v-72h249z" />
    <glyph glyph-name="hbar" unicode="&#x127;" horiz-adv-x="649" 
d="M-28 734l77.999 0.000976562v74h210v-74h136v-119h-136v-126c42 21.333 78 36.833 108 46.5s59 14.5 87 14.5c44.667 0 80.5 -13.5 107.5 -40.5s40.5 -63.167 40.5 -108.5v-401h-210v328c0 36 -14.333 54 -43 54c-10 0 -23.167 -1.83301 -39.5 -5.5
s-33.166 -8.83398 -50.499 -15.501v-361h-210v615h-78v119z" />
    <glyph glyph-name="Itilde" unicode="&#x128;" horiz-adv-x="330" 
d="M58 740h215v-740h-215v740zM-64 847c23.333 48 49.999 83.499 79.999 106.499s59 34.5 87 34.5c16 0 32.167 -2 48.5 -6s32.5 -8.16699 48.5 -12.5l48 -12.5c16 -4 32.333 -6 49 -6c14.667 0 28.834 2.5 42.501 7.5s30.167 14.833 49.5 29.5l23 -29
c-24 -48 -50.833 -83.5 -80.5 -106.5s-58.5 -34.5 -86.5 -34.5c-16 0 -32.167 1.83301 -48.5 5.5s-32.5 7.83398 -48.5 12.501s-32.167 8.83398 -48.5 12.501s-32.5 5.5 -48.5 5.5c-15.333 0 -30 -2.33301 -44 -7s-30 -14.334 -48 -29.001z" />
    <glyph glyph-name="itilde" unicode="&#x129;" horiz-adv-x="309" 
d="M-61 660c22 45.333 47.333 78.833 76 100.5s56.334 32.5 83.001 32.5c15.333 0 30.666 -2.5 45.999 -7.5s30.666 -10.333 45.999 -16s30.666 -11 45.999 -16s30.666 -7.5 45.999 -7.5c12 0 24.167 2.66699 36.5 8s26.833 16 43.5 32l28 -40
c-23.333 -46 -49.166 -79.667 -77.499 -101s-55.5 -32 -81.5 -32c-15.333 0 -30.666 2.33301 -45.999 7s-30.5 10 -45.5 16s-30.167 11.333 -45.5 16s-30.666 7 -45.999 7c-13.333 0 -26.333 -2.5 -39 -7.5s-27 -15.167 -43 -30.5zM50 540h210v-540h-210v540z" />
    <glyph glyph-name="Imacron" unicode="&#x12a;" horiz-adv-x="330" 
d="M58 740h215v-740h-215v740zM-33 976h405v-136h-405v136z" />
    <glyph glyph-name="imacron" unicode="&#x12b;" horiz-adv-x="309" 
d="M50 540h210v-540h-210v540zM-45 761h405v-131h-405v131z" />
    <glyph glyph-name="Ibreve" unicode="&#x12c;" horiz-adv-x="330" 
d="M58 740h215v-740h-215v740zM165 801c-40.667 0 -75.166 4.66699 -103.499 14s-51.333 22.5 -69 39.5s-30.5 37 -38.5 60s-12 48.5 -12 76.5h138c0 -33.333 5.66699 -57.5 17 -72.5s34 -22.5 68 -22.5c33.333 0 55.666 7.5 66.999 22.5s17 39.167 17 72.5h138
c0 -28 -4 -53.667 -12 -77s-21 -43.333 -39 -60s-41 -29.667 -69 -39s-62 -14 -102 -14z" />
    <glyph glyph-name="ibreve" unicode="&#x12d;" horiz-adv-x="309" 
d="M159 611c-32.667 0 -60.665 4.33105 -83.998 12.998s-42.5 20.834 -57.5 36.501s-26.167 34.5 -33.5 56.5s-11.333 46.667 -12 74h118c0.666992 -26 5.66699 -45.833 15 -59.5s27.333 -20.5 54 -20.5c27.333 0 45.5 6.83301 54.5 20.5s13.833 33.5 14.5 59.5h118
c-2.66699 -55.333 -18.334 -99.166 -47.001 -131.499s-75.334 -48.5 -140.001 -48.5zM50.002 539.998h210v-540h-210v540z" />
    <glyph glyph-name="Iogonek" unicode="&#x12e;" horiz-adv-x="330" 
d="M58 740l214.999 -0.000976562v-745c-22.667 -8.66699 -41.5 -17 -56.5 -25s-27 -15.5 -36 -22.5s-15.333 -13.667 -19 -20s-5.5 -12.166 -5.5 -17.499c0 -12.667 10 -19 30 -19c10.667 0 24.5 1.5 41.5 4.5s32.5 6.5 46.5 10.5v-114c-16 -4 -31.667 -7 -47 -9
s-31.666 -3 -48.999 -3c-50 0 -88.333 8.5 -115 25.5s-40 41.833 -40 74.5c0 44 26 84 78 120h-43v740z" />
    <glyph glyph-name="iogonek" unicode="&#x12f;" horiz-adv-x="307" 
d="M49 540l209.999 -0.000976562v-545c-22.667 -8.66699 -41.5 -17 -56.5 -25s-27 -15.5 -36 -22.5s-15.333 -13.667 -19 -20s-5.5 -12.166 -5.5 -17.499c0 -12.667 10 -19 30 -19c10.667 0 24.5 1.5 41.5 4.5s32.5 6.5 46.5 10.5v-114c-16 -4 -31.667 -7 -47 -9
s-31.666 -3 -48.999 -3c-50 0 -88.333 8.5 -115 25.5s-40 41.833 -40 74.5c0 44 26 84 78 120h-38v540zM153.999 595.999c-40 0 -68.667 8.5 -86 25.5s-26 44.833 -26 83.5c0 38 8.66699 65.667 26 83s46 26 86 26c40.667 0 69.5 -8.66699 86.5 -26s25.5 -45 25.5 -83
c0 -37.333 -8.5 -64.833 -25.5 -82.5s-45.833 -26.5 -86.5 -26.5z" />
    <glyph glyph-name="Idotaccent" unicode="&#x130;" horiz-adv-x="330" 
d="M58 740h215v-740h-215v740zM167 796c-40.667 0 -69.5 8.66699 -86.5 26s-25.5 45 -25.5 83s8.5 65.667 25.5 83s45.833 26 86.5 26c40 0 68.667 -8.66699 86 -26s26 -45 26 -83s-8.66699 -65.667 -26 -83s-46 -26 -86 -26z" />
    <glyph glyph-name="dotlessi" unicode="&#x131;" horiz-adv-x="307" 
d="M49 540h210v-540h-210v540z" />
    <glyph glyph-name="IJ" unicode="&#x132;" horiz-adv-x="660" 
d="M58 740h215v-740h-215v740zM315 -158c14 33.333 25.834 64.1641 35.501 92.4971s17.5 56.333 23.5 84s10.167 56 12.5 85s3.5 61.167 3.5 96.5v540h215v-558c0 -35.333 -2.66699 -68.666 -8 -99.999s-14 -62.666 -26 -93.999s-27.833 -63.666 -47.5 -96.999
s-43.834 -69.333 -72.501 -108z" />
    <glyph glyph-name="ij" unicode="&#x133;" horiz-adv-x="613" 
d="M154 596c-40 0 -68.667 8.5 -86 25.5s-26 44.833 -26 83.5c0 38 8.66699 65.667 26 83s46 26 86 26c40.667 0 69.5 -8.66699 86.5 -26s25.5 -45 25.5 -83c0 -37.333 -8.5 -64.833 -25.5 -82.5s-45.833 -26.5 -86.5 -26.5zM49 540h210v-540h-210v540zM460 596
c-40 0 -68.5 8.5 -85.5 25.5s-25.5 44.833 -25.5 83.5c0 38 8.5 65.667 25.5 83s45.5 26 85.5 26c40.667 0 69.667 -8.66699 87 -26s26 -45 26 -83c0 -37.333 -8.5 -64.833 -25.5 -82.5s-46.167 -26.5 -87.5 -26.5zM323 -192c6 24.667 11.168 49.332 15.501 73.999
s8 50.834 11 78.501s5.16699 57 6.5 88s2 65.5 2 103.5v34c0 16.667 -0.166992 36.5 -0.5 59.5s-0.5 48.167 -0.5 75.5s-0.166992 54.333 -0.5 81l-1 76.5c-0.333008 24.333 -0.5 44.833 -0.5 61.5h210v-471c-3.33301 -49.333 -13.333 -99.5 -30 -150.5
s-37.334 -97.167 -62.001 -138.5z" />
    <glyph glyph-name="Jcircumflex" unicode="&#x134;" horiz-adv-x="330" 
d="M-15 -158c14 33.333 25.834 64.1641 35.501 92.4971s17.5 56.333 23.5 84s10.167 56 12.5 85s3.5 61.167 3.5 96.5v540h215v-558c0 -35.333 -2.66699 -68.666 -8 -99.999s-14 -62.666 -26 -93.999s-27.833 -63.666 -47.5 -96.999s-43.834 -69.333 -72.501 -108z
M-31.999 927.998l202 76l204 -76v-136l-203 76l-203 -76v136z" />
    <glyph glyph-name="jcircumflex" unicode="&#x135;" horiz-adv-x="305" 
d="M-39 738l192 76l194 -76v-136l-193 76l-193 -76v136zM12 -199c8 31.333 14.501 60.166 19.501 86.499s9 53.666 12 81.999s5.16699 60 6.5 95s2 76.833 2 125.5v53.5c0 19 -0.333008 41.833 -1 68.5s-1.33398 58.334 -2.00098 95.001s-1.33398 81 -2.00098 133h210v-472
c-6 -52 -16.167 -101.167 -30.5 -147.5s-34.166 -93.166 -59.499 -140.499z" />
    <glyph glyph-name="Kcommaaccent" unicode="&#x136;" horiz-adv-x="726" 
d="M245 -70h215l-99 -150h-156zM58 740h215v-281h78l130 281h238l-170 -325l-59 -27v-9l61 -28l187 -351h-239l-142 290h-84v-290h-215v740z" />
    <glyph glyph-name="kcommaaccent" unicode="&#x137;" horiz-adv-x="622" 
d="M215 -70h215l-99 -150h-156zM49 808h210v-461h33l100 193h228l-158 -251l-28 -8v-4l28 -8l176 -269h-229l-118 211h-32v-211h-210v808z" />
    <glyph glyph-name="kgreenlandic" unicode="&#x138;" horiz-adv-x="615" 
d="M49 540h210v-193h26l100 193h228l-159 -253l-27 -6v-4l27 -6l177 -271h-229l-118 211h-25v-211h-210v540z" />
    <glyph glyph-name="Lacute" unicode="&#x139;" horiz-adv-x="562" 
d="M91 809l63 189h215l-128 -199zM58 740h215v-571h277v-169h-492v740z" />
    <glyph glyph-name="lacute" unicode="&#x13a;" horiz-adv-x="307" 
d="M73 841l63 189h215l-128 -199zM49 808h210v-808h-210v808z" />
    <glyph glyph-name="Lcommaaccent" unicode="&#x13b;" horiz-adv-x="562" 
d="M183 -70h215l-99 -150h-156zM58 740h215v-571h277v-169h-492v740z" />
    <glyph glyph-name="lcommaaccent" unicode="&#x13c;" horiz-adv-x="307" 
d="M49 -70h215l-99 -150h-156zM49 808h210v-808h-210v808z" />
    <glyph glyph-name="Lcaron" unicode="&#x13d;" horiz-adv-x="587" 
d="M413 808h163l-50 -228h-113v228zM58 740h215v-571h277v-169h-492v740z" />
    <glyph glyph-name="lcaron" unicode="&#x13e;" horiz-adv-x="308" 
d="M300 808h163l-50 -228h-113v228zM49 808h210v-808h-210v808z" />
    <glyph glyph-name="Ldot" unicode="&#x13f;" horiz-adv-x="580" 
d="M58 740h215v-571h277v-169h-492v740zM466 278c-40.667 0 -69.5 8.66699 -86.5 26s-25.5 45 -25.5 83c0 38.667 8.5 66.5 25.5 83.5s45.833 25.5 86.5 25.5c40 0 68.667 -8.66699 86 -26s26 -45 26 -83s-8.66699 -65.667 -26 -83s-46 -26 -86 -26z" />
    <glyph glyph-name="ldot" unicode="&#x140;" horiz-adv-x="512" 
d="M49 808h210v-808h-210v808zM410 261c-40.667 0 -69.5 8.66699 -86.5 26s-25.5 45 -25.5 83c0 38.667 8.5 66.5 25.5 83.5s45.833 25.5 86.5 25.5c40 0 68.667 -8.66699 86 -26s26 -45 26 -83s-8.66699 -65.667 -26 -83s-46 -26 -86 -26z" />
    <glyph glyph-name="Lslash" unicode="&#x141;" horiz-adv-x="579" 
d="M9 377l66 31v332h215v-229l116 55v-150l-116 -56v-191h277v-169h-492v257l-66 -31v151z" />
    <glyph glyph-name="lslash" unicode="&#x142;" horiz-adv-x="423" 
d="M18 387l90 43v378h210v-278l95 46v-150l-95 -46v-380h-210v279l-90 -43v151z" />
    <glyph glyph-name="Nacute" unicode="&#x143;" horiz-adv-x="786" 
d="M290 809l63 189h215l-128 -199zM58 740h171l250 -325l52 -80h10v405h187v-740h-170l-245 320l-58 87h-10v-407h-187v740z" />
    <glyph glyph-name="nacute" unicode="&#x144;" horiz-adv-x="648" 
d="M253 619l63 189h215l-128 -199zM49 540h176.999l10 -60h7c47.333 26 87 44.167 119 54.5s62.667 15.5 92 15.5c45.333 0 81.333 -13.5 108 -40.5s40 -63.167 40 -108.5v-401h-210v328c0 19.333 -3.66699 33.166 -11 41.499s-17.666 12.5 -30.999 12.5
c-12 0 -26.333 -2.16699 -43 -6.5s-32.667 -9.16602 -48 -14.499v-361h-210v540z" />
    <glyph glyph-name="Ncommaaccent" unicode="&#x145;" horiz-adv-x="786" 
d="M293 -70h215l-99 -150h-156zM58 740h171l250 -325l52 -80h10v405h187v-740h-170l-245 320l-58 87h-10v-407h-187v740z" />
    <glyph glyph-name="ncommaaccent" unicode="&#x146;" horiz-adv-x="648" 
d="M224 -70h215l-99 -150h-156zM49 540h176.999l10 -60h7c47.333 26 87 44.167 119 54.5s62.667 15.5 92 15.5c45.333 0 81.333 -13.5 108 -40.5s40 -63.167 40 -108.5v-401h-210v328c0 19.333 -3.66699 33.166 -11 41.499s-17.666 12.5 -30.999 12.5
c-12 0 -26.333 -2.16699 -43 -6.5s-32.667 -9.16602 -48 -14.499v-361h-210v540z" />
    <glyph glyph-name="Ncaron" unicode="&#x147;" horiz-adv-x="786" 
d="M191 1004l203 -76l203 76v-136l-204 -76l-202 76v136zM58 740h171l250 -325l52 -80h10v405h187v-740h-170l-245 320l-58 87h-10v-407h-187v740z" />
    <glyph glyph-name="ncaron" unicode="&#x148;" horiz-adv-x="648" 
d="M117 814l203 -76l203 76v-136l-204 -76l-202 76v136zM49 540h176.999l10 -60h7c47.333 26 87 44.167 119 54.5s62.667 15.5 92 15.5c45.333 0 81.333 -13.5 108 -40.5s40 -63.167 40 -108.5v-401h-210v328c0 19.333 -3.66699 33.166 -11 41.499
s-17.666 12.5 -30.999 12.5c-12 0 -26.333 -2.16699 -43 -6.5s-32.667 -9.16602 -48 -14.499v-361h-210v540z" />
    <glyph glyph-name="napostrophe" unicode="&#x149;" horiz-adv-x="751" 
d="M176 808v-4l-50 -224h-113v228h163zM152 540h176.999l10 -60h7c47.333 26 87 44.167 119 54.5s62.667 15.5 92 15.5c45.333 0 81.333 -13.5 108 -40.5s40 -63.167 40 -108.5v-401h-210v328c0 19.333 -3.66699 33.166 -11 41.499s-17.666 12.5 -30.999 12.5
c-12 0 -26.333 -2.16699 -43 -6.5s-32.667 -9.16602 -48 -14.499v-361h-210v540z" />
    <glyph glyph-name="Eng" unicode="&#x14a;" horiz-adv-x="783" 
d="M451 -170c19.333 45.333 33.832 86 43.499 122s16.5 72.667 20.5 110l-200 258l-57 89h-10v-409h-190v740h167l252 -325l51 -82h10v407h190v-605c0 -20.667 -3.66699 -45.167 -11 -73.5s-17.166 -58.333 -29.499 -90s-27 -63.667 -44 -96s-35.167 -62.833 -54.5 -91.5z
" />
    <glyph glyph-name="eng" unicode="&#x14b;" horiz-adv-x="647" 
d="M353 -199c6.66699 25.333 12.3291 50.501 16.9961 75.501s8.66699 50.833 12 77.5s5.83301 54.834 7.5 84.501s2.5 61.834 2.5 96.501v163c0 27.333 -2.5 45.166 -7.5 53.499s-16.167 12.5 -33.5 12.5c-14 0 -28.833 -1 -44.5 -3s-31.5 -5.33301 -47.5 -10v-351h-210v540
h177l10 -58h4c46.667 24.667 86.334 42.167 119.001 52.5s64.334 15.5 95.001 15.5c44.667 0 80.5 -13.333 107.5 -40s40.5 -63 40.5 -109v-335c-3.33301 -48.667 -13.166 -98.334 -29.499 -149.001s-36.166 -96.334 -59.499 -137.001z" />
    <glyph glyph-name="Omacron" unicode="&#x14c;" horiz-adv-x="777" 
d="M186 976h405v-136h-405v136zM388 -10c-118.667 0 -208.167 31.665 -268.5 94.998s-90.5 158 -90.5 284c0 126.667 30 221.834 90 285.501s149.667 95.5 269 95.5c120 0 210 -31.667 270 -95s90 -158.666 90 -285.999c0 -126 -30 -220.667 -90 -284s-150 -95 -270 -95z
M388 161.998c27.333 0 50.0029 3.00098 68.0029 9.00098s32.333 16.833 43 32.5s18.167 36.834 22.5 63.501s6.5 60.667 6.5 102c0 40.667 -2.16699 74.5 -6.5 101.5s-12 48.5 -23 64.5s-25.5 27.333 -43.5 34s-40.333 10 -67 10s-48.834 -3.33301 -66.501 -10
s-31.834 -18 -42.501 -34s-18.334 -37.5 -23.001 -64.5s-7 -60.833 -7 -101.5s2.16699 -74.334 6.5 -101.001s11.833 -47.834 22.5 -63.501s25 -26.667 43 -33s40.333 -9.5 67 -9.5z" />
    <glyph glyph-name="omacron" unicode="&#x14d;" horiz-adv-x="638" 
d="M118 761h405v-131h-405v131zM319 -11c-96 0 -168.833 23.833 -218.5 71.5s-74.5 117.5 -74.5 209.5s24.833 161.667 74.5 209s122.5 71 218.5 71s168.833 -23.667 218.5 -71s74.5 -117 74.5 -209s-24.833 -161.833 -74.5 -209.5s-122.5 -71.5 -218.5 -71.5zM319 147
c16.667 0 30.334 1.5 41.001 4.5s19.167 9 25.5 18s10.666 21.5 12.999 37.5s3.5 37 3.5 63s-1.16699 47 -3.5 63s-6.66602 28.333 -12.999 37s-14.833 14.5 -25.5 17.5s-24.334 4.5 -41.001 4.5s-30.334 -1.5 -41.001 -4.5s-19.167 -9 -25.5 -18
s-10.666 -21.333 -12.999 -37s-3.5 -36.5 -3.5 -62.5s1.16699 -47 3.5 -63s6.66602 -28.5 12.999 -37.5s14.833 -15 25.5 -18s24.334 -4.5 41.001 -4.5z" />
    <glyph glyph-name="Obreve" unicode="&#x14e;" horiz-adv-x="777" 
d="M388 801c-40.667 0 -75.166 4.66699 -103.499 14s-51.333 22.5 -69 39.5s-30.5 37 -38.5 60s-12 48.5 -12 76.5h138c0 -33.333 5.66699 -57.5 17 -72.5s34 -22.5 68 -22.5c33.333 0 55.666 7.5 66.999 22.5s17 39.167 17 72.5h138c0 -28 -4 -53.667 -12 -77
s-21 -43.333 -39 -60s-41 -29.667 -69 -39s-62 -14 -102 -14zM388.001 -10c-118.667 0 -208.167 31.665 -268.5 94.998s-90.5 158 -90.5 284c0 126.667 30 221.834 90 285.501s149.667 95.5 269 95.5c120 0 210 -31.667 270 -95s90 -158.666 90 -285.999
c0 -126 -30 -220.667 -90 -284s-150 -95 -270 -95zM388.001 161.998c27.333 0 50.0029 3.00098 68.0029 9.00098s32.333 16.833 43 32.5s18.167 36.834 22.5 63.501s6.5 60.667 6.5 102c0 40.667 -2.16699 74.5 -6.5 101.5s-12 48.5 -23 64.5s-25.5 27.333 -43.5 34
s-40.333 10 -67 10s-48.834 -3.33301 -66.501 -10s-31.834 -18 -42.501 -34s-18.334 -37.5 -23.001 -64.5s-7 -60.833 -7 -101.5s2.16699 -74.334 6.5 -101.001s11.833 -47.834 22.5 -63.501s25 -26.667 43 -33s40.333 -9.5 67 -9.5z" />
    <glyph glyph-name="obreve" unicode="&#x14f;" horiz-adv-x="638" 
d="M319 -11c-96 0 -168.833 23.833 -218.5 71.5s-74.5 117.5 -74.5 209.5s24.833 161.667 74.5 209s122.5 71 218.5 71s168.833 -23.667 218.5 -71s74.5 -117 74.5 -209s-24.833 -161.833 -74.5 -209.5s-122.5 -71.5 -218.5 -71.5zM319 147c16.667 0 30.334 1.5 41.001 4.5
s19.167 9 25.5 18s10.666 21.5 12.999 37.5s3.5 37 3.5 63s-1.16699 47 -3.5 63s-6.66602 28.333 -12.999 37s-14.833 14.5 -25.5 17.5s-24.334 4.5 -41.001 4.5s-30.334 -1.5 -41.001 -4.5s-19.167 -9 -25.5 -18s-10.666 -21.333 -12.999 -37s-3.5 -36.5 -3.5 -62.5
s1.16699 -47 3.5 -63s6.66602 -28.5 12.999 -37.5s14.833 -15 25.5 -18s24.334 -4.5 41.001 -4.5zM322 611c-39.333 0 -72.8311 4.33105 -100.498 12.998s-50.334 20.834 -68.001 36.501s-30.834 34.5 -39.501 56.5s-13.334 46.667 -14.001 74h138c0 -26 6 -45.833 18 -59.5
s34 -20.5 66 -20.5s53.833 6.83301 65.5 20.5s17.834 33.5 18.501 59.5h138c-1.33301 -27.333 -6.16602 -52.166 -14.499 -74.499s-21.333 -41.333 -39 -57s-40.334 -27.667 -68.001 -36s-61.167 -12.5 -100.5 -12.5z" />
    <glyph glyph-name="Ohungarumlaut" unicode="&#x150;" horiz-adv-x="777" 
d="M388 -10c-118.667 0 -208.167 31.665 -268.5 94.998s-90.5 158 -90.5 284c0 126.667 30 221.834 90 285.501s149.667 95.5 269 95.5c120 0 210 -31.667 270 -95s90 -158.666 90 -285.999c0 -126 -30 -220.667 -90 -284s-150 -95 -270 -95zM388 161.998
c27.333 0 50.0029 3.00098 68.0029 9.00098s32.333 16.833 43 32.5s18.167 36.834 22.5 63.501s6.5 60.667 6.5 102c0 40.667 -2.16699 74.5 -6.5 101.5s-12 48.5 -23 64.5s-25.5 27.333 -43.5 34s-40.333 10 -67 10s-48.834 -3.33301 -66.501 -10s-31.834 -18 -42.501 -34
s-18.334 -37.5 -23.001 -64.5s-7 -60.833 -7 -101.5s2.16699 -74.334 6.5 -101.001s11.833 -47.834 22.5 -63.501s25 -26.667 43 -33s40.333 -9.5 67 -9.5zM193.003 808.999l63 189h194l-128 -199zM418.003 808.999l63 189h194l-128 -199z" />
    <glyph glyph-name="ohungarumlaut" unicode="&#x151;" horiz-adv-x="638" 
d="M135 619l63 189h194l-128 -199zM360 619l63 189h194l-128 -199zM319 -11c-96 0 -168.833 23.833 -218.5 71.5s-74.5 117.5 -74.5 209.5s24.833 161.667 74.5 209s122.5 71 218.5 71s168.833 -23.667 218.5 -71s74.5 -117 74.5 -209s-24.833 -161.833 -74.5 -209.5
s-122.5 -71.5 -218.5 -71.5zM319 147c16.667 0 30.334 1.5 41.001 4.5s19.167 9 25.5 18s10.666 21.5 12.999 37.5s3.5 37 3.5 63s-1.16699 47 -3.5 63s-6.66602 28.333 -12.999 37s-14.833 14.5 -25.5 17.5s-24.334 4.5 -41.001 4.5s-30.334 -1.5 -41.001 -4.5
s-19.167 -9 -25.5 -18s-10.666 -21.333 -12.999 -37s-3.5 -36.5 -3.5 -62.5s1.16699 -47 3.5 -63s6.66602 -28.5 12.999 -37.5s14.833 -15 25.5 -18s24.334 -4.5 41.001 -4.5z" />
    <glyph glyph-name="OE" unicode="&#x152;" horiz-adv-x="1095" 
d="M397 -10c-118 0 -209.002 32 -273.002 96s-96 158.667 -96 284c0 124.667 32 219.167 96 283.5s155 96.5 273 96.5c24.667 0 46.834 -1 66.501 -3s38.834 -4.33301 57.501 -7h532v-168h-317v-116h292v-163h-292v-124h326v-169h-541c-19.333 -4 -39 -6.66699 -59 -8
s-41.667 -2 -65 -2zM409.998 163c21.333 0 41.001 0.333008 59.001 1s35.333 2.66699 52 6v400c-17.333 2 -34.833 3.66699 -52.5 5s-37.5 2 -59.5 2c-32 0 -58.333 -3.16699 -79 -9.5s-37.334 -17.5 -50.001 -33.5s-21.5 -37.333 -26.5 -64s-7.5 -60.334 -7.5 -101.001
c0 -41.333 2.5 -75.166 7.5 -101.499s13.667 -47.333 26 -63s29 -26.5 50 -32.5s47.833 -9 80.5 -9z" />
    <glyph glyph-name="oe" unicode="&#x153;" horiz-adv-x="961" 
d="M686 -9c-76 0 -135.001 16.001 -177.001 48.001h-10c-42.667 -33.333 -102.667 -50 -180 -50c-96 0 -168.833 23.833 -218.5 71.5s-74.5 117.5 -74.5 209.5s24.833 161.667 74.5 209s122.5 71 218.5 71c38.667 0 73.167 -4.33301 103.5 -13s56.166 -21 77.499 -37h10
c42.667 32.667 102.334 49 179.001 49c82.667 0 144 -20.167 184 -60.5s60 -102.833 60 -187.5c0 -18.667 -0.666992 -34.667 -2 -48s-3.66602 -26.666 -6.99902 -39.999h-313c1.33301 -14.667 3.83301 -26.334 7.5 -35.001s9 -15.334 16 -20.001s16.167 -7.66699 27.5 -9
s25 -2 41 -2c14 0 29.5 0.666992 46.5 2s34.667 3 53 5s36.5 4.33301 54.5 7s34.667 5.66699 50 9l5 -148c-32 -9.33301 -68.167 -16.833 -108.5 -22.5s-79.5 -8.5 -117.5 -8.5zM318.999 147.001c16.667 0 30.334 1.5 41.001 4.5s19.167 9 25.5 18s10.666 21.5 12.999 37.5
s3.5 37 3.5 63s-1.16699 47 -3.5 63s-6.66602 28.333 -12.999 37s-14.833 14.5 -25.5 17.5s-24.334 4.5 -41.001 4.5s-30.334 -1.5 -41.001 -4.5s-19.167 -9 -25.5 -18s-10.666 -21.333 -12.999 -37s-3.5 -36.5 -3.5 -62.5s1.16699 -47 3.5 -63s6.66602 -28.5 12.999 -37.5
s14.833 -15 25.5 -18s24.334 -4.5 41.001 -4.5zM748.999 321.001c-1.33301 30 -7.00098 51.167 -17.001 63.5s-27.333 18.5 -52 18.5c-23.333 0 -40.166 -5.83301 -50.499 -17.5s-16.833 -33.167 -19.5 -64.5h139z" />
    <glyph glyph-name="Racute" unicode="&#x154;" horiz-adv-x="707" 
d="M357 234c-8 -0.666992 -16.166 -1 -24.499 -1h-25.5h-34v-233h-215v735c76 10 152.667 15 230 15c68 0 126.667 -5 176 -15s89.666 -25.5 120.999 -46.5s54.5 -47.833 69.5 -80.5s22.5 -72 22.5 -118c0 -104.667 -44.667 -177 -134 -217l167 -273h-235zM329.001 396
c24.667 0 45.3301 1.50098 61.9971 4.50098s29.834 8 39.501 15s16.5 16.5 20.5 28.5s6 27 6 45s-1.83301 33 -5.5 45s-10.334 21.5 -20.001 28.5s-22.5 12 -38.5 15s-36.333 4.5 -61 4.5c-7.33301 0 -17.166 -0.333008 -29.499 -1s-22.166 -1.33398 -29.499 -2.00098v-179
c10.667 -2.66699 29.334 -4 56.001 -4zM265.997 809.001l63 189h215l-128 -199z" />
    <glyph glyph-name="racute" unicode="&#x155;" horiz-adv-x="460" 
d="M166 619l63 189h215l-128 -199zM49 540h176.999l10 -83h6c6.66699 8 15.834 16.5 27.501 25.5s24.5 17.833 38.5 26.5s28.5 16.667 43.5 24s28.833 13 41.5 17h57v-177h-77c-10.667 -1.33301 -21.667 -3.5 -33 -6.5s-22.333 -6.5 -33 -10.5s-20.167 -8.16699 -28.5 -12.5
s-14.833 -8.83301 -19.5 -13.5v-330h-210v540z" />
    <glyph glyph-name="Rcommaaccent" unicode="&#x156;" horiz-adv-x="707" 
d="M259 -70h215l-99 -150h-156zM357 234c-8 -0.666992 -16.166 -1 -24.499 -1h-25.5h-34v-233h-215v735c76 10 152.667 15 230 15c68 0 126.667 -5 176 -15s89.666 -25.5 120.999 -46.5s54.5 -47.833 69.5 -80.5s22.5 -72 22.5 -118c0 -104.667 -44.667 -177 -134 -217
l167 -273h-235zM329.001 396c24.667 0 45.3301 1.50098 61.9971 4.50098s29.834 8 39.501 15s16.5 16.5 20.5 28.5s6 27 6 45s-1.83301 33 -5.5 45s-10.334 21.5 -20.001 28.5s-22.5 12 -38.5 15s-36.333 4.5 -61 4.5c-7.33301 0 -17.166 -0.333008 -29.499 -1
s-22.166 -1.33398 -29.499 -2.00098v-179c10.667 -2.66699 29.334 -4 56.001 -4z" />
    <glyph glyph-name="rcommaaccent" unicode="&#x157;" horiz-adv-x="460" 
d="M46 -70h215l-99 -150h-156zM49 540h176.999l10 -83h6c6.66699 8 15.834 16.5 27.501 25.5s24.5 17.833 38.5 26.5s28.5 16.667 43.5 24s28.833 13 41.5 17h57v-177h-77c-10.667 -1.33301 -21.667 -3.5 -33 -6.5s-22.333 -6.5 -33 -10.5s-20.167 -8.16699 -28.5 -12.5
s-14.833 -8.83301 -19.5 -13.5v-330h-210v540z" />
    <glyph glyph-name="Rcaron" unicode="&#x158;" horiz-adv-x="707" 
d="M153 1004l203 -76l203 76v-136l-204 -76l-202 76v136zM357 234c-8 -0.666992 -16.166 -1 -24.499 -1h-25.5h-34v-233h-215v735c76 10 152.667 15 230 15c68 0 126.667 -5 176 -15s89.666 -25.5 120.999 -46.5s54.5 -47.833 69.5 -80.5s22.5 -72 22.5 -118
c0 -104.667 -44.667 -177 -134 -217l167 -273h-235zM329.001 396c24.667 0 45.3301 1.50098 61.9971 4.50098s29.834 8 39.501 15s16.5 16.5 20.5 28.5s6 27 6 45s-1.83301 33 -5.5 45s-10.334 21.5 -20.001 28.5s-22.5 12 -38.5 15s-36.333 4.5 -61 4.5
c-7.33301 0 -17.166 -0.333008 -29.499 -1s-22.166 -1.33398 -29.499 -2.00098v-179c10.667 -2.66699 29.334 -4 56.001 -4z" />
    <glyph glyph-name="rcaron" unicode="&#x159;" horiz-adv-x="460" 
d="M45 814l203 -76l203 76v-136l-204 -76l-202 76v136zM49 540h176.999l10 -83h6c6.66699 8 15.834 16.5 27.501 25.5s24.5 17.833 38.5 26.5s28.5 16.667 43.5 24s28.833 13 41.5 17h57v-177h-77c-10.667 -1.33301 -21.667 -3.5 -33 -6.5s-22.333 -6.5 -33 -10.5
s-20.167 -8.16699 -28.5 -12.5s-14.833 -8.83301 -19.5 -13.5v-330h-210v540z" />
    <glyph glyph-name="Sacute" unicode="&#x15a;" horiz-adv-x="622" 
d="M302 -12c-40 0 -83.667 2.99707 -131 8.99707s-93.333 14.667 -138 26v174c44 -12 86.833 -21.333 128.5 -28s79.5 -10 113.5 -10c38 0 65 4.16699 81 12.5s24 22.166 24 41.499c0 22 -9.66699 37.333 -29 46s-47.333 16.334 -84 23.001c-34.667 6 -66 14.5 -94 25.5
s-52 25.833 -72 44.5s-35.5 42.167 -46.5 70.5s-16.5 62.833 -16.5 103.5c0 70.667 26.167 125.667 78.5 165s125.166 59 218.499 59c16.667 0 33.167 -0.5 49.5 -1.5s33.5 -2.66699 51.5 -5s37.333 -5.5 58 -9.5l69 -14v-170c-15.333 4.66699 -32 8.83398 -50 12.501
s-36.167 7 -54.5 10s-36.166 5.33301 -53.499 7s-33 2.5 -47 2.5c-65.333 0 -98 -17.333 -98 -52c0 -24 11.333 -41.667 34 -53s54 -21.333 94 -30c34 -7.33301 64.333 -16.666 91 -27.999s49 -25.666 67 -42.999s31.833 -38 41.5 -62s14.5 -52.667 14.5 -86
c0 -78 -25.5 -137.5 -76.5 -178.5s-125.5 -61.5 -223.5 -61.5zM226 808.997l63 189h215l-128 -199z" />
    <glyph glyph-name="sacute" unicode="&#x15b;" horiz-adv-x="532" 
d="M182 619l63 189h215l-128 -199zM249 -11c-32 0 -67.501 2.3291 -106.501 6.99609s-75.167 11.334 -108.5 20.001v143c36 -8.66699 71.5 -15.5 106.5 -20.5s68.5 -7.5 100.5 -7.5c24 0 41 2 51 6s15 10.667 15 20s-5.16699 16.333 -15.5 21s-28.5 8.33398 -54.5 11.001
c-20 2 -41.667 4.83301 -65 8.5s-45 11.167 -65 22.5s-36.667 28.5 -50 51.5s-20 54.5 -20 94.5c0 58.667 20.5 104.167 61.5 136.5s98.833 48.5 173.5 48.5c30 0 62.167 -1.83301 96.5 -5.5s72.5 -9.16699 114.5 -16.5l-5 -151c-38 8.66699 -71.5 15 -100.5 19
s-54.167 6 -75.5 6c-45.333 0 -68 -10 -68 -30c0 -9.33301 6 -16.333 18 -21s33 -8.66699 63 -12c26 -2.66699 50.5 -7.16699 73.5 -13.5s43.333 -15.666 61 -27.999s31.667 -28.666 42 -48.999s15.5 -46.166 15.5 -77.499c0 -60.667 -21.667 -106.334 -65 -137.001
s-107.666 -46 -192.999 -46z" />
    <glyph glyph-name="Scircumflex" unicode="&#x15c;" horiz-adv-x="622" 
d="M302 -12c-40 0 -83.667 2.99707 -131 8.99707s-93.333 14.667 -138 26v174c44 -12 86.833 -21.333 128.5 -28s79.5 -10 113.5 -10c38 0 65 4.16699 81 12.5s24 22.166 24 41.499c0 22 -9.66699 37.333 -29 46s-47.333 16.334 -84 23.001c-34.667 6 -66 14.5 -94 25.5
s-52 25.833 -72 44.5s-35.5 42.167 -46.5 70.5s-16.5 62.833 -16.5 103.5c0 70.667 26.167 125.667 78.5 165s125.166 59 218.499 59c16.667 0 33.167 -0.5 49.5 -1.5s33.5 -2.66699 51.5 -5s37.333 -5.5 58 -9.5l69 -14v-170c-15.333 4.66699 -32 8.83398 -50 12.501
s-36.167 7 -54.5 10s-36.166 5.33301 -53.499 7s-33 2.5 -47 2.5c-65.333 0 -98 -17.333 -98 -52c0 -24 11.333 -41.667 34 -53s54 -21.333 94 -30c34 -7.33301 64.333 -16.666 91 -27.999s49 -25.666 67 -42.999s31.833 -38 41.5 -62s14.5 -52.667 14.5 -86
c0 -78 -25.5 -137.5 -76.5 -178.5s-125.5 -61.5 -223.5 -61.5zM114 927.997l202 76l204 -76v-136l-203 76l-203 -76v136z" />
    <glyph glyph-name="scircumflex" unicode="&#x15d;" horiz-adv-x="532" 
d="M72 738l202 76l204 -76v-136l-203 76l-203 -76v136zM249 -11c-32 0 -67.501 2.3291 -106.501 6.99609s-75.167 11.334 -108.5 20.001v143c36 -8.66699 71.5 -15.5 106.5 -20.5s68.5 -7.5 100.5 -7.5c24 0 41 2 51 6s15 10.667 15 20s-5.16699 16.333 -15.5 21
s-28.5 8.33398 -54.5 11.001c-20 2 -41.667 4.83301 -65 8.5s-45 11.167 -65 22.5s-36.667 28.5 -50 51.5s-20 54.5 -20 94.5c0 58.667 20.5 104.167 61.5 136.5s98.833 48.5 173.5 48.5c30 0 62.167 -1.83301 96.5 -5.5s72.5 -9.16699 114.5 -16.5l-5 -151
c-38 8.66699 -71.5 15 -100.5 19s-54.167 6 -75.5 6c-45.333 0 -68 -10 -68 -30c0 -9.33301 6 -16.333 18 -21s33 -8.66699 63 -12c26 -2.66699 50.5 -7.16699 73.5 -13.5s43.333 -15.666 61 -27.999s31.667 -28.666 42 -48.999s15.5 -46.166 15.5 -77.499
c0 -60.667 -21.667 -106.334 -65 -137.001s-107.666 -46 -192.999 -46z" />
    <glyph glyph-name="uni015E" unicode="&#x15e;" horiz-adv-x="622" 
d="M300 -220c-14 0 -30.168 1.16309 -48.501 3.49609s-37.5 5.16602 -57.5 8.49902v118c14 -3.33301 28.333 -5.83301 43 -7.5s26 -2.5 34 -2.5c10.667 0 17.834 2 21.501 6s5.5 8.66699 5.5 14c0 15.333 -9.66699 38.333 -29 69c-36.667 1.33301 -75.5 4.83301 -116.5 10.5
s-80.833 13.5 -119.5 23.5v174c44 -12 86.833 -21.333 128.5 -28s79.5 -10 113.5 -10c38 0 65 4.16699 81 12.5s24 22.166 24 41.499c0 22 -9.66699 37.333 -29 46s-47.333 16.334 -84 23.001c-34.667 6 -66 14.5 -94 25.5s-52 25.833 -72 44.5s-35.5 42.167 -46.5 70.5
s-16.5 62.833 -16.5 103.5c0 70.667 26.167 125.667 78.5 165s125.166 59 218.499 59c16.667 0 33.167 -0.5 49.5 -1.5s33.5 -2.66699 51.5 -5s37.333 -5.5 58 -9.5l69 -14v-170c-15.333 4.66699 -32 8.83398 -50 12.501s-36.167 7 -54.5 10s-36.166 5.33301 -53.499 7
s-33 2.5 -47 2.5c-65.333 0 -98 -17.333 -98 -52c0 -24 11.333 -41.667 34 -53s54 -21.333 94 -30c34 -7.33301 64.333 -16.666 91 -27.999s49 -25.666 67 -42.999s31.833 -38 41.5 -62s14.5 -52.667 14.5 -86c0 -65.333 -18 -117.666 -54 -156.999
s-88.667 -64.666 -158 -75.999c15.333 -20.667 26 -39 32 -55s9 -33 9 -51c0 -34 -11.5 -60.667 -34.5 -80s-55.167 -29 -96.5 -29z" />
    <glyph glyph-name="uni015F" unicode="&#x15f;" horiz-adv-x="532" 
d="M251 -220c-14 0 -30.167 1.16504 -48.5 3.49805s-37.5 5.16602 -57.5 8.49902v118c14 -3.33301 28.333 -5.83301 43 -7.5s26 -2.5 34 -2.5c10.667 0 17.834 2 21.501 6s5.5 8.66699 5.5 14c0 16.667 -10 40 -30 70c-30 1.33301 -61.333 4.16602 -94 8.49902
s-63 10.166 -91 17.499v143c36 -8.66699 71.5 -15.5 106.5 -20.5s68.5 -7.5 100.5 -7.5c24 0 41 2 51 6s15 10.667 15 20s-5.16699 16.333 -15.5 21s-28.5 8.33398 -54.5 11.001c-20 2 -41.667 4.83301 -65 8.5s-45 11.167 -65 22.5s-36.667 28.5 -50 51.5
s-20 54.5 -20 94.5c0 58.667 20.5 104.167 61.5 136.5s98.833 48.5 173.5 48.5c30 0 62.167 -1.83301 96.5 -5.5s72.5 -9.16699 114.5 -16.5l-5 -151c-38 8.66699 -71.5 15 -100.5 19s-54.167 6 -75.5 6c-45.333 0 -68 -10 -68 -30c0 -9.33301 6 -16.333 18 -21
s33 -8.66699 63 -12c26 -2.66699 50.5 -7.16699 73.5 -13.5s43.333 -15.666 61 -27.999s31.667 -28.666 42 -48.999s15.5 -46.166 15.5 -77.499c0 -97.333 -55.667 -155.666 -167 -174.999c15.333 -21.333 26.166 -40 32.499 -56s9.5 -33.333 9.5 -52
c0 -34 -11.5 -60.667 -34.5 -80s-55.167 -29 -96.5 -29z" />
    <glyph glyph-name="Scaron" unicode="&#x160;" horiz-adv-x="622" 
d="M302 -12c-40 0 -83.667 2.99707 -131 8.99707s-93.333 14.667 -138 26v174c44 -12 86.833 -21.333 128.5 -28s79.5 -10 113.5 -10c38 0 65 4.16699 81 12.5s24 22.166 24 41.499c0 22 -9.66699 37.333 -29 46s-47.333 16.334 -84 23.001c-34.667 6 -66 14.5 -94 25.5
s-52 25.833 -72 44.5s-35.5 42.167 -46.5 70.5s-16.5 62.833 -16.5 103.5c0 70.667 26.167 125.667 78.5 165s125.166 59 218.499 59c16.667 0 33.167 -0.5 49.5 -1.5s33.5 -2.66699 51.5 -5s37.333 -5.5 58 -9.5l69 -14v-170c-15.333 4.66699 -32 8.83398 -50 12.501
s-36.167 7 -54.5 10s-36.166 5.33301 -53.499 7s-33 2.5 -47 2.5c-65.333 0 -98 -17.333 -98 -52c0 -24 11.333 -41.667 34 -53s54 -21.333 94 -30c34 -7.33301 64.333 -16.666 91 -27.999s49 -25.666 67 -42.999s31.833 -38 41.5 -62s14.5 -52.667 14.5 -86
c0 -78 -25.5 -137.5 -76.5 -178.5s-125.5 -61.5 -223.5 -61.5zM116 1004l203 -76l203 76v-136l-204 -76l-202 76v136z" />
    <glyph glyph-name="scaron" unicode="&#x161;" horiz-adv-x="532" 
d="M67 814l203 -76l203 76v-136l-204 -76l-202 76v136zM249 -11c-32 0 -67.501 2.3291 -106.501 6.99609s-75.167 11.334 -108.5 20.001v143c36 -8.66699 71.5 -15.5 106.5 -20.5s68.5 -7.5 100.5 -7.5c24 0 41 2 51 6s15 10.667 15 20s-5.16699 16.333 -15.5 21
s-28.5 8.33398 -54.5 11.001c-20 2 -41.667 4.83301 -65 8.5s-45 11.167 -65 22.5s-36.667 28.5 -50 51.5s-20 54.5 -20 94.5c0 58.667 20.5 104.167 61.5 136.5s98.833 48.5 173.5 48.5c30 0 62.167 -1.83301 96.5 -5.5s72.5 -9.16699 114.5 -16.5l-5 -151
c-38 8.66699 -71.5 15 -100.5 19s-54.167 6 -75.5 6c-45.333 0 -68 -10 -68 -30c0 -9.33301 6 -16.333 18 -21s33 -8.66699 63 -12c26 -2.66699 50.5 -7.16699 73.5 -13.5s43.333 -15.666 61 -27.999s31.667 -28.666 42 -48.999s15.5 -46.166 15.5 -77.499
c0 -60.667 -21.667 -106.334 -65 -137.001s-107.666 -46 -192.999 -46z" />
    <glyph glyph-name="uni0162" unicode="&#x162;" horiz-adv-x="630" 
d="M207 569l-188 0.000976562v171h592v-171h-189v-569h-48c17.333 -21.333 29.166 -40.333 35.499 -57s9.5 -34.667 9.5 -54c0 -34 -11.5 -60.667 -34.5 -80s-55.167 -29 -96.5 -29c-14 0 -30.167 1.16699 -48.5 3.5s-37.5 5.16602 -57.5 8.49902v118
c14 -3.33301 28.333 -5.83301 43 -7.5s26 -2.5 34 -2.5c10.667 0 17.834 2 21.501 6s5.5 8.66699 5.5 14c0 8 -3 19 -9 33s-15.333 29.667 -28 47h-42v569z" />
    <glyph glyph-name="uni0163" unicode="&#x163;" horiz-adv-x="448" 
d="M218 -220c-14 0 -30.167 1.16797 -48.5 3.50098s-37.5 5.16602 -57.5 8.49902v118c14 -3.33301 28.333 -5.83301 43 -7.5s26 -2.5 34 -2.5c10.667 0 17.834 2 21.501 6s5.5 8.66699 5.5 14c0 10 -4.5 24 -13.5 42s-22.167 37.667 -39.5 59
c-44.667 30.667 -67 78.334 -67 143.001v202h-80v174h94l30 168l165 17v-185h114v-174h-113v-151c0 -27.333 4.5 -46 13.5 -56s24.5 -15 46.5 -15c15.333 0 33.333 3.66699 54 11v-152c-13.333 -4 -29.5 -7.33301 -48.5 -10s-38.5 -4.33398 -58.5 -5.00098
c13.333 -18.667 22.666 -35.5 27.999 -50.5s8 -31.167 8 -48.5c0 -34 -11.5 -60.667 -34.5 -80s-55.167 -29 -96.5 -29z" />
    <glyph glyph-name="Tcaron" unicode="&#x164;" horiz-adv-x="630" 
d="M115 1004l203 -76l203 76v-136l-204 -76l-202 76v136zM207 569h-188v171h592v-171h-189v-569h-215v569z" />
    <glyph glyph-name="tcaron" unicode="&#x165;" horiz-adv-x="449" 
d="M298 -12c-66.667 0 -117 15.001 -151 45.001s-51 73.667 -51 131v202h-80v174h94l30 168l165 17v-185h114v-174h-113v-151c0 -27.333 4.5 -46 13.5 -56s24.5 -15 46.5 -15c15.333 0 33.333 3.66699 54 11v-152c-14.667 -4.66699 -33 -8.33398 -55 -11.001
s-44.333 -4 -67 -4zM357 808.001h163l-50 -228h-113v228z" />
    <glyph glyph-name="Tbar" unicode="&#x166;" horiz-adv-x="639" 
d="M77 425h134v144h-188v171h592v-171h-189v-144h136v-117h-136v-308h-215v308h-134v117z" />
    <glyph glyph-name="tbar" unicode="&#x167;" horiz-adv-x="450" 
d="M23 314l74.001 0.00195312v52h-80v174h94l30 168l165 17v-185h114v-174h-113v-52h86v-116h-86c2 -20.667 7.66699 -34.834 17 -42.501s23.666 -11.5 42.999 -11.5c15.333 0 33.333 3.66699 54 11v-152c-14.667 -4.66699 -33 -8.33398 -55 -11.001s-44.333 -4 -67 -4
c-66.667 0 -117 15 -151 45s-51 73.667 -51 131v34h-74v116z" />
    <glyph glyph-name="Utilde" unicode="&#x168;" horiz-adv-x="777" 
d="M154 847c23.333 48 49.999 83.499 79.999 106.499s59 34.5 87 34.5c16 0 32.167 -2 48.5 -6s32.5 -8.16699 48.5 -12.5l48 -12.5c16 -4 32.333 -6 49 -6c14.667 0 28.834 2.5 42.501 7.5s30.167 14.833 49.5 29.5l23 -29c-24 -48 -50.833 -83.5 -80.5 -106.5
s-58.5 -34.5 -86.5 -34.5c-16 0 -32.167 1.83301 -48.5 5.5s-32.5 7.83398 -48.5 12.501s-32.167 8.83398 -48.5 12.501s-32.5 5.5 -48.5 5.5c-15.333 0 -30 -2.33301 -44 -7s-30 -14.334 -48 -29.001zM388.999 -10.001c-64 0 -117.502 6.49805 -160.502 19.498
s-77.667 32.333 -104 58s-45.166 57.834 -56.499 96.501s-17 84 -17 136v441h215v-442c0 -45.333 9.5 -79.166 28.5 -101.499s50.5 -33.5 94.5 -33.5s75.333 11 94 33s28 56 28 102v442h215v-441c0 -52 -5.66699 -97.333 -17 -136s-30.166 -71 -56.499 -97
s-61 -45.333 -104 -58s-96.167 -19 -159.5 -19z" />
    <glyph glyph-name="utilde" unicode="&#x169;" horiz-adv-x="648" 
d="M204 -10c-50 0 -88.8311 13.498 -116.498 40.498s-41.5 63.5 -41.5 109.5v400h210v-335c0 -35.333 15 -53 45 -53c11.333 0 24.666 1.83301 39.999 5.5s31.333 8.83398 48 15.501v367h210v-540h-177l-10 59h-4c-22.667 -13.333 -42.334 -24.333 -59.001 -33
s-32.5 -15.667 -47.5 -21s-30 -9.16602 -45 -11.499s-32.5 -3.5 -52.5 -3.5zM98.002 659.998c23.333 45.333 50.166 78.833 80.499 100.5s59.5 32.5 87.5 32.5c16 0 32 -2.5 48 -7.5s32 -10.333 48 -16s32.167 -11 48.5 -16s32.5 -7.5 48.5 -7.5c14 0 27.667 2.66699 41 8
s28.666 16 45.999 32l28 -40c-23.333 -45.333 -50.166 -78.833 -80.499 -100.5s-59.166 -32.5 -86.499 -32.5c-16 0 -32.167 2.33301 -48.5 7s-32.5 10 -48.5 16s-32.167 11.333 -48.5 16s-32.5 7 -48.5 7c-14 0 -27.667 -2.5 -41 -7.5s-28.333 -15.167 -45 -30.5z" />
    <glyph glyph-name="Umacron" unicode="&#x16a;" horiz-adv-x="777" 
d="M179 976h405v-136h-405v136zM389 -10c-64 0 -117.502 6.49805 -160.502 19.498s-77.667 32.333 -104 58s-45.166 57.834 -56.499 96.501s-17 84 -17 136v441h215v-442c0 -45.333 9.5 -79.166 28.5 -101.499s50.5 -33.5 94.5 -33.5s75.333 11 94 33s28 56 28 102v442h215
v-441c0 -52 -5.66699 -97.333 -17 -136s-30.166 -71 -56.499 -97s-61 -45.333 -104 -58s-96.167 -19 -159.5 -19z" />
    <glyph glyph-name="umacron" unicode="&#x16b;" horiz-adv-x="648" 
d="M204 -10c-50 0 -88.8311 13.498 -116.498 40.498s-41.5 63.5 -41.5 109.5v400h210v-335c0 -35.333 15 -53 45 -53c11.333 0 24.666 1.83301 39.999 5.5s31.333 8.83398 48 15.501v367h210v-540h-177l-10 59h-4c-22.667 -13.333 -42.334 -24.333 -59.001 -33
s-32.5 -15.667 -47.5 -21s-30 -9.16602 -45 -11.499s-32.5 -3.5 -52.5 -3.5zM117.002 760.998h405v-131h-405v131z" />
    <glyph glyph-name="Ubreve" unicode="&#x16c;" horiz-adv-x="777" 
d="M385 801c-40.667 0 -75.166 4.66699 -103.499 14s-51.333 22.5 -69 39.5s-30.5 37 -38.5 60s-12 48.5 -12 76.5h138c0 -33.333 5.66699 -57.5 17 -72.5s34 -22.5 68 -22.5c33.333 0 55.666 7.5 66.999 22.5s17 39.167 17 72.5h138c0 -28 -4 -53.667 -12 -77
s-21 -43.333 -39 -60s-41 -29.667 -69 -39s-62 -14 -102 -14zM389.001 -10c-64 0 -117.502 6.49805 -160.502 19.498s-77.667 32.333 -104 58s-45.166 57.834 -56.499 96.501s-17 84 -17 136v441h215v-442c0 -45.333 9.5 -79.166 28.5 -101.499s50.5 -33.5 94.5 -33.5
s75.333 11 94 33s28 56 28 102v442h215v-441c0 -52 -5.66699 -97.333 -17 -136s-30.166 -71 -56.499 -97s-61 -45.333 -104 -58s-96.167 -19 -159.5 -19z" />
    <glyph glyph-name="ubreve" unicode="&#x16d;" horiz-adv-x="648" 
d="M204 -10c-50 0 -88.8311 13.498 -116.498 40.498s-41.5 63.5 -41.5 109.5v400h210v-335c0 -35.333 15 -53 45 -53c11.333 0 24.666 1.83301 39.999 5.5s31.333 8.83398 48 15.501v367h210v-540h-177l-10 59h-4c-22.667 -13.333 -42.334 -24.333 -59.001 -33
s-32.5 -15.667 -47.5 -21s-30 -9.16602 -45 -11.499s-32.5 -3.5 -52.5 -3.5zM319.002 610.998c-39.333 0 -72.8311 4.33105 -100.498 12.998s-50.334 20.834 -68.001 36.501s-30.834 34.5 -39.501 56.5s-13.334 46.667 -14.001 74h138c0 -26 6 -45.833 18 -59.5
s34 -20.5 66 -20.5s53.833 6.83301 65.5 20.5s17.834 33.5 18.501 59.5h138c-1.33301 -27.333 -6.16602 -52.166 -14.499 -74.499s-21.333 -41.333 -39 -57s-40.334 -27.667 -68.001 -36s-61.167 -12.5 -100.5 -12.5z" />
    <glyph glyph-name="Uring" unicode="&#x16e;" horiz-adv-x="777" 
d="M389 -10c-64 0 -117.502 6.49805 -160.502 19.498s-77.667 32.333 -104 58s-45.166 57.834 -56.499 96.501s-17 84 -17 136v441h215v-442c0 -45.333 9.5 -79.166 28.5 -101.499s50.5 -33.5 94.5 -33.5s75.333 11 94 33s28 56 28 102v442h215v-441
c0 -52 -5.66699 -97.333 -17 -136s-30.166 -71 -56.499 -97s-61 -45.333 -104 -58s-96.167 -19 -159.5 -19zM381.998 773.998c-19.333 0 -37.333 2.83301 -54 8.5s-31 13.667 -43 24s-21.5 22.5 -28.5 36.5s-10.5 29.667 -10.5 47s3.5 33.166 10.5 47.499
s16.5 26.833 28.5 37.5s26.333 18.834 43 24.501s34.667 8.5 54 8.5s37.333 -2.83301 54 -8.5s31 -13.834 43 -24.501s21.333 -23.167 28 -37.5s10 -30.166 10 -47.499s-3.33301 -33 -10 -47s-16 -26.167 -28 -36.5s-26.333 -18.333 -43 -24s-34.667 -8.5 -54 -8.5z
M381.998 839.998c22.667 0 38 3.83301 46 11.5s12 20.5 12 38.5c0 18.667 -4 32 -12 40s-23.333 12 -46 12s-38.167 -4 -46.5 -12s-12.5 -21.333 -12.5 -40c0 -18 4.16699 -30.833 12.5 -38.5s23.833 -11.5 46.5 -11.5z" />
    <glyph glyph-name="uring" unicode="&#x16f;" horiz-adv-x="648" 
d="M326 584c-20 0 -38.502 2.83301 -55.502 8.5s-31.5 13.667 -43.5 24s-21.5 22.666 -28.5 36.999s-10.5 30.166 -10.5 47.499c0 35.333 12.833 63.666 38.5 84.999s58.834 32 99.501 32s73.834 -10.667 99.501 -32s38.5 -49.666 38.5 -84.999
c0 -17.333 -3.5 -33.166 -10.5 -47.499s-16.5 -26.666 -28.5 -36.999s-26.5 -18.333 -43.5 -24s-35.5 -8.5 -55.5 -8.5zM325.998 651c37.333 0 56 16.667 56 50s-18.667 50 -56 50s-56 -16.667 -56 -50s18.667 -50 56 -50zM203.998 -10
c-50 0 -88.8311 13.498 -116.498 40.498s-41.5 63.5 -41.5 109.5v400h210v-335c0 -35.333 15 -53 45 -53c11.333 0 24.666 1.83301 39.999 5.5s31.333 8.83398 48 15.501v367h210v-540h-177l-10 59h-4c-22.667 -13.333 -42.334 -24.333 -59.001 -33s-32.5 -15.667 -47.5 -21
s-30 -9.16602 -45 -11.499s-32.5 -3.5 -52.5 -3.5z" />
    <glyph glyph-name="Uhungarumlaut" unicode="&#x170;" horiz-adv-x="777" 
d="M389 -10c-64 0 -117.502 6.49805 -160.502 19.498s-77.667 32.333 -104 58s-45.166 57.834 -56.499 96.501s-17 84 -17 136v441h215v-442c0 -45.333 9.5 -79.166 28.5 -101.499s50.5 -33.5 94.5 -33.5s75.333 11 94 33s28 56 28 102v442h215v-441
c0 -52 -5.66699 -97.333 -17 -136s-30.166 -71 -56.499 -97s-61 -45.333 -104 -58s-96.167 -19 -159.5 -19zM197.998 808.998l63 189h194l-128 -199zM422.998 808.998l63 189h194l-128 -199z" />
    <glyph glyph-name="uhungarumlaut" unicode="&#x171;" horiz-adv-x="648" 
d="M204 -10c-50 0 -88.8311 13.498 -116.498 40.498s-41.5 63.5 -41.5 109.5v400h210v-335c0 -35.333 15 -53 45 -53c11.333 0 24.666 1.83301 39.999 5.5s31.333 8.83398 48 15.501v367h210v-540h-177l-10 59h-4c-22.667 -13.333 -42.334 -24.333 -59.001 -33
s-32.5 -15.667 -47.5 -21s-30 -9.16602 -45 -11.499s-32.5 -3.5 -52.5 -3.5zM131.002 618.998l63 189h194l-128 -199zM356.002 618.998l63 189h194l-128 -199z" />
    <glyph glyph-name="Uogonek" unicode="&#x172;" horiz-adv-x="777" 
d="M392 -218c-50 0 -88.334 8.5 -115.001 25.5s-40 41.833 -40 74.5c0 40.667 22.333 78.334 67 113.001c-47.333 5.33301 -87.166 15.666 -119.499 30.999s-58.333 35.666 -78 60.999s-33.834 55.833 -42.501 91.5s-13 76.167 -13 121.5v441h215v-442
c0 -45.333 9.5 -79.166 28.5 -101.499s50.5 -33.5 94.5 -33.5s75.333 11 94 33s28 56 28 102v442h215v-441c0 -45.333 -4.16699 -85.5 -12.5 -120.5s-22 -65 -41 -90s-44 -45.333 -75 -61s-68.833 -26.5 -113.5 -32.5c-44 -17.333 -74 -33 -90 -47s-24 -26.333 -24 -37
c0 -12.667 10 -19 30 -19c10.667 0 24.5 1.5 41.5 4.5s32.5 6.5 46.5 10.5v-114c-16 -4 -31.667 -7 -47 -9s-31.666 -3 -48.999 -3z" />
    <glyph glyph-name="uogonek" unicode="&#x173;" horiz-adv-x="648" 
d="M205 -10c-50 0 -88.832 13.4971 -116.499 40.4971s-41.5 63.5 -41.5 109.5v400h210v-335c0 -35.333 15 -53 45 -53c11.333 0 24.666 1.83301 39.999 5.5s31.333 8.83398 48 15.501v367h210v-545c-22.667 -8.66699 -41.5 -17 -56.5 -25s-27 -15.5 -36 -22.5
s-15.333 -13.667 -19 -20s-5.5 -12.166 -5.5 -17.499c0 -12.667 10 -19 30 -19c10.667 0 24.5 1.5 41.5 4.5s32.5 6.5 46.5 10.5v-114c-16 -4 -31.667 -7 -47 -9s-31.666 -3 -48.999 -3c-50 0 -88.333 8.5 -115 25.5s-40 41.833 -40 74.5c0 21.333 5.83301 42.333 17.5 63
s30.167 39.667 55.5 57l-10 59h-4c-22.667 -13.333 -42.334 -24.333 -59.001 -33s-32.5 -15.667 -47.5 -21s-30 -9.16602 -45 -11.499s-32.5 -3.5 -52.5 -3.5z" />
    <glyph glyph-name="Wcircumflex" unicode="&#x174;" horiz-adv-x="1075" 
d="M4 740h233l64 -405l12 -111h13l18 111l91 405h209l90 -405l18 -111h14l11 111l64 405h230l-169 -740h-272l-69 298l-17 171h-12l-17 -171l-69 -298h-272zM334 928l202 76l204 -76v-136l-203 76l-203 -76v136z" />
    <glyph glyph-name="wcircumflex" unicode="&#x175;" horiz-adv-x="848" 
d="M224 738l202 76l204 -76v-136l-203 76l-203 -76v136zM9 536v4h201l43 -281l7 -62h13l7 62l54 281h180l54 -281l7 -62h13l7 62l43 281h201v-4l-128 -536h-231l-44 241l-6 60h-12l-6 -60l-44 -241h-231z" />
    <glyph glyph-name="Ycircumflex" unicode="&#x176;" horiz-adv-x="736" 
d="M261 238l-274 502h237l114 -237l25 -71h10l26 71l114 237h235l-271 -497v-243h-216v238zM165 928l202 76l204 -76v-136l-203 76l-203 -76v136z" />
    <glyph glyph-name="ycircumflex" unicode="&#x177;" horiz-adv-x="630" 
d="M143 -189v14l67 182l-212 514v19h222l63 -225l26 -103h12l26 103l65 225h218v-19l-284 -741zM120 738l202 76l204 -76v-136l-203 76l-203 -76v136z" />
    <glyph glyph-name="Ydieresis" unicode="&#x178;" horiz-adv-x="736" 
d="M261 238l-274 502h237l114 -237l25 -71h10l26 71l114 237h235l-271 -497v-243h-216v238zM222 796c-40.667 0 -69.5 8.66699 -86.5 26s-25.5 45 -25.5 83s8.5 65.667 25.5 83s45.833 26 86.5 26c40 0 68.667 -8.66699 86 -26s26 -45 26 -83s-8.66699 -65.667 -26 -83
s-46 -26 -86 -26zM514 796c-40 0 -68.5 8.66699 -85.5 26s-25.5 45 -25.5 83s8.5 65.667 25.5 83s45.5 26 85.5 26c40.667 0 69.5 -8.66699 86.5 -26s25.5 -45 25.5 -83s-8.5 -65.667 -25.5 -83s-45.833 -26 -86.5 -26z" />
    <glyph glyph-name="Zacute" unicode="&#x179;" horiz-adv-x="648" 
d="M28 170l323 390v11h-307v169h559v-167l-324 -393v-10h343v-170h-594v170zM253 809l63 189h215l-128 -199z" />
    <glyph glyph-name="zacute" unicode="&#x17a;" horiz-adv-x="551" 
d="M205 619l63 189h215l-128 -199zM32 136l225 241v9h-218v154h471v-136l-215 -240v-10h225v-154h-488v136z" />
    <glyph glyph-name="Zdotaccent" unicode="&#x17b;" horiz-adv-x="648" 
d="M324 796c-40.667 0 -69.5 8.66699 -86.5 26s-25.5 45 -25.5 83s8.5 65.667 25.5 83s45.833 26 86.5 26c40 0 68.667 -8.66699 86 -26s26 -45 26 -83s-8.66699 -65.667 -26 -83s-46 -26 -86 -26zM28 170l323 390v11h-307v169h559v-167l-324 -393v-10h343v-170h-594v170z
" />
    <glyph glyph-name="zdotaccent" unicode="&#x17c;" horiz-adv-x="551" 
d="M32 136l225 241v9h-218v154h471v-136l-215 -240v-10h225v-154h-488v136zM271 596c-40 0 -68.667 8.66699 -86 26s-26 45 -26 83s8.66699 65.667 26 83s46 26 86 26c40.667 0 69.5 -8.66699 86.5 -26s25.5 -45 25.5 -83s-8.5 -65.667 -25.5 -83s-45.833 -26 -86.5 -26z
" />
    <glyph glyph-name="Zcaron" unicode="&#x17d;" horiz-adv-x="648" 
d="M125 1004l203 -76l203 76v-136l-204 -76l-202 76v136zM28 170l323 390v11h-307v169h559v-167l-324 -393v-10h343v-170h-594v170z" />
    <glyph glyph-name="zcaron" unicode="&#x17e;" horiz-adv-x="551" 
d="M77 814l203 -76l203 76v-136l-204 -76l-202 76v136zM32 136l225 241v9h-218v154h471v-136l-215 -240v-10h225v-154h-488v136z" />
    <glyph glyph-name="Schwa" unicode="&#x18f;" horiz-adv-x="729" 
d="M26 329c0 16.667 0.500977 33.001 1.50098 49.001s2.83301 35.667 5.5 59h455c-2 28.667 -6.33301 51.5 -13 68.5s-16.667 30.167 -30 39.5s-30.5 15.5 -51.5 18.5s-46.833 4.5 -77.5 4.5c-34 0 -71.833 -2 -113.5 -6s-87.5 -11.667 -137.5 -23l-9 169
c21.333 6.66699 44.166 12.667 68.499 18s49 9.66602 74 12.999s49.5 6 73.5 8s46.333 3 67 3c240.667 0 361 -125 361 -375c0 -123.333 -29.667 -218.333 -89 -285s-149.333 -100 -270 -100c-52 0 -97.5 6.33301 -136.5 19s-71.833 32.667 -98.5 60s-46.667 62.5 -60 105.5
s-20 94.5 -20 154.5zM349.001 156.001c24.667 0 45.5 2.00098 62.5 6.00098s30.833 11.167 41.5 21.5s18.667 24.5 24 42.5s9 41 11 69h-258c0 -28 1.33301 -50.833 4 -68.5s8.16699 -31.834 16.5 -42.501s20.333 -18 36 -22s36.5 -6 62.5 -6z" />
    <glyph glyph-name="florin" unicode="&#x192;" horiz-adv-x="510" 
d="M131 366l-100.999 0.000976562v174h102v23c0 46 6.16699 85 18.5 117s32.5 58 60.5 78s64.333 34.667 109 44s99 14.333 163 15l11 -152c-56.667 -1.33301 -96.334 -8.83301 -119.001 -22.5s-34 -36.834 -34 -69.501v-33h134v-174h-134v-525l-210 -61v586z" />
    <glyph glyph-name="uni01C4" unicode="&#x1c4;" horiz-adv-x="1400" 
d="M878 1004l203 -76l203 76v-136l-204 -76l-202 76v136zM781 170l323 390v11h-307v169h559v-167l-324 -393v-10h343v-170h-594v170zM279 -11c-36 0 -73.001 0.998047 -111.001 2.99805s-74.667 5.33301 -110 10v737c58 3.33301 106.5 6 145.5 8s73.833 3 104.5 3
c74 0 137.167 -7.16699 189.5 -21.5s95.333 -36.666 129 -66.999s58.167 -69.666 73.5 -117.999s23 -106.5 23 -174.5c0 -69.333 -8 -128 -24 -176s-41.667 -87.167 -77 -117.5s-81.166 -52.333 -137.499 -66s-124.833 -20.5 -205.5 -20.5zM361.999 158.998
c28 0 51.1689 3 69.502 9s32.666 16.833 42.999 32.5s17.666 37.167 21.999 64.5s6.5 62.333 6.5 105c0 41.333 -2.5 75.5 -7.5 102.5s-13.5 48.5 -25.5 64.5s-28.167 27.333 -48.5 34s-45.833 10 -76.5 10c-12 0 -23.5 -0.333008 -34.5 -1s-24.167 -2 -39.5 -4v-411
c32 -4 62.333 -6 91 -6z" />
    <glyph glyph-name="uni01C5" unicode="&#x1c5;" horiz-adv-x="1303" 
d="M830 814l203 -76l203 76v-136l-204 -76l-202 76v136zM785 136l225 241v9h-218v154h471v-136l-215 -240v-10h225v-154h-488v136zM279 -11c-36 0 -73.001 0.998047 -111.001 2.99805s-74.667 5.33301 -110 10v737c58 3.33301 106.5 6 145.5 8s73.833 3 104.5 3
c74 0 137.167 -7.16699 189.5 -21.5s95.333 -36.666 129 -66.999s58.167 -69.666 73.5 -117.999s23 -106.5 23 -174.5c0 -69.333 -8 -128 -24 -176s-41.667 -87.167 -77 -117.5s-81.166 -52.333 -137.499 -66s-124.833 -20.5 -205.5 -20.5zM361.999 158.998
c28 0 51.1689 3 69.502 9s32.666 16.833 42.999 32.5s17.666 37.167 21.999 64.5s6.5 62.333 6.5 105c0 41.333 -2.5 75.5 -7.5 102.5s-13.5 48.5 -25.5 64.5s-28.167 27.333 -48.5 34s-45.833 10 -76.5 10c-12 0 -23.5 -0.333008 -34.5 -1s-24.167 -2 -39.5 -4v-411
c32 -4 62.333 -6 91 -6z" />
    <glyph glyph-name="uni01C6" unicode="&#x1c6;" horiz-adv-x="1200" 
d="M726 814l203 -76l203 76v-136l-204 -76l-202 76v136zM681 136l225 241v9h-218v154h471v-136l-215 -240v-10h225v-154h-488v136zM239 -10c-141.333 0 -212.001 87.332 -212.001 261.999c0 99.333 26.333 173.833 79 223.5s127.334 74.5 224.001 74.5
c9.33301 0 18.833 -0.166992 28.5 -0.5s20.167 -1.16602 31.5 -2.49902v261h210v-808h-187l-14 63h-8c-33.333 -48.667 -84 -73 -152 -73zM309.999 139.999c14.667 0 27.167 2.16797 37.5 6.50098s18.666 11.833 24.999 22.5s10.833 24.834 13.5 42.501s4 40.167 4 67.5v121
c-8 3.33301 -17.667 5.66602 -29 6.99902s-23.666 2 -36.999 2c-18 0 -32.5 -1.66699 -43.5 -5s-19.667 -10 -26 -20s-10.5 -24 -12.5 -42s-3 -41.333 -3 -70c0 -27.333 1 -49.5 3 -66.5s5.5 -30.333 10.5 -40s12.167 -16.334 21.5 -20.001s21.333 -5.5 36 -5.5z" />
    <glyph glyph-name="uni01C7" unicode="&#x1c7;" horiz-adv-x="892" 
d="M547 -158c14 33.333 25.834 64.1641 35.501 92.4971s17.5 56.333 23.5 84s10.167 56 12.5 85s3.5 61.167 3.5 96.5v540h215v-558c0 -35.333 -2.66699 -68.666 -8 -99.999s-14 -62.666 -26 -93.999s-27.833 -63.666 -47.5 -96.999s-43.834 -69.333 -72.501 -108z
M58.001 739.998h215v-571h277v-169h-492v740z" />
    <glyph glyph-name="uni01C8" unicode="&#x1c8;" horiz-adv-x="868" 
d="M715 596c-40 0 -68.5 8.5 -85.5 25.5s-25.5 44.833 -25.5 83.5c0 38 8.5 65.667 25.5 83s45.5 26 85.5 26c40.667 0 69.667 -8.66699 87 -26s26 -45 26 -83c0 -37.333 -8.5 -64.833 -25.5 -82.5s-46.167 -26.5 -87.5 -26.5zM578 -192
c6 24.667 11.168 49.332 15.501 73.999s8 50.834 11 78.501s5.16699 57 6.5 88s2 65.5 2 103.5v34c0 16.667 -0.166992 36.5 -0.5 59.5s-0.5 48.167 -0.5 75.5s-0.166992 54.333 -0.5 81l-1 76.5c-0.333008 24.333 -0.5 44.833 -0.5 61.5h210v-471
c-3.33301 -49.333 -13.333 -99.5 -30 -150.5s-37.334 -97.167 -62.001 -138.5zM58.001 739.998h215v-571h277v-169h-492v740z" />
    <glyph glyph-name="uni01C9" unicode="&#x1c9;" horiz-adv-x="613" 
d="M460 596c-40 0 -68.5 8.5 -85.5 25.5s-25.5 44.833 -25.5 83.5c0 38 8.5 65.667 25.5 83s45.5 26 85.5 26c40.667 0 69.667 -8.66699 87 -26s26 -45 26 -83c0 -37.333 -8.5 -64.833 -25.5 -82.5s-46.167 -26.5 -87.5 -26.5zM323 -192
c6 24.667 11.168 49.332 15.501 73.999s8 50.834 11 78.501s5.16699 57 6.5 88s2 65.5 2 103.5v34c0 16.667 -0.166992 36.5 -0.5 59.5s-0.5 48.167 -0.5 75.5s-0.166992 54.333 -0.5 81l-1 76.5c-0.333008 24.333 -0.5 44.833 -0.5 61.5h210v-471
c-3.33301 -49.333 -13.333 -99.5 -30 -150.5s-37.334 -97.167 -62.001 -138.5zM49.001 807.998h210v-808h-210v808z" />
    <glyph glyph-name="uni01CA" unicode="&#x1ca;" horiz-adv-x="1116" 
d="M771 -158c14 33.333 25.834 64.1641 35.501 92.4971s17.5 56.333 23.5 84s10.167 56 12.5 85s3.5 61.167 3.5 96.5v540h215v-558c0 -35.333 -2.66699 -68.666 -8 -99.999s-14 -62.666 -26 -93.999s-27.833 -63.666 -47.5 -96.999s-43.834 -69.333 -72.501 -108z
M58.001 739.998h171l250 -325l52 -80h10v405h187v-740h-170l-245 320l-58 87h-10v-407h-187v740z" />
    <glyph glyph-name="uni01CB" unicode="&#x1cb;" horiz-adv-x="1092" 
d="M939 596c-40 0 -68.5 8.5 -85.5 25.5s-25.5 44.833 -25.5 83.5c0 38 8.5 65.667 25.5 83s45.5 26 85.5 26c40.667 0 69.667 -8.66699 87 -26s26 -45 26 -83c0 -37.333 -8.5 -64.833 -25.5 -82.5s-46.167 -26.5 -87.5 -26.5zM802 -192
c6 24.667 11.168 49.332 15.501 73.999s8 50.834 11 78.501s5.16699 57 6.5 88s2 65.5 2 103.5v34c0 16.667 -0.166992 36.5 -0.5 59.5s-0.5 48.167 -0.5 75.5s-0.166992 54.333 -0.5 81l-1 76.5c-0.333008 24.333 -0.5 44.833 -0.5 61.5h210v-471
c-3.33301 -49.333 -13.333 -99.5 -30 -150.5s-37.334 -97.167 -62.001 -138.5zM58.001 739.998h171l250 -325l52 -80h10v405h187v-740h-170l-245 320l-58 87h-10v-407h-187v740z" />
    <glyph glyph-name="uni01CC" unicode="&#x1cc;" horiz-adv-x="954" 
d="M801 596c-40 0 -68.5 8.5 -85.5 25.5s-25.5 44.833 -25.5 83.5c0 38 8.5 65.667 25.5 83s45.5 26 85.5 26c40.667 0 69.667 -8.66699 87 -26s26 -45 26 -83c0 -37.333 -8.5 -64.833 -25.5 -82.5s-46.167 -26.5 -87.5 -26.5zM664 -192
c6 24.667 11.168 49.332 15.501 73.999s8 50.834 11 78.501s5.16699 57 6.5 88s2 65.5 2 103.5v34c0 16.667 -0.166992 36.5 -0.5 59.5s-0.5 48.167 -0.5 75.5s-0.166992 54.333 -0.5 81l-1 76.5c-0.333008 24.333 -0.5 44.833 -0.5 61.5h210v-471
c-3.33301 -49.333 -13.333 -99.5 -30 -150.5s-37.334 -97.167 -62.001 -138.5zM49.001 539.998h176.999l10 -60h7c47.333 26 87 44.167 119 54.5s62.667 15.5 92 15.5c45.333 0 81.333 -13.5 108 -40.5s40 -63.167 40 -108.5v-401h-210v328
c0 19.333 -3.66699 33.166 -11 41.499s-17.666 12.5 -30.999 12.5c-12 0 -26.333 -2.16699 -43 -6.5s-32.667 -9.16602 -48 -14.499v-361h-210v540z" />
    <glyph glyph-name="Oogonek" unicode="&#x1ea;" horiz-adv-x="777" 
d="M398 -215c-50 0 -88.334 8.49707 -115.001 25.4971s-40 41.833 -40 74.5c0 40.667 21.667 77.667 65 111c-186.667 26 -280 150.333 -280 373c0 126.667 30 221.834 90 285.501s149.667 95.5 269 95.5c120 0 210 -31.667 270 -95s90 -158.666 90 -285.999
c0 -212.667 -85 -335.667 -255 -369c-44.667 -17.333 -75.167 -33.166 -91.5 -47.499s-24.5 -26.833 -24.5 -37.5c0 -12.667 10 -19 30 -19c10.667 0 24.5 1.5 41.5 4.5s32.5 6.5 46.5 10.5v-114c-16 -4 -31.667 -7 -47 -9s-31.666 -3 -48.999 -3zM386.999 161.997
c27.333 0 50.0029 3.00098 68.0029 9.00098s32.333 16.833 43 32.5s18.167 36.834 22.5 63.501s6.5 60.667 6.5 102c0 40.667 -2.16699 74.5 -6.5 101.5s-12 48.5 -23 64.5s-25.5 27.333 -43.5 34s-40.333 10 -67 10s-48.834 -3.33301 -66.501 -10s-31.834 -18 -42.501 -34
s-18.334 -37.5 -23.001 -64.5s-7 -60.833 -7 -101.5s2.16699 -74.334 6.5 -101.001s11.833 -47.834 22.5 -63.501s25 -26.667 43 -33s40.333 -9.5 67 -9.5z" />
    <glyph glyph-name="oogonek" unicode="&#x1eb;" horiz-adv-x="638" 
d="M336 -210c-50 0 -88.334 8.49902 -115.001 25.499s-40 41.833 -40 74.5c0 38 19.333 73.333 58 106c-70 12 -123 41 -159 87s-54 108.333 -54 187c0 92 24.833 161.667 74.5 209s122.5 71 218.5 71s168.833 -23.667 218.5 -71s74.5 -117 74.5 -209
c0 -75.333 -16.667 -135.666 -50 -180.999s-82.333 -75.333 -147 -90c-38.667 -16 -65.167 -30.667 -79.5 -44s-21.5 -25 -21.5 -35c0 -12.667 10 -19 30 -19c10.667 0 24.5 1.5 41.5 4.5s32.5 6.5 46.5 10.5v-114c-16 -4 -31.667 -7 -47 -9s-31.666 -3 -48.999 -3z
M318.999 146.999c16.667 0 30.334 1.5 41.001 4.5s19.167 9 25.5 18s10.666 21.5 12.999 37.5s3.5 37 3.5 63s-1.16699 47 -3.5 63s-6.66602 28.333 -12.999 37s-14.833 14.5 -25.5 17.5s-24.334 4.5 -41.001 4.5s-30.334 -1.5 -41.001 -4.5s-19.167 -9 -25.5 -18
s-10.666 -21.333 -12.999 -37s-3.5 -36.5 -3.5 -62.5s1.16699 -47 3.5 -63s6.66602 -28.5 12.999 -37.5s14.833 -15 25.5 -18s24.334 -4.5 41.001 -4.5z" />
    <glyph glyph-name="uni01F1" unicode="&#x1f1;" horiz-adv-x="1391" 
d="M772 170l323 390v11h-307v169h559v-167l-324 -393v-10h343v-170h-594v170zM279 -11c-36 0 -73.001 0.998047 -111.001 2.99805s-74.667 5.33301 -110 10v737c58 3.33301 106.5 6 145.5 8s73.833 3 104.5 3c74 0 137.167 -7.16699 189.5 -21.5s95.333 -36.666 129 -66.999
s58.167 -69.666 73.5 -117.999s23 -106.5 23 -174.5c0 -69.333 -8 -128 -24 -176s-41.667 -87.167 -77 -117.5s-81.166 -52.333 -137.499 -66s-124.833 -20.5 -205.5 -20.5zM361.999 158.998c28 0 51.1689 3 69.502 9s32.666 16.833 42.999 32.5s17.666 37.167 21.999 64.5
s6.5 62.333 6.5 105c0 41.333 -2.5 75.5 -7.5 102.5s-13.5 48.5 -25.5 64.5s-28.167 27.333 -48.5 34s-45.833 10 -76.5 10c-12 0 -23.5 -0.333008 -34.5 -1s-24.167 -2 -39.5 -4v-411c32 -4 62.333 -6 91 -6z" />
    <glyph glyph-name="uni01F2" unicode="&#x1f2;" horiz-adv-x="1303" 
d="M785 136l225 241v9h-218v154h471v-136l-215 -240v-10h225v-154h-488v136zM279 -11c-36 0 -73.001 0.998047 -111.001 2.99805s-74.667 5.33301 -110 10v737c58 3.33301 106.5 6 145.5 8s73.833 3 104.5 3c74 0 137.167 -7.16699 189.5 -21.5s95.333 -36.666 129 -66.999
s58.167 -69.666 73.5 -117.999s23 -106.5 23 -174.5c0 -69.333 -8 -128 -24 -176s-41.667 -87.167 -77 -117.5s-81.166 -52.333 -137.499 -66s-124.833 -20.5 -205.5 -20.5zM361.999 158.998c28 0 51.1689 3 69.502 9s32.666 16.833 42.999 32.5s17.666 37.167 21.999 64.5
s6.5 62.333 6.5 105c0 41.333 -2.5 75.5 -7.5 102.5s-13.5 48.5 -25.5 64.5s-28.167 27.333 -48.5 34s-45.833 10 -76.5 10c-12 0 -23.5 -0.333008 -34.5 -1s-24.167 -2 -39.5 -4v-411c32 -4 62.333 -6 91 -6z" />
    <glyph glyph-name="uni01F3" unicode="&#x1f3;" horiz-adv-x="1200" 
d="M681 136l225 241v9h-218v154h471v-136l-215 -240v-10h225v-154h-488v136zM239 -10c-141.333 0 -212.001 87.332 -212.001 261.999c0 99.333 26.333 173.833 79 223.5s127.334 74.5 224.001 74.5c9.33301 0 18.833 -0.166992 28.5 -0.5s20.167 -1.16602 31.5 -2.49902v261
h210v-808h-187l-14 63h-8c-33.333 -48.667 -84 -73 -152 -73zM309.999 139.999c14.667 0 27.167 2.16797 37.5 6.50098s18.666 11.833 24.999 22.5s10.833 24.834 13.5 42.501s4 40.167 4 67.5v121c-8 3.33301 -17.667 5.66602 -29 6.99902s-23.666 2 -36.999 2
c-18 0 -32.5 -1.66699 -43.5 -5s-19.667 -10 -26 -20s-10.5 -24 -12.5 -42s-3 -41.333 -3 -70c0 -27.333 1 -49.5 3 -66.5s5.5 -30.333 10.5 -40s12.167 -16.334 21.5 -20.001s21.333 -5.5 36 -5.5z" />
    <glyph glyph-name="Gacute" unicode="&#x1f4;" horiz-adv-x="684" 
d="M284 809l63 189h215l-128 -199zM393 -12c-123.333 0 -214.834 31.333 -274.501 94s-89.5 158.667 -89.5 288c0 254.667 131.333 382 394 382c34 0 69.667 -2 107 -6s71 -9.66699 101 -17v-170c-41.333 6.66699 -77.833 11.667 -109.5 15s-58.5 5 -80.5 5
c-38.667 0 -70.334 -3 -95.001 -9s-44.167 -17 -58.5 -33s-24.166 -37.5 -29.499 -64.5s-8 -61.5 -8 -103.5s2.16699 -76.333 6.5 -103s12.333 -47.667 24 -63s27.834 -25.833 48.501 -31.5s47 -8.5 79 -8.5h19c6.66699 0 13.667 0.333008 21 1v212h195v-356
c-46.667 -9.33301 -91.5 -17 -134.5 -23s-81.5 -9 -115.5 -9z" />
    <glyph glyph-name="gacute" unicode="&#x1f5;" horiz-adv-x="648" 
d="M257 619l63 189h215l-128 -199zM283 -220c-36.667 0 -74.8311 1.83398 -114.498 5.50098s-74.5 9.16699 -104.5 16.5l13 148c25.333 -4.66699 52.833 -8.83398 82.5 -12.501s58.834 -5.5 87.501 -5.5c22.667 0 43.667 1.83301 63 5.5s35.666 10 48.999 19
s23.833 20.833 31.5 35.5s11.5 33 11.5 55v50h-7c-16.667 -25.333 -37.834 -44 -63.501 -56s-55.5 -18 -89.5 -18c-142.667 0 -214 79 -214 237c0 96 26.5 168.333 79.5 217s127.5 73 223.5 73c16 0 32.5 -0.666992 49.5 -2s36 -3.83301 57 -7.5s44.667 -8.5 71 -14.5
s57.166 -14 92.499 -24v-427c0 -52 -8 -96.667 -24 -134s-38.167 -67.833 -66.5 -91.5s-61.833 -41.167 -100.5 -52.5s-81 -17 -127 -17zM311.003 167.001c15.333 0 28.166 2.16895 38.499 6.50195s18.5 11.833 24.5 22.5s10.333 24.5 13 41.5s4 38.167 4 63.5v99
c-8 3.33301 -17.667 5.66602 -29 6.99902s-23.666 2 -36.999 2c-18 0 -32.5 -1.5 -43.5 -4.5s-19.667 -9.16699 -26 -18.5s-10.5 -22.5 -12.5 -39.5s-3 -39.5 -3 -67.5c0 -22.667 1 -41.334 3 -56.001s5.5 -26.167 10.5 -34.5s12.167 -14 21.5 -17s21.333 -4.5 36 -4.5z" />
    <glyph glyph-name="Aringacute" unicode="&#x1fa;" horiz-adv-x="734" 
d="M-5 10l200.001 669.999c-16 22.667 -24 49.334 -24 80.001c0 39.333 12.5 72.166 37.5 98.499s59.167 43.5 102.5 51.5l40 120h215l-89 -138c28 -13.333 49.833 -31.166 65.5 -53.499s23.5 -48.5 23.5 -78.5c0 -15.333 -2.33301 -30 -7 -44s-11.334 -26.667 -20.001 -38
l200 -668v-10h-206l-41 149h-251l-40 -149h-206v10zM367.001 698.999c24 0 43.333 5.66699 58 17s22 26 22 44c0 18.667 -7.33301 33.5 -22 44.5s-34 16.5 -58 16.5c-23.333 0 -42 -5.5 -56 -16.5s-21 -25.833 -21 -44.5s7 -33.5 21 -44.5s32.667 -16.5 56 -16.5z
M444.001 322.999l-32 128l-36 140h-18l-37 -141l-32 -127h155z" />
    <glyph glyph-name="aringacute" unicode="&#x1fb;" horiz-adv-x="590" 
d="M184 -5c-52 0 -92.1641 14.833 -120.497 44.5s-42.5 69.5 -42.5 119.5c0 109.333 67.667 167.333 203 174l112 6c-0.666992 12 -2.33398 22 -5.00098 30s-7.33398 14.333 -14.001 19s-15.834 8 -27.501 10s-26.5 3 -44.5 3c-11.333 0 -24.333 -0.5 -39 -1.5
s-30 -2.16699 -46 -3.5s-31.667 -3.16602 -47 -5.49902s-29 -4.5 -41 -6.5l-13 144c38 6.66699 75.5 11.667 112.5 15s71.833 5 104.5 5c92.667 0 160.834 -14.833 204.501 -44.5s65.5 -75.834 65.5 -138.501v-365h-173l-17 65h-10c-20 -23.333 -44.333 -40.833 -73 -52.5
s-58.334 -17.5 -89.001 -17.5zM299.003 584c-20 0 -38.5 2.83301 -55.5 8.5s-31.5 13.667 -43.5 24s-21.5 22.666 -28.5 36.999s-10.5 30.166 -10.5 47.499c0 28 8 51.5 24 70.5s38 32.167 66 39.5l56 169h215l-125 -194c12.667 -10 22.5 -22.333 29.5 -37
s10.5 -30.667 10.5 -48s-3.5 -33.166 -10.5 -47.499s-16.5 -26.666 -28.5 -36.999s-26.5 -18.333 -43.5 -24s-35.5 -8.5 -55.5 -8.5zM299.003 651c37.333 0 56 16.667 56 50s-18.667 50 -56 50s-56 -16.667 -56 -50s18.667 -50 56 -50zM274.003 138
c11.333 0 22.832 2.16797 34.499 6.50098s20.834 9.16602 27.501 14.499v72l-52 -5c-19.333 -2 -32.833 -6.16699 -40.5 -12.5s-11.5 -16.833 -11.5 -31.5c0 -29.333 14 -44 42 -44z" />
    <glyph glyph-name="AEacute" unicode="&#x1fc;" horiz-adv-x="984" 
d="M456 809l63 189h215l-128 -199zM-9 9l268 731h677v-169h-283l8 -116h266v-169h-253l9 -117h268v-169h-479l-6 149h-208l-53 -149h-214v9zM321 323h138l-11 265h-32z" />
    <glyph glyph-name="aeacute" unicode="&#x1fd;" horiz-adv-x="899" 
d="M381 619l63 189h215l-128 -199zM624 -13c-95.333 0 -163.664 28.668 -204.997 86.001h-10c-36.667 -26 -74.167 -45.5 -112.5 -58.5s-76.5 -19.5 -114.5 -19.5c-50 0 -89.167 14.833 -117.5 44.5s-42.5 70.167 -42.5 121.5c0 106.667 67.667 164 203 172l111 6v9
c0 11.333 -1.66699 20.333 -5 27s-8.83301 11.834 -16.5 15.501s-18 6.16699 -31 7.5s-29.833 2 -50.5 2c-10 0 -21.833 -0.333008 -35.5 -1s-27.834 -1.83398 -42.501 -3.50098s-29.334 -3.5 -44.001 -5.5s-27.334 -4 -38.001 -6l-13 144
c40 7.33301 78.167 12.5 114.5 15.5s72.166 4.5 107.499 4.5c74.667 0 130 -16 166 -48h10c44 30.667 100.333 46 169 46c82.667 0 144 -20.333 184 -61s60 -103.334 60 -188.001c0 -20 -0.666992 -36.5 -2 -49.5s-3.66602 -25.5 -6.99902 -37.5h-313
c1.33301 -14 3.83301 -25.333 7.5 -34s9 -15.5 16 -20.5s16 -8.33301 27 -10s24.833 -2.5 41.5 -2.5c14 0 29.667 0.666992 47 2s35 3 53 5s36 4.5 54 7.5s34.667 6.16699 50 9.5l5 -148c-32 -10 -68.167 -17.833 -108.5 -23.5s-79.5 -8.5 -117.5 -8.5zM275.002 138.001
c10.667 0 22 2.16797 34 6.50098s21 9.16602 27 14.499v72l-51 -5c-19.333 -2 -32.833 -6.33301 -40.5 -13s-11.5 -16.667 -11.5 -30c0 -30 14 -45 42 -45zM687.002 318.002c-1.33301 30 -7.00098 51.167 -17.001 63.5s-27.333 18.5 -52 18.5
c-23.333 0 -40.166 -5.83301 -50.499 -17.5s-16.833 -33.167 -19.5 -64.5h139z" />
    <glyph glyph-name="Oslashacute" unicode="&#x1fe;" horiz-adv-x="779" 
d="M98 113c-45.333 62.667 -68.001 147.999 -68.001 255.999c0 126.667 30 221.834 90 285.501s149.667 95.5 269 95.5c84 0 153 -16 207 -48l32 38h150l-97 -114c45.333 -63.333 68 -149 68 -257c0 -126 -30 -220.667 -90 -284s-150 -95 -270 -95
c-83.333 0 -151.666 15.333 -204.999 46l-31 -36h-151zM249.999 368.999c0 -28 1.00293 -52.333 3.00293 -73l222 263c-20 13.333 -48.667 20 -86 20c-26.667 0 -48.834 -3.33301 -66.501 -10s-31.834 -18 -42.501 -34s-18.334 -37.5 -23.001 -64.5s-7 -60.833 -7 -101.5z
M389.002 161.999c27.333 0 50 2.99902 68 8.99902s32.333 16.833 43 32.5s18.167 36.834 22.5 63.501s6.5 60.667 6.5 102c0 26.667 -1 51 -3 73l-221 -262c18.667 -12 46.667 -18 84 -18zM306.002 808.998l63 189h215l-128 -199z" />
    <glyph glyph-name="oslashacute" unicode="&#x1ff;" horiz-adv-x="645" 
d="M80 90c-32.667 45.333 -49 105.333 -49 180c0 88 23.833 156.667 71.5 206s121.167 74 220.5 74c68 0 125 -12.333 171 -37l26 27h133l-87 -89c33.333 -46.667 50 -107 50 -181c0 -88.667 -24.167 -157.667 -72.5 -207s-121.833 -74 -220.5 -74
c-68.667 0 -125.667 12.333 -171 37l-26 -26h-134zM323 147c20 0 35.501 1.83301 46.501 5.5s19.167 10.167 24.5 19.5s8.66602 22 9.99902 38s2 36 2 60v17l-131 -134c12 -4 28 -6 48 -6zM241.001 254l129 132.001c-12 4 -27.667 6 -47 6c-20 0 -35.5 -1.83301 -46.5 -5.5
s-19.167 -10 -24.5 -19s-8.5 -21.333 -9.5 -37s-1.5 -35.834 -1.5 -60.501v-16zM243.001 619.001l63 189h215l-128 -199z" />
    <glyph glyph-name="Adblgrave" unicode="&#x200;" horiz-adv-x="735" 
d="M-5 10l212 730h321l211 -730v-10h-205l-43 154h-248l-42 -154h-206v10zM446 319l-33 132l-38 140h-16l-37 -141l-34 -131h158zM188 799l-128 199h194l62 -189zM413 799l-128 199h194l63 -189z" />
    <glyph glyph-name="adblgrave" unicode="&#x201;" horiz-adv-x="590" 
d="M184 -5c-52 0 -92.1641 14.833 -120.497 44.5s-42.5 69.5 -42.5 119.5c0 109.333 67.667 167.333 203 174l112 6c-0.666992 12 -2.33398 22 -5.00098 30s-7.33398 14.333 -14.001 19s-15.834 8 -27.501 10s-26.5 3 -44.5 3c-11.333 0 -24.333 -0.5 -39 -1.5
s-30 -2.16699 -46 -3.5s-31.667 -3.16602 -47 -5.49902s-29 -4.5 -41 -6.5l-13 144c38 6.66699 75.5 11.667 112.5 15s71.833 5 104.5 5c92.667 0 160.834 -14.833 204.501 -44.5s65.5 -75.834 65.5 -138.501v-365h-173l-17 65h-10c-20 -23.333 -44.333 -40.833 -73 -52.5
s-58.334 -17.5 -89.001 -17.5zM274.003 138c11.333 0 22.832 2.16797 34.499 6.50098s20.834 9.16602 27.501 14.499v72l-52 -5c-19.333 -2 -32.833 -6.16699 -40.5 -12.5s-11.5 -16.833 -11.5 -31.5c0 -29.333 14 -44 42 -44zM136.002 609.001l-128 199h194l62 -189z
M361.002 609.001l-128 199h194l63 -189z" />
    <glyph glyph-name="Ainvertedbreve" unicode="&#x202;" horiz-adv-x="735" 
d="M-5 10l212 730h321l211 -730v-10h-205l-43 154h-248l-42 -154h-206v10zM446 319l-33 132l-38 140h-16l-37 -141l-34 -131h158zM453 811c0 32.667 -5.66797 56.5 -17.001 71.5s-33.666 22.5 -66.999 22.5c-34 0 -56.667 -7.33301 -68 -22s-17 -38.667 -17 -72h-138
c0 28 4 53.5 12 76.5s20.833 43 38.5 60s40.667 30.167 69 39.5s62.833 14 103.5 14c40 0 74 -4.66699 102 -14s51 -22.333 69 -39s31 -36.667 39 -60s12 -49 12 -77h-138z" />
    <glyph glyph-name="ainvertedbreve" unicode="&#x203;" horiz-adv-x="590" 
d="M184 -5c-52 0 -92.1641 14.833 -120.497 44.5s-42.5 69.5 -42.5 119.5c0 109.333 67.667 167.333 203 174l112 6c-0.666992 12 -2.33398 22 -5.00098 30s-7.33398 14.333 -14.001 19s-15.834 8 -27.501 10s-26.5 3 -44.5 3c-11.333 0 -24.333 -0.5 -39 -1.5
s-30 -2.16699 -46 -3.5s-31.667 -3.16602 -47 -5.49902s-29 -4.5 -41 -6.5l-13 144c38 6.66699 75.5 11.667 112.5 15s71.833 5 104.5 5c92.667 0 160.834 -14.833 204.501 -44.5s65.5 -75.834 65.5 -138.501v-365h-173l-17 65h-10c-20 -23.333 -44.333 -40.833 -73 -52.5
s-58.334 -17.5 -89.001 -17.5zM274.003 138c11.333 0 22.832 2.16797 34.499 6.50098s20.834 9.16602 27.501 14.499v72l-52 -5c-19.333 -2 -32.833 -6.16699 -40.5 -12.5s-11.5 -16.833 -11.5 -31.5c0 -29.333 14 -44 42 -44zM80.002 621.001
c0.666992 26.667 5.16895 51.165 13.502 73.498s21.333 41.333 39 57s40.5 27.834 68.5 36.501s61.667 13 101 13s72.833 -4.16699 100.5 -12.5s50.334 -20.333 68.001 -36s30.667 -34.667 39 -57s13.166 -47.166 14.499 -74.499h-138
c-0.666992 27.333 -7.16699 47.333 -19.5 60s-33.833 19 -64.5 19s-52.334 -6.33301 -65.001 -19s-19.334 -32.667 -20.001 -60h-137z" />
    <glyph glyph-name="Edblgrave" unicode="&#x204;" horiz-adv-x="642" 
d="M58 740h543v-169h-328v-116h293v-169h-293v-117h338v-169h-553v740zM157 799l-128 199h194l62 -189zM382 799l-128 199h194l63 -189z" />
    <glyph glyph-name="edblgrave" unicode="&#x205;" horiz-adv-x="585" 
d="M124 609l-128 199h194l62 -189zM349 609l-128 199h194l63 -189zM311 -9c-189.333 0 -284.001 92.001 -284.001 276.001c0 188 95.667 282 287 282c82.667 0 144 -20.167 184 -60.5s60 -102.833 60 -187.5c0 -18.667 -0.666992 -34.667 -2 -48
s-3.66602 -26.666 -6.99902 -39.999h-313c1.33301 -14.667 3.83301 -26.334 7.5 -35.001s9 -15.334 16 -20.001s16.167 -7.66699 27.5 -9s25 -2 41 -2c14 0 29.5 0.666992 46.5 2s34.667 3 53 5s36.5 4.33301 54.5 7s34.667 5.66699 50 9l5 -148
c-32 -9.33301 -68.167 -16.833 -108.5 -22.5s-79.5 -8.5 -117.5 -8.5zM304.999 403.001c-23.333 0 -40.168 -5.66699 -50.501 -17s-16.833 -33 -19.5 -65h139c-1.33301 30.667 -7.16602 52 -17.499 64s-27.5 18 -51.5 18z" />
    <glyph glyph-name="Einvertedbreve" unicode="&#x206;" horiz-adv-x="642" 
d="M58 740h543v-169h-328v-116h293v-169h-293v-117h338v-169h-553v740zM418 811c0 32.667 -5.66797 56.5 -17.001 71.5s-33.666 22.5 -66.999 22.5c-34 0 -56.667 -7.33301 -68 -22s-17 -38.667 -17 -72h-138c0 28 4 53.5 12 76.5s20.833 43 38.5 60s40.667 30.167 69 39.5
s62.833 14 103.5 14c40 0 74 -4.66699 102 -14s51 -22.333 69 -39s31 -36.667 39 -60s12 -49 12 -77h-138z" />
    <glyph glyph-name="einvertedbreve" unicode="&#x207;" horiz-adv-x="585" 
d="M80 621c0.666992 26.667 5.16895 51.165 13.502 73.498s21.333 41.333 39 57s40.5 27.834 68.5 36.501s61.667 13 101 13s72.833 -4.16699 100.5 -12.5s50.334 -20.333 68.001 -36s30.667 -34.667 39 -57s13.166 -47.166 14.499 -74.499h-138
c-0.666992 27.333 -7.16699 47.333 -19.5 60s-33.833 19 -64.5 19s-52.334 -6.33301 -65.001 -19s-19.334 -32.667 -20.001 -60h-137zM311.002 -9.00195c-189.333 0 -284.001 92.001 -284.001 276.001c0 188 95.667 282 287 282c82.667 0 144 -20.167 184 -60.5
s60 -102.833 60 -187.5c0 -18.667 -0.666992 -34.667 -2 -48s-3.66602 -26.666 -6.99902 -39.999h-313c1.33301 -14.667 3.83301 -26.334 7.5 -35.001s9 -15.334 16 -20.001s16.167 -7.66699 27.5 -9s25 -2 41 -2c14 0 29.5 0.666992 46.5 2s34.667 3 53 5
s36.5 4.33301 54.5 7s34.667 5.66699 50 9l5 -148c-32 -9.33301 -68.167 -16.833 -108.5 -22.5s-79.5 -8.5 -117.5 -8.5zM305.001 402.999c-23.333 0 -40.168 -5.66699 -50.501 -17s-16.833 -33 -19.5 -65h139c-1.33301 30.667 -7.16602 52 -17.499 64s-27.5 18 -51.5 18z
" />
    <glyph glyph-name="Idblgrave" unicode="&#x208;" horiz-adv-x="330" 
d="M58 740h215v-740h-215v740zM3 799l-128 199h194l62 -189zM228 799l-128 199h194l63 -189z" />
    <glyph glyph-name="idblgrave" unicode="&#x209;" horiz-adv-x="309" 
d="M-17 609l-128 199h194l62 -189zM208 609l-128 199h194l63 -189zM50 540h210v-540h-210v540z" />
    <glyph glyph-name="Iinvertedbreve" unicode="&#x20a;" horiz-adv-x="330" 
d="M58 740h215v-740h-215v740zM252 811c0 32.667 -5.66797 56.5 -17.001 71.5s-33.666 22.5 -66.999 22.5c-34 0 -56.667 -7.33301 -68 -22s-17 -38.667 -17 -72h-138c0 28 4 53.5 12 76.5s20.833 43 38.5 60s40.667 30.167 69 39.5s62.833 14 103.5 14
c40 0 74 -4.66699 102 -14s51 -22.333 69 -39s31 -36.667 39 -60s12 -49 12 -77h-138z" />
    <glyph glyph-name="iinvertedbreve" unicode="&#x20b;" horiz-adv-x="309" 
d="M-25 621c0.666992 26.667 4.66797 51.165 12.001 73.498s18.5 41.333 33.5 57s34.167 27.834 57.5 36.501s51.333 13 84 13s60.5 -4.16699 83.5 -12.5s42 -20.333 57 -36s26.167 -34.667 33.5 -57s11.666 -47.166 12.999 -74.499h-118c-0.666992 27.333 -6 47.333 -16 60
s-27.667 19 -53 19s-43 -6.33301 -53 -19s-15.333 -32.667 -16 -60h-118zM50.001 539.998h210v-540h-210v540z" />
    <glyph glyph-name="Odblgrave" unicode="&#x20c;" horiz-adv-x="777" 
d="M388 -10c-118.667 0 -208.167 31.665 -268.5 94.998s-90.5 158 -90.5 284c0 126.667 30 221.834 90 285.501s149.667 95.5 269 95.5c120 0 210 -31.667 270 -95s90 -158.666 90 -285.999c0 -126 -30 -220.667 -90 -284s-150 -95 -270 -95zM388 161.998
c27.333 0 50.0029 3.00098 68.0029 9.00098s32.333 16.833 43 32.5s18.167 36.834 22.5 63.501s6.5 60.667 6.5 102c0 40.667 -2.16699 74.5 -6.5 101.5s-12 48.5 -23 64.5s-25.5 27.333 -43.5 34s-40.333 10 -67 10s-48.834 -3.33301 -66.501 -10s-31.834 -18 -42.501 -34
s-18.334 -37.5 -23.001 -64.5s-7 -60.833 -7 -101.5s2.16699 -74.334 6.5 -101.001s11.833 -47.834 22.5 -63.501s25 -26.667 43 -33s40.333 -9.5 67 -9.5zM214.003 798.999l-128 199h194l62 -189zM439.003 798.999l-128 199h194l63 -189z" />
    <glyph glyph-name="odblgrave" unicode="&#x20d;" horiz-adv-x="638" 
d="M143 609l-128 199h194l62 -189zM368 609l-128 199h194l63 -189zM319 -11c-96 0 -168.833 23.833 -218.5 71.5s-74.5 117.5 -74.5 209.5s24.833 161.667 74.5 209s122.5 71 218.5 71s168.833 -23.667 218.5 -71s74.5 -117 74.5 -209s-24.833 -161.833 -74.5 -209.5
s-122.5 -71.5 -218.5 -71.5zM319 147c16.667 0 30.334 1.5 41.001 4.5s19.167 9 25.5 18s10.666 21.5 12.999 37.5s3.5 37 3.5 63s-1.16699 47 -3.5 63s-6.66602 28.333 -12.999 37s-14.833 14.5 -25.5 17.5s-24.334 4.5 -41.001 4.5s-30.334 -1.5 -41.001 -4.5
s-19.167 -9 -25.5 -18s-10.666 -21.333 -12.999 -37s-3.5 -36.5 -3.5 -62.5s1.16699 -47 3.5 -63s6.66602 -28.5 12.999 -37.5s14.833 -15 25.5 -18s24.334 -4.5 41.001 -4.5z" />
    </font>
</defs>
</svg>
