<?xml version="1.0" standalone="no"?>
<!DOCTYPE svg PUBLIC "-//W3C//DTD SVG 1.1//EN" "http://www.w3.org/Graphics/SVG/1.1/DTD/svg11.dtd" >
<svg>
<metadata>
Created by FontForge 20090914 at Sat Aug  6 10:33:55 2016
 By www-data
Copyright (c) 2012, Impallari Type (www.impallari.com), with Reserved Font Name Encode Sans.
</metadata>
<defs>
<font id="EncodeSansNarrow-ExtraLight" horiz-adv-x="521" >
  <font-face 
    font-family="Encode Sans Narrow"
    font-weight="200"
    font-stretch="normal"
    units-per-em="1000"
    panose-1="2 0 0 0 0 0 0 0 0 0"
    ascent="800"
    descent="-200"
    x-height="540"
    cap-height="740"
    bbox="-82 -220.002 1458 1030"
    underline-thickness="55"
    underline-position="-57"
    unicode-range="U+000D-U+FB04"
  />
<missing-glyph horiz-adv-x="701" 
d="M99 1030h501v-1250h-501v1250zM551 -172v1155h-403v-1155h403z" />
    <glyph glyph-name="f_f" unicode="ff" horiz-adv-x="624" 
d="M118 495l-102.001 -0.00195312v45h103v33c0 45.333 2.83301 82.833 8.5 112.5s16 53.334 31 71.001s35.5 30.5 61.5 38.5s59.333 13.333 100 16l2 -40c-32 -2.66699 -58.167 -7 -78.5 -13s-36.166 -15.5 -47.499 -28.5s-19 -30.667 -23 -53s-6 -51.166 -6 -86.499v-50
h128v-45h-128v-495h-49v495zM432.999 494.998l-102.001 -0.00195312v45h103v33c0 45.333 2.83301 82.833 8.5 112.5s16 53.334 31 71.001s35.5 30.5 61.5 38.5s59.333 13.333 100 16l2 -40c-32 -2.66699 -58.167 -7 -78.5 -13s-36.166 -15.5 -47.499 -28.5
s-19 -30.667 -23 -53s-6 -51.166 -6 -86.499v-50h128v-45h-128v-495h-49v495z" />
    <glyph glyph-name="f_i" unicode="fi" horiz-adv-x="531" 
d="M429 671c-24 0 -36 12 -36 36s12 36 36 36c24.667 0 37 -12 37 -36s-12.333 -36 -37 -36zM404 540h49v-540h-49v540zM118 495l-102.001 -0.00195312v45h103v33c0 45.333 2.83301 82.833 8.5 112.5s16 53.334 31 71.001s35.5 30.5 61.5 38.5s59.333 13.333 100 16l2 -40
c-32 -2.66699 -58.167 -7 -78.5 -13s-36.166 -15.5 -47.499 -28.5s-19 -30.667 -23 -53s-6 -51.166 -6 -86.499v-50h128v-45h-128v-495h-49v495z" />
    <glyph glyph-name="f_l" unicode="fl" horiz-adv-x="533" 
d="M118 495l-102.001 -0.00195312v45h103v33c0 45.333 2.83301 82.833 8.5 112.5s16 53.334 31 71.001s35.5 30.5 61.5 38.5s59.333 13.333 100 16l2 -40c-32 -2.66699 -58.167 -7 -78.5 -13s-36.166 -15.5 -47.499 -28.5s-19 -30.667 -23 -53s-6 -51.166 -6 -86.499v-50
h128v-45h-128v-495h-49v495zM403.999 807.998h49v-808h-49v808z" />
    <glyph glyph-name="f_f_i" unicode="ffi" horiz-adv-x="845" 
d="M743 671c-24 0 -36 12 -36 36s12 36 36 36c24.667 0 37 -12 37 -36s-12.333 -36 -37 -36zM718 540h49v-540h-49v540zM433 495l-102.001 -0.00195312v45h103v33c0 45.333 2.83301 82.833 8.5 112.5s16 53.334 31 71.001s35.5 30.5 61.5 38.5s59.333 13.333 100 16l2 -40
c-32 -2.66699 -58.167 -7 -78.5 -13s-36.166 -15.5 -47.499 -28.5s-19 -30.667 -23 -53s-6 -51.166 -6 -86.499v-50h128v-45h-128v-495h-49v495zM117.999 494.998l-102.001 -0.00195312v45h103v33c0 45.333 2.83301 82.833 8.5 112.5s16 53.334 31 71.001
s35.5 30.5 61.5 38.5s59.333 13.333 100 16l2 -40c-32 -2.66699 -58.167 -7 -78.5 -13s-36.166 -15.5 -47.499 -28.5s-19 -30.667 -23 -53s-6 -51.166 -6 -86.499v-50h128v-45h-128v-495h-49v495z" />
    <glyph glyph-name="f_f_l" unicode="ffl" horiz-adv-x="847" 
d="M433 495l-102.001 -0.00195312v45h103v33c0 45.333 2.83301 82.833 8.5 112.5s16 53.334 31 71.001s35.5 30.5 61.5 38.5s59.333 13.333 100 16l2 -40c-32 -2.66699 -58.167 -7 -78.5 -13s-36.166 -15.5 -47.499 -28.5s-19 -30.667 -23 -53s-6 -51.166 -6 -86.499v-50
h128v-45h-128v-495h-49v495zM717.999 807.998h49v-808h-49v808zM117.999 494.998l-102.001 -0.00195312v45h103v33c0 45.333 2.83301 82.833 8.5 112.5s16 53.334 31 71.001s35.5 30.5 61.5 38.5s59.333 13.333 100 16l2 -40c-32 -2.66699 -58.167 -7 -78.5 -13
s-36.166 -15.5 -47.499 -28.5s-19 -30.667 -23 -53s-6 -51.166 -6 -86.499v-50h128v-45h-128v-495h-49v495z" />
    <glyph glyph-name="f_b" unicode="fb" horiz-adv-x="869" 
d="M119 495l-102.001 -0.00195312v45h103v33c0 45.333 2.83301 82.833 8.5 112.5s16 53.334 31 71.001s35.5 30.5 61.5 38.5s59.333 13.333 100 16l2 -40c-32 -2.66699 -58.167 -7 -78.5 -13s-36.166 -15.5 -47.499 -28.5s-19 -30.667 -23 -53s-6 -51.166 -6 -86.499v-50
h128v-45h-128v-495h-49v495zM575.999 -10.002c-26.667 0 -54.8301 1.66895 -84.4971 5.00195s-58.834 8 -87.501 14v799h49v-327c19.333 21.333 42.666 38.166 69.999 50.499s58 18.5 92 18.5c66.667 0 117.5 -22.333 152.5 -67s52.5 -113.667 52.5 -207
c0 -43.333 -5 -82.333 -15 -117s-25.167 -64.5 -45.5 -89.5s-45.833 -44.333 -76.5 -58s-66.334 -20.834 -107.001 -21.501zM577.003 33c62 0 109.499 19.499 142.499 58.499s49.5 99.833 49.5 182.5c0 80.667 -13.333 139.334 -40 176.001s-67 55 -121 55
c-19.333 0 -38.166 -2.66699 -56.499 -8s-34.833 -13 -49.5 -23s-26.5 -21.667 -35.5 -35s-13.5 -28 -13.5 -44v-351c19.333 -3.33301 39.5 -6 60.5 -8s42.167 -3 63.5 -3z" />
    <glyph glyph-name="f_f_b" unicode="ffb" horiz-adv-x="1183" 
d="M434 495l-102.001 -0.00195312v45h103v33c0 45.333 2.83301 82.833 8.5 112.5s16 53.334 31 71.001s35.5 30.5 61.5 38.5s59.333 13.333 100 16l2 -40c-32 -2.66699 -58.167 -7 -78.5 -13s-36.166 -15.5 -47.499 -28.5s-19 -30.667 -23 -53s-6 -51.166 -6 -86.499v-50
h128v-45h-128v-495h-49v495zM889.999 -10.002c-26.667 0 -54.8301 1.66895 -84.4971 5.00195s-58.834 8 -87.501 14v799h49v-327c19.333 21.333 42.666 38.166 69.999 50.499s58 18.5 92 18.5c66.667 0 117.5 -22.333 152.5 -67s52.5 -113.667 52.5 -207
c0 -43.333 -5 -82.333 -15 -117s-25.167 -64.5 -45.5 -89.5s-45.833 -44.333 -76.5 -58s-66.334 -20.834 -107.001 -21.501zM891.003 33c62 0 109.499 19.499 142.499 58.499s49.5 99.833 49.5 182.5c0 80.667 -13.333 139.334 -40 176.001s-67 55 -121 55
c-19.333 0 -38.166 -2.66699 -56.499 -8s-34.833 -13 -49.5 -23s-26.5 -21.667 -35.5 -35s-13.5 -28 -13.5 -44v-351c19.333 -3.33301 39.5 -6 60.5 -8s42.167 -3 63.5 -3zM119.002 494.999l-102.001 -0.00195312v45h103v33c0 45.333 2.83301 82.833 8.5 112.5
s16 53.334 31 71.001s35.5 30.5 61.5 38.5s59.333 13.333 100 16l2 -40c-32 -2.66699 -58.167 -7 -78.5 -13s-36.166 -15.5 -47.499 -28.5s-19 -30.667 -23 -53s-6 -51.166 -6 -86.499v-50h128v-45h-128v-495h-49v495z" />
    <glyph glyph-name="f_f_h" unicode="ffh" horiz-adv-x="1181" 
d="M718 808l49 -0.000976562v-330c46 24.667 85.5 42.834 118.5 54.501s64.167 17.5 93.5 17.5c44 0 76.5 -11.167 97.5 -33.5s31.5 -59.5 31.5 -111.5v-405h-49v392c0 40.667 -7.33301 69.5 -22 86.5s-37.667 25.5 -69 25.5c-28 0 -59 -6 -93 -18s-70 -28.667 -108 -50
v-436h-49v808zM433 494.999l-102.001 -0.00195312v45h103v33c0 45.333 2.83301 82.833 8.5 112.5s16 53.334 31 71.001s35.5 30.5 61.5 38.5s59.333 13.333 100 16l2 -40c-32 -2.66699 -58.167 -7 -78.5 -13s-36.166 -15.5 -47.499 -28.5s-19 -30.667 -23 -53
s-6 -51.166 -6 -86.499v-50h128v-45h-128v-495h-49v495zM117.999 494.997l-102.001 -0.00195312v45h103v33c0 45.333 2.83301 82.833 8.5 112.5s16 53.334 31 71.001s35.5 30.5 61.5 38.5s59.333 13.333 100 16l2 -40c-32 -2.66699 -58.167 -7 -78.5 -13
s-36.166 -15.5 -47.499 -28.5s-19 -30.667 -23 -53s-6 -51.166 -6 -86.499v-50h128v-45h-128v-495h-49v495z" />
    <glyph glyph-name="f_f_j" unicode="ffj" horiz-adv-x="848" 
d="M433 495l-102.001 -0.00195312v45h103v33c0 45.333 2.83301 82.833 8.5 112.5s16 53.334 31 71.001s35.5 30.5 61.5 38.5s59.333 13.333 100 16l2 -40c-32 -2.66699 -58.167 -7 -78.5 -13s-36.166 -15.5 -47.499 -28.5s-19 -30.667 -23 -53s-6 -51.166 -6 -86.499v-50
h128v-45h-128v-495h-49v495zM744.999 670.998c-24 0 -36 12 -36 36s12 36 36 36c24.667 0 37 -12 37 -36s-12.333 -36 -37 -36zM646.999 -200.002c26 45.333 45.167 93 57.5 143s18.5 107 18.5 171v426h49v-449c0 -55.333 -7.83301 -109.5 -23.5 -162.5
s-38.167 -102.5 -67.5 -148.5zM117.999 494.998l-102.001 -0.00195312v45h103v33c0 45.333 2.83301 82.833 8.5 112.5s16 53.334 31 71.001s35.5 30.5 61.5 38.5s59.333 13.333 100 16l2 -40c-32 -2.66699 -58.167 -7 -78.5 -13s-36.166 -15.5 -47.499 -28.5
s-19 -30.667 -23 -53s-6 -51.166 -6 -86.499v-50h128v-45h-128v-495h-49v495z" />
    <glyph glyph-name="f_f_k" unicode="ffk" horiz-adv-x="1129" 
d="M718 808h49v-510h98l188 242h57l-197 -253l-15 -9v-3l16 -10l212 -265h-57l-206 257h-96v-257h-49v808zM433 495l-102.001 -0.00195312v45h103v33c0 45.333 2.83301 82.833 8.5 112.5s16 53.334 31 71.001s35.5 30.5 61.5 38.5s59.333 13.333 100 16l2 -40
c-32 -2.66699 -58.167 -7 -78.5 -13s-36.166 -15.5 -47.499 -28.5s-19 -30.667 -23 -53s-6 -51.166 -6 -86.499v-50h128v-45h-128v-495h-49v495zM117.999 494.998l-102.001 -0.00195312v45h103v33c0 45.333 2.83301 82.833 8.5 112.5s16 53.334 31 71.001
s35.5 30.5 61.5 38.5s59.333 13.333 100 16l2 -40c-32 -2.66699 -58.167 -7 -78.5 -13s-36.166 -15.5 -47.499 -28.5s-19 -30.667 -23 -53s-6 -51.166 -6 -86.499v-50h128v-45h-128v-495h-49v495z" />
    <glyph glyph-name="f_f_t" unicode="fft" horiz-adv-x="978" 
d="M434 495l-102.001 -0.00195312v45h103v33c0 45.333 2.83301 82.833 8.5 112.5s16 53.334 31 71.001s35.5 30.5 61.5 38.5s59.333 13.333 100 16l2 -40c-32 -2.66699 -58.167 -7 -78.5 -13s-36.166 -15.5 -47.499 -28.5s-19 -30.667 -23 -53s-6 -51.166 -6 -86.499v-50
h128v-45h-128v-495h-49v495zM885.999 -6.00195c-90 0 -135 47.667 -135 143v357h-114v46h115l7 126l40 7v-133h162v-46h-162v-350c0 -70.667 32.333 -106 97 -106c9.33301 0 20 0.833008 32 2.5s24 4.16699 36 7.5v-44c-27.333 -6.66699 -53.333 -10 -78 -10z
M118.999 494.998l-102.001 -0.00195312v45h103v33c0 45.333 2.83301 82.833 8.5 112.5s16 53.334 31 71.001s35.5 30.5 61.5 38.5s59.333 13.333 100 16l2 -40c-32 -2.66699 -58.167 -7 -78.5 -13s-36.166 -15.5 -47.499 -28.5s-19 -30.667 -23 -53s-6 -51.166 -6 -86.499
v-50h128v-45h-128v-495h-49v495z" />
    <glyph glyph-name="f_h" unicode="fh" horiz-adv-x="867" 
d="M404 808l49 -0.000976562v-330c46 24.667 85.5 42.834 118.5 54.501s64.167 17.5 93.5 17.5c44 0 76.5 -11.167 97.5 -33.5s31.5 -59.5 31.5 -111.5v-405h-49v392c0 40.667 -7.33301 69.5 -22 86.5s-37.667 25.5 -69 25.5c-28 0 -59 -6 -93 -18s-70 -28.667 -108 -50
v-436h-49v808zM118 494.999l-102.001 -0.00195312v45h103v33c0 45.333 2.83301 82.833 8.5 112.5s16 53.334 31 71.001s35.5 30.5 61.5 38.5s59.333 13.333 100 16l2 -40c-32 -2.66699 -58.167 -7 -78.5 -13s-36.166 -15.5 -47.499 -28.5s-19 -30.667 -23 -53
s-6 -51.166 -6 -86.499v-50h128v-45h-128v-495h-49v495z" />
    <glyph glyph-name="f_j" unicode="fj" horiz-adv-x="534" 
d="M118 495l-102.001 -0.00195312v45h103v33c0 45.333 2.83301 82.833 8.5 112.5s16 53.334 31 71.001s35.5 30.5 61.5 38.5s59.333 13.333 100 16l2 -40c-32 -2.66699 -58.167 -7 -78.5 -13s-36.166 -15.5 -47.499 -28.5s-19 -30.667 -23 -53s-6 -51.166 -6 -86.499v-50
h128v-45h-128v-495h-49v495zM430.999 670.998c-24 0 -36 12 -36 36s12 36 36 36c24.667 0 37 -12 37 -36s-12.333 -36 -37 -36zM332.999 -200.002c26 45.333 45.167 93 57.5 143s18.5 107 18.5 171v426h49v-449c0 -55.333 -7.83301 -109.5 -23.5 -162.5
s-38.167 -102.5 -67.5 -148.5z" />
    <glyph glyph-name="f_k" unicode="fk" horiz-adv-x="815" 
d="M404 808h49v-510h98l188 242h57l-197 -253l-15 -9v-3l16 -10l212 -265h-57l-206 257h-96v-257h-49v808zM118 495l-102.001 -0.00195312v45h103v33c0 45.333 2.83301 82.833 8.5 112.5s16 53.334 31 71.001s35.5 30.5 61.5 38.5s59.333 13.333 100 16l2 -40
c-32 -2.66699 -58.167 -7 -78.5 -13s-36.166 -15.5 -47.499 -28.5s-19 -30.667 -23 -53s-6 -51.166 -6 -86.499v-50h128v-45h-128v-495h-49v495z" />
    <glyph glyph-name="f_t" unicode="ft" horiz-adv-x="665" 
d="M119 495l-102.001 -0.00195312v45h103v33c0 45.333 2.83301 82.833 8.5 112.5s16 53.334 31 71.001s35.5 30.5 61.5 38.5s59.333 13.333 100 16l2 -40c-32 -2.66699 -58.167 -7 -78.5 -13s-36.166 -15.5 -47.499 -28.5s-19 -30.667 -23 -53s-6 -51.166 -6 -86.499v-50
h128v-45h-128v-495h-49v495zM571.999 -6.00195c-90 0 -135 47.667 -135 143v357h-114v46h115l7 126l40 7v-133h162v-46h-162v-350c0 -70.667 32.333 -106 97 -106c9.33301 0 20 0.833008 32 2.5s24 4.16699 36 7.5v-44c-27.333 -6.66699 -53.333 -10 -78 -10z" />
    <glyph glyph-name=".notdef" horiz-adv-x="701" 
d="M99 1030h501v-1250h-501v1250zM551 -172v1155h-403v-1155h403z" />
    <glyph glyph-name="NULL" horiz-adv-x="0" 
 />
    <glyph glyph-name="NULL" horiz-adv-x="0" 
 />
    <glyph glyph-name="nonmarkingreturn" unicode="&#xd;" horiz-adv-x="283" 
 />
    <glyph glyph-name="space" unicode=" " horiz-adv-x="230" 
 />
    <glyph glyph-name="exclam" unicode="!" horiz-adv-x="222" 
d="M114 5c-23.333 0 -35 11.6689 -35 35.002c0 11.333 3 20.166 9 26.499s14.667 9.5 26 9.5s20.333 -3.33301 27 -10s10 -15.334 10 -26.001c0 -23.333 -12.333 -35 -37 -35zM94 172.002l-8 558v10h49v-10l-8 -558v-14h-33v14z" />
    <glyph glyph-name="quotedbl" unicode="&#x22;" horiz-adv-x="327" 
d="M117 808v-4l-23 -324h-24v328h47zM269 808v-4l-23 -324h-24v328h47z" />
    <glyph glyph-name="numbersign" unicode="#" horiz-adv-x="516" 
d="M306 240h-130l-19 -240h-43l20 240h-84v42h87l15 176h-102v42h105l20 240h42l-20 -240h130l20 240h43l-20 -240h96v-42h-99l-14 -176h112v-42h-116l-19 -240h-44zM180 282h129l15 176h-130z" />
    <glyph glyph-name="dollar" unicode="$" horiz-adv-x="522" 
d="M250 -12c-15.333 0 -31.668 0.832031 -49.001 2.49902s-35.166 3.83398 -53.499 6.50098s-36.5 6 -54.5 10s-34.667 8.33301 -50 13l3 45c14.667 -4.66699 30.834 -8.83398 48.501 -12.501s35.5 -6.83398 53.5 -9.50098s35.667 -4.83398 53 -6.50098
s33.666 -2.5 48.999 -2.5c58 0 103 12.667 135 38s48 61.666 48 108.999c0 24 -4.33301 44.833 -13 62.5s-20.667 33.167 -36 46.5s-34.166 24.833 -56.499 34.5s-46.833 19.167 -73.5 28.5c-36 12 -66.5 24.5 -91.5 37.5s-45.5 27.5 -61.5 43.5s-27.5 34 -34.5 54
s-10.5 43 -10.5 69c0 26.667 4.5 51.334 13.5 74.001s21.833 42.5 38.5 59.5s36.667 30.833 60 41.5s49.666 17.667 78.999 21v136h48v-134c48.667 -1.33301 101.334 -8.66602 158.001 -21.999l-4 -46c-62.667 15.333 -117.334 23 -164.001 23c-54 0 -97.167 -14 -129.5 -42
s-48.5 -65 -48.5 -111c0 -19.333 3 -36.666 9 -51.999s15.667 -29.166 29 -41.499s30.833 -23.833 52.5 -34.5s48.167 -21.334 79.5 -32.001s59.833 -21.834 85.5 -33.501s47.5 -25.667 65.5 -42s31.833 -35.666 41.5 -57.999s14.5 -49.166 14.5 -80.499
c0 -54 -15.667 -97.5 -47 -130.5s-76 -53.167 -134 -60.5v-141h-48v137h-5v0z" />
    <glyph glyph-name="percent" unicode="%" horiz-adv-x="859" 
d="M201 282c-106 0 -159.001 77.999 -159.001 233.999c0 77.333 13.333 135.666 40 174.999s66.334 59 119.001 59c52 0 91.333 -19.667 118 -59s40 -97.666 40 -174.999s-13.333 -135.666 -40 -174.999s-66 -59 -118 -59zM200.999 323.999c76 0 114 64 114 192
c0 63.333 -9.5 111.166 -28.5 143.499s-47.5 48.5 -85.5 48.5s-66.833 -16.167 -86.5 -48.5s-29.5 -80.166 -29.5 -143.499c0 -128 38.667 -192 116 -192zM658.999 -12.001c-52 0 -91.5 19.667 -118.5 59s-40.5 97.666 -40.5 174.999s13.5 135.666 40.5 174.999
s66.5 59 118.5 59c52.667 0 92.334 -19.667 119.001 -59s40 -97.666 40 -174.999s-13.333 -135.666 -40 -174.999s-66.334 -59 -119.001 -59zM658.999 29.999c76.667 0 115 64 115 192s-38.333 192 -115 192s-115 -64 -115 -192s38.333 -192 115 -192zM561.999 739.999h48
l-316 -740h-49z" />
    <glyph glyph-name="ampersand" unicode="&#x26;" horiz-adv-x="662" 
d="M295 -12c-76 0 -135.5 19.1689 -178.5 57.502s-64.5 91.833 -64.5 160.5c0 90.667 40.667 155.667 122 195c-16 23.333 -27.333 47.5 -34 72.5s-10 53.167 -10 84.5c0 64.667 17.167 113.334 51.5 146.001s84.833 49 151.5 49c24 0 49 -3 75 -9s55.333 -15.667 88 -29v-6
l-13 -34h-6c-28.667 12 -54.334 20.667 -77.001 26s-44.667 8 -66 8c-103.333 0 -155 -51 -155 -153c0 -27.333 3.66699 -52.333 11 -75s19.5 -44.834 36.5 -66.501s38.833 -43 65.5 -64s59.667 -42.833 99 -65.5l127 -76c9.33301 39.333 14 83.666 14 132.999v68h47v-68
c0 -60.667 -6 -113.334 -18 -158.001l78 -46v-6l-22 -33h-7l-65 39c-43.333 -100 -126.666 -150 -249.999 -150zM364 247.002c-36.667 22 -68.167 42.667 -94.5 62s-48.5 38.666 -66.5 57.999c-68 -33.333 -102 -86.666 -102 -159.999c0 -54 17.5 -96.667 52.5 -128
s82.5 -47 142.5 -47c102.667 0 172 43.667 208 131z" />
    <glyph glyph-name="quotesingle" unicode="'" horiz-adv-x="175" 
d="M117 808v-4l-23 -324h-24v328h47z" />
    <glyph glyph-name="parenleft" unicode="(" horiz-adv-x="271" 
d="M202 -160c-50 73.333 -88.333 154 -115 242s-40 178.667 -40 272c0 94 13.333 184.833 40 272.5s65 168.167 115 241.5h46v-4c-50 -72.667 -88.333 -152.167 -115 -238.5s-40 -176.833 -40 -271.5c0 -95.333 13.333 -186 40 -272s65 -165.333 115 -238v-4h-46v0z" />
    <glyph glyph-name="parenright" unicode=")" horiz-adv-x="271" 
d="M23 -160v4c50 72.667 88.333 152 115 238s40 176.667 40 272c0 94.667 -13.333 185.167 -40 271.5s-65 165.833 -115 238.5v4h45c50.667 -73.333 89.334 -153.833 116.001 -241.5s40 -178.5 40 -272.5c0 -93.333 -13.333 -184 -40 -272s-65.334 -168.667 -116.001 -242
h-45z" />
    <glyph glyph-name="asterisk" unicode="*" horiz-adv-x="485" 
d="M110 484l48 68l69 77l-100 21l-79 24l12 39l80 -25l93 -42l-11 103v83h41v-83l-11 -102l93 41l80 25l13 -39l-79 -24l-101 -21l69 -77l49 -68l-33 -23l-49 67l-52 92l-51 -92l-49 -67z" />
    <glyph glyph-name="plus" unicode="+" horiz-adv-x="474" 
d="M50 391h166v174h42v-174h166v-42h-166v-174h-42v174h-166v42z" />
    <glyph glyph-name="comma" unicode="," horiz-adv-x="200" 
d="M32 -145l46 217h53l-60 -227z" />
    <glyph glyph-name="hyphen" unicode="-" horiz-adv-x="393" 
d="M68 303h257v-46h-257v46z" />
    <glyph glyph-name="period" unicode="." horiz-adv-x="206" 
d="M103 -2c-11.333 0 -20.5 3.33301 -27.5 10s-10.5 16 -10.5 28s3.5 21.333 10.5 28s16.167 10 27.5 10c12 0 21.5 -3.33301 28.5 -10s10.5 -16 10.5 -28s-3.5 -21.333 -10.5 -28s-16.5 -10 -28.5 -10z" />
    <glyph glyph-name="slash" unicode="/" horiz-adv-x="331" 
d="M251 740h47l-217 -861h-47z" />
    <glyph glyph-name="zero" unicode="0" horiz-adv-x="598" 
d="M299 -11c-80 0 -140.5 31.833 -181.5 95.5s-61.5 158.5 -61.5 284.5s20.5 221 61.5 285s101.5 96 181.5 96s140.5 -32 181.5 -96s61.5 -159 61.5 -285c0 -125.333 -20.5 -220 -61.5 -284s-101.5 -96 -181.5 -96zM299 35c129.333 0 194 111.333 194 334
c0 111.333 -16.333 195 -49 251s-81 84 -145 84s-112.167 -28 -144.5 -84s-48.5 -139.667 -48.5 -251c0 -222.667 64.333 -334 193 -334z" />
    <glyph glyph-name="one" unicode="1" horiz-adv-x="352" 
d="M208 674h-4l-160 -99h-7l-12 30v5l197 130h35v-740h-49v674z" />
    <glyph glyph-name="two" unicode="2" horiz-adv-x="486" 
d="M47 93c0 30 3.49707 57.334 10.4971 82.001s18 48.167 33 70.5s34.5 44 58.5 65s52.667 42.167 86 63.5c26.667 16.667 49.167 32.667 67.5 48s33.333 30.666 45 45.999s20.167 30.833 25.5 46.5s8 32.5 8 50.5c0 91.333 -49.667 137 -149 137
c-43.333 0 -95.333 -8.33301 -156 -25l-9 45c32.667 9.33301 62.834 16 90.501 20s54.167 6 79.5 6c128.667 0 193 -60.333 193 -181c0 -23.333 -2.83301 -44.5 -8.5 -63.5s-15 -37.5 -28 -55.5s-30 -35.667 -51 -53s-46.5 -36 -76.5 -56
c-31.333 -20.667 -57.666 -40.167 -78.999 -58.5s-38.666 -37 -51.999 -56s-23 -38.833 -29 -59.5s-9 -43 -9 -67v-51h335v-46h-385v92z" />
    <glyph glyph-name="three" unicode="3" horiz-adv-x="465" 
d="M178 -9c-40 0 -80.668 4.66699 -122.001 14v43h6c14.667 -4 32.834 -7.16699 54.501 -9.5s41.167 -3.5 58.5 -3.5c59.333 0 105 14 137 42s48 68 48 120c0 52.667 -15.667 92.667 -47 120s-78.333 41 -141 41h-48v43h48c54 0 95.5 13.333 124.5 40
s43.5 64.334 43.5 113.001c0 100.667 -53.333 151 -160 151c-14.667 0 -31.834 -1 -51.501 -3s-41.167 -5.33301 -64.5 -10h-7l-4 42c21.333 5.33301 43 9.33301 65 12s43.667 4 65 4c66.667 0 118 -16.667 154 -50s54 -81.333 54 -144c0 -44 -10.167 -81 -30.5 -111
s-49.166 -50.333 -86.499 -61v-4c44.667 -10 78.667 -30.833 102 -62.5s35 -72.834 35 -123.501c0 -64.667 -20.167 -114.667 -60.5 -150s-97.833 -53 -172.5 -53z" />
    <glyph glyph-name="four" unicode="4" horiz-adv-x="540" 
d="M25 214v4l248 532h5l39 -10v-6l-234 -498v-5h279v6l16 273h34v-279h99v-44h-99v-187h-50v187h-319z" />
    <glyph glyph-name="five" unicode="5" horiz-adv-x="467" 
d="M181 -12c-20 0 -40.9961 1.33691 -62.9961 4.00391s-44 6.33398 -66 11.001v44h11c40.667 -8.66699 79 -13 115 -13c63.333 0 111 14.333 143 43s48 74 48 136c0 30 -4.5 55.5 -13.5 76.5s-22.833 38.167 -41.5 51.5s-42.334 23 -71.001 29s-63 9.33301 -103 10l-67 1
l-5 5l26 354h299v-45h-257l-18 -270c53.333 -0.666992 99.166 -4.83398 137.499 -12.501s69.666 -19.834 93.999 -36.501s42.166 -38.334 53.499 -65.001s17 -59.334 17 -98.001c0 -76.667 -20.667 -133.334 -62 -170.001s-100.333 -55 -177 -55z" />
    <glyph glyph-name="six" unicode="6" horiz-adv-x="555" 
d="M292 -12c-157.333 0 -235.997 112.333 -235.997 337c0 67.333 6.66699 127.5 20 180.5s32.666 97.667 57.999 134s56.333 64.166 93 83.499s78.667 29 126 29c18.667 0 37 -1.33301 55 -4s37.667 -7 59 -13l-2 -46c-21.333 6.66699 -40.5 11.334 -57.5 14.001
s-34.833 4 -53.5 4c-74.667 0 -133.334 -29.667 -176.001 -89s-66.667 -142.666 -72 -249.999c28 25.333 58.667 45 92 59s67 21 101 21c31.333 0 60.166 -4.83301 86.499 -14.5s48.833 -23.667 67.5 -42s33.167 -41 43.5 -68s15.5 -57.5 15.5 -91.5
c0 -36 -5.33301 -69 -16 -99s-25.5 -55.833 -44.5 -77.5s-42.167 -38.334 -69.5 -50.001s-57.333 -17.5 -90 -17.5zM291.003 405c-30.667 0 -62.833 -7.50098 -96.5 -22.501s-63.5 -35.167 -89.5 -60.5c0 -98.667 15.333 -171.5 46 -218.5s77.667 -70.5 141 -70.5
c26 0 49.333 4.66699 70 14s38.5 22.833 53.5 40.5s26.5 38.834 34.5 63.501s12 52 12 82c0 54 -15 96.167 -45 126.5s-72 45.5 -126 45.5z" />
    <glyph glyph-name="seven" unicode="7" horiz-adv-x="425" 
d="M139 -10l-38 10v12l253 682h-323l-5 41l2 5h362l12 -26v-28l-250 -688z" />
    <glyph glyph-name="eight" unicode="8" horiz-adv-x="552" 
d="M276 -4c-68 0 -122 16.332 -162 48.999s-60 80 -60 142c0 30 4.16699 56 12.5 78s19 41.167 32 57.5s27.333 29.833 43 40.5s30.5 19.334 44.5 26.001c-34 16.667 -61 38.5 -81 65.5s-30 63.5 -30 109.5c0 60.667 18.5 106.834 55.5 138.501s85.833 47.5 146.5 47.5
c60 0 108 -15.667 144 -47s54 -77.666 54 -138.999c0 -27.333 -3.66699 -51.5 -11 -72.5s-16.5 -39.167 -27.5 -54.5s-23.5 -28.333 -37.5 -39s-27.333 -19.334 -40 -26.001c20.667 -8.66699 39.667 -18.334 57 -29.001s32.166 -23.334 44.499 -38.001
s21.833 -31.667 28.5 -51s10 -41.666 10 -66.999c0 -30 -5.33301 -56.833 -16 -80.5s-25.667 -43.667 -45 -60s-42.666 -28.833 -69.999 -37.5s-58 -13 -92 -13zM231 368.999c-13.333 -6 -27.499 -13.3311 -42.499 -21.998s-28.833 -20 -41.5 -34s-23.334 -31 -32.001 -51
s-13 -44.333 -13 -73c0 -48.667 16 -85.834 48 -111.501s74 -38.5 126 -38.5s94.167 12.833 126.5 38.5s48.5 61.5 48.5 107.5c0 26 -3.66699 47.667 -11 65s-18.333 32.166 -33 44.499s-32.667 23 -54 32s-46.333 18.167 -75 27.5zM309.001 390.001
c12 4.66699 25 11.5 39 20.5s26.833 20.333 38.5 34s21.5 30.167 29.5 49.5s12 42.333 12 69c0 48 -13.833 83.833 -41.5 107.5s-64.5 35.5 -110.5 35.5s-83.167 -12 -111.5 -36s-42.5 -59.667 -42.5 -107c0 -25.333 4.33301 -46.833 13 -64.5s20.667 -33 36 -46
s33.833 -24 55.5 -33s45.167 -17.5 70.5 -25.5z" />
    <glyph glyph-name="nine" unicode="9" horiz-adv-x="555" 
d="M263 752c157.333 0 235.997 -112.333 235.997 -337c0 -67.333 -6.66699 -127.5 -20 -180.5s-32.666 -97.667 -57.999 -134s-56.333 -64.166 -93 -83.499s-78.667 -29 -126 -29c-18.667 0 -37 1.33301 -55 4s-37.667 7 -59 13l2 46
c21.333 -6.66699 40.5 -11.334 57.5 -14.001s34.833 -4 53.5 -4c74.667 0 133.334 29.667 176.001 89s66.667 142.666 72 249.999c-28 -25.333 -58.667 -45 -92 -59s-67 -21 -101 -21c-31.333 0 -60.166 4.83301 -86.499 14.5s-48.833 23.667 -67.5 42s-33.167 41 -43.5 68
s-15.5 57.5 -15.5 91.5c0 36 5.33301 69 16 99s25.5 55.833 44.5 77.5s42 38.334 69 50.001s57.167 17.5 90.5 17.5zM263.997 335c30.667 0 62.833 7.50098 96.5 22.501s63.5 35.167 89.5 60.5c0 98.667 -15.333 171.5 -46 218.5s-77.667 70.5 -141 70.5
c-26 0 -49.333 -4.66699 -70 -14s-38.5 -22.833 -53.5 -40.5s-26.5 -38.834 -34.5 -63.501s-12 -52 -12 -82c0 -54 15 -96.167 45 -126.5s72 -45.5 126 -45.5z" />
    <glyph glyph-name="colon" unicode=":" horiz-adv-x="211" 
d="M105 -2c-11.333 0 -20.5 3.33301 -27.5 10s-10.5 16 -10.5 28s3.5 21.333 10.5 28s16.167 10 27.5 10c12 0 21.5 -3.33301 28.5 -10s10.5 -16 10.5 -28s-3.5 -21.333 -10.5 -28s-16.5 -10 -28.5 -10zM105 467c-11.333 0 -20.5 3.33301 -27.5 10s-10.5 16 -10.5 28
s3.5 21.333 10.5 28s16.167 10 27.5 10c12 0 21.5 -3.33301 28.5 -10s10.5 -16 10.5 -28s-3.5 -21.333 -10.5 -28s-16.5 -10 -28.5 -10z" />
    <glyph glyph-name="semicolon" unicode=";" horiz-adv-x="241" 
d="M57 -145l46 217h53l-60 -227zM126 467c-11.333 0 -20.5 3.33301 -27.5 10s-10.5 16 -10.5 28s3.5 21.333 10.5 28s16.167 10 27.5 10c12 0 21.5 -3.33301 28.5 -10s10.5 -16 10.5 -28s-3.5 -21.333 -10.5 -28s-16.5 -10 -28.5 -10z" />
    <glyph glyph-name="less" unicode="&#x3c;" horiz-adv-x="492" 
d="M47 347v39l376 168v-48l-317 -140l314 -139v-47z" />
    <glyph glyph-name="equal" unicode="=" horiz-adv-x="511" 
d="M70 273h371v-43h-371v43zM70 485h371v-43h-371v43z" />
    <glyph glyph-name="greater" unicode="&#x3e;" horiz-adv-x="493" 
d="M72 227l315 139l-317 140v48l375 -168v-39l-373 -167v47z" />
    <glyph glyph-name="question" unicode="?" horiz-adv-x="420" 
d="M140 180l-1.99902 193.998c20 5.33301 41.5 11.833 64.5 19.5s44.5 18.167 64.5 31.5s36.5 30.333 49.5 51s19.5 46.667 19.5 78c0 29.333 -4.66699 53.833 -14 73.5s-21.5 35.334 -36.5 47.001s-31.667 20 -50 25s-36.833 7.5 -55.5 7.5
c-23.333 0 -46.333 -2.33301 -69 -7s-45.334 -10.667 -68.001 -18l-12 41c22 8 46.167 14.667 72.5 20s53.5 8 81.5 8c24 0 48 -3.16699 72 -9.5s45.333 -17 64 -32s33.834 -35.167 45.501 -60.5s17.5 -56.666 17.5 -93.999c0 -36 -6.5 -66.333 -19.5 -91
s-29.333 -45 -49 -61s-41.334 -28.833 -65.001 -38.5s-46.5 -17.5 -68.5 -23.5l1 -161v-19h-43v19zM163.001 0.998047c-24 0 -36 11.666 -36 34.999c0 24 12 36 36 36c11.333 0 20.166 -3.16699 26.499 -9.5s9.5 -15.166 9.5 -26.499s-3.16699 -20 -9.5 -26
s-15.166 -9 -26.499 -9z" />
    <glyph glyph-name="at" unicode="@" horiz-adv-x="846" 
d="M410 -136c-50.667 0 -97.8301 7.83496 -141.497 23.502s-81.5 39.667 -113.5 72s-57.167 73.5 -75.5 123.5s-27.5 109.333 -27.5 178c0 66 9 124.667 27 176s43.833 94.833 77.5 130.5s74.167 62.667 121.5 81s100 27.5 158 27.5c59.333 0 111 -8.66699 155 -26
s80.5 -42 109.5 -74s50.667 -70.833 65 -116.5s21.5 -96.834 21.5 -153.501c0 -79.333 -14 -141.333 -42 -186s-69 -67 -123 -67c-30 0 -54.333 6.66699 -73 20s-29.667 37 -33 71h-6c-19.333 -28 -44 -49.167 -74 -63.5s-57.667 -21.5 -83 -21.5
c-22.667 0 -42.334 4.33301 -59.001 13s-30.334 20.834 -41.001 36.501s-18.667 34 -24 55s-8 43.5 -8 67.5c0 38 5.66699 73 17 105s27.5 59.833 48.5 83.5s46.167 42 75.5 55s62 19.5 98 19.5c19.333 0 40.666 -2.66699 63.999 -8s48 -13 74 -23l-37 -212
c-2.66699 -14.667 -5 -29 -7 -43s-3 -26.667 -3 -38c0 -24.667 5.33301 -43.834 16 -57.501s29 -20.5 55 -20.5c40 0 70.333 19 91 57s31 90.333 31 157c0 51.333 -6.16699 97.333 -18.5 138s-31.166 75.167 -56.499 103.5s-57.333 50 -96 65s-84.334 22.5 -137.001 22.5
c-52 0 -99 -8.33301 -141 -25s-78 -40.834 -108 -72.501s-53.167 -70.667 -69.5 -117s-24.5 -99.5 -24.5 -159.5c0 -61.333 8.16699 -114.5 24.5 -159.5s38.666 -82 66.999 -111s61.833 -50.5 100.5 -64.5s80.334 -21 125.001 -21c30 0 60.833 3 92.5 9
s63.834 13.667 96.501 23l15 -38c-34.667 -10.667 -69.334 -19.167 -104.001 -25.5s-68 -9.5 -100 -9.5zM355.004 98.002c16 0 32.8291 3.16797 50.4961 9.50098s34.167 16 49.5 29s29 29.667 41 50s20.333 44.166 25 71.499l31 180
c-17.333 5.33301 -33.666 9.5 -48.999 12.5s-29.666 4.5 -42.999 4.5c-30 0 -57.167 -5.66699 -81.5 -17s-45.166 -27 -62.499 -47s-30.666 -43.667 -39.999 -71s-14 -57 -14 -89c0 -18.667 1.83301 -36.167 5.5 -52.5s9.16699 -30.5 16.5 -42.5s17 -21.333 29 -28
s26 -10 42 -10z" />
    <glyph glyph-name="A" unicode="A" horiz-adv-x="611" 
d="M10 6l259 734h73l259 -734v-6h-49l-85 241h-323l-85 -241h-49v6zM452 286l-104 292l-40 118h-5l-40 -118l-104 -292h293z" />
    <glyph glyph-name="B" unicode="B" horiz-adv-x="609" 
d="M297 -10c-31.333 0 -65.5 1.33301 -102.5 4s-71.5 6.33398 -103.5 11.001v731c45.333 4.66699 82.5 8 111.5 10s57.167 3 84.5 3c87.333 0 150.5 -15.5 189.5 -46.5s58.5 -80.833 58.5 -149.5c0 -46.667 -11.167 -85.5 -33.5 -116.5s-52.833 -50.167 -91.5 -57.5v-4
c48 -8 84.833 -27.833 110.5 -59.5s38.5 -72.834 38.5 -123.501c0 -134.667 -87.333 -202 -262 -202zM298 32c71.333 0.666992 124.167 14 158.5 40s51.5 66.333 51.5 121c0 55.333 -16.5 95.833 -49.5 121.5s-85.5 38.5 -157.5 38.5h-162v-310
c15.333 -3.33301 37.833 -6 67.5 -8s60.167 -3 91.5 -3zM299.001 396c67.333 0 115.167 11.832 143.5 35.499s42.5 63.5 42.5 119.5c0 54.667 -15.333 94.167 -46 118.5s-81 36.5 -151 36.5c-30 0 -56.667 -0.666992 -80 -2s-46.333 -3.66602 -69 -6.99902v-301h160z" />
    <glyph glyph-name="C" unicode="C" horiz-adv-x="548" 
d="M367 -9c-106.667 1.33301 -185.5 32.666 -236.5 93.999s-76.5 156 -76.5 284c0 130.667 25.667 226.667 77 288s130.666 92 237.999 92c19.333 0 41.833 -1.33301 67.5 -4s50.167 -6.33398 73.5 -11.001v-46c-22.667 4.66699 -46 8.33398 -70 11.001s-46 4 -66 4
c-92 0 -160 -27 -204 -81s-66 -138.333 -66 -253c0 -112.667 21.5 -196.167 64.5 -250.5s108.833 -81.5 197.5 -81.5c8.66699 0 19.167 0.5 31.5 1.5s25.166 2.16699 38.499 3.5s26.5 3 39.5 5s24.5 4 34.5 6v-44c-19.333 -5.33301 -42.166 -9.66602 -68.499 -12.999
s-51.166 -5 -74.499 -5z" />
    <glyph glyph-name="D" unicode="D" horiz-adv-x="661" 
d="M243 -13c-31.333 0 -60.499 1 -87.499 3s-48.5 5 -64.5 9v737c14 2 28.667 3.83301 44 5.5s30.833 3 46.5 4s30.667 1.83301 45 2.5s27.166 1 38.499 1c118 0 204.667 -30.667 260 -92s83 -157 83 -287c0 -132 -29.333 -228.833 -88 -290.5s-151 -92.5 -277 -92.5z
M251.001 33c104.667 0 181.834 27.332 231.501 81.999s74.5 139.667 74.5 255c0 114.667 -23.333 198.834 -70 252.501s-120.334 80.5 -221.001 80.5c-18.667 0 -39.5 -0.666992 -62.5 -2s-44.167 -3.33301 -63.5 -6v-654c22.667 -3.33301 42 -5.5 58 -6.5
s33.667 -1.5 53 -1.5z" />
    <glyph glyph-name="E" unicode="E" horiz-adv-x="562" 
d="M91 740h414v-45h-365v-296h339v-45h-339v-309h374v-45h-423v740z" />
    <glyph glyph-name="F" unicode="F" horiz-adv-x="531" 
d="M91 740h405v-45h-356v-298h328v-45h-328v-352h-49v740z" />
    <glyph glyph-name="G" unicode="G" horiz-adv-x="610" 
d="M374 -9c-109.333 1.33301 -190.001 32.668 -242.001 94.001s-78 156 -78 284c0 130 26.5 225.833 79.5 287.5s135.167 92.5 246.5 92.5c22.667 0 48.167 -1.83301 76.5 -5.5s57.166 -8.83398 86.499 -15.501v-46c-34 7.33301 -63 12.666 -87 15.999s-48.333 5 -73 5
c-95.333 0 -165.666 -27 -210.999 -81s-68 -138.333 -68 -253c0 -112.667 22.167 -196.167 66.5 -250.5s111.833 -81.5 202.5 -81.5c15.333 0 34.5 1.33301 57.5 4s45.167 5.66699 66.5 9v326h48v-361c-30 -7.33301 -59.667 -13.166 -89 -17.499s-56.666 -6.5 -81.999 -6.5z
" />
    <glyph glyph-name="H" unicode="H" horiz-adv-x="699" 
d="M91 740h49v-339h419v339h49v-740h-49v356h-419v-356h-49v740z" />
    <glyph glyph-name="I" unicode="I" horiz-adv-x="230" 
d="M91 740h49v-740h-49v740z" />
    <glyph glyph-name="J" unicode="J" horiz-adv-x="230" 
d="M11 -160c16 33.333 29.333 63.668 40 91.001s19 54 25 80s10.333 52.667 13 80s4 57.666 4 90.999v558h49v-560c0 -32 -1.66699 -62.333 -5 -91s-8.83301 -57.167 -16.5 -85.5s-17.5 -57.5 -29.5 -87.5s-26.667 -62 -44 -96z" />
    <glyph glyph-name="K" unicode="K" horiz-adv-x="608" 
d="M91 740h49v-340h134l247 340h60l-243 -334l-27 -24v-6l29 -23l259 -353h-58l-261 354h-140v-354h-49v740z" />
    <glyph glyph-name="L" unicode="L" horiz-adv-x="470" 
d="M91 740h49v-695h317v-45h-366v740z" />
    <glyph glyph-name="M" unicode="M" horiz-adv-x="856" 
d="M91 740h66l213 -517l55 -138h5l56 138l213 517h67v-740h-48v657l-5 1l-71 -174l-188 -455h-52l-188 455l-72 174l-4 -1v-657h-47v740z" />
    <glyph glyph-name="N" unicode="N" horiz-adv-x="725" 
d="M91 740h48l388 -571l55 -88l5 1v658h47v-740h-49l-389 571l-54 86h-4v-657h-47v740z" />
    <glyph glyph-name="O" unicode="O" horiz-adv-x="682" 
d="M341 -10c-93.333 0 -164.5 31.666 -213.5 94.999s-73.5 158 -73.5 284c0 126.667 24.5 221.834 73.5 285.501s120.167 95.5 213.5 95.5s164.5 -32 213.5 -96s73.5 -159 73.5 -285s-24.5 -220.667 -73.5 -284s-120.167 -95 -213.5 -95zM341 35.999
c158 0 237.001 111 237.001 333c0 112 -19.833 195.833 -59.5 251.5s-98.834 83.5 -177.501 83.5c-158 0 -237 -111.667 -237 -335c0 -222 79 -333 237 -333z" />
    <glyph glyph-name="P" unicode="P" horiz-adv-x="583" 
d="M91 735c55.333 10.667 108.667 16 160 16c102 0 176.5 -20 223.5 -60s70.5 -103.667 70.5 -191c0 -88 -23.5 -152 -70.5 -192s-122.167 -60 -225.5 -60c-30.667 0 -67 2 -109 6v-254h-49v735zM257.001 293c42 0 78.168 4 108.501 12s55 20.333 74 37s33 38 42 64
s13.5 57.333 13.5 94c0 72 -18.833 124.333 -56.5 157s-98.167 49 -181.5 49c-18.667 0 -38.5 -0.833008 -59.5 -2.5s-40.167 -4.16699 -57.5 -7.5v-394c13.333 -2 31.166 -4 53.499 -6s43.5 -3 63.5 -3z" />
    <glyph glyph-name="Q" unicode="Q" horiz-adv-x="679" 
d="M611 -100c-104 14.667 -191.669 32.667 -263.002 54s-129 49.5 -173 84.5s-75.667 79.167 -95 132.5s-29 119.333 -29 198c0 125.333 24.333 220.166 73 284.499s120.334 96.5 215.001 96.5c94 0 165.333 -32.167 214 -96.5s73 -159.166 73 -284.499
c0 -121.333 -24.167 -213.333 -72.5 -276s-119.166 -94.334 -212.499 -95.001v-5c42 -11.333 85.5 -20.666 130.5 -27.999s94.5 -13 148.5 -17zM338.998 36c78.667 0 137.834 27.668 177.501 83.001s59.5 138.666 59.5 249.999c0 112 -19.833 196 -59.5 252
s-98.834 84 -177.501 84c-158.667 0 -238 -112 -238 -336c0 -222 79.333 -333 238 -333z" />
    <glyph glyph-name="R" unicode="R" horiz-adv-x="600" 
d="M340 288c-13.333 -2 -27.5 -3.33105 -42.5 -3.99805s-30.833 -1 -47.5 -1s-34.167 0.5 -52.5 1.5s-37.5 2.83301 -57.5 5.5v-290h-49v735c28 5.33301 55.333 9.33301 82 12s52.667 4 78 4c102 0 176.5 -18.833 223.5 -56.5s70.5 -96.834 70.5 -177.501
c0 -60.667 -12.667 -108.834 -38 -144.501s-65 -60.5 -119 -74.5l173 -298h-55zM257 327.002c84.667 0 145.499 14.834 182.499 44.501s55.5 78.167 55.5 145.5c0 66 -18.833 114 -56.5 144s-98.167 45 -181.5 45c-18 0 -37.167 -0.833008 -57.5 -2.5
s-40.166 -4.16699 -59.499 -7.5v-360c13.333 -2.66699 30.833 -4.83398 52.5 -6.50098s43.167 -2.5 64.5 -2.5z" />
    <glyph glyph-name="S" unicode="S" horiz-adv-x="522" 
d="M249 -12c-15.333 0 -31.667 0.835938 -49 2.50293s-35.166 3.83398 -53.499 6.50098s-36.5 6 -54.5 10s-34.667 8.33301 -50 13l3 45c14.667 -4.66699 30.834 -8.83398 48.501 -12.501s35.5 -6.83398 53.5 -9.50098s35.667 -4.83398 53 -6.50098s33.666 -2.5 48.999 -2.5
c58 0 103 12.667 135 38s48 61.666 48 108.999c0 24 -4.33301 44.833 -13 62.5s-20.667 33.167 -36 46.5s-34.166 24.833 -56.499 34.5s-46.833 19.167 -73.5 28.5c-36 12 -66.5 24.5 -91.5 37.5s-45.5 27.5 -61.5 43.5s-27.5 34 -34.5 54s-10.5 43 -10.5 69
c0 30 5.5 57.167 16.5 81.5s26.333 45.166 46 62.499s43.5 30.666 71.5 39.999s59 14 93 14c25.333 0 52 -1.83301 80 -5.5s58 -9.16699 90 -16.5l-4 -46c-62.667 15.333 -117.334 23 -164.001 23c-54 0 -97.167 -14 -129.5 -42s-48.5 -65 -48.5 -111
c0 -19.333 3 -36.666 9 -51.999s15.667 -29.166 29 -41.499s30.833 -23.833 52.5 -34.5s48.167 -21.334 79.5 -32.001s59.833 -21.834 85.5 -33.501s47.5 -25.667 65.5 -42s31.833 -35.666 41.5 -57.999s14.5 -49.166 14.5 -80.499c0 -62 -20.333 -110 -61 -144
s-98.334 -51 -173.001 -51z" />
    <glyph glyph-name="T" unicode="T" horiz-adv-x="539" 
d="M244 694h-229v46h509v-46h-230v-694h-50v694z" />
    <glyph glyph-name="U" unicode="U" horiz-adv-x="697" 
d="M349 -10c-92 0 -159.167 23.833 -201.5 71.5s-63.5 125.5 -63.5 233.5v445h49v-442c0 -47.333 4.5 -87.5 13.5 -120.5s22.5 -60 40.5 -81s40.5 -36.333 67.5 -46s58.5 -14.5 94.5 -14.5s67.5 4.83301 94.5 14.5s49.5 25 67.5 46s31.333 48 40 81s13 73.167 13 120.5v442
h50v-445c0 -108 -21.167 -185.833 -63.5 -233.5s-109.5 -71.5 -201.5 -71.5z" />
    <glyph glyph-name="V" unicode="V" horiz-adv-x="617" 
d="M10 740h52l198 -553l46 -134h4l47 134l198 553h52l-265 -740h-67z" />
    <glyph glyph-name="W" unicode="W" horiz-adv-x="937" 
d="M21 740h52l142 -538l36 -142h5l38 142l150 538h54l144 -538l37 -142h5l37 142l148 538h51l-206 -740h-66l-148 551l-27 114h-5l-29 -115l-154 -550h-66z" />
    <glyph glyph-name="X" unicode="X" horiz-adv-x="607" 
d="M271 377l-250 363h59l213 -310l10 -19h4l9 19l213 310h58l-252 -365l262 -375h-59l-224 323l-10 17h-3l-10 -17l-221 -323h-59z" />
    <glyph glyph-name="Y" unicode="Y" horiz-adv-x="567" 
d="M259 250l-253 490h54l193 -375l28 -63h5l28 63l193 375h54l-252 -487v-253h-50v250z" />
    <glyph glyph-name="Z" unicode="Z" horiz-adv-x="523" 
d="M33 38l386 652v4h-377v46h440v-37l-386 -653v-4h393v-46h-456v38z" />
    <glyph glyph-name="bracketleft" unicode="[" horiz-adv-x="294" 
d="M87 868h174v-42h-130v-944h130v-42h-174v1028z" />
    <glyph glyph-name="backslash" unicode="\" horiz-adv-x="327" 
d="M33 740h43l217 -860h-43z" />
    <glyph glyph-name="bracketright" unicode="]" horiz-adv-x="293" 
d="M32 -160v42h130v944h-130v42h175v-1028h-175z" />
    <glyph glyph-name="asciicircum" unicode="^" horiz-adv-x="414" 
d="M190 789h34l142 -308h-40l-117 259h-4l-118 -259h-39z" />
    <glyph glyph-name="underscore" unicode="_" horiz-adv-x="535" 
d="M52 -60h431v-45h-431v45z" />
    <glyph glyph-name="grave" unicode="`" horiz-adv-x="229" 
d="M133 614l-91 189h55l73 -179z" />
    <glyph glyph-name="a" unicode="a" horiz-adv-x="480" 
d="M173 -5c-43.333 0 -76.333 11.501 -99 34.501s-34 56.5 -34 100.5c0 50.667 16 89 48 115s82.333 42.333 151 49l119 11v62c0 49.333 -10 84.333 -30 105s-54.333 31 -103 31c-42 0 -90.333 -6 -145 -18l-5 44c30 5.33301 58 9.5 84 12.5s50.667 4.5 74 4.5
c60 0 104 -14 132 -42s42 -71.333 42 -130v-374h-40l-7 67h-5c-31.333 -20.667 -62 -37.834 -92 -51.501s-60 -20.5 -90 -20.5zM185 39.001c27.333 0 56.1689 7.33301 86.502 22s59.166 30.667 86.499 48v157l-109 -10c-58.667 -5.33301 -99.834 -17.333 -123.501 -36
s-35.5 -47.667 -35.5 -87c0 -62.667 31.667 -94 95 -94z" />
    <glyph glyph-name="b" unicode="b" horiz-adv-x="541" 
d="M248 -10c-26.667 0 -54.8301 1.66895 -84.4971 5.00195s-58.834 8 -87.501 14v799h49v-327c19.333 21.333 42.666 38.166 69.999 50.499s58 18.5 92 18.5c66.667 0 117.5 -22.333 152.5 -67s52.5 -113.667 52.5 -207c0 -43.333 -5 -82.333 -15 -117
s-25.167 -64.5 -45.5 -89.5s-45.833 -44.333 -76.5 -58s-66.334 -20.834 -107.001 -21.501zM249.004 33.002c62 0 109.499 19.499 142.499 58.499s49.5 99.833 49.5 182.5c0 80.667 -13.333 139.334 -40 176.001s-67 55 -121 55c-19.333 0 -38.166 -2.66699 -56.499 -8
s-34.833 -13 -49.5 -23s-26.5 -21.667 -35.5 -35s-13.5 -28 -13.5 -44v-351c19.333 -3.33301 39.5 -6 60.5 -8s42.167 -3 63.5 -3z" />
    <glyph glyph-name="c" unicode="c" horiz-adv-x="426" 
d="M282 -10c-155.333 0 -232.998 93.332 -232.998 279.999s77.667 280 233 280c14.667 0 30.667 -1.16699 48 -3.5s35.666 -5.5 54.999 -9.5v-46c-32 8.66699 -65 13 -99 13c-62.667 0 -109.334 -19.167 -140.001 -57.5s-46 -97.5 -46 -177.5
c0 -80.667 14.833 -139.667 44.5 -177s76.5 -56 140.5 -56c15.333 0 30.833 0.833008 46.5 2.5s33.167 4.83398 52.5 9.50098l1 -44c-13.333 -4 -29.5 -7.33301 -48.5 -10s-37.167 -4 -54.5 -4z" />
    <glyph glyph-name="d" unicode="d" horiz-adv-x="541" 
d="M255 -10c-68 0 -119.335 22.499 -154.002 67.499s-52 115.5 -52 211.5c0 46.667 5.66699 87.5 17 122.5s27.5 64.167 48.5 87.5s46.167 41 75.5 53s62.333 18 99 18c22.667 0 44.334 -1.16699 65.001 -3.5s41.334 -4.83301 62.001 -7.5v269h48v-808h-42l-5 62h-4
c-18 -23.333 -40.167 -41.166 -66.5 -53.499s-56.833 -18.5 -91.5 -18.5zM260.998 33.999c18.667 0 37.335 2.83398 56.002 8.50098s35.334 13.667 50.001 24s26.5 22.666 35.5 36.999s13.5 29.833 13.5 46.5v345c-20.667 3.33301 -41.334 6 -62.001 8s-42.334 3 -65.001 3
c-60.667 0 -107.334 -19.167 -140.001 -57.5s-49 -97.833 -49 -178.5s13.5 -140.167 40.5 -178.5s67.167 -57.5 120.5 -57.5z" />
    <glyph glyph-name="e" unicode="e" horiz-adv-x="492" 
d="M274 -9c-72.667 0 -128.167 23.001 -166.5 69.001s-57.5 112.333 -57.5 199c0 94.667 18.5 166.667 55.5 216s90.833 74 161.5 74c58.667 0 103.167 -19.833 133.5 -59.5s45.5 -97.834 45.5 -174.501c0 -28.667 -1.33301 -50.667 -4 -66h-343
c4 -142.667 63.667 -214 179 -214c23.333 0 46.5 2.5 69.5 7.5s47.833 12.833 74.5 23.5l5 -43c-22.667 -10 -47.5 -17.833 -74.5 -23.5s-53.167 -8.5 -78.5 -8.5zM267 506.001c-52 0 -92.1699 -18.333 -120.503 -55s-44.166 -90.334 -47.499 -161.001h299
c-1.33301 76.667 -12.166 131.834 -32.499 165.501s-53.166 50.5 -98.499 50.5z" />
    <glyph glyph-name="f" unicode="f" horiz-adv-x="310" 
d="M119 495l-102.001 -0.00195312v45h103v33c0 45.333 2.83301 82.833 8.5 112.5s16 53.334 31 71.001s35.5 30.5 61.5 38.5s59.333 13.333 100 16l2 -40c-32 -2.66699 -58.167 -7 -78.5 -13s-36.166 -15.5 -47.499 -28.5s-19 -30.667 -23 -53s-6 -51.166 -6 -86.499v-50
h128v-45h-128v-495h-49v495z" />
    <glyph glyph-name="g" unicode="g" horiz-adv-x="541" 
d="M239 -220c-26 0 -51.665 2.16504 -76.998 6.49805s-49.333 10.166 -72 17.499l4 44c24 -7.33301 48 -13.166 72 -17.499s48 -6.5 72 -6.5c28 0 53 3.66699 75 11s40.667 19.5 56 36.5s27.166 39.333 35.499 67s12.5 61.5 12.5 101.5v25h-4
c-18 -23.333 -40.167 -41.166 -66.5 -53.499s-56.5 -18.5 -90.5 -18.5c-68.667 0 -120.334 22.333 -155.001 67s-52 114.667 -52 210c0 46 5.66699 86.5 17 121.5s27.5 64.333 48.5 88s46.167 41.334 75.5 53.001s62.333 17.5 99 17.5c30 0 60 -1.83301 90 -5.5
s58.667 -9.16699 86 -16.5v-476c0 -52 -5.5 -95.333 -16.5 -130s-26.5 -62.5 -46.5 -83.5s-43.833 -36 -71.5 -45s-58.167 -13.5 -91.5 -13.5zM261.002 36.998c19.333 0 38.334 2.83301 57.001 8.5s35.167 13.5 49.5 23.5s26 22 35 36s13.5 29.333 13.5 46v344
c-21.333 3.33301 -42.333 6 -63 8s-42 3 -64 3c-60.667 0 -107.334 -19.167 -140.001 -57.5s-49 -97.5 -49 -177.5s13.5 -139 40.5 -177s67.167 -57 120.5 -57z" />
    <glyph glyph-name="h" unicode="h" horiz-adv-x="541" 
d="M77 808l49 -0.000976562v-330c46 24.667 85.5 42.834 118.5 54.501s64.167 17.5 93.5 17.5c44 0 76.5 -11.167 97.5 -33.5s31.5 -59.5 31.5 -111.5v-405h-49v392c0 40.667 -7.33301 69.5 -22 86.5s-37.667 25.5 -69 25.5c-28 0 -59 -6 -93 -18s-70 -28.667 -108 -50v-436
h-49v808z" />
    <glyph glyph-name="i" unicode="i" horiz-adv-x="205" 
d="M103 671c-24 0 -36 12 -36 36s12 36 36 36c24.667 0 37 -12 37 -36s-12.333 -36 -37 -36zM78 540h49v-540h-49v540z" />
    <glyph glyph-name="j" unicode="j" horiz-adv-x="203" 
d="M100 671c-24 0 -36 12 -36 36s12 36 36 36c24.667 0 37 -12 37 -36s-12.333 -36 -37 -36zM2 -200c26 45.333 45.167 93 57.5 143s18.5 107 18.5 171v426h49v-449c0 -55.333 -7.83301 -109.5 -23.5 -162.5s-38.167 -102.5 -67.5 -148.5z" />
    <glyph glyph-name="k" unicode="k" horiz-adv-x="488" 
d="M77 808h49v-510h98l188 242h57l-197 -253l-15 -9v-3l16 -10l212 -265h-57l-206 257h-96v-257h-49v808z" />
    <glyph glyph-name="l" unicode="l" horiz-adv-x="209" 
d="M80 808h49v-808h-49v808z" />
    <glyph glyph-name="m" unicode="m" horiz-adv-x="827" 
d="M77 540l39.998 -0.000976562l5 -61h4c40 24.667 74.333 42.667 103 54s56.334 17 83.001 17c62.667 0 102.334 -24.667 119.001 -74h4c41.333 26.667 76.666 45.667 105.999 57s57.333 17 84 17c44 0 76.5 -11.167 97.5 -33.5s31.5 -59.5 31.5 -111.5v-405h-49v392
c0 40 -7.33301 68.667 -22 86s-37.667 26 -69 26c-24 0 -50.333 -5.66699 -79 -17s-60 -27.666 -94 -48.999v-438h-49v392c0 40 -7.33301 68.667 -22 86s-37.667 26 -69 26c-25.333 0 -52.666 -5.83301 -81.999 -17.5s-60.333 -28.167 -93 -49.5v-437h-49v540z" />
    <glyph glyph-name="n" unicode="n" horiz-adv-x="541" 
d="M77 540h40.998l5 -61h4c46.667 24.667 86.334 42.667 119.001 54s63.334 17 92.001 17c44 0 76.5 -11.167 97.5 -33.5s31.5 -59.5 31.5 -111.5v-405h-49v392c0 40.667 -7.33301 69.5 -22 86.5s-37.667 25.5 -69 25.5c-28 0 -59 -6 -93 -18s-70 -28.667 -108 -50v-436h-49
v540z" />
    <glyph glyph-name="o" unicode="o" horiz-adv-x="537" 
d="M269 -9c-71.333 0 -125.833 23.8311 -163.5 71.498s-56.5 116.834 -56.5 207.501c0 91.333 18.833 160.833 56.5 208.5s92.167 71.5 163.5 71.5s125.666 -23.833 162.999 -71.5s56 -117.167 56 -208.5s-18.667 -160.666 -56 -207.999s-91.666 -71 -162.999 -71z
M269 34.998c112.667 0 169 78.333 169 235s-56.333 235 -169 235s-169 -78.333 -169 -235s56.333 -235 169 -235z" />
    <glyph glyph-name="p" unicode="p" horiz-adv-x="542" 
d="M77 540h43l4 -60h5c18 22 40.333 39.167 67 51.5s57 18.5 91 18.5c67.333 0 118.5 -22.333 153.5 -67s52.5 -113.667 52.5 -207c0 -43.333 -5.16699 -82.5 -15.5 -117.5s-25.666 -65 -45.999 -90s-45.833 -44.333 -76.5 -58s-66.334 -20.5 -107.001 -20.5
c-22 0 -43.5 1.16699 -64.5 3.5s-40.167 4.83301 -57.5 7.5v-221h-49v760zM250 33c61.333 0 108.67 19.5 142.003 58.5s50 99.833 50 182.5c0 80.667 -13.333 139.5 -40 176.5s-67 55.5 -121 55.5c-19.333 0 -38.333 -2.83301 -57 -8.5s-35.334 -13.5 -50.001 -23.5
s-26.334 -22 -35.001 -36s-13 -29.333 -13 -46v-348c18.667 -3.33301 38.667 -6 60 -8s42.666 -3 63.999 -3z" />
    <glyph glyph-name="q" unicode="q" horiz-adv-x="541" 
d="M417 62c-40 -48 -94 -72 -162 -72c-137.333 0 -206 93 -206 279c0 90 20.833 159.333 62.5 208s101.167 73 178.5 73c30.667 0 61.5 -1.83301 92.5 -5.5s58.5 -8.5 82.5 -14.5v-750h-48v282zM261 34c20 0 39.333 3.16797 58 9.50098s35.167 14.666 49.5 24.999
s25.833 22.5 34.5 36.5s13 29 13 45v345c-28 4 -51.667 6.83301 -71 8.5s-38 2.5 -56 2.5c-126 0 -189 -78.667 -189 -236s53.667 -236 161 -236z" />
    <glyph glyph-name="r" unicode="r" horiz-adv-x="340" 
d="M77 540h41l5 -68h4c33.333 18 65 33.833 95 47.5s60 23.5 90 29.5h15v-52h-17c-32 -4.66699 -63.5 -13.167 -94.5 -25.5s-60.833 -26.5 -89.5 -42.5v-429h-49v540z" />
    <glyph glyph-name="s" unicode="s" horiz-adv-x="413" 
d="M200 -11c-10 0 -20.165 0.328125 -30.498 0.995117s-21.5 2 -33.5 4l-40 7c-14.667 2.66699 -31.667 6 -51 10v45c27.333 -7.33301 53.666 -13 78.999 -17s49 -6 71 -6c40.667 0 71.834 9.5 93.501 28.5s32.5 45.5 32.5 79.5c0 34.667 -10.167 60.167 -30.5 76.5
s-47.5 28.5 -81.5 36.5c-18.667 4 -37.334 8.83301 -56.001 14.5s-35.5 13.834 -50.5 24.501s-27.167 25 -36.5 43s-14 41.667 -14 71c0 45.333 15.333 81 46 107s72.667 39 126 39c8.66699 0 17.167 -0.333008 25.5 -1s17.333 -1.66699 27 -3s20.5 -3.16602 32.5 -5.49902
l43 -8.5l-2 -45c-28 6.66699 -51.333 11.334 -70 14.001s-36.334 4 -53.001 4c-40.667 0 -71.834 -8.66699 -93.501 -26s-32.5 -42 -32.5 -74c0 -19.333 3.33301 -35.166 10 -47.499s15.5 -22.5 26.5 -30.5s23.833 -14.333 38.5 -19s30.334 -9 47.001 -13
c22 -6 42 -12.667 60 -20s33.5 -16.833 46.5 -28.5s23.167 -26.167 30.5 -43.5s11 -38.666 11 -63.999c0 -48 -15.5 -85.5 -46.5 -112.5s-72.5 -40.5 -124.5 -40.5z" />
    <glyph glyph-name="t" unicode="t" horiz-adv-x="356" 
d="M264 -6c-90 0 -135 47.667 -135 143v357h-114v46h115l7 126l40 7v-133h162v-46h-162v-350c0 -70.667 32.333 -106 97 -106c9.33301 0 20 0.833008 32 2.5s24 4.16699 36 7.5v-44c-27.333 -6.66699 -53.333 -10 -78 -10z" />
    <glyph glyph-name="u" unicode="u" horiz-adv-x="540" 
d="M200 -10c-44 0 -76.167 11.668 -96.5 35.001s-30.5 60 -30.5 110v405h49v-392c0 -39.333 7 -67.833 21 -85.5s36.667 -26.5 68 -26.5c32 0 64.167 6.66699 96.5 20s67.833 30.666 106.5 51.999v432h49v-540h-41l-5 64h-4l-65.5 -33c-19 -9.33301 -36.667 -17 -53 -23
s-32 -10.5 -47 -13.5s-30.833 -4.5 -47.5 -4.5z" />
    <glyph glyph-name="v" unicode="v" horiz-adv-x="497" 
d="M20 533v7h50l157 -439l19 -58h5l19 58l158 439h49v-7l-194 -533h-70z" />
    <glyph glyph-name="w" unicode="w" horiz-adv-x="729" 
d="M26 534v6h47l105 -397l20 -84h4l22 84l114 397h51l117 -397l23 -84h5l19 84l101 397h47v-6l-140 -534h-57l-120 405l-18 68h-5l-17 -68l-116 -405h-58z" />
    <glyph glyph-name="x" unicode="x" horiz-adv-x="495" 
d="M15 9l200 271l-189 254v6h54l137 -187l30 -42h4l30 42l135 187h53v-6l-189 -257l201 -268v-9h-53l-146 201l-34 45h-3l-33 -45l-145 -201h-52v9z" />
    <glyph glyph-name="y" unicode="y" horiz-adv-x="504" 
d="M146 -210l-1 7l81 206l-207 531v6h51l161 -419l19 -61h4l20 61l164 419h50v-6l-298 -754z" />
    <glyph glyph-name="z" unicode="z" horiz-adv-x="436" 
d="M36 34l287 458v4h-278v44h346v-31l-290 -460v-4h300v-44h-365v33z" />
    <glyph glyph-name="braceleft" unicode="{" horiz-adv-x="352" 
d="M31 379c24.667 0 43.999 9.33398 57.999 28.001s21 46 21 82v264c0 42.667 7.66699 72.5 23 89.5s43 25.5 83 25.5c6.66699 0 15.167 -0.166992 25.5 -0.5s20.833 -0.833008 31.5 -1.5s20.167 -1.16699 28.5 -1.5s13.833 -0.833008 16.5 -1.5v-37h-111
c-19.333 0 -32.833 -3.66699 -40.5 -11s-11.5 -20.333 -11.5 -39v-296c0 -30 -5.83301 -56.5 -17.5 -79.5s-27.834 -37.5 -48.501 -43.5c20.667 -6 36.834 -20.333 48.501 -43s17.5 -49 17.5 -79v-298c0 -18 3.83301 -30.667 11.5 -38s21.167 -11 40.5 -11h111v-38
c-2.66699 -0.666992 -8.16699 -1.33398 -16.5 -2.00098s-17.666 -1.16699 -27.999 -1.5l-31 -1c-10.333 -0.333008 -18.833 -0.5 -25.5 -0.5c-40 0 -67.833 8.5 -83.5 25.5s-23.5 47.167 -23.5 90.5v265c0 36 -7 63.333 -21 82s-33.333 28 -58 28v43z" />
    <glyph glyph-name="bar" unicode="|" horiz-adv-x="221" 
d="M134 808v-1028h-47v1028h47z" />
    <glyph glyph-name="braceright" unicode="}" horiz-adv-x="352" 
d="M322 336c-24.667 0 -44.167 -9.33398 -58.5 -28.001s-21.5 -46 -21.5 -82v-265c0 -22 -1.83301 -40.333 -5.5 -55s-9.66699 -26.5 -18 -35.5s-19.333 -15.5 -33 -19.5s-30.5 -6 -50.5 -6c-6.66699 0 -15.167 0.166992 -25.5 0.5l-31 1
c-10.333 0.333008 -19.666 0.833008 -27.999 1.5s-13.833 1.33398 -16.5 2.00098v38h111c19.333 0 32.833 3.66699 40.5 11s11.5 20 11.5 38v298c0 30 5.83301 56.333 17.5 79s28.167 37 49.5 43c-21.333 6 -37.833 20.5 -49.5 43.5s-17.5 49.5 -17.5 79.5v296
c0 18.667 -3.83301 31.667 -11.5 39s-21.167 11 -40.5 11h-111v37c2.66699 0.666992 8.33398 1.16699 17.001 1.5s18.167 0.833008 28.5 1.5s20.666 1.16699 30.999 1.5s18.833 0.5 25.5 0.5c20 0 36.833 -2 50.5 -6s24.667 -10.5 33 -19.5s14.166 -20.833 17.499 -35.5
s5 -32.667 5 -54v-264c0 -36 7.16699 -63.333 21.5 -82s33.833 -28 58.5 -28v-43z" />
    <glyph glyph-name="asciitilde" unicode="~" horiz-adv-x="579" 
d="M68 291c14.667 16 28.167 29.3311 40.5 39.998s24 19.334 35 26.001s22 11.334 33 14.001s22.833 4 35.5 4c17.333 0 32.833 -3.83301 46.5 -11.5s26.5 -16.334 38.5 -26.001s24 -18.334 36 -26.001s25.667 -11.5 41 -11.5c10 0 20 1.66699 30 5s19.5 8 28.5 14
s17.167 12.833 24.5 20.5s13 16.167 17 25.5l37 -18c-13.333 -24.667 -32.5 -46 -57.5 -64s-51.167 -27 -78.5 -27c-19.333 0 -36.5 3.83301 -51.5 11.5s-28.667 16.334 -41 26.001s-24 18.334 -35 26.001s-22.5 11.5 -34.5 11.5c-18 0 -35.5 -5 -52.5 -15
s-37.5 -27.667 -61.5 -53z" />
    <glyph glyph-name="uni00A0" unicode="&#xa0;" horiz-adv-x="230" 
 />
    <glyph glyph-name="exclamdown" unicode="&#xa1;" horiz-adv-x="208" 
d="M107 535c24.667 0 37 -11.665 37 -34.998c0 -10.667 -3.33301 -19.334 -10 -26.001s-15.667 -10 -27 -10s-20 3.16699 -26 9.5s-9 15.166 -9 26.499c0 23.333 11.667 35 35 35zM87 382.002h33v-14l8 -558v-10h-49v10l8 558v14z" />
    <glyph glyph-name="cent" unicode="&#xa2;" horiz-adv-x="447" 
d="M248 -8c-132 12.667 -198 105.331 -198 277.998c0 85.333 16.5 151.333 49.5 198s82.5 73.334 148.5 80.001v113h41v-111c14 -0.666992 29.167 -2.16699 45.5 -4.5s33.5 -5.16602 51.5 -8.49902v-46c-32 8.66699 -65 13 -99 13
c-62.667 0 -109.334 -19.167 -140.001 -57.5s-46 -97.5 -46 -177.5c0 -80.667 14.833 -139.667 44.5 -177s76.5 -56 140.5 -56c15.333 0 30.833 0.833008 46.5 2.5s33.167 4.83398 52.5 9.50098l1 -44c-13.333 -3.33301 -28.666 -6.33301 -45.999 -9
s-34.333 -4.33398 -51 -5.00098v-110h-41v112z" />
    <glyph glyph-name="sterling" unicode="&#xa3;" horiz-adv-x="570" 
d="M49 389l138.001 0.000976562v138c0 74 14 128.833 42 164.5s75 53.5 141 53.5c21.333 0 44.5 -2.33301 69.5 -7s52.5 -12 82.5 -22l-9 -44c-27.333 9.33301 -52.833 16.166 -76.5 20.499s-44.834 6.5 -63.501 6.5c-50 0 -85.333 -13.333 -106 -40s-31 -70.667 -31 -132
v-138h199v-45h-199v-298h273v-46h-460v46h138v298h-138v45z" />
    <glyph glyph-name="currency" unicode="&#xa4;" horiz-adv-x="580" 
d="M58 173l53.998 55.0039l51 36c-15.333 29.333 -23 64.666 -23 105.999c0 40.667 8 75.667 24 105l-52 38l-54 54l34 34l55 -54l33 -47c13.333 16.667 29.333 29.5 48 38.5s39.667 13.5 63 13.5c22.667 0 43 -4.5 61 -13.5s33.667 -21.5 47 -37.5l33 46l55 54l34 -34
l-54 -54l-52 -37c7.33301 -14.667 13.166 -30.834 17.499 -48.501s6.5 -36.834 6.5 -57.501c0 -42.667 -8 -78.334 -24 -107.001l52 -35l54 -55l-34 -34l-55 54l-33 46c-13.333 -16.667 -29.166 -29.5 -47.499 -38.5s-38.833 -13.5 -61.5 -13.5
c-23.333 0 -44.166 4.5 -62.499 13.5s-34.166 21.833 -47.499 38.5l-33 -46l-55 -54zM181.998 370.004c0 -44 9.83301 -78.333 29.5 -103s45.834 -37 78.501 -37s58.667 12.167 78 36.5s29 58.833 29 103.5c0 44 -9.5 78.167 -28.5 102.5s-45.167 36.5 -78.5 36.5
c-32.667 0 -58.834 -12 -78.501 -36s-29.5 -58.333 -29.5 -103z" />
    <glyph glyph-name="yen" unicode="&#xa5;" horiz-adv-x="611" 
d="M97 287h168l-234 453h54l193 -375l28 -63h5l28 63l193 375h54l-235 -453h151v-40h-168v-94h168v-41h-168v-112h-50v112h-187v41h187v94h-187v40z" />
    <glyph glyph-name="brokenbar" unicode="&#xa6;" horiz-adv-x="216" 
d="M84 203h48v-423h-48v423zM84 808h48v-423h-48v423z" />
    <glyph glyph-name="section" unicode="&#xa7;" horiz-adv-x="441" 
d="M213 -11c-10 0 -20.0029 0.330078 -30.0029 0.99707s-21 2 -33 4l-40 7c-14.667 2.66699 -31.667 6 -51 10v43c26.667 -7.33301 52.834 -12.833 78.501 -16.5s49.834 -5.5 72.501 -5.5c40 0 70.833 9.66699 92.5 29s32.5 46 32.5 80c0 34.667 -10.167 60.167 -30.5 76.5
s-47.5 28.5 -81.5 36.5c-18.667 4.66699 -37.334 9.66699 -56.001 15s-35.5 13.333 -50.5 24s-27.333 25 -37 43s-14.5 41.667 -14.5 71c0 41.333 13 74.333 39 99c-11.333 11.333 -20.666 25.166 -27.999 41.499s-11 37.166 -11 62.499c0 44.667 15.333 80 46 106
s72.667 39 126 39c8.66699 0 17.334 -0.333008 26.001 -1s17.834 -1.66699 27.501 -3s20.5 -3.16602 32.5 -5.49902l43 -8.5l-3 -44c-29.333 6.66699 -53 11.334 -71 14.001s-35 4 -51 4c-40.667 0 -72 -8.83301 -94 -26.5s-33 -42.5 -33 -74.5
c0 -19.333 3.33301 -35.166 10 -47.499s15.667 -22.5 27 -30.5s24.5 -14.333 39.5 -19s30.5 -9 46.5 -13c22 -6 42 -12.667 60 -20s33.5 -16.833 46.5 -28.5s23 -26.167 30 -43.5s10.5 -38.666 10.5 -63.999c0 -39.333 -12 -72.666 -36 -99.999
c11.333 -12 20.166 -26.167 26.499 -42.5s9.5 -36.166 9.5 -59.499c0 -46.667 -15.5 -83.834 -46.5 -111.501s-72.5 -41.5 -124.5 -41.5zM309.997 267.997c17.333 19.333 26 44 26 74c0 18 -2.66699 33.333 -8 46s-12.833 23.5 -22.5 32.5s-21.167 16.333 -34.5 22
s-28.333 10.5 -45 14.5l-41 10.5c-14 3.66699 -27 8.5 -39 14.5c-22 -18 -33 -42.667 -33 -74c0 -20 3.33301 -36.167 10 -48.5s15.5 -22.5 26.5 -30.5s23.833 -14.333 38.5 -19s29.667 -9 45 -13c14 -4 27.5 -8.33301 40.5 -13s25.167 -10 36.5 -16z" />
    <glyph glyph-name="dieresis" unicode="&#xa8;" horiz-adv-x="425" 
d="M100 652c-10.667 0 -19.167 2.83301 -25.5 8.5s-9.5 14.5 -9.5 26.5c0 11.333 3.16699 19.833 9.5 25.5s14.833 8.5 25.5 8.5c10 0 18.333 -2.83301 25 -8.5s10 -14.167 10 -25.5c0 -12 -3.33301 -20.833 -10 -26.5s-15 -8.5 -25 -8.5zM307 652
c-23.333 0 -35 11.667 -35 35c0 22.667 11.667 34 35 34c10 0 18.333 -2.83301 25 -8.5s10 -14.167 10 -25.5c0 -12 -3.33301 -20.833 -10 -26.5s-15 -8.5 -25 -8.5z" />
    <glyph glyph-name="copyright" unicode="&#xa9;" horiz-adv-x="848" 
d="M440 163c-56 0 -100.665 16.668 -133.998 50.001s-50 84 -50 152c0 69.333 16.833 121.166 50.5 155.499s78.167 51.5 133.5 51.5c14 0 28.167 -0.833008 42.5 -2.5s28.166 -3.83398 41.499 -6.50098v-41c-12.667 2.66699 -26 4.83398 -40 6.50098s-27.667 2.5 -41 2.5
c-44 0 -78.833 -13.5 -104.5 -40.5s-38.5 -68.5 -38.5 -124.5s13.167 -97.167 39.5 -123.5s60.5 -39.5 102.5 -39.5c13.333 0 27.166 1 41.499 3s28.5 4.33301 42.5 7v-39c-27.333 -7.33301 -56 -11 -86 -11zM424.002 -10.999c-56 0 -106.833 9.16699 -152.5 27.5
s-84.667 44.166 -117 77.499s-57.5 73.333 -75.5 120s-27 98.667 -27 156s9 109.333 27 156s43.167 86.667 75.5 120s71.333 59.166 117 77.499s96.5 27.5 152.5 27.5s106.833 -9.16699 152.5 -27.5s84.667 -44.166 117 -77.499s57.5 -73.333 75.5 -120s27 -98.667 27 -156
s-9 -109.333 -27 -156s-43.167 -86.667 -75.5 -120s-71.333 -59.166 -117 -77.499s-96.5 -27.5 -152.5 -27.5zM424.002 29.001c50 0 95.333 8.16699 136 24.5s75.5 39.333 104.5 69s51.5 65.5 67.5 107.5s24 88.667 24 140s-8 98 -24 140s-38.5 78 -67.5 108
s-63.833 53.167 -104.5 69.5s-86 24.5 -136 24.5s-95.5 -8.16699 -136.5 -24.5s-76 -39.5 -105 -69.5s-51.333 -66 -67 -108s-23.5 -88.667 -23.5 -140s7.83301 -98 23.5 -140s38 -77.833 67 -107.5s64 -52.667 105 -69s86.5 -24.5 136.5 -24.5z" />
    <glyph glyph-name="ordfeminine" unicode="&#xaa;" horiz-adv-x="403" 
d="M154 348c-32 0 -57.667 9.33105 -77 27.998s-29 43 -29 73c0 32.667 12.5 59 37.5 79s61.833 32.667 110.5 38l93 9v41c0 31.333 -7.33301 53.5 -22 66.5s-41.667 19.5 -81 19.5c-9.33301 0 -21.5 -0.5 -36.5 -1.5s-35.5 -3.83301 -61.5 -8.5l-7 42
c28 4.66699 51.5 7.83398 70.5 9.50098s35.167 2.5 48.5 2.5c48 0 82.333 -9.83301 103 -29.5s31 -51.167 31 -94.5v-270h-38l-5 47h-4c-28 -17.333 -52.333 -30.166 -73 -38.499s-40.667 -12.5 -60 -12.5zM162 387.998c16.667 0 34.332 3.16602 52.999 9.49902
s43.334 17.5 74.001 33.5v105l-50 -2c-55.333 -3.33301 -93.5 -11.166 -114.5 -23.499s-31.5 -31.5 -31.5 -57.5c0 -43.333 23 -65 69 -65z" />
    <glyph glyph-name="guillemotleft" unicode="&#xab;" horiz-adv-x="512" 
d="M38 268v4l151 238h53l-151 -238v-4l151 -238h-53zM260 268v4l151 238h53l-151 -238v-4l151 -238h-53z" />
    <glyph glyph-name="logicalnot" unicode="&#xac;" horiz-adv-x="757" 
d="M66 422h618v-303h-48v257h-570v46z" />
    <glyph glyph-name="uni00AD" unicode="&#xad;" horiz-adv-x="393" 
d="M68 303h257v-46h-257v46z" />
    <glyph glyph-name="registered" unicode="&#xae;" horiz-adv-x="722" 
d="M248 621c18 2.66699 34.668 4.66699 50.001 6s29.666 2 42.999 2c54 0 93.667 -8.83301 119 -26.5s38 -45.5 38 -83.5c0 -25.333 -6.66699 -46.5 -20 -63.5s-32 -29.167 -56 -36.5l-1 -4l90 -137h-45l-86 132h-94v-132h-38v343zM345.001 445
c76 0 114.001 24.667 114.001 74c0 26 -8.83301 44.833 -26.5 56.5s-46.834 17.5 -87.501 17.5c-8.66699 0 -17.5 -0.5 -26.5 -1.5l-32.5 -3.5v-142c7.33301 -0.666992 16.333 -1 27 -1h32zM361.002 139c-44.667 0 -85.667 7.66699 -123 23s-69.666 36.5 -96.999 63.5
s-48.666 59.333 -63.999 97s-23 78.5 -23 122.5c0 44.667 7.66699 85.834 23 123.501s36.666 70.167 63.999 97.5s59.666 48.666 96.999 63.999s78.333 23 123 23s85.834 -7.66699 123.501 -23s70.167 -36.666 97.5 -63.999s48.666 -59.833 63.999 -97.5
s23 -78.834 23 -123.501c0 -44 -7.66699 -84.833 -23 -122.5s-36.666 -70 -63.999 -97s-59.833 -48.167 -97.5 -63.5s-78.834 -23 -123.501 -23zM361.002 176c38.667 0 74.5 6.66699 107.5 20s61.5 32 85.5 56s42.667 52.333 56 85s20 68.667 20 108
s-6.66699 75.5 -20 108.5s-32 61.5 -56 85.5s-52.5 42.667 -85.5 56s-68.833 20 -107.5 20c-39.333 0 -75.5 -6.66699 -108.5 -20s-61.333 -32 -85 -56s-42.167 -52.5 -55.5 -85.5s-20 -69.167 -20 -108.5s6.66699 -75.333 20 -108s31.833 -61 55.5 -85s52 -42.667 85 -56
s69.167 -20 108.5 -20z" />
    <glyph glyph-name="macron" unicode="&#xaf;" horiz-adv-x="414" 
d="M61 693h276v-42h-276v42z" />
    <glyph glyph-name="degree" unicode="&#xb0;" horiz-adv-x="427" 
d="M214 375c-24 0 -46 4.66699 -66 14s-37.5 22.333 -52.5 39s-26.667 36.334 -35 59.001s-12.5 47.334 -12.5 74.001c0 26 4.16699 50.333 12.5 73s20 42.334 35 59.001s32.5 29.667 52.5 39s42 14 66 14c23.333 0 45.166 -4.66699 65.499 -14s37.833 -22.333 52.5 -39
s26.167 -36.334 34.5 -59.001s12.5 -47 12.5 -73c0 -26.667 -4.16699 -51.334 -12.5 -74.001s-19.833 -42.334 -34.5 -59.001s-32.167 -29.667 -52.5 -39s-42.166 -14 -65.499 -14zM214 415c18.667 0 35.667 3.66699 51 11s28.5 17.5 39.5 30.5s19.5 28.333 25.5 46
s9 37.167 9 58.5c0 20.667 -3 39.834 -9 57.501s-14.5 33 -25.5 46s-24.167 23.167 -39.5 30.5s-32.333 11 -51 11c-19.333 0 -36.666 -3.66699 -51.999 -11s-28.5 -17.5 -39.5 -30.5s-19.5 -28.333 -25.5 -46s-9 -36.834 -9 -57.501c0 -21.333 3 -40.833 9 -58.5
s14.5 -33 25.5 -46s24.167 -23.167 39.5 -30.5s32.666 -11 51.999 -11z" />
    <glyph glyph-name="plusminus" unicode="&#xb1;" 
d="M74 451h165v173h42v-173h165v-43h-165v-172h-42v172h-165v43zM74 149h372v-43h-372v43z" />
    <glyph glyph-name="twosuperior" unicode="&#xb2;" horiz-adv-x="378" 
d="M41 373c0 42.667 10.666 79.9971 31.999 111.997s57.333 64 108 96c38 24.667 64.833 46.834 80.5 66.501s23.5 41.834 23.5 66.501c0 63.333 -34.667 95 -104 95c-15.333 0 -32.333 -1.5 -51 -4.5s-40.667 -8.16699 -66 -15.5l-9 43c25.333 7.33301 48.5 12.5 69.5 15.5
s41.167 4.5 60.5 4.5c97.333 0 146 -45.333 146 -136c0 -16.667 -2.16699 -32.167 -6.5 -46.5s-11.333 -28.166 -21 -41.499s-22.167 -26.5 -37.5 -39.5s-34.333 -26.833 -57 -41.5c-21.333 -14 -39.5 -27.667 -54.5 -41s-27.167 -26.666 -36.5 -39.999
s-16.166 -27.333 -20.499 -42s-6.5 -30.334 -6.5 -47.001v-33h242v-43h-292v72z" />
    <glyph glyph-name="threesuperior" unicode="&#xb3;" horiz-adv-x="361" 
d="M142 294c-30 0 -61.666 3.66895 -94.999 11.002v41h9c11.333 -2.66699 24.666 -4.83398 39.999 -6.50098s29.333 -2.5 42 -2.5c42 0 74.333 9.66699 97 29s34 47 34 83c0 73.333 -44.333 110 -133 110h-39v42h39c38 0 67.167 9 87.5 27s30.5 44 30.5 78
c0 69.333 -37.333 104 -112 104c-22 0 -50 -3 -84 -9h-10l-4 40c17.333 4 34.5 7.16699 51.5 9.5s33.167 3.5 48.5 3.5c50 0 88.667 -12.833 116 -38.5s41 -61.5 41 -107.5c0 -30.667 -7.16699 -56.834 -21.5 -78.501s-34.833 -37.167 -61.5 -46.5
c64.667 -19.333 97 -65.333 97 -138c0 -48 -15 -85.167 -45 -111.5s-72.667 -39.5 -128 -39.5z" />
    <glyph glyph-name="acute" unicode="&#xb4;" horiz-adv-x="220" 
d="M49 616l74 183h51l-90 -189z" />
    <glyph glyph-name="mu" unicode="&#xb5;" horiz-adv-x="564" 
d="M85 540l49 -0.000976562v-404c0 -67.333 29.667 -101 89 -101c32 0 63.667 6.33301 95 19s67.333 29.667 108 51v435h49v-540h-41l-5 64h-4c-24.667 -13.333 -46.5 -24.666 -65.5 -33.999s-36.667 -17 -53 -23s-32 -10.333 -47 -13s-30.833 -4 -47.5 -4
c-32 0 -58 6.33301 -78 19v-229h-49v760z" />
    <glyph glyph-name="paragraph" unicode="&#xb6;" horiz-adv-x="531" 
d="M330 0l-40.001 -0.00390625v266c-5.33301 -0.666992 -11.666 -1 -18.999 -1h-19c-32 0 -61 4.16699 -87 12.5s-48.333 21.833 -67 40.5s-33 43.334 -43 74.001s-15 68.334 -15 113.001s5.16699 82.334 15.5 113.001s25 55.334 44 74.001s41.667 32.167 68 40.5
s55.833 12.5 88.5 12.5c13.333 0 25.5 -0.833008 36.5 -2.5s23.5 -4.16699 37.5 -7.5v-735zM434.999 -0.00390625h-45v735h45v-735z" />
    <glyph glyph-name="periodcentered" unicode="&#xb7;" horiz-adv-x="209" 
d="M104 332c-11.333 0 -20.5 3 -27.5 9s-10.5 15.667 -10.5 29s3.5 23 10.5 29s16.167 9 27.5 9s20.666 -3 27.999 -9s11 -15.667 11 -29s-3.66699 -23 -11 -29s-16.666 -9 -27.999 -9z" />
    <glyph glyph-name="cedilla" unicode="&#xb8;" horiz-adv-x="289" 
d="M106 -220c-24 0 -48.666 3.66797 -73.999 11.001v42c12 -4 23.167 -6.83301 33.5 -8.5s20.833 -2.5 31.5 -2.5c27.333 0 47 5.66699 59 17s18 29.666 18 54.999c0 17.333 -3.16699 35 -9.5 53s-16.5 39 -30.5 63h45c15.333 -27.333 25.666 -49.833 30.999 -67.5
s8 -34.5 8 -50.5c0 -36 -9.66699 -63.667 -29 -83s-47 -29 -83 -29z" />
    <glyph glyph-name="onesuperior" unicode="&#xb9;" horiz-adv-x="282" 
d="M158 786l-114 -69h-9l-11 25v8l148 96h32v-546h-46v486z" />
    <glyph glyph-name="ordmasculine" unicode="&#xba;" horiz-adv-x="436" 
d="M219 385c16.667 0 32.334 2.66699 47.001 8s27.5 14.333 38.5 27s19.667 29.334 26 50.001s9.5 46 9.5 76c0 30.667 -3.16699 56.167 -9.5 76.5s-15 36.833 -26 49.5s-23.833 21.667 -38.5 27s-30.334 8 -47.001 8c-17.333 0 -33.5 -2.66699 -48.5 -8
s-28 -14.333 -39 -27s-19.833 -29.167 -26.5 -49.5s-10 -45.833 -10 -76.5c0 -30 3.33301 -55.333 10 -76s15.5 -37.334 26.5 -50.001s24 -21.667 39 -27s31.167 -8 48.5 -8zM219 345c-52 0 -93 16.5 -123 49.5s-45 83.5 -45 151.5s15 118.5 45 151.5s71 49.5 123 49.5
c51.333 0 91.833 -16.5 121.5 -49.5s44.5 -83.5 44.5 -151.5s-14.833 -118.5 -44.5 -151.5s-70.167 -49.5 -121.5 -49.5z" />
    <glyph glyph-name="guillemotright" unicode="&#xbb;" horiz-adv-x="512" 
d="M102 30h-53l151 238v4l-151 238h53l151 -238v-4zM324 30h-53l151 238v4l-151 238h53l151 -238v-4z" />
    <glyph glyph-name="onequarter" unicode="&#xbc;" horiz-adv-x="849" 
d="M701 136h-230l-16 28l183 389h8l32 -9l1 -9l-170 -358h194l11 203h33v-203h73v-41h-73v-136h-46v136zM519 740h48l-317 -740h-48zM162 686l-114 -69h-9l-11 25v8l148 96h32v-546h-46v486z" />
    <glyph glyph-name="onehalf" unicode="&#xbd;" horiz-adv-x="888" 
d="M545 72c0 21.333 2.49902 41.001 7.49902 59.001s13 35.167 24 51.5s25.333 32.333 43 48s39.5 32.167 65.5 49.5c20 12.667 36.667 24.5 50 35.5s24 21.667 32 32s13.667 20.666 17 30.999s5 21.5 5 33.5c0 64 -34.333 96 -103 96
c-17.333 0 -36.166 -1.66699 -56.499 -5s-40.833 -8.33301 -61.5 -15l-9 43c25.333 6.66699 48.5 11.667 69.5 15s41.167 5 60.5 5c97.333 0 146 -45.333 146 -136c0 -16.667 -2 -31.834 -6 -45.501s-10.667 -27 -20 -40s-21.833 -26.167 -37.5 -39.5s-35.167 -28 -58.5 -44
c-22 -15.333 -40.667 -29.666 -56 -42.999s-27.5 -26.5 -36.5 -39.5s-15.5 -26.667 -19.5 -41s-6 -29.833 -6 -46.5v-33h242v-43h-292v72zM518.999 740.001h48l-317 -740h-48zM161.999 686.001l-114 -69h-9l-11 25v8l148 96h32v-546h-46v486z" />
    <glyph glyph-name="threequarters" unicode="&#xbe;" horiz-adv-x="928" 
d="M154 194c-30 0 -61.666 3.66895 -94.999 11.002v41h9c11.333 -2.66699 24.666 -4.83398 39.999 -6.50098s29.333 -2.5 42 -2.5c42 0 74.333 9.66699 97 29s34 47 34 83c0 73.333 -44.333 110 -133 110h-39v42h39c38 0 67.167 9 87.5 27s30.5 44 30.5 78
c0 69.333 -37.333 104 -112 104c-22 0 -50 -3 -84 -9h-10l-4 40c17.333 4 34.5 7.16699 51.5 9.5s33.167 3.5 48.5 3.5c50 0 88.667 -12.833 116 -38.5s41 -61.5 41 -107.5c0 -30.667 -7.16699 -56.834 -21.5 -78.501s-34.833 -37.167 -61.5 -46.5
c64.667 -19.333 97 -65.333 97 -138c0 -48 -15 -85.167 -45 -111.5s-72.667 -39.5 -128 -39.5zM780.001 136.002h-230l-16 28l183 389h8l32 -9l1 -9l-170 -358h194l11 203h33v-203h73v-41h-73v-136h-46v136zM588.001 740.002h48l-317 -740h-48z" />
    <glyph glyph-name="questiondown" unicode="&#xbf;" horiz-adv-x="413" 
d="M277 366l1.99902 -193.998c-20 -5.33301 -41.5 -11.833 -64.5 -19.5s-44.5 -18.167 -64.5 -31.5s-36.5 -30.333 -49.5 -51s-19.5 -46.667 -19.5 -78c0 -29.333 4.66699 -53.833 14 -73.5s21.5 -35.334 36.5 -47.001s31.667 -20 50 -25s36.833 -7.5 55.5 -7.5
c23.333 0 46.333 2.33301 69 7s45.334 10.667 68.001 18l12 -41c-22 -8 -46.167 -14.667 -72.5 -20s-53.5 -8 -81.5 -8c-24 0 -48 3.16699 -72 9.5s-45.333 17 -64 32s-33.834 35.167 -45.501 60.5s-17.5 56.666 -17.5 93.999c0 36 6.5 66.333 19.5 91s29.333 45 49 61
s41.334 28.833 65.001 38.5s46.5 17.5 68.5 23.5l-1 161v19h43v-19zM253.999 545.002c24 0 36 -11.666 36 -34.999c0 -24 -12 -36 -36 -36c-11.333 0 -20.166 3.16699 -26.499 9.5s-9.5 15.166 -9.5 26.499s3.16699 20 9.5 26s15.166 9 26.499 9z" />
    <glyph glyph-name="Agrave" unicode="&#xc0;" horiz-adv-x="611" 
d="M10 6l259 734h73l259 -734v-6h-49l-85 241h-323l-85 -241h-49v6zM452 286l-104 292l-40 118h-5l-40 -118l-104 -292h293zM284 794l-88 133h53l77 -119z" />
    <glyph glyph-name="Aacute" unicode="&#xc1;" horiz-adv-x="611" 
d="M10 6l259 734h73l259 -734v-6h-49l-85 241h-323l-85 -241h-49v6zM452 286l-104 292l-40 118h-5l-40 -118l-104 -292h293zM280 799l78 128h53l-89 -133z" />
    <glyph glyph-name="Acircumflex" unicode="&#xc2;" horiz-adv-x="611" 
d="M10 6l259 734h73l259 -734v-6h-49l-85 241h-323l-85 -241h-49v6zM452 286l-104 292l-40 118h-5l-40 -118l-104 -292h293zM165 866l141 72l142 -72v-49l-142 72l-141 -72v49z" />
    <glyph glyph-name="Atilde" unicode="&#xc3;" horiz-adv-x="611" 
d="M10 6l259 734h73l259 -734v-6h-49l-85 241h-323l-85 -241h-49v6zM452 286l-104 292l-40 118h-5l-40 -118l-104 -292h293zM138 858c14.667 16.667 30.998 30 48.998 40s36.333 15 55 15c14.667 0 28 -2.16699 40 -6.5s23.667 -9.16602 35 -14.499
s22.5 -10.166 33.5 -14.499s23.167 -6.5 36.5 -6.5c27.333 0 52.333 13 75 39l26 -23c-13.333 -17.333 -29.5 -31.333 -48.5 -42s-38.167 -16 -57.5 -16c-13.333 0 -26 2.16699 -38 6.5s-23.667 9.16602 -35 14.499s-22.833 10.166 -34.5 14.499s-23.5 6.5 -35.5 6.5
c-13.333 0 -26.666 -3.33301 -39.999 -10s-25.666 -15.667 -36.999 -27z" />
    <glyph glyph-name="Adieresis" unicode="&#xc4;" horiz-adv-x="611" 
d="M10 6l259 734h73l259 -734v-6h-49l-85 241h-323l-85 -241h-49v6zM452 286l-104 292l-40 118h-5l-40 -118l-104 -292h293zM195 822c-11.333 0 -20.5 2.83301 -27.5 8.5s-10.5 15.167 -10.5 28.5s3.5 23 10.5 29s16.167 9 27.5 9s20.5 -3 27.5 -9s10.5 -15.667 10.5 -29
s-3.5 -22.833 -10.5 -28.5s-16.167 -8.5 -27.5 -8.5zM418 822c-11.333 0 -20.666 2.83301 -27.999 8.5s-11 15.167 -11 28.5s3.66699 23 11 29s16.666 9 27.999 9c10.667 0 19.667 -3 27 -9s11 -15.667 11 -29s-3.66699 -22.833 -11 -28.5s-16.333 -8.5 -27 -8.5z" />
    <glyph glyph-name="Aring" unicode="&#xc5;" horiz-adv-x="611" 
d="M10 6l259 734h73l259 -734v-6h-49l-85 241h-323l-85 -241h-49v6zM452 286l-104 292l-40 118h-5l-40 -118l-104 -292h293zM307 758c-32 0 -57.833 9.83301 -77.5 29.5s-29.5 44.167 -29.5 73.5c0 30 9.83301 55 29.5 75s45.5 30 77.5 30s57.667 -10 77 -30s29 -45 29 -75
c0 -29.333 -9.66699 -53.833 -29 -73.5s-45 -29.5 -77 -29.5zM307 794c21.333 0 38 6.16699 50 18.5s18 28.5 18 48.5c0 20.667 -6 37.167 -18 49.5s-28.667 18.5 -50 18.5c-22 0 -39 -6.16699 -51 -18.5s-18 -28.833 -18 -49.5c0 -20 6 -36.167 18 -48.5s29 -18.5 51 -18.5
z" />
    <glyph glyph-name="AE" unicode="&#xc6;" horiz-adv-x="804" 
d="M9 6l283 734h456v-45h-325l13 -297h282v-45h-280l15 -308h305v-45h-354l-10 241h-243l-93 -241h-49v6zM169 287h223l-16 408h-49z" />
    <glyph glyph-name="Ccedilla" unicode="&#xc7;" horiz-adv-x="548" 
d="M288 -220c-24 0 -48.666 3.66797 -73.999 11.001v42c12 -4 23.167 -6.83301 33.5 -8.5s20.833 -2.5 31.5 -2.5c27.333 0 47 5.66699 59 17s18 29.666 18 54.999c0 15.333 -2.33301 30.833 -7 46.5s-12.667 33.167 -24 52.5c-92 8.66699 -160.167 43.667 -204.5 105
s-66.5 151.666 -66.5 270.999c0 130.667 25.667 226.667 77 288s130.666 92 237.999 92c19.333 0 41.833 -1.33301 67.5 -4s50.167 -6.33398 73.5 -11.001v-46c-22.667 4.66699 -46 8.33398 -70 11.001s-46 4 -66 4c-92 0 -160 -27 -204 -81s-66 -138.333 -66 -253
c0 -112.667 21.5 -196.167 64.5 -250.5s108.833 -81.5 197.5 -81.5c8.66699 0 19.167 0.5 31.5 1.5s25.166 2.16699 38.499 3.5s26.5 3 39.5 5s24.5 4 34.5 6v-44c-19.333 -4.66699 -41.666 -8.66699 -66.999 -12s-49.333 -5.33301 -72 -6
c11.333 -21.333 19 -39.666 23 -54.999s6 -30 6 -44c0 -36 -9.66699 -63.667 -29 -83s-47 -29 -83 -29z" />
    <glyph glyph-name="Egrave" unicode="&#xc8;" horiz-adv-x="562" 
d="M278 794l-88 133h53l77 -119zM91 740h414v-45h-365v-296h339v-45h-339v-309h374v-45h-423v740z" />
    <glyph glyph-name="Eacute" unicode="&#xc9;" horiz-adv-x="562" 
d="M272 799l78 128h53l-89 -133zM91 740h414v-45h-365v-296h339v-45h-339v-309h374v-45h-423v740z" />
    <glyph glyph-name="Ecircumflex" unicode="&#xca;" horiz-adv-x="562" 
d="M91 740h414v-45h-365v-296h339v-45h-339v-309h374v-45h-423v740zM158 866l141 72l142 -72v-49l-142 72l-141 -72v49z" />
    <glyph glyph-name="Edieresis" unicode="&#xcb;" horiz-adv-x="562" 
d="M188 822c-11.333 0 -20.5 2.83301 -27.5 8.5s-10.5 15.167 -10.5 28.5s3.5 23 10.5 29s16.167 9 27.5 9s20.5 -3 27.5 -9s10.5 -15.667 10.5 -29s-3.5 -22.833 -10.5 -28.5s-16.167 -8.5 -27.5 -8.5zM411 822c-11.333 0 -20.666 2.83301 -27.999 8.5s-11 15.167 -11 28.5
s3.66699 23 11 29s16.666 9 27.999 9c10.667 0 19.667 -3 27 -9s11 -15.667 11 -29s-3.66699 -22.833 -11 -28.5s-16.333 -8.5 -27 -8.5zM91 740h414v-45h-365v-296h339v-45h-339v-309h374v-45h-423v740z" />
    <glyph glyph-name="Igrave" unicode="&#xcc;" horiz-adv-x="230" 
d="M91 740h49v-740h-49v740zM96 794l-88 133h53l77 -119z" />
    <glyph glyph-name="Iacute" unicode="&#xcd;" horiz-adv-x="230" 
d="M91 740h49v-740h-49v740zM91 799l78 128h53l-89 -133z" />
    <glyph glyph-name="Icircumflex" unicode="&#xce;" horiz-adv-x="230" 
d="M91 740h49v-740h-49v740zM-24 866l141 72l142 -72v-49l-142 72l-141 -72v49z" />
    <glyph glyph-name="Idieresis" unicode="&#xcf;" horiz-adv-x="230" 
d="M91 740h49v-740h-49v740zM6 822c-11.333 0 -20.5 2.83301 -27.5 8.5s-10.5 15.167 -10.5 28.5s3.5 23 10.5 29s16.167 9 27.5 9s20.5 -3 27.5 -9s10.5 -15.667 10.5 -29s-3.5 -22.833 -10.5 -28.5s-16.167 -8.5 -27.5 -8.5zM229 822
c-11.333 0 -20.666 2.83301 -27.999 8.5s-11 15.167 -11 28.5s3.66699 23 11 29s16.666 9 27.999 9c10.667 0 19.667 -3 27 -9s11 -15.667 11 -29s-3.66699 -22.833 -11 -28.5s-16.333 -8.5 -27 -8.5z" />
    <glyph glyph-name="Eth" unicode="&#xd0;" horiz-adv-x="670" 
d="M3 391h96.001v345c14 2 28.667 3.83301 44 5.5s30.833 3 46.5 4s30.667 1.83301 45 2.5s27.166 1 38.499 1c118 0 204.667 -30.667 260 -92s83 -157 83 -287c0 -132 -29.333 -228.833 -88 -290.5s-151 -92.5 -277 -92.5c-31.333 0 -60.5 1 -87.5 3s-48.5 5 -64.5 9v347
h-96v45zM259.001 33c104.667 0 181.834 27.332 231.501 81.999s74.5 139.667 74.5 255c0 114.667 -23.333 198.834 -70 252.501s-120.334 80.5 -221.001 80.5c-18.667 0 -39.5 -0.666992 -62.5 -2s-44.167 -3.33301 -63.5 -6v-304h189v-45h-189v-305
c22.667 -3.33301 42 -5.5 58 -6.5s33.667 -1.5 53 -1.5z" />
    <glyph glyph-name="Ntilde" unicode="&#xd1;" horiz-adv-x="725" 
d="M197 858c14.667 16.667 30.998 30 48.998 40s36.333 15 55 15c14.667 0 28 -2.16699 40 -6.5s23.667 -9.16602 35 -14.499s22.5 -10.166 33.5 -14.499s23.167 -6.5 36.5 -6.5c27.333 0 52.333 13 75 39l26 -23c-13.333 -17.333 -29.5 -31.333 -48.5 -42
s-38.167 -16 -57.5 -16c-13.333 0 -26 2.16699 -38 6.5s-23.667 9.16602 -35 14.499s-22.833 10.166 -34.5 14.499s-23.5 6.5 -35.5 6.5c-13.333 0 -26.666 -3.33301 -39.999 -10s-25.666 -15.667 -36.999 -27zM90.998 740h48l388 -571l55 -88l5 1v658h47v-740h-49l-389 571
l-54 86h-4v-657h-47v740z" />
    <glyph glyph-name="Ograve" unicode="&#xd2;" horiz-adv-x="682" 
d="M319 794l-88 133h53l77 -119zM341 -10c-93.333 0 -164.5 31.666 -213.5 94.999s-73.5 158 -73.5 284c0 126.667 24.5 221.834 73.5 285.501s120.167 95.5 213.5 95.5s164.5 -32 213.5 -96s73.5 -159 73.5 -285s-24.5 -220.667 -73.5 -284s-120.167 -95 -213.5 -95z
M341 35.999c158 0 237.001 111 237.001 333c0 112 -19.833 195.833 -59.5 251.5s-98.834 83.5 -177.501 83.5c-158 0 -237 -111.667 -237 -335c0 -222 79 -333 237 -333z" />
    <glyph glyph-name="Oacute" unicode="&#xd3;" horiz-adv-x="682" 
d="M315 799l78 128h53l-89 -133zM341 -10c-93.333 0 -164.5 31.666 -213.5 94.999s-73.5 158 -73.5 284c0 126.667 24.5 221.834 73.5 285.501s120.167 95.5 213.5 95.5s164.5 -32 213.5 -96s73.5 -159 73.5 -285s-24.5 -220.667 -73.5 -284s-120.167 -95 -213.5 -95z
M341 35.999c158 0 237.001 111 237.001 333c0 112 -19.833 195.833 -59.5 251.5s-98.834 83.5 -177.501 83.5c-158 0 -237 -111.667 -237 -335c0 -222 79 -333 237 -333z" />
    <glyph glyph-name="Ocircumflex" unicode="&#xd4;" horiz-adv-x="682" 
d="M341 -10c-93.333 0 -164.5 31.666 -213.5 94.999s-73.5 158 -73.5 284c0 126.667 24.5 221.834 73.5 285.501s120.167 95.5 213.5 95.5s164.5 -32 213.5 -96s73.5 -159 73.5 -285s-24.5 -220.667 -73.5 -284s-120.167 -95 -213.5 -95zM341 35.999
c158 0 237.001 111 237.001 333c0 112 -19.833 195.833 -59.5 251.5s-98.834 83.5 -177.501 83.5c-158 0 -237 -111.667 -237 -335c0 -222 79 -333 237 -333zM199.001 865.999l141 72l142 -72v-49l-142 72l-141 -72v49z" />
    <glyph glyph-name="Otilde" unicode="&#xd5;" horiz-adv-x="682" 
d="M173 858c14.667 16.667 30.998 30 48.998 40s36.333 15 55 15c14.667 0 28 -2.16699 40 -6.5s23.667 -9.16602 35 -14.499s22.5 -10.166 33.5 -14.499s23.167 -6.5 36.5 -6.5c27.333 0 52.333 13 75 39l26 -23c-13.333 -17.333 -29.5 -31.333 -48.5 -42
s-38.167 -16 -57.5 -16c-13.333 0 -26 2.16699 -38 6.5s-23.667 9.16602 -35 14.499s-22.833 10.166 -34.5 14.499s-23.5 6.5 -35.5 6.5c-13.333 0 -26.666 -3.33301 -39.999 -10s-25.666 -15.667 -36.999 -27zM340.998 -10c-93.333 0 -164.5 31.666 -213.5 94.999
s-73.5 158 -73.5 284c0 126.667 24.5 221.834 73.5 285.501s120.167 95.5 213.5 95.5s164.5 -32 213.5 -96s73.5 -159 73.5 -285s-24.5 -220.667 -73.5 -284s-120.167 -95 -213.5 -95zM340.998 35.999c158 0 237.001 111 237.001 333c0 112 -19.833 195.833 -59.5 251.5
s-98.834 83.5 -177.501 83.5c-158 0 -237 -111.667 -237 -335c0 -222 79 -333 237 -333z" />
    <glyph glyph-name="Odieresis" unicode="&#xd6;" horiz-adv-x="682" 
d="M229 822c-11.333 0 -20.5 2.83301 -27.5 8.5s-10.5 15.167 -10.5 28.5s3.5 23 10.5 29s16.167 9 27.5 9s20.5 -3 27.5 -9s10.5 -15.667 10.5 -29s-3.5 -22.833 -10.5 -28.5s-16.167 -8.5 -27.5 -8.5zM452 822c-11.333 0 -20.666 2.83301 -27.999 8.5s-11 15.167 -11 28.5
s3.66699 23 11 29s16.666 9 27.999 9c10.667 0 19.667 -3 27 -9s11 -15.667 11 -29s-3.66699 -22.833 -11 -28.5s-16.333 -8.5 -27 -8.5zM341 -10c-93.333 0 -164.5 31.666 -213.5 94.999s-73.5 158 -73.5 284c0 126.667 24.5 221.834 73.5 285.501s120.167 95.5 213.5 95.5
s164.5 -32 213.5 -96s73.5 -159 73.5 -285s-24.5 -220.667 -73.5 -284s-120.167 -95 -213.5 -95zM341 35.999c158 0 237.001 111 237.001 333c0 112 -19.833 195.833 -59.5 251.5s-98.834 83.5 -177.501 83.5c-158 0 -237 -111.667 -237 -335c0 -222 79 -333 237 -333z" />
    <glyph glyph-name="multiply" unicode="&#xd7;" horiz-adv-x="451" 
d="M62 238l133 133l-133 133l30 30l133 -133l133 133l31 -30l-134 -133l134 -133l-30 -30l-134 133l-133 -133z" />
    <glyph glyph-name="Oslash" unicode="&#xd8;" horiz-adv-x="687" 
d="M117 104c-40 62.667 -60 150.999 -60 264.999c0 126.667 24.5 221.834 73.5 285.501s120.167 95.5 213.5 95.5c84.667 0 151 -26.667 199 -80l53 70h51l-78 -104c20 -32 35.333 -70 46 -114s16 -95 16 -153c0 -126 -24.5 -220.667 -73.5 -284s-120.167 -95 -213.5 -95
c-86 0 -153 27 -201 81l-53 -71h-51zM344 35.999c158.667 0 238.001 111 238.001 333c0 48 -3.83301 90.5 -11.5 127.5s-18.834 69.5 -33.501 97.5l-364 -484c39.333 -49.333 96.333 -74 171 -74zM107.001 368.999c0 -94 14 -168 42 -222l364 483
c-40 49.333 -96.333 74 -169 74c-158 0 -237 -111.667 -237 -335z" />
    <glyph glyph-name="Ugrave" unicode="&#xd9;" horiz-adv-x="697" 
d="M325 794l-88 133h53l77 -119zM349 -10c-92 0 -159.167 23.833 -201.5 71.5s-63.5 125.5 -63.5 233.5v445h49v-442c0 -47.333 4.5 -87.5 13.5 -120.5s22.5 -60 40.5 -81s40.5 -36.333 67.5 -46s58.5 -14.5 94.5 -14.5s67.5 4.83301 94.5 14.5s49.5 25 67.5 46
s31.333 48 40 81s13 73.167 13 120.5v442h50v-445c0 -108 -21.167 -185.833 -63.5 -233.5s-109.5 -71.5 -201.5 -71.5z" />
    <glyph glyph-name="Uacute" unicode="&#xda;" horiz-adv-x="697" 
d="M320 799l78 128h53l-89 -133zM349 -10c-92 0 -159.167 23.833 -201.5 71.5s-63.5 125.5 -63.5 233.5v445h49v-442c0 -47.333 4.5 -87.5 13.5 -120.5s22.5 -60 40.5 -81s40.5 -36.333 67.5 -46s58.5 -14.5 94.5 -14.5s67.5 4.83301 94.5 14.5s49.5 25 67.5 46
s31.333 48 40 81s13 73.167 13 120.5v442h50v-445c0 -108 -21.167 -185.833 -63.5 -233.5s-109.5 -71.5 -201.5 -71.5z" />
    <glyph glyph-name="Ucircumflex" unicode="&#xdb;" horiz-adv-x="697" 
d="M349 -10c-92 0 -159.167 23.833 -201.5 71.5s-63.5 125.5 -63.5 233.5v445h49v-442c0 -47.333 4.5 -87.5 13.5 -120.5s22.5 -60 40.5 -81s40.5 -36.333 67.5 -46s58.5 -14.5 94.5 -14.5s67.5 4.83301 94.5 14.5s49.5 25 67.5 46s31.333 48 40 81s13 73.167 13 120.5v442
h50v-445c0 -108 -21.167 -185.833 -63.5 -233.5s-109.5 -71.5 -201.5 -71.5zM205 866l141 72l142 -72v-49l-142 72l-141 -72v49z" />
    <glyph glyph-name="Udieresis" unicode="&#xdc;" horiz-adv-x="697" 
d="M236 822c-11.333 0 -20.5 2.83301 -27.5 8.5s-10.5 15.167 -10.5 28.5s3.5 23 10.5 29s16.167 9 27.5 9s20.5 -3 27.5 -9s10.5 -15.667 10.5 -29s-3.5 -22.833 -10.5 -28.5s-16.167 -8.5 -27.5 -8.5zM459 822c-11.333 0 -20.666 2.83301 -27.999 8.5s-11 15.167 -11 28.5
s3.66699 23 11 29s16.666 9 27.999 9c10.667 0 19.667 -3 27 -9s11 -15.667 11 -29s-3.66699 -22.833 -11 -28.5s-16.333 -8.5 -27 -8.5zM349 -10c-92 0 -159.167 23.833 -201.5 71.5s-63.5 125.5 -63.5 233.5v445h49v-442c0 -47.333 4.5 -87.5 13.5 -120.5
s22.5 -60 40.5 -81s40.5 -36.333 67.5 -46s58.5 -14.5 94.5 -14.5s67.5 4.83301 94.5 14.5s49.5 25 67.5 46s31.333 48 40 81s13 73.167 13 120.5v442h50v-445c0 -108 -21.167 -185.833 -63.5 -233.5s-109.5 -71.5 -201.5 -71.5z" />
    <glyph glyph-name="Yacute" unicode="&#xdd;" horiz-adv-x="567" 
d="M259 250l-253 490h54l193 -375l28 -63h5l28 63l193 375h54l-252 -487v-253h-50v250zM259 799l78 128h53l-89 -133z" />
    <glyph glyph-name="Thorn" unicode="&#xde;" horiz-adv-x="586" 
d="M91 741h49v-127c19.333 3.33301 38.333 5.5 57 6.5s37 1.5 55 1.5c101.333 0 175.5 -20 222.5 -60s70.5 -103.333 70.5 -190c0 -87.333 -23.5 -151 -70.5 -191s-122.167 -60 -225.5 -60c-32 0 -68.333 2 -109 6v-127h-49v741zM256 167
c42.667 0 79.167 3.83398 109.5 11.501s55.166 19.667 74.499 36s33.5 37.5 42.5 63.5s13.5 57.333 13.5 94c0 71.333 -19 123.166 -57 155.499s-99 48.5 -183 48.5c-18 0 -37.5 -0.666992 -58.5 -2s-40.167 -3.66602 -57.5 -6.99902v-391
c12.667 -2.66699 30.334 -4.83398 53.001 -6.50098s43.667 -2.5 63 -2.5z" />
    <glyph glyph-name="germandbls" unicode="&#xdf;" horiz-adv-x="565" 
d="M77 604c0 72.667 16.5029 125.33 49.5029 157.997s82.833 49 149.5 49s116.5 -16.5 149.5 -49.5s49.5 -85.5 49.5 -157.5v-95h-87c-40.667 0 -72.167 -8.83301 -94.5 -26.5s-33.5 -42.5 -33.5 -74.5c0 -20 3.33301 -36.167 10 -48.5s15.834 -22.5 27.501 -30.5
s25 -14.333 40 -19s30.5 -9 46.5 -13c21.333 -5.33301 41 -11.666 59 -18.999s33.5 -16.833 46.5 -28.5s23.167 -26.167 30.5 -43.5s11 -38.666 11 -63.999c0 -46.667 -15.5 -83.834 -46.5 -111.501s-72.5 -41.5 -124.5 -41.5c-10 0 -20 0.333008 -30 1s-21 2 -33 4l-40.5 7
c-15 2.66699 -32.167 6 -51.5 10v43c28 -7.33301 54.667 -12.833 80 -16.5s49.333 -5.5 72 -5.5c40 0 70.833 9.66699 92.5 29s32.5 46 32.5 80c0 17.333 -2.66699 32.333 -8 45s-13 23.334 -23 32.001s-21.833 15.834 -35.5 21.501s-28.834 10.5 -45.501 14.5
c-18.667 4.66699 -37.334 9.66699 -56.001 15s-35.5 13.333 -50.5 24s-27.333 25 -37 43s-14.5 41.667 -14.5 71c0 45.333 15.5 81 46.5 107s73.167 39 126.5 39h41v51c0 58 -11.833 99.333 -35.5 124s-61.834 37 -114.501 37s-90.834 -12.167 -114.501 -36.5
s-35.5 -65.833 -35.5 -124.5v-604h-49v604z" />
    <glyph glyph-name="agrave" unicode="&#xe0;" horiz-adv-x="480" 
d="M173 -5c-43.333 0 -76.333 11.501 -99 34.501s-34 56.5 -34 100.5c0 50.667 16 89 48 115s82.333 42.333 151 49l119 11v62c0 49.333 -10 84.333 -30 105s-54.333 31 -103 31c-42 0 -90.333 -6 -145 -18l-5 44c30 5.33301 58 9.5 84 12.5s50.667 4.5 74 4.5
c60 0 104 -14 132 -42s42 -71.333 42 -130v-374h-40l-7 67h-5c-31.333 -20.667 -62 -37.834 -92 -51.501s-60 -20.5 -90 -20.5zM185 39.001c27.333 0 56.1689 7.33301 86.502 22s59.166 30.667 86.499 48v157l-109 -10c-58.667 -5.33301 -99.834 -17.333 -123.501 -36
s-35.5 -47.667 -35.5 -87c0 -62.667 31.667 -94 95 -94zM227.003 614.001l-91 189h55l73 -179z" />
    <glyph glyph-name="aacute" unicode="&#xe1;" horiz-adv-x="480" 
d="M173 -5c-43.333 0 -76.333 11.501 -99 34.501s-34 56.5 -34 100.5c0 50.667 16 89 48 115s82.333 42.333 151 49l119 11v62c0 49.333 -10 84.333 -30 105s-54.333 31 -103 31c-42 0 -90.333 -6 -145 -18l-5 44c30 5.33301 58 9.5 84 12.5s50.667 4.5 74 4.5
c60 0 104 -14 132 -42s42 -71.333 42 -130v-374h-40l-7 67h-5c-31.333 -20.667 -62 -37.834 -92 -51.501s-60 -20.5 -90 -20.5zM185 39.001c27.333 0 56.1689 7.33301 86.502 22s59.166 30.667 86.499 48v157l-109 -10c-58.667 -5.33301 -99.834 -17.333 -123.501 -36
s-35.5 -47.667 -35.5 -87c0 -62.667 31.667 -94 95 -94zM227.003 616.001l74 183h51l-90 -189z" />
    <glyph glyph-name="acircumflex" unicode="&#xe2;" horiz-adv-x="480" 
d="M173 -5c-43.333 0 -76.333 11.501 -99 34.501s-34 56.5 -34 100.5c0 50.667 16 89 48 115s82.333 42.333 151 49l119 11v62c0 49.333 -10 84.333 -30 105s-54.333 31 -103 31c-42 0 -90.333 -6 -145 -18l-5 44c30 5.33301 58 9.5 84 12.5s50.667 4.5 74 4.5
c60 0 104 -14 132 -42s42 -71.333 42 -130v-374h-40l-7 67h-5c-31.333 -20.667 -62 -37.834 -92 -51.501s-60 -20.5 -90 -20.5zM185 39.001c27.333 0 56.1689 7.33301 86.502 22s59.166 30.667 86.499 48v157l-109 -10c-58.667 -5.33301 -99.834 -17.333 -123.501 -36
s-35.5 -47.667 -35.5 -87c0 -62.667 31.667 -94 95 -94zM102.003 688.001l141 72l142 -72v-49l-142 72l-141 -72v49z" />
    <glyph glyph-name="atilde" unicode="&#xe3;" horiz-adv-x="480" 
d="M173 -5c-43.333 0 -76.333 11.501 -99 34.501s-34 56.5 -34 100.5c0 50.667 16 89 48 115s82.333 42.333 151 49l119 11v62c0 49.333 -10 84.333 -30 105s-54.333 31 -103 31c-42 0 -90.333 -6 -145 -18l-5 44c30 5.33301 58 9.5 84 12.5s50.667 4.5 74 4.5
c60 0 104 -14 132 -42s42 -71.333 42 -130v-374h-40l-7 67h-5c-31.333 -20.667 -62 -37.834 -92 -51.501s-60 -20.5 -90 -20.5zM185 39.001c27.333 0 56.1689 7.33301 86.502 22s59.166 30.667 86.499 48v157l-109 -10c-58.667 -5.33301 -99.834 -17.333 -123.501 -36
s-35.5 -47.667 -35.5 -87c0 -62.667 31.667 -94 95 -94zM67.0029 674.001c14.667 16.667 31.167 30 49.5 40s36.5 15 54.5 15c14.667 0 28 -2.33301 40 -7s23.667 -9.66699 35 -15s22.5 -10.333 33.5 -15s23.167 -7 36.5 -7c27.333 0 52.333 13 75 39l26 -23
c-12.667 -17.333 -28.5 -31.333 -47.5 -42s-38.5 -16 -58.5 -16c-13.333 0 -26 2.16699 -38 6.5s-23.667 9.33301 -35 15s-22.833 10.667 -34.5 15s-23.5 6.5 -35.5 6.5c-26.667 0 -52 -12.667 -76 -38z" />
    <glyph glyph-name="adieresis" unicode="&#xe4;" horiz-adv-x="480" 
d="M173 -5c-43.333 0 -76.333 11.501 -99 34.501s-34 56.5 -34 100.5c0 50.667 16 89 48 115s82.333 42.333 151 49l119 11v62c0 49.333 -10 84.333 -30 105s-54.333 31 -103 31c-42 0 -90.333 -6 -145 -18l-5 44c30 5.33301 58 9.5 84 12.5s50.667 4.5 74 4.5
c60 0 104 -14 132 -42s42 -71.333 42 -130v-374h-40l-7 67h-5c-31.333 -20.667 -62 -37.834 -92 -51.501s-60 -20.5 -90 -20.5zM185 39.001c27.333 0 56.1689 7.33301 86.502 22s59.166 30.667 86.499 48v157l-109 -10c-58.667 -5.33301 -99.834 -17.333 -123.501 -36
s-35.5 -47.667 -35.5 -87c0 -62.667 31.667 -94 95 -94zM140.003 652.001c-10.667 0 -19.167 2.83301 -25.5 8.5s-9.5 14.5 -9.5 26.5c0 11.333 3.16699 19.833 9.5 25.5s14.833 8.5 25.5 8.5c10 0 18.333 -2.83301 25 -8.5s10 -14.167 10 -25.5
c0 -12 -3.33301 -20.833 -10 -26.5s-15 -8.5 -25 -8.5zM347.003 652.001c-23.333 0 -35 11.667 -35 35c0 22.667 11.667 34 35 34c10 0 18.333 -2.83301 25 -8.5s10 -14.167 10 -25.5c0 -12 -3.33301 -20.833 -10 -26.5s-15 -8.5 -25 -8.5z" />
    <glyph glyph-name="aring" unicode="&#xe5;" horiz-adv-x="480" 
d="M173 -5c-43.333 0 -76.333 11.501 -99 34.501s-34 56.5 -34 100.5c0 50.667 16 89 48 115s82.333 42.333 151 49l119 11v62c0 49.333 -10 84.333 -30 105s-54.333 31 -103 31c-42 0 -90.333 -6 -145 -18l-5 44c30 5.33301 58 9.5 84 12.5s50.667 4.5 74 4.5
c60 0 104 -14 132 -42s42 -71.333 42 -130v-374h-40l-7 67h-5c-31.333 -20.667 -62 -37.834 -92 -51.501s-60 -20.5 -90 -20.5zM185 39.001c27.333 0 56.1689 7.33301 86.502 22s59.166 30.667 86.499 48v157l-109 -10c-58.667 -5.33301 -99.834 -17.333 -123.501 -36
s-35.5 -47.667 -35.5 -87c0 -62.667 31.667 -94 95 -94zM243.003 610.001c-32 0 -57.833 9.83301 -77.5 29.5s-29.5 44.167 -29.5 73.5c0 30 9.66699 55 29 75s45.333 30 78 30c32 0 57.667 -10 77 -30s29 -45 29 -75c0 -29.333 -9.66699 -53.833 -29 -73.5
s-45 -29.5 -77 -29.5zM243.003 646.001c21.333 0 38 6.33301 50 19s18 28.667 18 48c0 20.667 -6 37.167 -18 49.5s-28.667 18.5 -50 18.5c-22 0 -38.833 -6.16699 -50.5 -18.5s-17.5 -28.833 -17.5 -49.5c0 -20 6 -36.167 18 -48.5s28.667 -18.5 50 -18.5z" />
    <glyph glyph-name="ae" unicode="&#xe6;" horiz-adv-x="802" 
d="M584 -9c-44 0 -81.502 8.33008 -112.502 24.9971s-55.167 40.667 -72.5 72l-4 1c-27.333 -17.333 -51.666 -32 -72.999 -44s-40.666 -21.667 -57.999 -29s-33.333 -12.666 -48 -15.999s-29 -5 -43 -5c-43.333 0 -76.333 11.5 -99 34.5s-34 56.5 -34 100.5
c0 50 16 88.333 48 115s82.333 43 151 49l120 10v65c0 48.667 -10.333 83.167 -31 103.5s-55 30.5 -103 30.5c-42 0 -90.333 -6 -145 -18l-5 44c30 5.33301 58 9.5 84 12.5s50.667 4.5 74 4.5c90.667 0 144 -36 160 -108l5 -1c16.667 36 39.834 63.667 69.501 83
s66.5 29 110.5 29c58 0 102.167 -20 132.5 -60s45.5 -97.667 45.5 -173c0 -15.333 -0.333008 -28.166 -1 -38.499s-1.66699 -19.5 -3 -27.5h-344c1.33301 -70.667 17.166 -124.167 47.499 -160.5s74.5 -54.5 132.5 -54.5c23.333 0 46.333 2.33301 69 7
s47.667 12.334 75 23.001l5 -43c-23.333 -9.33301 -48.5 -16.833 -75.5 -22.5s-52.833 -8.5 -77.5 -8.5zM184.998 38.9971c25.333 0 52.666 6.66602 81.999 19.999s63 32.666 101 57.999c-1.33301 4 -2.66602 12.833 -3.99902 26.5s-2.33301 28.5 -3 44.5
s-1.16699 31.333 -1.5 46s-0.5 25.334 -0.5 32.001l-110 -9c-58 -5.33301 -99 -17.666 -123 -36.999s-36 -48.333 -36 -87c0 -62.667 31.667 -94 95 -94zM706.998 289.996c-2 76.667 -13.167 131.667 -33.5 165s-52.5 50 -96.5 50c-52 0 -92.333 -18.167 -121 -54.5
s-44.667 -89.833 -48 -160.5h299z" />
    <glyph glyph-name="ccedilla" unicode="&#xe7;" horiz-adv-x="426" 
d="M201 -220c-24 0 -48.666 3.66895 -73.999 11.002v42c12 -4 23.167 -6.83301 33.5 -8.5s20.833 -2.5 31.5 -2.5c27.333 0 47 5.66699 59 17s18 29.666 18 54.999c0 15.333 -2.33301 30.833 -7 46.5s-12.334 33.167 -23.001 52.5
c-127.333 15.333 -191 107.666 -191 276.999c0 186.667 77.667 280 233 280c14.667 0 30.667 -1.16699 48 -3.5s35.666 -5.5 54.999 -9.5v-46c-32 8.66699 -65 13 -99 13c-62.667 0 -109.334 -19.167 -140.001 -57.5s-46 -97.5 -46 -177.5
c0 -80.667 14.833 -139.667 44.5 -177s76.5 -56 140.5 -56c15.333 0 30.833 0.833008 46.5 2.5s33.167 4.83398 52.5 9.50098l2 -44c-13.333 -3.33301 -29.166 -6.33301 -47.499 -9s-36.166 -4.33398 -53.499 -5.00098c11.333 -21.333 19 -39.5 23 -54.5s6 -29.5 6 -43.5
c0 -36 -9.66699 -63.667 -29 -83s-47 -29 -83 -29z" />
    <glyph glyph-name="egrave" unicode="&#xe8;" horiz-adv-x="492" 
d="M274 -9c-72.667 0 -128.167 23.001 -166.5 69.001s-57.5 112.333 -57.5 199c0 94.667 18.5 166.667 55.5 216s90.833 74 161.5 74c58.667 0 103.167 -19.833 133.5 -59.5s45.5 -97.834 45.5 -174.501c0 -28.667 -1.33301 -50.667 -4 -66h-343
c4 -142.667 63.667 -214 179 -214c23.333 0 46.5 2.5 69.5 7.5s47.833 12.833 74.5 23.5l5 -43c-22.667 -10 -47.5 -17.833 -74.5 -23.5s-53.167 -8.5 -78.5 -8.5zM267 506.001c-52 0 -92.1699 -18.333 -120.503 -55s-44.166 -90.334 -47.499 -161.001h299
c-1.33301 76.667 -12.166 131.834 -32.499 165.501s-53.166 50.5 -98.499 50.5zM234.997 614.001l-91 189h55l73 -179z" />
    <glyph glyph-name="eacute" unicode="&#xe9;" horiz-adv-x="492" 
d="M244 616l74 183h51l-90 -189zM274 -9c-72.667 0 -128.167 23.001 -166.5 69.001s-57.5 112.333 -57.5 199c0 94.667 18.5 166.667 55.5 216s90.833 74 161.5 74c58.667 0 103.167 -19.833 133.5 -59.5s45.5 -97.834 45.5 -174.501c0 -28.667 -1.33301 -50.667 -4 -66
h-343c4 -142.667 63.667 -214 179 -214c23.333 0 46.5 2.5 69.5 7.5s47.833 12.833 74.5 23.5l5 -43c-22.667 -10 -47.5 -17.833 -74.5 -23.5s-53.167 -8.5 -78.5 -8.5zM267 506.001c-52 0 -92.1699 -18.333 -120.503 -55s-44.166 -90.334 -47.499 -161.001h299
c-1.33301 76.667 -12.166 131.834 -32.499 165.501s-53.166 50.5 -98.499 50.5z" />
    <glyph glyph-name="ecircumflex" unicode="&#xea;" horiz-adv-x="492" 
d="M115 688l141 72l142 -72v-49l-142 72l-141 -72v49zM274 -9c-72.667 0 -128.167 23.001 -166.5 69.001s-57.5 112.333 -57.5 199c0 94.667 18.5 166.667 55.5 216s90.833 74 161.5 74c58.667 0 103.167 -19.833 133.5 -59.5s45.5 -97.834 45.5 -174.501
c0 -28.667 -1.33301 -50.667 -4 -66h-343c4 -142.667 63.667 -214 179 -214c23.333 0 46.5 2.5 69.5 7.5s47.833 12.833 74.5 23.5l5 -43c-22.667 -10 -47.5 -17.833 -74.5 -23.5s-53.167 -8.5 -78.5 -8.5zM267 506.001c-52 0 -92.1699 -18.333 -120.503 -55
s-44.166 -90.334 -47.499 -161.001h299c-1.33301 76.667 -12.166 131.834 -32.499 165.501s-53.166 50.5 -98.499 50.5z" />
    <glyph glyph-name="edieresis" unicode="&#xeb;" horiz-adv-x="492" 
d="M153 652c-10.667 0 -19.167 2.83301 -25.5 8.5s-9.5 14.5 -9.5 26.5c0 11.333 3.16699 19.833 9.5 25.5s14.833 8.5 25.5 8.5c10 0 18.333 -2.83301 25 -8.5s10 -14.167 10 -25.5c0 -12 -3.33301 -20.833 -10 -26.5s-15 -8.5 -25 -8.5zM360 652
c-23.333 0 -35 11.667 -35 35c0 22.667 11.667 34 35 34c10 0 18.333 -2.83301 25 -8.5s10 -14.167 10 -25.5c0 -12 -3.33301 -20.833 -10 -26.5s-15 -8.5 -25 -8.5zM274 -9c-72.667 0 -128.167 23.001 -166.5 69.001s-57.5 112.333 -57.5 199
c0 94.667 18.5 166.667 55.5 216s90.833 74 161.5 74c58.667 0 103.167 -19.833 133.5 -59.5s45.5 -97.834 45.5 -174.501c0 -28.667 -1.33301 -50.667 -4 -66h-343c4 -142.667 63.667 -214 179 -214c23.333 0 46.5 2.5 69.5 7.5s47.833 12.833 74.5 23.5l5 -43
c-22.667 -10 -47.5 -17.833 -74.5 -23.5s-53.167 -8.5 -78.5 -8.5zM267 506.001c-52 0 -92.1699 -18.333 -120.503 -55s-44.166 -90.334 -47.499 -161.001h299c-1.33301 76.667 -12.166 131.834 -32.499 165.501s-53.166 50.5 -98.499 50.5z" />
    <glyph glyph-name="igrave" unicode="&#xec;" horiz-adv-x="205" 
d="M78 540h49v-540h-49v540zM86 614l-91 189h55l73 -179z" />
    <glyph glyph-name="iacute" unicode="&#xed;" horiz-adv-x="205" 
d="M88 616l74 183h51l-90 -189zM78 540h49v-540h-49v540z" />
    <glyph glyph-name="icircumflex" unicode="&#xee;" horiz-adv-x="206" 
d="M-36 688l140 72l141 -72v-49l-140 72l-141 -72v49zM79 540h49v-540h-49v540z" />
    <glyph glyph-name="idieresis" unicode="&#xef;" horiz-adv-x="206" 
d="M2 652c-11.333 0 -20.166 2.83301 -26.499 8.5s-9.5 14.5 -9.5 26.5c0 11.333 3.16699 19.833 9.5 25.5s15.166 8.5 26.499 8.5c10 0 18.333 -2.83301 25 -8.5s10 -14.167 10 -25.5c0 -12 -3.33301 -20.833 -10 -26.5s-15 -8.5 -25 -8.5zM207 652
c-11.333 0 -20.166 2.83301 -26.499 8.5s-9.5 14.5 -9.5 26.5c0 11.333 3.16699 19.833 9.5 25.5s15.166 8.5 26.499 8.5c9.33301 0 17.5 -2.83301 24.5 -8.5s10.5 -14.167 10.5 -25.5c0 -12 -3.5 -20.833 -10.5 -26.5s-15.167 -8.5 -24.5 -8.5zM79 540h49v-540h-49v540z
" />
    <glyph glyph-name="eth" unicode="&#xf0;" horiz-adv-x="546" 
d="M217 674l126.001 16.9961c-10.667 20.667 -22.167 40.667 -34.5 60s-25.5 38.333 -39.5 57h54c12 -17.333 23.667 -35.166 35 -53.499s22 -37.166 32 -56.499l127 17v-42l-109 -15c25.333 -56.667 45 -116.5 59 -179.5s21 -127.167 21 -192.5
c0 -96 -18.833 -169.167 -56.5 -219.5s-91.834 -75.5 -162.501 -75.5c-71.333 0 -125.833 23.833 -163.5 71.5s-56.5 116.834 -56.5 207.501c0 91.333 18.833 160.833 56.5 208.5s91.834 71.5 162.501 71.5c36 0 66.333 -7.16699 91 -21.5s45.667 -36.833 63 -67.5
c-6.66699 33.333 -14.834 65.833 -24.501 97.5s-21.5 62.834 -35.5 93.501l-145 -20v42zM269.001 34.9961c112.667 0 169 82.668 169 248.001c0 27.333 -3 54.166 -9 80.499s-15.833 50 -29.5 71s-31.167 38 -52.5 51s-47.333 19.5 -78 19.5
c-112.667 0 -169 -78.333 -169 -235s56.333 -235 169 -235z" />
    <glyph glyph-name="ntilde" unicode="&#xf1;" horiz-adv-x="541" 
d="M77 540h40.998l5 -61h4c46.667 24.667 86.334 42.667 119.001 54s63.334 17 92.001 17c44 0 76.5 -11.167 97.5 -33.5s31.5 -59.5 31.5 -111.5v-405h-49v392c0 40.667 -7.33301 69.5 -22 86.5s-37.667 25.5 -69 25.5c-28 0 -59 -6 -93 -18s-70 -28.667 -108 -50v-436h-49
v540zM98.998 674c14.667 16.667 31.167 30 49.5 40s36.5 15 54.5 15c14.667 0 28 -2.33301 40 -7s23.667 -9.66699 35 -15s22.5 -10.333 33.5 -15s23.167 -7 36.5 -7c27.333 0 52.333 13 75 39l26 -23c-12.667 -17.333 -28.5 -31.333 -47.5 -42s-38.5 -16 -58.5 -16
c-13.333 0 -26 2.16699 -38 6.5s-23.667 9.33301 -35 15s-22.833 10.667 -34.5 15s-23.5 6.5 -35.5 6.5c-26.667 0 -52 -12.667 -76 -38z" />
    <glyph glyph-name="ograve" unicode="&#xf2;" horiz-adv-x="537" 
d="M269 -9c-71.333 0 -125.833 23.8311 -163.5 71.498s-56.5 116.834 -56.5 207.501c0 91.333 18.833 160.833 56.5 208.5s92.167 71.5 163.5 71.5s125.666 -23.833 162.999 -71.5s56 -117.167 56 -208.5s-18.667 -160.666 -56 -207.999s-91.666 -71 -162.999 -71z
M269 34.998c112.667 0 169 78.333 169 235s-56.333 235 -169 235s-169 -78.333 -169 -235s56.333 -235 169 -235zM245 613.998l-91 189h55l73 -179z" />
    <glyph glyph-name="oacute" unicode="&#xf3;" horiz-adv-x="537" 
d="M246 616l74 183h51l-90 -189zM269 -9c-71.333 0 -125.833 23.8311 -163.5 71.498s-56.5 116.834 -56.5 207.501c0 91.333 18.833 160.833 56.5 208.5s92.167 71.5 163.5 71.5s125.666 -23.833 162.999 -71.5s56 -117.167 56 -208.5s-18.667 -160.666 -56 -207.999
s-91.666 -71 -162.999 -71zM269 34.998c112.667 0 169 78.333 169 235s-56.333 235 -169 235s-169 -78.333 -169 -235s56.333 -235 169 -235z" />
    <glyph glyph-name="ocircumflex" unicode="&#xf4;" horiz-adv-x="537" 
d="M121 688l141 72l142 -72v-49l-142 72l-141 -72v49zM269 -9c-71.333 0 -125.833 23.8311 -163.5 71.498s-56.5 116.834 -56.5 207.501c0 91.333 18.833 160.833 56.5 208.5s92.167 71.5 163.5 71.5s125.666 -23.833 162.999 -71.5s56 -117.167 56 -208.5
s-18.667 -160.666 -56 -207.999s-91.666 -71 -162.999 -71zM269 34.998c112.667 0 169 78.333 169 235s-56.333 235 -169 235s-169 -78.333 -169 -235s56.333 -235 169 -235z" />
    <glyph glyph-name="otilde" unicode="&#xf5;" horiz-adv-x="537" 
d="M269 -9c-71.333 0 -125.833 23.8311 -163.5 71.498s-56.5 116.834 -56.5 207.501c0 91.333 18.833 160.833 56.5 208.5s92.167 71.5 163.5 71.5s125.666 -23.833 162.999 -71.5s56 -117.167 56 -208.5s-18.667 -160.666 -56 -207.999s-91.666 -71 -162.999 -71z
M269 34.998c112.667 0 169 78.333 169 235s-56.333 235 -169 235s-169 -78.333 -169 -235s56.333 -235 169 -235zM86 673.998c14.667 16.667 31.167 30 49.5 40s36.5 15 54.5 15c14.667 0 28 -2.33301 40 -7s23.667 -9.66699 35 -15s22.5 -10.333 33.5 -15
s23.167 -7 36.5 -7c27.333 0 52.333 13 75 39l26 -23c-12.667 -17.333 -28.5 -31.333 -47.5 -42s-38.5 -16 -58.5 -16c-13.333 0 -26 2.16699 -38 6.5s-23.667 9.33301 -35 15s-22.833 10.667 -34.5 15s-23.5 6.5 -35.5 6.5c-26.667 0 -52 -12.667 -76 -38z" />
    <glyph glyph-name="odieresis" unicode="&#xf6;" horiz-adv-x="537" 
d="M159 652c-10.667 0 -19.167 2.83301 -25.5 8.5s-9.5 14.5 -9.5 26.5c0 11.333 3.16699 19.833 9.5 25.5s14.833 8.5 25.5 8.5c10 0 18.333 -2.83301 25 -8.5s10 -14.167 10 -25.5c0 -12 -3.33301 -20.833 -10 -26.5s-15 -8.5 -25 -8.5zM366 652
c-23.333 0 -35 11.667 -35 35c0 22.667 11.667 34 35 34c10 0 18.333 -2.83301 25 -8.5s10 -14.167 10 -25.5c0 -12 -3.33301 -20.833 -10 -26.5s-15 -8.5 -25 -8.5zM269 -9c-71.333 0 -125.833 23.8311 -163.5 71.498s-56.5 116.834 -56.5 207.501
c0 91.333 18.833 160.833 56.5 208.5s92.167 71.5 163.5 71.5s125.666 -23.833 162.999 -71.5s56 -117.167 56 -208.5s-18.667 -160.666 -56 -207.999s-91.666 -71 -162.999 -71zM269 34.998c112.667 0 169 78.333 169 235s-56.333 235 -169 235s-169 -78.333 -169 -235
s56.333 -235 169 -235z" />
    <glyph glyph-name="divide" unicode="&#xf7;" horiz-adv-x="509" 
d="M258 181c-11.333 0 -20.166 3 -26.499 9s-9.5 14.667 -9.5 26s3.16699 20.333 9.5 27s15.166 10 26.499 10c10.667 0 19.334 -3.33301 26.001 -10s10 -15.667 10 -27s-3.33301 -20 -10 -26s-15.334 -9 -26.001 -9zM68 391h374v-42h-374v42zM258 480
c-11.333 0 -20.166 3.16699 -26.499 9.5s-9.5 15.166 -9.5 26.499s3.16699 20.166 9.5 26.499s15.166 9.5 26.499 9.5c10.667 0 19.334 -3.16699 26.001 -9.5s10 -15.166 10 -26.499s-3.33301 -20.166 -10 -26.499s-15.334 -9.5 -26.001 -9.5z" />
    <glyph glyph-name="oslash" unicode="&#xf8;" horiz-adv-x="542" 
d="M96 79c-30 46.667 -45 110.334 -45 191.001c0 90.667 18.833 160 56.5 208s92.167 72 163.5 72c62 0 111.667 -18.667 149 -56l36 46h51l-62 -79c30.667 -47.333 46 -111 46 -191c0 -90.667 -18.833 -159.834 -56.5 -207.501s-92.167 -71.5 -163.5 -71.5
c-62.667 0 -112.667 18.667 -150 56l-36 -47h-51zM271 35c58 0 100.667 19.333 128 58s41 97.667 41 177c0 62.667 -9 112.667 -27 150l-263 -336c28 -32.667 68.333 -49 121 -49zM102 270c0 -63.333 8.66699 -113.333 26 -150l262 336c-28 32.667 -67.667 49 -119 49
c-58 0 -100.667 -19.333 -128 -58s-41 -97.667 -41 -177z" />
    <glyph glyph-name="ugrave" unicode="&#xf9;" horiz-adv-x="540" 
d="M200 -10c-44 0 -76.167 11.668 -96.5 35.001s-30.5 60 -30.5 110v405h49v-392c0 -39.333 7 -67.833 21 -85.5s36.667 -26.5 68 -26.5c32 0 64.167 6.66699 96.5 20s67.833 30.666 106.5 51.999v432h49v-540h-41l-5 64h-4l-65.5 -33c-19 -9.33301 -36.667 -17 -53 -23
s-32 -10.5 -47 -13.5s-30.833 -4.5 -47.5 -4.5zM247 614.001l-91 189h55l73 -179z" />
    <glyph glyph-name="uacute" unicode="&#xfa;" horiz-adv-x="540" 
d="M249 616l74 183h51l-90 -189zM200 -10c-44 0 -76.167 11.668 -96.5 35.001s-30.5 60 -30.5 110v405h49v-392c0 -39.333 7 -67.833 21 -85.5s36.667 -26.5 68 -26.5c32 0 64.167 6.66699 96.5 20s67.833 30.666 106.5 51.999v432h49v-540h-41l-5 64h-4l-65.5 -33
c-19 -9.33301 -36.667 -17 -53 -23s-32 -10.5 -47 -13.5s-30.833 -4.5 -47.5 -4.5z" />
    <glyph glyph-name="ucircumflex" unicode="&#xfb;" horiz-adv-x="540" 
d="M124 688l141 72l142 -72v-49l-142 72l-141 -72v49zM200 -10c-44 0 -76.167 11.668 -96.5 35.001s-30.5 60 -30.5 110v405h49v-392c0 -39.333 7 -67.833 21 -85.5s36.667 -26.5 68 -26.5c32 0 64.167 6.66699 96.5 20s67.833 30.666 106.5 51.999v432h49v-540h-41l-5 64
h-4l-65.5 -33c-19 -9.33301 -36.667 -17 -53 -23s-32 -10.5 -47 -13.5s-30.833 -4.5 -47.5 -4.5z" />
    <glyph glyph-name="udieresis" unicode="&#xfc;" horiz-adv-x="540" 
d="M162 652c-10.667 0 -19.167 2.83301 -25.5 8.5s-9.5 14.5 -9.5 26.5c0 11.333 3.16699 19.833 9.5 25.5s14.833 8.5 25.5 8.5c10 0 18.333 -2.83301 25 -8.5s10 -14.167 10 -25.5c0 -12 -3.33301 -20.833 -10 -26.5s-15 -8.5 -25 -8.5zM369 652
c-23.333 0 -35 11.667 -35 35c0 22.667 11.667 34 35 34c10 0 18.333 -2.83301 25 -8.5s10 -14.167 10 -25.5c0 -12 -3.33301 -20.833 -10 -26.5s-15 -8.5 -25 -8.5zM200 -10c-44 0 -76.167 11.668 -96.5 35.001s-30.5 60 -30.5 110v405h49v-392
c0 -39.333 7 -67.833 21 -85.5s36.667 -26.5 68 -26.5c32 0 64.167 6.66699 96.5 20s67.833 30.666 106.5 51.999v432h49v-540h-41l-5 64h-4l-65.5 -33c-19 -9.33301 -36.667 -17 -53 -23s-32 -10.5 -47 -13.5s-30.833 -4.5 -47.5 -4.5z" />
    <glyph glyph-name="yacute" unicode="&#xfd;" horiz-adv-x="504" 
d="M146 -210l-1 7l81 206l-207 531v6h51l161 -419l19 -61h4l20 61l164 419h50v-6l-298 -754zM239 616l74 183h51l-90 -189z" />
    <glyph glyph-name="thorn" unicode="&#xfe;" horiz-adv-x="541" 
d="M77 808l48.998 -0.000976562v-328c18.667 21.333 41.834 38.333 69.501 51s58.5 19 92.5 19c66.667 0 117.334 -22.5 152.001 -67.5s52 -114.167 52 -207.5c0 -95.333 -21.667 -166.666 -65 -213.999s-103.333 -71 -180 -71c-21.333 0 -42.5 1.16699 -63.5 3.5
s-40.167 4.83301 -57.5 7.5v-221h-49v1028zM248.998 32.999c62.667 0 110.334 19.168 143.001 57.501s49 99.166 49 182.499c0 82 -13.167 141.333 -39.5 178s-66.5 55 -120.5 55c-20 0 -39.167 -3 -57.5 -9s-34.833 -14.167 -49.5 -24.5s-26.334 -22.833 -35.001 -37.5
s-13 -30.667 -13 -48v-343c19.333 -3.33301 39.5 -6 60.5 -8s41.833 -3 62.5 -3z" />
    <glyph glyph-name="ydieresis" unicode="&#xff;" horiz-adv-x="504" 
d="M146 -210l-1 7l81 206l-207 531v6h51l161 -419l19 -61h4l20 61l164 419h50v-6l-298 -754zM151 652c-10.667 0 -19.167 2.83301 -25.5 8.5s-9.5 14.5 -9.5 26.5c0 11.333 3.16699 19.833 9.5 25.5s14.833 8.5 25.5 8.5c10 0 18.333 -2.83301 25 -8.5s10 -14.167 10 -25.5
c0 -12 -3.33301 -20.833 -10 -26.5s-15 -8.5 -25 -8.5zM358 652c-23.333 0 -35 11.667 -35 35c0 22.667 11.667 34 35 34c10 0 18.333 -2.83301 25 -8.5s10 -14.167 10 -25.5c0 -12 -3.33301 -20.833 -10 -26.5s-15 -8.5 -25 -8.5z" />
    <glyph glyph-name="Amacron" unicode="&#x100;" horiz-adv-x="611" 
d="M10 6l259 734h73l259 -734v-6h-49l-85 241h-323l-85 -241h-49v6zM452 286l-104 292l-40 118h-5l-40 -118l-104 -292h293zM169 884h266v-42h-266v42z" />
    <glyph glyph-name="amacron" unicode="&#x101;" horiz-adv-x="480" 
d="M173 -5c-43.333 0 -76.333 11.501 -99 34.501s-34 56.5 -34 100.5c0 50.667 16 89 48 115s82.333 42.333 151 49l119 11v62c0 49.333 -10 84.333 -30 105s-54.333 31 -103 31c-42 0 -90.333 -6 -145 -18l-5 44c30 5.33301 58 9.5 84 12.5s50.667 4.5 74 4.5
c60 0 104 -14 132 -42s42 -71.333 42 -130v-374h-40l-7 67h-5c-31.333 -20.667 -62 -37.834 -92 -51.501s-60 -20.5 -90 -20.5zM185 39.001c27.333 0 56.1689 7.33301 86.502 22s59.166 30.667 86.499 48v157l-109 -10c-58.667 -5.33301 -99.834 -17.333 -123.501 -36
s-35.5 -47.667 -35.5 -87c0 -62.667 31.667 -94 95 -94zM108.003 693.001h276v-42h-276v42z" />
    <glyph glyph-name="Abreve" unicode="&#x102;" horiz-adv-x="611" 
d="M10 6l259 734h73l259 -734v-6h-49l-85 241h-323l-85 -241h-49v6zM452 286l-104 292l-40 118h-5l-40 -118l-104 -292h293zM307 815c-50 0 -88.668 12.167 -116.001 36.5s-41 57.833 -41 100.5h43c0 -31.333 10 -55.5 30 -72.5s48 -25.5 84 -25.5s63.833 8.5 83.5 25.5
s29.5 41.167 29.5 72.5h43c0 -42.667 -13.667 -76.167 -41 -100.5s-65.666 -36.5 -114.999 -36.5z" />
    <glyph glyph-name="abreve" unicode="&#x103;" horiz-adv-x="480" 
d="M173 -5c-43.333 0 -76.333 11.501 -99 34.501s-34 56.5 -34 100.5c0 50.667 16 89 48 115s82.333 42.333 151 49l119 11v62c0 49.333 -10 84.333 -30 105s-54.333 31 -103 31c-42 0 -90.333 -6 -145 -18l-5 44c30 5.33301 58 9.5 84 12.5s50.667 4.5 74 4.5
c60 0 104 -14 132 -42s42 -71.333 42 -130v-374h-40l-7 67h-5c-31.333 -20.667 -62 -37.834 -92 -51.501s-60 -20.5 -90 -20.5zM185 39.001c27.333 0 56.1689 7.33301 86.502 22s59.166 30.667 86.499 48v157l-109 -10c-58.667 -5.33301 -99.834 -17.333 -123.501 -36
s-35.5 -47.667 -35.5 -87c0 -62.667 31.667 -94 95 -94zM243.003 621.001c-52 0 -91.167 12.333 -117.5 37s-39.5 59 -39.5 103h43c0 -36 10 -62.167 30 -78.5s48 -24.5 84 -24.5s64 8.16699 84 24.5s30 42.5 30 78.5h43c-0.666992 -44 -14 -78.333 -40 -103
s-65 -37 -117 -37z" />
    <glyph glyph-name="Aogonek" unicode="&#x104;" horiz-adv-x="611" 
d="M538 -220c-57.333 0 -85.999 26.667 -85.999 80c0 26.667 8.16699 50.834 24.5 72.501s44.166 44.167 83.499 67.5h-8l-85 241h-323l-85 -241h-49v6l259 734h73l259 -734v-26c-38 -18.667 -65.333 -37.334 -82 -56.001s-25 -39 -25 -61c0 -30 16.667 -45 50 -45
c17.333 0 36 3.66699 56 11v-37c-18 -8 -38.667 -12 -62 -12zM452.001 286l-104 292l-40 118h-5l-40 -118l-104 -292h293z" />
    <glyph glyph-name="aogonek" unicode="&#x105;" horiz-adv-x="480" 
d="M344 -220c-57.333 0 -86 26.668 -86 80.001c0 26.667 8.33301 50.834 25 72.501s44.667 44.167 84 67.5l-7 67h-5c-31.333 -20.667 -62 -37.834 -92 -51.501s-60 -20.5 -90 -20.5c-43.333 0 -76.333 11.5 -99 34.5s-34 56.5 -34 100.5c0 50.667 16 89 48 115
s82.333 42.333 151 49l119 11v62c0 49.333 -10 84.333 -30 105s-54.333 31 -103 31c-42 0 -90.333 -6 -145 -18l-5 44c30 5.33301 58 9.5 84 12.5s50.667 4.5 74 4.5c60 0 104 -14 132 -42s42 -71.333 42 -130v-394c-38 -18.667 -65.333 -37.334 -82 -56.001
s-25 -39 -25 -61c0 -30 16.667 -45 50 -45c17.333 0 36 3.66699 56 11v-37c-18 -8 -38.667 -12 -62 -12zM185 39.001c27.333 0 56.1689 7.33301 86.502 22s59.166 30.667 86.499 48v157l-109 -10c-58.667 -5.33301 -99.834 -17.333 -123.501 -36s-35.5 -47.667 -35.5 -87
c0 -62.667 31.667 -94 95 -94z" />
    <glyph glyph-name="Cacute" unicode="&#x106;" horiz-adv-x="548" 
d="M367 -9c-106.667 1.33301 -185.5 32.666 -236.5 93.999s-76.5 156 -76.5 284c0 130.667 25.667 226.667 77 288s130.666 92 237.999 92c19.333 0 41.833 -1.33301 67.5 -4s50.167 -6.33398 73.5 -11.001v-46c-22.667 4.66699 -46 8.33398 -70 11.001s-46 4 -66 4
c-92 0 -160 -27 -204 -81s-66 -138.333 -66 -253c0 -112.667 21.5 -196.167 64.5 -250.5s108.833 -81.5 197.5 -81.5c8.66699 0 19.167 0.5 31.5 1.5s25.166 2.16699 38.499 3.5s26.5 3 39.5 5s24.5 4 34.5 6v-44c-19.333 -5.33301 -42.166 -9.66602 -68.499 -12.999
s-51.166 -5 -74.499 -5zM305 799l78 128h53l-89 -133z" />
    <glyph glyph-name="cacute" unicode="&#x107;" horiz-adv-x="426" 
d="M230 616l74 183h51l-90 -189zM282 -10c-155.333 0 -232.998 93.332 -232.998 279.999s77.667 280 233 280c14.667 0 30.667 -1.16699 48 -3.5s35.666 -5.5 54.999 -9.5v-46c-32 8.66699 -65 13 -99 13c-62.667 0 -109.334 -19.167 -140.001 -57.5s-46 -97.5 -46 -177.5
c0 -80.667 14.833 -139.667 44.5 -177s76.5 -56 140.5 -56c15.333 0 30.833 0.833008 46.5 2.5s33.167 4.83398 52.5 9.50098l1 -44c-13.333 -4 -29.5 -7.33301 -48.5 -10s-37.167 -4 -54.5 -4z" />
    <glyph glyph-name="Ccircumflex" unicode="&#x108;" horiz-adv-x="548" 
d="M367 -9c-106.667 1.33301 -185.5 32.666 -236.5 93.999s-76.5 156 -76.5 284c0 130.667 25.667 226.667 77 288s130.666 92 237.999 92c19.333 0 41.833 -1.33301 67.5 -4s50.167 -6.33398 73.5 -11.001v-46c-22.667 4.66699 -46 8.33398 -70 11.001s-46 4 -66 4
c-92 0 -160 -27 -204 -81s-66 -138.333 -66 -253c0 -112.667 21.5 -196.167 64.5 -250.5s108.833 -81.5 197.5 -81.5c8.66699 0 19.167 0.5 31.5 1.5s25.166 2.16699 38.499 3.5s26.5 3 39.5 5s24.5 4 34.5 6v-44c-19.333 -5.33301 -42.166 -9.66602 -68.499 -12.999
s-51.166 -5 -74.499 -5zM190 866l141 72l142 -72v-49l-142 72l-141 -72v49z" />
    <glyph glyph-name="ccircumflex" unicode="&#x109;" horiz-adv-x="426" 
d="M105 688l141 72l142 -72v-49l-142 72l-141 -72v49zM282 -10c-155.333 0 -232.998 93.332 -232.998 279.999s77.667 280 233 280c14.667 0 30.667 -1.16699 48 -3.5s35.666 -5.5 54.999 -9.5v-46c-32 8.66699 -65 13 -99 13c-62.667 0 -109.334 -19.167 -140.001 -57.5
s-46 -97.5 -46 -177.5c0 -80.667 14.833 -139.667 44.5 -177s76.5 -56 140.5 -56c15.333 0 30.833 0.833008 46.5 2.5s33.167 4.83398 52.5 9.50098l1 -44c-13.333 -4 -29.5 -7.33301 -48.5 -10s-37.167 -4 -54.5 -4z" />
    <glyph glyph-name="Cdotaccent" unicode="&#x10a;" horiz-adv-x="548" 
d="M332 812c-11.333 0 -20.5 3 -27.5 9s-10.5 15.667 -10.5 29s3.5 23 10.5 29s16.167 9 27.5 9s20.666 -3 27.999 -9s11 -15.667 11 -29s-3.66699 -23 -11 -29s-16.666 -9 -27.999 -9zM367 -9c-106.667 1.33301 -185.5 32.666 -236.5 93.999s-76.5 156 -76.5 284
c0 130.667 25.667 226.667 77 288s130.666 92 237.999 92c19.333 0 41.833 -1.33301 67.5 -4s50.167 -6.33398 73.5 -11.001v-46c-22.667 4.66699 -46 8.33398 -70 11.001s-46 4 -66 4c-92 0 -160 -27 -204 -81s-66 -138.333 -66 -253c0 -112.667 21.5 -196.167 64.5 -250.5
s108.833 -81.5 197.5 -81.5c8.66699 0 19.167 0.5 31.5 1.5s25.166 2.16699 38.499 3.5s26.5 3 39.5 5s24.5 4 34.5 6v-44c-19.333 -5.33301 -42.166 -9.66602 -68.499 -12.999s-51.166 -5 -74.499 -5z" />
    <glyph glyph-name="cdotaccent" unicode="&#x10b;" horiz-adv-x="426" 
d="M282 -10c-155.333 0 -232.998 93.332 -232.998 279.999s77.667 280 233 280c14.667 0 30.667 -1.16699 48 -3.5s35.666 -5.5 54.999 -9.5v-46c-32 8.66699 -65 13 -99 13c-62.667 0 -109.334 -19.167 -140.001 -57.5s-46 -97.5 -46 -177.5
c0 -80.667 14.833 -139.667 44.5 -177s76.5 -56 140.5 -56c15.333 0 30.833 0.833008 46.5 2.5s33.167 4.83398 52.5 9.50098l1 -44c-13.333 -4 -29.5 -7.33301 -48.5 -10s-37.167 -4 -54.5 -4zM245.002 648.999c-11.333 0 -20.5 3 -27.5 9s-10.5 15.667 -10.5 29
s3.5 23 10.5 29s16.167 9 27.5 9s20.666 -3 27.999 -9s11 -15.667 11 -29s-3.66699 -23 -11 -29s-16.666 -9 -27.999 -9z" />
    <glyph glyph-name="Ccaron" unicode="&#x10c;" horiz-adv-x="548" 
d="M367 -9c-106.667 1.33301 -185.5 32.666 -236.5 93.999s-76.5 156 -76.5 284c0 130.667 25.667 226.667 77 288s130.666 92 237.999 92c19.333 0 41.833 -1.33301 67.5 -4s50.167 -6.33398 73.5 -11.001v-46c-22.667 4.66699 -46 8.33398 -70 11.001s-46 4 -66 4
c-92 0 -160 -27 -204 -81s-66 -138.333 -66 -253c0 -112.667 21.5 -196.167 64.5 -250.5s108.833 -81.5 197.5 -81.5c8.66699 0 19.167 0.5 31.5 1.5s25.166 2.16699 38.499 3.5s26.5 3 39.5 5s24.5 4 34.5 6v-44c-19.333 -5.33301 -42.166 -9.66602 -68.499 -12.999
s-51.166 -5 -74.499 -5zM192 929l141 -72l142 72v-49l-142 -73l-141 73v49z" />
    <glyph glyph-name="ccaron" unicode="&#x10d;" horiz-adv-x="426" 
d="M106 758l141 -73l142 73v-49l-142 -73l-141 73v49zM282 -10c-155.333 0 -232.998 93.332 -232.998 279.999s77.667 280 233 280c14.667 0 30.667 -1.16699 48 -3.5s35.666 -5.5 54.999 -9.5v-46c-32 8.66699 -65 13 -99 13c-62.667 0 -109.334 -19.167 -140.001 -57.5
s-46 -97.5 -46 -177.5c0 -80.667 14.833 -139.667 44.5 -177s76.5 -56 140.5 -56c15.333 0 30.833 0.833008 46.5 2.5s33.167 4.83398 52.5 9.50098l1 -44c-13.333 -4 -29.5 -7.33301 -48.5 -10s-37.167 -4 -54.5 -4z" />
    <glyph glyph-name="Dcaron" unicode="&#x10e;" horiz-adv-x="661" 
d="M160 929l141 -72l142 72v-49l-142 -73l-141 73v49zM243 -13c-31.333 0 -60.499 1 -87.499 3s-48.5 5 -64.5 9v737c14 2 28.667 3.83301 44 5.5s30.833 3 46.5 4s30.667 1.83301 45 2.5s27.166 1 38.499 1c118 0 204.667 -30.667 260 -92s83 -157 83 -287
c0 -132 -29.333 -228.833 -88 -290.5s-151 -92.5 -277 -92.5zM251.001 33c104.667 0 181.834 27.332 231.501 81.999s74.5 139.667 74.5 255c0 114.667 -23.333 198.834 -70 252.501s-120.334 80.5 -221.001 80.5c-18.667 0 -39.5 -0.666992 -62.5 -2
s-44.167 -3.33301 -63.5 -6v-654c22.667 -3.33301 42 -5.5 58 -6.5s33.667 -1.5 53 -1.5z" />
    <glyph glyph-name="dcaron" unicode="&#x10f;" horiz-adv-x="542" 
d="M537 808h45l-23 -228h-22v228zM255 -10c-68 0 -119.335 22.499 -154.002 67.499s-52 115.5 -52 211.5c0 46.667 5.66699 87.5 17 122.5s27.5 64.167 48.5 87.5s46.167 41 75.5 53s62.333 18 99 18c22.667 0 44.334 -1.16699 65.001 -3.5s41.334 -4.83301 62.001 -7.5v269
h48v-808h-42l-5 62h-4c-18 -23.333 -40.167 -41.166 -66.5 -53.499s-56.833 -18.5 -91.5 -18.5zM260.998 33.999c18.667 0 37.335 2.83398 56.002 8.50098s35.334 13.667 50.001 24s26.5 22.666 35.5 36.999s13.5 29.833 13.5 46.5v345c-20.667 3.33301 -41.334 6 -62.001 8
s-42.334 3 -65.001 3c-60.667 0 -107.334 -19.167 -140.001 -57.5s-49 -97.833 -49 -178.5s13.5 -140.167 40.5 -178.5s67.167 -57.5 120.5 -57.5z" />
    <glyph glyph-name="Dcroat" unicode="&#x110;" horiz-adv-x="670" 
d="M3 391h96.001v345c14 2 28.667 3.83301 44 5.5s30.833 3 46.5 4s30.667 1.83301 45 2.5s27.166 1 38.499 1c118 0 204.667 -30.667 260 -92s83 -157 83 -287c0 -132 -29.333 -228.833 -88 -290.5s-151 -92.5 -277 -92.5c-31.333 0 -60.5 1 -87.5 3s-48.5 5 -64.5 9v347
h-96v45zM259.001 33c104.667 0 181.834 27.332 231.501 81.999s74.5 139.667 74.5 255c0 114.667 -23.333 198.834 -70 252.501s-120.334 80.5 -221.001 80.5c-18.667 0 -39.5 -0.666992 -62.5 -2s-44.167 -3.33301 -63.5 -6v-304h189v-45h-189v-305
c22.667 -3.33301 42 -5.5 58 -6.5s33.667 -1.5 53 -1.5z" />
    <glyph glyph-name="dcroat" unicode="&#x111;" horiz-adv-x="542" 
d="M233 691l182.998 -0.000976562v117h48v-117h76v-36h-76v-655h-42l-5 62h-4c-18 -23.333 -40.167 -41.166 -66.5 -53.499s-56.833 -18.5 -91.5 -18.5c-68 0 -119.333 22.5 -154 67.5s-52 115.5 -52 211.5c0 46.667 5.66699 87.5 17 122.5s27.5 64.167 48.5 87.5
s46.167 41 75.5 53s62.333 18 99 18c22.667 0 44.334 -1.16699 65.001 -3.5s41.334 -4.83301 62.001 -7.5v116h-183v36zM260.998 33.999c18.667 0 37.335 2.83398 56.002 8.50098s35.334 13.667 50.001 24s26.5 22.666 35.5 36.999s13.5 29.833 13.5 46.5v345
c-20.667 3.33301 -41.334 6 -62.001 8s-42.334 3 -65.001 3c-60.667 0 -107.334 -19.167 -140.001 -57.5s-49 -97.833 -49 -178.5s13.5 -140.167 40.5 -178.5s67.167 -57.5 120.5 -57.5z" />
    <glyph glyph-name="Emacron" unicode="&#x112;" horiz-adv-x="562" 
d="M162 884h266v-42h-266v42zM91 740h414v-45h-365v-296h339v-45h-339v-309h374v-45h-423v740z" />
    <glyph glyph-name="emacron" unicode="&#x113;" horiz-adv-x="492" 
d="M274 -9c-72.667 0 -128.167 23.001 -166.5 69.001s-57.5 112.333 -57.5 199c0 94.667 18.5 166.667 55.5 216s90.833 74 161.5 74c58.667 0 103.167 -19.833 133.5 -59.5s45.5 -97.834 45.5 -174.501c0 -28.667 -1.33301 -50.667 -4 -66h-343
c4 -142.667 63.667 -214 179 -214c23.333 0 46.5 2.5 69.5 7.5s47.833 12.833 74.5 23.5l5 -43c-22.667 -10 -47.5 -17.833 -74.5 -23.5s-53.167 -8.5 -78.5 -8.5zM267 506.001c-52 0 -92.1699 -18.333 -120.503 -55s-44.166 -90.334 -47.499 -161.001h299
c-1.33301 76.667 -12.166 131.834 -32.499 165.501s-53.166 50.5 -98.499 50.5zM116.997 693.001h276v-42h-276v42z" />
    <glyph glyph-name="Ebreve" unicode="&#x114;" horiz-adv-x="562" 
d="M299 815c-50 0 -88.668 12.167 -116.001 36.5s-41 57.833 -41 100.5h43c0 -31.333 10 -55.5 30 -72.5s48 -25.5 84 -25.5s63.833 8.5 83.5 25.5s29.5 41.167 29.5 72.5h43c0 -42.667 -13.667 -76.167 -41 -100.5s-65.666 -36.5 -114.999 -36.5zM90.999 740h414v-45h-365
v-296h339v-45h-339v-309h374v-45h-423v740z" />
    <glyph glyph-name="ebreve" unicode="&#x115;" horiz-adv-x="492" 
d="M274 -9c-72.667 0 -128.167 23.001 -166.5 69.001s-57.5 112.333 -57.5 199c0 94.667 18.5 166.667 55.5 216s90.833 74 161.5 74c58.667 0 103.167 -19.833 133.5 -59.5s45.5 -97.834 45.5 -174.501c0 -28.667 -1.33301 -50.667 -4 -66h-343
c4 -142.667 63.667 -214 179 -214c23.333 0 46.5 2.5 69.5 7.5s47.833 12.833 74.5 23.5l5 -43c-22.667 -10 -47.5 -17.833 -74.5 -23.5s-53.167 -8.5 -78.5 -8.5zM267 506.001c-52 0 -92.1699 -18.333 -120.503 -55s-44.166 -90.334 -47.499 -161.001h299
c-1.33301 76.667 -12.166 131.834 -32.499 165.501s-53.166 50.5 -98.499 50.5zM254.997 621.001c-52 0 -91.167 12.333 -117.5 37s-39.5 59 -39.5 103h43c0 -36 10 -62.167 30 -78.5s48 -24.5 84 -24.5s64 8.16699 84 24.5s30 42.5 30 78.5h43
c-0.666992 -44 -14 -78.333 -40 -103s-65 -37 -117 -37z" />
    <glyph glyph-name="Edotaccent" unicode="&#x116;" horiz-adv-x="562" 
d="M298 812c-11.333 0 -20.5 3 -27.5 9s-10.5 15.667 -10.5 29s3.5 23 10.5 29s16.167 9 27.5 9s20.666 -3 27.999 -9s11 -15.667 11 -29s-3.66699 -23 -11 -29s-16.666 -9 -27.999 -9zM91 740h414v-45h-365v-296h339v-45h-339v-309h374v-45h-423v740z" />
    <glyph glyph-name="edotaccent" unicode="&#x117;" horiz-adv-x="492" 
d="M274 -9c-72.667 0 -128.167 23.001 -166.5 69.001s-57.5 112.333 -57.5 199c0 94.667 18.5 166.667 55.5 216s90.833 74 161.5 74c58.667 0 103.167 -19.833 133.5 -59.5s45.5 -97.834 45.5 -174.501c0 -28.667 -1.33301 -50.667 -4 -66h-343
c4 -142.667 63.667 -214 179 -214c23.333 0 46.5 2.5 69.5 7.5s47.833 12.833 74.5 23.5l5 -43c-22.667 -10 -47.5 -17.833 -74.5 -23.5s-53.167 -8.5 -78.5 -8.5zM267 506.001c-52 0 -92.1699 -18.333 -120.503 -55s-44.166 -90.334 -47.499 -161.001h299
c-1.33301 76.667 -12.166 131.834 -32.499 165.501s-53.166 50.5 -98.499 50.5zM253.997 649.001c-11.333 0 -20.5 3 -27.5 9s-10.5 15.667 -10.5 29s3.5 23 10.5 29s16.167 9 27.5 9s20.666 -3 27.999 -9s11 -15.667 11 -29s-3.66699 -23 -11 -29s-16.666 -9 -27.999 -9z
" />
    <glyph glyph-name="Eogonek" unicode="&#x118;" horiz-adv-x="562" 
d="M91 740h414.001v-45h-365v-296h339v-45h-339v-309h374v-65c-38 -18.667 -65.333 -37.334 -82 -56.001s-25 -39 -25 -61c0 -30 16.667 -45 50 -45c17.333 0 36 3.66699 56 11v-37c-18 -8 -38.667 -12 -62 -12c-57.333 0 -86 26.667 -86 80
c0 26.667 8.16699 50.834 24.5 72.501s44.166 44.167 83.499 67.5h-382v740z" />
    <glyph glyph-name="eogonek" unicode="&#x119;" horiz-adv-x="493" 
d="M274 -9c-72.667 0 -128.166 23.002 -166.499 69.002s-57.5 112.333 -57.5 199c0 94.667 18.5 166.667 55.5 216s90.833 74 161.5 74c58.667 0 103.167 -19.833 133.5 -59.5s45.5 -97.834 45.5 -174.501c0 -28.667 -1.33301 -50.667 -4 -66h-343
c4 -142.667 63.667 -214 179 -214c23.333 0 46.5 2.5 69.5 7.5s47.833 12.833 74.5 23.5l5 -43v-20c-38 -18.667 -65.333 -37.334 -82 -56.001s-25 -39 -25 -61c0 -30 16.667 -45 50 -45c17.333 0 36 3.66699 56 11v-37c-18 -8 -38.667 -12 -62 -12
c-57.333 0 -86 26.667 -86 80c0 22 5.33301 42.167 16 60.5s28.667 36.833 54 55.5c-26.667 -5.33301 -51.334 -8 -74.001 -8zM267.001 506.002c-52 0 -92.1699 -18.333 -120.503 -55s-44.166 -90.334 -47.499 -161.001h299
c-1.33301 76.667 -12.166 131.834 -32.499 165.501s-53.166 50.5 -98.499 50.5z" />
    <glyph glyph-name="Ecaron" unicode="&#x11a;" horiz-adv-x="562" 
d="M159 929l141 -72l142 72v-49l-142 -73l-141 73v49zM91 740h414v-45h-365v-296h339v-45h-339v-309h374v-45h-423v740z" />
    <glyph glyph-name="ecaron" unicode="&#x11b;" horiz-adv-x="492" 
d="M114 758l141 -73l142 73v-49l-142 -73l-141 73v49zM274 -9c-72.667 0 -128.167 23.001 -166.5 69.001s-57.5 112.333 -57.5 199c0 94.667 18.5 166.667 55.5 216s90.833 74 161.5 74c58.667 0 103.167 -19.833 133.5 -59.5s45.5 -97.834 45.5 -174.501
c0 -28.667 -1.33301 -50.667 -4 -66h-343c4 -142.667 63.667 -214 179 -214c23.333 0 46.5 2.5 69.5 7.5s47.833 12.833 74.5 23.5l5 -43c-22.667 -10 -47.5 -17.833 -74.5 -23.5s-53.167 -8.5 -78.5 -8.5zM267 506.001c-52 0 -92.1699 -18.333 -120.503 -55
s-44.166 -90.334 -47.499 -161.001h299c-1.33301 76.667 -12.166 131.834 -32.499 165.501s-53.166 50.5 -98.499 50.5z" />
    <glyph glyph-name="Gcircumflex" unicode="&#x11c;" horiz-adv-x="610" 
d="M374 -9c-109.333 1.33301 -190.001 32.668 -242.001 94.001s-78 156 -78 284c0 130 26.5 225.833 79.5 287.5s135.167 92.5 246.5 92.5c22.667 0 48.167 -1.83301 76.5 -5.5s57.166 -8.83398 86.499 -15.501v-46c-34 7.33301 -63 12.666 -87 15.999s-48.333 5 -73 5
c-95.333 0 -165.666 -27 -210.999 -81s-68 -138.333 -68 -253c0 -112.667 22.167 -196.167 66.5 -250.5s111.833 -81.5 202.5 -81.5c15.333 0 34.5 1.33301 57.5 4s45.167 5.66699 66.5 9v326h48v-361c-30 -7.33301 -59.667 -13.166 -89 -17.499s-56.666 -6.5 -81.999 -6.5z
M204.999 866.002l141 72l142 -72v-49l-142 72l-141 -72v49z" />
    <glyph glyph-name="gcircumflex" unicode="&#x11d;" horiz-adv-x="541" 
d="M142 688l141 72l142 -72v-49l-142 72l-141 -72v49zM239 -220c-26 0 -51.665 2.16504 -76.998 6.49805s-49.333 10.166 -72 17.499l4 44c24 -7.33301 48 -13.166 72 -17.499s48 -6.5 72 -6.5c28 0 53 3.66699 75 11s40.667 19.5 56 36.5s27.166 39.333 35.499 67
s12.5 61.5 12.5 101.5v25h-4c-18 -23.333 -40.167 -41.166 -66.5 -53.499s-56.5 -18.5 -90.5 -18.5c-68.667 0 -120.334 22.333 -155.001 67s-52 114.667 -52 210c0 46 5.66699 86.5 17 121.5s27.5 64.333 48.5 88s46.167 41.334 75.5 53.001s62.333 17.5 99 17.5
c30 0 60 -1.83301 90 -5.5s58.667 -9.16699 86 -16.5v-476c0 -52 -5.5 -95.333 -16.5 -130s-26.5 -62.5 -46.5 -83.5s-43.833 -36 -71.5 -45s-58.167 -13.5 -91.5 -13.5zM261.002 36.998c19.333 0 38.334 2.83301 57.001 8.5s35.167 13.5 49.5 23.5s26 22 35 36
s13.5 29.333 13.5 46v344c-21.333 3.33301 -42.333 6 -63 8s-42 3 -64 3c-60.667 0 -107.334 -19.167 -140.001 -57.5s-49 -97.5 -49 -177.5s13.5 -139 40.5 -177s67.167 -57 120.5 -57z" />
    <glyph glyph-name="Gbreve" unicode="&#x11e;" horiz-adv-x="610" 
d="M348 815c-50 0 -88.668 12.167 -116.001 36.5s-41 57.833 -41 100.5h43c0 -31.333 10 -55.5 30 -72.5s48 -25.5 84 -25.5s63.833 8.5 83.5 25.5s29.5 41.167 29.5 72.5h43c0 -42.667 -13.667 -76.167 -41 -100.5s-65.666 -36.5 -114.999 -36.5zM373.999 -9
c-109.333 1.33301 -190.001 32.668 -242.001 94.001s-78 156 -78 284c0 130 26.5 225.833 79.5 287.5s135.167 92.5 246.5 92.5c22.667 0 48.167 -1.83301 76.5 -5.5s57.166 -8.83398 86.499 -15.501v-46c-34 7.33301 -63 12.666 -87 15.999s-48.333 5 -73 5
c-95.333 0 -165.666 -27 -210.999 -81s-68 -138.333 -68 -253c0 -112.667 22.167 -196.167 66.5 -250.5s111.833 -81.5 202.5 -81.5c15.333 0 34.5 1.33301 57.5 4s45.167 5.66699 66.5 9v326h48v-361c-30 -7.33301 -59.667 -13.166 -89 -17.499s-56.666 -6.5 -81.999 -6.5z
" />
    <glyph glyph-name="gbreve" unicode="&#x11f;" horiz-adv-x="541" 
d="M239 -220c-26 0 -51.665 2.16504 -76.998 6.49805s-49.333 10.166 -72 17.499l4 44c24 -7.33301 48 -13.166 72 -17.499s48 -6.5 72 -6.5c28 0 53 3.66699 75 11s40.667 19.5 56 36.5s27.166 39.333 35.499 67s12.5 61.5 12.5 101.5v25h-4
c-18 -23.333 -40.167 -41.166 -66.5 -53.499s-56.5 -18.5 -90.5 -18.5c-68.667 0 -120.334 22.333 -155.001 67s-52 114.667 -52 210c0 46 5.66699 86.5 17 121.5s27.5 64.333 48.5 88s46.167 41.334 75.5 53.001s62.333 17.5 99 17.5c30 0 60 -1.83301 90 -5.5
s58.667 -9.16699 86 -16.5v-476c0 -52 -5.5 -95.333 -16.5 -130s-26.5 -62.5 -46.5 -83.5s-43.833 -36 -71.5 -45s-58.167 -13.5 -91.5 -13.5zM261.002 36.998c19.333 0 38.334 2.83301 57.001 8.5s35.167 13.5 49.5 23.5s26 22 35 36s13.5 29.333 13.5 46v344
c-21.333 3.33301 -42.333 6 -63 8s-42 3 -64 3c-60.667 0 -107.334 -19.167 -140.001 -57.5s-49 -97.5 -49 -177.5s13.5 -139 40.5 -177s67.167 -57 120.5 -57zM283.003 620.998c-52 0 -91.167 12.333 -117.5 37s-39.5 59 -39.5 103h43c0 -36 10 -62.167 30 -78.5
s48 -24.5 84 -24.5s64 8.16699 84 24.5s30 42.5 30 78.5h43c-0.666992 -44 -14 -78.333 -40 -103s-65 -37 -117 -37z" />
    <glyph glyph-name="Gdotaccent" unicode="&#x120;" horiz-adv-x="610" 
d="M347 812c-11.333 0 -20.5 3 -27.5 9s-10.5 15.667 -10.5 29s3.5 23 10.5 29s16.167 9 27.5 9s20.666 -3 27.999 -9s11 -15.667 11 -29s-3.66699 -23 -11 -29s-16.666 -9 -27.999 -9zM374 -9c-109.333 1.33301 -190.001 32.668 -242.001 94.001s-78 156 -78 284
c0 130 26.5 225.833 79.5 287.5s135.167 92.5 246.5 92.5c22.667 0 48.167 -1.83301 76.5 -5.5s57.166 -8.83398 86.499 -15.501v-46c-34 7.33301 -63 12.666 -87 15.999s-48.333 5 -73 5c-95.333 0 -165.666 -27 -210.999 -81s-68 -138.333 -68 -253
c0 -112.667 22.167 -196.167 66.5 -250.5s111.833 -81.5 202.5 -81.5c15.333 0 34.5 1.33301 57.5 4s45.167 5.66699 66.5 9v326h48v-361c-30 -7.33301 -59.667 -13.166 -89 -17.499s-56.666 -6.5 -81.999 -6.5z" />
    <glyph glyph-name="gdotaccent" unicode="&#x121;" horiz-adv-x="541" 
d="M239 -220c-26 0 -51.665 2.16504 -76.998 6.49805s-49.333 10.166 -72 17.499l4 44c24 -7.33301 48 -13.166 72 -17.499s48 -6.5 72 -6.5c28 0 53 3.66699 75 11s40.667 19.5 56 36.5s27.166 39.333 35.499 67s12.5 61.5 12.5 101.5v25h-4
c-18 -23.333 -40.167 -41.166 -66.5 -53.499s-56.5 -18.5 -90.5 -18.5c-68.667 0 -120.334 22.333 -155.001 67s-52 114.667 -52 210c0 46 5.66699 86.5 17 121.5s27.5 64.333 48.5 88s46.167 41.334 75.5 53.001s62.333 17.5 99 17.5c30 0 60 -1.83301 90 -5.5
s58.667 -9.16699 86 -16.5v-476c0 -52 -5.5 -95.333 -16.5 -130s-26.5 -62.5 -46.5 -83.5s-43.833 -36 -71.5 -45s-58.167 -13.5 -91.5 -13.5zM261.002 36.998c19.333 0 38.334 2.83301 57.001 8.5s35.167 13.5 49.5 23.5s26 22 35 36s13.5 29.333 13.5 46v344
c-21.333 3.33301 -42.333 6 -63 8s-42 3 -64 3c-60.667 0 -107.334 -19.167 -140.001 -57.5s-49 -97.5 -49 -177.5s13.5 -139 40.5 -177s67.167 -57 120.5 -57zM282.003 648.998c-11.333 0 -20.5 3 -27.5 9s-10.5 15.667 -10.5 29s3.5 23 10.5 29s16.167 9 27.5 9
s20.666 -3 27.999 -9s11 -15.667 11 -29s-3.66699 -23 -11 -29s-16.666 -9 -27.999 -9z" />
    <glyph glyph-name="Gcommaaccent" unicode="&#x122;" horiz-adv-x="610" 
d="M332 -68h52l-57 -152h-45zM374 -9c-109.333 1.33301 -190.001 32.668 -242.001 94.001s-78 156 -78 284c0 130 26.5 225.833 79.5 287.5s135.167 92.5 246.5 92.5c22.667 0 48.167 -1.83301 76.5 -5.5s57.166 -8.83398 86.499 -15.501v-46
c-34 7.33301 -63 12.666 -87 15.999s-48.333 5 -73 5c-95.333 0 -165.666 -27 -210.999 -81s-68 -138.333 -68 -253c0 -112.667 22.167 -196.167 66.5 -250.5s111.833 -81.5 202.5 -81.5c15.333 0 34.5 1.33301 57.5 4s45.167 5.66699 66.5 9v326h48v-361
c-30 -7.33301 -59.667 -13.166 -89 -17.499s-56.666 -6.5 -81.999 -6.5z" />
    <glyph glyph-name="gcommaaccent" unicode="&#x123;" horiz-adv-x="541" 
d="M393 805l-50 -150h-50l57 150h43zM239 -220c-26 0 -51.665 2.16504 -76.998 6.49805s-49.333 10.166 -72 17.499l4 44c24 -7.33301 48 -13.166 72 -17.499s48 -6.5 72 -6.5c28 0 53 3.66699 75 11s40.667 19.5 56 36.5s27.166 39.333 35.499 67s12.5 61.5 12.5 101.5v25
h-4c-18 -23.333 -40.167 -41.166 -66.5 -53.499s-56.5 -18.5 -90.5 -18.5c-68.667 0 -120.334 22.333 -155.001 67s-52 114.667 -52 210c0 46 5.66699 86.5 17 121.5s27.5 64.333 48.5 88s46.167 41.334 75.5 53.001s62.333 17.5 99 17.5c30 0 60 -1.83301 90 -5.5
s58.667 -9.16699 86 -16.5v-476c0 -52 -5.5 -95.333 -16.5 -130s-26.5 -62.5 -46.5 -83.5s-43.833 -36 -71.5 -45s-58.167 -13.5 -91.5 -13.5zM261.002 36.998c19.333 0 38.334 2.83301 57.001 8.5s35.167 13.5 49.5 23.5s26 22 35 36s13.5 29.333 13.5 46v344
c-21.333 3.33301 -42.333 6 -63 8s-42 3 -64 3c-60.667 0 -107.334 -19.167 -140.001 -57.5s-49 -97.5 -49 -177.5s13.5 -139 40.5 -177s67.167 -57 120.5 -57z" />
    <glyph glyph-name="Hcircumflex" unicode="&#x124;" horiz-adv-x="699" 
d="M91 740h49v-339h419v339h49v-740h-49v356h-419v-356h-49v740zM199 866l141 72l142 -72v-49l-142 72l-141 -72v49z" />
    <glyph glyph-name="hcircumflex" unicode="&#x125;" horiz-adv-x="541" 
d="M145 882l141 72l142 -72v-49l-142 72l-141 -72v49zM77 808l49 -0.000976562v-330c46 24.667 85.5 42.834 118.5 54.501s64.167 17.5 93.5 17.5c44 0 76.5 -11.167 97.5 -33.5s31.5 -59.5 31.5 -111.5v-405h-49v392c0 40.667 -7.33301 69.5 -22 86.5
s-37.667 25.5 -69 25.5c-28 0 -59 -6 -93 -18s-70 -28.667 -108 -50v-436h-49v808z" />
    <glyph glyph-name="Hbar" unicode="&#x126;" horiz-adv-x="721" 
d="M5 584h97v156h49v-156h419v156h49v-156h98v-35h-98v-549h-49v356h-419v-356h-49v549h-97v35zM570 401v148h-419v-148h419z" />
    <glyph glyph-name="hbar" unicode="&#x127;" horiz-adv-x="541" 
d="M-18 691l95 -0.000976562v117h49v-117h163v-36h-163v-177c46 24.667 85.5 42.834 118.5 54.501s64.167 17.5 93.5 17.5c44 0 76.5 -11.167 97.5 -33.5s31.5 -59.5 31.5 -111.5v-405h-49v392c0 40.667 -7.33301 69.5 -22 86.5s-37.667 25.5 -69 25.5c-28 0 -59 -6 -93 -18
s-70 -28.667 -108 -50v-436h-49v655h-95v36z" />
    <glyph glyph-name="Itilde" unicode="&#x128;" horiz-adv-x="230" 
d="M91 740h49v-740h-49v740zM-51 858c14.667 16.667 30.998 30 48.998 40s36.333 15 55 15c14.667 0 28 -2.16699 40 -6.5s23.667 -9.16602 35 -14.499s22.5 -10.166 33.5 -14.499s23.167 -6.5 36.5 -6.5c27.333 0 52.333 13 75 39l26 -23
c-13.333 -17.333 -29.5 -31.333 -48.5 -42s-38.167 -16 -57.5 -16c-13.333 0 -26 2.16699 -38 6.5s-23.667 9.16602 -35 14.499s-22.833 10.166 -34.5 14.499s-23.5 6.5 -35.5 6.5c-13.333 0 -26.666 -3.33301 -39.999 -10s-25.666 -15.667 -36.999 -27z" />
    <glyph glyph-name="itilde" unicode="&#x129;" horiz-adv-x="206" 
d="M-71 674c14.667 16.667 30.999 30 48.999 40s36.333 15 55 15c14 0 27 -2.33301 39 -7s23.5 -9.66699 34.5 -15s22.167 -10.333 33.5 -15s23.333 -7 36 -7c27.333 0 52.333 13 75 39l26 -23c-12.667 -17.333 -28.5 -31.333 -47.5 -42s-38.167 -16 -57.5 -16
c-13.333 0 -26 2.16699 -38 6.5s-23.667 9.33301 -35 15s-22.666 10.667 -33.999 15s-23 6.5 -35 6.5c-27.333 0 -53 -12.667 -77 -38zM78.999 540h49v-540h-49v540z" />
    <glyph glyph-name="Imacron" unicode="&#x12a;" horiz-adv-x="230" 
d="M91 740h49v-740h-49v740zM-20 884h266v-42h-266v42z" />
    <glyph glyph-name="imacron" unicode="&#x12b;" horiz-adv-x="206" 
d="M79 540h49v-540h-49v540zM-31 693h276v-42h-276v42z" />
    <glyph glyph-name="Ibreve" unicode="&#x12c;" horiz-adv-x="230" 
d="M91 740h49v-740h-49v740zM118 815c-50 0 -88.668 12.167 -116.001 36.5s-41 57.833 -41 100.5h43c0 -31.333 10 -55.5 30 -72.5s48 -25.5 84 -25.5s63.833 8.5 83.5 25.5s29.5 41.167 29.5 72.5h43c0 -42.667 -13.667 -76.167 -41 -100.5s-65.666 -36.5 -114.999 -36.5z
" />
    <glyph glyph-name="ibreve" unicode="&#x12d;" horiz-adv-x="206" 
d="M104 621c-50 0 -88.167 12.333 -114.5 37s-39.5 59 -39.5 103h41c0 -36 9.83301 -62.167 29.5 -78.5s47.5 -24.5 83.5 -24.5s63.833 8.16699 83.5 24.5s29.5 42.5 29.5 78.5h41c0 -44 -13 -78.333 -39 -103s-64.333 -37 -115 -37zM79 540h49v-540h-49v540z" />
    <glyph glyph-name="Iogonek" unicode="&#x12e;" horiz-adv-x="230" 
d="M91 740h49.001v-760c-38 -18.667 -65.333 -37.334 -82 -56.001s-25 -39 -25 -61c0 -30 16.667 -45 50 -45c17.333 0 36 3.66699 56 11v-37c-18 -8 -38.667 -12 -62 -12c-57.333 0 -86 26.667 -86 80c0 26.667 8.16699 50.834 24.5 72.501s44.166 44.167 83.499 67.5h-8
v740z" />
    <glyph glyph-name="iogonek" unicode="&#x12f;" horiz-adv-x="205" 
d="M78 540h49.001v-560c-38 -18.667 -65.333 -37.334 -82 -56.001s-25 -39 -25 -61c0 -30 16.667 -45 50 -45c17.333 0 36 3.66699 56 11v-37c-18 -8 -38.667 -12 -62 -12c-57.333 0 -86 26.667 -86 80c0 26.667 8.16699 50.834 24.5 72.501s44.166 44.167 83.499 67.5h-8
v540zM103.001 671c-24 0 -36 12 -36 36s12 36 36 36c24.667 0 37 -12 37 -36s-12.333 -36 -37 -36z" />
    <glyph glyph-name="Idotaccent" unicode="&#x130;" horiz-adv-x="230" 
d="M91 740h49v-740h-49v740zM117 812c-11.333 0 -20.5 3 -27.5 9s-10.5 15.667 -10.5 29s3.5 23 10.5 29s16.167 9 27.5 9s20.666 -3 27.999 -9s11 -15.667 11 -29s-3.66699 -23 -11 -29s-16.666 -9 -27.999 -9z" />
    <glyph glyph-name="dotlessi" unicode="&#x131;" horiz-adv-x="205" 
d="M78 540h49v-540h-49v540z" />
    <glyph glyph-name="IJ" unicode="&#x132;" horiz-adv-x="461" 
d="M91 740h49v-740h-49v740zM241 -160c16 33.333 29.333 63.668 40 91.001s19 54 25 80s10.333 52.667 13 80s4 57.666 4 90.999v558h49v-560c0 -32 -1.66699 -62.333 -5 -91s-8.83301 -57.167 -16.5 -85.5s-17.5 -57.5 -29.5 -87.5s-26.667 -62 -44 -96z" />
    <glyph glyph-name="ij" unicode="&#x133;" horiz-adv-x="408" 
d="M103 671c-24 0 -36 12 -36 36s12 36 36 36c24.667 0 37 -12 37 -36s-12.333 -36 -37 -36zM78 540h49v-540h-49v540zM305 671c-24 0 -36 12 -36 36s12 36 36 36c24.667 0 37 -12 37 -36s-12.333 -36 -37 -36zM207 -200c26 45.333 45.167 93 57.5 143s18.5 107 18.5 171
v426h49v-449c0 -55.333 -7.83301 -109.5 -23.5 -162.5s-38.167 -102.5 -67.5 -148.5z" />
    <glyph glyph-name="Jcircumflex" unicode="&#x134;" horiz-adv-x="230" 
d="M11 -160c16 33.333 29.333 63.668 40 91.001s19 54 25 80s10.333 52.667 13 80s4 57.666 4 90.999v558h49v-560c0 -32 -1.66699 -62.333 -5 -91s-8.83301 -57.167 -16.5 -85.5s-17.5 -57.5 -29.5 -87.5s-26.667 -62 -44 -96zM-25 866.002l141 72l142 -72v-49l-142 72
l-141 -72v49z" />
    <glyph glyph-name="jcircumflex" unicode="&#x135;" horiz-adv-x="203" 
d="M-41 691l141 72l141 -72v-49l-141 72l-141 -72v49zM2 -200c26 45.333 45.167 93 57.5 143s18.5 107 18.5 171v426h49v-449c0 -55.333 -7.83301 -109.5 -23.5 -162.5s-38.167 -102.5 -67.5 -148.5z" />
    <glyph glyph-name="Kcommaaccent" unicode="&#x136;" horiz-adv-x="608" 
d="M296 -68h52l-57 -152h-45zM91 740h49v-340h134l247 340h60l-243 -334l-27 -24v-6l29 -23l259 -353h-58l-261 354h-140v-354h-49v740z" />
    <glyph glyph-name="kcommaaccent" unicode="&#x137;" horiz-adv-x="488" 
d="M256 -68h52l-57 -152h-45zM77 808h49v-510h98l188 242h57l-197 -253l-15 -9v-3l16 -10l212 -265h-57l-206 257h-96v-257h-49v808z" />
    <glyph glyph-name="kgreenlandic" unicode="&#x138;" horiz-adv-x="492" 
d="M77 540h49v-242h133l154 242h55l-162 -253l-15 -9v-3l16 -10l178 -265h-56l-172 257h-131v-257h-49v540z" />
    <glyph glyph-name="Lacute" unicode="&#x139;" horiz-adv-x="470" 
d="M98 799l78 128h53l-89 -133zM91 740h49v-695h317v-45h-366v740z" />
    <glyph glyph-name="lacute" unicode="&#x13a;" horiz-adv-x="209" 
d="M89 847l74 183h51l-90 -189zM80 808h49v-808h-49v808z" />
    <glyph glyph-name="Lcommaaccent" unicode="&#x13b;" horiz-adv-x="470" 
d="M259 -68h52l-57 -152h-45zM91 740h49v-695h317v-45h-366v740z" />
    <glyph glyph-name="lcommaaccent" unicode="&#x13c;" horiz-adv-x="209" 
d="M91 -68h52l-57 -152h-45zM80 808h49v-808h-49v808z" />
    <glyph glyph-name="Lcaron" unicode="&#x13d;" horiz-adv-x="475" 
d="M361 746h45l-23 -228h-22v228zM91 740h49v-695h317v-45h-366v740z" />
    <glyph glyph-name="lcaron" unicode="&#x13e;" horiz-adv-x="209" 
d="M201 808h45l-23 -228h-22v228zM80 808h49v-808h-49v808z" />
    <glyph glyph-name="Ldot" unicode="&#x13f;" horiz-adv-x="475" 
d="M91 740h49v-695h317v-45h-366v740zM374 333c-11.333 0 -20.5 3 -27.5 9s-10.5 15.667 -10.5 29s3.5 23 10.5 29s16.167 9 27.5 9s20.666 -3 27.999 -9s11 -15.667 11 -29s-3.66699 -23 -11 -29s-16.666 -9 -27.999 -9z" />
    <glyph glyph-name="ldot" unicode="&#x140;" horiz-adv-x="247" 
d="M80 808h49v-808h-49v808zM228 332c-11.333 0 -20.5 3 -27.5 9s-10.5 15.667 -10.5 29s3.5 23 10.5 29s16.167 9 27.5 9s20.666 -3 27.999 -9s11 -15.667 11 -29s-3.66699 -23 -11 -29s-16.666 -9 -27.999 -9z" />
    <glyph glyph-name="Lslash" unicode="&#x141;" horiz-adv-x="493" 
d="M15 275l99 73v392h49v-355l145 108v-52l-145 -108v-288h317v-45h-366v296l-99 -73v52z" />
    <glyph glyph-name="lslash" unicode="&#x142;" horiz-adv-x="283" 
d="M24 300l91 69v439h49v-402l100 76v-45l-100 -76v-361h-49v323l-91 -69v46z" />
    <glyph glyph-name="Nacute" unicode="&#x143;" horiz-adv-x="725" 
d="M337 799l78 128h53l-89 -133zM91 740h48l388 -571l55 -88l5 1v658h47v-740h-49l-389 571l-54 86h-4v-657h-47v740z" />
    <glyph glyph-name="nacute" unicode="&#x144;" horiz-adv-x="541" 
d="M260 616l74 183h51l-90 -189zM77 540h40.998l5 -61h4c46.667 24.667 86.334 42.667 119.001 54s63.334 17 92.001 17c44 0 76.5 -11.167 97.5 -33.5s31.5 -59.5 31.5 -111.5v-405h-49v392c0 40.667 -7.33301 69.5 -22 86.5s-37.667 25.5 -69 25.5c-28 0 -59 -6 -93 -18
s-70 -28.667 -108 -50v-436h-49v540z" />
    <glyph glyph-name="Ncommaaccent" unicode="&#x145;" horiz-adv-x="725" 
d="M360 -68h52l-57 -152h-45zM91 740h48l388 -571l55 -88l5 1v658h47v-740h-49l-389 571l-54 86h-4v-657h-47v740z" />
    <glyph glyph-name="ncommaaccent" unicode="&#x146;" horiz-adv-x="541" 
d="M256 -68h52l-57 -152h-45zM77 540h40.998l5 -61h4c46.667 24.667 86.334 42.667 119.001 54s63.334 17 92.001 17c44 0 76.5 -11.167 97.5 -33.5s31.5 -59.5 31.5 -111.5v-405h-49v392c0 40.667 -7.33301 69.5 -22 86.5s-37.667 25.5 -69 25.5c-28 0 -59 -6 -93 -18
s-70 -28.667 -108 -50v-436h-49v540z" />
    <glyph glyph-name="Ncaron" unicode="&#x147;" horiz-adv-x="725" 
d="M225 929l141 -72l142 72v-49l-142 -73l-141 73v49zM91 740h48l388 -571l55 -88l5 1v658h47v-740h-49l-389 571l-54 86h-4v-657h-47v740z" />
    <glyph glyph-name="ncaron" unicode="&#x148;" horiz-adv-x="541" 
d="M136 758l141 -73l142 73v-49l-142 -73l-141 73v49zM77 540h40.998l5 -61h4c46.667 24.667 86.334 42.667 119.001 54s63.334 17 92.001 17c44 0 76.5 -11.167 97.5 -33.5s31.5 -59.5 31.5 -111.5v-405h-49v392c0 40.667 -7.33301 69.5 -22 86.5s-37.667 25.5 -69 25.5
c-28 0 -59 -6 -93 -18s-70 -28.667 -108 -50v-436h-49v540z" />
    <glyph glyph-name="napostrophe" unicode="&#x149;" horiz-adv-x="597" 
d="M87 808v-4l-26 -224h-21v228h47zM133 540h40.998l5 -61h4c46.667 24.667 86.334 42.667 119.001 54s63.334 17 92.001 17c44 0 76.5 -11.167 97.5 -33.5s31.5 -59.5 31.5 -111.5v-405h-49v392c0 40.667 -7.33301 69.5 -22 86.5s-37.667 25.5 -69 25.5
c-28 0 -59 -6 -93 -18s-70 -28.667 -108 -50v-436h-49v540z" />
    <glyph glyph-name="Eng" unicode="&#x14a;" horiz-adv-x="724" 
d="M509 -171c15.333 30 29.332 61.498 41.999 94.498s21.334 62.167 26.001 87.5l-381 561l-53 86l-5 -1v-657h-47v740h47l388 -571l56 -88h5v659h47v-674c0 -17.333 -2.16699 -36.666 -6.5 -57.999s-10.5 -43.166 -18.5 -65.499s-17.167 -44.333 -27.5 -66
s-21.5 -41.167 -33.5 -58.5z" />
    <glyph glyph-name="eng" unicode="&#x14b;" horiz-adv-x="540" 
d="M349 -203c10 20 19.1689 42.001 27.502 66.001s15.666 48.833 21.999 74.5s11.166 51.167 14.499 76.5s5 49.666 5 72.999v303c0 40 -7.16699 68.833 -21.5 86.5s-37.5 26.5 -69.5 26.5c-52.667 0 -119.667 -22.333 -201 -67v-436h-49v540h41l5 -61h4
c46.667 24.667 86.334 42.667 119.001 54s63.334 17 92.001 17c45.333 0 78.166 -11.5 98.499 -34.5s30.5 -59.833 30.5 -110.5v-324c0 -24.667 -2 -51 -6 -79s-9.66699 -55.333 -17 -82s-15.833 -52 -25.5 -76s-19.834 -44.333 -30.501 -61z" />
    <glyph glyph-name="Omacron" unicode="&#x14c;" horiz-adv-x="682" 
d="M204 884h266v-42h-266v42zM341 -10c-93.333 0 -164.5 31.666 -213.5 94.999s-73.5 158 -73.5 284c0 126.667 24.5 221.834 73.5 285.501s120.167 95.5 213.5 95.5s164.5 -32 213.5 -96s73.5 -159 73.5 -285s-24.5 -220.667 -73.5 -284s-120.167 -95 -213.5 -95z
M341 35.999c158 0 237.001 111 237.001 333c0 112 -19.833 195.833 -59.5 251.5s-98.834 83.5 -177.501 83.5c-158 0 -237 -111.667 -237 -335c0 -222 79 -333 237 -333z" />
    <glyph glyph-name="omacron" unicode="&#x14d;" horiz-adv-x="537" 
d="M127 693h276v-42h-276v42zM269 -9c-71.333 0 -125.833 23.8311 -163.5 71.498s-56.5 116.834 -56.5 207.501c0 91.333 18.833 160.833 56.5 208.5s92.167 71.5 163.5 71.5s125.666 -23.833 162.999 -71.5s56 -117.167 56 -208.5s-18.667 -160.666 -56 -207.999
s-91.666 -71 -162.999 -71zM269 34.998c112.667 0 169 78.333 169 235s-56.333 235 -169 235s-169 -78.333 -169 -235s56.333 -235 169 -235z" />
    <glyph glyph-name="Obreve" unicode="&#x14e;" horiz-adv-x="682" 
d="M342 815c-50 0 -88.668 12.167 -116.001 36.5s-41 57.833 -41 100.5h43c0 -31.333 10 -55.5 30 -72.5s48 -25.5 84 -25.5s63.833 8.5 83.5 25.5s29.5 41.167 29.5 72.5h43c0 -42.667 -13.667 -76.167 -41 -100.5s-65.666 -36.5 -114.999 -36.5zM340.999 -10
c-93.333 0 -164.5 31.666 -213.5 94.999s-73.5 158 -73.5 284c0 126.667 24.5 221.834 73.5 285.501s120.167 95.5 213.5 95.5s164.5 -32 213.5 -96s73.5 -159 73.5 -285s-24.5 -220.667 -73.5 -284s-120.167 -95 -213.5 -95zM340.999 35.999c158 0 237.001 111 237.001 333
c0 112 -19.833 195.833 -59.5 251.5s-98.834 83.5 -177.501 83.5c-158 0 -237 -111.667 -237 -335c0 -222 79 -333 237 -333z" />
    <glyph glyph-name="obreve" unicode="&#x14f;" horiz-adv-x="537" 
d="M269 -9c-71.333 0 -125.833 23.8311 -163.5 71.498s-56.5 116.834 -56.5 207.501c0 91.333 18.833 160.833 56.5 208.5s92.167 71.5 163.5 71.5s125.666 -23.833 162.999 -71.5s56 -117.167 56 -208.5s-18.667 -160.666 -56 -207.999s-91.666 -71 -162.999 -71z
M269 34.998c112.667 0 169 78.333 169 235s-56.333 235 -169 235s-169 -78.333 -169 -235s56.333 -235 169 -235zM263 620.998c-52 0 -91.167 12.333 -117.5 37s-39.5 59 -39.5 103h43c0 -36 10 -62.167 30 -78.5s48 -24.5 84 -24.5s64 8.16699 84 24.5s30 42.5 30 78.5h43
c-0.666992 -44 -14 -78.333 -40 -103s-65 -37 -117 -37z" />
    <glyph glyph-name="Ohungarumlaut" unicode="&#x150;" horiz-adv-x="682" 
d="M341 -10c-93.333 0 -164.5 31.666 -213.5 94.999s-73.5 158 -73.5 284c0 126.667 24.5 221.834 73.5 285.501s120.167 95.5 213.5 95.5s164.5 -32 213.5 -96s73.5 -159 73.5 -285s-24.5 -220.667 -73.5 -284s-120.167 -95 -213.5 -95zM341 35.999
c158 0 237.001 111 237.001 333c0 112 -19.833 195.833 -59.5 251.5s-98.834 83.5 -177.501 83.5c-158 0 -237 -111.667 -237 -335c0 -222 79 -333 237 -333zM241.001 803.999l78 118h51l-89 -132zM376.001 803.999l78 118h51l-88 -132z" />
    <glyph glyph-name="ohungarumlaut" unicode="&#x151;" horiz-adv-x="537" 
d="M161 624l74 179h54l-91 -189zM324 624l73 179h54l-91 -189zM269 -9c-71.333 0 -125.833 23.8311 -163.5 71.498s-56.5 116.834 -56.5 207.501c0 91.333 18.833 160.833 56.5 208.5s92.167 71.5 163.5 71.5s125.666 -23.833 162.999 -71.5s56 -117.167 56 -208.5
s-18.667 -160.666 -56 -207.999s-91.666 -71 -162.999 -71zM269 34.998c112.667 0 169 78.333 169 235s-56.333 235 -169 235s-169 -78.333 -169 -235s56.333 -235 169 -235z" />
    <glyph glyph-name="OE" unicode="&#x152;" horiz-adv-x="876" 
d="M344 -6c-94 0 -165.831 31.333 -215.498 94s-74.5 156.334 -74.5 281.001c0 125.333 24.833 219.5 74.5 282.5s121.5 94.5 215.5 94.5c15.333 0 31.166 -0.333008 47.499 -1s31.166 -2.33398 44.499 -5.00098h380v-45h-332v-296h307v-45h-307v-309h341v-45h-389
c-12 -2 -26.5 -3.5 -43.5 -4.5s-33.167 -1.5 -48.5 -1.5zM345.002 39c14.667 0 30 0.5 46 1.5s30.667 3.16699 44 6.5v646c-13.333 3.33301 -27.833 5.5 -43.5 6.5s-31.167 1.5 -46.5 1.5c-161.333 0 -242 -110.667 -242 -332c0 -220 80.667 -330 242 -330z" />
    <glyph glyph-name="oe" unicode="&#x153;" horiz-adv-x="882" 
d="M664 -9c-52 0 -94.6689 12.165 -128.002 36.498s-57 59.5 -71 105.5h-4c-14.667 -46 -38 -81.167 -70 -105.5s-72.667 -36.5 -122 -36.5c-71.333 0 -125.833 23.833 -163.5 71.5s-56.5 116.834 -56.5 207.501c0 91.333 18.833 160.833 56.5 208.5s92.167 71.5 163.5 71.5
c50 0 91.167 -12.667 123.5 -38s55.5 -61.666 69.5 -108.999h4c14.667 47.333 37.834 83.5 69.501 108.5s72.167 37.5 121.5 37.5c58 0 102.167 -19.833 132.5 -59.5s45.5 -97.5 45.5 -173.5c0 -28.667 -1.33301 -50.667 -4 -66h-342c1.33301 -70.667 17 -124.167 47 -160.5
s74 -54.5 132 -54.5c23.333 0 46.333 2.33301 69 7s47.334 12.667 74.001 24l5 -43c-22.667 -10 -47.5 -17.833 -74.5 -23.5s-52.833 -8.5 -77.5 -8.5zM268.998 34.998c112.667 0 169 78.333 169 235s-56.333 235 -169 235s-169 -78.333 -169 -235s56.333 -235 169 -235z
M786.998 289.998c-2 76.667 -13.168 131.834 -33.501 165.501s-52.5 50.5 -96.5 50.5c-52 0 -92.167 -18.333 -120.5 -55s-44.166 -90.334 -47.499 -161.001h298z" />
    <glyph glyph-name="Racute" unicode="&#x154;" horiz-adv-x="600" 
d="M340 288c-13.333 -2 -27.5 -3.33105 -42.5 -3.99805s-30.833 -1 -47.5 -1s-34.167 0.5 -52.5 1.5s-37.5 2.83301 -57.5 5.5v-290h-49v735c28 5.33301 55.333 9.33301 82 12s52.667 4 78 4c102 0 176.5 -18.833 223.5 -56.5s70.5 -96.834 70.5 -177.501
c0 -60.667 -12.667 -108.834 -38 -144.501s-65 -60.5 -119 -74.5l173 -298h-55zM257 327.002c84.667 0 145.499 14.834 182.499 44.501s55.5 78.167 55.5 145.5c0 66 -18.833 114 -56.5 144s-98.167 45 -181.5 45c-18 0 -37.167 -0.833008 -57.5 -2.5
s-40.166 -4.16699 -59.499 -7.5v-360c13.333 -2.66699 30.833 -4.83398 52.5 -6.50098s43.167 -2.5 64.5 -2.5zM276.999 799.003l78 128h53l-89 -133z" />
    <glyph glyph-name="racute" unicode="&#x155;" horiz-adv-x="340" 
d="M178 616l74 183h51l-90 -189zM77 540h41l5 -68h4c33.333 18 65 33.833 95 47.5s60 23.5 90 29.5h15v-52h-17c-32 -4.66699 -63.5 -13.167 -94.5 -25.5s-60.833 -26.5 -89.5 -42.5v-429h-49v540z" />
    <glyph glyph-name="Rcommaaccent" unicode="&#x156;" horiz-adv-x="600" 
d="M295 -68h52l-57 -152h-45zM340 288c-13.333 -2 -27.5 -3.33105 -42.5 -3.99805s-30.833 -1 -47.5 -1s-34.167 0.5 -52.5 1.5s-37.5 2.83301 -57.5 5.5v-290h-49v735c28 5.33301 55.333 9.33301 82 12s52.667 4 78 4c102 0 176.5 -18.833 223.5 -56.5
s70.5 -96.834 70.5 -177.501c0 -60.667 -12.667 -108.834 -38 -144.501s-65 -60.5 -119 -74.5l173 -298h-55zM257 327.002c84.667 0 145.499 14.834 182.499 44.501s55.5 78.167 55.5 145.5c0 66 -18.833 114 -56.5 144s-98.167 45 -181.5 45
c-18 0 -37.167 -0.833008 -57.5 -2.5s-40.166 -4.16699 -59.499 -7.5v-360c13.333 -2.66699 30.833 -4.83398 52.5 -6.50098s43.167 -2.5 64.5 -2.5z" />
    <glyph glyph-name="rcommaaccent" unicode="&#x157;" horiz-adv-x="340" 
d="M87 -68h52l-57 -152h-45zM77 540h41l5 -68h4c33.333 18 65 33.833 95 47.5s60 23.5 90 29.5h15v-52h-17c-32 -4.66699 -63.5 -13.167 -94.5 -25.5s-60.833 -26.5 -89.5 -42.5v-429h-49v540z" />
    <glyph glyph-name="Rcaron" unicode="&#x158;" horiz-adv-x="600" 
d="M165 929l141 -72l142 72v-49l-142 -73l-141 73v49zM340 288c-13.333 -2 -27.5 -3.33105 -42.5 -3.99805s-30.833 -1 -47.5 -1s-34.167 0.5 -52.5 1.5s-37.5 2.83301 -57.5 5.5v-290h-49v735c28 5.33301 55.333 9.33301 82 12s52.667 4 78 4
c102 0 176.5 -18.833 223.5 -56.5s70.5 -96.834 70.5 -177.501c0 -60.667 -12.667 -108.834 -38 -144.501s-65 -60.5 -119 -74.5l173 -298h-55zM257 327.002c84.667 0 145.499 14.834 182.499 44.501s55.5 78.167 55.5 145.5c0 66 -18.833 114 -56.5 144
s-98.167 45 -181.5 45c-18 0 -37.167 -0.833008 -57.5 -2.5s-40.166 -4.16699 -59.499 -7.5v-360c13.333 -2.66699 30.833 -4.83398 52.5 -6.50098s43.167 -2.5 64.5 -2.5z" />
    <glyph glyph-name="rcaron" unicode="&#x159;" horiz-adv-x="340" 
d="M56 758l141 -73l142 73v-49l-142 -73l-141 73v49zM77 540h41l5 -68h4c33.333 18 65 33.833 95 47.5s60 23.5 90 29.5h15v-52h-17c-32 -4.66699 -63.5 -13.167 -94.5 -25.5s-60.833 -26.5 -89.5 -42.5v-429h-49v540z" />
    <glyph glyph-name="Sacute" unicode="&#x15a;" horiz-adv-x="522" 
d="M249 -12c-15.333 0 -31.667 0.835938 -49 2.50293s-35.166 3.83398 -53.499 6.50098s-36.5 6 -54.5 10s-34.667 8.33301 -50 13l3 45c14.667 -4.66699 30.834 -8.83398 48.501 -12.501s35.5 -6.83398 53.5 -9.50098s35.667 -4.83398 53 -6.50098s33.666 -2.5 48.999 -2.5
c58 0 103 12.667 135 38s48 61.666 48 108.999c0 24 -4.33301 44.833 -13 62.5s-20.667 33.167 -36 46.5s-34.166 24.833 -56.499 34.5s-46.833 19.167 -73.5 28.5c-36 12 -66.5 24.5 -91.5 37.5s-45.5 27.5 -61.5 43.5s-27.5 34 -34.5 54s-10.5 43 -10.5 69
c0 30 5.5 57.167 16.5 81.5s26.333 45.166 46 62.499s43.5 30.666 71.5 39.999s59 14 93 14c25.333 0 52 -1.83301 80 -5.5s58 -9.16699 90 -16.5l-4 -46c-62.667 15.333 -117.334 23 -164.001 23c-54 0 -97.167 -14 -129.5 -42s-48.5 -65 -48.5 -111
c0 -19.333 3 -36.666 9 -51.999s15.667 -29.166 29 -41.499s30.833 -23.833 52.5 -34.5s48.167 -21.334 79.5 -32.001s59.833 -21.834 85.5 -33.501s47.5 -25.667 65.5 -42s31.833 -35.666 41.5 -57.999s14.5 -49.166 14.5 -80.499c0 -62 -20.333 -110 -61 -144
s-98.334 -51 -173.001 -51zM242.999 799.003l78 128h53l-89 -133z" />
    <glyph glyph-name="sacute" unicode="&#x15b;" horiz-adv-x="413" 
d="M189 616l74 183h51l-90 -189zM200 -11c-10 0 -20.165 0.328125 -30.498 0.995117s-21.5 2 -33.5 4l-40 7c-14.667 2.66699 -31.667 6 -51 10v45c27.333 -7.33301 53.666 -13 78.999 -17s49 -6 71 -6c40.667 0 71.834 9.5 93.501 28.5s32.5 45.5 32.5 79.5
c0 34.667 -10.167 60.167 -30.5 76.5s-47.5 28.5 -81.5 36.5c-18.667 4 -37.334 8.83301 -56.001 14.5s-35.5 13.834 -50.5 24.501s-27.167 25 -36.5 43s-14 41.667 -14 71c0 45.333 15.333 81 46 107s72.667 39 126 39c8.66699 0 17.167 -0.333008 25.5 -1
s17.333 -1.66699 27 -3s20.5 -3.16602 32.5 -5.49902l43 -8.5l-2 -45c-28 6.66699 -51.333 11.334 -70 14.001s-36.334 4 -53.001 4c-40.667 0 -71.834 -8.66699 -93.501 -26s-32.5 -42 -32.5 -74c0 -19.333 3.33301 -35.166 10 -47.499s15.5 -22.5 26.5 -30.5
s23.833 -14.333 38.5 -19s30.334 -9 47.001 -13c22 -6 42 -12.667 60 -20s33.5 -16.833 46.5 -28.5s23.167 -26.167 30.5 -43.5s11 -38.666 11 -63.999c0 -48 -15.5 -85.5 -46.5 -112.5s-72.5 -40.5 -124.5 -40.5z" />
    <glyph glyph-name="Scircumflex" unicode="&#x15c;" horiz-adv-x="522" 
d="M249 -12c-15.333 0 -31.667 0.835938 -49 2.50293s-35.166 3.83398 -53.499 6.50098s-36.5 6 -54.5 10s-34.667 8.33301 -50 13l3 45c14.667 -4.66699 30.834 -8.83398 48.501 -12.501s35.5 -6.83398 53.5 -9.50098s35.667 -4.83398 53 -6.50098s33.666 -2.5 48.999 -2.5
c58 0 103 12.667 135 38s48 61.666 48 108.999c0 24 -4.33301 44.833 -13 62.5s-20.667 33.167 -36 46.5s-34.166 24.833 -56.499 34.5s-46.833 19.167 -73.5 28.5c-36 12 -66.5 24.5 -91.5 37.5s-45.5 27.5 -61.5 43.5s-27.5 34 -34.5 54s-10.5 43 -10.5 69
c0 30 5.5 57.167 16.5 81.5s26.333 45.166 46 62.499s43.5 30.666 71.5 39.999s59 14 93 14c25.333 0 52 -1.83301 80 -5.5s58 -9.16699 90 -16.5l-4 -46c-62.667 15.333 -117.334 23 -164.001 23c-54 0 -97.167 -14 -129.5 -42s-48.5 -65 -48.5 -111
c0 -19.333 3 -36.666 9 -51.999s15.667 -29.166 29 -41.499s30.833 -23.833 52.5 -34.5s48.167 -21.334 79.5 -32.001s59.833 -21.834 85.5 -33.501s47.5 -25.667 65.5 -42s31.833 -35.666 41.5 -57.999s14.5 -49.166 14.5 -80.499c0 -62 -20.333 -110 -61 -144
s-98.334 -51 -173.001 -51zM128.999 866.003l141 72l142 -72v-49l-142 72l-141 -72v49z" />
    <glyph glyph-name="scircumflex" unicode="&#x15d;" horiz-adv-x="413" 
d="M65 688l141 72l142 -72v-49l-142 72l-141 -72v49zM200 -11c-10 0 -20.165 0.328125 -30.498 0.995117s-21.5 2 -33.5 4l-40 7c-14.667 2.66699 -31.667 6 -51 10v45c27.333 -7.33301 53.666 -13 78.999 -17s49 -6 71 -6c40.667 0 71.834 9.5 93.501 28.5
s32.5 45.5 32.5 79.5c0 34.667 -10.167 60.167 -30.5 76.5s-47.5 28.5 -81.5 36.5c-18.667 4 -37.334 8.83301 -56.001 14.5s-35.5 13.834 -50.5 24.501s-27.167 25 -36.5 43s-14 41.667 -14 71c0 45.333 15.333 81 46 107s72.667 39 126 39
c8.66699 0 17.167 -0.333008 25.5 -1s17.333 -1.66699 27 -3s20.5 -3.16602 32.5 -5.49902l43 -8.5l-2 -45c-28 6.66699 -51.333 11.334 -70 14.001s-36.334 4 -53.001 4c-40.667 0 -71.834 -8.66699 -93.501 -26s-32.5 -42 -32.5 -74c0 -19.333 3.33301 -35.166 10 -47.499
s15.5 -22.5 26.5 -30.5s23.833 -14.333 38.5 -19s30.334 -9 47.001 -13c22 -6 42 -12.667 60 -20s33.5 -16.833 46.5 -28.5s23.167 -26.167 30.5 -43.5s11 -38.666 11 -63.999c0 -48 -15.5 -85.5 -46.5 -112.5s-72.5 -40.5 -124.5 -40.5z" />
    <glyph glyph-name="uni015E" unicode="&#x15e;" horiz-adv-x="522" 
d="M234 -220c-24 0 -48.668 3.66992 -74.001 11.0029v42c12 -4 23.167 -6.83301 33.5 -8.5s20.833 -2.5 31.5 -2.5c27.333 0 47 5.66699 59 17s18 29.666 18 54.999c0 14.667 -2.33301 29.5 -7 44.5s-11.667 31.833 -21 50.5c-4 -0.666992 -8.16699 -1 -12.5 -1h-12.5
c-15.333 0 -31.666 0.833008 -48.999 2.5s-35.166 3.83398 -53.499 6.50098s-36.5 6 -54.5 10s-34.667 8.33301 -50 13l3 45c14.667 -4.66699 30.834 -8.83398 48.501 -12.501s35.5 -6.83398 53.5 -9.50098s35.667 -4.83398 53 -6.50098s33.666 -2.5 48.999 -2.5
c58 0 103 12.667 135 38s48 61.666 48 108.999c0 24 -4.33301 44.833 -13 62.5s-20.667 33.167 -36 46.5s-34.166 24.833 -56.499 34.5s-46.833 19.167 -73.5 28.5c-36 12 -66.5 24.5 -91.5 37.5s-45.5 27.5 -61.5 43.5s-27.5 34 -34.5 54s-10.5 43 -10.5 69
c0 30 5.5 57.167 16.5 81.5s26.333 45.166 46 62.499s43.5 30.666 71.5 39.999s59 14 93 14c25.333 0 52 -1.83301 80 -5.5s58 -9.16699 90 -16.5l-4 -46c-62.667 15.333 -117.334 23 -164.001 23c-54 0 -97.167 -14 -129.5 -42s-48.5 -65 -48.5 -111
c0 -19.333 3 -36.666 9 -51.999s15.667 -29.166 29 -41.499s30.833 -23.833 52.5 -34.5s48.167 -21.334 79.5 -32.001s59.833 -21.834 85.5 -33.501s47.5 -25.667 65.5 -42s31.833 -35.666 41.5 -57.999s14.5 -49.166 14.5 -80.499c0 -52 -14.5 -94.167 -43.5 -126.5
s-70.167 -53.166 -123.5 -62.499c11.333 -22.667 19.166 -41.667 23.499 -57s6.5 -30.333 6.5 -45c0 -36 -9.66699 -63.667 -29 -83s-47 -29 -83 -29z" />
    <glyph glyph-name="uni015F" unicode="&#x15f;" horiz-adv-x="413" 
d="M171 -220c-24 0 -48.665 3.66406 -73.998 10.9971v42c12 -4 23.167 -6.83301 33.5 -8.5s20.833 -2.5 31.5 -2.5c27.333 0 47 5.66699 59 17s18 29.666 18 54.999c0 14.667 -2.33301 29.5 -7 44.5s-11.667 31.833 -21 50.5h-11c-10 0 -20.167 0.333008 -30.5 1
s-21.5 2 -33.5 4l-40 7c-14.667 2.66699 -31.667 6 -51 10v45c27.333 -7.33301 53.666 -13 78.999 -17s49 -6 71 -6c40.667 0 71.834 9.5 93.501 28.5s32.5 45.5 32.5 79.5c0 34.667 -10.167 60.167 -30.5 76.5s-47.5 28.5 -81.5 36.5
c-18.667 4 -37.334 8.83301 -56.001 14.5s-35.5 13.834 -50.5 24.501s-27.167 25 -36.5 43s-14 41.667 -14 71c0 45.333 15.333 81 46 107s72.667 39 126 39c8.66699 0 17.167 -0.333008 25.5 -1s17.333 -1.66699 27 -3s20.5 -3.16602 32.5 -5.49902l43 -8.5l-2 -45
c-28 6.66699 -51.333 11.334 -70 14.001s-36.334 4 -53.001 4c-40.667 0 -71.834 -8.66699 -93.501 -26s-32.5 -42 -32.5 -74c0 -19.333 3.33301 -35.166 10 -47.499s15.5 -22.5 26.5 -30.5s23.833 -14.333 38.5 -19s30.334 -9 47.001 -13c22 -6 42 -12.667 60 -20
s33.5 -16.833 46.5 -28.5s23.167 -26.167 30.5 -43.5s11 -38.666 11 -63.999c0 -39.333 -10.5 -71.666 -31.5 -96.999s-50.167 -42 -87.5 -50c12 -22.667 20.167 -41.834 24.5 -57.501s6.5 -30.834 6.5 -45.501c0 -36 -9.66699 -63.667 -29 -83s-47 -29 -83 -29z" />
    <glyph glyph-name="Scaron" unicode="&#x160;" horiz-adv-x="522" 
d="M249 -12c-15.333 0 -31.667 0.835938 -49 2.50293s-35.166 3.83398 -53.499 6.50098s-36.5 6 -54.5 10s-34.667 8.33301 -50 13l3 45c14.667 -4.66699 30.834 -8.83398 48.501 -12.501s35.5 -6.83398 53.5 -9.50098s35.667 -4.83398 53 -6.50098s33.666 -2.5 48.999 -2.5
c58 0 103 12.667 135 38s48 61.666 48 108.999c0 24 -4.33301 44.833 -13 62.5s-20.667 33.167 -36 46.5s-34.166 24.833 -56.499 34.5s-46.833 19.167 -73.5 28.5c-36 12 -66.5 24.5 -91.5 37.5s-45.5 27.5 -61.5 43.5s-27.5 34 -34.5 54s-10.5 43 -10.5 69
c0 30 5.5 57.167 16.5 81.5s26.333 45.166 46 62.499s43.5 30.666 71.5 39.999s59 14 93 14c25.333 0 52 -1.83301 80 -5.5s58 -9.16699 90 -16.5l-4 -46c-62.667 15.333 -117.334 23 -164.001 23c-54 0 -97.167 -14 -129.5 -42s-48.5 -65 -48.5 -111
c0 -19.333 3 -36.666 9 -51.999s15.667 -29.166 29 -41.499s30.833 -23.833 52.5 -34.5s48.167 -21.334 79.5 -32.001s59.833 -21.834 85.5 -33.501s47.5 -25.667 65.5 -42s31.833 -35.666 41.5 -57.999s14.5 -49.166 14.5 -80.499c0 -62 -20.333 -110 -61 -144
s-98.334 -51 -173.001 -51zM130.999 929.003l141 -72l142 72v-49l-142 -73l-141 73v49z" />
    <glyph glyph-name="scaron" unicode="&#x161;" horiz-adv-x="413" 
d="M67 758l141 -73l142 73v-49l-142 -73l-141 73v49zM200 -11c-10 0 -20.165 0.328125 -30.498 0.995117s-21.5 2 -33.5 4l-40 7c-14.667 2.66699 -31.667 6 -51 10v45c27.333 -7.33301 53.666 -13 78.999 -17s49 -6 71 -6c40.667 0 71.834 9.5 93.501 28.5
s32.5 45.5 32.5 79.5c0 34.667 -10.167 60.167 -30.5 76.5s-47.5 28.5 -81.5 36.5c-18.667 4 -37.334 8.83301 -56.001 14.5s-35.5 13.834 -50.5 24.501s-27.167 25 -36.5 43s-14 41.667 -14 71c0 45.333 15.333 81 46 107s72.667 39 126 39
c8.66699 0 17.167 -0.333008 25.5 -1s17.333 -1.66699 27 -3s20.5 -3.16602 32.5 -5.49902l43 -8.5l-2 -45c-28 6.66699 -51.333 11.334 -70 14.001s-36.334 4 -53.001 4c-40.667 0 -71.834 -8.66699 -93.501 -26s-32.5 -42 -32.5 -74c0 -19.333 3.33301 -35.166 10 -47.499
s15.5 -22.5 26.5 -30.5s23.833 -14.333 38.5 -19s30.334 -9 47.001 -13c22 -6 42 -12.667 60 -20s33.5 -16.833 46.5 -28.5s23.167 -26.167 30.5 -43.5s11 -38.666 11 -63.999c0 -48 -15.5 -85.5 -46.5 -112.5s-72.5 -40.5 -124.5 -40.5z" />
    <glyph glyph-name="uni0162" unicode="&#x162;" horiz-adv-x="539" 
d="M215 -220c-24 0 -48.667 3.66699 -74 11v42c12 -4 23.167 -6.83301 33.5 -8.5s20.833 -2.5 31.5 -2.5c27.333 0 47 5.66699 59 17s18 29.666 18 54.999c0 17.333 -2.66699 34.5 -8 51.5s-15.666 35.167 -30.999 54.5v694h-229v46h509v-46h-230v-694
c13.333 -24 22.166 -44.167 26.499 -60.5s6.5 -32.166 6.5 -47.499c0 -36 -9.66699 -63.667 -29 -83s-47 -29 -83 -29z" />
    <glyph glyph-name="uni0163" unicode="&#x163;" horiz-adv-x="356" 
d="M179 -220c-24 0 -48.667 3.66895 -74 11.002v42c12 -4 23.167 -6.83301 33.5 -8.5s20.833 -2.5 31.5 -2.5c27.333 0 47 5.66699 59 17s18 29.666 18 54.999c0 16 -2.83301 32.5 -8.5 49.5s-14.5 36.167 -26.5 57.5c-55.333 16 -83 61.333 -83 136v357h-114v46h115l7 126
l40 7v-133h162v-46h-162v-350c0 -70.667 32.333 -106 97 -106c9.33301 0 20 0.833008 32 2.5s24 4.16699 36 7.5v-44c-27.333 -6.66699 -53.333 -10 -78 -10h-4c11.333 -22 19.333 -40.833 24 -56.5s7 -30.834 7 -45.501c0 -36 -9.66699 -63.667 -29 -83s-47 -29 -83 -29z
" />
    <glyph glyph-name="Tcaron" unicode="&#x164;" horiz-adv-x="539" 
d="M131 929l141 -72l142 72v-49l-142 -73l-141 73v49zM244 694h-229v46h509v-46h-230v-694h-50v694z" />
    <glyph glyph-name="tcaron" unicode="&#x165;" horiz-adv-x="344" 
d="M264 -6c-90 0 -135 47.667 -135 143v357h-114v46h115l7 126l40 7v-133h98v-46h-98v-350c0 -70.667 32.333 -106 97 -106c9.33301 0 20 0.833008 32 2.5s24 4.16699 36 7.5v-44c-27.333 -6.66699 -53.333 -10 -78 -10zM273 808h45l-23 -228h-22v228z" />
    <glyph glyph-name="Tbar" unicode="&#x166;" horiz-adv-x="549" 
d="M125 405h123v289h-229v46h509v-46h-230v-289h132v-37h-132v-368h-50v368h-123v37z" />
    <glyph glyph-name="tbar" unicode="&#x167;" horiz-adv-x="368" 
d="M26 350h113v144h-114v46h115l7 126l40 7v-133h162v-46h-162v-144h142v-41h-142v-165c0 -70.667 32.333 -106 97 -106c9.33301 0 20 0.833008 32 2.5s24 4.16699 36 7.5v-44c-27.333 -6.66699 -53.333 -10 -78 -10c-90 0 -135 47.667 -135 143v172h-113v41z" />
    <glyph glyph-name="Utilde" unicode="&#x168;" horiz-adv-x="697" 
d="M179 858c14.667 16.667 30.998 30 48.998 40s36.333 15 55 15c14.667 0 28 -2.16699 40 -6.5s23.667 -9.16602 35 -14.499s22.5 -10.166 33.5 -14.499s23.167 -6.5 36.5 -6.5c27.333 0 52.333 13 75 39l26 -23c-13.333 -17.333 -29.5 -31.333 -48.5 -42
s-38.167 -16 -57.5 -16c-13.333 0 -26 2.16699 -38 6.5s-23.667 9.16602 -35 14.499s-22.833 10.166 -34.5 14.499s-23.5 6.5 -35.5 6.5c-13.333 0 -26.666 -3.33301 -39.999 -10s-25.666 -15.667 -36.999 -27zM348.998 -10c-92 0 -159.167 23.833 -201.5 71.5
s-63.5 125.5 -63.5 233.5v445h49v-442c0 -47.333 4.5 -87.5 13.5 -120.5s22.5 -60 40.5 -81s40.5 -36.333 67.5 -46s58.5 -14.5 94.5 -14.5s67.5 4.83301 94.5 14.5s49.5 25 67.5 46s31.333 48 40 81s13 73.167 13 120.5v442h50v-445c0 -108 -21.167 -185.833 -63.5 -233.5
s-109.5 -71.5 -201.5 -71.5z" />
    <glyph glyph-name="utilde" unicode="&#x169;" horiz-adv-x="540" 
d="M200 -10c-44 0 -76.167 11.668 -96.5 35.001s-30.5 60 -30.5 110v405h49v-392c0 -39.333 7 -67.833 21 -85.5s36.667 -26.5 68 -26.5c32 0 64.167 6.66699 96.5 20s67.833 30.666 106.5 51.999v432h49v-540h-41l-5 64h-4l-65.5 -33c-19 -9.33301 -36.667 -17 -53 -23
s-32 -10.5 -47 -13.5s-30.833 -4.5 -47.5 -4.5zM89 674.001c14.667 16.667 31.167 30 49.5 40s36.5 15 54.5 15c14.667 0 28 -2.33301 40 -7s23.667 -9.66699 35 -15s22.5 -10.333 33.5 -15s23.167 -7 36.5 -7c27.333 0 52.333 13 75 39l26 -23
c-12.667 -17.333 -28.5 -31.333 -47.5 -42s-38.5 -16 -58.5 -16c-13.333 0 -26 2.16699 -38 6.5s-23.667 9.33301 -35 15s-22.833 10.667 -34.5 15s-23.5 6.5 -35.5 6.5c-26.667 0 -52 -12.667 -76 -38z" />
    <glyph glyph-name="Umacron" unicode="&#x16a;" horiz-adv-x="697" 
d="M210 884h266v-42h-266v42zM349 -10c-92 0 -159.167 23.833 -201.5 71.5s-63.5 125.5 -63.5 233.5v445h49v-442c0 -47.333 4.5 -87.5 13.5 -120.5s22.5 -60 40.5 -81s40.5 -36.333 67.5 -46s58.5 -14.5 94.5 -14.5s67.5 4.83301 94.5 14.5s49.5 25 67.5 46
s31.333 48 40 81s13 73.167 13 120.5v442h50v-445c0 -108 -21.167 -185.833 -63.5 -233.5s-109.5 -71.5 -201.5 -71.5z" />
    <glyph glyph-name="umacron" unicode="&#x16b;" horiz-adv-x="540" 
d="M200 -10c-44 0 -76.167 11.668 -96.5 35.001s-30.5 60 -30.5 110v405h49v-392c0 -39.333 7 -67.833 21 -85.5s36.667 -26.5 68 -26.5c32 0 64.167 6.66699 96.5 20s67.833 30.666 106.5 51.999v432h49v-540h-41l-5 64h-4l-65.5 -33c-19 -9.33301 -36.667 -17 -53 -23
s-32 -10.5 -47 -13.5s-30.833 -4.5 -47.5 -4.5zM130 693.001h276v-42h-276v42z" />
    <glyph glyph-name="Ubreve" unicode="&#x16c;" horiz-adv-x="697" 
d="M348 815c-50 0 -88.668 12.167 -116.001 36.5s-41 57.833 -41 100.5h43c0 -31.333 10 -55.5 30 -72.5s48 -25.5 84 -25.5s63.833 8.5 83.5 25.5s29.5 41.167 29.5 72.5h43c0 -42.667 -13.667 -76.167 -41 -100.5s-65.666 -36.5 -114.999 -36.5zM348.999 -10
c-92 0 -159.167 23.833 -201.5 71.5s-63.5 125.5 -63.5 233.5v445h49v-442c0 -47.333 4.5 -87.5 13.5 -120.5s22.5 -60 40.5 -81s40.5 -36.333 67.5 -46s58.5 -14.5 94.5 -14.5s67.5 4.83301 94.5 14.5s49.5 25 67.5 46s31.333 48 40 81s13 73.167 13 120.5v442h50v-445
c0 -108 -21.167 -185.833 -63.5 -233.5s-109.5 -71.5 -201.5 -71.5z" />
    <glyph glyph-name="ubreve" unicode="&#x16d;" horiz-adv-x="540" 
d="M200 -10c-44 0 -76.167 11.668 -96.5 35.001s-30.5 60 -30.5 110v405h49v-392c0 -39.333 7 -67.833 21 -85.5s36.667 -26.5 68 -26.5c32 0 64.167 6.66699 96.5 20s67.833 30.666 106.5 51.999v432h49v-540h-41l-5 64h-4l-65.5 -33c-19 -9.33301 -36.667 -17 -53 -23
s-32 -10.5 -47 -13.5s-30.833 -4.5 -47.5 -4.5zM265 621.001c-52 0 -91.167 12.333 -117.5 37s-39.5 59 -39.5 103h43c0 -36 10 -62.167 30 -78.5s48 -24.5 84 -24.5s64 8.16699 84 24.5s30 42.5 30 78.5h43c-0.666992 -44 -14 -78.333 -40 -103s-65 -37 -117 -37z" />
    <glyph glyph-name="Uring" unicode="&#x16e;" horiz-adv-x="697" 
d="M349 -10c-92 0 -159.167 23.833 -201.5 71.5s-63.5 125.5 -63.5 233.5v445h49v-442c0 -47.333 4.5 -87.5 13.5 -120.5s22.5 -60 40.5 -81s40.5 -36.333 67.5 -46s58.5 -14.5 94.5 -14.5s67.5 4.83301 94.5 14.5s49.5 25 67.5 46s31.333 48 40 81s13 73.167 13 120.5v442
h50v-445c0 -108 -21.167 -185.833 -63.5 -233.5s-109.5 -71.5 -201.5 -71.5zM347 794c-32 0 -57.833 9.83301 -77.5 29.5s-29.5 44.167 -29.5 73.5c0 30 9.83301 55 29.5 75s45.5 30 77.5 30s57.667 -10 77 -30s29 -45 29 -75c0 -29.333 -9.66699 -53.833 -29 -73.5
s-45 -29.5 -77 -29.5zM347 830c21.333 0 38 6.16699 50 18.5s18 28.5 18 48.5c0 20.667 -6 37.167 -18 49.5s-28.667 18.5 -50 18.5c-22 0 -39 -6.16699 -51 -18.5s-18 -28.833 -18 -49.5c0 -20 6 -36.167 18 -48.5s29 -18.5 51 -18.5z" />
    <glyph glyph-name="uring" unicode="&#x16f;" horiz-adv-x="540" 
d="M266 610c-32 0 -57.833 9.83301 -77.5 29.5s-29.5 44.167 -29.5 73.5c0 30 9.66699 55 29 75s45.333 30 78 30c32 0 57.667 -10 77 -30s29 -45 29 -75c0 -29.333 -9.66699 -53.833 -29 -73.5s-45 -29.5 -77 -29.5zM266 646c21.333 0 38 6.33301 50 19s18 28.667 18 48
c0 20.667 -6 37.167 -18 49.5s-28.667 18.5 -50 18.5c-22 0 -38.833 -6.16699 -50.5 -18.5s-17.5 -28.833 -17.5 -49.5c0 -20 6 -36.167 18 -48.5s28.667 -18.5 50 -18.5zM200 -10c-44 0 -76.167 11.668 -96.5 35.001s-30.5 60 -30.5 110v405h49v-392
c0 -39.333 7 -67.833 21 -85.5s36.667 -26.5 68 -26.5c32 0 64.167 6.66699 96.5 20s67.833 30.666 106.5 51.999v432h49v-540h-41l-5 64h-4l-65.5 -33c-19 -9.33301 -36.667 -17 -53 -23s-32 -10.5 -47 -13.5s-30.833 -4.5 -47.5 -4.5z" />
    <glyph glyph-name="Uhungarumlaut" unicode="&#x170;" horiz-adv-x="697" 
d="M349 -10c-92 0 -159.167 23.833 -201.5 71.5s-63.5 125.5 -63.5 233.5v445h49v-442c0 -47.333 4.5 -87.5 13.5 -120.5s22.5 -60 40.5 -81s40.5 -36.333 67.5 -46s58.5 -14.5 94.5 -14.5s67.5 4.83301 94.5 14.5s49.5 25 67.5 46s31.333 48 40 81s13 73.167 13 120.5v442
h50v-445c0 -108 -21.167 -185.833 -63.5 -233.5s-109.5 -71.5 -201.5 -71.5zM247 804l78 118h51l-89 -132zM382 804l78 118h51l-88 -132z" />
    <glyph glyph-name="uhungarumlaut" unicode="&#x171;" horiz-adv-x="540" 
d="M200 -10c-44 0 -76.167 11.668 -96.5 35.001s-30.5 60 -30.5 110v405h49v-392c0 -39.333 7 -67.833 21 -85.5s36.667 -26.5 68 -26.5c32 0 64.167 6.66699 96.5 20s67.833 30.666 106.5 51.999v432h49v-540h-41l-5 64h-4l-65.5 -33c-19 -9.33301 -36.667 -17 -53 -23
s-32 -10.5 -47 -13.5s-30.833 -4.5 -47.5 -4.5zM162 624.001l74 179h54l-91 -189zM325 624.001l73 179h54l-91 -189z" />
    <glyph glyph-name="Uogonek" unicode="&#x172;" horiz-adv-x="697" 
d="M334 -208c-57.333 0 -86.001 26.666 -86.001 79.999c0 22.667 5.66699 43.334 17 62.001s30.333 37.667 57 57c-41.333 2 -77 9.33301 -107 22s-54.667 31.334 -74 56.001s-33.666 55.667 -42.999 93s-14 81.666 -14 132.999v445h49v-442
c0 -47.333 4.5 -87.5 13.5 -120.5s22.5 -60 40.5 -81s40.5 -36.333 67.5 -46s58.5 -14.5 94.5 -14.5s67.5 4.83301 94.5 14.5s49.5 25 67.5 46s31.333 48 40 81s13 73.167 13 120.5v442h50v-445c0 -98 -17.5 -171.167 -52.5 -219.5s-89.833 -76.166 -164.5 -83.499
c-38 -18.667 -65.333 -37.334 -82 -56.001s-25 -39 -25 -61c0 -30 16.667 -45 50 -45c17.333 0 36 3.66699 56 11v-37c-18 -8 -38.667 -12 -62 -12z" />
    <glyph glyph-name="uogonek" unicode="&#x173;" horiz-adv-x="541" 
d="M201 -10c-44 0 -76.166 11.668 -96.499 35.001s-30.5 60 -30.5 110v405h49v-392c0 -39.333 7 -67.833 21 -85.5s36.667 -26.5 68 -26.5c32 0 64.167 6.66699 96.5 20s67.833 30.666 106.5 51.999v432h49v-560c-38 -18.667 -65.333 -37.334 -82 -56.001s-25 -39 -25 -61
c0 -30 16.667 -45 50 -45c17.333 0 36 3.66699 56 11v-37c-18 -8 -38.667 -12 -62 -12c-57.333 0 -86 26.667 -86 80c0 26.667 8.16699 50.834 24.5 72.501s44.166 44.167 83.499 67.5l-5 64h-4l-65.5 -33c-19 -9.33301 -36.667 -17 -53 -23s-32 -10.5 -47 -13.5
s-30.833 -4.5 -47.5 -4.5z" />
    <glyph glyph-name="Wcircumflex" unicode="&#x174;" horiz-adv-x="937" 
d="M21 740h52l142 -538l36 -142h5l38 142l150 538h54l144 -538l37 -142h5l37 142l148 538h51l-206 -740h-66l-148 551l-27 114h-5l-29 -115l-154 -550h-66zM329 866l141 72l142 -72v-49l-142 72l-141 -72v49z" />
    <glyph glyph-name="wcircumflex" unicode="&#x175;" horiz-adv-x="729" 
d="M223 688l141 72l142 -72v-49l-142 72l-141 -72v49zM26 534v6h47l105 -397l20 -84h4l22 84l114 397h51l117 -397l23 -84h5l19 84l101 397h47v-6l-140 -534h-57l-120 405l-18 68h-5l-17 -68l-116 -405h-58z" />
    <glyph glyph-name="Ycircumflex" unicode="&#x176;" horiz-adv-x="567" 
d="M259 250l-253 490h54l193 -375l28 -63h5l28 63l193 375h54l-252 -487v-253h-50v250zM144 866l141 72l142 -72v-49l-142 72l-141 -72v49z" />
    <glyph glyph-name="ycircumflex" unicode="&#x177;" horiz-adv-x="504" 
d="M146 -210l-1 7l81 206l-207 531v6h51l161 -419l19 -61h4l20 61l164 419h50v-6l-298 -754zM114 688l141 72l142 -72v-49l-142 72l-141 -72v49z" />
    <glyph glyph-name="Ydieresis" unicode="&#x178;" horiz-adv-x="567" 
d="M259 250l-253 490h54l193 -375l28 -63h5l28 63l193 375h54l-252 -487v-253h-50v250zM174 822c-11.333 0 -20.5 2.83301 -27.5 8.5s-10.5 15.167 -10.5 28.5s3.5 23 10.5 29s16.167 9 27.5 9s20.5 -3 27.5 -9s10.5 -15.667 10.5 -29s-3.5 -22.833 -10.5 -28.5
s-16.167 -8.5 -27.5 -8.5zM397 822c-11.333 0 -20.666 2.83301 -27.999 8.5s-11 15.167 -11 28.5s3.66699 23 11 29s16.666 9 27.999 9c10.667 0 19.667 -3 27 -9s11 -15.667 11 -29s-3.66699 -22.833 -11 -28.5s-16.333 -8.5 -27 -8.5z" />
    <glyph glyph-name="Zacute" unicode="&#x179;" horiz-adv-x="523" 
d="M33 38l386 652v4h-377v46h440v-37l-386 -653v-4h393v-46h-456v38zM243 799l78 128h53l-89 -133z" />
    <glyph glyph-name="zacute" unicode="&#x17a;" horiz-adv-x="436" 
d="M204 616l74 183h51l-90 -189zM36 34l287 458v4h-278v44h346v-31l-290 -460v-4h300v-44h-365v33z" />
    <glyph glyph-name="Zdotaccent" unicode="&#x17b;" horiz-adv-x="523" 
d="M268 812c-11.333 0 -20.5 3 -27.5 9s-10.5 15.667 -10.5 29s3.5 23 10.5 29s16.167 9 27.5 9s20.666 -3 27.999 -9s11 -15.667 11 -29s-3.66699 -23 -11 -29s-16.666 -9 -27.999 -9zM33 38l386 652v4h-377v46h440v-37l-386 -653v-4h393v-46h-456v38z" />
    <glyph glyph-name="zdotaccent" unicode="&#x17c;" horiz-adv-x="436" 
d="M36 34l287 458v4h-278v44h346v-31l-290 -460v-4h300v-44h-365v33zM218 649c-11.333 0 -20.5 3 -27.5 9s-10.5 15.667 -10.5 29s3.5 23 10.5 29s16.167 9 27.5 9s20.666 -3 27.999 -9s11 -15.667 11 -29s-3.66699 -23 -11 -29s-16.666 -9 -27.999 -9z" />
    <glyph glyph-name="Zcaron" unicode="&#x17d;" horiz-adv-x="523" 
d="M129 929l141 -72l142 72v-49l-142 -73l-141 73v49zM33 38l386 652v4h-377v46h440v-37l-386 -653v-4h393v-46h-456v38z" />
    <glyph glyph-name="zcaron" unicode="&#x17e;" horiz-adv-x="436" 
d="M81 758l141 -73l142 73v-49l-142 -73l-141 73v49zM36 34l287 458v4h-278v44h346v-31l-290 -460v-4h300v-44h-365v33z" />
    <glyph glyph-name="Schwa" unicode="&#x18f;" horiz-adv-x="625" 
d="M48 315c0 17.333 0.501953 33.1689 1.50195 47.502s2.16699 27.166 3.5 38.499h468c-3.33301 104.667 -25 182.167 -65 232.5s-98.667 75.5 -176 75.5c-58.667 0 -125.334 -13.333 -200.001 -40c0 2 -0.166992 5.16699 -0.5 9.5s-0.833008 9 -1.5 14
s-1.16699 9.66699 -1.5 14s-0.5 7.16602 -0.5 8.49902c12.667 6 27.334 11.5 44.001 16.5s34 9.33301 52 13s36.167 6.5 54.5 8.5s36.166 3 53.499 3c95.333 0 167.666 -31.333 216.999 -94s74 -154 74 -274c0 -127.333 -24 -225.5 -72 -294.5s-116.333 -103.5 -205 -103.5
c-78 0 -138.5 28.333 -181.5 85s-64.5 136.667 -64.5 240zM293.002 36.0029c71.333 0 126.667 27.168 166 81.501s60.333 134.166 63 239.499h-425c-2.66699 -106 12.333 -186 45 -240s83 -81 151 -81z" />
    <glyph glyph-name="florin" unicode="&#x192;" horiz-adv-x="338" 
d="M132 495l-102.002 -0.00195312v45h103v33c0 45.333 2.83301 82.833 8.5 112.5s16 53.334 31 71.001s35.333 30.5 61 38.5s58.834 13.333 99.501 16l3 -40c-32 -2.66699 -58.167 -7 -78.5 -13s-36.166 -15.5 -47.499 -28.5s-19 -30.667 -23 -53s-6 -51.166 -6 -86.499v-50
h128v-45h-128v-686l-49 -29v715z" />
    <glyph glyph-name="uni01C4" unicode="&#x1c4;" horiz-adv-x="1184" 
d="M790 929l141 -72l142 72v-49l-142 -73l-141 73v49zM694 38l386 652v4h-377v46h440v-37l-386 -653v-4h393v-46h-456v38zM243 -13c-31.333 0 -60.499 1 -87.499 3s-48.5 5 -64.5 9v737c14 2 28.667 3.83301 44 5.5s30.833 3 46.5 4s30.667 1.83301 45 2.5
s27.166 1 38.499 1c118 0 204.667 -30.667 260 -92s83 -157 83 -287c0 -132 -29.333 -228.833 -88 -290.5s-151 -92.5 -277 -92.5zM251.001 33c104.667 0 181.834 27.332 231.501 81.999s74.5 139.667 74.5 255c0 114.667 -23.333 198.834 -70 252.501
s-120.334 80.5 -221.001 80.5c-18.667 0 -39.5 -0.666992 -62.5 -2s-44.167 -3.33301 -63.5 -6v-654c22.667 -3.33301 42 -5.5 58 -6.5s33.667 -1.5 53 -1.5z" />
    <glyph glyph-name="uni01C5" unicode="&#x1c5;" horiz-adv-x="1097" 
d="M742 758l141 -73l142 73v-49l-142 -73l-141 73v49zM697 34l287 458v4h-278v44h346v-31l-290 -460v-4h300v-44h-365v33zM243 -13c-31.333 0 -60.499 1 -87.499 3s-48.5 5 -64.5 9v737c14 2 28.667 3.83301 44 5.5s30.833 3 46.5 4s30.667 1.83301 45 2.5
s27.166 1 38.499 1c118 0 204.667 -30.667 260 -92s83 -157 83 -287c0 -132 -29.333 -228.833 -88 -290.5s-151 -92.5 -277 -92.5zM251.001 33c104.667 0 181.834 27.332 231.501 81.999s74.5 139.667 74.5 255c0 114.667 -23.333 198.834 -70 252.501
s-120.334 80.5 -221.001 80.5c-18.667 0 -39.5 -0.666992 -62.5 -2s-44.167 -3.33301 -63.5 -6v-654c22.667 -3.33301 42 -5.5 58 -6.5s33.667 -1.5 53 -1.5z" />
    <glyph glyph-name="uni01C6" unicode="&#x1c6;" horiz-adv-x="977" 
d="M622 758l141 -73l142 73v-49l-142 -73l-141 73v49zM577 34l287 458v4h-278v44h346v-31l-290 -460v-4h300v-44h-365v33zM255 -10c-68 0 -119.335 22.499 -154.002 67.499s-52 115.5 -52 211.5c0 46.667 5.66699 87.5 17 122.5s27.5 64.167 48.5 87.5s46.167 41 75.5 53
s62.333 18 99 18c22.667 0 44.334 -1.16699 65.001 -3.5s41.334 -4.83301 62.001 -7.5v269h48v-808h-42l-5 62h-4c-18 -23.333 -40.167 -41.166 -66.5 -53.499s-56.833 -18.5 -91.5 -18.5zM260.998 33.999c18.667 0 37.335 2.83398 56.002 8.50098s35.334 13.667 50.001 24
s26.5 22.666 35.5 36.999s13.5 29.833 13.5 46.5v345c-20.667 3.33301 -41.334 6 -62.001 8s-42.334 3 -65.001 3c-60.667 0 -107.334 -19.167 -140.001 -57.5s-49 -97.833 -49 -178.5s13.5 -140.167 40.5 -178.5s67.167 -57.5 120.5 -57.5z" />
    <glyph glyph-name="uni01C7" unicode="&#x1c7;" horiz-adv-x="700" 
d="M481 -160c16 33.333 29.333 63.668 40 91.001s19 54 25 80s10.333 52.667 13 80s4 57.666 4 90.999v558h49v-560c0 -32 -1.66699 -62.333 -5 -91s-8.83301 -57.167 -16.5 -85.5s-17.5 -57.5 -29.5 -87.5s-26.667 -62 -44 -96zM91 740.002h49v-695h317v-45h-366v740z" />
    <glyph glyph-name="uni01C8" unicode="&#x1c8;" horiz-adv-x="673" 
d="M570 671c-24 0 -36 12 -36 36s12 36 36 36c24.667 0 37 -12 37 -36s-12.333 -36 -37 -36zM472 -200c26 45.333 45.167 93 57.5 143s18.5 107 18.5 171v426h49v-449c0 -55.333 -7.83301 -109.5 -23.5 -162.5s-38.167 -102.5 -67.5 -148.5zM91 740h49v-695h317v-45h-366
v740z" />
    <glyph glyph-name="uni01C9" unicode="&#x1c9;" horiz-adv-x="412" 
d="M309 671c-24 0 -36 12 -36 36s12 36 36 36c24.667 0 37 -12 37 -36s-12.333 -36 -37 -36zM211 -200c26 45.333 45.167 93 57.5 143s18.5 107 18.5 171v426h49v-449c0 -55.333 -7.83301 -109.5 -23.5 -162.5s-38.167 -102.5 -67.5 -148.5zM80 808h49v-808h-49v808z" />
    <glyph glyph-name="uni01CA" unicode="&#x1ca;" horiz-adv-x="955" 
d="M736 -160c16 33.333 29.333 63.668 40 91.001s19 54 25 80s10.333 52.667 13 80s4 57.666 4 90.999v558h49v-560c0 -32 -1.66699 -62.333 -5 -91s-8.83301 -57.167 -16.5 -85.5s-17.5 -57.5 -29.5 -87.5s-26.667 -62 -44 -96zM91 740.002h48l388 -571l55 -88l5 1v658h47
v-740h-49l-389 571l-54 86h-4v-657h-47v740z" />
    <glyph glyph-name="uni01CB" unicode="&#x1cb;" horiz-adv-x="928" 
d="M825 671c-24 0 -36 12 -36 36s12 36 36 36c24.667 0 37 -12 37 -36s-12.333 -36 -37 -36zM727 -200c26 45.333 45.167 93 57.5 143s18.5 107 18.5 171v426h49v-449c0 -55.333 -7.83301 -109.5 -23.5 -162.5s-38.167 -102.5 -67.5 -148.5zM91 740h48l388 -571l55 -88l5 1
v658h47v-740h-49l-389 571l-54 86h-4v-657h-47v740z" />
    <glyph glyph-name="uni01CC" unicode="&#x1cc;" horiz-adv-x="744" 
d="M641 671c-24 0 -36 12 -36 36s12 36 36 36c24.667 0 37 -12 37 -36s-12.333 -36 -37 -36zM543 -200c26 45.333 45.167 93 57.5 143s18.5 107 18.5 171v426h49v-449c0 -55.333 -7.83301 -109.5 -23.5 -162.5s-38.167 -102.5 -67.5 -148.5zM77 540h40.998l5 -61h4
c46.667 24.667 86.334 42.667 119.001 54s63.334 17 92.001 17c44 0 76.5 -11.167 97.5 -33.5s31.5 -59.5 31.5 -111.5v-405h-49v392c0 40.667 -7.33301 69.5 -22 86.5s-37.667 25.5 -69 25.5c-28 0 -59 -6 -93 -18s-70 -28.667 -108 -50v-436h-49v540z" />
    <glyph glyph-name="Oogonek" unicode="&#x1ea;" horiz-adv-x="682" 
d="M324 -207c-57.333 0 -85.999 26.668 -85.999 80.001c0 22.667 5.66699 43.167 17 61.5s30.333 37.166 57 56.499c-84.667 6.66699 -148.834 41.5 -192.501 104.5s-65.5 154.167 -65.5 273.5c0 126.667 24.5 221.834 73.5 285.501s120.167 95.5 213.5 95.5
s164.5 -32 213.5 -96s73.5 -159 73.5 -285c0 -115.333 -20.667 -204.333 -62 -267s-101 -99 -179 -109c-38 -18.667 -65.333 -37.334 -82 -56.001s-25 -39 -25 -61c0 -30 16.667 -45 50 -45c17.333 0 36 3.66699 56 11v-37c-18 -8 -38.667 -12 -62 -12zM341.001 36.001
c158 0 237.001 111 237.001 333c0 112 -19.833 195.833 -59.5 251.5s-98.834 83.5 -177.501 83.5c-158 0 -237 -111.667 -237 -335c0 -222 79 -333 237 -333z" />
    <glyph glyph-name="oogonek" unicode="&#x1eb;" horiz-adv-x="537" 
d="M255 -204c-57.333 0 -85.999 26.667 -85.999 80c0 22 5.5 42.167 16.5 60.5s29.167 36.833 54.5 55.5c-62.667 6 -110.167 32.667 -142.5 80s-48.5 113.333 -48.5 198c0 91.333 18.833 160.833 56.5 208.5s92.167 71.5 163.5 71.5s125.666 -23.833 162.999 -71.5
s56 -117.167 56 -208.5c0 -80.667 -14.5 -144.167 -43.5 -190.5s-71.833 -74.5 -128.5 -84.5c-38 -18 -65 -36.333 -81 -55s-24 -39 -24 -61c0 -30 16.667 -45 50 -45c17.333 0 36 3.66699 56 11v-37c-18 -8 -38.667 -12 -62 -12zM269.001 35c112.667 0 169 78.333 169 235
s-56.333 235 -169 235s-169 -78.333 -169 -235s56.333 -235 169 -235z" />
    <glyph glyph-name="uni01F1" unicode="&#x1f1;" horiz-adv-x="1168" 
d="M679 38l386 652v4h-377v46h440v-37l-386 -653v-4h393v-46h-456v38zM243 -13c-31.333 0 -60.499 1 -87.499 3s-48.5 5 -64.5 9v737c14 2 28.667 3.83301 44 5.5s30.833 3 46.5 4s30.667 1.83301 45 2.5s27.166 1 38.499 1c118 0 204.667 -30.667 260 -92s83 -157 83 -287
c0 -132 -29.333 -228.833 -88 -290.5s-151 -92.5 -277 -92.5zM251.001 33c104.667 0 181.834 27.332 231.501 81.999s74.5 139.667 74.5 255c0 114.667 -23.333 198.834 -70 252.501s-120.334 80.5 -221.001 80.5c-18.667 0 -39.5 -0.666992 -62.5 -2
s-44.167 -3.33301 -63.5 -6v-654c22.667 -3.33301 42 -5.5 58 -6.5s33.667 -1.5 53 -1.5z" />
    <glyph glyph-name="uni01F2" unicode="&#x1f2;" horiz-adv-x="1093" 
d="M693 34l287 458v4h-278v44h346v-31l-290 -460v-4h300v-44h-365v33zM243 -13c-31.333 0 -60.499 1 -87.499 3s-48.5 5 -64.5 9v737c14 2 28.667 3.83301 44 5.5s30.833 3 46.5 4s30.667 1.83301 45 2.5s27.166 1 38.499 1c118 0 204.667 -30.667 260 -92s83 -157 83 -287
c0 -132 -29.333 -228.833 -88 -290.5s-151 -92.5 -277 -92.5zM251.001 33c104.667 0 181.834 27.332 231.501 81.999s74.5 139.667 74.5 255c0 114.667 -23.333 198.834 -70 252.501s-120.334 80.5 -221.001 80.5c-18.667 0 -39.5 -0.666992 -62.5 -2
s-44.167 -3.33301 -63.5 -6v-654c22.667 -3.33301 42 -5.5 58 -6.5s33.667 -1.5 53 -1.5z" />
    <glyph glyph-name="uni01F3" unicode="&#x1f3;" horiz-adv-x="977" 
d="M577 34l287 458v4h-278v44h346v-31l-290 -460v-4h300v-44h-365v33zM255 -10c-68 0 -119.335 22.499 -154.002 67.499s-52 115.5 -52 211.5c0 46.667 5.66699 87.5 17 122.5s27.5 64.167 48.5 87.5s46.167 41 75.5 53s62.333 18 99 18
c22.667 0 44.334 -1.16699 65.001 -3.5s41.334 -4.83301 62.001 -7.5v269h48v-808h-42l-5 62h-4c-18 -23.333 -40.167 -41.166 -66.5 -53.499s-56.833 -18.5 -91.5 -18.5zM260.998 33.999c18.667 0 37.335 2.83398 56.002 8.50098s35.334 13.667 50.001 24
s26.5 22.666 35.5 36.999s13.5 29.833 13.5 46.5v345c-20.667 3.33301 -41.334 6 -62.001 8s-42.334 3 -65.001 3c-60.667 0 -107.334 -19.167 -140.001 -57.5s-49 -97.833 -49 -178.5s13.5 -140.167 40.5 -178.5s67.167 -57.5 120.5 -57.5z" />
    <glyph glyph-name="Gacute" unicode="&#x1f4;" horiz-adv-x="610" 
d="M320 799l78 128h53l-89 -133zM374 -9c-109.333 1.33301 -190.001 32.668 -242.001 94.001s-78 156 -78 284c0 130 26.5 225.833 79.5 287.5s135.167 92.5 246.5 92.5c22.667 0 48.167 -1.83301 76.5 -5.5s57.166 -8.83398 86.499 -15.501v-46
c-34 7.33301 -63 12.666 -87 15.999s-48.333 5 -73 5c-95.333 0 -165.666 -27 -210.999 -81s-68 -138.333 -68 -253c0 -112.667 22.167 -196.167 66.5 -250.5s111.833 -81.5 202.5 -81.5c15.333 0 34.5 1.33301 57.5 4s45.167 5.66699 66.5 9v326h48v-361
c-30 -7.33301 -59.667 -13.166 -89 -17.499s-56.666 -6.5 -81.999 -6.5z" />
    <glyph glyph-name="gacute" unicode="&#x1f5;" horiz-adv-x="541" 
d="M267 616l74 183h51l-90 -189zM239 -220c-26 0 -51.665 2.16504 -76.998 6.49805s-49.333 10.166 -72 17.499l4 44c24 -7.33301 48 -13.166 72 -17.499s48 -6.5 72 -6.5c28 0 53 3.66699 75 11s40.667 19.5 56 36.5s27.166 39.333 35.499 67s12.5 61.5 12.5 101.5v25h-4
c-18 -23.333 -40.167 -41.166 -66.5 -53.499s-56.5 -18.5 -90.5 -18.5c-68.667 0 -120.334 22.333 -155.001 67s-52 114.667 -52 210c0 46 5.66699 86.5 17 121.5s27.5 64.333 48.5 88s46.167 41.334 75.5 53.001s62.333 17.5 99 17.5c30 0 60 -1.83301 90 -5.5
s58.667 -9.16699 86 -16.5v-476c0 -52 -5.5 -95.333 -16.5 -130s-26.5 -62.5 -46.5 -83.5s-43.833 -36 -71.5 -45s-58.167 -13.5 -91.5 -13.5zM261.002 36.998c19.333 0 38.334 2.83301 57.001 8.5s35.167 13.5 49.5 23.5s26 22 35 36s13.5 29.333 13.5 46v344
c-21.333 3.33301 -42.333 6 -63 8s-42 3 -64 3c-60.667 0 -107.334 -19.167 -140.001 -57.5s-49 -97.5 -49 -177.5s13.5 -139 40.5 -177s67.167 -57 120.5 -57z" />
    <glyph glyph-name="Aringacute" unicode="&#x1fa;" horiz-adv-x="613" 
d="M11 6l227.999 644.001c-14.667 9.33301 -26 21.666 -34 36.999s-12 32.333 -12 51c0 28 8.33301 51.833 25 71.5s39.334 31.5 68.001 35.5l66 98h53l-68 -102c24.667 -6 44 -18.333 58 -37s21 -40.667 21 -66c0 -18 -3.83301 -34.5 -11.5 -49.5
s-18.167 -27.167 -31.5 -36.5l229 -646v-6h-49l-85 241h-323l-85 -241h-49v6zM304.999 670.001c21.333 0 38.333 6.33301 51 19s19 29 19 49c0 20.667 -6.16699 37.334 -18.5 50.001s-29.5 19 -51.5 19s-39.167 -6.33301 -51.5 -19s-18.5 -29.334 -18.5 -50.001
c0 -20 6.16699 -36.333 18.5 -49s29.5 -19 51.5 -19zM451.999 287.001l-102 291l-20 55l-48 -1l-19 -54l-103 -291h292z" />
    <glyph glyph-name="aringacute" unicode="&#x1fb;" horiz-adv-x="480" 
d="M173 -5c-43.333 0 -76.333 11.501 -99 34.501s-34 56.5 -34 100.5c0 50.667 16 89 48 115s82.333 42.333 151 49l119 11v62c0 49.333 -10 84.333 -30 105s-54.333 31 -103 31c-42 0 -90.333 -6 -145 -18l-5 44c30 5.33301 58 9.5 84 12.5s50.667 4.5 74 4.5
c60 0 104 -14 132 -42s42 -71.333 42 -130v-374h-40l-7 67h-5c-31.333 -20.667 -62 -37.834 -92 -51.501s-60 -20.5 -90 -20.5zM185 39.001c27.333 0 56.1689 7.33301 86.502 22s59.166 30.667 86.499 48v157l-109 -10c-58.667 -5.33301 -99.834 -17.333 -123.501 -36
s-35.5 -47.667 -35.5 -87c0 -62.667 31.667 -94 95 -94zM245.003 610.001c-32 0 -57.832 9.83301 -77.499 29.5s-29.5 44.167 -29.5 73.5c0 30 9.66699 55 29 75s45.666 30 78.999 30l65 159h51l-79 -165c21.333 -7.33301 38 -19.833 50 -37.5s18 -38.167 18 -61.5
c0 -29.333 -9.66699 -53.833 -29 -73.5s-45 -29.5 -77 -29.5zM245.004 646.001c21.333 0 38 6.33301 50 19s18 28.667 18 48c0 20.667 -6 37.167 -18 49.5s-28.667 18.5 -50 18.5c-22 0 -38.833 -6.16699 -50.5 -18.5s-17.5 -28.833 -17.5 -49.5c0 -20 6 -36.167 18 -48.5
s28.667 -18.5 50 -18.5z" />
    <glyph glyph-name="AEacute" unicode="&#x1fc;" horiz-adv-x="804" 
d="M460 799l78 128h53l-89 -133zM9 6l283 734h456v-45h-325l13 -297h282v-45h-280l15 -308h305v-45h-354l-10 241h-243l-93 -241h-49v6zM169 287h223l-16 408h-49z" />
    <glyph glyph-name="aeacute" unicode="&#x1fd;" horiz-adv-x="802" 
d="M391 616l74 183h51l-90 -189zM584 -9c-44 0 -81.502 8.33008 -112.502 24.9971s-55.167 40.667 -72.5 72l-4 1c-27.333 -17.333 -51.666 -32 -72.999 -44s-40.666 -21.667 -57.999 -29s-33.333 -12.666 -48 -15.999s-29 -5 -43 -5c-43.333 0 -76.333 11.5 -99 34.5
s-34 56.5 -34 100.5c0 50 16 88.333 48 115s82.333 43 151 49l120 10v65c0 48.667 -10.333 83.167 -31 103.5s-55 30.5 -103 30.5c-42 0 -90.333 -6 -145 -18l-5 44c30 5.33301 58 9.5 84 12.5s50.667 4.5 74 4.5c90.667 0 144 -36 160 -108l5 -1
c16.667 36 39.834 63.667 69.501 83s66.5 29 110.5 29c58 0 102.167 -20 132.5 -60s45.5 -97.667 45.5 -173c0 -15.333 -0.333008 -28.166 -1 -38.499s-1.66699 -19.5 -3 -27.5h-344c1.33301 -70.667 17.166 -124.167 47.499 -160.5s74.5 -54.5 132.5 -54.5
c23.333 0 46.333 2.33301 69 7s47.667 12.334 75 23.001l5 -43c-23.333 -9.33301 -48.5 -16.833 -75.5 -22.5s-52.833 -8.5 -77.5 -8.5zM184.998 38.9971c25.333 0 52.666 6.66602 81.999 19.999s63 32.666 101 57.999c-1.33301 4 -2.66602 12.833 -3.99902 26.5
s-2.33301 28.5 -3 44.5s-1.16699 31.333 -1.5 46s-0.5 25.334 -0.5 32.001l-110 -9c-58 -5.33301 -99 -17.666 -123 -36.999s-36 -48.333 -36 -87c0 -62.667 31.667 -94 95 -94zM706.998 289.996c-2 76.667 -13.167 131.667 -33.5 165s-52.5 50 -96.5 50
c-52 0 -92.333 -18.167 -121 -54.5s-44.667 -89.833 -48 -160.5h299z" />
    <glyph glyph-name="Oslashacute" unicode="&#x1fe;" horiz-adv-x="687" 
d="M117 104c-40 62.667 -60 150.999 -60 264.999c0 126.667 24.5 221.834 73.5 285.501s120.167 95.5 213.5 95.5c84.667 0 151 -26.667 199 -80l53 70h51l-78 -104c20 -32 35.333 -70 46 -114s16 -95 16 -153c0 -126 -24.5 -220.667 -73.5 -284s-120.167 -95 -213.5 -95
c-86 0 -153 27 -201 81l-53 -71h-51zM344 35.999c158.667 0 238.001 111 238.001 333c0 48 -3.83301 90.5 -11.5 127.5s-18.834 69.5 -33.501 97.5l-364 -484c39.333 -49.333 96.333 -74 171 -74zM107.001 368.999c0 -94 14 -168 42 -222l364 483
c-40 49.333 -96.333 74 -169 74c-158 0 -237 -111.667 -237 -335zM316.001 798.999l78 128h53l-89 -133z" />
    <glyph glyph-name="oslashacute" unicode="&#x1ff;" horiz-adv-x="542" 
d="M96 79c-30 46.667 -45 110.334 -45 191.001c0 90.667 18.833 160 56.5 208s92.167 72 163.5 72c62 0 111.667 -18.667 149 -56l36 46h51l-62 -79c30.667 -47.333 46 -111 46 -191c0 -90.667 -18.833 -159.834 -56.5 -207.501s-92.167 -71.5 -163.5 -71.5
c-62.667 0 -112.667 18.667 -150 56l-36 -47h-51zM271 35c58 0 100.667 19.333 128 58s41 97.667 41 177c0 62.667 -9 112.667 -27 150l-263 -336c28 -32.667 68.333 -49 121 -49zM102 270c0 -63.333 8.66699 -113.333 26 -150l262 336c-28 32.667 -67.667 49 -119 49
c-58 0 -100.667 -19.333 -128 -58s-41 -97.667 -41 -177zM249 616l74 183h51l-90 -189z" />
    <glyph glyph-name="Adblgrave" unicode="&#x200;" horiz-adv-x="611" 
d="M10 6l259 734h73l259 -734v-6h-49l-85 241h-323l-85 -241h-49v6zM452 286l-104 292l-40 118h-5l-40 -118l-104 -292h293zM220 790l-89 132h51l78 -118zM355 790l-89 132h52l77 -118z" />
    <glyph glyph-name="adblgrave" unicode="&#x201;" horiz-adv-x="480" 
d="M173 -5c-43.333 0 -76.333 11.501 -99 34.501s-34 56.5 -34 100.5c0 50.667 16 89 48 115s82.333 42.333 151 49l119 11v62c0 49.333 -10 84.333 -30 105s-54.333 31 -103 31c-42 0 -90.333 -6 -145 -18l-5 44c30 5.33301 58 9.5 84 12.5s50.667 4.5 74 4.5
c60 0 104 -14 132 -42s42 -71.333 42 -130v-374h-40l-7 67h-5c-31.333 -20.667 -62 -37.834 -92 -51.501s-60 -20.5 -90 -20.5zM185 39.001c27.333 0 56.1689 7.33301 86.502 22s59.166 30.667 86.499 48v157l-109 -10c-58.667 -5.33301 -99.834 -17.333 -123.501 -36
s-35.5 -47.667 -35.5 -87c0 -62.667 31.667 -94 95 -94zM151.003 614.001l-92 189h54l73 -179zM313.003 614.001l-92 189h55l73 -179z" />
    <glyph glyph-name="Ainvertedbreve" unicode="&#x202;" horiz-adv-x="611" 
d="M10 6l259 734h73l259 -734v-6h-49l-85 241h-323l-85 -241h-49v6zM452 286l-104 292l-40 118h-5l-40 -118l-104 -292h293zM419 820c0 31.333 -9.99902 55.5 -29.999 72.5s-48 25.5 -84 25.5s-63.833 -8.5 -83.5 -25.5s-29.5 -41.167 -29.5 -72.5h-43
c0 42.667 13.667 76.167 41 100.5s65.666 36.5 114.999 36.5c50 0 88.667 -12.167 116 -36.5s41 -57.833 41 -100.5h-43z" />
    <glyph glyph-name="ainvertedbreve" unicode="&#x203;" horiz-adv-x="480" 
d="M173 -5c-43.333 0 -76.333 11.501 -99 34.501s-34 56.5 -34 100.5c0 50.667 16 89 48 115s82.333 42.333 151 49l119 11v62c0 49.333 -10 84.333 -30 105s-54.333 31 -103 31c-42 0 -90.333 -6 -145 -18l-5 44c30 5.33301 58 9.5 84 12.5s50.667 4.5 74 4.5
c60 0 104 -14 132 -42s42 -71.333 42 -130v-374h-40l-7 67h-5c-31.333 -20.667 -62 -37.834 -92 -51.501s-60 -20.5 -90 -20.5zM185 39.001c27.333 0 56.1689 7.33301 86.502 22s59.166 30.667 86.499 48v157l-109 -10c-58.667 -5.33301 -99.834 -17.333 -123.501 -36
s-35.5 -47.667 -35.5 -87c0 -62.667 31.667 -94 95 -94zM91.0029 626.001c0 44 13.167 78.5 39.5 103.5s65.5 37.5 117.5 37.5s91.167 -12.5 117.5 -37.5s39.5 -59.5 39.5 -103.5h-43c0 36 -10 62.167 -30 78.5s-48 24.5 -84 24.5s-64 -8.16699 -84 -24.5
s-30 -42.5 -30 -78.5h-43z" />
    <glyph glyph-name="Edblgrave" unicode="&#x204;" horiz-adv-x="562" 
d="M91 740h414v-45h-365v-296h339v-45h-339v-309h374v-45h-423v740zM213 790l-89 132h51l78 -118zM348 790l-89 132h52l77 -118z" />
    <glyph glyph-name="edblgrave" unicode="&#x205;" horiz-adv-x="492" 
d="M159 614l-92 189h54l73 -179zM321 614l-92 189h55l73 -179zM274 -9c-72.667 0 -128.167 23.001 -166.5 69.001s-57.5 112.333 -57.5 199c0 94.667 18.5 166.667 55.5 216s90.833 74 161.5 74c58.667 0 103.167 -19.833 133.5 -59.5s45.5 -97.834 45.5 -174.501
c0 -28.667 -1.33301 -50.667 -4 -66h-343c4 -142.667 63.667 -214 179 -214c23.333 0 46.5 2.5 69.5 7.5s47.833 12.833 74.5 23.5l5 -43c-22.667 -10 -47.5 -17.833 -74.5 -23.5s-53.167 -8.5 -78.5 -8.5zM267 506.001c-52 0 -92.1699 -18.333 -120.503 -55
s-44.166 -90.334 -47.499 -161.001h299c-1.33301 76.667 -12.166 131.834 -32.499 165.501s-53.166 50.5 -98.499 50.5z" />
    <glyph glyph-name="Einvertedbreve" unicode="&#x206;" horiz-adv-x="562" 
d="M91 740h414v-45h-365v-296h339v-45h-339v-309h374v-45h-423v740zM412 820c0 31.333 -9.99902 55.5 -29.999 72.5s-48 25.5 -84 25.5s-63.833 -8.5 -83.5 -25.5s-29.5 -41.167 -29.5 -72.5h-43c0 42.667 13.667 76.167 41 100.5s65.666 36.5 114.999 36.5
c50 0 88.667 -12.167 116 -36.5s41 -57.833 41 -100.5h-43z" />
    <glyph glyph-name="einvertedbreve" unicode="&#x207;" horiz-adv-x="492" 
d="M100 626c0 44 13.167 78.5 39.5 103.5s65.5 37.5 117.5 37.5s91.167 -12.5 117.5 -37.5s39.5 -59.5 39.5 -103.5h-43c0 36 -10 62.167 -30 78.5s-48 24.5 -84 24.5s-64 -8.16699 -84 -24.5s-30 -42.5 -30 -78.5h-43zM274 -9c-72.667 0 -128.167 23.001 -166.5 69.001
s-57.5 112.333 -57.5 199c0 94.667 18.5 166.667 55.5 216s90.833 74 161.5 74c58.667 0 103.167 -19.833 133.5 -59.5s45.5 -97.834 45.5 -174.501c0 -28.667 -1.33301 -50.667 -4 -66h-343c4 -142.667 63.667 -214 179 -214c23.333 0 46.5 2.5 69.5 7.5
s47.833 12.833 74.5 23.5l5 -43c-22.667 -10 -47.5 -17.833 -74.5 -23.5s-53.167 -8.5 -78.5 -8.5zM267 506.001c-52 0 -92.1699 -18.333 -120.503 -55s-44.166 -90.334 -47.499 -161.001h299c-1.33301 76.667 -12.166 131.834 -32.499 165.501s-53.166 50.5 -98.499 50.5z
" />
    <glyph glyph-name="Idblgrave" unicode="&#x208;" horiz-adv-x="230" 
d="M91 740h49v-740h-49v740zM32 790l-89 132h51l78 -118zM167 790l-89 132h52l77 -118z" />
    <glyph glyph-name="idblgrave" unicode="&#x209;" horiz-adv-x="206" 
d="M11 614l-92 189h54l73 -179zM173 614l-92 189h55l73 -179zM79 540h49v-540h-49v540z" />
    <glyph glyph-name="Iinvertedbreve" unicode="&#x20a;" horiz-adv-x="230" 
d="M91 740h49v-740h-49v740zM230 820c0 31.333 -9.99902 55.5 -29.999 72.5s-48 25.5 -84 25.5s-63.833 -8.5 -83.5 -25.5s-29.5 -41.167 -29.5 -72.5h-43c0 42.667 13.667 76.167 41 100.5s65.666 36.5 114.999 36.5c50 0 88.667 -12.167 116 -36.5s41 -57.833 41 -100.5
h-43z" />
    <glyph glyph-name="iinvertedbreve" unicode="&#x20b;" horiz-adv-x="206" 
d="M-46 626c0.666992 44 13.999 78.5 39.999 103.5s64 37.5 114 37.5c51.333 0 89.833 -12.5 115.5 -37.5s38.834 -59.5 39.501 -103.5h-42c0 36 -9.83301 62.167 -29.5 78.5s-47.5 24.5 -83.5 24.5c-35.333 0 -62.833 -8.16699 -82.5 -24.5s-29.5 -42.5 -29.5 -78.5h-42z
M78.999 540h49v-540h-49v540z" />
    <glyph glyph-name="Odblgrave" unicode="&#x20c;" horiz-adv-x="682" 
d="M341 -10c-93.333 0 -164.5 31.666 -213.5 94.999s-73.5 158 -73.5 284c0 126.667 24.5 221.834 73.5 285.501s120.167 95.5 213.5 95.5s164.5 -32 213.5 -96s73.5 -159 73.5 -285s-24.5 -220.667 -73.5 -284s-120.167 -95 -213.5 -95zM341 35.999
c158 0 237.001 111 237.001 333c0 112 -19.833 195.833 -59.5 251.5s-98.834 83.5 -177.501 83.5c-158 0 -237 -111.667 -237 -335c0 -222 79 -333 237 -333zM255.001 789.999l-89 132h51l78 -118zM390.001 789.999l-89 132h52l77 -118z" />
    <glyph glyph-name="odblgrave" unicode="&#x20d;" horiz-adv-x="537" 
d="M169 614l-92 189h54l73 -179zM331 614l-92 189h55l73 -179zM269 -9c-71.333 0 -125.833 23.8311 -163.5 71.498s-56.5 116.834 -56.5 207.501c0 91.333 18.833 160.833 56.5 208.5s92.167 71.5 163.5 71.5s125.666 -23.833 162.999 -71.5s56 -117.167 56 -208.5
s-18.667 -160.666 -56 -207.999s-91.666 -71 -162.999 -71zM269 34.998c112.667 0 169 78.333 169 235s-56.333 235 -169 235s-169 -78.333 -169 -235s56.333 -235 169 -235z" />
    <glyph glyph-name="Oinvertedbreve" unicode="&#x20e;" horiz-adv-x="682" 
d="M341 -10c-93.333 0 -164.5 31.666 -213.5 94.999s-73.5 158 -73.5 284c0 126.667 24.5 221.834 73.5 285.501s120.167 95.5 213.5 95.5s164.5 -32 213.5 -96s73.5 -159 73.5 -285s-24.5 -220.667 -73.5 -284s-120.167 -95 -213.5 -95zM341 35.999
c158 0 237.001 111 237.001 333c0 112 -19.833 195.833 -59.5 251.5s-98.834 83.5 -177.501 83.5c-158 0 -237 -111.667 -237 -335c0 -222 79 -333 237 -333zM454.001 819.999c0 31.333 -9.99902 55.5 -29.999 72.5s-48 25.5 -84 25.5s-63.833 -8.5 -83.5 -25.5
s-29.5 -41.167 -29.5 -72.5h-43c0 42.667 13.667 76.167 41 100.5s65.666 36.5 114.999 36.5c50 0 88.667 -12.167 116 -36.5s41 -57.833 41 -100.5h-43z" />
    <glyph glyph-name="oinvertedbreve" unicode="&#x20f;" horiz-adv-x="537" 
d="M110 626c0 44 13.167 78.5 39.5 103.5s65.5 37.5 117.5 37.5s91.167 -12.5 117.5 -37.5s39.5 -59.5 39.5 -103.5h-43c0 36 -10 62.167 -30 78.5s-48 24.5 -84 24.5s-64 -8.16699 -84 -24.5s-30 -42.5 -30 -78.5h-43zM269 -9c-71.333 0 -125.833 23.8311 -163.5 71.498
s-56.5 116.834 -56.5 207.501c0 91.333 18.833 160.833 56.5 208.5s92.167 71.5 163.5 71.5s125.666 -23.833 162.999 -71.5s56 -117.167 56 -208.5s-18.667 -160.666 -56 -207.999s-91.666 -71 -162.999 -71zM269 34.998c112.667 0 169 78.333 169 235
s-56.333 235 -169 235s-169 -78.333 -169 -235s56.333 -235 169 -235z" />
    <glyph glyph-name="Rdblgrave" unicode="&#x210;" horiz-adv-x="600" 
d="M340 288c-13.333 -2 -27.5 -3.33105 -42.5 -3.99805s-30.833 -1 -47.5 -1s-34.167 0.5 -52.5 1.5s-37.5 2.83301 -57.5 5.5v-290h-49v735c28 5.33301 55.333 9.33301 82 12s52.667 4 78 4c102 0 176.5 -18.833 223.5 -56.5s70.5 -96.834 70.5 -177.501
c0 -60.667 -12.667 -108.834 -38 -144.501s-65 -60.5 -119 -74.5l173 -298h-55zM257 327.002c84.667 0 145.499 14.834 182.499 44.501s55.5 78.167 55.5 145.5c0 66 -18.833 114 -56.5 144s-98.167 45 -181.5 45c-18 0 -37.167 -0.833008 -57.5 -2.5
s-40.166 -4.16699 -59.499 -7.5v-360c13.333 -2.66699 30.833 -4.83398 52.5 -6.50098s43.167 -2.5 64.5 -2.5zM218.999 790.003l-89 132h51l78 -118zM353.999 790.003l-89 132h52l77 -118z" />
    <glyph glyph-name="rdblgrave" unicode="&#x211;" horiz-adv-x="340" 
d="M101 614l-92 189h54l73 -179zM263 614l-92 189h55l73 -179zM77 540h41l5 -68h4c33.333 18 65 33.833 95 47.5s60 23.5 90 29.5h15v-52h-17c-32 -4.66699 -63.5 -13.167 -94.5 -25.5s-60.833 -26.5 -89.5 -42.5v-429h-49v540z" />
    <glyph glyph-name="Rinvertedbreve" unicode="&#x212;" horiz-adv-x="600" 
d="M340 288c-13.333 -2 -27.5 -3.33105 -42.5 -3.99805s-30.833 -1 -47.5 -1s-34.167 0.5 -52.5 1.5s-37.5 2.83301 -57.5 5.5v-290h-49v735c28 5.33301 55.333 9.33301 82 12s52.667 4 78 4c102 0 176.5 -18.833 223.5 -56.5s70.5 -96.834 70.5 -177.501
c0 -60.667 -12.667 -108.834 -38 -144.501s-65 -60.5 -119 -74.5l173 -298h-55zM257 327.002c84.667 0 145.499 14.834 182.499 44.501s55.5 78.167 55.5 145.5c0 66 -18.833 114 -56.5 144s-98.167 45 -181.5 45c-18 0 -37.167 -0.833008 -57.5 -2.5
s-40.166 -4.16699 -59.499 -7.5v-360c13.333 -2.66699 30.833 -4.83398 52.5 -6.50098s43.167 -2.5 64.5 -2.5zM416.999 820.003c0 31.333 -9.99902 55.5 -29.999 72.5s-48 25.5 -84 25.5s-63.833 -8.5 -83.5 -25.5s-29.5 -41.167 -29.5 -72.5h-43
c0 42.667 13.667 76.167 41 100.5s65.666 36.5 114.999 36.5c50 0 88.667 -12.167 116 -36.5s41 -57.833 41 -100.5h-43z" />
    <glyph glyph-name="rinvertedbreve" unicode="&#x213;" horiz-adv-x="340" 
d="M42 626c0 44 13.167 78.5 39.5 103.5s65.5 37.5 117.5 37.5s91.167 -12.5 117.5 -37.5s39.5 -59.5 39.5 -103.5h-43c0 36 -10 62.167 -30 78.5s-48 24.5 -84 24.5s-64 -8.16699 -84 -24.5s-30 -42.5 -30 -78.5h-43zM77 540h41l5 -68h4c33.333 18 65 33.833 95 47.5
s60 23.5 90 29.5h15v-52h-17c-32 -4.66699 -63.5 -13.167 -94.5 -25.5s-60.833 -26.5 -89.5 -42.5v-429h-49v540z" />
    <glyph glyph-name="Udblgrave" unicode="&#x214;" horiz-adv-x="697" 
d="M349 -10c-92 0 -159.167 23.833 -201.5 71.5s-63.5 125.5 -63.5 233.5v445h49v-442c0 -47.333 4.5 -87.5 13.5 -120.5s22.5 -60 40.5 -81s40.5 -36.333 67.5 -46s58.5 -14.5 94.5 -14.5s67.5 4.83301 94.5 14.5s49.5 25 67.5 46s31.333 48 40 81s13 73.167 13 120.5v442
h50v-445c0 -108 -21.167 -185.833 -63.5 -233.5s-109.5 -71.5 -201.5 -71.5zM261 790l-89 132h51l78 -118zM396 790l-89 132h52l77 -118z" />
    <glyph glyph-name="udblgrave" unicode="&#x215;" horiz-adv-x="540" 
d="M172 614l-92 189h54l73 -179zM334 614l-92 189h55l73 -179zM200 -10c-44 0 -76.167 11.668 -96.5 35.001s-30.5 60 -30.5 110v405h49v-392c0 -39.333 7 -67.833 21 -85.5s36.667 -26.5 68 -26.5c32 0 64.167 6.66699 96.5 20s67.833 30.666 106.5 51.999v432h49v-540h-41
l-5 64h-4l-65.5 -33c-19 -9.33301 -36.667 -17 -53 -23s-32 -10.5 -47 -13.5s-30.833 -4.5 -47.5 -4.5z" />
    <glyph glyph-name="Uinvertedbreve" unicode="&#x216;" horiz-adv-x="697" 
d="M349 -10c-92 0 -159.167 23.833 -201.5 71.5s-63.5 125.5 -63.5 233.5v445h49v-442c0 -47.333 4.5 -87.5 13.5 -120.5s22.5 -60 40.5 -81s40.5 -36.333 67.5 -46s58.5 -14.5 94.5 -14.5s67.5 4.83301 94.5 14.5s49.5 25 67.5 46s31.333 48 40 81s13 73.167 13 120.5v442
h50v-445c0 -108 -21.167 -185.833 -63.5 -233.5s-109.5 -71.5 -201.5 -71.5zM460 820c0 31.333 -9.99902 55.5 -29.999 72.5s-48 25.5 -84 25.5s-63.833 -8.5 -83.5 -25.5s-29.5 -41.167 -29.5 -72.5h-43c0 42.667 13.667 76.167 41 100.5s65.666 36.5 114.999 36.5
c50 0 88.667 -12.167 116 -36.5s41 -57.833 41 -100.5h-43z" />
    <glyph glyph-name="uinvertedbreve" unicode="&#x217;" horiz-adv-x="540" 
d="M112 626c0 44 13.167 78.5 39.5 103.5s65.5 37.5 117.5 37.5s91.167 -12.5 117.5 -37.5s39.5 -59.5 39.5 -103.5h-43c0 36 -10 62.167 -30 78.5s-48 24.5 -84 24.5s-64 -8.16699 -84 -24.5s-30 -42.5 -30 -78.5h-43zM200 -10c-44 0 -76.167 11.668 -96.5 35.001
s-30.5 60 -30.5 110v405h49v-392c0 -39.333 7 -67.833 21 -85.5s36.667 -26.5 68 -26.5c32 0 64.167 6.66699 96.5 20s67.833 30.666 106.5 51.999v432h49v-540h-41l-5 64h-4l-65.5 -33c-19 -9.33301 -36.667 -17 -53 -23s-32 -10.5 -47 -13.5s-30.833 -4.5 -47.5 -4.5z" />
    <glyph glyph-name="uni0218" unicode="&#x218;" horiz-adv-x="522" 
d="M238 -68h52l-57 -152h-45zM249 -12c-15.333 0 -31.667 0.835938 -49 2.50293s-35.166 3.83398 -53.499 6.50098s-36.5 6 -54.5 10s-34.667 8.33301 -50 13l3 45c14.667 -4.66699 30.834 -8.83398 48.501 -12.501s35.5 -6.83398 53.5 -9.50098
s35.667 -4.83398 53 -6.50098s33.666 -2.5 48.999 -2.5c58 0 103 12.667 135 38s48 61.666 48 108.999c0 24 -4.33301 44.833 -13 62.5s-20.667 33.167 -36 46.5s-34.166 24.833 -56.499 34.5s-46.833 19.167 -73.5 28.5c-36 12 -66.5 24.5 -91.5 37.5
s-45.5 27.5 -61.5 43.5s-27.5 34 -34.5 54s-10.5 43 -10.5 69c0 30 5.5 57.167 16.5 81.5s26.333 45.166 46 62.499s43.5 30.666 71.5 39.999s59 14 93 14c25.333 0 52 -1.83301 80 -5.5s58 -9.16699 90 -16.5l-4 -46c-62.667 15.333 -117.334 23 -164.001 23
c-54 0 -97.167 -14 -129.5 -42s-48.5 -65 -48.5 -111c0 -19.333 3 -36.666 9 -51.999s15.667 -29.166 29 -41.499s30.833 -23.833 52.5 -34.5s48.167 -21.334 79.5 -32.001s59.833 -21.834 85.5 -33.501s47.5 -25.667 65.5 -42s31.833 -35.666 41.5 -57.999
s14.5 -49.166 14.5 -80.499c0 -62 -20.333 -110 -61 -144s-98.334 -51 -173.001 -51z" />
    <glyph glyph-name="uni0219" unicode="&#x219;" horiz-adv-x="413" 
d="M194 -68h52l-57 -152h-45zM200 -11c-10 0 -20.165 0.328125 -30.498 0.995117s-21.5 2 -33.5 4l-40 7c-14.667 2.66699 -31.667 6 -51 10v45c27.333 -7.33301 53.666 -13 78.999 -17s49 -6 71 -6c40.667 0 71.834 9.5 93.501 28.5s32.5 45.5 32.5 79.5
c0 34.667 -10.167 60.167 -30.5 76.5s-47.5 28.5 -81.5 36.5c-18.667 4 -37.334 8.83301 -56.001 14.5s-35.5 13.834 -50.5 24.501s-27.167 25 -36.5 43s-14 41.667 -14 71c0 45.333 15.333 81 46 107s72.667 39 126 39c8.66699 0 17.167 -0.333008 25.5 -1
s17.333 -1.66699 27 -3s20.5 -3.16602 32.5 -5.49902l43 -8.5l-2 -45c-28 6.66699 -51.333 11.334 -70 14.001s-36.334 4 -53.001 4c-40.667 0 -71.834 -8.66699 -93.501 -26s-32.5 -42 -32.5 -74c0 -19.333 3.33301 -35.166 10 -47.499s15.5 -22.5 26.5 -30.5
s23.833 -14.333 38.5 -19s30.334 -9 47.001 -13c22 -6 42 -12.667 60 -20s33.5 -16.833 46.5 -28.5s23.167 -26.167 30.5 -43.5s11 -38.666 11 -63.999c0 -48 -15.5 -85.5 -46.5 -112.5s-72.5 -40.5 -124.5 -40.5z" />
    <glyph glyph-name="uni021A" unicode="&#x21a;" horiz-adv-x="539" 
d="M243 -68h52l-57 -152h-45zM244 694h-229v46h509v-46h-230v-694h-50v694z" />
    <glyph glyph-name="uni021B" unicode="&#x21b;" horiz-adv-x="356" 
d="M218 -68h52l-57 -152h-45zM264 -6c-90 0 -135 47.667 -135 143v357h-114v46h115l7 126l40 7v-133h162v-46h-162v-350c0 -70.667 32.333 -106 97 -106c9.33301 0 20 0.833008 32 2.5s24 4.16699 36 7.5v-44c-27.333 -6.66699 -53.333 -10 -78 -10z" />
    <glyph glyph-name="dotlessj" unicode="&#x237;" horiz-adv-x="203" 
d="M2 -200c26 45.333 45.167 93 57.5 143s18.5 107 18.5 171v426h49v-449c0 -55.333 -7.83301 -109.5 -23.5 -162.5s-38.167 -102.5 -67.5 -148.5z" />
    <glyph glyph-name="schwa" unicode="&#x259;" horiz-adv-x="493" 
d="M218 549c72.667 0 128.5 -23.002 167.5 -69.002s58.5 -112.333 58.5 -199c0 -94.667 -18.833 -166.667 -56.5 -216s-91.834 -74 -162.501 -74c-58.667 0 -103.167 19.833 -133.5 59.5s-45.5 97.834 -45.5 174.501c0 15.333 0.333008 28 1 38s1.66699 19.333 3 28h345
c-4 142 -64.333 213 -181 213c-23.333 0 -46.166 -2.16699 -68.499 -6.5s-47.5 -12.166 -75.5 -23.499l-5 44c23.333 9.33301 48.5 16.833 75.5 22.5s52.833 8.5 77.5 8.5zM226 34.998c52 0 92.168 18 120.501 54s44.166 89.333 47.499 160h-300
c1.33301 -76 12.333 -130.667 33 -164s53.667 -50 99 -50z" />
    <glyph glyph-name="apostrophe" unicode="&#x2bc;" horiz-adv-x="200" 
d="M126 808v-4l-26 -224h-21v228h47z" />
    <glyph glyph-name="circumflex" unicode="&#x2c6;" horiz-adv-x="399" 
d="M54 688l141 72l142 -72v-49l-142 72l-141 -72v49z" />
    <glyph glyph-name="caron" unicode="&#x2c7;" horiz-adv-x="375" 
d="M44 758l141 -73l142 73v-49l-142 -73l-141 73v49z" />
    <glyph glyph-name="uni02C9" unicode="&#x2c9;" horiz-adv-x="412" 
d="M69 693h276v-42h-276v42z" />
    <glyph glyph-name="breve" unicode="&#x2d8;" horiz-adv-x="440" 
d="M218 621c-52 0 -91.167 12.333 -117.5 37s-39.5 59 -39.5 103h43c0 -36 10 -62.167 30 -78.5s48 -24.5 84 -24.5s64 8.16699 84 24.5s30 42.5 30 78.5h43c-0.666992 -44 -14 -78.333 -40 -103s-65 -37 -117 -37z" />
    <glyph glyph-name="dotaccent" unicode="&#x2d9;" horiz-adv-x="224" 
d="M103 649c-11.333 0 -20.5 3 -27.5 9s-10.5 15.667 -10.5 29s3.5 23 10.5 29s16.167 9 27.5 9s20.666 -3 27.999 -9s11 -15.667 11 -29s-3.66699 -23 -11 -29s-16.666 -9 -27.999 -9z" />
    <glyph glyph-name="ring" unicode="&#x2da;" horiz-adv-x="329" 
d="M163 610c-32 0 -57.833 9.83301 -77.5 29.5s-29.5 44.167 -29.5 73.5c0 30 9.66699 55 29 75s45.333 30 78 30c32 0 57.667 -10 77 -30s29 -45 29 -75c0 -29.333 -9.66699 -53.833 -29 -73.5s-45 -29.5 -77 -29.5zM163 646c21.333 0 38 6.33301 50 19s18 28.667 18 48
c0 20.667 -6 37.167 -18 49.5s-28.667 18.5 -50 18.5c-22 0 -38.833 -6.16699 -50.5 -18.5s-17.5 -28.833 -17.5 -49.5c0 -20 6 -36.167 18 -48.5s28.667 -18.5 50 -18.5z" />
    <glyph glyph-name="ogonek" unicode="&#x2db;" horiz-adv-x="270" 
d="M146 -220c-57.333 0 -85.999 26.667 -85.999 80c0 26.667 8.16699 50.834 24.5 72.501s44.166 44.167 83.499 67.5h41v-20c-38 -18.667 -65.333 -37.334 -82 -56.001s-25 -39 -25 -61c0 -30 16.667 -45 50 -45c17.333 0 36 3.66699 56 11v-37c-18 -8 -38.667 -12 -62 -12
z" />
    <glyph glyph-name="tilde" unicode="&#x2dc;" horiz-adv-x="457" 
d="M43 674c14.667 16.667 31.167 30 49.5 40s36.5 15 54.5 15c14.667 0 28 -2.33301 40 -7s23.667 -9.66699 35 -15s22.5 -10.333 33.5 -15s23.167 -7 36.5 -7c27.333 0 52.333 13 75 39l26 -23c-12.667 -17.333 -28.5 -31.333 -47.5 -42s-38.5 -16 -58.5 -16
c-13.333 0 -26 2.16699 -38 6.5s-23.667 9.33301 -35 15s-22.833 10.667 -34.5 15s-23.5 6.5 -35.5 6.5c-26.667 0 -52 -12.667 -76 -38z" />
    <glyph glyph-name="hungarumlaut" unicode="&#x2dd;" horiz-adv-x="382" 
d="M50 624l74 179h54l-91 -189zM213 624l73 179h54l-91 -189z" />
    <glyph glyph-name="uni030F" unicode="&#x30f;" horiz-adv-x="390" 
d="M133 614l-92 189h54l73 -179zM295 614l-92 189h55l73 -179z" />
    <glyph glyph-name="uni0311" unicode="&#x311;" horiz-adv-x="439" 
d="M59 626c0 44 13.167 78.5 39.5 103.5s65.5 37.5 117.5 37.5s91.167 -12.5 117.5 -37.5s39.5 -59.5 39.5 -103.5h-43c0 36 -10 62.167 -30 78.5s-48 24.5 -84 24.5s-64 -8.16699 -84 -24.5s-30 -42.5 -30 -78.5h-43v0z" />
    <glyph glyph-name="uni0394" unicode="&#x394;" horiz-adv-x="627" 
d="M282 740h63l274 -740h-611zM552 45l-239 645l-239 -645h478z" />
    <glyph glyph-name="uni03A9" unicode="&#x3a9;" horiz-adv-x="742" 
d="M48 45l206 -0.998047c-26 16.667 -50.833 36.167 -74.5 58.5s-44.5 48.333 -62.5 78s-32.167 62.667 -42.5 99s-15.5 76.833 -15.5 121.5c0 52.667 7.5 100.334 22.5 143.001s36 79.334 63 110.001s59.667 54.334 98 71.001s81.166 25 128.499 25
c46.667 0 89.334 -8.33301 128.001 -25s71.5 -40.334 98.5 -71.001s48 -67.334 63 -110.001s22.5 -90.334 22.5 -143.001c0 -44.667 -5.33301 -85.167 -16 -121.5s-25 -69.333 -43 -99s-38.833 -55.834 -62.5 -78.501s-48.5 -42.334 -74.5 -59.001l207 2v-45h-271v40
c25.333 15.333 50.666 33.5 75.999 54.5s48 45.833 68 74.5s36.167 62 48.5 100s18.5 81.667 18.5 131c0 46 -6.16699 87.667 -18.5 125s-30 69.333 -53 96s-50.667 47.334 -83 62.001s-68.5 22 -108.5 22s-76.167 -7.33301 -108.5 -22s-60 -35.334 -83 -62.001
s-40.667 -58.667 -53 -96s-18.5 -79 -18.5 -125c0 -59.333 8 -109.666 24 -150.999s35.333 -75.833 58 -103.5s45.834 -49.834 69.501 -66.501s43.167 -29.667 58.5 -39v-40h-270v45z" />
    <glyph glyph-name="uni03BC" unicode="&#x3bc;" horiz-adv-x="544" 
d="M77 540l49 -0.000976562v-404c0 -67.333 29.667 -101 89 -101c32 0 63.667 6.33301 95 19s67.333 29.667 108 51v435h49v-540h-41l-5 64h-4c-24.667 -13.333 -46.5 -24.666 -65.5 -33.999s-36.667 -17 -53 -23s-32 -10.333 -47 -13s-30.833 -4 -47.5 -4
c-32 0 -58 6.33301 -78 19v-229h-49v760z" />
    <glyph glyph-name="pi" unicode="&#x3c0;" horiz-adv-x="671" 
d="M192 495h-22c-32.667 0 -57.834 -6.5 -75.501 -19.5s-30.5 -34.167 -38.5 -63.5l-40 17c10.667 38 28.334 66 53.001 84s57.334 27 98.001 27h461l19 -18v-27h-136v-375c0 -23.333 6.83301 -42 20.5 -56s30.5 -21 50.5 -21h10c5.33301 0 8.66602 0.333008 9.99902 1v-44
c-1.33301 -0.666992 -5.5 -1 -12.5 -1h-13.5c-35.333 0 -63 9.83301 -83 29.5s-30 48.5 -30 86.5v380h-223v-597h-48v597z" />
    <glyph glyph-name="Ddotbelow" unicode="&#x1e0c;" horiz-adv-x="661" 
d="M308 -170c-26.667 0 -40 13.333 -40 40c0 27.333 13.333 41 40 41c12 0 21.833 -3.16699 29.5 -9.5s11.5 -16.833 11.5 -31.5s-3.83301 -25 -11.5 -31s-17.5 -9 -29.5 -9zM243 -13c-31.333 0 -60.499 1 -87.499 3s-48.5 5 -64.5 9v737c14 2 28.667 3.83301 44 5.5
s30.833 3 46.5 4s30.667 1.83301 45 2.5s27.166 1 38.499 1c118 0 204.667 -30.667 260 -92s83 -157 83 -287c0 -132 -29.333 -228.833 -88 -290.5s-151 -92.5 -277 -92.5zM251.001 33c104.667 0 181.834 27.332 231.501 81.999s74.5 139.667 74.5 255
c0 114.667 -23.333 198.834 -70 252.501s-120.334 80.5 -221.001 80.5c-18.667 0 -39.5 -0.666992 -62.5 -2s-44.167 -3.33301 -63.5 -6v-654c22.667 -3.33301 42 -5.5 58 -6.5s33.667 -1.5 53 -1.5z" />
    <glyph glyph-name="ddotbelow" unicode="&#x1e0d;" horiz-adv-x="541" 
d="M263 -170c-26.667 0 -40 13.333 -40 40c0 27.333 13.333 41 40 41c12 0 21.833 -3.16699 29.5 -9.5s11.5 -16.833 11.5 -31.5s-3.83301 -25 -11.5 -31s-17.5 -9 -29.5 -9zM255 -10c-68 0 -119.335 22.499 -154.002 67.499s-52 115.5 -52 211.5
c0 46.667 5.66699 87.5 17 122.5s27.5 64.167 48.5 87.5s46.167 41 75.5 53s62.333 18 99 18c22.667 0 44.334 -1.16699 65.001 -3.5s41.334 -4.83301 62.001 -7.5v269h48v-808h-42l-5 62h-4c-18 -23.333 -40.167 -41.166 -66.5 -53.499s-56.833 -18.5 -91.5 -18.5z
M260.998 33.999c18.667 0 37.335 2.83398 56.002 8.50098s35.334 13.667 50.001 24s26.5 22.666 35.5 36.999s13.5 29.833 13.5 46.5v345c-20.667 3.33301 -41.334 6 -62.001 8s-42.334 3 -65.001 3c-60.667 0 -107.334 -19.167 -140.001 -57.5s-49 -97.833 -49 -178.5
s13.5 -140.167 40.5 -178.5s67.167 -57.5 120.5 -57.5z" />
    <glyph glyph-name="Hdotbelow" unicode="&#x1e24;" horiz-adv-x="699" 
d="M91 740h49v-339h419v339h49v-740h-49v356h-419v-356h-49v740zM358 -170c-26.667 0 -40 13.333 -40 40c0 27.333 13.333 41 40 41c12 0 21.833 -3.16699 29.5 -9.5s11.5 -16.833 11.5 -31.5s-3.83301 -25 -11.5 -31s-17.5 -9 -29.5 -9z" />
    <glyph glyph-name="hdotbelow" unicode="&#x1e25;" horiz-adv-x="541" 
d="M77 808l49 -0.000976562v-330c46 24.667 85.5 42.834 118.5 54.501s64.167 17.5 93.5 17.5c44 0 76.5 -11.167 97.5 -33.5s31.5 -59.5 31.5 -111.5v-405h-49v392c0 40.667 -7.33301 69.5 -22 86.5s-37.667 25.5 -69 25.5c-28 0 -59 -6 -93 -18s-70 -28.667 -108 -50v-436
h-49v808zM274 -170.001c-26.667 0 -40 13.333 -40 40c0 27.333 13.333 41 40 41c12 0 21.833 -3.16699 29.5 -9.5s11.5 -16.833 11.5 -31.5s-3.83301 -25 -11.5 -31s-17.5 -9 -29.5 -9z" />
    <glyph glyph-name="Ndotaccent" unicode="&#x1e44;" horiz-adv-x="725" 
d="M364 812c-11.333 0 -20.5 3 -27.5 9s-10.5 15.667 -10.5 29s3.5 23 10.5 29s16.167 9 27.5 9s20.666 -3 27.999 -9s11 -15.667 11 -29s-3.66699 -23 -11 -29s-16.666 -9 -27.999 -9zM91 740h48l388 -571l55 -88l5 1v658h47v-740h-49l-389 571l-54 86h-4v-657h-47v740z
" />
    <glyph glyph-name="ndotaccent" unicode="&#x1e45;" horiz-adv-x="541" 
d="M275 649c-11.333 0 -20.5 3 -27.5 9s-10.5 15.667 -10.5 29s3.5 23 10.5 29s16.167 9 27.5 9s20.666 -3 27.999 -9s11 -15.667 11 -29s-3.66699 -23 -11 -29s-16.666 -9 -27.999 -9zM77 540h40.998l5 -61h4c46.667 24.667 86.334 42.667 119.001 54s63.334 17 92.001 17
c44 0 76.5 -11.167 97.5 -33.5s31.5 -59.5 31.5 -111.5v-405h-49v392c0 40.667 -7.33301 69.5 -22 86.5s-37.667 25.5 -69 25.5c-28 0 -59 -6 -93 -18s-70 -28.667 -108 -50v-436h-49v540z" />
    </font>
</defs>
</svg>
