<?xml version="1.0" standalone="no"?>
<!DOCTYPE svg PUBLIC "-//W3C//DTD SVG 1.1//EN" "http://www.w3.org/Graphics/SVG/1.1/DTD/svg11.dtd" >
<svg>
<metadata>
Created by FontForge 20090914 at Sat Aug  6 10:34:41 2016
 By www-data
Copyright (c) 2012, Impallari Type (www.impallari.com), with Reserved Font Name Encode Sans.
</metadata>
<defs>
<font id="EncodeSansNarrow-Medium" horiz-adv-x="562" >
  <font-face 
    font-family="Encode Sans Narrow"
    font-weight="500"
    font-stretch="normal"
    units-per-em="1000"
    panose-1="2 0 0 0 0 0 0 0 0 0"
    ascent="800"
    descent="-200"
    x-height="540"
    cap-height="740"
    bbox="-104 -220 1592 1030"
    underline-thickness="55"
    underline-position="-57"
    unicode-range="U+000D-U+FB04"
  />
<missing-glyph horiz-adv-x="735" 
d="M87 1030h559v-1250h-559v1250zM555 -134v1079h-377v-1079h377z" />
    <glyph glyph-name="f_f" unicode="ff" horiz-adv-x="730" 
d="M117 449l-100.999 0.000976562v91h102v29c0 46 4.16699 84.167 12.5 114.5s22.166 54.666 41.499 72.999s45.333 31.833 78 40.5s73.667 14 123 16l5 -80c-30.667 -2 -56 -5.66699 -76 -11s-35.667 -13.5 -47 -24.5s-19.333 -25.667 -24 -44s-7 -41.5 -7 -69.5v-44h130
v-91h-130v-449h-107v449zM480.001 449.001l-100.999 0.000976562v91h102v29c0 46 4.16699 84.167 12.5 114.5s22.166 54.666 41.499 72.999s45.333 31.833 78 40.5s73.667 14 123 16l5 -80c-30.667 -2 -56 -5.66699 -76 -11s-35.667 -13.5 -47 -24.5
s-19.333 -25.667 -24 -44s-7 -41.5 -7 -69.5v-44h130v-91h-130v-449h-107v449z" />
    <glyph glyph-name="f_i" unicode="fi" horiz-adv-x="620" 
d="M500 644c-22 0 -38 5 -48 15s-15 25.667 -15 47s5 37 15 47s26 15 48 15c42.667 0 64 -20.667 64 -62s-21.333 -62 -64 -62zM447 540h106v-540h-106v540zM117 449l-100.999 0.000976562v91h102v29c0 46 4.16699 84.167 12.5 114.5s22.166 54.666 41.499 72.999
s45.333 31.833 78 40.5s73.667 14 123 16l5 -80c-30.667 -2 -56 -5.66699 -76 -11s-35.667 -13.5 -47 -24.5s-19.333 -25.667 -24 -44s-7 -41.5 -7 -69.5v-44h130v-91h-130v-449h-107v449z" />
    <glyph glyph-name="f_l" unicode="fl" horiz-adv-x="622" 
d="M117 449l-100.999 0.000976562v91h102v29c0 46 4.16699 84.167 12.5 114.5s22.166 54.666 41.499 72.999s45.333 31.833 78 40.5s73.667 14 123 16l5 -80c-30.667 -2 -56 -5.66699 -76 -11s-35.667 -13.5 -47 -24.5s-19.333 -25.667 -24 -44s-7 -41.5 -7 -69.5v-44h130
v-91h-130v-449h-107v449zM446.001 808.001h107v-808h-107v808z" />
    <glyph glyph-name="f_f_i" unicode="ffi" horiz-adv-x="981" 
d="M860 644c-22 0 -38 5 -48 15s-15 25.667 -15 47s5 37 15 47s26 15 48 15c42.667 0 64 -20.667 64 -62s-21.333 -62 -64 -62zM807 540h106v-540h-106v540zM478 449l-100.999 0.000976562v91h102v29c0 46 4.16699 84.167 12.5 114.5s22.166 54.666 41.499 72.999
s45.333 31.833 78 40.5s73.667 14 123 16l5 -80c-30.667 -2 -56 -5.66699 -76 -11s-35.667 -13.5 -47 -24.5s-19.333 -25.667 -24 -44s-7 -41.5 -7 -69.5v-44h130v-91h-130v-449h-107v449zM117.001 449.001l-100.999 0.000976562v91h102v29c0 46 4.16699 84.167 12.5 114.5
s22.166 54.666 41.499 72.999s45.333 31.833 78 40.5s73.667 14 123 16l5 -80c-30.667 -2 -56 -5.66699 -76 -11s-35.667 -13.5 -47 -24.5s-19.333 -25.667 -24 -44s-7 -41.5 -7 -69.5v-44h130v-91h-130v-449h-107v449z" />
    <glyph glyph-name="f_f_l" unicode="ffl" horiz-adv-x="982" 
d="M478 449l-100.999 0.000976562v91h102v29c0 46 4.16699 84.167 12.5 114.5s22.166 54.666 41.499 72.999s45.333 31.833 78 40.5s73.667 14 123 16l5 -80c-30.667 -2 -56 -5.66699 -76 -11s-35.667 -13.5 -47 -24.5s-19.333 -25.667 -24 -44s-7 -41.5 -7 -69.5v-44h130
v-91h-130v-449h-107v449zM807.001 808.001h107v-808h-107v808zM117.001 449.001l-100.999 0.000976562v91h102v29c0 46 4.16699 84.167 12.5 114.5s22.166 54.666 41.499 72.999s45.333 31.833 78 40.5s73.667 14 123 16l5 -80c-30.667 -2 -56 -5.66699 -76 -11
s-35.667 -13.5 -47 -24.5s-19.333 -25.667 -24 -44s-7 -41.5 -7 -69.5v-44h130v-91h-130v-449h-107v449z" />
    <glyph glyph-name="f_b" unicode="fb" horiz-adv-x="958" 
d="M117 449l-100.999 0.000976562v91h102v29c0 46 4.16699 84.167 12.5 114.5s22.166 54.666 41.499 72.999s45.333 31.833 78 40.5s73.667 14 123 16l5 -80c-30.667 -2 -56 -5.66699 -76 -11s-35.667 -13.5 -47 -24.5s-19.333 -25.667 -24 -44s-7 -41.5 -7 -69.5v-44h130
v-91h-130v-449h-107v449zM653.001 -10.999c-30 0 -61.502 2.16895 -94.502 6.50195s-70.5 11.5 -112.5 21.5v791h107v-326c36.667 44.667 89.334 67 158.001 67s120.334 -22 155.001 -66s52 -111.667 52 -203c0 -44.667 -5.5 -84.834 -16.5 -120.501s-27.667 -66 -50 -91
s-50 -44.333 -83 -58s-71.5 -20.834 -115.5 -21.501zM653.999 67.0029c53.333 0 92.502 15.5 117.502 46.5s37.5 83.5 37.5 157.5c0 70.667 -10.167 121 -30.5 151s-52.833 45 -97.5 45c-17.333 0 -33.833 -2.5 -49.5 -7.5s-29.334 -12.5 -41.001 -22.5
s-20.834 -22.5 -27.501 -37.5s-10 -32.5 -10 -52.5v-270c14 -3.33301 29.667 -5.83301 47 -7.5s35.333 -2.5 54 -2.5z" />
    <glyph glyph-name="f_f_b" unicode="ffb" horiz-adv-x="1319" 
d="M478 449l-100.999 0.000976562v91h102v29c0 46 4.16699 84.167 12.5 114.5s22.166 54.666 41.499 72.999s45.333 31.833 78 40.5s73.667 14 123 16l5 -80c-30.667 -2 -56 -5.66699 -76 -11s-35.667 -13.5 -47 -24.5s-19.333 -25.667 -24 -44s-7 -41.5 -7 -69.5v-44h130
v-91h-130v-449h-107v449zM1013 -10.999c-30 0 -61.502 2.16895 -94.502 6.50195s-70.5 11.5 -112.5 21.5v791h107v-326c36.667 44.667 89.334 67 158.001 67s120.334 -22 155.001 -66s52 -111.667 52 -203c0 -44.667 -5.5 -84.834 -16.5 -120.501s-27.667 -66 -50 -91
s-50 -44.333 -83 -58s-71.5 -20.834 -115.5 -21.501zM1014 67.0029c53.333 0 92.502 15.5 117.502 46.5s37.5 83.5 37.5 157.5c0 70.667 -10.167 121 -30.5 151s-52.833 45 -97.5 45c-17.333 0 -33.833 -2.5 -49.5 -7.5s-29.334 -12.5 -41.001 -22.5
s-20.834 -22.5 -27.501 -37.5s-10 -32.5 -10 -52.5v-270c14 -3.33301 29.667 -5.83301 47 -7.5s35.333 -2.5 54 -2.5zM117.001 449.003l-100.999 0.000976562v91h102v29c0 46 4.16699 84.167 12.5 114.5s22.166 54.666 41.499 72.999s45.333 31.833 78 40.5
s73.667 14 123 16l5 -80c-30.667 -2 -56 -5.66699 -76 -11s-35.667 -13.5 -47 -24.5s-19.333 -25.667 -24 -44s-7 -41.5 -7 -69.5v-44h130v-91h-130v-449h-107v449z" />
    <glyph glyph-name="f_f_h" unicode="ffh" horiz-adv-x="1319" 
d="M807 808l106.999 0.000976562v-327c44.667 23.333 82.834 40.666 114.501 51.999s61.834 17 90.501 17c90.667 0 136 -49 136 -147v-403h-106v369c0 32.667 -6 56 -18 70s-30.667 21 -56 21c-21.333 0 -45.833 -4.5 -73.5 -13.5s-56.834 -21.5 -87.501 -37.5v-409h-107
v808zM477.999 449.001l-100.999 0.000976562v91h102v29c0 46 4.16699 84.167 12.5 114.5s22.166 54.666 41.499 72.999s45.333 31.833 78 40.5s73.667 14 123 16l5 -80c-30.667 -2 -56 -5.66699 -76 -11s-35.667 -13.5 -47 -24.5s-19.333 -25.667 -24 -44s-7 -41.5 -7 -69.5
v-44h130v-91h-130v-449h-107v449zM117 449.002l-100.999 0.000976562v91h102v29c0 46 4.16699 84.167 12.5 114.5s22.166 54.666 41.499 72.999s45.333 31.833 78 40.5s73.667 14 123 16l5 -80c-30.667 -2 -56 -5.66699 -76 -11s-35.667 -13.5 -47 -24.5
s-19.333 -25.667 -24 -44s-7 -41.5 -7 -69.5v-44h130v-91h-130v-449h-107v449z" />
    <glyph glyph-name="f_f_j" unicode="ffj" horiz-adv-x="984" 
d="M478 449l-100.999 0.000976562v91h102v29c0 46 4.16699 84.167 12.5 114.5s22.166 54.666 41.499 72.999s45.333 31.833 78 40.5s73.667 14 123 16l5 -80c-30.667 -2 -56 -5.66699 -76 -11s-35.667 -13.5 -47 -24.5s-19.333 -25.667 -24 -44s-7 -41.5 -7 -69.5v-44h130
v-91h-130v-449h-107v449zM863.001 644.001c-22 0 -38 5 -48 15s-15 25.667 -15 47s5 37 15 47s26 15 48 15c42.667 0 64 -20.667 64 -62s-21.333 -62 -64 -62zM751.001 -196.999c10.667 23.333 19.833 47.001 27.5 71.001s14 49 19 75s8.66699 53.667 11 83s3.5 61 3.5 95
v33v71.5v92v94c0 29.667 -0.166992 55.667 -0.5 78s-0.5 37.166 -0.5 44.499h107v-457c0 -52 -8.16699 -104.5 -24.5 -157.5s-38.5 -101.5 -66.5 -145.5zM117 449.002l-100.999 0.000976562v91h102v29c0 46 4.16699 84.167 12.5 114.5s22.166 54.666 41.499 72.999
s45.333 31.833 78 40.5s73.667 14 123 16l5 -80c-30.667 -2 -56 -5.66699 -76 -11s-35.667 -13.5 -47 -24.5s-19.333 -25.667 -24 -44s-7 -41.5 -7 -69.5v-44h130v-91h-130v-449h-107v449z" />
    <glyph glyph-name="f_f_k" unicode="ffk" horiz-adv-x="1276" 
d="M807 808h107v-493h74l157 225h118l-183 -253l-19 -8v-3l20 -10l199 -266h-118l-175 240h-73v-240h-107v808zM478 449l-100.999 0.000976562v91h102v29c0 46 4.16699 84.167 12.5 114.5s22.166 54.666 41.499 72.999s45.333 31.833 78 40.5s73.667 14 123 16l5 -80
c-30.667 -2 -56 -5.66699 -76 -11s-35.667 -13.5 -47 -24.5s-19.333 -25.667 -24 -44s-7 -41.5 -7 -69.5v-44h130v-91h-130v-449h-107v449zM117.001 449.001l-100.999 0.000976562v91h102v29c0 46 4.16699 84.167 12.5 114.5s22.166 54.666 41.499 72.999
s45.333 31.833 78 40.5s73.667 14 123 16l5 -80c-30.667 -2 -56 -5.66699 -76 -11s-35.667 -13.5 -47 -24.5s-19.333 -25.667 -24 -44s-7 -41.5 -7 -69.5v-44h130v-91h-130v-449h-107v449z" />
    <glyph glyph-name="f_f_t" unicode="fft" horiz-adv-x="1110" 
d="M478 449l-100.999 0.000976562v91h102v29c0 46 4.16699 84.167 12.5 114.5s22.166 54.666 41.499 72.999s45.333 31.833 78 40.5s73.667 14 123 16l5 -80c-30.667 -2 -56 -5.66699 -76 -11s-35.667 -13.5 -47 -24.5s-19.333 -25.667 -24 -44s-7 -41.5 -7 -69.5v-44h130
v-91h-130v-449h-107v449zM997.001 -7.99902c-106 0 -159 51.333 -159 154v302h-102v92h108l15 141l85 11v-152h145v-92h-144v-279c0 -32 6.66699 -55.5 20 -70.5s34.333 -22.5 63 -22.5c9.33301 0 19.333 0.833008 30 2.5s21.667 4.16699 33 7.5v-83
c-30.667 -7.33301 -62 -11 -94 -11zM117.001 449.001l-100.999 0.000976562v91h102v29c0 46 4.16699 84.167 12.5 114.5s22.166 54.666 41.499 72.999s45.333 31.833 78 40.5s73.667 14 123 16l5 -80c-30.667 -2 -56 -5.66699 -76 -11s-35.667 -13.5 -47 -24.5
s-19.333 -25.667 -24 -44s-7 -41.5 -7 -69.5v-44h130v-91h-130v-449h-107v449z" />
    <glyph glyph-name="f_h" unicode="fh" horiz-adv-x="958" 
d="M446 808l106.999 0.000976562v-327c44.667 23.333 82.834 40.666 114.501 51.999s61.834 17 90.501 17c90.667 0 136 -49 136 -147v-403h-106v369c0 32.667 -6 56 -18 70s-30.667 21 -56 21c-21.333 0 -45.833 -4.5 -73.5 -13.5s-56.834 -21.5 -87.501 -37.5v-409h-107
v808zM116.999 449.001l-100.999 0.000976562v91h102v29c0 46 4.16699 84.167 12.5 114.5s22.166 54.666 41.499 72.999s45.333 31.833 78 40.5s73.667 14 123 16l5 -80c-30.667 -2 -56 -5.66699 -76 -11s-35.667 -13.5 -47 -24.5s-19.333 -25.667 -24 -44s-7 -41.5 -7 -69.5
v-44h130v-91h-130v-449h-107v449z" />
    <glyph glyph-name="f_j" unicode="fj" horiz-adv-x="623" 
d="M117 449l-100.999 0.000976562v91h102v29c0 46 4.16699 84.167 12.5 114.5s22.166 54.666 41.499 72.999s45.333 31.833 78 40.5s73.667 14 123 16l5 -80c-30.667 -2 -56 -5.66699 -76 -11s-35.667 -13.5 -47 -24.5s-19.333 -25.667 -24 -44s-7 -41.5 -7 -69.5v-44h130
v-91h-130v-449h-107v449zM502.001 644.001c-22 0 -38 5 -48 15s-15 25.667 -15 47s5 37 15 47s26 15 48 15c42.667 0 64 -20.667 64 -62s-21.333 -62 -64 -62zM390.001 -196.999c10.667 23.333 19.833 47.001 27.5 71.001s14 49 19 75s8.66699 53.667 11 83s3.5 61 3.5 95
v33v71.5v92v94c0 29.667 -0.166992 55.667 -0.5 78s-0.5 37.166 -0.5 44.499h107v-457c0 -52 -8.16699 -104.5 -24.5 -157.5s-38.5 -101.5 -66.5 -145.5z" />
    <glyph glyph-name="f_k" unicode="fk" horiz-adv-x="916" 
d="M446 808h107v-493h74l157 225h118l-183 -253l-19 -8v-3l20 -10l199 -266h-118l-175 240h-73v-240h-107v808zM117 449l-100.999 0.000976562v91h102v29c0 46 4.16699 84.167 12.5 114.5s22.166 54.666 41.499 72.999s45.333 31.833 78 40.5s73.667 14 123 16l5 -80
c-30.667 -2 -56 -5.66699 -76 -11s-35.667 -13.5 -47 -24.5s-19.333 -25.667 -24 -44s-7 -41.5 -7 -69.5v-44h130v-91h-130v-449h-107v449z" />
    <glyph glyph-name="f_t" unicode="ft" horiz-adv-x="749" 
d="M117 449l-100.999 0.000976562v91h102v29c0 46 4.16699 84.167 12.5 114.5s22.166 54.666 41.499 72.999s45.333 31.833 78 40.5s73.667 14 123 16l5 -80c-30.667 -2 -56 -5.66699 -76 -11s-35.667 -13.5 -47 -24.5s-19.333 -25.667 -24 -44s-7 -41.5 -7 -69.5v-44h130
v-91h-130v-449h-107v449zM636.001 -7.99902c-106 0 -159 51.333 -159 154v302h-102v92h108l15 141l85 11v-152h145v-92h-144v-279c0 -32 6.66699 -55.5 20 -70.5s34.333 -22.5 63 -22.5c9.33301 0 19.333 0.833008 30 2.5s21.667 4.16699 33 7.5v-83
c-30.667 -7.33301 -62 -11 -94 -11z" />
    <glyph glyph-name=".notdef" horiz-adv-x="735" 
d="M87 1030h559v-1250h-559v1250zM555 -134v1079h-377v-1079h377z" />
    <glyph glyph-name="NULL" horiz-adv-x="0" 
 />
    <glyph glyph-name="NULL" horiz-adv-x="0" 
 />
    <glyph glyph-name="nonmarkingreturn" unicode="&#xd;" horiz-adv-x="289" 
 />
    <glyph glyph-name="space" unicode=" " horiz-adv-x="215" 
 />
    <glyph glyph-name="exclam" unicode="!" horiz-adv-x="255" 
d="M129 -1c-19.333 0 -34.333 5.16699 -45 15.5s-16 24.833 -16 43.5s5.33301 33.167 16 43.5s25.667 15.5 45 15.5s34.5 -5.16699 45.5 -15.5s16.5 -24.833 16.5 -43.5s-5.5 -33.167 -16.5 -43.5s-26.167 -15.5 -45.5 -15.5zM94 213l-21 517v10h108v-10l-20 -517v-12h-67
v12z" />
    <glyph glyph-name="quotedbl" unicode="&#x22;" horiz-adv-x="378" 
d="M150 808v-4l-33 -324h-56v328h89zM332 808v-4l-33 -324h-56v328h89z" />
    <glyph glyph-name="numbersign" unicode="#" horiz-adv-x="559" 
d="M322 218h-117l-17 -218h-77l17 218h-83v72h89l13 159h-102v73h108l18 218h77l-18 -218h117l18 218h78l-18 -218h88v-73h-94l-13 -159h106v-72h-112l-17 -218h-79zM211 290h117l13 159h-117z" />
    <glyph glyph-name="dollar" unicode="$" horiz-adv-x="561" 
d="M246 -11c-32 1.33301 -66.332 4.66602 -102.999 9.99902s-71 12.666 -103 21.999l3 91c34.667 -9.33301 71.667 -17.166 111 -23.499s74.333 -9.5 105 -9.5c52 0 91.167 9.66699 117.5 29s39.5 47.333 39.5 84c0 19.333 -3.66699 36 -11 50s-17.833 26.333 -31.5 37
s-30 19.667 -49 27s-40.5 14.333 -64.5 21c-35.333 10 -66 21.167 -92 33.5s-47.667 27 -65 44s-30.333 37 -39 60s-13 50.167 -13 81.5c0 54 16.5 98.667 49.5 134s78.833 58 137.5 68v138h97v-134c23.333 -1.33301 47.833 -3.83301 73.5 -7.5s54.167 -9.16699 85.5 -16.5
l-3 -90c-30.667 8 -61.834 14.333 -93.501 19s-60.167 7 -85.5 7c-46.667 0 -83.167 -10.333 -109.5 -31s-39.5 -49 -39.5 -85c0 -17.333 3 -32.333 9 -45s15.167 -24.167 27.5 -34.5s28.333 -19.666 48 -27.999s43.167 -16.833 70.5 -25.5c32 -10 61 -20.833 87 -32.5
s48 -25.667 66 -42s31.833 -36 41.5 -59s14.5 -50.5 14.5 -82.5c0 -57.333 -15.833 -103.5 -47.5 -138.5s-77.5 -57.167 -137.5 -66.5v-140h-96v135z" />
    <glyph glyph-name="percent" unicode="%" horiz-adv-x="951" 
d="M216 279c-58.667 0 -103.334 19.667 -134.001 59s-46 98.333 -46 177c0 77.333 15.333 135.833 46 175.5s75.334 59.5 134.001 59.5c59.333 0 104.333 -19.833 135 -59.5s46 -98.167 46 -175.5c0 -78.667 -15.333 -137.667 -46 -177s-75.667 -59 -135 -59zM216 352
c34 0 58.999 13 74.999 39s24 67.333 24 124c0 56 -8.16699 97 -24.5 123s-41.166 39 -74.499 39s-58 -13 -74 -39s-24 -67 -24 -123c0 -56.667 7.83301 -98 23.5 -124s40.5 -39 74.5 -39zM735.999 -11c-59.333 0 -104.333 19.667 -135 59s-46 98 -46 176
s15.5 136.833 46.5 176.5s75.833 59.5 134.5 59.5s103.334 -19.833 134.001 -59.5s46 -98.5 46 -176.5s-15.333 -136.667 -46 -176s-75.334 -59 -134.001 -59zM735.999 61c33.333 0 58 13 74 39s24 67.333 24 124s-8 98 -24 124s-40.667 39 -74 39
c-34 0 -59 -13.167 -75 -39.5s-24 -67.5 -24 -123.5c0 -56.667 8 -98 24 -124s41 -39 75 -39zM585.999 740h93l-316 -740h-94z" />
    <glyph glyph-name="ampersand" unicode="&#x26;" horiz-adv-x="703" 
d="M313 -11c-41.333 0 -78.502 5.00293 -111.502 15.0029s-61.167 24.333 -84.5 43s-41.166 41.5 -53.499 68.5s-18.5 57.167 -18.5 90.5c0 46 11.333 85.5 34 118.5s55 57.833 97 74.5c-21.333 25.333 -36.333 50.666 -45 75.999s-13 53.333 -13 84
c0 62.667 19.833 110.5 59.5 143.5s96.834 49.5 171.501 49.5c27.333 0 55.5 -2.66699 84.5 -8s60.5 -14 94.5 -26l1 -5l-16 -75h-6c-56 21.333 -105.667 32 -149 32c-88.667 0 -133 -40.333 -133 -121c0 -21.333 3.66699 -41.5 11 -60.5s19 -37.667 35 -56
s36.667 -36.833 62 -55.5s55.666 -38.334 90.999 -59.001l97 -57c1.33301 12 2.5 24.667 3.5 38s1.5 27.666 1.5 42.999v78h98v-77c0 -49.333 -5 -94 -15 -134l83 -48v-8l-42 -77h-7l-71 43c-25.333 -42.667 -59.666 -75 -102.999 -97s-95.333 -33 -156 -33z
M377.998 240.003c-30 18.667 -56.668 36.167 -80.001 52.5s-44.333 32.166 -63 47.499c-54 -25.333 -81 -68.333 -81 -129c0 -43.333 14.833 -77.666 44.5 -102.999s69.834 -38 120.501 -38c84 0 142.333 32.667 175 98z" />
    <glyph glyph-name="quotesingle" unicode="'" horiz-adv-x="195" 
d="M150 808v-4l-33 -324h-56v328h89z" />
    <glyph glyph-name="parenleft" unicode="(" horiz-adv-x="302" 
d="M194 -160c-50.667 74 -89.167 154.833 -115.5 242.5s-39.5 178.167 -39.5 271.5s13.167 183.833 39.5 271.5s64.833 168.5 115.5 242.5h95v-4c-50.667 -73.333 -90.167 -153.333 -118.5 -240s-42.5 -176.667 -42.5 -270s14.167 -183.333 42.5 -270
s67.833 -166.667 118.5 -240v-4h-95v0z" />
    <glyph glyph-name="parenright" unicode=")" horiz-adv-x="302" 
d="M14 -160v4c50.667 73.333 90 153.333 118 240s42 176.667 42 270s-14 183.333 -42 270s-67.333 166.667 -118 240v4h94c50.667 -74 89.167 -154.833 115.5 -242.5s39.5 -178.167 39.5 -271.5s-13.167 -183.833 -39.5 -271.5s-64.833 -168.5 -115.5 -242.5h-94z" />
    <glyph glyph-name="asterisk" unicode="*" horiz-adv-x="491" 
d="M96 482l47 64l77 74l-106 14l-74 24l21 66l75 -25l94 -50l-19 107v78h69v-78l-19 -107l94 50l75 25l21 -66l-75 -24l-106 -14l78 -74l46 -64l-55 -40l-47 64l-47 99l-47 -99l-46 -64z" />
    <glyph glyph-name="plus" unicode="+" horiz-adv-x="492" 
d="M42 408h167v166h75v-166h167v-76h-167v-166h-75v166h-167v76z" />
    <glyph glyph-name="comma" unicode="," horiz-adv-x="235" 
d="M26 -145l44 264h110l-73 -274z" />
    <glyph glyph-name="hyphen" unicode="-" horiz-adv-x="434" 
d="M60 322h314v-84h-314v84z" />
    <glyph glyph-name="period" unicode="." horiz-adv-x="235" 
d="M117 -4c-42.667 0 -64 20.666 -64 61.999c0 42 21.333 63 64 63c21.333 0 37.833 -5.16699 49.5 -15.5s17.5 -26.166 17.5 -47.499c0 -41.333 -22.333 -62 -67 -62z" />
    <glyph glyph-name="slash" unicode="/" horiz-adv-x="369" 
d="M246 740h94l-217 -860h-94z" />
    <glyph glyph-name="zero" unicode="0" horiz-adv-x="639" 
d="M319 -10c-88 0 -155.167 31.667 -201.5 95s-69.5 158 -69.5 284s23.167 221 69.5 285s113.5 96 201.5 96c88.667 0 156 -32 202 -96s69 -159 69 -285s-23 -220.667 -69 -284s-113.333 -95 -202 -95zM319 80c54.667 0 95.502 23.167 122.502 69.5s40.5 119.5 40.5 219.5
c0 100.667 -13.333 174.167 -40 220.5s-67.667 69.5 -123 69.5c-54.667 0 -95.334 -23.167 -122.001 -69.5s-40 -119.833 -40 -220.5c0 -100 13.167 -173.167 39.5 -219.5s67.166 -69.5 122.499 -69.5z" />
    <glyph glyph-name="one" unicode="1" horiz-adv-x="399" 
d="M202 617h-3l-154 -76h-11l-17 60l1 9l212 130h81v-740h-109v617z" />
    <glyph glyph-name="two" unicode="2" horiz-adv-x="531" 
d="M41 104c0 32.667 4.16602 61.832 12.499 87.499s20.833 49.167 37.5 70.5s37.334 41.5 62.001 60.5s53.334 37.833 86.001 56.5c47.333 28 81.5 54.167 102.5 78.5s31.5 52.833 31.5 85.5c0 76 -46.333 114 -139 114c-24.667 0 -50.834 -2.16699 -78.501 -6.5
s-55.5 -10.5 -83.5 -18.5l-11 91c38.667 9.33301 74 16 106 20s62.333 6 91 6c148.667 0 223 -65.333 223 -196c0 -26 -3.33301 -49.667 -10 -71s-17 -41.5 -31 -60.5s-31.5 -37.167 -52.5 -54.5s-45.833 -34.666 -74.5 -51.999c-28 -17.333 -51.833 -33.5 -71.5 -48.5
s-35.667 -29.667 -48 -44s-21.5 -29 -27.5 -44s-9 -31.167 -9 -48.5v-39h325v-90h-441v103z" />
    <glyph glyph-name="three" unicode="3" horiz-adv-x="507" 
d="M198 -10c-25.333 0 -51.165 1.16895 -77.498 3.50195s-49.833 5.83301 -70.5 10.5v85h5c7.33301 -2 16.166 -3.83301 26.499 -5.5s21.333 -3.16699 33 -4.5s23.334 -2.33301 35.001 -3s22.5 -1 32.5 -1c58 0 100.5 10.833 127.5 32.5s40.5 54.5 40.5 98.5
c0 45.333 -13.5 78.666 -40.5 99.999s-71.5 32 -133.5 32h-52v80h51c54 0 93.333 10.167 118 30.5s37 51.5 37 93.5s-11.333 72.833 -34 92.5s-59 29.5 -109 29.5c-16 0 -35.333 -1.33301 -58 -4s-46.667 -6 -72 -10h-6l-3 84c22.667 5.33301 47.667 9.33301 75 12
s52.666 4 75.999 4c79.333 0 139.5 -16.333 180.5 -49s61.5 -81 61.5 -145c0 -44 -10.5 -80.833 -31.5 -110.5s-50.833 -50.167 -89.5 -61.5v-5c45.333 -9.33301 80.166 -29.666 104.499 -60.999s36.5 -71.333 36.5 -120c0 -66.667 -22.5 -117.834 -67.5 -153.501
s-110.167 -53.834 -195.5 -54.501z" />
    <glyph glyph-name="four" unicode="4" horiz-adv-x="585" 
d="M19 231v6l245 513h5l102 -12l4 -9l-242 -472v-5h223l29 237h77v-237h98v-84h-98v-168h-108v168h-317z" />
    <glyph glyph-name="five" unicode="5" horiz-adv-x="508" 
d="M197 -12c-23.333 0 -47.3301 1.33105 -71.9971 3.99805s-50.334 6.66699 -77.001 12v86h23c40.667 -8.66699 79 -13 115 -13c57.333 0 100.166 11.333 128.499 34s42.5 59.334 42.5 110.001c0 24.667 -4 45.334 -12 62.001s-20.833 30.167 -38.5 40.5
s-40.334 17.833 -68.001 22.5s-61.167 7 -100.5 7l-70 1l-8 8l28 378h346v-90h-263l-14 -213c54 -0.666992 100.667 -5 140 -13s71.833 -20.5 97.5 -37.5s44.5 -39.333 56.5 -67s18 -61.5 18 -101.5s-6.5 -74.5 -19.5 -103.5s-31.5 -52.833 -55.5 -71.5
s-52.667 -32.5 -86 -41.5s-70.333 -13.5 -111 -13.5z" />
    <glyph glyph-name="six" unicode="6" horiz-adv-x="596" 
d="M311 -11c-86.667 0 -152.168 28.501 -196.501 85.501s-66.5 141.833 -66.5 254.5c0 136 28.5 240.333 85.5 313s140.5 109 250.5 109c20.667 0 41.834 -1.33301 63.501 -4s44.834 -7.33398 69.501 -14.001l-10 -85c-24 6 -45.333 10.333 -64 13s-37.334 4 -56.001 4
c-139.333 0 -216 -91 -230 -273c23.333 21.333 50.5 37.833 81.5 49.5s62.5 17.5 94.5 17.5c34.667 0 66.167 -5 94.5 -15s52.5 -24.5 72.5 -43.5s35.333 -42 46 -69s16 -57.5 16 -91.5c0 -38 -5.83301 -72.5 -17.5 -103.5s-28.5 -57.5 -50.5 -79.5
s-48.5 -38.833 -79.5 -50.5s-65.5 -17.5 -103.5 -17.5zM309.999 382.001c-27.333 0 -55.167 -6.33203 -83.5 -18.999s-52.166 -29 -71.499 -49c1.33301 -82.667 14.666 -143.334 39.999 -182.001s64 -58 116 -58c44 0 78.5 14.5 103.5 43.5s37.5 69.5 37.5 121.5
c0 46 -12.167 81.333 -36.5 106s-59.5 37 -105.5 37z" />
    <glyph glyph-name="seven" unicode="7" horiz-adv-x="469" 
d="M185 -16l-90 16v15l245 631h-313l-5 83l10 11h404l17 -59v-24l-244 -658z" />
    <glyph glyph-name="eight" unicode="8" horiz-adv-x="592" 
d="M297 -5c-82 0 -144.332 16.5 -186.999 49.5s-64 80.5 -64 142.5c0 26.667 3.5 50.167 10.5 70.5s16.167 38.333 27.5 54s24.666 29.334 39.999 41.001s31 21.5 47 29.5c-30 16.667 -54.667 38.667 -74 66s-29 64.333 -29 111c0 30 5.5 56.833 16.5 80.5
s26.667 43.5 47 59.5s44.833 28.333 73.5 37s60.334 13 95.001 13c69.333 0 124.166 -16.5 164.499 -49.5s60.5 -80.167 60.5 -141.5c0 -23.333 -2.66699 -44 -8 -62s-12.666 -34.167 -21.999 -48.5s-20.5 -26.833 -33.5 -37.5s-26.833 -20.334 -41.5 -29.001
c18 -8 34.833 -17.333 50.5 -28s29.167 -23.334 40.5 -38.001s20.166 -31.667 26.499 -51s9.5 -41.666 9.5 -66.999c0 -64 -21.5 -113.667 -64.5 -149s-104.833 -53 -185.5 -53zM251.001 349c-12 -6 -24.167 -13.335 -36.5 -22.002s-23.5 -19 -33.5 -31s-18 -26 -24 -42
s-9 -34.667 -9 -56c0 -41.333 13.5 -72.666 40.5 -93.999s63.167 -32 108.5 -32c44.667 0 80.334 10.333 107.001 31s40 50 40 88c0 22.667 -4 41.834 -12 57.501s-19.333 29.167 -34 40.5s-31.834 20.833 -51.501 28.5s-41.5 15.167 -65.5 22.5zM166.001 552.998
c0 -21.333 4.16602 -39.5 12.499 -54.5s19.833 -27.833 34.5 -38.5s32 -19.834 52 -27.501s41.667 -14.834 65 -21.501l7 -2c11.333 6.66699 22.333 14.334 33 23.001s20.334 18.834 29.001 30.501s15.5 25 20.5 40s7.5 32.167 7.5 51.5c0 38.667 -11.833 68 -35.5 88
s-55.167 30 -94.5 30s-71 -10 -95 -30s-36 -49.667 -36 -89z" />
    <glyph glyph-name="nine" unicode="9" horiz-adv-x="597" 
d="M286 751c86.667 0 152.168 -28.501 196.501 -85.501s66.5 -141.833 66.5 -254.5c0 -136 -28.5 -240.333 -85.5 -313s-140.5 -109 -250.5 -109c-20.667 0 -41.834 1.33301 -63.501 4s-44.834 7.33398 -69.501 14.001l10 85c24 -6 45.333 -10.333 64 -13
s37.334 -4 56.001 -4c139.333 0 216 91 230 273c-23.333 -21.333 -50.5 -37.833 -81.5 -49.5s-62.5 -17.5 -94.5 -17.5c-35.333 0 -67 5 -95 15s-52 24.5 -72 43.5s-35.333 42 -46 69s-16 57.5 -16 91.5c0 38 5.83301 72.5 17.5 103.5s28.5 57.5 50.5 79.5
s48.5 38.833 79.5 50.5s65.5 17.5 103.5 17.5zM287.001 357.999c27.333 0 55.167 6.33203 83.5 18.999s52.166 29 71.499 49c-1.33301 82.667 -14.666 143.334 -39.999 182.001s-64 58 -116 58c-44 0 -78.5 -14.5 -103.5 -43.5s-37.5 -69.5 -37.5 -121.5
c0 -46 12.167 -81.333 36.5 -106s59.5 -37 105.5 -37z" />
    <glyph glyph-name="colon" unicode=":" horiz-adv-x="245" 
d="M122 -4c-42.667 0 -64 20.666 -64 61.999c0 42 21.333 63 64 63c21.333 0 37.833 -5.16699 49.5 -15.5s17.5 -26.166 17.5 -47.499c0 -41.333 -22.333 -62 -67 -62zM122 419.999c-42.667 0 -64 20.666 -64 61.999c0 42 21.333 63 64 63
c21.333 0 37.833 -5.16699 49.5 -15.5s17.5 -26.166 17.5 -47.499c0 -41.333 -22.333 -62 -67 -62z" />
    <glyph glyph-name="semicolon" unicode=";" horiz-adv-x="266" 
d="M43 -145l44 264h110l-73 -274zM138 420c-42.667 0 -64 20.666 -64 61.999c0 42 21.333 63 64 63c21.333 0 37.833 -5.16699 49.5 -15.5s17.5 -26.166 17.5 -47.499c0 -41.333 -22.333 -62 -67 -62z" />
    <glyph glyph-name="less" unicode="&#x3c;" horiz-adv-x="518" 
d="M40 330v71l414 182v-83l-309 -135l307 -135v-82z" />
    <glyph glyph-name="equal" unicode="=" horiz-adv-x="523" 
d="M63 285h397v-78h-397v78zM63 500h397v-77h-397v77z" />
    <glyph glyph-name="greater" unicode="&#x3e;" horiz-adv-x="518" 
d="M66 230l307 135l-309 135v83l414 -182v-71l-412 -182v82z" />
    <glyph glyph-name="question" unicode="?" horiz-adv-x="441" 
d="M138 209l-8.00195 187.003c21.333 4.66699 42.666 10.667 63.999 18s40.5 16.5 57.5 27.5s30.667 24.833 41 41.5s15.5 37 15.5 61c0 22.667 -3.66699 41.5 -11 56.5s-17.166 27.167 -29.499 36.5s-26.666 16 -42.999 20s-33.166 6 -50.499 6
c-22.667 0 -45.834 -2 -69.501 -6s-45.5 -9 -65.5 -15l-9 82c25.333 7.33301 51.5 13.333 78.5 18s54.833 7 83.5 7c30 0 58.167 -3.66699 84.5 -11s49.333 -18.833 69 -34.5s35.167 -35.834 46.5 -60.501s17 -54.667 17 -90c0 -32.667 -5.5 -60.834 -16.5 -84.501
s-25.667 -43.834 -44 -60.501s-39.166 -30 -62.499 -40s-47 -18 -71 -24l-3 -135v-17h-74v17zM176.998 -2.99707c-40.667 0 -61 19.667 -61 59c0 18.667 5.33301 33.167 16 43.5s25.667 15.5 45 15.5s34.333 -5.16699 45 -15.5s16 -24.833 16 -43.5
c0 -19.333 -5.33301 -34 -16 -44s-25.667 -15 -45 -15z" />
    <glyph glyph-name="at" unicode="@" horiz-adv-x="854" 
d="M415 -135c-52 0 -100.5 7.83496 -145.5 23.502s-84.333 39.667 -118 72s-60 73.5 -79 123.5s-28.5 109 -28.5 177c0 66 9.5 124.667 28.5 176s45.667 94.666 80 129.999s76 62.166 125 80.499s103.5 27.5 163.5 27.5c60.667 0 113.667 -8.5 159 -25.5s83 -41.5 113 -73.5
s52.5 -70.833 67.5 -116.5s22.5 -96.834 22.5 -153.501c0 -79.333 -15.167 -141.5 -45.5 -186.5s-74.833 -67.5 -133.5 -67.5c-32 0 -57.167 7.66699 -75.5 23s-29.166 37 -32.499 65h-4c-18.667 -28 -42.5 -48.833 -71.5 -62.5s-57.5 -20.5 -85.5 -20.5
c-22.667 0 -42.334 4.33301 -59.001 13s-30.667 20.834 -42 36.501s-19.833 34.167 -25.5 55.5s-8.5 44.666 -8.5 69.999c0 38 5.66699 72.833 17 104.5s27.5 59.167 48.5 82.5s46.333 41.5 76 54.5s62.834 19.5 99.501 19.5c43.333 0 93.333 -11.667 150 -35l-37 -209
l-6 -35.5c-2 -11.667 -3 -22.834 -3 -33.501c0 -20.667 4.5 -36.834 13.5 -48.501s24.833 -17.5 47.5 -17.5c34 0 60 16.833 78 50.5s27 80.834 27 141.501c0 94 -23.667 167.667 -71 221s-120.333 80 -219 80c-49.333 0 -94 -7.66699 -134 -23
s-74.333 -37.666 -103 -66.999s-50.667 -65.5 -66 -108.5s-23 -92.167 -23 -147.5c0 -57.333 7.66699 -106.666 23 -147.999s36.5 -75.5 63.5 -102.5s58.833 -46.833 95.5 -59.5s76 -19 118 -19c28 0 58.5 3 91.5 9s66.833 14.333 101.5 25l23 -63
c-38.667 -11.333 -76.334 -20.5 -113.001 -27.5s-71 -10.5 -103 -10.5zM368 119.002c14 0 28.498 2.83008 43.498 8.49707s29 14.334 42 26.001s24.5 26.334 34.5 44.001s17 38.834 21 63.501l27 158c-13.333 4 -26.166 7.16699 -38.499 9.5s-24.166 3.5 -35.499 3.5
c-26 0 -49.5 -5 -70.5 -15s-39 -24 -54 -42s-26.667 -39.167 -35 -63.5s-12.5 -50.833 -12.5 -79.5c0 -32 6 -58.833 18 -80.5s32 -32.5 60 -32.5z" />
    <glyph glyph-name="A" unicode="A" horiz-adv-x="656" 
d="M5 7l242 733h162l242 -733v-7h-105l-70 209h-297l-69 -209h-105v7zM450 298l-78 234l-40 126h-9l-40 -126l-77 -234h244z" />
    <glyph glyph-name="B" unicode="B" horiz-adv-x="641" 
d="M312 -10c-36.667 0 -75.167 1.16797 -115.5 3.50098s-79.5 6.16602 -117.5 11.499v730c46.667 4.66699 87.167 8.33398 121.5 11.001s67.5 4 99.5 4c97.333 0 168 -16.167 212 -48.5s66 -83.833 66 -154.5c0 -44 -10.667 -80.5 -32 -109.5s-51.333 -48.167 -90 -57.5v-4
c46.667 -8.66699 82.5 -28.334 107.5 -59.001s37.5 -70.667 37.5 -120c0 -138 -96.333 -207 -289 -207zM316 72.001c116.667 0.666992 174.998 44.667 174.998 132c0 46 -13.667 79.333 -41 100s-71.666 31 -132.999 31h-135v-255c26.667 -5.33301 71.334 -8 134.001 -8z
M311.998 413.001c56.667 0 96.834 9.66602 120.501 28.999s35.5 52.333 35.5 99c0 44.667 -12.5 76.834 -37.5 96.501s-66.167 29.5 -123.5 29.5c-24.667 0 -46.834 -0.5 -66.501 -1.5s-39.167 -3.16699 -58.5 -6.5v-246h130z" />
    <glyph glyph-name="C" unicode="C" horiz-adv-x="560" 
d="M377 -10c-112.667 0.666992 -196.164 31.666 -250.497 92.999s-81.5 156.666 -81.5 285.999c0 130.667 26.833 226.834 80.5 288.501s136.167 92.5 247.5 92.5c21.333 0 45 -1.33301 71 -4s53 -6.33398 81 -11.001v-91c-28 5.33301 -53.167 9 -75.5 11
s-43.166 3 -62.499 3c-41.333 0 -76.5 -5.16699 -105.5 -15.5s-52.667 -27 -71 -50s-31.833 -52.833 -40.5 -89.5s-13 -81.334 -13 -134.001c0 -51.333 4.33301 -95.166 13 -131.499s22.167 -66 40.5 -89s41.666 -39.833 69.999 -50.5s62.166 -16 101.499 -16
c9.33301 0 20.333 0.333008 33 1s25.5 1.83398 38.5 3.50098l38.5 5c12.667 1.66699 23.667 3.5 33 5.5v-89c-20.667 -5.33301 -44.334 -9.66602 -71.001 -12.999s-52.334 -5 -77.001 -5z" />
    <glyph glyph-name="D" unicode="D" horiz-adv-x="694" 
d="M256 -12c-33.333 0 -65.333 1.00098 -96 3.00098s-57.667 5 -81 9v737c38 4 74.833 7.16699 110.5 9.5s66.167 3.5 91.5 3.5c128 0 221.5 -30.5 280.5 -91.5s88.5 -157.5 88.5 -289.5c0 -67.333 -7.5 -125 -22.5 -173s-38.5 -87.333 -70.5 -118
s-72.833 -53.334 -122.5 -68.001s-109.167 -22 -178.5 -22zM291 78.001c43.333 0 80.5 5.50098 111.5 16.501s56.5 28.167 76.5 51.5s34.833 53.5 44.5 90.5s14.5 81.5 14.5 133.5s-4.5 96.167 -13.5 132.5s-23.333 66.166 -43 89.499s-45 40.333 -76 51
s-68.167 16 -111.5 16c-16 0 -33.5 -0.5 -52.5 -1.5s-37.167 -2.83301 -54.5 -5.5v-567c20 -2.66699 38 -4.5 54 -5.5s32.667 -1.5 50 -1.5z" />
    <glyph glyph-name="E" unicode="E" horiz-adv-x="591" 
d="M79 740h461v-90h-352v-231h322v-90h-322v-239h361v-90h-470v740z" />
    <glyph glyph-name="F" unicode="F" 
d="M79 740h453v-90h-344v-241h313v-90h-313v-319h-109v740z" />
    <glyph glyph-name="G" unicode="G" horiz-adv-x="637" 
d="M381 -10c-114.667 0.666992 -199.33 31.999 -253.997 93.999s-82 157 -82 285c0 128.667 28.667 224.334 86 287.001s145.333 94 264 94c27.333 0 56.666 -1.83301 87.999 -5.5s61.666 -9.16699 90.999 -16.5v-90c-36 7.33301 -67.5 12.5 -94.5 15.5
s-52.167 4.5 -75.5 4.5c-44.667 0 -82.667 -5.33301 -114 -16s-56.833 -27.667 -76.5 -51s-34 -53.166 -43 -89.499s-13.5 -80.5 -13.5 -132.5c0 -51.333 4.33301 -95 13 -131s22.167 -65.667 40.5 -89s42 -40.333 71 -51s63.833 -16 104.5 -16c12 0 26.167 0.666992 42.5 2
s33.166 3 50.499 5v287h101v-359c-36 -8.66699 -71.167 -15.334 -105.5 -20.001s-65.5 -7 -93.5 -7z" />
    <glyph glyph-name="H" unicode="H" horiz-adv-x="733" 
d="M79 740h109v-316h358v316h108v-740h-108v334h-358v-334h-109v740z" />
    <glyph glyph-name="I" unicode="I" horiz-adv-x="266" 
d="M79 740h109v-740h-109v740z" />
    <glyph glyph-name="J" unicode="J" horiz-adv-x="266" 
d="M2 -159c15.333 33.333 28 63.833 38 91.5s18 54.667 24 81s10.333 53.5 13 81.5s4 59 4 93v552h109v-559c0 -33.333 -2 -64.833 -6 -94.5s-10.667 -59.167 -20 -88.5s-21.5 -59.5 -36.5 -90.5s-33.167 -64.5 -54.5 -100.5z" />
    <glyph glyph-name="K" unicode="K" horiz-adv-x="650" 
d="M79 740h109v-319h114l205 319h124l-218 -331l-37 -25v-7l40 -25l233 -352h-123l-218 331h-120v-331h-109v740z" />
    <glyph glyph-name="L" unicode="L" horiz-adv-x="503" 
d="M79 740h109v-651h302v-89h-411v740z" />
    <glyph glyph-name="M" unicode="M" horiz-adv-x="905" 
d="M79 740h150l172 -442l48 -141h7l48 141l172 442h151v-740h-101v600h-6l-64 -174l-156 -394h-96l-156 394l-64 174h-6v-600h-99v740z" />
    <glyph glyph-name="N" unicode="N" horiz-adv-x="747" 
d="M79 740h93l338 -482l53 -86h7v568h98v-740h-93l-338 480l-54 87h-7v-567h-97v740z" />
    <glyph glyph-name="O" unicode="O" horiz-adv-x="716" 
d="M358 -10c-102.667 0 -180.5 31.667 -233.5 95s-79.5 158 -79.5 284c0 126.667 26.5 221.834 79.5 285.501s130.833 95.5 233.5 95.5s180.5 -31.833 233.5 -95.5s79.5 -158.834 79.5 -285.501c0 -126 -26.5 -220.667 -79.5 -284s-130.833 -95 -233.5 -95zM358 81
c70 0 121.167 22.833 153.5 68.5s48.5 118.834 48.5 219.501s-16.5 174.167 -49.5 220.5s-83.833 69.5 -152.5 69.5c-69.333 0 -120.333 -23 -153 -69s-49 -119.667 -49 -221c0 -100.667 16.167 -173.834 48.5 -219.501s83.5 -68.5 153.5 -68.5z" />
    <glyph glyph-name="P" unicode="P" horiz-adv-x="622" 
d="M79 735c64.667 10 126.334 15 185.001 15c114.667 0 198.167 -20.5 250.5 -61.5s78.5 -106.5 78.5 -196.5c0 -89.333 -26.333 -154.833 -79 -196.5s-135.334 -62.5 -248.001 -62.5h-38c-12.667 0 -26 0.666992 -40 2v-235h-109v735zM282 321
c36 0 66.666 3.16504 91.999 9.49805s46 16.333 62 30s27.667 31.334 35 53.001s11 47.834 11 78.501c0 60 -15.167 103.167 -45.5 129.5s-81.166 39.5 -152.499 39.5c-15.333 0 -31.833 -0.666992 -49.5 -2s-33.167 -3 -46.5 -5v-325c11.333 -2 26 -3.83301 44 -5.5
s34.667 -2.5 50 -2.5z" />
    <glyph glyph-name="Q" unicode="Q" horiz-adv-x="714" 
d="M632 -126c-111.333 22 -204.666 45.834 -279.999 71.501s-135.833 57.334 -181.5 95.001s-78.334 82.834 -98.001 135.501s-29.5 117 -29.5 193c0 125.333 26.5 220.166 79.5 284.499s130.833 96.5 233.5 96.5c103.333 0 181.5 -32.167 234.5 -96.5
s79.5 -159.166 79.5 -284.499c0 -112 -24 -197.833 -72 -257.5s-117.667 -90.834 -209 -93.501v-8c26 -6.66699 50.167 -12.334 72.5 -17.001s44.333 -8.83398 66 -12.501s43.5 -6.66699 65.5 -9s46 -4.5 72 -6.5zM356 80.001c70 0 121.5 23.167 154.5 69.5
s49.5 119.5 49.5 219.5c0 100.667 -16.5 174.334 -49.5 221.001s-84.5 70 -154.5 70c-69.333 0 -120.5 -23.333 -153.5 -70s-49.5 -120.334 -49.5 -221.001c0 -100 16.5 -173.167 49.5 -219.5s84.167 -69.5 153.5 -69.5z" />
    <glyph glyph-name="R" unicode="R" horiz-adv-x="639" 
d="M347 268c-24 -2 -49.334 -2.99902 -76.001 -2.99902c-10.667 0 -24 0.333008 -40 1s-30.333 1.66699 -43 3v-269h-109v735c62.667 10 124.334 15 185.001 15c114.667 0 198.167 -19.333 250.5 -58s78.5 -100.334 78.5 -185.001c0 -113.333 -49.667 -186.333 -149 -219
l171 -288h-119zM281.999 352.001c36 0 66.6689 2.83301 92.002 8.5s46 14.667 62 27s27.667 28.333 35 48s11 43.5 11 71.5c0 54.667 -15.333 94 -46 118s-81.334 36 -152.001 36c-14 0 -29.833 -0.666992 -47.5 -2s-33.834 -3 -48.501 -5v-295
c10.667 -2 24.5 -3.66699 41.5 -5s34.5 -2 52.5 -2z" />
    <glyph glyph-name="S" unicode="S" horiz-adv-x="558" 
d="M268 -12c-34 0 -71.666 2.99805 -112.999 8.99805s-80.333 14 -117 24l3 91c34.667 -9.33301 71.667 -17.166 111 -23.499s74.333 -9.5 105 -9.5c52 0 91.167 9.66699 117.5 29s39.5 47.333 39.5 84c0 19.333 -3.66699 36 -11 50s-17.833 26.333 -31.5 37
s-30 19.667 -49 27s-40.5 14.333 -64.5 21c-35.333 10 -66 21.167 -92 33.5s-47.667 27 -65 44s-30.333 37 -39 60s-13 50.167 -13 81.5c0 32 5.83301 60.667 17.5 86s28.5 47 50.5 65s48.5 31.833 79.5 41.5s65.833 14.5 104.5 14.5c28 0 57.333 -1.83301 88 -5.5
s65 -10.167 103 -19.5l-3 -90c-30.667 8 -61.834 14.333 -93.501 19s-60.167 7 -85.5 7c-46.667 0 -83.167 -10.333 -109.5 -31s-39.5 -49 -39.5 -85c0 -17.333 3 -32.333 9 -45s15.167 -24.167 27.5 -34.5s28.333 -19.666 48 -27.999s43.167 -16.833 70.5 -25.5
c32 -10 61 -20.833 87 -32.5s48 -25.667 66 -42s31.833 -36 41.5 -59s14.5 -50.5 14.5 -82.5c0 -68 -22.167 -120.167 -66.5 -156.5s-107.833 -54.5 -190.5 -54.5z" />
    <glyph glyph-name="T" unicode="T" horiz-adv-x="572" 
d="M231 649h-215v91h540v-91h-216v-649h-109v649z" />
    <glyph glyph-name="U" unicode="U" horiz-adv-x="726" 
d="M363 -10c-52 0 -96.5 6 -133.5 18s-67.167 30.5 -90.5 55.5s-40.333 56.833 -51 95.5s-16 84.667 -16 138v443h109v-442c0 -76.667 14.667 -131.834 44 -165.501s75.333 -50.5 138 -50.5s108.667 16.833 138 50.5s44 88.834 44 165.501v442h109v-443
c0 -53.333 -5.33301 -99.333 -16 -138s-27.667 -70.5 -51 -95.5s-53.5 -43.5 -90.5 -55.5s-81.5 -18 -133.5 -18z" />
    <glyph glyph-name="V" unicode="V" horiz-adv-x="656" 
d="M5 740h112l165 -493l42 -143h9l42 143l166 493h110l-249 -740h-147z" />
    <glyph glyph-name="W" unicode="W" horiz-adv-x="987" 
d="M15 740h116l114 -489l27 -130h8l31 130l128 489h112l124 -489l30 -130h9l28 130l117 489h116l-193 -740h-140l-120 460l-24 135h-7l-25 -135l-123 -460h-140z" />
    <glyph glyph-name="X" unicode="X" horiz-adv-x="651" 
d="M256 381l-241 359h124l171 -264l14 -26h6l14 26l172 264h121l-244 -361l259 -379h-123l-189 285l-13 24h-6l-12 -24l-186 -285h-123z" />
    <glyph glyph-name="Y" unicode="Y" horiz-adv-x="628" 
d="M260 246l-261 494h119l165 -327l26 -64h9l26 64l166 327h118l-259 -491v-249h-109v246z" />
    <glyph glyph-name="Z" unicode="Z" horiz-adv-x="568" 
d="M31 85l363 557v6h-351v92h482v-83l-364 -560v-6h376v-91h-506v85z" />
    <glyph glyph-name="bracketleft" unicode="[" horiz-adv-x="325" 
d="M79 868h218v-75h-131v-878h131v-75h-218v1028z" />
    <glyph glyph-name="backslash" unicode="\" horiz-adv-x="366" 
d="M29 740h91l217 -860h-91z" />
    <glyph glyph-name="bracketright" unicode="]" horiz-adv-x="325" 
d="M28 -160v75h132v878h-132v75h217v-1028h-217z" />
    <glyph glyph-name="asciicircum" unicode="^" horiz-adv-x="454" 
d="M181 789h91l142 -308h-78l-107 234h-4l-107 -234h-78z" />
    <glyph glyph-name="underscore" unicode="_" horiz-adv-x="572" 
d="M46 -59h480v-83h-480v83z" />
    <glyph glyph-name="grave" unicode="`" horiz-adv-x="260" 
d="M132 612l-104 193h113l69 -183z" />
    <glyph glyph-name="a" unicode="a" horiz-adv-x="520" 
d="M176 -5c-46 0 -81.335 12.833 -106.002 38.5s-37 61.5 -37 107.5c0 52 16.167 91.667 48.5 119s82.833 43.666 151.5 48.999l117 9v33c0 22 -1.83301 40.333 -5.5 55s-10 26.5 -19 35.5s-21.333 15.333 -37 19s-35.167 5.5 -58.5 5.5c-20.667 0 -44.667 -1.66699 -72 -5
s-54.333 -7.66602 -81 -12.999l-8 80c63.333 12.667 123.333 19 180 19c71.333 0 123.833 -14.167 157.5 -42.5s50.5 -72.833 50.5 -133.5v-371h-88l-10 67h-7c-27.333 -22 -55.666 -39.5 -84.999 -52.5s-59.666 -19.5 -90.999 -19.5zM216.998 75
c21.333 0 43.833 5.5 67.5 16.5s45.5 23.167 65.5 36.5v125l-88 -8c-44.667 -4.66699 -76 -14 -94 -28s-27 -36 -27 -66c0 -50.667 25.333 -76 76 -76z" />
    <glyph glyph-name="b" unicode="b" horiz-adv-x="579" 
d="M273 -11c-30 0 -61.502 2.16895 -94.502 6.50195s-70.5 11.5 -112.5 21.5v791h107v-326c36.667 44.667 89.334 67 158.001 67s120.334 -22 155.001 -66s52 -111.667 52 -203c0 -44.667 -5.5 -84.834 -16.5 -120.501s-27.667 -66 -50 -91s-50 -44.333 -83 -58
s-71.5 -20.834 -115.5 -21.501zM273.998 67.002c53.333 0 92.502 15.5 117.502 46.5s37.5 83.5 37.5 157.5c0 70.667 -10.167 121 -30.5 151s-52.833 45 -97.5 45c-17.333 0 -33.833 -2.5 -49.5 -7.5s-29.334 -12.5 -41.001 -22.5s-20.834 -22.5 -27.501 -37.5
s-10 -32.5 -10 -52.5v-270c14 -3.33301 29.667 -5.83301 47 -7.5s35.333 -2.5 54 -2.5z" />
    <glyph glyph-name="c" unicode="c" horiz-adv-x="456" 
d="M293 -9c-84.667 0 -147.834 22.832 -189.501 68.499s-62.5 115.834 -62.5 210.501c0 186 84 279 252 279c20 0 40.833 -1.16699 62.5 -3.5s42.167 -5.83301 61.5 -10.5v-88c-38.667 8.66699 -76.334 13 -113.001 13c-54 0 -93.333 -15.167 -118 -45.5
s-37 -78.5 -37 -144.5c0 -66.667 12 -115 36 -145s63 -45 117 -45c20.667 0 39.834 0.833008 57.501 2.5s36.834 4.83398 57.501 9.50098v-86c-16 -4.66699 -35.333 -8.33398 -58 -11.001s-44.667 -4 -66 -4z" />
    <glyph glyph-name="d" unicode="d" horiz-adv-x="580" 
d="M249 -10c-68.667 0 -120.5 22.1689 -155.5 66.502s-52.5 113.166 -52.5 206.499c0 95.333 23.333 167 70 215s111 72 193 72c18 0 35.333 -0.833008 52 -2.5s33.667 -3.83398 51 -6.50098v267h106v-808h-94l-9 62h-5c-36 -48 -88 -72 -156 -72zM279 72.002
c17.333 0 33.8311 2.66895 49.498 8.00195s29.334 13.166 41.001 23.499s20.834 23.166 27.501 38.499s10 33.333 10 54v265c-16.667 3.33301 -33.667 5.83301 -51 7.5s-35.666 2.5 -54.999 2.5c-51.333 0 -89.333 -15.333 -114 -46s-37 -82 -37 -154
c0 -71.333 10.167 -122.333 30.5 -153s53.166 -46 98.499 -46z" />
    <glyph glyph-name="e" unicode="e" horiz-adv-x="526" 
d="M287 -9c-80.667 0 -141.668 23.001 -183.001 69.001s-62 113.667 -62 203c0 93.333 20.5 164.333 61.5 213s100.833 73 179.5 73c135.333 0 203 -80.333 203 -241c0 -16 -0.5 -29.833 -1.5 -41.5s-2.5 -22.5 -4.5 -32.5h-331c3.33301 -56.667 16.5 -97.334 39.5 -122.001
s59.167 -37 108.5 -37c24.667 0 51.334 2.33301 80.001 7s56.667 11.667 84 21l5 -81c-25.333 -9.33301 -54 -16.833 -86 -22.5s-63 -8.5 -93 -8.5zM279.999 469.001c-41.333 0 -72.668 -13.3311 -94.001 -39.998s-33.666 -68.334 -36.999 -125.001h240
c-1.33301 59.333 -10.333 101.666 -27 126.999s-44 38 -82 38z" />
    <glyph glyph-name="f" unicode="f" horiz-adv-x="367" 
d="M117 449l-100.999 0.000976562v91h102v29c0 46 4.16699 84.167 12.5 114.5s22.166 54.666 41.499 72.999s45.333 31.833 78 40.5s73.667 14 123 16l5 -80c-30.667 -2 -56 -5.66699 -76 -11s-35.667 -13.5 -47 -24.5s-19.333 -25.667 -24 -44s-7 -41.5 -7 -69.5v-44h130
v-91h-130v-449h-107v449z" />
    <glyph glyph-name="g" unicode="g" horiz-adv-x="580" 
d="M255 -220c-30 0 -60.333 2 -91 6s-58.334 9.66699 -83.001 17l7 82c24.667 -6.66699 50 -12 76 -16s51.667 -6 77 -6c26 0 49.5 3 70.5 9s39 16 54 30s26.5 32.5 34.5 55.5s12 51.167 12 84.5v34h-6c-34 -48 -85.667 -72 -155 -72s-121.666 21.333 -156.999 64
s-53 108.667 -53 198c0 94 23.5 164.833 70.5 212.5s111.167 71.5 192.5 71.5c30.667 0 62.667 -2.33301 96 -7s71.333 -12.667 114 -24v-459c0 -52 -6.33301 -95.833 -19 -131.5s-30.5 -64.5 -53.5 -86.5s-50.333 -37.833 -82 -47.5s-66.5 -14.5 -104.5 -14.5zM279 83
c18 0 34.665 2.66797 49.998 8.00098s28.833 13.166 40.5 23.499s20.834 23 27.501 38s10 32.5 10 52.5v256c-16.667 3.33301 -33.5 5.83301 -50.5 7.5s-35.167 2.5 -54.5 2.5c-52 0 -90.333 -15 -115 -45s-37 -80.667 -37 -152c0 -68 10.333 -116.833 31 -146.5
s53.334 -44.5 98.001 -44.5z" />
    <glyph glyph-name="h" unicode="h" horiz-adv-x="579" 
d="M67 808l106.999 0.000976562v-327c44.667 23.333 82.834 40.666 114.501 51.999s61.834 17 90.501 17c90.667 0 136 -49 136 -147v-403h-106v369c0 32.667 -6 56 -18 70s-30.667 21 -56 21c-21.333 0 -45.833 -4.5 -73.5 -13.5s-56.834 -21.5 -87.501 -37.5v-409h-107
v808z" />
    <glyph glyph-name="i" unicode="i" horiz-adv-x="242" 
d="M121 644c-22 0 -38 5 -48 15s-15 25.667 -15 47s5 37 15 47s26 15 48 15c42.667 0 64 -20.667 64 -62s-21.333 -62 -64 -62zM68 540h106v-540h-106v540z" />
    <glyph glyph-name="j" unicode="j" horiz-adv-x="240" 
d="M119 644c-22 0 -38 5 -48 15s-15 25.667 -15 47s5 37 15 47s26 15 48 15c42.667 0 64 -20.667 64 -62s-21.333 -62 -64 -62zM7 -197c10.667 23.333 19.833 47.001 27.5 71.001s14 49 19 75s8.66699 53.667 11 83s3.5 61 3.5 95v33v71.5v92v94
c0 29.667 -0.166992 55.667 -0.5 78s-0.5 37.166 -0.5 44.499h107v-457c0 -52 -8.16699 -104.5 -24.5 -157.5s-38.5 -101.5 -66.5 -145.5z" />
    <glyph glyph-name="k" unicode="k" horiz-adv-x="536" 
d="M67 808h107v-493h74l157 225h118l-183 -253l-19 -8v-3l20 -10l199 -266h-118l-175 240h-73v-240h-107v808z" />
    <glyph glyph-name="l" unicode="l" horiz-adv-x="244" 
d="M69 808h107v-808h-107v808z" />
    <glyph glyph-name="m" unicode="m" horiz-adv-x="869" 
d="M67 540h88.001l7 -61h5c39.333 24.667 73.333 42.667 102 54s57 17 85 17c62 0 102.667 -24 122 -72h5c39.333 25.333 73.666 43.666 102.999 54.999s58 17 86 17c44 0 77.5 -12 100.5 -36s34.5 -61 34.5 -111v-403h-105v368c0 32.667 -6.16699 56 -18.5 70
s-31.166 21 -56.499 21c-18 0 -38.667 -4.16699 -62 -12.5s-48 -20.166 -74 -35.499v-411h-105v368c0 32.667 -6.16699 56 -18.5 70s-31.166 21 -56.499 21c-18.667 0 -39.834 -4.33301 -63.501 -13s-47.834 -20.667 -72.501 -36v-410h-106v540z" />
    <glyph glyph-name="n" unicode="n" horiz-adv-x="579" 
d="M67 540l89.999 -0.000976562l7 -61h5c23.333 12.667 44.833 23.5 64.5 32.5s37.834 16.333 54.501 22s32.5 9.83398 47.5 12.501s29.833 4 44.5 4c44 0 77.5 -12 100.5 -36s34.5 -61 34.5 -111v-403h-106v369c0 33.333 -6 56.833 -18 70.5s-30.667 20.5 -56 20.5
c-22 0 -46.833 -4.5 -74.5 -13.5s-56.5 -21.5 -86.5 -37.5v-409h-107v540z" />
    <glyph glyph-name="o" unicode="o" horiz-adv-x="573" 
d="M287 -10c-80.667 0 -141.834 23.833 -183.501 71.5s-62.5 117.167 -62.5 208.5s20.833 160.833 62.5 208.5s102.834 71.5 183.501 71.5c80 0 140.833 -23.833 182.5 -71.5s62.5 -117.167 62.5 -208.5s-20.833 -160.833 -62.5 -208.5s-102.5 -71.5 -182.5 -71.5zM287 75
c48.667 0 83.833 15.167 105.5 45.5s32.5 80.166 32.5 149.499s-11 119 -33 149s-57 45 -105 45c-48.667 0 -83.834 -15 -105.501 -45s-32.5 -79.667 -32.5 -149s10.833 -119.166 32.5 -149.499s56.834 -45.5 105.501 -45.5z" />
    <glyph glyph-name="p" unicode="p" horiz-adv-x="581" 
d="M67 540l93.9971 -0.000976562l8 -61h6c36 47.333 88.333 71 157 71s120.334 -22.167 155.001 -66.5s52 -112.166 52 -203.499c0 -90 -22.5 -160.833 -67.5 -212.5s-110.5 -77.5 -196.5 -77.5c-17.333 0 -34.666 0.833008 -51.999 2.5s-33.666 3.5 -48.999 5.5v-218h-107
v760zM276.997 67.999c52.667 0 91.499 15.668 116.499 47.001s37.5 83.666 37.5 156.999c0 70.667 -10.167 121 -30.5 151s-53.166 45 -98.499 45c-36 0 -66.333 -10.5 -91 -31.5s-37 -51.833 -37 -92.5v-265c14.667 -3.33301 31 -6 49 -8s36 -3 54 -3z" />
    <glyph glyph-name="q" unicode="q" horiz-adv-x="579" 
d="M409 62c-38 -48 -91.333 -72 -160 -72c-138.667 0 -208 91 -208 273c0 94 23 165.333 69 214s111.667 73 197 73c36 0 72.167 -2.16699 108.5 -6.5s68.833 -9.5 97.5 -15.5v-748h-104v282zM279 72c37.333 0 67.833 11 91.5 33s35.5 53 35.5 93v263
c-37.333 6.66699 -72 10 -104 10c-54 0 -93 -15.333 -117 -46s-36 -81.667 -36 -153s10 -122.5 30 -153.5s53.333 -46.5 100 -46.5z" />
    <glyph glyph-name="r" unicode="r" horiz-adv-x="383" 
d="M67 540h90l7 -73h4c26 17.333 54.333 33.666 85 48.999s60 26.333 88 33h30v-99h-39c-28 -4 -56 -11.167 -84 -21.5s-52.667 -22.166 -74 -35.499v-393h-107v540z" />
    <glyph glyph-name="s" unicode="s" horiz-adv-x="455" 
d="M217 -11c-24 0 -50.1689 2 -78.502 6s-60.833 10 -97.5 18v82c30 -8 59.5 -14.333 88.5 -19s56.5 -7 82.5 -7c34.667 0 60.834 6.66699 78.501 20s26.5 32.333 26.5 57c0 26 -8.5 45 -25.5 57s-41.167 21 -72.5 27c-19.333 3.33301 -39.166 7.5 -59.499 12.5
s-38.833 13 -55.5 24s-30.5 26.333 -41.5 46s-16.5 46.167 -16.5 79.5c0 50 17.333 89.167 52 117.5s82.334 42.5 143.001 42.5c22.667 0 45.667 -1.33301 69 -4s53 -7.66699 89 -15l-3 -84c-32.667 7.33301 -60 12.5 -82 15.5s-42 4.5 -60 4.5
c-34.667 0 -61 -6.5 -79 -19.5s-27 -31.167 -27 -54.5c0 -14 2.66699 -25.667 8 -35s12.833 -16.833 22.5 -22.5s21 -10.334 34 -14.001s27.5 -7.16699 43.5 -10.5c23.333 -4.66699 45 -10.5 65 -17.5s37.167 -16.5 51.5 -28.5s25.666 -27.167 33.999 -45.5
s12.5 -41.166 12.5 -68.499c0 -52 -17.5 -92.333 -52.5 -121s-84.833 -43 -149.5 -43z" />
    <glyph glyph-name="t" unicode="t" horiz-adv-x="389" 
d="M276 -8c-106 0 -159 51.333 -159 154v302h-102v92h108l15 141l85 11v-152h145v-92h-144v-279c0 -32 6.66699 -55.5 20 -70.5s34.333 -22.5 63 -22.5c9.33301 0 19.333 0.833008 30 2.5s21.667 4.16699 33 7.5v-83c-30.667 -7.33301 -62 -11 -94 -11z" />
    <glyph glyph-name="u" unicode="u" horiz-adv-x="579" 
d="M201 -10c-46 0 -80.5 12.501 -103.5 37.501s-34.5 61.5 -34.5 109.5v403h107v-371c0 -32.667 5.5 -55.667 16.5 -69s29.833 -20 56.5 -20c25.333 0 51.5 5.16699 78.5 15.5s54.833 23.166 83.5 38.499v406h107v-540h-90l-7 62h-4l-63 -32.5c-18 -9 -35 -16.5 -51 -22.5
s-31.5 -10.333 -46.5 -13s-31.5 -4 -49.5 -4z" />
    <glyph glyph-name="v" unicode="v" horiz-adv-x="544" 
d="M14 529v11h112l120 -369l22 -82h9l21 82l123 369h110v-11l-192 -529h-135z" />
    <glyph glyph-name="w" unicode="w" horiz-adv-x="771" 
d="M20 535v5h103l81 -355l15 -76h8l17 76l91 355h101l93 -355l18 -76h7l15 76l79 355h103v-5l-136 -535h-120l-93 345l-13 65h-8l-12 -65l-91 -345h-120z" />
    <glyph glyph-name="x" unicode="x" horiz-adv-x="541" 
d="M10 12l187 268l-178 252v8h114l108 -161l27 -43h7l26 43l107 161h114v-8l-178 -257l187 -263v-12h-113l-116 175l-30 46h-6l-29 -46l-114 -175h-113v12z" />
    <glyph glyph-name="y" unicode="y" horiz-adv-x="550" 
d="M145 -202l-1 9l76 197l-209 525v11h113l126 -349l21 -77h7l22 77l129 349h110v-11l-293 -749z" />
    <glyph glyph-name="z" unicode="z" horiz-adv-x="477" 
d="M34 71l268 378v6h-259v85h390v-69l-264 -379v-6h274v-86h-409v71z" />
    <glyph glyph-name="braceleft" unicode="{" horiz-adv-x="347" 
d="M28 398c48 0 72 33.667 72 101v250c0 44 8.16699 74.833 24.5 92.5s44.5 26.5 84.5 26.5c6 0 14.5 -0.166992 25.5 -0.5s22 -0.833008 33 -1.5s21.167 -1.16699 30.5 -1.5s15.333 -0.833008 18 -1.5v-70h-79c-17.333 0 -29.833 -3.5 -37.5 -10.5
s-11.5 -18.833 -11.5 -35.5v-270c0 -30.667 -6.5 -57.167 -19.5 -79.5s-30.833 -36.166 -53.5 -41.499c22.667 -5.33301 40.5 -19 53.5 -41s19.5 -48 19.5 -78v-272c0 -17.333 3.83301 -29.5 11.5 -36.5s20.167 -10.5 37.5 -10.5h79v-70
c-2.66699 -0.666992 -8.5 -1.33398 -17.5 -2.00098s-19 -1.16699 -30 -1.5l-33 -1c-11 -0.333008 -19.833 -0.5 -26.5 -0.5c-40 0 -68.167 9 -84.5 27s-24.5 49 -24.5 93v252c0 66.667 -24 100 -72 100v83z" />
    <glyph glyph-name="bar" unicode="|" horiz-adv-x="260" 
d="M180 808v-1028h-101v1028h101z" />
    <glyph glyph-name="braceright" unicode="}" horiz-adv-x="347" 
d="M320 315c-48 0 -72 -33.333 -72 -100v-252c0 -44 -8.16699 -75 -24.5 -93s-44.833 -27 -85.5 -27c-6 0 -14.5 0.166992 -25.5 0.5l-33 1c-11 0.333008 -21 0.833008 -30 1.5s-14.833 1.33398 -17.5 2.00098v70h78c18.667 0 31.667 3.5 39 10.5s11 19.167 11 36.5v272
c0 30 6.5 56 19.5 78s30.833 35.667 53.5 41c-22.667 5.33301 -40.5 19.166 -53.5 41.499s-19.5 48.833 -19.5 79.5v270c0 16.667 -3.66699 28.5 -11 35.5s-20.333 10.5 -39 10.5h-78v70c2.66699 0.666992 8.5 1.16699 17.5 1.5s19 0.833008 30 1.5s22 1.16699 33 1.5
s19.833 0.5 26.5 0.5c40 0 68.167 -8.83301 84.5 -26.5s24.5 -48.5 24.5 -92.5v-250c0 -67.333 24 -101 72 -101v-83z" />
    <glyph glyph-name="asciitilde" unicode="~" horiz-adv-x="616" 
d="M52 280c18 21.333 34.167 39 48.5 53s27.666 25.167 39.999 33.5s24.5 14.166 36.5 17.499s25 5 39 5c19.333 0 36.666 -3.83301 51.999 -11.5s29.833 -16.334 43.5 -26.001s27.167 -18.334 40.5 -26.001s28 -11.5 44 -11.5c19.333 0 38.5 6.33301 57.5 19
s34.167 29.667 45.5 51l65 -37c-8 -14 -17.667 -28 -29 -42s-23.666 -26.667 -36.999 -38s-27.833 -20.5 -43.5 -27.5s-32.167 -10.5 -49.5 -10.5c-20.667 0 -39 3.83301 -55 11.5s-31 16.334 -45 26.001s-27.333 18.334 -40 26.001s-26 11.5 -40 11.5
c-18.667 0 -36.667 -5.66699 -54 -17s-36.666 -29.666 -57.999 -54.999z" />
    <glyph glyph-name="uni00A0" unicode="&#xa0;" horiz-adv-x="215" 
 />
    <glyph glyph-name="exclamdown" unicode="&#xa1;" horiz-adv-x="240" 
d="M121 541c19.333 0 34.5 -5.16699 45.5 -15.5s16.5 -24.833 16.5 -43.5s-5.5 -33.167 -16.5 -43.5s-26.167 -15.5 -45.5 -15.5s-34.333 5.16699 -45 15.5s-16 24.833 -16 43.5s5.33301 33.167 16 43.5s25.667 15.5 45 15.5zM86 339h67v-12l20 -517v-10h-108v10l21 517v12z
" />
    <glyph glyph-name="cent" unicode="&#xa2;" horiz-adv-x="472" 
d="M250 -7c-139.333 14.667 -209 106.997 -209 276.997c0 168.667 69.667 260.667 209 276v114h72v-112c16 -1.33301 32 -3 48 -5s31.667 -4.66699 47 -8v-88c-38.667 8.66699 -76.334 13 -113.001 13c-54 0 -93.333 -15.167 -118 -45.5s-37 -78.5 -37 -144.5
c0 -66.667 12 -115 36 -145s63 -45 117 -45c20.667 0 39.834 0.833008 57.501 2.5s36.834 4.83398 57.501 9.50098v-86c-12.667 -3.33301 -27.334 -6.16602 -44.001 -8.49902s-33.667 -4.16602 -51 -5.49902v-112h-72v113z" />
    <glyph glyph-name="sterling" unicode="&#xa3;" horiz-adv-x="617" 
d="M44 413l136.999 0.000976562v111c0 75.333 17.667 131.333 53 168s92 55 170 55c25.333 0 51.5 -2.33301 78.5 -7s57.5 -11.667 91.5 -21l-8 -88c-27.333 7.33301 -53.833 13 -79.5 17s-48.5 6 -68.5 6c-23.333 0 -43.166 -2.33301 -59.499 -7
s-29.5 -12.334 -39.5 -23.001s-17.333 -24.167 -22 -40.5s-7 -36.5 -7 -60.5v-110h196v-86h-196v-233h270v-94h-516v95h137v232h-137v86z" />
    <glyph glyph-name="currency" unicode="&#xa4;" horiz-adv-x="598" 
d="M50 169l53.998 54.999l48 34c-20.667 30.667 -31 68 -31 112c0 22 2.83301 42.167 8.5 60.5s13.5 35.166 23.5 50.499l-49 36l-54 54l48 48l55 -55l34 -47c14.667 11.333 31.334 20 50.001 26s39.334 9 62.001 9c22 0 42.333 -3 61 -9s35.334 -14.667 50.001 -26l35 47
l55 55l48 -48l-55 -54l-49 -36c10 -15.333 17.833 -32.166 23.5 -50.499s8.5 -38.5 8.5 -60.5s-2.83301 -42.167 -8.5 -60.5s-13.5 -35.166 -23.5 -50.499l49 -35l55 -55l-48 -48l-55 55l-34 47c-30 -24 -67.333 -36 -112 -36s-82.334 11.667 -113.001 35l-33 -46l-55 -55z
M191.998 369.999c0 -38 9.66699 -67.501 29 -88.501s45.333 -31.5 78 -31.5s58.5 10.333 77.5 31s28.5 50.334 28.5 89.001c0 38 -9.5 67.333 -28.5 88s-44.833 31 -77.5 31s-58.667 -10.167 -78 -30.5s-29 -49.833 -29 -88.5z" />
    <glyph glyph-name="yen" unicode="&#xa5;" horiz-adv-x="680" 
d="M98 320h151l-222 420h119l165 -327l26 -64h9l26 64l166 327h118l-222 -420h136v-73h-173v-83h173v-74h-173v-90h-109v90h-190v74h190v82l-1 1h-189v73z" />
    <glyph glyph-name="brokenbar" unicode="&#xa6;" horiz-adv-x="257" 
d="M78 204h101v-424h-101v424zM78 808h101v-424h-101v424z" />
    <glyph glyph-name="section" unicode="&#xa7;" horiz-adv-x="482" 
d="M229 -11c-24 0 -50.167 2.00098 -78.5 6.00098s-60.833 10 -97.5 18v79c30 -8 59.667 -14 89 -18s57 -6 83 -6c34 0 59.833 6.66699 77.5 20s26.5 32.666 26.5 57.999c0 26 -8.33301 45.167 -25 57.5s-40.667 21.5 -72 27.5c-19.333 3.33301 -39.166 7.33301 -59.499 12
s-39 12.5 -56 23.5s-31 26.333 -42 46s-16.5 46.167 -16.5 79.5c0 21.333 3.33301 40.333 10 57s15.667 31.667 27 45c-11.333 11.333 -20.333 25.166 -27 41.499s-10 37.166 -10 62.499c0 50 17.333 89 52 117s82.667 42 144 42c22 0 44.5 -1.5 67.5 -4.5
s52.833 -7.83301 89.5 -14.5l-3 -82c-32.667 7.33301 -60 12.5 -82 15.5s-42 4.5 -60 4.5c-34 0 -60 -6.5 -78 -19.5s-27 -31.5 -27 -55.5c0 -14 2.66699 -25.667 8 -35s12.666 -17 21.999 -23s20.5 -10.833 33.5 -14.5s27.5 -7.16699 43.5 -10.5
c23.333 -4.66699 45 -10.5 65 -17.5s37.333 -16.5 52 -28.5s26.167 -27.167 34.5 -45.5s12.5 -41.166 12.5 -68.499c0 -41.333 -12.333 -76.333 -37 -105c24.667 -23.333 37 -56.666 37 -99.999c0 -52 -17.667 -92.333 -53 -121s-85.333 -43 -150 -43zM312 289.001
c12.667 14.667 19.001 33.998 19.001 57.998c0 28.667 -7.33301 49.5 -22 62.5s-35.334 22.833 -62.001 29.5c-9.33301 2.66699 -19.833 5.33398 -31.5 8.00098s-21.834 6 -30.501 10c-17.333 -14.667 -26 -34 -26 -58c0 -15.333 2.33301 -28 7 -38
s11.167 -18.167 19.5 -24.5s18 -11.666 29 -15.999s22.833 -8.16602 35.5 -11.499c9.33301 -2.66699 19.833 -5.83398 31.5 -9.50098s21.834 -7.16699 30.501 -10.5z" />
    <glyph glyph-name="dieresis" unicode="&#xa8;" horiz-adv-x="470" 
d="M114 636c-39.333 0 -59 19.333 -59 58c0 37.333 19.667 56 59 56s59 -18.667 59 -56c0 -38.667 -19.667 -58 -59 -58zM344 636c-39.333 0 -59 19.333 -59 58c0 37.333 19.667 56 59 56c38.667 0 58 -18.667 58 -56c0 -38.667 -19.333 -58 -58 -58z" />
    <glyph glyph-name="copyright" unicode="&#xa9;" horiz-adv-x="831" 
d="M431 163c-58.667 0 -104.332 16.833 -136.999 50.5s-49 84.5 -49 152.5c0 69.333 16.333 121.166 49 155.499s78.334 51.5 137.001 51.5c15.333 0 30.5 -0.833008 45.5 -2.5s28.833 -4.16699 41.5 -7.5v-63c-28 6 -54.333 9 -79 9c-80 0 -120 -47.333 -120 -142
c0 -48 10.167 -83.333 30.5 -106s49.5 -34 87.5 -34c11.333 0 24.166 0.833008 38.499 2.5s29.166 3.83398 44.499 6.50098v-62c-27.333 -7.33301 -57 -11 -89 -11zM416.002 -11c-56 0 -106.833 9.16699 -152.5 27.5s-84.834 44.166 -117.501 77.499
s-57.834 73.333 -75.501 120s-26.5 98.667 -26.5 156c0 56.667 8.83301 108.5 26.5 155.5s42.834 87.167 75.501 120.5s71.834 59.166 117.501 77.499s96.5 27.5 152.5 27.5s106.667 -9.16699 152 -27.5s84.333 -44.166 117 -77.499s57.834 -73.5 75.501 -120.5
s26.5 -98.833 26.5 -155.5c0 -57.333 -8.83301 -109.333 -26.5 -156s-42.834 -86.667 -75.501 -120s-71.667 -59.166 -117 -77.499s-96 -27.5 -152 -27.5zM416.002 50c46.667 0 89 7.66699 127 23s70.333 37 97 65s47.167 61.667 61.5 101s21.5 83 21.5 131
s-7.16699 91.833 -21.5 131.5s-34.833 73.5 -61.5 101.5s-59 49.667 -97 65s-80.333 23 -127 23c-47.333 0 -90 -7.66699 -128 -23s-70.333 -37 -97 -65s-47.167 -61.833 -61.5 -101.5s-21.5 -83.5 -21.5 -131.5s7.16699 -91.667 21.5 -131s34.833 -73 61.5 -101
s59 -49.667 97 -65s80.667 -23 128 -23z" />
    <glyph glyph-name="ordfeminine" unicode="&#xaa;" horiz-adv-x="429" 
d="M154 348c-34.667 0 -62.5029 10.001 -83.5029 30.001s-31.5 46.667 -31.5 80c0 34 12.667 61.167 38 81.5s62.333 32.166 111 35.499l93 6v21c0 15.333 -1.16699 27.833 -3.5 37.5s-6.83301 17.334 -13.5 23.001s-15.5 9.66699 -26.5 12s-24.833 3.5 -41.5 3.5
c-14 0 -30.5 -0.666992 -49.5 -2s-41.167 -4 -66.5 -8l-7 64c28 5.33301 53.167 9 75.5 11s42.833 3 61.5 3c56.667 0 97.334 -9.83301 122.001 -29.5s37 -51.167 37 -94.5v-270h-74l-6 47h-4c-23.333 -16.667 -45.666 -29.334 -66.999 -38.001s-42.666 -13 -63.999 -13z
M183.997 413.001c13.333 0 27.5 2.5 42.5 7.5s33.167 13.167 54.5 24.5v82l-49 -3c-40 -3.33301 -67.5 -9.33301 -82.5 -18s-22.5 -22.667 -22.5 -42c0 -34 19 -51 57 -51z" />
    <glyph glyph-name="guillemotleft" unicode="&#xab;" horiz-adv-x="590" 
d="M32 268v4l151 238h111l-151 -238v-4l151 -238h-111zM289 268v4l151 238h111l-151 -238v-4l151 -238h-111z" />
    <glyph glyph-name="logicalnot" unicode="&#xac;" horiz-adv-x="790" 
d="M55 431h668v-322h-104v232h-564v90z" />
    <glyph glyph-name="uni00AD" unicode="&#xad;" horiz-adv-x="434" 
d="M60 322h314v-84h-314v84z" />
    <glyph glyph-name="registered" unicode="&#xae;" horiz-adv-x="708" 
d="M243 616c17.333 2 34 3.66699 50 5s31 2 45 2c50.667 0 88 -8.66699 112 -26s36 -44 36 -80c0 -50.667 -22.667 -82.667 -68 -96l-1 -3l79 -131h-58l-70 120h-72v-120h-53v329zM340 451c32 0 55.166 5.16797 69.499 15.501s21.5 26.833 21.5 49.5
c0 21.333 -6.66699 37.166 -20 47.499s-36 15.5 -68 15.5h-22c-9.33301 0 -17.666 -0.666992 -24.999 -2v-125c4.66699 -0.666992 11.5 -1 20.5 -1h23.5zM353.999 141.001c-45.333 0 -86.666 7.5 -123.999 22.5s-69.5 36 -96.5 63s-48 59.167 -63 96.5
s-22.5 78.333 -22.5 123s7.5 85.834 22.5 123.501s36 70 63 97s59.167 48.167 96.5 63.5s78.666 23 123.999 23c44.667 0 85.834 -7.66699 123.501 -23s70.167 -36.5 97.5 -63.5s48.5 -59.333 63.5 -97s22.5 -78.834 22.5 -123.501s-7.5 -85.667 -22.5 -123
s-36.167 -69.5 -63.5 -96.5s-59.833 -48 -97.5 -63s-78.834 -22.5 -123.501 -22.5zM353.999 193.001c37.333 0 71.5 6.16699 102.5 18.5s57.667 29.666 80 51.999s39.666 49 51.999 80s18.5 65.167 18.5 102.5s-6.16699 71.666 -18.5 102.999s-29.666 58.166 -51.999 80.499
s-49 39.833 -80 52.5s-65.167 19 -102.5 19s-71.5 -6.33301 -102.5 -19s-57.5 -30.167 -79.5 -52.5s-39.167 -49.166 -51.5 -80.499s-18.5 -65.666 -18.5 -102.999s6.16699 -71.5 18.5 -102.5s29.5 -57.667 51.5 -80s48.5 -39.666 79.5 -51.999s65.167 -18.5 102.5 -18.5z
" />
    <glyph glyph-name="macron" unicode="&#xaf;" horiz-adv-x="448" 
d="M56 717h322v-74h-322v74z" />
    <glyph glyph-name="degree" unicode="&#xb0;" horiz-adv-x="443" 
d="M222 374c-26.667 0 -51.334 4.66699 -74.001 14s-42.167 22.333 -58.5 39s-29 36.334 -38 59.001s-13.5 47.334 -13.5 74.001s4.5 51.5 13.5 74.5s21.667 42.833 38 59.5s35.833 29.667 58.5 39s47.334 14 74.001 14s51.167 -4.66699 73.5 -14s41.5 -22.333 57.5 -39
s28.5 -36.5 37.5 -59.5s13.5 -47.833 13.5 -74.5s-4.5 -51.334 -13.5 -74.001s-21.5 -42.334 -37.5 -59.001s-35.167 -29.667 -57.5 -39s-46.833 -14 -73.5 -14zM222 437c36 0 63.833 11.5 83.5 34.5s29.5 52.5 29.5 88.5c0 36.667 -9.83301 66.5 -29.5 89.5
s-47.5 34.5 -83.5 34.5s-64.167 -11.5 -84.5 -34.5s-30.5 -52.833 -30.5 -89.5c0 -36 10.167 -65.5 30.5 -88.5s48.5 -34.5 84.5 -34.5z" />
    <glyph glyph-name="plusminus" unicode="&#xb1;" horiz-adv-x="529" 
d="M63 465h163v167h75v-167h163v-75h-163v-163h-75v163h-163v75zM64 155h401v-75h-401v75z" />
    <glyph glyph-name="twosuperior" unicode="&#xb2;" horiz-adv-x="418" 
d="M35 381c0 44.667 11.667 82.832 35 114.499s62 62.834 116 93.501c37.333 20.667 63 39 77 55s21 34 21 54c0 49.333 -33 74 -99 74c-17.333 0 -36 -1.5 -56 -4.5s-43.333 -7.5 -70 -13.5l-10 78c30 7.33301 57.667 12.666 83 15.999s49 5 71 5
c116.667 0 175 -49.333 175 -148c0 -36.667 -10.167 -68.334 -30.5 -95.001s-52.833 -52.667 -97.5 -78c-38.667 -23.333 -66.167 -44.666 -82.5 -63.999s-24.5 -40.666 -24.5 -63.999v-25h235v-78h-343v80z" />
    <glyph glyph-name="threesuperior" unicode="&#xb3;" horiz-adv-x="397" 
d="M162 293c-21.333 0 -42.501 0.999023 -63.501 2.99902s-39.833 4.66699 -56.5 8v80h7c12 -2.66699 27.5 -5 46.5 -7s35.833 -3 50.5 -3c42 0 72.667 7.16699 92 21.5s29 35.5 29 63.5c0 28.667 -10 50 -30 64s-52 21 -96 21h-43v69h42c74.667 0 112 27 112 81
c0 26 -8.16699 45.667 -24.5 59s-42.5 20 -78.5 20c-12 0 -26.5 -1 -43.5 -3s-35.167 -4.66699 -54.5 -8h-8l-3 79c17.333 4 36.833 7.16699 58.5 9.5s41.834 3.5 60.501 3.5c62 0 108.667 -12.667 140 -38s47 -62 47 -110c0 -30 -7 -55.667 -21 -77
s-33.667 -36.666 -59 -45.999c30 -10 53 -26.333 69 -49s24 -51 24 -85c0 -50 -17 -88.5 -51 -115.5s-82.667 -40.5 -146 -40.5z" />
    <glyph glyph-name="acute" unicode="&#xb4;" horiz-adv-x="251" 
d="M40 617l70 185h110l-103 -193z" />
    <glyph glyph-name="mu" unicode="&#xb5;" horiz-adv-x="608" 
d="M78 540l106 0.000976562v-381c0 -54.667 24.667 -82 74 -82c24 0 48.833 4.66699 74.5 14s54.5 22 86.5 38v411h107v-540h-90l-7 62h-4c-24 -13.333 -45 -24.5 -63 -33.5s-34.833 -16.333 -50.5 -22s-31 -9.83398 -46 -12.501s-31.5 -4 -49.5 -4c-11.333 0 -22 1 -32 3
v-213h-106v760z" />
    <glyph glyph-name="paragraph" unicode="&#xb6;" horiz-adv-x="578" 
d="M359 0l-57 -0.00390625v266c-8 -0.666992 -16.167 -1 -24.5 -1h-24.5c-33.333 0 -63.333 4.16699 -90 12.5s-49.5 21.833 -68.5 40.5s-33.667 43.334 -44 74.001s-15.5 68.334 -15.5 113.001s5.16699 82.334 15.5 113.001s25 55.334 44 74.001s42.167 32.167 69.5 40.5
s57.666 12.5 90.999 12.5c17.333 0 34.333 -0.833008 51 -2.5s34.334 -4.16699 53.001 -7.5v-735zM488 -0.00390625h-71v735h71v-735z" />
    <glyph glyph-name="periodcentered" unicode="&#xb7;" horiz-adv-x="238" 
d="M119 307c-22 0 -38.333 4.83203 -49 14.499s-16 25.834 -16 48.501s5.33301 39 16 49s27 15 49 15c43.333 0 65 -21.333 65 -64c0 -22 -5.5 -38 -16.5 -48s-27.167 -15 -48.5 -15z" />
    <glyph glyph-name="cedilla" unicode="&#xb8;" horiz-adv-x="293" 
d="M118 -220c-12.667 0 -26.5 1.16895 -41.5 3.50195s-29.833 5.16602 -44.5 8.49902v69c10 -3.33301 21 -6 33 -8s23.333 -3 34 -3c21.333 0 36.833 4.33301 46.5 13s14.5 21.667 14.5 39c0 16 -4.33301 34 -13 54s-22.667 43 -42 69h74c22 -30.667 37 -55.834 45 -75.501
s12 -39.5 12 -59.5c0 -34.667 -10.167 -61.667 -30.5 -81s-49.5 -29 -87.5 -29z" />
    <glyph glyph-name="onesuperior" unicode="&#xb9;" horiz-adv-x="321" 
d="M156 743l-114 -52h-10l-15 47l1 13l164 95h67v-546h-93v443z" />
    <glyph glyph-name="ordmasculine" unicode="&#xba;" horiz-adv-x="456" 
d="M228 412c32 0 56.5 9.33301 73.5 28s25.5 54 25.5 106s-8.5 87.333 -25.5 106s-41.5 28 -73.5 28c-32.667 0 -57.334 -9.33301 -74.001 -28s-25 -54 -25 -106s8.33301 -87.333 25 -106s41.334 -28 74.001 -28zM228 345c-58.667 0 -104.334 16.5 -137.001 49.5
s-49 83.5 -49 151.5s16.333 118.5 49 151.5s78.334 49.5 137.001 49.5s104.334 -16.5 137.001 -49.5s49 -83.5 49 -151.5s-16.333 -118.5 -49 -151.5s-78.334 -49.5 -137.001 -49.5z" />
    <glyph glyph-name="guillemotright" unicode="&#xbb;" horiz-adv-x="590" 
d="M149 30h-109l151 238v4l-151 238h109l151 -238v-4zM407 30h-109l151 238v4l-151 238h109l151 -238v-4z" />
    <glyph glyph-name="onequarter" unicode="&#xbc;" horiz-adv-x="977" 
d="M781 121h-230l-17 57l184 370l10 3l76 -9l6 -15l-178 -333h155l24 173h63v-173h73v-73h-73v-121h-93v121zM555 740h93l-317 -740h-93zM165 643l-114 -52h-10l-15 47l1 13l164 95h67v-546h-93v443z" />
    <glyph glyph-name="onehalf" unicode="&#xbd;" horiz-adv-x="1003" 
d="M612 81c0 22 2.66895 42.167 8.00195 60.5s14 35.833 26 52.5s27.667 32.667 47 48s42.666 31 69.999 47c19.333 10.667 35.333 20.5 48 29.5s22.667 17.667 30 26s12.5 16.666 15.5 24.999s4.5 17.5 4.5 27.5c0 50 -32.667 75 -98 75
c-18.667 0 -38.834 -1.66699 -60.501 -5s-43.834 -7.66602 -66.501 -12.999l-10 78c60.667 14 112 21 154 21c116.667 0 175 -49.333 175 -148c0 -18 -2.33301 -34.5 -7 -49.5s-12 -29.333 -22 -43s-23.167 -27 -39.5 -40s-36.166 -26.5 -59.499 -40.5
c-39.333 -24.667 -67 -46.5 -83 -65.5s-24 -39.833 -24 -62.5v-25h235v-78h-343v80zM555.002 740h93l-317 -740h-93zM165.002 643l-114 -52h-10l-15 47l1 13l164 95h67v-546h-93v443z" />
    <glyph glyph-name="threequarters" unicode="&#xbe;" horiz-adv-x="1036" 
d="M173 193c-21.333 0 -42.501 0.999023 -63.501 2.99902s-39.833 4.66699 -56.5 8v80h7c12 -2.66699 27.5 -5 46.5 -7s35.833 -3 50.5 -3c42 0 72.667 7.16699 92 21.5s29 35.5 29 63.5c0 28.667 -10 50 -30 64s-52 21 -96 21h-43v69h42c74.667 0 112 27 112 81
c0 26 -8.16699 45.667 -24.5 59s-42.5 20 -78.5 20c-12 0 -26.5 -1 -43.5 -3s-35.167 -4.66699 -54.5 -8h-8l-3 79c17.333 4 36.833 7.16699 58.5 9.5s41.834 3.5 60.501 3.5c62 0 108.667 -12.667 140 -38s47 -62 47 -110c0 -30 -7 -55.667 -21 -77
s-33.667 -36.666 -59 -45.999c30 -10 53 -26.333 69 -49s24 -51 24 -85c0 -50 -17 -88.5 -51 -115.5s-82.667 -40.5 -146 -40.5zM841.999 120.999h-230l-17 57l184 370l10 3l76 -9l6 -15l-178 -333h155l24 173h63v-173h73v-73h-73v-121h-93v121zM617.999 739.999h93
l-317 -740h-93z" />
    <glyph glyph-name="questiondown" unicode="&#xbf;" horiz-adv-x="434" 
d="M300 334l8.00195 -187.003c-21.333 -5.33301 -42.666 -11.5 -63.999 -18.5s-40.5 -16 -57.5 -27s-30.667 -24.833 -41 -41.5s-15.5 -37 -15.5 -61c0 -22.667 3.66699 -41.5 11 -56.5s17.166 -27.167 29.499 -36.5s26.666 -16 42.999 -20s33.166 -6 50.499 -6
c22.667 0 45.834 2 69.501 6s45.5 9 65.5 15l9 -82c-25.333 -7.33301 -51.5 -13.333 -78.5 -18s-54.833 -7 -83.5 -7c-30 0 -58.167 3.66699 -84.5 11s-49.333 18.833 -69 34.5s-35.167 35.834 -46.5 60.501s-17 54.667 -17 90c0 32.667 5.5 60.834 16.5 84.501
s25.667 43.834 44 60.501s39.166 30 62.499 40s47 18 71 24l3 135v17h74v-17zM261.002 545.997c40.667 0 61 -19.667 61 -59c0 -18.667 -5.33301 -33.167 -16 -43.5s-25.667 -15.5 -45 -15.5s-34.333 5.16699 -45 15.5s-16 24.833 -16 43.5c0 19.333 5.33301 34 16 44
s25.667 15 45 15z" />
    <glyph glyph-name="Agrave" unicode="&#xc0;" horiz-adv-x="656" 
d="M5 7l242 733h162l242 -733v-7h-105l-70 209h-297l-69 -209h-105v7zM450 298l-78 234l-40 126h-9l-40 -126l-77 -234h244zM282 796l-102 156h111l72 -143z" />
    <glyph glyph-name="Aacute" unicode="&#xc1;" horiz-adv-x="656" 
d="M5 7l242 733h162l242 -733v-7h-105l-70 209h-297l-69 -209h-105v7zM450 298l-78 234l-40 126h-9l-40 -126l-77 -234h244zM283 803l72 149h111l-102 -156z" />
    <glyph glyph-name="Acircumflex" unicode="&#xc2;" horiz-adv-x="656" 
d="M5 7l242 733h162l242 -733v-7h-105l-70 209h-297l-69 -209h-105v7zM450 298l-78 234l-40 126h-9l-40 -126l-77 -234h244zM165 888l164 74l164 -74v-81l-164 74l-164 -74v81z" />
    <glyph glyph-name="Atilde" unicode="&#xc3;" horiz-adv-x="656" 
d="M5 7l242 733h162l242 -733v-7h-105l-70 209h-297l-69 -209h-105v7zM450 298l-78 234l-40 126h-9l-40 -126l-77 -234h244zM138 854c17.333 28 37.332 49.333 59.999 64s45 22 67 22c14.667 0 28.834 -2.16699 42.501 -6.5s27 -9 40 -14s26 -9.66699 39 -14
s26.5 -6.5 40.5 -6.5c28 0 55.333 13 82 39l24 -26c-16.667 -28 -36.5 -49.5 -59.5 -64.5s-45.833 -22.5 -68.5 -22.5c-14 0 -27.833 2 -41.5 6s-27 8.5 -40 13.5s-26 9.66699 -39 14s-26.5 6.5 -40.5 6.5s-27.833 -2.83301 -41.5 -8.5s-27.5 -15.167 -41.5 -28.5z" />
    <glyph glyph-name="Adieresis" unicode="&#xc4;" horiz-adv-x="656" 
d="M5 7l242 733h162l242 -733v-7h-105l-70 209h-297l-69 -209h-105v7zM450 298l-78 234l-40 126h-9l-40 -126l-77 -234h244zM204 812c-42.667 0 -64 21.333 -64 64c0 22 5.33301 38 16 48s26.667 15 48 15s37.5 -5 48.5 -15s16.5 -26 16.5 -48
c0 -42.667 -21.667 -64 -65 -64zM452 812c-43.333 0 -65 21.333 -65 64c0 22 5.33301 38 16 48s27 15 49 15c21.333 0 37.5 -5 48.5 -15s16.5 -26 16.5 -48c0 -42.667 -21.667 -64 -65 -64z" />
    <glyph glyph-name="Aring" unicode="&#xc5;" horiz-adv-x="656" 
d="M5 7l242 733h162l242 -733v-7h-105l-70 209h-297l-69 -209h-105v7zM450 298l-78 234l-40 126h-9l-40 -126l-77 -234h244zM328 763c-34.667 0 -62.834 10.333 -84.501 31s-32.5 46.667 -32.5 78s10.833 57.333 32.5 78s49.834 31 84.501 31s62.834 -10.333 84.501 -31
s32.5 -46.667 32.5 -78s-10.833 -57.333 -32.5 -78s-49.834 -31 -84.501 -31zM328 811c43.333 0 65 20.333 65 61c0 19.333 -5.33301 34.5 -16 45.5s-27 16.5 -49 16.5c-22.667 0 -39.167 -5.5 -49.5 -16.5s-15.5 -26.167 -15.5 -45.5c0 -40.667 21.667 -61 65 -61z" />
    <glyph glyph-name="AE" unicode="&#xc6;" horiz-adv-x="869" 
d="M3 7l277 733h536v-90h-310l12 -232h275v-89h-270l13 -239h291v-90h-399l-9 208h-230l-79 -208h-107v7zM224 300h192l-15 356h-42z" />
    <glyph glyph-name="Ccedilla" unicode="&#xc7;" horiz-adv-x="560" 
d="M301 -220c-12.667 0 -26.501 1.16895 -41.501 3.50195s-29.833 5.16602 -44.5 8.49902v69c10 -3.33301 21 -6 33 -8s23.333 -3 34 -3c21.333 0 36.833 4.33301 46.5 13s14.5 21.667 14.5 39c0 13.333 -2.66699 27.5 -8 42.5s-14 31.833 -26 50.5
c-89.333 11.333 -155.666 47.666 -198.999 108.999s-65 149.666 -65 264.999c0 130.667 26.833 226.834 80.5 288.501s136.167 92.5 247.5 92.5c21.333 0 45 -1.33301 71 -4s53 -6.33398 81 -11.001v-91c-28 5.33301 -53.167 9 -75.5 11s-43.166 3 -62.499 3
c-41.333 0 -76.5 -5.16699 -105.5 -15.5s-52.667 -27 -71 -50s-31.833 -52.833 -40.5 -89.5s-13 -81.334 -13 -134.001c0 -51.333 4.33301 -95.166 13 -131.499s22.167 -66 40.5 -89s41.666 -39.833 69.999 -50.5s62.166 -16 101.499 -16c9.33301 0 20.333 0.333008 33 1
s25.5 1.83398 38.5 3.50098l38.5 5c12.667 1.66699 23.667 3.5 33 5.5v-89c-19.333 -4.66699 -41.5 -8.66699 -66.5 -12s-49.167 -5.33301 -72.5 -6c12.667 -20 21.334 -37.667 26.001 -53s7 -31 7 -47c0 -34.667 -10.167 -61.667 -30.5 -81s-49.5 -29 -87.5 -29z" />
    <glyph glyph-name="Egrave" unicode="&#xc8;" horiz-adv-x="591" 
d="M276 796l-102 156h111l72 -143zM79 740h461v-90h-352v-231h322v-90h-322v-239h361v-90h-470v740z" />
    <glyph glyph-name="Eacute" unicode="&#xc9;" horiz-adv-x="591" 
d="M264 803l72 149h111l-102 -156zM79 740h461v-90h-352v-231h322v-90h-322v-239h361v-90h-470v740z" />
    <glyph glyph-name="Ecircumflex" unicode="&#xca;" horiz-adv-x="591" 
d="M79 740h461v-90h-352v-231h322v-90h-322v-239h361v-90h-470v740zM151 888l164 74l164 -74v-81l-164 74l-164 -74v81z" />
    <glyph glyph-name="Edieresis" unicode="&#xcb;" horiz-adv-x="591" 
d="M189 812c-42.667 0 -64 21.333 -64 64c0 22 5.33301 38 16 48s26.667 15 48 15s37.5 -5 48.5 -15s16.5 -26 16.5 -48c0 -42.667 -21.667 -64 -65 -64zM437 812c-43.333 0 -65 21.333 -65 64c0 22 5.33301 38 16 48s27 15 49 15c21.333 0 37.5 -5 48.5 -15
s16.5 -26 16.5 -48c0 -42.667 -21.667 -64 -65 -64zM79 740h461v-90h-352v-231h322v-90h-322v-239h361v-90h-470v740z" />
    <glyph glyph-name="Igrave" unicode="&#xcc;" horiz-adv-x="266" 
d="M79 740h109v-740h-109v740zM98 796l-102 156h111l72 -143z" />
    <glyph glyph-name="Iacute" unicode="&#xcd;" horiz-adv-x="266" 
d="M79 740h109v-740h-109v740zM90 803l72 149h111l-102 -156z" />
    <glyph glyph-name="Icircumflex" unicode="&#xce;" horiz-adv-x="266" 
d="M79 740h109v-740h-109v740zM-29 888l164 74l164 -74v-81l-164 74l-164 -74v81z" />
    <glyph glyph-name="Idieresis" unicode="&#xcf;" horiz-adv-x="266" 
d="M79 740h109v-740h-109v740zM11 812c-42.667 0 -64 21.333 -64 64c0 22 5.33301 38 16 48s26.667 15 48 15s37.5 -5 48.5 -15s16.5 -26 16.5 -48c0 -42.667 -21.667 -64 -65 -64zM259 812c-43.333 0 -65 21.333 -65 64c0 22 5.33301 38 16 48s27 15 49 15
c21.333 0 37.5 -5 48.5 -15s16.5 -26 16.5 -48c0 -42.667 -21.667 -64 -65 -64z" />
    <glyph glyph-name="Eth" unicode="&#xd0;" horiz-adv-x="709" 
d="M2 413l92 0.000976562v324c38 4 74.833 7.16699 110.5 9.5s66.167 3.5 91.5 3.5c128 0 221.5 -30.5 280.5 -91.5s88.5 -157.5 88.5 -289.5c0 -67.333 -7.5 -125 -22.5 -173s-38.5 -87.333 -70.5 -118s-72.833 -53.334 -122.5 -68.001s-109.167 -22 -178.5 -22
c-33.333 0 -65.333 1 -96 3s-57.667 5 -81 9v328h-92v85zM306 78.001c43.333 0 80.5 5.50098 111.5 16.501s56.5 28.167 76.5 51.5s34.833 53.5 44.5 90.5s14.5 81.5 14.5 133.5s-4.5 96.167 -13.5 132.5s-23.333 66.166 -43 89.499s-45 40.333 -76 51s-68.167 16 -111.5 16
c-16 0 -33.5 -0.5 -52.5 -1.5s-37.167 -2.83301 -54.5 -5.5v-239h152v-85h-152v-243c20 -2.66699 38 -4.5 54 -5.5s32.667 -1.5 50 -1.5z" />
    <glyph glyph-name="Ntilde" unicode="&#xd1;" horiz-adv-x="747" 
d="M183 854c17.333 28 37.332 49.333 59.999 64s45 22 67 22c14.667 0 28.834 -2.16699 42.501 -6.5s27 -9 40 -14s26 -9.66699 39 -14s26.5 -6.5 40.5 -6.5c28 0 55.333 13 82 39l24 -26c-16.667 -28 -36.5 -49.5 -59.5 -64.5s-45.833 -22.5 -68.5 -22.5
c-14 0 -27.833 2 -41.5 6s-27 8.5 -40 13.5s-26 9.66699 -39 14s-26.5 6.5 -40.5 6.5s-27.833 -2.83301 -41.5 -8.5s-27.5 -15.167 -41.5 -28.5zM78.999 740h93l338 -482l53 -86h7v568h98v-740h-93l-338 480l-54 87h-7v-567h-97v740z" />
    <glyph glyph-name="Ograve" unicode="&#xd2;" horiz-adv-x="716" 
d="M313 796l-102 156h111l72 -143zM358 -10c-102.667 0 -180.5 31.667 -233.5 95s-79.5 158 -79.5 284c0 126.667 26.5 221.834 79.5 285.501s130.833 95.5 233.5 95.5s180.5 -31.833 233.5 -95.5s79.5 -158.834 79.5 -285.501c0 -126 -26.5 -220.667 -79.5 -284
s-130.833 -95 -233.5 -95zM358 81c70 0 121.167 22.833 153.5 68.5s48.5 118.834 48.5 219.501s-16.5 174.167 -49.5 220.5s-83.833 69.5 -152.5 69.5c-69.333 0 -120.333 -23 -153 -69s-49 -119.667 -49 -221c0 -100.667 16.167 -173.834 48.5 -219.501
s83.5 -68.5 153.5 -68.5z" />
    <glyph glyph-name="Oacute" unicode="&#xd3;" horiz-adv-x="716" 
d="M313 803l72 149h111l-102 -156zM358 -10c-102.667 0 -180.5 31.667 -233.5 95s-79.5 158 -79.5 284c0 126.667 26.5 221.834 79.5 285.501s130.833 95.5 233.5 95.5s180.5 -31.833 233.5 -95.5s79.5 -158.834 79.5 -285.501c0 -126 -26.5 -220.667 -79.5 -284
s-130.833 -95 -233.5 -95zM358 81c70 0 121.167 22.833 153.5 68.5s48.5 118.834 48.5 219.501s-16.5 174.167 -49.5 220.5s-83.833 69.5 -152.5 69.5c-69.333 0 -120.333 -23 -153 -69s-49 -119.667 -49 -221c0 -100.667 16.167 -173.834 48.5 -219.501
s83.5 -68.5 153.5 -68.5z" />
    <glyph glyph-name="Ocircumflex" unicode="&#xd4;" horiz-adv-x="716" 
d="M358 -10c-102.667 0 -180.5 31.667 -233.5 95s-79.5 158 -79.5 284c0 126.667 26.5 221.834 79.5 285.501s130.833 95.5 233.5 95.5s180.5 -31.833 233.5 -95.5s79.5 -158.834 79.5 -285.501c0 -126 -26.5 -220.667 -79.5 -284s-130.833 -95 -233.5 -95zM358 81
c70 0 121.167 22.833 153.5 68.5s48.5 118.834 48.5 219.501s-16.5 174.167 -49.5 220.5s-83.833 69.5 -152.5 69.5c-69.333 0 -120.333 -23 -153 -69s-49 -119.667 -49 -221c0 -100.667 16.167 -173.834 48.5 -219.501s83.5 -68.5 153.5 -68.5zM194 888l164 74l164 -74v-81
l-164 74l-164 -74v81z" />
    <glyph glyph-name="Otilde" unicode="&#xd5;" horiz-adv-x="716" 
d="M168 854c17.333 28 37.332 49.333 59.999 64s45 22 67 22c14.667 0 28.834 -2.16699 42.501 -6.5s27 -9 40 -14s26 -9.66699 39 -14s26.5 -6.5 40.5 -6.5c28 0 55.333 13 82 39l24 -26c-16.667 -28 -36.5 -49.5 -59.5 -64.5s-45.833 -22.5 -68.5 -22.5
c-14 0 -27.833 2 -41.5 6s-27 8.5 -40 13.5s-26 9.66699 -39 14s-26.5 6.5 -40.5 6.5s-27.833 -2.83301 -41.5 -8.5s-27.5 -15.167 -41.5 -28.5zM357.999 -10c-102.667 0 -180.5 31.667 -233.5 95s-79.5 158 -79.5 284c0 126.667 26.5 221.834 79.5 285.501
s130.833 95.5 233.5 95.5s180.5 -31.833 233.5 -95.5s79.5 -158.834 79.5 -285.501c0 -126 -26.5 -220.667 -79.5 -284s-130.833 -95 -233.5 -95zM357.999 81c70 0 121.167 22.833 153.5 68.5s48.5 118.834 48.5 219.501s-16.5 174.167 -49.5 220.5
s-83.833 69.5 -152.5 69.5c-69.333 0 -120.333 -23 -153 -69s-49 -119.667 -49 -221c0 -100.667 16.167 -173.834 48.5 -219.501s83.5 -68.5 153.5 -68.5z" />
    <glyph glyph-name="Odieresis" unicode="&#xd6;" horiz-adv-x="716" 
d="M232 812c-42.667 0 -64 21.333 -64 64c0 22 5.33301 38 16 48s26.667 15 48 15s37.5 -5 48.5 -15s16.5 -26 16.5 -48c0 -42.667 -21.667 -64 -65 -64zM480 812c-43.333 0 -65 21.333 -65 64c0 22 5.33301 38 16 48s27 15 49 15c21.333 0 37.5 -5 48.5 -15
s16.5 -26 16.5 -48c0 -42.667 -21.667 -64 -65 -64zM358 -10c-102.667 0 -180.5 31.667 -233.5 95s-79.5 158 -79.5 284c0 126.667 26.5 221.834 79.5 285.501s130.833 95.5 233.5 95.5s180.5 -31.833 233.5 -95.5s79.5 -158.834 79.5 -285.501
c0 -126 -26.5 -220.667 -79.5 -284s-130.833 -95 -233.5 -95zM358 81c70 0 121.167 22.833 153.5 68.5s48.5 118.834 48.5 219.501s-16.5 174.167 -49.5 220.5s-83.833 69.5 -152.5 69.5c-69.333 0 -120.333 -23 -153 -69s-49 -119.667 -49 -221
c0 -100.667 16.167 -173.834 48.5 -219.501s83.5 -68.5 153.5 -68.5z" />
    <glyph glyph-name="multiply" unicode="&#xd7;" horiz-adv-x="474" 
d="M50 237l133 134l-133 133l53 54l133 -134l134 134l54 -54l-134 -134l134 -133l-53 -53l-134 133l-134 -133z" />
    <glyph glyph-name="Oslash" unicode="&#xd8;" horiz-adv-x="720" 
d="M111 108c-42.667 62.667 -63.999 149.666 -63.999 260.999c0 126.667 26.5 221.834 79.5 285.501s130.833 95.5 233.5 95.5c84 0 151.667 -22 203 -66l44 56h87l-84 -108c42.667 -64 64 -151.667 64 -263c0 -126 -26.5 -220.667 -79.5 -284s-131.167 -95 -234.5 -95
c-84.667 0 -152.334 22 -203.001 66l-44 -56h-87zM360.001 80.999c70 0 121.333 22.833 154 68.5s49 118.834 49 219.501c0 71.333 -8.33301 128.666 -25 171.999l-319 -406c32 -36 79 -54 141 -54zM158.001 368.999c0 -72.667 7.66699 -129.667 23 -171l320 407
c-33.333 36 -80.333 54 -141 54c-69.333 0 -120.333 -23 -153 -69s-49 -119.667 -49 -221z" />
    <glyph glyph-name="Ugrave" unicode="&#xd9;" horiz-adv-x="726" 
d="M318 796l-102 156h111l72 -143zM363 -10c-52 0 -96.5 6 -133.5 18s-67.167 30.5 -90.5 55.5s-40.333 56.833 -51 95.5s-16 84.667 -16 138v443h109v-442c0 -76.667 14.667 -131.834 44 -165.501s75.333 -50.5 138 -50.5s108.667 16.833 138 50.5s44 88.834 44 165.501
v442h109v-443c0 -53.333 -5.33301 -99.333 -16 -138s-27.667 -70.5 -51 -95.5s-53.5 -43.5 -90.5 -55.5s-81.5 -18 -133.5 -18z" />
    <glyph glyph-name="Uacute" unicode="&#xda;" horiz-adv-x="726" 
d="M311 803l72 149h111l-102 -156zM363 -10c-52 0 -96.5 6 -133.5 18s-67.167 30.5 -90.5 55.5s-40.333 56.833 -51 95.5s-16 84.667 -16 138v443h109v-442c0 -76.667 14.667 -131.834 44 -165.501s75.333 -50.5 138 -50.5s108.667 16.833 138 50.5s44 88.834 44 165.501
v442h109v-443c0 -53.333 -5.33301 -99.333 -16 -138s-27.667 -70.5 -51 -95.5s-53.5 -43.5 -90.5 -55.5s-81.5 -18 -133.5 -18z" />
    <glyph glyph-name="Ucircumflex" unicode="&#xdb;" horiz-adv-x="726" 
d="M363 -10c-52 0 -96.5 6 -133.5 18s-67.167 30.5 -90.5 55.5s-40.333 56.833 -51 95.5s-16 84.667 -16 138v443h109v-442c0 -76.667 14.667 -131.834 44 -165.501s75.333 -50.5 138 -50.5s108.667 16.833 138 50.5s44 88.834 44 165.501v442h109v-443
c0 -53.333 -5.33301 -99.333 -16 -138s-27.667 -70.5 -51 -95.5s-53.5 -43.5 -90.5 -55.5s-81.5 -18 -133.5 -18zM196 888l164 74l164 -74v-81l-164 74l-164 -74v81z" />
    <glyph glyph-name="Udieresis" unicode="&#xdc;" horiz-adv-x="726" 
d="M236 812c-42.667 0 -64 21.333 -64 64c0 22 5.33301 38 16 48s26.667 15 48 15s37.5 -5 48.5 -15s16.5 -26 16.5 -48c0 -42.667 -21.667 -64 -65 -64zM484 812c-43.333 0 -65 21.333 -65 64c0 22 5.33301 38 16 48s27 15 49 15c21.333 0 37.5 -5 48.5 -15
s16.5 -26 16.5 -48c0 -42.667 -21.667 -64 -65 -64zM363 -10c-52 0 -96.5 6 -133.5 18s-67.167 30.5 -90.5 55.5s-40.333 56.833 -51 95.5s-16 84.667 -16 138v443h109v-442c0 -76.667 14.667 -131.834 44 -165.501s75.333 -50.5 138 -50.5s108.667 16.833 138 50.5
s44 88.834 44 165.501v442h109v-443c0 -53.333 -5.33301 -99.333 -16 -138s-27.667 -70.5 -51 -95.5s-53.5 -43.5 -90.5 -55.5s-81.5 -18 -133.5 -18z" />
    <glyph glyph-name="Yacute" unicode="&#xdd;" horiz-adv-x="628" 
d="M260 246l-261 494h119l165 -327l26 -64h9l26 64l166 327h118l-259 -491v-249h-109v246zM271 803l72 149h111l-102 -156z" />
    <glyph glyph-name="Thorn" unicode="&#xde;" horiz-adv-x="625" 
d="M79 740l108.998 0.00195312v-118c26.667 2 53 3 79 3c113.333 0 196 -20.333 248 -61s78 -105.334 78 -194.001c0 -44.667 -6.16699 -83 -18.5 -115s-31.666 -58.333 -57.999 -79s-60 -35.834 -101 -45.501s-89.833 -14.5 -146.5 -14.5
c-13.333 0 -26.666 0.166992 -39.999 0.5s-27 0.833008 -41 1.5v-118h-109v740zM278.998 207.002c38 0 70.001 2.83203 96.001 8.49902s47 14.834 63 27.501s27.5 29.5 34.5 50.5s10.5 46.5 10.5 76.5c0 29.333 -3.66699 54.333 -11 75s-19 37.5 -35 50.5s-37 22.333 -63 28
s-58 8.5 -96 8.5c-6 0 -13 -0.166992 -21 -0.5l-25 -1c-8.66699 -0.333008 -16.834 -1 -24.501 -2l-19.5 -2.5v-313c4 -1.33301 9.83301 -2.33301 17.5 -3s16 -1.16699 25 -1.5l26.5 -1c8.66699 -0.333008 16 -0.5 22 -0.5z" />
    <glyph glyph-name="germandbls" unicode="&#xdf;" horiz-adv-x="651" 
d="M67 588c0 78 20.002 134.668 60.002 170.001s101.667 53 185 53s145.166 -17.833 185.499 -53.5s60.5 -92.167 60.5 -169.5v-117h-95c-36 0 -63.333 -6.66699 -82 -20s-28 -32 -28 -56c0 -14 2.66699 -25.667 8 -35s12.666 -16.833 21.999 -22.5
s20.666 -10.334 33.999 -14.001s28 -7.16699 44 -10.5c22.667 -4.66699 44 -10.5 64 -17.5s37.333 -16.5 52 -28.5s26.167 -27.167 34.5 -45.5s12.5 -41.166 12.5 -68.499c0 -52 -17.5 -92.333 -52.5 -121s-84.833 -43 -149.5 -43c-24.667 0 -51 2 -79 6s-60.333 10 -97 18
v79c30.667 -8 60.5 -14 89.5 -18s56.167 -6 81.5 -6c34 0 59.833 6.66699 77.5 20s26.5 32.666 26.5 57.999c0 26 -8.33301 45.167 -25 57.5s-40.667 21.5 -72 27.5c-19.333 3.33301 -39.166 7.33301 -59.499 12s-39 12.5 -56 23.5s-30.833 26.333 -41.5 46
s-16 46.167 -16 79.5c0 50 17.667 89.167 53 117.5s84.333 42.5 147 42.5v36c0 49.333 -11 84.5 -33 105.5s-57 31.5 -105 31.5c-49.333 0 -84.833 -10.333 -106.5 -31s-32.5 -56 -32.5 -106v-588h-107v588z" />
    <glyph glyph-name="agrave" unicode="&#xe0;" horiz-adv-x="520" 
d="M176 -5c-46 0 -81.335 12.833 -106.002 38.5s-37 61.5 -37 107.5c0 52 16.167 91.667 48.5 119s82.833 43.666 151.5 48.999l117 9v33c0 22 -1.83301 40.333 -5.5 55s-10 26.5 -19 35.5s-21.333 15.333 -37 19s-35.167 5.5 -58.5 5.5c-20.667 0 -44.667 -1.66699 -72 -5
s-54.333 -7.66602 -81 -12.999l-8 80c63.333 12.667 123.333 19 180 19c71.333 0 123.833 -14.167 157.5 -42.5s50.5 -72.833 50.5 -133.5v-371h-88l-10 67h-7c-27.333 -22 -55.666 -39.5 -84.999 -52.5s-59.666 -19.5 -90.999 -19.5zM216.998 75
c21.333 0 43.833 5.5 67.5 16.5s45.5 23.167 65.5 36.5v125l-88 -8c-44.667 -4.66699 -76 -14 -94 -28s-27 -36 -27 -66c0 -50.667 25.333 -76 76 -76zM225.998 612l-104 193h113l69 -183z" />
    <glyph glyph-name="aacute" unicode="&#xe1;" horiz-adv-x="520" 
d="M176 -5c-46 0 -81.335 12.833 -106.002 38.5s-37 61.5 -37 107.5c0 52 16.167 91.667 48.5 119s82.833 43.666 151.5 48.999l117 9v33c0 22 -1.83301 40.333 -5.5 55s-10 26.5 -19 35.5s-21.333 15.333 -37 19s-35.167 5.5 -58.5 5.5c-20.667 0 -44.667 -1.66699 -72 -5
s-54.333 -7.66602 -81 -12.999l-8 80c63.333 12.667 123.333 19 180 19c71.333 0 123.833 -14.167 157.5 -42.5s50.5 -72.833 50.5 -133.5v-371h-88l-10 67h-7c-27.333 -22 -55.666 -39.5 -84.999 -52.5s-59.666 -19.5 -90.999 -19.5zM216.998 75
c21.333 0 43.833 5.5 67.5 16.5s45.5 23.167 65.5 36.5v125l-88 -8c-44.667 -4.66699 -76 -14 -94 -28s-27 -36 -27 -66c0 -50.667 25.333 -76 76 -76zM222.998 617l70 185h110l-103 -193z" />
    <glyph glyph-name="acircumflex" unicode="&#xe2;" horiz-adv-x="520" 
d="M176 -5c-46 0 -81.335 12.833 -106.002 38.5s-37 61.5 -37 107.5c0 52 16.167 91.667 48.5 119s82.833 43.666 151.5 48.999l117 9v33c0 22 -1.83301 40.333 -5.5 55s-10 26.5 -19 35.5s-21.333 15.333 -37 19s-35.167 5.5 -58.5 5.5c-20.667 0 -44.667 -1.66699 -72 -5
s-54.333 -7.66602 -81 -12.999l-8 80c63.333 12.667 123.333 19 180 19c71.333 0 123.833 -14.167 157.5 -42.5s50.5 -72.833 50.5 -133.5v-371h-88l-10 67h-7c-27.333 -22 -55.666 -39.5 -84.999 -52.5s-59.666 -19.5 -90.999 -19.5zM216.998 75
c21.333 0 43.833 5.5 67.5 16.5s45.5 23.167 65.5 36.5v125l-88 -8c-44.667 -4.66699 -76 -14 -94 -28s-27 -36 -27 -66c0 -50.667 25.333 -76 76 -76zM101.998 706l163 74l165 -74v-80l-164 73l-164 -73v80z" />
    <glyph glyph-name="atilde" unicode="&#xe3;" horiz-adv-x="520" 
d="M176 -5c-46 0 -81.335 12.833 -106.002 38.5s-37 61.5 -37 107.5c0 52 16.167 91.667 48.5 119s82.833 43.666 151.5 48.999l117 9v33c0 22 -1.83301 40.333 -5.5 55s-10 26.5 -19 35.5s-21.333 15.333 -37 19s-35.167 5.5 -58.5 5.5c-20.667 0 -44.667 -1.66699 -72 -5
s-54.333 -7.66602 -81 -12.999l-8 80c63.333 12.667 123.333 19 180 19c71.333 0 123.833 -14.167 157.5 -42.5s50.5 -72.833 50.5 -133.5v-371h-88l-10 67h-7c-27.333 -22 -55.666 -39.5 -84.999 -52.5s-59.666 -19.5 -90.999 -19.5zM216.998 75
c21.333 0 43.833 5.5 67.5 16.5s45.5 23.167 65.5 36.5v125l-88 -8c-44.667 -4.66699 -76 -14 -94 -28s-27 -36 -27 -66c0 -50.667 25.333 -76 76 -76zM67.998 668c17.333 27.333 37.333 48.167 60 62.5s44.667 21.5 66 21.5c15.333 0 29.666 -2.33301 42.999 -7
s26.5 -9.83398 39.5 -15.501s26 -10.834 39 -15.501s26.5 -7 40.5 -7c27.333 0 54 13 80 39l27 -29c-16.667 -28 -36.5 -49.167 -59.5 -63.5s-45.833 -21.5 -68.5 -21.5c-14.667 0 -28.667 2.33301 -42 7s-26.666 9.83398 -39.999 15.501s-26.5 10.834 -39.5 15.501
s-26.5 7 -40.5 7c-26 0 -52.333 -12.667 -79 -38z" />
    <glyph glyph-name="adieresis" unicode="&#xe4;" horiz-adv-x="520" 
d="M176 -5c-46 0 -81.335 12.833 -106.002 38.5s-37 61.5 -37 107.5c0 52 16.167 91.667 48.5 119s82.833 43.666 151.5 48.999l117 9v33c0 22 -1.83301 40.333 -5.5 55s-10 26.5 -19 35.5s-21.333 15.333 -37 19s-35.167 5.5 -58.5 5.5c-20.667 0 -44.667 -1.66699 -72 -5
s-54.333 -7.66602 -81 -12.999l-8 80c63.333 12.667 123.333 19 180 19c71.333 0 123.833 -14.167 157.5 -42.5s50.5 -72.833 50.5 -133.5v-371h-88l-10 67h-7c-27.333 -22 -55.666 -39.5 -84.999 -52.5s-59.666 -19.5 -90.999 -19.5zM216.998 75
c21.333 0 43.833 5.5 67.5 16.5s45.5 23.167 65.5 36.5v125l-88 -8c-44.667 -4.66699 -76 -14 -94 -28s-27 -36 -27 -66c0 -50.667 25.333 -76 76 -76zM148.998 636c-39.333 0 -59 19.333 -59 58c0 37.333 19.667 56 59 56s59 -18.667 59 -56c0 -38.667 -19.667 -58 -59 -58
zM378.998 636c-39.333 0 -59 19.333 -59 58c0 37.333 19.667 56 59 56c38.667 0 58 -18.667 58 -56c0 -38.667 -19.333 -58 -58 -58z" />
    <glyph glyph-name="aring" unicode="&#xe5;" horiz-adv-x="520" 
d="M176 -5c-46 0 -81.335 12.833 -106.002 38.5s-37 61.5 -37 107.5c0 52 16.167 91.667 48.5 119s82.833 43.666 151.5 48.999l117 9v33c0 22 -1.83301 40.333 -5.5 55s-10 26.5 -19 35.5s-21.333 15.333 -37 19s-35.167 5.5 -58.5 5.5c-20.667 0 -44.667 -1.66699 -72 -5
s-54.333 -7.66602 -81 -12.999l-8 80c63.333 12.667 123.333 19 180 19c71.333 0 123.833 -14.167 157.5 -42.5s50.5 -72.833 50.5 -133.5v-371h-88l-10 67h-7c-27.333 -22 -55.666 -39.5 -84.999 -52.5s-59.666 -19.5 -90.999 -19.5zM216.998 75
c21.333 0 43.833 5.5 67.5 16.5s45.5 23.167 65.5 36.5v125l-88 -8c-44.667 -4.66699 -76 -14 -94 -28s-27 -36 -27 -66c0 -50.667 25.333 -76 76 -76zM261.998 600c-35.333 0 -63.833 10.167 -85.5 30.5s-32.5 46.5 -32.5 78.5s10.667 58.167 32 78.5s50 30.5 86 30.5
c35.333 0 63.833 -10.167 85.5 -30.5s32.5 -46.5 32.5 -78.5s-10.833 -58.167 -32.5 -78.5s-50.167 -30.5 -85.5 -30.5zM261.998 648c21.333 0 37.166 5.5 47.499 16.5s15.5 25.833 15.5 44.5s-5.16699 33.5 -15.5 44.5s-26.166 16.5 -47.499 16.5s-37.333 -5.5 -48 -16.5
s-16 -25.833 -16 -44.5c0 -19.333 5.33301 -34.333 16 -45s26.667 -16 48 -16z" />
    <glyph glyph-name="ae" unicode="&#xe6;" horiz-adv-x="837" 
d="M598 -10c-89.333 0 -153.333 30.9961 -192 92.9961h-6c-48.667 -31.333 -90.167 -53.833 -124.5 -67.5s-67.5 -20.5 -99.5 -20.5c-46 0 -81.167 12.833 -105.5 38.5s-36.5 61.5 -36.5 107.5c0 52 16 91.5 48 118.5s82.333 43.167 151 48.5l118 9v44
c-0.666992 38.667 -10 65.834 -28 81.501s-49.667 23.5 -95 23.5c-20.667 0 -44.5 -1.66699 -71.5 -5s-53.167 -7.66602 -78.5 -12.999l-9 80c34 6.66699 65.833 11.5 95.5 14.5s58.167 4.5 85.5 4.5c85.333 0 139.666 -29 162.999 -87h6c18.667 28.667 42.667 50.5 72 65.5
s64 22.5 104 22.5c66.667 0 117 -20.167 151 -60.5s51 -99.833 51 -178.5c0 -17.333 -0.5 -31.666 -1.5 -42.999s-2.5 -21.666 -4.5 -30.999h-332c2 -55.333 14.833 -96 38.5 -122s60.167 -39 109.5 -39c24.667 0 51.334 2.33301 80.001 7s57.334 11.667 86.001 21l5 -81
c-26.667 -9.33301 -55.834 -16.833 -87.501 -22.5s-62.5 -8.5 -92.5 -8.5zM218 73.9961c19.333 0 40.5 5.16602 63.5 15.499s48.167 24.5 75.5 42.5c-1.33301 2.66699 -2.33301 9.83398 -3 21.501s-1.16699 24.167 -1.5 37.5s-0.666016 26 -0.999023 38s-0.5 20.333 -0.5 25
l-89 -8c-44.667 -4 -75.834 -13.333 -93.501 -28s-26.5 -37 -26.5 -67c0 -51.333 25.333 -77 76 -77zM700 299.995c-1.33301 60 -10.333 102.833 -27 128.5s-43.667 38.5 -81 38.5c-83.333 0 -128 -55.667 -134 -167h242z" />
    <glyph glyph-name="ccedilla" unicode="&#xe7;" horiz-adv-x="456" 
d="M223 -220c-12.667 0 -26.5 1.16797 -41.5 3.50098s-29.833 5.16602 -44.5 8.49902v69c10 -3.33301 21 -6 33 -8s23.333 -3 34 -3c21.333 0 36.833 4.33301 46.5 13s14.5 21.667 14.5 39c0 13.333 -2.66699 27.5 -8 42.5s-14.333 32.167 -27 51.5
c-126 20.667 -189 112 -189 274c0 186 84 279 252 279c20 0 40.833 -1.16699 62.5 -3.5s42.167 -5.83301 61.5 -10.5v-88c-38.667 8.66699 -76.334 13 -113.001 13c-54 0 -93.333 -15.167 -118 -45.5s-37 -78.5 -37 -144.5c0 -66.667 12 -115 36 -145s63 -45 117 -45
c20.667 0 39.834 0.833008 57.501 2.5s36.834 4.83398 57.501 9.50098v-86c-14.667 -4 -31.834 -7.33301 -51.501 -10s-39.167 -4.33398 -58.5 -5.00098c13.333 -20.667 22.333 -38.667 27 -54s7 -31 7 -47c0 -34.667 -10.167 -61.667 -30.5 -81s-49.5 -29 -87.5 -29z" />
    <glyph glyph-name="egrave" unicode="&#xe8;" horiz-adv-x="526" 
d="M287 -9c-80.667 0 -141.668 23.001 -183.001 69.001s-62 113.667 -62 203c0 93.333 20.5 164.333 61.5 213s100.833 73 179.5 73c135.333 0 203 -80.333 203 -241c0 -16 -0.5 -29.833 -1.5 -41.5s-2.5 -22.5 -4.5 -32.5h-331c3.33301 -56.667 16.5 -97.334 39.5 -122.001
s59.167 -37 108.5 -37c24.667 0 51.334 2.33301 80.001 7s56.667 11.667 84 21l5 -81c-25.333 -9.33301 -54 -16.833 -86 -22.5s-63 -8.5 -93 -8.5zM279.999 469.001c-41.333 0 -72.668 -13.3311 -94.001 -39.998s-33.666 -68.334 -36.999 -125.001h240
c-1.33301 59.333 -10.333 101.666 -27 126.999s-44 38 -82 38zM228.997 612.003l-104 193h113l69 -183z" />
    <glyph glyph-name="eacute" unicode="&#xe9;" horiz-adv-x="526" 
d="M240 617l70 185h110l-103 -193zM287 -9c-80.667 0 -141.668 23.001 -183.001 69.001s-62 113.667 -62 203c0 93.333 20.5 164.333 61.5 213s100.833 73 179.5 73c135.333 0 203 -80.333 203 -241c0 -16 -0.5 -29.833 -1.5 -41.5s-2.5 -22.5 -4.5 -32.5h-331
c3.33301 -56.667 16.5 -97.334 39.5 -122.001s59.167 -37 108.5 -37c24.667 0 51.334 2.33301 80.001 7s56.667 11.667 84 21l5 -81c-25.333 -9.33301 -54 -16.833 -86 -22.5s-63 -8.5 -93 -8.5zM279.999 469.001c-41.333 0 -72.668 -13.3311 -94.001 -39.998
s-33.666 -68.334 -36.999 -125.001h240c-1.33301 59.333 -10.333 101.666 -27 126.999s-44 38 -82 38z" />
    <glyph glyph-name="ecircumflex" unicode="&#xea;" horiz-adv-x="526" 
d="M111 706l163 74l165 -74v-80l-164 73l-164 -73v80zM287 -9c-80.667 0 -141.668 23.001 -183.001 69.001s-62 113.667 -62 203c0 93.333 20.5 164.333 61.5 213s100.833 73 179.5 73c135.333 0 203 -80.333 203 -241c0 -16 -0.5 -29.833 -1.5 -41.5s-2.5 -22.5 -4.5 -32.5
h-331c3.33301 -56.667 16.5 -97.334 39.5 -122.001s59.167 -37 108.5 -37c24.667 0 51.334 2.33301 80.001 7s56.667 11.667 84 21l5 -81c-25.333 -9.33301 -54 -16.833 -86 -22.5s-63 -8.5 -93 -8.5zM279.999 469.001c-41.333 0 -72.668 -13.3311 -94.001 -39.998
s-33.666 -68.334 -36.999 -125.001h240c-1.33301 59.333 -10.333 101.666 -27 126.999s-44 38 -82 38z" />
    <glyph glyph-name="edieresis" unicode="&#xeb;" horiz-adv-x="526" 
d="M157 636c-39.333 0 -59 19.333 -59 58c0 37.333 19.667 56 59 56s59 -18.667 59 -56c0 -38.667 -19.667 -58 -59 -58zM387 636c-39.333 0 -59 19.333 -59 58c0 37.333 19.667 56 59 56c38.667 0 58 -18.667 58 -56c0 -38.667 -19.333 -58 -58 -58zM287 -9
c-80.667 0 -141.668 23.001 -183.001 69.001s-62 113.667 -62 203c0 93.333 20.5 164.333 61.5 213s100.833 73 179.5 73c135.333 0 203 -80.333 203 -241c0 -16 -0.5 -29.833 -1.5 -41.5s-2.5 -22.5 -4.5 -32.5h-331c3.33301 -56.667 16.5 -97.334 39.5 -122.001
s59.167 -37 108.5 -37c24.667 0 51.334 2.33301 80.001 7s56.667 11.667 84 21l5 -81c-25.333 -9.33301 -54 -16.833 -86 -22.5s-63 -8.5 -93 -8.5zM279.999 469.001c-41.333 0 -72.668 -13.3311 -94.001 -39.998s-33.666 -68.334 -36.999 -125.001h240
c-1.33301 59.333 -10.333 101.666 -27 126.999s-44 38 -82 38z" />
    <glyph glyph-name="igrave" unicode="&#xec;" horiz-adv-x="242" 
d="M68 540h106v-540h-106v540zM81 612l-104 193h113l69 -183z" />
    <glyph glyph-name="iacute" unicode="&#xed;" horiz-adv-x="242" 
d="M85 617l70 185h110l-103 -193zM68 540h106v-540h-106v540z" />
    <glyph glyph-name="icircumflex" unicode="&#xee;" horiz-adv-x="243" 
d="M-34 706l159 74l160 -74v-80l-159 73l-160 -73v80zM69 540h106v-540h-106v540z" />
    <glyph glyph-name="idieresis" unicode="&#xef;" horiz-adv-x="243" 
d="M14 636c-39.333 0 -59 19.333 -59 58c0 37.333 19.667 56 59 56c38.667 0 58 -18.667 58 -56c0 -38.667 -19.333 -58 -58 -58zM234 636c-39.333 0 -59 19.333 -59 58c0 37.333 19.667 56 59 56c38.667 0 58 -18.667 58 -56c0 -38.667 -19.333 -58 -58 -58zM69 540h106
v-540h-106v540z" />
    <glyph glyph-name="eth" unicode="&#xf0;" horiz-adv-x="582" 
d="M205 688l116.999 12.9971c-11.333 18.667 -23.5 36.834 -36.5 54.501s-26.833 35.167 -41.5 52.5h110c10.667 -14 21.334 -29 32.001 -45s21 -33 31 -51l139 16v-71l-104 -12c23.333 -50 42.5 -104.667 57.5 -164s22.5 -123.333 22.5 -192
c0 -98 -20.833 -172.333 -62.5 -223s-102.834 -76 -183.501 -76c-79.333 0 -140 23.833 -182 71.5s-63 116.834 -63 207.501c0 91.333 20.833 161 62.5 209s100.834 72 177.501 72c30 0 55.5 -5.16699 76.5 -15.5s39.167 -26.833 54.5 -49.5
c-12.667 50.667 -30.667 100.334 -54 149.001l-153 -17v71zM286.999 74.9971c48 0 82.999 15.832 104.999 47.499s33 83.167 33 154.5c0 26.667 -2.5 51.5 -7.5 74.5s-13 42.833 -24 59.5s-25.333 29.667 -43 39s-39.167 14 -64.5 14c-48.667 0 -83.667 -15.167 -105 -45.5
s-32 -79.833 -32 -148.5c0 -69.333 10.833 -119.166 32.5 -149.499s56.834 -45.5 105.501 -45.5z" />
    <glyph glyph-name="ntilde" unicode="&#xf1;" horiz-adv-x="579" 
d="M67 540l89.999 -0.000976562l7 -61h5c23.333 12.667 44.833 23.5 64.5 32.5s37.834 16.333 54.501 22s32.5 9.83398 47.5 12.501s29.833 4 44.5 4c44 0 77.5 -12 100.5 -36s34.5 -61 34.5 -111v-403h-106v369c0 33.333 -6 56.833 -18 70.5s-30.667 20.5 -56 20.5
c-22 0 -46.833 -4.5 -74.5 -13.5s-56.5 -21.5 -86.5 -37.5v-409h-107v540zM99.999 667.999c17.333 27.333 37.333 48.167 60 62.5s44.667 21.5 66 21.5c15.333 0 29.666 -2.33301 42.999 -7s26.5 -9.83398 39.5 -15.501s26 -10.834 39 -15.501s26.5 -7 40.5 -7
c27.333 0 54 13 80 39l27 -29c-16.667 -28 -36.5 -49.167 -59.5 -63.5s-45.833 -21.5 -68.5 -21.5c-14.667 0 -28.667 2.33301 -42 7s-26.666 9.83398 -39.999 15.501s-26.5 10.834 -39.5 15.501s-26.5 7 -40.5 7c-26 0 -52.333 -12.667 -79 -38z" />
    <glyph glyph-name="ograve" unicode="&#xf2;" horiz-adv-x="573" 
d="M287 -10c-80.667 0 -141.834 23.833 -183.501 71.5s-62.5 117.167 -62.5 208.5s20.833 160.833 62.5 208.5s102.834 71.5 183.501 71.5c80 0 140.833 -23.833 182.5 -71.5s62.5 -117.167 62.5 -208.5s-20.833 -160.833 -62.5 -208.5s-102.5 -71.5 -182.5 -71.5zM287 75
c48.667 0 83.833 15.167 105.5 45.5s32.5 80.166 32.5 149.499s-11 119 -33 149s-57 45 -105 45c-48.667 0 -83.834 -15 -105.501 -45s-32.5 -79.667 -32.5 -149s10.833 -119.166 32.5 -149.499s56.834 -45.5 105.501 -45.5zM239.999 612l-104 193h113l69 -183z" />
    <glyph glyph-name="oacute" unicode="&#xf3;" horiz-adv-x="573" 
d="M242 617l70 185h110l-103 -193zM287 -10c-80.667 0 -141.834 23.833 -183.501 71.5s-62.5 117.167 -62.5 208.5s20.833 160.833 62.5 208.5s102.834 71.5 183.501 71.5c80 0 140.833 -23.833 182.5 -71.5s62.5 -117.167 62.5 -208.5s-20.833 -160.833 -62.5 -208.5
s-102.5 -71.5 -182.5 -71.5zM287 75c48.667 0 83.833 15.167 105.5 45.5s32.5 80.166 32.5 149.499s-11 119 -33 149s-57 45 -105 45c-48.667 0 -83.834 -15 -105.501 -45s-32.5 -79.667 -32.5 -149s10.833 -119.166 32.5 -149.499s56.834 -45.5 105.501 -45.5z" />
    <glyph glyph-name="ocircumflex" unicode="&#xf4;" horiz-adv-x="573" 
d="M121 706l163 74l165 -74v-80l-164 73l-164 -73v80zM287 -10c-80.667 0 -141.834 23.833 -183.501 71.5s-62.5 117.167 -62.5 208.5s20.833 160.833 62.5 208.5s102.834 71.5 183.501 71.5c80 0 140.833 -23.833 182.5 -71.5s62.5 -117.167 62.5 -208.5
s-20.833 -160.833 -62.5 -208.5s-102.5 -71.5 -182.5 -71.5zM287 75c48.667 0 83.833 15.167 105.5 45.5s32.5 80.166 32.5 149.499s-11 119 -33 149s-57 45 -105 45c-48.667 0 -83.834 -15 -105.501 -45s-32.5 -79.667 -32.5 -149s10.833 -119.166 32.5 -149.499
s56.834 -45.5 105.501 -45.5z" />
    <glyph glyph-name="otilde" unicode="&#xf5;" horiz-adv-x="573" 
d="M287 -10c-80.667 0 -141.834 23.833 -183.501 71.5s-62.5 117.167 -62.5 208.5s20.833 160.833 62.5 208.5s102.834 71.5 183.501 71.5c80 0 140.833 -23.833 182.5 -71.5s62.5 -117.167 62.5 -208.5s-20.833 -160.833 -62.5 -208.5s-102.5 -71.5 -182.5 -71.5zM287 75
c48.667 0 83.833 15.167 105.5 45.5s32.5 80.166 32.5 149.499s-11 119 -33 149s-57 45 -105 45c-48.667 0 -83.834 -15 -105.501 -45s-32.5 -79.667 -32.5 -149s10.833 -119.166 32.5 -149.499s56.834 -45.5 105.501 -45.5zM88.999 668
c17.333 27.333 37.333 48.167 60 62.5s44.667 21.5 66 21.5c15.333 0 29.666 -2.33301 42.999 -7s26.5 -9.83398 39.5 -15.501s26 -10.834 39 -15.501s26.5 -7 40.5 -7c27.333 0 54 13 80 39l27 -29c-16.667 -28 -36.5 -49.167 -59.5 -63.5s-45.833 -21.5 -68.5 -21.5
c-14.667 0 -28.667 2.33301 -42 7s-26.666 9.83398 -39.999 15.501s-26.5 10.834 -39.5 15.501s-26.5 7 -40.5 7c-26 0 -52.333 -12.667 -79 -38z" />
    <glyph glyph-name="odieresis" unicode="&#xf6;" horiz-adv-x="573" 
d="M168 636c-39.333 0 -59 19.333 -59 58c0 37.333 19.667 56 59 56s59 -18.667 59 -56c0 -38.667 -19.667 -58 -59 -58zM398 636c-39.333 0 -59 19.333 -59 58c0 37.333 19.667 56 59 56c38.667 0 58 -18.667 58 -56c0 -38.667 -19.333 -58 -58 -58zM287 -10
c-80.667 0 -141.834 23.833 -183.501 71.5s-62.5 117.167 -62.5 208.5s20.833 160.833 62.5 208.5s102.834 71.5 183.501 71.5c80 0 140.833 -23.833 182.5 -71.5s62.5 -117.167 62.5 -208.5s-20.833 -160.833 -62.5 -208.5s-102.5 -71.5 -182.5 -71.5zM287 75
c48.667 0 83.833 15.167 105.5 45.5s32.5 80.166 32.5 149.499s-11 119 -33 149s-57 45 -105 45c-48.667 0 -83.834 -15 -105.501 -45s-32.5 -79.667 -32.5 -149s10.833 -119.166 32.5 -149.499s56.834 -45.5 105.501 -45.5z" />
    <glyph glyph-name="divide" unicode="&#xf7;" horiz-adv-x="516" 
d="M261 149c-15.333 0 -28 4.5 -38 13.5s-15 22.167 -15 39.5s5 30.5 15 39.5s22.667 13.5 38 13.5s28 -4.5 38 -13.5s15 -22.167 15 -39.5s-5 -30.5 -15 -39.5s-22.667 -13.5 -38 -13.5zM54 408h409v-76h-409v76zM261 480c-15.333 0 -28 4.5 -38 13.5s-15 22.167 -15 39.5
s5 30.666 15 39.999s22.667 14 38 14s28 -4.66699 38 -14s15 -22.666 15 -39.999s-5 -30.5 -15 -39.5s-22.667 -13.5 -38 -13.5z" />
    <glyph glyph-name="oslash" unicode="&#xf8;" horiz-adv-x="579" 
d="M90 83c-30.667 46.667 -46 109 -46 187c0 90 20.5 159.167 61.5 207.5s102.5 72.5 184.5 72.5c64.667 0 116.667 -15.667 156 -47l32 37h81l-70 -83c31.333 -46.667 47 -109 47 -187c0 -90.667 -20.667 -160 -62 -208s-102.666 -72 -183.999 -72
c-66.667 0 -119.334 16 -158.001 48l-32 -38h-81zM290 75c50.667 0 86.333 15.501 107 46.501s31 80.5 31 148.5c0 39.333 -3.66699 73.666 -11 102.999l-225 -264c22 -22.667 54.667 -34 98 -34zM151.999 270.001c0 -41.333 3.33203 -75.333 9.99902 -102l223 263
c-22 22 -53.667 33 -95 33c-51.333 0 -87.166 -15.333 -107.499 -46s-30.5 -80 -30.5 -148z" />
    <glyph glyph-name="ugrave" unicode="&#xf9;" horiz-adv-x="579" 
d="M201 -10c-46 0 -80.5 12.501 -103.5 37.501s-34.5 61.5 -34.5 109.5v403h107v-371c0 -32.667 5.5 -55.667 16.5 -69s29.833 -20 56.5 -20c25.333 0 51.5 5.16699 78.5 15.5s54.833 23.166 83.5 38.499v406h107v-540h-90l-7 62h-4l-63 -32.5c-18 -9 -35 -16.5 -51 -22.5
s-31.5 -10.333 -46.5 -13s-31.5 -4 -49.5 -4zM244 612.001l-104 193h113l69 -183z" />
    <glyph glyph-name="uacute" unicode="&#xfa;" horiz-adv-x="579" 
d="M245 617l70 185h110l-103 -193zM201 -10c-46 0 -80.5 12.501 -103.5 37.501s-34.5 61.5 -34.5 109.5v403h107v-371c0 -32.667 5.5 -55.667 16.5 -69s29.833 -20 56.5 -20c25.333 0 51.5 5.16699 78.5 15.5s54.833 23.166 83.5 38.499v406h107v-540h-90l-7 62h-4
l-63 -32.5c-18 -9 -35 -16.5 -51 -22.5s-31.5 -10.333 -46.5 -13s-31.5 -4 -49.5 -4z" />
    <glyph glyph-name="ucircumflex" unicode="&#xfb;" horiz-adv-x="579" 
d="M126 706l163 74l165 -74v-80l-164 73l-164 -73v80zM201 -10c-46 0 -80.5 12.501 -103.5 37.501s-34.5 61.5 -34.5 109.5v403h107v-371c0 -32.667 5.5 -55.667 16.5 -69s29.833 -20 56.5 -20c25.333 0 51.5 5.16699 78.5 15.5s54.833 23.166 83.5 38.499v406h107v-540h-90
l-7 62h-4l-63 -32.5c-18 -9 -35 -16.5 -51 -22.5s-31.5 -10.333 -46.5 -13s-31.5 -4 -49.5 -4z" />
    <glyph glyph-name="udieresis" unicode="&#xfc;" horiz-adv-x="579" 
d="M172 636c-39.333 0 -59 19.333 -59 58c0 37.333 19.667 56 59 56s59 -18.667 59 -56c0 -38.667 -19.667 -58 -59 -58zM402 636c-39.333 0 -59 19.333 -59 58c0 37.333 19.667 56 59 56c38.667 0 58 -18.667 58 -56c0 -38.667 -19.333 -58 -58 -58zM201 -10
c-46 0 -80.5 12.501 -103.5 37.501s-34.5 61.5 -34.5 109.5v403h107v-371c0 -32.667 5.5 -55.667 16.5 -69s29.833 -20 56.5 -20c25.333 0 51.5 5.16699 78.5 15.5s54.833 23.166 83.5 38.499v406h107v-540h-90l-7 62h-4l-63 -32.5c-18 -9 -35 -16.5 -51 -22.5
s-31.5 -10.333 -46.5 -13s-31.5 -4 -49.5 -4z" />
    <glyph glyph-name="yacute" unicode="&#xfd;" horiz-adv-x="550" 
d="M145 -202l-1 9l76 197l-209 525v11h113l126 -349l21 -77h7l22 77l129 349h110v-11l-293 -749zM239 617l70 185h110l-103 -193z" />
    <glyph glyph-name="thorn" unicode="&#xfe;" horiz-adv-x="579" 
d="M67 808h106.999v-322c18.667 19.333 41.334 34.666 68.001 45.999s57.667 17 93 17c68 0 118.833 -22.167 152.5 -66.5s50.5 -112.166 50.5 -203.499c0 -95.333 -22.5 -167.333 -67.5 -216s-112.167 -73 -201.5 -73c-14 0 -29.5 1 -46.5 3s-33.167 4 -48.5 6v-219h-107
v1028zM269.999 66c28 0 52.001 3.33008 72.001 9.99707s36.5 17.834 49.5 33.501s22.5 36.5 28.5 62.5s9 58.333 9 97c0 38 -2.5 69.833 -7.5 95.5s-12.667 46.334 -23 62.001s-23.5 26.834 -39.5 33.501s-35 10 -57 10c-40.667 0 -72.167 -12.667 -94.5 -38
s-33.5 -64 -33.5 -116v-237c16 -4 32.667 -7.16699 50 -9.5s32.666 -3.5 45.999 -3.5z" />
    <glyph glyph-name="ydieresis" unicode="&#xff;" horiz-adv-x="550" 
d="M145 -202l-1 9l76 197l-209 525v11h113l126 -349l21 -77h7l22 77l129 349h110v-11l-293 -749zM162 636c-39.333 0 -59 19.333 -59 58c0 37.333 19.667 56 59 56s59 -18.667 59 -56c0 -38.667 -19.667 -58 -59 -58zM392 636c-39.333 0 -59 19.333 -59 58
c0 37.333 19.667 56 59 56c38.667 0 58 -18.667 58 -56c0 -38.667 -19.333 -58 -58 -58z" />
    <glyph glyph-name="Amacron" unicode="&#x100;" horiz-adv-x="656" 
d="M5 7l242 733h162l242 -733v-7h-105l-70 209h-297l-69 -209h-105v7zM450 298l-78 234l-40 126h-9l-40 -126l-77 -234h244zM167 917h316v-76h-316v76z" />
    <glyph glyph-name="amacron" unicode="&#x101;" horiz-adv-x="520" 
d="M176 -5c-46 0 -81.335 12.833 -106.002 38.5s-37 61.5 -37 107.5c0 52 16.167 91.667 48.5 119s82.833 43.666 151.5 48.999l117 9v33c0 22 -1.83301 40.333 -5.5 55s-10 26.5 -19 35.5s-21.333 15.333 -37 19s-35.167 5.5 -58.5 5.5c-20.667 0 -44.667 -1.66699 -72 -5
s-54.333 -7.66602 -81 -12.999l-8 80c63.333 12.667 123.333 19 180 19c71.333 0 123.833 -14.167 157.5 -42.5s50.5 -72.833 50.5 -133.5v-371h-88l-10 67h-7c-27.333 -22 -55.666 -39.5 -84.999 -52.5s-59.666 -19.5 -90.999 -19.5zM216.998 75
c21.333 0 43.833 5.5 67.5 16.5s45.5 23.167 65.5 36.5v125l-88 -8c-44.667 -4.66699 -76 -14 -94 -28s-27 -36 -27 -66c0 -50.667 25.333 -76 76 -76zM104.998 717h322v-74h-322v74z" />
    <glyph glyph-name="Abreve" unicode="&#x102;" horiz-adv-x="656" 
d="M5 7l242 733h162l242 -733v-7h-105l-70 209h-297l-69 -209h-105v7zM450 298l-78 234l-40 126h-9l-40 -126l-77 -234h244zM328 810c-60.667 0 -105.832 14.167 -135.499 42.5s-44.5 65.833 -44.5 112.5h77c0 -31.333 8.33301 -55.166 25 -71.499s42.667 -24.5 78 -24.5
s61.333 8.16699 78 24.5s25 40.166 25 71.499h77c0 -47.333 -14.833 -85 -44.5 -113s-74.834 -42 -135.501 -42z" />
    <glyph glyph-name="abreve" unicode="&#x103;" horiz-adv-x="520" 
d="M176 -5c-46 0 -81.335 12.833 -106.002 38.5s-37 61.5 -37 107.5c0 52 16.167 91.667 48.5 119s82.833 43.666 151.5 48.999l117 9v33c0 22 -1.83301 40.333 -5.5 55s-10 26.5 -19 35.5s-21.333 15.333 -37 19s-35.167 5.5 -58.5 5.5c-20.667 0 -44.667 -1.66699 -72 -5
s-54.333 -7.66602 -81 -12.999l-8 80c63.333 12.667 123.333 19 180 19c71.333 0 123.833 -14.167 157.5 -42.5s50.5 -72.833 50.5 -133.5v-371h-88l-10 67h-7c-27.333 -22 -55.666 -39.5 -84.999 -52.5s-59.666 -19.5 -90.999 -19.5zM216.998 75
c21.333 0 43.833 5.5 67.5 16.5s45.5 23.167 65.5 36.5v125l-88 -8c-44.667 -4.66699 -76 -14 -94 -28s-27 -36 -27 -66c0 -50.667 25.333 -76 76 -76zM262.998 617c-62 0 -107.333 13.833 -136 41.5s-43.667 65.5 -45 113.5h77c0 -63.333 34.667 -95 104 -95
c68.667 0 103 31.667 103 95h77c-1.33301 -48 -16.333 -85.833 -45 -113.5s-73.667 -41.5 -135 -41.5z" />
    <glyph glyph-name="Aogonek" unicode="&#x104;" horiz-adv-x="655" 
d="M578 -220c-74.667 0 -111.997 29.335 -111.997 88.002c0 24.667 7.66699 47.5 23 68.5s40 42.167 74 63.5h-17l-70 209h-297l-69 -209h-105v7l242 733h162l242 -733v-22c-38.667 -16.667 -66.834 -34.334 -84.501 -53.001s-26.5 -36.667 -26.5 -54
c0 -22 14.333 -33 43 -33c9.33301 0 20.166 1.16699 32.499 3.5s24.166 5.16602 35.499 8.49902v-65c-22 -8 -46.333 -12 -73 -12zM450.003 298.002l-78 234l-40 126h-9l-40 -126l-77 -234h244z" />
    <glyph glyph-name="aogonek" unicode="&#x105;" horiz-adv-x="520" 
d="M384 -220c-74.667 0 -111.999 29.335 -111.999 88.002c0 24.667 7.66699 47.5 23 68.5s40 42.167 74 63.5l-10 67h-7c-27.333 -22 -55.666 -39.5 -84.999 -52.5s-59.666 -19.5 -90.999 -19.5c-46 0 -81.333 12.833 -106 38.5s-37 61.5 -37 107.5
c0 52 16.167 91.667 48.5 119s82.833 43.666 151.5 48.999l117 9v33c0 22 -1.83301 40.333 -5.5 55s-10 26.5 -19 35.5s-21.333 15.333 -37 19s-35.167 5.5 -58.5 5.5c-20.667 0 -44.667 -1.66699 -72 -5s-54.333 -7.66602 -81 -12.999l-8 80
c63.333 12.667 123.333 19 180 19c71.333 0 123.833 -14.167 157.5 -42.5s50.5 -72.833 50.5 -133.5v-386c-38.667 -16.667 -66.834 -34.334 -84.501 -53.001s-26.5 -36.667 -26.5 -54c0 -22 14.333 -33 43 -33c9.33301 0 20.166 1.16699 32.499 3.5
s24.166 5.16602 35.499 8.49902v-65c-22 -8 -46.333 -12 -73 -12zM217.001 75.002c21.333 0 43.833 5.5 67.5 16.5s45.5 23.167 65.5 36.5v125l-88 -8c-44.667 -4.66699 -76 -14 -94 -28s-27 -36 -27 -66c0 -50.667 25.333 -76 76 -76z" />
    <glyph glyph-name="Cacute" unicode="&#x106;" horiz-adv-x="560" 
d="M377 -10c-112.667 0.666992 -196.164 31.666 -250.497 92.999s-81.5 156.666 -81.5 285.999c0 130.667 26.833 226.834 80.5 288.501s136.167 92.5 247.5 92.5c21.333 0 45 -1.33301 71 -4s53 -6.33398 81 -11.001v-91c-28 5.33301 -53.167 9 -75.5 11
s-43.166 3 -62.499 3c-41.333 0 -76.5 -5.16699 -105.5 -15.5s-52.667 -27 -71 -50s-31.833 -52.833 -40.5 -89.5s-13 -81.334 -13 -134.001c0 -51.333 4.33301 -95.166 13 -131.499s22.167 -66 40.5 -89s41.666 -39.833 69.999 -50.5s62.166 -16 101.499 -16
c9.33301 0 20.333 0.333008 33 1s25.5 1.83398 38.5 3.50098l38.5 5c12.667 1.66699 23.667 3.5 33 5.5v-89c-20.667 -5.33301 -44.334 -9.66602 -71.001 -12.999s-52.334 -5 -77.001 -5zM283.003 802.999l72 149h111l-102 -156z" />
    <glyph glyph-name="cacute" unicode="&#x107;" horiz-adv-x="456" 
d="M222 617l70 185h110l-103 -193zM293 -9c-84.667 0 -147.834 22.832 -189.501 68.499s-62.5 115.834 -62.5 210.501c0 186 84 279 252 279c20 0 40.833 -1.16699 62.5 -3.5s42.167 -5.83301 61.5 -10.5v-88c-38.667 8.66699 -76.334 13 -113.001 13
c-54 0 -93.333 -15.167 -118 -45.5s-37 -78.5 -37 -144.5c0 -66.667 12 -115 36 -145s63 -45 117 -45c20.667 0 39.834 0.833008 57.501 2.5s36.834 4.83398 57.501 9.50098v-86c-16 -4.66699 -35.333 -8.33398 -58 -11.001s-44.667 -4 -66 -4z" />
    <glyph glyph-name="Ccircumflex" unicode="&#x108;" horiz-adv-x="560" 
d="M377 -10c-112.667 0.666992 -196.164 31.666 -250.497 92.999s-81.5 156.666 -81.5 285.999c0 130.667 26.833 226.834 80.5 288.501s136.167 92.5 247.5 92.5c21.333 0 45 -1.33301 71 -4s53 -6.33398 81 -11.001v-91c-28 5.33301 -53.167 9 -75.5 11
s-43.166 3 -62.499 3c-41.333 0 -76.5 -5.16699 -105.5 -15.5s-52.667 -27 -71 -50s-31.833 -52.833 -40.5 -89.5s-13 -81.334 -13 -134.001c0 -51.333 4.33301 -95.166 13 -131.499s22.167 -66 40.5 -89s41.666 -39.833 69.999 -50.5s62.166 -16 101.499 -16
c9.33301 0 20.333 0.333008 33 1s25.5 1.83398 38.5 3.50098l38.5 5c12.667 1.66699 23.667 3.5 33 5.5v-89c-20.667 -5.33301 -44.334 -9.66602 -71.001 -12.999s-52.334 -5 -77.001 -5zM165.003 887.999l164 74l164 -74v-81l-164 74l-164 -74v81z" />
    <glyph glyph-name="ccircumflex" unicode="&#x109;" horiz-adv-x="456" 
d="M97 706l163 74l165 -74v-80l-164 73l-164 -73v80zM293 -9c-84.667 0 -147.834 22.832 -189.501 68.499s-62.5 115.834 -62.5 210.501c0 186 84 279 252 279c20 0 40.833 -1.16699 62.5 -3.5s42.167 -5.83301 61.5 -10.5v-88c-38.667 8.66699 -76.334 13 -113.001 13
c-54 0 -93.333 -15.167 -118 -45.5s-37 -78.5 -37 -144.5c0 -66.667 12 -115 36 -145s63 -45 117 -45c20.667 0 39.834 0.833008 57.501 2.5s36.834 4.83398 57.501 9.50098v-86c-16 -4.66699 -35.333 -8.33398 -58 -11.001s-44.667 -4 -66 -4z" />
    <glyph glyph-name="Cdotaccent" unicode="&#x10a;" horiz-adv-x="560" 
d="M335 806c-22 0 -38.333 5 -49 15s-16 26 -16 48c0 22.667 5.33301 39 16 49s27 15 49 15c43.333 0 65 -21.333 65 -64c0 -42 -21.667 -63 -65 -63zM377 -10c-112.667 0.666992 -196.164 31.666 -250.497 92.999s-81.5 156.666 -81.5 285.999
c0 130.667 26.833 226.834 80.5 288.501s136.167 92.5 247.5 92.5c21.333 0 45 -1.33301 71 -4s53 -6.33398 81 -11.001v-91c-28 5.33301 -53.167 9 -75.5 11s-43.166 3 -62.499 3c-41.333 0 -76.5 -5.16699 -105.5 -15.5s-52.667 -27 -71 -50s-31.833 -52.833 -40.5 -89.5
s-13 -81.334 -13 -134.001c0 -51.333 4.33301 -95.166 13 -131.499s22.167 -66 40.5 -89s41.666 -39.833 69.999 -50.5s62.166 -16 101.499 -16c9.33301 0 20.333 0.333008 33 1s25.5 1.83398 38.5 3.50098l38.5 5c12.667 1.66699 23.667 3.5 33 5.5v-89
c-20.667 -5.33301 -44.334 -9.66602 -71.001 -12.999s-52.334 -5 -77.001 -5z" />
    <glyph glyph-name="cdotaccent" unicode="&#x10b;" horiz-adv-x="456" 
d="M293 -9c-84.667 0 -147.834 22.832 -189.501 68.499s-62.5 115.834 -62.5 210.501c0 186 84 279 252 279c20 0 40.833 -1.16699 62.5 -3.5s42.167 -5.83301 61.5 -10.5v-88c-38.667 8.66699 -76.334 13 -113.001 13c-54 0 -93.333 -15.167 -118 -45.5
s-37 -78.5 -37 -144.5c0 -66.667 12 -115 36 -145s63 -45 117 -45c20.667 0 39.834 0.833008 57.501 2.5s36.834 4.83398 57.501 9.50098v-86c-16 -4.66699 -35.333 -8.33398 -58 -11.001s-44.667 -4 -66 -4zM257 629.999c-21.333 0 -37.333 5 -48 15s-16 26.333 -16 49
c0 42 21.333 63 64 63c43.333 0 65 -21 65 -63c0 -22.667 -5.5 -39 -16.5 -49s-27.167 -15 -48.5 -15z" />
    <glyph glyph-name="Ccaron" unicode="&#x10c;" horiz-adv-x="560" 
d="M377 -10c-112.667 0.666992 -196.164 31.666 -250.497 92.999s-81.5 156.666 -81.5 285.999c0 130.667 26.833 226.834 80.5 288.501s136.167 92.5 247.5 92.5c21.333 0 45 -1.33301 71 -4s53 -6.33398 81 -11.001v-91c-28 5.33301 -53.167 9 -75.5 11
s-43.166 3 -62.499 3c-41.333 0 -76.5 -5.16699 -105.5 -15.5s-52.667 -27 -71 -50s-31.833 -52.833 -40.5 -89.5s-13 -81.334 -13 -134.001c0 -51.333 4.33301 -95.166 13 -131.499s22.167 -66 40.5 -89s41.666 -39.833 69.999 -50.5s62.166 -16 101.499 -16
c9.33301 0 20.333 0.333008 33 1s25.5 1.83398 38.5 3.50098l38.5 5c12.667 1.66699 23.667 3.5 33 5.5v-89c-20.667 -5.33301 -44.334 -9.66602 -71.001 -12.999s-52.334 -5 -77.001 -5zM168.003 955.999l164 -74l164 74v-81l-165 -73l-163 73v81z" />
    <glyph glyph-name="ccaron" unicode="&#x10d;" horiz-adv-x="456" 
d="M96 778l163 -74l164 74v-80l-164 -74l-163 74v80zM293 -9c-84.667 0 -147.834 22.832 -189.501 68.499s-62.5 115.834 -62.5 210.501c0 186 84 279 252 279c20 0 40.833 -1.16699 62.5 -3.5s42.167 -5.83301 61.5 -10.5v-88c-38.667 8.66699 -76.334 13 -113.001 13
c-54 0 -93.333 -15.167 -118 -45.5s-37 -78.5 -37 -144.5c0 -66.667 12 -115 36 -145s63 -45 117 -45c20.667 0 39.834 0.833008 57.501 2.5s36.834 4.83398 57.501 9.50098v-86c-16 -4.66699 -35.333 -8.33398 -58 -11.001s-44.667 -4 -66 -4z" />
    <glyph glyph-name="Dcaron" unicode="&#x10e;" horiz-adv-x="694" 
d="M163 956l164 -74l164 74v-81l-165 -73l-163 73v81zM256 -12c-33.333 0 -65.333 1.00098 -96 3.00098s-57.667 5 -81 9v737c38 4 74.833 7.16699 110.5 9.5s66.167 3.5 91.5 3.5c128 0 221.5 -30.5 280.5 -91.5s88.5 -157.5 88.5 -289.5c0 -67.333 -7.5 -125 -22.5 -173
s-38.5 -87.333 -70.5 -118s-72.833 -53.334 -122.5 -68.001s-109.167 -22 -178.5 -22zM291 78.001c43.333 0 80.5 5.50098 111.5 16.501s56.5 28.167 76.5 51.5s34.833 53.5 44.5 90.5s14.5 81.5 14.5 133.5s-4.5 96.167 -13.5 132.5s-23.333 66.166 -43 89.499
s-45 40.333 -76 51s-68.167 16 -111.5 16c-16 0 -33.5 -0.5 -52.5 -1.5s-37.167 -2.83301 -54.5 -5.5v-567c20 -2.66699 38 -4.5 54 -5.5s32.667 -1.5 50 -1.5z" />
    <glyph glyph-name="dcaron" unicode="&#x10f;" horiz-adv-x="580" 
d="M573 808h88l-32 -228h-56v228zM249 -10c-68.667 0 -120.5 22.1689 -155.5 66.502s-52.5 113.166 -52.5 206.499c0 95.333 23.333 167 70 215s111 72 193 72c18 0 35.333 -0.833008 52 -2.5s33.667 -3.83398 51 -6.50098v267h106v-808h-94l-9 62h-5
c-36 -48 -88 -72 -156 -72zM279 72.002c17.333 0 33.8311 2.66895 49.498 8.00195s29.334 13.166 41.001 23.499s20.834 23.166 27.501 38.499s10 33.333 10 54v265c-16.667 3.33301 -33.667 5.83301 -51 7.5s-35.666 2.5 -54.999 2.5c-51.333 0 -89.333 -15.333 -114 -46
s-37 -82 -37 -154c0 -71.333 10.167 -122.333 30.5 -153s53.166 -46 98.499 -46z" />
    <glyph glyph-name="Dcroat" unicode="&#x110;" horiz-adv-x="709" 
d="M2 413l92 0.000976562v324c38 4 74.833 7.16699 110.5 9.5s66.167 3.5 91.5 3.5c128 0 221.5 -30.5 280.5 -91.5s88.5 -157.5 88.5 -289.5c0 -67.333 -7.5 -125 -22.5 -173s-38.5 -87.333 -70.5 -118s-72.833 -53.334 -122.5 -68.001s-109.167 -22 -178.5 -22
c-33.333 0 -65.333 1 -96 3s-57.667 5 -81 9v328h-92v85zM306 78.001c43.333 0 80.5 5.50098 111.5 16.501s56.5 28.167 76.5 51.5s34.833 53.5 44.5 90.5s14.5 81.5 14.5 133.5s-4.5 96.167 -13.5 132.5s-23.333 66.166 -43 89.499s-45 40.333 -76 51s-68.167 16 -111.5 16
c-16 0 -33.5 -0.5 -52.5 -1.5s-37.167 -2.83301 -54.5 -5.5v-239h152v-85h-152v-243c20 -2.66699 38 -4.5 54 -5.5s32.667 -1.5 50 -1.5z" />
    <glyph glyph-name="dcroat" unicode="&#x111;" horiz-adv-x="580" 
d="M237 706l170 0.00195312v102h106v-102h73v-66h-73v-640h-94l-9 62h-5c-36 -48 -88 -72 -156 -72c-68.667 0 -120.5 22.167 -155.5 66.5s-52.5 113.166 -52.5 206.499c0 95.333 23.333 167 70 215s111 72 193 72c18 0 35.333 -0.833008 52 -2.5
s33.667 -3.83398 51 -6.50098v99h-170v66zM279 72.002c17.333 0 33.8311 2.66895 49.498 8.00195s29.334 13.166 41.001 23.499s20.834 23.166 27.501 38.499s10 33.333 10 54v265c-16.667 3.33301 -33.667 5.83301 -51 7.5s-35.666 2.5 -54.999 2.5
c-51.333 0 -89.333 -15.333 -114 -46s-37 -82 -37 -154c0 -71.333 10.167 -122.333 30.5 -153s53.166 -46 98.499 -46z" />
    <glyph glyph-name="Emacron" unicode="&#x112;" horiz-adv-x="591" 
d="M151 917h316v-76h-316v76zM79 740h461v-90h-352v-231h322v-90h-322v-239h361v-90h-470v740z" />
    <glyph glyph-name="emacron" unicode="&#x113;" horiz-adv-x="526" 
d="M287 -9c-80.667 0 -141.668 23.001 -183.001 69.001s-62 113.667 -62 203c0 93.333 20.5 164.333 61.5 213s100.833 73 179.5 73c135.333 0 203 -80.333 203 -241c0 -16 -0.5 -29.833 -1.5 -41.5s-2.5 -22.5 -4.5 -32.5h-331c3.33301 -56.667 16.5 -97.334 39.5 -122.001
s59.167 -37 108.5 -37c24.667 0 51.334 2.33301 80.001 7s56.667 11.667 84 21l5 -81c-25.333 -9.33301 -54 -16.833 -86 -22.5s-63 -8.5 -93 -8.5zM279.999 469.001c-41.333 0 -72.668 -13.3311 -94.001 -39.998s-33.666 -68.334 -36.999 -125.001h240
c-1.33301 59.333 -10.333 101.666 -27 126.999s-44 38 -82 38zM108.997 717.003h322v-74h-322v74z" />
    <glyph glyph-name="Ebreve" unicode="&#x114;" horiz-adv-x="591" 
d="M308 810c-60.667 0 -105.832 14.167 -135.499 42.5s-44.5 65.833 -44.5 112.5h77c0 -31.333 8.33301 -55.166 25 -71.499s42.667 -24.5 78 -24.5s61.333 8.16699 78 24.5s25 40.166 25 71.499h77c0 -47.333 -14.833 -85 -44.5 -113s-74.834 -42 -135.501 -42zM79.002 740
h461v-90h-352v-231h322v-90h-322v-239h361v-90h-470v740z" />
    <glyph glyph-name="ebreve" unicode="&#x115;" horiz-adv-x="526" 
d="M287 -9c-80.667 0 -141.668 23.001 -183.001 69.001s-62 113.667 -62 203c0 93.333 20.5 164.333 61.5 213s100.833 73 179.5 73c135.333 0 203 -80.333 203 -241c0 -16 -0.5 -29.833 -1.5 -41.5s-2.5 -22.5 -4.5 -32.5h-331c3.33301 -56.667 16.5 -97.334 39.5 -122.001
s59.167 -37 108.5 -37c24.667 0 51.334 2.33301 80.001 7s56.667 11.667 84 21l5 -81c-25.333 -9.33301 -54 -16.833 -86 -22.5s-63 -8.5 -93 -8.5zM279.999 469.001c-41.333 0 -72.668 -13.3311 -94.001 -39.998s-33.666 -68.334 -36.999 -125.001h240
c-1.33301 59.333 -10.333 101.666 -27 126.999s-44 38 -82 38zM270.997 617.003c-62 0 -107.333 13.833 -136 41.5s-43.667 65.5 -45 113.5h77c0 -63.333 34.667 -95 104 -95c68.667 0 103 31.667 103 95h77c-1.33301 -48 -16.333 -85.833 -45 -113.5
s-73.667 -41.5 -135 -41.5z" />
    <glyph glyph-name="Edotaccent" unicode="&#x116;" horiz-adv-x="591" 
d="M309 806c-22 0 -38.333 5 -49 15s-16 26 -16 48c0 22.667 5.33301 39 16 49s27 15 49 15c43.333 0 65 -21.333 65 -64c0 -42 -21.667 -63 -65 -63zM79 740h461v-90h-352v-231h322v-90h-322v-239h361v-90h-470v740z" />
    <glyph glyph-name="edotaccent" unicode="&#x117;" horiz-adv-x="526" 
d="M287 -9c-80.667 0 -141.668 23.001 -183.001 69.001s-62 113.667 -62 203c0 93.333 20.5 164.333 61.5 213s100.833 73 179.5 73c135.333 0 203 -80.333 203 -241c0 -16 -0.5 -29.833 -1.5 -41.5s-2.5 -22.5 -4.5 -32.5h-331c3.33301 -56.667 16.5 -97.334 39.5 -122.001
s59.167 -37 108.5 -37c24.667 0 51.334 2.33301 80.001 7s56.667 11.667 84 21l5 -81c-25.333 -9.33301 -54 -16.833 -86 -22.5s-63 -8.5 -93 -8.5zM279.999 469.001c-41.333 0 -72.668 -13.3311 -94.001 -39.998s-33.666 -68.334 -36.999 -125.001h240
c-1.33301 59.333 -10.333 101.666 -27 126.999s-44 38 -82 38zM271.997 630.003c-21.333 0 -37.333 5 -48 15s-16 26.333 -16 49c0 42 21.333 63 64 63c43.333 0 65 -21 65 -63c0 -22.667 -5.5 -39 -16.5 -49s-27.167 -15 -48.5 -15z" />
    <glyph glyph-name="Eogonek" unicode="&#x118;" horiz-adv-x="591" 
d="M79 740l461.003 0.00195312v-90h-352v-231h322v-90h-322v-239h361v-105c-38.667 -16.667 -66.834 -34.334 -84.501 -53.001s-26.5 -36.667 -26.5 -54c0 -22 14.333 -33 43 -33c9.33301 0 20.166 1.16699 32.499 3.5s24.166 5.16602 35.499 8.49902v-65
c-22 -8 -46.333 -12 -73 -12c-74.667 0 -112 29.333 -112 88c0 24.667 7.66699 47.5 23 68.5s40 42.167 74 63.5h-382v740z" />
    <glyph glyph-name="eogonek" unicode="&#x119;" horiz-adv-x="526" 
d="M287 -9c-80.667 0 -141.665 23.0029 -182.998 69.0029s-62 113.667 -62 203c0 93.333 20.5 164.333 61.5 213s100.833 73 179.5 73c135.333 0 203 -80.333 203 -241c0 -16 -0.5 -29.833 -1.5 -41.5s-2.5 -22.5 -4.5 -32.5h-331
c3.33301 -56.667 16.5 -97.334 39.5 -122.001s59.167 -37 108.5 -37c24.667 0 51.334 2.33301 80.001 7s56.667 11.667 84 21l5 -80v-15c-38.667 -16.667 -66.834 -34.334 -84.501 -53.001s-26.5 -36.667 -26.5 -54c0 -22 14.333 -33 43 -33
c9.33301 0 20.166 1.16699 32.499 3.5s24.166 5.16602 35.499 8.49902v-65c-22 -8 -46.333 -12 -73 -12c-74.667 0 -112 29.333 -112 88c0 38 18.333 72.333 55 103c-16 -2 -32.333 -3 -49 -3zM280.002 469.003c-41.333 0 -72.668 -13.3311 -94.001 -39.998
s-33.666 -68.334 -36.999 -125.001h240c-1.33301 59.333 -10.333 101.666 -27 126.999s-44 38 -82 38z" />
    <glyph glyph-name="Ecaron" unicode="&#x11a;" horiz-adv-x="591" 
d="M150 956l164 -74l164 74v-81l-165 -73l-163 73v81zM79 740h461v-90h-352v-231h322v-90h-322v-239h361v-90h-470v740z" />
    <glyph glyph-name="ecaron" unicode="&#x11b;" horiz-adv-x="526" 
d="M110 778l163 -74l164 74v-80l-164 -74l-163 74v80zM287 -9c-80.667 0 -141.668 23.001 -183.001 69.001s-62 113.667 -62 203c0 93.333 20.5 164.333 61.5 213s100.833 73 179.5 73c135.333 0 203 -80.333 203 -241c0 -16 -0.5 -29.833 -1.5 -41.5s-2.5 -22.5 -4.5 -32.5
h-331c3.33301 -56.667 16.5 -97.334 39.5 -122.001s59.167 -37 108.5 -37c24.667 0 51.334 2.33301 80.001 7s56.667 11.667 84 21l5 -81c-25.333 -9.33301 -54 -16.833 -86 -22.5s-63 -8.5 -93 -8.5zM279.999 469.001c-41.333 0 -72.668 -13.3311 -94.001 -39.998
s-33.666 -68.334 -36.999 -125.001h240c-1.33301 59.333 -10.333 101.666 -27 126.999s-44 38 -82 38z" />
    <glyph glyph-name="Gcircumflex" unicode="&#x11c;" horiz-adv-x="637" 
d="M381 -10c-114.667 0.666992 -199.33 31.999 -253.997 93.999s-82 157 -82 285c0 128.667 28.667 224.334 86 287.001s145.333 94 264 94c27.333 0 56.666 -1.83301 87.999 -5.5s61.666 -9.16699 90.999 -16.5v-90c-36 7.33301 -67.5 12.5 -94.5 15.5
s-52.167 4.5 -75.5 4.5c-44.667 0 -82.667 -5.33301 -114 -16s-56.833 -27.667 -76.5 -51s-34 -53.166 -43 -89.499s-13.5 -80.5 -13.5 -132.5c0 -51.333 4.33301 -95 13 -131s22.167 -65.667 40.5 -89s42 -40.333 71 -51s63.833 -16 104.5 -16c12 0 26.167 0.666992 42.5 2
s33.166 3 50.499 5v287h101v-359c-36 -8.66699 -71.167 -15.334 -105.5 -20.001s-65.5 -7 -93.5 -7zM190.004 887.999l164 74l164 -74v-81l-164 74l-164 -74v81z" />
    <glyph glyph-name="gcircumflex" unicode="&#x11d;" horiz-adv-x="580" 
d="M141 706l163 74l165 -74v-80l-164 73l-164 -73v80zM255 -220c-30 0 -60.333 2 -91 6s-58.334 9.66699 -83.001 17l7 82c24.667 -6.66699 50 -12 76 -16s51.667 -6 77 -6c26 0 49.5 3 70.5 9s39 16 54 30s26.5 32.5 34.5 55.5s12 51.167 12 84.5v34h-6
c-34 -48 -85.667 -72 -155 -72s-121.666 21.333 -156.999 64s-53 108.667 -53 198c0 94 23.5 164.833 70.5 212.5s111.167 71.5 192.5 71.5c30.667 0 62.667 -2.33301 96 -7s71.333 -12.667 114 -24v-459c0 -52 -6.33301 -95.833 -19 -131.5s-30.5 -64.5 -53.5 -86.5
s-50.333 -37.833 -82 -47.5s-66.5 -14.5 -104.5 -14.5zM279 83c18 0 34.665 2.66797 49.998 8.00098s28.833 13.166 40.5 23.499s20.834 23 27.501 38s10 32.5 10 52.5v256c-16.667 3.33301 -33.5 5.83301 -50.5 7.5s-35.167 2.5 -54.5 2.5c-52 0 -90.333 -15 -115 -45
s-37 -80.667 -37 -152c0 -68 10.333 -116.833 31 -146.5s53.334 -44.5 98.001 -44.5z" />
    <glyph glyph-name="Gbreve" unicode="&#x11e;" horiz-adv-x="637" 
d="M357 810c-60.667 0 -105.832 14.167 -135.499 42.5s-44.5 65.833 -44.5 112.5h77c0 -31.333 8.33301 -55.166 25 -71.499s42.667 -24.5 78 -24.5s61.333 8.16699 78 24.5s25 40.166 25 71.499h77c0 -47.333 -14.833 -85 -44.5 -113s-74.834 -42 -135.501 -42z
M381.002 -10c-114.667 0.666992 -199.33 31.999 -253.997 93.999s-82 157 -82 285c0 128.667 28.667 224.334 86 287.001s145.333 94 264 94c27.333 0 56.666 -1.83301 87.999 -5.5s61.666 -9.16699 90.999 -16.5v-90c-36 7.33301 -67.5 12.5 -94.5 15.5
s-52.167 4.5 -75.5 4.5c-44.667 0 -82.667 -5.33301 -114 -16s-56.833 -27.667 -76.5 -51s-34 -53.166 -43 -89.499s-13.5 -80.5 -13.5 -132.5c0 -51.333 4.33301 -95 13 -131s22.167 -65.667 40.5 -89s42 -40.333 71 -51s63.833 -16 104.5 -16c12 0 26.167 0.666992 42.5 2
s33.166 3 50.499 5v287h101v-359c-36 -8.66699 -71.167 -15.334 -105.5 -20.001s-65.5 -7 -93.5 -7z" />
    <glyph glyph-name="gbreve" unicode="&#x11f;" horiz-adv-x="580" 
d="M255 -220c-30 0 -60.333 2 -91 6s-58.334 9.66699 -83.001 17l7 82c24.667 -6.66699 50 -12 76 -16s51.667 -6 77 -6c26 0 49.5 3 70.5 9s39 16 54 30s26.5 32.5 34.5 55.5s12 51.167 12 84.5v34h-6c-34 -48 -85.667 -72 -155 -72s-121.666 21.333 -156.999 64
s-53 108.667 -53 198c0 94 23.5 164.833 70.5 212.5s111.167 71.5 192.5 71.5c30.667 0 62.667 -2.33301 96 -7s71.333 -12.667 114 -24v-459c0 -52 -6.33301 -95.833 -19 -131.5s-30.5 -64.5 -53.5 -86.5s-50.333 -37.833 -82 -47.5s-66.5 -14.5 -104.5 -14.5zM279 83
c18 0 34.665 2.66797 49.998 8.00098s28.833 13.166 40.5 23.499s20.834 23 27.501 38s10 32.5 10 52.5v256c-16.667 3.33301 -33.5 5.83301 -50.5 7.5s-35.167 2.5 -54.5 2.5c-52 0 -90.333 -15 -115 -45s-37 -80.667 -37 -152c0 -68 10.333 -116.833 31 -146.5
s53.334 -44.5 98.001 -44.5zM299.998 617.001c-62 0 -107.333 13.833 -136 41.5s-43.667 65.5 -45 113.5h77c0 -63.333 34.667 -95 104 -95c68.667 0 103 31.667 103 95h77c-1.33301 -48 -16.333 -85.833 -45 -113.5s-73.667 -41.5 -135 -41.5z" />
    <glyph glyph-name="Gdotaccent" unicode="&#x120;" horiz-adv-x="637" 
d="M358 806c-22 0 -38.333 5 -49 15s-16 26 -16 48c0 22.667 5.33301 39 16 49s27 15 49 15c43.333 0 65 -21.333 65 -64c0 -42 -21.667 -63 -65 -63zM381 -10c-114.667 0.666992 -199.33 31.999 -253.997 93.999s-82 157 -82 285c0 128.667 28.667 224.334 86 287.001
s145.333 94 264 94c27.333 0 56.666 -1.83301 87.999 -5.5s61.666 -9.16699 90.999 -16.5v-90c-36 7.33301 -67.5 12.5 -94.5 15.5s-52.167 4.5 -75.5 4.5c-44.667 0 -82.667 -5.33301 -114 -16s-56.833 -27.667 -76.5 -51s-34 -53.166 -43 -89.499
s-13.5 -80.5 -13.5 -132.5c0 -51.333 4.33301 -95 13 -131s22.167 -65.667 40.5 -89s42 -40.333 71 -51s63.833 -16 104.5 -16c12 0 26.167 0.666992 42.5 2s33.166 3 50.499 5v287h101v-359c-36 -8.66699 -71.167 -15.334 -105.5 -20.001s-65.5 -7 -93.5 -7z" />
    <glyph glyph-name="gdotaccent" unicode="&#x121;" horiz-adv-x="580" 
d="M255 -220c-30 0 -60.333 2 -91 6s-58.334 9.66699 -83.001 17l7 82c24.667 -6.66699 50 -12 76 -16s51.667 -6 77 -6c26 0 49.5 3 70.5 9s39 16 54 30s26.5 32.5 34.5 55.5s12 51.167 12 84.5v34h-6c-34 -48 -85.667 -72 -155 -72s-121.666 21.333 -156.999 64
s-53 108.667 -53 198c0 94 23.5 164.833 70.5 212.5s111.167 71.5 192.5 71.5c30.667 0 62.667 -2.33301 96 -7s71.333 -12.667 114 -24v-459c0 -52 -6.33301 -95.833 -19 -131.5s-30.5 -64.5 -53.5 -86.5s-50.333 -37.833 -82 -47.5s-66.5 -14.5 -104.5 -14.5zM279 83
c18 0 34.665 2.66797 49.998 8.00098s28.833 13.166 40.5 23.499s20.834 23 27.501 38s10 32.5 10 52.5v256c-16.667 3.33301 -33.5 5.83301 -50.5 7.5s-35.167 2.5 -54.5 2.5c-52 0 -90.333 -15 -115 -45s-37 -80.667 -37 -152c0 -68 10.333 -116.833 31 -146.5
s53.334 -44.5 98.001 -44.5zM299.998 630.001c-21.333 0 -37.333 5 -48 15s-16 26.333 -16 49c0 42 21.333 63 64 63c43.333 0 65 -21 65 -63c0 -22.667 -5.5 -39 -16.5 -49s-27.167 -15 -48.5 -15z" />
    <glyph glyph-name="Gcommaaccent" unicode="&#x122;" horiz-adv-x="637" 
d="M310 -69h110l-72 -151h-85zM381 -10c-114.667 0.666992 -199.33 31.999 -253.997 93.999s-82 157 -82 285c0 128.667 28.667 224.334 86 287.001s145.333 94 264 94c27.333 0 56.666 -1.83301 87.999 -5.5s61.666 -9.16699 90.999 -16.5v-90
c-36 7.33301 -67.5 12.5 -94.5 15.5s-52.167 4.5 -75.5 4.5c-44.667 0 -82.667 -5.33301 -114 -16s-56.833 -27.667 -76.5 -51s-34 -53.166 -43 -89.499s-13.5 -80.5 -13.5 -132.5c0 -51.333 4.33301 -95 13 -131s22.167 -65.667 40.5 -89s42 -40.333 71 -51
s63.833 -16 104.5 -16c12 0 26.167 0.666992 42.5 2s33.166 3 50.499 5v287h101v-359c-36 -8.66699 -71.167 -15.334 -105.5 -20.001s-65.5 -7 -93.5 -7z" />
    <glyph glyph-name="gcommaaccent" unicode="&#x123;" horiz-adv-x="580" 
d="M429 793l-46 -150h-109l72 150h83zM255 -220c-30 0 -60.333 2 -91 6s-58.334 9.66699 -83.001 17l7 82c24.667 -6.66699 50 -12 76 -16s51.667 -6 77 -6c26 0 49.5 3 70.5 9s39 16 54 30s26.5 32.5 34.5 55.5s12 51.167 12 84.5v34h-6c-34 -48 -85.667 -72 -155 -72
s-121.666 21.333 -156.999 64s-53 108.667 -53 198c0 94 23.5 164.833 70.5 212.5s111.167 71.5 192.5 71.5c30.667 0 62.667 -2.33301 96 -7s71.333 -12.667 114 -24v-459c0 -52 -6.33301 -95.833 -19 -131.5s-30.5 -64.5 -53.5 -86.5s-50.333 -37.833 -82 -47.5
s-66.5 -14.5 -104.5 -14.5zM279 83c18 0 34.665 2.66797 49.998 8.00098s28.833 13.166 40.5 23.499s20.834 23 27.501 38s10 32.5 10 52.5v256c-16.667 3.33301 -33.5 5.83301 -50.5 7.5s-35.167 2.5 -54.5 2.5c-52 0 -90.333 -15 -115 -45s-37 -80.667 -37 -152
c0 -68 10.333 -116.833 31 -146.5s53.334 -44.5 98.001 -44.5z" />
    <glyph glyph-name="Hcircumflex" unicode="&#x124;" horiz-adv-x="733" 
d="M79 740h109v-316h358v316h108v-740h-108v334h-358v-334h-109v740zM197 888l164 74l164 -74v-81l-164 74l-164 -74v81z" />
    <glyph glyph-name="hcircumflex" unicode="&#x125;" horiz-adv-x="579" 
d="M140 905l163 74l165 -74v-80l-164 73l-164 -73v80zM67 808l106.999 0.000976562v-327c44.667 23.333 82.834 40.666 114.501 51.999s61.834 17 90.501 17c90.667 0 136 -49 136 -147v-403h-106v369c0 32.667 -6 56 -18 70s-30.667 21 -56 21
c-21.333 0 -45.833 -4.5 -73.5 -13.5s-56.834 -21.5 -87.501 -37.5v-409h-107v808z" />
    <glyph glyph-name="Hbar" unicode="&#x126;" horiz-adv-x="755" 
d="M4 601h85v139h109v-139h358v139h108v-139h89v-57h-89v-544h-108v334h-358v-334h-109v544h-85v57zM556 424v120h-358v-120h358z" />
    <glyph glyph-name="hbar" unicode="&#x127;" horiz-adv-x="579" 
d="M-22 706l88.999 0.000976562v102h107v-102h153v-66h-153v-159c44.667 23.333 82.834 40.666 114.501 51.999s61.834 17 90.501 17c90.667 0 136 -49 136 -147v-403h-106v369c0 32.667 -6 56 -18 70s-30.667 21 -56 21c-21.333 0 -45.833 -4.5 -73.5 -13.5
s-56.834 -21.5 -87.501 -37.5v-409h-107v640h-89v66z" />
    <glyph glyph-name="Itilde" unicode="&#x128;" horiz-adv-x="266" 
d="M79 740h109v-740h-109v740zM-56 854c17.333 28 37.332 49.333 59.999 64s45 22 67 22c14.667 0 28.834 -2.16699 42.501 -6.5s27 -9 40 -14s26 -9.66699 39 -14s26.5 -6.5 40.5 -6.5c28 0 55.333 13 82 39l24 -26c-16.667 -28 -36.5 -49.5 -59.5 -64.5
s-45.833 -22.5 -68.5 -22.5c-14 0 -27.833 2 -41.5 6s-27 8.5 -40 13.5s-26 9.66699 -39 14s-26.5 6.5 -40.5 6.5s-27.833 -2.83301 -41.5 -8.5s-27.5 -15.167 -41.5 -28.5z" />
    <glyph glyph-name="itilde" unicode="&#x129;" horiz-adv-x="243" 
d="M-67 668c17.333 27.333 36.834 48.167 58.501 62.5s43.167 21.5 64.5 21.5c14.667 0 28.667 -2.33301 42 -7s26.166 -9.83398 38.499 -15.501s24.833 -10.834 37.5 -15.501s26 -7 40 -7c26 0 51.667 13 77 39l27 -29c-16.667 -28 -36.167 -49.167 -58.5 -63.5
s-44.5 -21.5 -66.5 -21.5c-14 0 -27.5 2.33301 -40.5 7s-26 9.83398 -39 15.501s-25.833 10.834 -38.5 15.501s-25.667 7 -39 7c-25.333 0 -51.333 -12.667 -78 -38zM69.001 540.001h106v-540h-106v540z" />
    <glyph glyph-name="Imacron" unicode="&#x12a;" horiz-adv-x="266" 
d="M79 740h109v-740h-109v740zM-25 917h316v-76h-316v76z" />
    <glyph glyph-name="imacron" unicode="&#x12b;" horiz-adv-x="243" 
d="M69 540h106v-540h-106v540zM-36 717h322v-74h-322v74z" />
    <glyph glyph-name="Ibreve" unicode="&#x12c;" horiz-adv-x="266" 
d="M79 740h109v-740h-109v740zM134 810c-60.667 0 -105.832 14.167 -135.499 42.5s-44.5 65.833 -44.5 112.5h77c0 -31.333 8.33301 -55.166 25 -71.499s42.667 -24.5 78 -24.5s61.333 8.16699 78 24.5s25 40.166 25 71.499h77c0 -47.333 -14.833 -85 -44.5 -113
s-74.834 -42 -135.501 -42z" />
    <glyph glyph-name="ibreve" unicode="&#x12d;" horiz-adv-x="243" 
d="M124 617c-56 0 -97.501 13.833 -124.501 41.5s-40.833 65.5 -41.5 113.5h69c0 -63.333 32.333 -95 97 -95s97 31.667 97 95h68c-1.33301 -48 -15.166 -85.833 -41.499 -113.5s-67.5 -41.5 -123.5 -41.5zM68.999 540h106v-540h-106v540z" />
    <glyph glyph-name="Iogonek" unicode="&#x12e;" horiz-adv-x="266" 
d="M79 740l109.003 0.00195312v-755c-38.667 -16.667 -66.834 -34.334 -84.501 -53.001s-26.5 -36.667 -26.5 -54c0 -22 14.333 -33 43 -33c9.33301 0 20.166 1.16699 32.499 3.5s24.166 5.16602 35.499 8.49902v-65c-22 -8 -46.333 -12 -73 -12
c-74.667 0 -112 29.333 -112 88c0 24.667 7.66699 47.5 23 68.5s40 42.167 74 63.5h-21v740z" />
    <glyph glyph-name="iogonek" unicode="&#x12f;" horiz-adv-x="242" 
d="M68 540l106.003 0.00195312v-555c-38.667 -16.667 -66.834 -34.334 -84.501 -53.001s-26.5 -36.667 -26.5 -54c0 -22 14.333 -33 43 -33c9.33301 0 20.166 1.16699 32.499 3.5s24.166 5.16602 35.499 8.49902v-65c-22 -8 -46.333 -12 -73 -12
c-74.667 0 -112 29.333 -112 88c0 24.667 7.66699 47.5 23 68.5s40 42.167 74 63.5h-18v540zM121.003 644.002c-22 0 -38 5 -48 15s-15 25.667 -15 47s5 37 15 47s26 15 48 15c42.667 0 64 -20.667 64 -62s-21.333 -62 -64 -62z" />
    <glyph glyph-name="Idotaccent" unicode="&#x130;" horiz-adv-x="266" 
d="M79 740h109v-740h-109v740zM135 806c-22 0 -38.333 5 -49 15s-16 26 -16 48c0 22.667 5.33301 39 16 49s27 15 49 15c43.333 0 65 -21.333 65 -64c0 -42 -21.667 -63 -65 -63z" />
    <glyph glyph-name="dotlessi" unicode="&#x131;" horiz-adv-x="242" 
d="M68 540h106v-540h-106v540z" />
    <glyph glyph-name="IJ" unicode="&#x132;" horiz-adv-x="532" 
d="M79 740h109v-740h-109v740zM268 -159c15.333 33.333 28 63.833 38 91.5s18 54.667 24 81s10.333 53.5 13 81.5s4 59 4 93v552h109v-559c0 -33.333 -2 -64.833 -6 -94.5s-10.667 -59.167 -20 -88.5s-21.5 -59.5 -36.5 -90.5s-33.167 -64.5 -54.5 -100.5z" />
    <glyph glyph-name="ij" unicode="&#x133;" horiz-adv-x="482" 
d="M121 644c-22 0 -38 5 -48 15s-15 25.667 -15 47s5 37 15 47s26 15 48 15c42.667 0 64 -20.667 64 -62s-21.333 -62 -64 -62zM68 540h106v-540h-106v540zM361 644c-22 0 -38 5 -48 15s-15 25.667 -15 47s5 37 15 47s26 15 48 15c42.667 0 64 -20.667 64 -62
s-21.333 -62 -64 -62zM249 -197c10.667 23.333 19.833 47.001 27.5 71.001s14 49 19 75s8.66699 53.667 11 83s3.5 61 3.5 95v33v71.5v92v94c0 29.667 -0.166992 55.667 -0.5 78s-0.5 37.166 -0.5 44.499h107v-457c0 -52 -8.16699 -104.5 -24.5 -157.5
s-38.5 -101.5 -66.5 -145.5z" />
    <glyph glyph-name="Jcircumflex" unicode="&#x134;" horiz-adv-x="266" 
d="M2 -159c15.333 33.333 28 63.833 38 91.5s18 54.667 24 81s10.333 53.5 13 81.5s4 59 4 93v552h109v-559c0 -33.333 -2 -64.833 -6 -94.5s-10.667 -59.167 -20 -88.5s-21.5 -59.5 -36.5 -90.5s-33.167 -64.5 -54.5 -100.5zM-28 888l164 74l164 -74v-81l-164 74l-164 -74
v81z" />
    <glyph glyph-name="jcircumflex" unicode="&#x135;" horiz-adv-x="240" 
d="M-40 707l159 74l160 -74v-80l-159 74l-160 -74v80zM5 -200c11.333 26 21.001 51.3291 29.001 75.9961s14.667 50.334 20 77.001s9.16602 55.334 11.499 86.001s3.5 65.334 3.5 104.001v33v63c0 24.667 -0.166992 51.5 -0.5 80.5s-0.5 57.5 -0.5 85.5
s-0.166992 53.833 -0.5 77.5s-0.5 42.834 -0.5 57.501h106v-457c-5.33301 -109.333 -35.333 -210.333 -90 -303z" />
    <glyph glyph-name="Kcommaaccent" unicode="&#x136;" horiz-adv-x="650" 
d="M278 -69h110l-72 -151h-85zM79 740h109v-319h114l205 319h124l-218 -331l-37 -25v-7l40 -25l233 -352h-123l-218 331h-120v-331h-109v740z" />
    <glyph glyph-name="kcommaaccent" unicode="&#x137;" horiz-adv-x="536" 
d="M241 -69h110l-72 -151h-85zM67 808h107v-493h74l157 225h118l-183 -253l-19 -8v-3l20 -10l199 -266h-118l-175 240h-73v-240h-107v808z" />
    <glyph glyph-name="kgreenlandic" unicode="&#x138;" horiz-adv-x="536" 
d="M67 540h107v-225h94l135 225h117l-161 -253l-19 -8v-3l20 -9l177 -267h-118l-152 240h-93v-240h-107v540z" />
    <glyph glyph-name="Lacute" unicode="&#x139;" horiz-adv-x="503" 
d="M96 803l72 149h111l-102 -156zM79 740h109v-651h302v-89h-411v740z" />
    <glyph glyph-name="lacute" unicode="&#x13a;" horiz-adv-x="244" 
d="M83 844l70 185h110l-103 -193zM69 808h107v-808h-107v808z" />
    <glyph glyph-name="Lcommaaccent" unicode="&#x13b;" horiz-adv-x="503" 
d="M232 -69h110l-72 -151h-85zM79 740h109v-651h302v-89h-411v740z" />
    <glyph glyph-name="lcommaaccent" unicode="&#x13c;" horiz-adv-x="244" 
d="M76 -69h110l-72 -151h-85zM69 808h107v-808h-107v808z" />
    <glyph glyph-name="Lcaron" unicode="&#x13d;" horiz-adv-x="515" 
d="M379 768h88l-32 -228h-56v228zM79 740h109v-651h302v-89h-411v740z" />
    <glyph glyph-name="lcaron" unicode="&#x13e;" horiz-adv-x="245" 
d="M236 808h88l-32 -228h-56v228zM69 808h107v-808h-107v808z" />
    <glyph glyph-name="Ldot" unicode="&#x13f;" horiz-adv-x="513" 
d="M79 740h109v-651h302v-89h-411v740zM407 314c-22 0 -38.333 4.83203 -49 14.499s-16 25.834 -16 48.501s5.33301 39 16 49s27 15 49 15c43.333 0 65 -21.333 65 -64c0 -22 -5.5 -38 -16.5 -48s-27.167 -15 -48.5 -15z" />
    <glyph glyph-name="ldot" unicode="&#x140;" horiz-adv-x="342" 
d="M69 808h107v-808h-107v808zM294 307c-22 0 -38.333 4.83203 -49 14.499s-16 25.834 -16 48.501s5.33301 39 16 49s27 15 49 15c43.333 0 65 -21.333 65 -64c0 -22 -5.5 -38 -16.5 -48s-27.167 -15 -48.5 -15z" />
    <glyph glyph-name="Lslash" unicode="&#x141;" horiz-adv-x="524" 
d="M13 312l87 55v373h109v-305l134 85v-88l-134 -85v-258h302v-89h-411v279l-87 -55v88z" />
    <glyph glyph-name="lslash" unicode="&#x142;" horiz-adv-x="333" 
d="M22 331l90 56v421h107v-354l99 62v-83l-99 -62v-371h-107v303l-90 -56v84z" />
    <glyph glyph-name="Nacute" unicode="&#x143;" horiz-adv-x="747" 
d="M320 803l72 149h111l-102 -156zM79 740h93l338 -482l53 -86h7v568h98v-740h-93l-338 480l-54 87h-7v-567h-97v740z" />
    <glyph glyph-name="nacute" unicode="&#x144;" horiz-adv-x="579" 
d="M257 617l70 185h110l-103 -193zM67 540l89.999 -0.000976562l7 -61h5c23.333 12.667 44.833 23.5 64.5 32.5s37.834 16.333 54.501 22s32.5 9.83398 47.5 12.501s29.833 4 44.5 4c44 0 77.5 -12 100.5 -36s34.5 -61 34.5 -111v-403h-106v369c0 33.333 -6 56.833 -18 70.5
s-30.667 20.5 -56 20.5c-22 0 -46.833 -4.5 -74.5 -13.5s-56.5 -21.5 -86.5 -37.5v-409h-107v540z" />
    <glyph glyph-name="Ncommaaccent" unicode="&#x145;" horiz-adv-x="747" 
d="M336 -69h110l-72 -151h-85zM79 740h93l338 -482l53 -86h7v568h98v-740h-93l-338 480l-54 87h-7v-567h-97v740z" />
    <glyph glyph-name="ncommaaccent" unicode="&#x146;" horiz-adv-x="579" 
d="M245 -69h110l-72 -151h-85zM67 540l89.999 -0.000976562l7 -61h5c23.333 12.667 44.833 23.5 64.5 32.5s37.834 16.333 54.501 22s32.5 9.83398 47.5 12.501s29.833 4 44.5 4c44 0 77.5 -12 100.5 -36s34.5 -61 34.5 -111v-403h-106v369c0 33.333 -6 56.833 -18 70.5
s-30.667 20.5 -56 20.5c-22 0 -46.833 -4.5 -74.5 -13.5s-56.5 -21.5 -86.5 -37.5v-409h-107v540z" />
    <glyph glyph-name="Ncaron" unicode="&#x147;" horiz-adv-x="747" 
d="M212 956l164 -74l164 74v-81l-165 -73l-163 73v81zM79 740h93l338 -482l53 -86h7v568h98v-740h-93l-338 480l-54 87h-7v-567h-97v740z" />
    <glyph glyph-name="ncaron" unicode="&#x148;" horiz-adv-x="579" 
d="M129 778l163 -74l164 74v-80l-164 -74l-163 74v80zM67 540l89.999 -0.000976562l7 -61h5c23.333 12.667 44.833 23.5 64.5 32.5s37.834 16.333 54.501 22s32.5 9.83398 47.5 12.501s29.833 4 44.5 4c44 0 77.5 -12 100.5 -36s34.5 -61 34.5 -111v-403h-106v369
c0 33.333 -6 56.833 -18 70.5s-30.667 20.5 -56 20.5c-22 0 -46.833 -4.5 -74.5 -13.5s-56.5 -21.5 -86.5 -37.5v-409h-107v540z" />
    <glyph glyph-name="napostrophe" unicode="&#x149;" horiz-adv-x="653" 
d="M119 808v-4l-35 -224h-54v228h89zM140 540l89.999 -0.000976562l7 -61h5c23.333 12.667 44.833 23.5 64.5 32.5s37.834 16.333 54.501 22s32.5 9.83398 47.5 12.501s29.833 4 44.5 4c44 0 77.5 -12 100.5 -36s34.5 -61 34.5 -111v-403h-106v369
c0 33.333 -6 56.833 -18 70.5s-30.667 20.5 -56 20.5c-22 0 -46.833 -4.5 -74.5 -13.5s-56.5 -21.5 -86.5 -37.5v-409h-107v540z" />
    <glyph glyph-name="Eng" unicode="&#x14a;" horiz-adv-x="745" 
d="M488 -171c17.333 36 31.6689 70.833 43.002 104.5s19.333 65.5 24 95.5l-316 452l-55 88l-7 -1v-568h-98v740h90l340 -483l53 -86h7v569h99v-649c0 -18.667 -2.66699 -40 -8 -64s-12.833 -48.667 -22.5 -74s-20.834 -50.833 -33.501 -76.5s-26.334 -49.167 -41.001 -70.5
z" />
    <glyph glyph-name="eng" unicode="&#x14b;" horiz-adv-x="578" 
d="M350 -202c18 44 32.3301 92.5 42.9971 145.5s16 106.5 16 160.5v253c0 36 -5.5 61 -16.5 75s-29.833 21 -56.5 21c-22 0 -46.667 -4 -74 -12s-56.666 -20 -87.999 -36v-405h-107v540h90l7 -60h4c46.667 24.667 86.334 42.5 119.001 53.5s63.667 16.5 93 16.5
c90 0 135 -49 135 -147v-327c-0.666992 -24.667 -3.16699 -50.5 -7.5 -77.5s-10.166 -53.5 -17.499 -79.5s-15.833 -50.833 -25.5 -74.5s-20.167 -44.5 -31.5 -62.5z" />
    <glyph glyph-name="Omacron" unicode="&#x14c;" horiz-adv-x="716" 
d="M197 917h316v-76h-316v76zM358 -10c-102.667 0 -180.5 31.667 -233.5 95s-79.5 158 -79.5 284c0 126.667 26.5 221.834 79.5 285.501s130.833 95.5 233.5 95.5s180.5 -31.833 233.5 -95.5s79.5 -158.834 79.5 -285.501c0 -126 -26.5 -220.667 -79.5 -284
s-130.833 -95 -233.5 -95zM358 81c70 0 121.167 22.833 153.5 68.5s48.5 118.834 48.5 219.501s-16.5 174.167 -49.5 220.5s-83.833 69.5 -152.5 69.5c-69.333 0 -120.333 -23 -153 -69s-49 -119.667 -49 -221c0 -100.667 16.167 -173.834 48.5 -219.501
s83.5 -68.5 153.5 -68.5z" />
    <glyph glyph-name="omacron" unicode="&#x14d;" horiz-adv-x="573" 
d="M124 717h322v-74h-322v74zM287 -10c-80.667 0 -141.834 23.833 -183.501 71.5s-62.5 117.167 -62.5 208.5s20.833 160.833 62.5 208.5s102.834 71.5 183.501 71.5c80 0 140.833 -23.833 182.5 -71.5s62.5 -117.167 62.5 -208.5s-20.833 -160.833 -62.5 -208.5
s-102.5 -71.5 -182.5 -71.5zM287 75c48.667 0 83.833 15.167 105.5 45.5s32.5 80.166 32.5 149.499s-11 119 -33 149s-57 45 -105 45c-48.667 0 -83.834 -15 -105.501 -45s-32.5 -79.667 -32.5 -149s10.833 -119.166 32.5 -149.499s56.834 -45.5 105.501 -45.5z" />
    <glyph glyph-name="Obreve" unicode="&#x14e;" horiz-adv-x="716" 
d="M357 810c-60.667 0 -105.832 14.167 -135.499 42.5s-44.5 65.833 -44.5 112.5h77c0 -31.333 8.33301 -55.166 25 -71.499s42.667 -24.5 78 -24.5s61.333 8.16699 78 24.5s25 40.166 25 71.499h77c0 -47.333 -14.833 -85 -44.5 -113s-74.834 -42 -135.501 -42z
M358.002 -10c-102.667 0 -180.5 31.667 -233.5 95s-79.5 158 -79.5 284c0 126.667 26.5 221.834 79.5 285.501s130.833 95.5 233.5 95.5s180.5 -31.833 233.5 -95.5s79.5 -158.834 79.5 -285.501c0 -126 -26.5 -220.667 -79.5 -284s-130.833 -95 -233.5 -95zM358.002 81
c70 0 121.167 22.833 153.5 68.5s48.5 118.834 48.5 219.501s-16.5 174.167 -49.5 220.5s-83.833 69.5 -152.5 69.5c-69.333 0 -120.333 -23 -153 -69s-49 -119.667 -49 -221c0 -100.667 16.167 -173.834 48.5 -219.501s83.5 -68.5 153.5 -68.5z" />
    <glyph glyph-name="obreve" unicode="&#x14f;" horiz-adv-x="573" 
d="M287 -10c-80.667 0 -141.834 23.833 -183.501 71.5s-62.5 117.167 -62.5 208.5s20.833 160.833 62.5 208.5s102.834 71.5 183.501 71.5c80 0 140.833 -23.833 182.5 -71.5s62.5 -117.167 62.5 -208.5s-20.833 -160.833 -62.5 -208.5s-102.5 -71.5 -182.5 -71.5zM287 75
c48.667 0 83.833 15.167 105.5 45.5s32.5 80.166 32.5 149.499s-11 119 -33 149s-57 45 -105 45c-48.667 0 -83.834 -15 -105.501 -45s-32.5 -79.667 -32.5 -149s10.833 -119.166 32.5 -149.499s56.834 -45.5 105.501 -45.5zM283.999 617c-62 0 -107.333 13.833 -136 41.5
s-43.667 65.5 -45 113.5h77c0 -63.333 34.667 -95 104 -95c68.667 0 103 31.667 103 95h77c-1.33301 -48 -16.333 -85.833 -45 -113.5s-73.667 -41.5 -135 -41.5z" />
    <glyph glyph-name="Ohungarumlaut" unicode="&#x150;" horiz-adv-x="716" 
d="M358 -10c-102.667 0 -180.5 31.667 -233.5 95s-79.5 158 -79.5 284c0 126.667 26.5 221.834 79.5 285.501s130.833 95.5 233.5 95.5s180.5 -31.833 233.5 -95.5s79.5 -158.834 79.5 -285.501c0 -126 -26.5 -220.667 -79.5 -284s-130.833 -95 -233.5 -95zM358 81
c70 0 121.167 22.833 153.5 68.5s48.5 118.834 48.5 219.501s-16.5 174.167 -49.5 220.5s-83.833 69.5 -152.5 69.5c-69.333 0 -120.333 -23 -153 -69s-49 -119.667 -49 -221c0 -100.667 16.167 -173.834 48.5 -219.501s83.5 -68.5 153.5 -68.5zM224 806l72 143h103
l-103 -156zM392 806l72 143h102l-102 -156z" />
    <glyph glyph-name="ohungarumlaut" unicode="&#x151;" horiz-adv-x="573" 
d="M151 622l70 183h104l-104 -193zM336 622l70 183h104l-104 -193zM287 -10c-80.667 0 -141.834 23.833 -183.501 71.5s-62.5 117.167 -62.5 208.5s20.833 160.833 62.5 208.5s102.834 71.5 183.501 71.5c80 0 140.833 -23.833 182.5 -71.5s62.5 -117.167 62.5 -208.5
s-20.833 -160.833 -62.5 -208.5s-102.5 -71.5 -182.5 -71.5zM287 75c48.667 0 83.833 15.167 105.5 45.5s32.5 80.166 32.5 149.499s-11 119 -33 149s-57 45 -105 45c-48.667 0 -83.834 -15 -105.501 -45s-32.5 -79.667 -32.5 -149s10.833 -119.166 32.5 -149.499
s56.834 -45.5 105.501 -45.5z" />
    <glyph glyph-name="OE" unicode="&#x152;" horiz-adv-x="955" 
d="M363 -7c-103.333 0 -182.331 31.501 -236.998 94.501s-82 156.833 -82 281.5c0 125.333 27.333 219.666 82 282.999s133.667 95 237 95c19.333 0 37.666 -0.5 54.999 -1.5s33.666 -2.83301 48.999 -5.5h434v-90h-327v-230h302v-88h-302v-242h336v-90h-443
c-15.333 -2.66699 -32 -4.5 -50 -5.5s-36 -1.5 -54 -1.5zM369.002 84.001c17.333 0 34.335 0.333008 51.002 1s32 2.66699 46 6v557c-14.667 3.33301 -30.334 5.5 -47.001 6.5s-33.667 1.5 -51 1.5c-74 0 -128 -22.833 -162 -68.5s-51 -118.5 -51 -218.5
c0 -50 4.16699 -93 12.5 -129s21.166 -65.5 38.499 -88.5s39.5 -40 66.5 -51s59.167 -16.5 96.5 -16.5z" />
    <glyph glyph-name="oe" unicode="&#x153;" horiz-adv-x="910" 
d="M672 -9c-46.667 0 -86.0029 9.33203 -118.003 27.999s-56.333 45.334 -73 80.001h-6c-17.333 -35.333 -41.666 -62.333 -72.999 -81s-69.666 -28 -114.999 -28c-80.667 0 -141.834 23.833 -183.501 71.5s-62.5 117.167 -62.5 208.5s20.833 160.833 62.5 208.5
s102.834 71.5 183.501 71.5c46 0 84.833 -9.66699 116.5 -29s55.5 -47 71.5 -83h7c16.667 36 40.667 63.5 72 82.5s69.666 28.5 114.999 28.5c66.667 0 116.834 -20.167 150.501 -60.5s50.5 -99.833 50.5 -178.5c0 -16 -0.333008 -29.667 -1 -41
s-2.33398 -22.333 -5.00098 -33h-331c2 -56 15 -96.833 39 -122.5s60 -38.5 108 -38.5c24.667 0 51.334 2.33301 80.001 7s57.334 11.667 86.001 21l5 -81c-26 -9.33301 -54.833 -16.833 -86.5 -22.5s-62.5 -8.5 -92.5 -8.5zM286.997 74.999
c48.667 0 83.833 15.167 105.5 45.5s32.5 80.166 32.5 149.499s-11 119 -33 149s-57 45 -105 45c-48.667 0 -83.834 -15 -105.501 -45s-32.5 -79.667 -32.5 -149s10.833 -119.166 32.5 -149.499s56.834 -45.5 105.501 -45.5zM773.996 300.999c-2 60 -11.5 103 -28.5 129
s-43.833 39 -80.5 39c-82.667 0 -127 -56 -133 -168h242z" />
    <glyph glyph-name="Racute" unicode="&#x154;" horiz-adv-x="639" 
d="M347 268c-24 -2 -49.334 -2.99902 -76.001 -2.99902c-10.667 0 -24 0.333008 -40 1s-30.333 1.66699 -43 3v-269h-109v735c62.667 10 124.334 15 185.001 15c114.667 0 198.167 -19.333 250.5 -58s78.5 -100.334 78.5 -185.001c0 -113.333 -49.667 -186.333 -149 -219
l171 -288h-119zM281.999 352.001c36 0 66.6689 2.83301 92.002 8.5s46 14.667 62 27s27.667 28.333 35 48s11 43.5 11 71.5c0 54.667 -15.333 94 -46 118s-81.334 36 -152.001 36c-14 0 -29.833 -0.666992 -47.5 -2s-33.834 -3 -48.501 -5v-295
c10.667 -2 24.5 -3.66699 41.5 -5s34.5 -2 52.5 -2zM274.001 803.001l72 149h111l-102 -156z" />
    <glyph glyph-name="racute" unicode="&#x155;" horiz-adv-x="383" 
d="M173 617l70 185h110l-103 -193zM67 540h90l7 -73h4c26 17.333 54.333 33.666 85 48.999s60 26.333 88 33h30v-99h-39c-28 -4 -56 -11.167 -84 -21.5s-52.667 -22.166 -74 -35.499v-393h-107v540z" />
    <glyph glyph-name="Rcommaaccent" unicode="&#x156;" horiz-adv-x="639" 
d="M283 -69h110l-72 -151h-85zM347 268c-24 -2 -49.334 -2.99902 -76.001 -2.99902c-10.667 0 -24 0.333008 -40 1s-30.333 1.66699 -43 3v-269h-109v735c62.667 10 124.334 15 185.001 15c114.667 0 198.167 -19.333 250.5 -58s78.5 -100.334 78.5 -185.001
c0 -113.333 -49.667 -186.333 -149 -219l171 -288h-119zM281.999 352.001c36 0 66.6689 2.83301 92.002 8.5s46 14.667 62 27s27.667 28.333 35 48s11 43.5 11 71.5c0 54.667 -15.333 94 -46 118s-81.334 36 -152.001 36c-14 0 -29.833 -0.666992 -47.5 -2
s-33.834 -3 -48.501 -5v-295c10.667 -2 24.5 -3.66699 41.5 -5s34.5 -2 52.5 -2z" />
    <glyph glyph-name="rcommaaccent" unicode="&#x157;" horiz-adv-x="383" 
d="M72 -69h110l-72 -151h-85zM67 540h90l7 -73h4c26 17.333 54.333 33.666 85 48.999s60 26.333 88 33h30v-99h-39c-28 -4 -56 -11.167 -84 -21.5s-52.667 -22.166 -74 -35.499v-393h-107v540z" />
    <glyph glyph-name="Rcaron" unicode="&#x158;" horiz-adv-x="639" 
d="M160 956l164 -74l164 74v-81l-165 -73l-163 73v81zM347 268c-24 -2 -49.334 -2.99902 -76.001 -2.99902c-10.667 0 -24 0.333008 -40 1s-30.333 1.66699 -43 3v-269h-109v735c62.667 10 124.334 15 185.001 15c114.667 0 198.167 -19.333 250.5 -58
s78.5 -100.334 78.5 -185.001c0 -113.333 -49.667 -186.333 -149 -219l171 -288h-119zM281.999 352.001c36 0 66.6689 2.83301 92.002 8.5s46 14.667 62 27s27.667 28.333 35 48s11 43.5 11 71.5c0 54.667 -15.333 94 -46 118s-81.334 36 -152.001 36
c-14 0 -29.833 -0.666992 -47.5 -2s-33.834 -3 -48.501 -5v-295c10.667 -2 24.5 -3.66699 41.5 -5s34.5 -2 52.5 -2z" />
    <glyph glyph-name="rcaron" unicode="&#x159;" horiz-adv-x="383" 
d="M52 778l163 -74l164 74v-80l-164 -74l-163 74v80zM67 540h90l7 -73h4c26 17.333 54.333 33.666 85 48.999s60 26.333 88 33h30v-99h-39c-28 -4 -56 -11.167 -84 -21.5s-52.667 -22.166 -74 -35.499v-393h-107v540z" />
    <glyph glyph-name="Sacute" unicode="&#x15a;" horiz-adv-x="558" 
d="M268 -12c-34 0 -71.666 2.99805 -112.999 8.99805s-80.333 14 -117 24l3 91c34.667 -9.33301 71.667 -17.166 111 -23.499s74.333 -9.5 105 -9.5c52 0 91.167 9.66699 117.5 29s39.5 47.333 39.5 84c0 19.333 -3.66699 36 -11 50s-17.833 26.333 -31.5 37
s-30 19.667 -49 27s-40.5 14.333 -64.5 21c-35.333 10 -66 21.167 -92 33.5s-47.667 27 -65 44s-30.333 37 -39 60s-13 50.167 -13 81.5c0 32 5.83301 60.667 17.5 86s28.5 47 50.5 65s48.5 31.833 79.5 41.5s65.833 14.5 104.5 14.5c28 0 57.333 -1.83301 88 -5.5
s65 -10.167 103 -19.5l-3 -90c-30.667 8 -61.834 14.333 -93.501 19s-60.167 7 -85.5 7c-46.667 0 -83.167 -10.333 -109.5 -31s-39.5 -49 -39.5 -85c0 -17.333 3 -32.333 9 -45s15.167 -24.167 27.5 -34.5s28.333 -19.666 48 -27.999s43.167 -16.833 70.5 -25.5
c32 -10 61 -20.833 87 -32.5s48 -25.667 66 -42s31.833 -36 41.5 -59s14.5 -50.5 14.5 -82.5c0 -68 -22.167 -120.167 -66.5 -156.5s-107.833 -54.5 -190.5 -54.5zM238.001 802.998l72 149h111l-102 -156z" />
    <glyph glyph-name="sacute" unicode="&#x15b;" horiz-adv-x="455" 
d="M186 617l70 185h110l-103 -193zM217 -11c-24 0 -50.1689 2 -78.502 6s-60.833 10 -97.5 18v82c30 -8 59.5 -14.333 88.5 -19s56.5 -7 82.5 -7c34.667 0 60.834 6.66699 78.501 20s26.5 32.333 26.5 57c0 26 -8.5 45 -25.5 57s-41.167 21 -72.5 27
c-19.333 3.33301 -39.166 7.5 -59.499 12.5s-38.833 13 -55.5 24s-30.5 26.333 -41.5 46s-16.5 46.167 -16.5 79.5c0 50 17.333 89.167 52 117.5s82.334 42.5 143.001 42.5c22.667 0 45.667 -1.33301 69 -4s53 -7.66699 89 -15l-3 -84c-32.667 7.33301 -60 12.5 -82 15.5
s-42 4.5 -60 4.5c-34.667 0 -61 -6.5 -79 -19.5s-27 -31.167 -27 -54.5c0 -14 2.66699 -25.667 8 -35s12.833 -16.833 22.5 -22.5s21 -10.334 34 -14.001s27.5 -7.16699 43.5 -10.5c23.333 -4.66699 45 -10.5 65 -17.5s37.167 -16.5 51.5 -28.5s25.666 -27.167 33.999 -45.5
s12.5 -41.166 12.5 -68.499c0 -52 -17.5 -92.333 -52.5 -121s-84.833 -43 -149.5 -43z" />
    <glyph glyph-name="Scircumflex" unicode="&#x15c;" horiz-adv-x="558" 
d="M268 -12c-34 0 -71.666 2.99805 -112.999 8.99805s-80.333 14 -117 24l3 91c34.667 -9.33301 71.667 -17.166 111 -23.499s74.333 -9.5 105 -9.5c52 0 91.167 9.66699 117.5 29s39.5 47.333 39.5 84c0 19.333 -3.66699 36 -11 50s-17.833 26.333 -31.5 37
s-30 19.667 -49 27s-40.5 14.333 -64.5 21c-35.333 10 -66 21.167 -92 33.5s-47.667 27 -65 44s-30.333 37 -39 60s-13 50.167 -13 81.5c0 32 5.83301 60.667 17.5 86s28.5 47 50.5 65s48.5 31.833 79.5 41.5s65.833 14.5 104.5 14.5c28 0 57.333 -1.83301 88 -5.5
s65 -10.167 103 -19.5l-3 -90c-30.667 8 -61.834 14.333 -93.501 19s-60.167 7 -85.5 7c-46.667 0 -83.167 -10.333 -109.5 -31s-39.5 -49 -39.5 -85c0 -17.333 3 -32.333 9 -45s15.167 -24.167 27.5 -34.5s28.333 -19.666 48 -27.999s43.167 -16.833 70.5 -25.5
c32 -10 61 -20.833 87 -32.5s48 -25.667 66 -42s31.833 -36 41.5 -59s14.5 -50.5 14.5 -82.5c0 -68 -22.167 -120.167 -66.5 -156.5s-107.833 -54.5 -190.5 -54.5zM123.001 887.998l164 74l164 -74v-81l-164 74l-164 -74v81z" />
    <glyph glyph-name="scircumflex" unicode="&#x15d;" horiz-adv-x="455" 
d="M66 706l163 74l165 -74v-80l-164 73l-164 -73v80zM217 -11c-24 0 -50.1689 2 -78.502 6s-60.833 10 -97.5 18v82c30 -8 59.5 -14.333 88.5 -19s56.5 -7 82.5 -7c34.667 0 60.834 6.66699 78.501 20s26.5 32.333 26.5 57c0 26 -8.5 45 -25.5 57s-41.167 21 -72.5 27
c-19.333 3.33301 -39.166 7.5 -59.499 12.5s-38.833 13 -55.5 24s-30.5 26.333 -41.5 46s-16.5 46.167 -16.5 79.5c0 50 17.333 89.167 52 117.5s82.334 42.5 143.001 42.5c22.667 0 45.667 -1.33301 69 -4s53 -7.66699 89 -15l-3 -84c-32.667 7.33301 -60 12.5 -82 15.5
s-42 4.5 -60 4.5c-34.667 0 -61 -6.5 -79 -19.5s-27 -31.167 -27 -54.5c0 -14 2.66699 -25.667 8 -35s12.833 -16.833 22.5 -22.5s21 -10.334 34 -14.001s27.5 -7.16699 43.5 -10.5c23.333 -4.66699 45 -10.5 65 -17.5s37.167 -16.5 51.5 -28.5s25.666 -27.167 33.999 -45.5
s12.5 -41.166 12.5 -68.499c0 -52 -17.5 -92.333 -52.5 -121s-84.833 -43 -149.5 -43z" />
    <glyph glyph-name="uni015E" unicode="&#x15e;" horiz-adv-x="558" 
d="M253 -220c-12.667 0 -26.498 1.16309 -41.498 3.49609s-29.833 5.16602 -44.5 8.49902v69c10 -3.33301 21 -6 33 -8s23.333 -3 34 -3c21.333 0 36.833 4.33301 46.5 13s14.5 21.667 14.5 39c0 24.667 -10 53.334 -30 86.001
c-33.333 0.666992 -70.5 3.83398 -111.5 9.50098s-79.5 13.5 -115.5 23.5l3 91c34.667 -9.33301 71.667 -17.166 111 -23.499s74.333 -9.5 105 -9.5c52 0 91.167 9.66699 117.5 29s39.5 47.333 39.5 84c0 19.333 -3.66699 36 -11 50s-17.833 26.333 -31.5 37
s-30 19.667 -49 27s-40.5 14.333 -64.5 21c-35.333 10 -66 21.167 -92 33.5s-47.667 27 -65 44s-30.333 37 -39 60s-13 50.167 -13 81.5c0 32 5.83301 60.667 17.5 86s28.5 47 50.5 65s48.5 31.833 79.5 41.5s65.833 14.5 104.5 14.5c28 0 57.333 -1.83301 88 -5.5
s65 -10.167 103 -19.5l-3 -90c-30.667 8 -61.834 14.333 -93.501 19s-60.167 7 -85.5 7c-46.667 0 -83.167 -10.333 -109.5 -31s-39.5 -49 -39.5 -85c0 -17.333 3 -32.333 9 -45s15.167 -24.167 27.5 -34.5s28.333 -19.666 48 -27.999s43.167 -16.833 70.5 -25.5
c32 -10 61 -20.833 87 -32.5s48 -25.667 66 -42s31.833 -36 41.5 -59s14.5 -50.5 14.5 -82.5c0 -58 -16.333 -104.5 -49 -139.5s-79.334 -57.167 -140.001 -66.5c13.333 -21.333 22.5 -39.666 27.5 -54.999s7.5 -31.333 7.5 -48c0 -34.667 -10.167 -61.667 -30.5 -81
s-49.5 -29 -87.5 -29z" />
    <glyph glyph-name="uni015F" unicode="&#x15f;" horiz-adv-x="455" 
d="M194 -220c-12.667 0 -26.502 1.16797 -41.502 3.50098s-29.833 5.16602 -44.5 8.49902v69c10 -3.33301 21 -6 33 -8s23.333 -3 34 -3c21.333 0 36.833 4.33301 46.5 13s14.5 21.667 14.5 39c0 25.333 -10 54.333 -30 87c-23.333 0.666992 -48.166 3 -74.499 7
s-56.5 9.66699 -90.5 17v82c30 -8 59.5 -14.333 88.5 -19s56.5 -7 82.5 -7c34.667 0 60.834 6.66699 78.501 20s26.5 32.333 26.5 57c0 26 -8.5 45 -25.5 57s-41.167 21 -72.5 27c-19.333 3.33301 -39.166 7.5 -59.499 12.5s-38.833 13 -55.5 24s-30.5 26.333 -41.5 46
s-16.5 46.167 -16.5 79.5c0 50 17.333 89.167 52 117.5s82.334 42.5 143.001 42.5c22.667 0 45.667 -1.33301 69 -4s53 -7.66699 89 -15l-3 -84c-32.667 7.33301 -60 12.5 -82 15.5s-42 4.5 -60 4.5c-34.667 0 -61 -6.5 -79 -19.5s-27 -31.167 -27 -54.5
c0 -14 2.66699 -25.667 8 -35s12.833 -16.833 22.5 -22.5s21 -10.334 34 -14.001s27.5 -7.16699 43.5 -10.5c23.333 -4.66699 45 -10.5 65 -17.5s37.167 -16.5 51.5 -28.5s25.666 -27.167 33.999 -45.5s12.5 -41.166 12.5 -68.499c0 -43.333 -12.333 -78.666 -37 -105.999
s-60 -45 -106 -53c13.333 -21.333 22.666 -39.833 27.999 -55.5s8 -31.834 8 -48.501c0 -34.667 -10.167 -61.667 -30.5 -81s-49.5 -29 -87.5 -29z" />
    <glyph glyph-name="Scaron" unicode="&#x160;" horiz-adv-x="558" 
d="M268 -12c-34 0 -71.666 2.99805 -112.999 8.99805s-80.333 14 -117 24l3 91c34.667 -9.33301 71.667 -17.166 111 -23.499s74.333 -9.5 105 -9.5c52 0 91.167 9.66699 117.5 29s39.5 47.333 39.5 84c0 19.333 -3.66699 36 -11 50s-17.833 26.333 -31.5 37
s-30 19.667 -49 27s-40.5 14.333 -64.5 21c-35.333 10 -66 21.167 -92 33.5s-47.667 27 -65 44s-30.333 37 -39 60s-13 50.167 -13 81.5c0 32 5.83301 60.667 17.5 86s28.5 47 50.5 65s48.5 31.833 79.5 41.5s65.833 14.5 104.5 14.5c28 0 57.333 -1.83301 88 -5.5
s65 -10.167 103 -19.5l-3 -90c-30.667 8 -61.834 14.333 -93.501 19s-60.167 7 -85.5 7c-46.667 0 -83.167 -10.333 -109.5 -31s-39.5 -49 -39.5 -85c0 -17.333 3 -32.333 9 -45s15.167 -24.167 27.5 -34.5s28.333 -19.666 48 -27.999s43.167 -16.833 70.5 -25.5
c32 -10 61 -20.833 87 -32.5s48 -25.667 66 -42s31.833 -36 41.5 -59s14.5 -50.5 14.5 -82.5c0 -68 -22.167 -120.167 -66.5 -156.5s-107.833 -54.5 -190.5 -54.5zM125.001 955.998l164 -74l164 74v-81l-165 -73l-163 73v81z" />
    <glyph glyph-name="scaron" unicode="&#x161;" horiz-adv-x="455" 
d="M67 778l163 -74l164 74v-80l-164 -74l-163 74v80zM217 -11c-24 0 -50.1689 2 -78.502 6s-60.833 10 -97.5 18v82c30 -8 59.5 -14.333 88.5 -19s56.5 -7 82.5 -7c34.667 0 60.834 6.66699 78.501 20s26.5 32.333 26.5 57c0 26 -8.5 45 -25.5 57s-41.167 21 -72.5 27
c-19.333 3.33301 -39.166 7.5 -59.499 12.5s-38.833 13 -55.5 24s-30.5 26.333 -41.5 46s-16.5 46.167 -16.5 79.5c0 50 17.333 89.167 52 117.5s82.334 42.5 143.001 42.5c22.667 0 45.667 -1.33301 69 -4s53 -7.66699 89 -15l-3 -84c-32.667 7.33301 -60 12.5 -82 15.5
s-42 4.5 -60 4.5c-34.667 0 -61 -6.5 -79 -19.5s-27 -31.167 -27 -54.5c0 -14 2.66699 -25.667 8 -35s12.833 -16.833 22.5 -22.5s21 -10.334 34 -14.001s27.5 -7.16699 43.5 -10.5c23.333 -4.66699 45 -10.5 65 -17.5s37.167 -16.5 51.5 -28.5s25.666 -27.167 33.999 -45.5
s12.5 -41.166 12.5 -68.499c0 -52 -17.5 -92.333 -52.5 -121s-84.833 -43 -149.5 -43z" />
    <glyph glyph-name="uni0162" unicode="&#x162;" horiz-adv-x="572" 
d="M231 649l-215 0.000976562v91h540v-91h-216v-649h-14c15.333 -23.333 25.833 -43.166 31.5 -59.499s8.5 -33.166 8.5 -50.499c0 -34.667 -10.167 -61.667 -30.5 -81s-49.5 -29 -87.5 -29c-12.667 0 -26.5 1.16699 -41.5 3.5s-29.833 5.16602 -44.5 8.49902v69
c10 -3.33301 21 -6 33 -8s23.333 -3 34 -3c21.333 0 36.833 4.33301 46.5 13s14.5 21.667 14.5 39c0 13.333 -2.83301 28.166 -8.5 44.499s-15.167 34.166 -28.5 53.499h-22v649z" />
    <glyph glyph-name="uni0163" unicode="&#x163;" horiz-adv-x="389" 
d="M186 -220c-12.667 0 -26.5 1.16797 -41.5 3.50098s-29.833 5.16602 -44.5 8.49902v69c10 -3.33301 21 -6 33 -8s23.333 -3 34 -3c21.333 0 36.833 4.33301 46.5 13s14.5 21.667 14.5 39c0 15.333 -3.66699 31.833 -11 49.5s-19 37.834 -35 60.501
c-43.333 24 -65 68.667 -65 134v302h-102v92h108l15 141l85 11v-152h145v-92h-144v-279c0 -32 6.66699 -55.5 20 -70.5s34.333 -22.5 63 -22.5c9.33301 0 19.333 0.833008 30 2.5s21.667 4.16699 33 7.5v-83c-30.667 -7.33301 -62 -11 -94 -11h-7
c13.333 -20.667 22.5 -38.834 27.5 -54.501s7.5 -31.5 7.5 -47.5c0 -34.667 -10.167 -61.667 -30.5 -81s-49.5 -29 -87.5 -29z" />
    <glyph glyph-name="Tcaron" unicode="&#x164;" horiz-adv-x="572" 
d="M125 956l164 -74l164 74v-81l-165 -73l-163 73v81zM231 649h-215v91h540v-91h-216v-649h-109v649z" />
    <glyph glyph-name="tcaron" unicode="&#x165;" horiz-adv-x="382" 
d="M276 -8c-106 0 -159 51.333 -159 154v302h-102v92h108l15 141l85 11v-152h104v-92h-103v-279c0 -32 6.66699 -55.5 20 -70.5s34.333 -22.5 63 -22.5c9.33301 0 19.333 0.833008 30 2.5s21.667 4.16699 33 7.5v-83c-30.667 -7.33301 -62 -11 -94 -11zM302 808h88l-32 -228
h-56v228z" />
    <glyph glyph-name="Tbar" unicode="&#x166;" horiz-adv-x="581" 
d="M108 412h127v237h-215v91h540v-91h-216v-237h134v-66h-134v-346h-109v346h-127v66z" />
    <glyph glyph-name="tbar" unicode="&#x167;" horiz-adv-x="397" 
d="M25 337h99v111h-102v92h108l15 141l85 11v-152h145v-92h-144v-111h121v-68h-121v-100c0 -32 6.66699 -55.5 20 -70.5s34.333 -22.5 63 -22.5c9.33301 0 19.333 0.833008 30 2.5s21.667 4.16699 33 7.5v-83c-30.667 -7.33301 -62 -11 -94 -11c-106 0 -159 51.333 -159 154
v123h-99v68z" />
    <glyph glyph-name="Utilde" unicode="&#x168;" horiz-adv-x="726" 
d="M170 854c17.333 28 37.332 49.333 59.999 64s45 22 67 22c14.667 0 28.834 -2.16699 42.501 -6.5s27 -9 40 -14s26 -9.66699 39 -14s26.5 -6.5 40.5 -6.5c28 0 55.333 13 82 39l24 -26c-16.667 -28 -36.5 -49.5 -59.5 -64.5s-45.833 -22.5 -68.5 -22.5
c-14 0 -27.833 2 -41.5 6s-27 8.5 -40 13.5s-26 9.66699 -39 14s-26.5 6.5 -40.5 6.5s-27.833 -2.83301 -41.5 -8.5s-27.5 -15.167 -41.5 -28.5zM362.999 -10c-52 0 -96.5 6 -133.5 18s-67.167 30.5 -90.5 55.5s-40.333 56.833 -51 95.5s-16 84.667 -16 138v443h109v-442
c0 -76.667 14.667 -131.834 44 -165.501s75.333 -50.5 138 -50.5s108.667 16.833 138 50.5s44 88.834 44 165.501v442h109v-443c0 -53.333 -5.33301 -99.333 -16 -138s-27.667 -70.5 -51 -95.5s-53.5 -43.5 -90.5 -55.5s-81.5 -18 -133.5 -18z" />
    <glyph glyph-name="utilde" unicode="&#x169;" horiz-adv-x="579" 
d="M201 -10c-46 0 -80.5 12.501 -103.5 37.501s-34.5 61.5 -34.5 109.5v403h107v-371c0 -32.667 5.5 -55.667 16.5 -69s29.833 -20 56.5 -20c25.333 0 51.5 5.16699 78.5 15.5s54.833 23.166 83.5 38.499v406h107v-540h-90l-7 62h-4l-63 -32.5c-18 -9 -35 -16.5 -51 -22.5
s-31.5 -10.333 -46.5 -13s-31.5 -4 -49.5 -4zM93 668.001c17.333 27.333 37.333 48.167 60 62.5s44.667 21.5 66 21.5c15.333 0 29.666 -2.33301 42.999 -7s26.5 -9.83398 39.5 -15.501s26 -10.834 39 -15.501s26.5 -7 40.5 -7c27.333 0 54 13 80 39l27 -29
c-16.667 -28 -36.5 -49.167 -59.5 -63.5s-45.833 -21.5 -68.5 -21.5c-14.667 0 -28.667 2.33301 -42 7s-26.666 9.83398 -39.999 15.501s-26.5 10.834 -39.5 15.501s-26.5 7 -40.5 7c-26 0 -52.333 -12.667 -79 -38z" />
    <glyph glyph-name="Umacron" unicode="&#x16a;" horiz-adv-x="726" 
d="M198 917h316v-76h-316v76zM363 -10c-52 0 -96.5 6 -133.5 18s-67.167 30.5 -90.5 55.5s-40.333 56.833 -51 95.5s-16 84.667 -16 138v443h109v-442c0 -76.667 14.667 -131.834 44 -165.501s75.333 -50.5 138 -50.5s108.667 16.833 138 50.5s44 88.834 44 165.501v442h109
v-443c0 -53.333 -5.33301 -99.333 -16 -138s-27.667 -70.5 -51 -95.5s-53.5 -43.5 -90.5 -55.5s-81.5 -18 -133.5 -18z" />
    <glyph glyph-name="umacron" unicode="&#x16b;" horiz-adv-x="579" 
d="M201 -10c-46 0 -80.5 12.501 -103.5 37.501s-34.5 61.5 -34.5 109.5v403h107v-371c0 -32.667 5.5 -55.667 16.5 -69s29.833 -20 56.5 -20c25.333 0 51.5 5.16699 78.5 15.5s54.833 23.166 83.5 38.499v406h107v-540h-90l-7 62h-4l-63 -32.5c-18 -9 -35 -16.5 -51 -22.5
s-31.5 -10.333 -46.5 -13s-31.5 -4 -49.5 -4zM125 717.001h322v-74h-322v74z" />
    <glyph glyph-name="Ubreve" unicode="&#x16c;" horiz-adv-x="726" 
d="M360 810c-60.667 0 -105.832 14.167 -135.499 42.5s-44.5 65.833 -44.5 112.5h77c0 -31.333 8.33301 -55.166 25 -71.499s42.667 -24.5 78 -24.5s61.333 8.16699 78 24.5s25 40.166 25 71.499h77c0 -47.333 -14.833 -85 -44.5 -113s-74.834 -42 -135.501 -42z
M363.002 -10c-52 0 -96.5 6 -133.5 18s-67.167 30.5 -90.5 55.5s-40.333 56.833 -51 95.5s-16 84.667 -16 138v443h109v-442c0 -76.667 14.667 -131.834 44 -165.501s75.333 -50.5 138 -50.5s108.667 16.833 138 50.5s44 88.834 44 165.501v442h109v-443
c0 -53.333 -5.33301 -99.333 -16 -138s-27.667 -70.5 -51 -95.5s-53.5 -43.5 -90.5 -55.5s-81.5 -18 -133.5 -18z" />
    <glyph glyph-name="ubreve" unicode="&#x16d;" horiz-adv-x="579" 
d="M201 -10c-46 0 -80.5 12.501 -103.5 37.501s-34.5 61.5 -34.5 109.5v403h107v-371c0 -32.667 5.5 -55.667 16.5 -69s29.833 -20 56.5 -20c25.333 0 51.5 5.16699 78.5 15.5s54.833 23.166 83.5 38.499v406h107v-540h-90l-7 62h-4l-63 -32.5c-18 -9 -35 -16.5 -51 -22.5
s-31.5 -10.333 -46.5 -13s-31.5 -4 -49.5 -4zM284 617.001c-62 0 -107.333 13.833 -136 41.5s-43.667 65.5 -45 113.5h77c0 -63.333 34.667 -95 104 -95c68.667 0 103 31.667 103 95h77c-1.33301 -48 -16.333 -85.833 -45 -113.5s-73.667 -41.5 -135 -41.5z" />
    <glyph glyph-name="Uring" unicode="&#x16e;" horiz-adv-x="726" 
d="M363 -10c-52 0 -96.5 6 -133.5 18s-67.167 30.5 -90.5 55.5s-40.333 56.833 -51 95.5s-16 84.667 -16 138v443h109v-442c0 -76.667 14.667 -131.834 44 -165.501s75.333 -50.5 138 -50.5s108.667 16.833 138 50.5s44 88.834 44 165.501v442h109v-443
c0 -53.333 -5.33301 -99.333 -16 -138s-27.667 -70.5 -51 -95.5s-53.5 -43.5 -90.5 -55.5s-81.5 -18 -133.5 -18zM360 786c-34.667 0 -62.834 10.333 -84.501 31s-32.5 46.667 -32.5 78s10.833 57.333 32.5 78s49.834 31 84.501 31s62.834 -10.333 84.501 -31
s32.5 -46.667 32.5 -78s-10.833 -57.333 -32.5 -78s-49.834 -31 -84.501 -31zM360 834c43.333 0 65 20.333 65 61c0 19.333 -5.33301 34.5 -16 45.5s-27 16.5 -49 16.5c-22.667 0 -39.167 -5.5 -49.5 -16.5s-15.5 -26.167 -15.5 -45.5c0 -40.667 21.667 -61 65 -61z" />
    <glyph glyph-name="uring" unicode="&#x16f;" horiz-adv-x="579" 
d="M287 600c-35.333 0 -63.833 10.167 -85.5 30.5s-32.5 46.5 -32.5 78.5s10.667 58.167 32 78.5s50 30.5 86 30.5c35.333 0 63.833 -10.167 85.5 -30.5s32.5 -46.5 32.5 -78.5s-10.833 -58.167 -32.5 -78.5s-50.167 -30.5 -85.5 -30.5zM287 648
c21.333 0 37.166 5.5 47.499 16.5s15.5 25.833 15.5 44.5s-5.16699 33.5 -15.5 44.5s-26.166 16.5 -47.499 16.5s-37.333 -5.5 -48 -16.5s-16 -25.833 -16 -44.5c0 -19.333 5.33301 -34.333 16 -45s26.667 -16 48 -16zM201 -10c-46 0 -80.5 12.501 -103.5 37.501
s-34.5 61.5 -34.5 109.5v403h107v-371c0 -32.667 5.5 -55.667 16.5 -69s29.833 -20 56.5 -20c25.333 0 51.5 5.16699 78.5 15.5s54.833 23.166 83.5 38.499v406h107v-540h-90l-7 62h-4l-63 -32.5c-18 -9 -35 -16.5 -51 -22.5s-31.5 -10.333 -46.5 -13s-31.5 -4 -49.5 -4z
" />
    <glyph glyph-name="Uhungarumlaut" unicode="&#x170;" horiz-adv-x="726" 
d="M363 -10c-52 0 -96.5 6 -133.5 18s-67.167 30.5 -90.5 55.5s-40.333 56.833 -51 95.5s-16 84.667 -16 138v443h109v-442c0 -76.667 14.667 -131.834 44 -165.501s75.333 -50.5 138 -50.5s108.667 16.833 138 50.5s44 88.834 44 165.501v442h109v-443
c0 -53.333 -5.33301 -99.333 -16 -138s-27.667 -70.5 -51 -95.5s-53.5 -43.5 -90.5 -55.5s-81.5 -18 -133.5 -18zM229 806l72 143h103l-103 -156zM397 806l72 143h102l-102 -156z" />
    <glyph glyph-name="uhungarumlaut" unicode="&#x171;" horiz-adv-x="579" 
d="M201 -10c-46 0 -80.5 12.501 -103.5 37.501s-34.5 61.5 -34.5 109.5v403h107v-371c0 -32.667 5.5 -55.667 16.5 -69s29.833 -20 56.5 -20c25.333 0 51.5 5.16699 78.5 15.5s54.833 23.166 83.5 38.499v406h107v-540h-90l-7 62h-4l-63 -32.5c-18 -9 -35 -16.5 -51 -22.5
s-31.5 -10.333 -46.5 -13s-31.5 -4 -49.5 -4zM151 622.001l70 183h104l-104 -193zM336 622.001l70 183h104l-104 -193z" />
    <glyph glyph-name="Uogonek" unicode="&#x172;" horiz-adv-x="726" 
d="M357 -211c-74.667 0 -111.997 29.335 -111.997 88.002c0 21.333 5.66699 41.333 17 60s29.333 37 54 55c-44 3.33301 -81.333 11.833 -112 25.5s-55.834 33 -75.501 58s-34 55.833 -43 92.5s-13.5 79.667 -13.5 129v443h109v-442c0 -76.667 14.667 -131.834 44 -165.501
s75.333 -50.5 138 -50.5s108.667 16.833 138 50.5s44 88.834 44 165.501v442h109v-443c0 -94.667 -17.5 -166.5 -52.5 -215.5s-92.5 -78.167 -172.5 -87.5c-38 -16.667 -65.833 -34.334 -83.5 -53.001s-26.5 -36.667 -26.5 -54c0 -22 14.333 -33 43 -33
c9.33301 0 20.166 1.16699 32.499 3.5s24.166 5.16602 35.499 8.49902v-65c-22 -8 -46.333 -12 -73 -12z" />
    <glyph glyph-name="uogonek" unicode="&#x173;" horiz-adv-x="579" 
d="M202 -10c-46 0 -80.4971 12.5029 -103.497 37.5029s-34.5 61.5 -34.5 109.5v403h107v-371c0 -32.667 5.5 -55.667 16.5 -69s29.833 -20 56.5 -20c25.333 0 51.5 5.16699 78.5 15.5s54.833 23.166 83.5 38.499v406h107v-555
c-38.667 -16.667 -66.834 -34.334 -84.501 -53.001s-26.5 -36.667 -26.5 -54c0 -22 14.333 -33 43 -33c9.33301 0 20.166 1.16699 32.499 3.5s24.166 5.16602 35.499 8.49902v-65c-22 -8 -46.333 -12 -73 -12c-74.667 0 -112 29.333 -112 88c0 24.667 7.33301 47.5 22 68.5
s39 42.167 73 63.5l-7 62h-4l-63 -32.5c-18 -9 -35 -16.5 -51 -22.5s-31.5 -10.333 -46.5 -13s-31.5 -4 -49.5 -4z" />
    <glyph glyph-name="Wcircumflex" unicode="&#x174;" horiz-adv-x="987" 
d="M15 740h116l114 -489l27 -130h8l31 130l128 489h112l124 -489l30 -130h9l28 130l117 489h116l-193 -740h-140l-120 460l-24 135h-7l-25 -135l-123 -460h-140zM330 888l164 74l164 -74v-81l-164 74l-164 -74v81z" />
    <glyph glyph-name="wcircumflex" unicode="&#x175;" horiz-adv-x="771" 
d="M223 706l163 74l165 -74v-80l-164 73l-164 -73v80zM20 535v5h103l81 -355l15 -76h8l17 76l91 355h101l93 -355l18 -76h7l15 76l79 355h103v-5l-136 -535h-120l-93 345l-13 65h-8l-12 -65l-91 -345h-120z" />
    <glyph glyph-name="Ycircumflex" unicode="&#x176;" horiz-adv-x="628" 
d="M260 246l-261 494h119l165 -327l26 -64h9l26 64l166 327h118l-259 -491v-249h-109v246zM151 888l164 74l164 -74v-81l-164 74l-164 -74v81z" />
    <glyph glyph-name="ycircumflex" unicode="&#x177;" horiz-adv-x="550" 
d="M145 -202l-1 9l76 197l-209 525v11h113l126 -349l21 -77h7l22 77l129 349h110v-11l-293 -749zM116 706l163 74l165 -74v-80l-164 73l-164 -73v80z" />
    <glyph glyph-name="Ydieresis" unicode="&#x178;" horiz-adv-x="628" 
d="M260 246l-261 494h119l165 -327l26 -64h9l26 64l166 327h118l-259 -491v-249h-109v246zM191 812c-42.667 0 -64 21.333 -64 64c0 22 5.33301 38 16 48s26.667 15 48 15s37.5 -5 48.5 -15s16.5 -26 16.5 -48c0 -42.667 -21.667 -64 -65 -64zM439 812
c-43.333 0 -65 21.333 -65 64c0 22 5.33301 38 16 48s27 15 49 15c21.333 0 37.5 -5 48.5 -15s16.5 -26 16.5 -48c0 -42.667 -21.667 -64 -65 -64z" />
    <glyph glyph-name="Zacute" unicode="&#x179;" horiz-adv-x="568" 
d="M31 85l363 557v6h-351v92h482v-83l-364 -560v-6h376v-91h-506v85zM247 803l72 149h111l-102 -156z" />
    <glyph glyph-name="zacute" unicode="&#x17a;" horiz-adv-x="477" 
d="M204 617l70 185h110l-103 -193zM34 71l268 378v6h-259v85h390v-69l-264 -379v-6h274v-86h-409v71z" />
    <glyph glyph-name="Zdotaccent" unicode="&#x17b;" horiz-adv-x="568" 
d="M289 806c-22 0 -38.333 5 -49 15s-16 26 -16 48c0 22.667 5.33301 39 16 49s27 15 49 15c43.333 0 65 -21.333 65 -64c0 -42 -21.667 -63 -65 -63zM31 85l363 557v6h-351v92h482v-83l-364 -560v-6h376v-91h-506v85z" />
    <glyph glyph-name="zdotaccent" unicode="&#x17c;" horiz-adv-x="477" 
d="M34 71l268 378v6h-259v85h390v-69l-264 -379v-6h274v-86h-409v71zM237 630c-21.333 0 -37.333 5 -48 15s-16 26.333 -16 49c0 42 21.333 63 64 63c43.333 0 65 -21 65 -63c0 -22.667 -5.5 -39 -16.5 -49s-27.167 -15 -48.5 -15z" />
    <glyph glyph-name="Zcaron" unicode="&#x17d;" horiz-adv-x="568" 
d="M127 956l164 -74l164 74v-81l-165 -73l-163 73v81zM31 85l363 557v6h-351v92h482v-83l-364 -560v-6h376v-91h-506v85z" />
    <glyph glyph-name="zcaron" unicode="&#x17e;" horiz-adv-x="477" 
d="M80 778l163 -74l164 74v-80l-164 -74l-163 74v80zM34 71l268 378v6h-259v85h390v-69l-264 -379v-6h274v-86h-409v71z" />
    <glyph glyph-name="Schwa" unicode="&#x18f;" horiz-adv-x="662" 
d="M40 320c0 17.333 0.500977 33.502 1.50098 48.502s2.5 30.167 4.5 45.5h463c-2 44 -7.5 81.5 -16.5 112.5s-22.333 56.333 -40 76s-39.667 33.834 -66 42.501s-57.5 13 -93.5 13c-31.333 0 -65.166 -2.83301 -101.499 -8.5s-75.166 -14.834 -116.499 -27.501
c0 1.33301 -0.333008 6.66602 -1 15.999s-1.33398 19.333 -2.00098 30s-1.33398 20.5 -2.00098 29.5s-1 14.167 -1 15.5c16 6 33.667 11.667 53 17s39.166 9.66602 59.499 12.999s40.833 6 61.5 8s40 3 58 3c104.667 0 183.667 -31.167 237 -93.5s80 -154.833 80 -277.5
c0 -126 -26 -223 -78 -291s-128.333 -102 -229 -102c-87.333 0 -154.333 27.5 -201 82.5s-70 137.5 -70 247.5zM313.001 79.002c63.333 0 110.999 20.5 142.999 61.5s49.667 105.833 53 194.5h-364c-1.33301 -88 10.834 -152.667 36.501 -194s69.5 -62 131.5 -62z" />
    <glyph glyph-name="florin" unicode="&#x192;" horiz-adv-x="400" 
d="M132 449l-101.998 0.000976562v91h102v29c0 46 4.16699 84.167 12.5 114.5s22.166 54.666 41.499 72.999s45.333 31.833 78 40.5s73.667 14 123 16l6 -80c-30.667 -2 -56 -5.66699 -76 -11s-35.833 -13.5 -47.5 -24.5s-19.834 -25.667 -24.501 -44s-7 -41.5 -7 -69.5v-44
h131v-91h-131v-628l-106 -41v669z" />
    <glyph glyph-name="uni01C4" unicode="&#x1c4;" horiz-adv-x="1262" 
d="M821 956l164 -74l164 74v-81l-165 -73l-163 73v81zM725 85l363 557v6h-351v92h482v-83l-364 -560v-6h376v-91h-506v85zM256 -12c-33.333 0 -65.333 1.00098 -96 3.00098s-57.667 5 -81 9v737c38 4 74.833 7.16699 110.5 9.5s66.167 3.5 91.5 3.5
c128 0 221.5 -30.5 280.5 -91.5s88.5 -157.5 88.5 -289.5c0 -67.333 -7.5 -125 -22.5 -173s-38.5 -87.333 -70.5 -118s-72.833 -53.334 -122.5 -68.001s-109.167 -22 -178.5 -22zM291 78.001c43.333 0 80.5 5.50098 111.5 16.501s56.5 28.167 76.5 51.5
s34.833 53.5 44.5 90.5s14.5 81.5 14.5 133.5s-4.5 96.167 -13.5 132.5s-23.333 66.166 -43 89.499s-45 40.333 -76 51s-68.167 16 -111.5 16c-16 0 -33.5 -0.5 -52.5 -1.5s-37.167 -2.83301 -54.5 -5.5v-567c20 -2.66699 38 -4.5 54 -5.5s32.667 -1.5 50 -1.5z" />
    <glyph glyph-name="uni01C5" unicode="&#x1c5;" horiz-adv-x="1171" 
d="M774 778l163 -74l164 74v-80l-164 -74l-163 74v80zM728 71l268 378v6h-259v85h390v-69l-264 -379v-6h274v-86h-409v71zM256 -12c-33.333 0 -65.333 1.00098 -96 3.00098s-57.667 5 -81 9v737c38 4 74.833 7.16699 110.5 9.5s66.167 3.5 91.5 3.5
c128 0 221.5 -30.5 280.5 -91.5s88.5 -157.5 88.5 -289.5c0 -67.333 -7.5 -125 -22.5 -173s-38.5 -87.333 -70.5 -118s-72.833 -53.334 -122.5 -68.001s-109.167 -22 -178.5 -22zM291 78.001c43.333 0 80.5 5.50098 111.5 16.501s56.5 28.167 76.5 51.5
s34.833 53.5 44.5 90.5s14.5 81.5 14.5 133.5s-4.5 96.167 -13.5 132.5s-23.333 66.166 -43 89.499s-45 40.333 -76 51s-68.167 16 -111.5 16c-16 0 -33.5 -0.5 -52.5 -1.5s-37.167 -2.83301 -54.5 -5.5v-567c20 -2.66699 38 -4.5 54 -5.5s32.667 -1.5 50 -1.5z" />
    <glyph glyph-name="uni01C6" unicode="&#x1c6;" horiz-adv-x="1057" 
d="M660 778l163 -74l164 74v-80l-164 -74l-163 74v80zM614 71l268 378v6h-259v85h390v-69l-264 -379v-6h274v-86h-409v71zM249 -10c-68.667 0 -120.5 22.1689 -155.5 66.502s-52.5 113.166 -52.5 206.499c0 95.333 23.333 167 70 215s111 72 193 72
c18 0 35.333 -0.833008 52 -2.5s33.667 -3.83398 51 -6.50098v267h106v-808h-94l-9 62h-5c-36 -48 -88 -72 -156 -72zM279 72.002c17.333 0 33.8311 2.66895 49.498 8.00195s29.334 13.166 41.001 23.499s20.834 23.166 27.501 38.499s10 33.333 10 54v265
c-16.667 3.33301 -33.667 5.83301 -51 7.5s-35.666 2.5 -54.999 2.5c-51.333 0 -89.333 -15.333 -114 -46s-37 -82 -37 -154c0 -71.333 10.167 -122.333 30.5 -153s53.166 -46 98.499 -46z" />
    <glyph glyph-name="uni01C7" unicode="&#x1c7;" horiz-adv-x="769" 
d="M505 -159c15.333 33.333 28 63.833 38 91.5s18 54.667 24 81s10.333 53.5 13 81.5s4 59 4 93v552h109v-559c0 -33.333 -2 -64.833 -6 -94.5s-10.667 -59.167 -20 -88.5s-21.5 -59.5 -36.5 -90.5s-33.167 -64.5 -54.5 -100.5zM79 740h109v-651h302v-89h-411v740z" />
    <glyph glyph-name="uni01C8" unicode="&#x1c8;" horiz-adv-x="743" 
d="M622 644c-22 0 -38 5 -48 15s-15 25.667 -15 47s5 37 15 47s26 15 48 15c42.667 0 64 -20.667 64 -62s-21.333 -62 -64 -62zM510 -197c10.667 23.333 19.833 47.001 27.5 71.001s14 49 19 75s8.66699 53.667 11 83s3.5 61 3.5 95v33v71.5v92v94
c0 29.667 -0.166992 55.667 -0.5 78s-0.5 37.166 -0.5 44.499h107v-457c0 -52 -8.16699 -104.5 -24.5 -157.5s-38.5 -101.5 -66.5 -145.5zM78.999 740.001h109v-651h302v-89h-411v740z" />
    <glyph glyph-name="uni01C9" unicode="&#x1c9;" horiz-adv-x="484" 
d="M363 644c-22 0 -38 5 -48 15s-15 25.667 -15 47s5 37 15 47s26 15 48 15c42.667 0 64 -20.667 64 -62s-21.333 -62 -64 -62zM251 -197c10.667 23.333 19.833 47.001 27.5 71.001s14 49 19 75s8.66699 53.667 11 83s3.5 61 3.5 95v33v71.5v92v94
c0 29.667 -0.166992 55.667 -0.5 78s-0.5 37.166 -0.5 44.499h107v-457c0 -52 -8.16699 -104.5 -24.5 -157.5s-38.5 -101.5 -66.5 -145.5zM68.999 808.001h107v-808h-107v808z" />
    <glyph glyph-name="uni01CA" unicode="&#x1ca;" horiz-adv-x="1013" 
d="M749 -159c15.333 33.333 28 63.833 38 91.5s18 54.667 24 81s10.333 53.5 13 81.5s4 59 4 93v552h109v-559c0 -33.333 -2 -64.833 -6 -94.5s-10.667 -59.167 -20 -88.5s-21.5 -59.5 -36.5 -90.5s-33.167 -64.5 -54.5 -100.5zM79 740h93l338 -482l53 -86h7v568h98v-740
h-93l-338 480l-54 87h-7v-567h-97v740z" />
    <glyph glyph-name="uni01CB" unicode="&#x1cb;" horiz-adv-x="987" 
d="M866 644c-22 0 -38 5 -48 15s-15 25.667 -15 47s5 37 15 47s26 15 48 15c42.667 0 64 -20.667 64 -62s-21.333 -62 -64 -62zM754 -197c10.667 23.333 19.833 47.001 27.5 71.001s14 49 19 75s8.66699 53.667 11 83s3.5 61 3.5 95v33v71.5v92v94
c0 29.667 -0.166992 55.667 -0.5 78s-0.5 37.166 -0.5 44.499h107v-457c0 -52 -8.16699 -104.5 -24.5 -157.5s-38.5 -101.5 -66.5 -145.5zM78.999 740.001h93l338 -482l53 -86h7v568h98v-740h-93l-338 480l-54 87h-7v-567h-97v740z" />
    <glyph glyph-name="uni01CC" unicode="&#x1cc;" horiz-adv-x="820" 
d="M698 644c-22 0 -38 5 -48 15s-15 25.667 -15 47s5 37 15 47s26 15 48 15c42.667 0 64 -20.667 64 -62s-21.333 -62 -64 -62zM586 -197c10.667 23.333 19.833 47.001 27.5 71.001s14 49 19 75s8.66699 53.667 11 83s3.5 61 3.5 95v33v71.5v92v94
c0 29.667 -0.166992 55.667 -0.5 78s-0.5 37.166 -0.5 44.499h107v-457c0 -52 -8.16699 -104.5 -24.5 -157.5s-38.5 -101.5 -66.5 -145.5zM66.999 540.001l89.999 -0.000976562l7 -61h5c23.333 12.667 44.833 23.5 64.5 32.5s37.834 16.333 54.501 22
s32.5 9.83398 47.5 12.501s29.833 4 44.5 4c44 0 77.5 -12 100.5 -36s34.5 -61 34.5 -111v-403h-106v369c0 33.333 -6 56.833 -18 70.5s-30.667 20.5 -56 20.5c-22 0 -46.833 -4.5 -74.5 -13.5s-56.5 -21.5 -86.5 -37.5v-409h-107v540z" />
    <glyph glyph-name="Oogonek" unicode="&#x1ea;" horiz-adv-x="716" 
d="M352 -210c-74.667 0 -111.996 29.335 -111.996 88.002c0 41.333 23.333 79.666 70 114.999c-87.333 9.33301 -153.333 45.333 -198 108s-67 152 -67 268c0 126.667 26.5 221.834 79.5 285.501s130.833 95.5 233.5 95.5s180.5 -31.833 233.5 -95.5
s79.5 -158.834 79.5 -285.501c0 -111.333 -20.833 -198 -62.5 -260s-102.834 -99.667 -183.501 -113c-38.667 -17.333 -66.834 -35.333 -84.501 -54s-26.5 -36.667 -26.5 -54c0 -22 14.333 -33 43 -33c9.33301 0 20.166 1.16699 32.499 3.5s24.166 5.16602 35.499 8.49902
v-65c-22 -8 -46.333 -12 -73 -12zM358.004 81.002c70 0 121.167 22.833 153.5 68.5s48.5 118.834 48.5 219.501s-16.5 174.167 -49.5 220.5s-83.833 69.5 -152.5 69.5c-69.333 0 -120.333 -23 -153 -69s-49 -119.667 -49 -221c0 -100.667 16.167 -173.834 48.5 -219.501
s83.5 -68.5 153.5 -68.5z" />
    <glyph glyph-name="oogonek" unicode="&#x1eb;" horiz-adv-x="573" 
d="M296 -205c-74.667 0 -111.998 29.3369 -111.998 88.0039c0 40 21.333 76.333 64 109c-68 7.33301 -119.5 34.666 -154.5 81.999s-52.5 112.666 -52.5 195.999c0 91.333 20.833 160.833 62.5 208.5s102.834 71.5 183.501 71.5c80 0 140.833 -23.833 182.5 -71.5
s62.5 -117.167 62.5 -208.5c0 -74.667 -13.833 -134.5 -41.5 -179.5s-68.167 -75.167 -121.5 -90.5c-38.667 -16.667 -66.834 -34.334 -84.501 -53.001s-26.5 -36.667 -26.5 -54c0 -22 14.333 -33 43 -33c9.33301 0 20.166 1.16699 32.499 3.5
s24.166 5.16602 35.499 8.49902v-65c-22 -8 -46.333 -12 -73 -12zM287.002 75.0039c48.667 0 83.833 15.167 105.5 45.5s32.5 80.166 32.5 149.499s-11 119 -33 149s-57 45 -105 45c-48.667 0 -83.834 -15 -105.501 -45s-32.5 -79.667 -32.5 -149
s10.833 -119.166 32.5 -149.499s56.834 -45.5 105.501 -45.5z" />
    <glyph glyph-name="uni01F1" unicode="&#x1f1;" horiz-adv-x="1248" 
d="M712 85l363 557v6h-351v92h482v-83l-364 -560v-6h376v-91h-506v85zM256 -12c-33.333 0 -65.333 1.00098 -96 3.00098s-57.667 5 -81 9v737c38 4 74.833 7.16699 110.5 9.5s66.167 3.5 91.5 3.5c128 0 221.5 -30.5 280.5 -91.5s88.5 -157.5 88.5 -289.5
c0 -67.333 -7.5 -125 -22.5 -173s-38.5 -87.333 -70.5 -118s-72.833 -53.334 -122.5 -68.001s-109.167 -22 -178.5 -22zM291 78.001c43.333 0 80.5 5.50098 111.5 16.501s56.5 28.167 76.5 51.5s34.833 53.5 44.5 90.5s14.5 81.5 14.5 133.5s-4.5 96.167 -13.5 132.5
s-23.333 66.166 -43 89.499s-45 40.333 -76 51s-68.167 16 -111.5 16c-16 0 -33.5 -0.5 -52.5 -1.5s-37.167 -2.83301 -54.5 -5.5v-567c20 -2.66699 38 -4.5 54 -5.5s32.667 -1.5 50 -1.5z" />
    <glyph glyph-name="uni01F2" unicode="&#x1f2;" horiz-adv-x="1169" 
d="M725 71l268 378v6h-259v85h390v-69l-264 -379v-6h274v-86h-409v71zM256 -12c-33.333 0 -65.333 1.00098 -96 3.00098s-57.667 5 -81 9v737c38 4 74.833 7.16699 110.5 9.5s66.167 3.5 91.5 3.5c128 0 221.5 -30.5 280.5 -91.5s88.5 -157.5 88.5 -289.5
c0 -67.333 -7.5 -125 -22.5 -173s-38.5 -87.333 -70.5 -118s-72.833 -53.334 -122.5 -68.001s-109.167 -22 -178.5 -22zM291 78.001c43.333 0 80.5 5.50098 111.5 16.501s56.5 28.167 76.5 51.5s34.833 53.5 44.5 90.5s14.5 81.5 14.5 133.5s-4.5 96.167 -13.5 132.5
s-23.333 66.166 -43 89.499s-45 40.333 -76 51s-68.167 16 -111.5 16c-16 0 -33.5 -0.5 -52.5 -1.5s-37.167 -2.83301 -54.5 -5.5v-567c20 -2.66699 38 -4.5 54 -5.5s32.667 -1.5 50 -1.5z" />
    <glyph glyph-name="uni01F3" unicode="&#x1f3;" horiz-adv-x="1057" 
d="M614 71l268 378v6h-259v85h390v-69l-264 -379v-6h274v-86h-409v71zM249 -10c-68.667 0 -120.5 22.1689 -155.5 66.502s-52.5 113.166 -52.5 206.499c0 95.333 23.333 167 70 215s111 72 193 72c18 0 35.333 -0.833008 52 -2.5s33.667 -3.83398 51 -6.50098v267h106v-808
h-94l-9 62h-5c-36 -48 -88 -72 -156 -72zM279 72.002c17.333 0 33.8311 2.66895 49.498 8.00195s29.334 13.166 41.001 23.499s20.834 23.166 27.501 38.499s10 33.333 10 54v265c-16.667 3.33301 -33.667 5.83301 -51 7.5s-35.666 2.5 -54.999 2.5
c-51.333 0 -89.333 -15.333 -114 -46s-37 -82 -37 -154c0 -71.333 10.167 -122.333 30.5 -153s53.166 -46 98.499 -46z" />
    <glyph glyph-name="Gacute" unicode="&#x1f4;" horiz-adv-x="637" 
d="M307 803l72 149h111l-102 -156zM381 -10c-114.667 0.666992 -199.33 31.999 -253.997 93.999s-82 157 -82 285c0 128.667 28.667 224.334 86 287.001s145.333 94 264 94c27.333 0 56.666 -1.83301 87.999 -5.5s61.666 -9.16699 90.999 -16.5v-90
c-36 7.33301 -67.5 12.5 -94.5 15.5s-52.167 4.5 -75.5 4.5c-44.667 0 -82.667 -5.33301 -114 -16s-56.833 -27.667 -76.5 -51s-34 -53.166 -43 -89.499s-13.5 -80.5 -13.5 -132.5c0 -51.333 4.33301 -95 13 -131s22.167 -65.667 40.5 -89s42 -40.333 71 -51
s63.833 -16 104.5 -16c12 0 26.167 0.666992 42.5 2s33.166 3 50.499 5v287h101v-359c-36 -8.66699 -71.167 -15.334 -105.5 -20.001s-65.5 -7 -93.5 -7z" />
    <glyph glyph-name="gacute" unicode="&#x1f5;" horiz-adv-x="580" 
d="M263 617l70 185h110l-103 -193zM255 -220c-30 0 -60.333 2 -91 6s-58.334 9.66699 -83.001 17l7 82c24.667 -6.66699 50 -12 76 -16s51.667 -6 77 -6c26 0 49.5 3 70.5 9s39 16 54 30s26.5 32.5 34.5 55.5s12 51.167 12 84.5v34h-6c-34 -48 -85.667 -72 -155 -72
s-121.666 21.333 -156.999 64s-53 108.667 -53 198c0 94 23.5 164.833 70.5 212.5s111.167 71.5 192.5 71.5c30.667 0 62.667 -2.33301 96 -7s71.333 -12.667 114 -24v-459c0 -52 -6.33301 -95.833 -19 -131.5s-30.5 -64.5 -53.5 -86.5s-50.333 -37.833 -82 -47.5
s-66.5 -14.5 -104.5 -14.5zM279 83c18 0 34.665 2.66797 49.998 8.00098s28.833 13.166 40.5 23.499s20.834 23 27.501 38s10 32.5 10 52.5v256c-16.667 3.33301 -33.5 5.83301 -50.5 7.5s-35.167 2.5 -54.5 2.5c-52 0 -90.333 -15 -115 -45s-37 -80.667 -37 -152
c0 -68 10.333 -116.833 31 -146.5s53.334 -44.5 98.001 -44.5z" />
    <glyph glyph-name="Aringacute" unicode="&#x1fa;" horiz-adv-x="656" 
d="M5 7l218 654c-25.333 21.333 -38 49.666 -38 84.999c0 32 9.83301 59 29.5 81s46.5 35.667 80.5 41l56 106h111l-75 -114c25.333 -8.66699 45.5 -23.167 60.5 -43.5s22.5 -43.833 22.5 -70.5c0 -17.333 -3.33301 -33.166 -10 -47.499s-15.667 -26.5 -27 -36.5l218 -655
v-7h-105l-69 208h-298l-69 -208h-105v7zM327 681c22.667 0 40.667 6 54 18s20 27.667 20 47c0 20 -6.66699 36 -20 48s-31.333 18 -54 18s-40.334 -6 -53.001 -18s-19 -28 -19 -48c0 -19.333 6.33301 -35 19 -47s30.334 -18 53.001 -18zM449 300l-76 232l-26 85h-38l-27 -85
l-76 -232h243z" />
    <glyph glyph-name="aringacute" unicode="&#x1fb;" horiz-adv-x="520" 
d="M176 -5c-46 0 -81.335 12.833 -106.002 38.5s-37 61.5 -37 107.5c0 52 16.167 91.667 48.5 119s82.833 43.666 151.5 48.999l117 9v33c0 22 -1.83301 40.333 -5.5 55s-10 26.5 -19 35.5s-21.333 15.333 -37 19s-35.167 5.5 -58.5 5.5c-20.667 0 -44.667 -1.66699 -72 -5
s-54.333 -7.66602 -81 -12.999l-8 80c63.333 12.667 123.333 19 180 19c71.333 0 123.833 -14.167 157.5 -42.5s50.5 -72.833 50.5 -133.5v-371h-88l-10 67h-7c-27.333 -22 -55.666 -39.5 -84.999 -52.5s-59.666 -19.5 -90.999 -19.5zM263.998 600
c-35.333 0 -63.832 10.167 -85.499 30.5s-32.5 46.5 -32.5 78.5c0 29.333 9.16699 53.833 27.5 73.5s43.166 31.167 74.499 34.5l61 161h110l-93 -175c17.333 -9.33301 31 -22 41 -38s15 -34.667 15 -56c0 -32 -10.833 -58.167 -32.5 -78.5s-50.167 -30.5 -85.5 -30.5z
M216.999 75c21.333 0 43.833 5.5 67.5 16.5s45.5 23.167 65.5 36.5v125l-88 -8c-44.667 -4.66699 -76 -14 -94 -28s-27 -36 -27 -66c0 -50.667 25.333 -76 76 -76zM263.999 648c21.333 0 37.166 5.5 47.499 16.5s15.5 25.833 15.5 44.5s-5.16699 33.5 -15.5 44.5
s-26.166 16.5 -47.499 16.5s-37.333 -5.5 -48 -16.5s-16 -25.833 -16 -44.5c0 -19.333 5.33301 -34.333 16 -45s26.667 -16 48 -16z" />
    <glyph glyph-name="AEacute" unicode="&#x1fc;" horiz-adv-x="869" 
d="M460 803l72 149h111l-102 -156zM3 7l277 733h536v-90h-310l12 -232h275v-89h-270l13 -239h291v-90h-399l-9 208h-230l-79 -208h-107v7zM224 300h192l-15 356h-42z" />
    <glyph glyph-name="aeacute" unicode="&#x1fd;" horiz-adv-x="837" 
d="M387 617l70 185h110l-103 -193zM598 -10c-89.333 0 -153.333 30.9961 -192 92.9961h-6c-48.667 -31.333 -90.167 -53.833 -124.5 -67.5s-67.5 -20.5 -99.5 -20.5c-46 0 -81.167 12.833 -105.5 38.5s-36.5 61.5 -36.5 107.5c0 52 16 91.5 48 118.5s82.333 43.167 151 48.5
l118 9v44c-0.666992 38.667 -10 65.834 -28 81.501s-49.667 23.5 -95 23.5c-20.667 0 -44.5 -1.66699 -71.5 -5s-53.167 -7.66602 -78.5 -12.999l-9 80c34 6.66699 65.833 11.5 95.5 14.5s58.167 4.5 85.5 4.5c85.333 0 139.666 -29 162.999 -87h6
c18.667 28.667 42.667 50.5 72 65.5s64 22.5 104 22.5c66.667 0 117 -20.167 151 -60.5s51 -99.833 51 -178.5c0 -17.333 -0.5 -31.666 -1.5 -42.999s-2.5 -21.666 -4.5 -30.999h-332c2 -55.333 14.833 -96 38.5 -122s60.167 -39 109.5 -39
c24.667 0 51.334 2.33301 80.001 7s57.334 11.667 86.001 21l5 -81c-26.667 -9.33301 -55.834 -16.833 -87.501 -22.5s-62.5 -8.5 -92.5 -8.5zM218 73.9961c19.333 0 40.5 5.16602 63.5 15.499s48.167 24.5 75.5 42.5c-1.33301 2.66699 -2.33301 9.83398 -3 21.501
s-1.16699 24.167 -1.5 37.5s-0.666016 26 -0.999023 38s-0.5 20.333 -0.5 25l-89 -8c-44.667 -4 -75.834 -13.333 -93.501 -28s-26.5 -37 -26.5 -67c0 -51.333 25.333 -77 76 -77zM700 299.995c-1.33301 60 -10.333 102.833 -27 128.5s-43.667 38.5 -81 38.5
c-83.333 0 -128 -55.667 -134 -167h242z" />
    <glyph glyph-name="Oslashacute" unicode="&#x1fe;" horiz-adv-x="720" 
d="M111 108c-42.667 62.667 -63.999 149.666 -63.999 260.999c0 126.667 26.5 221.834 79.5 285.501s130.833 95.5 233.5 95.5c84 0 151.667 -22 203 -66l44 56h87l-84 -108c42.667 -64 64 -151.667 64 -263c0 -126 -26.5 -220.667 -79.5 -284s-131.167 -95 -234.5 -95
c-84.667 0 -152.334 22 -203.001 66l-44 -56h-87zM360.001 80.999c70 0 121.333 22.833 154 68.5s49 118.834 49 219.501c0 71.333 -8.33301 128.666 -25 171.999l-319 -406c32 -36 79 -54 141 -54zM158.001 368.999c0 -72.667 7.66699 -129.667 23 -171l320 407
c-33.333 36 -80.333 54 -141 54c-69.333 0 -120.333 -23 -153 -69s-49 -119.667 -49 -221zM313.001 802.999l72 149h111l-102 -156z" />
    <glyph glyph-name="oslashacute" unicode="&#x1ff;" horiz-adv-x="579" 
d="M90 83c-30.667 46.667 -46 109 -46 187c0 90 20.5 159.167 61.5 207.5s102.5 72.5 184.5 72.5c64.667 0 116.667 -15.667 156 -47l32 37h81l-70 -83c31.333 -46.667 47 -109 47 -187c0 -90.667 -20.667 -160 -62 -208s-102.666 -72 -183.999 -72
c-66.667 0 -119.334 16 -158.001 48l-32 -38h-81zM290 75c50.667 0 86.333 15.501 107 46.501s31 80.5 31 148.5c0 39.333 -3.66699 73.666 -11 102.999l-225 -264c22 -22.667 54.667 -34 98 -34zM151.999 270.001c0 -41.333 3.33203 -75.333 9.99902 -102l223 263
c-22 22 -53.667 33 -95 33c-51.333 0 -87.166 -15.333 -107.499 -46s-30.5 -80 -30.5 -148zM245.998 617.001l70 185h110l-103 -193z" />
    <glyph glyph-name="Adblgrave" unicode="&#x200;" horiz-adv-x="656" 
d="M5 7l242 733h162l242 -733v-7h-105l-70 209h-297l-69 -209h-105v7zM450 298l-78 234l-40 126h-9l-40 -126l-77 -234h244zM208 793l-103 156h102l73 -143zM376 793l-104 156h103l72 -143z" />
    <glyph glyph-name="adblgrave" unicode="&#x201;" horiz-adv-x="520" 
d="M176 -5c-46 0 -81.335 12.833 -106.002 38.5s-37 61.5 -37 107.5c0 52 16.167 91.667 48.5 119s82.833 43.666 151.5 48.999l117 9v33c0 22 -1.83301 40.333 -5.5 55s-10 26.5 -19 35.5s-21.333 15.333 -37 19s-35.167 5.5 -58.5 5.5c-20.667 0 -44.667 -1.66699 -72 -5
s-54.333 -7.66602 -81 -12.999l-8 80c63.333 12.667 123.333 19 180 19c71.333 0 123.833 -14.167 157.5 -42.5s50.5 -72.833 50.5 -133.5v-371h-88l-10 67h-7c-27.333 -22 -55.666 -39.5 -84.999 -52.5s-59.666 -19.5 -90.999 -19.5zM216.998 75
c21.333 0 43.833 5.5 67.5 16.5s45.5 23.167 65.5 36.5v125l-88 -8c-44.667 -4.66699 -76 -14 -94 -28s-27 -36 -27 -66c0 -50.667 25.333 -76 76 -76zM144.998 612l-104 193h104l69 -183zM329.998 612l-104 193h104l69 -183z" />
    <glyph glyph-name="Ainvertedbreve" unicode="&#x202;" horiz-adv-x="656" 
d="M5 7l242 733h162l242 -733v-7h-105l-70 209h-297l-69 -209h-105v7zM450 298l-78 234l-40 126h-9l-40 -126l-77 -234h244zM431 817c0 64 -34.334 96 -103.001 96s-103 -32 -103 -96h-77c0 47.333 14.833 85.166 44.5 113.499s74.834 42.5 135.501 42.5
s106 -14.167 136 -42.5s45 -66.166 45 -113.499h-78z" />
    <glyph glyph-name="ainvertedbreve" unicode="&#x203;" horiz-adv-x="520" 
d="M176 -5c-46 0 -81.335 12.833 -106.002 38.5s-37 61.5 -37 107.5c0 52 16.167 91.667 48.5 119s82.833 43.666 151.5 48.999l117 9v33c0 22 -1.83301 40.333 -5.5 55s-10 26.5 -19 35.5s-21.333 15.333 -37 19s-35.167 5.5 -58.5 5.5c-20.667 0 -44.667 -1.66699 -72 -5
s-54.333 -7.66602 -81 -12.999l-8 80c63.333 12.667 123.333 19 180 19c71.333 0 123.833 -14.167 157.5 -42.5s50.5 -72.833 50.5 -133.5v-371h-88l-10 67h-7c-27.333 -22 -55.666 -39.5 -84.999 -52.5s-59.666 -19.5 -90.999 -19.5zM216.998 75
c21.333 0 43.833 5.5 67.5 16.5s45.5 23.167 65.5 36.5v125l-88 -8c-44.667 -4.66699 -76 -14 -94 -28s-27 -36 -27 -66c0 -50.667 25.333 -76 76 -76zM85.998 624c1.33301 48 16.332 85.833 44.999 113.5s74 41.5 136 41.5s107.333 -13.833 136 -41.5
s43.334 -65.5 44.001 -113.5h-77c0 63.333 -34.333 95 -103 95c-34 0 -59.667 -7.5 -77 -22.5s-26.333 -39.167 -27 -72.5h-77z" />
    <glyph glyph-name="Edblgrave" unicode="&#x204;" horiz-adv-x="591" 
d="M79 740h461v-90h-352v-231h322v-90h-322v-239h361v-90h-470v740zM192 793l-103 156h102l73 -143zM360 793l-104 156h103l72 -143z" />
    <glyph glyph-name="edblgrave" unicode="&#x205;" horiz-adv-x="526" 
d="M146 612l-104 193h104l69 -183zM331 612l-104 193h104l69 -183zM287 -9c-80.667 0 -141.668 23.001 -183.001 69.001s-62 113.667 -62 203c0 93.333 20.5 164.333 61.5 213s100.833 73 179.5 73c135.333 0 203 -80.333 203 -241c0 -16 -0.5 -29.833 -1.5 -41.5
s-2.5 -22.5 -4.5 -32.5h-331c3.33301 -56.667 16.5 -97.334 39.5 -122.001s59.167 -37 108.5 -37c24.667 0 51.334 2.33301 80.001 7s56.667 11.667 84 21l5 -81c-25.333 -9.33301 -54 -16.833 -86 -22.5s-63 -8.5 -93 -8.5zM279.999 469.001
c-41.333 0 -72.668 -13.3311 -94.001 -39.998s-33.666 -68.334 -36.999 -125.001h240c-1.33301 59.333 -10.333 101.666 -27 126.999s-44 38 -82 38z" />
    <glyph glyph-name="Einvertedbreve" unicode="&#x206;" horiz-adv-x="591" 
d="M79 740h461v-90h-352v-231h322v-90h-322v-239h361v-90h-470v740zM413 817c0 64 -34.334 96 -103.001 96s-103 -32 -103 -96h-77c0 47.333 14.833 85.166 44.5 113.499s74.834 42.5 135.501 42.5s106 -14.167 136 -42.5s45 -66.166 45 -113.499h-78z" />
    <glyph glyph-name="einvertedbreve" unicode="&#x207;" horiz-adv-x="526" 
d="M92 624c1.33301 48 16.332 85.833 44.999 113.5s74 41.5 136 41.5s107.333 -13.833 136 -41.5s43.334 -65.5 44.001 -113.5h-77c0 63.333 -34.333 95 -103 95c-34 0 -59.667 -7.5 -77 -22.5s-26.333 -39.167 -27 -72.5h-77zM286.999 -9
c-80.667 0 -141.668 23.001 -183.001 69.001s-62 113.667 -62 203c0 93.333 20.5 164.333 61.5 213s100.833 73 179.5 73c135.333 0 203 -80.333 203 -241c0 -16 -0.5 -29.833 -1.5 -41.5s-2.5 -22.5 -4.5 -32.5h-331c3.33301 -56.667 16.5 -97.334 39.5 -122.001
s59.167 -37 108.5 -37c24.667 0 51.334 2.33301 80.001 7s56.667 11.667 84 21l5 -81c-25.333 -9.33301 -54 -16.833 -86 -22.5s-63 -8.5 -93 -8.5zM279.998 469.001c-41.333 0 -72.668 -13.3311 -94.001 -39.998s-33.666 -68.334 -36.999 -125.001h240
c-1.33301 59.333 -10.333 101.666 -27 126.999s-44 38 -82 38z" />
    <glyph glyph-name="Idblgrave" unicode="&#x208;" horiz-adv-x="266" 
d="M79 740h109v-740h-109v740zM21 793l-103 156h102l73 -143zM189 793l-104 156h103l72 -143z" />
    <glyph glyph-name="idblgrave" unicode="&#x209;" horiz-adv-x="243" 
d="M0 612l-104 193h104l69 -183zM185 612l-104 193h104l69 -183zM69 540h106v-540h-106v540z" />
    <glyph glyph-name="Iinvertedbreve" unicode="&#x20a;" horiz-adv-x="266" 
d="M79 740h109v-740h-109v740zM238 817c0 64 -34.334 96 -103.001 96s-103 -32 -103 -96h-77c0 47.333 14.833 85.166 44.5 113.499s74.834 42.5 135.501 42.5s106 -14.167 136 -42.5s45 -66.166 45 -113.499h-78z" />
    <glyph glyph-name="iinvertedbreve" unicode="&#x20b;" horiz-adv-x="243" 
d="M-38 624c0.666992 48 14.332 85.833 40.999 113.5s68.334 41.5 125.001 41.5c56 0 97.333 -13.833 124 -41.5s40.667 -65.5 42 -113.5h-69c-0.666992 63.333 -33 95 -97 95c-32 0 -56.167 -7.5 -72.5 -22.5s-24.5 -39.167 -24.5 -72.5h-69zM68.998 540h106v-540h-106v540
z" />
    <glyph glyph-name="Odblgrave" unicode="&#x20c;" horiz-adv-x="716" 
d="M358 -10c-102.667 0 -180.5 31.667 -233.5 95s-79.5 158 -79.5 284c0 126.667 26.5 221.834 79.5 285.501s130.833 95.5 233.5 95.5s180.5 -31.833 233.5 -95.5s79.5 -158.834 79.5 -285.501c0 -126 -26.5 -220.667 -79.5 -284s-130.833 -95 -233.5 -95zM358 81
c70 0 121.167 22.833 153.5 68.5s48.5 118.834 48.5 219.501s-16.5 174.167 -49.5 220.5s-83.833 69.5 -152.5 69.5c-69.333 0 -120.333 -23 -153 -69s-49 -119.667 -49 -221c0 -100.667 16.167 -173.834 48.5 -219.501s83.5 -68.5 153.5 -68.5zM240 793l-103 156h102
l73 -143zM408 793l-104 156h103l72 -143z" />
    <glyph glyph-name="odblgrave" unicode="&#x20d;" horiz-adv-x="573" 
d="M159 612l-104 193h104l69 -183zM344 612l-104 193h104l69 -183zM287 -10c-80.667 0 -141.834 23.833 -183.501 71.5s-62.5 117.167 -62.5 208.5s20.833 160.833 62.5 208.5s102.834 71.5 183.501 71.5c80 0 140.833 -23.833 182.5 -71.5s62.5 -117.167 62.5 -208.5
s-20.833 -160.833 -62.5 -208.5s-102.5 -71.5 -182.5 -71.5zM287 75c48.667 0 83.833 15.167 105.5 45.5s32.5 80.166 32.5 149.499s-11 119 -33 149s-57 45 -105 45c-48.667 0 -83.834 -15 -105.501 -45s-32.5 -79.667 -32.5 -149s10.833 -119.166 32.5 -149.499
s56.834 -45.5 105.501 -45.5z" />
    <glyph glyph-name="Oinvertedbreve" unicode="&#x20e;" horiz-adv-x="716" 
d="M358 -10c-102.667 0 -180.5 31.667 -233.5 95s-79.5 158 -79.5 284c0 126.667 26.5 221.834 79.5 285.501s130.833 95.5 233.5 95.5s180.5 -31.833 233.5 -95.5s79.5 -158.834 79.5 -285.501c0 -126 -26.5 -220.667 -79.5 -284s-130.833 -95 -233.5 -95zM358 81
c70 0 121.167 22.833 153.5 68.5s48.5 118.834 48.5 219.501s-16.5 174.167 -49.5 220.5s-83.833 69.5 -152.5 69.5c-69.333 0 -120.333 -23 -153 -69s-49 -119.667 -49 -221c0 -100.667 16.167 -173.834 48.5 -219.501s83.5 -68.5 153.5 -68.5zM460 817
c0 64 -34.334 96 -103.001 96s-103 -32 -103 -96h-77c0 47.333 14.833 85.166 44.5 113.499s74.834 42.5 135.501 42.5s106 -14.167 136 -42.5s45 -66.166 45 -113.499h-78z" />
    <glyph glyph-name="oinvertedbreve" unicode="&#x20f;" horiz-adv-x="573" 
d="M107 624c1.33301 48 16.332 85.833 44.999 113.5s74 41.5 136 41.5s107.333 -13.833 136 -41.5s43.334 -65.5 44.001 -113.5h-77c0 63.333 -34.333 95 -103 95c-34 0 -59.667 -7.5 -77 -22.5s-26.333 -39.167 -27 -72.5h-77zM286.999 -10
c-80.667 0 -141.834 23.833 -183.501 71.5s-62.5 117.167 -62.5 208.5s20.833 160.833 62.5 208.5s102.834 71.5 183.501 71.5c80 0 140.833 -23.833 182.5 -71.5s62.5 -117.167 62.5 -208.5s-20.833 -160.833 -62.5 -208.5s-102.5 -71.5 -182.5 -71.5zM286.999 75
c48.667 0 83.833 15.167 105.5 45.5s32.5 80.166 32.5 149.499s-11 119 -33 149s-57 45 -105 45c-48.667 0 -83.834 -15 -105.501 -45s-32.5 -79.667 -32.5 -149s10.833 -119.166 32.5 -149.499s56.834 -45.5 105.501 -45.5z" />
    <glyph glyph-name="Rdblgrave" unicode="&#x210;" horiz-adv-x="639" 
d="M347 268c-24 -2 -49.334 -2.99902 -76.001 -2.99902c-10.667 0 -24 0.333008 -40 1s-30.333 1.66699 -43 3v-269h-109v735c62.667 10 124.334 15 185.001 15c114.667 0 198.167 -19.333 250.5 -58s78.5 -100.334 78.5 -185.001c0 -113.333 -49.667 -186.333 -149 -219
l171 -288h-119zM281.999 352.001c36 0 66.6689 2.83301 92.002 8.5s46 14.667 62 27s27.667 28.333 35 48s11 43.5 11 71.5c0 54.667 -15.333 94 -46 118s-81.334 36 -152.001 36c-14 0 -29.833 -0.666992 -47.5 -2s-33.834 -3 -48.501 -5v-295
c10.667 -2 24.5 -3.66699 41.5 -5s34.5 -2 52.5 -2zM205.001 793.001l-103 156h102l73 -143zM373.001 793.001l-104 156h103l72 -143z" />
    <glyph glyph-name="rdblgrave" unicode="&#x211;" horiz-adv-x="383" 
d="M91 612l-104 193h104l69 -183zM276 612l-104 193h104l69 -183zM67 540h90l7 -73h4c26 17.333 54.333 33.666 85 48.999s60 26.333 88 33h30v-99h-39c-28 -4 -56 -11.167 -84 -21.5s-52.667 -22.166 -74 -35.499v-393h-107v540z" />
    <glyph glyph-name="Rinvertedbreve" unicode="&#x212;" horiz-adv-x="639" 
d="M347 268c-24 -2 -49.334 -2.99902 -76.001 -2.99902c-10.667 0 -24 0.333008 -40 1s-30.333 1.66699 -43 3v-269h-109v735c62.667 10 124.334 15 185.001 15c114.667 0 198.167 -19.333 250.5 -58s78.5 -100.334 78.5 -185.001c0 -113.333 -49.667 -186.333 -149 -219
l171 -288h-119zM281.999 352.001c36 0 66.6689 2.83301 92.002 8.5s46 14.667 62 27s27.667 28.333 35 48s11 43.5 11 71.5c0 54.667 -15.333 94 -46 118s-81.334 36 -152.001 36c-14 0 -29.833 -0.666992 -47.5 -2s-33.834 -3 -48.501 -5v-295
c10.667 -2 24.5 -3.66699 41.5 -5s34.5 -2 52.5 -2zM424.001 817.001c0 64 -34.334 96 -103.001 96s-103 -32 -103 -96h-77c0 47.333 14.833 85.166 44.5 113.499s74.834 42.5 135.501 42.5s106 -14.167 136 -42.5s45 -66.166 45 -113.499h-78z" />
    <glyph glyph-name="rinvertedbreve" unicode="&#x213;" horiz-adv-x="383" 
d="M36 624c1.33301 48 16.332 85.833 44.999 113.5s74 41.5 136 41.5s107.333 -13.833 136 -41.5s43.334 -65.5 44.001 -113.5h-77c0 63.333 -34.333 95 -103 95c-34 0 -59.667 -7.5 -77 -22.5s-26.333 -39.167 -27 -72.5h-77zM66.999 540h90l7 -73h4
c26 17.333 54.333 33.666 85 48.999s60 26.333 88 33h30v-99h-39c-28 -4 -56 -11.167 -84 -21.5s-52.667 -22.166 -74 -35.499v-393h-107v540z" />
    <glyph glyph-name="Udblgrave" unicode="&#x214;" horiz-adv-x="726" 
d="M363 -10c-52 0 -96.5 6 -133.5 18s-67.167 30.5 -90.5 55.5s-40.333 56.833 -51 95.5s-16 84.667 -16 138v443h109v-442c0 -76.667 14.667 -131.834 44 -165.501s75.333 -50.5 138 -50.5s108.667 16.833 138 50.5s44 88.834 44 165.501v442h109v-443
c0 -53.333 -5.33301 -99.333 -16 -138s-27.667 -70.5 -51 -95.5s-53.5 -43.5 -90.5 -55.5s-81.5 -18 -133.5 -18zM243 793l-103 156h102l73 -143zM411 793l-104 156h103l72 -143z" />
    <glyph glyph-name="udblgrave" unicode="&#x215;" horiz-adv-x="579" 
d="M165 612l-104 193h104l69 -183zM350 612l-104 193h104l69 -183zM201 -10c-46 0 -80.5 12.501 -103.5 37.501s-34.5 61.5 -34.5 109.5v403h107v-371c0 -32.667 5.5 -55.667 16.5 -69s29.833 -20 56.5 -20c25.333 0 51.5 5.16699 78.5 15.5s54.833 23.166 83.5 38.499v406
h107v-540h-90l-7 62h-4l-63 -32.5c-18 -9 -35 -16.5 -51 -22.5s-31.5 -10.333 -46.5 -13s-31.5 -4 -49.5 -4z" />
    <glyph glyph-name="Uinvertedbreve" unicode="&#x216;" horiz-adv-x="726" 
d="M363 -10c-52 0 -96.5 6 -133.5 18s-67.167 30.5 -90.5 55.5s-40.333 56.833 -51 95.5s-16 84.667 -16 138v443h109v-442c0 -76.667 14.667 -131.834 44 -165.501s75.333 -50.5 138 -50.5s108.667 16.833 138 50.5s44 88.834 44 165.501v442h109v-443
c0 -53.333 -5.33301 -99.333 -16 -138s-27.667 -70.5 -51 -95.5s-53.5 -43.5 -90.5 -55.5s-81.5 -18 -133.5 -18zM461 817c0 64 -34.334 96 -103.001 96s-103 -32 -103 -96h-77c0 47.333 14.833 85.166 44.5 113.499s74.834 42.5 135.501 42.5s106 -14.167 136 -42.5
s45 -66.166 45 -113.499h-78z" />
    <glyph glyph-name="uinvertedbreve" unicode="&#x217;" horiz-adv-x="579" 
d="M109 624c1.33301 48 16.332 85.833 44.999 113.5s74 41.5 136 41.5s107.333 -13.833 136 -41.5s43.334 -65.5 44.001 -113.5h-77c0 63.333 -34.333 95 -103 95c-34 0 -59.667 -7.5 -77 -22.5s-26.333 -39.167 -27 -72.5h-77zM200.999 -10
c-46 0 -80.5 12.501 -103.5 37.501s-34.5 61.5 -34.5 109.5v403h107v-371c0 -32.667 5.5 -55.667 16.5 -69s29.833 -20 56.5 -20c25.333 0 51.5 5.16699 78.5 15.5s54.833 23.166 83.5 38.499v406h107v-540h-90l-7 62h-4l-63 -32.5c-18 -9 -35 -16.5 -51 -22.5
s-31.5 -10.333 -46.5 -13s-31.5 -4 -49.5 -4z" />
    <glyph glyph-name="uni0218" unicode="&#x218;" horiz-adv-x="558" 
d="M228 -69h110l-72 -151h-85zM268 -12c-34 0 -71.666 2.99805 -112.999 8.99805s-80.333 14 -117 24l3 91c34.667 -9.33301 71.667 -17.166 111 -23.499s74.333 -9.5 105 -9.5c52 0 91.167 9.66699 117.5 29s39.5 47.333 39.5 84c0 19.333 -3.66699 36 -11 50
s-17.833 26.333 -31.5 37s-30 19.667 -49 27s-40.5 14.333 -64.5 21c-35.333 10 -66 21.167 -92 33.5s-47.667 27 -65 44s-30.333 37 -39 60s-13 50.167 -13 81.5c0 32 5.83301 60.667 17.5 86s28.5 47 50.5 65s48.5 31.833 79.5 41.5s65.833 14.5 104.5 14.5
c28 0 57.333 -1.83301 88 -5.5s65 -10.167 103 -19.5l-3 -90c-30.667 8 -61.834 14.333 -93.501 19s-60.167 7 -85.5 7c-46.667 0 -83.167 -10.333 -109.5 -31s-39.5 -49 -39.5 -85c0 -17.333 3 -32.333 9 -45s15.167 -24.167 27.5 -34.5s28.333 -19.666 48 -27.999
s43.167 -16.833 70.5 -25.5c32 -10 61 -20.833 87 -32.5s48 -25.667 66 -42s31.833 -36 41.5 -59s14.5 -50.5 14.5 -82.5c0 -68 -22.167 -120.167 -66.5 -156.5s-107.833 -54.5 -190.5 -54.5z" />
    <glyph glyph-name="uni0219" unicode="&#x219;" horiz-adv-x="455" 
d="M181 -69h110l-72 -151h-85zM217 -11c-24 0 -50.1689 2 -78.502 6s-60.833 10 -97.5 18v82c30 -8 59.5 -14.333 88.5 -19s56.5 -7 82.5 -7c34.667 0 60.834 6.66699 78.501 20s26.5 32.333 26.5 57c0 26 -8.5 45 -25.5 57s-41.167 21 -72.5 27
c-19.333 3.33301 -39.166 7.5 -59.499 12.5s-38.833 13 -55.5 24s-30.5 26.333 -41.5 46s-16.5 46.167 -16.5 79.5c0 50 17.333 89.167 52 117.5s82.334 42.5 143.001 42.5c22.667 0 45.667 -1.33301 69 -4s53 -7.66699 89 -15l-3 -84c-32.667 7.33301 -60 12.5 -82 15.5
s-42 4.5 -60 4.5c-34.667 0 -61 -6.5 -79 -19.5s-27 -31.167 -27 -54.5c0 -14 2.66699 -25.667 8 -35s12.833 -16.833 22.5 -22.5s21 -10.334 34 -14.001s27.5 -7.16699 43.5 -10.5c23.333 -4.66699 45 -10.5 65 -17.5s37.167 -16.5 51.5 -28.5s25.666 -27.167 33.999 -45.5
s12.5 -41.166 12.5 -68.499c0 -52 -17.5 -92.333 -52.5 -121s-84.833 -43 -149.5 -43z" />
    <glyph glyph-name="uni021A" unicode="&#x21a;" horiz-adv-x="572" 
d="M231 -69h110l-72 -151h-85zM231 649h-215v91h540v-91h-216v-649h-109v649z" />
    <glyph glyph-name="uni021B" unicode="&#x21b;" horiz-adv-x="389" 
d="M193 -69h110l-72 -151h-85zM276 -8c-106 0 -159 51.333 -159 154v302h-102v92h108l15 141l85 11v-152h145v-92h-144v-279c0 -32 6.66699 -55.5 20 -70.5s34.333 -22.5 63 -22.5c9.33301 0 19.333 0.833008 30 2.5s21.667 4.16699 33 7.5v-83
c-30.667 -7.33301 -62 -11 -94 -11z" />
    <glyph glyph-name="dotlessj" unicode="&#x237;" horiz-adv-x="240" 
d="M5 -200c11.333 26 21.001 51.3291 29.001 75.9961s14.667 50.334 20 77.001s9.16602 55.334 11.499 86.001s3.5 65.334 3.5 104.001v33v63c0 24.667 -0.166992 51.5 -0.5 80.5s-0.5 57.5 -0.5 85.5s-0.166992 53.833 -0.5 77.5s-0.5 42.834 -0.5 57.501h106v-457
c-5.33301 -109.333 -35.333 -210.333 -90 -303z" />
    <glyph glyph-name="schwa" unicode="&#x259;" horiz-adv-x="530" 
d="M239 549c82 0 144 -22.9971 186 -68.9971s63 -113.333 63 -202c0 -94 -20.667 -165.333 -62 -214s-102.333 -73 -183 -73c-70 0 -121.333 20.167 -154 60.5s-49 102.166 -49 185.499c0 15.333 0.333008 28.166 1 38.499s2 21.166 4 32.499h339
c-3.33301 55.333 -16.833 95 -40.5 119s-61.5 36 -113.5 36c-25.333 0 -51.333 -2 -78 -6s-56 -10.667 -88 -20l-5 81c26 9.33301 55 16.833 87 22.5s63 8.5 93 8.5zM248 73.0029c44 0 76.833 13.3311 98.5 39.998s34.167 68.334 37.5 125.001h-249
c0.666992 -59.333 9.66699 -101.666 27 -126.999s46 -38 86 -38z" />
    <glyph glyph-name="apostrophe" unicode="&#x2bc;" horiz-adv-x="214" 
d="M156 808v-4l-35 -224h-54v228h89z" />
    <glyph glyph-name="circumflex" unicode="&#x2c6;" horiz-adv-x="428" 
d="M46 706l163 74l165 -74v-80l-164 73l-164 -73v80z" />
    <glyph glyph-name="caron" unicode="&#x2c7;" horiz-adv-x="410" 
d="M39 778l163 -74l164 74v-80l-164 -74l-163 74v80z" />
    <glyph glyph-name="uni02C9" unicode="&#x2c9;" horiz-adv-x="443" 
d="M60 717h322v-74h-322v74z" />
    <glyph glyph-name="breve" unicode="&#x2d8;" horiz-adv-x="460" 
d="M229 617c-62 0 -107.333 13.833 -136 41.5s-43.667 65.5 -45 113.5h77c0 -63.333 34.667 -95 104 -95c68.667 0 103 31.667 103 95h77c-1.33301 -48 -16.333 -85.833 -45 -113.5s-73.667 -41.5 -135 -41.5z" />
    <glyph glyph-name="dotaccent" unicode="&#x2d9;" horiz-adv-x="253" 
d="M120 630c-21.333 0 -37.333 5 -48 15s-16 26.333 -16 49c0 42 21.333 63 64 63c43.333 0 65 -21 65 -63c0 -22.667 -5.5 -39 -16.5 -49s-27.167 -15 -48.5 -15z" />
    <glyph glyph-name="ring" unicode="&#x2da;" horiz-adv-x="330" 
d="M163 600c-35.333 0 -63.833 10.167 -85.5 30.5s-32.5 46.5 -32.5 78.5s10.667 58.167 32 78.5s50 30.5 86 30.5c35.333 0 63.833 -10.167 85.5 -30.5s32.5 -46.5 32.5 -78.5s-10.833 -58.167 -32.5 -78.5s-50.167 -30.5 -85.5 -30.5zM163 648
c21.333 0 37.166 5.5 47.499 16.5s15.5 25.833 15.5 44.5s-5.16699 33.5 -15.5 44.5s-26.166 16.5 -47.499 16.5s-37.333 -5.5 -48 -16.5s-16 -25.833 -16 -44.5c0 -19.333 5.33301 -34.333 16 -45s26.667 -16 48 -16z" />
    <glyph glyph-name="ogonek" unicode="&#x2db;" horiz-adv-x="290" 
d="M162 -220c-74.667 0 -111.997 29.335 -111.997 88.002c0 24.667 7.66699 47.5 23 68.5s40 42.167 74 63.5h88v-15c-38.667 -16.667 -66.834 -34.334 -84.501 -53.001s-26.5 -36.667 -26.5 -54c0 -22 14.333 -33 43 -33c9.33301 0 20.166 1.16699 32.499 3.5
s24.166 5.16602 35.499 8.49902v-65c-22 -8 -46.333 -12 -73 -12z" />
    <glyph glyph-name="tilde" unicode="&#x2dc;" horiz-adv-x="474" 
d="M33 668c17.333 27.333 37.333 48.167 60 62.5s44.667 21.5 66 21.5c15.333 0 29.666 -2.33301 42.999 -7s26.5 -9.83398 39.5 -15.501s26 -10.834 39 -15.501s26.5 -7 40.5 -7c27.333 0 54 13 80 39l27 -29c-16.667 -28 -36.5 -49.167 -59.5 -63.5
s-45.833 -21.5 -68.5 -21.5c-14.667 0 -28.667 2.33301 -42 7s-26.666 9.83398 -39.999 15.501s-26.5 10.834 -39.5 15.501s-26.5 7 -40.5 7c-26 0 -52.333 -12.667 -79 -38z" />
    <glyph glyph-name="hungarumlaut" unicode="&#x2dd;" horiz-adv-x="428" 
d="M41 622l70 183h104l-104 -193zM226 622l70 183h104l-104 -193z" />
    <glyph glyph-name="uni030F" unicode="&#x30f;" horiz-adv-x="436" 
d="M132 612l-104 193h104l69 -183zM317 612l-104 193h104l69 -183z" />
    <glyph glyph-name="uni0311" unicode="&#x311;" horiz-adv-x="459" 
d="M46 624c1.33301 48 16.332 85.833 44.999 113.5s74 41.5 136 41.5s107.333 -13.833 136 -41.5s43.334 -65.5 44.001 -113.5h-77c0 63.333 -34.333 95 -103 95c-34 0 -59.667 -7.5 -77 -22.5s-26.333 -39.167 -27 -72.5h-77v0z" />
    <glyph glyph-name="uni0394" unicode="&#x394;" horiz-adv-x="678" 
d="M272 740h134l272 -740h-678zM543 89l-204 556l-205 -556h409z" />
    <glyph glyph-name="uni03A9" unicode="&#x3a9;" horiz-adv-x="760" 
d="M42 87l199 -6.00195c-25.333 15.333 -49.333 33.666 -72 54.999s-42.667 45.833 -60 73.5s-31 58.5 -41 92.5s-15 71.667 -15 113c0 50.667 7.83301 96.5 23.5 137.5s37.667 76.167 66 105.5s62.666 52 102.999 68s85.166 24 134.499 24s94 -8 134 -24
s74.333 -38.667 103 -68s50.667 -64.5 66 -105.5s23 -86.833 23 -137.5c0 -41.333 -5 -79.166 -15 -113.499s-23.667 -65.333 -41 -93s-37.333 -52.167 -60 -73.5s-46.667 -39.666 -72 -54.999l199 7v-87h-289v73c21.333 14.667 42.5 31.5 63.5 50.5s39.667 41.833 56 68.5
s29.666 57.667 39.999 93s15.5 76.333 15.5 123c0 38.667 -5.16699 73.667 -15.5 105s-25.333 58 -45 80s-43.167 39 -70.5 51s-58 18 -92 18c-33.333 0 -63.666 -6 -90.999 -18s-50.666 -29 -69.999 -51s-34.166 -48.667 -44.499 -80s-15.5 -66.333 -15.5 -105
c0 -53.333 6.66699 -99 20 -137s29.166 -70.167 47.499 -96.5s37.333 -47.666 57 -63.999s35.834 -28.833 48.501 -37.5v-73h-290v87z" />
    <glyph glyph-name="uni03BC" unicode="&#x3bc;" horiz-adv-x="582" 
d="M67 540l106 0.000976562v-381c0 -54.667 24.667 -82 74 -82c24 0 48.833 4.66699 74.5 14s54.5 22 86.5 38v411h107v-540h-90l-7 62h-4c-24 -13.333 -45 -24.5 -63 -33.5s-34.833 -16.333 -50.5 -22s-31 -9.83398 -46 -12.501s-31.5 -4 -49.5 -4c-11.333 0 -22 1 -32 3
v-213h-106v760z" />
    <glyph glyph-name="pi" unicode="&#x3c0;" horiz-adv-x="743" 
d="M204 451l-21 0.000976562c-29.333 0 -51.5 -5.5 -66.5 -16.5s-25.167 -28.833 -30.5 -53.5l-77 24c14.667 90 70.667 135 168 135h508l35 -30v-59h-140v-298c0 -24.667 6.16699 -43.167 18.5 -55.5s29.166 -18.5 50.499 -18.5c3.33301 0 8.33301 0.333008 15 1
s12.334 1.66699 17.001 3v-84c-6.66699 -1.33301 -16 -2.5 -28 -3.5s-22.667 -1.5 -32 -1.5c-46 0 -81.5 11.667 -106.5 35s-37.5 57.666 -37.5 102.999v319h-170v-556h-103v556z" />
    </font>
</defs>
</svg>
