<?xml version="1.0" standalone="no"?>
<!DOCTYPE svg PUBLIC "-//W3C//DTD SVG 1.1//EN" "http://www.w3.org/Graphics/SVG/1.1/DTD/svg11.dtd" >
<svg>
<metadata>
Created by FontForge 20090914 at Sat Aug  6 10:37:10 2016
 By www-data
Copyright (c) 2012, Impallari Type (www.impallari.com), with Reserved Font Name Encode Sans.
</metadata>
<defs>
<font id="EncodeSansNarrow-SemiBold" horiz-adv-x="580" >
  <font-face 
    font-family="Encode Sans Narrow"
    font-weight="600"
    font-stretch="normal"
    units-per-em="1000"
    panose-1="2 0 0 0 0 0 0 0 0 0"
    ascent="800"
    descent="-200"
    x-height="540"
    cap-height="740"
    bbox="-114 -220.002 1649 1030"
    underline-thickness="55"
    underline-position="-57"
    unicode-range="U+000D-U+FB04"
  />
<missing-glyph horiz-adv-x="749" 
d="M82 1030h584v-1250h-584v1250zM556 -117v1045h-364v-1045h364z" />
    <glyph glyph-name="f_f" unicode="ff" horiz-adv-x="775" 
d="M117 429l-101.998 -0.00195312v111h103v28c0 46 4.66699 84.333 14 115s24.666 55.334 45.999 74.001s49.833 32.334 85.5 41.001s79.834 14 132.501 16l6 -98c-30 -2 -54.833 -5.33301 -74.5 -10s-35.334 -12 -47.001 -22s-19.834 -23.333 -24.501 -40
s-7 -37.667 -7 -63v-41h130v-111h-130v-429h-132v429zM501.002 428.998l-101.998 -0.00195312v111h103v28c0 46 4.66699 84.333 14 115s24.666 55.334 45.999 74.001s49.833 32.334 85.5 41.001s79.834 14 132.501 16l6 -98c-30 -2 -54.833 -5.33301 -74.5 -10
s-35.334 -12 -47.001 -22s-19.834 -23.333 -24.501 -40s-7 -37.667 -7 -63v-41h130v-111h-130v-429h-132v429z" />
    <glyph glyph-name="f_i" unicode="fi" horiz-adv-x="659" 
d="M530 632c-26 0 -45.001 6 -57.001 18s-18 30.667 -18 56s5.83301 43.833 17.5 55.5s30.834 17.5 57.501 17.5s46 -6 58 -18s18 -30.333 18 -55c0 -25.333 -6 -44 -18 -56s-31.333 -18 -58 -18zM463.999 540h132v-540h-132v540zM116.999 429l-101.998 -0.00195312v111h103
v28c0 46 4.66699 84.333 14 115s24.666 55.334 45.999 74.001s49.833 32.334 85.5 41.001s79.834 14 132.501 16l6 -98c-30 -2 -54.833 -5.33301 -74.5 -10s-35.334 -12 -47.001 -22s-19.834 -23.333 -24.501 -40s-7 -37.667 -7 -63v-41h130v-111h-130v-429h-132v429z" />
    <glyph glyph-name="f_l" unicode="fl" horiz-adv-x="660" 
d="M117 429l-101.998 -0.00195312v111h103v28c0 46 4.66699 84.333 14 115s24.666 55.334 45.999 74.001s49.833 32.334 85.5 41.001s79.834 14 132.501 16l6 -98c-30 -2 -54.833 -5.33301 -74.5 -10s-35.334 -12 -47.001 -22s-19.834 -23.333 -24.501 -40
s-7 -37.667 -7 -63v-41h130v-111h-130v-429h-132v429zM464.002 807.998h132v-808h-132v808z" />
    <glyph glyph-name="f_f_i" unicode="ffi" horiz-adv-x="1040" 
d="M911 632c-26 0 -45.001 6 -57.001 18s-18 30.667 -18 56s5.83301 43.833 17.5 55.5s30.834 17.5 57.501 17.5s46 -6 58 -18s18 -30.333 18 -55c0 -25.333 -6 -44 -18 -56s-31.333 -18 -58 -18zM844.999 540h132v-540h-132v540zM497.999 429l-101.998 -0.00195312v111h103
v28c0 46 4.66699 84.333 14 115s24.666 55.334 45.999 74.001s49.833 32.334 85.5 41.001s79.834 14 132.501 16l6 -98c-30 -2 -54.833 -5.33301 -74.5 -10s-35.334 -12 -47.001 -22s-19.834 -23.333 -24.501 -40s-7 -37.667 -7 -63v-41h130v-111h-130v-429h-132v429z
M117.001 428.998l-101.998 -0.00195312v111h103v28c0 46 4.66699 84.333 14 115s24.666 55.334 45.999 74.001s49.833 32.334 85.5 41.001s79.834 14 132.501 16l6 -98c-30 -2 -54.833 -5.33301 -74.5 -10s-35.334 -12 -47.001 -22s-19.834 -23.333 -24.501 -40
s-7 -37.667 -7 -63v-41h130v-111h-130v-429h-132v429z" />
    <glyph glyph-name="f_f_l" unicode="ffl" horiz-adv-x="1040" 
d="M498 429l-101.998 -0.00195312v111h103v28c0 46 4.66699 84.333 14 115s24.666 55.334 45.999 74.001s49.833 32.334 85.5 41.001s79.834 14 132.501 16l6 -98c-30 -2 -54.833 -5.33301 -74.5 -10s-35.334 -12 -47.001 -22s-19.834 -23.333 -24.501 -40
s-7 -37.667 -7 -63v-41h130v-111h-130v-429h-132v429zM845.002 807.998h132v-808h-132v808zM117.002 428.998l-101.998 -0.00195312v111h103v28c0 46 4.66699 84.333 14 115s24.666 55.334 45.999 74.001s49.833 32.334 85.5 41.001s79.834 14 132.501 16l6 -98
c-30 -2 -54.833 -5.33301 -74.5 -10s-35.334 -12 -47.001 -22s-19.834 -23.333 -24.501 -40s-7 -37.667 -7 -63v-41h130v-111h-130v-429h-132v429z" />
    <glyph glyph-name="f_b" unicode="fb" horiz-adv-x="997" 
d="M117 429l-101.998 -0.00195312v111h103v28c0 46 4.66699 84.333 14 115s24.666 55.334 45.999 74.001s49.833 32.334 85.5 41.001s79.834 14 132.501 16l6 -98c-30 -2 -54.833 -5.33301 -74.5 -10s-35.334 -12 -47.001 -22s-19.834 -23.333 -24.501 -40
s-7 -37.667 -7 -63v-41h130v-111h-130v-429h-132v429zM686.002 -11.002c-30.667 0 -63.332 2.33398 -97.999 7.00098s-76.334 12.667 -125.001 24v788h132v-325c36 44 88.333 66 157 66c138.667 0 208 -89 208 -267c0 -90.667 -23 -161.834 -69 -213.501
s-114.333 -78.167 -205 -79.5zM686.004 81.999c24.667 0 46.002 3.16602 64.002 9.49902s32.5 17 43.5 32s19.167 34.333 24.5 58s8 53.167 8 88.5c0 33.333 -2 61.5 -6 84.5s-10.5 41.5 -19.5 55.5s-20.833 24.167 -35.5 30.5s-32.334 9.5 -53.001 9.5
c-34 0 -62 -10 -84 -30s-33 -51.333 -33 -94v-235c12.667 -3.33301 26.667 -5.66602 42 -6.99902s31.666 -2 48.999 -2z" />
    <glyph glyph-name="f_f_b" unicode="ffb" horiz-adv-x="1378" 
d="M498 429l-101.998 -0.00195312v111h103v28c0 46 4.66699 84.333 14 115s24.666 55.334 45.999 74.001s49.833 32.334 85.5 41.001s79.834 14 132.501 16l6 -98c-30 -2 -54.833 -5.33301 -74.5 -10s-35.334 -12 -47.001 -22s-19.834 -23.333 -24.501 -40
s-7 -37.667 -7 -63v-41h130v-111h-130v-429h-132v429zM1067 -11.002c-30.667 0 -63.332 2.33398 -97.999 7.00098s-76.334 12.667 -125.001 24v788h132v-325c36 44 88.333 66 157 66c138.667 0 208 -89 208 -267c0 -90.667 -23 -161.834 -69 -213.501
s-114.333 -78.167 -205 -79.5zM1067 81.999c24.667 0 46.002 3.16602 64.002 9.49902s32.5 17 43.5 32s19.167 34.333 24.5 58s8 53.167 8 88.5c0 33.333 -2 61.5 -6 84.5s-10.5 41.5 -19.5 55.5s-20.833 24.167 -35.5 30.5s-32.334 9.5 -53.001 9.5c-34 0 -62 -10 -84 -30
s-33 -51.333 -33 -94v-235c12.667 -3.33301 26.667 -5.66602 42 -6.99902s31.666 -2 48.999 -2zM117.006 428.998l-101.998 -0.00195312v111h103v28c0 46 4.66699 84.333 14 115s24.666 55.334 45.999 74.001s49.833 32.334 85.5 41.001s79.834 14 132.501 16l6 -98
c-30 -2 -54.833 -5.33301 -74.5 -10s-35.334 -12 -47.001 -22s-19.834 -23.333 -24.501 -40s-7 -37.667 -7 -63v-41h130v-111h-130v-429h-132v429z" />
    <glyph glyph-name="f_f_h" unicode="ffh" horiz-adv-x="1378" 
d="M845 808h132v-325c44 23.333 81.833 40.333 113.5 51s61.5 16 89.5 16c44.667 0 79 -12.5 103 -37.5s36 -61.5 36 -109.5v-403h-132v359c0 29.333 -5.33301 50.333 -16 63s-27 19 -49 19c-19.333 0 -41.333 -3.83301 -66 -11.5s-51 -18.5 -79 -32.5v-397h-132v808z
M498 429l-101.998 -0.00195312v111h103v28c0 46 4.66699 84.333 14 115s24.666 55.334 45.999 74.001s49.833 32.334 85.5 41.001s79.834 14 132.501 16l6 -98c-30 -2 -54.833 -5.33301 -74.5 -10s-35.334 -12 -47.001 -22s-19.834 -23.333 -24.501 -40s-7 -37.667 -7 -63
v-41h130v-111h-130v-429h-132v429zM117.002 428.998l-101.998 -0.00195312v111h103v28c0 46 4.66699 84.333 14 115s24.666 55.334 45.999 74.001s49.833 32.334 85.5 41.001s79.834 14 132.501 16l6 -98c-30 -2 -54.833 -5.33301 -74.5 -10s-35.334 -12 -47.001 -22
s-19.834 -23.333 -24.501 -40s-7 -37.667 -7 -63v-41h130v-111h-130v-429h-132v429z" />
    <glyph glyph-name="f_f_j" unicode="ffj" horiz-adv-x="1043" 
d="M498 429l-101.998 -0.00195312v111h103v28c0 46 4.66699 84.333 14 115s24.666 55.334 45.999 74.001s49.833 32.334 85.5 41.001s79.834 14 132.501 16l6 -98c-30 -2 -54.833 -5.33301 -74.5 -10s-35.334 -12 -47.001 -22s-19.834 -23.333 -24.501 -40
s-7 -37.667 -7 -63v-41h130v-111h-130v-429h-132v429zM914.002 631.998c-26 0 -45 6 -57 18s-18 30.667 -18 56s6 43.833 18 55.5s31 17.5 57 17.5c26.667 0 46 -6 58 -18s18 -30.333 18 -55c0 -25.333 -5.83301 -44 -17.5 -56s-31.167 -18 -58.5 -18zM796.002 -196.002
c18.667 47.333 32.5 96.668 41.5 148.001s13.5 111.666 13.5 180.999v33v68.5v88v91c0 29 -0.166992 55 -0.5 78s-0.5 39.167 -0.5 48.5h131v-460c-2 -52 -11 -104 -27 -156s-37.333 -100 -64 -144zM117.002 429l-101.998 -0.00195312v111h103v28
c0 46 4.66699 84.333 14 115s24.666 55.334 45.999 74.001s49.833 32.334 85.5 41.001s79.834 14 132.501 16l6 -98c-30 -2 -54.833 -5.33301 -74.5 -10s-35.334 -12 -47.001 -22s-19.834 -23.333 -24.501 -40s-7 -37.667 -7 -63v-41h130v-111h-130v-429h-132v429z" />
    <glyph glyph-name="f_f_k" unicode="ffk" horiz-adv-x="1340" 
d="M845 808h132v-485h65l143 217h145l-177 -252l-22 -9v-3l22 -9l194 -267h-145l-161 233h-64v-233h-132v808zM498 429l-101.998 -0.00195312v111h103v28c0 46 4.66699 84.333 14 115s24.666 55.334 45.999 74.001s49.833 32.334 85.5 41.001s79.834 14 132.501 16l6 -98
c-30 -2 -54.833 -5.33301 -74.5 -10s-35.334 -12 -47.001 -22s-19.834 -23.333 -24.501 -40s-7 -37.667 -7 -63v-41h130v-111h-130v-429h-132v429zM117.002 428.998l-101.998 -0.00195312v111h103v28c0 46 4.66699 84.333 14 115s24.666 55.334 45.999 74.001
s49.833 32.334 85.5 41.001s79.834 14 132.501 16l6 -98c-30 -2 -54.833 -5.33301 -74.5 -10s-35.334 -12 -47.001 -22s-19.834 -23.333 -24.501 -40s-7 -37.667 -7 -63v-41h130v-111h-130v-429h-132v429z" />
    <glyph glyph-name="f_f_t" unicode="fft" horiz-adv-x="1167" 
d="M498 429l-101.998 -0.00195312v111h103v28c0 46 4.66699 84.333 14 115s24.666 55.334 45.999 74.001s49.833 32.334 85.5 41.001s79.834 14 132.501 16l6 -98c-30 -2 -54.833 -5.33301 -74.5 -10s-35.334 -12 -47.001 -22s-19.834 -23.333 -24.501 -40
s-7 -37.667 -7 -63v-41h130v-111h-130v-429h-132v429zM1046 -9.00195c-113.333 0 -170 53.3311 -170 159.998v277h-97v112h105l19 147l104 13v-160h137v-112h-136v-248c0 -31.333 6.16699 -53.666 18.5 -66.999s31.833 -20 58.5 -20c8.66699 0 18.167 0.833008 28.5 2.5
s21.166 4.16699 32.499 7.5v-100c-14.667 -3.33301 -30.667 -6.16602 -48 -8.49902s-34.666 -3.5 -51.999 -3.5zM117.002 428.996l-101.998 -0.00195312v111h103v28c0 46 4.66699 84.333 14 115s24.666 55.334 45.999 74.001s49.833 32.334 85.5 41.001
s79.834 14 132.501 16l6 -98c-30 -2 -54.833 -5.33301 -74.5 -10s-35.334 -12 -47.001 -22s-19.834 -23.333 -24.501 -40s-7 -37.667 -7 -63v-41h130v-111h-130v-429h-132v429z" />
    <glyph glyph-name="f_h" unicode="fh" horiz-adv-x="997" 
d="M464 808h132v-325c44 23.333 81.833 40.333 113.5 51s61.5 16 89.5 16c44.667 0 79 -12.5 103 -37.5s36 -61.5 36 -109.5v-403h-132v359c0 29.333 -5.33301 50.333 -16 63s-27 19 -49 19c-19.333 0 -41.333 -3.83301 -66 -11.5s-51 -18.5 -79 -32.5v-397h-132v808z
M117 429l-101.998 -0.00195312v111h103v28c0 46 4.66699 84.333 14 115s24.666 55.334 45.999 74.001s49.833 32.334 85.5 41.001s79.834 14 132.501 16l6 -98c-30 -2 -54.833 -5.33301 -74.5 -10s-35.334 -12 -47.001 -22s-19.834 -23.333 -24.501 -40s-7 -37.667 -7 -63
v-41h130v-111h-130v-429h-132v429z" />
    <glyph glyph-name="f_j" unicode="fj" horiz-adv-x="662" 
d="M117 429l-101.998 -0.00195312v111h103v28c0 46 4.66699 84.333 14 115s24.666 55.334 45.999 74.001s49.833 32.334 85.5 41.001s79.834 14 132.501 16l6 -98c-30 -2 -54.833 -5.33301 -74.5 -10s-35.334 -12 -47.001 -22s-19.834 -23.333 -24.501 -40
s-7 -37.667 -7 -63v-41h130v-111h-130v-429h-132v429zM533.002 631.998c-26 0 -45 6 -57 18s-18 30.667 -18 56s6 43.833 18 55.5s31 17.5 57 17.5c26.667 0 46 -6 58 -18s18 -30.333 18 -55c0 -25.333 -5.83301 -44 -17.5 -56s-31.167 -18 -58.5 -18zM415.002 -196.002
c18.667 47.333 32.5 96.668 41.5 148.001s13.5 111.666 13.5 180.999v33v68.5v88v91c0 29 -0.166992 55 -0.5 78s-0.5 39.167 -0.5 48.5h131v-460c-2 -52 -11 -104 -27 -156s-37.333 -100 -64 -144z" />
    <glyph glyph-name="f_k" unicode="fk" horiz-adv-x="959" 
d="M464 808h132v-485h65l143 217h145l-177 -252l-22 -9v-3l22 -9l194 -267h-145l-161 233h-64v-233h-132v808zM117 429l-101.998 -0.00195312v111h103v28c0 46 4.66699 84.333 14 115s24.666 55.334 45.999 74.001s49.833 32.334 85.5 41.001s79.834 14 132.501 16l6 -98
c-30 -2 -54.833 -5.33301 -74.5 -10s-35.334 -12 -47.001 -22s-19.834 -23.333 -24.501 -40s-7 -37.667 -7 -63v-41h130v-111h-130v-429h-132v429z" />
    <glyph glyph-name="f_t" unicode="ft" horiz-adv-x="786" 
d="M117 429l-101.998 -0.00195312v111h103v28c0 46 4.66699 84.333 14 115s24.666 55.334 45.999 74.001s49.833 32.334 85.5 41.001s79.834 14 132.501 16l6 -98c-30 -2 -54.833 -5.33301 -74.5 -10s-35.334 -12 -47.001 -22s-19.834 -23.333 -24.501 -40
s-7 -37.667 -7 -63v-41h130v-111h-130v-429h-132v429zM665.002 -9.00195c-113.333 0 -170 53.3311 -170 159.998v277h-97v112h105l19 147l104 13v-160h137v-112h-136v-248c0 -31.333 6.16699 -53.666 18.5 -66.999s31.833 -20 58.5 -20c8.66699 0 18.167 0.833008 28.5 2.5
s21.166 4.16699 32.499 7.5v-100c-14.667 -3.33301 -30.667 -6.16602 -48 -8.49902s-34.666 -3.5 -51.999 -3.5z" />
    <glyph glyph-name=".notdef" horiz-adv-x="749" 
d="M82 1030h584v-1250h-584v1250zM556 -117v1045h-364v-1045h364z" />
    <glyph glyph-name="NULL" horiz-adv-x="0" 
 />
    <glyph glyph-name="NULL" horiz-adv-x="0" 
 />
    <glyph glyph-name="nonmarkingreturn" unicode="&#xd;" horiz-adv-x="291" 
 />
    <glyph glyph-name="space" unicode=" " horiz-adv-x="208" 
 />
    <glyph glyph-name="exclam" unicode="!" horiz-adv-x="268" 
d="M136 -3c-23.333 0 -41.166 5.99902 -53.499 17.999s-18.5 29 -18.5 51s6.16699 39 18.5 51s30.166 18 53.499 18c22.667 0 40.334 -6.16699 53.001 -18.5s19 -29.166 19 -50.499c0 -22 -6.33301 -39 -19 -51s-30.334 -18 -53.001 -18zM93 230.999l-26 499v10h134v-10
l-26 -499v-12h-82v12z" />
    <glyph glyph-name="quotedbl" unicode="&#x22;" horiz-adv-x="400" 
d="M164 808v-4l-37 -324h-70v328h107zM359 808v-4l-37 -324h-70v328h107z" />
    <glyph glyph-name="numbersign" unicode="#" horiz-adv-x="577" 
d="M329 208h-110l-17 -208h-93l17 208h-83v86h90l12 151h-102v86h109l17 209h93l-17 -209h110l18 209h92l-17 -209h85v-86h-92l-12 -151h104v-86h-111l-17 -208h-93zM226 294h110l12 151h-110z" />
    <glyph glyph-name="dollar" unicode="$" horiz-adv-x="577" 
d="M241 -11c-32 2 -65.668 5.66797 -101.001 11.001s-69 12.333 -101 21l2 112c37.333 -10.667 75.833 -19.167 115.5 -25.5s75.5 -9.5 107.5 -9.5c48 0 84 8.5 108 25.5s36 41.5 36 73.5c0 17.333 -3.33301 32.333 -10 45s-16.334 23.5 -29.001 32.5s-28 16.667 -46 23
s-38.333 12.5 -61 18.5c-35.333 8.66699 -66.333 19 -93 31s-49 26.833 -67 44.5s-31.5 38.667 -40.5 63s-13.5 53.166 -13.5 86.499c0 54 16.167 98.5 48.5 133.5s77.833 58.167 136.5 69.5v140h119v-133c46 -2.66699 99.667 -11 161 -25l-4 -110
c-31.333 8.66699 -63.666 15.5 -96.999 20.5s-62.666 7.5 -87.999 7.5c-44 0 -77.833 -8.83301 -101.5 -26.5s-35.5 -42.5 -35.5 -74.5c0 -31.333 11.667 -55.666 35 -72.999s61.333 -33.333 114 -48c32 -9.33301 61 -19.666 87 -30.999s48.167 -25.333 66.5 -42
s32.333 -36.5 42 -59.5s14.5 -50.833 14.5 -83.5c0 -58.667 -16 -105.834 -48 -141.501s-78.333 -58.834 -139 -69.501v-139h-118v133z" />
    <glyph glyph-name="percent" unicode="%" horiz-adv-x="991" 
d="M223 278c-62 0 -109.167 19.667 -141.5 59s-48.5 98.333 -48.5 177c0 78 16.333 136.833 49 176.5s79.667 59.5 141 59.5c62 0 109.167 -19.833 141.5 -59.5s48.5 -98.5 48.5 -176.5c0 -78.667 -16.167 -137.667 -48.5 -177s-79.5 -59 -141.5 -59zM223 364
c32 0 55.167 11.6709 69.5 35.0039s21.5 61.666 21.5 114.999s-7.33301 91.666 -22 114.999s-37.667 35 -69 35s-54.333 -11.833 -69 -35.5s-22 -61.834 -22 -114.501s7.16699 -90.834 21.5 -114.501s37.5 -35.5 69.5 -35.5zM769 -10.9961c-62 0 -109.333 19.667 -142 59
s-49 98.333 -49 177c0 78 16.333 136.833 49 176.5s80 59.5 142 59.5s109.167 -19.833 141.5 -59.5s48.5 -98.5 48.5 -176.5c0 -78.667 -16.167 -137.667 -48.5 -177s-79.5 -59 -141.5 -59zM769 75.0039c31.333 0 54.333 11.667 69 35s22 61.666 22 114.999
c0 52.667 -7.33301 90.834 -22 114.501s-37.667 35.5 -69 35.5c-32 0 -55.333 -11.833 -70 -35.5s-22 -61.834 -22 -114.501c0 -53.333 7.33301 -91.666 22 -114.999s38 -35 70 -35zM596 740.004h113l-316 -740h-113z" />
    <glyph glyph-name="ampersand" unicode="&#x26;" horiz-adv-x="721" 
d="M321 -10c-42.667 0 -81.166 4.99609 -115.499 14.9961s-63.666 24.333 -87.999 43s-43 41.334 -56 68.001s-19.5 56.667 -19.5 90c0 46 11.667 85.5 35 118.5s56.666 57.167 99.999 72.5c-23.333 26.667 -40 52.834 -50 78.501s-15 53.5 -15 83.5
c0 62 21.167 109.667 63.5 143s102.5 50 180.5 50c28.667 0 58.167 -2.66699 88.5 -8s62.833 -13.666 97.5 -24.999l1 -5l-17 -92h-7c-27.333 10 -54 17.667 -80 23s-49.667 8 -71 8c-82 0 -123 -35.667 -123 -107c0 -36.667 15.167 -71.667 45.5 -105
s79.166 -69.666 146.499 -108.999l84 -49c2 18 3 37.667 3 59v78l119 4v-81c0 -43.333 -4.66699 -84.333 -14 -123l85 -49v-8l-49 -97h-8l-74 46c-54.667 -81.333 -142 -122 -262 -122zM384.001 236.996l-74 48.501c-22 15 -42 29.833 -60 44.5
c-48.667 -22.667 -73 -61.667 -73 -117c0 -38.667 13.833 -69.334 41.5 -92.001s64.5 -34 110.5 -34c76 0 129.667 27.667 161 83z" />
    <glyph glyph-name="quotesingle" unicode="'" horiz-adv-x="204" 
d="M164 808v-4l-37 -324h-70v328h107z" />
    <glyph glyph-name="parenleft" unicode="(" horiz-adv-x="316" 
d="M190 -160c-50.667 74.667 -89 155.835 -115 243.502s-39 177.834 -39 270.501c0 93.333 13 183.666 39 270.999s64.333 168.333 115 243h116v-4c-50.667 -74 -90.334 -154.333 -119.001 -241s-43 -176.334 -43 -269.001s14.333 -182.334 43 -269.001
s68.334 -167 119.001 -241v-4h-116v0z" />
    <glyph glyph-name="parenright" unicode=")" horiz-adv-x="316" 
d="M10 -160v3.99902c50.667 74 90.334 154.333 119.001 241s43 176.334 43 269.001s-14.333 182.334 -43 269.001s-68.334 167 -119.001 241v4h116c50.667 -74.667 89 -155.667 115 -243s39 -177.666 39 -270.999c0 -92.667 -13 -182.834 -39 -270.501
s-64.333 -168.834 -115 -243.501h-116z" />
    <glyph glyph-name="asterisk" unicode="*" horiz-adv-x="493" 
d="M91 480l45 64l81 73l-108 11l-73 24l25 76l74 -24l94 -54l-23 108v77h81v-77l-23 -108l94 54l75 24l24 -76l-73 -24l-108 -11l81 -73l45 -64l-65 -46l-46 62l-45 102l-45 -102l-45 -62z" />
    <glyph glyph-name="plus" unicode="+" horiz-adv-x="500" 
d="M38 415h168v164h89v-164h168v-90h-168v-164h-89v164h-168v90z" />
    <glyph glyph-name="comma" unicode="," horiz-adv-x="251" 
d="M23 -145l44 284h134l-78 -294z" />
    <glyph glyph-name="hyphen" unicode="-" horiz-adv-x="452" 
d="M56 330h339v-100h-339v100z" />
    <glyph glyph-name="period" unicode="." horiz-adv-x="248" 
d="M124 -6c-24.667 0 -43.6689 6 -57.002 18s-20 30.667 -20 56c0 48.667 25.667 73 77 73c24.667 0 43.834 -5.83301 57.501 -17.5s20.5 -30.167 20.5 -55.5s-6.66699 -44 -20 -56s-32.666 -18 -57.999 -18z" />
    <glyph glyph-name="slash" unicode="/" horiz-adv-x="385" 
d="M243 740h116l-217 -860h-116z" />
    <glyph glyph-name="zero" unicode="0" horiz-adv-x="656" 
d="M328 -10c-92 0 -162.167 31.667 -210.5 95s-72.5 158 -72.5 284s24.167 221 72.5 285s118.5 96 210.5 96s162.167 -32 210.5 -96s72.5 -159 72.5 -285s-24.167 -220.667 -72.5 -284s-118.5 -95 -210.5 -95zM328 100c50.667 0 88.167 21 112.5 63s36.5 110.667 36.5 206
s-12.167 164.333 -36.5 207s-61.833 64 -112.5 64c-51.333 0 -89 -21.333 -113 -64s-36 -111.667 -36 -207s11.833 -164 35.5 -206s61.5 -63 113.5 -63z" />
    <glyph glyph-name="one" unicode="1" horiz-adv-x="419" 
d="M200 592h-4l-151 -66h-12l-19 74l1 10l219 130h101v-740h-135v592z" />
    <glyph glyph-name="two" unicode="2" horiz-adv-x="550" 
d="M39 108c0 34 4.49902 64.001 13.499 90.001s22.167 49.667 39.5 71s38.333 41 63 59s53 36 85 54c44.667 25.333 77.334 49.166 98.001 71.499s31 49.166 31 80.499c0 36 -10.833 62.333 -32.5 79s-55.5 25 -101.5 25c-25.333 0 -52.5 -2.16699 -81.5 -6.5
s-56.833 -10.166 -83.5 -17.499l-12 109c42 9.33301 79.667 16 113 20s65 6 95 6c158.667 0 238 -67.333 238 -202c0 -27.333 -3.66699 -52.333 -11 -75s-18.333 -43.5 -33 -62.5s-32.5 -37 -53.5 -54s-45.5 -33.833 -73.5 -50.5c-26 -16 -48.333 -30.667 -67 -44
s-34 -26.166 -46 -38.499s-20.833 -24.833 -26.5 -37.5s-8.5 -26.334 -8.5 -41.001v-34h318v-109h-464v107z" />
    <glyph glyph-name="three" unicode="3" horiz-adv-x="525" 
d="M206 -10c-27.333 0 -55.335 1.16895 -84.002 3.50195s-53.667 5.83301 -75 10.5v103h5c8 -2 17.333 -3.83301 28 -5.5s22 -3.33398 34 -5.00098s24.167 -2.83398 36.5 -3.50098s23.833 -1 34.5 -1c57.333 0 98.333 9.5 123 28.5s37 48.833 37 89.5
c0 42 -12.667 72.333 -38 91s-68.666 28 -129.999 28h-53v96h53c54 0 92.167 8.66699 114.5 26s33.5 46 33.5 86c0 38 -10.5 65.5 -31.5 82.5s-55.5 25.5 -103.5 25.5c-17.333 0 -38 -1.16699 -62 -3.5s-49 -5.83301 -75 -10.5h-5l-2 102
c23.333 5.33301 49.833 9.5 79.5 12.5s56.5 4.5 80.5 4.5c170.667 0 256 -64.667 256 -194c0 -44 -10.5 -80.833 -31.5 -110.5s-51.5 -50.167 -91.5 -61.5v-5c46 -10 81.333 -30.5 106 -61.5s37 -70.167 37 -117.5c0 -67.333 -23.667 -119 -71 -155
s-115.666 -54.333 -204.999 -55z" />
    <glyph glyph-name="four" unicode="4" horiz-adv-x="604" 
d="M17 239v7l244 504h4l129 -13l6 -10l-245 -461v-4h199l33 219h97v-219h97v-103h-97v-159h-134v159h-315z" />
    <glyph glyph-name="five" unicode="5" horiz-adv-x="525" 
d="M204 -12c-24 0 -49.168 1.33398 -75.501 4.00098s-53.833 6.66699 -82.5 12v105h28c41.333 -8.66699 80 -13 116 -13c54 0 94.5 9.83301 121.5 29.5s40.5 52.5 40.5 98.5c0 22 -3.83301 40.667 -11.5 56s-20 27.5 -37 36.5s-39.167 15.667 -66.5 20s-60.333 6.5 -99 6.5
h-72l-9 9l28 388h366v-109h-265l-11 -188c54.667 -0.666992 101.834 -5 141.501 -13s72.5 -20.833 98.5 -38.5s45.167 -40.334 57.5 -68.001s18.5 -61.834 18.5 -102.501c0 -41.333 -7.16699 -76.666 -21.5 -105.999s-34.333 -53.333 -60 -72s-56 -32.5 -91 -41.5
s-73.167 -13.5 -114.5 -13.5z" />
    <glyph glyph-name="six" unicode="6" horiz-adv-x="615" 
d="M319 -11c-89.333 0 -157.501 28.8311 -204.501 86.498s-70.5 142.834 -70.5 255.501c0 136.667 30 240.834 90 312.501s148 107.5 264 107.5c41.333 0 88 -6 140 -18l-14 -102c-24.667 5.33301 -46.667 9.33301 -66 12s-38 4 -56 4c-68.667 0 -121.167 -20 -157.5 -60
s-58.166 -101.667 -65.499 -185c22 19.333 47.667 34.333 77 45s60.333 16 93 16c36 0 68.333 -5.16699 97 -15.5s53.167 -25 73.5 -44s36 -42 47 -69s16.5 -57.5 16.5 -91.5c0 -38.667 -6.16699 -73.667 -18.5 -105s-30 -58 -53 -80s-50.667 -39 -83 -51
s-68.833 -18 -109.5 -18zM317.999 371.998c-25.333 0 -50.9971 -5.66699 -76.9971 -17s-47.667 -25.666 -65 -42.999c1.33301 -76.667 13.666 -132.334 36.999 -167.001s58.666 -52 105.999 -52c41.333 0 73.166 12.833 95.499 38.5s33.5 62.167 33.5 109.5
c0 87.333 -43.333 131 -130 131z" />
    <glyph glyph-name="seven" unicode="7" horiz-adv-x="489" 
d="M204 -18l-111 18v17l241 609h-309l-5 101l13 13h422l20 -73v-23l-242 -644z" />
    <glyph glyph-name="eight" unicode="8" horiz-adv-x="610" 
d="M306 -5c-87.333 0 -153.001 16.666 -197.001 49.999s-66 80.666 -66 141.999c0 49.333 11.667 89.333 35 120s52 54.667 86 72c-29.333 16.667 -53.166 38.667 -71.499 66s-27.5 64.333 -27.5 111c0 30 5.83301 57 17.5 81s28.334 44.333 50.001 61
s47.5 29.334 77.5 38.001s63.333 13 100 13c72.667 0 130.167 -16.833 172.5 -50.5s63.5 -81.167 63.5 -142.5c0 -44 -8.83301 -79.167 -26.5 -105.5s-42.5 -48.5 -74.5 -66.5c17.333 -8 33.5 -17.167 48.5 -27.5s28 -22.833 39 -37.5s19.5 -31.5 25.5 -50.5
s9 -41.167 9 -66.5c0 -65.333 -21.833 -116.166 -65.5 -152.499s-108.834 -54.5 -195.501 -54.5zM259.999 339.999c-11.333 -6 -22.501 -13.1699 -33.501 -21.5029s-20.833 -18.166 -29.5 -29.499s-15.667 -24.166 -21 -38.499s-8 -30.5 -8 -48.5
c0 -38 12.5 -66.833 37.5 -86.5s58.5 -29.5 100.5 -29.5s75 9.33301 99 28s36 45 36 79c0 21.333 -4 39.5 -12 54.5s-19.167 27.667 -33.5 38s-31.166 19.333 -50.499 27s-40.333 14.834 -63 21.501zM184.998 548.996c0 -20 4.16797 -36.834 12.501 -50.501
s19.666 -25.5 33.999 -35.5s31.333 -18.5 51 -25.5s41.167 -13.5 64.5 -19.5c22 13.333 40.833 30.5 56.5 51.5s23.5 47.833 23.5 80.5c0 35.333 -11 62 -33 80s-51.333 27 -88 27s-66 -9.16699 -88 -27.5s-33 -45.166 -33 -80.499z" />
    <glyph glyph-name="nine" unicode="9" horiz-adv-x="615" 
d="M296 751c89.333 0 157.501 -28.8311 204.501 -86.498s70.5 -142.834 70.5 -255.501c0 -136.667 -30 -240.834 -90 -312.501s-148 -107.5 -264 -107.5c-41.333 0 -88 6 -140 18l14 102c24.667 -5.33301 46.667 -9.33301 66 -12s38 -4 56 -4c68.667 0 121.167 20 157.5 60
s58.166 101.667 65.499 185c-22 -19.333 -47.667 -34.333 -77 -45s-60.333 -16 -93 -16c-36 0 -68.333 5 -97 15s-53.167 24.5 -73.5 43.5s-36 42.167 -47 69.5s-16.5 58 -16.5 92c0 38.667 6.16699 73.667 18.5 105s30 58 53 80s50.667 39 83 51s68.833 18 109.5 18z
M297.001 368.002c25.333 0 50.9971 5.66699 76.9971 17s47.667 25.666 65 42.999c-1.33301 76.667 -13.666 132.334 -36.999 167.001s-58.666 52 -105.999 52c-41.333 0 -73.166 -12.833 -95.499 -38.5s-33.5 -62.167 -33.5 -109.5c0 -87.333 43.333 -131 130 -131z" />
    <glyph glyph-name="colon" unicode=":" horiz-adv-x="260" 
d="M130 -6c-24.667 0 -43.6689 6 -57.002 18s-20 30.667 -20 56c0 48.667 25.667 73 77 73c24.667 0 43.834 -5.83301 57.501 -17.5s20.5 -30.167 20.5 -55.5s-6.66699 -44 -20 -56s-32.666 -18 -57.999 -18zM129.998 399c-24.667 0 -43.6689 6 -57.002 18
s-20 30.667 -20 56c0 48.667 25.667 73 77 73c24.667 0 43.834 -5.83301 57.501 -17.5s20.5 -30.167 20.5 -55.5s-6.66699 -44 -20 -56s-32.666 -18 -57.999 -18z" />
    <glyph glyph-name="semicolon" unicode=";" horiz-adv-x="277" 
d="M36 -145l44 284h134l-78 -294zM144 399c-24.667 0 -43.6689 6 -57.002 18s-20 30.667 -20 56c0 48.667 25.667 73 77 73c24.667 0 43.834 -5.83301 57.501 -17.5s20.5 -30.167 20.5 -55.5s-6.66699 -44 -20 -56s-32.666 -18 -57.999 -18z" />
    <glyph glyph-name="less" unicode="&#x3c;" horiz-adv-x="529" 
d="M36 322v86l431 188v-99l-305 -133l304 -132v-98z" />
    <glyph glyph-name="equal" unicode="=" horiz-adv-x="528" 
d="M60 290h408v-93h-408v93zM60 507h408v-92h-408v92z" />
    <glyph glyph-name="greater" unicode="&#x3e;" horiz-adv-x="529" 
d="M63 232l304 132l-305 133v99l431 -188v-86l-430 -188v98z" />
    <glyph glyph-name="question" unicode="?" horiz-adv-x="450" 
d="M136 221l-9.99902 183.999c22 4.66699 43.167 10.5 63.5 17.5s38.333 15.833 54 26.5s28.167 23.334 37.5 38.001s14 32.334 14 53.001c0 20 -3.16699 36.667 -9.5 50s-15.166 24 -26.499 32s-24.5 13.833 -39.5 17.5s-30.833 5.5 -47.5 5.5
c-22.667 0 -45.834 -2 -69.501 -6s-45.167 -8.66699 -64.5 -14l-8 100c26 7.33301 52.667 13.166 80 17.499s55.666 6.5 84.999 6.5c32 0 61.833 -3.83301 89.5 -11.5s51.5 -19.5 71.5 -35.5s35.667 -36.333 47 -61s17 -54.334 17 -89.001
c0 -31.333 -5.16699 -58.666 -15.5 -81.999s-24.333 -43.333 -42 -60s-38 -30.167 -61 -40.5s-47.167 -18.5 -72.5 -24.5l-4 -123v-17h-89v16zM183.001 -5.00098c-22.667 0 -40.334 6 -53.001 18s-19 29 -19 51s6.33301 39 19 51s30.334 18 53.001 18s40.334 -6 53.001 -18
s19 -29 19 -51s-6.33301 -39 -19 -51s-30.334 -18 -53.001 -18z" />
    <glyph glyph-name="at" unicode="@" horiz-adv-x="857" 
d="M417 -135c-52.667 0 -101.827 7.83398 -147.494 23.501s-85.5 39.667 -119.5 72s-60.667 73.5 -80 123.5s-29 109 -29 177c0 66 9.66699 124.5 29 175.5s46.5 94.167 81.5 129.5s77.167 62.166 126.5 80.499s104.333 27.5 165 27.5c62 0 115.833 -8.5 161.5 -25.5
s83.667 -41.5 114 -73.5s53 -70.667 68 -116s22.5 -96.333 22.5 -153c0 -80 -15.5 -142.5 -46.5 -187.5s-77.167 -67.5 -138.5 -67.5c-32.667 0 -57.834 8.16699 -75.501 24.5s-28.167 37.166 -31.5 62.499h-5c-17.333 -27.333 -40.5 -47.833 -69.5 -61.5
s-57.5 -20.5 -85.5 -20.5c-22.667 0 -42.5 4.33301 -59.5 13s-31.333 20.834 -43 36.501s-20.334 34.167 -26.001 55.5s-8.5 45 -8.5 71c0 38 5.66699 72.833 17 104.5s27.5 59 48.5 82s46.333 41 76 54s63.167 19.5 100.5 19.5c22 0 46.167 -3.16699 72.5 -9.5
s53.833 -15.166 82.5 -26.499l-38 -207l-5.5 -34c-1.66699 -10.667 -2.5 -20.667 -2.5 -30c0 -19.333 4.16699 -34.5 12.5 -45.5s23.166 -16.5 44.499 -16.5c32 0 56.167 16 72.5 48s24.5 77 24.5 135c0 90 -22.833 160.667 -68.5 212s-116.834 77 -213.501 77
c-48 0 -91.5 -7.33301 -130.5 -22s-72.5 -36.167 -100.5 -64.5s-49.5 -63.333 -64.5 -105s-22.5 -89.167 -22.5 -142.5c0 -55.333 7.5 -103 22.5 -143s35.667 -73 62 -99s57.166 -45.167 92.499 -57.5s73.666 -18.5 114.999 -18.5c28 0 58.667 3.16699 92 9.5
s68 15.166 104 26.499l25 -74c-40 -12 -78.667 -21.667 -116 -29s-72.333 -11 -105 -11zM373.007 129.001c13.333 0 26.833 2.66602 40.5 7.99902s26.5 13.333 38.5 24s22.5 24.334 31.5 41.001s15.5 36.667 19.5 60l27 149c-26 7.33301 -48.333 11 -67 11
c-24 0 -45.833 -4.83301 -65.5 -14.5s-36.5 -23 -50.5 -40s-24.833 -37 -32.5 -60s-11.5 -48.167 -11.5 -75.5c0 -30 5.33301 -54.667 16 -74s28.667 -29 54 -29z" />
    <glyph glyph-name="A" unicode="A" horiz-adv-x="675" 
d="M2 8l235 732h201l234 -732v-8h-129l-64 196h-284l-63 -196h-130v8zM449 303l-67 210l-39 129h-12l-39 -130l-66 -209h223z" />
    <glyph glyph-name="B" unicode="B" horiz-adv-x="655" 
d="M319 -10c-40 0 -80.666 1.16895 -121.999 3.50195s-82.333 6.16602 -123 11.499v730c47.333 4.66699 89.166 8.33398 125.499 11.001s71.833 4 106.5 4c101.333 0 175 -16.333 221 -49s69 -84.667 69 -156c0 -44 -10.5 -80 -31.5 -108s-51.167 -46.667 -90.5 -56v-4
c46.667 -8.66699 82.5 -28.334 107.5 -59.001s37.5 -70.334 37.5 -119.001c0 -139.333 -100 -209 -300 -209zM323.001 90.002c106.667 0 160 39.667 160 119c0 42 -12.333 72.167 -37 90.5s-65.334 27.5 -122.001 27.5h-123v-230c20.667 -4.66699 61.334 -7 122.001 -7z
M318.001 421.002c52 0 88.666 8.66602 109.999 25.999s32 47 32 89c0 40.667 -11.167 69.834 -33.5 87.501s-59.5 26.5 -111.5 26.5c-22 0 -42.167 -0.5 -60.5 -1.5s-36.166 -2.83301 -53.499 -5.5v-222h117z" />
    <glyph glyph-name="C" unicode="C" horiz-adv-x="565" 
d="M381 -10c-115.333 0 -200.835 30.8311 -256.502 92.498s-83.5 157.167 -83.5 286.5c0 130.667 27.5 226.834 82.5 288.501s138.833 92.5 251.5 92.5c44.667 0 97 -5 157 -15v-109c-30 4.66699 -56 8 -78 10s-42.333 3 -61 3c-39.333 0 -72.5 -4.66699 -99.5 -14
s-49 -24.5 -66 -45.5s-29.333 -48.667 -37 -83s-11.5 -76.833 -11.5 -127.5c0 -49.333 3.83301 -91 11.5 -125s19.834 -61.5 36.501 -82.5s38.334 -36.167 65.001 -45.5s58.667 -14 96 -14c10 0 21.333 0.333008 34 1s25.5 1.66699 38.5 3s25.833 2.83301 38.5 4.5
s23.667 3.5 33 5.5v-108c-21.333 -5.33301 -45.5 -9.66602 -72.5 -12.999s-53.167 -5 -78.5 -5z" />
    <glyph glyph-name="D" unicode="D" horiz-adv-x="708" 
d="M261 -12c-33.333 0 -66.332 0.999023 -98.999 2.99902s-62 5 -88 9v737c43.333 4 83 7.16699 119 9.5s67.333 3.5 94 3.5c66.667 0 124 -7.33301 172 -22s87.5 -37.5 118.5 -68.5s53.833 -70.5 68.5 -118.5s22 -105.333 22 -172
c0 -67.333 -7.66699 -125.166 -23 -173.499s-39.333 -87.833 -72 -118.5s-74.834 -53.167 -126.501 -67.5s-113.5 -21.5 -185.5 -21.5zM308.001 96.999c40 0 73.999 4.83301 101.999 14.5s50.833 25.334 68.5 47.001s30.5 49.834 38.5 84.501s12 77 12 127
c0 49.333 -4 91.166 -12 125.499s-20.833 62.166 -38.5 83.499s-40.667 36.833 -69 46.5s-62.833 14.5 -103.5 14.5c-14.667 0 -30.5 -0.5 -47.5 -1.5s-34.167 -2.5 -51.5 -4.5v-529c19.333 -2.66699 36.833 -4.66699 52.5 -6s31.834 -2 48.501 -2z" />
    <glyph glyph-name="E" unicode="E" horiz-adv-x="603" 
d="M74 740h481v-109h-347v-203h316v-110h-316v-209h356v-109h-490v740z" />
    <glyph glyph-name="F" unicode="F" horiz-adv-x="576" 
d="M74 740h473v-109h-339v-217h308v-109h-308v-305h-134v740z" />
    <glyph glyph-name="G" unicode="G" horiz-adv-x="648" 
d="M384 -10c-116.667 0 -203.003 31 -259.003 93s-84 157.333 -84 286c0 129.333 29.667 225.166 89 287.499s150 93.5 272 93.5c28.667 0 59.334 -1.83301 92.001 -5.5s64 -9.16699 94 -16.5v-109c-38 7.33301 -70.833 12.5 -98.5 15.5s-53.167 4.5 -76.5 4.5
c-43.333 0 -79.833 -4.83301 -109.5 -14.5s-53.667 -25.167 -72 -46.5s-31.666 -49.166 -39.999 -83.499s-12.5 -76.166 -12.5 -125.499c0 -48.667 3.83301 -90 11.5 -124s20 -61.5 37 -82.5s38.833 -36.333 65.5 -46s59.334 -14.5 98.001 -14.5c11.333 0 24 0.5 38 1.5
s28.333 2.16699 43 3.5v269h123v-359c-38 -8.66699 -75.333 -15.334 -112 -20.001s-69.667 -7 -99 -7z" />
    <glyph glyph-name="H" unicode="H" horiz-adv-x="748" 
d="M74 740h134v-307h332v307h134v-740h-134v324h-332v-324h-134v740z" />
    <glyph glyph-name="I" unicode="I" horiz-adv-x="282" 
d="M74 740h134v-740h-134v740z" />
    <glyph glyph-name="J" unicode="J" horiz-adv-x="281" 
d="M-2 -159c14.667 33.333 27 64.002 37 92.002s18 55.333 24 82s10.333 54.167 13 82.5s4 59.5 4 93.5v549h134v-559c0 -34 -2.16699 -66 -6.5 -96s-11.333 -59.833 -21 -89.5s-22.5 -60.334 -38.5 -92.001s-35.667 -65.834 -59 -102.501z" />
    <glyph glyph-name="K" unicode="K" horiz-adv-x="668" 
d="M74 740h134v-310h106l187 310h151l-206 -329l-43 -26v-7l46 -26l222 -352h-151l-200 321h-112v-321h-134v740z" />
    <glyph glyph-name="L" unicode="L" horiz-adv-x="517" 
d="M74 740h134v-631h296v-109h-430v740z" />
    <glyph glyph-name="M" unicode="M" horiz-adv-x="927" 
d="M74 740h185l157 -409l44 -142h6l44 142l157 409h186v-740h-123v576h-7l-60 -175l-143 -369h-115l-142 369l-61 175h-7v-576h-121v740z" />
    <glyph glyph-name="N" unicode="N" horiz-adv-x="756" 
d="M74 740h111l318 -444l52 -84h8v528h120v-740h-113l-314 441l-55 87h-8v-528h-119v740z" />
    <glyph glyph-name="O" unicode="O" horiz-adv-x="731" 
d="M365 -10c-106.667 0 -187.334 31.667 -242.001 95s-82 158 -82 284c0 126.667 27.333 221.834 82 285.501s135.334 95.5 242.001 95.5s187.5 -31.833 242.5 -95.5s82.5 -158.834 82.5 -285.501c0 -126 -27.5 -220.667 -82.5 -284s-135.833 -95 -242.5 -95zM365 101
c33.333 0 61.835 5 85.502 15s43 25.667 58 47s26 49 33 83s10.5 75 10.5 123c0 96 -14.833 165.167 -44.5 207.5s-77.167 63.5 -142.5 63.5c-32.667 0 -60.834 -5 -84.501 -15s-43 -26 -58 -48s-26 -50.167 -33 -84.5s-10.5 -75.5 -10.5 -123.5s3.5 -89 10.5 -123
s18 -61.667 33 -83s34.167 -37 57.5 -47s51.666 -15 84.999 -15z" />
    <glyph glyph-name="P" unicode="P" horiz-adv-x="639" 
d="M74 735c68 10 133.334 15 196.001 15c120 0 207.167 -20.833 261.5 -62.5s81.5 -108.167 81.5 -199.5c0 -90.667 -27.333 -157 -82 -199s-140.334 -63 -257.001 -63h-33c-10.667 0 -21.667 0.333008 -33 1v-227h-134v735zM294.001 334c33.333 0 61.499 2.66699 84.499 8
s41.833 14.166 56.5 26.499s25.167 28.333 31.5 48s9.5 43.5 9.5 71.5s-3.16699 51.667 -9.5 71s-16.666 35.166 -30.999 47.499s-33 21.333 -56 27s-51.167 8.5 -84.5 8.5c-13.333 0 -28.333 -0.666992 -45 -2s-30.667 -2.66602 -42 -3.99902v-296
c10.667 -1.33301 24 -2.66602 40 -3.99902s31.333 -2 46 -2z" />
    <glyph glyph-name="Q" unicode="Q" horiz-adv-x="729" 
d="M642 -137c-114.667 24.667 -210.501 50.998 -287.501 78.998s-138.833 61.167 -185.5 99.5s-80 83.833 -100 136.5s-30 116.334 -30 191.001c0 125.333 27.667 220.166 83 284.499s136 96.5 242 96.5c106.667 0 187.5 -32.167 242.5 -96.5s82.5 -159.166 82.5 -284.499
c0 -108 -24 -191.167 -72 -249.5s-117.333 -89.166 -208 -92.499v-10c28.667 -6.66699 54.334 -12.334 77.001 -17.001s44.5 -8.66699 65.5 -12s42 -6.16602 63 -8.49902s44.5 -4.5 70.5 -6.5zM363.999 98.998c66 0 114.001 21.168 144.001 63.501s45 111.166 45 206.499
s-15 164.5 -45 207.5s-78 64.5 -144 64.5s-114 -21.5 -144 -64.5s-45 -112.167 -45 -207.5c0 -47.333 3.66699 -88 11 -122s18.666 -62 33.999 -84s34.833 -38.167 58.5 -48.5s52.167 -15.5 85.5 -15.5z" />
    <glyph glyph-name="R" unicode="R" horiz-adv-x="655" 
d="M349 260c-22 -2 -44.999 -3 -68.999 -3h-15.5c-6.33301 0 -12.833 0.166992 -19.5 0.5l-20 1c-6.66699 0.333008 -12.334 0.833008 -17.001 1.5v-260h-134v735c66 10 131.333 15 196 15c60 0 111.667 -4.83301 155 -14.5s78.833 -24.5 106.5 -44.5
s48.167 -45.5 61.5 -76.5s20 -68.167 20 -111.5c0 -111.333 -48.333 -184.333 -145 -219l170 -284h-147zM294.001 363c33.333 0 61.498 2.49902 84.498 7.49902s41.833 13 56.5 24s25.167 25.5 31.5 43.5s9.5 39.667 9.5 65s-3.16699 46.833 -9.5 64.5
s-16.666 32 -30.999 43s-33 19 -56 24s-51.167 7.5 -84.5 7.5c-12 0 -26.167 -0.666992 -42.5 -2s-31.166 -2.66602 -44.499 -3.99902v-267c10 -2 22.5 -3.5 37.5 -4.5s31.167 -1.5 48.5 -1.5z" />
    <glyph glyph-name="S" unicode="S" horiz-adv-x="573" 
d="M276 -12c-35.333 0 -74.501 2.99902 -117.501 8.99902s-83.5 14 -121.5 24l2 112c37.333 -10.667 75.833 -19.167 115.5 -25.5s75.5 -9.5 107.5 -9.5c48 0 84 8.5 108 25.5s36 41.5 36 73.5c0 17.333 -3.33301 32.333 -10 45s-16.334 23.5 -29.001 32.5
s-28 16.667 -46 23s-38.333 12.5 -61 18.5c-35.333 8.66699 -66.333 19 -93 31s-49 26.833 -67 44.5s-31.5 38.667 -40.5 63s-13.5 53.166 -13.5 86.499c0 32.667 6.16699 62 18.5 88s29.833 48.167 52.5 66.5s50.167 32.333 82.5 42s68.833 14.5 109.5 14.5
c29.333 0 60 -2 92 -6s68.667 -10.667 110 -20l-4 -110c-31.333 8.66699 -63.666 15.5 -96.999 20.5s-62.666 7.5 -87.999 7.5c-44 0 -77.833 -8.83301 -101.5 -26.5s-35.5 -42.5 -35.5 -74.5c0 -31.333 11.667 -55.666 35 -72.999s61.333 -33.333 114 -48
c32 -9.33301 61 -19.666 87 -30.999s48.167 -25.333 66.5 -42s32.333 -36.5 42 -59.5s14.5 -50.833 14.5 -83.5c0 -70.667 -23 -124.667 -69 -162s-112.333 -56 -199 -56z" />
    <glyph glyph-name="T" unicode="T" horiz-adv-x="586" 
d="M225 630h-208v110h552v-110h-209v-630h-135v630z" />
    <glyph glyph-name="U" unicode="U" horiz-adv-x="738" 
d="M369 -10c-55.333 0 -102.166 6.16699 -140.499 18.5s-69.5 31 -93.5 56s-41.333 56.833 -52 95.5s-16 84.334 -16 137.001v443h134v-442c0 -68.667 13.5 -118.5 40.5 -149.5s69.5 -46.5 127.5 -46.5c58.667 0 101.167 15.333 127.5 46s39.5 80.667 39.5 150v442h136v-443
c0 -52.667 -5.5 -98.334 -16.5 -137.001s-28.5 -70.5 -52.5 -95.5s-55.333 -43.667 -94 -56s-85.334 -18.5 -140.001 -18.5z" />
    <glyph glyph-name="V" unicode="V" horiz-adv-x="673" 
d="M2 740h139l152 -467l40 -147h9l40 147l152 467h137l-243 -740h-182z" />
    <glyph glyph-name="W" unicode="W" horiz-adv-x="1008" 
d="M12 740h145l102 -469l23 -125h9l28 125l119 469h136l116 -469l26 -125h10l24 125l104 469h144l-187 -740h-172l-107 421l-23 143h-8l-23 -144l-110 -420h-172z" />
    <glyph glyph-name="X" unicode="X" horiz-adv-x="670" 
d="M249 382l-237 358h153l153 -242l16 -31h6l16 31l154 242h149l-241 -359l258 -381h-152l-173 267l-15 28h-6l-14 -28l-170 -267h-150z" />
    <glyph glyph-name="Y" unicode="Y" horiz-adv-x="654" 
d="M260 244l-264 496h148l152 -305l26 -66h9l27 66l152 305h147l-262 -493v-247h-135v244z" />
    <glyph glyph-name="Z" unicode="Z" horiz-adv-x="587" 
d="M30 106l354 516v7h-341v111h501v-104l-354 -519v-7h367v-110h-527v106z" />
    <glyph glyph-name="bracketleft" unicode="[" horiz-adv-x="339" 
d="M76 868h237v-89h-132v-850h132v-89h-237v1028z" />
    <glyph glyph-name="backslash" unicode="\" horiz-adv-x="383" 
d="M26 740h113l217 -860h-113z" />
    <glyph glyph-name="bracketright" unicode="]" horiz-adv-x="339" 
d="M26 -160v89h132v850h-132v89h236v-1028h-236z" />
    <glyph glyph-name="asciicircum" unicode="^" horiz-adv-x="471" 
d="M177 789h116l142 -308h-95l-103 223h-4l-102 -223h-95z" />
    <glyph glyph-name="underscore" unicode="_" horiz-adv-x="587" 
d="M44 -59h500v-99h-500v99z" />
    <glyph glyph-name="grave" unicode="`" horiz-adv-x="273" 
d="M132 611l-110 195h138l68 -185z" />
    <glyph glyph-name="a" unicode="a" horiz-adv-x="537" 
d="M178 -5c-47.333 0 -83.835 13.1689 -109.502 39.502s-38.5 63.166 -38.5 110.499c0 52.667 16.333 92.834 49 120.501s83.334 44.167 152.001 49.5l116 8v21c0 20 -1.66699 36.833 -5 50.5s-9.33301 24.667 -18 33s-20.167 14.166 -34.5 17.499s-32.833 5 -55.5 5
c-10.667 0 -22.5 -0.5 -35.5 -1.5s-26.5 -2.16699 -40.5 -3.5s-28 -3 -42 -5s-27.333 -4.33301 -40 -7l-9 95c34 6.66699 66.667 11.5 98 14.5s61.666 4.5 90.999 4.5c76.667 0 132.834 -14.333 168.501 -43s53.5 -73.334 53.5 -134.001v-370h-108l-12 66h-8
c-25.333 -22 -52.666 -39.333 -81.999 -52s-59.333 -19 -90 -19zM230.998 90.002c18.667 0 38.333 4.83203 59 14.499s39.667 20.167 57 31.5v111l-80 -7c-38 -3.33301 -64.833 -11.166 -80.5 -23.499s-23.5 -31.5 -23.5 -57.5c0 -46 22.667 -69 68 -69z" />
    <glyph glyph-name="b" unicode="b" horiz-adv-x="596" 
d="M284 -11c-30.667 0 -63.332 2.33398 -97.999 7.00098s-76.334 12.667 -125.001 24v788h132v-325c36 44 88.333 66 157 66c138.667 0 208 -89 208 -267c0 -90.667 -23 -161.834 -69 -213.501s-114.333 -78.167 -205 -79.5zM284.002 82.001
c24.667 0 46.002 3.16602 64.002 9.49902s32.5 17 43.5 32s19.167 34.333 24.5 58s8 53.167 8 88.5c0 33.333 -2 61.5 -6 84.5s-10.5 41.5 -19.5 55.5s-20.833 24.167 -35.5 30.5s-32.334 9.5 -53.001 9.5c-34 0 -62 -10 -84 -30s-33 -51.333 -33 -94v-235
c12.667 -3.33301 26.667 -5.66602 42 -6.99902s31.666 -2 48.999 -2z" />
    <glyph glyph-name="c" unicode="c" horiz-adv-x="469" 
d="M298 -9c-87.333 0 -152.501 22.667 -195.501 68s-64.5 115.666 -64.5 210.999c0 186 86.667 279 260 279c22.667 0 45.5 -1.16699 68.5 -3.5s44.167 -6.16602 63.5 -11.499v-106c-42 8 -81.667 12 -119 12c-50 0 -85.833 -13.167 -107.5 -39.5s-32.5 -69.5 -32.5 -129.5
c0 -60.667 10.833 -104.5 32.5 -131.5s57.167 -40.5 106.5 -40.5c22 0 42.333 0.833008 61 2.5s38.334 4.83398 59.001 9.50098v-105c-17.333 -4.66699 -37.833 -8.33398 -61.5 -11.001s-47.167 -4 -70.5 -4z" />
    <glyph glyph-name="d" unicode="d" horiz-adv-x="597" 
d="M247 -10c-69.333 0 -121.5 22.168 -156.5 66.501s-52.5 112.166 -52.5 203.499c0 96.667 24 169.167 72 217.5s114.667 72.5 200 72.5c16 0 31.5 -0.833008 46.5 -2.5s30.5 -3.16699 46.5 -4.5v265h131v-808h-117l-10 62h-6c-34 -48 -85.333 -72 -154 -72zM286 88.001
c34 0 62 10.334 84 31.001s33 53 33 97v230c-14.667 3.33301 -30 5.83301 -46 7.5s-32.667 2.5 -50 2.5c-24 0 -44.667 -3.16699 -62 -9.5s-31.5 -16.833 -42.5 -31.5s-19 -33.667 -24 -57s-7.5 -52.333 -7.5 -87c0 -66.667 8.83301 -113.834 26.5 -141.501
s47.167 -41.5 88.5 -41.5z" />
    <glyph glyph-name="e" unicode="e" horiz-adv-x="540" 
d="M293 -9c-84.667 0 -148.333 22.832 -191 68.499s-64 113.834 -64 204.501c0 93.333 21.333 164.166 64 212.499s105.667 72.5 189 72.5c141.333 0 212 -80.667 212 -242c0 -17.333 -0.5 -31.833 -1.5 -43.5s-2.5 -23.167 -4.5 -34.5h-327
c2 -25.333 5.83301 -46.666 11.5 -63.999s13.834 -31.333 24.501 -42s24 -18.334 40 -23.001s35.333 -7 58 -7c25.333 0 53.666 2.33301 84.999 7s61 11.334 89 20.001l5 -98c-27.333 -9.33301 -57.833 -16.833 -91.5 -22.5s-66.5 -8.5 -98.5 -8.5zM286.001 452.999
c-36.667 0 -64.333 -11.5 -83 -34.5s-29.667 -59.833 -33 -110.5h216c-1.33301 52 -9.83301 89.167 -25.5 111.5s-40.5 33.5 -74.5 33.5z" />
    <glyph glyph-name="f" unicode="f" horiz-adv-x="392" 
d="M117 429l-101.998 -0.00195312v111h103v28c0 46 4.66699 84.333 14 115s24.666 55.334 45.999 74.001s49.833 32.334 85.5 41.001s79.834 14 132.501 16l6 -98c-30 -2 -54.833 -5.33301 -74.5 -10s-35.334 -12 -47.001 -22s-19.834 -23.333 -24.501 -40
s-7 -37.667 -7 -63v-41h130v-111h-130v-429h-132v429z" />
    <glyph glyph-name="g" unicode="g" horiz-adv-x="596" 
d="M262 -220c-32 0 -64.3301 1.99805 -96.9971 5.99805s-62 9.66699 -88 17l8 98c24.667 -6 50.5 -11 77.5 -15s53.5 -6 79.5 -6c25.333 0 48.333 2.83301 69 8.5s38.167 14.834 52.5 27.501s25.5 29.334 33.5 50.001s12 46.334 12 77.001v38h-6
c-34 -48 -85.333 -72 -154 -72c-70 0 -122.667 20.667 -158 62s-53 105.666 -53 192.999c0 94.667 24.167 166 72.5 214s115.166 72 200.499 72c31.333 0 64.166 -2.5 98.499 -7.5s76.166 -14.167 125.499 -27.5v-451c0 -52 -6.83301 -96 -20.5 -132
s-32.5 -65.333 -56.5 -88s-52.667 -39 -86 -49s-70 -15 -110 -15zM287.003 103.998c34.667 0 62.668 10.166 84.001 30.499s32 51.5 32 93.5v218c-14.667 3.33301 -29.834 5.83301 -45.501 7.5s-32.167 2.5 -49.5 2.5c-24 0 -44.667 -3.16699 -62 -9.5
s-31.5 -16.666 -42.5 -30.999s-19 -33 -24 -56s-7.5 -51.167 -7.5 -84.5c0 -62 8.83301 -106 26.5 -132s47.167 -39 88.5 -39z" />
    <glyph glyph-name="h" unicode="h" horiz-adv-x="596" 
d="M62 808h132v-325c44 23.333 81.833 40.333 113.5 51s61.5 16 89.5 16c44.667 0 79 -12.5 103 -37.5s36 -61.5 36 -109.5v-403h-132v359c0 29.333 -5.33301 50.333 -16 63s-27 19 -49 19c-19.333 0 -41.333 -3.83301 -66 -11.5s-51 -18.5 -79 -32.5v-397h-132v808z" />
    <glyph glyph-name="i" unicode="i" horiz-adv-x="258" 
d="M129 632c-26 0 -45.001 6 -57.001 18s-18 30.667 -18 56s5.83301 43.833 17.5 55.5s30.834 17.5 57.501 17.5s46 -6 58 -18s18 -30.333 18 -55c0 -25.333 -6 -44 -18 -56s-31.333 -18 -58 -18zM62.999 540h132v-540h-132v540z" />
    <glyph glyph-name="j" unicode="j" horiz-adv-x="256" 
d="M127 632c-26 0 -45 6 -57 18s-18 30.667 -18 56s6 43.833 18 55.5s31 17.5 57 17.5c26.667 0 46 -6 58 -18s18 -30.333 18 -55c0 -25.333 -5.83301 -44 -17.5 -56s-31.167 -18 -58.5 -18zM9 -196c18.667 47.333 32.5 96.668 41.5 148.001s13.5 111.666 13.5 180.999v33
v68.5v88v91c0 29 -0.166992 55 -0.5 78s-0.5 39.167 -0.5 48.5h131v-460c-2 -52 -11 -104 -27 -156s-37.333 -100 -64 -144z" />
    <glyph glyph-name="k" unicode="k" horiz-adv-x="557" 
d="M62 808h132v-485h65l143 217h145l-177 -252l-22 -9v-3l22 -9l194 -267h-145l-161 233h-64v-233h-132v808z" />
    <glyph glyph-name="l" unicode="l" horiz-adv-x="259" 
d="M64 808h132v-808h-132v808z" />
    <glyph glyph-name="m" unicode="m" horiz-adv-x="887" 
d="M63 540h109l7 -61h6c38.667 24.667 72.5 42.667 101.5 54s57.5 17 85.5 17c61.333 0 102.666 -24 123.999 -72h5c38 25.333 71.833 43.666 101.5 54.999s58.5 17 86.5 17c44.667 0 79 -12.5 103 -37.5s36 -61.5 36 -109.5v-403h-131v358c0 29.333 -5.33301 50.333 -16 63
s-27.667 19 -51 19c-15.333 0 -33.5 -3.66699 -54.5 -11s-42.5 -17.333 -64.5 -30v-399h-131v358c0 29.333 -5.33301 50.333 -16 63s-27.667 19 -51 19c-16 0 -34.667 -3.66699 -56 -11s-42.666 -17.666 -63.999 -30.999v-398h-130v540z" />
    <glyph glyph-name="n" unicode="n" horiz-adv-x="596" 
d="M63 540h111l7 -61h6c47.333 25.333 87 43.5 119 54.5s62.667 16.5 92 16.5c44 0 78 -12.5 102 -37.5s36 -61.5 36 -109.5v-403h-131v359c0 30 -5.5 51.167 -16.5 63.5s-27.5 18.5 -49.5 18.5c-19.333 0 -41.5 -4 -66.5 -12s-50.833 -18.667 -77.5 -32v-397h-132v540z" />
    <glyph glyph-name="o" unicode="o" horiz-adv-x="589" 
d="M295 -10c-84.667 0 -148.834 23.833 -192.501 71.5s-65.5 117.167 -65.5 208.5s21.833 160.833 65.5 208.5s107.834 71.5 192.501 71.5c84 0 147.833 -23.833 191.5 -71.5s65.5 -117.167 65.5 -208.5s-21.833 -160.833 -65.5 -208.5s-107.5 -71.5 -191.5 -71.5zM295 93
c22 0 40.833 3.16699 56.5 9.5s28.5 16.5 38.5 30.5s17.333 32.167 22 54.5s7 49.833 7 82.5s-2.33301 60.167 -7 82.5s-12 40.5 -22 54.5s-22.833 24.167 -38.5 30.5s-34.5 9.5 -56.5 9.5c-22.667 0 -41.834 -3.16699 -57.501 -9.5s-28.5 -16.5 -38.5 -30.5
s-17.333 -32.167 -22 -54.5s-7 -49.833 -7 -82.5s2.33301 -60.167 7 -82.5s12 -40.5 22 -54.5s22.833 -24.167 38.5 -30.5s34.834 -9.5 57.501 -9.5z" />
    <glyph glyph-name="p" unicode="p" horiz-adv-x="598" 
d="M63 540h115.999l9 -62h6c36 48 88.333 72 157 72c138.667 0 208 -89.333 208 -268c0 -92.667 -23.167 -164.5 -69.5 -215.5s-114.166 -76.5 -203.499 -76.5c-15.333 0 -30.833 0.666992 -46.5 2s-30.5 3 -44.5 5v-217h-132v760zM288.999 83
c24 0 44.668 3.16797 62.001 9.50098s31.5 17 42.5 32s19.167 34.333 24.5 58s8 53.167 8 88.5c0 33.333 -2.16699 61.5 -6.5 84.5s-11 41.5 -20 55.5s-20.833 24.167 -35.5 30.5s-32.334 9.5 -53.001 9.5c-34.667 0 -62.667 -10.333 -84 -31s-32 -53.334 -32 -98.001v-228
c13.333 -3.33301 28 -6 44 -8s32.667 -3 50 -3z" />
    <glyph glyph-name="q" unicode="q" horiz-adv-x="596" 
d="M406 62c-38 -48 -90.999 -71.999 -158.999 -71.999c-139.333 0 -209 90 -209 270c0 95.333 23.667 167.5 71 216.5s115.666 73.5 204.999 73.5c38 0 76.333 -2.33301 115 -7s73.667 -10.334 105 -17.001v-746h-128v282zM287.001 88.001c36 0 64.166 10.834 84.499 32.501
s30.5 54.5 30.5 98.5v227c-31.333 6.66699 -63 10 -95 10c-25.333 0 -46.666 -3.16699 -63.999 -9.5s-31.333 -16.833 -42 -31.5s-18.5 -33.5 -23.5 -56.5s-7.5 -51.5 -7.5 -85.5s2 -62.667 6 -86s10.667 -42.333 20 -57s21.5 -25.334 36.5 -32.001s33.167 -10 54.5 -10z
" />
    <glyph glyph-name="r" unicode="r" horiz-adv-x="402" 
d="M63 540h111.002l7 -76h5c23.333 17.333 50.166 34 80.499 50s59.5 27.667 87.5 35h36v-118h-48c-26 -3.33301 -52.333 -10 -79 -20s-49.334 -21 -68.001 -33v-378h-132v540z" />
    <glyph glyph-name="s" unicode="s" horiz-adv-x="474" 
d="M225 -11c-53.333 0 -115.334 8.00293 -186.001 24.0029v97c32 -8 63.167 -14.333 93.5 -19s59.166 -7 86.499 -7c63.333 0 95 21.667 95 65c0 21.333 -7.5 37.166 -22.5 47.499s-37.5 18.166 -67.5 23.499c-19.333 3.33301 -39.666 7.33301 -60.999 12
s-40.833 12.5 -58.5 23.5s-32.167 26.667 -43.5 47s-17 48.166 -17 83.499c0 52 18 92.667 54 122s86.333 44 151 44c24 0 49.167 -1.66699 75.5 -5s58.166 -8.33301 95.499 -15l-4 -100c-34 7.33301 -62.833 12.666 -86.5 15.999s-44.834 5 -63.501 5
c-32 0 -56.167 -5.5 -72.5 -16.5s-24.5 -26.5 -24.5 -46.5c0 -24 9 -40.333 27 -49s42.667 -15.667 74 -21c24 -4 46.333 -9.5 67 -16.5s38.834 -16.5 54.501 -28.5s27.834 -27.5 36.501 -46.5s13 -42.833 13 -71.5c0 -53.333 -18.667 -94.666 -56 -123.999
s-90.666 -44 -159.999 -44z" />
    <glyph glyph-name="t" unicode="t" horiz-adv-x="404" 
d="M282 -9c-113.333 0 -170 53.3311 -170 159.998v277h-97v112h105l19 147l104 13v-160h137v-112h-136v-248c0 -31.333 6.16699 -53.666 18.5 -66.999s31.833 -20 58.5 -20c8.66699 0 18.167 0.833008 28.5 2.5s21.166 4.16699 32.499 7.5v-100
c-14.667 -3.33301 -30.667 -6.16602 -48 -8.49902s-34.666 -3.5 -51.999 -3.5z" />
    <glyph glyph-name="u" unicode="u" horiz-adv-x="596" 
d="M202 -10c-46.667 0 -82.167 12.668 -106.5 38.001s-36.5 61.666 -36.5 108.999v403h132v-363c0 -28.667 5 -49.167 15 -61.5s27 -18.5 51 -18.5c22 0 45.167 4.5 69.5 13.5s49.166 20.167 74.499 33.5v396h132v-540h-111l-8 61h-4c-23.333 -13.333 -44 -24.5 -62 -33.5
s-34.667 -16.167 -50 -21.5s-30.666 -9.33301 -45.999 -12s-32 -4 -50 -4z" />
    <glyph glyph-name="v" unicode="v" horiz-adv-x="564" 
d="M11 528v12h139l106 -339l22 -92h10l22 92l107 339h137v-12l-192 -528h-161z" />
    <glyph glyph-name="w" unicode="w" horiz-adv-x="790" 
d="M17 535v5h127l72 -337l13 -72h9l15 72l82 337h120l83 -337l15 -72h9l13 72l71 337h126v-5l-134 -535h-147l-81 320l-11 63h-9l-11 -63l-79 -320h-147z" />
    <glyph glyph-name="x" unicode="x" horiz-adv-x="560" 
d="M8 13l182 267l-174 252v8h140l96 -149l26 -43h7l25 43l94 149h140v-8l-173 -258l181 -261v-13h-138l-104 162l-27 48h-8l-26 -48l-102 -162h-139v13z" />
    <glyph glyph-name="y" unicode="y" horiz-adv-x="569" 
d="M144 -199v10l74 194l-210 522v13h139l111 -319l22 -84h8l23 84l113 319h137v-13l-291 -747z" />
    <glyph glyph-name="z" unicode="z" horiz-adv-x="495" 
d="M33 87l258 344v7h-249v102h410v-85l-253 -345v-8h263v-102h-429v87z" />
    <glyph glyph-name="braceleft" unicode="{" horiz-adv-x="346" 
d="M26 406c24 0 41.502 8.16992 52.502 24.5029s16.5 40.5 16.5 72.5v244c0 44.667 8.5 76 25.5 94s45.5 27 85.5 27c6 0 14.5 -0.166992 25.5 -0.5s22.167 -0.833008 33.5 -1.5s21.666 -1.16699 30.999 -1.5s15.666 -0.833008 18.999 -1.5v-84h-64
c-17.333 0 -29.833 -3.5 -37.5 -10.5s-11.5 -18.5 -11.5 -34.5v-258c0 -31.333 -6.83301 -58 -20.5 -80s-32.167 -35.667 -55.5 -41c23.333 -4.66699 41.833 -17.834 55.5 -39.501s20.5 -47.834 20.5 -78.501v-260c0 -16.667 3.83301 -28.5 11.5 -35.5
s20.167 -10.5 37.5 -10.5h64v-83c-3.33301 -0.666992 -9.5 -1.33398 -18.5 -2.00098s-19.167 -1.16699 -30.5 -1.5l-33.5 -1c-11 -0.333008 -19.833 -0.5 -26.5 -0.5c-40 0 -68.5 9 -85.5 27s-25.5 49.333 -25.5 94v246c0 32 -5.5 56 -16.5 72s-28.5 24 -52.5 24v100z" />
    <glyph glyph-name="bar" unicode="|" horiz-adv-x="277" 
d="M200 808v-1028h-124v1028h124z" />
    <glyph glyph-name="braceright" unicode="}" horiz-adv-x="346" 
d="M319 306c-24 0 -41.332 -8.00293 -51.999 -24.0029s-16 -40 -16 -72v-246c0 -44.667 -8.5 -76 -25.5 -94s-45.5 -27 -85.5 -27c-6.66699 0 -15.5 0.166992 -26.5 0.5l-33.5 1c-11.333 0.333008 -21.666 0.833008 -30.999 1.5s-15.333 1.33398 -18 2.00098v83h64
c17.333 0 29.666 3.5 36.999 10.5s11 18.833 11 35.5v260c0 30.667 6.83301 56.834 20.5 78.501s32.167 34.834 55.5 39.501c-23.333 5.33301 -41.833 19 -55.5 41s-20.5 48.667 -20.5 80v258c0 16 -3.66699 27.5 -11 34.5s-19.666 10.5 -36.999 10.5h-64v84
c2.66699 0.666992 8.66699 1.16699 18 1.5s19.666 0.833008 30.999 1.5s22.666 1.16699 33.999 1.5s20 0.5 26 0.5c40 0 68.5 -9 85.5 -27s25.5 -49.333 25.5 -94v-244c0 -32 5.33301 -56.167 16 -72.5s28 -24.5 52 -24.5v-100z" />
    <glyph glyph-name="asciitilde" unicode="~" horiz-adv-x="632" 
d="M45 275c19.333 23.333 36.5029 42.667 51.5029 58s29 27.5 42 36.5s25.833 15.333 38.5 19s26.334 5.5 41.001 5.5c20 0 38 -3.83301 54 -11.5s31.333 -16.334 46 -26.001s29 -18.334 43 -26.001s29 -11.5 45 -11.5c19.333 0 38.166 6.5 56.499 19.5
s34.166 30.833 47.499 53.5l77 -45c-9.33301 -14 -19.833 -28.667 -31.5 -44s-24.5 -29.333 -38.5 -42s-29.333 -23.167 -46 -31.5s-34.334 -12.5 -53.001 -12.5c-21.333 0 -40.333 3.83301 -57 11.5s-32.334 16.334 -47.001 26.001s-28.667 18.334 -42 26.001
s-27.333 11.5 -42 11.5c-19.333 0 -37.5 -5.83301 -54.5 -17.5s-35.833 -30.167 -56.5 -55.5z" />
    <glyph glyph-name="uni00A0" unicode="&#xa0;" horiz-adv-x="208" 
 />
    <glyph glyph-name="exclamdown" unicode="&#xa1;" horiz-adv-x="254" 
d="M128 543c22.667 0 40.334 -6.00098 53.001 -18.001s19 -29 19 -51c0 -21.333 -6.33301 -38.166 -19 -50.499s-30.334 -18.5 -53.001 -18.5c-23.333 0 -41.166 6 -53.499 18s-18.5 29 -18.5 51s6.16699 39 18.5 51s30.166 18 53.499 18zM85 320.999h82v-12l26 -499v-10
h-134v10l26 499v12z" />
    <glyph glyph-name="cent" unicode="&#xa2;" horiz-adv-x="483" 
d="M251 -6c-142 14.667 -213.001 106.664 -213.001 275.997c0 168 71 260 213 276v114h85v-112c33.333 -2 64.666 -6.66699 93.999 -14v-106c-42 8 -81.667 12 -119 12c-50 0 -85.833 -13.167 -107.5 -39.5s-32.5 -69.5 -32.5 -129.5c0 -60.667 10.833 -104.5 32.5 -131.5
s57.167 -40.5 106.5 -40.5c22 0 42.333 0.833008 61 2.5s38.334 4.83398 59.001 9.50098v-105c-12.667 -3.33301 -27.167 -6.16602 -43.5 -8.49902s-33.166 -4.16602 -50.499 -5.49902v-112h-85v114z" />
    <glyph glyph-name="sterling" unicode="&#xa3;" horiz-adv-x="637" 
d="M42 423l137.001 -0.000976562v100c0 76 19.167 132.333 57.5 169s98.833 55 181.5 55c27.333 0 55 -2 83 -6s60 -10.667 96 -20l-8 -108c-27.333 7.33301 -54.333 12.833 -81 16.5s-50.334 5.5 -71.001 5.5c-45.333 0 -77.333 -8.66699 -96 -26s-28 -46.666 -28 -87.999
v-98h196v-104h-196v-204h270v-115h-541v116h137v203h-137v104z" />
    <glyph glyph-name="currency" unicode="&#xa4;" horiz-adv-x="606" 
d="M47 168l54.001 54.001l47 33c-24 31.333 -36 69.666 -36 114.999c0 44 12 81.667 36 113l-47 35l-54 54l53 54l55 -54l36 -50c31.333 20 68.666 30 111.999 30c42.667 0 79.667 -10 111 -30l37 50l55 54l53 -54l-54 -54l-49 -35c24 -31.333 36 -69 36 -113
c0 -22.667 -3 -43.5 -9 -62.5s-14.667 -36.167 -26 -51.5l48 -34l54 -54l-53 -54l-55 54l-36 49c-30 -20 -67.333 -30 -112 -30c-45.333 0 -83 10 -113 30l-35 -49l-55 -54zM196.001 370.001c0 -36 9.66699 -63.5 29 -82.5s45.333 -28.5 78 -28.5c32 0 57.5 9.5 76.5 28.5
s28.5 46.5 28.5 82.5s-9.5 63.333 -28.5 82s-44.5 28 -76.5 28c-32.667 0 -58.667 -9.33301 -78 -28s-29 -46 -29 -82z" />
    <glyph glyph-name="yen" unicode="&#xa5;" horiz-adv-x="709" 
d="M99 334h143l-216 406h148l152 -305l26 -66h9l27 66l152 305h147l-216 -406h129v-87h-175v-79h175v-87h-175v-81h-135v81h-191v87h191v76l-2 3h-189v87z" />
    <glyph glyph-name="brokenbar" unicode="&#xa6;" horiz-adv-x="275" 
d="M75 204h124v-424h-124v424zM75 808h124v-424h-124v424z" />
    <glyph glyph-name="section" unicode="&#xa7;" horiz-adv-x="500" 
d="M236 -11c-52.667 0 -114.331 7.99902 -184.998 23.999v95c32 -8 63.167 -14.167 93.5 -18.5s59.166 -6.5 86.499 -6.5c63.333 0 95 22 95 66c0 21.333 -7.66699 37.333 -23 48s-38 18.667 -68 24c-19.333 2.66699 -39.5 6.33398 -60.5 11.001s-40.333 12.5 -58 23.5
s-32.334 26.667 -44.001 47s-17.5 48.166 -17.5 83.499c0 40.667 12 75 36 103c-10.667 11.333 -19.334 25.166 -26.001 41.499s-10 37.166 -10 62.499c0 52 18 92.5 54 121.5s86.333 43.5 151 43.5c24.667 0 49.834 -1.5 75.501 -4.5s57.167 -7.83301 94.5 -14.5l-3 -100
c-34 8 -62.667 13.667 -86 17s-44.666 5 -63.999 5c-64 0 -96 -21.333 -96 -64c0 -24 9 -40.5 27 -49.5s42.667 -16.167 74 -21.5c24 -4 46.333 -9.5 67 -16.5s38.667 -16.5 54 -28.5s27.333 -27.5 36 -46.5s13 -42.5 13 -70.5c0 -44 -12 -79.333 -36 -106
c11.333 -11.333 20.166 -25.166 26.499 -41.499s9.5 -36.166 9.5 -59.499c0 -53.333 -18.5 -94.666 -55.5 -123.999s-90.5 -44 -160.5 -44zM313.003 297.999c10.667 14 16 31.3311 16 51.998c0 24.667 -6.33301 42.834 -19 54.501s-30.667 20.5 -54 26.5
c-7.33301 2 -16.5 4.33301 -27.5 7s-20.167 5.66699 -27.5 9c-15.333 -14 -23 -31.667 -23 -53c0 -13.333 2 -24.166 6 -32.499s9.5 -15.5 16.5 -21.5s15.333 -10.833 25 -14.5s20.5 -7.16699 32.5 -10.5l27.5 -7.5c11 -3 20.167 -6.16699 27.5 -9.5z" />
    <glyph glyph-name="dieresis" unicode="&#xa8;" horiz-adv-x="489" 
d="M120 629c-23.333 0 -40.667 5.33301 -52 16s-17 27.667 -17 51s5.66699 40.333 17 51s28.666 16 51.999 16c46 0 69 -22.333 69 -67c0 -23.333 -5.66699 -40.333 -17 -51s-28.666 -16 -51.999 -16zM359.999 629c-24 0 -41.5 5.33301 -52.5 16s-16.5 27.667 -16.5 51
s5.5 40.333 16.5 51s28.5 16 52.5 16c45.333 0 68 -22.333 68 -67c0 -23.333 -5.5 -40.333 -16.5 -51s-28.167 -16 -51.5 -16z" />
    <glyph glyph-name="copyright" unicode="&#xa9;" horiz-adv-x="825" 
d="M428 163c-60.667 0 -106.998 16.999 -138.998 50.999s-48 85 -48 153c0 68.667 16 120.167 48 154.5s78.333 51.5 139 51.5c15.333 0 30.666 -0.833008 45.999 -2.5s29.333 -4.16699 42 -7.5v-73c-30 6 -56.333 9 -79 9c-38.667 0 -66.667 -10.5 -84 -31.5
s-26 -54.167 -26 -99.5c0 -46 8.83301 -79.333 26.5 -100s45.167 -31 82.5 -31c10 0 22 0.833008 36 2.5s29 3.83398 45 6.50098v-72c-12.667 -3.33301 -26.834 -6 -42.501 -8s-31.167 -3 -46.5 -3zM413.002 -11.001c-56 0 -106.833 9.16699 -152.5 27.5
s-84.834 44.333 -117.501 78s-57.834 73.834 -75.501 120.501s-26.5 98.334 -26.5 155.001s8.83301 108.334 26.5 155.001s42.834 86.834 75.501 120.501s71.834 59.667 117.501 78s96.5 27.5 152.5 27.5s106.667 -9.16699 152 -27.5s84.166 -44.333 116.499 -78
s57.333 -73.834 75 -120.501s26.5 -98.334 26.5 -155.001s-8.83301 -108.334 -26.5 -155.001s-42.667 -86.834 -75 -120.501s-71.166 -59.667 -116.499 -78s-96 -27.5 -152 -27.5zM413.002 58.999c45.333 0 86.333 7.5 123 22.5s67.834 36 93.501 63
s45.334 59.667 59.001 98s20.5 80.833 20.5 127.5s-6.83301 89.167 -20.5 127.5s-33.334 71 -59.001 98s-56.834 48 -93.501 63s-77.667 22.5 -123 22.5c-46 0 -87.333 -7.5 -124 -22.5s-68 -36 -94 -63s-45.833 -59.667 -59.5 -98s-20.5 -80.833 -20.5 -127.5
s6.83301 -89.167 20.5 -127.5s33.5 -71 59.5 -98s57.333 -48 94 -63s78 -22.5 124 -22.5z" />
    <glyph glyph-name="ordfeminine" unicode="&#xaa;" horiz-adv-x="440" 
d="M153 348c-36 0 -64.5 10.333 -85.5 31s-31.5 48 -31.5 82c0 35.333 12.5 63 37.5 83s61.833 31.667 110.5 35l94 6v12c0 14.667 -1 26.667 -3 36s-6 16.5 -12 21.5s-14 8.5 -24 10.5s-23 3 -39 3c-15.333 0 -33.5 -0.833008 -54.5 -2.5s-43.833 -4.16699 -68.5 -7.5
l-8 74c28 4.66699 54 8.16699 78 10.5s46.667 3.5 68 3.5c60 0 103.167 -10 129.5 -30s39.5 -51.333 39.5 -94v-270h-90l-6 47h-4c-21.333 -16 -43 -28.5 -65 -37.5s-44 -13.5 -66 -13.5zM193 423c22 0 50.333 9.33301 85 28v73l-50 -4
c-32.667 -2.66699 -55.167 -7.5 -67.5 -14.5s-18.5 -19.167 -18.5 -36.5c0 -30.667 17 -46 51 -46z" />
    <glyph glyph-name="guillemotleft" unicode="&#xab;" horiz-adv-x="623" 
d="M30 268v4l151 238h135l-151 -238v-4l151 -238h-135zM302 268v4l151 238h135l-151 -238v-4l151 -238h-135z" />
    <glyph glyph-name="logicalnot" unicode="&#xac;" horiz-adv-x="804" 
d="M51 434h689v-330h-129v222h-560v108z" />
    <glyph glyph-name="uni00AD" unicode="&#xad;" horiz-adv-x="452" 
d="M56 330h339v-100h-339v100z" />
    <glyph glyph-name="registered" unicode="&#xae;" horiz-adv-x="702" 
d="M351 141c-45.333 0 -86.833 7.5 -124.5 22.5s-70 36 -97 63s-47.833 59.333 -62.5 97s-22 78.834 -22 123.501s7.33301 85.834 22 123.501s35.5 70 62.5 97s59.333 48 97 63s79.167 22.5 124.5 22.5s86.833 -7.5 124.5 -22.5s70 -36 97 -63s48 -59.333 63 -97
s22.5 -78.834 22.5 -123.501s-7.5 -85.834 -22.5 -123.501s-36 -70 -63 -97s-59.333 -48 -97 -63s-79.167 -22.5 -124.5 -22.5zM351 200c36.667 0 70.167 6 100.5 18s56.166 28.833 77.499 50.5s37.833 47.667 49.5 78s17.5 63.833 17.5 100.5s-5.83301 70.167 -17.5 100.5
s-28.167 56.333 -49.5 78s-47.166 38.5 -77.499 50.5s-63.833 18 -100.5 18c-37.333 0 -71 -6 -101 -18s-55.5 -28.833 -76.5 -50.5s-37.333 -47.667 -49 -78s-17.5 -63.833 -17.5 -100.5s5.83301 -70.167 17.5 -100.5s28 -56.333 49 -78s46.5 -38.5 76.5 -50.5
s63.667 -18 101 -18zM241 614c17.333 2 34 3.66602 50 4.99902s31.333 2 46 2c96 0 144 -35 144 -105c0 -49.333 -21.667 -80.666 -65 -93.999l-1 -3l75 -128h-63l-65 115h-61v-115h-60v323zM339 453.999c28.667 0 49.333 4.83301 62 14.5s19 25.167 19 46.5
c0 19.333 -5.83301 34 -17.5 44s-31.5 15 -59.5 15c-4.66699 0 -11.5 -0.166992 -20.5 -0.5s-16.167 -0.833008 -21.5 -1.5v-118h38z" />
    <glyph glyph-name="macron" unicode="&#xaf;" horiz-adv-x="463" 
d="M54 728h342v-88h-342v88z" />
    <glyph glyph-name="degree" unicode="&#xb0;" horiz-adv-x="450" 
d="M225 373c-28 0 -53.667 4.66699 -77 14s-43.5 22.333 -60.5 39s-30.167 36.5 -39.5 59.5s-14 47.833 -14 74.5s4.66699 51.5 14 74.5s22.5 43 39.5 60s37.167 30.167 60.5 39.5s49 14 77 14s53.5 -4.66699 76.5 -14s43 -22.5 60 -39.5s30.167 -37 39.5 -60
s14 -47.833 14 -74.5s-4.66699 -51.5 -14 -74.5s-22.5 -42.833 -39.5 -59.5s-37 -29.667 -60 -39s-48.5 -14 -76.5 -14zM225 447c35.333 0 62.333 10.333 81 31s28 48 28 82s-9.33301 61.667 -28 83s-45.667 32 -81 32s-62.333 -10.667 -81 -32s-28 -49 -28 -83
s9.33301 -61.333 28 -82s45.667 -31 81 -31z" />
    <glyph glyph-name="plusminus" unicode="&#xb1;" horiz-adv-x="532" 
d="M58 471h163v164h89v-164h162v-89h-162v-159h-89v159h-163v89zM59 158h414v-89h-414v89z" />
    <glyph glyph-name="twosuperior" unicode="&#xb2;" horiz-adv-x="436" 
d="M32 385c0 44.667 12.166 83 36.499 115s64.5 62.667 120.5 92c18.667 10 34 19 46 27s21.667 15.833 29 23.5s12.5 15.334 15.5 23.001s4.5 16.167 4.5 25.5c0 43.333 -32.333 65 -97 65c-17.333 0 -36.5 -1.5 -57.5 -4.5s-45.167 -7.16699 -72.5 -12.5l-11 93
c32.667 7.33301 62.334 12.666 89.001 15.999s51.667 5 75 5c125.333 0 188 -51 188 -153c0 -38 -10.667 -70.5 -32 -97.5s-54.333 -52.5 -99 -76.5c-36 -21.333 -61.833 -40.5 -77.5 -57.5s-23.5 -34.833 -23.5 -53.5v-20h231v-94h-365v84z" />
    <glyph glyph-name="threesuperior" unicode="&#xb3;" horiz-adv-x="413" 
d="M171 293c-24 0 -47.6689 1 -71.002 3s-43.666 4.66699 -60.999 8v97h8c12.667 -3.33301 29 -5.83301 49 -7.5s37.667 -2.5 53 -2.5c42 0 72 6 90 18s27 30 27 54c0 25.333 -9.33301 44 -28 56s-50.667 18 -96 18h-44v81h44c38 0 65.667 5.83301 83 17.5
s26 29.167 26 52.5s-7.66699 40.666 -23 51.999s-40.666 17 -75.999 17c-12.667 0 -28.167 -1 -46.5 -3s-37.5 -4.66699 -57.5 -8h-8l-2 95c18 4 39 7.16699 63 9.5s45.667 3.5 65 3.5c132.667 0 199 -49.333 199 -148c0 -30 -6.66699 -55.5 -20 -76.5
s-32.666 -36.5 -57.999 -46.5c60.667 -21.333 91 -65.666 91 -132.999c0 -50 -17.833 -88.667 -53.5 -116s-86.834 -41 -153.501 -41z" />
    <glyph glyph-name="acute" unicode="&#xb4;" horiz-adv-x="265" 
d="M37 617l68 187h135l-109 -195z" />
    <glyph glyph-name="mu" unicode="&#xb5;" horiz-adv-x="627" 
d="M75 540h131v-363c0 -54.667 22.333 -82 67 -82c21.333 0 43.666 4 66.999 12s49 18.667 77 32v401h132v-540h-111l-8 61h-4c-23.333 -13.333 -44 -24.5 -62 -33.5s-34.667 -16.167 -50 -21.5s-30.666 -9.33301 -45.999 -12s-32 -4 -50 -4c-2 0 -4 0.166992 -6 0.5
s-4 0.5 -6 0.5v-211h-131v760z" />
    <glyph glyph-name="paragraph" unicode="&#xb6;" horiz-adv-x="598" 
d="M372 0l-65 -0.00390625v266c-9.33301 -0.666992 -18.333 -1 -27 -1h-26c-34 0 -64.5 4.16699 -91.5 12.5s-50.167 21.833 -69.5 40.5s-34.166 43.334 -44.499 74.001s-15.5 68.334 -15.5 113.001s5.16699 82.334 15.5 113.001s25.166 55.334 44.499 74.001
s42.666 32.167 69.999 40.5s58 12.5 92 12.5c18 0 36.833 -0.833008 56.5 -2.5s39.834 -4.16699 60.501 -7.5v-735zM511 -0.00390625h-83v735h83v-735z" />
    <glyph glyph-name="periodcentered" unicode="&#xb7;" horiz-adv-x="251" 
d="M125 296c-26.667 0 -46 5.83301 -58 17.5s-18 30.5 -18 56.5s6 45 18 57s31.333 18 58 18c26 0 45.167 -6 57.5 -18s18.5 -31 18.5 -57c0 -49.333 -25.333 -74 -76 -74z" />
    <glyph glyph-name="cedilla" unicode="&#xb8;" horiz-adv-x="294" 
d="M123 -220c-13.333 0 -27.833 1.16895 -43.5 3.50195s-31.5 5.16602 -47.5 8.49902v81c11.333 -3.33301 23.333 -6 36 -8s24 -3 34 -3c18.667 0 32 3.83301 40 11.5s12 18.834 12 33.501c0 15.333 -4.83301 33.166 -14.5 53.499s-25.167 44.166 -46.5 71.499h86
c12.667 -16 23.167 -30.5 31.5 -43.5s15 -25 20 -36s8.5 -21.5 10.5 -31.5s3 -20.333 3 -31c0 -34.667 -10.667 -61.667 -32 -81s-51 -29 -89 -29z" />
    <glyph glyph-name="onesuperior" unicode="&#xb9;" horiz-adv-x="337" 
d="M156 724l-115 -44h-10l-17 56l1 15l171 95h83v-546h-113v424z" />
    <glyph glyph-name="ordmasculine" unicode="&#xba;" horiz-adv-x="464" 
d="M232 424c16 0 29.5 1.83301 40.5 5.5s20.167 10 27.5 19s12.666 21.5 15.999 37.5s5 36 5 60s-1.66699 44 -5 60s-8.66602 28.667 -15.999 38s-16.5 15.833 -27.5 19.5s-24.5 5.5 -40.5 5.5s-29.5 -1.83301 -40.5 -5.5s-20 -10.167 -27 -19.5s-12.167 -22 -15.5 -38
s-5 -36 -5 -60s1.66699 -44 5 -60s8.5 -28.5 15.5 -37.5s16 -15.333 27 -19s24.5 -5.5 40.5 -5.5zM232 345c-62 0 -110 16.5 -144 49.5s-51 83.5 -51 151.5s17 118.5 51 151.5s82 49.5 144 49.5c62.667 0 110.834 -16.5 144.501 -49.5s50.5 -83.5 50.5 -151.5
s-16.833 -118.5 -50.5 -151.5s-81.834 -49.5 -144.501 -49.5z" />
    <glyph glyph-name="guillemotright" unicode="&#xbb;" horiz-adv-x="623" 
d="M170 30h-134l151 238v4l-151 238h134l151 -238v-4zM443 30h-134l151 238v4l-151 238h134l151 -238v-4z" />
    <glyph glyph-name="onequarter" unicode="&#xbc;" horiz-adv-x="1032" 
d="M816 115h-231l-16 69l183 362l12 4l95 -9l8 -18l-182 -321h138l30 159h76v-159h74v-87h-74v-115h-113v115zM571 740h112l-316 -740h-113zM167 624l-115 -44h-10l-17 56l1 15l171 95h83v-546h-113v424z" />
    <glyph glyph-name="onehalf" unicode="&#xbd;" horiz-adv-x="1053" 
d="M641 85c0 22 2.83301 42.333 8.5 61s14.667 36.334 27 53.001s28.5 32.5 48.5 47.5s44.333 30.167 73 45.5c18.667 10 34.167 19.167 46.5 27.5s22 16.166 29 23.499s12 14.833 15 22.5s4.5 15.834 4.5 24.501c0 44 -32 66 -96 66
c-38.667 0 -82.334 -5.66699 -131.001 -17l-11 93c66.667 14 121.334 21 164.001 21c125.333 0 188 -51 188 -153c0 -36.667 -10.167 -68.334 -30.5 -95.001s-53.833 -53 -100.5 -79c-36.667 -22.667 -62.667 -42.167 -78 -58.5s-23 -33.833 -23 -52.5v-20h231v-94h-365v84z
M571 740h112l-316 -740h-113zM167 624l-115 -44h-10l-17 56l1 15l171 95h83v-546h-113v424z" />
    <glyph glyph-name="threequarters" unicode="&#xbe;" horiz-adv-x="1082" 
d="M182 193c-24 0 -47.6689 1 -71.002 3s-43.666 4.66699 -60.999 8v97h8c12.667 -3.33301 29 -5.83301 49 -7.5s37.667 -2.5 53 -2.5c42 0 72 6 90 18s27 30 27 54c0 25.333 -9.33301 44 -28 56s-50.667 18 -96 18h-44v81h44c38 0 65.667 5.83301 83 17.5
s26 29.167 26 52.5s-7.66699 40.666 -23 51.999s-40.666 17 -75.999 17c-12.667 0 -28.167 -1 -46.5 -3s-37.5 -4.66699 -57.5 -8h-8l-2 95c18 4 39 7.16699 63 9.5s45.667 3.5 65 3.5c132.667 0 199 -49.333 199 -148c0 -30 -6.66699 -55.5 -20 -76.5
s-32.666 -36.5 -57.999 -46.5c60.667 -21.333 91 -65.666 91 -132.999c0 -50 -17.833 -88.667 -53.5 -116s-86.834 -41 -153.501 -41zM867.998 115h-231l-16 69l183 362l12 4l95 -9l8 -18l-182 -321h138l30 159h76v-159h74v-87h-74v-115h-113v115zM630.998 740h112
l-316 -740h-113z" />
    <glyph glyph-name="questiondown" unicode="&#xbf;" horiz-adv-x="444" 
d="M311 321l9.99902 -183.998c-22 -5.33301 -43.167 -11.333 -63.5 -18s-38.333 -15.334 -54 -26.001s-28.167 -23.334 -37.5 -38.001s-14 -32.334 -14 -53.001c0 -20 3.16699 -36.667 9.5 -50s15.166 -24 26.499 -32s24.333 -13.833 39 -17.5s30.667 -5.5 48 -5.5
c22.667 0 45.834 2 69.501 6s45.167 8.66699 64.5 14l8 -100c-26 -7.33301 -52.667 -13.166 -80 -17.499s-55.666 -6.5 -84.999 -6.5c-32 0 -61.833 3.83301 -89.5 11.5s-51.5 19.5 -71.5 35.5s-35.667 36.333 -47 61s-17 54.334 -17 89.001
c0 31.333 5.16699 58.666 15.5 81.999s24.333 43.333 42 60s38 30.167 61 40.5s47.167 18.5 72.5 24.5l4 123v17h89v-16zM263.999 547.002c22.667 0 40.334 -6 53.001 -18s19 -29 19 -51s-6.33301 -39 -19 -51s-30.334 -18 -53.001 -18s-40.334 6 -53.001 18s-19 29 -19 51
s6.33301 39 19 51s30.334 18 53.001 18z" />
    <glyph glyph-name="Agrave" unicode="&#xc0;" horiz-adv-x="675" 
d="M2 8l235 732h201l234 -732v-8h-129l-64 196h-284l-63 -196h-130v8zM449 303l-67 210l-39 129h-12l-39 -130l-66 -209h223zM282 797l-108 166h136l70 -154z" />
    <glyph glyph-name="Aacute" unicode="&#xc1;" horiz-adv-x="675" 
d="M2 8l235 732h201l234 -732v-8h-129l-64 196h-284l-63 -196h-130v8zM449 303l-67 210l-39 129h-12l-39 -130l-66 -209h223zM284 804l70 159h136l-109 -166z" />
    <glyph glyph-name="Acircumflex" unicode="&#xc2;" horiz-adv-x="675" 
d="M2 8l235 732h201l234 -732v-8h-129l-64 196h-284l-63 -196h-130v8zM449 303l-67 210l-39 129h-12l-39 -130l-66 -209h223zM165 898l173 74l174 -74v-94l-173 74l-174 -74v94z" />
    <glyph glyph-name="Atilde" unicode="&#xc3;" horiz-adv-x="675" 
d="M2 8l235 732h201l234 -732v-8h-129l-64 196h-284l-63 -196h-130v8zM449 303l-67 210l-39 129h-12l-39 -130l-66 -209h223zM138 852c19.333 32.667 41.168 57.5 65.501 74.5s48.166 25.5 71.499 25.5c15.333 0 30 -2.16699 44 -6.5s27.833 -9 41.5 -14
s27.5 -9.5 41.5 -13.5s28.333 -6 43 -6c14 0 27.667 3 41 9s27.666 15.667 42.999 29l24 -26c-18 -33.333 -39.5 -58.5 -64.5 -75.5s-49.167 -25.5 -72.5 -25.5c-14.667 0 -29 2 -43 6s-28 8.5 -42 13.5s-28 9.5 -42 13.5s-28 6 -42 6c-14.667 0 -28.667 -2.83301 -42 -8.5
s-27.666 -15.167 -42.999 -28.5z" />
    <glyph glyph-name="Adieresis" unicode="&#xc4;" horiz-adv-x="675" 
d="M2 8l235 732h201l234 -732v-8h-129l-64 196h-284l-63 -196h-130v8zM449 303l-67 210l-39 129h-12l-39 -130l-66 -209h223zM208 808c-26 0 -45.167 6 -57.5 18s-18.5 31 -18.5 57s6.16699 44.833 18.5 56.5s31.5 17.5 57.5 17.5c50.667 0 76 -24.667 76 -74
c0 -26 -6.16699 -45 -18.5 -57s-31.5 -18 -57.5 -18zM467 808c-26.667 0 -46 6 -58 18s-18 31 -18 57s6 44.833 18 56.5s31.333 17.5 58 17.5c50.667 0 76 -24.667 76 -74c0 -26 -6.16699 -45 -18.5 -57s-31.5 -18 -57.5 -18z" />
    <glyph glyph-name="Aring" unicode="&#xc5;" horiz-adv-x="675" 
d="M2 8l235 732h201l234 -732v-8h-129l-64 196h-284l-63 -196h-130v8zM449 303l-67 210l-39 129h-12l-39 -130l-66 -209h223zM338 766c-36 0 -65.333 10.333 -88 31s-34 47 -34 79c0 32.667 11.333 59.5 34 80.5s52 31.5 88 31.5s65.167 -10.5 87.5 -31.5
s33.5 -47.833 33.5 -80.5c0 -32 -11.167 -58.333 -33.5 -79s-51.5 -31 -87.5 -31zM338 818c22 0 38 5 48 15s15 24.333 15 43c0 19.333 -5 34.166 -15 44.499s-26 15.5 -48 15.5c-22.667 0 -39 -5.16699 -49 -15.5s-15 -25.166 -15 -44.499c0 -18.667 5 -33 15 -43
s26.333 -15 49 -15z" />
    <glyph glyph-name="AE" unicode="&#xc6;" horiz-adv-x="897" 
d="M0 8l275 732h570v-109h-303l11 -204h273v-109h-266l12 -209h285v-109h-418l-8 193h-226l-72 -193h-133v8zM248 306h178l-13 334h-40z" />
    <glyph glyph-name="Ccedilla" unicode="&#xc7;" horiz-adv-x="565" 
d="M307 -220c-13.333 0 -27.835 1.16699 -43.502 3.5s-31.5 5.16602 -47.5 8.49902v81c11.333 -3.33301 23.333 -6 36 -8s24 -3 34 -3c18.667 0 32 3.83301 40 11.5s12 18.834 12 33.501c0 23.333 -11.333 52.666 -34 87.999c-89.333 13.333 -155.5 50.5 -198.5 111.5
s-64.5 148.5 -64.5 262.5c0 130.667 27.5 226.834 82.5 288.501s138.833 92.5 251.5 92.5c44.667 0 97 -5 157 -15v-109c-30 4.66699 -56 8 -78 10s-42.333 3 -61 3c-39.333 0 -72.5 -4.66699 -99.5 -14s-49 -24.5 -66 -45.5s-29.333 -48.667 -37 -83
s-11.5 -76.833 -11.5 -127.5c0 -49.333 3.83301 -91 11.5 -125s19.834 -61.5 36.501 -82.5s38.334 -36.167 65.001 -45.5s58.667 -14 96 -14c10 0 21.333 0.333008 34 1s25.5 1.66699 38.5 3s25.833 2.83301 38.5 4.5s23.667 3.5 33 5.5v-108
c-19.333 -5.33301 -41.333 -9.5 -66 -12.5s-49 -4.83301 -73 -5.5c13.333 -20 22.5 -37.5 27.5 -52.5s7.5 -30.833 7.5 -47.5c0 -34.667 -10.667 -61.667 -32 -81s-51 -29 -89 -29z" />
    <glyph glyph-name="Egrave" unicode="&#xc8;" horiz-adv-x="603" 
d="M275 797l-108 166h136l70 -154zM74 740h481v-109h-347v-203h316v-110h-316v-209h356v-109h-490v740z" />
    <glyph glyph-name="Eacute" unicode="&#xc9;" horiz-adv-x="603" 
d="M260 804l70 159h136l-109 -166zM74 740h481v-109h-347v-203h316v-110h-316v-209h356v-109h-490v740z" />
    <glyph glyph-name="Ecircumflex" unicode="&#xca;" horiz-adv-x="603" 
d="M74 740h481v-109h-347v-203h316v-110h-316v-209h356v-109h-490v740zM148 898l173 74l174 -74v-94l-173 74l-174 -74v94z" />
    <glyph glyph-name="Edieresis" unicode="&#xcb;" horiz-adv-x="603" 
d="M190 808c-26 0 -45.167 6 -57.5 18s-18.5 31 -18.5 57s6.16699 44.833 18.5 56.5s31.5 17.5 57.5 17.5c50.667 0 76 -24.667 76 -74c0 -26 -6.16699 -45 -18.5 -57s-31.5 -18 -57.5 -18zM449 808c-26.667 0 -46 6 -58 18s-18 31 -18 57s6 44.833 18 56.5
s31.333 17.5 58 17.5c50.667 0 76 -24.667 76 -74c0 -26 -6.16699 -45 -18.5 -57s-31.5 -18 -57.5 -18zM74 740h481v-109h-347v-203h316v-110h-316v-209h356v-109h-490v740z" />
    <glyph glyph-name="Igrave" unicode="&#xcc;" horiz-adv-x="282" 
d="M74 740h134v-740h-134v740zM98 797l-108 166h136l70 -154z" />
    <glyph glyph-name="Iacute" unicode="&#xcd;" horiz-adv-x="282" 
d="M74 740h134v-740h-134v740zM88 804l70 159h136l-109 -166z" />
    <glyph glyph-name="Icircumflex" unicode="&#xce;" horiz-adv-x="282" 
d="M74 740h134v-740h-134v740zM-31 898l173 74l174 -74v-94l-173 74l-174 -74v94z" />
    <glyph glyph-name="Idieresis" unicode="&#xcf;" horiz-adv-x="282" 
d="M74 740h134v-740h-134v740zM13 808c-26 0 -45.167 6 -57.5 18s-18.5 31 -18.5 57s6.16699 44.833 18.5 56.5s31.5 17.5 57.5 17.5c50.667 0 76 -24.667 76 -74c0 -26 -6.16699 -45 -18.5 -57s-31.5 -18 -57.5 -18zM272 808c-26.667 0 -46 6 -58 18s-18 31 -18 57
s6 44.833 18 56.5s31.333 17.5 58 17.5c50.667 0 76 -24.667 76 -74c0 -26 -6.16699 -45 -18.5 -57s-31.5 -18 -57.5 -18z" />
    <glyph glyph-name="Eth" unicode="&#xd0;" horiz-adv-x="726" 
d="M2 423l90.001 -0.000976562v314c43.333 4 83 7.16699 119 9.5s67.333 3.5 94 3.5c66.667 0 124 -7.33301 172 -22s87.5 -37.5 118.5 -68.5s53.833 -70.5 68.5 -118.5s22 -105.333 22 -172c0 -67.333 -7.66699 -125.166 -23 -173.499s-39.333 -87.833 -72 -118.5
s-74.834 -53.167 -126.501 -67.5s-113.5 -21.5 -185.5 -21.5c-33.333 0 -66.333 1 -99 3s-62 5 -88 9v320h-90v103zM326.001 96.999c40 0 73.999 4.83301 101.999 14.5s50.833 25.334 68.5 47.001s30.5 49.834 38.5 84.501s12 77 12 127c0 49.333 -4 91.166 -12 125.499
s-20.833 62.166 -38.5 83.499s-40.667 36.833 -69 46.5s-62.833 14.5 -103.5 14.5c-14.667 0 -30.5 -0.5 -47.5 -1.5s-34.167 -2.5 -51.5 -4.5v-211h136v-103h-136v-215c19.333 -2.66699 36.833 -4.66699 52.5 -6s31.834 -2 48.501 -2z" />
    <glyph glyph-name="Ntilde" unicode="&#xd1;" horiz-adv-x="756" 
d="M176 852c19.333 32.667 41.168 57.5 65.501 74.5s48.166 25.5 71.499 25.5c15.333 0 30 -2.16699 44 -6.5s27.833 -9 41.5 -14s27.5 -9.5 41.5 -13.5s28.333 -6 43 -6c14 0 27.667 3 41 9s27.666 15.667 42.999 29l24 -26c-18 -33.333 -39.5 -58.5 -64.5 -75.5
s-49.167 -25.5 -72.5 -25.5c-14.667 0 -29 2 -43 6s-28 8.5 -42 13.5s-28 9.5 -42 13.5s-28 6 -42 6c-14.667 0 -28.667 -2.83301 -42 -8.5s-27.666 -15.167 -42.999 -28.5zM74.002 740h111l318 -444l52 -84h8v528h120v-740h-113l-314 441l-55 87h-8v-528h-119v740z" />
    <glyph glyph-name="Ograve" unicode="&#xd2;" horiz-adv-x="731" 
d="M310 797l-108 166h136l70 -154zM365 -10c-106.667 0 -187.334 31.667 -242.001 95s-82 158 -82 284c0 126.667 27.333 221.834 82 285.501s135.334 95.5 242.001 95.5s187.5 -31.833 242.5 -95.5s82.5 -158.834 82.5 -285.501c0 -126 -27.5 -220.667 -82.5 -284
s-135.833 -95 -242.5 -95zM365 101c33.333 0 61.835 5 85.502 15s43 25.667 58 47s26 49 33 83s10.5 75 10.5 123c0 96 -14.833 165.167 -44.5 207.5s-77.167 63.5 -142.5 63.5c-32.667 0 -60.834 -5 -84.501 -15s-43 -26 -58 -48s-26 -50.167 -33 -84.5
s-10.5 -75.5 -10.5 -123.5s3.5 -89 10.5 -123s18 -61.667 33 -83s34.167 -37 57.5 -47s51.666 -15 84.999 -15z" />
    <glyph glyph-name="Oacute" unicode="&#xd3;" horiz-adv-x="731" 
d="M312 804l70 159h136l-109 -166zM365 -10c-106.667 0 -187.334 31.667 -242.001 95s-82 158 -82 284c0 126.667 27.333 221.834 82 285.501s135.334 95.5 242.001 95.5s187.5 -31.833 242.5 -95.5s82.5 -158.834 82.5 -285.501c0 -126 -27.5 -220.667 -82.5 -284
s-135.833 -95 -242.5 -95zM365 101c33.333 0 61.835 5 85.502 15s43 25.667 58 47s26 49 33 83s10.5 75 10.5 123c0 96 -14.833 165.167 -44.5 207.5s-77.167 63.5 -142.5 63.5c-32.667 0 -60.834 -5 -84.501 -15s-43 -26 -58 -48s-26 -50.167 -33 -84.5
s-10.5 -75.5 -10.5 -123.5s3.5 -89 10.5 -123s18 -61.667 33 -83s34.167 -37 57.5 -47s51.666 -15 84.999 -15z" />
    <glyph glyph-name="Ocircumflex" unicode="&#xd4;" horiz-adv-x="731" 
d="M365 -10c-106.667 0 -187.334 31.667 -242.001 95s-82 158 -82 284c0 126.667 27.333 221.834 82 285.501s135.334 95.5 242.001 95.5s187.5 -31.833 242.5 -95.5s82.5 -158.834 82.5 -285.501c0 -126 -27.5 -220.667 -82.5 -284s-135.833 -95 -242.5 -95zM365 101
c33.333 0 61.835 5 85.502 15s43 25.667 58 47s26 49 33 83s10.5 75 10.5 123c0 96 -14.833 165.167 -44.5 207.5s-77.167 63.5 -142.5 63.5c-32.667 0 -60.834 -5 -84.501 -15s-43 -26 -58 -48s-26 -50.167 -33 -84.5s-10.5 -75.5 -10.5 -123.5s3.5 -89 10.5 -123
s18 -61.667 33 -83s34.167 -37 57.5 -47s51.666 -15 84.999 -15zM191.002 898l173 74l174 -74v-94l-173 74l-174 -74v94z" />
    <glyph glyph-name="Otilde" unicode="&#xd5;" horiz-adv-x="731" 
d="M165 852c19.333 32.667 41.168 57.5 65.501 74.5s48.166 25.5 71.499 25.5c15.333 0 30 -2.16699 44 -6.5s27.833 -9 41.5 -14s27.5 -9.5 41.5 -13.5s28.333 -6 43 -6c14 0 27.667 3 41 9s27.666 15.667 42.999 29l24 -26c-18 -33.333 -39.5 -58.5 -64.5 -75.5
s-49.167 -25.5 -72.5 -25.5c-14.667 0 -29 2 -43 6s-28 8.5 -42 13.5s-28 9.5 -42 13.5s-28 6 -42 6c-14.667 0 -28.667 -2.83301 -42 -8.5s-27.666 -15.167 -42.999 -28.5zM365.002 -10c-106.667 0 -187.334 31.667 -242.001 95s-82 158 -82 284
c0 126.667 27.333 221.834 82 285.501s135.334 95.5 242.001 95.5s187.5 -31.833 242.5 -95.5s82.5 -158.834 82.5 -285.501c0 -126 -27.5 -220.667 -82.5 -284s-135.833 -95 -242.5 -95zM365.002 101c33.333 0 61.835 5 85.502 15s43 25.667 58 47s26 49 33 83
s10.5 75 10.5 123c0 96 -14.833 165.167 -44.5 207.5s-77.167 63.5 -142.5 63.5c-32.667 0 -60.834 -5 -84.501 -15s-43 -26 -58 -48s-26 -50.167 -33 -84.5s-10.5 -75.5 -10.5 -123.5s3.5 -89 10.5 -123s18 -61.667 33 -83s34.167 -37 57.5 -47s51.666 -15 84.999 -15z" />
    <glyph glyph-name="Odieresis" unicode="&#xd6;" horiz-adv-x="731" 
d="M233 808c-26 0 -45.167 6 -57.5 18s-18.5 31 -18.5 57s6.16699 44.833 18.5 56.5s31.5 17.5 57.5 17.5c50.667 0 76 -24.667 76 -74c0 -26 -6.16699 -45 -18.5 -57s-31.5 -18 -57.5 -18zM492 808c-26.667 0 -46 6 -58 18s-18 31 -18 57s6 44.833 18 56.5
s31.333 17.5 58 17.5c50.667 0 76 -24.667 76 -74c0 -26 -6.16699 -45 -18.5 -57s-31.5 -18 -57.5 -18zM365 -10c-106.667 0 -187.334 31.667 -242.001 95s-82 158 -82 284c0 126.667 27.333 221.834 82 285.501s135.334 95.5 242.001 95.5s187.5 -31.833 242.5 -95.5
s82.5 -158.834 82.5 -285.501c0 -126 -27.5 -220.667 -82.5 -284s-135.833 -95 -242.5 -95zM365 101c33.333 0 61.835 5 85.502 15s43 25.667 58 47s26 49 33 83s10.5 75 10.5 123c0 96 -14.833 165.167 -44.5 207.5s-77.167 63.5 -142.5 63.5
c-32.667 0 -60.834 -5 -84.501 -15s-43 -26 -58 -48s-26 -50.167 -33 -84.5s-10.5 -75.5 -10.5 -123.5s3.5 -89 10.5 -123s18 -61.667 33 -83s34.167 -37 57.5 -47s51.666 -15 84.999 -15z" />
    <glyph glyph-name="multiply" unicode="&#xd7;" horiz-adv-x="484" 
d="M44 236l134 134l-134 134l64 64l133 -134l134 134l65 -64l-134 -134l134 -134l-64 -63l-134 133l-134 -133z" />
    <glyph glyph-name="Oslash" unicode="&#xd8;" horiz-adv-x="735" 
d="M107 109c-42.667 64 -64.002 150.665 -64.002 259.998c0 126.667 27.333 221.834 82 285.501s135.334 95.5 242.001 95.5c84.667 0 153 -20 205 -60l40 50h102l-87 -109c43.333 -63.333 65 -150.666 65 -261.999c0 -126 -27.333 -220.667 -82 -284s-135.667 -95 -243 -95
c-85.333 0 -153.666 20.333 -204.999 61l-40 -51h-102zM366.998 100.998c33.333 0 61.833 5 85.5 15s43.167 25.667 58.5 47s26.5 49 33.5 83s10.5 75 10.5 123c0 60 -6 110 -18 150l-298 -373c29.333 -30 72 -45 128 -45zM180.998 368.998
c0 -61.333 5.33398 -110.333 16.001 -147l298 372c-30 30.667 -72.667 46 -128 46c-32.667 0 -60.834 -5 -84.501 -15s-43 -26 -58 -48s-26 -50.167 -33 -84.5s-10.5 -75.5 -10.5 -123.5z" />
    <glyph glyph-name="Ugrave" unicode="&#xd9;" horiz-adv-x="738" 
d="M315 797l-108 166h136l70 -154zM369 -10c-55.333 0 -102.166 6.16699 -140.499 18.5s-69.5 31 -93.5 56s-41.333 56.833 -52 95.5s-16 84.334 -16 137.001v443h134v-442c0 -68.667 13.5 -118.5 40.5 -149.5s69.5 -46.5 127.5 -46.5c58.667 0 101.167 15.333 127.5 46
s39.5 80.667 39.5 150v442h136v-443c0 -52.667 -5.5 -98.334 -16.5 -137.001s-28.5 -70.5 -52.5 -95.5s-55.333 -43.667 -94 -56s-85.334 -18.5 -140.001 -18.5z" />
    <glyph glyph-name="Uacute" unicode="&#xda;" horiz-adv-x="738" 
d="M306 804l70 159h136l-109 -166zM369 -10c-55.333 0 -102.166 6.16699 -140.499 18.5s-69.5 31 -93.5 56s-41.333 56.833 -52 95.5s-16 84.334 -16 137.001v443h134v-442c0 -68.667 13.5 -118.5 40.5 -149.5s69.5 -46.5 127.5 -46.5c58.667 0 101.167 15.333 127.5 46
s39.5 80.667 39.5 150v442h136v-443c0 -52.667 -5.5 -98.334 -16.5 -137.001s-28.5 -70.5 -52.5 -95.5s-55.333 -43.667 -94 -56s-85.334 -18.5 -140.001 -18.5z" />
    <glyph glyph-name="Ucircumflex" unicode="&#xdb;" horiz-adv-x="738" 
d="M369 -10c-55.333 0 -102.166 6.16699 -140.499 18.5s-69.5 31 -93.5 56s-41.333 56.833 -52 95.5s-16 84.334 -16 137.001v443h134v-442c0 -68.667 13.5 -118.5 40.5 -149.5s69.5 -46.5 127.5 -46.5c58.667 0 101.167 15.333 127.5 46s39.5 80.667 39.5 150v442h136v-443
c0 -52.667 -5.5 -98.334 -16.5 -137.001s-28.5 -70.5 -52.5 -95.5s-55.333 -43.667 -94 -56s-85.334 -18.5 -140.001 -18.5zM191 898l173 74l174 -74v-94l-173 74l-174 -74v94z" />
    <glyph glyph-name="Udieresis" unicode="&#xdc;" horiz-adv-x="738" 
d="M236 808c-26 0 -45.167 6 -57.5 18s-18.5 31 -18.5 57s6.16699 44.833 18.5 56.5s31.5 17.5 57.5 17.5c50.667 0 76 -24.667 76 -74c0 -26 -6.16699 -45 -18.5 -57s-31.5 -18 -57.5 -18zM495 808c-26.667 0 -46 6 -58 18s-18 31 -18 57s6 44.833 18 56.5
s31.333 17.5 58 17.5c50.667 0 76 -24.667 76 -74c0 -26 -6.16699 -45 -18.5 -57s-31.5 -18 -57.5 -18zM369 -10c-55.333 0 -102.166 6.16699 -140.499 18.5s-69.5 31 -93.5 56s-41.333 56.833 -52 95.5s-16 84.334 -16 137.001v443h134v-442
c0 -68.667 13.5 -118.5 40.5 -149.5s69.5 -46.5 127.5 -46.5c58.667 0 101.167 15.333 127.5 46s39.5 80.667 39.5 150v442h136v-443c0 -52.667 -5.5 -98.334 -16.5 -137.001s-28.5 -70.5 -52.5 -95.5s-55.333 -43.667 -94 -56s-85.334 -18.5 -140.001 -18.5z" />
    <glyph glyph-name="Yacute" unicode="&#xdd;" horiz-adv-x="654" 
d="M260 244l-264 496h148l152 -305l26 -66h9l27 66l152 305h147l-262 -493v-247h-135v244zM276 804l70 159h136l-109 -166z" />
    <glyph glyph-name="Thorn" unicode="&#xde;" horiz-adv-x="642" 
d="M74 740h133.999v-116c11.333 0.666992 22.333 1.16699 33 1.5s21.667 0.5 33 0.5c59.333 0 110.333 -5 153 -15s77.834 -25.5 105.501 -46.5s48 -47.667 61 -80s19.5 -70.833 19.5 -115.5c0 -89.333 -26.5 -154.333 -79.5 -195s-138.5 -61 -256.5 -61h-34.5
c-11.667 0 -23.167 0.333008 -34.5 1v-114h-134v740zM288.999 224c36 0 66 2.33398 90 7.00098s43.167 12.667 57.5 24s24.666 26.333 30.999 45s9.5 41.667 9.5 69c0 26.667 -3.16699 49.334 -9.5 68.001s-16.833 33.5 -31.5 44.5s-34.167 19 -58.5 24s-54.5 7.5 -90.5 7.5
h-17c-7.33301 0 -14.833 -0.166992 -22.5 -0.5s-15.167 -0.833008 -22.5 -1.5s-13 -1.33398 -17 -2.00098v-280c3.33301 -0.666992 8.5 -1.33398 15.5 -2.00098s14.667 -1.16699 23 -1.5l24 -1c7.66699 -0.333008 13.834 -0.5 18.501 -0.5z" />
    <glyph glyph-name="germandbls" unicode="&#xdf;" horiz-adv-x="687" 
d="M63 581c0 80 21.6631 138.498 64.9961 175.498s110 55.5 200 55.5s156.833 -18.667 200.5 -56s65.5 -95.666 65.5 -174.999v-127h-109c-30 0 -52.833 -5.83301 -68.5 -17.5s-23.5 -27.167 -23.5 -46.5c0 -24 8.83301 -40.5 26.5 -49.5s42.5 -16.167 74.5 -21.5
c24 -4 46.333 -9.33301 67 -16s38.667 -16 54 -28s27.5 -27.5 36.5 -46.5s13.5 -42.833 13.5 -71.5c0 -53.333 -18.667 -94.666 -56 -123.999s-90.666 -44 -159.999 -44c-53.333 0 -115.333 8 -186 24v95c32.667 -8 64 -14.167 94 -18.5s58.667 -6.5 86 -6.5
c63.333 0 95 22 95 66c0 21.333 -7.66699 37.5 -23 48.5s-38 18.833 -68 23.5c-19.333 2.66699 -39.666 6.33398 -60.999 11.001s-40.666 12.5 -57.999 23.5s-31.666 26.667 -42.999 47s-17 48.166 -17 83.499c0 48.667 17.167 87.667 51.5 117s81.833 45.333 142.5 48v30
c0 46 -10.5 78.667 -31.5 98s-55.167 29 -102.5 29c-46.667 0 -80.5 -9.66699 -101.5 -29s-31.5 -52 -31.5 -98v-581h-132v581z" />
    <glyph glyph-name="agrave" unicode="&#xe0;" horiz-adv-x="537" 
d="M178 -5c-47.333 0 -83.835 13.1689 -109.502 39.502s-38.5 63.166 -38.5 110.499c0 52.667 16.333 92.834 49 120.501s83.334 44.167 152.001 49.5l116 8v21c0 20 -1.66699 36.833 -5 50.5s-9.33301 24.667 -18 33s-20.167 14.166 -34.5 17.499s-32.833 5 -55.5 5
c-10.667 0 -22.5 -0.5 -35.5 -1.5s-26.5 -2.16699 -40.5 -3.5s-28 -3 -42 -5s-27.333 -4.33301 -40 -7l-9 95c34 6.66699 66.667 11.5 98 14.5s61.666 4.5 90.999 4.5c76.667 0 132.834 -14.333 168.501 -43s53.5 -73.334 53.5 -134.001v-370h-108l-12 66h-8
c-25.333 -22 -52.666 -39.333 -81.999 -52s-59.333 -19 -90 -19zM230.998 90.002c18.667 0 38.333 4.83203 59 14.499s39.667 20.167 57 31.5v111l-80 -7c-38 -3.33301 -64.833 -11.166 -80.5 -23.499s-23.5 -31.5 -23.5 -57.5c0 -46 22.667 -69 68 -69zM225.997 611.001
l-110 195h138l68 -185z" />
    <glyph glyph-name="aacute" unicode="&#xe1;" horiz-adv-x="537" 
d="M178 -5c-47.333 0 -83.835 13.1689 -109.502 39.502s-38.5 63.166 -38.5 110.499c0 52.667 16.333 92.834 49 120.501s83.334 44.167 152.001 49.5l116 8v21c0 20 -1.66699 36.833 -5 50.5s-9.33301 24.667 -18 33s-20.167 14.166 -34.5 17.499s-32.833 5 -55.5 5
c-10.667 0 -22.5 -0.5 -35.5 -1.5s-26.5 -2.16699 -40.5 -3.5s-28 -3 -42 -5s-27.333 -4.33301 -40 -7l-9 95c34 6.66699 66.667 11.5 98 14.5s61.666 4.5 90.999 4.5c76.667 0 132.834 -14.333 168.501 -43s53.5 -73.334 53.5 -134.001v-370h-108l-12 66h-8
c-25.333 -22 -52.666 -39.333 -81.999 -52s-59.333 -19 -90 -19zM230.998 90.002c18.667 0 38.333 4.83203 59 14.499s39.667 20.167 57 31.5v111l-80 -7c-38 -3.33301 -64.833 -11.166 -80.5 -23.499s-23.5 -31.5 -23.5 -57.5c0 -46 22.667 -69 68 -69zM221.997 617.001
l68 187h135l-109 -195z" />
    <glyph glyph-name="acircumflex" unicode="&#xe2;" horiz-adv-x="537" 
d="M178 -5c-47.333 0 -83.835 13.1689 -109.502 39.502s-38.5 63.166 -38.5 110.499c0 52.667 16.333 92.834 49 120.501s83.334 44.167 152.001 49.5l116 8v21c0 20 -1.66699 36.833 -5 50.5s-9.33301 24.667 -18 33s-20.167 14.166 -34.5 17.499s-32.833 5 -55.5 5
c-10.667 0 -22.5 -0.5 -35.5 -1.5s-26.5 -2.16699 -40.5 -3.5s-28 -3 -42 -5s-27.333 -4.33301 -40 -7l-9 95c34 6.66699 66.667 11.5 98 14.5s61.666 4.5 90.999 4.5c76.667 0 132.834 -14.333 168.501 -43s53.5 -73.334 53.5 -134.001v-370h-108l-12 66h-8
c-25.333 -22 -52.666 -39.333 -81.999 -52s-59.333 -19 -90 -19zM230.998 90.002c18.667 0 38.333 4.83203 59 14.499s39.667 20.167 57 31.5v111l-80 -7c-38 -3.33301 -64.833 -11.166 -80.5 -23.499s-23.5 -31.5 -23.5 -57.5c0 -46 22.667 -69 68 -69zM101.997 713.001
l173 75l174 -75v-93l-174 74l-173 -74v93z" />
    <glyph glyph-name="atilde" unicode="&#xe3;" horiz-adv-x="537" 
d="M178 -5c-47.333 0 -83.835 13.1689 -109.502 39.502s-38.5 63.166 -38.5 110.499c0 52.667 16.333 92.834 49 120.501s83.334 44.167 152.001 49.5l116 8v21c0 20 -1.66699 36.833 -5 50.5s-9.33301 24.667 -18 33s-20.167 14.166 -34.5 17.499s-32.833 5 -55.5 5
c-10.667 0 -22.5 -0.5 -35.5 -1.5s-26.5 -2.16699 -40.5 -3.5s-28 -3 -42 -5s-27.333 -4.33301 -40 -7l-9 95c34 6.66699 66.667 11.5 98 14.5s61.666 4.5 90.999 4.5c76.667 0 132.834 -14.333 168.501 -43s53.5 -73.334 53.5 -134.001v-370h-108l-12 66h-8
c-25.333 -22 -52.666 -39.333 -81.999 -52s-59.333 -19 -90 -19zM230.998 90.002c18.667 0 38.333 4.83203 59 14.499s39.667 20.167 57 31.5v111l-80 -7c-38 -3.33301 -64.833 -11.166 -80.5 -23.499s-23.5 -31.5 -23.5 -57.5c0 -46 22.667 -69 68 -69zM67.9971 666.001
c19.333 32 41 56 65 72s47.667 24 71 24c15.333 0 30.166 -2.33301 44.499 -7s28.333 -9.83398 42 -15.501s27.334 -10.834 41.001 -15.501s27.834 -7 42.501 -7c14 0 27.5 3 40.5 9s26.5 16 40.5 30l28 -32c-18.667 -32 -40.334 -56.167 -65.001 -72.5s-49 -24.5 -73 -24.5
c-14.667 0 -29 2.33301 -43 7s-28 9.83398 -42 15.501s-28 10.834 -42 15.501s-28 7 -42 7s-27.5 -3 -40.5 -9s-26.5 -15.667 -40.5 -29z" />
    <glyph glyph-name="adieresis" unicode="&#xe4;" horiz-adv-x="537" 
d="M178 -5c-47.333 0 -83.835 13.1689 -109.502 39.502s-38.5 63.166 -38.5 110.499c0 52.667 16.333 92.834 49 120.501s83.334 44.167 152.001 49.5l116 8v21c0 20 -1.66699 36.833 -5 50.5s-9.33301 24.667 -18 33s-20.167 14.166 -34.5 17.499s-32.833 5 -55.5 5
c-10.667 0 -22.5 -0.5 -35.5 -1.5s-26.5 -2.16699 -40.5 -3.5s-28 -3 -42 -5s-27.333 -4.33301 -40 -7l-9 95c34 6.66699 66.667 11.5 98 14.5s61.666 4.5 90.999 4.5c76.667 0 132.834 -14.333 168.501 -43s53.5 -73.334 53.5 -134.001v-370h-108l-12 66h-8
c-25.333 -22 -52.666 -39.333 -81.999 -52s-59.333 -19 -90 -19zM230.998 90.002c18.667 0 38.333 4.83203 59 14.499s39.667 20.167 57 31.5v111l-80 -7c-38 -3.33301 -64.833 -11.166 -80.5 -23.499s-23.5 -31.5 -23.5 -57.5c0 -46 22.667 -69 68 -69zM152.997 629.001
c-23.333 0 -40.667 5.33301 -52 16s-17 27.667 -17 51s5.66699 40.333 17 51s28.666 16 51.999 16c46 0 69 -22.333 69 -67c0 -23.333 -5.66699 -40.333 -17 -51s-28.666 -16 -51.999 -16zM392.996 629.001c-24 0 -41.5 5.33301 -52.5 16s-16.5 27.667 -16.5 51
s5.5 40.333 16.5 51s28.5 16 52.5 16c45.333 0 68 -22.333 68 -67c0 -23.333 -5.5 -40.333 -16.5 -51s-28.167 -16 -51.5 -16z" />
    <glyph glyph-name="aring" unicode="&#xe5;" horiz-adv-x="537" 
d="M178 -5c-47.333 0 -83.835 13.1689 -109.502 39.502s-38.5 63.166 -38.5 110.499c0 52.667 16.333 92.834 49 120.501s83.334 44.167 152.001 49.5l116 8v21c0 20 -1.66699 36.833 -5 50.5s-9.33301 24.667 -18 33s-20.167 14.166 -34.5 17.499s-32.833 5 -55.5 5
c-10.667 0 -22.5 -0.5 -35.5 -1.5s-26.5 -2.16699 -40.5 -3.5s-28 -3 -42 -5s-27.333 -4.33301 -40 -7l-9 95c34 6.66699 66.667 11.5 98 14.5s61.666 4.5 90.999 4.5c76.667 0 132.834 -14.333 168.501 -43s53.5 -73.334 53.5 -134.001v-370h-108l-12 66h-8
c-25.333 -22 -52.666 -39.333 -81.999 -52s-59.333 -19 -90 -19zM230.998 90.002c18.667 0 38.333 4.83203 59 14.499s39.667 20.167 57 31.5v111l-80 -7c-38 -3.33301 -64.833 -11.166 -80.5 -23.499s-23.5 -31.5 -23.5 -57.5c0 -46 22.667 -69 68 -69zM269.997 596.001
c-36.667 0 -66.335 10.5 -89.002 31.5s-34 47.5 -34 79.5s11.333 58.5 34 79.5s52.334 31.5 89.001 31.5s66.334 -10.5 89.001 -31.5s34 -47.5 34 -79.5s-11.5 -58.5 -34.5 -79.5s-52.5 -31.5 -88.5 -31.5zM269.996 649.001c20.667 0 36.167 5.16699 46.5 15.5
s15.5 24.5 15.5 42.5s-5.16699 32.167 -15.5 42.5s-25.833 15.5 -46.5 15.5s-36.167 -5.16699 -46.5 -15.5s-15.5 -24.5 -15.5 -42.5s5.16699 -32.167 15.5 -42.5s25.833 -15.5 46.5 -15.5z" />
    <glyph glyph-name="ae" unicode="&#xe6;" horiz-adv-x="852" 
d="M605 -11c-91.333 0 -156.666 30.3359 -195.999 91.0029l-7 1c-46 -30.667 -86.5 -52.667 -121.5 -66s-69.5 -20 -103.5 -20c-46 0 -81.833 13.167 -107.5 39.5s-38.5 63.5 -38.5 111.5c0 52 16.167 91.667 48.5 119s82.833 43.666 151.5 48.999l116 8v36
c-0.666992 34.667 -9.33398 58.667 -26.001 72s-47 20 -91 20c-21.333 0 -46 -1.5 -74 -4.5s-54.667 -7.16699 -80 -12.5l-9 95c69.333 12.667 133 19 191 19c82.667 0 137 -25.667 163 -77h8c39.333 51.333 97.333 77 174 77c141.333 0 212 -80.333 212 -241
c0 -17.333 -0.5 -32 -1.5 -44s-2.83301 -23 -5.5 -33h-327c2 -48.667 13.5 -83.834 34.5 -105.501s54.167 -32.5 99.5 -32.5c25.333 0 53.5 2.16699 84.5 6.5s61.167 11.166 90.5 20.499l5 -98c-28 -9.33301 -58.833 -16.833 -92.5 -22.5s-66.167 -8.5 -97.5 -8.5z
M232 90.0029c17.333 0 36.167 4.33398 56.5 13.001s41.5 20.667 63.5 36c-0.666992 2 -1.33398 8.16699 -2.00098 18.5s-1.16699 21.666 -1.5 33.999s-0.666016 24 -0.999023 35s-0.5 18.167 -0.5 21.5l-80 -7c-38 -3.33301 -64.667 -11.333 -80 -24s-23 -32 -23 -58
c0 -46 22.667 -69 68 -69zM697.001 304.004c-1.33301 52.667 -9.66699 90.333 -25 113s-40 34 -74 34c-38 0 -66.5 -12 -85.5 -36s-29.833 -61 -32.5 -111h217z" />
    <glyph glyph-name="ccedilla" unicode="&#xe7;" horiz-adv-x="469" 
d="M234 -220c-13.333 0 -27.832 1.16602 -43.499 3.49902s-31.5 5.16602 -47.5 8.49902v81c11.333 -3.33301 23.333 -6 36 -8s24 -3 34 -3c18.667 0 32 3.83301 40 11.5s12 18.834 12 33.501c0 24 -11.667 53.667 -35 89c-64.667 11.333 -112.834 39.333 -144.501 84
s-47.5 108 -47.5 190c0 186 86.667 279 260 279c22.667 0 45.5 -1.16699 68.5 -3.5s44.167 -6.16602 63.5 -11.499v-106c-42 8 -81.667 12 -119 12c-50 0 -85.833 -13.167 -107.5 -39.5s-32.5 -69.5 -32.5 -129.5c0 -60.667 10.833 -104.5 32.5 -131.5
s57.167 -40.5 106.5 -40.5c22 0 42.333 0.833008 61 2.5s38.334 4.83398 59.001 9.50098v-105c-14.667 -3.33301 -31.667 -6.33301 -51 -9s-39.333 -4.33398 -60 -5.00098c13.333 -20.667 22.666 -38.667 27.999 -54s8 -31.333 8 -48c0 -34.667 -10.667 -61.667 -32 -81
s-51 -29 -89 -29z" />
    <glyph glyph-name="egrave" unicode="&#xe8;" horiz-adv-x="540" 
d="M293 -9c-84.667 0 -148.333 22.832 -191 68.499s-64 113.834 -64 204.501c0 93.333 21.333 164.166 64 212.499s105.667 72.5 189 72.5c141.333 0 212 -80.667 212 -242c0 -17.333 -0.5 -31.833 -1.5 -43.5s-2.5 -23.167 -4.5 -34.5h-327
c2 -25.333 5.83301 -46.666 11.5 -63.999s13.834 -31.333 24.501 -42s24 -18.334 40 -23.001s35.333 -7 58 -7c25.333 0 53.666 2.33301 84.999 7s61 11.334 89 20.001l5 -98c-27.333 -9.33301 -57.833 -16.833 -91.5 -22.5s-66.5 -8.5 -98.5 -8.5zM286.001 452.999
c-36.667 0 -64.333 -11.5 -83 -34.5s-29.667 -59.833 -33 -110.5h216c-1.33301 52 -9.83301 89.167 -25.5 111.5s-40.5 33.5 -74.5 33.5zM227.002 610.999l-110 195h138l68 -185z" />
    <glyph glyph-name="eacute" unicode="&#xe9;" horiz-adv-x="540" 
d="M239 617l68 187h135l-109 -195zM293 -9c-84.667 0 -148.333 22.832 -191 68.499s-64 113.834 -64 204.501c0 93.333 21.333 164.166 64 212.499s105.667 72.5 189 72.5c141.333 0 212 -80.667 212 -242c0 -17.333 -0.5 -31.833 -1.5 -43.5s-2.5 -23.167 -4.5 -34.5h-327
c2 -25.333 5.83301 -46.666 11.5 -63.999s13.834 -31.333 24.501 -42s24 -18.334 40 -23.001s35.333 -7 58 -7c25.333 0 53.666 2.33301 84.999 7s61 11.334 89 20.001l5 -98c-27.333 -9.33301 -57.833 -16.833 -91.5 -22.5s-66.5 -8.5 -98.5 -8.5zM286.001 452.999
c-36.667 0 -64.333 -11.5 -83 -34.5s-29.667 -59.833 -33 -110.5h216c-1.33301 52 -9.83301 89.167 -25.5 111.5s-40.5 33.5 -74.5 33.5z" />
    <glyph glyph-name="ecircumflex" unicode="&#xea;" horiz-adv-x="540" 
d="M110 713l173 75l174 -75v-93l-174 74l-173 -74v93zM293 -9c-84.667 0 -148.333 22.832 -191 68.499s-64 113.834 -64 204.501c0 93.333 21.333 164.166 64 212.499s105.667 72.5 189 72.5c141.333 0 212 -80.667 212 -242c0 -17.333 -0.5 -31.833 -1.5 -43.5
s-2.5 -23.167 -4.5 -34.5h-327c2 -25.333 5.83301 -46.666 11.5 -63.999s13.834 -31.333 24.501 -42s24 -18.334 40 -23.001s35.333 -7 58 -7c25.333 0 53.666 2.33301 84.999 7s61 11.334 89 20.001l5 -98c-27.333 -9.33301 -57.833 -16.833 -91.5 -22.5
s-66.5 -8.5 -98.5 -8.5zM286.001 452.999c-36.667 0 -64.333 -11.5 -83 -34.5s-29.667 -59.833 -33 -110.5h216c-1.33301 52 -9.83301 89.167 -25.5 111.5s-40.5 33.5 -74.5 33.5z" />
    <glyph glyph-name="edieresis" unicode="&#xeb;" horiz-adv-x="540" 
d="M158 629c-23.333 0 -40.667 5.33301 -52 16s-17 27.667 -17 51s5.66699 40.333 17 51s28.666 16 51.999 16c46 0 69 -22.333 69 -67c0 -23.333 -5.66699 -40.333 -17 -51s-28.666 -16 -51.999 -16zM397.999 629c-24 0 -41.5 5.33301 -52.5 16s-16.5 27.667 -16.5 51
s5.5 40.333 16.5 51s28.5 16 52.5 16c45.333 0 68 -22.333 68 -67c0 -23.333 -5.5 -40.333 -16.5 -51s-28.167 -16 -51.5 -16zM292.999 -9c-84.667 0 -148.333 22.832 -191 68.499s-64 113.834 -64 204.501c0 93.333 21.333 164.166 64 212.499s105.667 72.5 189 72.5
c141.333 0 212 -80.667 212 -242c0 -17.333 -0.5 -31.833 -1.5 -43.5s-2.5 -23.167 -4.5 -34.5h-327c2 -25.333 5.83301 -46.666 11.5 -63.999s13.834 -31.333 24.501 -42s24 -18.334 40 -23.001s35.333 -7 58 -7c25.333 0 53.666 2.33301 84.999 7s61 11.334 89 20.001
l5 -98c-27.333 -9.33301 -57.833 -16.833 -91.5 -22.5s-66.5 -8.5 -98.5 -8.5zM286 452.999c-36.667 0 -64.333 -11.5 -83 -34.5s-29.667 -59.833 -33 -110.5h216c-1.33301 52 -9.83301 89.167 -25.5 111.5s-40.5 33.5 -74.5 33.5z" />
    <glyph glyph-name="igrave" unicode="&#xec;" horiz-adv-x="258" 
d="M63 540h132v-540h-132v540zM79 611l-110 195h138l68 -185z" />
    <glyph glyph-name="iacute" unicode="&#xed;" horiz-adv-x="258" 
d="M84 617l68 187h135l-109 -195zM63 540h132v-540h-132v540z" />
    <glyph glyph-name="icircumflex" unicode="&#xee;" horiz-adv-x="259" 
d="M-32 713l166 75l169 -75v-93l-168 74l-167 -74v93zM64 540h132v-540h-132v540z" />
    <glyph glyph-name="idieresis" unicode="&#xef;" horiz-adv-x="259" 
d="M19 629c-23.333 0 -40.667 5.33301 -52 16s-17 27.667 -17 51s5.66699 40.333 17 51s28.666 16 51.999 16c46 0 69 -22.333 69 -67c0 -23.333 -5.66699 -40.333 -17 -51s-28.666 -16 -51.999 -16zM245.999 629c-24 0 -41.5 5.33301 -52.5 16s-16.5 27.667 -16.5 51
s5.5 40.333 16.5 51s28.5 16 52.5 16c45.333 0 68 -22.333 68 -67c0 -23.333 -5.5 -40.333 -16.5 -51s-28.167 -16 -51.5 -16zM63.999 540h132v-540h-132v540z" />
    <glyph glyph-name="eth" unicode="&#xf0;" horiz-adv-x="597" 
d="M199 694l112.998 12.001c-24 36 -50.333 70 -79 102h135l30 -42c10.667 -14.667 21.334 -30.667 32.001 -48l144 16v-83l-102 -11c22.667 -47.333 41.667 -100 57 -158s23 -121.667 23 -191c0 -99.333 -22 -174.333 -66 -225s-108 -76 -192 -76
c-83.333 0 -147 23.667 -191 71s-66 116.666 -66 207.999s21.667 161 65 209s105 72 185 72c26.667 0 49.834 -4.33301 69.501 -13s37.167 -22.667 52.5 -42c-13.333 46 -30.333 90 -51 132l-159 -17v84zM294.998 93.001c44.667 0 76.501 13.834 95.501 41.501
s28.5 74.5 28.5 140.5c0 53.333 -9.33301 95.333 -28 126s-51.334 46 -98.001 46c-44.667 0 -76.334 -13.333 -95.001 -40s-28 -72.334 -28 -137.001c0 -32.667 2.33301 -60.167 7 -82.5s12 -40.5 22 -54.5s22.833 -24.167 38.5 -30.5s34.834 -9.5 57.501 -9.5z" />
    <glyph glyph-name="ntilde" unicode="&#xf1;" horiz-adv-x="596" 
d="M63 540h111l7 -61h6c47.333 25.333 87 43.5 119 54.5s62.667 16.5 92 16.5c44 0 78 -12.5 102 -37.5s36 -61.5 36 -109.5v-403h-131v359c0 30 -5.5 51.167 -16.5 63.5s-27.5 18.5 -49.5 18.5c-19.333 0 -41.5 -4 -66.5 -12s-50.833 -18.667 -77.5 -32v-397h-132v540z
M100 666c19.333 32 41 56 65 72s47.667 24 71 24c15.333 0 30.166 -2.33301 44.499 -7s28.333 -9.83398 42 -15.501s27.334 -10.834 41.001 -15.501s27.834 -7 42.501 -7c14 0 27.5 3 40.5 9s26.5 16 40.5 30l28 -32c-18.667 -32 -40.334 -56.167 -65.001 -72.5
s-49 -24.5 -73 -24.5c-14.667 0 -29 2.33301 -43 7s-28 9.83398 -42 15.501s-28 10.834 -42 15.501s-28 7 -42 7s-27.5 -3 -40.5 -9s-26.5 -15.667 -40.5 -29z" />
    <glyph glyph-name="ograve" unicode="&#xf2;" horiz-adv-x="589" 
d="M295 -10c-84.667 0 -148.834 23.833 -192.501 71.5s-65.5 117.167 -65.5 208.5s21.833 160.833 65.5 208.5s107.834 71.5 192.501 71.5c84 0 147.833 -23.833 191.5 -71.5s65.5 -117.167 65.5 -208.5s-21.833 -160.833 -65.5 -208.5s-107.5 -71.5 -191.5 -71.5zM295 93
c22 0 40.833 3.16699 56.5 9.5s28.5 16.5 38.5 30.5s17.333 32.167 22 54.5s7 49.833 7 82.5s-2.33301 60.167 -7 82.5s-12 40.5 -22 54.5s-22.833 24.167 -38.5 30.5s-34.5 9.5 -56.5 9.5c-22.667 0 -41.834 -3.16699 -57.501 -9.5s-28.5 -16.5 -38.5 -30.5
s-17.333 -32.167 -22 -54.5s-7 -49.833 -7 -82.5s2.33301 -60.167 7 -82.5s12 -40.5 22 -54.5s22.833 -24.167 38.5 -30.5s34.834 -9.5 57.501 -9.5zM239 611l-110 195h138l68 -185z" />
    <glyph glyph-name="oacute" unicode="&#xf3;" horiz-adv-x="589" 
d="M242 617l68 187h135l-109 -195zM295 -10c-84.667 0 -148.834 23.833 -192.501 71.5s-65.5 117.167 -65.5 208.5s21.833 160.833 65.5 208.5s107.834 71.5 192.501 71.5c84 0 147.833 -23.833 191.5 -71.5s65.5 -117.167 65.5 -208.5s-21.833 -160.833 -65.5 -208.5
s-107.5 -71.5 -191.5 -71.5zM295 93c22 0 40.833 3.16699 56.5 9.5s28.5 16.5 38.5 30.5s17.333 32.167 22 54.5s7 49.833 7 82.5s-2.33301 60.167 -7 82.5s-12 40.5 -22 54.5s-22.833 24.167 -38.5 30.5s-34.5 9.5 -56.5 9.5c-22.667 0 -41.834 -3.16699 -57.501 -9.5
s-28.5 -16.5 -38.5 -30.5s-17.333 -32.167 -22 -54.5s-7 -49.833 -7 -82.5s2.33301 -60.167 7 -82.5s12 -40.5 22 -54.5s22.833 -24.167 38.5 -30.5s34.834 -9.5 57.501 -9.5z" />
    <glyph glyph-name="ocircumflex" unicode="&#xf4;" horiz-adv-x="589" 
d="M121 713l173 75l174 -75v-93l-174 74l-173 -74v93zM295 -10c-84.667 0 -148.834 23.833 -192.501 71.5s-65.5 117.167 -65.5 208.5s21.833 160.833 65.5 208.5s107.834 71.5 192.501 71.5c84 0 147.833 -23.833 191.5 -71.5s65.5 -117.167 65.5 -208.5
s-21.833 -160.833 -65.5 -208.5s-107.5 -71.5 -191.5 -71.5zM295 93c22 0 40.833 3.16699 56.5 9.5s28.5 16.5 38.5 30.5s17.333 32.167 22 54.5s7 49.833 7 82.5s-2.33301 60.167 -7 82.5s-12 40.5 -22 54.5s-22.833 24.167 -38.5 30.5s-34.5 9.5 -56.5 9.5
c-22.667 0 -41.834 -3.16699 -57.501 -9.5s-28.5 -16.5 -38.5 -30.5s-17.333 -32.167 -22 -54.5s-7 -49.833 -7 -82.5s2.33301 -60.167 7 -82.5s12 -40.5 22 -54.5s22.833 -24.167 38.5 -30.5s34.834 -9.5 57.501 -9.5z" />
    <glyph glyph-name="otilde" unicode="&#xf5;" horiz-adv-x="589" 
d="M295 -10c-84.667 0 -148.834 23.833 -192.501 71.5s-65.5 117.167 -65.5 208.5s21.833 160.833 65.5 208.5s107.834 71.5 192.501 71.5c84 0 147.833 -23.833 191.5 -71.5s65.5 -117.167 65.5 -208.5s-21.833 -160.833 -65.5 -208.5s-107.5 -71.5 -191.5 -71.5zM295 93
c22 0 40.833 3.16699 56.5 9.5s28.5 16.5 38.5 30.5s17.333 32.167 22 54.5s7 49.833 7 82.5s-2.33301 60.167 -7 82.5s-12 40.5 -22 54.5s-22.833 24.167 -38.5 30.5s-34.5 9.5 -56.5 9.5c-22.667 0 -41.834 -3.16699 -57.501 -9.5s-28.5 -16.5 -38.5 -30.5
s-17.333 -32.167 -22 -54.5s-7 -49.833 -7 -82.5s2.33301 -60.167 7 -82.5s12 -40.5 22 -54.5s22.833 -24.167 38.5 -30.5s34.834 -9.5 57.501 -9.5zM89 666c19.333 32 41 56 65 72s47.667 24 71 24c15.333 0 30.166 -2.33301 44.499 -7s28.333 -9.83398 42 -15.501
s27.334 -10.834 41.001 -15.501s27.834 -7 42.501 -7c14 0 27.5 3 40.5 9s26.5 16 40.5 30l28 -32c-18.667 -32 -40.334 -56.167 -65.001 -72.5s-49 -24.5 -73 -24.5c-14.667 0 -29 2.33301 -43 7s-28 9.83398 -42 15.501s-28 10.834 -42 15.501s-28 7 -42 7
s-27.5 -3 -40.5 -9s-26.5 -15.667 -40.5 -29z" />
    <glyph glyph-name="odieresis" unicode="&#xf6;" horiz-adv-x="589" 
d="M172 629c-23.333 0 -40.667 5.33301 -52 16s-17 27.667 -17 51s5.66699 40.333 17 51s28.666 16 51.999 16c46 0 69 -22.333 69 -67c0 -23.333 -5.66699 -40.333 -17 -51s-28.666 -16 -51.999 -16zM411.999 629c-24 0 -41.5 5.33301 -52.5 16s-16.5 27.667 -16.5 51
s5.5 40.333 16.5 51s28.5 16 52.5 16c45.333 0 68 -22.333 68 -67c0 -23.333 -5.5 -40.333 -16.5 -51s-28.167 -16 -51.5 -16zM294.999 -10c-84.667 0 -148.834 23.833 -192.501 71.5s-65.5 117.167 -65.5 208.5s21.833 160.833 65.5 208.5s107.834 71.5 192.501 71.5
c84 0 147.833 -23.833 191.5 -71.5s65.5 -117.167 65.5 -208.5s-21.833 -160.833 -65.5 -208.5s-107.5 -71.5 -191.5 -71.5zM294.999 93c22 0 40.833 3.16699 56.5 9.5s28.5 16.5 38.5 30.5s17.333 32.167 22 54.5s7 49.833 7 82.5s-2.33301 60.167 -7 82.5
s-12 40.5 -22 54.5s-22.833 24.167 -38.5 30.5s-34.5 9.5 -56.5 9.5c-22.667 0 -41.834 -3.16699 -57.501 -9.5s-28.5 -16.5 -38.5 -30.5s-17.333 -32.167 -22 -54.5s-7 -49.833 -7 -82.5s2.33301 -60.167 7 -82.5s12 -40.5 22 -54.5s22.833 -24.167 38.5 -30.5
s34.834 -9.5 57.501 -9.5z" />
    <glyph glyph-name="divide" unicode="&#xf7;" horiz-adv-x="519" 
d="M262 135c-17.333 0 -31.666 5 -42.999 15s-17 25.333 -17 46c0 20 5.66699 35 17 45s25.666 15 42.999 15c18 0 32.667 -5 44 -15s17 -25 17 -45c0 -20.667 -5.66699 -36 -17 -46s-26 -15 -44 -15zM47 415h426v-90h-426v90zM262 480
c-17.333 0 -31.666 5.16699 -42.999 15.5s-17 25.166 -17 44.499c0 20.667 5.66699 36.167 17 46.5s25.666 15.5 42.999 15.5c18 0 32.667 -5.33301 44 -16s17 -26 17 -46c0 -19.333 -5.66699 -34.166 -17 -44.499s-26 -15.5 -44 -15.5z" />
    <glyph glyph-name="oslash" unicode="&#xf8;" horiz-adv-x="595" 
d="M87 85c-30.667 46.667 -45.999 108.333 -45.999 185c0 89.333 21.167 158.333 63.5 207s106.833 73 193.5 73c65.333 0 118.666 -14.667 159.999 -44l30 34h94l-75 -85c32 -46 48 -107.667 48 -185c0 -90 -21.333 -159.167 -64 -207.5s-107 -72.5 -193 -72.5
c-67.333 0 -121.333 15 -162 45l-30 -35h-94zM298.001 92.999c24 0 44 3.33398 60 10.001s28.667 17 38 31s16 32.167 20 54.5s6 49.5 6 81.5c0 31.333 -2 58.666 -6 81.999l-205 -233c19.333 -17.333 48.333 -26 87 -26zM173.001 270c0 -32 1.99902 -59 5.99902 -81
l204 232c-18 17.333 -46.333 26 -85 26c-24 0 -44.167 -3.33301 -60.5 -10s-29.166 -17 -38.499 -31s-16 -32.167 -20 -54.5s-6 -49.5 -6 -81.5z" />
    <glyph glyph-name="ugrave" unicode="&#xf9;" horiz-adv-x="596" 
d="M202 -10c-46.667 0 -82.167 12.668 -106.5 38.001s-36.5 61.666 -36.5 108.999v403h132v-363c0 -28.667 5 -49.167 15 -61.5s27 -18.5 51 -18.5c22 0 45.167 4.5 69.5 13.5s49.166 20.167 74.499 33.5v396h132v-540h-111l-8 61h-4c-23.333 -13.333 -44 -24.5 -62 -33.5
s-34.667 -16.167 -50 -21.5s-30.666 -9.33301 -45.999 -12s-32 -4 -50 -4zM243 611.001l-110 195h138l68 -185z" />
    <glyph glyph-name="uacute" unicode="&#xfa;" horiz-adv-x="596" 
d="M245 617l68 187h135l-109 -195zM202 -10c-46.667 0 -82.167 12.668 -106.5 38.001s-36.5 61.666 -36.5 108.999v403h132v-363c0 -28.667 5 -49.167 15 -61.5s27 -18.5 51 -18.5c22 0 45.167 4.5 69.5 13.5s49.166 20.167 74.499 33.5v396h132v-540h-111l-8 61h-4
c-23.333 -13.333 -44 -24.5 -62 -33.5s-34.667 -16.167 -50 -21.5s-30.666 -9.33301 -45.999 -12s-32 -4 -50 -4z" />
    <glyph glyph-name="ucircumflex" unicode="&#xfb;" horiz-adv-x="596" 
d="M126 713l173 75l174 -75v-93l-174 74l-173 -74v93zM202 -10c-46.667 0 -82.167 12.668 -106.5 38.001s-36.5 61.666 -36.5 108.999v403h132v-363c0 -28.667 5 -49.167 15 -61.5s27 -18.5 51 -18.5c22 0 45.167 4.5 69.5 13.5s49.166 20.167 74.499 33.5v396h132v-540
h-111l-8 61h-4c-23.333 -13.333 -44 -24.5 -62 -33.5s-34.667 -16.167 -50 -21.5s-30.666 -9.33301 -45.999 -12s-32 -4 -50 -4z" />
    <glyph glyph-name="udieresis" unicode="&#xfc;" horiz-adv-x="596" 
d="M176 629c-23.333 0 -40.667 5.33301 -52 16s-17 27.667 -17 51s5.66699 40.333 17 51s28.666 16 51.999 16c46 0 69 -22.333 69 -67c0 -23.333 -5.66699 -40.333 -17 -51s-28.666 -16 -51.999 -16zM415.999 629c-24 0 -41.5 5.33301 -52.5 16s-16.5 27.667 -16.5 51
s5.5 40.333 16.5 51s28.5 16 52.5 16c45.333 0 68 -22.333 68 -67c0 -23.333 -5.5 -40.333 -16.5 -51s-28.167 -16 -51.5 -16zM201.999 -10c-46.667 0 -82.167 12.668 -106.5 38.001s-36.5 61.666 -36.5 108.999v403h132v-363c0 -28.667 5 -49.167 15 -61.5
s27 -18.5 51 -18.5c22 0 45.167 4.5 69.5 13.5s49.166 20.167 74.499 33.5v396h132v-540h-111l-8 61h-4c-23.333 -13.333 -44 -24.5 -62 -33.5s-34.667 -16.167 -50 -21.5s-30.666 -9.33301 -45.999 -12s-32 -4 -50 -4z" />
    <glyph glyph-name="yacute" unicode="&#xfd;" horiz-adv-x="569" 
d="M144 -199v10l74 194l-210 522v13h139l111 -319l22 -84h8l23 84l113 319h137v-13l-291 -747zM240 617l68 187h135l-109 -195z" />
    <glyph glyph-name="thorn" unicode="&#xfe;" horiz-adv-x="596" 
d="M62 808l131.998 -0.000976562v-321c18 19.333 40.5 34.5 67.5 45.5s58.5 16.5 94.5 16.5c68.667 0 119.334 -21.833 152.001 -65.5s49 -111.167 49 -202.5c0 -95.333 -22.667 -167.666 -68 -216.999s-115.666 -74 -210.999 -74c-10.667 0 -23.667 0.833008 -39 2.5
s-30.333 3.5 -45 5.5v-218h-132v1028zM278.998 79.999c26 0 48.3359 2.66699 67.0029 8s33.667 15 45 29s19.666 33.167 24.999 57.5s8 55.5 8 93.5c0 36.667 -2.16699 67 -6.5 91s-11 43 -20 57s-20.667 23.833 -35 29.5s-31.5 8.5 -51.5 8.5
c-40.667 0 -70.334 -13.333 -89.001 -40s-28 -69.667 -28 -129v-191c15.333 -4.66699 30.666 -8.16699 45.999 -10.5s28.333 -3.5 39 -3.5z" />
    <glyph glyph-name="ydieresis" unicode="&#xff;" horiz-adv-x="569" 
d="M144 -199v10l74 194l-210 522v13h139l111 -319l22 -84h8l23 84l113 319h137v-13l-291 -747zM167 629c-23.333 0 -40.667 5.33301 -52 16s-17 27.667 -17 51s5.66699 40.333 17 51s28.666 16 51.999 16c46 0 69 -22.333 69 -67c0 -23.333 -5.66699 -40.333 -17 -51
s-28.666 -16 -51.999 -16zM406.999 629c-24 0 -41.5 5.33301 -52.5 16s-16.5 27.667 -16.5 51s5.5 40.333 16.5 51s28.5 16 52.5 16c45.333 0 68 -22.333 68 -67c0 -23.333 -5.5 -40.333 -16.5 -51s-28.167 -16 -51.5 -16z" />
    <glyph glyph-name="Amacron" unicode="&#x100;" horiz-adv-x="675" 
d="M2 8l235 732h201l234 -732v-8h-129l-64 196h-284l-63 -196h-130v8zM449 303l-67 210l-39 129h-12l-39 -130l-66 -209h223zM167 931h337v-91h-337v91z" />
    <glyph glyph-name="amacron" unicode="&#x101;" horiz-adv-x="537" 
d="M178 -5c-47.333 0 -83.835 13.1689 -109.502 39.502s-38.5 63.166 -38.5 110.499c0 52.667 16.333 92.834 49 120.501s83.334 44.167 152.001 49.5l116 8v21c0 20 -1.66699 36.833 -5 50.5s-9.33301 24.667 -18 33s-20.167 14.166 -34.5 17.499s-32.833 5 -55.5 5
c-10.667 0 -22.5 -0.5 -35.5 -1.5s-26.5 -2.16699 -40.5 -3.5s-28 -3 -42 -5s-27.333 -4.33301 -40 -7l-9 95c34 6.66699 66.667 11.5 98 14.5s61.666 4.5 90.999 4.5c76.667 0 132.834 -14.333 168.501 -43s53.5 -73.334 53.5 -134.001v-370h-108l-12 66h-8
c-25.333 -22 -52.666 -39.333 -81.999 -52s-59.333 -19 -90 -19zM230.998 90.002c18.667 0 38.333 4.83203 59 14.499s39.667 20.167 57 31.5v111l-80 -7c-38 -3.33301 -64.833 -11.166 -80.5 -23.499s-23.5 -31.5 -23.5 -57.5c0 -46 22.667 -69 68 -69zM102.997 728.001
h342v-88h-342v88z" />
    <glyph glyph-name="Abreve" unicode="&#x102;" horiz-adv-x="675" 
d="M2 8l235 732h201l234 -732v-8h-129l-64 196h-284l-63 -196h-130v8zM449 303l-67 210l-39 129h-12l-39 -130l-66 -209h223zM338 807c-65.333 0 -113.333 15.168 -144 45.501s-46 70.166 -46 119.499h92c0 -32 7.5 -56 22.5 -72s40.167 -24 75.5 -24s60.5 8 75.5 24
s22.5 40 22.5 72h93c0 -50 -15.5 -90 -46.5 -120s-79.167 -45 -144.5 -45z" />
    <glyph glyph-name="abreve" unicode="&#x103;" horiz-adv-x="537" 
d="M178 -5c-47.333 0 -83.835 13.1689 -109.502 39.502s-38.5 63.166 -38.5 110.499c0 52.667 16.333 92.834 49 120.501s83.334 44.167 152.001 49.5l116 8v21c0 20 -1.66699 36.833 -5 50.5s-9.33301 24.667 -18 33s-20.167 14.166 -34.5 17.499s-32.833 5 -55.5 5
c-10.667 0 -22.5 -0.5 -35.5 -1.5s-26.5 -2.16699 -40.5 -3.5s-28 -3 -42 -5s-27.333 -4.33301 -40 -7l-9 95c34 6.66699 66.667 11.5 98 14.5s61.666 4.5 90.999 4.5c76.667 0 132.834 -14.333 168.501 -43s53.5 -73.334 53.5 -134.001v-370h-108l-12 66h-8
c-25.333 -22 -52.666 -39.333 -81.999 -52s-59.333 -19 -90 -19zM230.998 90.002c18.667 0 38.333 4.83203 59 14.499s39.667 20.167 57 31.5v111l-80 -7c-38 -3.33301 -64.833 -11.166 -80.5 -23.499s-23.5 -31.5 -23.5 -57.5c0 -46 22.667 -69 68 -69zM270.997 615.001
c-65.333 0 -113.169 14.5 -143.502 43.5s-45.833 68.167 -46.5 117.5h91c0.666992 -60.667 33.667 -91 99 -91c66 0 99 30.333 99 91h92c-1.33301 -49.333 -17.166 -88.5 -47.499 -117.5s-78.166 -43.5 -143.499 -43.5z" />
    <glyph glyph-name="Aogonek" unicode="&#x104;" horiz-adv-x="674" 
d="M594 -220c-81.333 0 -122.001 30.332 -122.001 90.999c0 24 7.33301 46.5 22 67.5s38 41.5 70 61.5h-21l-64 196h-284l-63 -196h-130v8l235 732h201l234 -732v-20c-40 -17.333 -68.667 -34.666 -86 -51.999s-26 -34 -26 -50c0 -20 13 -30 39 -30
c10 0 21.833 1.16699 35.5 3.5s26.5 5.5 38.5 9.5v-77c-25.333 -8 -51.666 -12 -78.999 -12zM448.999 302.999l-67 210l-39 129h-12l-39 -130l-66 -209h223z" />
    <glyph glyph-name="aogonek" unicode="&#x105;" horiz-adv-x="537" 
d="M400 -220c-81.333 0 -122.003 30.334 -122.003 91.001c0 24 7.33301 46.5 22 67.5s38 41.5 70 61.5l-12 66h-8c-25.333 -22 -52.666 -39.333 -81.999 -52s-59.333 -19 -90 -19c-47.333 0 -83.833 13.167 -109.5 39.5s-38.5 63.166 -38.5 110.499
c0 52.667 16.333 92.834 49 120.501s83.334 44.167 152.001 49.5l116 8v21c0 20 -1.66699 36.833 -5 50.5s-9.33301 24.667 -18 33s-20.167 14.166 -34.5 17.499s-32.833 5 -55.5 5c-10.667 0 -22.5 -0.5 -35.5 -1.5s-26.5 -2.16699 -40.5 -3.5s-28 -3 -42 -5
s-27.333 -4.33301 -40 -7l-9 95c34 6.66699 66.667 11.5 98 14.5s61.666 4.5 90.999 4.5c76.667 0 132.834 -14.333 168.501 -43s53.5 -73.334 53.5 -134.001v-382c-40 -17.333 -68.667 -34.666 -86 -51.999s-26 -34 -26 -50c0 -20 13 -30 39 -30
c10 0 21.833 1.16699 35.5 3.5s26.5 5.5 38.5 9.5v-77c-25.333 -8 -51.666 -12 -78.999 -12zM230.997 90.001c18.667 0 38.333 4.83203 59 14.499s39.667 20.167 57 31.5v111l-80 -7c-38 -3.33301 -64.833 -11.166 -80.5 -23.499s-23.5 -31.5 -23.5 -57.5
c0 -46 22.667 -69 68 -69z" />
    <glyph glyph-name="Cacute" unicode="&#x106;" horiz-adv-x="565" 
d="M381 -10c-115.333 0 -200.835 30.8311 -256.502 92.498s-83.5 157.167 -83.5 286.5c0 130.667 27.5 226.834 82.5 288.501s138.833 92.5 251.5 92.5c44.667 0 97 -5 157 -15v-109c-30 4.66699 -56 8 -78 10s-42.333 3 -61 3c-39.333 0 -72.5 -4.66699 -99.5 -14
s-49 -24.5 -66 -45.5s-29.333 -48.667 -37 -83s-11.5 -76.833 -11.5 -127.5c0 -49.333 3.83301 -91 11.5 -125s19.834 -61.5 36.501 -82.5s38.334 -36.167 65.001 -45.5s58.667 -14 96 -14c10 0 21.333 0.333008 34 1s25.5 1.66699 38.5 3s25.833 2.83301 38.5 4.5
s23.667 3.5 33 5.5v-108c-21.333 -5.33301 -45.5 -9.66602 -72.5 -12.999s-53.167 -5 -78.5 -5zM272.998 803.998l70 159h136l-109 -166z" />
    <glyph glyph-name="cacute" unicode="&#x107;" horiz-adv-x="469" 
d="M220 617l68 187h135l-109 -195zM298 -9c-87.333 0 -152.501 22.667 -195.501 68s-64.5 115.666 -64.5 210.999c0 186 86.667 279 260 279c22.667 0 45.5 -1.16699 68.5 -3.5s44.167 -6.16602 63.5 -11.499v-106c-42 8 -81.667 12 -119 12
c-50 0 -85.833 -13.167 -107.5 -39.5s-32.5 -69.5 -32.5 -129.5c0 -60.667 10.833 -104.5 32.5 -131.5s57.167 -40.5 106.5 -40.5c22 0 42.333 0.833008 61 2.5s38.334 4.83398 59.001 9.50098v-105c-17.333 -4.66699 -37.833 -8.33398 -61.5 -11.001s-47.167 -4 -70.5 -4z
" />
    <glyph glyph-name="Ccircumflex" unicode="&#x108;" horiz-adv-x="565" 
d="M381 -10c-115.333 0 -200.835 30.8311 -256.502 92.498s-83.5 157.167 -83.5 286.5c0 130.667 27.5 226.834 82.5 288.501s138.833 92.5 251.5 92.5c44.667 0 97 -5 157 -15v-109c-30 4.66699 -56 8 -78 10s-42.333 3 -61 3c-39.333 0 -72.5 -4.66699 -99.5 -14
s-49 -24.5 -66 -45.5s-29.333 -48.667 -37 -83s-11.5 -76.833 -11.5 -127.5c0 -49.333 3.83301 -91 11.5 -125s19.834 -61.5 36.501 -82.5s38.334 -36.167 65.001 -45.5s58.667 -14 96 -14c10 0 21.333 0.333008 34 1s25.5 1.66699 38.5 3s25.833 2.83301 38.5 4.5
s23.667 3.5 33 5.5v-108c-21.333 -5.33301 -45.5 -9.66602 -72.5 -12.999s-53.167 -5 -78.5 -5zM153.998 897.998l173 74l174 -74v-94l-173 74l-174 -74v94z" />
    <glyph glyph-name="ccircumflex" unicode="&#x109;" horiz-adv-x="469" 
d="M95 713l173 75l174 -75v-93l-174 74l-173 -74v93zM298 -9c-87.333 0 -152.501 22.667 -195.501 68s-64.5 115.666 -64.5 210.999c0 186 86.667 279 260 279c22.667 0 45.5 -1.16699 68.5 -3.5s44.167 -6.16602 63.5 -11.499v-106c-42 8 -81.667 12 -119 12
c-50 0 -85.833 -13.167 -107.5 -39.5s-32.5 -69.5 -32.5 -129.5c0 -60.667 10.833 -104.5 32.5 -131.5s57.167 -40.5 106.5 -40.5c22 0 42.333 0.833008 61 2.5s38.334 4.83398 59.001 9.50098v-105c-17.333 -4.66699 -37.833 -8.33398 -61.5 -11.001s-47.167 -4 -70.5 -4z
" />
    <glyph glyph-name="Cdotaccent" unicode="&#x10a;" horiz-adv-x="565" 
d="M335 804c-26.667 0 -46 5.83301 -58 17.5s-18 30.5 -18 56.5s6 45 18 57s31.333 18 58 18c51.333 0 77 -25 77 -75c0 -49.333 -25.667 -74 -77 -74zM381 -10c-115.333 0 -200.835 30.8311 -256.502 92.498s-83.5 157.167 -83.5 286.5
c0 130.667 27.5 226.834 82.5 288.501s138.833 92.5 251.5 92.5c44.667 0 97 -5 157 -15v-109c-30 4.66699 -56 8 -78 10s-42.333 3 -61 3c-39.333 0 -72.5 -4.66699 -99.5 -14s-49 -24.5 -66 -45.5s-29.333 -48.667 -37 -83s-11.5 -76.833 -11.5 -127.5
c0 -49.333 3.83301 -91 11.5 -125s19.834 -61.5 36.501 -82.5s38.334 -36.167 65.001 -45.5s58.667 -14 96 -14c10 0 21.333 0.333008 34 1s25.5 1.66699 38.5 3s25.833 2.83301 38.5 4.5s23.667 3.5 33 5.5v-108c-21.333 -5.33301 -45.5 -9.66602 -72.5 -12.999
s-53.167 -5 -78.5 -5z" />
    <glyph glyph-name="cdotaccent" unicode="&#x10b;" horiz-adv-x="469" 
d="M298 -9c-87.333 0 -152.501 22.667 -195.501 68s-64.5 115.666 -64.5 210.999c0 186 86.667 279 260 279c22.667 0 45.5 -1.16699 68.5 -3.5s44.167 -6.16602 63.5 -11.499v-106c-42 8 -81.667 12 -119 12c-50 0 -85.833 -13.167 -107.5 -39.5s-32.5 -69.5 -32.5 -129.5
c0 -60.667 10.833 -104.5 32.5 -131.5s57.167 -40.5 106.5 -40.5c22 0 42.333 0.833008 61 2.5s38.334 4.83398 59.001 9.50098v-105c-17.333 -4.66699 -37.833 -8.33398 -61.5 -11.001s-47.167 -4 -70.5 -4zM262.999 622c-26 0 -45.167 5.83301 -57.5 17.5
s-18.5 30.5 -18.5 56.5s6.16699 44.833 18.5 56.5s31.5 17.5 57.5 17.5c51.333 0 77 -24.667 77 -74s-25.667 -74 -77 -74z" />
    <glyph glyph-name="Ccaron" unicode="&#x10c;" horiz-adv-x="565" 
d="M381 -10c-115.333 0 -200.835 30.8311 -256.502 92.498s-83.5 157.167 -83.5 286.5c0 130.667 27.5 226.834 82.5 288.501s138.833 92.5 251.5 92.5c44.667 0 97 -5 157 -15v-109c-30 4.66699 -56 8 -78 10s-42.333 3 -61 3c-39.333 0 -72.5 -4.66699 -99.5 -14
s-49 -24.5 -66 -45.5s-29.333 -48.667 -37 -83s-11.5 -76.833 -11.5 -127.5c0 -49.333 3.83301 -91 11.5 -125s19.834 -61.5 36.501 -82.5s38.334 -36.167 65.001 -45.5s58.667 -14 96 -14c10 0 21.333 0.333008 34 1s25.5 1.66699 38.5 3s25.833 2.83301 38.5 4.5
s23.667 3.5 33 5.5v-108c-21.333 -5.33301 -45.5 -9.66602 -72.5 -12.999s-53.167 -5 -78.5 -5zM157.998 967.998l174 -75l173 75v-94l-174 -75l-173 75v94z" />
    <glyph glyph-name="ccaron" unicode="&#x10d;" horiz-adv-x="469" 
d="M90 787l174 -75l173 75v-94l-174 -75l-173 75v94zM298 -9c-87.333 0 -152.501 22.667 -195.501 68s-64.5 115.666 -64.5 210.999c0 186 86.667 279 260 279c22.667 0 45.5 -1.16699 68.5 -3.5s44.167 -6.16602 63.5 -11.499v-106c-42 8 -81.667 12 -119 12
c-50 0 -85.833 -13.167 -107.5 -39.5s-32.5 -69.5 -32.5 -129.5c0 -60.667 10.833 -104.5 32.5 -131.5s57.167 -40.5 106.5 -40.5c22 0 42.333 0.833008 61 2.5s38.334 4.83398 59.001 9.50098v-105c-17.333 -4.66699 -37.833 -8.33398 -61.5 -11.001s-47.167 -4 -70.5 -4z
" />
    <glyph glyph-name="Dcaron" unicode="&#x10e;" horiz-adv-x="708" 
d="M165 968l174 -75l173 75v-94l-174 -75l-173 75v94zM261 -12c-33.333 0 -66.332 0.999023 -98.999 2.99902s-62 5 -88 9v737c43.333 4 83 7.16699 119 9.5s67.333 3.5 94 3.5c66.667 0 124 -7.33301 172 -22s87.5 -37.5 118.5 -68.5s53.833 -70.5 68.5 -118.5
s22 -105.333 22 -172c0 -67.333 -7.66699 -125.166 -23 -173.499s-39.333 -87.833 -72 -118.5s-74.834 -53.167 -126.501 -67.5s-113.5 -21.5 -185.5 -21.5zM308.001 96.999c40 0 73.999 4.83301 101.999 14.5s50.833 25.334 68.5 47.001s30.5 49.834 38.5 84.501
s12 77 12 127c0 49.333 -4 91.166 -12 125.499s-20.833 62.166 -38.5 83.499s-40.667 36.833 -69 46.5s-62.833 14.5 -103.5 14.5c-14.667 0 -30.5 -0.5 -47.5 -1.5s-34.167 -2.5 -51.5 -4.5v-529c19.333 -2.66699 36.833 -4.66699 52.5 -6s31.834 -2 48.501 -2z" />
    <glyph glyph-name="dcaron" unicode="&#x10f;" horiz-adv-x="597" 
d="M590 808h105l-36 -228h-69v228zM247 -10c-69.333 0 -121.5 22.168 -156.5 66.501s-52.5 112.166 -52.5 203.499c0 96.667 24 169.167 72 217.5s114.667 72.5 200 72.5c16 0 31.5 -0.833008 46.5 -2.5s30.5 -3.16699 46.5 -4.5v265h131v-808h-117l-10 62h-6
c-34 -48 -85.333 -72 -154 -72zM286 88.001c34 0 62 10.334 84 31.001s33 53 33 97v230c-14.667 3.33301 -30 5.83301 -46 7.5s-32.667 2.5 -50 2.5c-24 0 -44.667 -3.16699 -62 -9.5s-31.5 -16.833 -42.5 -31.5s-19 -33.667 -24 -57s-7.5 -52.333 -7.5 -87
c0 -66.667 8.83301 -113.834 26.5 -141.501s47.167 -41.5 88.5 -41.5z" />
    <glyph glyph-name="Dcroat" unicode="&#x110;" horiz-adv-x="726" 
d="M2 423l90.001 -0.000976562v314c43.333 4 83 7.16699 119 9.5s67.333 3.5 94 3.5c66.667 0 124 -7.33301 172 -22s87.5 -37.5 118.5 -68.5s53.833 -70.5 68.5 -118.5s22 -105.333 22 -172c0 -67.333 -7.66699 -125.166 -23 -173.499s-39.333 -87.833 -72 -118.5
s-74.834 -53.167 -126.501 -67.5s-113.5 -21.5 -185.5 -21.5c-33.333 0 -66.333 1 -99 3s-62 5 -88 9v320h-90v103zM326.001 96.999c40 0 73.999 4.83301 101.999 14.5s50.833 25.334 68.5 47.001s30.5 49.834 38.5 84.501s12 77 12 127c0 49.333 -4 91.166 -12 125.499
s-20.833 62.166 -38.5 83.499s-40.667 36.833 -69 46.5s-62.833 14.5 -103.5 14.5c-14.667 0 -30.5 -0.5 -47.5 -1.5s-34.167 -2.5 -51.5 -4.5v-211h136v-103h-136v-215c19.333 -2.66699 36.833 -4.66699 52.5 -6s31.834 -2 48.501 -2z" />
    <glyph glyph-name="dcroat" unicode="&#x111;" horiz-adv-x="597" 
d="M238 713l165 0.000976562v95h131v-95h72v-79h-72v-634h-117l-10 62h-6c-34 -48 -85.333 -72 -154 -72c-69.333 0 -121.5 22.167 -156.5 66.5s-52.5 112.166 -52.5 203.499c0 96.667 24 169.167 72 217.5s114.667 72.5 200 72.5c16 0 31.5 -0.833008 46.5 -2.5
s30.5 -3.16699 46.5 -4.5v91h-165v79zM286 88.001c34 0 62 10.334 84 31.001s33 53 33 97v230c-14.667 3.33301 -30 5.83301 -46 7.5s-32.667 2.5 -50 2.5c-24 0 -44.667 -3.16699 -62 -9.5s-31.5 -16.833 -42.5 -31.5s-19 -33.667 -24 -57s-7.5 -52.333 -7.5 -87
c0 -66.667 8.83301 -113.834 26.5 -141.501s47.167 -41.5 88.5 -41.5z" />
    <glyph glyph-name="Emacron" unicode="&#x112;" horiz-adv-x="603" 
d="M147 931h337v-91h-337v91zM74 740h481v-109h-347v-203h316v-110h-316v-209h356v-109h-490v740z" />
    <glyph glyph-name="emacron" unicode="&#x113;" horiz-adv-x="540" 
d="M293 -9c-84.667 0 -148.333 22.832 -191 68.499s-64 113.834 -64 204.501c0 93.333 21.333 164.166 64 212.499s105.667 72.5 189 72.5c141.333 0 212 -80.667 212 -242c0 -17.333 -0.5 -31.833 -1.5 -43.5s-2.5 -23.167 -4.5 -34.5h-327
c2 -25.333 5.83301 -46.666 11.5 -63.999s13.834 -31.333 24.501 -42s24 -18.334 40 -23.001s35.333 -7 58 -7c25.333 0 53.666 2.33301 84.999 7s61 11.334 89 20.001l5 -98c-27.333 -9.33301 -57.833 -16.833 -91.5 -22.5s-66.5 -8.5 -98.5 -8.5zM286.001 452.999
c-36.667 0 -64.333 -11.5 -83 -34.5s-29.667 -59.833 -33 -110.5h216c-1.33301 52 -9.83301 89.167 -25.5 111.5s-40.5 33.5 -74.5 33.5zM106.002 727.999h342v-88h-342v88z" />
    <glyph glyph-name="Ebreve" unicode="&#x114;" horiz-adv-x="603" 
d="M313 807c-65.333 0 -113.333 15.168 -144 45.501s-46 70.166 -46 119.499h92c0 -32 7.5 -56 22.5 -72s40.167 -24 75.5 -24s60.5 8 75.5 24s22.5 40 22.5 72h93c0 -50 -15.5 -90 -46.5 -120s-79.167 -45 -144.5 -45zM74 740.001h481v-109h-347v-203h316v-110h-316v-209
h356v-109h-490v740z" />
    <glyph glyph-name="ebreve" unicode="&#x115;" horiz-adv-x="540" 
d="M293 -9c-84.667 0 -148.333 22.832 -191 68.499s-64 113.834 -64 204.501c0 93.333 21.333 164.166 64 212.499s105.667 72.5 189 72.5c141.333 0 212 -80.667 212 -242c0 -17.333 -0.5 -31.833 -1.5 -43.5s-2.5 -23.167 -4.5 -34.5h-327
c2 -25.333 5.83301 -46.666 11.5 -63.999s13.834 -31.333 24.501 -42s24 -18.334 40 -23.001s35.333 -7 58 -7c25.333 0 53.666 2.33301 84.999 7s61 11.334 89 20.001l5 -98c-27.333 -9.33301 -57.833 -16.833 -91.5 -22.5s-66.5 -8.5 -98.5 -8.5zM286.001 452.999
c-36.667 0 -64.333 -11.5 -83 -34.5s-29.667 -59.833 -33 -110.5h216c-1.33301 52 -9.83301 89.167 -25.5 111.5s-40.5 33.5 -74.5 33.5zM277.002 614.999c-65.333 0 -113.169 14.5 -143.502 43.5s-45.833 68.167 -46.5 117.5h91c0.666992 -60.667 33.667 -91 99 -91
c66 0 99 30.333 99 91h92c-1.33301 -49.333 -17.166 -88.5 -47.499 -117.5s-78.166 -43.5 -143.499 -43.5z" />
    <glyph glyph-name="Edotaccent" unicode="&#x116;" horiz-adv-x="603" 
d="M313 804c-26.667 0 -46 5.83301 -58 17.5s-18 30.5 -18 56.5s6 45 18 57s31.333 18 58 18c51.333 0 77 -25 77 -75c0 -49.333 -25.667 -74 -77 -74zM74 740h481v-109h-347v-203h316v-110h-316v-209h356v-109h-490v740z" />
    <glyph glyph-name="edotaccent" unicode="&#x117;" horiz-adv-x="540" 
d="M293 -9c-84.667 0 -148.333 22.832 -191 68.499s-64 113.834 -64 204.501c0 93.333 21.333 164.166 64 212.499s105.667 72.5 189 72.5c141.333 0 212 -80.667 212 -242c0 -17.333 -0.5 -31.833 -1.5 -43.5s-2.5 -23.167 -4.5 -34.5h-327
c2 -25.333 5.83301 -46.666 11.5 -63.999s13.834 -31.333 24.501 -42s24 -18.334 40 -23.001s35.333 -7 58 -7c25.333 0 53.666 2.33301 84.999 7s61 11.334 89 20.001l5 -98c-27.333 -9.33301 -57.833 -16.833 -91.5 -22.5s-66.5 -8.5 -98.5 -8.5zM286.001 452.999
c-36.667 0 -64.333 -11.5 -83 -34.5s-29.667 -59.833 -33 -110.5h216c-1.33301 52 -9.83301 89.167 -25.5 111.5s-40.5 33.5 -74.5 33.5zM280.002 621.999c-26 0 -45.167 5.83301 -57.5 17.5s-18.5 30.5 -18.5 56.5s6.16699 44.833 18.5 56.5s31.5 17.5 57.5 17.5
c51.333 0 77 -24.667 77 -74s-25.667 -74 -77 -74z" />
    <glyph glyph-name="Eogonek" unicode="&#x118;" horiz-adv-x="603" 
d="M74 740l480.999 -0.000976562v-109h-347v-203h316v-110h-316v-209h356v-121c-40 -17.333 -68.667 -34.666 -86 -51.999s-26 -34 -26 -50c0 -20 13 -30 39 -30c10 0 21.833 1.16699 35.5 3.5s26.5 5.5 38.5 9.5v-77c-25.333 -8 -51.666 -12 -78.999 -12
c-81.333 0 -122 30.333 -122 91c0 24 7.33301 46.5 22 67.5s38 41.5 70 61.5h-382v740z" />
    <glyph glyph-name="eogonek" unicode="&#x119;" horiz-adv-x="540" 
d="M293 -9c-84.667 0 -148.333 22.8311 -191 68.498s-64 113.834 -64 204.501c0 93.333 21.333 164.166 64 212.499s105.667 72.5 189 72.5c141.333 0 212 -80.667 212 -242c0 -17.333 -0.5 -31.833 -1.5 -43.5s-2.5 -23.167 -4.5 -34.5h-327
c2 -25.333 5.83301 -46.666 11.5 -63.999s13.834 -31.333 24.501 -42s24 -18.334 40 -23.001s35.333 -7 58 -7c25.333 0 53.666 2.33301 84.999 7s61 11.334 89 20.001l5 -97v-12c-40 -17.333 -68.667 -34.666 -86 -51.999s-26 -34 -26 -50c0 -20 13 -30 39 -30
c10 0 21.833 1.16699 35.5 3.5s26.5 5.5 38.5 9.5v-77c-25.333 -8 -51.666 -12 -78.999 -12c-81.333 0 -122 30.333 -122 91c0 36 17 69 51 99c-7.33301 -0.666992 -14.333 -1.16699 -21 -1.5s-13.334 -0.5 -20.001 -0.5zM286.001 452.998
c-36.667 0 -64.333 -11.5 -83 -34.5s-29.667 -59.833 -33 -110.5h216c-1.33301 52 -9.83301 89.167 -25.5 111.5s-40.5 33.5 -74.5 33.5z" />
    <glyph glyph-name="Ecaron" unicode="&#x11a;" horiz-adv-x="603" 
d="M145 968l174 -75l173 75v-94l-174 -75l-173 75v94zM74 740h481v-109h-347v-203h316v-110h-316v-209h356v-109h-490v740z" />
    <glyph glyph-name="ecaron" unicode="&#x11b;" horiz-adv-x="540" 
d="M107 787l174 -75l173 75v-94l-174 -75l-173 75v94zM293 -9c-84.667 0 -148.333 22.832 -191 68.499s-64 113.834 -64 204.501c0 93.333 21.333 164.166 64 212.499s105.667 72.5 189 72.5c141.333 0 212 -80.667 212 -242c0 -17.333 -0.5 -31.833 -1.5 -43.5
s-2.5 -23.167 -4.5 -34.5h-327c2 -25.333 5.83301 -46.666 11.5 -63.999s13.834 -31.333 24.501 -42s24 -18.334 40 -23.001s35.333 -7 58 -7c25.333 0 53.666 2.33301 84.999 7s61 11.334 89 20.001l5 -98c-27.333 -9.33301 -57.833 -16.833 -91.5 -22.5
s-66.5 -8.5 -98.5 -8.5zM286.001 452.999c-36.667 0 -64.333 -11.5 -83 -34.5s-29.667 -59.833 -33 -110.5h216c-1.33301 52 -9.83301 89.167 -25.5 111.5s-40.5 33.5 -74.5 33.5z" />
    <glyph glyph-name="Gcircumflex" unicode="&#x11c;" horiz-adv-x="648" 
d="M384 -10c-116.667 0 -203.003 31 -259.003 93s-84 157.333 -84 286c0 129.333 29.667 225.166 89 287.499s150 93.5 272 93.5c28.667 0 59.334 -1.83301 92.001 -5.5s64 -9.16699 94 -16.5v-109c-38 7.33301 -70.833 12.5 -98.5 15.5s-53.167 4.5 -76.5 4.5
c-43.333 0 -79.833 -4.83301 -109.5 -14.5s-53.667 -25.167 -72 -46.5s-31.666 -49.166 -39.999 -83.499s-12.5 -76.166 -12.5 -125.499c0 -48.667 3.83301 -90 11.5 -124s20 -61.5 37 -82.5s38.833 -36.333 65.5 -46s59.334 -14.5 98.001 -14.5c11.333 0 24 0.5 38 1.5
s28.333 2.16699 43 3.5v269h123v-359c-38 -8.66699 -75.333 -15.334 -112 -20.001s-69.667 -7 -99 -7zM182.997 898l173 74l174 -74v-94l-173 74l-174 -74v94z" />
    <glyph glyph-name="gcircumflex" unicode="&#x11d;" horiz-adv-x="596" 
d="M140 713l173 75l174 -75v-93l-174 74l-173 -74v93zM262 -220c-32 0 -64.3301 1.99805 -96.9971 5.99805s-62 9.66699 -88 17l8 98c24.667 -6 50.5 -11 77.5 -15s53.5 -6 79.5 -6c25.333 0 48.333 2.83301 69 8.5s38.167 14.834 52.5 27.501s25.5 29.334 33.5 50.001
s12 46.334 12 77.001v38h-6c-34 -48 -85.333 -72 -154 -72c-70 0 -122.667 20.667 -158 62s-53 105.666 -53 192.999c0 94.667 24.167 166 72.5 214s115.166 72 200.499 72c31.333 0 64.166 -2.5 98.499 -7.5s76.166 -14.167 125.499 -27.5v-451
c0 -52 -6.83301 -96 -20.5 -132s-32.5 -65.333 -56.5 -88s-52.667 -39 -86 -49s-70 -15 -110 -15zM287.003 103.998c34.667 0 62.668 10.166 84.001 30.499s32 51.5 32 93.5v218c-14.667 3.33301 -29.834 5.83301 -45.501 7.5s-32.167 2.5 -49.5 2.5
c-24 0 -44.667 -3.16699 -62 -9.5s-31.5 -16.666 -42.5 -30.999s-19 -33 -24 -56s-7.5 -51.167 -7.5 -84.5c0 -62 8.83301 -106 26.5 -132s47.167 -39 88.5 -39z" />
    <glyph glyph-name="Gbreve" unicode="&#x11e;" horiz-adv-x="648" 
d="M361 807c-65.333 0 -113.333 15.168 -144 45.501s-46 70.166 -46 119.499h92c0 -32 7.5 -56 22.5 -72s40.167 -24 75.5 -24s60.5 8 75.5 24s22.5 40 22.5 72h93c0 -50 -15.5 -90 -46.5 -120s-79.167 -45 -144.5 -45zM384 -9.99902c-116.667 0 -203.003 31 -259.003 93
s-84 157.333 -84 286c0 129.333 29.667 225.166 89 287.499s150 93.5 272 93.5c28.667 0 59.334 -1.83301 92.001 -5.5s64 -9.16699 94 -16.5v-109c-38 7.33301 -70.833 12.5 -98.5 15.5s-53.167 4.5 -76.5 4.5c-43.333 0 -79.833 -4.83301 -109.5 -14.5
s-53.667 -25.167 -72 -46.5s-31.666 -49.166 -39.999 -83.499s-12.5 -76.166 -12.5 -125.499c0 -48.667 3.83301 -90 11.5 -124s20 -61.5 37 -82.5s38.833 -36.333 65.5 -46s59.334 -14.5 98.001 -14.5c11.333 0 24 0.5 38 1.5s28.333 2.16699 43 3.5v269h123v-359
c-38 -8.66699 -75.333 -15.334 -112 -20.001s-69.667 -7 -99 -7z" />
    <glyph glyph-name="gbreve" unicode="&#x11f;" horiz-adv-x="596" 
d="M262 -220c-32 0 -64.3301 1.99805 -96.9971 5.99805s-62 9.66699 -88 17l8 98c24.667 -6 50.5 -11 77.5 -15s53.5 -6 79.5 -6c25.333 0 48.333 2.83301 69 8.5s38.167 14.834 52.5 27.501s25.5 29.334 33.5 50.001s12 46.334 12 77.001v38h-6
c-34 -48 -85.333 -72 -154 -72c-70 0 -122.667 20.667 -158 62s-53 105.666 -53 192.999c0 94.667 24.167 166 72.5 214s115.166 72 200.499 72c31.333 0 64.166 -2.5 98.499 -7.5s76.166 -14.167 125.499 -27.5v-451c0 -52 -6.83301 -96 -20.5 -132
s-32.5 -65.333 -56.5 -88s-52.667 -39 -86 -49s-70 -15 -110 -15zM287.003 103.998c34.667 0 62.668 10.166 84.001 30.499s32 51.5 32 93.5v218c-14.667 3.33301 -29.834 5.83301 -45.501 7.5s-32.167 2.5 -49.5 2.5c-24 0 -44.667 -3.16699 -62 -9.5
s-31.5 -16.666 -42.5 -30.999s-19 -33 -24 -56s-7.5 -51.167 -7.5 -84.5c0 -62 8.83301 -106 26.5 -132s47.167 -39 88.5 -39zM306.004 614.997c-65.333 0 -113.169 14.5 -143.502 43.5s-45.833 68.167 -46.5 117.5h91c0.666992 -60.667 33.667 -91 99 -91
c66 0 99 30.333 99 91h92c-1.33301 -49.333 -17.166 -88.5 -47.499 -117.5s-78.166 -43.5 -143.499 -43.5z" />
    <glyph glyph-name="Gdotaccent" unicode="&#x120;" horiz-adv-x="648" 
d="M362 804c-26.667 0 -46 5.83301 -58 17.5s-18 30.5 -18 56.5s6 45 18 57s31.333 18 58 18c51.333 0 77 -25 77 -75c0 -49.333 -25.667 -74 -77 -74zM384 -10c-116.667 0 -203.003 31 -259.003 93s-84 157.333 -84 286c0 129.333 29.667 225.166 89 287.499
s150 93.5 272 93.5c28.667 0 59.334 -1.83301 92.001 -5.5s64 -9.16699 94 -16.5v-109c-38 7.33301 -70.833 12.5 -98.5 15.5s-53.167 4.5 -76.5 4.5c-43.333 0 -79.833 -4.83301 -109.5 -14.5s-53.667 -25.167 -72 -46.5s-31.666 -49.166 -39.999 -83.499
s-12.5 -76.166 -12.5 -125.499c0 -48.667 3.83301 -90 11.5 -124s20 -61.5 37 -82.5s38.833 -36.333 65.5 -46s59.334 -14.5 98.001 -14.5c11.333 0 24 0.5 38 1.5s28.333 2.16699 43 3.5v269h123v-359c-38 -8.66699 -75.333 -15.334 -112 -20.001s-69.667 -7 -99 -7z" />
    <glyph glyph-name="gdotaccent" unicode="&#x121;" horiz-adv-x="596" 
d="M262 -220c-32 0 -64.3301 1.99805 -96.9971 5.99805s-62 9.66699 -88 17l8 98c24.667 -6 50.5 -11 77.5 -15s53.5 -6 79.5 -6c25.333 0 48.333 2.83301 69 8.5s38.167 14.834 52.5 27.501s25.5 29.334 33.5 50.001s12 46.334 12 77.001v38h-6
c-34 -48 -85.333 -72 -154 -72c-70 0 -122.667 20.667 -158 62s-53 105.666 -53 192.999c0 94.667 24.167 166 72.5 214s115.166 72 200.499 72c31.333 0 64.166 -2.5 98.499 -7.5s76.166 -14.167 125.499 -27.5v-451c0 -52 -6.83301 -96 -20.5 -132
s-32.5 -65.333 -56.5 -88s-52.667 -39 -86 -49s-70 -15 -110 -15zM287.003 103.998c34.667 0 62.668 10.166 84.001 30.499s32 51.5 32 93.5v218c-14.667 3.33301 -29.834 5.83301 -45.501 7.5s-32.167 2.5 -49.5 2.5c-24 0 -44.667 -3.16699 -62 -9.5
s-31.5 -16.666 -42.5 -30.999s-19 -33 -24 -56s-7.5 -51.167 -7.5 -84.5c0 -62 8.83301 -106 26.5 -132s47.167 -39 88.5 -39zM308.004 621.997c-26 0 -45.167 5.83301 -57.5 17.5s-18.5 30.5 -18.5 56.5s6.16699 44.833 18.5 56.5s31.5 17.5 57.5 17.5
c51.333 0 77 -24.667 77 -74s-25.667 -74 -77 -74z" />
    <glyph glyph-name="Gcommaaccent" unicode="&#x122;" horiz-adv-x="648" 
d="M299 -69h136l-79 -151h-102zM384 -10c-116.667 0 -203.003 31 -259.003 93s-84 157.333 -84 286c0 129.333 29.667 225.166 89 287.499s150 93.5 272 93.5c28.667 0 59.334 -1.83301 92.001 -5.5s64 -9.16699 94 -16.5v-109c-38 7.33301 -70.833 12.5 -98.5 15.5
s-53.167 4.5 -76.5 4.5c-43.333 0 -79.833 -4.83301 -109.5 -14.5s-53.667 -25.167 -72 -46.5s-31.666 -49.166 -39.999 -83.499s-12.5 -76.166 -12.5 -125.499c0 -48.667 3.83301 -90 11.5 -124s20 -61.5 37 -82.5s38.833 -36.333 65.5 -46s59.334 -14.5 98.001 -14.5
c11.333 0 24 0.5 38 1.5s28.333 2.16699 43 3.5v269h123v-359c-38 -8.66699 -75.333 -15.334 -112 -20.001s-69.667 -7 -99 -7z" />
    <glyph glyph-name="gcommaaccent" unicode="&#x123;" horiz-adv-x="596" 
d="M445 787l-45 -150h-134l78 150h101zM262 -220c-32 0 -64.3301 1.99805 -96.9971 5.99805s-62 9.66699 -88 17l8 98c24.667 -6 50.5 -11 77.5 -15s53.5 -6 79.5 -6c25.333 0 48.333 2.83301 69 8.5s38.167 14.834 52.5 27.501s25.5 29.334 33.5 50.001
s12 46.334 12 77.001v38h-6c-34 -48 -85.333 -72 -154 -72c-70 0 -122.667 20.667 -158 62s-53 105.666 -53 192.999c0 94.667 24.167 166 72.5 214s115.166 72 200.499 72c31.333 0 64.166 -2.5 98.499 -7.5s76.166 -14.167 125.499 -27.5v-451
c0 -52 -6.83301 -96 -20.5 -132s-32.5 -65.333 -56.5 -88s-52.667 -39 -86 -49s-70 -15 -110 -15zM287.003 103.998c34.667 0 62.668 10.166 84.001 30.499s32 51.5 32 93.5v218c-14.667 3.33301 -29.834 5.83301 -45.501 7.5s-32.167 2.5 -49.5 2.5
c-24 0 -44.667 -3.16699 -62 -9.5s-31.5 -16.666 -42.5 -30.999s-19 -33 -24 -56s-7.5 -51.167 -7.5 -84.5c0 -62 8.83301 -106 26.5 -132s47.167 -39 88.5 -39z" />
    <glyph glyph-name="Hcircumflex" unicode="&#x124;" horiz-adv-x="748" 
d="M74 740h134v-307h332v307h134v-740h-134v324h-332v-324h-134v740zM196 898l173 74l174 -74v-94l-173 74l-174 -74v94z" />
    <glyph glyph-name="hcircumflex" unicode="&#x125;" horiz-adv-x="596" 
d="M138 915l173 75l174 -75v-93l-174 74l-173 -74v93zM62 808h132v-325c44 23.333 81.833 40.333 113.5 51s61.5 16 89.5 16c44.667 0 79 -12.5 103 -37.5s36 -61.5 36 -109.5v-403h-132v359c0 29.333 -5.33301 50.333 -16 63s-27 19 -49 19
c-19.333 0 -41.333 -3.83301 -66 -11.5s-51 -18.5 -79 -32.5v-397h-132v808z" />
    <glyph glyph-name="Hbar" unicode="&#x126;" horiz-adv-x="769" 
d="M4 608h80v132h134v-132h332v132h134v-132h84v-66h-84v-542h-134v324h-332v-324h-134v542h-80v66zM550 433v109h-332v-109h332z" />
    <glyph glyph-name="hbar" unicode="&#x127;" horiz-adv-x="596" 
d="M-23 713h85v95h132v-95h150v-79h-150v-151c44 23.333 81.833 40.333 113.5 51s61.5 16 89.5 16c44.667 0 79 -12.5 103 -37.5s36 -61.5 36 -109.5v-403h-132v359c0 29.333 -5.33301 50.333 -16 63s-27 19 -49 19c-19.333 0 -41.333 -3.83301 -66 -11.5
s-51 -18.5 -79 -32.5v-397h-132v634h-85v79z" />
    <glyph glyph-name="Itilde" unicode="&#x128;" horiz-adv-x="282" 
d="M74 740h134v-740h-134v740zM-58 852c19.333 32.667 41.168 57.5 65.501 74.5s48.166 25.5 71.499 25.5c15.333 0 30 -2.16699 44 -6.5s27.833 -9 41.5 -14s27.5 -9.5 41.5 -13.5s28.333 -6 43 -6c14 0 27.667 3 41 9s27.666 15.667 42.999 29l24 -26
c-18 -33.333 -39.5 -58.5 -64.5 -75.5s-49.167 -25.5 -72.5 -25.5c-14.667 0 -29 2 -43 6s-28 8.5 -42 13.5s-28 9.5 -42 13.5s-28 6 -42 6c-14.667 0 -28.667 -2.83301 -42 -8.5s-27.666 -15.167 -42.999 -28.5z" />
    <glyph glyph-name="itilde" unicode="&#x129;" horiz-adv-x="259" 
d="M-66 666c18.667 32 39.667 56 63 72s46.333 24 69 24c14.667 0 28.834 -2.33301 42.501 -7s27.167 -9.83398 40.5 -15.501s26.666 -10.834 39.999 -15.501s27 -7 41 -7c13.333 0 26.166 3 38.499 9s25.5 16 39.5 30l27 -32c-18 -32 -38.833 -56.167 -62.5 -72.5
s-47.167 -24.5 -70.5 -24.5c-14 0 -27.833 2.33301 -41.5 7s-27.167 9.83398 -40.5 15.501s-26.666 10.834 -39.999 15.501s-27 7 -41 7c-13.333 0 -26.5 -3 -39.5 -9s-26.167 -15.667 -39.5 -29zM64 540h132v-540h-132v540z" />
    <glyph glyph-name="Imacron" unicode="&#x12a;" horiz-adv-x="282" 
d="M74 740h134v-740h-134v740zM-26 931h337v-91h-337v91z" />
    <glyph glyph-name="imacron" unicode="&#x12b;" horiz-adv-x="259" 
d="M64 540h132v-540h-132v540zM-38 728h342v-88h-342v88z" />
    <glyph glyph-name="Ibreve" unicode="&#x12c;" horiz-adv-x="282" 
d="M74 740h134v-740h-134v740zM142 807c-65.333 0 -113.333 15.168 -144 45.501s-46 70.166 -46 119.499h92c0 -32 7.5 -56 22.5 -72s40.167 -24 75.5 -24s60.5 8 75.5 24s22.5 40 22.5 72h93c0 -50 -15.5 -90 -46.5 -120s-79.167 -45 -144.5 -45z" />
    <glyph glyph-name="ibreve" unicode="&#x12d;" horiz-adv-x="259" 
d="M132 615c-58 0 -100.668 14.5 -128.001 43.5s-41.666 68.167 -42.999 117.5h81c0 -60.667 30 -91 90 -91c31.333 0 54.166 7.5 68.499 22.5s21.833 37.833 22.5 68.5h80c-1.33301 -49.333 -15.666 -88.5 -42.999 -117.5s-70 -43.5 -128 -43.5zM63.999 540h132v-540h-132
v540z" />
    <glyph glyph-name="Iogonek" unicode="&#x12e;" horiz-adv-x="282" 
d="M74 740l133.999 -0.000976562v-752c-40 -17.333 -68.667 -34.666 -86 -51.999s-26 -34 -26 -50c0 -20 13 -30 39 -30c10 0 21.833 1.16699 35.5 3.5s26.5 5.5 38.5 9.5v-77c-25.333 -8 -51.666 -12 -78.999 -12c-81.333 0 -122 30.333 -122 91c0 24 7.33301 46.5 22 67.5
s38 41.5 70 61.5h-26v740z" />
    <glyph glyph-name="iogonek" unicode="&#x12f;" horiz-adv-x="258" 
d="M63 540l131.999 -0.000976562v-552c-40 -17.333 -68.667 -34.666 -86 -51.999s-26 -34 -26 -50c0 -20 13 -30 39 -30c10 0 21.833 1.16699 35.5 3.5s26.5 5.5 38.5 9.5v-77c-25.333 -8 -51.666 -12 -78.999 -12c-81.333 0 -122 30.333 -122 91c0 24 7.33301 46.5 22 67.5
s38 41.5 70 61.5h-24v540zM128.999 631.999c-26 0 -45.001 6 -57.001 18s-18 30.667 -18 56s5.83301 43.833 17.5 55.5s30.834 17.5 57.501 17.5s46 -6 58 -18s18 -30.333 18 -55c0 -25.333 -6 -44 -18 -56s-31.333 -18 -58 -18z" />
    <glyph glyph-name="Idotaccent" unicode="&#x130;" horiz-adv-x="282" 
d="M74 740h134v-740h-134v740zM142 804c-26.667 0 -46 5.83301 -58 17.5s-18 30.5 -18 56.5s6 45 18 57s31.333 18 58 18c51.333 0 77 -25 77 -75c0 -49.333 -25.667 -74 -77 -74z" />
    <glyph glyph-name="dotlessi" unicode="&#x131;" horiz-adv-x="258" 
d="M63 540h132v-540h-132v540z" />
    <glyph glyph-name="IJ" unicode="&#x132;" horiz-adv-x="563" 
d="M74 740h134v-740h-134v740zM280 -159c14.667 33.333 27 64.002 37 92.002s18 55.333 24 82s10.333 54.167 13 82.5s4 59.5 4 93.5v549h134v-559c0 -34 -2.16699 -66 -6.5 -96s-11.333 -59.833 -21 -89.5s-22.5 -60.334 -38.5 -92.001s-35.667 -65.834 -59 -102.501z" />
    <glyph glyph-name="ij" unicode="&#x133;" horiz-adv-x="514" 
d="M129 632c-26 0 -45.001 6 -57.001 18s-18 30.667 -18 56s5.83301 43.833 17.5 55.5s30.834 17.5 57.501 17.5s46 -6 58 -18s18 -30.333 18 -55c0 -25.333 -6 -44 -18 -56s-31.333 -18 -58 -18zM62.999 540h132v-540h-132v540zM384.999 632c-26 0 -45 6 -57 18
s-18 30.667 -18 56s6 43.833 18 55.5s31 17.5 57 17.5c26.667 0 46 -6 58 -18s18 -30.333 18 -55c0 -25.333 -5.83301 -44 -17.5 -56s-31.167 -18 -58.5 -18zM266.999 -196c18.667 47.333 32.5 96.668 41.5 148.001s13.5 111.666 13.5 180.999v33v68.5v88v91
c0 29 -0.166992 55 -0.5 78s-0.5 39.167 -0.5 48.5h131v-460c-2 -52 -11 -104 -27 -156s-37.333 -100 -64 -144z" />
    <glyph glyph-name="Jcircumflex" unicode="&#x134;" horiz-adv-x="281" 
d="M-2 -159c14.667 33.333 27 64.002 37 92.002s18 55.333 24 82s10.333 54.167 13 82.5s4 59.5 4 93.5v549h134v-559c0 -34 -2.16699 -66 -6.5 -96s-11.333 -59.833 -21 -89.5s-22.5 -60.334 -38.5 -92.001s-35.667 -65.834 -59 -102.501zM-29 898.002l173 74l174 -74v-94
l-173 74l-174 -74v94z" />
    <glyph glyph-name="jcircumflex" unicode="&#x135;" horiz-adv-x="256" 
d="M-40 715l167 74l168 -74v-94l-167 74l-168 -74v94zM7 -200c10 28 18.667 54.499 26 79.499s13.333 51 18 78s8 56.333 10 88s3 67.834 3 108.501v60v104c0 38.667 -0.166992 78 -0.5 118s-0.833008 74.667 -1.5 104h131v-461c-6 -106 -36 -205.667 -90 -299z" />
    <glyph glyph-name="Kcommaaccent" unicode="&#x136;" horiz-adv-x="668" 
d="M270 -69h136l-79 -151h-102zM74 740h134v-310h106l187 310h151l-206 -329l-43 -26v-7l46 -26l222 -352h-151l-200 321h-112v-321h-134v740z" />
    <glyph glyph-name="kcommaaccent" unicode="&#x137;" horiz-adv-x="557" 
d="M234 -69h136l-79 -151h-102zM62 808h132v-485h65l143 217h145l-177 -252l-22 -9v-3l22 -9l194 -267h-145l-161 233h-64v-233h-132v808z" />
    <glyph glyph-name="kgreenlandic" unicode="&#x138;" horiz-adv-x="555" 
d="M63 540h132v-217h77l126 217h145l-161 -253l-21 -8v-3l22 -8l177 -268h-145l-144 233h-76v-233h-132v540z" />
    <glyph glyph-name="Lacute" unicode="&#x139;" horiz-adv-x="517" 
d="M95 804l70 159h136l-109 -166zM74 740h134v-631h296v-109h-430v740z" />
    <glyph glyph-name="lacute" unicode="&#x13a;" horiz-adv-x="259" 
d="M81 843l68 187h135l-109 -195zM64 808h132v-808h-132v808z" />
    <glyph glyph-name="Lcommaaccent" unicode="&#x13b;" horiz-adv-x="517" 
d="M220 -69h136l-79 -151h-102zM74 740h134v-631h296v-109h-430v740z" />
    <glyph glyph-name="lcommaaccent" unicode="&#x13c;" horiz-adv-x="259" 
d="M70 -69h136l-79 -151h-102zM64 808h132v-808h-132v808z" />
    <glyph glyph-name="Lcaron" unicode="&#x13d;" horiz-adv-x="532" 
d="M388 778h105l-36 -228h-69v228zM74 740h134v-631h296v-109h-430v740z" />
    <glyph glyph-name="lcaron" unicode="&#x13e;" horiz-adv-x="260" 
d="M252 808h105l-36 -228h-69v228zM64 808h132v-808h-132v808z" />
    <glyph glyph-name="Ldot" unicode="&#x13f;" horiz-adv-x="529" 
d="M74 740h134v-631h296v-109h-430v740zM421 305c-26.667 0 -46 5.83301 -58 17.5s-18 30.5 -18 56.5s6 45 18 57s31.333 18 58 18c26 0 45.167 -6 57.5 -18s18.5 -31 18.5 -57c0 -49.333 -25.333 -74 -76 -74z" />
    <glyph glyph-name="ldot" unicode="&#x140;" horiz-adv-x="383" 
d="M64 808h132v-808h-132v808zM322 296c-26.667 0 -46 5.83301 -58 17.5s-18 30.5 -18 56.5s6 45 18 57s31.333 18 58 18c26 0 45.167 -6 57.5 -18s18.5 -31 18.5 -57c0 -49.333 -25.333 -74 -76 -74z" />
    <glyph glyph-name="Lslash" unicode="&#x141;" horiz-adv-x="537" 
d="M12 327l82 48v365h134v-286l130 77v-103l-130 -77v-242h296v-109h-430v272l-82 -48v103z" />
    <glyph glyph-name="lslash" unicode="&#x142;" horiz-adv-x="355" 
d="M21 344l90 52v412h132v-335l98 57v-99l-98 -57v-374h-132v297l-90 -52v99z" />
    <glyph glyph-name="Nacute" unicode="&#x143;" horiz-adv-x="756" 
d="M313 804l70 159h136l-109 -166zM74 740h111l318 -444l52 -84h8v528h120v-740h-113l-314 441l-55 87h-8v-528h-119v740z" />
    <glyph glyph-name="nacute" unicode="&#x144;" horiz-adv-x="596" 
d="M256 617l68 187h135l-109 -195zM63 540h111l7 -61h6c47.333 25.333 87 43.5 119 54.5s62.667 16.5 92 16.5c44 0 78 -12.5 102 -37.5s36 -61.5 36 -109.5v-403h-131v359c0 30 -5.5 51.167 -16.5 63.5s-27.5 18.5 -49.5 18.5c-19.333 0 -41.5 -4 -66.5 -12
s-50.833 -18.667 -77.5 -32v-397h-132v540z" />
    <glyph glyph-name="Ncommaaccent" unicode="&#x145;" horiz-adv-x="756" 
d="M326 -69h136l-79 -151h-102zM74 740h111l318 -444l52 -84h8v528h120v-740h-113l-314 441l-55 87h-8v-528h-119v740z" />
    <glyph glyph-name="ncommaaccent" unicode="&#x146;" horiz-adv-x="596" 
d="M239 -69h136l-79 -151h-102zM63 540h111l7 -61h6c47.333 25.333 87 43.5 119 54.5s62.667 16.5 92 16.5c44 0 78 -12.5 102 -37.5s36 -61.5 36 -109.5v-403h-131v359c0 30 -5.5 51.167 -16.5 63.5s-27.5 18.5 -49.5 18.5c-19.333 0 -41.5 -4 -66.5 -12
s-50.833 -18.667 -77.5 -32v-397h-132v540z" />
    <glyph glyph-name="Ncaron" unicode="&#x147;" horiz-adv-x="756" 
d="M207 968l174 -75l173 75v-94l-174 -75l-173 75v94zM74 740h111l318 -444l52 -84h8v528h120v-740h-113l-314 441l-55 87h-8v-528h-119v740z" />
    <glyph glyph-name="ncaron" unicode="&#x148;" horiz-adv-x="596" 
d="M125 787l174 -75l173 75v-94l-174 -75l-173 75v94zM63 540h111l7 -61h6c47.333 25.333 87 43.5 119 54.5s62.667 16.5 92 16.5c44 0 78 -12.5 102 -37.5s36 -61.5 36 -109.5v-403h-131v359c0 30 -5.5 51.167 -16.5 63.5s-27.5 18.5 -49.5 18.5
c-19.333 0 -41.5 -4 -66.5 -12s-50.833 -18.667 -77.5 -32v-397h-132v540z" />
    <glyph glyph-name="napostrophe" unicode="&#x149;" horiz-adv-x="676" 
d="M133 808v-4l-39 -224h-68v228h107zM143 540h111l7 -61h6c47.333 25.333 87 43.5 119 54.5s62.667 16.5 92 16.5c44 0 78 -12.5 102 -37.5s36 -61.5 36 -109.5v-403h-131v359c0 30 -5.5 51.167 -16.5 63.5s-27.5 18.5 -49.5 18.5c-19.333 0 -41.5 -4 -66.5 -12
s-50.833 -18.667 -77.5 -32v-397h-132v540z" />
    <glyph glyph-name="Eng" unicode="&#x14a;" horiz-adv-x="754" 
d="M479 -171c34.667 76 56.667 145.332 66 207.999l-288 405l-55 88l-8 -1v-529h-120v740h109l318 -445l53 -85h8v530h121v-639c0 -18.667 -3 -40.5 -9 -65.5s-14 -51 -24 -78s-22 -54.167 -36 -81.5s-29 -52.666 -45 -75.999z" />
    <glyph glyph-name="eng" unicode="&#x14b;" horiz-adv-x="595" 
d="M351 -201c16.667 46 29.8301 94.999 39.4971 146.999s14.5 107.333 14.5 166v230c0 34 -4.83301 57.333 -14.5 70s-26.834 19 -51.501 19c-20 0 -42.167 -3.16699 -66.5 -9.5s-50.166 -16.166 -77.499 -29.499v-392h-132v540h111l7 -60h4
c46.667 24.667 86.5 42.5 119.5 53.5s64.167 16.5 93.5 16.5c44.667 0 78.834 -12.5 102.501 -37.5s35.5 -61.5 35.5 -109.5v-330c-1.33301 -24.667 -4.16602 -50.167 -8.49902 -76.5s-10.166 -52.333 -17.499 -78s-16 -50.167 -26 -73.5s-20.667 -44.333 -32 -63z" />
    <glyph glyph-name="Omacron" unicode="&#x14c;" horiz-adv-x="731" 
d="M195 931h337v-91h-337v91zM365 -10c-106.667 0 -187.334 31.667 -242.001 95s-82 158 -82 284c0 126.667 27.333 221.834 82 285.501s135.334 95.5 242.001 95.5s187.5 -31.833 242.5 -95.5s82.5 -158.834 82.5 -285.501c0 -126 -27.5 -220.667 -82.5 -284
s-135.833 -95 -242.5 -95zM365 101c33.333 0 61.835 5 85.502 15s43 25.667 58 47s26 49 33 83s10.5 75 10.5 123c0 96 -14.833 165.167 -44.5 207.5s-77.167 63.5 -142.5 63.5c-32.667 0 -60.834 -5 -84.501 -15s-43 -26 -58 -48s-26 -50.167 -33 -84.5
s-10.5 -75.5 -10.5 -123.5s3.5 -89 10.5 -123s18 -61.667 33 -83s34.167 -37 57.5 -47s51.666 -15 84.999 -15z" />
    <glyph glyph-name="omacron" unicode="&#x14d;" horiz-adv-x="589" 
d="M123 728h342v-88h-342v88zM295 -10c-84.667 0 -148.834 23.833 -192.501 71.5s-65.5 117.167 -65.5 208.5s21.833 160.833 65.5 208.5s107.834 71.5 192.501 71.5c84 0 147.833 -23.833 191.5 -71.5s65.5 -117.167 65.5 -208.5s-21.833 -160.833 -65.5 -208.5
s-107.5 -71.5 -191.5 -71.5zM295 93c22 0 40.833 3.16699 56.5 9.5s28.5 16.5 38.5 30.5s17.333 32.167 22 54.5s7 49.833 7 82.5s-2.33301 60.167 -7 82.5s-12 40.5 -22 54.5s-22.833 24.167 -38.5 30.5s-34.5 9.5 -56.5 9.5c-22.667 0 -41.834 -3.16699 -57.501 -9.5
s-28.5 -16.5 -38.5 -30.5s-17.333 -32.167 -22 -54.5s-7 -49.833 -7 -82.5s2.33301 -60.167 7 -82.5s12 -40.5 22 -54.5s22.833 -24.167 38.5 -30.5s34.834 -9.5 57.501 -9.5z" />
    <glyph glyph-name="Obreve" unicode="&#x14e;" horiz-adv-x="731" 
d="M365 807c-65.333 0 -113.333 15.168 -144 45.501s-46 70.166 -46 119.499h92c0 -32 7.5 -56 22.5 -72s40.167 -24 75.5 -24s60.5 8 75.5 24s22.5 40 22.5 72h93c0 -50 -15.5 -90 -46.5 -120s-79.167 -45 -144.5 -45zM365 -9.99902
c-106.667 0 -187.334 31.667 -242.001 95s-82 158 -82 284c0 126.667 27.333 221.834 82 285.501s135.334 95.5 242.001 95.5s187.5 -31.833 242.5 -95.5s82.5 -158.834 82.5 -285.501c0 -126 -27.5 -220.667 -82.5 -284s-135.833 -95 -242.5 -95zM365 101.001
c33.333 0 61.835 5 85.502 15s43 25.667 58 47s26 49 33 83s10.5 75 10.5 123c0 96 -14.833 165.167 -44.5 207.5s-77.167 63.5 -142.5 63.5c-32.667 0 -60.834 -5 -84.501 -15s-43 -26 -58 -48s-26 -50.167 -33 -84.5s-10.5 -75.5 -10.5 -123.5s3.5 -89 10.5 -123
s18 -61.667 33 -83s34.167 -37 57.5 -47s51.666 -15 84.999 -15z" />
    <glyph glyph-name="obreve" unicode="&#x14f;" horiz-adv-x="589" 
d="M295 -10c-84.667 0 -148.834 23.833 -192.501 71.5s-65.5 117.167 -65.5 208.5s21.833 160.833 65.5 208.5s107.834 71.5 192.501 71.5c84 0 147.833 -23.833 191.5 -71.5s65.5 -117.167 65.5 -208.5s-21.833 -160.833 -65.5 -208.5s-107.5 -71.5 -191.5 -71.5zM295 93
c22 0 40.833 3.16699 56.5 9.5s28.5 16.5 38.5 30.5s17.333 32.167 22 54.5s7 49.833 7 82.5s-2.33301 60.167 -7 82.5s-12 40.5 -22 54.5s-22.833 24.167 -38.5 30.5s-34.5 9.5 -56.5 9.5c-22.667 0 -41.834 -3.16699 -57.501 -9.5s-28.5 -16.5 -38.5 -30.5
s-17.333 -32.167 -22 -54.5s-7 -49.833 -7 -82.5s2.33301 -60.167 7 -82.5s12 -40.5 22 -54.5s22.833 -24.167 38.5 -30.5s34.834 -9.5 57.501 -9.5zM293 615c-65.333 0 -113.169 14.5 -143.502 43.5s-45.833 68.167 -46.5 117.5h91c0.666992 -60.667 33.667 -91 99 -91
c66 0 99 30.333 99 91h92c-1.33301 -49.333 -17.166 -88.5 -47.499 -117.5s-78.166 -43.5 -143.499 -43.5z" />
    <glyph glyph-name="Ohungarumlaut" unicode="&#x150;" horiz-adv-x="731" 
d="M365 -10c-106.667 0 -187.334 31.667 -242.001 95s-82 158 -82 284c0 126.667 27.333 221.834 82 285.501s135.334 95.5 242.001 95.5s187.5 -31.833 242.5 -95.5s82.5 -158.834 82.5 -285.501c0 -126 -27.5 -220.667 -82.5 -284s-135.833 -95 -242.5 -95zM365 101
c33.333 0 61.835 5 85.502 15s43 25.667 58 47s26 49 33 83s10.5 75 10.5 123c0 96 -14.833 165.167 -44.5 207.5s-77.167 63.5 -142.5 63.5c-32.667 0 -60.834 -5 -84.501 -15s-43 -26 -58 -48s-26 -50.167 -33 -84.5s-10.5 -75.5 -10.5 -123.5s3.5 -89 10.5 -123
s18 -61.667 33 -83s34.167 -37 57.5 -47s51.666 -15 84.999 -15zM216.002 806l69 155h125l-109 -167zM397.002 806l70 155h125l-109 -167z" />
    <glyph glyph-name="ohungarumlaut" unicode="&#x151;" horiz-adv-x="589" 
d="M147 621l68 185h126l-110 -195zM342 621l68 185h126l-110 -195zM295 -10c-84.667 0 -148.834 23.833 -192.501 71.5s-65.5 117.167 -65.5 208.5s21.833 160.833 65.5 208.5s107.834 71.5 192.501 71.5c84 0 147.833 -23.833 191.5 -71.5s65.5 -117.167 65.5 -208.5
s-21.833 -160.833 -65.5 -208.5s-107.5 -71.5 -191.5 -71.5zM295 93c22 0 40.833 3.16699 56.5 9.5s28.5 16.5 38.5 30.5s17.333 32.167 22 54.5s7 49.833 7 82.5s-2.33301 60.167 -7 82.5s-12 40.5 -22 54.5s-22.833 24.167 -38.5 30.5s-34.5 9.5 -56.5 9.5
c-22.667 0 -41.834 -3.16699 -57.501 -9.5s-28.5 -16.5 -38.5 -30.5s-17.333 -32.167 -22 -54.5s-7 -49.833 -7 -82.5s2.33301 -60.167 7 -82.5s12 -40.5 22 -54.5s22.833 -24.167 38.5 -30.5s34.834 -9.5 57.501 -9.5z" />
    <glyph glyph-name="OE" unicode="&#x152;" horiz-adv-x="989" 
d="M371 -8c-106.667 0 -188.5 31.667 -245.5 95s-85.5 157.333 -85.5 282c0 126 28.5 220.667 85.5 284s138.833 95 245.5 95c20.667 0 40 -0.666992 58 -2s35 -3.33301 51 -6h458v-109h-324v-203h299v-106h-299v-213h333v-109h-467c-16 -3.33301 -33.333 -5.5 -52 -6.5
s-37.667 -1.5 -57 -1.5zM379 103c18 0 35.501 0.333008 52.501 1s32.833 2.66699 47.5 6v519c-15.333 3.33301 -31.333 5.5 -48 6.5s-34.334 1.5 -53.001 1.5c-71.333 0 -122.666 -20.833 -153.999 -62.5s-47 -110.167 -47 -205.5c0 -48 3.66699 -88.833 11 -122.5
s19.166 -61.167 35.499 -82.5s37.333 -36.833 63 -46.5s56.5 -14.5 92.5 -14.5z" />
    <glyph glyph-name="oe" unicode="&#x153;" horiz-adv-x="922" 
d="M676 -9c-45.333 0 -83.8291 8 -115.496 24s-56.167 39 -73.5 69h-6c-18.667 -30.667 -43.5 -54 -74.5 -70s-68.167 -24 -111.5 -24c-84.667 0 -148.834 23.833 -192.501 71.5s-65.5 117.167 -65.5 208.5s21.833 160.833 65.5 208.5s107.834 71.5 192.501 71.5
c44 0 81.667 -8.33301 113 -25s55.666 -40.667 72.999 -72h8c17.333 31.333 41.5 55.166 72.5 71.499s68.5 24.5 112.5 24.5c140.667 0 211 -80.333 211 -241c0 -17.333 -0.333008 -31.666 -1 -42.999s-2.33398 -22.666 -5.00098 -33.999h-327c2 -50 13.667 -85.5 35 -106.5
s54 -31.5 98 -31.5c25.333 0 53.666 2.16699 84.999 6.5s61.666 11.166 90.999 20.499l5 -98c-28 -9.33301 -58.833 -16.833 -92.5 -22.5s-66.167 -8.5 -97.5 -8.5zM295.004 93c22 0 40.833 3.16699 56.5 9.5s28.5 16.5 38.5 30.5s17.333 32.167 22 54.5s7 49.833 7 82.5
s-2.33301 60.167 -7 82.5s-12 40.5 -22 54.5s-22.833 24.167 -38.5 30.5s-34.5 9.5 -56.5 9.5c-22.667 0 -41.834 -3.16699 -57.501 -9.5s-28.5 -16.5 -38.5 -30.5s-17.333 -32.167 -22 -54.5s-7 -49.833 -7 -82.5s2.33301 -60.167 7 -82.5s12 -40.5 22 -54.5
s22.833 -24.167 38.5 -30.5s34.834 -9.5 57.501 -9.5zM768.004 306c-2 52.667 -10.5 90.334 -25.5 113.001s-39.5 34 -73.5 34c-38 0 -66.5 -11.833 -85.5 -35.5s-29.833 -60.834 -32.5 -111.501h217z" />
    <glyph glyph-name="Racute" unicode="&#x154;" horiz-adv-x="655" 
d="M349 260c-22 -2 -44.999 -3 -68.999 -3h-15.5c-6.33301 0 -12.833 0.166992 -19.5 0.5l-20 1c-6.66699 0.333008 -12.334 0.833008 -17.001 1.5v-260h-134v735c66 10 131.333 15 196 15c60 0 111.667 -4.83301 155 -14.5s78.833 -24.5 106.5 -44.5
s48.167 -45.5 61.5 -76.5s20 -68.167 20 -111.5c0 -111.333 -48.333 -184.333 -145 -219l170 -284h-147zM294.001 363c33.333 0 61.498 2.49902 84.498 7.49902s41.833 13 56.5 24s25.167 25.5 31.5 43.5s9.5 39.667 9.5 65s-3.16699 46.833 -9.5 64.5
s-16.666 32 -30.999 43s-33 19 -56 24s-51.167 7.5 -84.5 7.5c-12 0 -26.167 -0.666992 -42.5 -2s-31.166 -2.66602 -44.499 -3.99902v-267c10 -2 22.5 -3.5 37.5 -4.5s31.167 -1.5 48.5 -1.5zM271.999 803.999l70 159h136l-109 -166z" />
    <glyph glyph-name="racute" unicode="&#x155;" horiz-adv-x="402" 
d="M172 617l68 187h135l-109 -195zM63 540h111.002l7 -76h5c23.333 17.333 50.166 34 80.499 50s59.5 27.667 87.5 35h36v-118h-48c-26 -3.33301 -52.333 -10 -79 -20s-49.334 -21 -68.001 -33v-378h-132v540z" />
    <glyph glyph-name="Rcommaaccent" unicode="&#x156;" horiz-adv-x="655" 
d="M277 -69h136l-79 -151h-102zM349 260c-22 -2 -44.999 -3 -68.999 -3h-15.5c-6.33301 0 -12.833 0.166992 -19.5 0.5l-20 1c-6.66699 0.333008 -12.334 0.833008 -17.001 1.5v-260h-134v735c66 10 131.333 15 196 15c60 0 111.667 -4.83301 155 -14.5
s78.833 -24.5 106.5 -44.5s48.167 -45.5 61.5 -76.5s20 -68.167 20 -111.5c0 -111.333 -48.333 -184.333 -145 -219l170 -284h-147zM294.001 363c33.333 0 61.498 2.49902 84.498 7.49902s41.833 13 56.5 24s25.167 25.5 31.5 43.5s9.5 39.667 9.5 65
s-3.16699 46.833 -9.5 64.5s-16.666 32 -30.999 43s-33 19 -56 24s-51.167 7.5 -84.5 7.5c-12 0 -26.167 -0.666992 -42.5 -2s-31.166 -2.66602 -44.499 -3.99902v-267c10 -2 22.5 -3.5 37.5 -4.5s31.167 -1.5 48.5 -1.5z" />
    <glyph glyph-name="rcommaaccent" unicode="&#x157;" horiz-adv-x="402" 
d="M66 -69h136l-79 -151h-102zM63 540h111.002l7 -76h5c23.333 17.333 50.166 34 80.499 50s59.5 27.667 87.5 35h36v-118h-48c-26 -3.33301 -52.333 -10 -79 -20s-49.334 -21 -68.001 -33v-378h-132v540z" />
    <glyph glyph-name="Rcaron" unicode="&#x158;" horiz-adv-x="655" 
d="M158 968l174 -75l173 75v-94l-174 -75l-173 75v94zM349 260c-22 -2 -44.999 -3 -68.999 -3h-15.5c-6.33301 0 -12.833 0.166992 -19.5 0.5l-20 1c-6.66699 0.333008 -12.334 0.833008 -17.001 1.5v-260h-134v735c66 10 131.333 15 196 15
c60 0 111.667 -4.83301 155 -14.5s78.833 -24.5 106.5 -44.5s48.167 -45.5 61.5 -76.5s20 -68.167 20 -111.5c0 -111.333 -48.333 -184.333 -145 -219l170 -284h-147zM294.001 363c33.333 0 61.498 2.49902 84.498 7.49902s41.833 13 56.5 24s25.167 25.5 31.5 43.5
s9.5 39.667 9.5 65s-3.16699 46.833 -9.5 64.5s-16.666 32 -30.999 43s-33 19 -56 24s-51.167 7.5 -84.5 7.5c-12 0 -26.167 -0.666992 -42.5 -2s-31.166 -2.66602 -44.499 -3.99902v-267c10 -2 22.5 -3.5 37.5 -4.5s31.167 -1.5 48.5 -1.5z" />
    <glyph glyph-name="rcaron" unicode="&#x159;" horiz-adv-x="402" 
d="M49 787l174 -75l173 75v-94l-174 -75l-173 75v94zM63 540h111.002l7 -76h5c23.333 17.333 50.166 34 80.499 50s59.5 27.667 87.5 35h36v-118h-48c-26 -3.33301 -52.333 -10 -79 -20s-49.334 -21 -68.001 -33v-378h-132v540z" />
    <glyph glyph-name="Sacute" unicode="&#x15a;" horiz-adv-x="573" 
d="M276 -12c-35.333 0 -74.501 2.99902 -117.501 8.99902s-83.5 14 -121.5 24l2 112c37.333 -10.667 75.833 -19.167 115.5 -25.5s75.5 -9.5 107.5 -9.5c48 0 84 8.5 108 25.5s36 41.5 36 73.5c0 17.333 -3.33301 32.333 -10 45s-16.334 23.5 -29.001 32.5
s-28 16.667 -46 23s-38.333 12.5 -61 18.5c-35.333 8.66699 -66.333 19 -93 31s-49 26.833 -67 44.5s-31.5 38.667 -40.5 63s-13.5 53.166 -13.5 86.499c0 32.667 6.16699 62 18.5 88s29.833 48.167 52.5 66.5s50.167 32.333 82.5 42s68.833 14.5 109.5 14.5
c29.333 0 60 -2 92 -6s68.667 -10.667 110 -20l-4 -110c-31.333 8.66699 -63.666 15.5 -96.999 20.5s-62.666 7.5 -87.999 7.5c-44 0 -77.833 -8.83301 -101.5 -26.5s-35.5 -42.5 -35.5 -74.5c0 -31.333 11.667 -55.666 35 -72.999s61.333 -33.333 114 -48
c32 -9.33301 61 -19.666 87 -30.999s48.167 -25.333 66.5 -42s32.333 -36.5 42 -59.5s14.5 -50.833 14.5 -83.5c0 -70.667 -23 -124.667 -69 -162s-112.333 -56 -199 -56zM234.999 803.999l70 159h136l-109 -166z" />
    <glyph glyph-name="sacute" unicode="&#x15b;" horiz-adv-x="474" 
d="M185 617l68 187h135l-109 -195zM225 -11c-53.333 0 -115.334 8.00293 -186.001 24.0029v97c32 -8 63.167 -14.333 93.5 -19s59.166 -7 86.499 -7c63.333 0 95 21.667 95 65c0 21.333 -7.5 37.166 -22.5 47.499s-37.5 18.166 -67.5 23.499
c-19.333 3.33301 -39.666 7.33301 -60.999 12s-40.833 12.5 -58.5 23.5s-32.167 26.667 -43.5 47s-17 48.166 -17 83.499c0 52 18 92.667 54 122s86.333 44 151 44c24 0 49.167 -1.66699 75.5 -5s58.166 -8.33301 95.499 -15l-4 -100
c-34 7.33301 -62.833 12.666 -86.5 15.999s-44.834 5 -63.501 5c-32 0 -56.167 -5.5 -72.5 -16.5s-24.5 -26.5 -24.5 -46.5c0 -24 9 -40.333 27 -49s42.667 -15.667 74 -21c24 -4 46.333 -9.5 67 -16.5s38.834 -16.5 54.501 -28.5s27.834 -27.5 36.501 -46.5
s13 -42.833 13 -71.5c0 -53.333 -18.667 -94.666 -56 -123.999s-90.666 -44 -159.999 -44z" />
    <glyph glyph-name="Scircumflex" unicode="&#x15c;" horiz-adv-x="573" 
d="M276 -12c-35.333 0 -74.501 2.99902 -117.501 8.99902s-83.5 14 -121.5 24l2 112c37.333 -10.667 75.833 -19.167 115.5 -25.5s75.5 -9.5 107.5 -9.5c48 0 84 8.5 108 25.5s36 41.5 36 73.5c0 17.333 -3.33301 32.333 -10 45s-16.334 23.5 -29.001 32.5
s-28 16.667 -46 23s-38.333 12.5 -61 18.5c-35.333 8.66699 -66.333 19 -93 31s-49 26.833 -67 44.5s-31.5 38.667 -40.5 63s-13.5 53.166 -13.5 86.499c0 32.667 6.16699 62 18.5 88s29.833 48.167 52.5 66.5s50.167 32.333 82.5 42s68.833 14.5 109.5 14.5
c29.333 0 60 -2 92 -6s68.667 -10.667 110 -20l-4 -110c-31.333 8.66699 -63.666 15.5 -96.999 20.5s-62.666 7.5 -87.999 7.5c-44 0 -77.833 -8.83301 -101.5 -26.5s-35.5 -42.5 -35.5 -74.5c0 -31.333 11.667 -55.666 35 -72.999s61.333 -33.333 114 -48
c32 -9.33301 61 -19.666 87 -30.999s48.167 -25.333 66.5 -42s32.333 -36.5 42 -59.5s14.5 -50.833 14.5 -83.5c0 -70.667 -23 -124.667 -69 -162s-112.333 -56 -199 -56zM120.999 897.999l173 74l174 -74v-94l-173 74l-174 -74v94z" />
    <glyph glyph-name="scircumflex" unicode="&#x15d;" horiz-adv-x="474" 
d="M68 713l173 75l174 -75v-93l-174 74l-173 -74v93zM225 -11c-53.333 0 -115.334 8.00293 -186.001 24.0029v97c32 -8 63.167 -14.333 93.5 -19s59.166 -7 86.499 -7c63.333 0 95 21.667 95 65c0 21.333 -7.5 37.166 -22.5 47.499s-37.5 18.166 -67.5 23.499
c-19.333 3.33301 -39.666 7.33301 -60.999 12s-40.833 12.5 -58.5 23.5s-32.167 26.667 -43.5 47s-17 48.166 -17 83.499c0 52 18 92.667 54 122s86.333 44 151 44c24 0 49.167 -1.66699 75.5 -5s58.166 -8.33301 95.499 -15l-4 -100
c-34 7.33301 -62.833 12.666 -86.5 15.999s-44.834 5 -63.501 5c-32 0 -56.167 -5.5 -72.5 -16.5s-24.5 -26.5 -24.5 -46.5c0 -24 9 -40.333 27 -49s42.667 -15.667 74 -21c24 -4 46.333 -9.5 67 -16.5s38.834 -16.5 54.501 -28.5s27.834 -27.5 36.501 -46.5
s13 -42.833 13 -71.5c0 -53.333 -18.667 -94.666 -56 -123.999s-90.666 -44 -159.999 -44z" />
    <glyph glyph-name="uni015E" unicode="&#x15e;" horiz-adv-x="574" 
d="M264 -220c-13.333 0 -27.832 1.16406 -43.499 3.49707s-31.5 5.16602 -47.5 8.49902v81c11.333 -3.33301 23.333 -6 36 -8s24 -3 34 -3c18.667 0 32 3.83301 40 11.5s12 18.834 12 33.501c0 20.667 -10 47.667 -30 81c-34.667 1.33301 -72.334 4.83301 -113.001 10.5
s-79 13.167 -115 22.5v112c37.333 -10.667 76.166 -19.167 116.499 -25.5s76.5 -9.5 108.5 -9.5c48 0 84 8.5 108 25.5s36 41.5 36 73.5c0 17.333 -3.33301 32.333 -10 45s-16.334 23.5 -29.001 32.5s-28 16.667 -46 23s-38.333 12.5 -61 18.5
c-35.333 8.66699 -66.333 19 -93 31s-49 26.833 -67 44.5s-31.5 38.667 -40.5 63s-13.5 53.166 -13.5 86.499c0 32.667 6.16699 62 18.5 88s29.833 48.167 52.5 66.5s50.167 32.333 82.5 42s68.833 14.5 109.5 14.5c29.333 0 60 -2 92 -6s68.667 -10.667 110 -20l-4 -110
c-31.333 8.66699 -63.666 15.5 -96.999 20.5s-62.666 7.5 -87.999 7.5c-44 0 -77.833 -8.83301 -101.5 -26.5s-35.5 -42.5 -35.5 -74.5c0 -31.333 11.667 -55.666 35 -72.999s61.333 -33.333 114 -48c32 -9.33301 61 -19.666 87 -30.999s48.167 -25.333 66.5 -42
s32.333 -36.5 42 -59.5s14.5 -50.833 14.5 -83.5c0 -60 -16.833 -108.167 -50.5 -144.5s-82.167 -59.166 -145.5 -68.499c14 -20.667 23.667 -38.667 29 -54s8 -31.666 8 -48.999c0 -34.667 -10.667 -61.667 -32 -81s-51 -29 -89 -29z" />
    <glyph glyph-name="uni015F" unicode="&#x15f;" horiz-adv-x="474" 
d="M206 -220c-13.333 0 -27.832 1.16895 -43.499 3.50195s-31.5 5.16602 -47.5 8.49902v81c11.333 -3.33301 23.333 -6 36 -8s24 -3 34 -3c18.667 0 32 3.83301 40 11.5s12 18.834 12 33.501c0 22 -10.333 49.333 -31 82c-48.667 2 -104.334 10 -167.001 24v97
c32 -8 63.167 -14.333 93.5 -19s59.166 -7 86.499 -7c63.333 0 95 21.667 95 65c0 21.333 -7.5 37.166 -22.5 47.499s-37.5 18.166 -67.5 23.499c-19.333 3.33301 -39.666 7.33301 -60.999 12s-40.833 12.5 -58.5 23.5s-32.167 26.667 -43.5 47s-17 48.166 -17 83.499
c0 52 18 92.667 54 122s86.333 44 151 44c24 0 49.167 -1.66699 75.5 -5s58.166 -8.33301 95.499 -15l-4 -100c-34 7.33301 -62.833 12.666 -86.5 15.999s-44.834 5 -63.501 5c-32 0 -56.167 -5.5 -72.5 -16.5s-24.5 -26.5 -24.5 -46.5c0 -24 9 -40.333 27 -49
s42.667 -15.667 74 -21c24 -4 46.333 -9.5 67 -16.5s38.834 -16.5 54.501 -28.5s27.834 -27.5 36.501 -46.5s13 -42.833 13 -71.5c0 -44 -13 -80 -39 -108s-63.667 -46.333 -113 -55c14 -21.333 23.833 -39.666 29.5 -54.999s8.5 -31.666 8.5 -48.999
c0 -34.667 -10.667 -61.667 -32 -81s-51 -29 -89 -29z" />
    <glyph glyph-name="Scaron" unicode="&#x160;" horiz-adv-x="573" 
d="M276 -12c-35.333 0 -74.501 2.99902 -117.501 8.99902s-83.5 14 -121.5 24l2 112c37.333 -10.667 75.833 -19.167 115.5 -25.5s75.5 -9.5 107.5 -9.5c48 0 84 8.5 108 25.5s36 41.5 36 73.5c0 17.333 -3.33301 32.333 -10 45s-16.334 23.5 -29.001 32.5
s-28 16.667 -46 23s-38.333 12.5 -61 18.5c-35.333 8.66699 -66.333 19 -93 31s-49 26.833 -67 44.5s-31.5 38.667 -40.5 63s-13.5 53.166 -13.5 86.499c0 32.667 6.16699 62 18.5 88s29.833 48.167 52.5 66.5s50.167 32.333 82.5 42s68.833 14.5 109.5 14.5
c29.333 0 60 -2 92 -6s68.667 -10.667 110 -20l-4 -110c-31.333 8.66699 -63.666 15.5 -96.999 20.5s-62.666 7.5 -87.999 7.5c-44 0 -77.833 -8.83301 -101.5 -26.5s-35.5 -42.5 -35.5 -74.5c0 -31.333 11.667 -55.666 35 -72.999s61.333 -33.333 114 -48
c32 -9.33301 61 -19.666 87 -30.999s48.167 -25.333 66.5 -42s32.333 -36.5 42 -59.5s14.5 -50.833 14.5 -83.5c0 -70.667 -23 -124.667 -69 -162s-112.333 -56 -199 -56zM121.999 967.999l174 -75l173 75v-94l-174 -75l-173 75v94z" />
    <glyph glyph-name="scaron" unicode="&#x161;" horiz-adv-x="474" 
d="M66 787l174 -75l173 75v-94l-174 -75l-173 75v94zM225 -11c-53.333 0 -115.334 8.00293 -186.001 24.0029v97c32 -8 63.167 -14.333 93.5 -19s59.166 -7 86.499 -7c63.333 0 95 21.667 95 65c0 21.333 -7.5 37.166 -22.5 47.499s-37.5 18.166 -67.5 23.499
c-19.333 3.33301 -39.666 7.33301 -60.999 12s-40.833 12.5 -58.5 23.5s-32.167 26.667 -43.5 47s-17 48.166 -17 83.499c0 52 18 92.667 54 122s86.333 44 151 44c24 0 49.167 -1.66699 75.5 -5s58.166 -8.33301 95.499 -15l-4 -100
c-34 7.33301 -62.833 12.666 -86.5 15.999s-44.834 5 -63.501 5c-32 0 -56.167 -5.5 -72.5 -16.5s-24.5 -26.5 -24.5 -46.5c0 -24 9 -40.333 27 -49s42.667 -15.667 74 -21c24 -4 46.333 -9.5 67 -16.5s38.834 -16.5 54.501 -28.5s27.834 -27.5 36.501 -46.5
s13 -42.833 13 -71.5c0 -53.333 -18.667 -94.666 -56 -123.999s-90.666 -44 -159.999 -44z" />
    <glyph glyph-name="uni0162" unicode="&#x162;" horiz-adv-x="586" 
d="M225 630h-208v110h552v-110h-209v-630h-20c16 -22.667 27 -42.167 33 -58.5s9 -33.5 9 -51.5c0 -34.667 -10.667 -61.667 -32 -81s-51 -29 -89 -29c-13.333 0 -27.833 1.16699 -43.5 3.5s-31.5 5.16602 -47.5 8.49902v81c11.333 -3.33301 23.333 -6 36 -8s24 -3 34 -3
c18.667 0 32 3.83301 40 11.5s12 18.834 12 33.501c0 24.667 -12.667 55.667 -38 93h-29v630z" />
    <glyph glyph-name="uni0163" unicode="&#x163;" horiz-adv-x="404" 
d="M194 -220c-13.333 0 -27.8311 1.16504 -43.498 3.49805s-31.5 5.16602 -47.5 8.49902v81c11.333 -3.33301 23.333 -6 36 -8s24 -3 34 -3c18.667 0 32 3.83301 40 11.5s12 18.834 12 33.501c0 13.333 -3.83301 29 -11.5 47s-20.167 38.333 -37.5 61
c-42.667 26.667 -64 72 -64 136v277h-97v112h105l19 147l104 13v-160h137v-112h-136v-248c0 -31.333 6.16699 -53.666 18.5 -66.999s31.833 -20 58.5 -20c8.66699 0 18.167 0.833008 28.5 2.5s21.166 4.16699 32.499 7.5v-100
c-14.667 -3.33301 -30.834 -6.16602 -48.501 -8.49902s-35.5 -3.5 -53.5 -3.5c13.333 -20 22.5 -37.667 27.5 -53s7.5 -31.333 7.5 -48c0 -34.667 -10.667 -61.667 -32 -81s-51 -29 -89 -29z" />
    <glyph glyph-name="Tcaron" unicode="&#x164;" horiz-adv-x="586" 
d="M122 968l174 -75l173 75v-94l-174 -75l-173 75v94zM225 630h-208v110h552v-110h-209v-630h-135v630z" />
    <glyph glyph-name="tcaron" unicode="&#x165;" horiz-adv-x="398" 
d="M282 -9c-113.333 0 -170 53.3311 -170 159.998v277h-97v112h105l19 147l104 13v-160h106v-112h-105v-248c0 -31.333 6.16699 -53.666 18.5 -66.999s31.833 -20 58.5 -20c8.66699 0 18.167 0.833008 28.5 2.5s21.166 4.16699 32.499 7.5v-100
c-14.667 -3.33301 -30.667 -6.16602 -48 -8.49902s-34.666 -3.5 -51.999 -3.5zM316 807.998h105l-36 -228h-69v228z" />
    <glyph glyph-name="Tbar" unicode="&#x166;" horiz-adv-x="595" 
d="M100 415h129v215h-208v110h552v-110h-209v-215h134v-78h-134v-337h-135v337h-129v78z" />
    <glyph glyph-name="tbar" unicode="&#x167;" horiz-adv-x="410" 
d="M24 331l93 -0.00195312v97h-97v112h105l19 147l104 13v-160h137v-112h-136v-97h113v-79h-113v-72c0 -31.333 6.16699 -53.666 18.5 -66.999s31.833 -20 58.5 -20c8.66699 0 18.167 0.833008 28.5 2.5s21.166 4.16699 32.499 7.5v-100
c-14.667 -3.33301 -30.667 -6.16602 -48 -8.49902s-34.666 -3.5 -51.999 -3.5c-113.333 0 -170 53.333 -170 160v101h-93v79z" />
    <glyph glyph-name="Utilde" unicode="&#x168;" horiz-adv-x="738" 
d="M166 852c19.333 32.667 41.168 57.5 65.501 74.5s48.166 25.5 71.499 25.5c15.333 0 30 -2.16699 44 -6.5s27.833 -9 41.5 -14s27.5 -9.5 41.5 -13.5s28.333 -6 43 -6c14 0 27.667 3 41 9s27.666 15.667 42.999 29l24 -26c-18 -33.333 -39.5 -58.5 -64.5 -75.5
s-49.167 -25.5 -72.5 -25.5c-14.667 0 -29 2 -43 6s-28 8.5 -42 13.5s-28 9.5 -42 13.5s-28 6 -42 6c-14.667 0 -28.667 -2.83301 -42 -8.5s-27.666 -15.167 -42.999 -28.5zM369.002 -10c-55.333 0 -102.166 6.16699 -140.499 18.5s-69.5 31 -93.5 56
s-41.333 56.833 -52 95.5s-16 84.334 -16 137.001v443h134v-442c0 -68.667 13.5 -118.5 40.5 -149.5s69.5 -46.5 127.5 -46.5c58.667 0 101.167 15.333 127.5 46s39.5 80.667 39.5 150v442h136v-443c0 -52.667 -5.5 -98.334 -16.5 -137.001s-28.5 -70.5 -52.5 -95.5
s-55.333 -43.667 -94 -56s-85.334 -18.5 -140.001 -18.5z" />
    <glyph glyph-name="utilde" unicode="&#x169;" horiz-adv-x="596" 
d="M202 -10c-46.667 0 -82.167 12.668 -106.5 38.001s-36.5 61.666 -36.5 108.999v403h132v-363c0 -28.667 5 -49.167 15 -61.5s27 -18.5 51 -18.5c22 0 45.167 4.5 69.5 13.5s49.166 20.167 74.499 33.5v396h132v-540h-111l-8 61h-4c-23.333 -13.333 -44 -24.5 -62 -33.5
s-34.667 -16.167 -50 -21.5s-30.666 -9.33301 -45.999 -12s-32 -4 -50 -4zM94 666.001c19.333 32 41 56 65 72s47.667 24 71 24c15.333 0 30.166 -2.33301 44.499 -7s28.333 -9.83398 42 -15.501s27.334 -10.834 41.001 -15.501s27.834 -7 42.501 -7c14 0 27.5 3 40.5 9
s26.5 16 40.5 30l28 -32c-18.667 -32 -40.334 -56.167 -65.001 -72.5s-49 -24.5 -73 -24.5c-14.667 0 -29 2.33301 -43 7s-28 9.83398 -42 15.501s-28 10.834 -42 15.501s-28 7 -42 7s-27.5 -3 -40.5 -9s-26.5 -15.667 -40.5 -29z" />
    <glyph glyph-name="Umacron" unicode="&#x16a;" horiz-adv-x="738" 
d="M194 931h337v-91h-337v91zM369 -10c-55.333 0 -102.166 6.16699 -140.499 18.5s-69.5 31 -93.5 56s-41.333 56.833 -52 95.5s-16 84.334 -16 137.001v443h134v-442c0 -68.667 13.5 -118.5 40.5 -149.5s69.5 -46.5 127.5 -46.5c58.667 0 101.167 15.333 127.5 46
s39.5 80.667 39.5 150v442h136v-443c0 -52.667 -5.5 -98.334 -16.5 -137.001s-28.5 -70.5 -52.5 -95.5s-55.333 -43.667 -94 -56s-85.334 -18.5 -140.001 -18.5z" />
    <glyph glyph-name="umacron" unicode="&#x16b;" horiz-adv-x="596" 
d="M202 -10c-46.667 0 -82.167 12.668 -106.5 38.001s-36.5 61.666 -36.5 108.999v403h132v-363c0 -28.667 5 -49.167 15 -61.5s27 -18.5 51 -18.5c22 0 45.167 4.5 69.5 13.5s49.166 20.167 74.499 33.5v396h132v-540h-111l-8 61h-4c-23.333 -13.333 -44 -24.5 -62 -33.5
s-34.667 -16.167 -50 -21.5s-30.666 -9.33301 -45.999 -12s-32 -4 -50 -4zM123 728.001h342v-88h-342v88z" />
    <glyph glyph-name="Ubreve" unicode="&#x16c;" horiz-adv-x="738" 
d="M366 807c-65.333 0 -113.333 15.168 -144 45.501s-46 70.166 -46 119.499h92c0 -32 7.5 -56 22.5 -72s40.167 -24 75.5 -24s60.5 8 75.5 24s22.5 40 22.5 72h93c0 -50 -15.5 -90 -46.5 -120s-79.167 -45 -144.5 -45zM369 -9.99902
c-55.333 0 -102.166 6.16699 -140.499 18.5s-69.5 31 -93.5 56s-41.333 56.833 -52 95.5s-16 84.334 -16 137.001v443h134v-442c0 -68.667 13.5 -118.5 40.5 -149.5s69.5 -46.5 127.5 -46.5c58.667 0 101.167 15.333 127.5 46s39.5 80.667 39.5 150v442h136v-443
c0 -52.667 -5.5 -98.334 -16.5 -137.001s-28.5 -70.5 -52.5 -95.5s-55.333 -43.667 -94 -56s-85.334 -18.5 -140.001 -18.5z" />
    <glyph glyph-name="ubreve" unicode="&#x16d;" horiz-adv-x="596" 
d="M202 -10c-46.667 0 -82.167 12.668 -106.5 38.001s-36.5 61.666 -36.5 108.999v403h132v-363c0 -28.667 5 -49.167 15 -61.5s27 -18.5 51 -18.5c22 0 45.167 4.5 69.5 13.5s49.166 20.167 74.499 33.5v396h132v-540h-111l-8 61h-4c-23.333 -13.333 -44 -24.5 -62 -33.5
s-34.667 -16.167 -50 -21.5s-30.666 -9.33301 -45.999 -12s-32 -4 -50 -4zM292 615.001c-65.333 0 -113.169 14.5 -143.502 43.5s-45.833 68.167 -46.5 117.5h91c0.666992 -60.667 33.667 -91 99 -91c66 0 99 30.333 99 91h92
c-1.33301 -49.333 -17.166 -88.5 -47.499 -117.5s-78.166 -43.5 -143.499 -43.5z" />
    <glyph glyph-name="Uring" unicode="&#x16e;" horiz-adv-x="738" 
d="M369 -10c-55.333 0 -102.166 6.16699 -140.499 18.5s-69.5 31 -93.5 56s-41.333 56.833 -52 95.5s-16 84.334 -16 137.001v443h134v-442c0 -68.667 13.5 -118.5 40.5 -149.5s69.5 -46.5 127.5 -46.5c58.667 0 101.167 15.333 127.5 46s39.5 80.667 39.5 150v442h136v-443
c0 -52.667 -5.5 -98.334 -16.5 -137.001s-28.5 -70.5 -52.5 -95.5s-55.333 -43.667 -94 -56s-85.334 -18.5 -140.001 -18.5zM365 783c-36 0 -65.333 10.333 -88 31s-34 47 -34 79c0 32.667 11.333 59.5 34 80.5s52 31.5 88 31.5s65.167 -10.5 87.5 -31.5
s33.5 -47.833 33.5 -80.5c0 -32 -11.167 -58.333 -33.5 -79s-51.5 -31 -87.5 -31zM365 835c22 0 38 5 48 15s15 24.333 15 43c0 19.333 -5 34.166 -15 44.499s-26 15.5 -48 15.5c-22.667 0 -39 -5.16699 -49 -15.5s-15 -25.166 -15 -44.499c0 -18.667 5 -33 15 -43
s26.333 -15 49 -15z" />
    <glyph glyph-name="uring" unicode="&#x16f;" horiz-adv-x="596" 
d="M297 596c-36.667 0 -66.335 10.5 -89.002 31.5s-34 47.5 -34 79.5s11.333 58.5 34 79.5s52.334 31.5 89.001 31.5s66.334 -10.5 89.001 -31.5s34 -47.5 34 -79.5s-11.5 -58.5 -34.5 -79.5s-52.5 -31.5 -88.5 -31.5zM296.999 649c20.667 0 36.167 5.16699 46.5 15.5
s15.5 24.5 15.5 42.5s-5.16699 32.167 -15.5 42.5s-25.833 15.5 -46.5 15.5s-36.167 -5.16699 -46.5 -15.5s-15.5 -24.5 -15.5 -42.5s5.16699 -32.167 15.5 -42.5s25.833 -15.5 46.5 -15.5zM201.999 -10c-46.667 0 -82.167 12.668 -106.5 38.001s-36.5 61.666 -36.5 108.999
v403h132v-363c0 -28.667 5 -49.167 15 -61.5s27 -18.5 51 -18.5c22 0 45.167 4.5 69.5 13.5s49.166 20.167 74.499 33.5v396h132v-540h-111l-8 61h-4c-23.333 -13.333 -44 -24.5 -62 -33.5s-34.667 -16.167 -50 -21.5s-30.666 -9.33301 -45.999 -12s-32 -4 -50 -4z" />
    <glyph glyph-name="Uhungarumlaut" unicode="&#x170;" horiz-adv-x="738" 
d="M369 -10c-55.333 0 -102.166 6.16699 -140.499 18.5s-69.5 31 -93.5 56s-41.333 56.833 -52 95.5s-16 84.334 -16 137.001v443h134v-442c0 -68.667 13.5 -118.5 40.5 -149.5s69.5 -46.5 127.5 -46.5c58.667 0 101.167 15.333 127.5 46s39.5 80.667 39.5 150v442h136v-443
c0 -52.667 -5.5 -98.334 -16.5 -137.001s-28.5 -70.5 -52.5 -95.5s-55.333 -43.667 -94 -56s-85.334 -18.5 -140.001 -18.5zM222 806l69 155h125l-109 -167zM403 806l70 155h125l-109 -167z" />
    <glyph glyph-name="uhungarumlaut" unicode="&#x171;" horiz-adv-x="596" 
d="M202 -10c-46.667 0 -82.167 12.668 -106.5 38.001s-36.5 61.666 -36.5 108.999v403h132v-363c0 -28.667 5 -49.167 15 -61.5s27 -18.5 51 -18.5c22 0 45.167 4.5 69.5 13.5s49.166 20.167 74.499 33.5v396h132v-540h-111l-8 61h-4c-23.333 -13.333 -44 -24.5 -62 -33.5
s-34.667 -16.167 -50 -21.5s-30.666 -9.33301 -45.999 -12s-32 -4 -50 -4zM146 621.001l68 185h126l-110 -195zM341 621.001l68 185h126l-110 -195z" />
    <glyph glyph-name="Uogonek" unicode="&#x172;" horiz-adv-x="738" 
d="M365 -213c-81.333 0 -122.001 30.333 -122.001 91c0 41.333 23.333 79.666 70 114.999c-44.667 4 -82.5 13 -113.5 27s-56.333 33.5 -76 58.5s-34 55.667 -43 92s-13.5 78.5 -13.5 126.5v443h134v-442c0 -68.667 13.5 -118.5 40.5 -149.5s69.5 -46.5 127.5 -46.5
c58.667 0 101.167 15.333 127.5 46s39.5 80.667 39.5 150v442h136v-443c0 -93.333 -17.833 -164.666 -53.5 -213.999s-95.167 -79 -178.5 -89c-39.333 -16.667 -67.333 -33.667 -84 -51s-25 -34 -25 -50c0 -20 13 -30 39 -30c10 0 21.833 1.16699 35.5 3.5
s26.5 5.5 38.5 9.5v-77c-25.333 -8 -51.666 -12 -78.999 -12z" />
    <glyph glyph-name="uogonek" unicode="&#x173;" horiz-adv-x="596" 
d="M203 -10c-46.667 0 -82.168 12.667 -106.501 38s-36.5 61.666 -36.5 108.999v403h132v-363c0 -28.667 5 -49.167 15 -61.5s27 -18.5 51 -18.5c22 0 45.167 4.5 69.5 13.5s49.166 20.167 74.499 33.5v396h132v-552c-40 -17.333 -68.667 -34.666 -86 -51.999
s-26 -34 -26 -50c0 -20 13 -30 39 -30c10 0 21.833 1.16699 35.5 3.5s26.5 5.5 38.5 9.5v-77c-25.333 -8 -51.666 -12 -78.999 -12c-81.333 0 -122 30.333 -122 91c0 24 6.83301 46.5 20.5 67.5s36.5 41.5 68.5 61.5l-8 61h-4c-23.333 -13.333 -44 -24.5 -62 -33.5
s-34.667 -16.167 -50 -21.5s-30.666 -9.33301 -45.999 -12s-32 -4 -50 -4z" />
    <glyph glyph-name="Wcircumflex" unicode="&#x174;" horiz-adv-x="1008" 
d="M12 740h145l102 -469l23 -125h9l28 125l119 469h136l116 -469l26 -125h10l24 125l104 469h144l-187 -740h-172l-107 421l-23 143h-8l-23 -144l-110 -420h-172zM330 898l173 74l174 -74v-94l-173 74l-174 -74v94z" />
    <glyph glyph-name="wcircumflex" unicode="&#x175;" horiz-adv-x="790" 
d="M223 713l173 75l174 -75v-93l-174 74l-173 -74v93zM17 535v5h127l72 -337l13 -72h9l15 72l82 337h120l83 -337l15 -72h9l13 72l71 337h126v-5l-134 -535h-147l-81 320l-11 63h-9l-11 -63l-79 -320h-147z" />
    <glyph glyph-name="Ycircumflex" unicode="&#x176;" horiz-adv-x="654" 
d="M260 244l-264 496h148l152 -305l26 -66h9l27 66l152 305h147l-262 -493v-247h-135v244zM154 898l173 74l174 -74v-94l-173 74l-174 -74v94z" />
    <glyph glyph-name="ycircumflex" unicode="&#x177;" horiz-adv-x="569" 
d="M144 -199v10l74 194l-210 522v13h139l111 -319l22 -84h8l23 84l113 319h137v-13l-291 -747zM117 713l173 75l174 -75v-93l-174 74l-173 -74v93z" />
    <glyph glyph-name="Ydieresis" unicode="&#x178;" horiz-adv-x="654" 
d="M260 244l-264 496h148l152 -305l26 -66h9l27 66l152 305h147l-262 -493v-247h-135v244zM198 808c-26 0 -45.167 6 -57.5 18s-18.5 31 -18.5 57s6.16699 44.833 18.5 56.5s31.5 17.5 57.5 17.5c50.667 0 76 -24.667 76 -74c0 -26 -6.16699 -45 -18.5 -57
s-31.5 -18 -57.5 -18zM457 808c-26.667 0 -46 6 -58 18s-18 31 -18 57s6 44.833 18 56.5s31.333 17.5 58 17.5c50.667 0 76 -24.667 76 -74c0 -26 -6.16699 -45 -18.5 -57s-31.5 -18 -57.5 -18z" />
    <glyph glyph-name="Zacute" unicode="&#x179;" horiz-adv-x="587" 
d="M30 106l354 516v7h-341v111h501v-104l-354 -519v-7h367v-110h-527v106zM249 804l70 159h136l-109 -166z" />
    <glyph glyph-name="zacute" unicode="&#x17a;" horiz-adv-x="495" 
d="M205 617l68 187h135l-109 -195zM33 87l258 344v7h-249v102h410v-85l-253 -345v-8h263v-102h-429v87z" />
    <glyph glyph-name="Zdotaccent" unicode="&#x17b;" horiz-adv-x="587" 
d="M297 804c-26.667 0 -46 5.83301 -58 17.5s-18 30.5 -18 56.5s6 45 18 57s31.333 18 58 18c51.333 0 77 -25 77 -75c0 -49.333 -25.667 -74 -77 -74zM30 106l354 516v7h-341v111h501v-104l-354 -519v-7h367v-110h-527v106z" />
    <glyph glyph-name="zdotaccent" unicode="&#x17c;" horiz-adv-x="495" 
d="M33 87l258 344v7h-249v102h410v-85l-253 -345v-8h263v-102h-429v87zM245 622c-26 0 -45.167 5.83301 -57.5 17.5s-18.5 30.5 -18.5 56.5s6.16699 44.833 18.5 56.5s31.5 17.5 57.5 17.5c51.333 0 77 -24.667 77 -74s-25.667 -74 -77 -74z" />
    <glyph glyph-name="Zcaron" unicode="&#x17d;" horiz-adv-x="587" 
d="M126 968l174 -75l173 75v-94l-174 -75l-173 75v94zM30 106l354 516v7h-341v111h501v-104l-354 -519v-7h367v-110h-527v106z" />
    <glyph glyph-name="zcaron" unicode="&#x17e;" horiz-adv-x="495" 
d="M78 787l174 -75l173 75v-94l-174 -75l-173 75v94zM33 87l258 344v7h-249v102h410v-85l-253 -345v-8h263v-102h-429v87z" />
    <glyph glyph-name="Schwa" unicode="&#x18f;" horiz-adv-x="678" 
d="M37 322c0 17.333 0.335938 33.668 1.00293 49.001s2.33398 31.666 5.00098 48.999h460c-2 40.667 -7.33301 74.667 -16 102s-21.167 49.5 -37.5 66.5s-36.833 29.167 -61.5 36.5s-54.334 11 -89.001 11c-32 0 -66.833 -2.66699 -104.5 -8s-78.5 -14 -122.5 -26
c0 0.666992 -0.333008 6.66699 -1 18s-1.33398 23.666 -2.00098 36.999s-1.33398 25.5 -2.00098 36.5s-1 16.833 -1 17.5c17.333 6.66699 36.166 12.5 56.499 17.5s41.333 9.33301 63 13s43.167 6.5 64.5 8.5s41.333 3 60 3c108.667 0 190.5 -31.167 245.5 -93.5
s82.5 -155.166 82.5 -278.499c0 -124.667 -27 -221 -81 -289s-133.667 -102 -239 -102c-91.333 0 -161 27.167 -209 81.5s-72 137.833 -72 250.5zM322.003 98.002c60 0 104.333 17.5 133 52.5s45 93.167 49 174.5h-339c0 -40 2.5 -74.333 7.5 -103s13.667 -52.167 26 -70.5
s28.5 -31.833 48.5 -40.5s45 -13 75 -13z" />
    <glyph glyph-name="florin" unicode="&#x192;" horiz-adv-x="427" 
d="M132 429l-102 -0.00195312v111h102v28c0 46 4.66699 84.333 14 115s24.666 55.334 45.999 74.001s49.833 32.334 85.5 41.001s79.834 14 132.501 16l7 -98c-30 -2 -55 -5.33301 -75 -10s-35.667 -12 -47 -22s-19.5 -23.333 -24.5 -40s-7.5 -37.667 -7.5 -63v-41h131v-111
h-131v-603l-131 -46v649z" />
    <glyph glyph-name="uni01C4" unicode="&#x1c4;" horiz-adv-x="1295" 
d="M834 968l174 -75l173 75v-94l-174 -75l-173 75v94zM738 106l354 516v7h-341v111h501v-104l-354 -519v-7h367v-110h-527v106zM261 -12c-33.333 0 -66.332 0.999023 -98.999 2.99902s-62 5 -88 9v737c43.333 4 83 7.16699 119 9.5s67.333 3.5 94 3.5
c66.667 0 124 -7.33301 172 -22s87.5 -37.5 118.5 -68.5s53.833 -70.5 68.5 -118.5s22 -105.333 22 -172c0 -67.333 -7.66699 -125.166 -23 -173.499s-39.333 -87.833 -72 -118.5s-74.834 -53.167 -126.501 -67.5s-113.5 -21.5 -185.5 -21.5zM308.001 96.999
c40 0 73.999 4.83301 101.999 14.5s50.833 25.334 68.5 47.001s30.5 49.834 38.5 84.501s12 77 12 127c0 49.333 -4 91.166 -12 125.499s-20.833 62.166 -38.5 83.499s-40.667 36.833 -69 46.5s-62.833 14.5 -103.5 14.5c-14.667 0 -30.5 -0.5 -47.5 -1.5
s-34.167 -2.5 -51.5 -4.5v-529c19.333 -2.66699 36.833 -4.66699 52.5 -6s31.834 -2 48.501 -2z" />
    <glyph glyph-name="uni01C5" unicode="&#x1c5;" horiz-adv-x="1203" 
d="M787 787l174 -75l173 75v-94l-174 -75l-173 75v94zM741 87l258 344v7h-249v102h410v-85l-253 -345v-8h263v-102h-429v87zM261 -12c-33.333 0 -66.332 0.999023 -98.999 2.99902s-62 5 -88 9v737c43.333 4 83 7.16699 119 9.5s67.333 3.5 94 3.5
c66.667 0 124 -7.33301 172 -22s87.5 -37.5 118.5 -68.5s53.833 -70.5 68.5 -118.5s22 -105.333 22 -172c0 -67.333 -7.66699 -125.166 -23 -173.499s-39.333 -87.833 -72 -118.5s-74.834 -53.167 -126.501 -67.5s-113.5 -21.5 -185.5 -21.5zM308.001 96.999
c40 0 73.999 4.83301 101.999 14.5s50.833 25.334 68.5 47.001s30.5 49.834 38.5 84.501s12 77 12 127c0 49.333 -4 91.166 -12 125.499s-20.833 62.166 -38.5 83.499s-40.667 36.833 -69 46.5s-62.833 14.5 -103.5 14.5c-14.667 0 -30.5 -0.5 -47.5 -1.5
s-34.167 -2.5 -51.5 -4.5v-529c19.333 -2.66699 36.833 -4.66699 52.5 -6s31.834 -2 48.501 -2z" />
    <glyph glyph-name="uni01C6" unicode="&#x1c6;" horiz-adv-x="1092" 
d="M675 787l174 -75l173 75v-94l-174 -75l-173 75v94zM630 87l258 344v7h-249v102h410v-85l-253 -345v-8h263v-102h-429v87zM247 -10c-69.333 0 -121.5 22.168 -156.5 66.501s-52.5 112.166 -52.5 203.499c0 96.667 24 169.167 72 217.5s114.667 72.5 200 72.5
c16 0 31.5 -0.833008 46.5 -2.5s30.5 -3.16699 46.5 -4.5v265h131v-808h-117l-10 62h-6c-34 -48 -85.333 -72 -154 -72zM286 88.001c34 0 62 10.334 84 31.001s33 53 33 97v230c-14.667 3.33301 -30 5.83301 -46 7.5s-32.667 2.5 -50 2.5c-24 0 -44.667 -3.16699 -62 -9.5
s-31.5 -16.833 -42.5 -31.5s-19 -33.667 -24 -57s-7.5 -52.333 -7.5 -87c0 -66.667 8.83301 -113.834 26.5 -141.501s47.167 -41.5 88.5 -41.5z" />
    <glyph glyph-name="uni01C7" unicode="&#x1c7;" horiz-adv-x="799" 
d="M515 -159c14.667 33.333 27 64.002 37 92.002s18 55.333 24 82s10.333 54.167 13 82.5s4 59.5 4 93.5v549h134v-559c0 -34 -2.16699 -66 -6.5 -96s-11.333 -59.833 -21 -89.5s-22.5 -60.334 -38.5 -92.001s-35.667 -65.834 -59 -102.501zM74 740.002h134v-631h296v-109
h-430v740z" />
    <glyph glyph-name="uni01C8" unicode="&#x1c8;" horiz-adv-x="774" 
d="M644 632c-26 0 -45 6 -57 18s-18 30.667 -18 56s6 43.833 18 55.5s31 17.5 57 17.5c26.667 0 46 -6 58 -18s18 -30.333 18 -55c0 -25.333 -5.83301 -44 -17.5 -56s-31.167 -18 -58.5 -18zM526 -196c18.667 47.333 32.5 96.668 41.5 148.001s13.5 111.666 13.5 180.999v33
v68.5v88v91c0 29 -0.166992 55 -0.5 78s-0.5 39.167 -0.5 48.5h131v-460c-2 -52 -11 -104 -27 -156s-37.333 -100 -64 -144zM74 740.002h134v-631h296v-109h-430v740z" />
    <glyph glyph-name="uni01C9" unicode="&#x1c9;" horiz-adv-x="516" 
d="M386 632c-26 0 -45 6 -57 18s-18 30.667 -18 56s6 43.833 18 55.5s31 17.5 57 17.5c26.667 0 46 -6 58 -18s18 -30.333 18 -55c0 -25.333 -5.83301 -44 -17.5 -56s-31.167 -18 -58.5 -18zM268 -196c18.667 47.333 32.5 96.668 41.5 148.001s13.5 111.666 13.5 180.999v33
v68.5v88v91c0 29 -0.166992 55 -0.5 78s-0.5 39.167 -0.5 48.5h131v-460c-2 -52 -11 -104 -27 -156s-37.333 -100 -64 -144zM64 808.002h132v-808h-132v808z" />
    <glyph glyph-name="uni01CA" unicode="&#x1ca;" horiz-adv-x="1038" 
d="M754 -159c14.667 33.333 27 64.002 37 92.002s18 55.333 24 82s10.333 54.167 13 82.5s4 59.5 4 93.5v549h134v-559c0 -34 -2.16699 -66 -6.5 -96s-11.333 -59.833 -21 -89.5s-22.5 -60.334 -38.5 -92.001s-35.667 -65.834 -59 -102.501zM74 740.002h111l318 -444l52 -84
h8v528h120v-740h-113l-314 441l-55 87h-8v-528h-119v740z" />
    <glyph glyph-name="uni01CB" unicode="&#x1cb;" horiz-adv-x="1012" 
d="M883 632c-26 0 -45 6 -57 18s-18 30.667 -18 56s6 43.833 18 55.5s31 17.5 57 17.5c26.667 0 46 -6 58 -18s18 -30.333 18 -55c0 -25.333 -5.83301 -44 -17.5 -56s-31.167 -18 -58.5 -18zM765 -196c18.667 47.333 32.5 96.668 41.5 148.001s13.5 111.666 13.5 180.999v33
v68.5v88v91c0 29 -0.166992 55 -0.5 78s-0.5 39.167 -0.5 48.5h131v-460c-2 -52 -11 -104 -27 -156s-37.333 -100 -64 -144zM74 740.002h111l318 -444l52 -84h8v528h120v-740h-113l-314 441l-55 87h-8v-528h-119v740z" />
    <glyph glyph-name="uni01CC" unicode="&#x1cc;" horiz-adv-x="852" 
d="M723 632c-26 0 -45 6 -57 18s-18 30.667 -18 56s6 43.833 18 55.5s31 17.5 57 17.5c26.667 0 46 -6 58 -18s18 -30.333 18 -55c0 -25.333 -5.83301 -44 -17.5 -56s-31.167 -18 -58.5 -18zM605 -196c18.667 47.333 32.5 96.668 41.5 148.001s13.5 111.666 13.5 180.999v33
v68.5v88v91c0 29 -0.166992 55 -0.5 78s-0.5 39.167 -0.5 48.5h131v-460c-2 -52 -11 -104 -27 -156s-37.333 -100 -64 -144zM63 540.002h111l7 -61h6c47.333 25.333 87 43.5 119 54.5s62.667 16.5 92 16.5c44 0 78 -12.5 102 -37.5s36 -61.5 36 -109.5v-403h-131v359
c0 30 -5.5 51.167 -16.5 63.5s-27.5 18.5 -49.5 18.5c-19.333 0 -41.5 -4 -66.5 -12s-50.833 -18.667 -77.5 -32v-397h-132v540z" />
    <glyph glyph-name="Oogonek" unicode="&#x1ea;" horiz-adv-x="731" 
d="M363 -211c-81.333 0 -122.003 30.3311 -122.003 90.998c0 41.333 23 79 69 113c-89.333 10.667 -156.5 47.334 -201.5 110.001s-67.5 151.334 -67.5 266.001c0 126.667 27.333 221.834 82 285.501s135.334 95.5 242.001 95.5s187.5 -31.833 242.5 -95.5
s82.5 -158.834 82.5 -285.501c0 -111.333 -21.167 -198 -63.5 -260s-105.166 -99.667 -188.499 -113c-39.333 -17.333 -67.333 -34.5 -84 -51.5s-25 -33.5 -25 -49.5c0 -20 13 -30 39 -30c10 0 21.833 1.16699 35.5 3.5s26.5 5.5 38.5 9.5v-77
c-25.333 -8 -51.666 -12 -78.999 -12zM364.997 100.998c33.333 0 61.835 5 85.502 15s43 25.667 58 47s26 49 33 83s10.5 75 10.5 123c0 96 -14.833 165.167 -44.5 207.5s-77.167 63.5 -142.5 63.5c-32.667 0 -60.834 -5 -84.501 -15s-43 -26 -58 -48s-26 -50.167 -33 -84.5
s-10.5 -75.5 -10.5 -123.5s3.5 -89 10.5 -123s18 -61.667 33 -83s34.167 -37 57.5 -47s51.666 -15 84.999 -15z" />
    <glyph glyph-name="oogonek" unicode="&#x1eb;" horiz-adv-x="589" 
d="M310 -206c-81.333 0 -122.002 30.3311 -122.002 90.998c0 39.333 20.333 75.333 61 108c-69.333 8 -122 35.333 -158 82s-54 111.667 -54 195c0 91.333 21.833 160.833 65.5 208.5s107.834 71.5 192.501 71.5c84 0 147.833 -23.833 191.5 -71.5
s65.5 -117.167 65.5 -208.5c0 -72.667 -13.833 -131.667 -41.5 -177s-68.5 -75.666 -122.5 -90.999c-40 -17.333 -68.667 -34.666 -86 -51.999s-26 -34 -26 -50c0 -20 13 -30 39 -30c10 0 21.833 1.16699 35.5 3.5s26.5 5.5 38.5 9.5v-77
c-25.333 -8 -51.666 -12 -78.999 -12zM294.998 92.998c22 0 40.833 3.16699 56.5 9.5s28.5 16.5 38.5 30.5s17.333 32.167 22 54.5s7 49.833 7 82.5s-2.33301 60.167 -7 82.5s-12 40.5 -22 54.5s-22.833 24.167 -38.5 30.5s-34.5 9.5 -56.5 9.5
c-22.667 0 -41.834 -3.16699 -57.501 -9.5s-28.5 -16.5 -38.5 -30.5s-17.333 -32.167 -22 -54.5s-7 -49.833 -7 -82.5s2.33301 -60.167 7 -82.5s12 -40.5 22 -54.5s22.833 -24.167 38.5 -30.5s34.834 -9.5 57.501 -9.5z" />
    <glyph glyph-name="uni01F1" unicode="&#x1f1;" horiz-adv-x="1283" 
d="M726 106l354 516v7h-341v111h501v-104l-354 -519v-7h367v-110h-527v106zM261 -12c-33.333 0 -66.332 0.999023 -98.999 2.99902s-62 5 -88 9v737c43.333 4 83 7.16699 119 9.5s67.333 3.5 94 3.5c66.667 0 124 -7.33301 172 -22s87.5 -37.5 118.5 -68.5
s53.833 -70.5 68.5 -118.5s22 -105.333 22 -172c0 -67.333 -7.66699 -125.166 -23 -173.499s-39.333 -87.833 -72 -118.5s-74.834 -53.167 -126.501 -67.5s-113.5 -21.5 -185.5 -21.5zM308.001 96.999c40 0 73.999 4.83301 101.999 14.5s50.833 25.334 68.5 47.001
s30.5 49.834 38.5 84.501s12 77 12 127c0 49.333 -4 91.166 -12 125.499s-20.833 62.166 -38.5 83.499s-40.667 36.833 -69 46.5s-62.833 14.5 -103.5 14.5c-14.667 0 -30.5 -0.5 -47.5 -1.5s-34.167 -2.5 -51.5 -4.5v-529c19.333 -2.66699 36.833 -4.66699 52.5 -6
s31.834 -2 48.501 -2z" />
    <glyph glyph-name="uni01F2" unicode="&#x1f2;" horiz-adv-x="1201" 
d="M739 87l258 344v7h-249v102h410v-85l-253 -345v-8h263v-102h-429v87zM261 -12c-33.333 0 -66.332 0.999023 -98.999 2.99902s-62 5 -88 9v737c43.333 4 83 7.16699 119 9.5s67.333 3.5 94 3.5c66.667 0 124 -7.33301 172 -22s87.5 -37.5 118.5 -68.5
s53.833 -70.5 68.5 -118.5s22 -105.333 22 -172c0 -67.333 -7.66699 -125.166 -23 -173.499s-39.333 -87.833 -72 -118.5s-74.834 -53.167 -126.501 -67.5s-113.5 -21.5 -185.5 -21.5zM308.001 96.999c40 0 73.999 4.83301 101.999 14.5s50.833 25.334 68.5 47.001
s30.5 49.834 38.5 84.501s12 77 12 127c0 49.333 -4 91.166 -12 125.499s-20.833 62.166 -38.5 83.499s-40.667 36.833 -69 46.5s-62.833 14.5 -103.5 14.5c-14.667 0 -30.5 -0.5 -47.5 -1.5s-34.167 -2.5 -51.5 -4.5v-529c19.333 -2.66699 36.833 -4.66699 52.5 -6
s31.834 -2 48.501 -2z" />
    <glyph glyph-name="uni01F3" unicode="&#x1f3;" horiz-adv-x="1092" 
d="M630 87l258 344v7h-249v102h410v-85l-253 -345v-8h263v-102h-429v87zM247 -10c-69.333 0 -121.5 22.168 -156.5 66.501s-52.5 112.166 -52.5 203.499c0 96.667 24 169.167 72 217.5s114.667 72.5 200 72.5c16 0 31.5 -0.833008 46.5 -2.5s30.5 -3.16699 46.5 -4.5v265
h131v-808h-117l-10 62h-6c-34 -48 -85.333 -72 -154 -72zM286 88.001c34 0 62 10.334 84 31.001s33 53 33 97v230c-14.667 3.33301 -30 5.83301 -46 7.5s-32.667 2.5 -50 2.5c-24 0 -44.667 -3.16699 -62 -9.5s-31.5 -16.833 -42.5 -31.5s-19 -33.667 -24 -57
s-7.5 -52.333 -7.5 -87c0 -66.667 8.83301 -113.834 26.5 -141.501s47.167 -41.5 88.5 -41.5z" />
    <glyph glyph-name="Gacute" unicode="&#x1f4;" horiz-adv-x="648" 
d="M302 804l70 159h136l-109 -166zM384 -10c-116.667 0 -203.003 31 -259.003 93s-84 157.333 -84 286c0 129.333 29.667 225.166 89 287.499s150 93.5 272 93.5c28.667 0 59.334 -1.83301 92.001 -5.5s64 -9.16699 94 -16.5v-109c-38 7.33301 -70.833 12.5 -98.5 15.5
s-53.167 4.5 -76.5 4.5c-43.333 0 -79.833 -4.83301 -109.5 -14.5s-53.667 -25.167 -72 -46.5s-31.666 -49.166 -39.999 -83.499s-12.5 -76.166 -12.5 -125.499c0 -48.667 3.83301 -90 11.5 -124s20 -61.5 37 -82.5s38.833 -36.333 65.5 -46s59.334 -14.5 98.001 -14.5
c11.333 0 24 0.5 38 1.5s28.333 2.16699 43 3.5v269h123v-359c-38 -8.66699 -75.333 -15.334 -112 -20.001s-69.667 -7 -99 -7z" />
    <glyph glyph-name="gacute" unicode="&#x1f5;" horiz-adv-x="596" 
d="M262 617l68 187h135l-109 -195zM262 -220c-32 0 -64.3301 1.99805 -96.9971 5.99805s-62 9.66699 -88 17l8 98c24.667 -6 50.5 -11 77.5 -15s53.5 -6 79.5 -6c25.333 0 48.333 2.83301 69 8.5s38.167 14.834 52.5 27.501s25.5 29.334 33.5 50.001s12 46.334 12 77.001v38
h-6c-34 -48 -85.333 -72 -154 -72c-70 0 -122.667 20.667 -158 62s-53 105.666 -53 192.999c0 94.667 24.167 166 72.5 214s115.166 72 200.499 72c31.333 0 64.166 -2.5 98.499 -7.5s76.166 -14.167 125.499 -27.5v-451c0 -52 -6.83301 -96 -20.5 -132
s-32.5 -65.333 -56.5 -88s-52.667 -39 -86 -49s-70 -15 -110 -15zM287.003 103.998c34.667 0 62.668 10.166 84.001 30.499s32 51.5 32 93.5v218c-14.667 3.33301 -29.834 5.83301 -45.501 7.5s-32.167 2.5 -49.5 2.5c-24 0 -44.667 -3.16699 -62 -9.5
s-31.5 -16.666 -42.5 -30.999s-19 -33 -24 -56s-7.5 -51.167 -7.5 -84.5c0 -62 8.83301 -106 26.5 -132s47.167 -39 88.5 -39z" />
    <glyph glyph-name="Aringacute" unicode="&#x1fa;" horiz-adv-x="675" 
d="M3 8l213 658c-22.667 21.333 -34 49.333 -34 84c0 33.333 10.5 61.5 31.5 84.5s49.5 37.5 85.5 43.5l52 110h137l-79 -120c26 -10 46.5 -25.333 61.5 -46s22.5 -44.667 22.5 -72c0 -34.667 -11.667 -62.667 -35 -84l214 -658v-8h-129l-63 193h-286l-62 -193h-129v8z
M337 685c22.667 0 40.834 6 54.501 18s20.5 27.667 20.5 47s-6.83301 34.833 -20.5 46.5s-31.834 17.5 -54.501 17.5c-23.333 0 -41.5 -5.83301 -54.5 -17.5s-19.5 -27.167 -19.5 -46.5s6.66699 -35 20 -47s31.333 -18 54 -18zM448 306l-65 207l-29 98h-33l-29 -99l-66 -206
h222z" />
    <glyph glyph-name="aringacute" unicode="&#x1fb;" horiz-adv-x="537" 
d="M178 -5c-47.333 0 -83.835 13.1689 -109.502 39.502s-38.5 63.166 -38.5 110.499c0 52.667 16.333 92.834 49 120.501s83.334 44.167 152.001 49.5l116 8v21c0 20 -1.66699 36.833 -5 50.5s-9.33301 24.667 -18 33s-20.167 14.166 -34.5 17.499s-32.833 5 -55.5 5
c-10.667 0 -22.5 -0.5 -35.5 -1.5s-26.5 -2.16699 -40.5 -3.5s-28 -3 -42 -5s-27.333 -4.33301 -40 -7l-9 95c34 6.66699 66.667 11.5 98 14.5s61.666 4.5 90.999 4.5c76.667 0 132.834 -14.333 168.501 -43s53.5 -73.334 53.5 -134.001v-370h-108l-12 66h-8
c-25.333 -22 -52.666 -39.333 -81.999 -52s-59.333 -19 -90 -19zM272.998 596.002c-36.667 0 -66.333 10.498 -89 31.498s-34 47.5 -34 79.5c0 28.667 9.16699 52.834 27.5 72.501s42.5 31.834 72.5 36.501l59 163h135l-100 -179c16 -10 28.667 -23 38 -39s14 -34 14 -54
c0 -32 -11.5 -58.5 -34.5 -79.5s-52.5 -31.5 -88.5 -31.5zM230.999 90c18.667 0 38.333 4.83203 59 14.499s39.667 20.167 57 31.5v111l-80 -7c-38 -3.33301 -64.833 -11.166 -80.5 -23.499s-23.5 -31.5 -23.5 -57.5c0 -46 22.667 -69 68 -69zM272.998 648.999
c20.667 0 36.167 5.16699 46.5 15.5s15.5 24.5 15.5 42.5s-5.16699 32.167 -15.5 42.5s-25.833 15.5 -46.5 15.5s-36.167 -5.16699 -46.5 -15.5s-15.5 -24.5 -15.5 -42.5s5.16699 -32.167 15.5 -42.5s25.833 -15.5 46.5 -15.5z" />
    <glyph glyph-name="AEacute" unicode="&#x1fc;" horiz-adv-x="897" 
d="M459 804l70 159h136l-109 -166zM0 8l275 732h570v-109h-303l11 -204h273v-109h-266l12 -209h285v-109h-418l-8 193h-226l-72 -193h-133v8zM248 306h178l-13 334h-40z" />
    <glyph glyph-name="aeacute" unicode="&#x1fd;" horiz-adv-x="852" 
d="M386 617l68 187h135l-109 -195zM605 -11c-91.333 0 -156.666 30.3359 -195.999 91.0029l-7 1c-46 -30.667 -86.5 -52.667 -121.5 -66s-69.5 -20 -103.5 -20c-46 0 -81.833 13.167 -107.5 39.5s-38.5 63.5 -38.5 111.5c0 52 16.167 91.667 48.5 119
s82.833 43.666 151.5 48.999l116 8v36c-0.666992 34.667 -9.33398 58.667 -26.001 72s-47 20 -91 20c-21.333 0 -46 -1.5 -74 -4.5s-54.667 -7.16699 -80 -12.5l-9 95c69.333 12.667 133 19 191 19c82.667 0 137 -25.667 163 -77h8c39.333 51.333 97.333 77 174 77
c141.333 0 212 -80.333 212 -241c0 -17.333 -0.5 -32 -1.5 -44s-2.83301 -23 -5.5 -33h-327c2 -48.667 13.5 -83.834 34.5 -105.501s54.167 -32.5 99.5 -32.5c25.333 0 53.5 2.16699 84.5 6.5s61.167 11.166 90.5 20.499l5 -98c-28 -9.33301 -58.833 -16.833 -92.5 -22.5
s-66.167 -8.5 -97.5 -8.5zM232 90.0029c17.333 0 36.167 4.33398 56.5 13.001s41.5 20.667 63.5 36c-0.666992 2 -1.33398 8.16699 -2.00098 18.5s-1.16699 21.666 -1.5 33.999s-0.666016 24 -0.999023 35s-0.5 18.167 -0.5 21.5l-80 -7
c-38 -3.33301 -64.667 -11.333 -80 -24s-23 -32 -23 -58c0 -46 22.667 -69 68 -69zM697.001 304.004c-1.33301 52.667 -9.66699 90.333 -25 113s-40 34 -74 34c-38 0 -66.5 -12 -85.5 -36s-29.833 -61 -32.5 -111h217z" />
    <glyph glyph-name="Oslashacute" unicode="&#x1fe;" horiz-adv-x="735" 
d="M107 109c-42.667 64 -64.002 150.665 -64.002 259.998c0 126.667 27.333 221.834 82 285.501s135.334 95.5 242.001 95.5c84.667 0 153 -20 205 -60l40 50h102l-87 -109c43.333 -63.333 65 -150.666 65 -261.999c0 -126 -27.333 -220.667 -82 -284s-135.667 -95 -243 -95
c-85.333 0 -153.666 20.333 -204.999 61l-40 -51h-102zM366.998 100.998c33.333 0 61.833 5 85.5 15s43.167 25.667 58.5 47s26.5 49 33.5 83s10.5 75 10.5 123c0 60 -6 110 -18 150l-298 -373c29.333 -30 72 -45 128 -45zM180.998 368.998
c0 -61.333 5.33398 -110.333 16.001 -147l298 372c-30 30.667 -72.667 46 -128 46c-32.667 0 -60.834 -5 -84.501 -15s-43 -26 -58 -48s-26 -50.167 -33 -84.5s-10.5 -75.5 -10.5 -123.5zM310.999 803.998l70 159h136l-109 -166z" />
    <glyph glyph-name="oslashacute" unicode="&#x1ff;" horiz-adv-x="595" 
d="M87 85c-30.667 46.667 -45.999 108.333 -45.999 185c0 89.333 21.167 158.333 63.5 207s106.833 73 193.5 73c65.333 0 118.666 -14.667 159.999 -44l30 34h94l-75 -85c32 -46 48 -107.667 48 -185c0 -90 -21.333 -159.167 -64 -207.5s-107 -72.5 -193 -72.5
c-67.333 0 -121.333 15 -162 45l-30 -35h-94zM298.001 92.999c24 0 44 3.33398 60 10.001s28.667 17 38 31s16 32.167 20 54.5s6 49.5 6 81.5c0 31.333 -2 58.666 -6 81.999l-205 -233c19.333 -17.333 48.333 -26 87 -26zM173.001 270c0 -32 1.99902 -59 5.99902 -81
l204 232c-18 17.333 -46.333 26 -85 26c-24 0 -44.167 -3.33301 -60.5 -10s-29.166 -17 -38.499 -31s-16 -32.167 -20 -54.5s-6 -49.5 -6 -81.5zM246 617l68 187h135l-109 -195z" />
    <glyph glyph-name="Adblgrave" unicode="&#x200;" horiz-adv-x="675" 
d="M2 8l235 732h201l234 -732v-8h-129l-64 196h-284l-63 -196h-130v8zM449 303l-67 210l-39 129h-12l-39 -130l-66 -209h223zM203 794l-109 167h125l70 -155zM385 794l-109 167h124l70 -155z" />
    <glyph glyph-name="adblgrave" unicode="&#x201;" horiz-adv-x="537" 
d="M178 -5c-47.333 0 -83.835 13.1689 -109.502 39.502s-38.5 63.166 -38.5 110.499c0 52.667 16.333 92.834 49 120.501s83.334 44.167 152.001 49.5l116 8v21c0 20 -1.66699 36.833 -5 50.5s-9.33301 24.667 -18 33s-20.167 14.166 -34.5 17.499s-32.833 5 -55.5 5
c-10.667 0 -22.5 -0.5 -35.5 -1.5s-26.5 -2.16699 -40.5 -3.5s-28 -3 -42 -5s-27.333 -4.33301 -40 -7l-9 95c34 6.66699 66.667 11.5 98 14.5s61.666 4.5 90.999 4.5c76.667 0 132.834 -14.333 168.501 -43s53.5 -73.334 53.5 -134.001v-370h-108l-12 66h-8
c-25.333 -22 -52.666 -39.333 -81.999 -52s-59.333 -19 -90 -19zM230.998 90.002c18.667 0 38.333 4.83203 59 14.499s39.667 20.167 57 31.5v111l-80 -7c-38 -3.33301 -64.833 -11.166 -80.5 -23.499s-23.5 -31.5 -23.5 -57.5c0 -46 22.667 -69 68 -69zM141.997 611.001
l-110 195h126l68 -185zM336.997 611.001l-111 195h127l67 -185z" />
    <glyph glyph-name="Ainvertedbreve" unicode="&#x202;" horiz-adv-x="675" 
d="M2 8l235 732h201l234 -732v-8h-129l-64 196h-284l-63 -196h-130v8zM449 303l-67 210l-39 129h-12l-39 -130l-66 -209h223zM436 815c0 32 -7.66797 56 -23.001 72s-40.333 24 -75 24c-35.333 0 -60.666 -8 -75.999 -24s-23 -40 -23 -72h-91c0 24.667 3.83301 47 11.5 67
s19.167 37.167 34.5 51.5s35 25.5 59 33.5s52.333 12 85 12c65.333 0 113.5 -14.833 144.5 -44.5s46.5 -69.5 46.5 -119.5h-93z" />
    <glyph glyph-name="ainvertedbreve" unicode="&#x203;" horiz-adv-x="537" 
d="M178 -5c-47.333 0 -83.835 13.1689 -109.502 39.502s-38.5 63.166 -38.5 110.499c0 52.667 16.333 92.834 49 120.501s83.334 44.167 152.001 49.5l116 8v21c0 20 -1.66699 36.833 -5 50.5s-9.33301 24.667 -18 33s-20.167 14.166 -34.5 17.499s-32.833 5 -55.5 5
c-10.667 0 -22.5 -0.5 -35.5 -1.5s-26.5 -2.16699 -40.5 -3.5s-28 -3 -42 -5s-27.333 -4.33301 -40 -7l-9 95c34 6.66699 66.667 11.5 98 14.5s61.666 4.5 90.999 4.5c76.667 0 132.834 -14.333 168.501 -43s53.5 -73.334 53.5 -134.001v-370h-108l-12 66h-8
c-25.333 -22 -52.666 -39.333 -81.999 -52s-59.333 -19 -90 -19zM230.998 90.002c18.667 0 38.333 4.83203 59 14.499s39.667 20.167 57 31.5v111l-80 -7c-38 -3.33301 -64.833 -11.166 -80.5 -23.499s-23.5 -31.5 -23.5 -57.5c0 -46 22.667 -69 68 -69zM84.9971 623.001
c0.666992 49.333 16.167 88.5 46.5 117.5s78.5 43.5 144.5 43.5s113.833 -14.333 143.5 -43s45.167 -68 46.5 -118h-92c0 32 -8 55.167 -24 69.5s-40.667 21.5 -74 21.5s-58 -7.16699 -74 -21.5s-24.333 -37.5 -25 -69.5h-92z" />
    <glyph glyph-name="Edblgrave" unicode="&#x204;" horiz-adv-x="603" 
d="M74 740h481v-109h-347v-203h316v-110h-316v-209h356v-109h-490v740zM183 794l-109 167h125l70 -155zM365 794l-109 167h124l70 -155z" />
    <glyph glyph-name="edblgrave" unicode="&#x205;" horiz-adv-x="540" 
d="M140 611l-110 195h126l68 -185zM335 611l-111 195h127l67 -185zM293 -9c-84.667 0 -148.333 22.832 -191 68.499s-64 113.834 -64 204.501c0 93.333 21.333 164.166 64 212.499s105.667 72.5 189 72.5c141.333 0 212 -80.667 212 -242c0 -17.333 -0.5 -31.833 -1.5 -43.5
s-2.5 -23.167 -4.5 -34.5h-327c2 -25.333 5.83301 -46.666 11.5 -63.999s13.834 -31.333 24.501 -42s24 -18.334 40 -23.001s35.333 -7 58 -7c25.333 0 53.666 2.33301 84.999 7s61 11.334 89 20.001l5 -98c-27.333 -9.33301 -57.833 -16.833 -91.5 -22.5
s-66.5 -8.5 -98.5 -8.5zM286.001 452.999c-36.667 0 -64.333 -11.5 -83 -34.5s-29.667 -59.833 -33 -110.5h216c-1.33301 52 -9.83301 89.167 -25.5 111.5s-40.5 33.5 -74.5 33.5z" />
    <glyph glyph-name="Einvertedbreve" unicode="&#x206;" horiz-adv-x="603" 
d="M74 740h481v-109h-347v-203h316v-110h-316v-209h356v-109h-490v740zM414 815c0 32 -7.66797 56 -23.001 72s-40.333 24 -75 24c-35.333 0 -60.666 -8 -75.999 -24s-23 -40 -23 -72h-91c0 24.667 3.83301 47 11.5 67s19.167 37.167 34.5 51.5s35 25.5 59 33.5
s52.333 12 85 12c65.333 0 113.5 -14.833 144.5 -44.5s46.5 -69.5 46.5 -119.5h-93z" />
    <glyph glyph-name="einvertedbreve" unicode="&#x207;" horiz-adv-x="540" 
d="M89 623c0.666992 49.333 16.167 88.5 46.5 117.5s78.5 43.5 144.5 43.5s113.833 -14.333 143.5 -43s45.167 -68 46.5 -118h-92c0 32 -8 55.167 -24 69.5s-40.667 21.5 -74 21.5s-58 -7.16699 -74 -21.5s-24.333 -37.5 -25 -69.5h-92zM293 -9
c-84.667 0 -148.333 22.832 -191 68.499s-64 113.834 -64 204.501c0 93.333 21.333 164.166 64 212.499s105.667 72.5 189 72.5c141.333 0 212 -80.667 212 -242c0 -17.333 -0.5 -31.833 -1.5 -43.5s-2.5 -23.167 -4.5 -34.5h-327c2 -25.333 5.83301 -46.666 11.5 -63.999
s13.834 -31.333 24.501 -42s24 -18.334 40 -23.001s35.333 -7 58 -7c25.333 0 53.666 2.33301 84.999 7s61 11.334 89 20.001l5 -98c-27.333 -9.33301 -57.833 -16.833 -91.5 -22.5s-66.5 -8.5 -98.5 -8.5zM286.001 452.999c-36.667 0 -64.333 -11.5 -83 -34.5
s-29.667 -59.833 -33 -110.5h216c-1.33301 52 -9.83301 89.167 -25.5 111.5s-40.5 33.5 -74.5 33.5z" />
    <glyph glyph-name="Idblgrave" unicode="&#x208;" horiz-adv-x="282" 
d="M74 740h134v-740h-134v740zM17 794l-109 167h125l70 -155zM199 794l-109 167h124l70 -155z" />
    <glyph glyph-name="idblgrave" unicode="&#x209;" horiz-adv-x="259" 
d="M-4 611l-110 195h126l68 -185zM191 611l-111 195h127l67 -185zM64 540h132v-540h-132v540z" />
    <glyph glyph-name="Iinvertedbreve" unicode="&#x20a;" horiz-adv-x="282" 
d="M74 740h134v-740h-134v740zM241 815c0 32 -7.66797 56 -23.001 72s-40.333 24 -75 24c-35.333 0 -60.666 -8 -75.999 -24s-23 -40 -23 -72h-91c0 24.667 3.83301 47 11.5 67s19.167 37.167 34.5 51.5s35 25.5 59 33.5s52.333 12 85 12
c65.333 0 113.5 -14.833 144.5 -44.5s46.5 -69.5 46.5 -119.5h-93z" />
    <glyph glyph-name="iinvertedbreve" unicode="&#x20b;" horiz-adv-x="259" 
d="M-35 623c1.33301 50 15.501 89.333 42.501 118s69.833 43 128.5 43s101.5 -14.333 128.5 -43s41.167 -68 42.5 -118h-81c-0.666992 32 -8.16699 55.167 -22.5 69.5s-36.833 21.5 -67.5 21.5s-53.334 -7.16699 -68.001 -21.5s-22 -37.5 -22 -69.5h-81zM64.001 540h132
v-540h-132v540z" />
    <glyph glyph-name="Odblgrave" unicode="&#x20c;" horiz-adv-x="731" 
d="M365 -10c-106.667 0 -187.334 31.667 -242.001 95s-82 158 -82 284c0 126.667 27.333 221.834 82 285.501s135.334 95.5 242.001 95.5s187.5 -31.833 242.5 -95.5s82.5 -158.834 82.5 -285.501c0 -126 -27.5 -220.667 -82.5 -284s-135.833 -95 -242.5 -95zM365 101
c33.333 0 61.835 5 85.502 15s43 25.667 58 47s26 49 33 83s10.5 75 10.5 123c0 96 -14.833 165.167 -44.5 207.5s-77.167 63.5 -142.5 63.5c-32.667 0 -60.834 -5 -84.501 -15s-43 -26 -58 -48s-26 -50.167 -33 -84.5s-10.5 -75.5 -10.5 -123.5s3.5 -89 10.5 -123
s18 -61.667 33 -83s34.167 -37 57.5 -47s51.666 -15 84.999 -15zM233.002 794l-109 167h125l70 -155zM415.002 794l-109 167h124l70 -155z" />
    <glyph glyph-name="odblgrave" unicode="&#x20d;" horiz-adv-x="589" 
d="M155 611l-110 195h126l68 -185zM350 611l-111 195h127l67 -185zM295 -10c-84.667 0 -148.834 23.833 -192.501 71.5s-65.5 117.167 -65.5 208.5s21.833 160.833 65.5 208.5s107.834 71.5 192.501 71.5c84 0 147.833 -23.833 191.5 -71.5s65.5 -117.167 65.5 -208.5
s-21.833 -160.833 -65.5 -208.5s-107.5 -71.5 -191.5 -71.5zM295 93c22 0 40.833 3.16699 56.5 9.5s28.5 16.5 38.5 30.5s17.333 32.167 22 54.5s7 49.833 7 82.5s-2.33301 60.167 -7 82.5s-12 40.5 -22 54.5s-22.833 24.167 -38.5 30.5s-34.5 9.5 -56.5 9.5
c-22.667 0 -41.834 -3.16699 -57.501 -9.5s-28.5 -16.5 -38.5 -30.5s-17.333 -32.167 -22 -54.5s-7 -49.833 -7 -82.5s2.33301 -60.167 7 -82.5s12 -40.5 22 -54.5s22.833 -24.167 38.5 -30.5s34.834 -9.5 57.501 -9.5z" />
    <glyph glyph-name="Oinvertedbreve" unicode="&#x20e;" horiz-adv-x="731" 
d="M365 -10c-106.667 0 -187.334 31.667 -242.001 95s-82 158 -82 284c0 126.667 27.333 221.834 82 285.501s135.334 95.5 242.001 95.5s187.5 -31.833 242.5 -95.5s82.5 -158.834 82.5 -285.501c0 -126 -27.5 -220.667 -82.5 -284s-135.833 -95 -242.5 -95zM365 101
c33.333 0 61.835 5 85.502 15s43 25.667 58 47s26 49 33 83s10.5 75 10.5 123c0 96 -14.833 165.167 -44.5 207.5s-77.167 63.5 -142.5 63.5c-32.667 0 -60.834 -5 -84.501 -15s-43 -26 -58 -48s-26 -50.167 -33 -84.5s-10.5 -75.5 -10.5 -123.5s3.5 -89 10.5 -123
s18 -61.667 33 -83s34.167 -37 57.5 -47s51.666 -15 84.999 -15zM463.002 815c0 32 -7.66797 56 -23.001 72s-40.333 24 -75 24c-35.333 0 -60.666 -8 -75.999 -24s-23 -40 -23 -72h-91c0 24.667 3.83301 47 11.5 67s19.167 37.167 34.5 51.5s35 25.5 59 33.5
s52.333 12 85 12c65.333 0 113.5 -14.833 144.5 -44.5s46.5 -69.5 46.5 -119.5h-93z" />
    <glyph glyph-name="oinvertedbreve" unicode="&#x20f;" horiz-adv-x="589" 
d="M106 623c0.666992 49.333 16.167 88.5 46.5 117.5s78.5 43.5 144.5 43.5s113.833 -14.333 143.5 -43s45.167 -68 46.5 -118h-92c0 32 -8 55.167 -24 69.5s-40.667 21.5 -74 21.5s-58 -7.16699 -74 -21.5s-24.333 -37.5 -25 -69.5h-92zM295 -10
c-84.667 0 -148.834 23.833 -192.501 71.5s-65.5 117.167 -65.5 208.5s21.833 160.833 65.5 208.5s107.834 71.5 192.501 71.5c84 0 147.833 -23.833 191.5 -71.5s65.5 -117.167 65.5 -208.5s-21.833 -160.833 -65.5 -208.5s-107.5 -71.5 -191.5 -71.5zM295 93
c22 0 40.833 3.16699 56.5 9.5s28.5 16.5 38.5 30.5s17.333 32.167 22 54.5s7 49.833 7 82.5s-2.33301 60.167 -7 82.5s-12 40.5 -22 54.5s-22.833 24.167 -38.5 30.5s-34.5 9.5 -56.5 9.5c-22.667 0 -41.834 -3.16699 -57.501 -9.5s-28.5 -16.5 -38.5 -30.5
s-17.333 -32.167 -22 -54.5s-7 -49.833 -7 -82.5s2.33301 -60.167 7 -82.5s12 -40.5 22 -54.5s22.833 -24.167 38.5 -30.5s34.834 -9.5 57.501 -9.5z" />
    <glyph glyph-name="Rdblgrave" unicode="&#x210;" horiz-adv-x="655" 
d="M349 260c-22 -2 -44.999 -3 -68.999 -3h-15.5c-6.33301 0 -12.833 0.166992 -19.5 0.5l-20 1c-6.66699 0.333008 -12.334 0.833008 -17.001 1.5v-260h-134v735c66 10 131.333 15 196 15c60 0 111.667 -4.83301 155 -14.5s78.833 -24.5 106.5 -44.5
s48.167 -45.5 61.5 -76.5s20 -68.167 20 -111.5c0 -111.333 -48.333 -184.333 -145 -219l170 -284h-147zM294.001 363c33.333 0 61.498 2.49902 84.498 7.49902s41.833 13 56.5 24s25.167 25.5 31.5 43.5s9.5 39.667 9.5 65s-3.16699 46.833 -9.5 64.5
s-16.666 32 -30.999 43s-33 19 -56 24s-51.167 7.5 -84.5 7.5c-12 0 -26.167 -0.666992 -42.5 -2s-31.166 -2.66602 -44.499 -3.99902v-267c10 -2 22.5 -3.5 37.5 -4.5s31.167 -1.5 48.5 -1.5zM198.999 793.999l-109 167h125l70 -155zM380.999 793.999l-109 167h124l70 -155
z" />
    <glyph glyph-name="rdblgrave" unicode="&#x211;" horiz-adv-x="402" 
d="M87 611l-110 195h126l68 -185zM282 611l-111 195h127l67 -185zM63 540h111.002l7 -76h5c23.333 17.333 50.166 34 80.499 50s59.5 27.667 87.5 35h36v-118h-48c-26 -3.33301 -52.333 -10 -79 -20s-49.334 -21 -68.001 -33v-378h-132v540z" />
    <glyph glyph-name="Rinvertedbreve" unicode="&#x212;" horiz-adv-x="655" 
d="M349 260c-22 -2 -44.999 -3 -68.999 -3h-15.5c-6.33301 0 -12.833 0.166992 -19.5 0.5l-20 1c-6.66699 0.333008 -12.334 0.833008 -17.001 1.5v-260h-134v735c66 10 131.333 15 196 15c60 0 111.667 -4.83301 155 -14.5s78.833 -24.5 106.5 -44.5
s48.167 -45.5 61.5 -76.5s20 -68.167 20 -111.5c0 -111.333 -48.333 -184.333 -145 -219l170 -284h-147zM294.001 363c33.333 0 61.498 2.49902 84.498 7.49902s41.833 13 56.5 24s25.167 25.5 31.5 43.5s9.5 39.667 9.5 65s-3.16699 46.833 -9.5 64.5
s-16.666 32 -30.999 43s-33 19 -56 24s-51.167 7.5 -84.5 7.5c-12 0 -26.167 -0.666992 -42.5 -2s-31.166 -2.66602 -44.499 -3.99902v-267c10 -2 22.5 -3.5 37.5 -4.5s31.167 -1.5 48.5 -1.5zM425.999 814.999c0 32 -7.66797 56 -23.001 72s-40.333 24 -75 24
c-35.333 0 -60.666 -8 -75.999 -24s-23 -40 -23 -72h-91c0 24.667 3.83301 47 11.5 67s19.167 37.167 34.5 51.5s35 25.5 59 33.5s52.333 12 85 12c65.333 0 113.5 -14.833 144.5 -44.5s46.5 -69.5 46.5 -119.5h-93z" />
    <glyph glyph-name="rinvertedbreve" unicode="&#x213;" horiz-adv-x="401" 
d="M34 623c0.666992 49.333 16.167 88.5 46.5 117.5s78.5 43.5 144.5 43.5s113.833 -14.333 143.5 -43s45.167 -68 46.5 -118h-92c0 32 -8 55.167 -24 69.5s-40.667 21.5 -74 21.5s-58 -7.16699 -74 -21.5s-24.333 -37.5 -25 -69.5h-92zM63 540h111.002l7 -76h5
c23.333 17.333 50.166 34 80.499 50s59.5 27.667 87.5 35h36v-118h-48c-26 -3.33301 -52.333 -10 -79 -20s-49.334 -21 -68.001 -33v-378h-132v540z" />
    <glyph glyph-name="Udblgrave" unicode="&#x214;" horiz-adv-x="738" 
d="M369 -10c-55.333 0 -102.166 6.16699 -140.499 18.5s-69.5 31 -93.5 56s-41.333 56.833 -52 95.5s-16 84.334 -16 137.001v443h134v-442c0 -68.667 13.5 -118.5 40.5 -149.5s69.5 -46.5 127.5 -46.5c58.667 0 101.167 15.333 127.5 46s39.5 80.667 39.5 150v442h136v-443
c0 -52.667 -5.5 -98.334 -16.5 -137.001s-28.5 -70.5 -52.5 -95.5s-55.333 -43.667 -94 -56s-85.334 -18.5 -140.001 -18.5zM234 794l-109 167h125l70 -155zM416 794l-109 167h124l70 -155z" />
    <glyph glyph-name="udblgrave" unicode="&#x215;" horiz-adv-x="596" 
d="M163 611l-110 195h126l68 -185zM358 611l-111 195h127l67 -185zM202 -10c-46.667 0 -82.167 12.668 -106.5 38.001s-36.5 61.666 -36.5 108.999v403h132v-363c0 -28.667 5 -49.167 15 -61.5s27 -18.5 51 -18.5c22 0 45.167 4.5 69.5 13.5s49.166 20.167 74.499 33.5v396
h132v-540h-111l-8 61h-4c-23.333 -13.333 -44 -24.5 -62 -33.5s-34.667 -16.167 -50 -21.5s-30.666 -9.33301 -45.999 -12s-32 -4 -50 -4z" />
    </font>
</defs>
</svg>
