<?xml version="1.0" standalone="no"?>
<!DOCTYPE svg PUBLIC "-//W3C//DTD SVG 1.1//EN" "http://www.w3.org/Graphics/SVG/1.1/DTD/svg11.dtd" >
<svg>
<metadata>
Created by FontForge 20090914 at Sat Aug  6 10:31:45 2016
 By www-data
Copyright (c) 2012, Impallari Type (www.impallari.com), with Reserved Font Name Encode Sans.
</metadata>
<defs>
<font id="EncodeSansNarrow-Bold" horiz-adv-x="599" >
  <font-face 
    font-family="Encode Sans Narrow"
    font-weight="700"
    font-stretch="normal"
    units-per-em="1000"
    panose-1="2 0 0 0 0 0 0 0 0 0"
    ascent="800"
    descent="-200"
    x-height="540"
    cap-height="740"
    bbox="-124 -220 1713 1030"
    underline-thickness="55"
    underline-position="-57"
    unicode-range="U+000D-U+FB04"
  />
<missing-glyph horiz-adv-x="765" 
d="M76 1030h612v-1250h-612v1250zM558 -99v1009h-352v-1009h352z" />
    <glyph glyph-name="f_f" unicode="ff" horiz-adv-x="825" 
d="M523 407h-248.002v-407h-159v407h-102v133h103v26c0 46 5.16699 84.667 15.5 116s27.333 56.666 51 75.999s54.834 33.333 93.501 42s86.334 13.667 143.001 15l8 -117c-29.333 -1.33301 -53.833 -4.16602 -73.5 -8.49902s-35.334 -11 -47.001 -20s-20 -21 -25 -36
s-7.5 -33.5 -7.5 -55.5v-38h249v26c0 46 5.16699 84.667 15.5 116s27.333 56.666 51 75.999s54.834 33.333 93.501 42s86.334 13.667 143.001 15l8 -117c-29.333 -1.33301 -53.833 -4.16602 -73.5 -8.49902s-35.334 -11 -47.001 -20s-20 -21 -25 -36s-7.5 -33.5 -7.5 -55.5
v-38h132v-133h-132v-407h-159v407z" />
    <glyph glyph-name="f_i" unicode="fi" horiz-adv-x="701" 
d="M563 620c-30.667 0 -52.832 6.83301 -66.499 20.5s-20.5 35.5 -20.5 65.5s6.66699 51.667 20 65s35.666 20 66.999 20c32 0 54.833 -6.83301 68.5 -20.5s20.5 -35.167 20.5 -64.5s-6.83301 -51 -20.5 -65s-36.5 -21 -68.5 -21zM484.002 540h159v-540h-159v540z
M116.002 407h-102.001v133h103v26c0 46 5.16699 84.667 15.5 116s27.333 56.666 51 75.999s54.834 33.333 93.501 42s86.334 13.667 143.001 15l8 -117c-29.333 -1.33301 -53.833 -4.16602 -73.5 -8.49902s-35.334 -11 -47.001 -20s-20 -21 -25 -36s-7.5 -33.5 -7.5 -55.5
v-38h132v-133h-132v-407h-159v407z" />
    <glyph glyph-name="f_l" unicode="fl" horiz-adv-x="701" 
d="M116 407h-102.001v133h103v26c0 46 5.16699 84.667 15.5 116s27.333 56.666 51 75.999s54.834 33.333 93.501 42s86.334 13.667 143.001 15l8 -117c-29.333 -1.33301 -53.833 -4.16602 -73.5 -8.49902s-35.334 -11 -47.001 -20s-20 -21 -25 -36s-7.5 -33.5 -7.5 -55.5
v-38h132v-133h-132v-407h-159v407zM482.999 808h159v-808h-159v808z" />
    <glyph glyph-name="f_f_i" unicode="ffi" horiz-adv-x="1103" 
d="M116 407h-102.002v133h103v26c0 46 5.16699 84.667 15.5 116s27.333 56.666 51 75.999s54.834 33.333 93.501 42s86.334 13.667 143.001 15l8 -117c-29.333 -1.33301 -53.833 -4.16602 -73.5 -8.49902s-35.334 -11 -47.001 -20s-20 -21 -25 -36s-7.5 -33.5 -7.5 -55.5
v-38h244v26c0 46 5.16699 84.667 15.5 116s27.333 56.666 51 75.999s54.834 33.333 93.501 42s86.334 13.667 143.001 15l8 -117c-29.333 -1.33301 -53.833 -4.16602 -73.5 -8.49902s-35.334 -11 -47.001 -20s-20 -21 -25 -36s-7.5 -33.5 -7.5 -55.5v-38h132v-133h-132v-407
h-159v407h-243v-407h-159v407zM885.998 540h159v-540h-159v540zM964.998 620c-30.667 0 -52.832 6.83301 -66.499 20.5s-20.5 35.5 -20.5 65.5s6.66699 51.667 20 65s35.666 20 66.999 20c32 0 54.833 -6.83301 68.5 -20.5s20.5 -35.167 20.5 -64.5s-6.83301 -51 -20.5 -65
s-36.5 -21 -68.5 -21z" />
    <glyph glyph-name="f_f_l" unicode="ffl" horiz-adv-x="1104" 
d="M116 407h-102.002v133h103v26c0 46 5.16699 84.667 15.5 116s27.333 56.666 51 75.999s54.834 33.333 93.501 42s86.334 13.667 143.001 15l8 -117c-29.333 -1.33301 -53.833 -4.16602 -73.5 -8.49902s-35.334 -11 -47.001 -20s-20 -21 -25 -36s-7.5 -33.5 -7.5 -55.5
v-38h244v26c0 46 5.16699 84.667 15.5 116s27.333 56.666 51 75.999s54.834 33.333 93.501 42s86.334 13.667 143.001 15l8 -117c-29.333 -1.33301 -53.833 -4.16602 -73.5 -8.49902s-35.334 -11 -47.001 -20s-20 -21 -25 -36s-7.5 -33.5 -7.5 -55.5v-38h132v-133h-132v-407
h-159v407h-243v-407h-159v407zM885.998 808h159v-808h-159v808z" />
    <glyph glyph-name="f_b" unicode="fb" horiz-adv-x="1039" 
d="M116 407h-102.001v133h103v26c0 46 5.16699 84.667 15.5 116s27.333 56.666 51 75.999s54.834 33.333 93.501 42s86.334 13.667 143.001 15l8 -117c-29.333 -1.33301 -53.833 -4.16602 -73.5 -8.49902s-35.334 -11 -47.001 -20s-20 -21 -25 -36s-7.5 -33.5 -7.5 -55.5
v-38h132v-133h-132v-407h-159v407zM720.999 -11c-16 0 -32.166 0.5 -48.499 1.5s-34 2.83301 -53 5.5s-39.667 6.16699 -62 10.5s-47.166 9.83301 -74.499 16.5v785h159v-324c35.333 43.333 86.666 65 153.999 65c69.333 0 121.666 -22 156.999 -66s53 -110.667 53 -200
c0 -91.333 -24 -162.833 -72 -214.5s-119 -78.167 -213 -79.5zM722 97c22.667 0 42.002 2.66895 58.002 8.00195s28.667 14.666 38 27.999s16.166 31 20.499 53s6.5 49.667 6.5 83c0 30.667 -1.66699 56.5 -5 77.5s-9 37.667 -17 50s-18.333 21.166 -31 26.499
s-28.334 8 -47.001 8c-32 0 -57.167 -9.66699 -75.5 -29s-27.5 -52.333 -27.5 -99v-196c10 -3.33301 21.833 -5.83301 35.5 -7.5s28.5 -2.5 44.5 -2.5z" />
    <glyph glyph-name="f_f_b" unicode="ffb" horiz-adv-x="1442" 
d="M116 407h-102.002v133h103v26c0 46 5.16699 84.667 15.5 116s27.333 56.666 51 75.999s54.834 33.333 93.501 42s86.334 13.667 143.001 15l8 -117c-29.333 -1.33301 -53.833 -4.16602 -73.5 -8.49902s-35.334 -11 -47.001 -20s-20 -21 -25 -36s-7.5 -33.5 -7.5 -55.5
v-38h245v26c0 46 5.16699 84.667 15.5 116s27.333 56.666 51 75.999s54.834 33.333 93.501 42s86.334 13.667 143.001 15l8 -117c-29.333 -1.33301 -53.833 -4.16602 -73.5 -8.49902s-35.334 -11 -47.001 -20s-20 -21 -25 -36s-7.5 -33.5 -7.5 -55.5v-38h132v-133h-132v-407
h-159v407h-244v-407h-159v407zM1123 -11c-16 0 -32.166 0.5 -48.499 1.5s-34 2.83301 -53 5.5s-39.667 6.16699 -62 10.5s-47.166 9.83301 -74.499 16.5v785h159v-324c35.333 43.333 86.666 65 153.999 65c69.333 0 121.666 -22 156.999 -66s53 -110.667 53 -200
c0 -91.333 -24 -162.833 -72 -214.5s-119 -78.167 -213 -79.5zM1124 97c22.667 0 42.002 2.66895 58.002 8.00195s28.667 14.666 38 27.999s16.166 31 20.499 53s6.5 49.667 6.5 83c0 30.667 -1.66699 56.5 -5 77.5s-9 37.667 -17 50s-18.333 21.166 -31 26.499
s-28.334 8 -47.001 8c-32 0 -57.167 -9.66699 -75.5 -29s-27.5 -52.333 -27.5 -99v-196c10 -3.33301 21.833 -5.83301 35.5 -7.5s28.5 -2.5 44.5 -2.5z" />
    <glyph glyph-name="f_f_h" unicode="ffh" horiz-adv-x="1442" 
d="M116 407h-102.002v133h103v26c0 46 5.16699 84.667 15.5 116s27.333 56.666 51 75.999s54.834 33.333 93.501 42s86.334 13.667 143.001 15l8 -117c-29.333 -1.33301 -53.833 -4.16602 -73.5 -8.49902s-35.334 -11 -47.001 -20s-20 -21 -25 -36s-7.5 -33.5 -7.5 -55.5
v-38h244v26c0 46 5.16699 84.667 15.5 116s27.333 56.666 51 75.999s54.834 33.333 93.501 42s86.334 13.667 143.001 15l8 -117c-29.333 -1.33301 -53.833 -4.16602 -73.5 -8.49902s-35.334 -11 -47.001 -20s-20 -21 -25 -36s-7.5 -33.5 -7.5 -55.5v-38h132v-133h-132v-407
h-159v407h-243v-407h-159v407zM886.998 808h158.001v-324c43.333 22.667 80.666 39.334 111.999 50.001s61 16 89 16c44.667 0 79.5 -12.833 104.5 -38.5s37.5 -62.167 37.5 -109.5v-402h-159v348c0 25.333 -4.66699 43.666 -14 54.999s-24 17 -44 17
c-15.333 0 -34 -3 -56 -9s-45.333 -14.667 -70 -26v-385h-158v808z" />
    <glyph glyph-name="f_f_j" unicode="ffj" horiz-adv-x="1106" 
d="M116 407h-102.002v133h103v26c0 46 5.16699 84.667 15.5 116s27.333 56.666 51 75.999s54.834 33.333 93.501 42s86.334 13.667 143.001 15l8 -117c-29.333 -1.33301 -53.833 -4.16602 -73.5 -8.49902s-35.334 -11 -47.001 -20s-20 -21 -25 -36s-7.5 -33.5 -7.5 -55.5
v-38h245v26c0 46 5.16699 84.667 15.5 116s27.333 56.666 51 75.999s54.834 33.333 93.501 42s86.334 13.667 143.001 15l8 -117c-29.333 -1.33301 -53.833 -4.16602 -73.5 -8.49902s-35.334 -11 -47.001 -20s-20 -21 -25 -36s-7.5 -33.5 -7.5 -55.5v-38h132v-133h-132v-407
h-159v407h-244v-407h-159v407zM843.998 -194c8 24 15 48.1689 21 72.502s11 49.833 15 76.5s7 55 9 85s3 63 3 99v33.5v66v83.5v87.5c0 28.333 -0.166992 54.166 -0.5 77.499s-0.5 41 -0.5 53h158v-464c-2.66699 -51.333 -12 -102.833 -28 -154.5
s-37.333 -98.834 -64 -141.501zM968.998 620.002c-31.333 0 -53.666 6.83301 -66.999 20.5s-20 35.5 -20 65.5s6.66699 51.667 20 65s35.666 20 66.999 20c32 0 54.833 -6.83301 68.5 -20.5s20.5 -35.167 20.5 -64.5s-6.83301 -51 -20.5 -65s-36.5 -21 -68.5 -21z" />
    <glyph glyph-name="f_f_k" unicode="ffk" horiz-adv-x="1408" 
d="M116 407h-102.002v133h103v26c0 46 5.16699 84.667 15.5 116s27.333 56.666 51 75.999s54.834 33.333 93.501 42s86.334 13.667 143.001 15l8 -117c-29.333 -1.33301 -53.833 -4.16602 -73.5 -8.49902s-35.334 -11 -47.001 -20s-20 -21 -25 -36s-7.5 -33.5 -7.5 -55.5
v-38h244v26c0 46 5.16699 84.667 15.5 116s27.333 56.666 51 75.999s54.834 33.333 93.501 42s86.334 13.667 143.001 15l8 -117c-29.333 -1.33301 -53.833 -4.16602 -73.5 -8.49902s-35.334 -11 -47.001 -20s-20 -21 -25 -36s-7.5 -33.5 -7.5 -55.5v-38h132v-133h-132v-407
h-159v407h-243v-407h-159v407zM886.998 808h158v-477h54l128 209h174l-170 -252l-24 -8v-4l24 -8l187 -268h-174l-146 225h-53v-225h-158v808z" />
    <glyph glyph-name="f_f_t" unicode="fft" horiz-adv-x="1228" 
d="M1097 -10c-59.333 0 -104.335 14 -135.002 42s-46 69 -46 123v252h-238v-407h-159v407h-244v-407h-159v407h-102v133h103v26c0 46 5.16699 84.667 15.5 116s27.333 56.666 51 75.999s54.834 33.333 93.501 42s86.334 13.667 143.001 15l8 -117
c-29.333 -1.33301 -53.833 -4.16602 -73.5 -8.49902s-35.334 -11 -47.001 -20s-20 -21 -25 -36s-7.5 -33.5 -7.5 -55.5v-38h245v26c0 46 5.16699 84.667 15.5 116s27.333 56.666 51 75.999s54.834 33.333 93.501 42s86.334 13.667 143.001 15l8 -117
c-29.333 -1.33301 -53.833 -4.16602 -73.5 -8.49902s-35.334 -11 -47.001 -20s-20 -21 -25 -36s-7.5 -33.5 -7.5 -55.5v-38h248l23 154l125 15v-169h129v-134h-128v-214c0 -30 5.66699 -51.167 17 -63.5s29.333 -18.5 54 -18.5c17.333 0 37 3.66699 59 11v-118
c-14.667 -4 -31.5 -7.16699 -50.5 -9.5s-38.167 -3.5 -57.5 -3.5z" />
    <glyph glyph-name="f_h" unicode="fh" horiz-adv-x="1040" 
d="M484 808h158.001v-324c43.333 22.667 80.666 39.334 111.999 50.001s61 16 89 16c44.667 0 79.5 -12.833 104.5 -38.5s37.5 -62.167 37.5 -109.5v-402h-159v348c0 25.333 -4.66699 43.666 -14 54.999s-24 17 -44 17c-15.333 0 -34 -3 -56 -9s-45.333 -14.667 -70 -26
v-385h-158v808zM116.001 407h-102.001v133h103v26c0 46 5.16699 84.667 15.5 116s27.333 56.666 51 75.999s54.834 33.333 93.501 42s86.334 13.667 143.001 15l8 -117c-29.333 -1.33301 -53.833 -4.16602 -73.5 -8.49902s-35.334 -11 -47.001 -20s-20 -21 -25 -36
s-7.5 -33.5 -7.5 -55.5v-38h132v-133h-132v-407h-159v407z" />
    <glyph glyph-name="f_j" unicode="fj" horiz-adv-x="704" 
d="M116 407h-102.001v133h103v26c0 46 5.16699 84.667 15.5 116s27.333 56.666 51 75.999s54.834 33.333 93.501 42s86.334 13.667 143.001 15l8 -117c-29.333 -1.33301 -53.833 -4.16602 -73.5 -8.49902s-35.334 -11 -47.001 -20s-20 -21 -25 -36s-7.5 -33.5 -7.5 -55.5
v-38h132v-133h-132v-407h-159v407zM565.999 620c-31.333 0 -53.666 6.83301 -66.999 20.5s-20 35.5 -20 65.5s6.66699 51.667 20 65s35.666 20 66.999 20c32 0 54.833 -6.83301 68.5 -20.5s20.5 -35.167 20.5 -64.5s-6.83301 -51 -20.5 -65s-36.5 -21 -68.5 -21z
M440.999 -194c8 24 15 48.1689 21 72.502s11 49.833 15 76.5s7 55 9 85s3 63 3 99v33.5v66v83.5v87.5c0 28.333 -0.166992 54.166 -0.5 77.499s-0.5 41 -0.5 53h158v-464c-2.66699 -51.333 -12 -102.833 -28 -154.5s-37.333 -98.834 -64 -141.501z" />
    <glyph glyph-name="f_k" unicode="fk" horiz-adv-x="1005" 
d="M484 808h158v-477h54l128 209h174l-170 -252l-24 -8v-4l24 -8l187 -268h-174l-146 225h-53v-225h-158v808zM116 407h-102.001v133h103v26c0 46 5.16699 84.667 15.5 116s27.333 56.666 51 75.999s54.834 33.333 93.501 42s86.334 13.667 143.001 15l8 -117
c-29.333 -1.33301 -53.833 -4.16602 -73.5 -8.49902s-35.334 -11 -47.001 -20s-20 -21 -25 -36s-7.5 -33.5 -7.5 -55.5v-38h132v-133h-132v-407h-159v407z" />
    <glyph glyph-name="f_t" unicode="ft" horiz-adv-x="826" 
d="M694 -10c-59.333 0 -104.334 14 -135.001 42s-46 69 -46 123v252h-238v-407h-159v407h-102v133h103v26c0 46 5.16699 84.667 15.5 116s27.333 56.666 51 75.999s54.834 33.333 93.501 42s86.334 13.667 143.001 15l8 -117
c-29.333 -1.33301 -53.833 -4.16602 -73.5 -8.49902s-35.334 -11 -47.001 -20s-20 -21 -25 -36s-7.5 -33.5 -7.5 -55.5v-38h248l23 154l125 15v-169h129v-134h-128v-214c0 -30 5.66699 -51.167 17 -63.5s29.333 -18.5 54 -18.5c17.333 0 37 3.66699 59 11v-118
c-14.667 -4 -31.5 -7.16699 -50.5 -9.5s-38.167 -3.5 -57.5 -3.5z" />
    <glyph glyph-name=".notdef" horiz-adv-x="765" 
d="M76 1030h612v-1250h-612v1250zM558 -99v1009h-352v-1009h352z" />
    <glyph glyph-name="NULL" horiz-adv-x="0" 
 />
    <glyph glyph-name="NULL" horiz-adv-x="0" 
 />
    <glyph glyph-name="nonmarkingreturn" unicode="&#xd;" horiz-adv-x="293" 
 />
    <glyph glyph-name="space" unicode=" " horiz-adv-x="201" 
 />
    <glyph glyph-name="exclam" unicode="!" horiz-adv-x="283" 
d="M142 -5c-26 0 -46.333 6.83301 -61 20.5s-22 33.167 -22 58.5s7.33301 45 22 59s35 21 61 21c26.667 0 47.334 -7 62.001 -21s22 -33.667 22 -59s-7.33301 -44.833 -22 -58.5s-35.334 -20.5 -62.001 -20.5zM93 251l-32 479v10h161v-10l-31 -479v-12h-98v12z" />
    <glyph glyph-name="quotedbl" unicode="&#x22;" horiz-adv-x="423" 
d="M179 808v-4l-41 -324h-85v328h126zM389 808v-4l-41 -324h-85v328h126z" />
    <glyph glyph-name="numbersign" unicode="#" horiz-adv-x="597" 
d="M337 198h-105l-16 -198h-108l16 198h-83v99h91l11 144h-102v100h110l17 199h108l-17 -199h105l17 199h108l-17 -199h83v-100h-91l-11 -144h102v-99h-110l-16 -198h-108zM240 297h105l11 144h-105z" />
    <glyph glyph-name="dollar" unicode="$" horiz-adv-x="595" 
d="M236 -10c-32 2 -65.1689 5.66699 -99.502 11s-67.5 12.333 -99.5 21v133c40 -11.333 80.333 -20.166 121 -26.499s77.334 -9.5 110.001 -9.5c87.333 0 131 28 131 84c0 30 -12.167 52 -36.5 66s-57.166 25.667 -98.499 35c-34.667 8 -65.667 17.833 -93 29.5
s-50.333 26.5 -69 44.5s-32.834 39.833 -42.501 65.5s-14.5 56.5 -14.5 92.5c0 54 16 98.667 48 134s77.333 59.333 136 72v141h142v-134c22.667 -1.33301 46.5 -4 71.5 -8s53.5 -9.66699 85.5 -17v-131c-31.333 9.33301 -64.5 16.5 -99.5 21.5s-65.833 7.5 -92.5 7.5
c-40 0 -70.5 -7.16699 -91.5 -21.5s-31.5 -35.166 -31.5 -62.499c0 -14.667 2.83301 -27.167 8.5 -37.5s14.334 -19.666 26.001 -27.999s26.5 -15.666 44.5 -21.999s39 -12.833 63 -19.5c32.667 -8.66699 62 -18.834 88 -30.501s48.167 -25.834 66.5 -42.501
s32.333 -36.834 42 -60.501s14.5 -51.834 14.5 -84.501c0 -59.333 -16 -107.333 -48 -144s-78.667 -61 -140 -73v-139h-142v133z" />
    <glyph glyph-name="percent" unicode="%" horiz-adv-x="1034" 
d="M231 277c-64.667 0 -114.334 19.667 -149.001 59s-52 98.333 -52 177s17.333 137.834 52 177.501s84.334 59.5 149.001 59.5s114.167 -19.833 148.5 -59.5s51.5 -98.834 51.5 -177.501s-17.167 -137.667 -51.5 -177s-83.833 -59 -148.5 -59zM231 378
c29.333 0 50.5 10.167 63.5 30.5s19.5 55.166 19.5 104.499c0 50 -6.66699 85.333 -20 106s-34.333 31 -63 31c-30 0 -51.5 -10.5 -64.5 -31.5s-19.5 -56.167 -19.5 -105.5s6.5 -84.166 19.5 -104.499s34.5 -30.5 64.5 -30.5zM804 -11
c-64.667 0 -114.167 19.833 -148.5 59.5s-51.5 98.834 -51.5 177.501s17.167 137.667 51.5 177s83.833 59 148.5 59s114.334 -19.667 149.001 -59s52 -98.333 52 -177s-17.333 -137.834 -52 -177.501s-84.334 -59.5 -149.001 -59.5zM804 90
c29.333 0 50.666 10.167 63.999 30.5s20 55.5 20 105.5c0 49.333 -6.66699 84.333 -20 105s-34.666 31 -63.999 31s-50.666 -10.333 -63.999 -31s-20 -55.667 -20 -105c0 -50 6.66699 -85.167 20 -105.5s34.666 -30.5 63.999 -30.5zM608 740h134l-317 -740h-134z" />
    <glyph glyph-name="ampersand" unicode="&#x26;" horiz-adv-x="740" 
d="M330 -10c-44.667 0 -84.834 4.99805 -120.501 14.998s-66.167 24.333 -91.5 43s-44.833 41.334 -58.5 68.001s-20.5 56.667 -20.5 90c0 46 12.167 85.833 36.5 119.5s58.5 57.5 102.5 71.5c-26 28 -44.5 54.833 -55.5 80.5s-16.5 52.834 -16.5 81.501
c0 61.333 22.5 108.833 67.5 142.5s108.167 50.5 189.5 50.5c59.333 0 124 -10.333 194 -31l1 -5l-18 -111h-7c-26.667 9.33301 -53.667 16.666 -81 21.999s-52 8 -74 8c-74.667 0 -112 -30.667 -112 -92c0 -31.333 14.833 -62.333 44.5 -93s76.834 -64.667 141.501 -102
l68 -40c0 5.33301 0.166992 10.833 0.5 16.5s0.5 11.5 0.5 17.5v81l143 5v-85c0 -40.667 -4 -78 -12 -112l86 -49v-9l-58 -118h-8l-78 49c-28.667 -37.333 -65.167 -65.666 -109.5 -84.999s-95.833 -29 -154.5 -29zM391 233.998l-67 43.5
c-20.667 13.667 -39.667 27.167 -57 40.5c-43.333 -20 -65 -54.333 -65 -103c0 -34 12.5 -61 37.5 -81s58.5 -30 100.5 -30c67.333 0 115.333 23.333 144 70z" />
    <glyph glyph-name="quotesingle" unicode="'" horiz-adv-x="214" 
d="M179 808v-4l-41 -324h-85v328h126z" />
    <glyph glyph-name="parenleft" unicode="(" horiz-adv-x="331" 
d="M186 -160c-50.667 74.667 -89 155.999 -115 243.999s-39 178 -39 270c0 92.667 13 182.834 39 270.501s64.333 168.834 115 243.501h139v-4c-50.667 -74.667 -90.834 -155.5 -120.501 -242.5s-44.5 -176.167 -44.5 -267.5c0 -92 14.833 -181.333 44.5 -268
s69.834 -167.334 120.501 -242.001v-4h-139v0z" />
    <glyph glyph-name="parenright" unicode=")" horiz-adv-x="330" 
d="M6 -160v4.00098c50.667 74.667 90.667 155.334 120 242.001s44 176 44 268c0 91.333 -14.667 180.5 -44 267.5s-69.333 167.833 -120 242.5v4h138c51.333 -74.667 89.833 -155.834 115.5 -243.501s38.5 -177.834 38.5 -270.501c0 -92 -12.833 -182 -38.5 -270
s-64.167 -169.333 -115.5 -244h-138z" />
    <glyph glyph-name="asterisk" unicode="*" horiz-adv-x="496" 
d="M84 479l45 62l83 71l-109 8l-71 24l29 89l72 -23l93 -57l-25 108v75h94v-75l-26 -108l94 57l72 23l28 -89l-71 -24l-109 -8l83 -71l45 -62l-76 -54l-45 61l-42 103l-43 -103l-45 -61z" />
    <glyph glyph-name="plus" unicode="+" horiz-adv-x="509" 
d="M34 422h168v161h105v-161h169v-104h-169v-161h-105v161h-168v104z" />
    <glyph glyph-name="comma" unicode="," horiz-adv-x="267" 
d="M21 -145l43 305h160l-84 -315z" />
    <glyph glyph-name="hyphen" unicode="-" horiz-adv-x="471" 
d="M53 339h365v-118h-365v118z" />
    <glyph glyph-name="period" unicode="." horiz-adv-x="261" 
d="M130 -7c-28.667 0 -50.667 6.83301 -66 20.5s-23 35.167 -23 64.5c0 30 7.66699 51.667 23 65s37.333 20 66 20c29.333 0 51.833 -6.66699 67.5 -20s23.5 -35 23.5 -65c0 -56.667 -30.333 -85 -91 -85z" />
    <glyph glyph-name="slash" unicode="/" horiz-adv-x="402" 
d="M241 740h137l-217 -860h-137z" />
    <glyph glyph-name="zero" unicode="0" horiz-adv-x="675" 
d="M337 -10c-95.333 0 -168.5 31.667 -219.5 95s-76.5 158 -76.5 284s25.5 221 76.5 285s124.167 96 219.5 96c96 0 169.5 -32 220.5 -96s76.5 -159 76.5 -285s-25.5 -220.667 -76.5 -284s-124.5 -95 -220.5 -95zM337 121c23.333 0 43.5 4.5 60.5 13.5s31 23.333 42 43
s19.167 45.167 24.5 76.5s8 69.666 8 114.999s-2.66699 83.833 -8 115.5s-13.5 57.5 -24.5 77.5s-25 34.5 -42 43.5s-37.167 13.5 -60.5 13.5s-43.5 -4.5 -60.5 -13.5s-31 -23.5 -42 -43.5s-19 -45.833 -24 -77.5s-7.5 -70.167 -7.5 -115.5s2.5 -83.666 7.5 -114.999
s13 -56.833 24 -76.5s25 -34 42 -43s37.167 -13.5 60.5 -13.5z" />
    <glyph glyph-name="one" unicode="1" horiz-adv-x="440" 
d="M197 565h-4l-148 -54h-13l-22 87l2 12l226 130h122v-740h-163v565z" />
    <glyph glyph-name="two" unicode="2" horiz-adv-x="571" 
d="M36 113c0 35.333 4.83496 66.166 14.502 92.499s23.5 50 41.5 71s39.667 40 65 57s53.666 33.833 84.999 50.5c41.333 22.667 72.333 44.334 93 65.001s31 45.667 31 75c0 32 -10.333 55.5 -31 70.5s-53.667 22.5 -99 22.5c-27.333 0 -55.833 -2.33301 -85.5 -7
s-57.167 -10 -82.5 -16l-13 129c44.667 9.33301 85 16 121 20s69.333 6 100 6c85.333 0 148.666 -17.167 189.999 -51.5s62 -86.5 62 -156.5c0 -29.333 -4 -55.666 -12 -78.999s-19.5 -44.833 -34.5 -64.5s-33.167 -38 -54.5 -55s-45.333 -33.167 -72 -48.5
c-24.667 -14.667 -45.834 -27.834 -63.501 -39.501s-32.167 -22.5 -43.5 -32.5s-19.666 -20 -24.999 -30s-8 -21 -8 -33v-29h311v-130h-490v113z" />
    <glyph glyph-name="three" unicode="3" horiz-adv-x="545" 
d="M215 -11c-29.333 0 -59.835 1.33301 -91.502 4s-58.167 6.33398 -79.5 11.001v122h5c8 -2 17.667 -4 29 -6s23.333 -3.66699 36 -5s25.334 -2.5 38.001 -3.5s24.667 -1.5 36 -1.5c56 0 95.333 8.16699 118 24.5s34 43.166 34 80.499c0 18.667 -2.66699 34.667 -8 48
s-14.333 24.333 -27 33s-29.167 14.834 -49.5 18.501s-45.833 5.5 -76.5 5.5h-55v113h54c54 0 91.333 7.33301 112 22s31 40 31 76c0 34 -9.66699 58.333 -29 73s-52.333 22 -99 22c-17.333 0 -38.666 -1.33301 -63.999 -4s-51.666 -6.33398 -78.999 -11.001h-5v122
c12 2.66699 25.167 5 39.5 7s29 3.66699 44 5s29.833 2.5 44.5 3.5s28.334 1.5 41.001 1.5c181.333 0 272 -64.667 272 -194c0 -44 -10.833 -80.833 -32.5 -110.5s-52.834 -50.167 -93.501 -61.5v-6c46 -9.33301 81.833 -29.5 107.5 -60.5s38.5 -69.5 38.5 -115.5
c0 -68.667 -24.833 -121.167 -74.5 -157.5s-121.834 -54.833 -216.501 -55.5z" />
    <glyph glyph-name="four" unicode="4" horiz-adv-x="625" 
d="M14 247v7l243 496h4l159 -14l6 -11l-248 -449v-4h175l37 199h117v-199h97v-122h-97v-150h-161v150h-313z" />
    <glyph glyph-name="five" unicode="5" horiz-adv-x="544" 
d="M212 -12c-25.333 0 -51.8301 1.33105 -79.4971 3.99805s-57.167 6.66699 -88.5 12v125h34c40.667 -8.66699 79.334 -13 116.001 -13c51.333 0 89.5 8.33301 114.5 25s37.5 45.334 37.5 86.001c0 20 -3.5 36.667 -10.5 50s-18.833 24 -35.5 32
s-38.334 13.833 -65.001 17.5s-59.334 5.5 -98.001 5.5h-73l-11 11l28 397h389v-129h-268l-9 -162c54.667 -0.666992 102.167 -5.16699 142.5 -13.5s73.666 -21.333 99.999 -39s45.833 -40.667 58.5 -69s19 -63.166 19 -104.499c0 -42 -7.66699 -77.833 -23 -107.5
s-36.5 -54 -63.5 -73s-58.833 -32.833 -95.5 -41.5s-76.334 -13 -119.001 -13z" />
    <glyph glyph-name="six" unicode="6" horiz-adv-x="634" 
d="M327 -10c-92.667 0 -163.499 29.001 -212.499 87.001s-73.5 143.333 -73.5 256c0 137.333 31.167 241.166 93.5 311.499s154.833 105.5 277.5 105.5c23.333 0 47.166 -1.5 71.499 -4.5s50.5 -7.5 78.5 -13.5l-19 -120c-25.333 5.33301 -48 9.33301 -68 12s-39 4 -57 4
c-66.667 0 -117 -17.167 -151 -51.5s-55 -88.833 -63 -163.5c20.667 17.333 44.834 30.833 72.501 40.5s57.5 14.5 89.5 14.5c36.667 0 69.667 -5.16699 99 -15.5s54.5 -25 75.5 -44s37.167 -42.167 48.5 -69.5s17 -58 17 -92c0 -39.333 -6.5 -74.833 -19.5 -106.5
s-31.5 -58.667 -55.5 -81s-53.333 -39.5 -88 -51.5s-73.334 -18 -116.001 -18zM327.001 361.001c-23.333 0 -46.667 -4.83301 -70 -14.5s-42.333 -22.167 -57 -37.5c2 -68.667 13.167 -118.667 33.5 -150s51.5 -47 93.5 -47c38 0 66.833 11.167 86.5 33.5
s29.5 54.833 29.5 97.5c0 78.667 -38.667 118 -116 118z" />
    <glyph glyph-name="seven" unicode="7" horiz-adv-x="510" 
d="M226 -20l-136 20v18l237 585h-304l-5 121l17 16h441l23 -88v-21l-239 -631z" />
    <glyph glyph-name="eight" unicode="8" horiz-adv-x="629" 
d="M316 -6c-94 0 -163.667 16.833 -209 50.5s-68 81.167 -68 142.5c0 47.333 10.833 86 32.5 116s50.5 54.333 86.5 73c-28 16.667 -51.167 38.667 -69.5 66s-27.5 64.666 -27.5 111.999c0 30 6.16699 57 18.5 81s30 44.5 53 61.5s50.333 30 82 39s67.167 13.5 106.5 13.5
c38 0 72.5 -4.5 103.5 -13.5s57.167 -21.833 78.5 -38.5s37.833 -37.167 49.5 -61.5s17.5 -51.5 17.5 -81.5c0 -41.333 -8 -74.5 -24 -99.5s-40.333 -47.167 -73 -66.5c16.667 -8 32 -17.167 46 -27.5s26.167 -22.666 36.5 -36.999s18.5 -31.166 24.5 -50.499
s9 -41.333 9 -66c0 -66.667 -22.5 -118.834 -67.5 -156.501s-113.5 -56.5 -205.5 -56.5zM284 327c-5.33301 1.33301 -10.001 2.66602 -14.001 3.99902c-21.333 -13.333 -40 -29.666 -56 -48.999s-24 -44.333 -24 -75c0 -34.667 11.333 -61 34 -79s53.334 -27 92.001 -27
c38 0 67.833 8.16699 89.5 24.5s32.5 39.833 32.5 70.5c0 20 -4 36.833 -12 50.5s-19 25.5 -33 35.5s-30.333 18.5 -49 25.5s-38.667 13.5 -60 19.5zM204.999 545c0 -18 4 -33.167 12 -45.5s18.833 -23 32.5 -32s29.667 -16.667 48 -23s38.166 -12.5 59.499 -18.5
c20.667 13.333 37.334 29.833 50.001 49.5s19 43.167 19 70.5c0 30.667 -9.83301 54 -29.5 70s-46.5 24 -80.5 24s-61 -8 -81 -24s-30 -39.667 -30 -71z" />
    <glyph glyph-name="nine" unicode="9" horiz-adv-x="634" 
d="M307 750c92.667 0 163.501 -29.001 212.501 -87.001s73.5 -143.333 73.5 -256c0 -137.333 -31.167 -241.166 -93.5 -311.499s-154.833 -105.5 -277.5 -105.5c-23.333 0 -47.166 1.5 -71.499 4.5s-50.5 7.5 -78.5 13.5l19 120c25.333 -5.33301 48 -9.33301 68 -12
s39 -4 57 -4c66.667 0 117 17.167 151 51.5s55 88.833 63 163.5c-20.667 -17.333 -44.834 -30.833 -72.501 -40.5s-57.5 -14.5 -89.5 -14.5c-36.667 0 -69.667 5.16699 -99 15.5s-54.5 25 -75.5 44s-37.167 42.167 -48.5 69.5s-17 58 -17 92c0 39.333 6.5 74.833 19.5 106.5
s31.5 58.667 55.5 81s53.167 39.5 87.5 51.5s73.166 18 116.499 18zM307.001 378.999c23.333 0 46.667 4.83301 70 14.5s42.333 22.167 57 37.5c-2 68.667 -13.167 118.667 -33.5 150s-51.5 47 -93.5 47c-38 0 -66.833 -11.167 -86.5 -33.5s-29.5 -54.833 -29.5 -97.5
c0 -78.667 38.667 -118 116 -118z" />
    <glyph glyph-name="colon" unicode=":" horiz-adv-x="277" 
d="M138 -7c-28.667 0 -50.667 6.83301 -66 20.5s-23 35.167 -23 64.5c0 30 7.66699 51.667 23 65s37.333 20 66 20c29.333 0 51.833 -6.66699 67.5 -20s23.5 -35 23.5 -65c0 -56.667 -30.333 -85 -91 -85zM138 377c-28.667 0 -50.667 6.83301 -66 20.5s-23 35.167 -23 64.5
c0 30 7.66699 51.667 23 65s37.333 20 66 20c29.333 0 51.833 -6.66699 67.5 -20s23.5 -35 23.5 -65c0 -56.667 -30.333 -85 -91 -85z" />
    <glyph glyph-name="semicolon" unicode=";" horiz-adv-x="288" 
d="M30 -145l43 305h160l-84 -315zM149 377c-28.667 0 -50.667 6.83301 -66 20.5s-23 35.167 -23 64.5c0 30 7.66699 51.667 23 65s37.333 20 66 20c29.333 0 51.833 -6.66699 67.5 -20s23.5 -35 23.5 -65c0 -56.667 -30.333 -85 -91 -85z" />
    <glyph glyph-name="less" unicode="&#x3c;" horiz-adv-x="540" 
d="M33 313v102l449 195v-116l-302 -130l301 -130v-115z" />
    <glyph glyph-name="equal" unicode="=" horiz-adv-x="533" 
d="M56 295h421v-108h-421v108zM56 514h421v-107h-421v107z" />
    <glyph glyph-name="greater" unicode="&#x3e;" horiz-adv-x="541" 
d="M60 234l301 130l-302 130v116l449 -195v-102l-448 -194v115z" />
    <glyph glyph-name="question" unicode="?" horiz-adv-x="459" 
d="M135 235l-11.9961 181.001c22.667 4.66699 43.667 10.167 63 16.5s36.166 14.166 50.499 23.499s25.5 20.5 33.5 33.5s12 28.167 12 45.5c0 16.667 -2.83301 30.667 -8.5 42s-13.5 20.5 -23.5 27.5s-21.833 12 -35.5 15s-28.834 4.5 -45.501 4.5
c-22 0 -45.167 -1.66699 -69.5 -5s-45.5 -7.33301 -63.5 -12l-7 119c28 7.33301 55.833 12.833 83.5 16.5s56.5 5.5 86.5 5.5c34.667 0 66.334 -4 95.001 -12s53.167 -20.167 73.5 -36.5s36 -36.833 47 -61.5s16.5 -53.667 16.5 -87c0 -29.333 -4.83301 -55.5 -14.5 -78.5
s-22.834 -42.833 -39.501 -59.5s-36.334 -30.5 -59.001 -41.5s-47.334 -19.167 -74.001 -24.5l-6 -112v-15h-103v15zM190.004 -6.99902c-26.667 0 -47.334 7 -62.001 21s-22 33.667 -22 59s7.33301 45 22 59s35.334 21 62.001 21c26 0 46.5 -7 61.5 -21
s22.5 -33.667 22.5 -59s-7.5 -45 -22.5 -59s-35.5 -21 -61.5 -21z" />
    <glyph glyph-name="at" unicode="@" horiz-adv-x="861" 
d="M419 -134c-53.333 0 -103.171 7.83398 -149.504 23.501s-86.833 39.5 -121.5 71.5s-61.834 72.833 -81.501 122.5s-29.5 108.5 -29.5 176.5c0 66 9.83301 124.667 29.5 176s47.334 94.666 83.001 129.999s78.5 62.166 128.5 80.499s105.667 27.5 167 27.5
c62.667 0 117.334 -8.5 164.001 -25.5s85.334 -41.5 116.001 -73.5s53.667 -70.833 69 -116.5s23 -96.834 23 -153.501c0 -79.333 -16.167 -141.5 -48.5 -186.5s-80.166 -67.5 -143.499 -67.5c-34 0 -59.667 8.33301 -77 25s-27.666 36.667 -30.999 60h-4
c-17.333 -27.333 -40.166 -47.5 -68.499 -60.5s-57.166 -19.5 -86.499 -19.5c-45.333 0 -79.833 16.167 -103.5 48.5s-35.5 74.833 -35.5 127.5c0 38 5.66699 72.833 17 104.5s27.666 59 48.999 82s46.833 41 76.5 54s63.167 19.5 100.5 19.5
c23.333 0 48.666 -3.33301 75.999 -10s55.666 -16 84.999 -28l-38 -206c-2 -10 -3.83301 -19.833 -5.5 -29.5s-2.5 -19.167 -2.5 -28.5c0 -17.333 3.83301 -31.166 11.5 -41.499s21.5 -15.5 41.5 -15.5c28.667 0 50.667 15.167 66 45.5s23 72.5 23 126.5
c0 86.667 -22.333 154.5 -67 203.5s-113.667 73.5 -207 73.5c-46.667 0 -89.167 -7 -127.5 -21s-71 -34.667 -98 -62s-47.833 -61 -62.5 -101s-22 -86 -22 -138c0 -53.333 7.33301 -99.166 22 -137.499s34.834 -69.833 60.501 -94.5s55.667 -43 90 -55s71.5 -18 111.5 -18
c28 0 58.667 3.33301 92 10s69 15.667 107 27l28 -85c-42 -12.667 -82.167 -22.667 -120.5 -30s-73.833 -11 -106.5 -11zM378.995 139.001c12.667 0 25.165 2.49902 37.498 7.49902s24 12.5 35 22.5s20.5 22.833 28.5 38.5s14 34.167 18 55.5l24 139
c-21.333 6 -40.666 9 -57.999 9c-22 0 -42.167 -4.5 -60.5 -13.5s-34 -21.5 -47 -37.5s-23 -34.833 -30 -56.5s-10.5 -45.5 -10.5 -71.5c0 -27.333 4.83301 -49.666 14.5 -66.999s25.834 -26 48.501 -26z" />
    <glyph glyph-name="A" unicode="A" horiz-adv-x="696" 
d="M0 8l226 732h243l226 -732v-8h-155l-57 181h-272l-55 -181h-156v8zM448 309l-55 182l-39 133h-13l-39 -133l-55 -182h201z" />
    <glyph glyph-name="B" unicode="B" horiz-adv-x="671" 
d="M325 -10c-84.667 0 -170.333 4.99902 -257 14.999v730c48 5.33301 91.5 9.16602 130.5 11.499s76.833 3.5 113.5 3.5c106 0 183.167 -16.5 231.5 -49.5s72.5 -85.833 72.5 -158.5c0 -42.667 -10.333 -77.667 -31 -105s-50.667 -45.666 -90 -54.999v-4
c46 -9.33301 81.333 -29.166 106 -59.499s37 -69.5 37 -117.5c0 -71.333 -25.667 -124.333 -77 -159s-130 -52 -236 -52zM332.001 107.999c94.667 0 142.001 35.333 142.001 106c0 37.333 -10.833 64 -32.5 80s-58.167 24 -109.5 24h-111v-204c10 -2 23.167 -3.5 39.5 -4.5
s40.166 -1.5 71.499 -1.5zM324.002 428.999c47.333 0 80.5 7.66797 99.5 23.001s28.5 41.666 28.5 78.999c0 36 -10 61.667 -30 77s-53 23 -99 23c-37.333 0 -71.333 -2 -102 -6v-196h103z" />
    <glyph glyph-name="C" unicode="C" horiz-adv-x="570" 
d="M385 -11c-117.333 0 -204.666 30.999 -261.999 92.999s-86 157.667 -86 287c0 130.667 28.167 227 84.5 289s141.5 93 255.5 93c44 0 97.667 -5 161 -15v-131c-32 4.66699 -58.667 8 -80 10s-41 3 -59 3c-36.667 0 -67.334 -4 -92.001 -12s-44.667 -21.5 -60 -40.5
s-26.333 -44.5 -33 -76.5s-10 -72 -10 -120c0 -47.333 3.33301 -86.666 10 -117.999s17.5 -56.5 32.5 -75.5s34.833 -32.5 59.5 -40.5s54.667 -12 90 -12c10 0 21.333 0.333008 34 1s25.5 1.66699 38.5 3s25.5 2.83301 37.5 4.5s22.667 3.5 32 5.5v-129
c-20.667 -5.33301 -44.667 -9.83301 -72 -13.5s-54.333 -5.5 -81 -5.5z" />
    <glyph glyph-name="D" unicode="D" horiz-adv-x="724" 
d="M267 -12c-34 0 -68.168 1.16699 -102.501 3.5s-66.5 5.5 -96.5 9.5v737c48 3.33301 90.667 6.16602 128 8.49902s70.333 3.5 99 3.5c68.667 0 127.834 -7.33301 177.501 -22s90.334 -37.334 122.001 -68.001s55 -70.167 70 -118.5s22.5 -105.833 22.5 -172.5
c0 -68 -7.83301 -126.167 -23.5 -174.5s-40.334 -87.666 -74.001 -117.999s-77 -52.666 -130 -66.999s-117.167 -21.5 -192.5 -21.5zM326.999 118c35.333 0 65.335 4.33105 90.002 12.998s44.667 22.834 60 42.501s26.333 45.5 33 77.5s10 71.667 10 119
c0 46.667 -3.5 85.834 -10.5 117.501s-18.333 57.167 -34 76.5s-36.334 33.333 -62.001 42s-56.834 13 -93.501 13c-14 0 -28.5 -0.333008 -43.5 -1s-30.833 -2 -47.5 -4v-488c18 -2.66699 34.833 -4.66699 50.5 -6s31.5 -2 47.5 -2z" />
    <glyph glyph-name="E" unicode="E" horiz-adv-x="616" 
d="M68 740h503v-130h-341v-173h308v-130h-308v-177h350v-130h-512v740z" />
    <glyph glyph-name="F" unicode="F" horiz-adv-x="591" 
d="M68 740h496v-130h-334v-191h301v-130h-301v-289h-162v740z" />
    <glyph glyph-name="G" unicode="G" horiz-adv-x="660" 
d="M387 -11c-119.333 0 -207.5 31.1689 -264.5 93.502s-85.5 157.833 -85.5 286.5c0 129.333 30.5 225.333 91.5 288s154.5 94 280.5 94c30 0 62.333 -2 97 -6s67 -9.66699 97 -17v-130c-39.333 7.33301 -73.5 12.5 -102.5 15.5s-54.833 4.5 -77.5 4.5
c-41.333 0 -76.166 -4.16699 -104.499 -12.5s-51 -22.333 -68 -42s-29.167 -45.334 -36.5 -77.001s-11 -70.834 -11 -117.501c0 -46 3.33301 -84.833 10 -116.5s17.5 -57 32.5 -76s35 -32.667 60 -41s55.5 -12.5 91.5 -12.5c20 0 42 1 66 3v250h149v-358
c-42 -9.33301 -82.333 -16.5 -121 -21.5s-73.334 -7.5 -104.001 -7.5z" />
    <glyph glyph-name="H" unicode="H" horiz-adv-x="764" 
d="M68 740h162v-296h304v296h162v-740h-162v314h-304v-314h-162v740z" />
    <glyph glyph-name="I" unicode="I" horiz-adv-x="298" 
d="M68 740h162v-740h-162v740z" />
    <glyph glyph-name="J" unicode="J" horiz-adv-x="298" 
d="M-7 -159c14.667 33.333 27 64.001 37 92.001s18 55.667 24 83s10.167 55.166 12.5 83.499s3.5 59.833 3.5 94.5v546h163v-559c0 -34 -2.33301 -66.333 -7 -97s-12.334 -61.167 -23.001 -91.5s-24.667 -61.5 -42 -93.5s-38.666 -66.667 -63.999 -104z" />
    <glyph glyph-name="K" unicode="K" horiz-adv-x="688" 
d="M68 740h162v-300h96l168 300h181l-193 -328l-49 -26v-8l51 -26l210 -352h-182l-179 310h-103v-310h-162v740z" />
    <glyph glyph-name="L" unicode="L" horiz-adv-x="533" 
d="M68 740h162v-611h290v-129h-452v740z" />
    <glyph glyph-name="M" unicode="M" horiz-adv-x="949" 
d="M68 740h225l138 -374l40 -142h7l40 142l138 374h225v-740h-147v550h-7l-57 -176l-129 -341h-134l-128 341l-58 176h-7v-550h-146v740z" />
    <glyph glyph-name="N" unicode="N" horiz-adv-x="766" 
d="M68 740h132l294 -403l53 -83h9v486h142v-740h-132l-291 399l-55 87h-9v-486h-143v740z" />
    <glyph glyph-name="O" unicode="O" horiz-adv-x="747" 
d="M373 -10c-110.667 0 -194.332 31.667 -250.999 95s-85 158 -85 284c0 126.667 28.167 221.834 84.5 285.501s140.166 95.5 251.499 95.5s195.333 -31.833 252 -95.5s85 -158.834 85 -285.501c0 -126 -28.333 -220.667 -85 -284s-140.667 -95 -252 -95zM373.002 122
c31.333 0 57.834 4.33496 79.501 13.002s39.334 22.667 53.001 42s23.5 44.666 29.5 75.999s9 70 9 116c0 45.333 -3.16699 83.833 -9.5 115.5s-16.333 57.5 -30 77.5s-31.334 34.5 -53.001 43.5s-47.834 13.5 -78.501 13.5s-56.667 -4.5 -78 -13.5
s-38.833 -23.333 -52.5 -43s-23.667 -45.334 -30 -77.001s-9.5 -70.5 -9.5 -116.5c0 -45.333 3.16699 -83.833 9.5 -115.5s16.166 -57.167 29.499 -76.5s30.833 -33.333 52.5 -42s47.834 -13 78.501 -13z" />
    <glyph glyph-name="P" unicode="P" horiz-adv-x="657" 
d="M68 735c72 10 141.333 15 208 15c62.667 0 116.667 -5.16699 162 -15.5s82.666 -26.166 111.999 -47.499s50.833 -48.833 64.5 -82.5s20.5 -73.834 20.5 -120.501c0 -91.333 -28.667 -158.333 -86 -201s-146.333 -64 -267 -64h-25.5
c-8.33301 0 -17.166 0.333008 -26.499 1v-220h-162v735zM306 347c30.667 0 56.332 2.33203 76.999 6.99902s37.334 12.334 50.001 23.001s21.834 24.834 27.501 42.501s8.5 39.167 8.5 64.5s-2.66699 46.666 -8 63.999s-14.333 31.5 -27 42.5s-29.167 18.833 -49.5 23.5
s-45.833 7 -76.5 7c-12.667 0 -26.334 -0.5 -41.001 -1.5s-27 -2.16699 -37 -3.5v-263c10 -2 22 -3.5 36 -4.5s27.333 -1.5 40 -1.5z" />
    <glyph glyph-name="Q" unicode="Q" horiz-adv-x="745" 
d="M652 -149c-118 28 -216.5 57.1699 -295.5 87.5029s-142.333 65.166 -190 104.499s-81.5 85.166 -101.5 137.499s-30 115.166 -30 188.499c0 125.333 28.667 220.166 86 284.499s141 96.5 251 96.5c110.667 0 194.667 -32.167 252 -96.5s86 -159.166 86 -284.499
c0 -103.333 -24 -183.833 -72 -241.5s-116.667 -88.167 -206 -91.5v-12l80.5 -17c23 -4.66699 44.667 -8.5 65 -11.5s40.5 -5.5 60.5 -7.5s42.667 -4 68 -6zM372 120.003c30.667 0 57 4.5 79 13.5s40 23.5 54 43.5s24.167 45.667 30.5 77s9.5 69.666 9.5 114.999
s-3.16699 83.833 -9.5 115.5s-16.5 57.5 -30.5 77.5s-32 34.667 -54 44s-48.333 14 -79 14s-56.834 -4.66699 -78.501 -14s-39.5 -24 -53.5 -44s-24.167 -45.833 -30.5 -77.5s-9.5 -70.167 -9.5 -115.5s3.16699 -83.666 9.5 -114.999s16.333 -57 30 -77
s31.334 -34.5 53.001 -43.5s48.167 -13.5 79.5 -13.5z" />
    <glyph glyph-name="R" unicode="R" horiz-adv-x="673" 
d="M352 251c-10 -1.33301 -20.166 -1.99902 -30.499 -1.99902h-32.5h-11.5c-5 0 -10.5 0.166992 -16.5 0.5l-17.5 1c-5.66699 0.333008 -10.167 0.5 -13.5 0.5v-251h-162v735c70 10 139.333 15 208 15c62.667 0 116.667 -4.83301 162 -14.5s82.666 -24.667 111.999 -45
s50.833 -46.5 64.5 -78.5s20.5 -70 20.5 -114c0 -108.667 -47 -181.334 -141 -218.001l169 -280h-178zM306.001 374.001c30.667 0 56.333 2.16406 77 6.49707s37.334 11.333 50.001 21s21.834 22.334 27.501 38.001s8.5 35.167 8.5 58.5c0 22.667 -2.66699 41.834 -8 57.501
s-14.333 28.334 -27 38.001s-29.334 16.667 -50.001 21s-46 6.5 -76 6.5c-11.333 0 -24.333 -0.5 -39 -1.5s-27.667 -2.16699 -39 -3.5v-236c8.66699 -2 19.667 -3.5 33 -4.5s27.666 -1.5 42.999 -1.5z" />
    <glyph glyph-name="S" unicode="S" horiz-adv-x="590" 
d="M285 -12c-36.667 0 -77.334 2.83398 -122.001 8.50098s-87.334 14.167 -128.001 25.5v133c40 -11.333 80.333 -20.166 121 -26.499s77.334 -9.5 110.001 -9.5c87.333 0 131 28 131 84c0 30 -12.167 52 -36.5 66s-57.166 25.667 -98.499 35
c-34.667 8 -65.667 17.833 -93 29.5s-50.333 26.5 -69 44.5s-32.834 39.833 -42.501 65.5s-14.5 56.5 -14.5 92.5c0 33.333 6.33301 63.333 19 90s30.834 49.167 54.501 67.5s52.5 32.5 86.5 42.5s72.333 15 115 15c30.667 0 62 -2 94 -6s70 -11 114 -21v-131
c-31.333 9.33301 -64.5 16.5 -99.5 21.5s-65.833 7.5 -92.5 7.5c-40 0 -70.5 -7.16699 -91.5 -21.5s-31.5 -35.166 -31.5 -62.499c0 -14.667 2.83301 -27.167 8.5 -37.5s14.334 -19.666 26.001 -27.999s26.5 -15.666 44.5 -21.999s39 -12.833 63 -19.5
c32.667 -8.66699 62 -18.834 88 -30.501s48.167 -25.834 66.5 -42.501s32.333 -36.834 42 -60.501s14.5 -51.834 14.5 -84.501c0 -72.667 -23.833 -128.334 -71.5 -167.001s-116.834 -58 -207.501 -58z" />
    <glyph glyph-name="T" unicode="T" horiz-adv-x="601" 
d="M219 609h-201v131h566v-131h-202v-609h-163v609z" />
    <glyph glyph-name="U" unicode="U" horiz-adv-x="751" 
d="M376 -10c-58 0 -107 6.16602 -147 18.499s-72.5 31.333 -97.5 57s-43 57.834 -54 96.501s-16.5 84 -16.5 136v443h163v-442c0 -61.333 12 -106 36 -134s62.667 -42 116 -42s92 13.833 116 41.5s36 72.5 36 134.5v442h162v-443c0 -52.667 -5.5 -98.334 -16.5 -137.001
s-28.833 -70.667 -53.5 -96s-57 -44.166 -97 -56.499s-89 -18.5 -147 -18.5z" />
    <glyph glyph-name="V" unicode="V" horiz-adv-x="692" 
d="M-1 740h168l137 -439l37 -152h11l38 152l137 439h165l-236 -740h-219z" />
    <glyph glyph-name="W" unicode="W" horiz-adv-x="1031" 
d="M9 740h176l88 -447l20 -120h10l25 120l109 447h161l107 -447l24 -120h11l20 120l90 447h173l-181 -740h-206l-94 378l-21 153h-9l-22 -153l-95 -378h-207z" />
    <glyph glyph-name="X" unicode="X" horiz-adv-x="691" 
d="M242 384l-233 356h184l133 -219l19 -36h6l18 36l134 219h179l-237 -357l257 -383h-182l-157 247l-17 33h-6l-16 -33l-153 -247h-180z" />
    <glyph glyph-name="Y" unicode="Y" horiz-adv-x="683" 
d="M261 242l-268 498h179l139 -282l25 -67h10l26 67l139 282h177l-265 -494v-246h-162v242z" />
    <glyph glyph-name="Z" unicode="Z" horiz-adv-x="608" 
d="M29 128l343 473v8h-329v131h521v-126l-343 -475v-8h359v-131h-551v128z" />
    <glyph glyph-name="bracketleft" unicode="[" horiz-adv-x="354" 
d="M73 868h257v-104h-134v-820h134v-104h-257v1028z" />
    <glyph glyph-name="backslash" unicode="\" horiz-adv-x="401" 
d="M24 740h136l217 -860h-136z" />
    <glyph glyph-name="bracketright" unicode="]" horiz-adv-x="354" 
d="M24 -160v104h133v820h-133v104h257v-1028h-257z" />
    <glyph glyph-name="asciicircum" unicode="^" horiz-adv-x="489" 
d="M173 789h142l142 -308h-113l-97 211h-4l-98 -211h-113z" />
    <glyph glyph-name="underscore" unicode="_" horiz-adv-x="604" 
d="M41 -59h523v-117h-523v117z" />
    <glyph glyph-name="grave" unicode="`" horiz-adv-x="287" 
d="M132 610l-116 197h164l66 -187z" />
    <glyph glyph-name="a" unicode="a" horiz-adv-x="555" 
d="M180 -5c-48.667 0 -86.3281 13.835 -112.995 41.502s-40 65.5 -40 113.5c0 53.333 16.5 94.166 49.5 122.499s83.833 44.5 152.5 48.5l114 7v9c0 18.667 -1.33301 34.167 -4 46.5s-7.83398 22.166 -15.501 29.499s-18.334 12.5 -32.001 15.5s-31.5 4.5 -53.5 4.5
c-10.667 0 -22.834 -0.5 -36.501 -1.5s-27.834 -2.16699 -42.501 -3.5s-29.334 -3 -44.001 -5s-28.334 -4.33301 -41.001 -7l-10 112c35.333 6.66699 69.666 11.5 102.999 14.5s65 4.5 95 4.5c82.667 0 143.334 -14.333 182.001 -43s58 -74 58 -136v-368h-131l-14 66h-8
c-23.333 -22.667 -49.666 -40.167 -78.999 -52.5s-59.333 -18.5 -90 -18.5zM246.006 107.002c16 0 32.833 3.83301 50.5 11.5s33.167 16.167 46.5 25.5v98l-70 -7c-32 -3.33301 -54.333 -10 -67 -20s-19 -26 -19 -48c0 -40 19.667 -60 59 -60z" />
    <glyph glyph-name="b" unicode="b" horiz-adv-x="614" 
d="M295 -11c-16 0 -32.166 0.5 -48.499 1.5s-34 2.83301 -53 5.5s-39.667 6.16699 -62 10.5s-47.166 9.83301 -74.499 16.5v785h159v-324c35.333 43.333 86.666 65 153.999 65c69.333 0 121.666 -22 156.999 -66s53 -110.667 53 -200c0 -91.333 -24 -162.833 -72 -214.5
s-119 -78.167 -213 -79.5zM296.001 97c22.667 0 42.002 2.66895 58.002 8.00195s28.667 14.666 38 27.999s16.166 31 20.499 53s6.5 49.667 6.5 83c0 30.667 -1.66699 56.5 -5 77.5s-9 37.667 -17 50s-18.333 21.166 -31 26.499s-28.334 8 -47.001 8
c-32 0 -57.167 -9.66699 -75.5 -29s-27.5 -52.333 -27.5 -99v-196c10 -3.33301 21.833 -5.83301 35.5 -7.5s28.5 -2.5 44.5 -2.5z" />
    <glyph glyph-name="c" unicode="c" horiz-adv-x="482" 
d="M303 -9c-90.667 0 -158.167 22.667 -202.5 68s-66.5 115.666 -66.5 210.999c0 94.667 22.333 164.834 67 210.501s112 68.5 202 68.5c25.333 0 50.5 -1.33301 75.5 -4s47.167 -6.66699 66.5 -12v-125c-45.333 8 -87.333 12 -126 12
c-45.333 0 -77.666 -11.5 -96.999 -34.5s-29 -61.167 -29 -114.5c0 -54 9.66699 -92.667 29 -116s51.333 -35 96 -35c24.667 0 46.667 0.833008 66 2.5s39.666 4.5 60.999 8.5v-124c-18 -5.33301 -39.833 -9.33301 -65.5 -12s-51.167 -4 -76.5 -4z" />
    <glyph glyph-name="d" unicode="d" horiz-adv-x="615" 
d="M244 -10c-140 0 -210 89 -210 267c0 97.333 24.833 170.5 74.5 219.5s119.167 73.5 208.5 73.5c13.333 0 26.666 -0.666992 39.999 -2l41 -4v264h159v-808h-141l-12 62h-6c-35.333 -48 -86.666 -72 -153.999 -72zM294 106c32.667 0 58.167 10.002 76.5 30.002
s27.5 54 27.5 102v192c-12 3.33301 -25.167 5.83301 -39.5 7.5s-29.5 2.5 -45.5 2.5c-22 0 -40.5 -2.66699 -55.5 -8s-27.167 -14.5 -36.5 -27.5s-16 -30.333 -20 -52s-6 -48.834 -6 -81.501c0 -31.333 1.66699 -57.5 5 -78.5s9 -37.833 17 -50.5s18.333 -21.834 31 -27.501
s28 -8.5 46 -8.5z" />
    <glyph glyph-name="e" unicode="e" horiz-adv-x="556" 
d="M299 -9c-176.667 0 -264.999 91.3311 -264.999 273.998c0 93.333 22.333 164 67 212s110.667 72 198 72c148.667 0 223 -81.667 223 -245c0 -17.333 -0.5 -32.166 -1.5 -44.499s-3.16699 -24.5 -6.5 -36.5h-321c2 -22 5.5 -40.167 10.5 -54.5
s12.167 -25.666 21.5 -33.999s21.166 -14.333 35.499 -18s31.5 -5.5 51.5 -5.5c26 0 56 2.33301 90 7s65.667 11 95 19l5 -115c-29.333 -9.33301 -62 -16.833 -98 -22.5s-71 -8.5 -105 -8.5zM293.001 435.998c-32 0 -56 -9.50098 -72 -28.501s-25.667 -50.5 -29 -94.5h190
c-1.33301 44.667 -9 76.334 -23 95.001s-36 28 -66 28z" />
    <glyph glyph-name="f" unicode="f" horiz-adv-x="418" 
d="M116 407h-102.001v133h103v26c0 46 5.16699 84.667 15.5 116s27.333 56.666 51 75.999s54.834 33.333 93.501 42s86.334 13.667 143.001 15l8 -117c-29.333 -1.33301 -53.833 -4.16602 -73.5 -8.49902s-35.334 -11 -47.001 -20s-20 -21 -25 -36s-7.5 -33.5 -7.5 -55.5
v-38h132v-133h-132v-407h-159v407z" />
    <glyph glyph-name="g" unicode="g" horiz-adv-x="614" 
d="M269 -220c-34 0 -68.5 2.00098 -103.5 6.00098s-66.167 9.66699 -93.5 17l10 115c25.333 -5.33301 51.833 -10 79.5 -14s55.167 -6 82.5 -6c24.667 0 47 2.5 67 7.5s37 13.167 51 24.5s25 26.333 33 45s12 41.667 12 69v43h-7c-16.667 -25.333 -38 -43.833 -64 -55.5
s-56 -17.5 -90 -17.5c-70.667 0 -123.5 20.167 -158.5 60.5s-52.5 103.166 -52.5 188.499c0 94.667 25 166.167 75 214.5s119.333 72.5 208 72.5c16 0 32.167 -0.666992 48.5 -2s34 -3.5 53 -6.5s39.833 -7 62.5 -12s48 -11.5 76 -19.5v-442
c0 -52 -7.16699 -96.333 -21.5 -133s-34.333 -66.5 -60 -89.5s-56.167 -39.667 -91.5 -50s-74 -15.5 -116 -15.5zM295 126.001c33.333 0 58.9971 9.83203 76.9971 29.499s27 52.167 27 97.5v177c-12.667 3.33301 -26.167 5.83301 -40.5 7.5s-29.166 2.5 -44.499 2.5
c-22 0 -40.5 -2.66699 -55.5 -8s-27.167 -14.166 -36.5 -26.499s-16 -29 -20 -50s-6 -47.167 -6 -78.5c0 -28 1.66699 -51.667 5 -71s8.83301 -35 16.5 -47s17.834 -20.5 30.501 -25.5s28.334 -7.5 47.001 -7.5z" />
    <glyph glyph-name="h" unicode="h" horiz-adv-x="614" 
d="M58 808h158.001v-324c43.333 22.667 80.666 39.334 111.999 50.001s61 16 89 16c44.667 0 79.5 -12.833 104.5 -38.5s37.5 -62.167 37.5 -109.5v-402h-159v348c0 25.333 -4.66699 43.666 -14 54.999s-24 17 -44 17c-15.333 0 -34 -3 -56 -9s-45.333 -14.667 -70 -26v-385
h-158v808z" />
    <glyph glyph-name="i" unicode="i" horiz-adv-x="275" 
d="M137 620c-30.667 0 -52.832 6.83301 -66.499 20.5s-20.5 35.5 -20.5 65.5s6.66699 51.667 20 65s35.666 20 66.999 20c32 0 54.833 -6.83301 68.5 -20.5s20.5 -35.167 20.5 -64.5s-6.83301 -51 -20.5 -65s-36.5 -21 -68.5 -21zM58.002 540h159v-540h-159v540z" />
    <glyph glyph-name="j" unicode="j" horiz-adv-x="273" 
d="M136 620c-31.333 0 -53.666 6.83301 -66.999 20.5s-20 35.5 -20 65.5s6.66699 51.667 20 65s35.666 20 66.999 20c32 0 54.833 -6.83301 68.5 -20.5s20.5 -35.167 20.5 -64.5s-6.83301 -51 -20.5 -65s-36.5 -21 -68.5 -21zM11 -194c8 24 15 48.1689 21 72.502
s11 49.833 15 76.5s7 55 9 85s3 63 3 99v33.5v66v83.5v87.5c0 28.333 -0.166992 54.166 -0.5 77.499s-0.5 41 -0.5 53h158v-464c-2.66699 -51.333 -12 -102.833 -28 -154.5s-37.333 -98.834 -64 -141.501z" />
    <glyph glyph-name="k" unicode="k" horiz-adv-x="579" 
d="M58 808h158v-477h54l128 209h174l-170 -252l-24 -8v-4l24 -8l187 -268h-174l-146 225h-53v-225h-158v808z" />
    <glyph glyph-name="l" unicode="l" horiz-adv-x="276" 
d="M58 808h159v-808h-159v808z" />
    <glyph glyph-name="m" unicode="m" horiz-adv-x="907" 
d="M58 540l131.002 0.00195312l9 -61h6c38 24.667 71.667 42.667 101 54s58.333 17 87 17c61.333 0 103.333 -23.667 126 -71h5c37.333 24.667 70.666 42.667 99.999 54s58.333 17 87 17c44.667 0 79.5 -12.833 104.5 -38.5s37.5 -62.167 37.5 -109.5v-402h-157v347
c0 25.333 -4.83301 43.666 -14.5 54.999s-24.834 17 -45.501 17c-13.333 0 -29 -3 -47 -9s-36 -14.333 -54 -25v-385h-157v347c0 25.333 -4.83301 43.666 -14.5 54.999s-24.834 17 -45.501 17c-13.333 0 -29.166 -3.16699 -47.499 -9.5s-36.5 -14.5 -54.5 -24.5v-385h-157
v540z" />
    <glyph glyph-name="n" unicode="n" horiz-adv-x="614" 
d="M58 540h133.001l9 -61h6c47.333 25.333 87 43.5 119 54.5s62.667 16.5 92 16.5c44.667 0 79.5 -12.833 104.5 -38.5s37.5 -62.167 37.5 -109.5v-402h-159v348c0 26 -4.83301 44.5 -14.5 55.5s-24.167 16.5 -43.5 16.5c-17.333 0 -36.833 -3.16699 -58.5 -9.5
s-43.834 -14.833 -66.501 -25.5v-385h-159v540z" />
    <glyph glyph-name="o" unicode="o" horiz-adv-x="606" 
d="M303 -10c-88 0 -155 23.833 -201 71.5s-69 117.167 -69 208.5s23 160.833 69 208.5s113 71.5 201 71.5s154.833 -23.833 200.5 -71.5s68.5 -117.167 68.5 -208.5s-22.833 -160.833 -68.5 -208.5s-112.5 -71.5 -200.5 -71.5zM303 111c20 0 37 2.66699 51 8
s25.333 14.166 34 26.499s15 28.666 19 48.999s6 45.5 6 75.5s-2 55.167 -6 75.5s-10.333 36.666 -19 48.999s-20 21 -34 26s-31 7.5 -51 7.5s-37 -2.5 -51 -7.5s-25.333 -13.667 -34 -26s-15 -28.666 -19 -48.999s-6 -45.5 -6 -75.5s2 -55.167 6 -75.5
s10.333 -36.666 19 -48.999s20 -21.166 34 -26.499s31 -8 51 -8z" />
    <glyph glyph-name="p" unicode="p" horiz-adv-x="616" 
d="M58 540l140.999 -0.000976562l10 -62h6c36 48 88.333 72 157 72c139.333 0 209 -88.667 209 -266c0 -95.333 -24.167 -168.166 -72.5 -218.499s-118.166 -75.5 -209.499 -75.5c-14 0 -27.833 0.5 -41.5 1.5s-27.167 2.16699 -40.5 3.5v-215h-159v760zM301.999 99.999
c22 0 40.502 2.66699 55.502 8s27.167 14.5 36.5 27.5s16 30.333 20 52s6 49.167 6 82.5c0 31.333 -1.66699 57.5 -5 78.5s-8.83301 37.833 -16.5 50.5s-17.834 21.667 -30.501 27s-28.334 8 -47.001 8c-33.333 0 -59 -10.333 -77 -31s-27 -55 -27 -103v-190
c11.333 -3.33301 24.333 -5.83301 39 -7.5s30 -2.5 46 -2.5z" />
    <glyph glyph-name="q" unicode="q" horiz-adv-x="614" 
d="M403 62c-38 -48 -91 -72 -159 -72c-140 0 -210 89 -210 267c0 97.333 24.667 170.5 74 219.5s120.333 73.5 213 73.5c41.333 0 82.5 -2.5 123.5 -7.5s78.5 -10.833 112.5 -17.5v-745h-154v282zM295 106c34.667 0 60.498 10.5 77.498 31.5s25.5 55.5 25.5 103.5v190
c-27.333 6 -55.666 9 -84.999 9c-23.333 0 -42.666 -2.66699 -57.999 -8s-27.5 -14.333 -36.5 -27s-15.5 -29.667 -19.5 -51s-6 -48 -6 -80s1.66699 -58.667 5 -80s9 -38.5 17 -51.5s18.5 -22.333 31.5 -28s29.167 -8.5 48.5 -8.5z" />
    <glyph glyph-name="r" unicode="r" horiz-adv-x="422" 
d="M58 540l133 -0.00195312l9 -79h6c10 8 21.333 16.5 34 25.5s26.167 17.5 40.5 25.5s29 15.333 44 22s29.167 11.667 42.5 15h44v-138h-58c-25.333 -3.33301 -50.5 -9.66602 -75.5 -18.999s-45.167 -19.666 -60.5 -30.999v-361h-159v540z" />
    <glyph glyph-name="s" unicode="s" horiz-adv-x="494" 
d="M233 -11c-28 0 -58.832 2.16406 -92.499 6.49707s-67.834 10.5 -102.501 18.5v113c33.333 -8 65.833 -14.5 97.5 -19.5s62.167 -7.5 91.5 -7.5c56.667 0 85 17.333 85 52c0 17.333 -6.83301 30.333 -20.5 39s-34.834 15 -63.501 19c-19.333 2.66699 -40 6.16699 -62 10.5
s-42.333 12 -61 23s-34 27.167 -46 48.5s-18 50.333 -18 87c0 54 18.833 96.167 56.5 126.5s90.834 45.5 159.501 45.5c26 0 53.333 -1.5 82 -4.5s62.667 -8.16699 102 -15.5l-4 -118c-35.333 8 -65.833 13.833 -91.5 17.5s-48.167 5.5 -67.5 5.5c-58 0 -87 -17.333 -87 -52
c0 -19.333 7.83301 -32.666 23.5 -39.999s39.5 -13.333 71.5 -18c24.667 -3.33301 47.834 -8.33301 69.501 -15s40.5 -16.167 56.5 -28.5s28.667 -28.166 38 -47.499s14 -43.666 14 -72.999c0 -56 -19.833 -98.833 -59.5 -128.5s-96.834 -44.5 -171.501 -44.5z" />
    <glyph glyph-name="t" unicode="t" horiz-adv-x="419" 
d="M287 -10c-59.333 0 -104.333 14 -135 42s-46 69 -46 123v251h-91v134h101l23 154l125 15v-169h129v-134h-128v-214c0 -30 5.66699 -51.167 17 -63.5s29.333 -18.5 54 -18.5c17.333 0 37 3.66699 59 11v-118c-14.667 -4 -31.5 -7.16699 -50.5 -9.5
s-38.167 -3.5 -57.5 -3.5z" />
    <glyph glyph-name="u" unicode="u" horiz-adv-x="613" 
d="M202 -10c-47.333 0 -83.833 13.001 -109.5 39.001s-38.5 62.333 -38.5 109v402h159v-353c0 -25.333 4.5 -43.5 13.5 -54.5s24.167 -16.5 45.5 -16.5c18 0 37.667 3.5 59 10.5s43.333 16.167 66 27.5v386h159v-540h-134l-9 60h-4c-23.333 -13.333 -43.5 -24.333 -60.5 -33
s-33.333 -15.834 -49 -21.501s-31.167 -9.66699 -46.5 -12s-32.333 -3.5 -51 -3.5z" />
    <glyph glyph-name="v" unicode="v" horiz-adv-x="586" 
d="M8 526v14h168l90 -307l23 -102h10l23 102l91 307h166v-14l-191 -526h-192z" />
    <glyph glyph-name="w" unicode="w" horiz-adv-x="810" 
d="M14 535v5h153l62 -317l11 -70h10l12 70l72 317h141l73 -317l13 -70h10l11 70l61 317h152v-5l-132 -535h-176l-68 292l-9 63h-10l-10 -63l-67 -292h-175z" />
    <glyph glyph-name="x" unicode="x" horiz-adv-x="581" 
d="M5 15l176 265l-168 251v9h168l83 -136l24 -43h8l24 43l81 136h168v-9l-169 -257l176 -259v-15h-167l-90 149l-25 48h-9l-24 -48l-88 -149h-168v15z" />
    <glyph glyph-name="y" unicode="y" horiz-adv-x="590" 
d="M144 -195v11l71 189l-210 520v15h167l94 -287l24 -90h9l25 90l96 287h165v-15l-289 -745z" />
    <glyph glyph-name="z" unicode="z" horiz-adv-x="514" 
d="M33 104l246 308v8h-238v120h431v-103l-240 -308v-9h250v-120h-449v104z" />
    <glyph glyph-name="braceleft" unicode="{" horiz-adv-x="343" 
d="M25 415c24 0 40.833 7.83691 50.5 23.5039s14.5 38.5 14.5 68.5v238c0 45.333 8.66699 77.166 26 95.499s46 27.5 86 27.5c6.66699 0 15.667 -0.166992 27 -0.5s22.833 -0.833008 34.5 -1.5s22.167 -1.16699 31.5 -1.5s15.666 -0.833008 18.999 -1.5v-99h-49
c-17.333 0 -29.5 -3.5 -36.5 -10.5s-10.5 -18.167 -10.5 -33.5v-246c0 -30.667 -7.33301 -56.834 -22 -78.501s-33.667 -35.167 -57 -40.5c23.333 -4.66699 42.333 -17.667 57 -39s22 -47.333 22 -78v-248c0 -15.333 3.5 -26.5 10.5 -33.5s19.167 -10.5 36.5 -10.5h49v-99
c-3.33301 -0.666992 -9.66602 -1.33398 -18.999 -2.00098s-19.833 -1.16699 -31.5 -1.5l-34.5 -1c-11.333 -0.333008 -20 -0.5 -26 -0.5c-40 0 -68.833 9.16699 -86.5 27.5s-26.5 50.166 -26.5 95.499v240c0 30.667 -4.83301 53.667 -14.5 69s-26.5 23 -50.5 23v118z" />
    <glyph glyph-name="bar" unicode="|" horiz-adv-x="295" 
d="M222 808v-1028h-149v1028h149z" />
    <glyph glyph-name="braceright" unicode="}" horiz-adv-x="343" 
d="M318 297c-23.333 0 -40 -7.6709 -50 -23.0039s-15 -38.333 -15 -69v-240c0 -45.333 -8.66699 -77.166 -26 -95.499s-46 -27.5 -86 -27.5c-6 0 -14.667 0.166992 -26 0.5l-34.5 1c-11.667 0.333008 -22.334 0.833008 -32.001 1.5s-15.834 1.33398 -18.501 2.00098v99h49
c17.333 0 29.5 3.5 36.5 10.5s10.5 18.167 10.5 33.5v248c0 30.667 7.16699 56.667 21.5 78s33.5 34.333 57.5 39c-24 5.33301 -43.167 18.833 -57.5 40.5s-21.5 47.834 -21.5 78.501v246c0 15.333 -3.5 26.5 -10.5 33.5s-19.167 10.5 -36.5 10.5h-49v99
c2.66699 0.666992 8.83398 1.16699 18.501 1.5s20.334 0.833008 32.001 1.5s23.167 1.16699 34.5 1.5s20 0.5 26 0.5c40 0 68.667 -9.16699 86 -27.5s26 -50.166 26 -95.499v-238c0 -30 5 -52.833 15 -68.5s26.667 -23.5 50 -23.5v-118z" />
    <glyph glyph-name="asciitilde" unicode="~" horiz-adv-x="649" 
d="M38 270c20.667 26 38.8291 47.3311 54.4961 63.998s30.5 29.834 44.5 39.501s27.5 16.5 40.5 20.5s27.167 6 42.5 6c20.667 0 39.5 -3.83301 56.5 -11.5s33.167 -16.167 48.5 -25.5s30.333 -17.833 45 -25.5s30 -11.5 46 -11.5c40.667 0 76 24.667 106 74l89 -53
c-9.33301 -15.333 -20.166 -31.333 -32.499 -48s-26 -32 -41 -46s-31.333 -25.667 -49 -35s-36.834 -14 -57.501 -14c-21.333 0 -40.666 4 -57.999 12s-33.5 16.667 -48.5 26s-29.667 18 -44 26s-29.166 12 -44.499 12c-19.333 0 -37.666 -6.16699 -54.999 -18.5
s-35.666 -31.166 -54.999 -56.499z" />
    <glyph glyph-name="uni00A0" unicode="&#xa0;" horiz-adv-x="201" 
 />
    <glyph glyph-name="exclamdown" unicode="&#xa1;" horiz-adv-x="268" 
d="M134 545c26.667 0 47.334 -6.83301 62.001 -20.5s22 -33.167 22 -58.5s-7.33301 -45 -22 -59s-35.334 -21 -62.001 -21c-26 0 -46.333 7 -61 21s-22 33.667 -22 59s7.33301 44.833 22 58.5s35 20.5 61 20.5zM85 301h98v-12l31 -479v-10h-161v10l32 479v12z" />
    <glyph glyph-name="cent" unicode="&#xa2;" horiz-adv-x="495" 
d="M252 -6c-145.333 14.667 -218 106.667 -218 276c0 168 72.667 260 218 276v114h99v-113c34.667 -2 66 -6.66699 94 -14v-125c-45.333 8 -87.333 12 -126 12c-45.333 0 -77.666 -11.5 -96.999 -34.5s-29 -61.167 -29 -114.5c0 -54 9.66699 -92.667 29 -116
s51.333 -35 96 -35c24.667 0 46.667 0.833008 66 2.5s39.666 4.5 60.999 8.5v-124c-26 -7.33301 -57.333 -12 -94 -14v-113h-99v114z" />
    <glyph glyph-name="sterling" unicode="&#xa3;" horiz-adv-x="658" 
d="M40 433h136v88c0 76.667 20.667 133.667 62 171s106.666 56 195.999 56c29.333 0 58.5 -2 87.5 -6s62.167 -10.667 99.5 -20l-7 -128c-28 6.66699 -55.667 11.667 -83 15s-51.666 5 -72.999 5c-44 0 -75 -7 -93 -21s-27 -38.667 -27 -74v-86h195v-123h-195v-173h269v-137
h-567v138h136v172h-136v123z" />
    <glyph glyph-name="currency" unicode="&#xa4;" horiz-adv-x="614" 
d="M43 166l54.998 53.9971l46 34c-26.667 30.667 -40 69.334 -40 116.001c0 45.333 13.333 84 40 116l-46 34l-55 54l60 60l54 -54l38 -53c32 16.667 69.333 25 112 25s79.667 -8.66699 111 -26l39 54l55 54l59 -60l-54 -54l-48 -34
c13.333 -15.333 23.5 -32.666 30.5 -51.999s10.5 -40.666 10.5 -63.999s-3.5 -44.833 -10.5 -64.5s-16.833 -37.167 -29.5 -52.5l47 -33l54 -54l-59 -60l-55 54l-38 53c-31.333 -17.333 -68.666 -26 -111.999 -26s-80.666 8.66699 -111.999 26l-38 -53l-54 -54z
M200.998 369.997c0 -32.667 9.5 -57.667 28.5 -75s44.833 -26 77.5 -26c32 0 57.5 8.5 76.5 25.5s28.5 42.167 28.5 75.5s-9.5 58.333 -28.5 75s-44.5 25 -76.5 25c-32.667 0 -58.5 -8.5 -77.5 -25.5s-28.5 -41.833 -28.5 -74.5z" />
    <glyph glyph-name="yen" unicode="&#xa5;" horiz-adv-x="741" 
d="M100 349h134l-210 391h179l139 -282l25 -67h10l26 67l139 282h177l-210 -391h124v-103h-179v-73h179v-103h-179v-70h-162v70h-192v103h192v69l-2 4h-190v103z" />
    <glyph glyph-name="brokenbar" unicode="&#xa6;" horiz-adv-x="294" 
d="M72 204h149v-424h-149v424zM72 808h149v-424h-149v424z" />
    <glyph glyph-name="section" unicode="&#xa7;" horiz-adv-x="520" 
d="M244 -11c-28 0 -58.832 2.16406 -92.499 6.49707s-67.834 10.5 -102.501 18.5v112c67.333 -17.333 130.333 -26 189 -26c56.667 0 85 17.333 85 52c0 17.333 -6.83301 30.166 -20.5 38.499s-34.834 14.833 -63.501 19.5c-19.333 2.66699 -40 6 -62 10
s-42.333 11.667 -61 23s-34 27.5 -46 48.5s-18 50.167 -18 87.5c0 21.333 3 40.666 9 57.999s14.667 32.666 26 45.999c-10.667 11.333 -19.167 25.333 -25.5 42s-9.5 37.334 -9.5 62.001c0 54 19 96.167 57 126.5s91 45.5 159 45.5c26 0 53.333 -1.5 82 -4.5
s62.334 -8.16699 101.001 -15.5l-3 -117c-35.333 8 -65.833 13.667 -91.5 17s-48.167 5 -67.5 5c-57.333 0 -86 -17.333 -86 -52c0 -19.333 7.83301 -32.5 23.5 -39.5s39.167 -12.833 70.5 -17.5c24.667 -4 47.834 -9.16699 69.501 -15.5s40.5 -15.666 56.5 -27.999
s28.667 -28.166 38 -47.499s14 -43.666 14 -72.999c0 -44 -12.333 -80 -37 -108c11.333 -11.333 20.333 -25.166 27 -41.499s10 -36.166 10 -59.499c0 -56 -19.833 -98.833 -59.5 -128.5s-96.834 -44.5 -171.501 -44.5zM314.001 307.997
c8 10.667 11.998 25.332 11.998 43.999c0 21.333 -5 37 -15 47s-25 17.667 -45 23c-5.33301 2 -13.166 4 -23.499 6s-18.166 4.33301 -23.499 7c-13.333 -13.333 -20 -28.333 -20 -45c0 -22 5.83301 -37.667 17.5 -47s28.167 -16.666 49.5 -21.999
c5.33301 -2 13 -4.16699 23 -6.5s18.333 -4.5 25 -6.5z" />
    <glyph glyph-name="dieresis" unicode="&#xa8;" horiz-adv-x="510" 
d="M126 621c-28 0 -48.167 6.16699 -60.5 18.5s-18.5 32.166 -18.5 59.499s6.16699 47 18.5 59s32.5 18 60.5 18s48.333 -6.16699 61 -18.5s19 -31.833 19 -58.5c0 -27.333 -6.33301 -47.166 -19 -59.499s-33 -18.5 -61 -18.5zM377 621c-28 0 -48.333 6.16699 -61 18.5
s-19 32.166 -19 59.499s6.33301 47 19 59s33 18 61 18s48.167 -6.16699 60.5 -18.5s18.5 -31.833 18.5 -58.5c0 -27.333 -6.16699 -47.166 -18.5 -59.499s-32.5 -18.5 -60.5 -18.5z" />
    <glyph glyph-name="copyright" unicode="&#xa9;" horiz-adv-x="817" 
d="M424 164c-61.333 0 -108 16.832 -140 50.499s-48 84.834 -48 153.501s16 120.167 48 154.5s78.667 51.5 140 51.5c15.333 0 31 -1 47 -3s30.333 -4.66699 43 -8v-83c-32 6 -58.333 9 -79 9c-36.667 0 -62.334 -9.5 -77.001 -28.5s-22 -49.5 -22 -91.5
s7.33301 -72.667 22 -92s39.667 -29 75 -29c20.667 0 48 3 82 9v-82c-12.667 -3.33301 -27.167 -6 -43.5 -8s-32.166 -3 -47.499 -3zM409 -10.001c-56 0 -106.833 9.16699 -152.5 27.5s-84.667 44.166 -117 77.499s-57.333 73.333 -75 120s-26.5 98.334 -26.5 155.001
s8.83301 108.334 26.5 155.001s42.667 86.667 75 120s71.333 59.166 117 77.499s96.5 27.5 152.5 27.5s106.667 -9.16699 152 -27.5s84.166 -44.166 116.499 -77.499s57.333 -73.333 75 -120s26.5 -98.334 26.5 -155.001s-8.83301 -108.334 -26.5 -155.001
s-42.667 -86.667 -75 -120s-71.166 -59.166 -116.499 -77.499s-96 -27.5 -152 -27.5zM409 68.999c44 0 83.667 7.16699 119 21.5s65.333 34.666 90 60.999s43.5 58 56.5 95s19.5 78.167 19.5 123.5s-6.5 86.5 -19.5 123.5s-31.833 68.667 -56.5 95
s-54.667 46.666 -90 60.999s-75 21.5 -119 21.5c-44.667 0 -84.667 -7.16699 -120 -21.5s-65.333 -34.666 -90 -60.999s-43.5 -58 -56.5 -95s-19.5 -78.167 -19.5 -123.5s6.5 -86.5 19.5 -123.5s31.833 -68.667 56.5 -95s54.667 -46.666 90 -60.999s75.333 -21.5 120 -21.5z
" />
    <glyph glyph-name="ordfeminine" unicode="&#xaa;" horiz-adv-x="453" 
d="M153 348c-37.333 0 -66.8311 10.668 -88.498 32.001s-32.5 49.666 -32.5 84.999c0 36 12.667 63.833 38 83.5s62 31.167 110 34.5l94 5v4c0 14.667 -0.833008 26.167 -2.5 34.5s-5 14.833 -10 19.5s-12.167 7.66699 -21.5 9s-21.333 2 -36 2
c-17.333 0 -37.5 -0.833008 -60.5 -2.5s-46.5 -4.16699 -70.5 -7.5l-8 84c28 5.33301 54.833 9.16602 80.5 11.499s50.167 3.5 73.5 3.5c64.667 0 111.167 -9.83301 139.5 -29.5s42.5 -51.167 42.5 -94.5v-270h-108l-6 47h-4
c-18.667 -15.333 -39.334 -27.666 -62.001 -36.999s-45.334 -14 -68.001 -14zM203.002 435.001c20 0 43.667 7.66797 71 23.001v62l-49 -4c-25.333 -2.66699 -42.833 -6.83398 -52.5 -12.501s-14.5 -15.167 -14.5 -28.5c0 -26.667 15 -40 45 -40z" />
    <glyph glyph-name="guillemotleft" unicode="&#xab;" horiz-adv-x="660" 
d="M28 268v4l151 238h160l-151 -238v-4l151 -238h-160zM316 268v4l151 238h160l-151 -238v-4l151 -238h-160z" />
    <glyph glyph-name="logicalnot" unicode="&#xac;" horiz-adv-x="819" 
d="M46 438h712v-338h-155v210h-557v128z" />
    <glyph glyph-name="uni00AD" unicode="&#xad;" horiz-adv-x="471" 
d="M53 339h365v-118h-365v118z" />
    <glyph glyph-name="registered" unicode="&#xae;" horiz-adv-x="695" 
d="M348 142c-46 0 -87.667 7.5 -125 22.5s-69.5 35.833 -96.5 62.5s-47.833 58.667 -62.5 96s-22 78.666 -22 123.999c0 44.667 7.33301 85.834 22 123.501s35.5 69.834 62.5 96.501s59.167 47.5 96.5 62.5s79 22.5 125 22.5c45.333 0 86.833 -7.5 124.5 -22.5
s70 -35.833 97 -62.5s47.833 -58.834 62.5 -96.501s22 -78.834 22 -123.501c0 -45.333 -7.33301 -86.666 -22 -123.999s-35.5 -69.333 -62.5 -96s-59.333 -47.5 -97 -62.5s-79.167 -22.5 -124.5 -22.5zM348 207c36 0 68.667 5.83301 98 17.5s54.166 28 74.499 49
s36.166 46.167 47.499 75.5s17 62 17 98s-5.66699 68.667 -17 98s-27.166 54.5 -47.499 75.5s-45.166 37.333 -74.499 49s-62 17.5 -98 17.5s-68.667 -5.83301 -98 -17.5s-54.333 -28 -75 -49s-36.5 -46.167 -47.5 -75.5s-16.5 -62 -16.5 -98s5.5 -68.667 16.5 -98
s26.833 -54.5 47.5 -75.5s45.667 -37.333 75 -49s62 -17.5 98 -17.5zM238 612c34.667 4 67 6.00098 97 6.00098c93.333 0 140 -34.333 140 -103c0 -23.333 -5.16699 -42.833 -15.5 -58.5s-25.5 -26.834 -45.5 -33.501l69 -128h-69l-58 109h-51v-109h-67v317zM336 457.001
c26 0 44.333 4.49902 55 13.499s16 23.167 16 42.5c0 17.333 -4.83301 30.833 -14.5 40.5s-26.5 14.5 -50.5 14.5h-7c-3.33301 0 -7 -0.166992 -11 -0.5s-7.66699 -0.666016 -11 -0.999023s-6 -0.5 -8 -0.5v-109h31z" />
    <glyph glyph-name="macron" unicode="&#xaf;" horiz-adv-x="478" 
d="M52 739h363v-102h-363v102z" />
    <glyph glyph-name="degree" unicode="&#xb0;" horiz-adv-x="457" 
d="M229 372c-29.333 0 -56.166 4.66699 -80.499 14s-45.333 22.5 -63 39.5s-31.334 36.833 -41.001 59.5s-14.5 47.667 -14.5 75s4.83301 52.5 14.5 75.5s23.334 43 41.001 60s38.667 30.167 63 39.5s51.166 14 80.499 14c28.667 0 55.167 -4.66699 79.5 -14
s45.333 -22.5 63 -39.5s31.334 -37 41.001 -60s14.5 -48.167 14.5 -75.5s-4.83301 -52.333 -14.5 -75s-23.334 -42.5 -41.001 -59.5s-38.667 -30.167 -63 -39.5s-50.833 -14 -79.5 -14zM229 457c34 0 59.667 9.16699 77 27.5s26 43.5 26 75.5s-8.66699 57.333 -26 76
s-43 28 -77 28s-60 -9.33301 -78 -28s-27 -44 -27 -76s9 -57.167 27 -75.5s44 -27.5 78 -27.5z" />
    <glyph glyph-name="plusminus" unicode="&#xb1;" horiz-adv-x="535" 
d="M53 478h162v161h105v-161h161v-105h-161v-154h-105v154h-162v105zM54 162h428v-105h-428v105z" />
    <glyph glyph-name="twosuperior" unicode="&#xb2;" horiz-adv-x="454" 
d="M29 389c0 45.333 12.499 83.998 37.499 115.998s66.5 62 124.5 90c18.667 8.66699 33.834 16.834 45.501 24.501s21 14.834 28 21.501s11.833 13.334 14.5 20.001s4 14 4 22c0 37.333 -31.333 56 -94 56c-18 0 -37.833 -1.5 -59.5 -4.5s-46.5 -7.16699 -74.5 -12.5
l-12 110c35.333 7.33301 67.333 12.666 96 15.999s55 5 79 5c134 0 201 -52.667 201 -158c0 -38.667 -11 -72 -33 -100s-55.333 -53.333 -100 -76c-34 -19.333 -58.333 -36 -73 -50s-22 -28 -22 -42v-16h227v-111h-389v89z" />
    <glyph glyph-name="threesuperior" unicode="&#xb3;" horiz-adv-x="430" 
d="M180 292c-26.667 0 -52.8359 1.16797 -78.5029 3.50098s-47.167 5.16602 -64.5 8.49902v115h7c6 -1.33301 13.5 -2.66602 22.5 -3.99902s18.5 -2.5 28.5 -3.5s20 -1.83301 30 -2.5s19 -1 27 -1c42 0 71.333 4.83301 88 14.5s25 24.834 25 45.501
c0 22 -8.66699 37.667 -26 47s-48.666 14 -93.999 14h-46v94h45c38 0 65.167 4.83301 81.5 14.5s24.5 24.5 24.5 44.5c0 19.333 -7.16699 33.666 -21.5 42.999s-38.5 14 -72.5 14c-13.333 0 -30 -1 -50 -3s-40.667 -4.66699 -62 -8h-7l-1 112
c18.667 4 40.834 7.33301 66.501 10s48.834 4 69.501 4c142.667 0 214 -49.667 214 -149c0 -60.667 -25.667 -101.334 -77 -122.001c29.333 -10.667 51.5 -27.167 66.5 -49.5s22.5 -49.5 22.5 -81.5c0 -51.333 -18.667 -90.833 -56 -118.5s-91.333 -41.5 -162 -41.5z" />
    <glyph glyph-name="acute" unicode="&#xb4;" horiz-adv-x="279" 
d="M33 618l66 187h163l-116 -196z" />
    <glyph glyph-name="mu" unicode="&#xb5;" horiz-adv-x="648" 
d="M71 540l159 0.00195312v-354c0 -48 19.667 -72 59 -72c17.333 0 36.5 3.33301 57.5 10s43.5 15.667 67.5 27v389h159v-540h-134l-9 60h-4c-22 -12.667 -41.333 -23.334 -58 -32.001s-32.334 -15.667 -47.001 -21s-29.167 -9.33301 -43.5 -12
s-30.166 -4.33398 -47.499 -5.00098v-210h-159v760z" />
    <glyph glyph-name="paragraph" unicode="&#xb6;" horiz-adv-x="620" 
d="M385 0l-72 -0.00390625v266c-11.333 -0.666992 -21.5 -1 -30.5 -1h-28.5c-34 0 -64.833 4.16699 -92.5 12.5s-51.334 21.833 -71.001 40.5s-34.667 43.334 -45 74.001s-15.5 68.334 -15.5 113.001s5.16699 82.334 15.5 113.001s25.333 55.334 45 74.001
s43.334 32.167 71.001 40.5s58.834 12.5 93.501 12.5c19.333 0 40.166 -0.833008 62.499 -2.5s44.833 -4.16699 67.5 -7.5v-735zM536 -0.00390625h-95v735h95v-735z" />
    <glyph glyph-name="periodcentered" unicode="&#xb7;" horiz-adv-x="264" 
d="M132 284c-32 0 -54.833 6.66602 -68.5 19.999s-20.5 35.333 -20.5 66s6.83301 52.834 20.5 66.501s36.5 20.5 68.5 20.5c31.333 0 53.833 -7 67.5 -21s20.5 -36 20.5 -66s-6.83301 -51.833 -20.5 -65.5s-36.167 -20.5 -67.5 -20.5z" />
    <glyph glyph-name="cedilla" unicode="&#xb8;" horiz-adv-x="296" 
d="M128 -220c-13.333 0 -28.333 1.16602 -45 3.49902s-33.667 5.16602 -51 8.49902v94c12 -3.33301 24.667 -5.83301 38 -7.5s24.666 -2.5 33.999 -2.5c16 0 27.333 3 34 9s10 14.667 10 26c0 14 -5.5 31.833 -16.5 53.5s-28.167 46.5 -51.5 74.5h99
c14 -17.333 25.833 -32.666 35.5 -45.999s17.334 -25.833 23.001 -37.5s9.66699 -22.667 12 -33s3.5 -21.166 3.5 -32.499c0 -34.667 -10.833 -61.667 -32.5 -81s-52.5 -29 -92.5 -29z" />
    <glyph glyph-name="onesuperior" unicode="&#xb9;" horiz-adv-x="354" 
d="M155 704l-114 -37h-12l-19 67l2 17l178 95h100v-546h-135v404z" />
    <glyph glyph-name="ordmasculine" unicode="&#xba;" horiz-adv-x="473" 
d="M237 437c15.333 0 28 1.5 38 4.5s17.833 8.5 23.5 16.5s9.66699 19.167 12 33.5s3.5 32.5 3.5 54.5s-1.16699 40.167 -3.5 54.5s-6.33301 25.5 -12 33.5s-13.5 13.667 -23.5 17s-22.667 5 -38 5s-28 -1.66699 -38 -5s-17.833 -9 -23.5 -17s-9.66699 -19.167 -12 -33.5
s-3.5 -32.5 -3.5 -54.5s1.16699 -40.167 3.5 -54.5s6.33301 -25.5 12 -33.5s13.5 -13.5 23.5 -16.5s22.667 -4.5 38 -4.5zM237 345c-65.333 0 -115.666 16.5 -150.999 49.5s-53 83.5 -53 151.5s17.667 118.5 53 151.5s85.666 49.5 150.999 49.5s115.5 -16.5 150.5 -49.5
s52.5 -83.5 52.5 -151.5s-17.5 -118.5 -52.5 -151.5s-85.167 -49.5 -150.5 -49.5z" />
    <glyph glyph-name="guillemotright" unicode="&#xbb;" horiz-adv-x="660" 
d="M192 30h-160l151 238v4l-151 238h160l151 -238v-4zM481 30h-160l151 238v4l-151 238h160l151 -238v-4z" />
    <glyph glyph-name="onequarter" unicode="&#xbc;" horiz-adv-x="1091" 
d="M852 107h-231l-16 84l183 352l13 6l117 -9l9 -21l-185 -309h120l35 145h91v-145h74v-103h-74v-107h-136v107zM588 740h134l-317 -740h-134zM168 604l-114 -37h-12l-19 67l2 17l178 95h100v-546h-135v404z" />
    <glyph glyph-name="onehalf" unicode="&#xbd;" horiz-adv-x="1107" 
d="M673 89c0 22.667 3.00098 43.5 9.00098 62.5s15.5 36.667 28.5 53s29.667 31.833 50 46.5s45.166 29.334 74.499 44.001c18.667 9.33301 34 17.666 46 24.999s21.333 14.333 28 21s11.334 13.334 14.001 20.001s4 14 4 22c0 37.333 -31 56 -93 56
c-39.333 0 -84.333 -5.66699 -135 -17l-12 110c36.667 7.33301 69.167 12.666 97.5 15.999s54.166 5 77.499 5c134 0 201 -52.667 201 -158c0 -38 -10.667 -71 -32 -99s-55 -53.667 -101 -77c-34 -19.333 -58.333 -36 -73 -50s-22 -28 -22 -42v-16h227v-111h-389v89z
M588.001 740h134l-317 -740h-134zM168.001 604l-114 -37h-12l-19 67l2 17l178 95h100v-546h-135v404z" />
    <glyph glyph-name="threequarters" unicode="&#xbe;" horiz-adv-x="1132" 
d="M191 192c-26.667 0 -52.8359 1.16797 -78.5029 3.50098s-47.167 5.16602 -64.5 8.49902v115h7c6 -1.33301 13.5 -2.66602 22.5 -3.99902s18.5 -2.5 28.5 -3.5s20 -1.83301 30 -2.5s19 -1 27 -1c42 0 71.333 4.83301 88 14.5s25 24.834 25 45.501
c0 22 -8.66699 37.667 -26 47s-48.666 14 -93.999 14h-46v94h45c38 0 65.167 4.83301 81.5 14.5s24.5 24.5 24.5 44.5c0 19.333 -7.16699 33.666 -21.5 42.999s-38.5 14 -72.5 14c-13.333 0 -30 -1 -50 -3s-40.667 -4.66699 -62 -8h-7l-1 112
c18.667 4 40.834 7.33301 66.501 10s48.834 4 69.501 4c142.667 0 214 -49.667 214 -149c0 -60.667 -25.667 -101.334 -77 -122.001c29.333 -10.667 51.5 -27.167 66.5 -49.5s22.5 -49.5 22.5 -81.5c0 -51.333 -18.667 -90.833 -56 -118.5s-91.333 -41.5 -162 -41.5z
M896.998 107.001h-231l-16 84l183 352l13 6l117 -9l9 -21l-185 -309h120l35 145h91v-145h74v-103h-74v-107h-136v107zM644.998 740.001h134l-317 -740h-134z" />
    <glyph glyph-name="questiondown" unicode="&#xbf;" horiz-adv-x="454" 
d="M322 305l11.9971 -181.001c-22.667 -4.66699 -43.667 -10.167 -63 -16.5s-36.166 -14.166 -50.499 -23.499s-25.5 -20.5 -33.5 -33.5s-12 -28.167 -12 -45.5c0 -33.333 10.5 -56.5 31.5 -69.5s48.167 -19.5 81.5 -19.5c22 0 45.167 1.66699 69.5 5s45.5 7.33301 63.5 12
l7 -119c-28 -7.33301 -55.833 -12.833 -83.5 -16.5s-56.5 -5.5 -86.5 -5.5c-34.667 0 -66.334 4 -95.001 12s-53.167 20.167 -73.5 36.5s-36 36.833 -47 61.5s-16.5 53.667 -16.5 87c0 29.333 4.83301 55.5 14.5 78.5s22.834 42.833 39.501 59.5s36.334 30.5 59.001 41.5
s47.334 19.167 74.001 24.5l6 112v15h103v-15zM266.997 546.999c26.667 0 47.334 -7 62.001 -21s22 -33.667 22 -59s-7.33301 -45 -22 -59s-35.334 -21 -62.001 -21c-26 0 -46.5 7 -61.5 21s-22.5 33.667 -22.5 59s7.5 45 22.5 59s35.5 21 61.5 21z" />
    <glyph glyph-name="Agrave" unicode="&#xc0;" horiz-adv-x="696" 
d="M0 8l226 732h243l226 -732v-8h-155l-57 181h-272l-55 -181h-156v8zM448 309l-55 182l-39 133h-13l-39 -133l-55 -182h201zM281 797l-115 178h163l68 -166z" />
    <glyph glyph-name="Aacute" unicode="&#xc1;" horiz-adv-x="696" 
d="M0 8l226 732h243l226 -732v-8h-155l-57 181h-272l-55 -181h-156v8zM448 309l-55 182l-39 133h-13l-39 -133l-55 -182h201zM285 806l67 169h163l-115 -178z" />
    <glyph glyph-name="Acircumflex" unicode="&#xc2;" horiz-adv-x="696" 
d="M0 8l226 732h243l226 -732v-8h-155l-57 181h-272l-55 -181h-156v8zM448 309l-55 182l-39 133h-13l-39 -133l-55 -182h201zM165 908l183 75l185 -75v-109l-184 75l-184 -75v109z" />
    <glyph glyph-name="Atilde" unicode="&#xc3;" horiz-adv-x="696" 
d="M0 8l226 732h243l226 -732v-8h-155l-57 181h-272l-55 -181h-156v8zM448 309l-55 182l-39 133h-13l-39 -133l-55 -182h201zM138 851c20.667 38 44.1699 66.332 70.5029 84.999s52.166 28 77.499 28c15.333 0 30.5 -2 45.5 -6s29.667 -8.5 44 -13.5s28.833 -9.5 43.5 -13.5
s29.667 -6 45 -6c14 0 27.833 2.83301 41.5 8.5s28.834 15.5 45.501 29.5l23 -27c-20 -38 -43.333 -66.667 -70 -86s-52.667 -29 -78 -29c-15.333 0 -30.333 2 -45 6s-29.334 8.33301 -44.001 13s-29.334 9 -44.001 13s-29.334 6 -44.001 6s-29 -2.66699 -43 -8
s-29 -14.666 -45 -27.999z" />
    <glyph glyph-name="Adieresis" unicode="&#xc4;" horiz-adv-x="696" 
d="M0 8l226 732h243l226 -732v-8h-155l-57 181h-272l-55 -181h-156v8zM448 309l-55 182l-39 133h-13l-39 -133l-55 -182h201zM213 804c-31.333 0 -53.833 6.83203 -67.5 20.499s-20.5 35.834 -20.5 66.501c0 30 6.83301 51.833 20.5 65.5s36.167 20.5 67.5 20.5
s54 -6.83301 68 -20.5s21 -35.5 21 -65.5s-7 -52 -21 -66s-36.667 -21 -68 -21zM483 803.999c-31.333 0 -53.833 6.83203 -67.5 20.499s-20.5 35.834 -20.5 66.501c0 30 6.83301 51.833 20.5 65.5s36.167 20.5 67.5 20.5s54 -6.83301 68 -20.5s21 -35.5 21 -65.5
s-7 -52 -21 -66s-36.667 -21 -68 -21z" />
    <glyph glyph-name="Aring" unicode="&#xc5;" horiz-adv-x="696" 
d="M0 8l226 732h243l226 -732v-8h-155l-57 181h-272l-55 -181h-156v8zM448 309l-55 182l-39 133h-13l-39 -133l-55 -182h201zM348 769c-37.333 0 -67.833 10.5 -91.5 31.5s-35.5 47.833 -35.5 80.5c0 33.333 11.833 60.666 35.5 81.999s54.167 32 91.5 32
c36.667 0 66.834 -10.667 90.501 -32s35.5 -48.666 35.5 -81.999c0 -32.667 -11.833 -59.5 -35.5 -80.5s-53.834 -31.5 -90.501 -31.5zM348 826c22 0 37.667 4.5 47 13.5s14 22.833 14 41.5c0 19.333 -4.66699 33.666 -14 42.999s-25 14 -47 14
c-22.667 0 -38.667 -4.66699 -48 -14s-14 -23.666 -14 -42.999c0 -18.667 4.66699 -32.5 14 -41.5s25.333 -13.5 48 -13.5z" />
    <glyph glyph-name="AE" unicode="&#xc6;" horiz-adv-x="927" 
d="M-3 8l272 732h607v-130h-296l11 -173h270v-130h-262l11 -177h279v-130h-439l-7 178h-219l-66 -178h-161v8zM273 312h164l-12 310h-37z" />
    <glyph glyph-name="Ccedilla" unicode="&#xc7;" horiz-adv-x="570" 
d="M313 -220c-13.333 0 -28.3301 1.16797 -44.9971 3.50098s-33.667 5.16602 -51 8.49902v94c12 -3.33301 24.667 -5.83301 38 -7.5s24.666 -2.5 33.999 -2.5c16 0 27.333 3 34 9s10 14.667 10 26c0 21.333 -11.667 49.666 -35 84.999c-88 14 -153.5 51.5 -196.5 112.5
s-64.5 147.833 -64.5 260.5c0 130.667 28.167 227 84.5 289s141.5 93 255.5 93c44 0 97.667 -5 161 -15v-131c-32 4.66699 -58.667 8 -80 10s-41 3 -59 3c-36.667 0 -67.334 -4 -92.001 -12s-44.667 -21.5 -60 -40.5s-26.333 -44.5 -33 -76.5s-10 -72 -10 -120
c0 -47.333 3.33301 -86.666 10 -117.999s17.5 -56.5 32.5 -75.5s34.833 -32.5 59.5 -40.5s54.667 -12 90 -12c10 0 21.333 0.333008 34 1s25.5 1.66699 38.5 3s25.5 2.83301 37.5 4.5s22.667 3.5 32 5.5v-129c-18.667 -5.33301 -40 -9.5 -64 -12.5s-48 -5.16699 -72 -6.5
c13.333 -19.333 22.666 -36.5 27.999 -51.5s8 -30.833 8 -47.5c0 -34.667 -10.833 -61.667 -32.5 -81s-52.5 -29 -92.5 -29z" />
    <glyph glyph-name="Egrave" unicode="&#xc8;" horiz-adv-x="616" 
d="M273 797l-115 178h163l68 -166zM68 740h503v-130h-341v-173h308v-130h-308v-177h350v-130h-512v740z" />
    <glyph glyph-name="Eacute" unicode="&#xc9;" horiz-adv-x="616" 
d="M255 806l67 169h163l-115 -178zM68 740h503v-130h-341v-173h308v-130h-308v-177h350v-130h-512v740z" />
    <glyph glyph-name="Ecircumflex" unicode="&#xca;" horiz-adv-x="616" 
d="M68 740h503v-130h-341v-173h308v-130h-308v-177h350v-130h-512v740zM145 908l183 75l185 -75v-109l-184 75l-184 -75v109z" />
    <glyph glyph-name="Edieresis" unicode="&#xcb;" horiz-adv-x="616" 
d="M190 804c-31.333 0 -53.833 6.83203 -67.5 20.499s-20.5 35.834 -20.5 66.501c0 30 6.83301 51.833 20.5 65.5s36.167 20.5 67.5 20.5s54 -6.83301 68 -20.5s21 -35.5 21 -65.5s-7 -52 -21 -66s-36.667 -21 -68 -21zM460 803.999c-31.333 0 -53.833 6.83203 -67.5 20.499
s-20.5 35.834 -20.5 66.501c0 30 6.83301 51.833 20.5 65.5s36.167 20.5 67.5 20.5s54 -6.83301 68 -20.5s21 -35.5 21 -65.5s-7 -52 -21 -66s-36.667 -21 -68 -21zM68 739.998h503v-130h-341v-173h308v-130h-308v-177h350v-130h-512v740z" />
    <glyph glyph-name="Igrave" unicode="&#xcc;" horiz-adv-x="298" 
d="M68 740h162v-740h-162v740zM98 797l-115 178h163l68 -166z" />
    <glyph glyph-name="Iacute" unicode="&#xcd;" horiz-adv-x="298" 
d="M68 740h162v-740h-162v740zM87 806l67 169h163l-115 -178z" />
    <glyph glyph-name="Icircumflex" unicode="&#xce;" horiz-adv-x="298" 
d="M68 740h162v-740h-162v740zM-33 908l183 75l185 -75v-109l-184 75l-184 -75v109z" />
    <glyph glyph-name="Idieresis" unicode="&#xcf;" horiz-adv-x="298" 
d="M68 740h162v-740h-162v740zM16 804c-31.333 0 -53.833 6.83203 -67.5 20.499s-20.5 35.834 -20.5 66.501c0 30 6.83301 51.833 20.5 65.5s36.167 20.5 67.5 20.5s54 -6.83301 68 -20.5s21 -35.5 21 -65.5s-7 -52 -21 -66s-36.667 -21 -68 -21zM286 803.999
c-31.333 0 -53.833 6.83203 -67.5 20.499s-20.5 35.834 -20.5 66.501c0 30 6.83301 51.833 20.5 65.5s36.167 20.5 67.5 20.5s54 -6.83301 68 -20.5s21 -35.5 21 -65.5s-7 -52 -21 -66s-36.667 -21 -68 -21z" />
    <glyph glyph-name="Eth" unicode="&#xd0;" horiz-adv-x="745" 
d="M2 434h86.999v304c48 3.33301 90.667 6.16602 128 8.49902s70.333 3.5 99 3.5c68.667 0 127.834 -7.33301 177.501 -22s90.334 -37.334 122.001 -68.001s55 -70.167 70 -118.5s22.5 -105.833 22.5 -172.5c0 -68 -7.83301 -126.167 -23.5 -174.5
s-40.334 -87.666 -74.001 -117.999s-77 -52.666 -130 -66.999s-117.167 -21.5 -192.5 -21.5c-34 0 -68.167 1.16699 -102.5 3.5s-66.5 5.5 -96.5 9.5v310h-87v123zM347.999 118c35.333 0 65.335 4.33105 90.002 12.998s44.667 22.834 60 42.501s26.333 45.5 33 77.5
s10 71.667 10 119c0 46.667 -3.5 85.834 -10.5 117.501s-18.333 57.167 -34 76.5s-36.334 33.333 -62.001 42s-56.834 13 -93.501 13c-14 0 -28.5 -0.333008 -43.5 -1s-30.833 -2 -47.5 -4v-180h118v-123h-118v-185c18 -2.66699 34.833 -4.66699 50.5 -6s31.5 -2 47.5 -2z
" />
    <glyph glyph-name="Ntilde" unicode="&#xd1;" horiz-adv-x="766" 
d="M170 851c20.667 38 44.1699 66.332 70.5029 84.999s52.166 28 77.499 28c15.333 0 30.5 -2 45.5 -6s29.667 -8.5 44 -13.5s28.833 -9.5 43.5 -13.5s29.667 -6 45 -6c14 0 27.833 2.83301 41.5 8.5s28.834 15.5 45.501 29.5l23 -27c-20 -38 -43.333 -66.667 -70 -86
s-52.667 -29 -78 -29c-15.333 0 -30.333 2 -45 6s-29.334 8.33301 -44.001 13s-29.334 9 -44.001 13s-29.334 6 -44.001 6s-29 -2.66699 -43 -8s-29 -14.666 -45 -27.999zM68.0029 739.999h132l294 -403l53 -83h9v486h142v-740h-132l-291 399l-55 87h-9v-486h-143v740z" />
    <glyph glyph-name="Ograve" unicode="&#xd2;" horiz-adv-x="747" 
d="M308 797l-115 178h163l68 -166zM373 -10c-110.667 0 -194.332 31.667 -250.999 95s-85 158 -85 284c0 126.667 28.167 221.834 84.5 285.501s140.166 95.5 251.499 95.5s195.333 -31.833 252 -95.5s85 -158.834 85 -285.501c0 -126 -28.333 -220.667 -85 -284
s-140.667 -95 -252 -95zM373.002 122c31.333 0 57.834 4.33496 79.501 13.002s39.334 22.667 53.001 42s23.5 44.666 29.5 75.999s9 70 9 116c0 45.333 -3.16699 83.833 -9.5 115.5s-16.333 57.5 -30 77.5s-31.334 34.5 -53.001 43.5s-47.834 13.5 -78.501 13.5
s-56.667 -4.5 -78 -13.5s-38.833 -23.333 -52.5 -43s-23.667 -45.334 -30 -77.001s-9.5 -70.5 -9.5 -116.5c0 -45.333 3.16699 -83.833 9.5 -115.5s16.166 -57.167 29.499 -76.5s30.833 -33.333 52.5 -42s47.834 -13 78.501 -13z" />
    <glyph glyph-name="Oacute" unicode="&#xd3;" horiz-adv-x="747" 
d="M311 806l67 169h163l-115 -178zM373 -10c-110.667 0 -194.332 31.667 -250.999 95s-85 158 -85 284c0 126.667 28.167 221.834 84.5 285.501s140.166 95.5 251.499 95.5s195.333 -31.833 252 -95.5s85 -158.834 85 -285.501c0 -126 -28.333 -220.667 -85 -284
s-140.667 -95 -252 -95zM373.002 122c31.333 0 57.834 4.33496 79.501 13.002s39.334 22.667 53.001 42s23.5 44.666 29.5 75.999s9 70 9 116c0 45.333 -3.16699 83.833 -9.5 115.5s-16.333 57.5 -30 77.5s-31.334 34.5 -53.001 43.5s-47.834 13.5 -78.501 13.5
s-56.667 -4.5 -78 -13.5s-38.833 -23.333 -52.5 -43s-23.667 -45.334 -30 -77.001s-9.5 -70.5 -9.5 -116.5c0 -45.333 3.16699 -83.833 9.5 -115.5s16.166 -57.167 29.499 -76.5s30.833 -33.333 52.5 -42s47.834 -13 78.501 -13z" />
    <glyph glyph-name="Ocircumflex" unicode="&#xd4;" horiz-adv-x="747" 
d="M373 -10c-110.667 0 -194.332 31.667 -250.999 95s-85 158 -85 284c0 126.667 28.167 221.834 84.5 285.501s140.166 95.5 251.499 95.5s195.333 -31.833 252 -95.5s85 -158.834 85 -285.501c0 -126 -28.333 -220.667 -85 -284s-140.667 -95 -252 -95zM373.002 122
c31.333 0 57.834 4.33496 79.501 13.002s39.334 22.667 53.001 42s23.5 44.666 29.5 75.999s9 70 9 116c0 45.333 -3.16699 83.833 -9.5 115.5s-16.333 57.5 -30 77.5s-31.334 34.5 -53.001 43.5s-47.834 13.5 -78.501 13.5s-56.667 -4.5 -78 -13.5
s-38.833 -23.333 -52.5 -43s-23.667 -45.334 -30 -77.001s-9.5 -70.5 -9.5 -116.5c0 -45.333 3.16699 -83.833 9.5 -115.5s16.166 -57.167 29.499 -76.5s30.833 -33.333 52.5 -42s47.834 -13 78.501 -13zM189.003 908.002l183 75l185 -75v-109l-184 75l-184 -75v109z" />
    <glyph glyph-name="Otilde" unicode="&#xd5;" horiz-adv-x="747" 
d="M163 851c20.667 38 44.1699 66.332 70.5029 84.999s52.166 28 77.499 28c15.333 0 30.5 -2 45.5 -6s29.667 -8.5 44 -13.5s28.833 -9.5 43.5 -13.5s29.667 -6 45 -6c14 0 27.833 2.83301 41.5 8.5s28.834 15.5 45.501 29.5l23 -27c-20 -38 -43.333 -66.667 -70 -86
s-52.667 -29 -78 -29c-15.333 0 -30.333 2 -45 6s-29.334 8.33301 -44.001 13s-29.334 9 -44.001 13s-29.334 6 -44.001 6s-29 -2.66699 -43 -8s-29 -14.666 -45 -27.999zM373.003 -10.001c-110.667 0 -194.332 31.667 -250.999 95s-85 158 -85 284
c0 126.667 28.167 221.834 84.5 285.501s140.166 95.5 251.499 95.5s195.333 -31.833 252 -95.5s85 -158.834 85 -285.501c0 -126 -28.333 -220.667 -85 -284s-140.667 -95 -252 -95zM373.005 121.999c31.333 0 57.834 4.33496 79.501 13.002s39.334 22.667 53.001 42
s23.5 44.666 29.5 75.999s9 70 9 116c0 45.333 -3.16699 83.833 -9.5 115.5s-16.333 57.5 -30 77.5s-31.334 34.5 -53.001 43.5s-47.834 13.5 -78.501 13.5s-56.667 -4.5 -78 -13.5s-38.833 -23.333 -52.5 -43s-23.667 -45.334 -30 -77.001s-9.5 -70.5 -9.5 -116.5
c0 -45.333 3.16699 -83.833 9.5 -115.5s16.166 -57.167 29.499 -76.5s30.833 -33.333 52.5 -42s47.834 -13 78.501 -13z" />
    <glyph glyph-name="Odieresis" unicode="&#xd6;" horiz-adv-x="747" 
d="M234 804c-31.333 0 -53.833 6.83203 -67.5 20.499s-20.5 35.834 -20.5 66.501c0 30 6.83301 51.833 20.5 65.5s36.167 20.5 67.5 20.5s54 -6.83301 68 -20.5s21 -35.5 21 -65.5s-7 -52 -21 -66s-36.667 -21 -68 -21zM504 803.999c-31.333 0 -53.833 6.83203 -67.5 20.499
s-20.5 35.834 -20.5 66.501c0 30 6.83301 51.833 20.5 65.5s36.167 20.5 67.5 20.5s54 -6.83301 68 -20.5s21 -35.5 21 -65.5s-7 -52 -21 -66s-36.667 -21 -68 -21zM373 -10.002c-110.667 0 -194.332 31.667 -250.999 95s-85 158 -85 284
c0 126.667 28.167 221.834 84.5 285.501s140.166 95.5 251.499 95.5s195.333 -31.833 252 -95.5s85 -158.834 85 -285.501c0 -126 -28.333 -220.667 -85 -284s-140.667 -95 -252 -95zM373.002 121.998c31.333 0 57.834 4.33496 79.501 13.002s39.334 22.667 53.001 42
s23.5 44.666 29.5 75.999s9 70 9 116c0 45.333 -3.16699 83.833 -9.5 115.5s-16.333 57.5 -30 77.5s-31.334 34.5 -53.001 43.5s-47.834 13.5 -78.501 13.5s-56.667 -4.5 -78 -13.5s-38.833 -23.333 -52.5 -43s-23.667 -45.334 -30 -77.001s-9.5 -70.5 -9.5 -116.5
c0 -45.333 3.16699 -83.833 9.5 -115.5s16.166 -57.167 29.499 -76.5s30.833 -33.333 52.5 -42s47.834 -13 78.501 -13z" />
    <glyph glyph-name="multiply" unicode="&#xd7;" horiz-adv-x="495" 
d="M38 236l134 134l-134 135l75 74l134 -134l134 134l75 -74l-135 -135l135 -134l-74 -74l-135 134l-134 -134z" />
    <glyph glyph-name="Oslash" unicode="&#xd8;" horiz-adv-x="750" 
d="M104 111c-43.333 62.667 -64.999 148.667 -64.999 258c0 126.667 28.167 221.834 84.5 285.501s140.166 95.5 251.499 95.5c84 0 152.667 -18.667 206 -56l37 46h118l-91 -111c44.667 -62.667 67 -149.334 67 -260.001c0 -126 -28.333 -220.667 -85 -284
s-140.667 -95 -252 -95c-84 0 -152.333 18.333 -205 55l-37 -45h-119zM375.001 122c30.667 0 57.001 4.33398 79.001 13.001s39.667 22.667 53 42s23.166 44.666 29.499 75.999s9.5 70 9.5 116c0 48.667 -4 90 -12 124l-273 -336c13.333 -12.667 29.333 -21.667 48 -27
s40.667 -8 66 -8zM205.002 369.001c0 -24.667 1 -46.999 3 -66.999s4.66699 -38.333 8 -55l273 335c-13.333 13.333 -29.333 22.833 -48 28.5s-40.667 8.5 -66 8.5c-30.667 0 -56.667 -4.5 -78 -13.5s-38.833 -23.333 -52.5 -43s-23.667 -45.334 -30 -77.001
s-9.5 -70.5 -9.5 -116.5z" />
    <glyph glyph-name="Ugrave" unicode="&#xd9;" horiz-adv-x="751" 
d="M311 797l-115 178h163l68 -166zM376 -10c-58 0 -107 6.16602 -147 18.499s-72.5 31.333 -97.5 57s-43 57.834 -54 96.501s-16.5 84 -16.5 136v443h163v-442c0 -61.333 12 -106 36 -134s62.667 -42 116 -42s92 13.833 116 41.5s36 72.5 36 134.5v442h162v-443
c0 -52.667 -5.5 -98.334 -16.5 -137.001s-28.833 -70.667 -53.5 -96s-57 -44.166 -97 -56.499s-89 -18.5 -147 -18.5z" />
    <glyph glyph-name="Uacute" unicode="&#xda;" horiz-adv-x="751" 
d="M302 806l67 169h163l-115 -178zM376 -10c-58 0 -107 6.16602 -147 18.499s-72.5 31.333 -97.5 57s-43 57.834 -54 96.501s-16.5 84 -16.5 136v443h163v-442c0 -61.333 12 -106 36 -134s62.667 -42 116 -42s92 13.833 116 41.5s36 72.5 36 134.5v442h162v-443
c0 -52.667 -5.5 -98.334 -16.5 -137.001s-28.833 -70.667 -53.5 -96s-57 -44.166 -97 -56.499s-89 -18.5 -147 -18.5z" />
    <glyph glyph-name="Ucircumflex" unicode="&#xdb;" horiz-adv-x="751" 
d="M376 -10c-58 0 -107 6.16602 -147 18.499s-72.5 31.333 -97.5 57s-43 57.834 -54 96.501s-16.5 84 -16.5 136v443h163v-442c0 -61.333 12 -106 36 -134s62.667 -42 116 -42s92 13.833 116 41.5s36 72.5 36 134.5v442h162v-443c0 -52.667 -5.5 -98.334 -16.5 -137.001
s-28.833 -70.667 -53.5 -96s-57 -44.166 -97 -56.499s-89 -18.5 -147 -18.5zM187 907.999l183 75l185 -75v-109l-184 75l-184 -75v109z" />
    <glyph glyph-name="Udieresis" unicode="&#xdc;" horiz-adv-x="751" 
d="M236 804c-31.333 0 -53.833 6.83203 -67.5 20.499s-20.5 35.834 -20.5 66.501c0 30 6.83301 51.833 20.5 65.5s36.167 20.5 67.5 20.5s54 -6.83301 68 -20.5s21 -35.5 21 -65.5s-7 -52 -21 -66s-36.667 -21 -68 -21zM506 803.999c-31.333 0 -53.833 6.83203 -67.5 20.499
s-20.5 35.834 -20.5 66.501c0 30 6.83301 51.833 20.5 65.5s36.167 20.5 67.5 20.5s54 -6.83301 68 -20.5s21 -35.5 21 -65.5s-7 -52 -21 -66s-36.667 -21 -68 -21zM376 -10.002c-58 0 -107 6.16602 -147 18.499s-72.5 31.333 -97.5 57s-43 57.834 -54 96.501
s-16.5 84 -16.5 136v443h163v-442c0 -61.333 12 -106 36 -134s62.667 -42 116 -42s92 13.833 116 41.5s36 72.5 36 134.5v442h162v-443c0 -52.667 -5.5 -98.334 -16.5 -137.001s-28.833 -70.667 -53.5 -96s-57 -44.166 -97 -56.499s-89 -18.5 -147 -18.5z" />
    <glyph glyph-name="Yacute" unicode="&#xdd;" horiz-adv-x="683" 
d="M261 242l-268 498h179l139 -282l25 -67h10l26 67l139 282h177l-265 -494v-246h-162v242zM281 806l67 169h163l-115 -178z" />
    <glyph glyph-name="Thorn" unicode="&#xde;" horiz-adv-x="660" 
d="M68 740l161.999 -0.000976562v-114c8.66699 0 17.167 0.166992 25.5 0.5s16.833 0.5 25.5 0.5c62 0 115.333 -5 160 -15s81.5 -25.5 110.5 -46.5s50.333 -47.833 64 -80.5s20.5 -71.667 20.5 -117s-6.66699 -84.166 -20 -116.499s-34.333 -59 -63 -80
s-65 -36.5 -109 -46.5s-96.667 -15 -158 -15h-28c-9.33301 0 -18.666 0.333008 -27.999 1v-111h-162v740zM299.999 242.999c33.333 0 60.998 1.83105 82.998 5.49805s39.5 10.334 52.5 20.001s22.167 22.5 27.5 38.5s8 36.333 8 61c0 24 -2.66699 44.167 -8 60.5
s-14.666 29.166 -27.999 38.499s-31 16 -53 20s-50 6 -84 6h-14.5c-6.33301 0 -13 -0.166992 -20 -0.5s-13.667 -0.666016 -20 -0.999023s-10.833 -0.833008 -13.5 -1.5v-244c2 -0.666992 6.16699 -1.16699 12.5 -1.5s13.333 -0.666016 21 -0.999023
s14.834 -0.5 21.501 -0.5h15z" />
    <glyph glyph-name="germandbls" unicode="&#xdf;" horiz-adv-x="727" 
d="M58 573c0 82.667 23.5 143.162 70.5 181.495s119.167 57.5 216.5 57.5s169.666 -19.333 216.999 -58s71 -99 71 -181v-137h-103c-62.667 0 -94 -17.333 -94 -52c0 -19.333 7.83301 -32.666 23.5 -39.999s39.167 -13.333 70.5 -18c24.667 -4 47.834 -9.16699 69.501 -15.5
s40.5 -15.666 56.5 -27.999s28.667 -28.166 38 -47.499s14 -43.666 14 -72.999c0 -56 -19.667 -98.833 -59 -128.5s-96.666 -44.5 -171.999 -44.5c-28 0 -58.833 2.16699 -92.5 6.5s-67.834 10.5 -102.501 18.5v112c69.333 -17.333 132.333 -26 189 -26s85 17.333 85 52
c0 17.333 -6.83301 30.333 -20.5 39s-34.5 15 -62.5 19c-20 2.66699 -40.833 6.16699 -62.5 10.5s-41.834 12 -60.501 23s-34 27.167 -46 48.5s-18 50.333 -18 87c0 48.667 16.667 87.834 50 117.501s79.333 47.167 138 52.5v24c0 42 -10.167 71.833 -30.5 89.5
s-53.166 26.5 -98.499 26.5s-78 -8.83301 -98 -26.5s-30 -47.5 -30 -89.5v-573h-159v573z" />
    <glyph glyph-name="agrave" unicode="&#xe0;" horiz-adv-x="555" 
d="M180 -5c-48.667 0 -86.3281 13.835 -112.995 41.502s-40 65.5 -40 113.5c0 53.333 16.5 94.166 49.5 122.499s83.833 44.5 152.5 48.5l114 7v9c0 18.667 -1.33301 34.167 -4 46.5s-7.83398 22.166 -15.501 29.499s-18.334 12.5 -32.001 15.5s-31.5 4.5 -53.5 4.5
c-10.667 0 -22.834 -0.5 -36.501 -1.5s-27.834 -2.16699 -42.501 -3.5s-29.334 -3 -44.001 -5s-28.334 -4.33301 -41.001 -7l-10 112c35.333 6.66699 69.666 11.5 102.999 14.5s65 4.5 95 4.5c82.667 0 143.334 -14.333 182.001 -43s58 -74 58 -136v-368h-131l-14 66h-8
c-23.333 -22.667 -49.666 -40.167 -78.999 -52.5s-59.333 -18.5 -90 -18.5zM246.006 107.002c16 0 32.833 3.83301 50.5 11.5s33.167 16.167 46.5 25.5v98l-70 -7c-32 -3.33301 -54.333 -10 -67 -20s-19 -26 -19 -48c0 -40 19.667 -60 59 -60zM226.006 610.002l-116 197h164
l66 -187z" />
    <glyph glyph-name="aacute" unicode="&#xe1;" horiz-adv-x="555" 
d="M180 -5c-48.667 0 -86.3281 13.835 -112.995 41.502s-40 65.5 -40 113.5c0 53.333 16.5 94.166 49.5 122.499s83.833 44.5 152.5 48.5l114 7v9c0 18.667 -1.33301 34.167 -4 46.5s-7.83398 22.166 -15.501 29.499s-18.334 12.5 -32.001 15.5s-31.5 4.5 -53.5 4.5
c-10.667 0 -22.834 -0.5 -36.501 -1.5s-27.834 -2.16699 -42.501 -3.5s-29.334 -3 -44.001 -5s-28.334 -4.33301 -41.001 -7l-10 112c35.333 6.66699 69.666 11.5 102.999 14.5s65 4.5 95 4.5c82.667 0 143.334 -14.333 182.001 -43s58 -74 58 -136v-368h-131l-14 66h-8
c-23.333 -22.667 -49.666 -40.167 -78.999 -52.5s-59.333 -18.5 -90 -18.5zM246.006 107.002c16 0 32.833 3.83301 50.5 11.5s33.167 16.167 46.5 25.5v98l-70 -7c-32 -3.33301 -54.333 -10 -67 -20s-19 -26 -19 -48c0 -40 19.667 -60 59 -60zM220.006 618.002l66 187h163
l-116 -196z" />
    <glyph glyph-name="acircumflex" unicode="&#xe2;" horiz-adv-x="555" 
d="M180 -5c-48.667 0 -86.3281 13.835 -112.995 41.502s-40 65.5 -40 113.5c0 53.333 16.5 94.166 49.5 122.499s83.833 44.5 152.5 48.5l114 7v9c0 18.667 -1.33301 34.167 -4 46.5s-7.83398 22.166 -15.501 29.499s-18.334 12.5 -32.001 15.5s-31.5 4.5 -53.5 4.5
c-10.667 0 -22.834 -0.5 -36.501 -1.5s-27.834 -2.16699 -42.501 -3.5s-29.334 -3 -44.001 -5s-28.334 -4.33301 -41.001 -7l-10 112c35.333 6.66699 69.666 11.5 102.999 14.5s65 4.5 95 4.5c82.667 0 143.334 -14.333 182.001 -43s58 -74 58 -136v-368h-131l-14 66h-8
c-23.333 -22.667 -49.666 -40.167 -78.999 -52.5s-59.333 -18.5 -90 -18.5zM246.006 107.002c16 0 32.833 3.83301 50.5 11.5s33.167 16.167 46.5 25.5v98l-70 -7c-32 -3.33301 -54.333 -10 -67 -20s-19 -26 -19 -48c0 -40 19.667 -60 59 -60zM102.006 722.002l182 75
l185 -75v-108l-184 74l-183 -74v108z" />
    <glyph glyph-name="atilde" unicode="&#xe3;" horiz-adv-x="555" 
d="M180 -5c-48.667 0 -86.3281 13.835 -112.995 41.502s-40 65.5 -40 113.5c0 53.333 16.5 94.166 49.5 122.499s83.833 44.5 152.5 48.5l114 7v9c0 18.667 -1.33301 34.167 -4 46.5s-7.83398 22.166 -15.501 29.499s-18.334 12.5 -32.001 15.5s-31.5 4.5 -53.5 4.5
c-10.667 0 -22.834 -0.5 -36.501 -1.5s-27.834 -2.16699 -42.501 -3.5s-29.334 -3 -44.001 -5s-28.334 -4.33301 -41.001 -7l-10 112c35.333 6.66699 69.666 11.5 102.999 14.5s65 4.5 95 4.5c82.667 0 143.334 -14.333 182.001 -43s58 -74 58 -136v-368h-131l-14 66h-8
c-23.333 -22.667 -49.666 -40.167 -78.999 -52.5s-59.333 -18.5 -90 -18.5zM246.006 107.002c16 0 32.833 3.83301 50.5 11.5s33.167 16.167 46.5 25.5v98l-70 -7c-32 -3.33301 -54.333 -10 -67 -20s-19 -26 -19 -48c0 -40 19.667 -60 59 -60zM69.0059 664.002
c20.667 36 44 63.167 70 81.5s51.667 27.5 77 27.5c16 0 31.333 -2.33301 46 -7s29.167 -10 43.5 -16s28.833 -11.333 43.5 -16s29.667 -7 45 -7c14 0 27.5 2.83301 40.5 8.5s27.167 15.834 42.5 30.501l28 -34c-20.667 -37.333 -44.167 -65 -70.5 -83
s-52.166 -27 -77.499 -27c-15.333 0 -30.333 2.33301 -45 7s-29.334 10 -44.001 16s-29.5 11.333 -44.5 16s-29.833 7 -44.5 7c-14 0 -27.5 -2.83301 -40.5 -8.5s-27.167 -15.834 -42.5 -30.501z" />
    <glyph glyph-name="adieresis" unicode="&#xe4;" horiz-adv-x="555" 
d="M180 -5c-48.667 0 -86.3281 13.835 -112.995 41.502s-40 65.5 -40 113.5c0 53.333 16.5 94.166 49.5 122.499s83.833 44.5 152.5 48.5l114 7v9c0 18.667 -1.33301 34.167 -4 46.5s-7.83398 22.166 -15.501 29.499s-18.334 12.5 -32.001 15.5s-31.5 4.5 -53.5 4.5
c-10.667 0 -22.834 -0.5 -36.501 -1.5s-27.834 -2.16699 -42.501 -3.5s-29.334 -3 -44.001 -5s-28.334 -4.33301 -41.001 -7l-10 112c35.333 6.66699 69.666 11.5 102.999 14.5s65 4.5 95 4.5c82.667 0 143.334 -14.333 182.001 -43s58 -74 58 -136v-368h-131l-14 66h-8
c-23.333 -22.667 -49.666 -40.167 -78.999 -52.5s-59.333 -18.5 -90 -18.5zM246.006 107.002c16 0 32.833 3.83301 50.5 11.5s33.167 16.167 46.5 25.5v98l-70 -7c-32 -3.33301 -54.333 -10 -67 -20s-19 -26 -19 -48c0 -40 19.667 -60 59 -60zM156.006 621.002
c-28 0 -48.167 6.16699 -60.5 18.5s-18.5 32.166 -18.5 59.499s6.16699 47 18.5 59s32.5 18 60.5 18s48.333 -6.16699 61 -18.5s19 -31.833 19 -58.5c0 -27.333 -6.33301 -47.166 -19 -59.499s-33 -18.5 -61 -18.5zM407.006 621.002c-28 0 -48.333 6.16699 -61 18.5
s-19 32.166 -19 59.499s6.33301 47 19 59s33 18 61 18s48.167 -6.16699 60.5 -18.5s18.5 -31.833 18.5 -58.5c0 -27.333 -6.16699 -47.166 -18.5 -59.499s-32.5 -18.5 -60.5 -18.5z" />
    <glyph glyph-name="aring" unicode="&#xe5;" horiz-adv-x="555" 
d="M180 -5c-48.667 0 -86.3281 13.835 -112.995 41.502s-40 65.5 -40 113.5c0 53.333 16.5 94.166 49.5 122.499s83.833 44.5 152.5 48.5l114 7v9c0 18.667 -1.33301 34.167 -4 46.5s-7.83398 22.166 -15.501 29.499s-18.334 12.5 -32.001 15.5s-31.5 4.5 -53.5 4.5
c-10.667 0 -22.834 -0.5 -36.501 -1.5s-27.834 -2.16699 -42.501 -3.5s-29.334 -3 -44.001 -5s-28.334 -4.33301 -41.001 -7l-10 112c35.333 6.66699 69.666 11.5 102.999 14.5s65 4.5 95 4.5c82.667 0 143.334 -14.333 182.001 -43s58 -74 58 -136v-368h-131l-14 66h-8
c-23.333 -22.667 -49.666 -40.167 -78.999 -52.5s-59.333 -18.5 -90 -18.5zM246.006 107.002c16 0 32.833 3.83301 50.5 11.5s33.167 16.167 46.5 25.5v98l-70 -7c-32 -3.33301 -54.333 -10 -67 -20s-19 -26 -19 -48c0 -40 19.667 -60 59 -60zM279.006 592.002
c-38 0 -69 10.5 -93 31.5s-36 48.167 -36 81.5s12 60.5 36 81.5s55 31.5 93 31.5s68.833 -10.5 92.5 -31.5s35.5 -48.167 35.5 -81.5s-11.833 -60.5 -35.5 -81.5s-54.5 -31.5 -92.5 -31.5zM279.006 650.002c39.333 0 59 18.333 59 55s-19.667 55 -59 55
c-40 0 -60 -18.333 -60 -55s20 -55 60 -55z" />
    <glyph glyph-name="ae" unicode="&#xe6;" horiz-adv-x="868" 
d="M611 -11c-92.667 0 -159.001 29.3301 -199.001 87.9971l-8 1c-42 -29.333 -81.167 -50.5 -117.5 -63.5s-72.166 -19.5 -107.499 -19.5c-48 0 -85.167 13.833 -111.5 41.5s-39.5 65.834 -39.5 114.501c0 52.667 16.333 92.834 49 120.501s83.334 43.834 152.001 48.501
l114 8v27c0 15.333 -1.83301 28 -5.5 38s-9.83398 18 -18.501 24s-20.167 10.167 -34.5 12.5s-32.166 3.5 -53.499 3.5c-10 0 -21.5 -0.5 -34.5 -1.5s-26.5 -2.16699 -40.5 -3.5s-28 -3 -42 -5s-27 -4.33301 -39 -7l-11 112c37.333 6.66699 72.5 11.5 105.5 14.5
s65.167 4.5 96.5 4.5c80 0 135 -22.333 165 -67h8c39.333 44.667 96.666 67 171.999 67c148.667 0 223 -81.333 223 -244c0 -18.667 -0.5 -34 -1.5 -46s-2.83301 -23.667 -5.5 -35h-323c2.66699 -41.333 13 -70.5 31 -87.5s47.667 -25.5 89 -25.5
c26.667 0 56.667 2.16699 90 6.5s65 10.833 95 19.5l5 -115c-29.333 -9.33301 -62 -16.833 -98 -22.5s-71 -8.5 -105 -8.5zM246.999 105.997c15.333 0 31.666 3.66797 48.999 11.001s34 17 50 29c-0.666992 1.33301 -1.16699 6.66602 -1.5 15.999
s-0.666016 19.666 -0.999023 30.999s-0.5 21.833 -0.5 31.5v17.5l-70 -6c-32 -3.33301 -54.167 -10.166 -66.5 -20.499s-18.5 -26.5 -18.5 -48.5c0 -40.667 19.667 -61 59 -61zM692.999 308.998c-1.33301 44.667 -8.5 76.5 -21.5 95.5s-35.167 28.5 -66.5 28.5
c-32.667 0 -57 -9.83301 -73 -29.5s-25.333 -51.167 -28 -94.5h189z" />
    <glyph glyph-name="ccedilla" unicode="&#xe7;" horiz-adv-x="482" 
d="M245 -220c-13.333 0 -28.3311 1.16504 -44.998 3.49805s-33.667 5.16602 -51 8.49902v94c12 -3.33301 24.667 -5.83301 38 -7.5s24.666 -2.5 33.999 -2.5c16 0 27.333 3 34 9s10 14.667 10 26c0 21.333 -12 50 -36 86c-130 22.667 -195 113.667 -195 273
c0 94.667 22.333 164.834 67 210.501s112 68.5 202 68.5c25.333 0 50.5 -1.33301 75.5 -4s47.167 -6.66699 66.5 -12v-125c-45.333 8 -87.333 12 -126 12c-45.333 0 -77.666 -11.5 -96.999 -34.5s-29 -61.167 -29 -114.5c0 -54 9.66699 -92.667 29 -116s51.333 -35 96 -35
c24.667 0 46.667 0.833008 66 2.5s39.666 4.5 60.999 8.5v-124c-14.667 -4 -31.834 -7.16699 -51.501 -9.5s-40.167 -4.16602 -61.5 -5.49902c14 -20 23.833 -37.667 29.5 -53s8.5 -31.666 8.5 -48.999c0 -34.667 -10.833 -61.667 -32.5 -81s-52.5 -29 -92.5 -29z" />
    <glyph glyph-name="egrave" unicode="&#xe8;" horiz-adv-x="556" 
d="M299 -9c-176.667 0 -264.999 91.3311 -264.999 273.998c0 93.333 22.333 164 67 212s110.667 72 198 72c148.667 0 223 -81.667 223 -245c0 -17.333 -0.5 -32.166 -1.5 -44.499s-3.16699 -24.5 -6.5 -36.5h-321c2 -22 5.5 -40.167 10.5 -54.5
s12.167 -25.666 21.5 -33.999s21.166 -14.333 35.499 -18s31.5 -5.5 51.5 -5.5c26 0 56 2.33301 90 7s65.667 11 95 19l5 -115c-29.333 -9.33301 -62 -16.833 -98 -22.5s-71 -8.5 -105 -8.5zM293.001 435.998c-32 0 -56 -9.50098 -72 -28.501s-25.667 -50.5 -29 -94.5h190
c-1.33301 44.667 -9 76.334 -23 95.001s-36 28 -66 28zM224.001 609.997l-116 197h164l66 -187z" />
    <glyph glyph-name="eacute" unicode="&#xe9;" horiz-adv-x="556" 
d="M237 618l66 187h163l-116 -196zM299 -9c-176.667 0 -264.999 91.3311 -264.999 273.998c0 93.333 22.333 164 67 212s110.667 72 198 72c148.667 0 223 -81.667 223 -245c0 -17.333 -0.5 -32.166 -1.5 -44.499s-3.16699 -24.5 -6.5 -36.5h-321
c2 -22 5.5 -40.167 10.5 -54.5s12.167 -25.666 21.5 -33.999s21.166 -14.333 35.499 -18s31.5 -5.5 51.5 -5.5c26 0 56 2.33301 90 7s65.667 11 95 19l5 -115c-29.333 -9.33301 -62 -16.833 -98 -22.5s-71 -8.5 -105 -8.5zM293.001 435.998c-32 0 -56 -9.50098 -72 -28.501
s-25.667 -50.5 -29 -94.5h190c-1.33301 44.667 -9 76.334 -23 95.001s-36 28 -66 28z" />
    <glyph glyph-name="ecircumflex" unicode="&#xea;" horiz-adv-x="556" 
d="M108 722l182 75l185 -75v-108l-184 74l-183 -74v108zM299 -9c-176.667 0 -264.999 91.3311 -264.999 273.998c0 93.333 22.333 164 67 212s110.667 72 198 72c148.667 0 223 -81.667 223 -245c0 -17.333 -0.5 -32.166 -1.5 -44.499s-3.16699 -24.5 -6.5 -36.5h-321
c2 -22 5.5 -40.167 10.5 -54.5s12.167 -25.666 21.5 -33.999s21.166 -14.333 35.499 -18s31.5 -5.5 51.5 -5.5c26 0 56 2.33301 90 7s65.667 11 95 19l5 -115c-29.333 -9.33301 -62 -16.833 -98 -22.5s-71 -8.5 -105 -8.5zM293.001 435.998c-32 0 -56 -9.50098 -72 -28.501
s-25.667 -50.5 -29 -94.5h190c-1.33301 44.667 -9 76.334 -23 95.001s-36 28 -66 28z" />
    <glyph glyph-name="edieresis" unicode="&#xeb;" horiz-adv-x="556" 
d="M159 621c-28 0 -48.167 6.16699 -60.5 18.5s-18.5 32.166 -18.5 59.499s6.16699 47 18.5 59s32.5 18 60.5 18s48.333 -6.16699 61 -18.5s19 -31.833 19 -58.5c0 -27.333 -6.33301 -47.166 -19 -59.499s-33 -18.5 -61 -18.5zM410 621c-28 0 -48.333 6.16699 -61 18.5
s-19 32.166 -19 59.499s6.33301 47 19 59s33 18 61 18s48.167 -6.16699 60.5 -18.5s18.5 -31.833 18.5 -58.5c0 -27.333 -6.16699 -47.166 -18.5 -59.499s-32.5 -18.5 -60.5 -18.5zM299 -9c-176.667 0 -264.999 91.3311 -264.999 273.998c0 93.333 22.333 164 67 212
s110.667 72 198 72c148.667 0 223 -81.667 223 -245c0 -17.333 -0.5 -32.166 -1.5 -44.499s-3.16699 -24.5 -6.5 -36.5h-321c2 -22 5.5 -40.167 10.5 -54.5s12.167 -25.666 21.5 -33.999s21.166 -14.333 35.499 -18s31.5 -5.5 51.5 -5.5c26 0 56 2.33301 90 7
s65.667 11 95 19l5 -115c-29.333 -9.33301 -62 -16.833 -98 -22.5s-71 -8.5 -105 -8.5zM293.001 435.998c-32 0 -56 -9.50098 -72 -28.501s-25.667 -50.5 -29 -94.5h190c-1.33301 44.667 -9 76.334 -23 95.001s-36 28 -66 28z" />
    <glyph glyph-name="igrave" unicode="&#xec;" horiz-adv-x="275" 
d="M59 540h159v-540h-159v540zM78 610l-116 197h164l66 -187z" />
    <glyph glyph-name="iacute" unicode="&#xed;" horiz-adv-x="275" 
d="M83 618l66 187h163l-116 -196zM58 540h159v-540h-159v540z" />
    <glyph glyph-name="icircumflex" unicode="&#xee;" horiz-adv-x="276" 
d="M-31 722l175 75l177 -75v-108l-176 74l-176 -74v108zM59 540h159v-540h-159v540z" />
    <glyph glyph-name="idieresis" unicode="&#xef;" horiz-adv-x="276" 
d="M25 621c-28 0 -48.333 6.16699 -61 18.5s-19 32.166 -19 59.499s6.33301 47 19 59s33 18 61 18c53.333 0 80 -25.667 80 -77c0 -27.333 -6.33301 -47.166 -19 -59.499s-33 -18.5 -61 -18.5zM258 621c-28 0 -48.333 6.16699 -61 18.5s-19 32.166 -19 59.499
s6.33301 47 19 59s33 18 61 18c53.333 0 80 -25.667 80 -77c0 -27.333 -6.33301 -47.166 -19 -59.499s-33 -18.5 -61 -18.5zM59 540h159v-540h-159v540z" />
    <glyph glyph-name="eth" unicode="&#xf0;" horiz-adv-x="614" 
d="M194 701l108.002 10.999c-11.333 16.667 -23.833 33 -37.5 49s-28.167 31.667 -43.5 47h161c9.33301 -11.333 19 -23.833 29 -37.5l31 -44.5l150 15v-98l-98 -10c21.333 -45.333 39.666 -96.166 54.999 -152.499s23 -119.166 23 -188.499
c0 -100 -22.833 -175.333 -68.5 -226s-112.834 -76 -201.501 -76c-87.333 0 -154 23.667 -200 71s-69 116.666 -69 207.999s22.5 161 67.5 209s109.167 72 192.5 72c24 0 45 -3.5 63 -10.5s34 -18.167 48 -33.5c-6 19.333 -12.833 38.5 -20.5 57.5s-16.167 37.5 -25.5 55.5
l-164 -16v98zM303.002 110.999c20 0 37.001 2.8291 51.001 8.49609s25.333 14.667 34 27s15 28.833 19 49.5s6 46 6 76c0 52.667 -8.16699 91.834 -24.5 117.501s-45.5 38.5 -87.5 38.5c-20 0 -36.833 -2.66699 -50.5 -8s-24.834 -14.166 -33.501 -26.499
s-14.834 -28.5 -18.501 -48.5s-5.5 -45 -5.5 -75s1.83301 -55.167 5.5 -75.5s9.83398 -36.666 18.501 -48.999s20 -21.166 34 -26.499s31.333 -8 52 -8z" />
    <glyph glyph-name="ntilde" unicode="&#xf1;" horiz-adv-x="614" 
d="M58 540h133.001l9 -61h6c47.333 25.333 87 43.5 119 54.5s62.667 16.5 92 16.5c44.667 0 79.5 -12.833 104.5 -38.5s37.5 -62.167 37.5 -109.5v-402h-159v348c0 26 -4.83301 44.5 -14.5 55.5s-24.167 16.5 -43.5 16.5c-17.333 0 -36.833 -3.16699 -58.5 -9.5
s-43.834 -14.833 -66.501 -25.5v-385h-159v540zM100.001 664c20.667 36 44 63.167 70 81.5s51.667 27.5 77 27.5c16 0 31.333 -2.33301 46 -7s29.167 -10 43.5 -16s28.833 -11.333 43.5 -16s29.667 -7 45 -7c14 0 27.5 2.83301 40.5 8.5s27.167 15.834 42.5 30.501l28 -34
c-20.667 -37.333 -44.167 -65 -70.5 -83s-52.166 -27 -77.499 -27c-15.333 0 -30.333 2.33301 -45 7s-29.334 10 -44.001 16s-29.5 11.333 -44.5 16s-29.833 7 -44.5 7c-14 0 -27.5 -2.83301 -40.5 -8.5s-27.167 -15.834 -42.5 -30.501z" />
    <glyph glyph-name="ograve" unicode="&#xf2;" horiz-adv-x="606" 
d="M303 -10c-88 0 -155 23.833 -201 71.5s-69 117.167 -69 208.5s23 160.833 69 208.5s113 71.5 201 71.5s154.833 -23.833 200.5 -71.5s68.5 -117.167 68.5 -208.5s-22.833 -160.833 -68.5 -208.5s-112.5 -71.5 -200.5 -71.5zM303 111c20 0 37 2.66699 51 8
s25.333 14.166 34 26.499s15 28.666 19 48.999s6 45.5 6 75.5s-2 55.167 -6 75.5s-10.333 36.666 -19 48.999s-20 21 -34 26s-31 7.5 -51 7.5s-37 -2.5 -51 -7.5s-25.333 -13.667 -34 -26s-15 -28.666 -19 -48.999s-6 -45.5 -6 -75.5s2 -55.167 6 -75.5
s10.333 -36.666 19 -48.999s20 -21.166 34 -26.499s31 -8 51 -8zM237 610l-116 197h164l66 -187z" />
    <glyph glyph-name="oacute" unicode="&#xf3;" horiz-adv-x="606" 
d="M241 618l66 187h163l-116 -196zM303 -10c-88 0 -155 23.833 -201 71.5s-69 117.167 -69 208.5s23 160.833 69 208.5s113 71.5 201 71.5s154.833 -23.833 200.5 -71.5s68.5 -117.167 68.5 -208.5s-22.833 -160.833 -68.5 -208.5s-112.5 -71.5 -200.5 -71.5zM303 111
c20 0 37 2.66699 51 8s25.333 14.166 34 26.499s15 28.666 19 48.999s6 45.5 6 75.5s-2 55.167 -6 75.5s-10.333 36.666 -19 48.999s-20 21 -34 26s-31 7.5 -51 7.5s-37 -2.5 -51 -7.5s-25.333 -13.667 -34 -26s-15 -28.666 -19 -48.999s-6 -45.5 -6 -75.5
s2 -55.167 6 -75.5s10.333 -36.666 19 -48.999s20 -21.166 34 -26.499s31 -8 51 -8z" />
    <glyph glyph-name="ocircumflex" unicode="&#xf4;" horiz-adv-x="606" 
d="M122 722l182 75l185 -75v-108l-184 74l-183 -74v108zM303 -10c-88 0 -155 23.833 -201 71.5s-69 117.167 -69 208.5s23 160.833 69 208.5s113 71.5 201 71.5s154.833 -23.833 200.5 -71.5s68.5 -117.167 68.5 -208.5s-22.833 -160.833 -68.5 -208.5
s-112.5 -71.5 -200.5 -71.5zM303 111c20 0 37 2.66699 51 8s25.333 14.166 34 26.499s15 28.666 19 48.999s6 45.5 6 75.5s-2 55.167 -6 75.5s-10.333 36.666 -19 48.999s-20 21 -34 26s-31 7.5 -51 7.5s-37 -2.5 -51 -7.5s-25.333 -13.667 -34 -26s-15 -28.666 -19 -48.999
s-6 -45.5 -6 -75.5s2 -55.167 6 -75.5s10.333 -36.666 19 -48.999s20 -21.166 34 -26.499s31 -8 51 -8z" />
    <glyph glyph-name="otilde" unicode="&#xf5;" horiz-adv-x="606" 
d="M303 -10c-88 0 -155 23.833 -201 71.5s-69 117.167 -69 208.5s23 160.833 69 208.5s113 71.5 201 71.5s154.833 -23.833 200.5 -71.5s68.5 -117.167 68.5 -208.5s-22.833 -160.833 -68.5 -208.5s-112.5 -71.5 -200.5 -71.5zM303 111c20 0 37 2.66699 51 8
s25.333 14.166 34 26.499s15 28.666 19 48.999s6 45.5 6 75.5s-2 55.167 -6 75.5s-10.333 36.666 -19 48.999s-20 21 -34 26s-31 7.5 -51 7.5s-37 -2.5 -51 -7.5s-25.333 -13.667 -34 -26s-15 -28.666 -19 -48.999s-6 -45.5 -6 -75.5s2 -55.167 6 -75.5
s10.333 -36.666 19 -48.999s20 -21.166 34 -26.499s31 -8 51 -8zM90 664c20.667 36 44 63.167 70 81.5s51.667 27.5 77 27.5c16 0 31.333 -2.33301 46 -7s29.167 -10 43.5 -16s28.833 -11.333 43.5 -16s29.667 -7 45 -7c14 0 27.5 2.83301 40.5 8.5
s27.167 15.834 42.5 30.501l28 -34c-20.667 -37.333 -44.167 -65 -70.5 -83s-52.166 -27 -77.499 -27c-15.333 0 -30.333 2.33301 -45 7s-29.334 10 -44.001 16s-29.5 11.333 -44.5 16s-29.833 7 -44.5 7c-14 0 -27.5 -2.83301 -40.5 -8.5s-27.167 -15.834 -42.5 -30.501z
" />
    <glyph glyph-name="odieresis" unicode="&#xf6;" horiz-adv-x="606" 
d="M176 621c-28 0 -48.167 6.16699 -60.5 18.5s-18.5 32.166 -18.5 59.499s6.16699 47 18.5 59s32.5 18 60.5 18s48.333 -6.16699 61 -18.5s19 -31.833 19 -58.5c0 -27.333 -6.33301 -47.166 -19 -59.499s-33 -18.5 -61 -18.5zM427 621c-28 0 -48.333 6.16699 -61 18.5
s-19 32.166 -19 59.499s6.33301 47 19 59s33 18 61 18s48.167 -6.16699 60.5 -18.5s18.5 -31.833 18.5 -58.5c0 -27.333 -6.16699 -47.166 -18.5 -59.499s-32.5 -18.5 -60.5 -18.5zM303 -10c-88 0 -155 23.833 -201 71.5s-69 117.167 -69 208.5s23 160.833 69 208.5
s113 71.5 201 71.5s154.833 -23.833 200.5 -71.5s68.5 -117.167 68.5 -208.5s-22.833 -160.833 -68.5 -208.5s-112.5 -71.5 -200.5 -71.5zM303 111c20 0 37 2.66699 51 8s25.333 14.166 34 26.499s15 28.666 19 48.999s6 45.5 6 75.5s-2 55.167 -6 75.5
s-10.333 36.666 -19 48.999s-20 21 -34 26s-31 7.5 -51 7.5s-37 -2.5 -51 -7.5s-25.333 -13.667 -34 -26s-15 -28.666 -19 -48.999s-6 -45.5 -6 -75.5s2 -55.167 6 -75.5s10.333 -36.666 19 -48.999s20 -21.166 34 -26.499s31 -8 51 -8z" />
    <glyph glyph-name="divide" unicode="&#xf7;" horiz-adv-x="523" 
d="M264 120c-20 0 -36.5 5.66699 -49.5 17s-19.5 28.666 -19.5 51.999s6.5 40.5 19.5 51.5s29.5 16.5 49.5 16.5s36.333 -5.5 49 -16.5s19 -28.167 19 -51.5s-6.33301 -40.666 -19 -51.999s-29 -17 -49 -17zM41 422h442v-104h-442v104zM264 481c-20 0 -36.5 5.5 -49.5 16.5
s-19.5 27.833 -19.5 50.5c0 23.333 6.5 40.833 19.5 52.5s29.5 17.5 49.5 17.5s36.333 -5.83301 49 -17.5s19 -29.167 19 -52.5c0 -22.667 -6.33301 -39.5 -19 -50.5s-29 -16.5 -49 -16.5z" />
    <glyph glyph-name="oslash" unicode="&#xf8;" horiz-adv-x="612" 
d="M84 87c-31.333 45.333 -46.998 106.333 -46.998 183c0 88.667 22.167 157.5 66.5 206.5s111.833 73.5 202.5 73.5c66 0 120.667 -14 164 -42l29 32h108l-80 -87c32.667 -45.333 49 -106.333 49 -183c0 -90 -22.333 -159.167 -67 -207.5s-112.334 -72.5 -203.001 -72.5
c-66.667 0 -121.334 13.667 -164.001 41l-29 -31h-108zM306.002 111c22.667 0 41.167 2.83594 55.5 8.50293s25.5 14.667 33.5 27s13.5 28.666 16.5 48.999s4.5 45.166 4.5 74.499c0 21.333 -1 40.666 -3 57.999l-181 -198c8 -7.33301 18 -12.333 30 -15s26.667 -4 44 -4z
M197.002 270.003l-0.000976562 -31c0 -9.33301 0.666992 -18.333 2 -27l180 197c-15.333 12.667 -39.666 19 -72.999 19c-22.667 0 -41.167 -2.66699 -55.5 -8s-25.5 -14.333 -33.5 -27s-13.333 -29 -16 -49s-4 -44.667 -4 -74z" />
    <glyph glyph-name="ugrave" unicode="&#xf9;" horiz-adv-x="613" 
d="M202 -10c-47.333 0 -83.833 13.001 -109.5 39.001s-38.5 62.333 -38.5 109v402h159v-353c0 -25.333 4.5 -43.5 13.5 -54.5s24.167 -16.5 45.5 -16.5c18 0 37.667 3.5 59 10.5s43.333 16.167 66 27.5v386h159v-540h-134l-9 60h-4c-23.333 -13.333 -43.5 -24.333 -60.5 -33
s-33.333 -15.834 -49 -21.501s-31.167 -9.66699 -46.5 -12s-32.333 -3.5 -51 -3.5zM242 610.001l-116 197h164l66 -187z" />
    <glyph glyph-name="uacute" unicode="&#xfa;" horiz-adv-x="613" 
d="M244 618l66 187h163l-116 -196zM202 -10c-47.333 0 -83.833 13.001 -109.5 39.001s-38.5 62.333 -38.5 109v402h159v-353c0 -25.333 4.5 -43.5 13.5 -54.5s24.167 -16.5 45.5 -16.5c18 0 37.667 3.5 59 10.5s43.333 16.167 66 27.5v386h159v-540h-134l-9 60h-4
c-23.333 -13.333 -43.5 -24.333 -60.5 -33s-33.333 -15.834 -49 -21.501s-31.167 -9.66699 -46.5 -12s-32.333 -3.5 -51 -3.5z" />
    <glyph glyph-name="ucircumflex" unicode="&#xfb;" horiz-adv-x="613" 
d="M127 722l182 75l185 -75v-108l-184 74l-183 -74v108zM202 -10c-47.333 0 -83.833 13.001 -109.5 39.001s-38.5 62.333 -38.5 109v402h159v-353c0 -25.333 4.5 -43.5 13.5 -54.5s24.167 -16.5 45.5 -16.5c18 0 37.667 3.5 59 10.5s43.333 16.167 66 27.5v386h159v-540
h-134l-9 60h-4c-23.333 -13.333 -43.5 -24.333 -60.5 -33s-33.333 -15.834 -49 -21.501s-31.167 -9.66699 -46.5 -12s-32.333 -3.5 -51 -3.5z" />
    <glyph glyph-name="udieresis" unicode="&#xfc;" horiz-adv-x="613" 
d="M180 621c-28 0 -48.167 6.16699 -60.5 18.5s-18.5 32.166 -18.5 59.499s6.16699 47 18.5 59s32.5 18 60.5 18s48.333 -6.16699 61 -18.5s19 -31.833 19 -58.5c0 -27.333 -6.33301 -47.166 -19 -59.499s-33 -18.5 -61 -18.5zM431 621c-28 0 -48.333 6.16699 -61 18.5
s-19 32.166 -19 59.499s6.33301 47 19 59s33 18 61 18s48.167 -6.16699 60.5 -18.5s18.5 -31.833 18.5 -58.5c0 -27.333 -6.16699 -47.166 -18.5 -59.499s-32.5 -18.5 -60.5 -18.5zM202 -10c-47.333 0 -83.833 13.001 -109.5 39.001s-38.5 62.333 -38.5 109v402h159v-353
c0 -25.333 4.5 -43.5 13.5 -54.5s24.167 -16.5 45.5 -16.5c18 0 37.667 3.5 59 10.5s43.333 16.167 66 27.5v386h159v-540h-134l-9 60h-4c-23.333 -13.333 -43.5 -24.333 -60.5 -33s-33.333 -15.834 -49 -21.501s-31.167 -9.66699 -46.5 -12s-32.333 -3.5 -51 -3.5z" />
    <glyph glyph-name="yacute" unicode="&#xfd;" horiz-adv-x="590" 
d="M144 -195v11l71 189l-210 520v15h167l94 -287l24 -90h9l25 90l96 287h165v-15l-289 -745zM241 618l66 187h163l-116 -196z" />
    <glyph glyph-name="thorn" unicode="&#xfe;" horiz-adv-x="613" 
d="M58 808l158 0.00195312v-319c17.333 18 39.5 32.5 66.5 43.5s58.833 16.5 95.5 16.5c68.667 0 119.167 -21.833 151.5 -65.5s48.5 -110.834 48.5 -201.501c0 -94.667 -23.167 -166.834 -69.5 -216.501s-119.833 -74.5 -220.5 -74.5c-7.33301 0 -17.833 0.666992 -31.5 2
l-40.5 4v-217h-158v1028zM289 96.002c24.667 0 45.167 2.00098 61.5 6.00098s29.5 12 39.5 24s17.167 29.167 21.5 51.5s6.5 51.833 6.5 88.5c0 35.333 -1.66699 64.166 -5 86.499s-8.83301 39.666 -16.5 51.999s-17.667 20.833 -30 25.5s-27.5 7 -45.5 7
c-20.667 0 -37.667 -3.33301 -51 -10s-24 -17.5 -32 -32.5s-13.667 -34.167 -17 -57.5s-5 -51.666 -5 -84.999v-142c14 -5.33301 27.833 -9 41.5 -11s24.167 -3 31.5 -3z" />
    <glyph glyph-name="ydieresis" unicode="&#xff;" horiz-adv-x="590" 
d="M144 -195v11l71 189l-210 520v15h167l94 -287l24 -90h9l25 90l96 287h165v-15l-289 -745zM171 621c-28 0 -48.167 6.16699 -60.5 18.5s-18.5 32.166 -18.5 59.499s6.16699 47 18.5 59s32.5 18 60.5 18s48.333 -6.16699 61 -18.5s19 -31.833 19 -58.5
c0 -27.333 -6.33301 -47.166 -19 -59.499s-33 -18.5 -61 -18.5zM422 621c-28 0 -48.333 6.16699 -61 18.5s-19 32.166 -19 59.499s6.33301 47 19 59s33 18 61 18s48.167 -6.16699 60.5 -18.5s18.5 -31.833 18.5 -58.5c0 -27.333 -6.16699 -47.166 -18.5 -59.499
s-32.5 -18.5 -60.5 -18.5z" />
    <glyph glyph-name="Amacron" unicode="&#x100;" horiz-adv-x="696" 
d="M0 8l226 732h243l226 -732v-8h-155l-57 181h-272l-55 -181h-156v8zM448 309l-55 182l-39 133h-13l-39 -133l-55 -182h201zM166 947h361v-107h-361v107z" />
    <glyph glyph-name="amacron" unicode="&#x101;" horiz-adv-x="555" 
d="M180 -5c-48.667 0 -86.3281 13.835 -112.995 41.502s-40 65.5 -40 113.5c0 53.333 16.5 94.166 49.5 122.499s83.833 44.5 152.5 48.5l114 7v9c0 18.667 -1.33301 34.167 -4 46.5s-7.83398 22.166 -15.501 29.499s-18.334 12.5 -32.001 15.5s-31.5 4.5 -53.5 4.5
c-10.667 0 -22.834 -0.5 -36.501 -1.5s-27.834 -2.16699 -42.501 -3.5s-29.334 -3 -44.001 -5s-28.334 -4.33301 -41.001 -7l-10 112c35.333 6.66699 69.666 11.5 102.999 14.5s65 4.5 95 4.5c82.667 0 143.334 -14.333 182.001 -43s58 -74 58 -136v-368h-131l-14 66h-8
c-23.333 -22.667 -49.666 -40.167 -78.999 -52.5s-59.333 -18.5 -90 -18.5zM246.006 107.002c16 0 32.833 3.83301 50.5 11.5s33.167 16.167 46.5 25.5v98l-70 -7c-32 -3.33301 -54.333 -10 -67 -20s-19 -26 -19 -48c0 -40 19.667 -60 59 -60zM102.006 739.002h363v-102
h-363v102z" />
    <glyph glyph-name="Abreve" unicode="&#x102;" horiz-adv-x="696" 
d="M0 8l226 732h243l226 -732v-8h-155l-57 181h-272l-55 -181h-156v8zM448 309l-55 182l-39 133h-13l-39 -133l-55 -182h201zM348 805c-35.333 0 -65.6689 4.16895 -91.002 12.502s-46.166 20.166 -62.499 35.499s-28.333 33.666 -36 54.999s-11.5 44.666 -11.5 69.999h108
c0 -32 6.83301 -55.833 20.5 -71.5s37.834 -23.5 72.501 -23.5s59 7.83301 73 23.5s21 39.5 21 71.5h108c0 -26 -3.83301 -49.5 -11.5 -70.5s-19.834 -39.167 -36.501 -54.5s-37.667 -27.166 -63 -35.499s-55.666 -12.5 -90.999 -12.5z" />
    <glyph glyph-name="abreve" unicode="&#x103;" horiz-adv-x="555" 
d="M180 -5c-48.667 0 -86.3281 13.835 -112.995 41.502s-40 65.5 -40 113.5c0 53.333 16.5 94.166 49.5 122.499s83.833 44.5 152.5 48.5l114 7v9c0 18.667 -1.33301 34.167 -4 46.5s-7.83398 22.166 -15.501 29.499s-18.334 12.5 -32.001 15.5s-31.5 4.5 -53.5 4.5
c-10.667 0 -22.834 -0.5 -36.501 -1.5s-27.834 -2.16699 -42.501 -3.5s-29.334 -3 -44.001 -5s-28.334 -4.33301 -41.001 -7l-10 112c35.333 6.66699 69.666 11.5 102.999 14.5s65 4.5 95 4.5c82.667 0 143.334 -14.333 182.001 -43s58 -74 58 -136v-368h-131l-14 66h-8
c-23.333 -22.667 -49.666 -40.167 -78.999 -52.5s-59.333 -18.5 -90 -18.5zM246.006 107.002c16 0 32.833 3.83301 50.5 11.5s33.167 16.167 46.5 25.5v98l-70 -7c-32 -3.33301 -54.333 -10 -67 -20s-19 -26 -19 -48c0 -40 19.667 -60 59 -60zM280.006 614.002
c-70 0 -120.666 15 -151.999 45s-47.666 70.667 -48.999 122h107c0.666992 -29.333 8.16699 -51.166 22.5 -65.499s38.166 -21.5 71.499 -21.5s57.166 7.16699 71.499 21.5s21.833 36.166 22.5 65.499h108c-1.33301 -51.333 -17.833 -92 -49.5 -122s-82.5 -45 -152.5 -45z
" />
    <glyph glyph-name="Aogonek" unicode="&#x104;" horiz-adv-x="695" 
d="M610 -220c-43.333 0 -76.335 7.99902 -99.002 23.999s-34 39.333 -34 70c0 46.667 29 88.667 87 126h-24l-57 181h-272l-55 -181h-156v8l226 732h243l226 -732v-18c-42 -17.333 -71.5 -34.166 -88.5 -50.499s-25.5 -31.5 -25.5 -45.5c0 -17.333 12 -26 36 -26
c10 0 22.333 1.33301 37 4s28.334 6 41.001 10v-90c-27.333 -8 -55.666 -12 -84.999 -12zM447.998 308.999l-55 182l-39 133h-13l-39 -133l-55 -182h201z" />
    <glyph glyph-name="aogonek" unicode="&#x105;" horiz-adv-x="555" 
d="M417 -220c-43.333 0 -76.3291 8.00098 -98.9961 24.001s-34 39.333 -34 70c0 46.667 29 88.667 87 126l-14 66h-8c-23.333 -22.667 -49.666 -40.167 -78.999 -52.5s-59.333 -18.5 -90 -18.5c-48.667 0 -86.334 13.833 -113.001 41.5s-40 65.5 -40 113.5
c0 53.333 16.5 94.166 49.5 122.499s83.833 44.5 152.5 48.5l114 7v9c0 18.667 -1.33301 34.167 -4 46.5s-7.83398 22.166 -15.501 29.499s-18.334 12.5 -32.001 15.5s-31.5 4.5 -53.5 4.5c-10.667 0 -22.834 -0.5 -36.501 -1.5s-27.834 -2.16699 -42.501 -3.5
s-29.334 -3 -44.001 -5s-28.334 -4.33301 -41.001 -7l-10 112c35.333 6.66699 69.666 11.5 102.999 14.5s65 4.5 95 4.5c82.667 0 143.334 -14.333 182.001 -43s58 -74 58 -136v-378c-42 -17.333 -71.5 -34.166 -88.5 -50.499s-25.5 -31.5 -25.5 -45.5
c0 -17.333 12 -26 36 -26c10 0 22.333 1.33301 37 4s28.334 6 41.001 10v-90c-27.333 -8 -55.666 -12 -84.999 -12zM246.004 107.001c16 0 32.833 3.83301 50.5 11.5s33.167 16.167 46.5 25.5v98l-70 -7c-32 -3.33301 -54.333 -10 -67 -20s-19 -26 -19 -48
c0 -40 19.667 -60 59 -60z" />
    <glyph glyph-name="Cacute" unicode="&#x106;" horiz-adv-x="570" 
d="M385 -11c-117.333 0 -204.666 30.999 -261.999 92.999s-86 157.667 -86 287c0 130.667 28.167 227 84.5 289s141.5 93 255.5 93c44 0 97.667 -5 161 -15v-131c-32 4.66699 -58.667 8 -80 10s-41 3 -59 3c-36.667 0 -67.334 -4 -92.001 -12s-44.667 -21.5 -60 -40.5
s-26.333 -44.5 -33 -76.5s-10 -72 -10 -120c0 -47.333 3.33301 -86.666 10 -117.999s17.5 -56.5 32.5 -75.5s34.833 -32.5 59.5 -40.5s54.667 -12 90 -12c10 0 21.333 0.333008 34 1s25.5 1.66699 38.5 3s25.5 2.83301 37.5 4.5s22.667 3.5 32 5.5v-129
c-20.667 -5.33301 -44.667 -9.83301 -72 -13.5s-54.333 -5.5 -81 -5.5zM262 805.999l67 169h163l-115 -178z" />
    <glyph glyph-name="cacute" unicode="&#x107;" horiz-adv-x="482" 
d="M216 618l66 187h163l-116 -196zM303 -9c-90.667 0 -158.167 22.667 -202.5 68s-66.5 115.666 -66.5 210.999c0 94.667 22.333 164.834 67 210.501s112 68.5 202 68.5c25.333 0 50.5 -1.33301 75.5 -4s47.167 -6.66699 66.5 -12v-125c-45.333 8 -87.333 12 -126 12
c-45.333 0 -77.666 -11.5 -96.999 -34.5s-29 -61.167 -29 -114.5c0 -54 9.66699 -92.667 29 -116s51.333 -35 96 -35c24.667 0 46.667 0.833008 66 2.5s39.666 4.5 60.999 8.5v-124c-18 -5.33301 -39.833 -9.33301 -65.5 -12s-51.167 -4 -76.5 -4z" />
    <glyph glyph-name="Ccircumflex" unicode="&#x108;" horiz-adv-x="570" 
d="M385 -11c-117.333 0 -204.666 30.999 -261.999 92.999s-86 157.667 -86 287c0 130.667 28.167 227 84.5 289s141.5 93 255.5 93c44 0 97.667 -5 161 -15v-131c-32 4.66699 -58.667 8 -80 10s-41 3 -59 3c-36.667 0 -67.334 -4 -92.001 -12s-44.667 -21.5 -60 -40.5
s-26.333 -44.5 -33 -76.5s-10 -72 -10 -120c0 -47.333 3.33301 -86.666 10 -117.999s17.5 -56.5 32.5 -75.5s34.833 -32.5 59.5 -40.5s54.667 -12 90 -12c10 0 21.333 0.333008 34 1s25.5 1.66699 38.5 3s25.5 2.83301 37.5 4.5s22.667 3.5 32 5.5v-129
c-20.667 -5.33301 -44.667 -9.83301 -72 -13.5s-54.333 -5.5 -81 -5.5zM142 907.999l183 75l185 -75v-109l-184 75l-184 -75v109z" />
    <glyph glyph-name="ccircumflex" unicode="&#x109;" horiz-adv-x="482" 
d="M92 722l182 75l185 -75v-108l-184 74l-183 -74v108zM303 -9c-90.667 0 -158.167 22.667 -202.5 68s-66.5 115.666 -66.5 210.999c0 94.667 22.333 164.834 67 210.501s112 68.5 202 68.5c25.333 0 50.5 -1.33301 75.5 -4s47.167 -6.66699 66.5 -12v-125
c-45.333 8 -87.333 12 -126 12c-45.333 0 -77.666 -11.5 -96.999 -34.5s-29 -61.167 -29 -114.5c0 -54 9.66699 -92.667 29 -116s51.333 -35 96 -35c24.667 0 46.667 0.833008 66 2.5s39.666 4.5 60.999 8.5v-124c-18 -5.33301 -39.833 -9.33301 -65.5 -12
s-51.167 -4 -76.5 -4z" />
    <glyph glyph-name="Cdotaccent" unicode="&#x10a;" horiz-adv-x="570" 
d="M336 801c-32 0 -54.833 6.83203 -68.5 20.499s-20.5 35.5 -20.5 65.5c0 30.667 6.83301 52.834 20.5 66.501s36.5 20.5 68.5 20.5c31.333 0 53.833 -7 67.5 -21s20.5 -36 20.5 -66s-6.83301 -51.833 -20.5 -65.5s-36.167 -20.5 -67.5 -20.5zM385 -11.001
c-117.333 0 -204.666 30.999 -261.999 92.999s-86 157.667 -86 287c0 130.667 28.167 227 84.5 289s141.5 93 255.5 93c44 0 97.667 -5 161 -15v-131c-32 4.66699 -58.667 8 -80 10s-41 3 -59 3c-36.667 0 -67.334 -4 -92.001 -12s-44.667 -21.5 -60 -40.5
s-26.333 -44.5 -33 -76.5s-10 -72 -10 -120c0 -47.333 3.33301 -86.666 10 -117.999s17.5 -56.5 32.5 -75.5s34.833 -32.5 59.5 -40.5s54.667 -12 90 -12c10 0 21.333 0.333008 34 1s25.5 1.66699 38.5 3s25.5 2.83301 37.5 4.5s22.667 3.5 32 5.5v-129
c-20.667 -5.33301 -44.667 -9.83301 -72 -13.5s-54.333 -5.5 -81 -5.5z" />
    <glyph glyph-name="cdotaccent" unicode="&#x10b;" horiz-adv-x="482" 
d="M303 -9c-90.667 0 -158.167 22.667 -202.5 68s-66.5 115.666 -66.5 210.999c0 94.667 22.333 164.834 67 210.501s112 68.5 202 68.5c25.333 0 50.5 -1.33301 75.5 -4s47.167 -6.66699 66.5 -12v-125c-45.333 8 -87.333 12 -126 12
c-45.333 0 -77.666 -11.5 -96.999 -34.5s-29 -61.167 -29 -114.5c0 -54 9.66699 -92.667 29 -116s51.333 -35 96 -35c24.667 0 46.667 0.833008 66 2.5s39.666 4.5 60.999 8.5v-124c-18 -5.33301 -39.833 -9.33301 -65.5 -12s-51.167 -4 -76.5 -4zM268 613
c-31.333 0 -53.833 6.83301 -67.5 20.5s-20.5 35.5 -20.5 65.5s6.83301 51.833 20.5 65.5s36.167 20.5 67.5 20.5s54 -6.83301 68 -20.5s21 -35.5 21 -65.5s-7 -51.833 -21 -65.5s-36.667 -20.5 -68 -20.5z" />
    <glyph glyph-name="Ccaron" unicode="&#x10c;" horiz-adv-x="570" 
d="M385 -11c-117.333 0 -204.666 30.999 -261.999 92.999s-86 157.667 -86 287c0 130.667 28.167 227 84.5 289s141.5 93 255.5 93c44 0 97.667 -5 161 -15v-131c-32 4.66699 -58.667 8 -80 10s-41 3 -59 3c-36.667 0 -67.334 -4 -92.001 -12s-44.667 -21.5 -60 -40.5
s-26.333 -44.5 -33 -76.5s-10 -72 -10 -120c0 -47.333 3.33301 -86.666 10 -117.999s17.5 -56.5 32.5 -75.5s34.833 -32.5 59.5 -40.5s54.667 -12 90 -12c10 0 21.333 0.333008 34 1s25.5 1.66699 38.5 3s25.5 2.83301 37.5 4.5s22.667 3.5 32 5.5v-129
c-20.667 -5.33301 -44.667 -9.83301 -72 -13.5s-54.333 -5.5 -81 -5.5zM147 979.999l184 -75l183 75v-109l-184 -75l-183 75v109z" />
    <glyph glyph-name="ccaron" unicode="&#x10d;" horiz-adv-x="482" 
d="M85 796l184 -75l183 75v-109l-184 -75l-183 75v109zM303 -9c-90.667 0 -158.167 22.667 -202.5 68s-66.5 115.666 -66.5 210.999c0 94.667 22.333 164.834 67 210.501s112 68.5 202 68.5c25.333 0 50.5 -1.33301 75.5 -4s47.167 -6.66699 66.5 -12v-125
c-45.333 8 -87.333 12 -126 12c-45.333 0 -77.666 -11.5 -96.999 -34.5s-29 -61.167 -29 -114.5c0 -54 9.66699 -92.667 29 -116s51.333 -35 96 -35c24.667 0 46.667 0.833008 66 2.5s39.666 4.5 60.999 8.5v-124c-18 -5.33301 -39.833 -9.33301 -65.5 -12
s-51.167 -4 -76.5 -4z" />
    <glyph glyph-name="Dcaron" unicode="&#x10e;" horiz-adv-x="724" 
d="M166 980l184 -75l183 75v-109l-184 -75l-183 75v109zM267 -12c-34 0 -68.168 1.16699 -102.501 3.5s-66.5 5.5 -96.5 9.5v737c48 3.33301 90.667 6.16602 128 8.49902s70.333 3.5 99 3.5c68.667 0 127.834 -7.33301 177.501 -22s90.334 -37.334 122.001 -68.001
s55 -70.167 70 -118.5s22.5 -105.833 22.5 -172.5c0 -68 -7.83301 -126.167 -23.5 -174.5s-40.334 -87.666 -74.001 -117.999s-77 -52.666 -130 -66.999s-117.167 -21.5 -192.5 -21.5zM326.999 118c35.333 0 65.335 4.33105 90.002 12.998s44.667 22.834 60 42.501
s26.333 45.5 33 77.5s10 71.667 10 119c0 46.667 -3.5 85.834 -10.5 117.501s-18.333 57.167 -34 76.5s-36.334 33.333 -62.001 42s-56.834 13 -93.501 13c-14 0 -28.5 -0.333008 -43.5 -1s-30.833 -2 -47.5 -4v-488c18 -2.66699 34.833 -4.66699 50.5 -6s31.5 -2 47.5 -2z
" />
    <glyph glyph-name="dcaron" unicode="&#x10f;" horiz-adv-x="615" 
d="M607 808h126l-41 -228h-85v228zM244 -10c-140 0 -210 89 -210 267c0 97.333 24.833 170.5 74.5 219.5s119.167 73.5 208.5 73.5c13.333 0 26.666 -0.666992 39.999 -2l41 -4v264h159v-808h-141l-12 62h-6c-35.333 -48 -86.666 -72 -153.999 -72zM294 106
c32.667 0 58.167 10.002 76.5 30.002s27.5 54 27.5 102v192c-12 3.33301 -25.167 5.83301 -39.5 7.5s-29.5 2.5 -45.5 2.5c-22 0 -40.5 -2.66699 -55.5 -8s-27.167 -14.5 -36.5 -27.5s-16 -30.333 -20 -52s-6 -48.834 -6 -81.501c0 -31.333 1.66699 -57.5 5 -78.5
s9 -37.833 17 -50.5s18.333 -21.834 31 -27.501s28 -8.5 46 -8.5z" />
    <glyph glyph-name="Dcroat" unicode="&#x110;" horiz-adv-x="745" 
d="M2 434h86.999v304c48 3.33301 90.667 6.16602 128 8.49902s70.333 3.5 99 3.5c68.667 0 127.834 -7.33301 177.501 -22s90.334 -37.334 122.001 -68.001s55 -70.167 70 -118.5s22.5 -105.833 22.5 -172.5c0 -68 -7.83301 -126.167 -23.5 -174.5
s-40.334 -87.666 -74.001 -117.999s-77 -52.666 -130 -66.999s-117.167 -21.5 -192.5 -21.5c-34 0 -68.167 1.16699 -102.5 3.5s-66.5 5.5 -96.5 9.5v310h-87v123zM347.999 118c35.333 0 65.335 4.33105 90.002 12.998s44.667 22.834 60 42.501s26.333 45.5 33 77.5
s10 71.667 10 119c0 46.667 -3.5 85.834 -10.5 117.501s-18.333 57.167 -34 76.5s-36.334 33.333 -62.001 42s-56.834 13 -93.501 13c-14 0 -28.5 -0.333008 -43.5 -1s-30.833 -2 -47.5 -4v-180h118v-123h-118v-185c18 -2.66699 34.833 -4.66699 50.5 -6s31.5 -2 47.5 -2z
" />
    <glyph glyph-name="dcroat" unicode="&#x111;" horiz-adv-x="615" 
d="M240 720h158v88h159v-88h70v-93h-70v-627h-141l-12 62h-6c-35.333 -48 -86.666 -72 -153.999 -72c-140 0 -210 89 -210 267c0 97.333 24.833 170.5 74.5 219.5s119.167 73.5 208.5 73.5c13.333 0 26.666 -0.666992 39.999 -2l41 -4v83h-158v93zM294 106
c32.667 0 58.167 10.002 76.5 30.002s27.5 54 27.5 102v192c-12 3.33301 -25.167 5.83301 -39.5 7.5s-29.5 2.5 -45.5 2.5c-22 0 -40.5 -2.66699 -55.5 -8s-27.167 -14.5 -36.5 -27.5s-16 -30.333 -20 -52s-6 -48.834 -6 -81.501c0 -31.333 1.66699 -57.5 5 -78.5
s9 -37.833 17 -50.5s18.333 -21.834 31 -27.501s28 -8.5 46 -8.5z" />
    <glyph glyph-name="Emacron" unicode="&#x112;" horiz-adv-x="616" 
d="M141 947h361v-107h-361v107zM68 740h503v-130h-341v-173h308v-130h-308v-177h350v-130h-512v740z" />
    <glyph glyph-name="emacron" unicode="&#x113;" horiz-adv-x="556" 
d="M299 -9c-176.667 0 -264.999 91.3311 -264.999 273.998c0 93.333 22.333 164 67 212s110.667 72 198 72c148.667 0 223 -81.667 223 -245c0 -17.333 -0.5 -32.166 -1.5 -44.499s-3.16699 -24.5 -6.5 -36.5h-321c2 -22 5.5 -40.167 10.5 -54.5
s12.167 -25.666 21.5 -33.999s21.166 -14.333 35.499 -18s31.5 -5.5 51.5 -5.5c26 0 56 2.33301 90 7s65.667 11 95 19l5 -115c-29.333 -9.33301 -62 -16.833 -98 -22.5s-71 -8.5 -105 -8.5zM293.001 435.998c-32 0 -56 -9.50098 -72 -28.501s-25.667 -50.5 -29 -94.5h190
c-1.33301 44.667 -9 76.334 -23 95.001s-36 28 -66 28zM103.001 738.997h363v-102h-363v102z" />
    <glyph glyph-name="Ebreve" unicode="&#x114;" horiz-adv-x="616" 
d="M317 805c-35.333 0 -65.6689 4.16895 -91.002 12.502s-46.166 20.166 -62.499 35.499s-28.333 33.666 -36 54.999s-11.5 44.666 -11.5 69.999h108c0 -32 6.83301 -55.833 20.5 -71.5s37.834 -23.5 72.501 -23.5s59 7.83301 73 23.5s21 39.5 21 71.5h108
c0 -26 -3.83301 -49.5 -11.5 -70.5s-19.834 -39.167 -36.501 -54.5s-37.667 -27.166 -63 -35.499s-55.666 -12.5 -90.999 -12.5zM67.9971 740.002h503v-130h-341v-173h308v-130h-308v-177h350v-130h-512v740z" />
    <glyph glyph-name="ebreve" unicode="&#x115;" horiz-adv-x="556" 
d="M299 -9c-176.667 0 -264.999 91.3311 -264.999 273.998c0 93.333 22.333 164 67 212s110.667 72 198 72c148.667 0 223 -81.667 223 -245c0 -17.333 -0.5 -32.166 -1.5 -44.499s-3.16699 -24.5 -6.5 -36.5h-321c2 -22 5.5 -40.167 10.5 -54.5
s12.167 -25.666 21.5 -33.999s21.166 -14.333 35.499 -18s31.5 -5.5 51.5 -5.5c26 0 56 2.33301 90 7s65.667 11 95 19l5 -115c-29.333 -9.33301 -62 -16.833 -98 -22.5s-71 -8.5 -105 -8.5zM293.001 435.998c-32 0 -56 -9.50098 -72 -28.501s-25.667 -50.5 -29 -94.5h190
c-1.33301 44.667 -9 76.334 -23 95.001s-36 28 -66 28zM284.001 613.997c-70 0 -120.666 15 -151.999 45s-47.666 70.667 -48.999 122h107c0.666992 -29.333 8.16699 -51.166 22.5 -65.499s38.166 -21.5 71.499 -21.5s57.166 7.16699 71.499 21.5s21.833 36.166 22.5 65.499
h108c-1.33301 -51.333 -17.833 -92 -49.5 -122s-82.5 -45 -152.5 -45z" />
    <glyph glyph-name="Edotaccent" unicode="&#x116;" horiz-adv-x="616" 
d="M318 801c-32 0 -54.833 6.83203 -68.5 20.499s-20.5 35.5 -20.5 65.5c0 30.667 6.83301 52.834 20.5 66.501s36.5 20.5 68.5 20.5c31.333 0 53.833 -7 67.5 -21s20.5 -36 20.5 -66s-6.83301 -51.833 -20.5 -65.5s-36.167 -20.5 -67.5 -20.5zM68 739.999h503v-130h-341
v-173h308v-130h-308v-177h350v-130h-512v740z" />
    <glyph glyph-name="edotaccent" unicode="&#x117;" horiz-adv-x="556" 
d="M299 -9c-176.667 0 -264.999 91.3311 -264.999 273.998c0 93.333 22.333 164 67 212s110.667 72 198 72c148.667 0 223 -81.667 223 -245c0 -17.333 -0.5 -32.166 -1.5 -44.499s-3.16699 -24.5 -6.5 -36.5h-321c2 -22 5.5 -40.167 10.5 -54.5
s12.167 -25.666 21.5 -33.999s21.166 -14.333 35.499 -18s31.5 -5.5 51.5 -5.5c26 0 56 2.33301 90 7s65.667 11 95 19l5 -115c-29.333 -9.33301 -62 -16.833 -98 -22.5s-71 -8.5 -105 -8.5zM293.001 435.998c-32 0 -56 -9.50098 -72 -28.501s-25.667 -50.5 -29 -94.5h190
c-1.33301 44.667 -9 76.334 -23 95.001s-36 28 -66 28zM288.001 612.997c-31.333 0 -53.833 6.83301 -67.5 20.5s-20.5 35.5 -20.5 65.5s6.83301 51.833 20.5 65.5s36.167 20.5 67.5 20.5s54 -6.83301 68 -20.5s21 -35.5 21 -65.5s-7 -51.833 -21 -65.5
s-36.667 -20.5 -68 -20.5z" />
    <glyph glyph-name="Eogonek" unicode="&#x118;" horiz-adv-x="616" 
d="M68 740l502.998 -0.000976562v-130h-341v-173h308v-130h-308v-177h350v-140c-42 -17.333 -71.5 -34.166 -88.5 -50.499s-25.5 -31.5 -25.5 -45.5c0 -17.333 12 -26 36 -26c10 0 22.333 1.33301 37 4s28.334 6 41.001 10v-90c-27.333 -8 -55.666 -12 -84.999 -12
c-43.333 0 -76.333 8 -99 24s-34 39.333 -34 70c0 46.667 29 88.667 87 126h-381v740z" />
    <glyph glyph-name="eogonek" unicode="&#x119;" horiz-adv-x="556" 
d="M299 -9c-176.667 0 -265.001 91.3301 -265.001 273.997c0 93.333 22.333 164 67 212s110.667 72 198 72c148.667 0 223 -81.667 223 -245c0 -17.333 -0.5 -32.166 -1.5 -44.499s-3.16699 -24.5 -6.5 -36.5h-321c2 -22 5.5 -40.167 10.5 -54.5
s12.167 -25.666 21.5 -33.999s21.166 -14.333 35.499 -18s31.5 -5.5 51.5 -5.5c26 0 56 2.33301 90 7s65.667 11 95 19l5 -114v-10c-42 -17.333 -71.5 -34.166 -88.5 -50.499s-25.5 -31.5 -25.5 -45.5c0 -17.333 12 -26 36 -26c10 0 22.333 1.33301 37 4s28.334 6 41.001 10
v-90c-27.333 -8 -55.666 -12 -84.999 -12c-43.333 0 -76.333 8 -99 24s-34 39.333 -34 70c0 33.333 15.333 65 46 95c-5.33301 -0.666992 -10.5 -1 -15.5 -1h-15.5zM292.999 435.997c-32 0 -56 -9.50098 -72 -28.501s-25.667 -50.5 -29 -94.5h190
c-1.33301 44.667 -9 76.334 -23 95.001s-36 28 -66 28z" />
    <glyph glyph-name="Ecaron" unicode="&#x11a;" horiz-adv-x="616" 
d="M141 980l184 -75l183 75v-109l-184 -75l-183 75v109zM68 740h503v-130h-341v-173h308v-130h-308v-177h350v-130h-512v740z" />
    <glyph glyph-name="ecaron" unicode="&#x11b;" horiz-adv-x="556" 
d="M105 796l184 -75l183 75v-109l-184 -75l-183 75v109zM299 -9c-176.667 0 -264.999 91.3311 -264.999 273.998c0 93.333 22.333 164 67 212s110.667 72 198 72c148.667 0 223 -81.667 223 -245c0 -17.333 -0.5 -32.166 -1.5 -44.499s-3.16699 -24.5 -6.5 -36.5h-321
c2 -22 5.5 -40.167 10.5 -54.5s12.167 -25.666 21.5 -33.999s21.166 -14.333 35.499 -18s31.5 -5.5 51.5 -5.5c26 0 56 2.33301 90 7s65.667 11 95 19l5 -115c-29.333 -9.33301 -62 -16.833 -98 -22.5s-71 -8.5 -105 -8.5zM293.001 435.998c-32 0 -56 -9.50098 -72 -28.501
s-25.667 -50.5 -29 -94.5h190c-1.33301 44.667 -9 76.334 -23 95.001s-36 28 -66 28z" />
    <glyph glyph-name="Gcircumflex" unicode="&#x11c;" horiz-adv-x="660" 
d="M387 -11c-119.333 0 -207.5 31.1689 -264.5 93.502s-85.5 157.833 -85.5 286.5c0 129.333 30.5 225.333 91.5 288s154.5 94 280.5 94c30 0 62.333 -2 97 -6s67 -9.66699 97 -17v-130c-39.333 7.33301 -73.5 12.5 -102.5 15.5s-54.833 4.5 -77.5 4.5
c-41.333 0 -76.166 -4.16699 -104.499 -12.5s-51 -22.333 -68 -42s-29.167 -45.334 -36.5 -77.001s-11 -70.834 -11 -117.501c0 -46 3.33301 -84.833 10 -116.5s17.5 -57 32.5 -76s35 -32.667 60 -41s55.5 -12.5 91.5 -12.5c20 0 42 1 66 3v250h149v-358
c-42 -9.33301 -82.333 -16.5 -121 -21.5s-73.334 -7.5 -104.001 -7.5zM176 908.002l183 75l185 -75v-109l-184 75l-184 -75v109z" />
    <glyph glyph-name="gcircumflex" unicode="&#x11d;" horiz-adv-x="614" 
d="M140 722l182 75l185 -75v-108l-184 74l-183 -74v108zM269 -220c-34 0 -68.5 2.00098 -103.5 6.00098s-66.167 9.66699 -93.5 17l10 115c25.333 -5.33301 51.833 -10 79.5 -14s55.167 -6 82.5 -6c24.667 0 47 2.5 67 7.5s37 13.167 51 24.5s25 26.333 33 45
s12 41.667 12 69v43h-7c-16.667 -25.333 -38 -43.833 -64 -55.5s-56 -17.5 -90 -17.5c-70.667 0 -123.5 20.167 -158.5 60.5s-52.5 103.166 -52.5 188.499c0 94.667 25 166.167 75 214.5s119.333 72.5 208 72.5c16 0 32.167 -0.666992 48.5 -2s34 -3.5 53 -6.5
s39.833 -7 62.5 -12s48 -11.5 76 -19.5v-442c0 -52 -7.16699 -96.333 -21.5 -133s-34.333 -66.5 -60 -89.5s-56.167 -39.667 -91.5 -50s-74 -15.5 -116 -15.5zM295 126.001c33.333 0 58.9971 9.83203 76.9971 29.499s27 52.167 27 97.5v177
c-12.667 3.33301 -26.167 5.83301 -40.5 7.5s-29.166 2.5 -44.499 2.5c-22 0 -40.5 -2.66699 -55.5 -8s-27.167 -14.166 -36.5 -26.499s-16 -29 -20 -50s-6 -47.167 -6 -78.5c0 -28 1.66699 -51.667 5 -71s8.83301 -35 16.5 -47s17.834 -20.5 30.501 -25.5
s28.334 -7.5 47.001 -7.5z" />
    <glyph glyph-name="Gbreve" unicode="&#x11e;" horiz-adv-x="660" 
d="M366 805c-35.333 0 -65.6689 4.16895 -91.002 12.502s-46.166 20.166 -62.499 35.499s-28.333 33.666 -36 54.999s-11.5 44.666 -11.5 69.999h108c0 -32 6.83301 -55.833 20.5 -71.5s37.834 -23.5 72.501 -23.5s59 7.83301 73 23.5s21 39.5 21 71.5h108
c0 -26 -3.83301 -49.5 -11.5 -70.5s-19.834 -39.167 -36.501 -54.5s-37.667 -27.166 -63 -35.499s-55.666 -12.5 -90.999 -12.5zM386.997 -10.998c-119.333 0 -207.5 31.1689 -264.5 93.502s-85.5 157.833 -85.5 286.5c0 129.333 30.5 225.333 91.5 288s154.5 94 280.5 94
c30 0 62.333 -2 97 -6s67 -9.66699 97 -17v-130c-39.333 7.33301 -73.5 12.5 -102.5 15.5s-54.833 4.5 -77.5 4.5c-41.333 0 -76.166 -4.16699 -104.499 -12.5s-51 -22.333 -68 -42s-29.167 -45.334 -36.5 -77.001s-11 -70.834 -11 -117.501
c0 -46 3.33301 -84.833 10 -116.5s17.5 -57 32.5 -76s35 -32.667 60 -41s55.5 -12.5 91.5 -12.5c20 0 42 1 66 3v250h149v-358c-42 -9.33301 -82.333 -16.5 -121 -21.5s-73.334 -7.5 -104.001 -7.5z" />
    <glyph glyph-name="gbreve" unicode="&#x11f;" horiz-adv-x="614" 
d="M269 -220c-34 0 -68.5 2.00098 -103.5 6.00098s-66.167 9.66699 -93.5 17l10 115c25.333 -5.33301 51.833 -10 79.5 -14s55.167 -6 82.5 -6c24.667 0 47 2.5 67 7.5s37 13.167 51 24.5s25 26.333 33 45s12 41.667 12 69v43h-7c-16.667 -25.333 -38 -43.833 -64 -55.5
s-56 -17.5 -90 -17.5c-70.667 0 -123.5 20.167 -158.5 60.5s-52.5 103.166 -52.5 188.499c0 94.667 25 166.167 75 214.5s119.333 72.5 208 72.5c16 0 32.167 -0.666992 48.5 -2s34 -3.5 53 -6.5s39.833 -7 62.5 -12s48 -11.5 76 -19.5v-442
c0 -52 -7.16699 -96.333 -21.5 -133s-34.333 -66.5 -60 -89.5s-56.167 -39.667 -91.5 -50s-74 -15.5 -116 -15.5zM295 126.001c33.333 0 58.9971 9.83203 76.9971 29.499s27 52.167 27 97.5v177c-12.667 3.33301 -26.167 5.83301 -40.5 7.5s-29.166 2.5 -44.499 2.5
c-22 0 -40.5 -2.66699 -55.5 -8s-27.167 -14.166 -36.5 -26.499s-16 -29 -20 -50s-6 -47.167 -6 -78.5c0 -28 1.66699 -51.667 5 -71s8.83301 -35 16.5 -47s17.834 -20.5 30.501 -25.5s28.334 -7.5 47.001 -7.5zM313.997 614c-70 0 -120.666 15 -151.999 45
s-47.666 70.667 -48.999 122h107c0.666992 -29.333 8.16699 -51.166 22.5 -65.499s38.166 -21.5 71.499 -21.5s57.166 7.16699 71.499 21.5s21.833 36.166 22.5 65.499h108c-1.33301 -51.333 -17.833 -92 -49.5 -122s-82.5 -45 -152.5 -45z" />
    <glyph glyph-name="Gdotaccent" unicode="&#x120;" horiz-adv-x="660" 
d="M368 801c-32 0 -54.833 6.83203 -68.5 20.499s-20.5 35.5 -20.5 65.5c0 30.667 6.83301 52.834 20.5 66.501s36.5 20.5 68.5 20.5c31.333 0 53.833 -7 67.5 -21s20.5 -36 20.5 -66s-6.83301 -51.833 -20.5 -65.5s-36.167 -20.5 -67.5 -20.5zM387 -11.001
c-119.333 0 -207.5 31.1689 -264.5 93.502s-85.5 157.833 -85.5 286.5c0 129.333 30.5 225.333 91.5 288s154.5 94 280.5 94c30 0 62.333 -2 97 -6s67 -9.66699 97 -17v-130c-39.333 7.33301 -73.5 12.5 -102.5 15.5s-54.833 4.5 -77.5 4.5
c-41.333 0 -76.166 -4.16699 -104.499 -12.5s-51 -22.333 -68 -42s-29.167 -45.334 -36.5 -77.001s-11 -70.834 -11 -117.501c0 -46 3.33301 -84.833 10 -116.5s17.5 -57 32.5 -76s35 -32.667 60 -41s55.5 -12.5 91.5 -12.5c20 0 42 1 66 3v250h149v-358
c-42 -9.33301 -82.333 -16.5 -121 -21.5s-73.334 -7.5 -104.001 -7.5z" />
    <glyph glyph-name="gdotaccent" unicode="&#x121;" horiz-adv-x="614" 
d="M269 -220c-34 0 -68.5 2.00098 -103.5 6.00098s-66.167 9.66699 -93.5 17l10 115c25.333 -5.33301 51.833 -10 79.5 -14s55.167 -6 82.5 -6c24.667 0 47 2.5 67 7.5s37 13.167 51 24.5s25 26.333 33 45s12 41.667 12 69v43h-7c-16.667 -25.333 -38 -43.833 -64 -55.5
s-56 -17.5 -90 -17.5c-70.667 0 -123.5 20.167 -158.5 60.5s-52.5 103.166 -52.5 188.499c0 94.667 25 166.167 75 214.5s119.333 72.5 208 72.5c16 0 32.167 -0.666992 48.5 -2s34 -3.5 53 -6.5s39.833 -7 62.5 -12s48 -11.5 76 -19.5v-442
c0 -52 -7.16699 -96.333 -21.5 -133s-34.333 -66.5 -60 -89.5s-56.167 -39.667 -91.5 -50s-74 -15.5 -116 -15.5zM295 126.001c33.333 0 58.9971 9.83203 76.9971 29.499s27 52.167 27 97.5v177c-12.667 3.33301 -26.167 5.83301 -40.5 7.5s-29.166 2.5 -44.499 2.5
c-22 0 -40.5 -2.66699 -55.5 -8s-27.167 -14.166 -36.5 -26.499s-16 -29 -20 -50s-6 -47.167 -6 -78.5c0 -28 1.66699 -51.667 5 -71s8.83301 -35 16.5 -47s17.834 -20.5 30.501 -25.5s28.334 -7.5 47.001 -7.5zM315.997 613c-31.333 0 -53.833 6.83301 -67.5 20.5
s-20.5 35.5 -20.5 65.5s6.83301 51.833 20.5 65.5s36.167 20.5 67.5 20.5s54 -6.83301 68 -20.5s21 -35.5 21 -65.5s-7 -51.833 -21 -65.5s-36.667 -20.5 -68 -20.5z" />
    <glyph glyph-name="Gcommaaccent" unicode="&#x122;" horiz-adv-x="660" 
d="M289 -69h163l-86 -151h-121zM387 -11c-119.333 0 -207.5 31.1689 -264.5 93.502s-85.5 157.833 -85.5 286.5c0 129.333 30.5 225.333 91.5 288s154.5 94 280.5 94c30 0 62.333 -2 97 -6s67 -9.66699 97 -17v-130c-39.333 7.33301 -73.5 12.5 -102.5 15.5
s-54.833 4.5 -77.5 4.5c-41.333 0 -76.166 -4.16699 -104.499 -12.5s-51 -22.333 -68 -42s-29.167 -45.334 -36.5 -77.001s-11 -70.834 -11 -117.501c0 -46 3.33301 -84.833 10 -116.5s17.5 -57 32.5 -76s35 -32.667 60 -41s55.5 -12.5 91.5 -12.5c20 0 42 1 66 3v250h149
v-358c-42 -9.33301 -82.333 -16.5 -121 -21.5s-73.334 -7.5 -104.001 -7.5z" />
    <glyph glyph-name="gcommaaccent" unicode="&#x123;" horiz-adv-x="614" 
d="M462 781l-43 -150h-162l86 150h119zM269 -220c-34 0 -68.5 2.00098 -103.5 6.00098s-66.167 9.66699 -93.5 17l10 115c25.333 -5.33301 51.833 -10 79.5 -14s55.167 -6 82.5 -6c24.667 0 47 2.5 67 7.5s37 13.167 51 24.5s25 26.333 33 45s12 41.667 12 69v43h-7
c-16.667 -25.333 -38 -43.833 -64 -55.5s-56 -17.5 -90 -17.5c-70.667 0 -123.5 20.167 -158.5 60.5s-52.5 103.166 -52.5 188.499c0 94.667 25 166.167 75 214.5s119.333 72.5 208 72.5c16 0 32.167 -0.666992 48.5 -2s34 -3.5 53 -6.5s39.833 -7 62.5 -12
s48 -11.5 76 -19.5v-442c0 -52 -7.16699 -96.333 -21.5 -133s-34.333 -66.5 -60 -89.5s-56.167 -39.667 -91.5 -50s-74 -15.5 -116 -15.5zM295 126.001c33.333 0 58.9971 9.83203 76.9971 29.499s27 52.167 27 97.5v177c-12.667 3.33301 -26.167 5.83301 -40.5 7.5
s-29.166 2.5 -44.499 2.5c-22 0 -40.5 -2.66699 -55.5 -8s-27.167 -14.166 -36.5 -26.499s-16 -29 -20 -50s-6 -47.167 -6 -78.5c0 -28 1.66699 -51.667 5 -71s8.83301 -35 16.5 -47s17.834 -20.5 30.501 -25.5s28.334 -7.5 47.001 -7.5z" />
    <glyph glyph-name="Hcircumflex" unicode="&#x124;" horiz-adv-x="764" 
d="M68 740h162v-296h304v296h162v-740h-162v314h-304v-314h-162v740zM196 908l183 75l185 -75v-109l-184 75l-184 -75v109z" />
    <glyph glyph-name="hcircumflex" unicode="&#x125;" horiz-adv-x="614" 
d="M137 927l182 75l185 -75v-108l-184 74l-183 -74v108zM58 808h158.001v-324c43.333 22.667 80.666 39.334 111.999 50.001s61 16 89 16c44.667 0 79.5 -12.833 104.5 -38.5s37.5 -62.167 37.5 -109.5v-402h-159v348c0 25.333 -4.66699 43.666 -14 54.999s-24 17 -44 17
c-15.333 0 -34 -3 -56 -9s-45.333 -14.667 -70 -26v-385h-158v808z" />
    <glyph glyph-name="Hbar" unicode="&#x126;" horiz-adv-x="785" 
d="M3 616h74v124h162v-124h304v124h162v-124h80v-76h-80v-540h-162v314h-304v-314h-162v540h-74v76zM543 444v96h-304v-96h304z" />
    <glyph glyph-name="hbar" unicode="&#x127;" horiz-adv-x="614" 
d="M-25 720h84.001v88h158v-88h145v-93h-145v-143c43.333 22.667 80.666 39.334 111.999 50.001s61 16 89 16c44.667 0 79.5 -12.833 104.5 -38.5s37.5 -62.167 37.5 -109.5v-402h-159v348c0 25.333 -4.66699 43.666 -14 54.999s-24 17 -44 17c-15.333 0 -34 -3 -56 -9
s-45.333 -14.667 -70 -26v-385h-158v627h-84v93z" />
    <glyph glyph-name="Itilde" unicode="&#x128;" horiz-adv-x="298" 
d="M68 740h162v-740h-162v740zM-60 851c20.667 38 44.1699 66.332 70.5029 84.999s52.166 28 77.499 28c15.333 0 30.5 -2 45.5 -6s29.667 -8.5 44 -13.5s28.833 -9.5 43.5 -13.5s29.667 -6 45 -6c14 0 27.833 2.83301 41.5 8.5s28.834 15.5 45.501 29.5l23 -27
c-20 -38 -43.333 -66.667 -70 -86s-52.667 -29 -78 -29c-15.333 0 -30.333 2 -45 6s-29.334 8.33301 -44.001 13s-29.334 9 -44.001 13s-29.334 6 -44.001 6s-29 -2.66699 -43 -8s-29 -14.666 -45 -27.999z" />
    <glyph glyph-name="itilde" unicode="&#x129;" horiz-adv-x="276" 
d="M-64 664c19.333 36 41.6689 63.167 67.002 81.5s50 27.5 74 27.5c14.667 0 29.167 -2.33301 43.5 -7s28.5 -10 42.5 -16s28 -11.333 42 -16s28.333 -7 43 -7c12.667 0 25.167 2.83301 37.5 8.5s26.166 15.834 41.499 30.501l27 -34
c-19.333 -37.333 -41.833 -65 -67.5 -83s-50.5 -27 -74.5 -27c-14.667 0 -29 2.33301 -43 7s-28 10 -42 16s-28.167 11.333 -42.5 16s-28.5 7 -42.5 7c-13.333 0 -26.333 -2.83301 -39 -8.5s-26.334 -15.834 -41.001 -30.501zM59.0029 540h159v-540h-159v540z" />
    <glyph glyph-name="Imacron" unicode="&#x12a;" horiz-adv-x="298" 
d="M68 740h162v-740h-162v740zM-29 947h361v-107h-361v107z" />
    <glyph glyph-name="imacron" unicode="&#x12b;" horiz-adv-x="276" 
d="M59 540h159v-540h-159v540zM-40 739h363v-102h-363v102z" />
    <glyph glyph-name="Ibreve" unicode="&#x12c;" horiz-adv-x="298" 
d="M68 740h162v-740h-162v740zM149 805c-35.333 0 -65.6689 4.16895 -91.002 12.502s-46.166 20.166 -62.499 35.499s-28.333 33.666 -36 54.999s-11.5 44.666 -11.5 69.999h108c0 -32 6.83301 -55.833 20.5 -71.5s37.834 -23.5 72.501 -23.5s59 7.83301 73 23.5
s21 39.5 21 71.5h108c0 -26 -3.83301 -49.5 -11.5 -70.5s-19.834 -39.167 -36.501 -54.5s-37.667 -27.166 -63 -35.499s-55.666 -12.5 -90.999 -12.5z" />
    <glyph glyph-name="ibreve" unicode="&#x12d;" horiz-adv-x="276" 
d="M142 614c-60.667 0 -105 15 -133 45s-42.667 70.667 -44 122h94c0 -29.333 6.33301 -51.166 19 -65.499s34 -21.5 64 -21.5c29.333 0 50.333 7.16699 63 21.5s19 36.166 19 65.499h94c-2 -51.333 -16.833 -92 -44.5 -122s-71.5 -45 -131.5 -45zM59 540h159v-540h-159v540
z" />
    <glyph glyph-name="Iogonek" unicode="&#x12e;" horiz-adv-x="298" 
d="M68 740l161.998 -0.000976562v-750c-42 -17.333 -71.5 -34.166 -88.5 -50.499s-25.5 -31.5 -25.5 -45.5c0 -17.333 12 -26 36 -26c10 0 22.333 1.33301 37 4s28.334 6 41.001 10v-90c-27.333 -8 -55.666 -12 -84.999 -12c-43.333 0 -76.333 8 -99 24s-34 39.333 -34 70
c0 46.667 29 88.667 87 126h-31v740z" />
    <glyph glyph-name="iogonek" unicode="&#x12f;" horiz-adv-x="275" 
d="M58 540l158.998 -0.000976562v-550c-42 -17.333 -71.5 -34.166 -88.5 -50.499s-25.5 -31.5 -25.5 -45.5c0 -17.333 12 -26 36 -26c10 0 22.333 1.33301 37 4s28.334 6 41.001 10v-90c-27.333 -8 -55.666 -12 -84.999 -12c-43.333 0 -76.333 8 -99 24s-34 39.333 -34 70
c0 46.667 29 88.667 87 126h-28v540zM136.998 619.999c-30.667 0 -52.832 6.83301 -66.499 20.5s-20.5 35.5 -20.5 65.5s6.66699 51.667 20 65s35.666 20 66.999 20c32 0 54.833 -6.83301 68.5 -20.5s20.5 -35.167 20.5 -64.5s-6.83301 -51 -20.5 -65s-36.5 -21 -68.5 -21z
" />
    <glyph glyph-name="Idotaccent" unicode="&#x130;" horiz-adv-x="298" 
d="M68 740h162v-740h-162v740zM151 801c-32 0 -54.833 6.83203 -68.5 20.499s-20.5 35.5 -20.5 65.5c0 30.667 6.83301 52.834 20.5 66.501s36.5 20.5 68.5 20.5c31.333 0 53.833 -7 67.5 -21s20.5 -36 20.5 -66s-6.83301 -51.833 -20.5 -65.5s-36.167 -20.5 -67.5 -20.5z
" />
    <glyph glyph-name="dotlessi" unicode="&#x131;" horiz-adv-x="275" 
d="M58 540h159v-540h-159v540z" />
    <glyph glyph-name="IJ" unicode="&#x132;" horiz-adv-x="597" 
d="M68 740h162v-740h-162v740zM291 -159c14.667 33.333 27 64.001 37 92.001s18 55.667 24 83s10.167 55.166 12.5 83.499s3.5 59.833 3.5 94.5v546h163v-559c0 -34 -2.33301 -66.333 -7 -97s-12.334 -61.167 -23.001 -91.5s-24.667 -61.5 -42 -93.5
s-38.666 -66.667 -63.999 -104z" />
    <glyph glyph-name="ij" unicode="&#x133;" horiz-adv-x="548" 
d="M137 620c-30.667 0 -52.832 6.83301 -66.499 20.5s-20.5 35.5 -20.5 65.5s6.66699 51.667 20 65s35.666 20 66.999 20c32 0 54.833 -6.83301 68.5 -20.5s20.5 -35.167 20.5 -64.5s-6.83301 -51 -20.5 -65s-36.5 -21 -68.5 -21zM58.002 540h159v-540h-159v540z
M411.002 620c-31.333 0 -53.666 6.83301 -66.999 20.5s-20 35.5 -20 65.5s6.66699 51.667 20 65s35.666 20 66.999 20c32 0 54.833 -6.83301 68.5 -20.5s20.5 -35.167 20.5 -64.5s-6.83301 -51 -20.5 -65s-36.5 -21 -68.5 -21zM286.002 -194c8 24 15 48.1689 21 72.502
s11 49.833 15 76.5s7 55 9 85s3 63 3 99v33.5v66v83.5v87.5c0 28.333 -0.166992 54.166 -0.5 77.499s-0.5 41 -0.5 53h158v-464c-2.66699 -51.333 -12 -102.833 -28 -154.5s-37.333 -98.834 -64 -141.501z" />
    <glyph glyph-name="Jcircumflex" unicode="&#x134;" horiz-adv-x="298" 
d="M-7 -159c14.667 33.333 27 64.001 37 92.001s18 55.667 24 83s10.167 55.166 12.5 83.499s3.5 59.833 3.5 94.5v546h163v-559c0 -34 -2.33301 -66.333 -7 -97s-12.334 -61.167 -23.001 -91.5s-24.667 -61.5 -42 -93.5s-38.666 -66.667 -63.999 -104zM-31 908.001l183 75
l185 -75v-109l-184 75l-184 -75v109z" />
    <glyph glyph-name="jcircumflex" unicode="&#x135;" horiz-adv-x="273" 
d="M-39 723l175 75l177 -75v-109l-176 75l-176 -75v109zM9 -199c9.33301 28.667 17.334 55.833 24.001 81.5s12 52.167 16 79.5s6.83301 57.333 8.5 90s2.5 71 2.5 115v57.5c0 26.333 -0.166992 56.666 -0.5 90.999s-0.833008 71 -1.5 110l-2 114.5h159v-465
c-4 -53.333 -13.333 -104.166 -28 -152.499s-35.334 -95.833 -62.001 -142.5z" />
    <glyph glyph-name="Kcommaaccent" unicode="&#x136;" horiz-adv-x="688" 
d="M262 -69h163l-86 -151h-121zM68 740h162v-300h96l168 300h181l-193 -328l-49 -26v-8l51 -26l210 -352h-182l-179 310h-103v-310h-162v740z" />
    <glyph glyph-name="kcommaaccent" unicode="&#x137;" horiz-adv-x="579" 
d="M228 -69h163l-86 -151h-121zM58 808h158v-477h54l128 209h174l-170 -252l-24 -8v-4l24 -8l187 -268h-174l-146 225h-53v-225h-158v808z" />
    <glyph glyph-name="kgreenlandic" unicode="&#x138;" horiz-adv-x="576" 
d="M58 540h159v-209h59l117 209h174l-160 -253l-23 -7v-4l23 -7l177 -269h-173l-136 225h-58v-225h-159v540z" />
    <glyph glyph-name="Lacute" unicode="&#x139;" horiz-adv-x="532" 
d="M93 806l67 169h163l-115 -178zM68 740h162v-611h290v-129h-452v740z" />
    <glyph glyph-name="lacute" unicode="&#x13a;" horiz-adv-x="276" 
d="M79 843l66 187h163l-116 -196zM58 808h159v-808h-159v808z" />
    <glyph glyph-name="Lcommaaccent" unicode="&#x13b;" horiz-adv-x="532" 
d="M207 -69h163l-86 -151h-121zM68 740h162v-611h290v-129h-452v740z" />
    <glyph glyph-name="lcommaaccent" unicode="&#x13c;" horiz-adv-x="276" 
d="M63 -69h163l-86 -151h-121zM58 808h159v-808h-159v808z" />
    <glyph glyph-name="Lcaron" unicode="&#x13d;" horiz-adv-x="551" 
d="M396 788h126l-41 -228h-85v228zM68 740h162v-611h290v-129h-452v740z" />
    <glyph glyph-name="lcaron" unicode="&#x13e;" horiz-adv-x="277" 
d="M268 808h126l-41 -228h-85v228zM58 808h159v-808h-159v808z" />
    <glyph glyph-name="Ldot" unicode="&#x13f;" horiz-adv-x="547" 
d="M68 740h162v-611h290v-129h-452v740zM437 296c-32 0 -54.833 6.66602 -68.5 19.999s-20.5 35.333 -20.5 66s6.83301 52.834 20.5 66.501s36.5 20.5 68.5 20.5c31.333 0 53.833 -7 67.5 -21s20.5 -36 20.5 -66s-6.83301 -51.833 -20.5 -65.5s-36.167 -20.5 -67.5 -20.5z
" />
    <glyph glyph-name="ldot" unicode="&#x140;" horiz-adv-x="428" 
d="M58 808h159v-808h-159v808zM352 284c-32 0 -54.833 6.66602 -68.5 19.999s-20.5 35.333 -20.5 66s6.83301 52.834 20.5 66.501s36.5 20.5 68.5 20.5c31.333 0 53.833 -7 67.5 -21s20.5 -36 20.5 -66s-6.83301 -51.833 -20.5 -65.5s-36.167 -20.5 -67.5 -20.5z" />
    <glyph glyph-name="Lslash" unicode="&#x141;" horiz-adv-x="551" 
d="M11 344l76 41v355h162v-266l126 69v-119l-126 -69v-226h290v-129h-452v266l-76 -41v119z" />
    <glyph glyph-name="lslash" unicode="&#x142;" horiz-adv-x="379" 
d="M20 359l89 48v401h159v-315l98 53v-117l-98 -53v-376h-159v290l-89 -48v117z" />
    <glyph glyph-name="Nacute" unicode="&#x143;" horiz-adv-x="766" 
d="M305 806l67 169h163l-115 -178zM68 740h132l294 -403l53 -83h9v486h142v-740h-132l-291 399l-55 87h-9v-486h-143v740z" />
    <glyph glyph-name="nacute" unicode="&#x144;" horiz-adv-x="614" 
d="M255 618l66 187h163l-116 -196zM58 540h133.001l9 -61h6c47.333 25.333 87 43.5 119 54.5s62.667 16.5 92 16.5c44.667 0 79.5 -12.833 104.5 -38.5s37.5 -62.167 37.5 -109.5v-402h-159v348c0 26 -4.83301 44.5 -14.5 55.5s-24.167 16.5 -43.5 16.5
c-17.333 0 -36.833 -3.16699 -58.5 -9.5s-43.834 -14.833 -66.501 -25.5v-385h-159v540z" />
    <glyph glyph-name="Ncommaaccent" unicode="&#x145;" horiz-adv-x="766" 
d="M315 -69h163l-86 -151h-121zM68 740h132l294 -403l53 -83h9v486h142v-740h-132l-291 399l-55 87h-9v-486h-143v740z" />
    <glyph glyph-name="ncommaaccent" unicode="&#x146;" horiz-adv-x="614" 
d="M234 -69h163l-86 -151h-121zM58 540h133.001l9 -61h6c47.333 25.333 87 43.5 119 54.5s62.667 16.5 92 16.5c44.667 0 79.5 -12.833 104.5 -38.5s37.5 -62.167 37.5 -109.5v-402h-159v348c0 26 -4.83301 44.5 -14.5 55.5s-24.167 16.5 -43.5 16.5
c-17.333 0 -36.833 -3.16699 -58.5 -9.5s-43.834 -14.833 -66.501 -25.5v-385h-159v540z" />
    <glyph glyph-name="Ncaron" unicode="&#x147;" horiz-adv-x="766" 
d="M201 980l184 -75l183 75v-109l-184 -75l-183 75v109zM68 740h132l294 -403l53 -83h9v486h142v-740h-132l-291 399l-55 87h-9v-486h-143v740z" />
    <glyph glyph-name="ncaron" unicode="&#x148;" horiz-adv-x="614" 
d="M122 796l184 -75l183 75v-109l-184 -75l-183 75v109zM58 540h133.001l9 -61h6c47.333 25.333 87 43.5 119 54.5s62.667 16.5 92 16.5c44.667 0 79.5 -12.833 104.5 -38.5s37.5 -62.167 37.5 -109.5v-402h-159v348c0 26 -4.83301 44.5 -14.5 55.5s-24.167 16.5 -43.5 16.5
c-17.333 0 -36.833 -3.16699 -58.5 -9.5s-43.834 -14.833 -66.501 -25.5v-385h-159v540z" />
    <glyph glyph-name="napostrophe" unicode="&#x149;" horiz-adv-x="702" 
d="M148 808v-4l-43 -224h-83v228h126zM146 540h133.001l9 -61h6c47.333 25.333 87 43.5 119 54.5s62.667 16.5 92 16.5c44.667 0 79.5 -12.833 104.5 -38.5s37.5 -62.167 37.5 -109.5v-402h-159v348c0 26 -4.83301 44.5 -14.5 55.5s-24.167 16.5 -43.5 16.5
c-17.333 0 -36.833 -3.16699 -58.5 -9.5s-43.834 -14.833 -66.501 -25.5v-385h-159v540z" />
    <glyph glyph-name="Eng" unicode="&#x14a;" horiz-adv-x="764" 
d="M469 -170c18 40 32.332 77.667 42.999 113s18.334 69.666 23.001 102.999l-258 354l-55 88h-9v-488h-145v740h129l295 -403l53 -84h9v487h144v-627c0 -19.333 -3.16699 -42.166 -9.5 -68.499s-15 -53.833 -26 -82.5s-23.833 -57.5 -38.5 -86.5s-30.667 -55.833 -48 -80.5
z" />
    <glyph glyph-name="eng" unicode="&#x14b;" horiz-adv-x="613" 
d="M351 -200c15.333 47.333 27.332 96.833 35.999 148.5s13 108.834 13 171.501v207c0 31.333 -4 52.666 -12 63.999s-23 17 -45 17c-18 0 -37.667 -2.5 -59 -7.5s-43.666 -12.833 -66.999 -23.5v-377h-159v540h133l9 -59h4c46.667 24.667 86.334 42.334 119.001 53.001
s64 16 94 16c44.667 0 79.5 -12.833 104.5 -38.5s37.5 -62.167 37.5 -109.5v-332c-1.33301 -24 -4.33301 -49 -9 -75s-10.834 -51.667 -18.501 -77s-16.5 -49.833 -26.5 -73.5s-20.667 -44.834 -32 -63.501z" />
    <glyph glyph-name="Omacron" unicode="&#x14c;" horiz-adv-x="747" 
d="M191 947h361v-107h-361v107zM373 -10c-110.667 0 -194.332 31.667 -250.999 95s-85 158 -85 284c0 126.667 28.167 221.834 84.5 285.501s140.166 95.5 251.499 95.5s195.333 -31.833 252 -95.5s85 -158.834 85 -285.501c0 -126 -28.333 -220.667 -85 -284
s-140.667 -95 -252 -95zM373.002 122c31.333 0 57.834 4.33496 79.501 13.002s39.334 22.667 53.001 42s23.5 44.666 29.5 75.999s9 70 9 116c0 45.333 -3.16699 83.833 -9.5 115.5s-16.333 57.5 -30 77.5s-31.334 34.5 -53.001 43.5s-47.834 13.5 -78.501 13.5
s-56.667 -4.5 -78 -13.5s-38.833 -23.333 -52.5 -43s-23.667 -45.334 -30 -77.001s-9.5 -70.5 -9.5 -116.5c0 -45.333 3.16699 -83.833 9.5 -115.5s16.166 -57.167 29.499 -76.5s30.833 -33.333 52.5 -42s47.834 -13 78.501 -13z" />
    <glyph glyph-name="omacron" unicode="&#x14d;" horiz-adv-x="606" 
d="M122 739h363v-102h-363v102zM303 -10c-88 0 -155 23.833 -201 71.5s-69 117.167 -69 208.5s23 160.833 69 208.5s113 71.5 201 71.5s154.833 -23.833 200.5 -71.5s68.5 -117.167 68.5 -208.5s-22.833 -160.833 -68.5 -208.5s-112.5 -71.5 -200.5 -71.5zM303 111
c20 0 37 2.66699 51 8s25.333 14.166 34 26.499s15 28.666 19 48.999s6 45.5 6 75.5s-2 55.167 -6 75.5s-10.333 36.666 -19 48.999s-20 21 -34 26s-31 7.5 -51 7.5s-37 -2.5 -51 -7.5s-25.333 -13.667 -34 -26s-15 -28.666 -19 -48.999s-6 -45.5 -6 -75.5
s2 -55.167 6 -75.5s10.333 -36.666 19 -48.999s20 -21.166 34 -26.499s31 -8 51 -8z" />
    <glyph glyph-name="Obreve" unicode="&#x14e;" horiz-adv-x="747" 
d="M372 805c-35.333 0 -65.6689 4.16895 -91.002 12.502s-46.166 20.166 -62.499 35.499s-28.333 33.666 -36 54.999s-11.5 44.666 -11.5 69.999h108c0 -32 6.83301 -55.833 20.5 -71.5s37.834 -23.5 72.501 -23.5s59 7.83301 73 23.5s21 39.5 21 71.5h108
c0 -26 -3.83301 -49.5 -11.5 -70.5s-19.834 -39.167 -36.501 -54.5s-37.667 -27.166 -63 -35.499s-55.666 -12.5 -90.999 -12.5zM372.997 -9.99805c-110.667 0 -194.332 31.667 -250.999 95s-85 158 -85 284c0 126.667 28.167 221.834 84.5 285.501
s140.166 95.5 251.499 95.5s195.333 -31.833 252 -95.5s85 -158.834 85 -285.501c0 -126 -28.333 -220.667 -85 -284s-140.667 -95 -252 -95zM372.999 122.002c31.333 0 57.834 4.33496 79.501 13.002s39.334 22.667 53.001 42s23.5 44.666 29.5 75.999s9 70 9 116
c0 45.333 -3.16699 83.833 -9.5 115.5s-16.333 57.5 -30 77.5s-31.334 34.5 -53.001 43.5s-47.834 13.5 -78.501 13.5s-56.667 -4.5 -78 -13.5s-38.833 -23.333 -52.5 -43s-23.667 -45.334 -30 -77.001s-9.5 -70.5 -9.5 -116.5c0 -45.333 3.16699 -83.833 9.5 -115.5
s16.166 -57.167 29.499 -76.5s30.833 -33.333 52.5 -42s47.834 -13 78.501 -13z" />
    <glyph glyph-name="obreve" unicode="&#x14f;" horiz-adv-x="606" 
d="M303 -10c-88 0 -155 23.833 -201 71.5s-69 117.167 -69 208.5s23 160.833 69 208.5s113 71.5 201 71.5s154.833 -23.833 200.5 -71.5s68.5 -117.167 68.5 -208.5s-22.833 -160.833 -68.5 -208.5s-112.5 -71.5 -200.5 -71.5zM303 111c20 0 37 2.66699 51 8
s25.333 14.166 34 26.499s15 28.666 19 48.999s6 45.5 6 75.5s-2 55.167 -6 75.5s-10.333 36.666 -19 48.999s-20 21 -34 26s-31 7.5 -51 7.5s-37 -2.5 -51 -7.5s-25.333 -13.667 -34 -26s-15 -28.666 -19 -48.999s-6 -45.5 -6 -75.5s2 -55.167 6 -75.5
s10.333 -36.666 19 -48.999s20 -21.166 34 -26.499s31 -8 51 -8zM302 614c-70 0 -120.666 15 -151.999 45s-47.666 70.667 -48.999 122h107c0.666992 -29.333 8.16699 -51.166 22.5 -65.499s38.166 -21.5 71.499 -21.5s57.166 7.16699 71.499 21.5
s21.833 36.166 22.5 65.499h108c-1.33301 -51.333 -17.833 -92 -49.5 -122s-82.5 -45 -152.5 -45z" />
    <glyph glyph-name="Ohungarumlaut" unicode="&#x150;" horiz-adv-x="747" 
d="M373 -10c-110.667 0 -194.332 31.667 -250.999 95s-85 158 -85 284c0 126.667 28.167 221.834 84.5 285.501s140.166 95.5 251.499 95.5s195.333 -31.833 252 -95.5s85 -158.834 85 -285.501c0 -126 -28.333 -220.667 -85 -284s-140.667 -95 -252 -95zM373.002 122
c31.333 0 57.834 4.33496 79.501 13.002s39.334 22.667 53.001 42s23.5 44.666 29.5 75.999s9 70 9 116c0 45.333 -3.16699 83.833 -9.5 115.5s-16.333 57.5 -30 77.5s-31.334 34.5 -53.001 43.5s-47.834 13.5 -78.501 13.5s-56.667 -4.5 -78 -13.5
s-38.833 -23.333 -52.5 -43s-23.667 -45.334 -30 -77.001s-9.5 -70.5 -9.5 -116.5c0 -45.333 3.16699 -83.833 9.5 -115.5s16.166 -57.167 29.499 -76.5s30.833 -33.333 52.5 -42s47.834 -13 78.501 -13zM208.003 807.002l67 167h149l-116 -178zM404.003 807.002l68 167h148
l-115 -178z" />
    <glyph glyph-name="ohungarumlaut" unicode="&#x151;" horiz-adv-x="606" 
d="M143 620l66 187h150l-117 -197zM348 620l66 187h150l-116 -197zM303 -10c-88 0 -155 23.833 -201 71.5s-69 117.167 -69 208.5s23 160.833 69 208.5s113 71.5 201 71.5s154.833 -23.833 200.5 -71.5s68.5 -117.167 68.5 -208.5s-22.833 -160.833 -68.5 -208.5
s-112.5 -71.5 -200.5 -71.5zM303 111c20 0 37 2.66699 51 8s25.333 14.166 34 26.499s15 28.666 19 48.999s6 45.5 6 75.5s-2 55.167 -6 75.5s-10.333 36.666 -19 48.999s-20 21 -34 26s-31 7.5 -51 7.5s-37 -2.5 -51 -7.5s-25.333 -13.667 -34 -26s-15 -28.666 -19 -48.999
s-6 -45.5 -6 -75.5s2 -55.167 6 -75.5s10.333 -36.666 19 -48.999s20 -21.166 34 -26.499s31 -8 51 -8z" />
    <glyph glyph-name="OE" unicode="&#x152;" horiz-adv-x="1026" 
d="M380 -9c-111.333 0 -196.5 31.6689 -255.5 95.002s-88.5 157.666 -88.5 282.999c0 126 29.5 220.833 88.5 284.5s144.167 95.5 255.5 95.5c21.333 0 41.333 -0.833008 60 -2.5s36.667 -3.83398 54 -6.50098h484v-130h-322v-172h297v-126h-297v-182h331v-130h-493
c-35.333 -6 -73.333 -9 -114 -9zM389 124.002c19.333 0 37.832 0.330078 55.499 0.99707s34.167 2.66699 49.5 6v477c-16 3.33301 -32.667 5.5 -50 6.5s-35.666 1.5 -54.999 1.5c-34.667 0 -63.834 -4.33301 -87.501 -13s-43 -22.834 -58 -42.501
s-25.833 -45.167 -32.5 -76.5s-10 -69.666 -10 -114.999s3.33301 -83.666 10 -114.999s17.334 -56.666 32.001 -75.999s34 -33.166 58 -41.499s53.333 -12.5 88 -12.5z" />
    <glyph glyph-name="oe" unicode="&#x153;" horiz-adv-x="936" 
d="M679 -9c-84.667 0 -146.001 25.999 -184.001 77.999h-8c-38.667 -52.667 -100 -79 -184 -79c-88 0 -155 23.833 -201 71.5s-69 117.167 -69 208.5s23 160.833 69 208.5s113 71.5 201 71.5c42 0 78.5 -7 109.5 -21s56.167 -34 75.5 -60h8c38.667 53.333 99.667 80 183 80
c148.667 0 223 -81.333 223 -244c0 -17.333 -0.5 -32.166 -1.5 -44.499s-3.16699 -24.166 -6.5 -35.499h-322c2.66699 -42.667 13.167 -72.334 31.5 -89.001s47.5 -25 87.5 -25c26.667 0 56.834 2.33301 90.501 7s65.5 11 95.5 19l5 -115
c-29.333 -9.33301 -62 -16.833 -98 -22.5s-71 -8.5 -105 -8.5zM302.999 110.999c20 0 37 2.66699 51 8s25.333 14.166 34 26.499s15 28.666 19 48.999s6 45.5 6 75.5s-2 55.167 -6 75.5s-10.333 36.666 -19 48.999s-20 21 -34 26s-31 7.5 -51 7.5s-37 -2.5 -51 -7.5
s-25.333 -13.667 -34 -26s-15 -28.666 -19 -48.999s-6 -45.5 -6 -75.5s2 -55.167 6 -75.5s10.333 -36.666 19 -48.999s20 -21.166 34 -26.499s31 -8 51 -8zM760.999 310.999c-1.33301 45.333 -8.66699 77.5 -22 96.5s-35.333 28.5 -66 28.5
c-32.667 0 -57 -9.83301 -73 -29.5s-25.667 -51.5 -29 -95.5h190z" />
    <glyph glyph-name="Racute" unicode="&#x154;" horiz-adv-x="673" 
d="M352 251c-10 -1.33301 -20.166 -1.99902 -30.499 -1.99902h-32.5h-11.5c-5 0 -10.5 0.166992 -16.5 0.5l-17.5 1c-5.66699 0.333008 -10.167 0.5 -13.5 0.5v-251h-162v735c70 10 139.333 15 208 15c62.667 0 116.667 -4.83301 162 -14.5s82.666 -24.667 111.999 -45
s50.833 -46.5 64.5 -78.5s20.5 -70 20.5 -114c0 -108.667 -47 -181.334 -141 -218.001l169 -280h-178zM306.001 374.001c30.667 0 56.333 2.16406 77 6.49707s37.334 11.333 50.001 21s21.834 22.334 27.501 38.001s8.5 35.167 8.5 58.5c0 22.667 -2.66699 41.834 -8 57.501
s-14.333 28.334 -27 38.001s-29.334 16.667 -50.001 21s-46 6.5 -76 6.5c-11.333 0 -24.333 -0.5 -39 -1.5s-27.667 -2.16699 -39 -3.5v-236c8.66699 -2 19.667 -3.5 33 -4.5s27.666 -1.5 42.999 -1.5zM270 805.998l67 169h163l-115 -178z" />
    <glyph glyph-name="racute" unicode="&#x155;" horiz-adv-x="422" 
d="M170 618l66 187h163l-116 -196zM58 540l133 -0.00195312l9 -79h6c10 8 21.333 16.5 34 25.5s26.167 17.5 40.5 25.5s29 15.333 44 22s29.167 11.667 42.5 15h44v-138h-58c-25.333 -3.33301 -50.5 -9.66602 -75.5 -18.999s-45.167 -19.666 -60.5 -30.999v-361h-159v540z
" />
    <glyph glyph-name="Rcommaaccent" unicode="&#x156;" horiz-adv-x="673" 
d="M271 -69h163l-86 -151h-121zM352 251c-10 -1.33301 -20.166 -1.99902 -30.499 -1.99902h-32.5h-11.5c-5 0 -10.5 0.166992 -16.5 0.5l-17.5 1c-5.66699 0.333008 -10.167 0.5 -13.5 0.5v-251h-162v735c70 10 139.333 15 208 15c62.667 0 116.667 -4.83301 162 -14.5
s82.666 -24.667 111.999 -45s50.833 -46.5 64.5 -78.5s20.5 -70 20.5 -114c0 -108.667 -47 -181.334 -141 -218.001l169 -280h-178zM306.001 374.001c30.667 0 56.333 2.16406 77 6.49707s37.334 11.333 50.001 21s21.834 22.334 27.501 38.001s8.5 35.167 8.5 58.5
c0 22.667 -2.66699 41.834 -8 57.501s-14.333 28.334 -27 38.001s-29.334 16.667 -50.001 21s-46 6.5 -76 6.5c-11.333 0 -24.333 -0.5 -39 -1.5s-27.667 -2.16699 -39 -3.5v-236c8.66699 -2 19.667 -3.5 33 -4.5s27.666 -1.5 42.999 -1.5z" />
    <glyph glyph-name="rcommaaccent" unicode="&#x157;" horiz-adv-x="422" 
d="M59 -69h163l-86 -151h-121zM58 540l133 -0.00195312l9 -79h6c10 8 21.333 16.5 34 25.5s26.167 17.5 40.5 25.5s29 15.333 44 22s29.167 11.667 42.5 15h44v-138h-58c-25.333 -3.33301 -50.5 -9.66602 -75.5 -18.999s-45.167 -19.666 -60.5 -30.999v-361h-159v540z" />
    <glyph glyph-name="Rcaron" unicode="&#x158;" horiz-adv-x="673" 
d="M156 980l184 -75l183 75v-109l-184 -75l-183 75v109zM352 251c-10 -1.33301 -20.166 -1.99902 -30.499 -1.99902h-32.5h-11.5c-5 0 -10.5 0.166992 -16.5 0.5l-17.5 1c-5.66699 0.333008 -10.167 0.5 -13.5 0.5v-251h-162v735c70 10 139.333 15 208 15
c62.667 0 116.667 -4.83301 162 -14.5s82.666 -24.667 111.999 -45s50.833 -46.5 64.5 -78.5s20.5 -70 20.5 -114c0 -108.667 -47 -181.334 -141 -218.001l169 -280h-178zM306.001 374.001c30.667 0 56.333 2.16406 77 6.49707s37.334 11.333 50.001 21
s21.834 22.334 27.501 38.001s8.5 35.167 8.5 58.5c0 22.667 -2.66699 41.834 -8 57.501s-14.333 28.334 -27 38.001s-29.334 16.667 -50.001 21s-46 6.5 -76 6.5c-11.333 0 -24.333 -0.5 -39 -1.5s-27.667 -2.16699 -39 -3.5v-236c8.66699 -2 19.667 -3.5 33 -4.5
s27.666 -1.5 42.999 -1.5z" />
    <glyph glyph-name="rcaron" unicode="&#x159;" horiz-adv-x="422" 
d="M48 796l184 -75l183 75v-109l-184 -75l-183 75v109zM58 540l133 -0.00195312l9 -79h6c10 8 21.333 16.5 34 25.5s26.167 17.5 40.5 25.5s29 15.333 44 22s29.167 11.667 42.5 15h44v-138h-58c-25.333 -3.33301 -50.5 -9.66602 -75.5 -18.999
s-45.167 -19.666 -60.5 -30.999v-361h-159v540z" />
    <glyph glyph-name="Sacute" unicode="&#x15a;" horiz-adv-x="590" 
d="M285 -12c-36.667 0 -77.334 2.83398 -122.001 8.50098s-87.334 14.167 -128.001 25.5v133c40 -11.333 80.333 -20.166 121 -26.499s77.334 -9.5 110.001 -9.5c87.333 0 131 28 131 84c0 30 -12.167 52 -36.5 66s-57.166 25.667 -98.499 35
c-34.667 8 -65.667 17.833 -93 29.5s-50.333 26.5 -69 44.5s-32.834 39.833 -42.501 65.5s-14.5 56.5 -14.5 92.5c0 33.333 6.33301 63.333 19 90s30.834 49.167 54.501 67.5s52.5 32.5 86.5 42.5s72.333 15 115 15c30.667 0 62 -2 94 -6s70 -11 114 -21v-131
c-31.333 9.33301 -64.5 16.5 -99.5 21.5s-65.833 7.5 -92.5 7.5c-40 0 -70.5 -7.16699 -91.5 -21.5s-31.5 -35.166 -31.5 -62.499c0 -14.667 2.83301 -27.167 8.5 -37.5s14.334 -19.666 26.001 -27.999s26.5 -15.666 44.5 -21.999s39 -12.833 63 -19.5
c32.667 -8.66699 62 -18.834 88 -30.501s48.167 -25.834 66.5 -42.501s32.333 -36.834 42 -60.501s14.5 -51.834 14.5 -84.501c0 -72.667 -23.833 -128.334 -71.5 -167.001s-116.834 -58 -207.501 -58zM232 806.001l67 169h163l-115 -178z" />
    <glyph glyph-name="sacute" unicode="&#x15b;" horiz-adv-x="494" 
d="M184 618l66 187h163l-116 -196zM233 -11c-28 0 -58.832 2.16406 -92.499 6.49707s-67.834 10.5 -102.501 18.5v113c33.333 -8 65.833 -14.5 97.5 -19.5s62.167 -7.5 91.5 -7.5c56.667 0 85 17.333 85 52c0 17.333 -6.83301 30.333 -20.5 39s-34.834 15 -63.501 19
c-19.333 2.66699 -40 6.16699 -62 10.5s-42.333 12 -61 23s-34 27.167 -46 48.5s-18 50.333 -18 87c0 54 18.833 96.167 56.5 126.5s90.834 45.5 159.501 45.5c26 0 53.333 -1.5 82 -4.5s62.667 -8.16699 102 -15.5l-4 -118c-35.333 8 -65.833 13.833 -91.5 17.5
s-48.167 5.5 -67.5 5.5c-58 0 -87 -17.333 -87 -52c0 -19.333 7.83301 -32.666 23.5 -39.999s39.5 -13.333 71.5 -18c24.667 -3.33301 47.834 -8.33301 69.501 -15s40.5 -16.167 56.5 -28.5s28.667 -28.166 38 -47.499s14 -43.666 14 -72.999
c0 -56 -19.833 -98.833 -59.5 -128.5s-96.834 -44.5 -171.501 -44.5z" />
    <glyph glyph-name="Scircumflex" unicode="&#x15c;" horiz-adv-x="590" 
d="M285 -12c-36.667 0 -77.334 2.83398 -122.001 8.50098s-87.334 14.167 -128.001 25.5v133c40 -11.333 80.333 -20.166 121 -26.499s77.334 -9.5 110.001 -9.5c87.333 0 131 28 131 84c0 30 -12.167 52 -36.5 66s-57.166 25.667 -98.499 35
c-34.667 8 -65.667 17.833 -93 29.5s-50.333 26.5 -69 44.5s-32.834 39.833 -42.501 65.5s-14.5 56.5 -14.5 92.5c0 33.333 6.33301 63.333 19 90s30.834 49.167 54.501 67.5s52.5 32.5 86.5 42.5s72.333 15 115 15c30.667 0 62 -2 94 -6s70 -11 114 -21v-131
c-31.333 9.33301 -64.5 16.5 -99.5 21.5s-65.833 7.5 -92.5 7.5c-40 0 -70.5 -7.16699 -91.5 -21.5s-31.5 -35.166 -31.5 -62.499c0 -14.667 2.83301 -27.167 8.5 -37.5s14.334 -19.666 26.001 -27.999s26.5 -15.666 44.5 -21.999s39 -12.833 63 -19.5
c32.667 -8.66699 62 -18.834 88 -30.501s48.167 -25.834 66.5 -42.501s32.333 -36.834 42 -60.501s14.5 -51.834 14.5 -84.501c0 -72.667 -23.833 -128.334 -71.5 -167.001s-116.834 -58 -207.501 -58zM118 908.001l183 75l185 -75v-109l-184 75l-184 -75v109z" />
    <glyph glyph-name="scircumflex" unicode="&#x15d;" horiz-adv-x="494" 
d="M70 722l182 75l185 -75v-108l-184 74l-183 -74v108zM233 -11c-28 0 -58.832 2.16406 -92.499 6.49707s-67.834 10.5 -102.501 18.5v113c33.333 -8 65.833 -14.5 97.5 -19.5s62.167 -7.5 91.5 -7.5c56.667 0 85 17.333 85 52c0 17.333 -6.83301 30.333 -20.5 39
s-34.834 15 -63.501 19c-19.333 2.66699 -40 6.16699 -62 10.5s-42.333 12 -61 23s-34 27.167 -46 48.5s-18 50.333 -18 87c0 54 18.833 96.167 56.5 126.5s90.834 45.5 159.501 45.5c26 0 53.333 -1.5 82 -4.5s62.667 -8.16699 102 -15.5l-4 -118
c-35.333 8 -65.833 13.833 -91.5 17.5s-48.167 5.5 -67.5 5.5c-58 0 -87 -17.333 -87 -52c0 -19.333 7.83301 -32.666 23.5 -39.999s39.5 -13.333 71.5 -18c24.667 -3.33301 47.834 -8.33301 69.501 -15s40.5 -16.167 56.5 -28.5s28.667 -28.166 38 -47.499
s14 -43.666 14 -72.999c0 -56 -19.833 -98.833 -59.5 -128.5s-96.834 -44.5 -171.501 -44.5z" />
    <glyph glyph-name="uni015E" unicode="&#x15e;" horiz-adv-x="590" 
d="M276 -220c-13.333 0 -28.3359 1.16797 -45.0029 3.50098s-33.667 5.16602 -51 8.49902v94c12 -3.33301 24.667 -5.83301 38 -7.5s24.666 -2.5 33.999 -2.5c16 0 27.333 3 34 9s10 14.667 10 26c0 19.333 -10 45 -30 77c-35.333 1.33301 -73.333 4.83301 -114 10.5
s-79.667 13.5 -117 23.5v133c40 -11.333 80.333 -20.166 121 -26.499s77.334 -9.5 110.001 -9.5c87.333 0 131 28 131 84c0 30 -12.167 52 -36.5 66s-57.166 25.667 -98.499 35c-34.667 8 -65.667 17.833 -93 29.5s-50.333 26.5 -69 44.5s-32.834 39.833 -42.501 65.5
s-14.5 56.5 -14.5 92.5c0 33.333 6.33301 63.333 19 90s30.834 49.167 54.501 67.5s52.5 32.5 86.5 42.5s72.333 15 115 15c30.667 0 62 -2 94 -6s70 -11 114 -21v-131c-31.333 9.33301 -64.5 16.5 -99.5 21.5s-65.833 7.5 -92.5 7.5c-40 0 -70.5 -7.16699 -91.5 -21.5
s-31.5 -35.166 -31.5 -62.499c0 -14.667 2.83301 -27.167 8.5 -37.5s14.334 -19.666 26.001 -27.999s26.5 -15.666 44.5 -21.999s39 -12.833 63 -19.5c32.667 -8.66699 62 -18.834 88 -30.501s48.167 -25.834 66.5 -42.501s32.333 -36.834 42 -60.501
s14.5 -51.834 14.5 -84.501c0 -61.333 -17.167 -110.666 -51.5 -147.999s-84.5 -61 -150.5 -71c14.667 -20.667 24.834 -38.834 30.501 -54.501s8.5 -32.167 8.5 -49.5c0 -34.667 -10.833 -61.667 -32.5 -81s-52.5 -29 -92.5 -29z" />
    <glyph glyph-name="uni015F" unicode="&#x15f;" horiz-adv-x="494" 
d="M222 -220c-13.333 0 -28.333 1.16504 -45 3.49805s-33.667 5.16602 -51 8.49902v94c12 -3.33301 24.667 -5.83301 38 -7.5s24.666 -2.5 33.999 -2.5c16 0 27.333 3 34 9s10 14.667 10 26c0 20 -10.333 46.333 -31 79c-26 1.33301 -53.833 3.83301 -83.5 7.5
s-59.5 9.16699 -89.5 16.5v113c33.333 -8 65.833 -14.5 97.5 -19.5s62.167 -7.5 91.5 -7.5c56.667 0 85 17.333 85 52c0 17.333 -6.83301 30.333 -20.5 39s-34.834 15 -63.501 19c-19.333 2.66699 -40 6.16699 -62 10.5s-42.333 12 -61 23s-34 27.167 -46 48.5
s-18 50.333 -18 87c0 54 18.833 96.167 56.5 126.5s90.834 45.5 159.501 45.5c26 0 53.333 -1.5 82 -4.5s62.667 -8.16699 102 -15.5l-4 -118c-35.333 8 -65.833 13.833 -91.5 17.5s-48.167 5.5 -67.5 5.5c-58 0 -87 -17.333 -87 -52
c0 -19.333 7.83301 -32.666 23.5 -39.999s39.5 -13.333 71.5 -18c24.667 -3.33301 47.834 -8.33301 69.501 -15s40.5 -16.167 56.5 -28.5s28.667 -28.166 38 -47.499s14 -43.666 14 -72.999c0 -46 -13.333 -83 -40 -111s-65.667 -46.667 -117 -56
c15.333 -21.333 25.833 -39.833 31.5 -55.5s8.5 -32.167 8.5 -49.5c0 -34.667 -10.833 -61.667 -32.5 -81s-52.5 -29 -92.5 -29z" />
    <glyph glyph-name="Scaron" unicode="&#x160;" horiz-adv-x="590" 
d="M285 -12c-36.667 0 -77.334 2.83398 -122.001 8.50098s-87.334 14.167 -128.001 25.5v133c40 -11.333 80.333 -20.166 121 -26.499s77.334 -9.5 110.001 -9.5c87.333 0 131 28 131 84c0 30 -12.167 52 -36.5 66s-57.166 25.667 -98.499 35
c-34.667 8 -65.667 17.833 -93 29.5s-50.333 26.5 -69 44.5s-32.834 39.833 -42.501 65.5s-14.5 56.5 -14.5 92.5c0 33.333 6.33301 63.333 19 90s30.834 49.167 54.501 67.5s52.5 32.5 86.5 42.5s72.333 15 115 15c30.667 0 62 -2 94 -6s70 -11 114 -21v-131
c-31.333 9.33301 -64.5 16.5 -99.5 21.5s-65.833 7.5 -92.5 7.5c-40 0 -70.5 -7.16699 -91.5 -21.5s-31.5 -35.166 -31.5 -62.499c0 -14.667 2.83301 -27.167 8.5 -37.5s14.334 -19.666 26.001 -27.999s26.5 -15.666 44.5 -21.999s39 -12.833 63 -19.5
c32.667 -8.66699 62 -18.834 88 -30.501s48.167 -25.834 66.5 -42.501s32.333 -36.834 42 -60.501s14.5 -51.834 14.5 -84.501c0 -72.667 -23.833 -128.334 -71.5 -167.001s-116.834 -58 -207.501 -58zM120 980.001l184 -75l183 75v-109l-184 -75l-183 75v109z" />
    <glyph glyph-name="scaron" unicode="&#x161;" horiz-adv-x="494" 
d="M66 796l184 -75l183 75v-109l-184 -75l-183 75v109zM233 -11c-28 0 -58.832 2.16406 -92.499 6.49707s-67.834 10.5 -102.501 18.5v113c33.333 -8 65.833 -14.5 97.5 -19.5s62.167 -7.5 91.5 -7.5c56.667 0 85 17.333 85 52c0 17.333 -6.83301 30.333 -20.5 39
s-34.834 15 -63.501 19c-19.333 2.66699 -40 6.16699 -62 10.5s-42.333 12 -61 23s-34 27.167 -46 48.5s-18 50.333 -18 87c0 54 18.833 96.167 56.5 126.5s90.834 45.5 159.501 45.5c26 0 53.333 -1.5 82 -4.5s62.667 -8.16699 102 -15.5l-4 -118
c-35.333 8 -65.833 13.833 -91.5 17.5s-48.167 5.5 -67.5 5.5c-58 0 -87 -17.333 -87 -52c0 -19.333 7.83301 -32.666 23.5 -39.999s39.5 -13.333 71.5 -18c24.667 -3.33301 47.834 -8.33301 69.501 -15s40.5 -16.167 56.5 -28.5s28.667 -28.166 38 -47.499
s14 -43.666 14 -72.999c0 -56 -19.833 -98.833 -59.5 -128.5s-96.834 -44.5 -171.501 -44.5z" />
    <glyph glyph-name="uni0162" unicode="&#x162;" horiz-adv-x="601" 
d="M219 609l-200.999 0.000976562v131h566v-131h-202v-609h-26c16.667 -22.667 28.167 -42.167 34.5 -58.5s9.5 -33.5 9.5 -51.5c0 -34.667 -10.833 -61.667 -32.5 -81s-52.5 -29 -92.5 -29c-13.333 0 -28.333 1.16699 -45 3.5s-33.667 5.16602 -51 8.49902v94
c12 -3.33301 24.667 -5.83301 38 -7.5s24.666 -2.5 33.999 -2.5c16 0 27.333 3 34 9s10 14.667 10 26c0 22 -12.667 51.667 -38 89h-38v609z" />
    <glyph glyph-name="uni0163" unicode="&#x163;" horiz-adv-x="419" 
d="M202 -220c-13.333 0 -28.3311 1.16504 -44.998 3.49805s-33.667 5.16602 -51 8.49902v94c12 -3.33301 24.667 -5.83301 38 -7.5s24.666 -2.5 33.999 -2.5c16 0 27.333 3 34 9s10 14.667 10 26c0 26.667 -17.333 62.334 -52 107.001c-42.667 27.333 -64 73 -64 137v251
h-91v134h101l23 154l125 15v-169h129v-134h-128v-214c0 -30 5.66699 -51.167 17 -63.5s29.333 -18.5 54 -18.5c17.333 0 37 3.66699 59 11v-118c-14 -3.33301 -30.167 -6.16602 -48.5 -8.49902s-36.833 -3.83301 -55.5 -4.5c13.333 -19.333 22.666 -36.666 27.999 -51.999
s8 -31.333 8 -48c0 -34.667 -10.833 -61.667 -32.5 -81s-52.5 -29 -92.5 -29z" />
    <glyph glyph-name="Tcaron" unicode="&#x164;" horiz-adv-x="601" 
d="M119 980l184 -75l183 75v-109l-184 -75l-183 75v109zM219 609h-201v131h566v-131h-202v-609h-163v609z" />
    <glyph glyph-name="tcaron" unicode="&#x165;" horiz-adv-x="415" 
d="M287 -10c-59.333 0 -104.333 14 -135 42s-46 69 -46 123v251h-91v134h101l23 154l125 15v-169h109v-134h-108v-214c0 -30 5.66699 -51.167 17 -63.5s29.333 -18.5 54 -18.5c17.333 0 37 3.66699 59 11v-118c-14.667 -4 -31.5 -7.16699 -50.5 -9.5
s-38.167 -3.5 -57.5 -3.5zM329 808h126l-41 -228h-85v228z" />
    <glyph glyph-name="Tbar" unicode="&#x166;" horiz-adv-x="610" 
d="M92 418h131v191h-201v131h566v-131h-202v-191h134v-91h-134v-327h-163v327h-131v91z" />
    <glyph glyph-name="tbar" unicode="&#x167;" horiz-adv-x="424" 
d="M24 325h86v81h-91v134h101l23 154l125 15v-169h129v-134h-128v-81h104v-92h-104v-41c0 -30 5.66699 -51.167 17 -63.5s29.333 -18.5 54 -18.5c17.333 0 37 3.66699 59 11v-118c-14.667 -4 -31.5 -7.16699 -50.5 -9.5s-38.167 -3.5 -57.5 -3.5
c-59.333 0 -104.333 14 -135 42s-46 69 -46 123v78h-86v92z" />
    <glyph glyph-name="Utilde" unicode="&#x168;" horiz-adv-x="751" 
d="M161 851c20.667 38 44.1699 66.332 70.5029 84.999s52.166 28 77.499 28c15.333 0 30.5 -2 45.5 -6s29.667 -8.5 44 -13.5s28.833 -9.5 43.5 -13.5s29.667 -6 45 -6c14 0 27.833 2.83301 41.5 8.5s28.834 15.5 45.501 29.5l23 -27c-20 -38 -43.333 -66.667 -70 -86
s-52.667 -29 -78 -29c-15.333 0 -30.333 2 -45 6s-29.334 8.33301 -44.001 13s-29.334 9 -44.001 13s-29.334 6 -44.001 6s-29 -2.66699 -43 -8s-29 -14.666 -45 -27.999zM376.003 -10.001c-58 0 -107 6.16602 -147 18.499s-72.5 31.333 -97.5 57s-43 57.834 -54 96.501
s-16.5 84 -16.5 136v443h163v-442c0 -61.333 12 -106 36 -134s62.667 -42 116 -42s92 13.833 116 41.5s36 72.5 36 134.5v442h162v-443c0 -52.667 -5.5 -98.334 -16.5 -137.001s-28.833 -70.667 -53.5 -96s-57 -44.166 -97 -56.499s-89 -18.5 -147 -18.5z" />
    <glyph glyph-name="utilde" unicode="&#x169;" horiz-adv-x="613" 
d="M202 -10c-47.333 0 -83.833 13.001 -109.5 39.001s-38.5 62.333 -38.5 109v402h159v-353c0 -25.333 4.5 -43.5 13.5 -54.5s24.167 -16.5 45.5 -16.5c18 0 37.667 3.5 59 10.5s43.333 16.167 66 27.5v386h159v-540h-134l-9 60h-4c-23.333 -13.333 -43.5 -24.333 -60.5 -33
s-33.333 -15.834 -49 -21.501s-31.167 -9.66699 -46.5 -12s-32.333 -3.5 -51 -3.5zM95 664.001c20.667 36 44 63.167 70 81.5s51.667 27.5 77 27.5c16 0 31.333 -2.33301 46 -7s29.167 -10 43.5 -16s28.833 -11.333 43.5 -16s29.667 -7 45 -7c14 0 27.5 2.83301 40.5 8.5
s27.167 15.834 42.5 30.501l28 -34c-20.667 -37.333 -44.167 -65 -70.5 -83s-52.166 -27 -77.499 -27c-15.333 0 -30.333 2.33301 -45 7s-29.334 10 -44.001 16s-29.5 11.333 -44.5 16s-29.833 7 -44.5 7c-14 0 -27.5 -2.83301 -40.5 -8.5s-27.167 -15.834 -42.5 -30.501z
" />
    <glyph glyph-name="Umacron" unicode="&#x16a;" horiz-adv-x="751" 
d="M189 947h361v-107h-361v107zM376 -10c-58 0 -107 6.16602 -147 18.499s-72.5 31.333 -97.5 57s-43 57.834 -54 96.501s-16.5 84 -16.5 136v443h163v-442c0 -61.333 12 -106 36 -134s62.667 -42 116 -42s92 13.833 116 41.5s36 72.5 36 134.5v442h162v-443
c0 -52.667 -5.5 -98.334 -16.5 -137.001s-28.833 -70.667 -53.5 -96s-57 -44.166 -97 -56.499s-89 -18.5 -147 -18.5z" />
    <glyph glyph-name="umacron" unicode="&#x16b;" horiz-adv-x="613" 
d="M202 -10c-47.333 0 -83.833 13.001 -109.5 39.001s-38.5 62.333 -38.5 109v402h159v-353c0 -25.333 4.5 -43.5 13.5 -54.5s24.167 -16.5 45.5 -16.5c18 0 37.667 3.5 59 10.5s43.333 16.167 66 27.5v386h159v-540h-134l-9 60h-4c-23.333 -13.333 -43.5 -24.333 -60.5 -33
s-33.333 -15.834 -49 -21.501s-31.167 -9.66699 -46.5 -12s-32.333 -3.5 -51 -3.5zM122 739.001h363v-102h-363v102z" />
    <glyph glyph-name="Ubreve" unicode="&#x16c;" horiz-adv-x="751" 
d="M372 805c-35.333 0 -65.6689 4.16895 -91.002 12.502s-46.166 20.166 -62.499 35.499s-28.333 33.666 -36 54.999s-11.5 44.666 -11.5 69.999h108c0 -32 6.83301 -55.833 20.5 -71.5s37.834 -23.5 72.501 -23.5s59 7.83301 73 23.5s21 39.5 21 71.5h108
c0 -26 -3.83301 -49.5 -11.5 -70.5s-19.834 -39.167 -36.501 -54.5s-37.667 -27.166 -63 -35.499s-55.666 -12.5 -90.999 -12.5zM375.997 -9.99805c-58 0 -107 6.16602 -147 18.499s-72.5 31.333 -97.5 57s-43 57.834 -54 96.501s-16.5 84 -16.5 136v443h163v-442
c0 -61.333 12 -106 36 -134s62.667 -42 116 -42s92 13.833 116 41.5s36 72.5 36 134.5v442h162v-443c0 -52.667 -5.5 -98.334 -16.5 -137.001s-28.833 -70.667 -53.5 -96s-57 -44.166 -97 -56.499s-89 -18.5 -147 -18.5z" />
    <glyph glyph-name="ubreve" unicode="&#x16d;" horiz-adv-x="613" 
d="M202 -10c-47.333 0 -83.833 13.001 -109.5 39.001s-38.5 62.333 -38.5 109v402h159v-353c0 -25.333 4.5 -43.5 13.5 -54.5s24.167 -16.5 45.5 -16.5c18 0 37.667 3.5 59 10.5s43.333 16.167 66 27.5v386h159v-540h-134l-9 60h-4c-23.333 -13.333 -43.5 -24.333 -60.5 -33
s-33.333 -15.834 -49 -21.501s-31.167 -9.66699 -46.5 -12s-32.333 -3.5 -51 -3.5zM301 614.001c-70 0 -120.666 15 -151.999 45s-47.666 70.667 -48.999 122h107c0.666992 -29.333 8.16699 -51.166 22.5 -65.499s38.166 -21.5 71.499 -21.5s57.166 7.16699 71.499 21.5
s21.833 36.166 22.5 65.499h108c-1.33301 -51.333 -17.833 -92 -49.5 -122s-82.5 -45 -152.5 -45z" />
    <glyph glyph-name="Uring" unicode="&#x16e;" horiz-adv-x="751" 
d="M376 -10c-58 0 -107 6.16602 -147 18.499s-72.5 31.333 -97.5 57s-43 57.834 -54 96.501s-16.5 84 -16.5 136v443h163v-442c0 -61.333 12 -106 36 -134s62.667 -42 116 -42s92 13.833 116 41.5s36 72.5 36 134.5v442h162v-443c0 -52.667 -5.5 -98.334 -16.5 -137.001
s-28.833 -70.667 -53.5 -96s-57 -44.166 -97 -56.499s-89 -18.5 -147 -18.5zM371 779.999c-37.333 0 -67.833 10.5 -91.5 31.5s-35.5 47.833 -35.5 80.5c0 33.333 11.833 60.666 35.5 81.999s54.167 32 91.5 32c36.667 0 66.834 -10.667 90.501 -32
s35.5 -48.666 35.5 -81.999c0 -32.667 -11.833 -59.5 -35.5 -80.5s-53.834 -31.5 -90.501 -31.5zM371 836.999c22 0 37.667 4.5 47 13.5s14 22.833 14 41.5c0 19.333 -4.66699 33.666 -14 42.999s-25 14 -47 14c-22.667 0 -38.667 -4.66699 -48 -14s-14 -23.666 -14 -42.999
c0 -18.667 4.66699 -32.5 14 -41.5s25.333 -13.5 48 -13.5z" />
    <glyph glyph-name="uring" unicode="&#x16f;" horiz-adv-x="613" 
d="M307 592c-38 0 -69 10.5 -93 31.5s-36 48.167 -36 81.5s12 60.5 36 81.5s55 31.5 93 31.5s68.833 -10.5 92.5 -31.5s35.5 -48.167 35.5 -81.5s-11.833 -60.5 -35.5 -81.5s-54.5 -31.5 -92.5 -31.5zM307 650c39.333 0 59 18.333 59 55s-19.667 55 -59 55
c-40 0 -60 -18.333 -60 -55s20 -55 60 -55zM202 -10c-47.333 0 -83.833 13.001 -109.5 39.001s-38.5 62.333 -38.5 109v402h159v-353c0 -25.333 4.5 -43.5 13.5 -54.5s24.167 -16.5 45.5 -16.5c18 0 37.667 3.5 59 10.5s43.333 16.167 66 27.5v386h159v-540h-134l-9 60h-4
c-23.333 -13.333 -43.5 -24.333 -60.5 -33s-33.333 -15.834 -49 -21.501s-31.167 -9.66699 -46.5 -12s-32.333 -3.5 -51 -3.5z" />
    <glyph glyph-name="Uhungarumlaut" unicode="&#x170;" horiz-adv-x="751" 
d="M376 -10c-58 0 -107 6.16602 -147 18.499s-72.5 31.333 -97.5 57s-43 57.834 -54 96.501s-16.5 84 -16.5 136v443h163v-442c0 -61.333 12 -106 36 -134s62.667 -42 116 -42s92 13.833 116 41.5s36 72.5 36 134.5v442h162v-443c0 -52.667 -5.5 -98.334 -16.5 -137.001
s-28.833 -70.667 -53.5 -96s-57 -44.166 -97 -56.499s-89 -18.5 -147 -18.5zM213 806.999l67 167h149l-116 -178zM409 806.999l68 167h148l-115 -178z" />
    <glyph glyph-name="uhungarumlaut" unicode="&#x171;" horiz-adv-x="613" 
d="M202 -10c-47.333 0 -83.833 13.001 -109.5 39.001s-38.5 62.333 -38.5 109v402h159v-353c0 -25.333 4.5 -43.5 13.5 -54.5s24.167 -16.5 45.5 -16.5c18 0 37.667 3.5 59 10.5s43.333 16.167 66 27.5v386h159v-540h-134l-9 60h-4c-23.333 -13.333 -43.5 -24.333 -60.5 -33
s-33.333 -15.834 -49 -21.501s-31.167 -9.66699 -46.5 -12s-32.333 -3.5 -51 -3.5zM141 620.001l66 187h150l-117 -197zM346 620.001l66 187h150l-116 -197z" />
    <glyph glyph-name="Uogonek" unicode="&#x172;" horiz-adv-x="751" 
d="M374 -215c-43.333 0 -76.3359 7.99707 -99.0029 23.9971s-34 39.333 -34 70c0 42 23 80 69 114c-45.333 4.66699 -83.833 14.334 -115.5 29.001s-57.334 34.667 -77.001 60s-34 55.833 -43 91.5s-13.5 77.167 -13.5 124.5v443h163v-442c0 -61.333 12 -106 36 -134
s62.667 -42 116 -42s92 13.833 116 41.5s36 72.5 36 134.5v442h162v-443c0 -46 -4.16699 -86.5 -12.5 -121.5s-21.666 -65 -39.999 -90s-42.166 -45.167 -71.499 -60.5s-65 -25.666 -107 -30.999c-42 -17.333 -71.5 -34.166 -88.5 -50.499s-25.5 -31.5 -25.5 -45.5
c0 -17.333 12 -26 36 -26c10 0 22.333 1.33301 37 4s28.334 6 41.001 10v-90c-27.333 -8 -55.666 -12 -84.999 -12z" />
    <glyph glyph-name="uogonek" unicode="&#x173;" horiz-adv-x="614" 
d="M203 -10c-47.333 0 -83.835 13 -109.502 39s-38.5 62.333 -38.5 109v402h159v-353c0 -25.333 4.5 -43.5 13.5 -54.5s24.167 -16.5 45.5 -16.5c18 0 37.667 3.5 59 10.5s43.333 16.167 66 27.5v386h159v-550c-42 -17.333 -71.5 -34.166 -88.5 -50.499
s-25.5 -31.5 -25.5 -45.5c0 -17.333 12 -26 36 -26c10 0 22.333 1.33301 37 4s28.334 6 41.001 10v-90c-27.333 -8 -55.666 -12 -84.999 -12c-43.333 0 -76.333 8 -99 24s-34 39.333 -34 70c0 46 28 88 84 126l-9 60h-4c-23.333 -13.333 -43.5 -24.333 -60.5 -33
s-33.333 -15.834 -49 -21.501s-31.167 -9.66699 -46.5 -12s-32.333 -3.5 -51 -3.5z" />
    <glyph glyph-name="Wcircumflex" unicode="&#x174;" horiz-adv-x="1031" 
d="M9 740h176l88 -447l20 -120h10l25 120l109 447h161l107 -447l24 -120h11l20 120l90 447h173l-181 -740h-206l-94 378l-21 153h-9l-22 -153l-95 -378h-207zM331 908l183 75l185 -75v-109l-184 75l-184 -75v109z" />
    <glyph glyph-name="wcircumflex" unicode="&#x175;" horiz-adv-x="810" 
d="M224 722l182 75l185 -75v-108l-184 74l-183 -74v108zM14 535v5h153l62 -317l11 -70h10l12 70l72 317h141l73 -317l13 -70h10l11 70l61 317h152v-5l-132 -535h-176l-68 292l-9 63h-10l-10 -63l-67 -292h-175z" />
    <glyph glyph-name="Ycircumflex" unicode="&#x176;" horiz-adv-x="683" 
d="M261 242l-268 498h179l139 -282l25 -67h10l26 67l139 282h177l-265 -494v-246h-162v242zM157 908l183 75l185 -75v-109l-184 75l-184 -75v109z" />
    <glyph glyph-name="ycircumflex" unicode="&#x177;" horiz-adv-x="590" 
d="M144 -195v11l71 189l-210 520v15h167l94 -287l24 -90h9l25 90l96 287h165v-15l-289 -745zM118 722l182 75l185 -75v-108l-184 74l-183 -74v108z" />
    <glyph glyph-name="Ydieresis" unicode="&#x178;" horiz-adv-x="683" 
d="M261 242l-268 498h179l139 -282l25 -67h10l26 67l139 282h177l-265 -494v-246h-162v242zM206 804c-31.333 0 -53.833 6.83203 -67.5 20.499s-20.5 35.834 -20.5 66.501c0 30 6.83301 51.833 20.5 65.5s36.167 20.5 67.5 20.5s54 -6.83301 68 -20.5s21 -35.5 21 -65.5
s-7 -52 -21 -66s-36.667 -21 -68 -21zM476 803.999c-31.333 0 -53.833 6.83203 -67.5 20.499s-20.5 35.834 -20.5 66.501c0 30 6.83301 51.833 20.5 65.5s36.167 20.5 67.5 20.5s54 -6.83301 68 -20.5s21 -35.5 21 -65.5s-7 -52 -21 -66s-36.667 -21 -68 -21z" />
    <glyph glyph-name="Zacute" unicode="&#x179;" horiz-adv-x="608" 
d="M29 128l343 473v8h-329v131h521v-126l-343 -475v-8h359v-131h-551v128zM250 806l67 169h163l-115 -178z" />
    <glyph glyph-name="zacute" unicode="&#x17a;" horiz-adv-x="514" 
d="M205 618l66 187h163l-116 -196zM33 104l246 308v8h-238v120h431v-103l-240 -308v-9h250v-120h-449v104z" />
    <glyph glyph-name="Zdotaccent" unicode="&#x17b;" horiz-adv-x="608" 
d="M306 801c-32 0 -54.833 6.83203 -68.5 20.499s-20.5 35.5 -20.5 65.5c0 30.667 6.83301 52.834 20.5 66.501s36.5 20.5 68.5 20.5c31.333 0 53.833 -7 67.5 -21s20.5 -36 20.5 -66s-6.83301 -51.833 -20.5 -65.5s-36.167 -20.5 -67.5 -20.5zM29 127.999l343 473v8h-329
v131h521v-126l-343 -475v-8h359v-131h-551v128z" />
    <glyph glyph-name="zdotaccent" unicode="&#x17c;" horiz-adv-x="514" 
d="M33 104l246 308v8h-238v120h431v-103l-240 -308v-9h250v-120h-449v104zM254 613c-31.333 0 -53.833 6.83301 -67.5 20.5s-20.5 35.5 -20.5 65.5s6.83301 51.833 20.5 65.5s36.167 20.5 67.5 20.5s54 -6.83301 68 -20.5s21 -35.5 21 -65.5s-7 -51.833 -21 -65.5
s-36.667 -20.5 -68 -20.5z" />
    <glyph glyph-name="Zcaron" unicode="&#x17d;" horiz-adv-x="608" 
d="M126 980l184 -75l183 75v-109l-184 -75l-183 75v109zM29 128l343 473v8h-329v131h521v-126l-343 -475v-8h359v-131h-551v128z" />
    <glyph glyph-name="zcaron" unicode="&#x17e;" horiz-adv-x="514" 
d="M78 796l184 -75l183 75v-109l-184 -75l-183 75v109zM33 104l246 308v8h-238v120h431v-103l-240 -308v-9h250v-120h-449v104z" />
    <glyph glyph-name="Schwa" unicode="&#x18f;" horiz-adv-x="696" 
d="M33 324c0 17.333 0.500977 33.833 1.50098 49.5s2.5 33.167 4.5 52.5h459c-2 36.667 -7 67 -15 91s-19.5 43.167 -34.5 57.5s-34.333 24.333 -58 30s-52.167 8.5 -85.5 8.5s-69.5 -2.5 -108.5 -7.5s-81.5 -13.5 -127.5 -25.5c0 0.666992 -0.333008 7.66699 -1 21
s-1.5 28 -2.5 44s-1.83301 30.833 -2.5 44.5l-1 20.5c18.667 6.66699 39 12.5 61 17.5s44.333 9.33301 67 13s45.167 6.5 67.5 8.5s43.166 3 62.499 3c112.667 0 197.334 -31.167 254.001 -93.5s85 -155.5 85 -279.5s-27.833 -219.833 -83.5 -287.5
s-138.834 -101.5 -249.501 -101.5c-95.333 0 -168 27 -218 81s-75 138.333 -75 253zM331.001 118c28.667 0 53 3.33203 73 9.99902s36.667 17.834 50 33.501s23.5 36 30.5 61s11.5 55.833 13.5 92.5h-310c0 -36 2.16699 -66.5 6.5 -91.5s11.833 -45.333 22.5 -61
s25.167 -27 43.5 -34s41.833 -10.5 70.5 -10.5z" />
    <glyph glyph-name="florin" unicode="&#x192;" horiz-adv-x="455" 
d="M131 407h-101.002v133h102v26c0 46 5.16699 84.667 15.5 116s27.333 56.666 51 75.999s54.834 33.333 93.501 42s86.334 13.667 143.001 15l9 -117c-29.333 -1.33301 -53.833 -4.16602 -73.5 -8.49902s-35.5 -11 -47.5 -20s-20.5 -21 -25.5 -36s-7.5 -33.5 -7.5 -55.5
v-38h132v-133h-132v-576l-159 -51v627z" />
    <glyph glyph-name="uni01C4" unicode="&#x1c4;" horiz-adv-x="1332" 
d="M849 980l184 -75l183 75v-109l-184 -75l-183 75v109zM753 128l343 473v8h-329v131h521v-126l-343 -475v-8h359v-131h-551v128zM267 -12c-34 0 -68.168 1.16699 -102.501 3.5s-66.5 5.5 -96.5 9.5v737c48 3.33301 90.667 6.16602 128 8.49902s70.333 3.5 99 3.5
c68.667 0 127.834 -7.33301 177.501 -22s90.334 -37.334 122.001 -68.001s55 -70.167 70 -118.5s22.5 -105.833 22.5 -172.5c0 -68 -7.83301 -126.167 -23.5 -174.5s-40.334 -87.666 -74.001 -117.999s-77 -52.666 -130 -66.999s-117.167 -21.5 -192.5 -21.5zM326.999 118
c35.333 0 65.335 4.33105 90.002 12.998s44.667 22.834 60 42.501s26.333 45.5 33 77.5s10 71.667 10 119c0 46.667 -3.5 85.834 -10.5 117.501s-18.333 57.167 -34 76.5s-36.334 33.333 -62.001 42s-56.834 13 -93.501 13c-14 0 -28.5 -0.333008 -43.5 -1
s-30.833 -2 -47.5 -4v-488c18 -2.66699 34.833 -4.66699 50.5 -6s31.5 -2 47.5 -2z" />
    <glyph glyph-name="uni01C5" unicode="&#x1c5;" horiz-adv-x="1238" 
d="M802 796l184 -75l183 75v-109l-184 -75l-183 75v109zM757 104l246 308v8h-238v120h431v-103l-240 -308v-9h250v-120h-449v104zM267 -12c-34 0 -68.168 1.16699 -102.501 3.5s-66.5 5.5 -96.5 9.5v737c48 3.33301 90.667 6.16602 128 8.49902s70.333 3.5 99 3.5
c68.667 0 127.834 -7.33301 177.501 -22s90.334 -37.334 122.001 -68.001s55 -70.167 70 -118.5s22.5 -105.833 22.5 -172.5c0 -68 -7.83301 -126.167 -23.5 -174.5s-40.334 -87.666 -74.001 -117.999s-77 -52.666 -130 -66.999s-117.167 -21.5 -192.5 -21.5zM326.999 118
c35.333 0 65.335 4.33105 90.002 12.998s44.667 22.834 60 42.501s26.333 45.5 33 77.5s10 71.667 10 119c0 46.667 -3.5 85.834 -10.5 117.501s-18.333 57.167 -34 76.5s-36.334 33.333 -62.001 42s-56.834 13 -93.501 13c-14 0 -28.5 -0.333008 -43.5 -1
s-30.833 -2 -47.5 -4v-488c18 -2.66699 34.833 -4.66699 50.5 -6s31.5 -2 47.5 -2z" />
    <glyph glyph-name="uni01C6" unicode="&#x1c6;" horiz-adv-x="1129" 
d="M693 796l184 -75l183 75v-109l-184 -75l-183 75v109zM648 104l246 308v8h-238v120h431v-103l-240 -308v-9h250v-120h-449v104zM244 -10c-140 0 -210 89 -210 267c0 97.333 24.833 170.5 74.5 219.5s119.167 73.5 208.5 73.5c13.333 0 26.666 -0.666992 39.999 -2l41 -4
v264h159v-808h-141l-12 62h-6c-35.333 -48 -86.666 -72 -153.999 -72zM294 106c32.667 0 58.167 10.002 76.5 30.002s27.5 54 27.5 102v192c-12 3.33301 -25.167 5.83301 -39.5 7.5s-29.5 2.5 -45.5 2.5c-22 0 -40.5 -2.66699 -55.5 -8s-27.167 -14.5 -36.5 -27.5
s-16 -30.333 -20 -52s-6 -48.834 -6 -81.501c0 -31.333 1.66699 -57.5 5 -78.5s9 -37.833 17 -50.5s18.333 -21.834 31 -27.501s28 -8.5 46 -8.5z" />
    <glyph glyph-name="uni01C7" unicode="&#x1c7;" horiz-adv-x="831" 
d="M526 -159c14.667 33.333 27 64.001 37 92.001s18 55.667 24 83s10.167 55.166 12.5 83.499s3.5 59.833 3.5 94.5v546h163v-559c0 -34 -2.33301 -66.333 -7 -97s-12.334 -61.167 -23.001 -91.5s-24.667 -61.5 -42 -93.5s-38.666 -66.667 -63.999 -104zM68 740.001h162
v-611h290v-129h-452v740z" />
    <glyph glyph-name="uni01C8" unicode="&#x1c8;" horiz-adv-x="806" 
d="M669 620c-31.333 0 -53.666 6.83301 -66.999 20.5s-20 35.5 -20 65.5s6.66699 51.667 20 65s35.666 20 66.999 20c32 0 54.833 -6.83301 68.5 -20.5s20.5 -35.167 20.5 -64.5s-6.83301 -51 -20.5 -65s-36.5 -21 -68.5 -21zM544 -194c8 24 15 48.1689 21 72.502
s11 49.833 15 76.5s7 55 9 85s3 63 3 99v33.5v66v83.5v87.5c0 28.333 -0.166992 54.166 -0.5 77.499s-0.5 41 -0.5 53h158v-464c-2.66699 -51.333 -12 -102.833 -28 -154.5s-37.333 -98.834 -64 -141.501zM68 740.002h162v-611h290v-129h-452v740z" />
    <glyph glyph-name="uni01C9" unicode="&#x1c9;" horiz-adv-x="549" 
d="M412 620c-31.333 0 -53.666 6.83301 -66.999 20.5s-20 35.5 -20 65.5s6.66699 51.667 20 65s35.666 20 66.999 20c32 0 54.833 -6.83301 68.5 -20.5s20.5 -35.167 20.5 -64.5s-6.83301 -51 -20.5 -65s-36.5 -21 -68.5 -21zM287 -194c8 24 15 48.1689 21 72.502
s11 49.833 15 76.5s7 55 9 85s3 63 3 99v33.5v66v83.5v87.5c0 28.333 -0.166992 54.166 -0.5 77.499s-0.5 41 -0.5 53h158v-464c-2.66699 -51.333 -12 -102.833 -28 -154.5s-37.333 -98.834 -64 -141.501zM58 808.002h159v-808h-159v808z" />
    <glyph glyph-name="uni01CA" unicode="&#x1ca;" horiz-adv-x="1065" 
d="M759 -159c14.667 33.333 27 64.001 37 92.001s18 55.667 24 83s10.167 55.166 12.5 83.499s3.5 59.833 3.5 94.5v546h163v-559c0 -34 -2.33301 -66.333 -7 -97s-12.334 -61.167 -23.001 -91.5s-24.667 -61.5 -42 -93.5s-38.666 -66.667 -63.999 -104zM68 740.001h132
l294 -403l53 -83h9v486h142v-740h-132l-291 399l-55 87h-9v-486h-143v740z" />
    <glyph glyph-name="uni01CB" unicode="&#x1cb;" horiz-adv-x="1040" 
d="M902 620c-31.333 0 -53.666 6.83301 -66.999 20.5s-20 35.5 -20 65.5s6.66699 51.667 20 65s35.666 20 66.999 20c32 0 54.833 -6.83301 68.5 -20.5s20.5 -35.167 20.5 -64.5s-6.83301 -51 -20.5 -65s-36.5 -21 -68.5 -21zM777 -194c8 24 15 48.1689 21 72.502
s11 49.833 15 76.5s7 55 9 85s3 63 3 99v33.5v66v83.5v87.5c0 28.333 -0.166992 54.166 -0.5 77.499s-0.5 41 -0.5 53h158v-464c-2.66699 -51.333 -12 -102.833 -28 -154.5s-37.333 -98.834 -64 -141.501zM68 740.002h132l294 -403l53 -83h9v486h142v-740h-132l-291 399
l-55 87h-9v-486h-143v740z" />
    <glyph glyph-name="uni01CC" unicode="&#x1cc;" horiz-adv-x="887" 
d="M750 620c-31.333 0 -53.666 6.83301 -66.999 20.5s-20 35.5 -20 65.5s6.66699 51.667 20 65s35.666 20 66.999 20c32 0 54.833 -6.83301 68.5 -20.5s20.5 -35.167 20.5 -64.5s-6.83301 -51 -20.5 -65s-36.5 -21 -68.5 -21zM625 -194c8 24 15 48.1689 21 72.502
s11 49.833 15 76.5s7 55 9 85s3 63 3 99v33.5v66v83.5v87.5c0 28.333 -0.166992 54.166 -0.5 77.499s-0.5 41 -0.5 53h158v-464c-2.66699 -51.333 -12 -102.833 -28 -154.5s-37.333 -98.834 -64 -141.501zM58 540.002h133.001l9 -61h6c47.333 25.333 87 43.5 119 54.5
s62.667 16.5 92 16.5c44.667 0 79.5 -12.833 104.5 -38.5s37.5 -62.167 37.5 -109.5v-402h-159v348c0 26 -4.83301 44.5 -14.5 55.5s-24.167 16.5 -43.5 16.5c-17.333 0 -36.833 -3.16699 -58.5 -9.5s-43.834 -14.833 -66.501 -25.5v-385h-159v540z" />
    <glyph glyph-name="Oogonek" unicode="&#x1ea;" horiz-adv-x="746" 
d="M374 -212c-43.333 0 -76.335 8 -99.002 24s-34 39.333 -34 70c0 41.333 22.333 78.666 67 111.999c-89.333 12 -156.833 49.333 -202.5 112s-68.5 150.334 -68.5 263.001c0 126.667 28.167 221.834 84.5 285.501s140.166 95.5 251.499 95.5s195.333 -31.833 252 -95.5
s85 -158.834 85 -285.501c0 -109.333 -21.333 -195 -64 -257s-106 -100.333 -190 -115c-41.333 -16.667 -70.166 -33.167 -86.499 -49.5s-24.5 -31.5 -24.5 -45.5c0 -17.333 12 -26 36 -26c10 0 22.333 1.33301 37 4s28.334 6 41.001 10v-90
c-27.333 -8 -55.666 -12 -84.999 -12zM372.998 122c31.333 0 57.834 4.33496 79.501 13.002s39.334 22.667 53.001 42s23.5 44.666 29.5 75.999s9 70 9 116c0 45.333 -3.16699 83.833 -9.5 115.5s-16.333 57.5 -30 77.5s-31.334 34.5 -53.001 43.5
s-47.834 13.5 -78.501 13.5s-56.667 -4.5 -78 -13.5s-38.833 -23.333 -52.5 -43s-23.667 -45.334 -30 -77.001s-9.5 -70.5 -9.5 -116.5c0 -45.333 3.16699 -83.833 9.5 -115.5s16.166 -57.167 29.499 -76.5s30.833 -33.333 52.5 -42s47.834 -13 78.501 -13z" />
    <glyph glyph-name="oogonek" unicode="&#x1eb;" horiz-adv-x="606" 
d="M319 -207c-43.333 0 -76.3359 7.99902 -99.0029 23.999s-34 39.333 -34 70c0 39.333 20 75 60 107c-70 9.33301 -123 37.333 -159 84s-54 110.667 -54 192c0 91.333 23 160.833 69 208.5s113 71.5 201 71.5s154.833 -23.833 200.5 -71.5s68.5 -117.167 68.5 -208.5
c0 -72 -14.167 -130.5 -42.5 -175.5s-70.166 -75.5 -125.499 -91.5c-42 -17.333 -71.5 -34.166 -88.5 -50.499s-25.5 -31.5 -25.5 -45.5c0 -17.333 12 -26 36 -26c10 0 22.333 1.33301 37 4s28.334 6 41.001 10v-90c-27.333 -8 -55.666 -12 -84.999 -12zM302.997 110.999
c20 0 37 2.66699 51 8s25.333 14.166 34 26.499s15 28.666 19 48.999s6 45.5 6 75.5s-2 55.167 -6 75.5s-10.333 36.666 -19 48.999s-20 21 -34 26s-31 7.5 -51 7.5s-37 -2.5 -51 -7.5s-25.333 -13.667 -34 -26s-15 -28.666 -19 -48.999s-6 -45.5 -6 -75.5
s2 -55.167 6 -75.5s10.333 -36.666 19 -48.999s20 -21.166 34 -26.499s31 -8 51 -8z" />
    <glyph glyph-name="uni01F1" unicode="&#x1f1;" horiz-adv-x="1320" 
d="M741 128l343 473v8h-329v131h521v-126l-343 -475v-8h359v-131h-551v128zM267 -12c-34 0 -68.168 1.16699 -102.501 3.5s-66.5 5.5 -96.5 9.5v737c48 3.33301 90.667 6.16602 128 8.49902s70.333 3.5 99 3.5c68.667 0 127.834 -7.33301 177.501 -22
s90.334 -37.334 122.001 -68.001s55 -70.167 70 -118.5s22.5 -105.833 22.5 -172.5c0 -68 -7.83301 -126.167 -23.5 -174.5s-40.334 -87.666 -74.001 -117.999s-77 -52.666 -130 -66.999s-117.167 -21.5 -192.5 -21.5zM326.999 118c35.333 0 65.335 4.33105 90.002 12.998
s44.667 22.834 60 42.501s26.333 45.5 33 77.5s10 71.667 10 119c0 46.667 -3.5 85.834 -10.5 117.501s-18.333 57.167 -34 76.5s-36.334 33.333 -62.001 42s-56.834 13 -93.501 13c-14 0 -28.5 -0.333008 -43.5 -1s-30.833 -2 -47.5 -4v-488
c18 -2.66699 34.833 -4.66699 50.5 -6s31.5 -2 47.5 -2z" />
    <glyph glyph-name="uni01F2" unicode="&#x1f2;" horiz-adv-x="1236" 
d="M755 104l246 308v8h-238v120h431v-103l-240 -308v-9h250v-120h-449v104zM267 -12c-34 0 -68.168 1.16699 -102.501 3.5s-66.5 5.5 -96.5 9.5v737c48 3.33301 90.667 6.16602 128 8.49902s70.333 3.5 99 3.5c68.667 0 127.834 -7.33301 177.501 -22
s90.334 -37.334 122.001 -68.001s55 -70.167 70 -118.5s22.5 -105.833 22.5 -172.5c0 -68 -7.83301 -126.167 -23.5 -174.5s-40.334 -87.666 -74.001 -117.999s-77 -52.666 -130 -66.999s-117.167 -21.5 -192.5 -21.5zM326.999 118c35.333 0 65.335 4.33105 90.002 12.998
s44.667 22.834 60 42.501s26.333 45.5 33 77.5s10 71.667 10 119c0 46.667 -3.5 85.834 -10.5 117.501s-18.333 57.167 -34 76.5s-36.334 33.333 -62.001 42s-56.834 13 -93.501 13c-14 0 -28.5 -0.333008 -43.5 -1s-30.833 -2 -47.5 -4v-488
c18 -2.66699 34.833 -4.66699 50.5 -6s31.5 -2 47.5 -2z" />
    <glyph glyph-name="uni01F3" unicode="&#x1f3;" horiz-adv-x="1129" 
d="M648 104l246 308v8h-238v120h431v-103l-240 -308v-9h250v-120h-449v104zM244 -10c-140 0 -210 89 -210 267c0 97.333 24.833 170.5 74.5 219.5s119.167 73.5 208.5 73.5c13.333 0 26.666 -0.666992 39.999 -2l41 -4v264h159v-808h-141l-12 62h-6
c-35.333 -48 -86.666 -72 -153.999 -72zM294 106c32.667 0 58.167 10.002 76.5 30.002s27.5 54 27.5 102v192c-12 3.33301 -25.167 5.83301 -39.5 7.5s-29.5 2.5 -45.5 2.5c-22 0 -40.5 -2.66699 -55.5 -8s-27.167 -14.5 -36.5 -27.5s-16 -30.333 -20 -52
s-6 -48.834 -6 -81.501c0 -31.333 1.66699 -57.5 5 -78.5s9 -37.833 17 -50.5s18.333 -21.834 31 -27.501s28 -8.5 46 -8.5z" />
    <glyph glyph-name="Gacute" unicode="&#x1f4;" horiz-adv-x="660" 
d="M296 806l67 169h163l-115 -178zM387 -11c-119.333 0 -207.5 31.1689 -264.5 93.502s-85.5 157.833 -85.5 286.5c0 129.333 30.5 225.333 91.5 288s154.5 94 280.5 94c30 0 62.333 -2 97 -6s67 -9.66699 97 -17v-130c-39.333 7.33301 -73.5 12.5 -102.5 15.5
s-54.833 4.5 -77.5 4.5c-41.333 0 -76.166 -4.16699 -104.499 -12.5s-51 -22.333 -68 -42s-29.167 -45.334 -36.5 -77.001s-11 -70.834 -11 -117.501c0 -46 3.33301 -84.833 10 -116.5s17.5 -57 32.5 -76s35 -32.667 60 -41s55.5 -12.5 91.5 -12.5c20 0 42 1 66 3v250h149
v-358c-42 -9.33301 -82.333 -16.5 -121 -21.5s-73.334 -7.5 -104.001 -7.5z" />
    <glyph glyph-name="gacute" unicode="&#x1f5;" horiz-adv-x="614" 
d="M260 618l66 187h163l-116 -196zM269 -220c-34 0 -68.5 2.00098 -103.5 6.00098s-66.167 9.66699 -93.5 17l10 115c25.333 -5.33301 51.833 -10 79.5 -14s55.167 -6 82.5 -6c24.667 0 47 2.5 67 7.5s37 13.167 51 24.5s25 26.333 33 45s12 41.667 12 69v43h-7
c-16.667 -25.333 -38 -43.833 -64 -55.5s-56 -17.5 -90 -17.5c-70.667 0 -123.5 20.167 -158.5 60.5s-52.5 103.166 -52.5 188.499c0 94.667 25 166.167 75 214.5s119.333 72.5 208 72.5c16 0 32.167 -0.666992 48.5 -2s34 -3.5 53 -6.5s39.833 -7 62.5 -12
s48 -11.5 76 -19.5v-442c0 -52 -7.16699 -96.333 -21.5 -133s-34.333 -66.5 -60 -89.5s-56.167 -39.667 -91.5 -50s-74 -15.5 -116 -15.5zM295 126.001c33.333 0 58.9971 9.83203 76.9971 29.499s27 52.167 27 97.5v177c-12.667 3.33301 -26.167 5.83301 -40.5 7.5
s-29.166 2.5 -44.499 2.5c-22 0 -40.5 -2.66699 -55.5 -8s-27.167 -14.166 -36.5 -26.499s-16 -29 -20 -50s-6 -47.167 -6 -78.5c0 -28 1.66699 -51.667 5 -71s8.83301 -35 16.5 -47s17.834 -20.5 30.501 -25.5s28.334 -7.5 47.001 -7.5z" />
    <glyph glyph-name="Aringacute" unicode="&#x1fa;" horiz-adv-x="695" 
d="M0 8l209 663c-20.667 22 -31 49.333 -31 82c0 35.333 11.167 65.166 33.5 89.499s52.833 39.833 91.5 46.5l48 113h163l-82 -126c27.333 -11.333 48.5 -27.666 63.5 -48.999s22.5 -46 22.5 -74c0 -16.667 -2.83301 -32 -8.5 -46s-13.5 -26.333 -23.5 -37l209 -662v-8
h-156l-55 178h-274l-54 -178h-156v8zM347 690c23.333 0 42 5.83105 56 17.498s21 26.834 21 45.501c0 19.333 -7 34.833 -21 46.5s-32.667 17.5 -56 17.5s-41.5 -5.83301 -54.5 -17.5s-19.5 -27.167 -19.5 -46.5s6.66699 -34.666 20 -45.999s31.333 -17 54 -17zM446 311.998
l-53 179l-32 113h-27l-32 -113l-54 -179h198z" />
    <glyph glyph-name="aringacute" unicode="&#x1fb;" horiz-adv-x="555" 
d="M180 -5c-48.667 0 -86.3281 13.835 -112.995 41.502s-40 65.5 -40 113.5c0 53.333 16.5 94.166 49.5 122.499s83.833 44.5 152.5 48.5l114 7v9c0 18.667 -1.33301 34.167 -4 46.5s-7.83398 22.166 -15.501 29.499s-18.334 12.5 -32.001 15.5s-31.5 4.5 -53.5 4.5
c-10.667 0 -22.834 -0.5 -36.501 -1.5s-27.834 -2.16699 -42.501 -3.5s-29.334 -3 -44.001 -5s-28.334 -4.33301 -41.001 -7l-10 112c35.333 6.66699 69.666 11.5 102.999 14.5s65 4.5 95 4.5c82.667 0 143.334 -14.333 182.001 -43s58 -74 58 -136v-368h-131l-14 66h-8
c-23.333 -22.667 -49.666 -40.167 -78.999 -52.5s-59.333 -18.5 -90 -18.5zM281.006 592.002c-38 0 -69 10.499 -93 31.499s-36 48.167 -36 81.5c0 28 8.83301 52 26.5 72s41.5 32.667 71.5 38l58 164h163l-109 -184c14.667 -10 26.167 -22.667 34.5 -38
s12.5 -32.666 12.5 -51.999c0 -33.333 -11.833 -60.5 -35.5 -81.5s-54.5 -31.5 -92.5 -31.5zM246.006 107.001c16 0 32.833 3.83301 50.5 11.5s33.167 16.167 46.5 25.5v98l-70 -7c-32 -3.33301 -54.333 -10 -67 -20s-19 -26 -19 -48c0 -40 19.667 -60 59 -60z
M281.006 650.001c39.333 0 59 18.333 59 55s-19.667 55 -59 55c-40 0 -60 -18.333 -60 -55s20 -55 60 -55z" />
    <glyph glyph-name="AEacute" unicode="&#x1fc;" horiz-adv-x="927" 
d="M458 806l67 169h163l-115 -178zM-3 8l272 732h607v-130h-296l11 -173h270v-130h-262l11 -177h279v-130h-439l-7 178h-219l-66 -178h-161v8zM273 312h164l-12 310h-37z" />
    <glyph glyph-name="aeacute" unicode="&#x1fd;" horiz-adv-x="868" 
d="M384 618l66 187h163l-116 -196zM611 -11c-92.667 0 -159.001 29.3301 -199.001 87.9971l-8 1c-42 -29.333 -81.167 -50.5 -117.5 -63.5s-72.166 -19.5 -107.499 -19.5c-48 0 -85.167 13.833 -111.5 41.5s-39.5 65.834 -39.5 114.501c0 52.667 16.333 92.834 49 120.501
s83.334 43.834 152.001 48.501l114 8v27c0 15.333 -1.83301 28 -5.5 38s-9.83398 18 -18.501 24s-20.167 10.167 -34.5 12.5s-32.166 3.5 -53.499 3.5c-10 0 -21.5 -0.5 -34.5 -1.5s-26.5 -2.16699 -40.5 -3.5s-28 -3 -42 -5s-27 -4.33301 -39 -7l-11 112
c37.333 6.66699 72.5 11.5 105.5 14.5s65.167 4.5 96.5 4.5c80 0 135 -22.333 165 -67h8c39.333 44.667 96.666 67 171.999 67c148.667 0 223 -81.333 223 -244c0 -18.667 -0.5 -34 -1.5 -46s-2.83301 -23.667 -5.5 -35h-323c2.66699 -41.333 13 -70.5 31 -87.5
s47.667 -25.5 89 -25.5c26.667 0 56.667 2.16699 90 6.5s65 10.833 95 19.5l5 -115c-29.333 -9.33301 -62 -16.833 -98 -22.5s-71 -8.5 -105 -8.5zM246.999 105.997c15.333 0 31.666 3.66797 48.999 11.001s34 17 50 29c-0.666992 1.33301 -1.16699 6.66602 -1.5 15.999
s-0.666016 19.666 -0.999023 30.999s-0.5 21.833 -0.5 31.5v17.5l-70 -6c-32 -3.33301 -54.167 -10.166 -66.5 -20.499s-18.5 -26.5 -18.5 -48.5c0 -40.667 19.667 -61 59 -61zM692.999 308.998c-1.33301 44.667 -8.5 76.5 -21.5 95.5s-35.167 28.5 -66.5 28.5
c-32.667 0 -57 -9.83301 -73 -29.5s-25.333 -51.167 -28 -94.5h189z" />
    <glyph glyph-name="Oslashacute" unicode="&#x1fe;" horiz-adv-x="750" 
d="M104 111c-43.333 62.667 -64.999 148.667 -64.999 258c0 126.667 28.167 221.834 84.5 285.501s140.166 95.5 251.499 95.5c84 0 152.667 -18.667 206 -56l37 46h118l-91 -111c44.667 -62.667 67 -149.334 67 -260.001c0 -126 -28.333 -220.667 -85 -284
s-140.667 -95 -252 -95c-84 0 -152.333 18.333 -205 55l-37 -45h-119zM375.001 122c30.667 0 57.001 4.33398 79.001 13.001s39.667 22.667 53 42s23.166 44.666 29.499 75.999s9.5 70 9.5 116c0 48.667 -4 90 -12 124l-273 -336c13.333 -12.667 29.333 -21.667 48 -27
s40.667 -8 66 -8zM205.002 369.001c0 -24.667 1 -46.999 3 -66.999s4.66699 -38.333 8 -55l273 335c-13.333 13.333 -29.333 22.833 -48 28.5s-40.667 8.5 -66 8.5c-30.667 0 -56.667 -4.5 -78 -13.5s-38.833 -23.333 -52.5 -43s-23.667 -45.334 -30 -77.001
s-9.5 -70.5 -9.5 -116.5zM309.002 806.002l67 169h163l-115 -178z" />
    <glyph glyph-name="oslashacute" unicode="&#x1ff;" horiz-adv-x="612" 
d="M84 87c-31.333 45.333 -46.998 106.333 -46.998 183c0 88.667 22.167 157.5 66.5 206.5s111.833 73.5 202.5 73.5c66 0 120.667 -14 164 -42l29 32h108l-80 -87c32.667 -45.333 49 -106.333 49 -183c0 -90 -22.333 -159.167 -67 -207.5s-112.334 -72.5 -203.001 -72.5
c-66.667 0 -121.334 13.667 -164.001 41l-29 -31h-108zM306.002 111c22.667 0 41.167 2.83594 55.5 8.50293s25.5 14.667 33.5 27s13.5 28.666 16.5 48.999s4.5 45.166 4.5 74.499c0 21.333 -1 40.666 -3 57.999l-181 -198c8 -7.33301 18 -12.333 30 -15s26.667 -4 44 -4z
M197.002 270.003l-0.000976562 -31c0 -9.33301 0.666992 -18.333 2 -27l180 197c-15.333 12.667 -39.666 19 -72.999 19c-22.667 0 -41.167 -2.66699 -55.5 -8s-25.5 -14.333 -33.5 -27s-13.333 -29 -16 -49s-4 -44.667 -4 -74zM245.001 618.003l66 187h163l-116 -196z" />
    <glyph glyph-name="Adblgrave" unicode="&#x200;" horiz-adv-x="696" 
d="M0 8l226 732h243l226 -732v-8h-155l-57 181h-272l-55 -181h-156v8zM448 309l-55 182l-39 133h-13l-39 -133l-55 -182h201zM198 796l-115 178h148l67 -167zM395 796l-116 178h149l67 -167z" />
    <glyph glyph-name="adblgrave" unicode="&#x201;" horiz-adv-x="555" 
d="M180 -5c-48.667 0 -86.3281 13.835 -112.995 41.502s-40 65.5 -40 113.5c0 53.333 16.5 94.166 49.5 122.499s83.833 44.5 152.5 48.5l114 7v9c0 18.667 -1.33301 34.167 -4 46.5s-7.83398 22.166 -15.501 29.499s-18.334 12.5 -32.001 15.5s-31.5 4.5 -53.5 4.5
c-10.667 0 -22.834 -0.5 -36.501 -1.5s-27.834 -2.16699 -42.501 -3.5s-29.334 -3 -44.001 -5s-28.334 -4.33301 -41.001 -7l-10 112c35.333 6.66699 69.666 11.5 102.999 14.5s65 4.5 95 4.5c82.667 0 143.334 -14.333 182.001 -43s58 -74 58 -136v-368h-131l-14 66h-8
c-23.333 -22.667 -49.666 -40.167 -78.999 -52.5s-59.333 -18.5 -90 -18.5zM246.006 107.002c16 0 32.833 3.83301 50.5 11.5s33.167 16.167 46.5 25.5v98l-70 -7c-32 -3.33301 -54.333 -10 -67 -20s-19 -26 -19 -48c0 -40 19.667 -60 59 -60zM140.006 610.002l-116 197h149
l66 -187zM345.006 610.002l-116 197h149l66 -187z" />
    <glyph glyph-name="Ainvertedbreve" unicode="&#x202;" horiz-adv-x="696" 
d="M0 8l226 732h243l226 -732v-8h-155l-57 181h-272l-55 -181h-156v8zM448 309l-55 182l-39 133h-13l-39 -133l-55 -182h201zM441 814c0 32 -6.83008 55.835 -20.4971 71.502s-37.834 23.5 -72.501 23.5s-59 -7.83301 -73 -23.5s-21 -39.5 -21 -71.5h-107
c0 25.333 3.83301 48.666 11.5 69.999s19.667 39.666 36 54.999s37.166 27.166 62.499 35.499s55.666 12.5 90.999 12.5s65.666 -4.16699 90.999 -12.5s46.333 -20.166 63 -35.499s28.834 -33.5 36.501 -54.5s11.5 -44.5 11.5 -70.5h-109z" />
    <glyph glyph-name="ainvertedbreve" unicode="&#x203;" horiz-adv-x="555" 
d="M180 -5c-48.667 0 -86.3281 13.835 -112.995 41.502s-40 65.5 -40 113.5c0 53.333 16.5 94.166 49.5 122.499s83.833 44.5 152.5 48.5l114 7v9c0 18.667 -1.33301 34.167 -4 46.5s-7.83398 22.166 -15.501 29.499s-18.334 12.5 -32.001 15.5s-31.5 4.5 -53.5 4.5
c-10.667 0 -22.834 -0.5 -36.501 -1.5s-27.834 -2.16699 -42.501 -3.5s-29.334 -3 -44.001 -5s-28.334 -4.33301 -41.001 -7l-10 112c35.333 6.66699 69.666 11.5 102.999 14.5s65 4.5 95 4.5c82.667 0 143.334 -14.333 182.001 -43s58 -74 58 -136v-368h-131l-14 66h-8
c-23.333 -22.667 -49.666 -40.167 -78.999 -52.5s-59.333 -18.5 -90 -18.5zM246.006 107.002c16 0 32.833 3.83301 50.5 11.5s33.167 16.167 46.5 25.5v98l-70 -7c-32 -3.33301 -54.333 -10 -67 -20s-19 -26 -19 -48c0 -40 19.667 -60 59 -60zM83.0059 622.002
c0.666992 25.333 5.00293 48.3311 13.0029 68.998s20.167 38.334 36.5 53.001s37 26 62 34s55.167 12 90.5 12c70 0 120.667 -15.167 152 -45.5s47.666 -71.166 48.999 -122.499h-108c0 30 -7.5 52 -22.5 66s-38.5 21 -70.5 21c-32.667 0 -56.334 -7 -71.001 -21
s-22.334 -36 -23.001 -66h-108z" />
    <glyph glyph-name="Edblgrave" unicode="&#x204;" horiz-adv-x="616" 
d="M68 740h503v-130h-341v-173h308v-130h-308v-177h350v-130h-512v740zM174 796l-115 178h148l67 -167zM371 796l-116 178h149l67 -167z" />
    <glyph glyph-name="edblgrave" unicode="&#x205;" horiz-adv-x="556" 
d="M135 610l-116 197h149l66 -187zM340 610l-116 197h149l66 -187zM299 -9c-176.667 0 -264.999 91.3311 -264.999 273.998c0 93.333 22.333 164 67 212s110.667 72 198 72c148.667 0 223 -81.667 223 -245c0 -17.333 -0.5 -32.166 -1.5 -44.499s-3.16699 -24.5 -6.5 -36.5
h-321c2 -22 5.5 -40.167 10.5 -54.5s12.167 -25.666 21.5 -33.999s21.166 -14.333 35.499 -18s31.5 -5.5 51.5 -5.5c26 0 56 2.33301 90 7s65.667 11 95 19l5 -115c-29.333 -9.33301 -62 -16.833 -98 -22.5s-71 -8.5 -105 -8.5zM293.001 435.998
c-32 0 -56 -9.50098 -72 -28.501s-25.667 -50.5 -29 -94.5h190c-1.33301 44.667 -9 76.334 -23 95.001s-36 28 -66 28z" />
    <glyph glyph-name="Einvertedbreve" unicode="&#x206;" horiz-adv-x="616" 
d="M68 740h503v-130h-341v-173h308v-130h-308v-177h350v-130h-512v740zM415 814c0 32 -6.83008 55.835 -20.4971 71.502s-37.834 23.5 -72.501 23.5s-59 -7.83301 -73 -23.5s-21 -39.5 -21 -71.5h-107c0 25.333 3.83301 48.666 11.5 69.999s19.667 39.666 36 54.999
s37.166 27.166 62.499 35.499s55.666 12.5 90.999 12.5s65.666 -4.16699 90.999 -12.5s46.333 -20.166 63 -35.499s28.834 -33.5 36.501 -54.5s11.5 -44.5 11.5 -70.5h-109z" />
    <glyph glyph-name="einvertedbreve" unicode="&#x207;" horiz-adv-x="556" 
d="M85 622c0.666992 25.333 5.00293 48.3311 13.0029 68.998s20.167 38.334 36.5 53.001s37 26 62 34s55.167 12 90.5 12c70 0 120.667 -15.167 152 -45.5s47.666 -71.166 48.999 -122.499h-108c0 30 -7.5 52 -22.5 66s-38.5 21 -70.5 21c-32.667 0 -56.334 -7 -71.001 -21
s-22.334 -36 -23.001 -66h-108zM299.003 -9.00195c-176.667 0 -264.999 91.3311 -264.999 273.998c0 93.333 22.333 164 67 212s110.667 72 198 72c148.667 0 223 -81.667 223 -245c0 -17.333 -0.5 -32.166 -1.5 -44.499s-3.16699 -24.5 -6.5 -36.5h-321
c2 -22 5.5 -40.167 10.5 -54.5s12.167 -25.666 21.5 -33.999s21.166 -14.333 35.499 -18s31.5 -5.5 51.5 -5.5c26 0 56 2.33301 90 7s65.667 11 95 19l5 -115c-29.333 -9.33301 -62 -16.833 -98 -22.5s-71 -8.5 -105 -8.5zM293.004 435.996c-32 0 -56 -9.50098 -72 -28.501
s-25.667 -50.5 -29 -94.5h190c-1.33301 44.667 -9 76.334 -23 95.001s-36 28 -66 28z" />
    <glyph glyph-name="Idblgrave" unicode="&#x208;" horiz-adv-x="298" 
d="M68 740h162v-740h-162v740zM12 796l-115 178h148l67 -167zM209 796l-116 178h149l67 -167z" />
    <glyph glyph-name="idblgrave" unicode="&#x209;" horiz-adv-x="276" 
d="M-8 610l-116 197h149l66 -187zM197 610l-116 197h149l66 -187zM59 540h159v-540h-159v540z" />
    <glyph glyph-name="Iinvertedbreve" unicode="&#x20a;" horiz-adv-x="298" 
d="M68 740h162v-740h-162v740zM245 814c0 32 -6.83008 55.835 -20.4971 71.502s-37.834 23.5 -72.501 23.5s-59 -7.83301 -73 -23.5s-21 -39.5 -21 -71.5h-107c0 25.333 3.83301 48.666 11.5 69.999s19.667 39.666 36 54.999s37.166 27.166 62.499 35.499
s55.666 12.5 90.999 12.5s65.666 -4.16699 90.999 -12.5s46.333 -20.166 63 -35.499s28.834 -33.5 36.501 -54.5s11.5 -44.5 11.5 -70.5h-109z" />
    <glyph glyph-name="iinvertedbreve" unicode="&#x20b;" horiz-adv-x="276" 
d="M-32 622c1.33301 51.333 15.999 92.167 43.999 122.5s72.333 45.5 133 45.5s104.834 -15 132.501 -45s42.167 -71 43.5 -123h-93c-0.666992 30 -7.5 52 -20.5 66s-33.833 21 -62.5 21c-29.333 0 -50.5 -7 -63.5 -21s-19.5 -36 -19.5 -66h-94zM58.999 540.001h159v-540
h-159v540z" />
    <glyph glyph-name="Odblgrave" unicode="&#x20c;" horiz-adv-x="747" 
d="M373 -10c-110.667 0 -194.332 31.667 -250.999 95s-85 158 -85 284c0 126.667 28.167 221.834 84.5 285.501s140.166 95.5 251.499 95.5s195.333 -31.833 252 -95.5s85 -158.834 85 -285.501c0 -126 -28.333 -220.667 -85 -284s-140.667 -95 -252 -95zM373.002 122
c31.333 0 57.834 4.33496 79.501 13.002s39.334 22.667 53.001 42s23.5 44.666 29.5 75.999s9 70 9 116c0 45.333 -3.16699 83.833 -9.5 115.5s-16.333 57.5 -30 77.5s-31.334 34.5 -53.001 43.5s-47.834 13.5 -78.501 13.5s-56.667 -4.5 -78 -13.5
s-38.833 -23.333 -52.5 -43s-23.667 -45.334 -30 -77.001s-9.5 -70.5 -9.5 -116.5c0 -45.333 3.16699 -83.833 9.5 -115.5s16.166 -57.167 29.499 -76.5s30.833 -33.333 52.5 -42s47.834 -13 78.501 -13zM226.003 796.002l-115 178h148l67 -167zM423.003 796.002l-116 178
h149l67 -167z" />
    <glyph glyph-name="odblgrave" unicode="&#x20d;" horiz-adv-x="606" 
d="M151 610l-116 197h149l66 -187zM356 610l-116 197h149l66 -187zM303 -10c-88 0 -155 23.833 -201 71.5s-69 117.167 -69 208.5s23 160.833 69 208.5s113 71.5 201 71.5s154.833 -23.833 200.5 -71.5s68.5 -117.167 68.5 -208.5s-22.833 -160.833 -68.5 -208.5
s-112.5 -71.5 -200.5 -71.5zM303 111c20 0 37 2.66699 51 8s25.333 14.166 34 26.499s15 28.666 19 48.999s6 45.5 6 75.5s-2 55.167 -6 75.5s-10.333 36.666 -19 48.999s-20 21 -34 26s-31 7.5 -51 7.5s-37 -2.5 -51 -7.5s-25.333 -13.667 -34 -26s-15 -28.666 -19 -48.999
s-6 -45.5 -6 -75.5s2 -55.167 6 -75.5s10.333 -36.666 19 -48.999s20 -21.166 34 -26.499s31 -8 51 -8z" />
    </font>
</defs>
</svg>
